<svg xmlns="http://www.w3.org/2000/svg" width="300" height="300" viewBox="0 0 300 300">
<path d="M 133.68873890478747 119.33820855284615 L 131.6459200111278 121.03755713159288 L 130.9026223493232 123.1446801941533 L 130.2631504176939 125.18756284988267 L 129.48787919715568 127.61083004577195 L 128.57965929331928 130.27642540297583 L 127.3621365367105 133.49492980704775 L 126.18974187213828 136.66250913533207 L 124.95379602183868 139.87164018024757 L 123.7199273745987 142.87622206764308 L 122.55792711054386 145.55663588778344 L 121.536993708256 147.77679638437255 L 120.63918583439431 149.6899435848476 L 122.19643852016598 151.5557242833081 L 122.89076503760934 148.79714427622218 L 120.10423007957816 148.18369068471532 L 119.32211616733402 152.1316536463794 L 123.14804561091819 151.2447487979649 L 124.230828557369 149.05389209218995 L 125.29851820195614 146.79468247159156 L 126.5132269222763 144.06982285423192 L 127.80011022816132 141.01849653850243 L 129.08491633098672 137.77132875529293 L 130.2892306507895 134.60773132576475 L 131.55644910511822 131.36993690171167 L 132.52078779503182 128.63025882141557 L 133.3299892307436 126.17376527511733 L 133.9869040178643 124.1376684386592 L 134.3239286216847 122.94156884496962 L 135.70213023583753 121.61296332215385 Z" fill="black" />
<path d="M 126.64331185454189 139.9852685262528 L 126.60682764608936 143.1510862867034 L 126.66060656957318 144.88202132456976 L 126.80666176019064 147.07163328145742 L 126.93453679869778 149.503546287674 L 127.1411611261769 152.36571494134975 L 127.42168870203977 155.7043114829994 L 127.56252591516892 159.00816178190772 L 127.65399336983424 162.61918839626713 L 127.73199526995202 166.15695861420747 L 127.75718092918396 169.6485595703125 L 127.79191386699677 172.81414794921875 L 127.80604648590088 176.16741943359375 L 127.80233096992387 178.46363210531243 L 127.74460478812672 180.41874462628897 L 130.69899872749826 180.49946826433603 L 130.74930477226363 178.50072336343757 L 130.74558925628662 176.16741943359375 L 130.75972187519073 172.81414794921875 L 130.79445481300354 169.6485595703125 L 130.81964047223548 166.13332458891753 L 130.78961014579076 162.56416121310787 L 130.73703463170608 158.91810774934228 L 130.62579664952273 155.5154150795006 L 130.36616309257312 152.12244423833775 L 130.1766692559897 149.304070899826 L 130.05246909918438 146.88124757791758 L 129.91043835230184 144.71661148793024 L 129.85618504922314 143.0192017992341 L 129.53161490327062 139.8538428018722 Z" fill="black" />
<path d="M 144.33147683784105 126.3113637807211 L 148.31567037359918 125.86490533704314 L 149.95399829511464 125.60238753357788 L 151.69591482988966 125.4158920367019 L 153.59274004955967 125.21030075509611 L 155.74605744050925 125.00104231046033 L 157.6758145503599 124.85434432144261 L 159.5913813907813 124.65712655342521 L 161.2850748667737 124.50471547736201 L 162.90134538193809 124.35748055507491 L 166.55532220192586 123.92564833894139 L 164.74144161309803 121.08935715149677 L 164.85938846502697 123.94079421569073 L 166.07041021994914 120.97938095793361 L 162.59426008681191 121.34832999180009 L 161.0415852894763 121.45133921013799 L 159.3142582576562 121.57419668876229 L 157.4126864262026 121.75234513168239 L 155.48929412199075 121.88091569735217 L 153.28531170825283 122.07204787771639 L 151.36499825604784 122.2668472211106 L 149.54185131426036 122.45571793517212 L 147.86719095452582 122.71871282701936 L 143.92902120903395 123.3483041880289 Z" fill="black" />
<path d="M 148.41665561944208 129.51757638650923 L 146.62321910840123 130.9662678293382 L 145.4624816786411 132.59928150967366 L 144.62436971633838 134.51915916133288 L 144.1714336172956 136.60979854618296 L 144.0181459520902 138.82313233655 L 144.06211766518996 141.8621898076829 L 145.14705920248144 144.16656561655643 L 147.75882458658106 142.92962578969357 L 146.97120753012254 141.2801441766921 L 147.0151792432223 138.913928210325 L 147.1499775155169 137.02325809444204 L 147.48927774459912 135.43530861210462 L 148.0915954697964 134.05196360751384 L 148.76740589159877 133.0574138112868 L 150.28695766180792 131.85351736349077 Z" fill="black" />
<path d="M 148.9219516579703 134.5410040184668 L 148.70637599341848 133.09303514479046 L 149.24880541215848 133.26819739641218 L 152.36278969233834 132.20320870563458 L 155.87562333203368 131.38350225590955 L 158.31469543688763 131.00435401330475 L 162.1180433370696 130.6860392507628 L 163.73435622254587 130.6830628519982 L 165.23424721594407 130.58345760937118 L 164.615359472864 130.6306118630145 L 163.83914406582807 133.855489351482 L 163.45131505321584 136.2252504295839 L 163.21864619421657 139.1319389204528 L 163.16698392284516 141.1418263418129 L 166.03772799121734 141.3248484628746 L 166.23814091515843 139.3808784623597 L 166.54563318897166 136.6320493751036 L 166.95004050448443 134.522440336018 L 167.7582977536985 131.1408725119855 L 167.13941001061843 128.03495059375382 L 163.88588303526663 127.53495472612681 L 161.9371324441804 127.5319783273622 L 157.96216003186237 127.86429833044524 L 155.25169600390382 128.28593133784045 L 151.49035972172416 129.16788504436542 L 148.12241040815402 130.35509361921282 L 145.89201267845652 131.85654981614704 L 145.9645229514047 134.7378045752832 Z" fill="black" />
<path d="M 150.44126602528272 136.26755693276414 L 148.69221688011388 136.3485498606472 L 150.32791992397932 139.2362230112722 L 152.78179285906947 138.77619688325967 L 154.1979093486059 138.58467743877168 L 155.74457450969996 138.4568332653324 L 157.33533350653968 138.31424897377505 L 159.12872314453125 138.29754281044006 L 160.71319580078125 138.27945983409882 L 163.73809814453125 138.2587857246399 L 166.17452183477874 138.21210059458423 L 168.33515259199996 138.6227813383358 L 168.89995482987504 135.8110565522892 L 166.45121058709626 135.29583397572827 L 163.73809814453125 135.2491488456726 L 160.71319580078125 135.22847473621368 L 159.12872314453125 135.21039175987244 L 157.21300633721032 135.19368559653745 L 155.49077705280004 135.3263698596676 L 153.8684969013941 135.44876982685332 L 152.25971104718053 135.65764100736533 L 149.81612304477068 136.1235181996653 L 148.28288077613612 139.4115819752903 L 150.63905624034228 139.21730634848586 Z" fill="black" />
<path d="M 152.10536440817796 145.51972730624234 L 154.2476364745151 145.02931285763037 L 158.0845398540278 144.76290555470447 L 160.81729687046501 144.5710375577099 L 164.75704423240123 144.18957825635852 L 166.5292491356961 143.89318330090643 L 166.0964832861789 141.07593291003107 L 164.44766768166127 141.30505064989148 L 160.60909473109749 141.5992505282276 L 157.9042296772222 141.65762667185803 L 153.8187697754849 141.91673206424463 L 151.35166684182204 142.62748949063266 Z" fill="black" />
<path d="M 148.0778942050132 154.19826221955947 L 150.47760670759433 154.23442541880053 L 152.12161590834407 153.95470248215196 L 153.7572892353992 153.68040995055856 L 155.5134200964389 153.41793943396158 L 157.48501560730048 153.14133762012742 L 159.3943911456644 152.8627925730357 L 161.33809518435424 152.5754437689911 L 163.34926750886817 152.22301968042856 L 165.20154642914892 151.8637019181169 L 166.92711438052112 151.51734054927587 L 168.74205657518408 151.11499638951145 L 171.0608016963648 150.75926184405074 L 172.7196749122205 150.33816926087886 L 172.041677626842 147.56856902037114 L 170.5316055301977 147.92323327313676 L 168.24097565137842 148.24315790736355 L 166.34681140072888 148.61657058353663 L 164.65135884428858 148.9208439803206 L 162.83054206144433 149.23718539769644 L 160.88053274533326 149.5353960747589 L 158.9710873699606 149.7735599660268 L 157.06332423644952 150.02052761424758 L 155.0737381066861 150.26943849572592 L 153.2648054911633 150.53248067444144 L 151.58749053696843 150.80872525222304 L 150.20659739396817 151.05451501088697 L 147.9969348965493 151.21580028044053 Z" fill="black" />
<path d="M 169.42835264699602 148.7116518156531 L 170.20220081563318 150.84068840222932 L 170.94457132828737 152.6131860767303 L 171.72785580595087 154.23687573122413 L 172.5431283773518 155.94606932280635 L 175.1350942788982 154.74814454438115 L 174.36589419404913 153.02899340940087 L 173.70874898421263 151.4745824779572 L 173.11872203592932 149.69361335558318 L 172.16405457956648 147.5935239655969 Z" fill="black" />
<path d="M 158.0888005918502 115.60141422472599 L 156.98162567954313 117.51693076620265 L 156.3930757525795 119.58100106367262 L 156.3013412628747 121.55752380584846 L 156.30913178553897 123.47376140918739 L 156.5884472172355 126.15159009489251 L 156.71592927272218 127.6861551313805 L 156.7901989229723 129.42368520988853 L 156.84971207209304 131.36843185024685 L 156.8565672636032 133.58837890625 L 156.86802697181702 135.9656982421875 L 156.88442262835142 138.65228098843906 L 156.8443835736111 140.96998994398658 L 156.71728980121588 143.2156023216497 L 156.4809080320992 145.2888929334446 L 156.29443711452032 147.26881945828615 L 156.11170470123298 148.86602790139702 L 155.65549115108718 151.6846125774457 L 158.49673052860032 152.1529118366168 L 158.97679627532952 149.29095452047798 L 159.19018202610468 147.58494030733885 L 159.3998292725883 145.6110094103054 L 159.66759789409662 143.4801984596003 L 159.8285900592014 141.09629423570092 L 159.89658323102358 138.68438893343594 L 159.91297888755798 135.9656982421875 L 159.9244385957718 133.58837890625 L 159.93129378728196 131.32895584506565 L 159.8827747098402 129.31984506354897 L 159.81300139134032 127.503908345182 L 159.6884082515145 125.86037279573249 L 159.42756255039853 123.28307452831261 L 159.4353530730628 121.62082092071404 L 159.487661552108 120.04387686601488 L 159.79938017983187 118.67960243692235 L 160.6727960878373 117.04165218152401 Z" fill="black" />
<path d="M 146.3280429279514 160.53515544122197 L 145.52683075708123 161.978866685022 L 146.645082203676 162.49546418453173 L 149.6858300841607 162.0603044736164 L 151.5101165873344 161.74086512842055 L 153.51042011087128 161.4905453290177 L 155.854235723374 161.22754400033614 L 158.13373380477827 161.01787038593852 L 160.59803740763556 160.80221672050175 L 163.02510757750608 160.52460125293743 L 165.43291877113924 160.36919597849553 L 167.75958667793682 160.15393076371456 L 170.0842250357399 159.92607020885757 L 173.27007314373827 159.62790815733928 L 175.23841404401418 158.84377084544488 L 174.16832423723582 156.05454458424262 L 172.67963388751173 156.59670121766072 L 169.8156773080101 156.82405186145493 L 167.49492992362568 156.99658193159794 L 165.21222283042326 157.15668292775447 L 162.75858382874392 157.27654620800007 L 160.28819306111444 157.52444343574825 L 157.85503572647173 157.70918039531148 L 155.525158807876 157.89989740591386 L 153.11555645162872 158.1624087725448 L 151.0106353657906 158.43760166845445 L 149.1618261658393 158.7687970888836 L 145.9727156478865 159.25954069828077 L 142.48159209448127 161.102432143103 L 145.6415615642361 163.47204670721553 Z" fill="black" />
<path d="M 165.1490682922673 151.52759440935398 L 161.44933032231233 150.77997401782858 L 160.66202972406947 154.78580378917422 L 161.12683900314013 157.5637927065698 L 161.45621558186693 159.0863000053764 L 161.76559318645542 160.90921364491038 L 162.08492386317502 162.68985728931034 L 162.4201852857157 164.5900454698784 L 162.7312173599789 166.5037267163716 L 162.92122287819245 168.42812931478454 L 163.11759654005772 170.39472104860698 L 163.31416771092353 172.6122300232 L 163.43862967333177 174.34668782520458 L 163.51251194973 176.0776747013444 L 163.51825380325317 177.681396484375 L 163.52589619159698 179.3330078125 L 163.53516101837158 180.84698486328125 L 163.56541516846116 183.30703194654473 L 164.17393119090238 183.73965408967277 L 164.69794879738865 183.1180377766003 L 163.00617358143725 180.28074648882827 L 161.35254426403674 177.8607939730124 L 160.3395884926882 176.4611509339957 L 158.0258900229368 178.1258851988168 L 158.99352507190076 179.4789277066751 L 160.50884106700025 181.81361386273423 L 162.13005413229885 184.7819866374622 L 164.88673775441012 186.91305587126473 L 166.82765123778884 183.79221121751777 L 166.85790538787842 180.84698486328125 L 166.86717021465302 179.3330078125 L 166.87481260299683 177.681396484375 L 166.88055445652 176.0069200252181 L 166.81039376416823 174.15941569042042 L 166.68278053126397 172.34040669555 L 166.48323353806728 170.07854555295552 L 166.28348903587005 168.09127986490296 L 166.0773763900211 166.0618250414409 L 165.7402151049093 164.0216488660591 L 165.39127242588748 162.09310169506466 L 165.06240974323208 160.32027854258962 L 164.72359398844557 158.4395789008736 L 164.36876646560987 156.9341320981177 L 163.93330718999303 154.58211613270078 L 163.39808178706267 153.30779453685892 L 164.0556436217952 154.28685871564602 Z" fill="black" />
<path d="M 150.4232075602016 167.81439259905588 L 148.19110278429153 170.1583726473642 L 151.291621135028 171.69582067373258 L 155.09552001953125 171.68706166744232 L 156.8744023571264 171.60852783487204 L 158.65441169814207 171.2840619596144 L 160.41198758679914 171.06985180391743 L 162.4786881508625 170.7999013187177 L 162.1166487632 167.9717051265948 L 160.07812471788836 168.22726733670757 L 158.27063712998293 168.3884233919481 L 156.6296259631861 168.61449462606546 L 155.09552001953125 168.53596079349518 L 151.373173786847 168.52720178720492 L 151.30474682508347 169.7893812588858 L 151.9895121663609 170.28155466656912 Z" fill="black" />
</svg>