<svg xmlns="http://www.w3.org/2000/svg" width="300" height="300" viewBox="0 0 300 300">
<path d="M 131.29978595951354 131.52058371975127 L 128.52434013254168 130.58421715135432 L 127.35199891077188 133.46088855526312 L 127.34793608003861 136.86823056612565 L 127.27708472874221 138.43447246534365 L 127.27968689907215 140.29842799508722 L 127.23533516886255 142.43904716454037 L 127.172440452719 144.675571152719 L 127.11033283418305 147.14156842058702 L 127.12181594983714 149.7248454722317 L 127.08034578074742 152.1634163446682 L 127.0936644077301 154.358642578125 L 127.1115345954895 156.52325439453125 L 127.12608218193054 158.04974365234375 L 127.1404755115509 161.27789306640625 L 130.05348455905914 159.22589111328125 L 127.20176446437836 159.22589111328125 L 130.1147735118866 161.27789306640625 L 130.12916684150696 158.04974365234375 L 130.143714427948 156.52325439453125 L 130.1615846157074 154.358642578125 L 130.17490324269008 152.1996207647068 L 130.24146530016287 149.7584308949558 L 130.25294841581695 147.18667864972548 L 130.334883766031 144.772915175406 L 130.41603201863745 142.53006904639713 L 130.47971251499035 140.34146458303778 L 130.4823146853203 138.50180683153135 L 130.5555063027739 136.91497255887435 L 130.5514434720406 133.59074718692438 L 129.77522041433332 133.43946448927068 L 129.91664470454896 134.07963600681123 Z" fill="black" />
<path d="M 130.78938853740692 133.58837890625 L 130.82926628148027 131.9128923959922 L 131.0423102770818 129.55767086925368 L 132.14256520607387 129.26484417456342 L 133.83075755488278 128.44937559283676 L 136.1382965438478 127.49232118089678 L 137.4625213797315 127.02724142864906 L 139.3745383023595 126.68388539569034 L 140.4497399222552 126.59577506698362 L 140.6418806024754 126.44434655405351 L 140.50344276428223 128.18310546875 L 140.50061013691032 129.87516894642906 L 140.44963351527167 132.10954662142674 L 140.18263284420755 134.9610170502417 L 140.05782731155696 136.69433307190303 L 139.91423867208835 138.64736009750322 L 139.8619508653172 140.65731980115427 L 139.79654614723265 142.76987866927823 L 139.73444213536737 145.1393920405596 L 139.69259962057848 147.07845961636158 L 139.7065074443817 148.953369140625 L 139.7242088317871 150.59246826171875 L 139.7475806374068 153.55405735293186 L 140.21056097056422 155.9357672671995 L 143.18848688099828 155.409081365613 L 142.8592308860307 153.31142116269314 L 142.8826026916504 150.59246826171875 L 142.9003040790558 148.953369140625 L 142.91421190285902 147.12466538363842 L 142.98040161463263 145.2349976078779 L 143.06234057151735 142.87489672134677 L 143.1409788221828 140.75832961290823 L 143.19672324197415 138.81443189468428 L 143.34122054000554 136.93872356872197 L 143.46849020266745 135.2436948638208 L 143.74165066441583 132.31452564419826 L 143.79870626933968 129.91938671763344 L 143.79587364196777 128.18310546875 L 143.6574358037746 125.19225012563399 L 141.2207923043073 123.43925911270388 L 138.983005642953 123.50129526837216 L 136.6817657296435 123.93369607135094 L 134.9810882217772 124.51964170972822 L 132.53520924199222 125.53951600872574 L 130.65833811423863 126.45073199731158 L 128.3015617932307 128.13483401355882 L 127.86641242945721 131.7103986196328 L 127.90629017353058 133.58837890625 Z" fill="black" />
<path d="M 131.48575997089014 136.91286840205677 L 130.75959620361294 139.85428229544982 L 132.26561630847726 139.71998585518665 L 134.38381053646285 139.08070689921303 L 136.2577503095306 138.53128026633973 L 138.90531186788073 138.06952972773752 L 140.31178996510923 137.9781404332257 L 140.17038776926577 135.1294035120868 L 138.55196352274427 135.18816070194998 L 135.6538707842194 135.62728906959777 L 133.56662891666215 136.15391224141197 L 131.57959853527274 136.69078074637585 L 129.12443699951206 137.20711907173768 L 131.71126151348486 139.89828882450573 Z" fill="black" />
<path d="M 133.55143270054566 146.50358059264687 L 133.78221461355878 145.6387957930204 L 134.95438168151634 144.88537556458584 L 136.4765314729151 143.97010955632788 L 138.17759289744646 143.2807124839563 L 139.6810955479192 142.89168589018598 L 141.99063980761636 142.88784518287125 L 141.91255843457114 139.85409817650375 L 139.3606524989558 139.97537953950152 L 137.29909167286604 140.3871341957312 L 135.1470036833349 141.14915313898462 L 133.24813296692116 142.21081584166416 L 131.25135472237872 143.6845684647921 L 130.68990030726684 145.72261569641563 Z" fill="black" />
<path d="M 122.57494222007472 166.3021608656132 L 121.5816087900411 166.7169045862624 L 122.41549828362638 167.3910507282124 L 125.78626246540121 165.96656026052642 L 127.32360684264803 165.27258499479439 L 128.94806164849132 164.39564651423905 L 130.48350959487948 163.59495929978698 L 132.09660962047406 162.65041339439298 L 133.64965110722488 161.74620729230088 L 135.3425926184601 160.82951350944063 L 137.1083275268946 159.89810931791848 L 139.0811139281171 158.85771396153174 L 140.69963273954428 158.1590738887516 L 142.27756229323649 157.57259787537143 L 143.75067076116088 157.04748114668337 L 146.4982142252856 156.38201249848524 L 150.26411947833222 155.27892617832092 L 152.21955053255954 153.49109317583375 L 152.55158283657204 151.2134054342462 L 149.71709392124046 150.8974344095038 L 149.65300806119046 152.17321346479125 L 149.08768716229278 152.51245565761658 L 145.7234654622144 153.38629804838976 L 142.92535462946412 154.02209893144163 L 141.22951778488851 154.57303200744107 L 139.53046979951822 155.1627034549984 L 137.6919573609454 155.91547939784326 L 135.5955298949804 156.97713482270652 L 133.7962013268524 157.89753727180937 L 132.03211158808762 158.83265012957412 L 130.41620776233844 159.75522625404452 L 128.86036247543302 160.66248698927552 L 127.37090807807118 161.43833786076095 L 125.82641757141447 162.28808395051811 L 124.44689183147379 162.92040263009858 L 120.83157202887362 164.5238662639751 L 118.6405591787089 167.7004538121751 L 121.86048258461278 169.1662229234493 Z" fill="black" />
<path d="M 151.99928291484548 134.1561098010245 L 151.17579691317263 134.73249330855174 L 152.2573855726117 136.3523763544139 L 154.11224556174142 135.4390726349707 L 156.58304878181073 134.36581100778906 L 160.7038358130187 132.95171016621705 L 164.53948772144975 131.9861390942714 L 166.2396242744122 131.7558436319393 L 167.50762011617033 131.48498691135737 L 166.90069917592763 131.73177004192155 L 166.82526430736124 133.55076038041054 L 166.51895568105172 135.1238949406962 L 166.10971959882323 137.20208561427913 L 165.70706835296048 139.94725234441518 L 165.50414288325433 141.51184651154156 L 165.35752493898568 143.14834128059846 L 165.23449013259022 144.8737810083397 L 165.11156832307393 146.5455616332945 L 165.04734277430606 148.4844152814675 L 164.9838550496219 150.06237128898044 L 164.94477921867235 151.579286942823 L 164.81731081980806 154.30448934926207 L 164.843999656718 157.2373143365625 L 164.17821875808247 158.08793917907192 L 166.61096581223003 159.83833035217808 L 167.925775733907 157.9362696478125 L 168.06049679737944 154.41279580698793 L 168.22111433601515 151.732724775927 L 168.2900707316281 150.19666191414456 L 168.37062597569394 148.6215417497825 L 168.45044339567607 146.731660046393 L 168.57959678147228 145.1252424291603 L 168.70863717038932 143.42233743033904 L 168.85010516362067 141.88073161345844 L 169.04329785797702 140.41737167902232 L 169.43288294023927 137.75726497165837 L 169.81588318613578 135.7564761530538 L 170.15776791920126 133.90126598677696 L 170.22637601938487 131.61625241901595 L 169.22333691507967 128.70995937770513 L 165.9899899834003 128.5642247274357 L 163.87298786448775 128.8594419604161 L 159.7862764916688 129.87079959940795 L 155.44453910881427 131.35953078908594 L 152.76580619607108 132.5384664275293 L 150.6594845445758 133.6020914190236 L 149.11228902432737 137.07378110551076 L 152.39402763202952 137.099627503663 Z" fill="black" />
<path d="M 160.3229125116515 121.08265117831583 L 156.7942429627264 121.40416518622416 L 156.11419805586004 126.01177352854884 L 156.05687569667896 127.97762440754798 L 155.9155711261004 130.1778576320825 L 155.72287654762167 132.72614826387363 L 155.4787969965378 135.6554497670932 L 155.09978025145233 138.92111160292686 L 154.65198086589754 142.37561723315733 L 154.02306105746123 146.3735476985233 L 153.4521837410901 149.9170206749711 L 152.76712782704791 153.5125248874847 L 152.07420914879796 157.08481145419162 L 151.43350485555155 160.4491935946178 L 150.77819136305285 163.5991550958821 L 150.11859513695148 166.76720155359263 L 153.08636091773602 167.37488829015737 L 153.72315141038465 164.2117579900554 L 154.40023537882345 161.0555671475697 L 155.09192854651454 157.68838190518338 L 155.83943955576459 154.1287104640778 L 156.5948133292224 150.4921590125289 L 157.21229050503877 146.9036739811642 L 157.91576815753996 142.86876753246767 L 158.40424806886017 139.34146163926064 L 158.8174676518997 136.0006781625943 L 159.07753849144083 132.99919353300137 L 159.2809620770246 130.41747928198 L 159.42774344394604 128.13834238932702 L 159.47845331132746 126.27545791676366 L 159.5906447325861 123.22559555596334 L 159.9151245977235 124.07262225918417 Z" fill="black" />
</svg>