<svg xmlns="http://www.w3.org/2000/svg" width="300" height="300" viewBox="0 0 300 300">
<path d="M 145.81177787302983 104.50332492304491 L 143.09760339492624 101.67464282461468 L 140.6817081562788 104.47381579725888 L 140.11186154576913 106.31042699626558 L 139.37086738874135 108.24507273984091 L 137.91072119031412 111.15740508386112 L 136.9325954256583 112.60159087103294 L 135.93898977001095 113.90887085123721 L 134.32540408691668 115.86474358000481 L 133.3073131729398 117.9384963410353 L 133.1095876330311 119.9565833757522 L 133.10406589508057 121.927001953125 L 133.1040229938859 124.40090653603052 L 133.03243831724365 125.90649377311733 L 133.03452566385567 127.50743660363163 L 132.98567791021384 129.3133289736893 L 132.92356611664863 130.84785059852274 L 132.80638068729576 132.37284956920098 L 132.74703746574372 133.85243631845162 L 132.36747168110944 137.6157147239501 L 135.11179129234 139.15761547992352 L 135.20074421243112 137.10297927389706 L 132.35357707663138 136.93046799172794 L 132.1544440592225 139.63047045757648 L 135.43892480326556 137.9942706276124 L 135.85159534675628 134.12510274404838 L 135.93629509395424 132.57673539173652 L 136.07118485991387 131.04875584678976 L 136.15311603509866 129.4302012997482 L 136.21230050801933 127.55750480261837 L 136.21438785463135 125.98034704719517 L 136.2868461467391 124.45798018271948 L 136.28680324554443 121.927001953125 L 136.2812815075939 120.0686851789353 L 136.3356311629977 118.7835495574022 L 136.90201290527082 117.57910407624519 L 138.34934030811405 115.83136352376279 L 139.4443576993417 114.38595795709206 L 140.59086572374838 112.65204315832638 L 142.15562186907115 109.50846729922159 L 142.99910036829337 107.33910913654692 L 143.6176082499712 105.49713146836612 L 142.53411047226126 104.74283764413532 L 143.52904243947017 106.39352566289259 Z" fill="black" />
<path d="M 136.65137010548275 120.97001522035643 L 137.54640335180903 119.80848339842285 L 140.68296251067764 118.85742202527285 L 143.37677938056441 118.21996802047875 L 144.8584919847117 117.90239738797683 L 146.44193587956858 117.57840690910228 L 148.00799319111513 117.24596380298294 L 149.72868748303063 116.93253735906693 L 152.50648547371074 116.54207955973936 L 154.69722363542337 116.36649451246909 L 156.65347288902322 116.37072272786175 L 158.01205484680125 116.37042818256118 L 158.59094729221326 116.69024542824354 L 158.92863478610198 117.67094854298104 L 158.9422082901001 118.823974609375 L 158.89844179552745 121.69619293952256 L 158.4866232683325 123.46500729487823 L 157.9075290780959 125.90984771462021 L 157.60200255878007 127.48322873220373 L 157.07599020708412 130.19640593992327 L 156.59078910573365 132.85802995689787 L 156.22991475919622 135.33043709614077 L 155.9341625087913 137.3107490343459 L 158.7582203037087 137.7737236219041 L 159.11066141267878 135.80017813823423 L 159.54202339426635 133.39282453528963 L 160.10113381635338 130.79932159913923 L 160.65544373028243 128.1072253693588 L 160.9981105703416 126.62762787131729 L 161.6073708722925 124.21773196293427 L 162.13183164197255 122.03268889641494 L 162.1960973739624 118.823974609375 L 162.10163865139802 116.94904657420646 L 161.10692868434924 114.62652703269396 L 158.91299398132375 113.24468412212632 L 156.70651246253928 113.11926750651325 L 154.55753710676413 113.12349572190591 L 152.13890026847676 113.32327688557314 L 149.22700099353187 113.73360033624557 L 147.38263180888487 114.07080865795456 L 145.77974380793142 114.41402473152272 L 144.1942423902883 114.74066901827317 L 142.65105265068559 115.07373315139625 L 139.79921522369736 115.76257309191465 L 135.94969039819097 117.06370898438965 L 134.32397169139225 119.18037540464357 Z" fill="black" />
<path d="M 140.9575326543207 126.07423631180009 L 139.41700408678497 126.4714321288938 L 140.631609454894 127.42415555063583 L 142.82171104356974 126.8434028704714 L 145.51672307986212 126.41045574453496 L 149.4177239112781 125.99494983728707 L 152.80742569221093 125.69414042766964 L 154.6155477628902 126.01231240228704 L 155.1793741121098 123.12184287115046 L 152.88227157341407 122.63923359576786 L 149.1418464012219 122.86393688146293 L 145.12048395138788 123.24921222421504 L 142.16180946424276 123.7171440045286 L 139.4544501154185 124.46268526967667 L 136.56383087415253 127.6676059570437 L 140.4609243769293 128.9907050944499 Z" fill="black" />
<path d="M 137.5040829202341 133.84712282919094 L 136.4000757932663 134.45172119140625 L 137.35682663210045 135.24219029143106 L 139.98363816100928 134.9541742059886 L 141.61264626311956 134.8918544642266 L 143.43699076268715 134.8219718295923 L 145.37542493618807 134.8061150861879 L 147.3793755640484 134.64937892569233 L 149.37848053304776 134.5625807743605 L 151.60995210645888 134.32636695519105 L 153.48117925131854 134.09748079494335 L 155.23290996764067 133.86573730880494 L 156.89146785111816 133.55411057462277 L 159.39437089850497 132.82215700460182 L 160.91464403596368 131.90281499540936 L 159.43142529997382 129.46827875459064 L 158.32291425774503 130.15049924539818 L 156.21644230513184 130.71981520662723 L 154.81408710267183 130.93370116775756 L 153.14479731118146 131.10234830661915 L 151.30691801072862 131.27385277137145 L 149.18108977945224 131.438029577202 L 147.2190131078266 131.47635349618267 L 145.26178209506193 131.5948858903746 L 143.38307759668785 131.5790291469702 L 141.49831565094294 131.6342685826484 L 139.70630324524072 131.6970709111989 L 136.64341750852455 132.05968959138144 L 133.2428685426712 134.45172119140625 L 136.4961612203909 136.63285763955906 Z" fill="black" />
<path d="M 149.8958108319299 113.98102192375329 L 146.31644868844117 113.71340137179278 L 145.0135981127543 116.64488135088548 L 144.80547007168983 119.23982661425356 L 144.47722094719148 121.38214751308743 L 143.98020386530047 124.06256922545418 L 143.5496161900704 125.55221055780731 L 143.05324270447863 127.3654410520755 L 142.49725018287035 128.94509168596184 L 141.873931637411 130.60041944799303 L 141.08228683232818 132.3693298790296 L 140.0598208665241 134.36029263901955 L 138.90444107279976 136.43743742915137 L 137.66244061144135 138.5553169269806 L 136.61571312420875 139.9957240883457 L 135.54698662652092 141.36516678858638 L 134.53854446930814 142.58449662135243 L 131.78528559554314 145.60939560153292 L 133.89647709976936 147.54270400784208 L 136.68887252287936 144.51169478489757 L 137.80506415472908 143.22858321141362 L 138.96900367266625 141.8203159507168 L 140.19095294324615 140.2327690105194 L 141.57773666157524 137.99640046147363 L 142.7990658522259 135.84441927504295 L 143.90123367548432 133.7564025428454 L 144.802093753214 131.84672410669447 L 145.51117266869215 130.07370714216316 L 146.14353463927137 128.35013511979952 L 146.6914726771171 126.45975233281769 L 147.19716429876203 124.79631749329582 L 147.74445874030852 121.94634369785007 L 148.10041371737267 119.60929447949644 L 148.2884038403707 117.04921044598952 L 147.63374662405883 116.67746776883222 L 149.6000387774451 116.96038432624671 Z" fill="black" />
<path d="M 123.2080078125 153.85230767726898 L 120.63323974609375 153.74101638793945 L 123.26767882473007 157.0438710064152 L 127.80343749449845 156.55721963888303 L 129.81437822439293 156.22595001470805 L 131.9580674728662 155.76882280288595 L 134.32524131073276 155.31121119016967 L 136.8908885171304 154.79066393274306 L 140.03850661551286 154.20626433741572 L 143.00241059204384 153.68102344339317 L 145.98084816171288 153.14546989923875 L 149.0233415389399 152.76169432332998 L 151.80810814101315 152.49909911577345 L 154.36486623040855 152.29629090758604 L 157.02781564805625 152.09870717687178 L 158.78662109375 152.0979903936386 L 161.7440132287233 152.0820391534017 L 163.29456638101564 152.41028467804864 L 167.2802918862091 152.53513040845016 L 165.0749772799824 149.28309826067616 L 163.0854231106426 151.65159412213634 L 164.1570860434784 151.15224752123734 L 164.57774807210936 149.17504247038886 L 162.0590873572142 148.5773846747233 L 158.78662109375 148.5614334344864 L 156.87233083631875 148.56071665125322 L 154.09765818365395 148.76352354553896 L 151.50488014023685 148.96110596235155 L 148.6359602188726 149.22402345010752 L 145.44859519766212 149.61600471013625 L 142.37722807983116 150.15650097066933 L 139.39935959542464 150.68228546727178 L 136.2090870688071 151.27403333288194 L 133.62519814239224 151.80451146608033 L 131.2389540115088 152.27280317367655 L 129.13337568185707 152.74157928216695 L 127.32717773987655 153.06094442361697 L 123.00429383151993 153.6503428607723 L 120.63323974609375 156.95319747924805 L 123.2080078125 156.84190618991852 Z" fill="black" />
<path d="M 151.86501643358974 137.63421943942208 L 148.3282582718465 137.74059599375565 L 146.40947746332102 139.99697254758777 L 146.0989797029459 142.11300406132258 L 146.0211496832948 144.69614799057587 L 146.02390468120575 146.51348876953125 L 146.02912878990173 148.552978515625 L 146.0375382900238 150.9302978515625 L 146.05032753944397 153.6329345703125 L 146.06969434896112 156.61786253582997 L 146.16810862449867 159.6627383608295 L 146.2848724533047 162.9677268858668 L 146.45107088668257 165.75018967636436 L 146.56269590849482 168.37920152023165 L 146.71883004243648 170.8803452572778 L 146.80769215432832 173.5037327124073 L 149.66325511129668 173.4258327172802 L 149.60807425443852 170.7690688052222 L 149.51213319306768 168.26532972976835 L 149.47971524612993 165.63921462051064 L 149.3938384841953 162.8662574891332 L 149.36655934425133 159.589825115733 L 149.32093065103888 156.57879273760753 L 149.34029746055603 153.6329345703125 L 149.3530867099762 150.9302978515625 L 149.36149621009827 148.552978515625 L 149.36672031879425 146.51348876953125 L 149.3694753167052 144.75233833754913 L 149.4356882658041 142.33059945430242 L 149.52130866949148 141.16843272584973 L 149.4390757125285 140.77222138905685 L 151.98813298047276 140.62835380276542 Z" fill="black" />
</svg>