<svg xmlns="http://www.w3.org/2000/svg" width="300" height="300" viewBox="0 0 300 300">
<path d="M 134.30264113443067 78.23631975568306 L 132.81371074173194 80.78668097331534 L 134.8020684016807 83.5842432466682 L 137.02032683678203 85.24674599329092 L 139.4728857596826 86.92194611619635 L 142.798720696217 88.89128887271396 L 144.77239802022794 90.11072863829841 L 146.20617090312766 91.23602653631912 L 146.9861443025469 92.98502059858382 L 149.5928351896406 91.81136612016618 L 148.53626073749734 89.48138069024338 L 146.54901311258456 87.70384655701409 L 144.4174658272205 86.27069843197354 L 141.1533349434424 84.28618376661615 L 138.85247589759297 82.68318564733408 L 136.9655097233193 81.2927098783318 L 135.92896503951806 80.41168328449716 L 136.67270066244433 80.05921247087944 Z" fill="black" />
<path d="M 120.4000517062449 101.81467640141857 L 117.89461254275915 103.15538515135798 L 116.18431740852827 104.70078626681004 L 115.05476048856129 106.57893262653168 L 114.01581321821239 109.12447432882934 L 113.40553291002833 110.81414685874246 L 112.76066572718138 112.64419129743814 L 112.01532041574954 114.64318915382148 L 111.29243065315843 116.91688274449747 L 110.70012311562913 118.78855065193461 L 110.1833964306909 120.58435563131319 L 109.70566129739683 122.23612035009472 L 108.84280759517357 126.23473756629086 L 111.68148439701393 126.85327512902164 L 112.54714631979067 122.91915308740528 L 113.0056904833716 121.41784163431181 L 113.53327532187087 119.66017981681539 L 114.12932227652907 117.82823444300253 L 114.84686220143796 115.62255791649102 L 115.57795731969362 113.66769835099936 L 116.22947685559667 111.81915392250754 L 116.80755103960011 110.20560379617066 L 117.74919458956371 107.87138475628082 L 118.49219626334673 106.59645494412746 L 119.55472827755335 105.63941465332952 L 121.8027070828176 104.45265758295643 Z" fill="black" />
<path d="M 113.23750138282776 114.1444091796875 L 113.27915193789993 111.57438302221891 L 113.6668014189208 111.02219251453933 L 114.86523681151515 110.1449357654943 L 116.26643309242881 109.73376224399505 L 120.39473659234213 108.91493279099842 L 122.30734981790364 108.46904567120413 L 124.27882109210125 108.08867332499567 L 126.63475706805538 107.55617436280852 L 129.16551979203354 106.94902934054858 L 131.95204979154042 106.21981533824047 L 134.98566335833132 105.43208796632251 L 138.66121655265633 104.50403295792744 L 141.9096929483363 103.72260931528233 L 145.22537860260056 103.07959836877922 L 148.63970378982103 102.48165312924026 L 151.8248130555228 101.96209682049319 L 154.85234543621942 101.6429692836352 L 158.10908908722018 101.38393222924135 L 160.58272897341897 101.25197509166024 L 162.96827090154045 101.19449460385624 L 165.196533203125 101.19762551784515 L 167.40465235027798 101.19978198784477 L 169.51082057320448 101.12627003411883 L 171.73248291015625 101.12744510173798 L 173.4429931640625 101.12700271606445 L 175.0274658203125 101.12607300281525 L 176.5399169921875 101.12558281421661 L 179.456787109375 101.12538814544678 L 181.0422284268254 101.12197062043026 L 183.68724085237932 101.25723661753557 L 186.2019837357666 101.51731601574893 L 189.5031201386392 101.91173923888941 L 190.848818478779 102.15326857577608 L 191.089772195656 102.1636050825207 L 190.71373797696972 102.67473355799572 L 189.88143821568713 104.93258161192104 L 189.18883913965144 106.97552173791348 L 188.36029157183182 109.24154322803759 L 187.61481427927353 111.47916764511487 L 186.78439970268352 113.65123791982353 L 185.49174854077944 116.42744227224422 L 184.36309611982443 118.4474471585242 L 186.83014118486307 119.8761612399133 L 188.07819774828306 117.79216221994328 L 189.55837373481648 114.91284899423897 L 190.56450700978897 112.60554915176013 L 191.40350237348068 110.36380345164991 L 192.30347043066106 108.12543041052402 L 193.05130104212537 106.08939104432896 L 193.94751690584278 103.74274691075428 L 194.3637190152815 101.2259212846668 L 192.335995974346 99.10918259609892 L 190.0085986113608 98.57495509704809 L 186.5757262251709 98.16859707018857 L 183.94093297574568 97.90316377308943 L 181.1483233309871 97.76316121550724 L 179.456787109375 97.75974369049072 L 176.5399169921875 97.75954902172089 L 175.0274658203125 97.75905883312225 L 173.4429931640625 97.75812911987305 L 171.73248291015625 97.75768673419952 L 169.45280247367052 97.75886180181867 L 167.34571386065952 97.83549633246773 L 165.196533203125 97.83765280246735 L 162.92345273127205 97.84078371645626 L 160.44754446408103 97.90842529896476 L 157.87968044402982 98.05173671607115 L 154.54645827471808 98.3182123569898 L 151.3801429991647 98.64971958575681 L 148.08331867111647 99.18118866763474 L 144.61959210052444 99.78441530309578 L 141.2012689657262 100.44267388784267 L 137.85977954109367 101.23778833113506 L 134.15313058698118 102.16153996336499 L 131.10092872408458 102.95035067738453 L 128.34180442671646 103.67255269070142 L 125.86707398663212 104.26657954344148 L 123.57762422039875 104.78510597187933 L 121.58791385397136 105.18049046160837 L 119.68338840765787 105.66050666212658 L 115.49321046225869 106.56836177944245 L 113.32934326660985 107.3333357188807 L 111.3588333467042 108.95852037608567 L 110.30605314022507 111.05891775903109 L 110.34770369529724 114.1444091796875 Z" fill="black" />
<path d="M 126.70440154312081 134.36719967823316 L 126.42228375859216 133.7660015056131 L 128.12790733655953 133.4553534326908 L 129.70159392559725 133.10128170503154 L 131.30729883915777 132.7772335271829 L 133.17378075485038 132.4619888541808 L 135.30097489749733 132.14574558552695 L 137.71524257061677 131.886255440212 L 140.34529466086568 131.60292541444244 L 143.2926957103972 131.2673185364715 L 145.92847396674077 131.0549342821304 L 148.5993763601775 130.77395459254797 L 151.0656755833262 130.4875441514762 L 153.2656494776805 130.13841160681696 L 155.1693632682229 129.85659363080194 L 158.26843757945326 129.43727348357584 L 159.4039269661114 128.98667354344647 L 158.3197656168522 128.17113065250294 L 160.5858740315853 129.92176485530956 L 161.3382605338886 126.72890262842851 L 158.00841788929674 126.40342475861166 L 154.7696015755271 126.78488586138556 L 152.820165952007 127.02858058068304 L 150.6628400416738 127.3300828016488 L 148.26768906951 127.56918505588953 L 145.64501236138423 127.81371806161958 L 142.9872115161653 128.0017244322785 L 139.99284010475932 128.31675231993256 L 137.36532383563323 128.583959403538 L 134.88213057125267 128.84998195353555 L 132.65202490921212 129.1843734505067 L 130.70136815302973 129.5197635431296 L 128.99408478534025 129.87137454496846 L 127.25478309312797 130.2930596532467 L 124.20698870234534 131.4338275959494 L 123.67279572250419 134.13585207957934 Z" fill="black" />
<path d="M 112.87803675321304 158.42835844968693 L 110.27524816343724 161.78043243840798 L 114.7914958609535 162.0135851207692 L 117.63707293895335 160.73480164374817 L 119.48000316556801 160.00652639478062 L 121.62232746048838 159.24813665066605 L 124.06578689806243 158.4038196479822 L 127.03896580702944 157.39142363451626 L 130.06856331967307 156.56520332987952 L 133.5711102141907 155.74041235716615 L 137.47782279154006 154.9715061026303 L 141.6480590410804 154.25285423510493 L 146.042912800426 153.5930005601932 L 150.99169578809605 152.9235307416247 L 154.9646590745305 152.3166424125622 L 158.93022328142794 151.71037973381723 L 162.76671580129442 151.08739604398352 L 166.20390083216088 150.54240357131988 L 169.11058805025786 150.0042478911667 L 171.92830047635587 149.5304408449041 L 174.86480527543492 149.0679294410163 L 177.15029025185834 148.98877630807624 L 178.25772851398187 146.02890248449236 L 176.33964889669627 146.1743300376837 L 176.48810989236623 149.0798203529413 L 179.46749121258063 148.97500376550764 L 177.26194119345416 145.61473931692376 L 174.54193300581508 145.6607082542962 L 171.39262237520663 146.1241001707209 L 168.52063753567964 146.5761964447708 L 165.62959526158912 147.08906615524262 L 162.22473927683058 147.59509907320398 L 158.39094371075956 148.17328725837027 L 154.434144636407 148.7431720405628 L 150.48474464159145 149.3124311724378 L 145.530573527699 149.9692552991818 L 141.0667847089196 150.63569556958257 L 136.81050728658494 151.3684597176822 L 132.7948565826843 152.17609154908385 L 129.16727652407693 153.05296073262048 L 125.96701563828306 153.95342499829624 L 122.89038985975007 155.0430797660803 L 120.43638835982412 155.92544733370895 L 118.22141285005699 156.74359567553188 L 116.24720440479665 157.59185851250183 L 113.4030842171715 158.9406385120433 L 113.41798914125026 161.15071990534202 L 114.92042516084946 160.54893647218807 Z" fill="black" />
<path d="M 150.177251392348 128.83708135386934 L 148.5208008000298 130.75515384745546 L 148.0617175433564 132.974348848255 L 148.12101207985958 135.2085571067476 L 149.00625308150433 140.01455747557762 L 149.30379704053985 142.066259999751 L 149.6105520855168 144.4849649183808 L 149.93523456382988 147.19734892940284 L 150.162661320487 150.6564404481995 L 150.4154260051981 154.1312609743147 L 150.59450840912697 157.8464432530405 L 150.70502377950035 161.845289830016 L 150.77152064435396 166.03484831780375 L 150.76522397994995 170.2991943359375 L 150.76152968406677 174.978759765625 L 150.7645048079327 178.7276535180844 L 150.69641444785523 182.2482419631227 L 150.57179247862175 185.5762919527664 L 150.37428521356242 188.61506505547283 L 150.10363940323955 191.36746920961815 L 149.8493543445894 194.12622238528547 L 149.6562631656591 195.91192602739122 L 149.2842365120492 198.53848800371279 L 150.2359583704258 198.67846518043277 L 150.2440313677281 197.90709651271837 L 148.624966756355 196.33272972831685 L 146.70634490003036 194.14329149980946 L 145.5156407932325 192.91563296162653 L 144.2548945216898 191.5167954169832 L 142.7012480210169 189.77768751225665 L 141.27444238417416 188.07650131288943 L 139.6033345785506 186.23043355853795 L 137.74844739447587 184.12304321104864 L 135.60360338677413 186.00415405457636 L 137.4578226480119 188.12588968364955 L 139.06369238145084 189.95841079648557 L 140.4097138930456 191.68556932368085 L 141.9169804783102 193.5249526298918 L 143.140975417705 195.00392270243597 L 144.21894806871964 196.30372998456554 L 146.11746488427 198.59366187324565 L 147.8113885541469 200.44763981540663 L 150.7003209264492 202.17871255394223 L 152.7323650504508 199.29073562909971 L 153.1525747249659 196.36187768354628 L 153.3556017100981 194.46899245846453 L 153.60546704207295 191.69735012631935 L 153.87498236456258 188.89433435858967 L 154.07359326356575 185.7520771878586 L 154.20104648964477 182.3485597946898 L 154.2769990983173 178.7622146459781 L 154.27997422218323 174.978759765625 L 154.27627992630005 170.2991943359375 L 154.26998326189604 166.00519074469625 L 154.19243715799965 161.7615216934215 L 154.05087733306053 157.702506942272 L 153.8338415729269 153.9103650022478 L 153.5464451248255 150.4033740049255 L 153.26972149085762 146.88065400028466 L 152.9101998676082 144.0626425034942 L 152.56876155321015 141.6015866799365 L 152.21811215287067 139.42416322754738 L 151.23079456076542 134.7459106666899 L 151.1820568707061 133.15138357362 L 151.2271240046577 132.21750240254454 L 152.487543529527 130.95747431019316 Z" fill="black" />
</svg>