<svg xmlns="http://www.w3.org/2000/svg" width="300" height="300" viewBox="0 0 300 300">
<path d="M 138.0664692929605 109.70055052418124 L 134.44967017728018 111.15485770459905 L 137.1290414386504 114.31269387882583 L 138.67046569056686 115.75821108847782 L 141.0309488121329 117.81560606766998 L 142.347826234118 118.77686592148686 L 143.98898987748356 120.12545254115204 L 145.85598082564144 117.92288730259796 L 144.2201669299445 116.49376396132564 L 143.0162923988046 115.47809510420502 L 140.76740052037064 113.45651059120968 L 139.3919546550996 112.12431783992417 L 137.46195091646982 110.27727120165095 L 137.266172308602 112.65748170238126 Z" fill="black" />
<path d="M 129.6108664985803 126.72336187966584 L 127.38127995303289 128.80855270783135 L 125.85729703950237 131.05147386886551 L 124.97352419696763 132.75582990884647 L 124.29716095249546 134.7015323227727 L 127.01631561000454 135.6533260756648 L 127.63633908428237 133.89541520834103 L 128.33703889799762 132.57181714675949 L 129.5858831329046 130.73575881560615 L 131.6055641654822 128.86709222189666 Z" fill="black" />
<path d="M 127.69070255756378 128.2581787109375 L 127.70173269592894 127.01164740268699 L 128.3420868475623 126.65349554925426 L 130.255184835507 125.82339530335469 L 132.46990125914795 125.14495731037663 L 133.97161022730776 124.72049476435154 L 135.56161282484513 124.3995696866089 L 137.31604412538593 124.02815162047649 L 139.2724033632011 123.70217458571412 L 141.4356742918506 123.30699752176764 L 143.57287377305454 122.83820732607086 L 145.9323378439984 122.3197465437347 L 147.9688076779047 121.92492920133901 L 149.93068096926584 121.52986446842623 L 151.82280215187262 121.20818174462298 L 153.5923370564601 120.88364187218245 L 155.29739328555578 120.62028654691271 L 157.1847028099449 120.28648556189844 L 159.90216550890668 119.96701363253678 L 162.54988469049297 119.70913204878633 L 165.92824450264376 119.52066130596381 L 167.5732421875 119.5260238647461 L 169.60784912109375 119.5260238647461 L 170.23050508958693 118.91315568465252 L 169.51997501917535 119.19826526794218 L 168.85367449558177 121.01657461179906 L 168.14113188239128 123.46361362209512 L 170.96653413323372 124.46936977634238 L 171.94649640285573 122.16177011476344 L 172.75663630894965 120.17636852112032 L 172.83834256666307 116.75786482315998 L 169.60784912109375 116.1449966430664 L 167.5732421875 116.1449966430664 L 165.79721936454374 116.15035920184869 L 162.29752741888203 116.36227908402617 L 159.54363527234332 116.62991019558822 L 156.7154436744301 116.96107303185156 L 154.74960378475672 117.30293122652479 L 153.0336395060399 117.56508859656755 L 151.23811093406488 117.89118348975202 L 149.31309344479666 118.22013553157377 L 147.3137850955328 118.62585204866099 L 145.2450303200641 119.0318159562653 L 142.85107642225796 119.56438056455414 L 140.7750190675244 120.02149368916986 L 138.6890224180489 120.40207346116088 L 136.68420001523907 120.75175560608601 L 134.87356783921737 121.1560943758911 L 133.18659289769224 121.51082847783596 L 131.51935655335205 121.98724483806087 L 129.0886872348055 122.76022286070781 L 126.6444854180627 123.90705132574574 L 124.80009835875856 125.80109673793801 L 124.81112849712372 128.2581787109375 Z" fill="black" />
<path d="M 139.3406414933552 132.69456294798053 L 136.40893173978145 133.17264452479938 L 135.40693796235857 135.84871590226285 L 135.26989339063402 138.55999689842858 L 135.27119767665863 140.445068359375 L 135.27327156066895 142.48455810546875 L 135.274777907234 144.7757118815821 L 135.204296202526 147.32562995914094 L 135.16152494201816 149.91035611562089 L 134.91006572371174 152.65603275960459 L 134.52705904276854 155.73541464271233 L 134.2157986083491 158.20343655378457 L 133.8436869329675 160.3979120090222 L 133.09912211363766 164.48280138809582 L 136.03864357532782 163.56768519364576 L 136.75282361813953 160.7346468546669 L 137.09218049491543 158.9306861683159 L 137.3678367974091 156.97921161501148 L 137.62071233314865 155.07141374008287 L 134.79505915122635 154.69689680679213 L 134.5437842963409 156.59280986936352 L 134.27927946602207 158.4700706676216 L 133.97044298342297 160.0944547078331 L 133.20818259654718 163.06708043135424 L 136.03967183167484 165.30504040877918 L 136.879579668595 160.9567022487903 L 137.2997043213384 158.67180758684043 L 137.63663724629396 156.13494668541267 L 138.04586689347576 153.00827388102041 L 138.33456880798184 150.09843294687911 L 138.3998297740365 147.40300773617156 L 138.4733910380785 144.8229209309179 L 138.47489738464355 142.48455810546875 L 138.47697126865387 140.445068359375 L 138.47827555467848 138.65155095313392 L 138.59330617826643 136.20780265242465 L 138.27551650240605 135.73079785801312 L 139.7011065535198 135.68336673951947 Z" fill="black" />
<path d="M 139.49611496160094 140.49900547642181 L 139.57061585441105 138.61218200695853 L 139.6922181841018 137.26065056091664 L 140.04505353107953 136.33839361784257 L 140.92394993423773 135.63479550607448 L 142.02813565838798 134.80887169662043 L 143.27900906226412 133.9891276874099 L 144.71937908533047 133.30986419969548 L 146.56857959309212 132.72233385155184 L 148.3466946397444 132.44095747803502 L 150.32234549613312 132.31282878902357 L 152.44873046875 132.31366789340973 L 155.42905973546652 132.30772228104047 L 155.81076594165796 131.8004304711774 L 155.62871730327606 134.18896484375 L 155.63021743297577 135.82806396484375 L 155.6311765909195 137.942626953125 L 155.63338696956635 140.645263671875 L 155.6403051403324 142.26375991167606 L 155.57394768781435 144.1507739069457 L 155.53127334864044 146.48777394284417 L 155.346603904215 148.67816442236062 L 155.16253278355248 151.03858701950952 L 154.90699120527438 153.47745727937217 L 154.7244800007067 155.797280808817 L 154.5436757841493 157.98927997398107 L 154.29610298675152 161.71947788960503 L 156.88006703896414 163.0149315063921 L 157.18737149238586 161.7408447265625 L 154.33606600761414 161.7408447265625 L 154.64337046103586 164.9461280639204 L 157.33536673981098 161.88733363383247 L 157.6279550752257 158.23532940101893 L 157.8432690227308 156.073080519308 L 158.05687598222562 153.78841186125283 L 158.34149553676002 151.34752137892798 L 158.55354258016 148.95330530420188 L 158.76499129979706 146.66432566653083 L 158.83034918718565 144.2466870305543 L 158.9080347034176 142.32999008832394 L 158.91495287418365 140.645263671875 L 158.9171632528305 137.942626953125 L 158.91812241077423 135.82806396484375 L 158.91962254047394 134.18896484375 L 158.73757390209204 130.3714445288226 L 155.69825960047098 129.06337146895953 L 152.44873046875 129.05742585659027 L 150.21781563667938 129.05826496097643 L 147.9802096571306 129.20540482665248 L 145.79714306315788 129.57466321876066 L 143.54111896154453 130.31342681592952 L 141.70451144554838 131.2107014141526 L 140.18255770098702 132.24276404556707 L 138.91003444076227 133.26864687673802 L 137.52025408610797 134.66709954621993 L 136.8287779096482 136.64767463439586 L 136.69830504402645 138.44921936022897 L 136.62876296808656 140.39113124232819 Z" fill="black" />
<path d="M 141.41472886934014 144.28214127634516 L 140.81739044895147 144.28131027029278 L 141.31379732750892 144.41058616442186 L 144.2009414962899 143.68879028218106 L 147.87100820108245 143.01935413008684 L 150.15203659781866 142.7141135515738 L 151.9725421245705 142.56347650193243 L 153.97918701171875 142.54279029369354 L 153.97918701171875 139.67364037036896 L 151.880607289492 139.65295416213007 L 149.88397414436884 139.7525612531137 L 147.41158457235505 139.97283336991316 L 143.5554061599601 140.62969116313144 L 140.21269193030358 141.48443336682814 L 137.82823943386103 143.46551590158222 L 138.92340589628486 145.96712630177984 Z" fill="black" />
<path d="M 140.35480353675374 149.58494496611445 L 138.9702213990705 152.8478135743014 L 141.20825609392176 152.54300952625027 L 143.4947021276656 152.1485670175125 L 145.99069788378108 151.88960282317436 L 148.8514492905786 151.6717361498157 L 151.3433421054786 151.50157384623057 L 154.72486337725957 151.05376691774907 L 157.0874368802182 150.54196371241406 L 156.5246236666568 147.74014077977344 L 154.27782216961543 148.15424089475093 L 151.0693776210839 148.50721521626943 L 148.6638094984839 148.5872970533093 L 145.72683141309392 148.76982100495064 L 143.0732910363969 149.036369505925 L 140.71435132795324 149.44270824718723 L 138.4870539915545 149.7885389647611 L 140.77556755699626 152.52589487763555 Z" fill="black" />
<path d="M 126.42079686240683 168.73535088761335 L 125.77386835291438 169.88787888203953 L 126.37860866619668 170.5272382578688 L 127.81905413821455 170.42039880157054 L 129.77494175765034 170.2931702952704 L 132.17388449401386 170.16910834009005 L 135.09303478889206 169.90819333714458 L 138.40053108119528 169.7055931878851 L 142.451110817191 169.29933546248142 L 146.28301062669385 168.9583539343719 L 150.21916911068445 168.47475180126966 L 154.00284629877504 167.98909214620187 L 157.57962590901943 167.43988417174606 L 160.84353204177498 166.95845992157308 L 164.24334966460916 166.54249330350942 L 166.4121948952492 166.3138732404208 L 168.18984686997987 166.2230983075718 L 170.19211019625698 166.156534048207 L 170.7704468636049 166.4973574055975 L 171.01234050551932 167.54043829968748 L 173.74901203354318 166.72677361437502 L 173.0906371207701 164.7419004069025 L 170.89614663968052 163.2559415377305 L 168.14499199720763 163.1893772783657 L 166.2135375266258 163.2237244158292 L 163.91705072601584 163.39549497774058 L 160.43881659103752 163.75528519561442 L 157.11275690348057 164.19976426575394 L 153.55940956059996 164.70158168192313 L 149.81684163150305 165.14182534716784 L 145.93866906080615 165.5841265343781 L 142.136291526559 165.89377977189358 L 138.12046501255472 166.2883032964899 L 134.83799548454544 166.48609377223042 L 131.92340554504864 166.75069146459745 L 129.56893031266216 166.8768736500421 L 127.56363629147295 167.02491369842946 L 125.97917941974082 167.1683183827562 L 122.87481328771062 168.35821486796047 L 124.74863673134317 171.21240301863665 Z" fill="black" />
</svg>