<svg xmlns="http://www.w3.org/2000/svg" width="300" height="300" viewBox="0 0 300 300">
<path d="M 140.96643630027222 102.89645820598926 L 142.10116536970253 104.8798319052235 L 143.91864753663702 105.71687387198598 L 145.21540727806214 106.56703445116904 L 146.37062238432063 107.4761021063366 L 147.52864169205398 109.05215063702887 L 149.84257412825852 107.37509545672113 L 148.51585222505437 105.5227992608509 L 147.00627240943786 104.20469406445596 L 145.42217277586298 103.07792593270152 L 144.32278482560997 102.5886739541515 L 143.72899827004028 101.39394706744824 Z" fill="black" />
<path d="M 138.04673242045203 110.51045030707925 L 135.2964993925269 112.25701263112308 L 133.63430577553848 114.25432707861214 L 132.56574276448376 116.11118029727231 L 131.9364370564574 118.18732387902637 L 131.73309842292346 120.16481359995595 L 131.73419270248593 122.17920096294348 L 132.447826859189 123.92261748095802 L 135.1064944298735 122.83421845654198 L 134.63177409438907 121.67480294330652 L 134.74090060051404 120.38596765004405 L 134.9336801310426 118.80999057409863 L 135.38469668864124 117.33266735897769 L 136.15268152914902 116.01141999170036 L 137.2633150605981 114.58038971262692 L 139.66261816548547 113.04875379448325 Z" fill="black" />
<path d="M 135.31651257834605 117.52660295836552 L 136.76009253645762 116.61789294922339 L 138.14194326951025 116.1274130733726 L 141.46373729525789 115.10125125721942 L 144.09149073694257 114.60641874485674 L 145.6272072625726 114.41363397023481 L 147.3924574658143 114.15312809573307 L 149.2291959052364 113.95402802796663 L 151.32769164524402 113.69082778850338 L 153.2173284875879 113.50418572589986 L 155.17710251278857 113.29935511172265 L 157.08956242181884 113.03592395546491 L 158.89279563289492 112.84107314101125 L 160.66720177367858 112.70417430862473 L 162.54908206256658 112.51899785643022 L 165.07469266656418 112.3878238878423 L 167.00792145707499 112.32669699115998 L 168.7615966796875 112.3266795873642 L 170.3460693359375 112.32311701774597 L 170.21120989442952 111.17691365608493 L 169.34178342939342 110.66500582228981 L 168.2733808091684 112.61381836300009 L 167.35651501925463 114.93178368345387 L 166.59968144338436 117.31802860730463 L 166.200689053458 120.08378705790376 L 169.0538275481045 120.59211626240874 L 169.59111445505314 118.10274775988287 L 170.41875353543287 116.13474463685863 L 171.3384355970816 114.09846191043741 L 172.14259157060658 112.74405179489769 L 173.50583112119548 110.00497110954007 L 170.3460693359375 108.85876774787903 L 168.7615966796875 108.8552051782608 L 166.95020842573751 108.85518777446502 L 164.92225557562332 108.9191829480952 L 162.29833004680842 109.06327753419478 L 160.36307166382142 109.25346729293777 L 158.57241432804258 109.39183701523875 L 156.66654109380616 109.59737682578509 L 154.76186233096143 109.85945836483985 L 152.8684869420996 110.05501837566264 L 150.94098511256848 110.24374252399662 L 148.8262240166386 110.50605497984587 L 146.9538560107482 110.70734553707943 L 145.1540427374274 110.97235235789019 L 143.52081395055743 111.17995820826826 L 140.60291309536711 111.73615108653058 L 137.04665536330225 112.8370644656899 L 135.00748558854238 113.64785412108911 L 133.42616320290395 115.24158551819698 Z" fill="black" />
<path d="M 156.58055646084915 114.60026213792614 L 153.38916117616907 114.31308651386533 L 151.15258189294386 116.19283574016436 L 150.06725683432555 117.62986974552157 L 148.87803673897545 119.27479683968505 L 146.54005439103562 121.9036291438293 L 144.83950611344872 123.51436473330253 L 142.99209421806376 125.1292472967279 L 139.6332263371322 127.44219569642966 L 141.2450695613053 129.84991856138285 L 144.76425343818624 127.5583747735846 L 146.87802318342628 125.87003468075997 L 148.85057060896438 124.1775476139832 L 151.41004919852455 121.40110648062745 L 152.74158105629945 119.61768884822843 L 153.63684681799364 118.42715937702314 L 154.28112690976843 117.52919864238467 L 156.23926775790085 117.79256012769886 Z" fill="black" />
<path d="M 135.811767578125 134.7124104499817 L 135.52615589926592 136.92590302116616 L 136.59754622597868 137.283327221493 L 141.2635657147321 135.7862368425917 L 143.11770220944769 135.34225961709348 L 145.10457803922557 134.81381588044093 L 147.1730237872301 134.28777248558666 L 149.2474741616641 133.82074017269164 L 151.42425420926503 133.34200699985163 L 153.76182698801512 132.8016385049756 L 155.69819319705005 132.46524064964484 L 157.58577900308705 132.1138429394247 L 159.12654269978324 131.76460933155755 L 163.57590088563958 130.9905087371743 L 160.98550466647282 127.73883499200161 L 160.44088693508968 130.6043046564359 L 162.06374755186042 128.1534121612632 L 158.59074245646676 128.55545902781745 L 156.96256084066295 128.8818845996378 L 155.14104020138745 129.18112165504266 L 153.11622476979738 129.4953585653369 L 150.70037957979747 130.00601546108587 L 148.5198598227109 130.45318560855836 L 146.3810533612074 130.91205661597584 L 144.23624227327443 131.43703861174657 L 142.26193646242731 131.95962026571902 L 140.2629235430804 132.4415463605333 L 135.56615006308382 133.9724100831945 L 132.42428355385908 135.53100615852134 L 135.811767578125 137.7444987297058 Z" fill="black" />
<path d="M 154.7656460603302 120.64582923429182 L 151.62581535483923 118.44952518239407 L 149.98716535987856 121.89716089932587 L 149.9792399406433 124.1041259765625 L 149.97796273231506 126.8067626953125 L 149.97836208343506 128.38330078125 L 149.98114697785317 129.97548936991907 L 149.86520475641197 131.79055034808587 L 149.68256310714992 133.51315818790744 L 149.42167143603106 135.3606937852087 L 149.23265041891378 137.31087038328639 L 149.05020205316623 139.22350933564928 L 148.86790253488152 141.09517058814893 L 148.76285901321035 143.05536592127314 L 148.60785820369045 146.48847374685306 L 151.36408942782833 145.07675093353382 L 148.52787834560917 145.44778519927868 L 151.68022773380955 147.06401648752194 L 151.92134508835215 143.24004423497686 L 152.06837676199348 141.37150421653857 L 152.28219540777127 139.56457660185072 L 152.49586520608622 137.64848020265111 L 152.70296235303144 135.7699214491663 L 152.98223181472508 133.93886817928006 L 153.19570832952553 132.08298480816413 L 153.33184130339683 130.09433484883093 L 153.33462619781494 128.38330078125 L 153.33502554893494 126.8067626953125 L 153.3337483406067 124.1041259765625 L 153.32582292137144 121.95684300692413 L 151.83121589516077 121.70086544260593 L 152.9046420256073 122.93290611727068 Z" fill="black" />
<path d="M 146.01241891356665 125.64496382815946 L 142.03933002615003 126.12740044511968 L 143.9939985200704 129.895415432523 L 147.1435042017819 130.5846328202486 L 147.8510026341556 127.7585068281889 L 145.2027788236796 126.9963082002895 L 144.13254497384997 128.53715033613034 L 146.20926077393335 128.61919632809054 Z" fill="black" />
<path d="M 158.01456697122342 123.71555101532934 L 155.743035358572 123.99185913473899 L 154.08233669892766 125.78487359670329 L 153.41653485366058 127.3078542740797 L 152.54994419455517 128.7425604503607 L 151.04885118707298 130.88901825582778 L 153.34445935980202 132.60915068948472 L 155.01231166481983 130.5264825183893 L 156.23434405258942 128.9332345931078 L 156.90093966825984 127.55338323923421 L 157.220831828928 126.96907836526101 L 158.26228849752658 126.99514234404566 Z" fill="black" />
<path d="M 148.6337496638878 133.1132292585743 L 146.92389121181137 133.6783142203606 L 145.30007420613086 134.50780265711327 L 143.31452309369072 136.17728384776996 L 142.19192420372735 137.60687446627023 L 141.33069786722683 139.09441733618502 L 140.32456262579916 141.19674962551335 L 139.77231740184425 142.88770157744221 L 142.54640818409325 143.93322127412029 L 143.18251745232584 142.47109705417415 L 144.15697303121067 140.61957192162748 L 144.88021935096015 139.45452690091727 L 145.63017905474678 138.50679818348004 L 147.20969141886914 137.14832527257423 L 148.21465859287613 136.5263976937019 L 149.6737454532997 135.9153351945507 Z" fill="black" />
<path d="M 151.68664369946706 137.72406590961316 L 152.99704116778585 139.2546142984385 L 155.3699510404541 140.21255131746457 L 157.75024419328898 140.3820744694289 L 160.19570982769088 140.38197945547034 L 162.376557448756 140.30048111128775 L 163.99144152465672 140.21610149220587 L 165.2972934842287 140.69596617548527 L 166.4281703829588 137.94197327763973 L 164.56507703003078 137.12056842966913 L 162.326811691869 137.03618881058725 L 160.15035950824662 137.07981253671716 L 157.84240717389852 137.0797175227586 L 156.0094434907959 136.99899653409793 L 154.67324691815165 136.6306396078115 L 153.89502133959544 135.78386866069934 Z" fill="black" />
<path d="M 143.58305851400144 145.8672595328298 L 141.6566208056412 145.67206061829765 L 138.9686380596207 146.1884521515215 L 138.06221239989816 149.08488305342325 L 137.99245643752366 151.69019106039934 L 138.00938594341278 153.29510498046875 L 138.02579641342163 155.07183837890625 L 138.04167771339417 156.660888671875 L 138.05828952789307 158.17486572265625 L 138.0813889507335 160.68805305266503 L 140.75007744942215 163.77141322276947 L 141.73736309474933 160.19171012020337 L 141.73828125 157.77447509765625 L 138.887939453125 157.77447509765625 L 138.88885760837567 159.98675667667163 L 139.19193915214035 161.28681431629303 L 141.068391322704 160.41631706452247 L 141.09149074554443 158.17486572265625 L 141.10810256004333 156.660888671875 L 141.12398386001587 155.07183837890625 L 141.14039433002472 153.29510498046875 L 141.15732383591384 151.74694272866316 L 141.23161084228934 149.47248999345175 L 141.2614644794418 148.4150634734785 L 141.5983840771713 148.80633293638985 L 143.38105281412356 148.8613781624827 Z" fill="black" />
<path d="M 141.75151363646805 150.3102219310057 L 141.95158656849 149.33154068621795 L 142.4603882206339 149.06036656807163 L 144.49287653660625 148.4217354879314 L 146.31459007678194 147.98671107505916 L 148.79916429791805 147.4019348205382 L 151.72369598495678 146.82820297565445 L 154.6437078473705 146.31144285306783 L 158.7901091313552 145.7203078011968 L 161.18400668786276 145.54493774064358 L 162.94586181640625 145.5508884191513 L 164.8748054793173 145.54810201859334 L 166.18131560429833 145.75324639043282 L 166.7790808522572 145.48256507859665 L 166.60514104366302 147.68963623046875 L 166.62401073282567 149.33584887539686 L 166.50838206819466 151.26765814241168 L 166.42380242500397 153.45006929462747 L 166.4208277532372 158.6259878798218 L 166.33508204995124 160.27334728954725 L 169.20752048911126 160.68087634326525 L 169.6259251764503 158.7747689561157 L 169.76699347343353 153.54053129131003 L 169.93448902555534 151.49381646696332 L 170.10694629842433 149.47176831210314 L 170.12581598758698 147.68963623046875 L 169.9518761789928 143.96592124952835 L 167.09261017695167 142.39397040644218 L 165.1221427628702 142.07360208296916 L 162.94586181640625 142.0708156824112 L 161.03462124182474 142.07676636091892 L 158.3870148920823 142.2767625113032 L 154.106902504192 142.88679933443217 L 151.08514190566822 143.42106460247055 L 148.06790113176945 144.0234802185243 L 145.51097144665556 144.63987583900334 L 143.51554631495625 145.1307547464436 L 140.9386596309286 146.06866175224087 L 139.0707522986975 147.77441634503205 L 138.87470706665695 149.9488112721193 Z" fill="black" />
<path d="M 143.95148641580946 153.12683540042568 L 143.94440785109617 154.2263960209525 L 144.38617216330712 155.1453513614203 L 146.2769065999237 154.53072570869844 L 149.13843052331248 153.95521176289736 L 150.73682309486497 153.69171579750665 L 152.28725796344978 153.4238022184518 L 153.90651743944508 153.2143882210772 L 155.59210496026935 152.99284523458937 L 157.2216828681348 152.709686347448 L 158.86850763281464 152.497577349029 L 163.14452529091056 151.86270012488933 L 165.48378152433096 151.52515430624973 L 165.16136007723154 148.60875682656277 L 162.74719834190194 148.79672370323567 L 158.45265935937286 149.363018354096 L 156.7864958428027 149.5262755666145 L 155.13909621160565 149.76862937478563 L 153.51169545117992 149.9474770132978 L 151.81796664592522 150.1384536409232 L 150.19945620201003 150.39605275718085 L 148.52087123450002 150.65806948710264 L 145.4406226969513 151.28372741630156 L 142.97405732888038 152.1205177792047 L 140.75102671921633 154.866255346235 L 143.80486124044054 156.11596245113682 Z" fill="black" />
<path d="M 154.96036618617646 143.43082238908636 L 151.38749506269983 143.26977404678132 L 149.55141681569512 145.854268970762 L 149.30570810880891 148.68944358415902 L 149.30967485904694 151.31817626953125 L 149.3308173418045 154.02081298828125 L 149.36660432815552 156.861083984375 L 149.40831085169967 160.38379033911215 L 149.60758415747875 162.9884739983748 L 152.51704963158375 162.8455103766252 L 152.46424774205033 160.32018915307535 L 152.50595426559448 156.861083984375 L 152.5417412519455 154.02081298828125 L 152.56288373470306 151.31817626953125 L 152.56685048494109 148.81690407209098 L 152.71725994211738 146.647195872988 L 152.46565435136267 146.32885876571868 L 154.83455568882354 146.41805456403864 Z" fill="black" />
<path d="M 142.278950859301 165.1572656597348 L 142.36402291687733 164.35313396407332 L 144.17461166100318 163.85139663311168 L 145.61448470771796 163.44622594667865 L 147.4066637934503 163.06240442627876 L 149.33509739045377 162.67128292295087 L 151.39077461062084 162.35338855596117 L 153.64259977045668 162.02841668644945 L 156.31361655836957 161.7594513468262 L 158.68820271007544 161.5471017931357 L 160.96333930164064 161.4548299232612 L 163.115629732196 161.36949748418567 L 164.99847412109375 161.34422159194946 L 166.636962890625 161.31061100959778 L 168.10550498064788 161.2617822329789 L 169.99983617670327 161.47565758362887 L 170.40421655767173 158.42754065855863 L 168.33736611310212 158.1159033138961 L 166.636962890625 158.06707453727722 L 164.99847412109375 158.03346395492554 L 163.0641798381165 158.00818806268933 L 160.85917046398436 158.0479776939263 L 158.48892131336206 158.1058523084268 L 156.00205726975543 158.2938933797363 L 153.23545198735582 158.55044073542555 L 150.87790214719166 158.87610363153883 L 148.72032253142123 159.20884403017413 L 146.6875744877997 159.61850377684624 L 144.77064712821954 160.03546350644635 L 143.04157486243432 160.53117172626332 L 139.95470266906017 161.88124103592668 L 139.3915813672615 164.6305761371402 Z" fill="black" />
</svg>