<svg xmlns="http://www.w3.org/2000/svg" width="300" height="300" viewBox="0 0 300 300">
<path d="M 131.76520341589858 136.35990620771713 L 131.84777296085196 134.66213748182213 L 129.1762704368962 131.93523651653257 L 127.97777625339563 135.04665664675562 L 127.84674789374482 137.49850913291516 L 127.57513736384361 140.64803457615724 L 127.45015949838556 142.40943155295452 L 127.25436969929362 144.23769406471337 L 127.0620871601917 146.17413076115866 L 126.74152263165054 148.2625254934868 L 126.47506297502359 150.50537806571234 L 126.0840431117613 152.92290172291536 L 125.8154338605107 155.0027815560902 L 125.5683393116613 156.9178374857363 L 125.38129863914824 158.637079038367 L 125.19575617643834 160.18655541963008 L 124.94667691536011 162.9284315164541 L 124.6050998978809 165.4544387541907 L 127.7166774458691 165.9349655426843 L 128.16733675651489 163.3309678976084 L 128.45841862824915 160.54244848661992 L 128.66899432960176 159.038946352258 L 128.8780718211512 157.3298431783262 L 129.1351276629268 155.4411881704723 L 129.4066795444887 153.41706409739714 L 129.8078960093514 150.97985142647516 L 130.08159748553697 148.7183094674507 L 130.40922631637082 146.60260263727884 L 130.61306194133138 144.58518191184913 L 130.81339030630193 142.70983114235798 L 130.9404876361564 140.91776132228026 L 131.2090382390677 137.73611000770984 L 131.33008507472937 135.30820175168188 L 130.5277090552913 134.99127715534243 L 128.64844285946054 135.16720822130287 L 128.87505537316392 136.49739359697037 Z" fill="black" />
<path d="M 120.37027890160235 146.83073893578307 L 117.18062806836627 146.35472758969456 L 116.54709804058075 149.553955078125 L 116.5495845079422 151.59344482421875 L 116.55359671626466 153.96460722675897 L 116.1172600972495 156.87096586843504 L 115.84883833502398 158.37245622556287 L 115.32260056602226 161.38486828240147 L 114.84516087297682 163.74908697337835 L 114.78374051663226 167.29961927052366 L 118.16408905462215 167.362767170222 L 119.97813841448504 167.19464733727006 L 121.45893756997654 167.0802187371363 L 124.03672850593054 167.09445007894865 L 125.88845702696088 166.9692515906037 L 127.934353870751 166.84156834424832 L 129.78225487082665 166.3983218171481 L 132.13879325786152 165.5836066846518 L 133.7031866080395 164.9175493118539 L 135.90356942187185 163.6584352427233 L 137.6178585654397 161.96808322380508 L 138.36210241828215 159.36589317596477 L 138.36685729026794 156.21044921875 L 138.31910836696625 154.4337158203125 L 138.2623857576623 152.69969460676057 L 137.9934499182847 150.3414084582457 L 137.87950932979584 147.76470947265625 L 134.89636957645416 147.76470947265625 L 134.7824289879653 150.4681618542543 L 134.9096113126502 152.86451437761443 L 134.85288870334625 154.4337158203125 L 134.80513978004456 156.21044921875 L 134.80989465203035 158.98579139434773 L 134.5098269814353 160.21233669806992 L 133.84740714062815 160.7491575307142 L 132.0866083138355 161.7422407272086 L 130.87817451557598 162.2523308153482 L 128.73337012917335 163.0141537687894 L 127.412325816749 163.37168849168918 L 125.64108398866412 163.4942493859588 L 123.92774903313196 163.64431945230135 L 121.35600383627346 163.6585507941137 L 119.66785767926496 163.79436633460494 L 117.52072539850285 164.026637126653 L 117.33601045993024 165.14081041697634 L 118.06682643171068 164.36211908130915 L 118.52566603554024 161.97169910041103 L 119.04373978997602 158.92820295412463 L 119.315479160563 157.37671479562746 L 119.77941109623534 154.22716523417853 L 119.7834233045578 151.59344482421875 L 119.78590977191925 149.553955078125 L 119.15237974413373 148.92444721499294 L 119.41976016089765 149.62458332984193 Z" fill="black" />
<path d="M 145.51495391785554 139.4419923835429 L 144.253348475396 141.4707283160867 L 144.21187090873718 144.53656005859375 L 144.21699225902557 146.38836669921875 L 144.22620975971222 148.56549072265625 L 144.23507952690125 150.66754150390625 L 144.24860385944433 152.76163545323035 L 144.20970558879108 154.77189677762013 L 144.1552665244085 156.70482950934982 L 144.173790479228 158.36308690237755 L 144.1222726854506 161.17364014498304 L 147.0353994403101 162.7789494763553 L 146.9973703622818 160.6898193359375 L 146.9958449602127 157.84954833984375 L 144.1455124616623 157.84954833984375 L 144.1439870595932 160.6898193359375 L 144.1059579815649 163.0800593127072 L 147.1271169629869 161.25702391751696 L 147.2196421379595 158.41205958199745 L 147.238166092779 156.76709431877518 L 147.32776999714642 154.87129169894237 L 147.39690395305567 152.80257353114465 L 147.41042828559875 150.66754150390625 L 147.41929805278778 148.56549072265625 L 147.42851555347443 146.38836669921875 L 147.43363690376282 144.53656005859375 L 147.392159337104 142.1971183636008 L 148.11114471495696 141.0727781242696 Z" fill="black" />
<path d="M 147.40108954906464 149.4788818359375 L 147.41169966946683 147.59376370288877 L 147.29558092289838 144.88822806291404 L 147.17874787841106 144.0563441374982 L 148.09948059345723 143.79543208949303 L 149.9968749017876 142.8063452546367 L 151.24822780068297 142.266079418239 L 153.54894008797285 141.78841208326543 L 155.1899586317668 141.68461942064 L 156.8849428970373 141.68754318971114 L 158.47177070685865 141.72517622064996 L 160.77016421389857 142.38069109573865 L 162.3341456566381 143.108612973249 L 163.12088343933473 143.56335509355753 L 163.21006013803668 144.66297491207698 L 163.2092180399124 146.93719112276466 L 162.9077534820493 149.06991692737708 L 162.45331693567192 151.44574148316434 L 162.14708171185413 153.76843578781614 L 161.79004289107954 157.41227667792734 L 161.72835707834363 159.16405066579856 L 161.349068201568 160.77569452572376 L 164.1105265249945 161.52984746646374 L 164.66751694509387 159.71314659982644 L 165.00194929642046 157.76130730644766 L 165.43714680377087 154.17309253249636 L 165.77910493932808 152.01641671996066 L 166.2609476898257 149.63760260387292 L 166.6076764913376 147.16583622098534 L 166.60683439321332 144.41014520511052 L 166.04781773254027 141.83117615644247 L 164.0617283667994 140.183867495501 L 161.91660336422643 139.18510480269885 L 159.06546073845385 138.38920366216254 L 156.9431821029627 138.30171462278886 L 155.0731028916707 138.30463839186 L 153.04102573233965 138.45108986985957 L 150.30023411337953 139.0494723395735 L 148.5266846685249 139.8104760344258 L 146.46289733623027 140.94846439488197 L 144.46675993408894 142.5143345734393 L 144.34992688960162 144.98567330427346 L 144.52189408053317 147.68541110179873 L 144.53250420093536 149.4788818359375 Z" fill="black" />
<path d="M 146.52639167298614 153.45557272594613 L 145.80463117351124 156.55035268818 L 147.6777775808708 156.1735467204897 L 150.0141914516247 155.45899313468743 L 152.5564431202567 154.82475750093474 L 156.20035791534957 154.15040406315202 L 158.46223400313158 153.95697496740988 L 160.34565970636794 153.7840151001204 L 161.78401173790064 154.0526334782412 L 162.34318552772436 151.2363069514463 L 160.50456002019456 150.8542905639421 L 158.28276111405592 150.93157483727762 L 155.79121923308793 151.01341429622298 L 151.9088889109933 151.66535480375276 L 149.1575614780628 152.33238870125007 L 146.7405573800667 153.0692511310728 L 143.75225359211376 154.1438611790075 L 147.09970695982636 156.46288430530387 Z" fill="black" />
<path d="M 146.0474432625797 161.20892235741508 L 143.07922895287004 163.40517407384385 L 146.2905278283592 165.69967627973205 L 148.84612078704785 165.77160458620818 L 151.71051025390625 165.76896154880524 L 153.22296142578125 165.7456752061844 L 156.31626502814947 165.72266281363852 L 159.62502514612993 165.17699426482895 L 163.35268350108402 164.04646076713829 L 165.0497684045495 162.85503385612873 L 163.434728665763 160.50153352668377 L 162.25095419422848 161.28703532661171 L 158.95651782262007 162.13343053985855 L 156.07143028435053 162.51366531136148 L 153.22296142578125 162.4906529188156 L 151.71051025390625 162.46736657619476 L 148.88520245513965 162.46472353879182 L 146.5433344763283 162.41152977495545 L 146.18956987525496 164.18051928553115 L 147.5786553702328 163.72418311133492 Z" fill="black" />
<path d="M 156.57028892591774 122.36324074056199 L 153.7790707528076 120.99090688843356 L 152.42460520667487 123.94070836394775 L 152.19204760560922 127.74901790070251 L 151.99286066277512 129.42380698815748 L 151.8455510452572 131.3235872684563 L 151.59850561990604 133.5167612808939 L 151.25847546091862 136.08131907408156 L 150.93504662612006 138.58660956975825 L 150.61191873129582 141.10744596205154 L 150.34803328831538 143.62652137142695 L 150.08754028116613 146.08561710377765 L 149.90569710688743 148.42712873989674 L 149.7322379920852 150.9273609213312 L 149.75807297229767 152.71954345703125 L 149.789435505867 154.29608154296875 L 149.8246177310641 157.16450947880875 L 150.04606702635343 159.9458265803554 L 150.5156252301271 161.79997576529433 L 153.3015134417479 161.15620099251817 L 152.97883531739657 159.5820054508946 L 152.9121986751859 157.08317118525375 L 152.947380900383 154.29608154296875 L 152.97874343395233 152.71954345703125 L 153.0045784141648 151.0833812661688 L 153.22723746342507 148.70385270541576 L 153.44151245320887 146.41584773997235 L 153.72118057887212 143.99518273013555 L 153.99745626870418 141.50937532701096 L 154.32252173325494 139.02532890680425 L 154.64728625783138 136.52573658998094 L 154.99146020040646 133.9352650862936 L 155.2485651656803 131.6490689815437 L 155.38934148566238 129.74513832434252 L 155.58627270689078 127.99158268523499 L 155.74983326988763 124.14242151886475 L 154.6474429190674 124.06426889281644 L 154.88112708970726 124.79398582193801 Z" fill="black" />
</svg>