<svg xmlns="http://www.w3.org/2000/svg" width="300" height="300" viewBox="0 0 300 300">
<path d="M 147.30595570322606 97.18572391823031 L 143.5674114405808 96.49281056807199 L 143.31817443798644 100.61876287530116 L 143.89240907332774 103.65801950136905 L 144.20659009949708 105.48597637819935 L 144.3583422794861 107.0923130147029 L 144.38268341400735 108.66877028110164 L 144.34278120014417 110.83083186307752 L 147.19469438579333 110.90159001192248 L 147.26282439849265 108.70940354702336 L 147.2871655330139 106.9826381571721 L 147.18684251769042 105.16063006711315 L 146.96086241104726 103.15985159238095 L 146.49078552295106 100.26832208563634 L 145.9894733250442 98.58861033036551 L 145.81599253896144 99.87262569114469 Z" fill="black" />
<path d="M 135.58546385213208 105.54385295067338 L 133.02962560188732 105.75294379995006 L 132.0068292510073 108.36798458789478 L 131.84867254334682 110.47082050394663 L 131.25114267762768 112.75532280051426 L 130.9595985593081 116.69841285895629 L 134.89844699108065 117.08755481696113 L 136.76258289754387 116.43094693837999 L 139.06611944554655 115.89577811255509 L 140.47279535892866 115.66375223455029 L 143.5796920770141 115.28126159677468 L 145.3210167023142 115.16446926030638 L 147.34066083147937 115.09078990062395 L 149.4125105642692 115.02904304008537 L 151.8365478515625 115.02921259403229 L 153.88916015625 115.02838504314423 L 155.99578857421875 115.02746868133545 L 158.04840087890625 115.02440249919891 L 160.02899169921875 115.02064526081085 L 161.86553955078125 115.0198175907135 L 163.99438599409476 115.02054474430552 L 166.82737804079122 114.80507797620031 L 169.13848595110863 114.20691252030436 L 171.73541242172857 111.65944089293455 L 170.378106541598 108.52095250650281 L 170.05214385818763 106.76032616513282 L 169.70746585498065 104.32120379365406 L 169.36898831243678 101.81179273618714 L 168.62184280228809 99.82262652430596 L 165.55235153364941 100.81421429600654 L 165.99356051568822 102.50363695131286 L 166.19524410595685 104.74886456572094 L 166.49875946212487 107.31462500674218 L 166.9650331068395 109.78312464193469 L 168.12847917983393 111.37425051331545 L 167.66449256451637 110.92882966719564 L 166.30250477170878 111.25656753161219 L 163.84191771684274 111.44149138850698 L 161.86553955078125 111.442218542099 L 160.02899169921875 111.44139087200165 L 158.04840087890625 111.43763363361359 L 155.99578857421875 111.43456745147705 L 153.88916015625 111.43365108966827 L 151.8365478515625 111.43282353878021 L 149.3631242013558 111.43299309272713 L 147.22171709820813 111.49636830250105 L 145.1361366179983 111.57283542719362 L 143.2043655401734 111.70628723135032 L 139.97337163325884 112.12457784357471 L 138.31913446070345 112.41806466088241 L 135.76122081339363 113.05904329599501 L 134.06029324329435 113.72872936272637 L 133.6418418703794 114.76850608635621 L 134.39460927549732 113.45646919167324 L 134.98543390196568 110.98633281636587 L 135.1153631318052 108.86004275585522 L 134.99283533561268 108.19688530161244 L 135.46189942911792 108.53109822120162 Z" fill="black" />
<path d="M 135.22281771872358 120.30339410463053 L 133.05727122019786 121.27016205753822 L 132.13905338404012 123.97777738538159 L 132.1452147181092 126.6434625117832 L 135.0597824533312 128.97360222480836 L 135.25202805009494 126.13075237821104 L 135.44394866848916 124.63580185905845 L 135.79798935894448 123.45931918948914 L 136.3705003192758 122.5475195959054 L 137.33158387774174 121.95695394363477 L 139.1362455571272 121.54758267297723 L 140.64814789982265 121.51203165757656 L 141.98988158015618 121.45936235972952 L 142.86497899378395 121.99370434600219 L 143.27072154514838 122.39832134441153 L 143.3818596655941 124.12417066199713 L 142.6591954212341 126.67909128988248 L 145.4212489147034 127.61009328043002 L 146.5711432640934 124.60959398644037 L 146.39419544703912 121.48070697590097 L 144.96339014684105 119.50800463837281 L 142.81358521671882 118.31566205433298 L 140.59025542048985 118.26299275648594 L 138.6451265131853 118.35256381139777 L 136.09248838788326 119.01924234542773 L 134.1727125713492 120.4056054040946 L 133.01670790668052 122.24649135738586 L 132.57851226901084 124.09796278937905 L 132.37431472334256 125.90623492647646 L 132.3144851247938 128.06826789237914 L 135.0850098912658 126.5946966679043 L 135.09117122533488 124.38062105211841 L 135.36130788136464 123.25950102839928 L 136.22066372658892 123.17524359068197 Z" fill="black" />
<path d="M 136.60970125290797 129.5189505966297 L 136.20282799004536 131.0429198919664 L 136.8479279793312 131.90443110926157 L 138.61692621583967 131.53028402359703 L 140.95303184187327 131.14340259726325 L 143.6648689623971 130.4657636764968 L 146.1819424898589 129.7774760155686 L 145.4635653226411 127.01414996099392 L 142.9751456860404 127.62713183131568 L 140.39340370500173 128.15066478554925 L 138.12013433103533 128.41441812484047 L 136.1800261222313 128.71593021886343 L 133.00798743964214 130.4783203424086 L 136.16617765334203 132.5278023330578 Z" fill="black" />
<path d="M 153.72748435310274 119.16966781175626 L 153.05670574819678 121.00041627908162 L 155.99258159315443 123.71972001098702 L 156.15458259761672 120.89333253960214 L 156.85475355231617 120.72690588160773 L 158.870034167199 119.9059716730483 L 160.44643479215964 119.38682955897181 L 161.96358995949012 119.11173573447995 L 163.251953125 118.87690842151642 L 163.82285764065236 118.61774651654198 L 163.47366381050173 119.33076781304774 L 163.48481315892403 121.14550796962646 L 163.20279551543032 123.04750446154158 L 162.68120381149566 126.36176461324814 L 162.34665918599745 127.92847627129706 L 165.09352636087755 128.71300322089044 L 165.69526103225434 127.00151663675186 L 166.36202382050718 123.58420940564592 L 166.72819953638847 121.40722640537354 L 166.73934888481077 119.26810914007726 L 166.24611208591014 116.42766363970802 L 163.251953125 115.61796462535858 L 161.37137097800988 115.93367442177005 L 159.61154860627786 116.30921536290319 L 157.7309179812385 116.9662207097642 L 155.38889879143383 117.99709314182977 L 153.31624259769578 119.80759519477286 L 153.22616840684557 122.91199385620048 L 155.90996905649072 121.42719602560588 L 156.53557717033476 120.48023453199374 Z" fill="black" />
<path d="M 153.94956077250748 127.54836271250538 L 152.89268324058662 127.9653519083207 L 154.2168893655978 130.34743064825955 L 156.10566418892495 129.68641640373926 L 158.1884835841507 129.04179853983783 L 160.4817609600881 128.50741060478376 L 162.46610362238872 128.06125745945957 L 164.9810098305327 127.62764485811933 L 166.72440678545257 127.37580651950785 L 166.40547602704743 124.53605871486715 L 164.5838095054048 124.68461100125567 L 161.94917958073628 125.02675523585292 L 159.8282976336619 125.38138334052873 L 157.3681570408493 125.89802079609967 L 155.09367663138755 126.57969687751073 L 153.2733450094022 127.21995216424045 L 150.92445543128838 130.5279342244918 L 154.22487770405502 130.54453279530713 Z" fill="black" />
<path d="M 132.2901760551296 141.20307521536742 L 134.27354251314478 140.55307695537024 L 139.19680623050644 139.48268531984326 L 141.20851236217956 139.08708319814588 L 143.3745782965563 138.63700859857855 L 145.89414460338037 138.17118532610533 L 148.48781546338154 137.635923277971 L 151.0640268128751 137.08936491097103 L 153.88184137970353 136.4923943278574 L 156.18890582054092 136.02362674962302 L 158.20795040566117 135.62827196650434 L 160.03506393765463 135.28406077715852 L 162.87662560033823 134.81156379718163 L 166.39137530326843 132.8126220703125 L 162.603759765625 131.28547358512878 L 160.5511474609375 131.3677235841751 L 158.1024169921875 131.38575732707977 L 158.1024169921875 134.23948681354523 L 160.5511474609375 134.2575205564499 L 162.603759765625 134.33977055549622 L 163.17344403266907 132.8126220703125 L 162.33089393091177 131.58943717938087 L 159.48275832797037 132.04284351971648 L 157.60076541465133 132.37429151005816 L 155.55059613258408 132.75469356287698 L 153.21227483123397 133.2118293049551 L 150.3764028746249 133.79100618277897 L 147.80307809130596 134.3204976204665 L 145.24721281849463 134.83626096295717 L 142.7252752190687 135.29634101079645 L 140.53404134875794 135.74714531747912 L 138.47653361324356 136.15232444578174 L 133.35280026029272 137.33413007587976 L 131.1229098823704 138.51091404244508 Z" fill="black" />
<path d="M 139.65475641994726 134.41626025879387 L 137.61010067694582 134.6666070261417 L 135.44087804518932 135.84137765354126 L 133.92089676878402 137.8470675187322 L 133.21282009877967 140.26136045298767 L 132.6744213474767 142.69822573612439 L 132.07920296265408 145.87853186789522 L 131.69824542993746 147.81301035941476 L 131.19162059280345 149.95562929052502 L 130.60657171031954 152.33048313951565 L 129.95679199993492 155.00908951860453 L 129.31500544254015 157.2582278055533 L 128.61919916062908 159.46694621480634 L 127.92472132660026 161.55239242417926 L 127.3083186591134 163.25405401979975 L 126.78854848874548 164.4564113177881 L 125.21195138530217 166.10031642165893 L 127.36190115376033 168.19191990646607 L 129.24233530031702 166.2823582134619 L 130.16299481744912 164.45676140988775 L 130.87898961089974 162.60495620863324 L 131.62494146437092 160.46127644144366 L 132.36956486995985 158.1906247335092 L 133.06017577350258 155.83527083295797 L 133.74279352405546 153.10860377454685 L 134.34609913375905 150.72881895166248 L 134.88378582006254 148.51718983589774 L 135.29506461547092 146.49781090554228 L 135.8882007228358 143.34694027950061 L 136.39411349497033 141.05419130482483 L 136.87439131715348 139.2393582625178 L 137.58707605637318 138.21709402614624 L 138.58679873711668 137.5400580129208 L 139.99917424411524 137.39001415526863 Z" fill="black" />
<path d="M 139.24105610287614 145.1477760070993 L 140.8408164614184 144.4912841831769 L 142.63136955510973 144.3722046702303 L 145.90455242150813 143.74466261435896 L 147.77267341171674 143.20153086942938 L 149.3236057455931 142.68151241780114 L 149.1781165599823 140.65777587890625 L 148.28926519552397 140.06755258493214 L 146.51963904168673 140.8974625889626 L 145.10607594095748 141.33576251129307 L 142.1745444322987 142.34642011803538 L 141.63380492514563 144.97390203963928 L 141.69033896923065 146.7762451171875 L 141.73252244792423 148.5336262032772 L 141.69653439523208 150.01165933403385 L 144.54736208914292 150.14727621284115 L 144.65541700520077 148.5973552420353 L 144.69760048389435 146.7762451171875 L 144.75413452797937 145.02512139786072 L 144.3214272473888 144.62464921790212 L 146.03528148091752 144.18389080901943 L 147.64662072393827 143.5711653407249 L 149.44205804666353 142.67439077444286 L 152.1182701587677 140.65777587890625 L 148.4077174965944 139.81018680094886 L 146.93374748672076 140.21607166963312 L 145.23680500036687 140.59884324501604 L 142.17209724176527 141.1474486500822 L 140.1095009213941 141.3036376918231 L 138.03616557681136 142.0985618835257 Z" fill="black" />
<path d="M 138.1476419711685 154.03521701111015 L 139.2309248471195 152.657237962178 L 142.32651588579213 151.48269047558526 L 144.6151212267423 150.82437760701967 L 147.74445929585926 150.06732358346486 L 149.84616234580267 149.54497181391724 L 149.21755835732233 146.66010631108276 L 147.06999382914074 147.06365786184764 L 143.8614412732577 147.75801985391783 L 141.28859641889537 148.40097651660224 L 137.5061356997555 149.8790169206345 L 135.672548458519 151.92938259826485 Z" fill="black" />
<path d="M 141.25144825679666 147.33510427996242 L 139.88342016634468 148.53601294549037 L 138.6722364198256 150.74401272949422 L 138.2709741240203 153.36625961326058 L 138.19266584984445 155.52648598550863 L 138.20196735858917 158.9130859375 L 138.24928969395853 161.29196676936857 L 138.54666140990292 163.2057892163806 L 139.31819484425526 164.84563987175457 L 141.92020847605724 163.64093239387043 L 141.35934444947208 162.4029754320569 L 141.26059800135397 161.13869729313143 L 141.30792033672333 158.9130859375 L 141.31722184546805 155.56811850667887 L 141.3829565400422 153.64936538673942 L 141.6298876036119 151.64209566894328 L 142.25525170865532 150.29662865607213 L 143.15590037601584 149.52060861066258 Z" fill="black" />
<path d="M 143.79133665561676 150.66754150390625 L 143.74404714598205 153.58703388248475 L 143.8054046085493 156.0302102427298 L 143.9696689954415 157.60158239330917 L 144.10840746511187 159.1598757352275 L 144.24976996182562 160.87151522696158 L 144.41040517612817 162.72003281941443 L 144.55339162709953 164.4901251327971 L 144.70251151609813 166.29948899701844 L 145.07770887385905 169.59443414960086 L 145.71674109196658 173.06344337434382 L 148.59356164240842 172.56485252409368 L 148.04423936832845 169.17717229571164 L 147.73523262452687 166.01581862016906 L 147.63227731821297 164.2717156875154 L 147.52318857387183 162.48834120402307 L 147.39573785067438 160.63324551522592 L 147.28502515207563 158.9165402803975 L 147.1716884264335 157.32175745044083 L 147.0478668758257 155.8651754994577 L 147.00119211183045 153.55371318782775 L 146.95390260219574 150.66754150390625 Z" fill="black" />
<path d="M 141.73553466796875 156.5911329984665 L 144.3901601398295 156.63696755789985 L 146.26049774340393 156.65559991315394 L 146.46533233472107 153.78836981340856 L 144.482520524233 153.53173361397515 L 141.73553466796875 153.5775681734085 Z" fill="black" />
<path d="M 143.08956751898845 161.22129706085514 L 143.77009030202527 160.94549790990723 L 142.32976321359973 158.18194349634277 L 141.71389927788655 158.58180352508236 Z" fill="black" />
<path d="M 139.17397583668384 168.79739194160192 L 139.93979734444116 167.29486670590305 L 141.31814887636327 166.24565239849915 L 143.34002511587258 164.8391803765588 L 145.5198552576737 163.3117872343658 L 143.8929865392013 160.9706834687592 L 141.71551687631492 162.4712444281287 L 139.63216850644923 163.84248236712585 L 137.58949953055884 165.29570946597195 L 136.51877318675366 167.47177309746058 Z" fill="black" />
<path d="M 155.6879166318143 139.6008638511071 L 154.83214133286333 141.9803822475581 L 154.30317174169807 145.14192560619927 L 153.76456159012338 147.1252279705458 L 152.88491485887945 149.71605712108763 L 151.84460605732218 151.86788198526943 L 155.42786161665057 151.58855257850132 L 156.36292376991258 150.4363157918557 L 157.540162119176 149.20987874358988 L 158.77517455705316 148.09280555955718 L 159.92923042658393 147.1817879255705 L 161.1322392065655 146.39307628100192 L 161.3031844487014 145.82691598937876 L 160.55768168964295 145.89739820783578 L 160.1752583338102 147.32796378200504 L 159.80499820638659 148.98025000965873 L 159.46511200698538 151.00169580987307 L 159.06846258611992 153.54268286289692 L 158.48529201832136 156.6453663986102 L 158.09953145062477 158.12755211325108 L 157.77708440593972 159.73189847828428 L 157.40541820901782 161.3035745882862 L 156.96905845738667 162.828896118094 L 156.46632251406362 164.3957018815035 L 155.98140952464777 166.0295603651978 L 154.95189960218337 168.46388993757563 L 153.84119115891679 170.5150485996215 L 152.70945678075552 172.15964729572403 L 151.21772160377128 173.22768032854054 L 152.85149226341622 175.57871615583446 L 154.78077759424448 174.26942985271347 L 156.42187036452071 172.210415267566 L 157.83191387437913 169.90732588273687 L 159.03506996753973 167.2116505723022 L 159.63047924374888 165.417164329434 L 160.17205482386333 163.8308939209685 L 160.67197436910718 162.1781148648388 L 161.09254450031028 160.47159273265322 L 161.41829081500023 158.89783851174892 L 161.82476657542864 157.3520701248273 L 162.42995049981758 154.12357690272808 L 162.82553740707712 151.53455907293943 L 163.13384456705091 149.60214745127877 L 163.4477885411898 148.07633309299496 L 163.85760151348205 146.22870042497672 L 162.9680557856736 143.12108205749624 L 159.8260127465595 143.60594715649808 L 158.14816215154107 144.6690421525545 L 156.78146606794684 145.73495322950532 L 155.3876943261365 146.99519938141012 L 154.04418072227492 148.3963258097068 L 152.85460908647443 149.89667691368618 L 154.74535976299032 152.77042367879307 L 155.68564178174555 150.84326905078737 L 156.64254290206412 148.0288247638292 L 157.29228724267693 145.78300115161323 L 157.80762917494917 142.7635142368169 L 158.6803695009982 140.7887845863929 Z" fill="black" />
<path d="M 151.52869150136547 161.53116509031216 L 152.6302708914315 164.0303624707344 L 157.2198489071218 165.59295282127812 L 160.08728428157096 166.56774127909526 L 162.90256136773053 167.59175743131954 L 164.3944387304803 168.1462195509895 L 168.59467723057685 169.81731418397368 L 169.87402059991282 170.33859283576726 L 171.51107329793942 171.29997501873424 L 172.68679227092758 172.37838565195662 L 174.70334444782242 170.34707821523088 L 173.35831146768558 168.92304744220326 L 171.43030068914968 167.65725677360774 L 169.93681691004815 166.72711940977632 L 165.6745309960822 164.969869316198 L 164.14150601508197 164.32315956086796 L 161.26708583561654 163.24512493184224 L 158.3367917178782 162.24298467872188 L 154.463845319506 161.0278650683281 L 154.52111318613453 160.49910834718784 Z" fill="black" />
</svg>