<svg xmlns="http://www.w3.org/2000/svg" width="300" height="300" viewBox="0 0 300 300">
<path d="M 124.57793198163291 110.91284545534917 L 121.97932523145754 113.76271160058053 L 125.9079734579153 114.99143305700605 L 127.78581689611882 114.45924668562735 L 131.10967458529433 113.63048041045465 L 133.825761150674 113.05016000206675 L 135.39775929639111 112.79751599478199 L 137.26211971002098 112.40803191115157 L 139.39544984107025 112.01604928673167 L 141.5628110867152 111.6937489836404 L 143.9263900967873 111.29648380576134 L 146.3475751459238 110.972578040602 L 148.89634218390017 110.57574621122447 L 151.43605464393812 110.31712354949326 L 154.31957012397137 109.99525467528618 L 156.72203235556253 109.8610701595171 L 159.14655781867953 109.66360842957816 L 161.47811434869814 109.60414051942048 L 163.7082419552233 109.54320152958815 L 165.71868896484375 109.54337787628174 L 167.8973388671875 109.54358291625977 L 169.3685742406403 109.54306970754487 L 172.67603819673312 109.65045656845133 L 174.17125299827092 110.10746686134291 L 174.30098905947162 110.38508862035697 L 174.25318005551458 113.02450980077572 L 174.0657491519433 114.6410709372756 L 173.55383240714391 116.88454701258111 L 172.9531433694023 119.72025634440239 L 172.63440816631524 121.20090436247642 L 172.23839385880606 122.78813728760201 L 171.89446606326248 124.37181765223045 L 171.4906739920997 126.06054601551168 L 171.16209087867855 127.93927146654971 L 170.83255343483373 129.55449073321853 L 170.6309745639276 131.16535001434752 L 170.363534636919 132.81734428261584 L 170.1629950007548 134.43530598396015 L 169.97013559504452 136.1391938718677 L 169.7031251308955 138.14308064404486 L 169.5822003959958 139.75132553661192 L 169.3920701620049 141.40308084293633 L 169.27588329016612 142.97316633852188 L 169.0889946180609 144.48082362934167 L 168.83274352513362 147.24014500714648 L 168.8638861742597 148.50117591788026 L 171.65557074546814 147.8272705078125 L 168.74848198890686 147.8272705078125 L 171.5401665601153 150.30644126961974 L 172.11147034205388 147.61361475847852 L 172.3953803819391 144.84254062847083 L 172.60460987389638 143.32224381772812 L 172.7404981973701 141.73925314143867 L 172.9464861274417 140.08778579151308 L 173.0776365878545 138.51793009814264 L 173.35078725651798 136.5679594484448 L 173.5540460148702 134.84350260978985 L 173.7496245427685 133.30838813925916 L 174.0223457485724 131.65715975127748 L 174.21688504172877 130.11494286053147 L 174.53554095725895 128.5770859553253 L 174.8551512032128 126.75219812511332 L 175.24359546017502 125.13770383214455 L 175.58387176619394 123.56830802489799 L 175.98009378680976 121.97744036408608 L 176.3095519430977 120.43013428059761 L 176.89721739754359 117.61032603429389 L 177.4296121761817 115.2242855080369 L 177.63829943667292 113.16225777734928 L 177.59049043271588 109.74577075464303 L 176.02772161110408 107.37080462303209 L 173.16563660795438 106.37639890029867 L 169.4510058374847 106.23354162058013 L 167.8973388671875 106.23302841186523 L 165.71868896484375 106.23323345184326 L 163.6599221072767 106.23340979853685 L 161.38870694036436 106.29759287901702 L 158.96684550163297 106.36324703917184 L 156.49391002724997 106.5661759342329 L 154.03492206352863 106.70725997315132 L 151.08469730918688 107.03602586456924 L 148.47487363641233 107.30291589815053 L 145.8741045415762 107.706865318773 L 143.4338393954002 108.03359431923866 L 141.0440004367223 108.4371103913596 L 138.85406187767975 108.76544485389333 L 136.63009220404152 109.17424347947343 L 134.78534617235889 109.56051623178051 L 133.188399005576 109.83338491980825 L 130.35883127408067 110.45423638642035 L 126.94868017419368 111.32713026749765 L 125.2614601358347 111.84596928674395 L 125.08488375291746 113.60020343848197 L 126.44745864336709 113.17187134152583 Z" fill="black" />
<path d="M 125.5126953125 148.22014379501343 L 123.80127832832365 151.23965235632645 L 126.64486176069708 151.22086168172757 L 129.46321249523132 150.64098855671008 L 131.09858757461168 150.402432950854 L 133.00317429792585 150.15054557796466 L 135.04504532095967 149.897386262266 L 137.2669934364258 149.7672213831941 L 139.81221866401495 149.70580359928246 L 142.563834482329 149.6436047863854 L 145.58868408203125 149.6455513238907 L 148.28948974609375 149.64724242687225 L 150.936279296875 149.64724242687225 L 153.385009765625 149.64724242687225 L 155.689697265625 149.64724242687225 L 157.994384765625 149.64724242687225 L 160.56915283203125 149.64518892765045 L 162.62176513671875 149.6432739496231 L 164.60235595703125 149.64007472991943 L 166.6377175634722 149.63189983604357 L 168.51452849951855 149.3327737032921 L 170.19406681021078 149.00031362948926 L 172.0267139069062 148.63824331282223 L 174.3089981321338 147.852831588623 L 177.22297361247232 146.0240502257866 L 174.00438675751286 143.89312747195646 L 172.07233254256244 144.09452280032824 L 172.18486960587506 146.95552602779676 L 174.06995406279964 147.00677487179354 L 174.16435548909018 144.8758521179634 L 173.1171493288037 144.7737553254395 L 171.1501659759063 145.43975961686527 L 169.56179256478922 145.72832406582324 L 167.92834259423145 146.0464987576454 L 166.3841330224653 146.29790973426893 L 164.60235595703125 146.28973484039307 L 162.62176513671875 146.2865356206894 L 160.56915283203125 146.28462064266205 L 157.994384765625 146.28256714344025 L 155.689697265625 146.28256714344025 L 153.385009765625 146.28256714344025 L 150.936279296875 146.28256714344025 L 148.28948974609375 146.28256714344025 L 145.58868408203125 146.2842582464218 L 142.527718252046 146.2862047839271 L 139.73367977348505 146.34912804134254 L 137.1293688682617 146.4128323277434 L 134.74194198372783 146.557936003359 L 132.57055617082415 146.83028938297284 L 130.62199348007582 147.103914705396 L 128.83634805164368 147.39087179485242 L 126.25308745805292 147.98714613077243 L 123.55101659355135 148.11850194054855 L 125.5126953125 151.13801050186157 Z" fill="black" />
<path d="M 126.4880121976676 146.61852869404498 L 124.22249225474917 147.35474055693754 L 123.345428013402 149.8300508477038 L 122.97479698773924 153.37281318423967 L 122.91244794870192 154.98356122527446 L 122.76154614206109 156.87596587532735 L 122.62902529024407 158.8246088331662 L 122.55343438393983 161.00815299760652 L 122.42334492436737 163.2972127276976 L 122.29204635107716 165.7982682426228 L 122.14423620024745 168.36311067182208 L 121.94208154807104 171.39693684638448 L 121.81198945718035 174.0527193166054 L 121.68214901092792 176.7358547433781 L 121.48157166442157 179.49676588319878 L 121.33530823323181 182.2606920076374 L 121.13547582033372 184.9502220397071 L 120.93332030616182 187.86253095723364 L 120.80307488832297 190.0014677735475 L 120.72700968883574 191.9188695807312 L 120.59318620395193 195.04893712002539 L 120.61075333008263 197.77112969404214 L 121.44762221201863 199.86108442029766 L 122.86918228252719 201.39953460413517 L 124.61604440408172 202.57405201001103 L 127.14526321550551 203.28460701196687 L 129.17901559912772 203.44885934248188 L 132.49592081830647 203.44864758744254 L 136.58467537969864 202.37292306470937 L 138.29871110270946 201.92955402088043 L 140.01639514282007 201.6213221319112 L 141.84922024464333 201.29906028037988 L 143.83415337700345 201.1204908512647 L 145.9591628875588 200.9254768722713 L 148.13909648317474 200.8672324252277 L 150.7645559111969 200.79505927446166 L 152.9168701171875 200.79533755779266 L 155.16754150390625 200.79533755779266 L 157.47222900390625 200.79556238651276 L 159.92095947265625 200.79579997062683 L 162.4237060546875 200.79681766033173 L 165.196533203125 200.79807889461517 L 167.37518310546875 200.7978982925415 L 169.4818115234375 200.79771256446838 L 171.73555321453978 200.79521793185395 L 173.8492380449752 200.60274275497775 L 175.80955692077757 200.46743863888702 L 177.87078245327248 200.33122653271494 L 180.60501066535429 200.06842962527782 L 182.6954014253879 199.88280960375633 L 184.63687325356875 199.72459067176536 L 187.73654263892993 198.3413249225341 L 187.93948143605328 194.41019932156217 L 187.46164847679432 192.1218233584347 L 187.0653536854666 189.93520428245213 L 186.70643803126168 187.7206844146778 L 186.53498226439532 185.87607717820657 L 186.33787479277356 184.25983897320077 L 186.186930997185 182.05143099805463 L 183.2777906825025 182.14498013475787 L 183.27088985566394 184.41594227679923 L 183.32585757935468 186.10292672804343 L 183.40647700780082 188.0870548431347 L 183.7317654551584 190.47702716286037 L 184.12770699195568 192.7697782040653 L 184.55014258738422 194.71052821750033 L 184.75308138450757 196.7101887493409 L 184.03561209799375 196.37794839073464 L 182.4120204496121 196.49499801343117 L 180.28915437370821 196.68474420284718 L 177.58576051547752 196.94745999072256 L 175.57777218078493 197.08651643923798 L 173.5769094159623 197.22648087783475 L 171.58536963702272 197.40937191189605 L 169.4818115234375 197.40687727928162 L 167.37518310546875 197.4066915512085 L 165.196533203125 197.40651094913483 L 162.4237060546875 197.40777218341827 L 159.92095947265625 197.40878987312317 L 157.47222900390625 197.40902745723724 L 155.16754150390625 197.40925228595734 L 152.9168701171875 197.40925228595734 L 150.7118845184906 197.40953056928834 L 148.04376484495026 197.4875039028973 L 145.7583664093162 197.5543815261662 L 143.52607611518405 197.7597581721728 L 141.40578463816917 197.95655495399512 L 139.42147106811743 198.3099522821513 L 137.57409163166554 198.65235515880707 L 135.72306387811386 199.13488943529063 L 131.99748738481853 200.16121569380746 L 129.26458791649728 200.16100393876812 L 127.73327682355699 200.07501212865813 L 125.90519583029328 199.58439525561397 L 124.98726302997281 198.93213043492733 L 124.17615708485637 198.09326128282734 L 123.82467147460487 197.28038397783286 L 123.84223860073557 195.12281580966211 L 123.96049031116426 192.0468286614563 L 124.02846808042703 190.16051953114 L 124.15029785790068 188.07033037089136 L 124.34426050779128 185.1769752259179 L 124.54054625895569 182.4612318204876 L 124.68236876526593 179.69476243711372 L 124.87790958282208 176.9252780691219 L 125.00014433188215 174.2031400583946 L 125.12212743630396 171.57877116142802 L 125.31609094819005 168.55668913286542 L 125.45636673486034 165.9665022651897 L 125.57714335688263 163.4626749676149 L 125.69912909262267 161.14724251020598 L 125.76758115506843 158.9765386277713 L 125.88713549856391 157.09644623404765 L 126.02431962942308 155.16011553253804 L 126.07000281694826 153.61778740169783 L 126.383575892848 150.3038602851087 L 126.40678020618833 149.47594791962496 L 127.2021733492074 149.43640294658002 Z" fill="black" />
</svg>