<svg xmlns="http://www.w3.org/2000/svg" width="300" height="300" viewBox="0 0 300 300">
<path d="M 122.83249017920058 136.85772314816012 L 121.22681718869406 136.94158276873947 L 122.14038331790088 138.85114061568962 L 124.43027603280207 138.29488510189645 L 125.87897143137798 137.82279774333492 L 127.46318407940849 137.42085950594847 L 129.1601312159411 136.87690598891615 L 130.79723171922925 136.33697593353654 L 132.68516804825686 135.70393346244478 L 134.23104311716685 135.0734039673641 L 135.80885221698588 134.45367047502478 L 137.39231457228433 133.77297609176958 L 140.00240820989362 132.2278305991127 L 141.45308057425282 131.05530384787752 L 142.75057299444273 129.26089171722344 L 140.43302075555727 127.59787293121406 L 139.35319383980968 129.11644908180998 L 138.42654686823138 129.7804701821373 L 136.03175769334067 131.15219480666792 L 134.71238801738912 131.65985491560022 L 133.13712094533315 132.2284759154484 L 131.65504191268064 132.78630091255522 L 129.83936496045825 133.34161293365096 L 128.1982672215589 133.84599440170885 L 126.59199170184151 134.34635240811403 L 124.99810376393452 134.73665049885258 L 123.56899154532293 135.20084243716605 L 121.10424558834912 135.83294141556038 L 119.11497968630594 139.18292895001053 L 122.51418950829942 139.80694970340238 Z" fill="black" />
<path d="M 132.9893457474294 116.37613126748447 L 130.90868228987807 118.22817084259755 L 130.6635209958807 121.83295808769515 L 130.59825201944284 124.1336787431344 L 130.45812515243313 126.91757429876202 L 130.39292527961712 130.29564924215586 L 130.26773232569514 134.20565764177144 L 130.19276806526202 138.63200327087205 L 130.13164756067172 143.4514362590439 L 130.0078962182098 148.73650033945898 L 130.00947188762007 153.24470306944096 L 129.93840062982412 157.45669390204796 L 129.94284985010805 161.22103849158478 L 129.89177216152387 164.6423074813064 L 129.8375122971147 167.53922124346053 L 129.78894598476305 170.55061337833754 L 129.66847087732393 172.3250965413758 L 129.423426955456 175.41637072355974 L 129.24180900866156 177.46924246760796 L 129.572087700317 178.442202094882 L 129.83696564050908 177.55173136612686 L 128.84074035505412 174.82100821262387 L 128.24577925935284 173.0524635064161 L 127.52709245881299 170.95619575183767 L 126.94714188548605 169.11031054839063 L 126.3651976118682 167.3201911044766 L 125.8348029432263 165.64989145331808 L 125.32251788058225 164.09683842280884 L 124.46847215841855 161.66729684693212 L 123.86069793160814 160.14310238060668 L 125.6676290616294 159.66003132791963 L 127.5415839679937 158.47385452342004 L 128.76562060064046 157.63950410483972 L 131.57914404858093 155.90442559565454 L 133.77064050819868 154.4395858400113 L 135.0274433410636 153.59717185473724 L 136.48413355955984 152.71482326711197 L 137.9355562492378 151.75559845829582 L 139.65685981794002 150.69843540376203 L 141.07473796192392 149.741227356154 L 139.48129231151358 147.3775470579085 L 138.12146049455998 148.29289760405047 L 136.4144193366997 149.32435759639168 L 134.96300999512766 150.23769138132553 L 133.5168681823739 151.04784767651276 L 132.14610753867632 151.7899063474887 L 129.85823388110657 153.09789374028296 L 126.99121533685955 154.81984648109778 L 125.7128105632563 155.67800094532996 L 124.0332986727456 156.76050089864287 L 120.96046906057936 158.76217105689332 L 121.52884229470645 162.53155569213038 L 122.52660321316775 165.10750728031616 L 123.0653435411487 166.57935659355692 L 123.6109986771943 168.2220452236484 L 124.20520186451395 169.99698925629687 L 124.80139875212451 171.86021049816233 L 125.53412796720967 173.9771995795214 L 126.14033874650839 175.77371834987613 L 127.24616424230344 178.84072468856064 L 130.0134835887455 181.4072852098055 L 132.19556892102594 178.27502022770454 L 132.539463669544 175.71851697175276 L 132.81993244298857 172.5799327554992 L 132.97472589023695 170.68132021541246 L 133.0512816481978 167.60689692060197 L 133.12214385410113 164.7060811905686 L 133.19618823582945 161.24929842247772 L 133.20063745611338 157.48739789482704 L 133.27971268269243 153.27287505555904 L 133.2812883521027 148.77839223866602 L 133.40778115026578 143.5123088581436 L 133.47178271598798 138.68086294006545 L 133.54696493992986 134.28457673322856 L 133.67201612663288 130.38025407815664 L 133.73193832412937 127.02432023248798 L 133.86708001180716 124.2625614912406 L 133.9269331056818 121.95390714667985 L 133.95704036637193 119.36484673552745 L 134.9043310103831 118.55209138876553 Z" fill="black" />
<path d="M 150.950927734375 125.32395768165588 L 149.3151998572198 125.84495945947462 L 150.78326292549983 127.0011049359617 L 153.40916689658516 125.73943623439166 L 155.03641196394616 125.12907305309085 L 156.79894859794967 124.46429111796333 L 158.59188343650533 123.80991571881658 L 160.357921983678 123.28199603920585 L 162.24027498455564 122.61064873693824 L 165.06562682454665 121.82619249489728 L 167.285489903425 121.28036971271915 L 169.1513141772781 120.89462594714125 L 166.99001227325974 118.23637809398707 L 164.78215781997199 118.79998580374442 L 165.47235878159051 121.56585892281808 L 167.59372796111526 121.04914436695043 L 168.4854045727219 117.88674612317125 L 166.647615565325 118.14919571696835 L 164.26298645670335 118.64768445822772 L 161.28267423419436 119.44770087243676 L 159.3362918835095 120.10875103110665 L 157.54886363380717 120.62514287493342 L 155.63818519111283 121.30316493672417 L 153.84725502824134 121.97078046253415 L 152.04615536903984 122.65680399998334 L 149.14166383231267 124.0599302202883 L 146.6558694787177 127.84485987646288 L 150.950927734375 128.36586165428162 Z" fill="black" />
<path d="M 152.9030566561228 123.98187535532898 L 150.04375309614656 125.8107342630038 L 148.96289543406488 127.86335647337994 L 148.37520447200455 130.15755936828117 L 148.04267682426658 131.6944456402507 L 147.57384699333593 133.6980256586948 L 147.1068664567092 136.14568787695146 L 146.5202648406574 138.98323091773946 L 145.8580954112983 142.28217817791486 L 145.07501819177247 146.20247638547642 L 144.41954213634295 149.76812894436105 L 143.7030890837783 153.3346422554586 L 143.06616881258572 156.82676912147392 L 142.42766358201757 159.9704039808213 L 141.78247922331306 162.9607270321251 L 141.22035827588886 166.0883490513374 L 140.84199127843266 168.20955015012245 L 140.59435136252276 169.85482867925518 L 139.6983216724898 171.73973692932614 L 142.4342466868852 173.05726014098636 L 143.51514570778974 170.83694378168232 L 143.91814055750484 168.77311586550255 L 144.34055481004864 166.6810601283501 L 144.95458132356194 163.6148344913124 L 145.63569091016993 160.6633850816787 L 146.32347962491428 157.46912931602608 L 146.9878288849717 153.9751721976664 L 147.72279184803205 150.41155855563895 L 148.39360973791503 146.84708416139858 L 149.1870706043267 142.95305131427264 L 149.8511951202801 139.66203275413554 L 150.4407409651658 136.80987852929854 L 150.89966374885157 134.3960905522427 L 151.35673723823342 132.4384889300618 L 151.67484435612045 130.91446211609383 L 152.13817878468512 128.85136520630758 L 152.25849299760344 128.0231280416837 L 154.5291943204397 126.39495569935852 Z" fill="black" />
<path d="M 150.39202124233404 144.2332655807804 L 150.46009358077984 141.799625460971 L 151.4271720465194 141.28747981002397 L 153.14331486872646 140.48314978902877 L 155.6703327404596 139.37322854518587 L 157.25280189245288 138.7744755896286 L 159.01316606728378 137.95736959883803 L 160.55976133346525 137.24192197420908 L 162.10462478699247 136.58310269161404 L 163.60730065652453 135.98095718196154 L 165.6907010083447 135.07479079524313 L 167.57457566276943 135.31344837335473 L 167.93506789191807 132.24050670477027 L 165.2144503588428 131.93900315006937 L 162.41808996847547 133.01342758366346 L 160.89281173644503 133.59963656619846 L 159.25957460403475 134.27321474454092 L 157.65309369834122 134.99819680741197 L 155.98511314660962 135.7655634728714 L 154.4145061267279 136.35516500950163 L 151.78649470158604 137.51392052347123 L 149.6739021722306 138.54613835403853 L 147.48790446609516 140.662776882779 L 147.43085473422846 144.1709092239071 Z" fill="black" />
<path d="M 148.51231006249347 150.0740412604623 L 147.59157388845134 150.97471322425093 L 149.0124957762459 151.93357532588584 L 151.06301540019018 150.59071318427996 L 153.53964740390973 149.13803880498028 L 154.8693061866599 148.5321366460697 L 156.34360861888766 147.8935196579086 L 157.94652125054705 147.23787993017535 L 159.60522310405764 146.627113455779 L 161.49980487243502 145.81623416768517 L 163.08055919704975 145.22086391761601 L 164.64096991822655 144.67859463931325 L 167.4196280464496 143.72358842704122 L 170.26597355129547 142.88240067351242 L 169.47279597995453 139.97611983430008 L 166.5134774223004 140.71940473702128 L 163.63661797239845 141.63695711849925 L 162.01892810763775 142.13899936363399 L 160.29645977600248 142.73198360575233 L 158.38733060687986 143.5055769739085 L 156.74280980414045 144.08316499169965 L 155.04249977954984 144.7599227249039 L 153.4888481102151 145.4176924554928 L 151.91567486171527 146.14418775751972 L 149.26230198262232 147.71641572197004 L 146.9585735596916 149.29042369755166 L 145.22641927561116 153.16615591637407 L 149.16041942969403 152.9865056145377 Z" fill="black" />
<path d="M 157.08820271664797 144.78036914862327 L 154.95182437693254 146.16593991609923 L 153.43214819243846 147.75281662222105 L 152.83981576408837 149.71420411302614 L 152.61998725727514 151.55090414194558 L 152.3544674090867 154.09905005713185 L 152.09172990276213 157.26779151523596 L 151.89711025134108 159.05446764442934 L 151.6350331045272 160.96217774611205 L 151.37087386551028 163.31343116176814 L 151.1828795569119 165.2589128491726 L 151.04648955101112 167.25882376755996 L 150.9109205292009 169.11276806611596 L 150.78418553547462 170.92188580368804 L 150.71718839888058 172.5428640199684 L 151.4518125702501 176.5948597167565 L 154.64422849194963 173.76634811829354 L 155.63192253506844 171.98251898361255 L 156.81927632951246 170.02879571485607 L 158.73893031682468 167.399108655638 L 160.27123539784535 165.4359875064353 L 162.25913827011192 162.90505627090334 L 163.54369992516763 161.21085223191193 L 165.1812389214245 158.76024062131034 L 162.821080414513 157.12013047243966 L 161.15539675451987 159.42293683058807 L 159.81239493301308 160.89767810409666 L 157.72131831309215 163.3722400326272 L 156.07552280817532 165.3703005240495 L 154.04131937361254 168.14222479295643 L 152.72623176180656 170.29372613357495 L 151.61187502367537 172.32703567076896 L 153.0776063750624 173.747791650431 L 153.96237703080692 172.6502512144066 L 154.02050196452538 171.10228411818696 L 154.1440111114241 169.34633837919654 L 154.28371064430138 167.49117623244004 L 154.4225891930881 165.5299055102024 L 154.60996109542722 163.65824852573186 L 154.8713145517228 161.36411619920045 L 155.13475010022142 159.45468762900816 L 155.34052107380037 157.56826805507654 L 155.6032962627883 154.39911888818065 L 155.86328910991236 151.90576089711692 L 156.04385122809913 150.32144041822386 L 156.25230004974904 149.36595779184145 L 156.95979671681746 148.57612551358827 L 158.77727579897703 147.18886913262673 Z" fill="black" />
<path d="M 163.43590455499015 148.95006234537422 L 161.9766472479876 150.7380458095647 L 161.73017725164257 152.9719993570707 L 161.95933743709412 155.4218332147339 L 163.14992813295044 158.21830971787517 L 163.90529356460104 159.8716495322942 L 164.7214166567562 161.3727532749041 L 165.59918259346745 162.93435348917257 L 166.56611673154222 164.49086976864854 L 167.58282535551362 166.02975543913817 L 168.59161740024174 167.50359406569711 L 169.80893817690924 169.21537034477927 L 170.81206902645962 170.58099313912075 L 171.83902455327265 172.04895206717455 L 173.73633719943896 174.53140552370908 L 175.51959039385238 176.57698353050455 L 177.09854510009188 177.51666578648002 L 178.58077618897062 175.05865159633248 L 177.53216741864762 174.41386119605795 L 176.13732002712354 172.64230053097842 L 174.35604380610235 170.22729305001295 L 173.40607062197788 168.77838186087925 L 172.43227276059076 167.37117750678323 L 171.27227420132076 165.66193327805289 L 170.30413753511138 164.21890178742433 L 169.34391744814528 162.73288511416396 L 168.45904494559505 161.26449904988993 L 167.6351507260563 159.7651861782209 L 166.87473573227396 158.3854305458308 L 166.17868514829956 156.86982504774983 L 165.11707857853088 154.5167654180786 L 164.94584813898243 152.8613746663668 L 164.8495246270124 151.9263829013728 L 165.74256224188485 150.83350699056328 Z" fill="black" />
<path d="M 180.45248828689498 155.63296213537163 L 179.06933134972425 154.75581202753244 L 176.7250366597865 152.63792828371464 L 173.69468353516297 152.54991479894153 L 171.93736941882833 154.52264243981793 L 170.6780039279737 157.20623809444703 L 170.01119350593456 158.83887122787493 L 169.28846489247957 160.37911395623007 L 168.61673558849168 161.99910758244795 L 171.24715601307082 163.10001351130205 L 171.90172065439543 161.55106182501993 L 172.63040805656544 160.06640220962507 L 173.4150136501513 158.53009003055297 L 174.65808956554667 156.20819252111957 L 175.12794830077453 155.55213598230847 L 175.150573691776 155.57215472409786 L 177.13550263465075 157.30742039434256 L 178.93044628341752 158.26681813806587 Z" fill="black" />
</svg>