<svg xmlns="http://www.w3.org/2000/svg" width="300" height="300" viewBox="0 0 300 300">
<path d="M 132.5476870806625 117.35159726200443 L 132.56251322145891 120.00674267196705 L 132.99447372232663 122.96815071341675 L 133.21359259072304 124.73168447364705 L 133.41914058536776 126.47828054366951 L 133.55466680632458 128.23387645847816 L 133.70770733473577 129.91988053488495 L 133.84120845044023 132.77011582453963 L 133.85802233219147 135.440185546875 L 136.72120130062103 135.440185546875 L 136.73801518237227 132.70498183171037 L 136.61944110276423 129.74955305886505 L 136.48439569367542 128.00721240870934 L 136.36784671931974 126.20934152664299 L 136.17727654990196 124.40247079979045 L 136.00027725423587 122.58751334908325 L 135.64000142697859 119.74325732803295 L 135.510784599025 117.26839785518307 Z" fill="black" />
<path d="M 135.44155624267438 117.56122344501378 L 136.42593097834455 116.73844955115747 L 138.18596724317655 116.48038305189239 L 140.05615149214705 116.37118465626462 L 142.8878270566468 116.23636915693835 L 144.39002469275718 116.17044630911975 L 146.0426389639113 116.10117177464102 L 147.78547523521112 116.03108612180878 L 149.5500905287876 115.8890092604676 L 151.20634883618897 115.74745686836815 L 154.52858628279753 115.4162934120339 L 157.06152392762507 115.15484584625443 L 158.858642578125 115.09887075424194 L 159.57816663144808 114.68834179636283 L 159.26693821574597 115.57136426444735 L 158.8771950808945 118.32392855937813 L 158.74308579781976 120.28855886101749 L 158.74941885471344 122.51507568359375 L 158.76428389549255 125.01751708984375 L 158.78734919705263 127.58157429112428 L 159.22220983145115 130.12750971158087 L 159.70497174172004 133.13146228362214 L 159.93885543422525 134.93021998920617 L 162.78392288608725 134.62385715923133 L 162.62168841452996 132.74402599762786 L 162.20418177011135 129.66704595248163 L 161.84680607638487 127.33322063075072 L 161.86987137794495 125.01751708984375 L 161.88473641872406 122.51507568359375 L 161.89106947561774 120.38734445929501 L 162.0090353878555 118.67338589374687 L 162.41152858112903 115.74540819649015 L 161.84822497011442 112.54945117238717 L 158.858642578125 112.01380014419556 L 156.83862255674993 112.08294712249557 L 154.22202406876497 112.3470122520286 L 150.91828495287353 112.66648356131935 L 149.2975657212124 112.8001997239074 L 147.60514976478888 112.93339141725372 L 145.9269655282762 112.98842783473398 L 144.26659151818032 113.04427537056775 L 142.7438868105407 113.10347459306165 L 139.88586510941545 113.24392764842288 L 137.79486771776095 113.38497339342011 L 135.19760417790545 113.92768814415503 L 133.55319473388812 115.35711151592372 Z" fill="black" />
<path d="M 137.895771346001 128.7567093818729 L 140.4720589467535 128.5033072497153 L 143.17035147808127 127.9593803901275 L 144.6361902868122 127.68503154594742 L 146.41152531513842 127.40848996225796 L 147.97956623696743 127.133412718347 L 149.546302380845 126.92157418791435 L 152.25169329152632 126.52920387034163 L 155.35552922015535 126.3813197608252 L 155.23162898296965 123.5285923485498 L 151.99757428659868 123.65597679372087 L 149.157310900405 124.03936331208565 L 147.55510173178257 124.227915406653 L 145.95419734111158 124.47835085805454 L 144.1644688928753 124.72732196967758 L 142.60540535785623 124.97848582081 L 140.0101187876215 125.4855843518472 L 137.5809132243115 125.75769491500209 Z" fill="black" />
<path d="M 136.47796630859375 137.26979291439056 L 138.73310373382884 137.35387382151114 L 141.68082947320846 136.88053298576003 L 143.38625796495654 136.61591270106962 L 145.4384876143653 136.28360055817814 L 147.6022559214326 135.93864064390596 L 149.88814310715824 135.60191542565082 L 152.32476573737796 135.25790017770538 L 154.35448350491063 134.979764150944 L 156.224638486166 134.76403434635117 L 159.28395641929157 134.4841549348427 L 162.02755723767004 134.313022770461 L 161.88357557482996 131.412319026414 L 159.08152209633343 131.5164554167198 L 155.946992373209 131.76208870052383 L 154.00000868258937 131.946749520931 L 151.92450184074704 132.19412618948212 L 149.46366353346676 132.50074570716168 L 147.1401757191924 132.81465525453154 L 144.9466442215722 133.14535451994686 L 142.89364926160596 133.46367714268038 L 141.17805724554154 133.72456955330247 L 138.43608571929616 134.17713203786386 L 136.47796630859375 134.26121294498444 Z" fill="black" />
<path d="M 141.86962517908435 135.80190735768514 L 139.74366979485114 136.2207723677405 L 137.83677343887257 137.81900152431277 L 137.2541351172096 140.06436179128468 L 137.07763325047304 141.92600948008237 L 136.46573786944887 145.4613652049036 L 135.53089618488346 149.12898284487963 L 134.8536045721143 151.203170230734 L 133.91984481989834 153.444496739865 L 135.29316197112036 155.19732443227508 L 136.3293630681967 154.61452931404497 L 137.71742418521868 152.64656673340272 L 138.63803229749993 151.5797730874523 L 139.97155803274123 150.22630072373775 L 141.25956413056596 149.40512435888178 L 142.80123686223257 148.52782811863054 L 144.7853211801659 147.83247179728673 L 146.6275700829994 147.41215713615736 L 148.82367921561703 147.02448194969116 L 151.28344313102173 146.63497138557824 L 154.0790154570476 146.10548280635328 L 157.84981205968987 145.38706897518784 L 160.11594611988855 145.13293973954126 L 162.1597637225832 145.0000834091435 L 163.5094914118077 144.99715591154796 L 164.5162579669023 145.0464246352196 L 165.0693935176992 145.6322114442516 L 165.57926021773514 146.88193221559084 L 165.91030902254928 148.3473580981862 L 166.01572437819712 149.67131103771 L 166.08615426700578 152.84816247179626 L 166.08607482910156 156.861083984375 L 166.0881781578064 158.4376220703125 L 166.090500831604 160.2894287109375 L 166.09129977226257 162.00360107421875 L 166.09129977226257 163.7177734375 L 166.0937109231787 165.4625282511264 L 166.02709641834142 167.2782195321513 L 165.9803829518093 169.03267484563003 L 165.8518938477221 170.6495904039679 L 166.35838870947663 171.9517139023437 L 167.67838973726325 170.85441511650447 L 166.70970315517388 168.69347752284503 L 164.07948141513862 169.80286036777997 L 164.94734268461175 171.99617082099553 L 167.85181636864837 174.7276073867188 L 169.0065045897779 170.9998236585321 L 169.1661014231907 169.21341890436997 L 169.22742018322108 167.3893830069112 L 169.3048486471338 165.5264854207486 L 169.30725979804993 163.7177734375 L 169.30725979804993 162.00360107421875 L 169.3080587387085 160.2894287109375 L 169.3103814125061 158.4376220703125 L 169.31248474121094 156.861083984375 L 169.31240530330672 152.81614416882874 L 169.23879222336538 149.53669677479 L 169.09213238370072 147.8326956127513 L 168.63094486038986 145.86977676878416 L 167.7003818729258 143.8162748838734 L 165.8768084393477 142.1748888413429 L 163.7146296819423 141.82376694001454 L 162.0394550274168 141.820839442419 L 159.83400505198645 141.96325166670874 L 157.34672114343513 142.23463512637466 L 153.4832404023274 142.96763731083422 L 150.73315843147827 143.48917412223426 L 148.29546140938297 143.87542039405884 L 145.9902277685631 144.28852645759264 L 143.8712950307716 144.79411511677577 L 141.49807954401743 145.67529688136946 L 139.61873176787154 146.77492935205572 L 137.98986774850877 147.93068169813725 L 136.44253410875007 149.6051634359852 L 135.38255140071882 150.91568912597228 L 133.8537424005533 153.17685252189253 L 132.90935267731714 156.79815896616242 L 136.51533584416416 154.72225130701 L 137.5621669122607 152.2339635583285 L 138.36131572917904 149.95390289730787 L 139.40706486492613 146.1141963185339 L 140.09155620265196 142.39247196523013 L 140.3111724999779 140.57553078684032 L 140.52077050643993 139.39254632724973 L 140.99058313483636 139.0138467728845 L 142.42969122716565 138.75705260325236 Z" fill="black" />
<path d="M 150.8642578125 146.6562259197235 L 148.74578773365388 146.63653142789968 L 146.191962330455 147.1975977175533 L 145.0246352349853 149.94336481636904 L 144.82162315707106 153.26548153536046 L 144.0959388911294 156.44497152908303 L 142.8230994115791 159.61183743227068 L 141.31477128674123 162.27088821222705 L 140.22310283038556 163.53968053068684 L 142.38370869305194 165.47240443025066 L 143.77678144763377 163.96348678777295 L 145.5814416040459 160.96701998960432 L 147.0814292729331 157.40231850997947 L 147.94021766324144 153.72511905057704 L 148.1333237493897 150.46581487113096 L 148.2983941148575 149.5079686886967 L 148.91351402415862 149.66864435335032 L 150.8642578125 149.6489498615265 Z" fill="black" />
<path d="M 155.44939728886496 149.9013379246813 L 156.14997495594298 151.10049460817064 L 155.59909386676563 153.0708974834047 L 155.1134951878341 154.6039223725566 L 154.46773570567152 156.33279237440976 L 153.69925535425543 158.32900500398 L 152.72317848234226 160.55588589777076 L 151.750709268256 162.91985368390098 L 150.67254724736318 165.25021334370138 L 149.45548332346618 167.72480248362038 L 148.47176768386595 169.5885077424011 L 147.5694157897811 171.09085138176647 L 146.01298864829246 173.31925792928493 L 144.81644029161097 174.65546617470142 L 146.90108900526403 176.62834730186108 L 148.33332482827004 175.18684558634007 L 150.0898859680314 172.81075994635853 L 151.16812489425905 171.1600274138489 L 152.27303230153382 169.19499732106712 L 153.57672033076182 166.66470364848612 L 154.731224325494 164.24042463641152 L 155.73934593172024 161.84975375066674 L 156.74385988011957 159.59726452727 L 157.55985218495348 157.51449766465274 L 158.2464901637284 155.6899008696309 L 158.80520300823437 153.9197031025328 L 159.44267641124452 150.76010109495436 L 158.05463103144754 148.3807665675062 Z" fill="black" />
</svg>