<svg xmlns="http://www.w3.org/2000/svg" width="300" height="300" viewBox="0 0 300 300">
<path d="M 125.43497222070458 127.88306355271486 L 124.03436566384246 127.17331242840388 L 123.97177342593412 126.52203263178967 L 121.64266880026216 126.06308245724202 L 121.58723028203535 127.49758242895957 L 121.64771781909049 129.29322253440355 L 121.70425960733061 131.69072359285215 L 121.7074944972992 134.5142822265625 L 121.7103875875473 137.742431640625 L 121.71320247334798 141.09635550566435 L 121.66405242245301 145.0584031839129 L 121.40210558554774 148.8706579773887 L 120.94207854713275 153.1129282622464 L 120.42703783298758 157.51065007256582 L 119.84506131075317 161.90959780755654 L 119.26391660424626 166.05480791193267 L 118.68952220721503 170.0710996831111 L 118.31069914017101 172.77597001055975 L 118.004007573613 174.94794459474258 L 117.7412708123249 176.7312601915079 L 117.54843771457672 179.533203125 L 120.67387819424609 177.63537498277034 L 121.17617189044152 175.0577593822701 L 121.7151814233052 172.0644894622189 L 122.23774314916916 169.0881993191951 L 122.70551383074218 166.2598271435979 L 123.11008986713786 164.01031223046112 L 123.58374899534826 160.99004453799847 L 123.54426332285234 159.74760949933435 L 124.658971939885 159.61021499207857 L 126.4777573678718 158.59228048717335 L 128.61065460847624 157.33099421902182 L 131.08835389098076 155.79855423718266 L 132.46738906605987 154.870671103196 L 134.82462173592558 153.4252311301805 L 137.88587424124378 151.5129290238937 L 139.80127827253574 150.38719255824003 L 140.96992431785088 148.6706106615344 L 138.46794189308662 146.9839303540906 L 137.76402934465176 148.04505841832247 L 136.25841286813122 148.7461041792313 L 133.12581771719942 150.662537424507 L 130.72963241831513 152.1199294827415 L 129.33584044495674 153.04385298937984 L 126.91607878996126 154.53936710910318 L 124.8357191946282 155.78052224720165 L 123.197473372615 156.73951645323393 L 121.03520445058516 158.05353796160315 L 120.70763284058924 160.63983827450153 L 120.28102341411214 163.55035671485138 L 119.89336312238282 165.7802119189021 L 119.42485450708084 168.6073573214299 L 118.9031047095073 171.5618533112186 L 118.36179197674598 174.5243939380424 L 117.81977414950391 177.20190529066716 L 120.54909646511078 179.533203125 L 120.7523815314251 177.0549946913046 L 121.0298059029495 175.40996556150742 L 121.37130769576649 173.22769209881525 L 121.78472095684747 170.5272889887639 L 122.39868105200374 166.51074384587983 L 123.00589083768433 162.34784848150596 L 123.61226880763742 157.91317805243418 L 124.14153961692975 153.4772816986911 L 124.61779187538976 149.1612023741738 L 124.89600617129699 145.1908643942121 L 124.95488834696452 141.12007515839815 L 124.9577032327652 137.742431640625 L 124.9605963230133 134.5142822265625 L 124.96383121298189 131.65729886808535 L 124.91234077465951 129.20006359840895 L 124.82878534296465 127.01682186791543 L 123.58499233255034 123.44643902713298 L 120.85976954281588 126.81622420414783 L 121.84148882834504 129.19289850909612 L 124.00594574804542 130.46007609572263 Z" fill="black" />
<path d="M 114.09199860582316 150.1244638140048 L 110.96282251267705 147.53132835471985 L 109.3703158217249 151.41437581648134 L 109.36125755310059 154.158447265625 L 109.35620493429158 155.76422260955553 L 109.28335534788994 157.68045652312986 L 109.28363251686096 159.563720703125 L 109.28559601364687 161.43565268497719 L 109.21686765191735 163.46783560672336 L 109.16692532252686 165.5707461758429 L 109.10080565063387 167.68105055844893 L 109.04053044246649 169.96045121960637 L 108.9256803692314 171.84327733121754 L 108.81037556245603 173.68383224908504 L 108.68267481487136 175.4211586939094 L 108.50439253011474 177.02705861601643 L 108.32592926304352 178.5976239614912 L 108.09958196126264 180.29043230635588 L 107.79162956103812 182.3917098747523 L 107.04846839278711 185.6449545483577 L 109.91076012283789 186.3340493578923 L 110.75207161083688 183.0058731330602 L 111.12832331217486 180.75290265458162 L 111.40612640101898 179.0173662728838 L 111.62378129801026 177.40983103242107 L 111.84161717731614 175.7375327123406 L 112.00200236723147 173.92139236028996 L 112.1387727557686 172.05833399690746 L 112.27599787784601 170.11242475695613 L 112.35976563842863 167.78733323061357 L 112.43768893528564 165.6685116366571 L 112.49577883245765 163.56732064327664 L 112.57109343947813 161.49549965877281 L 112.57305693626404 159.563720703125 L 112.57333410523506 157.74337160187014 L 112.64452748758342 155.83087016388197 L 112.63947486877441 154.158447265625 L 112.6304166001501 151.62236734758116 L 111.68610326857295 150.62565406715515 L 111.86991545667684 151.9863760297452 Z" fill="black" />
<path d="M 104.19748905778563 194.0196460599835 L 101.82653122860275 193.90042583404235 L 102.73062560236895 194.55851978635084 L 104.23391264960374 192.9936703773991 L 105.46915056199533 191.71872947429947 L 106.91473230681568 190.27006202671686 L 108.50584536896535 188.61617510638084 L 110.42324514894139 186.65200556781764 L 112.3139488813057 184.75590839907582 L 114.26233802541859 182.87264008053944 L 116.32564243778329 181.00308359250909 L 118.54262877151406 179.10785917791878 L 120.77215443768416 177.25984913229104 L 123.14241210649378 175.31007516808637 L 124.97099117263197 174.04275636179608 L 126.68172676070805 172.9374984664386 L 128.20187493554837 172.06133405501265 L 129.57424328739583 171.4397288793851 L 132.09565491935464 170.5381755933246 L 134.56950272409622 170.11039846569085 L 136.29097686151854 169.64635303182942 L 135.62064423223146 166.87305614785808 L 134.02913008840378 167.20979196399665 L 131.35344176033286 167.5577716723004 L 128.47324206416667 168.5080250268649 L 126.78469733007661 169.21271379654985 L 125.02786796585445 170.1633316116864 L 123.17354007736803 171.31027098195392 L 121.14896972944372 172.67051565222613 L 118.65777720294084 174.67459910989646 L 116.38596009567344 176.53020234551872 L 114.10160365596671 178.46371328249091 L 111.95165123239391 180.39786773196056 L 109.9388587358818 182.34333476498668 L 108.01242379637111 184.27597294780736 L 106.07667416228465 186.26566083111916 L 104.49884191193432 187.91499656703314 L 103.06356428175467 189.36916115070053 L 101.77805024102126 190.7217837241634 L 99.96834900700605 192.83552318239916 L 100.08020705264725 196.39644916595765 L 103.79506465315187 197.0780101900165 Z" fill="black" />
<path d="M 156.96325301398247 123.71334142232233 L 153.57836359738312 124.09065006183971 L 152.96597892332886 127.43182743735119 L 152.9455405473709 129.9598388671875 L 152.9386451501757 131.58484291971143 L 152.88115082541628 133.33136374435327 L 152.80686406934996 135.3073987855412 L 152.73449140178224 137.5710431453375 L 152.6797215011687 139.89563617342498 L 152.48358146166146 142.43859535732145 L 152.28534901977724 145.40794050131672 L 152.08782486469934 148.1731752312154 L 151.89109545383243 151.12509035702394 L 151.62227807025855 154.21266418429792 L 151.35076906201172 157.38381824773617 L 151.15237455991732 160.4306525500732 L 150.8988860518148 163.6821782875961 L 150.824924585893 166.08983651503354 L 150.752176300421 168.17279060877632 L 150.75319958733493 171.22628724632048 L 151.0360585659149 173.99912292302903 L 152.645455891021 176.4576120222921 L 155.14392346878589 177.80432045918408 L 157.2786263315491 178.10556149990896 L 161.06770774122407 178.11972163108166 L 165.36673636324858 177.12242994573333 L 169.65871932666033 176.00730766522597 L 171.27553848627622 175.63055282646695 L 174.13867695986585 174.97961878752542 L 175.57166800728808 174.74102788287786 L 177.00489257822542 174.55126929857838 L 178.56152187482172 174.4146312133348 L 181.56802297029097 173.9292912948485 L 184.18203873162815 173.34849282140925 L 187.51490925156367 172.08712685889313 L 189.2420968795607 169.72908043146214 L 189.01037386030947 166.2731046480778 L 186.18124770877205 164.3402906990198 L 184.449099673107 163.55494242427267 L 183.179074155018 166.10777730228983 L 184.61587143185295 166.8989671134802 L 186.14404508500303 167.9941072659847 L 185.9123220657518 168.76725745916286 L 185.65891887343633 169.03677450829437 L 183.15804915899685 169.90248374109075 L 180.91061472502153 170.3727106582765 L 178.08337558611578 170.8132740601027 L 176.61510253896208 170.92688011548412 L 175.02342476614942 171.13751215618464 L 173.39550272763415 171.42443394684958 L 170.46091170903628 172.09979385322055 L 168.76474258740217 172.49879585039903 L 164.48616891018892 173.63587083551667 L 160.61075905565093 174.61550786110584 L 157.4137564809509 174.62966799227854 L 156.23547106246411 174.53051840800342 L 154.916799968354 173.9002981339579 L 154.2575205356476 172.93044250665847 L 154.14426135016507 171.09878599586702 L 154.145284637079 168.22149650059868 L 154.216579320357 166.20044668809146 L 154.2866608231852 163.8784906577164 L 154.53732270570768 160.6737175671143 L 154.73504636767578 157.63961925226383 L 155.00369849224145 154.50462097195208 L 155.27504224148007 151.38614011172606 L 155.47443099467566 148.4072691047221 L 155.67302500366026 145.64210832680828 L 155.87091072583854 142.68066733799105 L 156.0708888503938 140.06859722501252 L 156.12415117634276 137.6635759952875 L 156.19582147752504 135.4228258238338 L 156.26557769020872 133.44500344314673 L 156.3161155920118 131.63805747091357 L 156.3092201948166 129.9598388671875 L 156.28878181885864 127.48296748452381 L 155.82044011355438 126.46989681316029 L 157.04492569695503 126.72208338236517 Z" fill="black" />
<path d="M 159.77958372336894 151.33128927087787 L 159.5555717029289 153.4477395661288 L 160.7735388151941 153.41912808479182 L 163.44715423352665 152.5285028902794 L 165.09300344475338 151.9248098317905 L 166.98557296370126 151.26815104857684 L 168.7323094735877 150.6479333529636 L 170.51921931342864 149.96010391996063 L 172.30317265704525 149.282041608055 L 174.00584130782016 148.58377503857352 L 175.56038616108452 147.96653473076333 L 177.12988878399224 147.33460567979807 L 180.05449865678074 146.45755939322495 L 179.25519372603176 143.66658611458755 L 176.23803113788276 144.49119998426443 L 174.49454547954048 145.06044280829917 L 172.88014502030484 145.61934996142648 L 171.16179316326725 146.2473773372575 L 169.38068303032136 146.87058455660187 L 167.6025293935998 147.5090490689114 L 165.89223465348624 148.09000324829816 L 163.96766550055912 148.7346139963345 L 162.33653717272335 149.3320928128456 L 159.5725305207434 150.26824984489568 L 156.5772407970711 152.0914450041837 L 159.66621705788106 154.33301736974713 Z" fill="black" />
</svg>