<svg xmlns="http://www.w3.org/2000/svg" width="300" height="300" viewBox="0 0 300 300">
<path d="M 127.00398342223005 127.40116487247036 L 128.875215273594 126.75594524096289 L 132.7311998514487 125.60049775772377 L 134.4130966403252 125.26588886801822 L 134.0054824612373 122.41685038979428 L 132.0142835469888 122.60775419540123 L 127.9479048435935 123.70450397778711 L 125.96598728089495 124.38557829159214 Z" fill="black" />
<path d="M 120.70747438793981 136.8912005198282 L 118.16909297977763 137.1771163680697 L 120.66694291931191 139.9012840382484 L 123.80360557707792 138.79174690752401 L 127.63837555989753 137.36172749045303 L 129.11809710157857 136.85752090711543 L 130.80779112684965 136.28159578932502 L 132.42645460464163 135.7713794834992 L 134.1353330296243 135.2691346786026 L 136.155554361497 134.82332995788315 L 138.39399979150025 134.23414985636214 L 140.7912333763547 133.72650671236352 L 143.65880794101986 133.14886134171127 L 146.29797077248168 132.68990620236437 L 149.03514998106002 132.15928124384402 L 151.84205108603118 131.55222016515984 L 154.63904163824 130.89547598194682 L 157.3608851454529 130.2265929069676 L 160.45356972034088 129.42416930919805 L 162.79317710226718 128.6877478617069 L 165.04443416454723 128.02415673476136 L 167.11386337789767 127.36842186656693 L 169.03283705438457 126.7650019173107 L 170.6328620492796 126.23425125609182 L 173.58887667660903 125.24929899129697 L 175.44879969904858 124.66982568465303 L 177.068797415467 124.20946445581299 L 179.70924968125482 121.59923375250715 L 176.38828291147885 119.81477747899623 L 174.0911865234375 120.05729603767395 L 172.5067138671875 120.10682547092438 L 172.5067138671875 123.09654366970062 L 174.0911865234375 123.14607310295105 L 176.25942216664615 123.38859166162877 L 176.10740070937018 121.87940394280535 L 175.722950631408 120.84571132543701 L 174.42607823063892 121.18613134659697 L 172.46886258120347 121.78280550089053 L 169.4831047475954 122.77478194703318 L 167.91418442999043 123.2950566764393 L 166.01601943460233 123.89280860218307 L 163.98022403857777 124.53834326523862 L 161.73013832742032 125.20104608360559 L 159.46037070934662 125.91604065173944 L 156.4672398545471 126.69015513990742 L 153.787472033635 127.34756601024067 L 151.03880828896882 127.99209135827766 L 148.30005509706498 128.58620215459348 L 145.63562297751832 129.10660258669813 L 142.98120670741764 129.57355076766373 L 140.0510517798953 130.17205285794898 L 137.55082442724975 130.71543510457536 L 135.2879270838155 131.32742687805435 L 133.2389345485007 131.8075254776474 L 131.38274949692087 132.3563060633758 L 129.68842469346285 132.89711514817498 L 127.95709821092143 133.49733749132207 L 126.41191740885247 134.04415629860947 L 122.57639930573458 135.51696891278849 L 119.62724653381309 136.6596290476891 L 117.91183963740987 140.4348221084928 L 121.17118772143519 139.7948346364218 Z" fill="black" />
<path d="M 141.605814030637 132.0164101585006 L 138.41986723893882 131.69588204276968 L 137.48714781130028 134.71542179454903 L 137.43211210907833 137.3073502004366 L 137.36197479659666 139.01131764997328 L 137.29446099026802 141.3053429147757 L 137.17573476186573 143.7919601340689 L 136.9822456154048 146.73276307658193 L 136.71251142467216 150.01893213373015 L 136.46312393540467 153.43053568691178 L 136.12551442412533 156.70177488221202 L 135.80900113704283 159.9979685491079 L 135.54884625304163 162.28759279578153 L 135.3580736273881 164.09069379676362 L 135.2323083469913 166.0916384308185 L 138.20312267926113 165.07826640447382 L 138.59458157179154 161.2273256726637 L 138.73397606591269 159.2708415333419 L 139.14361169750256 156.26683326451874 L 139.498470894757 155.03154072861312 L 140.0911447987867 153.7780879100215 L 141.24907537744562 152.94214236814938 L 142.7793703100861 152.09309801904217 L 144.08282764498904 151.39981217843695 L 145.37278142809828 150.8248213830787 L 146.97379131858952 150.16352380212084 L 148.58732531521363 149.6607322533262 L 147.81160046603637 146.7945900122988 L 146.00411395484798 147.21770178381666 L 144.18410333752672 147.8826981481713 L 142.70122997219846 148.48385481375055 L 141.2318601586639 149.24198498877033 L 139.44916681005438 150.24474728028812 L 137.5821950449633 151.7861210743535 L 136.590396292743 153.96101298232438 L 136.15301916187244 155.75367454798126 L 135.77041846533731 158.9557209666581 L 135.62172702195846 160.9530942492113 L 135.22094958636387 164.85972187677618 L 138.1917639186337 166.8993283660565 L 138.4621168022994 164.39587846886138 L 138.66746234070837 162.64551267296847 L 138.94746858951967 160.3306447321421 L 139.27914866181217 157.02039308653798 L 139.62574325209533 153.71021138340072 L 139.88050615345284 150.26512548345735 L 140.1509330955327 146.96987364216807 L 140.35356211313427 143.9798904518686 L 140.48691108004448 141.4366004445993 L 140.56344024246584 139.12613352190172 L 140.63734589873417 137.4017562448759 L 140.69034242307472 134.86367976795097 L 140.04570893293618 134.45487479316782 L 141.0730189771755 134.9101035133744 Z" fill="black" />
<path d="M 131.8995204053423 147.58748983788175 L 130.25175222480763 148.4369277639977 L 128.33519166750006 149.9328213820356 L 127.69570572465985 152.45670914298535 L 127.69069647789001 155.6849365234375 L 127.70557844638824 157.92462158203125 L 127.72116279602051 160.4896240234375 L 127.75345396995544 163.3924560546875 L 127.76884887389438 165.02499330292392 L 127.74101649450967 167.530273933325 L 127.56712214937309 169.59509083983082 L 127.57865474915353 170.80805082386385 L 127.4212646484375 171.49038207530975 L 129.31137718648472 172.31094045099482 L 130.55390083244902 171.0278088794073 L 131.91587583335897 169.84582283624653 L 133.901624721578 168.47491147750543 L 138.20060625795267 165.8428148163225 L 139.82703592621203 164.86469698361546 L 141.59548234292356 163.84618596682674 L 143.54997337188075 162.74180469331884 L 145.42667919907686 161.49794524154234 L 147.45681706198476 160.12796317154385 L 149.0732509644241 158.80622622349784 L 150.4157461551433 157.5927865474484 L 148.5039315792317 155.4787466556766 L 147.2176425902634 156.64262631556466 L 145.77316340676524 157.82333077376865 L 143.84211962904814 159.08091218033266 L 142.04572975311925 160.21437206449366 L 140.14707136801394 161.21204157223576 L 138.35045430816297 162.17045926638454 L 136.55586346860983 163.0441480743025 L 132.1402453956095 165.69220278030707 L 129.91273744789103 167.22412345281597 L 128.24981010505098 168.6697008862177 L 126.5754636338278 170.56466990056768 L 127.4212646484375 174.41318237781525 L 130.14473392272146 172.06755952769865 L 130.4443524600019 169.85217478516918 L 130.66657627892783 167.6878657151125 L 130.7467761261056 165.06314146270108 L 130.76217103004456 163.3924560546875 L 130.7944622039795 160.4896240234375 L 130.81004655361176 157.92462158203125 L 130.82492852210999 155.6849365234375 L 130.81991927534014 152.70710921638965 L 130.97266966062494 151.5524081101519 L 131.82893625175487 150.9212265328773 L 133.2420811571577 150.19412637305575 Z" fill="black" />
<path d="M 154.22181328084758 113.57964019961355 L 151.1264371839359 113.1586772471689 L 150.18653537469265 116.20735459843783 L 150.1489971420825 118.5399082102886 L 150.214586443891 120.66513655278845 L 150.6086942709808 123.2512538605762 L 150.86130615936037 124.99855683799866 L 151.20640842330246 126.73069389441298 L 151.53455105514126 128.65377776160787 L 152.01705462964202 130.83793906917577 L 152.61513459920835 133.156078955545 L 153.2086139135752 135.5983401776795 L 153.9434237426721 138.43639845213863 L 154.76363911330995 140.95128502344934 L 155.65004618062514 143.32587306268974 L 156.60921375265326 145.66140571555573 L 157.73213632352795 147.8195804248093 L 158.95439541343828 149.8529983793184 L 160.30447221670696 152.02155654089592 L 161.53699207126326 153.73215386412852 L 162.67246482172374 155.26749180372357 L 163.75526172665587 156.67212220756036 L 164.83717156711216 158.02452941612503 L 165.84100818496344 159.20958705836296 L 166.85630483012832 160.69346315711007 L 168.2508861001561 162.8311098296728 L 170.11978481812275 164.6828385717067 L 173.32403215257983 164.76557414537527 L 174.45160598863131 162.2413183797004 L 174.72473071892543 159.7800995286032 L 174.77795488438852 156.09402797571371 L 171.92797773279898 156.05160190709879 L 171.87316967169957 159.6226104323343 L 171.60613326918119 161.6407616984246 L 171.68939558179517 162.14446003431223 L 171.72469760375225 161.8268049829808 L 170.9288013998439 160.8007261078272 L 169.69459849018418 158.83436887413993 L 168.58526134628656 157.16516880101204 L 167.50047491726284 155.84778503699997 L 166.45775096865663 154.54760435493964 L 165.41591408452626 153.19954921190143 L 164.31872081936174 151.70693304993398 L 163.17453168954304 150.11430771691658 L 161.89582431312422 148.0537399019316 L 160.74137441865955 146.1333004345657 L 159.73966320047174 144.21249565163177 L 158.86228292093736 142.06865818731026 L 158.02017436325255 139.81372962498816 L 157.2559170776404 137.47387986817387 L 156.5502972192373 134.756518220758 L 155.95542204141665 132.319018700705 L 155.36514751879548 130.03266639957423 L 154.91137179642124 127.98770173057963 L 154.59132106888504 126.10707466027452 L 154.25221923126463 124.41086699012634 L 154.0006807290192 122.7298252409863 L 153.602552227984 120.31105973627405 L 153.5240985610425 118.4824306568989 L 153.48656032843235 116.31058973749967 L 152.7987337145016 115.8058002918936 L 153.41246406290242 116.43586273007395 Z" fill="black" />
<path d="M 170.70503522292793 139.74135036009937 L 167.04406558045207 138.0093548185241 L 165.4680168602212 141.48664886045708 L 164.8956375583744 143.7680623866576 L 164.45590455833582 145.12555637391324 L 163.87630737422134 146.73935148827067 L 163.18101077305585 148.58234752307763 L 162.29107113330025 150.57540399135402 L 161.26429428329544 152.75136114879842 L 159.97995922961314 155.07814198738996 L 158.60720831934677 157.58989965222042 L 157.25341076685223 159.99033505066654 L 155.71949304215659 162.53026127539476 L 154.50969913125488 164.33882005825248 L 153.42940862980893 165.92297301097938 L 151.85087118087083 168.1410953021877 L 150.7368775353225 169.99211675414656 L 153.188293363115 171.55719965210344 L 154.34297647537917 169.8547543071873 L 155.93338433894107 167.71862855152062 L 157.08575985312012 166.12468091831002 L 158.39671789534341 164.25465083398024 L 160.03174548314777 161.63954776183346 L 161.45077507909073 159.18524683215458 L 162.85085131726186 156.66709727042254 L 164.19530044326706 154.26426385120158 L 165.29315738232475 151.96085089145848 L 166.23976559413165 149.84990345348487 L 166.98489868046616 147.88918855079183 L 167.59365598853918 146.19976100889926 L 168.0902022853756 144.6544229649049 L 168.7061774757163 142.18119781923042 L 167.92236508361043 141.1791217439759 L 169.15885637863457 142.34995823365063 Z" fill="black" />
<path d="M 167.27906413835234 108.82601481940345 L 163.67703142941548 109.23130851597593 L 164.7342799043744 112.92032884929696 L 167.47780731441048 114.81696077598262 L 168.8228344874644 115.58134668010194 L 169.97510128280666 116.54159827022112 L 171.86938113906834 114.39980797977888 L 170.6449389500356 113.25800878864806 L 169.32517120121452 112.17058805214238 L 166.8111302518756 110.38863111164054 L 165.74374493777202 111.70033210902407 L 167.43529133039766 111.83035725090905 Z" fill="black" />
</svg>