<svg xmlns="http://www.w3.org/2000/svg" width="300" height="300" viewBox="0 0 300 300">
<path d="M 128.22783126456557 115.29434879340535 L 124.27658347347683 114.81410054925558 L 125.67785387914591 118.63570697637388 L 126.96508289594442 120.08358638512361 L 128.28581644427075 121.5071457309757 L 129.541536817313 122.96154476986663 L 131.0973804199475 124.82893037477683 L 131.79350844546855 125.94397680437498 L 132.35852119557651 127.53629226302158 L 135.05175712473599 126.60274582291592 L 134.42841538265645 124.76671655500002 L 133.5400707519275 123.10405302366067 L 131.926969042062 121.01758120669587 L 130.66193746197925 119.4440261440243 L 129.35388683061808 117.96475345862639 L 128.1203638942916 116.50980083612612 L 126.64077492496067 117.02818460699442 L 127.04682693855943 118.27462093315715 Z" fill="black" />
<path d="M 127.08487739716001 134.99887133683401 L 125.52405226988067 135.66999385973398 L 123.26439476884548 137.99312794539918 L 124.96194826186668 140.74644405546474 L 126.16021374198026 142.00928068896127 L 127.36331103130917 143.59275029663036 L 128.30234732229837 145.08857002378068 L 129.11064532913613 146.79314615769482 L 129.80778668989862 148.7109501406319 L 130.17700079395647 150.79866890688567 L 130.22759809302198 153.26255136838842 L 133.07745561791552 153.20253652223658 L 133.02002069041853 150.53641410092683 L 132.59699846635138 147.9946162656181 L 131.81769939742637 145.70831868605518 L 130.93349252145163 143.70928153871932 L 129.89193799212833 141.90187860961964 L 128.57428332833223 140.05700349072623 L 127.39583982407082 138.69227664766026 L 126.46460913740452 138.14237010147582 L 127.08581101136933 138.36345340589102 L 128.2978130325275 137.85842846785349 Z" fill="black" />
<path d="M 125.94664984544497 174.37376784491963 L 123.85021594339474 175.91665519933753 L 127.46268169762598 177.1572459566871 L 129.09933363173258 175.40446878892527 L 130.98283802241556 173.0151207325441 L 131.92867206757435 171.64087260451063 L 132.91057982194317 170.22566801932277 L 133.8869440510652 168.74886258301524 L 134.86122363995216 167.27701959301464 L 135.9428036785747 165.53633409628833 L 136.90011212631777 164.07084691327796 L 137.78177223370434 162.69330446025958 L 138.68334106187973 161.47008792561817 L 136.39722534437027 159.75940426188183 L 135.42623557879566 161.03862913349042 L 134.47134783461973 162.43879664140954 L 133.4480654620503 163.87614148964917 L 132.29697948504784 165.56380071948536 L 131.2906682536223 166.96976534667226 L 130.28644166243183 168.39579194161473 L 129.28775859648815 169.75829731736437 L 128.36103404789694 171.0116126658934 L 126.57144273545492 173.25178121107473 L 125.14718158362402 174.7772022855004 L 125.87878796285526 178.52023444909997 L 127.85156792799253 176.63477707695537 Z" fill="black" />
<path d="M 154.01695381635474 117.12586071953328 L 151.4718234871185 117.6452746440098 L 150.12142734479235 120.31507076340964 L 150.11518502736791 124.06710116509794 L 150.58066725909524 126.94706569444372 L 151.66362539498658 130.50646066565966 L 152.69862548025478 132.0736582182423 L 155.11570557443272 130.4986074067577 L 154.42219003470092 129.41321706871534 L 153.52455735027976 126.26606907118128 L 153.19780325388209 123.86588223333956 L 153.19156093645765 120.76122318190286 L 153.317605223819 120.1277966450527 L 154.44557059770776 120.12169787421672 Z" fill="black" />
<path d="M 154.32089952618372 122.98796741579704 L 154.71471496619435 120.97139350084088 L 155.16466149670256 118.94158263128654 L 155.4774251373753 118.47178742265808 L 157.52011738317424 118.51567919728468 L 159.38753668973905 118.3386515947471 L 161.4349507844373 118.21184048799917 L 163.7510497707865 118.15396508185805 L 166.3088801595136 118.01787804205938 L 168.56284097020736 117.95690199583247 L 170.6477205467624 117.83619873249725 L 172.72744065809698 117.7002314755351 L 173.76415491208658 117.25925830678138 L 173.1149281198304 117.65558710764661 L 172.80426707754768 119.39008074936238 L 172.60818760120782 121.5395581694592 L 172.50808745289777 123.73896836922454 L 172.27549130956493 127.79608550795446 L 172.38262882397007 130.66179714301765 L 172.34296691830957 132.21005078609744 L 175.19121276919043 132.33914354984006 L 175.29559383227993 130.70929660698235 L 175.40273134668507 127.91949066392054 L 175.71029633616473 123.94377088858796 L 175.86227138316718 121.7889330414783 L 176.06231007088982 119.83440655532512 L 176.3998423879821 118.01543340016589 L 175.89465856447592 114.73317333384362 L 172.57407301377802 114.4173222354024 L 170.4405362891751 114.55662353312775 L 168.42019125635514 114.68616441041753 L 166.1728092936114 114.75031043450312 L 163.6171142917135 114.88949194939195 L 161.2878275358752 114.95673861356333 L 159.12198479463595 115.1051960615029 L 157.28029765588826 115.30353466990282 L 154.3174967376247 115.62269499921692 L 152.50562658923494 117.78046326715096 L 151.91126159630565 120.38016899915912 L 151.51284070819128 122.44257457639046 Z" fill="black" />
<path d="M 157.98455195395903 129.68101627946328 L 158.9326776897207 128.88101993559908 L 161.2026443044992 128.49413829357752 L 164.10703550013184 128.07506938787492 L 167.01838964566232 127.7558713778638 L 169.32124840809826 127.58967968688555 L 171.73248291015625 127.571404337883 L 171.73248291015625 124.7158271074295 L 169.24625647471424 124.69755175842695 L 166.79569726840018 124.7816042080737 L 163.76527895299316 125.01294330743758 L 160.7278976876883 125.3696312376725 L 157.7402959430918 125.90865291596342 L 156.02362675697847 127.36085383772422 Z" fill="black" />
<path d="M 157.0033485328306 137.2220638665481 L 159.79645582220002 138.13265286921936 L 162.89540843492173 137.69794731785993 L 166.0229782387961 136.7289021874796 L 169.8738929447033 134.86932429408125 L 171.84896763047792 133.35252710838355 L 170.13955776014708 131.07154515724145 L 168.4415367427967 132.30743351841875 L 164.9102493002664 133.8762003515829 L 162.20407886976577 134.63383979151507 L 160.04546312311248 134.97489107609314 L 157.9411094749819 134.3089419928269 Z" fill="black" />
<path d="M 167.4912182694851 116.59891823354695 L 165.94598855194906 116.49565808696889 L 163.02163994030377 116.84057457923937 L 162.37660538184 119.77195838182577 L 162.3854855298996 123.11566162109375 L 162.41552257537842 125.6806640625 L 162.45910835266113 128.38330078125 L 162.5179590309836 131.0484094068402 L 162.43975094174792 133.25466323697847 L 162.19867288906218 135.17202059780817 L 165.02544820468782 135.55820401156683 L 165.32453128481458 133.52170395052153 L 165.4983983908914 131.1234655931598 L 165.55724906921387 128.38330078125 L 165.60083484649658 125.6806640625 L 165.6308718919754 123.11566162109375 L 165.639752040035 119.85291954786173 L 165.24679267688373 119.23083655357313 L 165.88750754180094 119.57575304584361 L 167.3671801680149 119.59761496957805 Z" fill="black" />
<path d="M 156.26970862749266 145.43096878573638 L 154.31220826204856 146.75547267782326 L 153.63488128078674 149.30566855716137 L 153.62257635593414 151.255615234375 L 153.6241698191641 153.84630125122297 L 153.6995759373527 155.78848527999222 L 153.76732899265792 158.13723641438307 L 153.76822292804718 160.35198974609375 L 153.77092623710632 162.72930908203125 L 153.7796991649637 164.96239909016597 L 153.6021951315275 167.07980355372067 L 153.27550526344731 169.2145836776932 L 152.96973531731402 171.4105059959922 L 152.4279121115839 174.07369728158406 L 153.24759385839383 175.06561345873476 L 154.4366724986155 174.37026062317008 L 154.41959750652313 172.73907470703125 L 154.4167605638504 170.8997802734375 L 154.41393946679113 168.89320474577866 L 154.5373008187046 167.03836022038195 L 154.662837326267 165.06611944307267 L 154.80698389624064 163.08738788882965 L 154.93351579149464 161.02770119728333 L 155.0596161912197 158.99035693819945 L 155.20221784569492 156.7819312823031 L 155.4012385733399 155.0133994975232 L 155.53065840080126 153.21366532016845 L 155.79838576710154 150.33192015134898 L 156.36626663649284 147.21073726754227 L 157.14889237039813 146.90188236926053 L 159.06696338573227 145.759956888006 L 160.5451386454085 144.99774189772353 L 162.1712032569434 144.30009688817466 L 165.42295961158248 143.56957214891685 L 167.5440379620291 143.3315209001587 L 169.77715800386125 143.13572248878535 L 172.07835389529714 142.86778970197548 L 173.911916372421 142.56844470248976 L 175.1175112166732 141.53416676288305 L 174.39785397052765 142.8223876953125 L 174.39161384105682 144.39892578125 L 174.3877971124624 146.5509298170601 L 174.318708942665 149.17479228763938 L 174.12394735272102 150.84139617914508 L 173.9966281996837 152.76812092766937 L 173.79954465296194 154.79673082427075 L 173.60160885878716 157.2410928849056 L 173.40403212536535 159.43239995027346 L 173.26031743070487 161.6997515565691 L 173.13788748430045 163.88088673111346 L 173.01742768050337 165.96921089903998 L 172.87894557864314 167.91560513746552 L 172.83653540607625 170.0922724992622 L 172.65536605610646 172.99266089034307 L 172.44034906504314 175.11920407666128 L 173.10633079119745 175.85926724045282 L 173.47086761416352 175.06593361496803 L 172.5882737524383 173.2521104257992 L 171.66031985840402 170.87237272625376 L 170.96485467728266 169.42006351480953 L 168.39488653365484 170.65281246175297 L 169.03181881347098 171.97821321124624 L 169.9404127709992 174.3531141835758 L 170.89436676083648 176.61827048659447 L 173.77965553692755 178.97801303298468 L 175.63399175526936 175.76421877490122 L 175.95913589701854 173.28626977371943 L 176.17408471111125 170.2558720319878 L 176.23970676510686 168.07829134690948 L 176.38931060074663 166.19595023377252 L 176.52092599226205 164.08017283919904 L 176.65057124117013 161.9070599668684 L 176.79494248400965 159.69504145597654 L 176.99348391465034 157.5321004744694 L 177.19166628453806 155.09670179291675 L 177.3907009018788 153.04633219733063 L 177.51545694415398 151.14432159429242 L 177.7168135182725 149.38258075923562 L 177.7917683172251 146.6011697923149 L 177.78795158863068 144.39892578125 L 177.78171145915985 142.8223876953125 L 177.0620542130143 138.83045726055445 L 173.118112924454 139.37271740688524 L 171.63868712032786 139.59888510271202 L 169.43854023832625 139.85646501121465 L 167.2063282489084 140.0610572248413 L 164.82606382591752 140.34851867139565 L 161.2357791649316 141.19453201807534 L 159.152737331154 142.09844950852647 L 157.46196727833023 143.037894674494 L 155.41885665303937 144.39841059948947 L 153.68073043381966 146.06648441214523 L 152.95222458446096 149.92711305177602 L 152.67979081794874 152.97615401576905 L 152.5571354500976 154.7549110493518 L 152.36003801368008 156.5398460614469 L 152.2145537306553 158.81079052273805 L 152.08857893506786 160.85242575584167 L 151.96303563500936 162.89674297054535 L 151.819096267483 164.87186883817733 L 151.6925575797329 166.85348548274305 L 151.56384373633387 168.80235189484634 L 151.5610226392746 170.8997802734375 L 151.55818569660187 172.73907470703125 L 151.5411107045095 174.41111144714242 L 152.83822157129367 178.07000665845274 L 155.3864189431036 174.95791892935344 L 156.03295022956098 171.9655926368203 L 156.37537364280269 169.6821448379318 L 156.732887876285 167.46267691502933 L 156.9515020069113 165.10071126139653 L 156.96027493476868 162.72930908203125 L 156.96297824382782 160.35198974609375 L 156.96387217921708 158.08737296061693 L 156.8875822657723 155.68148542313278 L 156.8189454152109 153.79493410033953 L 156.82053887844086 151.255615234375 L 156.80823395358826 149.65209511471363 L 156.92314330045144 148.49867771280174 L 157.88251305219484 147.97137496426362 Z" fill="black" />
<path d="M 160.14925099421328 153.88470146729426 L 159.36466206316433 154.4432799069984 L 159.94715192699425 156.12059764737802 L 163.11733339184357 155.56834125991205 L 166.72881920047087 155.14720999404304 L 168.67087106827427 154.97491130819458 L 169.58917770349416 154.80121125285524 L 170.8893306217378 155.99028704417205 L 172.8277103938872 153.77802350270295 L 170.81487503088084 152.06426726276976 L 168.56423635360073 151.89056720743042 L 166.43707435421663 151.96851266220696 L 162.66635801440643 152.34816264633795 L 159.10253069019325 152.97205371980948 L 156.62410746808567 156.1007874758141 L 159.94474314641172 156.93463447020574 Z" fill="black" />
<path d="M 162.10403772829937 161.1292284710274 L 159.58992623603717 164.10947009812278 L 163.06888350469197 164.85202892130243 L 165.79688639635953 164.6697418218492 L 168.72465514200104 163.78710426326614 L 170.24238425543473 163.23679402443378 L 173.03224983604883 162.15391440605146 L 172.01718864051367 159.47596840644854 L 169.26139992425277 160.49513956931622 L 167.86225892049896 160.87073265079636 L 165.24437336926547 161.5646331781508 L 163.11092606562053 161.65761463338507 L 161.94449759208783 161.99978283156472 L 162.88741734982563 164.0541211383476 Z" fill="black" />
</svg>