<svg xmlns="http://www.w3.org/2000/svg" width="300" height="300" viewBox="0 0 300 300">
<path d="M 130.13323290444652 124.17448085869745 L 128.87969970703125 123.62765669822693 L 127.26318717002869 124.029052734375 L 127.26258385181427 125.61810302734375 L 127.26401539619647 127.53497615189166 L 127.01542800071168 132.31079975705038 L 126.86783047411993 134.72662978946784 L 126.86704432964325 137.0167236328125 L 126.86383092403412 138.53070068359375 L 127.00849559197668 140.85937522261355 L 129.15871673834803 142.92651567605634 L 131.87836453139133 143.3284691331594 L 135.28732386749326 143.1544162969155 L 139.055436423168 141.53045430547428 L 141.57899289304171 139.56563863106965 L 143.09292350682065 137.53793636470488 L 143.1948331880986 135.49160842278297 L 140.3122468900264 135.38876267096703 L 140.30612434474185 136.37038883060762 L 139.44334597414579 137.24551859549285 L 137.465559670582 138.70904764765072 L 134.49966343719424 139.9879176874595 L 131.96685031235867 140.0641089918406 L 130.47324126946447 139.94054975363116 L 129.9586674939608 139.50524880082395 L 130.10333216190338 138.53070068359375 L 130.10011875629425 137.0167236328125 L 130.09933261181757 134.82744735896966 L 130.2398210227258 132.48863871951212 L 130.49538401786603 127.65508732467084 L 130.49681556224823 125.61810302734375 L 130.4962122440338 124.029052734375 L 128.87969970703125 120.47659134864807 L 127.23004834555348 123.88362461005255 Z" fill="black" />
<path d="M 142.5993073390246 121.78053729843734 L 139.42059249265904 120.70131159020774 L 138.27749826850035 123.91338911992717 L 138.26540541648865 126.0810546875 L 138.25794684886932 128.9088134765625 L 138.25640320777893 130.5604248046875 L 138.25629520191893 132.50710309199138 L 138.1849085040105 134.45757314658985 L 138.1148054333754 136.68378759840078 L 137.99111177607472 139.11045188356795 L 137.86791165056965 141.67308135352 L 137.72577104205314 144.34058856717118 L 137.67366484761746 147.32586474937628 L 137.6035691925599 149.75619120066847 L 137.54365106092615 152.2654634947229 L 137.50407325630954 154.7913691062273 L 137.51319946950036 157.22347812815383 L 137.44896745039 159.3405043460287 L 137.47801022129653 162.36264919801178 L 137.82127641722616 164.04819611222476 L 140.82435346558634 163.51247283308774 L 140.62745852870347 162.17006564573822 L 140.65650129961 159.3865464352213 L 140.73631224924964 157.27444667653367 L 140.74543846244046 154.8267949562727 L 140.81389288438635 152.3478177552771 L 140.8980177215026 149.85220723683153 L 140.97196503519504 147.40277294593622 L 141.02789106732186 144.45726299532882 L 141.17383639630535 141.8446188417925 L 141.30271146611278 139.27724342893205 L 141.4310930041246 136.82414697191172 L 141.5050329022395 134.57099130653515 L 141.57768917308107 132.56760393925862 L 141.57758116722107 130.5604248046875 L 141.57603752613068 128.9088134765625 L 141.56857895851135 126.0810546875 L 141.55648610649965 124.01959427851033 L 140.66546707765346 123.67820501135476 L 141.3038909031629 124.45078594375016 Z" fill="black" />
<path d="M 128.16892868968065 151.78110939572676 L 127.48342466992116 151.37075888188338 L 128.32156343386902 151.22724096167414 L 129.87378131056047 150.76075266101208 L 133.4526026176823 150.16683019125057 L 135.9102564491141 149.8534040997654 L 137.88397305109254 149.62161448128157 L 140.0124633394787 149.5336733006447 L 139.9295532620838 146.6463804102928 L 137.70074374578246 146.68356129996843 L 135.6052464805734 146.8521623064846 L 133.0213964057552 147.06424891031193 L 129.21801556443953 147.67149831555042 L 126.95309476925597 148.38115747582586 L 124.47824525195384 150.48983682124162 L 125.52125685719435 153.23256247927324 Z" fill="black" />
<path d="M 131.68385921928646 149.45510018969273 L 130.84793581654742 151.1253102997774 L 129.9621988257414 152.95250796257267 L 129.09265261471955 155.48581882074166 L 128.6336076874289 157.00063822733966 L 128.2343612396823 158.54256142292317 L 127.57899991989896 161.63656596477168 L 127.17720964038888 164.41431443381333 L 126.94029531743098 166.56471079268132 L 129.77479257319402 166.92674428544368 L 130.0780393830486 164.84801466774917 L 130.57651765822604 162.22048969929082 L 131.2535537993802 159.25858603801433 L 131.6465436797586 157.89767720234784 L 132.12377804934295 156.50966457769584 L 132.9467367211336 154.16321469367733 L 133.78951535532758 152.4369455595976 L 134.39402164008854 150.55368887280727 Z" fill="black" />
<path d="M 151.48346469122578 128.1789979074374 L 150.8210659556015 127.21558450899961 L 151.48428473484486 127.2732448923538 L 153.20050744823988 126.78322351530093 L 155.71274096732392 126.34562223488012 L 157.2300879257293 126.22328706641086 L 159.0120124612154 126.01523530323469 L 160.65979185845865 125.87329429009212 L 162.40887334694605 125.80110249537162 L 164.11630658037876 125.72267342562961 L 167.23882046189755 125.43529631066373 L 170.09035680496712 124.78586403340341 L 171.65776686943167 123.08872900176615 L 169.43048996650583 121.16566552948385 L 168.72922327315788 122.09609397440909 L 166.82734164747745 122.37256501746127 L 163.90005084149624 122.61070059780789 L 162.29449579367895 122.65739359837838 L 160.47851380560385 122.71032387397038 L 158.7052726950346 122.84365141551531 L 156.9221337539582 123.03599027733914 L 155.27053539986358 123.16389924949488 L 152.48918981738512 123.65220128938657 L 150.13619866359264 124.3633517873337 L 147.7385043568985 126.52306295193789 L 148.80462124627422 129.3883849050626 Z" fill="black" />
<path d="M 160.30230237729953 114.9020710408074 L 157.11628533271062 114.80798310216002 L 156.15260906413278 117.89985700442607 L 156.14981520175934 121.58917236328125 L 156.15230464336713 123.33067160060376 L 156.35601265022243 125.25387133671742 L 156.55797471936745 127.28795182141805 L 156.75887201792108 129.24298935011737 L 156.8936620473129 131.08605699144402 L 157.1049271892381 132.97291618645613 L 157.31446772530174 134.66636547739236 L 157.4560938395429 136.2483726500522 L 157.8172162142066 139.19788526871906 L 158.09939980748737 142.532798773956 L 161.05831503626263 142.311195366669 L 160.8363482389184 138.91454148909344 L 160.5132665120196 135.9332679749478 L 160.40281743094826 134.36219897573264 L 160.2162398029494 132.62730354010637 L 160.0313867808121 130.81054945386848 L 159.91410161489142 128.97502822800763 L 159.71888074938255 126.97620833483195 L 159.52472465446507 124.93130932734508 L 159.33231449725787 123.15089578220874 L 159.33480393886566 121.58917236328125 L 159.33201007649222 118.04643205807393 L 158.87248419853938 117.43469267908998 L 159.93573473207547 117.8661174357551 Z" fill="black" />
<path d="M 154.23126220703125 128.0624840259552 L 151.88726468328093 128.253164398292 L 150.18610705796846 130.5726700782155 L 149.92416930711806 132.85259644830964 L 149.79643895151855 134.4010219531851 L 149.69314114409497 136.42565605907328 L 149.62913346290588 138.8685302734375 L 152.34240476894544 137.88124365458347 L 153.0301079577115 138.01143216557364 L 155.14454313157555 137.65836221226775 L 157.54053940029536 136.93972559050502 L 156.75572524814214 134.19088964386998 L 154.50633577467445 134.79854696741975 L 152.407514112601 135.09611177973886 L 149.92627198886706 136.15220361104153 L 152.49550032615662 138.8685302734375 L 152.57553561371753 136.55676581592672 L 152.72431300160645 134.6275424999399 L 152.88466858350694 133.14801390325286 L 153.01884899671904 131.5992049217845 L 153.40631441828157 130.8907565001455 L 154.23126220703125 131.0814368724823 Z" fill="black" />
<path d="M 166.21770222398808 127.52834178019316 L 165.22659044404034 129.48952614347843 L 164.51024321208004 131.46052639064672 L 163.69183670447316 132.8617610257878 L 162.34637953806796 136.1538258560892 L 165.78940312152722 137.34319514097862 L 167.75182519716094 136.77262574836456 L 169.32521444056852 136.39346131576173 L 171.50967052015662 136.2906941956461 L 171.41513416734338 133.3885050231039 L 168.99021524693148 133.43588438736327 L 166.99854101377656 133.83247679069794 L 165.39589961284778 134.31293278870888 L 165.27385971974454 135.3771800032858 L 166.30511153771434 134.3149967867122 L 167.21522065510746 132.68827732029078 L 167.93930311064716 130.70542014558407 L 168.92878215101192 128.98801564168184 Z" fill="black" />
<path d="M 152.90471356696395 146.68235875315426 L 153.81507836873874 145.90643942498522 L 156.3713590714902 145.41808230552678 L 158.51691263316778 144.97324958634107 L 161.2565789034304 144.45926069844228 L 162.85686951316382 144.20551696258468 L 164.3784953078501 144.01198780393662 L 166.03179729492518 143.8707617454327 L 167.66382073785255 143.66582828626213 L 170.67087106960795 143.395255729288 L 173.6537487129684 143.1416898960697 L 175.7774659794833 142.20140963517326 L 174.5295408564542 139.33936184920174 L 172.9801624198441 140.0006440883053 L 170.41738576632955 140.1224444660245 L 167.33862066839745 140.37738460436287 L 165.69366657226232 140.5728417701923 L 164.0339802780874 140.70688426637588 L 162.38666076027368 140.91374573272782 L 160.6739630887571 141.18551469218272 L 157.86797506214472 141.72255119490893 L 155.6562288191348 142.20362179603572 L 152.55882299844876 143.01653420782728 L 150.94843584709855 144.49281214528324 Z" fill="black" />
<path d="M 154.41422788074436 148.51507452150003 L 152.46689085350752 149.71259561580143 L 151.21315838283306 152.0518910876408 L 150.73809885557063 154.24337446586824 L 150.68334353511537 156.37809220917438 L 150.70456764545557 158.5865627228442 L 151.00878539881475 161.04554148799062 L 151.62468883352054 162.86608018715359 L 152.29350357024526 164.65838239832516 L 154.98066635162974 163.67804338292484 L 154.35309436960446 161.91687879722141 L 153.88867553868525 160.45921925419688 L 153.68874290141943 158.4138034880933 L 153.70996701175963 156.41817243926312 L 153.76324391786687 154.59903276069426 L 154.08042071872944 153.0869028576717 L 154.69924684180498 151.74760946232357 L 155.92085512706814 151.09332391599997 Z" fill="black" />
<path d="M 154.36896666904227 154.3205534484173 L 154.49266318328105 151.79434478968446 L 154.8609151254733 151.41968006863826 L 155.90267566436822 150.94388914222804 L 158.75700350632326 150.34732835661202 L 161.3125824111681 149.96157858927745 L 162.79117358779146 149.84037873270537 L 164.3781355932407 149.63991998293565 L 165.9862147718536 149.49871886879842 L 167.6927816428756 149.2350969050074 L 170.37015705641664 148.97151935601917 L 172.7001705083667 148.70514315902105 L 174.58287155642586 148.507489902643 L 174.65579085050078 147.64356098993693 L 174.21216514961904 148.92581440426923 L 173.82481797341026 152.8546356025189 L 173.57462462592846 154.9428964852887 L 173.34829788165655 159.36222949886906 L 173.43470644950867 161.20281982421875 L 173.4644297361374 163.37994384765625 L 176.3384267091751 163.37994384765625 L 176.36814999580383 161.20281982421875 L 176.45455856365595 159.48994335269344 L 176.73238221000904 155.2007802725238 L 177.02234999533974 153.2100616631061 L 177.42723914725596 149.23116801760577 L 177.37973161043672 145.90892924443807 L 174.28370559201164 145.295244472357 L 172.3492679681958 145.49798184097895 L 170.03389567795836 145.75711833929333 L 167.3096597633744 146.0190534856176 L 165.5952061265839 146.28094421713908 L 164.0343399926968 146.41501165768935 L 162.45235668564604 146.61494353291963 L 160.9060455185194 146.74398781697255 L 158.16804532180174 147.15901929963798 L 154.93655773406928 147.86372804527196 L 152.8093729604642 148.98949961886174 L 151.48512001984395 151.11727630406554 L 151.46477356533273 154.2465852234577 Z" fill="black" />
<path d="M 157.31530379106093 156.71739578667592 L 157.1884497834358 159.536657349169 L 157.52053354827555 161.42499634283877 L 160.34079457672445 160.98064330559873 L 160.1327172087517 159.440637572706 L 160.25793839643907 156.85462569769908 Z" fill="black" />
<path d="M 160.0165123192338 158.7618728020723 L 160.91234679026954 157.64940535655154 L 161.97608909729016 156.60533744736497 L 163.1854712263992 155.8673467119482 L 164.64216650005486 155.387286224333 L 166.07563153935664 155.28632538928926 L 167.10195193775107 155.17986231977693 L 167.47632231482982 155.8901374459325 L 167.6769045707607 157.12097129836005 L 167.71442894977247 158.61070063643433 L 167.3251308668232 159.28596035533667 L 166.28312192923798 159.9983118571375 L 163.37736944986352 160.77406590888293 L 164.09882683919898 163.60850245049207 L 167.38692201607452 162.8077184163 L 169.5138583909893 161.41801913685083 L 170.70903296429003 159.31556889481567 L 170.7465573433018 156.85144081101495 L 170.29894623985768 154.65392993688 L 168.54868282787393 152.46137303178557 L 166.00993974970586 152.22978789196074 L 164.02238428119514 152.4040956116045 L 161.9140160782883 153.1001825849268 L 160.09849586364734 154.21399849013503 L 158.64148621754296 155.67237198719846 L 157.7007728370162 157.0623459479277 Z" fill="black" />
<path d="M 153.70517983875627 170.31425558975357 L 154.51222603971317 169.3708949983073 L 155.97457094483525 168.80864389458014 L 157.28391842494395 168.54640483010832 L 159.5197559964511 168.3539520531855 L 162.35489290743067 168.08743317776973 L 164.1278608108593 167.95403687917343 L 165.75260727380518 167.80878701692728 L 167.38483320895025 167.60523772948022 L 168.9901036075386 167.47001621333186 L 171.98299947503932 167.05866846256072 L 174.54218620659205 166.71324901631132 L 176.20185503972453 166.49838796217094 L 177.8539407042456 166.43580173795533 L 177.7466452332544 163.50218654329467 L 175.97771038996297 163.56472238939156 L 174.18034797309545 163.75025196025118 L 171.58999857183568 164.05546727962678 L 168.6411219783989 164.44490077885564 L 167.07744706448725 164.55992340333228 L 165.43269546056982 164.75676474088522 L 163.8884966110157 164.88678343332657 L 162.09640103788183 165.00363127535527 L 159.2418406832364 165.262625095252 L 156.86830325474355 165.47056294332918 L 155.00870542235225 165.85895864448236 L 152.76194388216183 166.8982700407552 L 151.48036703624373 168.45735085555893 Z" fill="black" />
</svg>