<svg xmlns="http://www.w3.org/2000/svg" width="300" height="300" viewBox="0 0 300 300">
<path d="M 126.76520343780697 119.34625834952445 L 123.10950180620104 118.98904190962007 L 122.2959237730534 122.58204436504624 L 123.498771539491 125.05147487375001 L 124.56433361196002 127.82661407083019 L 127.25329334116498 126.83793671041981 L 126.230232366759 123.93253391531249 L 125.3084463441341 121.79747223651626 L 124.49486831098646 121.83700789506743 L 126.24077800750553 122.40569477547555 Z" fill="black" />
<path d="M 120.69462334271128 137.07886608211606 L 120.30094302611364 139.6475808763274 L 122.28372333468006 138.77722021272078 L 124.20092480799543 137.73077593059065 L 126.04383816126031 136.88717830253324 L 127.96045856718752 136.41920200786979 L 129.8129538058293 136.1180681235561 L 131.880666998087 136.06069969406627 L 132.06314745574468 135.72374884718076 L 131.98810387634526 136.9925448314171 L 131.22189138325567 138.70327073807675 L 129.76970448481703 141.23350931920595 L 128.82628199908712 142.67538215984996 L 127.64351988812408 144.38513375491732 L 126.45339539327973 146.16914561300445 L 125.08129386984274 148.19557997971697 L 123.83573288664074 149.9739717015087 L 122.58918177793961 151.74702825646705 L 121.37173023890782 153.44404222247755 L 120.15034338053624 155.0624797252407 L 118.98845342171148 156.48493935684508 L 117.8872707371315 157.85365664738032 L 118.5832818402408 159.2779036020447 L 119.53503410710329 158.6475296379662 L 120.60237920241383 156.39571267534623 L 121.79890963708914 154.23056172978195 L 123.42805371797603 151.63950368467346 L 124.52606905849713 150.05228229869186 L 125.81284272255387 148.31098061652688 L 125.9443585541888 147.78980271222596 L 126.56541725794506 148.67328957098226 L 128.4588796500803 149.0450849115528 L 130.48510895344873 149.25914556879874 L 132.97969985084893 149.5272743021149 L 137.33940126667724 149.7898324122823 L 139.82421243595334 150.03872195615523 L 141.7113248223283 150.3357374963037 L 142.87237954556622 150.25321666436443 L 142.4903542514805 147.9894313476119 L 140.8966328384182 148.29914485636786 L 139.00770593893816 148.5165915005308 L 137.03001525140613 148.64229965178106 L 134.89349365234375 148.64179515838623 L 132.28110348382918 148.64316828908653 L 130.87499776068805 148.38266817438557 L 128.8647100876266 148.0818349933951 L 125.59886825658192 148.5148234528842 L 125.32069811172505 152.42803502859255 L 125.51642681544864 156.45525464565085 L 125.52604818344116 158.1123046875 L 125.5398018360138 159.95159912109375 L 125.55426907539368 161.92852783203125 L 125.57297265529633 163.98052978515625 L 125.59802615642548 166.28277587890625 L 125.62259697914124 168.25970458984375 L 125.64655268192291 170.174072265625 L 125.66496241092682 172.1510009765625 L 125.70764159073934 175.45296392247297 L 126.94308434938716 176.83565201854375 L 128.72769201780034 174.57328352833125 L 128.63073731551066 174.90494623377703 L 128.67341649532318 172.1510009765625 L 128.6918262243271 170.174072265625 L 128.71578192710876 168.25970458984375 L 128.74035274982452 166.28277587890625 L 128.76540625095367 163.98052978515625 L 128.78410983085632 161.92852783203125 L 128.7985770702362 159.95159912109375 L 128.81233072280884 158.1123046875 L 128.82195209080137 156.34101000278665 L 128.62156263046245 152.33539270578245 L 128.34339248560556 150.1676716643033 L 128.4985711623734 151.0010507487924 L 130.44946512993695 151.22573026311443 L 132.10427249273332 151.49074284372597 L 134.89349365234375 151.49211597442627 L 137.11427185796887 151.49161148103144 L 139.24180577981184 151.3670754916567 L 141.1700175522068 151.18413151081964 L 142.8892844203945 151.2185764648881 L 145.67620443880878 148.42927845282307 L 142.4799593573592 147.0454880896338 L 140.26184713435916 146.66684445009477 L 137.59712217082276 146.3902212986552 L 133.24222397727607 146.1272667135101 L 130.83935393717627 145.86988275151376 L 128.9044015999197 145.6835527837597 L 127.77296164830494 145.52983542901774 L 125.6211932036237 144.71166213152404 L 123.52004301963363 146.41765707878562 L 122.14202176181537 148.37996867787064 L 121.00737108671147 150.07094553407654 L 119.32352688634836 152.76003885615555 L 118.03531611008617 155.07425802777877 L 116.83398444758421 157.5770797370338 L 116.3453070269467 161.5511979604553 L 120.210263442556 160.07261288386968 L 121.48578974235102 158.53849814315492 L 122.70060876790126 157.0831501575718 L 123.99997386265468 155.39836500408495 L 125.26726353456039 153.66703424353295 L 126.54146437898426 151.8866240016163 L 127.81665534890726 150.08652451247053 L 129.21738097390778 148.03397938699555 L 130.40396546343842 146.26452444820768 L 131.59791233685038 144.54593131671254 L 132.63508067143297 142.95985005579405 L 134.20779611674433 140.20993726973575 L 135.27813147521724 137.5664151295204 L 134.95101270050532 134.10559685594424 L 132.2166230409755 132.84274268874623 L 129.5309182644832 132.9104963295689 L 127.31419963593748 133.25999721088021 L 124.98155246373969 133.84304630684176 L 122.75525194981707 134.85125531940935 L 120.56722881375744 136.05700830290422 L 117.25643002076136 138.8652365064851 L 121.61616767291372 139.85741321475894 Z" fill="black" />
<path d="M 147.66752781037232 131.10933696292017 L 147.0494282242537 132.87518145492172 L 148.3536842377168 132.8891435680801 L 150.27388393999738 132.4589492230085 L 153.8216047562253 131.79866627741663 L 157.6093444517673 131.04528941237692 L 159.8881068742969 130.47705750411032 L 162.68591071303274 129.6636078429481 L 160.8772598795082 128.31025158527922 L 159.390415229999 129.72653626987778 L 161.351772270001 131.79470396449722 L 162.9258407064293 130.30815661784578 L 163.20581291977976 126.5774810242394 L 159.1615757428906 127.3405694490147 L 156.9389953919827 127.82336293137308 L 153.2004899703372 128.52140208195837 L 149.61808383344012 129.187413081679 L 147.4330589263457 129.6831220569199 L 144.1279399398088 131.27362225601578 L 146.67878566619018 134.09049213864233 Z" fill="black" />
<path d="M 149.5781709064279 138.22695832371406 L 148.66491656682678 139.69510534769134 L 147.46397666223223 142.1539494482537 L 146.99190613082197 144.00463925379418 L 146.62927613700538 146.543259962499 L 147.90225813004344 149.84362957788983 L 149.85851527915042 146.80543889190048 L 149.85977762830024 144.77213252579077 L 149.99635123755812 143.1105433910053 L 150.22911238042366 141.6711328879722 L 150.81543918505827 140.64192828562744 L 151.5327989129527 139.8772181600135 L 153.1379190806842 139.3150896169593 L 154.4449632356498 139.1711305939535 L 157.40020751953125 139.17261934280396 L 159.60058519732218 139.16077932452924 L 161.60901977563745 139.28912555155583 L 163.03935159317155 139.62179024334978 L 163.98159123555115 139.63689492358307 L 163.58508076561802 139.77849858610588 L 162.97212914169114 140.94011707741484 L 161.49322954331893 143.26213656035216 L 160.5542361826667 145.0963542678007 L 159.73681996432828 146.47238608935183 L 158.80336888912285 147.6684464562187 L 161.03855005618965 149.4375105750313 L 162.08568980129672 148.13112953564817 L 163.1048214345208 146.6043293259493 L 164.14641889418107 144.88508023652284 L 165.69242163955886 142.57758311789766 L 166.66394267188198 140.71124750764412 L 166.55551813944885 137.69977499829193 L 163.93269430526595 136.51370780352522 L 162.05003784155005 136.07061565938167 L 159.70117261517782 135.92369333172076 L 157.40020751953125 135.91185331344604 L 154.3056471159127 135.9133420622965 L 152.2997029896283 136.1697736642907 L 149.7995985479848 137.184183207174 L 148.28429226025423 138.92191448781006 L 147.43018937738884 140.7955419167153 L 147.12278938744188 142.7844761402447 L 147.00728780138726 144.67635380233423 L 147.00855015053708 146.59690485809952 L 148.42464616683156 146.98705889867267 L 149.55358519111962 146.7339617171885 L 149.87515929886553 144.54296816808082 L 150.19532509558027 143.2155573876838 L 151.22705120661072 141.06990930074616 L 152.0423124920096 139.76034636378594 Z" fill="black" />
<path d="M 150.6121826171875 149.19195175170898 L 150.06818989139978 149.5032384710832 L 150.71137841019407 152.14165720661939 L 152.7903982385397 151.73705943899992 L 155.39866891221703 151.34655540986643 L 158.1765982062067 150.92699124068287 L 162.16474668811435 150.50417157216833 L 163.99346812209782 150.30022684031786 L 165.5926513671875 150.26521921157837 L 165.5926513671875 147.36625051498413 L 163.87884633102718 147.33124288624464 L 161.89042909313565 147.40256670908167 L 157.8121713250433 147.75550387650463 L 154.93641409559547 148.13672095732107 L 152.2511056677103 148.52197376412508 L 150.22490088668093 148.91815724650561 L 147.84318706172522 151.8318445367293 L 150.6121826171875 152.14313125610352 Z" fill="black" />
<path d="M 146.23343313670276 160.59345278368392 L 144.75581034056486 162.45042574511365 L 144.30467915131393 165.00953216654239 L 144.4100843572548 167.72801231889684 L 145.27870810948727 170.40832479250636 L 148.02329384363773 169.53942911374364 L 147.3074449396202 167.21485877485316 L 147.26880717681107 165.17870025533261 L 147.46586934693514 163.65882718457385 L 148.50899850392224 162.48784604444108 Z" fill="black" />
<path d="M 148.9748608374907 160.07568656135007 L 149.66932843417788 159.08576571658315 L 151.56126655386265 158.27783324897865 L 153.5965658213852 157.2976977613882 L 155.9101671516011 156.3027728888301 L 158.3620439366031 155.63030118451934 L 160.76625347477764 155.19930975303117 L 162.91459071720007 155.08890913634292 L 164.67343662031084 155.08931251178157 L 164.92349947339267 155.20847053908597 L 164.7765707080142 155.96090257671244 L 164.776371717453 157.912109375 L 164.77876818180084 159.62628173828125 L 164.78542983531952 161.465576171875 L 164.79639339447021 163.3173828125 L 164.81516259927793 165.30142773681223 L 164.73017197214205 166.84201948983386 L 164.51434590230005 168.8809042619994 L 164.22439845849576 170.82450476577546 L 167.10494724462924 171.37544640609954 L 167.57122538676245 169.3651894880006 L 167.89556044973295 167.17494828360364 L 168.06264501790957 165.41231738037527 L 168.08141422271729 163.3173828125 L 168.09237778186798 161.465576171875 L 168.09903943538666 159.62628173828125 L 168.1014358997345 157.912109375 L 168.1012369091733 155.90945875141256 L 167.84627591723233 153.63393668747653 L 165.57558681718916 151.90128807415593 L 162.86910068904993 151.77656937928208 L 160.37205218928486 151.91641290321883 L 157.6267255946469 152.41132479204316 L 154.8210340202739 153.1902691033574 L 152.2371744129898 154.2973950120493 L 150.16724907113735 155.29418823539635 L 147.70188738613462 156.46318447872935 L 146.4157641625093 158.25097359489993 Z" fill="black" />
<path d="M 148.36151123046875 166.88209855556488 L 147.60788647478302 168.05099138307023 L 148.83360687255163 168.35773538375042 L 151.33140050924615 167.2650837717151 L 152.82185205172885 166.78501687023166 L 154.4310181468211 166.39949814318368 L 156.16196009369568 166.0620509445332 L 158.06401027546096 165.705400046256 L 159.613017904296 165.56575008268283 L 161.13087307578493 165.48209557061088 L 163.80837744310665 165.46154321873126 L 165.4788884504693 165.3785285912588 L 164.768939380375 165.6416960514724 L 167.6047178461875 165.9979523860276 L 167.2908869401557 163.1080436743662 L 163.95590478345585 162.49951635158124 L 161.08775485390257 162.47896399970162 L 159.4366647128915 162.52043155794217 L 157.67268406047654 162.631025734994 L 155.61355260161682 162.9500340164043 L 153.7794310719289 163.26322158337882 L 151.96757665920865 163.67848410633084 L 150.14503992044135 164.2494425954724 L 147.24122222901087 165.53411031937458 L 144.50576098615448 168.74368635130477 L 148.36151123046875 169.91257917881012 Z" fill="black" />
<path d="M 148.67956461136254 172.73430265525542 L 148.12371870842767 173.63544205367802 L 148.76415573926306 175.28345057952666 L 151.25413847902357 174.83612679397405 L 152.74810215720387 174.65015400291878 L 154.45760089781774 174.50195826151216 L 156.18376797904676 174.2830918823703 L 158.1081140333598 174.05729844141555 L 159.71510443904785 173.84249588552257 L 162.78022641925102 173.41207781225938 L 165.36164326053736 172.88147866908827 L 167.07898561248984 172.23627930409577 L 166.08690794219766 169.56328124277923 L 164.63530498165014 170.09422933872423 L 162.31926088543648 170.48953351586562 L 159.33457817813965 170.85989669260243 L 157.7726232713277 171.02046034764695 L 155.84381991157824 171.1950575316922 L 154.14896648499476 171.37658177755034 L 152.43744471779613 171.50365459083122 L 150.76246308347643 171.69304801071345 L 148.10290969042444 172.17162754547334 L 145.17828324469733 174.74553939163448 L 148.58361898238746 175.77180086036958 Z" fill="black" />
<path d="M 158.12761196827628 155.93054040222208 L 155.9416607061203 156.62596586383106 L 154.24002260369244 158.93321513255933 L 153.84512511264083 161.06457178247044 L 153.79736711871715 163.23622238551192 L 153.82274263367452 165.7730841590616 L 153.93801437369797 168.6458441483256 L 154.39709630529387 171.37538979971674 L 157.23437342126863 170.94968344247076 L 156.90121902473953 168.3990777266744 L 156.90845853820048 165.7414422081259 L 156.93383405315785 163.27342116917558 L 156.99410828579667 161.34106786596706 L 157.13937192755756 160.19422627369067 L 157.8144428095047 159.07313081585644 L 158.94147982859872 158.84265295715292 Z" fill="black" />
</svg>