<svg xmlns="http://www.w3.org/2000/svg" width="300" height="300" viewBox="0 0 300 300">
<path d="M 144.43086347411585 93.63840869861149 L 142.23228680302964 94.26758031680477 L 140.77651358462757 96.65062298825498 L 139.73899871478784 99.04853358880338 L 139.0885325169835 100.77032807070682 L 138.17449757881909 102.84886398750423 L 137.1923453884716 105.14068309016709 L 136.0804916778698 107.55991621200108 L 134.92379228179612 109.97585991773099 L 133.68012946429914 112.37617982015327 L 132.52225217920602 114.53904085538144 L 131.30591432515976 116.7571437324828 L 130.4570920155562 118.12140343534968 L 129.0222635186285 120.07576596317176 L 127.71268419051353 121.56899516909266 L 129.89595838761147 123.55026752621984 L 131.364089020434 121.98258364620324 L 132.9572146250688 119.86773230683782 L 133.96019895609024 118.3151218925172 L 135.24630250829398 116.03188199618106 L 136.44072014507586 113.83744322672173 L 137.72452314789138 111.37631293383151 L 138.9201186736927 108.89479570206142 L 140.0604622287159 106.41656788639541 L 141.05523874930591 104.09901198905827 L 141.9930104517665 101.96429106991818 L 142.64381378521216 100.22905430182162 L 143.58322762630993 98.01758990237002 L 144.25452960322036 96.58349390194523 L 145.08390703369665 96.52846141857601 Z" fill="black" />
<path d="M 143.36525975365115 99.11835623262698 L 144.6709424899288 99.08534205302325 L 146.34393881548286 100.189661451024 L 148.22682086261113 101.33438148046554 L 150.67500319695034 102.65436767173445 L 153.30588594583756 104.18167198895611 L 154.76078294535034 104.97594699993951 L 156.1865737352098 105.80683059053696 L 157.7911890274717 106.7563421143302 L 159.54406779833928 107.69237631135829 L 161.04106622605323 108.47344004507542 L 162.4756156063619 109.2858638401715 L 166.21860185449577 111.0859320020417 L 168.29906348500268 111.94949133057864 L 172.12773406684013 111.08182197399438 L 170.26839191417014 107.97776196645276 L 168.01896160145486 109.80934740854724 L 169.06245148003487 110.27035087756812 L 169.18750878062232 108.86252038817136 L 167.58938154394173 108.1416070604583 L 163.9501656436381 106.376611745766 L 162.60700506300927 105.60456288461208 L 161.07604938916072 104.80115396207921 L 159.4005834334658 103.9006403075448 L 157.8521225538527 102.97759323758804 L 156.37508131246216 102.11597194537299 L 154.92714628072494 101.32577430010639 L 152.27787766242466 99.79216553139055 L 149.84629925457637 98.48336754297196 L 148.05059243451714 97.3954215567885 L 145.6195848538212 95.97898900166425 L 143.24667872291135 96.09001779081052 Z" fill="black" />
<path d="M 146.77596759439243 108.85875137444312 L 143.59396794900417 108.83344090644135 L 144.96004481041433 112.18466099293856 L 146.1642036925292 112.85293948368414 L 147.06425462000612 114.12767555835646 L 149.43232741124388 112.48206565258104 L 148.2303275574708 110.73189938350336 L 146.65677647864817 109.67166224924894 L 145.52041193380833 111.18633448418365 L 146.29226971029507 111.80921737555688 Z" fill="black" />
<path d="M 141.74908467689514 117.1961993840988 L 141.81267385121726 118.42526038363327 L 142.69070553204048 119.33631362793385 L 144.08947863715974 118.59360686629837 L 145.8913868617088 117.95272845433266 L 148.07837451454637 117.39456998539909 L 150.67899397141608 116.87140423999261 L 153.3070829570781 116.54855402730773 L 155.82021412347063 116.26486751871833 L 158.9836128677449 116.05057159386419 L 159.17917666970698 114.03325459240912 L 158.65816109757904 113.25166857644506 L 156.52751543428573 113.62582335311387 L 156.98566815946427 116.44094910782363 L 159.05912405867096 116.13089978292994 L 162.09157528341802 114.95319560290338 L 158.8587943588176 112.93587860144831 L 155.56589427496687 113.11770084065667 L 152.9490205585469 113.37417546487977 L 150.17183610670892 113.69951861156989 L 147.36718212607863 114.25667513178841 L 144.9496775914162 114.88687115504234 L 142.79772839409026 115.68642243057663 L 141.01840091327202 116.67223129394115 L 138.99360056284524 119.67190758511673 L 142.48553446372986 120.0007000299637 Z" fill="black" />
<path d="M 146.63687240056186 117.13188364136082 L 144.42662019759334 118.6295035383943 L 144.18383457827812 121.79824002719421 L 145.58658526761062 124.0746349576402 L 147.63829109794014 126.20064708929068 L 149.13722454033595 127.38943345789193 L 152.55879370548485 129.6114620238497 L 154.56641380912396 130.45612317462326 L 155.76866919868854 127.84307116131426 L 154.09770043514015 126.9952274292753 L 150.91282428778905 124.85995619054557 L 149.78419425362236 123.92410877008432 L 148.00716473238938 122.0889392611098 L 147.18274257015938 120.94431368374329 L 147.06507902115666 120.1518685319182 L 148.15804947443814 119.66889760863918 Z" fill="black" />
<path d="M 153.84661145482528 117.30705477039615 L 150.4358445038512 116.6481019486256 L 149.1337840949948 119.80821411423526 L 148.5591852418798 122.0331423859083 L 147.78378292573052 124.26604138721142 L 146.20175224812382 127.66900839934313 L 148.84341376750118 128.9376810537819 L 150.56460574614448 125.46259630810108 L 151.4908635862452 122.9420773406542 L 152.1174366081302 120.55763061232724 L 151.8664015898988 119.3604429732494 L 152.93500475611222 120.14191983897885 Z" fill="black" />
<path d="M 136.05627049201817 121.84329049330027 L 135.38694407360114 123.77522411903855 L 135.43640374937885 126.02868140455024 L 135.63802690815936 128.04862920374654 L 135.77638016620833 131.89914940015893 L 136.33789246228528 136.0982158790581 L 140.37931461762588 135.09550051601087 L 141.87642971253734 134.28722173273252 L 143.78127319466128 133.565172197574 L 145.98317609539268 132.89684621727866 L 148.57578091634073 132.4606095765867 L 151.45972087343935 132.27033325063488 L 155.56793212890625 132.2668994665146 L 158.3331298828125 132.26444458961487 L 160.4913606166193 132.25833069986223 L 162.48157044111514 131.9465673892612 L 164.42978054278768 131.25299567430557 L 166.24261606735936 129.7831564558866 L 167.5724556086404 127.84536083184634 L 167.69446821760147 125.01848433393316 L 166.87840682620327 123.25010654395261 L 166.20201051517853 121.24527577607667 L 165.68512332365384 119.0933525508361 L 165.46598613881818 117.59498641668308 L 164.96213886047124 114.27676293073037 L 161.86403301452876 114.70968726458213 L 162.28608905649432 118.01744034112942 L 162.44231808259616 119.6880195194764 L 162.97645628169647 122.14547129423583 L 163.75147598629673 124.49794033104739 L 164.38683061052353 125.64643265825434 L 164.3837211491721 126.88877002752866 L 163.86175404982814 127.4717263566134 L 162.77175754314982 128.37859612256943 L 161.69201354325986 128.7293359310513 L 160.2538786411932 128.95773375326277 L 158.3331298828125 128.95161986351013 L 155.56793212890625 128.9491649866104 L 151.36803791562315 128.94573120249012 L 148.19606966959677 129.1515730406008 L 145.23325456866982 129.65161569678384 L 142.70554321158872 130.4237194039885 L 140.50638278746266 131.28614252507998 L 138.85042171049912 132.20637936680163 L 138.28735167833972 133.5803729881294 L 138.84886397441667 131.83766700609107 L 138.71194867777814 127.87385614781597 L 138.51318121155865 125.82459007982476 L 138.43751881702386 124.22489795127395 L 138.94433985954433 122.87985403794973 Z" fill="black" />
<path d="M 150.34806344634185 133.22468674684094 L 148.08352161380364 133.53616109175866 L 146.77794462115818 135.57803111125938 L 146.0028778368456 137.60144388973842 L 145.3282566527439 139.68592144187232 L 144.48504827966647 142.23940757234053 L 143.96671934281136 143.66563216077034 L 143.4363678412338 145.21547735026033 L 142.83743818043632 147.0068582182757 L 142.31777805179317 148.58583172879514 L 141.80203035825966 150.07994347650617 L 141.29336148378164 151.50206179769097 L 140.33736109610868 153.93409298619318 L 139.66950393848768 155.38125718323383 L 140.7715211506702 158.17935199708222 L 141.7159207530424 157.69340166551578 L 144.52454326157329 156.89302720311332 L 146.71703846481796 156.1667037063309 L 149.2874166938537 155.36265288811106 L 152.00969201731363 154.41979109678556 L 154.52428910695988 153.5184084554799 L 156.893109664467 152.58612038433543 L 159.30938053900897 151.42893650466965 L 160.93807615506822 149.31724782199248 L 160.86514439625304 145.57775700079725 L 157.77902543881473 148.63484055528963 L 158.1001127309113 150.43461795412452 L 159.07051812450982 153.4065493766546 L 159.72477908333687 155.10970529467178 L 160.21316708432957 156.95561346552287 L 163.03451357973293 156.29597344853963 L 162.62202267447563 154.28873220532822 L 162.07511175830268 152.4268246467829 L 161.1937105112762 149.60102657712548 L 160.98928510806027 148.37590163221037 L 157.77804408030946 146.39148128045275 L 158.10550294649428 148.73780588894502 L 157.63214778130353 148.85878322189285 L 155.6941706089705 149.68219016253957 L 153.43347456491512 150.4784177163951 L 150.94318884206137 151.30555070008944 L 148.2601907280213 152.19923676032644 L 145.70056407424454 152.9796585983566 L 143.53881123061421 153.69376478907418 L 140.4166476063326 154.62190595167172 L 138.1829466227673 156.26058940916778 L 142.06267379588732 157.47421156676617 L 143.24662327889132 155.21226931849432 L 144.26755160215586 152.63880734293403 L 144.80990811830284 151.14405554693133 L 145.34518581539433 149.61326495089236 L 145.87655107737618 148.0232931489118 L 146.4787932915787 146.24961054036467 L 146.99946718062614 144.73854264391716 L 147.53216363439603 143.28390785734697 L 148.3906154175686 140.68785785500268 L 149.0422881787794 138.66711079776158 L 149.71863741009182 136.87338490436562 L 149.86447643307136 136.14242777542884 L 150.62788870209565 136.16581618284656 Z" fill="black" />
<path d="M 137.15969299969103 140.68445900199427 L 135.18872218608553 141.30336701907 L 133.46400839040896 143.20829433937854 L 133.00935133242567 145.82253231483483 L 132.87625335402015 148.12350493717142 L 132.87861967086792 150.81005859375 L 132.8871876001358 153.78094482421875 L 132.9030146598816 155.43743896484375 L 132.91397511959076 158.13824462890625 L 132.93743300437927 160.6409912109375 L 132.9587697982788 162.89166259765625 L 132.97585344314575 164.40411376953125 L 135.84372663497925 164.40411376953125 L 135.8608102798462 162.89166259765625 L 135.88214707374573 160.6409912109375 L 135.90560495853424 158.13824462890625 L 135.9165654182434 155.43743896484375 L 135.9323924779892 153.78094482421875 L 135.94096040725708 150.81005859375 L 135.94332672410485 148.20303314876608 L 136.06047288632433 146.14670596641517 L 136.28147500802854 144.40364413718396 L 136.78393406391447 143.823830246555 L 137.99106383624647 143.50645896675573 Z" fill="black" />
<path d="M 135.70026230812073 155.0953369140625 L 135.71076476573944 152.466552734375 L 135.73470723628998 150.81005859375 L 135.75071322932996 149.3862847505906 L 136.05496349573585 148.73402395157552 L 137.08724483172932 148.0780453157264 L 138.60601702274414 147.6636296101789 L 140.14859848455106 147.12881581772515 L 143.10211334613612 146.13543593965244 L 146.64718028311708 144.67748492055466 L 149.40131662551877 143.49391615153945 L 152.06170297706004 142.44831326992497 L 154.72538411424782 141.472852274877 L 156.101980654893 141.031355825537 L 158.11392951283298 140.46789939833377 L 159.8274249029244 140.17823978856103 L 161.39458588354026 140.11714390371708 L 163.14475369634323 140.11560271195407 L 164.768989705068 140.2557060440708 L 166.8233057285818 140.2963720880475 L 168.08133479498647 139.44960538665273 L 167.42702715559116 140.5371102230594 L 167.48845326883273 142.13837838928782 L 167.5493179605916 145.3922521505381 L 167.68640990893797 148.11142687636914 L 167.8111752856415 151.29781659051287 L 167.9296246115689 152.92969990301765 L 168.04935897280055 154.4814056637404 L 168.12131477258532 156.0620022357198 L 168.2454734179713 157.79963689140536 L 168.37787062115967 159.47236896763414 L 168.4337915066125 161.41963224521731 L 168.49374394924897 163.08336807305895 L 168.5549222646468 164.68038658197497 L 168.69239615210688 167.463833006338 L 168.82737544474088 169.9359355566368 L 168.8183195590973 171.408203125 L 169.2910252660021 171.7966019418162 L 169.30238130173677 171.29500592381626 L 166.82243510907693 170.63138921746415 L 164.2280762103342 169.7791079004903 L 160.53091213104221 168.2130703942395 L 159.28842380645779 170.894229410448 L 162.9734618756033 172.7492124120097 L 165.78437641436057 173.87752191534835 L 168.70970365920073 174.69034563868374 L 171.7740382105604 174.1887496206838 L 172.2467439174652 171.408203125 L 172.23768803182162 169.8195576074257 L 172.09739876976812 167.286166993662 L 171.9596041025407 164.52395912115003 L 171.89566034762603 162.95203231756605 L 171.83049071995 161.30277986415769 L 171.76128953509033 159.28886150111586 L 171.6184181835912 157.54057306953214 L 171.49233268835218 155.8571872174052 L 171.41414200376195 154.2688384768846 L 171.2836322243686 152.65159892510735 L 171.1268129956085 151.11453692511213 L 171.00133423168703 147.96303601425586 L 170.8631576253459 145.2805994119619 L 170.79890024679227 142.05253957946218 L 170.73520428972134 140.4848624331906 L 170.08089665032603 136.81894930084727 L 166.4591649745432 137.01649412289 L 164.960014201182 136.9491279403042 L 163.28102755365677 136.80114533492093 L 161.32758208520974 136.79960414315792 L 159.4663983392631 136.88255122706397 L 157.37618279185452 137.24108497666623 L 155.159005673232 137.8659830416505 L 153.63277018262718 138.3607658891855 L 150.89117788231496 139.36589571445003 L 148.14629079635623 140.44492662189805 L 145.37003163094542 141.63806683725784 L 141.93328704448888 143.06097519316006 L 139.08113784357394 144.04818613539985 L 137.59576520381836 144.5936946085711 L 135.68619266827068 145.2235904264611 L 133.69051990270165 146.69224557967448 L 132.79359829410754 148.8128119290969 L 132.80960428714752 150.81005859375 L 132.83354675769806 152.466552734375 L 132.84404921531677 155.0953369140625 Z" fill="black" />
</svg>