<svg xmlns="http://www.w3.org/2000/svg" width="300" height="300" viewBox="0 0 300 300">
<path d="M 140.57392778902494 108.16524790232668 L 138.00028491895947 106.93935755447028 L 138.22786128755664 110.30073874657474 L 140.44866787238098 112.08901619207727 L 142.56814791338462 114.16014871800297 L 143.77836646852776 115.44028196795132 L 144.90981941067406 116.81921472334943 L 145.58463623731188 117.93293287899706 L 146.0038042022391 119.36445302386578 L 148.7386274383859 118.55876474957172 L 148.22151610643812 116.81218430850294 L 147.31186027682594 115.17321691727557 L 146.06660423459724 113.52419557111118 L 144.79208157880288 112.02661886012203 L 142.55426181511902 109.74350333917273 L 139.87760746244336 107.57792336280026 L 136.28804515916553 109.61301060959222 L 139.36808881253756 110.88956166798582 Z" fill="black" />
<path d="M 131.65252685546875 122.31011581420898 L 129.2218017578125 125.3589768409729 L 132.51678466796875 125.42230010032654 L 134.20249588319606 125.43124207210565 L 136.27034391134342 125.3678907931678 L 138.59483039463686 124.94822902288463 L 141.01078148597813 124.41474130958602 L 143.52266403154297 123.82455571773599 L 146.096665918538 123.22234995881202 L 149.14783239045303 122.50436028450528 L 151.85132532408164 121.8342929588706 L 154.58722578575552 121.17267547843636 L 157.19294654614947 120.64744818086305 L 159.62091241171422 120.17956727184331 L 161.80151484278718 119.78697247364416 L 165.17269902023793 119.31379089976751 L 166.51092529296875 116.057865858078 L 164.6156525848361 116.25323091396933 L 162.31301814517693 116.93292185216956 L 159.45055070250132 117.94163561255526 L 160.39136824281118 120.63221692650724 L 163.18258732357307 119.66400197595544 L 165.1292204620389 119.16754545321817 L 166.51092529296875 119.2127640247345 L 164.82424922194957 116.10698546741999 L 161.31738164158782 116.55970721385584 L 159.03265204141078 116.94286925159419 L 156.56315696947553 117.40089166288695 L 153.87529862830698 117.92668975593864 L 151.06554479310586 118.5913662208169 L 148.36742639860947 119.24759284049472 L 145.332777440837 119.95599476775048 L 142.75724319501953 120.55496088382651 L 140.26363257652187 121.14092275291398 L 137.92616569911314 121.65846043024037 L 135.89335237771908 122.0395799099572 L 134.14406173399144 122.10135070133185 L 132.51678466796875 122.11029267311096 L 129.2218017578125 122.1736159324646 L 131.65252685546875 125.22247695922852 Z" fill="black" />
<path d="M 134.49579784675078 118.77524256656883 L 131.99168633454696 119.31107908706292 L 129.88143701711346 121.37576748634432 L 128.72756945103214 123.66274602062857 L 127.90971087639124 126.82258502208835 L 127.63168446933888 128.9606447417376 L 127.28237910379929 131.41227552935857 L 126.94867441241021 134.33487114697257 L 126.62322430062022 137.22623944609487 L 126.22772910978868 140.369562311031 L 125.75964379809713 143.71605476793474 L 125.292256521209 147.1993727522187 L 124.77689097769307 150.67718302130612 L 124.1870848682399 154.22425826706703 L 123.60387710025068 157.9571476258783 L 123.02528727639672 160.88163562396676 L 122.44908181243542 163.69807304993665 L 121.87701707197918 166.16734879103038 L 121.30736812156245 168.44298271292968 L 120.73288368578072 170.5511969565852 L 120.1573878715863 172.7393267333152 L 119.79970042551687 174.12104949205212 L 119.16956850876117 175.84580584696863 L 121.95286801467633 176.88942364521887 L 122.65513355885813 175.06071320326038 L 123.0896824409137 173.5396039307473 L 123.70254111890678 171.3734856606023 L 124.31641117531255 169.25257392769532 L 124.93511671708332 166.92371566209462 L 125.55140646881458 164.38810859068835 L 126.16355549704078 161.52400402447074 L 126.77332016537432 158.5177058897467 L 127.3784668895726 154.74327102980797 L 127.97701527230693 151.18341268181888 L 128.5059612522285 147.6543870134063 L 128.97485327221537 144.15589347425276 L 129.44304725739883 140.7958429624065 L 129.83978839469228 137.60798906953013 L 130.1625316422773 134.69369330615243 L 130.4770203102632 131.81062486126643 L 130.8119190462861 129.3824949066999 L 131.03804302985876 127.44157513416165 L 131.69662488490536 124.67062800280893 L 132.37930517038654 123.12887118553068 L 133.43800116545304 121.89033692856208 L 135.03911426262422 121.65041661311867 Z" fill="black" />
<path d="M 136.03530944511184 138.21184188699436 L 137.41771698594755 137.15300891410797 L 140.3231169419117 135.98994496793364 L 142.8071163437047 135.1534091461933 L 145.06875002543885 134.51626949367522 L 147.23915010334863 134.11327485419048 L 149.15055697314492 133.75894177531075 L 149.84862534092858 133.58306543317156 L 149.25110610438392 130.69086034807844 L 148.61677701123008 130.79025256062675 L 146.71104520915137 131.08655424737202 L 144.38010251362365 131.48434085788728 L 141.8883182266078 132.1484707366192 L 139.2227814955883 133.03861948519136 L 135.93433379530245 134.37799694526703 L 134.14779602363816 135.82160537863064 Z" fill="black" />
<path d="M 143.11699139339356 125.96906060207549 L 138.9162251182672 125.47040921892899 L 138.36544060707092 129.834716796875 L 138.3649559020996 132.47479248046875 L 138.3697714805603 133.98876953125 L 138.37770080566406 135.62786865234375 L 138.3902473449707 137.47967529296875 L 138.40453350543976 139.05621337890625 L 138.4198658466339 142.0966796875 L 138.46403443813324 144.53656005859375 L 138.5074987411499 146.43841552734375 L 138.5358383655548 148.152587890625 L 141.4061782360077 148.152587890625 L 141.4345178604126 146.43841552734375 L 141.47798216342926 144.53656005859375 L 141.5221507549286 142.0966796875 L 141.53748309612274 139.05621337890625 L 141.5517692565918 137.47967529296875 L 141.56431579589844 135.62786865234375 L 141.5722451210022 133.98876953125 L 141.5770606994629 132.47479248046875 L 141.57657599449158 129.834716796875 L 141.0257914832953 127.86784761700851 L 142.37067950504394 128.820612249487 Z" fill="black" />
<path d="M 138.31355400172245 137.74470219255727 L 136.45162030916953 137.66218121167475 L 133.585506777317 138.1523923948355 L 132.56849263599614 141.13131178701718 L 132.53209280505976 144.58333092319347 L 133.10895307962946 146.55483667209836 L 135.88579789693304 145.79648168727664 L 135.52637887462774 144.33964270961903 L 135.63402201244136 141.48550950204532 L 135.661319394558 140.4855470582895 L 136.50431230801797 140.72551410082525 L 138.20744209202755 140.76811519025523 Z" fill="black" />
<path d="M 141.00169602341987 139.10027256238914 L 140.5602142859716 142.02511612144 L 143.7013520542869 143.73854274429317 L 145.99525669646854 144.16957544168875 L 147.71072996789428 144.18091471443182 L 147.82393800085572 141.31371419181818 L 146.37046595978146 141.19993139424875 L 144.7031889613381 140.85520725570683 L 143.0909087609034 140.316436612935 L 143.83778151564263 140.21332607042336 Z" fill="black" />
<path d="M 153.34727075111152 135.939740843502 L 155.3976541889546 135.85939649007813 L 157.5537362336897 135.37886718324262 L 160.78531994257952 134.84640797589273 L 163.01902178282657 134.54389200238495 L 164.82773160648867 134.21283737316443 L 166.48787098747954 133.71103550540988 L 165.48966807502046 130.83815883052762 L 164.12490511226133 131.38738235339807 L 162.62062665467343 131.58184041949005 L 160.35298572148298 131.80483714129477 L 156.9946036100603 132.32340332456988 L 154.9374288188579 132.76877733804687 L 153.13466284263848 132.9637015393105 Z" fill="black" />
<path d="M 157.95653887914395 124.37805886528623 L 155.90312724839228 125.60314131935229 L 155.4962866007831 128.01225397520145 L 155.49200212955475 130.82318115234375 L 155.49200212955475 133.38818359375 L 155.4955621957779 136.42864990234375 L 155.50847733020782 137.942626953125 L 155.51886200904846 140.845458984375 L 155.55226049702065 143.5058091888748 L 155.49223600925356 145.12183781580765 L 154.96329675520755 147.11064258639337 L 157.74849523697995 147.89326366360663 L 158.40791047512144 145.65294245762985 L 158.59996118266685 143.5903822173752 L 158.63335967063904 140.845458984375 L 158.64374434947968 137.942626953125 L 158.6566594839096 136.42864990234375 L 158.66021955013275 133.38818359375 L 158.66021955013275 130.82318115234375 L 158.6559350789044 128.10371282167355 L 158.50116962660772 127.33472489158521 L 159.36462811304355 126.98326925971377 Z" fill="black" />
<path d="M 154.7838615817811 136.41093873659332 L 151.89468342167072 136.596464383581 L 150.28688241881474 138.77778398426176 L 149.834413411444 140.92963747141536 L 149.65774620748437 142.9277701893717 L 149.69698011875153 144.7242431640625 L 152.57169663906097 144.7242431640625 L 152.61093055032813 143.0923714121908 L 152.830381510431 141.41191526295964 L 153.17014883118526 139.86015546886324 L 153.14682048457928 139.4139115929815 L 154.8670173244689 139.47431516965668 Z" fill="black" />
<path d="M 158.92271166421162 140.51832064136494 L 160.37251753215833 141.0730697603629 L 162.00291072391644 142.18199576475521 L 164.08015252221654 142.95601451027085 L 166.68629990609068 143.3520899842893 L 168.56353759765625 143.28261029720306 L 168.56353759765625 140.38523638248444 L 166.98374403922182 140.3157566953982 L 164.87248419653346 139.91105091941665 L 163.49269474483356 139.35877571961979 L 161.84611039752917 138.2405288724496 L 159.98292798422588 137.59410611644756 Z" fill="black" />
<path d="M 149.06817990327193 149.76462628870783 L 145.75027356708526 149.36182462630262 L 143.6293883977672 151.58582312135877 L 141.98267283179072 154.32530850376781 L 140.70445197517083 156.6539832694773 L 139.41540945693563 158.98449558410618 L 138.0820314126888 161.0780062798882 L 137.08989923440734 162.4209082232965 L 136.73182273833842 166.3182824380977 L 139.9834957805516 165.06787878344764 L 142.53848965053308 163.41231255784726 L 145.14584434940696 161.61363588066249 L 148.03800124791098 159.77676695908005 L 150.80017048831814 158.2837990263474 L 152.29589897914042 157.59547016870513 L 154.9214751693365 156.66139212387887 L 151.81828748076174 154.3790865191671 L 150.28067350269652 155.6059669122025 L 148.43856275794178 157.50055924422432 L 147.04776563372562 159.30251738460365 L 145.57787121582572 161.2930506335716 L 143.92486660756128 163.55210338471556 L 142.982394213233 164.93335182403953 L 141.27244677556362 167.30963394516252 L 139.1468492021272 170.3664225726355 L 138.09792704713203 174.2369603758195 L 141.97715540274507 173.2718890598118 L 145.17400841148063 171.15965424618324 L 147.06954251501884 169.96393844129034 L 149.27125030379352 168.52560773819795 L 151.2734996109354 167.0910695834206 L 153.20385322488752 165.68599738512552 L 154.8793776059721 164.3875943668664 L 156.90547342595613 162.9278049380171 L 158.53410136165732 164.11791528869148 L 159.91745124199338 164.78038741335678 L 161.94928444723897 166.1920864715673 L 163.03862628056146 167.12344853969898 L 163.77372735964363 167.55680527422757 L 163.22636503813962 168.112652008587 L 165.72627168061038 169.582904632038 L 166.87141424191887 167.26094374920993 L 165.37384930537604 164.91659052280102 L 163.94243918557353 163.5957553253077 L 161.61697258613162 161.97950028195572 L 159.97542012271768 161.19055639099602 L 156.59855489435637 159.8782253354204 L 153.1870286440279 161.9719027034461 L 151.44153251729998 163.32608757581198 L 149.5547474593771 164.6737009243919 L 147.59581512589398 166.01687273055205 L 145.44022310998116 167.35625198839716 L 143.48260779945687 168.51283110537926 L 140.23353795662993 170.6297222683132 L 140.54770283568047 172.041970288243 L 141.8754896650603 172.208894810177 L 143.96314892756138 169.20977523452498 L 145.6742219977045 166.83141868377297 L 146.60430819712622 165.45998157622194 L 148.22828112792428 163.2396642101784 L 149.67525682721188 161.27634003727135 L 150.91324388268322 159.64995345108818 L 152.52816438792848 157.9660545721725 L 153.36725939423826 157.2160062542704 L 153.4330170181635 153.88267525893363 L 151.16113227085958 154.92552592504487 L 149.48791544918186 155.6886130830276 L 146.56038742396402 157.22359925185745 L 143.51077186153054 159.09034361152501 L 140.86055820102942 160.84513373121524 L 138.3740481647609 162.36766809155236 L 137.80858253509908 163.2193152181523 L 139.68317205465516 164.4641015423285 L 140.8156736654362 162.9291958685493 L 142.25512276962687 160.66845851745632 L 143.59486443107917 158.2443321602102 L 144.83739552758428 155.96851473841969 L 146.3596252741078 153.42784875364123 L 146.75949205791474 152.49877107682238 L 148.69915408110307 152.74660418004217 Z" fill="black" />
<path d="M 153.79951186470336 167.04951463974177 L 150.32181483038892 166.07714361669932 L 149.04334969854952 169.26009975090528 L 149.02054621265356 172.2989514628366 L 149.28977658974182 174.68906152346122 L 149.6736262886466 178.66427048693197 L 149.86828593844254 182.82440800586372 L 149.94132636593744 185.6871695487419 L 149.94469332695007 187.9664306640625 L 149.95010471343994 189.88079833984375 L 150.94700758580865 190.08578997920029 L 152.9426239499452 189.69501239658328 L 152.466460333133 188.03631477291324 L 152.04657868605898 186.2146121509878 L 151.43699811214663 184.19039542985425 L 148.70704485660337 185.01089851545825 L 149.28581877487852 186.9405392161997 L 149.6581734559295 188.69732780521176 L 149.9742461672423 190.19170635341672 L 152.25794846887885 193.10415142704971 L 153.25485134124756 189.88079833984375 L 153.26026272773743 187.9664306640625 L 153.26362968875006 185.6411995918831 L 153.19262714749496 182.69829707226128 L 152.9911686332284 178.42520705213053 L 152.58278200400818 174.34255468747628 L 152.31185124828394 172.1281725606009 L 152.28904776238798 169.36136021003222 L 151.29866856804858 169.11597161767568 L 152.82646469779664 169.87028516494573 Z" fill="black" />
<path d="M 146.41174903732895 177.05780720343407 L 144.6469568039443 177.439534736167 L 142.8223094884699 178.52153125716777 L 141.08665514937388 179.95140316722294 L 138.76641086806154 182.67179712019833 L 137.43162212497123 183.92359343332225 L 139.48549213284127 186.20360383230275 L 141.06757350693846 184.82783666886417 L 143.35670422562612 182.14295718433956 L 144.6459522302801 181.07038768814473 L 145.8822180007432 180.3005775685205 L 147.14232811110855 179.90654826531593 Z" fill="black" />
<path d="M 159.19375510930942 175.73086019781317 L 160.5199783055723 176.67284730920449 L 162.52002066308276 178.08287277435466 L 164.56574192622682 179.39964506204936 L 166.22344264408568 177.01417329732564 L 164.30798226660474 175.57826003814534 L 162.3468429834902 174.08545347204551 L 160.90023903131558 173.17563394281183 Z" fill="black" />
</svg>