<svg xmlns="http://www.w3.org/2000/svg" width="300" height="300" viewBox="0 0 300 300">
<path d="M 123.49771370898053 134.12448951986488 L 125.46041622596366 134.4253831532786 L 128.37252276572235 134.00148150705735 L 130.1102837975115 133.60000998092625 L 131.85577900560688 133.3302123415879 L 133.77357383199853 132.97416164736123 L 135.71671699118784 132.6287596504407 L 137.67625060230398 132.34106518232218 L 139.52530139756655 132.05032629918688 L 142.54584886244166 131.6178923431557 L 144.40386767294066 131.3201651403748 L 144.00067334268434 128.4743905236877 L 142.14958570787084 128.7021760162193 L 139.12032848524595 129.07052331018812 L 137.26027283519602 129.30529712236532 L 135.25862480568716 129.5431153495593 L 133.24058632425147 129.84834811826377 L 131.34124247876812 130.1679566037246 L 129.521674210301 130.42367165969875 L 127.80240399209016 130.79795696950515 L 125.31289920372384 131.1748365732839 L 123.85458121289447 131.07533958169762 Z" fill="black" />
<path d="M 125.66074669462553 127.51086740282283 L 123.90048916051369 128.7528907780848 L 122.35624706225431 130.96359586330664 L 121.56381168572372 133.05582694913264 L 121.10878225235496 135.39704881410043 L 120.75144639509323 140.29051826960023 L 120.69344722707973 142.37565796927709 L 120.61946293193853 144.65937362645818 L 120.49389571725584 147.20250990989413 L 120.29590000213051 149.82474705722504 L 120.09625689575746 152.60021376163743 L 119.89952668694201 155.74207924563254 L 119.63073225459415 158.29227079220033 L 119.43044675219157 160.8904589172939 L 119.22965669702678 163.4048432401096 L 119.10222585408444 165.48822850722868 L 118.90262713654718 167.2962683168133 L 118.72026274640102 168.96617498282703 L 118.55197728596309 172.26298077589334 L 121.95597435760413 171.78388170131026 L 123.75898129389432 171.03102104236123 L 127.44678568304954 169.6580030109472 L 130.21959866696895 168.60795681959002 L 131.77178785111184 168.03207079387974 L 134.4138791887252 167.12572293401533 L 136.8140686320974 166.4374239000559 L 140.15363341741664 165.92909501580507 L 142.22471149774847 166.26749477340655 L 142.75880901006403 162.99483432815595 L 140.07646912164586 162.55747724981993 L 136.1418639850901 163.1001737561941 L 133.3925172956498 163.86329073785967 L 130.63299730513816 164.80874951862026 L 129.01624117678105 165.40901095384748 L 126.24339986382546 166.4610155437403 L 122.51299136235568 167.86570747326377 L 120.35481665802087 168.81450697056474 L 121.13002954997441 170.18721453660666 L 121.89802338641148 169.53016290779797 L 122.11177716032782 167.6466027769367 L 122.30829660685306 165.75102930527132 L 122.43294095922322 163.6303130098904 L 122.62826906812093 161.1398145202061 L 122.82410172978085 158.58297334842467 L 123.09546843024549 156.00316001217996 L 123.29485638549254 152.81384873836257 L 123.49133144318199 150.05891993496246 L 123.68945389211916 147.40100571510587 L 123.81596187274897 144.78911270166682 L 123.88602054635777 142.46833617134791 L 123.93605360490677 140.47449637883727 L 124.26292184920754 135.73356642027457 L 124.60012874396378 133.87068672274236 L 125.10408008618319 132.38442659763086 L 126.08058994104881 130.7914207453527 L 127.34523475068697 129.9063689253022 Z" fill="black" />
<path d="M 137.73575875346424 129.27943772591632 L 133.86803505140202 128.10387644164888 L 132.77447060151945 131.83739757995036 L 132.79880392551422 135.039794921875 L 132.8206717967987 136.8165283203125 L 132.8492829799652 138.40557861328125 L 132.90502427345544 139.7396279768734 L 132.47682327120657 141.2874722682104 L 135.47361618191843 141.9799837864771 L 135.83765150779456 140.0994833512516 L 135.8933928012848 138.40557861328125 L 135.9220039844513 136.8165283203125 L 135.94387185573578 135.039794921875 L 135.96820517973055 131.91101550598714 L 135.12671592516048 131.04004445678862 L 136.55257132466076 132.09165602408368 Z" fill="black" />
<path d="M 127.43927001953125 145.0984194278717 L 124.95560725411184 145.0267432139582 L 127.05030493072292 148.09377118311608 L 128.8268483799935 147.64330010027874 L 130.59315519277715 147.04424472122795 L 132.28864181858148 146.458662946791 L 133.95757263061742 145.96797627793427 L 136.43624861280793 145.46378387289928 L 137.75691459809912 145.28650548725943 L 139.57673478794712 145.28662176070222 L 140.07091616030968 144.99539605712638 L 139.74520989502005 145.57610080173384 L 139.350881713515 146.96400730361017 L 138.73836116758062 148.91587356130094 L 138.4430617905297 149.64375792389995 L 137.4787978699067 149.8514683304357 L 135.29117021201782 150.08907439758426 L 132.67014225316674 150.21622739598993 L 130.7777732014092 150.24063896223694 L 128.6058354140421 150.48412192238843 L 126.46294853980656 150.96391377231117 L 124.75853961317947 152.15119064597178 L 126.41089398057053 154.58916579934072 L 127.62335517113094 153.79951396206383 L 129.0455317734579 153.60364663229907 L 130.9428078532783 153.44673896745056 L 132.75954524683326 153.47115053369757 L 135.54012861610718 153.34805939147824 L 138.1059189269683 153.0601527633143 L 140.4546432875953 152.21683777922505 L 141.74381656679438 150.16701218088656 L 142.4636934817975 147.88975246201483 L 142.96963385497995 145.99946072170366 L 142.64392758969032 143.00167425537362 L 139.86113142299038 142.05981378617278 L 137.57572700346338 142.05993005961557 L 135.87149064500457 142.28304229897572 L 133.20063049438258 142.82987528456573 L 131.30449782985602 143.390214006334 L 129.54295320566035 144.00580410689705 L 127.8882395106315 144.58289618878376 L 126.63988061615208 144.93320635594642 L 124.62935368338816 148.1253563954168 L 127.43927001953125 148.0536801815033 Z" fill="black" />
<path d="M 133.91629575275542 152.9861944861305 L 131.61052157582174 154.20526130652087 L 131.1048928583413 156.83063646258924 L 131.10851119103663 158.6832727836932 L 131.3874552063935 161.0854861585849 L 131.59636214529277 163.81290621588977 L 131.74729185723191 166.3846658246936 L 131.7946401834488 168.72265625 L 131.86118626594543 171.36273193359375 L 134.75685572624207 171.36273193359375 L 134.8234018087387 168.72265625 L 134.87075013495559 166.3060080034314 L 134.76960465158223 163.62264065911023 L 134.582393426419 160.7946407945401 L 134.32117630896337 158.4672399116193 L 134.3247946416587 157.01665357647326 L 134.21528408824076 156.08856193566663 L 135.22249819255708 155.7310906701195 Z" fill="black" />
<path d="M 155.7628398593318 128.82775078988658 L 155.22230275723837 130.69274425477062 L 154.95748141190273 133.8589898478204 L 154.61017464660267 135.8843716836705 L 153.7878919449929 139.04291350919206 L 153.32820463398966 140.49500038651382 L 153.38948953704318 144.01079264468714 L 156.18745205749033 142.21762480953066 L 157.36027790213802 141.2100085779131 L 159.11612234484025 140.1599268079883 L 161.08131850920034 139.2137842911922 L 164.8404717542962 138.06815764885997 L 166.29982260028743 137.7645112439913 L 170.0982536071186 137.03414142301247 L 172.53196571598852 136.56945549737839 L 174.39605348999464 135.81321528344762 L 173.28216916625536 132.94008061498988 L 171.72523643244898 133.51013434637161 L 169.5135627991314 133.84622967073753 L 165.67771646221257 134.5672758653837 L 163.9681219957038 134.91426422614003 L 159.94895492829966 136.1459569197453 L 157.55685128797225 137.3018651841992 L 155.45954631661198 138.6291027502119 L 153.85954501282217 140.12392792484434 L 154.56888448639432 141.23359212093786 L 156.07059907694784 141.57128379317368 L 156.6552232893821 139.87029449862044 L 157.56145621277233 136.572537496017 L 158.00638577559727 134.2436712849921 L 158.28172556307413 131.20386219054188 L 158.7854999844182 129.79065741323842 Z" fill="black" />
<path d="M 159.6022352235243 143.78075757895695 L 158.03094381227086 145.06034316695926 L 156.67344975687968 147.4691686295926 L 156.47054774869898 149.5712079844533 L 157.78282495927263 152.48543322167947 L 160.6031746176247 150.41490633427122 L 160.7530019611517 148.12054529389135 L 160.79061015190382 146.619804667043 L 160.88415209738272 144.42030480309342 L 161.39415640115914 144.35654349636067 L 163.78735727020674 143.50444581689854 L 165.37224790087137 143.4280735981013 L 167.40268764099562 143.4286270729619 L 168.75351917364662 143.4500063289857 L 169.06022289558086 143.2397164577666 L 169.00215022489917 144.59585761995217 L 168.65009663041084 145.9706717532192 L 168.13309733523135 147.16696366073162 L 167.2876890443566 147.84618975357267 L 166.08456497101773 148.2058848893784 L 166.79324264616977 151.0021229231216 L 168.6510316587684 150.58606122298983 L 170.57845051633115 149.13821212051838 L 171.64592387740166 147.0563057858433 L 172.19413883760083 144.85262870817283 L 171.88399097160664 141.7293997531709 L 169.41786754510338 140.3429624210143 L 167.45571079650438 140.2392196067256 L 165.27289370069113 140.2397730815862 L 163.04064565948076 140.41364500341396 L 160.03223520040336 141.53847603488933 L 158.02148755105478 143.32652136878158 L 157.86295430122118 146.532294942332 L 157.9005624919733 148.05950841704615 L 157.9063468667503 149.46876065791628 L 158.74610570478987 149.75052869238303 L 159.41018955598852 149.3865556874217 L 159.45936274312032 148.4606409407199 L 160.33453470335414 146.91560898147824 L 161.4280382139757 146.06811937416805 Z" fill="black" />
<path d="M 150.1873067528599 159.18379416874427 L 147.52785366626708 160.1913196298144 L 146.94786008673492 162.91521212699 L 146.98213422861173 165.23308654453703 L 147.6390410485667 167.63964715253633 L 150.4163788733083 166.90283331621367 L 149.88493120107577 164.83002380702547 L 149.91920534295258 163.068918732385 L 149.73532992748292 162.2143200186231 L 151.0370584815151 162.04569801875573 Z" fill="black" />
<path d="M 150.71408363782984 164.1113219111516 L 150.85021776209848 162.6003947662391 L 150.87341775755007 161.59604667338107 L 151.5337077279168 160.7752353509935 L 152.9193653402986 160.09251472508882 L 154.67109428324204 159.56211104558926 L 156.7457082101422 158.98985527156282 L 158.344157848321 158.75662704198515 L 158.67616107047172 158.27585045305364 L 158.3277394268934 158.87288239120417 L 158.26131658783183 160.28667992764628 L 158.07675214423688 161.98819667313342 L 157.81792016985926 163.86948227391628 L 157.714163960236 165.61162371568983 L 157.56217973338352 167.31151515808776 L 157.28035470614006 170.4883408262597 L 160.18485525479744 170.7857070253028 L 160.55122358692898 167.63135593566224 L 160.795357524139 165.90290265149767 L 160.94367650982824 164.21669936670872 L 161.22500566826312 162.39437168624158 L 161.43655938873067 160.54242163485372 L 161.5141795184191 158.80314299942083 L 160.87767193734078 155.97183021100886 L 158.0407298469915 155.61617569238985 L 156.0741160086078 155.90846015812468 L 153.79143013082046 156.53737625909824 L 151.7260204018889 157.18312004053618 L 149.5466145377082 158.3522060552565 L 147.97423849244993 160.43422676411893 L 147.85339551915152 162.4578327728234 L 147.84548667467016 163.9748597294734 Z" fill="black" />
<path d="M 150.46495246740741 171.29689621375618 L 148.6239496805626 170.74126274730577 L 149.2800528811634 171.88504599481456 L 150.72179384171488 171.54808166527317 L 152.7880823748475 171.20332817379503 L 155.29530129538887 170.8774972865264 L 157.81755766088472 170.40978076285276 L 160.22885752467766 169.8524144372698 L 159.61306142063484 167.0673853674177 L 157.27094331567778 167.56104443245974 L 154.89573874367363 167.8941091587861 L 152.3974645001525 168.09379096682997 L 150.10645322859762 168.39967224097683 L 147.8390877438366 168.98861123174794 L 145.8664067647499 172.35956733081923 L 149.28297233728009 174.05613112999382 Z" fill="black" />
<path d="M 168.30157674560772 154.54218159800791 L 166.38897253172925 154.82933394009467 L 164.45005763882995 156.38502803624965 L 163.98256384086204 158.5858966309943 L 164.02112950133474 161.13660366048003 L 164.96983974801591 163.2166830531633 L 165.37902142139845 164.752822504002 L 166.28434020570103 165.2331782989276 L 167.59887205613188 164.60405530906627 L 167.56366250656782 162.89060056438112 L 167.57961344718933 160.87750244140625 L 167.5871753216212 159.27800486919003 L 167.8891751780059 158.20815333662267 L 168.8891119872588 156.34845532107792 L 170.77772924711374 155.95777990813588 L 172.446087950519 155.5246680396795 L 174.35410699306453 155.22517937099002 L 176.20497058244612 155.2033507397365 L 176.48580962084577 155.12155932969065 L 176.37730648796003 156.1582458207056 L 176.31022397017148 158.01776741883268 L 176.12747360810286 160.68552164004925 L 176.16443741321564 162.85443115234375 L 176.20834171772003 164.63116455078125 L 176.2457493543625 166.22021484375 L 176.27864037329755 167.77471714244422 L 176.24689658324493 169.7346815625995 L 179.10161415894257 169.8126817186505 L 179.17790259545245 167.81878871693078 L 179.2107936143875 166.22021484375 L 179.24820125102997 164.63116455078125 L 179.29210555553436 162.85443115234375 L 179.32906936064714 160.81923910213825 L 179.54243716264102 158.20684195616732 L 179.61939761360247 156.1125061324194 L 179.25881928540423 153.44557934218435 L 176.76683117536638 152.0625184008885 L 174.11635199131047 152.04068976963498 L 171.8111141979185 152.3918358665705 L 169.91440942476126 152.88462731842662 L 166.9055657471162 153.94536792110958 L 165.1326754079316 156.96543064775233 L 164.6424389361913 158.92353321674747 L 164.65000081062317 160.87750244140625 L 164.66595175124468 162.94338381061888 L 164.77478517043062 165.05866441749623 L 167.13362854429897 167.9830082245099 L 168.29102252391405 164.5095065975605 L 167.79993564260909 162.2419351108992 L 167.02013026429026 160.49327915201997 L 167.05869592476296 158.8148602049432 L 167.13136325960755 157.98777469812535 L 167.56915735108325 157.69166215365533 L 168.68145548095478 157.60344828480459 Z" fill="black" />
<path d="M 168.7615966796875 167.0656577348709 L 166.88268837795886 167.09008019789053 L 164.24722476290665 170.3488955113731 L 167.99037305815372 170.3390800651548 L 170.66251266879217 168.94229001287883 L 171.9902338538014 168.2356271646629 L 173.43525676315346 167.4953858890122 L 174.8910632883313 166.89887365770227 L 176.5483591825214 166.2193169793127 L 175.4871632784161 163.5685248175623 L 173.8314708913562 164.21526208448523 L 172.26237507278404 164.7948973141128 L 170.6824956383861 165.5060720540871 L 169.23738967495783 166.12570315118367 L 166.86802537934628 167.3564765754702 L 166.54195980740585 168.1474423792519 L 167.47155966891614 170.07996374742197 L 168.7615966796875 170.1043862104416 Z" fill="black" />
</svg>