<svg xmlns="http://www.w3.org/2000/svg" width="300" height="300" viewBox="0 0 300 300">
<path d="M 138.08698523361514 119.1209207490943 L 135.88285570202262 119.96103658842407 L 134.3396182530637 122.18652918145203 L 133.4093206878741 123.95662129719575 L 132.3878419342509 126.26650224871865 L 131.3809291605231 128.8305479267745 L 130.3887767061584 131.69536757265496 L 129.8916292461351 133.12659394950896 L 128.83982102115672 136.0534825686205 L 127.84410129902726 139.11610534477657 L 127.13989112945026 140.58525484651412 L 129.71923972992474 141.88141995817338 L 130.59950221659773 140.19749328803593 L 131.69240554134328 137.054061376692 L 132.7652311054274 134.17528593330354 L 133.3123951688416 132.72870469297004 L 134.3008335347894 129.912982346663 L 135.2745115813741 127.47214521221885 L 136.2336236480634 125.30265604655425 L 137.0318417078738 123.76952550604797 L 137.86531324328988 122.31642923188843 L 139.08220421950986 121.9553731962182 Z" fill="black" />
<path d="M 144.47851046498616 121.78452887741336 L 142.01960372632317 122.24244415337265 L 140.57222746267053 124.80034895207673 L 139.67260682112828 127.06200606329563 L 139.16810919294142 128.46911667272218 L 138.4023026048977 130.12568507137956 L 137.46983084575044 132.16336805496042 L 136.44117777857363 134.37758519058633 L 135.19111277733634 136.88064142955136 L 133.73835726087083 139.84836401229882 L 132.35869556299545 142.61352289062015 L 130.9289236434005 145.511257465424 L 129.4754476561904 148.34804923244008 L 128.16382074002038 151.07345079536967 L 127.00955758177079 153.487470788349 L 125.71615120096484 155.90685849876542 L 124.96300028148754 157.33018593836377 L 124.44015902436934 158.75233869287624 L 127.15289176490145 158.91046831172542 L 128.38097564911018 156.3537849095481 L 125.81336028838982 155.1161857935769 L 124.55670296166105 157.71453168827458 L 125.68496304594316 161.55125017431126 L 127.64686299976246 158.89442343663623 L 128.47818473653516 157.41491884498458 L 129.8495732776042 154.9545458132135 L 131.07201910372962 152.48880506400533 L 132.3891763672471 149.80893318943492 L 133.8525704972245 146.990207378326 L 135.30365795262955 144.08227789062985 L 136.69682340319167 141.31704126113868 L 138.16093800391366 138.35397771107364 L 139.43162495580137 135.82712672347617 L 140.49159493549956 133.56197374191458 L 141.4316817701023 131.52067723330794 L 142.25034783830858 129.74890090540282 L 142.79016173355922 128.25317948357937 L 143.61905671701697 126.16058854792327 L 144.15227127367683 124.76463592475235 L 144.86230984751384 124.82216057571164 Z" fill="black" />
<path d="M 135.55641669758873 146.77640532277903 L 135.8996664123805 145.9559543827849 L 135.5757185107567 146.30714694776313 L 136.14034012909082 147.97581830423178 L 136.50096382391067 150.1603867579566 L 136.64056157745705 153.0759793724675 L 136.67071413993835 154.6839599609375 L 136.69135630130768 156.39813232421875 L 136.7140587568283 158.17486572265625 L 136.74674846987247 160.05800296744067 L 136.70816384772704 161.51302414762185 L 136.1432533508457 166.36884764276348 L 139.0453452819668 166.72221681036152 L 139.66878927727296 161.81851882112815 L 139.77424762387753 160.12046382943433 L 139.8069373369217 158.17486572265625 L 139.82963979244232 156.39813232421875 L 139.85028195381165 154.6839599609375 L 139.88043451629295 152.9887178931575 L 139.76795707452683 149.8484023045434 L 139.33634444122168 147.15321001608072 L 138.3164934033058 144.46763332567437 L 135.327750579807 142.8418971797151 L 133.29429131022377 144.92427827097097 Z" fill="black" />
<path d="M 153.2078746402204 132.44051385105018 L 155.38964733864492 131.96568474958679 L 156.95416406207107 131.78339151441298 L 158.77400071467258 131.6592416358506 L 160.65368383263615 131.51663924148505 L 162.54667053264933 131.44749742311163 L 164.58811732519442 131.3747010378773 L 166.34640793829738 131.28990552366946 L 168.09539794921875 131.26802015304565 L 169.67987060546875 131.24381721019745 L 172.13142220804536 131.21738043491027 L 172.46801262111353 130.52521730260068 L 171.73133653882488 130.28142874523468 L 174.11033826586262 131.89044625476532 L 175.06616706638647 129.14421629114932 L 172.23381216695464 128.17678460415223 L 169.67987060546875 128.15034782886505 L 168.09539794921875 128.12614488601685 L 166.27932448357762 128.10425951539304 L 164.47255162011808 128.1696104855602 L 162.44478454547567 128.22193617063837 L 160.48462183142635 128.27791642257745 L 158.54716627751492 128.4105825828994 L 156.65789648480393 128.53667684496202 L 154.80139270041758 128.75477423478821 L 152.4818226254046 129.33097052394982 Z" fill="black" />
<path d="M 150.7256386873472 145.6029552749196 L 152.8908657350399 144.6229875053849 L 154.26074466123433 144.29864106238063 L 156.18980561559334 143.77264592457306 L 158.18186690705176 143.25600074562377 L 160.26089415369074 142.79695038186597 L 162.51375992494405 142.3357455597535 L 164.96147016945415 141.94000574117277 L 166.99507252959364 141.65689432011033 L 168.8457145498341 141.51738486577423 L 170.42174136432575 141.43386216452723 L 173.31695556640625 141.40710175037384 L 173.31695556640625 138.30688750743866 L 170.37842953411175 138.28012709328527 L 168.6774788095409 138.32172646235077 L 166.67497141571886 138.43246114863967 L 164.49531693992085 138.69988683695223 L 161.93753402036845 139.079903854309 L 159.58102479162176 139.54460235250903 L 157.41078446013574 140.01145530906373 L 155.33363188440666 140.54583552073944 L 153.40954342470317 141.07086577355687 L 151.6104770383976 141.5473005805526 L 149.3103720548403 142.9446521469554 Z" fill="black" />
<path d="M 166.5876674198939 139.75350868541827 L 165.46482828088813 141.45303398113668 L 165.1308689794172 144.00064622136347 L 165.099583029747 146.3758544921875 L 165.08915984630585 148.0274658203125 L 165.07941145566855 149.97575551546947 L 164.9958003045459 152.27991635765733 L 164.99295699596405 154.62139892578125 L 164.99311736681523 157.1629412771619 L 164.91964018858127 159.84794809833863 L 164.86358906873016 162.38425546462392 L 164.71877793977862 164.68963135223436 L 164.59426636553758 168.21921949605834 L 164.42602344143447 169.87029715111026 L 164.70726637154885 170.24530900654776 L 164.8893897679291 170.1172055457104 L 164.0664550218428 169.2536561067657 L 162.5750699693555 167.02247454898966 L 161.6780326235759 165.5597828827062 L 160.60479196887263 163.7742111814908 L 158.15680471081487 165.2378737794467 L 159.2081978451741 167.0057688751063 L 160.0396761243945 168.57103131038534 L 161.5731934156572 171.0944884244843 L 163.3790428492584 173.1337710167896 L 166.73011155813865 173.00566755595224 L 167.80359081637803 170.47784738013974 L 168.03146605633742 168.42531175394166 L 168.15902967740888 164.84796630401564 L 168.30230448595734 162.52382559006358 L 168.35428559266873 159.93012807353637 L 168.42485138318477 157.2098614572131 L 168.42501175403595 154.62139892578125 L 168.4221684454541 152.33336489234267 L 168.48260026308145 150.03303354703053 L 168.47285187244415 148.0274658203125 L 168.462428689003 146.3758544921875 L 168.4311427393328 144.14657057551153 L 168.49330160192437 142.33993476886332 L 169.0629673457311 141.26175010364423 Z" fill="black" />
</svg>