<svg xmlns="http://www.w3.org/2000/svg" width="300" height="300" viewBox="0 0 300 300">
<path d="M 117.51869033681318 114.97804421387612 L 117.5591976396901 117.56760887638501 L 118.65816294337988 120.33133882185776 L 119.62443211563046 123.65414702473078 L 122.43428370468204 122.82742035808172 L 121.41996205662012 119.41866117814224 L 120.5383365399974 116.92726417048999 L 120.43480087412432 114.88731223143638 Z" fill="black" />
<path d="M 114.02174410198371 133.26638588972648 L 113.45533297153007 134.14880060470836 L 114.2919013454184 134.1741571805808 L 116.6113860271902 133.542880890842 L 118.19264008093486 133.15285718564596 L 119.82613280464753 132.83328521101546 L 121.63701417592746 132.56716236738347 L 123.59791421994433 132.2902136576432 L 125.2660290802155 132.0818103685596 L 126.97253882693126 131.93582385754098 L 129.93051790113964 131.66551207039907 L 133.38104248046875 131.63413035869598 L 133.38104248046875 128.68593800067902 L 129.80947233323536 128.65455628897593 L 126.71764671994374 128.90975719714652 L 124.9671252166595 129.0390392408154 L 123.21421956911817 129.2310265767318 L 121.21393797251004 129.47959056230403 L 119.31571289847747 129.73898041398454 L 117.52818511437764 130.07004320497904 L 115.7964508868723 130.480800749783 L 112.9663994358316 131.3009404756692 L 110.38194730190743 133.82873845779164 L 112.84043851520379 136.01242270402352 Z" fill="black" />
<path d="M 118.96842633739733 140.11490392428362 L 118.21321018917153 141.88346794445366 L 119.35592722925313 142.05737929034908 L 120.98336371850779 141.98816941204984 L 122.95445039384204 141.96133988342612 L 125.46051498134939 141.7157055287362 L 128.02576354722353 141.20045569818026 L 127.50096985121398 138.36338707525724 L 125.06072525302561 138.7740405650138 L 122.81337187178296 138.92879683532388 L 120.93130913305471 138.90196730670016 L 118.99368214574687 138.95787949871342 L 115.77909938114097 139.93257209460884 L 117.79671038135267 142.87728357571638 Z" fill="black" />
<path d="M 118.50764108799868 150.874559941603 L 119.55082299445442 149.98258460925913 L 122.23044933199297 149.3222236797262 L 124.49177220087765 148.81726296718384 L 127.36986724384604 148.19588546106982 L 128.86881028927365 147.91830488386086 L 128.38643873416385 145.10867265520164 L 126.82446869365396 145.35660477330518 L 123.90483424443485 145.91137472812866 L 121.55678211331953 146.3323173358988 L 118.29463598992058 147.12337242199087 L 116.56499074793882 148.6087164255845 Z" fill="black" />
<path d="M 118.14562504057744 155.49386191234524 L 115.60893735880279 157.4767617373999 L 114.18582216378265 159.7388175989962 L 113.74460380778973 162.23915360425863 L 114.47256928955144 164.16672655363814 L 117.14303129638606 163.11867383698686 L 116.68264228596027 162.01829268480387 L 116.92562803152985 160.8400398228788 L 117.73517885213471 159.5236044735376 L 119.95190913911006 157.82791543140476 Z" fill="black" />
<path d="M 118.33339129208342 158.5938592257749 L 118.68913730482342 157.72125105809388 L 120.16979992868302 157.20776247519325 L 121.98108042164466 156.38140249416352 L 124.62785655327953 154.9959736672646 L 126.63895735504454 153.98394088135657 L 126.9254778578708 153.33847093902077 L 126.34747362652658 153.78814309272937 L 126.30033916872237 155.59077940082767 L 125.97694480238599 157.78926728558474 L 125.88528606738492 159.41831751199666 L 125.7185361556073 161.17880166718555 L 125.66625589824467 163.4715643290279 L 128.52808003925531 163.5635919209721 L 128.6198427506427 161.37698446562695 L 128.84921100292758 159.70912389425334 L 129.009627463239 158.16007353472776 L 129.37043719846514 155.87919130229733 L 129.43133496722342 153.72797018852063 L 128.60125554056668 150.74929761566673 L 125.46675553558046 151.15485306395593 L 123.22858875922047 152.2698954733604 L 120.61779653148034 153.63715219333648 L 118.97204577444198 154.38733029824425 L 116.77961269517658 155.32525773096862 L 115.65891827822908 157.1052374539126 Z" fill="black" />
<path d="M 116.5460205078125 166.22784566879272 L 115.05331786599928 166.50717397821884 L 116.1261011652564 168.17866267466871 L 118.38277590852229 167.11401186643957 L 119.81801132758835 166.4453080928981 L 121.34201070360936 165.8591826313471 L 123.04683220490595 165.23881307951592 L 124.78280032637018 164.5659320732035 L 126.34515643557877 164.10434847155858 L 127.9420815543043 163.53015146019996 L 130.65736577739375 162.46953211372278 L 129.62278558979375 159.81098546440222 L 126.9364584847582 160.85241689917504 L 125.47247051754623 161.35426969250392 L 123.86588131425482 161.793564997109 L 122.03678595915655 162.44697793610908 L 120.32058695264064 163.0277802592779 L 118.67564101616165 163.6178022586644 L 117.08597409147771 164.27539243043543 L 114.5892308659936 165.43791447376879 L 113.14126221212572 168.96120981084366 L 116.5460205078125 169.24053812026978 Z" fill="black" />
<path d="M 145.591807255171 112.78964499472345 L 142.3459662774533 113.26547393611102 L 141.86014631199902 116.0799508406942 L 141.78076442300113 118.25706966490455 L 141.35209183052794 120.22574073892451 L 140.60872886956744 122.89606076632404 L 140.19652815839845 124.531011459503 L 139.87079306589598 126.0517577164505 L 139.47022063361908 127.72350821795001 L 139.13854620585562 129.477686551634 L 138.7927068067514 131.34103649636555 L 138.47195263911908 133.39107576530253 L 138.08176494313904 135.7147473515038 L 137.76023113490618 137.929593314738 L 137.49376099321816 140.15185286334707 L 137.30648848832132 142.33911796126722 L 137.12025766564244 144.41297175567726 L 137.00811848781478 146.4094923809053 L 136.88205895929937 148.4207836644143 L 136.8443615436554 150.79266357421875 L 136.9330789662939 152.35849747483834 L 139.8399923227686 152.25478377516166 L 139.8206775188446 150.79266357421875 L 139.89101232976313 148.5600512965232 L 140.05303873874772 146.6174851581572 L 140.19297475623256 144.66014836151024 L 140.40286209761618 142.62999824967028 L 140.61170775678184 140.48803971477793 L 140.88539874790632 138.356051216512 L 141.21205829904846 136.2166491328712 L 141.61410693119342 133.91080411750997 L 141.9415461229361 131.88186389425945 L 142.27991082539438 130.0666249718035 L 142.59642975700592 128.392458578925 L 142.98809365285402 126.7609864241745 L 143.31055191972655 125.2537785795595 L 143.69058753668256 123.71062868680096 L 144.42366500540956 120.97567527670049 L 144.89526096762387 118.61512271790795 L 144.95992204737598 116.0376028702433 L 144.2220268866092 115.69900360295148 L 145.837636104204 115.77444191933905 Z" fill="black" />
<path d="M 141.5681404956082 131.2653139171194 L 141.69664983647039 130.24598778934296 L 142.34182615456325 129.82508257346177 L 143.99333870440796 129.00382672065408 L 146.50377035916895 127.90550142491342 L 148.32709956425512 127.2101452053815 L 149.91823516391744 126.7399091357894 L 152.0621989584293 126.33257549903553 L 151.35614322537594 126.95248957355001 L 151.296552353321 128.84445546925267 L 150.79312977737513 131.17944697427853 L 150.27176396139276 133.981141964738 L 150.01201027609673 135.75450080149645 L 149.82000947777482 137.4386528901027 L 149.6333064803201 139.1486454495833 L 149.44596787504977 140.9703485437056 L 149.33231313647323 142.7033517672064 L 149.20110154623265 144.35113447188374 L 149.0161586791596 147.31424521733257 L 149.03611648082733 150.20458984375 L 151.90016281604767 150.20458984375 L 151.9201206177154 147.41439247797993 L 152.13129591470485 144.57183916092876 L 152.28817026196427 142.9414236234186 L 152.42659071870023 141.2460821203569 L 152.6353702774924 139.4892940035417 L 152.84478544410018 137.7959662505223 L 153.04890280984077 136.17689568287855 L 153.32931025735724 134.5219097930745 L 153.85225596481237 131.79320927572147 L 154.393144912304 129.24844003855983 L 154.47759700899906 126.91127995769999 L 153.5194660806332 123.57733661033947 L 149.43357147670756 123.6955156688981 L 147.35161137324488 124.276304989931 L 145.32179116426855 125.03236478602408 L 142.68268668621704 126.18623675590844 L 140.66110353293675 127.21678754372573 L 139.03760309321711 128.77281103878204 L 138.6619620434543 130.7814390125681 Z" fill="black" />
<path d="M 143.26008808061098 137.9868917419419 L 142.54966312192963 137.65194218193616 L 143.00097945783727 137.84241583788966 L 144.06654412144061 137.49479715733122 L 146.4601300805619 137.22016414740418 L 148.631591796875 137.19205343723297 L 148.631591796875 134.33895242214203 L 146.3017107397506 134.31084171197082 L 143.54576056605939 134.56172139735628 L 141.58642288591273 135.14000603711034 L 139.51698726869537 137.30740840400134 L 140.78715313032652 139.7501688049331 Z" fill="black" />
<path d="M 142.44191370264062 145.36862574587184 L 142.576485714736 144.5588413214671 L 143.95810862499837 144.11486160077666 L 147.10337014893156 143.10333212930016 L 149.17209134136291 142.55525400924515 L 148.48721041644959 139.78629872512985 L 146.30666403075594 140.28924599569984 L 143.00600270312663 141.25464523516084 L 140.5344761993265 142.2620815300954 L 139.62473668798438 144.35512913694066 Z" fill="black" />
<path d="M 134.57406860853166 156.20816330526756 L 136.23986790103947 155.22129871562882 L 138.79562706059275 154.19971059010928 L 140.25860504598072 153.65014063900676 L 141.75668906032732 153.1139629335637 L 143.26524831659765 152.63367051773858 L 144.94461205373963 152.03887848429062 L 146.44903096749616 151.63952377581163 L 149.095096096067 150.8444765836864 L 148.2761197242455 148.1132870881886 L 145.66461649344134 148.89477798200087 L 144.10812232126037 149.29620452352188 L 142.36646555058985 149.87755995101142 L 140.85012246311018 150.3231708554988 L 139.28729339151928 150.83801854068074 L 137.72536903315725 151.33947398020322 L 134.87951686458553 152.41993663593368 L 132.98025268053084 153.68526931191994 Z" fill="black" />
<path d="M 149.4189914748071 145.36040505497132 L 148.4738716180243 147.1421075974752 L 148.42406702041626 149.0784912109375 L 148.41852498054504 151.51837158203125 L 148.41669023036957 153.09490966796875 L 148.4154627798108 154.970168151393 L 148.47036192106353 156.83979004297186 L 148.5431430305613 158.73000843799954 L 148.54574346542358 160.67730712890625 L 148.55039131641388 162.52911376953125 L 148.55825412273407 164.10565185546875 L 148.5775695228897 165.68257604971458 L 149.94598388671875 166.70528090000153 L 150.67652773598576 165.33972775487177 L 147.77501034995174 166.17479861231573 L 149.94598388671875 169.81412827968597 L 151.7105164146103 165.83195031747292 L 151.72983181476593 164.10565185546875 L 151.73769462108612 162.52911376953125 L 151.74234247207642 160.67730712890625 L 151.7449429069387 158.67074839793796 L 151.67368104768647 156.73223144140314 L 151.6205479623767 154.9232644657945 L 151.61932051181793 153.09490966796875 L 151.61748576164246 151.51837158203125 L 151.61194372177124 149.0784912109375 L 151.5621391241632 147.8617986525248 L 152.0574489548804 146.61554709346618 Z" fill="black" />
<path d="M 161.1826066366372 131.57603169490554 L 158.39313907750255 131.31778329728039 L 156.46081052804905 133.83791085332953 L 155.33044854859543 136.1310805152254 L 154.71531036664464 137.5648844391637 L 154.07641294417263 139.05573730974763 L 153.2892631589963 140.75689979124073 L 152.43069778404654 142.652670968425 L 151.37716692391209 144.80248791167057 L 150.3589878406541 146.85068237849748 L 149.1294655947788 148.97064134973743 L 147.7670876012387 151.23580727066542 L 146.28869855321088 153.50146608886166 L 144.72324403601598 155.72634949702126 L 142.96508714932114 158.2786397553823 L 141.57129124301744 160.13979126420728 L 140.16339453089853 161.82609385543745 L 138.81854893237104 163.39982238312942 L 137.64506513170704 164.67219209117266 L 136.50303797964017 165.77014572594405 L 135.48490116014497 166.78867467461322 L 133.48303645894927 167.98438176997374 L 134.97155338480073 170.51195612065126 L 137.21895626173003 169.20522180976178 L 138.57752842660983 167.97155349280595 L 139.81221025891796 166.84233427601484 L 141.12346766919146 165.48714050749558 L 142.55144921910147 163.88276844925005 L 144.06042262417006 162.14072631391772 L 145.58349683505386 160.1731424711802 L 147.39040342492152 157.59542784672874 L 148.99389422022662 155.34094113770084 L 150.5404075159488 152.97708335433458 L 151.9508566708462 150.63775708776257 L 153.2420863780959 148.40346801212752 L 154.31253034171291 146.24756091645443 L 155.38363327064096 144.043129812825 L 156.2535835206912 142.11016563844677 L 157.05090639176487 140.38298339337737 L 157.70839568804286 138.8458821623988 L 158.28161199827957 137.5019761253996 L 159.27588380788845 135.44089774042047 L 159.86430721155995 134.15731435896961 L 160.6399031289878 134.54970072696946 Z" fill="black" />
<path d="M 165.00034523524056 131.95705650124654 L 161.87664646969176 133.7066603472451 L 165.30111611904738 136.16033354336807 L 169.0501152533974 134.48310250985148 L 171.58724391477017 133.11486948428632 L 173.7754328023515 131.91329326306078 L 175.80944798493198 130.96307159614383 L 177.90690310585924 130.01629705978738 L 176.75740353476576 127.40093926833764 L 174.64160181975552 128.30597137260617 L 172.4623601663985 129.20755634631422 L 170.14920628054233 130.38329946102618 L 167.6808417778526 131.64262991202352 L 164.44375692782762 133.11847505038193 L 164.55523829593324 135.3219041058799 L 166.32900046788444 134.69418861594096 Z" fill="black" />
<path d="M 172.32173456159728 120.65594228466907 L 171.6509894261359 123.0569366124822 L 171.63510489463806 125.01751708984375 L 171.6296547651291 127.2572021484375 L 171.62520343440167 129.97456349972904 L 171.67711982106408 133.50909005904555 L 171.82078478362732 137.33591604755537 L 171.9457863390943 141.6195429211304 L 172.07104533035317 146.16311145235332 L 172.21550646470223 150.76702210492692 L 172.27116772950595 155.2331394548719 L 172.34569258267504 159.76705704235133 L 172.3478764295578 162.9920654296875 L 172.35097908973694 165.75726318359375 L 172.35458409786224 167.93438720703125 L 172.3595748134797 170.7608726303211 L 172.45284574208767 172.21950101640974 L 172.9426501075049 171.9248474063526 L 172.33031908328397 171.17741162612162 L 170.7908558607721 168.7299831785516 L 169.97831302604612 167.1386956109258 L 169.05042846403802 165.31884994652168 L 166.49217407502448 166.59606704566582 L 167.40083736457888 168.4548102484492 L 168.3168101548529 170.1667453370734 L 169.94629224484103 172.84932177231588 L 171.7106702049951 174.8795959530224 L 175.22537691416233 174.05942964765276 L 175.7147660068328 170.8885414321789 L 175.71975672245026 167.93438720703125 L 175.72336173057556 165.75726318359375 L 175.7264643907547 162.9920654296875 L 175.72864823763746 159.73575057483617 L 175.65913012205655 155.1858058576281 L 175.60675916029777 150.69318297319808 L 175.46313435714683 146.06308483670918 L 175.3363181530932 141.5227910632446 L 175.20924451324768 137.22304391338213 L 175.06482353831092 133.41742361282945 L 175.00870769841083 129.94511423464596 L 175.0042563676834 127.2572021484375 L 174.99880623817444 125.01751708984375 L 174.9829217066766 123.4246307703303 L 175.21244512590272 121.22113291064343 Z" fill="black" />
<path d="M 161.15886425775307 154.93224320402442 L 160.4545532137308 153.88170271324873 L 160.7833706237146 154.34280924199763 L 162.19015501293262 154.05316074869432 L 164.27538918490433 153.84246763240344 L 166.6320736295099 153.78169015184903 L 170.54717521935 153.50222304819422 L 170.3970386478375 150.58554550649328 L 166.5338199251776 150.70646902783847 L 164.13708640103317 150.64569154728406 L 161.72097779956738 150.83538905599318 L 159.5626987122229 151.32149739862737 L 157.2627319425192 153.50928849768877 L 158.53901171880943 156.28748335847558 Z" fill="black" />
</svg>