<svg xmlns="http://www.w3.org/2000/svg" width="300" height="300" viewBox="0 0 300 300">
<path d="M 148.10229932029645 94.72305056293389 L 145.73203401931625 91.57128585599227 L 143.74386245336402 95.15481321360232 L 143.8121861222047 96.96711374713118 L 143.8219678401947 99.44256591796875 L 143.84191417694092 100.96905517578125 L 143.85357201099396 102.4830322265625 L 143.86688768863678 104.0595703125 L 143.87975466251373 105.77374267578125 L 143.8921730518341 107.55047607421875 L 143.90693962574005 109.40228271484375 L 143.92868864536285 111.316650390625 L 143.9506114342437 114.00028400617812 L 143.92158072598505 117.01229921852998 L 146.85966927401495 117.08218320334502 L 146.9746815345063 114.03829021257188 L 146.99660432338715 111.316650390625 L 147.01835334300995 109.40228271484375 L 147.0331199169159 107.55047607421875 L 147.04553830623627 105.77374267578125 L 147.05840528011322 104.0595703125 L 147.07172095775604 102.4830322265625 L 147.08337879180908 100.96905517578125 L 147.1033251285553 99.44256591796875 L 147.1131068465453 96.91313527630632 L 147.03738754663598 94.92172487233518 L 144.65309781662125 94.67651687838273 L 145.70385302345355 96.40451291362861 Z" fill="black" />
<path d="M 132.51678466796875 104.16739869117737 L 129.12916660377434 104.61282481813384 L 129.0683027073719 107.97043320463064 L 129.13322632029266 109.69230434463431 L 129.13155210018158 112.0423583984375 L 129.12329041957855 114.3446044921875 L 129.11709437620598 116.53595152642083 L 128.98397422025715 118.43015344440212 L 129.35383295103514 121.89696827637611 L 133.1109619140625 122.34832561016083 L 135.17155973195617 122.3579467398488 L 137.84617240100698 121.96755516374633 L 140.7463991829553 121.57546681193867 L 142.27472817538114 121.38647268551485 L 143.90600581851058 121.26601128573004 L 145.61901490612854 121.0697609768413 L 147.57050979440533 120.94967965001695 L 149.2602297899755 120.81505171887943 L 150.88516062133894 120.75517784931702 L 152.5236285649493 120.67960603181224 L 154.13909995965568 120.61788096375119 L 155.76171875 120.61820077896118 L 157.6454847333666 120.61780295323013 L 160.68453126543676 120.48644702361065 L 163.5381298249792 120.05071525095596 L 166.20256310378656 119.23498734732014 L 168.61771615707463 117.95818254556539 L 170.57319715309998 115.85359324715063 L 170.21852512814596 113.17899295268994 L 169.89359867916255 109.77168139948628 L 169.49583296669616 107.57302613330485 L 168.40275577102926 104.94385432275749 L 167.1214590964125 103.45194220185019 L 165.72907901132047 102.40262057649969 L 163.72770809805453 104.66549465787531 L 164.7120369973375 105.71822381377481 L 165.26728817428324 106.60363102880501 L 166.04676957236634 108.60397581982015 L 166.29719721927495 110.20903149113872 L 166.62046412966654 113.65840939106006 L 167.05802843283752 114.93766651847437 L 166.63680044448787 114.96015241537211 L 164.83869666183844 115.91052046517986 L 162.7497119718958 116.54620857716904 L 160.34574217206324 116.91125805451435 L 157.5510484697584 117.03014626551987 L 155.76171875 117.02974843978882 L 154.07134925909432 117.03006825499881 L 152.3738323725507 117.09346525725026 L 150.73532277709856 117.16803992412048 L 149.047265327212 117.23328812487057 L 147.31596481496967 117.37392874842055 L 145.30627806262146 117.5040915622212 L 143.56225590023942 117.70823187833246 L 141.91655600430636 117.83801461917265 L 140.2759396842322 118.04941111774883 L 137.34242623180552 118.45810401594117 L 134.86750276804383 118.8434692757762 L 133.1109619140625 118.85309040546417 L 131.46647954896486 119.30444773924889 L 132.23245644380535 118.69228307903538 L 132.35141148316902 116.63262757514167 L 132.34521543979645 114.3446044921875 L 132.33695375919342 112.0423583984375 L 132.33527953908234 109.63777378036569 L 132.2561601832531 107.65603163911936 L 131.54710292747566 106.68441639280366 L 132.51678466796875 107.12984251976013 Z" fill="black" />
<path d="M 131.44290936125506 128.90611962677684 L 128.46941394724044 130.70698377643075 L 132.114958430512 132.78349633868112 L 134.41636982700317 131.94178231809076 L 135.82052998471949 131.50778927108715 L 137.4443352575858 131.00632169125632 L 139.11145503112363 130.56216712032858 L 140.84474899475782 130.11739220783014 L 142.72886365325635 129.72513731373488 L 144.71133661933024 129.27663896754808 L 146.8588342405093 128.82808836280455 L 149.30765707337838 128.36559831014247 L 151.4588776644444 127.90791330203174 L 153.5187259610112 127.59056286388812 L 155.5954434846321 127.25728603094669 L 157.520813108961 127.06540425247394 L 159.2969172408485 127.00124075788946 L 162.69378662109375 126.93147265911102 L 164.2615814456409 126.91309157190095 L 165.18441265580094 125.08965967848442 L 163.32247226455203 124.94958178581024 L 161.36892185391957 125.6981869274007 L 162.14609279451793 128.4408511585368 L 163.90164882919797 128.13843090950226 L 167.83743793013656 127.32269383714058 L 165.1952056637341 123.52233323278655 L 162.69378662109375 123.37883007526398 L 159.2126042435265 123.43418404679804 L 157.2796019301015 123.49514262252606 L 155.1357576872429 123.70365146905331 L 152.9632076327388 124.04603381579938 L 150.8097990933681 124.37931814328076 L 148.60371987974662 124.84753645548253 L 146.1550817751157 125.31094972313294 L 143.94527959160726 125.78830243870192 L 141.96657091705615 126.24068299876511 L 140.03354690367968 126.64920935466986 L 138.20177739075137 127.13033776248392 L 136.4478766564767 127.61208651186868 L 134.75869364809301 128.16164432266285 L 133.24598368862183 128.65355459597174 L 131.082063053863 129.51350073163138 L 131.27057628713456 132.39079454388175 L 132.94246661530744 131.41394873259816 Z" fill="black" />
<path d="M 136.48241128227355 138.81205762035177 L 134.31002597841217 140.51917827265734 L 132.7525964302944 142.66432262396899 L 132.21706792987445 144.49618299964789 L 131.8963041488146 146.23801096493716 L 131.94521788559433 148.87632186030785 L 133.7542973111471 150.34849901870237 L 135.3844966341654 147.93360547348513 L 134.67282410659317 147.70412247562965 L 134.8657808121229 146.51369801943784 L 135.04916742168805 145.10244981285211 L 135.3058752493931 144.03147815728101 L 136.41324062315033 142.62315571171766 L 138.31006918647645 141.15217577808573 Z" fill="black" />
<path d="M 135.21053201996133 143.76083131510615 L 135.26215473525372 141.22902788134857 L 136.07389337485608 141.21913978255762 L 138.05047398491246 140.60851067026195 L 140.18537144738065 140.13361255813706 L 144.63191816766454 139.30666507085553 L 146.40385131920016 139.03659932762778 L 148.45143524510235 138.65166896528626 L 150.20220896896413 138.3945144331479 L 151.92228177170904 138.13157378953906 L 153.58327204489564 137.86984276382623 L 155.21907611762376 137.61162826613142 L 156.73877947077315 137.4115047810336 L 159.6219864022363 136.95143151478374 L 161.83517749936274 136.6964630331666 L 163.35130359576902 136.50883944592366 L 163.9515613262863 135.79990450757987 L 163.67631022219754 137.86891652554485 L 163.667356174096 139.0884556623168 L 163.26679890057076 140.56331750514428 L 161.9309825769045 142.78387259981503 L 164.3568592199705 144.31231880643497 L 165.93791301349174 141.90335729954322 L 166.725710232154 139.8247523454957 L 167.11287434811496 138.01633738070515 L 166.8376232440262 133.87929471117013 L 163.22462413860598 133.04523770251384 L 161.42776195376226 133.2580047402709 L 159.1396102774512 133.52854895396626 L 156.22508771672685 133.9943790080289 L 154.71988872612624 134.19464614793108 L 153.04270451760436 134.46194434554877 L 151.39070650954096 134.72572601514844 L 149.68975880447337 134.9882980668521 L 147.87546905177265 135.25665623002624 L 145.81782836829984 135.64748270362222 L 144.02469804327296 135.92795406976947 L 139.50456995886935 136.80266673873794 L 137.13812464790004 137.37879401723805 L 134.75740545326892 138.21958092056738 L 132.40019878037128 140.06149946240143 L 132.34378926910117 143.71072630208135 Z" fill="black" />
<path d="M 135.32841619914367 152.08100629869736 L 132.51678466796875 152.9933179616928 L 135.2643713660673 155.03811450630113 L 137.6385949567264 154.19264469309107 L 139.1998377476277 153.70901419361414 L 140.99978560700188 153.25922145697356 L 142.9877623924601 152.73482146761475 L 145.22644383543647 152.14985757865986 L 147.34948029070864 151.6191758016841 L 149.46566657707973 151.01485900689232 L 151.61044742514517 150.49098521412122 L 153.78664172831142 149.95529219213734 L 155.95797906916542 149.4197289106057 L 158.17857102847276 148.87451140375433 L 159.8402998269209 148.46825671209322 L 164.29345435721982 147.6477127624534 L 161.86637732712794 144.7960333618504 L 160.2343923881051 145.33531060354983 L 161.0479562447074 148.06703314645017 L 162.44087364943456 147.7054314818996 L 163.57886009590518 144.4533614562966 L 159.2093827902666 145.20935559259428 L 157.41408033871474 145.60388215093317 L 155.16934026677208 146.1096900347068 L 152.98337780293858 146.62515214380016 L 150.80227230141733 147.14048451244128 L 148.58975334479527 147.66763611029518 L 146.45667205304136 148.2644911905034 L 144.36645167237603 148.78483480415264 L 142.1037903419149 149.37601837613525 L 140.13058548674812 149.90264377740144 L 138.2574376429973 150.37875436107336 L 136.5056921526486 150.94614925222143 L 133.8744225792452 151.95248607963637 L 132.51678466796875 156.2494798898697 L 136.29511895710633 154.90959428724014 Z" fill="black" />
<path d="M 141.24987466101646 152.10651300133532 L 138.12665811266493 154.10172387913784 L 137.8050231642509 157.82272586002847 L 138.98237990102956 160.6152285545054 L 139.91977582756715 162.5032274548098 L 141.03067646089426 164.2019569214981 L 142.58077070396834 166.12424290157517 L 144.8280037810887 167.66058940167662 L 146.4934073517238 165.30535298113588 L 144.63541581946916 163.93886744998733 L 143.55672588285574 162.4328087035019 L 142.68703569587035 160.9784619983152 L 141.89591599740794 159.2879696876821 L 140.9486389451241 157.20071163997153 L 140.77104696546007 155.79170873804966 L 142.79736654992104 154.63384344397718 Z" fill="black" />
<path d="M 160.04327402292736 149.99393220186712 L 158.2270207502151 150.22882567251787 L 156.10041533790806 151.3129883915113 L 154.79038790639132 152.99205140583427 L 153.89673819539516 154.91469865863334 L 153.1275626564693 157.09038571194284 L 152.372940154235 158.7695964253209 L 151.52625850749953 160.41335594823022 L 150.5227298500582 162.04637048590104 L 149.1518571669778 163.85324754188144 L 147.07224615532783 166.3526310916389 L 149.25465814154717 168.1898493771111 L 151.3883039658347 165.68435011436856 L 152.9343013999418 163.78761388909896 L 154.16343875812547 161.99228370020728 L 155.18931570514 160.2076984965541 L 156.1271980857182 158.33344241305716 L 156.94249520304234 156.15488141949166 L 157.63331814829618 154.64918394572823 L 158.19584931052944 153.8258055538012 L 159.2381892107224 153.20830811654463 L 160.44683828176014 153.04281096219538 Z" fill="black" />
<path d="M 126.10687255859375 176.16095960140228 L 125.07793688990418 176.30732360908837 L 126.09768130364934 178.86572596689743 L 128.44734095691635 178.11240989212962 L 130.07127197786795 177.6237207010381 L 131.81127851320414 177.12793735345892 L 134.08491282068368 176.54846791798983 L 136.67285133142335 175.75445445270526 L 139.477455194409 174.98126055088528 L 142.76437216872625 174.06456779116743 L 146.6914300410614 173.08679534483866 L 150.26700411995964 172.24584001857602 L 153.82785406050647 171.53469086266753 L 157.2829714378596 171.02364801277395 L 160.6095498592116 170.76957941292022 L 163.7058870715678 170.70430909045902 L 166.90704345703125 170.708190202713 L 168.9770618857851 170.69189803526967 L 170.58232359730906 171.0450648735699 L 172.22805922820373 171.43227660123387 L 174.55785753418652 171.9626608497173 L 176.93569629138986 172.2814082082956 L 178.9166259765625 172.1956431865692 L 178.9166259765625 168.8031361103058 L 177.22445995861014 168.7173710885794 L 175.24499891112598 168.3854836815327 L 173.07345444367127 167.86484253939113 L 171.40620179331594 167.4512730170551 L 169.3383678017149 167.00365860535533 L 166.90704345703125 166.987366437912 L 163.6622769909322 166.99124755016598 L 160.4207235782884 167.07612371207978 L 156.8692502418279 167.34756780753855 L 153.19424066605603 167.88755034826997 L 149.48092068472786 168.62781720798648 L 145.8183355839386 169.48852203797384 L 141.82303017502375 170.48767830258257 L 138.483970586841 171.42279218348972 L 135.63488792638915 172.22613636760724 L 133.07329030431632 173.03368540232267 L 130.84558183835836 173.63036342779108 L 129.02052489713205 174.1856054708369 L 127.33146763683365 174.74794167037038 L 125.07175229010066 175.57116368154007 L 123.06659436009582 178.93034728934913 L 126.10687255859375 179.07671129703522 Z" fill="black" />
</svg>