<svg xmlns="http://www.w3.org/2000/svg" width="300" height="300" viewBox="0 0 300 300">
<path d="M 124.52805935430688 126.98158087359477 L 121.93806578533572 127.36567408648772 L 121.0753812871517 130.01288900508928 L 120.992911835471 132.63601978871753 L 120.99280595779419 134.37664794921875 L 120.99827315746194 136.61998618476846 L 121.20587208004848 139.13329687480913 L 121.4805916911182 141.82545460224364 L 121.68394306420323 144.65686032224957 L 121.96434995991001 147.7537775871246 L 122.17078976957806 150.25493086878873 L 122.38060979005611 152.52161057560724 L 122.5864957576644 154.46403985658765 L 122.65460560322481 156.05034683128895 L 122.9411621204303 158.6534076340907 L 125.8515624889447 158.3469585768468 L 125.59795787333769 155.82001449683605 L 125.5580354923356 154.25324529966235 L 125.36780329588139 152.24181715876776 L 125.18150515229694 150.00410233433627 L 124.99182679790249 147.5003728035004 L 124.73207256079677 144.41625979493793 L 124.5393057698193 141.56712352275636 L 124.27386424807652 138.85400781269087 L 124.08534500660056 136.48755776054404 L 124.09081220626831 134.37664794921875 L 124.0907063285915 132.68893138315747 L 124.1522798456608 130.30717935428572 L 123.93778870685178 129.67619603069977 L 124.66078341913062 129.91014275921773 Z" fill="black" />
<path d="M 126.86848792736956 131.69515090939413 L 126.56301810799957 130.91107229497564 L 127.74026237194342 130.16216893287535 L 129.16191237172717 129.27849922985405 L 130.70599434350603 128.56833395425716 L 132.33581132114537 128.0342959281677 L 133.79897913418512 127.6965528538412 L 135.8714171473396 127.72587403643314 L 135.85628991100472 128.2140265650476 L 136.1686961866434 129.88298497655424 L 136.3528751042305 131.54529799545878 L 136.47463050243746 133.50780910816889 L 136.47805428504944 135.90313720703125 L 136.4873023033142 138.8685302734375 L 136.49562644958496 140.445068359375 L 136.50108969211578 142.0966796875 L 136.50963930831952 143.70179376556865 L 136.44910439946935 145.30025492856817 L 136.3403443294152 147.10806150795162 L 135.95845171825948 151.31686178194047 L 135.81318369161744 153.4994881511668 L 135.45620587811422 155.6146428394872 L 138.29196306719828 156.1305964183253 L 138.72722158182006 153.8915030597707 L 138.97807171924052 151.59475931180953 L 139.3884154362098 147.37033204673588 L 139.53173056146815 145.47452534486933 L 139.61523862136798 143.76976385161885 L 139.62378823757172 142.0966796875 L 139.62925148010254 140.445068359375 L 139.6375756263733 138.8685302734375 L 139.64682364463806 135.90313720703125 L 139.65024742725004 133.41870456370611 L 139.5199276301445 131.27721177016622 L 139.3079883836691 129.38605799219576 L 138.82815833118278 127.10115898182741 L 137.0845154698479 124.81160154950436 L 133.61129918612738 124.5906785914713 L 131.50940352260463 125.05371676714482 L 129.57415702368147 125.69582620199286 L 127.69721848764782 126.56219901233347 L 125.94992317493158 127.65545802024967 L 123.81417915762543 129.55914254877436 L 123.90482750231794 132.05326217654337 Z" fill="black" />
<path d="M 126.77305858368159 141.74108927047112 L 128.23876991564433 141.57718868855986 L 129.9788631285226 141.4265114818229 L 131.81625298403483 141.25867503562642 L 134.1620320849378 141.10857494197296 L 136.25024545920127 141.02062426440142 L 136.16552602517373 138.16785229809858 L 134.0404825634997 138.20502369083954 L 131.63284369565267 138.30516773781108 L 129.7611271058524 138.4125998463021 L 127.93615684216817 138.51216678019014 L 126.37696583038091 138.74865682327888 Z" fill="black" />
<path d="M 128.18467079678666 146.55093156798418 L 127.48309045945749 146.88644682237864 L 128.3425948015127 146.98478980221947 L 129.74304198142764 146.63362655189937 L 131.34422989051853 146.4238424853457 L 132.95284091631484 146.27059646727326 L 135.811767578125 146.24036753177643 L 135.811767578125 143.35826528072357 L 132.87296474774766 143.32803634522674 L 131.06055526573147 143.4250344677793 L 129.20471192482236 143.61564102622563 L 127.32818156567481 144.06525902590553 L 124.62262243116751 145.74014009168386 L 125.90163291415084 148.45297468201582 Z" fill="black" />
<path d="M 126.75710764852934 153.70858146141012 L 125.86222391426536 157.07624020472846 L 128.39702117843046 156.1958723323197 L 130.03035520852688 155.6234265718707 L 131.637073965406 155.24214564119958 L 133.87028372749344 154.96937055741918 L 136.58249629782617 154.8735796243219 L 136.51747928811133 151.9918988913031 L 133.68403756156906 152.02123002851832 L 131.1638293549065 152.27396764005042 L 129.20548463522312 152.6934679593793 L 127.38178741531952 153.2971696598678 L 124.37093038260964 154.39373049839654 L 127.58127125772066 156.58524178077738 Z" fill="black" />
<path d="M 130.20295109712853 157.39884295446956 L 128.55685197935924 158.87871350783053 L 127.48915195366271 160.35314342751104 L 126.3008928050169 162.17471819823334 L 125.36330333294961 164.1853845743279 L 124.61517472827914 166.27523934247694 L 124.01174323804955 168.4503643972662 L 123.63072620838864 170.77166326415545 L 126.49439586192386 171.27814142334455 L 126.90561516038795 169.1200701730463 L 127.49053816234586 167.21621573564806 L 128.1828392451754 165.3522130819221 L 128.9737653981081 163.65926617676666 L 130.0181722650873 162.05249622092646 L 130.78702009095326 160.89936266404447 L 132.20183405912147 159.60152325646794 Z" fill="black" />
<path d="M 130.28796721797892 165.8803412887128 L 131.61907708753319 166.1265960828451 L 133.7565608950225 166.85123108245114 L 136.17734905795066 167.08453384038745 L 138.8861510349263 167.1241867987886 L 138.9672425197612 164.2652174980864 L 136.38246539517434 164.15472397211255 L 134.445953753415 163.86251403473636 L 132.37018072496681 163.1357330187174 L 130.64037750858358 163.0066216019122 Z" fill="black" />
<path d="M 147.8540883294079 130.40932775028784 L 147.34983680653644 133.33204041161954 L 149.3299319125325 132.78699123398331 L 151.09602088022706 131.91542188522462 L 153.02225099677707 131.11118896795193 L 156.40133149700523 129.93729725490962 L 159.92671781750903 128.7881120421428 L 162.33107157224885 128.00339145172794 L 165.2118231302101 126.8248581209211 L 166.76225817538187 125.05724359375635 L 164.56708752774313 123.15100835936865 L 163.5967706197899 124.2862258634539 L 161.32798604493865 125.08462124358456 L 158.97892183092847 125.72629225473219 L 155.37418119830727 126.82930430759039 L 151.87520994072293 128.03273193048557 L 149.73222619008544 128.93015916946288 L 147.7892087124675 129.91039646132919 L 144.36769249033856 132.39330138525546 L 149.0129771002796 133.08884119502466 Z" fill="black" />
<path d="M 153.91952815437946 118.7305823440433 L 152.3003728565757 119.66377505155992 L 150.75530390685225 121.87558240336058 L 150.69903176188402 125.25433222429726 L 151.73366712603368 127.51766346400242 L 153.10641241782056 129.67986127887403 L 154.90723922462905 132.2250246606783 L 156.95245352208062 134.47714840646532 L 159.2762024095978 136.4500205411266 L 162.50583736951162 138.69632542615003 L 164.89060989664344 139.64089562747478 L 167.18812596703972 138.8661147471673 L 166.08579981421028 135.9681137684577 L 164.96229537679406 136.49460241940022 L 164.17812259142588 135.98775660509997 L 161.2139098950897 133.9048378573109 L 159.18035897791938 132.17409671072218 L 157.40843460349595 130.2221188940092 L 155.75223016030444 127.88752153362596 L 154.49619127240382 125.94571544224758 L 153.80231101155348 124.65557988507774 L 153.74603886658525 122.62905626851442 L 154.3256037059243 121.81290951875258 L 155.33523258780804 121.2946862106442 Z" fill="black" />
<path d="M 166.40317413706723 129.20352131040963 L 162.87677723672815 128.67084034375316 L 161.2945326346635 131.45018562865647 L 160.97434737165284 133.09453209189778 L 160.47688799458535 134.9822928494685 L 159.5337884442678 137.87364517722762 L 158.78828172447655 139.7199156483027 L 158.24668804811947 140.7248628959125 L 156.96397475722992 141.77532209351858 L 158.77271957870758 143.99457536741892 L 160.40687640500553 142.6677152290875 L 161.44975538489845 141.0450990001348 L 162.3967535479197 138.93751204933488 L 163.43424481791465 135.8980782442815 L 164.01710770647216 133.83198157997722 L 164.3451158028365 132.29822745728103 L 163.95122569295935 131.64922801562184 L 165.82644012074527 132.16757243959037 Z" fill="black" />
<path d="M 161.2819960010159 117.5340751035627 L 158.47964331791192 118.61604770971655 L 158.01163166227064 121.85449365626656 L 159.54319480134006 123.51647948699939 L 161.1948934778457 124.92951270544488 L 161.80508504305507 126.07139361815383 L 164.37472452725743 124.76442181153367 L 163.5084756627793 123.00347069299262 L 161.59511086272244 121.26342773956311 L 160.89400798616686 120.79833837498344 L 160.67807152583808 120.75858607934595 L 162.2330186474216 120.3891426698748 Z" fill="black" />
<path d="M 141.92153278095637 157.33407796556762 L 143.11967597232157 156.43544453981107 L 145.01446456905649 155.5983996002883 L 147.46284653533098 154.36736650399166 L 149.89547311960072 152.92732680992813 L 152.2895547712395 151.40324864375015 L 154.44485759221186 149.69400747720294 L 156.6177908693564 147.3812276781358 L 156.61519024186865 145.06667901515235 L 153.71989276594385 145.30771063328515 L 153.9693673337686 146.0211160718642 L 152.43319416560064 147.41194955404706 L 150.5192831193855 148.85578455937485 L 148.26797902883678 150.23453842444687 L 145.94718764435652 151.57220869132084 L 143.64215164188101 152.7184949309617 L 141.46772637142843 153.70823221800143 L 140.00107464091863 155.06179605786988 Z" fill="black" />
<path d="M 148.62027047931804 137.72638411112703 L 147.047119140625 137.63836658000946 L 144.16449314597932 138.15322421242467 L 143.6727104631116 141.08313413047844 L 143.66523670922703 142.82478962365303 L 144.13645374935192 145.06058381405566 L 144.81599703248898 147.52117357195007 L 145.75530924449987 150.36631312656405 L 146.39673575576546 151.87522018117193 L 147.10379338616238 153.33721045140777 L 147.93119112222396 154.79111507095902 L 148.75096757092967 156.15018536404477 L 149.78868750563407 157.73523840267362 L 151.58855373709835 160.16544390374676 L 153.66026936493185 162.29292078402943 L 155.97473883884402 164.17505220254344 L 157.9966493148127 165.46767407464188 L 161.73719381314095 167.32898795012903 L 165.46038867009887 167.06743547770031 L 165.71748328208923 163.4425048828125 L 162.83903527259827 163.4425048828125 L 163.09612988458863 165.09772565511219 L 162.85814310092155 164.31066048737097 L 159.5765928726873 162.61850756598312 L 157.92540764553098 161.53381010214406 L 155.88257731475565 159.86247472378307 L 154.10114352852665 158.03609418219074 L 152.47998925217843 155.83678308170138 L 151.53711836657033 154.39388201876773 L 150.77242215902604 153.12538883529098 L 150.01534723883762 151.80158349390473 L 149.39000740829704 150.51088821726557 L 148.84307942737513 149.24208531093595 L 147.94584378782352 146.55682935773743 L 147.29298961002308 144.26278044375684 L 146.86393809546047 142.41959514197197 L 146.8564643415759 141.13329653358406 L 146.47271388527068 140.23447110007533 L 147.047119140625 140.62420666217804 L 148.49887014568196 140.66131120137297 Z" fill="black" />
<path d="M 161.4180090483271 152.5561002666181 L 159.67269129655125 152.3953176709549 L 156.4455732673124 152.47328676264004 L 154.71896010686655 154.53533071481843 L 153.9876755829212 156.67586296841012 L 153.01147690848222 159.56020595636755 L 152.34694867162017 161.38795339270692 L 151.56767847185 163.04949626432682 L 150.84739610216016 164.33482989072738 L 149.63805038027414 165.4661461894168 L 151.58631485410086 167.6249182637082 L 153.14979628065234 166.25379315614762 L 154.266061762525 164.51117268098568 L 155.21530718775483 162.61924875573058 L 155.99120863839278 160.61826084050745 L 156.9956007842663 157.69693976596488 L 157.59671372125845 155.88361459768157 L 157.5626054436251 155.44321714360996 L 159.62906651594875 155.3960641649826 L 161.1967370454229 155.4855257099444 Z" fill="black" />
<path d="M 152.10072897962655 140.62931497005476 L 152.69728544299304 142.96859562846143 L 155.16604796893844 143.9304545706637 L 156.9118316639437 144.23043715983255 L 157.4924652110563 141.41433823079245 L 155.96127136699906 141.0386616402738 L 154.97300264294446 140.82437312153857 L 155.06540871568595 140.13569967838274 Z" fill="black" />
</svg>