<svg xmlns="http://www.w3.org/2000/svg" width="300" height="300" viewBox="0 0 300 300">
<path d="M 113.91948036506868 124.69654750267821 L 110.09528946876526 126.66912841796875 L 114.24409628972708 128.33680059928685 L 116.87917957104507 128.281502984648 L 118.56972044488 127.99633220890951 L 120.23125076171445 127.65627468472734 L 121.99700685224303 127.3324189274727 L 123.8010491588836 126.997992026124 L 125.70796257081318 126.59158322851246 L 127.81722068050483 126.19490203820789 L 129.71740904587293 125.7775614734981 L 131.6323328903641 125.31094750652726 L 133.39485331427937 124.91301345199886 L 135.1663603329977 124.51561396408765 L 136.7213313768127 124.16939677457773 L 139.3792352442247 123.63871747768053 L 140.00748097931205 121.7537434190334 L 138.411429464587 121.8954564195922 L 139.694039285413 124.4609888929078 L 143.10348093475045 122.1002604872166 L 138.9783087010878 120.46553056919447 L 136.0905582716248 120.98587666292227 L 134.4765840029398 121.31531865309985 L 132.68302754509563 121.69367600112614 L 130.8804844924484 122.09652319659774 L 128.97826966506457 122.5558125499394 L 127.16935158512017 122.93925323522961 L 125.06535285887432 123.31832888086254 L 123.1551275989289 123.712701333251 L 121.39410642900697 124.0289091975273 L 119.59479904297305 124.35568820589766 L 117.9433410785575 124.69128986140299 L 116.60897960864243 124.93163178097699 L 114.20255898371042 125.00145623665065 L 113.34587264060974 126.66912841796875 L 114.52717490836882 127.59068394263429 Z" fill="black" />
<path d="M 115.35910609649002 137.8459463743764 L 113.7537323579997 138.61860817493965 L 112.11462611752172 139.7732490124144 L 110.97095322124609 141.90730580277668 L 110.81422138055493 145.14984955173824 L 111.37394400630939 147.48274892792688 L 112.67182934831659 149.0251117633942 L 114.87455737043341 147.1549419475433 L 114.04780892337811 146.19486337676062 L 113.81529522100757 144.97429595607426 L 113.91063857562891 142.53629771284832 L 114.35143833560328 141.7675224719606 L 115.2330840482503 141.22050315318535 L 116.65261265350998 140.5417489381236 Z" fill="black" />
<path d="M 115.53543086896256 140.85661573097215 L 115.66189377706255 138.90291079809714 L 116.24899565853183 136.8912585612801 L 116.46350299669265 136.34232725689637 L 117.44027805391396 136.428662560362 L 118.8507080078125 136.43939101696014 L 120.831298828125 136.44346356391907 L 123.280029296875 136.44471287727356 L 124.8445194265686 136.44493909587698 L 127.89607164048164 136.2952949910378 L 131.0058036407732 135.68287950436235 L 133.95684179822476 135.01864777142276 L 136.24457513734419 134.63380444869603 L 137.9340042800653 134.3078557611139 L 137.68830370605144 132.94694592462108 L 136.69001628964503 133.23898903708266 L 135.80490372006716 134.81709440168248 L 134.8207475576828 136.97994848787604 L 134.13678268824714 138.50581341600875 L 133.19182929491862 140.97414240385405 L 132.41036453798912 142.80206558540007 L 134.99991378232338 144.01885726616243 L 135.94696465039388 142.16819158052095 L 136.98260207737786 139.75675982617875 L 137.7390668954422 138.37979272306146 L 138.73550155337034 136.31352083269252 L 139.43486164004247 135.13894065041734 L 140.95732617676106 132.25288317694142 L 137.5426802902472 131.0170954107611 L 135.66704595640581 131.36680590286647 L 133.30939355333774 131.75771941607724 L 130.3186592498518 132.41978162845015 L 127.48661878920586 132.9835136027122 L 124.7404415109314 133.10913805256052 L 123.280029296875 133.10936427116394 L 120.831298828125 133.11061358451843 L 118.8507080078125 133.11468613147736 L 117.23623561796104 133.1254145880755 L 114.75597942518235 133.61214051654113 L 113.38601410709317 135.8158947590324 L 112.78476149637495 138.43375912377786 L 112.65914920916244 140.68415575340285 Z" fill="black" />
<path d="M 114.1284700040065 148.91317906055718 L 113.04197208914427 150.07753062544498 L 114.44968663708532 151.44244083838143 L 115.97922311116912 151.05283816143137 L 117.75133135836278 150.6087279862811 L 119.87203816154955 150.08659224797958 L 121.99118313102008 149.70886294396487 L 124.2792943617181 149.30980312552776 L 126.71985675664696 148.91598138931874 L 129.14932977190412 148.50601186978363 L 131.65971212919766 148.08985263986392 L 134.56741611423666 147.61061397686117 L 136.8378742918571 147.17995764619505 L 139.03495004168312 146.7474548091967 L 140.89296852473552 146.3201026109326 L 142.64332615706178 145.8814809780685 L 144.99293898111594 144.68044067186227 L 143.66367722982156 142.01536010938773 L 141.54795802262572 143.041492654744 L 140.23740256901448 143.2785302015674 L 138.42232534894188 143.6269348392408 L 136.2621012940804 143.99521325224245 L 134.03121669826334 144.36533817157633 L 131.14119119111484 144.78697841482358 L 128.61006964215838 145.17160043490387 L 126.17809246210304 145.56241216536876 L 123.7211939195319 145.94434726509724 L 121.39993015022992 146.34606869666013 L 119.16177531501295 146.74409622858292 L 116.92518231351222 147.2980102949689 L 115.13222708414338 147.75477902606863 L 113.60085047228968 148.16595759911857 L 109.85902888741823 150.85716175736752 L 114.2101530428685 151.87136683788032 Z" fill="black" />
<path d="M 126.42971342590825 109.50255135897996 L 123.52615501905028 110.34013620079146 L 123.3014657497406 114.08184814453125 L 123.29383313655853 115.5958251953125 L 123.28673112392426 117.4476318359375 L 123.28184962272644 119.7498779296875 L 123.272580742836 122.4525146484375 L 123.25199019908905 125.74322509765625 L 123.23936377305174 129.0148915954263 L 123.10562412493636 132.63342260905887 L 122.75808696521464 136.80877926903807 L 122.35971726899272 141.5298595409718 L 121.83455152685161 146.52492518523601 L 121.3099110207869 152.01584739995963 L 120.91370762746165 156.35800108360277 L 120.5224104393825 160.5320923183998 L 120.27020945170761 164.5222547299769 L 120.09076446763973 168.09414442382868 L 119.91765430999904 171.19928574220046 L 119.82367963373153 174.38970914943542 L 119.76951997812688 176.47409920368 L 119.78760850429535 178.281982421875 L 119.80603086948395 179.92108154296875 L 119.82814287085296 184.1267355341374 L 120.12373184445775 186.2023211465636 L 123.12333846804225 185.9018048299989 L 123.02280927758454 184.0235330205501 L 123.04492127895355 179.92108154296875 L 123.06334364414215 178.281982421875 L 123.08143217031062 176.536398843195 L 123.17131548345597 174.51678499118958 L 123.32941600250096 171.37603164061204 L 123.55242400892277 168.30014268554632 L 123.76909718891739 164.7400743715856 L 124.057057334055 160.8225219394127 L 124.45799647410085 156.68850770545973 L 124.8540294089006 152.34718970941537 L 125.37370042627339 146.87741856476399 L 125.89284620756978 141.8627185840282 L 126.28671283947286 137.09954592627443 L 126.62337978131364 132.84167504719113 L 126.74171532851076 129.0780039123862 L 126.72908890247345 125.74322509765625 L 126.7084983587265 122.4525146484375 L 126.69922947883606 119.7498779296875 L 126.69434797763824 117.4476318359375 L 126.68724596500397 115.5958251953125 L 126.6796133518219 114.08184814453125 L 126.45492408251222 111.76765188514604 L 126.57626801940425 112.45509024258254 Z" fill="black" />
<path d="M 124.63875109960114 155.23822237832363 L 121.67234591247461 154.73308979985927 L 119.4736237375079 156.49123431089902 L 118.12487618069876 158.61885173063806 L 116.39082775534432 161.42045131712194 L 115.42710124670192 163.1340283552304 L 114.2096127069749 165.03006628653824 L 113.08048807802713 166.90247385623596 L 111.99970319491314 168.6608323273969 L 110.90267648638216 170.32328882111494 L 109.92458630374749 171.9252480104903 L 109.02031518781037 173.36777828030404 L 107.94528677994201 175.7555033186454 L 110.59841439193299 176.9797261735421 L 111.64801977312713 174.76295902438346 L 112.47226428219001 173.5529014035722 L 113.47476491986784 172.00178442107256 L 114.61040422696186 170.3610182585406 L 115.76228535947287 168.56590993282654 L 116.9018374883376 166.73470422127426 L 118.16909015954808 164.8270312150821 L 119.18595447121818 163.11226352662806 L 120.90893729586374 160.35844319123694 L 122.0449309499921 158.53220318910098 L 122.36696072815039 157.93805277826573 L 124.15397350977386 158.20867703573887 Z" fill="black" />
<path d="M 123.42206715085923 163.1437298991112 L 124.78502867006114 163.29315118263986 L 126.90337878214756 164.96128813302496 L 129.2222031095328 166.48558636140626 L 131.9603213659409 167.841204739599 L 134.90100184793687 168.96667818998253 L 138.03306093302336 169.7650067534783 L 140.7544349977418 170.25243260807704 L 141.3122153928832 167.44312403254796 L 138.74001035603914 166.8795244965217 L 135.93029698018813 165.97619290376747 L 133.3253231653091 164.849469088526 L 130.9139052889047 163.57752399015624 L 128.87542981160243 162.19899018728754 L 126.13232972837636 160.18853827048514 L 123.53410960695327 160.1878130696388 Z" fill="black" />
<path d="M 159.81484164338926 116.27262771683849 L 159.5456658945148 114.99264165817866 L 161.10407326493083 114.52269245272797 L 162.40936818955905 114.22840558091129 L 164.15359503396544 113.9992169597943 L 166.14522872133662 113.75876608741602 L 170.450859119339 113.62493712723342 L 172.6337285273844 113.5586774163611 L 174.25573609743012 113.4898965355 L 174.68586283527344 112.51356359117247 L 173.70063774087222 113.093532019999 L 172.5819288041973 115.76772280798757 L 171.9576353084214 117.56046446914465 L 170.525249604435 120.97676988075443 L 169.4349034600986 123.07252319908035 L 168.5055356806007 124.47206202049112 L 170.8542055303368 126.08848485450888 L 171.9054285711514 124.61021605873215 L 173.33583437994 122.35172133018307 L 174.9283510197036 118.78621521835535 L 175.6364549848652 117.00046566857493 L 176.75041206381528 114.4195295034385 L 177.60173482097656 110.89549402601503 L 174.07067991819488 110.194429636375 L 172.5237421757406 110.2507708258264 L 170.3493117790985 110.30963318526658 L 165.94034256772588 110.45107277977148 L 163.71871941915956 110.7361346027057 L 161.78985056044095 111.03245867690121 L 159.92620017256917 111.53895305508453 L 156.9832647695477 113.29617670119634 L 156.85813198942324 116.37043868941151 Z" fill="black" />
<path d="M 166.51092529296875 113.81988716125488 L 163.01167860673647 114.08353090414681 L 161.63148053921356 117.47128722649961 L 161.16804616476117 119.91534411624738 L 160.83372336651703 121.40488353441648 L 160.39388325500772 123.17428695972029 L 159.91350173752025 124.97498330862422 L 159.20635308909672 127.07322528187986 L 158.61783480482305 128.9257607311436 L 158.04381879970873 130.65499561486524 L 157.41301927354522 132.19927342165187 L 160.05219068739228 133.27582423459813 L 160.71777787997877 131.64200145544726 L 161.33211636705195 129.8177695422939 L 161.93195257496578 127.99171612437014 L 162.70124435622975 125.86083212106328 L 163.26517436217978 123.95791518871721 L 163.76161354754547 122.17385181714602 L 164.21952707742633 120.63543713375262 L 164.80040422641144 118.32485535162539 L 165.00467881513853 116.70772886147819 L 166.51092529296875 116.97137260437012 Z" fill="black" />
<path d="M 159.2483472823814 136.26373860048278 L 156.93992121069613 138.04107562053275 L 156.53472464497173 140.4537814777895 L 156.54141640663147 142.68475341796875 L 156.58188140392303 144.86187744140625 L 156.61705553531647 147.4268798828125 L 156.6571541555746 150.2166175235319 L 156.50206819956867 153.09045588361624 L 156.19441592948215 155.4690382159069 L 155.61916875470644 157.83759988029425 L 158.38900995623106 158.51213156501825 L 159.00211727364285 156.0009324872181 L 159.37866910511883 153.37463200700876 L 159.6197013131754 150.3176842342806 L 159.65979993343353 147.4268798828125 L 159.69497406482697 144.86187744140625 L 159.73543906211853 142.68475341796875 L 159.74213082377827 140.561477311273 L 159.58900945336637 139.82110699665475 L 161.0977220535561 138.69561198545472 Z" fill="black" />
<path d="M 160.89645552635193 140.38250732421875 L 160.91929138449152 138.9293204726137 L 160.94339910546375 138.1141396073691 L 161.8653249380315 137.5881397491538 L 163.19113263687518 136.70518932318558 L 166.08280632021857 135.12115371550405 L 168.31293465228114 134.08121426727834 L 170.37389143135988 133.4249162730392 L 172.2296572532353 133.06220814592092 L 173.99436800961118 132.8924713148688 L 175.71712627356598 132.8943752771784 L 177.08740680372847 132.93949833882738 L 177.4355753797467 132.6761928028135 L 177.303484038917 133.60865918762846 L 177.30319008593438 135.6213530352505 L 177.12290822754812 137.35634698383186 L 176.41280343200154 141.25276937994374 L 176.06983563931803 142.8424512881528 L 175.81724931611672 144.51695171035652 L 175.47818999116132 146.3764933138972 L 175.2289838890163 148.3451954456564 L 174.97827491640015 150.5833862707891 L 174.7193764858855 152.60443026737698 L 174.60600795206645 154.57402155583472 L 174.50310659403095 156.33793714231763 L 174.38155703932725 158.08458910236877 L 174.28033103482568 161.09998256036934 L 174.34532499966002 162.82337037887638 L 173.92723962458848 164.93403809001427 L 176.77588537541152 165.52946288654823 L 177.29407929721498 163.16076048049862 L 177.35907326204932 161.18053501775566 L 177.50992245286025 158.26514234294373 L 177.67645883565655 156.58344957643237 L 177.82563267293355 154.79389836604028 L 177.964339334427 152.93475430293552 L 178.24560203672485 151.0019408776484 L 178.5350541969212 148.7607615855936 L 178.78999848540118 146.9007283657903 L 179.13514326200828 145.08168110214348 L 179.38670732943197 143.4529588680972 L 179.72794363831096 141.88956460443126 L 180.45826853026438 137.87827215679314 L 180.67410483594062 135.784530753812 L 180.673810882958 133.44297655455904 L 180.1456013780658 130.671829658124 L 177.57689983689653 129.63276728617262 L 175.77823505455902 129.5527682775091 L 173.82789761538882 129.5546722398187 L 171.7394589577022 129.76030161970408 L 169.52601091239012 130.1983747425858 L 167.08562491803136 130.99349276397166 L 164.56233528134393 132.18072616730845 L 161.51223650374982 133.89991321587692 L 159.9571848275935 134.9938915008462 L 158.21431573828625 136.5699424238809 L 157.98634826394598 138.8077400742613 L 158.00918412208557 140.38250732421875 Z" fill="black" />
<path d="M 160.62876347002708 144.40159886949743 L 159.17531861907128 143.90941591744095 L 159.76392094359306 144.6651408878267 L 161.4881355569773 144.00977015206607 L 164.08843153960302 143.3241363137528 L 165.54752386691212 143.01011261669242 L 167.06127154275862 142.68478910202552 L 168.52428927333384 142.49709808237452 L 170.17560520172077 142.22931029156538 L 171.5936419927741 142.14804477258582 L 175.4977027854137 142.00750234274213 L 177.57874038912988 142.2406110810448 L 178.02184554837012 139.1750383330177 L 175.6015403786488 138.75751230569537 L 171.4752056634759 138.86721401647668 L 169.83232936859173 138.93609498187212 L 168.06262478916616 139.19381988637548 L 166.50074017599138 139.38149507766198 L 164.84554253933788 139.73183074268258 L 163.27973252289698 140.0684418112472 L 160.4424064352102 140.83422398855893 L 157.95336421265694 141.9055378231108 L 156.30930052155372 145.16370419974655 L 159.21315547528542 147.02381616956507 Z" fill="black" />
<path d="M 160.71319580078125 150.7929892539978 L 160.3623165091547 153.14537043771986 L 161.6171255551638 153.2410199815488 L 165.00011459854213 152.1372395351538 L 167.640718800001 151.48759289091953 L 169.03044090835206 151.09469290607055 L 171.51838258252673 150.6348776244147 L 173.94358676379557 150.2740771502948 L 175.96814169259915 149.8947668520419 L 177.91761727005115 149.77659654184785 L 177.82701163619885 146.80384779408965 L 175.67126260427585 146.8107995542081 L 173.48256069714193 147.1071484356427 L 171.01030394091077 147.3969827271478 L 168.34870948227294 147.86307076580445 L 166.8215614734365 148.24592761689297 L 164.06055434677037 148.9225749179712 L 160.6015023745237 150.0709917372012 L 157.6070438424078 151.46791081228014 L 160.71319580078125 153.8202919960022 Z" fill="black" />
<path d="M 161.39070550913453 162.20757906563614 L 161.94431025960202 161.315153713978 L 163.93110417591825 160.7424513185218 L 166.5154699971117 160.1064169662775 L 170.52200172879515 159.37587988606683 L 173.16761547294823 158.98365092986108 L 175.1051603159559 158.66671664719644 L 176.90703057094936 158.4994978726923 L 176.71296454623814 155.6230607210577 L 174.8057283559191 155.70608608717856 L 172.78209155830177 155.91466449982642 L 170.02609397432985 156.17307030924567 L 165.8581872294508 156.89394924466 L 163.04094172251925 157.5842088377282 L 160.13027470133548 158.5880445282095 L 158.84733160024047 160.59845120780136 Z" fill="black" />
<path d="M 165.32359015334077 166.84978665950626 L 163.32795443392294 167.31174342174256 L 161.1688756219767 168.61972423734608 L 159.6732212995603 170.70255650254882 L 158.72529735445218 172.91831413602554 L 158.02570062020922 174.80659390311925 L 156.6039355430795 177.99395306787196 L 155.76000667960952 179.84329874584913 L 154.52230637070315 182.0536328483003 L 153.5910852942847 183.38780667358293 L 155.9517613854028 185.16285250610457 L 157.10916335585935 183.7193163704497 L 158.53625796882798 181.32515828540087 L 159.5288769569205 179.34576861181554 L 161.02398199697828 176.07682894844325 L 161.76481495023532 174.13637336397446 L 162.5454066301272 172.27315150526368 L 163.4264612920858 170.92763904390392 L 164.54436001920206 170.13356907825744 L 166.00575554978423 169.79474459049374 Z" fill="black" />
<path d="M 168.21117003841303 174.92343841604514 L 169.87012363730463 176.29668654805022 L 171.47802145874985 177.23525220122073 L 173.39142988738857 178.44017066458915 L 175.6727593028496 179.85957455022685 L 179.261112667699 181.97284136805325 L 181.26375057631898 182.9589433899743 L 182.65531680649352 180.4617109069007 L 180.8408160432385 179.32073773350925 L 177.4070746815254 177.10478091852315 L 175.22307206573643 175.62135277291085 L 173.28333108031265 174.32382983002927 L 171.72228358925787 173.41058884257478 L 169.96021668033697 172.40651763864236 Z" fill="black" />
</svg>