<svg xmlns="http://www.w3.org/2000/svg" width="300" height="300" viewBox="0 0 300 300">
<path d="M 129.33143552073773 123.29963650566562 L 127.19045441621816 124.36915681326504 L 126.57083224678188 126.83161678918783 L 126.56955254077911 129.634521484375 L 126.59423089027405 132.337158203125 L 126.6232693195343 135.440185546875 L 126.65246081352234 138.0677490234375 L 126.67779076099396 140.18231201171875 L 129.60556042194366 141.896484375 L 129.59319933321692 139.87906040527932 L 129.66456472907439 137.28852331904528 L 129.86168004488994 134.56018686829577 L 129.99560190278683 133.0278395103505 L 130.13361905802194 130.50659129121647 L 130.29679176934258 128.33168428542933 L 130.39915495014404 125.69445714652173 L 131.14010736264265 126.26410256161937 L 133.06154448905235 124.97748909941271 L 134.47104866104598 124.22097844191838 L 136.1163448735831 123.5682070503728 L 139.05690192716852 122.75756405629201 L 141.21095796429844 122.51877788049576 L 141.70687117220248 122.12892257995577 L 141.14257259623204 122.12945013956418 L 140.49369067110476 124.77604128363741 L 139.7593697794436 128.1347233260684 L 139.42453498824332 130.55057259708212 L 139.15997756607788 133.05439254403143 L 139.05128865500936 135.24970091738288 L 139.07977962493896 137.15435791015625 L 139.12022030353546 138.99365234375 L 139.1739546060562 140.7703857421875 L 139.2385915517807 142.48455810546875 L 142.1798654794693 142.48455810546875 L 142.2445024251938 140.7703857421875 L 142.29823672771454 138.99365234375 L 142.33867740631104 137.15435791015625 L 142.36716837624064 135.35540162167962 L 142.51055466048462 133.34660843253107 L 142.78615837113168 130.97066763729288 L 143.0995169393064 128.7570003067441 L 143.80562573514524 125.53426145073759 L 144.48914127095546 122.65045708699832 L 143.92484269498502 119.62303054504423 L 140.99973539507656 119.23317524450424 L 138.40037346345648 119.51990176402049 L 135.1110721186044 120.4109189261897 L 133.08327262801652 121.20956355026912 L 131.32383148751015 122.15471304902479 L 129.78823736391985 123.24541892275563 L 127.50428743266845 124.34057703316577 L 127.35457541815744 128.18467313644567 L 127.22966219197806 130.33898976347103 L 127.11560415190065 132.8476487708995 L 126.99745081448506 134.34325551451673 L 126.7984479662381 137.14531457157972 L 126.72577039334558 139.83492885253318 L 126.71340930461884 141.896484375 L 129.64117896556854 140.18231201171875 L 129.66650891304016 138.0677490234375 L 129.6957004070282 135.440185546875 L 129.72473883628845 132.337158203125 L 129.7494171857834 129.634521484375 L 129.74813747978064 127.03215274206217 L 129.66867644315684 126.34153654610996 L 130.55259768238727 126.08476290839688 Z" fill="black" />
<path d="M 130.41015625 140.59677290916443 L 128.0461382250687 140.58683225483296 L 125.96717670790575 144.1368376856863 L 129.22002679147533 143.91423803598093 L 132.4682381265337 142.5655130013562 L 135.02104900318128 141.66550399012567 L 139.2384294629919 140.34468700860168 L 141.55365578059718 139.70956737867314 L 143.4827557979092 139.3304292594299 L 143.87862928489108 138.14413948518407 L 142.9065337431944 137.18919293917565 L 144.1656098114931 139.74708635769935 L 146.65054551979642 137.09047965544093 L 143.0852373661533 136.2795560921326 L 140.90911277409032 136.57607715257686 L 138.3268781541956 137.11710498358582 L 133.97370197338122 138.42385147862433 L 131.2329337484663 139.3756491080188 L 128.14325445852467 140.67951196401907 L 127.43492290146925 141.2326691502512 L 128.5249066968063 143.60652712016704 L 130.41015625 143.59658646583557 Z" fill="black" />
<path d="M 136.58787721808727 139.33695448117703 L 134.74163375944138 140.648523684775 L 134.23830136426125 142.97111615441156 L 134.10831382393764 145.05664786946897 L 133.84211205004058 148.01900844189333 L 133.72476888975734 149.98087461650312 L 133.65992163126683 151.85622450236573 L 133.5969082953716 153.7661996529243 L 133.55318978107215 155.61550615014514 L 133.49259486256153 157.31524972227626 L 133.43052988701604 158.87675485841183 L 133.4601378440857 162.1912841796875 L 136.56566047668457 160.2894287109375 L 136.58737363648953 158.60819304012657 L 136.63901233325927 157.24085380085293 L 137.15379834867335 156.33881193938458 L 138.15619055689524 155.4507055191435 L 139.4682558917928 154.68563459248494 L 141.58475105853216 154.1715792664146 L 144.0178349156817 153.7095525898505 L 145.95738411976808 153.5366026074446 L 145.76014517710692 150.3009218066179 L 143.5944697718183 150.378215964837 L 140.87801749615534 150.8420926085854 L 138.2410946941447 151.50418474345256 L 136.13213952122976 152.7160425277315 L 134.46973680757665 154.35540192780292 L 133.54409313549073 156.48131416789707 L 133.45168886351047 158.54231965518593 L 133.47340202331543 160.2894287109375 L 136.5789246559143 162.1912841796875 L 136.60853261298396 158.92439260252567 L 136.69051060618847 157.45794363709874 L 136.77395865642785 155.72934248266736 L 136.8382723686909 153.8750356986382 L 136.91930200154567 151.98129991169677 L 136.99849771180516 150.15303651630938 L 137.13322974683442 148.28616733935667 L 137.40718910574986 145.31774177896853 L 137.52927676073875 143.32429400183844 L 137.56610549837112 142.343663815225 L 138.34864621941273 141.67830430788547 Z" fill="black" />
<path d="M 132.44476318359375 150.13782608509064 L 130.60643657519282 150.15640856216692 L 128.41018700422327 151.25531813592147 L 127.25699620694998 153.67504437429463 L 127.06201352351842 155.55230610320774 L 127.05045258998871 157.51171875 L 127.05068945884705 159.6888427734375 L 127.06059925589156 161.9167221439581 L 127.21241545809126 163.658585484106 L 127.31255727824902 165.78572626429343 L 127.32922872381975 167.28879448996807 L 127.31283937903291 168.17355294857492 L 127.97466746700924 168.59363264720298 L 129.0412981965949 169.9356617936467 L 130.6017337020852 169.04954245389538 L 132.24057363468927 168.25822949313414 L 134.298817281369 167.45285476419394 L 136.73024105573623 166.68305696644018 L 139.59557649721606 165.81611819510243 L 142.19844543638087 165.13454056634214 L 145.47769185684038 164.1966975477677 L 147.44068543615305 163.84721830499316 L 147.04967100915945 160.68549653875684 L 144.76339701034712 160.8615299912948 L 141.30863464174413 161.75046919928286 L 138.65393522153394 162.39518551583507 L 135.68553042863877 163.25493131480982 L 133.1114610389435 164.06167160299356 L 130.81240488093573 164.95795703030336 L 128.8861813369773 165.89332863985462 L 126.7375103971551 167.2343821516658 L 125.96759327517826 171.07885270435952 L 129.7983666756546 170.07254080142508 L 130.32213846368023 167.52895453346943 L 130.33880990925098 165.72880010289407 L 130.29490876065873 163.5016928362065 L 130.19464976754594 161.8152114497919 L 130.20455956459045 159.6888427734375 L 130.2047964334488 157.51171875 L 130.1932354999191 155.66742045929226 L 130.2503280118 154.49170367258037 L 130.68160987077673 153.23284104376603 L 131.25818744824468 153.00545667220808 L 132.44476318359375 153.02403914928436 Z" fill="black" />
<path d="M 155.49052860637198 122.79618602603101 L 156.34344785374896 122.07171930898367 L 157.87842170690698 121.73915396562968 L 160.63577377983296 121.37657116436279 L 160.95314594143113 120.96752586610651 L 160.88181345262532 122.04045501546749 L 160.8679529428482 123.56610107421875 L 160.86859273428777 125.83185129226999 L 160.67326942945738 130.29191853351065 L 160.63117692397824 132.01651615293292 L 160.57089258175756 133.95592495292772 L 160.58263313770294 135.70294189453125 L 160.59974586963654 137.27947998046875 L 160.6185578107834 140.18231201171875 L 160.6608715057373 142.747314453125 L 162.50933351358663 143.16483200643623 L 162.04216243924125 141.71852129128715 L 159.63630435763375 143.25059491965035 L 161.94196043172587 146.15853225137627 L 163.7904224395752 142.747314453125 L 163.8327361345291 140.18231201171875 L 163.85154807567596 137.27947998046875 L 163.86866080760956 135.70294189453125 L 163.88040136355494 134.02161410957228 L 163.96415999008426 132.13228755800458 L 164.03009971116762 130.42854045086435 L 164.23089457039973 125.92986745773001 L 164.2315343618393 123.56610107421875 L 164.21767385206218 121.68842682047001 L 163.35410503513137 118.65735206358099 L 160.39449965766704 118.12318469501221 L 157.31811149621802 118.56138314374532 L 155.03594667750104 119.12969670664133 L 153.51215694050302 120.25703663021899 Z" fill="black" />
<path d="M 152.70375561813282 133.69595691694616 L 155.3990715419818 134.12206051264087 L 155.8362800205182 131.07776858892163 L 153.12998461624218 130.72811534867884 Z" fill="black" />
<path d="M 153.80765909509216 137.3464957487638 L 151.6849168052913 138.63375952203074 L 155.0067372055768 140.3204637057708 L 156.4973521861269 139.23560935745977 L 158.9102278117618 137.10518027999913 L 160.56698946304573 135.47868226942515 L 158.59072538070427 133.42476011338735 L 156.9705094929257 134.95133827468837 L 154.6299671498106 136.89988868941523 L 153.4557872084857 137.6668409817292 L 154.0047804603337 140.67983911078176 L 155.33906942053284 139.8650521027987 Z" fill="black" />
<path d="M 170.34414684160737 123.07089007321198 L 171.47915550372622 122.4503781832389 L 173.26200748400925 122.13227681591735 L 173.72212314792932 121.84889152253353 L 173.76581062063647 122.76765330397575 L 173.99445011287924 124.36571993830877 L 174.0603488233361 126.49407087197957 L 174.05964076519012 128.9088134765625 L 174.0599627494812 131.67401123046875 L 174.0645524263382 134.45172119140625 L 174.0736552476883 135.9656982421875 L 174.08007729053497 137.47967529296875 L 174.089515209198 139.19384765625 L 174.10279595851898 141.95904541015625 L 174.13735511096183 144.09556494003226 L 177.15364940950678 146.33956893897738 L 177.18037635798134 143.7993565034985 L 176.75611918834187 141.39206384634326 L 173.94700581165813 141.87539220834424 L 174.31498497014366 144.072591738689 L 174.34171191861822 145.23599258446012 L 177.24997399060067 144.05165185684274 L 177.28453314304352 141.95904541015625 L 177.2978138923645 139.19384765625 L 177.30725181102753 137.47967529296875 L 177.3136738538742 135.9656982421875 L 177.3227766752243 134.45172119140625 L 177.3273663520813 131.67401123046875 L 177.32768833637238 128.9088134765625 L 177.3269802782264 126.44379533895793 L 177.24883601993326 124.09277615544123 L 176.93731437936353 122.01225392258675 L 175.79264735988318 119.35252449309147 L 172.97578548474075 118.94401712939515 L 170.50936988689878 119.4266970120736 L 168.87155140058013 120.25760113772552 Z" fill="black" />
<path d="M 169.0392704320229 131.2298403039574 L 168.73537550266133 130.4063281432485 L 169.5765734328646 130.2948896243771 L 171.31681121376005 130.18356589648434 L 172.98539818951792 130.11883075549702 L 174.52458153611508 130.66095150330992 L 175.53035010450992 127.95745669981508 L 173.50446997454458 127.17328350231548 L 171.21187530967745 127.10854836132818 L 168.8468884811979 127.2724931881229 L 166.12302293483867 128.737592755189 L 166.1072139429771 131.4675473913551 Z" fill="black" />
<path d="M 169.38313355091793 138.82502379805544 L 170.94792704178357 137.99881606539765 L 172.43273990957857 137.07265915137646 L 175.71201941546772 135.04957161512044 L 174.19886925640728 132.52757682237956 L 170.88818294198393 134.45834670799854 L 169.34809346602893 135.25887436428985 L 167.85197387095707 136.25944885819456 Z" fill="black" />
<path d="M 166.583788145365 143.03677285326037 L 164.5966061175482 143.06484680508146 L 162.0756166217608 143.91987392976702 L 160.9311195240096 145.69204055323203 L 159.886928003128 147.29880555888604 L 158.5759383540599 149.4075884506683 L 157.3369657018418 151.3008423564139 L 156.29779279843194 152.8817598329019 L 158.89874040469306 154.6343534483481 L 159.9842012903457 153.0621947529611 L 161.2659805912526 151.1267133071442 L 162.583775121872 149.00637022236396 L 163.6642173900529 147.33493698583047 L 163.9601499798017 146.45451571867048 L 165.1482669293268 146.13339538241854 L 166.690137635885 146.03634726392713 Z" fill="black" />
<path d="M 159.08073513402238 152.47421260251025 L 159.7780999314329 152.95747469971803 L 159.73087203502655 155.9351806640625 L 159.73990499973297 158.4376220703125 L 159.75256145000458 159.95159912109375 L 159.75946838435507 161.57701495981402 L 159.7136043856935 163.195140350463 L 159.6606543904877 164.8987297177483 L 159.605767060584 166.40870889355259 L 159.50129891520533 169.02358192583478 L 159.34861040546434 171.36301024052523 L 162.32985639141066 171.61269776728727 L 162.57328604573217 169.22251182416522 L 162.720893095666 166.55723348925991 L 162.8100487345123 165.0392585635017 L 162.9011417080565 163.3145032042245 L 162.96330993595743 161.62940593862348 L 162.97021687030792 159.95159912109375 L 162.98287332057953 158.4376220703125 L 162.99190628528595 155.9351806640625 L 162.9446783888796 152.18131924559447 L 161.40937717066512 150.28726200686475 Z" fill="black" />
<path d="M 168.4605101290414 146.3283562674837 L 169.57832827078138 147.37945450881384 L 170.49238914629404 148.1637215266894 L 171.14159108773063 149.58766183361098 L 173.76380442008187 148.44419851795152 L 172.97257667401846 146.5649161686231 L 171.76200376046862 145.12201033493616 L 170.5031129178336 144.0460333809538 Z" fill="black" />
<path d="M 164.671376726762 151.1879863710674 L 161.5654197187003 152.9015445647903 L 164.81299528082351 155.23550215266974 L 166.69138062077792 154.41577804899347 L 168.7004739802449 153.74134961955198 L 170.89941800877688 153.29336878214193 L 172.9381144250278 153.0699230587919 L 176.55639670701567 152.8937359036197 L 178.539640538633 152.90186659539393 L 178.645418055117 150.00975449835607 L 176.52343727735933 149.8677387057553 L 172.7595174109097 149.9668201052706 L 170.44091402247312 150.14376500692057 L 167.8864400822551 150.62168748982302 L 165.53823363703458 151.39867507600653 L 163.85155550042649 152.15548905826776 L 163.9301857500497 155.0149593414597 L 166.1178078435505 153.8256855039326 Z" fill="black" />
<path d="M 165.76200325344834 156.33902982956755 L 162.78149043551832 157.98441942843306 L 166.30439469166 160.0741943658986 L 168.18590581910001 159.5384652324121 L 170.16576680700766 159.16604278150015 L 172.22871816087456 158.9439348232198 L 174.05905145448247 158.84802369765163 L 176.41697029288207 158.80531470940215 L 177.9011694868548 158.94018609761167 L 178.2395775834577 156.08325140238833 L 176.55483146493043 155.84275657966035 L 174.01528936583003 155.80004759141087 L 172.02848398756294 155.8292585361552 L 169.73413553674234 156.00754120287485 L 167.46472894652499 156.4108755879004 L 165.67314437084 156.9261718450389 L 165.63098515041918 159.41633740750444 L 167.00777213717666 159.08479829543245 Z" fill="black" />
<path d="M 166.90785095255234 160.04685851470083 L 163.79676236570037 161.32915556038978 L 166.95483618229827 163.3863119604172 L 169.46199515108984 163.38101878127694 L 171.21460529148695 163.20292983199909 L 173.4624331205721 163.09705257065932 L 175.94573974609375 163.0452321767807 L 175.94573974609375 160.1611887216568 L 173.4235532075529 160.10936832777818 L 171.06200603663805 160.12861313675091 L 169.35758492703516 160.22579274216056 L 167.00329370051423 160.2204995630203 L 166.84837923586213 162.15253389273522 L 167.15831115682266 163.15956238373667 Z" fill="black" />
<path d="M 163.73345806627688 168.20239977121707 L 163.4443581271681 169.20346331097963 L 164.00872111341906 170.04871876995202 L 166.0571263108058 169.41909995500706 L 168.81016977030143 168.85617949553688 L 171.62302803779428 168.52500613045257 L 174.36126708984375 168.48703980445862 L 175.86692575742913 168.43754529718407 L 177.824299206068 168.44955947500074 L 180.77865524805108 169.42478028813645 L 181.69998244726142 166.69423826655105 L 178.424480090807 165.56740829843676 L 175.91652150819587 165.45430040594093 L 174.36126708984375 165.40480589866638 L 171.44581961845572 165.36683957267243 L 168.31690542501107 165.68630097321312 L 165.2722193923192 166.29952797468044 L 162.67523884751844 167.12132517536048 L 160.3587424587694 169.94350934527037 L 163.49066302747312 171.21984143972043 Z" fill="black" />
<path d="M 172.5955259748601 152.04106843449358 L 169.03242009674642 152.590517754189 L 168.08992807373727 155.62246242948476 L 168.11320507526398 157.7119140625 L 168.14116072654724 160.47711181640625 L 168.18484795093536 162.12872314453125 L 168.21211957931519 163.8428955078125 L 168.24326048791832 165.8478556356778 L 168.32382253132172 167.56455460323093 L 168.32650983333588 169.18560791015625 L 171.17727434635162 169.18560791015625 L 171.17996164836578 167.50343856083157 L 171.11648072301918 165.7917928018222 L 171.14762163162231 163.8428955078125 L 171.17489326000214 162.12872314453125 L 171.21858048439026 160.47711181640625 L 171.24653613567352 157.7119140625 L 171.26981313720023 155.84750827364024 L 170.86748224700358 155.2008640817485 L 172.9580628923274 155.07465422175642 Z" fill="black" />
</svg>