<svg xmlns="http://www.w3.org/2000/svg" width="300" height="300" viewBox="0 0 300 300">
<path d="M 123.07223884310169 133.4918805646485 L 124.72305645172322 133.41514062945282 L 127.3119167878869 133.1290488032226 L 130.09096672672032 132.6437649776801 L 133.95589341471393 131.82253881991195 L 136.17313859768535 131.24720016518637 L 137.7469101351293 131.09979086197092 L 137.5289687711207 128.13568277084158 L 135.67439558200215 128.24034866293863 L 133.28714857747357 128.74533227383805 L 129.49460456234218 129.5085787723199 L 126.8683810636756 129.9235635014649 L 124.45235858733928 130.17763280804718 L 122.92507561002331 130.2449358416015 Z" fill="black" />
<path d="M 125.12509092231127 136.5896231915944 L 123.2772746408849 138.07562530196137 L 122.16822691857428 140.05897041082903 L 121.58199777643198 143.01696478095977 L 121.43679760983392 145.54573702132032 L 121.44970881938934 148.0372314453125 L 121.47340660236542 150.40321385432637 L 121.84744965071293 152.55936428437474 L 124.70040191178707 152.08565524687526 L 124.39878578044708 150.17259180973613 L 124.42248356342316 148.0372314453125 L 124.43539477297858 145.63126493180468 L 124.56546316106802 143.40661920341523 L 125.03025940955072 140.96300224542097 L 125.4977497731776 140.02947723710113 L 126.95315614800123 138.8866951677806 Z" fill="black" />
<path d="M 125.44341659545898 144.59820556640625 L 125.46203894512912 143.03407638108177 L 125.56557267430695 141.54561846925873 L 126.07677234681353 141.39078207123478 L 128.27172055908858 140.6264408936441 L 129.9243938181112 140.1023186896851 L 131.8416792750299 139.3648510113406 L 133.96536709335928 138.66567008292776 L 135.8412172391128 138.1047871587301 L 137.4547031628064 137.8160025292016 L 138.9249968052851 137.68793653691566 L 139.67113707196467 137.55110996677774 L 139.93265544455926 138.06261216195887 L 139.92044429088912 139.28016031953405 L 139.9280436592824 141.46836321147498 L 139.54988384459278 142.9809740381598 L 139.0903490123462 145.8514354268107 L 138.59425963311844 148.6575828360394 L 138.1781288455302 152.2334500846589 L 138.12208439581116 154.2847690162957 L 140.98252986200134 154.4654751243293 L 141.1767295529073 152.5556124153411 L 141.68650208563156 149.1453956795856 L 142.2414380970288 146.4058887919393 L 142.70780658509472 143.5866529149652 L 143.1304280204051 141.78627546040002 L 143.13802738879838 139.22106038359095 L 142.97566975075324 137.01758803335363 L 141.26025941241033 134.75626308009726 L 138.8533235072149 134.47539354120934 L 137.0203944934436 134.6354134864234 L 135.0804136202622 134.9948222162699 L 133.00240634414072 135.62229378425974 L 130.7718461155951 136.3635425433469 L 128.8603962209513 137.1025152946899 L 127.23487123778641 137.6227046141684 L 124.67518077818647 138.58687906157772 L 122.80906111475555 140.26859051511627 L 122.53722863299588 142.88535721266823 L 122.55585098266602 144.59820556640625 Z" fill="black" />
<path d="M 127.37287883709821 146.1294041217494 L 126.3033634809059 146.45890272157644 L 127.09127925748088 147.3527040404751 L 128.89947957276343 146.7326676451106 L 131.25636909552338 146.2285853237114 L 133.85084418362607 145.8244698040217 L 137.2511887186999 145.5290800678265 L 138.80342495118234 145.45361674161754 L 140.68045044839792 146.151990211394 L 141.70236205160208 143.440539085481 L 139.37528598631766 142.55443989900746 L 137.0987868672376 142.4789765727985 L 133.51731987887393 142.7237479694158 L 130.70652152947662 143.1118687778511 L 128.05852823973657 143.6520979798894 L 125.63760257845662 144.5085020142124 L 123.3975642534691 147.63496934873606 L 126.68229694415179 149.0087794720006 Z" fill="black" />
<path d="M 128.7291782652009 152.0890503621513 L 127.94092673502979 152.7459278596214 L 128.74009134337535 153.3036244385733 L 130.1409392503916 152.95585279562601 L 134.75960811686818 152.24310199929312 L 138.2981617240555 151.7138005616709 L 140.24152269494985 151.40616698342023 L 142.80993308945347 151.3324716941789 L 142.75097999648403 148.4510976417586 L 140.03923902380015 148.48543457907977 L 137.903620502507 148.7179621336416 L 134.31021610188182 149.12493999289438 L 129.5697541089834 149.85261888406149 L 127.41713521912463 150.4411265379892 L 124.91307717122021 153.2314891325661 L 127.95356099261161 154.9326781534737 Z" fill="black" />
<path d="M 119.54530416491974 166.56541418663548 L 118.97439255606292 166.3285126896524 L 120.81432611477432 165.31091191908465 L 122.3994280451994 164.47599933868213 L 124.08531075441535 163.73258321081644 L 126.04625395988207 162.9777699867484 L 128.12686793682016 162.3386918917607 L 130.40097046034134 161.7621051576532 L 132.7826688333928 161.31178499584973 L 135.38091963729102 160.8310993785436 L 137.4095716160009 160.5433150925155 L 139.36892658642554 160.34282567859 L 141.1578634740318 160.12289961548973 L 142.77753341084852 159.9520249034842 L 145.61961142963824 159.44760410064836 L 147.37688791618092 158.0762319056414 L 145.56622731819408 155.8235483677961 L 144.54579384379926 156.68484218841414 L 142.38298905008898 156.9726577137033 L 140.8495828150307 157.08986893919777 L 139.06002849169946 157.26606104016 L 137.0655260402491 157.4256790481095 L 134.89007645645898 157.6780558948939 L 132.2081758931697 158.13364957446277 L 129.71011352403366 158.5835979673468 L 127.25460178974234 159.1953657254268 L 124.98096771980543 159.8886850913766 L 122.83790701902215 160.71834452355856 L 120.9703229313631 161.55940105194287 L 119.12708013522568 162.56103632310285 L 116.23739943612458 164.7123808650351 L 116.71751321789276 167.53639245398952 Z" fill="black" />
<path d="M 137.6847157870498 114.478435041747 L 135.49308941792935 114.98625525568686 L 133.8159003210764 116.969797629496 L 133.30143233327064 119.57149467998882 L 133.1402315772028 121.25774332076327 L 132.99788690368143 123.40259288333566 L 132.9110043228057 125.60953524693285 L 132.84052355543224 128.17537019111404 L 132.70811668487357 131.0423092108287 L 132.50661433078787 134.16700943341544 L 132.16002804541714 137.65414737602583 L 131.7710290017732 141.80371168647218 L 131.36826632910834 145.48866194609147 L 130.9754619399318 149.39248380569205 L 130.638972320211 153.15038306562016 L 130.2540522341984 156.79748491699178 L 129.995477271504 160.26162759911318 L 129.81734047040158 163.867939754213 L 129.7788624295864 166.63670186497097 L 129.80521738529205 169.48162841796875 L 129.83264350891113 172.200439453125 L 129.86505496501923 174.63116455078125 L 129.90590076557095 176.67219956711727 L 130.48507566272434 179.11471063022933 L 133.32962160290066 178.46609991664567 L 132.85777110942905 176.29923597975773 L 132.89861690998077 174.63116455078125 L 132.93102836608887 172.200439453125 L 132.95845448970795 169.48162841796875 L 132.9848094454136 166.67286844752903 L 133.07145347491092 164.0040084879745 L 133.2937072988085 160.48019368994932 L 133.5606450314266 157.10229535644572 L 133.9514817813515 153.47522728594234 L 134.2906513413182 149.70688142868295 L 134.67360378807916 145.83238297578353 L 135.0716223654143 142.13513108696532 L 135.45838015770786 137.96621395209917 L 135.78745305202463 134.43125716814706 L 135.98634132293893 131.2180667657338 L 136.10417859300526 128.28727629326096 L 136.1588198959443 125.70357510462965 L 136.22208379944357 123.55321766353934 L 136.3299832665472 121.48481039017423 L 136.44405106516686 120.00211371844868 L 136.7053399132986 118.102467995504 L 137.00507952738315 117.56525841618814 L 138.2417978848252 117.424885270753 Z" fill="black" />
<path d="M 151.66255727401736 131.39557850764933 L 151.24991103606058 131.93591795437953 L 151.69595474720862 132.57044473217218 L 152.9497180426617 132.12427306035906 L 155.5650721356548 131.521809984601 L 157.19002241748206 131.26854922035784 L 159.07016067805793 131.00506312656398 L 161.1920418768601 130.75910607686527 L 163.18194210093128 130.61716187463918 L 165.34871093813874 130.48947691757655 L 167.50392022812562 130.35897037847008 L 169.72482190100365 130.280149423526 L 171.75788905741962 130.2017458559216 L 173.95143837530597 130.139248642434 L 176.7512560643817 129.98174367665024 L 179.2854861433259 129.75176726591775 L 177.05413797472244 126.9917243958414 L 174.11141819557682 128.15462197780224 L 175.11160426536068 130.82877645969776 L 177.84942647840256 129.8670402525961 L 179.5719357316741 126.56683624970726 L 176.5507458887433 126.73297800303725 L 173.82016807000653 126.86355897475347 L 171.65946934101788 126.90909398782841 L 169.61355700524635 126.97473338897399 L 167.35508856093688 127.03995540277992 L 165.15604980404876 127.16152405898596 L 162.96857059438122 127.28591429723582 L 160.8794913262649 127.43205603250973 L 158.64712447819207 127.690249373436 L 156.69852738720544 127.96692441245467 L 154.8951329424702 128.253824781024 L 151.9800915276508 128.94774842401594 L 149.68038802622888 129.97801718189032 L 148.39974716706442 133.24132813937047 L 151.16520151504514 134.32182871891317 Z" fill="black" />
<path d="M 159.259033203125 132.64641511440277 L 157.74505615234375 132.57105219364166 L 155.76877011517405 132.579458510181 L 152.85764192969916 133.87474496848938 L 151.78019728801212 135.93415201067884 L 150.9900445170652 138.32362930910918 L 149.5910304669489 141.98894664840003 L 149.10907745136944 144.2820484154259 L 150.16582463554238 146.64938848286755 L 152.1436961977411 148.03622020449336 L 154.47288212335562 149.1741343679312 L 156.31581202568475 149.82682300093657 L 158.17354868083706 150.17595778782535 L 160.67746468285242 149.77862411925497 L 162.0809681385681 147.84861111418482 L 159.7152965098694 146.24526095612768 L 159.14187125464758 147.23211806824503 L 158.36758901447544 147.08685959498715 L 157.19737156806525 146.78780102250093 L 155.73707881414438 146.2521351633188 L 153.7120166928839 145.26541553769414 L 152.53681208320762 144.52761347025745 L 152.26726532206806 144.0140941626991 L 152.5860935564886 142.99420764847497 L 153.9397650532473 139.38535506589082 L 154.72615036823788 137.02141439557116 L 154.84987760155084 136.30799428932312 L 156.54324160357595 135.622689927319 L 157.74505615234375 135.63109624385834 L 159.259033203125 135.55573332309723 Z" fill="black" />
<path d="M 166.37847900390625 133.7037603855133 L 164.62659986245941 133.67642603332 L 162.31458685724863 134.322264119861 L 161.0130192986403 136.42767181300252 L 160.39276868242843 138.19122792976785 L 159.37956004111172 142.33258760875543 L 159.63979180600015 145.17574383470884 L 162.29280060499644 145.93317692301477 L 165.01699674644223 145.81305415267653 L 168.12242140032504 144.70987061577492 L 169.6210996147952 144.08069386841998 L 168.5411318305173 141.44262156126752 L 167.13697801373746 142.00179930610008 L 164.43673860512027 142.87920658951097 L 162.40629607469106 142.86711604573523 L 162.03135077212485 143.22843096997866 L 162.41670460732578 142.90264188343207 L 163.38042467694657 139.01360605460715 L 163.8362238654222 137.71624908543498 L 164.23631646306387 136.7967544348265 L 164.95225755941559 136.7943991619925 L 166.37847900390625 136.7670648097992 Z" fill="black" />
<path d="M 175.5017021609645 136.37919461934493 L 172.97762696560522 133.76519784140177 L 170.28729692481062 136.09096857162515 L 169.40983119625147 138.5500165651996 L 168.9699357818319 140.45982893919157 L 168.81033904403108 142.25681360590164 L 169.1008210065343 144.770677807044 L 171.5577133750379 146.34029148916542 L 174.71808825648253 146.49299598898932 L 176.27209974337595 146.5191405626633 L 176.50438951443655 143.6135498670242 L 174.90532482945497 143.38761924538568 L 172.2600356483996 143.25223780770958 L 171.8140959856532 143.1293466070185 L 171.97945587784392 142.33022252691086 L 172.0951276947306 140.95826188112093 L 172.43098911624853 139.4470537473004 L 173.13006147362688 137.40475896743735 L 172.29153807345728 136.81365958047323 L 173.1958076046605 138.30488741190507 Z" fill="black" />
<path d="M 155.24998659076113 157.8294120343642 L 156.91775074809314 156.7418491471567 L 158.83273580787113 156.10394599360583 L 162.72061986139056 154.86187020686376 L 166.88709199913754 153.82166221690284 L 169.78503673264467 153.3256672068315 L 170.47877482383157 152.59514335626267 L 169.47527807214894 151.19748208329185 L 167.78939763646875 152.03917834860798 L 164.9727559799976 153.54712695261517 L 162.26445194537982 154.7372976414645 L 161.39267281165556 157.5789106824632 L 161.31808009519017 159.4317116385485 L 161.33008456230164 162.693603515625 L 161.35643100738525 164.92626953125 L 161.38264918327332 167.24896240234375 L 161.4147332150293 168.92647347213946 L 161.5429562624225 170.026129784461 L 160.6846126416205 170.44006683920813 L 162.312823881817 172.88048980141687 L 164.20716580789 171.4578790046015 L 164.4855353396582 168.99247184036054 L 164.51761937141418 167.24896240234375 L 164.54383754730225 164.92626953125 L 164.57018399238586 162.693603515625 L 164.58218845949733 159.4735617989515 L 164.63271781334444 158.0493852159743 L 164.68684199993268 156.929816616348 L 166.3327860121899 156.24742871144733 L 169.17166193384375 154.58643200295452 L 170.78900415441356 153.73562338545815 L 172.81346150429343 150.75348945623733 L 169.42822010329283 150.275040800981 L 166.24523221961246 150.71532508778466 L 161.85335474798444 151.76374014469874 L 157.83352395775387 153.04241631108167 L 155.51938304096936 153.8449428450308 L 153.50855833111387 155.1340889421983 Z" fill="black" />
<path d="M 151.58449108202942 175.38953054772782 L 150.62134404899126 175.85345041993736 L 151.47341291081597 176.1874558738516 L 152.44318302391076 175.08535871041954 L 153.8610351927102 173.55998638982376 L 155.91037640569442 172.15470606268357 L 157.1578302345203 171.53043791514347 L 158.5229395531795 170.86284375736759 L 160.0948650102362 170.2637712913074 L 161.578530718922 169.8483845751587 L 163.23680661259317 169.55196145879376 L 165.04461362335314 169.2988240379304 L 166.9917516232869 169.18239467657105 L 168.97393267947712 169.1122463353542 L 171.18316650390625 169.11211919784546 L 173.03497314453125 169.1103994846344 L 174.674072265625 169.10852718353271 L 177.4732849914676 169.10314441465167 L 180.4167907691907 169.42775399088285 L 180.8179504417468 165.86240714192965 L 177.6805236022824 165.50281261659833 L 174.674072265625 165.49742984771729 L 173.03497314453125 165.4955575466156 L 171.18316650390625 165.49383783340454 L 168.91303021114788 165.4937106958958 L 166.8162317751506 165.56760532342895 L 164.68439028289686 165.7032511573821 L 162.66346194209433 165.99027486933124 L 160.7682710388905 166.3420451123413 L 158.9487140913263 166.8629376930676 L 157.0922948218205 167.59626268794491 L 155.5545721092297 168.36909821766903 L 154.02431597711808 169.18525975762893 L 151.5942870729148 170.94892474298874 L 149.85906306983924 172.88058367239296 L 148.45151384699653 174.8033888527109 L 148.77807001350874 178.45038258787514 L 152.04404895703308 178.23009835852218 Z" fill="black" />
</svg>