<svg xmlns="http://www.w3.org/2000/svg" width="300" height="300" viewBox="0 0 300 300">
<path d="M 134.14372942236972 115.68568169574165 L 131.66478344751613 116.28857993235907 L 131.01403412266123 119.01781525353378 L 131.43927785657323 121.36790713463272 L 132.4240744124949 123.04614131072744 L 133.35064818653743 124.36494988048538 L 134.1206795616387 125.86686755032619 L 136.6746085242988 124.59358166842381 L 135.86016724315007 122.91739875232712 L 134.9501931656301 121.48352177521006 L 134.35051706530177 120.38404599036728 L 134.12756743983877 118.90540251990372 L 133.87293627904637 118.48156166920343 L 134.52692487450528 118.68406928082085 Z" fill="black" />
<path d="M 129.3595485232803 132.05201178066045 L 126.79597924140027 134.6191476553661 L 130.62487319488815 135.15370690395233 L 134.24546075548105 133.47877257435843 L 135.62279345498285 132.89891906981566 L 137.2465528363057 132.23141749656972 L 138.62365988558847 131.71282779644864 L 140.02104150793758 131.24902096738458 L 142.8525756705368 130.39467211932117 L 145.34427718110308 129.7803337990908 L 147.23731071017764 129.79825970687463 L 147.32506721950986 126.84321978531285 L 145.00484391264692 126.7360236227842 L 142.0589233529007 127.32285717755383 L 139.09272802331242 128.17016848574042 L 137.57323952847403 128.63226497698886 L 136.0694872027568 129.16470066749278 L 134.38025830282965 129.82349303955934 L 132.87673162733145 130.41978699595407 L 129.36719223479935 132.04807532261017 L 129.88309790703724 133.5085378915089 L 130.4884739376572 134.74937982090205 Z" fill="black" />
<path d="M 133.7595740390217 130.63778345851398 L 131.39784650892688 132.11088767540062 L 130.7345394529354 134.71487760210817 L 130.9137455785673 137.6163541310625 L 132.08398366136015 139.75688707502638 L 133.35746626419515 141.41456046705494 L 134.9778959556712 142.9401234535537 L 137.18402160335884 143.7208147519035 L 138.11260925601616 141.0230817324715 L 136.4655854896413 140.4774790855088 L 135.60127397017985 139.50060066575756 L 134.64209055738985 138.13031995622362 L 133.9397700464327 136.842508173625 L 133.8669009767521 134.86422396039183 L 133.85178728013562 134.03986916053688 L 135.3071984219158 133.26077611179852 Z" fill="black" />
<path d="M 143.8216119781203 134.43834827008115 L 144.45303487244894 132.7903915202026 L 142.50820194716627 131.11775746089285 L 141.79865629519892 131.89203558052878 L 141.09690166482972 133.38262625002423 L 139.7210853716809 135.85086606106444 L 138.16573265284174 138.24127841877458 L 140.80399390965826 139.89617275310042 L 142.3095542767566 137.40682436862306 L 143.81459735860778 134.87018136716327 L 144.69731538448858 133.20769586478372 L 145.57224238877123 130.15323863285715 L 141.79086161192606 131.5085586751099 L 141.0898870453172 133.41406872210635 Z" fill="black" />
<path d="M 128.30989182571773 149.62870750925111 L 125.80928788644589 151.23422505996686 L 129.51157241646393 152.98269851307583 L 132.6826901377242 150.9117661002373 L 134.01838829010435 150.1526106298699 L 135.30582429815763 149.37666737458892 L 136.6469445002254 148.66898795180288 L 138.02931192761153 147.93555006801873 L 139.38393776231257 147.21325321756487 L 140.6920745371167 146.57048923426228 L 143.40904504407405 145.39037137887152 L 145.17374761636864 144.66212176969435 L 145.16627600542446 143.6339779579681 L 144.3220838267002 143.87197336035078 L 146.9273058217373 145.07602468652422 L 147.66758629926304 141.8856753623444 L 144.23909418050636 141.65831280061815 L 142.18665808092595 142.38147920706598 L 139.3579742910083 143.55365627355022 L 137.89328391737493 144.23718623556013 L 136.47508260363847 144.96630540073127 L 135.0846228825871 145.68428353257212 L 133.65291593621737 146.42802012541108 L 132.31156776458315 147.2286149560676 L 130.8744387685258 148.0459975716377 L 127.81569809134857 150.07906906504917 L 128.4930802776166 153.12881204940814 L 129.95365797896977 152.10676612356139 Z" fill="black" />
<path d="M 130.03294712389902 158.48423571282615 L 130.45307526612353 159.92435051239005 L 131.2834796352953 160.30800910044923 L 132.74499344045446 159.16379504005124 L 134.6005598890638 157.9900099900104 L 136.5660571971836 156.93683729474157 L 138.73964281677686 156.0344961856643 L 141.8861477118867 154.88320183677632 L 143.6310418562275 154.3532537616416 L 145.23321979543533 153.1872959632297 L 143.53142864206467 150.8003749352078 L 142.360779432835 151.6113458477334 L 140.9367282646758 151.85715460853618 L 137.60129956603564 152.9580575252732 L 135.1655101856289 153.90752305682093 L 132.9177506578112 155.0815232131146 L 130.81213546579554 156.41017956932376 L 129.1047039584547 157.76840691517577 L 127.27031340575147 160.65450690948495 L 130.75135463391348 161.31886487311135 Z" fill="black" />
<path d="M 139.07238844689488 145.96511758074436 L 136.86413526900995 146.5939727870187 L 135.50295393006922 148.87659268074836 L 134.66808603922524 152.85526053125164 L 134.4221984890696 154.53905210555317 L 134.04345358294157 156.63098189294297 L 133.65739571179307 158.74866948337277 L 133.28532237253222 161.03480868449395 L 132.76777051878244 163.39042153176408 L 132.3422247962252 165.7701607695687 L 131.8523956317881 167.9814523611262 L 131.35211865529155 170.28874641253185 L 130.99132537704378 171.92215388073114 L 130.61973725506164 173.386672273969 L 130.0395480872223 175.91081070364206 L 132.8333767174652 176.57417464792044 L 133.44154204181336 174.0934302650935 L 133.86219024795622 172.65511662708136 L 134.29363329783345 170.98530143903065 L 134.8736785869619 168.6881033029363 L 135.4281609459623 166.4200247773063 L 135.90288377809256 164.04512534323592 L 136.46565418996778 161.67112393269355 L 136.88581717883193 159.32774653225223 L 137.29199563580843 157.24133256018203 L 137.7054870578054 155.10413637100933 L 137.96374989827476 153.48470528906086 L 138.71335466368078 149.83092685050164 L 138.93664598099005 149.0855926426688 L 139.89733811560512 148.78854452863064 Z" fill="black" />
<path d="M 148.9487036358094 143.99863160046982 L 145.40270159112407 145.4206175348425 L 148.36912731344262 148.1857414234425 L 150.42944346057638 148.5879712943891 L 152.38196375141698 148.67123046947808 L 154.48333740234375 148.61567878723145 L 154.48333740234375 145.73759269714355 L 152.47948644389552 145.68204101489692 L 150.86694325817362 145.5150560493609 L 149.11012073343238 145.1165046703075 L 148.22339704168843 146.8306031682825 L 149.7188989032531 146.92629515734268 Z" fill="black" />
<path d="M 159.1451882856364 128.02961887831353 L 156.09987633959736 128.38630401200317 L 155.20814132423914 131.2880258813073 L 155.1956021785736 134.32659912109375 L 155.1947911977768 136.9666748046875 L 155.19559571808944 138.47980479798414 L 155.07396752255727 140.23974762401224 L 154.88293171956204 142.22681992611115 L 154.56424754242906 144.4286632401042 L 154.2284674951492 146.78712596625041 L 153.7857832421566 149.47973629244476 L 153.39930739725253 151.96679405691427 L 152.9447648330448 154.43882353529514 L 152.48949491369902 156.818784317943 L 152.10526789758683 159.16735919321374 L 151.80440688790463 161.20345025885754 L 151.2438044390159 164.55716330323818 L 150.91257076411856 166.65983627709502 L 153.94887943119394 167.23200942602998 L 154.4098820844216 165.13058083738682 L 155.03763412772037 161.75272649895496 L 155.38496647741317 159.70983807241126 L 155.79297578942598 157.4288963461195 L 156.2739851669552 155.07924287095486 L 156.75572189962247 152.54638953683573 L 157.1614823828434 150.02856448880524 L 157.6190666845383 147.31590137749959 L 157.96749073882094 144.9197254317708 L 158.29699992106296 142.64219862857635 L 158.50208228213023 140.52526702442526 L 158.63252928191056 138.60662098326586 L 158.6333338022232 136.9666748046875 L 158.6325228214264 134.32659912109375 L 158.61998367576086 131.4343862280677 L 158.12436682446514 131.03288544112183 L 159.3283224565511 131.13932643418647 Z" fill="black" />
<path d="M 163.57348460895676 121.60552582256886 L 161.6130081729207 123.43593176178767 L 162.72336812462618 126.01048651046808 L 163.68964788474673 127.20323207430944 L 165.17834431923092 129.35551139169274 L 166.08494521066498 130.7905372140685 L 166.795380415632 132.28709966215624 L 167.3630285415908 133.85445312239685 L 167.67339674342196 135.2857751425386 L 170.46197923314054 134.6937170449614 L 170.1241540755967 133.07206054947815 L 169.503447709368 131.21106928315626 L 168.73744248464752 129.4294334890565 L 167.80749552451908 127.68635872549476 L 166.27128961525327 125.35926792569056 L 165.36501078162382 124.17469415359442 L 164.7828658505168 123.99656335539983 L 165.30713062541824 124.10028472430614 Z" fill="black" />
<path d="M 163.40674297109697 137.37012785811555 L 162.78001838843147 138.08442620312604 L 163.44562066797573 138.7265095837228 L 165.48531133492892 138.30530955608756 L 168.43205975769257 137.8552002169056 L 170.1502364452664 137.67843643681016 L 171.71851350382212 137.54528974788838 L 173.22567800618688 137.40646203555636 L 174.8834228515625 137.39861500263214 L 176.52191162109375 137.3832709789276 L 178.0523681640625 137.3637706041336 L 179.63201936549606 137.33473857250468 L 181.63667699705434 137.4320533022898 L 182.8635027948394 135.030938245118 L 180.7504904595747 135.13734690326208 L 181.0079323919878 137.99522145611292 L 184.7286602910981 137.5761174189445 L 182.10233667482066 134.2490990414602 L 179.74969450169144 134.07114521655782 L 178.0523681640625 134.0421131849289 L 176.52191162109375 134.0226128101349 L 174.8834228515625 134.00726878643036 L 173.08413644693812 133.99942175350614 L 171.42235563680288 134.13586259586162 L 169.8216873828586 134.27798446162734 L 167.97480059386993 134.4765868924694 L 164.87174432913358 134.95238087359994 L 162.15801702733677 135.5822062365897 L 159.51063102563103 138.47648688281146 L 162.59301288827803 140.24181061844695 Z" fill="black" />
<path d="M 168.7658756459055 137.99407558060318 L 166.31108048829785 138.98736102960697 L 166.12137521915554 141.9216164001637 L 166.75663909535575 143.85080988485518 L 167.96657775140338 145.7993351112588 L 170.02845900090966 146.77313024750012 L 171.27586228815284 144.15179651031238 L 170.02475525640912 143.5490535606162 L 169.65022125620675 142.59474675576982 L 169.24117360896946 141.3708640685863 L 168.90742537107715 140.72662822820553 L 169.513543299407 140.94415684127182 Z" fill="black" />
<path d="M 174.5861074772407 136.72951888877463 L 173.37158416481637 138.01158707928562 L 172.05735585673153 140.58488046094055 L 171.03291025566065 142.45031662985443 L 173.44035634590185 143.99524001077057 L 174.79261972920597 142.15706289843445 L 176.10717560080863 139.72547346758938 L 176.8732431086968 138.65524673622537 Z" fill="black" />
<path d="M 165.63022083986777 151.84949997672692 L 166.98740936835725 151.45345033854062 L 169.23538811150559 151.11993590352577 L 172.90124027628002 150.3505823719382 L 175.13361984199722 149.74573754888058 L 177.12102188071808 149.31277046855377 L 179.20035540377427 148.93439305820903 L 178.74092877591323 146.06951319179097 L 176.60700546303192 146.36679496113373 L 174.48918289237778 146.70958471674442 L 172.22021968465748 147.1557652843118 L 168.64791266974441 147.83782776834923 L 166.25050567070525 148.17997251302188 L 164.58279185544473 148.83494826546058 Z" fill="black" />
<path d="M 164.40143056114195 157.42501075020792 L 164.00823134730044 158.39726032093307 L 165.12027694132146 159.67871175050644 L 168.26999801823763 157.99328804463732 L 170.82573177471937 156.9872467735119 L 172.19489760978638 156.5092770467642 L 174.52020179715737 155.77075548006098 L 176.50243826777276 155.21175043839511 L 179.21329008490116 154.69838488213398 L 178.72799409478634 151.79172742255352 L 175.89319161503974 152.20426518660489 L 173.66217124971763 152.69628553556402 L 171.23405746833862 153.4091799844858 L 169.68635318621813 153.8571135780506 L 166.84047561457487 154.95312308817518 L 163.36422012899104 156.82116617918106 L 161.45136337926206 160.47993694469193 L 165.16338877479555 160.40116112479208 Z" fill="black" />
<path d="M 173.70014811303028 147.8643109041976 L 170.6435517373127 147.69368179516533 L 169.81740794873804 150.64469180707715 L 169.81642270088196 153.107421875 L 169.81814050674438 154.82159423828125 L 169.81997215747833 156.861083984375 L 169.8311344385147 159.2384033203125 L 169.84324395656586 161.61572265625 L 169.86507308483124 164.05560302734375 L 169.88967561721802 166.42041015625 L 169.93754649162292 168.7977294921875 L 169.9866191148758 170.974853515625 L 170.0485411834444 173.35874779391597 L 170.13679355825306 175.21486643263364 L 170.29304894176448 176.77812101453344 L 173.13590613636052 176.50764558702906 L 173.00407558237194 175.04294606736636 L 172.9842957306181 173.32057349514653 L 173.0462177991867 170.974853515625 L 173.09529042243958 168.7977294921875 L 173.14316129684448 166.42041015625 L 173.16776382923126 164.05560302734375 L 173.18959295749664 161.61572265625 L 173.2017024755478 159.2384033203125 L 173.21286475658417 156.861083984375 L 173.21469640731812 154.82159423828125 L 173.21641421318054 153.107421875 L 173.21542896532446 150.69039120073535 L 172.4973174033123 150.48832504077217 L 173.29387044165722 150.8432086270524 Z" fill="black" />
</svg>