<svg xmlns="http://www.w3.org/2000/svg" width="300" height="300" viewBox="0 0 300 300">
<path d="M 137.0718256898378 119.5386412971539 L 134.69901019345636 119.90428335381114 L 132.90032950716858 122.07902774183259 L 131.6340167283868 124.16027621627512 L 130.762334114209 125.5084772096265 L 129.90005140108914 127.06674647796028 L 128.93920159291713 128.751330122145 L 127.78967993851803 130.63216256918483 L 126.6735999225697 132.34787689973757 L 125.64147386931114 134.01377753355297 L 124.69596834236535 135.50419117215753 L 123.81467499514441 136.7851847306908 L 122.29534079917305 138.8690059011286 L 121.36181439521314 140.03337595630896 L 123.61377154228686 142.03290822337854 L 124.76886818520195 140.8449833566839 L 126.41847930173059 138.6996785505592 L 127.40974454825965 137.35310863252997 L 128.44482984162636 135.81556816957203 L 129.5013268352428 134.17824614713743 L 130.65392357710698 132.46561575112767 L 131.88111090708287 130.517712846605 L 132.90085191922336 128.77395176422723 L 133.731074088916 127.3042669309985 L 134.5879070997382 126.02490444778738 L 135.84234627408142 124.00214901597991 L 136.52840679873114 122.62342660712636 L 137.3245366148497 122.7388245231586 Z" fill="black" />
<path d="M 122.54180908203125 147.84834623336792 L 122.02429981535204 149.2580514104536 L 123.25467098074189 149.78743604560756 L 125.55486719000343 148.69710728619282 L 126.8839969378798 148.212867652764 L 128.36981370897593 147.69850432179038 L 130.03330347472917 147.17829550724227 L 131.86571993015346 146.64367986274132 L 133.4592213969148 146.1756409746132 L 135.1126774064508 145.77212377044017 L 136.74457459355096 145.4368219744867 L 139.78353494175138 144.9554619651726 L 141.62299194924287 144.67655116052245 L 143.7003567478696 143.48456755762044 L 142.1834323146304 140.83391388769206 L 140.58770141013213 141.74398106604005 L 139.36624533168612 141.7403388160774 L 136.21135802363654 142.1848821270758 L 134.4222347029242 142.50021509674733 L 132.6186594624602 142.8974791425743 L 130.93518339015904 143.35534357475868 L 129.05849340027083 143.87175332088273 L 127.30096265821159 144.40256989695962 L 125.7258663433702 144.939231956611 L 124.17413671624657 145.50601771380718 L 121.72091495675811 146.66788622001744 L 118.59398631746046 149.4244437067339 L 122.54180908203125 150.83414888381958 Z" fill="black" />
<path d="M 135.75553431408164 128.55119293981278 L 132.06580746889748 126.68429489606329 L 131.20803110341396 130.9009934044799 L 131.19873402506624 132.5676697047392 L 131.12637776632283 134.72811368103208 L 131.0722692302666 136.97115260831305 L 131.00096035314388 139.47349244628268 L 130.9297567123823 142.38559200323988 L 130.878952300624 145.39471497726245 L 130.73932035711942 148.48177424608545 L 130.62225620111 151.84829282247668 L 130.50700676142625 154.53497126308693 L 130.37344322942326 157.09344547125386 L 130.26024076225244 159.36274292574143 L 130.0795146598039 161.34098440406711 L 130.03191199382408 162.90008943204808 L 130.19927027102713 164.49470599926232 L 132.77096438407898 163.37994384765625 L 129.88589596748352 163.37994384765625 L 132.45759008053537 166.74455181323768 L 133.27314171711342 163.20916349763942 L 133.3695820198836 161.59016793968289 L 133.58497408149756 159.61455199613357 L 133.72384680963924 157.27935726312114 L 133.87836921513625 154.70782658847557 L 134.015194970765 151.98923159158582 L 134.15020601006808 148.62418278516455 L 134.2986600040635 145.50518736648755 L 134.3558878188677 142.45840213738512 L 134.42872714685612 139.56483763184232 L 134.5014612384834 137.06229465731195 L 134.55538492898967 134.82596346740542 L 134.62707163899626 132.6321593968233 L 134.61777456064854 130.9956130408326 L 134.01207339047752 129.4316719008117 L 133.77937779529336 130.71785002893722 Z" fill="black" />
<path d="M 128.54478040854593 138.38483511491341 L 126.58340033941408 140.20356360684545 L 128.753662109375 140.7276487350464 L 131.04398232862624 140.55767754756764 L 130.96468466356126 137.70489569461986 L 128.753662109375 137.6600465774536 L 124.18991509027342 138.05900963534205 L 127.77418931801657 141.32915414289909 Z" fill="black" />
<path d="M 137.64561225742239 136.24342402564352 L 136.6882399933081 137.59411665908394 L 134.5337561851319 140.19646197964326 L 133.33133465168592 141.81539533032392 L 132.05351803706046 143.41682859329575 L 130.28304028114638 145.67009189213496 L 128.46261012639474 148.23060653420578 L 130.77322971735526 149.92637588766922 L 132.62589526572862 147.48200771724004 L 134.42048098637704 145.38102296920425 L 135.80745929362658 143.82938006030108 L 137.0897789711181 142.27021282504424 L 139.2925949676294 139.61743119247856 L 140.31581352382761 138.06529179466898 Z" fill="black" />
<path d="M 128.01837052470228 148.84210649851283 L 126.71685044408227 150.42604441099837 L 125.54030627720721 152.01630034896658 L 124.3481549300369 154.3356132319446 L 123.22553794441698 156.95666423109472 L 122.26846971435474 159.2040606060802 L 125.08382520752026 160.4488934954823 L 126.10734779777052 158.21691975328028 L 127.2173968277756 155.6829414555554 L 128.2579114962303 153.64800629165842 L 129.20600111841773 152.33543019837663 L 130.42523299092272 150.76629193898717 Z" fill="black" />
<path d="M 133.30902099609375 154.5911602973938 L 135.30248062394682 154.68413978889126 L 136.83188071158747 154.9144397332419 L 138.85258348188304 155.3499118204111 L 141.08875398564734 155.72492341611894 L 143.22392121168858 156.01091475222535 L 146.04362380304252 156.2158730900536 L 146.32209885320748 153.2771689021339 L 143.59614714768642 152.95661454464965 L 141.62608976435266 152.59197111513106 L 139.50496046342946 152.1662014608389 L 137.45644936653753 151.6757702276956 L 135.52881820417818 151.38055747673374 L 133.30902099609375 151.4735369682312 Z" fill="black" />
<path d="M 154.30328369140625 125.56736600399017 L 151.8181754467668 125.71969152160978 L 149.74232185223127 127.91016407590404 L 149.2935591324706 130.26508067999973 L 149.27932572686183 132.57340543095196 L 152.39104610694713 134.60491547626097 L 153.1562413265649 131.48511061215376 L 153.17091190814972 129.634521484375 L 153.20704934540322 127.84766903176086 L 153.15743721317702 126.98889221003488 L 153.8902160893921 126.96642670771726 L 156.0921295810769 126.42238625710844 L 159.47639836503757 125.57598957344028 L 162.06493518875914 125.13728502817573 L 166.15631875739655 124.62404917378734 L 168.30371304604182 124.50309590840352 L 170.00396728515625 124.42743253707886 L 171.32559062029682 124.06935626519888 L 170.21813847336153 123.91332849127002 L 169.86249505620307 125.69698410369556 L 169.10554995379772 128.91891993420148 L 168.43136520040557 130.73964982111127 L 171.07241897928193 131.83261580388873 L 171.98270688213978 129.82461033923602 L 172.91826666254693 126.46512527130444 L 173.35485957351347 124.94555822747998 L 173.57980488751568 121.63645428167612 L 170.00396728515625 121.12823152542114 L 168.13915804770818 121.20271463847148 L 165.82122030510345 121.33200551371266 L 161.59412242842836 121.86979504994927 L 158.78104792402493 122.35699382499722 L 155.2872649501731 123.23728171164156 L 152.8798034418579 123.86938872197024 L 150.55166923213548 125.17321716496512 L 150.24998190459678 127.74278506980164 L 150.28611934185028 129.634521484375 L 150.3007899234351 131.33739915347124 L 150.66986697899037 132.32159819561403 L 152.05307173407567 131.85066683467304 L 152.1828812972169 130.58050037468777 L 152.38231193683123 129.25682811159595 L 153.0792854907332 128.41934656432772 L 154.30328369140625 128.57167208194733 Z" fill="black" />
<path d="M 158.59900232978399 126.29100831947184 L 156.23859837187774 126.59102660329248 L 153.79306482733674 129.25577042457385 L 156.78806253316552 130.98320755229688 L 159.30926287871628 131.07657746270218 L 162.25640977592101 130.99740370878894 L 162.19488416939149 128.14651718964856 L 159.34430157440872 128.19246550604782 L 157.36415914652198 128.03559127582812 L 156.79409337578826 128.43673445823865 L 157.12138697968476 129.52494019358252 L 158.97423985771601 129.29944578209066 Z" fill="black" />
<path d="M 164.55106212105449 125.644986469973 L 162.87606364712383 126.43034424594181 L 160.06755626256464 129.0341940828037 L 158.64394881769206 130.22784578991332 L 160.40573379949544 132.46954190539918 L 162.00702869837286 131.2858742765713 L 164.74417561068867 128.88484130093318 L 165.84200428519551 128.3439051315895 Z" fill="black" />
<path d="M 151.03053811524097 135.5069854593043 L 148.50685261701912 138.64812310087692 L 152.44206743619824 138.9595002404112 L 154.38656536907578 138.43688717991233 L 156.82617396551078 137.86317655037607 L 160.82968379294846 137.0696928288202 L 163.60137904782505 136.5064802252453 L 166.2153471363378 135.9285920833478 L 169.056715362393 135.36456589048973 L 170.64777623847502 135.10449632386894 L 170.29643762871248 132.19738355894356 L 168.5745102235445 132.33770461732277 L 165.6181489574122 132.8247038150897 L 162.97454868654995 133.3228654778797 L 160.20058964455154 133.8106782649298 L 156.13769322198922 134.59373262931143 L 153.57180865436172 135.19616946071267 L 151.66315717317676 135.7245817908388 L 151.24107218766838 136.96186225068558 L 152.42649313475903 138.1260711813207 Z" fill="black" />
<path d="M 153.04290771484375 142.45412480831146 L 153.14036750793457 143.99853515625 L 153.48774625543442 144.95812598703972 L 155.26899897229876 144.5922653601362 L 158.55382452616755 143.99810352948424 L 163.5256213282242 143.02570768406056 L 165.46982135546898 142.45671919468256 L 164.77920208203102 139.60956498500494 L 162.9062634374008 139.96647981593944 L 157.97510613789495 140.84589061114076 L 154.66996587145124 141.4278762414263 L 152.59806917425308 141.86279686452278 L 149.92054557800293 143.99853515625 L 153.04290771484375 145.54294550418854 Z" fill="black" />
<path d="M 152.68678711597056 150.45624943918835 L 152.69377856939224 149.90037595961553 L 154.11205554627432 149.7014094476591 L 156.78325211588566 149.04541658285032 L 158.29662197155227 148.73022422617993 L 159.85345396245506 148.46645242975407 L 161.41339889173108 148.1867373234934 L 162.9902362037352 147.84820645724022 L 164.51579349158132 147.57696566293527 L 166.0307620241851 147.35626540975198 L 167.5378803180123 147.06727639501196 L 170.60800446279652 146.5921486777564 L 172.35423243855192 145.42628172688103 L 170.71461521769808 142.97117921061897 L 169.68801604501598 143.6571189003686 L 167.0684429241752 143.98277243311304 L 165.5506588742524 144.21929611368552 L 164.04072506310618 144.39898648550223 L 162.3973370384523 144.65325838650978 L 160.80522903795642 144.9653622858816 L 159.30426088129494 145.21115987493343 L 157.69214755969773 145.47290077382007 L 156.03657210286434 145.80834318277468 L 153.30615734435068 146.4786442632784 L 150.61920971185776 147.33070314194697 L 149.83396483715444 149.67766169362415 Z" fill="black" />
<path d="M 160.7262927332423 133.86870194290378 L 156.99879906006646 134.64628489906366 L 156.70751900092634 138.1271537371194 L 157.37067301110594 140.11120708787297 L 157.9857316115656 142.09780100937155 L 158.53444886785593 144.07409459350905 L 159.00273385971565 146.10306282555308 L 159.0831036942094 147.8811458136935 L 161.9471697432906 147.7733952019315 L 161.88349660903435 145.72274283850942 L 161.41550230401907 143.39746302367845 L 160.9199080368719 141.29477711562845 L 160.34661214514406 139.20239154493953 L 159.82141166313616 137.4828316144431 L 159.13401343993354 137.00984303062384 L 161.2042492589452 136.86152266647122 Z" fill="black" />
<path d="M 157.37547415191221 146.6716594132085 L 154.56002926657868 146.99925393943974 L 153.29121269867997 149.90667047156825 L 154.38390545141223 152.2428211910251 L 156.320488139226 153.88844516751854 L 158.56350868700594 155.15724951764423 L 160.59688228241424 155.7811491283103 L 161.47770267852326 153.0612580982522 L 159.80196982861906 152.48398583391827 L 158.083808735774 151.40049526216896 L 156.74341388452527 150.2684092777249 L 156.35966620757003 149.70172796593175 L 156.17117190529632 149.58119039649776 L 157.56898385590029 149.6335163680415 Z" fill="black" />
<path d="M 164.612016253965 146.54120517024336 L 163.197400594689 148.15087333971806 L 162.30477132800712 149.8338700767419 L 161.1879050176454 151.38169486909646 L 160.19868543623878 152.45478945143978 L 162.27201768876122 154.41068906418522 L 163.4074318964171 153.23158638090354 L 164.77530679699288 151.5012129310706 L 165.755236124061 150.00610908215694 L 166.9694046444725 148.58782315006914 Z" fill="black" />
<path d="M 153.4488735144447 160.4268770043533 L 154.5375296430317 159.79003052653897 L 157.64662387093065 159.11473877941424 L 160.21016212874844 158.70893518524602 L 164.2046433862202 158.07146905398892 L 166.247391250713 157.8229502740535 L 168.6175537109375 157.78795194625854 L 168.6175537109375 154.88319063186646 L 166.1262659758495 154.8481923040715 L 163.8117140356548 154.97503973507358 L 159.73978904312656 155.53874547881648 L 157.04575894156935 155.90869872058576 L 153.5288766069683 156.68482298908603 L 151.8447055871178 157.6495390112717 Z" fill="black" />
<path d="M 153.98230224395468 163.92249912817277 L 153.39613664150238 165.61962890625 L 154.528378381192 166.59041238786028 L 156.8308796750628 165.92925344667933 L 159.60576811979556 165.2157513767741 L 162.56985112879798 164.6163785348606 L 165.06545232200057 164.1949607627268 L 167.44908460687674 164.10257629474614 L 169.57015595873787 164.06119237131355 L 171.56649708759895 164.34163886957654 L 172.00650095927605 161.49234550542346 L 169.78958525219963 161.12215723806145 L 167.40931383062326 161.08077331462886 L 164.78745295143693 161.1135109169607 L 162.02548578526452 161.4928743948269 L 158.90375336457944 162.0696490138509 L 155.9889445436872 162.80756295957067 L 153.682070837558 163.47269796370222 L 150.20493757724762 165.61962890625 L 154.22814697479532 166.94139247338973 Z" fill="black" />
<path d="M 163.685125190047 157.40567388086978 L 161.30183220632506 157.93261605229992 L 159.5432900010155 159.44618401256463 L 158.55246076114608 161.53207935425445 L 158.3011512213098 163.90685053402618 L 158.29947638511658 166.28277587890625 L 158.3299058383497 167.97847348084133 L 158.64181927292995 169.90825263426203 L 159.04174303208382 171.6022091443742 L 159.48245214079003 174.39064029735354 L 162.34005762483497 173.99034114795896 L 161.98853040541618 171.1232547228133 L 161.70425006300755 169.38886650636297 L 161.5120131069628 167.74015444884617 L 161.54244256019592 166.28277587890625 L 161.5407677240027 164.05420903628632 L 161.68557634822892 162.32497630980805 L 162.1351767958595 161.25779547962287 L 162.60930060617494 160.66931265863758 L 164.331232231828 160.27035150975522 Z" fill="black" />
</svg>