<svg xmlns="http://www.w3.org/2000/svg" width="300" height="300" viewBox="0 0 300 300">
<path d="M 139.8150634765625 116.13876748085022 L 136.84967041015625 116.07835328578949 L 138.1639339066174 119.20126061931697 L 139.90149220960686 119.80425677109935 L 140.85186217727295 120.4493406118035 L 141.69878640525002 121.62840311857985 L 142.36749709949115 123.44632203133244 L 145.04522262707135 122.46517699210506 L 144.26251730568748 120.32191426423265 L 142.98236633835205 118.4400636850715 L 141.30517282945564 117.10455670546315 L 138.8136051558826 116.12308020099553 L 136.84967041015625 119.24598753452301 L 139.8150634765625 119.18557333946228 Z" fill="black" />
<path d="M 131.0051815730434 133.9480387327584 L 129.12676228205723 134.56245977788865 L 130.78958459057804 136.215720242632 L 132.93954775434543 134.9619392751621 L 134.31015642368507 134.22515093404164 L 136.0445290396553 133.41580826463053 L 138.07059632436003 132.52174543485137 L 140.2037229945583 131.76826002318884 L 142.58927698689865 131.0636642377845 L 145.14354611000348 130.3432741796341 L 147.84828848253667 129.61293161027714 L 150.70146239549345 129.01760459025158 L 153.84253087077437 128.35517905148774 L 156.25617486840167 127.87706946505655 L 158.4796382781121 127.46880951718934 L 160.29662504281143 127.13763687970264 L 161.71966246856084 126.93837600191597 L 163.68998728874814 126.69267771807448 L 161.99612964441636 124.19081905424196 L 159.2116162170234 125.69523195223951 L 156.82342556249245 127.12680790913821 L 158.26629611719505 129.5879137705493 L 160.6077197204766 128.2466625790105 L 163.22847973058364 126.97824832857054 L 164.43745411750186 123.57612111005052 L 161.40289612518916 123.72654099027153 L 159.79797944937607 123.92339827654736 L 157.9113529328254 124.24041899843566 L 155.65544622534833 124.62439537869345 L 153.18932948078813 125.08256508913726 L 150.02424561231905 125.71652626912343 L 147.07175546277583 126.30955374128536 L 144.24610232749652 127.05565160161588 L 141.64534215372635 127.77569123096548 L 139.1511354038792 128.51152513306116 L 136.80489195688997 129.34251237764863 L 134.6268576790947 130.32100814161947 L 132.78273908412743 131.20417035502086 L 131.25051572221707 132.0518546701504 L 128.79598669848446 133.570900851118 L 128.23163615544277 137.60087030023635 L 131.7584903019566 136.7748616578666 Z" fill="black" />
<path d="M 140.90799503035396 137.87048316545847 L 139.0918519306354 139.26919846595604 L 138.04216146389695 141.3442976119686 L 137.8742437998045 143.64258643958914 L 137.89096415819435 146.7243449391078 L 138.19115393324174 149.0677018615734 L 141.03858239488326 148.7352766540516 L 140.81325947461815 146.5772908030797 L 140.829979833008 143.71727684166086 L 140.91230630954055 142.0543840286564 L 141.3140318584271 141.21261305748146 L 142.67598934464604 140.23461937360403 Z" fill="black" />
<path d="M 143.06618791810354 141.73200858022955 L 143.33884735389813 140.70628900009257 L 144.54523696750553 139.91330062125107 L 146.02928546689256 138.95938643904492 L 147.94581238301637 138.1287365001931 L 149.96090258368957 137.52618457738697 L 152.021532079877 137.28760152806652 L 154.5558161293996 137.25715868855667 L 154.65825464039165 137.21576675751643 L 154.63562920781533 138.73898281416993 L 153.87758252517617 140.93716910086312 L 153.32766670139293 142.90627407329112 L 152.82067102801972 144.6748445201474 L 152.258565802149 147.09788696752503 L 155.048563104101 147.78822143091247 L 155.66260533916778 145.4578459095401 L 156.23165947048207 143.80539584858388 L 156.85789110763633 141.92135140694938 L 157.80150458124717 139.25808749833007 L 157.65375707835835 136.02788558623357 L 155.2537541831004 134.11393506144333 L 151.8572520998105 134.08349222193348 L 149.31338940849793 134.38507030542553 L 146.84910949198363 135.1149158435569 L 144.53651043154494 136.12081375626758 L 142.71733627468197 137.29153336312393 L 140.77064971641437 138.87525396865743 L 140.24252790220896 141.01847970102045 Z" fill="black" />
<path d="M 140.45797797396315 152.8367497140392 L 139.99785118281588 153.85624770787152 L 141.15194704539766 153.45914693548218 L 143.40440624597724 152.30440013821476 L 146.21580431199368 151.1485301669432 L 147.77028321531512 150.55395506921778 L 149.34275172520785 149.94893711631548 L 150.92185854435445 149.3448591973306 L 155.07520922549617 147.78171073598253 L 157.5657514463831 147.36700750522795 L 157.1235796083044 144.35015558070955 L 154.20884839169133 144.72768867807997 L 149.80384946345805 146.3334855292319 L 148.20485569666715 146.91776210243452 L 146.62424803468488 147.50109864171972 L 145.00062635206882 148.0948780361818 L 142.03138476964776 149.31571704928524 L 139.40408322803984 150.68172220514282 L 136.85456580937162 153.16548080775348 L 139.17214897916185 155.5173762625233 Z" fill="black" />
<path d="M 132.39111773401692 159.89564624219423 L 130.6079803982223 161.67269972375962 L 130.0027290531775 164.15137172988213 L 129.99714255332947 167.17694091796875 L 130.00075693359705 169.2993320294843 L 130.27507669120027 172.91876649983638 L 130.2860802412033 174.8292236328125 L 130.31483216357904 176.26434108716012 L 130.03054075965818 177.70788182607984 L 132.85825318565432 178.28845606454516 L 133.22459654735846 176.56305149096488 L 133.2533484697342 174.8292236328125 L 133.26435201973723 172.77849912516362 L 133.01315908202795 169.1597744158282 L 133.01677346229553 167.17694091796875 L 133.0111869624475 164.40478061386787 L 133.2067168674027 163.17434617467788 L 134.45153363317058 162.03452953905577 Z" fill="black" />
<path d="M 133.47428319975052 164.2528261502667 L 133.83060235986196 162.6743400653678 L 134.6692908186703 162.3829712202991 L 136.24759760915302 161.82572784437102 L 139.06488852152094 160.9866154722467 L 140.83617618009634 160.42047415541356 L 142.86336535886738 159.83506437107107 L 145.28534230433564 159.10658151414947 L 147.47079309501837 158.52768607382572 L 149.66641765001194 158.01620967211582 L 151.870216354544 157.5562787669909 L 153.97711211808678 157.1624117592277 L 155.92559149226352 156.77177050990616 L 157.98751055947744 156.45609289411763 L 160.82185392949432 156.07152551270013 L 163.31129024265303 155.87638356992804 L 165.71288602847287 155.60841978332255 L 167.25515050989665 155.558938538013 L 169.1436767578125 155.55699360370636 L 169.3248032445783 154.71211172168194 L 169.09131455421448 156.6798095703125 L 169.09382416696582 158.7530358275564 L 168.9575577092389 161.1681147354763 L 168.83610372779788 165.40857183205267 L 168.77386644163101 167.03179732105883 L 168.71743072700954 168.59752866416372 L 168.66255321133877 172.63592274780478 L 168.7046498580703 175.68156940062246 L 168.83771180209322 176.7862867778684 L 168.12162659413997 176.70245157845244 L 168.83943297617253 179.58197224967256 L 171.30144835415678 178.7059007221316 L 171.9600229934922 175.84943645875254 L 172.00211964022373 172.66522471313272 L 172.07236419486546 168.67322328896128 L 172.14105055055649 167.17804154612867 L 172.22895974876462 165.52428949607233 L 172.3577499079486 161.3022221785862 L 172.49675200490918 158.8558508911936 L 172.49926161766052 156.6798095703125 L 172.2657729272967 152.99382089550556 L 169.1436767578125 152.14893901348114 L 167.20346765416585 152.1469940791745 L 165.44250947933963 152.20554506042745 L 162.98936893703447 152.47774240663446 L 160.44889802363068 152.67871862792487 L 157.50260174521006 153.08638757463237 L 155.33539483586148 153.41890331821884 L 153.33001678816322 153.8204983970223 L 151.2077865751435 154.2188677173841 L 148.93221516248806 154.69521610913418 L 146.64846960029413 155.22805123086178 L 144.35455027378936 155.83751028272553 L 141.89676647707012 156.58546785549143 L 139.84497616365366 157.18841256333644 L 138.06279702535406 157.7746149965033 L 135.19954594553448 158.66401824937898 L 133.2243859391422 159.4391723343884 L 131.16024236670054 160.9843513408822 L 130.59065820649948 163.6191220919208 Z" fill="black" />
<path d="M 146.79889630498258 162.8355031729732 L 144.86761220189916 164.24397466110653 L 143.34042817159732 166.28979484778824 L 143.18798080845855 169.90929479660628 L 146.37383055340166 172.26169984290522 L 147.4359859589215 169.06684415560588 L 147.49444512075294 167.67401832955326 L 147.82045987471764 166.4155757551862 L 148.7041163638806 165.6330339237636 L 149.81305286247309 165.16592823941144 L 151.46395759928166 164.72763227214105 L 153.27218455027315 164.50271262147942 L 155.4526262870373 164.39713877210792 L 155.74131288491145 163.93266522610904 L 155.49188175572192 164.79218033041488 L 155.50689441777666 166.1456649761378 L 154.95420144404656 170.0185440838339 L 154.61541351898651 172.37485873307466 L 157.44635405913849 172.92628872786284 L 158.03346945439094 170.5291854083536 L 158.65692394159834 166.4797012347997 L 158.67193660365308 164.66424056802262 L 158.14723691977605 161.85065996920346 L 155.4079694160877 161.24214345445458 L 152.98391896535185 161.38864480039558 L 150.83828849446834 161.70388628254645 L 148.78557995002691 162.30990183871356 L 146.9916844173694 163.1751936152989 L 145.24777742996986 164.9134037370013 L 144.64788886362206 167.22002463919674 L 144.581225955141 168.85210115689412 L 145.24299073566084 169.61842711021978 L 146.05152114466645 169.19800500808122 L 146.17434233621518 167.12780769127426 L 146.87433115747584 166.40080072951847 L 148.52153826532992 165.1804880379643 Z" fill="black" />
<path d="M 146.42170896270818 173.8601209859566 L 145.70167886777497 174.4783273971672 L 146.37395836403311 175.6179644223264 L 148.44853688179333 174.99318643799 L 151.01937817033047 174.38029711306436 L 155.3846670117174 173.38871986498526 L 158.0473156746642 172.58676908636423 L 157.2926501456483 169.83351899957327 L 154.7001718554701 170.47199790845224 L 150.35696460310703 171.31696851193564 L 147.64765452445667 171.8924336791975 L 145.24286292502939 172.6000531557986 L 142.61191976503753 175.3241628372078 L 145.84574709197932 176.7346055765434 Z" fill="black" />
</svg>