<svg xmlns="http://www.w3.org/2000/svg" width="300" height="300" viewBox="0 0 300 300">
<path d="M 145.34798946015928 111.85248345869253 L 142.82137404632007 112.51357125087249 L 141.67186431337473 115.07362270840886 L 141.1972552643593 117.63605432366569 L 140.64428614983922 119.87172231729865 L 139.90527678562634 122.43163068475381 L 139.0398835387243 124.6515372007715 L 138.39663399441082 126.14755481259755 L 139.3504272924258 126.95098198556738 L 140.4888453091534 127.21509540007966 L 141.60096829721078 125.34555648563047 L 142.51492544992723 124.03542133337967 L 143.98270559947545 122.38214769858483 L 145.18405121611045 121.53691136049362 L 146.51127674139667 121.07392184788951 L 148.37488511073082 121.02758108260122 L 149.99089012256584 121.02664500303572 L 151.67815830381895 121.15767978075742 L 153.81618834789606 121.40520487044135 L 154.68966560621374 121.14219725429459 L 154.0999657225586 121.64931379116274 L 153.2529968489537 122.96246135045762 L 151.51261081496878 125.62957390815936 L 150.2164776885916 127.44956325152677 L 147.37896775756002 131.13652115107456 L 146.04173672446078 132.7443785473747 L 144.48929938183667 134.30861332679942 L 146.50801507128833 136.32151362632558 L 148.12452304116422 134.7076478198128 L 149.70416212525248 133.03730697392544 L 152.6643816864084 129.34206272503573 L 154.14107570846872 127.45843878715314 L 155.9657531510463 124.72027790735488 L 157.0993750977539 122.88034929477476 L 157.44595451097376 119.43360840976791 L 154.35825012866644 118.24469747330865 L 151.99493739930605 117.96670986768008 L 150.11714210399666 117.82247609071428 L 148.31212660801918 117.82154001114878 L 145.92646739922833 117.92534573023549 L 143.68862944795205 118.76362574888138 L 141.86507272083705 120.17058667641517 L 140.16390755788527 122.19590190880783 L 139.09727389028922 123.78859878780703 L 137.8326878939716 126.02306377960784 L 138.0348266138242 129.56537543630762 L 140.96921073215168 127.61611706240245 L 141.8024016175257 125.8089120179785 L 142.77355622218616 123.42432634649619 L 143.61901951422328 120.70408334676385 L 144.2544048918907 118.31023473883431 L 144.71607513975027 115.86778354159114 L 144.86295212555493 114.87436820225251 L 145.90140018827822 114.88482122880747 Z" fill="black" />
<path d="M 136.0105477989416 136.96807960185876 L 133.8878933642816 137.89737710840217 L 132.75022776099115 140.25718202890297 L 132.23736651110286 143.40805256082763 L 132.25374281406403 145.9254150390625 L 132.2867659330368 148.6280517578125 L 132.32178984043387 151.0304720811215 L 132.4412949130646 153.12841218990226 L 133.0189399131588 155.2508683514442 L 135.7957573524662 154.5174421954308 L 135.3290908291229 152.68604093509774 L 135.30455293300363 150.9802701063785 L 135.3395768404007 148.6280517578125 L 135.37259995937347 145.9254150390625 L 135.38897626233464 143.68813884542237 L 135.81239430932135 141.05836972890953 L 136.1151583935309 140.11495199316033 L 137.1614492713709 139.71795555439124 Z" fill="black" />
<path d="M 136.68894165671077 140.90688591844963 L 136.69645056998127 139.95140341433694 L 137.41657139152125 139.4779584099326 L 139.3114758135623 138.53679407209924 L 141.4507092995106 137.7479431728358 L 144.22228768329063 136.98599531255883 L 145.67288286575985 136.61539981336216 L 147.25023891108765 136.29535487987235 L 148.96741796038168 136.03195741321565 L 150.83834370307346 135.64100650179998 L 152.3927336104641 135.37286258429856 L 153.93979129641525 135.10569648673658 L 156.7756216264993 134.51980927696573 L 159.4058849630521 134.06877176580403 L 161.13224860470714 133.8840237013522 L 163.01912007398883 133.82583484616333 L 163.69436296918468 133.6778976810955 L 163.71886307470047 134.0355249130949 L 163.68996609651947 136.2126625578833 L 163.64125792715606 137.82968798479868 L 163.2747550379019 140.07537962136485 L 162.70049539435533 142.95804081878632 L 161.79417330156963 147.55859291452674 L 161.3078106653238 151.39870402796885 L 161.17853864417 153.64718899936452 L 161.21211969852448 156.41064453125 L 164.10343205928802 156.41064453125 L 164.1370131136425 153.76882662563548 L 164.4038592565512 151.78818562046865 L 164.99781888593037 148.12097251516076 L 165.92804464470717 143.61263789215118 L 166.5421394933481 140.68963502707265 L 166.96787293221894 138.20571240582632 L 167.06320773160553 136.2692710358667 L 167.03431075342453 133.4165014540926 L 165.58237042925282 130.8963210689045 L 163.08866801194867 130.47311534914917 L 160.90632561404286 130.5400485642728 L 158.9235828103854 130.75569112482097 L 156.1522348188132 131.23055693397177 L 153.29836788327225 131.82081718513842 L 151.8205232254734 132.07916378288894 L 150.20596782036404 132.36155697476252 L 148.36778711774332 132.74636289928435 L 146.66394565922485 133.00847812794015 L 144.92831342330265 133.36409237413784 L 143.35400626202187 133.76925371087867 L 140.4358873801769 134.5838439365392 L 137.9657458661252 135.52167760758826 L 135.61138271004125 136.8076861213174 L 133.95479454720623 138.58643838253806 L 133.71022826516423 140.65890997998787 Z" fill="black" />
<path d="M 140.39206838407543 146.316459661787 L 139.93240947073758 148.0510286367622 L 140.98314439263518 148.21953090019093 L 143.2962502034958 147.72856495354463 L 146.08715683562565 147.2698682557985 L 147.67593122712796 146.99262505679158 L 149.22392086171484 146.71312312274242 L 152.48671120036482 146.0849790946097 L 155.24595980629076 145.38960070580063 L 156.96044517680616 144.87310224421728 L 158.05694194390932 145.33234076784885 L 159.08417133734068 142.56463188840115 L 157.01172279194384 141.84772295109522 L 154.51295132652174 142.38224988013687 L 151.83457786213518 142.9881410225778 L 148.65144534922266 143.56116886944508 L 147.13852189787204 143.80717963070842 L 145.55835097687435 144.055449127014 L 142.6955710855667 144.52265574958037 L 140.11121595892732 145.08271519355907 L 137.05672627144992 146.7026334726128 L 139.65798044404957 149.2129592835255 Z" fill="black" />
<path d="M 138.2965087890625 153.47969043254852 L 135.8212055126426 153.45260238271558 L 132.71577674623478 154.95009013606318 L 135.4958867612718 157.31085043679226 L 138.10589708729844 157.61092996162546 L 139.72248631282926 157.682371102874 L 141.4654541015625 157.6852787733078 L 143.24798583984375 157.68640077114105 L 145.20060665717284 157.68940216818376 L 147.41656568237775 157.61856667277763 L 149.45328533188467 157.3361315541978 L 151.36378351934565 156.97993394716295 L 153.24401253598964 156.5753967381533 L 155.11508421839054 156.1503987779661 L 156.93408107885676 155.6573947125437 L 158.8786101752015 155.09932216187983 L 161.748546575297 154.228856127459 L 163.65409711882677 153.0302252673492 L 162.05757280304823 150.4319329357758 L 160.5421028387655 151.335352856916 L 158.010427910736 152.04142490843267 L 156.10180759301824 152.5343777483938 L 154.35574097692196 152.9672770032839 L 152.55371695619786 153.3430602930967 L 150.72483952752935 153.71427992002455 L 148.92623126967783 154.0337414926772 L 147.14581224730975 154.27681906940987 L 145.14851443657716 154.33110564431624 L 143.24798583984375 154.33410704135895 L 141.4654541015625 154.3352290391922 L 139.78740138248324 154.338136709626 L 138.37908826426406 154.28445578056204 L 136.0916376527907 154.05902261008274 L 135.84684532407772 155.49387959049932 L 136.0183940967324 156.46585464853442 L 138.2965087890625 156.43876659870148 Z" fill="black" />
<path d="M 152.09569148272024 134.51432912010094 L 148.45084062823761 132.65689859203897 L 147.13335447098422 136.35124628783734 L 146.93977673432198 139.94197027010657 L 146.70103958437966 142.74804117124376 L 146.57643521920156 144.2360389697075 L 146.39116981739267 145.867875837186 L 145.7537567203467 151.18606307803586 L 145.48173782059084 153.48429996129127 L 145.20208503814445 155.79099085227864 L 145.18037715761625 157.39342386541156 L 148.04960331113375 157.52991597833844 L 148.17193839935555 156.10439488990886 L 148.54047897628416 153.93171566370873 L 148.9526641780908 151.60043594540164 L 149.61163779979483 146.2582227956265 L 149.82249056204844 144.586837006855 L 149.98597213437034 143.04688070375624 L 150.25138537505302 140.17240961270593 L 150.45392580245328 136.50605351685016 L 149.28048261394989 135.87117757983603 L 150.53309269696726 137.04170115333656 Z" fill="black" />
<path d="M 138.82178718968473 162.33560911045032 L 137.1738671129156 161.86533196868672 L 134.56096079310754 161.8463521058921 L 133.1319997923666 164.00759577664553 L 132.31351253450083 166.1827609019906 L 131.66511153177788 167.83261074441432 L 131.02140398245479 169.66266851167597 L 129.98458611869225 172.17619548483657 L 129.23749348692837 174.41681329289588 L 132.05095866150913 175.44060858210412 L 132.88833868599525 173.32697834328843 L 133.97615461129521 170.83562250394903 L 134.66484452290962 168.96206698996068 L 135.31283023893667 167.3337185901969 L 136.0788156373209 165.27975773897947 L 136.09028432407996 164.6632914487954 L 136.6463233167719 164.91958014068828 L 138.05931632594027 165.25008424892468 Z" fill="black" />
<path d="M 142.38309122220105 167.3144922950747 L 143.7592083802866 166.9644174067041 L 146.38232791097494 166.99230283356903 L 147.12429208193342 167.44828689874444 L 149.02623887963435 168.8847853334715 L 150.82971815161565 166.6086228696535 L 148.87851553525408 164.99214278875556 L 146.99169552652506 163.87158876799347 L 143.5289996275259 163.7743521245459 L 141.62813924654895 164.2250584861753 Z" fill="black" />
<path d="M 150.619604798891 165.74796739092042 L 151.85830779110933 166.20348787298062 L 153.3668241541653 167.3232569155424 L 155.3438843025475 168.1321036695959 L 156.50364987714 165.5094978929041 L 154.9156465489597 164.7418065610201 L 153.39926056826567 163.48425626764438 L 151.613061216734 162.88875135907958 Z" fill="black" />
<path d="M 161.23625274391478 163.56167865955516 L 162.68245048052438 165.40021995284764 L 165.44102870523372 166.5481908772587 L 167.3241344761923 167.39112805486465 L 169.26543323773268 168.60368300021455 L 170.85053355914232 166.21406602322295 L 168.8306506800577 164.79905749201035 L 166.75257481039128 163.6650659586788 L 164.50565987103812 162.71098610183986 L 163.57514862327272 161.64669536388234 Z" fill="black" />
</svg>