<svg xmlns="http://www.w3.org/2000/svg" width="300" height="300" viewBox="0 0 300 300">
<path d="M 121.50408909431295 98.19160377537774 L 118.66931139888442 97.10286963223388 L 116.9487431973103 99.84757583742588 L 115.7643802306602 102.78167254831293 L 114.98794094685384 104.61358613784907 L 114.13297396979246 106.65873777222843 L 113.15002714484804 108.9818499513788 L 112.1153952919826 111.48621539460979 L 110.9477554289722 114.22299495415504 L 109.89537023110226 116.45028355447016 L 108.9924337679799 118.47182355937716 L 107.51721221603434 121.33284019050639 L 107.44609556875264 122.34094261657313 L 109.7373934036526 122.92263286771951 L 110.7231331124044 121.4245191605716 L 112.13710901653974 119.44162939622171 L 113.01577542773846 118.33676667042947 L 114.77409292939569 116.32340704143537 L 117.63281275707605 113.67828365309269 L 119.48870592735692 112.41859737065127 L 120.88743636284168 111.93074274555073 L 122.3268757816352 111.89218763529777 L 123.44267624618709 111.83706846698102 L 124.53557182972936 112.47722846396361 L 125.2939797670145 112.74299530585586 L 124.7370777033053 112.88724324718532 L 123.58851942209623 114.54003091211915 L 122.18991891596072 116.72354144093084 L 121.3205581851893 118.06332157511257 L 120.46532774154252 119.4608879408874 L 119.56376526917407 120.95450947725726 L 118.67189689956722 122.25074132383097 L 117.81663065722006 123.58628572234575 L 116.99909841696049 124.83449476688895 L 116.15353654641453 126.1028919496711 L 114.38715577404369 128.76575448952318 L 112.8682394101407 131.1566772093018 L 111.31755512533596 133.36259058370968 L 109.82480719278911 135.68303006514049 L 108.45970588751683 137.56965593168962 L 110.76819938592067 139.24150129487288 L 112.17592522908589 137.29939180985951 L 113.70807964028904 135.01533910379032 L 115.3263406679843 132.8670044313232 L 116.97636961658131 130.50328847922682 L 118.77505232077297 127.8859996518914 L 119.65800607522701 126.65195542842355 L 120.53297871777994 125.39772306671675 L 121.40622810043278 124.10570398866903 L 122.35090758238843 122.77437235868024 L 123.32190370376998 121.2150153794251 L 124.1591781429357 119.85989619832493 L 125.01833303716428 118.54708844188166 L 126.39255967946627 116.40137533788085 L 127.6207103826322 114.62581827625218 L 128.504238006423 111.86723418633164 L 126.38178656870814 109.75568169228639 L 124.30573683975041 108.66915711895648 L 122.2525919918023 108.61403795063973 L 120.23500016059582 108.72562932476177 L 117.96063489295558 109.53904423091123 L 115.56726048511145 111.18218997971981 L 112.48420785185431 114.06746209918963 L 110.56942965038654 116.28322844675803 L 109.57553746783526 117.55568505690329 L 108.1086539969706 119.6517747847409 L 106.9697599166599 121.45688373384299 L 107.82062806405986 125.46691871155187 L 110.23425262771566 122.92155434074361 L 111.8199441617076 119.85178483906034 L 112.75355555014774 117.76932093771734 L 113.8258041413403 115.51723942084496 L 115.0348732627049 112.72362347257771 L 116.08886445671446 110.2231061033087 L 117.08650845208254 107.91670168089657 L 117.96005710002116 105.88287382308843 L 118.7680904724648 104.03619854543707 L 119.9604364901897 101.16463119382412 L 120.07641614017808 100.08060204745362 L 119.90643336662455 100.69352806055976 Z" fill="black" />
<path d="M 102.99070082138577 143.1010914329637 L 99.21644662896934 142.20725130056047 L 98.86698892949872 146.50292505630676 L 99.11978147170669 149.70707976876702 L 99.19284290535434 151.63579136972635 L 99.26765794344192 153.91882440588182 L 99.27163052558899 156.660888671875 L 99.27876949310303 159.22589111328125 L 99.29316973686218 161.7408447265625 L 99.3092257976532 164.2432861328125 L 99.32677920751537 166.5198894834215 L 99.2727652486901 168.60698996110563 L 99.22234466567157 170.6559760960492 L 99.0357189325627 172.94013257637914 L 101.96625483036041 171.68804931640625 L 101.95457911491394 170.174072265625 L 101.947904210741 168.3690579111345 L 102.06494066688265 166.3947858432549 L 102.25741693585945 164.298311772036 L 102.45295563512973 162.06263649405255 L 102.65119039663846 160.0708957861105 L 102.7779251573227 158.15252149783822 L 102.92318007753275 156.2759725645243 L 102.97840195943428 154.4738067245089 L 103.05127695888979 152.82866796392534 L 103.12916771682329 150.955680800334 L 103.16116832268395 148.53847178741393 L 102.7200661449542 145.98187164447575 L 103.71446139668664 145.15812211723613 L 105.09769131574977 143.73802500040676 L 107.77823443812066 141.65341894470123 L 111.06721062172802 139.8048998152051 L 113.13716910972168 139.11166454386102 L 115.46757058244162 138.4857313060489 L 118.15596560713422 137.98059530831713 L 120.6459605019521 137.590344027572 L 123.25008137358614 136.96702508905327 L 126.00794673858776 136.18188684591274 L 129.3632858983031 135.41288441975775 L 130.8691299985251 135.1818204989272 L 131.15512455544635 134.29026099839257 L 130.13553826090185 135.13193873069093 L 129.48222364853126 137.2936017148787 L 128.8691070697733 139.95125685236647 L 128.272948029118 143.01297880969062 L 127.93206892870823 144.8962706352584 L 127.676852033502 146.66826010713422 L 127.47918145402521 148.36830491375835 L 127.34288457975137 149.97851702689292 L 127.22643234293973 151.5561258068916 L 127.1160683014369 154.4389176517578 L 127.16967296600342 156.460693359375 L 127.23809245223475 158.12945241384023 L 127.75716344934563 161.29799823306425 L 130.79447229284187 160.85739727474825 L 130.41327473526525 157.81988840647227 L 130.48169422149658 156.460693359375 L 130.53529888606312 154.5286116451172 L 130.67701003987275 151.7558859118584 L 130.81263299837363 150.28051617623208 L 130.9644220615998 148.73765211749165 L 131.1628696461855 147.13447426786578 L 131.41180314160428 145.4781190131791 L 131.755128142757 143.68282197155938 L 132.3473235942892 140.68863572575853 L 132.92256150771874 138.1912615663713 L 133.45760138753565 136.39906712868407 L 134.41860591330365 132.88649681410743 L 130.7434188295999 131.7446931729478 L 128.6841994532594 132.03914194742975 L 125.16148685516224 132.84667760721226 L 122.37369792328886 133.63807745000923 L 119.9723256308604 134.2159303864905 L 117.56485958817828 134.60143594168287 L 114.70760031599588 135.1473253345761 L 112.14054085121582 135.84768604207648 L 109.60112433920948 136.7309888566699 L 105.90401653844184 138.83632714904877 L 102.89486239518773 141.23109121053074 L 101.25318997050086 142.98909467963887 L 99.5827903003583 145.44354339458675 L 100.22201038825355 148.84275379852357 L 100.25401099411421 150.904914902791 L 100.18785878329771 152.71051660638716 L 100.11669081400322 154.3686005020536 L 100.06388046934225 156.1199014589132 L 99.9210494520523 157.94696580684928 L 99.79570901742404 159.832302456077 L 99.59782561487027 161.79441917000995 L 99.39724615007805 164.038114009214 L 99.19360425499235 166.1707659145576 L 99.0585655158215 168.2754733388655 L 99.05189061164856 170.174072265625 L 99.04021489620209 171.68804931640625 L 101.9707507939998 173.73918871268336 L 102.28827545151593 170.8683158961383 L 102.3818978372474 168.71320046858187 L 102.47192684717213 166.5711749697035 L 102.4894802570343 164.2432861328125 L 102.50553631782532 161.7408447265625 L 102.51993656158447 159.22589111328125 L 102.52707552909851 156.660888671875 L 102.53104811124558 153.87255743005568 L 102.46182018058316 151.52607386464865 L 102.39083864548081 149.50092804373298 L 102.13948079706378 146.37390599838074 L 101.79002309759316 144.21328092600203 L 101.29274644423923 145.5716380592238 Z" fill="black" />
<path d="M 108.38784347934019 156.0981289749468 L 109.67462826436946 155.17784943261375 L 112.06998211399687 154.48765423464258 L 113.60668009590042 154.00982233027113 L 115.21969547167932 153.46436646987394 L 116.95074675011476 152.8393729760091 L 118.54798160668437 152.22713519007291 L 120.15532901851007 151.59534964709607 L 124.20917732940674 149.92054493040422 L 124.7104957092546 147.85979235717787 L 122.95425690347842 148.36338640176493 L 124.90218840902158 150.44423078573507 L 127.5032494079329 146.86884533813463 L 122.99907462371826 147.06029003053328 L 118.98651668461493 148.66368355602893 L 117.42491878394063 149.23306988805209 L 115.85320832801024 149.7969795630534 L 114.16323909863318 150.37315794418856 L 112.60730916191208 150.87872747441637 L 111.11910480006563 151.32679889035742 L 108.22087954813054 152.21314177832375 L 106.48276198940981 153.7953036422407 Z" fill="black" />
<path d="M 106.30096435546875 163.22082340717316 L 103.97009627498853 163.11626309726876 L 106.00314254325485 166.14044023230414 L 108.56389958379033 165.1400761326506 L 111.41463608637949 163.8245804872133 L 113.01313087561354 163.17851578461188 L 114.83478324264676 162.4482321817704 L 116.85650693522857 161.6521011911009 L 118.67790386260255 160.97926666593247 L 120.56668393645182 160.29592178230953 L 122.43068197181881 159.62825990117008 L 124.22750908828618 159.06800332329323 L 128.70541986278357 157.4019308856043 L 129.81647550038224 154.82245465432607 L 127.04265535899277 153.89483050192393 L 126.96535650440393 154.8688210675207 L 123.23281806015132 156.10558066108177 L 121.46458170005619 156.59634947382992 L 119.51144106354818 157.22995712394047 L 117.58308246552245 157.87290618563003 L 115.69537294758393 158.5263656057741 L 113.61187203079074 159.3067727010421 L 111.76042869469896 160.02790511382562 L 110.04593520268301 160.7081343565367 L 107.20697443964717 162.0202021876619 L 105.15835648018265 162.87164472863336 L 103.08617813907397 166.29621248866874 L 106.30096435546875 166.19165217876434 Z" fill="black" />
<path d="M 118.01674482413198 139.43879844494862 L 115.90422858736194 138.85619540609878 L 112.26860964842997 138.7801051900423 L 112.55331910097046 142.41378684800628 L 112.85324201045876 144.60928167812335 L 113.1203131664937 148.75229722175723 L 113.13591229915619 151.656005859375 L 113.16183316707611 154.42120361328125 L 113.21019127611537 155.85039596488446 L 113.04737581662246 157.8640906881032 L 112.77857775425574 160.06250451184908 L 112.39680033872821 161.62847548193236 L 115.14958638002179 162.37872666650514 L 115.66807751918176 160.64147498033842 L 116.08348355837754 158.2353966165843 L 116.31678626294713 156.01996536324054 L 116.36514437198639 154.42120361328125 L 116.39106523990631 151.656005859375 L 116.4066643725688 148.62892836418027 L 116.13357439579124 144.31369195468915 L 115.78530394590454 141.77957252699372 L 114.88165890625753 140.7837375833952 L 115.06317863920056 141.90881924233872 L 117.30796220711802 142.37724159411388 Z" fill="black" />
<path d="M 106.13591651957536 173.57598499851437 L 103.95642906413201 173.9732181277047 L 102.08975818849281 175.41522904084252 L 100.95573527068626 177.77967315895043 L 100.31793340149326 180.0374268015058 L 99.93748149489113 181.64467447423235 L 99.54010025790569 183.4247217265998 L 99.57295060157776 185.32635498046875 L 102.62187361717224 185.32635498046875 L 102.65472396084431 183.7996435077752 L 103.04957905198387 182.42661458826765 L 103.46136347350674 180.8807860891192 L 104.01191609650124 178.90941375511207 L 104.71444103025719 177.32000045134498 L 105.22447913899299 176.9102047238578 L 106.75409812886214 176.53168101711063 Z" fill="black" />
<path d="M 107.67958179175653 177.2466996843333 L 109.09787174093732 178.63901167967603 L 111.85034891510269 180.06743021252336 L 114.03045315627928 180.73899717181368 L 116.30766251304033 180.9162113094289 L 118.04361985862732 180.59771684107108 L 117.53316236793518 177.79303022924142 L 116.24421736977217 178.0250728702586 L 114.70428805465822 177.80189638287382 L 113.17528585052231 177.14716939685164 L 110.92226986062518 175.94802445313647 L 109.96385082543097 174.9630171125417 Z" fill="black" />
<path d="M 120.24772550212853 171.53457571309653 L 118.29002474873612 173.38581747517355 L 119.07574232326355 176.46694825314518 L 121.26738776223684 177.5291744281852 L 123.26977399450823 177.90047370690246 L 125.35958402180138 177.99381383118518 L 125.55777437663612 175.14180628600232 L 123.68640276330427 174.95987785559754 L 122.23175774557566 174.5554202983773 L 121.39850084079895 174.29135252810482 L 121.24793911845138 174.46965127482645 L 122.20710848224647 173.81845163065347 Z" fill="black" />
<path d="M 129.23402366613146 171.59425544491 L 130.01982064753054 173.81165566724349 L 132.62602752868386 176.8189788023013 L 134.40668272860898 178.36952261610506 L 136.12870341868322 179.643770966534 L 137.76413686456672 180.7631572046841 L 139.40505258855828 178.4283711156284 L 137.87154072194178 177.320584502216 L 136.42461609951602 176.06736703233244 L 135.03632598694114 174.5899567445737 L 132.78108267278196 171.94176230150651 L 132.09043922449354 170.45554924259 Z" fill="black" />
<path d="M 156.60797119140625 110.89156234264374 L 154.3486302229148 110.71710382763814 L 156.11037527852216 113.931232089144 L 159.84664902964042 113.347746526058 L 161.57421961076778 113.08891998526384 L 163.21245706230468 112.82455342190981 L 164.92613100430566 112.56158788365737 L 166.7873432350203 112.28976098500426 L 168.66302903775673 111.94160588473422 L 170.57749219910025 111.60669250038087 L 172.69557577501277 111.19155200356938 L 174.4277380881475 110.85054901311679 L 176.08919921885436 110.50387967988597 L 178.91806611634414 109.87233218924553 L 181.4382615466451 109.08070823494042 L 183.44388288193426 106.29453976200936 L 180.67271108385472 104.76361252753347 L 178.67346415211125 104.5569933605106 L 178.36755147288875 107.3908826160519 L 180.07741098645778 107.58465407402903 L 180.47518450087824 107.10475223017814 L 180.1040968517924 106.17039039787208 L 178.12294950865586 106.68003597481697 L 175.40616210927064 107.24966035917653 L 173.790645700915 107.55362579157071 L 172.06577676404973 107.86325756674312 L 169.97060350402475 108.24889831993163 L 168.06792799349327 108.56461970120328 L 166.2345073509172 108.89212378062074 L 164.42262387850684 109.14580957728013 L 162.67926657050782 109.40835673434019 L 161.04052648298222 109.66950286629866 L 159.31106581410958 109.936189020817 L 155.66513741679034 110.5288509186685 L 153.7177760270852 114.01824773486186 L 156.60797119140625 113.84378921985626 Z" fill="black" />
<path d="M 169.6055669418263 92.46180969501687 L 165.97775732221518 91.5771769730886 L 165.13435196876526 95.16339111328125 L 165.13023102283478 97.34051513671875 L 165.12923407554626 100.04315185546875 L 165.12924587726593 101.61968994140625 L 165.12959229946136 103.3338623046875 L 165.13043582439423 105.310791015625 L 165.13519608974457 107.36279296875 L 165.14294910430908 109.80267333984375 L 165.15419793128967 111.96728515625 L 165.16657519340515 114.20697021484375 L 165.18044137954712 116.38409423828125 L 165.19514894485474 118.36102294921875 L 165.21165442466736 120.21282958984375 L 165.24051697125037 123.11179982289119 L 166.3138607172835 124.43290330334588 L 167.7523013920915 121.79841993884162 L 168.32149474749963 122.84425486460881 L 168.35035729408264 120.21282958984375 L 168.36686277389526 118.36102294921875 L 168.38157033920288 116.38409423828125 L 168.39543652534485 114.20697021484375 L 168.40781378746033 111.96728515625 L 168.41906261444092 109.80267333984375 L 168.42681562900543 107.36279296875 L 168.43157589435577 105.310791015625 L 168.43241941928864 103.3338623046875 L 168.43276584148407 101.61968994140625 L 168.43277764320374 100.04315185546875 L 168.43178069591522 97.34051513671875 L 168.42765974998474 95.16339111328125 L 167.58425439653482 94.3953572065989 L 168.5658197769237 95.23740905498313 Z" fill="black" />
<path d="M 161.8183508954678 102.02134571644494 L 156.86148399856597 103.4721739975765 L 161.4594926155533 105.35545122323589 L 163.58526140394312 105.41906220688176 L 163.78290265855688 102.57495634780574 L 161.9474898063217 102.36329877676411 L 159.91952186080903 102.7951599867985 L 161.4445885576572 105.04676951793006 Z" fill="black" />
<path d="M 176.158154383928 98.14977442776197 L 174.2043615469388 98.34422731134978 L 172.00846771310168 99.57500639586904 L 170.63398168956923 101.29384100869488 L 169.79719923830834 102.9668202422944 L 168.95286857998812 105.2330735339899 L 168.45731434236404 106.62096551723641 L 171.04646983732346 107.82935186557609 L 171.84730231844938 106.4395338878851 L 172.73148728512916 104.2264170623931 L 173.33513452136827 102.99656426474262 L 174.08528228689832 101.96271333069346 L 175.2023767343112 101.21656370427522 L 176.417529209822 101.13574803317553 Z" fill="black" />
<path d="M 164.90155996831092 112.67690029176215 L 162.7600673364751 113.59681762470908 L 160.94541169112142 114.8572563715582 L 159.10737521453868 116.72773397816263 L 157.95078644073786 118.09164339882965 L 156.46240415180864 120.18821835931323 L 154.98429820425932 122.38145049858197 L 154.81091655987044 124.64516326586318 L 157.90087543231706 124.86435821851182 L 157.97956898324068 123.57460418891803 L 159.13024721537886 122.08924746099927 L 160.55873504363714 120.08181851523285 L 161.52678005889882 118.94328652964987 L 163.10976409012858 117.2602973393793 L 164.3200107885249 116.26853882060342 L 166.13969979731408 115.36167392698785 Z" fill="black" />
<path d="M 171.81496018812695 115.892775061555 L 173.3920861965718 117.33844447073182 L 175.41105798041625 117.97488815087021 L 177.45739061088062 118.39870055530339 L 180.50572630726435 118.77991732616945 L 182.97983937869756 118.93973545458635 L 184.30762845702128 119.45803669639868 L 185.55321138672872 116.73849650672632 L 183.71205515255244 115.80538173291365 L 180.89258912242315 115.43968716601805 L 177.99915235786938 115.04514710094661 L 176.22834631645875 114.66817825537979 L 175.0783727878032 114.37871861520568 L 174.02671461656055 113.447068688445 Z" fill="black" />
<path d="M 161.00632110164318 131.60984760868394 L 159.12581355027814 132.07990856850947 L 157.15347967944683 133.43614133937322 L 156.29607616818052 135.87332230721174 L 155.77010028832433 138.91075848289736 L 155.0037350864035 141.79302377340605 L 154.48292622471868 143.61755786053533 L 153.98565133905524 145.2768932649811 L 153.41006180624746 146.82705154024814 L 152.91479790287008 148.2930107980242 L 151.92886800281536 150.5840774451437 L 151.92657470703125 151.94244003295898 L 153.35735617498653 151.52684531447397 L 153.94377413603502 149.71573047007138 L 154.67180723441422 147.81412410515352 L 155.9911241930674 145.44921955287793 L 156.96732840769604 144.0874435003332 L 157.90155433318722 143.05113616109355 L 158.93255459996365 142.16407852110876 L 160.15132625450775 141.41188122799576 L 161.33108490288242 141.0191378148236 L 163.00385659113692 140.7971250678952 L 165.15287745438482 140.59758757959133 L 167.1473812619124 140.39728854932258 L 169.58060729291807 140.13843222647427 L 169.91830949607402 139.24259892713934 L 168.95666347434866 139.3788740801806 L 167.31924834159383 142.21790910056336 L 165.79495236844807 144.78723628311107 L 164.9123695652532 146.4046006450025 L 163.86445837223872 148.31001256073813 L 162.81281687950025 150.26916967695664 L 161.62239526909528 152.32737168912823 L 160.4217079041508 154.59993951108694 L 159.1855424715598 156.96822727263887 L 157.92914642145863 159.36002105966622 L 156.6207130849607 161.96129909594328 L 155.6380391751772 163.9618328572314 L 154.85674425066262 165.62326009573803 L 154.22669994808086 167.00053063809835 L 153.3021420833316 168.85624271339475 L 155.09183681107726 170.28769543352203 L 155.0726889635814 167.8690632805637 L 152.2014809582936 167.9997111334988 L 152.47041904829774 171.91225573835297 L 156.0966616276059 170.44087642723025 L 157.15269458316914 168.46785315096415 L 157.85504774152488 167.06741373238697 L 158.6582254732603 165.4506427287061 L 159.6561423837893 163.49731906811922 L 160.97649322697887 160.94356780752128 L 162.2408491300027 158.58072292267363 L 163.4894249083492 156.21939642641306 L 164.66544652777972 154.01259413118427 L 165.85173390174975 151.96679223710586 L 166.92472619807378 149.97209193144937 L 167.9654380519343 148.073792909685 L 168.81137087373943 146.51305668563893 L 170.31197724434367 143.95237898537414 L 171.98755039283884 140.9857499432569 L 172.75441999611348 137.41841181504816 L 169.23897278520693 136.92296914071323 L 166.8107486209001 137.18962551317742 L 164.84407078780268 137.38971710790867 L 162.63579184636308 137.5905702446048 L 160.59945708930508 137.8940701929889 L 158.75431339392975 138.55235217044174 L 157.05621493128635 139.65196151795374 L 155.71050621368778 140.86695465921895 L 154.55610909230396 142.2079666559168 L 153.4076795178701 143.87414470493457 L 151.95416932808578 146.51412296515898 L 151.09772977021498 148.71652050649112 L 150.35175027032597 151.10950722458853 L 151.92657470703125 155.04816055297852 L 154.69710855968464 152.0522750939188 L 155.83581244869242 149.4635809988508 L 156.38486006875254 147.90158615506436 L 156.99762502813226 146.2986682584564 L 157.54466166590632 144.52965893633967 L 158.1041750698465 142.65057974221895 L 158.92228252417567 139.60205889991514 L 159.44061816775698 136.58358687247576 L 159.77156914867817 135.19203248875178 L 160.31998723097186 134.84660510336553 L 161.71645721866932 134.51588481319106 Z" fill="black" />
<path d="M 157.36835711209574 146.95300535475292 L 154.7396072144335 149.8735728152774 L 158.05739293868407 150.4676665429333 L 160.01103809257805 150.15676383781647 L 161.99276963821646 149.69829417054208 L 164.0829830305058 149.10314788245415 L 166.02911188046923 148.4700427227012 L 168.66248777526172 147.29916732177276 L 167.52830812317578 144.67678482666474 L 165.01214788515577 145.7330822772988 L 163.2851810319942 146.15100250817085 L 161.27016981490854 146.60688161070792 L 159.43476268867195 146.94919319343353 L 157.82334436600343 147.1638031836292 L 157.2879806761915 147.7578969112851 L 157.97221905977926 150.02782960618458 Z" fill="black" />
<path d="M 178.76936920418896 133.5866604188612 L 176.53610572163683 137.09609558533455 L 179.87897825583843 136.88547650949715 L 181.90514252426777 136.38006385430444 L 185.92001645241155 135.20403188798414 L 188.73979256767896 132.79115349951041 L 185.37456864780748 131.43634425736266 L 183.13074650564485 131.42684366775143 L 180.6863285705748 131.69921617422565 L 178.55123378942332 132.70060747370795 L 177.08158415617692 134.32043157683694 L 176.0567456872279 136.0935289854182 L 175.14043361602194 138.56204160971384 L 174.25121587924863 141.65714110911242 L 173.7693091167186 143.4090459548834 L 173.3030704075357 145.3625229564413 L 172.9650306264102 147.1113166245162 L 172.62470012667814 148.82026379721358 L 172.2026155856762 151.73195069140345 L 171.97635119069744 154.20018009659262 L 172.31012210680436 156.91829714933195 L 175.04150498715165 158.16946906588748 L 177.26631086580312 158.17237644946775 L 179.54229943539636 157.30257410318643 L 182.03229946955685 156.2321848943998 L 186.08796347297906 154.30804397181757 L 187.44809878475556 153.6506865176955 L 188.91851259243538 152.9901811995505 L 191.17721518696987 152.01631719489166 L 192.96035497888528 151.37859597925242 L 195.16182442241728 150.6094313310372 L 196.82837689653584 148.38129023504214 L 194.27880083783916 146.47246953058286 L 193.17252616352022 147.9479417158378 L 191.95297509923972 148.10468038793508 L 189.91897621928013 148.76822870354584 L 187.53229307162712 149.7712934098245 L 185.97780453555694 150.437082036992 L 184.56511269889594 151.10601852818243 L 180.55437045231815 153.0106129571627 L 178.18292029116614 154.04227452962607 L 176.49772722013438 154.74901026928225 L 175.66162001284835 154.75191765286252 L 174.97198238538314 154.82694210848055 L 175.30575330149006 154.36695857528238 L 175.4756070705738 152.10557372265905 L 175.84575885769686 149.33671862466142 L 176.1536217173398 147.7424431411088 L 176.4997860377768 146.0628920826212 L 176.9338158832814 144.2126581466791 L 177.38818841762637 142.53621826588758 L 178.22748630585306 139.55038514809866 L 179.0036791174596 137.4144055848943 L 179.70735627351058 136.15954889191306 L 180.47037265588918 135.15180951847955 L 181.5042231872377 134.55163831796185 L 183.30907283029265 134.29849812912357 L 185.27850752406752 134.28899753951234 L 185.87446524482104 133.20945685205209 L 184.98513491477595 132.24799447920336 L 181.07764556166973 133.29913536444556 L 179.28667115822407 133.71962602956535 L 178.02016869242567 134.15964171935295 L 179.60404388174854 136.6180514952013 Z" fill="black" />
<path d="M 188.50303070819453 121.49552651179772 L 184.90557166045048 120.50216581826487 L 183.29663523161653 123.46699286592926 L 182.93485057649153 126.3210183208737 L 182.52534626557778 129.28545281150494 L 182.32140252957535 131.13358562347872 L 182.04368342106798 133.26236990973004 L 181.78405686588212 135.9342733467929 L 181.585916559995 138.57439927822608 L 181.3168284834491 141.40262075113202 L 181.0456633259611 144.44276422396655 L 180.79533218286403 147.51403685794574 L 180.45621229828416 150.62641822388886 L 180.20677081363766 154.0883866238085 L 180.00758489516573 156.8692901665506 L 179.86229722289764 159.46891342279196 L 179.73842410184045 162.1061756138866 L 179.61618435562505 164.8636964720898 L 179.41478552355028 167.67063490568657 L 179.2139687919179 170.54932688783825 L 179.02623555553023 172.41860468981312 L 178.76594711675617 174.9127534766184 L 178.50737844932925 179.45135696730222 L 182.03038901451413 178.03130560614534 L 182.3519650828021 175.72260027017026 L 182.5400807276074 173.5951936454325 L 183.0630007944905 171.35803192786418 L 180.207873228947 170.69177275963582 L 179.6504710302051 173.08412764363 L 179.3344362843854 175.28594465170474 L 178.86377602454837 177.60675591729216 L 182.09870065223325 179.61504928269778 L 182.38029311761883 175.1949125390066 L 182.66016581165727 172.80930058362438 L 182.8685507393321 170.84984303403675 L 183.06385217176222 167.92287095368843 L 183.25857150374995 165.0742918091602 L 183.38840695284705 162.2763927454884 L 183.51660902710236 159.65852798345804 L 183.65940729233427 157.1031219428244 L 183.85633953792484 154.353629977754 L 184.11104844390334 150.95890892454864 L 184.45613266088597 147.86523560299176 L 184.7099519084139 144.75547796353345 L 184.9789478837384 141.73971323324298 L 185.250020940005 138.88739271396142 L 185.44799879818038 136.2473672782071 L 185.69252263361952 133.66414376214496 L 185.95496465792465 131.56380207183378 L 186.14713908598472 129.73334601662006 L 186.52987110319597 126.7669943744388 L 186.81627980744597 123.94047783719574 L 185.74750451142452 123.75222871298513 L 187.69569976055547 124.33540610538978 Z" fill="black" />
</svg>