<svg xmlns="http://www.w3.org/2000/svg" width="300" height="300" viewBox="0 0 300 300">
<path d="M 142.8683903124664 81.58579557654716 L 141.8982439370043 83.01680622414996 L 141.1949669228361 84.60815478549718 L 144.16445555116968 86.0632070598135 L 146.77307526703603 87.1514488560192 L 149.53460961720637 88.13884076967545 L 152.32906657547792 88.88956003484941 L 155.13495850446543 89.40259109507745 L 157.8393093473769 89.70578241939235 L 159.96323760082532 89.81021804794415 L 160.27479950854968 86.40279464736835 L 158.2935031526231 86.13186406498265 L 155.84831786272207 85.63427413929755 L 153.36063069014708 84.97115773858809 L 150.89751928904363 84.12031450376205 L 148.36547453765147 83.1307777064808 L 145.96860108945532 82.1169687214365 L 142.9963172568514 80.66918896450282 L 138.4398908286207 80.68399943991254 L 140.7827327344086 84.49232942345284 Z" fill="black" />
<path d="M 102.69612834098903 101.01921342539914 L 103.87199572179621 102.48478612009025 L 105.14117873081423 104.05968922998838 L 106.85061952081473 106.35820462787473 L 107.83140256335939 107.55684798213906 L 108.81737255845499 108.77491706154898 L 109.90883294120495 110.17849165394153 L 111.16133159802615 111.59812887838139 L 112.40991175784252 112.99502533566945 L 113.87442700744786 114.4656487415368 L 115.07275388357402 115.60032991957377 L 116.36117248091472 116.7538092064664 L 118.72133031733294 118.33491309750067 L 121.17699312271738 119.24091454041897 L 123.08197021484375 119.25832271575928 L 123.08197021484375 115.88718509674072 L 121.92603422103262 115.90459327208103 L 120.42051538579206 115.23405662906183 L 118.56741638627278 113.9123284888461 L 117.62316896798848 112.96375699448873 L 116.55281908630214 111.8462409069007 L 115.24450718746998 110.41403228151805 L 114.11637836291135 109.05824319193111 L 112.99216803535755 107.70017045543347 L 111.99500537123251 106.32603508688852 L 111.00038454601561 105.04166276004844 L 110.10860899481027 103.88801119243777 L 108.39702927699827 101.55700998876162 L 106.89338513757879 99.70356837209725 L 105.15238240119847 98.41645551991336 Z" fill="black" />
<path d="M 116.31814667931953 105.83318534624783 L 113.3340410440796 105.47112297788168 L 114.44201153252878 108.7406677679397 L 117.05149687169846 108.56226998736142 L 118.76108725764863 108.46180515557467 L 120.86937985568065 108.29565838552729 L 122.99921351733938 108.06174452228147 L 125.26665046149955 107.83393744761722 L 127.83127624636064 107.51468234291491 L 130.58654869292096 107.09871036220517 L 133.82693775893625 106.61749602445326 L 137.95764071633948 105.93166198058687 L 141.99586354218303 105.22976207963285 L 146.44084397503116 104.39122151239465 L 150.9026381205896 103.52038749016167 L 155.36570390575096 102.70099260788362 L 159.71062165833325 101.94355660272389 L 164.3643708491828 101.30488565903002 L 167.82989681879963 100.98872647579988 L 170.91641557244552 100.7599321215574 L 173.71307373046875 100.69341325759888 L 176.08978271484375 100.68950295448303 L 178.2684326171875 100.68740367889404 L 180.5731201171875 100.66408061981201 L 182.10939718970667 100.64246266240032 L 183.51587887056408 100.71213038495043 L 186.63347470616048 101.03474841816657 L 184.8348818594601 97.23163991411879 L 182.48065639841212 98.15130699674667 L 180.39512303032768 99.31592915543293 L 178.9720542788891 100.34877272618873 L 177.04479363252923 101.86706205208995 L 175.22763695428975 103.5388717983177 L 172.57238761806528 106.19999898469962 L 171.41494666768187 107.82488798591697 L 170.07619368517885 109.45657468568143 L 168.8624652996524 111.00452971349968 L 171.4335552081601 113.20530915368782 L 172.70456803357115 111.85043215025607 L 174.28268516825563 110.45416474845803 L 175.64599617099722 109.17622171842538 L 178.24831519414775 106.7073440219948 L 179.88818976590827 105.20105318228505 L 181.6340248226734 103.81651047693627 L 182.73170802435982 102.99754740706707 L 184.35528110158788 102.06011878450333 L 185.9622372811649 101.40324778119371 L 187.98078310633952 97.07462658183343 L 183.82420902006092 96.74660984942457 L 182.20578835716833 96.66613108759968 L 180.5731201171875 96.64451313018799 L 178.2684326171875 96.62119007110596 L 176.08978271484375 96.61909079551697 L 173.71307373046875 96.61518049240112 L 170.82003462286698 96.5486616284426 L 167.56866275151287 96.59513582888762 L 163.9040617680047 96.80448934096998 L 159.05097502135425 97.34196585821361 L 154.57326093799904 98.03594586867888 L 150.0336411762854 98.79308907233833 L 145.52876051715634 99.64893962041785 L 141.11509837187947 100.51205920942965 L 137.12292568991052 101.26157532410063 L 133.04317942856375 102.02715729585924 L 129.83764564301654 102.59696834873233 L 127.15529601926436 103.10689968833509 L 124.71442864006295 103.46330376332028 L 122.48052281078562 103.76100938396853 L 120.39709963650685 104.05260821603521 L 118.40016762516387 104.28685207098783 L 116.68873750330154 104.43663137982608 L 113.89661151434622 104.7837462945603 L 111.6915937215454 108.72895026430582 L 115.69357207068047 109.54303535687717 Z" fill="black" />
<path d="M 132.75889041077403 124.8735645597256 L 134.81364770908544 125.98143983683816 L 137.42731497190582 125.81314208156574 L 142.34156898809437 124.18772382570226 L 144.4704515686193 123.33267650068912 L 146.48910336913266 122.58728275100088 L 148.53605263080772 121.82782071977836 L 150.4960699833659 121.07234086445217 L 152.38933751924748 120.36287392991895 L 153.96116075190008 119.7355257858317 L 156.09320367069452 118.96997851863537 L 156.26056183190468 119.42906138792921 L 158.43182098059532 116.64234974488329 L 156.22247015743048 115.24962597355213 L 152.80885877934992 116.0606167922933 L 151.06769373075252 116.63444052320605 L 149.1438225947591 117.25126753398533 L 147.14265830669228 117.92217928022164 L 145.08438295899234 118.61413326462412 L 142.9978101501307 119.32015553056088 L 140.91343589471813 120.06667070554774 L 136.32085397340668 121.59432862155926 L 135.36945775966456 121.70129942097434 L 133.85915158141347 121.6080028230869 Z" fill="black" />
<path d="M 119.41441256642408 140.47629318715738 L 115.42971811406852 143.4650125885294 L 120.48277484888631 145.53518809138785 L 123.31279455206912 144.95537873656193 L 125.16390635201336 144.58219693210634 L 127.02751840588118 144.0495476988773 L 129.07950915964932 143.45931541603255 L 131.33371826936244 142.80682625725257 L 133.91539738455697 142.00516298244708 L 136.93970246519504 141.09796188480325 L 140.57805728385932 140.0340480822381 L 144.05372197845202 138.97594242906217 L 147.78870552451644 137.91479550683948 L 151.59618942844614 136.83174632965958 L 155.33960460247337 135.82894422055944 L 158.9578280079915 135.02225434429945 L 162.89049302409853 134.25812539525907 L 165.71521617869286 133.84051637261993 L 168.17020910905913 133.54450530683386 L 170.25450092461318 133.42948919125084 L 173.47908848193092 133.31609181006746 L 177.20542917717563 132.23700406819754 L 176.25077920236114 128.28478877498094 L 174.34997819468785 127.18332141479642 L 172.68005110218715 130.10879284301606 L 173.80415243826386 130.73401005314406 L 174.43397511969937 129.65960237711496 L 173.15482265088158 129.38129588524504 L 170.14955180976182 129.39302057437416 L 167.87654382062837 129.42815094316614 L 165.21801136036964 129.65765257269257 L 162.20899428058897 130.01580038599093 L 158.1112637888835 130.70308745257555 L 154.31127430377663 131.47293566225306 L 150.42041213405386 132.44706226409042 L 146.55760795204606 133.49108828222302 L 142.76634638092298 134.53199214125033 L 139.25592709114068 135.5759372693244 L 135.62011198792996 136.63909866207175 L 132.55860163888053 137.55867979099042 L 129.99074462126256 138.35857901618493 L 127.77962169972567 139.00735938865495 L 125.72638784411882 139.6182989808102 L 124.02493642142414 140.13667513820616 L 122.31098474480588 140.53925016968807 L 119.99146831517619 141.16061268986215 L 119.49887075311898 143.2307881927206 L 120.91578762888842 143.71706618784262 Z" fill="black" />
<path d="M 154.99494947469094 122.24967871407456 L 151.3414655795935 119.73221455343399 L 149.93216324409968 124.10047221370198 L 150.15856237186327 127.38002263418188 L 150.34360373293498 129.30974743901018 L 150.52966784801623 131.5255407470828 L 150.66469957156443 133.9891178136205 L 150.773107674115 136.87369608987373 L 150.92106447078444 140.25641804639488 L 150.92938154409802 144.49572945304172 L 150.98568989634936 148.70972285938385 L 150.97277879714966 153.2325439453125 L 150.97401881217957 158.04974365234375 L 150.97799739248973 162.8366997072782 L 150.94786482066772 167.46963059360968 L 150.79941154601582 172.39209803660034 L 150.71798618989774 176.06643280797613 L 150.57223433179732 179.40150258799113 L 150.42570967963792 182.48379004977133 L 150.2828868494775 185.28525718280483 L 150.07198319725896 187.76284683594702 L 149.85023594094673 190.21261874205055 L 149.25805794911443 192.7447880843491 L 148.5636796686157 194.19304069349153 L 148.38745803637156 194.6037483561784 L 146.87580059321294 194.688600684854 L 146.0148178900041 194.06679121497203 L 144.3890065102949 192.53634505486636 L 142.4608457060873 190.3739202084608 L 141.50193977633387 189.1547093715105 L 140.3018285104209 187.7536873889215 L 138.51747111975288 185.6182707716492 L 136.88512785789501 183.78951988306142 L 134.74263293007658 181.8537030786526 L 133.17500439069656 180.64862179908894 L 131.36763710910748 179.6248032698077 L 129.30863242214252 182.8699477067548 L 130.81425342180344 183.94817995872356 L 132.01945203086092 184.9952959447849 L 133.94617097022999 186.73806800756358 L 135.37474079430962 188.3376618455383 L 137.1554468802041 190.4313712048285 L 138.33204459866613 191.7830347691145 L 139.3537294892252 193.0662653384142 L 141.4947825522051 195.38321060919614 L 143.5780776178084 197.28110917565297 L 146.13811542241206 198.6362284167085 L 149.77599411206594 198.3457145344466 L 151.8684492376343 196.37910286119597 L 153.01061880869807 193.9986201187759 L 153.75083827780327 190.87527188294945 L 154.03324141211604 188.17001449217798 L 154.36249889271 185.64272133282017 L 154.61579422661208 182.76364647366617 L 154.86538773851518 179.66490366200887 L 155.11575404447726 176.26840605921137 L 155.28640388367168 172.56053868214966 L 155.53406877308228 167.59836257045282 L 155.64797917001027 162.8721625974093 L 155.65195775032043 158.04974365234375 L 155.65319776535034 153.2325439453125 L 155.64028666615064 148.67150272655365 L 155.55255204965198 144.42724417977078 L 155.45283689640306 140.10820597704262 L 155.20467552901 136.63423848043877 L 155.02499769406057 133.713152694192 L 154.76391125354627 131.1718469482297 L 154.55385720456502 128.90827013911482 L 154.34278040157423 127.00925959238062 L 154.06502913871282 123.95763325504802 L 152.7637590297815 123.19588603250351 L 152.17118822062156 124.50715722342544 Z" fill="black" />
</svg>