<svg xmlns="http://www.w3.org/2000/svg" width="300" height="300" viewBox="0 0 300 300">
<path d="M 127.27596715918357 92.29580035602554 L 126.15471411092955 95.52021360983244 L 129.28983450603934 97.80139928392612 L 132.235240624241 98.71005299444552 L 134.12910479283644 99.00640814748384 L 136.39918922811643 99.22214008567245 L 138.69420112227692 99.2828448534349 L 141.0333251953125 99.2723274230957 L 143.4820556640625 99.24648356437683 L 145.9292846489004 99.21362063896909 L 148.39485160045692 99.01729406648683 L 150.8648000257691 98.60835005129044 L 152.65329108912115 98.26196782765547 L 154.27424094313056 97.83232374655537 L 156.83719013615925 97.11860282565729 L 158.59839926196497 96.09591869402895 L 156.88621987866003 92.65432544659605 L 155.47848369196575 93.20817940090521 L 153.28801491624444 93.67060594094463 L 151.84805168431635 93.91662103953203 L 150.2155222398559 94.09575151120956 L 147.93205269641808 94.33744226163817 L 145.7882446479746 94.41638424384341 L 143.4820556640625 94.38352131843567 L 141.0333251953125 94.3576774597168 L 138.76307426834808 94.3471600293776 L 136.70078635782107 94.28274272682755 L 134.72160321497606 94.09808404001616 L 133.194446875759 93.86892649774198 L 130.84627389239816 93.57640833326138 L 130.30829858438295 93.75554322610506 L 130.62747522362895 93.82688030803696 Z" fill="black" />
<path d="M 100.3723667607326 118.70743902548354 L 101.31974626939206 121.28430130683917 L 103.22483146666728 123.909155763148 L 104.3200927600215 125.47645645362611 L 105.57952550012153 127.23793818819648 L 106.90892576021169 129.15336166240564 L 108.46159247422112 131.25535908414463 L 109.85531272251778 133.1376880079221 L 111.3192755802727 134.88962023046955 L 112.70217940903817 136.4855008773746 L 114.10975581455345 137.97573246690496 L 115.39096059365208 139.1962072509122 L 116.93039047235084 140.5523598297705 L 119.13263702148744 141.9106321843503 L 121.24772606887423 142.44593734424944 L 123.761163363808 142.33335449769743 L 125.59227523384426 140.71289595168142 L 123.20044937553074 138.20031205613108 L 122.4027770658795 139.08229491636507 L 121.85530127487577 138.84458999950056 L 120.80144500976256 138.4539918390872 L 119.33059585577416 137.4349448577295 L 118.20523081259792 136.2886560303378 L 117.10972660732155 135.13181147840754 L 115.88851883314933 133.7192110366879 L 114.6426384822273 132.16201551171795 L 113.33377419154472 130.4856030077029 L 112.06269951796638 128.66431865023037 L 110.59046388822581 126.56221450946934 L 109.29107996862847 124.64890263211602 L 108.0297607556035 122.85691756981139 L 106.89235603333272 121.246117674352 L 105.08833478529544 118.86608931816083 L 103.6590053095799 116.96358148232896 Z" fill="black" />
<path d="M 116.60371938361574 129.62333400075008 L 118.11732931845201 128.6638909937563 L 119.48249457034274 128.13591861338986 L 121.60033606339262 127.25024548444969 L 124.10930404464925 126.2271274706576 L 126.86395208213159 125.06230039956665 L 130.32331846953164 123.69479181498659 L 133.86626154802173 122.37330343535722 L 137.86706619914406 120.99171795116486 L 141.95259447977642 119.61685312575526 L 146.17175678371567 118.38574877105927 L 150.2684945323585 117.27039822274183 L 154.61497076706678 116.22147572392505 L 157.94797602407647 115.54850491435327 L 161.3027936088704 114.96780595718205 L 164.50759914167014 114.43026038942166 L 167.45075355132042 113.95352902669596 L 170.0555120682479 113.53746207992974 L 172.80539706275874 113.17487646570196 L 174.62212187496203 112.97644559335097 L 177.60992301214588 112.7211235890811 L 180.2979571064469 112.60486123600705 L 182.625732421875 112.61508297920227 L 184.13831609051996 112.63925251257336 L 185.49159956909253 112.7057752461966 L 185.60790571766722 112.99856759968148 L 185.73496640325493 113.56794041143316 L 185.67258363007656 114.7972912555413 L 185.56103310178233 115.88213495636941 L 184.89837341526894 117.38328595299144 L 183.37707374322818 120.52961469749404 L 182.10049824995187 122.923206104466 L 181.39998339327914 124.26413072230247 L 179.00494075851466 128.37570762609838 L 177.66590328657878 130.94485589362654 L 175.94585374047236 134.3239166592963 L 175.15671072801052 135.93417206198424 L 178.21120919386448 137.57376250832826 L 179.11457106421514 136.0309417391412 L 180.95958499467122 132.80355719231096 L 182.53741763992284 130.49294471765162 L 185.03983594265836 126.44656263707253 L 185.92379374223563 125.134899364284 L 187.42004539739682 122.64873002906846 L 189.06769103785606 119.33875994544606 L 189.98950400759267 117.16132207488059 L 190.27407164336094 115.0680651897712 L 190.21168887018257 112.74394923700434 L 189.15039506358278 110.41049001750602 L 186.88999222778247 108.7263536600534 L 184.28209406573004 108.54263225305164 L 182.625732421875 108.56680178642273 L 180.2000897685531 108.57702352961795 L 177.34246956597912 108.7110053171689 L 174.24445527347547 108.98119600821153 L 172.35207364036626 109.18315576086054 L 169.5563043380021 109.47120491225776 L 166.90349449555458 109.73079714517904 L 163.90487644426736 110.02982261839084 L 160.6277483833171 110.41818037094295 L 157.14052495248603 110.88850680439673 L 153.59547845168322 111.54182994013745 L 149.0833121082665 112.59495822257067 L 144.86156841159683 113.73180493987823 L 140.51017407491108 115.00314199143224 L 136.27722091023094 116.40598712696014 L 132.21161931135327 117.92723367401778 L 128.62443543671836 119.35843084126341 L 125.09771783974341 120.76863221762085 L 122.30671158035075 121.9811244824674 L 119.81018639754488 123.06005724992531 L 117.67876031246976 124.02619076161014 L 115.76694802529799 124.94963439686872 L 114.11161264763426 126.61775486643744 Z" fill="black" />
<path d="M 129.34088565919214 162.32898390371227 L 131.3616952361321 162.17293851139317 L 133.0790874748301 161.6206244789489 L 135.1927259708758 160.99117323513417 L 137.7774518687845 160.14558466328052 L 140.61015673200782 159.23755476472286 L 143.92312105735317 158.16728613739704 L 147.6427870444753 156.89353125440374 L 151.33232669813458 155.6148942146247 L 154.95179588078813 154.3165727779903 L 158.79575681854377 152.9261786478207 L 161.7873334827981 151.8710083143874 L 164.52458609089635 150.93110932988748 L 166.76567864490985 150.1350786574857 L 168.70709058364875 149.53416873761861 L 170.4359836870525 148.92496181935834 L 173.74354286745822 146.55160849770604 L 172.10846708085214 143.08608047114063 L 169.23186495039786 145.06113632573437 L 170.22557334347928 145.42434365073146 L 168.923757523885 145.40328525095416 L 167.62774828353875 145.71998165300639 L 165.60797858165265 146.1700971237643 L 163.23969613566615 146.82548246698752 L 160.4312944468894 147.6122680528001 L 157.33705568145623 148.5340264303043 L 153.40269630671187 149.7711957766972 L 149.74799556749042 150.9753157463128 L 146.0553330727122 152.19912011278376 L 142.35678616920933 153.42780663604046 L 139.07978467424218 154.48461320402714 L 136.2227922718405 155.40336553203198 L 133.6579820369367 156.28446153049083 L 131.5583636970449 156.9813042319886 L 129.8547354279304 157.60513766048183 L 128.16643855955786 158.62523972910023 Z" fill="black" />
<path d="M 162.50739641112898 129.6847819549267 L 157.60350046977518 126.01365722213201 L 157.76722779939337 131.84307188370798 L 157.93745205951382 133.54157172630147 L 158.18935814488242 135.63622602180752 L 158.42098250855068 137.9529229959641 L 158.60441833873628 140.54569758672008 L 158.73051254557515 143.60605604405887 L 158.8081405496664 146.71146723344248 L 158.85051173819681 150.284719179641 L 158.8214910030365 154.358642578125 L 158.82401394844055 158.762939453125 L 158.83782520384898 163.26509724847102 L 158.67806802238994 168.15992774388093 L 158.32139318604175 172.154476976608 L 157.92567845864255 176.0075869839085 L 157.51580409205857 179.49585340942772 L 157.17966721661392 182.75432562526805 L 156.87119436247949 185.5990385092477 L 156.53429307274934 188.42791408298507 L 156.34191680703893 190.17086020129005 L 155.97616893309603 192.70249795707164 L 155.5227707222605 194.24213181410127 L 155.1215734662249 195.09133734169214 L 154.70837354739712 195.10896213212666 L 153.82523056177982 195.28087671061036 L 152.7026455018903 194.6589389661156 L 151.01225525762968 193.48740817653425 L 148.83539678123483 191.593220928217 L 147.15210519980982 190.01705828100654 L 145.29007410434238 188.17964621485547 L 144.07926727939633 187.03449378497825 L 141.69648955654117 189.54900230877175 L 142.86239171597012 190.65604714451953 L 144.67345632362768 192.49722394555596 L 146.30315302345267 194.2242839545955 L 148.48359435174532 196.40907619846575 L 150.3582675840472 198.0152553698219 L 152.65670303197018 199.49536840657714 L 155.48266649166538 199.54216091474834 L 158.0943689165876 198.50876031455786 L 159.6737624808645 196.05474318589873 L 160.40871876221647 193.64051962105336 L 160.83520721639857 190.76688393933495 L 161.03894911475066 188.95636326076493 L 161.38625192658301 186.1297212563773 L 161.72597243182358 183.29389214816945 L 162.18207188450393 180.09606553588478 L 162.70847681479495 176.6025204379665 L 163.21303064208325 172.6730376718295 L 163.64859213386006 168.48460350611907 L 163.88495311646352 163.36966837652898 L 163.89876437187195 158.762939453125 L 163.901287317276 154.358642578125 L 163.87226658211569 150.2495825781715 L 163.8066055440836 146.56575444624502 L 163.59614761067485 143.33998887781613 L 163.32612365345122 140.21931706171742 L 163.11344131957432 137.5319402852859 L 162.84091529261758 135.09399858756748 L 162.55266024517368 132.98455132057353 L 162.32676634123163 131.12958436629202 L 161.05006398334982 128.7760156294305 L 159.17107038574602 131.3109455841358 Z" fill="black" />
<path d="M 114.34577491277308 171.78770510949366 L 114.57404911914988 174.09095941763374 L 114.36662278229724 175.56230259381482 L 116.83310853963319 175.57008967541196 L 118.49705012791432 175.58498036382426 L 120.38713608607529 175.53004649832602 L 122.40674850879056 175.46589337219152 L 124.54294792627664 175.32992657975728 L 126.78663931854916 175.18382317430226 L 129.14130230770226 174.88514163038496 L 131.65858338045717 174.58446820420028 L 133.89506078931603 174.27705797343876 L 135.9473176024225 173.89433600610704 L 137.83421239819677 173.56535431108816 L 139.759489804254 173.0742264048149 L 143.60224050915585 171.37320604393017 L 142.02947335803165 167.64864454200733 L 138.345978945746 169.1257247670601 L 137.10231103930323 169.28523162641184 L 135.280099389765 169.48176262670546 L 133.26314233568397 169.74967542499874 L 131.14231993985533 169.96777788954972 L 128.61809710636024 170.19261715867754 L 126.36338509551334 170.44447272413524 L 124.24977668309836 170.54861345930522 L 122.17271926464694 170.68791522155848 L 120.23115004673721 170.74888416573648 L 118.41212955958568 170.81907237055074 L 116.76308286661681 170.83396305896304 L 114.08003249114026 170.96687221087268 L 110.59562861522512 172.83860601205376 L 113.84880516535192 175.54225094519384 Z" fill="black" />
</svg>