<svg xmlns="http://www.w3.org/2000/svg" width="300" height="300" viewBox="0 0 300 300">
<path d="M 113.58206652095517 96.66878876933163 L 113.58373018126673 98.41389577468239 L 113.56659416134552 101.00936654679673 L 113.52418340910936 102.63254815385818 L 113.08015237506615 104.63728529620832 L 112.49436478130988 107.07151098922652 L 111.80265609372782 109.41237905851284 L 110.89853976053585 111.96182184905997 L 109.81620697219167 114.58279890504005 L 108.59230742936391 117.20846446917383 L 107.26861582968262 119.73357829757646 L 105.57248657268134 122.36619705185294 L 103.98241654055687 124.3981612075377 L 102.17728933340415 126.27341446888121 L 100.2840470299312 128.03695485041516 L 98.35213822898928 129.59652878041766 L 96.3172547686597 130.94817109494187 L 94.18230344316663 132.40979612836563 L 92.56328860926872 133.13621549226295 L 91.08593105264912 133.83887225985035 L 88.90264110454547 134.61049883283198 L 87.69333179540932 134.38525757103875 L 87.16933910302818 137.79638305396125 L 89.38105030170453 138.09665448748052 L 92.34729648641338 137.16662090421215 L 94.03888424229378 136.41786165617455 L 95.98493288495837 135.56774293413437 L 98.3513243329028 134.00141386599563 L 100.52969770851072 132.57534621958234 L 102.7030135169438 130.83169749333484 L 104.77095285409585 128.9166490076813 L 106.78296431881813 126.8380448471498 L 108.61391479450616 124.51576095595956 L 110.48284901406738 121.61798420242354 L 111.93198456282359 118.86294666363867 L 113.22883697312083 116.08333879027245 L 114.37917020040165 113.29904240875253 L 115.34761246095968 110.56833383211216 L 116.09633346087762 108.02944115921098 L 116.69890035930885 105.45878403972918 L 117.19114862214064 103.10927313520432 L 117.25677009646698 101.05386587507827 L 117.23963407654577 98.36918528000511 L 117.13326551029483 96.56082548848087 Z" fill="black" />
<path d="M 116.67677723077777 123.35365488175322 L 117.95789314192061 125.44982714987606 L 117.75585007104978 126.25441822910349 L 116.93279175829288 127.35885235015226 L 115.30355177171558 129.91361398752704 L 113.99554599747094 132.05386760519195 L 113.15746409654456 133.25581819166575 L 112.22133886495678 134.66533509158162 L 111.11316739737708 136.3631404466697 L 110.02430061197974 137.94957895207008 L 108.75163611184787 139.61058436952706 L 107.32957595156522 141.40911147807415 L 105.77342704455914 143.23693858214816 L 103.97713524659991 145.02698650981577 L 101.86263351943651 147.15693958492494 L 99.9094522674223 148.796865499667 L 97.79856787123995 150.47577525652486 L 95.64764580725083 152.02915335402247 L 93.42044628512465 153.5045081129602 L 91.26006188385544 154.7364379837967 L 88.94386908404984 156.0538215219117 L 87.45704105725734 156.7969534820597 L 84.96350054509344 157.74276872062188 L 84.25634544805838 158.08895594372328 L 83.74746967445878 157.291030128657 L 81.21224712241622 159.584214011968 L 83.08008033319162 161.41385167346422 L 85.93798871271906 161.23452620125312 L 88.84605952868016 160.2034127288778 L 90.67221978313766 159.3700066030883 L 93.10944495208206 158.0598266646408 L 95.41439258206285 156.7893151292273 L 97.83257880212417 155.23671578660253 L 100.14698876938505 153.61199329816264 L 102.3934041778902 151.862558328458 L 104.54544753525099 150.07413951663756 L 106.78824561277509 147.84984454487173 L 108.70106026012836 145.96130360535184 L 110.42188889218478 143.96039535786335 L 111.91669884908963 142.08033359922294 L 113.27281852864526 140.31299429011742 L 114.45262850106042 138.5962101392678 L 115.57712304910572 136.86567076779338 L 116.47754566908044 135.49747770677175 L 117.36797939315406 134.19698688699555 L 118.68875779859692 131.98299245778546 L 120.22846312451962 129.40774921234774 L 121.38599563207522 127.35910716152151 L 121.32799552995439 124.33496288918644 L 119.58420909734723 121.55137441512178 Z" fill="black" />
<path d="M 105.52843808805581 147.32812699369236 L 108.10300598504105 150.0185544530083 L 108.82177255718305 150.9987719335028 L 109.66711921426484 152.5087638133953 L 110.50981025794809 154.72962690542175 L 111.15100440603558 157.5458813371605 L 111.45844279278454 159.20942675136348 L 111.70517425864081 161.00769542132528 L 111.836496109416 162.97120299225475 L 111.95780716665125 165.3480376039405 L 111.95706391334534 167.40887451171875 L 111.95994114875793 169.573486328125 L 111.96307063102722 171.68804931640625 L 111.97481162460909 173.66520785833637 L 111.87082863349175 175.3792590477327 L 111.64458254593555 177.13051370100064 L 111.0479417782362 179.92848129004676 L 112.02188489168468 180.188112624356 L 112.4893732164644 179.6030401632258 L 109.3673162366606 180.9147821023992 L 111.27523424894032 183.7580543678315 L 114.5178541202013 181.36509781151574 L 115.36164304000195 177.85691305681186 L 115.67555808525825 175.7794323585173 L 115.82365028945341 173.78987026666363 L 115.83539128303528 171.68804931640625 L 115.83852076530457 169.573486328125 L 115.84139800071716 167.40887451171875 L 115.84065474741125 165.2405854429345 L 115.709890609334 162.73765931243275 L 115.55312652260919 160.62218739117472 L 115.29570759784046 158.59172070957402 L 114.91894188302692 156.701799326902 L 114.11970634361441 153.58726762582825 L 112.98180656698516 150.9283699756672 L 111.84656240375445 149.0100171289972 L 110.72878112433395 147.6129152735542 L 108.00976991975669 144.89806929537014 Z" fill="black" />
<path d="M 144.7312837181178 93.20463019773345 L 143.08013429934556 95.85895496736961 L 144.9640907360479 98.84588493929029 L 146.82559906335925 100.46403893493195 L 149.7095408748469 102.7067195287114 L 152.4082391629211 104.68071379935829 L 153.94517858764613 106.15814699963114 L 156.38990442016637 103.81280026599386 L 154.7578985323914 101.98701081001671 L 152.0189747501531 99.7569035181636 L 149.24923003820325 97.52021399475555 L 147.7977500842646 96.23553595914721 L 146.90887937252944 95.51885264981789 L 147.4903959693822 95.79585808351655 Z" fill="black" />
<path d="M 131.52842750863695 113.01251174663658 L 128.80063836732043 116.47950997914126 L 132.62408071357436 117.34858842820962 L 135.78334944973514 116.86182292265838 L 137.61622487434533 116.5543308224876 L 139.7543791298148 116.09839220793283 L 141.78482923905935 115.7047169397315 L 144.00766048626858 115.2322222903707 L 146.4674110564134 114.636707886024 L 149.10928383378442 114.0088943178997 L 151.81362046374548 113.32487614136755 L 154.85289178731043 112.54127136001959 L 157.47578440558615 111.82966203767745 L 160.1830911888017 111.11888062917782 L 162.75392116244922 110.41955029270586 L 165.11686514835722 109.775104401805 L 167.21044890914595 109.2094280312628 L 169.28200100622968 108.6446443919681 L 171.63207023305534 108.09998933064975 L 170.89661629038216 104.77378996622525 L 168.49326754845782 105.2801602955319 L 166.35156280960405 105.7664020468622 L 164.23188973445528 106.251751066945 L 161.84141575161328 106.80847705104414 L 159.2627095924483 107.41041624582218 L 156.53239430535135 108.02592878263505 L 153.89771856425207 108.64061340560541 L 150.85117445812952 109.30842463988245 L 148.15389975996558 109.9256759946003 L 145.5021934357741 110.499034301476 L 143.06448306841892 111.0796673580668 L 140.93001451094065 111.5330760290185 L 138.8912507529977 111.94018201081717 L 136.78013743034217 112.4101467165749 L 135.04794937838986 112.75328938202912 L 132.26544565361314 113.31754926710288 L 131.62355596861707 114.06150564585874 L 132.46083030386305 116.60260055805092 Z" fill="black" />
<path d="M 138.10787107486965 132.37648955824307 L 138.9046214854022 135.99359196882907 L 143.56914231134908 136.33895617805143 L 145.57469900226246 135.7767219274571 L 147.49692236441638 135.00913469122037 L 149.6598696360979 133.96972721660273 L 151.89169703969242 132.69281009657283 L 154.49747946252847 131.2200771296094 L 156.82962544298888 129.73918875935368 L 159.25574131655813 128.2678022751659 L 161.60563531159104 126.71476804670073 L 163.9395707599029 125.31609452864363 L 166.10109199686875 123.93490531077788 L 168.3456106367444 122.5037691351607 L 172.8655481643194 119.81857965865429 L 171.1035680466181 116.77834416947071 L 166.5127878007556 119.3733060601518 L 164.14793144063125 120.69485543140962 L 161.9521528729096 121.96625410416887 L 159.53267035247146 123.32026613298677 L 157.12914637875437 124.8202104201466 L 154.69381205701112 126.22663155314633 L 152.38057229528403 127.64857521414062 L 149.83681858530758 129.07867427842717 L 147.7113461842146 130.30419856464727 L 145.80507958870862 131.24171980096713 L 144.16223947430004 131.9255485803554 L 143.25092604802592 132.28921765007357 L 140.6412769520978 132.50945978898343 L 141.83414552669285 132.82333954331943 Z" fill="black" />
<path d="M 149.75610266286617 119.18850002397195 L 150.46713767352307 120.29055509319481 L 151.25533590691964 122.45747124513245 L 151.7212419648495 124.08025859367534 L 152.15354133794915 125.96535251812695 L 152.46240264605936 128.42208068288483 L 152.78151787491473 131.31541895997213 L 152.9764941997378 134.63223228876427 L 152.98335790634155 138.4681396484375 L 152.99475145339966 142.8223876953125 L 153.0085876850758 146.72577903422587 L 152.83229262962314 150.56542195194157 L 152.41097803030502 154.38350709688572 L 151.96840002080177 158.04282302847406 L 151.46479209459443 161.44867418224666 L 150.94355876819432 164.99729246418556 L 150.55997873033175 167.43469218999138 L 150.24474422615828 169.55373688858037 L 149.99256459053632 171.35406724710595 L 149.510654244583 173.77075193256644 L 149.16154234306498 174.86802059118304 L 147.47378099830613 177.73829547117217 L 151.97515937661072 178.53244373409657 L 155.93385405887216 176.25434057432497 L 157.580488511898 175.19374962996548 L 159.58783706472997 174.04785628606845 L 161.84407944336766 172.74809066060445 L 164.22867836243321 171.52278164653532 L 166.80669190084038 170.22505893918392 L 169.76080772798144 168.90111799338018 L 172.1627493440547 167.85993295211213 L 174.60735190968884 167.00310655096317 L 176.8420202807658 166.18963757394584 L 178.89522568857842 165.59610160014793 L 180.85445150836532 165.108590638027 L 182.7469835065079 164.68369353066743 L 184.86221861980198 164.5374028221774 L 186.02300933881597 164.96587822547687 L 187.40289398149653 161.66888739952313 L 185.39473938801052 160.7710688575101 L 182.3604383684921 160.77492463339507 L 180.03971353069718 161.125784361973 L 177.89371474110908 161.56417672016457 L 175.5896203442342 162.14678820730416 L 173.21491371531116 162.93488173028683 L 170.6180123746953 163.77971548538787 L 168.01446082670606 164.84058122536982 L 164.91877196634712 166.16922817019108 L 162.20320640319179 167.49906893940218 L 159.69034438475734 168.77620133158305 L 157.33721176339503 170.12902359674405 L 155.239335706852 171.33542517472202 L 153.60899262081534 172.40190942567503 L 149.89739921713928 174.60317638309093 L 151.37387525169387 176.57347210695283 L 152.31489808662252 176.94130558069196 L 153.154140677292 174.73535158305856 L 153.71654185477618 172.02203138570655 L 154.00452335196672 170.11874846298213 L 154.33748220716825 168.03369159907112 L 154.74613849743068 165.59133058268944 L 155.30522743665557 162.03301527087834 L 155.84593103388573 158.58217697152594 L 156.33963232125748 154.85929075467678 L 156.81858627662686 150.89478312618343 L 157.0384093852367 146.82671120014913 L 157.05224561691284 142.8223876953125 L 157.06363916397095 138.4681396484375 L 157.0705028705747 134.52145423467323 L 156.86936103133527 130.98157811034037 L 156.54028290081564 127.94413025461519 L 156.20095084955085 125.27085353656055 L 155.6969709257755 123.05194355476216 L 155.11856546026786 121.12126410643005 L 154.03420509991443 118.40841951618019 L 152.65661706369633 116.88291110884055 Z" fill="black" />
</svg>