<svg xmlns="http://www.w3.org/2000/svg" width="300" height="300" viewBox="0 0 300 300">
<path d="M 97.39084682725272 116.59945218762768 L 99.05176035057121 117.05794931829973 L 101.61956787109375 117.12435674667358 L 103.40363074047741 117.1448179822953 L 105.64455545097616 117.01470418891955 L 108.13323381325223 116.6057716544978 L 110.87020673421922 116.13565129035314 L 113.85356206545607 115.53160380481772 L 117.25570930547322 114.70968240884633 L 120.28372236184546 113.94307787753438 L 123.20559730333956 113.03677382292126 L 126.04038377929565 112.21019042375507 L 128.6651589229063 111.37307964533169 L 130.9868955622639 110.66071302011703 L 133.32421291744978 109.87432385884186 L 135.91918052931229 108.95279482780786 L 136.49950408680397 108.86545627792395 L 136.20435333507103 105.18447047988855 L 134.91211829881271 105.24727841437964 L 132.10547458255022 106.15253160990814 L 129.8334169377361 106.81755846425797 L 127.50976783490621 107.43148578435581 L 124.87697461914185 108.17091309186993 L 122.02206382947294 108.92086777864124 L 119.14620927877954 109.74124829434062 L 116.23244987421428 110.42605977865367 L 112.90058832516893 111.18067646861978 L 110.05020342203078 111.75277644402186 L 107.38556501487277 112.2085594001897 L 105.12082540839884 112.60040811576795 L 103.25652550952259 112.7205384630172 L 101.61956787109375 112.74099969863892 L 99.18188222755379 112.80740712701277 L 97.67385043837228 113.01566011705982 Z" fill="black" />
<path d="M 120.34358263015747 113.618896484375 L 120.13063961560513 115.5156377647463 L 120.78542063914215 120.02221719750514 L 121.07999269444696 122.20609451939512 L 121.38361349398227 124.84999962501757 L 121.64005339693296 127.90104684324773 L 121.89948982666438 131.22609889927026 L 122.08609732736743 135.05181726065848 L 122.13825438377334 138.50760348698503 L 122.2105979022492 141.9817967178339 L 122.2163519859314 145.38739013671875 L 122.2241723537445 148.552978515625 L 122.23305654525757 151.51837158203125 L 122.24556300134482 154.56993724266437 L 122.13938399547578 156.64491523644708 L 122.01394737187573 158.54262948081544 L 121.71538132786591 162.83415587618828 L 121.70347183799144 163.00257329550314 L 125.50478011513356 164.28282709512186 L 125.88898878932159 163.27509705349922 L 126.23861610468677 158.85812735512206 L 126.40126541858672 156.92710624792792 L 126.54716160803018 154.67286060889813 L 126.55966806411743 151.51837158203125 L 126.5685522556305 148.552978515625 L 126.5763726234436 145.38739013671875 L 126.5821267071258 141.9362941024786 L 126.51042725685166 138.42867580988997 L 126.45455208669507 134.90265051277902 L 126.24504142333562 130.94577610072974 L 125.96431672025454 127.53926077393977 L 125.68059549039273 124.40927771873243 L 125.33602293055304 121.64790938685488 L 124.98240162648285 119.35241659155736 L 124.16074222033237 115.0253778602537 L 123.94779920578003 113.618896484375 Z" fill="black" />
<path d="M 125.51939606588313 142.8287335186295 L 127.61006671805113 142.36949186996023 L 130.06829096711755 141.32273078100803 L 131.4947872347218 140.6297208890125 L 133.06495630859968 139.9354836659092 L 134.83321864698644 139.075380159804 L 136.21887801072322 138.32609913634502 L 137.6696535253963 137.687141408825 L 139.9785571705902 136.46809407163795 L 141.7615180209618 135.39159832970978 L 140.0530571743507 132.31067217810272 L 138.2709545481598 133.21110514711205 L 136.0785154199162 134.24425507555 L 134.61242081740178 134.78144480896748 L 133.11722080613856 135.4835798011335 L 131.42845189452532 136.2000143809658 L 129.8296756559032 136.832071103175 L 128.37531254850745 137.46535515649197 L 126.18815105538637 138.39552277847727 L 124.46168303567937 138.987306520433 Z" fill="black" />
<path d="M 110.45250423834662 136.60979008489716 L 108.12286728554683 138.35090878447025 L 108.43024921806239 141.4524807848101 L 109.08494992567421 144.5341339806365 L 109.40030951826255 146.46327913094248 L 109.80011310482921 148.67562766115537 L 110.14424385186996 151.0543364732742 L 110.4954865526381 153.76023310640997 L 110.72533202922854 156.15687949961568 L 110.96191175491798 158.6294976312385 L 111.12724365986267 160.95824565488937 L 111.24302525849471 163.2101428398213 L 111.28552310384414 165.32487877650686 L 111.40442922623009 167.49697228500574 L 111.43127274513245 170.2991943359375 L 111.44679772853851 172.21356201171875 L 114.91123449802399 172.21356201171875 L 114.92675948143005 170.2991943359375 L 114.95360300033241 167.44589880874426 L 114.92846615396836 165.26374427036814 L 114.97096399931779 163.1493542304912 L 114.94270262919983 160.79675922792313 L 114.85595933883202 158.370868579699 L 114.69642090045896 155.83860389882182 L 114.5301482129869 153.35548954984003 L 114.23319755438004 150.5309906751633 L 113.89312419985829 148.02993874509463 L 113.50069145829995 145.76291715812002 L 113.16785769151329 143.738204886551 L 112.49016093818761 140.6138033948774 L 112.00530654257817 139.63639590302975 L 112.34046451165338 139.80097651666534 Z" fill="black" />
<path d="M 104.22381472275728 174.8816827466862 L 106.03346206357716 175.11851296248017 L 108.88448166787269 174.3976954839348 L 110.6134918847179 173.95232219512377 L 112.61542645214341 173.4148980479485 L 114.96059419090255 172.73046150320042 L 117.75404927547501 171.83866429429457 L 120.45443318168766 170.93732142551318 L 123.3689583584066 169.96024972014678 L 126.35037924585015 168.90508718971978 L 129.1554276781815 167.841433387585 L 131.83502827092656 166.85787406296842 L 134.59845531582693 165.83679324795162 L 136.56964053744593 165.04195278600886 L 138.28858829753344 164.3898737958866 L 141.86424137207499 162.9649402761725 L 140.59852718261251 159.7159679269525 L 137.04405330402906 161.0687443681759 L 135.34198055630407 161.59281283899114 L 133.35198413729807 162.24938839267338 L 130.56975688532344 163.08011421828158 L 127.811735407756 163.9233371202275 L 124.96309731664985 164.83661202903022 L 122.0027457431559 165.75837820954072 L 119.08353068549984 166.63311314479932 L 116.38230326358749 167.45845484633043 L 113.63010405128495 168.26831779367458 L 111.36589679004409 168.910175194239 L 109.4066497168446 169.42377643768873 L 107.67862868368981 169.9043064691902 L 105.12803695986034 170.63490500626983 L 103.91278195693022 171.1219793626888 Z" fill="black" />
<path d="M 165.74058863899032 93.78436795868075 L 164.069511018059 95.08020085662586 L 162.80212371772714 97.25244618724635 L 161.67312655724692 99.67754672334605 L 160.94237632592615 101.29449643901673 L 160.02487470484382 103.21909763771293 L 159.016462813818 105.20816346987314 L 158.0207105642288 107.34629493460228 L 156.88959206588524 109.48305273579534 L 155.90023363139022 111.44939531961039 L 154.89663683920418 113.31857695695723 L 153.37671810863677 116.44888912951014 L 153.0045843267421 120.5625871977895 L 157.22744084008744 121.22506702520435 L 159.63088308551232 120.23360367679672 L 162.21853920594197 118.89999609071054 L 163.68847477135137 117.98563676894665 L 165.20419967913762 117.15667638729994 L 166.70356339567124 116.2258394748136 L 168.50554970357433 115.24819174731306 L 169.9722882134872 114.46107477825511 L 171.60739331240913 113.68337021629021 L 173.15029229301794 112.9147301219009 L 174.61988381831054 112.29988197118513 L 176.1079962423064 111.78352785072451 L 177.56327008330274 111.1954439015081 L 180.88002918099878 110.70915703532258 L 181.38509663116363 110.19297383594034 L 181.00544417747707 111.59157204425127 L 180.41502672765355 113.17355090614733 L 179.28644636686178 115.37943660898473 L 177.89516755619525 118.00755397591837 L 177.1383490445546 119.48637003227573 L 176.2735301530508 121.22921544686325 L 175.52449371848513 122.81539080914729 L 174.7098878940246 124.4973872295244 L 173.88188173907835 126.403101178214 L 173.07069520601868 128.42511814060842 L 172.21637197423146 130.6014917168412 L 171.22080389642355 133.19212702352738 L 170.36063557528786 135.48350407396697 L 169.37227909306657 137.98094003991392 L 168.30144620466615 140.7824634477 L 167.2581956053382 143.6100825199297 L 166.1314212080019 146.56386659930928 L 164.8217244584754 149.99850587331517 L 163.78024935271452 152.78295976163943 L 162.802630087044 155.48507296628915 L 161.88228038467005 157.94172715720973 L 161.1021356863772 160.26872887293 L 160.53542872454693 162.2958532637717 L 159.93391962373468 164.36274297246504 L 159.30017964248992 166.912077722782 L 158.89899391528903 166.713125931135 L 160.00664573314847 170.331795943865 L 162.63036234969758 169.2069408319055 L 163.86918096220282 165.57524530878496 L 164.56405858014057 163.5381311112283 L 165.1857061104978 161.611398080195 L 165.99003406845495 159.45902967872777 L 166.942242959831 157.03592312746085 L 167.94521451447298 154.33276289461057 L 168.9923624555871 151.58682127512233 L 170.3114498857481 148.16477109600322 L 171.4533522462243 145.1877690425703 L 172.49872469377135 142.359870536675 L 173.55252559443343 139.60597402258608 L 174.54475993252464 137.09852717603303 L 175.41310723638895 134.78541203897262 L 176.39812997889354 132.2210180487838 L 177.23631162991882 130.06816799220408 L 178.00959775310915 128.111303118661 L 178.7660642544129 126.3384282001631 L 179.53593108620237 124.71720196429021 L 180.2633350813242 123.15030115469925 L 181.0910210726329 121.46480184272427 L 181.81064299067975 120.04078586783163 L 183.19219132845072 117.38875186757777 L 184.44031995203395 114.86502331260267 L 185.29033218971043 112.09275412762373 L 184.65860454071137 107.68568827343466 L 180.66232921743872 106.76911444905242 L 176.70491839325976 107.3338529734919 L 174.7391717264436 108.07206296958799 L 173.20238180668946 108.60673423975237 L 171.50302801948206 109.3181800343491 L 169.87698168759087 110.12607802589729 L 168.1990985052628 110.92491154986989 L 166.64093467142567 111.73935708081194 L 164.73381453401626 112.7386380642489 L 163.20827590679988 113.63458337832506 L 161.69909847083613 114.40718549667835 L 160.25216391905803 115.19448633116446 L 157.83432687542518 116.36332015132828 L 156.13254451147506 117.09854137323315 L 156.5382623529454 118.1363874115855 L 157.35448306323823 118.04598391736486 L 158.71542370767082 115.24550995710527 L 159.69241773579728 113.41107831320211 L 160.68365012161476 111.42356347514216 L 161.8212083810837 109.20607322946022 L 162.806046951807 107.01498106137686 L 163.77822588109368 105.02516505759957 L 164.69727211157385 102.99590883442077 L 165.40695156775308 101.33466030790395 L 166.40258819633536 99.00512217212865 L 167.115791716316 97.49877863556164 L 168.07349827507218 96.66753633819425 Z" fill="black" />
<path d="M 158.45935622058025 141.88448274612853 L 159.35425814887265 142.0582804621006 L 160.70217889879493 143.17117291217096 L 161.77269497722034 144.09926096146245 L 163.09684616223507 145.23980178121442 L 164.73198722377714 146.77685151876057 L 166.32487347811175 148.37079272575014 L 168.1392671930098 150.24143044545187 L 169.93723748234234 152.21604950192943 L 171.71276141548893 154.35592275414803 L 173.49596301372972 156.3815604612898 L 175.33011031254682 158.64365218614265 L 176.79293469923655 160.39255311636745 L 178.09316503337902 162.05153254037512 L 179.29774508148236 163.61727005127716 L 181.28471252542158 166.2036905166443 L 182.80855061350954 168.2108030527906 L 183.94866104011584 169.15872986614593 L 186.70441513175916 166.18453185260407 L 186.11600993336546 165.5308961659594 L 184.86702087301592 163.5841512802307 L 182.89280667633014 160.91544479247284 L 181.72067774005848 159.30308171743738 L 180.39212389451345 157.53371641488255 L 178.93807816401568 155.72915054823235 L 177.09912975970778 153.3867500855852 L 175.31726788138607 151.30838388647697 L 173.52772833797016 149.11903350588307 L 171.6165921819902 146.98964865611063 L 169.72187945157575 145.03155102424986 L 168.03778816684786 143.34729398905193 L 166.25190872057743 141.70624314066058 L 164.80323275715466 140.49448903853755 L 163.49703985120507 139.44564837689154 L 160.88377896050235 137.7808308660244 L 158.32164963879475 138.07975065230897 Z" fill="black" />
</svg>