<svg xmlns="http://www.w3.org/2000/svg" width="300" height="300" viewBox="0 0 300 300">
<path d="M 106.8951416015625 141.44346117973328 L 110.1361083984375 141.57086420059204 L 111.95053236229548 141.5752023718527 L 114.39240905187644 141.50516272613416 L 117.1479313624446 141.00185726934697 L 120.23172350979394 140.30398019961578 L 123.14559188419513 139.5364264903388 L 126.05805686240731 138.61170068025478 L 128.83219054195777 137.61229433019045 L 131.28104076163365 136.5461022149221 L 133.29376364097976 135.56911873867753 L 135.45620574027078 134.44154338539042 L 137.41971188583736 132.54628529693278 L 134.99605959853764 130.02598032806722 L 133.39450226754172 131.55906696617208 L 131.73980569495774 132.28329825350997 L 129.79134693367885 133.1330970038279 L 127.48677918460473 134.04383359949705 L 124.85930153603019 134.89623389005772 L 122.08206924861737 135.6981926502862 L 119.30624035739356 136.35703054257172 L 116.3402278172429 136.98544741815303 L 113.94621399499856 137.40804528167834 L 111.88674791114202 137.4631277062723 L 110.1361083984375 137.46746587753296 L 106.8951416015625 137.59486889839172 Z" fill="black" />
<path d="M 124.13514684430386 123.50984755719199 L 119.47880230469951 123.80545083233025 L 120.42434382693399 128.46061686978078 L 120.85397220222693 130.0206847111086 L 121.35050105330096 131.75638092055615 L 121.84940474087539 133.926934636818 L 122.42814576025239 136.6290073657084 L 122.95826826386254 139.74602101892094 L 123.54415843416315 143.30830393912038 L 124.06058993401173 147.55616755503544 L 124.50439326550269 151.4685912479158 L 124.8191328819109 155.4309662526261 L 125.08775495542781 159.4272508252485 L 125.29669375290044 163.34565312120876 L 125.43251070297225 167.00172552027146 L 125.5039271709068 170.84778986893727 L 125.50380229949951 173.6024169921875 L 125.50380229949951 176.1048583984375 L 125.50380229949951 178.281982421875 L 125.50682280519258 180.2173402782492 L 125.44328838595084 181.85480880689136 L 125.34243992218825 183.5254785857008 L 125.04211222075871 185.12722151313548 L 125.09344551767538 185.53698635141453 L 125.66332039590284 185.62854932707896 L 124.65892101612276 184.5226262653989 L 123.69483068983301 182.29099155968404 L 123.3191007207956 180.85329647943567 L 122.93424872030917 179.02583023336643 L 122.69084178086617 177.25764906643522 L 122.42758343103827 175.21616041648815 L 122.36094540271537 173.65588309901483 L 122.30740316735815 172.15793706627403 L 122.24163631091113 169.59656889559832 L 122.2052604115113 167.1762531612751 L 122.25347767014931 165.52781825374856 L 121.64708489320576 162.19512610743118 L 117.83690058586974 161.48791761251678 L 115.31430413927981 162.40884199498203 L 113.46336560566034 163.55232014737192 L 110.58366056029752 165.606687096612 L 106.60053254783766 168.866228718732 L 104.7407142644986 170.38464220164002 L 102.77901660951756 171.80325586703262 L 101.58894263558237 172.6254081269928 L 100.15909997192824 172.70821570449763 L 100.30720862182176 176.47354699081487 L 102.69450463004263 176.4062080839447 L 104.96146190610744 175.25143163296738 L 107.2130210870639 173.79223768117248 L 109.31438444434984 172.2576726484555 L 113.25361971313998 169.0609154424505 L 115.91956896465216 167.16142496981558 L 117.23757574353269 166.32797441126797 L 118.53211796881776 165.79748277810822 L 118.97120123960674 165.24042076756882 L 118.47284068922569 165.58631748843894 L 118.5210579478637 167.2411052371624 L 118.62872501721387 169.70055024502668 L 118.70700112951685 172.26918695716347 L 118.76149112072213 173.79919502598517 L 118.83889606114923 175.54214036476185 L 119.11579884413383 177.72977769137728 L 119.37654229531583 179.64018539163357 L 119.7839266229544 181.64145449712683 L 120.20043298204199 183.48195765906596 L 121.36097644481474 186.5304743205386 L 123.77759757284716 189.25328661042104 L 127.51641776357462 188.94445896108547 L 129.04419149017878 186.45139176811452 L 129.53610011687425 184.0992772736742 L 129.68732684842416 182.09135818529614 L 129.7678353979324 180.3004819873758 L 129.7708559036255 178.281982421875 L 129.7708559036255 176.1048583984375 L 129.7708559036255 173.6024169921875 L 129.77073103221818 170.80162419356273 L 129.69810453140275 166.89012018285354 L 129.58184628616206 163.16399043347874 L 129.3946669195722 159.174677885689 L 129.1231278602766 155.1131011301864 L 128.78967411730983 151.0426392208342 L 128.29719815192576 147.04734806996456 L 127.76931812833685 142.71183766244212 L 127.16685380644996 139.04206491857906 L 126.61665404443511 135.8279018139791 L 126.00704057162461 132.999579035057 L 125.46163273576154 130.69076263413135 L 124.91385006339807 128.8479676326414 L 124.40719914181601 127.12983723178172 L 123.12007464842549 125.57894858173225 L 123.07310510882114 127.20084580218301 Z" fill="black" />
<path d="M 121.59743091340172 160.5673436569296 L 123.05236688196791 160.20695252857863 L 124.70166987462716 160.25325893112768 L 126.83449506175681 160.3383448318045 L 128.52657595074643 160.9244662958105 L 132.8659993828747 162.4561277218465 L 135.5059078731782 163.03115629455596 L 137.7066007386485 163.35900367293934 L 140.83940351654462 163.44509265474025 L 141.08320390533038 159.76132824369725 L 138.1662019957265 159.44702660049816 L 136.4057132205718 158.99911714294404 L 134.1481607733753 158.3729738406535 L 129.91702756487857 156.876681165127 L 127.50388384449319 156.1365086838205 L 124.63121586756034 156.09647251418482 L 122.42736944615709 156.41804747142137 L 120.60532787566078 156.9585352493204 Z" fill="black" />
<path d="M 147.2915232423972 113.63491804452195 L 144.3395951636153 115.56397308402248 L 147.91888315988572 118.16035340304188 L 150.34126335252918 118.00200400805201 L 153.6183315904643 117.11032410693943 L 155.4306464775441 116.56724094780718 L 157.41711113312724 115.94915526341832 L 159.5820092793279 115.26598779845938 L 161.83309676769892 114.44810938245097 L 164.17406828956987 113.63297579802413 L 166.82210186254053 112.74485195750405 L 169.0767849165405 111.92587520633899 L 171.1375099221649 111.17714628029695 L 172.98165348998867 110.47631768334061 L 175.7308343990377 109.2954555089058 L 174.49121928293454 106.41946829536091 L 173.10599045461015 107.44254516397274 L 170.92834689430308 111.37332953314402 L 169.33820207198406 113.9253861512317 L 168.57369746012282 115.39095034281756 L 167.8185899721697 116.81135309880038 L 165.87232907724655 120.76900593645541 L 165.0407303406132 123.0628309358313 L 165.11115918692917 126.9525453473327 L 169.0858110849073 127.52992698244749 L 171.49664973985466 126.60508313741471 L 173.77589476583177 125.53910410069652 L 176.07056934406415 124.67534616172667 L 178.3467644142659 124.19866991981398 L 180.97129654962072 124.1183701303862 L 181.26477829428478 124.14698532151293 L 181.28233598558194 124.59422902521345 L 181.23320647636567 127.90431382197488 L 181.086127458779 128.99183800173734 L 180.19407616588362 131.62899711382406 L 179.72779124010833 133.0681928947467 L 178.35363197357785 137.10612500649998 L 177.33983324093214 139.8610160840708 L 178.40387407608682 139.8890268554107 L 177.6786380846021 139.04108121511175 L 175.1491207044604 141.44866487863825 L 177.44878705672568 143.7788198242768 L 180.88953687625536 141.9550239549917 L 182.25244712798465 138.50386034506252 L 183.65111500989167 134.3838334724408 L 184.12110938099138 132.92019722211344 L 185.0656059396585 130.02696082638766 L 185.31464508613433 128.06150649052512 L 185.26551557691806 124.13953562322405 L 184.09471877602772 121.40867874098707 L 181.36329817694178 120.2611464711763 L 177.9020148826091 120.43109082237352 L 175.02867381999835 121.03046438514833 L 172.31785523416823 121.99348867274098 L 169.98772526014534 123.05458483133529 L 168.2933393057177 123.70627907224001 L 168.16276659432083 124.4087827776673 L 168.9173995421993 124.0693712126062 L 169.52623049306595 122.40933879010709 L 171.3971082700178 118.60942326838712 L 172.11844121175218 117.25211606343244 L 172.79436628739094 115.9399702940808 L 174.37316677757192 113.36202202935598 L 176.40878005320235 109.63533569540226 L 178.33653950612796 106.97982369682659 L 174.0720220462748 105.8054966395317 L 171.52762385376133 106.87683173072189 L 169.8067039450226 107.50229707907805 L 167.762204341272 108.20498416866101 L 165.55155536402197 108.96254550343345 L 162.90600983543013 109.77608181916337 L 160.49356338855108 110.56251073473653 L 158.2793188456721 111.32117040466562 L 156.19494941374776 111.93927247095668 L 154.2202324287059 112.52235866156782 L 152.4674838392232 113.03030089306057 L 149.55070442090832 113.84028114819799 L 147.75982777761428 113.95720030789562 L 148.2782026879472 116.55358062691502 L 148.7833058591653 116.90609758047805 Z" fill="black" />
<path d="M 164.74260827431618 116.61134896939886 L 161.15690454370267 113.85468253937805 L 159.06367229478238 117.98185956148784 L 158.64262808422288 120.99738691621208 L 158.443255950657 122.62729284787613 L 158.1741993960046 124.32136142555706 L 157.90501686490848 126.22171849241087 L 157.58318790417547 128.10688561322578 L 157.25957702154815 130.1559374810652 L 156.8828155182321 132.39246896376858 L 156.4395187035154 134.36054885914666 L 155.98863009168022 136.26492135582313 L 155.56939712100407 138.0668000673444 L 155.0686121422969 139.81091799433682 L 154.65844047690092 141.3768188099942 L 153.87653193604314 144.0254512812499 L 153.07900865537198 146.38528185180454 L 156.46383802431552 147.69272107788296 L 157.50286259520686 145.2979129765626 L 158.44946967934908 142.5412720103183 L 158.9395665686406 140.95409665410068 L 159.51910385555843 139.1447477842181 L 160.00013943956978 137.24301321448937 L 160.4855301246096 135.31865035960334 L 160.9785126067679 133.20775076279392 L 161.39398743157685 130.8397900579973 L 161.71856990832453 128.78483801958672 L 162.04493430696652 126.86629420290163 L 162.3159129086829 124.93791591819294 L 162.587017486843 123.20363976931137 L 162.78376351733962 121.53032304472542 L 163.15495563490512 118.61506426663716 L 161.96199194067233 117.73735847624695 L 161.94135168662132 119.05967153841364 Z" fill="black" />
<path d="M 159.38083977572742 133.05268188416906 L 158.08699773966677 137.04955749421464 L 162.17878501766063 136.98336435388785 L 165.62830691643526 135.48925795657902 L 167.82636653497454 134.57835838125985 L 169.94747504614475 133.7372846836953 L 172.62101489201925 132.8041485638439 L 173.01067179946654 132.1908994441016 L 172.25483601762122 131.92364428286018 L 170.63545543058504 135.3029250660274 L 169.96905943012345 136.67834577207117 L 169.3224697732612 138.06383495326256 L 168.60403859835384 139.54270209567827 L 167.90075356641682 140.90715671095896 L 167.1774205422865 142.31096275422027 L 166.48816498151282 143.77792715706326 L 164.78349835549395 146.79979659250404 L 164.22120819574664 147.8603227314585 L 162.58546059803163 148.76837909594093 L 164.24254233165587 151.89104473218407 L 166.56797637456586 150.6970503154165 L 168.09430926169355 148.85474442312096 L 169.95470611223718 145.67055917106174 L 170.741890981151 144.10956947234223 L 171.45898764452068 142.76068996872854 L 172.19613230008366 141.34743462307173 L 172.9541415548638 139.79834766392494 L 173.60393861675155 138.40612688417883 L 174.26994007722746 137.0288620433476 L 176.07157999800378 133.15106274838982 L 175.45978718490846 129.0550722355859 L 171.63618725641825 129.0924578814686 L 168.62002983666775 130.1362504725547 L 166.38383854315046 131.02186134530265 L 164.11656613043974 131.96276841060848 L 160.94011146671437 133.37149404454965 L 160.56656671345823 134.20617981047286 L 161.90150885708508 135.70061401426844 Z" fill="black" />
<path d="M 161.79563913383654 140.4371323185668 L 162.79037271885363 141.6778758780067 L 164.0072745453465 143.02399065257416 L 165.60446166670044 144.76044867347017 L 167.63495673836314 146.8066026130832 L 168.83626489524937 147.8928264447161 L 170.8111714258399 149.80235062279212 L 172.40448565506412 151.49443358263053 L 173.82732939174156 153.40671407353324 L 176.62372041294594 151.35671366084176 L 175.12969403243588 149.29011231580697 L 173.4460307225976 147.30360640845788 L 171.45975561256313 145.2592731646589 L 170.39238701163686 144.0932997306668 L 168.46170044267456 142.06047417809233 L 166.925952993716 140.36858747242584 L 165.76614583583387 139.0871387704308 L 164.78028860053846 137.9505629939332 Z" fill="black" />
<path d="M 143.08337219810286 161.80041954315018 L 146.21533977167718 166.80284815572506 L 147.4481952559743 168.73512083748864 L 148.8991416508304 170.97662416905422 L 150.35698404702748 173.2079474415931 L 151.76565859149596 175.45232275655235 L 153.24629796028603 177.6255974281585 L 154.52537679110597 179.6066323370893 L 155.8204589591793 181.37746990054725 L 157.0407003458619 183.17934929789584 L 159.90303866843877 187.22710778303127 L 161.85664675934296 182.8442614831872 L 158.63346554534454 184.1298596105628 L 162.42362148781123 184.35150549821873 L 160.2804666463256 181.01706183491666 L 159.1239990486332 179.14035236507775 L 157.89832926358153 177.3577231316607 L 156.69266688346397 175.3849006187165 L 155.25643613506654 173.20392724344765 L 153.89228353109752 170.9689324412194 L 152.4332558101071 168.69586118250828 L 151.0033428299632 166.45799439688636 L 149.71544636113532 164.43640965677494 L 146.11340514564714 159.70434119903732 Z" fill="black" />
<path d="M 155.4465411901474 169.38580322265625 L 155.3380334451455 168.2448632084257 L 156.50772159615792 167.82900700263377 L 158.98663412219761 166.8167042411018 L 160.77213137813806 166.13445088878453 L 162.95899763618738 165.37391661082617 L 165.43585729752297 164.59404759705893 L 168.30442739648888 163.6680268442854 L 171.00535983676312 162.88852516454455 L 173.62043463914242 162.2276876209867 L 176.17995925183124 161.69860316614214 L 178.54316012133944 161.3080729880534 L 180.7472024187123 161.0422774302443 L 182.93250934001992 160.89712596892653 L 185.19343427362747 160.84592389635515 L 185.28252173261174 160.79563023785852 L 185.3218695517737 161.6986943457973 L 184.86277236471298 162.8301088401038 L 183.7302142443756 165.04584747440808 L 183.0538517979827 166.23665891937108 L 180.78742232211977 169.85622950932418 L 179.11032084103175 172.18438950445534 L 178.20997714677995 173.5433679702956 L 176.70052534456067 175.50546393266467 L 175.209328031049 177.30526283057515 L 173.6075132165706 179.10020909453837 L 172.39325498175526 180.31362143105775 L 171.34909812751607 181.09810697490383 L 170.32220006849434 181.51962360801082 L 168.4520156144477 181.3611368038133 L 168.1348984480523 184.8122030399367 L 170.62201379869316 185.05410686073918 L 172.90810402092143 184.42459810322117 L 174.74480654168224 183.35727700644225 L 176.4474184240544 181.94312586639913 L 178.2666241173885 180.03445884911235 L 179.94437211637683 178.15566887983533 L 181.60386562665755 176.0387853500169 L 182.57608052615575 174.62005385491966 L 184.31999955288023 172.19357517817582 L 186.6629450770173 168.43094361969142 L 187.4630230603119 166.99419158809192 L 188.70717392434952 164.4552915505212 L 189.4364312294763 161.9081171776402 L 188.68354272051326 158.70717737932898 L 185.99980303106003 156.95522356458235 L 182.82310589435508 156.90402149201097 L 180.3990378156627 157.0341385853807 L 177.99370511303556 157.2938557228841 L 175.45944504504376 157.67908238073286 L 172.72539055617008 158.2010233165133 L 169.93885403042438 158.86647971826795 L 167.09413217382362 159.6635161244646 L 164.16497278060203 160.58930201231607 L 161.63633927787512 161.38597108448633 L 159.32186276248694 162.20197489246547 L 157.39825357311489 162.9711375557732 L 154.61959773977958 164.21103205986623 L 151.9361364767295 166.2976172603243 L 151.8276287317276 169.38580322265625 Z" fill="black" />
<path d="M 163.10117164199647 165.1596191274745 L 163.62263342904012 166.41335780973657 L 164.00635722495534 169.07111681342508 L 164.21816033055822 170.66634555934417 L 164.43945741320658 172.49069778198972 L 164.66573430396403 174.29848751751288 L 164.8638174857337 176.39852945838626 L 165.11258694758698 178.1888623283425 L 165.29199796748972 179.97119764657418 L 165.5410706374594 181.62917802733054 L 165.76588230394552 184.3239659037881 L 166.36244935102658 185.9951365997069 L 170.08042174272342 184.6575733612306 L 169.63267726636698 183.4259120258994 L 169.0652526047281 181.11581708985696 L 168.91820711063528 179.62072129873832 L 168.84554293522552 177.849589820095 L 168.6981942330163 176.06143147911374 L 168.60819147728597 173.95737185748712 L 168.43835020398092 172.06154831176028 L 168.26352912256678 170.20731166721833 L 168.07921406410716 168.49931775688742 L 167.56266930533488 165.22629062776343 L 166.24758324081603 163.3269531381505 Z" fill="black" />
<path d="M 172.9796141386032 166.48297119140625 L 172.91773113661483 169.28809876529414 L 172.3125546634845 171.91208915328806 L 171.87186535697225 173.4623690386856 L 171.27536769753883 175.38799186124214 L 170.64504329501094 177.08217915031244 L 169.8469790245448 178.90183427509933 L 169.03923170430298 180.71336873674852 L 168.1237001334339 182.38970127565452 L 167.1538428464443 183.86948569550856 L 165.9300744484681 185.45918705153863 L 168.6762487937194 187.57084224533637 L 169.9732323488682 185.88234535917894 L 171.0919981087536 184.18402919309548 L 172.15705735819702 182.30689493512648 L 173.0778256629552 180.41481611552567 L 174.00827701748906 178.55588237312506 L 174.81838230246117 176.69660286532036 L 175.55428210396525 174.6683682660019 L 176.1579043208905 172.91542549514944 L 176.88512530869767 169.73375182064336 L 176.8232423067093 166.48297119140625 Z" fill="black" />
<path d="M 148.22776147936716 192.41776029507426 L 150.30258692693184 191.90525359356087 L 152.94882599431682 191.50235286287378 L 154.77743754562937 191.2777184084911 L 156.9924373995354 191.03742234588717 L 159.55079159644842 190.79351472323646 L 162.27476627133981 190.53980656482884 L 165.39244985968799 190.38752502393686 L 168.17649674000882 190.264023692772 L 170.99120065747823 190.21358058544828 L 173.79289922824918 190.15143735558271 L 176.5399169921875 190.15122485160828 L 179.312744140625 190.13296270370483 L 182.35565185546875 190.10854768753052 L 184.70154257655557 190.08532916010546 L 186.77333339470078 190.12093864505428 L 188.69948045548054 190.29225211744733 L 190.28469836950114 190.5050527487249 L 193.76943282432984 191.29590357916445 L 192.84322353648452 187.24985965903014 L 191.34033203125 187.62860071659088 L 191.34033203125 191.33221471309662 L 193.00638583851548 191.71095577065736 L 195.75327225379516 187.41466770989805 L 191.20761120081136 186.2285898294001 L 189.22776563826946 185.91587776536517 L 187.04868808967422 185.68680061275822 L 184.76317910313193 185.59728802739454 L 182.35565185546875 185.57406949996948 L 179.312744140625 185.54965448379517 L 176.5399169921875 185.53139233589172 L 173.74128045925082 185.53117983191729 L 170.88929250658427 185.59415867236422 L 168.01429915842868 185.668837635353 L 165.14465951531201 185.82060485887564 L 161.92445247866019 186.04368952892116 L 159.10277285667658 186.34051847988854 L 156.5115909207771 186.62212355255033 L 154.22524800124563 186.9073401852589 L 152.23672088068318 187.20821842618872 L 149.19326268244316 187.85634308612663 L 146.91078832532034 189.04549654086324 Z" fill="black" />
</svg>