<svg xmlns="http://www.w3.org/2000/svg" width="300" height="300" viewBox="0 0 300 300">
<path d="M 110.89939438025509 108.3636303527654 L 113.37730493298275 109.18433342578389 L 116.43891218836147 109.26272637823901 L 118.25653076171875 109.20284914970398 L 120.46992625577762 109.13952853180086 L 122.90706870027101 108.71232413054068 L 125.38849489881929 108.09476192061744 L 127.78232547854385 107.34570886271337 L 130.2662479525499 106.46746496494897 L 132.21673445700984 105.6683177646469 L 135.1420306069916 104.32713841224609 L 133.7086774008209 101.16443873619141 L 130.83624405861516 102.4508228603531 L 129.0776241177626 103.10309167567603 L 126.70009639645615 103.80138586384913 L 124.44854123399321 104.37862675125756 L 122.17654946379149 104.81208993195932 L 120.14835987703488 105.06054471038664 L 118.25653076171875 104.99722409248352 L 116.50908585851353 104.93734686394849 L 113.88099584826725 104.86559333202861 L 111.74953140099491 104.6352710144221 Z" fill="black" />
<path d="M 104.64846241424308 126.63534541040563 L 106.84155144482476 127.01312744165278 L 110.06351539372761 126.86697938986289 L 112.22360363315555 126.51329607173695 L 114.59938892759318 126.03606828911012 L 117.31709830250139 125.55264433871969 L 120.34916122813532 124.92963461975393 L 123.2013463746261 124.37639400449957 L 126.09982287726805 123.74894430224833 L 128.84706774739936 123.21045322130033 L 131.35443321238697 122.73461405603675 L 133.51794328973128 122.33498525421008 L 136.90058999983722 121.73307093088577 L 137.05929601280872 120.53855416803252 L 135.7677878410193 119.46187440367198 L 134.1576326768073 121.23295315626676 L 132.58600465643457 123.26138522873774 L 130.83325319385384 125.52302622984197 L 129.13679515380872 127.91908733309127 L 128.2083906085465 129.25158639136072 L 127.21165996078368 130.67338035718464 L 125.95330184203966 132.44785694932855 L 124.80112992276248 134.06360511975444 L 123.63766227790381 135.87194632374096 L 122.39616030463557 137.7708033691828 L 121.01265468043697 139.86780769148197 L 119.548733174322 142.05257567831796 L 117.88832015798734 144.62214463496923 L 116.46397884911164 146.7683261888309 L 114.88607252224182 149.0554608800631 L 113.36528798872068 151.28407499836948 L 111.78721225388732 153.51757451991068 L 110.27546377499536 155.70508913911874 L 108.62952464025297 158.08600309563923 L 107.4110282353179 159.85921804841803 L 106.25291567731261 161.50330188982946 L 105.27787015893023 162.8836113379042 L 103.52111987561248 164.9950123207026 L 102.94395343181698 165.83877236046055 L 102.09424117790753 165.56113425495272 L 101.39696975959247 169.38173683879728 L 104.11232098224552 169.75473349891445 L 106.59606762438752 167.9709300621099 L 108.65645601294477 165.6029609277208 L 109.80604428362489 164.08043834454554 L 111.0246407099946 162.42129952970697 L 112.29088551599703 160.64104768561077 L 113.95793466250464 158.26732297025626 L 115.47108852736268 156.10058954258932 L 117.06195810502932 153.85471894694302 L 118.60208665744568 151.6039629480619 L 120.19312564307586 149.2866054517941 L 121.64964370920016 147.07853895878077 L 123.3022189741155 144.51810303261954 L 124.75516758518803 142.34862297258053 L 126.14448910942693 140.2165013183172 L 127.38772834709619 138.28662301219654 L 128.49293746005 136.54149741930806 L 129.57343155639785 135.00416941785895 L 130.8358253907788 133.20015479906536 L 131.8196855633285 131.74414114770178 L 132.72782886962878 130.42405231534622 L 134.34435911083366 128.09049916078303 L 136.01262815606543 125.87277004469976 L 137.4659024794427 123.92232028123324 L 138.6285744636682 122.54032286195302 L 140.65005457312878 118.96120169134248 L 136.45146078141278 117.89180699880173 L 132.84802350714372 118.49106455047742 L 130.65423377980053 118.86719258458825 L 128.12009533853814 119.31725673963717 L 125.32168591179445 119.82979104931417 L 122.4224329222489 120.40351322206293 L 119.58492080311468 120.90129799743357 L 116.56717904124861 121.45443573940531 L 113.84726634584432 121.89691510932738 L 111.46963367153195 122.34559064701305 L 109.66854027033489 122.64254209451211 L 106.94873175830024 122.77166259740972 L 105.18063914825692 122.62393193334437 Z" fill="black" />
<path d="M 122.75330492078648 140.85574293999977 L 123.92899529481326 141.81990291760073 L 124.6128452819351 143.54240724136304 L 125.17766072637943 146.0492869020632 L 125.38908676998676 147.66162595629666 L 125.62330901607803 149.73983150920856 L 125.72822731472229 151.8756463726754 L 125.78608344233675 154.25334841433587 L 125.7807343006134 156.7860107421875 L 125.7807343006134 159.563720703125 L 125.78402126159845 162.31635972906034 L 125.60121405687468 165.27921457742852 L 125.28042742603591 167.7023951594501 L 124.97824088146567 170.17182305805954 L 124.61562522806196 172.4271701302208 L 124.25710646362768 174.4914440274028 L 123.9010149494168 176.3216049783771 L 123.85110203988607 177.4625393052462 L 122.91163718927082 177.98815256828757 L 125.23289406072918 181.32849782233743 L 127.31833155386393 179.7520603041288 L 128.0606549724582 177.2144057638104 L 128.49679978637232 175.3409534335347 L 128.93051735006304 173.2011257682167 L 129.36013802478433 170.82695623881546 L 129.7061448395891 168.2915013249249 L 130.06956231031282 165.70979909444648 L 130.28287326965153 162.46659925531466 L 130.2861602306366 159.563720703125 L 130.2861602306366 156.7860107421875 L 130.28081108891325 154.18866818722663 L 130.1946242477777 151.6866094866996 L 130.04746735110947 149.34305423297894 L 129.74152846438824 147.06701173901584 L 129.41279337518307 145.1258839963743 L 128.5371791321274 142.10236814926196 L 126.98836310362424 139.34550235583677 L 124.85106519640102 137.93234299750023 Z" fill="black" />
<path d="M 127.48058798738263 153.2327098140202 L 130.5376828895402 153.52314652303625 L 135.97752436140914 152.8514198214841 L 138.31357071951726 152.4939070866275 L 140.50477872512664 152.12032665668818 L 142.63256277566055 151.72933515245026 L 144.64532608705142 151.33642441323295 L 146.425617748253 151.00038367826923 L 148.01280952403812 150.65403237354218 L 150.64463887075618 150.01257719858359 L 152.3049024249775 149.25995703334655 L 151.0080858562725 145.99419335727845 L 149.64344706674382 146.44274506704141 L 147.26978324939938 146.85231528270782 L 145.796061939247 147.03147667329327 L 144.01129012388608 147.22094863364205 L 141.95483956808945 147.47867266004974 L 139.83335604049836 147.76334033549932 L 137.66726424142024 148.040394671185 L 135.39393559952836 148.3335167019534 L 130.1385866417098 148.98808394571375 L 127.39795205167987 149.4036427250423 Z" fill="black" />
<path d="M 158.3146475925155 111.50572960916259 L 154.12973199769596 111.79778511936792 L 155.11967208298844 115.56949057137703 L 155.983255883548 118.01285191746223 L 156.39890262558245 119.62176829933608 L 156.92584659658107 121.48540774909075 L 157.43587946825343 123.77843714352984 L 157.89629988612023 125.96605061807654 L 158.29403377665756 128.30657813669694 L 158.62950451618144 130.76285158264733 L 158.91488630532604 133.11866176651765 L 159.06492570518114 135.4489557576202 L 159.3027640890655 137.90619704859378 L 159.4597769301745 139.64755646524446 L 159.64740442650577 142.22426839367284 L 163.64288330078125 144.0736083984375 L 163.44328951835632 141.03314208984375 L 159.96369290351868 141.03314208984375 L 159.76409912109375 144.0736083984375 L 163.75957799536923 142.09421305163966 L 163.6591195542005 139.39077361288054 L 163.564057199997 137.57866623265622 L 163.40577741981886 135.1561467814423 L 163.30374162436146 132.75682651473235 L 163.04896228069356 130.23287595641517 L 162.73623966084244 127.65924217580306 L 162.34173722325477 125.14503336629846 L 161.86587834424657 122.82825230959516 L 161.33159969248143 120.39166744622175 L 160.77822139785505 118.42657154441392 L 160.293599585202 116.60714319972527 L 159.17659256544906 113.64523110831047 L 157.89785589292904 113.86346976344458 L 157.422046743422 115.08142859396241 Z" fill="black" />
<path d="M 165.19988446477913 117.02776093730546 L 165.11840335082636 115.91509529330811 L 166.46489466088292 115.12905374352496 L 168.67492401115757 114.23506815482283 L 170.11266489192474 113.84251119163402 L 171.76134916109373 113.47637909687124 L 173.51753815949894 113.23383662752664 L 175.48665051888446 112.98980594167269 L 177.27813720703125 112.99635934829712 L 179.07872517187897 112.99649535855414 L 180.58792185204163 113.04527744439794 L 181.92903476180842 113.41524236684626 L 183.32432571827337 114.04258235777732 L 184.6982076889932 114.80806493210723 L 185.47936557731154 115.57198436170026 L 186.1607829002142 116.43264464787434 L 187.4042218377777 118.8251016177441 L 187.66671051393305 120.00843575265394 L 188.0456064449291 121.29675294453222 L 188.16179117399847 123.83995576847805 L 188.15906167030334 125.2802734375 L 188.15906167030334 126.8067626953125 L 188.1643506009715 128.2570314001694 L 187.99428080776784 129.8951463025594 L 187.6792654670841 131.37194786399766 L 187.36506042128553 133.03742909395956 L 187.0505801409333 134.6435435413117 L 186.79788238640876 136.23585656779375 L 186.50118788010207 137.77895391744633 L 186.2024078534647 139.3702446803342 L 185.73983214514013 141.29711182995513 L 185.05591341593788 142.647989879432 L 184.7588321408024 142.88184753352124 L 183.2322337410925 142.67959547116592 L 182.6674244620325 146.11825609133408 L 185.1020077029476 146.56663879460376 L 187.82982877156212 145.499226917443 L 189.52261902673487 142.89624754504487 L 190.2483978105978 140.3437445774783 L 190.63382188552293 138.63181268411617 L 190.98532073859124 137.02183386189375 L 191.2727841168792 135.4360463024383 L 191.60649719590197 133.88908457791544 L 191.9404855094784 132.25134315162734 L 192.30967427035716 130.5750685411906 L 192.535722641216 128.5095701623306 L 192.54101157188416 126.8067626953125 L 192.54101157188416 125.2802734375 L 192.53828206818903 123.69263700495945 L 192.3663808597584 120.70544432109278 L 191.84500823606695 118.84068534109606 L 191.3152605840973 117.1211874447559 L 189.7858723732233 114.23349304743816 L 188.59473110237596 112.71683399767474 L 187.1432229750693 111.37870264601777 L 185.20411666453913 110.29237857972268 L 183.32243008194158 109.46830255502874 L 181.20651174170837 108.91236415716456 L 179.15064494530853 108.83602417269586 L 177.27813720703125 108.83616018295288 L 175.21647448111554 108.84271358957731 L 172.97233000456356 109.12419559903586 L 171.01941255765627 109.40716582500376 L 169.10303335026276 109.84181498024098 L 167.26379669196743 110.37516133736467 L 164.46833287817958 111.58322652991254 L 161.70959957886114 113.82513908169189 L 161.37604326959587 116.79145292988204 Z" fill="black" />
<path d="M 164.404296875 132.13996720314026 L 162.95123351201414 136.16308455680544 L 166.043629579058 136.0662094311092 L 170.53009438839143 134.8366140812005 L 172.03187640463656 134.33243105272123 L 173.5234402327374 133.89873248355102 L 175.03230903385258 133.39307284942078 L 178.15676897468015 132.472840858966 L 180.7423702331161 131.85310431986514 L 182.66961072683412 131.68831333073825 L 182.43781114816588 128.23136440363675 L 180.2598270325089 128.34184196919736 L 177.29977399406985 128.7731308207215 L 173.97831108333492 129.57958340057922 L 172.4262667985126 129.97480267269898 L 170.89292828286344 130.34188535352877 L 169.36980795535857 130.763605645362 L 165.285716124067 131.9113296313908 L 162.54437195673586 132.06469864631956 L 164.404296875 136.08781599998474 Z" fill="black" />
<path d="M 158.06874641699363 149.17735900895568 L 155.36328466945125 152.99211403942417 L 159.77953153324532 154.46762830042067 L 161.77812689826143 154.40546251175127 L 163.71698495233 153.9210506625772 L 165.7799439018031 153.40011529620523 L 167.74362813681793 152.73483786126644 L 169.84816933051448 152.07280090989116 L 172.0706720654607 151.187406371303 L 174.3897797002774 150.31664217105535 L 176.7811538872926 149.28437110486817 L 179.39116379009204 148.1759439361627 L 181.70564574223312 147.19863181277344 L 183.9554205303151 146.1422118857046 L 186.14806620121593 145.13278906958718 L 188.1814646384989 144.0452467607342 L 189.94645781612806 143.0240780279116 L 192.77304853883376 141.1975334370043 L 193.89609402708282 139.33030739757797 L 190.87319308229218 137.60597189929703 L 190.41176591429124 138.5164558208082 L 188.08882050418444 139.8429874017759 L 186.4327931740011 140.6736253095783 L 184.50500997065907 141.56301171166282 L 182.3403558368724 142.4053955361704 L 180.08878785151688 143.32590432003906 L 177.79389480365796 144.1753744232123 L 175.1103256048949 145.19402244981933 L 172.7482818231601 146.13868009456965 L 170.4580144579768 146.969576050572 L 168.32321738823552 147.81086608229634 L 166.32253397255707 148.45009866217106 L 164.4690795356969 149.11111517254477 L 162.570856844545 149.6412051967978 L 161.08869439080107 150.08269666793623 L 159.91834444331718 150.14565294957933 L 158.93297997898625 151.22077658557583 L 160.18869987206887 152.53309020979432 Z" fill="black" />
<path d="M 174.18488792084935 96.1250701572031 L 170.6498951879951 94.18653741055184 L 169.85237805471746 98.24066376557542 L 170.58099674380978 101.56853894033006 L 170.93729993735255 103.82146490074125 L 171.34414441175048 106.44490532927993 L 171.81386829978868 109.5059382990125 L 172.31101436402585 113.39219879568986 L 172.82043821801972 118.07616462298334 L 173.28441803201724 123.47376832006982 L 173.66685968547898 129.8474243209466 L 173.8227748811348 135.67544133462465 L 173.8207492828369 141.83392333984375 L 173.82231378555298 147.88983154296875 L 173.83990031438285 153.54811284075632 L 173.56739006498012 158.77566714220197 L 173.21881639705305 164.36071965073558 L 172.95070769422222 168.45561012851223 L 172.75965336744184 172.39948080792456 L 172.72006292384896 176.1105473592091 L 172.6441422465033 179.4005297513268 L 172.63512665499576 182.4836700301577 L 172.7455838883982 185.37535175556775 L 172.6936896644135 187.25392781541 L 172.58935710630098 189.76527002918036 L 176.36779493903148 191.78279082333347 L 176.3303566264622 189.00817743983026 L 172.7882957172878 188.77649052891974 L 172.35473924065602 192.05778534854153 L 176.67333820619902 190.12144872081964 L 176.821080843399 187.5027860517775 L 177.0572725569143 185.55262676005725 L 177.27576201687924 182.6386444229673 L 177.5548323628717 179.6658764986732 L 177.87502984958854 176.3494135782909 L 178.08751460130816 172.67827798113794 L 178.43662140734028 168.86458030117527 L 178.81670606388445 164.77648738051442 L 179.26036872408238 159.15060238904803 L 179.63605183405465 153.71775629986868 L 179.65363836288452 147.88983154296875 L 179.6552028656006 141.83392333984375 L 179.6531772673027 135.58029597006285 L 179.41297429889602 129.5467407181159 L 178.89514739767026 123.00779906274268 L 178.27880494604278 117.46973381451666 L 177.59987430784915 112.66944671212264 L 176.90866587989882 108.64799236505 L 176.19003527574952 105.50297064728257 L 175.55256822670995 102.84625970863375 L 174.86455989681522 100.49469348154494 L 173.86466296090754 97.36626982817458 L 172.5269846948174 97.46653876132316 L 171.36870094633815 98.4308380459219 Z" fill="black" />
</svg>