<svg xmlns="http://www.w3.org/2000/svg" width="300" height="300" viewBox="0 0 300 300">
<path d="M 112.62587023034958 89.58892270402065 L 114.97760477965056 90.18720084671664 L 116.798095703125 90.2073278427124 L 118.9227294921875 90.22439956665039 L 121.68754807323003 90.2401168326758 L 124.59513922838165 89.92699282124075 L 127.9659132853607 89.60790889371432 L 131.7834620683866 89.01397501206104 L 136.10890301371367 88.29620595818909 L 140.7144572434099 87.40235399543737 L 145.9252174090723 86.23416090512242 L 150.3587791850929 85.04570606140884 L 154.6449305105001 83.72800589235477 L 158.67029812065755 82.36554688680958 L 162.6417060864855 81.10277043841764 L 166.3366972624041 79.81391260864822 L 170.21744916157175 78.49712122380839 L 173.12097140126406 77.58249617712565 L 175.53662794685883 76.7124868915081 L 177.5421899372032 75.92245952276214 L 179.84097885099058 74.48738070638358 L 178.13631607088442 71.42106655924142 L 175.9337622112343 72.48842914911286 L 174.26622849845367 73.0246957256794 L 171.92846707529844 73.73122452599935 L 168.99824908061575 74.51825963556661 L 164.9926484407209 75.70390965697678 L 161.2694267260145 76.91749323345736 L 157.31847141059245 78.18218260537792 L 153.3134435129374 79.44728707639523 L 149.1370704242821 80.63202831359116 L 144.8560325909277 81.69577073550258 L 139.7677204909651 82.75475049675013 L 135.26255694722383 83.58758310431091 L 131.0174412519259 84.32123006606396 L 127.3087449177643 84.90344364534818 L 124.05354241224335 85.38514096782175 L 121.41547927051997 85.7226517220117 L 118.9227294921875 85.73836898803711 L 116.798095703125 85.7554407119751 L 115.19756611878694 85.77556770797086 L 112.93992566808792 85.97345522566685 Z" fill="black" />
<path d="M 140.29615644798727 72.64443772661218 L 139.62611168663017 74.84455445822267 L 139.82956544925563 77.93165627670894 L 140.0418318561457 79.83849214507211 L 140.1825079764855 81.93538235806163 L 140.4203417313006 84.28751679002166 L 140.59093679057463 86.722362919787 L 140.8394923251568 89.16065481046986 L 141.04438001870832 91.77888264407231 L 141.21831629579592 93.83058088482768 L 141.38289766687478 95.62969992891357 L 141.5660123096824 97.35431235485524 L 141.86927885481487 99.57914997488948 L 145.59898286393513 98.78046916573552 L 145.0019808543801 96.80120522326976 L 144.89700955968772 95.34771706327393 L 144.80951573545408 93.59336931048482 L 144.73137681722918 91.56608805905269 L 144.6481785732807 88.90416452546764 L 144.50061594380037 86.462695673963 L 144.4191358077619 84.01778106154084 L 144.2608513985145 81.64030123568837 L 144.1494523235418 79.50806547211539 L 143.96560056636937 77.58616598891606 L 143.77293616493233 75.01775022927733 L 143.89512773170023 73.38913160932532 Z" fill="black" />
<path d="M 158.41608821413237 70.55650162900749 L 158.74366667353425 72.17734111750744 L 158.72626911911183 74.49678845468672 L 158.69876269381612 76.10940406361694 L 158.3085189109429 78.04056865246976 L 157.82509378067382 80.38356758777549 L 157.18726916770723 83.12312518549477 L 156.53686914435872 85.6952029333606 L 155.81801008602375 88.43031515756768 L 154.93978087319124 91.17563834324714 L 154.0547156052097 93.90801156954193 L 153.01401874022585 96.56872188951827 L 156.24074200196165 97.83703982923173 L 157.3246789260403 95.09247671170807 L 158.27616150962126 92.29445443019036 L 159.27049089053875 89.50938210805732 L 160.13610448845378 86.7140988244519 L 160.92613415260527 84.13114727544273 L 161.72873922713868 81.34030936534951 L 162.3256363624946 78.92866962878024 L 162.83566113430888 76.65573265513306 L 162.95219767776317 74.56473498281328 L 162.93480012334075 71.62905536686756 L 162.07402409055513 69.42115950380501 Z" fill="black" />
<path d="M 121.96615260231773 117.91433455657564 L 124.16414262817612 118.35392779501707 L 126.07171209095645 118.14823600511787 L 128.12119035714764 117.6841838786253 L 130.65134460601786 117.01483048716739 L 133.62625776567427 116.08577857335969 L 137.31250836003778 114.83403842079407 L 140.93198855583063 113.5119238103681 L 144.78976685813905 111.9724280946265 L 148.79826027074483 110.29029705177388 L 152.56366464388574 108.53951166231673 L 156.17693984432998 106.96091401900702 L 159.65076486482238 105.45588857280174 L 163.2968580291645 103.94724565925623 L 165.9639576721906 102.93062162647581 L 168.311273631354 102.09923874306209 L 170.26720098537746 101.47944033052558 L 171.75087951038134 101.06755596956991 L 174.4087901201238 100.68605068393337 L 174.0616688642512 97.02293369106663 L 171.17392517711866 97.16694110074259 L 169.23658319431004 97.55583798978692 L 167.0872859389585 98.11218703818791 L 164.5731517028094 98.85734224071169 L 161.6945970489605 99.81764691886877 L 157.92247732267762 101.36198252094826 L 154.41021835879502 102.88491117630548 L 150.74932363736426 104.45938970487077 L 146.98848289331767 106.13694904197612 L 143.07461302467345 107.7580406553735 L 139.29811398323187 109.2464990411944 L 135.78746722589972 110.55194790733093 L 132.19954789838823 111.80264916101531 L 129.37673156585714 112.72540388783261 L 127.00942487722736 113.3823444416872 L 125.24176447154355 113.84419563550713 L 124.08842084838638 114.03889447060793 L 122.21719700705727 114.20321915436186 Z" fill="black" />
<path d="M 130.20095715591773 121.86003036838599 L 131.70080798531404 124.77427005020716 L 132.6501002005243 126.93091076646664 L 133.71784915147398 129.73295163512248 L 134.3040902019406 131.28111387857672 L 134.8072812726482 132.74529898137493 L 135.6458894305872 135.58199429230288 L 136.3597702315263 137.991422132081 L 137.0341689075527 139.66769322785905 L 140.2790635143223 138.44473352995345 L 139.7651076981612 136.9679284538565 L 139.2906340069128 134.62271762175962 L 138.5447695086018 131.67877328425007 L 138.1116812824344 130.08997987142328 L 137.65361080946352 128.35994387269002 L 136.5967259713507 125.35632067884586 L 135.45739513968596 122.75832272323034 L 133.39218249251977 119.89192275661401 Z" fill="black" />
<path d="M 142.7217555289475 121.71113186269856 L 143.650453981742 123.10869927565724 L 144.77144398687892 126.09785319689311 L 146.27038127130464 130.09987366645376 L 147.30159527080525 132.73203300733036 L 148.2096848648786 134.95331600759891 L 151.4302077132464 133.67485782052609 L 150.60978168231975 131.54189277391964 L 149.91248005682036 128.91892516167124 L 148.78263316155858 124.73796223279439 L 147.5269141823205 121.14569525559276 L 145.8268284554275 119.24004001230144 Z" fill="black" />
<path d="M 163.92910926540625 119.45993694414925 L 164.65902544208697 118.90392777566075 L 163.8239487360536 119.21310142256975 L 163.77857059750914 121.44898924600037 L 163.39941361948587 122.57720066099124 L 162.92210961768774 124.15344232319714 L 162.28395857364518 125.86603057910054 L 161.43927810529772 127.79877443296458 L 160.52439874872275 129.8592870500743 L 159.45979026747443 132.2087432106245 L 158.36589635550334 134.2427302325132 L 157.25166165500303 136.27326720637922 L 156.10881891235906 138.11272175935653 L 154.8531471478436 139.76175681899943 L 153.63051474423727 141.260678241231 L 156.30845009951273 143.4581938290815 L 157.5705589068439 141.92916114975057 L 158.97968206420344 140.14985148283097 L 160.32158053249697 138.16057068424578 L 161.58405481637166 136.1121281659243 L 162.86686988877557 134.042111281563 L 164.17897039190225 131.6619531843007 L 165.24468185563978 129.61846189516044 L 166.27255998104232 127.59734832714946 L 167.07483862449976 125.63134771586536 L 167.64184614613913 123.90436672182126 L 168.19896846499086 122.00462403524963 L 168.2616225530089 118.96036049149275 L 166.77835248760053 115.06543257590175 L 162.89889366428125 115.81069293866325 Z" fill="black" />
<path d="M 114.53066215677862 166.00106098605912 L 116.72707032616702 166.05430851585646 L 118.39626644366041 165.83431166643794 L 120.61515201904768 165.54803993835677 L 123.47264975528239 165.09830541487295 L 126.83668403226291 164.4243371279437 L 130.73919613409203 163.5582332707656 L 134.46432835750082 162.61233543878004 L 138.54103386721016 161.61667329529863 L 142.69584993108347 160.45168977263492 L 146.76430526697226 159.21367667470605 L 150.74852535158976 157.96260302129872 L 154.99700520951546 156.63626488826904 L 158.32827733912805 155.63803136649213 L 161.91986355614975 154.59283551091497 L 165.52190739497556 153.45266017440446 L 168.95193319719894 152.3555588354481 L 172.21233536419686 151.38263714129485 L 175.49237335794612 150.3453147703702 L 177.6254504228606 149.71202522526312 L 179.47732503845253 149.39559061631422 L 181.10966797153046 149.19558939256603 L 183.345947265625 149.08383738994598 L 183.345947265625 145.24440968036652 L 180.97285155971954 145.13265767774647 L 179.04013101623497 145.20792500868578 L 176.7867810224519 145.41700309504938 L 174.31048308736638 145.9598610108798 L 170.96454451861564 146.77434528058015 L 167.63498086530106 147.5281081567394 L 164.07892268314944 148.40793552872054 L 160.40679660010025 149.36981097346003 L 156.76022363743445 150.42666589913287 L 153.35748697798454 151.53048315860596 L 149.14344242184774 152.98185498651378 L 145.20529922521524 154.23322273935645 L 141.20734831110403 155.49765104767758 L 137.18772589841484 156.70998686095137 L 133.19802515812418 157.81637549871996 L 129.54095523309547 158.8474063776719 L 125.77317924898709 159.8331091611188 L 122.54724770565511 160.61055688981455 L 119.85909114501482 161.21184775695573 L 117.72067691571459 161.60123520856206 L 116.22092772070798 161.90675105445604 L 114.20407905415888 162.33536479519088 Z" fill="black" />
<path d="M 151.7938216669749 142.2348353267191 L 151.25857162585334 144.23052577445537 L 151.20918405557896 146.6694685424747 L 151.59208165359425 150.00256101107348 L 151.85486958990137 152.18849261137964 L 152.16684873447366 154.65073892180942 L 152.4277489731776 157.63004698569915 L 152.67721225792334 160.76139463880125 L 152.87271831293904 164.14735585357255 L 153.01031233626574 167.7498906590619 L 153.13244493685164 171.52383660459262 L 153.1160922050476 175.24151611328125 L 153.1459083557129 179.47064208984375 L 153.15224623680115 182.82391357421875 L 153.16547507780462 186.14863068484695 L 153.06174248189728 189.22060581548135 L 152.81178675033237 192.16932162765013 L 152.49527431501687 194.93059218052426 L 152.2369988685239 197.82254381914856 L 151.97531668621212 199.81103266515117 L 151.86336377338117 201.55984159289372 L 151.545158082734 203.81340208324107 L 152.18994408879908 204.2025970614149 L 152.89504124869205 203.88520976851453 L 152.36129272090653 202.57542874928018 L 151.7691172202195 199.74338276370946 L 148.3749257485305 200.43813579097804 L 148.97110474003097 203.41175386790732 L 149.62571070443295 205.93070820023547 L 153.10363501276342 208.1157623135851 L 155.4769366438285 204.95149049488393 L 155.95096728130633 202.05002168835628 L 156.09108956378788 200.24536381922383 L 156.3695685142886 198.27999524335144 L 156.65145420060813 195.36628281947574 L 156.98313512466763 192.59715786453737 L 157.27334052591522 189.48996547358115 L 157.42168312532038 186.23076384640305 L 157.43491196632385 182.82391357421875 L 157.4412498474121 179.47064208984375 L 157.4710659980774 175.24151611328125 L 157.45471326627336 171.45187140321988 L 157.32477067154676 167.5933710596881 L 157.17427875737346 163.93882578705245 L 156.97366664832666 160.46809754869875 L 156.7189795424474 157.26826844398835 L 156.43971864833884 154.19166830475308 L 156.10350443353613 151.64903180268286 L 155.82613123703075 149.48071535611402 L 155.41679250692104 146.3575089965878 L 155.36740493664666 144.56732578804463 L 155.4803482549001 142.8844273685934 Z" fill="black" />
<path d="M 153.6430950200222 178.30369460827143 L 153.0795259904877 175.54889343418733 L 149.44046715299024 174.65361061062652 L 147.06682672730514 176.18599324623528 L 144.71852191521072 178.2964338313674 L 143.43050976030105 179.57417407087496 L 141.95092661660212 180.97132575344617 L 140.50659001581042 182.48920779747647 L 138.88817768843091 184.0409961820822 L 137.26087074580641 185.59013924322676 L 135.30537671739867 187.34408236656955 L 133.5288844904533 188.92775040000132 L 131.77908463496016 190.4757853713364 L 129.99438547463006 191.94685471336138 L 128.18185831761775 193.3671391635813 L 126.37616039772944 194.7214357899968 L 124.46727636948938 196.0614092980955 L 123.01247827096526 196.97320378028073 L 121.67878507719097 197.69340328603414 L 119.29730778538313 198.75499407251687 L 117.89896132364579 199.22147413232318 L 118.07016032254712 199.80093489099184 L 118.12796400886464 199.45878314410916 L 118.54299415752192 197.8444102193155 L 115.19724021747808 196.931834897872 L 114.56795884269786 199.14619732464084 L 115.02188069307788 202.35751237463316 L 118.21798203572921 203.46248582861432 L 120.78081721461687 202.87794049779563 L 123.54887605562153 201.71235843271586 L 125.24008520559724 200.85601985253177 L 126.95423241957312 199.7908856237795 L 129.00653003195808 198.3531491709407 L 130.90993855738225 196.9297358364187 L 132.80651784568244 195.44718825538862 L 134.69491438847734 193.8903034958511 L 136.5101780095467 192.28526229531118 L 138.29874925916383 190.69082974280545 L 140.30443687138109 188.89130606927324 L 141.99011821000659 187.2873729585428 L 143.68469416387708 185.66106075721103 L 145.12121693808538 184.15098869967883 L 146.55850391157395 182.79545483537504 L 147.79124370978928 181.5457292545701 L 149.90827092894486 179.57719034751472 L 150.59554358919726 178.88240013156098 L 150.1254300641998 178.51263000331267 L 149.9579791987278 178.78578293079107 Z" fill="black" />
<path d="M 154.29006803885207 178.9872333417803 L 155.7883816191392 179.4883709229759 L 157.19688534226037 180.12283924879225 L 158.74223454321046 180.86120791947334 L 160.3170765621604 181.66221074793125 L 161.9495124559347 182.58763279339558 L 163.85320626417763 183.6909665572347 L 165.38628780749573 184.70218574402566 L 167.05437440796368 185.9501189245486 L 168.78324202312484 187.17667057364758 L 170.48318844963248 188.3563169125212 L 172.08482660938748 189.54109946170888 L 173.80647641217212 190.81576129789565 L 175.15773867681924 191.8006381032203 L 176.50903791804183 192.85712298079068 L 177.89348943146527 193.92137739991134 L 179.3283158569177 195.0184798782633 L 180.80512678837894 196.01141560094788 L 182.38129852150155 196.97120491535887 L 184.51516934419575 197.88648594358094 L 186.8559854285152 198.47539280741694 L 188.0103475792973 194.19880152852056 L 185.99386385892925 193.61156093141906 L 184.45463897849845 192.92527945964113 L 183.25798356318356 192.18340861780212 L 181.9619673462073 191.3245376998617 L 180.62396662322223 190.31958939696366 L 179.23559098820817 189.28179303483432 L 177.81406308099326 188.2112027170922 L 176.39249819720288 187.21915081147935 L 174.65711674998752 185.99137124141612 L 172.98177737068002 184.7988344546663 L 171.22469254718766 183.62618587166492 L 169.53253965453632 182.4754181848264 L 167.77960574719177 181.22090995909934 L 165.99969900925987 180.1050539505778 L 163.9422111768778 178.98121486285442 L 162.1536265628396 178.05483026769375 L 160.41548030053954 177.27929501021416 L 158.79188418898963 176.56624766527025 L 157.1754855683608 175.8744220457741 L 155.50485383614793 175.3245342363447 Z" fill="black" />
</svg>