<svg xmlns="http://www.w3.org/2000/svg" width="300" height="300" viewBox="0 0 300 300">
<path d="M 161.163330078125 101.84798097610474 L 159.26784569998682 101.79988828709094 L 155.2844831820792 104.23560992296967 L 159.44771025798315 106.56275277160368 L 163.49997791291332 106.63298551571694 L 165.51455535890022 106.44601047956269 L 167.3684944575554 106.1785445736024 L 169.35063609644942 105.84427059875628 L 171.33357889724218 105.42929805683362 L 173.32236400737867 104.96451280903409 L 175.4559467896928 104.48603842216487 L 177.94928951278135 103.85964924336139 L 180.1327906404426 103.21893944373625 L 182.35743470829826 102.52908621714 L 184.36027076216135 101.81855618834527 L 186.20565747439974 101.16400723942782 L 187.87352952259448 100.41483901219688 L 190.62893911768953 99.1163060455311 L 192.34917701048533 94.63840495680712 L 187.9424590129377 94.22814463907326 L 185.3267189304654 95.63910817343798 L 183.91649609970563 96.55002279979202 L 185.80030077529437 99.45730141895798 L 187.0548728664096 98.64153147499952 L 188.9044648151873 97.67517567342674 L 188.99908959107717 97.13979328538038 L 188.19857553074797 95.4396021575939 L 186.09253493053052 96.24311997217812 L 184.59146166622526 96.82024569025968 L 182.87178490190115 97.34184420227973 L 180.91343931513924 97.9576081187975 L 178.7807835783074 98.56902442345125 L 176.71501712784365 99.12948649882611 L 174.3469096556197 99.67924478096013 L 172.23122485980883 100.12667371440341 L 170.25882832932032 100.58779178691638 L 168.42463245823808 100.97360049499372 L 166.5896354252571 101.2899612857726 L 164.87851104734978 101.54800807512481 L 163.32802501677418 101.76142366397056 L 159.60197235920435 101.83165640808382 L 159.2638566616708 103.75840863171783 L 159.63779394845068 105.39334901759656 L 161.163330078125 105.34525632858276 Z" fill="black" />
<path d="M 174.18951076812516 104.84460009801565 L 174.58330993055824 105.41251392765966 L 174.4279914306247 105.7564729399397 L 173.8454359020913 108.05969512065627 L 173.24536381100532 109.57780648994867 L 172.5025661704899 111.37465725272432 L 171.43374579071545 113.45571011417219 L 170.1965022760997 115.777409517727 L 168.79053012414911 118.26439092194997 L 167.20688574612157 120.68039378967343 L 165.3964635102079 123.31683401815391 L 163.77166500690564 125.44543419653455 L 162.07824303121177 127.38469249350315 L 160.402119378337 129.13289068051287 L 158.69996664639464 130.64487005036145 L 157.09989610320017 132.05979063774734 L 155.3785966504671 133.44059205004123 L 154.13726705447593 134.28409248760337 L 151.83966975967016 135.7051297292645 L 149.33997028762474 137.17385355386563 L 150.10003216194636 138.31141680887472 L 150.91421423311252 139.1554072161256 L 147.93344201688748 137.3804814557494 L 147.01910846305364 141.12730389425028 L 151.20019084518776 141.21384175863437 L 154.13811344345484 139.654611481673 L 156.59393411739907 138.17281669208413 L 158.1254316698454 137.16451048902127 L 160.07722792023733 135.64247987006516 L 161.79014565829286 134.15456842620105 L 163.653056402913 132.51347162417463 L 165.54199622660073 130.55805652993433 L 167.41363772746936 128.41833533471544 L 169.2098597319796 126.06756539590859 L 171.10854394137843 123.29873218688907 L 172.80187710241339 120.70985224211253 L 174.3127750676503 118.0418043494605 L 175.59628350615955 115.63388949520281 L 176.7601291420101 113.36069430977568 L 177.60180415774468 111.32880972098883 L 178.3341295275962 109.41857636371873 L 179.0479607178128 106.4666715913103 L 178.89264221787926 103.63253001765284 L 177.05377536468734 101.97327099573435 Z" fill="black" />
<path d="M 170.07598876953125 123.23490929603577 L 171.61936793233647 123.44748897992673 L 172.89223312365638 124.44956348835076 L 174.63229713343412 126.25092450394575 L 175.67658628862458 127.49076098701693 L 176.85911008782787 129.14628858982218 L 178.36264840538 131.22635512360597 L 179.74951669640157 133.27127670047142 L 181.07152097791567 135.41604368450749 L 182.33133565550247 137.73746902124637 L 183.46802271718835 140.2103672993401 L 184.549415659633 142.6959807996716 L 185.5628787362354 145.43421939974462 L 186.16644553943615 147.71376842338609 L 186.67609506957075 150.00402114809782 L 186.9801035980643 152.31092289207075 L 187.10464975657462 154.7751107918724 L 187.17710162021308 157.1554055841289 L 187.17912697792053 159.95159912109375 L 187.17944244987257 162.0905751643898 L 187.1165795284326 164.09686645736247 L 186.81680229196968 166.08891111852606 L 186.44830213258544 167.9300647359426 L 185.93899429178964 169.77447149613604 L 185.41170392402503 171.75022632927568 L 184.95696550319084 173.06589741672457 L 183.93313565302952 175.4374986067013 L 182.2301308455368 178.33841724370058 L 181.8627512478844 178.75954002444035 L 180.99709678715428 179.1400069895204 L 180.41162506840487 179.4213548110827 L 179.88827968951833 178.89545568013628 L 178.75302718255676 176.96274820179417 L 178.3459909481829 175.736147029368 L 177.88130097107668 174.11520692385125 L 174.55033965392332 175.06655577146125 L 175.0219289736921 176.723813908132 L 175.51516129400574 178.40004476695583 L 176.75661777141917 180.94670740580122 L 178.60998137690763 183.1985182357923 L 181.73361610347072 183.6049881276671 L 184.2889821505531 182.68418556149715 L 186.0462363419632 180.97823314692442 L 188.05233797978298 177.5729994401737 L 189.26117414524666 174.78957133327543 L 189.85074724784997 173.07728831916182 L 190.40377914571036 170.97406366011396 L 190.93878282835206 168.9897350687449 L 191.36251899709282 166.87703126428644 L 191.7109351200049 164.51482787857503 L 191.79211516731493 162.1668711246727 L 191.79243063926697 159.95159912109375 L 191.79445599697442 157.0922750799336 L 191.72286489186288 154.5928091300026 L 191.5953358550607 151.90196773292925 L 191.25115102417925 149.20398666440218 L 190.68047828868885 146.61447864692641 L 189.9876583731396 144.01426692838038 L 188.8764876606795 140.9718658800159 L 187.72521458749915 138.3024500834724 L 186.48519266481003 135.64534347875363 L 185.08021242052183 133.08700807330501 L 183.62938955359843 130.75240494015358 L 182.13539846962 128.56820054045653 L 180.57802370123463 126.44416551174032 L 179.27580628950042 124.67134838798307 L 177.94338646031588 123.13347491011675 L 175.72226882946862 120.98097850383674 L 172.88990941141353 119.35548953569827 L 170.07598876953125 119.56806921958923 Z" fill="black" />
<path d="M 177.59968697434218 131.28703719945187 L 176.87723370147373 132.52305511210938 L 175.57629974230895 134.14771429262572 L 174.58868311289967 135.53186381891024 L 173.53117847428064 136.90007353047906 L 172.21359709869495 138.4831286769951 L 170.72513277165802 140.10344819096173 L 169.1534806028071 141.85017985227856 L 167.54628919185018 143.4402358979497 L 165.72441000891413 145.074010051728 L 164.30868803280237 146.31699666910626 L 163.0660894911387 147.28368734251796 L 161.02247180996832 148.49218855798196 L 159.470988926579 148.92850693549096 L 160.2268870499835 152.53169814263404 L 162.49254283846918 152.16723527014304 L 165.2023431260488 150.74817300904454 L 166.87661470157263 149.61281290120624 L 168.48579506921087 148.328333698272 L 170.48105455814982 146.6839096098628 L 172.3308943971929 144.97074299928394 L 174.03621976740448 143.16400786372577 L 175.60866852630505 141.4811047214424 L 177.06391429915686 139.76093721170844 L 178.23907567616283 138.25133930608976 L 179.23204986706605 136.85777887143678 L 180.84798602508877 134.65370270039062 L 181.16984427565782 132.33625381617313 Z" fill="black" />
<path d="M 181.6944439702297 140.76952674638304 L 180.69566547338627 142.07603098353744 L 179.60200391305887 143.51900688371634 L 178.41510659608906 145.29730509001328 L 176.81036218068166 147.6603471403336 L 175.87866340650675 148.9951577402461 L 174.85821606534248 150.46860367473434 L 173.72261467894003 151.97013943474528 L 172.5170091086529 153.6972723325493 L 171.3277846409767 155.13267572648667 L 170.10628391951238 156.64194881593164 L 168.74571538211885 158.0091537347898 L 167.35753762537433 159.42853008498832 L 165.88622612747358 160.7613649314166 L 164.34511469521377 162.1006047674031 L 163.10267852757556 162.95526957475892 L 161.97439069588947 163.69650086702276 L 159.63188638793744 164.71118057435933 L 157.74176493776864 165.239671290891 L 157.6305766783013 165.9031549152195 L 157.39992596495847 164.00960836661628 L 153.97946856629153 164.60208596932122 L 154.6850971498237 168.113812858218 L 157.99492939816886 169.1776871075465 L 160.85822591675006 168.78027450376567 L 163.80930071036053 167.69290342985224 L 165.45384002711194 166.83257222211608 L 167.09226323447373 165.8604548029094 L 168.97217231002642 164.4219846779584 L 170.66980612462567 162.97710956344918 L 172.19849848506865 161.4936538823977 L 173.75480006486262 159.98305118406836 L 175.1620835230858 158.31422368757583 L 176.4936110085346 156.7216729799507 L 177.77274664918497 154.89533908087972 L 178.90582202059502 153.36892073932816 L 179.97399772630575 151.7893881581914 L 180.91485754588084 150.3715132112289 L 182.47905844297344 147.85479451936172 L 183.52482714162863 145.92947944440866 L 184.41175640161373 144.21937917271256 L 184.9974505610203 142.49792930830446 Z" fill="black" />
<path d="M 209.37997062370695 125.94710569224242 L 207.5451427190463 126.86381816033322 L 205.755306071427 128.3140624930082 L 203.14448784590726 131.05295035177696 L 201.1078849272292 133.16033467188464 L 199.75210916332895 134.55430841561474 L 198.39317398961816 135.81394708121036 L 196.9272793797518 137.18953611993487 L 195.39705684155285 138.45760713518573 L 193.87086908489448 139.70751409876598 L 192.32807421022088 140.85241976217029 L 190.70759802696924 142.01130323212115 L 188.57121284716806 143.42814581471424 L 186.19427064068518 146.68010475292866 L 189.06471634461735 149.44107163299293 L 191.2762522910214 150.66159693707635 L 193.97245633753104 152.02638832067612 L 195.41053464532564 152.76179592052245 L 196.9365447309185 153.5218432665302 L 198.66829338865153 154.4965934482465 L 200.10891210969362 155.30541601850365 L 201.5148147849864 156.225447040327 L 202.81195089044047 157.15075960144844 L 204.01423248565027 158.09754525392398 L 204.96993667406733 159.00906165592608 L 205.8514450842178 159.95697554393064 L 206.76390733822015 161.4848772869643 L 207.13898067689527 161.52605039402917 L 206.5477023648029 161.8754920684154 L 209.6589626742596 165.0095176972096 L 211.58843631529223 162.85651796534583 L 211.17127332584235 159.6194928302232 L 209.8150588220322 157.19353715138186 L 208.46390121655767 155.63900963313642 L 207.18693938934973 154.42345083982602 L 205.72442606268453 153.26818571105156 L 204.2487350197011 152.2165695612355 L 202.62973535124388 151.15967187212135 L 201.04545172853597 150.2668342861285 L 199.2121369097065 149.2396313428448 L 197.56920168279936 148.42314060291505 L 196.09040987340646 147.70713218713638 L 193.3850025917911 146.44436009417365 L 191.23923873350765 145.41268813263207 L 190.40057799212732 146.07160423144634 L 191.04853812939444 146.69599969309826 L 193.01737755896826 145.33513231475385 L 194.70988965696662 144.11669644876721 L 196.33604009479302 142.90930719029652 L 197.97879765063465 141.63174833356427 L 199.6175204249357 140.27225587225263 L 201.17652815881934 138.87013495003964 L 202.59042013354605 137.62733220938526 L 204.1515144868333 136.26862040624036 L 206.32816840409274 134.14687874978554 L 208.8668863113855 131.4804931710543 L 210.1019520075162 130.30317402716676 L 211.43606941535555 129.24295778432008 Z" fill="black" />
<path d="M 115.66275631906316 113.52488417130873 L 112.39098238945007 116.121337890625 L 115.88809075931233 119.01376803539877 L 119.59623732055515 119.58289422140118 L 124.00946466216126 119.85622316328073 L 127.79155072474511 120.04656421696498 L 129.54970823678408 120.28365130735834 L 130.818566629074 121.02959209595309 L 132.6305300506135 118.06977313842191 L 130.87448609915342 116.96390728639166 L 128.3833760330674 116.14996898616002 L 124.38714178315124 115.56455320390677 L 120.08576951538235 115.16222296609882 L 116.91586431881267 114.68032376147623 L 116.73987698554993 116.121337890625 L 117.14119875906184 117.26637559431627 Z" fill="black" />
<path d="M 116.17947836198152 135.65479202154904 L 118.3121233044032 137.1890137741371 L 122.415771484375 137.24496412277222 L 125.1885986328125 137.24496412277222 L 126.74014728522152 137.22867906016114 L 129.0737061595362 137.25942998397744 L 130.59156933979173 137.6146986074527 L 131.13633567692057 137.73535844905186 L 131.25646553989142 138.64573886743406 L 131.08037643435583 139.45696254379328 L 129.96942488675865 141.01804322787262 L 128.09697744202072 142.7255742673186 L 127.04142786252561 143.44152607047798 L 124.52044783477886 145.02091824290096 L 122.4071880397656 145.95834558475224 L 120.62175057313185 146.60221573973016 L 118.08513474356192 147.23435287799344 L 121.01281541201283 150.98122342464325 L 123.70455584975967 150.94436136010603 L 125.47703347518733 150.94132428093323 L 126.9621455561302 151.1771592848373 L 128.2864945147021 151.816707493325 L 129.02533550182557 152.56206938600326 L 129.43141869855063 153.54551924024364 L 129.56481885910034 155.27203369140625 L 129.47152591651692 156.91103469724052 L 128.3626689087744 158.92859658595236 L 127.6261732740243 159.87809455848063 L 126.65233440047945 161.04787932345354 L 125.81156229160754 161.7932925783147 L 123.65575837433164 163.21074439217654 L 121.15892201609755 164.26818845001338 L 119.87032112690157 164.6844962751305 L 118.59764113985824 164.84928694021656 L 117.22382605349442 164.9091201950368 L 115.6817626953125 164.92228960990906 L 112.80189303287158 164.9374407297808 L 111.59170731414314 164.79156806686225 L 108.78604713709463 164.0059414387253 L 108.31470454487872 164.53435554625315 L 107.93738892897177 167.52407965424976 L 109.55619993549946 167.55919561998405 L 111.75161551756185 167.78613333756877 L 112.83241438933247 168.23795593584074 L 114.43787672261627 168.9002256270178 L 116.28655561708737 169.7419165737245 L 118.48345610609505 170.89615417081114 L 120.64183597297422 172.13288634803916 L 123.08842444183861 173.56480603497948 L 125.83887240484863 175.37454832542278 L 128.9473236295677 177.35260125257983 L 132.26660793894732 179.48623870917098 L 135.95162478317224 181.69145459902714 L 140.0630811069518 184.09049862024528 L 143.43935820368105 186.00121188800264 L 146.66911798362503 187.8475302611899 L 149.6043962113468 189.54408519007094 L 152.14610200067156 191.10774802585308 L 154.24056210390887 192.38518472087716 L 157.32352691761002 194.52914755016204 L 158.54258111572148 195.5856639294005 L 163.45324048943397 196.839828867647 L 164.01356752013956 192.74151342936702 L 158.60117857361044 193.07599145344548 L 159.41358079962853 193.056655507353 L 162.59572454834102 191.8083790393495 L 160.64583343395248 190.11220987171296 L 157.28287539609113 187.77680258381034 L 155.02003569464094 186.40165138820942 L 152.4122053511532 184.81223805211656 L 149.40571111793747 183.0804482544351 L 146.15353730413145 181.22315334637236 L 142.7958056117982 179.33015567662972 L 138.73282345901526 176.97456102597286 L 135.14367038136518 174.82552886895402 L 131.8729888704323 172.75506476304517 L 128.75158169671388 170.77926026832722 L 125.84834313628639 169.01051134783302 L 123.25342769890078 167.53959900352334 L 120.94647553452995 166.27388977450136 L 118.49799028135013 165.075832449713 L 116.38548753519623 164.1908388261072 L 114.56992936066753 163.52681457197176 L 112.62582588868815 162.92761177961873 L 109.77973756450054 162.75415887220345 L 107.83348509446573 162.78927483793774 L 104.17919193949628 165.92914543030935 L 107.52498801915537 167.9089755534622 L 110.66110030304436 168.82500908157525 L 112.61985989681592 169.0795270436567 L 115.6817626953125 169.09467816352844 L 117.30864464963058 169.1078475784007 L 118.95973190701676 169.04255876290844 L 120.74796500591093 168.8069588029945 L 122.62830942921495 168.29736330779912 L 125.67712736785586 167.10261010001096 L 128.38277364589246 165.3669857419978 L 129.81067829483305 164.13547028592146 L 131.0695054369132 162.67769157433187 L 132.1695576537256 161.24987021092264 L 133.72549556785808 158.26254928713448 L 134.02832078933716 155.27203369140625 L 133.76560278582437 152.51917802538136 L 132.69524555286193 150.07428315305924 L 130.8053023602979 148.192081569175 L 128.3125126469948 146.9798231370377 L 125.83644308731267 146.56502337531677 L 123.64773907211533 146.56198629614397 L 120.64978224423717 146.65024630191925 L 120.01239943612558 151.04775161419406 L 121.83308341124315 150.62886336183234 L 124.0088275852344 149.82131750118526 L 126.50494279022114 148.65669406178654 L 129.2775418640369 146.93286357795952 L 130.74274423766678 145.9471552248689 L 133.08355362886635 143.82595091275238 L 134.88947219845667 141.30805210464422 L 135.50561942104608 138.56580898412844 L 134.68946998714193 135.37218549626064 L 132.20933398052077 133.6410386972348 L 129.6219725514013 132.94528193008506 L 126.80599529290348 132.85091078358886 L 125.1885986328125 132.83462572097778 L 122.415771484375 132.83462572097778 L 119.1372175159093 132.8905760696129 L 118.35299234114348 132.44786911126346 Z" fill="black" />
</svg>