<svg xmlns="http://www.w3.org/2000/svg" width="300" height="300" viewBox="0 0 300 300">
<path d="M 96.06197531410002 95.84694256994266 L 98.04663522263222 97.23243805405212 L 101.61956787109375 97.31448006629944 L 103.67218017578125 97.33484816551208 L 106.26451816471084 97.33926716670665 L 109.56340779177526 96.91620564375907 L 112.84155765134663 96.30961534305735 L 116.5190792487429 95.60576374975453 L 120.3349917913615 94.69092410035528 L 124.11182259594717 93.701347468151 L 127.76116720314066 92.70713339656936 L 131.58214353483473 91.57224587679177 L 134.37616871005812 90.72281100915092 L 136.94303860834248 89.87050023781298 L 138.99199735168645 89.11504881857336 L 140.91273293967436 88.43147917016482 L 143.2149074661288 87.00658322758109 L 141.3724948776212 83.95130251460641 L 139.31736959938814 85.15397004858518 L 137.78107393737605 85.64654786111414 L 135.76081881353252 86.34251245749952 L 133.28618480556688 87.09176418616158 L 130.53455568391527 87.81886740445823 L 126.72125467185934 88.78603066593064 L 123.09642935717783 89.643623234974 L 119.347015044576 90.50585324339472 L 115.6366824700071 91.29267375024547 L 112.04003414552837 91.91511610225515 L 108.87226115353724 92.48467326249093 L 105.94129238216416 92.86239298954335 L 103.67218017578125 92.86681199073792 L 101.61956787109375 92.88718008995056 L 98.85460989455528 92.96922210219788 L 98.06644265464998 92.62803301599484 Z" fill="black" />
<path d="M 110.88668353977722 81.6461257869059 L 111.62442849092469 82.82676503352441 L 112.38054975030337 85.24971253447688 L 112.74546666388423 86.88634248336055 L 113.14186979853989 88.84160278826931 L 113.47655611572482 91.08349671109444 L 113.83038493933525 93.48980065410565 L 114.13520627629839 95.89295899891157 L 114.47682504319936 98.57337918498585 L 114.72948628292968 100.6819714520685 L 114.97744605888381 102.70570919646096 L 115.47786108912047 105.98888821490884 L 116.12151981384322 108.22183840472192 L 119.45526241271928 107.27950436871558 L 118.91056664525453 105.30835299602866 L 118.51071312080369 102.26035525666404 L 118.36255473269532 100.3302355791815 L 118.21909780836314 98.20970186970165 L 118.02055544245161 95.48484861827593 L 117.78521564660225 93.00824622089435 L 117.49085111083768 90.53478942171806 L 117.17734406864761 88.17219115704319 L 116.78151087517827 86.04847196976445 L 116.35419146063413 84.13163512177312 L 115.38179709501281 81.14930918522559 L 114.13895122584778 79.4271164005941 Z" fill="black" />
<path d="M 129.689550834588 82.00744488130859 L 129.53496377666772 81.18733400456549 L 128.62977334795016 81.41965293209816 L 128.59132776996887 84.5855886971657 L 128.54032182766676 85.95948097649355 L 128.26459910191352 87.59155236242353 L 127.80772072174854 89.50893037517308 L 127.20241710370028 91.55497665613541 L 126.47094009942494 93.81973609273261 L 125.6170573535317 96.23644325125804 L 124.6841418160985 98.74590727017576 L 123.7595760129196 101.24804432232506 L 122.64951180338181 103.92521066316354 L 121.70225840737729 106.00539010051533 L 120.80616687374784 107.87403131918256 L 119.84042837417519 109.60999479907156 L 122.86648080551231 111.29662141186594 L 123.88133312625216 109.47911809487994 L 124.85780018637271 107.51902396198467 L 125.89113761068069 105.39510183683646 L 127.1577823855179 102.66699474017494 L 128.2138074026515 100.13922456576174 L 129.2614826855308 97.64380577217946 L 130.24414779120005 95.18075218851739 L 131.09714344317473 92.84101943761459 L 131.82423728606395 90.65793974201442 L 132.41167042933648 88.49633826257647 L 132.78414106295824 86.44982078131895 L 132.87717808940613 84.6456124747093 L 132.83873251142484 80.70461464602684 L 130.09699423114478 77.23332029230951 L 127.02553705603698 79.44116351712891 Z" fill="black" />
<path d="M 101.45661358131528 123.31082950019854 L 102.76439175619682 124.2540805149917 L 104.59640076652153 126.02110631497027 L 105.77100905778875 127.21488253379793 L 107.08981494190678 128.56061240274218 L 108.5020186539059 130.05225741286588 L 110.017808431744 131.58707219667886 L 111.63156910387939 133.13139847700626 L 112.92505840540551 134.4528617040411 L 114.20768245661708 135.56905832849594 L 117.06831340410815 137.97094228721247 L 117.8480490952653 134.2060367076173 L 116.40420830618541 132.89126380450847 L 114.91052649119122 131.38798607485055 L 113.16886364209525 129.09210812420073 L 112.51185952565336 127.75250832661455 L 112.26052482789362 127.81882944871612 L 113.09947517835684 127.6130969259161 L 114.35256995677621 127.14175286690833 L 116.18140298283423 126.55428783096865 L 118.42221266529377 125.77334890323354 L 120.6510251660682 125.06572588390064 L 123.27576230112133 124.33597128447795 L 125.9677755831402 123.53737951466744 L 128.6373245121785 122.80560749945826 L 131.1320022171261 122.12824523098786 L 133.68595512089132 121.46087016538513 L 135.3264799714163 121.13871310291826 L 137.9040613180277 120.93421290352734 L 138.11721237283115 120.23695506526845 L 137.54559937257903 120.26896168325484 L 136.03489134693103 122.19154278803072 L 134.9740771751456 123.57893326191062 L 133.87841544188038 124.82277798697676 L 132.56602086576774 126.2314920939102 L 131.278132228517 127.70972603763998 L 129.95552207580025 129.15162558731376 L 128.6315859497139 130.52952155484664 L 127.0410262488974 132.12997310001273 L 125.70240663673786 133.38847307036417 L 124.35209886773148 134.6467264726857 L 122.99694547595286 135.82951354090835 L 121.71032221139642 136.9301603372526 L 120.38739806294191 137.98919200507368 L 118.90473662744319 139.27361223706916 L 121.17338837255681 141.89179303636834 L 122.60759705424559 140.64874744805132 L 123.91345708547858 139.6057283346224 L 125.25561800060964 138.47920227940415 L 126.67329175726852 137.2846700116893 L 128.09581113669964 136.04048200776083 L 129.5300186729776 134.79654057186227 L 131.2524472534111 133.21889153109086 L 132.70133827576225 131.84410195174874 L 134.151555271483 130.3831694701725 L 135.49245081391976 128.9585713826523 L 136.84485115968212 127.58957552864824 L 138.1258984107919 126.20585677715188 L 139.29775025463147 124.69041521978178 L 141.20806273679597 122.13362620737016 L 141.57272903341885 118.08665333316905 L 137.9687414163473 116.83885838553516 L 134.8566254973337 117.03474881114424 L 132.78804390254618 117.38825092836487 L 130.0844284469364 118.02214539401214 L 127.53760224563399 118.67107707085424 L 124.8055398465473 119.39072107127006 L 122.09594180044117 120.16866738739705 L 119.4270998339318 120.89032880359936 L 117.04653733470623 121.63412179989146 L 114.78600424372827 122.42972095809385 L 112.90573082447379 123.04342779715417 L 111.13392325914316 123.7482311990839 L 108.55185310179388 125.64454945753388 L 108.55259359934664 129.01409323588544 L 109.87618030321725 131.37810671954927 L 112.09569909474628 133.93696509702445 L 113.91500556100209 135.61178795330403 L 115.6401100844222 137.0497005970702 L 119.69682331464185 135.53699228310003 L 116.61568180119542 132.80887135900406 L 115.52159686803199 131.7979927881464 L 114.33034495862061 130.49189253861874 L 112.775160318256 128.88314264707114 L 111.3740799789066 127.3649789152591 L 110.01345654246822 125.82866982382033 L 108.70347824689875 124.42171414588957 L 107.50137755379097 123.11304895846723 L 105.37220492349068 121.0513394068833 L 103.51103778587222 120.01766171073896 Z" fill="black" />
<path d="M 106.93086596721783 154.81711050923712 L 109.35755476288213 155.53352333818017 L 112.59984941367557 154.4345878009725 L 114.36972748604333 153.7491568563762 L 116.40769406560106 152.92471301200905 L 118.61334964607498 151.8931206082236 L 120.95922691711253 150.80653888002422 L 123.37246475992676 149.71042205009692 L 125.99023651499229 148.4679510322275 L 128.13446900999136 147.50873085369955 L 130.07105472885422 146.62508847569316 L 131.67820386311038 145.94305745270347 L 132.92259936388226 145.49571023290292 L 133.68121705268155 144.45299086275082 L 132.57569669026984 144.21007405204008 L 129.73807130990815 146.89790051396557 L 132.12655271352935 149.40727526728443 L 135.23069979410516 146.43958415108492 L 136.35784544731845 142.11768784818668 L 132.11096997205524 141.97584738428458 L 130.43849535563962 142.45440348479653 L 128.62462398208328 143.09866640711934 L 126.60002806032114 143.91668418536295 L 124.38696075063271 144.80927064746 L 121.71115340413574 145.94411896552808 L 119.26294105163747 146.95005291685078 L 116.85540035392502 147.9905463839639 L 114.70375612971144 148.93588269111595 L 112.78054106864417 149.6879769326863 L 111.09338789101193 150.3288399334025 L 108.79002824493037 151.20683310713233 L 107.79569653278217 151.12246468607538 Z" fill="black" />
<path d="M 108.1026831878813 165.33227672642897 L 106.21322344809619 167.498880453863 L 105.42814473044908 171.4503335868456 L 109.019775390625 172.18914556503296 L 111.85735662659705 172.20857837412169 L 113.96302723316346 171.72642001626795 L 115.89334689410268 171.03013562970335 L 117.95761616438217 170.20215480793706 L 120.2271336037169 169.14669344000677 L 122.85904376114368 167.7571420401724 L 125.33712019431536 166.31146728398988 L 127.84433130722236 164.78104708000808 L 130.4202905356392 163.10489683697767 L 132.8419378764114 161.46754264047613 L 135.09159708690646 159.98057943400565 L 137.54967210430226 158.42185736684985 L 139.4114889806871 157.2452190266208 L 142.22262410798788 155.38263466622328 L 143.8503265711983 153.52814413397786 L 141.2412261631767 151.23528360039714 L 139.98806925138712 152.65899131033922 L 137.5056252771254 154.2247516765042 L 135.65833570819774 155.30031060190015 L 133.11091756153104 156.76954263630685 L 130.7512017720261 158.18541146108637 L 128.2753881752983 159.70113343645983 L 125.70181127090264 161.20308377936692 L 123.20352921974714 162.57549560663512 L 120.78414471541882 163.8825063973276 L 118.2665187400331 165.12051847405573 L 116.17873637468033 166.06701023112544 L 114.28182400433482 166.81556749529665 L 112.64708018871154 167.42055263998205 L 111.43976251402795 167.73917553212831 L 109.019775390625 167.75860834121704 L 108.50618144142592 168.4974203194044 L 109.30557538002881 169.8213099758245 L 110.9811791168062 167.75878772669603 Z" fill="black" />
<path d="M 126.10818631479061 120.95463740457475 L 124.97644397940869 119.34848587060765 L 120.70552739165576 117.89972135174366 L 120.49046852404194 121.727734224725 L 120.59746145257063 123.41605462375625 L 120.66388634773492 125.51557501167773 L 120.66156315803528 127.8577880859375 L 120.5761513710022 130.5604248046875 L 120.55777478218079 133.38818359375 L 120.5050064600389 136.45832675389642 L 120.2016043599458 139.89276318361007 L 119.7040500324265 144.09135713673336 L 119.10925744964781 148.1579217231173 L 118.33959650496777 152.51163236823342 L 117.4584381811029 157.10092519319966 L 116.51005120637213 161.78405250863284 L 115.385454042302 166.35805228801453 L 114.19820091399481 171.21090891756802 L 113.23458139817075 174.73143130653733 L 112.32174930691328 177.83885280006916 L 111.58498820293283 180.39630091641183 L 110.89436273067085 182.44426261930641 L 110.31272690575612 183.98925342792774 L 109.49265049178877 185.9695881185852 L 110.41373317176775 186.5142717608267 L 111.26751223674972 186.32265770515693 L 107.81635006793778 186.70737159171807 L 109.06624729698225 190.0692243329233 L 112.76015712539873 188.2616130532898 L 114.06471450049388 185.61243114238476 L 114.77946539432915 183.87922370881859 L 115.56528035175467 181.69805943515067 L 116.41299190402422 179.12550266868084 L 117.48075063307925 176.02686947471267 L 118.60575416413019 172.41543385586948 L 119.939252988948 167.53379341511047 L 121.19136480925287 162.87378440542966 L 122.2235686548346 158.07265879117534 L 123.17895818253223 153.42794282707908 L 123.99376989410219 148.9480353081327 L 124.587331803511 144.70649442576664 L 125.0260567728667 140.34673876951493 L 125.2628158055861 136.64921719141608 L 125.21004748344421 133.38818359375 L 125.1916708946228 130.5604248046875 L 125.10625910758972 127.8577880859375 L 125.10393591789008 125.44536248832227 L 125.02631784430437 123.19063482936875 L 124.88123557752056 121.4506105018375 L 124.37809077240674 120.14861849200634 L 121.83568980965381 121.47756393407985 L 123.08065645864689 123.14961064230025 Z" fill="black" />
<path d="M 121.2994384765625 165.17804384231567 L 123.39996342067376 165.373363647099 L 124.31203919182686 166.0599864253949 L 126.53551271793424 167.97680589088293 L 127.91397611518875 169.17595620229545 L 129.48803438476835 170.72672048754086 L 130.96841379982035 172.20079978205408 L 132.4392731629241 173.8038599481782 L 133.95134276628977 175.45730980577804 L 135.53960271252868 177.1755880536291 L 137.0052066758971 178.74677351441343 L 138.66842657895475 180.51553288919274 L 139.85842924961605 181.79776066373313 L 140.96468531177825 183.0000144298343 L 141.93778876534017 184.11991409656235 L 143.4470276129006 185.93961143026428 L 143.98608688069828 186.8270379099354 L 147.58739944742672 185.0268439260021 L 146.9381042230369 183.53695106973572 L 145.27839775809733 181.40279098156265 L 144.27091039134675 180.1453713123532 L 143.14450043788395 178.84518367220437 L 141.95779412417025 177.49984797018226 L 140.3080257459779 175.69011613402407 L 138.85675959215882 174.1082254229334 L 137.27607422589773 172.39815894422196 L 135.7632414855134 170.7483861455718 L 134.20919850486715 169.07324806950842 L 132.62866483398165 167.51937326245914 L 130.92574556449875 165.89203696176705 L 129.38733884456576 164.58874586692957 L 126.85739440192314 162.5517079105426 L 124.34844966526374 161.261401977901 L 121.2994384765625 161.45672178268433 Z" fill="black" />
<path d="M 170.79911771693008 105.11398520418685 L 168.35618259583077 105.20385295843924 L 165.56685850185417 106.73157670143877 L 163.861518401854 107.88677662161955 L 161.97815846407255 109.18372892602584 L 159.86368075749473 110.74035714651107 L 157.66470852808942 112.36330035829313 L 155.44352309285034 114.14597282598129 L 153.3103576341198 115.9936339667108 L 151.37977467318626 117.73369524787964 L 149.62416093757238 119.30782863916983 L 147.84566473950457 120.83880989344836 L 145.76714808950095 122.72499344913408 L 144.8190498600986 126.44912132230255 L 148.24423640102316 127.67782628795912 L 151.0983876552627 128.84635759690056 L 152.8845234501273 129.78415926285638 L 154.70072523559008 131.19714265621258 L 156.1498697586826 133.23473403210437 L 156.77076129659343 134.409637141983 L 157.32856284778458 135.94404211333253 L 157.80870291540097 138.02777473253676 L 158.43174866525038 140.5441127055552 L 158.66737962028878 142.94494269865473 L 158.90442301868876 145.70263068429045 L 158.96743314596836 148.60160836161228 L 159.03901478970897 151.7418875286457 L 159.0388834476471 154.94671630859375 L 159.0388834476471 158.4376220703125 L 159.04011511802673 161.27789306640625 L 159.043523311615 163.90545654296875 L 159.05006432533264 166.22021484375 L 159.06310296058655 168.322265625 L 159.07844805717468 170.03643798828125 L 159.11837958942698 171.96427160160724 L 160.80652695628052 175.5713986439394 L 164.1214361623198 173.00479932303313 L 164.8737981680818 170.41622489373796 L 161.5580865975432 169.40640694219954 L 160.8700189158052 171.54744677071687 L 162.20433730153198 171.8836794810606 L 163.10024834026052 171.53694910151776 L 163.14017987251282 170.03643798828125 L 163.15552496910095 168.322265625 L 163.16856360435486 166.22021484375 L 163.1751046180725 163.90545654296875 L 163.17851281166077 161.27789306640625 L 163.1797444820404 158.4376220703125 L 163.1797444820404 154.94671630859375 L 163.17961313997853 151.6952462604168 L 163.10715181496914 148.50434866963772 L 163.02611897349874 145.47254021414705 L 162.75901198127372 142.54968620759527 L 162.45448180349962 139.8205113178823 L 161.74513009241153 137.05669792371324 L 161.18095863659042 134.78618249604247 L 160.40636272684407 132.767120670517 L 159.4427816085049 131.03919174914563 L 157.47090562378492 128.47229093753742 L 154.9298076045602 126.58205167464362 L 152.6107187900498 125.41780255934944 L 149.41506535678934 124.20901453235338 L 147.5466727961514 123.98630348238495 L 148.43512241831155 125.33311201961592 L 150.31778740893293 123.66582877842664 L 152.10435468742762 122.16885593114267 L 153.91380442837624 120.58991315055786 L 155.8363708815052 118.9016297051642 L 157.91646225871216 117.17079963495621 L 160.05257662816058 115.52512737608187 L 162.21090420344277 113.99499441598893 L 164.30968333280245 112.52366853491166 L 166.1354298403335 111.31817943306795 L 167.70706727939583 110.34630415793623 L 169.67116115416923 109.24646442437326 L 170.93733247838242 109.21121010831315 Z" fill="black" />
<path d="M 173.2846052488361 102.02324224079142 L 175.8265696892565 102.22618431793605 L 180.01957205753558 102.2929668924104 L 181.50748771015714 102.24818246765616 L 184.37790484762593 102.49431195371366 L 184.69069866799907 99.04340777284884 L 181.76338631328036 98.76402456359384 L 180.19038887996442 98.5941180685271 L 176.064909802931 98.26051001800145 L 173.6013810792889 98.06306147014608 Z" fill="black" />
<path d="M 166.60285277400604 114.68227044197896 L 165.50308201835657 115.77489363590233 L 164.25334085180972 119.66188084959575 L 167.9719739314495 120.44696282876359 L 170.7726062270638 120.45338621910506 L 172.622784125436 120.36000788543586 L 174.41118802240803 119.91534915464281 L 176.37172126213954 119.48775744417485 L 178.2721875694623 118.89486166507594 L 180.0998922796801 118.32372650069202 L 182.06667423242232 117.73590646527634 L 183.9082887006063 117.16405151386616 L 185.54353620834544 116.67753366691423 L 188.37157725847308 116.01776714138754 L 189.83437388277886 115.93939602063107 L 189.67734486722114 112.47454440905643 L 187.82715321027692 112.54631977267496 L 184.71342179946706 113.18782277839827 L 182.9276487993937 113.62720825175884 L 181.06015682226518 114.10637869097366 L 179.0657571343824 114.59460846024548 L 177.1843553992877 115.07449868648656 L 175.41172600348546 115.53262829801265 L 173.51910982915447 115.88079342348219 L 172.030536187064 116.23691594268914 L 170.7117687729362 116.26865967933244 L 168.074778998238 116.27508306967391 L 167.07600485131528 116.80992090821675 L 168.16696192695593 118.59485734066017 L 169.33586792911896 117.43528326895854 Z" fill="black" />
<path d="M 165.27264200560336 131.7834880683935 L 161.94115740320896 135.11354270890743 L 166.8990742514608 136.90803359235815 L 169.75545903251705 135.91708711378135 L 171.50596517710466 135.21344321865038 L 173.12034480838238 134.47044837889422 L 174.76925716550144 133.72006840373368 L 176.43981579609127 132.90156276010794 L 178.30885778127373 132.06863600818016 L 180.21133181507852 131.1664489752137 L 182.35530572487323 130.33876222551933 L 184.11673696021674 129.71561961900107 L 185.77005687313851 129.25607446346115 L 187.13624295598365 128.9883311489791 L 189.26424009775093 128.92699338304703 L 189.16715638662407 125.46228884351548 L 186.82982149714135 125.52607314789587 L 185.02706226748649 125.80886694278887 L 183.11531870384576 126.25020069349891 L 181.16764349387677 126.82822996198067 L 178.81027463023398 127.57708129822377 L 176.75156702341377 128.40157883556984 L 174.80347033672123 129.14519016957956 L 173.05300845949856 129.90322261189132 L 171.38893253536762 130.60425865235578 L 169.83436685414534 131.31267982822462 L 168.27188471748295 131.93532987840615 L 165.9787333657267 132.77116562639185 L 166.07520001866604 134.96604713484257 L 167.49713338502164 134.867757048794 Z" fill="black" />
<path d="M 167.6395568226439 146.7844659603068 L 165.92918894705755 149.9592947032511 L 170.03904780283574 151.4792539041056 L 172.80759697419634 150.4062680861392 L 174.4686444455054 149.5860023133631 L 176.26217515174494 148.7120647476822 L 178.18191373317663 147.69714638105495 L 180.25653470907372 146.61349609240156 L 182.6093753171458 145.39696507690218 L 184.71582651838324 144.2889482936499 L 186.79916247934324 143.19397602532547 L 188.73754501007082 142.15597948508142 L 190.4967211159675 141.25139656380796 L 192.06564365652986 140.41107726251298 L 193.6692972494658 139.58949202872216 L 195.2970779647543 138.45228879272054 L 193.3253585586832 135.58115847290446 L 191.8922261880342 136.54600601815284 L 190.47097743722014 137.17583679998702 L 188.8709546652825 137.93707999869204 L 187.06506729461668 138.73415723366858 L 185.04226818471926 139.67308940436203 L 182.91234730974176 140.6801679172876 L 180.7695309328542 141.69922632934782 L 178.36895357217628 142.83499023572344 L 176.23031771213587 143.87841514238255 L 174.33291762169256 144.8404254866928 L 172.5613848513696 145.6681480772619 L 171.05348701017866 146.4244203904233 L 168.92457524403926 147.3283632833944 L 170.00953175606745 148.9984689686239 L 170.6758728648561 149.2704656803182 Z" fill="black" />
<path d="M 178.70748466431817 125.91373431957162 L 179.17412550762788 127.46429996418803 L 179.43258220671277 128.73801868233252 L 179.81665252013573 130.7174830639034 L 180.14382834708263 132.84753803664657 L 180.39543411581164 135.54462363896675 L 180.67361486761087 138.78709191203342 L 180.81220028190796 142.3315536922549 L 180.83261442184448 146.1756591796875 L 180.85593104362488 150.59246826171875 L 180.87190687299287 154.40691381082925 L 180.83358957843697 158.06716165347723 L 180.50955631418063 161.52851652364697 L 180.12477193486063 164.7776654494354 L 179.7335498085851 167.58891642466838 L 179.33950745612867 170.48784302694747 L 179.0887525516374 172.19277009759878 L 178.76746872982824 174.58973761014136 L 179.59052103574678 178.18659349183295 L 183.14865642007894 177.03883711892098 L 185.10440798446143 175.4009444688159 L 187.43846919731004 173.05488536995438 L 188.75704039041634 171.64212502320171 L 190.0618909132865 170.1604747640223 L 191.65128131480097 168.5151005617897 L 192.93819606421684 167.0382310449597 L 194.19542945671373 165.64932029270707 L 195.52935266019537 164.33316316614983 L 196.7413539696427 162.97587221377344 L 197.86058703618525 161.78825310362006 L 200.1669962208405 159.51893539913726 L 201.81002823086678 157.96678525015898 L 202.9454169045818 156.9444520271096 L 204.04368425107097 156.1615933730203 L 202.26002668642903 152.9310579941672 L 200.7295098532307 153.5996153557029 L 199.09207137850822 154.70435732796602 L 197.170039911972 156.30528335086274 L 194.72303112787725 158.64045783387994 L 193.4655552100448 159.95528012997656 L 192.30084753511713 161.25057706822517 L 190.96997581672377 162.56198341823043 L 189.59842502953316 164.0759046972278 L 188.36458782582403 165.5018672116478 L 186.7850329148385 167.1597156656652 L 185.46109925802116 168.70601950804829 L 184.25891849800246 170.04594470817062 L 182.12764767960107 172.3294022108716 L 180.51833576742106 173.84458573264152 L 181.41167622987822 174.67375807066705 L 182.63084669985926 175.11753778048364 L 182.9937669796126 172.75986662115122 L 183.24716246574633 171.03644896524003 L 183.6453564414149 168.12971150501912 L 184.04637064326437 165.2854449021271 L 184.45382259206937 161.95317292947803 L 184.81399342937553 158.28256979183527 L 184.88370836138213 154.43549341573325 L 184.89968419075012 150.59246826171875 L 184.92300081253052 146.1756591796875 L 184.94341495246704 142.2621963077451 L 184.82992517145163 138.54957800984158 L 184.56794479043836 135.18560097040825 L 184.31540016854237 132.35229106491593 L 183.95837189392677 130.0029759204716 L 183.55020587922473 127.90346080985499 L 183.16046921893462 126.14922542643697 L 182.18668037474433 124.39656841480338 Z" fill="black" />
</svg>