<svg xmlns="http://www.w3.org/2000/svg" width="300" height="300" viewBox="0 0 300 300">
<path d="M 139.47300890916028 77.47253267494135 L 141.1319667327266 78.65142685752801 L 144.53534319969458 80.1969967005154 L 145.83658591206424 80.7595341477015 L 147.16046684368897 81.47517740481337 L 148.43508692257902 82.34732221764165 L 149.67768766531626 83.21033332965543 L 151.65470979562124 80.36535026409457 L 150.41256932742098 79.50167680579585 L 149.02239448443603 78.52201497799913 L 147.57344826762326 77.6611201491735 L 146.24590680030542 76.7722415807346 L 143.0593174469609 75.16473525184699 L 141.80140515333972 74.24157865318365 Z" fill="black" />
<path d="M 110.80230712890625 103.76017880439758 L 113.10699462890625 103.97562766075134 L 114.8895263671875 104.01289105415344 L 117.1942138671875 104.03664255142212 L 120.27719414266053 104.05335384292209 L 123.95832950598343 103.72793552029877 L 127.84880868918022 103.12458247993601 L 131.9186323567194 102.467915447053 L 136.52190836252527 101.58484994512429 L 140.613542545907 100.69583773416136 L 144.6022982926099 99.66333772409271 L 148.36243781439276 98.68480982599255 L 151.953341933188 97.68503674373888 L 155.11733199271498 96.69599484341755 L 158.47175742534355 95.71169615523264 L 160.86740963459587 94.92895646108157 L 163.0440922655301 94.22047017651525 L 164.90895486208723 93.58884509083313 L 169.64221652037563 91.24403258894407 L 164.3346037218409 89.43146138397631 L 164.8701081922216 92.86248392852369 L 166.29650418274937 89.99888733293093 L 163.75559591916277 90.15651623729187 L 161.9473628125949 90.70103861254725 L 159.76674563884163 91.31884627329343 L 157.40897987934395 91.98752259476736 L 154.02939652291002 92.83000613314495 L 150.855495957437 93.69277087344862 L 147.31627312310724 94.54480443181995 L 143.5501675277026 95.41808317434479 L 139.6165599931555 96.36251187521364 L 135.64178792653723 97.17515982050071 L 131.1343461589056 98.0187788888845 L 127.13776357644478 98.66338138725149 L 123.39396541589157 99.26120022188873 L 120.05300605265197 99.58641666489041 L 117.1942138671875 99.60312795639038 L 114.8895263671875 99.62687945365906 L 113.10699462890625 99.66414284706116 L 110.80230712890625 99.87959170341492 Z" fill="black" />
<path d="M 123.3082229087545 107.21792721885433 L 121.85527326320937 109.5348668883046 L 122.2301988403913 112.87263487661039 L 122.2984622804927 114.94807180125235 L 122.29875660994949 117.70799232872933 L 122.25398184642594 121.08676509395883 L 122.15121983333566 125.13495908100487 L 121.9666663809185 129.88834608050166 L 121.42078366764525 134.48698264543899 L 120.50020108298568 139.62898071770795 L 119.39319860603608 145.06756180947804 L 118.07537278091823 150.71227157159225 L 116.63011523948416 156.2942764017255 L 114.91676422484454 162.38382776579954 L 113.33238292033678 167.24013500380033 L 111.75703038836929 171.9990728384613 L 110.15363564183295 176.63046070244698 L 108.57961310160547 180.95272627813122 L 106.99574251168012 185.18971100741425 L 105.38444213339204 189.65461198772624 L 104.07022508856556 192.85847354164676 L 102.66216368156626 195.9434905676062 L 101.16894730413702 198.7323982581335 L 99.75876554662513 201.2779990254249 L 98.35856491631512 203.41267818359603 L 96.93249615836227 205.48939483168752 L 95.91452577804267 206.47964468779435 L 94.78861312932713 207.33506450575234 L 93.70544783134821 207.9873907419299 L 91.64916139917909 208.8852961949559 L 90.10003005826411 209.29647032300525 L 89.2857833717802 209.61561112428458 L 89.01852546238446 208.9921917073502 L 88.91063168500442 206.91702702791792 L 88.8936419072765 205.34273508774115 L 88.9642925027491 203.38157471502836 L 85.5022602316259 203.25624266778414 L 85.4288678583485 205.27396413100885 L 85.41187808062058 206.97787043301958 L 85.44802727199054 209.9075885660873 L 87.2693924094698 212.98778243040292 L 90.56037033236089 213.30692323168225 L 92.97242063207091 212.7921940394191 L 95.52550919990179 211.7131707815076 L 97.10713882379787 210.78895893174766 L 98.61001035476983 209.66745003876815 L 100.11279192757523 208.28038055893748 L 101.96370070868488 206.12797123046647 L 103.73244539087487 203.9334267558251 L 105.49120894586298 201.3239982262415 L 107.31098084968374 198.4573883386438 L 109.07186475518444 195.21122860679074 L 110.67451782754546 191.80864484821126 L 112.48423795706988 187.31480559414825 L 114.21335564839453 183.11856278436878 L 115.91631064722955 178.73233226630302 L 117.62590418194321 174.0045892709137 L 119.21949696247572 169.15415210557467 L 120.80406097046796 164.12581578888796 L 122.51173046364084 157.8282821920245 L 123.83930007064427 152.04920303778275 L 125.04222619865142 146.23273115927196 L 126.05985751076432 140.61052123541705 L 126.83177980891725 135.19221657331101 L 127.222176392519 130.18147813824834 L 127.18166590885184 125.17534365337013 L 127.07890389576156 121.04055424197867 L 126.89008616348801 117.56263755408317 L 126.6383052976323 114.66704050343515 L 126.3104505736712 112.38822938120211 L 125.89313982272813 110.0704797913829 L 126.4207809974955 109.08419680458317 Z" fill="black" />
<path d="M 131.4657468096284 117.07115102037739 L 133.5867571323573 117.41326842575128 L 136.65111530555149 116.85018896874827 L 138.43932674913555 116.32016965436841 L 140.3490814824816 115.80749067291251 L 142.48804128704342 115.15361910414806 L 144.96330612986424 114.36274352359244 L 147.19298592001422 113.58009460368453 L 149.34725847176975 112.73324373036728 L 151.36771940478147 111.85663384536875 L 154.4524880520074 110.24434226645864 L 156.41454254723473 108.22963912671666 L 153.92054046057777 105.82028763109584 L 152.4255637058051 107.38407570229136 L 149.85664582959353 108.64959174056875 L 148.02395734854275 109.37454435557022 L 145.96497306436078 110.10423156819047 L 143.83735304982326 110.77299866390756 L 141.41515695514408 111.43353909897694 L 139.3408599237684 111.95581499114999 L 137.43347598523945 112.36903933000659 L 135.76465617882351 112.76492333593923 L 133.1753278285802 113.25286926956122 L 131.5872317059966 113.46986460462261 Z" fill="black" />
<path d="M 144.082863384965 102.82123232995859 L 140.2289056042469 103.40036066024673 L 140.8086261662528 107.07211397588935 L 141.50179886303408 110.1800738926138 L 141.95001746617302 112.29886214911615 L 142.4017002289871 114.93021957428718 L 142.78681362308612 117.70042113571421 L 143.10979129587562 120.75180615146938 L 143.43807433357583 123.95539139420238 L 143.719754032655 127.19368953829743 L 143.86232043824523 130.4426502300843 L 144.03702611232234 133.83602790096828 L 144.0641589164734 136.4912109375 L 144.09413254261017 138.93109130859375 L 144.12532051974966 141.13826782648505 L 144.0934178939793 143.0349670757682 L 143.86845699900243 144.57545447752446 L 143.71714484358418 146.01786770817444 L 143.91065967272425 146.68106225100345 L 144.1243974447465 146.01517596473062 L 142.299552750566 148.98873028526938 L 145.28611767102575 150.02450415524655 L 147.20814812516582 147.13423190120056 L 147.56098636037257 145.14830040528804 L 147.8761865982082 143.3855651507943 L 147.98832694118784 141.20328490788995 L 148.01951491832733 138.93109130859375 L 148.0494885444641 136.4912109375 L 148.07662134861516 133.74112053653172 L 147.96324108519227 130.2778087542907 L 147.85373229547 126.94534854764007 L 147.59525086173667 123.57720137923512 L 147.27534054006188 120.32448779384312 L 146.95012485347638 117.19484253616079 L 146.5430019194504 114.28450210540032 L 146.05840538538948 111.51058609307135 L 145.57034469165342 109.2751263026987 L 144.8230877009347 106.05190946161065 L 143.9623785754406 104.71877996475327 L 142.9892801697225 106.22381161535391 Z" fill="black" />
<path d="M 145.08542396265585 124.4290639435409 L 143.52107499275948 121.89065457205942 L 139.94748743531883 122.00773962995801 L 138.17127848713983 123.70402611141937 L 136.51600420187597 125.62721458159383 L 133.72526169083096 129.23790427967785 L 132.8493792241733 130.55118594402123 L 131.9441469255967 131.78498017455445 L 130.30819571072374 134.12373178184856 L 128.95838584642507 136.137404113531 L 127.96082264654987 137.54486310096328 L 130.73485606438763 139.66668475059922 L 131.86192665357493 138.296433777094 L 133.39297616427626 136.35624868690144 L 135.0700132306533 134.09050810669555 L 136.0013287836392 132.94698300129127 L 136.99800491073154 131.75782325938465 L 139.75291669656153 128.23655494965618 L 141.26658772379767 126.48115455264313 L 141.86708775999367 125.67499962785449 L 141.46244551505302 125.39169406075308 L 141.87868736546915 126.2816294158341 Z" fill="black" />
<path d="M 142.31322520162018 129.05629917370342 L 143.58608690249272 129.2830225118569 L 145.14296845386247 130.06061352309533 L 148.31901173997514 131.84987832543007 L 150.82455418843298 133.25129832150625 L 152.46028756414452 133.98050385778424 L 154.18329064557466 134.41507068763156 L 155.07147009661284 131.06002696861844 L 153.76957083429298 130.69381254846576 L 152.77652003031702 129.97160206911875 L 150.38460154127486 128.34506796363243 L 147.07871123363753 126.45574389877966 L 144.81845411313228 125.3815282693931 L 142.77832753275482 125.20786098254659 Z" fill="black" />
<path d="M 155.18837413079206 118.63483260614943 L 157.78340083090183 118.6682574268998 L 160.87890804881098 117.76203357044704 L 162.58770968232201 117.22817989966462 L 164.53179890496693 116.62901044267825 L 166.6938954602937 115.99418656029913 L 168.96812617598115 115.28819587010716 L 171.27315636413707 114.48339910837434 L 173.15313786354994 113.83114027047041 L 177.50119390646682 112.4461261136538 L 179.38307637564486 111.49005357626223 L 177.94602518685514 108.24041517373777 L 176.26284417947068 108.8608807222837 L 172.00433283957506 110.10343004202959 L 170.06717566711293 110.65234307912566 L 167.76283085526885 111.29896233301784 L 165.5357187975188 111.89424117407587 L 163.34051554815807 112.46058916669675 L 161.32342313017799 113.03756717064788 L 159.61120425587652 113.55473889049046 L 156.90898198159817 114.3751996043502 L 154.85862293952044 114.80901505010057 Z" fill="black" />
<path d="M 169.72159008240962 100.35115873473299 L 168.0848590081659 102.21331480471424 L 167.96430184084426 105.62107990016302 L 168.3681370646075 107.82295490387301 L 168.81898150792668 110.25511450215012 L 169.32521205554974 113.00913162878065 L 169.86056922226146 116.02206976165684 L 170.44843733141505 119.4124707647195 L 170.90833651555533 122.56796704053663 L 171.26767727630536 125.76456799477091 L 171.62098107036607 129.0096265093619 L 171.85108564580335 132.11587054559584 L 172.00644850552231 135.124353452213 L 172.1861659332402 138.31791781244078 L 172.22114324569702 140.58270263671875 L 172.25534868240356 142.55963134765625 L 172.29113653735948 145.4539664238906 L 172.15372505650728 147.46148901156695 L 175.66854056849272 147.79266137905805 L 175.92724725170302 145.5960824042344 L 175.96303510665894 142.55963134765625 L 175.99724054336548 140.58270263671875 L 176.0322178558223 138.21797085943422 L 175.92384934604019 134.955236391537 L 175.82713701044665 131.90781109502916 L 175.66112342182143 128.6828783734506 L 175.36623385650714 125.34651598960409 L 175.04137051569467 122.06179370165087 L 174.60100114514745 118.760991149343 L 174.00051476211354 115.29470269928066 L 173.45554966320026 112.25173262903185 L 172.91746868738582 109.47535424784988 L 172.43203383383 107.02775310393949 L 172.04363272946824 105.27577068577448 L 171.9230755621466 103.27826234372326 L 172.41097827696538 102.88822114807951 Z" fill="black" />
<path d="M 172.80995623919182 119.30856705878456 L 170.36492410202115 117.49856174870274 L 167.28349244744194 119.22774150120662 L 165.60103044305396 122.00112582112988 L 164.2308203955512 124.33051509464786 L 162.68710052389983 126.77803516710993 L 161.82056696042505 128.0918138121253 L 160.94931651986911 129.46370239443146 L 159.9943480162338 130.8641296200585 L 159.15129475683943 131.96637168669818 L 156.83893704095138 134.51125472895185 L 155.37594265418386 135.6848052862549 L 157.33584933800364 138.6239105340576 L 159.43791842779862 137.42014175542315 L 162.13105387597307 134.68487343048932 L 163.2685914368912 133.4097961611915 L 164.43825672231839 131.90739135556854 L 165.40355413332495 130.5265943909997 L 166.37356842141267 129.18778514539008 L 167.9987938622613 126.63042240535214 L 169.40141096319604 124.23019742105762 L 170.74385130255806 121.84855244410588 L 170.03912863235385 121.60080348567226 L 170.25889141705818 122.16811751152794 Z" fill="black" />
<path d="M 169.50192223208703 127.26977280674558 L 171.3708218065244 128.00162964010008 L 173.64184378015918 128.75405594241778 L 175.68399226082255 129.22237055791092 L 179.02547579852927 129.99588055318054 L 181.14802646857865 130.47700361458476 L 182.98987184575262 130.9633323143963 L 184.70063565799163 131.91494965496167 L 186.49260164669587 128.93063139972583 L 184.49425901362238 127.6550758887287 L 182.23087978142135 126.81511064322773 L 179.99613064678323 126.12008624369446 L 176.60360539542745 125.2920337389641 L 174.68457223546582 124.85946944820722 L 172.5982944044131 124.28560180521242 L 170.79409827572547 123.69116469325442 Z" fill="black" />
<path d="M 147.02520844650792 159.03271389083218 L 147.38166594557305 161.08070960291548 L 148.11013575511822 163.11950943237213 L 148.5444664102967 164.56771170324163 L 149.04348872255454 166.34560162909347 L 149.56289756766137 168.52879208388447 L 150.05966304017022 170.814755563188 L 150.43844057637716 173.35760657876938 L 150.75033486680593 175.95886702539528 L 150.88661959712445 178.6001203839809 L 150.88362860679626 181.24737548828125 L 150.8804566860199 184.27532958984375 L 150.88826063837814 186.4425036344336 L 150.4718212211866 188.43603171863091 L 149.8492883615517 190.46276263215492 L 149.18181393080985 192.29827146965863 L 148.37853983117628 194.0053364200739 L 147.3965593989339 195.8807838894863 L 146.71838793264038 196.9409116896776 L 145.24042286805283 198.62594153143573 L 144.4597893649359 199.25622687665637 L 144.1422029706807 199.6186520838037 L 143.02326811655738 198.57389711384386 L 141.80066299726172 196.69769306292451 L 141.09044189909767 195.43572230560466 L 140.30307219019187 193.99321975582737 L 137.26223542699563 195.65302047854763 L 138.05933837433983 197.11334996002034 L 138.82555770586328 198.47894267926299 L 140.23173676625512 200.83186460490614 L 142.6778653886943 203.2154543615088 L 145.9253424710016 203.05236687334363 L 148.06157908507217 201.70572350762677 L 150.00463452829712 199.5620179978224 L 151.0549786870036 197.9945823214512 L 152.16162130163622 195.8911479549261 L 153.08686282700265 193.91962403815387 L 153.8598180837608 191.80127545378258 L 154.5696826850634 189.47375832043159 L 155.08952256474686 186.8627942171289 L 155.0973265171051 184.27532958984375 L 155.09415459632874 181.24737548828125 L 155.09116360600055 178.4893571550816 L 154.93936239881907 175.60021500585472 L 154.60306332987284 172.79620201498062 L 154.18960453795478 170.0589016633745 L 153.64205848702613 167.59022647080303 L 153.08114506650796 165.29404680840653 L 152.5358558553283 163.39334786707087 L 152.03390721363178 161.78857162231537 L 151.32194733567695 159.87351402989702 L 150.74212553786708 158.11779880448032 Z" fill="black" />
<path d="M 131.69038617300998 173.98155189327068 L 134.2651705309976 174.70490955794222 L 137.32542991391873 173.85092559469484 L 140.14093958690836 172.88455582966972 L 141.63469926832417 172.31760602867024 L 144.4554357920761 171.4182211530926 L 146.97057983787593 170.57817073091925 L 145.93530395118657 167.26753239408075 L 143.4089440907364 168.0040200578449 L 140.57599409105083 168.80629533851726 L 139.00884068652914 169.16524885783028 L 136.17066383608127 169.92556366311766 L 134.0813870861899 170.52299571549528 L 132.69498980355252 170.19532798954182 Z" fill="black" />
<path d="M 134.4079333538048 174.70300092181992 L 131.45418675504067 177.8914350131008 L 135.98852878496524 179.3963504414146 L 138.11580896627484 178.78113965521808 L 140.37325407450896 178.0545594551561 L 142.6807432906028 177.4593045905161 L 144.67156752367382 177.09054470858098 L 144.12909165601368 173.66775607266902 L 142.0146912797097 173.9496309563589 L 139.46073030049104 174.4054014823439 L 137.07278966653766 175.00511522759442 L 135.23888820722226 175.4409298320229 L 135.41593043245933 177.4713579556492 L 136.5674084430702 177.75696001568008 Z" fill="black" />
<path d="M 131.68034659514285 184.9629604272934 L 129.9328507696439 188.41207392621524 L 133.43505859375 189.48942804336548 L 135.9171222963695 189.39584179901027 L 138.81597093747408 188.63362365139676 L 140.3401224903178 187.9881523632818 L 141.94669104198016 187.3952495696111 L 143.77731708069294 186.56807393415008 L 145.42829006417168 185.80323683485668 L 147.2676765735362 184.98263857147506 L 149.05334658662085 184.02543614208867 L 147.41760067900415 180.97175624072383 L 145.7462394420888 181.86636045196244 L 144.02056247489082 182.62230027451832 L 142.39455791930706 183.30887919084992 L 140.66012048145734 183.9331195710139 L 139.0977437206197 184.3912421679682 L 137.70502515627592 184.79679627047824 L 135.310294695818 185.36087206817723 L 133.43505859375 185.39240789413452 L 133.3722029412936 186.34463994097226 L 134.00141610016965 187.9419467992691 Z" fill="black" />
<path d="M 162.25261638565524 151.9785046237732 L 163.27279190814193 155.16945732978775 L 163.79240503194382 156.6717361667611 L 164.38715087748193 158.75419335904374 L 164.941505144218 161.01621175127323 L 165.43904126532186 163.75909683423833 L 165.93935891352606 166.95847814022684 L 166.23479992776848 170.5496628283423 L 166.46614750457078 174.45461011205967 L 166.6389963887778 178.92376132753412 L 166.640052318573 182.886474609375 L 166.64615178108215 187.1156005859375 L 166.65577535992657 191.37524466844306 L 166.6055719421897 195.53652722944932 L 166.46117523329406 199.520754685891 L 166.3278309173775 203.71735861096965 L 166.1233671317292 206.71349367311453 L 165.99524435803352 209.4078118790664 L 165.74982472058446 211.76170450012287 L 165.55811225460266 213.82830165404528 L 165.30045524082112 215.5963142911482 L 164.99463138298225 217.33753205336214 L 164.49262415380534 219.40904974407772 L 164.33694012624113 220.107968930232 L 165.39433481592695 220.5621070790377 L 165.33792237060516 219.68368437985438 L 164.89837696116464 217.102369085022 L 164.75224797584545 215.2951506503445 L 164.67775703858672 213.20629136129784 L 164.54995352488783 210.55595317962278 L 161.08969491261217 210.72114642975222 L 161.21396659422578 213.35095961526466 L 161.28351862571705 215.466201888718 L 161.38946483571036 217.487718805603 L 161.74215575439484 220.58694550295812 L 163.41425893407305 224.0627708506498 L 167.38852374094637 222.790224429143 L 168.38518346338216 220.58631158404728 L 168.96349849983025 218.17845915757536 L 169.30586800136638 216.2410880526018 L 169.58837212039734 214.30548740845472 L 169.79277781847804 212.16798299987713 L 170.05150857165398 209.7672369490586 L 170.3195039620208 207.05628171751047 L 170.655201309185 203.99650857653035 L 170.91797515733094 199.734860548484 L 171.1696966124978 195.68625109086318 L 171.26353616351093 191.41430611280694 L 171.27315974235535 187.1156005859375 L 171.2792592048645 182.886474609375 L 171.2803151346597 178.81635097715338 L 171.05704585480422 174.20163988794033 L 170.74823229879402 170.1988723279077 L 170.39547995366144 166.40785486758566 L 169.81547533624064 163.00079086107417 L 169.268699933907 160.08815836591427 L 168.63469970845557 157.59553808626876 L 167.93305883524368 155.3237472316764 L 167.26431746685807 153.54782782646225 L 165.61969806746976 150.5327258449768 Z" fill="black" />
<path d="M 169.32135868580735 169.38262388808957 L 170.9038893411036 168.82660866728716 L 173.13101186832168 168.11094867448276 L 175.30287798818517 167.1580547232662 L 178.65357398319554 165.85762065257614 L 181.36315228400426 165.13236513761012 L 180.57532427849574 161.75264462801488 L 177.59520531367946 162.35368305836136 L 173.95981732431483 163.5556903939213 L 171.77438363949082 164.32948101301724 L 169.5001633932714 165.06523703583784 L 167.80571650950515 165.96063783066043 Z" fill="black" />
<path d="M 169.06204611915925 180.88541923199253 L 171.53500734383826 182.04752253923252 L 174.53470794520646 181.52359596643743 L 177.31396561670985 180.65960761242425 L 178.77233114922274 180.09630131338758 L 180.17489584491923 179.5927126892657 L 184.04856544710856 178.43686372614934 L 185.5288055679462 178.14057933585397 L 184.9802276351788 174.71977222664603 L 183.18349021695394 174.94900053166316 L 179.13479653789327 176.0453488341718 L 177.62049111640226 176.46766353036242 L 176.16198653172765 176.83026055163825 L 173.53963287510604 177.54281028356257 L 171.92995847647424 177.94478703107998 L 170.69381325584075 177.38020576800747 Z" fill="black" />
<path d="M 170.46639268953638 194.81499092830288 L 172.6731780798749 195.0264992000453 L 175.49709108820053 193.7516391063452 L 176.99503120289768 192.99055499327145 L 178.63142893542803 192.1188028688267 L 180.27252203209366 191.2644110764566 L 182.07586782385346 190.40455123957454 L 183.9934599892011 189.53079861690819 L 185.9224959210128 188.80464032153057 L 184.7305802508622 185.55168292065693 L 182.6984345420489 186.27694064090431 L 180.65484506677154 187.10484817448796 L 178.74908441321884 187.8465508376059 L 176.96915700207197 188.5686971311733 L 175.29256645335232 189.27348309266605 L 173.76560422429947 189.8386929249048 L 171.5840240685626 190.7910056827672 L 170.62186414640112 190.87739188419712 Z" fill="black" />
</svg>