<svg xmlns="http://www.w3.org/2000/svg" width="300" height="300" viewBox="0 0 300 300">
<path d="M 107.80631839519123 96.88536465023586 L 109.82269253056258 97.886680588904 L 112.80679949453906 97.98654205449006 L 114.63911436573743 97.98086172746594 L 117.01914316344664 97.81479850043382 L 119.46046707102852 97.30325312858464 L 121.9150654681765 96.58913994470954 L 124.4295688415626 95.80379445265004 L 126.77134622157241 94.89404513012482 L 129.0226093755939 94.04414364505864 L 131.2459354066131 93.11476829026948 L 132.77943007934866 92.38071440738617 L 134.7721766948316 91.35498421609192 L 133.1782627582934 88.16125113547058 L 131.20982773315134 89.11244965511383 L 129.8264522886994 89.70468971754302 L 127.6924785150311 90.47697451900386 L 125.44239889561509 91.22863553393768 L 123.1748012756249 92.02054636766246 L 120.791843711511 92.68661689122796 L 118.49302413990898 93.29879765266536 L 116.46901601624086 93.68813118706618 L 114.49174500926257 93.79733651472156 L 112.86702863046094 93.79165618769744 L 110.59356723506242 93.766395582971 L 109.44099605793377 93.31629550601414 Z" fill="black" />
<path d="M 104.83009304575006 120.62791864713677 L 106.89462019558934 121.10740571745262 L 109.83375301703431 120.4138183357879 L 111.84852051223746 119.64609364205033 L 114.18870268839996 118.7061183409415 L 116.99184723544336 117.49998173405282 L 119.8672461487204 116.20907212888676 L 122.80512277335791 114.7845864914417 L 125.71216664908026 113.2789012271912 L 128.5634380883897 111.76980072700167 L 131.14317303205078 110.31828797897316 L 133.63329227516815 108.87224809125966 L 135.35972224722278 107.82563719423389 L 137.8857086435092 106.30254295890194 L 139.83833238783222 102.61231786317963 L 136.18789203053817 101.79996968082185 L 135.97580425852433 105.26814555355315 L 136.82670667466778 104.73106592588287 L 135.8624603018033 103.01776954109806 L 133.38295353402722 104.39750733701611 L 131.65235225608185 105.32782515092784 L 129.13697833513672 106.63447081008934 L 126.56717714598533 107.96066802299833 L 123.72875131966974 109.3543995540588 L 120.83806570320459 110.7515463210583 L 117.9782128356546 112.07974623048824 L 115.16391448330664 113.29127803157218 L 112.42140473347504 114.462460760621 L 110.15221190963754 115.37429210013717 L 108.45787295952819 116.0579834220246 L 106.39151261691066 116.66566557160988 L 105.28709445424994 116.76978643098823 Z" fill="black" />
<path d="M 126.20858635300065 95.30291252425393 L 125.3374961165107 97.4284224535032 L 125.25920295715332 100.96905517578125 L 125.23542296946212 103.24069595296645 L 125.2888486876949 105.85163648860492 L 125.40101398884757 108.7472122008604 L 125.46467746574254 111.86589362632041 L 125.46010708808899 115.2705078125 L 125.46010708808899 119.08673095703125 L 125.46264600753784 122.51507568359375 L 125.470144033432 125.94342041015625 L 125.4783546924591 129.37176513671875 L 125.48742105287593 132.63825820731643 L 125.42424958153975 135.74138524096557 L 125.4347520784645 139.0291412253964 L 125.37363565643733 141.40001371776358 L 125.38600850105286 143.61065673828125 L 125.39903492664487 145.4931897813339 L 125.35971452064457 147.0708718583251 L 125.2694583345849 149.5397465179421 L 126.0762255499339 149.56360415369747 L 126.5211057744083 149.41558773163996 L 125.93436882301593 147.86760279691808 L 125.55855950806928 146.2972010419068 L 122.18985357786822 147.1051427080932 L 122.60628059104657 148.83796360933192 L 123.4599733271542 151.64422672148504 L 127.0737988641286 153.47313901036503 L 129.3209957669776 150.3439204742454 L 129.5188255184179 147.2573752119874 L 129.58753733898013 145.5568590467911 L 129.60056376457214 143.61065673828125 L 129.61293660918767 141.46705171192392 L 129.6958631559105 139.0832855324161 L 129.70636565283525 135.78962061840943 L 129.78723715024907 132.68669296455857 L 129.7963035106659 129.37176513671875 L 129.804514169693 125.94342041015625 L 129.81201219558716 122.51507568359375 L 129.814551115036 119.08673095703125 L 129.814551115036 115.2705078125 L 129.80998073738246 111.81843254555459 L 129.72960124552742 108.6059372132021 L 129.5896913513676 105.69584886295758 L 129.49907410085038 103.17678451578355 L 129.47529411315918 100.96905517578125 L 129.3970009538018 97.9032425855593 L 129.71426520949933 96.47528571793357 Z" fill="black" />
<path d="M 125.86611898978842 120.18181462254533 L 123.96566689572288 118.80634060821195 L 120.98746585918641 118.56863282038817 L 118.79427185332312 120.11241193616449 L 116.21755292948775 123.14797392576367 L 115.11993583086257 124.496106161488 L 113.99333006734557 125.9319135668404 L 112.72872273943587 127.51049951359188 L 111.53899088706955 129.0278468251527 L 110.3013602598201 130.60118862663506 L 109.07236449076471 132.17900151290024 L 107.81848215288984 133.71620559518627 L 106.74445850587979 135.1670220364683 L 104.58613728855217 137.77190684174315 L 103.2069290459185 139.35941505918348 L 102.14684024192272 140.33956580471408 L 104.40528378151478 143.17813439059842 L 105.8299361884565 142.18135642519152 L 107.61967325832283 140.49066640044435 L 109.96269481443271 137.8153998385317 L 111.12133718304766 136.36338424856373 L 112.38820679829779 134.87263422928726 L 113.6799629823674 133.27234652961494 L 114.92707356605545 131.6926121592223 L 116.11405069806413 130.18200536922063 L 117.37019532327943 128.5824907300346 L 118.47625557538743 127.1404905181995 L 119.50327226582475 125.83603486329883 L 121.82401427948938 122.94081072008551 L 122.11556148456359 122.50766112492433 L 122.59439169802712 122.54522189178805 L 123.71884194771158 123.27179865870467 Z" fill="black" />
<path d="M 125.9088134765625 125.78318905830383 L 128.02949976275715 125.77423750580506 L 129.22125896448986 126.0465412765802 L 130.8783402552842 126.79541445026099 L 132.91777988583146 127.95704847546433 L 135.84323031674845 129.98486246788897 L 137.95845577605218 131.32332698259722 L 140.12727157967038 132.56741264149593 L 142.0484282392733 133.41345375260713 L 144.35832847055556 133.89325639409182 L 145.23456703725694 130.38066938715818 L 143.3312104326017 129.80944663801787 L 142.08342177970462 129.07894966319157 L 140.14701297394782 127.82059391584029 L 138.15701382387655 126.53149495398603 L 135.14069179385604 124.45530504016067 L 132.7147993931533 123.11449765911401 L 130.41069904332264 122.1617106765448 L 128.28946996380535 121.90850175200744 L 125.9088134765625 121.89955019950867 Z" fill="black" />
<path d="M 159.56185610957652 87.68828135860538 L 157.99135349716718 89.73982757648764 L 156.91006410214115 92.70512675123385 L 156.23046938229976 94.2298125898942 L 155.29853573469907 96.17051587517956 L 154.39640854914046 98.03144462834989 L 153.3582141941789 99.94231785740688 L 152.26071469791452 101.86686077498385 L 151.16978690192977 103.64998778349302 L 150.17467088265434 105.18793785061587 L 148.4648587125849 107.42378062815224 L 149.49478812140413 111.88129820063824 L 151.6288793581421 110.58172328323082 L 153.29170524699003 109.67290939346137 L 155.41653814176954 108.41922443439587 L 157.99124846693215 107.11451917986841 L 159.4359772340938 106.39234710560412 L 160.71791660583634 105.8377884566918 L 163.4500517292882 104.80729194091789 L 166.11545706344162 104.05342200847932 L 168.7692094553824 103.56547518247818 L 170.76554955849818 103.59510018741385 L 172.21479190998343 103.60081898529472 L 172.7855252243285 104.01615731838028 L 173.2343863853385 104.75885167709714 L 173.82331927090078 106.12766720502192 L 174.34637310545222 108.13464855384734 L 174.68001041072424 110.78792008759193 L 174.79575239035452 112.29662048632709 L 174.837100334427 114.09368586102521 L 174.90170201778662 116.10075290010823 L 174.89581489562988 117.97314453125 L 174.89032888412476 119.9500732421875 L 174.88702583312988 121.98956298828125 L 174.88472604751587 124.1041259765625 L 174.88401585028487 126.23347068634158 L 174.8125420953 128.78471193851465 L 174.76531547976052 130.91623904102687 L 174.63027999120845 132.97774009830033 L 174.51235829045348 135.0935059772367 L 174.39984536625792 136.87527039550872 L 174.21659884642406 138.68431801338986 L 174.04507878026138 141.78373036073953 L 173.92952826654636 143.5326354741015 L 174.22630834669647 144.23102047720573 L 174.90080189175723 143.96705073317702 L 174.44220217644624 143.46921324242243 L 173.29444583491426 141.44438590535853 L 170.27855221196074 143.14936409464147 L 171.50750485480376 145.32863832007757 L 172.92146373324277 147.33324223557298 L 176.87293481736603 147.59478518685677 L 178.25003716314114 144.339312768086 L 178.53060481348862 142.13436045957297 L 178.75520291138844 139.05274253348514 L 178.96807455561708 137.28329894042878 L 179.10763682673402 135.3864744915133 L 179.24179032129155 133.27311439388717 L 179.39484077023948 131.13051388866063 L 179.4556463812625 128.90779294429785 L 179.52821559502763 126.30400489959592 L 179.52750539779663 124.1041259765625 L 179.52520561218262 121.98956298828125 L 179.52190256118774 119.9500732421875 L 179.51641654968262 117.97314453125 L 179.51052942752588 116.01680081082927 L 179.4310881421355 113.94488835772479 L 179.36440385964548 112.03834045117291 L 179.19205990177576 110.24381819365807 L 178.73346087892278 107.24157214927766 L 177.96012799472422 104.64406131060308 L 176.9645882240365 102.58453211196536 L 175.5408907912965 100.82478506443222 L 173.23076473064157 99.63856089751778 L 170.82685766806432 99.51915762508615 L 168.3578657399301 99.54878263002182 L 165.21388863968338 100.11186119464568 L 162.1895967082118 100.93452934814461 L 159.23203456603866 102.0311080276832 L 157.7411467893437 102.65269683970838 L 156.16097321275535 103.38194078106909 L 153.44210443635546 104.70479900310413 L 151.20963752644747 105.95355545028863 L 149.4514429074829 106.89654820114418 L 148.27254586297087 107.72404847904926 L 151.6791842561651 110.32975941091026 L 153.67847853140816 107.68584144625913 L 154.80799630119523 105.92056885713198 L 155.94973452083548 104.02510699845365 L 157.0849010401961 101.99579249415562 L 158.17134047429704 99.95280830133761 L 159.10576114030093 97.98500170294544 L 160.04638608645024 95.9718475663558 L 160.80722105410885 94.19331074876615 L 161.70652247939532 91.50309234538736 L 162.65677182011098 89.72590321170712 Z" fill="black" />
<path d="M 166.9151620263811 108.47012417074592 L 166.07563627978922 110.00503409580276 L 165.10344385351436 113.10259183033364 L 163.68654514688768 117.8275392658206 L 163.056747735518 119.78767322517696 L 162.28615275891622 121.91687512851455 L 161.37962020740372 124.37745081019544 L 160.52721324913225 126.46962902757106 L 159.52079003966904 128.60327648375846 L 158.54314273145442 130.6639624436529 L 157.483346466194 132.60204027703338 L 156.51243277064938 134.38388639030705 L 155.5869144278007 136.03857977418676 L 153.6891561524052 138.66430295962536 L 156.5018838866573 140.77441774349964 L 158.5653072518868 138.11998956175074 L 159.76442269810062 136.34633821906795 L 160.882132049431 134.57471753546662 L 162.09101254198308 132.5589379469721 L 163.20198828064346 130.41552234436654 L 164.32019886024275 128.19492175367895 L 165.30433975353378 125.93285192417956 L 166.27036579577128 123.38854479336045 L 167.0842434754195 121.16349864982304 L 167.75083278279982 119.0446531169919 L 169.10676122461064 114.26032320872886 L 169.86308442333578 111.30197274013474 L 170.3199453954939 110.05917270425408 Z" fill="black" />
<path d="M 147.3645318302085 146.25785311190543 L 145.854810646676 147.09490438240934 L 142.3632940324512 150.23371728711305 L 140.60012087518544 151.7174508473356 L 138.5658124389022 153.46067658683893 L 136.21511258778986 155.34245696401533 L 133.58585428947208 157.42613516985404 L 130.70124719287966 159.70493101627562 L 127.97687698522873 161.72156237324674 L 125.02996730614471 163.80670104350597 L 122.03034334908867 165.90878007409077 L 119.04958948153609 167.91643396216256 L 116.1060316388823 169.72478445303787 L 112.89840257397118 171.48800993746548 L 110.66416578337501 172.64427579397753 L 108.81770647681293 173.37743532767155 L 106.00472677610733 174.13614084798792 L 104.72855222875684 174.75343994816296 L 104.69153147076301 172.53222659571077 L 101.17638845111199 172.94592281835173 L 101.93160402124316 177.45627684871204 L 106.48916970826767 178.19869801919958 L 110.01408063256207 177.38086545357845 L 112.38087816193749 176.53748690133497 L 114.90005934009132 175.31643342190952 L 118.2823960954927 173.52619210946213 L 121.42465368252641 171.63092931908744 L 124.52971524466133 169.55960371497173 L 127.57989597510529 167.43255676899403 L 130.57475875695877 165.31359387675326 L 133.39604284618284 163.22622132747438 L 136.34517598396542 160.90052498639596 L 138.97348604502264 158.78010162973467 L 141.3762041626603 156.83314665534857 L 143.44712033575206 155.0229055979769 L 145.2490106550488 153.45366064257445 L 148.6355457986365 150.28632120352816 L 149.6105658260415 149.27156583340707 Z" fill="black" />
<path d="M 143.75014643992117 145.5085503239154 L 146.891208509541 146.65730464291525 L 148.75275164378843 147.69080317665683 L 151.2089177905224 149.38921575947128 L 152.61811256778557 150.41657679302537 L 154.34507828807534 151.6892308021418 L 155.83200120204773 152.72357738293044 L 157.47394339588897 153.83553191784347 L 159.22887676791223 154.837569519668 L 161.08513840174092 155.74607417589132 L 162.89348876313875 156.5710690567718 L 165.09162890844775 157.41941549482013 L 166.94603450010482 157.863703128898 L 168.77786119982943 158.20188504221 L 170.6435322669427 158.3963360430214 L 172.44836727625943 158.43839540003796 L 173.99787549313535 158.46844862832717 L 175.62164306640625 158.42586243152618 L 177.84205635434455 158.38301588805754 L 180.06196530659156 154.51491850567467 L 176.79338803781678 154.24348002238312 L 176.68256411062072 157.75200337605438 L 178.16740481059594 157.63071137713783 L 177.36241141909295 154.66349290100496 L 175.62164306640625 154.62064635753632 L 174.07646532717715 154.57806016073533 L 172.60107120030307 154.48299131871204 L 170.9488749596198 154.3999286054161 L 169.39352551892057 154.1939889812275 L 167.80433171083268 153.8815361289145 L 166.34574902123975 153.52504251299237 L 164.47467529936125 152.7968508651032 L 162.82599441075908 152.04530766004618 L 161.11719256802527 151.227127745957 L 159.59514840098603 150.37735870715653 L 158.06814528232727 149.38726246081956 L 156.63819807911216 148.4446803306707 L 154.94414329158943 147.21489293353713 L 153.4364679516651 146.14020318584122 L 150.74309796558657 144.41027104209317 L 148.3913842638965 143.19157231020975 L 145.05051273976633 141.9630072932721 Z" fill="black" />
<path d="M 144.26008868874223 164.69126875210983 L 140.1309161130942 164.31348121010458 L 140.26217852184695 168.3836191591715 L 140.76995041228324 169.8713148677397 L 141.176753301815 171.65161500150762 L 141.7294880204138 173.83970012457394 L 142.15672168545132 176.14332766312526 L 142.53389231904737 178.96282277853862 L 142.9138658253753 182.12144834859842 L 143.16867817278236 185.589202498706 L 143.2812037945201 189.21288419999183 L 143.3358235136007 193.39304739967048 L 143.3241000175476 197.000244140625 L 143.3353794534102 200.60546570587655 L 143.27907960850462 204.0512138838692 L 142.97449114071142 207.40617531886872 L 142.7169808956604 210.61080457401746 L 142.34223745791428 213.99018949194038 L 142.04454915622483 216.37991729467265 L 141.73322455961807 218.44428112614133 L 141.44676953420762 220.28686971621164 L 141.11903611860575 221.76086400171886 L 140.3124562906451 224.3525933944648 L 140.1312769593382 224.90078238653714 L 139.7473929117834 225.0719361467475 L 138.6287637359509 225.17159907333033 L 137.79617798610272 224.5584105203194 L 136.40892371189227 222.92460912642753 L 135.02320917207405 220.4113587778935 L 131.99095098417595 222.0864439564815 L 133.52210656154523 224.85334497513497 L 135.30379759983478 227.0482789328056 L 137.3520712249866 228.66226323135717 L 140.1946236897791 229.0371947126275 L 142.7276097594118 228.15732308221286 L 144.2749460531049 226.0529241836602 L 145.30491407670675 222.98913599828114 L 145.76941698922988 221.15990762753836 L 146.13115532319443 219.17376086604617 L 146.50403482815017 217.03402313501485 L 146.85453988583572 214.54399019555962 L 147.2720327762146 211.06668566035754 L 147.55468366397608 207.81501608738128 L 147.89828855555788 204.3132880692558 L 147.9860316794023 200.65210265349845 L 147.9973111152649 197.000244140625 L 147.9855876192118 193.35036080345452 L 147.8961643695424 189.09729646407067 L 147.75661479596764 185.338776016919 L 147.4712660105622 181.67457215921408 L 147.05900318876513 178.37689890114888 L 146.64393749423618 175.41575436812474 L 146.1348918623987 172.83962116448856 L 145.49927208881 170.54833617036738 L 145.00580642365426 168.6250230228853 L 144.43325604846555 167.084764629891 L 143.2681317384683 166.55041039145792 L 142.41593670188277 167.99940507601517 Z" fill="black" />
<path d="M 119.36431658800797 186.96000250414468 L 118.73219050467587 187.9594193023936 L 118.22077042859942 189.61583532034533 L 119.30797583966266 190.0663804996063 L 122.42693466587961 191.58300897995423 L 124.71936755184092 192.944737916274 L 127.04682882640779 194.5944749011111 L 128.159161622746 195.4833825858422 L 129.81154628746566 197.267606113853 L 130.706438704031 198.92185095125708 L 130.9620008680141 200.5269216451279 L 131.0489233871437 201.36128936337022 L 130.17426625921107 202.29121782146214 L 128.45624881859996 203.434106684017 L 126.39960059860283 204.1357204155669 L 124.02421893411993 204.62687027788914 L 121.49769103286471 205.03531925360033 L 118.95560919658072 205.2407423969357 L 117.62798629660173 204.63924068819333 L 115.96820510964827 208.20463138211917 L 118.34968865498178 209.3298142436893 L 121.89342224838529 209.25996883233717 L 124.76850567525507 208.86763655804836 L 127.54266014358467 208.3077610297456 L 130.38347286108754 207.3077146050455 L 133.02275522516393 205.54777143635036 L 135.0289574722313 203.04935516787978 L 135.2599229601109 200.1801096048721 L 134.723248795969 197.45595666593042 L 133.24143222815934 194.7559534564595 L 131.076678221004 192.4361730782203 L 129.5242160954672 191.2230299817014 L 126.99022717472158 189.444422239976 L 124.38519912318289 187.90331914504577 L 121.02222435564984 186.2668714535187 L 118.94048445421308 185.51624475777967 L 114.75596867501163 187.1726607757314 L 117.40082013074203 190.17403069898032 Z" fill="black" />
<path d="M 171.42187122940751 184.54251915114946 L 170.57082524762262 185.39143116118112 L 167.94802824166052 187.45870400742626 L 164.694508829083 189.575042755671 L 163.37371731478126 190.3317917841461 L 161.9051484088082 191.1889442929211 L 160.3086029168178 192.10254216142033 L 157.6802844349814 193.66485325950003 L 155.573480918167 195.09367471216805 L 153.6237374020472 197.1755221042303 L 153.89566719423516 200.94084676954094 L 156.6973546992622 203.4991337392283 L 159.09344278852268 205.03461450334413 L 160.31754487319162 205.89307198121 L 161.61250893308124 206.75175553412444 L 163.08538431888175 207.78477720001345 L 164.2977554746252 208.68073202312593 L 165.54793772918745 209.59910232491447 L 167.8724715300083 211.3341457620976 L 170.04320111023705 213.12103562291102 L 171.6026387636037 214.44716185982938 L 172.87528281244386 215.75968159636665 L 174.2541031772319 216.90334659729118 L 177.2412581508931 213.60776180114632 L 176.13533730474364 212.49922953644585 L 174.8872294004588 211.05906372610812 L 173.13367877257545 209.48235793177648 L 170.8390763215542 207.5656345113399 L 168.41019215362505 205.74721115164803 L 167.1396224550623 204.81377481281157 L 165.86725239986825 203.88294740936155 L 164.27921469973126 202.78889387993806 L 162.94539457993338 201.9459172766025 L 161.64874471147732 201.07769018415587 L 159.4354578007378 199.7353633310842 L 157.62777030576484 198.46491494920906 L 157.6116141604528 198.6767728176447 L 158.182622597458 198.38130087376945 L 159.8929577525186 197.15753443581247 L 162.4141754034947 195.69189143232967 L 163.9865752240043 194.7536826602039 L 165.43487643521874 193.9091750127289 L 166.8869120693545 193.0893859552665 L 170.36740144583948 190.85147665663624 L 173.39829096331488 188.43937938569388 L 174.41980357527999 186.78584998947554 Z" fill="black" />
</svg>