<svg xmlns="http://www.w3.org/2000/svg" width="300" height="300" viewBox="0 0 300 300">
<path d="M 149.5 126.0 L 149.0 126.0 L 149.0 126.0 L 148.5 126.0 L 148.5 126.5 L 148.5 127.0 L 148.5 130.0 L 148.5 131.5 L 149.0 140.5 L 149.0 152.0 L 148.0 161.0 L 147.0 166.5 L 146.5 169.5 L 146.5 169.5 L 146.5 169.5 L 146.5 169.0 L 146.5 168.5 L 146.5 168.0 L 147.0 166.0 L 147.0 165.0 " stroke="black" fill="none" stroke-width="2.0" stroke-linecap="round" stroke-linejoin="round" />
<path d="M 127.0 171.0 L 126.0 171.0 L 125.5 171.0 L 125.5 171.0 L 125.0 171.5 L 124.5 171.5 L 125.0 171.5 L 127.5 171.5 L 133.0 171.0 L 141.5 170.0 L 150.5 168.5 L 158.0 168.0 L 162.0 168.0 L 162.5 168.0 L 163.0 168.5 L 163.5 168.5 L 164.0 168.5 L 164.0 168.5 L 164.5 168.5 L 164.5 169.0 L 164.5 169.0 L 165.0 169.0 L 165.0 169.0 L 165.0 169.0 L 165.0 169.0 L 165.0 169.0 L 165.0 169.0 L 165.5 169.0 L 165.5 169.0 L 165.5 169.0 " stroke="black" fill="none" stroke-width="2.0" stroke-linecap="round" stroke-linejoin="round" />
</svg>