<svg xmlns="http://www.w3.org/2000/svg" width="300" height="300" viewBox="0 0 300 300">
<path d="M 131.0 128.0 L 131.0 127.5 L 131.0 127.0 L 131.0 126.5 L 131.5 127.0 L 132.0 128.5 L 132.0 129.5 L 132.0 134.0 L 132.0 136.0 L 131.0 142.5 L 130.5 145.0 L 129.5 151.5 L 129.0 153.0 L 130.5 152.5 L 134.5 151.0 L 140.0 150.0 L 144.0 149.5 L 145.5 149.0 " stroke="black" fill="none" stroke-width="2.0" stroke-linecap="round" stroke-linejoin="round" />
<path d="M 144.5 133.5 L 143.5 133.0 L 143.5 132.5 L 143.0 132.5 L 143.0 132.5 L 143.5 132.0 L 144.5 132.5 L 145.5 135.5 L 146.0 142.0 L 145.5 152.5 L 143.0 162.0 L 141.0 165.0 L 140.5 165.0 L 140.5 165.0 L 140.5 164.5 " stroke="black" fill="none" stroke-width="2.0" stroke-linecap="round" stroke-linejoin="round" />
<path d="M 173.0 132.0 L 173.0 131.5 L 173.0 131.0 L 173.0 131.0 L 173.5 131.0 L 173.5 130.5 L 173.5 130.5 L 173.5 130.5 L 174.0 132.5 L 174.5 136.5 L 175.0 140.5 L 175.0 143.5 L 175.0 144.5 L 174.0 146.5 L 172.0 147.5 L 170.5 148.0 L 169.5 148.0 L 168.0 148.0 L 166.5 148.0 L 165.5 148.0 L 165.0 147.0 " stroke="black" fill="none" stroke-width="2.0" stroke-linecap="round" stroke-linejoin="round" />
<path d="M 163.5 129.0 L 163.0 128.5 L 162.5 128.5 L 162.5 128.5 L 162.5 130.5 L 162.5 135.5 L 162.5 145.0 L 162.5 153.0 L 162.5 156.0 L 161.5 164.5 L 161.5 169.0 L 161.5 170.0 L 161.0 171.5 L 161.0 172.0 L 161.0 172.0 L 161.0 171.5 L 161.0 171.5 L 161.0 170.0 L 161.0 169.5 " stroke="black" fill="none" stroke-width="2.0" stroke-linecap="round" stroke-linejoin="round" />
</svg>