<svg xmlns="http://www.w3.org/2000/svg" width="300" height="300" viewBox="0 0 300 300">
<path d="M 145.0 124.5 L 144.0 125.0 L 144.0 125.0 L 143.5 125.0 L 144.5 126.0 L 145.0 126.5 L 147.5 128.0 L 150.5 130.0 L 151.5 131.0 " stroke="black" fill="none" stroke-width="2.0" stroke-linecap="round" stroke-linejoin="round" />
<path d="M 131.5 137.0 L 132.0 138.0 L 132.5 138.5 L 134.5 138.5 L 137.5 138.5 L 138.5 138.5 L 145.5 139.0 L 150.5 139.0 L 152.5 139.0 L 158.0 139.5 L 161.0 140.0 L 162.0 140.5 L 162.0 140.5 " stroke="black" fill="none" stroke-width="2.0" stroke-linecap="round" stroke-linejoin="round" />
<path d="M 137.5 154.0 L 137.5 154.0 L 137.0 154.0 L 137.0 154.0 L 137.0 154.0 L 137.0 154.0 L 137.5 154.0 L 140.0 154.0 L 144.5 155.0 L 150.5 155.5 L 156.0 156.0 L 158.0 156.0 " stroke="black" fill="none" stroke-width="2.0" stroke-linecap="round" stroke-linejoin="round" />
<path d="M 147.5 142.5 L 147.0 142.0 L 146.5 142.0 L 146.5 142.0 L 146.5 142.5 L 147.0 147.0 L 148.0 153.0 L 148.5 155.0 L 149.0 164.0 L 149.5 171.5 L 149.5 175.5 L 149.5 175.5 " stroke="black" fill="none" stroke-width="2.0" stroke-linecap="round" stroke-linejoin="round" />
<path d="M 134.0 175.0 L 134.0 175.0 L 134.5 175.0 L 134.5 175.0 L 135.5 175.0 L 138.5 175.0 L 142.5 174.5 L 144.5 174.5 L 151.5 174.0 L 154.0 173.5 L 163.5 173.5 L 169.0 173.5 L 170.5 173.5 L 170.5 173.5 L 169.5 173.5 L 169.0 173.5 L 169.0 173.5 " stroke="black" fill="none" stroke-width="2.0" stroke-linecap="round" stroke-linejoin="round" />
</svg>