<svg xmlns="http://www.w3.org/2000/svg" width="300" height="300" viewBox="0 0 300 300">
<path d="M 148.0 125.0 L 147.5 124.0 L 147.5 123.5 L 147.5 123.5 L 147.5 123.5 L 147.5 125.0 L 146.5 130.0 L 143.5 137.5 L 138.5 147.0 L 137.5 148.5 L 136.5 149.5 L 134.0 150.5 " stroke="black" fill="none" stroke-width="2.0" stroke-linecap="round" stroke-linejoin="round" />
<path d="M 144.5 139.5 L 145.5 139.5 L 147.5 139.0 L 150.0 138.0 L 150.5 138.0 L 154.0 137.5 L 155.0 137.5 L 157.5 137.0 L 158.5 137.0 L 160.0 137.0 L 160.0 137.0 L 159.5 137.0 L 158.0 139.0 L 156.5 142.5 L 154.0 148.0 L 150.5 155.5 L 147.5 162.0 L 146.5 164.0 L 143.0 169.5 L 142.0 171.0 L 139.5 174.0 L 139.0 174.5 L 139.0 173.5 " stroke="black" fill="none" stroke-width="2.0" stroke-linecap="round" stroke-linejoin="round" />
<path d="M 150.5 157.0 L 151.0 157.0 L 151.5 157.0 L 151.5 157.0 L 153.0 158.0 L 156.0 161.0 L 160.5 165.5 L 165.0 170.0 L 167.0 172.5 L 167.5 173.0 L 167.5 173.0 " stroke="black" fill="none" stroke-width="2.0" stroke-linecap="round" stroke-linejoin="round" />
</svg>