<svg xmlns="http://www.w3.org/2000/svg" width="300" height="300" viewBox="0 0 300 300">
<path d="M 140.0 121.5 L 140.0 121.0 L 139.5 120.5 L 139.5 120.5 L 139.5 120.0 L 139.5 120.0 L 140.0 122.5 L 140.5 128.0 L 140.5 136.0 L 140.5 145.0 L 140.0 147.0 L 140.0 151.0 L 140.0 151.0 L 140.0 149.0 L 140.0 148.5 L 140.0 147.0 " stroke="black" fill="none" stroke-width="2.0" stroke-linecap="round" stroke-linejoin="round" />
<path d="M 140.5 136.0 L 140.5 136.0 L 140.5 136.0 L 140.5 136.0 L 141.5 136.0 L 142.5 136.0 L 144.5 135.5 L 145.0 135.5 L 147.0 135.0 L 147.0 134.5 L 147.5 134.5 " stroke="black" fill="none" stroke-width="2.0" stroke-linecap="round" stroke-linejoin="round" />
<path d="M 129.5 133.0 L 129.5 133.0 L 129.5 133.0 L 130.0 133.0 L 131.0 134.5 L 132.5 139.5 L 133.5 146.0 L 133.5 151.5 L 133.0 153.0 " stroke="black" fill="none" stroke-width="2.0" stroke-linecap="round" stroke-linejoin="round" />
<path d="M 125.5 156.0 L 125.0 156.5 L 124.5 156.5 L 124.5 156.5 L 128.5 156.0 L 135.0 154.5 L 140.0 153.5 L 141.0 153.0 L 145.0 152.5 L 145.5 152.5 L 147.0 152.0 L 147.5 151.5 L 147.5 151.0 " stroke="black" fill="none" stroke-width="2.0" stroke-linecap="round" stroke-linejoin="round" />
<path d="M 159.0 133.5 L 158.5 134.0 L 158.5 134.5 L 158.5 134.5 L 158.5 134.5 L 158.5 134.5 L 159.5 134.5 L 163.0 133.5 L 166.5 132.5 L 168.5 131.5 L 169.0 131.5 " stroke="black" fill="none" stroke-width="2.0" stroke-linecap="round" stroke-linejoin="round" />
<path d="M 157.0 127.5 L 157.0 127.5 L 157.5 127.5 L 158.0 131.0 L 158.5 138.5 L 158.5 147.0 L 158.5 152.0 L 159.0 154.0 L 159.5 154.0 L 161.0 154.0 L 164.5 152.0 L 168.5 149.5 L 172.0 148.0 L 173.5 147.0 L 174.0 147.0 " stroke="black" fill="none" stroke-width="2.0" stroke-linecap="round" stroke-linejoin="round" />
<path d="M 146.5 162.5 L 146.0 163.0 L 145.5 163.5 L 145.0 163.5 L 145.0 164.0 L 146.5 164.0 L 151.0 163.5 L 156.0 162.5 L 160.0 162.0 L 162.0 162.0 L 162.5 162.0 L 162.5 162.0 " stroke="black" fill="none" stroke-width="2.0" stroke-linecap="round" stroke-linejoin="round" />
<path d="M 137.0 177.5 L 136.5 179.0 L 136.5 179.0 L 136.5 179.0 L 138.5 179.0 L 139.0 179.0 L 143.5 178.5 L 150.5 177.5 L 158.5 176.5 L 165.0 176.0 L 168.5 176.0 L 169.0 176.0 L 168.5 176.0 L 167.5 176.0 L 167.0 176.0 " stroke="black" fill="none" stroke-width="2.0" stroke-linecap="round" stroke-linejoin="round" />
</svg>