<svg xmlns="http://www.w3.org/2000/svg" width="300" height="300" viewBox="0 0 300 300">
<path d="M 145.5 114.5 L 145.0 114.5 L 144.5 114.5 L 144.5 114.5 L 145.0 115.0 L 147.0 115.5 L 151.0 116.5 L 155.0 117.5 L 157.5 117.5 " stroke="black" fill="none" stroke-width="2.0" stroke-linecap="round" stroke-linejoin="round" />
<path d="M 130.0 123.0 L 130.0 123.0 L 130.0 123.5 L 132.5 123.5 L 137.5 123.5 L 139.5 123.5 L 146.5 123.5 L 149.0 123.5 L 158.5 123.5 L 164.5 123.5 L 166.0 124.0 L 166.0 124.0 L 164.5 124.5 L 162.5 124.5 " stroke="black" fill="none" stroke-width="2.0" stroke-linecap="round" stroke-linejoin="round" />
<path d="M 145.0 128.5 L 145.0 128.5 L 145.0 128.5 L 145.0 128.5 L 145.0 128.5 L 145.0 131.0 L 145.0 133.5 L 144.5 134.0 L 144.5 136.0 L 144.0 136.5 L 144.0 137.0 " stroke="black" fill="none" stroke-width="2.0" stroke-linecap="round" stroke-linejoin="round" />
<path d="M 145.0 132.5 L 145.0 132.5 L 145.0 132.5 L 145.0 132.5 L 145.5 132.5 L 147.5 132.0 L 148.5 132.0 L 154.5 132.0 L 159.5 132.5 L 161.0 133.0 L 160.0 134.0 L 155.5 135.5 L 151.0 136.5 L 147.5 137.5 " stroke="black" fill="none" stroke-width="2.0" stroke-linecap="round" stroke-linejoin="round" />
<path d="M 145.5 145.0 L 145.0 145.0 L 145.0 145.0 L 145.0 145.0 L 145.0 145.0 L 145.0 145.0 L 147.0 145.0 L 149.5 145.5 L 151.5 147.0 L 152.5 149.0 L 152.0 151.5 L 150.0 153.0 L 149.5 154.0 L 147.0 155.5 L 146.5 156.5 L 146.5 156.5 L 146.5 157.5 L 148.0 158.5 L 149.0 161.0 L 150.0 166.0 L 150.0 172.0 L 149.5 177.0 L 149.0 178.5 L 149.0 179.0 L 149.0 179.0 L 149.0 178.5 L 148.5 177.0 L 148.5 176.5 L 147.5 173.0 " stroke="black" fill="none" stroke-width="2.0" stroke-linecap="round" stroke-linejoin="round" />
<path d="M 132.0 163.5 L 130.5 164.0 L 130.5 164.0 L 131.0 164.0 L 135.0 163.5 L 141.0 163.5 L 148.5 163.5 L 157.5 163.0 L 163.5 163.0 L 164.5 163.0 L 168.0 163.0 L 168.5 163.0 L 170.0 163.0 L 170.0 163.0 L 170.0 163.0 L 169.5 163.0 L 169.0 163.0 L 169.0 163.0 L 169.0 163.0 " stroke="black" fill="none" stroke-width="2.0" stroke-linecap="round" stroke-linejoin="round" />
</svg>