<svg xmlns="http://www.w3.org/2000/svg" width="300" height="300" viewBox="0 0 300 300">
<path d="M 150.5 126.0 L 150.5 126.0 L 150.5 126.0 L 150.5 125.5 L 150.5 125.5 L 150.5 125.5 L 150.5 125.5 L 150.0 126.5 L 150.0 127.5 L 148.5 131.5 L 148.0 133.5 L 144.5 141.5 L 143.0 144.0 L 135.5 153.0 L 129.5 156.5 L 126.5 156.5 L 126.5 154.0 " stroke="black" fill="none" stroke-width="2.0" stroke-linecap="round" stroke-linejoin="round" />
<path d="M 150.5 128.0 L 150.5 128.5 L 151.0 129.5 L 153.5 131.5 L 159.0 136.0 L 165.5 140.0 L 169.5 141.5 L 170.0 142.0 L 171.5 142.5 L 171.5 142.5 " stroke="black" fill="none" stroke-width="2.0" stroke-linecap="round" stroke-linejoin="round" />
<path d="M 146.5 151.0 L 146.5 150.5 L 146.5 150.5 L 146.5 150.5 L 146.5 150.5 L 146.5 152.5 L 146.5 157.0 L 146.5 162.0 L 146.5 165.0 L 146.5 165.0 " stroke="black" fill="none" stroke-width="2.0" stroke-linecap="round" stroke-linejoin="round" />
<path d="M 159.0 145.0 L 159.0 145.0 L 159.0 145.0 L 159.0 146.0 L 160.0 150.5 L 161.5 161.0 L 162.0 174.5 L 162.0 181.0 L 162.0 182.5 L 161.5 185.0 L 161.5 185.5 L 161.0 186.0 L 161.0 186.0 L 160.5 186.0 L 160.0 185.5 L 159.5 184.0 " stroke="black" fill="none" stroke-width="2.0" stroke-linecap="round" stroke-linejoin="round" />
</svg>