<svg xmlns="http://www.w3.org/2000/svg" width="300" height="300" viewBox="0 0 300 300">
<path d="M 136.0 119.0 L 136.0 119.5 L 136.0 119.5 L 136.0 120.0 L 137.5 120.0 L 138.5 119.5 L 145.0 118.0 L 153.5 116.5 L 161.5 115.5 L 164.5 115.0 L 165.0 115.0 " stroke="black" fill="none" stroke-width="2.0" stroke-linecap="round" stroke-linejoin="round" />
<path d="M 151.0 111.5 L 151.0 111.5 L 150.5 110.5 L 150.5 110.0 L 150.5 110.5 L 150.5 114.0 L 150.5 117.5 L 150.5 119.0 L 150.0 123.0 L 149.5 124.5 L 148.5 128.0 L 148.5 128.5 L 148.0 129.0 L 149.0 129.0 L 152.0 127.0 L 155.5 125.0 L 158.5 123.5 L 159.5 123.5 " stroke="black" fill="none" stroke-width="2.0" stroke-linecap="round" stroke-linejoin="round" />
<path d="M 145.5 133.5 L 145.5 133.0 L 145.0 133.0 L 145.0 133.0 L 145.0 133.0 L 145.0 133.0 L 145.5 134.0 L 145.5 134.5 L 147.0 138.0 L 148.5 141.5 L 149.5 144.0 L 150.0 144.5 L 150.0 143.0 L 149.5 141.0 L 149.0 140.0 L 149.0 137.5 L 149.0 137.0 L 149.5 135.5 L 149.5 135.0 L 152.0 134.0 L 152.5 134.0 L 156.5 134.0 L 159.0 134.5 L 159.5 136.0 L 159.0 138.0 L 156.5 140.5 L 153.5 143.0 L 152.0 144.0 " stroke="black" fill="none" stroke-width="2.0" stroke-linecap="round" stroke-linejoin="round" />
<path d="M 151.0 145.0 L 151.0 144.5 L 150.5 144.0 L 150.5 144.0 L 150.5 144.0 L 150.5 144.0 L 150.5 144.0 L 151.0 146.0 L 151.5 149.0 L 152.0 152.0 L 152.0 153.5 " stroke="black" fill="none" stroke-width="2.0" stroke-linecap="round" stroke-linejoin="round" />
<path d="M 159.0 143.5 L 159.5 143.0 L 159.5 143.0 L 159.5 143.0 L 159.5 143.5 L 158.5 146.0 L 156.0 149.5 L 151.0 153.5 L 149.5 154.5 " stroke="black" fill="none" stroke-width="2.0" stroke-linecap="round" stroke-linejoin="round" />
<path d="M 126.0 156.5 L 124.5 156.5 L 124.5 156.5 L 124.0 156.5 L 124.0 156.5 L 124.0 156.5 L 124.5 156.5 L 127.5 156.5 L 134.0 156.5 L 143.5 155.5 L 154.0 154.0 L 162.5 153.0 L 167.0 153.0 L 167.0 153.0 L 166.5 153.0 L 166.0 153.0 L 165.5 153.0 L 164.0 153.0 " stroke="black" fill="none" stroke-width="2.0" stroke-linecap="round" stroke-linejoin="round" />
<path d="M 132.0 173.0 L 132.0 173.0 L 132.0 173.0 L 132.5 173.0 L 135.5 171.5 L 139.5 170.0 L 141.0 169.5 L 145.0 169.0 L 146.0 169.0 L 149.0 170.0 L 149.0 174.0 L 148.5 179.0 L 147.0 183.0 L 146.0 184.0 L 145.0 184.0 L 144.5 183.0 " stroke="black" fill="none" stroke-width="2.0" stroke-linecap="round" stroke-linejoin="round" />
<path d="M 143.0 163.5 L 143.0 163.5 L 143.0 162.5 L 143.0 162.5 L 143.0 163.0 L 142.0 166.5 L 140.0 171.0 L 138.0 175.0 L 137.5 176.0 L 135.5 179.5 L 135.0 179.5 " stroke="black" fill="none" stroke-width="2.0" stroke-linecap="round" stroke-linejoin="round" />
<path d="M 160.5 166.5 L 160.5 167.5 L 161.5 169.0 L 163.0 172.0 L 164.5 175.5 L 165.0 178.0 L 165.0 179.0 " stroke="black" fill="none" stroke-width="2.0" stroke-linecap="round" stroke-linejoin="round" />
<path d="M 164.5 168.0 L 164.5 168.0 L 164.5 168.0 L 164.5 167.5 L 166.5 167.5 L 169.5 168.0 L 171.5 169.5 L 172.0 171.5 L 172.0 172.5 L 169.5 175.5 L 167.0 177.5 L 166.5 178.0 L 165.5 178.5 " stroke="black" fill="none" stroke-width="2.0" stroke-linecap="round" stroke-linejoin="round" />
</svg>