<svg xmlns="http://www.w3.org/2000/svg" width="300" height="300" viewBox="0 0 300 300">
<path d="M 134.5 115.5 L 135.0 117.0 L 135.0 117.0 L 135.5 117.0 L 136.0 117.0 L 137.0 117.0 L 142.0 117.0 L 150.0 115.5 L 156.5 114.0 L 158.0 113.5 " stroke="black" fill="none" stroke-width="2.0" stroke-linecap="round" stroke-linejoin="round" />
<path d="M 135.0 129.5 L 136.5 131.0 L 138.0 131.0 L 142.5 130.5 L 149.0 128.5 L 154.0 126.5 L 155.5 125.5 L 159.5 123.5 L 160.0 123.0 L 161.0 122.5 L 160.5 122.5 " stroke="black" fill="none" stroke-width="2.0" stroke-linecap="round" stroke-linejoin="round" />
<path d="M 128.0 144.5 L 126.5 146.5 L 126.0 147.0 L 126.5 147.0 L 127.5 146.5 L 131.0 145.5 L 133.0 145.0 L 140.5 142.5 L 150.0 139.0 L 157.0 136.0 L 159.5 135.0 L 163.0 133.5 " stroke="black" fill="none" stroke-width="2.0" stroke-linecap="round" stroke-linejoin="round" />
<path d="M 151.0 112.5 L 149.0 110.0 L 148.0 109.0 L 147.5 109.0 L 147.5 109.5 L 147.5 114.5 L 145.5 127.0 L 142.0 139.5 L 141.0 143.5 L 136.5 155.0 L 135.5 157.5 L 132.5 164.0 L 132.0 165.0 L 132.5 164.0 " stroke="black" fill="none" stroke-width="2.0" stroke-linecap="round" stroke-linejoin="round" />
<path d="M 148.5 144.0 L 150.0 144.0 L 150.5 144.5 L 152.0 145.5 L 155.0 146.5 L 160.0 148.0 L 166.5 149.0 L 168.0 149.5 " stroke="black" fill="none" stroke-width="2.0" stroke-linecap="round" stroke-linejoin="round" />
<path d="M 144.5 157.5 L 143.5 158.5 L 143.0 159.0 L 143.0 159.0 L 143.5 159.0 L 147.5 159.0 L 153.0 158.0 L 158.5 156.0 L 159.5 155.5 " stroke="black" fill="none" stroke-width="2.0" stroke-linecap="round" stroke-linejoin="round" />
<path d="M 141.5 167.5 L 141.0 169.0 L 140.5 169.5 L 142.0 169.5 L 147.0 167.0 L 155.5 163.5 L 162.5 160.0 L 165.5 158.0 " stroke="black" fill="none" stroke-width="2.0" stroke-linecap="round" stroke-linejoin="round" />
<path d="M 151.0 153.5 L 152.5 153.0 L 152.5 153.0 L 153.0 153.5 L 153.0 156.0 L 153.5 157.0 L 153.5 163.5 L 153.5 166.0 L 153.5 174.5 L 153.5 177.0 L 153.0 183.0 L 152.5 184.5 L 152.5 184.0 L 152.5 181.5 L 152.5 181.0 " stroke="black" fill="none" stroke-width="2.0" stroke-linecap="round" stroke-linejoin="round" />
</svg>