<svg xmlns="http://www.w3.org/2000/svg" width="300" height="300" viewBox="0 0 300 300">
<path d="M 128.5 137.5 L 128.0 137.5 L 127.5 137.5 L 127.5 137.0 L 127.5 137.0 L 127.5 137.0 L 127.5 139.0 L 127.5 144.5 L 127.5 154.0 L 127.5 163.0 L 127.5 166.0 " stroke="black" fill="none" stroke-width="2.0" stroke-linecap="round" stroke-linejoin="round" />
<path d="M 137.5 140.5 L 138.5 138.5 L 138.5 137.5 L 138.5 137.5 L 138.5 138.0 L 138.5 140.5 L 138.5 145.0 L 138.5 147.0 L 138.5 154.5 L 138.5 157.0 L 138.0 166.5 L 137.0 171.5 L 136.0 172.0 L 136.0 172.0 " stroke="black" fill="none" stroke-width="2.0" stroke-linecap="round" stroke-linejoin="round" />
<path d="M 119.5 155.5 L 118.5 156.0 L 118.0 156.0 L 119.0 155.5 L 123.0 154.5 L 128.5 154.0 L 136.0 153.5 L 138.0 153.0 " stroke="black" fill="none" stroke-width="2.0" stroke-linecap="round" stroke-linejoin="round" />
<path d="M 148.0 136.5 L 148.0 136.5 L 148.0 136.5 L 148.0 136.5 L 148.0 136.5 L 148.0 136.5 L 150.0 137.0 L 155.0 137.0 L 162.0 136.5 L 168.0 135.5 " stroke="black" fill="none" stroke-width="2.0" stroke-linecap="round" stroke-linejoin="round" />
<path d="M 145.5 153.0 L 145.0 153.5 L 145.5 153.5 L 149.5 153.5 L 155.5 152.5 L 158.0 152.0 L 165.0 149.5 L 167.0 149.0 L 171.0 147.0 L 172.5 146.5 L 174.0 145.5 " stroke="black" fill="none" stroke-width="2.0" stroke-linecap="round" stroke-linejoin="round" />
<path d="M 158.5 138.5 L 158.5 139.0 L 158.5 139.0 L 158.5 140.5 L 158.0 144.0 L 157.0 151.0 L 156.0 159.0 L 156.0 163.5 L 156.0 164.5 L 156.0 165.5 " stroke="black" fill="none" stroke-width="2.0" stroke-linecap="round" stroke-linejoin="round" />
<path d="M 167.5 138.0 L 167.5 138.0 L 167.5 138.0 L 167.5 138.0 L 167.5 138.5 L 167.5 139.0 L 167.5 142.0 L 167.5 144.0 L 168.0 154.5 L 168.0 168.0 L 167.5 178.5 L 166.5 182.5 L 165.5 183.5 L 165.5 183.0 L 165.5 181.5 " stroke="black" fill="none" stroke-width="2.0" stroke-linecap="round" stroke-linejoin="round" />
</svg>