<svg xmlns="http://www.w3.org/2000/svg" width="300" height="300" viewBox="0 0 300 300">
<path d="M 141.0 125.5 L 140.5 125.5 L 140.5 125.5 L 140.5 125.5 L 140.0 125.5 L 140.0 125.5 L 140.5 125.5 L 143.0 125.5 L 144.5 125.5 L 150.0 125.0 L 157.5 125.0 L 161.5 125.0 L 161.0 125.5 L 157.0 127.0 L 154.0 128.0 L 153.0 128.5 L 151.0 129.5 L 150.5 130.0 L 149.5 130.5 L 149.5 131.0 L 149.5 131.5 L 150.0 132.0 L 151.5 133.5 L 153.0 136.5 L 153.5 140.0 L 153.5 142.0 L 154.0 148.5 L 154.0 159.0 L 153.5 169.0 L 152.5 176.0 L 152.5 176.5 L 152.0 178.0 L 151.5 178.0 L 151.5 178.0 L 151.5 178.0 L 151.5 177.0 L 150.5 174.5 L 149.0 172.0 L 147.5 170.5 L 147.0 170.0 " stroke="black" fill="none" stroke-width="2.0" stroke-linecap="round" stroke-linejoin="round" />
<path d="M 132.5 161.0 L 131.0 160.5 L 131.0 160.5 L 130.5 160.0 L 130.0 160.0 L 132.0 160.0 L 136.0 159.0 L 137.5 158.5 L 144.0 157.0 L 147.0 156.0 L 155.5 154.0 L 158.5 153.0 L 165.5 151.5 L 166.5 151.5 L 167.5 151.0 L 166.5 151.0 L 165.5 151.0 L 165.0 151.5 L 164.5 151.5 L 164.0 151.5 L 164.0 152.0 " stroke="black" fill="none" stroke-width="2.0" stroke-linecap="round" stroke-linejoin="round" />
</svg>