<svg xmlns="http://www.w3.org/2000/svg" width="300" height="300" viewBox="0 0 300 300">
<path d="M 129.0 130.5 L 129.0 131.0 L 129.0 131.0 L 129.0 131.0 L 129.0 131.0 L 130.5 131.0 L 133.5 131.0 L 134.5 131.0 L 139.0 130.0 L 141.0 130.0 L 141.0 131.5 L 138.5 135.0 L 136.0 138.0 L 134.5 140.5 L 134.5 142.0 L 134.5 142.5 L 135.0 144.5 L 135.0 145.5 L 136.5 149.5 L 137.0 151.0 L 138.0 158.0 L 138.5 166.5 L 139.0 174.0 L 139.0 177.0 L 139.0 177.0 L 139.0 176.5 L 138.5 174.5 L 138.0 174.0 " stroke="black" fill="none" stroke-width="2.0" stroke-linecap="round" stroke-linejoin="round" />
<path d="M 124.5 167.5 L 124.0 167.5 L 123.5 168.0 L 123.5 168.0 L 127.0 166.5 L 131.5 163.5 L 133.5 162.5 L 139.5 159.5 L 141.0 158.5 " stroke="black" fill="none" stroke-width="2.0" stroke-linecap="round" stroke-linejoin="round" />
<path d="M 161.5 122.5 L 161.5 122.5 L 161.5 122.5 L 161.0 123.0 L 160.0 125.5 L 159.0 126.5 L 156.5 130.5 L 155.5 132.0 L 153.0 136.0 L 152.5 137.0 L 152.0 138.5 " stroke="black" fill="none" stroke-width="2.0" stroke-linecap="round" stroke-linejoin="round" />
<path d="M 168.0 127.5 L 168.0 127.5 L 168.0 127.5 L 168.0 127.5 L 168.0 127.5 L 168.0 127.5 L 168.0 128.0 L 168.0 128.5 L 166.0 131.0 L 162.0 136.0 L 157.5 142.0 L 154.5 145.5 L 153.5 146.0 L 154.5 145.5 L 158.0 144.0 L 161.5 142.5 L 162.5 142.0 L 166.0 140.0 L 168.0 139.5 L 168.0 139.0 L 168.0 139.5 L 166.0 142.0 L 163.5 145.0 L 160.0 149.0 L 157.5 152.0 L 156.5 153.0 L 154.5 155.5 L 154.0 155.5 L 153.5 156.5 L 153.5 156.5 L 154.0 156.5 L 156.5 155.5 L 160.0 153.5 L 163.5 151.5 L 166.5 150.5 L 168.0 149.5 L 168.5 149.5 L 169.0 149.0 L 169.0 149.0 L 169.0 149.0 " stroke="black" fill="none" stroke-width="2.0" stroke-linecap="round" stroke-linejoin="round" />
<path d="M 170.0 146.5 L 169.0 147.5 L 169.0 147.5 L 169.0 148.0 L 170.0 149.0 L 172.0 151.5 L 175.0 155.0 L 176.5 158.5 L 177.5 161.5 " stroke="black" fill="none" stroke-width="2.0" stroke-linecap="round" stroke-linejoin="round" />
<path d="M 165.0 154.5 L 165.0 154.5 L 165.0 154.5 L 165.0 154.5 L 165.0 155.0 L 165.0 159.5 L 165.5 168.0 L 166.0 173.5 L 166.0 175.5 L 166.0 179.0 L 166.0 179.5 L 166.0 179.5 L 166.0 179.5 L 166.0 177.5 L 166.0 176.5 " stroke="black" fill="none" stroke-width="2.0" stroke-linecap="round" stroke-linejoin="round" />
<path d="M 159.5 163.5 L 159.0 163.5 L 158.5 163.5 L 158.0 163.5 L 158.0 163.5 L 157.5 165.0 L 156.0 168.0 L 154.0 172.5 L 153.0 176.0 L 153.0 177.0 " stroke="black" fill="none" stroke-width="2.0" stroke-linecap="round" stroke-linejoin="round" />
<path d="M 172.5 168.0 L 174.0 169.0 L 175.5 170.5 L 177.0 172.5 L 178.5 174.5 L 179.0 175.5 " stroke="black" fill="none" stroke-width="2.0" stroke-linecap="round" stroke-linejoin="round" />
</svg>