<svg xmlns="http://www.w3.org/2000/svg" width="300" height="300" viewBox="0 0 300 300">
<path d="M 144.0 110.5 L 144.0 110.5 L 143.5 110.5 L 143.5 110.5 L 143.5 111.0 L 143.5 111.0 L 145.5 111.0 L 146.0 111.0 L 151.0 111.0 " stroke="black" fill="none" stroke-width="2.0" stroke-linecap="round" stroke-linejoin="round" />
<path d="M 125.5 120.0 L 125.0 120.5 L 124.5 120.5 L 125.5 122.5 L 127.5 126.5 L 130.0 129.5 L 130.5 131.0 L 131.5 132.0 " stroke="black" fill="none" stroke-width="2.0" stroke-linecap="round" stroke-linejoin="round" />
<path d="M 134.0 121.0 L 134.0 121.0 L 134.0 121.0 L 134.5 121.0 L 135.0 120.5 L 140.5 119.0 L 148.0 117.5 L 151.0 117.0 L 161.0 116.0 L 166.0 117.0 L 168.0 118.0 L 168.5 119.0 L 167.5 120.0 L 166.0 121.5 L 165.5 122.0 L 163.5 124.0 L 163.0 124.5 " stroke="black" fill="none" stroke-width="2.0" stroke-linecap="round" stroke-linejoin="round" />
<path d="M 148.0 128.0 L 148.0 127.5 L 148.0 127.5 L 147.0 128.0 L 144.0 131.5 L 140.0 136.5 L 138.5 138.0 L 134.5 144.0 L 133.5 145.5 L 132.0 147.5 L 131.5 148.0 L 131.5 148.0 " stroke="black" fill="none" stroke-width="2.0" stroke-linecap="round" stroke-linejoin="round" />
<path d="M 148.0 132.5 L 150.5 132.0 L 151.5 132.0 L 153.0 131.5 L 153.5 131.5 L 155.5 131.5 L 156.0 131.5 L 158.5 131.5 L 160.5 131.5 " stroke="black" fill="none" stroke-width="2.0" stroke-linecap="round" stroke-linejoin="round" />
<path d="M 151.5 136.0 L 150.5 136.5 L 150.5 137.0 L 149.5 137.0 L 149.5 137.0 L 148.5 137.5 L 148.5 138.0 L 146.5 141.0 L 142.0 147.5 L 136.0 156.5 L 130.5 164.0 L 129.0 166.5 L 129.0 166.5 " stroke="black" fill="none" stroke-width="2.0" stroke-linecap="round" stroke-linejoin="round" />
<path d="M 147.0 144.5 L 148.5 144.0 L 150.0 143.5 L 152.5 143.5 L 156.0 143.5 L 160.5 143.0 L 161.5 142.5 " stroke="black" fill="none" stroke-width="2.0" stroke-linecap="round" stroke-linejoin="round" />
<path d="M 148.0 156.5 L 148.0 157.0 L 148.0 157.5 L 148.0 158.0 L 148.0 161.0 L 148.0 162.5 L 148.5 168.5 L 148.5 172.5 L 148.5 173.0 L 149.0 171.5 L 152.0 166.5 L 156.0 162.5 L 159.0 160.5 L 160.0 160.5 L 161.0 163.0 L 159.5 167.5 L 158.5 169.0 L 154.0 175.0 L 149.0 179.0 L 146.0 179.0 L 145.5 178.0 " stroke="black" fill="none" stroke-width="2.0" stroke-linecap="round" stroke-linejoin="round" />
</svg>