<svg xmlns="http://www.w3.org/2000/svg" width="300" height="300" viewBox="0 0 300 300">
<path d="M 141.5 115.0 L 141.0 115.5 L 141.0 115.5 L 141.0 116.0 L 141.0 116.0 L 142.5 116.0 L 146.0 116.0 L 150.0 116.0 L 153.0 116.0 " stroke="black" fill="none" stroke-width="2.0" stroke-linecap="round" stroke-linejoin="round" />
<path d="M 129.5 126.5 L 129.5 126.0 L 129.5 126.0 L 130.0 126.0 L 130.0 126.0 L 130.0 128.0 L 130.0 131.0 L 130.0 132.0 L 130.0 137.5 L 130.0 140.0 " stroke="black" fill="none" stroke-width="2.0" stroke-linecap="round" stroke-linejoin="round" />
<path d="M 134.0 127.0 L 134.5 126.5 L 135.0 126.0 L 135.0 126.0 L 136.5 125.0 L 137.0 125.0 L 140.0 124.5 L 141.5 124.5 L 147.0 124.5 L 154.0 124.0 L 161.5 123.5 L 167.0 123.5 L 170.0 123.5 L 170.0 124.5 L 170.5 124.5 L 170.5 125.0 L 170.5 125.5 L 170.0 125.5 L 170.0 126.0 L 169.5 126.5 L 169.5 127.5 L 169.5 129.5 L 169.5 131.0 L 169.5 133.5 L 169.0 136.5 L 169.0 138.0 " stroke="black" fill="none" stroke-width="2.0" stroke-linecap="round" stroke-linejoin="round" />
<path d="M 144.5 135.5 L 143.0 135.0 L 143.0 134.5 L 142.5 134.0 L 142.5 134.0 L 142.5 134.0 L 142.5 134.0 L 142.5 134.0 L 142.5 136.5 L 142.5 141.5 L 142.0 147.0 L 142.0 151.0 L 144.0 153.5 L 146.5 154.0 L 149.0 154.0 L 149.5 153.5 L 153.0 151.5 L 153.5 151.0 " stroke="black" fill="none" stroke-width="2.0" stroke-linecap="round" stroke-linejoin="round" />
<path d="M 146.0 132.5 L 144.5 133.0 L 144.5 133.0 L 147.5 133.0 L 152.0 133.0 L 156.5 133.0 L 159.0 133.5 L 159.5 133.5 L 159.5 133.5 L 159.5 133.5 L 159.5 134.5 L 159.5 135.0 L 159.0 137.5 L 159.0 141.5 L 159.0 145.0 L 158.5 148.5 L 158.5 150.0 L 158.0 150.5 " stroke="black" fill="none" stroke-width="2.0" stroke-linecap="round" stroke-linejoin="round" />
<path d="M 151.0 133.5 L 150.5 134.5 L 150.0 136.0 L 149.5 137.5 L 149.5 140.5 L 149.5 143.0 L 149.5 144.0 L 150.0 147.5 L 150.0 148.5 L 150.0 150.5 L 150.0 151.0 " stroke="black" fill="none" stroke-width="2.0" stroke-linecap="round" stroke-linejoin="round" />
<path d="M 135.0 146.5 L 134.5 145.5 L 134.5 145.0 L 134.5 145.0 L 136.5 145.0 L 140.0 145.0 L 145.0 145.0 L 151.0 145.5 L 156.0 145.5 L 157.5 145.5 L 162.0 145.5 L 163.0 145.5 L 166.5 145.5 " stroke="black" fill="none" stroke-width="2.0" stroke-linecap="round" stroke-linejoin="round" />
<path d="M 148.0 159.5 L 147.5 159.5 L 147.0 159.5 L 147.0 160.0 L 147.0 160.0 L 147.0 161.0 L 147.0 163.0 L 147.0 164.0 L 147.0 167.5 L 147.0 168.5 L 146.5 173.0 L 146.5 176.0 L 146.5 176.0 " stroke="black" fill="none" stroke-width="2.0" stroke-linecap="round" stroke-linejoin="round" />
<path d="M 148.0 160.0 L 148.0 159.5 L 148.0 159.5 L 148.0 159.5 L 148.0 159.0 L 149.5 159.0 L 151.5 159.0 L 154.0 161.0 L 156.0 164.0 L 157.0 168.5 L 157.5 173.5 L 157.5 175.5 L 157.0 176.0 L 156.0 176.0 " stroke="black" fill="none" stroke-width="2.0" stroke-linecap="round" stroke-linejoin="round" />
<path d="M 146.5 165.5 L 145.5 165.5 L 145.5 165.5 L 145.0 165.5 L 145.5 165.5 L 148.0 166.0 L 151.0 166.5 L 153.5 166.5 L 155.0 167.0 " stroke="black" fill="none" stroke-width="2.0" stroke-linecap="round" stroke-linejoin="round" />
<path d="M 147.0 170.0 L 146.5 170.0 L 146.0 170.0 L 146.5 170.0 L 148.5 170.0 L 151.0 170.5 L 152.5 170.5 " stroke="black" fill="none" stroke-width="2.0" stroke-linecap="round" stroke-linejoin="round" />
<path d="M 148.0 175.5 L 146.5 176.0 L 146.0 176.5 L 146.0 176.5 L 147.0 176.5 L 149.5 176.5 L 151.5 176.5 L 152.5 176.5 L 152.5 176.5 L 153.5 176.5 L 153.5 177.5 L 153.5 178.0 L 151.5 180.5 L 148.5 183.5 L 146.5 186.0 L 145.5 187.5 L 145.5 186.5 L 145.5 186.0 " stroke="black" fill="none" stroke-width="2.0" stroke-linecap="round" stroke-linejoin="round" />
<path d="M 152.5 179.0 L 154.0 180.0 L 155.0 181.0 L 156.5 182.5 L 158.0 184.5 L 159.5 186.5 L 160.0 186.5 " stroke="black" fill="none" stroke-width="2.0" stroke-linecap="round" stroke-linejoin="round" />
</svg>