<svg xmlns="http://www.w3.org/2000/svg" width="300" height="300" viewBox="0 0 300 300">
<path d="M 117.5 130.0 L 116.0 130.0 L 115.5 130.0 L 114.0 130.0 L 114.0 130.0 L 113.0 130.5 L 114.0 130.5 L 118.5 130.5 L 125.0 129.5 L 131.5 127.0 L 137.0 124.5 L 137.5 124.0 " stroke="black" fill="none" stroke-width="2.0" stroke-linecap="round" stroke-linejoin="round" />
<path d="M 129.0 119.5 L 129.0 119.5 L 128.5 119.5 L 128.5 119.5 L 128.5 121.0 L 128.0 127.5 L 126.5 134.5 L 126.0 136.5 L 124.0 142.5 L 123.0 144.0 L 120.5 147.0 L 120.0 147.5 L 121.5 146.0 L 125.0 142.5 L 130.0 139.0 L 134.0 136.0 L 136.0 135.5 " stroke="black" fill="none" stroke-width="2.0" stroke-linecap="round" stroke-linejoin="round" />
<path d="M 121.0 160.5 L 121.0 160.5 L 122.5 160.0 L 126.5 157.0 L 130.5 154.0 L 131.5 153.5 L 134.5 150.5 L 134.5 149.5 " stroke="black" fill="none" stroke-width="2.0" stroke-linecap="round" stroke-linejoin="round" />
<path d="M 129.5 147.5 L 129.5 147.5 L 129.5 147.5 L 129.5 148.0 L 129.5 148.0 L 130.0 151.5 L 130.5 156.5 L 130.5 159.0 L 130.5 165.0 L 130.5 166.5 L 130.0 171.0 L 130.0 171.0 L 131.0 169.5 L 134.0 166.5 L 138.0 162.0 " stroke="black" fill="none" stroke-width="2.0" stroke-linecap="round" stroke-linejoin="round" />
<path d="M 151.0 139.5 L 149.0 139.5 L 149.0 139.5 L 151.5 138.5 L 155.5 136.5 L 157.0 136.0 L 164.5 132.5 L 169.0 130.5 L 170.0 129.5 " stroke="black" fill="none" stroke-width="2.0" stroke-linecap="round" stroke-linejoin="round" />
<path d="M 162.0 122.0 L 162.0 121.5 L 162.0 121.0 L 161.5 121.0 L 161.5 121.0 L 161.5 121.0 L 162.0 122.5 L 162.0 123.5 L 163.5 132.0 L 165.0 148.0 L 166.0 163.0 L 166.5 171.5 L 166.5 175.5 L 166.5 176.0 L 165.5 176.0 L 165.0 176.0 L 163.0 175.5 L 162.5 175.0 L 158.5 172.0 L 155.0 169.0 L 151.5 167.0 L 149.5 165.0 L 148.5 163.5 L 148.5 161.5 L 151.5 158.5 L 155.0 156.0 L 158.0 154.0 L 158.5 153.5 L 161.0 152.0 " stroke="black" fill="none" stroke-width="2.0" stroke-linecap="round" stroke-linejoin="round" />
</svg>