<svg xmlns="http://www.w3.org/2000/svg" width="300" height="300" viewBox="0 0 300 300">
<path d="M 133.5 132.0 L 133.0 132.0 L 133.0 132.5 L 133.0 132.5 L 134.5 132.5 L 141.0 131.5 L 151.0 129.5 L 161.0 129.0 L 165.0 129.0 L 165.5 130.5 L 164.0 133.0 L 163.5 133.5 L 161.5 136.5 L 161.0 137.5 L 159.0 140.5 L 158.5 141.5 L 157.0 144.5 L 155.0 146.0 " stroke="black" fill="none" stroke-width="2.0" stroke-linecap="round" stroke-linejoin="round" />
<path d="M 148.5 132.0 L 148.0 132.5 L 148.0 133.0 L 147.5 133.5 L 147.5 134.0 L 147.5 134.5 L 147.5 136.5 L 147.5 140.0 L 147.5 144.0 L 147.0 146.0 " stroke="black" fill="none" stroke-width="2.0" stroke-linecap="round" stroke-linejoin="round" />
<path d="M 136.5 149.5 L 136.0 150.0 L 136.0 150.5 L 139.0 150.5 L 144.5 149.5 L 151.0 148.0 L 156.0 146.5 L 157.5 146.5 " stroke="black" fill="none" stroke-width="2.0" stroke-linecap="round" stroke-linejoin="round" />
<path d="M 135.0 133.5 L 134.5 133.5 L 134.5 133.5 L 134.0 133.5 L 134.0 133.5 L 134.0 133.5 L 134.0 137.0 L 134.0 144.0 L 133.5 154.5 L 132.5 163.0 L 132.0 168.5 L 133.0 171.0 L 136.5 172.0 L 142.5 172.5 L 148.5 172.5 L 150.5 172.5 L 158.5 172.0 L 161.5 171.5 L 168.5 171.0 L 170.5 171.0 L 175.5 170.5 L 178.5 170.0 L 178.5 169.5 L 178.0 167.5 L 176.5 164.5 L 175.0 160.5 L 174.5 159.5 " stroke="black" fill="none" stroke-width="2.0" stroke-linecap="round" stroke-linejoin="round" />
</svg>