<svg xmlns="http://www.w3.org/2000/svg" width="300" height="300" viewBox="0 0 300 300">
<path d="M 135.0 108.5 L 135.0 108.5 L 135.0 108.5 L 135.0 108.5 L 135.0 108.5 L 134.0 110.0 L 128.0 115.5 L 119.5 123.5 L 114.5 127.0 L 113.5 128.0 L 112.5 128.0 L 113.0 128.0 L 114.0 128.0 L 116.5 128.0 L 119.0 129.0 L 120.5 133.5 L 121.5 141.0 L 121.5 151.5 L 121.5 162.0 L 121.0 166.5 L 121.0 168.0 L 121.0 168.5 L 121.0 169.0 L 120.5 169.0 L 120.5 168.5 L 120.0 166.5 " stroke="black" fill="none" stroke-width="2.0" stroke-linecap="round" stroke-linejoin="round" />
<path d="M 124.0 132.5 L 123.5 132.5 L 123.5 132.5 L 123.5 132.5 L 127.5 131.0 L 132.5 129.5 L 136.5 129.0 L 137.5 129.0 L 136.0 132.0 L 133.0 136.0 L 131.5 138.0 " stroke="black" fill="none" stroke-width="2.0" stroke-linecap="round" stroke-linejoin="round" />
<path d="M 125.0 155.0 L 124.5 155.5 L 124.0 156.0 L 124.0 156.0 L 125.5 155.5 L 128.0 154.5 L 129.0 154.0 L 132.5 152.5 L 135.0 152.0 L 136.5 153.5 L 136.0 157.5 L 135.0 162.5 L 134.0 165.5 L 133.0 166.5 " stroke="black" fill="none" stroke-width="2.0" stroke-linecap="round" stroke-linejoin="round" />
<path d="M 125.0 174.5 L 124.0 176.0 L 124.0 176.0 L 127.0 175.0 L 131.0 172.5 L 134.5 170.0 " stroke="black" fill="none" stroke-width="2.0" stroke-linecap="round" stroke-linejoin="round" />
<path d="M 148.0 115.5 L 147.5 115.5 L 147.0 115.5 L 147.0 115.5 L 147.0 115.5 L 147.0 116.0 L 148.0 116.0 L 148.5 116.0 L 154.0 115.5 L 162.0 113.5 L 166.5 112.5 " stroke="black" fill="none" stroke-width="2.0" stroke-linecap="round" stroke-linejoin="round" />
<path d="M 146.0 129.5 L 145.5 130.5 L 145.5 132.5 L 147.0 136.0 L 148.0 141.5 L 149.0 144.5 L 149.0 145.5 L 149.0 146.0 L 149.0 146.0 L 150.0 144.0 L 153.0 140.0 L 158.5 136.5 L 167.5 133.5 L 176.5 131.5 L 180.5 131.5 L 181.0 133.0 L 179.0 135.5 L 178.0 137.0 L 174.5 140.0 L 173.0 141.0 L 169.0 144.0 L 168.0 144.5 L 164.0 146.5 L 162.5 147.0 " stroke="black" fill="none" stroke-width="2.0" stroke-linecap="round" stroke-linejoin="round" />
<path d="M 161.0 123.0 L 161.0 121.5 L 161.0 120.5 L 161.0 120.5 L 161.0 120.0 L 162.0 122.0 L 163.5 131.5 L 164.0 149.0 L 163.0 167.5 L 161.5 180.0 L 160.5 183.5 L 160.0 184.5 L 159.5 186.0 L 159.5 186.0 L 159.0 186.0 L 159.0 186.0 L 159.0 185.5 L 159.0 183.0 L 159.0 182.5 " stroke="black" fill="none" stroke-width="2.0" stroke-linecap="round" stroke-linejoin="round" />
</svg>