<svg xmlns="http://www.w3.org/2000/svg" width="300" height="300" viewBox="0 0 300 300">
<path d="M 146.58 123.69 L 145.70 123.26 C 145.04 122.93 144.23 123.20 143.90 123.86 C 143.57 124.53 143.84 125.34 144.51 125.67 L 145.39 126.10 C 146.05 126.43 146.86 126.16 147.19 125.50 C 147.52 124.83 147.25 124.02 146.58 123.69 Z M 145.70 123.24 L 144.71 122.76 C 144.04 122.44 143.22 122.72 142.90 123.39 C 142.57 124.07 142.85 124.88 143.53 125.21 L 144.51 125.68 C 145.19 126.01 146.00 125.73 146.33 125.05 C 146.65 124.38 146.37 123.57 145.70 123.24 Z M 144.63 122.70 L 143.71 122.34 C 143.00 122.06 142.20 122.41 141.92 123.12 C 141.64 123.82 141.99 124.62 142.70 124.90 L 143.61 125.27 C 144.32 125.55 145.12 125.20 145.40 124.49 C 145.68 123.79 145.33 122.98 144.63 122.70 Z M 142.20 124.59 L 142.59 124.99 C 143.12 125.54 144.00 125.55 144.55 125.02 C 145.11 124.48 145.12 123.60 144.58 123.05 L 144.20 122.65 C 143.67 122.10 142.79 122.09 142.23 122.62 C 141.68 123.16 141.67 124.04 142.20 124.59 Z M 142.84 125.19 L 143.93 125.88 C 144.58 126.29 145.44 126.09 145.85 125.44 C 146.26 124.79 146.06 123.93 145.41 123.52 L 144.33 122.84 C 143.68 122.43 142.82 122.62 142.41 123.27 C 142.00 123.92 142.19 124.78 142.84 125.19 Z M 144.08 125.95 L 144.97 126.37 C 145.66 126.70 146.49 126.40 146.81 125.71 C 147.14 125.02 146.84 124.19 146.15 123.87 L 145.26 123.45 C 144.57 123.12 143.74 123.42 143.42 124.11 C 143.09 124.80 143.39 125.63 144.08 125.95 Z M 145.06 126.39 L 146.00 126.76 C 146.70 127.03 147.49 126.69 147.77 125.98 C 148.04 125.28 147.70 124.49 147.00 124.22 L 146.06 123.85 C 145.36 123.57 144.56 123.92 144.29 124.62 C 144.01 125.32 144.36 126.12 145.06 126.39 Z M 146.03 126.76 L 146.58 126.96 C 147.28 127.21 148.06 126.85 148.32 126.15 C 148.57 125.45 148.21 124.67 147.51 124.42 L 146.96 124.22 C 146.26 123.96 145.48 124.32 145.23 125.02 C 144.97 125.72 145.33 126.50 146.03 126.76 Z"
      fill="black"
      fill-rule="nonzero" /><path d="M 159.44 124.18 L 160.58 123.56 C 161.24 123.19 161.48 122.36 161.11 121.70 C 160.75 121.05 159.92 120.80 159.26 121.17 L 158.13 121.79 C 157.47 122.15 157.23 122.98 157.59 123.64 C 157.96 124.30 158.78 124.54 159.44 124.18 Z M 160.55 123.60 L 161.14 123.30 C 161.82 122.95 162.09 122.11 161.74 121.43 C 161.39 120.75 160.56 120.48 159.87 120.83 L 159.29 121.13 C 158.61 121.48 158.34 122.31 158.68 122.99 C 159.03 123.68 159.87 123.95 160.55 123.60 Z M 159.68 120.93 L 159.10 121.35 C 158.48 121.81 158.34 122.68 158.80 123.31 C 159.25 123.93 160.13 124.07 160.75 123.61 L 161.33 123.19 C 161.95 122.74 162.09 121.86 161.64 121.24 C 161.18 120.61 160.31 120.47 159.68 120.93 Z M 159.11 121.35 L 158.18 122.01 C 157.56 122.46 157.41 123.34 157.86 123.97 C 158.32 124.59 159.19 124.74 159.82 124.29 L 160.74 123.62 C 161.37 123.17 161.51 122.29 161.06 121.67 C 160.61 121.04 159.74 120.90 159.11 121.35 Z M 158.16 122.03 L 157.40 122.60 C 156.79 123.06 156.66 123.94 157.12 124.56 C 157.59 125.17 158.46 125.30 159.08 124.84 L 159.84 124.27 C 160.46 123.81 160.58 122.93 160.12 122.31 C 159.66 121.69 158.78 121.57 158.16 122.03 Z M 157.41 122.60 L 156.55 123.23 C 155.93 123.70 155.80 124.57 156.27 125.19 C 156.73 125.81 157.60 125.94 158.22 125.48 L 159.08 124.84 C 159.70 124.38 159.83 123.50 159.36 122.88 C 158.90 122.26 158.03 122.14 157.41 122.60 Z M 156.57 123.23 L 155.71 123.85 C 155.08 124.30 154.94 125.17 155.40 125.80 C 155.85 126.42 156.72 126.56 157.35 126.11 L 158.21 125.49 C 158.83 125.03 158.97 124.16 158.52 123.54 C 158.06 122.91 157.19 122.77 156.57 123.23 Z M 155.73 123.84 L 154.89 124.42 C 154.26 124.87 154.11 125.74 154.55 126.37 C 155.00 127.00 155.86 127.15 156.49 126.70 L 157.33 126.12 C 157.96 125.68 158.11 124.81 157.67 124.18 C 157.22 123.55 156.36 123.40 155.73 123.84 Z M 154.91 124.42 L 154.06 125.00 C 153.43 125.43 153.27 126.30 153.70 126.93 C 154.13 127.56 155.00 127.73 155.63 127.29 L 156.48 126.71 C 157.11 126.28 157.28 125.41 156.84 124.78 C 156.41 124.14 155.54 123.98 154.91 124.42 Z M 154.08 124.99 L 153.26 125.53 C 152.63 125.96 152.45 126.82 152.88 127.46 C 153.30 128.10 154.17 128.27 154.81 127.84 L 155.62 127.30 C 156.26 126.87 156.43 126.01 156.00 125.37 C 155.58 124.73 154.72 124.56 154.08 124.99 Z M 153.28 125.52 L 152.39 126.10 C 151.75 126.51 151.56 127.37 151.97 128.01 C 152.39 128.66 153.25 128.84 153.89 128.43 L 154.78 127.85 C 155.43 127.44 155.61 126.58 155.20 125.94 C 154.78 125.29 153.93 125.11 153.28 125.52 Z M 152.41 126.09 L 151.57 126.61 C 150.92 127.02 150.72 127.87 151.12 128.51 C 151.53 129.16 152.37 129.36 153.02 128.96 L 153.87 128.44 C 154.51 128.03 154.71 127.18 154.31 126.54 C 153.91 125.89 153.06 125.69 152.41 126.09 Z M 151.59 126.61 L 150.78 127.10 C 150.13 127.49 149.93 128.33 150.32 128.98 C 150.71 129.63 151.55 129.84 152.20 129.45 L 153.00 128.96 C 153.65 128.57 153.86 127.73 153.47 127.08 C 153.08 126.43 152.24 126.22 151.59 126.61 Z M 150.79 127.10 L 149.89 127.63 C 149.25 128.02 149.03 128.86 149.42 129.51 C 149.81 130.15 150.65 130.37 151.30 129.98 L 152.19 129.44 C 152.84 129.06 153.05 128.22 152.67 127.57 C 152.28 126.92 151.44 126.71 150.79 127.10 Z M 149.90 127.64 L 149.02 128.16 C 148.38 128.54 148.17 129.38 148.55 130.03 C 148.94 130.67 149.78 130.88 150.42 130.50 L 151.30 129.98 C 151.94 129.59 152.15 128.75 151.77 128.11 C 151.38 127.46 150.54 127.25 149.90 127.64 Z M 149.02 128.16 L 148.18 128.67 C 147.54 129.06 147.34 129.90 147.73 130.54 C 148.12 131.19 148.95 131.39 149.60 131.00 L 150.43 130.49 C 151.07 130.10 151.28 129.26 150.89 128.62 C 150.50 127.98 149.66 127.77 149.02 128.16 Z M 148.16 128.69 L 147.31 129.22 C 146.68 129.62 146.49 130.46 146.89 131.10 C 147.29 131.73 148.12 131.92 148.76 131.52 L 149.61 130.99 C 150.25 130.59 150.44 129.75 150.04 129.11 C 149.64 128.48 148.80 128.29 148.16 128.69 Z M 147.31 129.22 L 146.52 129.72 C 145.89 130.13 145.70 130.97 146.10 131.60 C 146.50 132.23 147.34 132.42 147.98 132.02 L 148.76 131.52 C 149.40 131.12 149.59 130.28 149.18 129.65 C 148.78 129.01 147.94 128.82 147.31 129.22 Z M 146.53 129.72 L 145.68 130.24 C 145.04 130.64 144.84 131.48 145.24 132.11 C 145.63 132.75 146.47 132.95 147.11 132.56 L 147.96 132.03 C 148.60 131.63 148.80 130.80 148.40 130.16 C 148.01 129.52 147.17 129.32 146.53 129.72 Z M 145.69 130.23 L 144.82 130.75 C 144.18 131.14 143.97 131.98 144.36 132.62 C 144.74 133.26 145.58 133.47 146.22 133.09 L 147.09 132.57 C 147.74 132.18 147.94 131.35 147.56 130.70 C 147.17 130.06 146.34 129.85 145.69 130.23 Z M 144.82 130.76 L 143.97 131.27 C 143.33 131.66 143.13 132.50 143.52 133.14 C 143.91 133.78 144.75 133.99 145.39 133.60 L 146.23 133.08 C 146.87 132.69 147.08 131.86 146.68 131.21 C 146.29 130.57 145.46 130.37 144.82 130.76 Z M 143.94 131.29 L 143.21 131.76 C 142.58 132.17 142.40 133.02 142.81 133.65 C 143.21 134.28 144.06 134.46 144.69 134.05 L 145.42 133.58 C 146.05 133.17 146.23 132.32 145.82 131.69 C 145.42 131.06 144.57 130.88 143.94 131.29 Z M 143.19 131.77 L 142.26 132.39 C 141.63 132.81 141.46 133.66 141.88 134.28 C 142.29 134.91 143.14 135.08 143.77 134.66 L 144.70 134.04 C 145.33 133.63 145.50 132.78 145.08 132.15 C 144.67 131.53 143.82 131.36 143.19 131.77 Z M 142.26 132.39 L 141.47 132.92 C 140.84 133.33 140.67 134.18 141.09 134.81 C 141.51 135.44 142.36 135.61 142.98 135.19 L 143.77 134.67 C 144.40 134.25 144.57 133.40 144.15 132.77 C 143.73 132.15 142.88 131.98 142.26 132.39 Z M 141.46 132.92 L 140.60 133.50 C 139.97 133.93 139.81 134.78 140.23 135.40 C 140.65 136.03 141.50 136.19 142.13 135.77 L 142.99 135.19 C 143.62 134.76 143.79 133.91 143.36 133.29 C 142.94 132.66 142.09 132.49 141.46 132.92 Z M 140.58 133.51 L 139.73 134.10 C 139.11 134.54 138.96 135.39 139.39 136.01 C 139.83 136.63 140.68 136.79 141.30 136.35 L 142.15 135.76 C 142.77 135.33 142.92 134.47 142.49 133.85 C 142.05 133.23 141.20 133.08 140.58 133.51 Z M 139.67 134.14 L 138.66 134.93 C 138.06 135.40 137.95 136.26 138.42 136.86 C 138.88 137.46 139.75 137.57 140.35 137.10 L 141.36 136.31 C 141.96 135.85 142.07 134.98 141.60 134.38 C 141.14 133.78 140.27 133.67 139.67 134.14 Z M 138.35 135.25 L 137.94 135.87 C 137.52 136.51 137.69 137.37 138.33 137.79 C 138.97 138.21 139.83 138.03 140.25 137.40 L 140.66 136.78 C 141.08 136.14 140.90 135.28 140.27 134.86 C 139.63 134.44 138.77 134.62 138.35 135.25 Z M 138.44 137.86 L 138.95 138.14 C 139.63 138.50 140.47 138.25 140.83 137.57 C 141.20 136.89 140.95 136.05 140.27 135.69 L 139.75 135.41 C 139.08 135.04 138.23 135.30 137.87 135.97 C 137.51 136.65 137.76 137.49 138.44 137.86 Z M 139.56 138.31 L 140.67 138.35 C 141.44 138.38 142.09 137.77 142.11 137.00 C 142.14 136.23 141.54 135.58 140.76 135.55 L 139.66 135.51 C 138.89 135.49 138.24 136.09 138.21 136.86 C 138.18 137.63 138.79 138.28 139.56 138.31 Z M 140.84 138.35 L 142.01 138.24 C 142.79 138.17 143.35 137.49 143.28 136.72 C 143.21 135.94 142.53 135.37 141.76 135.44 L 140.59 135.55 C 139.81 135.62 139.25 136.30 139.32 137.08 C 139.39 137.85 140.07 138.42 140.84 138.35 Z M 142.11 138.23 L 143.13 138.06 C 143.90 137.94 144.42 137.21 144.29 136.45 C 144.17 135.68 143.44 135.16 142.68 135.29 L 141.66 135.46 C 140.89 135.58 140.37 136.31 140.50 137.07 C 140.62 137.84 141.35 138.36 142.11 138.23 Z M 143.20 138.05 L 144.16 137.84 C 144.92 137.68 145.40 136.93 145.24 136.17 C 145.07 135.41 144.32 134.93 143.56 135.09 L 142.61 135.30 C 141.85 135.46 141.37 136.21 141.53 136.97 C 141.69 137.73 142.44 138.21 143.20 138.05 Z M 144.21 137.83 L 145.20 137.58 C 145.95 137.39 146.41 136.63 146.21 135.87 C 146.02 135.12 145.26 134.66 144.50 134.85 L 143.52 135.10 C 142.76 135.30 142.31 136.06 142.50 136.81 C 142.69 137.57 143.45 138.02 144.21 137.83 Z M 145.23 137.57 L 146.18 137.30 C 146.93 137.09 147.37 136.31 147.15 135.57 C 146.94 134.82 146.16 134.38 145.42 134.59 L 144.47 134.86 C 143.72 135.08 143.28 135.85 143.50 136.60 C 143.71 137.35 144.49 137.78 145.23 137.57 Z M 146.20 137.30 L 147.11 137.03 C 147.85 136.81 148.28 136.03 148.06 135.28 C 147.84 134.54 147.06 134.11 146.31 134.33 L 145.40 134.60 C 144.66 134.82 144.23 135.60 144.45 136.35 C 144.67 137.09 145.45 137.52 146.20 137.30 Z M 147.09 137.04 L 148.04 136.77 C 148.79 136.55 149.22 135.78 149.01 135.03 C 148.80 134.28 148.02 133.85 147.27 134.06 L 146.32 134.33 C 145.58 134.54 145.14 135.32 145.35 136.07 C 145.57 136.81 146.34 137.25 147.09 137.04 Z M 148.01 136.77 L 149.00 136.52 C 149.75 136.32 150.20 135.55 150.00 134.80 C 149.81 134.05 149.04 133.60 148.29 133.79 L 147.30 134.05 C 146.55 134.25 146.10 135.02 146.30 135.77 C 146.49 136.52 147.26 136.97 148.01 136.77 Z M 148.97 136.52 L 149.94 136.29 C 150.70 136.11 151.16 135.35 150.98 134.59 C 150.80 133.84 150.04 133.37 149.28 133.56 L 148.31 133.79 C 147.56 133.97 147.09 134.73 147.28 135.48 C 147.46 136.24 148.22 136.70 148.97 136.52 Z M 149.94 136.29 L 150.92 136.05 C 151.68 135.86 152.14 135.10 151.96 134.35 C 151.77 133.60 151.01 133.13 150.26 133.32 L 149.28 133.56 C 148.52 133.74 148.06 134.50 148.25 135.26 C 148.43 136.01 149.19 136.47 149.94 136.29 Z M 150.96 136.04 L 151.88 135.79 C 152.63 135.59 153.07 134.82 152.87 134.07 C 152.67 133.32 151.90 132.88 151.15 133.08 L 150.23 133.33 C 149.48 133.53 149.03 134.30 149.24 135.05 C 149.44 135.80 150.21 136.24 150.96 136.04 Z M 151.90 135.78 L 152.85 135.51 C 153.60 135.30 154.03 134.52 153.81 133.78 C 153.60 133.03 152.82 132.60 152.08 132.82 L 151.13 133.09 C 150.39 133.30 149.96 134.08 150.17 134.82 C 150.38 135.56 151.16 135.99 151.90 135.78 Z M 152.85 135.51 L 153.84 135.23 C 154.58 135.02 155.01 134.24 154.80 133.50 C 154.59 132.76 153.82 132.33 153.08 132.54 L 152.09 132.82 C 151.34 133.03 150.91 133.80 151.12 134.54 C 151.33 135.28 152.10 135.72 152.85 135.51 Z M 153.83 135.23 L 154.77 134.97 C 155.51 134.76 155.95 134.00 155.75 133.25 C 155.54 132.51 154.78 132.08 154.04 132.28 L 153.09 132.54 C 152.35 132.74 151.91 133.51 152.11 134.25 C 152.32 134.99 153.08 135.43 153.83 135.23 Z M 154.77 134.96 L 155.76 134.69 C 156.50 134.49 156.94 133.72 156.73 132.98 C 156.53 132.24 155.77 131.81 155.02 132.01 L 154.04 132.28 C 153.30 132.49 152.86 133.25 153.06 133.99 C 153.27 134.73 154.03 135.17 154.77 134.96 Z M 155.77 134.69 L 156.77 134.40 C 157.50 134.20 157.93 133.43 157.72 132.69 C 157.51 131.96 156.75 131.53 156.01 131.74 L 155.02 132.02 C 154.28 132.23 153.85 132.99 154.06 133.73 C 154.27 134.47 155.03 134.89 155.77 134.69 Z M 156.78 134.39 L 157.78 134.10 C 158.51 133.88 158.92 133.12 158.71 132.39 C 158.49 131.66 157.73 131.24 157.00 131.45 L 156.00 131.75 C 155.27 131.96 154.85 132.73 155.07 133.46 C 155.28 134.19 156.05 134.61 156.78 134.39 Z M 157.77 134.09 L 158.72 133.81 C 159.44 133.60 159.86 132.84 159.64 132.11 C 159.43 131.39 158.67 130.97 157.95 131.19 L 157.00 131.46 C 156.28 131.68 155.86 132.44 156.07 133.16 C 156.29 133.89 157.05 134.30 157.77 134.09 Z M 158.69 133.81 L 159.63 133.55 C 160.36 133.35 160.78 132.60 160.59 131.88 C 160.39 131.15 159.64 130.73 158.91 130.93 L 157.97 131.19 C 157.25 131.39 156.82 132.14 157.02 132.86 C 157.22 133.59 157.97 134.01 158.69 133.81 Z M 159.60 133.55 L 160.58 133.31 C 161.31 133.13 161.75 132.40 161.57 131.67 C 161.39 130.95 160.65 130.50 159.93 130.68 L 158.95 130.93 C 158.22 131.11 157.78 131.84 157.96 132.57 C 158.14 133.29 158.87 133.73 159.60 133.55 Z M 160.56 133.31 L 161.50 133.09 C 162.23 132.92 162.68 132.20 162.51 131.48 C 162.35 130.75 161.63 130.30 160.90 130.47 L 159.95 130.69 C 159.23 130.85 158.78 131.57 158.94 132.30 C 159.11 133.02 159.83 133.48 160.56 133.31 Z M 161.50 133.09 L 161.60 133.06 C 162.33 132.90 162.78 132.18 162.62 131.46 C 162.45 130.74 161.73 130.28 161.01 130.45 L 160.91 130.47 C 160.18 130.63 159.73 131.35 159.89 132.08 C 160.06 132.80 160.78 133.25 161.50 133.09 Z"
      fill="black"
      fill-rule="nonzero" /><path d="M 130.87 149.23 L 129.76 149.85 C 129.11 150.21 128.87 151.04 129.24 151.69 C 129.60 152.34 130.42 152.57 131.07 152.21 L 132.18 151.59 C 132.83 151.23 133.07 150.41 132.71 149.75 C 132.34 149.10 131.52 148.87 130.87 149.23 Z M 129.66 149.89 L 128.90 150.39 C 128.27 150.81 128.10 151.65 128.51 152.28 C 128.93 152.91 129.78 153.09 130.41 152.67 L 131.17 152.17 C 131.80 151.76 131.97 150.91 131.56 150.28 C 131.14 149.65 130.29 149.47 129.66 149.89 Z M 128.28 151.68 L 128.32 151.99 C 128.40 152.74 129.08 153.29 129.84 153.21 C 130.60 153.12 131.15 152.44 131.06 151.68 L 131.03 151.38 C 130.95 150.62 130.26 150.07 129.50 150.16 C 128.75 150.24 128.20 150.92 128.28 151.68 Z M 129.78 153.23 L 131.04 153.14 C 131.80 153.09 132.39 152.43 132.34 151.66 C 132.28 150.89 131.62 150.31 130.85 150.36 L 129.60 150.44 C 128.83 150.49 128.25 151.16 128.30 151.93 C 128.35 152.69 129.01 153.28 129.78 153.23 Z M 131.17 153.13 L 132.15 152.97 C 132.92 152.85 133.43 152.12 133.31 151.36 C 133.18 150.60 132.46 150.08 131.70 150.21 L 130.72 150.37 C 129.95 150.49 129.44 151.22 129.56 151.98 C 129.69 152.74 130.41 153.26 131.17 153.13 Z M 132.19 152.97 L 133.22 152.77 C 133.98 152.63 134.48 151.89 134.33 151.13 C 134.19 150.37 133.45 149.87 132.69 150.01 L 131.66 150.21 C 130.90 150.36 130.40 151.09 130.55 151.85 C 130.69 152.61 131.43 153.11 132.19 152.97 Z M 133.24 152.77 L 134.18 152.58 C 134.94 152.42 135.43 151.68 135.27 150.92 C 135.12 150.16 134.37 149.67 133.61 149.82 L 132.67 150.02 C 131.91 150.17 131.42 150.91 131.58 151.68 C 131.73 152.44 132.48 152.93 133.24 152.77 Z M 134.19 152.58 L 135.28 152.35 C 136.04 152.19 136.53 151.44 136.37 150.68 C 136.21 149.92 135.46 149.43 134.70 149.59 L 133.60 149.82 C 132.84 149.98 132.36 150.73 132.52 151.49 C 132.68 152.25 133.43 152.74 134.19 152.58 Z M 135.28 152.35 L 136.14 152.17 C 136.90 152.00 137.39 151.26 137.23 150.49 C 137.06 149.73 136.32 149.24 135.55 149.41 L 134.70 149.59 C 133.93 149.75 133.45 150.50 133.61 151.26 C 133.77 152.02 134.52 152.51 135.28 152.35 Z M 136.13 152.17 L 137.10 151.97 C 137.86 151.81 138.35 151.07 138.20 150.30 C 138.04 149.54 137.29 149.05 136.53 149.21 L 135.56 149.40 C 134.80 149.56 134.31 150.31 134.46 151.07 C 134.62 151.83 135.37 152.33 136.13 152.17 Z M 137.11 151.97 L 138.09 151.76 C 138.85 151.60 139.34 150.85 139.18 150.09 C 139.02 149.33 138.27 148.84 137.51 149.00 L 136.52 149.21 C 135.76 149.37 135.27 150.12 135.43 150.88 C 135.59 151.64 136.34 152.13 137.11 151.97 Z M 138.10 151.76 L 139.08 151.54 C 139.84 151.38 140.32 150.63 140.15 149.86 C 139.99 149.10 139.23 148.62 138.47 148.79 L 137.50 149.00 C 136.73 149.17 136.25 149.92 136.42 150.68 C 136.59 151.44 137.34 151.93 138.10 151.76 Z M 139.07 151.55 L 140.05 151.33 C 140.81 151.17 141.30 150.42 141.13 149.66 C 140.97 148.90 140.22 148.41 139.45 148.58 L 138.48 148.79 C 137.72 148.95 137.23 149.70 137.40 150.46 C 137.56 151.23 138.31 151.71 139.07 151.55 Z M 140.04 151.34 L 141.02 151.13 C 141.79 150.97 142.27 150.22 142.11 149.46 C 141.95 148.70 141.21 148.21 140.44 148.37 L 139.46 148.57 C 138.70 148.73 138.21 149.48 138.37 150.24 C 138.53 151.01 139.28 151.50 140.04 151.34 Z M 141.02 151.13 L 141.98 150.93 C 142.74 150.78 143.23 150.03 143.08 149.27 C 142.92 148.51 142.18 148.01 141.41 148.17 L 140.45 148.37 C 139.69 148.52 139.20 149.27 139.35 150.03 C 139.51 150.80 140.25 151.29 141.02 151.13 Z M 141.98 150.93 L 142.96 150.73 C 143.72 150.58 144.22 149.84 144.06 149.07 C 143.91 148.31 143.17 147.82 142.40 147.97 L 141.42 148.17 C 140.65 148.32 140.16 149.07 140.31 149.83 C 140.47 150.60 141.21 151.09 141.98 150.93 Z M 142.96 150.73 L 143.95 150.54 C 144.71 150.38 145.20 149.64 145.05 148.88 C 144.90 148.11 144.15 147.62 143.39 147.77 L 142.40 147.97 C 141.64 148.13 141.15 148.87 141.30 149.63 C 141.45 150.39 142.20 150.89 142.96 150.73 Z M 143.94 150.53 L 144.93 150.34 C 145.69 150.19 146.19 149.45 146.03 148.69 C 145.88 147.92 145.14 147.43 144.38 147.58 L 143.39 147.78 C 142.63 147.93 142.14 148.67 142.29 149.43 C 142.44 150.19 143.18 150.68 143.94 150.53 Z M 144.92 150.34 L 145.91 150.15 C 146.67 150.00 147.17 149.27 147.03 148.51 C 146.88 147.74 146.14 147.25 145.38 147.39 L 144.39 147.58 C 143.63 147.73 143.13 148.46 143.28 149.22 C 143.42 149.98 144.16 150.48 144.92 150.34 Z M 145.90 150.15 L 146.88 149.96 C 147.64 149.82 148.15 149.09 148.01 148.33 C 147.87 147.57 147.13 147.07 146.37 147.21 L 145.39 147.39 C 144.63 147.53 144.13 148.26 144.27 149.02 C 144.41 149.78 145.14 150.29 145.90 150.15 Z M 146.89 149.96 L 147.87 149.78 C 148.63 149.63 149.12 148.90 148.98 148.14 C 148.84 147.39 148.11 146.89 147.35 147.03 L 146.37 147.21 C 145.61 147.36 145.11 148.09 145.26 148.85 C 145.40 149.60 146.13 150.10 146.89 149.96 Z M 147.88 149.77 L 148.86 149.58 C 149.61 149.43 150.10 148.69 149.95 147.94 C 149.80 147.18 149.07 146.69 148.31 146.84 L 147.34 147.03 C 146.58 147.18 146.09 147.92 146.24 148.67 C 146.39 149.43 147.12 149.92 147.88 149.77 Z M 148.86 149.57 L 149.85 149.37 C 150.60 149.22 151.09 148.48 150.93 147.73 C 150.78 146.98 150.04 146.49 149.29 146.64 L 148.31 146.84 C 147.55 147.00 147.07 147.73 147.22 148.49 C 147.37 149.24 148.11 149.73 148.86 149.57 Z M 149.85 149.37 L 150.83 149.17 C 151.58 149.02 152.06 148.28 151.91 147.53 C 151.76 146.78 151.02 146.29 150.27 146.45 L 149.29 146.65 C 148.54 146.80 148.05 147.54 148.21 148.29 C 148.36 149.04 149.10 149.52 149.85 149.37 Z M 150.82 149.17 L 151.80 148.97 C 152.55 148.82 153.04 148.09 152.89 147.34 C 152.74 146.59 152.01 146.10 151.26 146.25 L 150.28 146.45 C 149.52 146.60 149.04 147.33 149.19 148.08 C 149.34 148.83 150.07 149.32 150.82 149.17 Z M 151.79 148.97 L 152.77 148.79 C 153.53 148.64 154.02 147.92 153.88 147.17 C 153.73 146.41 153.01 145.92 152.26 146.06 L 151.27 146.25 C 150.52 146.39 150.02 147.12 150.17 147.87 C 150.31 148.62 151.03 149.12 151.79 148.97 Z M 152.76 148.79 L 153.75 148.61 C 154.50 148.47 155.00 147.75 154.86 147.00 C 154.73 146.25 154.01 145.75 153.26 145.89 L 152.27 146.06 C 151.52 146.20 151.02 146.92 151.15 147.67 C 151.29 148.42 152.01 148.92 152.76 148.79 Z M 153.74 148.61 L 154.72 148.43 C 155.47 148.30 155.97 147.59 155.84 146.84 C 155.71 146.09 154.99 145.58 154.24 145.72 L 153.26 145.89 C 152.51 146.02 152.01 146.74 152.14 147.49 C 152.28 148.24 152.99 148.74 153.74 148.61 Z M 154.72 148.43 L 155.70 148.26 C 156.45 148.12 156.95 147.41 156.81 146.66 C 156.68 145.91 155.96 145.41 155.22 145.55 L 154.24 145.72 C 153.49 145.85 152.99 146.57 153.13 147.32 C 153.26 148.06 153.97 148.56 154.72 148.43 Z M 155.70 148.25 L 156.69 148.07 C 157.44 147.94 157.94 147.22 157.80 146.48 C 157.66 145.73 156.95 145.24 156.20 145.37 L 155.21 145.55 C 154.47 145.69 153.97 146.40 154.11 147.15 C 154.24 147.89 154.96 148.39 155.70 148.25 Z M 156.70 148.07 L 157.55 147.91 C 158.30 147.77 158.79 147.06 158.65 146.31 C 158.51 145.57 157.80 145.08 157.05 145.22 L 156.20 145.37 C 155.45 145.51 154.96 146.23 155.10 146.97 C 155.24 147.72 155.96 148.21 156.70 148.07 Z M 157.56 147.91 L 158.52 147.72 C 159.26 147.58 159.75 146.86 159.60 146.12 C 159.46 145.37 158.74 144.89 157.99 145.03 L 157.04 145.22 C 156.30 145.36 155.81 146.08 155.96 146.82 C 156.10 147.57 156.82 148.05 157.56 147.91 Z M 158.53 147.72 L 159.66 147.49 C 160.40 147.34 160.88 146.61 160.73 145.87 C 160.58 145.13 159.85 144.65 159.11 144.81 L 157.98 145.04 C 157.24 145.19 156.76 145.91 156.92 146.65 C 157.07 147.39 157.79 147.87 158.53 147.72 Z M 159.67 147.48 L 160.60 147.29 C 161.34 147.13 161.81 146.40 161.65 145.67 C 161.50 144.93 160.77 144.45 160.03 144.61 L 159.10 144.81 C 158.36 144.96 157.89 145.69 158.05 146.43 C 158.21 147.17 158.93 147.64 159.67 147.48 Z M 160.61 147.28 L 161.61 147.07 C 162.35 146.91 162.81 146.18 162.65 145.44 C 162.49 144.70 161.77 144.24 161.03 144.40 L 160.03 144.61 C 159.29 144.77 158.82 145.50 158.98 146.24 C 159.14 146.98 159.87 147.44 160.61 147.28 Z M 161.61 147.07 L 162.63 146.84 C 163.37 146.68 163.83 145.95 163.67 145.21 C 163.51 144.47 162.78 144.01 162.04 144.17 L 161.02 144.40 C 160.29 144.56 159.82 145.29 159.99 146.03 C 160.15 146.76 160.88 147.23 161.61 147.07 Z M 162.64 146.84 L 163.61 146.62 C 164.34 146.45 164.81 145.72 164.64 144.98 C 164.47 144.25 163.74 143.79 163.01 143.96 L 162.03 144.18 C 161.30 144.34 160.84 145.07 161.00 145.81 C 161.17 146.54 161.90 147.00 162.64 146.84 Z M 163.62 146.61 L 164.93 146.30 C 165.66 146.13 166.11 145.40 165.94 144.66 C 165.76 143.93 165.03 143.48 164.30 143.65 L 162.99 143.96 C 162.26 144.13 161.81 144.87 161.98 145.60 C 162.16 146.33 162.89 146.79 163.62 146.61 Z M 164.96 146.29 L 165.91 146.03 C 166.64 145.84 167.07 145.10 166.87 144.37 C 166.68 143.65 165.94 143.22 165.21 143.41 L 164.26 143.67 C 163.54 143.86 163.11 144.60 163.30 145.33 C 163.49 146.05 164.24 146.48 164.96 146.29 Z M 166.24 145.89 L 166.58 145.69 C 167.23 145.32 167.46 144.50 167.08 143.85 C 166.71 143.20 165.89 142.98 165.24 143.35 L 164.89 143.55 C 164.25 143.92 164.02 144.75 164.39 145.39 C 164.76 146.04 165.59 146.27 166.24 145.89 Z M 165.98 143.18 L 165.14 143.14 C 164.40 143.10 163.77 143.67 163.73 144.41 C 163.69 145.15 164.26 145.78 165.00 145.82 L 165.85 145.86 C 166.59 145.90 167.22 145.33 167.25 144.59 C 167.29 143.85 166.72 143.22 165.98 143.18 Z"
      fill="black"
      fill-rule="nonzero" /><path d="M 146.34 137.71 L 145.83 138.55 C 145.45 139.19 145.65 140.02 146.29 140.41 C 146.92 140.79 147.76 140.59 148.14 139.95 L 148.65 139.11 C 149.04 138.47 148.84 137.64 148.20 137.26 C 147.56 136.87 146.73 137.07 146.34 137.71 Z M 145.69 138.87 L 145.41 139.81 C 145.20 140.53 145.61 141.28 146.33 141.50 C 147.04 141.71 147.80 141.30 148.01 140.58 L 148.29 139.64 C 148.50 138.92 148.09 138.16 147.37 137.95 C 146.65 137.74 145.90 138.15 145.69 138.87 Z M 145.35 140.12 L 145.29 141.13 C 145.25 141.88 145.82 142.52 146.57 142.57 C 147.33 142.61 147.97 142.03 148.02 141.28 L 148.07 140.27 C 148.12 139.52 147.54 138.87 146.79 138.83 C 146.03 138.79 145.39 139.36 145.35 140.12 Z M 145.28 141.20 L 145.28 142.19 C 145.28 142.95 145.89 143.57 146.65 143.57 C 147.41 143.57 148.02 142.96 148.02 142.20 L 148.02 141.21 C 148.03 140.45 147.41 139.83 146.65 139.83 C 145.90 139.83 145.28 140.44 145.28 141.20 Z M 145.27 142.20 L 145.27 143.20 C 145.27 143.96 145.89 144.58 146.65 144.58 C 147.41 144.58 148.03 143.96 148.03 143.20 L 148.03 142.20 C 148.03 141.44 147.41 140.82 146.65 140.82 C 145.89 140.82 145.27 141.44 145.27 142.20 Z M 145.27 143.20 L 145.27 144.16 C 145.27 144.93 145.89 145.54 146.65 145.54 C 147.41 145.54 148.03 144.93 148.03 144.16 L 148.03 143.20 C 148.03 142.44 147.41 141.82 146.65 141.82 C 145.89 141.82 145.27 142.44 145.27 143.20 Z M 145.27 144.16 L 145.27 145.17 C 145.27 145.93 145.89 146.55 146.65 146.55 C 147.42 146.55 148.04 145.93 148.04 145.17 L 148.04 144.16 C 148.04 143.40 147.42 142.78 146.65 142.78 C 145.89 142.78 145.27 143.40 145.27 144.16 Z M 145.27 145.17 L 145.27 146.23 C 145.27 146.99 145.89 147.61 146.65 147.61 C 147.42 147.61 148.04 146.99 148.04 146.23 L 148.04 145.17 C 148.04 144.40 147.42 143.78 146.65 143.78 C 145.89 143.78 145.27 144.40 145.27 145.17 Z M 145.26 146.22 L 145.26 147.26 C 145.26 148.03 145.88 148.65 146.65 148.65 C 147.41 148.65 148.03 148.03 148.04 147.27 L 148.04 146.23 C 148.04 145.46 147.42 144.84 146.65 144.84 C 145.89 144.84 145.27 145.46 145.26 146.22 Z M 145.26 147.26 L 145.26 148.24 C 145.25 149.00 145.87 149.63 146.63 149.63 C 147.40 149.64 148.02 149.02 148.03 148.26 L 148.04 147.28 C 148.04 146.51 147.43 145.88 146.66 145.88 C 145.89 145.87 145.27 146.49 145.26 147.26 Z M 145.26 148.22 L 145.23 149.28 C 145.22 150.04 145.82 150.68 146.59 150.69 C 147.36 150.71 147.99 150.10 148.01 149.33 L 148.03 148.28 C 148.05 147.51 147.44 146.88 146.67 146.86 C 145.91 146.84 145.27 147.45 145.26 148.22 Z M 145.23 149.25 L 145.20 150.18 C 145.17 150.94 145.76 151.59 146.53 151.62 C 147.29 151.65 147.94 151.05 147.97 150.29 L 148.01 149.36 C 148.04 148.59 147.44 147.95 146.67 147.92 C 145.91 147.89 145.26 148.49 145.23 149.25 Z M 145.20 150.16 L 145.15 151.15 C 145.11 151.92 145.70 152.57 146.46 152.61 C 147.23 152.65 147.88 152.06 147.92 151.29 L 147.97 150.30 C 148.01 149.54 147.42 148.89 146.65 148.85 C 145.89 148.81 145.24 149.40 145.20 150.16 Z M 145.15 151.11 L 145.08 152.06 C 145.01 152.82 145.58 153.49 146.34 153.55 C 147.11 153.61 147.77 153.05 147.84 152.28 L 147.91 151.34 C 147.97 150.57 147.41 149.91 146.65 149.84 C 145.88 149.78 145.22 150.35 145.15 151.11 Z M 145.08 152.00 L 144.97 152.97 C 144.87 153.73 145.41 154.42 146.17 154.51 C 146.93 154.61 147.62 154.07 147.71 153.31 L 147.83 152.34 C 147.92 151.58 147.38 150.89 146.62 150.80 C 145.87 150.71 145.18 151.25 145.08 152.00 Z M 144.97 152.95 L 144.83 153.94 C 144.73 154.70 145.25 155.39 146.01 155.50 C 146.76 155.60 147.46 155.08 147.57 154.32 L 147.70 153.33 C 147.81 152.58 147.28 151.88 146.53 151.77 C 145.77 151.67 145.07 152.20 144.97 152.95 Z M 144.83 153.94 L 144.69 154.93 C 144.59 155.69 145.11 156.38 145.86 156.49 C 146.62 156.60 147.31 156.07 147.42 155.32 L 147.56 154.33 C 147.67 153.57 147.15 152.88 146.39 152.77 C 145.64 152.66 144.94 153.18 144.83 153.94 Z M 144.70 154.93 L 144.54 155.98 C 144.43 156.73 144.95 157.43 145.71 157.54 C 146.46 157.65 147.16 157.13 147.27 156.38 L 147.42 155.32 C 147.53 154.57 147.01 153.87 146.26 153.76 C 145.50 153.66 144.80 154.18 144.70 154.93 Z M 144.55 155.98 L 144.40 157.01 C 144.29 157.76 144.81 158.45 145.56 158.56 C 146.31 158.67 147.00 158.15 147.11 157.40 L 147.26 156.38 C 147.37 155.63 146.85 154.93 146.10 154.82 C 145.35 154.71 144.65 155.23 144.55 155.98 Z M 144.40 157.02 L 144.26 158.00 C 144.16 158.75 144.69 159.44 145.44 159.54 C 146.19 159.65 146.88 159.12 146.98 158.37 L 147.11 157.39 C 147.21 156.64 146.69 155.95 145.94 155.85 C 145.19 155.75 144.50 156.27 144.40 157.02 Z M 144.26 158.04 L 144.15 159.03 C 144.07 159.78 144.61 160.45 145.36 160.53 C 146.11 160.62 146.79 160.08 146.87 159.33 L 146.98 158.34 C 147.06 157.59 146.52 156.91 145.77 156.83 C 145.02 156.75 144.35 157.29 144.26 158.04 Z M 144.16 159.07 L 144.08 160.07 C 144.02 160.82 144.58 161.47 145.33 161.53 C 146.08 161.59 146.73 161.03 146.79 160.28 L 146.87 159.28 C 146.93 158.53 146.37 157.88 145.62 157.82 C 144.87 157.76 144.21 158.32 144.16 159.07 Z M 144.08 160.09 L 144.04 160.80 C 143.99 161.55 144.56 162.19 145.31 162.24 C 146.05 162.28 146.70 161.72 146.74 160.97 L 146.79 160.26 C 146.83 159.51 146.27 158.87 145.52 158.82 C 144.77 158.77 144.13 159.34 144.08 160.09 Z"
      fill="black"
      fill-rule="nonzero" /><path d="M 157.87 136.34 L 158.83 136.69 C 159.55 136.94 160.34 136.57 160.59 135.86 C 160.85 135.14 160.48 134.35 159.76 134.09 L 158.80 133.75 C 158.09 133.49 157.30 133.87 157.04 134.58 C 156.78 135.30 157.16 136.09 157.87 136.34 Z M 158.21 136.26 L 158.74 136.93 C 159.23 137.53 160.10 137.63 160.70 137.14 C 161.30 136.66 161.40 135.78 160.92 135.18 L 160.38 134.52 C 159.90 133.92 159.02 133.82 158.42 134.30 C 157.82 134.79 157.73 135.66 158.21 136.26 Z M 158.45 136.30 L 158.63 137.31 C 158.76 138.08 159.49 138.59 160.25 138.45 C 161.02 138.32 161.53 137.59 161.39 136.82 L 161.21 135.81 C 161.08 135.05 160.35 134.54 159.59 134.67 C 158.82 134.81 158.31 135.54 158.45 136.30 Z M 158.61 137.16 L 158.68 138.21 C 158.73 138.99 159.40 139.57 160.18 139.52 C 160.95 139.47 161.54 138.80 161.48 138.02 L 161.41 136.97 C 161.36 136.20 160.69 135.61 159.91 135.67 C 159.14 135.72 158.55 136.39 158.61 137.16 Z M 158.67 138.19 L 158.73 139.22 C 158.77 139.99 159.43 140.59 160.21 140.55 C 160.98 140.51 161.58 139.85 161.54 139.07 L 161.49 138.05 C 161.45 137.27 160.79 136.67 160.01 136.71 C 159.23 136.75 158.63 137.41 158.67 138.19 Z M 158.72 139.21 L 158.77 140.22 C 158.80 141.00 159.46 141.61 160.24 141.57 C 161.02 141.54 161.62 140.88 161.59 140.10 L 161.54 139.08 C 161.51 138.30 160.85 137.70 160.07 137.73 C 159.29 137.77 158.69 138.43 158.72 139.21 Z M 158.77 140.22 L 158.81 141.22 C 158.84 142.00 159.50 142.60 160.28 142.57 C 161.06 142.54 161.67 141.88 161.63 141.10 L 161.59 140.10 C 161.56 139.32 160.90 138.72 160.12 138.75 C 159.34 138.78 158.73 139.44 158.77 140.22 Z M 158.81 141.21 L 158.85 142.16 C 158.88 142.94 159.53 143.54 160.31 143.51 C 161.09 143.48 161.70 142.83 161.67 142.05 L 161.63 141.10 C 161.60 140.32 160.95 139.71 160.17 139.75 C 159.39 139.78 158.78 140.43 158.81 141.21 Z M 158.84 142.15 L 158.88 143.14 C 158.90 143.92 159.56 144.53 160.34 144.50 C 161.12 144.48 161.73 143.83 161.71 143.04 L 161.67 142.05 C 161.65 141.27 160.99 140.66 160.21 140.69 C 159.43 140.71 158.82 141.37 158.84 142.15 Z M 158.88 143.12 L 158.89 144.13 C 158.91 144.91 159.56 145.53 160.34 145.52 C 161.12 145.50 161.74 144.86 161.73 144.07 L 161.71 143.06 C 161.69 142.28 161.05 141.66 160.26 141.68 C 159.48 141.69 158.86 142.34 158.88 143.12 Z M 158.89 144.11 L 158.90 145.10 C 158.91 145.88 159.54 146.51 160.33 146.50 C 161.11 146.50 161.74 145.86 161.73 145.08 L 161.73 144.09 C 161.72 143.31 161.08 142.68 160.30 142.69 C 159.52 142.69 158.89 143.33 158.89 144.11 Z M 158.90 145.09 L 158.90 146.12 C 158.90 146.90 159.54 147.53 160.32 147.53 C 161.10 147.53 161.73 146.90 161.73 146.12 L 161.73 145.09 C 161.73 144.31 161.10 143.67 160.32 143.67 C 159.53 143.67 158.90 144.31 158.90 145.09 Z M 158.90 146.12 L 158.90 147.09 C 158.90 147.88 159.54 148.51 160.32 148.51 C 161.10 148.51 161.73 147.88 161.73 147.09 L 161.73 146.12 C 161.73 145.34 161.10 144.70 160.32 144.70 C 159.54 144.70 158.90 145.34 158.90 146.12 Z M 158.90 147.09 L 158.90 148.11 C 158.90 148.89 159.54 149.52 160.32 149.52 C 161.10 149.52 161.73 148.89 161.73 148.11 L 161.73 147.09 C 161.73 146.31 161.10 145.68 160.32 145.68 C 159.54 145.68 158.90 146.31 158.90 147.09 Z M 158.90 148.11 L 158.90 149.10 C 158.90 149.88 159.54 150.52 160.32 150.52 C 161.10 150.52 161.73 149.88 161.73 149.10 L 161.73 148.11 C 161.73 147.33 161.10 146.69 160.32 146.69 C 159.54 146.69 158.90 147.33 158.90 148.11 Z M 158.90 149.10 L 158.90 150.09 C 158.90 150.87 159.54 151.50 160.32 151.50 C 161.10 151.50 161.73 150.87 161.73 150.09 L 161.73 149.10 C 161.73 148.32 161.10 147.69 160.32 147.69 C 159.54 147.69 158.90 148.32 158.90 149.10 Z M 158.90 150.09 L 158.90 151.11 C 158.90 151.89 159.54 152.52 160.32 152.52 C 161.10 152.52 161.73 151.89 161.73 151.11 L 161.73 150.09 C 161.73 149.30 161.10 148.67 160.32 148.67 C 159.54 148.67 158.90 149.30 158.90 150.09 Z M 158.90 151.11 L 158.90 152.11 C 158.90 152.89 159.54 153.52 160.32 153.52 C 161.10 153.52 161.73 152.89 161.73 152.11 L 161.73 151.11 C 161.73 150.33 161.10 149.69 160.32 149.69 C 159.54 149.69 158.90 150.33 158.90 151.11 Z M 158.90 152.11 L 158.90 153.11 C 158.90 153.89 159.54 154.52 160.32 154.52 C 161.10 154.52 161.73 153.89 161.73 153.11 L 161.73 152.11 C 161.73 151.33 161.10 150.69 160.32 150.69 C 159.54 150.69 158.90 151.33 158.90 152.11 Z M 158.90 153.11 L 158.90 154.12 C 158.90 154.90 159.54 155.53 160.32 155.53 C 161.10 155.53 161.73 154.90 161.73 154.12 L 161.73 153.11 C 161.73 152.33 161.10 151.69 160.32 151.69 C 159.54 151.69 158.90 152.33 158.90 153.11 Z M 158.90 154.12 L 158.90 155.13 C 158.90 155.91 159.54 156.54 160.32 156.54 C 161.10 156.54 161.73 155.91 161.73 155.13 L 161.73 154.12 C 161.73 153.34 161.10 152.71 160.32 152.71 C 159.54 152.71 158.90 153.34 158.90 154.12 Z M 158.90 155.12 L 158.90 156.12 C 158.90 156.90 159.53 157.54 160.31 157.54 C 161.09 157.54 161.73 156.91 161.73 156.13 L 161.73 155.13 C 161.73 154.35 161.10 153.72 160.32 153.71 C 159.54 153.71 158.91 154.34 158.90 155.12 Z M 158.90 156.12 L 158.90 157.12 C 158.89 157.89 159.52 158.53 160.30 158.54 C 161.08 158.54 161.72 157.91 161.72 157.13 L 161.73 156.14 C 161.73 155.36 161.10 154.72 160.32 154.72 C 159.54 154.71 158.91 155.34 158.90 156.12 Z M 158.90 157.11 L 158.89 158.10 C 158.88 158.88 159.50 159.52 160.28 159.53 C 161.06 159.54 161.70 158.92 161.71 158.14 L 161.72 157.14 C 161.73 156.36 161.11 155.72 160.33 155.71 C 159.55 155.70 158.91 156.33 158.90 157.11 Z M 158.89 158.09 L 158.87 159.09 C 158.85 159.87 159.47 160.51 160.25 160.53 C 161.03 160.54 161.67 159.93 161.69 159.15 L 161.71 158.15 C 161.72 157.37 161.11 156.73 160.33 156.71 C 159.55 156.69 158.90 157.31 158.89 158.09 Z M 158.87 159.07 L 158.83 160.08 C 158.81 160.85 159.42 161.50 160.20 161.53 C 160.98 161.55 161.63 160.94 161.65 160.16 L 161.69 159.16 C 161.71 158.38 161.10 157.73 160.32 157.71 C 159.54 157.68 158.89 158.30 158.87 159.07 Z M 158.84 160.06 L 158.79 161.06 C 158.76 161.84 159.36 162.50 160.14 162.53 C 160.92 162.57 161.58 161.96 161.61 161.18 L 161.65 160.18 C 161.69 159.40 161.08 158.75 160.31 158.71 C 159.53 158.68 158.87 159.28 158.84 160.06 Z M 158.79 161.05 L 158.74 162.05 C 158.70 162.83 159.29 163.49 160.07 163.53 C 160.85 163.58 161.51 162.98 161.55 162.20 L 161.61 161.20 C 161.65 160.42 161.05 159.76 160.28 159.72 C 159.50 159.67 158.84 160.27 158.79 161.05 Z M 158.74 162.04 L 158.68 163.04 C 158.63 163.81 159.22 164.48 160.00 164.53 C 160.77 164.58 161.44 163.99 161.49 163.21 L 161.55 162.21 C 161.60 161.44 161.01 160.77 160.23 160.72 C 159.46 160.67 158.79 161.26 158.74 162.04 Z M 158.68 163.03 L 158.61 164.03 C 158.56 164.81 159.15 165.48 159.93 165.53 C 160.70 165.58 161.37 164.99 161.42 164.21 L 161.49 163.21 C 161.54 162.44 160.95 161.77 160.18 161.72 C 159.40 161.67 158.73 162.26 158.68 163.03 Z M 158.61 164.03 L 158.55 165.04 C 158.49 165.81 159.08 166.48 159.86 166.53 C 160.63 166.59 161.30 166.00 161.36 165.22 L 161.42 164.22 C 161.48 163.44 160.89 162.77 160.11 162.72 C 159.34 162.67 158.67 163.25 158.61 164.03 Z M 158.55 165.03 L 158.48 166.02 C 158.42 166.79 159.00 167.47 159.78 167.52 C 160.55 167.58 161.23 167.00 161.28 166.22 L 161.36 165.23 C 161.41 164.46 160.83 163.78 160.05 163.73 C 159.28 163.67 158.60 164.25 158.55 165.03 Z M 158.48 166.01 L 158.40 167.00 C 158.34 167.77 158.91 168.45 159.69 168.51 C 160.46 168.58 161.14 168.00 161.20 167.22 L 161.28 166.23 C 161.34 165.46 160.77 164.78 159.99 164.72 C 159.22 164.66 158.54 165.23 158.48 166.01 Z M 158.40 166.99 L 158.31 167.98 C 158.24 168.76 158.81 169.44 159.59 169.51 C 160.36 169.58 161.05 169.00 161.11 168.23 L 161.20 167.23 C 161.27 166.46 160.70 165.78 159.92 165.71 C 159.15 165.64 158.47 166.21 158.40 166.99 Z M 158.31 167.98 L 158.22 168.97 C 158.15 169.74 158.72 170.43 159.49 170.50 C 160.27 170.57 160.95 170.00 161.02 169.23 L 161.11 168.24 C 161.18 167.46 160.61 166.78 159.84 166.71 C 159.07 166.63 158.38 167.20 158.31 167.98 Z M 158.22 168.97 L 158.13 169.99 C 158.06 170.77 158.63 171.45 159.40 171.52 C 160.17 171.59 160.86 171.02 160.93 170.25 L 161.02 169.23 C 161.09 168.45 160.52 167.77 159.75 167.70 C 158.97 167.63 158.29 168.20 158.22 168.97 Z M 158.13 170.00 L 158.04 171.02 C 157.97 171.79 158.54 172.48 159.31 172.55 C 160.09 172.62 160.77 172.05 160.84 171.27 L 160.93 170.25 C 161.00 169.47 160.43 168.79 159.65 168.72 C 158.88 168.65 158.20 169.22 158.13 170.00 Z M 158.04 171.02 L 157.95 171.98 C 157.88 172.75 158.45 173.44 159.22 173.51 C 160.00 173.58 160.68 173.00 160.75 172.23 L 160.84 171.27 C 160.91 170.50 160.34 169.81 159.56 169.74 C 158.79 169.68 158.11 170.25 158.04 171.02 Z M 157.95 171.97 L 157.86 172.96 C 157.78 173.73 158.35 174.42 159.12 174.49 C 159.90 174.57 160.58 174.00 160.66 173.22 L 160.75 172.24 C 160.82 171.46 160.26 170.78 159.48 170.70 C 158.71 170.63 158.02 171.20 157.95 171.97 Z M 157.86 172.93 L 157.75 173.90 C 157.66 174.68 158.22 175.37 158.99 175.46 C 159.76 175.54 160.46 174.99 160.55 174.22 L 160.65 173.25 C 160.74 172.48 160.19 171.78 159.41 171.69 C 158.64 171.61 157.95 172.16 157.86 172.93 Z M 157.75 173.87 L 157.62 174.87 C 157.51 175.64 158.05 176.35 158.82 176.45 C 159.59 176.56 160.30 176.02 160.40 175.25 L 160.54 174.25 C 160.65 173.48 160.11 172.77 159.34 172.67 C 158.57 172.56 157.86 173.10 157.75 173.87 Z M 157.62 174.85 L 157.47 175.86 C 157.35 176.63 157.87 177.35 158.64 177.47 C 159.41 177.58 160.13 177.06 160.24 176.29 L 160.40 175.27 C 160.52 174.51 159.99 173.79 159.23 173.67 C 158.46 173.55 157.74 174.08 157.62 174.85 Z M 157.47 175.85 L 157.31 176.82 C 157.18 177.58 157.70 178.31 158.46 178.43 C 159.23 178.56 159.95 178.04 160.08 177.28 L 160.24 176.31 C 160.37 175.54 159.85 174.82 159.08 174.69 C 158.32 174.57 157.60 175.08 157.47 175.85 Z M 157.32 176.78 L 157.11 177.86 C 156.97 178.62 157.47 179.35 158.23 179.50 C 158.99 179.64 159.72 179.14 159.87 178.38 L 160.07 177.31 C 160.22 176.55 159.72 175.81 158.96 175.67 C 158.20 175.52 157.46 176.02 157.32 176.78 Z M 157.16 177.69 L 156.88 178.56 C 156.64 179.29 157.04 180.08 157.77 180.32 C 158.51 180.56 159.30 180.16 159.54 179.42 L 159.82 178.55 C 160.06 177.82 159.66 177.03 158.92 176.79 C 158.19 176.55 157.40 176.95 157.16 177.69 Z M 157.16 178.07 L 156.51 178.81 C 156.00 179.39 156.05 180.27 156.63 180.78 C 157.20 181.29 158.08 181.23 158.59 180.66 L 159.25 179.91 C 159.76 179.34 159.71 178.45 159.13 177.94 C 158.55 177.43 157.67 177.49 157.16 178.07 Z M 158.34 178.61 L 157.71 178.16 C 157.09 177.73 156.23 177.87 155.80 178.50 C 155.36 179.12 155.51 179.98 156.13 180.42 L 156.76 180.86 C 157.38 181.30 158.24 181.15 158.68 180.53 C 159.11 179.90 158.96 179.04 158.34 178.61 Z M 158.09 178.60 L 157.65 177.86 C 157.26 177.22 156.43 177.01 155.79 177.39 C 155.15 177.77 154.94 178.60 155.32 179.24 L 155.76 179.98 C 156.14 180.63 156.97 180.84 157.61 180.45 C 158.26 180.07 158.47 179.24 158.09 178.60 Z"
      fill="black"
      fill-rule="nonzero" /></svg>