<svg xmlns="http://www.w3.org/2000/svg" width="300" height="300" viewBox="0 0 300 300">
<path d="M 138.5 131.5 L 138.5 131.5 L 138.5 132.0 L 138.5 132.0 L 138.0 132.0 L 138.0 132.0 L 137.5 132.0 L 137.5 132.0 L 138.0 132.0 L 140.0 132.0 L 142.0 133.0 L 144.0 136.0 L 144.5 139.0 L 144.0 143.0 L 143.5 143.5 L 142.5 145.0 " stroke="black" fill="none" stroke-width="2.0" stroke-linecap="round" stroke-linejoin="round" />
<path d="M 136.5 144.5 L 136.0 144.5 L 136.0 144.5 L 135.5 144.5 L 136.0 144.5 L 137.0 144.5 L 139.5 144.0 L 140.0 143.5 L 141.5 143.5 L 141.5 143.5 L 141.0 144.0 L 139.5 144.5 L 138.0 145.5 L 137.0 147.0 L 136.0 149.0 L 134.0 152.5 L 133.5 153.5 L 132.0 156.0 L 131.5 157.0 L 131.5 157.0 L 133.5 157.0 L 138.5 156.0 L 142.0 155.5 L 144.0 156.5 L 144.0 159.0 L 143.5 164.0 L 143.0 165.0 L 140.5 169.0 L 138.5 170.5 L 138.0 171.0 L 136.5 171.0 L 133.5 170.0 L 133.0 168.0 L 133.0 164.5 " stroke="black" fill="none" stroke-width="2.0" stroke-linecap="round" stroke-linejoin="round" />
<path d="M 160.5 126.0 L 160.5 125.5 L 160.5 125.5 L 160.5 125.0 L 160.5 125.0 L 160.5 125.0 L 159.0 127.5 L 156.5 132.0 L 153.5 137.0 L 152.0 140.0 L 152.0 140.5 L 152.5 140.5 L 155.5 140.0 L 156.5 139.5 L 160.0 138.0 L 161.0 137.5 L 163.5 136.0 L 164.5 136.0 L 166.0 135.0 L 166.0 135.0 L 166.0 135.0 L 166.5 136.0 L 167.0 139.0 L 168.0 142.5 L 168.5 144.0 L 168.5 144.5 L 168.5 144.5 " stroke="black" fill="none" stroke-width="2.0" stroke-linecap="round" stroke-linejoin="round" />
<path d="M 151.5 147.0 L 151.0 147.0 L 151.0 147.0 L 151.0 147.5 L 151.0 147.5 L 151.0 147.5 L 152.0 148.5 L 152.5 149.0 L 154.5 151.0 L 155.0 152.0 L 157.5 155.0 L 158.5 156.5 L 158.5 156.5 L 157.5 155.0 L 157.5 153.0 L 157.5 151.0 L 158.0 150.5 L 160.0 149.5 L 161.0 149.0 L 164.5 148.0 L 165.5 148.0 L 168.5 148.0 L 170.0 149.5 L 170.5 151.5 L 167.5 154.0 L 164.0 156.0 L 161.5 157.5 L 159.0 158.0 " stroke="black" fill="none" stroke-width="2.0" stroke-linecap="round" stroke-linejoin="round" />
<path d="M 160.0 144.0 L 160.0 144.0 L 160.0 144.0 L 160.0 144.0 L 160.0 145.5 L 160.5 150.5 L 161.0 152.5 L 161.0 158.5 L 161.0 160.5 L 159.5 168.0 L 157.5 171.0 L 156.5 172.0 L 156.5 172.0 L 156.5 171.5 L 156.5 171.0 L 156.5 171.0 L 157.5 170.5 L 159.0 170.5 L 161.5 170.5 L 162.5 170.5 L 166.0 170.5 L 169.5 170.5 L 171.0 170.5 L 171.5 171.0 L 171.5 171.0 L 171.5 171.0 " stroke="black" fill="none" stroke-width="2.0" stroke-linecap="round" stroke-linejoin="round" />
<path d="M 172.0 163.5 L 172.0 163.5 L 172.0 163.5 L 172.0 163.5 L 172.5 163.5 L 173.0 165.0 L 174.0 169.5 L 175.5 174.5 L 176.5 178.0 " stroke="black" fill="none" stroke-width="2.0" stroke-linecap="round" stroke-linejoin="round" />
</svg>