<svg xmlns="http://www.w3.org/2000/svg" width="300" height="300" viewBox="0 0 300 300">
<path d="M 132.5 129.0 L 132.5 129.0 L 132.5 129.0 L 132.0 129.0 L 132.0 129.0 L 132.0 129.0 L 132.0 129.0 L 134.0 129.0 L 136.5 129.0 L 139.0 129.5 L 141.0 132.0 L 141.0 134.5 L 141.0 135.5 L 140.5 138.5 " stroke="black" fill="none" stroke-width="2.0" stroke-linecap="round" stroke-linejoin="round" />
<path d="M 131.5 139.5 L 131.5 139.5 L 131.0 139.5 L 131.0 139.0 L 131.0 139.0 L 131.5 139.0 L 131.5 138.5 L 133.5 138.5 L 135.5 138.0 L 136.0 138.0 L 136.5 138.5 L 135.5 139.5 L 134.0 141.5 L 132.5 144.0 L 131.5 147.0 L 131.0 148.0 L 129.5 150.5 L 129.5 151.5 L 129.0 153.0 L 129.5 153.5 L 133.0 151.5 L 137.0 150.0 L 140.0 150.0 L 141.5 153.5 L 142.0 159.0 L 141.0 162.5 L 140.5 164.0 L 138.5 166.0 L 138.0 167.0 L 135.0 168.0 L 132.0 168.0 L 129.0 166.5 L 127.5 164.0 L 127.5 160.5 " stroke="black" fill="none" stroke-width="2.0" stroke-linecap="round" stroke-linejoin="round" />
<path d="M 148.0 123.5 L 147.5 122.5 L 147.5 122.5 L 147.5 122.0 L 147.5 123.0 L 148.5 126.5 L 149.0 131.0 L 149.0 134.0 L 149.0 134.5 " stroke="black" fill="none" stroke-width="2.0" stroke-linecap="round" stroke-linejoin="round" />
<path d="M 150.5 123.5 L 150.5 123.5 L 151.0 122.5 L 152.0 121.5 L 154.5 121.5 L 156.5 122.5 L 157.0 123.5 L 157.5 125.5 L 157.5 126.5 L 157.5 129.0 L 157.5 130.0 L 154.5 134.0 L 152.0 136.0 L 151.0 136.5 " stroke="black" fill="none" stroke-width="2.0" stroke-linecap="round" stroke-linejoin="round" />
<path d="M 163.0 121.5 L 163.0 121.5 L 163.0 121.5 L 163.5 123.5 L 163.5 127.5 L 163.5 131.0 L 163.5 131.5 L 163.5 133.5 L 163.5 133.5 L 163.5 133.5 " stroke="black" fill="none" stroke-width="2.0" stroke-linecap="round" stroke-linejoin="round" />
<path d="M 165.0 121.0 L 165.0 120.5 L 165.0 120.5 L 165.5 120.0 L 167.5 120.0 L 168.0 120.0 L 170.0 121.0 L 171.0 121.5 L 173.0 124.5 L 173.0 128.0 L 171.0 131.5 L 167.5 135.0 L 164.0 137.5 L 163.0 138.0 " stroke="black" fill="none" stroke-width="2.0" stroke-linecap="round" stroke-linejoin="round" />
<path d="M 152.5 139.0 L 152.5 139.0 L 152.5 139.0 L 152.5 139.5 L 152.5 141.5 L 152.0 146.5 L 151.5 151.5 L 151.0 154.5 L 151.0 155.0 L 151.0 155.5 L 151.0 155.5 L 151.5 153.5 L 151.5 152.5 L 152.5 149.0 L 152.5 148.0 L 153.5 143.0 L 155.0 140.0 L 157.0 137.5 L 160.0 136.5 L 164.0 136.5 L 166.5 137.0 L 167.0 137.5 L 169.5 140.0 L 170.0 142.5 L 170.5 143.5 L 170.5 146.5 L 170.5 147.5 L 170.0 152.0 L 168.5 155.0 L 168.0 156.0 " stroke="black" fill="none" stroke-width="2.0" stroke-linecap="round" stroke-linejoin="round" />
<path d="M 154.5 148.5 L 154.5 148.5 L 154.5 148.5 L 155.0 148.5 L 157.5 148.5 L 162.0 148.0 L 165.0 148.0 L 166.0 148.0 L 167.0 148.0 " stroke="black" fill="none" stroke-width="2.0" stroke-linecap="round" stroke-linejoin="round" />
<path d="M 152.0 157.5 L 152.0 157.5 L 152.5 158.0 L 154.0 158.0 L 155.0 158.0 L 159.5 157.0 L 160.5 156.5 L 165.5 156.0 L 168.0 156.0 L 168.0 156.5 " stroke="black" fill="none" stroke-width="2.0" stroke-linecap="round" stroke-linejoin="round" />
<path d="M 147.0 166.0 L 147.0 167.0 L 147.0 167.0 L 147.0 167.0 L 150.0 166.5 L 156.0 164.5 L 163.5 162.5 L 169.0 161.5 L 172.0 161.5 " stroke="black" fill="none" stroke-width="2.0" stroke-linecap="round" stroke-linejoin="round" />
<path d="M 161.5 139.0 L 161.5 139.0 L 161.5 139.0 L 161.0 139.0 L 161.0 139.0 L 161.0 139.0 L 161.0 139.0 L 161.0 140.0 L 161.0 140.5 L 161.0 146.0 L 161.0 155.5 L 161.0 167.0 L 159.5 176.0 L 158.5 180.5 L 158.5 182.0 L 158.5 182.0 L 158.5 182.0 L 158.5 180.5 L 159.0 179.5 " stroke="black" fill="none" stroke-width="2.0" stroke-linecap="round" stroke-linejoin="round" />
</svg>