<svg xmlns="http://www.w3.org/2000/svg" width="300" height="300" viewBox="0 0 300 300">
<path d="M 122.42 123.64 L 122.46 124.69 C 122.49 125.45 123.14 126.05 123.90 126.02 C 124.66 125.99 125.26 125.34 125.23 124.58 L 125.18 123.53 C 125.15 122.77 124.51 122.17 123.75 122.20 C 122.98 122.23 122.39 122.88 122.42 123.64 Z M 122.46 124.79 L 122.57 125.76 C 122.65 126.52 123.34 127.07 124.10 126.99 C 124.86 126.91 125.41 126.22 125.33 125.46 L 125.22 124.49 C 125.14 123.72 124.46 123.17 123.69 123.26 C 122.93 123.34 122.38 124.02 122.46 124.79 Z M 122.61 126.00 L 122.88 126.92 C 123.10 127.66 123.87 128.08 124.61 127.87 C 125.35 127.65 125.77 126.88 125.56 126.14 L 125.29 125.22 C 125.07 124.48 124.30 124.06 123.56 124.27 C 122.82 124.49 122.40 125.26 122.61 126.00 Z M 122.99 127.19 L 123.45 128.05 C 123.82 128.73 124.66 128.99 125.34 128.63 C 126.02 128.26 126.28 127.42 125.91 126.74 L 125.45 125.87 C 125.08 125.19 124.24 124.94 123.56 125.30 C 122.88 125.66 122.62 126.51 122.99 127.19 Z M 123.51 128.15 L 124.06 129.01 C 124.48 129.66 125.34 129.84 125.99 129.42 C 126.64 129.01 126.82 128.14 126.41 127.49 L 125.85 126.64 C 125.44 125.99 124.57 125.80 123.92 126.22 C 123.28 126.64 123.09 127.50 123.51 128.15 Z M 124.07 129.03 L 124.65 129.88 C 125.07 130.52 125.94 130.69 126.58 130.27 C 127.22 129.84 127.39 128.97 126.97 128.33 L 126.39 127.48 C 125.97 126.84 125.10 126.66 124.46 127.09 C 123.82 127.52 123.65 128.39 124.07 129.03 Z M 124.66 129.90 L 125.24 130.74 C 125.68 131.37 126.54 131.53 127.18 131.09 C 127.81 130.65 127.97 129.79 127.53 129.15 L 126.95 128.31 C 126.52 127.68 125.65 127.52 125.01 127.96 C 124.38 128.40 124.22 129.27 124.66 129.90 Z M 125.26 130.76 L 125.84 131.56 C 126.29 132.18 127.15 132.32 127.78 131.87 C 128.40 131.42 128.54 130.55 128.09 129.93 L 127.51 129.13 C 127.06 128.51 126.19 128.37 125.57 128.82 C 124.95 129.27 124.81 130.14 125.26 130.76 Z M 125.86 131.57 L 126.43 132.34 C 126.89 132.95 127.76 133.08 128.37 132.62 C 128.98 132.16 129.10 131.29 128.64 130.68 L 128.07 129.91 C 127.61 129.30 126.74 129.18 126.13 129.64 C 125.52 130.10 125.40 130.96 125.86 131.57 Z M 126.44 132.34 L 127.05 133.15 C 127.51 133.75 128.38 133.87 128.98 133.41 C 129.59 132.95 129.71 132.08 129.25 131.48 L 128.63 130.68 C 128.17 130.07 127.31 129.95 126.70 130.41 C 126.10 130.87 125.98 131.74 126.44 132.34 Z M 127.06 133.14 L 127.66 133.93 C 128.12 134.54 128.98 134.65 129.58 134.19 C 130.18 133.73 130.30 132.87 129.84 132.27 L 129.24 131.48 C 128.78 130.88 127.92 130.76 127.32 131.22 C 126.72 131.68 126.60 132.54 127.06 133.14 Z M 127.67 133.93 L 128.27 134.72 C 128.73 135.32 129.59 135.43 130.18 134.97 C 130.78 134.51 130.90 133.65 130.44 133.05 L 129.83 132.27 C 129.38 131.67 128.52 131.56 127.92 132.02 C 127.32 132.48 127.21 133.34 127.67 133.93 Z M 128.28 134.72 L 128.81 135.40 C 129.27 135.99 130.12 136.10 130.72 135.64 C 131.31 135.18 131.42 134.32 130.95 133.73 L 130.43 133.05 C 129.96 132.45 129.11 132.35 128.51 132.81 C 127.92 133.27 127.82 134.13 128.28 134.72 Z M 128.81 135.40 L 129.49 136.27 C 129.96 136.86 130.81 136.96 131.40 136.50 C 131.99 136.03 132.09 135.18 131.63 134.59 L 130.95 133.72 C 130.48 133.13 129.63 133.03 129.04 133.50 C 128.45 133.96 128.35 134.81 128.81 135.40 Z M 129.50 136.27 L 130.12 137.06 C 130.58 137.64 131.44 137.74 132.02 137.28 C 132.61 136.81 132.71 135.96 132.25 135.37 L 131.62 134.59 C 131.16 134.00 130.31 133.90 129.72 134.36 C 129.13 134.83 129.03 135.68 129.50 136.27 Z M 130.12 137.05 L 130.75 137.85 C 131.21 138.44 132.06 138.54 132.65 138.08 C 133.24 137.62 133.34 136.77 132.88 136.18 L 132.25 135.38 C 131.79 134.79 130.93 134.69 130.35 135.15 C 129.76 135.61 129.66 136.46 130.12 137.05 Z M 130.74 137.85 L 131.38 138.67 C 131.84 139.26 132.69 139.37 133.28 138.92 C 133.87 138.46 133.98 137.61 133.52 137.02 L 132.88 136.19 C 132.43 135.60 131.58 135.49 130.99 135.95 C 130.40 136.41 130.29 137.25 130.74 137.85 Z M 131.37 138.66 L 131.99 139.47 C 132.44 140.07 133.28 140.19 133.88 139.74 C 134.47 139.30 134.60 138.45 134.15 137.85 L 133.53 137.03 C 133.09 136.44 132.24 136.32 131.64 136.77 C 131.05 137.21 130.93 138.06 131.37 138.66 Z M 131.97 139.44 L 132.60 140.33 C 133.03 140.94 133.87 141.08 134.48 140.65 C 135.09 140.21 135.23 139.37 134.80 138.77 L 134.16 137.88 C 133.73 137.28 132.89 137.13 132.29 137.57 C 131.68 138.00 131.54 138.84 131.97 139.44 Z M 132.59 140.30 L 133.12 141.09 C 133.53 141.70 134.37 141.87 134.98 141.45 C 135.60 141.04 135.76 140.20 135.34 139.59 L 134.81 138.80 C 134.40 138.18 133.56 138.02 132.95 138.44 C 132.33 138.85 132.17 139.69 132.59 140.30 Z M 133.11 141.07 L 133.45 141.59 C 133.86 142.21 134.69 142.38 135.31 141.97 C 135.92 141.56 136.09 140.73 135.69 140.12 L 135.35 139.60 C 134.94 138.98 134.11 138.81 133.50 139.22 C 132.88 139.63 132.71 140.46 133.11 141.07 Z"
      fill="black"
      fill-rule="nonzero" /><path d="M 129.10 129.45 L 129.57 128.58 C 129.94 127.92 129.69 127.08 129.03 126.72 C 128.36 126.35 127.52 126.59 127.16 127.26 L 126.68 128.13 C 126.32 128.79 126.56 129.63 127.23 130.00 C 127.89 130.36 128.73 130.12 129.10 129.45 Z M 129.31 128.94 L 130.02 128.28 C 130.59 127.76 130.62 126.88 130.10 126.32 C 129.58 125.76 128.70 125.72 128.14 126.24 L 127.42 126.90 C 126.86 127.42 126.83 128.30 127.35 128.86 C 127.87 129.43 128.74 129.46 129.31 128.94 Z M 129.57 128.57 L 130.47 128.23 C 131.19 127.97 131.56 127.17 131.29 126.44 C 131.02 125.72 130.22 125.35 129.50 125.62 L 128.60 125.96 C 127.88 126.22 127.51 127.02 127.78 127.74 C 128.04 128.47 128.84 128.83 129.57 128.57 Z M 130.22 128.30 L 131.25 128.12 C 132.01 127.99 132.52 127.27 132.39 126.51 C 132.26 125.76 131.54 125.25 130.78 125.38 L 129.75 125.56 C 128.99 125.69 128.48 126.41 128.61 127.16 C 128.74 127.92 129.46 128.43 130.22 128.30 Z M 131.14 128.14 L 132.15 128.05 C 132.91 127.99 133.48 127.31 133.42 126.54 C 133.35 125.78 132.68 125.21 131.91 125.28 L 130.90 125.36 C 130.13 125.43 129.56 126.10 129.63 126.87 C 129.70 127.64 130.37 128.20 131.14 128.14 Z M 132.08 128.05 L 133.07 128.02 C 133.83 127.99 134.44 127.35 134.41 126.58 C 134.38 125.81 133.74 125.21 132.97 125.24 L 131.98 125.27 C 131.21 125.30 130.61 125.95 130.64 126.71 C 130.67 127.48 131.31 128.08 132.08 128.05 Z M 133.03 128.02 L 134.03 128.01 C 134.80 128.00 135.41 127.37 135.40 126.60 C 135.39 125.83 134.76 125.22 134.00 125.23 L 133.00 125.24 C 132.23 125.25 131.62 125.88 131.63 126.65 C 131.64 127.41 132.27 128.03 133.03 128.02 Z M 134.01 128.00 L 135.02 128.01 C 135.78 128.01 136.40 127.38 136.41 126.62 C 136.41 125.85 135.78 125.23 135.02 125.23 L 134.01 125.23 C 133.25 125.23 132.63 125.85 132.63 126.62 C 132.63 127.38 133.25 128.00 134.01 128.00 Z M 135.00 128.00 L 136.00 128.02 C 136.77 128.03 137.39 127.42 137.40 126.65 C 137.42 125.89 136.80 125.26 136.04 125.25 L 135.04 125.23 C 134.27 125.22 133.64 125.83 133.63 126.60 C 133.62 127.36 134.23 127.99 135.00 128.00 Z M 135.94 128.01 L 136.94 128.07 C 137.70 128.11 138.35 127.53 138.40 126.76 C 138.44 126.00 137.85 125.35 137.09 125.31 L 136.10 125.25 C 135.33 125.21 134.68 125.79 134.64 126.55 C 134.60 127.32 135.18 127.97 135.94 128.01 Z M 136.80 128.05 L 137.79 128.21 C 138.54 128.33 139.25 127.81 139.37 127.06 C 139.49 126.31 138.97 125.60 138.22 125.48 L 137.23 125.32 C 136.48 125.20 135.77 125.72 135.65 126.47 C 135.53 127.22 136.05 127.93 136.80 128.05 Z M 137.58 128.16 L 138.55 128.47 C 139.28 128.70 140.05 128.30 140.28 127.57 C 140.51 126.85 140.12 126.07 139.39 125.84 L 138.42 125.53 C 137.70 125.30 136.92 125.70 136.69 126.42 C 136.46 127.15 136.86 127.92 137.58 128.16 Z M 138.30 128.36 L 139.15 128.83 C 139.82 129.20 140.66 128.96 141.03 128.30 C 141.40 127.64 141.16 126.80 140.49 126.43 L 139.64 125.95 C 138.98 125.58 138.14 125.82 137.77 126.48 C 137.40 127.15 137.64 127.99 138.30 128.36 Z M 138.85 128.60 L 139.54 129.29 C 140.07 129.83 140.94 129.83 141.48 129.30 C 142.02 128.76 142.02 127.89 141.49 127.35 L 140.80 126.66 C 140.26 126.12 139.39 126.12 138.85 126.65 C 138.32 127.19 138.31 128.06 138.85 128.60 Z M 139.28 128.93 L 139.72 129.84 C 140.06 130.52 140.88 130.80 141.56 130.47 C 142.24 130.13 142.53 129.31 142.19 128.63 L 141.75 127.72 C 141.41 127.04 140.59 126.75 139.91 127.09 C 139.23 127.42 138.94 128.25 139.28 128.93 Z M 139.61 129.49 L 139.79 130.48 C 139.94 131.23 140.66 131.72 141.40 131.58 C 142.15 131.43 142.64 130.71 142.50 129.97 L 142.31 128.97 C 142.17 128.23 141.45 127.74 140.70 127.88 C 139.95 128.02 139.46 128.74 139.61 129.49 Z M 139.77 130.26 L 139.80 131.27 C 139.82 132.03 140.45 132.63 141.21 132.61 C 141.97 132.59 142.57 131.96 142.55 131.20 L 142.52 130.19 C 142.50 129.43 141.87 128.83 141.11 128.85 C 140.35 128.87 139.75 129.50 139.77 130.26 Z M 139.80 131.09 L 139.69 132.13 C 139.61 132.88 140.16 133.56 140.91 133.64 C 141.67 133.72 142.35 133.18 142.43 132.42 L 142.54 131.38 C 142.62 130.63 142.08 129.95 141.32 129.87 C 140.56 129.79 139.89 130.33 139.80 131.09 Z M 139.75 131.87 L 139.47 132.77 C 139.25 133.49 139.66 134.26 140.38 134.49 C 141.11 134.71 141.88 134.30 142.10 133.57 L 142.37 132.68 C 142.60 131.95 142.19 131.18 141.46 130.96 C 140.74 130.74 139.97 131.15 139.75 131.87 Z M 139.58 132.52 L 139.11 133.39 C 138.75 134.05 138.99 134.88 139.66 135.25 C 140.33 135.61 141.16 135.36 141.52 134.69 L 141.99 133.82 C 142.35 133.16 142.11 132.33 141.44 131.97 C 140.77 131.60 139.94 131.85 139.58 132.52 Z M 139.20 133.24 L 138.62 134.05 C 138.18 134.67 138.32 135.52 138.93 135.96 C 139.54 136.41 140.40 136.27 140.84 135.65 L 141.42 134.84 C 141.87 134.23 141.73 133.37 141.11 132.93 C 140.50 132.49 139.65 132.63 139.20 133.24 Z M 138.68 133.99 L 138.04 134.76 C 137.56 135.34 137.64 136.20 138.22 136.68 C 138.80 137.15 139.66 137.07 140.14 136.49 L 140.78 135.72 C 141.26 135.14 141.18 134.28 140.60 133.80 C 140.02 133.32 139.16 133.40 138.68 133.99 Z M 138.10 134.70 L 137.43 135.42 C 136.92 135.97 136.95 136.83 137.50 137.34 C 138.05 137.85 138.91 137.82 139.42 137.27 L 140.09 136.55 C 140.60 136.00 140.56 135.14 140.01 134.63 C 139.46 134.12 138.60 134.15 138.10 134.70 Z M 137.59 135.28 L 136.80 135.90 C 136.22 136.36 136.12 137.21 136.58 137.80 C 137.04 138.38 137.89 138.48 138.47 138.02 L 139.26 137.41 C 139.85 136.95 139.95 136.10 139.49 135.51 C 139.03 134.92 138.18 134.82 137.59 135.28 Z M 137.01 135.78 L 136.13 136.24 C 135.48 136.59 135.23 137.41 135.58 138.06 C 135.93 138.72 136.74 138.96 137.40 138.61 L 138.27 138.15 C 138.93 137.80 139.17 136.98 138.82 136.33 C 138.47 135.67 137.66 135.43 137.01 135.78 Z M 136.20 136.21 L 135.65 136.47 C 134.97 136.78 134.68 137.58 134.99 138.25 C 135.30 138.92 136.10 139.21 136.77 138.90 L 137.33 138.64 C 138.00 138.33 138.29 137.54 137.98 136.87 C 137.67 136.20 136.87 135.90 136.20 136.21 Z"
      fill="black"
      fill-rule="nonzero" /><path d="M 130.91 134.85 L 131.78 135.13 C 132.51 135.36 133.29 134.95 133.52 134.23 C 133.75 133.50 133.34 132.72 132.61 132.49 L 131.75 132.21 C 131.02 131.98 130.24 132.39 130.01 133.11 C 129.78 133.84 130.18 134.62 130.91 134.85 Z M 132.04 135.19 L 133.07 135.31 C 133.83 135.40 134.52 134.85 134.61 134.09 C 134.70 133.33 134.15 132.64 133.39 132.55 L 132.36 132.43 C 131.60 132.34 130.90 132.88 130.82 133.65 C 130.73 134.41 131.27 135.10 132.04 135.19 Z M 133.36 135.31 L 134.29 135.22 C 135.05 135.15 135.62 134.47 135.54 133.71 C 135.47 132.95 134.79 132.38 134.03 132.46 L 133.10 132.54 C 132.34 132.62 131.77 133.29 131.85 134.06 C 131.92 134.82 132.60 135.38 133.36 135.31 Z M 134.43 135.19 L 135.40 135.00 C 136.14 134.85 136.62 134.12 136.47 133.37 C 136.32 132.62 135.59 132.14 134.85 132.29 L 133.88 132.49 C 133.14 132.64 132.66 133.37 132.81 134.12 C 132.96 134.86 133.69 135.34 134.43 135.19 Z M 135.46 134.97 L 136.49 134.71 C 137.22 134.52 137.66 133.78 137.48 133.05 C 137.29 132.31 136.55 131.87 135.82 132.06 L 134.78 132.32 C 134.05 132.51 133.61 133.25 133.80 133.98 C 133.98 134.71 134.73 135.16 135.46 134.97 Z M 136.51 134.69 L 137.16 134.52 C 137.88 134.32 138.31 133.58 138.11 132.85 C 137.92 132.13 137.17 131.70 136.45 131.90 L 135.80 132.07 C 135.07 132.27 134.65 133.02 134.84 133.74 C 135.04 134.46 135.78 134.89 136.51 134.69 Z"
      fill="black"
      fill-rule="nonzero" /><path d="M 129.42 139.20 L 130.23 139.78 C 130.85 140.22 131.70 140.07 132.14 139.46 C 132.57 138.85 132.43 138.00 131.82 137.56 L 131.01 136.98 C 130.39 136.54 129.54 136.68 129.10 137.29 C 128.66 137.91 128.81 138.76 129.42 139.20 Z M 130.61 139.98 L 131.50 140.26 C 132.22 140.49 132.99 140.09 133.22 139.36 C 133.45 138.64 133.05 137.87 132.33 137.64 L 131.44 137.36 C 130.72 137.13 129.95 137.53 129.72 138.25 C 129.49 138.98 129.89 139.75 130.61 139.98 Z M 132.00 140.32 L 132.94 140.26 C 133.70 140.22 134.27 139.57 134.23 138.81 C 134.18 138.05 133.53 137.48 132.78 137.52 L 131.83 137.58 C 131.07 137.63 130.50 138.28 130.54 139.03 C 130.59 139.79 131.24 140.37 132.00 140.32 Z M 133.15 140.23 L 134.20 140.00 C 134.94 139.84 135.41 139.11 135.25 138.37 C 135.09 137.63 134.36 137.17 133.62 137.33 L 132.57 137.55 C 131.83 137.71 131.36 138.44 131.52 139.18 C 131.68 139.92 132.41 140.39 133.15 140.23 Z M 134.26 139.98 L 135.19 139.74 C 135.91 139.54 136.35 138.80 136.16 138.07 C 135.96 137.34 135.22 136.91 134.49 137.10 L 133.56 137.35 C 132.83 137.54 132.40 138.29 132.59 139.01 C 132.78 139.74 133.53 140.18 134.26 139.98 Z M 135.21 139.72 L 136.20 139.44 C 136.92 139.24 137.34 138.49 137.13 137.77 C 136.93 137.05 136.18 136.63 135.46 136.83 L 134.47 137.11 C 133.75 137.32 133.33 138.07 133.53 138.79 C 133.74 139.51 134.49 139.93 135.21 139.72 Z M 136.21 139.43 L 136.85 139.25 C 137.57 139.04 137.98 138.29 137.78 137.57 C 137.57 136.86 136.82 136.44 136.10 136.65 L 135.45 136.84 C 134.74 137.05 134.32 137.80 134.53 138.51 C 134.74 139.23 135.49 139.64 136.21 139.43 Z"
      fill="black"
      fill-rule="nonzero" /><path d="M 132.09 138.27 L 132.33 139.28 C 132.51 140.03 133.26 140.49 134.00 140.31 C 134.74 140.13 135.20 139.38 135.02 138.64 L 134.78 137.63 C 134.60 136.88 133.86 136.43 133.11 136.60 C 132.37 136.78 131.91 137.53 132.09 138.27 Z M 132.33 139.27 L 132.54 140.22 C 132.71 140.97 133.45 141.43 134.20 141.27 C 134.94 141.10 135.41 140.36 135.24 139.61 L 135.03 138.66 C 134.86 137.91 134.12 137.44 133.37 137.61 C 132.63 137.78 132.16 138.52 132.33 139.27 Z M 132.53 140.17 L 132.73 141.19 C 132.87 141.94 133.59 142.43 134.34 142.29 C 135.09 142.14 135.59 141.42 135.44 140.67 L 135.25 139.66 C 135.11 138.91 134.38 138.41 133.63 138.56 C 132.88 138.70 132.39 139.42 132.53 140.17 Z M 132.72 141.11 L 132.85 142.05 C 132.95 142.80 133.63 143.33 134.39 143.23 C 135.14 143.13 135.67 142.45 135.57 141.69 L 135.45 140.75 C 135.35 140.00 134.66 139.47 133.91 139.57 C 133.16 139.67 132.63 140.35 132.72 141.11 Z M 132.86 141.97 L 132.93 142.97 C 132.98 143.71 133.63 144.28 134.37 144.22 C 135.12 144.17 135.68 143.52 135.63 142.78 L 135.56 141.78 C 135.51 141.03 134.86 140.47 134.11 140.52 C 133.37 140.57 132.80 141.22 132.86 141.97 Z M 132.94 142.94 L 132.96 143.36 C 133.00 144.10 133.63 144.67 134.37 144.63 C 135.10 144.59 135.67 143.97 135.64 143.23 L 135.62 142.81 C 135.58 142.07 134.95 141.50 134.21 141.53 C 133.47 141.57 132.90 142.20 132.94 142.94 Z"
      fill="black"
      fill-rule="nonzero" /><path d="M 119.85 148.55 L 120.76 148.88 C 121.48 149.13 122.27 148.76 122.53 148.03 C 122.79 147.31 122.41 146.52 121.69 146.26 L 120.77 145.94 C 120.05 145.68 119.26 146.06 119.00 146.78 C 118.75 147.50 119.12 148.30 119.85 148.55 Z M 121.07 148.96 L 122.03 149.07 C 122.80 149.15 123.49 148.60 123.58 147.83 C 123.66 147.06 123.10 146.36 122.33 146.28 L 121.38 146.18 C 120.61 146.09 119.91 146.65 119.83 147.42 C 119.75 148.19 120.30 148.88 121.07 148.96 Z M 122.34 149.07 L 123.29 148.96 C 124.07 148.87 124.62 148.17 124.53 147.40 C 124.44 146.63 123.74 146.07 122.97 146.16 L 122.02 146.27 C 121.25 146.36 120.69 147.06 120.78 147.84 C 120.87 148.61 121.57 149.16 122.34 149.07 Z M 123.42 148.94 L 124.50 148.71 C 125.26 148.55 125.75 147.80 125.58 147.04 C 125.42 146.28 124.67 145.79 123.91 145.96 L 122.84 146.19 C 122.08 146.35 121.59 147.10 121.75 147.86 C 121.91 148.62 122.66 149.11 123.42 148.94 Z M 124.54 148.70 L 125.53 148.46 C 126.29 148.28 126.75 147.51 126.57 146.76 C 126.38 146.00 125.62 145.54 124.86 145.72 L 123.87 145.97 C 123.11 146.15 122.65 146.91 122.83 147.67 C 123.02 148.43 123.78 148.89 124.54 148.70 Z M 125.55 148.46 L 126.53 148.21 C 127.29 148.02 127.74 147.25 127.55 146.49 C 127.36 145.74 126.59 145.28 125.83 145.47 L 124.85 145.72 C 124.09 145.92 123.64 146.68 123.83 147.44 C 124.02 148.19 124.79 148.65 125.55 148.46 Z M 126.52 148.21 L 127.52 147.96 C 128.28 147.77 128.74 147.01 128.55 146.25 C 128.36 145.49 127.60 145.03 126.84 145.22 L 125.84 145.47 C 125.08 145.66 124.62 146.43 124.81 147.18 C 125.00 147.94 125.77 148.40 126.52 148.21 Z M 127.51 147.96 L 128.47 147.74 C 129.23 147.56 129.69 146.80 129.52 146.04 C 129.34 145.28 128.58 144.81 127.82 144.99 L 126.86 145.22 C 126.10 145.40 125.63 146.16 125.81 146.92 C 125.99 147.67 126.75 148.14 127.51 147.96 Z M 128.47 147.74 L 129.38 147.52 C 130.14 147.34 130.61 146.58 130.43 145.82 C 130.25 145.06 129.49 144.59 128.73 144.77 L 127.82 144.99 C 127.06 145.17 126.59 145.93 126.77 146.69 C 126.95 147.45 127.71 147.92 128.47 147.74 Z M 129.40 147.51 L 130.37 147.27 C 131.12 147.08 131.58 146.31 131.39 145.56 C 131.20 144.80 130.44 144.35 129.68 144.54 L 128.71 144.78 C 127.96 144.97 127.50 145.73 127.69 146.49 C 127.88 147.24 128.64 147.70 129.40 147.51 Z M 130.38 147.26 L 131.35 147.01 C 132.10 146.81 132.55 146.04 132.35 145.29 C 132.15 144.54 131.38 144.09 130.63 144.29 L 129.67 144.54 C 128.92 144.74 128.47 145.51 128.67 146.26 C 128.86 147.01 129.63 147.46 130.38 147.26 Z M 131.35 147.00 L 132.32 146.74 C 133.06 146.54 133.51 145.78 133.31 145.03 C 133.11 144.28 132.34 143.84 131.59 144.04 L 130.63 144.30 C 129.88 144.49 129.44 145.26 129.64 146.01 C 129.84 146.76 130.60 147.20 131.35 147.00 Z M 132.31 146.74 L 133.29 146.48 C 134.04 146.29 134.48 145.53 134.29 144.78 C 134.10 144.04 133.34 143.59 132.59 143.78 L 131.60 144.04 C 130.86 144.24 130.41 145.00 130.61 145.74 C 130.80 146.49 131.56 146.93 132.31 146.74 Z M 133.29 146.48 L 134.27 146.23 C 135.01 146.03 135.45 145.28 135.26 144.53 C 135.07 143.79 134.31 143.35 133.57 143.54 L 132.59 143.79 C 131.85 143.98 131.41 144.74 131.60 145.48 C 131.79 146.22 132.55 146.67 133.29 146.48 Z M 134.28 146.21 L 135.26 145.95 C 135.99 145.74 136.43 144.98 136.22 144.25 C 136.02 143.51 135.26 143.08 134.52 143.28 L 133.55 143.55 C 132.82 143.75 132.38 144.51 132.59 145.25 C 132.79 145.98 133.55 146.42 134.28 146.21 Z M 135.28 145.94 L 136.23 145.65 C 136.96 145.44 137.38 144.67 137.16 143.94 C 136.95 143.21 136.18 142.80 135.45 143.01 L 134.50 143.29 C 133.77 143.51 133.35 144.27 133.57 145.00 C 133.78 145.73 134.55 146.15 135.28 145.94 Z M 136.23 145.65 L 137.18 145.37 C 137.91 145.16 138.33 144.40 138.12 143.67 C 137.91 142.94 137.14 142.53 136.42 142.74 L 135.46 143.02 C 134.73 143.23 134.31 143.99 134.53 144.72 C 134.74 145.44 135.50 145.86 136.23 145.65 Z M 137.16 145.37 L 138.11 145.12 C 138.84 144.92 139.27 144.17 139.07 143.44 C 138.88 142.71 138.13 142.28 137.40 142.48 L 136.44 142.74 C 135.72 142.93 135.29 143.68 135.48 144.41 C 135.68 145.14 136.43 145.57 137.16 145.37 Z M 138.07 145.12 L 139.00 144.90 C 139.73 144.73 140.18 144.00 140.01 143.27 C 139.84 142.54 139.11 142.08 138.38 142.26 L 137.44 142.47 C 136.71 142.65 136.26 143.38 136.43 144.11 C 136.61 144.84 137.34 145.29 138.07 145.12 Z M 138.94 144.91 L 139.94 144.72 C 140.68 144.58 141.16 143.87 141.02 143.14 C 140.88 142.41 140.18 141.92 139.44 142.06 L 138.44 142.25 C 137.70 142.39 137.22 143.09 137.36 143.83 C 137.50 144.56 138.20 145.04 138.94 144.91 Z M 139.89 144.72 L 140.86 144.58 C 141.60 144.47 142.11 143.78 142.00 143.05 C 141.89 142.31 141.21 141.80 140.47 141.91 L 139.50 142.06 C 138.76 142.16 138.25 142.85 138.36 143.59 C 138.47 144.32 139.15 144.83 139.89 144.72 Z M 140.81 144.58 L 141.84 144.47 C 142.58 144.39 143.11 143.72 143.03 142.99 C 142.95 142.25 142.29 141.72 141.55 141.80 L 140.52 141.91 C 139.78 141.99 139.25 142.65 139.33 143.39 C 139.41 144.13 140.08 144.66 140.81 144.58 Z M 141.78 144.47 L 142.79 144.41 C 143.53 144.36 144.09 143.72 144.04 142.98 C 144.00 142.24 143.36 141.68 142.62 141.73 L 141.61 141.80 C 140.87 141.84 140.31 142.48 140.36 143.22 C 140.40 143.96 141.04 144.52 141.78 144.47 Z M 142.75 144.40 L 143.74 144.37 C 144.48 144.34 145.06 143.72 145.03 142.98 C 145.00 142.25 144.38 141.67 143.64 141.70 L 142.66 141.73 C 141.92 141.76 141.34 142.38 141.37 143.12 C 141.40 143.85 142.01 144.43 142.75 144.40 Z M 143.73 144.37 L 143.85 144.36 C 144.58 144.34 145.16 143.73 145.14 142.99 C 145.12 142.25 144.50 141.67 143.77 141.69 L 143.65 141.70 C 142.91 141.72 142.33 142.33 142.36 143.07 C 142.38 143.81 142.99 144.39 143.73 144.37 Z"
      fill="black"
      fill-rule="nonzero" /><path d="M 130.44 148.40 L 131.00 149.25 C 131.43 149.89 132.29 150.07 132.93 149.64 C 133.57 149.22 133.74 148.36 133.32 147.72 L 132.76 146.87 C 132.33 146.23 131.47 146.05 130.83 146.48 C 130.19 146.90 130.02 147.76 130.44 148.40 Z M 130.96 149.17 L 131.45 150.02 C 131.83 150.68 132.67 150.92 133.33 150.54 C 133.99 150.16 134.22 149.32 133.85 148.66 L 133.36 147.80 C 132.98 147.14 132.14 146.91 131.48 147.29 C 130.82 147.66 130.59 148.51 130.96 149.17 Z M 131.37 149.85 L 131.75 150.79 C 132.04 151.50 132.84 151.84 133.54 151.56 C 134.24 151.27 134.58 150.47 134.30 149.77 L 133.92 148.83 C 133.64 148.12 132.84 147.78 132.13 148.06 C 131.43 148.35 131.09 149.15 131.37 149.85 Z M 131.70 150.63 L 131.96 151.58 C 132.15 152.32 132.90 152.75 133.63 152.56 C 134.36 152.36 134.80 151.61 134.60 150.88 L 134.35 149.93 C 134.16 149.20 133.41 148.76 132.68 148.96 C 131.95 149.15 131.51 149.90 131.70 150.63 Z M 131.93 151.45 L 132.09 152.44 C 132.21 153.18 132.92 153.69 133.66 153.57 C 134.40 153.44 134.91 152.74 134.79 152.00 L 134.63 151.01 C 134.51 150.27 133.80 149.76 133.06 149.89 C 132.31 150.01 131.81 150.71 131.93 151.45 Z M 132.09 152.38 L 132.21 153.48 C 132.30 154.23 132.98 154.76 133.73 154.68 C 134.47 154.59 135.01 153.91 134.92 153.16 L 134.79 152.06 C 134.71 151.31 134.03 150.78 133.28 150.86 C 132.54 150.95 132.00 151.63 132.09 152.38 Z M 133.84 154.66 L 134.34 154.55 C 135.08 154.41 135.55 153.69 135.40 152.95 C 135.25 152.21 134.54 151.74 133.80 151.89 L 133.30 151.99 C 132.56 152.14 132.09 152.86 132.23 153.59 C 132.38 154.33 133.10 154.81 133.84 154.66 Z M 135.00 154.21 L 135.85 153.41 C 136.40 152.90 136.43 152.04 135.92 151.49 C 135.40 150.94 134.54 150.91 133.99 151.43 L 133.14 152.23 C 132.59 152.74 132.56 153.60 133.08 154.15 C 133.59 154.70 134.45 154.73 135.00 154.21 Z M 135.69 153.55 L 136.51 152.99 C 137.13 152.56 137.30 151.72 136.87 151.09 C 136.45 150.47 135.60 150.31 134.98 150.73 L 134.16 151.29 C 133.53 151.72 133.37 152.56 133.80 153.19 C 134.22 153.81 135.07 153.97 135.69 153.55 Z M 136.35 153.09 L 137.26 152.64 C 137.93 152.31 138.21 151.49 137.88 150.81 C 137.55 150.13 136.73 149.85 136.05 150.19 L 135.14 150.63 C 134.46 150.97 134.18 151.79 134.52 152.46 C 134.85 153.14 135.67 153.42 136.35 153.09 Z M 137.11 152.71 L 138.05 152.38 C 138.77 152.13 139.15 151.34 138.90 150.63 C 138.65 149.91 137.86 149.54 137.15 149.79 L 136.20 150.12 C 135.48 150.37 135.11 151.15 135.36 151.87 C 135.61 152.58 136.39 152.96 137.11 152.71 Z M 137.89 152.43 L 138.87 152.21 C 139.62 152.05 140.09 151.32 139.93 150.58 C 139.77 149.83 139.03 149.36 138.29 149.52 L 137.31 149.74 C 136.57 149.90 136.10 150.63 136.26 151.37 C 136.42 152.12 137.15 152.59 137.89 152.43 Z M 138.65 152.25 L 139.69 152.20 C 140.45 152.16 141.04 151.52 141.00 150.76 C 140.97 150.00 140.32 149.41 139.56 149.44 L 138.52 149.49 C 137.76 149.53 137.17 150.17 137.20 150.93 C 137.24 151.69 137.88 152.28 138.65 152.25 Z M 139.17 152.13 L 140.04 152.43 C 140.76 152.69 141.55 152.31 141.81 151.58 C 142.06 150.86 141.68 150.07 140.96 149.82 L 140.08 149.51 C 139.36 149.26 138.57 149.64 138.32 150.36 C 138.07 151.09 138.45 151.88 139.17 152.13 Z M 139.34 151.89 L 139.88 152.70 C 140.30 153.34 141.16 153.52 141.80 153.09 C 142.44 152.67 142.62 151.81 142.19 151.17 L 141.65 150.36 C 141.23 149.72 140.37 149.55 139.73 149.97 C 139.09 150.39 138.92 151.25 139.34 151.89 Z M 139.65 152.00 L 139.70 152.97 C 139.73 153.73 140.38 154.32 141.14 154.29 C 141.90 154.25 142.50 153.61 142.46 152.84 L 142.42 151.88 C 142.39 151.11 141.74 150.52 140.98 150.56 C 140.21 150.59 139.62 151.24 139.65 152.00 Z M 139.80 152.40 L 139.42 153.35 C 139.14 154.05 139.48 154.85 140.19 155.14 C 140.90 155.42 141.70 155.07 141.98 154.37 L 142.36 153.42 C 142.64 152.71 142.30 151.91 141.59 151.63 C 140.88 151.34 140.08 151.69 139.80 152.40 Z M 139.68 152.94 L 139.04 153.65 C 138.53 154.21 138.57 155.08 139.13 155.59 C 139.69 156.10 140.56 156.05 141.07 155.49 L 141.72 154.78 C 142.22 154.22 142.18 153.35 141.62 152.84 C 141.06 152.33 140.19 152.38 139.68 152.94 Z M 139.26 153.46 L 138.42 154.05 C 137.81 154.49 137.67 155.34 138.10 155.96 C 138.54 156.57 139.39 156.71 140.00 156.28 L 140.84 155.68 C 141.46 155.25 141.60 154.40 141.17 153.78 C 140.73 153.17 139.88 153.02 139.26 153.46 Z M 138.58 153.96 L 137.68 154.44 C 137.01 154.79 136.76 155.61 137.11 156.28 C 137.46 156.94 138.29 157.19 138.95 156.84 L 139.85 156.37 C 140.51 156.02 140.77 155.19 140.42 154.53 C 140.07 153.87 139.24 153.61 138.58 153.96 Z M 137.79 154.39 L 136.88 154.77 C 136.18 155.06 135.86 155.85 136.14 156.55 C 136.43 157.24 137.23 157.57 137.92 157.28 L 138.84 156.90 C 139.53 156.61 139.86 155.81 139.57 155.12 C 139.28 154.43 138.48 154.10 137.79 154.39 Z M 136.96 154.74 L 136.00 155.06 C 135.29 155.30 134.91 156.07 135.15 156.78 C 135.39 157.49 136.16 157.87 136.87 157.63 L 137.83 157.31 C 138.54 157.07 138.93 156.30 138.69 155.59 C 138.45 154.88 137.68 154.50 136.96 154.74 Z M 136.09 155.04 L 135.14 155.29 C 134.41 155.48 133.98 156.22 134.18 156.95 C 134.37 157.67 135.11 158.10 135.83 157.91 L 136.78 157.66 C 137.51 157.47 137.94 156.73 137.75 156.00 C 137.55 155.28 136.81 154.85 136.09 155.04 Z M 135.22 155.26 L 134.05 155.50 C 133.31 155.65 132.84 156.37 132.99 157.11 C 133.14 157.84 133.86 158.32 134.59 158.17 L 135.76 157.94 C 136.50 157.79 136.97 157.07 136.82 156.33 C 136.67 155.59 135.95 155.11 135.22 155.26 Z M 134.08 158.19 L 134.40 158.25 C 135.15 158.38 135.86 157.88 135.99 157.13 C 136.12 156.38 135.62 155.67 134.88 155.54 L 134.56 155.48 C 133.81 155.35 133.10 155.85 132.97 156.60 C 132.84 157.35 133.34 158.06 134.08 158.19 Z M 134.65 158.27 L 135.82 158.27 C 136.59 158.26 137.20 157.64 137.20 156.87 C 137.19 156.11 136.57 155.50 135.80 155.50 L 134.63 155.51 C 133.86 155.51 133.25 156.14 133.25 156.90 C 133.26 157.66 133.88 158.28 134.65 158.27 Z M 135.46 158.23 L 136.41 158.48 C 137.15 158.67 137.91 158.23 138.11 157.49 C 138.30 156.75 137.86 155.99 137.12 155.79 L 136.17 155.54 C 135.42 155.35 134.67 155.79 134.47 156.53 C 134.28 157.27 134.72 158.03 135.46 158.23 Z M 135.82 158.15 L 136.53 158.81 C 137.09 159.34 137.97 159.31 138.49 158.74 C 139.02 158.18 138.98 157.30 138.42 156.78 L 137.71 156.12 C 137.15 155.59 136.27 155.62 135.75 156.19 C 135.22 156.75 135.25 157.63 135.82 158.15 Z M 136.28 158.52 L 136.81 159.40 C 137.21 160.05 138.07 160.27 138.73 159.87 C 139.39 159.47 139.60 158.61 139.20 157.95 L 138.67 157.07 C 138.27 156.42 137.41 156.20 136.75 156.60 C 136.09 157.00 135.88 157.86 136.28 158.52 Z M 136.70 159.16 L 137.05 160.10 C 137.32 160.82 138.12 161.19 138.84 160.92 C 139.56 160.65 139.93 159.84 139.66 159.12 L 139.31 158.19 C 139.04 157.46 138.24 157.10 137.52 157.37 C 136.80 157.64 136.43 158.44 136.70 159.16 Z M 136.98 159.87 L 137.16 160.82 C 137.31 161.58 138.04 162.08 138.80 161.93 C 139.55 161.79 140.05 161.06 139.91 160.30 L 139.73 159.35 C 139.58 158.59 138.85 158.09 138.09 158.24 C 137.33 158.38 136.84 159.11 136.98 159.87 Z M 137.14 160.68 L 137.22 161.67 C 137.29 162.44 137.96 163.02 138.73 162.95 C 139.50 162.89 140.08 162.21 140.01 161.44 L 139.93 160.44 C 139.87 159.67 139.19 159.10 138.42 159.17 C 137.65 159.23 137.08 159.91 137.14 160.68 Z M 137.22 161.60 L 137.25 162.60 C 137.27 163.37 137.92 163.98 138.69 163.96 C 139.47 163.93 140.07 163.29 140.05 162.51 L 140.02 161.52 C 139.99 160.74 139.35 160.13 138.58 160.16 C 137.80 160.18 137.19 160.83 137.22 161.60 Z M 137.25 162.57 L 137.25 163.57 C 137.26 164.34 137.89 164.97 138.67 164.96 C 139.44 164.96 140.06 164.32 140.06 163.55 L 140.05 162.55 C 140.04 161.77 139.41 161.15 138.64 161.16 C 137.86 161.16 137.24 161.79 137.25 162.57 Z M 137.25 163.56 L 137.25 164.58 C 137.26 165.36 137.88 165.99 138.66 165.99 C 139.43 165.99 140.06 165.36 140.06 164.58 L 140.06 163.56 C 140.06 162.79 139.43 162.16 138.66 162.16 C 137.88 162.16 137.25 162.79 137.25 163.56 Z M 137.25 164.58 L 137.25 165.60 C 137.25 166.37 137.88 167.00 138.66 167.00 C 139.43 167.00 140.06 166.37 140.06 165.60 L 140.06 164.58 C 140.06 163.81 139.43 163.18 138.66 163.18 C 137.88 163.18 137.25 163.81 137.25 164.58 Z M 137.25 165.60 L 137.25 166.61 C 137.25 167.38 137.88 168.01 138.66 168.01 C 139.43 168.01 140.06 167.38 140.06 166.61 L 140.06 165.60 C 140.06 164.82 139.43 164.19 138.66 164.19 C 137.88 164.19 137.25 164.82 137.25 165.60 Z M 137.25 166.60 L 137.25 167.62 C 137.24 168.39 137.87 169.02 138.64 169.03 C 139.42 169.03 140.05 168.41 140.05 167.63 L 140.06 166.62 C 140.06 165.84 139.44 165.21 138.67 165.20 C 137.89 165.20 137.26 165.82 137.25 166.60 Z M 137.25 167.57 L 137.21 168.55 C 137.19 169.33 137.79 169.98 138.57 170.01 C 139.34 170.03 139.99 169.43 140.02 168.65 L 140.05 167.67 C 140.08 166.90 139.47 166.25 138.70 166.22 C 137.93 166.20 137.28 166.80 137.25 167.57 Z M 137.23 168.40 L 137.09 169.38 C 136.98 170.15 137.51 170.86 138.28 170.97 C 139.04 171.08 139.75 170.54 139.86 169.78 L 140.00 168.80 C 140.11 168.04 139.58 167.33 138.81 167.22 C 138.05 167.11 137.34 167.64 137.23 168.40 Z M 137.22 168.96 L 136.76 169.90 C 136.42 170.59 136.71 171.43 137.41 171.77 C 138.10 172.11 138.94 171.82 139.28 171.13 L 139.73 170.19 C 140.07 169.50 139.79 168.66 139.09 168.32 C 138.40 167.98 137.56 168.27 137.22 168.96 Z M 138.09 169.12 L 137.35 169.08 C 136.58 169.04 135.93 169.63 135.89 170.40 C 135.85 171.17 136.44 171.83 137.21 171.87 L 137.95 171.90 C 138.72 171.94 139.38 171.35 139.42 170.58 C 139.46 169.81 138.86 169.16 138.09 169.12 Z M 138.29 169.51 L 137.53 168.72 C 137.00 168.16 136.12 168.15 135.56 168.68 C 135.01 169.21 134.99 170.09 135.52 170.65 L 136.28 171.44 C 136.81 171.99 137.69 172.01 138.25 171.48 C 138.80 170.94 138.82 170.06 138.29 169.51 Z M 137.68 168.91 L 137.13 168.08 C 136.71 167.44 135.84 167.27 135.20 167.69 C 134.56 168.12 134.39 168.98 134.82 169.62 L 135.37 170.45 C 135.79 171.09 136.66 171.27 137.30 170.84 C 137.93 170.42 138.11 169.55 137.68 168.91 Z M 137.17 168.15 L 136.68 167.30 C 136.30 166.64 135.44 166.41 134.78 166.80 C 134.12 167.19 133.89 168.04 134.28 168.70 L 134.77 169.55 C 135.16 170.21 136.01 170.44 136.67 170.05 C 137.33 169.67 137.56 168.82 137.17 168.15 Z M 136.67 167.29 L 136.19 166.47 C 135.79 165.81 134.94 165.59 134.28 165.99 C 133.62 166.38 133.40 167.23 133.80 167.89 L 134.28 168.71 C 134.68 169.37 135.53 169.59 136.19 169.20 C 136.85 168.80 137.07 167.95 136.67 167.29 Z M 136.19 166.47 L 135.64 165.56 C 135.25 164.90 134.39 164.68 133.73 165.08 C 133.07 165.47 132.86 166.32 133.25 166.98 L 133.80 167.89 C 134.19 168.55 135.05 168.77 135.71 168.38 C 136.36 167.98 136.58 167.13 136.19 166.47 Z M 135.65 165.56 L 135.14 164.70 C 134.75 164.04 133.89 163.82 133.23 164.21 C 132.57 164.60 132.35 165.46 132.74 166.12 L 133.25 166.98 C 133.64 167.64 134.49 167.86 135.16 167.47 C 135.82 167.08 136.04 166.22 135.65 165.56 Z M 135.14 164.70 L 134.62 163.83 C 134.23 163.16 133.37 162.95 132.71 163.34 C 132.05 163.73 131.83 164.59 132.22 165.25 L 132.74 166.12 C 133.13 166.79 133.99 167.00 134.65 166.61 C 135.32 166.22 135.53 165.36 135.14 164.70 Z M 134.61 163.81 L 134.07 162.92 C 133.67 162.27 132.81 162.06 132.15 162.46 C 131.49 162.86 131.29 163.72 131.69 164.38 L 132.23 165.27 C 132.63 165.92 133.49 166.13 134.15 165.73 C 134.81 165.33 135.02 164.47 134.61 163.81 Z M 134.06 162.90 L 133.53 162.06 C 133.11 161.41 132.25 161.22 131.60 161.64 C 130.94 162.05 130.75 162.92 131.17 163.57 L 131.70 164.40 C 132.12 165.06 132.98 165.25 133.63 164.83 C 134.28 164.42 134.48 163.55 134.06 162.90 Z M 133.51 162.03 L 132.94 161.18 C 132.51 160.54 131.63 160.37 130.99 160.81 C 130.35 161.24 130.18 162.11 130.61 162.75 L 131.19 163.60 C 131.62 164.24 132.49 164.41 133.13 163.98 C 133.78 163.55 133.94 162.67 133.51 162.03 Z M 132.81 161.01 L 132.14 160.29 C 131.61 159.72 130.72 159.68 130.15 160.21 C 129.58 160.74 129.54 161.63 130.07 162.20 L 130.74 162.93 C 131.27 163.50 132.16 163.53 132.73 163.00 C 133.30 162.48 133.34 161.58 132.81 161.01 Z M 131.35 159.85 L 130.50 159.70 C 129.73 159.57 129.00 160.08 128.86 160.85 C 128.73 161.62 129.24 162.35 130.01 162.49 L 130.86 162.64 C 131.63 162.77 132.36 162.26 132.50 161.49 C 132.63 160.72 132.12 159.99 131.35 159.85 Z M 129.65 159.82 L 128.73 160.25 C 128.03 160.58 127.73 161.43 128.06 162.13 C 128.40 162.84 129.24 163.14 129.95 162.81 L 130.86 162.37 C 131.57 162.04 131.87 161.20 131.53 160.49 C 131.20 159.78 130.35 159.48 129.65 159.82 Z M 128.52 160.38 L 127.76 160.92 C 127.12 161.37 126.97 162.26 127.42 162.89 C 127.88 163.53 128.76 163.68 129.40 163.22 L 130.16 162.68 C 130.80 162.23 130.94 161.34 130.49 160.71 C 130.04 160.07 129.16 159.92 128.52 160.38 Z M 127.73 160.94 L 126.88 161.58 C 126.26 162.05 126.13 162.93 126.60 163.55 C 127.07 164.18 127.95 164.30 128.58 163.84 L 129.42 163.20 C 130.05 162.73 130.17 161.85 129.70 161.22 C 129.24 160.60 128.35 160.47 127.73 160.94 Z M 126.91 161.57 L 126.13 162.13 C 125.50 162.58 125.36 163.46 125.81 164.09 C 126.27 164.72 127.15 164.87 127.78 164.41 L 128.55 163.85 C 129.18 163.39 129.33 162.51 128.87 161.88 C 128.41 161.25 127.53 161.11 126.91 161.57 Z M 126.14 162.12 L 125.29 162.72 C 124.66 163.17 124.51 164.05 124.96 164.68 C 125.40 165.31 126.28 165.46 126.91 165.01 L 127.76 164.41 C 128.39 163.97 128.54 163.09 128.10 162.46 C 127.65 161.83 126.78 161.68 126.14 162.12 Z M 125.30 162.72 L 124.46 163.32 C 123.82 163.76 123.67 164.63 124.11 165.26 C 124.55 165.89 125.42 166.05 126.05 165.61 L 126.90 165.01 C 127.53 164.57 127.69 163.70 127.25 163.07 C 126.81 162.44 125.94 162.28 125.30 162.72 Z M 124.46 163.32 L 123.64 163.89 C 123.01 164.33 122.86 165.19 123.29 165.82 C 123.73 166.45 124.59 166.61 125.22 166.17 L 126.04 165.60 C 126.67 165.16 126.83 164.30 126.39 163.67 C 125.96 163.04 125.09 162.89 124.46 163.32 Z M 123.65 163.90 L 122.83 164.47 C 122.21 164.90 122.05 165.75 122.48 166.38 C 122.91 167.00 123.77 167.16 124.39 166.73 L 125.21 166.16 C 125.83 165.73 125.99 164.88 125.56 164.25 C 125.13 163.63 124.27 163.47 123.65 163.90 Z M 122.84 164.47 L 122.51 164.70 C 121.88 165.13 121.73 165.98 122.16 166.60 C 122.58 167.22 123.43 167.38 124.05 166.95 L 124.39 166.72 C 125.01 166.29 125.16 165.44 124.73 164.82 C 124.31 164.20 123.46 164.05 122.84 164.47 Z"
      fill="black"
      fill-rule="nonzero" /><path d="M 142.14 159.50 L 142.44 160.52 C 142.65 161.26 143.43 161.69 144.17 161.47 C 144.91 161.26 145.34 160.48 145.12 159.74 L 144.82 158.72 C 144.61 157.98 143.83 157.55 143.09 157.76 C 142.35 157.98 141.92 158.76 142.14 159.50 Z M 142.46 160.61 L 142.80 161.54 C 143.07 162.27 143.88 162.65 144.61 162.38 C 145.34 162.11 145.71 161.30 145.44 160.57 L 145.10 159.64 C 144.83 158.91 144.02 158.54 143.29 158.81 C 142.56 159.07 142.19 159.88 142.46 160.61 Z M 142.91 161.79 L 143.41 162.63 C 143.82 163.30 144.69 163.51 145.36 163.11 C 146.03 162.71 146.24 161.84 145.84 161.17 L 145.33 160.32 C 144.93 159.65 144.06 159.44 143.39 159.84 C 142.72 160.24 142.50 161.11 142.91 161.79 Z M 143.66 162.94 L 144.37 163.60 C 144.95 164.14 145.85 164.10 146.38 163.53 C 146.92 162.95 146.88 162.05 146.31 161.52 L 145.59 160.85 C 145.02 160.32 144.12 160.35 143.58 160.93 C 143.05 161.50 143.08 162.40 143.66 162.94 Z M 144.56 163.75 L 145.38 164.28 C 146.04 164.71 146.92 164.53 147.35 163.87 C 147.78 163.21 147.59 162.33 146.93 161.90 L 146.12 161.37 C 145.46 160.94 144.58 161.13 144.15 161.78 C 143.72 162.44 143.90 163.32 144.56 163.75 Z M 145.44 164.32 L 146.30 164.82 C 146.98 165.22 147.85 165.00 148.24 164.32 C 148.64 163.65 148.42 162.78 147.74 162.38 L 146.88 161.87 C 146.20 161.47 145.33 161.70 144.93 162.37 C 144.54 163.05 144.76 163.92 145.44 164.32 Z M 146.28 164.80 L 147.13 165.32 C 147.79 165.73 148.65 165.53 149.06 164.87 C 149.47 164.21 149.27 163.34 148.61 162.93 L 147.76 162.41 C 147.10 162.00 146.24 162.20 145.83 162.86 C 145.42 163.52 145.62 164.39 146.28 164.80 Z M 147.11 165.29 L 147.95 165.84 C 148.59 166.26 149.45 166.09 149.87 165.44 C 150.29 164.80 150.11 163.94 149.47 163.52 L 148.63 162.97 C 147.99 162.54 147.13 162.72 146.71 163.37 C 146.28 164.01 146.46 164.87 147.11 165.29 Z M 147.95 165.83 L 147.99 165.86 C 148.63 166.29 149.49 166.11 149.91 165.48 C 150.33 164.84 150.16 163.98 149.52 163.56 L 149.47 163.53 C 148.84 163.11 147.98 163.28 147.56 163.92 C 147.14 164.55 147.31 165.41 147.95 165.83 Z"
      fill="black"
      fill-rule="nonzero" /><path d="M 154.45 138.02 L 154.73 138.98 C 154.95 139.74 155.74 140.17 156.49 139.95 C 157.25 139.73 157.68 138.94 157.46 138.19 L 157.18 137.23 C 156.96 136.47 156.17 136.04 155.42 136.26 C 154.66 136.48 154.23 137.27 154.45 138.02 Z M 154.69 138.40 L 154.57 139.26 C 154.47 140.04 155.02 140.75 155.80 140.85 C 156.57 140.96 157.29 140.41 157.39 139.63 L 157.51 138.77 C 157.61 138.00 157.06 137.28 156.28 137.18 C 155.50 137.07 154.79 137.62 154.69 138.40 Z M 154.75 138.74 L 154.27 139.57 C 153.88 140.24 154.12 141.11 154.80 141.50 C 155.48 141.89 156.34 141.66 156.73 140.98 L 157.21 140.15 C 157.60 139.47 157.37 138.60 156.69 138.21 C 156.01 137.82 155.14 138.06 154.75 138.74 Z M 154.35 139.45 L 153.73 140.34 C 153.27 140.97 153.42 141.85 154.06 142.31 C 154.69 142.76 155.58 142.61 156.03 141.97 L 156.66 141.09 C 157.11 140.46 156.96 139.57 156.32 139.12 C 155.69 138.67 154.81 138.82 154.35 139.45 Z M 153.74 140.33 L 153.19 141.08 C 152.73 141.71 152.87 142.59 153.50 143.04 C 154.13 143.50 155.01 143.36 155.47 142.74 L 156.01 141.98 C 156.47 141.36 156.33 140.48 155.71 140.02 C 155.08 139.56 154.20 139.70 153.74 140.33 Z M 153.21 141.07 L 152.59 141.89 C 152.13 142.52 152.25 143.39 152.87 143.86 C 153.49 144.32 154.37 144.19 154.84 143.57 L 155.45 142.74 C 155.92 142.12 155.79 141.25 155.17 140.78 C 154.55 140.32 153.67 140.45 153.21 141.07 Z M 152.61 141.88 L 151.94 142.75 C 151.47 143.36 151.58 144.23 152.19 144.70 C 152.80 145.17 153.68 145.06 154.15 144.45 L 154.82 143.59 C 155.29 142.97 155.17 142.10 154.56 141.63 C 153.95 141.16 153.08 141.27 152.61 141.88 Z M 151.96 142.73 L 151.31 143.55 C 150.83 144.15 150.92 145.02 151.52 145.50 C 152.12 145.98 152.99 145.88 153.47 145.28 L 154.13 144.47 C 154.61 143.87 154.51 142.99 153.91 142.51 C 153.32 142.03 152.44 142.13 151.96 142.73 Z M 151.33 143.54 L 150.67 144.33 C 150.19 144.92 150.27 145.79 150.86 146.27 C 151.44 146.76 152.31 146.68 152.80 146.09 L 153.45 145.30 C 153.94 144.71 153.86 143.84 153.27 143.35 C 152.68 142.87 151.81 142.95 151.33 143.54 Z M 150.69 144.33 L 150.04 145.09 C 149.56 145.67 149.63 146.53 150.21 147.02 C 150.79 147.51 151.65 147.43 152.14 146.85 L 152.78 146.09 C 153.27 145.51 153.19 144.65 152.62 144.16 C 152.04 143.68 151.17 143.75 150.69 144.33 Z M 150.05 145.10 L 149.45 145.81 C 148.96 146.39 149.03 147.25 149.60 147.73 C 150.18 148.22 151.04 148.14 151.52 147.57 L 152.13 146.85 C 152.61 146.28 152.54 145.42 151.97 144.94 C 151.40 144.45 150.54 144.52 150.05 145.10 Z M 149.45 145.82 L 148.76 146.64 C 148.28 147.21 148.35 148.07 148.93 148.55 C 149.50 149.03 150.35 148.95 150.83 148.38 L 151.52 147.56 C 152.00 146.99 151.92 146.14 151.35 145.66 C 150.78 145.18 149.93 145.25 149.45 145.82 Z M 148.76 146.65 L 148.13 147.41 C 147.65 147.98 147.73 148.83 148.30 149.31 C 148.87 149.78 149.72 149.70 150.20 149.13 L 150.83 148.37 C 151.30 147.80 151.23 146.95 150.66 146.48 C 150.09 146.00 149.24 146.08 148.76 146.65 Z M 148.13 147.42 L 147.53 148.15 C 147.05 148.72 147.13 149.56 147.70 150.03 C 148.27 150.50 149.12 150.43 149.59 149.86 L 150.19 149.13 C 150.67 148.56 150.59 147.71 150.02 147.24 C 149.45 146.77 148.60 146.85 148.13 147.42 Z M 147.53 148.15 L 147.46 148.23 C 146.99 148.80 147.07 149.64 147.63 150.11 C 148.20 150.59 149.05 150.51 149.52 149.94 L 149.59 149.85 C 150.06 149.28 149.98 148.44 149.41 147.97 C 148.84 147.50 148.00 147.58 147.53 148.15 Z"
      fill="black"
      fill-rule="nonzero" /><path d="M 159.78 143.83 L 159.49 144.66 C 159.24 145.40 159.63 146.20 160.37 146.45 C 161.11 146.70 161.91 146.31 162.16 145.57 L 162.44 144.74 C 162.69 144.00 162.30 143.20 161.56 142.95 C 160.83 142.69 160.03 143.09 159.78 143.83 Z M 159.52 144.57 L 159.10 145.58 C 158.80 146.30 159.14 147.13 159.86 147.43 C 160.58 147.73 161.41 147.39 161.71 146.67 L 162.13 145.66 C 162.43 144.94 162.09 144.11 161.37 143.81 C 160.65 143.51 159.82 143.85 159.52 144.57 Z M 159.12 145.51 L 158.70 146.39 C 158.36 147.09 158.66 147.94 159.36 148.28 C 160.07 148.62 160.92 148.33 161.26 147.62 L 161.68 146.74 C 162.02 146.04 161.73 145.19 161.02 144.85 C 160.31 144.51 159.46 144.80 159.12 145.51 Z M 158.72 146.35 L 158.23 147.27 C 157.87 147.97 158.14 148.83 158.84 149.19 C 159.54 149.56 160.40 149.29 160.76 148.59 L 161.24 147.66 C 161.61 146.96 161.33 146.10 160.64 145.74 C 159.94 145.38 159.08 145.65 158.72 146.35 Z M 158.25 147.23 L 157.73 148.15 C 157.35 148.84 157.59 149.71 158.28 150.10 C 158.96 150.48 159.83 150.24 160.22 149.55 L 160.74 148.63 C 161.13 147.95 160.89 147.07 160.20 146.69 C 159.51 146.30 158.64 146.54 158.25 147.23 Z M 157.77 148.09 L 157.22 148.97 C 156.80 149.63 157.00 150.52 157.67 150.94 C 158.34 151.36 159.22 151.16 159.64 150.49 L 160.19 149.61 C 160.61 148.95 160.41 148.06 159.74 147.64 C 159.07 147.22 158.19 147.42 157.77 148.09 Z M 157.26 148.91 L 156.73 149.65 C 156.28 150.30 156.44 151.19 157.08 151.64 C 157.72 152.09 158.62 151.94 159.07 151.30 L 159.59 150.55 C 160.05 149.90 159.89 149.01 159.25 148.56 C 158.60 148.11 157.71 148.26 157.26 148.91 Z M 156.78 149.59 L 156.16 150.38 C 155.68 151.00 155.79 151.89 156.41 152.38 C 157.02 152.87 157.92 152.76 158.41 152.14 L 159.02 151.35 C 159.51 150.73 159.40 149.84 158.78 149.35 C 158.16 148.87 157.27 148.97 156.78 149.59 Z M 156.22 150.31 L 155.57 151.05 C 155.04 151.63 155.09 152.53 155.68 153.06 C 156.27 153.58 157.17 153.53 157.69 152.94 L 158.35 152.21 C 158.87 151.62 158.82 150.72 158.23 150.20 C 157.65 149.67 156.75 149.72 156.22 150.31 Z M 155.63 150.99 L 154.94 151.68 C 154.38 152.23 154.38 153.13 154.93 153.68 C 155.49 154.24 156.38 154.24 156.94 153.69 L 157.63 153.00 C 158.18 152.45 158.18 151.55 157.63 150.99 C 157.08 150.44 156.18 150.44 155.63 150.99 Z M 154.99 151.64 L 154.22 152.34 C 153.65 152.86 153.61 153.75 154.13 154.33 C 154.65 154.91 155.55 154.95 156.12 154.42 L 156.89 153.73 C 157.46 153.20 157.50 152.31 156.98 151.73 C 156.46 151.16 155.56 151.12 154.99 151.64 Z M 154.27 152.31 L 153.50 152.96 C 152.91 153.46 152.83 154.34 153.33 154.93 C 153.83 155.52 154.71 155.60 155.30 155.10 L 156.07 154.45 C 156.66 153.95 156.74 153.07 156.24 152.48 C 155.74 151.89 154.86 151.81 154.27 152.31 Z M 153.55 152.93 L 152.76 153.55 C 152.16 154.01 152.05 154.89 152.51 155.49 C 152.98 156.10 153.86 156.21 154.46 155.74 L 155.25 155.13 C 155.86 154.66 155.97 153.79 155.50 153.18 C 155.03 152.57 154.16 152.46 153.55 152.93 Z M 152.83 153.51 L 152.00 154.08 C 151.37 154.52 151.21 155.37 151.64 156.00 C 152.07 156.62 152.93 156.78 153.56 156.35 L 154.39 155.78 C 155.02 155.34 155.18 154.49 154.75 153.86 C 154.31 153.24 153.46 153.08 152.83 153.51 Z M 152.08 154.05 L 151.23 154.55 C 150.59 154.93 150.37 155.77 150.76 156.42 C 151.14 157.06 151.98 157.28 152.62 156.89 L 153.47 156.39 C 154.12 156.01 154.33 155.17 153.95 154.52 C 153.56 153.88 152.73 153.66 152.08 154.05 Z M 151.32 154.52 L 150.43 154.96 C 149.77 155.30 149.50 156.12 149.84 156.78 C 150.18 157.45 151.00 157.71 151.66 157.37 L 152.54 156.92 C 153.21 156.59 153.47 155.77 153.13 155.11 C 152.79 154.44 151.98 154.18 151.32 154.52 Z M 150.49 154.95 L 149.58 155.37 C 148.90 155.68 148.61 156.48 148.92 157.15 C 149.23 157.82 150.02 158.12 150.70 157.81 L 151.61 157.39 C 152.28 157.08 152.58 156.28 152.27 155.61 C 151.96 154.93 151.16 154.64 150.49 154.95 Z M 149.59 155.37 L 149.27 155.51 C 148.60 155.81 148.30 156.60 148.60 157.28 C 148.90 157.95 149.69 158.25 150.37 157.95 L 150.68 157.81 C 151.36 157.51 151.66 156.72 151.36 156.04 C 151.06 155.37 150.27 155.06 149.59 155.37 Z"
      fill="black"
      fill-rule="nonzero" /><path d="M 160.96 153.61 L 161.08 154.61 C 161.18 155.38 161.88 155.92 162.65 155.83 C 163.42 155.73 163.96 155.03 163.87 154.26 L 163.74 153.27 C 163.65 152.50 162.95 151.95 162.18 152.05 C 161.41 152.14 160.87 152.84 160.96 153.61 Z M 161.09 154.71 L 161.28 155.69 C 161.43 156.46 162.18 156.95 162.95 156.80 C 163.71 156.65 164.21 155.90 164.06 155.14 L 163.86 154.16 C 163.71 153.39 162.97 152.89 162.20 153.05 C 161.43 153.20 160.93 153.94 161.09 154.71 Z M 161.29 155.80 L 161.57 156.76 C 161.78 157.52 162.57 157.96 163.33 157.75 C 164.09 157.53 164.53 156.75 164.32 155.99 L 164.04 155.02 C 163.83 154.26 163.04 153.82 162.28 154.04 C 161.52 154.25 161.08 155.04 161.29 155.80 Z M 161.53 156.68 L 161.74 157.66 C 161.91 158.43 162.68 158.93 163.46 158.76 C 164.23 158.59 164.73 157.82 164.56 157.05 L 164.35 156.07 C 164.18 155.29 163.41 154.80 162.64 154.97 C 161.86 155.13 161.36 155.90 161.53 156.68 Z M 161.70 157.47 L 161.78 158.46 C 161.85 159.26 162.55 159.86 163.35 159.80 C 164.14 159.73 164.74 159.03 164.68 158.24 L 164.60 157.24 C 164.54 156.44 163.84 155.84 163.04 155.90 C 162.24 155.97 161.64 156.67 161.70 157.47 Z M 161.77 158.27 L 161.72 159.29 C 161.68 160.09 162.29 160.78 163.10 160.82 C 163.91 160.86 164.59 160.25 164.64 159.44 L 164.69 158.43 C 164.73 157.62 164.11 156.93 163.31 156.89 C 162.50 156.85 161.82 157.47 161.77 158.27 Z M 161.78 158.94 L 161.50 159.87 C 161.27 160.64 161.70 161.46 162.48 161.69 C 163.25 161.92 164.07 161.49 164.30 160.71 L 164.58 159.78 C 164.81 159.01 164.37 158.20 163.60 157.96 C 162.82 157.73 162.01 158.17 161.78 158.94 Z M 161.73 159.42 L 161.15 160.19 C 160.67 160.84 160.80 161.75 161.45 162.23 C 162.09 162.72 163.01 162.59 163.49 161.94 L 164.07 161.17 C 164.55 160.52 164.42 159.60 163.77 159.12 C 163.13 158.64 162.21 158.77 161.73 159.42 Z M 161.36 159.97 L 160.62 160.62 C 160.01 161.14 159.95 162.06 160.47 162.67 C 161.00 163.28 161.92 163.34 162.53 162.81 L 163.28 162.16 C 163.88 161.63 163.95 160.71 163.42 160.11 C 162.89 159.50 161.97 159.44 161.36 159.97 Z M 160.73 160.53 L 159.94 161.10 C 159.29 161.56 159.13 162.47 159.60 163.12 C 160.06 163.77 160.96 163.92 161.62 163.46 L 162.41 162.90 C 163.06 162.43 163.22 161.53 162.75 160.88 C 162.29 160.22 161.39 160.07 160.73 160.53 Z M 160.02 161.05 L 159.13 161.60 C 158.46 162.02 158.24 162.90 158.66 163.58 C 159.07 164.26 159.96 164.47 160.64 164.05 L 161.53 163.51 C 162.21 163.09 162.42 162.20 162.00 161.53 C 161.59 160.85 160.70 160.64 160.02 161.05 Z M 159.20 161.58 L 158.34 162.04 C 157.65 162.42 157.40 163.29 157.78 163.98 C 158.15 164.67 159.02 164.93 159.71 164.55 L 160.57 164.08 C 161.26 163.70 161.51 162.84 161.14 162.14 C 160.76 161.45 159.89 161.20 159.20 161.58 Z M 158.41 162.03 L 157.49 162.47 C 156.79 162.81 156.49 163.66 156.83 164.36 C 157.17 165.06 158.01 165.35 158.72 165.01 L 159.64 164.57 C 160.34 164.23 160.64 163.38 160.30 162.68 C 159.96 161.98 159.11 161.69 158.41 162.03 Z M 157.57 162.45 L 156.63 162.84 C 155.92 163.14 155.58 163.95 155.87 164.67 C 156.17 165.38 156.98 165.72 157.70 165.42 L 158.64 165.03 C 159.35 164.74 159.69 163.92 159.39 163.21 C 159.10 162.50 158.28 162.16 157.57 162.45 Z M 156.70 162.84 L 155.76 163.17 C 155.04 163.43 154.67 164.22 154.92 164.93 C 155.18 165.65 155.97 166.02 156.69 165.77 L 157.63 165.43 C 158.34 165.17 158.72 164.38 158.46 163.67 C 158.20 162.95 157.41 162.58 156.70 162.84 Z M 155.80 163.18 L 154.85 163.49 C 154.14 163.72 153.75 164.49 153.98 165.20 C 154.22 165.92 154.98 166.31 155.70 166.07 L 156.64 165.76 C 157.36 165.53 157.75 164.76 157.51 164.05 C 157.28 163.33 156.51 162.95 155.80 163.18 Z M 154.86 163.50 L 154.68 163.56 C 153.97 163.78 153.59 164.54 153.81 165.25 C 154.04 165.96 154.80 166.35 155.51 166.12 L 155.68 166.06 C 156.39 165.84 156.78 165.08 156.55 164.37 C 156.33 163.66 155.57 163.27 154.86 163.50 Z"
      fill="black"
      fill-rule="nonzero" /></svg>