<svg xmlns="http://www.w3.org/2000/svg" width="300" height="300" viewBox="0 0 300 300">
<path d="M 131.0 124.0 L 131.5 123.0 L 132.0 123.0 L 132.0 123.0 L 132.0 123.0 L 132.0 123.0 L 132.0 123.5 L 130.5 127.5 L 127.0 134.5 L 123.5 142.0 L 122.0 147.0 " stroke="black" fill="none" stroke-width="2.0" stroke-linecap="round" stroke-linejoin="round" />
<path d="M 134.5 134.0 L 134.5 134.0 L 134.5 134.5 L 134.5 135.5 L 134.0 136.0 L 131.5 141.0 L 126.5 149.5 L 123.5 155.5 L 122.5 157.5 L 121.0 161.0 L 121.0 161.0 " stroke="black" fill="none" stroke-width="2.0" stroke-linecap="round" stroke-linejoin="round" />
<path d="M 129.0 149.5 L 130.0 149.0 L 130.5 149.0 L 131.0 149.5 L 131.0 150.0 L 131.5 153.5 L 131.5 155.0 L 132.0 162.5 L 132.0 169.5 L 132.0 172.5 L 132.0 172.5 " stroke="black" fill="none" stroke-width="2.0" stroke-linecap="round" stroke-linejoin="round" />
<path d="M 148.5 112.0 L 148.5 112.0 L 148.5 112.0 L 148.0 112.5 L 148.0 112.5 L 149.5 112.5 L 154.0 112.0 L 160.0 111.0 L 164.5 110.5 L 167.0 110.5 L 168.0 113.0 L 168.0 116.0 L 168.0 116.5 L 168.0 120.0 L 167.5 122.5 L 167.5 123.5 L 167.5 123.5 " stroke="black" fill="none" stroke-width="2.0" stroke-linecap="round" stroke-linejoin="round" />
<path d="M 143.5 125.0 L 143.0 125.0 L 142.5 125.5 L 143.5 125.0 L 144.0 125.0 L 149.5 123.5 L 155.5 122.0 L 158.0 121.5 L 169.0 119.0 L 176.0 117.0 L 177.0 117.0 " stroke="black" fill="none" stroke-width="2.0" stroke-linecap="round" stroke-linejoin="round" />
<path d="M 151.5 131.5 L 151.5 131.5 L 151.5 131.5 L 154.0 131.0 L 159.0 129.0 L 163.5 127.5 L 165.0 127.0 L 169.0 125.5 L 170.0 125.5 " stroke="black" fill="none" stroke-width="2.0" stroke-linecap="round" stroke-linejoin="round" />
<path d="M 152.5 138.0 L 151.5 139.0 L 151.5 139.0 L 151.5 139.5 L 154.0 138.5 L 158.5 137.0 L 163.5 135.0 L 167.5 133.0 L 169.0 132.5 " stroke="black" fill="none" stroke-width="2.0" stroke-linecap="round" stroke-linejoin="round" />
<path d="M 143.5 154.0 L 142.5 154.5 L 142.5 155.0 L 144.0 154.5 L 148.5 152.5 L 155.0 150.5 L 161.5 148.5 L 163.5 147.5 L 171.5 144.5 L 174.5 142.5 " stroke="black" fill="none" stroke-width="2.0" stroke-linecap="round" stroke-linejoin="round" />
<path d="M 156.5 99.5 L 156.5 99.5 L 156.5 100.0 L 157.0 103.5 L 158.5 113.5 L 160.0 129.0 L 162.0 147.0 L 162.5 160.5 L 162.5 164.5 L 163.0 175.5 L 163.0 178.0 L 163.0 185.5 L 163.0 187.5 L 163.0 188.0 L 163.0 188.0 L 163.0 187.5 " stroke="black" fill="none" stroke-width="2.0" stroke-linecap="round" stroke-linejoin="round" />
</svg>