<svg xmlns="http://www.w3.org/2000/svg" width="300" height="300" viewBox="0 0 300 300">
<path d="M 134.70 131.34 L 134.74 132.27 C 134.76 133.03 135.40 133.63 136.16 133.60 C 136.92 133.58 137.52 132.94 137.49 132.18 L 137.46 131.25 C 137.43 130.48 136.80 129.89 136.03 129.91 C 135.27 129.94 134.68 130.58 134.70 131.34 Z M 134.74 132.09 L 134.64 133.10 C 134.57 133.86 135.12 134.54 135.89 134.61 C 136.65 134.68 137.32 134.13 137.40 133.36 L 137.49 132.36 C 137.56 131.59 137.01 130.92 136.25 130.85 C 135.48 130.77 134.81 131.33 134.74 132.09 Z M 134.68 132.86 L 134.41 133.82 C 134.21 134.56 134.64 135.32 135.38 135.53 C 136.12 135.73 136.88 135.30 137.09 134.56 L 137.35 133.61 C 137.56 132.87 137.13 132.10 136.39 131.90 C 135.65 131.69 134.89 132.12 134.68 132.86 Z M 134.46 133.67 L 134.09 134.59 C 133.80 135.30 134.14 136.11 134.85 136.40 C 135.56 136.69 136.37 136.35 136.66 135.64 L 137.04 134.72 C 137.33 134.01 136.99 133.19 136.28 132.90 C 135.56 132.61 134.75 132.95 134.46 133.67 Z M 134.12 134.51 L 133.67 135.45 C 133.34 136.14 133.63 136.97 134.32 137.30 C 135.01 137.64 135.84 137.34 136.18 136.65 L 136.63 135.71 C 136.96 135.02 136.67 134.19 135.98 133.86 C 135.28 133.53 134.45 133.82 134.12 134.51 Z M 133.69 135.41 L 133.20 136.36 C 132.84 137.04 133.11 137.88 133.79 138.24 C 134.47 138.59 135.31 138.32 135.66 137.64 L 136.16 136.69 C 136.51 136.01 136.25 135.17 135.56 134.82 C 134.88 134.46 134.04 134.73 133.69 135.41 Z M 133.21 136.34 L 132.70 137.27 C 132.33 137.95 132.58 138.79 133.26 139.16 C 133.93 139.52 134.78 139.27 135.14 138.60 L 135.65 137.66 C 136.02 136.99 135.77 136.15 135.09 135.78 C 134.42 135.41 133.57 135.66 133.21 136.34 Z M 132.71 137.26 L 132.25 138.08 C 131.87 138.75 132.11 139.60 132.78 139.97 C 133.45 140.35 134.30 140.11 134.67 139.44 L 135.13 138.62 C 135.51 137.95 135.27 137.10 134.60 136.73 C 133.93 136.35 133.09 136.59 132.71 137.26 Z M 132.26 138.07 L 131.75 138.95 C 131.37 139.61 131.60 140.46 132.26 140.84 C 132.92 141.23 133.77 141.00 134.16 140.33 L 134.66 139.46 C 135.04 138.79 134.82 137.94 134.15 137.56 C 133.49 137.18 132.64 137.41 132.26 138.07 Z M 131.76 138.94 L 131.27 139.77 C 130.89 140.43 131.11 141.28 131.77 141.66 C 132.43 142.05 133.28 141.83 133.66 141.17 L 134.15 140.34 C 134.53 139.68 134.31 138.83 133.65 138.45 C 132.99 138.06 132.14 138.28 131.76 138.94 Z M 131.27 139.77 L 130.82 140.55 C 130.44 141.21 130.66 142.05 131.32 142.44 C 131.98 142.82 132.83 142.60 133.21 141.94 L 133.66 141.16 C 134.05 140.50 133.82 139.66 133.16 139.27 C 132.50 138.89 131.66 139.11 131.27 139.77 Z M 130.82 140.55 L 130.31 141.45 C 129.92 142.11 130.15 142.95 130.81 143.33 C 131.47 143.71 132.31 143.49 132.69 142.83 L 133.21 141.93 C 133.60 141.27 133.37 140.43 132.71 140.05 C 132.05 139.67 131.21 139.89 130.82 140.55 Z M 130.31 141.44 L 129.82 142.28 C 129.43 142.94 129.66 143.78 130.31 144.17 C 130.97 144.55 131.81 144.33 132.20 143.67 L 132.69 142.83 C 133.07 142.18 132.85 141.33 132.20 140.95 C 131.54 140.56 130.70 140.78 130.31 141.44 Z M 129.83 142.27 L 129.30 143.16 C 128.91 143.81 129.13 144.65 129.78 145.04 C 130.43 145.43 131.28 145.22 131.67 144.56 L 132.19 143.68 C 132.58 143.03 132.37 142.18 131.71 141.80 C 131.06 141.41 130.21 141.62 129.83 142.27 Z M 129.31 143.14 L 128.76 144.05 C 128.37 144.69 128.57 145.54 129.22 145.93 C 129.87 146.33 130.71 146.13 131.11 145.48 L 131.66 144.58 C 132.05 143.93 131.85 143.08 131.20 142.69 C 130.55 142.29 129.71 142.50 129.31 143.14 Z M 128.77 144.03 L 128.21 144.93 C 127.80 145.57 128.00 146.42 128.64 146.82 C 129.28 147.23 130.12 147.03 130.52 146.39 L 131.09 145.49 C 131.50 144.85 131.30 144.01 130.66 143.60 C 130.02 143.20 129.18 143.39 128.77 144.03 Z M 128.21 144.93 L 127.71 145.72 C 127.30 146.36 127.49 147.20 128.13 147.61 C 128.76 148.01 129.61 147.83 130.01 147.19 L 130.52 146.40 C 130.92 145.76 130.73 144.92 130.10 144.51 C 129.46 144.11 128.62 144.30 128.21 144.93 Z M 127.71 145.74 L 127.16 146.61 C 126.77 147.25 126.96 148.08 127.60 148.48 C 128.23 148.88 129.07 148.68 129.47 148.05 L 130.01 147.17 C 130.41 146.54 130.22 145.70 129.58 145.30 C 128.94 144.91 128.11 145.10 127.71 145.74 Z M 127.16 146.63 L 126.74 147.34 C 126.35 147.97 126.55 148.80 127.19 149.19 C 127.83 149.57 128.66 149.37 129.04 148.73 L 129.47 148.03 C 129.85 147.39 129.65 146.56 129.02 146.18 C 128.38 145.79 127.55 145.99 127.16 146.63 Z"
      fill="black"
      fill-rule="nonzero" /><path d="M 138.66 140.34 L 139.25 141.17 C 139.69 141.79 140.55 141.93 141.17 141.49 C 141.79 141.05 141.93 140.20 141.49 139.58 L 140.89 138.74 C 140.45 138.12 139.59 137.98 138.97 138.42 C 138.36 138.86 138.21 139.72 138.66 140.34 Z M 138.98 140.45 L 139.02 141.31 C 139.06 142.08 139.71 142.67 140.48 142.64 C 141.25 142.60 141.85 141.94 141.81 141.17 L 141.76 140.31 C 141.73 139.54 141.07 138.94 140.30 138.98 C 139.53 139.02 138.94 139.68 138.98 140.45 Z M 139.16 140.62 L 138.69 141.56 C 138.35 142.25 138.63 143.10 139.32 143.44 C 140.02 143.78 140.86 143.50 141.20 142.81 L 141.67 141.87 C 142.01 141.17 141.73 140.33 141.04 139.99 C 140.34 139.64 139.50 139.92 139.16 140.62 Z M 138.74 141.47 L 138.26 142.28 C 137.87 142.95 138.09 143.81 138.76 144.20 C 139.43 144.59 140.29 144.37 140.68 143.70 L 141.16 142.90 C 141.55 142.23 141.33 141.37 140.66 140.97 C 139.99 140.58 139.13 140.80 138.74 141.47 Z M 138.27 142.26 L 137.71 143.18 C 137.31 143.85 137.52 144.71 138.19 145.11 C 138.85 145.51 139.71 145.30 140.11 144.64 L 140.67 143.72 C 141.07 143.06 140.86 142.19 140.20 141.79 C 139.54 141.39 138.67 141.60 138.27 142.26 Z M 137.72 143.17 L 137.18 144.04 C 136.77 144.70 136.98 145.57 137.64 145.98 C 138.30 146.38 139.16 146.18 139.57 145.52 L 140.11 144.65 C 140.52 143.99 140.31 143.12 139.65 142.72 C 138.99 142.31 138.13 142.51 137.72 143.17 Z M 137.19 144.04 L 136.65 144.89 C 136.24 145.55 136.44 146.41 137.09 146.82 C 137.75 147.24 138.62 147.04 139.03 146.38 L 139.57 145.53 C 139.98 144.87 139.78 144.00 139.12 143.59 C 138.46 143.18 137.60 143.38 137.19 144.04 Z M 136.66 144.88 L 136.10 145.75 C 135.69 146.40 135.88 147.27 136.53 147.69 C 137.19 148.10 138.06 147.91 138.47 147.26 L 139.03 146.39 C 139.44 145.73 139.25 144.87 138.59 144.45 C 137.94 144.03 137.07 144.23 136.66 144.88 Z M 136.10 145.75 L 135.59 146.55 C 135.17 147.21 135.36 148.07 136.02 148.49 C 136.67 148.91 137.54 148.72 137.96 148.06 L 138.47 147.26 C 138.89 146.61 138.70 145.74 138.04 145.32 C 137.39 144.90 136.52 145.09 136.10 145.75 Z M 135.58 146.57 L 135.07 147.39 C 134.66 148.05 134.86 148.91 135.52 149.32 C 136.18 149.73 137.04 149.53 137.45 148.87 L 137.96 148.05 C 138.37 147.39 138.17 146.53 137.52 146.12 C 136.86 145.71 135.99 145.91 135.58 146.57 Z M 135.07 147.39 L 134.53 148.25 C 134.12 148.91 134.33 149.77 134.98 150.18 C 135.64 150.59 136.51 150.39 136.92 149.73 L 137.45 148.87 C 137.86 148.21 137.66 147.35 137.00 146.94 C 136.34 146.53 135.48 146.73 135.07 147.39 Z M 134.54 148.23 L 134.01 149.06 C 133.59 149.71 133.78 150.58 134.44 151.00 C 135.09 151.42 135.96 151.23 136.38 150.58 L 136.91 149.75 C 137.33 149.10 137.14 148.23 136.48 147.81 C 135.83 147.39 134.96 147.58 134.54 148.23 Z M 134.02 149.05 L 133.47 149.89 C 133.04 150.54 133.22 151.41 133.87 151.84 C 134.52 152.26 135.39 152.08 135.81 151.43 L 136.37 150.59 C 136.79 149.94 136.61 149.07 135.96 148.65 C 135.32 148.22 134.45 148.40 134.02 149.05 Z M 133.47 149.89 L 132.93 150.71 C 132.50 151.36 132.68 152.23 133.32 152.65 C 133.97 153.08 134.84 152.90 135.27 152.26 L 135.81 151.44 C 136.24 150.79 136.06 149.92 135.41 149.49 C 134.77 149.07 133.90 149.24 133.47 149.89 Z M 132.93 150.71 L 132.36 151.56 C 131.94 152.20 132.11 153.07 132.75 153.50 C 133.40 153.93 134.27 153.76 134.70 153.11 L 135.26 152.26 C 135.69 151.62 135.52 150.75 134.88 150.32 C 134.23 149.89 133.36 150.06 132.93 150.71 Z M 132.37 151.55 L 131.81 152.39 C 131.38 153.03 131.55 153.90 132.19 154.33 C 132.83 154.76 133.70 154.59 134.13 153.95 L 134.69 153.12 C 135.12 152.48 134.95 151.61 134.31 151.18 C 133.67 150.74 132.80 150.91 132.37 151.55 Z M 131.81 152.39 L 131.25 153.21 C 130.82 153.85 130.99 154.72 131.63 155.15 C 132.26 155.58 133.13 155.42 133.57 154.78 L 134.13 153.95 C 134.56 153.32 134.39 152.45 133.75 152.01 C 133.11 151.58 132.25 151.75 131.81 152.39 Z M 131.26 153.21 L 130.69 154.05 C 130.25 154.69 130.42 155.55 131.05 155.99 C 131.69 156.42 132.56 156.26 132.99 155.62 L 133.56 154.78 C 134.00 154.14 133.83 153.28 133.19 152.84 C 132.56 152.41 131.69 152.57 131.26 153.21 Z M 130.68 154.06 L 130.13 154.88 C 129.71 155.51 129.88 156.38 130.51 156.81 C 131.15 157.24 132.02 157.07 132.45 156.43 L 132.99 155.61 C 133.42 154.97 133.25 154.11 132.61 153.68 C 131.98 153.25 131.11 153.42 130.68 154.06 Z M 130.13 154.89 L 129.57 155.74 C 129.15 156.38 129.34 157.24 129.98 157.66 C 130.62 158.08 131.48 157.90 131.90 157.26 L 132.45 156.41 C 132.87 155.77 132.69 154.91 132.05 154.49 C 131.41 154.07 130.55 154.25 130.13 154.89 Z M 129.58 155.73 L 129.03 156.56 C 128.61 157.20 128.79 158.06 129.43 158.48 C 130.06 158.90 130.92 158.73 131.35 158.09 L 131.89 157.26 C 132.32 156.63 132.14 155.77 131.50 155.34 C 130.86 154.92 130.00 155.10 129.58 155.73 Z M 129.06 156.53 L 128.47 157.37 C 128.03 157.99 128.18 158.86 128.81 159.30 C 129.43 159.73 130.30 159.58 130.74 158.96 L 131.32 158.12 C 131.76 157.49 131.61 156.63 130.99 156.19 C 130.36 155.75 129.50 155.90 129.06 156.53 Z M 128.48 157.36 L 127.93 158.12 C 127.49 158.74 127.63 159.61 128.25 160.05 C 128.87 160.49 129.74 160.35 130.18 159.73 L 130.73 158.97 C 131.17 158.35 131.03 157.48 130.41 157.04 C 129.79 156.60 128.92 156.74 128.48 157.36 Z M 127.93 158.13 L 127.40 158.89 C 126.96 159.51 127.11 160.37 127.73 160.81 C 128.35 161.25 129.21 161.10 129.65 160.48 L 130.18 159.72 C 130.62 159.10 130.47 158.24 129.85 157.80 C 129.23 157.36 128.37 157.51 127.93 158.13 Z M 127.40 158.89 L 126.71 159.87 C 126.27 160.49 126.41 161.35 127.03 161.79 C 127.65 162.23 128.51 162.08 128.95 161.46 L 129.65 160.48 C 130.09 159.86 129.94 159.00 129.32 158.56 C 128.70 158.12 127.84 158.27 127.40 158.89 Z M 126.70 159.88 L 126.01 160.87 C 125.58 161.49 125.73 162.35 126.35 162.78 C 126.98 163.21 127.83 163.06 128.27 162.44 L 128.95 161.45 C 129.39 160.83 129.24 159.97 128.61 159.54 C 127.99 159.10 127.14 159.26 126.70 159.88 Z M 125.91 161.05 L 125.73 161.41 C 125.40 162.09 125.69 162.91 126.37 163.24 C 127.05 163.57 127.86 163.29 128.20 162.61 L 128.37 162.25 C 128.70 161.57 128.42 160.75 127.74 160.42 C 127.06 160.09 126.24 160.37 125.91 161.05 Z M 127.93 162.97 L 128.52 162.37 C 129.05 161.84 129.05 160.98 128.52 160.45 C 127.99 159.92 127.13 159.92 126.60 160.45 L 126.00 161.05 C 125.47 161.58 125.48 162.44 126.01 162.97 C 126.54 163.50 127.40 163.50 127.93 162.97 Z M 128.55 162.32 L 129.28 161.53 C 129.78 160.98 129.74 160.13 129.19 159.63 C 128.64 159.13 127.79 159.17 127.29 159.72 L 126.57 160.51 C 126.07 161.05 126.11 161.90 126.66 162.40 C 127.20 162.90 128.05 162.87 128.55 162.32 Z"
      fill="black"
      fill-rule="nonzero" /><path d="M 132.73 152.72 L 132.73 153.78 C 132.73 154.54 133.35 155.15 134.11 155.15 C 134.86 155.15 135.47 154.53 135.47 153.78 L 135.47 152.71 C 135.47 151.96 134.86 151.34 134.10 151.34 C 133.34 151.35 132.73 151.96 132.73 152.72 Z M 132.72 153.80 L 132.73 154.80 C 132.74 155.56 133.37 156.17 134.13 156.17 C 134.89 156.16 135.51 155.53 135.50 154.77 L 135.49 153.76 C 135.48 153.00 134.85 152.39 134.09 152.40 C 133.32 152.41 132.71 153.03 132.72 153.80 Z M 132.72 154.84 L 132.76 155.76 C 132.78 156.53 133.43 157.13 134.20 157.10 C 134.97 157.07 135.57 156.43 135.54 155.66 L 135.51 154.73 C 135.48 153.96 134.83 153.36 134.06 153.39 C 133.29 153.42 132.69 154.07 132.72 154.84 Z M 132.75 155.82 L 132.83 156.75 C 132.89 157.52 133.57 158.10 134.34 158.03 C 135.11 157.97 135.68 157.29 135.62 156.52 L 135.55 155.59 C 135.48 154.82 134.81 154.25 134.04 154.31 C 133.26 154.37 132.69 155.05 132.75 155.82 Z M 132.83 156.79 L 132.94 157.85 C 133.03 158.62 133.72 159.17 134.49 159.09 C 135.26 159.01 135.81 158.32 135.73 157.55 L 135.62 156.49 C 135.54 155.72 134.85 155.16 134.08 155.24 C 133.31 155.32 132.75 156.02 132.83 156.79 Z M 132.94 157.84 L 133.05 158.82 C 133.13 159.59 133.82 160.15 134.59 160.07 C 135.36 159.99 135.92 159.30 135.84 158.53 L 135.73 157.55 C 135.65 156.78 134.96 156.22 134.19 156.30 C 133.42 156.38 132.86 157.07 132.94 157.84 Z M 133.04 158.81 L 133.15 159.86 C 133.23 160.63 133.91 161.20 134.69 161.12 C 135.46 161.04 136.02 160.36 135.94 159.58 L 135.84 158.54 C 135.76 157.76 135.07 157.20 134.30 157.28 C 133.53 157.36 132.97 158.04 133.04 158.81 Z M 133.15 159.85 L 133.24 160.83 C 133.31 161.60 133.99 162.17 134.76 162.10 C 135.54 162.02 136.11 161.34 136.03 160.57 L 135.94 159.59 C 135.87 158.82 135.19 158.25 134.42 158.33 C 133.64 158.40 133.08 159.08 133.15 159.85 Z M 133.24 160.80 L 133.32 161.93 C 133.38 162.71 134.05 163.29 134.83 163.23 C 135.60 163.17 136.18 162.50 136.12 161.72 L 136.04 160.59 C 135.98 159.82 135.30 159.24 134.53 159.30 C 133.76 159.36 133.18 160.03 133.24 160.80 Z M 133.32 161.90 L 133.36 162.76 C 133.40 163.54 134.06 164.13 134.83 164.10 C 135.60 164.06 136.20 163.40 136.16 162.63 L 136.12 161.76 C 136.08 160.99 135.43 160.39 134.65 160.43 C 133.88 160.47 133.28 161.12 133.32 161.90 Z M 133.36 162.75 L 133.40 163.73 C 133.43 164.50 134.08 165.11 134.85 165.08 C 135.62 165.05 136.23 164.40 136.20 163.62 L 136.16 162.64 C 136.14 161.87 135.48 161.27 134.71 161.29 C 133.94 161.32 133.33 161.97 133.36 162.75 Z M 133.40 163.73 L 133.43 164.70 C 133.46 165.47 134.11 166.07 134.89 166.04 C 135.66 166.02 136.26 165.37 136.23 164.59 L 136.20 163.62 C 136.17 162.85 135.52 162.25 134.75 162.28 C 133.97 162.30 133.37 162.95 133.40 163.73 Z M 133.44 164.69 L 133.47 165.64 C 133.49 166.41 134.14 167.01 134.91 166.99 C 135.69 166.96 136.29 166.31 136.26 165.54 L 136.23 164.60 C 136.21 163.82 135.56 163.22 134.79 163.25 C 134.01 163.27 133.41 163.92 133.44 164.69 Z M 133.47 165.61 L 133.49 166.68 C 133.50 167.45 134.14 168.06 134.91 168.05 C 135.68 168.03 136.30 167.40 136.28 166.62 L 136.26 165.56 C 136.25 164.79 135.61 164.18 134.84 164.19 C 134.07 164.21 133.46 164.84 133.47 165.61 Z M 133.49 166.66 L 133.50 167.65 C 133.50 168.42 134.13 169.04 134.90 169.04 C 135.67 169.03 136.29 168.40 136.29 167.63 L 136.28 166.64 C 136.28 165.87 135.65 165.25 134.88 165.26 C 134.11 165.26 133.49 165.89 133.49 166.66 Z M 133.50 167.65 L 133.50 168.68 C 133.50 169.45 134.13 170.07 134.90 170.07 C 135.66 170.07 136.29 169.45 136.29 168.68 L 136.28 167.64 C 136.28 166.87 135.66 166.25 134.89 166.25 C 134.12 166.25 133.50 166.88 133.50 167.65 Z M 133.50 168.68 L 133.50 169.74 C 133.50 170.51 134.13 171.13 134.89 171.13 C 135.66 171.13 136.28 170.51 136.28 169.74 L 136.28 168.68 C 136.28 167.91 135.66 167.29 134.89 167.29 C 134.13 167.29 133.50 167.91 133.50 168.68 Z M 133.51 169.74 L 133.51 170.75 C 133.51 171.51 134.13 172.13 134.89 172.13 C 135.66 172.13 136.28 171.51 136.28 170.75 L 136.28 169.74 C 136.28 168.97 135.66 168.35 134.89 168.35 C 134.13 168.35 133.51 168.97 133.51 169.74 Z M 133.51 170.75 L 133.51 171.76 C 133.51 172.52 134.13 173.14 134.89 173.14 C 135.66 173.14 136.27 172.52 136.27 171.76 L 136.27 170.75 C 136.27 169.98 135.66 169.37 134.89 169.37 C 134.13 169.37 133.51 169.98 133.51 170.75 Z M 133.52 171.80 L 133.55 172.89 C 133.57 173.65 134.20 174.24 134.96 174.22 C 135.72 174.20 136.31 173.57 136.29 172.82 L 136.27 171.72 C 136.25 170.97 135.62 170.37 134.86 170.39 C 134.10 170.41 133.50 171.04 133.52 171.80 Z M 136.13 173.46 L 136.32 173.09 C 136.66 172.42 136.39 171.60 135.72 171.27 C 135.05 170.93 134.23 171.20 133.90 171.87 L 133.71 172.24 C 133.37 172.91 133.64 173.73 134.31 174.06 C 134.98 174.40 135.80 174.13 136.13 173.46 Z M 136.42 172.76 L 136.53 172.23 C 136.68 171.51 136.22 170.80 135.49 170.64 C 134.77 170.49 134.06 170.96 133.90 171.68 L 133.79 172.21 C 133.64 172.93 134.11 173.64 134.83 173.79 C 135.56 173.95 136.27 173.48 136.42 172.76 Z"
      fill="black"
      fill-rule="nonzero" /><path d="M 146.23 133.59 L 147.12 133.60 C 147.87 133.62 148.50 133.02 148.51 132.26 C 148.53 131.51 147.92 130.88 147.17 130.87 L 146.28 130.85 C 145.52 130.84 144.90 131.44 144.89 132.19 C 144.87 132.95 145.47 133.57 146.23 133.59 Z M 147.19 133.62 L 148.20 133.58 C 148.96 133.56 149.56 132.92 149.54 132.16 C 149.51 131.39 148.87 130.80 148.11 130.82 L 147.10 130.85 C 146.33 130.88 145.74 131.52 145.76 132.28 C 145.79 133.04 146.42 133.64 147.19 133.62 Z M 148.29 133.59 L 149.36 133.48 C 150.13 133.41 150.69 132.72 150.61 131.96 C 150.54 131.19 149.85 130.63 149.09 130.71 L 148.02 130.82 C 147.25 130.89 146.69 131.57 146.77 132.34 C 146.85 133.11 147.53 133.66 148.29 133.59 Z M 149.42 133.48 L 150.44 133.33 C 151.20 133.23 151.74 132.52 151.63 131.76 C 151.52 130.99 150.81 130.46 150.05 130.57 L 149.03 130.71 C 148.27 130.82 147.74 131.53 147.84 132.29 C 147.95 133.06 148.66 133.59 149.42 133.48 Z M 150.47 133.33 L 151.50 133.16 C 152.26 133.04 152.78 132.33 152.65 131.57 C 152.53 130.80 151.81 130.29 151.05 130.41 L 150.02 130.57 C 149.26 130.70 148.75 131.41 148.87 132.17 C 148.99 132.93 149.71 133.45 150.47 133.33 Z M 151.50 133.16 L 152.45 133.01 C 153.21 132.88 153.72 132.16 153.59 131.40 C 153.47 130.64 152.75 130.13 151.99 130.25 L 151.05 130.41 C 150.29 130.54 149.77 131.26 149.90 132.02 C 150.03 132.78 150.74 133.29 151.50 133.16 Z M 152.44 133.00 L 153.58 132.82 C 154.34 132.70 154.86 131.98 154.74 131.22 C 154.61 130.47 153.90 129.95 153.14 130.07 L 152.00 130.26 C 151.24 130.38 150.72 131.09 150.84 131.85 C 150.97 132.61 151.68 133.12 152.44 133.00 Z M 153.56 132.81 L 154.42 132.69 C 155.18 132.58 155.70 131.88 155.59 131.12 C 155.48 130.36 154.78 129.84 154.02 129.95 L 153.16 130.08 C 152.41 130.19 151.88 130.89 152.00 131.65 C 152.11 132.40 152.81 132.92 153.56 132.81 Z M 154.40 132.68 L 155.38 132.55 C 156.13 132.45 156.66 131.76 156.56 131.01 C 156.46 130.25 155.77 129.73 155.01 129.83 L 154.04 129.96 C 153.29 130.06 152.76 130.75 152.86 131.50 C 152.96 132.25 153.65 132.78 154.40 132.68 Z M 155.37 132.55 L 156.30 132.43 C 157.05 132.33 157.58 131.64 157.49 130.89 C 157.39 130.14 156.70 129.62 155.95 129.71 L 155.02 129.83 C 154.27 129.93 153.74 130.62 153.84 131.36 C 153.94 132.11 154.62 132.64 155.37 132.55 Z M 156.29 132.42 L 157.18 132.32 C 157.93 132.23 158.46 131.55 158.38 130.80 C 158.29 130.05 157.61 129.52 156.86 129.61 L 155.97 129.72 C 155.22 129.81 154.69 130.48 154.78 131.23 C 154.87 131.98 155.54 132.51 156.29 132.42 Z M 157.15 132.32 L 158.25 132.21 C 159.00 132.14 159.55 131.48 159.48 130.73 C 159.41 129.99 158.75 129.44 158.00 129.51 L 156.90 129.61 C 156.15 129.68 155.60 130.34 155.67 131.09 C 155.74 131.84 156.40 132.39 157.15 132.32 Z M 158.23 132.21 L 159.21 132.14 C 159.96 132.08 160.52 131.43 160.47 130.68 C 160.41 129.94 159.76 129.38 159.01 129.43 L 158.02 129.51 C 157.28 129.56 156.72 130.21 156.77 130.96 C 156.83 131.71 157.48 132.27 158.23 132.21 Z M 159.20 132.14 L 160.25 132.07 C 161.00 132.02 161.56 131.38 161.51 130.63 C 161.47 129.88 160.82 129.32 160.07 129.36 L 159.02 129.43 C 158.28 129.48 157.71 130.12 157.76 130.87 C 157.81 131.62 158.45 132.19 159.20 132.14 Z M 160.23 132.07 L 161.26 132.02 C 162.00 131.98 162.58 131.34 162.54 130.60 C 162.50 129.85 161.87 129.28 161.12 129.31 L 160.09 129.37 C 159.35 129.40 158.77 130.04 158.81 130.79 C 158.85 131.53 159.48 132.11 160.23 132.07 Z M 161.23 132.01 L 162.30 131.98 C 163.05 131.96 163.64 131.34 163.61 130.60 C 163.59 129.85 162.97 129.27 162.23 129.29 L 161.15 129.32 C 160.41 129.34 159.82 129.96 159.84 130.70 C 159.86 131.45 160.48 132.03 161.23 132.01 Z M 162.28 131.98 L 163.19 131.97 C 163.93 131.97 164.52 131.36 164.52 130.62 C 164.51 129.88 163.91 129.28 163.17 129.29 L 162.26 129.29 C 161.52 129.30 160.92 129.90 160.93 130.64 C 160.93 131.38 161.53 131.98 162.28 131.98 Z M 163.18 131.97 L 163.34 131.97 C 164.08 131.97 164.68 131.37 164.68 130.63 C 164.68 129.89 164.08 129.29 163.34 129.29 L 163.18 129.29 C 162.44 129.29 161.84 129.89 161.84 130.63 C 161.84 131.37 162.44 131.97 163.18 131.97 Z"
      fill="black"
      fill-rule="nonzero" /><path d="M 147.55 133.76 L 146.98 134.61 C 146.56 135.24 146.73 136.09 147.36 136.51 C 147.99 136.93 148.84 136.76 149.26 136.13 L 149.83 135.28 C 150.25 134.65 150.08 133.80 149.45 133.38 C 148.82 132.96 147.96 133.13 147.55 133.76 Z M 146.85 134.85 L 146.49 135.74 C 146.20 136.44 146.54 137.24 147.25 137.53 C 147.95 137.81 148.75 137.47 149.03 136.77 L 149.39 135.88 C 149.68 135.18 149.34 134.38 148.64 134.10 C 147.94 133.81 147.13 134.15 146.85 134.85 Z M 146.39 136.09 L 146.27 137.07 C 146.18 137.82 146.72 138.51 147.47 138.60 C 148.23 138.70 148.91 138.16 149.01 137.41 L 149.13 136.42 C 149.22 135.67 148.69 134.98 147.93 134.89 C 147.18 134.79 146.49 135.33 146.39 136.09 Z M 146.26 137.14 L 146.19 138.09 C 146.14 138.85 146.71 139.51 147.47 139.57 C 148.23 139.62 148.89 139.05 148.95 138.29 L 149.02 137.34 C 149.07 136.58 148.50 135.91 147.74 135.86 C 146.98 135.80 146.32 136.38 146.26 137.14 Z M 146.19 138.07 L 146.11 139.08 C 146.04 139.85 146.61 140.52 147.37 140.58 C 148.13 140.64 148.80 140.08 148.87 139.31 L 148.95 138.31 C 149.02 137.54 148.45 136.87 147.69 136.81 C 146.92 136.75 146.25 137.31 146.19 138.07 Z M 146.10 139.09 L 146.02 140.10 C 145.96 140.87 146.53 141.54 147.30 141.60 C 148.06 141.66 148.73 141.09 148.79 140.32 L 148.87 139.31 C 148.93 138.54 148.36 137.88 147.60 137.81 C 146.83 137.75 146.16 138.32 146.10 139.09 Z M 146.02 140.11 L 145.95 141.09 C 145.89 141.85 146.46 142.52 147.23 142.58 C 147.99 142.63 148.66 142.06 148.72 141.30 L 148.79 140.32 C 148.85 139.55 148.28 138.88 147.51 138.83 C 146.75 138.77 146.08 139.34 146.02 140.11 Z M 145.95 141.08 L 145.86 142.12 C 145.80 142.88 146.37 143.55 147.14 143.61 C 147.90 143.68 148.57 143.11 148.63 142.34 L 148.72 141.30 C 148.78 140.54 148.21 139.87 147.44 139.81 C 146.68 139.74 146.01 140.31 145.95 141.08 Z M 145.86 142.10 L 145.77 143.15 C 145.70 143.92 146.26 144.60 147.02 144.67 C 147.79 144.74 148.46 144.17 148.54 143.41 L 148.63 142.36 C 148.70 141.59 148.14 140.92 147.38 140.84 C 146.61 140.77 145.93 141.34 145.86 142.10 Z M 145.77 143.14 L 145.66 144.17 C 145.59 144.93 146.14 145.61 146.91 145.69 C 147.67 145.77 148.35 145.21 148.43 144.45 L 148.53 143.42 C 148.61 142.66 148.05 141.97 147.29 141.90 C 146.53 141.82 145.84 142.38 145.77 143.14 Z M 145.66 144.17 L 145.57 145.11 C 145.49 145.88 146.05 146.56 146.81 146.64 C 147.58 146.71 148.26 146.16 148.34 145.39 L 148.43 144.45 C 148.51 143.68 147.95 143.00 147.19 142.92 C 146.42 142.85 145.74 143.40 145.66 144.17 Z M 145.57 145.13 L 145.48 146.16 C 145.41 146.92 145.98 147.60 146.74 147.66 C 147.51 147.73 148.18 147.16 148.25 146.40 L 148.34 145.37 C 148.40 144.61 147.84 143.93 147.07 143.87 C 146.31 143.80 145.63 144.37 145.57 145.13 Z M 145.48 146.20 L 145.42 147.16 C 145.38 147.92 145.96 148.58 146.73 148.62 C 147.50 148.67 148.15 148.08 148.20 147.31 L 148.25 146.36 C 148.29 145.59 147.71 144.93 146.94 144.89 C 146.18 144.85 145.52 145.43 145.48 146.20 Z M 145.42 147.20 L 145.40 148.20 C 145.38 148.96 145.98 149.60 146.75 149.62 C 147.52 149.64 148.15 149.03 148.17 148.26 L 148.20 147.27 C 148.22 146.50 147.61 145.87 146.84 145.85 C 146.08 145.83 145.44 146.43 145.42 147.20 Z M 145.39 148.23 L 145.39 149.25 C 145.39 150.01 146.01 150.64 146.78 150.64 C 147.55 150.64 148.17 150.02 148.17 149.25 L 148.17 148.23 C 148.17 147.46 147.55 146.84 146.79 146.84 C 146.02 146.84 145.40 147.46 145.39 148.23 Z M 145.39 149.28 L 145.41 150.30 C 145.43 151.07 146.06 151.68 146.83 151.66 C 147.60 151.64 148.21 151.01 148.19 150.24 L 148.17 149.22 C 148.16 148.45 147.52 147.84 146.75 147.86 C 145.99 147.88 145.38 148.51 145.39 149.28 Z M 145.42 150.41 L 145.52 151.38 C 145.59 152.14 146.27 152.70 147.04 152.62 C 147.80 152.55 148.35 151.87 148.28 151.11 L 148.18 150.14 C 148.11 149.37 147.43 148.82 146.67 148.89 C 145.90 148.97 145.35 149.65 145.42 150.41 Z M 145.57 151.63 L 145.84 152.56 C 146.05 153.29 146.82 153.72 147.56 153.50 C 148.29 153.29 148.72 152.52 148.50 151.78 L 148.23 150.85 C 148.01 150.12 147.25 149.70 146.51 149.91 C 145.78 150.13 145.35 150.90 145.57 151.63 Z M 145.93 152.79 L 146.38 153.69 C 146.73 154.38 147.56 154.65 148.24 154.31 C 148.93 153.97 149.20 153.13 148.86 152.45 L 148.41 151.55 C 148.06 150.87 147.23 150.59 146.55 150.93 C 145.86 151.28 145.59 152.11 145.93 152.79 Z M 146.48 153.85 L 147.03 154.66 C 147.45 155.29 148.32 155.46 148.95 155.03 C 149.58 154.60 149.75 153.74 149.32 153.10 L 148.77 152.29 C 148.34 151.66 147.48 151.50 146.84 151.93 C 146.21 152.36 146.05 153.22 146.48 153.85 Z M 147.08 154.74 L 147.71 155.53 C 148.18 156.13 149.05 156.24 149.65 155.77 C 150.25 155.30 150.36 154.43 149.89 153.82 L 149.26 153.03 C 148.79 152.43 147.92 152.32 147.32 152.79 C 146.72 153.26 146.61 154.13 147.08 154.74 Z M 147.73 155.55 L 148.35 156.32 C 148.83 156.91 149.71 157.00 150.30 156.52 C 150.89 156.03 150.98 155.16 150.49 154.57 L 149.87 153.80 C 149.38 153.21 148.51 153.12 147.92 153.61 C 147.33 154.09 147.24 154.96 147.73 155.55 Z M 148.36 156.32 L 148.88 156.96 C 149.37 157.55 150.24 157.63 150.82 157.14 C 151.41 156.66 151.50 155.79 151.01 155.20 L 150.49 154.57 C 150.00 153.98 149.13 153.90 148.54 154.38 C 147.96 154.87 147.87 155.74 148.36 156.32 Z"
      fill="black"
      fill-rule="nonzero" /><path d="M 154.78 136.81 L 154.72 137.80 C 154.67 138.56 155.25 139.21 156.01 139.26 C 156.76 139.31 157.42 138.73 157.47 137.98 L 157.53 136.99 C 157.58 136.23 157.00 135.57 156.25 135.52 C 155.49 135.48 154.83 136.05 154.78 136.81 Z M 154.74 137.66 L 154.57 138.65 C 154.44 139.40 154.95 140.11 155.70 140.23 C 156.45 140.36 157.16 139.85 157.29 139.10 L 157.45 138.12 C 157.58 137.37 157.07 136.66 156.32 136.53 C 155.57 136.40 154.86 136.91 154.74 137.66 Z M 154.61 138.48 L 154.32 139.45 C 154.11 140.18 154.52 140.94 155.25 141.16 C 155.98 141.38 156.75 140.96 156.96 140.23 L 157.25 139.27 C 157.46 138.54 157.05 137.77 156.32 137.55 C 155.59 137.34 154.82 137.75 154.61 138.48 Z M 154.35 139.37 L 154.03 140.26 C 153.77 140.98 154.14 141.77 154.85 142.02 C 155.57 142.28 156.36 141.91 156.62 141.20 L 156.94 140.31 C 157.20 139.59 156.83 138.80 156.11 138.54 C 155.40 138.28 154.61 138.65 154.35 139.37 Z M 154.04 140.22 L 153.66 141.18 C 153.38 141.89 153.72 142.69 154.43 142.97 C 155.14 143.25 155.94 142.91 156.22 142.20 L 156.60 141.24 C 156.88 140.53 156.54 139.73 155.83 139.45 C 155.12 139.17 154.32 139.51 154.04 140.22 Z M 153.67 141.16 L 153.28 142.09 C 152.99 142.80 153.32 143.60 154.02 143.89 C 154.72 144.19 155.53 143.85 155.82 143.15 L 156.21 142.22 C 156.50 141.52 156.17 140.71 155.47 140.42 C 154.76 140.13 153.96 140.46 153.67 141.16 Z M 153.28 142.09 L 152.88 143.04 C 152.59 143.74 152.92 144.55 153.62 144.84 C 154.32 145.13 155.13 144.80 155.43 144.10 L 155.82 143.15 C 156.12 142.45 155.79 141.64 155.08 141.35 C 154.38 141.06 153.57 141.39 153.28 142.09 Z M 152.88 143.05 L 152.49 144.00 C 152.20 144.70 152.54 145.51 153.24 145.79 C 153.95 146.08 154.75 145.75 155.04 145.04 L 155.43 144.09 C 155.72 143.39 155.38 142.58 154.68 142.30 C 153.97 142.01 153.17 142.34 152.88 143.05 Z M 152.48 144.03 L 152.13 144.94 C 151.86 145.65 152.22 146.44 152.93 146.71 C 153.64 146.98 154.44 146.62 154.71 145.91 L 155.05 145.01 C 155.32 144.30 154.96 143.50 154.25 143.23 C 153.54 142.96 152.75 143.32 152.48 144.03 Z M 152.11 144.99 L 151.82 145.89 C 151.58 146.61 151.97 147.39 152.69 147.63 C 153.41 147.87 154.19 147.48 154.43 146.75 L 154.73 145.86 C 154.97 145.13 154.58 144.36 153.85 144.12 C 153.13 143.88 152.35 144.27 152.11 144.99 Z M 151.79 145.99 L 151.54 146.97 C 151.36 147.71 151.80 148.45 152.54 148.64 C 153.28 148.83 154.03 148.38 154.21 147.64 L 154.46 146.66 C 154.65 145.92 154.20 145.17 153.46 144.99 C 152.72 144.80 151.97 145.25 151.79 145.99 Z M 151.51 147.12 L 151.38 148.13 C 151.27 148.88 151.80 149.58 152.56 149.68 C 153.31 149.78 154.01 149.25 154.11 148.50 L 154.24 147.49 C 154.34 146.73 153.81 146.04 153.06 145.94 C 152.31 145.84 151.61 146.37 151.51 147.12 Z M 151.36 148.42 L 151.44 149.41 C 151.49 150.17 152.16 150.74 152.92 150.68 C 153.68 150.62 154.25 149.96 154.19 149.20 L 154.12 148.21 C 154.06 147.45 153.40 146.88 152.64 146.94 C 151.88 146.99 151.31 147.65 151.36 148.42 Z M 151.56 149.88 L 151.98 150.78 C 152.30 151.48 153.12 151.78 153.81 151.46 C 154.51 151.14 154.81 150.32 154.49 149.62 L 154.07 148.72 C 153.75 148.03 152.93 147.73 152.23 148.05 C 151.54 148.37 151.24 149.19 151.56 149.88 Z M 152.24 151.16 L 152.94 151.90 C 153.47 152.45 154.35 152.46 154.90 151.93 C 155.45 151.40 155.46 150.52 154.93 149.97 L 154.23 149.24 C 153.69 148.69 152.82 148.68 152.27 149.21 C 151.72 149.74 151.70 150.62 152.24 151.16 Z M 153.09 152.03 L 153.89 152.64 C 154.49 153.11 155.36 153.00 155.83 152.39 C 156.29 151.78 156.18 150.91 155.58 150.45 L 154.78 149.84 C 154.18 149.37 153.31 149.48 152.84 150.09 C 152.37 150.69 152.49 151.56 153.09 152.03 Z M 153.91 152.66 L 154.78 153.30 C 155.39 153.75 156.26 153.62 156.71 153.00 C 157.16 152.39 157.03 151.53 156.42 151.07 L 155.55 150.43 C 154.94 149.98 154.07 150.11 153.62 150.72 C 153.17 151.34 153.30 152.20 153.91 152.66 Z M 154.76 153.27 L 155.44 153.80 C 156.05 154.27 156.91 154.15 157.37 153.55 C 157.84 152.95 157.72 152.09 157.12 151.62 L 156.44 151.10 C 155.84 150.63 154.97 150.74 154.51 151.34 C 154.05 151.95 154.16 152.81 154.76 153.27 Z"
      fill="black"
      fill-rule="nonzero" /><path d="M 161.17 135.61 L 161.14 136.63 C 161.12 137.39 161.73 138.03 162.49 138.05 C 163.25 138.06 163.89 137.46 163.91 136.70 L 163.93 135.68 C 163.95 134.92 163.35 134.28 162.58 134.26 C 161.82 134.25 161.19 134.85 161.17 135.61 Z M 161.14 136.59 L 161.09 137.59 C 161.05 138.35 161.63 139.00 162.40 139.04 C 163.16 139.08 163.81 138.50 163.85 137.74 L 163.91 136.74 C 163.95 135.98 163.36 135.32 162.60 135.28 C 161.84 135.24 161.19 135.83 161.14 136.59 Z M 161.10 137.50 L 160.98 138.50 C 160.89 139.25 161.43 139.94 162.19 140.03 C 162.95 140.12 163.64 139.58 163.73 138.82 L 163.84 137.82 C 163.93 137.06 163.39 136.38 162.63 136.29 C 161.87 136.20 161.19 136.74 161.10 137.50 Z M 161.00 138.39 L 160.80 139.39 C 160.65 140.14 161.14 140.87 161.89 141.02 C 162.64 141.16 163.36 140.68 163.51 139.93 L 163.71 138.92 C 163.86 138.18 163.37 137.45 162.62 137.30 C 161.87 137.15 161.15 137.64 161.00 138.39 Z M 160.82 139.33 L 160.58 140.26 C 160.40 141.00 160.85 141.75 161.59 141.93 C 162.33 142.12 163.08 141.67 163.26 140.93 L 163.49 139.99 C 163.68 139.25 163.23 138.51 162.49 138.32 C 161.75 138.14 161.00 138.59 160.82 139.33 Z M 160.59 140.23 L 160.32 141.23 C 160.12 141.97 160.56 142.73 161.30 142.92 C 162.03 143.12 162.79 142.69 162.99 141.95 L 163.25 140.95 C 163.45 140.22 163.02 139.46 162.28 139.26 C 161.55 139.06 160.79 139.50 160.59 140.23 Z M 160.32 141.24 L 160.07 142.17 C 159.88 142.91 160.32 143.66 161.05 143.86 C 161.79 144.06 162.54 143.62 162.74 142.88 L 162.99 141.95 C 163.18 141.21 162.74 140.45 162.01 140.26 C 161.27 140.06 160.52 140.50 160.32 141.24 Z M 160.06 142.21 L 159.83 143.20 C 159.65 143.94 160.11 144.69 160.85 144.86 C 161.59 145.04 162.33 144.58 162.51 143.84 L 162.75 142.85 C 162.92 142.11 162.47 141.36 161.73 141.18 C 160.99 141.01 160.24 141.46 160.06 142.21 Z M 159.81 143.25 L 159.62 144.21 C 159.48 144.96 159.96 145.68 160.71 145.83 C 161.46 145.98 162.18 145.49 162.33 144.74 L 162.52 143.79 C 162.67 143.04 162.18 142.32 161.44 142.17 C 160.69 142.02 159.96 142.51 159.81 143.25 Z M 159.61 144.27 L 159.47 145.25 C 159.35 146.01 159.87 146.71 160.63 146.82 C 161.38 146.94 162.08 146.42 162.20 145.66 L 162.34 144.68 C 162.46 143.93 161.94 143.22 161.18 143.11 C 160.43 143.00 159.73 143.52 159.61 144.27 Z M 159.46 145.30 L 159.34 146.28 C 159.26 147.04 159.80 147.73 160.56 147.82 C 161.31 147.91 162.00 147.36 162.09 146.61 L 162.20 145.62 C 162.29 144.86 161.75 144.18 160.99 144.09 C 160.24 144.00 159.55 144.54 159.46 145.30 Z M 159.34 146.37 L 159.28 147.37 C 159.24 148.14 159.82 148.79 160.58 148.83 C 161.34 148.87 162.00 148.29 162.04 147.53 L 162.10 146.52 C 162.14 145.76 161.56 145.11 160.79 145.07 C 160.03 145.02 159.38 145.61 159.34 146.37 Z M 159.28 147.60 L 159.39 148.57 C 159.47 149.33 160.15 149.88 160.91 149.80 C 161.67 149.72 162.22 149.04 162.14 148.28 L 162.03 147.30 C 161.95 146.55 161.27 146.00 160.51 146.08 C 159.75 146.16 159.20 146.84 159.28 147.60 Z M 159.52 149.03 L 159.95 149.93 C 160.28 150.62 161.11 150.91 161.80 150.57 C 162.49 150.24 162.78 149.41 162.44 148.72 L 162.01 147.83 C 161.68 147.14 160.85 146.85 160.16 147.18 C 159.47 147.51 159.18 148.34 159.52 149.03 Z M 160.26 150.35 L 160.94 150.97 C 161.50 151.49 162.38 151.45 162.90 150.89 C 163.42 150.33 163.38 149.45 162.82 148.93 L 162.14 148.31 C 161.57 147.79 160.70 147.82 160.18 148.39 C 159.66 148.95 159.70 149.83 160.26 150.35 Z M 161.15 151.13 L 162.03 151.67 C 162.68 152.08 163.53 151.88 163.93 151.23 C 164.34 150.57 164.14 149.72 163.48 149.32 L 162.61 148.77 C 161.96 148.37 161.10 148.57 160.70 149.22 C 160.30 149.87 160.50 150.73 161.15 151.13 Z M 162.13 151.73 L 163.06 152.20 C 163.74 152.55 164.58 152.27 164.92 151.59 C 165.27 150.91 164.99 150.08 164.31 149.73 L 163.38 149.26 C 162.70 148.92 161.86 149.19 161.52 149.87 C 161.18 150.55 161.45 151.39 162.13 151.73 Z M 163.12 152.22 L 164.02 152.63 C 164.72 152.95 165.53 152.64 165.85 151.95 C 166.16 151.26 165.86 150.44 165.17 150.13 L 164.26 149.71 C 163.56 149.40 162.75 149.70 162.43 150.39 C 162.12 151.09 162.42 151.91 163.12 152.22 Z M 164.05 152.64 L 164.98 153.04 C 165.67 153.34 166.48 153.02 166.78 152.32 C 167.08 151.62 166.76 150.82 166.06 150.52 L 165.14 150.12 C 164.44 149.82 163.63 150.14 163.34 150.84 C 163.04 151.53 163.36 152.34 164.05 152.64 Z M 164.98 153.04 L 165.18 153.12 C 165.88 153.42 166.68 153.09 166.98 152.40 C 167.27 151.70 166.95 150.90 166.25 150.61 L 166.05 150.52 C 165.36 150.22 164.56 150.55 164.26 151.24 C 163.97 151.94 164.29 152.74 164.98 153.04 Z"
      fill="black"
      fill-rule="nonzero" /><path d="M 145.37 161.05 L 146.21 161.60 C 146.85 162.01 147.70 161.83 148.12 161.19 C 148.53 160.55 148.34 159.69 147.70 159.28 L 146.86 158.74 C 146.22 158.33 145.36 158.51 144.95 159.15 C 144.54 159.79 144.73 160.64 145.37 161.05 Z M 146.39 161.73 L 147.29 162.12 C 148.00 162.44 148.83 162.12 149.14 161.41 C 149.46 160.70 149.14 159.87 148.43 159.55 L 147.53 159.16 C 146.82 158.84 145.99 159.16 145.67 159.87 C 145.36 160.58 145.68 161.41 146.39 161.73 Z M 147.64 162.24 L 148.56 162.39 C 149.33 162.51 150.06 161.98 150.18 161.21 C 150.30 160.43 149.78 159.71 149.00 159.59 L 148.08 159.44 C 147.31 159.32 146.58 159.84 146.46 160.62 C 146.34 161.39 146.86 162.12 147.64 162.24 Z M 148.82 162.40 L 149.86 162.38 C 150.64 162.36 151.26 161.71 151.24 160.92 C 151.22 160.14 150.57 159.52 149.79 159.54 L 148.75 159.57 C 147.96 159.59 147.34 160.24 147.36 161.02 C 147.38 161.80 148.03 162.42 148.82 162.40 Z M 149.98 162.37 L 150.94 162.26 C 151.72 162.18 152.28 161.48 152.19 160.70 C 152.11 159.92 151.40 159.36 150.63 159.44 L 149.67 159.55 C 148.89 159.64 148.33 160.34 148.42 161.12 C 148.50 161.89 149.20 162.45 149.98 162.37 Z M 151.00 162.25 L 151.99 162.10 C 152.76 161.98 153.29 161.26 153.17 160.49 C 153.06 159.71 152.33 159.18 151.56 159.30 L 150.57 159.45 C 149.80 159.57 149.26 160.29 149.38 161.07 C 149.50 161.84 150.22 162.37 151.00 162.25 Z M 152.03 162.09 L 153.07 161.91 C 153.84 161.77 154.35 161.03 154.21 160.26 C 154.07 159.49 153.33 158.98 152.56 159.12 L 151.52 159.31 C 150.75 159.45 150.24 160.19 150.38 160.95 C 150.52 161.72 151.26 162.23 152.03 162.09 Z M 153.09 161.90 L 154.14 161.69 C 154.90 161.53 155.40 160.79 155.24 160.03 C 155.09 159.26 154.35 158.77 153.58 158.92 L 152.54 159.13 C 151.77 159.28 151.28 160.03 151.43 160.79 C 151.58 161.56 152.33 162.05 153.09 161.90 Z M 154.15 161.68 L 155.14 161.47 C 155.90 161.31 156.39 160.56 156.22 159.80 C 156.06 159.04 155.32 158.56 154.56 158.72 L 153.57 158.93 C 152.81 159.09 152.32 159.83 152.48 160.60 C 152.64 161.36 153.39 161.84 154.15 161.68 Z M 155.14 161.47 L 156.10 161.26 C 156.86 161.09 157.34 160.35 157.18 159.59 C 157.01 158.83 156.26 158.35 155.51 158.52 L 154.55 158.72 C 153.79 158.89 153.31 159.63 153.48 160.39 C 153.64 161.15 154.39 161.63 155.14 161.47 Z M 156.10 161.25 L 157.09 161.04 C 157.85 160.87 158.32 160.13 158.16 159.38 C 158.00 158.62 157.26 158.15 156.50 158.31 L 155.51 158.52 C 154.76 158.69 154.28 159.43 154.44 160.18 C 154.60 160.94 155.35 161.41 156.10 161.25 Z M 157.09 161.03 L 157.94 160.85 C 158.69 160.69 159.17 159.95 159.01 159.20 C 158.85 158.45 158.11 157.97 157.36 158.13 L 156.51 158.32 C 155.76 158.48 155.28 159.21 155.44 159.96 C 155.60 160.71 156.34 161.19 157.09 161.03 Z M 157.93 160.84 L 158.90 160.65 C 159.65 160.50 160.13 159.77 159.98 159.02 C 159.83 158.27 159.10 157.79 158.35 157.94 L 157.38 158.13 C 156.63 158.29 156.15 159.01 156.30 159.76 C 156.45 160.51 157.18 160.99 157.93 160.84 Z M 158.87 160.65 L 159.84 160.47 C 160.59 160.34 161.08 159.62 160.95 158.87 C 160.82 158.13 160.10 157.63 159.35 157.76 L 158.38 157.94 C 157.63 158.07 157.13 158.79 157.27 159.54 C 157.40 160.29 158.12 160.78 158.87 160.65 Z M 159.83 160.47 L 160.82 160.30 C 161.56 160.17 162.06 159.46 161.93 158.71 C 161.80 157.97 161.09 157.47 160.35 157.60 L 159.36 157.77 C 158.61 157.90 158.11 158.61 158.24 159.35 C 158.37 160.10 159.08 160.60 159.83 160.47 Z M 160.82 160.29 L 161.88 160.10 C 162.62 159.97 163.12 159.26 162.98 158.52 C 162.85 157.77 162.14 157.28 161.40 157.41 L 160.34 157.60 C 159.60 157.74 159.10 158.45 159.24 159.19 C 159.37 159.93 160.08 160.43 160.82 160.29 Z M 161.90 160.09 L 162.88 159.90 C 163.62 159.76 164.10 159.05 163.95 158.31 C 163.81 157.57 163.10 157.09 162.36 157.23 L 161.38 157.42 C 160.64 157.56 160.16 158.28 160.30 159.02 C 160.44 159.76 161.16 160.24 161.90 160.09 Z M 162.89 159.90 L 163.87 159.69 C 164.60 159.54 165.08 158.83 164.93 158.09 C 164.78 157.36 164.06 156.89 163.32 157.04 L 162.34 157.24 C 161.61 157.39 161.14 158.11 161.29 158.84 C 161.44 159.57 162.16 160.05 162.89 159.90 Z M 163.88 159.69 L 164.75 159.50 C 165.48 159.35 165.95 158.63 165.80 157.90 C 165.64 157.17 164.93 156.71 164.20 156.86 L 163.32 157.05 C 162.59 157.20 162.12 157.91 162.28 158.64 C 162.43 159.37 163.15 159.84 163.88 159.69 Z"
      fill="black"
      fill-rule="nonzero" /><path d="M 154.79 159.59 L 154.71 160.60 C 154.65 161.35 155.22 162.01 155.98 162.07 C 156.73 162.13 157.39 161.56 157.45 160.81 L 157.53 159.80 C 157.58 159.04 157.02 158.38 156.26 158.33 C 155.51 158.27 154.85 158.83 154.79 159.59 Z M 154.69 160.63 L 154.64 161.62 C 154.60 162.38 155.19 163.04 155.96 163.08 C 156.72 163.12 157.38 162.53 157.42 161.76 L 157.47 160.77 C 157.51 160.01 156.92 159.36 156.15 159.32 C 155.39 159.28 154.73 159.86 154.69 160.63 Z M 154.63 161.67 L 154.62 162.66 C 154.61 163.43 155.22 164.07 155.99 164.08 C 156.76 164.09 157.40 163.47 157.41 162.70 L 157.43 161.71 C 157.44 160.94 156.82 160.31 156.05 160.29 C 155.28 160.28 154.65 160.90 154.63 161.67 Z M 154.62 162.68 L 154.62 163.69 C 154.62 164.46 155.24 165.08 156.01 165.08 C 156.78 165.08 157.41 164.46 157.41 163.69 L 157.41 162.68 C 157.41 161.91 156.79 161.29 156.02 161.29 C 155.24 161.29 154.62 161.91 154.62 162.68 Z M 154.62 163.69 L 154.62 164.70 C 154.62 165.47 155.25 166.09 156.01 166.09 C 156.78 166.09 157.41 165.47 157.41 164.70 L 157.41 163.69 C 157.41 162.92 156.78 162.30 156.01 162.30 C 155.25 162.30 154.62 162.92 154.62 163.69 Z M 154.63 164.70 L 154.63 165.70 C 154.63 166.47 155.25 167.09 156.01 167.09 C 156.78 167.09 157.40 166.47 157.40 165.71 L 157.40 164.70 C 157.40 163.93 156.78 163.31 156.01 163.31 C 155.25 163.31 154.63 163.93 154.63 164.70 Z M 154.64 165.69 L 154.63 166.68 C 154.62 167.44 155.23 168.06 155.99 168.06 C 156.75 168.07 157.37 167.46 157.38 166.70 L 157.39 165.72 C 157.40 164.96 156.79 164.34 156.03 164.33 C 155.27 164.32 154.64 164.93 154.64 165.69 Z M 154.64 166.64 L 154.60 167.61 C 154.57 168.37 155.16 169.00 155.91 169.03 C 156.67 169.06 157.30 168.48 157.33 167.72 L 157.37 166.74 C 157.40 165.99 156.81 165.35 156.06 165.32 C 155.30 165.30 154.67 165.88 154.64 166.64 Z M 154.62 167.50 L 154.50 168.51 C 154.41 169.25 154.94 169.92 155.68 170.01 C 156.42 170.11 157.10 169.58 157.19 168.84 L 157.31 167.83 C 157.40 167.09 156.87 166.42 156.13 166.32 C 155.39 166.23 154.71 166.76 154.62 167.50 Z M 154.53 168.39 L 154.32 169.37 C 154.17 170.10 154.63 170.81 155.36 170.96 C 156.09 171.12 156.80 170.65 156.95 169.93 L 157.16 168.95 C 157.31 168.22 156.85 167.51 156.12 167.35 C 155.39 167.20 154.68 167.67 154.53 168.39 Z M 154.34 169.33 L 154.19 169.93 C 154.02 170.65 154.46 171.37 155.18 171.54 C 155.89 171.72 156.62 171.28 156.79 170.56 L 156.94 169.96 C 157.11 169.24 156.67 168.52 155.95 168.35 C 155.23 168.17 154.51 168.61 154.34 169.33 Z"
      fill="black"
      fill-rule="nonzero" /><path d="M 146.27 173.54 L 147.07 174.13 C 147.69 174.58 148.56 174.45 149.02 173.84 C 149.47 173.22 149.34 172.35 148.73 171.89 L 147.93 171.30 C 147.31 170.85 146.44 170.98 145.98 171.59 C 145.53 172.21 145.66 173.08 146.27 173.54 Z M 147.28 174.30 L 148.18 174.73 C 148.89 175.07 149.74 174.77 150.09 174.06 C 150.43 173.35 150.13 172.50 149.42 172.16 L 148.52 171.73 C 147.81 171.38 146.95 171.68 146.61 172.39 C 146.27 173.10 146.57 173.95 147.28 174.30 Z M 148.56 174.87 L 149.48 175.02 C 150.26 175.15 151.01 174.62 151.14 173.84 C 151.27 173.05 150.74 172.30 149.95 172.17 L 149.04 172.02 C 148.25 171.89 147.51 172.42 147.37 173.20 C 147.24 173.99 147.77 174.74 148.56 174.87 Z M 149.72 175.04 L 150.75 175.04 C 151.55 175.04 152.19 174.39 152.19 173.59 C 152.19 172.79 151.54 172.15 150.74 172.15 L 149.71 172.15 C 148.91 172.15 148.27 172.80 148.27 173.60 C 148.27 174.40 148.92 175.05 149.72 175.04 Z M 150.85 175.04 L 151.91 174.96 C 152.71 174.90 153.31 174.21 153.25 173.41 C 153.19 172.61 152.49 172.01 151.70 172.07 L 150.64 172.15 C 149.84 172.21 149.24 172.90 149.30 173.70 C 149.36 174.50 150.05 175.10 150.85 175.04 Z M 151.95 174.96 L 152.98 174.85 C 153.77 174.78 154.35 174.07 154.27 173.27 C 154.20 172.48 153.49 171.90 152.69 171.97 L 151.66 172.08 C 150.87 172.15 150.29 172.86 150.36 173.66 C 150.44 174.45 151.15 175.03 151.95 174.96 Z M 152.99 174.85 L 153.92 174.75 C 154.72 174.67 155.29 173.96 155.21 173.16 C 155.13 172.37 154.41 171.79 153.62 171.88 L 152.68 171.97 C 151.89 172.06 151.31 172.77 151.39 173.57 C 151.48 174.36 152.19 174.94 152.99 174.85 Z M 153.91 174.76 L 154.98 174.65 C 155.78 174.57 156.36 173.87 156.28 173.07 C 156.20 172.27 155.50 171.69 154.70 171.77 L 153.63 171.87 C 152.83 171.95 152.25 172.66 152.33 173.46 C 152.41 174.25 153.12 174.83 153.91 174.76 Z M 154.96 174.65 L 155.88 174.57 C 156.68 174.51 157.27 173.80 157.20 173.01 C 157.13 172.21 156.43 171.62 155.64 171.69 L 154.72 171.77 C 153.92 171.84 153.33 172.54 153.40 173.33 C 153.47 174.13 154.17 174.72 154.96 174.65 Z M 155.87 174.57 L 156.87 174.50 C 157.66 174.44 158.26 173.74 158.20 172.95 C 158.14 172.15 157.44 171.55 156.65 171.62 L 155.65 171.69 C 154.86 171.75 154.26 172.45 154.32 173.24 C 154.38 174.04 155.08 174.63 155.87 174.57 Z M 156.84 174.49 L 157.84 174.43 C 158.63 174.39 159.24 173.70 159.19 172.91 C 159.14 172.11 158.46 171.51 157.66 171.56 L 156.67 171.62 C 155.88 171.67 155.27 172.35 155.32 173.14 C 155.37 173.94 156.05 174.54 156.84 174.49 Z M 157.81 174.43 L 158.82 174.38 C 159.61 174.35 160.23 173.68 160.19 172.88 C 160.15 172.09 159.48 171.48 158.69 171.52 L 157.68 171.56 C 156.89 171.60 156.28 172.27 156.31 173.06 C 156.35 173.85 157.02 174.47 157.81 174.43 Z M 158.81 174.38 L 159.67 174.35 C 160.46 174.32 161.08 173.66 161.05 172.87 C 161.02 172.08 160.36 171.46 159.57 171.49 L 158.70 171.52 C 157.91 171.55 157.30 172.21 157.32 173.00 C 157.35 173.79 158.02 174.41 158.81 174.38 Z M 159.65 174.35 L 160.75 174.32 C 161.53 174.31 162.16 173.65 162.14 172.87 C 162.13 172.08 161.48 171.45 160.69 171.47 L 159.59 171.49 C 158.80 171.51 158.18 172.16 158.19 172.95 C 158.21 173.74 158.86 174.36 159.65 174.35 Z M 160.72 174.32 L 161.70 174.32 C 162.49 174.31 163.12 173.67 163.12 172.88 C 163.12 172.09 162.47 171.46 161.69 171.46 L 160.71 171.47 C 159.92 171.47 159.29 172.12 159.29 172.90 C 159.30 173.69 159.94 174.33 160.72 174.32 Z M 161.67 174.31 L 162.70 174.33 C 163.49 174.34 164.13 173.72 164.15 172.93 C 164.16 172.14 163.53 171.50 162.75 171.48 L 161.72 171.47 C 160.93 171.45 160.28 172.08 160.27 172.87 C 160.26 173.65 160.88 174.30 161.67 174.31 Z M 162.64 174.33 L 163.68 174.38 C 164.46 174.43 165.13 173.83 165.18 173.04 C 165.22 172.26 164.62 171.59 163.84 171.55 L 162.80 171.49 C 162.02 171.44 161.35 172.04 161.30 172.83 C 161.26 173.61 161.86 174.28 162.64 174.33 Z M 163.58 174.37 L 164.63 174.51 C 165.41 174.61 166.12 174.06 166.22 173.28 C 166.32 172.51 165.77 171.79 164.99 171.69 L 163.94 171.56 C 163.16 171.46 162.45 172.01 162.35 172.78 C 162.25 173.56 162.80 174.27 163.58 174.37 Z M 164.50 174.48 L 165.48 174.70 C 166.25 174.87 167.00 174.39 167.17 173.63 C 167.34 172.87 166.86 172.11 166.10 171.94 L 165.12 171.72 C 164.36 171.55 163.60 172.03 163.43 172.79 C 163.26 173.55 163.74 174.31 164.50 174.48 Z M 165.40 174.67 L 166.30 174.93 C 167.04 175.15 167.82 174.72 168.04 173.97 C 168.26 173.23 167.83 172.45 167.08 172.23 L 166.19 171.97 C 165.44 171.75 164.66 172.18 164.44 172.93 C 164.23 173.67 164.65 174.46 165.40 174.67 Z M 166.28 174.92 L 166.37 174.95 C 167.11 175.18 167.90 174.76 168.12 174.02 C 168.35 173.28 167.93 172.49 167.19 172.27 L 167.10 172.24 C 166.36 172.01 165.57 172.43 165.35 173.17 C 165.12 173.91 165.54 174.70 166.28 174.92 Z"
      fill="black"
      fill-rule="nonzero" /></svg>