<svg xmlns="http://www.w3.org/2000/svg" width="300" height="300" viewBox="0 0 300 300">
<path d="M 125.5 114.5 L 125.5 114.5 L 125.0 115.0 L 125.0 115.5 L 125.5 115.5 L 128.5 115.5 L 136.0 115.0 L 145.5 112.5 L 149.0 111.5 L 159.0 108.5 L 162.0 107.5 L 169.0 105.0 L 170.0 104.5 " stroke="black" fill="none" stroke-width="2.0" stroke-linecap="round" stroke-linejoin="round" />
<path d="M 146.5 105.0 L 145.5 104.5 L 145.5 104.0 L 145.0 104.0 L 145.5 106.0 L 146.0 109.5 L 146.5 110.5 L 147.0 114.0 L 147.0 115.5 L 147.5 118.0 " stroke="black" fill="none" stroke-width="2.0" stroke-linecap="round" stroke-linejoin="round" />
<path d="M 154.0 103.0 L 155.5 101.0 L 156.0 101.5 L 156.5 103.0 L 156.5 103.5 L 156.5 107.0 L 156.5 108.5 L 156.0 113.5 L 155.5 115.0 L 154.0 120.0 " stroke="black" fill="none" stroke-width="2.0" stroke-linecap="round" stroke-linejoin="round" />
<path d="M 144.5 129.0 L 144.5 128.5 L 144.5 128.0 L 144.5 128.0 L 144.5 127.5 L 145.0 127.5 L 146.0 128.0 L 146.5 132.0 L 147.0 137.0 L 147.0 141.5 L 147.0 143.0 L 147.0 142.0 L 147.5 141.0 L 148.0 136.0 L 149.5 130.0 L 151.5 126.5 L 154.0 125.5 L 156.5 126.5 L 158.0 130.0 L 158.5 134.5 L 158.5 137.5 L 158.5 138.5 L 157.5 140.5 L 157.5 141.0 L 156.0 141.5 L 155.5 141.0 " stroke="black" fill="none" stroke-width="2.0" stroke-linecap="round" stroke-linejoin="round" />
<path d="M 148.5 134.5 L 148.0 135.0 L 148.0 135.0 L 147.5 135.5 L 147.5 135.5 L 147.5 135.5 L 149.5 135.0 L 152.0 134.5 L 154.0 134.0 " stroke="black" fill="none" stroke-width="2.0" stroke-linecap="round" stroke-linejoin="round" />
<path d="M 147.5 142.0 L 146.5 143.0 L 146.5 143.5 L 146.5 143.5 L 147.0 143.5 L 147.5 143.5 L 150.5 142.5 L 154.0 141.5 L 156.5 140.5 L 158.0 140.5 " stroke="black" fill="none" stroke-width="2.0" stroke-linecap="round" stroke-linejoin="round" />
<path d="M 132.0 152.0 L 132.0 152.0 L 132.0 152.5 L 132.5 152.5 L 133.0 152.5 L 133.0 152.5 L 135.5 152.5 L 139.5 152.0 L 141.5 151.5 L 150.0 149.0 L 157.0 146.5 L 160.0 145.5 " stroke="black" fill="none" stroke-width="2.0" stroke-linecap="round" stroke-linejoin="round" />
<path d="M 151.5 143.5 L 151.5 142.0 L 151.5 142.0 L 151.5 142.0 L 151.0 142.0 L 150.0 143.5 L 148.0 148.0 L 144.5 155.0 L 140.0 162.0 L 138.5 164.0 L 132.5 170.5 L 131.0 172.0 L 126.5 176.0 L 125.0 177.0 L 121.5 178.5 L 121.0 177.5 " stroke="black" fill="none" stroke-width="2.0" stroke-linecap="round" stroke-linejoin="round" />
<path d="M 149.0 154.5 L 149.5 155.5 L 150.5 156.0 L 153.0 156.5 L 157.0 157.0 L 162.0 158.5 L 166.0 160.5 L 167.0 161.0 " stroke="black" fill="none" stroke-width="2.0" stroke-linecap="round" stroke-linejoin="round" />
<path d="M 151.0 170.0 L 151.0 170.0 L 151.0 170.0 L 151.0 170.0 L 151.0 170.0 L 151.0 170.0 " stroke="black" fill="none" stroke-width="2.0" stroke-linecap="round" stroke-linejoin="round" />
<path d="M 150.5 167.5 L 151.0 166.0 L 151.5 165.5 L 151.5 165.5 L 152.0 166.0 L 152.0 166.5 L 152.5 169.0 L 152.5 170.0 L 153.0 175.5 L 153.0 180.5 L 152.5 183.5 L 151.5 184.5 L 151.0 183.5 " stroke="black" fill="none" stroke-width="2.0" stroke-linecap="round" stroke-linejoin="round" />
<path d="M 149.5 174.0 L 150.0 173.0 L 150.0 172.5 L 150.0 172.5 L 150.0 172.5 L 149.5 172.5 L 148.0 173.5 L 146.5 176.0 L 144.0 178.5 L 142.5 180.0 L 142.0 180.5 " stroke="black" fill="none" stroke-width="2.0" stroke-linecap="round" stroke-linejoin="round" />
<path d="M 160.0 172.0 L 162.5 174.0 L 163.5 175.0 L 164.5 176.0 L 165.0 177.0 L 165.0 177.0 " stroke="black" fill="none" stroke-width="2.0" stroke-linecap="round" stroke-linejoin="round" />
<path d="M 169.0 170.0 L 170.0 170.0 L 170.5 170.5 L 172.5 173.0 L 174.0 176.5 L 175.0 178.0 L 176.5 181.0 " stroke="black" fill="none" stroke-width="2.0" stroke-linecap="round" stroke-linejoin="round" />
</svg>