<svg xmlns="http://www.w3.org/2000/svg" width="300" height="300" viewBox="0 0 300 300">
<path d="M 156.5 116.5 L 157.0 117.0 L 157.0 117.0 L 157.0 117.5 L 157.0 117.5 L 156.5 117.5 L 155.5 118.0 L 155.0 118.5 L 152.5 120.0 L 149.0 122.5 L 144.0 125.5 L 138.5 128.0 L 135.0 129.5 L 134.0 130.5 L 134.5 130.5 L 135.0 130.5 L 136.5 130.5 L 137.0 130.5 L 139.5 130.5 L 140.5 130.5 L 141.5 131.5 L 141.5 134.0 L 141.5 137.5 L 141.5 143.5 L 141.0 151.5 L 139.0 162.0 L 137.5 168.5 L 137.0 170.5 L 135.0 175.5 L 134.5 176.5 L 132.0 179.0 L 130.0 180.0 L 129.0 180.0 L 129.0 178.0 L 129.0 176.5 " stroke="black" fill="none" stroke-width="2.0" stroke-linecap="round" stroke-linejoin="round" />
<path d="M 147.5 131.0 L 146.0 131.0 L 145.5 131.5 L 145.5 131.5 L 147.0 131.5 L 151.5 130.5 L 158.0 130.0 L 162.5 130.0 L 163.5 130.0 L 167.0 130.5 L 167.5 131.0 L 168.0 132.5 L 168.0 133.5 L 167.5 136.5 L 166.0 138.0 L 166.0 138.5 " stroke="black" fill="none" stroke-width="2.0" stroke-linecap="round" stroke-linejoin="round" />
<path d="M 144.5 141.5 L 144.0 142.0 L 145.0 142.0 L 149.0 142.0 L 156.0 141.5 L 161.0 141.0 L 162.0 141.0 L 165.5 140.5 L 166.0 140.5 " stroke="black" fill="none" stroke-width="2.0" stroke-linecap="round" stroke-linejoin="round" />
<path d="M 147.0 151.0 L 146.0 151.5 L 145.5 152.0 L 146.0 152.0 L 148.0 151.0 L 151.5 151.0 L 154.5 152.0 L 156.5 154.0 L 157.0 155.0 L 158.0 159.0 L 158.0 161.0 L 158.0 167.0 L 158.0 168.5 L 157.0 174.5 L 157.0 176.5 L 156.5 176.0 L 156.0 175.0 " stroke="black" fill="none" stroke-width="2.0" stroke-linecap="round" stroke-linejoin="round" />
<path d="M 145.5 158.5 L 144.5 158.5 L 144.5 159.0 L 146.5 159.0 L 150.0 159.0 L 153.0 159.0 " stroke="black" fill="none" stroke-width="2.0" stroke-linecap="round" stroke-linejoin="round" />
<path d="M 145.5 170.0 L 144.0 170.5 L 144.0 171.0 L 146.0 170.0 L 148.5 168.5 L 149.5 168.0 L 153.0 166.5 " stroke="black" fill="none" stroke-width="2.0" stroke-linecap="round" stroke-linejoin="round" />
<path d="M 166.0 149.5 L 166.0 149.5 L 166.0 149.0 L 166.0 149.0 L 166.5 148.5 L 167.0 148.5 L 169.5 148.0 L 170.5 148.0 L 174.5 149.0 L 177.0 153.0 L 177.5 158.5 L 177.0 166.0 L 176.0 172.5 L 176.0 176.0 L 175.5 176.5 L 175.5 176.5 L 175.0 176.5 " stroke="black" fill="none" stroke-width="2.0" stroke-linecap="round" stroke-linejoin="round" />
<path d="M 165.5 159.0 L 165.0 159.0 L 165.0 159.0 L 164.5 159.0 L 164.5 159.0 L 165.0 159.0 L 165.5 159.0 L 168.5 158.5 L 170.5 158.0 " stroke="black" fill="none" stroke-width="2.0" stroke-linecap="round" stroke-linejoin="round" />
<path d="M 165.0 170.5 L 164.5 171.0 L 164.5 171.5 L 165.5 171.5 L 169.0 169.5 L 173.5 167.0 L 174.5 166.5 " stroke="black" fill="none" stroke-width="2.0" stroke-linecap="round" stroke-linejoin="round" />
</svg>