<svg xmlns="http://www.w3.org/2000/svg" width="300" height="300" viewBox="0 0 300 300">
<path d="M 125.5 137.0 L 125.5 137.0 L 125.5 137.5 L 125.5 137.5 L 125.5 137.5 L 125.5 137.5 L 126.5 138.0 L 131.5 138.0 L 138.0 137.5 L 143.5 137.0 L 146.5 137.0 " stroke="black" fill="none" stroke-width="2.0" stroke-linecap="round" stroke-linejoin="round" />
<path d="M 140.5 131.0 L 140.0 131.0 L 139.5 130.5 L 139.5 130.5 L 139.5 131.5 L 139.5 136.0 L 140.5 146.0 L 140.5 155.5 L 140.5 158.5 L 140.5 167.0 L 140.5 171.0 L 140.5 171.5 L 139.5 170.5 L 137.5 167.5 " stroke="black" fill="none" stroke-width="2.0" stroke-linecap="round" stroke-linejoin="round" />
<path d="M 125.0 156.5 L 125.0 156.5 L 125.0 156.5 L 127.5 156.5 L 131.5 156.0 L 133.0 156.0 L 139.0 155.5 L 140.5 155.0 L 144.5 154.5 L 145.5 154.0 L 147.0 154.0 " stroke="black" fill="none" stroke-width="2.0" stroke-linecap="round" stroke-linejoin="round" />
<path d="M 165.0 116.5 L 165.0 116.5 L 165.0 116.0 L 165.0 116.0 L 165.0 116.0 L 165.0 116.0 L 165.0 116.5 L 165.0 118.5 L 165.0 119.5 L 165.0 123.5 L 165.0 127.0 L 165.5 128.0 " stroke="black" fill="none" stroke-width="2.0" stroke-linecap="round" stroke-linejoin="round" />
<path d="M 172.0 115.5 L 172.0 116.0 L 172.0 116.5 L 172.0 117.0 L 172.0 119.0 L 172.0 122.0 L 172.0 125.5 L 171.5 127.5 " stroke="black" fill="none" stroke-width="2.0" stroke-linecap="round" stroke-linejoin="round" />
<path d="M 152.5 121.5 L 151.5 121.5 L 151.5 122.0 L 153.5 122.5 L 156.5 123.0 L 157.5 123.5 L 158.5 124.0 " stroke="black" fill="none" stroke-width="2.0" stroke-linecap="round" stroke-linejoin="round" />
<path d="M 182.5 120.5 L 183.0 120.5 L 183.5 120.5 L 184.0 120.0 L 184.5 120.0 L 184.5 120.0 L 184.0 120.0 L 182.5 121.5 L 181.5 122.5 L 178.0 125.0 L 173.0 128.0 L 171.5 128.5 " stroke="black" fill="none" stroke-width="2.0" stroke-linecap="round" stroke-linejoin="round" />
<path d="M 154.0 133.0 L 153.5 133.0 L 153.0 133.0 L 153.0 133.0 L 154.5 133.0 L 159.5 133.0 L 166.5 132.5 L 173.5 132.5 L 178.5 132.5 L 180.0 132.5 L 180.0 132.5 L 180.0 132.5 " stroke="black" fill="none" stroke-width="2.0" stroke-linecap="round" stroke-linejoin="round" />
<path d="M 165.5 132.0 L 165.0 132.0 L 165.0 132.0 L 165.0 132.0 L 165.0 132.0 L 165.0 132.0 L 165.0 133.5 L 165.0 137.0 L 165.5 141.5 L 165.5 142.5 " stroke="black" fill="none" stroke-width="2.0" stroke-linecap="round" stroke-linejoin="round" />
<path d="M 172.5 133.5 L 172.5 133.5 L 172.5 134.0 L 172.5 134.0 L 172.5 135.0 L 172.5 137.0 L 172.0 139.5 L 172.0 140.0 " stroke="black" fill="none" stroke-width="2.0" stroke-linecap="round" stroke-linejoin="round" />
<path d="M 156.0 143.5 L 156.0 143.5 L 156.0 144.0 L 157.0 144.0 L 161.0 143.5 L 167.0 143.0 L 173.0 142.5 L 176.0 142.0 L 177.0 142.0 L 177.5 142.0 " stroke="black" fill="none" stroke-width="2.0" stroke-linecap="round" stroke-linejoin="round" />
<path d="M 156.0 152.0 L 156.0 152.0 L 156.0 152.0 L 156.0 152.0 L 157.0 152.0 L 157.5 152.0 L 162.0 152.0 L 168.0 151.5 L 173.5 151.0 L 177.5 151.0 " stroke="black" fill="none" stroke-width="2.0" stroke-linecap="round" stroke-linejoin="round" />
<path d="M 152.5 161.0 L 151.5 161.5 L 152.5 161.5 L 157.0 161.0 L 163.5 161.0 L 167.5 161.0 L 169.0 160.5 L 172.5 160.5 L 173.0 160.0 L 175.0 159.5 " stroke="black" fill="none" stroke-width="2.0" stroke-linecap="round" stroke-linejoin="round" />
<path d="M 168.0 144.5 L 167.5 144.0 L 167.0 144.0 L 166.5 144.0 L 166.5 147.0 L 165.5 153.5 L 163.5 163.0 L 161.5 171.5 L 160.5 176.0 L 160.5 177.0 L 160.5 177.0 L 160.5 176.0 L 160.5 175.5 " stroke="black" fill="none" stroke-width="2.0" stroke-linecap="round" stroke-linejoin="round" />
<path d="M 166.0 162.5 L 166.0 162.5 L 166.0 162.5 L 166.0 162.5 L 166.5 162.5 L 166.5 162.5 L 167.0 163.5 L 167.5 164.0 L 171.0 168.0 L 176.5 173.5 L 181.5 179.0 L 183.5 181.5 L 183.5 181.5 L 182.0 181.0 L 181.0 180.0 " stroke="black" fill="none" stroke-width="2.0" stroke-linecap="round" stroke-linejoin="round" />
</svg>