<svg xmlns="http://www.w3.org/2000/svg" width="300" height="300" viewBox="0 0 300 300">
<path d="M 124.0 126.0 L 123.5 126.0 L 123.5 126.0 L 123.5 126.0 L 123.0 126.0 L 123.0 127.5 L 123.5 132.0 L 124.0 139.0 L 124.0 142.0 L 124.5 151.0 L 124.5 154.5 L 124.5 164.0 L 124.5 171.0 L 124.5 174.5 L 124.5 175.5 L 124.5 175.5 L 124.5 175.5 L 125.0 175.5 L 126.0 175.5 L 127.5 175.5 L 128.0 175.5 L 130.5 175.5 L 131.5 175.5 L 136.0 176.0 L 140.5 176.0 L 143.5 174.5 L 145.5 173.5 L 146.0 173.5 " stroke="black" fill="none" stroke-width="2.0" stroke-linecap="round" stroke-linejoin="round" />
<path d="M 133.0 122.0 L 133.0 122.0 L 133.0 122.0 L 133.5 122.0 L 133.5 122.0 L 133.0 124.0 L 132.0 127.0 L 131.5 128.0 L 129.5 131.5 L 129.0 132.5 L 127.5 134.5 L 127.5 135.0 L 127.0 135.5 L 128.0 135.0 L 131.0 133.5 L 133.0 132.5 L 134.5 132.0 L 134.5 132.0 L 134.5 132.0 L 134.5 133.5 L 134.0 134.0 L 133.0 136.5 L 132.5 137.5 L 130.5 140.5 L 129.5 143.0 L 129.0 143.5 L 129.5 143.0 L 132.0 141.5 L 135.0 139.0 L 137.0 138.0 " stroke="black" fill="none" stroke-width="2.0" stroke-linecap="round" stroke-linejoin="round" />
<path d="M 144.5 124.5 L 144.5 124.0 L 144.5 123.5 L 144.5 123.0 L 144.5 123.0 L 144.5 123.0 L 144.5 123.0 L 144.5 123.0 L 144.5 123.0 L 144.5 125.0 L 144.0 128.5 L 142.5 132.0 L 142.0 134.5 L 142.0 135.0 L 142.0 135.5 L 142.5 135.5 L 143.5 134.0 L 144.0 133.5 L 145.5 132.5 L 145.5 132.5 L 146.5 132.0 L 146.5 133.0 L 145.5 136.0 L 145.0 139.0 L 144.5 140.5 L 145.0 141.5 L 146.0 141.5 L 146.5 141.5 L 148.0 140.5 L 148.5 140.0 L 149.5 139.0 L 149.5 138.5 L 150.0 138.5 " stroke="black" fill="none" stroke-width="2.0" stroke-linecap="round" stroke-linejoin="round" />
<path d="M 126.5 149.0 L 126.5 149.0 L 126.0 149.0 L 125.5 149.0 L 125.5 149.5 L 126.0 149.5 L 126.5 149.5 L 130.0 149.5 L 136.0 149.0 L 142.5 148.5 L 147.5 147.5 L 149.5 147.0 L 149.0 147.0 " stroke="black" fill="none" stroke-width="2.0" stroke-linecap="round" stroke-linejoin="round" />
<path d="M 130.5 153.5 L 130.5 153.0 L 131.0 152.5 L 131.0 152.5 L 131.5 152.5 L 131.5 152.5 L 131.5 152.5 L 131.0 155.0 L 129.0 159.0 L 127.0 162.5 L 126.5 164.0 L 126.5 164.5 L 129.0 162.5 L 131.5 161.0 L 132.0 160.5 L 133.5 160.0 L 133.5 160.0 L 134.0 160.0 L 134.0 160.0 L 133.5 161.5 L 132.5 165.0 L 131.5 168.0 L 130.5 169.5 L 130.5 169.5 L 132.0 169.5 L 134.0 168.0 L 135.0 167.5 L 137.0 166.0 " stroke="black" fill="none" stroke-width="2.0" stroke-linecap="round" stroke-linejoin="round" />
<path d="M 145.0 152.5 L 145.0 152.5 L 144.5 152.5 L 144.5 152.5 L 144.5 152.5 L 144.5 153.0 L 144.0 154.5 L 143.0 156.5 L 141.0 160.0 L 140.0 162.0 L 139.5 163.0 L 140.0 163.0 L 141.0 163.0 L 142.5 161.5 L 143.5 161.5 L 145.0 160.5 L 145.0 160.0 L 146.0 160.0 L 146.0 161.5 L 145.0 164.5 L 144.0 168.0 L 144.0 169.5 L 144.0 170.5 L 145.5 170.0 L 146.0 169.5 L 148.5 167.5 " stroke="black" fill="none" stroke-width="2.0" stroke-linecap="round" stroke-linejoin="round" />
<path d="M 166.0 133.0 L 166.0 133.0 L 166.0 133.0 L 166.0 133.0 L 165.5 133.0 L 165.5 133.0 L 165.5 133.0 L 165.5 133.0 L 165.0 133.5 L 162.0 135.5 L 156.5 139.0 L 152.0 142.5 L 151.0 144.0 L 151.5 144.5 L 153.0 145.0 L 154.0 145.5 L 155.5 146.5 L 156.0 147.0 L 156.5 149.5 L 157.0 150.5 L 157.0 155.0 L 157.0 159.5 L 156.5 163.5 L 156.5 165.0 L 156.0 165.0 L 156.0 164.5 L 156.0 163.5 L 156.5 162.0 " stroke="black" fill="none" stroke-width="2.0" stroke-linecap="round" stroke-linejoin="round" />
<path d="M 158.5 148.0 L 158.5 148.0 L 160.5 148.0 L 165.5 147.0 L 170.5 145.5 L 172.0 145.0 L 176.0 144.0 L 176.5 144.0 " stroke="black" fill="none" stroke-width="2.0" stroke-linecap="round" stroke-linejoin="round" />
<path d="M 168.0 146.0 L 168.0 146.0 L 167.5 146.0 L 167.5 146.0 L 167.5 146.5 L 167.5 147.5 L 167.5 148.5 L 167.5 154.5 L 167.5 164.0 L 168.0 176.0 L 168.5 186.0 L 169.0 189.5 L 169.0 189.5 L 169.0 189.0 L 169.0 187.0 L 169.0 185.0 " stroke="black" fill="none" stroke-width="2.0" stroke-linecap="round" stroke-linejoin="round" />
</svg>