<svg xmlns="http://www.w3.org/2000/svg" width="300" height="300" viewBox="0 0 300 300">
<path d="M 145.0 106.0 L 142.5 105.5 L 142.0 105.5 L 141.5 105.5 L 142.0 105.5 L 142.5 105.5 L 144.5 106.5 L 145.5 106.5 L 148.0 108.0 L 149.0 108.5 L 150.5 109.0 " stroke="black" fill="none" stroke-width="2.0" stroke-linecap="round" stroke-linejoin="round" />
<path d="M 122.5 122.0 L 121.0 122.5 L 121.0 122.5 L 120.5 122.5 L 123.5 122.5 L 130.0 122.5 L 140.0 122.0 L 151.5 119.0 L 160.0 116.0 L 164.5 114.0 L 165.5 113.5 " stroke="black" fill="none" stroke-width="2.0" stroke-linecap="round" stroke-linejoin="round" />
<path d="M 145.0 144.0 L 144.0 145.0 L 144.0 145.0 L 145.0 145.0 L 148.5 143.0 L 153.5 141.0 L 158.0 140.0 L 161.5 143.0 L 162.0 148.5 L 162.0 151.0 L 161.0 161.5 L 159.0 171.0 L 158.0 176.5 L 157.0 177.5 L 155.0 177.0 L 153.5 175.0 " stroke="black" fill="none" stroke-width="2.0" stroke-linecap="round" stroke-linejoin="round" />
<path d="M 145.0 126.5 L 145.0 126.5 L 145.0 126.5 L 145.0 126.5 L 144.5 130.0 L 144.0 132.0 L 142.0 142.5 L 141.0 147.0 L 135.5 162.0 L 131.5 169.0 L 130.5 170.5 L 127.0 174.5 L 125.5 176.0 L 125.5 176.0 L 126.0 174.5 " stroke="black" fill="none" stroke-width="2.0" stroke-linecap="round" stroke-linejoin="round" />
</svg>