<svg xmlns="http://www.w3.org/2000/svg" width="300" height="300" viewBox="0 0 300 300">
<path d="M 129.0 117.5 L 129.0 117.5 L 128.5 117.5 L 128.5 117.5 L 128.5 117.5 L 129.0 117.5 L 134.0 116.5 L 143.5 113.5 L 152.5 110.0 L 157.0 108.5 L 157.5 108.0 " stroke="black" fill="none" stroke-width="2.0" stroke-linecap="round" stroke-linejoin="round" />
<path d="M 147.0 102.5 L 147.0 102.5 L 147.0 102.5 L 147.0 105.0 L 148.5 110.0 L 149.0 112.5 L 149.5 122.0 L 150.0 125.5 L 150.0 133.5 L 150.0 135.5 L 149.5 140.0 L 149.5 141.0 L 149.0 141.5 L 148.5 141.0 " stroke="black" fill="none" stroke-width="2.0" stroke-linecap="round" stroke-linejoin="round" />
<path d="M 149.0 118.0 L 149.0 118.0 L 149.0 118.0 L 149.0 118.0 L 148.0 119.0 L 146.5 122.0 L 143.0 127.5 L 139.0 134.0 L 135.5 137.5 L 134.0 138.5 " stroke="black" fill="none" stroke-width="2.0" stroke-linecap="round" stroke-linejoin="round" />
<path d="M 149.5 124.0 L 151.0 124.5 L 153.5 124.5 L 157.5 124.5 L 160.5 124.0 L 161.5 123.5 L 162.0 123.5 " stroke="black" fill="none" stroke-width="2.0" stroke-linecap="round" stroke-linejoin="round" />
<path d="M 140.0 147.0 L 140.0 146.5 L 140.0 146.5 L 140.5 146.0 L 142.0 145.5 L 145.5 144.5 L 151.0 142.0 L 155.5 140.0 L 156.0 140.0 " stroke="black" fill="none" stroke-width="2.0" stroke-linecap="round" stroke-linejoin="round" />
<path d="M 136.5 155.0 L 133.0 157.0 L 131.5 158.0 L 131.5 158.0 L 132.0 158.0 L 135.5 157.0 L 142.0 155.5 L 146.5 153.5 L 148.0 153.0 L 153.0 151.0 L 154.0 150.5 L 158.0 149.0 L 159.0 148.5 L 158.5 148.5 " stroke="black" fill="none" stroke-width="2.0" stroke-linecap="round" stroke-linejoin="round" />
<path d="M 151.5 151.5 L 151.0 152.5 L 151.0 152.5 L 150.5 152.5 L 150.5 153.0 L 150.5 153.0 L 150.5 153.0 L 151.0 155.0 L 152.0 159.0 L 152.5 166.0 L 152.5 173.5 L 152.5 178.0 L 152.0 179.0 L 152.0 179.0 L 151.5 178.5 L 151.5 178.0 L 150.5 176.5 L 150.5 176.0 L 149.0 172.5 L 148.5 170.0 L 148.5 169.0 L 148.0 168.5 L 146.5 168.5 L 144.5 169.5 L 142.0 171.5 L 141.0 172.0 L 137.5 174.5 L 136.5 175.5 L 133.0 178.5 L 132.0 179.5 L 129.0 181.0 L 129.0 181.0 L 130.0 180.0 " stroke="black" fill="none" stroke-width="2.0" stroke-linecap="round" stroke-linejoin="round" />
<path d="M 158.0 168.5 L 161.5 170.0 L 162.0 170.5 L 166.0 172.5 L 170.0 175.0 L 173.5 178.0 L 175.5 179.0 L 175.5 179.5 " stroke="black" fill="none" stroke-width="2.0" stroke-linecap="round" stroke-linejoin="round" />
</svg>