<svg xmlns="http://www.w3.org/2000/svg" width="300" height="300" viewBox="0 0 300 300">
<path d="M 125.5 137.0 L 125.5 137.5 L 125.5 138.0 L 128.5 138.0 L 134.0 137.5 L 141.5 136.0 L 147.0 134.5 L 147.5 134.0 " stroke="black" fill="none" stroke-width="2.0" stroke-linecap="round" stroke-linejoin="round" />
<path d="M 139.0 129.0 L 138.5 128.5 L 138.0 128.0 L 138.0 128.0 L 138.0 131.0 L 138.5 136.0 L 139.0 138.0 L 139.0 147.0 L 139.0 150.5 L 139.0 163.0 L 138.0 171.5 L 137.5 175.0 L 137.5 175.5 L 137.5 174.5 " stroke="black" fill="none" stroke-width="2.0" stroke-linecap="round" stroke-linejoin="round" />
<path d="M 138.0 143.0 L 138.0 142.5 L 137.5 142.0 L 137.0 142.0 L 135.5 144.0 L 133.5 148.5 L 131.5 154.0 L 130.5 156.0 L 128.0 162.0 L 127.0 164.0 L 125.5 168.5 L 125.5 168.5 " stroke="black" fill="none" stroke-width="2.0" stroke-linecap="round" stroke-linejoin="round" />
<path d="M 137.5 148.0 L 140.5 148.0 L 142.5 148.5 L 143.0 148.5 L 145.5 149.5 L 146.0 150.0 L 148.5 152.0 L 150.5 153.5 " stroke="black" fill="none" stroke-width="2.0" stroke-linecap="round" stroke-linejoin="round" />
<path d="M 152.5 130.5 L 152.5 129.5 L 153.0 128.5 L 155.5 128.0 L 160.0 128.0 L 163.5 128.5 L 164.5 129.0 L 167.0 131.0 L 167.5 132.0 L 168.0 137.5 L 168.0 145.0 L 167.5 150.5 L 167.0 151.5 L 167.0 151.5 " stroke="black" fill="none" stroke-width="2.0" stroke-linecap="round" stroke-linejoin="round" />
<path d="M 155.0 139.0 L 155.5 140.0 L 156.5 140.5 L 159.0 141.0 L 162.5 141.0 L 165.5 140.5 " stroke="black" fill="none" stroke-width="2.0" stroke-linecap="round" stroke-linejoin="round" />
<path d="M 158.5 150.0 L 158.5 152.0 L 160.5 152.0 L 164.0 151.5 L 167.5 149.5 L 169.0 148.5 " stroke="black" fill="none" stroke-width="2.0" stroke-linecap="round" stroke-linejoin="round" />
<path d="M 156.0 132.5 L 156.0 132.5 L 156.0 132.5 L 156.0 132.5 L 156.0 132.5 L 156.0 132.5 L 156.0 132.5 L 156.0 136.0 L 156.0 144.5 L 156.0 157.5 L 156.0 169.0 L 156.5 174.5 L 157.5 176.0 L 158.5 176.5 L 158.5 176.5 L 160.5 175.5 L 163.0 173.5 L 164.0 173.0 " stroke="black" fill="none" stroke-width="2.0" stroke-linecap="round" stroke-linejoin="round" />
<path d="M 176.5 159.0 L 177.5 159.0 L 177.5 159.0 L 177.5 159.0 L 177.0 159.0 L 175.0 159.0 L 172.5 160.0 L 169.0 161.5 L 166.0 163.5 L 165.5 165.0 L 166.0 166.5 L 168.0 167.5 L 169.0 168.5 L 172.0 170.0 L 173.0 170.5 L 176.5 172.5 L 178.5 174.0 L 179.0 175.0 L 179.0 175.0 " stroke="black" fill="none" stroke-width="2.0" stroke-linecap="round" stroke-linejoin="round" />
</svg>