<svg xmlns="http://www.w3.org/2000/svg" width="300" height="300" viewBox="0 0 300 300">
<path d="M 125.0 129.5 L 124.5 129.5 L 124.5 129.5 L 124.0 129.5 L 125.5 130.5 L 126.5 131.0 L 130.0 132.0 L 131.5 132.5 L 137.5 134.5 L 138.5 135.0 " stroke="black" fill="none" stroke-width="2.0" stroke-linecap="round" stroke-linejoin="round" />
<path d="M 126.5 146.0 L 125.5 146.5 L 125.0 146.5 L 125.0 146.5 L 125.0 146.5 L 127.5 146.5 L 132.0 145.5 L 136.0 145.0 L 138.5 145.0 " stroke="black" fill="none" stroke-width="2.0" stroke-linecap="round" stroke-linejoin="round" />
<path d="M 128.5 168.5 L 127.5 170.0 L 127.0 171.0 L 127.0 171.0 L 127.0 171.5 L 129.5 170.0 L 133.5 167.0 L 138.0 162.5 L 142.0 157.0 " stroke="black" fill="none" stroke-width="2.0" stroke-linecap="round" stroke-linejoin="round" />
<path d="M 163.0 119.5 L 163.0 119.0 L 163.0 118.5 L 162.5 118.0 L 162.5 118.0 L 162.5 118.0 L 162.5 118.0 L 162.5 120.0 L 163.0 121.0 L 163.5 125.0 L 163.5 126.5 L 164.0 131.5 L 164.0 133.5 L 164.0 141.5 L 164.0 145.0 " stroke="black" fill="none" stroke-width="2.0" stroke-linecap="round" stroke-linejoin="round" />
<path d="M 160.0 127.0 L 159.5 127.0 L 159.0 127.0 L 158.5 127.0 L 158.5 127.0 L 157.5 127.0 L 156.0 129.0 L 152.5 133.5 L 147.5 140.5 L 144.5 146.0 L 144.0 146.5 " stroke="black" fill="none" stroke-width="2.0" stroke-linecap="round" stroke-linejoin="round" />
<path d="M 167.0 134.0 L 167.5 134.0 L 168.5 134.0 L 169.0 133.5 L 171.5 133.5 L 174.0 133.5 L 175.0 134.0 L 179.5 134.5 L 182.0 135.0 L 183.5 135.0 " stroke="black" fill="none" stroke-width="2.0" stroke-linecap="round" stroke-linejoin="round" />
<path d="M 174.5 149.0 L 174.5 149.0 L 175.0 149.0 L 175.0 149.0 L 175.0 149.0 L 175.0 149.0 L 174.0 152.0 L 170.5 158.5 L 164.5 168.5 L 155.5 178.0 L 154.0 179.5 " stroke="black" fill="none" stroke-width="2.0" stroke-linecap="round" stroke-linejoin="round" />
</svg>