<svg xmlns="http://www.w3.org/2000/svg" width="300" height="300" viewBox="0 0 300 300">
<path d="M 112.0 123.0 L 112.0 123.5 L 111.5 123.5 L 111.5 124.0 L 113.0 124.5 L 117.0 125.5 L 120.5 126.5 L 121.5 127.0 L 123.0 127.5 " stroke="black" fill="none" stroke-width="2.0" stroke-linecap="round" stroke-linejoin="round" />
<path d="M 114.5 141.0 L 114.5 141.0 L 114.0 141.0 L 114.0 141.0 L 114.0 141.0 L 114.5 141.0 L 116.0 140.5 L 116.5 140.0 L 119.5 139.5 L 120.0 139.0 L 122.0 139.0 " stroke="black" fill="none" stroke-width="2.0" stroke-linecap="round" stroke-linejoin="round" />
<path d="M 116.0 159.0 L 115.5 160.0 L 115.0 160.5 L 115.0 160.5 L 116.5 160.0 L 119.5 157.0 L 123.0 154.0 L 127.0 151.0 " stroke="black" fill="none" stroke-width="2.0" stroke-linecap="round" stroke-linejoin="round" />
<path d="M 140.5 103.0 L 140.5 101.5 L 140.5 100.5 L 141.0 99.5 L 141.0 99.0 L 141.0 99.0 L 140.5 100.5 L 138.5 105.0 L 136.5 109.0 L 136.0 111.0 L 138.0 112.0 L 143.0 111.0 L 149.5 108.5 L 155.0 106.0 L 157.0 105.0 L 157.5 105.0 L 157.5 105.0 " stroke="black" fill="none" stroke-width="2.0" stroke-linecap="round" stroke-linejoin="round" />
<path d="M 141.0 124.5 L 141.0 124.5 L 141.0 124.5 L 141.0 124.5 L 141.5 125.0 L 141.5 126.0 L 141.5 131.0 L 141.5 133.5 L 141.0 142.0 L 140.5 144.5 L 140.5 151.0 L 142.0 152.5 L 145.5 152.5 L 150.5 151.5 L 155.0 149.5 L 158.5 147.5 " stroke="black" fill="none" stroke-width="2.0" stroke-linecap="round" stroke-linejoin="round" />
<path d="M 147.5 126.0 L 147.0 125.5 L 147.0 125.5 L 147.0 125.0 L 148.5 124.0 L 149.5 124.0 L 152.5 123.0 L 153.5 122.5 L 157.5 121.0 L 158.5 120.5 L 161.5 119.0 L 162.0 119.0 L 162.0 119.5 L 161.5 123.0 L 161.5 128.5 L 162.0 134.0 L 162.0 136.0 L 162.5 146.5 L 162.5 155.5 L 162.0 158.5 L 161.5 169.0 L 160.5 174.5 L 159.5 176.0 L 159.0 176.0 L 158.5 173.0 " stroke="black" fill="none" stroke-width="2.0" stroke-linecap="round" stroke-linejoin="round" />
<path d="M 149.0 130.0 L 148.5 130.0 L 148.5 130.0 L 148.5 130.0 L 148.5 130.0 L 148.5 130.0 L 148.5 130.0 L 148.5 130.0 L 150.0 131.5 L 151.5 134.0 " stroke="black" fill="none" stroke-width="2.0" stroke-linecap="round" stroke-linejoin="round" />
<path d="M 153.0 142.0 L 153.0 142.5 L 153.0 143.5 L 153.0 143.5 L 153.0 144.5 L 153.0 144.5 L 153.5 145.5 L 153.5 146.0 L 154.0 148.0 L 154.0 149.0 " stroke="black" fill="none" stroke-width="2.0" stroke-linecap="round" stroke-linejoin="round" />
<path d="M 132.0 147.5 L 131.0 148.0 L 131.5 148.5 L 135.0 147.0 L 142.0 144.5 L 151.5 140.5 L 162.0 137.0 L 170.0 134.5 L 172.5 134.0 L 173.0 134.0 L 174.0 134.0 L 174.0 134.0 L 174.0 134.0 L 173.5 134.0 " stroke="black" fill="none" stroke-width="2.0" stroke-linecap="round" stroke-linejoin="round" />
</svg>