<svg xmlns="http://www.w3.org/2000/svg" width="300" height="300" viewBox="0 0 300 300">
<path d="M 128.0 125.5 L 128.0 125.5 L 128.0 125.5 L 128.5 125.5 L 129.5 125.5 L 134.0 126.0 L 141.0 126.5 L 146.0 127.0 L 148.5 127.5 L 148.5 127.5 L 147.0 128.0 L 145.5 128.5 L 144.0 130.0 L 143.0 131.5 L 142.5 132.0 L 141.5 134.0 L 141.0 135.0 L 140.0 137.0 L 140.0 137.5 L 138.5 140.0 " stroke="black" fill="none" stroke-width="2.0" stroke-linecap="round" stroke-linejoin="round" />
<path d="M 133.5 134.0 L 133.5 134.0 L 133.5 134.0 L 133.5 134.0 L 134.5 135.5 L 137.0 138.0 L 139.5 141.5 L 140.5 143.5 " stroke="black" fill="none" stroke-width="2.0" stroke-linecap="round" stroke-linejoin="round" />
<path d="M 126.0 144.0 L 125.5 144.0 L 125.5 144.0 L 126.5 144.0 L 127.0 144.0 L 131.0 144.0 L 133.0 144.0 L 142.0 144.5 L 149.0 145.0 L 152.5 145.5 L 152.5 146.0 L 151.5 147.0 L 150.0 148.5 L 148.0 150.5 L 147.0 152.0 L 146.5 152.5 L 146.0 153.5 L 145.5 154.0 L 145.0 154.5 " stroke="black" fill="none" stroke-width="2.0" stroke-linecap="round" stroke-linejoin="round" />
<path d="M 139.5 145.0 L 139.5 144.5 L 139.5 144.5 L 139.5 144.5 L 139.5 144.0 L 139.5 144.0 L 139.5 145.5 L 139.5 150.0 L 139.5 157.0 L 139.5 165.5 L 139.0 171.5 L 138.5 174.0 L 138.5 174.5 L 138.5 174.5 L 138.5 174.0 L 138.5 173.5 L 138.5 172.0 " stroke="black" fill="none" stroke-width="2.0" stroke-linecap="round" stroke-linejoin="round" />
<path d="M 141.5 147.0 L 141.5 147.0 L 141.5 147.0 L 141.5 147.0 L 141.0 146.5 L 141.0 146.5 L 141.0 146.5 L 139.5 148.5 L 136.5 153.0 L 131.0 160.0 L 126.5 166.0 L 125.5 168.0 L 125.5 168.0 L 125.5 168.0 " stroke="black" fill="none" stroke-width="2.0" stroke-linecap="round" stroke-linejoin="round" />
<path d="M 165.0 121.0 L 165.0 121.0 L 165.0 121.0 L 164.5 121.5 L 164.5 122.5 L 164.0 123.5 L 163.0 126.0 L 162.5 127.5 L 159.0 134.0 L 154.5 141.0 L 152.0 145.0 L 151.5 145.5 " stroke="black" fill="none" stroke-width="2.0" stroke-linecap="round" stroke-linejoin="round" />
<path d="M 164.0 123.5 L 164.0 123.5 L 164.0 123.5 L 165.5 124.5 L 169.0 127.5 L 174.5 132.0 L 178.0 134.5 L 179.0 135.0 L 180.5 136.5 " stroke="black" fill="none" stroke-width="2.0" stroke-linecap="round" stroke-linejoin="round" />
<path d="M 160.5 142.5 L 160.0 142.5 L 160.0 142.5 L 160.0 142.5 L 160.5 142.5 L 164.0 142.5 L 168.5 142.5 L 174.0 142.5 L 175.5 142.5 " stroke="black" fill="none" stroke-width="2.0" stroke-linecap="round" stroke-linejoin="round" />
<path d="M 161.0 153.5 L 160.0 154.5 L 160.0 154.5 L 163.0 155.0 L 167.0 155.0 L 172.0 155.0 L 175.0 156.0 L 176.5 157.5 L 176.5 160.0 L 175.0 163.5 L 172.5 168.5 L 169.5 173.0 L 167.0 177.0 L 166.0 178.5 L 166.0 178.0 " stroke="black" fill="none" stroke-width="2.0" stroke-linecap="round" stroke-linejoin="round" />
</svg>