<svg xmlns="http://www.w3.org/2000/svg" width="300" height="300" viewBox="0 0 300 300">
<path d="M 125.5 137.0 L 125.0 137.5 L 125.0 137.5 L 125.5 138.0 L 130.5 137.5 L 137.5 137.0 L 143.0 136.5 L 144.5 136.5 L 144.5 136.5 L 142.5 137.0 L 140.5 138.0 L 139.0 138.5 L 138.0 139.5 L 136.0 141.5 L 134.0 144.5 L 131.5 148.5 L 130.5 150.0 L 126.0 155.5 L 124.0 158.0 L 123.5 158.5 L 123.0 159.0 L 124.0 158.0 L 125.5 156.0 " stroke="black" fill="none" stroke-width="2.0" stroke-linecap="round" stroke-linejoin="round" />
<path d="M 131.5 149.0 L 132.0 148.5 L 132.0 148.5 L 132.5 148.0 L 132.5 148.0 L 133.0 148.0 L 133.5 150.0 L 133.5 154.0 L 133.0 158.5 L 133.0 161.0 L 132.5 161.5 " stroke="black" fill="none" stroke-width="2.0" stroke-linecap="round" stroke-linejoin="round" />
<path d="M 134.0 148.0 L 135.0 147.5 L 135.5 147.5 L 137.0 147.5 L 140.0 148.5 L 143.5 150.5 L 144.5 153.5 L 144.0 156.5 L 141.5 158.5 L 141.0 159.5 L 137.0 161.0 L 134.5 161.0 L 134.0 159.5 " stroke="black" fill="none" stroke-width="2.0" stroke-linecap="round" stroke-linejoin="round" />
<path d="M 148.5 116.5 L 148.0 117.0 L 147.5 117.0 L 147.5 117.0 L 147.5 117.0 L 147.5 117.5 L 147.5 117.5 L 147.5 118.0 L 148.5 119.0 L 149.5 120.0 L 153.5 122.5 L 154.5 123.5 " stroke="black" fill="none" stroke-width="2.0" stroke-linecap="round" stroke-linejoin="round" />
<path d="M 168.5 119.5 L 168.5 119.5 L 168.5 119.5 L 168.5 119.5 L 168.5 119.5 L 168.5 119.5 L 168.0 121.5 L 167.0 124.5 L 166.0 126.5 " stroke="black" fill="none" stroke-width="2.0" stroke-linecap="round" stroke-linejoin="round" />
<path d="M 148.5 127.5 L 148.5 128.0 L 148.0 128.5 L 148.0 130.0 L 148.5 132.5 L 149.0 138.0 L 150.0 142.0 L 150.0 143.5 L 150.5 146.5 L 150.5 147.5 L 150.5 148.0 " stroke="black" fill="none" stroke-width="2.0" stroke-linecap="round" stroke-linejoin="round" />
<path d="M 153.0 131.0 L 153.0 131.0 L 153.0 131.0 L 154.0 130.5 L 158.0 129.5 L 165.5 128.5 L 172.5 128.5 L 177.5 129.5 L 179.0 131.0 L 179.5 134.0 L 178.5 138.5 L 177.5 143.5 L 177.0 146.5 L 177.0 147.5 L 176.5 149.0 L 176.5 149.5 L 176.5 149.5 L 176.0 149.0 " stroke="black" fill="none" stroke-width="2.0" stroke-linecap="round" stroke-linejoin="round" />
<path d="M 157.5 133.0 L 157.0 134.0 L 157.0 134.5 L 157.0 136.5 L 157.0 139.0 L 158.0 142.5 L 158.5 144.0 " stroke="black" fill="none" stroke-width="2.0" stroke-linecap="round" stroke-linejoin="round" />
<path d="M 168.5 134.0 L 168.5 134.5 L 168.5 134.5 L 168.5 135.5 L 168.5 138.0 L 168.5 140.5 L 168.5 141.5 L 168.5 143.5 L 168.5 144.0 L 168.0 144.5 " stroke="black" fill="none" stroke-width="2.0" stroke-linecap="round" stroke-linejoin="round" />
<path d="M 163.5 129.0 L 163.0 129.5 L 163.0 131.0 L 163.0 132.5 L 163.0 133.5 L 163.0 136.0 L 163.0 137.5 L 163.0 142.0 L 163.0 146.5 L 162.5 148.0 " stroke="black" fill="none" stroke-width="2.0" stroke-linecap="round" stroke-linejoin="round" />
<path d="M 153.0 148.5 L 152.5 149.0 L 152.5 149.0 L 154.5 149.0 L 159.0 148.5 L 164.5 148.0 L 169.0 148.0 L 171.5 148.0 L 172.0 148.0 " stroke="black" fill="none" stroke-width="2.0" stroke-linecap="round" stroke-linejoin="round" />
<path d="M 159.0 154.0 L 158.5 154.5 L 158.5 155.0 L 158.5 155.0 L 158.5 155.5 L 158.5 156.5 L 158.5 157.0 L 158.5 160.5 L 157.5 166.0 L 157.0 170.5 L 157.0 172.5 L 157.0 172.0 L 157.0 169.5 " stroke="black" fill="none" stroke-width="2.0" stroke-linecap="round" stroke-linejoin="round" />
<path d="M 159.0 157.0 L 159.0 156.5 L 159.5 155.5 L 160.5 154.5 L 162.0 154.0 L 164.5 154.0 L 166.5 155.5 L 168.0 158.5 L 169.0 161.0 L 169.0 162.5 L 169.5 167.0 L 169.5 170.5 L 169.5 171.0 L 169.0 172.5 L 168.5 172.0 " stroke="black" fill="none" stroke-width="2.0" stroke-linecap="round" stroke-linejoin="round" />
<path d="M 158.5 162.5 L 158.0 163.5 L 158.0 163.5 L 158.0 163.5 L 157.5 164.0 L 160.0 164.0 L 164.0 164.5 L 167.5 164.5 L 169.0 164.5 " stroke="black" fill="none" stroke-width="2.0" stroke-linecap="round" stroke-linejoin="round" />
<path d="M 158.5 172.5 L 159.0 173.0 L 159.0 173.0 L 160.0 173.0 L 163.0 173.5 L 167.0 173.5 " stroke="black" fill="none" stroke-width="2.0" stroke-linecap="round" stroke-linejoin="round" />
</svg>