<svg xmlns="http://www.w3.org/2000/svg" width="300" height="300" viewBox="0 0 300 300">
<path d="M 143.0 110.5 L 142.0 110.5 L 141.0 110.5 L 141.0 110.5 L 141.5 111.0 L 146.0 111.0 L 151.0 111.0 L 154.0 111.0 " stroke="black" fill="none" stroke-width="2.0" stroke-linecap="round" stroke-linejoin="round" />
<path d="M 126.5 119.0 L 126.5 119.0 L 126.5 119.0 L 126.5 119.0 L 127.0 119.5 L 127.0 119.5 L 128.5 120.0 L 129.0 120.5 L 132.5 122.5 L 134.0 123.5 " stroke="black" fill="none" stroke-width="2.0" stroke-linecap="round" stroke-linejoin="round" />
<path d="M 132.5 120.5 L 132.5 120.5 L 132.5 120.5 L 133.0 120.5 L 133.0 120.5 L 136.5 120.0 L 138.5 119.5 L 149.0 117.5 L 160.0 117.0 L 166.0 117.5 L 167.5 119.0 L 167.5 120.5 L 166.0 121.5 L 165.5 121.5 L 163.0 122.5 L 160.5 123.0 L 159.5 123.0 L 157.5 123.0 " stroke="black" fill="none" stroke-width="2.0" stroke-linecap="round" stroke-linejoin="round" />
<path d="M 146.5 119.0 L 146.5 119.0 L 146.5 119.0 L 146.5 119.0 L 146.5 119.5 L 146.5 122.0 L 147.0 127.0 L 147.0 131.0 " stroke="black" fill="none" stroke-width="2.0" stroke-linecap="round" stroke-linejoin="round" />
<path d="M 154.0 120.5 L 154.0 120.5 L 154.0 121.0 L 153.0 123.0 L 152.0 127.0 L 151.5 129.0 L 152.0 130.0 L 154.0 130.0 L 154.5 130.0 " stroke="black" fill="none" stroke-width="2.0" stroke-linecap="round" stroke-linejoin="round" />
<path d="M 134.5 141.0 L 134.5 141.0 L 134.5 141.5 L 134.5 141.5 L 134.5 141.5 L 136.5 141.5 L 140.5 140.5 L 145.0 139.5 " stroke="black" fill="none" stroke-width="2.0" stroke-linecap="round" stroke-linejoin="round" />
<path d="M 131.0 152.5 L 131.0 152.5 L 131.0 152.5 L 134.5 151.5 L 139.5 150.0 L 144.0 149.0 L 146.0 148.5 L 146.5 148.0 " stroke="black" fill="none" stroke-width="2.0" stroke-linecap="round" stroke-linejoin="round" />
<path d="M 141.0 138.0 L 140.5 138.0 L 140.0 137.5 L 140.0 137.5 L 140.0 137.5 L 140.0 137.5 L 140.0 137.5 L 140.0 140.5 L 140.0 147.5 L 138.5 158.5 L 137.0 168.0 L 136.0 173.5 L 135.5 174.5 L 135.5 174.5 L 135.5 174.0 L 136.0 172.0 L 136.0 171.0 " stroke="black" fill="none" stroke-width="2.0" stroke-linecap="round" stroke-linejoin="round" />
<path d="M 139.0 158.0 L 139.0 158.0 L 139.0 158.0 L 139.0 158.0 L 140.0 159.0 L 141.0 159.5 L 143.0 161.5 L 144.0 162.5 L 146.5 164.5 L 147.5 165.0 L 149.0 166.5 L 149.5 167.0 L 149.5 167.0 " stroke="black" fill="none" stroke-width="2.0" stroke-linecap="round" stroke-linejoin="round" />
<path d="M 153.0 139.5 L 153.0 140.5 L 153.0 141.5 L 153.5 143.5 L 154.0 147.5 L 154.5 151.5 L 154.5 152.5 L 154.5 155.5 L 154.5 156.0 L 154.5 156.5 L 154.5 156.5 L 154.0 155.5 L 154.0 151.0 L 154.0 145.5 L 154.5 141.5 L 156.0 139.5 L 157.5 138.5 L 159.5 138.5 L 160.5 139.5 L 161.0 140.0 L 162.5 142.5 L 163.0 146.5 L 163.5 151.0 L 163.5 155.5 L 163.5 157.0 L 163.0 156.5 L 162.5 155.0 " stroke="black" fill="none" stroke-width="2.0" stroke-linecap="round" stroke-linejoin="round" />
<path d="M 154.0 148.5 L 154.0 149.0 L 154.0 149.5 L 154.0 149.5 L 156.0 149.5 L 159.0 148.0 L 161.0 147.0 L 161.5 147.0 L 162.0 146.5 " stroke="black" fill="none" stroke-width="2.0" stroke-linecap="round" stroke-linejoin="round" />
<path d="M 155.0 153.0 L 154.5 154.0 L 154.5 154.0 L 155.0 154.0 L 158.5 153.0 L 161.0 152.0 L 161.5 152.0 " stroke="black" fill="none" stroke-width="2.0" stroke-linecap="round" stroke-linejoin="round" />
<path d="M 154.0 159.5 L 154.0 159.5 L 154.0 160.0 L 154.5 160.0 L 155.5 160.0 L 156.5 159.5 L 158.5 158.5 L 159.0 158.5 L 160.5 157.5 L 160.5 157.5 L 161.0 157.5 L 160.5 159.5 L 158.0 163.0 L 155.5 167.5 L 153.0 171.0 L 152.0 172.5 L 152.0 172.5 L 152.5 171.5 " stroke="black" fill="none" stroke-width="2.0" stroke-linecap="round" stroke-linejoin="round" />
<path d="M 161.5 163.0 L 161.5 163.0 L 162.0 163.0 L 162.0 164.0 L 162.5 167.0 L 162.5 170.5 L 163.0 173.0 L 164.5 173.5 L 167.5 172.5 L 171.5 170.0 L 174.5 168.0 L 176.0 167.0 L 175.5 167.0 " stroke="black" fill="none" stroke-width="2.0" stroke-linecap="round" stroke-linejoin="round" />
</svg>