<svg xmlns="http://www.w3.org/2000/svg" width="300" height="300" viewBox="0 0 300 300">
<path d="M 136.0 135.5 L 136.0 135.5 L 135.5 136.0 L 135.0 136.0 L 134.5 136.0 L 134.5 136.0 " stroke="black" fill="none" stroke-width="2.0" stroke-linecap="round" stroke-linejoin="round" />
<path d="M 134.5 135.5 L 134.5 135.0 L 135.0 134.5 L 135.5 134.5 L 135.5 134.0 L 136.0 134.0 L 136.5 133.5 L 136.5 133.0 L 137.0 133.0 L 137.0 133.0 L 137.0 133.0 L 136.5 135.0 L 135.0 139.0 L 134.0 140.5 L 131.0 147.0 L 128.0 152.0 L 127.5 152.5 L 130.0 151.5 L 134.5 148.5 L 138.5 145.5 L 141.5 143.5 L 142.0 143.0 L 143.5 142.5 L 143.5 142.5 L 143.5 144.0 L 143.0 144.5 L 140.0 150.0 L 136.5 156.5 L 133.5 161.5 L 132.5 164.0 L 133.0 164.0 L 136.0 160.5 L 138.5 157.5 L 139.0 157.0 L 141.5 154.5 L 143.0 154.0 L 143.5 155.5 L 143.5 158.5 L 143.5 161.5 L 143.5 162.5 L 143.5 162.5 " stroke="black" fill="none" stroke-width="2.0" stroke-linecap="round" stroke-linejoin="round" />
<path d="M 119.5 168.5 L 119.5 169.0 L 120.0 169.0 L 121.5 169.5 L 124.5 171.0 L 127.0 172.0 L 127.5 172.5 L 128.5 173.0 " stroke="black" fill="none" stroke-width="2.0" stroke-linecap="round" stroke-linejoin="round" />
<path d="M 131.5 168.5 L 132.0 168.5 L 133.0 169.5 L 134.0 170.0 L 134.0 170.5 L 135.5 172.0 L 136.5 172.5 L 139.0 175.5 L 140.5 176.5 " stroke="black" fill="none" stroke-width="2.0" stroke-linecap="round" stroke-linejoin="round" />
<path d="M 142.5 169.0 L 142.5 169.5 L 143.0 169.5 L 143.5 169.5 L 143.5 170.0 L 144.5 171.0 L 145.5 172.5 L 146.0 174.0 " stroke="black" fill="none" stroke-width="2.0" stroke-linecap="round" stroke-linejoin="round" />
<path d="M 164.0 124.0 L 164.0 124.0 L 164.5 124.0 L 164.5 124.0 L 164.5 123.5 L 164.5 123.5 L 164.5 123.0 L 164.5 123.0 L 164.5 123.0 L 164.5 123.0 L 163.5 123.0 L 159.5 125.0 L 153.5 128.5 L 148.5 131.0 L 147.5 132.0 L 147.5 132.0 L 148.0 132.0 L 148.5 132.0 L 150.5 132.5 L 151.5 133.0 L 154.0 135.0 L 155.5 139.0 L 156.0 144.5 L 156.0 149.0 L 155.5 151.0 L 155.0 150.0 " stroke="black" fill="none" stroke-width="2.0" stroke-linecap="round" stroke-linejoin="round" />
<path d="M 154.5 135.5 L 154.5 135.5 L 156.5 135.5 L 161.0 134.5 L 167.0 133.5 L 170.0 133.5 L 171.0 134.0 L 172.5 136.5 L 172.5 137.5 L 172.5 143.0 L 170.5 147.0 L 169.5 149.0 L 169.0 149.0 " stroke="black" fill="none" stroke-width="2.0" stroke-linecap="round" stroke-linejoin="round" />
<path d="M 158.0 145.5 L 158.5 145.5 L 159.5 145.5 L 162.0 145.0 L 164.5 144.0 L 165.5 144.0 L 168.5 143.0 L 169.5 143.0 " stroke="black" fill="none" stroke-width="2.0" stroke-linecap="round" stroke-linejoin="round" />
<path d="M 155.5 153.5 L 157.5 153.5 L 160.5 152.5 L 164.5 151.0 L 165.5 150.5 L 168.5 149.5 L 169.0 149.5 L 170.0 149.0 " stroke="black" fill="none" stroke-width="2.0" stroke-linecap="round" stroke-linejoin="round" />
<path d="M 150.0 157.0 L 150.0 158.5 L 150.0 159.5 L 150.5 161.5 L 151.5 164.5 L 151.5 167.0 L 151.5 168.0 " stroke="black" fill="none" stroke-width="2.0" stroke-linecap="round" stroke-linejoin="round" />
<path d="M 151.5 163.5 L 153.0 162.0 L 154.5 161.5 L 158.0 160.5 L 163.5 159.5 L 170.0 159.0 L 174.5 159.0 L 176.5 161.5 L 176.5 163.5 L 176.5 164.5 L 174.0 168.0 L 170.5 170.5 L 167.0 172.0 L 164.5 172.0 L 163.5 172.5 " stroke="black" fill="none" stroke-width="2.0" stroke-linecap="round" stroke-linejoin="round" />
<path d="M 162.5 153.0 L 162.5 153.0 L 162.5 153.0 L 162.5 153.0 L 163.0 155.5 L 163.5 163.5 L 163.5 176.0 L 164.0 186.0 L 164.0 189.0 L 164.0 189.0 L 164.0 189.0 L 164.0 187.0 " stroke="black" fill="none" stroke-width="2.0" stroke-linecap="round" stroke-linejoin="round" />
</svg>