<svg xmlns="http://www.w3.org/2000/svg" width="300" height="300" viewBox="0 0 300 300">
<path d="M 133.5 127.5 L 134.5 126.5 L 135.0 126.0 L 135.0 126.0 L 135.0 126.0 L 135.0 126.0 L 135.0 126.5 L 134.5 127.5 L 132.0 131.0 L 128.5 135.5 L 125.5 140.0 L 124.0 142.0 L 125.5 142.5 L 129.0 141.5 L 132.5 139.5 L 133.5 139.0 L 137.0 137.0 L 138.0 136.5 L 140.0 135.0 L 140.0 135.0 L 140.0 135.5 L 137.0 139.5 L 132.5 145.0 L 128.5 151.0 L 126.0 155.0 L 126.0 155.5 L 129.0 154.0 L 131.5 151.5 L 132.5 150.5 L 135.0 148.0 L 136.0 147.5 L 138.0 146.5 L 138.5 146.5 L 138.5 149.0 L 138.0 151.5 L 137.5 153.5 L 137.5 153.5 " stroke="black" fill="none" stroke-width="2.0" stroke-linecap="round" stroke-linejoin="round" />
<path d="M 112.5 162.0 L 113.0 162.5 L 113.5 162.5 L 113.5 162.5 L 115.0 163.0 L 116.0 163.5 L 120.0 165.5 L 124.5 167.5 L 125.5 168.0 " stroke="black" fill="none" stroke-width="2.0" stroke-linecap="round" stroke-linejoin="round" />
<path d="M 126.5 159.5 L 126.5 159.5 L 126.5 159.5 L 126.5 159.5 L 127.0 159.5 L 127.5 160.0 L 129.5 162.0 L 133.0 164.5 L 135.5 166.5 " stroke="black" fill="none" stroke-width="2.0" stroke-linecap="round" stroke-linejoin="round" />
<path d="M 137.5 157.5 L 137.5 158.0 L 138.0 158.5 L 139.5 160.0 L 141.0 162.0 L 142.0 163.5 " stroke="black" fill="none" stroke-width="2.0" stroke-linecap="round" stroke-linejoin="round" />
<path d="M 161.5 111.5 L 161.5 111.5 L 161.0 111.5 L 160.5 111.5 L 159.0 112.0 L 155.0 114.5 L 149.5 117.0 L 148.0 118.0 L 144.5 120.0 L 144.0 120.5 L 143.5 121.5 L 145.0 122.0 L 146.5 123.5 L 148.0 126.5 L 148.5 131.5 L 148.5 137.0 L 148.5 141.0 L 148.5 142.0 L 148.5 144.0 L 148.0 144.0 L 148.0 144.5 L 148.0 144.0 L 148.0 140.5 " stroke="black" fill="none" stroke-width="2.0" stroke-linecap="round" stroke-linejoin="round" />
<path d="M 151.5 125.5 L 152.0 125.0 L 153.5 124.5 L 154.0 124.0 L 157.5 123.0 L 159.0 123.0 L 163.5 122.5 L 164.5 122.5 L 169.0 124.5 L 170.0 127.5 L 170.0 131.0 L 169.5 135.0 L 169.0 139.5 L 168.5 143.5 L 168.0 145.0 L 168.0 145.0 L 168.0 145.5 " stroke="black" fill="none" stroke-width="2.0" stroke-linecap="round" stroke-linejoin="round" />
<path d="M 160.5 129.5 L 160.5 129.5 L 160.0 129.5 L 160.0 129.5 L 160.0 129.5 L 160.0 130.0 L 159.5 130.0 L 159.0 130.5 L 157.0 133.0 L 153.5 137.0 L 151.0 140.0 " stroke="black" fill="none" stroke-width="2.0" stroke-linecap="round" stroke-linejoin="round" />
<path d="M 164.5 132.0 L 164.5 132.0 L 164.0 132.5 L 162.5 134.5 L 160.5 137.5 L 157.5 141.5 L 156.5 142.0 " stroke="black" fill="none" stroke-width="2.0" stroke-linecap="round" stroke-linejoin="round" />
<path d="M 153.0 131.0 L 152.5 131.0 L 152.5 131.5 L 153.5 132.5 L 156.5 135.0 L 159.0 137.5 L 159.5 138.0 L 161.5 140.0 " stroke="black" fill="none" stroke-width="2.0" stroke-linecap="round" stroke-linejoin="round" />
<path d="M 147.5 150.0 L 147.5 150.0 L 148.0 150.0 L 151.5 149.0 L 157.5 147.5 L 162.5 146.0 " stroke="black" fill="none" stroke-width="2.0" stroke-linecap="round" stroke-linejoin="round" />
<path d="M 150.0 155.5 L 150.0 155.5 L 150.0 155.5 L 150.0 155.5 L 149.5 155.5 L 149.5 155.5 L 149.5 156.5 L 149.5 158.5 L 149.5 163.0 L 149.0 167.5 " stroke="black" fill="none" stroke-width="2.0" stroke-linecap="round" stroke-linejoin="round" />
<path d="M 157.0 156.5 L 157.0 156.5 L 157.0 157.0 L 157.0 160.5 L 156.5 165.5 L 156.5 169.0 L 157.5 170.0 L 158.0 170.0 L 160.0 168.5 L 161.0 167.5 L 163.5 165.0 L 164.5 164.5 L 167.5 162.0 " stroke="black" fill="none" stroke-width="2.0" stroke-linecap="round" stroke-linejoin="round" />
<path d="M 163.5 156.5 L 163.0 156.5 L 163.0 156.0 L 163.0 156.0 L 163.0 156.0 L 163.5 157.0 L 165.0 160.0 L 166.0 163.0 L 166.5 164.0 " stroke="black" fill="none" stroke-width="2.0" stroke-linecap="round" stroke-linejoin="round" />
<path d="M 169.5 155.5 L 170.0 155.5 L 171.0 155.5 L 171.5 155.5 L 174.0 155.5 L 177.0 158.5 L 178.5 162.5 L 178.5 165.0 " stroke="black" fill="none" stroke-width="2.0" stroke-linecap="round" stroke-linejoin="round" />
</svg>