<svg xmlns="http://www.w3.org/2000/svg" width="300" height="300" viewBox="0 0 300 300">
<path d="M 122.0 142.0 L 121.0 143.0 L 121.0 143.0 L 120.5 143.5 L 121.0 144.0 L 124.5 143.0 L 130.0 141.5 L 136.5 139.5 L 142.5 137.0 L 144.0 136.0 " stroke="black" fill="none" stroke-width="2.0" stroke-linecap="round" stroke-linejoin="round" />
<path d="M 135.0 130.5 L 135.0 130.0 L 135.5 130.0 L 135.5 130.0 L 135.0 132.0 L 133.5 138.0 L 131.5 145.5 L 131.0 148.0 L 128.5 157.5 L 127.5 160.0 L 124.5 171.0 L 122.0 176.5 L 121.0 177.5 L 121.0 176.5 " stroke="black" fill="none" stroke-width="2.0" stroke-linecap="round" stroke-linejoin="round" />
<path d="M 137.5 152.0 L 137.5 152.0 L 138.0 152.0 L 138.0 152.0 L 138.0 153.5 L 137.5 158.5 L 135.5 166.5 L 134.5 172.0 L 134.0 173.5 L 133.5 176.0 L 133.5 176.0 L 134.0 176.0 L 136.0 174.0 L 139.0 170.0 L 142.5 165.5 L 144.0 163.5 L 144.5 163.0 L 145.0 164.5 L 145.5 167.0 L 145.5 168.0 L 146.0 171.0 L 146.5 172.5 L 147.0 173.0 L 147.5 173.5 L 147.5 173.5 " stroke="black" fill="none" stroke-width="2.0" stroke-linecap="round" stroke-linejoin="round" />
<path d="M 151.5 137.0 L 151.5 137.0 L 151.5 137.0 L 151.5 137.0 L 152.0 136.0 L 154.5 135.0 L 157.5 135.0 L 161.0 138.5 L 162.5 145.0 L 163.0 155.0 L 163.0 166.0 L 163.0 173.0 L 162.5 175.0 L 162.5 179.0 L 162.0 179.5 L 162.0 180.5 L 162.0 180.0 L 162.0 177.5 L 162.0 173.5 " stroke="black" fill="none" stroke-width="2.0" stroke-linecap="round" stroke-linejoin="round" />
<path d="M 151.5 152.0 L 151.5 152.0 L 151.5 152.0 L 151.5 152.0 L 154.0 152.0 L 157.0 152.0 " stroke="black" fill="none" stroke-width="2.0" stroke-linecap="round" stroke-linejoin="round" />
<path d="M 151.0 163.0 L 151.0 164.5 L 151.0 164.5 L 153.0 163.5 L 154.0 163.0 L 157.5 160.5 L 159.0 159.5 L 161.0 157.5 " stroke="black" fill="none" stroke-width="2.0" stroke-linecap="round" stroke-linejoin="round" />
<path d="M 173.5 136.5 L 173.5 136.5 L 174.0 137.0 L 174.5 137.0 L 174.5 137.0 L 175.5 138.0 L 176.5 138.0 L 179.0 141.0 L 182.0 146.0 L 183.0 154.0 L 182.5 163.0 L 181.0 173.5 L 180.0 181.0 L 179.5 184.5 L 179.0 185.5 L 179.0 185.5 L 178.0 184.5 L 177.5 182.5 " stroke="black" fill="none" stroke-width="2.0" stroke-linecap="round" stroke-linejoin="round" />
<path d="M 169.5 154.0 L 169.0 154.0 L 169.0 154.0 L 171.5 153.5 L 175.5 152.5 L 178.5 152.5 " stroke="black" fill="none" stroke-width="2.0" stroke-linecap="round" stroke-linejoin="round" />
<path d="M 170.0 165.0 L 170.0 166.5 L 170.0 167.0 L 172.0 166.0 L 177.5 161.5 L 180.5 159.0 " stroke="black" fill="none" stroke-width="2.0" stroke-linecap="round" stroke-linejoin="round" />
</svg>