<svg xmlns="http://www.w3.org/2000/svg" width="300" height="300" viewBox="0 0 300 300">
<path d="M 108.0 112.0 L 108.0 112.0 L 108.0 112.0 L 108.0 112.0 L 110.5 112.0 L 118.0 111.0 L 127.0 108.5 L 130.5 107.0 L 131.0 107.0 " stroke="black" fill="none" stroke-width="2.0" stroke-linecap="round" stroke-linejoin="round" />
<path d="M 122.0 110.5 L 121.0 111.0 L 121.0 111.5 L 121.0 113.5 L 121.5 118.0 L 121.5 123.0 L 121.5 124.5 L 122.0 129.0 L 122.0 130.0 L 122.5 132.0 " stroke="black" fill="none" stroke-width="2.0" stroke-linecap="round" stroke-linejoin="round" />
<path d="M 130.0 111.0 L 130.0 111.0 L 130.0 111.0 L 130.0 111.0 L 130.0 112.0 L 130.0 113.0 L 130.5 119.0 L 131.0 122.5 L 131.5 133.5 L 132.0 138.0 L 132.0 155.0 L 130.0 170.0 L 128.0 178.0 L 126.5 181.0 L 126.0 181.0 L 125.5 179.0 L 125.5 178.0 " stroke="black" fill="none" stroke-width="2.0" stroke-linecap="round" stroke-linejoin="round" />
<path d="M 117.5 127.5 L 116.5 127.5 L 116.0 127.5 L 115.5 127.5 L 116.5 127.0 L 121.0 126.5 L 126.0 125.0 L 127.0 125.0 " stroke="black" fill="none" stroke-width="2.0" stroke-linecap="round" stroke-linejoin="round" />
<path d="M 117.0 133.5 L 117.0 134.0 L 117.0 134.0 L 117.0 134.0 L 118.5 134.0 L 119.0 134.0 L 122.0 133.5 L 123.0 133.5 L 126.0 133.0 L 126.5 133.0 L 127.0 133.0 " stroke="black" fill="none" stroke-width="2.0" stroke-linecap="round" stroke-linejoin="round" />
<path d="M 114.0 144.5 L 114.0 145.0 L 114.0 145.0 L 114.5 145.0 L 115.0 145.0 L 118.0 144.5 L 119.5 144.5 L 125.0 142.5 L 129.0 141.5 L 130.0 141.0 " stroke="black" fill="none" stroke-width="2.0" stroke-linecap="round" stroke-linejoin="round" />
<path d="M 115.5 152.5 L 115.0 153.0 L 114.5 153.5 L 114.0 153.5 L 114.0 154.0 L 116.0 154.0 L 120.5 152.0 L 125.5 149.5 L 128.5 148.5 " stroke="black" fill="none" stroke-width="2.0" stroke-linecap="round" stroke-linejoin="round" />
<path d="M 116.5 159.5 L 117.0 159.5 L 118.0 159.5 L 121.0 158.0 L 125.0 156.0 L 127.0 154.5 " stroke="black" fill="none" stroke-width="2.0" stroke-linecap="round" stroke-linejoin="round" />
<path d="M 124.0 151.5 L 124.0 151.5 L 124.0 151.5 L 124.0 151.5 L 124.0 153.0 L 123.5 159.0 L 122.5 164.5 L 122.0 166.0 L 120.5 170.5 L 120.0 171.0 L 120.0 171.0 L 121.0 170.0 L 124.5 168.0 L 128.5 164.5 L 130.0 163.5 " stroke="black" fill="none" stroke-width="2.0" stroke-linecap="round" stroke-linejoin="round" />
<path d="M 142.0 109.5 L 141.5 110.0 L 141.0 110.5 L 141.0 110.5 L 141.5 110.5 L 142.0 110.5 L 145.0 110.5 L 146.0 110.5 L 151.5 110.0 L 155.0 109.0 " stroke="black" fill="none" stroke-width="2.0" stroke-linecap="round" stroke-linejoin="round" />
<path d="M 156.0 103.0 L 156.5 102.5 L 157.0 102.0 L 157.0 102.0 L 157.0 102.0 L 157.0 102.0 L 157.0 102.0 L 156.0 103.5 L 153.0 108.0 L 148.5 114.0 L 142.5 119.5 L 138.5 122.5 L 137.5 123.0 L 137.5 123.0 L 138.0 123.0 L 138.5 123.0 L 140.0 123.0 L 140.5 123.0 L 142.0 124.0 L 142.5 124.0 L 144.0 127.5 L 145.5 131.5 L 146.0 135.5 L 146.5 137.5 L 146.5 137.5 " stroke="black" fill="none" stroke-width="2.0" stroke-linecap="round" stroke-linejoin="round" />
<path d="M 145.5 123.5 L 145.5 123.5 L 146.5 123.5 L 152.5 121.5 L 161.5 119.5 L 167.5 118.5 L 168.5 118.5 L 170.0 119.0 L 170.0 119.5 L 169.0 122.0 L 167.0 124.5 L 166.5 125.5 L 164.0 128.5 L 162.5 130.5 L 162.0 131.0 " stroke="black" fill="none" stroke-width="2.0" stroke-linecap="round" stroke-linejoin="round" />
<path d="M 152.5 121.5 L 152.5 122.0 L 152.0 122.5 L 152.0 124.0 L 152.0 127.5 L 152.0 132.0 " stroke="black" fill="none" stroke-width="2.0" stroke-linecap="round" stroke-linejoin="round" />
<path d="M 159.0 125.0 L 159.5 124.0 L 160.0 123.5 L 160.0 123.5 L 159.0 125.0 L 156.0 129.5 L 153.0 134.0 L 150.0 137.5 L 149.0 138.0 L 147.0 140.0 L 146.5 140.5 L 146.5 140.5 L 150.0 139.5 L 154.5 137.5 L 159.0 135.5 L 161.5 134.5 L 161.5 134.5 " stroke="black" fill="none" stroke-width="2.0" stroke-linecap="round" stroke-linejoin="round" />
<path d="M 145.0 149.5 L 145.0 149.5 L 145.5 149.0 L 149.0 148.0 L 153.5 146.5 L 155.0 146.0 L 160.0 144.0 L 161.0 144.0 " stroke="black" fill="none" stroke-width="2.0" stroke-linecap="round" stroke-linejoin="round" />
<path d="M 147.5 151.0 L 147.5 150.5 L 147.5 150.5 L 147.5 150.5 L 147.5 150.5 L 147.0 152.0 L 144.5 157.0 L 140.5 164.0 L 138.0 168.5 L 137.5 169.0 " stroke="black" fill="none" stroke-width="2.0" stroke-linecap="round" stroke-linejoin="round" />
<path d="M 149.0 156.5 L 149.5 155.5 L 150.0 155.5 L 150.0 155.5 L 149.5 158.5 L 148.0 163.0 L 146.5 167.0 L 146.0 168.5 L 146.0 169.0 L 146.5 169.5 L 147.0 169.5 L 150.5 168.5 L 156.0 165.5 L 160.5 162.5 L 162.5 161.0 " stroke="black" fill="none" stroke-width="2.0" stroke-linecap="round" stroke-linejoin="round" />
<path d="M 155.5 155.0 L 156.0 154.5 L 156.0 154.5 L 157.0 154.5 L 158.0 156.5 L 160.5 160.0 L 162.5 163.5 L 163.5 164.5 " stroke="black" fill="none" stroke-width="2.0" stroke-linecap="round" stroke-linejoin="round" />
<path d="M 167.5 153.5 L 168.5 152.0 L 169.5 151.5 L 171.0 152.0 L 173.0 154.5 L 174.5 160.0 L 174.5 164.5 L 174.5 166.5 L 174.5 170.5 " stroke="black" fill="none" stroke-width="2.0" stroke-linecap="round" stroke-linejoin="round" />
</svg>