<svg xmlns="http://www.w3.org/2000/svg" width="300" height="300" viewBox="0 0 300 300">
<path d="M 125.0 131.5 L 124.0 131.5 L 123.5 131.5 L 123.5 131.5 L 123.0 131.5 L 123.0 131.5 L 123.0 131.5 L 123.0 131.5 L 123.0 131.5 L 124.5 131.5 L 127.5 131.5 L 133.0 131.5 L 139.0 131.0 L 144.0 130.0 L 145.5 130.0 L 145.0 131.5 " stroke="black" fill="none" stroke-width="2.0" stroke-linecap="round" stroke-linejoin="round" />
<path d="M 127.5 136.0 L 127.0 136.0 L 127.0 136.0 L 127.0 136.0 L 127.0 136.0 L 127.0 136.5 L 127.0 136.5 L 127.0 137.0 L 127.0 137.0 L 127.0 141.0 L 127.0 149.0 L 127.0 160.0 L 127.0 167.5 L 127.0 171.5 L 128.5 173.0 L 129.5 173.0 L 130.0 173.0 L 132.5 173.0 L 133.5 173.0 L 136.5 172.0 L 137.5 171.5 L 140.5 170.5 L 142.0 169.5 L 142.5 169.0 " stroke="black" fill="none" stroke-width="2.0" stroke-linecap="round" stroke-linejoin="round" />
<path d="M 136.5 131.0 L 136.5 132.0 L 137.0 133.5 L 137.0 136.5 L 137.5 140.0 L 137.5 143.0 L 137.5 144.5 L 137.5 144.5 " stroke="black" fill="none" stroke-width="2.0" stroke-linecap="round" stroke-linejoin="round" />
<path d="M 126.5 149.5 L 126.0 149.5 L 125.5 149.5 L 125.5 149.5 L 127.5 149.5 L 128.5 149.5 L 133.0 148.0 L 134.5 148.0 L 141.5 147.0 L 146.5 147.0 L 148.0 147.5 L 148.0 149.5 L 146.5 152.0 L 143.5 154.0 L 143.0 154.0 " stroke="black" fill="none" stroke-width="2.0" stroke-linecap="round" stroke-linejoin="round" />
<path d="M 128.5 159.0 L 128.0 159.5 L 127.5 160.0 L 129.0 160.0 L 133.0 159.0 L 138.0 157.5 L 141.5 156.5 L 142.5 156.5 L 144.5 156.0 L 144.5 155.5 L 144.0 155.5 L 143.5 155.5 " stroke="black" fill="none" stroke-width="2.0" stroke-linecap="round" stroke-linejoin="round" />
<path d="M 139.0 156.5 L 138.0 158.0 L 138.0 158.5 L 138.0 159.5 L 138.5 161.0 L 139.0 163.0 L 139.0 164.0 L 139.0 166.5 L 139.0 167.5 L 138.5 170.0 L 138.0 171.0 L 138.0 170.5 " stroke="black" fill="none" stroke-width="2.0" stroke-linecap="round" stroke-linejoin="round" />
<path d="M 164.0 132.5 L 164.0 131.5 L 164.0 131.5 L 164.0 131.5 L 164.0 131.5 L 164.0 131.5 L 164.0 132.0 L 163.5 136.5 L 162.0 144.0 L 159.0 154.5 L 155.5 164.5 L 154.0 170.5 L 154.0 172.0 L 154.0 172.0 L 154.0 171.5 L 155.0 168.5 L 155.0 167.5 " stroke="black" fill="none" stroke-width="2.0" stroke-linecap="round" stroke-linejoin="round" />
<path d="M 160.0 154.5 L 160.5 154.5 L 161.0 154.5 L 161.5 154.5 L 163.0 155.5 L 164.5 157.0 L 165.0 157.5 L 167.5 160.5 L 169.0 162.0 L 172.5 166.0 L 173.5 167.5 L 177.0 172.0 L 178.0 173.5 L 178.0 173.5 L 176.5 172.5 L 176.0 171.0 " stroke="black" fill="none" stroke-width="2.0" stroke-linecap="round" stroke-linejoin="round" />
</svg>