<svg xmlns="http://www.w3.org/2000/svg" width="300" height="300" viewBox="0 0 300 300">
<path d="M 132.5 114.0 L 132.0 114.0 L 132.0 114.0 L 132.0 114.5 L 132.0 114.5 L 132.0 114.5 L 132.0 114.5 L 133.0 114.5 L 138.5 114.5 L 147.0 114.5 L 157.5 114.5 L 164.5 114.0 L 167.5 113.5 L 167.5 113.5 L 167.5 113.5 L 167.0 114.0 L 166.5 114.0 L 166.0 114.5 L 164.5 115.0 L 164.5 115.0 " stroke="black" fill="none" stroke-width="2.0" stroke-linecap="round" stroke-linejoin="round" />
<path d="M 146.0 107.5 L 145.5 107.5 L 145.5 107.5 L 145.5 107.5 L 145.5 108.0 L 145.5 110.0 L 145.5 114.5 L 146.0 119.5 L 146.5 123.0 L 146.5 123.5 " stroke="black" fill="none" stroke-width="2.0" stroke-linecap="round" stroke-linejoin="round" />
<path d="M 154.5 109.5 L 154.5 109.5 L 154.5 110.0 L 154.5 112.0 L 155.0 116.0 L 155.0 119.5 L 155.0 120.5 L 155.0 122.0 " stroke="black" fill="none" stroke-width="2.0" stroke-linecap="round" stroke-linejoin="round" />
<path d="M 146.0 131.0 L 146.0 131.0 L 146.0 131.0 L 146.0 131.0 L 146.0 131.0 L 146.0 131.0 L 146.0 131.0 L 144.5 131.0 L 142.0 131.0 L 137.5 131.5 L 135.0 132.0 L 134.0 132.5 L 133.5 133.5 L 134.0 133.5 L 135.0 135.0 L 135.5 136.0 L 136.5 139.5 L 137.5 144.0 L 137.5 149.0 L 137.5 151.5 L 137.5 152.0 L 138.0 151.0 L 138.0 150.5 " stroke="black" fill="none" stroke-width="2.0" stroke-linecap="round" stroke-linejoin="round" />
<path d="M 137.5 143.0 L 137.5 143.0 L 137.5 143.0 L 137.5 143.5 L 138.0 144.0 L 140.0 144.0 L 142.5 144.0 L 143.0 144.0 " stroke="black" fill="none" stroke-width="2.0" stroke-linecap="round" stroke-linejoin="round" />
<path d="M 155.0 133.5 L 155.0 133.5 L 155.5 133.5 L 156.0 133.5 L 156.0 133.5 L 158.0 134.0 L 160.5 135.5 L 162.5 139.0 L 163.0 144.0 L 163.0 148.5 L 162.5 151.5 L 162.0 151.5 L 161.5 151.0 L 161.5 150.5 " stroke="black" fill="none" stroke-width="2.0" stroke-linecap="round" stroke-linejoin="round" />
<path d="M 155.5 141.5 L 155.5 142.5 L 155.5 143.0 L 155.5 143.0 L 156.0 143.0 L 158.5 143.0 L 160.5 143.0 L 161.0 143.0 L 162.5 143.0 " stroke="black" fill="none" stroke-width="2.0" stroke-linecap="round" stroke-linejoin="round" />
<path d="M 141.0 151.5 L 140.5 152.0 L 140.5 152.0 L 140.0 152.0 L 142.5 152.0 L 146.5 152.0 L 153.0 151.0 L 159.5 150.0 L 164.0 149.5 L 165.5 149.5 L 165.0 149.5 " stroke="black" fill="none" stroke-width="2.0" stroke-linecap="round" stroke-linejoin="round" />
<path d="M 153.0 134.5 L 153.0 134.0 L 153.0 133.0 L 153.0 133.0 L 152.5 132.5 L 152.5 132.5 L 152.5 132.5 L 152.5 132.5 L 152.5 133.0 L 152.5 135.5 L 152.5 140.5 L 151.5 147.5 L 149.0 157.0 L 146.5 163.5 L 145.5 165.5 L 142.5 171.5 L 140.5 174.0 L 140.0 174.5 L 140.0 174.5 L 140.0 173.0 L 140.5 171.0 " stroke="black" fill="none" stroke-width="2.0" stroke-linecap="round" stroke-linejoin="round" />
<path d="M 149.0 159.0 L 149.0 159.0 L 149.0 159.0 L 149.0 159.0 L 149.5 159.0 L 151.5 160.5 L 155.5 164.0 L 161.0 169.0 L 166.0 173.5 L 168.5 176.0 L 169.0 176.5 L 169.0 176.5 L 169.0 176.5 L 169.0 176.5 L 168.0 176.0 L 168.0 176.0 " stroke="black" fill="none" stroke-width="2.0" stroke-linecap="round" stroke-linejoin="round" />
</svg>