<svg xmlns="http://www.w3.org/2000/svg" width="300" height="300" viewBox="0 0 300 300">
<path d="M 132.0 116.5 L 132.0 117.0 L 132.0 117.5 L 132.0 117.5 L 133.5 117.5 L 136.5 117.5 L 138.5 117.5 L 144.0 117.0 L 146.0 117.0 L 153.0 117.5 L 155.0 117.5 L 162.0 118.5 L 165.0 119.0 L 165.5 119.5 L 164.5 119.5 L 164.5 119.5 L 164.0 119.5 L 164.0 119.5 " stroke="black" fill="none" stroke-width="2.0" stroke-linecap="round" stroke-linejoin="round" />
<path d="M 146.0 112.5 L 145.5 112.5 L 145.0 112.5 L 145.0 112.5 L 144.5 112.5 L 144.5 114.0 L 144.5 118.0 L 145.0 122.0 L 145.5 124.5 " stroke="black" fill="none" stroke-width="2.0" stroke-linecap="round" stroke-linejoin="round" />
<path d="M 153.0 112.0 L 153.5 112.0 L 153.5 112.5 L 154.0 114.0 L 154.0 117.0 L 154.0 121.5 L 154.0 122.5 " stroke="black" fill="none" stroke-width="2.0" stroke-linecap="round" stroke-linejoin="round" />
<path d="M 149.0 125.5 L 148.5 125.5 L 148.0 125.5 L 148.0 125.5 L 148.0 126.0 L 149.0 127.0 L 149.5 127.0 L 150.5 128.0 " stroke="black" fill="none" stroke-width="2.0" stroke-linecap="round" stroke-linejoin="round" />
<path d="M 135.5 131.5 L 135.0 132.0 L 135.0 132.0 L 134.5 132.5 L 134.5 132.5 L 134.5 132.5 L 135.0 132.5 L 138.5 132.5 L 144.0 132.5 L 151.5 132.5 L 158.5 132.5 L 162.5 133.0 L 164.0 133.5 L 164.0 133.5 L 164.0 133.5 L 164.0 134.0 L 163.5 134.0 L 162.5 134.0 " stroke="black" fill="none" stroke-width="2.0" stroke-linecap="round" stroke-linejoin="round" />
<path d="M 145.5 138.0 L 145.5 138.5 L 145.5 138.5 L 145.0 139.0 L 145.0 142.0 L 145.0 145.0 L 145.0 146.0 L 145.0 150.0 L 145.0 151.5 L 145.0 151.5 " stroke="black" fill="none" stroke-width="2.0" stroke-linecap="round" stroke-linejoin="round" />
<path d="M 146.5 138.5 L 146.5 138.5 L 146.5 138.5 L 146.5 138.5 L 147.5 138.5 L 148.5 138.5 L 153.5 138.0 L 158.5 139.0 L 161.5 142.5 L 162.5 147.0 L 162.0 150.5 L 161.0 152.5 L 160.0 152.5 " stroke="black" fill="none" stroke-width="2.0" stroke-linecap="round" stroke-linejoin="round" />
<path d="M 134.5 145.0 L 135.0 144.5 L 135.0 144.0 L 135.5 144.0 L 139.0 144.0 L 144.5 144.0 L 152.5 144.5 L 161.0 145.0 L 165.5 145.5 L 167.0 146.5 L 167.0 147.0 L 166.5 147.0 L 165.5 147.0 " stroke="black" fill="none" stroke-width="2.0" stroke-linecap="round" stroke-linejoin="round" />
<path d="M 144.5 151.0 L 143.5 151.5 L 143.5 151.5 L 143.5 152.0 L 143.5 152.0 L 145.5 152.0 L 150.0 152.0 L 155.0 151.5 L 159.5 151.5 L 161.0 151.5 L 161.0 151.5 " stroke="black" fill="none" stroke-width="2.0" stroke-linecap="round" stroke-linejoin="round" />
<path d="M 148.0 153.5 L 148.0 153.0 L 148.0 152.5 L 148.0 152.5 L 147.5 152.5 L 146.5 153.0 L 144.0 156.0 L 139.5 160.0 L 136.0 162.5 L 135.5 163.0 " stroke="black" fill="none" stroke-width="2.0" stroke-linecap="round" stroke-linejoin="round" />
<path d="M 143.5 157.5 L 143.5 158.0 L 143.5 158.0 L 143.5 158.5 L 143.5 158.5 L 144.0 159.5 L 144.0 161.5 L 144.0 165.5 L 144.0 168.5 L 144.0 170.0 L 144.5 170.5 L 146.0 169.0 L 146.5 168.5 L 149.0 166.5 L 150.0 166.0 " stroke="black" fill="none" stroke-width="2.0" stroke-linecap="round" stroke-linejoin="round" />
<path d="M 166.0 156.5 L 165.5 157.0 L 165.5 157.0 L 165.5 157.5 L 165.5 157.5 L 165.0 158.0 L 164.5 158.5 L 162.5 159.0 L 159.5 160.5 L 156.5 161.5 L 155.0 162.0 L 155.5 163.0 L 158.0 164.0 L 159.5 164.5 L 162.0 166.0 L 163.0 166.5 L 166.5 169.0 L 168.5 171.5 L 169.5 173.0 L 169.5 173.0 L 169.0 172.5 " stroke="black" fill="none" stroke-width="2.0" stroke-linecap="round" stroke-linejoin="round" />
</svg>