<svg xmlns="http://www.w3.org/2000/svg" width="300" height="300" viewBox="0 0 300 300">
<path d="M 151.5 117.5 L 151.5 117.5 L 151.5 117.5 L 151.5 118.0 L 151.0 118.0 L 151.0 118.0 L 151.0 118.0 L 151.0 119.0 L 151.0 122.0 L 151.0 126.0 L 151.0 127.5 L 151.5 132.5 L 151.5 133.5 L 151.5 136.5 L 152.0 137.0 " stroke="black" fill="none" stroke-width="2.0" stroke-linecap="round" stroke-linejoin="round" />
<path d="M 152.5 126.5 L 152.5 126.5 L 153.0 126.5 L 153.0 126.5 L 153.5 126.5 L 153.5 126.5 L 155.5 126.5 L 158.5 126.5 L 159.0 126.5 " stroke="black" fill="none" stroke-width="2.0" stroke-linecap="round" stroke-linejoin="round" />
<path d="M 136.0 136.0 L 136.5 137.0 L 137.0 137.0 L 137.5 137.0 L 138.5 137.0 L 139.0 137.0 L 143.0 137.0 L 150.0 136.5 L 159.5 135.5 L 167.0 134.0 L 169.5 133.5 L 170.0 134.0 L 169.0 134.5 L 168.5 135.5 L 168.0 137.0 L 168.0 137.0 L 167.5 138.0 L 167.5 138.5 L 167.0 139.5 L 167.0 140.0 L 166.5 141.5 " stroke="black" fill="none" stroke-width="2.0" stroke-linecap="round" stroke-linejoin="round" />
<path d="M 137.0 139.5 L 137.0 139.0 L 136.5 138.5 L 136.0 138.0 L 136.0 138.5 L 136.0 140.0 L 136.0 141.0 L 136.0 144.5 L 136.0 145.5 L 135.0 153.5 L 134.0 165.0 L 133.0 175.0 L 132.5 181.5 L 132.5 184.5 L 132.5 185.0 L 132.5 184.0 L 132.5 183.5 " stroke="black" fill="none" stroke-width="2.0" stroke-linecap="round" stroke-linejoin="round" />
<path d="M 145.5 144.5 L 145.0 144.5 L 145.0 144.5 L 144.5 144.0 L 144.5 144.0 L 145.5 143.5 L 149.0 143.5 L 154.0 143.0 L 159.0 143.0 L 161.0 142.5 " stroke="black" fill="none" stroke-width="2.0" stroke-linecap="round" stroke-linejoin="round" />
<path d="M 151.0 138.5 L 151.0 138.5 L 151.0 138.5 L 150.5 139.5 L 150.5 141.5 L 150.0 146.0 L 150.0 150.0 L 150.0 152.5 L 152.5 153.0 L 156.0 152.0 L 158.5 150.5 " stroke="black" fill="none" stroke-width="2.0" stroke-linecap="round" stroke-linejoin="round" />
<path d="M 146.5 156.0 L 146.5 156.0 L 146.5 156.0 L 146.5 155.5 L 146.0 155.5 L 146.0 155.5 L 145.5 158.0 L 144.0 162.0 L 142.5 166.0 L 142.0 167.5 L 142.0 167.5 L 143.0 167.5 L 146.0 165.5 L 148.0 164.0 L 149.5 164.0 L 149.5 167.5 L 149.0 172.5 L 147.5 177.0 L 147.0 178.0 L 145.5 182.5 L 145.0 184.5 L 144.5 184.5 L 144.5 182.0 L 144.5 181.5 " stroke="black" fill="none" stroke-width="2.0" stroke-linecap="round" stroke-linejoin="round" />
<path d="M 141.5 170.5 L 141.0 169.5 L 141.0 169.5 L 141.0 169.0 L 143.0 170.0 L 147.0 171.5 L 153.0 174.0 L 158.0 175.5 L 159.5 176.0 L 164.0 177.5 L 165.0 178.0 L 167.5 179.0 L 168.0 179.5 L 169.0 179.5 L 169.0 179.5 L 169.0 179.5 L 168.0 179.0 L 167.5 178.0 " stroke="black" fill="none" stroke-width="2.0" stroke-linecap="round" stroke-linejoin="round" />
<path d="M 159.0 161.0 L 159.0 161.0 L 159.5 160.5 L 159.5 160.5 L 159.5 160.5 L 159.5 163.5 L 159.5 167.0 L 159.5 168.0 L 159.5 171.5 L 159.5 172.0 L 159.5 174.0 " stroke="black" fill="none" stroke-width="2.0" stroke-linecap="round" stroke-linejoin="round" />
<path d="M 161.0 161.5 L 161.0 161.5 L 161.0 162.0 L 161.0 162.0 L 162.0 162.0 L 163.5 162.0 L 164.0 162.0 L 166.5 163.0 L 168.0 165.0 L 168.0 168.5 L 168.0 173.0 L 167.5 175.5 L 167.5 176.0 L 168.5 175.5 L 169.0 175.5 L 171.0 174.0 L 171.5 173.5 L 172.0 173.5 " stroke="black" fill="none" stroke-width="2.0" stroke-linecap="round" stroke-linejoin="round" />
</svg>