<svg xmlns="http://www.w3.org/2000/svg" width="300" height="300" viewBox="0 0 300 300">
<path d="M 105.0 122.5 L 104.5 123.0 L 103.5 123.0 L 103.5 123.5 L 105.0 123.0 L 109.0 122.0 L 112.5 121.0 L 113.5 121.0 L 117.0 120.0 L 118.0 119.5 " stroke="black" fill="none" stroke-width="2.0" stroke-linecap="round" stroke-linejoin="round" />
<path d="M 118.5 112.5 L 118.5 112.5 L 118.5 112.5 L 118.5 113.0 L 118.5 113.5 L 118.5 116.0 L 118.5 117.0 L 119.0 122.5 L 119.5 125.0 " stroke="black" fill="none" stroke-width="2.0" stroke-linecap="round" stroke-linejoin="round" />
<path d="M 128.5 115.5 L 129.0 115.5 L 129.5 115.0 L 131.0 114.5 L 131.5 114.0 L 133.5 113.0 L 134.5 113.0 L 137.5 112.0 L 138.0 111.5 " stroke="black" fill="none" stroke-width="2.0" stroke-linecap="round" stroke-linejoin="round" />
<path d="M 131.0 109.5 L 131.0 109.5 L 130.5 109.5 L 130.5 109.5 L 130.5 111.0 L 130.5 116.0 L 130.5 119.5 " stroke="black" fill="none" stroke-width="2.0" stroke-linecap="round" stroke-linejoin="round" />
<path d="M 111.0 133.0 L 111.0 132.5 L 111.0 132.5 L 110.5 132.5 L 110.5 132.5 L 112.0 134.0 L 114.0 138.5 L 116.0 142.5 L 116.5 143.5 L 117.0 146.0 L 117.5 146.5 L 117.5 147.0 L 117.5 144.0 L 117.5 140.0 L 118.5 137.5 L 120.0 136.0 L 122.5 135.5 L 125.0 135.5 L 125.5 136.0 L 125.5 136.5 L 125.5 138.5 L 125.0 139.0 L 123.5 141.5 L 122.5 142.5 L 120.5 145.5 L 119.0 147.0 L 119.0 147.5 " stroke="black" fill="none" stroke-width="2.0" stroke-linecap="round" stroke-linejoin="round" />
<path d="M 128.5 133.0 L 128.5 133.0 L 128.5 133.5 L 129.0 133.5 L 129.0 134.0 L 129.5 136.0 L 129.5 140.0 L 130.0 143.0 L 130.0 144.0 L 130.5 142.0 L 131.5 138.0 L 133.0 134.5 L 135.0 133.0 L 135.5 132.5 L 137.0 132.0 L 137.5 134.0 L 137.5 138.0 L 136.5 142.5 L 134.0 147.5 " stroke="black" fill="none" stroke-width="2.0" stroke-linecap="round" stroke-linejoin="round" />
<path d="M 125.0 155.0 L 125.0 155.0 L 126.5 153.5 L 127.0 153.0 L 127.5 152.5 L 127.5 152.0 L 127.5 152.0 L 126.5 152.0 L 124.0 154.0 L 120.0 157.0 L 116.5 160.0 L 113.0 162.5 L 111.5 163.5 L 111.5 163.5 L 113.0 163.5 L 115.5 163.0 L 116.5 162.5 L 120.0 162.5 L 122.0 163.5 L 123.0 167.0 L 123.0 172.5 L 122.5 177.5 L 122.0 180.0 L 122.0 180.0 L 122.0 179.5 L 122.0 178.5 " stroke="black" fill="none" stroke-width="2.0" stroke-linecap="round" stroke-linejoin="round" />
<path d="M 127.5 153.5 L 127.5 154.0 L 128.0 154.0 L 128.5 154.0 L 129.0 154.5 L 131.0 155.0 L 132.0 155.0 " stroke="black" fill="none" stroke-width="2.0" stroke-linecap="round" stroke-linejoin="round" />
<path d="M 123.5 163.5 L 122.5 164.0 L 122.5 164.0 L 124.0 164.0 L 125.0 163.5 L 128.0 162.0 L 129.0 162.0 L 131.5 161.0 L 132.5 160.5 L 135.0 160.0 L 136.0 159.5 " stroke="black" fill="none" stroke-width="2.0" stroke-linecap="round" stroke-linejoin="round" />
<path d="M 124.5 169.0 L 123.5 170.0 L 123.0 170.5 L 123.0 170.5 L 123.5 170.5 L 123.5 170.5 L 127.0 169.0 L 130.5 167.0 L 134.0 164.5 L 136.5 163.5 " stroke="black" fill="none" stroke-width="2.0" stroke-linecap="round" stroke-linejoin="round" />
<path d="M 127.5 174.0 L 127.0 174.5 L 127.0 174.5 L 128.5 174.0 L 131.5 172.0 L 135.0 170.0 L 137.0 169.0 " stroke="black" fill="none" stroke-width="2.0" stroke-linecap="round" stroke-linejoin="round" />
<path d="M 134.0 163.0 L 134.0 163.5 L 133.5 164.5 L 133.0 167.0 L 133.0 172.0 L 133.0 179.0 L 132.0 184.0 L 132.0 184.5 L 132.0 184.5 L 132.5 184.5 L 133.0 183.5 L 137.0 180.5 L 141.5 176.5 L 146.0 172.5 L 146.5 172.0 " stroke="black" fill="none" stroke-width="2.0" stroke-linecap="round" stroke-linejoin="round" />
<path d="M 149.0 127.5 L 149.0 127.5 L 149.0 127.5 L 149.5 131.5 L 151.0 140.5 L 152.0 149.5 L 152.5 154.0 L 152.5 154.0 L 152.5 153.5 L 152.5 150.5 " stroke="black" fill="none" stroke-width="2.0" stroke-linecap="round" stroke-linejoin="round" />
<path d="M 155.5 126.5 L 156.0 126.5 L 156.5 126.0 L 157.5 126.0 L 159.0 128.0 L 159.5 129.0 L 161.5 133.0 L 162.0 135.0 L 163.5 143.0 L 163.0 149.5 L 162.0 151.5 L 161.5 151.5 " stroke="black" fill="none" stroke-width="2.0" stroke-linecap="round" stroke-linejoin="round" />
<path d="M 153.0 143.0 L 153.0 143.0 L 153.0 143.0 L 153.0 143.0 L 153.5 142.5 L 156.5 141.5 L 160.0 140.5 L 160.5 140.0 " stroke="black" fill="none" stroke-width="2.0" stroke-linecap="round" stroke-linejoin="round" />
<path d="M 151.5 148.5 L 151.5 149.0 L 151.0 149.0 L 151.5 149.0 L 154.0 148.0 L 157.5 146.5 L 160.0 145.5 " stroke="black" fill="none" stroke-width="2.0" stroke-linecap="round" stroke-linejoin="round" />
<path d="M 151.5 159.0 L 151.0 160.0 L 151.0 160.0 L 153.0 159.0 L 156.5 156.5 L 159.5 154.5 L 161.0 154.0 L 161.0 154.5 L 161.0 155.5 L 159.5 158.5 L 159.0 159.5 L 156.0 164.0 L 153.0 169.0 L 150.0 175.5 L 147.0 180.5 L 146.0 181.0 L 146.0 180.5 " stroke="black" fill="none" stroke-width="2.0" stroke-linecap="round" stroke-linejoin="round" />
<path d="M 158.5 163.5 L 158.5 163.5 L 158.5 163.5 L 159.0 163.5 L 159.5 164.0 L 160.0 166.5 L 161.0 171.0 L 161.5 175.0 L 162.5 177.0 L 164.5 177.5 L 165.5 177.5 L 171.0 175.0 L 177.0 172.0 L 183.0 169.0 L 186.5 167.5 L 186.5 167.5 L 186.0 167.5 " stroke="black" fill="none" stroke-width="2.0" stroke-linecap="round" stroke-linejoin="round" />
</svg>