<svg xmlns="http://www.w3.org/2000/svg" width="300" height="300" viewBox="0 0 300 300">
<path d="M 129.09 125.80 L 127.96 126.27 C 127.25 126.56 126.92 127.37 127.21 128.07 C 127.50 128.77 128.30 129.11 129.00 128.82 L 130.14 128.35 C 130.84 128.06 131.18 127.26 130.89 126.55 C 130.60 125.85 129.80 125.51 129.09 125.80 Z M 127.09 127.64 L 127.11 127.91 C 127.16 128.68 127.82 129.26 128.59 129.21 C 129.35 129.16 129.93 128.50 129.88 127.73 L 129.87 127.45 C 129.81 126.69 129.15 126.11 128.39 126.16 C 127.62 126.21 127.04 126.87 127.09 127.64 Z M 128.38 129.21 L 129.45 129.30 C 130.21 129.36 130.89 128.79 130.95 128.03 C 131.02 127.26 130.45 126.59 129.68 126.52 L 128.61 126.43 C 127.85 126.37 127.17 126.94 127.11 127.71 C 127.05 128.47 127.62 129.15 128.38 129.21 Z M 129.52 129.30 L 130.65 129.34 C 131.41 129.36 132.05 128.76 132.08 127.99 C 132.10 127.22 131.50 126.58 130.73 126.56 L 129.61 126.52 C 128.84 126.50 128.20 127.10 128.17 127.87 C 128.15 128.64 128.75 129.28 129.52 129.30 Z M 130.65 129.33 L 131.61 129.36 C 132.38 129.38 133.01 128.78 133.04 128.01 C 133.06 127.25 132.46 126.62 131.70 126.59 L 130.73 126.56 C 129.97 126.54 129.33 127.14 129.31 127.91 C 129.28 128.67 129.88 129.31 130.65 129.33 Z M 131.63 129.35 L 132.65 129.37 C 133.41 129.38 134.03 128.78 134.05 128.02 C 134.06 127.26 133.46 126.63 132.70 126.62 L 131.68 126.60 C 130.92 126.59 130.30 127.19 130.28 127.95 C 130.27 128.71 130.87 129.33 131.63 129.35 Z M 132.67 129.36 L 133.68 129.37 C 134.43 129.37 135.05 128.76 135.05 128.01 C 135.06 127.26 134.45 126.64 133.70 126.63 L 132.68 126.63 C 131.93 126.62 131.31 127.23 131.31 127.98 C 131.30 128.74 131.91 129.35 132.67 129.36 Z M 133.69 129.36 L 134.71 129.36 C 135.46 129.36 136.07 128.76 136.07 128.00 C 136.07 127.25 135.46 126.64 134.71 126.64 L 133.69 126.64 C 132.94 126.64 132.33 127.25 132.33 128.00 C 132.33 128.75 132.93 129.36 133.69 129.36 Z M 134.71 129.36 L 135.77 129.36 C 136.52 129.36 137.13 128.75 137.13 128.00 C 137.13 127.25 136.52 126.65 135.77 126.64 L 134.71 126.64 C 133.96 126.64 133.35 127.25 133.35 128.00 C 133.35 128.75 133.96 129.36 134.71 129.36 Z M 135.77 129.36 L 136.76 129.36 C 137.51 129.36 138.12 128.75 138.12 128.00 C 138.12 127.25 137.51 126.64 136.76 126.64 L 135.77 126.64 C 135.02 126.64 134.41 127.25 134.41 128.00 C 134.41 128.75 135.02 129.36 135.77 129.36 Z M 136.76 129.36 L 137.71 129.36 C 138.46 129.36 139.07 128.75 139.07 128.00 C 139.07 127.25 138.46 126.64 137.71 126.64 L 136.76 126.64 C 136.01 126.64 135.40 127.25 135.40 128.00 C 135.40 128.75 136.01 129.36 136.76 129.36 Z M 137.71 129.36 L 138.69 129.36 C 139.44 129.36 140.05 128.75 140.05 128.00 C 140.05 127.25 139.44 126.65 138.69 126.65 L 137.71 126.65 C 136.96 126.65 136.36 127.25 136.36 128.00 C 136.36 128.75 136.96 129.36 137.71 129.36 Z M 138.69 129.35 L 138.85 129.35 C 139.60 129.35 140.20 128.75 140.20 128.00 C 140.20 127.26 139.60 126.66 138.85 126.66 L 138.69 126.66 C 137.95 126.66 137.35 127.26 137.35 128.00 C 137.35 128.75 137.95 129.35 138.69 129.35 Z"
      fill="black"
      fill-rule="nonzero" /><path d="M 124.12 136.32 L 125.03 136.72 C 125.73 137.02 126.55 136.70 126.85 135.99 C 127.16 135.29 126.83 134.47 126.13 134.17 L 125.22 133.77 C 124.51 133.47 123.70 133.79 123.39 134.50 C 123.09 135.20 123.41 136.02 124.12 136.32 Z M 125.33 136.82 L 126.28 136.99 C 127.04 137.13 127.77 136.63 127.91 135.87 C 128.05 135.11 127.55 134.38 126.78 134.24 L 125.83 134.06 C 125.07 133.92 124.34 134.43 124.20 135.19 C 124.06 135.95 124.56 136.68 125.33 136.82 Z M 126.65 137.01 L 127.62 136.93 C 128.40 136.86 128.97 136.18 128.90 135.41 C 128.83 134.64 128.15 134.07 127.38 134.13 L 126.41 134.22 C 125.64 134.29 125.07 134.97 125.13 135.74 C 125.20 136.51 125.88 137.08 126.65 137.01 Z M 127.78 136.90 L 128.79 136.70 C 129.54 136.54 130.03 135.81 129.88 135.05 C 129.73 134.29 128.99 133.80 128.23 133.96 L 127.22 134.16 C 126.47 134.31 125.98 135.05 126.13 135.81 C 126.29 136.57 127.02 137.05 127.78 136.90 Z M 128.82 136.68 L 129.78 136.46 C 130.53 136.28 131.00 135.54 130.82 134.79 C 130.65 134.04 129.90 133.58 129.15 133.75 L 128.19 133.97 C 127.45 134.15 126.98 134.90 127.16 135.64 C 127.33 136.39 128.08 136.86 128.82 136.68 Z M 129.79 136.45 L 130.80 136.20 C 131.54 136.03 132.00 135.28 131.82 134.54 C 131.64 133.80 130.90 133.34 130.16 133.52 L 129.14 133.76 C 128.40 133.94 127.95 134.69 128.12 135.43 C 128.30 136.17 129.05 136.63 129.79 136.45 Z M 130.80 136.20 L 131.76 135.97 C 132.50 135.80 132.96 135.06 132.78 134.32 C 132.61 133.58 131.87 133.12 131.13 133.30 L 130.16 133.52 C 129.42 133.70 128.97 134.44 129.14 135.18 C 129.32 135.92 130.06 136.37 130.80 136.20 Z M 131.74 135.97 L 132.72 135.75 C 133.46 135.58 133.92 134.85 133.76 134.11 C 133.59 133.37 132.86 132.91 132.12 133.08 L 131.14 133.30 C 130.41 133.46 129.94 134.20 130.11 134.93 C 130.28 135.67 131.01 136.13 131.74 135.97 Z M 132.70 135.74 L 133.70 135.54 C 134.44 135.38 134.91 134.66 134.76 133.92 C 134.60 133.19 133.88 132.72 133.15 132.87 L 132.15 133.08 C 131.41 133.23 130.94 133.95 131.09 134.69 C 131.24 135.43 131.97 135.90 132.70 135.74 Z M 133.68 135.53 L 134.69 135.34 C 135.42 135.20 135.90 134.49 135.77 133.76 C 135.63 133.02 134.92 132.54 134.18 132.68 L 133.17 132.87 C 132.44 133.01 131.95 133.72 132.09 134.45 C 132.23 135.19 132.94 135.67 133.68 135.53 Z M 134.66 135.34 L 135.62 135.18 C 136.35 135.05 136.84 134.35 136.72 133.62 C 136.59 132.89 135.89 132.39 135.16 132.52 L 134.21 132.68 C 133.47 132.81 132.98 133.51 133.11 134.24 C 133.23 134.97 133.93 135.47 134.66 135.34 Z M 135.59 135.17 L 136.61 135.02 C 137.34 134.90 137.85 134.22 137.73 133.49 C 137.62 132.75 136.94 132.25 136.20 132.36 L 135.18 132.52 C 134.45 132.63 133.95 133.32 134.06 134.05 C 134.17 134.79 134.86 135.29 135.59 135.17 Z M 136.59 135.02 L 137.55 134.88 C 138.28 134.78 138.79 134.10 138.69 133.37 C 138.59 132.64 137.91 132.13 137.18 132.23 L 136.22 132.37 C 135.49 132.47 134.98 133.14 135.08 133.88 C 135.18 134.61 135.86 135.12 136.59 135.02 Z M 137.55 134.88 L 137.72 134.86 C 138.45 134.76 138.96 134.08 138.86 133.35 C 138.76 132.62 138.09 132.11 137.36 132.21 L 137.18 132.23 C 136.45 132.33 135.94 133.01 136.04 133.74 C 136.14 134.47 136.81 134.98 137.55 134.88 Z"
      fill="black"
      fill-rule="nonzero" /><path d="M 127.09 139.93 L 127.99 140.36 C 128.68 140.70 129.52 140.41 129.85 139.71 C 130.18 139.02 129.89 138.19 129.20 137.86 L 128.29 137.42 C 127.60 137.09 126.77 137.38 126.44 138.07 C 126.10 138.76 126.40 139.60 127.09 139.93 Z M 128.20 140.46 L 129.13 140.73 C 129.88 140.95 130.66 140.52 130.88 139.78 C 131.09 139.04 130.67 138.26 129.93 138.04 L 128.99 137.76 C 128.25 137.55 127.47 137.97 127.25 138.71 C 127.03 139.46 127.46 140.24 128.20 140.46 Z M 129.46 140.78 L 130.44 140.83 C 131.21 140.87 131.87 140.27 131.91 139.50 C 131.95 138.73 131.35 138.07 130.58 138.03 L 129.60 137.98 C 128.83 137.95 128.17 138.54 128.13 139.32 C 128.09 140.09 128.69 140.75 129.46 140.78 Z M 130.65 140.82 L 131.64 140.71 C 132.41 140.63 132.96 139.95 132.88 139.18 C 132.80 138.42 132.12 137.86 131.36 137.94 L 130.36 138.05 C 129.60 138.13 129.04 138.81 129.12 139.58 C 129.20 140.34 129.89 140.90 130.65 140.82 Z M 131.75 140.69 L 132.72 140.51 C 133.47 140.37 133.97 139.65 133.83 138.90 C 133.69 138.15 132.97 137.65 132.21 137.79 L 131.25 137.97 C 130.50 138.11 130.00 138.83 130.14 139.58 C 130.28 140.33 131.00 140.83 131.75 140.69 Z M 132.78 140.49 L 133.78 140.25 C 134.52 140.08 134.98 139.34 134.81 138.60 C 134.64 137.86 133.90 137.40 133.16 137.58 L 132.16 137.81 C 131.42 137.98 130.96 138.72 131.13 139.46 C 131.30 140.20 132.04 140.66 132.78 140.49 Z M 133.81 140.24 L 134.70 140.01 C 135.43 139.82 135.87 139.08 135.68 138.34 C 135.49 137.61 134.75 137.17 134.02 137.36 L 133.13 137.59 C 132.40 137.78 131.96 138.53 132.15 139.26 C 132.34 139.99 133.08 140.43 133.81 140.24 Z M 134.72 140.00 L 135.70 139.73 C 136.42 139.53 136.85 138.78 136.65 138.06 C 136.45 137.33 135.70 136.91 134.98 137.11 L 134.00 137.37 C 133.27 137.57 132.85 138.32 133.05 139.05 C 133.25 139.77 133.99 140.20 134.72 140.00 Z M 135.71 139.72 L 136.76 139.42 C 137.48 139.21 137.89 138.46 137.69 137.75 C 137.48 137.03 136.73 136.61 136.01 136.82 L 134.97 137.11 C 134.25 137.32 133.83 138.07 134.04 138.79 C 134.24 139.51 134.99 139.93 135.71 139.72 Z M 136.76 139.41 L 137.75 139.12 C 138.47 138.92 138.88 138.17 138.67 137.45 C 138.46 136.73 137.71 136.32 137.00 136.53 L 136.01 136.82 C 135.29 137.03 134.88 137.78 135.09 138.50 C 135.30 139.21 136.05 139.62 136.76 139.41 Z M 137.76 139.12 L 138.75 138.83 C 139.47 138.61 139.87 137.86 139.66 137.15 C 139.45 136.44 138.70 136.03 137.99 136.24 L 136.99 136.54 C 136.28 136.75 135.87 137.50 136.08 138.21 C 136.30 138.93 137.05 139.33 137.76 139.12 Z M 138.76 138.82 L 139.68 138.54 C 140.39 138.33 140.79 137.58 140.58 136.87 C 140.37 136.16 139.62 135.75 138.90 135.97 L 137.98 136.25 C 137.27 136.46 136.87 137.21 137.08 137.92 C 137.30 138.63 138.05 139.03 138.76 138.82 Z M 139.69 138.54 L 140.74 138.21 C 141.45 138.00 141.85 137.24 141.63 136.53 C 141.41 135.82 140.66 135.43 139.95 135.65 L 138.90 135.97 C 138.19 136.19 137.79 136.94 138.01 137.65 C 138.23 138.36 138.98 138.76 139.69 138.54 Z M 140.76 138.21 L 141.66 137.93 C 142.37 137.70 142.76 136.94 142.54 136.23 C 142.31 135.52 141.55 135.13 140.84 135.36 L 139.94 135.64 C 139.23 135.87 138.84 136.63 139.06 137.34 C 139.29 138.05 140.05 138.44 140.76 138.21 Z M 141.67 137.93 L 142.12 137.78 C 142.83 137.55 143.22 136.79 142.99 136.08 C 142.76 135.37 141.99 134.98 141.28 135.21 L 140.84 135.36 C 140.13 135.59 139.74 136.35 139.96 137.06 C 140.19 137.77 140.96 138.16 141.67 137.93 Z"
      fill="black"
      fill-rule="nonzero" /><path d="M 129.35 144.60 L 130.30 144.94 C 131.02 145.20 131.82 144.83 132.08 144.10 C 132.34 143.38 131.96 142.58 131.24 142.32 L 130.28 141.98 C 129.56 141.72 128.76 142.10 128.51 142.82 C 128.25 143.55 128.62 144.34 129.35 144.60 Z M 130.53 145.02 L 131.48 145.18 C 132.25 145.32 132.97 144.80 133.11 144.04 C 133.24 143.27 132.73 142.55 131.96 142.41 L 131.01 142.25 C 130.24 142.12 129.52 142.63 129.38 143.39 C 129.25 144.16 129.76 144.88 130.53 145.02 Z M 131.82 145.20 L 132.82 145.13 C 133.59 145.07 134.17 144.41 134.12 143.63 C 134.07 142.86 133.40 142.28 132.62 142.33 L 131.63 142.40 C 130.85 142.45 130.27 143.12 130.32 143.89 C 130.38 144.67 131.05 145.25 131.82 145.20 Z M 132.98 145.10 L 133.95 144.91 C 134.71 144.77 135.20 144.04 135.06 143.28 C 134.91 142.53 134.18 142.03 133.43 142.18 L 132.46 142.36 C 131.70 142.50 131.21 143.24 131.35 143.99 C 131.50 144.75 132.23 145.24 132.98 145.10 Z M 134.00 144.90 L 135.00 144.66 C 135.75 144.49 136.21 143.74 136.04 142.99 C 135.86 142.25 135.12 141.78 134.37 141.96 L 133.37 142.19 C 132.62 142.37 132.16 143.11 132.34 143.86 C 132.51 144.61 133.26 145.07 134.00 144.90 Z M 135.01 144.65 L 136.00 144.41 C 136.74 144.24 137.20 143.49 137.02 142.75 C 136.84 142.01 136.09 141.55 135.35 141.73 L 134.36 141.97 C 133.62 142.15 133.17 142.89 133.34 143.63 C 133.52 144.38 134.27 144.83 135.01 144.65 Z M 136.00 144.41 L 136.95 144.17 C 137.69 144.00 138.14 143.26 137.97 142.52 C 137.79 141.78 137.05 141.33 136.31 141.51 L 135.35 141.74 C 134.62 141.92 134.16 142.66 134.34 143.39 C 134.52 144.13 135.26 144.58 136.00 144.41 Z M 136.94 144.17 L 137.91 143.94 C 138.64 143.77 139.09 143.04 138.92 142.31 C 138.75 141.57 138.02 141.12 137.29 141.29 L 136.32 141.52 C 135.59 141.69 135.14 142.42 135.31 143.15 C 135.48 143.88 136.21 144.34 136.94 144.17 Z M 137.88 143.94 L 138.86 143.73 C 139.59 143.57 140.06 142.85 139.90 142.12 C 139.74 141.39 139.02 140.93 138.29 141.08 L 137.31 141.29 C 136.58 141.45 136.12 142.17 136.27 142.90 C 136.43 143.63 137.15 144.10 137.88 143.94 Z M 138.83 143.73 L 139.80 143.54 C 140.53 143.40 141.01 142.69 140.86 141.96 C 140.72 141.23 140.02 140.76 139.29 140.90 L 138.32 141.08 C 137.59 141.23 137.12 141.93 137.26 142.66 C 137.40 143.39 138.10 143.87 138.83 143.73 Z M 139.79 143.54 L 140.75 143.36 C 141.48 143.23 141.96 142.53 141.83 141.80 C 141.70 141.07 141.00 140.59 140.27 140.72 L 139.30 140.90 C 138.57 141.03 138.09 141.73 138.22 142.46 C 138.36 143.19 139.06 143.67 139.79 143.54 Z"
      fill="black"
      fill-rule="nonzero" /><path d="M 129.29 151.38 L 129.66 152.32 C 129.94 153.05 130.75 153.41 131.48 153.13 C 132.21 152.85 132.57 152.03 132.29 151.31 L 131.92 150.37 C 131.64 149.64 130.83 149.28 130.10 149.56 C 129.37 149.84 129.01 150.66 129.29 151.38 Z M 129.64 152.29 L 129.97 153.21 C 130.23 153.95 131.04 154.33 131.77 154.07 C 132.50 153.81 132.89 153.01 132.63 152.27 L 132.30 151.35 C 132.04 150.61 131.24 150.23 130.50 150.49 C 129.77 150.75 129.38 151.55 129.64 152.29 Z M 129.95 153.14 L 130.20 154.01 C 130.42 154.76 131.20 155.19 131.95 154.97 C 132.70 154.75 133.12 153.97 132.91 153.22 L 132.65 152.35 C 132.43 151.60 131.65 151.17 130.90 151.39 C 130.16 151.61 129.73 152.39 129.95 153.14 Z M 130.18 153.93 L 130.42 154.98 C 130.60 155.74 131.35 156.21 132.11 156.04 C 132.87 155.86 133.34 155.11 133.17 154.35 L 132.93 153.30 C 132.75 152.54 132.00 152.07 131.24 152.24 C 130.48 152.42 130.01 153.17 130.18 153.93 Z M 130.41 154.93 L 130.60 155.89 C 130.74 156.65 131.48 157.15 132.24 157.00 C 133.01 156.86 133.51 156.12 133.36 155.36 L 133.18 154.40 C 133.03 153.64 132.29 153.14 131.53 153.28 C 130.77 153.43 130.27 154.17 130.41 154.93 Z M 130.59 155.86 L 130.77 156.88 C 130.90 157.64 131.63 158.16 132.39 158.02 C 133.16 157.89 133.67 157.17 133.54 156.40 L 133.36 155.38 C 133.23 154.62 132.50 154.11 131.74 154.24 C 130.97 154.37 130.46 155.10 130.59 155.86 Z M 130.77 156.86 L 130.92 157.86 C 131.04 158.63 131.76 159.15 132.53 159.03 C 133.30 158.91 133.82 158.19 133.70 157.43 L 133.54 156.42 C 133.42 155.66 132.70 155.13 131.94 155.25 C 131.17 155.37 130.65 156.09 130.77 156.86 Z M 130.92 157.84 L 131.07 158.92 C 131.18 159.69 131.89 160.22 132.65 160.12 C 133.42 160.01 133.96 159.30 133.85 158.54 L 133.70 157.45 C 133.60 156.69 132.89 156.15 132.12 156.26 C 131.35 156.36 130.82 157.07 130.92 157.84 Z M 131.07 158.90 L 131.19 159.86 C 131.29 160.63 131.98 161.18 132.75 161.08 C 133.52 160.99 134.06 160.29 133.97 159.52 L 133.85 158.56 C 133.76 157.79 133.06 157.24 132.29 157.34 C 131.52 157.43 130.98 158.13 131.07 158.90 Z M 131.20 159.86 L 131.31 160.80 C 131.41 161.57 132.10 162.11 132.87 162.02 C 133.63 161.92 134.18 161.23 134.08 160.46 L 133.97 159.52 C 133.87 158.76 133.17 158.21 132.41 158.31 C 131.64 158.40 131.10 159.10 131.20 159.86 Z M 131.32 160.81 L 131.45 161.80 C 131.55 162.56 132.24 163.10 133.01 163.00 C 133.77 162.90 134.31 162.20 134.21 161.44 L 134.08 160.45 C 133.98 159.69 133.28 159.15 132.52 159.25 C 131.75 159.35 131.22 160.05 131.32 160.81 Z M 131.45 161.79 L 131.59 162.93 C 131.68 163.69 132.37 164.23 133.13 164.14 C 133.89 164.05 134.43 163.36 134.34 162.60 L 134.20 161.45 C 134.11 160.69 133.42 160.15 132.66 160.25 C 131.90 160.34 131.36 161.03 131.45 161.79 Z M 131.61 163.03 L 131.75 163.74 C 131.90 164.49 132.62 164.98 133.37 164.83 C 134.12 164.69 134.61 163.96 134.46 163.21 L 134.32 162.50 C 134.17 161.75 133.45 161.26 132.70 161.41 C 131.95 161.56 131.46 162.28 131.61 163.03 Z M 134.47 163.65 L 134.58 162.80 C 134.67 162.05 134.14 161.36 133.39 161.26 C 132.63 161.17 131.95 161.70 131.85 162.45 L 131.74 163.30 C 131.64 164.06 132.18 164.75 132.93 164.84 C 133.68 164.94 134.37 164.41 134.47 163.65 Z M 134.57 162.80 L 134.72 161.62 C 134.81 160.87 134.28 160.18 133.53 160.09 C 132.78 160.00 132.09 160.53 132.00 161.28 L 131.85 162.46 C 131.76 163.21 132.29 163.90 133.04 163.99 C 133.80 164.08 134.48 163.55 134.57 162.80 Z M 134.70 161.72 L 134.90 160.75 C 135.05 160.01 134.57 159.28 133.83 159.13 C 133.09 158.98 132.37 159.46 132.22 160.20 L 132.02 161.18 C 131.87 161.92 132.35 162.64 133.09 162.79 C 133.83 162.94 134.55 162.46 134.70 161.72 Z M 134.87 160.86 L 135.15 159.91 C 135.36 159.18 134.94 158.42 134.21 158.21 C 133.49 158.00 132.73 158.42 132.52 159.15 L 132.24 160.09 C 132.03 160.82 132.45 161.58 133.18 161.79 C 133.90 162.00 134.66 161.58 134.87 160.86 Z M 135.11 160.02 L 135.47 159.09 C 135.74 158.38 135.39 157.59 134.68 157.32 C 133.97 157.05 133.18 157.40 132.91 158.10 L 132.56 159.04 C 132.28 159.74 132.64 160.53 133.34 160.80 C 134.05 161.07 134.84 160.72 135.11 160.02 Z M 135.42 159.19 L 135.86 158.29 C 136.19 157.61 135.90 156.79 135.22 156.46 C 134.54 156.13 133.72 156.42 133.39 157.10 L 132.96 158.00 C 132.63 158.68 132.91 159.50 133.59 159.83 C 134.27 160.16 135.09 159.87 135.42 159.19 Z M 135.81 158.39 L 136.31 157.53 C 136.70 156.88 136.48 156.04 135.83 155.65 C 135.17 155.27 134.33 155.49 133.95 156.14 L 133.44 157.00 C 133.06 157.65 133.28 158.49 133.93 158.88 C 134.58 159.26 135.42 159.04 135.81 158.39 Z M 136.26 157.62 L 136.82 156.81 C 137.26 156.18 137.10 155.33 136.48 154.89 C 135.86 154.46 135.00 154.62 134.57 155.24 L 134.00 156.05 C 133.57 156.67 133.72 157.53 134.35 157.96 C 134.97 158.40 135.83 158.24 136.26 157.62 Z M 136.76 156.90 L 137.36 156.16 C 137.85 155.57 137.76 154.70 137.18 154.22 C 136.59 153.74 135.72 153.83 135.24 154.41 L 134.63 155.15 C 134.15 155.74 134.24 156.60 134.82 157.08 C 135.41 157.57 136.28 157.48 136.76 156.90 Z M 137.28 156.25 L 138.02 155.51 C 138.55 154.97 138.55 154.10 138.01 153.57 C 137.47 153.03 136.60 153.03 136.07 153.57 L 135.33 154.32 C 134.79 154.85 134.80 155.72 135.33 156.26 C 135.87 156.79 136.74 156.79 137.28 156.25 Z M 137.93 155.59 L 138.71 154.93 C 139.29 154.44 139.36 153.57 138.87 152.99 C 138.38 152.42 137.51 152.34 136.93 152.83 L 136.15 153.49 C 135.58 153.98 135.50 154.85 135.99 155.43 C 136.49 156.01 137.35 156.08 137.93 155.59 Z M 138.64 154.99 L 139.46 154.37 C 140.07 153.92 140.20 153.06 139.75 152.45 C 139.30 151.84 138.44 151.71 137.83 152.17 L 137.00 152.78 C 136.39 153.23 136.26 154.09 136.72 154.70 C 137.17 155.31 138.03 155.44 138.64 154.99 Z M 139.39 154.42 L 140.22 153.89 C 140.85 153.48 141.04 152.63 140.63 151.99 C 140.21 151.35 139.36 151.17 138.73 151.58 L 137.90 152.12 C 137.26 152.53 137.08 153.38 137.49 154.01 C 137.90 154.65 138.75 154.83 139.39 154.42 Z M 140.09 153.96 L 141.06 153.47 C 141.74 153.13 142.01 152.31 141.67 151.63 C 141.32 150.95 140.50 150.68 139.82 151.02 L 138.85 151.51 C 138.18 151.85 137.90 152.68 138.25 153.35 C 138.59 154.03 139.41 154.30 140.09 153.96 Z M 140.83 153.56 L 141.70 153.30 C 142.42 153.09 142.84 152.32 142.62 151.59 C 142.40 150.87 141.63 150.45 140.91 150.67 L 140.05 150.93 C 139.32 151.15 138.91 151.91 139.12 152.64 C 139.34 153.37 140.11 153.78 140.83 153.56 Z M 141.29 153.37 L 142.30 153.38 C 143.06 153.39 143.69 152.78 143.70 152.02 C 143.71 151.25 143.10 150.63 142.34 150.62 L 141.32 150.61 C 140.56 150.60 139.93 151.21 139.92 151.97 C 139.91 152.73 140.52 153.36 141.29 153.37 Z M 141.44 153.07 L 142.11 153.62 C 142.70 154.11 143.57 154.02 144.06 153.43 C 144.54 152.83 144.46 151.96 143.87 151.47 L 143.20 150.93 C 142.61 150.44 141.73 150.53 141.25 151.12 C 140.76 151.71 140.85 152.59 141.44 153.07 Z M 141.67 153.00 L 141.99 153.96 C 142.24 154.69 143.03 155.08 143.76 154.83 C 144.49 154.58 144.88 153.79 144.63 153.06 L 144.31 152.10 C 144.06 151.37 143.26 150.98 142.54 151.23 C 141.81 151.47 141.42 152.27 141.67 153.00 Z M 141.92 153.65 L 142.02 154.63 C 142.10 155.40 142.79 155.96 143.56 155.89 C 144.33 155.81 144.89 155.12 144.81 154.35 L 144.71 153.36 C 144.63 152.60 143.94 152.03 143.17 152.11 C 142.40 152.19 141.84 152.88 141.92 153.65 Z M 142.01 154.41 L 141.96 155.39 C 141.91 156.17 142.50 156.83 143.28 156.87 C 144.05 156.92 144.71 156.33 144.76 155.55 L 144.81 154.57 C 144.86 153.80 144.27 153.14 143.49 153.09 C 142.72 153.05 142.06 153.64 142.01 154.41 Z M 141.99 155.16 L 141.75 156.21 C 141.57 156.96 142.05 157.72 142.80 157.89 C 143.56 158.07 144.31 157.59 144.49 156.84 L 144.73 155.79 C 144.90 155.03 144.43 154.28 143.67 154.10 C 142.92 153.93 142.16 154.40 141.99 155.16 Z M 141.81 156.01 L 141.44 156.94 C 141.16 157.66 141.52 158.48 142.24 158.76 C 142.97 159.04 143.78 158.68 144.06 157.96 L 144.43 157.04 C 144.71 156.31 144.35 155.50 143.63 155.21 C 142.90 154.93 142.09 155.29 141.81 156.01 Z M 141.50 156.82 L 141.04 157.73 C 140.69 158.42 140.96 159.27 141.66 159.62 C 142.35 159.97 143.20 159.69 143.55 159.00 L 144.01 158.08 C 144.36 157.39 144.08 156.54 143.39 156.19 C 142.69 155.84 141.85 156.12 141.50 156.82 Z M 141.08 157.64 L 140.58 158.49 C 140.18 159.16 140.40 160.02 141.07 160.42 C 141.73 160.82 142.60 160.60 143.00 159.93 L 143.50 159.08 C 143.90 158.42 143.68 157.55 143.01 157.15 C 142.35 156.76 141.48 156.98 141.08 157.64 Z M 140.63 158.41 L 140.02 159.29 C 139.58 159.93 139.73 160.81 140.37 161.25 C 141.01 161.69 141.89 161.53 142.33 160.90 L 142.94 160.01 C 143.39 159.37 143.23 158.50 142.59 158.05 C 141.95 157.61 141.07 157.77 140.63 158.41 Z M 140.09 159.20 L 139.47 159.95 C 138.98 160.55 139.07 161.44 139.67 161.93 C 140.27 162.43 141.16 162.34 141.65 161.73 L 142.27 160.98 C 142.76 160.38 142.67 159.50 142.07 159.00 C 141.46 158.51 140.58 158.60 140.09 159.20 Z M 139.54 159.87 L 138.89 160.56 C 138.36 161.12 138.38 162.01 138.94 162.55 C 139.51 163.08 140.40 163.06 140.93 162.50 L 141.58 161.81 C 142.12 161.25 142.10 160.36 141.53 159.82 C 140.97 159.29 140.08 159.31 139.54 159.87 Z M 138.96 160.49 L 138.24 161.15 C 137.67 161.68 137.63 162.57 138.15 163.14 C 138.67 163.71 139.56 163.75 140.13 163.23 L 140.86 162.57 C 141.43 162.04 141.47 161.15 140.95 160.58 C 140.43 160.01 139.54 159.97 138.96 160.49 Z M 138.32 161.09 L 137.51 161.73 C 136.90 162.21 136.80 163.09 137.28 163.70 C 137.76 164.30 138.64 164.41 139.25 163.93 L 140.06 163.29 C 140.66 162.81 140.77 161.93 140.29 161.32 C 139.81 160.71 138.93 160.61 138.32 161.09 Z M 137.60 161.67 L 136.73 162.26 C 136.09 162.69 135.92 163.56 136.35 164.20 C 136.79 164.84 137.65 165.01 138.29 164.57 L 139.16 163.99 C 139.80 163.55 139.97 162.68 139.54 162.05 C 139.10 161.41 138.23 161.24 137.60 161.67 Z M 136.87 162.18 L 135.99 162.64 C 135.31 162.99 135.04 163.83 135.39 164.51 C 135.74 165.20 136.58 165.46 137.27 165.11 L 138.15 164.65 C 138.83 164.30 139.10 163.46 138.75 162.78 C 138.39 162.09 137.55 161.83 136.87 162.18 Z M 136.33 162.52 L 135.36 162.74 C 134.61 162.90 134.14 163.64 134.31 164.39 C 134.48 165.14 135.22 165.60 135.96 165.44 L 136.93 165.22 C 137.67 165.06 138.14 164.32 137.98 163.57 C 137.81 162.83 137.07 162.36 136.33 162.52 Z M 135.83 162.73 L 134.87 162.61 C 134.12 162.52 133.44 163.06 133.35 163.81 C 133.26 164.56 133.79 165.24 134.54 165.33 L 135.50 165.45 C 136.25 165.54 136.93 165.00 137.02 164.25 C 137.11 163.50 136.58 162.82 135.83 162.73 Z M 135.01 162.65 L 134.80 162.60 C 134.07 162.43 133.34 162.89 133.17 163.62 C 133.00 164.35 133.46 165.08 134.19 165.25 L 134.40 165.30 C 135.13 165.47 135.86 165.01 136.03 164.28 C 136.20 163.55 135.74 162.82 135.01 162.65 Z"
      fill="black"
      fill-rule="nonzero" /><path d="M 149.44 140.78 L 150.38 141.05 C 151.11 141.26 151.87 140.84 152.08 140.11 C 152.29 139.38 151.86 138.62 151.13 138.41 L 150.20 138.14 C 149.47 137.93 148.71 138.35 148.50 139.08 C 148.29 139.81 148.71 140.58 149.44 140.78 Z M 150.67 141.12 L 151.65 141.18 C 152.42 141.23 153.08 140.65 153.13 139.88 C 153.18 139.11 152.59 138.45 151.82 138.40 L 150.84 138.34 C 150.07 138.29 149.41 138.88 149.36 139.65 C 149.32 140.41 149.90 141.08 150.67 141.12 Z M 151.97 141.17 L 152.91 141.01 C 153.67 140.88 154.19 140.16 154.05 139.39 C 153.92 138.63 153.20 138.12 152.43 138.25 L 151.50 138.41 C 150.74 138.54 150.22 139.27 150.35 140.03 C 150.49 140.79 151.21 141.30 151.97 141.17 Z M 153.04 140.98 L 154.09 140.70 C 154.83 140.49 155.27 139.72 155.07 138.98 C 154.87 138.23 154.10 137.79 153.35 137.99 L 152.30 138.28 C 151.56 138.48 151.12 139.25 151.32 140.00 C 151.52 140.74 152.29 141.19 153.04 140.98 Z M 154.12 140.69 L 155.10 140.39 C 155.84 140.17 156.27 139.39 156.05 138.65 C 155.83 137.91 155.05 137.49 154.31 137.71 L 153.32 138.00 C 152.58 138.22 152.16 139.00 152.38 139.74 C 152.60 140.48 153.38 140.91 154.12 140.69 Z M 155.12 140.39 L 156.08 140.09 C 156.82 139.86 157.24 139.08 157.01 138.34 C 156.78 137.61 156.00 137.19 155.26 137.42 L 154.29 137.72 C 153.56 137.94 153.14 138.73 153.37 139.46 C 153.60 140.20 154.38 140.62 155.12 140.39 Z M 156.10 140.08 L 157.08 139.77 C 157.81 139.54 158.21 138.75 157.98 138.02 C 157.75 137.29 156.96 136.88 156.23 137.11 L 155.25 137.43 C 154.51 137.66 154.11 138.44 154.34 139.18 C 154.58 139.91 155.36 140.32 156.10 140.08 Z M 157.08 139.76 L 158.01 139.46 C 158.74 139.22 159.14 138.44 158.90 137.71 C 158.66 136.98 157.88 136.58 157.15 136.82 L 156.22 137.12 C 155.49 137.36 155.09 138.14 155.33 138.87 C 155.57 139.60 156.35 140.00 157.08 139.76 Z M 157.99 139.46 L 158.90 139.18 C 159.63 138.95 160.04 138.18 159.82 137.45 C 159.59 136.72 158.82 136.31 158.09 136.54 L 157.17 136.82 C 156.45 137.05 156.04 137.82 156.26 138.55 C 156.49 139.28 157.26 139.69 157.99 139.46 Z M 158.87 139.18 L 159.83 138.91 C 160.56 138.71 160.98 137.95 160.78 137.22 C 160.57 136.49 159.82 136.06 159.08 136.27 L 158.12 136.54 C 157.39 136.74 156.97 137.50 157.17 138.23 C 157.38 138.96 158.14 139.39 158.87 139.18 Z M 159.81 138.91 L 160.63 138.69 C 161.36 138.50 161.79 137.75 161.60 137.02 C 161.40 136.29 160.65 135.85 159.92 136.05 L 159.10 136.27 C 158.37 136.46 157.94 137.21 158.14 137.94 C 158.33 138.67 159.08 139.10 159.81 138.91 Z M 160.64 138.68 L 161.70 138.38 C 162.43 138.18 162.85 137.43 162.65 136.70 C 162.44 135.98 161.69 135.56 160.97 135.76 L 159.91 136.06 C 159.18 136.26 158.76 137.01 158.96 137.74 C 159.17 138.46 159.92 138.88 160.64 138.68 Z M 161.73 138.37 L 162.67 138.09 C 163.39 137.87 163.80 137.12 163.58 136.40 C 163.37 135.68 162.61 135.27 161.89 135.49 L 160.95 135.77 C 160.23 135.99 159.82 136.74 160.04 137.46 C 160.25 138.18 161.01 138.59 161.73 138.37 Z M 162.68 138.08 L 163.67 137.78 C 164.39 137.55 164.79 136.79 164.57 136.08 C 164.34 135.37 163.59 134.97 162.87 135.19 L 161.88 135.49 C 161.17 135.72 160.77 136.47 160.99 137.19 C 161.21 137.90 161.97 138.30 162.68 138.08 Z M 163.68 137.77 L 164.68 137.45 C 165.39 137.22 165.78 136.46 165.55 135.75 C 165.32 135.04 164.56 134.65 163.85 134.88 L 162.86 135.19 C 162.15 135.42 161.76 136.18 161.98 136.89 C 162.21 137.61 162.97 138.00 163.68 137.77 Z M 164.69 137.44 L 165.71 137.10 C 166.41 136.86 166.79 136.10 166.56 135.39 C 166.32 134.69 165.55 134.31 164.85 134.54 L 163.83 134.88 C 163.13 135.12 162.75 135.89 162.99 136.59 C 163.22 137.30 163.99 137.68 164.69 137.44 Z M 165.73 137.09 L 166.71 136.74 C 167.41 136.49 167.77 135.72 167.52 135.02 C 167.27 134.32 166.50 133.95 165.79 134.20 L 164.82 134.55 C 164.12 134.80 163.76 135.58 164.01 136.28 C 164.26 136.98 165.03 137.34 165.73 137.09 Z M 166.73 136.74 L 167.57 136.42 C 168.26 136.15 168.62 135.37 168.35 134.68 C 168.09 133.98 167.31 133.63 166.61 133.89 L 165.77 134.21 C 165.07 134.47 164.72 135.25 164.99 135.95 C 165.25 136.65 166.03 137.00 166.73 136.74 Z M 167.57 136.42 L 167.66 136.38 C 168.36 136.11 168.71 135.33 168.44 134.64 C 168.17 133.94 167.39 133.59 166.69 133.86 L 166.60 133.89 C 165.91 134.16 165.56 134.94 165.83 135.64 C 166.09 136.34 166.88 136.68 167.57 136.42 Z"
      fill="black"
      fill-rule="nonzero" /><path d="M 159.65 124.07 L 158.64 123.70 C 157.93 123.44 157.14 123.81 156.88 124.52 C 156.62 125.24 156.99 126.03 157.70 126.29 L 158.71 126.66 C 159.43 126.92 160.22 126.55 160.48 125.83 C 160.74 125.12 160.37 124.33 159.65 124.07 Z M 157.18 124.02 L 156.74 124.47 C 156.20 125.02 156.21 125.90 156.76 126.44 C 157.31 126.97 158.19 126.97 158.72 126.42 L 159.16 125.97 C 159.70 125.42 159.69 124.54 159.15 124.00 C 158.60 123.46 157.72 123.47 157.18 124.02 Z M 156.33 125.48 L 156.36 126.65 C 156.38 127.42 157.02 128.04 157.79 128.02 C 158.57 128.00 159.18 127.36 159.16 126.58 L 159.13 125.41 C 159.12 124.63 158.47 124.02 157.70 124.04 C 156.92 124.06 156.31 124.70 156.33 125.48 Z M 156.36 126.81 L 156.49 127.74 C 156.60 128.51 157.31 129.05 158.09 128.94 C 158.86 128.83 159.40 128.11 159.29 127.34 L 159.16 126.42 C 159.05 125.64 158.34 125.11 157.56 125.22 C 156.79 125.32 156.25 126.04 156.36 126.81 Z M 156.49 127.78 L 156.67 128.79 C 156.80 129.57 157.54 130.08 158.31 129.95 C 159.08 129.82 159.60 129.08 159.46 128.31 L 159.29 127.30 C 159.15 126.52 158.42 126.01 157.65 126.14 C 156.88 126.27 156.36 127.01 156.49 127.78 Z M 156.67 128.81 L 156.86 129.86 C 157.01 130.63 157.75 131.14 158.52 131.00 C 159.29 130.85 159.80 130.11 159.66 129.34 L 159.47 128.29 C 159.32 127.52 158.58 127.01 157.81 127.15 C 157.03 127.30 156.52 128.04 156.67 128.81 Z M 156.86 129.86 L 157.05 130.89 C 157.20 131.66 157.94 132.17 158.72 132.03 C 159.49 131.88 160.00 131.14 159.86 130.36 L 159.66 129.34 C 159.52 128.56 158.77 128.05 158.00 128.20 C 157.22 128.34 156.71 129.09 156.86 129.86 Z M 157.05 130.88 L 157.22 131.84 C 157.36 132.61 158.11 133.13 158.88 132.99 C 159.66 132.85 160.17 132.10 160.03 131.33 L 159.86 130.37 C 159.72 129.59 158.97 129.08 158.20 129.22 C 157.42 129.36 156.91 130.11 157.05 130.88 Z M 157.22 131.82 L 157.38 132.81 C 157.52 133.59 158.25 134.12 159.03 133.99 C 159.81 133.86 160.33 133.12 160.20 132.34 L 160.04 131.35 C 159.91 130.57 159.17 130.04 158.39 130.17 C 157.61 130.30 157.09 131.04 157.22 131.82 Z M 157.38 132.78 L 157.51 133.74 C 157.62 134.52 158.35 135.06 159.13 134.95 C 159.91 134.84 160.46 134.12 160.35 133.34 L 160.21 132.38 C 160.10 131.60 159.38 131.05 158.60 131.16 C 157.81 131.27 157.27 132.00 157.38 132.78 Z M 157.51 133.70 L 157.62 134.65 C 157.71 135.43 158.42 135.99 159.20 135.90 C 159.98 135.81 160.55 135.11 160.46 134.32 L 160.35 133.38 C 160.26 132.59 159.55 132.03 158.77 132.12 C 157.98 132.21 157.42 132.92 157.51 133.70 Z M 157.61 134.63 L 157.72 135.63 C 157.80 136.41 158.50 136.98 159.29 136.90 C 160.07 136.82 160.64 136.12 160.56 135.34 L 160.46 134.34 C 160.38 133.55 159.68 132.98 158.89 133.06 C 158.11 133.14 157.53 133.84 157.61 134.63 Z M 157.72 135.63 L 157.82 136.63 C 157.90 137.42 158.61 137.99 159.39 137.90 C 160.18 137.82 160.75 137.12 160.67 136.33 L 160.56 135.33 C 160.48 134.55 159.78 133.98 158.99 134.06 C 158.21 134.14 157.63 134.84 157.72 135.63 Z M 157.82 136.63 L 157.93 137.62 C 158.01 138.40 158.71 138.97 159.50 138.89 C 160.29 138.81 160.86 138.10 160.77 137.31 L 160.67 136.33 C 160.58 135.54 159.88 134.97 159.09 135.06 C 158.31 135.14 157.74 135.85 157.82 136.63 Z M 157.92 137.61 L 158.02 138.63 C 158.10 139.41 158.80 139.99 159.59 139.91 C 160.38 139.83 160.95 139.13 160.87 138.34 L 160.77 137.33 C 160.70 136.54 159.99 135.96 159.21 136.04 C 158.42 136.12 157.85 136.82 157.92 137.61 Z M 158.02 138.61 L 158.10 139.56 C 158.17 140.35 158.87 140.93 159.65 140.86 C 160.44 140.80 161.03 140.10 160.96 139.32 L 160.88 138.36 C 160.81 137.57 160.12 136.99 159.33 137.06 C 158.54 137.13 157.96 137.82 158.02 138.61 Z M 158.10 139.55 L 158.18 140.55 C 158.24 141.34 158.93 141.93 159.71 141.87 C 160.50 141.82 161.09 141.13 161.04 140.34 L 160.96 139.33 C 160.90 138.54 160.21 137.95 159.42 138.01 C 158.63 138.07 158.04 138.76 158.10 139.55 Z M 158.18 140.54 L 158.25 141.56 C 158.30 142.35 158.98 142.95 159.77 142.90 C 160.56 142.84 161.16 142.16 161.11 141.37 L 161.04 140.35 C 160.98 139.56 160.30 138.96 159.51 139.02 C 158.72 139.07 158.12 139.75 158.18 140.54 Z M 158.25 141.56 L 158.31 142.55 C 158.36 143.34 159.04 143.94 159.83 143.89 C 160.62 143.84 161.22 143.15 161.17 142.36 L 161.11 141.38 C 161.06 140.59 160.38 139.99 159.59 140.04 C 158.80 140.09 158.20 140.77 158.25 141.56 Z M 158.31 142.54 L 158.37 143.55 C 158.41 144.34 159.09 144.95 159.88 144.90 C 160.67 144.85 161.28 144.18 161.23 143.39 L 161.17 142.37 C 161.12 141.58 160.45 140.98 159.66 141.02 C 158.87 141.07 158.26 141.75 158.31 142.54 Z M 158.37 143.54 L 158.42 144.56 C 158.46 145.35 159.14 145.96 159.93 145.91 C 160.72 145.87 161.33 145.20 161.28 144.41 L 161.23 143.39 C 161.19 142.60 160.51 142.00 159.72 142.04 C 158.93 142.08 158.33 142.75 158.37 143.54 Z M 158.42 144.55 L 158.47 145.56 C 158.51 146.35 159.18 146.96 159.97 146.92 C 160.76 146.88 161.37 146.21 161.33 145.42 L 161.28 144.42 C 161.25 143.62 160.57 143.01 159.78 143.05 C 158.99 143.09 158.38 143.76 158.42 144.55 Z M 158.47 145.55 L 158.51 146.54 C 158.55 147.34 159.22 147.95 160.01 147.91 C 160.80 147.88 161.41 147.21 161.38 146.42 L 161.33 145.42 C 161.30 144.63 160.63 144.02 159.84 144.06 C 159.05 144.09 158.43 144.76 158.47 145.55 Z M 158.51 146.54 L 158.56 147.54 C 158.59 148.33 159.26 148.94 160.05 148.91 C 160.84 148.87 161.45 148.20 161.42 147.41 L 161.38 146.42 C 161.34 145.63 160.67 145.01 159.88 145.05 C 159.09 145.08 158.48 145.75 158.51 146.54 Z M 158.56 147.54 L 158.60 148.54 C 158.64 149.33 159.31 149.94 160.10 149.91 C 160.89 149.87 161.50 149.20 161.46 148.41 L 161.42 147.41 C 161.38 146.62 160.71 146.01 159.92 146.04 C 159.13 146.08 158.52 146.75 158.56 147.54 Z M 158.60 148.54 L 158.65 149.54 C 158.68 150.33 159.35 150.95 160.14 150.91 C 160.93 150.87 161.55 150.20 161.51 149.41 L 161.47 148.41 C 161.43 147.62 160.76 147.01 159.97 147.04 C 159.18 147.08 158.56 147.75 158.60 148.54 Z M 158.65 149.54 L 158.69 150.54 C 158.73 151.33 159.40 151.94 160.19 151.91 C 160.98 151.87 161.59 151.20 161.56 150.41 L 161.51 149.41 C 161.48 148.62 160.81 148.01 160.01 148.04 C 159.22 148.08 158.61 148.75 158.65 149.54 Z M 158.69 150.54 L 158.73 151.55 C 158.77 152.34 159.44 152.96 160.23 152.92 C 161.02 152.89 161.63 152.22 161.60 151.43 L 161.56 150.41 C 161.52 149.62 160.85 149.01 160.06 149.04 C 159.27 149.08 158.66 149.75 158.69 150.54 Z M 158.73 151.55 L 158.77 152.55 C 158.80 153.34 159.47 153.95 160.26 153.92 C 161.06 153.89 161.67 153.22 161.64 152.43 L 161.60 151.43 C 161.57 150.64 160.90 150.02 160.11 150.06 C 159.32 150.09 158.70 150.76 158.73 151.55 Z M 158.77 152.54 L 158.81 153.53 C 158.84 154.32 159.50 154.94 160.29 154.91 C 161.09 154.89 161.71 154.22 161.68 153.43 L 161.64 152.44 C 161.61 151.64 160.95 151.02 160.16 151.05 C 159.36 151.08 158.74 151.75 158.77 152.54 Z M 158.81 153.52 L 158.84 154.55 C 158.86 155.34 159.52 155.97 160.32 155.94 C 161.11 155.92 161.73 155.26 161.71 154.46 L 161.68 153.44 C 161.65 152.64 160.99 152.02 160.20 152.04 C 159.41 152.07 158.78 152.73 158.81 153.52 Z M 158.84 154.54 L 158.86 155.53 C 158.88 156.32 159.54 156.95 160.33 156.93 C 161.12 156.91 161.75 156.26 161.73 155.46 L 161.71 154.47 C 161.69 153.68 161.03 153.05 160.24 153.07 C 159.45 153.09 158.82 153.75 158.84 154.54 Z M 158.86 155.52 L 158.87 156.51 C 158.89 157.30 159.54 157.93 160.33 157.92 C 161.12 157.91 161.76 157.26 161.75 156.46 L 161.73 155.47 C 161.72 154.68 161.07 154.05 160.28 154.06 C 159.48 154.07 158.85 154.72 158.86 155.52 Z M 158.87 156.50 L 158.88 157.50 C 158.89 158.29 159.54 158.93 160.33 158.92 C 161.12 158.92 161.76 158.27 161.75 157.48 L 161.75 156.47 C 161.74 155.68 161.09 155.04 160.30 155.05 C 159.51 155.05 158.87 155.70 158.87 156.50 Z M 158.88 157.50 L 158.89 158.48 C 158.90 159.27 159.54 159.91 160.34 159.90 C 161.13 159.90 161.77 159.25 161.76 158.46 L 161.75 157.47 C 161.75 156.68 161.10 156.04 160.31 156.05 C 159.51 156.06 158.88 156.70 158.88 157.50 Z M 158.89 158.49 L 158.90 159.47 C 158.92 160.26 159.57 160.89 160.36 160.88 C 161.15 160.87 161.79 160.22 161.78 159.42 L 161.76 158.45 C 161.75 157.65 161.10 157.02 160.31 157.03 C 159.51 157.04 158.88 157.70 158.89 158.49 Z M 158.90 159.47 L 158.92 160.47 C 158.93 161.27 159.58 161.90 160.38 161.89 C 161.17 161.88 161.81 161.22 161.79 160.43 L 161.78 159.42 C 161.76 158.63 161.11 158.00 160.32 158.01 C 159.52 158.02 158.89 158.67 158.90 159.47 Z M 158.92 160.47 L 158.93 161.47 C 158.94 162.27 159.59 162.90 160.38 162.89 C 161.18 162.89 161.81 162.24 161.80 161.44 L 161.79 160.44 C 161.79 159.64 161.14 159.00 160.34 159.01 C 159.55 159.02 158.91 159.67 158.92 160.47 Z M 158.93 161.46 L 158.93 162.46 C 158.94 163.26 159.58 163.90 160.38 163.90 C 161.17 163.89 161.81 163.25 161.81 162.45 L 161.80 161.45 C 161.80 160.66 161.15 160.02 160.36 160.02 C 159.57 160.02 158.93 160.67 158.93 161.46 Z M 158.93 162.46 L 158.93 163.47 C 158.93 164.26 159.58 164.91 160.37 164.91 C 161.17 164.91 161.81 164.26 161.81 163.47 L 161.81 162.46 C 161.81 161.66 161.16 161.02 160.37 161.02 C 159.57 161.02 158.93 161.66 158.93 162.46 Z M 158.93 163.46 L 158.93 164.78 C 158.92 165.57 159.57 166.22 160.36 166.22 C 161.15 166.23 161.80 165.59 161.80 164.79 L 161.81 163.47 C 161.81 162.68 161.17 162.03 160.38 162.03 C 159.58 162.03 158.94 162.67 158.93 163.46 Z M 158.93 164.65 L 158.88 165.20 C 158.81 166.00 159.39 166.70 160.18 166.77 C 160.97 166.85 161.67 166.27 161.75 165.48 L 161.80 164.92 C 161.87 164.13 161.29 163.43 160.50 163.35 C 159.71 163.28 159.01 163.86 158.93 164.65 Z M 161.73 165.13 L 161.61 164.35 C 161.49 163.56 160.76 163.02 159.98 163.14 C 159.20 163.26 158.66 163.99 158.78 164.77 L 158.89 165.55 C 159.01 166.34 159.74 166.88 160.53 166.76 C 161.31 166.64 161.85 165.91 161.73 165.13 Z M 161.61 164.44 L 161.51 163.17 C 161.44 162.38 160.75 161.80 159.97 161.87 C 159.18 161.93 158.60 162.62 158.67 163.41 L 158.78 164.68 C 158.84 165.46 159.53 166.04 160.31 165.98 C 161.10 165.91 161.68 165.22 161.61 164.44 Z M 161.48 163.24 L 161.44 162.20 C 161.41 161.43 160.77 160.83 160.00 160.86 C 159.23 160.88 158.63 161.53 158.66 162.30 L 158.70 163.34 C 158.72 164.11 159.37 164.71 160.14 164.68 C 160.91 164.65 161.51 164.00 161.48 163.24 Z M 161.40 162.24 L 161.40 161.60 C 161.40 160.86 160.79 160.25 160.04 160.26 C 159.29 160.26 158.69 160.87 158.69 161.62 L 158.70 162.25 C 158.70 163.00 159.31 163.61 160.06 163.60 C 160.80 163.60 161.41 162.99 161.40 162.24 Z"
      fill="black"
      fill-rule="nonzero" /></svg>