<svg xmlns="http://www.w3.org/2000/svg" width="300" height="300" viewBox="0 0 300 300">
<path d="M 118.5 125.0 L 118.5 125.5 L 118.5 126.0 L 119.0 126.0 L 119.0 126.5 L 121.0 126.5 L 121.5 126.5 L 125.0 126.5 L 126.0 126.0 L 129.5 126.0 L 130.0 126.0 " stroke="black" fill="none" stroke-width="2.0" stroke-linecap="round" stroke-linejoin="round" />
<path d="M 115.0 134.5 L 115.0 136.5 L 115.0 136.5 L 115.0 137.0 L 115.0 137.0 L 116.5 137.0 L 117.0 137.0 L 121.0 135.5 L 126.5 133.5 L 130.5 132.0 L 132.5 131.5 " stroke="black" fill="none" stroke-width="2.0" stroke-linecap="round" stroke-linejoin="round" />
<path d="M 117.0 143.5 L 117.0 143.5 L 118.0 143.5 L 119.5 143.5 L 123.0 142.5 L 128.0 141.0 L 132.0 140.0 L 133.0 140.0 " stroke="black" fill="none" stroke-width="2.0" stroke-linecap="round" stroke-linejoin="round" />
<path d="M 121.0 151.0 L 122.0 151.0 L 123.5 151.0 L 125.5 150.0 L 127.0 149.5 L 127.5 149.0 L 129.0 148.5 L 129.5 148.0 " stroke="black" fill="none" stroke-width="2.0" stroke-linecap="round" stroke-linejoin="round" />
<path d="M 123.5 155.5 L 123.5 155.5 L 123.5 156.0 L 123.5 156.0 L 123.5 156.0 L 123.5 157.0 L 124.5 160.0 L 125.0 166.0 L 125.0 171.0 L 124.5 172.5 L 125.0 172.0 L 127.0 169.5 L 128.0 168.5 L 130.5 166.0 L 131.5 165.5 L 134.0 164.5 L 134.5 165.0 L 133.5 168.5 L 130.5 173.0 L 127.5 175.5 L 126.5 176.0 L 126.5 176.0 " stroke="black" fill="none" stroke-width="2.0" stroke-linecap="round" stroke-linejoin="round" />
<path d="M 149.5 119.5 L 149.0 120.0 L 148.0 120.0 L 148.0 120.5 L 148.5 120.5 L 151.5 120.5 L 156.0 120.0 L 158.5 119.5 " stroke="black" fill="none" stroke-width="2.0" stroke-linecap="round" stroke-linejoin="round" />
<path d="M 145.0 132.5 L 145.0 133.5 L 145.0 134.0 L 148.0 133.5 L 152.5 132.0 L 156.0 130.5 L 157.5 130.0 L 160.0 128.5 L 161.0 128.5 L 162.0 127.5 L 162.0 127.5 L 161.5 127.5 L 161.0 128.0 L 161.0 128.0 L 161.0 128.0 L 161.0 128.0 L 161.0 128.0 L 161.0 128.0 L 161.0 128.5 L 161.0 128.5 L 161.0 129.5 L 161.0 132.0 L 161.5 139.5 L 162.0 153.0 L 162.0 165.5 L 162.0 172.5 L 162.0 174.0 L 162.0 174.0 L 162.0 174.5 L 162.0 174.5 L 162.0 174.5 L 161.5 174.0 L 161.0 173.5 L 160.5 173.5 L 159.0 171.5 " stroke="black" fill="none" stroke-width="2.0" stroke-linecap="round" stroke-linejoin="round" />
<path d="M 144.0 150.5 L 144.0 150.5 L 144.0 151.0 L 144.5 151.0 L 146.5 150.5 L 149.0 150.0 L 150.0 150.0 L 150.0 150.5 L 150.5 151.5 L 150.5 152.5 L 149.0 155.0 L 148.0 156.0 L 145.0 160.0 L 142.5 162.0 L 142.0 162.5 L 142.5 161.5 " stroke="black" fill="none" stroke-width="2.0" stroke-linecap="round" stroke-linejoin="round" />
<path d="M 175.5 138.0 L 176.5 138.0 L 177.0 138.0 L 177.0 138.0 L 176.5 139.0 L 176.0 140.0 L 174.5 142.0 L 174.0 143.0 L 172.0 146.0 L 171.5 147.0 L 169.5 149.0 L 169.0 149.5 L 170.5 150.0 L 174.0 150.5 L 177.5 152.5 L 180.0 154.5 L 181.0 156.5 L 181.0 157.0 L 181.0 157.0 " stroke="black" fill="none" stroke-width="2.0" stroke-linecap="round" stroke-linejoin="round" />
</svg>