<svg xmlns="http://www.w3.org/2000/svg" width="300" height="300" viewBox="0 0 300 300">
<path d="M 115.5 119.0 L 116.0 120.0 L 116.5 120.5 L 117.5 120.5 L 121.0 121.0 L 126.0 121.5 L 130.0 122.0 L 131.0 122.0 " stroke="black" fill="none" stroke-width="2.0" stroke-linecap="round" stroke-linejoin="round" />
<path d="M 117.0 132.0 L 116.0 134.0 L 116.0 134.5 L 116.0 134.5 L 116.0 134.0 L 118.5 133.5 L 119.5 133.5 L 125.0 133.0 L 130.5 132.5 L 133.5 133.5 " stroke="black" fill="none" stroke-width="2.0" stroke-linecap="round" stroke-linejoin="round" />
<path d="M 119.5 142.0 L 119.0 142.5 L 119.0 142.5 L 119.5 142.5 L 122.5 142.5 L 127.5 141.5 L 131.5 141.5 " stroke="black" fill="none" stroke-width="2.0" stroke-linecap="round" stroke-linejoin="round" />
<path d="M 121.0 150.5 L 120.0 151.5 L 120.0 151.5 L 122.0 151.5 L 125.5 151.0 L 128.5 151.0 L 129.0 151.0 " stroke="black" fill="none" stroke-width="2.0" stroke-linecap="round" stroke-linejoin="round" />
<path d="M 124.5 155.5 L 123.5 157.0 L 123.0 157.5 L 123.0 157.5 L 123.0 158.0 L 123.5 161.0 L 123.5 164.5 L 124.0 166.0 L 124.0 169.5 L 124.0 170.0 L 124.0 170.0 L 124.0 169.5 L 124.5 168.5 L 126.5 164.5 L 129.5 161.5 L 132.0 160.5 L 133.0 161.5 L 132.5 166.0 L 131.0 170.0 L 130.0 171.0 L 127.5 173.5 L 127.0 174.0 L 125.0 175.0 L 124.5 175.0 L 124.0 174.5 L 124.0 173.5 " stroke="black" fill="none" stroke-width="2.0" stroke-linecap="round" stroke-linejoin="round" />
<path d="M 143.5 129.0 L 142.5 129.0 L 141.5 129.5 L 141.5 129.5 L 141.0 129.5 L 143.0 129.5 L 149.5 128.0 L 159.0 126.0 L 169.0 124.0 L 175.5 122.5 L 176.0 123.0 " stroke="black" fill="none" stroke-width="2.0" stroke-linecap="round" stroke-linejoin="round" />
<path d="M 151.0 132.5 L 151.0 132.5 L 151.5 133.0 L 151.5 133.0 L 151.5 135.0 L 151.5 140.5 L 151.0 148.0 L 151.0 150.5 L 150.0 161.5 L 150.0 166.5 L 150.0 166.5 L 150.5 164.5 " stroke="black" fill="none" stroke-width="2.0" stroke-linecap="round" stroke-linejoin="round" />
<path d="M 150.5 155.0 L 151.0 151.5 L 151.5 149.5 L 151.5 149.5 L 152.0 149.0 L 152.0 149.0 L 154.5 148.0 L 158.5 147.5 L 162.0 147.5 L 163.5 148.5 L 163.0 150.5 L 160.0 154.0 L 157.0 157.5 L 155.5 159.0 L 155.0 159.5 L 154.5 159.5 L 154.5 159.5 " stroke="black" fill="none" stroke-width="2.0" stroke-linecap="round" stroke-linejoin="round" />
<path d="M 159.5 120.5 L 159.5 120.5 L 159.5 120.5 L 159.5 120.5 L 159.5 120.5 L 160.0 120.5 L 162.0 123.5 L 163.0 125.5 L 169.5 137.5 L 175.5 153.0 L 179.0 165.5 L 181.0 172.5 L 181.5 175.0 L 181.5 175.5 L 181.0 174.5 L 180.5 173.5 L 179.0 168.5 " stroke="black" fill="none" stroke-width="2.0" stroke-linecap="round" stroke-linejoin="round" />
<path d="M 166.5 115.0 L 166.0 114.0 L 165.5 113.5 L 166.5 113.0 L 169.0 113.0 L 170.0 113.0 L 174.5 115.5 L 176.0 116.5 " stroke="black" fill="none" stroke-width="2.0" stroke-linecap="round" stroke-linejoin="round" />
<path d="M 183.5 143.5 L 183.5 143.5 L 183.5 143.5 L 183.5 143.5 L 183.5 143.5 L 183.5 144.0 L 183.0 144.5 L 180.0 149.5 L 174.5 160.0 L 168.0 171.0 L 165.5 174.5 " stroke="black" fill="none" stroke-width="2.0" stroke-linecap="round" stroke-linejoin="round" />
</svg>