<svg xmlns="http://www.w3.org/2000/svg" width="300" height="300" viewBox="0 0 300 300">
<path d="M 126.0 128.5 L 125.5 128.5 L 124.5 128.5 L 124.5 128.5 L 125.0 128.5 L 128.5 128.5 L 132.5 128.5 L 134.0 128.5 L 138.5 128.5 L 140.0 128.5 L 144.5 128.5 L 146.0 128.5 L 146.0 129.0 L 145.0 130.0 L 144.0 130.5 L 143.5 131.5 L 142.5 132.5 L 142.0 133.0 L 141.0 134.5 L 139.5 136.5 L 139.0 137.0 L 138.5 137.5 " stroke="black" fill="none" stroke-width="2.0" stroke-linecap="round" stroke-linejoin="round" />
<path d="M 132.0 137.5 L 132.0 137.5 L 132.0 138.0 L 132.0 138.0 L 132.0 138.5 L 132.0 138.5 L 132.5 139.0 L 135.0 139.5 L 138.0 141.0 L 141.0 143.0 L 142.0 143.5 " stroke="black" fill="none" stroke-width="2.0" stroke-linecap="round" stroke-linejoin="round" />
<path d="M 125.0 145.0 L 125.0 145.0 L 124.5 145.0 L 124.5 145.0 L 124.5 145.0 L 126.0 145.0 L 126.5 145.0 L 132.5 145.5 L 140.0 145.5 L 146.5 145.5 L 149.5 145.5 L 150.5 146.0 L 150.5 146.5 L 150.0 147.5 L 149.0 149.0 L 148.0 150.0 L 147.0 151.0 L 147.0 151.5 L 145.5 152.5 " stroke="black" fill="none" stroke-width="2.0" stroke-linecap="round" stroke-linejoin="round" />
<path d="M 138.5 145.0 L 138.0 144.5 L 137.5 144.5 L 137.0 144.5 L 137.0 145.0 L 137.0 148.5 L 137.5 153.0 L 137.5 155.0 L 137.5 161.0 L 137.0 163.0 L 136.5 168.5 L 136.0 170.0 L 135.0 172.5 L 134.5 173.0 L 134.0 172.5 L 132.5 171.0 L 130.5 169.0 L 129.0 168.0 L 128.5 167.5 " stroke="black" fill="none" stroke-width="2.0" stroke-linecap="round" stroke-linejoin="round" />
<path d="M 163.0 115.0 L 163.0 115.0 L 163.0 115.0 L 162.5 115.0 L 162.5 115.0 L 162.5 115.0 L 162.0 115.0 L 160.5 116.5 L 157.5 119.5 L 154.0 123.0 L 152.0 125.0 " stroke="black" fill="none" stroke-width="2.0" stroke-linecap="round" stroke-linejoin="round" />
<path d="M 158.0 119.5 L 158.5 119.5 L 159.0 119.5 L 161.5 119.5 L 165.5 120.0 L 169.0 120.0 L 171.0 120.5 L 171.5 120.5 L 172.0 121.0 L 172.0 121.0 L 172.0 121.5 L 171.0 122.5 L 169.5 123.0 L 167.5 124.5 L 164.5 126.0 L 161.5 127.5 L 158.5 129.5 " stroke="black" fill="none" stroke-width="2.0" stroke-linecap="round" stroke-linejoin="round" />
<path d="M 154.0 130.0 L 154.0 130.0 L 154.0 130.0 L 154.0 130.0 L 153.5 130.0 L 153.5 130.0 L 153.5 130.0 L 153.5 130.5 L 154.0 133.5 L 154.0 138.5 L 154.0 142.5 L 154.0 144.5 " stroke="black" fill="none" stroke-width="2.0" stroke-linecap="round" stroke-linejoin="round" />
<path d="M 156.5 131.0 L 156.5 131.0 L 157.0 131.0 L 158.5 131.0 L 163.5 130.5 L 168.5 130.5 L 172.0 132.0 L 173.5 134.5 L 173.5 136.5 L 173.5 137.5 L 173.0 140.0 L 173.0 140.5 L 172.0 143.0 L 170.5 144.0 " stroke="black" fill="none" stroke-width="2.0" stroke-linecap="round" stroke-linejoin="round" />
<path d="M 161.0 131.5 L 160.5 131.5 L 160.0 131.5 L 160.0 131.5 L 160.0 132.0 L 160.0 134.5 L 160.0 138.5 L 160.0 142.0 L 160.0 143.0 L 160.0 144.0 " stroke="black" fill="none" stroke-width="2.0" stroke-linecap="round" stroke-linejoin="round" />
<path d="M 158.0 143.0 L 158.0 143.0 L 158.0 143.0 L 158.0 143.0 L 158.0 143.5 L 159.0 143.5 L 161.5 143.5 L 162.5 143.5 L 167.0 143.5 L 170.5 143.5 L 171.0 143.5 L 172.0 143.5 " stroke="black" fill="none" stroke-width="2.0" stroke-linecap="round" stroke-linejoin="round" />
<path d="M 165.5 144.5 L 165.5 144.0 L 165.5 144.0 L 165.5 144.0 L 165.5 144.0 L 165.5 144.0 L 165.5 144.0 L 164.5 144.5 L 164.0 145.0 L 161.0 148.0 L 157.0 152.5 L 153.5 156.0 L 152.5 157.5 " stroke="black" fill="none" stroke-width="2.0" stroke-linecap="round" stroke-linejoin="round" />
<path d="M 162.0 149.0 L 162.0 149.0 L 162.0 149.0 L 162.5 149.5 L 164.0 151.0 L 166.5 154.0 L 169.0 159.0 L 170.0 163.5 L 170.0 165.5 L 170.0 169.5 L 170.0 171.0 L 169.5 174.5 L 168.5 176.5 L 168.0 176.5 L 167.5 176.5 " stroke="black" fill="none" stroke-width="2.0" stroke-linecap="round" stroke-linejoin="round" />
<path d="M 164.5 153.0 L 164.5 153.0 L 164.5 153.0 L 164.5 153.0 L 164.5 153.0 L 164.5 153.0 L 164.0 153.0 L 163.5 153.5 L 162.0 155.5 L 158.5 159.0 L 155.5 162.5 L 154.0 164.0 " stroke="black" fill="none" stroke-width="2.0" stroke-linecap="round" stroke-linejoin="round" />
<path d="M 166.5 159.0 L 166.5 160.0 L 166.0 160.5 L 165.5 161.0 L 164.5 162.0 L 162.5 164.5 L 159.5 167.0 L 156.5 169.5 L 155.5 170.0 L 153.5 171.5 L 153.0 172.0 L 153.0 172.0 " stroke="black" fill="none" stroke-width="2.0" stroke-linecap="round" stroke-linejoin="round" />
<path d="M 178.0 153.0 L 178.5 153.0 L 178.5 153.0 L 179.0 153.0 L 179.0 153.0 L 178.5 154.5 L 177.0 157.5 L 174.5 161.5 L 173.5 163.5 L 173.0 164.0 L 173.0 165.5 L 173.0 166.0 L 175.0 167.0 L 178.0 168.0 L 181.0 169.5 L 182.5 171.0 L 183.0 172.0 " stroke="black" fill="none" stroke-width="2.0" stroke-linecap="round" stroke-linejoin="round" />
</svg>