<svg xmlns="http://www.w3.org/2000/svg" width="300" height="300" viewBox="0 0 300 300">
<path d="M 140.34 118.66 L 139.99 119.66 C 139.74 120.37 140.12 121.15 140.83 121.40 C 141.54 121.64 142.32 121.27 142.57 120.56 L 142.92 119.55 C 143.16 118.84 142.79 118.07 142.08 117.82 C 141.36 117.57 140.59 117.95 140.34 118.66 Z M 140.02 119.56 L 139.63 120.45 C 139.33 121.14 139.64 121.95 140.34 122.25 C 141.03 122.56 141.84 122.24 142.14 121.55 L 142.53 120.66 C 142.84 119.97 142.52 119.16 141.83 118.85 C 141.14 118.55 140.33 118.87 140.02 119.56 Z M 139.78 120.19 L 139.20 120.98 C 138.75 121.60 138.88 122.45 139.49 122.90 C 140.10 123.35 140.96 123.22 141.41 122.61 L 142.00 121.81 C 142.44 121.20 142.31 120.34 141.70 119.89 C 141.09 119.44 140.23 119.58 139.78 120.19 Z M 139.49 120.69 L 138.71 121.26 C 138.10 121.71 137.97 122.57 138.42 123.18 C 138.87 123.80 139.73 123.93 140.34 123.48 L 141.12 122.90 C 141.73 122.45 141.86 121.59 141.41 120.98 C 140.96 120.37 140.10 120.24 139.49 120.69 Z M 138.91 121.14 L 138.02 121.58 C 137.34 121.91 137.06 122.74 137.40 123.42 C 137.74 124.10 138.56 124.38 139.24 124.04 L 140.13 123.60 C 140.81 123.27 141.09 122.44 140.76 121.76 C 140.42 121.08 139.59 120.80 138.91 121.14 Z M 138.11 121.54 L 137.18 121.92 C 136.48 122.21 136.14 123.01 136.43 123.71 C 136.72 124.41 137.52 124.75 138.22 124.46 L 139.15 124.08 C 139.85 123.79 140.19 122.99 139.90 122.29 C 139.62 121.59 138.81 121.25 138.11 121.54 Z M 137.21 121.91 L 136.28 122.27 C 135.57 122.53 135.21 123.33 135.48 124.03 C 135.75 124.74 136.55 125.10 137.25 124.83 L 138.19 124.47 C 138.90 124.20 139.25 123.41 138.98 122.70 C 138.71 122.00 137.92 121.64 137.21 121.91 Z M 136.32 122.25 L 135.39 122.57 C 134.68 122.82 134.29 123.60 134.54 124.31 C 134.79 125.03 135.57 125.41 136.28 125.16 L 137.21 124.84 C 137.93 124.60 138.31 123.82 138.06 123.10 C 137.82 122.39 137.04 122.01 136.32 122.25 Z M 135.43 122.56 L 134.48 122.85 C 133.76 123.08 133.36 123.84 133.58 124.57 C 133.81 125.29 134.57 125.69 135.30 125.47 L 136.24 125.17 C 136.97 124.95 137.37 124.18 137.14 123.46 C 136.92 122.74 136.15 122.33 135.43 122.56 Z M 134.49 122.85 L 133.51 123.15 C 132.79 123.37 132.38 124.14 132.60 124.86 C 132.83 125.58 133.59 125.99 134.31 125.77 L 135.29 125.47 C 136.02 125.25 136.42 124.48 136.20 123.76 C 135.98 123.03 135.21 122.63 134.49 122.85 Z M 133.49 123.16 L 132.53 123.47 C 131.81 123.70 131.42 124.47 131.65 125.19 C 131.88 125.91 132.65 126.30 133.37 126.07 L 134.33 125.76 C 135.05 125.53 135.45 124.76 135.22 124.04 C 134.98 123.32 134.21 122.92 133.49 123.16 Z M 132.50 123.48 L 131.54 123.81 C 130.83 124.06 130.45 124.85 130.70 125.56 C 130.95 126.27 131.74 126.65 132.45 126.40 L 133.40 126.06 C 134.12 125.81 134.49 125.03 134.24 124.32 C 133.99 123.60 133.21 123.23 132.50 123.48 Z M 131.49 123.83 L 130.56 124.20 C 129.86 124.48 129.52 125.27 129.79 125.98 C 130.07 126.68 130.87 127.02 131.57 126.75 L 132.50 126.38 C 133.20 126.10 133.55 125.31 133.27 124.60 C 132.99 123.90 132.19 123.55 131.49 123.83 Z M 130.51 124.22 L 129.60 124.62 C 128.91 124.93 128.60 125.74 128.91 126.43 C 129.21 127.12 130.02 127.43 130.71 127.13 L 131.62 126.72 C 132.31 126.42 132.63 125.61 132.32 124.92 C 132.01 124.23 131.20 123.91 130.51 124.22 Z M 129.54 124.65 L 128.66 125.10 C 127.98 125.44 127.71 126.26 128.05 126.94 C 128.39 127.61 129.22 127.89 129.89 127.54 L 130.78 127.10 C 131.45 126.76 131.72 125.93 131.38 125.26 C 131.04 124.58 130.22 124.31 129.54 124.65 Z M 128.55 125.16 L 127.69 125.70 C 127.05 126.10 126.85 126.94 127.26 127.59 C 127.66 128.23 128.50 128.42 129.15 128.02 L 130.00 127.48 C 130.65 127.08 130.84 126.23 130.44 125.59 C 130.03 124.95 129.19 124.76 128.55 125.16 Z M 127.43 125.90 L 126.75 126.61 C 126.22 127.16 126.23 128.03 126.78 128.56 C 127.33 129.08 128.20 129.07 128.72 128.52 L 129.41 127.81 C 129.93 127.27 129.92 126.40 129.37 125.87 C 128.83 125.34 127.96 125.36 127.43 125.90 Z M 126.38 127.31 L 126.21 128.25 C 126.07 128.99 126.56 129.71 127.30 129.85 C 128.05 129.99 128.77 129.50 128.91 128.75 L 129.08 127.82 C 129.22 127.07 128.73 126.36 127.99 126.22 C 127.24 126.08 126.52 126.57 126.38 127.31 Z M 126.42 129.26 L 126.91 130.00 C 127.33 130.63 128.18 130.80 128.81 130.37 C 129.44 129.95 129.61 129.10 129.19 128.47 L 128.70 127.74 C 128.28 127.11 127.42 126.94 126.79 127.36 C 126.16 127.78 125.99 128.63 126.42 129.26 Z M 127.10 130.22 L 127.87 130.97 C 128.42 131.50 129.29 131.48 129.82 130.93 C 130.34 130.38 130.32 129.51 129.78 128.99 L 129.00 128.24 C 128.45 127.72 127.58 127.73 127.06 128.28 C 126.53 128.83 126.55 129.70 127.10 130.22 Z M 127.84 130.94 L 128.58 131.69 C 129.11 132.24 129.98 132.25 130.52 131.72 C 131.07 131.19 131.08 130.32 130.55 129.77 L 129.81 129.02 C 129.28 128.48 128.41 128.46 127.87 128.99 C 127.32 129.53 127.31 130.40 127.84 130.94 Z M 128.50 131.61 L 129.14 132.38 C 129.62 132.97 130.49 133.05 131.07 132.57 C 131.66 132.09 131.74 131.22 131.26 130.63 L 130.63 129.86 C 130.14 129.27 129.27 129.19 128.69 129.67 C 128.10 130.15 128.02 131.02 128.50 131.61 Z M 129.06 132.29 L 129.62 133.10 C 130.05 133.72 130.91 133.88 131.54 133.45 C 132.17 133.02 132.32 132.16 131.89 131.53 L 131.33 130.72 C 130.90 130.10 130.04 129.94 129.42 130.37 C 128.79 130.80 128.63 131.66 129.06 132.29 Z M 129.55 132.99 L 130.03 133.85 C 130.40 134.51 131.24 134.75 131.91 134.38 C 132.57 134.01 132.81 133.17 132.44 132.50 L 131.96 131.64 C 131.59 130.98 130.75 130.74 130.09 131.11 C 129.42 131.48 129.18 132.32 129.55 132.99 Z M 129.98 133.74 L 130.38 134.64 C 130.69 135.33 131.50 135.64 132.20 135.33 C 132.90 135.02 133.21 134.21 132.90 133.51 L 132.50 132.61 C 132.19 131.92 131.37 131.61 130.67 131.92 C 129.98 132.23 129.67 133.04 129.98 133.74 Z M 130.34 134.55 L 130.68 135.47 C 130.94 136.19 131.73 136.56 132.45 136.29 C 133.17 136.03 133.53 135.24 133.27 134.52 L 132.93 133.60 C 132.67 132.88 131.88 132.51 131.16 132.78 C 130.45 133.04 130.08 133.83 130.34 134.55 Z M 130.65 135.38 L 130.93 136.37 C 131.14 137.11 131.91 137.53 132.64 137.32 C 133.37 137.11 133.80 136.35 133.59 135.62 L 133.30 134.62 C 133.09 133.89 132.33 133.46 131.60 133.67 C 130.86 133.88 130.44 134.64 130.65 135.38 Z M 130.91 136.28 L 131.11 137.23 C 131.27 137.98 132.00 138.46 132.74 138.30 C 133.49 138.14 133.97 137.41 133.81 136.67 L 133.61 135.71 C 133.46 134.96 132.72 134.49 131.98 134.64 C 131.23 134.80 130.75 135.53 130.91 136.28 Z M 131.10 137.16 L 131.25 138.16 C 131.36 138.91 132.07 139.43 132.82 139.31 C 133.58 139.20 134.10 138.49 133.98 137.74 L 133.83 136.74 C 133.71 135.99 133.01 135.47 132.25 135.58 C 131.50 135.70 130.98 136.40 131.10 137.16 Z M 131.24 138.10 L 131.35 139.07 C 131.44 139.83 132.12 140.37 132.88 140.29 C 133.64 140.20 134.18 139.51 134.10 138.76 L 133.99 137.79 C 133.90 137.03 133.22 136.49 132.46 136.57 C 131.70 136.66 131.15 137.34 131.24 138.10 Z M 131.35 139.03 L 131.42 139.96 C 131.49 140.72 132.16 141.29 132.92 141.23 C 133.68 141.16 134.24 140.49 134.18 139.73 L 134.10 138.80 C 134.04 138.04 133.37 137.47 132.61 137.54 C 131.85 137.60 131.28 138.27 131.35 139.03 Z M 131.42 139.92 L 131.48 140.95 C 131.52 141.72 132.17 142.30 132.93 142.26 C 133.70 142.22 134.28 141.57 134.24 140.80 L 134.18 139.77 C 134.14 139.01 133.49 138.43 132.73 138.47 C 131.96 138.51 131.38 139.16 131.42 139.92 Z M 131.48 140.92 L 131.51 141.99 C 131.53 142.75 132.17 143.35 132.93 143.33 C 133.70 143.30 134.30 142.67 134.27 141.90 L 134.24 140.84 C 134.22 140.07 133.58 139.47 132.82 139.50 C 132.05 139.52 131.45 140.16 131.48 140.92 Z M 131.51 141.96 L 131.52 143.00 C 131.53 143.76 132.16 144.37 132.93 144.36 C 133.69 144.35 134.30 143.72 134.29 142.96 L 134.27 141.92 C 134.26 141.16 133.63 140.55 132.87 140.56 C 132.11 140.57 131.50 141.20 131.51 141.96 Z M 131.52 142.98 L 131.53 144.02 C 131.53 144.78 132.16 145.40 132.92 145.39 C 133.68 145.39 134.30 144.77 134.29 144.00 L 134.29 142.97 C 134.28 142.20 133.66 141.59 132.90 141.59 C 132.13 141.60 131.52 142.22 131.52 142.98 Z M 131.53 144.01 L 131.53 144.98 C 131.53 145.74 132.15 146.36 132.91 146.36 C 133.68 146.36 134.30 145.74 134.29 144.97 L 134.29 144.01 C 134.29 143.25 133.67 142.63 132.91 142.63 C 132.15 142.63 131.53 143.25 131.53 144.01 Z M 131.53 144.97 L 131.53 146.09 C 131.53 146.85 132.15 147.47 132.91 147.47 C 133.67 147.47 134.29 146.86 134.29 146.10 L 134.29 144.98 C 134.30 144.22 133.68 143.60 132.92 143.59 C 132.15 143.59 131.53 144.21 131.53 144.97 Z M 131.53 146.06 L 131.51 147.02 C 131.49 147.78 132.09 148.41 132.85 148.43 C 133.61 148.45 134.25 147.85 134.27 147.08 L 134.29 146.13 C 134.31 145.37 133.71 144.73 132.94 144.71 C 132.18 144.70 131.55 145.30 131.53 146.06 Z M 131.52 146.93 L 131.44 147.83 C 131.37 148.59 131.93 149.26 132.68 149.32 C 133.44 149.39 134.11 148.83 134.18 148.07 L 134.26 147.17 C 134.33 146.42 133.77 145.75 133.01 145.68 C 132.25 145.61 131.58 146.17 131.52 146.93 Z M 131.45 147.72 L 131.29 148.71 C 131.16 149.46 131.67 150.17 132.41 150.29 C 133.16 150.42 133.87 149.91 133.99 149.17 L 134.16 148.18 C 134.28 147.43 133.78 146.73 133.03 146.60 C 132.29 146.47 131.58 146.98 131.45 147.72 Z M 131.30 148.67 L 131.18 149.28 C 131.03 150.02 131.50 150.74 132.24 150.89 C 132.98 151.04 133.71 150.56 133.86 149.82 L 133.98 149.21 C 134.13 148.47 133.65 147.75 132.91 147.60 C 132.17 147.45 131.45 147.93 131.30 148.67 Z"
      fill="black"
      fill-rule="nonzero" /><path d="M 133.87 135.63 L 134.79 135.65 C 135.55 135.67 136.18 135.07 136.20 134.31 C 136.21 133.55 135.61 132.92 134.85 132.90 L 133.93 132.88 C 133.17 132.87 132.54 133.47 132.53 134.23 C 132.51 134.99 133.11 135.62 133.87 135.63 Z M 134.88 135.66 L 135.95 135.61 C 136.71 135.58 137.30 134.93 137.27 134.17 C 137.23 133.41 136.59 132.82 135.83 132.85 L 134.76 132.90 C 134.00 132.93 133.41 133.57 133.44 134.34 C 133.47 135.10 134.12 135.69 134.88 135.66 Z M 136.04 135.61 L 137.00 135.50 C 137.76 135.41 138.31 134.73 138.22 133.97 C 138.14 133.21 137.45 132.66 136.69 132.75 L 135.73 132.86 C 134.97 132.94 134.42 133.63 134.51 134.39 C 134.60 135.15 135.28 135.69 136.04 135.61 Z M 137.04 135.49 L 138.06 135.34 C 138.81 135.23 139.34 134.54 139.23 133.78 C 139.12 133.03 138.42 132.50 137.67 132.61 L 136.65 132.76 C 135.90 132.86 135.37 133.56 135.48 134.32 C 135.59 135.07 136.29 135.59 137.04 135.49 Z M 138.06 135.34 L 139.08 135.19 C 139.83 135.08 140.35 134.38 140.24 133.63 C 140.13 132.88 139.43 132.36 138.68 132.47 L 137.67 132.62 C 136.92 132.73 136.40 133.42 136.51 134.17 C 136.62 134.92 137.31 135.44 138.06 135.34 Z M 139.06 135.18 L 140.11 135.05 C 140.86 134.95 141.39 134.27 141.29 133.52 C 141.20 132.77 140.51 132.24 139.76 132.34 L 138.71 132.47 C 137.96 132.57 137.43 133.25 137.53 134.00 C 137.62 134.75 138.31 135.28 139.06 135.18 Z M 140.08 135.04 L 141.04 134.94 C 141.79 134.86 142.33 134.19 142.25 133.45 C 142.17 132.70 141.50 132.16 140.76 132.24 L 139.79 132.34 C 139.05 132.42 138.51 133.09 138.59 133.84 C 138.67 134.58 139.33 135.12 140.08 135.04 Z M 141.01 134.93 L 141.99 134.85 C 142.74 134.79 143.29 134.14 143.22 133.40 C 143.16 132.65 142.51 132.10 141.77 132.17 L 140.78 132.25 C 140.04 132.31 139.49 132.96 139.55 133.70 C 139.62 134.45 140.27 135.00 141.01 134.93 Z M 141.96 134.85 L 142.95 134.79 C 143.70 134.74 144.26 134.11 144.21 133.37 C 144.17 132.63 143.53 132.06 142.79 132.11 L 141.80 132.17 C 141.06 132.21 140.50 132.85 140.54 133.59 C 140.59 134.33 141.22 134.89 141.96 134.85 Z M 142.92 134.79 L 143.90 134.76 C 144.64 134.73 145.22 134.11 145.20 133.37 C 145.17 132.63 144.55 132.05 143.81 132.08 L 142.83 132.11 C 142.09 132.13 141.51 132.75 141.54 133.49 C 141.56 134.23 142.18 134.81 142.92 134.79 Z M 143.87 134.75 L 144.87 134.74 C 145.61 134.74 146.20 134.13 146.19 133.40 C 146.19 132.66 145.58 132.06 144.84 132.07 L 143.85 132.08 C 143.11 132.09 142.51 132.69 142.52 133.43 C 142.53 134.17 143.13 134.76 143.87 134.75 Z M 144.86 134.74 L 145.39 134.74 C 146.13 134.74 146.73 134.14 146.73 133.41 C 146.73 132.67 146.13 132.07 145.39 132.07 L 144.86 132.07 C 144.12 132.07 143.52 132.67 143.52 133.41 C 143.52 134.15 144.12 134.74 144.86 134.74 Z"
      fill="black"
      fill-rule="nonzero" /><path d="M 138.78 134.60 L 138.80 135.60 C 138.81 136.36 139.44 136.97 140.20 136.96 C 140.97 136.95 141.58 136.32 141.57 135.56 L 141.55 134.56 C 141.54 133.80 140.91 133.19 140.15 133.20 C 139.38 133.21 138.77 133.84 138.78 134.60 Z M 138.79 135.71 L 138.88 136.68 C 138.96 137.45 139.64 138.01 140.41 137.94 C 141.18 137.86 141.74 137.18 141.67 136.41 L 141.57 135.44 C 141.50 134.68 140.82 134.11 140.05 134.19 C 139.28 134.26 138.72 134.94 138.79 135.71 Z M 138.90 136.80 L 139.08 137.76 C 139.22 138.52 139.95 139.02 140.71 138.88 C 141.47 138.74 141.98 138.00 141.83 137.24 L 141.66 136.29 C 141.51 135.53 140.78 135.02 140.02 135.17 C 139.26 135.31 138.75 136.04 138.90 136.80 Z M 139.08 137.78 L 139.28 138.77 C 139.43 139.53 140.17 140.02 140.93 139.87 C 141.69 139.72 142.18 138.98 142.03 138.22 L 141.83 137.23 C 141.68 136.47 140.94 135.97 140.18 136.12 C 139.42 136.28 138.93 137.02 139.08 137.78 Z M 139.27 138.74 L 139.45 139.70 C 139.58 140.46 140.31 140.96 141.08 140.83 C 141.84 140.69 142.34 139.96 142.21 139.20 L 142.03 138.24 C 141.89 137.48 141.16 136.97 140.40 137.11 C 139.64 137.25 139.13 137.98 139.27 138.74 Z M 139.44 139.67 L 139.61 140.72 C 139.74 141.49 140.46 142.00 141.22 141.88 C 141.99 141.75 142.50 141.03 142.38 140.27 L 142.21 139.22 C 142.08 138.46 141.36 137.94 140.60 138.07 C 139.84 138.19 139.32 138.91 139.44 139.67 Z M 139.61 140.70 L 139.77 141.73 C 139.88 142.50 140.59 143.03 141.35 142.91 C 142.12 142.80 142.64 142.09 142.53 141.33 L 142.38 140.29 C 142.27 139.53 141.56 139.00 140.79 139.11 C 140.03 139.23 139.50 139.94 139.61 140.70 Z M 139.77 141.72 L 139.91 142.73 C 140.01 143.49 140.71 144.02 141.47 143.92 C 142.23 143.82 142.77 143.12 142.66 142.36 L 142.53 141.34 C 142.43 140.58 141.73 140.05 140.96 140.15 C 140.20 140.25 139.67 140.95 139.77 141.72 Z M 139.91 142.71 L 140.03 143.66 C 140.12 144.42 140.82 144.96 141.57 144.87 C 142.33 144.77 142.87 144.08 142.78 143.32 L 142.66 142.37 C 142.56 141.61 141.87 141.07 141.11 141.17 C 140.36 141.26 139.82 141.96 139.91 142.71 Z M 140.04 143.65 L 140.16 144.70 C 140.25 145.46 140.93 146.00 141.68 145.91 C 142.44 145.83 142.98 145.14 142.89 144.39 L 142.77 143.34 C 142.68 142.58 142.00 142.04 141.25 142.13 C 140.49 142.21 139.95 142.90 140.04 143.65 Z M 140.17 144.70 L 140.28 145.63 C 140.37 146.38 141.04 146.92 141.79 146.83 C 142.54 146.74 143.07 146.07 142.99 145.32 L 142.88 144.39 C 142.79 143.64 142.12 143.11 141.37 143.19 C 140.62 143.28 140.09 143.96 140.17 144.70 Z M 140.29 145.65 L 140.42 146.64 C 140.52 147.38 141.19 147.90 141.93 147.80 C 142.67 147.71 143.20 147.03 143.10 146.29 L 142.97 145.30 C 142.88 144.56 142.20 144.04 141.46 144.14 C 140.72 144.23 140.20 144.91 140.29 145.65 Z M 140.43 146.65 L 140.57 147.63 C 140.67 148.37 141.35 148.88 142.08 148.78 C 142.82 148.67 143.33 148.00 143.23 147.26 L 143.09 146.28 C 142.99 145.54 142.31 145.03 141.57 145.13 C 140.84 145.23 140.33 145.91 140.43 146.65 Z"
      fill="black"
      fill-rule="nonzero" /><path d="M 160.43 121.57 L 159.79 122.36 C 159.30 122.95 159.38 123.82 159.98 124.31 C 160.57 124.80 161.45 124.72 161.94 124.12 L 162.58 123.34 C 163.07 122.75 162.98 121.87 162.39 121.39 C 161.80 120.90 160.92 120.98 160.43 121.57 Z M 159.86 122.30 L 159.18 123.02 C 158.66 123.57 158.69 124.45 159.24 124.97 C 159.80 125.49 160.67 125.46 161.19 124.91 L 161.87 124.18 C 162.39 123.63 162.36 122.76 161.81 122.23 C 161.25 121.71 160.38 121.74 159.86 122.30 Z M 159.30 122.91 L 158.66 123.45 C 158.08 123.94 158.01 124.81 158.50 125.39 C 158.98 125.97 159.85 126.04 160.43 125.55 L 161.07 125.01 C 161.65 124.52 161.72 123.66 161.23 123.08 C 160.74 122.50 159.88 122.43 159.30 122.91 Z M 158.77 123.37 L 157.95 123.93 C 157.33 124.36 157.17 125.21 157.59 125.83 C 158.02 126.46 158.87 126.62 159.49 126.19 L 160.31 125.63 C 160.94 125.21 161.10 124.36 160.67 123.73 C 160.25 123.11 159.40 122.95 158.77 123.37 Z M 158.01 123.90 L 157.05 124.49 C 156.41 124.88 156.21 125.72 156.61 126.37 C 157.00 127.01 157.84 127.21 158.48 126.81 L 159.44 126.22 C 160.08 125.83 160.28 124.99 159.89 124.35 C 159.49 123.71 158.65 123.51 158.01 123.90 Z M 157.07 124.48 L 156.22 124.98 C 155.58 125.37 155.37 126.21 155.75 126.85 C 156.14 127.50 156.97 127.71 157.62 127.33 L 158.47 126.82 C 159.11 126.44 159.32 125.60 158.94 124.95 C 158.55 124.31 157.72 124.09 157.07 124.48 Z M 156.23 124.98 L 155.32 125.51 C 154.68 125.90 154.46 126.73 154.84 127.38 C 155.22 128.03 156.06 128.24 156.71 127.86 L 157.61 127.33 C 158.26 126.95 158.48 126.11 158.10 125.46 C 157.71 124.82 156.88 124.60 156.23 124.98 Z M 155.33 125.51 L 154.43 126.03 C 153.78 126.41 153.56 127.25 153.94 127.90 C 154.32 128.55 155.16 128.77 155.81 128.39 L 156.70 127.86 C 157.35 127.49 157.57 126.65 157.19 126.00 C 156.81 125.35 155.98 125.13 155.33 125.51 Z M 154.43 126.03 L 153.52 126.56 C 152.87 126.94 152.65 127.78 153.03 128.43 C 153.41 129.08 154.24 129.30 154.89 128.92 L 155.80 128.39 C 156.45 128.01 156.67 127.18 156.30 126.53 C 155.92 125.88 155.08 125.66 154.43 126.03 Z M 153.52 126.56 L 152.54 127.14 C 151.89 127.52 151.67 128.35 152.05 129.00 C 152.43 129.65 153.26 129.87 153.91 129.49 L 154.89 128.92 C 155.54 128.54 155.76 127.71 155.38 127.06 C 155.00 126.41 154.17 126.19 153.52 126.56 Z M 152.53 127.14 L 151.77 127.60 C 151.12 127.98 150.91 128.82 151.30 129.46 C 151.68 130.11 152.52 130.32 153.16 129.94 L 153.92 129.48 C 154.57 129.10 154.78 128.26 154.40 127.62 C 154.01 126.97 153.18 126.76 152.53 127.14 Z M 151.73 127.62 L 150.94 128.12 C 150.30 128.53 150.11 129.37 150.52 130.01 C 150.92 130.64 151.76 130.83 152.40 130.42 L 153.20 129.92 C 153.83 129.51 154.02 128.67 153.62 128.03 C 153.21 127.40 152.37 127.21 151.73 127.62 Z M 150.84 128.19 L 150.08 128.78 C 149.48 129.23 149.36 130.09 149.82 130.69 C 150.28 131.28 151.14 131.40 151.73 130.94 L 152.50 130.36 C 153.09 129.90 153.21 129.04 152.75 128.45 C 152.29 127.85 151.44 127.73 150.84 128.19 Z M 149.82 129.03 L 149.21 129.83 C 148.75 130.43 148.86 131.29 149.46 131.75 C 150.06 132.20 150.92 132.09 151.38 131.49 L 151.99 130.69 C 152.45 130.09 152.33 129.23 151.73 128.77 C 151.13 128.31 150.28 128.43 149.82 129.03 Z M 149.05 131.24 L 149.38 131.95 C 149.70 132.63 150.51 132.93 151.20 132.61 C 151.89 132.29 152.19 131.48 151.87 130.79 L 151.53 130.08 C 151.21 129.39 150.40 129.10 149.71 129.42 C 149.03 129.74 148.73 130.55 149.05 131.24 Z M 149.91 132.55 L 150.80 133.09 C 151.45 133.49 152.30 133.28 152.70 132.63 C 153.09 131.98 152.88 131.13 152.23 130.74 L 151.34 130.19 C 150.69 129.80 149.84 130.00 149.44 130.65 C 149.05 131.30 149.26 132.15 149.91 132.55 Z M 150.86 133.13 L 151.82 133.65 C 152.49 134.01 153.33 133.76 153.69 133.08 C 154.06 132.41 153.80 131.57 153.13 131.21 L 152.17 130.70 C 151.50 130.33 150.66 130.59 150.30 131.26 C 149.94 131.93 150.19 132.77 150.86 133.13 Z M 151.70 133.58 L 152.51 134.12 C 153.14 134.55 154.01 134.39 154.43 133.75 C 154.86 133.12 154.70 132.25 154.06 131.82 L 153.25 131.28 C 152.62 130.85 151.76 131.02 151.33 131.65 C 150.90 132.29 151.06 133.15 151.70 133.58 Z M 152.31 133.96 L 153.00 134.64 C 153.54 135.18 154.42 135.17 154.96 134.62 C 155.50 134.08 155.49 133.20 154.95 132.66 L 154.26 131.98 C 153.71 131.45 152.83 131.45 152.29 132.00 C 151.76 132.55 151.76 133.43 152.31 133.96 Z M 152.82 134.43 L 153.39 135.27 C 153.82 135.90 154.69 136.07 155.32 135.63 C 155.96 135.20 156.12 134.34 155.69 133.70 L 155.12 132.87 C 154.69 132.23 153.82 132.07 153.19 132.50 C 152.55 132.93 152.39 133.80 152.82 134.43 Z M 153.26 135.05 L 153.68 135.98 C 153.99 136.68 154.81 137.00 155.51 136.69 C 156.22 136.38 156.53 135.56 156.22 134.85 L 155.81 133.92 C 155.50 133.22 154.68 132.90 153.98 133.21 C 153.27 133.52 152.95 134.34 153.26 135.05 Z M 153.61 135.80 L 153.89 136.77 C 154.11 137.51 154.88 137.93 155.62 137.72 C 156.36 137.50 156.78 136.73 156.57 135.99 L 156.29 135.03 C 156.07 134.29 155.30 133.86 154.56 134.08 C 153.82 134.29 153.40 135.06 153.61 135.80 Z M 153.86 136.64 L 154.05 137.65 C 154.20 138.40 154.93 138.90 155.68 138.75 C 156.44 138.61 156.94 137.88 156.79 137.12 L 156.60 136.12 C 156.45 135.36 155.72 134.87 154.97 135.01 C 154.21 135.15 153.72 135.89 153.86 136.64 Z M 154.04 137.53 L 154.14 138.50 C 154.22 139.26 154.91 139.82 155.67 139.74 C 156.44 139.66 156.99 138.97 156.91 138.20 L 156.81 137.24 C 156.73 136.47 156.04 135.92 155.27 136.00 C 154.51 136.08 153.95 136.77 154.04 137.53 Z M 154.13 138.41 L 154.17 139.29 C 154.20 140.06 154.85 140.65 155.61 140.62 C 156.38 140.59 156.98 139.94 156.95 139.18 L 156.92 138.29 C 156.89 137.53 156.24 136.93 155.47 136.96 C 154.70 136.99 154.10 137.64 154.13 138.41 Z M 154.17 139.25 L 154.18 140.34 C 154.19 141.11 154.82 141.73 155.59 141.72 C 156.36 141.71 156.97 141.08 156.96 140.31 L 156.95 139.22 C 156.94 138.45 156.31 137.83 155.54 137.84 C 154.78 137.85 154.16 138.48 154.17 139.25 Z M 154.18 140.34 L 154.19 141.24 C 154.20 142.01 154.83 142.62 155.60 142.61 C 156.37 142.60 156.98 141.98 156.97 141.21 L 156.96 140.31 C 156.95 139.54 156.32 138.93 155.56 138.94 C 154.79 138.95 154.17 139.58 154.18 140.34 Z M 154.20 141.25 L 154.21 142.25 C 154.22 143.02 154.85 143.63 155.62 143.62 C 156.38 143.61 156.99 142.98 156.98 142.21 L 156.97 141.21 C 156.96 140.44 156.33 139.83 155.56 139.84 C 154.80 139.85 154.19 140.48 154.20 141.25 Z M 154.21 142.25 L 154.23 143.33 C 154.24 144.10 154.87 144.71 155.63 144.70 C 156.40 144.69 157.01 144.06 157.00 143.29 L 156.98 142.21 C 156.97 141.45 156.34 140.84 155.58 140.85 C 154.81 140.86 154.20 141.49 154.21 142.25 Z M 154.23 143.34 L 154.24 143.64 C 154.25 144.40 154.88 145.01 155.64 145.00 C 156.40 144.99 157.01 144.36 157.00 143.60 L 156.99 143.29 C 156.98 142.53 156.35 141.92 155.59 141.93 C 154.83 141.94 154.22 142.57 154.23 143.34 Z"
      fill="black"
      fill-rule="nonzero" /><path d="M 155.50 137.44 L 156.40 137.66 C 157.14 137.83 157.88 137.37 158.05 136.64 C 158.22 135.90 157.77 135.16 157.03 134.99 L 156.13 134.78 C 155.39 134.60 154.66 135.06 154.48 135.79 C 154.31 136.53 154.76 137.27 155.50 137.44 Z M 156.56 137.70 L 157.57 137.81 C 158.33 137.90 159.02 137.35 159.11 136.59 C 159.19 135.84 158.65 135.15 157.89 135.06 L 156.87 134.95 C 156.11 134.86 155.43 135.41 155.34 136.17 C 155.26 136.93 155.80 137.61 156.56 137.70 Z M 157.73 137.83 L 158.66 137.83 C 159.43 137.83 160.05 137.21 160.05 136.44 C 160.05 135.68 159.43 135.05 158.67 135.05 L 157.73 135.05 C 156.97 135.05 156.34 135.67 156.34 136.44 C 156.34 137.20 156.96 137.83 157.73 137.83 Z M 158.78 137.82 L 159.85 137.73 C 160.61 137.67 161.18 137.00 161.12 136.23 C 161.05 135.47 160.38 134.90 159.62 134.97 L 158.55 135.06 C 157.78 135.12 157.22 135.79 157.28 136.56 C 157.34 137.32 158.02 137.89 158.78 137.82 Z M 159.96 137.72 L 161.02 137.54 C 161.77 137.42 162.28 136.70 162.16 135.95 C 162.03 135.19 161.32 134.68 160.56 134.81 L 159.51 134.98 C 158.75 135.11 158.24 135.82 158.37 136.58 C 158.49 137.33 159.20 137.84 159.96 137.72 Z M 161.08 137.52 L 162.10 137.30 C 162.84 137.13 163.32 136.40 163.15 135.66 C 162.99 134.92 162.26 134.45 161.52 134.61 L 160.50 134.83 C 159.76 134.99 159.29 135.73 159.45 136.47 C 159.61 137.21 160.34 137.68 161.08 137.52 Z M 162.12 137.28 L 163.07 137.06 C 163.80 136.88 164.25 136.15 164.08 135.42 C 163.90 134.68 163.17 134.23 162.44 134.40 L 161.50 134.63 C 160.76 134.80 160.31 135.53 160.48 136.27 C 160.66 137.00 161.39 137.45 162.12 137.28 Z M 163.04 137.05 L 164.09 136.82 C 164.82 136.66 165.28 135.94 165.12 135.21 C 164.96 134.48 164.24 134.02 163.51 134.18 L 162.46 134.41 C 161.73 134.57 161.27 135.29 161.43 136.02 C 161.59 136.75 162.31 137.21 163.04 137.05 Z M 164.04 136.82 L 164.94 136.66 C 165.67 136.53 166.16 135.83 166.03 135.10 C 165.89 134.37 165.20 133.88 164.47 134.02 L 163.56 134.18 C 162.83 134.31 162.35 135.01 162.48 135.74 C 162.61 136.47 163.31 136.95 164.04 136.82 Z M 164.92 136.66 L 165.09 136.63 C 165.82 136.51 166.31 135.82 166.19 135.09 C 166.07 134.36 165.38 133.87 164.65 133.99 L 164.49 134.02 C 163.76 134.14 163.27 134.83 163.39 135.56 C 163.51 136.28 164.20 136.78 164.92 136.66 Z"
      fill="black"
      fill-rule="nonzero" /><path d="M 159.79 135.60 L 159.76 136.59 C 159.74 137.35 160.33 137.98 161.09 138.01 C 161.84 138.03 162.48 137.44 162.50 136.68 L 162.53 135.69 C 162.56 134.93 161.96 134.30 161.21 134.28 C 160.45 134.25 159.82 134.85 159.79 135.60 Z M 159.75 136.61 L 159.73 137.61 C 159.71 138.38 160.32 139.01 161.09 139.02 C 161.85 139.04 162.49 138.43 162.50 137.66 L 162.52 136.66 C 162.53 135.90 161.92 135.27 161.16 135.25 C 160.39 135.24 159.76 135.85 159.75 136.61 Z M 159.72 137.65 L 159.73 138.65 C 159.73 139.42 160.36 140.04 161.13 140.03 C 161.90 140.03 162.52 139.40 162.51 138.63 L 162.51 137.63 C 162.50 136.86 161.87 136.24 161.10 136.24 C 160.33 136.25 159.72 136.88 159.72 137.65 Z M 159.73 138.70 L 159.77 139.67 C 159.80 140.44 160.45 141.03 161.22 141.00 C 161.98 140.97 162.58 140.32 162.55 139.56 L 162.51 138.58 C 162.48 137.82 161.83 137.22 161.06 137.25 C 160.30 137.28 159.70 137.93 159.73 138.70 Z M 159.78 139.68 L 159.82 140.69 C 159.86 141.46 160.51 142.05 161.27 142.01 C 162.04 141.98 162.63 141.33 162.59 140.56 L 162.54 139.55 C 162.51 138.78 161.86 138.19 161.10 138.23 C 160.33 138.26 159.74 138.91 159.78 139.68 Z M 159.83 140.66 L 159.85 141.68 C 159.87 142.44 160.50 143.04 161.26 143.02 C 162.02 143.01 162.62 142.38 162.61 141.62 L 162.59 140.60 C 162.57 139.84 161.94 139.24 161.18 139.25 C 160.42 139.27 159.81 139.90 159.83 140.66 Z M 159.86 141.65 L 159.87 142.66 C 159.87 143.42 160.49 144.03 161.24 144.02 C 162.00 144.02 162.61 143.41 162.60 142.65 L 162.60 141.64 C 162.60 140.89 161.98 140.28 161.22 140.28 C 160.47 140.28 159.86 140.90 159.86 141.65 Z M 159.88 142.66 L 159.88 143.68 C 159.88 144.43 160.49 145.04 161.24 145.04 C 161.98 145.04 162.59 144.43 162.59 143.68 L 162.59 142.66 C 162.59 141.91 161.98 141.30 161.24 141.30 C 160.49 141.30 159.88 141.91 159.88 142.66 Z M 159.89 143.68 L 159.89 144.65 C 159.89 145.39 160.49 145.99 161.24 145.99 C 161.98 145.99 162.58 145.39 162.58 144.65 L 162.58 143.68 C 162.58 142.94 161.98 142.34 161.24 142.34 C 160.49 142.34 159.89 142.94 159.89 143.68 Z M 159.90 144.65 L 159.90 145.64 C 159.90 146.38 160.50 146.98 161.24 146.98 C 161.97 146.98 162.57 146.38 162.57 145.64 L 162.57 144.65 C 162.57 143.91 161.97 143.31 161.24 143.31 C 160.50 143.31 159.90 143.91 159.90 144.65 Z M 159.90 145.64 L 159.90 146.38 C 159.90 147.12 160.50 147.72 161.24 147.72 C 161.97 147.72 162.57 147.12 162.57 146.38 L 162.57 145.64 C 162.57 144.90 161.97 144.30 161.24 144.30 C 160.50 144.30 159.90 144.90 159.90 145.64 Z"
      fill="black"
      fill-rule="nonzero" /><path d="M 145.40 150.96 L 144.70 149.92 C 144.28 149.29 143.43 149.13 142.81 149.55 C 142.18 149.97 142.02 150.82 142.44 151.44 L 143.14 152.49 C 143.56 153.11 144.41 153.28 145.04 152.86 C 145.66 152.43 145.82 151.59 145.40 150.96 Z M 144.55 149.70 L 144.06 149.21 C 143.52 148.66 142.64 148.66 142.10 149.20 C 141.56 149.74 141.55 150.62 142.10 151.17 L 142.59 151.66 C 143.13 152.20 144.00 152.20 144.55 151.66 C 145.09 151.12 145.09 150.24 144.55 149.70 Z M 141.69 149.96 L 141.58 150.65 C 141.45 151.41 141.97 152.13 142.74 152.26 C 143.50 152.39 144.22 151.87 144.35 151.11 L 144.46 150.42 C 144.59 149.65 144.07 148.93 143.31 148.80 C 142.54 148.67 141.82 149.19 141.69 149.96 Z M 141.56 151.02 L 141.68 152.21 C 141.76 152.98 142.46 153.55 143.23 153.47 C 144.01 153.39 144.57 152.70 144.49 151.92 L 144.37 150.73 C 144.29 149.96 143.60 149.39 142.82 149.47 C 142.04 149.55 141.48 150.25 141.56 151.02 Z M 141.68 152.22 L 141.79 153.23 C 141.88 154.00 142.58 154.56 143.36 154.48 C 144.13 154.39 144.69 153.69 144.60 152.91 L 144.49 151.91 C 144.41 151.13 143.71 150.57 142.93 150.66 C 142.16 150.75 141.60 151.45 141.68 152.22 Z M 141.79 153.22 L 141.90 154.22 C 141.98 155.00 142.67 155.56 143.45 155.48 C 144.22 155.40 144.79 154.71 144.71 153.93 L 144.61 152.93 C 144.53 152.15 143.83 151.58 143.05 151.66 C 142.28 151.74 141.71 152.44 141.79 153.22 Z M 141.89 154.19 L 141.98 155.22 C 142.05 156.00 142.73 156.58 143.51 156.51 C 144.29 156.45 144.87 155.76 144.80 154.98 L 144.71 153.95 C 144.64 153.17 143.96 152.60 143.18 152.66 C 142.40 152.73 141.83 153.42 141.89 154.19 Z M 141.98 155.20 L 142.05 156.18 C 142.10 156.95 142.78 157.54 143.56 157.49 C 144.33 157.43 144.92 156.76 144.87 155.98 L 144.80 155.01 C 144.75 154.23 144.07 153.64 143.29 153.69 C 142.52 153.75 141.93 154.42 141.98 155.20 Z M 142.05 156.16 L 142.11 157.16 C 142.16 157.94 142.83 158.53 143.60 158.48 C 144.38 158.43 144.97 157.76 144.93 156.99 L 144.87 155.99 C 144.82 155.22 144.15 154.62 143.37 154.67 C 142.59 154.72 142.00 155.39 142.05 156.16 Z M 142.11 157.15 L 142.17 158.16 C 142.22 158.93 142.88 159.53 143.66 159.48 C 144.44 159.44 145.03 158.77 144.98 157.99 L 144.93 156.99 C 144.88 156.21 144.21 155.62 143.44 155.67 C 142.66 155.71 142.07 156.38 142.11 157.15 Z M 142.17 158.16 L 142.23 159.14 C 142.28 159.91 142.94 160.50 143.72 160.46 C 144.49 160.41 145.09 159.74 145.04 158.97 L 144.98 157.99 C 144.93 157.22 144.27 156.62 143.49 156.67 C 142.72 156.72 142.13 157.38 142.17 158.16 Z M 142.24 159.14 L 142.30 160.12 C 142.35 160.90 143.02 161.48 143.79 161.43 C 144.56 161.38 145.15 160.72 145.10 159.94 L 145.03 158.96 C 144.98 158.19 144.32 157.61 143.55 157.66 C 142.77 157.71 142.19 158.37 142.24 159.14 Z M 142.31 160.13 L 142.38 161.16 C 142.43 161.92 143.10 162.50 143.87 162.45 C 144.64 162.39 145.21 161.73 145.16 160.96 L 145.09 159.94 C 145.03 159.17 144.37 158.59 143.60 158.64 C 142.83 158.70 142.25 159.36 142.31 160.13 Z M 142.39 161.18 L 142.48 162.21 C 142.54 162.97 143.21 163.53 143.98 163.47 C 144.74 163.40 145.30 162.73 145.24 161.97 L 145.15 160.94 C 145.09 160.18 144.41 159.61 143.65 159.68 C 142.89 159.74 142.33 160.41 142.39 161.18 Z M 142.49 162.26 L 142.62 163.23 C 142.72 163.98 143.41 164.51 144.16 164.42 C 144.92 164.32 145.45 163.63 145.35 162.87 L 145.22 161.91 C 145.13 161.16 144.44 160.62 143.68 160.72 C 142.93 160.82 142.40 161.51 142.49 162.26 Z M 142.65 163.36 L 142.89 164.38 C 143.06 165.11 143.79 165.57 144.53 165.40 C 145.26 165.23 145.72 164.50 145.55 163.76 L 145.31 162.74 C 145.14 162.01 144.41 161.55 143.68 161.72 C 142.94 161.89 142.49 162.62 142.65 163.36 Z M 142.93 164.47 L 143.11 165.05 C 143.33 165.76 144.09 166.16 144.80 165.94 C 145.51 165.72 145.91 164.96 145.69 164.25 L 145.51 163.67 C 145.29 162.96 144.53 162.56 143.82 162.78 C 143.11 163.01 142.71 163.76 142.93 164.47 Z"
      fill="black"
      fill-rule="nonzero" /><path d="M 146.26 153.66 L 147.24 153.41 C 147.99 153.22 148.43 152.46 148.24 151.71 C 148.05 150.97 147.29 150.52 146.55 150.71 L 145.57 150.97 C 144.82 151.16 144.37 151.92 144.57 152.66 C 144.76 153.40 145.52 153.85 146.26 153.66 Z M 147.12 153.43 L 148.10 153.27 C 148.86 153.15 149.37 152.43 149.25 151.68 C 149.12 150.92 148.41 150.40 147.65 150.53 L 146.67 150.69 C 145.91 150.81 145.40 151.53 145.52 152.29 C 145.65 153.04 146.36 153.56 147.12 153.43 Z M 147.92 153.28 L 148.91 153.25 C 149.67 153.23 150.27 152.59 150.25 151.83 C 150.23 151.07 149.59 150.47 148.83 150.49 L 147.83 150.52 C 147.07 150.54 146.47 151.18 146.49 151.94 C 146.52 152.70 147.15 153.30 147.92 153.28 Z M 148.81 153.24 L 149.81 153.28 C 150.57 153.32 151.21 152.73 151.24 151.97 C 151.27 151.22 150.69 150.57 149.93 150.54 L 148.93 150.50 C 148.17 150.46 147.53 151.05 147.50 151.81 C 147.46 152.57 148.05 153.21 148.81 153.24 Z M 149.56 153.25 L 150.52 153.47 C 151.26 153.64 151.99 153.18 152.17 152.44 C 152.34 151.70 151.88 150.97 151.14 150.80 L 150.18 150.58 C 149.44 150.41 148.70 150.87 148.53 151.60 C 148.36 152.34 148.82 153.08 149.56 153.25 Z M 150.15 153.33 L 151.02 153.82 C 151.68 154.19 152.51 153.96 152.89 153.30 C 153.26 152.65 153.03 151.81 152.37 151.43 L 151.51 150.94 C 150.85 150.57 150.01 150.80 149.64 151.46 C 149.26 152.12 149.49 152.95 150.15 153.33 Z M 150.78 153.65 L 151.52 154.30 C 152.08 154.81 152.95 154.76 153.45 154.19 C 153.96 153.62 153.91 152.76 153.34 152.26 L 152.61 151.60 C 152.04 151.10 151.17 151.15 150.67 151.72 C 150.17 152.28 150.22 153.15 150.78 153.65 Z M 151.34 154.11 L 151.95 154.92 C 152.41 155.52 153.27 155.63 153.87 155.18 C 154.48 154.72 154.59 153.86 154.13 153.26 L 153.52 152.45 C 153.06 151.85 152.20 151.73 151.60 152.19 C 151.00 152.65 150.88 153.51 151.34 154.11 Z M 151.82 154.71 L 152.26 155.57 C 152.61 156.25 153.43 156.52 154.10 156.17 C 154.78 155.83 155.05 155.00 154.70 154.33 L 154.26 153.46 C 153.92 152.79 153.10 152.52 152.42 152.86 C 151.75 153.21 151.48 154.03 151.82 154.71 Z M 152.18 155.39 L 152.51 156.36 C 152.75 157.07 153.53 157.46 154.24 157.22 C 154.96 156.98 155.35 156.20 155.11 155.49 L 154.78 154.52 C 154.54 153.80 153.76 153.41 153.05 153.65 C 152.33 153.89 151.94 154.67 152.18 155.39 Z M 152.47 156.20 L 152.67 157.15 C 152.82 157.89 153.54 158.37 154.28 158.22 C 155.02 158.06 155.50 157.34 155.35 156.60 L 155.15 155.64 C 155.00 154.90 154.27 154.43 153.53 154.58 C 152.79 154.73 152.31 155.46 152.47 156.20 Z M 152.65 157.04 L 152.77 158.07 C 152.86 158.82 153.54 159.35 154.29 159.26 C 155.04 159.17 155.58 158.49 155.49 157.74 L 155.37 156.71 C 155.28 155.96 154.59 155.43 153.84 155.52 C 153.09 155.61 152.56 156.29 152.65 157.04 Z M 152.76 157.99 L 152.82 158.89 C 152.86 159.65 153.51 160.22 154.27 160.18 C 155.02 160.13 155.60 159.48 155.55 158.73 L 155.49 157.82 C 155.45 157.07 154.80 156.49 154.04 156.54 C 153.29 156.59 152.72 157.23 152.76 157.99 Z M 152.82 158.84 L 152.84 159.85 C 152.86 160.60 153.49 161.20 154.24 161.18 C 155.00 161.16 155.59 160.53 155.58 159.78 L 155.55 158.78 C 155.53 158.02 154.91 157.43 154.15 157.44 C 153.40 157.46 152.80 158.09 152.82 158.84 Z M 152.84 159.82 L 152.85 160.90 C 152.85 161.65 153.46 162.26 154.22 162.26 C 154.97 162.26 155.58 161.64 155.58 160.89 L 155.57 159.81 C 155.57 159.06 154.96 158.45 154.20 158.45 C 153.45 158.45 152.84 159.06 152.84 159.82 Z M 152.85 160.88 L 152.84 161.91 C 152.84 162.66 153.44 163.28 154.19 163.28 C 154.94 163.29 155.56 162.68 155.57 161.93 L 155.57 160.91 C 155.58 160.15 154.98 159.54 154.22 159.53 C 153.47 159.53 152.86 160.13 152.85 160.88 Z M 152.84 161.89 L 152.82 162.92 C 152.81 163.67 153.40 164.30 154.15 164.31 C 154.90 164.33 155.53 163.73 155.54 162.98 L 155.56 161.95 C 155.58 161.20 154.98 160.58 154.23 160.56 C 153.48 160.54 152.86 161.14 152.84 161.89 Z M 152.82 162.90 L 152.79 163.85 C 152.75 164.60 153.34 165.23 154.09 165.26 C 154.84 165.29 155.47 164.71 155.50 163.96 L 155.54 163.01 C 155.57 162.26 154.99 161.63 154.24 161.60 C 153.49 161.56 152.85 162.15 152.82 162.90 Z M 152.79 163.79 L 152.70 164.90 C 152.64 165.65 153.19 166.30 153.94 166.37 C 154.68 166.43 155.34 165.88 155.40 165.13 L 155.49 164.02 C 155.56 163.27 155.00 162.62 154.26 162.55 C 153.51 162.49 152.85 163.05 152.79 163.79 Z M 152.72 164.78 L 152.55 165.69 C 152.42 166.42 152.91 167.13 153.65 167.26 C 154.38 167.39 155.09 166.90 155.22 166.16 L 155.38 165.26 C 155.51 164.52 155.02 163.82 154.29 163.68 C 153.55 163.55 152.85 164.04 152.72 164.78 Z M 152.60 165.52 L 152.31 166.42 C 152.09 167.14 152.49 167.89 153.20 168.12 C 153.91 168.34 154.67 167.95 154.89 167.23 L 155.17 166.33 C 155.40 165.62 155.00 164.86 154.29 164.64 C 153.58 164.41 152.82 164.81 152.60 165.52 Z M 152.36 166.31 L 151.97 167.24 C 151.69 167.92 152.01 168.71 152.70 169.00 C 153.38 169.29 154.17 168.96 154.46 168.27 L 154.85 167.35 C 155.13 166.66 154.81 165.87 154.12 165.58 C 153.43 165.30 152.64 165.62 152.36 166.31 Z M 151.99 167.20 L 151.82 167.59 C 151.51 168.27 151.81 169.06 152.49 169.37 C 153.17 169.67 153.97 169.37 154.27 168.69 L 154.44 168.31 C 154.75 167.63 154.45 166.83 153.77 166.53 C 153.09 166.22 152.29 166.53 151.99 167.20 Z"
      fill="black"
      fill-rule="nonzero" /><path d="M 145.32 158.43 L 146.19 158.98 C 146.83 159.39 147.68 159.21 148.09 158.57 C 148.50 157.93 148.31 157.07 147.67 156.67 L 146.80 156.11 C 146.16 155.70 145.31 155.89 144.90 156.53 C 144.49 157.17 144.68 158.02 145.32 158.43 Z M 146.65 159.19 L 147.56 159.37 C 148.31 159.53 149.04 159.04 149.20 158.29 C 149.35 157.54 148.87 156.81 148.12 156.65 L 147.21 156.46 C 146.46 156.31 145.72 156.79 145.57 157.54 C 145.41 158.30 145.90 159.03 146.65 159.19 Z M 148.19 159.35 L 149.16 159.09 C 149.90 158.90 150.34 158.14 150.15 157.40 C 149.95 156.66 149.20 156.22 148.46 156.42 L 147.48 156.67 C 146.74 156.87 146.30 157.63 146.50 158.37 C 146.69 159.10 147.45 159.55 148.19 159.35 Z M 149.25 159.05 L 150.14 158.75 C 150.85 158.51 151.24 157.73 150.99 157.01 C 150.75 156.30 149.97 155.91 149.26 156.16 L 148.37 156.46 C 147.65 156.70 147.27 157.48 147.51 158.20 C 147.75 158.91 148.53 159.30 149.25 159.05 Z M 150.09 158.76 L 151.10 158.46 C 151.82 158.24 152.23 157.48 152.01 156.76 C 151.80 156.04 151.04 155.63 150.32 155.85 L 149.31 156.15 C 148.58 156.37 148.18 157.12 148.39 157.85 C 148.61 158.57 149.37 158.97 150.09 158.76 Z M 151.06 158.46 L 151.98 158.21 C 152.70 158.02 153.13 157.27 152.93 156.55 C 152.74 155.83 152.00 155.40 151.27 155.60 L 150.36 155.84 C 149.64 156.04 149.21 156.78 149.40 157.50 C 149.60 158.22 150.34 158.65 151.06 158.46 Z M 151.96 158.21 L 152.97 157.95 C 153.69 157.77 154.12 157.03 153.93 156.31 C 153.75 155.59 153.02 155.16 152.30 155.34 L 151.29 155.60 C 150.57 155.78 150.14 156.52 150.32 157.24 C 150.51 157.96 151.24 158.39 151.96 158.21 Z M 152.96 157.95 L 153.37 157.84 C 154.09 157.66 154.52 156.93 154.34 156.21 C 154.16 155.50 153.43 155.06 152.71 155.24 L 152.30 155.35 C 151.58 155.53 151.15 156.26 151.33 156.98 C 151.51 157.69 152.24 158.13 152.96 157.95 Z"
      fill="black"
      fill-rule="nonzero" /><path d="M 147.25 163.40 L 148.26 163.13 C 148.99 162.94 149.43 162.19 149.24 161.45 C 149.04 160.72 148.29 160.29 147.56 160.48 L 146.55 160.75 C 145.82 160.94 145.38 161.69 145.58 162.42 C 145.77 163.16 146.52 163.59 147.25 163.40 Z M 148.25 163.15 L 149.22 162.90 C 149.96 162.71 150.41 161.96 150.22 161.22 C 150.04 160.48 149.28 160.03 148.54 160.22 L 147.57 160.46 C 146.83 160.65 146.38 161.41 146.57 162.15 C 146.76 162.89 147.51 163.34 148.25 163.15 Z M 149.19 162.92 L 150.15 162.70 C 150.90 162.53 151.37 161.78 151.20 161.03 C 151.03 160.28 150.28 159.81 149.53 159.98 L 148.57 160.20 C 147.82 160.37 147.35 161.12 147.52 161.87 C 147.70 162.62 148.44 163.09 149.19 162.92 Z M 150.10 162.69 L 151.10 162.50 C 151.84 162.36 152.33 161.64 152.19 160.89 C 152.05 160.14 151.33 159.65 150.58 159.80 L 149.59 159.99 C 148.84 160.13 148.35 160.85 148.49 161.60 C 148.63 162.34 149.35 162.84 150.10 162.69 Z M 151.06 162.48 L 151.83 162.36 C 152.56 162.23 153.06 161.53 152.94 160.80 C 152.81 160.06 152.12 159.56 151.38 159.69 L 150.61 159.82 C 149.88 159.94 149.38 160.64 149.50 161.37 C 149.63 162.11 150.33 162.61 151.06 162.48 Z"
      fill="black"
      fill-rule="nonzero" /><path d="M 147.09 168.69 L 148.14 168.45 C 148.88 168.27 149.34 167.54 149.17 166.80 C 149.00 166.06 148.26 165.60 147.52 165.77 L 146.47 166.01 C 145.73 166.19 145.27 166.92 145.44 167.66 C 145.61 168.40 146.35 168.86 147.09 168.69 Z M 148.13 168.45 L 149.12 168.23 C 149.86 168.06 150.33 167.33 150.16 166.59 C 150.00 165.85 149.27 165.39 148.53 165.55 L 147.54 165.77 C 146.80 165.93 146.33 166.66 146.50 167.40 C 146.66 168.14 147.39 168.61 148.13 168.45 Z M 149.08 168.23 L 150.00 168.06 C 150.75 167.91 151.23 167.20 151.09 166.46 C 150.95 165.72 150.24 165.23 149.49 165.37 L 148.57 165.55 C 147.83 165.69 147.34 166.40 147.48 167.14 C 147.62 167.88 148.34 168.37 149.08 168.23 Z M 149.80 168.08 L 150.88 168.04 C 151.64 168.01 152.23 167.38 152.20 166.62 C 152.17 165.86 151.53 165.27 150.78 165.30 L 149.70 165.34 C 148.94 165.37 148.35 166.01 148.38 166.76 C 148.41 167.52 149.04 168.11 149.80 168.08 Z M 149.87 167.67 L 150.40 168.18 C 150.96 168.71 151.83 168.69 152.36 168.13 C 152.89 167.58 152.87 166.70 152.31 166.18 L 151.78 165.67 C 151.23 165.14 150.35 165.16 149.83 165.72 C 149.30 166.27 149.32 167.15 149.87 167.67 Z M 149.96 167.15 L 149.94 168.21 C 149.93 168.98 150.54 169.61 151.31 169.63 C 152.08 169.65 152.72 169.03 152.73 168.26 L 152.75 167.21 C 152.77 166.43 152.16 165.80 151.39 165.78 C 150.61 165.77 149.98 166.38 149.96 167.15 Z M 150.02 167.74 L 149.68 168.67 C 149.41 169.39 149.77 170.20 150.50 170.47 C 151.23 170.74 152.03 170.38 152.31 169.65 L 152.65 168.73 C 152.92 168.00 152.56 167.19 151.83 166.92 C 151.10 166.65 150.29 167.02 150.02 167.74 Z M 149.76 168.49 L 149.27 169.39 C 148.90 170.07 149.15 170.92 149.83 171.29 C 150.51 171.67 151.36 171.41 151.74 170.73 L 152.23 169.83 C 152.60 169.15 152.34 168.29 151.66 167.92 C 150.98 167.55 150.13 167.81 149.76 168.49 Z M 149.31 169.32 L 148.77 170.18 C 148.36 170.84 148.56 171.70 149.22 172.11 C 149.88 172.52 150.75 172.32 151.16 171.66 L 151.69 170.80 C 152.10 170.14 151.90 169.28 151.24 168.87 C 150.59 168.46 149.72 168.66 149.31 169.32 Z M 148.80 170.14 L 148.25 170.95 C 147.81 171.60 147.98 172.47 148.63 172.91 C 149.27 173.34 150.15 173.17 150.58 172.52 L 151.13 171.70 C 151.57 171.06 151.40 170.19 150.75 169.75 C 150.11 169.32 149.23 169.49 148.80 170.14 Z M 148.26 170.93 L 147.74 171.66 C 147.30 172.30 147.45 173.18 148.08 173.63 C 148.72 174.08 149.60 173.92 150.05 173.29 L 150.57 172.55 C 151.01 171.92 150.86 171.04 150.23 170.59 C 149.59 170.14 148.71 170.29 148.26 170.93 Z M 147.76 171.65 L 147.21 172.40 C 146.75 173.03 146.89 173.91 147.52 174.37 C 148.15 174.82 149.03 174.69 149.49 174.06 L 150.03 173.31 C 150.49 172.68 150.36 171.79 149.73 171.34 C 149.10 170.88 148.21 171.02 147.76 171.65 Z M 147.22 172.38 L 146.53 173.30 C 146.06 173.92 146.19 174.80 146.82 175.27 C 147.44 175.74 148.32 175.61 148.79 174.99 L 149.48 174.07 C 149.95 173.45 149.82 172.56 149.20 172.10 C 148.57 171.63 147.69 171.76 147.22 172.38 Z M 146.54 173.29 L 145.93 174.09 C 145.45 174.71 145.57 175.60 146.19 176.07 C 146.81 176.54 147.70 176.42 148.17 175.80 L 148.79 175.00 C 149.26 174.38 149.14 173.49 148.52 173.02 C 147.90 172.55 147.01 172.66 146.54 173.29 Z M 145.93 174.08 L 145.29 174.92 C 144.81 175.54 144.93 176.42 145.55 176.90 C 146.17 177.38 147.05 177.26 147.53 176.64 L 148.17 175.81 C 148.65 175.19 148.53 174.30 147.91 173.83 C 147.29 173.35 146.40 173.47 145.93 174.08 Z M 145.29 174.91 L 144.66 175.73 C 144.18 176.35 144.29 177.24 144.91 177.72 C 145.53 178.19 146.42 178.08 146.90 177.46 L 147.53 176.64 C 148.01 176.03 147.89 175.14 147.27 174.66 C 146.66 174.18 145.77 174.30 145.29 174.91 Z M 144.66 175.73 L 144.08 176.48 C 143.60 177.10 143.71 177.99 144.33 178.46 C 144.95 178.94 145.84 178.83 146.31 178.21 L 146.89 177.46 C 147.37 176.85 147.26 175.96 146.64 175.48 C 146.02 175.00 145.14 175.11 144.66 175.73 Z M 144.08 176.48 L 143.35 177.42 C 142.87 178.03 142.98 178.92 143.60 179.40 C 144.22 179.88 145.10 179.77 145.58 179.15 L 146.31 178.21 C 146.79 177.60 146.68 176.71 146.06 176.23 C 145.45 175.75 144.56 175.86 144.08 176.48 Z M 143.37 177.41 L 142.83 178.08 C 142.35 178.69 142.45 179.57 143.06 180.06 C 143.66 180.54 144.55 180.44 145.03 179.83 L 145.57 179.16 C 146.05 178.55 145.95 177.67 145.34 177.18 C 144.74 176.70 143.85 176.80 143.37 177.41 Z M 142.89 178.02 L 142.15 178.85 C 141.63 179.43 141.68 180.31 142.26 180.83 C 142.83 181.34 143.71 181.29 144.23 180.72 L 144.97 179.89 C 145.49 179.31 145.44 178.43 144.86 177.91 C 144.29 177.40 143.41 177.45 142.89 178.02 Z M 144.54 179.56 L 144.49 179.23 C 144.36 178.48 143.66 177.97 142.91 178.10 C 142.16 178.22 141.65 178.93 141.78 179.68 L 141.83 180.01 C 141.96 180.76 142.67 181.27 143.42 181.14 C 144.16 181.02 144.67 180.31 144.54 179.56 Z M 144.38 179.97 L 144.73 179.13 C 145.01 178.44 144.69 177.65 144.00 177.37 C 143.31 177.08 142.52 177.41 142.24 178.10 L 141.89 178.94 C 141.60 179.63 141.93 180.42 142.62 180.70 C 143.31 180.99 144.09 180.66 144.38 179.97 Z"
      fill="black"
      fill-rule="nonzero" /><path d="M 151.39 171.80 L 151.89 172.67 C 152.28 173.33 153.12 173.56 153.79 173.17 C 154.45 172.79 154.68 171.94 154.29 171.28 L 153.79 170.41 C 153.41 169.75 152.56 169.52 151.90 169.91 C 151.24 170.29 151.01 171.14 151.39 171.80 Z M 151.90 172.69 L 152.41 173.55 C 152.81 174.21 153.66 174.42 154.32 174.03 C 154.98 173.63 155.20 172.77 154.80 172.11 L 154.29 171.26 C 153.89 170.60 153.04 170.38 152.38 170.78 C 151.72 171.17 151.50 172.03 151.90 172.69 Z M 152.43 173.59 L 152.97 174.43 C 153.39 175.08 154.26 175.27 154.91 174.85 C 155.56 174.43 155.75 173.56 155.33 172.91 L 154.78 172.07 C 154.36 171.42 153.50 171.23 152.85 171.66 C 152.20 172.08 152.01 172.94 152.43 173.59 Z M 153.01 174.49 L 153.59 175.30 C 154.04 175.93 154.92 176.07 155.55 175.62 C 156.18 175.17 156.32 174.29 155.87 173.66 L 155.29 172.85 C 154.84 172.22 153.96 172.07 153.33 172.53 C 152.70 172.98 152.55 173.86 153.01 174.49 Z M 153.63 175.35 L 154.25 176.13 C 154.73 176.74 155.61 176.84 156.22 176.36 C 156.83 175.88 156.94 174.99 156.45 174.38 L 155.83 173.60 C 155.35 172.99 154.46 172.89 153.85 173.37 C 153.25 173.86 153.14 174.74 153.63 175.35 Z M 154.28 176.18 L 154.94 176.94 C 155.45 177.53 156.34 177.60 156.93 177.09 C 157.52 176.58 157.58 175.69 157.07 175.10 L 156.42 174.34 C 155.91 173.75 155.02 173.68 154.43 174.19 C 153.84 174.70 153.77 175.59 154.28 176.18 Z M 154.97 176.98 L 155.68 177.74 C 156.21 178.31 157.10 178.34 157.67 177.81 C 158.24 177.28 158.27 176.39 157.74 175.82 L 157.04 175.06 C 156.51 174.49 155.62 174.46 155.05 174.99 C 154.48 175.52 154.45 176.41 154.97 176.98 Z M 155.71 177.76 L 156.42 178.49 C 156.97 179.04 157.86 179.05 158.41 178.50 C 158.96 177.95 158.97 177.06 158.42 176.51 L 157.71 175.79 C 157.17 175.23 156.27 175.23 155.72 175.77 C 155.17 176.32 155.16 177.21 155.71 177.76 Z M 156.45 178.51 L 157.14 179.18 C 157.70 179.72 158.59 179.70 159.13 179.14 C 159.67 178.58 159.65 177.69 159.09 177.15 L 158.40 176.49 C 157.84 175.95 156.95 175.97 156.41 176.53 C 155.87 177.09 155.89 177.97 156.45 178.51 Z M 157.17 179.20 L 157.92 179.88 C 158.50 180.40 159.38 180.36 159.90 179.79 C 160.42 179.22 160.38 178.33 159.81 177.81 L 159.06 177.13 C 158.49 176.61 157.60 176.65 157.08 177.22 C 156.56 177.79 156.60 178.68 157.17 179.20 Z M 157.95 179.90 L 158.69 180.54 C 159.27 181.05 160.15 180.99 160.66 180.40 C 161.16 179.82 161.10 178.94 160.52 178.44 L 159.78 177.79 C 159.20 177.29 158.32 177.35 157.81 177.93 C 157.31 178.51 157.37 179.39 157.95 179.90 Z M 158.70 180.55 L 159.47 181.20 C 160.06 181.70 160.93 181.63 161.43 181.04 C 161.93 180.46 161.86 179.58 161.27 179.08 L 160.51 178.43 C 159.92 177.93 159.04 178.00 158.55 178.59 C 158.05 179.17 158.12 180.05 158.70 180.55 Z M 159.48 181.20 L 160.28 181.87 C 160.86 182.37 161.73 182.30 162.22 181.71 C 162.72 181.13 162.65 180.26 162.06 179.76 L 161.27 179.09 C 160.69 178.59 159.81 178.67 159.32 179.25 C 158.82 179.83 158.90 180.70 159.48 181.20 Z M 160.28 181.87 L 161.04 182.50 C 161.62 182.99 162.49 182.92 162.98 182.33 C 163.46 181.75 163.39 180.88 162.81 180.40 L 162.05 179.76 C 161.47 179.27 160.60 179.35 160.12 179.93 C 159.63 180.52 159.70 181.38 160.28 181.87 Z M 161.06 182.51 L 161.88 183.18 C 162.46 183.66 163.32 183.57 163.80 182.98 C 164.28 182.40 164.19 181.54 163.61 181.06 L 162.79 180.39 C 162.20 179.91 161.34 180.00 160.86 180.58 C 160.38 181.17 160.47 182.03 161.06 182.51 Z M 161.90 183.18 L 162.62 183.75 C 163.21 184.21 164.06 184.11 164.52 183.52 C 164.98 182.93 164.88 182.08 164.30 181.62 L 163.58 181.06 C 162.99 180.59 162.14 180.69 161.68 181.28 C 161.21 181.87 161.32 182.72 161.90 183.18 Z"
      fill="black"
      fill-rule="nonzero" /></svg>