<svg xmlns="http://www.w3.org/2000/svg" width="300" height="300" viewBox="0 0 300 300">
<path d="M 112.0 118.0 L 112.0 118.5 L 112.5 118.5 L 116.5 118.5 L 125.0 116.5 L 131.5 113.0 L 133.0 112.5 L 135.5 111.0 " stroke="black" fill="none" stroke-width="2.0" stroke-linecap="round" stroke-linejoin="round" />
<path d="M 117.0 124.0 L 117.0 124.0 L 117.0 124.0 L 117.0 124.0 L 117.0 125.0 L 118.5 127.0 L 120.0 131.5 L 121.5 135.5 L 122.0 137.0 L 122.5 136.0 L 125.0 131.5 L 129.0 127.0 L 132.5 124.5 L 133.5 124.0 L 136.0 124.0 L 136.5 126.0 L 134.5 130.5 L 131.5 134.5 L 128.5 137.5 L 126.0 138.5 L 125.0 138.5 " stroke="black" fill="none" stroke-width="2.0" stroke-linecap="round" stroke-linejoin="round" />
<path d="M 124.0 111.5 L 124.0 111.5 L 124.0 112.5 L 124.5 113.0 L 125.5 118.0 L 126.5 120.5 L 128.0 132.0 L 128.5 136.5 L 129.0 153.5 L 129.0 163.0 L 129.0 165.5 L 128.5 171.5 L 127.5 173.0 L 127.0 172.5 L 126.5 169.5 L 126.5 168.5 " stroke="black" fill="none" stroke-width="2.0" stroke-linecap="round" stroke-linejoin="round" />
<path d="M 128.5 150.5 L 128.5 149.5 L 128.5 149.0 L 128.5 148.5 L 128.0 148.5 L 127.0 151.0 L 124.0 155.5 L 120.5 160.5 L 118.0 163.5 L 117.5 164.5 L 116.0 165.0 " stroke="black" fill="none" stroke-width="2.0" stroke-linecap="round" stroke-linejoin="round" />
<path d="M 130.5 149.0 L 133.0 150.5 L 136.5 152.0 L 139.5 154.0 L 141.5 155.0 L 142.0 155.0 " stroke="black" fill="none" stroke-width="2.0" stroke-linecap="round" stroke-linejoin="round" />
<path d="M 147.5 112.5 L 147.0 113.0 L 147.0 113.0 L 150.0 112.5 L 156.5 110.5 L 161.5 108.0 L 163.0 107.5 L 165.5 106.5 L 166.0 106.5 L 166.0 107.0 L 165.5 108.0 L 162.0 113.0 L 158.5 118.5 L 157.0 120.5 " stroke="black" fill="none" stroke-width="2.0" stroke-linecap="round" stroke-linejoin="round" />
<path d="M 155.0 112.0 L 155.0 112.0 L 155.0 112.0 L 155.0 112.0 L 155.0 112.0 L 154.5 113.0 L 153.0 117.0 L 151.5 120.5 " stroke="black" fill="none" stroke-width="2.0" stroke-linecap="round" stroke-linejoin="round" />
<path d="M 150.0 131.0 L 150.5 131.0 L 151.5 131.0 L 152.5 133.5 L 153.5 140.0 L 153.5 145.5 L 153.5 147.5 L 153.5 151.5 L 153.5 152.0 L 153.0 152.0 L 153.0 149.0 L 154.0 143.5 L 156.0 137.0 L 159.0 132.5 L 162.5 131.0 L 164.5 133.0 L 165.5 137.5 L 166.0 142.0 L 166.0 143.5 L 166.0 148.5 L 166.0 150.5 L 165.5 153.5 L 165.5 154.5 L 165.0 155.5 " stroke="black" fill="none" stroke-width="2.0" stroke-linecap="round" stroke-linejoin="round" />
<path d="M 154.0 144.5 L 154.0 145.0 L 154.0 145.0 L 157.5 144.0 L 162.0 142.0 L 164.5 141.0 L 165.0 141.0 " stroke="black" fill="none" stroke-width="2.0" stroke-linecap="round" stroke-linejoin="round" />
<path d="M 153.5 154.5 L 153.5 154.5 L 154.5 154.5 L 157.5 153.0 L 161.5 150.5 L 164.0 149.0 L 164.5 150.0 L 163.5 153.0 L 162.0 155.0 L 161.5 155.5 L 159.5 158.0 L 158.0 160.0 L 157.5 161.0 L 154.5 164.5 L 151.5 167.5 L 150.0 169.0 L 149.0 169.5 L 149.0 168.5 " stroke="black" fill="none" stroke-width="2.0" stroke-linecap="round" stroke-linejoin="round" />
<path d="M 162.0 156.5 L 162.0 156.5 L 162.0 156.5 L 163.5 157.0 L 167.5 159.0 L 171.5 161.5 L 172.5 162.5 L 175.5 165.0 L 176.5 166.0 L 177.5 168.0 L 177.5 168.5 L 177.5 169.0 " stroke="black" fill="none" stroke-width="2.0" stroke-linecap="round" stroke-linejoin="round" />
</svg>