<svg xmlns="http://www.w3.org/2000/svg" width="300" height="300" viewBox="0 0 300 300">
<path d="M 163.0 124.0 L 163.0 124.0 L 163.0 123.5 L 163.0 123.0 L 163.0 123.0 L 163.0 123.0 L 163.0 123.0 L 163.0 125.0 L 163.0 129.0 L 163.5 133.5 L 163.5 137.0 L 163.5 137.5 " stroke="black" fill="none" stroke-width="2.0" stroke-linecap="round" stroke-linejoin="round" />
<path d="M 151.5 130.0 L 151.5 130.5 L 151.0 130.5 L 151.0 130.5 L 153.0 131.5 L 157.0 133.5 " stroke="black" fill="none" stroke-width="2.0" stroke-linecap="round" stroke-linejoin="round" />
<path d="M 172.5 132.0 L 172.5 132.0 L 172.5 132.0 L 172.5 132.0 L 172.0 132.0 L 172.0 132.0 L 171.0 132.5 L 171.0 133.0 L 169.5 135.5 " stroke="black" fill="none" stroke-width="2.0" stroke-linecap="round" stroke-linejoin="round" />
<path d="M 157.5 143.0 L 157.0 143.0 L 157.0 142.5 L 156.5 142.5 L 156.5 142.5 L 156.5 143.0 L 156.5 143.5 L 157.0 147.0 L 157.0 148.5 L 157.0 157.5 L 157.0 165.5 L 157.0 168.5 L 157.5 167.5 L 158.0 165.0 " stroke="black" fill="none" stroke-width="2.0" stroke-linecap="round" stroke-linejoin="round" />
<path d="M 160.5 143.0 L 161.0 142.5 L 162.0 142.5 L 163.0 142.0 L 165.5 142.0 L 168.0 143.0 L 171.0 146.0 L 172.5 150.5 L 173.0 156.0 L 173.0 158.0 L 173.0 164.5 L 173.0 167.0 L 172.0 175.0 L 171.5 181.0 L 171.0 184.0 L 171.0 184.5 L 170.5 182.0 L 170.0 180.5 " stroke="black" fill="none" stroke-width="2.0" stroke-linecap="round" stroke-linejoin="round" />
<path d="M 161.0 152.5 L 161.0 153.0 L 161.0 153.5 L 162.5 154.0 L 164.0 154.0 L 165.0 154.0 L 167.0 154.0 L 167.5 153.5 L 168.5 153.5 " stroke="black" fill="none" stroke-width="2.0" stroke-linecap="round" stroke-linejoin="round" />
<path d="M 158.5 162.0 L 158.5 162.5 L 159.5 162.5 L 160.0 162.5 L 164.0 160.5 L 167.5 158.0 L 169.0 157.0 L 171.5 155.5 " stroke="black" fill="none" stroke-width="2.0" stroke-linecap="round" stroke-linejoin="round" />
<path d="M 133.0 143.0 L 133.5 143.0 L 133.5 143.0 L 133.5 143.0 L 134.0 143.0 L 134.0 143.0 L 135.5 143.5 L 139.0 143.5 L 143.0 143.5 L 144.0 143.5 " stroke="black" fill="none" stroke-width="2.0" stroke-linecap="round" stroke-linejoin="round" />
<path d="M 137.5 150.5 L 136.5 150.5 L 136.5 150.5 L 137.0 150.5 L 139.5 150.5 L 142.0 150.5 L 143.5 150.5 L 144.0 150.5 L 144.5 150.5 L 144.5 150.5 L 143.5 152.5 L 140.0 155.5 L 137.0 157.5 L 135.5 158.5 L 135.0 159.0 L 137.0 159.0 L 140.0 159.0 L 142.0 159.5 L 142.5 160.0 L 143.0 161.0 L 143.5 161.5 L 143.5 164.0 L 142.0 166.0 L 139.0 167.0 L 135.0 167.5 L 131.5 167.5 L 129.5 168.0 L 129.0 168.0 L 130.0 168.0 L 131.5 168.0 L 132.5 168.0 L 136.0 169.5 L 137.5 170.0 L 142.0 172.5 L 143.5 174.0 L 149.5 179.0 L 155.5 183.5 L 158.5 186.5 L 158.5 186.5 L 158.5 186.5 L 157.0 185.5 " stroke="black" fill="none" stroke-width="2.0" stroke-linecap="round" stroke-linejoin="round" />
</svg>