<svg xmlns="http://www.w3.org/2000/svg" width="300" height="300" viewBox="0 0 300 300">
<path d="M 155.0 114.5 L 156.5 114.5 L 156.5 114.5 L 156.5 114.5 L 156.5 114.5 L 154.5 115.0 L 151.0 116.5 L 146.5 118.5 L 143.0 120.0 L 142.0 120.5 L 139.0 121.5 L 138.5 122.0 L 138.0 122.5 L 138.0 122.5 L 138.5 123.0 L 140.0 124.0 L 141.5 126.0 L 142.5 131.0 L 143.0 139.0 L 143.5 147.0 L 143.5 152.0 L 143.5 153.0 L 143.5 152.5 L 143.5 150.5 " stroke="black" fill="none" stroke-width="2.0" stroke-linecap="round" stroke-linejoin="round" />
<path d="M 147.0 124.0 L 146.5 123.5 L 146.5 123.5 L 147.0 123.5 L 150.0 123.5 L 154.0 123.5 L 158.0 124.5 L 159.5 126.0 L 159.5 128.0 L 157.5 130.0 L 157.0 130.5 L 153.0 132.0 L 151.0 132.5 L 150.5 132.5 L 150.0 132.5 " stroke="black" fill="none" stroke-width="2.0" stroke-linecap="round" stroke-linejoin="round" />
<path d="M 149.0 140.0 L 147.5 141.0 L 147.0 141.5 L 147.0 141.5 L 147.0 141.5 L 147.5 141.5 L 148.5 141.5 L 151.5 140.5 L 155.0 140.5 L 157.5 141.0 L 159.5 143.0 L 160.0 146.0 L 160.0 149.5 L 159.5 151.0 L 159.5 151.5 " stroke="black" fill="none" stroke-width="2.0" stroke-linecap="round" stroke-linejoin="round" />
<path d="M 147.5 153.0 L 146.0 153.0 L 146.0 153.0 L 146.0 153.0 L 146.5 153.0 L 147.5 153.0 L 150.0 152.5 L 151.0 152.5 L 155.5 152.0 L 160.0 152.0 L 161.0 152.0 " stroke="black" fill="none" stroke-width="2.0" stroke-linecap="round" stroke-linejoin="round" />
<path d="M 135.0 163.0 L 134.5 163.0 L 134.0 163.0 L 134.0 163.0 L 136.5 163.0 L 140.5 163.0 L 142.0 163.0 L 147.0 163.0 L 148.5 163.0 L 157.5 162.5 L 164.5 161.5 L 169.0 161.5 L 169.5 161.5 " stroke="black" fill="none" stroke-width="2.0" stroke-linecap="round" stroke-linejoin="round" />
<path d="M 154.0 154.0 L 154.0 154.0 L 154.0 154.0 L 154.0 154.0 L 154.0 155.0 L 154.0 155.5 L 154.0 162.0 L 154.0 171.0 L 154.5 178.5 L 154.5 180.5 " stroke="black" fill="none" stroke-width="2.0" stroke-linecap="round" stroke-linejoin="round" />
</svg>