<svg xmlns="http://www.w3.org/2000/svg" width="300" height="300" viewBox="0 0 300 300">
<path d="M 125.5 127.0 L 125.5 127.0 L 125.0 127.0 L 125.0 127.0 L 125.5 127.0 L 129.0 127.5 L 135.5 127.5 L 140.5 127.5 L 142.0 127.0 L 146.0 126.5 " stroke="black" fill="none" stroke-width="2.0" stroke-linecap="round" stroke-linejoin="round" />
<path d="M 128.5 127.5 L 128.5 127.5 L 128.0 127.5 L 128.0 127.5 L 128.0 129.0 L 128.0 134.5 L 128.0 143.5 L 128.5 151.5 L 128.5 156.0 L 128.5 156.5 L 129.0 156.0 " stroke="black" fill="none" stroke-width="2.0" stroke-linecap="round" stroke-linejoin="round" />
<path d="M 132.0 136.5 L 132.0 136.5 L 132.5 136.5 L 135.5 136.5 L 140.5 136.0 L 143.5 136.0 " stroke="black" fill="none" stroke-width="2.0" stroke-linecap="round" stroke-linejoin="round" />
<path d="M 130.0 145.5 L 130.0 145.5 L 130.0 145.5 L 130.5 145.5 L 131.0 145.5 L 135.0 145.5 L 141.0 144.0 L 143.5 143.0 " stroke="black" fill="none" stroke-width="2.0" stroke-linecap="round" stroke-linejoin="round" />
<path d="M 141.5 131.5 L 141.0 131.5 L 141.0 131.5 L 140.5 132.5 L 140.5 138.5 L 140.5 147.5 L 140.5 155.5 L 140.5 156.5 " stroke="black" fill="none" stroke-width="2.0" stroke-linecap="round" stroke-linejoin="round" />
<path d="M 128.5 160.0 L 128.0 160.5 L 127.5 160.5 L 127.5 160.5 L 129.5 160.0 L 133.0 159.0 L 134.5 159.0 L 141.5 158.0 L 145.5 157.5 L 147.0 157.5 L 148.0 157.5 " stroke="black" fill="none" stroke-width="2.0" stroke-linecap="round" stroke-linejoin="round" />
<path d="M 149.0 157.0 L 149.0 157.0 L 148.5 157.5 L 148.5 157.5 L 148.5 157.5 L 148.5 158.0 L 148.5 158.5 L 148.5 160.5 L 148.5 161.5 L 148.5 167.0 L 148.5 173.0 L 148.0 177.0 L 147.0 178.5 " stroke="black" fill="none" stroke-width="2.0" stroke-linecap="round" stroke-linejoin="round" />
<path d="M 113.5 161.0 L 113.5 161.0 L 113.5 161.0 L 113.0 161.0 L 113.0 161.0 L 113.0 161.0 L 114.0 163.5 L 117.0 168.0 L 120.0 172.5 L 121.0 174.5 " stroke="black" fill="none" stroke-width="2.0" stroke-linecap="round" stroke-linejoin="round" />
<path d="M 124.5 165.0 L 124.0 165.5 L 124.0 166.0 L 125.5 168.0 L 127.5 170.0 L 129.5 172.0 " stroke="black" fill="none" stroke-width="2.0" stroke-linecap="round" stroke-linejoin="round" />
<path d="M 133.5 164.5 L 133.5 165.0 L 134.0 165.5 L 135.0 167.0 L 136.5 169.0 L 137.0 170.5 " stroke="black" fill="none" stroke-width="2.0" stroke-linecap="round" stroke-linejoin="round" />
<path d="M 140.5 164.5 L 140.5 164.5 L 141.0 164.5 L 141.5 165.0 L 142.0 166.5 L 142.5 167.0 L 143.0 169.0 " stroke="black" fill="none" stroke-width="2.0" stroke-linecap="round" stroke-linejoin="round" />
<path d="M 155.0 123.0 L 155.0 123.0 L 155.0 123.0 L 155.5 123.0 L 157.5 124.5 L 161.0 127.5 L 163.0 129.5 " stroke="black" fill="none" stroke-width="2.0" stroke-linecap="round" stroke-linejoin="round" />
<path d="M 152.5 133.5 L 152.0 134.0 L 152.0 134.0 L 155.0 134.5 L 160.5 134.5 L 165.5 134.5 L 167.0 134.5 L 170.0 134.5 " stroke="black" fill="none" stroke-width="2.0" stroke-linecap="round" stroke-linejoin="round" />
<path d="M 162.5 135.5 L 162.5 135.5 L 162.5 135.5 L 162.5 135.5 L 162.5 135.5 L 162.5 135.5 L 162.5 135.5 L 162.0 137.5 L 160.0 142.5 L 157.0 148.5 L 155.0 152.5 L 155.0 153.0 L 156.0 153.0 L 157.0 153.0 L 160.0 152.5 L 161.0 152.5 L 164.5 151.0 L 166.0 150.5 L 169.0 150.0 " stroke="black" fill="none" stroke-width="2.0" stroke-linecap="round" stroke-linejoin="round" />
<path d="M 174.5 144.5 L 174.5 144.5 L 174.5 144.5 L 174.5 144.5 L 174.5 144.5 L 174.0 145.0 L 174.0 145.5 L 172.0 149.0 L 169.0 155.0 L 164.5 162.5 L 161.0 169.0 L 159.5 171.5 L 159.5 171.5 " stroke="black" fill="none" stroke-width="2.0" stroke-linecap="round" stroke-linejoin="round" />
<path d="M 175.5 154.0 L 175.5 154.0 L 176.0 153.5 L 176.0 154.0 L 175.5 156.0 L 175.0 157.0 L 172.5 161.0 L 172.0 163.0 L 168.5 171.0 L 166.5 177.0 L 166.5 178.0 " stroke="black" fill="none" stroke-width="2.0" stroke-linecap="round" stroke-linejoin="round" />
<path d="M 174.5 166.5 L 174.5 166.5 L 174.5 166.5 L 174.5 166.5 L 175.0 166.5 L 176.5 167.0 L 179.0 168.5 L 183.0 170.5 " stroke="black" fill="none" stroke-width="2.0" stroke-linecap="round" stroke-linejoin="round" />
</svg>