<svg xmlns="http://www.w3.org/2000/svg" width="300" height="300" viewBox="0 0 300 300">
<path d="M 108.0 114.0 L 107.5 115.0 L 107.0 115.5 L 107.0 115.5 L 108.5 115.5 L 112.0 114.5 L 117.5 113.0 L 121.0 111.5 L 122.0 111.0 " stroke="black" fill="none" stroke-width="2.0" stroke-linecap="round" stroke-linejoin="round" />
<path d="M 119.5 105.5 L 119.5 105.5 L 119.5 105.5 L 119.5 105.5 L 119.5 106.0 L 119.5 106.5 L 119.5 106.5 L 120.0 110.0 L 121.0 115.5 L 121.5 119.5 " stroke="black" fill="none" stroke-width="2.0" stroke-linecap="round" stroke-linejoin="round" />
<path d="M 129.5 107.0 L 129.5 107.0 L 129.5 107.0 L 129.5 107.0 L 130.5 106.5 L 131.0 106.5 L 133.0 105.5 L 134.0 105.0 L 138.0 103.0 L 138.5 102.5 " stroke="black" fill="none" stroke-width="2.0" stroke-linecap="round" stroke-linejoin="round" />
<path d="M 131.0 101.0 L 131.0 101.0 L 131.0 101.0 L 131.0 101.0 L 131.0 101.5 L 131.0 103.5 L 131.5 108.0 L 132.0 112.0 " stroke="black" fill="none" stroke-width="2.0" stroke-linecap="round" stroke-linejoin="round" />
<path d="M 130.0 114.5 L 130.0 114.5 L 130.0 114.5 L 130.0 114.5 L 128.5 116.5 L 124.5 121.5 L 120.5 126.0 L 119.0 127.5 L 115.5 131.0 L 114.5 132.0 L 113.5 132.5 L 113.5 132.5 L 116.0 132.0 L 121.0 129.5 L 127.5 126.5 L 133.0 124.5 L 137.0 124.0 L 139.0 124.0 L 139.0 125.0 L 139.0 127.0 L 139.0 129.5 L 139.0 130.5 L 139.0 133.5 L 139.5 136.0 L 140.0 138.0 L 140.0 139.0 L 140.0 139.5 " stroke="black" fill="none" stroke-width="2.0" stroke-linecap="round" stroke-linejoin="round" />
<path d="M 131.0 140.5 L 130.0 141.0 L 129.0 141.0 L 128.0 140.0 L 127.5 137.5 L 128.0 135.0 L 130.0 132.5 L 132.0 131.5 L 133.0 131.5 L 133.5 131.5 L 133.5 134.0 L 132.5 137.0 L 130.5 139.5 L 129.0 140.0 L 129.0 140.0 " stroke="black" fill="none" stroke-width="2.0" stroke-linecap="round" stroke-linejoin="round" />
<path d="M 154.5 103.0 L 154.5 103.0 L 154.0 103.0 L 152.5 105.5 L 152.0 106.5 L 149.5 111.5 L 148.5 114.0 L 148.0 114.5 L 149.5 115.0 L 152.5 112.5 L 156.5 109.5 L 159.5 108.0 L 160.0 109.0 L 158.5 114.5 L 156.0 121.0 L 154.0 126.5 L 153.0 127.5 L 151.0 132.5 L 150.0 134.5 L 149.5 134.0 " stroke="black" fill="none" stroke-width="2.0" stroke-linecap="round" stroke-linejoin="round" />
<path d="M 149.5 121.5 L 149.5 122.0 L 149.5 122.0 L 149.5 123.0 L 150.0 123.0 L 151.5 124.0 L 152.5 124.5 L 157.0 126.0 L 162.0 128.0 L 164.5 129.5 " stroke="black" fill="none" stroke-width="2.0" stroke-linecap="round" stroke-linejoin="round" />
<path d="M 132.0 150.5 L 132.0 150.5 L 132.0 151.0 L 132.0 151.0 L 132.0 151.0 L 134.5 150.5 L 141.0 149.0 L 149.5 146.0 L 154.5 143.5 L 155.5 142.5 " stroke="black" fill="none" stroke-width="2.0" stroke-linecap="round" stroke-linejoin="round" />
<path d="M 140.0 150.5 L 140.0 150.5 L 140.5 150.5 L 141.5 151.5 L 142.5 155.5 L 143.0 161.5 L 143.0 165.5 L 143.0 166.0 L 143.0 167.5 " stroke="black" fill="none" stroke-width="2.0" stroke-linecap="round" stroke-linejoin="round" />
<path d="M 144.5 155.0 L 144.5 155.0 L 144.5 155.0 L 145.5 155.0 L 148.0 154.0 L 149.0 153.0 L 152.5 151.5 L 153.0 150.5 L 155.0 149.5 " stroke="black" fill="none" stroke-width="2.0" stroke-linecap="round" stroke-linejoin="round" />
<path d="M 146.5 163.0 L 146.5 163.5 L 146.5 163.5 L 147.0 163.5 L 149.0 162.5 L 149.5 161.5 L 153.0 158.5 L 155.5 156.0 L 156.0 155.0 " stroke="black" fill="none" stroke-width="2.0" stroke-linecap="round" stroke-linejoin="round" />
<path d="M 152.0 150.0 L 152.0 150.0 L 152.0 150.0 L 152.0 150.5 L 152.0 153.0 L 151.0 160.0 L 149.5 168.5 L 148.0 173.5 L 147.5 174.0 L 149.5 172.0 L 154.0 168.5 L 158.0 165.5 L 159.5 164.5 L 163.0 162.0 L 164.0 162.0 L 166.0 161.5 L 166.5 161.5 L 167.0 164.5 L 166.0 171.0 L 164.5 178.0 L 162.0 184.0 L 159.0 188.5 L 156.5 190.5 L 156.0 190.5 " stroke="black" fill="none" stroke-width="2.0" stroke-linecap="round" stroke-linejoin="round" />
<path d="M 117.0 174.0 L 117.0 174.0 L 117.0 174.0 L 118.5 174.5 L 122.5 176.5 L 128.0 181.0 L 132.5 185.0 " stroke="black" fill="none" stroke-width="2.0" stroke-linecap="round" stroke-linejoin="round" />
<path d="M 135.0 172.5 L 135.0 172.5 L 135.0 173.5 L 136.5 175.5 L 138.5 178.5 L 141.5 182.0 L 142.0 182.5 " stroke="black" fill="none" stroke-width="2.0" stroke-linecap="round" stroke-linejoin="round" />
<path d="M 146.0 176.0 L 146.0 176.0 L 146.5 176.0 L 147.0 176.5 L 148.0 178.0 L 150.0 180.5 L 151.5 182.5 " stroke="black" fill="none" stroke-width="2.0" stroke-linecap="round" stroke-linejoin="round" />
<path d="M 156.5 173.0 L 156.5 173.5 L 157.0 174.5 L 158.0 177.0 L 159.5 180.0 " stroke="black" fill="none" stroke-width="2.0" stroke-linecap="round" stroke-linejoin="round" />
</svg>