<svg xmlns="http://www.w3.org/2000/svg" width="300" height="300" viewBox="0 0 300 300">
<path d="M 139.5 121.5 L 139.5 122.0 L 139.5 122.5 L 139.5 122.5 L 139.5 122.5 L 139.5 122.5 L 139.5 123.5 L 137.0 126.5 L 132.5 132.5 L 127.5 138.0 L 125.5 140.0 L 125.5 140.0 " stroke="black" fill="none" stroke-width="2.0" stroke-linecap="round" stroke-linejoin="round" />
<path d="M 136.5 131.0 L 136.5 131.5 L 136.5 132.0 L 137.5 132.0 L 139.5 132.5 L 142.5 132.5 L 144.5 132.5 L 145.5 132.5 L 144.5 133.5 L 142.0 135.5 L 141.0 136.0 L 136.5 139.5 L 132.5 142.0 L 131.5 142.5 " stroke="black" fill="none" stroke-width="2.0" stroke-linecap="round" stroke-linejoin="round" />
<path d="M 132.0 140.5 L 132.0 140.5 L 132.0 140.5 L 132.0 140.5 L 132.0 141.0 L 132.0 141.5 L 131.5 145.0 L 131.0 151.5 L 130.5 159.5 L 130.0 163.5 L 130.0 163.0 L 130.5 161.5 " stroke="black" fill="none" stroke-width="2.0" stroke-linecap="round" stroke-linejoin="round" />
<path d="M 134.0 144.5 L 134.0 144.5 L 134.0 144.5 L 134.0 144.5 L 135.5 144.0 L 139.0 143.5 L 143.0 145.0 L 146.5 150.0 L 147.5 157.0 L 147.5 162.5 L 147.0 164.0 L 146.5 167.0 L 146.0 167.5 L 145.5 168.0 L 145.5 168.0 L 145.5 167.5 " stroke="black" fill="none" stroke-width="2.0" stroke-linecap="round" stroke-linejoin="round" />
<path d="M 132.0 154.0 L 132.0 154.0 L 132.0 154.0 L 132.0 154.5 L 132.5 154.5 L 133.5 154.5 L 137.5 154.5 L 141.5 154.0 L 143.0 154.0 " stroke="black" fill="none" stroke-width="2.0" stroke-linecap="round" stroke-linejoin="round" />
<path d="M 129.0 166.0 L 129.0 166.0 L 129.0 166.5 L 130.0 166.5 L 135.5 165.5 L 142.0 163.5 L 145.0 162.0 " stroke="black" fill="none" stroke-width="2.0" stroke-linecap="round" stroke-linejoin="round" />
<path d="M 137.5 144.0 L 137.5 143.5 L 137.5 143.0 L 137.0 143.5 L 137.0 147.0 L 137.5 152.5 L 137.5 158.5 L 137.5 160.0 " stroke="black" fill="none" stroke-width="2.0" stroke-linecap="round" stroke-linejoin="round" />
<path d="M 119.0 168.0 L 119.0 168.0 L 118.5 168.0 L 118.5 168.0 L 118.5 168.0 L 118.0 168.0 L 118.0 168.0 L 118.5 168.0 L 120.5 170.5 L 123.0 174.0 L 124.5 176.0 " stroke="black" fill="none" stroke-width="2.0" stroke-linecap="round" stroke-linejoin="round" />
<path d="M 128.0 167.5 L 128.0 168.0 L 128.0 168.5 L 129.0 169.5 L 131.5 171.5 L 134.5 174.5 L 136.5 177.0 " stroke="black" fill="none" stroke-width="2.0" stroke-linecap="round" stroke-linejoin="round" />
<path d="M 137.5 169.5 L 138.0 170.0 L 138.5 171.0 L 139.5 171.5 L 139.5 172.0 L 141.0 173.5 L 141.5 174.0 L 142.5 176.0 L 142.5 176.5 " stroke="black" fill="none" stroke-width="2.0" stroke-linecap="round" stroke-linejoin="round" />
<path d="M 145.5 169.0 L 145.5 170.5 L 145.5 171.0 L 146.0 171.5 L 146.0 172.5 L 146.5 173.0 L 147.0 174.0 L 147.0 174.5 " stroke="black" fill="none" stroke-width="2.0" stroke-linecap="round" stroke-linejoin="round" />
<path d="M 154.5 120.5 L 154.5 120.5 L 154.5 120.5 L 154.5 120.5 L 154.5 120.5 L 154.5 120.5 L 155.0 120.5 L 156.5 122.0 L 157.0 122.5 L 161.0 125.0 L 162.0 126.0 " stroke="black" fill="none" stroke-width="2.0" stroke-linecap="round" stroke-linejoin="round" />
<path d="M 167.0 124.0 L 168.5 122.5 L 169.0 122.5 L 169.0 122.5 L 169.0 122.5 L 168.5 123.0 L 168.0 123.0 L 165.5 126.0 L 162.5 129.0 L 159.0 132.0 L 157.0 134.5 L 156.5 135.0 L 158.5 135.0 L 163.0 134.5 L 167.0 133.5 L 169.5 133.0 L 170.5 133.0 L 171.5 132.5 L 171.5 132.5 L 171.5 132.5 " stroke="black" fill="none" stroke-width="2.0" stroke-linecap="round" stroke-linejoin="round" />
<path d="M 154.0 147.0 L 154.5 147.0 L 154.5 147.0 L 155.0 147.5 L 156.0 147.5 L 157.0 147.0 L 160.0 146.0 L 161.5 145.5 L 165.5 144.0 L 167.0 144.0 L 170.5 142.5 L 171.5 142.5 " stroke="black" fill="none" stroke-width="2.0" stroke-linecap="round" stroke-linejoin="round" />
<path d="M 151.0 155.5 L 151.0 156.0 L 151.5 156.0 L 152.5 156.0 L 153.5 156.0 L 161.0 155.0 L 169.5 151.5 L 176.0 148.5 L 177.5 147.5 " stroke="black" fill="none" stroke-width="2.0" stroke-linecap="round" stroke-linejoin="round" />
<path d="M 164.5 132.0 L 164.5 132.0 L 164.0 132.0 L 164.0 132.0 L 164.0 132.5 L 164.5 138.5 L 165.0 150.5 L 165.0 165.0 L 165.0 174.0 L 165.0 176.5 L 165.0 182.0 L 165.0 184.5 L 165.0 184.5 L 165.0 184.5 L 165.0 184.0 L 165.0 182.0 L 165.0 180.0 " stroke="black" fill="none" stroke-width="2.0" stroke-linecap="round" stroke-linejoin="round" />
</svg>