<svg xmlns="http://www.w3.org/2000/svg" width="300" height="300" viewBox="0 0 300 300">
<path d="M 137.0 119.0 L 137.0 119.0 L 137.0 119.0 L 137.0 119.5 L 137.0 119.5 L 137.0 119.5 L 137.0 119.5 L 137.0 120.5 L 137.0 121.0 L 136.5 124.0 L 136.0 126.0 L 133.5 132.5 L 132.5 135.0 L 129.5 142.0 L 127.0 148.0 L 126.5 148.5 L 126.5 149.0 L 126.5 149.0 L 127.5 147.5 " stroke="black" fill="none" stroke-width="2.0" stroke-linecap="round" stroke-linejoin="round" />
<path d="M 132.0 135.5 L 132.0 136.0 L 132.0 136.5 L 132.5 137.0 L 133.0 137.0 L 134.5 138.5 L 135.5 139.0 L 139.0 142.5 L 143.0 147.5 L 144.0 148.5 L 145.0 151.0 L 145.0 151.5 L 145.0 151.5 L 145.0 151.5 L 144.0 151.0 " stroke="black" fill="none" stroke-width="2.0" stroke-linecap="round" stroke-linejoin="round" />
<path d="M 120.0 130.0 L 120.0 130.0 L 120.0 130.5 L 120.0 130.5 L 120.0 130.5 L 120.5 131.0 L 121.0 131.0 L 123.5 132.0 L 124.0 132.0 L 127.0 133.5 " stroke="black" fill="none" stroke-width="2.0" stroke-linecap="round" stroke-linejoin="round" />
<path d="M 118.5 143.5 L 118.5 144.0 L 118.5 144.5 L 118.5 144.5 L 118.5 144.5 L 118.5 144.5 L 121.5 143.0 L 124.0 141.0 L 125.0 140.0 L 127.5 138.5 " stroke="black" fill="none" stroke-width="2.0" stroke-linecap="round" stroke-linejoin="round" />
<path d="M 146.5 127.0 L 146.0 127.0 L 146.0 127.0 L 146.0 127.5 L 146.0 127.5 L 146.0 127.5 L 146.0 127.5 L 145.5 128.0 L 145.5 128.5 L 145.0 130.0 L 144.5 130.5 L 143.5 132.5 L 143.5 133.0 L 142.5 134.5 L 142.5 135.0 L 142.0 136.0 L 142.0 136.0 L 142.5 137.0 L 143.0 137.5 L 145.0 138.5 L 146.5 139.5 L 147.5 140.0 L 147.5 140.0 L 148.0 140.5 " stroke="black" fill="none" stroke-width="2.0" stroke-linecap="round" stroke-linejoin="round" />
<path d="M 128.5 155.0 L 128.5 155.0 L 128.5 154.5 L 128.5 154.5 L 128.5 154.5 L 128.5 154.5 L 128.5 155.0 L 128.5 155.0 L 128.5 157.5 L 128.5 162.0 L 128.0 167.5 L 127.5 171.0 L 127.5 170.0 " stroke="black" fill="none" stroke-width="2.0" stroke-linecap="round" stroke-linejoin="round" />
<path d="M 131.5 153.0 L 132.0 153.0 L 132.0 152.5 L 133.0 152.5 L 134.5 152.5 L 136.5 154.0 L 138.5 157.0 L 140.0 162.5 L 140.0 164.0 L 140.0 170.0 L 140.0 172.0 L 140.0 178.0 L 139.5 180.0 L 138.5 185.0 L 138.0 186.5 L 137.5 189.0 L 137.5 189.5 L 137.0 190.0 L 136.5 189.0 L 136.0 185.5 " stroke="black" fill="none" stroke-width="2.0" stroke-linecap="round" stroke-linejoin="round" />
<path d="M 131.5 162.0 L 131.5 162.5 L 131.0 162.5 L 131.0 162.5 L 133.0 162.5 L 136.5 162.0 L 137.5 161.5 " stroke="black" fill="none" stroke-width="2.0" stroke-linecap="round" stroke-linejoin="round" />
<path d="M 130.0 169.5 L 130.0 169.5 L 130.0 169.5 L 130.5 170.0 L 130.5 170.0 L 131.5 170.0 L 132.0 170.0 L 134.5 168.5 L 136.0 168.0 L 139.0 166.0 " stroke="black" fill="none" stroke-width="2.0" stroke-linecap="round" stroke-linejoin="round" />
<path d="M 166.0 123.0 L 166.0 123.0 L 165.5 122.5 L 165.5 122.5 L 165.0 122.5 L 164.5 123.0 L 164.0 123.0 L 162.0 124.0 L 161.5 124.5 L 158.5 125.5 L 157.5 126.0 L 154.5 127.0 L 152.5 127.5 L 152.0 128.0 L 152.5 128.5 L 154.5 131.5 L 155.0 135.0 L 155.0 136.0 L 155.5 141.0 L 155.5 147.5 L 155.5 149.0 L 155.5 151.5 L 155.5 152.0 L 155.0 152.5 L 155.0 151.5 L 155.0 148.0 " stroke="black" fill="none" stroke-width="2.0" stroke-linecap="round" stroke-linejoin="round" />
<path d="M 157.0 131.5 L 157.5 130.5 L 158.0 130.0 L 159.0 129.0 L 160.0 129.0 L 162.0 129.0 L 165.5 129.0 L 168.0 131.0 L 169.0 133.5 L 169.0 137.0 L 169.0 137.5 L 169.0 139.5 L 168.5 139.5 L 168.0 140.5 " stroke="black" fill="none" stroke-width="2.0" stroke-linecap="round" stroke-linejoin="round" />
<path d="M 159.0 135.5 L 159.0 136.0 L 159.0 136.0 L 159.0 136.0 L 159.0 136.0 L 159.0 136.5 L 159.0 136.5 L 160.5 136.5 L 163.5 136.5 L 165.5 136.5 L 166.0 136.0 " stroke="black" fill="none" stroke-width="2.0" stroke-linecap="round" stroke-linejoin="round" />
<path d="M 158.0 141.5 L 158.0 142.0 L 158.0 142.0 L 159.5 142.0 L 162.5 142.0 L 166.0 142.0 L 168.0 141.5 " stroke="black" fill="none" stroke-width="2.0" stroke-linecap="round" stroke-linejoin="round" />
<path d="M 157.5 150.0 L 157.5 150.5 L 157.5 151.0 L 158.5 151.0 L 161.0 150.5 L 165.5 149.5 L 168.0 149.5 L 169.0 149.5 L 169.5 149.5 " stroke="black" fill="none" stroke-width="2.0" stroke-linecap="round" stroke-linejoin="round" />
<path d="M 156.0 159.0 L 156.0 159.5 L 156.0 160.0 L 157.0 160.0 L 160.5 158.5 L 164.0 157.0 L 169.0 155.5 L 172.5 155.5 L 175.5 158.0 L 177.5 161.0 L 178.0 162.0 L 178.5 165.5 L 178.5 167.0 L 178.5 171.0 L 178.5 172.0 L 178.0 176.0 L 177.5 177.5 L 176.5 180.5 L 175.0 183.0 L 173.0 183.0 L 170.5 182.0 " stroke="black" fill="none" stroke-width="2.0" stroke-linecap="round" stroke-linejoin="round" />
<path d="M 150.0 162.0 L 150.0 162.0 L 149.5 162.5 L 149.5 163.0 L 149.5 163.0 L 149.5 163.5 L 151.0 165.0 L 153.0 168.0 L 155.5 171.0 L 156.0 172.5 " stroke="black" fill="none" stroke-width="2.0" stroke-linecap="round" stroke-linejoin="round" />
<path d="M 159.5 163.5 L 160.0 164.0 L 160.0 164.5 L 160.0 164.5 L 160.5 165.0 L 161.0 165.5 L 162.0 166.5 L 163.5 169.0 L 164.0 169.5 L 164.5 171.0 " stroke="black" fill="none" stroke-width="2.0" stroke-linecap="round" stroke-linejoin="round" />
<path d="M 168.5 164.0 L 168.5 165.0 L 168.5 166.0 L 168.5 166.0 L 168.5 167.0 L 169.5 168.5 L 170.0 169.5 " stroke="black" fill="none" stroke-width="2.0" stroke-linecap="round" stroke-linejoin="round" />
<path d="M 173.5 163.0 L 173.5 163.5 L 173.5 164.5 L 174.0 165.5 L 174.0 167.0 L 174.0 167.5 " stroke="black" fill="none" stroke-width="2.0" stroke-linecap="round" stroke-linejoin="round" />
<path d="M 156.0 151.5 L 156.0 151.5 L 156.0 152.0 L 156.0 152.0 L 156.5 152.0 L 156.5 152.5 L 156.5 153.0 L 156.5 154.5 L 156.5 155.0 L 156.0 156.5 L 155.5 158.0 L 155.5 158.5 " stroke="black" fill="none" stroke-width="2.0" stroke-linecap="round" stroke-linejoin="round" />
</svg>