<svg xmlns="http://www.w3.org/2000/svg" width="300" height="300" viewBox="0 0 300 300">
    <path d="M 99.66665649414062 23.999989827473996 L 104.66665649414062 34.666661580403684 L 109.66665649414062 44.33333333333337 L 115.33332824707031 52.33333333333337 M 75.0 72.66666158040368 L 79.0 71.33333333333337 L 89.33332824707031 71.33333333333337 L 105.0 71.33333333333337 L 123.0 70.999989827474 L 144.0 69.66666158040368 L 165.0 68.33333333333337 L 184.0 67.66666158040368 L 197.0 67.66666158040368 L 202.0 67.66666158040368 L 201.0 67.66666158040368 L 194.66665649414062 70.33333333333337 M 106.0 92.33333333333337 L 110.0 98.999989827474 L 117.66665649414062 105.66666158040368 L 127.33332824707031 112.33333333333337 L 138.0 116.999989827474 L 149.0 120.33333333333337 L 158.3333282470703 123.33333333333337 L 164.3333282470703 124.66666158040368 L 166.3333282470703 124.66666158040368 M 161.0 78.33333333333337 L 150.66665649414062 87.999989827474 L 143.66665649414062 94.999989827474 L 135.0 103.999989827474 L 124.66665649414062 115.33333333333337 L 114.0 127.66666158040368 L 103.0 139.66666158040368 M 66.66665649414062 148.999989827474 L 70.66665649414062 148.999989827474 L 82.33332824707031 148.999989827474 L 101.0 148.999989827474 L 125.66665649414062 148.999989827474 L 149.0 147.999989827474 L 169.3333282470703 146.999989827474 L 184.66665649414062 145.999989827474 L 193.3333282470703 144.999989827474 L 194.66665649414062 144.999989827474 L 190.66665649414062 146.33333333333337 L 182.0 151.33333333333337 M 81.66665649414062 154.999989827474 L 79.33332824707031 163.33333333333337 L 79.33332824707031 169.66666158040368 L 79.33332824707031 173.999989827474 L 79.33332824707031 179.33333333333337 L 79.33332824707031 193.33333333333337 L 74.66665649414062 212.66666158040368 L 66.66665649414062 232.999989827474 L 57.33332824707031 251.66666158040368 L 49.666656494140625 264.6666615804037 L 45.33332824707031 269.33333333333337 L 45.33332824707031 269.6666615804037 M 96.33332824707031 171.66666158040368 L 91.66665649414062 183.66666158040368 L 91.66665649414062 189.999989827474 L 91.66665649414062 195.66666158040368 L 91.66665649414062 201.66666158040368 L 90.33332824707031 207.66666158040368 L 89.0 212.999989827474 L 87.33332824707031 215.66666158040368 L 86.33332824707031 215.66666158040368 L 86.33332824707031 213.33333333333337 M 93.33332824707031 205.999989827474 L 100.66665649414062 201.33333333333337 L 105.66665649414062 200.33333333333337 L 114.0 199.66666158040368 L 126.66665649414062 199.66666158040368 L 140.66665649414062 199.66666158040368 L 154.66665649414062 199.66666158040368 L 166.66665649414062 199.66666158040368 L 175.0 199.66666158040368 L 179.3333282470703 199.66666158040368 L 179.66665649414062 199.66666158040368 L 178.66665649414062 199.66666158040368 L 178.3333282470703 199.66666158040368 M 116.0 237.999989827474 L 122.0 237.33333333333337 L 130.3333282470703 237.33333333333337 L 140.0 236.999989827474 L 151.66665649414062 236.999989827474 L 161.3333282470703 236.999989827474 L 167.3333282470703 236.999989827474 L 169.0 236.999989827474 L 169.0 237.33333333333337 L 167.3333282470703 240.33333333333337 M 100.66665649414062 266.6666615804037 L 103.33332824707031 272.6666615804037 L 111.66665649414062 272.6666615804037 L 125.0 272.6666615804037 L 141.3333282470703 272.33333333333337 L 156.66665649414062 271.6666615804037 L 169.0 270.999989827474 L 179.66665649414062 270.33333333333337 L 188.3333282470703 269.999989827474 L 194.66665649414062 269.999989827474 L 197.0 269.999989827474 L 197.0 270.999989827474 L 197.0 272.6666615804037 M 147.66665649414062 177.66666158040368 L 145.0 180.66666158040368 L 145.0 187.33333333333337 L 145.0 197.66666158040368 L 145.0 211.999989827474 L 145.0 227.999989827474 L 145.0 243.33333333333337 L 145.0 256.33333333333337 L 145.0 266.999989827474 L 145.0 274.999989827474 L 145.0 279.6666615804037 L 147.66665649414062 280.6666615804037 " fill="none" stroke="black" stroke-width="2"/>
</svg>