<svg xmlns="http://www.w3.org/2000/svg" width="300" height="300" viewBox="0 0 300 300">
    <path d="M 94.0 11.333333333333371 L 93.33332824707031 11.333333333333371 L 92.33332824707031 11.666661580403684 L 90.0 12.666661580403684 L 86.33332824707031 14.999989827473996 L 79.33332824707031 20.666661580403684 L 71.33332824707031 27.666661580403684 L 66.33332824707031 31.999989827473996 L 62.666656494140625 35.666661580403684 L 58.666656494140625 38.666661580403684 L 52.666656494140625 43.33333333333337 L 50.666656494140625 44.33333333333337 L 49.0 45.33333333333337 L 48.33332824707031 45.999989827473996 L 47.666656494140625 45.999989827473996 L 47.0 46.33333333333337 L 46.666656494140625 46.666661580403684 L 46.33332824707031 46.999989827473996 L 45.666656494140625 47.33333333333337 L 45.33332824707031 47.33333333333337 L 44.666656494140625 47.666661580403684 L 44.33332824707031 47.999989827473996 L 43.33332824707031 48.33333333333337 M 31.666656494140625 61.33333333333337 L 31.666656494140625 61.999989827473996 L 31.666656494140625 63.33333333333337 L 31.666656494140625 65.66666158040368 L 31.666656494140625 83.66666158040368 L 31.666656494140625 111.999989827474 L 31.666656494140625 125.33333333333337 L 31.666656494140625 138.33333333333337 L 31.666656494140625 150.33333333333337 L 31.666656494140625 160.66666158040368 L 31.666656494140625 168.999989827474 L 31.666656494140625 175.66666158040368 L 31.666656494140625 187.33333333333337 L 31.666656494140625 190.999989827474 L 31.666656494140625 193.33333333333337 L 31.666656494140625 195.33333333333337 L 31.666656494140625 196.33333333333337 L 31.666656494140625 197.33333333333337 L 31.666656494140625 197.999989827474 L 31.666656494140625 198.33333333333337 L 32.0 198.66666158040368 L 32.33332824707031 199.33333333333337 L 33.33332824707031 200.999989827474 L 34.0 204.66666158040368 L 34.666656494140625 206.66666158040368 L 35.0 208.66666158040368 L 35.0 210.33333333333337 L 35.33332824707031 211.999989827474 L 35.666656494140625 214.33333333333337 L 35.666656494140625 214.999989827474 L 35.666656494140625 215.66666158040368 L 35.33332824707031 215.66666158040368 M 37.0 58.33333333333337 L 37.33332824707031 58.33333333333337 L 38.666656494140625 58.33333333333337 L 50.0 58.33333333333337 L 74.0 58.33333333333337 L 92.0 58.33333333333337 L 97.0 58.33333333333337 L 98.33332824707031 58.33333333333337 L 98.66665649414062 58.666661580403684 L 98.66665649414062 58.999989827473996 L 98.66665649414062 59.33333333333337 L 98.66665649414062 59.666661580403684 L 98.66665649414062 59.999989827473996 L 98.66665649414062 61.33333333333337 L 98.66665649414062 64.999989827474 L 98.66665649414062 70.66666158040368 L 98.33332824707031 77.33333333333337 L 98.33332824707031 84.999989827474 L 98.33332824707031 90.33333333333337 L 98.33332824707031 95.999989827474 L 98.33332824707031 101.66666158040368 L 98.66665649414062 107.999989827474 L 99.0 113.999989827474 L 99.66665649414062 124.33333333333337 L 100.0 133.33333333333337 L 100.66665649414062 141.999989827474 L 100.66665649414062 146.66666158040368 L 100.66665649414062 155.999989827474 L 100.66665649414062 160.999989827474 L 100.66665649414062 166.33333333333337 L 100.66665649414062 171.33333333333337 L 100.66665649414062 181.33333333333337 L 100.66665649414062 190.66666158040368 L 100.66665649414062 198.999989827474 L 100.66665649414062 206.33333333333337 L 100.33332824707031 211.999989827474 L 99.66665649414062 216.66666158040368 L 99.33332824707031 220.66666158040368 L 99.0 223.66666158040368 L 99.0 225.66666158040368 L 99.0 227.33333333333337 L 98.66665649414062 228.33333333333337 L 98.33332824707031 228.66666158040368 L 97.66665649414062 228.66666158040368 M 32.666656494140625 139.33333333333337 L 33.0 139.33333333333337 L 34.0 139.33333333333337 L 44.33332824707031 139.33333333333337 L 52.0 139.33333333333337 L 61.666656494140625 139.33333333333337 L 74.33332824707031 139.33333333333337 L 77.0 139.33333333333337 L 78.66665649414062 139.33333333333337 L 79.33332824707031 139.33333333333337 L 80.0 139.33333333333337 L 80.66665649414062 139.33333333333337 L 81.0 139.33333333333337 L 81.33332824707031 139.33333333333337 L 82.0 139.33333333333337 M 40.0 217.999989827474 L 40.33332824707031 217.999989827474 L 41.0 217.999989827474 L 44.0 217.999989827474 L 54.666656494140625 217.999989827474 L 61.33332824707031 217.999989827474 L 78.33332824707031 217.999989827474 L 87.33332824707031 217.999989827474 L 92.33332824707031 217.999989827474 L 95.33332824707031 217.999989827474 L 97.0 217.999989827474 L 97.66665649414062 217.999989827474 L 98.33332824707031 217.999989827474 L 99.0 217.999989827474 L 99.33332824707031 217.999989827474 L 99.66665649414062 217.66666158040368 L 99.66665649414062 216.999989827474 M 151.66665649414062 12.999989827473996 L 151.66665649414062 13.666661580403684 L 151.3333282470703 14.666661580403684 L 150.0 16.666661580403684 L 143.3333282470703 25.33333333333337 L 134.3333282470703 34.999989827473996 L 127.33332824707031 42.999989827473996 L 123.0 47.33333333333337 L 122.0 48.666661580403684 L 121.66665649414062 49.33333333333337 M 139.66665649414062 43.999989827473996 L 141.3333282470703 43.999989827473996 L 154.66665649414062 43.999989827473996 L 179.66665649414062 43.999989827473996 L 192.3333282470703 43.999989827473996 L 201.3333282470703 43.999989827473996 L 213.0 43.999989827473996 L 218.3333282470703 43.999989827473996 L 221.0 43.999989827473996 L 223.66665649414062 43.999989827473996 L 227.0 43.999989827473996 L 229.3333282470703 44.33333333333337 L 230.3333282470703 44.999989827473996 L 230.66665649414062 45.999989827473996 L 230.66665649414062 48.33333333333337 L 230.3333282470703 50.666661580403684 L 228.3333282470703 52.999989827473996 L 226.66665649414062 54.999989827473996 L 225.0 57.33333333333337 L 223.66665649414062 60.666661580403684 L 222.3333282470703 67.66666158040368 L 221.3333282470703 80.999989827474 L 219.66665649414062 98.66666158040368 L 218.0 116.999989827474 L 217.3333282470703 131.66666158040368 L 216.3333282470703 144.999989827474 L 215.0 158.999989827474 L 213.0 171.999989827474 L 211.0 183.66666158040368 L 209.66665649414062 192.66666158040368 L 208.0 199.66666158040368 L 207.3333282470703 203.66666158040368 L 206.66665649414062 206.66666158040368 L 205.66665649414062 210.66666158040368 L 205.0 212.999989827474 L 204.3333282470703 214.33333333333337 L 204.0 214.66666158040368 L 203.66665649414062 214.999989827474 L 202.66665649414062 214.999989827474 L 201.66665649414062 214.999989827474 L 200.0 214.33333333333337 L 198.0 212.33333333333337 L 195.66665649414062 209.999989827474 L 189.0 205.33333333333337 L 183.3333282470703 202.33333333333337 L 178.3333282470703 200.33333333333337 L 173.3333282470703 198.33333333333337 L 170.0 196.999989827474 L 167.3333282470703 195.999989827474 L 165.66665649414062 194.999989827474 L 164.0 193.999989827474 L 162.66665649414062 192.66666158040368 L 161.0 190.999989827474 L 159.3333282470703 189.33333333333337 L 158.0 188.33333333333337 L 157.3333282470703 187.66666158040368 M 153.0 118.999989827474 L 153.0 119.33333333333337 L 153.0 120.33333333333337 L 154.66665649414062 126.66666158040368 L 157.66665649414062 134.66666158040368 L 160.3333282470703 139.33333333333337 L 162.3333282470703 142.66666158040368 L 163.66665649414062 145.66666158040368 L 164.66665649414062 146.999989827474 L 165.3333282470703 148.33333333333337 " fill="none" stroke="black" stroke-width="2"/>
</svg>