<svg xmlns="http://www.w3.org/2000/svg" width="300" height="300" viewBox="0 0 300 300">
<path d="M 153.31 114.02 L 154.26 113.63 C 155.21 113.24 155.66 112.15 155.27 111.20 C 154.88 110.25 153.80 109.80 152.85 110.19 L 151.90 110.58 C 150.95 110.97 150.49 112.05 150.88 113.00 C 151.27 113.95 152.36 114.41 153.31 114.02 Z M 151.81 112.76 L 152.10 113.33 C 152.56 114.29 153.72 114.69 154.68 114.22 C 155.64 113.75 156.04 112.59 155.57 111.63 L 155.29 111.06 C 154.82 110.10 153.66 109.70 152.70 110.17 C 151.74 110.64 151.35 111.80 151.81 112.76 Z M 151.84 112.23 L 151.69 113.43 C 151.55 114.53 152.33 115.53 153.43 115.67 C 154.53 115.81 155.53 115.03 155.67 113.93 L 155.82 112.73 C 155.96 111.63 155.18 110.63 154.08 110.49 C 152.98 110.36 151.98 111.13 151.84 112.23 Z M 151.70 113.12 L 151.42 114.11 C 151.11 115.20 151.75 116.34 152.84 116.65 C 153.94 116.95 155.07 116.32 155.38 115.23 L 155.66 114.24 C 155.97 113.14 155.33 112.01 154.24 111.70 C 153.15 111.39 152.01 112.03 151.70 113.12 Z M 151.43 113.98 L 151.09 114.97 C 150.71 116.05 151.29 117.24 152.38 117.62 C 153.47 118.00 154.65 117.42 155.03 116.33 L 155.37 115.35 C 155.75 114.26 155.17 113.08 154.09 112.70 C 153.00 112.32 151.81 112.90 151.43 113.98 Z M 151.09 114.90 L 150.74 115.82 C 150.32 116.91 150.86 118.13 151.95 118.55 C 153.04 118.96 154.26 118.42 154.68 117.33 L 155.03 116.40 C 155.45 115.31 154.90 114.09 153.81 113.68 C 152.73 113.26 151.50 113.81 151.09 114.90 Z M 150.73 115.77 L 150.33 116.76 C 149.89 117.85 150.41 119.09 151.50 119.53 C 152.59 119.98 153.84 119.45 154.28 118.36 L 154.68 117.38 C 155.13 116.29 154.60 115.05 153.51 114.60 C 152.42 114.16 151.18 114.68 150.73 115.77 Z M 150.35 116.69 L 149.99 117.50 C 149.51 118.58 150.00 119.85 151.08 120.33 C 152.16 120.81 153.43 120.32 153.91 119.24 L 154.27 118.43 C 154.75 117.35 154.26 116.08 153.18 115.60 C 152.10 115.12 150.83 115.61 150.35 116.69 Z M 150.00 117.45 L 149.57 118.35 C 149.07 119.42 149.53 120.71 150.60 121.22 C 151.68 121.72 152.97 121.26 153.47 120.19 L 153.90 119.29 C 154.41 118.21 153.94 116.93 152.87 116.42 C 151.79 115.91 150.51 116.37 150.00 117.45 Z M 149.57 118.32 L 149.14 119.22 C 148.62 120.30 149.07 121.60 150.15 122.12 C 151.23 122.64 152.52 122.18 153.04 121.11 L 153.48 120.21 C 154.00 119.13 153.54 117.83 152.47 117.31 C 151.39 116.79 150.09 117.25 149.57 118.32 Z M 149.14 119.20 L 148.69 120.11 C 148.15 121.19 148.60 122.50 149.67 123.03 C 150.75 123.56 152.06 123.12 152.59 122.04 L 153.04 121.13 C 153.58 120.05 153.13 118.74 152.06 118.21 C 150.98 117.68 149.67 118.12 149.14 119.20 Z M 148.70 120.07 L 148.24 120.96 C 147.69 122.03 148.11 123.35 149.18 123.90 C 150.25 124.46 151.57 124.04 152.13 122.96 L 152.58 122.08 C 153.14 121.01 152.72 119.69 151.64 119.13 C 150.57 118.58 149.25 119.00 148.70 120.07 Z M 148.26 120.91 L 147.78 121.80 C 147.20 122.86 147.59 124.19 148.65 124.77 C 149.72 125.35 151.05 124.96 151.63 123.89 L 152.11 123.01 C 152.69 121.94 152.30 120.61 151.23 120.03 C 150.17 119.45 148.83 119.85 148.26 120.91 Z M 147.79 121.75 L 147.31 122.60 C 146.71 123.66 147.07 125.00 148.13 125.61 C 149.18 126.21 150.53 125.84 151.13 124.78 L 151.61 123.93 C 152.22 122.88 151.85 121.53 150.79 120.93 C 149.74 120.33 148.39 120.70 147.79 121.75 Z M 147.32 122.58 L 146.81 123.45 C 146.19 124.50 146.54 125.85 147.59 126.46 C 148.63 127.08 149.99 126.73 150.60 125.68 L 151.12 124.81 C 151.73 123.76 151.38 122.41 150.34 121.80 C 149.29 121.18 147.94 121.53 147.32 122.58 Z M 146.81 123.43 L 146.30 124.29 C 145.67 125.33 146.01 126.69 147.05 127.31 C 148.10 127.94 149.45 127.60 150.08 126.56 L 150.59 125.70 C 151.22 124.66 150.88 123.30 149.84 122.68 C 148.80 122.05 147.44 122.39 146.81 123.43 Z M 146.31 124.27 L 145.79 125.11 C 145.15 126.15 145.47 127.51 146.51 128.15 C 147.55 128.79 148.91 128.47 149.55 127.43 L 150.07 126.58 C 150.71 125.54 150.39 124.18 149.35 123.54 C 148.31 122.90 146.95 123.23 146.31 124.27 Z M 145.81 125.08 L 145.26 125.93 C 144.60 126.96 144.90 128.33 145.93 128.99 C 146.96 129.64 148.32 129.34 148.98 128.32 L 149.53 127.46 C 150.18 126.44 149.89 125.07 148.86 124.41 C 147.83 123.75 146.46 124.05 145.81 125.08 Z M 145.28 125.90 L 144.73 126.72 C 144.05 127.73 144.33 129.10 145.34 129.78 C 146.35 130.46 147.73 130.19 148.41 129.18 L 148.96 128.36 C 149.64 127.34 149.36 125.97 148.35 125.29 C 147.34 124.61 145.96 124.88 145.28 125.90 Z M 144.75 126.69 L 144.18 127.52 C 143.48 128.52 143.73 129.90 144.74 130.59 C 145.74 131.29 147.12 131.04 147.81 130.03 L 148.39 129.20 C 149.08 128.20 148.83 126.82 147.83 126.13 C 146.82 125.43 145.45 125.68 144.75 126.69 Z M 144.19 127.50 L 143.62 128.30 C 142.92 129.30 143.15 130.68 144.15 131.38 C 145.14 132.09 146.52 131.85 147.23 130.86 L 147.80 130.05 C 148.51 129.06 148.27 127.68 147.27 126.97 C 146.28 126.27 144.90 126.50 144.19 127.50 Z M 143.63 128.28 L 143.06 129.08 C 142.34 130.07 142.56 131.46 143.55 132.17 C 144.54 132.89 145.92 132.67 146.64 131.68 L 147.22 130.88 C 147.93 129.89 147.71 128.51 146.72 127.79 C 145.73 127.07 144.35 127.29 143.63 128.28 Z M 143.07 129.06 L 142.46 129.89 C 141.73 130.87 141.93 132.25 142.91 132.98 C 143.90 133.71 145.28 133.51 146.01 132.53 L 146.62 131.70 C 147.35 130.72 147.14 129.33 146.16 128.61 C 145.18 127.88 143.80 128.08 143.07 129.06 Z M 142.48 129.87 L 141.87 130.66 C 141.13 131.63 141.32 133.02 142.29 133.76 C 143.26 134.50 144.65 134.31 145.39 133.34 L 145.99 132.55 C 146.73 131.58 146.54 130.19 145.57 129.45 C 144.60 128.71 143.22 128.90 142.48 129.87 Z M 141.89 130.63 L 141.27 131.43 C 140.51 132.39 140.68 133.78 141.64 134.53 C 142.60 135.28 143.99 135.12 144.74 134.16 L 145.37 133.37 C 146.12 132.41 145.95 131.02 144.99 130.26 C 144.04 129.51 142.65 129.67 141.89 130.63 Z M 141.29 131.40 L 140.66 132.17 C 139.89 133.12 140.03 134.51 140.97 135.28 C 141.92 136.05 143.31 135.91 144.08 134.97 L 144.72 134.19 C 145.49 133.24 145.35 131.85 144.40 131.08 C 143.46 130.31 142.06 130.45 141.29 131.40 Z M 140.69 132.13 L 140.03 132.91 C 139.24 133.84 139.35 135.23 140.28 136.02 C 141.20 136.82 142.60 136.71 143.39 135.78 L 144.05 135.00 C 144.85 134.07 144.74 132.68 143.81 131.89 C 142.88 131.09 141.48 131.20 140.69 132.13 Z M 140.06 132.88 L 139.40 133.62 C 138.59 134.53 138.67 135.93 139.58 136.74 C 140.49 137.55 141.89 137.47 142.70 136.55 L 143.36 135.81 C 144.17 134.90 144.09 133.50 143.18 132.69 C 142.27 131.88 140.87 131.96 140.06 132.88 Z M 139.42 133.60 L 138.75 134.33 C 137.93 135.23 138.00 136.62 138.90 137.45 C 139.80 138.27 141.20 138.20 142.02 137.30 L 142.68 136.58 C 143.50 135.67 143.44 134.28 142.54 133.45 C 141.64 132.63 140.24 132.70 139.42 133.60 Z M 138.77 134.31 L 138.09 135.05 C 137.26 135.94 137.31 137.34 138.20 138.17 C 139.10 139.00 140.49 138.94 141.32 138.05 L 142.00 137.32 C 142.83 136.42 142.78 135.03 141.89 134.20 C 140.99 133.37 139.60 133.42 138.77 134.31 Z M 138.11 135.03 L 137.42 135.75 C 136.58 136.64 136.61 138.03 137.49 138.87 C 138.37 139.71 139.77 139.67 140.61 138.79 L 141.30 138.07 C 142.14 137.19 142.10 135.79 141.22 134.95 C 140.34 134.12 138.95 134.15 138.11 135.03 Z M 137.45 135.73 L 136.75 136.44 C 135.89 137.30 135.90 138.69 136.76 139.55 C 137.62 140.40 139.02 140.40 139.87 139.53 L 140.58 138.82 C 141.43 137.96 141.42 136.57 140.56 135.71 C 139.70 134.86 138.31 134.86 137.45 135.73 Z M 136.78 136.41 L 136.06 137.11 C 135.18 137.95 135.16 139.34 136.00 140.21 C 136.84 141.08 138.23 141.11 139.10 140.27 L 139.83 139.57 C 140.70 138.72 140.73 137.33 139.89 136.46 C 139.05 135.59 137.66 135.57 136.78 136.41 Z M 136.09 137.08 L 135.36 137.75 C 134.48 138.58 134.42 139.96 135.25 140.85 C 136.07 141.74 137.45 141.79 138.34 140.97 L 139.07 140.29 C 139.96 139.47 140.01 138.09 139.19 137.20 C 138.37 136.31 136.98 136.26 136.09 137.08 Z M 135.40 137.73 L 134.65 138.40 C 133.75 139.21 133.67 140.59 134.47 141.49 C 135.28 142.39 136.66 142.46 137.56 141.66 L 138.31 140.99 C 139.21 140.19 139.29 138.81 138.48 137.91 C 137.68 137.01 136.30 136.93 135.40 137.73 Z M 134.68 138.38 L 133.92 139.03 C 133.01 139.82 132.91 141.19 133.69 142.10 C 134.47 143.01 135.85 143.12 136.76 142.34 L 137.52 141.68 C 138.43 140.90 138.54 139.53 137.75 138.61 C 136.97 137.70 135.60 137.60 134.68 138.38 Z M 133.96 139.01 L 133.21 139.64 C 132.28 140.40 132.15 141.76 132.91 142.69 C 133.67 143.61 135.04 143.74 135.96 142.98 L 136.72 142.36 C 137.64 141.60 137.78 140.23 137.02 139.31 C 136.25 138.38 134.89 138.25 133.96 139.01 Z M 133.25 139.62 L 132.46 140.23 C 131.53 140.97 131.37 142.33 132.10 143.26 C 132.84 144.20 134.20 144.36 135.13 143.62 L 135.92 143.00 C 136.85 142.27 137.01 140.91 136.28 139.97 C 135.54 139.04 134.18 138.88 133.25 139.62 Z M 132.50 140.22 L 131.70 140.83 C 130.76 141.55 130.58 142.89 131.30 143.84 C 132.02 144.78 133.36 144.96 134.31 144.24 L 135.10 143.63 C 136.04 142.92 136.22 141.57 135.51 140.63 C 134.79 139.68 133.44 139.50 132.50 140.22 Z M 131.72 140.82 L 130.90 141.44 C 129.96 142.15 129.76 143.49 130.47 144.43 C 131.18 145.38 132.52 145.57 133.46 144.86 L 134.28 144.24 C 135.23 143.53 135.42 142.20 134.71 141.25 C 134.01 140.31 132.67 140.12 131.72 140.82 Z M 130.93 141.44 L 130.11 142.04 C 129.16 142.73 128.96 144.06 129.65 145.00 C 130.34 145.95 131.66 146.15 132.61 145.46 L 133.43 144.86 C 134.37 144.17 134.58 142.85 133.89 141.90 C 133.20 140.96 131.87 140.75 130.93 141.44 Z M 130.16 142.02 L 129.37 142.56 C 128.42 143.22 128.18 144.53 128.84 145.49 C 129.50 146.45 130.81 146.69 131.76 146.03 L 132.55 145.48 C 133.51 144.82 133.75 143.51 133.09 142.56 C 132.43 141.60 131.12 141.36 130.16 142.02 Z M 129.47 142.52 L 128.65 143.03 C 127.67 143.64 127.37 144.92 127.97 145.90 C 128.58 146.88 129.87 147.18 130.85 146.58 L 131.67 146.07 C 132.65 145.46 132.95 144.18 132.34 143.20 C 131.74 142.22 130.45 141.91 129.47 142.52 Z M 128.75 142.99 L 127.86 143.48 C 126.86 144.04 126.50 145.30 127.05 146.30 C 127.60 147.30 128.86 147.66 129.86 147.11 L 130.75 146.62 C 131.75 146.06 132.12 144.80 131.56 143.80 C 131.01 142.80 129.75 142.44 128.75 142.99 Z M 127.92 143.47 L 127.02 143.93 C 126.01 144.45 125.62 145.69 126.14 146.70 C 126.66 147.71 127.90 148.10 128.91 147.58 L 129.80 147.12 C 130.81 146.60 131.21 145.36 130.69 144.35 C 130.17 143.34 128.93 142.95 127.92 143.47 Z M 127.09 143.91 L 126.17 144.34 C 125.15 144.83 124.72 146.04 125.20 147.06 C 125.68 148.08 126.90 148.52 127.92 148.04 L 128.84 147.60 C 129.86 147.12 130.29 145.90 129.81 144.88 C 129.33 143.86 128.11 143.43 127.09 143.91 Z M 126.31 144.31 L 125.31 144.70 C 124.27 145.11 123.76 146.28 124.16 147.32 C 124.57 148.36 125.74 148.87 126.78 148.46 L 127.78 148.07 C 128.82 147.67 129.33 146.50 128.92 145.46 C 128.52 144.42 127.35 143.91 126.31 144.31 Z M 125.66 144.64 L 124.74 144.82 C 123.66 145.03 122.97 146.07 123.18 147.15 C 123.39 148.22 124.43 148.92 125.51 148.71 L 126.42 148.53 C 127.50 148.31 128.20 147.27 127.98 146.20 C 127.77 145.13 126.73 144.43 125.66 144.64 Z M 125.36 144.80 L 124.41 144.69 C 123.33 144.55 122.34 145.32 122.21 146.40 C 122.07 147.49 122.84 148.47 123.92 148.61 L 124.88 148.72 C 125.96 148.86 126.95 148.09 127.08 147.01 C 127.22 145.92 126.45 144.94 125.36 144.80 Z M 124.82 144.75 L 123.99 144.46 C 122.94 144.10 121.79 144.66 121.44 145.71 C 121.08 146.76 121.64 147.90 122.69 148.26 L 123.52 148.55 C 124.57 148.91 125.71 148.35 126.07 147.30 C 126.43 146.25 125.87 145.10 124.82 144.75 Z"
      fill="black"
      fill-rule="nonzero" /><path d="M 151.44 117.29 L 152.33 116.77 C 153.22 116.24 153.52 115.09 153.00 114.19 C 152.47 113.30 151.32 112.99 150.42 113.52 L 149.54 114.04 C 148.64 114.57 148.34 115.72 148.86 116.61 C 149.39 117.51 150.54 117.81 151.44 117.29 Z M 152.24 116.82 L 153.10 116.38 C 154.03 115.90 154.40 114.77 153.92 113.84 C 153.44 112.91 152.31 112.54 151.38 113.02 L 150.51 113.46 C 149.59 113.94 149.22 115.08 149.70 116.00 C 150.17 116.93 151.31 117.30 152.24 116.82 Z M 152.88 116.51 L 153.82 116.18 C 154.82 115.83 155.34 114.73 154.99 113.73 C 154.64 112.73 153.54 112.21 152.54 112.56 L 151.60 112.89 C 150.60 113.24 150.08 114.34 150.43 115.34 C 150.78 116.34 151.88 116.86 152.88 116.51 Z M 153.49 116.32 L 154.46 116.17 C 155.54 116.00 156.28 114.99 156.11 113.91 C 155.94 112.83 154.92 112.09 153.85 112.26 L 152.87 112.42 C 151.79 112.59 151.06 113.60 151.23 114.68 C 151.40 115.76 152.41 116.49 153.49 116.32 Z M 154.08 116.25 L 155.06 116.29 C 156.19 116.33 157.13 115.45 157.17 114.32 C 157.21 113.20 156.33 112.25 155.21 112.21 L 154.23 112.18 C 153.10 112.14 152.16 113.02 152.12 114.14 C 152.08 115.27 152.96 116.21 154.08 116.25 Z M 154.48 116.24 L 155.44 116.56 C 156.54 116.92 157.73 116.32 158.09 115.22 C 158.45 114.11 157.85 112.93 156.75 112.57 L 155.79 112.26 C 154.69 111.90 153.50 112.50 153.14 113.60 C 152.78 114.70 153.38 115.88 154.48 116.24 Z M 154.88 116.33 L 155.68 116.88 C 156.65 117.55 157.99 117.31 158.66 116.33 C 159.33 115.36 159.09 114.03 158.11 113.36 L 157.31 112.80 C 156.34 112.13 155.00 112.37 154.33 113.35 C 153.66 114.32 153.90 115.65 154.88 116.33 Z M 155.41 116.69 L 156.15 117.40 C 157.02 118.23 158.40 118.19 159.22 117.32 C 160.05 116.45 160.01 115.08 159.14 114.25 L 158.39 113.54 C 157.52 112.72 156.15 112.76 155.32 113.63 C 154.50 114.50 154.54 115.87 155.41 116.69 Z M 156.04 117.31 L 156.66 117.98 C 157.48 118.87 158.86 118.92 159.75 118.10 C 160.64 117.28 160.69 115.90 159.87 115.01 L 159.25 114.34 C 158.43 113.45 157.05 113.40 156.16 114.22 C 155.27 115.04 155.22 116.43 156.04 117.31 Z M 156.59 117.92 L 157.23 118.67 C 158.02 119.60 159.41 119.71 160.33 118.92 C 161.26 118.13 161.37 116.74 160.58 115.82 L 159.94 115.07 C 159.15 114.14 157.76 114.03 156.84 114.82 C 155.91 115.61 155.80 117.00 156.59 117.92 Z M 157.19 118.64 L 157.88 119.49 C 158.65 120.44 160.04 120.58 160.99 119.81 C 161.94 119.04 162.08 117.65 161.31 116.70 L 160.62 115.85 C 159.85 114.90 158.46 114.76 157.51 115.53 C 156.56 116.30 156.42 117.69 157.19 118.64 Z M 157.86 119.47 L 158.50 120.28 C 159.26 121.23 160.65 121.39 161.61 120.63 C 162.57 119.87 162.73 118.48 161.97 117.52 L 161.33 116.72 C 160.57 115.76 159.18 115.60 158.22 116.36 C 157.26 117.12 157.10 118.52 157.86 119.47 Z M 158.49 120.27 L 159.14 121.09 C 159.90 122.06 161.29 122.22 162.25 121.46 C 163.22 120.71 163.38 119.31 162.62 118.35 L 161.97 117.52 C 161.22 116.56 159.82 116.40 158.86 117.15 C 157.90 117.91 157.73 119.31 158.49 120.27 Z M 159.13 121.09 L 159.73 121.86 C 160.49 122.82 161.89 122.99 162.85 122.23 C 163.82 121.47 163.99 120.08 163.23 119.11 L 162.63 118.35 C 161.87 117.38 160.47 117.22 159.51 117.97 C 158.54 118.73 158.38 120.13 159.13 121.09 Z M 159.74 121.87 L 160.43 122.74 C 161.19 123.70 162.59 123.86 163.55 123.10 C 164.52 122.34 164.68 120.94 163.92 119.98 L 163.23 119.11 C 162.46 118.14 161.06 117.98 160.10 118.74 C 159.14 119.50 158.98 120.90 159.74 121.87 Z M 160.44 122.75 L 161.02 123.47 C 161.79 124.43 163.19 124.58 164.14 123.81 C 165.10 123.04 165.25 121.64 164.48 120.68 L 163.90 119.97 C 163.13 119.01 161.74 118.86 160.78 119.63 C 159.82 120.40 159.67 121.79 160.44 122.75 Z M 161.03 123.48 L 161.61 124.19 C 162.39 125.14 163.78 125.29 164.73 124.51 C 165.68 123.74 165.83 122.34 165.05 121.39 L 164.47 120.68 C 163.70 119.73 162.30 119.58 161.35 120.36 C 160.40 121.13 160.26 122.53 161.03 123.48 Z M 161.62 124.20 L 162.26 124.98 C 163.04 125.92 164.44 126.06 165.38 125.28 C 166.32 124.50 166.46 123.11 165.68 122.16 L 165.04 121.39 C 164.26 120.44 162.87 120.31 161.93 121.08 C 160.98 121.86 160.85 123.25 161.62 124.20 Z M 162.28 124.99 L 162.93 125.76 C 163.72 126.70 165.11 126.82 166.04 126.03 C 166.97 125.25 167.10 123.86 166.31 122.93 L 165.66 122.15 C 164.88 121.22 163.49 121.10 162.55 121.88 C 161.62 122.66 161.50 124.06 162.28 124.99 Z M 162.95 125.77 L 163.59 126.53 C 164.38 127.45 165.77 127.56 166.69 126.78 C 167.62 125.99 167.73 124.60 166.94 123.67 L 166.30 122.92 C 165.51 121.99 164.12 121.88 163.20 122.67 C 162.27 123.46 162.16 124.85 162.95 125.77 Z M 163.60 126.53 L 164.25 127.28 C 165.03 128.20 166.42 128.31 167.34 127.52 C 168.26 126.74 168.37 125.35 167.58 124.43 L 166.93 123.67 C 166.15 122.75 164.76 122.65 163.84 123.43 C 162.92 124.22 162.81 125.61 163.60 126.53 Z M 164.28 127.31 L 164.95 128.06 C 165.75 128.96 167.13 129.04 168.04 128.24 C 168.94 127.44 169.02 126.05 168.22 125.15 L 167.55 124.40 C 166.74 123.50 165.36 123.42 164.46 124.22 C 163.56 125.03 163.48 126.41 164.28 127.31 Z M 165.01 128.12 L 165.70 128.84 C 166.54 129.70 167.92 129.73 168.79 128.90 C 169.65 128.06 169.68 126.68 168.84 125.81 L 168.15 125.09 C 167.32 124.23 165.94 124.20 165.07 125.03 C 164.20 125.87 164.17 127.25 165.01 128.12 Z M 165.75 128.87 L 166.46 129.57 C 167.32 130.41 168.69 130.40 169.53 129.55 C 170.37 128.70 170.36 127.32 169.51 126.48 L 168.80 125.78 C 167.94 124.94 166.57 124.95 165.73 125.80 C 164.89 126.66 164.90 128.03 165.75 128.87 Z M 166.49 129.58 L 167.22 130.28 C 168.08 131.10 169.44 131.07 170.27 130.21 C 171.09 129.35 171.06 127.99 170.20 127.16 L 169.48 126.47 C 168.62 125.65 167.25 125.68 166.43 126.54 C 165.61 127.40 165.63 128.76 166.49 129.58 Z M 167.26 130.30 L 168.00 130.97 C 168.87 131.77 170.22 131.71 171.02 130.84 C 171.82 129.97 171.76 128.61 170.89 127.81 L 170.16 127.14 C 169.28 126.34 167.93 126.40 167.13 127.27 C 166.33 128.15 166.39 129.50 167.26 130.30 Z M 168.05 131.00 L 168.80 131.65 C 169.69 132.43 171.03 132.33 171.80 131.44 C 172.57 130.56 172.48 129.21 171.59 128.44 L 170.84 127.79 C 169.95 127.02 168.61 127.11 167.84 128.00 C 167.07 128.89 167.16 130.23 168.05 131.00 Z M 168.84 131.67 L 169.59 132.29 C 170.48 133.04 171.81 132.92 172.56 132.02 C 173.31 131.13 173.19 129.80 172.30 129.05 L 171.55 128.43 C 170.66 127.68 169.33 127.80 168.58 128.69 C 167.83 129.59 167.95 130.92 168.84 131.67 Z M 169.66 132.32 L 170.43 132.92 C 171.34 133.63 172.66 133.47 173.37 132.56 C 174.08 131.65 173.91 130.33 173.00 129.62 L 172.23 129.02 C 171.32 128.31 170.00 128.47 169.29 129.39 C 168.58 130.30 168.75 131.61 169.66 132.32 Z M 170.55 132.99 L 171.38 133.55 C 172.32 134.20 173.61 133.95 174.26 133.01 C 174.90 132.07 174.66 130.78 173.71 130.13 L 172.89 129.56 C 171.94 128.92 170.65 129.16 170.01 130.11 C 169.36 131.05 169.60 132.34 170.55 132.99 Z M 171.48 133.60 L 172.32 134.11 C 173.29 134.69 174.56 134.38 175.14 133.41 C 175.73 132.43 175.41 131.17 174.44 130.58 L 173.61 130.08 C 172.63 129.49 171.37 129.80 170.78 130.78 C 170.20 131.75 170.51 133.02 171.48 133.60 Z M 172.41 134.14 L 173.34 134.64 C 174.34 135.18 175.58 134.81 176.11 133.81 C 176.65 132.82 176.27 131.58 175.28 131.04 L 174.35 130.54 C 173.35 130.01 172.11 130.38 171.58 131.38 C 171.04 132.37 171.42 133.61 172.41 134.14 Z M 173.44 134.67 L 174.38 135.12 C 175.39 135.61 176.60 135.18 177.09 134.17 C 177.57 133.16 177.14 131.95 176.13 131.46 L 175.18 131.01 C 174.17 130.53 172.96 130.96 172.48 131.97 C 172.00 132.98 172.43 134.19 173.44 134.67 Z M 174.48 135.14 L 175.42 135.54 C 176.44 135.97 177.62 135.49 178.05 134.47 C 178.47 133.45 178.00 132.27 176.98 131.84 L 176.03 131.45 C 175.01 131.02 173.84 131.50 173.41 132.52 C 172.98 133.54 173.46 134.71 174.48 135.14 Z M 175.53 135.55 L 176.43 135.87 C 177.45 136.24 178.59 135.70 178.95 134.67 C 179.32 133.64 178.78 132.51 177.76 132.15 L 176.86 131.83 C 175.84 131.46 174.70 132.00 174.34 133.03 C 173.97 134.05 174.51 135.19 175.53 135.55 Z M 176.59 135.88 L 177.62 136.16 C 178.66 136.43 179.72 135.82 179.99 134.79 C 180.27 133.75 179.66 132.69 178.62 132.41 L 177.59 132.14 C 176.56 131.86 175.49 132.47 175.22 133.51 C 174.94 134.54 175.56 135.60 176.59 135.88 Z M 177.77 136.14 L 178.70 136.31 C 179.72 136.50 180.71 135.83 180.90 134.81 C 181.09 133.78 180.42 132.80 179.40 132.61 L 178.47 132.43 C 177.45 132.24 176.46 132.91 176.27 133.94 C 176.08 134.96 176.75 135.94 177.77 136.14 Z M 178.74 136.29 L 178.86 136.31 C 179.87 136.48 180.82 135.80 181.00 134.79 C 181.17 133.78 180.49 132.82 179.48 132.65 L 179.36 132.63 C 178.35 132.46 177.39 133.14 177.22 134.15 C 177.05 135.16 177.73 136.12 178.74 136.29 Z"
      fill="black"
      fill-rule="nonzero" /><path d="M 144.69 151.17 L 145.58 151.34 C 146.67 151.56 147.73 150.86 147.95 149.77 C 148.17 148.67 147.46 147.61 146.37 147.39 L 145.48 147.21 C 144.39 146.99 143.33 147.70 143.11 148.79 C 142.89 149.88 143.59 150.95 144.69 151.17 Z M 145.77 151.52 L 146.78 151.61 C 147.97 151.72 149.02 150.85 149.13 149.67 C 149.25 148.48 148.38 147.43 147.19 147.32 L 146.18 147.22 C 144.99 147.11 143.94 147.98 143.83 149.17 C 143.72 150.35 144.59 151.40 145.77 151.52 Z M 147.08 151.72 L 148.14 151.67 C 149.38 151.62 150.35 150.57 150.29 149.32 C 150.24 148.08 149.19 147.11 147.94 147.16 L 146.89 147.21 C 145.64 147.26 144.68 148.32 144.73 149.56 C 144.79 150.81 145.84 151.77 147.08 151.72 Z M 148.34 151.69 L 149.37 151.55 C 150.62 151.39 151.50 150.24 151.34 148.99 C 151.17 147.74 150.03 146.85 148.78 147.02 L 147.74 147.15 C 146.49 147.32 145.61 148.46 145.77 149.72 C 145.94 150.97 147.08 151.85 148.34 151.69 Z M 149.46 151.54 L 150.47 151.36 C 151.72 151.14 152.55 149.96 152.33 148.72 C 152.12 147.47 150.93 146.64 149.69 146.86 L 148.68 147.03 C 147.44 147.25 146.60 148.43 146.82 149.68 C 147.04 150.92 148.22 151.75 149.46 151.54 Z M 150.52 151.35 L 151.55 151.14 C 152.78 150.90 153.59 149.71 153.35 148.47 C 153.11 147.23 151.91 146.43 150.67 146.67 L 149.64 146.87 C 148.41 147.11 147.60 148.31 147.84 149.55 C 148.08 150.78 149.28 151.59 150.52 151.35 Z M 151.56 151.12 L 152.54 150.92 C 153.76 150.67 154.55 149.48 154.30 148.26 C 154.05 147.03 152.86 146.25 151.64 146.50 L 150.66 146.70 C 149.44 146.95 148.65 148.14 148.90 149.36 C 149.15 150.58 150.34 151.37 151.56 151.12 Z M 152.53 150.89 L 153.41 150.71 C 154.61 150.47 155.39 149.29 155.15 148.09 C 154.90 146.88 153.73 146.10 152.52 146.35 L 151.65 146.53 C 150.45 146.77 149.67 147.94 149.91 149.15 C 150.15 150.35 151.33 151.13 152.53 150.89 Z M 153.38 150.69 L 154.36 150.50 C 155.55 150.27 156.33 149.12 156.11 147.93 C 155.88 146.74 154.73 145.96 153.54 146.18 L 152.55 146.37 C 151.36 146.60 150.58 147.75 150.81 148.94 C 151.04 150.14 152.19 150.92 153.38 150.69 Z M 154.34 150.48 L 155.32 150.29 C 156.50 150.08 157.28 148.94 157.06 147.76 C 156.84 146.59 155.71 145.81 154.53 146.03 L 153.55 146.21 C 152.37 146.43 151.60 147.56 151.81 148.74 C 152.03 149.92 153.17 150.69 154.34 150.48 Z M 155.32 150.27 L 156.31 150.08 C 157.47 149.86 158.24 148.74 158.02 147.58 C 157.80 146.42 156.68 145.65 155.52 145.87 L 154.53 146.06 C 153.37 146.27 152.60 147.39 152.82 148.55 C 153.04 149.72 154.16 150.48 155.32 150.27 Z M 156.31 150.05 L 157.31 149.86 C 158.45 149.63 159.20 148.53 158.98 147.38 C 158.76 146.24 157.65 145.49 156.51 145.71 L 155.51 145.90 C 154.37 146.12 153.62 147.23 153.84 148.38 C 154.06 149.52 155.17 150.27 156.31 150.05 Z M 157.29 149.82 L 158.28 149.64 C 159.40 149.42 160.14 148.34 159.93 147.21 C 159.71 146.08 158.63 145.34 157.50 145.56 L 156.52 145.74 C 155.39 145.96 154.65 147.05 154.87 148.17 C 155.08 149.30 156.17 150.04 157.29 149.82 Z M 158.24 149.61 L 159.24 149.44 C 160.35 149.24 161.10 148.19 160.91 147.07 C 160.71 145.96 159.66 145.22 158.54 145.41 L 157.54 145.58 C 156.43 145.78 155.68 146.83 155.88 147.95 C 156.07 149.06 157.13 149.80 158.24 149.61 Z M 159.21 149.41 L 160.18 149.25 C 161.28 149.08 162.02 148.04 161.85 146.95 C 161.67 145.85 160.64 145.10 159.54 145.28 L 158.57 145.44 C 157.47 145.61 156.73 146.65 156.91 147.74 C 157.08 148.84 158.12 149.59 159.21 149.41 Z M 160.18 149.22 L 161.17 149.06 C 162.25 148.88 162.99 147.87 162.81 146.79 C 162.64 145.71 161.62 144.98 160.54 145.15 L 159.54 145.31 C 158.46 145.49 157.73 146.50 157.91 147.58 C 158.08 148.66 159.10 149.40 160.18 149.22 Z M 161.17 149.03 L 162.12 148.87 C 163.18 148.70 163.90 147.70 163.72 146.63 C 163.55 145.57 162.55 144.86 161.49 145.03 L 160.54 145.18 C 159.48 145.36 158.76 146.36 158.94 147.42 C 159.11 148.48 160.11 149.20 161.17 149.03 Z M 162.08 148.84 L 163.06 148.70 C 164.11 148.55 164.83 147.58 164.68 146.53 C 164.53 145.49 163.55 144.76 162.51 144.91 L 161.53 145.06 C 160.48 145.21 159.76 146.18 159.91 147.23 C 160.06 148.27 161.03 149.00 162.08 148.84 Z M 162.98 148.68 L 163.99 148.58 C 165.03 148.47 165.78 147.54 165.67 146.50 C 165.56 145.46 164.63 144.71 163.59 144.82 L 162.58 144.93 C 161.55 145.04 160.80 145.97 160.91 147.01 C 161.02 148.04 161.95 148.79 162.98 148.68 Z M 163.94 148.56 L 164.97 148.48 C 165.99 148.39 166.76 147.49 166.68 146.47 C 166.59 145.44 165.69 144.67 164.66 144.76 L 163.64 144.84 C 162.61 144.92 161.85 145.82 161.93 146.85 C 162.01 147.88 162.91 148.64 163.94 148.56 Z M 164.93 148.46 L 165.97 148.40 C 166.99 148.33 167.76 147.45 167.70 146.43 C 167.63 145.42 166.75 144.64 165.73 144.71 L 164.70 144.77 C 163.68 144.84 162.91 145.71 162.97 146.73 C 163.04 147.75 163.91 148.52 164.93 148.46 Z M 165.94 148.37 L 166.92 148.33 C 167.93 148.28 168.71 147.43 168.66 146.42 C 168.61 145.41 167.76 144.63 166.75 144.68 L 165.77 144.73 C 164.76 144.78 163.98 145.63 164.03 146.64 C 164.08 147.64 164.93 148.42 165.94 148.37 Z M 166.91 148.31 L 167.30 148.30 C 168.30 148.26 169.08 147.41 169.04 146.41 C 169.00 145.42 168.15 144.64 167.16 144.68 L 166.76 144.70 C 165.76 144.74 164.99 145.58 165.03 146.58 C 165.07 147.58 165.91 148.35 166.91 148.31 Z"
      fill="black"
      fill-rule="nonzero" /><path d="M 144.91 165.18 L 145.91 165.37 C 147.00 165.57 148.06 164.85 148.26 163.75 C 148.47 162.66 147.74 161.61 146.65 161.40 L 145.65 161.22 C 144.56 161.01 143.51 161.73 143.30 162.83 C 143.10 163.92 143.82 164.97 144.91 165.18 Z M 146.07 165.48 L 147.05 165.59 C 148.21 165.70 149.25 164.86 149.37 163.70 C 149.48 162.54 148.64 161.50 147.48 161.38 L 146.49 161.28 C 145.33 161.16 144.30 162.01 144.18 163.17 C 144.06 164.33 144.91 165.37 146.07 165.48 Z M 147.40 165.65 L 148.36 165.59 C 149.56 165.52 150.47 164.48 150.39 163.29 C 150.32 162.09 149.29 161.18 148.09 161.26 L 147.13 161.32 C 145.93 161.39 145.02 162.42 145.10 163.62 C 145.17 164.82 146.20 165.73 147.40 165.65 Z M 148.67 165.56 L 149.65 165.36 C 150.83 165.11 151.59 163.95 151.34 162.77 C 151.09 161.59 149.94 160.84 148.76 161.08 L 147.78 161.29 C 146.60 161.53 145.84 162.69 146.09 163.87 C 146.34 165.05 147.49 165.81 148.67 165.56 Z M 149.78 165.33 L 150.75 165.06 C 151.91 164.74 152.59 163.54 152.27 162.38 C 151.96 161.21 150.75 160.53 149.59 160.85 L 148.62 161.11 C 147.46 161.43 146.78 162.63 147.10 163.80 C 147.42 164.96 148.62 165.64 149.78 165.33 Z M 150.79 165.05 L 151.73 164.77 C 152.89 164.43 153.55 163.21 153.21 162.06 C 152.87 160.90 151.65 160.24 150.50 160.58 L 149.55 160.86 C 148.39 161.20 147.73 162.42 148.07 163.57 C 148.42 164.73 149.63 165.39 150.79 165.05 Z M 151.76 164.76 L 152.75 164.45 C 153.90 164.10 154.55 162.87 154.19 161.72 C 153.83 160.57 152.60 159.93 151.45 160.28 L 150.47 160.59 C 149.32 160.95 148.67 162.17 149.03 163.32 C 149.39 164.48 150.61 165.12 151.76 164.76 Z M 152.78 164.44 L 153.73 164.14 C 154.87 163.76 155.50 162.53 155.13 161.39 C 154.76 160.24 153.53 159.61 152.38 159.98 L 151.43 160.29 C 150.28 160.66 149.65 161.90 150.03 163.04 C 150.40 164.19 151.63 164.82 152.78 164.44 Z M 153.74 164.13 L 154.69 163.81 C 155.83 163.44 156.45 162.20 156.07 161.06 C 155.69 159.92 154.46 159.30 153.32 159.68 L 152.37 159.99 C 151.23 160.37 150.61 161.60 150.98 162.74 C 151.36 163.89 152.59 164.51 153.74 164.13 Z M 154.68 163.81 L 155.64 163.50 C 156.78 163.12 157.40 161.89 157.03 160.75 C 156.65 159.61 155.42 158.99 154.28 159.36 L 153.32 159.68 C 152.18 160.06 151.56 161.28 151.94 162.43 C 152.31 163.57 153.54 164.19 154.68 163.81 Z M 155.62 163.50 L 156.58 163.19 C 157.72 162.83 158.35 161.60 157.99 160.46 C 157.62 159.32 156.40 158.69 155.26 159.06 L 154.30 159.36 C 153.16 159.73 152.53 160.95 152.89 162.09 C 153.26 163.23 154.48 163.86 155.62 163.50 Z M 156.56 163.19 L 157.52 162.90 C 158.66 162.54 159.30 161.33 158.94 160.19 C 158.59 159.04 157.38 158.40 156.24 158.76 L 155.28 159.05 C 154.13 159.41 153.50 160.62 153.85 161.76 C 154.20 162.91 155.42 163.55 156.56 163.19 Z M 157.49 162.90 L 158.45 162.61 C 159.59 162.27 160.24 161.07 159.90 159.92 C 159.56 158.78 158.36 158.13 157.22 158.47 L 156.26 158.76 C 155.12 159.10 154.46 160.30 154.81 161.44 C 155.15 162.59 156.35 163.24 157.49 162.90 Z M 158.42 162.61 L 159.43 162.33 C 160.57 162.01 161.24 160.81 160.91 159.67 C 160.59 158.52 159.40 157.86 158.25 158.18 L 157.25 158.47 C 156.10 158.79 155.44 159.98 155.76 161.13 C 156.08 162.27 157.28 162.94 158.42 162.61 Z M 159.38 162.33 L 160.34 162.08 C 161.49 161.78 162.17 160.61 161.87 159.46 C 161.57 158.31 160.40 157.63 159.25 157.93 L 158.30 158.18 C 157.15 158.48 156.46 159.65 156.76 160.80 C 157.06 161.95 158.24 162.63 159.38 162.33 Z M 160.27 162.09 L 161.25 161.87 C 162.40 161.61 163.12 160.46 162.86 159.30 C 162.59 158.15 161.44 157.43 160.29 157.70 L 159.32 157.92 C 158.16 158.18 157.44 159.33 157.71 160.48 C 157.97 161.64 159.12 162.36 160.27 162.09 Z M 161.14 161.89 L 162.12 161.71 C 163.29 161.51 164.06 160.40 163.85 159.24 C 163.65 158.08 162.54 157.30 161.38 157.51 L 160.40 157.68 C 159.24 157.89 158.46 158.99 158.67 160.16 C 158.87 161.32 159.98 162.09 161.14 161.89 Z M 161.98 161.74 L 162.98 161.63 C 164.16 161.51 165.01 160.45 164.88 159.28 C 164.76 158.10 163.70 157.25 162.53 157.38 L 161.53 157.48 C 160.35 157.61 159.50 158.66 159.62 159.83 C 159.75 161.01 160.80 161.86 161.98 161.74 Z M 162.55 161.66 L 163.54 161.76 C 164.74 161.87 165.79 160.99 165.91 159.80 C 166.02 158.61 165.14 157.55 163.95 157.44 L 162.96 157.34 C 161.76 157.23 160.71 158.11 160.59 159.30 C 160.48 160.49 161.36 161.55 162.55 161.66 Z M 162.14 161.12 L 162.73 161.75 C 163.57 162.63 164.98 162.67 165.86 161.82 C 166.75 160.98 166.79 159.58 165.94 158.69 L 165.35 158.07 C 164.51 157.18 163.10 157.15 162.22 157.99 C 161.33 158.83 161.29 160.24 162.14 161.12 Z M 162.08 160.28 L 162.11 161.30 C 162.14 162.55 163.18 163.53 164.43 163.50 C 165.68 163.46 166.66 162.42 166.62 161.17 L 166.60 160.15 C 166.56 158.91 165.52 157.92 164.27 157.96 C 163.02 157.99 162.04 159.03 162.08 160.28 Z M 162.21 160.47 L 161.91 161.33 C 161.48 162.52 162.10 163.83 163.29 164.25 C 164.48 164.68 165.78 164.06 166.21 162.87 L 166.52 162.01 C 166.94 160.82 166.32 159.51 165.13 159.09 C 163.95 158.66 162.64 159.28 162.21 160.47 Z M 162.03 161.03 L 161.52 161.99 C 160.93 163.11 161.35 164.50 162.47 165.09 C 163.59 165.68 164.98 165.26 165.57 164.14 L 166.08 163.17 C 166.68 162.05 166.25 160.67 165.13 160.07 C 164.01 159.48 162.62 159.91 162.03 161.03 Z M 161.54 161.94 L 161.05 162.81 C 160.43 163.91 160.82 165.31 161.93 165.94 C 163.03 166.56 164.44 166.17 165.06 165.06 L 165.55 164.19 C 166.17 163.09 165.78 161.69 164.67 161.06 C 163.57 160.44 162.17 160.83 161.54 161.94 Z M 161.06 162.80 L 160.55 163.69 C 159.93 164.80 160.31 166.20 161.41 166.83 C 162.52 167.45 163.92 167.07 164.55 165.96 L 165.05 165.07 C 165.68 163.97 165.29 162.56 164.19 161.94 C 163.09 161.31 161.69 161.70 161.06 162.80 Z M 160.55 163.70 L 160.06 164.56 C 159.44 165.66 159.82 167.06 160.93 167.69 C 162.03 168.31 163.43 167.93 164.06 166.82 L 164.55 165.96 C 165.17 164.86 164.78 163.46 163.68 162.83 C 162.58 162.21 161.18 162.59 160.55 163.70 Z M 160.07 164.56 L 159.59 165.40 C 158.96 166.50 159.35 167.90 160.45 168.53 C 161.55 169.15 162.95 168.76 163.58 167.66 L 164.05 166.82 C 164.68 165.72 164.29 164.32 163.19 163.70 C 162.09 163.07 160.69 163.46 160.07 164.56 Z M 159.60 165.39 L 159.10 166.27 C 158.47 167.36 158.84 168.76 159.94 169.39 C 161.03 170.02 162.43 169.64 163.06 168.55 L 163.56 167.67 C 164.19 166.58 163.82 165.18 162.72 164.55 C 161.63 163.92 160.23 164.30 159.60 165.39 Z M 159.11 166.26 L 158.63 167.09 C 157.99 168.17 158.35 169.57 159.44 170.20 C 160.52 170.84 161.92 170.48 162.56 169.39 L 163.04 168.56 C 163.68 167.48 163.32 166.08 162.23 165.44 C 161.15 164.81 159.75 165.17 159.11 166.26 Z M 158.64 167.09 L 158.11 167.97 C 157.47 169.05 157.83 170.44 158.91 171.08 C 159.99 171.72 161.38 171.36 162.02 170.28 L 162.55 169.39 C 163.18 168.31 162.82 166.92 161.74 166.28 C 160.66 165.65 159.27 166.01 158.64 167.09 Z M 158.12 167.98 L 157.59 168.87 C 156.96 169.95 157.32 171.33 158.40 171.97 C 159.47 172.60 160.86 172.24 161.49 171.16 L 162.02 170.27 C 162.65 169.20 162.29 167.81 161.21 167.18 C 160.14 166.55 158.75 166.90 158.12 167.98 Z M 157.60 168.89 L 157.09 169.78 C 156.46 170.85 156.82 172.22 157.90 172.85 C 158.97 173.47 160.34 173.11 160.96 172.04 L 161.48 171.15 C 162.11 170.07 161.74 168.70 160.67 168.08 C 159.60 167.45 158.23 167.82 157.60 168.89 Z M 157.10 169.80 L 156.62 170.64 C 156.00 171.70 156.36 173.05 157.42 173.67 C 158.48 174.28 159.84 173.92 160.46 172.86 L 160.94 172.02 C 161.56 170.96 161.20 169.60 160.14 168.99 C 159.08 168.37 157.72 168.74 157.10 169.80 Z M 156.64 170.64 L 156.17 171.45 C 155.55 172.50 155.91 173.84 156.95 174.46 C 158.00 175.07 159.35 174.72 159.96 173.67 L 160.43 172.86 C 161.04 171.81 160.69 170.47 159.64 169.85 C 158.60 169.24 157.25 169.59 156.64 170.64 Z M 156.20 171.44 L 155.70 172.27 C 155.09 173.30 155.42 174.64 156.45 175.25 C 157.48 175.87 158.82 175.53 159.43 174.50 L 159.93 173.68 C 160.54 172.65 160.21 171.31 159.18 170.70 C 158.15 170.08 156.81 170.41 156.20 171.44 Z M 155.74 172.25 L 155.18 173.16 C 154.55 174.17 154.87 175.49 155.88 176.12 C 156.89 176.75 158.21 176.43 158.84 175.42 L 159.40 174.52 C 160.02 173.51 159.71 172.18 158.70 171.56 C 157.69 170.93 156.36 171.24 155.74 172.25 Z M 155.22 173.14 L 154.69 173.97 C 154.05 174.96 154.34 176.28 155.33 176.91 C 156.32 177.54 157.64 177.25 158.27 176.26 L 158.80 175.44 C 159.43 174.45 159.14 173.13 158.15 172.50 C 157.16 171.87 155.85 172.15 155.22 173.14 Z M 154.73 173.96 L 154.16 174.81 C 153.53 175.78 153.79 177.08 154.76 177.72 C 155.73 178.36 157.03 178.09 157.67 177.12 L 158.23 176.27 C 158.87 175.31 158.60 174.00 157.64 173.36 C 156.67 172.72 155.36 172.99 154.73 173.96 Z M 154.20 174.80 L 153.63 175.64 C 152.98 176.59 153.23 177.88 154.17 178.52 C 155.12 179.17 156.41 178.93 157.06 177.98 L 157.63 177.14 C 158.28 176.19 158.03 174.90 157.09 174.25 C 156.14 173.61 154.85 173.85 154.20 174.80 Z M 153.69 175.62 L 153.07 176.49 C 152.41 177.40 152.62 178.68 153.54 179.33 C 154.45 179.99 155.73 179.78 156.38 178.86 L 157.00 178.00 C 157.66 177.08 157.45 175.81 156.53 175.15 C 155.61 174.50 154.34 174.71 153.69 175.62 Z M 153.14 176.47 L 152.52 177.30 C 151.85 178.17 152.02 179.42 152.90 180.08 C 153.78 180.75 155.02 180.57 155.69 179.70 L 156.31 178.87 C 156.97 178.00 156.80 176.75 155.93 176.09 C 155.05 175.43 153.80 175.60 153.14 176.47 Z M 152.59 177.30 L 152.01 178.02 C 151.35 178.86 151.48 180.07 152.32 180.74 C 153.15 181.40 154.37 181.26 155.03 180.43 L 155.61 179.70 C 156.28 178.87 156.14 177.65 155.30 176.99 C 154.47 176.32 153.25 176.46 152.59 177.30 Z M 152.07 178.02 L 151.43 178.81 C 150.76 179.61 150.87 180.79 151.67 181.45 C 152.47 182.12 153.66 182.01 154.32 181.21 L 154.97 180.43 C 155.63 179.63 155.52 178.44 154.72 177.78 C 153.92 177.11 152.74 177.22 152.07 178.02 Z M 151.48 178.81 L 150.84 179.55 C 150.18 180.32 150.27 181.48 151.05 182.14 C 151.82 182.80 152.98 182.71 153.64 181.94 L 154.27 181.20 C 154.93 180.43 154.84 179.27 154.07 178.61 C 153.30 177.95 152.14 178.04 151.48 178.81 Z M 150.87 179.56 L 150.63 179.84 C 149.98 180.59 150.06 181.74 150.82 182.39 C 151.57 183.05 152.72 182.96 153.37 182.21 L 153.61 181.93 C 154.26 181.18 154.18 180.03 153.43 179.38 C 152.67 178.72 151.53 178.81 150.87 179.56 Z"
      fill="black"
      fill-rule="nonzero" /><path d="M 145.76 178.49 L 146.63 178.93 C 147.67 179.46 148.95 179.05 149.49 178.01 C 150.03 176.96 149.61 175.68 148.57 175.14 L 147.70 174.70 C 146.66 174.17 145.38 174.58 144.84 175.62 C 144.31 176.67 144.72 177.95 145.76 178.49 Z M 146.64 179.09 L 147.55 179.51 C 148.68 180.04 150.03 179.55 150.56 178.42 C 151.09 177.29 150.60 175.94 149.47 175.41 L 148.56 174.99 C 147.43 174.46 146.08 174.95 145.55 176.08 C 145.02 177.21 145.51 178.56 146.64 179.09 Z M 147.64 179.65 L 148.61 180.04 C 149.82 180.51 151.19 179.92 151.67 178.71 C 152.15 177.50 151.55 176.13 150.34 175.65 L 149.38 175.27 C 148.17 174.79 146.80 175.39 146.32 176.60 C 145.84 177.81 146.43 179.18 147.64 179.65 Z M 148.71 180.10 L 149.68 180.43 C 150.93 180.86 152.28 180.19 152.71 178.95 C 153.13 177.70 152.47 176.35 151.22 175.92 L 150.25 175.59 C 149.00 175.17 147.65 175.83 147.22 177.08 C 146.80 178.32 147.46 179.68 148.71 180.10 Z M 149.74 180.45 L 150.66 180.74 C 151.91 181.14 153.25 180.44 153.65 179.19 C 154.04 177.93 153.35 176.59 152.09 176.20 L 151.17 175.91 C 149.92 175.51 148.58 176.21 148.18 177.46 C 147.79 178.72 148.48 180.05 149.74 180.45 Z M 150.67 180.74 L 151.67 181.05 C 152.92 181.44 154.25 180.74 154.64 179.49 C 155.04 178.24 154.34 176.90 153.08 176.51 L 152.08 176.20 C 150.83 175.81 149.50 176.51 149.11 177.76 C 148.72 179.02 149.42 180.35 150.67 180.74 Z M 151.66 181.04 L 152.54 181.32 C 153.79 181.71 155.12 181.02 155.52 179.78 C 155.91 178.53 155.22 177.20 153.98 176.80 L 153.09 176.52 C 151.84 176.13 150.51 176.82 150.12 178.06 C 149.72 179.31 150.41 180.64 151.66 181.04 Z M 152.52 181.30 L 153.47 181.61 C 154.71 182.02 156.04 181.35 156.45 180.11 C 156.86 178.87 156.18 177.54 154.94 177.13 L 154.00 176.82 C 152.76 176.41 151.42 177.09 151.02 178.33 C 150.61 179.56 151.29 180.90 152.52 181.30 Z M 153.46 181.60 L 154.40 181.91 C 155.62 182.33 156.96 181.67 157.37 180.44 C 157.79 179.21 157.13 177.88 155.90 177.47 L 154.96 177.15 C 153.73 176.73 152.40 177.39 151.98 178.62 C 151.57 179.85 152.23 181.18 153.46 181.60 Z M 154.40 181.90 L 155.36 182.22 C 156.58 182.63 157.90 181.98 158.31 180.76 C 158.72 179.54 158.07 178.22 156.85 177.81 L 155.89 177.48 C 154.68 177.07 153.35 177.73 152.94 178.94 C 152.53 180.16 153.18 181.49 154.40 181.90 Z M 155.39 182.21 L 156.33 182.52 C 157.55 182.91 158.85 182.25 159.24 181.03 C 159.64 179.82 158.98 178.52 157.76 178.12 L 156.82 177.82 C 155.60 177.42 154.30 178.09 153.91 179.30 C 153.51 180.51 154.18 181.82 155.39 182.21 Z M 156.35 182.50 L 157.31 182.81 C 158.52 183.20 159.81 182.53 160.19 181.33 C 160.58 180.12 159.91 178.83 158.71 178.45 L 157.74 178.14 C 156.54 177.75 155.25 178.42 154.86 179.62 C 154.48 180.83 155.14 182.12 156.35 182.50 Z M 157.31 182.79 L 158.24 183.09 C 159.43 183.48 160.72 182.83 161.10 181.64 C 161.49 180.44 160.84 179.16 159.65 178.77 L 158.71 178.47 C 157.52 178.08 156.24 178.73 155.85 179.92 C 155.46 181.12 156.11 182.40 157.31 182.79 Z M 158.24 183.07 L 159.20 183.39 C 160.38 183.77 161.65 183.13 162.04 181.95 C 162.43 180.77 161.79 179.50 160.60 179.11 L 159.65 178.79 C 158.46 178.41 157.19 179.05 156.81 180.23 C 156.42 181.41 157.06 182.68 158.24 183.07 Z M 159.22 183.37 L 160.18 183.68 C 161.36 184.06 162.61 183.41 162.99 182.24 C 163.37 181.07 162.72 179.81 161.55 179.43 L 160.58 179.12 C 159.41 178.75 158.16 179.39 157.78 180.56 C 157.40 181.74 158.05 182.99 159.22 183.37 Z M 160.21 183.66 L 161.17 183.96 C 162.33 184.33 163.57 183.68 163.93 182.52 C 164.30 181.36 163.65 180.12 162.49 179.76 L 161.53 179.45 C 160.36 179.09 159.13 179.73 158.76 180.90 C 158.40 182.06 159.04 183.30 160.21 183.66 Z M 161.19 183.95 L 162.15 184.24 C 163.30 184.60 164.52 183.95 164.88 182.80 C 165.23 181.65 164.59 180.43 163.43 180.07 L 162.47 179.77 C 161.32 179.42 160.10 180.07 159.74 181.22 C 159.39 182.37 160.04 183.59 161.19 183.95 Z M 162.17 184.22 L 163.13 184.51 C 164.27 184.86 165.47 184.22 165.82 183.07 C 166.17 181.93 165.52 180.73 164.38 180.38 L 163.42 180.09 C 162.28 179.74 161.07 180.39 160.73 181.53 C 160.38 182.67 161.02 183.88 162.17 184.22 Z M 163.14 184.50 L 164.08 184.78 C 165.21 185.12 166.40 184.48 166.74 183.35 C 167.09 182.22 166.44 181.02 165.31 180.68 L 164.37 180.40 C 163.24 180.06 162.04 180.70 161.70 181.83 C 161.36 182.96 162.00 184.16 163.14 184.50 Z M 164.09 184.76 L 165.05 185.05 C 166.17 185.39 167.35 184.75 167.69 183.63 C 168.02 182.51 167.39 181.33 166.27 180.99 L 165.30 180.70 C 164.18 180.37 163.00 181.00 162.67 182.12 C 162.33 183.24 162.97 184.42 164.09 184.76 Z M 165.06 185.03 L 166.02 185.31 C 167.13 185.64 168.29 185.01 168.62 183.90 C 168.95 182.79 168.32 181.63 167.21 181.30 L 166.26 181.01 C 165.15 180.68 163.98 181.31 163.65 182.42 C 163.32 183.53 163.95 184.70 165.06 185.03 Z M 166.04 185.29 L 167.01 185.57 C 168.11 185.89 169.25 185.26 169.57 184.16 C 169.89 183.07 169.26 181.92 168.16 181.60 L 167.19 181.32 C 166.10 181.00 164.95 181.63 164.63 182.73 C 164.31 183.82 164.94 184.97 166.04 185.29 Z M 167.06 185.55 L 168.02 185.81 C 169.10 186.11 170.22 185.46 170.52 184.38 C 170.81 183.29 170.16 182.17 169.08 181.88 L 168.12 181.62 C 167.03 181.33 165.91 181.97 165.62 183.06 C 165.33 184.14 165.97 185.26 167.06 185.55 Z M 168.07 185.79 L 169.05 186.04 C 170.12 186.30 171.21 185.64 171.47 184.57 C 171.74 183.49 171.08 182.40 170.01 182.14 L 169.03 181.90 C 167.95 181.63 166.86 182.29 166.60 183.37 C 166.33 184.44 166.99 185.53 168.07 185.79 Z M 169.04 186.00 L 170.01 186.24 C 171.06 186.51 172.14 185.87 172.40 184.81 C 172.67 183.75 172.03 182.68 170.97 182.42 L 170.01 182.17 C 168.95 181.91 167.88 182.55 167.61 183.61 C 167.35 184.66 167.99 185.74 169.04 186.00 Z M 170.01 186.21 L 170.97 186.45 C 172.00 186.72 173.06 186.09 173.32 185.05 C 173.59 184.01 172.96 182.96 171.92 182.69 L 170.97 182.45 C 169.93 182.19 168.87 182.81 168.61 183.85 C 168.34 184.89 168.97 185.94 170.01 186.21 Z M 171.02 186.43 L 171.96 186.64 C 172.98 186.88 174.00 186.24 174.24 185.21 C 174.47 184.19 173.83 183.17 172.81 182.93 L 171.87 182.72 C 170.85 182.48 169.83 183.12 169.59 184.15 C 169.35 185.17 169.99 186.19 171.02 186.43 Z M 171.98 186.61 L 172.97 186.83 C 173.97 187.06 174.97 186.42 175.20 185.41 C 175.42 184.40 174.78 183.41 173.78 183.18 L 172.79 182.96 C 171.78 182.74 170.78 183.38 170.56 184.38 C 170.33 185.39 170.97 186.39 171.98 186.61 Z M 172.96 186.81 L 173.94 187.03 C 174.93 187.25 175.92 186.63 176.14 185.63 C 176.37 184.64 175.74 183.66 174.75 183.43 L 173.78 183.21 C 172.79 182.99 171.80 183.61 171.57 184.60 C 171.35 185.59 171.97 186.58 172.96 186.81 Z M 173.94 187.01 L 174.61 187.16 C 175.59 187.38 176.57 186.77 176.79 185.79 C 177.02 184.80 176.40 183.82 175.42 183.60 L 174.75 183.45 C 173.77 183.22 172.79 183.84 172.56 184.82 C 172.34 185.81 172.96 186.78 173.94 187.01 Z"
      fill="black"
      fill-rule="nonzero" /></svg>