<svg xmlns="http://www.w3.org/2000/svg" width="300" height="300" viewBox="0 0 300 300">
<path d="M 130.01776113473323 126.84097900911635 L 131.1168909072876 123.3033447265625 L 126.28415793664372 125.1380858700061 L 125.58787970055022 126.60778648564501 L 124.73487634761995 128.5961826319227 L 123.68955078060849 130.93575962954512 L 122.38191071195412 133.695014016077 L 121.05852210969934 136.5986184822336 L 119.56304057688259 139.75190030323407 L 117.87298115716128 143.29228685971287 L 116.05117754936697 146.9516617624618 L 114.17971992718961 150.48852034997893 L 112.15894671389363 154.17655218582414 L 110.68041261597374 156.8673467497777 L 109.38330928897555 159.10037869146433 L 108.35493535621643 160.91132612029722 L 107.65654702476812 162.2179025121891 L 106.43174493312836 164.768798828125 L 110.7460439154415 164.47754286268358 L 111.95610283426026 162.66629121340122 L 108.96430732198974 160.66525175534878 L 107.7976572564335 162.40746690294142 L 110.13136541843414 164.768798828125 L 110.88715414710688 164.1415945581234 L 111.66520624534607 162.82060747345278 L 112.72545535946195 161.07808810541067 L 114.09314695433876 158.8317499299098 L 115.63951520016887 156.11727105636336 L 117.72396659624789 152.42310074377107 L 119.66964764594553 148.8280013234757 L 121.55695048346372 145.10517407778713 L 123.28791157155491 141.53862704051593 L 124.81733238248816 138.3607321037039 L 126.15873870210838 135.4586725073605 L 127.47988281314151 132.68753138607988 L 128.55919103519255 130.2724697118273 L 129.39869256507478 128.30700843622998 L 130.1788547586688 126.6236328799939 L 127.0386266708374 123.3033447265625 L 126.44525156057928 125.84664306119615 Z" fill="black" />
<path d="M 118.06429971164806 151.9589490527777 L 119.02971466306742 150.69329148282534 L 118.59166827993005 150.36118439438866 L 117.87190062232324 150.71329567430624 L 118.60336107403283 152.32394154903244 L 119.47146654110156 155.21857213483847 L 119.98920529218242 157.16361607354614 L 120.42206317011741 159.16907884466352 L 120.81625466216005 161.42662787920824 L 121.21511951540177 163.8806599000373 L 121.56190517962106 166.50941408414343 L 121.82614156683022 169.30618556556456 L 122.115252397048 172.41855574832576 L 122.25653197640264 174.99583839219193 L 122.3535358518942 177.4806913681827 L 122.45330254968172 179.70414518935888 L 122.54465414963586 183.0877262721666 L 124.79248046875 186.63513576984406 L 127.53395099215847 184.0122040656597 L 124.57176189846653 181.9108916374653 L 124.79248046875 182.84142673015594 L 126.50014565505164 182.8353694309584 L 126.48346502844328 179.61250520126612 L 126.4391887574808 177.3565889052548 L 126.39214966422236 174.83655906874557 L 126.2813540482645 172.13369034542424 L 126.03030374566978 168.93990818443544 L 125.79038974225394 166.05613767366907 L 125.45297130491073 163.2796184202752 L 125.05959983002745 160.72876762860426 L 124.66155499394509 158.35680006158648 L 124.19414431719258 156.15816127020386 L 123.63156080264844 154.02422571672403 L 122.66311841815467 150.83792368534256 L 121.55803101830176 148.49471213819376 L 118.71362957163245 146.21925994154884 L 116.15094939943258 148.38959425936216 L 115.13577353053944 149.7515001659723 Z" fill="black" />
<path d="M 153.66314940556418 127.76233607228883 L 151.3896998619642 128.21019952170303 L 149.497574307569 128.99918166409728 L 147.7580877054556 129.70989933573932 L 144.55325813470378 131.23499285866225 L 142.38640067874758 132.22295258289446 L 140.48581887335877 133.25470539860748 L 138.16297911433236 134.78386017272084 L 137.11751216925958 137.9808724068402 L 138.26213069823498 140.83648912975022 L 139.3614382822529 143.29815794172535 L 139.82312980103305 144.60988456110832 L 140.30728051830647 146.1542279231963 L 140.75180510291787 147.99072365730268 L 141.20234075295124 149.94877026057446 L 141.58641547743787 152.26754438124624 L 142.02033805999312 154.9133425159389 L 142.27524870595013 157.32015915623438 L 142.46879938873877 159.85090931245665 L 142.6614495957029 162.43969902516037 L 142.72822654382034 164.94850072139596 L 142.78001444418587 167.32803359026374 L 142.85099308005104 169.70717370001404 L 142.92355881882574 172.62721699656788 L 144.15713927546804 176.32859717512773 L 147.90378084025738 174.677075217756 L 149.17888265172073 173.04580974702372 L 150.79113728584065 170.76327920641324 L 151.7022734162093 169.35307612642288 L 152.7051411193149 167.868255086132 L 153.8309040225001 166.13888062723038 L 150.8144817196874 164.17447386495712 L 149.7075786072476 165.873444132618 L 148.7298554900407 167.29145512357712 L 147.76843302665935 168.53383993421176 L 146.10371012171677 170.58053302641378 L 144.85805998005512 171.8520995869315 L 146.22799256046946 172.57789696549727 L 147.20949782179926 172.45054179249462 L 147.13802059182396 169.58994544061096 L 147.06495625893913 167.21444687848626 L 147.00871193274216 164.83934107547904 L 146.9314459121096 162.21813788890213 L 146.72797795501123 159.52677623441835 L 146.52541047373737 156.92752150782812 L 146.24015998688188 154.3294553356236 L 145.77381401474963 151.56998003281626 L 145.36565241111126 149.13411548161304 L 144.87990876426963 147.01318259269732 L 144.38815405200603 145.0209429752412 L 143.82799324584195 143.26206368107918 L 143.2453732411846 141.67095826921215 L 142.07600406739002 139.12774426868728 L 141.24003177605292 137.5039908744098 L 141.27488709660514 137.39778045227916 L 142.51711081414123 136.69976237483002 L 144.18159248531492 135.75458647960554 L 146.22799186529622 134.76561749290025 L 149.3610529195444 133.26275691426068 L 150.934554598681 132.64718064059022 L 152.4634495520983 132.10986883767197 L 154.40325684443582 131.78197545114867 Z" fill="black" />
<path d="M 160.44150149280915 151.63994160731934 L 161.46519442505442 150.75844315000543 L 162.727570526088 149.98493525216347 L 165.33520957482455 148.67337511520861 L 166.9746283650809 147.94622843446365 L 168.79085597378548 147.21498554596485 L 170.83517455456513 146.52442455501168 L 172.99212181021454 145.8155070999644 L 175.33818043277506 145.1663895726232 L 177.36547066573317 144.69104235055596 L 179.3069537979983 144.2925720999818 L 181.03626893862975 144.0946451386915 L 182.5333315528704 143.96242027749844 L 185.09064846418525 143.80113576436386 L 184.4550762250421 143.78621428198193 L 184.4950152728992 144.6607573362423 L 183.3773518284757 146.34000568493005 L 182.6164961924096 147.49099552289556 L 181.70617721546964 148.58672951773463 L 180.68054178286454 149.81849707201786 L 179.4871461345504 151.17427553000283 L 178.44223679376125 152.26013650224075 L 177.4347142656371 153.25092036898062 L 175.36410746731286 154.9753028065854 L 173.42055782503687 156.38337065980824 L 172.16827481895368 156.8845804272286 L 170.80321551523207 156.96850092228414 L 171.07727764883043 160.55737798396586 L 172.98919588417132 160.3910543383964 L 175.19394412808813 159.56597016050426 L 177.60769429049964 157.9460839121646 L 179.8943872968629 156.11699955289438 L 181.11953078436375 155.00573263838425 L 182.3072874591996 153.83939634499717 L 183.63464376401046 152.41746484204464 L 184.73364212046786 151.14679099007787 L 185.8039139638404 149.89023006304194 L 186.7355632105868 148.51375408069495 L 188.2826946880383 145.9889008668827 L 188.4306659624579 143.15983063989307 L 186.60673923112725 139.99183298563614 L 182.4300473533796 139.83054847250156 L 180.65013242855775 139.9485677519335 L 178.6703411238767 140.1510314156432 L 176.50659964676683 140.55334241506904 L 174.32063304378744 141.0038985133143 L 171.76923072884796 141.6560505172231 L 169.46084595324737 142.39854907780082 L 167.25589695590202 143.15940410247265 L 165.2549858927316 144.02972371397385 L 163.47338417517545 144.87911511916639 L 160.679411895787 146.32024052908653 L 158.88087491088308 147.52366134218207 L 157.67190182750335 148.89436015049316 Z" fill="black" />
<path d="M 166.87485162061984 148.92142124741045 L 167.39040408800358 151.55422808638076 L 167.65581344907895 153.13205176614807 L 167.9516030537535 155.42867735768746 L 168.26328005794534 158.3509175401391 L 168.59269885687348 161.8435703493099 L 168.84280995574417 166.10164840738346 L 169.1122907386084 170.30262280058034 L 169.30798743001787 174.58940087628002 L 169.37894366156894 178.8275650453778 L 169.37885808944702 182.9615478515625 L 169.37887287139893 186.65264892578125 L 169.37918376922607 190.34375 L 169.381792490737 192.77383416887125 L 169.25199764078178 194.82115798765292 L 169.06554976653112 196.55901938678497 L 168.83711758638512 199.04078310804627 L 170.79620361328125 198.72895526885986 L 172.80810944391206 199.1926311448437 L 172.28857597360954 196.77574165850857 L 172.19791678450713 195.144514615744 L 168.60225411393037 195.302506868631 L 168.65563789357796 196.94947806805393 L 168.38817961858794 199.5374713942188 L 170.79620361328125 203.30436992645264 L 173.43949374173988 199.68931943101623 L 173.71521195221888 197.04107826946503 L 173.92488224203072 195.22547287172208 L 174.0831733295755 192.91854864362875 L 174.08578205108643 190.34375 L 174.08609294891357 186.65264892578125 L 174.08610773086548 182.9615478515625 L 174.08602215874356 178.7874251889972 L 174.01293542154463 174.44221533465748 L 173.8125139488916 170.04552173066966 L 173.54183359894333 165.81326858480404 L 173.28779430718902 161.4879726194401 L 172.93300900455466 157.8736918348609 L 172.5964926493715 154.86514588450004 L 172.24408889467105 152.40713280416443 L 171.82529415418392 150.30636761674424 L 170.50429877000516 147.65902308852705 Z" fill="black" />
</svg>