<svg xmlns="http://www.w3.org/2000/svg" width="300" height="300" viewBox="0 0 300 300">
<path d="M 136.08 129.62 L 135.08 129.62 C 134.08 129.62 133.27 130.43 133.27 131.43 C 133.27 132.43 134.08 133.24 135.08 133.24 L 136.08 133.24 C 137.08 133.24 137.89 132.43 137.89 131.43 C 137.89 130.43 137.08 129.62 136.08 129.62 Z M 135.08 129.62 L 134.70 129.62 C 133.70 129.62 132.89 130.43 132.89 131.43 C 132.89 132.43 133.70 133.24 134.70 133.24 L 135.08 133.24 C 136.08 133.24 136.89 132.43 136.89 131.43 C 136.89 130.43 136.08 129.62 135.08 129.62 Z"
      fill="black"
      fill-rule="nonzero" /><path d="M 133.73 126.70 L 133.18 127.47 C 132.53 128.37 132.74 129.63 133.64 130.27 C 134.54 130.92 135.79 130.71 136.44 129.81 L 136.99 129.03 C 137.64 128.13 137.43 126.88 136.53 126.23 C 135.63 125.59 134.37 125.80 133.73 126.70 Z M 132.99 127.50 L 132.44 128.38 C 131.81 129.39 132.11 130.71 133.11 131.34 C 134.11 131.97 135.44 131.66 136.07 130.66 L 136.62 129.78 C 137.25 128.78 136.95 127.46 135.95 126.83 C 134.95 126.20 133.62 126.50 132.99 127.50 Z M 132.31 128.48 L 131.83 129.37 C 131.25 130.44 131.66 131.78 132.73 132.36 C 133.81 132.94 135.14 132.53 135.72 131.46 L 136.20 130.57 C 136.77 129.49 136.37 128.15 135.30 127.58 C 134.22 127.00 132.88 127.40 132.31 128.48 Z M 131.80 129.43 L 131.35 130.33 C 130.81 131.42 131.25 132.74 132.34 133.29 C 133.43 133.83 134.76 133.39 135.30 132.30 L 135.75 131.40 C 136.30 130.31 135.85 128.98 134.76 128.44 C 133.67 127.89 132.34 128.34 131.80 129.43 Z M 131.35 130.33 L 130.89 131.25 C 130.35 132.35 130.79 133.67 131.88 134.22 C 132.97 134.76 134.30 134.31 134.84 133.22 L 135.30 132.30 C 135.85 131.21 135.40 129.88 134.31 129.34 C 133.22 128.79 131.89 129.24 131.35 130.33 Z M 130.90 131.24 L 130.46 132.09 C 129.91 133.18 130.35 134.51 131.43 135.06 C 132.52 135.61 133.85 135.18 134.40 134.09 L 134.84 133.24 C 135.39 132.15 134.95 130.82 133.87 130.27 C 132.78 129.72 131.45 130.15 130.90 131.24 Z M 130.47 132.08 L 130.03 132.94 C 129.47 134.02 129.90 135.35 130.98 135.91 C 132.07 136.47 133.40 136.04 133.96 134.96 L 134.40 134.10 C 134.96 133.01 134.53 131.68 133.44 131.12 C 132.36 130.57 131.03 130.99 130.47 132.08 Z M 130.04 132.92 L 129.56 133.83 C 128.99 134.90 129.40 136.24 130.48 136.81 C 131.56 137.38 132.90 136.97 133.47 135.89 L 133.95 134.98 C 134.52 133.90 134.10 132.56 133.02 131.99 C 131.94 131.42 130.61 131.84 130.04 132.92 Z M 129.57 133.80 L 129.11 134.65 C 128.53 135.72 128.92 137.06 129.99 137.65 C 131.07 138.23 132.41 137.83 132.99 136.76 L 133.45 135.91 C 134.04 134.84 133.64 133.50 132.57 132.92 C 131.50 132.33 130.16 132.73 129.57 133.80 Z M 129.12 134.64 L 128.62 135.55 C 128.03 136.62 128.42 137.96 129.49 138.55 C 130.56 139.14 131.90 138.75 132.49 137.68 L 132.99 136.77 C 133.57 135.70 133.18 134.36 132.12 133.77 C 131.05 133.18 129.70 133.57 129.12 134.64 Z M 128.62 135.55 L 128.15 136.39 C 127.57 137.46 127.96 138.81 129.03 139.39 C 130.10 139.98 131.44 139.59 132.03 138.52 L 132.49 137.67 C 133.08 136.61 132.68 135.26 131.61 134.68 C 130.54 134.09 129.20 134.48 128.62 135.55 Z M 128.15 136.40 L 127.67 137.28 C 127.08 138.36 127.48 139.70 128.55 140.28 C 129.62 140.87 130.96 140.47 131.54 139.40 L 132.03 138.51 C 132.61 137.44 132.22 136.10 131.15 135.52 C 130.08 134.93 128.73 135.33 128.15 136.40 Z M 127.66 137.29 L 127.18 138.18 C 126.60 139.25 126.99 140.60 128.07 141.18 C 129.14 141.76 130.48 141.36 131.06 140.29 L 131.55 139.40 C 132.13 138.32 131.73 136.98 130.66 136.40 C 129.59 135.82 128.25 136.22 127.66 137.29 Z M 127.18 138.19 L 126.70 139.06 C 126.12 140.13 126.52 141.47 127.60 142.05 C 128.67 142.63 130.01 142.23 130.59 141.16 L 131.06 140.29 C 131.64 139.21 131.24 137.87 130.17 137.29 C 129.10 136.71 127.76 137.11 127.18 138.19 Z M 126.70 139.07 L 126.22 139.96 C 125.64 141.03 126.05 142.37 127.12 142.95 C 128.20 143.53 129.54 143.12 130.11 142.05 L 130.59 141.16 C 131.17 140.08 130.77 138.74 129.69 138.16 C 128.62 137.59 127.28 137.99 126.70 139.07 Z M 126.22 139.97 L 125.74 140.86 C 125.17 141.93 125.58 143.27 126.65 143.84 C 127.73 144.42 129.07 144.01 129.64 142.93 L 130.12 142.04 C 130.69 140.97 130.28 139.63 129.21 139.05 C 128.13 138.48 126.79 138.89 126.22 139.97 Z M 125.74 140.86 L 125.27 141.74 C 124.70 142.82 125.11 144.16 126.19 144.73 C 127.27 145.30 128.61 144.89 129.18 143.81 L 129.65 142.93 C 130.22 141.85 129.80 140.51 128.73 139.94 C 127.65 139.37 126.31 139.78 125.74 140.86 Z M 125.27 141.74 L 124.81 142.63 C 124.24 143.70 124.65 145.04 125.73 145.61 C 126.80 146.18 128.14 145.77 128.71 144.69 L 129.18 143.81 C 129.75 142.73 129.34 141.39 128.26 140.82 C 127.18 140.25 125.85 140.66 125.27 141.74 Z M 124.81 142.62 L 124.34 143.50 C 123.77 144.58 124.18 145.91 125.25 146.49 C 126.33 147.06 127.67 146.65 128.24 145.57 L 128.71 144.70 C 129.28 143.62 128.87 142.28 127.80 141.71 C 126.72 141.14 125.38 141.55 124.81 142.62 Z M 124.35 143.50 L 123.87 144.38 C 123.30 145.45 123.71 146.79 124.78 147.36 C 125.85 147.94 127.19 147.53 127.77 146.46 L 128.24 145.58 C 128.81 144.50 128.41 143.17 127.33 142.59 C 126.26 142.02 124.92 142.42 124.35 143.50 Z M 123.88 144.38 L 123.40 145.27 C 122.83 146.34 123.23 147.68 124.31 148.25 C 125.38 148.82 126.72 148.42 127.29 147.34 L 127.76 146.46 C 128.34 145.38 127.93 144.05 126.86 143.47 C 125.79 142.90 124.45 143.31 123.88 144.38 Z M 123.40 145.27 L 122.93 146.16 C 122.36 147.23 122.77 148.56 123.84 149.13 C 124.91 149.71 126.25 149.30 126.82 148.23 L 127.29 147.34 C 127.86 146.27 127.45 144.93 126.38 144.36 C 125.31 143.79 123.97 144.20 123.40 145.27 Z M 122.93 146.15 L 122.46 147.04 C 121.89 148.11 122.29 149.44 123.37 150.01 C 124.44 150.59 125.77 150.18 126.34 149.11 L 126.82 148.23 C 127.39 147.16 126.98 145.82 125.91 145.25 C 124.84 144.68 123.51 145.08 122.93 146.15 Z M 122.47 147.02 L 121.99 147.90 C 121.41 148.97 121.81 150.30 122.88 150.88 C 123.94 151.46 125.28 151.07 125.86 150.00 L 126.33 149.12 C 126.91 148.06 126.52 146.72 125.45 146.14 C 124.39 145.56 123.05 145.96 122.47 147.02 Z M 122.01 147.88 L 121.51 148.77 C 120.92 149.82 121.30 151.16 122.36 151.75 C 123.42 152.35 124.76 151.97 125.35 150.91 L 125.84 150.02 C 126.43 148.96 126.06 147.63 125.00 147.03 C 123.94 146.44 122.60 146.82 122.01 147.88 Z M 121.53 148.75 L 121.03 149.62 C 120.43 150.67 120.79 152.01 121.85 152.61 C 122.90 153.21 124.24 152.85 124.84 151.80 L 125.33 150.92 C 125.93 149.87 125.57 148.53 124.52 147.93 C 123.47 147.33 122.13 147.70 121.53 148.75 Z M 121.04 149.62 L 120.55 150.47 C 119.94 151.51 120.30 152.85 121.35 153.46 C 122.40 154.06 123.74 153.70 124.34 152.65 L 124.83 151.80 C 125.43 150.75 125.07 149.41 124.02 148.81 C 122.98 148.21 121.64 148.57 121.04 149.62 Z M 120.55 150.47 L 120.05 151.34 C 119.44 152.39 119.80 153.73 120.85 154.33 C 121.90 154.93 123.23 154.57 123.83 153.52 L 124.34 152.65 C 124.94 151.60 124.58 150.27 123.53 149.66 C 122.49 149.06 121.15 149.42 120.55 150.47 Z M 120.05 151.34 L 119.55 152.20 C 118.95 153.24 119.31 154.58 120.35 155.18 C 121.39 155.78 122.73 155.43 123.33 154.39 L 123.83 153.53 C 124.43 152.48 124.08 151.15 123.03 150.55 C 121.99 149.94 120.66 150.30 120.05 151.34 Z M 119.57 152.19 L 119.06 153.06 C 118.45 154.09 118.79 155.43 119.83 156.04 C 120.86 156.65 122.20 156.30 122.81 155.27 L 123.32 154.40 C 123.93 153.36 123.58 152.03 122.55 151.42 C 121.51 150.81 120.18 151.15 119.57 152.19 Z M 119.07 153.04 L 118.54 153.92 C 117.92 154.95 118.25 156.28 119.28 156.90 C 120.30 157.52 121.63 157.19 122.25 156.17 L 122.79 155.28 C 123.41 154.26 123.08 152.92 122.05 152.30 C 121.03 151.69 119.69 152.01 119.07 153.04 Z M 118.56 153.91 L 118.04 154.75 C 117.42 155.76 117.73 157.09 118.75 157.72 C 119.76 158.35 121.09 158.03 121.72 157.02 L 122.24 156.18 C 122.86 155.16 122.55 153.83 121.53 153.21 C 120.52 152.58 119.18 152.90 118.56 153.91 Z M 118.06 154.74 L 117.56 155.52 C 116.93 156.53 117.23 157.86 118.24 158.49 C 119.24 159.12 120.57 158.82 121.20 157.82 L 121.70 157.03 C 122.33 156.02 122.03 154.70 121.03 154.06 C 120.02 153.43 118.69 153.73 118.06 154.74 Z M 117.59 155.51 L 117.07 156.30 C 116.42 157.29 116.71 158.62 117.70 159.27 C 118.69 159.91 120.02 159.63 120.66 158.64 L 121.18 157.84 C 121.82 156.85 121.54 155.52 120.55 154.88 C 119.56 154.23 118.23 154.51 117.59 155.51 Z M 117.09 156.28 L 116.50 157.17 C 115.84 158.15 116.11 159.48 117.09 160.13 C 118.07 160.79 119.39 160.52 120.04 159.54 L 120.64 158.65 C 121.29 157.67 121.03 156.35 120.05 155.70 C 119.07 155.04 117.75 155.30 117.09 156.28 Z M 116.51 157.17 L 115.96 157.99 C 115.30 158.96 115.56 160.28 116.53 160.94 C 117.50 161.59 118.82 161.34 119.48 160.37 L 120.03 159.55 C 120.69 158.58 120.43 157.26 119.46 156.60 C 118.49 155.94 117.17 156.20 116.51 157.17 Z M 115.96 158.00 L 115.38 158.87 C 114.73 159.84 114.99 161.15 115.96 161.80 C 116.93 162.45 118.24 162.19 118.89 161.22 L 119.47 160.36 C 120.12 159.39 119.86 158.07 118.89 157.42 C 117.92 156.77 116.61 157.03 115.96 158.00 Z M 115.37 158.90 L 114.83 159.73 C 114.19 160.70 114.46 162.01 115.44 162.64 C 116.41 163.28 117.71 163.01 118.35 162.03 L 118.90 161.20 C 119.53 160.23 119.26 158.92 118.29 158.29 C 117.31 157.65 116.01 157.92 115.37 158.90 Z M 114.80 159.81 L 114.13 160.93 C 113.54 161.91 113.86 163.19 114.84 163.79 C 115.83 164.38 117.11 164.06 117.70 163.07 L 118.37 161.96 C 118.97 160.97 118.65 159.69 117.66 159.10 C 116.68 158.51 115.40 158.82 114.80 159.81 Z M 114.01 161.27 L 113.76 161.93 C 113.35 162.99 113.88 164.17 114.94 164.57 C 115.99 164.97 117.17 164.44 117.58 163.39 L 117.83 162.73 C 118.23 161.67 117.70 160.49 116.65 160.09 C 115.59 159.69 114.41 160.22 114.01 161.27 Z M 116.30 164.48 L 117.04 164.23 C 118.05 163.88 118.58 162.77 118.22 161.76 C 117.87 160.76 116.77 160.22 115.76 160.58 L 115.03 160.83 C 114.02 161.19 113.49 162.29 113.84 163.30 C 114.19 164.31 115.30 164.84 116.30 164.48 Z M 117.39 163.94 L 117.59 163.81 C 118.44 163.26 118.68 162.13 118.14 161.28 C 117.59 160.44 116.46 160.19 115.61 160.74 L 115.41 160.87 C 114.56 161.41 114.32 162.54 114.86 163.39 C 115.41 164.24 116.54 164.48 117.39 163.94 Z"
      fill="black"
      fill-rule="nonzero" /><path d="M 127.54 142.97 L 127.65 144.08 C 127.76 145.15 128.72 145.93 129.79 145.81 C 130.86 145.70 131.64 144.75 131.53 143.68 L 131.41 142.57 C 131.30 141.50 130.34 140.72 129.27 140.83 C 128.20 140.94 127.43 141.90 127.54 142.97 Z M 127.59 144.08 L 127.70 145.16 C 127.81 146.27 128.80 147.07 129.91 146.96 C 131.01 146.84 131.81 145.85 131.70 144.75 L 131.59 143.67 C 131.48 142.57 130.49 141.76 129.38 141.88 C 128.28 141.99 127.48 142.98 127.59 144.08 Z M 127.64 145.17 L 127.74 146.18 C 127.86 147.32 128.87 148.15 130.01 148.03 C 131.15 147.91 131.98 146.90 131.87 145.76 L 131.76 144.75 C 131.65 143.61 130.63 142.78 129.49 142.89 C 128.35 143.01 127.52 144.03 127.64 145.17 Z M 127.68 146.18 L 127.77 147.09 C 127.88 148.26 128.93 149.12 130.11 149.00 C 131.28 148.89 132.14 147.84 132.02 146.66 L 131.93 145.75 C 131.81 144.58 130.77 143.72 129.59 143.84 C 128.42 143.96 127.56 145.00 127.68 146.18 Z M 127.71 147.08 L 127.81 148.07 C 127.92 149.28 128.99 150.16 130.20 150.05 C 131.40 149.93 132.29 148.86 132.17 147.66 L 132.08 146.67 C 131.96 145.46 130.89 144.58 129.69 144.69 C 128.48 144.81 127.60 145.88 127.71 147.08 Z M 127.78 148.06 L 127.87 149.12 C 127.98 150.33 129.05 151.24 130.27 151.13 C 131.49 151.02 132.39 149.95 132.29 148.73 L 132.20 147.67 C 132.09 146.45 131.02 145.55 129.80 145.66 C 128.58 145.76 127.68 146.84 127.78 148.06 Z M 127.87 149.10 L 127.94 149.93 C 128.04 151.15 129.11 152.06 130.33 151.96 C 131.55 151.86 132.46 150.79 132.36 149.56 L 132.29 148.74 C 132.19 147.52 131.12 146.61 129.90 146.71 C 128.68 146.81 127.77 147.88 127.87 149.10 Z M 127.94 149.94 L 128.02 150.89 C 128.13 152.11 129.20 153.02 130.43 152.91 C 131.65 152.80 132.55 151.72 132.44 150.50 L 132.36 149.55 C 132.25 148.33 131.18 147.43 129.95 147.53 C 128.73 147.64 127.83 148.72 127.94 149.94 Z M 128.02 150.88 L 128.10 151.91 C 128.21 153.13 129.28 154.04 130.50 153.93 C 131.73 153.83 132.63 152.76 132.53 151.53 L 132.45 150.51 C 132.34 149.29 131.27 148.38 130.05 148.48 C 128.82 148.58 127.91 149.66 128.02 150.88 Z M 128.10 151.87 L 128.17 152.85 C 128.25 154.07 129.31 155.00 130.54 154.91 C 131.76 154.83 132.69 153.77 132.60 152.54 L 132.54 151.57 C 132.45 150.34 131.39 149.42 130.16 149.50 C 128.94 149.59 128.01 150.65 128.10 151.87 Z M 128.16 152.83 L 128.23 153.84 C 128.30 155.07 129.36 156.00 130.59 155.92 C 131.81 155.85 132.75 154.79 132.67 153.56 L 132.61 152.55 C 132.53 151.33 131.47 150.40 130.25 150.47 C 129.02 150.55 128.09 151.60 128.16 152.83 Z M 128.23 153.85 L 128.29 154.85 C 128.38 156.07 129.44 157.00 130.66 156.92 C 131.89 156.84 132.82 155.78 132.74 154.55 L 132.67 153.55 C 132.59 152.33 131.53 151.40 130.30 151.48 C 129.07 151.56 128.14 152.62 128.23 153.85 Z M 128.29 154.86 L 128.37 155.85 C 128.46 157.08 129.52 158.00 130.75 157.91 C 131.98 157.82 132.90 156.75 132.81 155.53 L 132.73 154.54 C 132.65 153.31 131.58 152.39 130.35 152.48 C 129.13 152.57 128.20 153.64 128.29 154.86 Z M 128.37 155.86 L 128.44 156.88 C 128.53 158.11 129.60 159.03 130.83 158.93 C 132.06 158.84 132.98 157.77 132.88 156.55 L 132.81 155.52 C 132.72 154.30 131.65 153.38 130.42 153.47 C 129.19 153.56 128.27 154.63 128.37 155.86 Z M 128.44 156.88 L 128.51 157.85 C 128.60 159.08 129.67 160.00 130.90 159.91 C 132.12 159.82 133.04 158.75 132.95 157.53 L 132.88 156.55 C 132.79 155.32 131.73 154.40 130.50 154.49 C 129.27 154.58 128.35 155.65 128.44 156.88 Z M 128.51 157.85 L 128.59 158.85 C 128.67 160.07 129.74 161.00 130.96 160.91 C 132.19 160.82 133.11 159.76 133.03 158.53 L 132.95 157.53 C 132.87 156.30 131.80 155.38 130.58 155.47 C 129.35 155.56 128.43 156.62 128.51 157.85 Z M 128.59 158.84 L 128.66 159.85 C 128.74 161.08 129.80 162.00 131.03 161.92 C 132.26 161.83 133.18 160.77 133.10 159.54 L 133.03 158.53 C 132.94 157.31 131.88 156.38 130.65 156.47 C 129.43 156.56 128.50 157.62 128.59 158.84 Z M 128.66 159.85 L 128.72 160.82 C 128.81 162.05 129.87 162.97 131.09 162.89 C 132.32 162.81 133.24 161.75 133.16 160.52 L 133.09 159.55 C 133.01 158.32 131.95 157.40 130.73 157.48 C 129.50 157.56 128.58 158.62 128.66 159.85 Z M 128.72 160.81 L 128.79 161.82 C 128.86 163.04 129.92 163.97 131.14 163.89 C 132.37 163.82 133.30 162.76 133.22 161.54 L 133.16 160.53 C 133.08 159.31 132.03 158.38 130.80 158.45 C 129.58 158.53 128.65 159.59 128.72 160.81 Z M 128.79 161.80 L 128.85 162.83 C 128.91 164.05 129.96 164.99 131.19 164.92 C 132.41 164.85 133.35 163.80 133.28 162.58 L 133.22 161.55 C 133.15 160.33 132.10 159.39 130.88 159.46 C 129.66 159.53 128.72 160.58 128.79 161.80 Z M 128.85 162.81 L 128.90 163.82 C 128.96 165.04 130.00 165.99 131.22 165.93 C 132.45 165.87 133.39 164.83 133.33 163.60 L 133.28 162.59 C 133.22 161.37 132.18 160.42 130.95 160.49 C 129.73 160.55 128.79 161.59 128.85 162.81 Z M 128.90 163.81 L 128.94 164.81 C 128.99 166.04 130.03 166.98 131.25 166.93 C 132.47 166.88 133.42 165.85 133.37 164.62 L 133.33 163.62 C 133.27 162.39 132.24 161.45 131.02 161.50 C 129.80 161.55 128.85 162.58 128.90 163.81 Z M 128.94 164.80 L 128.98 165.79 C 129.02 167.01 130.05 167.96 131.27 167.92 C 132.49 167.87 133.45 166.85 133.40 165.63 L 133.37 164.64 C 133.32 163.42 132.30 162.46 131.08 162.51 C 129.85 162.55 128.90 163.58 128.94 164.80 Z M 128.98 165.77 L 129.01 166.81 C 129.05 168.03 130.06 168.99 131.28 168.96 C 132.50 168.92 133.46 167.90 133.43 166.68 L 133.40 165.64 C 133.36 164.42 132.35 163.46 131.13 163.50 C 129.91 163.53 128.95 164.55 128.98 165.77 Z M 129.02 166.80 L 129.04 167.78 C 129.07 169.00 130.08 169.97 131.30 169.94 C 132.52 169.91 133.48 168.90 133.45 167.68 L 133.43 166.69 C 133.40 165.48 132.39 164.51 131.17 164.54 C 129.95 164.57 128.99 165.58 129.02 166.80 Z M 129.04 167.78 L 129.07 168.76 C 129.10 169.98 130.10 170.94 131.32 170.91 C 132.54 170.88 133.50 169.87 133.47 168.66 L 133.45 167.68 C 133.42 166.46 132.41 165.50 131.19 165.53 C 129.98 165.56 129.01 166.57 129.04 167.78 Z M 129.07 168.76 L 129.10 169.78 C 129.13 170.99 130.13 171.95 131.35 171.92 C 132.56 171.89 133.52 170.88 133.49 169.67 L 133.46 168.65 C 133.43 167.44 132.43 166.48 131.21 166.51 C 130.00 166.54 129.04 167.55 129.07 168.76 Z M 129.10 169.77 L 129.12 170.75 C 129.15 171.96 130.15 172.92 131.36 172.90 C 132.57 172.87 133.53 171.87 133.51 170.66 L 133.49 169.68 C 133.46 168.47 132.46 167.51 131.25 167.53 C 130.04 167.56 129.08 168.56 129.10 169.77 Z M 129.13 170.73 L 129.14 171.76 C 129.15 172.96 130.14 173.93 131.35 173.92 C 132.56 173.91 133.53 172.91 133.51 171.71 L 133.50 170.68 C 133.49 169.47 132.50 168.50 131.29 168.52 C 130.08 168.53 129.11 169.52 129.13 170.73 Z M 129.14 171.74 L 129.14 172.72 C 129.15 173.93 130.13 174.91 131.33 174.90 C 132.54 174.90 133.52 173.92 133.51 172.71 L 133.51 171.72 C 133.51 170.52 132.53 169.54 131.32 169.55 C 130.11 169.55 129.14 170.53 129.14 171.74 Z M 129.15 172.72 L 129.15 173.73 C 129.15 174.93 130.12 175.91 131.33 175.91 C 132.53 175.91 133.51 174.93 133.51 173.73 L 133.51 172.72 C 133.51 171.51 132.53 170.54 131.33 170.54 C 130.12 170.54 129.15 171.51 129.15 172.72 Z M 129.15 173.73 L 129.15 174.72 C 129.15 175.92 130.12 176.90 131.33 176.90 C 132.53 176.90 133.51 175.92 133.51 174.72 L 133.51 173.73 C 133.51 172.53 132.53 171.55 131.33 171.55 C 130.12 171.55 129.15 172.53 129.15 173.73 Z M 129.15 174.72 L 129.15 175.72 C 129.15 176.92 130.13 177.89 131.33 177.89 C 132.53 177.89 133.50 176.92 133.50 175.72 L 133.50 174.72 C 133.50 173.52 132.53 172.54 131.33 172.54 C 130.13 172.54 129.15 173.52 129.15 174.72 Z M 129.16 175.72 L 129.16 176.70 C 129.16 177.89 130.13 178.86 131.33 178.86 C 132.53 178.86 133.50 177.89 133.50 176.70 L 133.50 175.72 C 133.50 174.52 132.53 173.55 131.33 173.55 C 130.13 173.55 129.16 174.52 129.16 175.72 Z M 129.17 176.69 L 129.17 177.69 C 129.17 178.88 130.13 179.84 131.32 179.85 C 132.51 179.85 133.48 178.89 133.48 177.70 L 133.48 176.70 C 133.49 175.51 132.52 174.55 131.33 174.54 C 130.14 174.54 129.18 175.50 129.17 176.69 Z M 129.19 177.65 L 129.16 178.81 C 129.14 179.99 130.07 180.97 131.25 180.99 C 132.43 181.02 133.41 180.08 133.44 178.90 L 133.46 177.74 C 133.49 176.56 132.55 175.58 131.37 175.56 C 130.19 175.53 129.21 176.47 129.19 177.65 Z M 129.22 178.55 L 129.17 178.90 C 129.00 180.05 129.80 181.11 130.95 181.28 C 132.10 181.45 133.16 180.65 133.33 179.50 L 133.38 179.16 C 133.55 178.01 132.75 176.94 131.60 176.77 C 130.45 176.61 129.39 177.40 129.22 178.55 Z M 133.26 179.13 L 133.23 178.16 C 133.19 177.05 132.26 176.18 131.15 176.22 C 130.04 176.26 129.17 177.19 129.21 178.29 L 129.24 179.27 C 129.28 180.37 130.21 181.24 131.32 181.21 C 132.43 181.17 133.30 180.24 133.26 179.13 Z M 133.13 178.19 L 133.11 177.46 C 133.09 176.40 132.21 175.57 131.16 175.59 C 130.11 175.62 129.27 176.49 129.29 177.54 L 129.31 178.27 C 129.33 179.33 130.21 180.16 131.26 180.14 C 132.31 180.11 133.15 179.24 133.13 178.19 Z"
      fill="black"
      fill-rule="nonzero" /><path d="M 145.53 133.79 L 146.40 133.67 C 147.49 133.53 148.25 132.53 148.11 131.44 C 147.96 130.35 146.96 129.59 145.87 129.73 L 145.00 129.85 C 143.91 129.99 143.15 130.99 143.29 132.08 C 143.44 133.17 144.44 133.93 145.53 133.79 Z M 146.44 133.74 L 147.40 133.59 C 148.52 133.43 149.30 132.38 149.13 131.26 C 148.97 130.14 147.92 129.36 146.80 129.53 L 145.84 129.67 C 144.71 129.83 143.94 130.88 144.10 132.00 C 144.27 133.13 145.31 133.90 146.44 133.74 Z M 147.46 133.65 L 148.58 133.46 C 149.73 133.26 150.51 132.17 150.31 131.02 C 150.12 129.86 149.02 129.08 147.87 129.28 L 146.75 129.47 C 145.59 129.67 144.82 130.76 145.01 131.91 C 145.21 133.07 146.30 133.85 147.46 133.65 Z M 148.62 133.48 L 149.60 133.30 C 150.76 133.08 151.53 131.96 151.31 130.79 C 151.09 129.62 149.97 128.86 148.80 129.07 L 147.83 129.26 C 146.66 129.48 145.89 130.60 146.11 131.77 C 146.33 132.93 147.45 133.70 148.62 133.48 Z M 149.61 133.29 L 150.65 133.09 C 151.81 132.86 152.57 131.73 152.34 130.57 C 152.11 129.41 150.98 128.65 149.82 128.88 L 148.79 129.08 C 147.62 129.31 146.86 130.44 147.09 131.60 C 147.32 132.76 148.45 133.52 149.61 133.29 Z M 150.66 133.09 L 151.67 132.88 C 152.83 132.65 153.58 131.52 153.34 130.35 C 153.11 129.19 151.98 128.44 150.82 128.68 L 149.81 128.88 C 148.65 129.12 147.90 130.25 148.13 131.41 C 148.37 132.57 149.50 133.32 150.66 133.09 Z M 151.67 132.88 L 152.60 132.69 C 153.76 132.45 154.51 131.32 154.27 130.16 C 154.03 129.00 152.90 128.25 151.74 128.49 L 150.81 128.68 C 149.65 128.92 148.91 130.05 149.14 131.21 C 149.38 132.37 150.51 133.12 151.67 132.88 Z M 152.60 132.67 L 153.75 132.43 C 154.90 132.19 155.64 131.07 155.40 129.92 C 155.16 128.77 154.04 128.03 152.89 128.27 L 151.74 128.51 C 150.59 128.75 149.86 129.87 150.09 131.02 C 150.33 132.17 151.45 132.91 152.60 132.67 Z M 153.75 132.40 L 154.61 132.22 C 155.75 131.98 156.47 130.88 156.24 129.75 C 156.00 128.61 154.90 127.89 153.76 128.12 L 152.89 128.30 C 151.76 128.54 151.04 129.65 151.27 130.78 C 151.51 131.91 152.61 132.63 153.75 132.40 Z M 154.61 132.19 L 155.51 132.01 C 156.63 131.78 157.34 130.69 157.11 129.57 C 156.88 128.45 155.79 127.73 154.67 127.96 L 153.77 128.15 C 152.66 128.38 151.94 129.47 152.17 130.59 C 152.40 131.70 153.49 132.42 154.61 132.19 Z M 155.50 131.99 L 156.48 131.79 C 157.59 131.56 158.30 130.48 158.08 129.37 C 157.85 128.27 156.77 127.55 155.66 127.78 L 154.68 127.98 C 153.57 128.21 152.86 129.29 153.09 130.40 C 153.31 131.50 154.39 132.22 155.50 131.99 Z M 156.48 131.78 L 157.47 131.57 C 158.57 131.35 159.27 130.27 159.05 129.17 C 158.82 128.07 157.75 127.36 156.65 127.59 L 155.66 127.79 C 154.56 128.02 153.85 129.09 154.08 130.19 C 154.31 131.29 155.38 132.00 156.48 131.78 Z M 157.46 131.56 L 158.44 131.36 C 159.53 131.14 160.24 130.07 160.02 128.98 C 159.80 127.89 158.73 127.18 157.63 127.40 L 156.66 127.60 C 155.56 127.82 154.86 128.89 155.08 129.98 C 155.30 131.08 156.37 131.78 157.46 131.56 Z M 158.42 131.36 L 159.40 131.17 C 160.49 130.96 161.21 129.90 161.00 128.81 C 160.79 127.72 159.73 127.01 158.64 127.22 L 157.66 127.41 C 156.56 127.62 155.85 128.67 156.06 129.76 C 156.27 130.85 157.33 131.57 158.42 131.36 Z M 159.39 131.16 L 160.36 130.98 C 161.45 130.78 162.17 129.73 161.97 128.64 C 161.77 127.56 160.72 126.84 159.63 127.04 L 158.66 127.22 C 157.57 127.42 156.85 128.47 157.05 129.56 C 157.25 130.65 158.30 131.36 159.39 131.16 Z M 160.36 130.97 L 161.31 130.80 C 162.40 130.59 163.11 129.55 162.91 128.47 C 162.71 127.38 161.67 126.67 160.58 126.87 L 159.63 127.05 C 158.55 127.25 157.83 128.29 158.04 129.38 C 158.24 130.46 159.28 131.17 160.36 130.97 Z M 161.30 130.79 L 162.32 130.60 C 163.40 130.41 164.11 129.37 163.91 128.29 C 163.72 127.21 162.68 126.50 161.60 126.70 L 160.59 126.88 C 159.51 127.08 158.80 128.11 158.99 129.19 C 159.19 130.27 160.22 130.98 161.30 130.79 Z M 162.30 130.60 L 163.28 130.43 C 164.36 130.24 165.08 129.22 164.89 128.14 C 164.70 127.06 163.68 126.34 162.60 126.53 L 161.62 126.70 C 160.55 126.88 159.82 127.91 160.01 128.99 C 160.20 130.06 161.22 130.79 162.30 130.60 Z M 163.26 130.43 L 164.26 130.27 C 165.34 130.10 166.07 129.08 165.89 128.00 C 165.72 126.92 164.70 126.19 163.62 126.36 L 162.62 126.53 C 161.54 126.70 160.81 127.72 160.99 128.80 C 161.16 129.88 162.18 130.61 163.26 130.43 Z M 164.22 130.32 L 165.45 130.15 C 166.55 129.99 167.32 128.97 167.16 127.86 C 167.01 126.75 165.98 125.98 164.88 126.14 L 163.65 126.31 C 162.55 126.47 161.78 127.49 161.93 128.60 C 162.09 129.71 163.12 130.48 164.22 130.32 Z M 164.60 130.18 L 164.90 130.27 C 166.02 130.58 167.19 129.92 167.50 128.79 C 167.81 127.66 167.15 126.50 166.02 126.19 L 165.72 126.10 C 164.60 125.79 163.43 126.45 163.12 127.58 C 162.81 128.71 163.47 129.87 164.60 130.18 Z M 164.34 126.34 L 163.39 126.90 C 162.35 127.52 162.01 128.86 162.62 129.91 C 163.24 130.95 164.59 131.29 165.63 130.67 L 166.58 130.11 C 167.62 129.49 167.96 128.15 167.35 127.11 C 166.73 126.07 165.38 125.72 164.34 126.34 Z M 162.94 127.21 L 162.26 127.89 C 161.39 128.76 161.39 130.17 162.26 131.04 C 163.13 131.90 164.54 131.91 165.41 131.04 L 166.08 130.36 C 166.95 129.49 166.95 128.09 166.08 127.22 C 165.22 126.35 163.81 126.35 162.94 127.21 Z M 162.06 128.11 L 161.43 128.94 C 160.68 129.91 160.86 131.32 161.84 132.07 C 162.82 132.82 164.22 132.63 164.97 131.65 L 165.61 130.82 C 166.36 129.84 166.17 128.44 165.19 127.69 C 164.21 126.94 162.81 127.13 162.06 128.11 Z M 161.36 129.02 L 160.78 129.85 C 160.08 130.87 160.33 132.26 161.35 132.96 C 162.36 133.67 163.76 133.41 164.46 132.40 L 165.04 131.57 C 165.74 130.55 165.49 129.16 164.47 128.46 C 163.46 127.75 162.06 128.01 161.36 129.02 Z M 160.74 129.91 L 160.18 130.78 C 159.51 131.82 159.80 133.20 160.84 133.88 C 161.88 134.55 163.26 134.25 163.94 133.21 L 164.50 132.34 C 165.17 131.31 164.88 129.92 163.84 129.25 C 162.80 128.57 161.42 128.87 160.74 129.91 Z M 160.14 130.84 L 159.61 131.72 C 158.97 132.78 159.32 134.16 160.38 134.79 C 161.44 135.43 162.82 135.09 163.45 134.03 L 163.98 133.15 C 164.62 132.09 164.27 130.71 163.21 130.07 C 162.15 129.44 160.77 129.78 160.14 130.84 Z M 159.57 131.79 L 159.10 132.65 C 158.50 133.73 158.89 135.09 159.98 135.69 C 161.06 136.29 162.42 135.90 163.02 134.81 L 163.49 133.96 C 164.09 132.87 163.70 131.51 162.61 130.91 C 161.53 130.31 160.17 130.71 159.57 131.79 Z M 159.07 132.69 L 158.61 133.58 C 158.04 134.68 158.46 136.04 159.56 136.61 C 160.66 137.18 162.02 136.75 162.59 135.65 L 163.05 134.76 C 163.62 133.66 163.19 132.31 162.09 131.74 C 160.99 131.17 159.64 131.59 159.07 132.69 Z M 158.59 133.61 L 158.13 134.53 C 157.57 135.64 158.02 136.98 159.13 137.54 C 160.23 138.10 161.58 137.65 162.14 136.55 L 162.60 135.63 C 163.16 134.52 162.71 133.17 161.61 132.61 C 160.50 132.06 159.15 132.50 158.59 133.61 Z M 158.12 134.55 L 157.68 135.45 C 157.14 136.56 157.60 137.91 158.71 138.45 C 159.83 138.99 161.17 138.53 161.71 137.42 L 162.15 136.52 C 162.69 135.41 162.23 134.06 161.12 133.52 C 160.00 132.98 158.66 133.44 158.12 134.55 Z M 157.66 135.49 L 157.22 136.43 C 156.70 137.56 157.19 138.89 158.32 139.41 C 159.44 139.94 160.78 139.45 161.30 138.32 L 161.74 137.38 C 162.26 136.25 161.77 134.92 160.64 134.39 C 159.52 133.87 158.18 134.36 157.66 135.49 Z M 157.20 136.47 L 156.81 137.34 C 156.31 138.48 156.83 139.81 157.97 140.31 C 159.10 140.81 160.43 140.30 160.94 139.16 L 161.32 138.28 C 161.82 137.15 161.31 135.82 160.17 135.31 C 159.03 134.81 157.70 135.33 157.20 136.47 Z M 156.81 137.33 L 156.42 138.20 C 155.91 139.34 156.42 140.68 157.56 141.18 C 158.70 141.69 160.04 141.18 160.55 140.04 L 160.94 139.17 C 161.45 138.03 160.94 136.70 159.80 136.19 C 158.66 135.68 157.32 136.19 156.81 137.33 Z M 156.42 138.18 L 156.00 139.11 C 155.49 140.25 155.99 141.59 157.13 142.11 C 158.27 142.62 159.61 142.12 160.13 140.98 L 160.55 140.06 C 161.06 138.92 160.56 137.58 159.42 137.06 C 158.28 136.54 156.94 137.05 156.42 138.18 Z M 155.99 139.11 L 155.59 140.02 C 155.08 141.16 155.59 142.51 156.73 143.02 C 157.88 143.53 159.22 143.02 159.73 141.88 L 160.14 140.97 C 160.65 139.83 160.14 138.49 159.00 137.97 C 157.85 137.46 156.51 137.97 155.99 139.11 Z M 155.57 140.03 L 155.17 140.96 C 154.66 142.11 155.18 143.45 156.34 143.96 C 157.49 144.47 158.83 143.94 159.34 142.79 L 159.75 141.86 C 160.25 140.71 159.73 139.37 158.58 138.86 C 157.43 138.35 156.08 138.88 155.57 140.03 Z M 155.15 140.97 L 154.77 141.86 C 154.27 143.02 154.80 144.37 155.96 144.87 C 157.12 145.37 158.47 144.84 158.97 143.68 L 159.35 142.78 C 159.85 141.62 159.32 140.27 158.16 139.77 C 157.00 139.27 155.65 139.81 155.15 140.97 Z M 154.76 141.86 L 154.36 142.78 C 153.86 143.94 154.40 145.29 155.56 145.80 C 156.72 146.30 158.07 145.76 158.58 144.60 L 158.97 143.68 C 159.48 142.52 158.94 141.17 157.78 140.66 C 156.61 140.16 155.26 140.70 154.76 141.86 Z M 154.37 142.76 L 153.96 143.69 C 153.44 144.85 153.97 146.21 155.13 146.72 C 156.29 147.24 157.65 146.71 158.16 145.55 L 158.57 144.62 C 159.09 143.46 158.56 142.10 157.40 141.58 C 156.24 141.07 154.88 141.60 154.37 142.76 Z M 153.96 143.67 L 153.55 144.59 C 153.03 145.75 153.54 147.11 154.70 147.63 C 155.86 148.15 157.23 147.64 157.75 146.48 L 158.16 145.56 C 158.68 144.40 158.17 143.04 157.01 142.52 C 155.85 142.00 154.48 142.51 153.96 143.67 Z M 153.55 144.58 L 153.13 145.50 C 152.61 146.66 153.12 148.03 154.28 148.55 C 155.44 149.08 156.81 148.56 157.33 147.40 L 157.75 146.48 C 158.27 145.32 157.76 143.96 156.60 143.43 C 155.44 142.91 154.07 143.42 153.55 144.58 Z M 153.13 145.51 L 152.71 146.43 C 152.19 147.59 152.71 148.96 153.87 149.48 C 155.04 150.00 156.40 149.48 156.92 148.32 L 157.34 147.40 C 157.86 146.23 157.34 144.87 156.18 144.35 C 155.01 143.83 153.65 144.35 153.13 145.51 Z M 152.71 146.43 L 152.31 147.34 C 151.79 148.51 152.31 149.87 153.47 150.39 C 154.64 150.91 156.00 150.39 156.52 149.22 L 156.92 148.32 C 157.44 147.15 156.92 145.79 155.76 145.27 C 154.60 144.75 153.23 145.27 152.71 146.43 Z M 152.31 147.34 L 151.90 148.24 C 151.38 149.40 151.90 150.77 153.06 151.29 C 154.22 151.81 155.59 151.30 156.11 150.13 L 156.52 149.23 C 157.04 148.07 156.52 146.70 155.36 146.18 C 154.20 145.66 152.83 146.17 152.31 147.34 Z M 151.91 148.23 L 151.49 149.14 C 150.96 150.29 151.47 151.66 152.63 152.19 C 153.79 152.72 155.16 152.21 155.69 151.05 L 156.10 150.15 C 156.63 148.99 156.12 147.62 154.96 147.09 C 153.81 146.56 152.44 147.07 151.91 148.23 Z M 151.50 149.12 L 151.08 150.03 C 150.54 151.19 151.04 152.56 152.19 153.10 C 153.35 153.63 154.72 153.13 155.26 151.98 L 155.68 151.07 C 156.22 149.91 155.72 148.54 154.56 148.00 C 153.41 147.47 152.04 147.97 151.50 149.12 Z M 151.08 150.02 L 150.65 150.92 C 150.11 152.07 150.60 153.45 151.75 153.99 C 152.90 154.54 154.27 154.05 154.82 152.90 L 155.25 152.00 C 155.80 150.85 155.31 149.47 154.16 148.92 C 153.01 148.38 151.63 148.87 151.08 150.02 Z M 150.66 150.91 L 150.22 151.81 C 149.67 152.95 150.15 154.33 151.29 154.89 C 152.44 155.44 153.82 154.96 154.37 153.82 L 154.81 152.92 C 155.37 151.77 154.89 150.39 153.74 149.84 C 152.60 149.28 151.22 149.76 150.66 150.91 Z M 150.23 151.79 L 149.79 152.69 C 149.23 153.83 149.69 155.21 150.84 155.78 C 151.98 156.34 153.36 155.87 153.92 154.73 L 154.37 153.83 C 154.93 152.69 154.46 151.31 153.32 150.74 C 152.18 150.18 150.80 150.65 150.23 151.79 Z M 149.80 152.68 L 149.35 153.57 C 148.78 154.71 149.24 156.10 150.38 156.67 C 151.51 157.24 152.90 156.77 153.47 155.64 L 153.92 154.74 C 154.49 153.60 154.03 152.22 152.89 151.65 C 151.75 151.08 150.37 151.54 149.80 152.68 Z M 149.35 153.57 L 148.90 154.46 C 148.33 155.60 148.79 156.98 149.92 157.55 C 151.06 158.12 152.45 157.67 153.02 156.53 L 153.47 155.64 C 154.04 154.50 153.58 153.12 152.44 152.55 C 151.31 151.97 149.92 152.43 149.35 153.57 Z M 148.90 154.46 L 148.46 155.35 C 147.89 156.48 148.35 157.87 149.48 158.44 C 150.62 159.01 152.00 158.55 152.57 157.41 L 153.02 156.53 C 153.59 155.39 153.13 154.01 151.99 153.44 C 150.86 152.87 149.47 153.33 148.90 154.46 Z M 148.46 155.35 L 148.01 156.24 C 147.44 157.37 147.90 158.75 149.04 159.32 C 150.17 159.89 151.55 159.44 152.12 158.30 L 152.57 157.41 C 153.14 156.27 152.68 154.89 151.55 154.32 C 150.41 153.75 149.03 154.21 148.46 155.35 Z M 148.02 156.23 L 147.56 157.14 C 146.98 158.27 147.44 159.66 148.57 160.23 C 149.70 160.80 151.09 160.35 151.66 159.22 L 152.12 158.31 C 152.69 157.17 152.24 155.79 151.11 155.22 C 149.97 154.64 148.59 155.10 148.02 156.23 Z M 147.56 157.13 L 147.10 158.05 C 146.52 159.18 146.97 160.56 148.10 161.14 C 149.23 161.71 150.61 161.26 151.19 160.13 L 151.66 159.22 C 152.23 158.09 151.78 156.71 150.65 156.13 C 149.52 155.55 148.14 156.00 147.56 157.13 Z M 147.09 158.06 L 146.65 158.94 C 146.07 160.07 146.53 161.46 147.66 162.03 C 148.80 162.60 150.18 162.14 150.75 161.01 L 151.20 160.12 C 151.77 158.99 151.31 157.61 150.18 157.04 C 149.05 156.47 147.66 156.92 147.09 158.06 Z M 146.63 158.97 L 146.18 159.90 C 145.63 161.04 146.10 162.41 147.24 162.97 C 148.38 163.52 149.76 163.05 150.31 161.91 L 150.76 160.98 C 151.32 159.84 150.84 158.46 149.70 157.91 C 148.56 157.35 147.19 157.83 146.63 158.97 Z M 146.17 159.93 L 145.75 160.82 C 145.21 161.97 145.71 163.34 146.86 163.87 C 148.01 164.41 149.38 163.91 149.91 162.76 L 150.33 161.87 C 150.87 160.72 150.37 159.36 149.22 158.82 C 148.07 158.28 146.70 158.78 146.17 159.93 Z M 145.75 160.83 L 145.34 161.73 C 144.81 162.88 145.31 164.24 146.46 164.77 C 147.61 165.30 148.97 164.80 149.50 163.65 L 149.92 162.75 C 150.44 161.60 149.94 160.24 148.79 159.71 C 147.64 159.18 146.28 159.68 145.75 160.83 Z M 145.34 161.75 L 144.93 162.66 C 144.41 163.81 144.92 165.16 146.07 165.68 C 147.22 166.20 148.57 165.68 149.09 164.54 L 149.50 163.63 C 150.02 162.48 149.51 161.13 148.36 160.61 C 147.21 160.09 145.86 160.60 145.34 161.75 Z M 144.92 162.72 L 144.55 163.59 C 144.07 164.75 144.61 166.07 145.76 166.56 C 146.91 167.05 148.24 166.51 148.73 165.35 L 149.10 164.48 C 149.58 163.33 149.04 162.00 147.89 161.51 C 146.74 161.02 145.41 161.56 144.92 162.72 Z M 144.54 163.68 L 144.18 164.63 C 143.74 165.79 144.33 167.09 145.49 167.52 C 146.65 167.96 147.95 167.38 148.39 166.21 L 148.74 165.27 C 149.18 164.11 148.60 162.81 147.43 162.37 C 146.27 161.93 144.97 162.52 144.54 163.68 Z M 144.17 164.70 L 143.85 165.62 C 143.46 166.79 144.08 168.06 145.25 168.46 C 146.41 168.86 147.68 168.23 148.08 167.07 L 148.40 166.14 C 148.79 164.97 148.17 163.71 147.00 163.31 C 145.84 162.91 144.57 163.53 144.17 164.70 Z M 143.84 165.70 L 143.54 166.68 C 143.19 167.85 143.85 169.09 145.02 169.45 C 146.19 169.81 147.43 169.15 147.79 167.97 L 148.09 166.99 C 148.45 165.82 147.79 164.58 146.62 164.22 C 145.44 163.86 144.20 164.52 143.84 165.70 Z M 143.53 166.80 L 143.26 167.91 C 142.97 169.09 143.68 170.28 144.86 170.57 C 146.04 170.86 147.24 170.15 147.53 168.97 L 147.80 167.86 C 148.10 166.68 147.38 165.48 146.20 165.19 C 145.02 164.90 143.83 165.62 143.53 166.80 Z M 143.24 168.28 L 143.16 169.27 C 143.07 170.46 143.97 171.49 145.16 171.58 C 146.35 171.67 147.39 170.78 147.48 169.59 L 147.55 168.60 C 147.64 167.41 146.74 166.37 145.55 166.28 C 144.36 166.19 143.32 167.09 143.24 168.28 Z M 144.20 171.16 L 144.74 171.50 C 145.69 172.12 146.97 171.85 147.59 170.89 C 148.21 169.93 147.93 168.65 146.97 168.04 L 146.44 167.69 C 145.48 167.07 144.20 167.35 143.59 168.31 C 142.97 169.26 143.24 170.54 144.20 171.16 Z M 146.39 171.59 L 147.25 171.34 C 148.25 171.04 148.83 169.98 148.53 168.98 C 148.23 167.97 147.17 167.39 146.16 167.69 L 145.31 167.94 C 144.30 168.24 143.73 169.30 144.03 170.31 C 144.33 171.32 145.39 171.89 146.39 171.59 Z"
      fill="black"
      fill-rule="nonzero" /><path d="M 159.94 151.29 L 160.89 150.87 C 161.89 150.42 162.33 149.25 161.88 148.25 C 161.44 147.25 160.26 146.80 159.27 147.25 L 158.32 147.68 C 157.32 148.12 156.87 149.30 157.32 150.30 C 157.77 151.30 158.94 151.74 159.94 151.29 Z M 158.85 150.81 L 159.42 151.20 C 160.39 151.88 161.72 151.65 162.39 150.68 C 163.07 149.72 162.83 148.39 161.87 147.71 L 161.30 147.31 C 160.34 146.64 159.01 146.87 158.33 147.84 C 157.65 148.80 157.89 150.13 158.85 150.81 Z M 158.53 150.11 L 158.84 151.10 C 159.19 152.27 160.43 152.92 161.60 152.56 C 162.77 152.20 163.42 150.97 163.06 149.80 L 162.76 148.81 C 162.40 147.64 161.16 146.99 159.99 147.35 C 158.83 147.70 158.17 148.94 158.53 150.11 Z M 158.72 150.77 L 158.88 151.90 C 159.06 153.13 160.20 153.98 161.43 153.81 C 162.66 153.63 163.52 152.49 163.34 151.26 L 163.18 150.13 C 163.00 148.90 161.86 148.04 160.63 148.22 C 159.40 148.40 158.54 149.54 158.72 150.77 Z M 158.85 151.78 L 158.94 152.82 C 159.05 154.07 160.15 155.00 161.40 154.89 C 162.65 154.78 163.58 153.67 163.47 152.42 L 163.38 151.38 C 163.27 150.13 162.16 149.21 160.91 149.32 C 159.66 149.43 158.74 150.53 158.85 151.78 Z M 158.92 152.76 L 158.98 153.76 C 159.06 155.02 160.15 155.98 161.41 155.90 C 162.67 155.82 163.63 154.74 163.55 153.47 L 163.49 152.48 C 163.41 151.22 162.32 150.26 161.06 150.34 C 159.80 150.42 158.84 151.50 158.92 152.76 Z M 158.97 153.73 L 159.02 154.80 C 159.08 156.06 160.16 157.04 161.43 156.98 C 162.70 156.92 163.67 155.84 163.61 154.57 L 163.56 153.50 C 163.50 152.24 162.42 151.26 161.15 151.32 C 159.89 151.38 158.91 152.46 158.97 153.73 Z M 159.01 154.76 L 159.05 155.69 C 159.09 156.96 160.15 157.96 161.42 157.91 C 162.70 157.87 163.69 156.81 163.65 155.53 L 163.62 154.61 C 163.58 153.34 162.51 152.34 161.24 152.38 C 159.97 152.42 158.97 153.49 159.01 154.76 Z M 159.04 155.64 L 159.05 156.58 C 159.07 157.86 160.12 158.88 161.39 158.86 C 162.66 158.84 163.68 157.80 163.67 156.53 L 163.65 155.58 C 163.64 154.31 162.59 153.29 161.32 153.31 C 160.04 153.32 159.03 154.37 159.04 155.64 Z M 159.05 156.56 L 159.05 157.57 C 159.05 158.85 160.09 159.88 161.37 159.88 C 162.64 159.88 163.67 158.84 163.67 157.57 L 163.67 156.55 C 163.67 155.28 162.63 154.24 161.36 154.25 C 160.08 154.25 159.05 155.28 159.05 156.56 Z M 159.05 157.57 L 159.05 158.56 C 159.05 159.83 160.09 160.87 161.36 160.87 C 162.64 160.87 163.67 159.83 163.67 158.56 L 163.67 157.57 C 163.67 156.29 162.64 155.26 161.36 155.26 C 160.09 155.26 159.05 156.29 159.05 157.57 Z M 159.05 158.56 L 159.05 159.56 C 159.05 160.84 160.09 161.87 161.36 161.87 C 162.64 161.87 163.67 160.84 163.67 159.56 L 163.67 158.56 C 163.67 157.28 162.64 156.25 161.36 156.25 C 160.09 156.25 159.05 157.28 159.05 158.56 Z M 159.05 159.56 L 159.05 160.55 C 159.05 161.83 160.09 162.86 161.36 162.86 C 162.64 162.86 163.67 161.83 163.67 160.55 L 163.67 159.56 C 163.67 158.29 162.64 157.25 161.36 157.25 C 160.09 157.25 159.05 158.29 159.05 159.56 Z M 159.06 160.55 L 159.06 161.56 C 159.06 162.83 160.09 163.87 161.36 163.87 C 162.63 163.87 163.67 162.83 163.67 161.56 L 163.67 160.55 C 163.67 159.28 162.63 158.25 161.36 158.25 C 160.09 158.25 159.06 159.28 159.06 160.55 Z M 159.06 161.56 L 159.06 162.56 C 159.06 163.82 160.09 164.85 161.36 164.85 C 162.63 164.85 163.66 163.82 163.66 162.56 L 163.66 161.56 C 163.66 160.29 162.63 159.26 161.36 159.26 C 160.09 159.26 159.06 160.29 159.06 161.56 Z M 159.07 162.56 L 159.07 163.57 C 159.07 164.83 160.10 165.85 161.36 165.85 C 162.62 165.85 163.65 164.83 163.65 163.57 L 163.65 162.56 C 163.65 161.29 162.62 160.27 161.36 160.27 C 160.10 160.27 159.07 161.29 159.07 162.56 Z M 159.09 163.57 L 159.09 164.56 C 159.09 165.82 160.11 166.83 161.36 166.83 C 162.62 166.83 163.63 165.82 163.63 164.56 L 163.63 163.57 C 163.63 162.31 162.62 161.30 161.36 161.30 C 160.11 161.30 159.09 162.31 159.09 163.57 Z M 159.11 164.56 L 159.11 165.57 C 159.11 166.81 160.12 167.82 161.36 167.82 C 162.60 167.82 163.61 166.81 163.61 165.57 L 163.61 164.56 C 163.61 163.32 162.60 162.31 161.36 162.31 C 160.12 162.31 159.11 163.32 159.11 164.56 Z M 159.13 165.57 L 159.13 166.55 C 159.13 167.79 160.13 168.79 161.36 168.79 C 162.59 168.79 163.59 167.79 163.59 166.55 L 163.59 165.57 C 163.59 164.34 162.59 163.34 161.36 163.34 C 160.13 163.34 159.13 164.34 159.13 165.57 Z M 159.15 166.55 L 159.15 167.56 C 159.15 168.79 160.14 169.78 161.36 169.78 C 162.58 169.78 163.57 168.79 163.57 167.56 L 163.57 166.55 C 163.57 165.33 162.58 164.34 161.36 164.34 C 160.14 164.34 159.15 165.33 159.15 166.55 Z M 159.17 167.56 L 159.17 168.58 C 159.17 169.79 160.15 170.77 161.36 170.77 C 162.57 170.77 163.55 169.79 163.55 168.58 L 163.55 167.57 C 163.55 166.36 162.57 165.37 161.36 165.37 C 160.15 165.37 159.17 166.35 159.17 167.56 Z M 159.19 168.57 L 159.19 169.58 C 159.18 170.78 160.15 171.75 161.35 171.76 C 162.55 171.76 163.52 170.79 163.53 169.59 L 163.53 168.59 C 163.54 167.39 162.57 166.41 161.37 166.41 C 160.17 166.40 159.19 167.37 159.19 168.57 Z M 159.20 169.56 L 159.19 170.57 C 159.18 171.76 160.13 172.74 161.32 172.75 C 162.51 172.76 163.48 171.81 163.50 170.62 L 163.51 169.61 C 163.52 168.42 162.57 167.45 161.38 167.43 C 160.19 167.42 159.22 168.37 159.20 169.56 Z M 159.21 170.55 L 159.19 171.55 C 159.16 172.73 160.09 173.71 161.27 173.73 C 162.45 173.76 163.43 172.83 163.46 171.65 L 163.48 170.65 C 163.51 169.47 162.57 168.49 161.39 168.46 C 160.22 168.44 159.24 169.37 159.21 170.55 Z M 159.21 171.53 L 159.18 172.48 C 159.14 173.64 160.06 174.62 161.23 174.66 C 162.40 174.70 163.37 173.78 163.41 172.61 L 163.44 171.67 C 163.48 170.50 162.56 169.52 161.39 169.48 C 160.22 169.45 159.24 170.36 159.21 171.53 Z M 159.19 172.46 L 159.16 173.42 C 159.11 174.58 160.02 175.56 161.18 175.60 C 162.34 175.65 163.31 174.74 163.36 173.58 L 163.39 172.62 C 163.44 171.46 162.53 170.48 161.37 170.44 C 160.21 170.40 159.23 171.30 159.19 172.46 Z M 159.17 173.42 L 159.13 174.46 C 159.09 175.61 159.98 176.58 161.13 176.63 C 162.28 176.67 163.25 175.78 163.30 174.62 L 163.34 173.58 C 163.39 172.43 162.49 171.46 161.34 171.42 C 160.19 171.37 159.22 172.27 159.17 173.42 Z M 159.15 174.45 L 159.10 175.43 C 159.05 176.58 159.94 177.54 161.08 177.59 C 162.23 177.64 163.19 176.76 163.24 175.61 L 163.29 174.63 C 163.34 173.49 162.45 172.52 161.31 172.47 C 160.16 172.42 159.19 173.31 159.15 174.45 Z M 159.12 175.41 L 159.06 176.45 C 159.00 177.58 159.87 178.55 161.01 178.61 C 162.14 178.67 163.11 177.80 163.17 176.66 L 163.23 175.63 C 163.29 174.50 162.42 173.53 161.28 173.47 C 160.15 173.41 159.18 174.28 159.12 175.41 Z M 159.09 176.41 L 159.00 177.61 C 158.91 178.73 159.76 179.71 160.88 179.79 C 162.00 179.87 162.98 179.03 163.06 177.91 L 163.15 176.71 C 163.23 175.58 162.39 174.61 161.27 174.52 C 160.15 174.44 159.17 175.28 159.09 176.41 Z M 159.04 177.49 L 158.91 178.51 C 158.76 179.61 159.52 180.62 160.62 180.76 C 161.72 180.91 162.73 180.15 162.88 179.05 L 163.01 178.03 C 163.16 176.93 162.40 175.92 161.30 175.77 C 160.20 175.62 159.19 176.39 159.04 177.49 Z M 160.92 176.84 L 160.69 176.84 C 159.62 176.82 158.73 177.67 158.72 178.74 C 158.70 179.81 159.55 180.70 160.62 180.71 L 160.86 180.72 C 161.93 180.73 162.81 179.88 162.83 178.81 C 162.85 177.74 161.99 176.86 160.92 176.84 Z M 162.44 178.31 L 162.23 177.50 C 161.98 176.51 160.97 175.92 159.98 176.17 C 158.99 176.43 158.40 177.44 158.65 178.43 L 158.86 179.24 C 159.12 180.23 160.13 180.82 161.12 180.57 C 162.11 180.31 162.70 179.30 162.44 178.31 Z"
      fill="black"
      fill-rule="nonzero" /><path d="M 160.83 153.19 L 161.32 154.06 C 161.91 155.09 163.23 155.45 164.26 154.86 C 165.29 154.26 165.65 152.95 165.05 151.92 L 164.56 151.06 C 163.97 150.03 162.66 149.67 161.62 150.26 C 160.59 150.85 160.24 152.16 160.83 153.19 Z M 161.57 154.59 L 162.26 155.28 C 163.14 156.18 164.58 156.19 165.48 155.30 C 166.37 154.42 166.38 152.98 165.49 152.08 L 164.81 151.39 C 163.92 150.49 162.48 150.49 161.59 151.37 C 160.69 152.25 160.69 153.70 161.57 154.59 Z M 162.85 155.80 L 163.71 156.22 C 164.88 156.79 166.29 156.29 166.85 155.12 C 167.42 153.95 166.93 152.54 165.76 151.97 L 164.90 151.56 C 163.73 150.99 162.32 151.49 161.75 152.66 C 161.19 153.83 161.68 155.24 162.85 155.80 Z M 164.07 156.40 L 165.08 156.69 C 166.36 157.06 167.69 156.33 168.05 155.06 C 168.42 153.78 167.69 152.46 166.42 152.09 L 165.40 151.79 C 164.12 151.43 162.80 152.16 162.43 153.43 C 162.06 154.70 162.79 156.03 164.07 156.40 Z M 165.22 156.75 L 166.23 156.98 C 167.54 157.27 168.83 156.45 169.12 155.14 C 169.41 153.84 168.59 152.55 167.29 152.26 L 166.28 152.03 C 164.97 151.74 163.68 152.56 163.39 153.86 C 163.10 155.17 163.92 156.46 165.22 156.75 Z M 166.29 156.99 L 167.26 157.19 C 168.57 157.45 169.85 156.59 170.11 155.28 C 170.37 153.97 169.52 152.69 168.21 152.43 L 167.23 152.24 C 165.92 151.98 164.64 152.83 164.38 154.15 C 164.12 155.46 164.98 156.73 166.29 156.99 Z M 167.27 157.19 L 168.28 157.38 C 169.59 157.63 170.86 156.78 171.11 155.47 C 171.37 154.15 170.51 152.88 169.20 152.63 L 168.19 152.44 C 166.88 152.18 165.61 153.04 165.36 154.35 C 165.10 155.66 165.96 156.93 167.27 157.19 Z M 168.27 157.37 L 169.21 157.55 C 170.51 157.81 171.78 156.96 172.04 155.66 C 172.30 154.36 171.45 153.09 170.15 152.83 L 169.21 152.65 C 167.91 152.39 166.64 153.23 166.38 154.54 C 166.12 155.84 166.97 157.11 168.27 157.37 Z M 169.21 157.53 L 170.17 157.72 C 171.46 157.99 172.72 157.15 172.98 155.86 C 173.24 154.57 172.41 153.31 171.12 153.05 L 170.15 152.85 C 168.86 152.59 167.60 153.43 167.34 154.72 C 167.08 156.01 167.92 157.27 169.21 157.53 Z M 170.16 157.70 L 171.14 157.90 C 172.42 158.17 173.67 157.35 173.94 156.07 C 174.20 154.80 173.38 153.55 172.11 153.28 L 171.12 153.08 C 169.85 152.81 168.60 153.63 168.33 154.91 C 168.06 156.18 168.88 157.43 170.16 157.70 Z M 171.13 157.87 L 172.10 158.09 C 173.36 158.36 174.60 157.56 174.88 156.30 C 175.15 155.04 174.36 153.80 173.10 153.52 L 172.12 153.31 C 170.86 153.04 169.62 153.84 169.35 155.09 C 169.07 156.35 169.87 157.60 171.13 157.87 Z M 172.07 158.05 L 173.05 158.28 C 174.29 158.57 175.53 157.80 175.82 156.56 C 176.12 155.32 175.35 154.08 174.11 153.79 L 173.13 153.56 C 171.89 153.27 170.65 154.04 170.35 155.28 C 170.06 156.52 170.83 157.76 172.07 158.05 Z M 173.01 158.24 L 173.98 158.49 C 175.20 158.80 176.44 158.07 176.75 156.85 C 177.06 155.63 176.33 154.39 175.11 154.08 L 174.15 153.83 C 172.93 153.52 171.69 154.25 171.38 155.47 C 171.06 156.69 171.80 157.92 173.01 158.24 Z M 173.95 158.44 L 174.92 158.71 C 176.11 159.04 177.35 158.34 177.68 157.15 C 178.01 155.96 177.31 154.73 176.12 154.40 L 175.15 154.13 C 173.95 153.80 172.72 154.49 172.39 155.69 C 172.06 156.88 172.76 158.11 173.95 158.44 Z M 174.89 158.67 L 175.85 158.95 C 177.02 159.30 178.25 158.63 178.59 157.46 C 178.94 156.30 178.27 155.07 177.10 154.72 L 176.14 154.44 C 174.98 154.09 173.75 154.76 173.41 155.93 C 173.06 157.09 173.73 158.32 174.89 158.67 Z M 175.83 158.90 L 176.78 159.20 C 177.92 159.56 179.13 158.93 179.49 157.79 C 179.86 156.65 179.22 155.43 178.08 155.07 L 177.13 154.77 C 175.99 154.41 174.77 155.04 174.41 156.19 C 174.05 157.33 174.68 158.54 175.83 158.90 Z M 176.75 159.16 L 177.70 159.47 C 178.81 159.85 180.02 159.24 180.39 158.13 C 180.76 157.01 180.16 155.81 179.05 155.43 L 178.10 155.12 C 176.99 154.75 175.78 155.35 175.41 156.46 C 175.04 157.58 175.64 158.78 176.75 159.16 Z M 177.68 159.42 L 178.57 159.74 C 179.66 160.12 180.85 159.55 181.24 158.46 C 181.62 157.37 181.05 156.18 179.96 155.80 L 179.06 155.48 C 177.98 155.10 176.78 155.67 176.40 156.76 C 176.02 157.85 176.59 159.04 177.68 159.42 Z M 178.52 159.68 L 179.51 160.06 C 180.56 160.47 181.75 159.94 182.16 158.89 C 182.56 157.83 182.04 156.65 180.99 156.24 L 180.01 155.86 C 178.95 155.45 177.76 155.97 177.36 157.03 C 176.95 158.08 177.47 159.27 178.52 159.68 Z M 179.44 160.00 L 180.36 160.40 C 181.38 160.84 182.57 160.37 183.02 159.35 C 183.46 158.32 182.99 157.14 181.97 156.69 L 181.05 156.30 C 180.03 155.85 178.84 156.32 178.39 157.35 C 177.95 158.37 178.42 159.56 179.44 160.00 Z M 180.30 160.34 L 181.21 160.78 C 182.20 161.26 183.40 160.84 183.88 159.85 C 184.35 158.86 183.94 157.66 182.94 157.18 L 182.03 156.75 C 181.04 156.27 179.84 156.68 179.36 157.68 C 178.89 158.67 179.30 159.87 180.30 160.34 Z M 181.11 160.70 L 182.02 161.21 C 182.97 161.74 184.17 161.40 184.70 160.46 C 185.23 159.51 184.90 158.31 183.95 157.78 L 183.04 157.27 C 182.09 156.74 180.89 157.07 180.36 158.02 C 179.83 158.97 180.16 160.17 181.11 160.70 Z M 181.88 161.07 L 182.66 161.62 C 183.53 162.23 184.73 162.02 185.35 161.15 C 185.96 160.28 185.75 159.08 184.88 158.47 L 184.09 157.92 C 183.22 157.31 182.02 157.52 181.41 158.39 C 180.80 159.26 181.01 160.46 181.88 161.07 Z M 182.51 161.45 L 183.25 162.11 C 184.02 162.80 185.21 162.74 185.91 161.96 C 186.60 161.19 186.54 160.00 185.76 159.31 L 185.03 158.64 C 184.25 157.95 183.06 158.01 182.37 158.79 C 181.67 159.56 181.74 160.75 182.51 161.45 Z M 183.18 161.99 L 183.80 162.63 C 184.51 163.36 185.68 163.38 186.41 162.67 C 187.14 161.96 187.16 160.79 186.45 160.06 L 185.83 159.42 C 185.12 158.69 183.95 158.67 183.22 159.38 C 182.49 160.09 182.47 161.26 183.18 161.99 Z"
      fill="black"
      fill-rule="nonzero" /></svg>