<svg xmlns="http://www.w3.org/2000/svg" width="300" height="300" viewBox="0 0 300 300">
<path d="M 128.1574249369677 115.55319783970627 L 127.15939814482476 117.46258808482308 L 126.60654563316123 119.13842563135219 L 125.83662970890543 121.19702836151608 L 124.86149102516994 123.69111500876915 L 123.68936342254062 126.72660862913382 L 122.29504420930111 130.25288479257884 L 120.80971838602558 133.71771191039056 L 119.22005448929566 137.33467881272654 L 117.62179120842514 140.79736963852113 L 116.01239568410283 144.00673382687043 L 114.61586508426035 146.76070764261266 L 113.22457868250267 149.37712503716526 L 112.49400247699691 150.67792837137202 L 111.11099086913674 152.15196871394016 L 113.77060092773826 154.71350980168484 L 115.44850240581559 153.00944955831548 L 116.55447405187233 151.28229879095974 L 118.08005776730215 148.61856481832484 L 119.56438654245967 145.84214312625457 L 121.26797929938736 142.59520848647887 L 122.98270429976684 139.07608778883596 L 124.67001794209942 135.43597461304694 L 126.24560520476139 131.91899020742116 L 127.73214536652188 128.33833277711616 L 128.93672674826757 125.29289378029335 L 129.94217888484457 122.78209761504642 L 130.75673561683877 120.61157436864781 L 131.28420537080024 119.00921367298942 L 131.8706512349073 117.08986856654373 Z" fill="black" />
<path d="M 123.60769572101414 138.84580445755844 L 124.86733204060526 138.2108981176733 L 124.48382449272063 138.22199888003624 L 124.65602361467505 139.35296809093725 L 125.22726341834098 142.35313062272385 L 125.46928069091983 144.36105195710653 L 125.78184571207407 146.95461799047663 L 126.04259845761439 149.65932524946032 L 126.23773612726082 152.84496409597045 L 126.43668828628626 156.2668311746729 L 126.6373018967618 159.81761452723958 L 126.83902343631371 163.38095139780577 L 127.04379279501849 167.06158259098385 L 127.1834282531357 169.82855569610606 L 127.348529278787 172.34631438921448 L 127.50164064161324 174.47575402448274 L 127.66452584210201 176.23733068655832 L 127.96923062436754 179.0084476836456 L 132.34994263871178 180.60513120706952 L 132.10738384723663 177.881591796875 L 132.06568562984467 176.3050537109375 L 128.46654093265533 176.3050537109375 L 128.42484271526337 177.881591796875 L 128.18228392378822 180.03781312886798 L 132.31092074281997 178.6065425507294 L 132.07546439227298 175.84726404000418 L 131.98627439744925 174.18049597551726 L 131.887310564963 172.08080963422302 L 131.7643256531143 169.59368551483144 L 131.65188591591902 166.83026311214115 L 131.4605371105613 163.12869215688173 L 131.2661404860507 159.56007101963542 L 131.07063593246374 156.0039207784521 L 130.8734699274267 152.56909840402955 L 130.6724894330106 149.29843842241468 L 130.39308104573843 146.44772575952337 L 130.05745270751765 143.78616483976847 L 129.75930884728402 141.56496019758865 L 129.03416193219994 138.23394597156275 L 127.87396359321687 135.41105776058876 L 124.46555370158224 134.1208889917017 L 121.87204060711086 135.46291136275406 Z" fill="black" />
<path d="M 149.70211379966452 105.78640276639842 L 148.14058762117438 108.149559003067 L 147.32897496606364 109.64346940543547 L 146.2332790517345 111.52197635052516 L 144.8472535419125 113.93282569508655 L 143.49519953615203 116.44306161193813 L 142.0236379601783 119.00811388346366 L 140.48683705485288 121.68056583001461 L 139.0997333150505 124.21955913152743 L 137.77668390090187 126.53932212474297 L 136.50949255537827 128.74276149627372 L 135.72053189665948 130.12623388126886 L 134.7438266777344 131.52771554459665 L 138.0680629707031 133.67211355696585 L 138.96391634552802 132.17076318904364 L 139.86746056962173 130.80155002716378 L 141.26506414597313 128.65074135181953 L 142.714841880262 126.34098774347257 L 144.20859751545962 123.87509823248539 L 145.8407419226342 121.29242322591134 L 147.43009343259797 118.70244620056187 L 148.850866575275 116.20779930491345 L 150.2376682138905 113.86400997759984 L 151.37463831518636 111.93880598518953 L 152.29154128507562 110.2546158016205 L 153.21475631752298 107.48776715547658 Z" fill="black" />
<path d="M 155.47553424834837 112.66214500093109 L 157.43938455309336 113.20034958409947 L 159.16126229330987 113.46863386202722 L 162.81375118261178 114.19891958521386 L 167.14874516152517 114.80238479418865 L 168.86596283556923 114.8556374944766 L 172.7146762965436 115.10008577626891 L 174.35664758548896 115.20696353728228 L 174.90604772701104 111.63043880646772 L 173.1269985081439 111.21180387216859 L 169.30542388318077 110.8056173883359 L 167.85369624472483 110.33335739331135 L 163.61813358301322 109.61052865697364 L 159.99645255044013 108.88939836453528 L 158.15326681409414 108.63216994715053 L 156.15593547821413 108.51973976469391 Z" fill="black" />
<path d="M 157.68779570679553 122.28477819099093 L 156.17959677557442 124.08009893124418 L 155.4709285345673 125.4401547008325 L 154.51195701099553 127.03212116667869 L 153.32116220506097 129.0049743011037 L 151.94282919836087 131.2856158341469 L 150.26170046390118 134.02537816761597 L 148.50518550515355 136.73783862061987 L 146.687904771132 139.6481585437934 L 144.79096325119446 142.54372279880286 L 142.912915482106 145.44406323205638 L 141.1768428316461 148.07367855053624 L 139.62475672051278 150.35498013891421 L 138.2239303785382 152.63115680870993 L 137.40888498630713 153.83861880514405 L 137.99041748046875 154.44134998321533 L 140.55205980914442 156.16755663457852 L 137.30133374554308 153.97612012323398 L 137.99041748046875 158.48003673553467 L 140.69658376369287 156.30505795266845 L 141.7180862230243 155.01007854285257 L 143.23412999823722 152.80688509546079 L 144.8509891996039 150.60881656665126 L 146.6799800257065 147.95828051794362 L 148.61907092849304 145.07798130275964 L 150.575278822618 142.1678814952691 L 152.43109379172145 139.27253735594263 L 154.23964230953632 136.57972437144653 L 156.01554482507663 133.7890911971031 L 157.41003896681403 131.4652405426463 L 158.59595314525447 129.48423625519632 L 159.6175724419952 127.7729800647925 L 160.34933388848808 126.35532587344332 L 161.07380097289197 124.19678919182157 Z" fill="black" />
<path d="M 156.23793190471727 134.7461831580492 L 158.54834014033312 134.23655042549174 L 160.74602720079434 133.9023927850541 L 162.729439162584 133.65852918073156 L 165.22564661514363 133.45135117947297 L 169.7161778285757 133.1037393487791 L 172.62944566618586 132.60205543545598 L 175.00302628692504 132.27478070329218 L 177.44958251683403 132.11419844392768 L 177.35876709254097 128.48113847013482 L 174.79983015838746 128.44567828108282 L 172.27594984162664 128.51879417391902 L 169.3914881870493 128.5426229559084 L 164.91534459579387 128.72052382052703 L 162.262015915541 128.91373644426844 L 159.99616029920566 129.1953855352584 L 157.33239716435438 129.78713121513326 L 154.88938743122023 130.9791586388258 Z" fill="black" />
<path d="M 156.75760811613873 152.71303184552502 L 157.70177628918668 157.03307437357236 L 158.17510891048389 160.0001802852276 L 158.35731372765966 161.79766356160215 L 158.494502021517 163.6875406864293 L 158.54682579766614 165.76207060759646 L 158.61814055597233 167.77465020811738 L 158.61777210235596 169.6485595703125 L 158.62472569864147 171.4711072641388 L 158.44011994812286 174.99722068106362 L 162.77815850588175 173.53749171000047 L 163.6958395294225 170.91218980147437 L 164.27049538230372 169.46057959016386 L 165.07394375755692 167.95245162776345 L 166.00027307997863 166.4300706270046 L 167.1169876826508 164.90995443400885 L 168.30932670490003 163.4899701900293 L 169.62034657086267 162.01183403724045 L 170.6463060865886 161.0365228753722 L 172.83482854055148 159.52259445601368 L 174.48028565519334 159.0390356840889 L 174.22241645832108 158.54326626652494 L 174.13730737711825 159.18669099328133 L 174.0104975546391 162.16256168196185 L 173.02633283073055 164.38458796507567 L 172.39570559747867 165.56886427892394 L 171.60884266493085 166.86787121224168 L 170.5800527708511 168.31415957260734 L 169.6303433756899 169.5002319333868 L 168.537261814476 170.6516876108208 L 167.31908431050442 171.86416650858172 L 166.16033376728245 172.99089346272575 L 164.99103165011323 173.98364475986259 L 163.81981090991243 174.988787605632 L 162.08596203170652 176.052246423927 L 161.94592725644145 176.92943125093612 L 162.63951273115148 177.1467679015826 L 163.12527794331226 176.1006521964551 L 159.88558631450024 174.5325265144824 L 159.03895406572352 176.2390963562299 L 159.33642137637105 180.56043691312638 L 163.80576160110598 180.361571935448 L 166.42921252758757 178.922589347493 L 168.03081893582427 177.70055934169991 L 169.38226877178005 176.59125985758675 L 170.70825943949558 175.34066747579328 L 172.010833888649 174.0507049673042 L 173.2944613118101 172.6997192384882 L 174.4693857057114 171.23320370864266 L 175.67326182725665 169.52641589713332 L 176.61491451970883 167.92259079920106 L 177.42471697395695 166.32915715211183 L 178.6732182656734 163.02078792741315 L 178.69045141194425 158.61445646765617 L 177.02086967449142 155.17890170222506 L 173.59405516511916 154.8082543549736 L 170.88221247507352 155.77611159867382 L 168.0652417649739 157.6905279058778 L 166.57044932757483 159.09253607994705 L 165.10864204509997 160.7674760990332 L 163.8162398564117 162.37544595661615 L 162.55624547470887 164.1585524198704 L 161.50198397681808 165.93939407536155 L 160.57691672707128 167.70946435514864 L 159.819175119015 169.43595472977563 L 158.64823309568075 172.61631688374953 L 162.84222868468964 175.36068947518638 L 163.05374109823353 171.6297228139862 L 163.06069469451904 169.6485595703125 L 163.06032624090267 167.69373358094512 L 162.98759803045886 165.62733368927854 L 162.9318895800455 163.4727376338832 L 162.78099193640284 161.40875733683535 L 162.56707858951611 159.3775052616474 L 161.99609968737582 156.01343441549014 L 160.41951590729877 151.65000526384998 Z" fill="black" />
</svg>