<svg xmlns="http://www.w3.org/2000/svg" width="300" height="300" viewBox="0 0 300 300">
<path d="M 126.50748972862986 113.7298906729419 L 124.34224113788561 115.26854395901188 L 122.3075454842731 119.24322951511394 L 121.2330950180982 121.44010478983576 L 120.05551641070971 123.91707385744577 L 118.61820133547222 126.70340880949357 L 116.91831561063526 129.91335878914145 L 115.0841567613355 133.32291577418107 L 113.0689426738156 136.93697370485356 L 110.7909766670415 141.02594365571906 L 108.7944083856385 144.45804349918538 L 106.91158899882188 147.74695164253524 L 104.97475337254562 150.91327995772787 L 103.23037256141534 153.8182317275733 L 101.64459553135788 156.2989187798137 L 100.04012555312437 158.71277760169602 L 99.6046671193984 159.5307642318915 L 98.6670818404321 159.62588417336275 L 99.4225177689429 163.30526817038725 L 101.6538778024766 162.7497533462335 L 103.19901018906313 160.94017649986648 L 104.90752849207962 158.4742745795613 L 106.59872900108466 155.9500788193017 L 108.41941166651688 153.04936652664713 L 110.44375768086562 149.88451808402726 L 112.4140877081115 146.59200532893962 L 114.486733293896 143.16741571928094 L 116.8541530293094 139.07340227170894 L 118.908152808977 135.43038012425643 L 120.78310040498974 131.98324765617105 L 122.50423518796528 128.73689880769393 L 123.98379022991529 125.86771618161673 L 125.1829206069018 123.33980243672674 L 126.2331039297894 121.18242966457356 L 127.87150397930189 117.77491307223812 L 128.87520070105762 117.0613690926831 Z" fill="black" />
<path d="M 109.37075642194402 146.5339105657928 L 109.98419094438934 147.85895585251802 L 110.43596849044691 149.76475525795263 L 110.81075701417619 151.35278266206998 L 111.24081437375982 153.3691373626763 L 111.70204669857172 155.6565140330574 L 112.22034202915557 158.2021045314051 L 112.75116270219678 161.04177358265076 L 113.20240286618527 164.12590042308184 L 113.74494121201461 167.3337505965925 L 114.1976198424526 170.77252756931952 L 114.54474725056643 173.63277679003977 L 114.80678568215521 176.38139158960192 L 115.08770515323721 178.92177787173895 L 115.22571328271762 181.1460131850987 L 115.31568568875907 183.1600681506918 L 115.41330145896382 185.29107135234239 L 115.45678257319766 188.40823490129117 L 116.06362413625877 188.29292692786208 L 116.74509322870344 188.2849732315687 L 116.10563459429382 186.9667644861988 L 112.88118181195618 188.5657062169262 L 114.07827102910906 190.9511107528063 L 117.67661023874123 191.99418244713792 L 119.61584926273984 188.97604244245883 L 119.65933037697368 185.23651653828261 L 119.61290317842843 183.0132716930582 L 119.55883261571988 180.9483471664638 L 119.44476554988779 178.56809029232355 L 119.18552388815729 175.95344727758558 L 118.94341192912107 173.17166656933523 L 118.6063352356724 170.22625172755548 L 118.15874531142289 166.683217176845 L 117.62096139162723 163.43476852223066 L 117.17193300092822 160.31284067516174 L 116.62243140834443 157.3468456639074 L 116.09641521549078 154.7624312794426 L 115.62136824342768 152.4453157623237 L 115.15115704832381 150.35766655668002 L 114.73370924392809 148.66749571860987 L 113.99713229779816 146.09392500685698 L 112.48593303118098 144.3659917779572 Z" fill="black" />
<path d="M 143.1892362833023 113.15594482421875 L 142.20287000971393 113.52387962835725 L 140.7739054647061 113.89010740955354 L 141.32943528670245 115.0950875860276 L 142.04946416437878 117.72970171949213 L 142.32584226900877 119.38042760362976 L 142.60592402115768 121.25919518090261 L 142.803283115914 123.46822671931395 L 142.91588900305996 125.64230029902143 L 142.9728969335556 127.8577880859375 L 143.02367889881134 130.09747314453125 L 143.06761050224304 132.07440185546875 L 143.10159540176392 133.85113525390625 L 143.11911976337433 136.4912109375 L 146.72585093975067 136.4912109375 L 146.74337530136108 133.85113525390625 L 146.77736020088196 132.07440185546875 L 146.82129180431366 130.09747314453125 L 146.8720737695694 127.8577880859375 L 146.92908170006504 125.59390575566607 L 146.9336553606485 123.28860921818605 L 146.84292851790482 120.86812415503489 L 146.61885987942873 118.79303431043274 L 146.35507685124622 116.76517132738287 L 145.49063307267255 113.5941213983474 L 144.2096150431064 111.12051270763396 L 140.25989854497357 109.76005591851775 L 139.2735322713852 113.15594482421875 Z" fill="black" />
<path d="M 144.31280247501206 128.1796310481998 L 146.66086960058666 128.96529108320334 L 149.6546713944624 128.9464919064402 L 151.41758897189914 128.6515481208325 L 153.06613283971652 128.23847407928363 L 154.63010461758708 127.84894953067976 L 157.1977403325193 127.14578690702952 L 159.4768658884159 126.6946437993417 L 158.8886126272091 123.0901462397208 L 156.4143202143557 123.41475996797048 L 153.72438756991292 124.03789128963274 L 152.22744626184598 124.29900150665388 L 150.70704481716336 124.56158664479251 L 149.4450600508501 124.6670334841848 L 147.28932571191334 124.64823430742167 L 145.67621119686294 124.1076003971127 Z" fill="black" />
<path d="M 134.0152505638693 148.97413957080437 L 136.51634915201907 148.1858860224962 L 138.1468577472123 147.41532882110812 L 139.9347678566317 146.54737277354917 L 142.08217912584206 145.49055127023612 L 144.4748608183161 144.37234198320974 L 146.94374434326406 143.21725803346501 L 149.38132184131362 142.1365650683777 L 151.81884204367353 141.0941702397663 L 153.4473249162337 140.42079295111006 L 155.8762109863271 139.70435490771285 L 155.5141471769139 137.87622465359323 L 154.39042597668416 138.26832072877164 L 156.98896855456584 140.77000934935336 L 159.2862678621486 137.60863862765677 L 155.2511083496104 135.78050837353715 L 152.2423723493913 136.51548634576494 L 150.30579174538897 137.1684030024212 L 147.73781878368638 138.1029368847473 L 145.16990311767344 139.12429470090999 L 142.5972827363714 140.22140801679026 L 140.12851423353294 141.33037158132638 L 137.9186256980558 142.37560085926333 L 136.1414723309127 143.23432938201688 L 134.71106784016843 143.9151881962538 L 132.4587484595682 144.97874128857063 Z" fill="black" />
<path d="M 144.13194774498507 145.2844769758359 L 144.06019220090892 147.2710318705161 L 144.71326742571623 149.45928738211973 L 145.04744198490565 150.78557534560312 L 145.28712710811826 152.42323627758344 L 145.54444718376791 154.45369977471626 L 145.7330058930252 156.86162055134793 L 145.85613346084202 159.70158723630738 L 145.9287005523395 162.8342725242658 L 145.9898451711779 166.50060482177318 L 145.99811959266663 169.83624267578125 L 146.0104751586914 173.2020263671875 L 146.0232994556427 176.43017578125 L 146.0359766483307 179.39556884765625 L 146.04874992370605 182.09820556640625 L 146.06318855285645 184.87591552734375 L 146.0765061378479 186.7152099609375 L 146.0918550491333 188.22918701171875 L 146.1150405641942 190.44465710240974 L 147.54590799021008 190.4850352639632 L 148.79765598145062 190.16345805412197 L 148.18267270189594 188.04162093164496 L 144.57916811841656 188.94226578710504 L 145.15253933104938 191.57506733650303 L 148.38487814260242 194.6818348532243 L 150.4639389279933 190.76835559290276 L 150.4871244430542 188.22918701171875 L 150.5024733543396 186.7152099609375 L 150.51579093933105 184.87591552734375 L 150.53022956848145 182.09820556640625 L 150.5430028438568 179.39556884765625 L 150.5556800365448 176.43017578125 L 150.5685043334961 173.2020263671875 L 150.58085989952087 169.83624267578125 L 150.5891343210096 166.46533756103932 L 150.5422467132855 162.7494677101092 L 150.47077083603298 159.55097624025512 L 150.3418232085373 156.58527886271457 L 150.13426375373209 153.98831682684624 L 149.85142269656924 151.78965434741656 L 149.55094668696935 149.87384848252188 L 149.09288491803377 148.17218234444277 L 148.44957342409108 146.2814583638589 L 147.98169971595243 144.8396685319766 Z" fill="black" />
<path d="M 145.63730365850986 161.49257745586797 L 142.73841336969474 160.9446082595312 L 140.78125234639577 163.21305163150748 L 139.8381077662849 164.83524326435125 L 138.31059259880578 166.98986316817343 L 137.46906720268157 168.16704908709383 L 136.42746595522638 169.43921412103003 L 135.2420457437123 170.87248369183507 L 134.19025199381886 172.05856988719952 L 133.21349424222208 173.00417815750603 L 131.56928291796422 174.32858639879785 L 129.87391936010275 174.72767944094488 L 130.55027497583475 178.40794067624262 L 133.21221122266078 178.00625246838965 L 135.78125673434042 176.30270660811897 L 137.18120796711864 175.14626409717548 L 138.5061232016002 173.82990888628993 L 139.84145494321112 172.36034642584497 L 141.03251971138093 170.97992356915617 L 142.02754216681922 169.65466808182657 L 143.6689723118401 167.32991786846125 L 144.70641855204173 165.52376477474252 L 144.33373018499276 165.1646446701563 L 144.35171001336514 165.54257879413203 Z" fill="black" />
<path d="M 151.44412969998479 164.05911282956782 L 152.85409012600445 165.31188404979235 L 154.36843525545896 167.15226222062677 L 155.54751726151144 168.3301517952808 L 156.8278821592394 169.7398765650019 L 158.8715374033906 171.68179068066655 L 160.4024326572803 172.86084099792825 L 163.0045497645947 170.11486700988425 L 161.7626178700469 168.66635385058345 L 159.8450914735731 166.7795326146856 L 158.60470441817606 165.4115474234692 L 157.40707743985354 164.23714207624823 L 155.60843428805805 162.49902903614515 L 153.99349237032771 161.12423677980718 Z" fill="black" />
<path d="M 167.87065294900373 150.1815854899435 L 168.43714163983014 151.6606186135017 L 168.8643668921101 153.2339232740022 L 171.06966367179615 152.02099625883767 L 172.4478680013123 151.33550569891443 L 173.9372247980263 150.66448531537415 L 175.46798192138112 150.08214251634507 L 176.92605692806913 149.50954704270194 L 178.1413409624223 149.11204603924602 L 181.68951155082445 148.424360908625 L 181.3936820798402 147.58974033241094 L 181.18820387571816 149.31783434938973 L 180.2610153306152 151.24807864306118 L 179.6315988904986 152.51948255221092 L 178.8160319066599 154.058701949895 L 177.95467237192344 155.91810658839975 L 177.1239751380395 157.56127850031893 L 176.13122238729048 159.4052945466391 L 175.12936466925814 161.41702318976172 L 174.16124928481142 163.38023263926237 L 173.11908035221367 165.35020558279 L 172.01580052276873 167.5448496170517 L 171.162462501417 169.28511517208804 L 170.25170929080096 170.86655893414746 L 169.37022257389367 172.3838086208121 L 168.6118730795872 173.67153472724831 L 167.72619472059725 175.33982220696183 L 167.71171963568827 174.85596094953723 L 166.75056063774923 178.52990330827527 L 169.79699863877775 178.84682330085067 L 172.0802655922878 176.03574066337669 L 173.01442098079383 174.6708788791879 L 174.00549285763654 173.16017446429004 L 175.075330467333 171.46341998416196 L 176.05854029754377 169.6251943282608 L 177.18792648372383 167.49061472971 L 178.27039134018858 165.50673025136263 L 179.28286677605436 163.49105786492578 L 180.26159987833452 161.5489290861734 L 181.249437947898 159.71435626530607 L 182.14725633901406 157.92918345066275 L 182.9784016870901 156.0849748079175 L 183.7473073595014 154.59624010403908 L 184.4502883803223 153.11495846631382 L 185.64773362428184 150.04031994748527 L 185.1541694826598 145.43723720665156 L 181.29327653511305 144.2022260054375 L 177.2071697797652 144.96595689044148 L 175.50558369693087 145.49435920729806 L 173.93875635986888 146.09791119459243 L 172.3005681707237 146.71674027056335 L 170.6209796549377 147.47211148858557 L 169.08231386726635 148.23803694428733 L 166.6782356469524 149.5275513353728 L 164.33263375079486 152.9526626364983 L 168.17609998068377 154.1814516194315 Z" fill="black" />
<path d="M 168.89584680705218 157.14730840421396 L 169.9223811238902 159.21223931043824 L 171.89308386739114 161.2157686370865 L 173.27247709845844 162.53080568390362 L 174.79604004905642 163.85460473461538 L 176.51566765299896 165.43474017179395 L 178.3406147093298 167.045318020512 L 180.2461342006836 168.85798692225848 L 182.10740682852975 170.62610807116394 L 183.9342446700437 172.6154349803376 L 185.17379242476207 174.16897711412813 L 186.21800064482397 175.72322449763178 L 186.97841423070713 177.01928577911508 L 187.7637238029194 178.89362202612938 L 187.37166080203224 180.22620645178796 L 191.20377865109276 181.34264120446204 L 192.0000701423931 178.59624613793312 L 190.94883186304287 175.31555308807242 L 189.98072982392603 173.45853819768072 L 188.79227202836293 171.58444085462187 L 187.3670248612063 169.7096382618499 L 185.37672403084525 167.46983919446106 L 183.4208579868164 165.55937147617902 L 181.4732280641077 163.6684270966755 L 179.62507941731354 162.00080670320605 L 177.88767577125608 160.40284155444712 L 176.38633637810406 159.09907712859638 L 175.13694542948386 157.9116727691635 L 173.5425846964223 156.33671088487426 L 172.58852819294782 154.99832147859854 Z" fill="black" />
</svg>