<svg xmlns="http://www.w3.org/2000/svg" width="300" height="300" viewBox="0 0 300 300">
<path d="M 135.65 120.37 L 135.25 121.26 C 134.78 122.31 135.25 123.53 136.30 124.00 C 137.35 124.46 138.57 123.99 139.04 122.94 L 139.43 122.05 C 139.90 121.00 139.43 119.78 138.38 119.31 C 137.34 118.85 136.11 119.32 135.65 120.37 Z M 135.19 121.20 L 134.77 122.12 C 134.28 123.19 134.75 124.47 135.83 124.96 C 136.90 125.46 138.18 124.99 138.67 123.91 L 139.09 123.00 C 139.59 121.92 139.12 120.65 138.04 120.15 C 136.96 119.66 135.69 120.13 135.19 121.20 Z M 134.74 122.05 L 134.29 122.97 C 133.76 124.07 134.21 125.38 135.30 125.92 C 136.39 126.45 137.71 126.00 138.25 124.91 L 138.70 123.98 C 139.24 122.89 138.78 121.57 137.69 121.03 C 136.60 120.50 135.28 120.95 134.74 122.05 Z M 134.29 122.92 L 133.82 123.84 C 133.26 124.93 133.69 126.27 134.78 126.83 C 135.87 127.40 137.21 126.97 137.78 125.87 L 138.25 124.96 C 138.81 123.86 138.38 122.52 137.29 121.96 C 136.19 121.40 134.85 121.83 134.29 122.92 Z M 133.83 123.83 L 133.38 124.68 C 132.81 125.77 133.23 127.12 134.32 127.68 C 135.41 128.25 136.75 127.83 137.32 126.74 L 137.77 125.89 C 138.34 124.80 137.92 123.45 136.83 122.89 C 135.74 122.32 134.40 122.74 133.83 123.83 Z M 133.37 124.69 L 132.90 125.62 C 132.33 126.71 132.76 128.05 133.85 128.61 C 134.95 129.18 136.29 128.75 136.85 127.66 L 137.33 126.73 C 137.89 125.64 137.46 124.30 136.37 123.74 C 135.28 123.17 133.94 123.60 133.37 124.69 Z M 132.90 125.60 L 132.46 126.45 C 131.89 127.54 132.31 128.88 133.40 129.45 C 134.48 130.02 135.83 129.60 136.40 128.52 L 136.84 127.67 C 137.42 126.58 137.00 125.24 135.91 124.67 C 134.82 124.10 133.48 124.52 132.90 125.60 Z M 132.49 126.39 L 132.02 127.23 C 131.42 128.30 131.80 129.66 132.87 130.26 C 133.95 130.86 135.30 130.48 135.90 129.41 L 136.37 128.57 C 136.97 127.50 136.59 126.14 135.52 125.54 C 134.45 124.94 133.09 125.32 132.49 126.39 Z M 132.05 127.18 L 131.52 128.07 C 130.90 129.13 131.25 130.49 132.31 131.12 C 133.37 131.74 134.73 131.39 135.36 130.33 L 135.88 129.45 C 136.51 128.39 136.15 127.03 135.10 126.40 C 134.04 125.77 132.67 126.13 132.05 127.18 Z M 131.54 128.04 L 131.03 128.88 C 130.39 129.93 130.73 131.30 131.78 131.94 C 132.83 132.58 134.20 132.24 134.84 131.19 L 135.34 130.36 C 135.98 129.31 135.65 127.94 134.60 127.30 C 133.55 126.66 132.18 126.99 131.54 128.04 Z M 131.04 128.85 L 130.51 129.71 C 129.86 130.75 130.17 132.13 131.22 132.78 C 132.26 133.43 133.64 133.11 134.29 132.07 L 134.82 131.22 C 135.48 130.17 135.16 128.80 134.12 128.14 C 133.07 127.49 131.70 127.81 131.04 128.85 Z M 130.53 129.68 L 129.98 130.53 C 129.31 131.56 129.61 132.94 130.64 133.61 C 131.68 134.28 133.05 133.98 133.72 132.95 L 134.27 132.10 C 134.94 131.06 134.64 129.68 133.61 129.02 C 132.57 128.35 131.20 128.64 130.53 129.68 Z M 129.99 130.51 L 129.45 131.33 C 128.77 132.36 129.05 133.74 130.07 134.42 C 131.10 135.10 132.48 134.82 133.16 133.79 L 133.71 132.97 C 134.39 131.94 134.11 130.56 133.08 129.88 C 132.06 129.20 130.67 129.48 129.99 130.51 Z M 129.45 131.32 L 128.88 132.17 C 128.20 133.19 128.47 134.57 129.49 135.26 C 130.52 135.95 131.90 135.67 132.59 134.65 L 133.16 133.80 C 133.84 132.78 133.57 131.40 132.55 130.71 C 131.52 130.02 130.14 130.30 129.45 131.32 Z M 128.88 132.17 L 128.34 132.99 C 127.65 134.01 127.92 135.39 128.95 136.08 C 129.97 136.76 131.35 136.49 132.04 135.47 L 132.59 134.65 C 133.27 133.63 133.00 132.24 131.98 131.56 C 130.96 130.87 129.57 131.15 128.88 132.17 Z M 128.34 132.98 L 127.78 133.81 C 127.10 134.83 127.37 136.21 128.39 136.90 C 129.41 137.59 130.80 137.31 131.49 136.29 L 132.04 135.47 C 132.72 134.45 132.45 133.06 131.43 132.38 C 130.41 131.69 129.02 131.96 128.34 132.98 Z M 127.79 133.80 L 127.22 134.65 C 126.52 135.67 126.79 137.05 127.81 137.74 C 128.83 138.43 130.21 138.17 130.90 137.15 L 131.48 136.30 C 132.17 135.28 131.90 133.90 130.89 133.21 C 129.87 132.52 128.48 132.78 127.79 133.80 Z M 127.23 134.64 L 126.66 135.46 C 125.96 136.47 126.22 137.86 127.23 138.56 C 128.24 139.25 129.63 139.00 130.32 137.99 L 130.89 137.16 C 131.59 136.15 131.33 134.76 130.32 134.07 C 129.31 133.37 127.92 133.62 127.23 134.64 Z M 126.67 135.46 L 126.09 136.29 C 125.39 137.29 125.64 138.68 126.65 139.37 C 127.66 140.07 129.04 139.82 129.74 138.82 L 130.31 137.99 C 131.01 136.98 130.76 135.60 129.76 134.90 C 128.75 134.20 127.37 134.45 126.67 135.46 Z M 126.10 136.29 L 125.53 137.12 C 124.83 138.12 125.08 139.50 126.09 140.19 C 127.09 140.89 128.47 140.64 129.16 139.63 L 129.73 138.81 C 130.43 137.81 130.18 136.43 129.18 135.73 C 128.17 135.04 126.79 135.29 126.10 136.29 Z M 125.53 137.13 L 124.95 137.97 C 124.26 138.98 124.52 140.35 125.52 141.04 C 126.53 141.72 127.90 141.47 128.59 140.46 L 129.17 139.62 C 129.85 138.62 129.60 137.24 128.59 136.55 C 127.59 135.87 126.21 136.12 125.53 137.13 Z M 124.95 137.98 L 124.39 138.81 C 123.71 139.82 123.97 141.18 124.97 141.86 C 125.98 142.55 127.34 142.29 128.03 141.28 L 128.59 140.45 C 129.27 139.45 129.01 138.08 128.00 137.40 C 127.00 136.72 125.63 136.98 124.95 137.98 Z M 124.40 138.81 L 123.85 139.62 C 123.16 140.62 123.42 141.98 124.42 142.66 C 125.42 143.35 126.79 143.09 127.47 142.09 L 128.02 141.28 C 128.70 140.28 128.44 138.92 127.44 138.23 C 126.44 137.55 125.08 137.81 124.40 138.81 Z M 123.86 139.61 L 123.29 140.44 C 122.60 141.43 122.85 142.79 123.84 143.48 C 124.84 144.17 126.20 143.92 126.88 142.92 L 127.45 142.09 C 128.14 141.10 127.89 139.74 126.90 139.06 C 125.90 138.37 124.54 138.62 123.86 139.61 Z M 123.30 140.44 L 122.73 141.26 C 122.04 142.24 122.28 143.60 123.27 144.29 C 124.25 144.98 125.61 144.73 126.30 143.75 L 126.87 142.93 C 127.56 141.94 127.32 140.59 126.33 139.90 C 125.35 139.21 123.99 139.45 123.30 140.44 Z M 122.73 141.26 L 122.17 142.07 C 121.48 143.05 121.71 144.40 122.70 145.09 C 123.68 145.78 125.03 145.54 125.72 144.56 L 126.29 143.75 C 126.98 142.77 126.74 141.41 125.76 140.73 C 124.78 140.04 123.42 140.27 122.73 141.26 Z M 122.17 142.07 L 121.59 142.91 C 120.90 143.89 121.14 145.24 122.12 145.92 C 123.09 146.61 124.44 146.37 125.13 145.39 L 125.71 144.56 C 126.40 143.58 126.16 142.23 125.18 141.54 C 124.21 140.86 122.86 141.10 122.17 142.07 Z M 121.60 142.91 L 121.02 143.72 C 120.34 144.70 120.57 146.04 121.55 146.72 C 122.52 147.41 123.86 147.17 124.55 146.20 L 125.12 145.39 C 125.80 144.42 125.57 143.07 124.60 142.39 C 123.62 141.70 122.28 141.94 121.60 142.91 Z M 121.04 143.72 L 120.46 144.54 C 119.77 145.50 120.00 146.84 120.96 147.53 C 121.93 148.21 123.26 147.99 123.95 147.02 L 124.53 146.20 C 125.22 145.24 124.99 143.90 124.03 143.21 C 123.06 142.53 121.72 142.75 121.04 143.72 Z M 120.48 144.53 L 119.89 145.35 C 119.20 146.30 119.41 147.63 120.36 148.32 C 121.32 149.01 122.65 148.80 123.34 147.85 L 123.93 147.03 C 124.62 146.08 124.41 144.74 123.45 144.05 C 122.50 143.36 121.17 143.58 120.48 144.53 Z M 119.91 145.33 L 119.33 146.12 C 118.63 147.06 118.83 148.38 119.77 149.08 C 120.71 149.78 122.04 149.58 122.73 148.64 L 123.31 147.86 C 124.01 146.92 123.81 145.59 122.88 144.89 C 121.94 144.20 120.61 144.39 119.91 145.33 Z M 119.36 146.10 L 118.75 146.91 C 118.04 147.83 118.22 149.15 119.14 149.86 C 120.07 150.56 121.38 150.38 122.09 149.46 L 122.70 148.66 C 123.41 147.73 123.23 146.41 122.31 145.71 C 121.38 145.00 120.06 145.18 119.36 146.10 Z M 118.77 146.90 L 118.17 147.68 C 117.46 148.59 117.62 149.90 118.53 150.61 C 119.44 151.31 120.75 151.15 121.46 150.24 L 122.06 149.47 C 122.77 148.56 122.61 147.25 121.70 146.54 C 120.79 145.83 119.48 145.99 118.77 146.90 Z M 118.20 147.68 L 117.58 148.46 C 116.87 149.35 117.02 150.65 117.91 151.35 C 118.80 152.06 120.10 151.91 120.81 151.02 L 121.43 150.24 C 122.13 149.35 121.99 148.06 121.09 147.35 C 120.20 146.64 118.91 146.79 118.20 147.68 Z M 117.63 148.44 L 116.99 149.21 C 116.27 150.07 116.39 151.35 117.25 152.07 C 118.11 152.79 119.39 152.67 120.11 151.81 L 120.75 151.04 C 121.47 150.18 121.36 148.90 120.49 148.18 C 119.63 147.46 118.35 147.58 117.63 148.44 Z M 117.08 149.15 L 116.35 149.94 C 115.61 150.76 115.66 152.02 116.48 152.77 C 117.29 153.52 118.56 153.46 119.30 152.65 L 120.03 151.86 C 120.77 151.05 120.72 149.78 119.91 149.03 C 119.09 148.29 117.83 148.34 117.08 149.15 Z M 116.55 149.79 L 115.81 150.41 C 114.98 151.12 114.87 152.36 115.58 153.20 C 116.28 154.03 117.53 154.14 118.36 153.43 L 119.11 152.81 C 119.94 152.10 120.04 150.85 119.34 150.02 C 118.63 149.19 117.39 149.08 116.55 149.79 Z M 116.50 150.07 L 115.57 150.36 C 114.54 150.69 113.98 151.78 114.30 152.81 C 114.63 153.83 115.72 154.40 116.75 154.07 L 117.68 153.78 C 118.70 153.45 119.27 152.36 118.94 151.33 C 118.62 150.31 117.52 149.74 116.50 150.07 Z M 116.26 150.31 L 115.72 150.28 C 114.66 150.22 113.76 151.03 113.70 152.08 C 113.64 153.14 114.45 154.04 115.50 154.10 L 116.05 154.13 C 117.11 154.19 118.01 153.38 118.07 152.32 C 118.13 151.27 117.32 150.37 116.26 150.31 Z"
      fill="black"
      fill-rule="nonzero" /><path d="M 124.81 142.43 L 125.72 142.78 C 126.73 143.17 127.87 142.66 128.26 141.65 C 128.65 140.63 128.15 139.49 127.13 139.10 L 126.22 138.75 C 125.21 138.36 124.07 138.87 123.68 139.88 C 123.29 140.90 123.79 142.04 124.81 142.43 Z M 124.87 142.40 L 125.51 143.07 C 126.31 143.93 127.66 143.98 128.52 143.17 C 129.38 142.37 129.42 141.02 128.61 140.16 L 127.98 139.48 C 127.17 138.63 125.83 138.58 124.97 139.39 C 124.11 140.19 124.07 141.54 124.87 142.40 Z M 124.99 142.37 L 125.31 143.24 C 125.72 144.39 126.98 144.98 128.13 144.57 C 129.27 144.15 129.86 142.89 129.45 141.74 L 129.13 140.87 C 128.72 139.72 127.46 139.13 126.31 139.55 C 125.17 139.96 124.58 141.22 124.99 142.37 Z M 125.20 142.93 L 125.43 144.03 C 125.67 145.23 126.84 146.01 128.04 145.76 C 129.24 145.52 130.02 144.35 129.77 143.15 L 129.55 142.05 C 129.31 140.85 128.14 140.08 126.94 140.32 C 125.74 140.56 124.96 141.73 125.20 142.93 Z M 125.40 143.93 L 125.56 144.94 C 125.74 146.16 126.88 146.99 128.10 146.80 C 129.31 146.62 130.14 145.48 129.96 144.27 L 129.80 143.25 C 129.61 142.04 128.48 141.20 127.26 141.39 C 126.05 141.58 125.21 142.71 125.40 143.93 Z M 125.55 144.90 L 125.69 145.91 C 125.85 147.13 126.97 147.99 128.19 147.82 C 129.41 147.66 130.26 146.54 130.10 145.32 L 129.96 144.31 C 129.80 143.09 128.68 142.23 127.46 142.40 C 126.24 142.56 125.39 143.68 125.55 144.90 Z M 125.68 145.89 L 125.80 146.86 C 125.96 148.08 127.07 148.94 128.29 148.79 C 129.51 148.64 130.38 147.52 130.22 146.30 L 130.10 145.34 C 129.95 144.12 128.84 143.25 127.62 143.41 C 126.40 143.56 125.53 144.67 125.68 145.89 Z M 125.80 146.85 L 125.93 147.88 C 126.08 149.11 127.19 149.98 128.41 149.83 C 129.63 149.68 130.50 148.57 130.35 147.35 L 130.23 146.31 C 130.08 145.09 128.97 144.22 127.74 144.37 C 126.52 144.52 125.65 145.63 125.80 146.85 Z M 125.93 147.88 L 126.04 148.83 C 126.19 150.06 127.29 150.93 128.51 150.78 C 129.74 150.64 130.61 149.53 130.47 148.31 L 130.35 147.35 C 130.21 146.13 129.10 145.26 127.88 145.40 C 126.66 145.55 125.78 146.66 125.93 147.88 Z M 126.04 148.82 L 126.15 149.77 C 126.29 151.00 127.39 151.87 128.61 151.73 C 129.84 151.60 130.71 150.49 130.57 149.27 L 130.47 148.32 C 130.33 147.10 129.22 146.22 128.00 146.36 C 126.78 146.50 125.90 147.60 126.04 148.82 Z M 126.15 149.76 L 126.25 150.75 C 126.38 151.97 127.48 152.86 128.70 152.73 C 129.93 152.60 130.81 151.50 130.68 150.28 L 130.58 149.29 C 130.45 148.06 129.35 147.18 128.13 147.31 C 126.90 147.44 126.02 148.53 126.15 149.76 Z M 126.25 150.72 L 126.34 151.74 C 126.46 152.96 127.55 153.86 128.77 153.75 C 130.00 153.63 130.90 152.55 130.78 151.32 L 130.68 150.30 C 130.57 149.08 129.48 148.18 128.26 148.30 C 127.03 148.41 126.13 149.50 126.25 150.72 Z M 126.34 151.71 L 126.42 152.68 C 126.52 153.90 127.60 154.82 128.82 154.72 C 130.05 154.62 130.96 153.54 130.86 152.31 L 130.78 151.35 C 130.68 150.12 129.61 149.21 128.38 149.31 C 127.15 149.41 126.24 150.49 126.34 151.71 Z M 126.42 152.67 L 126.50 153.68 C 126.59 154.91 127.67 155.82 128.89 155.73 C 130.12 155.63 131.04 154.56 130.94 153.34 L 130.86 152.32 C 130.77 151.10 129.70 150.18 128.47 150.28 C 127.24 150.37 126.33 151.44 126.42 152.67 Z M 126.50 153.68 L 126.58 154.70 C 126.68 155.92 127.75 156.84 128.97 156.74 C 130.20 156.65 131.12 155.58 131.02 154.35 L 130.94 153.33 C 130.84 152.11 129.77 151.19 128.55 151.29 C 127.32 151.38 126.40 152.46 126.50 153.68 Z M 126.58 154.70 L 126.66 155.70 C 126.76 156.92 127.84 157.84 129.06 157.74 C 130.29 157.64 131.20 156.56 131.10 155.34 L 131.02 154.34 C 130.92 153.12 129.84 152.21 128.62 152.31 C 127.39 152.41 126.48 153.48 126.58 154.70 Z M 126.66 155.70 L 126.74 156.70 C 126.84 157.93 127.92 158.84 129.14 158.74 C 130.37 158.64 131.28 157.57 131.18 156.35 L 131.10 155.34 C 131.00 154.11 129.93 153.20 128.70 153.30 C 127.48 153.40 126.56 154.47 126.66 155.70 Z M 126.75 156.70 L 126.82 157.70 C 126.92 158.92 127.99 159.84 129.21 159.75 C 130.43 159.65 131.35 158.58 131.26 157.36 L 131.18 156.35 C 131.08 155.13 130.02 154.21 128.79 154.31 C 127.57 154.40 126.65 155.47 126.75 156.70 Z M 126.82 157.69 L 126.89 158.68 C 126.98 159.91 128.04 160.83 129.27 160.74 C 130.49 160.66 131.41 159.60 131.33 158.37 L 131.26 157.37 C 131.17 156.15 130.11 155.23 128.88 155.31 C 127.66 155.40 126.74 156.46 126.82 157.69 Z M 126.90 158.67 L 126.96 159.66 C 127.04 160.88 128.09 161.81 129.31 161.74 C 130.54 161.66 131.46 160.60 131.39 159.38 L 131.32 158.39 C 131.25 157.16 130.19 156.24 128.97 156.31 C 127.75 156.39 126.82 157.44 126.90 158.67 Z M 126.96 159.64 L 127.01 160.64 C 127.08 161.86 128.13 162.80 129.35 162.73 C 130.57 162.66 131.51 161.62 131.44 160.40 L 131.39 159.40 C 131.32 158.18 130.27 157.24 129.05 157.31 C 127.83 157.37 126.89 158.42 126.96 159.64 Z M 127.02 160.62 L 127.06 161.62 C 127.12 162.84 128.16 163.78 129.38 163.73 C 130.60 163.67 131.54 162.63 131.49 161.41 L 131.44 160.41 C 131.38 159.19 130.35 158.25 129.12 158.31 C 127.90 158.36 126.96 159.40 127.02 160.62 Z M 127.06 161.60 L 127.10 162.60 C 127.15 163.82 128.18 164.77 129.40 164.73 C 130.62 164.68 131.57 163.65 131.52 162.43 L 131.48 161.43 C 131.43 160.21 130.41 159.26 129.19 159.31 C 127.97 159.35 127.02 160.38 127.06 161.60 Z M 127.11 162.59 L 127.14 163.59 C 127.18 164.81 128.20 165.77 129.42 165.73 C 130.64 165.69 131.59 164.66 131.55 163.45 L 131.52 162.44 C 131.48 161.22 130.46 160.27 129.24 160.31 C 128.02 160.35 127.07 161.37 127.11 162.59 Z M 127.14 163.58 L 127.17 164.59 C 127.21 165.81 128.22 166.77 129.44 166.73 C 130.66 166.70 131.61 165.68 131.58 164.47 L 131.55 163.46 C 131.52 162.24 130.50 161.28 129.28 161.32 C 128.07 161.35 127.11 162.37 127.14 163.58 Z M 127.17 164.58 L 127.20 165.58 C 127.23 166.80 128.24 167.76 129.45 167.73 C 130.67 167.70 131.63 166.69 131.60 165.47 L 131.58 164.47 C 131.55 163.26 130.54 162.30 129.32 162.33 C 128.11 162.36 127.14 163.37 127.17 164.58 Z M 127.20 165.57 L 127.22 166.57 C 127.25 167.78 128.26 168.75 129.47 168.72 C 130.68 168.70 131.65 167.69 131.62 166.47 L 131.60 165.48 C 131.57 164.26 130.57 163.30 129.35 163.33 C 128.14 163.35 127.17 164.36 127.20 165.57 Z M 127.23 166.57 L 127.25 167.58 C 127.27 168.80 128.27 169.76 129.49 169.74 C 130.70 169.71 131.66 168.71 131.64 167.49 L 131.62 166.48 C 131.59 165.26 130.59 164.30 129.38 164.33 C 128.16 164.35 127.20 165.35 127.23 166.57 Z M 127.25 167.58 L 127.27 168.58 C 127.29 169.79 128.30 170.75 129.51 170.73 C 130.72 170.70 131.68 169.70 131.66 168.49 L 131.64 167.49 C 131.61 166.28 130.61 165.32 129.40 165.34 C 128.19 165.37 127.22 166.37 127.25 167.58 Z M 127.27 168.58 L 127.29 169.57 C 127.32 170.78 128.32 171.74 129.53 171.71 C 130.74 171.69 131.70 170.68 131.68 169.47 L 131.65 168.48 C 131.63 167.27 130.62 166.31 129.41 166.34 C 128.20 166.37 127.24 167.37 127.27 168.58 Z M 127.30 169.57 L 127.32 170.57 C 127.35 171.78 128.35 172.74 129.56 172.71 C 130.77 172.68 131.73 171.68 131.70 170.47 L 131.67 169.47 C 131.65 168.26 130.64 167.30 129.43 167.33 C 128.23 167.36 127.27 168.36 127.30 169.57 Z M 127.32 170.57 L 127.34 171.56 C 127.37 172.77 128.37 173.73 129.57 173.70 C 130.78 173.68 131.74 172.68 131.71 171.47 L 131.69 170.48 C 131.67 169.27 130.67 168.31 129.47 168.34 C 128.26 168.36 127.30 169.36 127.32 170.57 Z M 127.35 171.54 L 127.36 172.57 C 127.37 173.78 128.36 174.74 129.57 174.73 C 130.77 174.71 131.74 173.72 131.72 172.52 L 131.71 171.49 C 131.70 170.28 130.71 169.32 129.50 169.33 C 128.30 169.35 127.33 170.34 127.35 171.54 Z M 127.36 172.55 L 127.37 173.58 C 127.37 174.78 128.35 175.75 129.55 175.75 C 130.76 175.74 131.73 174.76 131.72 173.56 L 131.72 172.54 C 131.71 171.33 130.73 170.36 129.53 170.37 C 128.33 170.37 127.36 171.35 127.36 172.55 Z M 127.37 173.57 L 127.37 174.52 C 127.37 175.72 128.35 176.69 129.55 176.69 C 130.75 176.69 131.72 175.72 131.72 174.52 L 131.72 173.56 C 131.72 172.36 130.75 171.39 129.54 171.39 C 128.34 171.39 127.37 172.37 127.37 173.57 Z M 127.38 174.52 L 127.38 175.51 C 127.38 176.70 128.35 177.68 129.55 177.68 C 130.74 177.68 131.72 176.70 131.72 175.51 L 131.72 174.52 C 131.72 173.32 130.74 172.35 129.55 172.35 C 128.35 172.35 127.38 173.32 127.38 174.52 Z M 127.38 175.51 L 127.38 176.51 C 127.38 177.70 128.35 178.67 129.55 178.67 C 130.74 178.67 131.71 177.70 131.71 176.51 L 131.71 175.51 C 131.71 174.31 130.74 173.34 129.55 173.34 C 128.35 173.34 127.38 174.31 127.38 175.51 Z M 127.39 176.50 L 127.38 177.46 C 127.38 178.65 128.35 179.62 129.54 179.62 C 130.73 179.62 131.70 178.65 131.70 177.46 L 131.71 176.51 C 131.71 175.32 130.74 174.35 129.55 174.35 C 128.36 174.35 127.39 175.31 127.39 176.50 Z M 127.39 177.44 L 127.38 178.46 C 127.37 179.65 128.32 180.62 129.51 180.63 C 130.70 180.65 131.68 179.69 131.69 178.50 L 131.70 177.48 C 131.71 176.29 130.76 175.32 129.57 175.30 C 128.38 175.29 127.40 176.25 127.39 177.44 Z M 127.39 178.42 L 127.36 179.48 C 127.32 180.66 128.26 181.65 129.44 181.69 C 130.63 181.72 131.62 180.79 131.65 179.60 L 131.68 178.54 C 131.72 177.35 130.78 176.36 129.60 176.33 C 128.41 176.30 127.42 177.23 127.39 178.42 Z M 127.37 179.39 L 127.30 180.47 C 127.21 181.64 128.10 182.66 129.28 182.75 C 130.46 182.83 131.48 181.94 131.56 180.76 L 131.64 179.69 C 131.72 178.51 130.83 177.49 129.65 177.41 C 128.47 177.32 127.45 178.21 127.37 179.39 Z M 127.34 180.26 L 127.18 181.19 C 126.98 182.34 127.76 183.44 128.91 183.64 C 130.07 183.83 131.16 183.06 131.36 181.90 L 131.52 180.97 C 131.72 179.82 130.94 178.72 129.79 178.52 C 128.63 178.32 127.53 179.10 127.34 180.26 Z M 127.41 180.58 L 126.90 181.56 C 126.37 182.59 126.78 183.85 127.80 184.38 C 128.83 184.91 130.09 184.51 130.62 183.49 L 131.13 182.51 C 131.66 181.48 131.26 180.22 130.23 179.69 C 129.20 179.15 127.94 179.56 127.41 180.58 Z M 129.62 180.68 L 129.17 180.48 C 128.15 180.01 126.95 180.45 126.48 181.46 C 126.00 182.48 126.45 183.68 127.46 184.15 L 127.91 184.36 C 128.93 184.83 130.13 184.39 130.60 183.38 C 131.07 182.36 130.63 181.16 129.62 180.68 Z M 130.21 182.07 L 130.07 181.00 C 129.94 179.95 128.98 179.21 127.94 179.35 C 126.89 179.48 126.15 180.44 126.28 181.48 L 126.42 182.55 C 126.55 183.60 127.51 184.34 128.55 184.21 C 129.60 184.08 130.34 183.12 130.21 182.07 Z M 130.00 181.13 L 129.98 180.82 C 129.92 179.81 129.06 179.05 128.05 179.11 C 127.05 179.17 126.28 180.03 126.34 181.04 L 126.36 181.35 C 126.42 182.36 127.28 183.12 128.29 183.06 C 129.29 183.00 130.06 182.14 130.00 181.13 Z"
      fill="black"
      fill-rule="nonzero" /><path d="M 163.92 111.12 L 163.92 110.03 C 163.92 108.80 162.92 107.81 161.69 107.81 C 160.47 107.82 159.48 108.81 159.48 110.04 L 159.48 111.13 C 159.49 112.36 160.48 113.35 161.71 113.34 C 162.94 113.34 163.93 112.34 163.92 111.12 Z M 159.63 109.06 L 159.37 109.62 C 158.84 110.76 159.33 112.12 160.47 112.65 C 161.62 113.19 162.98 112.70 163.51 111.55 L 163.77 111.00 C 164.30 109.86 163.81 108.50 162.67 107.96 C 161.53 107.43 160.17 107.92 159.63 109.06 Z M 159.31 109.74 L 158.88 110.83 C 158.41 112.01 158.99 113.34 160.17 113.81 C 161.34 114.28 162.68 113.70 163.14 112.52 L 163.57 111.43 C 164.04 110.25 163.46 108.92 162.29 108.45 C 161.11 107.99 159.78 108.56 159.31 109.74 Z M 158.94 110.70 L 158.50 111.63 C 157.96 112.77 158.44 114.14 159.59 114.68 C 160.74 115.22 162.10 114.73 162.64 113.59 L 163.08 112.66 C 163.62 111.51 163.14 110.14 161.99 109.60 C 160.85 109.06 159.48 109.55 158.94 110.70 Z M 158.54 111.54 L 158.06 112.45 C 157.48 113.57 157.91 114.96 159.03 115.55 C 160.16 116.13 161.54 115.70 162.13 114.58 L 162.60 113.67 C 163.19 112.55 162.75 111.16 161.63 110.57 C 160.51 109.99 159.13 110.42 158.54 111.54 Z M 158.11 112.38 L 157.62 113.24 C 156.99 114.34 157.38 115.74 158.48 116.36 C 159.58 116.99 160.97 116.60 161.60 115.50 L 162.09 114.65 C 162.71 113.55 162.33 112.15 161.23 111.52 C 160.13 110.90 158.73 111.28 158.11 112.38 Z M 157.63 113.22 L 157.15 114.04 C 156.51 115.13 156.88 116.53 157.97 117.17 C 159.06 117.81 160.46 117.44 161.10 116.35 L 161.58 115.53 C 162.22 114.44 161.85 113.04 160.76 112.40 C 159.67 111.76 158.27 112.13 157.63 113.22 Z M 157.16 114.04 L 156.65 114.90 C 156.01 115.99 156.38 117.39 157.46 118.03 C 158.55 118.67 159.95 118.30 160.59 117.21 L 161.10 116.35 C 161.73 115.26 161.37 113.86 160.28 113.23 C 159.19 112.59 157.79 112.95 157.16 114.04 Z M 156.66 114.88 L 156.15 115.75 C 155.50 116.83 155.85 118.23 156.93 118.88 C 158.01 119.53 159.41 119.18 160.06 118.10 L 160.58 117.23 C 161.22 116.15 160.87 114.75 159.79 114.10 C 158.71 113.45 157.31 113.80 156.66 114.88 Z M 156.16 115.73 L 155.64 116.58 C 154.98 117.65 155.31 119.06 156.39 119.72 C 157.46 120.38 158.87 120.04 159.52 118.96 L 160.05 118.11 C 160.71 117.04 160.37 115.64 159.29 114.98 C 158.22 114.32 156.82 114.66 156.16 115.73 Z M 155.64 116.58 L 155.11 117.44 C 154.45 118.51 154.78 119.91 155.86 120.57 C 156.93 121.23 158.33 120.90 159.00 119.83 L 159.52 118.97 C 160.18 117.89 159.85 116.49 158.78 115.83 C 157.70 115.17 156.30 115.50 155.64 116.58 Z M 155.11 117.43 L 154.60 118.26 C 153.94 119.34 154.27 120.74 155.34 121.41 C 156.42 122.07 157.82 121.73 158.48 120.66 L 159.00 119.83 C 159.66 118.75 159.32 117.35 158.25 116.69 C 157.18 116.03 155.77 116.36 155.11 117.43 Z M 154.61 118.25 L 154.06 119.12 C 153.39 120.19 153.71 121.60 154.78 122.27 C 155.85 122.94 157.26 122.61 157.93 121.55 L 158.48 120.68 C 159.15 119.61 158.82 118.20 157.75 117.53 C 156.69 116.86 155.28 117.18 154.61 118.25 Z M 154.08 119.09 L 153.54 119.92 C 152.85 120.98 153.16 122.40 154.22 123.08 C 155.28 123.77 156.69 123.46 157.37 122.40 L 157.91 121.57 C 158.60 120.51 158.29 119.10 157.23 118.41 C 156.18 117.73 154.76 118.03 154.08 119.09 Z M 153.56 119.90 L 153.00 120.74 C 152.30 121.79 152.59 123.21 153.64 123.90 C 154.69 124.60 156.10 124.32 156.80 123.27 L 157.36 122.43 C 158.05 121.38 157.77 119.96 156.72 119.26 C 155.67 118.57 154.25 118.85 153.56 119.90 Z M 153.01 120.72 L 152.44 121.56 C 151.74 122.60 152.01 124.02 153.05 124.73 C 154.09 125.43 155.51 125.16 156.21 124.12 L 156.78 123.29 C 157.49 122.24 157.22 120.83 156.18 120.12 C 155.14 119.41 153.72 119.68 153.01 120.72 Z M 152.46 121.55 L 151.88 122.38 C 151.16 123.41 151.42 124.83 152.45 125.55 C 153.48 126.26 154.90 126.01 155.62 124.97 L 156.20 124.14 C 156.91 123.11 156.66 121.69 155.63 120.97 C 154.59 120.26 153.18 120.51 152.46 121.55 Z M 151.90 122.36 L 151.32 123.18 C 150.60 124.20 150.84 125.62 151.86 126.34 C 152.89 127.06 154.30 126.82 155.03 125.80 L 155.60 124.99 C 156.33 123.97 156.08 122.55 155.06 121.82 C 154.04 121.10 152.62 121.34 151.90 122.36 Z M 151.34 123.16 L 150.76 123.97 C 150.02 124.98 150.25 126.40 151.27 127.13 C 152.28 127.86 153.70 127.63 154.43 126.62 L 155.01 125.81 C 155.74 124.80 155.52 123.38 154.50 122.65 C 153.48 121.92 152.07 122.15 151.34 123.16 Z M 150.77 123.96 L 150.18 124.77 C 149.44 125.77 149.66 127.19 150.66 127.93 C 151.67 128.67 153.09 128.45 153.83 127.44 L 154.42 126.63 C 155.16 125.62 154.94 124.21 153.93 123.47 C 152.92 122.73 151.51 122.95 150.77 123.96 Z M 150.19 124.76 L 149.60 125.55 C 148.85 126.55 149.06 127.97 150.06 128.71 C 151.06 129.45 152.48 129.25 153.22 128.25 L 153.81 127.45 C 154.56 126.45 154.35 125.04 153.35 124.29 C 152.35 123.55 150.93 123.76 150.19 124.76 Z M 149.61 125.54 L 149.00 126.35 C 148.25 127.34 148.45 128.75 149.44 129.50 C 150.43 130.25 151.85 130.06 152.60 129.06 L 153.21 128.26 C 153.96 127.26 153.76 125.85 152.77 125.10 C 151.77 124.35 150.36 124.55 149.61 125.54 Z M 149.02 126.34 L 148.41 127.13 C 147.65 128.11 147.83 129.52 148.82 130.28 C 149.80 131.04 151.21 130.85 151.97 129.87 L 152.58 129.08 C 153.34 128.09 153.15 126.68 152.17 125.93 C 151.19 125.17 149.78 125.35 149.02 126.34 Z M 148.43 127.11 L 147.81 127.90 C 147.04 128.87 147.20 130.28 148.18 131.05 C 149.15 131.81 150.56 131.65 151.32 130.68 L 151.95 129.89 C 152.72 128.92 152.55 127.51 151.58 126.74 C 150.61 125.97 149.20 126.14 148.43 127.11 Z M 147.83 127.88 L 147.19 128.67 C 146.42 129.63 146.56 131.03 147.52 131.81 C 148.47 132.58 149.88 132.44 150.66 131.48 L 151.30 130.69 C 152.07 129.74 151.93 128.33 150.97 127.56 C 150.02 126.78 148.61 126.93 147.83 127.88 Z M 147.22 128.66 L 146.61 129.39 C 145.82 130.33 145.95 131.73 146.89 132.52 C 147.83 133.30 149.23 133.17 150.01 132.23 L 150.63 131.50 C 151.41 130.56 151.28 129.16 150.34 128.37 C 149.41 127.59 148.01 127.72 147.22 128.66 Z M 146.64 129.38 L 146.02 130.10 C 145.23 131.02 145.33 132.41 146.25 133.21 C 147.17 134.00 148.56 133.89 149.35 132.97 L 149.97 132.25 C 150.77 131.33 150.66 129.94 149.74 129.15 C 148.82 128.36 147.44 128.46 146.64 129.38 Z M 146.07 130.08 L 145.37 130.85 C 144.56 131.74 144.63 133.12 145.52 133.93 C 146.42 134.74 147.79 134.67 148.60 133.78 L 149.30 133.00 C 150.11 132.11 150.04 130.73 149.15 129.92 C 148.25 129.11 146.87 129.18 146.07 130.08 Z M 145.43 130.82 L 144.74 131.54 C 143.91 132.40 143.94 133.77 144.80 134.59 C 145.66 135.42 147.03 135.39 147.85 134.53 L 148.54 133.81 C 149.37 132.95 149.34 131.58 148.48 130.75 C 147.62 129.93 146.25 129.96 145.43 130.82 Z M 144.85 131.46 L 144.09 132.15 C 143.22 132.95 143.17 134.31 143.97 135.17 C 144.76 136.04 146.12 136.10 146.99 135.30 L 147.74 134.61 C 148.61 133.81 148.67 132.45 147.87 131.59 C 147.07 130.72 145.72 130.66 144.85 131.46 Z M 144.33 131.99 L 143.50 132.57 C 142.55 133.24 142.31 134.56 142.98 135.51 C 143.65 136.47 144.96 136.70 145.92 136.04 L 146.75 135.46 C 147.70 134.79 147.94 133.48 147.27 132.52 C 146.60 131.56 145.29 131.33 144.33 131.99 Z M 143.90 132.40 L 142.97 132.79 C 141.92 133.24 141.43 134.46 141.88 135.52 C 142.33 136.57 143.55 137.06 144.60 136.61 L 145.53 136.21 C 146.58 135.76 147.07 134.54 146.62 133.49 C 146.17 132.44 144.95 131.95 143.90 132.40 Z M 143.23 132.75 L 142.46 132.97 C 141.38 133.28 140.76 134.40 141.06 135.48 C 141.37 136.56 142.49 137.18 143.57 136.87 L 144.35 136.65 C 145.42 136.34 146.05 135.22 145.74 134.14 C 145.43 133.06 144.31 132.44 143.23 132.75 Z"
      fill="black"
      fill-rule="nonzero" /><path d="M 161.98 113.44 L 162.86 113.79 C 163.92 114.22 165.12 113.71 165.54 112.65 C 165.97 111.59 165.46 110.38 164.40 109.96 L 163.52 109.61 C 162.46 109.18 161.26 109.69 160.83 110.75 C 160.40 111.81 160.92 113.02 161.98 113.44 Z M 162.68 113.81 L 163.61 114.26 C 164.67 114.79 165.96 114.34 166.48 113.28 C 167.01 112.21 166.57 110.92 165.50 110.40 L 164.57 109.94 C 163.51 109.42 162.22 109.86 161.69 110.93 C 161.17 112.00 161.61 113.29 162.68 113.81 Z M 163.47 114.23 L 164.32 114.72 C 165.37 115.32 166.71 114.95 167.31 113.90 C 167.91 112.85 167.54 111.51 166.49 110.91 L 165.64 110.43 C 164.59 109.83 163.25 110.20 162.65 111.25 C 162.05 112.30 162.42 113.63 163.47 114.23 Z M 164.34 114.73 L 165.25 115.23 C 166.30 115.82 167.64 115.44 168.23 114.39 C 168.81 113.33 168.43 111.99 167.38 111.41 L 166.47 110.90 C 165.42 110.31 164.08 110.69 163.49 111.75 C 162.90 112.81 163.28 114.14 164.34 114.73 Z M 165.38 115.26 L 166.33 115.71 C 167.40 116.22 168.69 115.77 169.20 114.70 C 169.71 113.62 169.25 112.34 168.18 111.83 L 167.24 111.38 C 166.16 110.86 164.88 111.32 164.37 112.39 C 163.86 113.47 164.31 114.75 165.38 115.26 Z M 166.50 115.70 L 167.41 116.06 C 168.48 116.47 169.68 115.95 170.10 114.88 C 170.51 113.81 169.99 112.61 168.92 112.20 L 168.01 111.84 C 166.94 111.42 165.74 111.95 165.32 113.02 C 164.91 114.08 165.43 115.28 166.50 115.70 Z M 167.57 116.04 L 168.43 116.31 C 169.48 116.64 170.61 116.05 170.94 114.99 C 171.27 113.94 170.68 112.81 169.62 112.48 L 168.77 112.21 C 167.71 111.88 166.58 112.47 166.25 113.53 C 165.92 114.58 166.51 115.71 167.57 116.04 Z M 168.55 116.30 L 169.50 116.53 C 170.55 116.80 171.62 116.15 171.88 115.10 C 172.14 114.05 171.50 112.98 170.44 112.72 L 169.50 112.49 C 168.44 112.23 167.38 112.87 167.12 113.92 C 166.86 114.97 167.50 116.04 168.55 116.30 Z M 169.55 116.51 L 170.55 116.74 C 171.59 116.97 172.62 116.31 172.85 115.27 C 173.09 114.23 172.43 113.20 171.39 112.96 L 170.39 112.74 C 169.35 112.51 168.32 113.17 168.09 114.21 C 167.85 115.25 168.51 116.28 169.55 116.51 Z M 170.56 116.71 L 171.48 116.91 C 172.50 117.13 173.52 116.48 173.74 115.45 C 173.97 114.43 173.31 113.41 172.29 113.19 L 171.37 112.99 C 170.35 112.76 169.33 113.42 169.11 114.45 C 168.88 115.47 169.54 116.49 170.56 116.71 Z M 171.48 116.89 L 172.50 117.11 C 173.51 117.32 174.51 116.68 174.73 115.66 C 174.95 114.65 174.31 113.65 173.29 113.43 L 172.28 113.21 C 171.26 112.99 170.26 113.64 170.04 114.65 C 169.82 115.67 170.47 116.67 171.48 116.89 Z M 172.50 117.08 L 173.57 117.31 C 174.57 117.53 175.56 116.89 175.78 115.89 C 175.99 114.88 175.35 113.90 174.35 113.68 L 173.28 113.45 C 172.28 113.24 171.29 113.87 171.08 114.88 C 170.86 115.88 171.50 116.87 172.50 117.08 Z M 173.57 117.30 L 173.78 117.34 C 174.77 117.55 175.75 116.92 175.96 115.93 C 176.18 114.93 175.54 113.95 174.55 113.74 L 174.35 113.70 C 173.35 113.48 172.37 114.11 172.16 115.11 C 171.95 116.10 172.58 117.08 173.57 117.30 Z"
      fill="black"
      fill-rule="nonzero" /><path d="M 157.09 128.82 L 158.07 129.01 C 159.21 129.22 160.31 128.46 160.53 127.32 C 160.74 126.18 159.98 125.08 158.84 124.86 L 157.86 124.68 C 156.71 124.47 155.61 125.22 155.40 126.36 C 155.19 127.51 155.94 128.61 157.09 128.82 Z M 158.18 129.04 L 159.17 129.17 C 160.34 129.32 161.40 128.50 161.56 127.33 C 161.71 126.17 160.88 125.10 159.72 124.95 L 158.73 124.83 C 157.56 124.67 156.50 125.50 156.35 126.66 C 156.20 127.83 157.02 128.89 158.18 129.04 Z M 159.39 129.19 L 160.35 129.22 C 161.52 129.26 162.51 128.33 162.54 127.15 C 162.57 125.97 161.65 124.99 160.47 124.96 L 159.51 124.93 C 158.33 124.90 157.35 125.82 157.31 127.00 C 157.28 128.18 158.21 129.16 159.39 129.19 Z M 160.57 129.21 L 161.59 129.13 C 162.76 129.04 163.64 128.02 163.55 126.85 C 163.46 125.67 162.44 124.80 161.26 124.89 L 160.24 124.97 C 159.07 125.06 158.20 126.08 158.29 127.25 C 158.38 128.42 159.40 129.30 160.57 129.21 Z M 161.77 129.09 L 162.73 128.94 C 163.88 128.75 164.66 127.66 164.47 126.51 C 164.28 125.36 163.20 124.58 162.05 124.77 L 161.09 124.93 C 159.94 125.12 159.16 126.20 159.35 127.35 C 159.53 128.50 160.62 129.28 161.77 129.09 Z M 162.82 128.89 L 163.81 128.68 C 164.93 128.44 165.65 127.33 165.41 126.21 C 165.17 125.09 164.07 124.37 162.94 124.61 L 161.95 124.82 C 160.83 125.06 160.11 126.16 160.35 127.29 C 160.59 128.41 161.70 129.13 162.82 128.89 Z M 163.85 128.64 L 164.83 128.40 C 165.93 128.14 166.61 127.04 166.35 125.94 C 166.09 124.84 164.99 124.16 163.89 124.42 L 162.90 124.65 C 161.80 124.91 161.12 126.01 161.38 127.12 C 161.64 128.22 162.75 128.90 163.85 128.64 Z M 164.84 128.36 L 165.76 128.14 C 166.84 127.87 167.50 126.78 167.24 125.70 C 166.97 124.62 165.88 123.96 164.80 124.23 L 163.88 124.46 C 162.80 124.72 162.14 125.81 162.40 126.89 C 162.67 127.97 163.76 128.63 164.84 128.36 Z M 165.76 128.10 L 166.75 127.85 C 167.80 127.59 168.45 126.51 168.18 125.46 C 167.92 124.40 166.84 123.76 165.79 124.02 L 164.80 124.27 C 163.75 124.53 163.10 125.61 163.37 126.66 C 163.63 127.72 164.70 128.36 165.76 128.10 Z M 166.74 127.81 L 167.77 127.56 C 168.81 127.29 169.43 126.24 169.17 125.21 C 168.91 124.17 167.86 123.54 166.82 123.80 L 165.79 124.06 C 164.76 124.32 164.13 125.37 164.39 126.41 C 164.65 127.45 165.70 128.07 166.74 127.81 Z M 167.76 127.53 L 168.77 127.27 C 169.79 127.02 170.42 125.99 170.16 124.97 C 169.91 123.95 168.88 123.32 167.86 123.58 L 166.84 123.83 C 165.82 124.08 165.19 125.12 165.45 126.14 C 165.70 127.16 166.73 127.78 167.76 127.53 Z M 168.75 127.25 L 169.74 127.01 C 170.75 126.77 171.37 125.76 171.13 124.75 C 170.89 123.74 169.88 123.12 168.87 123.36 L 167.88 123.60 C 166.87 123.84 166.25 124.85 166.49 125.86 C 166.73 126.87 167.74 127.49 168.75 127.25 Z M 169.70 126.99 L 170.65 126.79 C 171.65 126.57 172.28 125.58 172.06 124.58 C 171.84 123.59 170.86 122.95 169.86 123.17 L 168.91 123.38 C 167.91 123.60 167.28 124.59 167.50 125.58 C 167.72 126.58 168.70 127.21 169.70 126.99 Z M 170.57 126.78 L 171.63 126.59 C 172.62 126.42 173.29 125.47 173.12 124.48 C 172.94 123.49 172.00 122.82 171.00 123.00 L 169.94 123.18 C 168.95 123.35 168.28 124.30 168.46 125.29 C 168.63 126.29 169.58 126.95 170.57 126.78 Z M 171.55 126.59 L 172.29 126.49 C 173.28 126.36 173.98 125.46 173.85 124.47 C 173.72 123.48 172.81 122.78 171.82 122.91 L 171.08 123.00 C 170.09 123.13 169.39 124.04 169.52 125.03 C 169.65 126.02 170.56 126.72 171.55 126.59 Z"
      fill="black"
      fill-rule="nonzero" /><path d="M 158.28 138.83 L 159.24 139.19 C 160.28 139.58 161.43 139.06 161.82 138.02 C 162.20 136.99 161.68 135.84 160.65 135.45 L 159.69 135.09 C 158.65 134.70 157.50 135.22 157.11 136.26 C 156.73 137.29 157.25 138.44 158.28 138.83 Z M 159.58 139.31 L 160.52 139.48 C 161.62 139.69 162.67 138.96 162.88 137.86 C 163.08 136.76 162.35 135.71 161.25 135.51 L 160.31 135.33 C 159.21 135.13 158.16 135.86 157.96 136.96 C 157.76 138.05 158.48 139.11 159.58 139.31 Z M 161.19 139.51 L 162.12 139.37 C 163.24 139.20 164.00 138.17 163.84 137.06 C 163.67 135.94 162.64 135.18 161.52 135.34 L 160.59 135.48 C 159.48 135.65 158.71 136.68 158.87 137.79 C 159.04 138.91 160.08 139.67 161.19 139.51 Z M 162.57 139.25 L 163.52 138.88 C 164.57 138.47 165.08 137.29 164.67 136.24 C 164.26 135.19 163.08 134.68 162.03 135.09 L 161.08 135.46 C 160.04 135.87 159.52 137.05 159.93 138.10 C 160.34 139.14 161.52 139.66 162.57 139.25 Z M 163.68 138.80 L 164.54 138.37 C 165.54 137.88 165.95 136.66 165.46 135.65 C 164.96 134.65 163.74 134.24 162.74 134.74 L 161.87 135.16 C 160.87 135.66 160.46 136.88 160.96 137.88 C 161.46 138.89 162.67 139.30 163.68 138.80 Z M 164.59 138.33 L 165.52 137.83 C 166.50 137.31 166.87 136.08 166.34 135.10 C 165.82 134.12 164.59 133.75 163.61 134.28 L 162.68 134.78 C 161.70 135.31 161.33 136.53 161.86 137.51 C 162.39 138.49 163.61 138.86 164.59 138.33 Z M 165.53 137.81 L 166.42 137.33 C 167.39 136.79 167.74 135.57 167.21 134.60 C 166.67 133.63 165.46 133.28 164.49 133.81 L 163.60 134.30 C 162.63 134.83 162.28 136.05 162.81 137.02 C 163.34 137.99 164.56 138.34 165.53 137.81 Z M 166.41 137.31 L 167.29 136.83 C 168.25 136.30 168.60 135.09 168.07 134.13 C 167.55 133.17 166.34 132.82 165.38 133.35 L 164.50 133.83 C 163.54 134.36 163.18 135.56 163.71 136.52 C 164.24 137.49 165.44 137.84 166.41 137.31 Z M 167.27 136.82 L 168.15 136.34 C 169.11 135.82 169.46 134.63 168.95 133.68 C 168.43 132.72 167.24 132.36 166.28 132.88 L 165.40 133.36 C 164.44 133.87 164.09 135.07 164.60 136.02 C 165.12 136.98 166.31 137.33 167.27 136.82 Z M 168.12 136.34 L 169.05 135.85 C 170.01 135.35 170.37 134.17 169.87 133.22 C 169.37 132.26 168.19 131.89 167.24 132.39 L 166.31 132.88 C 165.36 133.38 164.99 134.56 165.49 135.52 C 165.99 136.47 167.17 136.84 168.12 136.34 Z M 169.02 135.85 L 169.91 135.40 C 170.86 134.91 171.24 133.75 170.76 132.80 C 170.28 131.84 169.11 131.46 168.16 131.95 L 167.27 132.40 C 166.32 132.88 165.94 134.04 166.42 135.00 C 166.90 135.95 168.07 136.33 169.02 135.85 Z M 169.87 135.40 L 170.76 134.97 C 171.72 134.51 172.12 133.36 171.65 132.40 C 171.19 131.45 170.04 131.05 169.09 131.51 L 168.20 131.94 C 167.24 132.40 166.84 133.55 167.31 134.51 C 167.77 135.46 168.92 135.86 169.87 135.40 Z M 170.69 134.99 L 171.62 134.59 C 172.58 134.16 173.02 133.03 172.60 132.07 C 172.17 131.10 171.04 130.66 170.08 131.08 L 169.15 131.49 C 168.19 131.91 167.75 133.04 168.17 134.01 C 168.60 134.98 169.73 135.42 170.69 134.99 Z M 171.48 134.65 L 172.46 134.30 C 173.46 133.95 173.99 132.85 173.64 131.85 C 173.28 130.85 172.19 130.33 171.19 130.68 L 170.21 131.03 C 169.21 131.38 168.68 132.48 169.04 133.47 C 169.39 134.47 170.48 135.00 171.48 134.65 Z M 172.03 134.43 L 172.99 134.33 C 174.06 134.21 174.84 133.26 174.73 132.19 C 174.62 131.12 173.66 130.34 172.59 130.45 L 171.62 130.55 C 170.55 130.66 169.78 131.62 169.89 132.69 C 170.00 133.76 170.96 134.54 172.03 134.43 Z M 170.80 132.47 L 170.83 133.11 C 170.87 134.21 171.80 135.06 172.90 135.02 C 173.99 134.98 174.85 134.05 174.81 132.95 L 174.78 132.31 C 174.74 131.21 173.81 130.36 172.71 130.40 C 171.61 130.44 170.76 131.37 170.80 132.47 Z M 171.06 132.01 L 170.48 133.02 C 169.92 133.99 170.25 135.23 171.21 135.79 C 172.18 136.35 173.42 136.02 173.98 135.06 L 174.57 134.05 C 175.13 133.08 174.80 131.84 173.84 131.28 C 172.87 130.72 171.63 131.05 171.06 132.01 Z M 170.58 132.83 L 170.00 133.62 C 169.33 134.53 169.53 135.81 170.44 136.48 C 171.36 137.15 172.64 136.95 173.30 136.04 L 173.88 135.25 C 174.55 134.34 174.35 133.06 173.44 132.39 C 172.53 131.72 171.25 131.92 170.58 132.83 Z M 170.05 133.55 L 169.41 134.35 C 168.70 135.23 168.85 136.52 169.73 137.23 C 170.61 137.94 171.91 137.80 172.61 136.91 L 173.25 136.11 C 173.96 135.23 173.82 133.94 172.94 133.23 C 172.05 132.52 170.76 132.66 170.05 133.55 Z M 169.43 134.33 L 168.87 135.01 C 168.15 135.89 168.27 137.18 169.15 137.90 C 170.02 138.62 171.31 138.49 172.03 137.62 L 172.60 136.93 C 173.32 136.06 173.19 134.76 172.32 134.04 C 171.44 133.32 170.15 133.45 169.43 134.33 Z M 168.89 135.00 L 168.24 135.77 C 167.51 136.63 167.62 137.92 168.48 138.65 C 169.35 139.37 170.64 139.26 171.36 138.40 L 172.01 137.63 C 172.74 136.77 172.63 135.48 171.76 134.75 C 170.90 134.02 169.61 134.14 168.89 135.00 Z M 168.26 135.75 L 167.55 136.58 C 166.82 137.43 166.91 138.71 167.76 139.45 C 168.61 140.18 169.90 140.09 170.63 139.24 L 171.34 138.41 C 172.07 137.56 171.98 136.28 171.13 135.54 C 170.28 134.81 168.99 134.90 168.26 135.75 Z M 167.57 136.57 L 166.91 137.31 C 166.17 138.15 166.25 139.43 167.09 140.17 C 167.93 140.91 169.21 140.83 169.95 139.99 L 170.61 139.25 C 171.35 138.41 171.27 137.13 170.43 136.39 C 169.59 135.65 168.31 135.73 167.57 136.57 Z M 166.93 137.31 L 166.24 138.08 C 165.50 138.91 165.57 140.19 166.40 140.93 C 167.23 141.67 168.51 141.60 169.25 140.77 L 169.94 140.00 C 170.68 139.17 170.61 137.89 169.78 137.15 C 168.95 136.41 167.67 136.48 166.93 137.31 Z M 166.26 138.07 L 165.58 138.82 C 164.83 139.64 164.90 140.91 165.72 141.66 C 166.54 142.40 167.81 142.34 168.56 141.52 L 169.23 140.77 C 169.98 139.95 169.92 138.68 169.09 137.93 C 168.27 137.19 167.00 137.25 166.26 138.07 Z M 165.60 138.82 L 164.92 139.56 C 164.17 140.37 164.22 141.63 165.03 142.38 C 165.84 143.12 167.10 143.07 167.85 142.26 L 168.53 141.52 C 169.28 140.71 169.23 139.45 168.42 138.71 C 167.61 137.96 166.35 138.01 165.60 138.82 Z M 164.96 139.57 L 164.29 140.27 C 163.54 141.06 163.58 142.30 164.36 143.05 C 165.15 143.79 166.39 143.76 167.14 142.97 L 167.81 142.26 C 168.55 141.47 168.52 140.23 167.73 139.49 C 166.94 138.74 165.70 138.78 164.96 139.57 Z M 164.33 140.28 L 163.65 140.98 C 162.91 141.75 162.92 142.97 163.69 143.71 C 164.45 144.45 165.67 144.43 166.41 143.67 L 167.10 142.96 C 167.84 142.20 167.82 140.98 167.06 140.24 C 166.29 139.50 165.07 139.51 164.33 140.28 Z M 163.68 140.99 L 162.98 141.70 C 162.24 142.45 162.25 143.65 162.99 144.39 C 163.73 145.12 164.94 145.12 165.67 144.37 L 166.38 143.66 C 167.11 142.91 167.11 141.71 166.36 140.98 C 165.62 140.24 164.42 140.25 163.68 140.99 Z M 163.00 141.71 L 162.28 142.43 C 161.55 143.16 161.54 144.35 162.27 145.08 C 163.00 145.81 164.19 145.81 164.92 145.08 L 165.64 144.36 C 166.38 143.63 166.38 142.45 165.65 141.72 C 164.92 140.98 163.73 140.98 163.00 141.71 Z M 162.30 142.44 L 161.57 143.16 C 160.84 143.87 160.83 145.04 161.54 145.77 C 162.26 146.50 163.43 146.52 164.16 145.80 L 164.90 145.08 C 165.63 144.36 165.64 143.19 164.92 142.46 C 164.21 141.73 163.03 141.72 162.30 142.44 Z M 161.60 143.16 L 160.90 143.83 C 160.17 144.53 160.14 145.69 160.84 146.42 C 161.54 147.15 162.70 147.17 163.43 146.47 L 164.13 145.80 C 164.86 145.10 164.89 143.94 164.19 143.21 C 163.49 142.48 162.33 142.46 161.60 143.16 Z M 160.92 143.81 L 160.12 144.55 C 159.37 145.24 159.33 146.39 160.01 147.14 C 160.70 147.88 161.85 147.92 162.60 147.24 L 163.41 146.49 C 164.15 145.81 164.19 144.65 163.51 143.91 C 162.82 143.17 161.67 143.12 160.92 143.81 Z M 160.13 144.52 L 159.41 145.16 C 158.65 145.83 158.58 147.00 159.25 147.76 C 159.93 148.52 161.09 148.59 161.86 147.92 L 162.58 147.28 C 163.34 146.60 163.41 145.44 162.74 144.67 C 162.06 143.91 160.89 143.84 160.13 144.52 Z M 159.41 145.13 L 158.90 145.58 C 158.12 146.25 158.04 147.43 158.71 148.20 C 159.39 148.98 160.56 149.06 161.34 148.39 L 161.85 147.94 C 162.63 147.27 162.71 146.09 162.04 145.32 C 161.36 144.54 160.19 144.46 159.41 145.13 Z"
      fill="black"
      fill-rule="nonzero" /><path d="M 153.12 148.33 L 153.33 149.29 C 153.56 150.38 154.63 151.08 155.72 150.84 C 156.81 150.61 157.50 149.54 157.27 148.45 L 157.07 147.49 C 156.84 146.40 155.77 145.70 154.68 145.94 C 153.59 146.17 152.89 147.24 153.12 148.33 Z M 153.18 149.28 L 153.38 150.27 C 153.60 151.44 154.73 152.20 155.90 151.98 C 157.07 151.75 157.83 150.62 157.61 149.45 L 157.41 148.46 C 157.19 147.29 156.06 146.53 154.89 146.76 C 153.72 146.98 152.96 148.11 153.18 149.28 Z M 153.30 150.22 L 153.45 151.16 C 153.65 152.37 154.80 153.19 156.01 152.99 C 157.22 152.79 158.04 151.64 157.84 150.43 L 157.69 149.50 C 157.49 148.29 156.34 147.47 155.13 147.67 C 153.92 147.87 153.10 149.01 153.30 150.22 Z M 153.43 151.09 L 153.57 152.13 C 153.74 153.35 154.87 154.21 156.09 154.04 C 157.31 153.87 158.17 152.75 158.00 151.53 L 157.86 150.49 C 157.69 149.27 156.57 148.41 155.34 148.58 C 154.12 148.75 153.27 149.87 153.43 151.09 Z M 153.56 152.08 L 153.68 153.10 C 153.82 154.33 154.92 155.21 156.15 155.08 C 157.38 154.94 158.26 153.83 158.13 152.60 L 158.01 151.58 C 157.87 150.35 156.77 149.47 155.54 149.60 C 154.31 149.74 153.43 150.85 153.56 152.08 Z M 153.67 153.07 L 153.77 154.09 C 153.89 155.32 154.99 156.22 156.22 156.10 C 157.45 155.98 158.35 154.88 158.23 153.65 L 158.13 152.63 C 158.01 151.40 156.92 150.50 155.68 150.62 C 154.45 150.74 153.55 151.84 153.67 153.07 Z M 153.77 154.07 L 153.86 155.07 C 153.97 156.30 155.05 157.21 156.28 157.10 C 157.51 157.00 158.43 155.91 158.32 154.68 L 158.23 153.68 C 158.12 152.44 157.04 151.53 155.81 151.64 C 154.57 151.75 153.66 152.84 153.77 154.07 Z M 153.86 155.04 L 153.94 156.05 C 154.04 157.28 155.11 158.20 156.34 158.11 C 157.56 158.01 158.48 156.94 158.39 155.71 L 158.31 154.71 C 158.22 153.48 157.15 152.56 155.92 152.65 C 154.69 152.74 153.77 153.82 153.86 155.04 Z M 153.95 156.01 L 154.01 156.95 C 154.08 158.18 155.13 159.11 156.35 159.04 C 157.58 158.97 158.51 157.91 158.44 156.69 L 158.38 155.75 C 158.31 154.53 157.26 153.60 156.03 153.67 C 154.81 153.74 153.88 154.79 153.95 156.01 Z M 154.02 156.92 L 154.06 157.92 C 154.11 159.14 155.15 160.08 156.37 160.03 C 157.58 159.97 158.53 158.94 158.47 157.72 L 158.43 156.72 C 158.37 155.50 157.34 154.56 156.12 154.62 C 154.90 154.67 153.96 155.70 154.02 156.92 Z M 154.07 157.91 L 154.11 158.90 C 154.16 160.11 155.18 161.05 156.39 161.01 C 157.60 160.96 158.55 159.94 158.50 158.73 L 158.46 157.73 C 158.41 156.52 157.39 155.58 156.18 155.63 C 154.97 155.67 154.02 156.70 154.07 157.91 Z M 154.12 158.88 L 154.16 159.88 C 154.19 161.09 155.20 162.03 156.41 162.00 C 157.61 161.96 158.56 160.95 158.52 159.75 L 158.49 158.74 C 158.45 157.54 157.44 156.59 156.24 156.63 C 155.03 156.67 154.09 157.68 154.12 158.88 Z M 154.17 159.85 L 154.18 160.87 C 154.20 162.06 155.19 163.02 156.39 163.00 C 157.58 162.98 158.54 162.00 158.52 160.80 L 158.51 159.78 C 158.49 158.58 157.50 157.63 156.30 157.65 C 155.11 157.67 154.15 158.65 154.17 159.85 Z M 154.20 160.84 L 154.20 161.84 C 154.21 163.03 155.17 163.99 156.36 163.99 C 157.55 163.98 158.51 163.02 158.51 161.83 L 158.51 160.83 C 158.50 159.64 157.54 158.67 156.35 158.68 C 155.16 158.68 154.20 159.65 154.20 160.84 Z M 154.22 161.83 L 154.22 162.86 C 154.22 164.04 155.17 165.00 156.36 165.00 C 157.54 165.00 158.50 164.04 158.50 162.86 L 158.50 161.83 C 158.50 160.65 157.54 159.69 156.36 159.69 C 155.17 159.69 154.22 160.65 154.22 161.83 Z M 154.23 162.86 L 154.23 163.82 C 154.23 165.00 155.18 165.95 156.36 165.95 C 157.53 165.95 158.48 165.00 158.48 163.82 L 158.48 162.86 C 158.48 161.68 157.53 160.73 156.36 160.73 C 155.18 160.73 154.23 161.68 154.23 162.86 Z M 154.25 163.82 L 154.25 164.78 C 154.25 165.94 155.19 166.89 156.36 166.89 C 157.52 166.89 158.47 165.94 158.47 164.78 L 158.47 163.82 C 158.47 162.66 157.52 161.71 156.36 161.71 C 155.19 161.71 154.25 162.66 154.25 163.82 Z M 154.26 164.78 L 154.26 165.81 C 154.26 166.96 155.20 167.90 156.36 167.90 C 157.51 167.90 158.45 166.96 158.45 165.81 L 158.45 164.78 C 158.45 163.62 157.51 162.68 156.36 162.68 C 155.20 162.68 154.26 163.62 154.26 164.78 Z M 154.28 165.81 L 154.28 166.82 C 154.28 167.97 155.21 168.90 156.36 168.90 C 157.50 168.90 158.43 167.97 158.43 166.82 L 158.43 165.81 C 158.43 164.66 157.50 163.73 156.36 163.73 C 155.21 163.73 154.28 164.66 154.28 165.81 Z M 154.30 166.82 L 154.30 167.97 C 154.30 169.11 155.22 170.03 156.36 170.03 C 157.49 170.03 158.42 169.11 158.42 167.97 L 158.42 166.82 C 158.42 165.68 157.49 164.76 156.36 164.76 C 155.22 164.76 154.30 165.68 154.30 166.82 Z M 154.33 167.94 L 154.32 168.75 C 154.30 169.87 155.20 170.79 156.31 170.80 C 157.43 170.82 158.35 169.93 158.37 168.81 L 158.38 168.00 C 158.40 166.88 157.50 165.96 156.39 165.94 C 155.27 165.93 154.35 166.82 154.33 167.94 Z M 158.30 168.69 L 158.27 167.95 C 158.22 166.87 157.31 166.03 156.23 166.08 C 155.15 166.13 154.31 167.04 154.36 168.12 L 154.39 168.86 C 154.43 169.94 155.35 170.78 156.43 170.73 C 157.51 170.69 158.35 169.77 158.30 168.69 Z M 158.20 168.00 L 158.18 166.77 C 158.16 165.73 157.30 164.90 156.26 164.92 C 155.22 164.94 154.39 165.80 154.40 166.84 L 154.42 168.07 C 154.44 169.11 155.30 169.94 156.34 169.92 C 157.39 169.91 158.22 169.05 158.20 168.00 Z M 158.15 166.79 L 158.14 165.79 C 158.14 164.77 157.30 163.94 156.27 163.94 C 155.25 163.95 154.42 164.79 154.43 165.81 L 154.43 166.82 C 154.44 167.84 155.27 168.67 156.30 168.66 C 157.33 168.66 158.16 167.82 158.15 166.79 Z M 158.14 165.80 L 158.14 164.77 C 158.14 163.75 157.30 162.92 156.28 162.92 C 155.26 162.92 154.43 163.76 154.43 164.78 L 154.43 165.81 C 154.43 166.83 155.26 167.66 156.29 167.66 C 157.31 167.66 158.14 166.82 158.14 165.80 Z M 158.14 164.78 L 158.14 163.79 C 158.14 162.77 157.31 161.94 156.29 161.94 C 155.27 161.94 154.44 162.77 154.43 163.79 L 154.43 164.77 C 154.43 165.80 155.26 166.63 156.28 166.63 C 157.30 166.63 158.13 165.80 158.14 164.78 Z M 158.14 163.84 L 158.17 162.88 C 158.20 161.85 157.39 161.00 156.36 160.97 C 155.34 160.94 154.48 161.75 154.46 162.78 L 154.43 163.74 C 154.40 164.77 155.21 165.62 156.24 165.65 C 157.26 165.67 158.11 164.87 158.14 163.84 Z M 158.17 162.98 L 158.26 161.95 C 158.34 160.93 157.58 160.02 156.56 159.94 C 155.53 159.85 154.63 160.61 154.54 161.64 L 154.45 162.67 C 154.37 163.70 155.13 164.60 156.15 164.68 C 157.18 164.77 158.08 164.01 158.17 162.98 Z M 158.25 162.07 L 158.40 161.10 C 158.55 160.08 157.84 159.12 156.81 158.97 C 155.79 158.82 154.84 159.53 154.69 160.55 L 154.54 161.52 C 154.39 162.55 155.10 163.50 156.13 163.65 C 157.15 163.80 158.10 163.09 158.25 162.07 Z M 158.40 161.18 L 158.59 160.18 C 158.78 159.16 158.11 158.17 157.09 157.97 C 156.06 157.78 155.07 158.45 154.88 159.47 L 154.69 160.47 C 154.49 161.50 155.16 162.49 156.19 162.68 C 157.21 162.88 158.20 162.21 158.40 161.18 Z M 158.59 160.25 L 158.81 159.25 C 159.04 158.22 158.40 157.20 157.38 156.97 C 156.35 156.74 155.33 157.38 155.10 158.41 L 154.88 159.41 C 154.64 160.43 155.29 161.45 156.31 161.68 C 157.34 161.91 158.36 161.27 158.59 160.25 Z M 158.81 159.31 L 159.07 158.31 C 159.33 157.29 158.72 156.24 157.69 155.98 C 156.67 155.71 155.63 156.33 155.36 157.35 L 155.10 158.35 C 154.84 159.37 155.45 160.42 156.48 160.68 C 157.50 160.95 158.55 160.33 158.81 159.31 Z M 159.05 158.38 L 159.34 157.40 C 159.65 156.39 159.07 155.32 158.05 155.02 C 157.04 154.72 155.97 155.29 155.66 156.31 L 155.37 157.28 C 155.07 158.30 155.65 159.37 156.67 159.67 C 157.68 159.97 158.75 159.39 159.05 158.38 Z M 159.32 157.48 L 159.64 156.56 C 159.98 155.55 159.44 154.46 158.43 154.12 C 157.43 153.78 156.34 154.32 156.00 155.32 L 155.68 156.24 C 155.34 157.24 155.88 158.34 156.89 158.68 C 157.89 159.02 158.98 158.48 159.32 157.48 Z M 159.62 156.62 L 159.96 155.71 C 160.34 154.72 159.84 153.61 158.84 153.23 C 157.85 152.85 156.74 153.35 156.36 154.35 L 156.01 155.26 C 155.64 156.25 156.14 157.37 157.13 157.74 C 158.13 158.12 159.24 157.62 159.62 156.62 Z M 159.94 155.78 L 160.33 154.85 C 160.74 153.87 160.28 152.74 159.29 152.32 C 158.31 151.91 157.17 152.38 156.76 153.36 L 156.38 154.28 C 155.96 155.27 156.43 156.40 157.41 156.81 C 158.40 157.23 159.53 156.76 159.94 155.78 Z M 160.31 154.93 L 160.73 154.02 C 161.19 153.05 160.77 151.89 159.80 151.44 C 158.83 150.98 157.67 151.40 157.21 152.37 L 156.79 153.28 C 156.33 154.26 156.75 155.41 157.72 155.87 C 158.69 156.32 159.85 155.91 160.31 154.93 Z M 160.69 154.12 L 161.17 153.23 C 161.68 152.28 161.32 151.10 160.37 150.59 C 159.42 150.08 158.24 150.44 157.73 151.39 L 157.25 152.28 C 156.74 153.23 157.10 154.41 158.05 154.92 C 159.00 155.43 160.19 155.07 160.69 154.12 Z M 161.12 153.33 L 161.64 152.47 C 162.21 151.55 161.92 150.35 161.00 149.78 C 160.07 149.22 158.87 149.51 158.30 150.43 L 157.78 151.29 C 157.21 152.21 157.50 153.41 158.43 153.98 C 159.35 154.54 160.55 154.25 161.12 153.33 Z M 161.58 152.57 L 162.15 151.76 C 162.77 150.87 162.55 149.65 161.66 149.03 C 160.78 148.41 159.55 148.63 158.93 149.51 L 158.37 150.33 C 157.75 151.22 157.96 152.44 158.85 153.06 C 159.74 153.68 160.96 153.46 161.58 152.57 Z M 162.08 151.86 L 162.70 151.07 C 163.38 150.22 163.24 148.98 162.39 148.31 C 161.54 147.64 160.30 147.78 159.63 148.63 L 159.00 149.42 C 158.33 150.27 158.47 151.50 159.32 152.18 C 160.17 152.85 161.41 152.71 162.08 151.86 Z M 162.63 151.16 L 163.30 150.41 C 164.02 149.60 163.96 148.36 163.15 147.64 C 162.34 146.91 161.10 146.98 160.37 147.79 L 159.70 148.54 C 158.98 149.35 159.05 150.59 159.86 151.31 C 160.66 152.04 161.91 151.97 162.63 151.16 Z M 163.22 150.49 L 163.92 149.79 C 164.69 149.03 164.69 147.78 163.93 147.01 C 163.16 146.25 161.91 146.25 161.15 147.01 L 160.45 147.71 C 159.68 148.48 159.68 149.72 160.45 150.49 C 161.21 151.26 162.46 151.26 163.22 150.49 Z M 163.85 149.87 L 164.63 149.17 C 165.44 148.45 165.51 147.21 164.78 146.39 C 164.06 145.58 162.81 145.51 162.00 146.24 L 161.22 146.94 C 160.41 147.66 160.34 148.90 161.07 149.71 C 161.79 150.53 163.04 150.60 163.85 149.87 Z M 164.53 149.27 L 165.32 148.65 C 166.18 147.98 166.34 146.74 165.67 145.88 C 165.00 145.02 163.76 144.86 162.89 145.53 L 162.10 146.14 C 161.24 146.81 161.08 148.06 161.75 148.92 C 162.42 149.78 163.66 149.94 164.53 149.27 Z M 165.16 148.77 L 165.98 148.26 C 166.91 147.68 167.19 146.46 166.61 145.53 C 166.03 144.60 164.81 144.32 163.88 144.90 L 163.05 145.41 C 162.13 145.99 161.84 147.21 162.42 148.14 C 163.00 149.07 164.23 149.35 165.16 148.77 Z M 165.70 148.41 L 166.61 148.02 C 167.62 147.60 168.09 146.43 167.67 145.42 C 167.24 144.41 166.08 143.94 165.07 144.37 L 164.16 144.75 C 163.15 145.18 162.67 146.34 163.10 147.35 C 163.53 148.36 164.69 148.83 165.70 148.41 Z M 166.26 148.13 L 167.24 147.92 C 168.31 147.69 168.98 146.63 168.75 145.56 C 168.52 144.49 167.47 143.81 166.40 144.05 L 165.42 144.26 C 164.35 144.49 163.67 145.54 163.91 146.61 C 164.14 147.68 165.19 148.36 166.26 148.13 Z M 166.88 147.98 L 167.91 147.94 C 169.01 147.91 169.88 146.99 169.84 145.88 C 169.81 144.78 168.89 143.92 167.79 143.95 L 166.75 143.99 C 165.65 144.02 164.79 144.94 164.82 146.05 C 164.86 147.15 165.78 148.01 166.88 147.98 Z M 167.28 147.88 L 168.17 148.15 C 169.24 148.46 170.36 147.85 170.68 146.78 C 171.00 145.72 170.39 144.59 169.32 144.28 L 168.42 144.01 C 167.35 143.70 166.23 144.31 165.91 145.38 C 165.60 146.45 166.21 147.57 167.28 147.88 Z M 167.22 147.57 L 167.87 148.29 C 168.62 149.13 169.91 149.20 170.75 148.45 C 171.59 147.70 171.66 146.41 170.91 145.57 L 170.27 144.85 C 169.51 144.01 168.22 143.94 167.38 144.69 C 166.54 145.44 166.47 146.73 167.22 147.57 Z M 167.48 147.73 L 167.85 148.61 C 168.30 149.66 169.51 150.15 170.56 149.71 C 171.61 149.27 172.10 148.06 171.66 147.01 L 171.29 146.13 C 170.85 145.08 169.64 144.58 168.59 145.03 C 167.53 145.47 167.04 146.68 167.48 147.73 Z M 167.74 148.37 L 168.01 149.34 C 168.33 150.45 169.48 151.10 170.59 150.79 C 171.71 150.48 172.35 149.32 172.04 148.21 L 171.77 147.24 C 171.46 146.13 170.30 145.48 169.19 145.79 C 168.08 146.11 167.43 147.26 167.74 148.37 Z M 167.96 149.21 L 168.18 150.27 C 168.42 151.42 169.55 152.15 170.69 151.90 C 171.84 151.66 172.57 150.54 172.33 149.39 L 172.10 148.33 C 171.86 147.19 170.73 146.46 169.59 146.70 C 168.44 146.94 167.71 148.07 167.96 149.21 Z M 168.15 150.20 L 168.33 151.23 C 168.53 152.39 169.64 153.17 170.80 152.96 C 171.97 152.76 172.74 151.65 172.54 150.49 L 172.36 149.46 C 172.15 148.30 171.05 147.52 169.88 147.73 C 168.72 147.93 167.94 149.04 168.15 150.20 Z M 168.31 151.18 L 168.45 152.15 C 168.63 153.33 169.73 154.14 170.90 153.96 C 172.08 153.78 172.89 152.68 172.71 151.51 L 172.56 150.54 C 172.38 149.36 171.29 148.55 170.11 148.73 C 168.94 148.91 168.13 150.01 168.31 151.18 Z M 168.43 152.09 L 168.56 153.14 C 168.71 154.33 169.79 155.17 170.97 155.03 C 172.16 154.88 173.00 153.80 172.85 152.62 L 172.73 151.57 C 172.58 150.38 171.50 149.54 170.32 149.68 C 169.13 149.83 168.29 150.91 168.43 152.09 Z M 168.55 153.06 L 168.63 153.97 C 168.73 155.16 169.77 156.05 170.96 155.95 C 172.15 155.85 173.04 154.81 172.94 153.62 L 172.87 152.70 C 172.77 151.51 171.72 150.63 170.53 150.72 C 169.34 150.82 168.45 151.87 168.55 153.06 Z M 168.62 153.91 L 168.68 154.90 C 168.74 156.09 169.76 157.01 170.96 156.94 C 172.15 156.87 173.07 155.85 173.00 154.66 L 172.94 153.67 C 172.88 152.48 171.86 151.57 170.66 151.63 C 169.47 151.70 168.56 152.72 168.62 153.91 Z M 168.68 154.88 L 168.72 155.88 C 168.78 157.07 169.79 158.00 170.98 157.94 C 172.18 157.89 173.10 156.88 173.05 155.68 L 173.00 154.68 C 172.95 153.49 171.93 152.56 170.74 152.62 C 169.55 152.67 168.62 153.68 168.68 154.88 Z M 168.72 155.87 L 168.77 156.87 C 168.82 158.07 169.82 158.99 171.02 158.94 C 172.21 158.89 173.14 157.88 173.09 156.69 L 173.04 155.69 C 172.99 154.50 171.99 153.57 170.79 153.62 C 169.60 153.67 168.67 154.68 168.72 155.87 Z M 168.77 156.86 L 168.81 157.86 C 168.85 159.05 169.85 159.98 171.04 159.93 C 172.23 159.89 173.16 158.89 173.12 157.70 L 173.08 156.70 C 173.04 155.51 172.04 154.58 170.85 154.63 C 169.66 154.67 168.73 155.67 168.77 156.86 Z M 168.82 157.86 L 168.85 158.86 C 168.90 160.04 169.89 160.97 171.08 160.92 C 172.26 160.88 173.19 159.89 173.14 158.70 L 173.11 157.70 C 173.07 156.52 172.07 155.59 170.89 155.63 C 169.70 155.68 168.78 156.67 168.82 157.86 Z M 168.87 158.86 L 168.90 159.84 C 168.95 161.02 169.94 161.94 171.11 161.89 C 172.29 161.85 173.21 160.86 173.17 159.68 L 173.13 158.70 C 173.09 157.52 172.10 156.60 170.92 156.65 C 169.74 156.69 168.82 157.68 168.87 158.86 Z M 168.92 159.81 L 168.94 160.83 C 168.97 162.00 169.94 162.93 171.11 162.90 C 172.28 162.87 173.21 161.90 173.18 160.73 L 173.16 159.71 C 173.13 158.54 172.16 157.61 170.99 157.64 C 169.82 157.67 168.89 158.64 168.92 159.81 Z M 168.96 160.79 L 168.96 161.80 C 168.97 162.96 169.92 163.90 171.08 163.89 C 172.24 163.88 173.18 162.94 173.17 161.77 L 173.16 160.77 C 173.15 159.60 172.21 158.67 171.05 158.68 C 169.88 158.68 168.95 159.63 168.96 160.79 Z M 168.98 161.79 L 168.98 162.80 C 168.99 163.95 169.92 164.88 171.07 164.88 C 172.22 164.88 173.15 163.95 173.15 162.80 L 173.15 161.79 C 173.15 160.64 172.21 159.71 171.07 159.71 C 169.92 159.71 168.98 160.64 168.98 161.79 Z M 169.00 162.80 L 169.00 163.79 C 169.00 164.93 169.93 165.85 171.07 165.85 C 172.21 165.85 173.13 164.93 173.13 163.79 L 173.13 162.80 C 173.13 161.66 172.21 160.74 171.07 160.74 C 169.93 160.74 169.00 161.66 169.00 162.80 Z M 169.02 163.79 L 169.02 164.79 C 169.02 165.91 169.94 166.83 171.07 166.83 C 172.20 166.83 173.11 165.91 173.11 164.79 L 173.11 163.79 C 173.11 162.66 172.20 161.74 171.07 161.74 C 169.94 161.74 169.02 162.66 169.02 163.79 Z M 169.04 164.79 L 169.04 165.77 C 169.04 166.89 169.95 167.80 171.07 167.80 C 172.19 167.80 173.09 166.89 173.09 165.77 L 173.09 164.79 C 173.09 163.67 172.19 162.76 171.07 162.76 C 169.95 162.76 169.04 163.67 169.04 164.79 Z M 169.06 165.77 L 169.06 166.72 C 169.06 167.83 169.96 168.73 171.07 168.73 C 172.18 168.73 173.07 167.83 173.07 166.72 L 173.07 165.77 C 173.07 164.66 172.18 163.77 171.07 163.77 C 169.96 163.77 169.06 164.66 169.06 165.77 Z M 169.08 166.72 L 169.08 167.75 C 169.08 168.84 169.97 169.74 171.07 169.74 C 172.16 169.74 173.06 168.85 173.06 167.75 L 173.06 166.72 C 173.06 165.62 172.17 164.73 171.07 164.73 C 169.97 164.73 169.08 165.62 169.08 166.72 Z M 169.09 167.70 L 169.07 168.69 C 169.05 169.77 169.92 170.68 171.00 170.70 C 172.09 170.72 172.99 169.86 173.02 168.77 L 173.04 167.79 C 173.06 166.70 172.20 165.80 171.11 165.77 C 170.02 165.75 169.12 166.62 169.09 167.70 Z M 169.10 168.56 L 169.01 169.60 C 168.91 170.68 169.71 171.63 170.79 171.72 C 171.86 171.81 172.81 171.02 172.90 169.94 L 172.99 168.90 C 173.09 167.82 172.29 166.87 171.21 166.78 C 170.14 166.69 169.19 167.48 169.10 168.56 Z M 169.06 169.41 L 168.87 170.40 C 168.67 171.45 169.36 172.45 170.41 172.65 C 171.46 172.85 172.47 172.16 172.67 171.11 L 172.85 170.13 C 173.05 169.08 172.36 168.07 171.31 167.88 C 170.27 167.68 169.26 168.37 169.06 169.41 Z M 168.93 170.27 L 168.68 171.24 C 168.41 172.25 169.02 173.29 170.03 173.56 C 171.04 173.83 172.08 173.22 172.35 172.21 L 172.60 171.24 C 172.87 170.23 172.27 169.19 171.25 168.92 C 170.24 168.65 169.20 169.26 168.93 170.27 Z M 168.72 171.20 L 168.55 171.77 C 168.26 172.76 168.83 173.80 169.82 174.09 C 170.81 174.38 171.85 173.81 172.14 172.82 L 172.31 172.25 C 172.60 171.26 172.03 170.22 171.04 169.93 C 170.05 169.64 169.01 170.21 168.72 171.20 Z"
      fill="black"
      fill-rule="nonzero" /><path d="M 156.95 162.65 L 157.91 162.96 C 159.03 163.31 160.23 162.69 160.59 161.57 C 160.94 160.45 160.32 159.25 159.20 158.90 L 158.24 158.59 C 157.12 158.23 155.92 158.85 155.57 159.97 C 155.21 161.10 155.83 162.29 156.95 162.65 Z M 158.35 163.09 L 159.33 163.18 C 160.53 163.29 161.59 162.41 161.70 161.22 C 161.81 160.02 160.93 158.96 159.73 158.85 L 158.76 158.76 C 157.56 158.65 156.50 159.53 156.39 160.73 C 156.28 161.92 157.16 162.98 158.35 163.09 Z M 160.02 163.13 L 160.90 162.92 C 162.07 162.65 162.79 161.48 162.52 160.32 C 162.24 159.15 161.08 158.43 159.91 158.70 L 159.04 158.90 C 157.87 159.18 157.14 160.34 157.42 161.51 C 157.69 162.68 158.86 163.40 160.02 163.13 Z M 161.24 162.76 L 162.21 162.34 C 163.28 161.88 163.78 160.64 163.32 159.56 C 162.86 158.49 161.62 157.99 160.54 158.45 L 159.57 158.87 C 158.50 159.32 158.00 160.57 158.46 161.64 C 158.92 162.72 160.16 163.22 161.24 162.76 Z M 162.28 162.25 L 163.22 161.80 C 164.24 161.29 164.67 160.06 164.16 159.03 C 163.66 158.01 162.43 157.58 161.40 158.08 L 160.47 158.54 C 159.45 159.04 159.02 160.28 159.52 161.30 C 160.02 162.33 161.26 162.75 162.28 162.25 Z M 163.22 161.74 L 164.14 161.27 C 165.13 160.77 165.53 159.56 165.02 158.56 C 164.52 157.57 163.31 157.17 162.32 157.68 L 161.40 158.14 C 160.41 158.65 160.01 159.86 160.51 160.85 C 161.02 161.84 162.23 162.24 163.22 161.74 Z M 164.14 161.21 L 165.02 160.75 C 165.98 160.25 166.35 159.06 165.85 158.10 C 165.34 157.14 164.15 156.77 163.19 157.27 L 162.31 157.74 C 161.35 158.24 160.98 159.43 161.49 160.39 C 161.99 161.35 163.18 161.72 164.14 161.21 Z M 165.03 160.69 L 165.95 160.19 C 166.88 159.67 167.21 158.51 166.70 157.58 C 166.19 156.65 165.03 156.32 164.10 156.83 L 163.18 157.33 C 162.26 157.84 161.92 159.01 162.43 159.94 C 162.94 160.86 164.11 161.20 165.03 160.69 Z M 165.95 160.13 L 166.79 159.65 C 167.69 159.14 168.00 158.00 167.49 157.10 C 166.98 156.20 165.84 155.89 164.94 156.40 L 164.10 156.88 C 163.20 157.39 162.89 158.54 163.40 159.43 C 163.91 160.33 165.05 160.65 165.95 160.13 Z M 166.76 159.63 L 167.59 159.16 C 168.48 158.67 168.80 157.55 168.30 156.66 C 167.80 155.78 166.69 155.46 165.80 155.96 L 164.97 156.43 C 164.08 156.92 163.77 158.04 164.26 158.93 C 164.76 159.81 165.88 160.13 166.76 159.63 Z M 167.56 159.16 L 168.44 158.69 C 169.32 158.21 169.65 157.11 169.17 156.22 C 168.70 155.34 167.60 155.01 166.71 155.49 L 165.83 155.96 C 164.95 156.44 164.62 157.54 165.10 158.42 C 165.58 159.31 166.68 159.64 167.56 159.16 Z M 168.42 158.68 L 169.21 158.26 C 170.09 157.79 170.43 156.70 169.96 155.82 C 169.49 154.94 168.40 154.61 167.52 155.07 L 166.73 155.49 C 165.85 155.96 165.51 157.05 165.98 157.93 C 166.45 158.81 167.54 159.15 168.42 158.68 Z"
      fill="black"
      fill-rule="nonzero" /><path d="M 157.86 169.32 L 158.69 169.93 C 159.63 170.63 160.96 170.43 161.66 169.49 C 162.36 168.55 162.16 167.22 161.22 166.52 L 160.39 165.91 C 159.45 165.21 158.12 165.41 157.42 166.35 C 156.72 167.29 156.92 168.62 157.86 169.32 Z M 159.85 170.35 L 160.72 170.39 C 161.89 170.45 162.89 169.54 162.95 168.37 C 163.00 167.19 162.09 166.19 160.92 166.14 L 160.05 166.10 C 158.88 166.04 157.88 166.95 157.82 168.13 C 157.77 169.30 158.68 170.30 159.85 170.35 Z M 161.76 170.14 L 162.70 169.66 C 163.73 169.14 164.14 167.88 163.62 166.85 C 163.10 165.82 161.84 165.40 160.80 165.93 L 159.87 166.40 C 158.84 166.92 158.43 168.18 158.95 169.21 C 159.47 170.24 160.73 170.66 161.76 170.14 Z M 162.81 169.56 L 163.62 169.07 C 164.59 168.49 164.91 167.22 164.32 166.25 C 163.74 165.28 162.48 164.96 161.50 165.55 L 160.69 166.03 C 159.72 166.62 159.40 167.88 159.99 168.85 C 160.57 169.82 161.83 170.14 162.81 169.56 Z M 163.63 169.04 L 164.50 168.50 C 165.46 167.91 165.76 166.66 165.17 165.70 C 164.58 164.75 163.33 164.45 162.37 165.04 L 161.49 165.58 C 160.54 166.17 160.24 167.42 160.83 168.37 C 161.42 169.33 162.67 169.63 163.63 169.04 Z M 164.53 168.46 L 165.41 167.89 C 166.34 167.28 166.61 166.03 166.00 165.10 C 165.40 164.17 164.15 163.90 163.22 164.51 L 162.34 165.08 C 161.41 165.68 161.14 166.93 161.75 167.86 C 162.36 168.80 163.60 169.06 164.53 168.46 Z M 165.42 167.86 L 166.28 167.29 C 167.20 166.68 167.45 165.44 166.83 164.52 C 166.22 163.60 164.98 163.35 164.06 163.96 L 163.20 164.54 C 162.29 165.15 162.04 166.39 162.65 167.31 C 163.26 168.22 164.50 168.47 165.42 167.86 Z M 166.27 167.28 L 167.08 166.74 C 167.99 166.14 168.25 164.91 167.64 163.99 C 167.04 163.08 165.81 162.83 164.90 163.43 L 164.08 163.97 C 163.17 164.58 162.92 165.80 163.52 166.72 C 164.12 167.63 165.35 167.88 166.27 167.28 Z M 166.98 166.76 L 167.92 166.20 C 168.84 165.65 169.14 164.46 168.59 163.54 C 168.05 162.62 166.86 162.31 165.93 162.86 L 165.00 163.42 C 164.08 163.96 163.77 165.16 164.32 166.08 C 164.87 167.00 166.06 167.30 166.98 166.76 Z M 167.53 166.31 L 168.38 166.02 C 169.36 165.69 169.89 164.62 169.55 163.63 C 169.22 162.65 168.15 162.12 167.16 162.46 L 166.32 162.75 C 165.33 163.09 164.81 164.16 165.14 165.14 C 165.48 166.12 166.55 166.65 167.53 166.31 Z M 167.81 166.09 L 168.80 166.07 C 169.82 166.05 170.63 165.21 170.61 164.19 C 170.59 163.17 169.75 162.36 168.73 162.38 L 167.74 162.39 C 166.72 162.41 165.91 163.26 165.93 164.27 C 165.94 165.29 166.79 166.11 167.81 166.09 Z M 168.61 166.05 L 168.93 166.08 C 169.94 166.16 170.83 165.42 170.91 164.41 C 171.00 163.40 170.25 162.51 169.24 162.42 L 168.92 162.39 C 167.91 162.31 167.02 163.06 166.94 164.06 C 166.85 165.07 167.60 165.96 168.61 166.05 Z"
      fill="black"
      fill-rule="nonzero" /><path d="M 157.50 174.51 L 156.95 175.42 C 156.39 176.35 156.68 177.56 157.61 178.12 C 158.54 178.68 159.75 178.38 160.32 177.45 L 160.87 176.54 C 161.43 175.61 161.13 174.40 160.20 173.84 C 159.27 173.28 158.06 173.58 157.50 174.51 Z M 158.42 178.44 L 159.04 178.51 C 160.15 178.62 161.14 177.82 161.26 176.71 C 161.37 175.60 160.57 174.61 159.46 174.50 L 158.84 174.43 C 157.74 174.31 156.74 175.12 156.63 176.22 C 156.51 177.33 157.31 178.32 158.42 178.44 Z M 160.06 178.33 L 161.12 177.86 C 162.13 177.42 162.59 176.24 162.15 175.22 C 161.70 174.21 160.52 173.75 159.51 174.20 L 158.45 174.67 C 157.43 175.12 156.98 176.30 157.42 177.31 C 157.87 178.32 159.05 178.78 160.06 178.33 Z M 161.41 177.69 L 162.24 177.14 C 163.16 176.54 163.41 175.31 162.81 174.39 C 162.21 173.48 160.98 173.22 160.06 173.82 L 159.23 174.37 C 158.31 174.97 158.06 176.20 158.66 177.12 C 159.26 178.04 160.49 178.29 161.41 177.69 Z M 162.31 177.08 L 163.12 176.50 C 164.00 175.86 164.20 174.63 163.56 173.74 C 162.92 172.86 161.68 172.66 160.80 173.30 L 159.99 173.88 C 159.11 174.52 158.91 175.76 159.55 176.64 C 160.19 177.52 161.43 177.72 162.31 177.08 Z M 163.08 176.51 L 163.89 175.94 C 164.78 175.32 165.00 174.10 164.38 173.21 C 163.76 172.32 162.54 172.11 161.65 172.73 L 160.84 173.29 C 159.95 173.91 159.73 175.14 160.35 176.02 C 160.97 176.91 162.19 177.13 163.08 176.51 Z M 163.85 175.95 L 164.69 175.39 C 165.59 174.80 165.83 173.59 165.24 172.70 C 164.65 171.80 163.44 171.55 162.54 172.15 L 161.70 172.71 C 160.80 173.30 160.55 174.51 161.15 175.41 C 161.74 176.30 162.95 176.55 163.85 175.95 Z M 164.63 175.43 L 165.50 174.90 C 166.41 174.34 166.70 173.14 166.14 172.23 C 165.58 171.31 164.38 171.02 163.46 171.58 L 162.60 172.11 C 161.68 172.67 161.40 173.87 161.96 174.79 C 162.52 175.70 163.72 175.99 164.63 175.43 Z M 165.40 174.99 L 166.35 174.49 C 167.32 173.98 167.69 172.79 167.18 171.83 C 166.68 170.86 165.49 170.49 164.52 171.00 L 163.57 171.50 C 162.60 172.00 162.23 173.19 162.74 174.16 C 163.24 175.12 164.43 175.49 165.40 174.99 Z M 165.84 174.76 L 166.75 174.57 C 167.86 174.35 168.59 173.27 168.37 172.16 C 168.15 171.05 167.07 170.32 165.96 170.54 L 165.04 170.73 C 163.93 170.95 163.20 172.03 163.42 173.14 C 163.64 174.25 164.72 174.98 165.84 174.76 Z M 164.27 173.00 L 164.41 173.68 C 164.65 174.83 165.78 175.57 166.93 175.33 C 168.09 175.09 168.83 173.96 168.58 172.80 L 168.44 172.12 C 168.20 170.97 167.07 170.23 165.92 170.47 C 164.76 170.71 164.02 171.84 164.27 173.00 Z M 164.44 172.60 L 164.10 173.71 C 163.74 174.85 164.38 176.06 165.52 176.41 C 166.65 176.76 167.86 176.12 168.21 174.99 L 168.55 173.88 C 168.91 172.74 168.27 171.53 167.13 171.18 C 166.00 170.83 164.79 171.47 164.44 172.60 Z M 164.21 173.42 L 163.81 174.25 C 163.30 175.32 163.75 176.61 164.82 177.12 C 165.89 177.64 167.18 177.19 167.69 176.11 L 168.09 175.28 C 168.61 174.21 168.16 172.92 167.09 172.41 C 166.01 171.89 164.73 172.35 164.21 173.42 Z M 163.92 174.09 L 163.39 174.97 C 162.78 175.98 163.12 177.30 164.13 177.90 C 165.15 178.51 166.46 178.18 167.07 177.16 L 167.59 176.28 C 168.20 175.27 167.87 173.95 166.85 173.35 C 165.84 172.74 164.52 173.07 163.92 174.09 Z M 163.45 174.90 L 162.93 175.69 C 162.28 176.67 162.56 177.99 163.54 178.64 C 164.52 179.28 165.84 179.01 166.49 178.03 L 167.01 177.23 C 167.65 176.25 167.38 174.93 166.40 174.28 C 165.41 173.64 164.09 173.91 163.45 174.90 Z M 162.96 175.66 L 162.42 176.45 C 161.76 177.42 162.01 178.73 162.98 179.39 C 163.94 180.05 165.26 179.80 165.92 178.84 L 166.46 178.05 C 167.12 177.09 166.87 175.77 165.90 175.11 C 164.93 174.45 163.62 174.70 162.96 175.66 Z M 162.45 176.43 L 161.84 177.29 C 161.17 178.24 161.40 179.56 162.35 180.23 C 163.31 180.90 164.62 180.67 165.29 179.71 L 165.90 178.86 C 166.57 177.90 166.34 176.59 165.38 175.92 C 164.43 175.25 163.12 175.48 162.45 176.43 Z M 161.86 177.27 L 161.23 178.16 C 160.55 179.10 160.76 180.41 161.70 181.09 C 162.64 181.77 163.95 181.56 164.63 180.62 L 165.27 179.73 C 165.95 178.79 165.74 177.48 164.80 176.80 C 163.86 176.12 162.54 176.33 161.86 177.27 Z M 161.25 178.15 L 160.67 178.93 C 159.99 179.85 160.19 181.16 161.11 181.85 C 162.04 182.53 163.35 182.33 164.03 181.41 L 164.61 180.63 C 165.29 179.70 165.10 178.39 164.17 177.71 C 163.24 177.02 161.93 177.22 161.25 178.15 Z M 160.70 178.92 L 160.10 179.72 C 159.41 180.63 159.59 181.93 160.50 182.62 C 161.42 183.31 162.71 183.13 163.40 182.21 L 164.01 181.41 C 164.70 180.50 164.51 179.20 163.60 178.51 C 162.69 177.82 161.39 178.01 160.70 178.92 Z M 160.12 179.71 L 159.50 180.51 C 158.81 181.41 158.97 182.70 159.87 183.40 C 160.77 184.09 162.06 183.93 162.76 183.03 L 163.38 182.22 C 164.07 181.32 163.91 180.03 163.01 179.34 C 162.11 178.64 160.82 178.81 160.12 179.71 Z M 159.53 180.50 L 158.89 181.30 C 158.19 182.19 158.34 183.47 159.23 184.17 C 160.11 184.87 161.39 184.72 162.09 183.84 L 162.73 183.04 C 163.43 182.15 163.28 180.87 162.40 180.17 C 161.51 179.47 160.23 179.62 159.53 180.50 Z M 158.92 181.29 L 158.24 182.13 C 157.53 183.00 157.66 184.27 158.53 184.98 C 159.40 185.69 160.67 185.56 161.38 184.69 L 162.07 183.85 C 162.77 182.98 162.64 181.71 161.77 181.00 C 160.91 180.29 159.63 180.42 158.92 181.29 Z M 158.26 182.12 L 157.59 182.93 C 156.88 183.78 156.99 185.05 157.85 185.77 C 158.70 186.48 159.97 186.36 160.68 185.51 L 161.36 184.70 C 162.07 183.85 161.95 182.58 161.10 181.86 C 160.25 181.15 158.98 181.27 158.26 182.12 Z M 157.61 182.93 L 156.97 183.68 C 156.26 184.52 156.36 185.79 157.21 186.50 C 158.05 187.21 159.31 187.11 160.03 186.26 L 160.66 185.51 C 161.38 184.67 161.27 183.40 160.43 182.69 C 159.58 181.98 158.32 182.08 157.61 182.93 Z M 156.98 183.69 L 156.41 184.37 C 155.70 185.20 155.80 186.46 156.64 187.17 C 157.48 187.88 158.73 187.77 159.44 186.94 L 160.02 186.26 C 160.73 185.42 160.62 184.17 159.79 183.46 C 158.95 182.75 157.69 182.85 156.98 183.69 Z M 156.42 184.38 L 155.68 185.26 C 154.98 186.09 155.09 187.33 155.92 188.03 C 156.75 188.73 157.99 188.63 158.69 187.80 L 159.43 186.92 C 160.13 186.09 160.02 184.85 159.19 184.15 C 158.36 183.45 157.12 183.55 156.42 184.38 Z M 155.72 185.27 L 155.10 185.99 C 154.40 186.80 154.50 188.02 155.31 188.72 C 156.12 189.41 157.34 189.32 158.04 188.51 L 158.65 187.79 C 159.35 186.98 159.25 185.76 158.44 185.06 C 157.63 184.36 156.41 184.46 155.72 185.27 Z M 155.18 185.95 L 154.55 186.63 C 153.83 187.40 153.87 188.60 154.64 189.32 C 155.41 190.03 156.61 189.99 157.33 189.22 L 157.96 188.54 C 158.67 187.77 158.63 186.57 157.86 185.86 C 157.09 185.14 155.89 185.19 155.18 185.95 Z M 154.65 186.58 L 153.94 187.26 C 153.20 187.97 153.17 189.15 153.88 189.89 C 154.58 190.63 155.76 190.66 156.50 189.95 L 157.22 189.27 C 157.96 188.56 157.99 187.39 157.28 186.64 C 156.57 185.90 155.40 185.87 154.65 186.58 Z M 153.99 187.25 L 153.74 187.48 C 152.99 188.16 152.94 189.32 153.62 190.07 C 154.30 190.81 155.45 190.87 156.20 190.19 L 156.45 189.96 C 157.20 189.28 157.25 188.12 156.57 187.38 C 155.90 186.63 154.74 186.58 153.99 187.25 Z"
      fill="black"
      fill-rule="nonzero" /><path d="M 165.88 179.01 L 166.40 179.81 C 167.02 180.78 168.30 181.06 169.27 180.44 C 170.23 179.82 170.51 178.54 169.89 177.57 L 169.37 176.77 C 168.76 175.80 167.47 175.52 166.51 176.14 C 165.54 176.76 165.26 178.04 165.88 179.01 Z M 166.45 179.96 L 167.07 180.80 C 167.77 181.73 169.10 181.92 170.04 181.22 C 170.97 180.52 171.16 179.19 170.46 178.26 L 169.84 177.42 C 169.14 176.49 167.81 176.30 166.87 177.00 C 165.94 177.70 165.75 179.03 166.45 179.96 Z M 167.16 180.98 L 167.82 181.71 C 168.62 182.59 169.99 182.67 170.88 181.86 C 171.76 181.06 171.84 179.70 171.03 178.81 L 170.38 178.08 C 169.58 177.19 168.21 177.12 167.32 177.92 C 166.43 178.72 166.36 180.09 167.16 180.98 Z M 167.87 181.84 L 168.59 182.55 C 169.46 183.41 170.87 183.41 171.73 182.54 C 172.59 181.66 172.58 180.26 171.71 179.40 L 170.99 178.68 C 170.12 177.82 168.71 177.82 167.85 178.70 C 166.99 179.57 166.99 180.97 167.87 181.84 Z M 168.63 182.64 L 169.38 183.33 C 170.30 184.17 171.73 184.10 172.57 183.18 C 173.41 182.26 173.34 180.83 172.42 179.99 L 171.67 179.31 C 170.75 178.47 169.32 178.53 168.48 179.45 C 167.64 180.37 167.71 181.80 168.63 182.64 Z M 169.44 183.39 L 170.19 184.03 C 171.14 184.84 172.57 184.72 173.38 183.76 C 174.19 182.81 174.08 181.37 173.12 180.56 L 172.37 179.93 C 171.41 179.12 169.98 179.24 169.17 180.19 C 168.36 181.15 168.48 182.58 169.44 183.39 Z M 170.24 184.07 L 171.00 184.67 C 171.98 185.45 173.40 185.30 174.18 184.32 C 174.97 183.34 174.81 181.91 173.83 181.13 L 173.07 180.53 C 172.09 179.74 170.67 179.90 169.88 180.88 C 169.10 181.86 169.26 183.28 170.24 184.07 Z M 171.04 184.70 L 171.82 185.29 C 172.81 186.05 174.23 185.87 174.99 184.88 C 175.75 183.89 175.56 182.47 174.57 181.71 L 173.79 181.11 C 172.80 180.35 171.38 180.54 170.62 181.53 C 169.86 182.52 170.05 183.94 171.04 184.70 Z M 171.85 185.31 L 172.69 185.93 C 173.69 186.67 175.10 186.46 175.84 185.46 C 176.58 184.46 176.37 183.05 175.37 182.31 L 174.53 181.69 C 173.53 180.95 172.12 181.16 171.38 182.16 C 170.64 183.16 170.85 184.57 171.85 185.31 Z M 172.73 185.94 L 173.57 186.55 C 174.58 187.27 175.97 187.04 176.69 186.04 C 177.41 185.03 177.19 183.63 176.18 182.91 L 175.34 182.30 C 174.33 181.58 172.93 181.81 172.21 182.82 C 171.49 183.82 171.72 185.22 172.73 185.94 Z M 173.60 186.54 L 174.41 187.12 C 175.41 187.82 176.79 187.59 177.50 186.59 C 178.21 185.59 177.97 184.21 176.98 183.50 L 176.16 182.92 C 175.16 182.22 173.78 182.45 173.07 183.45 C 172.36 184.45 172.60 185.83 173.60 186.54 Z M 174.42 187.09 L 175.19 187.64 C 176.18 188.34 177.54 188.11 178.24 187.13 C 178.94 186.14 178.72 184.78 177.73 184.08 L 176.96 183.53 C 175.98 182.83 174.61 183.06 173.91 184.04 C 173.21 185.02 173.44 186.39 174.42 187.09 Z M 175.21 187.60 L 175.98 188.16 C 176.95 188.85 178.29 188.63 178.98 187.66 C 179.67 186.70 179.45 185.35 178.49 184.66 L 177.71 184.11 C 176.75 183.42 175.41 183.64 174.72 184.61 C 174.02 185.57 174.25 186.91 175.21 187.60 Z M 176.02 188.14 L 176.87 188.73 C 177.82 189.40 179.14 189.17 179.81 188.21 C 180.48 187.26 180.24 185.94 179.29 185.27 L 178.45 184.68 C 177.49 184.01 176.17 184.24 175.50 185.20 C 174.84 186.15 175.07 187.47 176.02 188.14 Z M 176.89 188.72 L 177.73 189.30 C 178.68 189.96 179.98 189.72 180.64 188.77 C 181.29 187.82 181.06 186.52 180.11 185.86 L 179.27 185.28 C 178.32 184.62 177.01 184.86 176.36 185.81 C 175.70 186.76 175.94 188.06 176.89 188.72 Z M 177.73 189.29 L 178.58 189.88 C 179.53 190.53 180.82 190.29 181.47 189.35 C 182.13 188.41 181.89 187.12 180.95 186.46 L 180.10 185.87 C 179.16 185.22 177.86 185.46 177.21 186.40 C 176.56 187.34 176.79 188.63 177.73 189.29 Z M 178.58 189.84 L 179.45 190.45 C 180.37 191.11 181.64 190.89 182.30 189.97 C 182.96 189.05 182.74 187.77 181.82 187.12 L 180.95 186.50 C 180.03 185.85 178.75 186.06 178.10 186.98 C 177.44 187.90 177.66 189.18 178.58 189.84 Z M 179.42 190.36 L 180.18 190.95 C 181.05 191.62 182.31 191.46 182.98 190.59 C 183.65 189.72 183.49 188.47 182.61 187.80 L 181.85 187.21 C 180.98 186.53 179.72 186.70 179.05 187.57 C 178.38 188.44 178.54 189.69 179.42 190.36 Z M 180.12 190.83 L 180.82 191.44 C 181.62 192.14 182.84 192.06 183.55 191.26 C 184.25 190.46 184.17 189.24 183.37 188.53 L 182.67 187.92 C 181.87 187.22 180.65 187.30 179.95 188.10 C 179.24 188.90 179.32 190.12 180.12 190.83 Z M 180.79 191.34 L 181.51 192.04 C 182.26 192.76 183.45 192.74 184.17 191.99 C 184.90 191.24 184.88 190.05 184.13 189.33 L 183.41 188.63 C 182.66 187.91 181.46 187.93 180.74 188.68 C 180.02 189.43 180.04 190.62 180.79 191.34 Z M 181.51 192.00 L 181.96 192.45 C 182.69 193.18 183.86 193.17 184.59 192.45 C 185.31 191.72 185.31 190.55 184.58 189.82 L 184.13 189.37 C 183.40 188.65 182.23 188.65 181.50 189.37 C 180.78 190.10 180.78 191.27 181.51 192.00 Z"
      fill="black"
      fill-rule="nonzero" /></svg>