<svg xmlns="http://www.w3.org/2000/svg" width="300" height="300" viewBox="0 0 300 300">
<path d="M 140.26 122.41 L 139.27 122.24 C 138.16 122.05 137.09 122.80 136.90 123.92 C 136.71 125.03 137.46 126.10 138.58 126.29 L 139.57 126.46 C 140.69 126.65 141.75 125.90 141.94 124.78 C 142.13 123.67 141.38 122.60 140.26 122.41 Z M 139.34 122.25 L 138.41 122.06 C 137.29 121.83 136.20 122.54 135.97 123.66 C 135.74 124.77 136.46 125.86 137.57 126.09 L 138.51 126.28 C 139.62 126.51 140.71 125.79 140.94 124.68 C 141.17 123.57 140.45 122.48 139.34 122.25 Z M 138.37 122.05 L 137.40 121.87 C 136.28 121.66 135.20 122.39 135.00 123.51 C 134.79 124.63 135.52 125.70 136.64 125.91 L 137.61 126.09 C 138.73 126.30 139.80 125.57 140.01 124.45 C 140.22 123.33 139.49 122.26 138.37 122.05 Z M 137.18 121.84 L 136.19 121.76 C 135.06 121.67 134.07 122.51 133.98 123.64 C 133.89 124.77 134.73 125.77 135.86 125.86 L 136.85 125.94 C 137.98 126.03 138.97 125.19 139.07 124.06 C 139.16 122.93 138.32 121.93 137.18 121.84 Z M 136.05 121.76 L 135.03 121.75 C 133.90 121.74 132.97 122.64 132.96 123.77 C 132.94 124.91 133.85 125.83 134.98 125.85 L 136.00 125.86 C 137.13 125.87 138.06 124.96 138.07 123.83 C 138.09 122.70 137.18 121.77 136.05 121.76 Z M 134.94 121.76 L 133.91 121.79 C 132.78 121.83 131.90 122.76 131.93 123.89 C 131.97 125.01 132.90 125.90 134.03 125.87 L 135.06 125.83 C 136.19 125.80 137.07 124.86 137.04 123.74 C 137.01 122.61 136.07 121.73 134.94 121.76 Z M 133.82 121.81 L 132.83 121.89 C 131.72 121.97 130.88 122.94 130.96 124.05 C 131.05 125.16 132.01 126.00 133.13 125.92 L 134.12 125.84 C 135.23 125.76 136.07 124.79 135.98 123.68 C 135.90 122.57 134.93 121.73 133.82 121.81 Z M 132.71 121.92 L 131.72 122.06 C 130.62 122.21 129.86 123.22 130.01 124.31 C 130.16 125.41 131.17 126.17 132.26 126.02 L 133.25 125.88 C 134.35 125.73 135.11 124.72 134.96 123.63 C 134.81 122.53 133.80 121.77 132.71 121.92 Z M 131.58 122.10 L 130.57 122.32 C 129.50 122.55 128.82 123.60 129.05 124.67 C 129.28 125.74 130.33 126.42 131.40 126.19 L 132.41 125.97 C 133.47 125.75 134.16 124.69 133.93 123.62 C 133.70 122.55 132.64 121.87 131.58 122.10 Z M 130.43 122.36 L 129.46 122.65 C 128.41 122.96 127.82 124.05 128.12 125.10 C 128.43 126.14 129.53 126.74 130.57 126.43 L 131.54 126.14 C 132.59 125.84 133.18 124.74 132.88 123.70 C 132.57 122.65 131.47 122.06 130.43 122.36 Z M 129.26 122.73 L 128.31 123.12 C 127.31 123.54 126.84 124.69 127.25 125.69 C 127.67 126.69 128.82 127.16 129.82 126.75 L 130.77 126.35 C 131.77 125.94 132.24 124.79 131.83 123.79 C 131.41 122.79 130.26 122.31 129.26 122.73 Z M 127.89 123.36 L 127.10 123.95 C 126.24 124.59 126.06 125.83 126.71 126.69 C 127.35 127.56 128.58 127.74 129.45 127.09 L 130.24 126.51 C 131.11 125.86 131.29 124.63 130.64 123.76 C 129.99 122.89 128.76 122.71 127.89 123.36 Z M 126.50 124.67 L 126.15 125.40 C 125.68 126.39 126.10 127.57 127.08 128.04 C 128.06 128.51 129.24 128.09 129.71 127.10 L 130.06 126.37 C 130.53 125.39 130.11 124.21 129.13 123.74 C 128.15 123.27 126.97 123.69 126.50 124.67 Z M 125.94 126.34 L 125.98 127.31 C 126.03 128.41 126.96 129.27 128.05 129.22 C 129.15 129.17 130.00 128.25 129.96 127.15 L 129.92 126.17 C 129.87 125.07 128.94 124.22 127.85 124.27 C 126.75 124.31 125.90 125.24 125.94 126.34 Z M 126.05 127.79 L 126.34 128.81 C 126.65 129.87 127.76 130.49 128.82 130.18 C 129.89 129.87 130.50 128.76 130.19 127.70 L 129.90 126.68 C 129.59 125.61 128.48 125.00 127.41 125.31 C 126.35 125.61 125.74 126.72 126.05 127.79 Z M 126.39 128.97 L 126.73 129.88 C 127.13 130.91 128.29 131.43 129.33 131.04 C 130.37 130.64 130.88 129.48 130.49 128.44 L 130.14 127.54 C 129.75 126.50 128.59 125.98 127.55 126.38 C 126.51 126.77 125.99 127.93 126.39 128.97 Z M 126.75 129.93 L 127.16 130.90 C 127.58 131.92 128.76 132.41 129.78 131.99 C 130.81 131.56 131.30 130.38 130.87 129.36 L 130.47 128.39 C 130.04 127.36 128.87 126.88 127.84 127.30 C 126.82 127.73 126.33 128.90 126.75 129.93 Z M 127.16 130.91 L 127.57 131.88 C 128.00 132.90 129.18 133.39 130.20 132.96 C 131.23 132.53 131.71 131.35 131.28 130.32 L 130.87 129.35 C 130.44 128.32 129.26 127.84 128.23 128.27 C 127.21 128.70 126.73 129.88 127.16 130.91 Z M 127.55 131.85 L 127.97 132.89 C 128.39 133.92 129.56 134.42 130.59 134.01 C 131.62 133.59 132.12 132.42 131.71 131.39 L 131.29 130.35 C 130.87 129.32 129.70 128.82 128.67 129.23 C 127.64 129.65 127.14 130.82 127.55 131.85 Z M 127.95 132.85 L 128.31 133.80 C 128.71 134.84 129.87 135.37 130.91 134.98 C 131.95 134.59 132.47 133.42 132.08 132.38 L 131.72 131.43 C 131.33 130.39 130.17 129.86 129.13 130.25 C 128.09 130.65 127.56 131.81 127.95 132.85 Z M 128.30 133.75 L 128.59 134.61 C 128.96 135.66 130.11 136.21 131.16 135.85 C 132.21 135.48 132.76 134.33 132.40 133.28 L 132.10 132.43 C 131.73 131.38 130.59 130.83 129.54 131.19 C 128.49 131.56 127.93 132.71 128.30 133.75 Z M 128.58 134.54 L 128.88 135.52 C 129.21 136.58 130.33 137.17 131.39 136.85 C 132.45 136.52 133.05 135.39 132.72 134.33 L 132.41 133.35 C 132.09 132.29 130.96 131.70 129.90 132.03 C 128.84 132.35 128.25 133.48 128.58 134.54 Z M 128.86 135.43 L 129.11 136.36 C 129.39 137.43 130.48 138.07 131.55 137.79 C 132.62 137.51 133.26 136.42 132.98 135.35 L 132.74 134.42 C 132.45 133.35 131.36 132.71 130.29 132.99 C 129.22 133.27 128.58 134.36 128.86 135.43 Z M 129.10 136.30 L 129.31 137.22 C 129.56 138.29 130.63 138.96 131.70 138.71 C 132.78 138.46 133.44 137.39 133.20 136.32 L 132.98 135.40 C 132.74 134.33 131.67 133.66 130.59 133.91 C 129.52 134.16 128.85 135.23 129.10 136.30 Z M 129.31 137.19 L 129.52 138.16 C 129.76 139.24 130.81 139.92 131.89 139.68 C 132.96 139.45 133.64 138.39 133.41 137.32 L 133.20 136.35 C 132.96 135.27 131.90 134.59 130.83 134.83 C 129.76 135.06 129.08 136.12 129.31 137.19 Z M 129.52 138.14 L 129.73 139.15 C 129.95 140.22 131.00 140.91 132.08 140.69 C 133.15 140.46 133.84 139.41 133.61 138.34 L 133.41 137.34 C 133.18 136.27 132.13 135.58 131.06 135.80 C 129.99 136.02 129.30 137.07 129.52 138.14 Z M 129.73 139.13 L 129.93 140.10 C 130.14 141.17 131.18 141.87 132.25 141.65 C 133.32 141.44 134.01 140.40 133.80 139.33 L 133.61 138.36 C 133.40 137.29 132.36 136.59 131.29 136.81 C 130.22 137.02 129.52 138.06 129.73 139.13 Z M 129.93 140.06 L 130.11 141.07 C 130.30 142.14 131.32 142.85 132.39 142.66 C 133.46 142.47 134.18 141.44 133.98 140.37 L 133.80 139.37 C 133.61 138.30 132.59 137.58 131.52 137.78 C 130.45 137.97 129.73 138.99 129.93 140.06 Z M 130.10 141.02 L 130.26 142.00 C 130.42 143.08 131.42 143.81 132.50 143.64 C 133.57 143.48 134.30 142.48 134.14 141.40 L 133.99 140.42 C 133.82 139.35 132.82 138.61 131.75 138.78 C 130.67 138.94 129.94 139.95 130.10 141.02 Z M 130.25 141.96 L 130.38 142.94 C 130.52 144.02 131.51 144.77 132.58 144.63 C 133.65 144.49 134.41 143.51 134.27 142.44 L 134.14 141.45 C 134.00 140.38 133.02 139.62 131.94 139.76 C 130.87 139.90 130.11 140.88 130.25 141.96 Z M 130.38 142.91 L 130.50 143.92 C 130.62 144.99 131.59 145.76 132.66 145.64 C 133.73 145.52 134.50 144.55 134.38 143.48 L 134.27 142.47 C 134.15 141.40 133.18 140.63 132.11 140.75 C 131.03 140.87 130.26 141.84 130.38 142.91 Z M 130.50 143.89 L 130.60 144.87 C 130.71 145.94 131.66 146.72 132.73 146.61 C 133.81 146.51 134.59 145.55 134.48 144.48 L 134.38 143.50 C 134.27 142.43 133.31 141.65 132.24 141.76 C 131.17 141.87 130.39 142.82 130.50 143.89 Z M 130.60 144.85 L 130.69 145.85 C 130.78 146.92 131.73 147.71 132.80 147.61 C 133.87 147.52 134.66 146.57 134.56 145.50 L 134.48 144.50 C 134.38 143.43 133.44 142.64 132.37 142.74 C 131.30 142.83 130.51 143.78 130.60 144.85 Z M 130.69 145.82 L 130.77 146.83 C 130.84 147.90 131.77 148.70 132.84 148.62 C 133.91 148.54 134.72 147.61 134.64 146.54 L 134.56 145.53 C 134.48 144.46 133.55 143.66 132.49 143.74 C 131.42 143.82 130.61 144.75 130.69 145.82 Z M 130.77 146.80 L 130.82 147.79 C 130.89 148.86 131.80 149.67 132.87 149.61 C 133.94 149.55 134.75 148.63 134.69 147.57 L 134.64 146.57 C 134.57 145.51 133.66 144.69 132.59 144.75 C 131.52 144.81 130.71 145.73 130.77 146.80 Z M 130.83 147.77 L 130.88 148.77 C 130.93 149.84 131.83 150.66 132.90 150.61 C 133.97 150.56 134.79 149.65 134.74 148.59 L 134.69 147.59 C 134.64 146.52 133.73 145.70 132.67 145.75 C 131.60 145.80 130.78 146.71 130.83 147.77 Z M 130.88 148.77 L 130.92 149.77 C 130.97 150.84 131.87 151.66 132.94 151.61 C 134.00 151.56 134.83 150.66 134.78 149.60 L 134.74 148.59 C 134.69 147.53 133.79 146.70 132.72 146.75 C 131.65 146.80 130.83 147.70 130.88 148.77 Z M 130.93 149.77 L 130.97 150.77 C 131.02 151.83 131.92 152.66 132.98 152.61 C 134.05 152.56 134.87 151.66 134.82 150.60 L 134.78 149.60 C 134.73 148.53 133.83 147.71 132.77 147.76 C 131.70 147.80 130.88 148.71 130.93 149.77 Z M 130.97 150.76 L 131.02 151.76 C 131.06 152.83 131.96 153.65 133.02 153.61 C 134.08 153.56 134.91 152.66 134.86 151.60 L 134.82 150.60 C 134.78 149.54 133.88 148.71 132.82 148.76 C 131.75 148.80 130.93 149.70 130.97 150.76 Z M 131.02 151.75 L 131.05 152.75 C 131.09 153.81 131.98 154.64 133.04 154.60 C 134.11 154.56 134.94 153.67 134.90 152.61 L 134.86 151.61 C 134.82 150.55 133.93 149.72 132.87 149.76 C 131.81 149.80 130.98 150.69 131.02 151.75 Z M 131.05 152.73 L 131.08 153.73 C 131.11 154.79 131.99 155.62 133.06 155.59 C 134.12 155.57 134.95 154.68 134.92 153.62 L 134.90 152.63 C 134.87 151.57 133.98 150.73 132.92 150.76 C 131.86 150.79 131.03 151.67 131.05 152.73 Z M 131.08 153.72 L 131.10 154.71 C 131.13 155.77 132.01 156.62 133.07 156.59 C 134.13 156.57 134.97 155.69 134.95 154.63 L 134.92 153.63 C 134.90 152.57 134.02 151.73 132.96 151.75 C 131.90 151.78 131.06 152.65 131.08 153.72 Z M 131.10 154.71 L 131.12 155.72 C 131.15 156.78 132.02 157.63 133.08 157.61 C 134.15 157.58 134.99 156.71 134.97 155.65 L 134.95 154.63 C 134.92 153.57 134.05 152.73 132.99 152.75 C 131.92 152.77 131.08 153.65 131.10 154.71 Z M 131.12 155.72 L 131.15 156.75 C 131.17 157.82 132.05 158.66 133.11 158.64 C 134.17 158.61 135.01 157.73 134.99 156.67 L 134.97 155.64 C 134.94 154.58 134.07 153.74 133.01 153.76 C 131.94 153.79 131.10 154.66 131.12 155.72 Z M 131.15 156.75 L 131.17 157.76 C 131.19 158.82 132.06 159.66 133.12 159.64 C 134.19 159.62 135.03 158.74 135.01 157.68 L 134.99 156.68 C 134.97 155.62 134.09 154.77 133.03 154.79 C 131.97 154.81 131.13 155.69 131.15 156.75 Z M 131.17 157.75 L 131.18 158.73 C 131.20 159.79 132.07 160.64 133.13 160.62 C 134.19 160.61 135.04 159.73 135.02 158.67 L 135.01 157.69 C 134.99 156.63 134.12 155.78 133.06 155.80 C 132.00 155.81 131.15 156.69 131.17 157.75 Z M 131.18 158.72 L 131.19 159.76 C 131.20 160.83 132.06 161.68 133.12 161.67 C 134.19 161.66 135.04 160.80 135.03 159.74 L 135.02 158.69 C 135.02 157.63 134.15 156.77 133.09 156.78 C 132.03 156.79 131.17 157.65 131.18 158.72 Z M 131.19 159.75 L 131.19 160.70 C 131.19 161.77 132.05 162.63 133.11 162.62 C 134.18 162.62 135.04 161.76 135.03 160.70 L 135.03 159.75 C 135.03 158.69 134.17 157.83 133.11 157.83 C 132.04 157.83 131.18 158.69 131.19 159.75 Z M 131.19 160.70 L 131.19 161.65 C 131.19 162.72 132.05 163.58 133.11 163.58 C 134.17 163.58 135.03 162.72 135.03 161.65 L 135.03 160.70 C 135.03 159.64 134.17 158.78 133.11 158.78 C 132.05 158.78 131.19 159.64 131.19 160.70 Z M 131.18 161.65 L 131.18 162.65 C 131.18 163.71 132.05 164.57 133.11 164.57 C 134.17 164.57 135.04 163.71 135.04 162.65 L 135.04 161.65 C 135.04 160.59 134.17 159.73 133.11 159.73 C 132.05 159.73 131.18 160.59 131.18 161.65 Z M 131.18 162.65 L 131.18 163.68 C 131.18 164.74 132.04 165.61 133.11 165.61 C 134.18 165.61 135.04 164.74 135.04 163.68 L 135.04 162.65 C 135.04 161.58 134.18 160.71 133.11 160.71 C 132.04 160.71 131.18 161.58 131.18 162.65 Z M 131.17 163.66 L 131.16 164.69 C 131.15 165.77 132.02 166.64 133.09 166.65 C 134.16 166.66 135.04 165.79 135.05 164.72 L 135.05 163.69 C 135.06 162.62 134.20 161.74 133.12 161.73 C 132.05 161.73 131.17 162.59 131.17 163.66 Z M 131.15 164.66 L 131.12 165.63 C 131.09 166.71 131.95 167.61 133.03 167.64 C 134.11 167.67 135.01 166.81 135.04 165.73 L 135.06 164.76 C 135.09 163.68 134.24 162.78 133.15 162.75 C 132.07 162.72 131.17 163.58 131.15 164.66 Z M 131.11 165.58 L 131.04 166.81 C 130.99 167.89 131.82 168.82 132.91 168.88 C 133.99 168.94 134.92 168.11 134.98 167.02 L 135.05 165.79 C 135.11 164.70 134.27 163.77 133.18 163.71 C 132.10 163.65 131.17 164.49 131.11 165.58 Z M 133.87 168.69 L 134.03 168.61 C 135.02 168.14 135.43 166.96 134.95 165.97 C 134.47 164.99 133.29 164.58 132.31 165.06 L 132.15 165.13 C 131.17 165.61 130.76 166.79 131.23 167.77 C 131.71 168.76 132.89 169.17 133.87 168.69 Z M 134.91 167.78 L 135.51 166.67 C 136.04 165.71 135.69 164.51 134.73 163.99 C 133.77 163.46 132.57 163.82 132.05 164.77 L 131.44 165.89 C 130.92 166.85 131.27 168.05 132.22 168.57 C 133.18 169.09 134.38 168.74 134.91 167.78 Z M 135.39 166.83 L 135.93 166.05 C 136.55 165.16 136.33 163.94 135.43 163.32 C 134.54 162.71 133.32 162.93 132.71 163.82 L 132.17 164.61 C 131.55 165.50 131.78 166.72 132.67 167.33 C 133.56 167.95 134.78 167.72 135.39 166.83 Z M 135.87 166.10 L 136.49 165.27 C 137.14 164.41 136.96 163.20 136.10 162.55 C 135.25 161.91 134.03 162.09 133.39 162.94 L 132.77 163.78 C 132.13 164.63 132.30 165.85 133.16 166.49 C 134.02 167.13 135.23 166.96 135.87 166.10 Z M 136.46 165.27 L 137.10 164.44 C 137.74 163.60 137.58 162.40 136.74 161.76 C 135.90 161.12 134.70 161.28 134.06 162.12 L 133.42 162.95 C 132.78 163.78 132.94 164.98 133.78 165.63 C 134.62 166.27 135.82 166.11 136.46 165.27 Z M 137.08 164.40 L 137.71 163.56 C 138.33 162.73 138.16 161.55 137.33 160.93 C 136.50 160.31 135.32 160.48 134.70 161.31 L 134.07 162.15 C 133.45 162.98 133.62 164.16 134.45 164.78 C 135.28 165.41 136.46 165.23 137.08 164.40 Z M 137.69 163.53 L 138.27 162.74 C 138.87 161.92 138.69 160.76 137.87 160.16 C 137.05 159.56 135.89 159.74 135.29 160.56 L 134.72 161.35 C 134.11 162.17 134.29 163.32 135.11 163.93 C 135.94 164.53 137.09 164.35 137.69 163.53 Z M 138.25 162.71 L 138.61 162.21 C 139.20 161.40 139.02 160.27 138.21 159.68 C 137.40 159.09 136.26 159.27 135.68 160.08 L 135.31 160.59 C 134.72 161.40 134.90 162.53 135.72 163.12 C 136.53 163.71 137.66 163.52 138.25 162.71 Z"
      fill="black"
      fill-rule="nonzero" /><path d="M 153.10 137.40 L 154.06 137.12 C 155.14 136.80 155.75 135.66 155.43 134.58 C 155.11 133.50 153.98 132.89 152.89 133.21 L 151.94 133.49 C 150.86 133.81 150.24 134.95 150.56 136.03 C 150.88 137.11 152.02 137.72 153.10 137.40 Z M 154.06 137.18 L 155.02 136.90 C 156.13 136.58 156.77 135.42 156.45 134.30 C 156.13 133.19 154.96 132.55 153.85 132.87 L 152.89 133.15 C 151.78 133.47 151.14 134.63 151.46 135.75 C 151.78 136.86 152.94 137.50 154.06 137.18 Z M 155.01 136.97 L 155.98 136.70 C 157.13 136.38 157.80 135.19 157.48 134.05 C 157.17 132.90 155.98 132.22 154.83 132.54 L 153.86 132.81 C 152.71 133.12 152.04 134.31 152.35 135.46 C 152.67 136.61 153.86 137.28 155.01 136.97 Z M 155.95 136.74 L 156.98 136.47 C 158.15 136.17 158.85 134.98 158.55 133.81 C 158.25 132.64 157.06 131.93 155.89 132.23 L 154.86 132.50 C 153.69 132.80 152.98 133.99 153.28 135.16 C 153.58 136.33 154.78 137.04 155.95 136.74 Z M 156.95 136.48 L 157.94 136.24 C 159.12 135.96 159.84 134.77 159.55 133.60 C 159.27 132.42 158.08 131.70 156.91 131.99 L 155.92 132.23 C 154.74 132.51 154.02 133.70 154.31 134.87 C 154.59 136.05 155.78 136.77 156.95 136.48 Z M 157.93 136.25 L 158.84 136.03 C 160.02 135.75 160.75 134.57 160.47 133.39 C 160.19 132.21 159.01 131.49 157.83 131.76 L 156.92 131.98 C 155.74 132.26 155.01 133.44 155.29 134.62 C 155.57 135.80 156.75 136.53 157.93 136.25 Z M 158.84 136.03 L 159.87 135.79 C 161.05 135.51 161.78 134.33 161.50 133.15 C 161.22 131.97 160.04 131.24 158.87 131.52 L 157.83 131.77 C 156.65 132.04 155.93 133.22 156.20 134.40 C 156.48 135.58 157.66 136.31 158.84 136.03 Z M 159.85 135.79 L 160.74 135.59 C 161.92 135.32 162.66 134.15 162.40 132.98 C 162.14 131.80 160.97 131.06 159.79 131.32 L 158.89 131.52 C 157.71 131.78 156.97 132.95 157.24 134.13 C 157.50 135.31 158.67 136.05 159.85 135.79 Z M 160.70 135.59 L 161.68 135.39 C 162.86 135.15 163.62 134.00 163.38 132.82 C 163.15 131.64 162.00 130.88 160.82 131.12 L 159.83 131.32 C 158.66 131.56 157.89 132.71 158.13 133.89 C 158.37 135.06 159.52 135.82 160.70 135.59 Z M 161.68 135.37 L 162.66 135.17 C 163.83 134.94 164.58 133.80 164.35 132.63 C 164.11 131.46 162.98 130.70 161.81 130.94 L 160.83 131.14 C 159.66 131.37 158.90 132.51 159.13 133.68 C 159.37 134.85 160.51 135.61 161.68 135.37 Z M 162.65 135.15 L 163.63 134.96 C 164.79 134.72 165.54 133.60 165.30 132.44 C 165.07 131.28 163.94 130.53 162.79 130.76 L 161.81 130.96 C 160.65 131.19 159.90 132.32 160.13 133.48 C 160.37 134.64 161.49 135.39 162.65 135.15 Z M 163.58 134.94 L 164.52 134.78 C 165.67 134.57 166.43 133.48 166.23 132.33 C 166.03 131.18 164.93 130.41 163.78 130.61 L 162.84 130.78 C 161.69 130.98 160.92 132.08 161.12 133.23 C 161.33 134.38 162.42 135.15 163.58 134.94 Z M 164.45 134.77 L 165.48 134.62 C 166.63 134.45 167.42 133.39 167.25 132.24 C 167.09 131.10 166.03 130.30 164.88 130.47 L 163.85 130.62 C 162.70 130.79 161.91 131.85 162.07 132.99 C 162.24 134.14 163.30 134.93 164.45 134.77 Z M 165.43 134.61 L 166.42 134.49 C 167.56 134.36 168.38 133.32 168.24 132.18 C 168.10 131.04 167.07 130.22 165.93 130.36 L 164.93 130.48 C 163.79 130.62 162.98 131.65 163.11 132.79 C 163.25 133.93 164.29 134.75 165.43 134.61 Z M 166.36 134.49 L 167.37 134.40 C 168.50 134.29 169.34 133.28 169.24 132.15 C 169.13 131.01 168.13 130.17 166.99 130.27 L 165.99 130.36 C 164.85 130.47 164.01 131.48 164.11 132.61 C 164.22 133.75 165.22 134.59 166.36 134.49 Z M 167.22 134.40 L 168.28 134.38 C 169.42 134.35 170.33 133.41 170.30 132.27 C 170.28 131.13 169.34 130.22 168.19 130.25 L 167.13 130.27 C 165.99 130.29 165.09 131.24 165.11 132.38 C 165.14 133.52 166.08 134.42 167.22 134.40 Z M 167.70 134.31 L 168.60 134.55 C 169.70 134.85 170.84 134.19 171.13 133.09 C 171.43 131.98 170.77 130.85 169.67 130.55 L 168.77 130.31 C 167.67 130.02 166.53 130.67 166.24 131.78 C 165.94 132.88 166.60 134.02 167.70 134.31 Z M 167.62 134.00 L 168.30 134.71 C 169.10 135.54 170.43 135.57 171.26 134.77 C 172.09 133.97 172.12 132.65 171.32 131.82 L 170.64 131.11 C 169.84 130.27 168.52 130.24 167.69 131.04 C 166.85 131.84 166.82 133.16 167.62 134.00 Z M 167.73 133.58 L 167.86 134.47 C 168.03 135.62 169.11 136.42 170.26 136.24 C 171.41 136.07 172.21 134.99 172.03 133.84 L 171.90 132.95 C 171.73 131.80 170.65 131.00 169.50 131.18 C 168.35 131.35 167.55 132.42 167.73 133.58 Z M 167.91 133.56 L 167.61 134.58 C 167.28 135.71 167.92 136.89 169.05 137.22 C 170.17 137.55 171.35 136.90 171.68 135.78 L 171.98 134.75 C 172.31 133.63 171.67 132.45 170.55 132.12 C 169.42 131.79 168.24 132.43 167.91 133.56 Z M 167.73 134.26 L 167.33 135.09 C 166.83 136.15 167.27 137.42 168.33 137.92 C 169.39 138.43 170.66 137.98 171.17 136.93 L 171.56 136.10 C 172.07 135.04 171.62 133.77 170.56 133.26 C 169.50 132.76 168.23 133.20 167.73 134.26 Z M 167.40 134.95 L 166.88 135.85 C 166.30 136.87 166.65 138.17 167.67 138.76 C 168.69 139.34 169.99 138.99 170.58 137.97 L 171.10 137.07 C 171.69 136.05 171.33 134.74 170.31 134.16 C 169.29 133.57 167.99 133.92 167.40 134.95 Z M 166.94 135.75 L 166.36 136.65 C 165.71 137.64 166.00 138.96 166.99 139.60 C 167.98 140.24 169.30 139.96 169.94 138.97 L 170.52 138.07 C 171.17 137.08 170.88 135.76 169.89 135.12 C 168.90 134.48 167.58 134.76 166.94 135.75 Z M 166.40 136.58 L 165.80 137.43 C 165.12 138.40 165.36 139.73 166.32 140.41 C 167.29 141.09 168.63 140.86 169.30 139.89 L 169.90 139.04 C 170.58 138.07 170.34 136.74 169.38 136.06 C 168.41 135.38 167.07 135.61 166.40 136.58 Z M 165.83 137.39 L 165.26 138.16 C 164.56 139.11 164.77 140.45 165.72 141.16 C 166.67 141.86 168.01 141.65 168.71 140.70 L 169.28 139.93 C 169.98 138.98 169.77 137.64 168.82 136.94 C 167.87 136.24 166.53 136.44 165.83 137.39 Z M 165.29 138.13 L 164.64 138.98 C 163.93 139.92 164.11 141.26 165.04 141.98 C 165.98 142.69 167.32 142.51 168.04 141.58 L 168.68 140.73 C 169.40 139.79 169.22 138.45 168.28 137.73 C 167.34 137.02 166.00 137.20 165.29 138.13 Z M 164.68 138.96 L 164.11 139.67 C 163.38 140.58 163.53 141.92 164.44 142.65 C 165.36 143.38 166.69 143.23 167.42 142.32 L 167.99 141.60 C 168.73 140.69 168.58 139.36 167.66 138.62 C 166.75 137.89 165.41 138.04 164.68 138.96 Z M 164.15 139.65 L 163.51 140.42 C 162.77 141.31 162.89 142.64 163.78 143.38 C 164.68 144.12 166.00 144.00 166.74 143.11 L 167.39 142.34 C 168.13 141.44 168.01 140.12 167.11 139.37 C 166.22 138.63 164.89 138.75 164.15 139.65 Z M 163.55 140.40 L 162.93 141.12 C 162.17 142.00 162.27 143.31 163.15 144.07 C 164.02 144.82 165.34 144.72 166.09 143.84 L 166.71 143.12 C 167.46 142.25 167.36 140.93 166.49 140.18 C 165.61 139.43 164.30 139.53 163.55 140.40 Z M 162.97 141.10 L 162.32 141.83 C 161.56 142.68 161.63 143.99 162.48 144.75 C 163.33 145.51 164.64 145.44 165.40 144.59 L 166.05 143.86 C 166.81 143.01 166.74 141.70 165.89 140.94 C 165.04 140.18 163.73 140.25 162.97 141.10 Z M 162.36 141.81 L 161.66 142.56 C 160.89 143.40 160.93 144.70 161.77 145.47 C 162.60 146.24 163.90 146.19 164.67 145.36 L 165.37 144.60 C 166.14 143.77 166.09 142.47 165.26 141.70 C 164.43 140.93 163.13 140.98 162.36 141.81 Z M 161.69 142.55 L 160.99 143.28 C 160.21 144.10 160.24 145.39 161.06 146.17 C 161.87 146.94 163.16 146.91 163.94 146.10 L 164.64 145.37 C 165.41 144.56 165.39 143.26 164.57 142.49 C 163.76 141.71 162.47 141.74 161.69 142.55 Z M 161.03 143.26 L 160.30 144.00 C 159.51 144.79 159.51 146.07 160.30 146.86 C 161.09 147.65 162.38 147.65 163.17 146.86 L 163.90 146.12 C 164.69 145.33 164.69 144.04 163.90 143.25 C 163.10 142.46 161.82 142.47 161.03 143.26 Z M 160.36 143.96 L 159.57 144.70 C 158.76 145.45 158.72 146.72 159.48 147.53 C 160.23 148.34 161.50 148.39 162.31 147.63 L 163.10 146.89 C 163.91 146.14 163.96 144.87 163.20 144.06 C 162.44 143.25 161.17 143.20 160.36 143.96 Z M 159.67 144.65 L 158.92 145.28 C 158.08 145.99 157.98 147.24 158.68 148.07 C 159.39 148.91 160.64 149.01 161.47 148.31 L 162.22 147.68 C 163.06 146.97 163.16 145.72 162.46 144.88 C 161.75 144.05 160.50 143.94 159.67 144.65 Z M 159.04 145.23 L 158.26 145.80 C 157.39 146.44 157.21 147.66 157.84 148.52 C 158.48 149.39 159.70 149.58 160.56 148.94 L 161.35 148.36 C 162.21 147.73 162.40 146.51 161.76 145.64 C 161.13 144.77 159.91 144.59 159.04 145.23 Z M 158.47 145.72 L 157.62 146.20 C 156.70 146.72 156.38 147.88 156.90 148.79 C 157.42 149.71 158.58 150.03 159.49 149.51 L 160.35 149.02 C 161.26 148.51 161.58 147.35 161.07 146.43 C 160.55 145.52 159.39 145.20 158.47 145.72 Z M 157.94 146.10 L 157.02 146.43 C 156.05 146.77 155.54 147.83 155.89 148.79 C 156.23 149.76 157.29 150.27 158.25 149.93 L 159.17 149.61 C 160.14 149.27 160.65 148.21 160.31 147.24 C 159.97 146.27 158.91 145.76 157.94 146.10 Z M 157.26 146.39 L 156.27 146.61 C 155.29 146.82 154.66 147.79 154.87 148.77 C 155.08 149.76 156.05 150.39 157.04 150.17 L 158.02 149.96 C 159.01 149.75 159.63 148.78 159.42 147.80 C 159.21 146.81 158.24 146.18 157.26 146.39 Z M 156.33 146.61 L 156.08 146.66 C 155.10 146.84 154.45 147.78 154.63 148.76 C 154.81 149.74 155.75 150.39 156.74 150.21 L 156.98 150.17 C 157.96 149.99 158.61 149.05 158.43 148.06 C 158.25 147.08 157.31 146.43 156.33 146.61 Z"
      fill="black"
      fill-rule="nonzero" /><path d="M 153.25 138.46 L 153.67 139.33 C 154.17 140.35 155.40 140.77 156.42 140.27 C 157.43 139.78 157.86 138.55 157.36 137.53 L 156.94 136.66 C 156.44 135.64 155.22 135.22 154.20 135.72 C 153.18 136.21 152.75 137.44 153.25 138.46 Z M 153.49 139.21 L 153.85 140.14 C 154.28 141.27 155.53 141.83 156.66 141.40 C 157.78 140.97 158.34 139.71 157.91 138.59 L 157.55 137.65 C 157.12 136.53 155.86 135.97 154.74 136.40 C 153.62 136.83 153.06 138.09 153.49 139.21 Z M 153.67 139.86 L 153.90 140.86 C 154.17 142.08 155.38 142.85 156.60 142.57 C 157.82 142.30 158.59 141.09 158.31 139.87 L 158.09 138.87 C 157.81 137.65 156.60 136.88 155.38 137.16 C 154.16 137.43 153.39 138.65 153.67 139.86 Z M 153.82 140.62 L 153.93 141.64 C 154.07 142.90 155.21 143.81 156.47 143.67 C 157.73 143.53 158.64 142.39 158.50 141.13 L 158.39 140.11 C 158.25 138.85 157.11 137.94 155.85 138.08 C 154.59 138.22 153.68 139.36 153.82 140.62 Z M 153.91 141.52 L 153.97 142.51 C 154.05 143.78 155.14 144.75 156.41 144.68 C 157.68 144.60 158.65 143.51 158.58 142.24 L 158.52 141.25 C 158.44 139.98 157.35 139.01 156.08 139.08 C 154.81 139.16 153.84 140.25 153.91 141.52 Z M 153.96 142.50 L 154.02 143.54 C 154.09 144.82 155.18 145.80 156.45 145.73 C 157.73 145.66 158.71 144.57 158.64 143.30 L 158.58 142.25 C 158.52 140.98 157.43 140.00 156.15 140.07 C 154.88 140.13 153.90 141.22 153.96 142.50 Z M 154.02 143.55 L 154.07 144.51 C 154.14 145.78 155.24 146.76 156.51 146.69 C 157.79 146.62 158.77 145.53 158.70 144.25 L 158.64 143.29 C 158.57 142.01 157.48 141.03 156.20 141.11 C 154.92 141.18 153.94 142.27 154.02 143.55 Z M 154.07 144.49 L 154.11 145.42 C 154.17 146.71 155.26 147.69 156.54 147.63 C 157.82 147.57 158.81 146.49 158.75 145.21 L 158.70 144.27 C 158.64 142.99 157.56 142.00 156.28 142.06 C 154.99 142.12 154.01 143.21 154.07 144.49 Z M 154.11 145.41 L 154.14 146.40 C 154.19 147.69 155.27 148.69 156.56 148.64 C 157.84 148.59 158.84 147.51 158.79 146.22 L 158.75 145.23 C 158.70 143.94 157.62 142.94 156.34 142.99 C 155.05 143.04 154.06 144.12 154.11 145.41 Z M 154.14 146.41 L 154.18 147.42 C 154.23 148.71 155.32 149.70 156.60 149.65 C 157.88 149.60 158.88 148.52 158.83 147.24 L 158.79 146.22 C 158.74 144.94 157.66 143.94 156.37 143.99 C 155.09 144.04 154.09 145.12 154.14 146.41 Z M 154.18 147.43 L 154.22 148.41 C 154.28 149.70 155.36 150.69 156.65 150.64 C 157.93 150.58 158.93 149.50 158.87 148.21 L 158.83 147.23 C 158.78 145.95 157.69 144.95 156.41 145.00 C 155.12 145.06 154.13 146.14 154.18 147.43 Z M 154.22 148.41 L 154.27 149.43 C 154.32 150.72 155.40 151.72 156.68 151.67 C 157.97 151.61 158.97 150.53 158.92 149.25 L 158.87 148.22 C 158.82 146.94 157.74 145.94 156.46 145.99 C 155.17 146.04 154.17 147.12 154.22 148.41 Z M 154.27 149.42 L 154.30 150.41 C 154.34 151.70 155.42 152.70 156.70 152.66 C 157.99 152.62 158.99 151.54 158.95 150.26 L 158.91 149.26 C 158.87 147.98 157.80 146.97 156.51 147.02 C 155.23 147.06 154.22 148.14 154.27 149.42 Z M 154.30 150.40 L 154.33 151.40 C 154.37 152.68 155.44 153.69 156.72 153.65 C 158.00 153.62 159.01 152.55 158.97 151.27 L 158.95 150.27 C 158.91 148.99 157.84 147.98 156.56 148.01 C 155.28 148.05 154.27 149.12 154.30 150.40 Z M 154.33 151.39 L 154.36 152.41 C 154.39 153.69 155.46 154.70 156.74 154.67 C 158.02 154.64 159.03 153.57 159.00 152.29 L 158.97 151.27 C 158.94 149.99 157.88 148.98 156.59 149.01 C 155.31 149.04 154.30 150.11 154.33 151.39 Z M 154.36 152.40 L 154.39 153.38 C 154.42 154.66 155.48 155.67 156.76 155.64 C 158.04 155.61 159.05 154.55 159.02 153.27 L 158.99 152.29 C 158.96 151.01 157.90 150.00 156.62 150.03 C 155.34 150.06 154.33 151.13 154.36 152.40 Z M 154.39 153.38 L 154.41 154.37 C 154.44 155.65 155.50 156.66 156.78 156.63 C 158.05 156.60 159.06 155.54 159.04 154.27 L 159.01 153.27 C 158.98 151.99 157.92 150.98 156.65 151.01 C 155.37 151.04 154.36 152.10 154.39 153.38 Z M 154.42 154.37 L 154.44 155.39 C 154.47 156.67 155.52 157.68 156.80 157.65 C 158.07 157.62 159.08 156.57 159.05 155.30 L 159.03 154.27 C 159.00 153.00 157.95 151.99 156.68 152.01 C 155.40 152.04 154.39 153.09 154.42 154.37 Z M 154.45 155.39 L 154.46 156.36 C 154.49 157.64 155.54 158.65 156.81 158.62 C 158.08 158.60 159.09 157.55 159.07 156.28 L 159.05 155.30 C 159.02 154.03 157.97 153.02 156.70 153.04 C 155.43 153.07 154.42 154.12 154.45 155.39 Z M 154.47 156.36 L 154.48 157.35 C 154.51 158.62 155.55 159.64 156.82 159.61 C 158.09 159.59 159.10 158.54 159.08 157.27 L 159.06 156.28 C 159.04 155.01 157.99 154.00 156.72 154.02 C 155.45 154.04 154.44 155.09 154.47 156.36 Z M 154.48 157.35 L 154.50 158.37 C 154.52 159.64 155.57 160.65 156.84 160.63 C 158.11 160.61 159.12 159.56 159.10 158.29 L 159.08 157.27 C 159.06 156.00 158.01 154.99 156.74 155.02 C 155.47 155.04 154.46 156.08 154.48 157.35 Z M 154.50 158.37 L 154.52 159.38 C 154.54 160.65 155.59 161.66 156.86 161.63 C 158.13 161.61 159.14 160.56 159.12 159.29 L 159.10 158.29 C 159.07 157.02 158.03 156.01 156.76 156.03 C 155.49 156.06 154.48 157.10 154.50 158.37 Z M 154.52 159.38 L 154.54 160.37 C 154.56 161.64 155.61 162.65 156.88 162.62 C 158.15 162.60 159.16 161.55 159.14 160.28 L 159.12 159.29 C 159.09 158.02 158.05 157.01 156.78 157.04 C 155.51 157.06 154.50 158.11 154.52 159.38 Z M 154.53 160.36 L 154.55 161.37 C 154.57 162.64 155.62 163.65 156.89 163.63 C 158.16 163.61 159.18 162.56 159.16 161.29 L 159.14 160.29 C 159.12 159.02 158.07 158.00 156.80 158.02 C 155.53 158.04 154.51 159.09 154.53 160.36 Z M 154.55 161.36 L 154.56 162.38 C 154.58 163.65 155.62 164.67 156.89 164.65 C 158.17 164.64 159.19 163.59 159.17 162.32 L 159.16 161.30 C 159.14 160.03 158.10 159.01 156.82 159.02 C 155.55 159.04 154.53 160.08 154.55 161.36 Z M 154.56 162.37 L 154.57 163.35 C 154.58 164.62 155.62 165.65 156.89 165.64 C 158.17 165.63 159.19 164.59 159.18 163.31 L 159.17 162.33 C 159.16 161.05 158.12 160.03 156.85 160.04 C 155.57 160.05 154.55 161.09 154.56 162.37 Z M 154.56 163.34 L 154.57 164.33 C 154.58 165.61 155.62 166.64 156.89 166.63 C 158.17 166.62 159.19 165.58 159.19 164.31 L 159.18 163.32 C 159.18 162.04 158.14 161.01 156.86 161.02 C 155.59 161.03 154.56 162.07 154.56 163.34 Z M 154.57 164.33 L 154.57 165.34 C 154.58 166.61 155.62 167.64 156.90 167.64 C 158.17 167.63 159.20 166.59 159.19 165.32 L 159.19 164.31 C 159.18 163.03 158.14 162.00 156.87 162.01 C 155.59 162.02 154.56 163.06 154.57 164.33 Z M 154.57 165.35 L 154.58 166.37 C 154.59 167.64 155.63 168.67 156.91 168.66 C 158.18 168.65 159.21 167.61 159.20 166.33 L 159.19 165.31 C 159.18 164.03 158.14 163.01 156.87 163.02 C 155.59 163.03 154.56 164.07 154.57 165.35 Z M 154.58 166.38 L 154.60 167.39 C 154.61 168.67 155.66 169.69 156.93 169.67 C 158.20 169.66 159.22 168.61 159.21 167.34 L 159.20 166.32 C 159.18 165.05 158.14 164.03 156.86 164.04 C 155.59 164.06 154.57 165.10 154.58 166.38 Z M 154.60 167.40 L 154.62 168.41 C 154.63 169.68 155.68 170.70 156.95 170.68 C 158.22 170.66 159.24 169.62 159.22 168.35 L 159.20 167.33 C 159.19 166.06 158.14 165.05 156.87 165.06 C 155.60 165.08 154.58 166.12 154.60 167.40 Z M 154.62 168.41 L 154.63 169.41 C 154.65 170.67 155.69 171.69 156.96 171.67 C 158.23 171.65 159.24 170.61 159.23 169.35 L 159.21 168.35 C 159.20 167.08 158.15 166.07 156.89 166.08 C 155.62 166.10 154.60 167.14 154.62 168.41 Z M 154.64 169.40 L 154.65 170.39 C 154.66 171.66 155.70 172.67 156.96 172.66 C 158.23 172.65 159.24 171.61 159.23 170.34 L 159.22 169.35 C 159.21 168.09 158.17 167.07 156.91 167.08 C 155.64 167.10 154.63 168.13 154.64 169.40 Z M 154.65 170.38 L 154.66 171.43 C 154.67 172.69 155.70 173.71 156.96 173.70 C 158.23 173.69 159.24 172.66 159.23 171.40 L 159.23 170.35 C 159.22 169.09 158.19 168.07 156.93 168.08 C 155.66 168.09 154.65 169.12 154.65 170.38 Z M 154.66 171.43 L 154.67 172.42 C 154.68 173.68 155.70 174.70 156.96 174.69 C 158.22 174.68 159.24 173.66 159.24 172.40 L 159.23 171.40 C 159.22 170.14 158.20 169.13 156.94 169.13 C 155.68 169.14 154.66 170.17 154.66 171.43 Z M 154.67 172.42 L 154.68 173.37 C 154.69 174.63 155.71 175.65 156.97 175.64 C 158.23 175.63 159.24 174.60 159.24 173.34 L 159.23 172.39 C 159.22 171.14 158.20 170.12 156.94 170.13 C 155.68 170.14 154.67 171.16 154.67 172.42 Z M 154.68 173.38 L 154.69 174.41 C 154.71 175.66 155.74 176.67 156.99 176.66 C 158.25 176.65 159.26 175.62 159.24 174.36 L 159.23 173.33 C 159.22 172.08 158.19 171.07 156.93 171.08 C 155.68 171.10 154.67 172.13 154.68 173.38 Z M 154.70 174.41 L 154.71 175.42 C 154.73 176.67 155.76 177.68 157.01 177.66 C 158.27 177.64 159.27 176.61 159.25 175.36 L 159.24 174.35 C 159.22 173.10 158.19 172.09 156.94 172.11 C 155.68 172.13 154.68 173.16 154.70 174.41 Z M 154.71 175.42 L 154.72 176.38 C 154.74 177.64 155.77 178.64 157.02 178.62 C 158.28 178.61 159.28 177.58 159.26 176.33 L 159.25 175.36 C 159.24 174.11 158.21 173.10 156.95 173.12 C 155.70 173.13 154.70 174.16 154.71 175.42 Z M 154.73 176.37 L 154.73 177.40 C 154.74 178.65 155.77 179.66 157.02 179.65 C 158.27 179.64 159.28 178.62 159.27 177.37 L 159.26 176.34 C 159.25 175.09 158.23 174.08 156.98 174.09 C 155.73 174.10 154.72 175.12 154.73 176.37 Z M 154.74 177.39 L 154.74 178.39 C 154.74 179.64 155.76 180.65 157.01 180.64 C 158.26 180.64 159.27 179.63 159.27 178.38 L 159.27 177.38 C 159.26 176.13 158.25 175.12 157.00 175.12 C 155.75 175.12 154.73 176.14 154.74 177.39 Z M 154.74 178.38 L 154.74 179.36 C 154.74 180.61 155.76 181.62 157.00 181.62 C 158.25 181.62 159.26 180.61 159.26 179.36 L 159.26 178.38 C 159.26 177.13 158.25 176.12 157.00 176.12 C 155.76 176.12 154.74 177.13 154.74 178.38 Z M 154.75 179.36 L 154.75 180.39 C 154.75 181.64 155.76 182.65 157.00 182.65 C 158.25 182.65 159.26 181.64 159.26 180.39 L 159.26 179.36 C 159.26 178.12 158.25 177.11 157.00 177.11 C 155.76 177.11 154.75 178.12 154.75 179.36 Z M 154.75 180.39 L 154.75 181.35 C 154.75 182.60 155.76 183.61 157.00 183.61 C 158.25 183.61 159.26 182.60 159.26 181.35 L 159.26 180.39 C 159.26 179.14 158.25 178.13 157.00 178.13 C 155.76 178.13 154.75 179.14 154.75 180.39 Z M 154.75 181.36 L 154.76 182.26 C 154.76 183.50 155.77 184.51 157.01 184.51 C 158.25 184.50 159.26 183.49 159.26 182.25 L 159.25 181.35 C 159.25 180.11 158.24 179.10 157.00 179.10 C 155.76 179.10 154.75 180.11 154.75 181.36 Z M 154.76 182.28 L 154.77 183.29 C 154.79 184.53 155.80 185.53 157.04 185.51 C 158.28 185.50 159.28 184.48 159.26 183.24 L 159.25 182.23 C 159.24 180.99 158.22 180.00 156.98 180.01 C 155.74 180.02 154.75 181.04 154.76 182.28 Z M 154.78 183.32 L 154.80 184.38 C 154.83 185.61 155.86 186.59 157.10 186.56 C 158.33 186.53 159.31 185.51 159.28 184.27 L 159.26 183.21 C 159.23 181.98 158.20 181.00 156.96 181.03 C 155.73 181.06 154.75 182.08 154.78 183.32 Z M 154.81 184.39 L 154.84 185.43 C 154.87 186.66 155.91 187.63 157.14 187.60 C 158.38 187.56 159.35 186.53 159.31 185.29 L 159.28 184.26 C 159.24 183.02 158.21 182.05 156.98 182.09 C 155.74 182.12 154.77 183.16 154.81 184.39 Z M 154.84 185.43 L 154.87 186.46 C 154.91 187.69 155.94 188.66 157.17 188.62 C 158.41 188.59 159.37 187.56 159.34 186.32 L 159.31 185.29 C 159.27 184.06 158.24 183.09 157.01 183.13 C 155.77 183.17 154.80 184.20 154.84 185.43 Z M 154.88 186.45 L 154.91 187.61 C 154.94 188.84 155.96 189.81 157.19 189.78 C 158.42 189.75 159.39 188.72 159.36 187.50 L 159.33 186.34 C 159.30 185.11 158.28 184.13 157.05 184.17 C 155.82 184.20 154.85 185.22 154.88 186.45 Z M 154.91 187.59 L 154.93 188.42 C 154.95 189.65 155.96 190.63 157.18 190.61 C 158.41 190.59 159.39 189.58 159.37 188.35 L 159.36 187.52 C 159.34 186.29 158.33 185.31 157.10 185.33 C 155.87 185.35 154.89 186.36 154.91 187.59 Z M 159.33 188.39 L 159.33 187.86 C 159.33 186.66 158.35 185.68 157.15 185.68 C 155.94 185.68 154.97 186.66 154.97 187.86 L 154.97 188.38 C 154.97 189.59 155.94 190.56 157.15 190.56 C 158.35 190.56 159.33 189.59 159.33 188.39 Z M 159.24 187.86 L 159.24 186.79 C 159.24 185.64 158.30 184.70 157.15 184.70 C 155.99 184.70 155.06 185.64 155.06 186.79 L 155.06 187.86 C 155.06 189.02 155.99 189.95 157.15 189.95 C 158.30 189.95 159.24 189.02 159.24 187.86 Z M 159.15 186.79 L 159.15 185.81 C 159.15 184.71 158.25 183.81 157.15 183.81 C 156.04 183.81 155.15 184.71 155.15 185.81 L 155.15 186.79 C 155.15 187.89 156.04 188.79 157.15 188.79 C 158.25 188.79 159.15 187.89 159.15 186.79 Z"
      fill="black"
      fill-rule="nonzero" /></svg>