<svg xmlns="http://www.w3.org/2000/svg" width="300" height="300" viewBox="0 0 300 300">
<path d="M 142.41 98.49 L 141.37 98.50 C 140.22 98.51 139.29 99.45 139.30 100.60 C 139.31 101.74 140.24 102.67 141.39 102.66 L 142.43 102.66 C 143.58 102.65 144.51 101.71 144.50 100.56 C 144.49 99.41 143.56 98.49 142.41 98.49 Z M 140.67 102.68 L 141.32 102.90 C 142.48 103.29 143.73 102.67 144.12 101.51 C 144.51 100.35 143.89 99.09 142.73 98.70 L 142.09 98.49 C 140.93 98.09 139.67 98.72 139.28 99.87 C 138.89 101.03 139.52 102.29 140.67 102.68 Z M 141.46 102.97 L 142.61 103.27 C 143.80 103.58 145.03 102.86 145.34 101.67 C 145.65 100.47 144.94 99.25 143.74 98.93 L 142.59 98.63 C 141.40 98.32 140.17 99.04 139.86 100.23 C 139.55 101.43 140.26 102.65 141.46 102.97 Z M 142.55 103.25 L 143.50 103.52 C 144.69 103.87 145.93 103.18 146.27 101.99 C 146.61 100.80 145.92 99.56 144.74 99.22 L 143.79 98.95 C 142.60 98.61 141.36 99.29 141.02 100.48 C 140.68 101.67 141.37 102.91 142.55 103.25 Z M 143.50 103.51 L 144.48 103.79 C 145.66 104.13 146.89 103.44 147.23 102.26 C 147.57 101.08 146.88 99.85 145.70 99.51 L 144.73 99.23 C 143.55 98.89 142.31 99.58 141.97 100.76 C 141.64 101.94 142.32 103.18 143.50 103.51 Z M 144.52 103.78 L 145.46 104.03 C 146.64 104.35 147.85 103.65 148.16 102.47 C 148.48 101.30 147.78 100.09 146.60 99.77 L 145.66 99.52 C 144.48 99.21 143.28 99.90 142.96 101.08 C 142.65 102.26 143.34 103.46 144.52 103.78 Z M 145.51 104.01 L 146.51 104.26 C 147.68 104.54 148.85 103.84 149.14 102.67 C 149.43 101.51 148.72 100.33 147.56 100.04 L 146.56 99.80 C 145.39 99.51 144.22 100.22 143.93 101.38 C 143.64 102.54 144.35 103.72 145.51 104.01 Z M 146.57 104.23 L 147.55 104.45 C 148.70 104.71 149.84 103.99 150.09 102.84 C 150.35 101.69 149.63 100.55 148.48 100.29 L 147.50 100.07 C 146.35 99.81 145.21 100.54 144.96 101.68 C 144.70 102.83 145.42 103.97 146.57 104.23 Z M 147.60 104.41 L 148.58 104.61 C 149.71 104.84 150.81 104.11 151.04 102.98 C 151.27 101.85 150.54 100.75 149.41 100.53 L 148.43 100.33 C 147.30 100.10 146.20 100.83 145.97 101.96 C 145.74 103.09 146.47 104.19 147.60 104.41 Z M 148.63 104.57 L 149.62 104.75 C 150.73 104.95 151.79 104.22 151.99 103.11 C 152.19 102.00 151.46 100.94 150.35 100.74 L 149.36 100.56 C 148.25 100.36 147.19 101.10 146.99 102.21 C 146.79 103.31 147.52 104.37 148.63 104.57 Z M 149.66 104.72 L 150.64 104.88 C 151.74 105.06 152.76 104.32 152.94 103.23 C 153.12 102.14 152.38 101.11 151.29 100.93 L 150.31 100.77 C 149.22 100.59 148.19 101.33 148.01 102.43 C 147.83 103.52 148.57 104.55 149.66 104.72 Z M 150.67 104.86 L 151.66 105.01 C 152.74 105.18 153.75 104.43 153.91 103.35 C 154.08 102.27 153.33 101.26 152.25 101.10 L 151.26 100.95 C 150.18 100.79 149.17 101.53 149.01 102.61 C 148.85 103.69 149.59 104.70 150.67 104.86 Z M 151.68 104.99 L 152.68 105.13 C 153.75 105.29 154.74 104.55 154.89 103.48 C 155.05 102.41 154.31 101.42 153.24 101.27 L 152.24 101.13 C 151.17 100.97 150.18 101.71 150.03 102.78 C 149.87 103.85 150.61 104.84 151.68 104.99 Z M 152.70 105.11 L 153.71 105.25 C 154.76 105.39 155.73 104.66 155.88 103.61 C 156.03 102.56 155.29 101.59 154.24 101.44 L 153.23 101.30 C 152.18 101.15 151.21 101.89 151.06 102.94 C 150.91 103.99 151.65 104.96 152.70 105.11 Z M 153.73 105.22 L 154.71 105.35 C 155.74 105.48 156.69 104.75 156.83 103.72 C 156.96 102.68 156.23 101.73 155.20 101.60 L 154.22 101.47 C 153.19 101.33 152.24 102.06 152.10 103.10 C 151.97 104.13 152.70 105.08 153.73 105.22 Z M 154.74 105.32 L 155.75 105.44 C 156.78 105.56 157.70 104.82 157.82 103.80 C 157.94 102.78 157.20 101.85 156.18 101.74 L 155.17 101.62 C 154.14 101.50 153.22 102.24 153.10 103.26 C 152.98 104.28 153.72 105.21 154.74 105.32 Z M 155.78 105.42 L 156.77 105.52 C 157.78 105.62 158.68 104.88 158.79 103.87 C 158.89 102.86 158.15 101.95 157.13 101.85 L 156.15 101.75 C 155.14 101.65 154.23 102.39 154.13 103.40 C 154.03 104.42 154.77 105.32 155.78 105.42 Z M 156.78 105.51 L 157.75 105.60 C 158.76 105.69 159.65 104.95 159.74 103.95 C 159.83 102.94 159.10 102.05 158.09 101.96 L 157.12 101.87 C 156.12 101.77 155.23 102.51 155.13 103.52 C 155.04 104.52 155.78 105.41 156.78 105.51 Z M 157.75 105.58 L 158.75 105.68 C 159.74 105.77 160.63 105.04 160.72 104.04 C 160.82 103.04 160.09 102.16 159.09 102.06 L 158.09 101.97 C 157.09 101.88 156.21 102.61 156.11 103.61 C 156.02 104.60 156.75 105.49 157.75 105.58 Z M 158.75 105.67 L 159.48 105.74 C 160.47 105.83 161.35 105.10 161.45 104.11 C 161.54 103.12 160.81 102.24 159.82 102.14 L 159.09 102.07 C 158.09 101.98 157.21 102.71 157.12 103.70 C 157.03 104.69 157.75 105.57 158.75 105.67 Z"
      fill="black"
      fill-rule="nonzero" /><path d="M 130.01 115.39 L 130.84 115.95 C 131.71 116.53 132.88 116.30 133.46 115.44 C 134.04 114.57 133.81 113.40 132.95 112.82 L 132.11 112.26 C 131.24 111.68 130.07 111.91 129.49 112.78 C 128.91 113.64 129.14 114.81 130.01 115.39 Z M 131.06 116.27 L 131.96 116.67 C 133.00 117.13 134.22 116.66 134.68 115.62 C 135.14 114.58 134.67 113.37 133.63 112.91 L 132.73 112.50 C 131.69 112.04 130.48 112.51 130.01 113.55 C 129.55 114.59 130.02 115.81 131.06 116.27 Z M 132.48 116.92 L 133.48 117.07 C 134.66 117.24 135.76 116.43 135.93 115.25 C 136.11 114.07 135.29 112.97 134.11 112.80 L 133.11 112.65 C 131.93 112.48 130.84 113.29 130.66 114.47 C 130.49 115.65 131.30 116.75 132.48 116.92 Z M 133.80 117.13 L 134.80 117.13 C 136.01 117.13 136.99 116.15 136.99 114.94 C 136.99 113.73 136.01 112.74 134.80 112.74 L 133.80 112.74 C 132.59 112.74 131.61 113.72 131.61 114.93 C 131.61 116.14 132.59 117.13 133.80 117.13 Z M 134.89 117.14 L 135.89 117.10 C 137.11 117.05 138.06 116.02 138.01 114.80 C 137.96 113.59 136.93 112.64 135.71 112.69 L 134.71 112.73 C 133.49 112.78 132.54 113.81 132.59 115.03 C 132.64 116.24 133.67 117.19 134.89 117.14 Z M 135.94 117.10 L 136.91 117.03 C 138.13 116.96 139.05 115.90 138.97 114.69 C 138.89 113.47 137.84 112.55 136.62 112.63 L 135.66 112.69 C 134.44 112.77 133.52 113.82 133.60 115.04 C 133.68 116.25 134.73 117.18 135.94 117.10 Z M 136.93 117.03 L 137.94 116.96 C 139.16 116.86 140.07 115.80 139.98 114.58 C 139.89 113.37 138.82 112.46 137.61 112.55 L 136.60 112.63 C 135.38 112.72 134.47 113.78 134.56 115.00 C 134.65 116.22 135.72 117.13 136.93 117.03 Z M 137.94 116.96 L 138.92 116.88 C 140.14 116.79 141.05 115.73 140.95 114.51 C 140.86 113.29 139.80 112.38 138.58 112.47 L 137.60 112.55 C 136.39 112.64 135.48 113.71 135.57 114.92 C 135.66 116.14 136.73 117.05 137.94 116.96 Z M 138.91 116.89 L 139.92 116.81 C 141.14 116.73 142.06 115.67 141.97 114.45 C 141.89 113.23 140.83 112.31 139.61 112.40 L 138.59 112.47 C 137.37 112.56 136.45 113.62 136.54 114.84 C 136.63 116.06 137.69 116.97 138.91 116.89 Z M 139.91 116.82 L 140.89 116.75 C 142.12 116.68 143.04 115.62 142.97 114.40 C 142.89 113.18 141.83 112.25 140.61 112.33 L 139.62 112.39 C 138.40 112.47 137.48 113.52 137.55 114.75 C 137.63 115.97 138.69 116.89 139.91 116.82 Z M 140.87 116.76 L 141.88 116.71 C 143.10 116.64 144.04 115.60 143.98 114.38 C 143.92 113.15 142.87 112.21 141.65 112.27 L 140.64 112.33 C 139.42 112.39 138.47 113.43 138.54 114.66 C 138.60 115.88 139.64 116.82 140.87 116.76 Z M 141.85 116.72 L 142.83 116.68 C 144.06 116.63 145.02 115.60 144.98 114.37 C 144.93 113.14 143.90 112.18 142.67 112.23 L 141.68 112.26 C 140.45 112.31 139.49 113.35 139.54 114.57 C 139.58 115.80 140.62 116.76 141.85 116.72 Z M 142.82 116.69 L 143.83 116.66 C 145.07 116.62 146.04 115.58 146.00 114.35 C 145.96 113.11 144.93 112.14 143.69 112.18 L 142.68 112.21 C 141.44 112.25 140.47 113.29 140.51 114.53 C 140.55 115.76 141.59 116.73 142.82 116.69 Z M 143.83 116.67 L 144.81 116.64 C 146.05 116.60 147.03 115.56 146.99 114.32 C 146.95 113.07 145.91 112.10 144.67 112.14 L 143.69 112.17 C 142.44 112.21 141.47 113.25 141.51 114.49 C 141.55 115.74 142.59 116.71 143.83 116.67 Z M 144.81 116.65 L 145.83 116.62 C 147.08 116.58 148.06 115.54 148.02 114.29 C 147.98 113.04 146.94 112.05 145.69 112.09 L 144.67 112.12 C 143.42 112.16 142.44 113.21 142.47 114.46 C 142.51 115.71 143.56 116.69 144.81 116.65 Z M 145.82 116.63 L 146.82 116.60 C 148.08 116.57 149.07 115.52 149.03 114.27 C 149.00 113.01 147.95 112.02 146.70 112.06 L 145.70 112.09 C 144.44 112.12 143.45 113.17 143.49 114.42 C 143.52 115.68 144.57 116.66 145.82 116.63 Z M 146.82 116.60 L 147.83 116.58 C 149.08 116.54 150.07 115.50 150.04 114.24 C 150.01 112.99 148.96 112.00 147.71 112.03 L 146.70 112.06 C 145.45 112.09 144.45 113.13 144.49 114.39 C 144.52 115.64 145.56 116.63 146.82 116.60 Z M 147.83 116.57 L 148.83 116.55 C 150.09 116.52 151.08 115.47 151.04 114.22 C 151.01 112.96 149.97 111.97 148.71 112.01 L 147.71 112.03 C 146.45 112.06 145.46 113.11 145.49 114.36 C 145.53 115.62 146.57 116.61 147.83 116.57 Z M 148.83 116.55 L 149.83 116.52 C 151.08 116.49 152.07 115.45 152.04 114.20 C 152.01 112.94 150.97 111.95 149.72 111.98 L 148.72 112.01 C 147.46 112.04 146.47 113.08 146.50 114.33 C 146.53 115.59 147.57 116.58 148.83 116.55 Z M 149.81 116.52 L 150.80 116.50 C 152.05 116.48 153.05 115.45 153.03 114.20 C 153.01 112.94 151.98 111.95 150.72 111.97 L 149.73 111.99 C 148.48 112.01 147.48 113.04 147.51 114.29 C 147.53 115.54 148.56 116.54 149.81 116.52 Z M 150.78 116.49 L 151.78 116.48 C 153.03 116.47 154.03 115.46 154.02 114.21 C 154.01 112.97 152.99 111.96 151.75 111.97 L 150.75 111.98 C 149.50 111.99 148.50 113.01 148.51 114.25 C 148.52 115.50 149.54 116.50 150.78 116.49 Z M 151.77 116.46 L 152.77 116.46 C 154.00 116.46 155.00 115.46 155.00 114.22 C 155.00 112.99 154.00 111.99 152.76 111.99 L 151.76 111.99 C 150.52 111.99 149.52 113.00 149.53 114.23 C 149.53 115.47 150.53 116.47 151.77 116.46 Z M 152.76 116.44 L 153.77 116.44 C 155.00 116.44 155.99 115.45 155.99 114.23 C 155.99 113.00 155.00 112.01 153.77 112.01 L 152.76 112.01 C 151.54 112.01 150.55 113.00 150.55 114.23 C 150.55 115.45 151.54 116.44 152.76 116.44 Z M 153.77 116.43 L 154.77 116.43 C 155.99 116.43 156.97 115.44 156.97 114.23 C 156.97 113.01 155.99 112.03 154.77 112.03 L 153.77 112.03 C 152.56 112.03 151.57 113.01 151.57 114.23 C 151.57 115.44 152.56 116.43 153.77 116.43 Z M 154.77 116.41 L 155.77 116.41 C 156.98 116.41 157.95 115.43 157.95 114.23 C 157.95 113.02 156.98 112.04 155.77 112.04 L 154.77 112.04 C 153.56 112.04 152.59 113.02 152.59 114.23 C 152.59 115.43 153.56 116.41 154.77 116.41 Z M 155.77 116.41 L 156.77 116.41 C 157.98 116.41 158.95 115.43 158.95 114.23 C 158.95 113.02 157.98 112.05 156.77 112.05 L 155.77 112.05 C 154.57 112.05 153.59 113.02 153.59 114.23 C 153.59 115.43 154.57 116.41 155.77 116.41 Z M 156.77 116.41 L 157.76 116.41 C 158.97 116.41 159.94 115.43 159.94 114.23 C 159.94 113.02 158.97 112.05 157.76 112.05 L 156.77 112.05 C 155.57 112.05 154.59 113.02 154.59 114.23 C 154.59 115.43 155.57 116.41 156.77 116.41 Z M 157.76 116.40 L 158.76 116.40 C 159.96 116.40 160.94 115.43 160.94 114.23 C 160.94 113.02 159.96 112.05 158.76 112.05 L 157.76 112.05 C 156.56 112.05 155.58 113.02 155.58 114.23 C 155.58 115.43 156.56 116.40 157.76 116.40 Z M 158.76 116.40 L 159.76 116.40 C 160.97 116.40 161.94 115.43 161.94 114.23 C 161.94 113.02 160.97 112.05 159.76 112.05 L 158.76 112.05 C 157.56 112.05 156.58 113.02 156.58 114.23 C 156.58 115.43 157.56 116.40 158.76 116.40 Z M 159.76 116.40 L 160.72 116.40 C 161.92 116.40 162.89 115.43 162.89 114.23 C 162.89 113.03 161.92 112.05 160.72 112.05 L 159.76 112.05 C 158.56 112.05 157.59 113.03 157.59 114.23 C 157.59 115.43 158.56 116.40 159.76 116.40 Z M 160.72 116.39 L 161.73 116.39 C 162.93 116.39 163.89 115.42 163.89 114.23 C 163.89 113.03 162.93 112.06 161.73 112.06 L 160.72 112.06 C 159.52 112.06 158.56 113.03 158.56 114.23 C 158.56 115.42 159.52 116.39 160.72 116.39 Z M 161.73 116.38 L 162.76 116.38 C 163.95 116.38 164.91 115.41 164.91 114.23 C 164.91 113.04 163.95 112.07 162.76 112.07 L 161.73 112.07 C 160.54 112.07 159.58 113.04 159.58 114.23 C 159.58 115.41 160.54 116.38 161.73 116.38 Z M 162.76 116.36 L 163.77 116.36 C 164.95 116.37 165.91 115.41 165.92 114.23 C 165.92 113.05 164.96 112.09 163.78 112.09 L 162.76 112.09 C 161.58 112.09 160.62 113.04 160.62 114.22 C 160.62 115.40 161.57 116.36 162.76 116.36 Z M 163.76 116.35 L 164.76 116.36 C 165.93 116.36 166.89 115.42 166.89 114.25 C 166.90 113.08 165.96 112.12 164.79 112.11 L 163.79 112.11 C 162.62 112.10 161.67 113.04 161.66 114.21 C 161.65 115.39 162.59 116.34 163.76 116.35 Z M 164.73 116.31 L 165.79 116.33 C 166.94 116.35 167.89 115.44 167.91 114.29 C 167.93 113.14 167.02 112.20 165.87 112.18 L 164.81 112.16 C 163.66 112.14 162.72 113.05 162.70 114.20 C 162.67 115.34 163.59 116.29 164.73 116.31 Z M 165.73 116.25 L 166.70 116.30 C 167.81 116.35 168.75 115.50 168.80 114.40 C 168.85 113.29 168.00 112.35 166.90 112.30 L 165.93 112.25 C 164.82 112.20 163.88 113.05 163.83 114.16 C 163.78 115.26 164.63 116.20 165.73 116.25 Z M 166.57 116.22 L 167.74 116.36 C 168.80 116.49 169.76 115.73 169.89 114.67 C 170.01 113.60 169.25 112.64 168.19 112.52 L 167.03 112.38 C 165.97 112.25 165.00 113.01 164.88 114.07 C 164.75 115.13 165.51 116.10 166.57 116.22 Z M 166.90 116.00 L 167.27 116.26 C 168.13 116.85 169.31 116.62 169.90 115.76 C 170.49 114.90 170.27 113.72 169.40 113.13 L 169.03 112.87 C 168.17 112.28 166.99 112.51 166.40 113.37 C 165.81 114.23 166.03 115.41 166.90 116.00 Z M 167.83 112.90 L 166.89 113.17 C 165.91 113.45 165.33 114.48 165.61 115.47 C 165.89 116.45 166.92 117.03 167.91 116.75 L 168.85 116.48 C 169.83 116.20 170.41 115.17 170.13 114.18 C 169.84 113.20 168.82 112.62 167.83 112.90 Z M 167.03 113.16 L 166.46 113.28 C 165.47 113.49 164.83 114.46 165.04 115.45 C 165.25 116.44 166.22 117.08 167.21 116.87 L 167.78 116.75 C 168.77 116.55 169.40 115.57 169.20 114.58 C 168.99 113.59 168.02 112.96 167.03 113.16 Z"
      fill="black"
      fill-rule="nonzero" /><path d="M 129.54 113.80 L 128.62 114.22 C 127.66 114.66 127.24 115.80 127.68 116.76 C 128.12 117.72 129.26 118.14 130.22 117.70 L 131.14 117.28 C 132.10 116.84 132.52 115.70 132.08 114.74 C 131.64 113.78 130.50 113.36 129.54 113.80 Z M 127.84 114.76 L 127.35 115.41 C 126.68 116.28 126.85 117.53 127.72 118.19 C 128.60 118.85 129.84 118.68 130.50 117.81 L 131.00 117.16 C 131.66 116.29 131.49 115.05 130.62 114.38 C 129.75 113.72 128.51 113.89 127.84 114.76 Z M 126.94 116.24 L 126.77 117.16 C 126.56 118.26 127.28 119.31 128.37 119.52 C 129.47 119.73 130.53 119.01 130.73 117.91 L 130.91 116.99 C 131.12 115.89 130.40 114.84 129.30 114.63 C 128.20 114.42 127.15 115.14 126.94 116.24 Z M 126.71 117.41 L 126.64 118.57 C 126.57 119.70 127.43 120.66 128.55 120.73 C 129.68 120.80 130.64 119.95 130.71 118.82 L 130.79 117.66 C 130.86 116.54 130.00 115.57 128.87 115.50 C 127.75 115.43 126.78 116.29 126.71 117.41 Z M 126.62 118.62 L 126.58 119.60 C 126.54 120.74 127.42 121.70 128.56 121.74 C 129.69 121.78 130.65 120.90 130.70 119.76 L 130.73 118.78 C 130.78 117.64 129.89 116.68 128.76 116.64 C 127.62 116.60 126.67 117.48 126.62 118.62 Z M 126.57 119.62 L 126.54 120.67 C 126.50 121.82 127.40 122.77 128.54 122.81 C 129.69 122.84 130.64 121.94 130.68 120.80 L 130.71 119.75 C 130.75 118.60 129.85 117.65 128.70 117.61 C 127.56 117.58 126.60 118.48 126.57 119.62 Z M 126.52 120.68 L 126.50 121.70 C 126.47 122.86 127.38 123.81 128.53 123.84 C 129.69 123.87 130.64 122.96 130.67 121.80 L 130.69 120.78 C 130.72 119.63 129.81 118.68 128.66 118.65 C 127.50 118.62 126.55 119.53 126.52 120.68 Z M 126.49 121.72 L 126.47 122.80 C 126.45 123.96 127.37 124.92 128.53 124.94 C 129.69 124.96 130.64 124.03 130.66 122.87 L 130.68 121.79 C 130.70 120.63 129.78 119.67 128.62 119.66 C 127.46 119.64 126.50 120.56 126.49 121.72 Z M 126.46 122.82 L 126.45 123.81 C 126.44 124.97 127.37 125.92 128.53 125.94 C 129.69 125.95 130.64 125.02 130.66 123.86 L 130.67 122.86 C 130.68 121.70 129.75 120.75 128.59 120.74 C 127.43 120.72 126.47 121.65 126.46 122.82 Z M 126.45 123.81 L 126.44 124.72 C 126.43 125.88 127.36 126.84 128.52 126.85 C 129.69 126.86 130.64 125.93 130.65 124.77 L 130.66 123.86 C 130.67 122.69 129.74 121.74 128.58 121.73 C 127.41 121.72 126.46 122.65 126.45 123.81 Z M 126.44 124.71 L 126.42 125.66 C 126.40 126.82 127.33 127.78 128.49 127.80 C 129.66 127.82 130.62 126.89 130.64 125.73 L 130.65 124.78 C 130.67 123.62 129.75 122.66 128.58 122.64 C 127.42 122.62 126.46 123.54 126.44 124.71 Z M 126.42 125.65 L 126.40 126.66 C 126.38 127.82 127.30 128.78 128.47 128.81 C 129.63 128.83 130.60 127.90 130.62 126.74 L 130.64 125.74 C 130.66 124.57 129.73 123.61 128.57 123.58 C 127.41 123.56 126.44 124.49 126.42 125.65 Z M 126.40 126.67 L 126.38 127.69 C 126.36 128.86 127.30 129.81 128.46 129.83 C 129.63 129.85 130.59 128.92 130.61 127.75 L 130.62 126.73 C 130.64 125.56 129.71 124.60 128.54 124.59 C 127.37 124.57 126.41 125.50 126.40 126.67 Z M 126.38 127.70 L 126.37 128.66 C 126.36 129.83 127.30 130.79 128.47 130.80 C 129.64 130.80 130.59 129.87 130.60 128.70 L 130.61 127.74 C 130.62 126.57 129.68 125.61 128.51 125.60 C 127.34 125.60 126.39 126.54 126.38 127.70 Z M 126.36 128.67 L 126.36 129.67 C 126.35 130.85 127.30 131.80 128.47 131.81 C 129.64 131.81 130.60 130.87 130.60 129.70 L 130.61 128.69 C 130.61 127.52 129.67 126.56 128.50 126.56 C 127.33 126.55 126.37 127.50 126.36 128.67 Z M 126.35 129.67 L 126.35 130.71 C 126.34 131.89 127.28 132.85 128.46 132.85 C 129.63 132.86 130.59 131.92 130.60 130.74 L 130.61 129.70 C 130.62 128.52 129.67 127.57 128.49 127.56 C 127.32 127.55 126.36 128.50 126.35 129.67 Z M 126.33 130.70 L 126.32 131.68 C 126.31 132.86 127.26 133.83 128.44 133.85 C 129.62 133.86 130.59 132.91 130.60 131.73 L 130.62 130.75 C 130.63 129.57 129.68 128.60 128.50 128.59 C 127.31 128.57 126.34 129.52 126.33 130.70 Z M 126.30 131.67 L 126.29 132.68 C 126.27 133.87 127.23 134.86 128.42 134.87 C 129.61 134.89 130.60 133.93 130.61 132.74 L 130.63 131.73 C 130.64 130.54 129.69 129.56 128.49 129.54 C 127.30 129.52 126.32 130.48 126.30 131.67 Z M 126.26 132.67 L 126.25 133.69 C 126.23 134.90 127.19 135.89 128.40 135.91 C 129.60 135.93 130.60 134.97 130.62 133.76 L 130.63 132.74 C 130.65 131.54 129.69 130.54 128.48 130.52 C 127.28 130.50 126.28 131.47 126.26 132.67 Z M 126.23 133.69 L 126.21 134.69 C 126.19 135.91 127.16 136.91 128.38 136.93 C 129.59 136.95 130.60 135.99 130.62 134.77 L 130.64 133.77 C 130.66 132.55 129.69 131.55 128.47 131.53 C 127.26 131.50 126.25 132.47 126.23 133.69 Z M 126.20 134.69 L 126.18 135.68 C 126.16 136.90 127.13 137.91 128.35 137.93 C 129.58 137.96 130.58 136.99 130.61 135.76 L 130.63 134.77 C 130.65 133.55 129.68 132.54 128.46 132.52 C 127.24 132.50 126.23 133.47 126.20 134.69 Z M 126.18 135.68 L 126.16 136.68 C 126.13 137.90 127.11 138.91 128.33 138.94 C 129.56 138.96 130.57 137.99 130.60 136.76 L 130.62 135.77 C 130.64 134.54 129.67 133.53 128.44 133.50 C 127.21 133.48 126.20 134.45 126.18 135.68 Z M 126.15 136.68 L 126.13 137.69 C 126.11 138.92 127.08 139.93 128.31 139.96 C 129.54 139.98 130.56 139.00 130.58 137.77 L 130.60 136.76 C 130.63 135.53 129.65 134.52 128.42 134.49 C 127.19 134.47 126.18 135.45 126.15 136.68 Z M 126.12 137.69 L 126.10 138.66 C 126.08 139.89 127.06 140.91 128.29 140.94 C 129.53 140.96 130.55 139.98 130.57 138.75 L 130.59 137.77 C 130.62 136.54 129.63 135.52 128.40 135.50 C 127.17 135.47 126.15 136.45 126.12 137.69 Z M 126.09 138.66 L 126.07 139.65 C 126.05 140.89 127.03 141.91 128.27 141.94 C 129.51 141.96 130.54 140.98 130.56 139.74 L 130.58 138.75 C 130.61 137.51 129.62 136.48 128.38 136.46 C 127.14 136.43 126.12 137.42 126.09 138.66 Z M 126.06 139.65 L 126.04 140.66 C 126.01 141.90 127.00 142.94 128.25 142.96 C 129.49 142.99 130.52 142.00 130.55 140.76 L 130.57 139.74 C 130.60 138.50 129.61 137.47 128.37 137.44 C 127.12 137.41 126.09 138.40 126.06 139.65 Z M 126.03 140.65 L 126.01 141.67 C 125.98 142.92 126.97 143.96 128.22 143.99 C 129.47 144.02 130.50 143.03 130.53 141.78 L 130.56 140.76 C 130.59 139.51 129.60 138.48 128.35 138.45 C 127.10 138.41 126.06 139.40 126.03 140.65 Z M 126.00 141.66 L 125.97 142.65 C 125.94 143.90 126.93 144.95 128.18 144.98 C 129.44 145.02 130.48 144.03 130.51 142.77 L 130.54 141.79 C 130.58 140.53 129.59 139.49 128.33 139.45 C 127.08 139.42 126.03 140.41 126.00 141.66 Z M 125.97 142.65 L 125.94 143.64 C 125.90 144.90 126.89 145.95 128.15 145.99 C 129.41 146.02 130.46 145.03 130.49 143.78 L 130.52 142.78 C 130.56 141.52 129.57 140.47 128.31 140.43 C 127.05 140.40 126.00 141.39 125.97 142.65 Z M 125.93 143.64 L 125.90 144.65 C 125.86 145.91 126.85 146.96 128.12 147.00 C 129.38 147.04 130.43 146.05 130.47 144.79 L 130.50 143.78 C 130.54 142.52 129.55 141.46 128.28 141.43 C 127.02 141.39 125.97 142.38 125.93 143.64 Z M 125.89 144.65 L 125.86 145.66 C 125.82 146.92 126.82 147.98 128.08 148.02 C 129.35 148.06 130.41 147.06 130.44 145.80 L 130.48 144.79 C 130.51 143.52 129.52 142.47 128.25 142.43 C 126.99 142.39 125.93 143.38 125.89 144.65 Z M 125.86 145.66 L 125.83 146.66 C 125.79 147.93 126.78 148.99 128.05 149.03 C 129.32 149.07 130.38 148.07 130.42 146.80 L 130.45 145.80 C 130.49 144.53 129.49 143.47 128.22 143.43 C 126.96 143.39 125.89 144.39 125.86 145.66 Z M 125.82 146.66 L 125.79 147.66 C 125.75 148.93 126.75 150.00 128.02 150.03 C 129.29 150.07 130.36 149.07 130.40 147.80 L 130.43 146.80 C 130.47 145.53 129.47 144.46 128.19 144.42 C 126.92 144.38 125.86 145.39 125.82 146.66 Z M 125.78 147.66 L 125.75 148.66 C 125.71 149.93 126.71 151.00 127.99 151.04 C 129.27 151.08 130.33 150.08 130.37 148.80 L 130.40 147.80 C 130.44 146.53 129.44 145.46 128.16 145.42 C 126.89 145.38 125.82 146.38 125.78 147.66 Z M 125.74 148.66 L 125.71 149.65 C 125.67 150.93 126.67 152.01 127.95 152.05 C 129.23 152.09 130.31 151.08 130.35 149.80 L 130.38 148.81 C 130.42 147.52 129.42 146.45 128.14 146.41 C 126.86 146.37 125.78 147.37 125.74 148.66 Z M 125.70 149.65 L 125.67 150.64 C 125.63 151.92 126.63 153.00 127.92 153.04 C 129.20 153.09 130.28 152.08 130.32 150.80 L 130.35 149.81 C 130.40 148.52 129.39 147.45 128.11 147.40 C 126.82 147.36 125.75 148.37 125.70 149.65 Z M 125.67 150.64 L 125.63 151.63 C 125.59 152.92 126.60 154.00 127.88 154.04 C 129.17 154.08 130.25 153.08 130.29 151.79 L 130.33 150.80 C 130.37 149.51 129.36 148.43 128.07 148.39 C 126.79 148.34 125.71 149.35 125.67 150.64 Z M 125.63 151.63 L 125.59 152.63 C 125.55 153.92 126.56 155.00 127.85 155.04 C 129.14 155.09 130.22 154.08 130.26 152.79 L 130.30 151.79 C 130.34 150.50 129.33 149.42 128.04 149.38 C 126.75 149.33 125.67 150.34 125.63 151.63 Z M 125.59 152.63 L 125.56 153.65 C 125.51 154.94 126.53 156.02 127.82 156.06 C 129.11 156.11 130.19 155.09 130.24 153.80 L 130.27 152.79 C 130.31 151.49 129.30 150.41 128.00 150.37 C 126.71 150.33 125.63 151.34 125.59 152.63 Z M 125.55 153.65 L 125.52 154.67 C 125.48 155.96 126.50 157.04 127.79 157.08 C 129.08 157.12 130.16 156.11 130.20 154.81 L 130.24 153.80 C 130.28 152.50 129.26 151.42 127.97 151.38 C 126.68 151.34 125.59 152.36 125.55 153.65 Z M 125.53 154.67 L 125.49 155.69 C 125.46 156.98 126.47 158.06 127.76 158.10 C 129.05 158.14 130.13 157.12 130.17 155.83 L 130.20 154.81 C 130.24 153.52 129.23 152.44 127.93 152.40 C 126.64 152.36 125.56 153.38 125.53 154.67 Z M 125.50 155.69 L 125.47 156.69 C 125.43 157.98 126.44 159.06 127.73 159.10 C 129.02 159.14 130.10 158.12 130.14 156.83 L 130.17 155.83 C 130.21 154.54 129.19 153.46 127.90 153.42 C 126.61 153.38 125.54 154.40 125.50 155.69 Z M 125.47 156.69 L 125.44 157.67 C 125.40 158.96 126.41 160.03 127.70 160.07 C 128.99 160.11 130.07 159.10 130.10 157.81 L 130.13 156.84 C 130.17 155.55 129.16 154.47 127.87 154.43 C 126.59 154.39 125.51 155.40 125.47 156.69 Z M 125.44 157.66 L 125.41 158.69 C 125.37 159.98 126.38 161.06 127.66 161.10 C 128.95 161.14 130.03 160.13 130.07 158.84 L 130.10 157.81 C 130.14 156.53 129.13 155.45 127.85 155.41 C 126.56 155.37 125.49 156.38 125.44 157.66 Z M 125.42 158.69 L 125.38 159.71 C 125.34 160.99 126.35 162.07 127.63 162.11 C 128.91 162.15 129.98 161.15 130.03 159.86 L 130.06 158.85 C 130.10 157.56 129.10 156.49 127.82 156.45 C 126.53 156.40 125.46 157.41 125.42 158.69 Z M 125.39 159.71 L 125.36 160.69 C 125.32 161.97 126.32 163.04 127.60 163.08 C 128.88 163.12 129.95 162.12 129.99 160.84 L 130.02 159.86 C 130.06 158.58 129.06 157.51 127.78 157.47 C 126.50 157.43 125.43 158.43 125.39 159.71 Z M 125.37 160.69 L 125.34 161.65 C 125.30 162.93 126.30 163.99 127.58 164.03 C 128.85 164.07 129.91 163.07 129.95 161.79 L 129.98 160.83 C 130.02 159.56 129.02 158.50 127.74 158.46 C 126.47 158.42 125.41 159.42 125.37 160.69 Z M 125.35 161.66 L 125.32 162.67 C 125.29 163.94 126.29 164.99 127.56 165.03 C 128.82 165.06 129.88 164.06 129.91 162.79 L 129.94 161.78 C 129.97 160.52 128.97 159.46 127.71 159.43 C 126.44 159.39 125.38 160.39 125.35 161.66 Z M 125.34 162.68 L 125.32 163.68 C 125.29 164.94 126.28 165.98 127.54 166.01 C 128.80 166.04 129.84 165.05 129.87 163.79 L 129.90 162.79 C 129.93 161.53 128.93 160.48 127.67 160.45 C 126.41 160.42 125.37 161.42 125.34 162.68 Z M 125.33 163.68 L 125.31 164.68 C 125.28 165.93 126.27 166.96 127.52 166.99 C 128.77 167.01 129.81 166.02 129.83 164.78 L 129.86 163.78 C 129.88 162.53 128.89 161.50 127.64 161.47 C 126.39 161.44 125.36 162.43 125.33 163.68 Z M 125.33 164.68 L 125.31 165.69 C 125.28 166.93 126.26 167.95 127.50 167.98 C 128.74 168.01 129.77 167.02 129.80 165.78 L 129.82 164.77 C 129.84 163.53 128.86 162.51 127.62 162.48 C 126.38 162.45 125.35 163.44 125.33 164.68 Z M 125.32 165.69 L 125.30 166.70 C 125.28 167.93 126.25 168.95 127.48 168.97 C 128.71 169.00 129.73 168.02 129.76 166.79 L 129.78 165.78 C 129.80 164.55 128.83 163.53 127.60 163.51 C 126.37 163.48 125.35 164.46 125.32 165.69 Z M 125.32 166.70 L 125.30 167.69 C 125.27 168.91 126.24 169.92 127.46 169.95 C 128.68 169.97 129.69 169.00 129.72 167.78 L 129.74 166.79 C 129.76 165.57 128.80 164.56 127.58 164.54 C 126.36 164.51 125.35 165.48 125.32 166.70 Z M 125.32 167.69 L 125.30 168.69 C 125.27 169.90 126.23 170.90 127.45 170.93 C 128.66 170.95 129.66 169.99 129.68 168.78 L 129.70 167.78 C 129.73 166.57 128.76 165.57 127.55 165.54 C 126.34 165.52 125.34 166.48 125.32 167.69 Z M 125.31 168.69 L 125.29 169.71 C 125.27 170.91 126.23 171.90 127.43 171.93 C 128.63 171.95 129.63 170.99 129.65 169.79 L 129.67 168.77 C 129.69 167.57 128.73 166.58 127.53 166.56 C 126.33 166.53 125.33 167.49 125.31 168.69 Z M 125.31 169.72 L 125.29 170.71 C 125.27 171.90 126.23 172.88 127.42 172.90 C 128.62 172.92 129.60 171.97 129.62 170.77 L 129.63 169.78 C 129.65 168.59 128.70 167.60 127.50 167.59 C 126.31 167.57 125.32 168.52 125.31 169.72 Z M 125.30 170.72 L 125.29 171.70 C 125.28 172.89 126.24 173.87 127.42 173.88 C 128.61 173.89 129.59 172.94 129.60 171.75 L 129.61 170.76 C 129.62 169.57 128.67 168.60 127.48 168.59 C 126.29 168.58 125.32 169.53 125.30 170.72 Z M 125.30 171.72 L 125.29 172.72 C 125.29 173.91 126.24 174.87 127.43 174.88 C 128.62 174.88 129.58 173.93 129.59 172.74 L 129.59 171.74 C 129.60 170.55 128.64 169.59 127.46 169.58 C 126.27 169.57 125.31 170.53 125.30 171.72 Z M 125.30 172.73 L 125.29 173.72 C 125.29 174.91 126.25 175.87 127.44 175.87 C 128.62 175.87 129.58 174.91 129.58 173.73 L 129.59 172.74 C 129.59 171.55 128.63 170.59 127.44 170.59 C 126.26 170.59 125.30 171.54 125.30 172.73 Z M 125.30 173.73 L 125.30 174.74 C 125.29 175.93 126.25 176.89 127.44 176.89 C 128.62 176.89 129.58 175.93 129.58 174.74 L 129.58 173.73 C 129.58 172.54 128.62 171.58 127.44 171.58 C 126.26 171.58 125.30 172.54 125.30 173.73 Z M 125.30 174.74 L 125.30 175.77 C 125.30 176.95 126.26 177.91 127.44 177.91 C 128.62 177.91 129.58 176.95 129.58 175.77 L 129.58 174.74 C 129.58 173.56 128.62 172.60 127.44 172.60 C 126.26 172.60 125.30 173.56 125.30 174.74 Z M 125.30 175.77 L 125.30 176.74 C 125.30 177.92 126.26 178.88 127.44 178.88 C 128.62 178.88 129.58 177.92 129.58 176.74 L 129.58 175.77 C 129.58 174.59 128.62 173.63 127.44 173.63 C 126.26 173.63 125.30 174.59 125.30 175.77 Z M 125.30 176.74 L 125.30 177.78 C 125.30 178.96 126.26 179.92 127.44 179.92 C 128.62 179.92 129.58 178.96 129.58 177.78 L 129.58 176.74 C 129.58 175.56 128.62 174.60 127.44 174.60 C 126.26 174.60 125.30 175.56 125.30 176.74 Z M 125.30 177.78 L 125.30 178.75 C 125.30 179.93 126.26 180.89 127.44 180.89 C 128.62 180.89 129.58 179.93 129.58 178.75 L 129.58 177.78 C 129.58 176.60 128.62 175.64 127.44 175.64 C 126.26 175.64 125.30 176.60 125.30 177.78 Z M 125.30 178.75 L 125.30 179.75 C 125.30 180.93 126.26 181.89 127.44 181.89 C 128.62 181.89 129.58 180.93 129.58 179.75 L 129.58 178.75 C 129.58 177.57 128.62 176.62 127.44 176.62 C 126.26 176.62 125.30 177.57 125.30 178.75 Z M 125.30 179.76 L 125.31 180.74 C 125.32 181.92 126.28 182.87 127.46 182.87 C 128.64 182.86 129.59 181.90 129.58 180.72 L 129.57 179.74 C 129.57 178.56 128.60 177.61 127.43 177.61 C 126.25 177.62 125.30 178.58 125.30 179.76 Z M 125.32 180.79 L 125.34 181.74 C 125.38 182.92 126.36 183.84 127.53 183.81 C 128.71 183.77 129.64 182.79 129.60 181.62 L 129.58 180.67 C 129.54 179.49 128.56 178.57 127.38 178.60 C 126.21 178.64 125.28 179.62 125.32 180.79 Z M 125.36 181.86 L 125.45 182.89 C 125.55 184.06 126.58 184.92 127.75 184.82 C 128.91 184.72 129.78 183.69 129.68 182.52 L 129.59 181.49 C 129.49 180.33 128.46 179.46 127.29 179.56 C 126.12 179.67 125.26 180.69 125.36 181.86 Z M 125.47 183.02 L 125.62 183.99 C 125.79 185.15 126.87 185.94 128.02 185.77 C 129.18 185.60 129.97 184.52 129.80 183.37 L 129.65 182.39 C 129.48 181.24 128.41 180.44 127.25 180.61 C 126.09 180.79 125.30 181.86 125.47 183.02 Z M 125.65 184.13 L 125.87 185.14 C 126.12 186.27 127.25 186.99 128.39 186.74 C 129.52 186.49 130.24 185.36 129.99 184.22 L 129.77 183.22 C 129.52 182.09 128.39 181.37 127.25 181.62 C 126.12 181.87 125.40 183.00 125.65 184.13 Z M 125.98 185.44 L 126.41 186.55 C 126.83 187.63 128.04 188.16 129.12 187.75 C 130.19 187.33 130.73 186.12 130.31 185.04 L 129.88 183.92 C 129.46 182.85 128.25 182.31 127.17 182.73 C 126.10 183.15 125.56 184.36 125.98 185.44 Z M 128.31 187.84 L 128.73 187.85 C 129.86 187.88 130.80 186.99 130.83 185.86 C 130.86 184.73 129.96 183.79 128.83 183.76 L 128.42 183.75 C 127.29 183.72 126.35 184.61 126.32 185.74 C 126.29 186.87 127.18 187.81 128.31 187.84 Z M 130.65 186.40 L 130.96 185.42 C 131.29 184.39 130.72 183.29 129.69 182.96 C 128.66 182.63 127.56 183.19 127.23 184.22 L 126.92 185.21 C 126.59 186.24 127.15 187.34 128.18 187.67 C 129.21 188.00 130.32 187.43 130.65 186.40 Z M 130.92 185.25 L 131.05 184.71 C 131.28 183.70 130.65 182.69 129.65 182.45 C 128.64 182.22 127.63 182.85 127.39 183.86 L 127.27 184.40 C 127.04 185.41 127.66 186.42 128.67 186.65 C 129.68 186.88 130.69 186.25 130.92 185.25 Z"
      fill="black"
      fill-rule="nonzero" /><path d="M 134.04 128.04 L 135.00 128.11 C 136.05 128.18 136.95 127.39 137.02 126.35 C 137.09 125.30 136.31 124.40 135.26 124.33 L 134.30 124.26 C 133.26 124.19 132.36 124.98 132.28 126.02 C 132.21 127.06 133.00 127.97 134.04 128.04 Z M 135.08 128.29 L 136.12 128.31 C 137.26 128.34 138.21 127.44 138.24 126.29 C 138.27 125.15 137.36 124.20 136.22 124.17 L 135.18 124.15 C 134.04 124.12 133.09 125.02 133.06 126.17 C 133.04 127.31 133.94 128.26 135.08 128.29 Z M 136.23 128.40 L 137.25 128.37 C 138.44 128.33 139.38 127.34 139.35 126.15 C 139.31 124.95 138.32 124.02 137.12 124.05 L 136.10 124.08 C 134.91 124.12 133.97 125.11 134.01 126.31 C 134.04 127.50 135.04 128.44 136.23 128.40 Z M 137.31 128.38 L 138.30 128.32 C 139.49 128.25 140.41 127.22 140.34 126.03 C 140.27 124.83 139.24 123.92 138.04 123.99 L 137.06 124.04 C 135.86 124.11 134.95 125.14 135.02 126.34 C 135.09 127.54 136.12 128.45 137.31 128.38 Z M 138.33 128.32 L 139.36 128.25 C 140.56 128.16 141.46 127.11 141.37 125.91 C 141.28 124.71 140.23 123.82 139.03 123.91 L 138.01 123.98 C 136.81 124.07 135.91 125.12 136.00 126.32 C 136.09 127.52 137.13 128.41 138.33 128.32 Z M 139.40 128.24 L 140.35 128.15 C 141.55 128.04 142.43 126.98 142.31 125.78 C 142.20 124.59 141.14 123.71 139.94 123.82 L 138.99 123.91 C 137.80 124.02 136.92 125.08 137.03 126.28 C 137.14 127.48 138.21 128.36 139.40 128.24 Z M 140.37 128.16 L 141.36 128.05 C 142.55 127.93 143.42 126.86 143.30 125.66 C 143.18 124.47 142.11 123.59 140.91 123.72 L 139.92 123.82 C 138.72 123.94 137.85 125.01 137.98 126.21 C 138.10 127.41 139.17 128.28 140.37 128.16 Z M 141.33 128.06 L 142.32 127.97 C 143.52 127.86 144.41 126.80 144.30 125.60 C 144.19 124.40 143.13 123.51 141.93 123.62 L 140.94 123.71 C 139.73 123.82 138.85 124.88 138.96 126.08 C 139.07 127.28 140.13 128.17 141.33 128.06 Z M 142.29 127.98 L 143.29 127.90 C 144.49 127.81 145.39 126.76 145.30 125.55 C 145.21 124.35 144.16 123.45 142.95 123.54 L 141.96 123.61 C 140.75 123.71 139.85 124.76 139.94 125.96 C 140.04 127.17 141.09 128.07 142.29 127.98 Z M 143.28 127.90 L 144.29 127.83 C 145.50 127.74 146.40 126.69 146.31 125.48 C 146.22 124.28 145.17 123.37 143.97 123.46 L 142.96 123.54 C 141.75 123.63 140.85 124.68 140.94 125.88 C 141.03 127.09 142.08 127.99 143.28 127.90 Z M 144.30 127.82 L 145.30 127.74 C 146.50 127.65 147.40 126.61 147.31 125.40 C 147.21 124.20 146.17 123.30 144.97 123.39 L 143.97 123.47 C 142.76 123.56 141.86 124.61 141.96 125.81 C 142.05 127.01 143.09 127.91 144.30 127.82 Z M 145.29 127.73 L 146.30 127.66 C 147.49 127.57 148.39 126.53 148.31 125.34 C 148.22 124.14 147.18 123.24 145.98 123.33 L 144.97 123.40 C 143.78 123.49 142.88 124.53 142.97 125.73 C 143.05 126.92 144.09 127.82 145.29 127.73 Z M 146.28 127.65 L 147.27 127.59 C 148.46 127.51 149.37 126.48 149.29 125.29 C 149.21 124.10 148.19 123.20 147.00 123.28 L 146.00 123.34 C 144.81 123.42 143.91 124.44 143.99 125.63 C 144.06 126.82 145.09 127.73 146.28 127.65 Z M 147.25 127.58 L 148.25 127.53 C 149.43 127.46 150.34 126.45 150.28 125.27 C 150.22 124.08 149.21 123.17 148.02 123.23 L 147.02 123.29 C 145.84 123.35 144.93 124.36 144.99 125.54 C 145.05 126.73 146.06 127.64 147.25 127.58 Z M 148.22 127.52 L 149.20 127.48 C 150.38 127.44 151.31 126.44 151.26 125.26 C 151.22 124.08 150.22 123.16 149.04 123.21 L 148.06 123.24 C 146.88 123.29 145.95 124.28 146.00 125.46 C 146.04 126.64 147.04 127.56 148.22 127.52 Z M 149.18 127.47 L 150.18 127.44 C 151.36 127.42 152.28 126.44 152.26 125.27 C 152.23 124.09 151.25 123.16 150.08 123.19 L 149.07 123.22 C 147.90 123.25 146.97 124.22 147.00 125.40 C 147.03 126.57 148.00 127.50 149.18 127.47 Z M 150.16 127.43 L 151.17 127.42 C 152.34 127.41 153.27 126.45 153.26 125.28 C 153.24 124.11 152.28 123.17 151.11 123.19 L 150.10 123.20 C 148.93 123.22 148.00 124.18 148.01 125.35 C 148.03 126.52 148.99 127.45 150.16 127.43 Z M 151.15 127.41 L 152.15 127.41 C 153.32 127.40 154.26 126.45 154.25 125.29 C 154.24 124.13 153.30 123.19 152.13 123.19 L 151.13 123.20 C 149.97 123.20 149.03 124.15 149.03 125.31 C 149.04 126.48 149.99 127.42 151.15 127.41 Z M 152.15 127.40 L 153.14 127.39 C 154.30 127.39 155.23 126.46 155.23 125.30 C 155.23 124.14 154.29 123.20 153.14 123.20 L 152.14 123.20 C 150.99 123.21 150.05 124.14 150.05 125.30 C 150.05 126.46 150.99 127.40 152.15 127.40 Z M 153.14 127.39 L 154.15 127.39 C 155.31 127.39 156.24 126.45 156.24 125.30 C 156.24 124.15 155.31 123.21 154.15 123.21 L 153.14 123.21 C 151.98 123.21 151.05 124.15 151.05 125.30 C 151.05 126.45 151.98 127.39 153.14 127.39 Z M 154.15 127.39 L 155.14 127.39 C 156.29 127.39 157.23 126.45 157.23 125.30 C 157.23 124.15 156.29 123.21 155.14 123.21 L 154.15 123.21 C 153.00 123.21 152.07 124.15 152.07 125.30 C 152.07 126.45 153.00 127.39 154.15 127.39 Z M 155.14 127.38 L 156.14 127.38 C 157.29 127.38 158.23 126.45 158.23 125.30 C 158.23 124.15 157.29 123.22 156.14 123.22 L 155.14 123.22 C 153.99 123.22 153.06 124.15 153.06 125.30 C 153.06 126.45 153.99 127.38 155.14 127.38 Z M 156.14 127.38 L 157.14 127.38 C 158.29 127.38 159.22 126.45 159.22 125.30 C 159.22 124.15 158.29 123.22 157.14 123.22 L 156.14 123.22 C 155.00 123.22 154.06 124.15 154.06 125.30 C 154.06 126.45 155.00 127.38 156.14 127.38 Z M 157.14 127.37 L 158.16 127.37 C 159.30 127.37 160.23 126.44 160.23 125.30 C 160.23 124.15 159.30 123.23 158.16 123.23 L 157.14 123.23 C 156.00 123.23 155.07 124.15 155.07 125.30 C 155.07 126.44 156.00 127.37 157.14 127.37 Z M 158.16 127.36 L 159.17 127.36 C 160.30 127.36 161.22 126.44 161.22 125.30 C 161.22 124.16 160.30 123.24 159.17 123.24 L 158.16 123.24 C 157.02 123.24 156.10 124.16 156.10 125.30 C 156.10 126.44 157.02 127.36 158.16 127.36 Z M 159.16 127.34 L 160.13 127.34 C 161.26 127.34 162.17 126.43 162.17 125.30 C 162.17 124.18 161.26 123.26 160.14 123.26 L 159.17 123.26 C 158.04 123.26 157.13 124.17 157.13 125.30 C 157.12 126.42 158.04 127.34 159.16 127.34 Z M 160.06 127.32 L 161.04 127.36 C 162.16 127.40 163.09 126.52 163.13 125.41 C 163.17 124.29 162.30 123.35 161.18 123.31 L 160.20 123.28 C 159.09 123.24 158.15 124.11 158.11 125.23 C 158.07 126.35 158.95 127.28 160.06 127.32 Z M 160.88 127.33 L 161.86 127.44 C 162.96 127.57 163.96 126.78 164.08 125.68 C 164.21 124.58 163.42 123.58 162.32 123.45 L 161.34 123.34 C 160.24 123.21 159.24 124.00 159.11 125.10 C 158.99 126.21 159.78 127.20 160.88 127.33 Z M 161.68 127.41 L 162.67 127.61 C 163.75 127.83 164.81 127.14 165.03 126.05 C 165.25 124.97 164.56 123.91 163.47 123.69 L 162.49 123.49 C 161.41 123.26 160.35 123.96 160.13 125.04 C 159.90 126.13 160.60 127.19 161.68 127.41 Z M 162.46 127.55 L 163.47 127.87 C 164.52 128.21 165.64 127.63 165.98 126.58 C 166.31 125.53 165.74 124.41 164.69 124.07 L 163.68 123.75 C 162.63 123.41 161.51 123.99 161.17 125.04 C 160.84 126.09 161.41 127.21 162.46 127.55 Z M 163.20 127.76 L 164.15 128.22 C 165.13 128.71 166.32 128.30 166.81 127.32 C 167.29 126.33 166.89 125.14 165.90 124.66 L 164.96 124.19 C 163.97 123.70 162.78 124.11 162.30 125.10 C 161.81 126.08 162.22 127.27 163.20 127.76 Z M 163.78 127.98 L 164.49 128.55 C 165.33 129.24 166.58 129.12 167.27 128.27 C 167.96 127.42 167.83 126.17 166.99 125.48 L 166.28 124.90 C 165.43 124.21 164.18 124.34 163.49 125.19 C 162.80 126.04 162.93 127.29 163.78 127.98 Z M 163.96 127.91 L 164.37 128.74 C 164.86 129.72 166.06 130.12 167.04 129.63 C 168.02 129.14 168.42 127.94 167.93 126.96 L 167.51 126.13 C 167.02 125.14 165.83 124.75 164.85 125.24 C 163.86 125.73 163.46 126.92 163.96 127.91 Z M 164.15 128.06 L 164.26 129.09 C 164.38 130.20 165.37 131.00 166.47 130.88 C 167.58 130.76 168.38 129.77 168.26 128.67 L 168.15 127.64 C 168.04 126.53 167.04 125.73 165.94 125.85 C 164.84 125.97 164.04 126.96 164.15 128.06 Z M 164.24 128.87 L 164.24 129.85 C 164.23 130.96 165.13 131.87 166.25 131.88 C 167.37 131.88 168.27 130.98 168.28 129.86 L 168.28 128.89 C 168.29 127.77 167.38 126.86 166.27 126.86 C 165.15 126.86 164.25 127.76 164.24 128.87 Z M 164.24 129.68 L 164.16 130.71 C 164.06 131.83 164.88 132.80 166.00 132.90 C 167.11 133.00 168.09 132.17 168.18 131.06 L 168.27 130.03 C 168.37 128.92 167.54 127.94 166.43 127.84 C 165.32 127.75 164.34 128.57 164.24 129.68 Z M 164.20 130.48 L 163.98 131.52 C 163.76 132.61 164.46 133.68 165.55 133.90 C 166.63 134.13 167.70 133.43 167.93 132.34 L 168.14 131.30 C 168.37 130.21 167.67 129.14 166.58 128.91 C 165.49 128.69 164.42 129.39 164.20 130.48 Z M 164.06 131.28 L 163.74 132.23 C 163.38 133.27 163.93 134.41 164.98 134.77 C 166.02 135.13 167.16 134.57 167.52 133.53 L 167.84 132.58 C 168.20 131.54 167.65 130.40 166.60 130.04 C 165.56 129.68 164.42 130.24 164.06 131.28 Z M 163.83 132.05 L 163.43 132.93 C 162.97 133.92 163.40 135.10 164.39 135.55 C 165.38 136.01 166.56 135.58 167.01 134.59 L 167.42 133.71 C 167.88 132.71 167.45 131.54 166.45 131.08 C 165.46 130.63 164.29 131.06 163.83 132.05 Z M 163.61 132.69 L 163.07 133.51 C 162.48 134.40 162.72 135.60 163.62 136.19 C 164.51 136.78 165.71 136.53 166.30 135.64 L 166.84 134.83 C 167.43 133.93 167.18 132.73 166.29 132.14 C 165.40 131.56 164.19 131.80 163.61 132.69 Z M 163.42 133.18 L 162.71 133.82 C 161.93 134.52 161.87 135.71 162.57 136.48 C 163.27 137.26 164.47 137.32 165.24 136.62 L 165.95 135.98 C 166.72 135.28 166.78 134.08 166.08 133.31 C 165.38 132.54 164.19 132.48 163.42 133.18 Z M 162.96 133.68 L 162.10 134.25 C 161.26 134.81 161.02 135.95 161.59 136.80 C 162.15 137.65 163.29 137.88 164.14 137.32 L 164.99 136.75 C 165.84 136.19 166.07 135.05 165.51 134.20 C 164.95 133.35 163.80 133.12 162.96 133.68 Z M 162.16 134.24 L 162.06 134.31 C 161.20 134.84 160.94 135.96 161.48 136.81 C 162.01 137.66 163.13 137.92 163.98 137.39 L 164.08 137.32 C 164.94 136.79 165.19 135.67 164.66 134.82 C 164.13 133.97 163.01 133.71 162.16 134.24 Z"
      fill="black"
      fill-rule="nonzero" /><path d="M 140.75 115.41 L 140.58 116.41 C 140.39 117.51 141.14 118.56 142.24 118.74 C 143.35 118.93 144.39 118.18 144.57 117.08 L 144.74 116.07 C 144.93 114.97 144.18 113.93 143.08 113.74 C 141.97 113.56 140.93 114.30 140.75 115.41 Z M 140.57 116.47 L 140.43 117.45 C 140.28 118.56 141.06 119.58 142.17 119.73 C 143.28 119.89 144.30 119.11 144.45 118.00 L 144.58 117.02 C 144.73 115.91 143.96 114.89 142.85 114.74 C 141.74 114.59 140.72 115.36 140.57 116.47 Z M 140.42 117.58 L 140.34 118.59 C 140.26 119.70 141.10 120.68 142.22 120.76 C 143.33 120.84 144.31 120.00 144.39 118.89 L 144.46 117.88 C 144.55 116.76 143.71 115.79 142.59 115.71 C 141.48 115.62 140.50 116.46 140.42 117.58 Z M 140.34 118.70 L 140.32 119.69 C 140.30 120.81 141.19 121.74 142.31 121.76 C 143.43 121.78 144.36 120.89 144.38 119.76 L 144.40 118.78 C 144.42 117.65 143.53 116.73 142.40 116.71 C 141.28 116.69 140.36 117.58 140.34 118.70 Z M 140.31 119.73 L 140.31 120.69 C 140.32 121.82 141.23 122.73 142.35 122.73 C 143.48 122.72 144.39 121.81 144.39 120.69 L 144.38 119.72 C 144.38 118.60 143.47 117.69 142.34 117.69 C 141.22 117.69 140.31 118.61 140.31 119.73 Z M 140.31 120.75 L 140.34 121.74 C 140.37 122.87 141.31 123.76 142.43 123.73 C 143.56 123.69 144.45 122.75 144.42 121.63 L 144.39 120.63 C 144.36 119.51 143.42 118.62 142.29 118.65 C 141.17 118.68 140.28 119.62 140.31 120.75 Z M 140.34 121.85 L 140.42 122.83 C 140.51 123.96 141.49 124.80 142.62 124.71 C 143.74 124.62 144.58 123.64 144.49 122.51 L 144.42 121.52 C 144.33 120.40 143.34 119.56 142.22 119.65 C 141.09 119.74 140.25 120.72 140.34 121.85 Z M 140.42 122.92 L 140.54 123.91 C 140.68 125.03 141.70 125.83 142.82 125.70 C 143.94 125.56 144.74 124.54 144.61 123.42 L 144.49 122.43 C 144.35 121.30 143.33 120.50 142.21 120.64 C 141.09 120.78 140.29 121.79 140.42 122.92 Z M 140.55 123.96 L 140.70 124.99 C 140.87 126.11 141.91 126.88 143.02 126.72 C 144.14 126.55 144.91 125.51 144.75 124.39 L 144.60 123.37 C 144.44 122.25 143.40 121.48 142.28 121.64 C 141.16 121.80 140.39 122.84 140.55 123.96 Z M 140.71 125.02 L 140.88 126.01 C 141.06 127.12 142.11 127.88 143.22 127.69 C 144.33 127.51 145.09 126.46 144.90 125.35 L 144.74 124.36 C 144.56 123.25 143.51 122.49 142.39 122.68 C 141.28 122.86 140.53 123.91 140.71 125.02 Z M 140.89 126.05 L 141.07 127.03 C 141.28 128.13 142.34 128.86 143.44 128.66 C 144.54 128.46 145.27 127.40 145.07 126.29 L 144.89 125.31 C 144.68 124.21 143.62 123.48 142.52 123.68 C 141.42 123.89 140.69 124.94 140.89 126.05 Z M 141.10 127.07 L 141.30 128.05 C 141.53 129.14 142.59 129.84 143.68 129.62 C 144.77 129.39 145.47 128.33 145.25 127.24 L 145.04 126.25 C 144.82 125.16 143.75 124.46 142.66 124.69 C 141.57 124.91 140.87 125.98 141.10 127.07 Z M 141.34 128.09 L 141.56 129.06 C 141.80 130.13 142.87 130.80 143.94 130.56 C 145.01 130.31 145.68 129.25 145.43 128.18 L 145.21 127.20 C 144.97 126.13 143.90 125.46 142.83 125.71 C 141.76 125.95 141.09 127.02 141.34 128.09 Z M 141.60 129.09 L 141.84 130.05 C 142.10 131.10 143.15 131.74 144.20 131.48 C 145.25 131.23 145.89 130.17 145.63 129.12 L 145.39 128.15 C 145.14 127.10 144.08 126.46 143.03 126.72 C 141.98 126.98 141.34 128.04 141.60 129.09 Z M 141.88 130.08 L 142.15 131.08 C 142.42 132.11 143.47 132.72 144.49 132.45 C 145.51 132.18 146.13 131.13 145.86 130.11 L 145.59 129.10 C 145.32 128.07 144.27 127.46 143.25 127.73 C 142.22 128.00 141.61 129.05 141.88 130.08 Z M 142.20 131.12 L 142.48 132.07 C 142.77 133.07 143.81 133.64 144.80 133.35 C 145.80 133.06 146.37 132.02 146.08 131.02 L 145.80 130.07 C 145.51 129.08 144.47 128.50 143.48 128.79 C 142.48 129.09 141.91 130.13 142.20 131.12 Z M 142.54 132.15 L 142.87 133.10 C 143.20 134.06 144.25 134.57 145.21 134.24 C 146.17 133.91 146.68 132.86 146.35 131.90 L 146.02 130.95 C 145.69 129.99 144.64 129.48 143.68 129.81 C 142.72 130.14 142.21 131.19 142.54 132.15 Z M 142.93 133.19 L 143.30 134.09 C 143.68 135.02 144.74 135.47 145.67 135.09 C 146.60 134.71 147.04 133.65 146.66 132.72 L 146.29 131.81 C 145.91 130.88 144.85 130.44 143.92 130.82 C 142.99 131.20 142.55 132.26 142.93 133.19 Z M 143.32 134.12 L 143.47 134.45 C 143.86 135.37 144.93 135.78 145.84 135.39 C 146.75 134.99 147.17 133.93 146.78 133.01 L 146.63 132.69 C 146.24 131.77 145.17 131.35 144.26 131.75 C 143.35 132.15 142.93 133.21 143.32 134.12 Z"
      fill="black"
      fill-rule="nonzero" /><path d="M 153.10 116.01 L 153.11 117.03 C 153.12 118.17 154.05 119.09 155.19 119.09 C 156.32 119.08 157.24 118.15 157.24 117.01 L 157.23 115.99 C 157.22 114.85 156.30 113.93 155.16 113.94 C 154.02 113.95 153.10 114.88 153.10 116.01 Z M 153.04 117.11 L 153.08 118.09 C 153.13 119.27 154.12 120.19 155.30 120.14 C 156.49 120.09 157.40 119.09 157.35 117.91 L 157.31 116.93 C 157.26 115.75 156.26 114.83 155.08 114.88 C 153.90 114.93 152.99 115.93 153.04 117.11 Z M 153.05 118.20 L 153.14 119.18 C 153.26 120.38 154.32 121.25 155.51 121.14 C 156.71 121.03 157.58 119.97 157.47 118.77 L 157.38 117.80 C 157.27 116.60 156.21 115.72 155.01 115.84 C 153.82 115.95 152.94 117.01 153.05 118.20 Z M 153.14 119.17 L 153.23 120.08 C 153.33 121.28 154.39 122.16 155.58 122.05 C 156.78 121.95 157.66 120.89 157.55 119.70 L 157.47 118.78 C 157.36 117.59 156.31 116.71 155.11 116.82 C 153.92 116.92 153.04 117.98 153.14 119.17 Z M 153.22 120.01 L 153.28 120.96 C 153.35 122.15 154.37 123.07 155.56 123.00 C 156.76 122.93 157.67 121.91 157.60 120.71 L 157.55 119.77 C 157.48 118.57 156.46 117.66 155.27 117.73 C 154.07 117.79 153.16 118.82 153.22 120.01 Z M 153.28 120.90 L 153.31 122.03 C 153.35 123.23 154.34 124.17 155.54 124.13 C 156.73 124.10 157.67 123.10 157.63 121.91 L 157.60 120.77 C 157.57 119.58 156.57 118.64 155.38 118.67 C 154.19 118.71 153.25 119.70 153.28 120.90 Z M 153.32 122.00 L 153.34 122.95 C 153.35 124.14 154.32 125.09 155.51 125.08 C 156.70 125.06 157.65 124.09 157.63 122.90 L 157.62 121.95 C 157.61 120.76 156.64 119.81 155.45 119.82 C 154.26 119.84 153.31 120.81 153.32 122.00 Z M 153.35 122.94 L 153.36 123.97 C 153.36 125.14 154.32 126.10 155.49 126.09 C 156.67 126.09 157.62 125.13 157.62 123.96 L 157.62 122.92 C 157.61 121.75 156.66 120.79 155.48 120.80 C 154.30 120.80 153.35 121.76 153.35 122.94 Z M 153.37 123.95 L 153.37 124.99 C 153.36 126.15 154.31 127.10 155.47 127.11 C 156.64 127.11 157.59 126.17 157.60 125.00 L 157.60 123.97 C 157.61 122.80 156.66 121.85 155.50 121.85 C 154.33 121.84 153.38 122.78 153.37 123.95 Z M 153.40 124.97 L 153.39 126.03 C 153.38 127.18 154.30 128.12 155.45 128.14 C 156.59 128.15 157.54 127.23 157.55 126.08 L 157.56 125.02 C 157.58 123.87 156.66 122.93 155.51 122.92 C 154.36 122.90 153.42 123.82 153.40 124.97 Z M 153.46 126.00 L 153.43 127.02 C 153.39 128.14 154.27 129.06 155.38 129.10 C 156.49 129.13 157.42 128.26 157.46 127.14 L 157.49 126.12 C 157.52 125.01 156.64 124.08 155.53 124.04 C 154.42 124.01 153.49 124.89 153.46 126.00 Z M 153.50 126.95 L 153.44 127.89 C 153.37 128.96 154.18 129.89 155.24 129.96 C 156.31 130.03 157.24 129.23 157.31 128.16 L 157.38 127.21 C 157.45 126.15 156.64 125.22 155.57 125.15 C 154.50 125.07 153.58 125.88 153.50 126.95 Z M 153.51 127.79 L 153.39 128.75 C 153.26 129.78 153.99 130.72 155.02 130.85 C 156.05 130.98 156.99 130.25 157.12 129.22 L 157.24 128.26 C 157.37 127.23 156.64 126.29 155.61 126.16 C 154.58 126.03 153.64 126.76 153.51 127.79 Z M 153.44 128.65 L 153.26 129.63 C 153.08 130.63 153.74 131.60 154.74 131.78 C 155.74 131.97 156.70 131.31 156.88 130.31 L 157.06 129.32 C 157.25 128.32 156.59 127.36 155.59 127.18 C 154.59 126.99 153.63 127.65 153.44 128.65 Z M 153.30 129.58 L 153.09 130.55 C 152.87 131.53 153.49 132.50 154.47 132.72 C 155.45 132.93 156.42 132.31 156.63 131.33 L 156.85 130.36 C 157.06 129.38 156.44 128.41 155.46 128.20 C 154.48 127.98 153.51 128.60 153.30 129.58 Z M 153.10 130.54 L 153.07 130.70 C 152.85 131.67 153.46 132.63 154.43 132.85 C 155.40 133.07 156.36 132.46 156.58 131.49 L 156.62 131.34 C 156.84 130.37 156.23 129.40 155.26 129.18 C 154.29 128.96 153.32 129.57 153.10 130.54 Z"
      fill="black"
      fill-rule="nonzero" /><path d="M 138.27 136.26 L 139.25 136.25 C 140.36 136.25 141.25 135.35 141.25 134.25 C 141.24 133.14 140.34 132.25 139.24 132.26 L 138.25 132.26 C 137.15 132.26 136.26 133.16 136.26 134.27 C 136.27 135.37 137.16 136.26 138.27 136.26 Z M 139.30 136.38 L 140.29 136.36 C 141.47 136.33 142.40 135.36 142.37 134.18 C 142.34 133.01 141.37 132.08 140.19 132.10 L 139.20 132.13 C 138.02 132.16 137.09 133.13 137.12 134.30 C 137.15 135.48 138.12 136.41 139.30 136.38 Z M 140.37 136.43 L 141.32 136.37 C 142.54 136.30 143.46 135.26 143.39 134.05 C 143.33 132.84 142.29 131.91 141.07 131.98 L 140.12 132.04 C 138.91 132.11 137.98 133.14 138.05 134.36 C 138.12 135.57 139.16 136.50 140.37 136.43 Z M 141.41 136.39 L 142.46 136.29 C 143.69 136.17 144.58 135.08 144.46 133.86 C 144.34 132.64 143.26 131.74 142.04 131.86 L 140.99 131.96 C 139.76 132.08 138.87 133.17 138.99 134.39 C 139.10 135.61 140.19 136.51 141.41 136.39 Z M 142.53 136.29 L 143.54 136.16 C 144.76 136.00 145.63 134.89 145.47 133.66 C 145.32 132.44 144.20 131.58 142.97 131.73 L 141.97 131.86 C 140.74 132.02 139.88 133.13 140.04 134.36 C 140.19 135.58 141.31 136.45 142.53 136.29 Z M 143.56 136.16 L 144.56 136.02 C 145.78 135.85 146.63 134.72 146.46 133.50 C 146.30 132.28 145.17 131.43 143.95 131.60 L 142.95 131.74 C 141.73 131.91 140.88 133.03 141.05 134.25 C 141.22 135.47 142.34 136.32 143.56 136.16 Z M 144.55 136.01 L 145.58 135.87 C 146.79 135.71 147.65 134.60 147.49 133.38 C 147.33 132.17 146.21 131.31 145.00 131.47 L 143.96 131.61 C 142.75 131.77 141.89 132.88 142.05 134.10 C 142.21 135.31 143.33 136.17 144.55 136.01 Z M 145.53 135.86 L 146.48 135.75 C 147.69 135.62 148.56 134.53 148.42 133.32 C 148.29 132.12 147.20 131.25 146.00 131.38 L 145.04 131.49 C 143.84 131.62 142.97 132.71 143.10 133.91 C 143.24 135.12 144.32 135.99 145.53 135.86 Z M 146.43 135.74 L 147.40 135.65 C 148.60 135.55 149.49 134.49 149.39 133.29 C 149.28 132.09 148.22 131.20 147.02 131.31 L 146.05 131.39 C 144.85 131.50 143.96 132.56 144.07 133.76 C 144.17 134.95 145.23 135.84 146.43 135.74 Z M 147.38 135.65 L 148.38 135.58 C 149.58 135.49 150.48 134.44 150.39 133.24 C 150.30 132.05 149.25 131.15 148.05 131.23 L 147.05 131.31 C 145.85 131.40 144.95 132.44 145.04 133.64 C 145.13 134.84 146.18 135.74 147.38 135.65 Z M 148.38 135.56 L 149.37 135.49 C 150.56 135.40 151.45 134.36 151.36 133.17 C 151.27 131.98 150.24 131.09 149.05 131.18 L 148.05 131.25 C 146.86 131.34 145.97 132.38 146.06 133.57 C 146.15 134.76 147.19 135.65 148.38 135.56 Z M 149.36 135.45 L 150.36 135.38 C 151.54 135.29 152.41 134.27 152.33 133.10 C 152.24 131.93 151.22 131.05 150.05 131.14 L 149.05 131.21 C 147.88 131.30 147.00 132.32 147.09 133.49 C 147.18 134.66 148.19 135.54 149.36 135.45 Z M 150.34 135.33 L 151.34 135.27 C 152.49 135.19 153.35 134.20 153.28 133.06 C 153.21 131.92 152.22 131.05 151.07 131.12 L 150.07 131.19 C 148.93 131.26 148.06 132.25 148.14 133.39 C 148.21 134.54 149.20 135.40 150.34 135.33 Z M 151.29 135.21 L 152.29 135.17 C 153.40 135.13 154.27 134.19 154.23 133.08 C 154.18 131.96 153.24 131.09 152.13 131.14 L 151.13 131.18 C 150.01 131.22 149.15 132.16 149.19 133.27 C 149.23 134.39 150.17 135.26 151.29 135.21 Z M 152.23 135.13 L 153.23 135.12 C 154.32 135.11 155.20 134.22 155.18 133.12 C 155.17 132.03 154.28 131.16 153.19 131.17 L 152.19 131.18 C 151.10 131.19 150.22 132.08 150.23 133.18 C 150.24 134.27 151.14 135.14 152.23 135.13 Z M 153.21 135.09 L 154.20 135.09 C 155.28 135.09 156.15 134.22 156.15 133.14 C 156.15 132.07 155.28 131.20 154.20 131.20 L 153.21 131.20 C 152.13 131.20 151.26 132.07 151.26 133.15 C 151.26 134.22 152.13 135.09 153.21 135.09 Z M 154.20 135.07 L 155.20 135.07 C 156.27 135.07 157.13 134.21 157.13 133.14 C 157.13 132.08 156.27 131.22 155.20 131.22 L 154.20 131.22 C 153.14 131.22 152.28 132.08 152.28 133.14 C 152.28 134.21 153.14 135.07 154.20 135.07 Z M 155.20 135.05 L 156.16 135.05 C 157.22 135.05 158.07 134.20 158.07 133.15 C 158.07 132.09 157.22 131.24 156.17 131.24 L 155.20 131.24 C 154.15 131.24 153.30 132.09 153.29 133.14 C 153.29 134.20 154.15 135.05 155.20 135.05 Z M 156.15 135.03 L 157.17 135.04 C 158.22 135.05 159.07 134.21 159.08 133.17 C 159.08 132.12 158.24 131.27 157.20 131.26 L 156.18 131.26 C 155.14 131.25 154.28 132.09 154.28 133.13 C 154.27 134.17 155.11 135.03 156.15 135.03 Z M 157.15 135.02 L 158.14 135.04 C 159.18 135.06 160.03 134.24 160.05 133.21 C 160.07 132.18 159.25 131.32 158.22 131.30 L 157.23 131.28 C 156.19 131.26 155.34 132.08 155.32 133.11 C 155.30 134.15 156.12 135.00 157.15 135.02 Z M 158.08 135.02 L 159.10 135.08 C 160.12 135.13 161.00 134.34 161.05 133.32 C 161.10 132.30 160.32 131.42 159.29 131.37 L 158.28 131.32 C 157.25 131.27 156.38 132.05 156.33 133.08 C 156.27 134.10 157.06 134.97 158.08 135.02 Z M 158.99 135.05 L 160.01 135.17 C 161.02 135.28 161.93 134.55 162.04 133.54 C 162.15 132.53 161.42 131.62 160.41 131.51 L 159.40 131.40 C 158.39 131.28 157.48 132.01 157.37 133.02 C 157.25 134.03 157.98 134.94 158.99 135.05 Z M 159.89 135.13 L 160.88 135.31 C 161.87 135.48 162.82 134.82 162.99 133.83 C 163.17 132.84 162.50 131.89 161.51 131.72 L 160.53 131.54 C 159.54 131.37 158.59 132.03 158.41 133.02 C 158.24 134.01 158.90 134.96 159.89 135.13 Z M 160.83 135.28 L 161.59 135.44 C 162.56 135.64 163.52 135.02 163.73 134.04 C 163.93 133.06 163.30 132.10 162.32 131.90 L 161.56 131.74 C 160.59 131.54 159.63 132.17 159.42 133.14 C 159.22 134.12 159.85 135.08 160.83 135.28 Z"
      fill="black"
      fill-rule="nonzero" /><path d="M 141.55 144.06 L 142.48 144.31 C 143.59 144.61 144.74 143.95 145.04 142.83 C 145.34 141.72 144.68 140.57 143.56 140.27 L 142.64 140.02 C 141.53 139.72 140.38 140.38 140.08 141.50 C 139.78 142.61 140.44 143.76 141.55 144.06 Z M 142.64 144.38 L 143.66 144.57 C 144.82 144.78 145.92 144.01 146.13 142.86 C 146.34 141.70 145.58 140.59 144.42 140.38 L 143.40 140.20 C 142.24 139.99 141.14 140.75 140.93 141.91 C 140.72 143.07 141.48 144.17 142.64 144.38 Z M 143.89 144.61 L 144.81 144.68 C 145.99 144.76 147.01 143.88 147.10 142.70 C 147.18 141.52 146.30 140.49 145.12 140.41 L 144.20 140.34 C 143.02 140.25 141.99 141.14 141.91 142.32 C 141.82 143.50 142.71 144.52 143.89 144.61 Z M 144.96 144.67 L 145.98 144.68 C 147.15 144.68 148.11 143.73 148.12 142.55 C 148.12 141.37 147.17 140.42 145.99 140.41 L 144.97 140.41 C 143.79 140.41 142.84 141.36 142.83 142.54 C 142.83 143.71 143.78 144.67 144.96 144.67 Z M 146.07 144.66 L 147.13 144.62 C 148.30 144.57 149.21 143.59 149.16 142.42 C 149.12 141.25 148.13 140.34 146.96 140.39 L 145.90 140.43 C 144.73 140.48 143.82 141.46 143.87 142.63 C 143.91 143.80 144.90 144.71 146.07 144.66 Z M 147.18 144.59 L 148.21 144.52 C 149.36 144.45 150.23 143.45 150.16 142.30 C 150.08 141.15 149.09 140.27 147.93 140.35 L 146.91 140.42 C 145.76 140.49 144.88 141.49 144.96 142.64 C 145.04 143.79 146.03 144.67 147.18 144.59 Z M 148.25 144.48 L 149.24 144.40 C 150.37 144.30 151.21 143.31 151.12 142.18 C 151.02 141.05 150.03 140.21 148.90 140.30 L 147.90 140.39 C 146.77 140.48 145.93 141.48 146.02 142.61 C 146.12 143.74 147.11 144.58 148.25 144.48 Z M 149.27 144.35 L 150.27 144.25 C 151.38 144.14 152.19 143.15 152.07 142.05 C 151.96 140.94 150.98 140.14 149.87 140.25 L 148.87 140.35 C 147.76 140.46 146.96 141.45 147.07 142.55 C 147.18 143.66 148.17 144.46 149.27 144.35 Z M 150.30 144.19 L 151.29 144.07 C 152.36 143.94 153.13 142.97 153.00 141.90 C 152.87 140.83 151.90 140.07 150.83 140.19 L 149.84 140.31 C 148.77 140.44 148.01 141.41 148.13 142.48 C 148.26 143.55 149.23 144.32 150.30 144.19 Z M 151.31 144.00 L 152.26 143.88 C 153.29 143.74 154.02 142.79 153.88 141.76 C 153.74 140.73 152.79 140.00 151.76 140.14 L 150.81 140.26 C 149.78 140.40 149.05 141.35 149.19 142.38 C 149.33 143.41 150.27 144.14 151.31 144.00 Z M 152.26 143.83 L 153.24 143.70 C 154.25 143.56 154.95 142.63 154.81 141.62 C 154.67 140.61 153.74 139.90 152.73 140.04 L 151.75 140.18 C 150.74 140.32 150.04 141.25 150.18 142.26 C 150.32 143.27 151.25 143.97 152.26 143.83 Z M 153.24 143.67 L 154.25 143.53 C 155.24 143.39 155.93 142.47 155.79 141.47 C 155.65 140.48 154.73 139.79 153.74 139.93 L 152.73 140.07 C 151.73 140.21 151.04 141.13 151.18 142.13 C 151.32 143.12 152.24 143.82 153.24 143.67 Z M 154.25 143.52 L 154.43 143.49 C 155.42 143.35 156.11 142.44 155.97 141.45 C 155.82 140.46 154.91 139.77 153.92 139.91 L 153.74 139.94 C 152.75 140.08 152.06 141.00 152.20 141.98 C 152.34 142.97 153.26 143.66 154.25 143.52 Z"
      fill="black"
      fill-rule="nonzero" /><path d="M 139.46 136.43 L 138.98 137.29 C 138.43 138.27 138.78 139.50 139.75 140.05 C 140.73 140.60 141.97 140.26 142.52 139.28 L 143.00 138.42 C 143.55 137.44 143.20 136.20 142.23 135.65 C 141.25 135.10 140.01 135.45 139.46 136.43 Z M 138.82 137.58 L 138.50 138.48 C 138.11 139.54 138.65 140.72 139.71 141.11 C 140.78 141.49 141.95 140.95 142.34 139.89 L 142.67 138.99 C 143.06 137.93 142.52 136.75 141.45 136.36 C 140.39 135.97 139.21 136.52 138.82 137.58 Z M 138.37 138.84 L 138.21 139.81 C 138.02 140.94 138.79 142.01 139.92 142.20 C 141.05 142.39 142.12 141.62 142.30 140.49 L 142.47 139.52 C 142.65 138.39 141.89 137.32 140.76 137.13 C 139.63 136.95 138.56 137.71 138.37 138.84 Z M 138.16 140.02 L 138.09 141.07 C 138.02 142.22 138.90 143.22 140.06 143.29 C 141.22 143.37 142.22 142.49 142.29 141.33 L 142.35 140.28 C 142.43 139.13 141.55 138.13 140.39 138.06 C 139.23 137.98 138.23 138.86 138.16 140.02 Z M 138.08 141.16 L 138.06 142.17 C 138.04 143.34 138.96 144.31 140.13 144.33 C 141.30 144.35 142.26 143.42 142.28 142.26 L 142.30 141.24 C 142.33 140.07 141.40 139.11 140.23 139.08 C 139.07 139.06 138.10 139.99 138.08 141.16 Z M 138.05 142.21 L 138.05 143.21 C 138.05 144.38 138.99 145.34 140.16 145.34 C 141.33 145.34 142.28 144.40 142.29 143.23 L 142.29 142.22 C 142.29 141.05 141.35 140.10 140.18 140.10 C 139.01 140.09 138.06 141.04 138.05 142.21 Z M 138.05 143.23 L 138.05 144.28 C 138.06 145.45 139.01 146.40 140.18 146.39 C 141.36 146.39 142.30 145.43 142.30 144.26 L 142.29 143.21 C 142.29 142.04 141.33 141.09 140.16 141.10 C 138.99 141.10 138.04 142.06 138.05 143.23 Z M 138.05 144.34 L 138.09 145.30 C 138.13 146.47 139.11 147.39 140.28 147.35 C 141.45 147.31 142.37 146.32 142.33 145.15 L 142.29 144.20 C 142.25 143.02 141.27 142.11 140.10 142.15 C 138.93 142.19 138.01 143.17 138.05 144.34 Z M 138.10 145.42 L 138.19 146.40 C 138.30 147.56 139.33 148.42 140.49 148.31 C 141.65 148.21 142.51 147.18 142.40 146.02 L 142.31 145.03 C 142.20 143.87 141.18 143.01 140.01 143.12 C 138.85 143.23 138.00 144.26 138.10 145.42 Z M 138.23 146.53 L 138.38 147.52 C 138.56 148.66 139.63 149.45 140.77 149.27 C 141.91 149.09 142.70 148.02 142.52 146.88 L 142.37 145.89 C 142.19 144.75 141.12 143.96 139.98 144.14 C 138.83 144.32 138.05 145.39 138.23 146.53 Z M 138.43 147.64 L 138.64 148.62 C 138.88 149.74 139.99 150.45 141.11 150.20 C 142.23 149.96 142.93 148.85 142.69 147.74 L 142.47 146.76 C 142.23 145.64 141.13 144.93 140.01 145.18 C 138.89 145.42 138.18 146.53 138.43 147.64 Z M 138.69 148.73 L 138.96 149.70 C 139.27 150.79 140.40 151.42 141.49 151.11 C 142.58 150.81 143.22 149.68 142.91 148.59 L 142.64 147.62 C 142.33 146.53 141.20 145.90 140.11 146.21 C 139.02 146.51 138.38 147.64 138.69 148.73 Z M 139.03 149.80 L 139.36 150.77 C 139.73 151.83 140.88 152.38 141.93 152.02 C 142.98 151.66 143.54 150.51 143.18 149.45 L 142.84 148.48 C 142.48 147.43 141.33 146.87 140.27 147.23 C 139.22 147.60 138.66 148.75 139.03 149.80 Z M 139.46 150.92 L 139.87 151.82 C 140.31 152.82 141.49 153.26 142.48 152.82 C 143.48 152.37 143.93 151.20 143.48 150.20 L 143.08 149.30 C 142.63 148.30 141.46 147.86 140.46 148.30 C 139.46 148.75 139.02 149.92 139.46 150.92 Z M 140.05 152.08 L 140.61 152.92 C 141.20 153.82 142.40 154.07 143.30 153.47 C 144.20 152.88 144.44 151.68 143.85 150.78 L 143.29 149.94 C 142.70 149.04 141.50 148.80 140.60 149.39 C 139.71 149.98 139.46 151.18 140.05 152.08 Z M 140.93 153.25 L 141.63 153.90 C 142.40 154.62 143.61 154.58 144.33 153.80 C 145.05 153.03 145.00 151.82 144.23 151.10 L 143.53 150.45 C 142.76 149.74 141.55 149.78 140.83 150.55 C 140.11 151.33 140.16 152.53 140.93 153.25 Z M 142.05 154.17 L 142.87 154.60 C 143.79 155.08 144.93 154.73 145.41 153.81 C 145.90 152.89 145.54 151.75 144.62 151.27 L 143.81 150.84 C 142.89 150.35 141.75 150.70 141.26 151.62 C 140.78 152.55 141.13 153.68 142.05 154.17 Z M 143.28 154.73 L 144.30 154.99 C 145.30 155.25 146.31 154.65 146.57 153.66 C 146.82 152.66 146.22 151.65 145.23 151.39 L 144.21 151.13 C 143.21 150.88 142.20 151.48 141.94 152.47 C 141.69 153.47 142.29 154.48 143.28 154.73 Z M 144.53 155.02 L 145.47 155.14 C 146.47 155.27 147.40 154.56 147.53 153.55 C 147.65 152.54 146.94 151.62 145.93 151.49 L 145.00 151.37 C 143.99 151.24 143.07 151.95 142.94 152.96 C 142.81 153.97 143.52 154.89 144.53 155.02 Z M 145.55 155.13 L 146.60 155.22 C 147.60 155.30 148.48 154.55 148.56 153.54 C 148.64 152.54 147.89 151.66 146.89 151.58 L 145.85 151.50 C 144.84 151.42 143.96 152.16 143.88 153.17 C 143.80 154.17 144.55 155.05 145.55 155.13 Z M 146.62 155.20 L 147.25 155.25 C 148.25 155.31 149.11 154.56 149.18 153.56 C 149.24 152.56 148.49 151.70 147.49 151.63 L 146.86 151.59 C 145.87 151.53 145.00 152.28 144.94 153.28 C 144.87 154.28 145.63 155.14 146.62 155.20 Z"
      fill="black"
      fill-rule="nonzero" /><path d="M 161.45 145.59 L 162.43 145.75 C 163.48 145.92 164.48 145.20 164.65 144.15 C 164.82 143.09 164.10 142.09 163.04 141.92 L 162.07 141.77 C 161.01 141.59 160.01 142.31 159.84 143.37 C 159.67 144.43 160.39 145.42 161.45 145.59 Z M 162.52 145.82 L 163.52 145.93 C 164.62 146.05 165.60 145.26 165.72 144.16 C 165.84 143.07 165.05 142.08 163.95 141.96 L 162.95 141.85 C 161.86 141.74 160.87 142.53 160.75 143.62 C 160.63 144.72 161.42 145.70 162.52 145.82 Z M 163.70 145.97 L 164.71 145.99 C 165.83 146.01 166.75 145.13 166.77 144.01 C 166.80 142.89 165.91 141.97 164.80 141.95 L 163.78 141.93 C 162.66 141.90 161.74 142.79 161.72 143.90 C 161.69 145.02 162.58 145.94 163.70 145.97 Z M 164.87 145.98 L 165.86 145.92 C 166.97 145.86 167.82 144.91 167.75 143.79 C 167.69 142.68 166.74 141.83 165.62 141.90 L 164.64 141.96 C 163.52 142.02 162.68 142.97 162.74 144.08 C 162.81 145.20 163.76 146.04 164.87 145.98 Z M 166.00 145.88 L 166.94 145.76 C 168.03 145.61 168.79 144.62 168.65 143.53 C 168.51 142.44 167.51 141.67 166.42 141.82 L 165.48 141.94 C 164.39 142.08 163.63 143.08 163.77 144.17 C 163.91 145.26 164.91 146.02 166.00 145.88 Z M 167.03 145.69 L 168.04 145.50 C 169.09 145.31 169.79 144.30 169.59 143.25 C 169.40 142.20 168.39 141.51 167.34 141.70 L 166.33 141.89 C 165.28 142.08 164.59 143.09 164.78 144.14 C 164.98 145.19 165.98 145.88 167.03 145.69 Z M 168.06 145.45 L 168.99 145.27 C 170.01 145.07 170.67 144.07 170.47 143.05 C 170.27 142.03 169.27 141.36 168.25 141.56 L 167.32 141.75 C 166.30 141.95 165.64 142.94 165.84 143.97 C 166.04 144.99 167.04 145.66 168.06 145.45 Z M 168.98 145.24 L 169.98 145.04 C 170.99 144.84 171.64 143.86 171.44 142.85 C 171.24 141.84 170.26 141.19 169.25 141.39 L 168.25 141.59 C 167.24 141.79 166.59 142.77 166.79 143.78 C 166.99 144.79 167.97 145.45 168.98 145.24 Z M 169.98 145.02 L 170.91 144.83 C 171.91 144.63 172.55 143.66 172.35 142.67 C 172.15 141.67 171.18 141.02 170.18 141.22 L 169.25 141.41 C 168.25 141.61 167.61 142.58 167.81 143.58 C 168.01 144.58 168.98 145.22 169.98 145.02 Z"
      fill="black"
      fill-rule="nonzero" /><path d="M 157.03 135.90 L 156.30 136.58 C 155.46 137.37 155.42 138.69 156.20 139.53 C 156.99 140.38 158.32 140.42 159.16 139.63 L 159.89 138.95 C 160.73 138.16 160.78 136.84 159.99 136.00 C 159.20 135.15 157.88 135.11 157.03 135.90 Z M 155.80 137.08 L 155.35 137.93 C 154.78 139.00 155.19 140.32 156.26 140.89 C 157.32 141.46 158.65 141.05 159.21 139.98 L 159.67 139.13 C 160.23 138.06 159.82 136.74 158.76 136.17 C 157.69 135.61 156.37 136.01 155.80 137.08 Z M 155.09 138.61 L 154.93 139.61 C 154.74 140.82 155.57 141.96 156.78 142.15 C 157.99 142.34 159.12 141.51 159.32 140.30 L 159.47 139.30 C 159.67 138.09 158.84 136.96 157.63 136.76 C 156.42 136.57 155.28 137.40 155.09 138.61 Z M 154.91 139.86 L 154.87 140.85 C 154.82 142.07 155.77 143.10 156.99 143.15 C 158.21 143.20 159.24 142.25 159.29 141.03 L 159.33 140.05 C 159.39 138.83 158.44 137.80 157.22 137.75 C 156.00 137.69 154.96 138.64 154.91 139.86 Z M 154.88 140.93 L 154.87 141.95 C 154.87 143.17 155.85 144.16 157.06 144.17 C 158.28 144.17 159.27 143.19 159.28 141.98 L 159.29 140.95 C 159.29 139.73 158.31 138.74 157.09 138.74 C 155.88 138.73 154.89 139.71 154.88 140.93 Z M 154.88 141.97 L 154.89 142.93 C 154.89 144.14 155.88 145.11 157.09 145.11 C 158.30 145.11 159.27 144.12 159.27 142.91 L 159.27 141.96 C 159.26 140.75 158.28 139.77 157.07 139.77 C 155.86 139.78 154.88 140.76 154.88 141.97 Z M 154.90 142.96 L 154.92 144.00 C 154.95 145.20 155.94 146.15 157.15 146.13 C 158.35 146.10 159.30 145.11 159.28 143.91 L 159.26 142.87 C 159.23 141.67 158.24 140.72 157.03 140.74 C 155.83 140.77 154.88 141.76 154.90 142.96 Z M 154.94 144.06 L 154.99 145.06 C 155.05 146.25 156.07 147.17 157.26 147.11 C 158.46 147.05 159.37 146.03 159.31 144.84 L 159.26 143.84 C 159.20 142.65 158.18 141.73 156.99 141.79 C 155.80 141.85 154.88 142.87 154.94 144.06 Z M 155.01 145.13 L 155.10 146.13 C 155.20 147.31 156.24 148.19 157.42 148.09 C 158.60 147.99 159.48 146.95 159.38 145.77 L 159.29 144.77 C 159.19 143.59 158.15 142.71 156.97 142.81 C 155.79 142.91 154.91 143.95 155.01 145.13 Z M 155.12 146.20 L 155.24 147.21 C 155.38 148.38 156.44 149.21 157.60 149.07 C 158.77 148.94 159.61 147.88 159.47 146.71 L 159.35 145.70 C 159.21 144.53 158.16 143.70 156.99 143.84 C 155.82 143.97 154.98 145.03 155.12 146.20 Z M 155.27 147.28 L 155.42 148.28 C 155.59 149.43 156.67 150.22 157.83 150.05 C 158.98 149.87 159.77 148.79 159.60 147.64 L 159.44 146.64 C 159.27 145.49 158.19 144.69 157.04 144.87 C 155.88 145.05 155.09 146.12 155.27 147.28 Z M 155.45 148.35 L 155.63 149.32 C 155.85 150.46 156.95 151.20 158.09 150.99 C 159.23 150.77 159.97 149.67 159.75 148.53 L 159.57 147.56 C 159.35 146.42 158.25 145.68 157.11 145.90 C 155.97 146.12 155.23 147.22 155.45 148.35 Z M 155.68 149.42 L 155.93 150.45 C 156.20 151.56 157.33 152.24 158.44 151.97 C 159.56 151.70 160.24 150.57 159.96 149.46 L 159.71 148.43 C 159.44 147.32 158.31 146.63 157.20 146.91 C 156.08 147.18 155.40 148.31 155.68 149.42 Z M 155.99 150.59 L 156.29 151.50 C 156.64 152.58 157.80 153.17 158.88 152.82 C 159.96 152.47 160.55 151.31 160.19 150.23 L 159.90 149.32 C 159.55 148.24 158.39 147.65 157.31 148.00 C 156.23 148.35 155.64 149.51 155.99 150.59 Z M 156.42 151.76 L 156.86 152.65 C 157.36 153.66 158.57 154.07 159.58 153.58 C 160.58 153.08 160.99 151.87 160.50 150.87 L 160.06 149.97 C 159.57 148.97 158.35 148.55 157.35 149.05 C 156.34 149.54 155.93 150.75 156.42 151.76 Z M 157.23 153.14 L 157.89 153.83 C 158.65 154.63 159.92 154.67 160.72 153.90 C 161.52 153.14 161.56 151.87 160.79 151.07 L 160.13 150.38 C 159.37 149.58 158.10 149.54 157.30 150.31 C 156.50 151.07 156.47 152.34 157.23 153.14 Z M 158.39 154.19 L 159.21 154.64 C 160.17 155.17 161.38 154.82 161.90 153.86 C 162.43 152.90 162.08 151.69 161.12 151.17 L 160.30 150.71 C 159.34 150.19 158.13 150.54 157.60 151.50 C 157.08 152.46 157.43 153.66 158.39 154.19 Z M 159.62 154.79 L 160.65 155.09 C 161.69 155.39 162.78 154.78 163.08 153.74 C 163.38 152.70 162.77 151.61 161.73 151.31 L 160.71 151.02 C 159.66 150.72 158.57 151.32 158.28 152.36 C 157.98 153.41 158.58 154.50 159.62 154.79 Z M 160.99 155.12 L 161.92 155.22 C 162.98 155.33 163.93 154.56 164.04 153.49 C 164.15 152.43 163.38 151.48 162.32 151.37 L 161.39 151.27 C 160.33 151.16 159.38 151.93 159.27 153.00 C 159.15 154.06 159.93 155.01 160.99 155.12 Z M 162.23 155.18 L 163.24 155.12 C 164.29 155.06 165.08 154.17 165.02 153.13 C 164.96 152.08 164.07 151.29 163.02 151.35 L 162.01 151.41 C 160.96 151.47 160.17 152.36 160.23 153.40 C 160.29 154.45 161.18 155.24 162.23 155.18 Z M 163.54 155.04 L 164.54 154.82 C 165.54 154.59 166.16 153.60 165.94 152.60 C 165.71 151.60 164.72 150.98 163.72 151.20 L 162.73 151.43 C 161.73 151.65 161.10 152.65 161.33 153.64 C 161.55 154.64 162.54 155.27 163.54 155.04 Z M 164.76 154.74 L 165.67 154.41 C 166.62 154.06 167.11 153.01 166.77 152.06 C 166.43 151.10 165.37 150.61 164.42 150.95 L 163.51 151.28 C 162.56 151.63 162.06 152.68 162.41 153.63 C 162.75 154.59 163.80 155.08 164.76 154.74 Z M 165.78 154.35 L 166.71 153.94 C 167.64 153.54 168.06 152.46 167.65 151.53 C 167.24 150.61 166.17 150.19 165.24 150.60 L 164.31 151.01 C 163.38 151.41 162.96 152.49 163.37 153.42 C 163.78 154.34 164.86 154.76 165.78 154.35 Z M 166.76 153.91 L 167.62 153.51 C 168.52 153.08 168.91 151.99 168.48 151.08 C 168.05 150.17 166.96 149.79 166.05 150.22 L 165.20 150.63 C 164.29 151.06 163.90 152.14 164.33 153.05 C 164.76 153.96 165.85 154.35 166.76 153.91 Z"
      fill="black"
      fill-rule="nonzero" /><path d="M 139.73 168.04 L 140.61 168.39 C 141.69 168.82 142.91 168.30 143.34 167.22 C 143.77 166.15 143.25 164.92 142.17 164.49 L 141.29 164.14 C 140.22 163.71 138.99 164.23 138.56 165.31 C 138.13 166.38 138.66 167.61 139.73 168.04 Z M 140.76 168.52 L 141.75 168.82 C 142.90 169.16 144.11 168.51 144.45 167.36 C 144.80 166.21 144.15 165.00 143.00 164.66 L 142.02 164.36 C 140.87 164.01 139.65 164.67 139.31 165.82 C 138.96 166.96 139.61 168.18 140.76 168.52 Z M 141.99 168.92 L 142.95 169.09 C 144.15 169.29 145.30 168.49 145.51 167.28 C 145.72 166.07 144.91 164.93 143.70 164.72 L 142.75 164.55 C 141.54 164.34 140.40 165.15 140.19 166.36 C 139.98 167.57 140.79 168.71 141.99 168.92 Z M 143.12 169.11 L 144.12 169.20 C 145.34 169.32 146.42 168.42 146.53 167.20 C 146.65 165.98 145.75 164.90 144.53 164.78 L 143.53 164.69 C 142.31 164.58 141.23 165.48 141.11 166.70 C 141.00 167.92 141.90 169.00 143.12 169.11 Z M 144.22 169.21 L 145.27 169.26 C 146.49 169.31 147.53 168.37 147.59 167.15 C 147.64 165.93 146.70 164.89 145.48 164.83 L 144.43 164.78 C 143.21 164.72 142.17 165.67 142.11 166.89 C 142.05 168.11 143.00 169.15 144.22 169.21 Z M 145.32 169.24 L 146.39 169.27 C 147.61 169.30 148.61 168.33 148.64 167.12 C 148.67 165.90 147.71 164.90 146.49 164.87 L 145.42 164.84 C 144.21 164.82 143.20 165.78 143.17 166.99 C 143.15 168.21 144.11 169.21 145.32 169.24 Z M 146.42 169.24 L 147.44 169.25 C 148.64 169.26 149.62 168.30 149.63 167.09 C 149.64 165.89 148.68 164.91 147.48 164.90 L 146.46 164.89 C 145.26 164.88 144.28 165.85 144.27 167.05 C 144.26 168.25 145.22 169.23 146.42 169.24 Z M 147.45 169.22 L 148.40 169.23 C 149.58 169.23 150.54 168.27 150.55 167.08 C 150.55 165.89 149.59 164.93 148.40 164.93 L 147.46 164.93 C 146.27 164.93 145.31 165.89 145.31 167.07 C 145.31 168.26 146.27 169.22 147.45 169.22 Z M 148.40 169.21 L 149.45 169.21 C 150.63 169.21 151.58 168.25 151.58 167.08 C 151.58 165.90 150.63 164.95 149.45 164.95 L 148.40 164.95 C 147.22 164.95 146.27 165.90 146.27 167.08 C 146.27 168.25 147.22 169.21 148.40 169.21 Z M 149.45 169.19 L 150.37 169.19 C 151.54 169.19 152.49 168.25 152.49 167.08 C 152.49 165.91 151.54 164.96 150.37 164.96 L 149.45 164.96 C 148.28 164.96 147.34 165.91 147.34 167.08 C 147.34 168.25 148.28 169.19 149.45 169.19 Z M 150.38 169.17 L 151.37 169.17 C 152.52 169.17 153.46 168.23 153.46 167.07 C 153.45 165.91 152.51 164.98 151.36 164.98 L 150.37 164.98 C 149.21 164.99 148.27 165.93 148.28 167.08 C 148.28 168.24 149.22 169.18 150.38 169.17 Z M 151.39 169.15 L 152.41 169.13 C 153.55 169.12 154.47 168.17 154.45 167.03 C 154.43 165.89 153.49 164.97 152.35 164.99 L 151.33 165.00 C 150.19 165.02 149.27 165.96 149.29 167.10 C 149.31 168.25 150.25 169.16 151.39 169.15 Z M 152.44 169.10 L 153.45 169.07 C 154.58 169.04 155.47 168.09 155.43 166.97 C 155.40 165.84 154.45 164.95 153.32 164.99 L 152.31 165.02 C 151.19 165.05 150.30 166.00 150.34 167.12 C 150.37 168.25 151.31 169.14 152.44 169.10 Z M 153.49 169.04 L 154.45 168.99 C 155.56 168.93 156.41 167.99 156.36 166.88 C 156.30 165.77 155.35 164.91 154.24 164.97 L 153.28 165.02 C 152.17 165.07 151.32 166.02 151.38 167.13 C 151.43 168.24 152.38 169.10 153.49 169.04 Z M 154.53 168.96 L 155.49 168.87 C 156.59 168.77 157.39 167.80 157.29 166.71 C 157.19 165.62 156.22 164.81 155.13 164.91 L 154.16 165.00 C 153.07 165.10 152.27 166.07 152.37 167.16 C 152.47 168.25 153.43 169.06 154.53 168.96 Z M 155.59 168.83 L 156.59 168.69 C 157.66 168.54 158.41 167.55 158.26 166.48 C 158.11 165.40 157.11 164.66 156.04 164.81 L 155.04 164.95 C 153.97 165.10 153.22 166.09 153.37 167.16 C 153.52 168.24 154.51 168.98 155.59 168.83 Z M 156.64 168.66 L 157.64 168.49 C 158.69 168.31 159.40 167.31 159.22 166.25 C 159.04 165.19 158.04 164.48 156.98 164.67 L 155.99 164.84 C 154.93 165.02 154.22 166.02 154.40 167.08 C 154.58 168.13 155.59 168.84 156.64 168.66 Z M 157.67 168.47 L 158.69 168.27 C 159.73 168.07 160.42 167.06 160.22 166.02 C 160.02 164.98 159.01 164.29 157.96 164.49 L 156.95 164.69 C 155.90 164.89 155.22 165.90 155.42 166.94 C 155.62 167.98 156.63 168.67 157.67 168.47 Z M 158.72 168.24 L 159.76 168.02 C 160.78 167.80 161.44 166.79 161.22 165.76 C 161.00 164.74 159.99 164.08 158.96 164.30 L 157.93 164.52 C 156.90 164.74 156.25 165.76 156.47 166.78 C 156.69 167.81 157.70 168.46 158.72 168.24 Z M 159.82 167.98 L 160.77 167.74 C 161.77 167.48 162.38 166.47 162.13 165.46 C 161.87 164.46 160.85 163.85 159.85 164.11 L 158.90 164.35 C 157.90 164.60 157.29 165.62 157.54 166.62 C 157.80 167.63 158.82 168.23 159.82 167.98 Z M 160.87 167.68 L 161.80 167.39 C 162.77 167.08 163.31 166.04 163.01 165.07 C 162.70 164.10 161.66 163.56 160.69 163.87 L 159.75 164.16 C 158.78 164.47 158.24 165.50 158.55 166.48 C 158.86 167.45 159.89 167.99 160.87 167.68 Z M 161.89 167.33 L 162.83 166.98 C 163.77 166.62 164.24 165.56 163.88 164.62 C 163.52 163.68 162.47 163.21 161.53 163.57 L 160.59 163.92 C 159.65 164.28 159.18 165.34 159.54 166.28 C 159.90 167.22 160.95 167.69 161.89 167.33 Z M 162.86 166.95 L 163.43 166.71 C 164.36 166.33 164.80 165.28 164.42 164.35 C 164.04 163.43 162.99 162.98 162.06 163.36 L 161.49 163.60 C 160.56 163.98 160.12 165.03 160.50 165.96 C 160.88 166.88 161.94 167.33 162.86 166.95 Z"
      fill="black"
      fill-rule="nonzero" /><path d="M 148.41 159.22 L 148.31 160.18 C 148.19 161.29 148.99 162.28 150.10 162.40 C 151.21 162.52 152.20 161.71 152.31 160.61 L 152.42 159.64 C 152.53 158.54 151.73 157.55 150.63 157.43 C 149.52 157.31 148.53 158.11 148.41 159.22 Z M 148.17 160.37 L 148.16 161.37 C 148.15 162.55 149.10 163.52 150.28 163.53 C 151.46 163.55 152.42 162.60 152.44 161.42 L 152.45 160.42 C 152.46 159.24 151.52 158.27 150.34 158.26 C 149.16 158.25 148.19 159.19 148.17 160.37 Z M 148.11 161.60 L 148.21 162.58 C 148.32 163.79 149.39 164.67 150.60 164.56 C 151.81 164.45 152.69 163.38 152.58 162.17 L 152.49 161.19 C 152.37 159.98 151.30 159.10 150.10 159.21 C 148.89 159.32 148.00 160.39 148.11 161.60 Z M 148.21 162.72 L 148.37 163.74 C 148.57 164.95 149.70 165.77 150.91 165.57 C 152.11 165.38 152.93 164.24 152.74 163.04 L 152.57 162.02 C 152.38 160.81 151.25 160.00 150.04 160.19 C 148.83 160.38 148.01 161.52 148.21 162.72 Z M 148.38 163.83 L 148.57 164.78 C 148.81 165.98 149.98 166.76 151.18 166.52 C 152.38 166.28 153.16 165.11 152.92 163.90 L 152.73 162.96 C 152.49 161.75 151.32 160.98 150.12 161.22 C 148.92 161.46 148.14 162.63 148.38 163.83 Z M 148.57 164.80 L 148.78 165.81 C 149.04 167.01 150.21 167.78 151.42 167.53 C 152.62 167.27 153.39 166.10 153.13 164.89 L 152.92 163.88 C 152.67 162.68 151.49 161.91 150.29 162.17 C 149.09 162.42 148.32 163.60 148.57 164.80 Z M 148.78 165.79 L 148.98 166.82 C 149.22 168.02 150.39 168.80 151.60 168.56 C 152.80 168.32 153.59 167.15 153.35 165.95 L 153.14 164.92 C 152.90 163.71 151.73 162.93 150.52 163.17 C 149.32 163.41 148.54 164.58 148.78 165.79 Z M 148.98 166.79 L 149.16 167.80 C 149.39 169.00 150.55 169.80 151.76 169.58 C 152.96 169.36 153.76 168.19 153.54 166.99 L 153.35 165.98 C 153.13 164.77 151.97 163.97 150.76 164.19 C 149.55 164.42 148.75 165.58 148.98 166.79 Z M 149.16 167.76 L 149.32 168.73 C 149.53 169.94 150.68 170.76 151.89 170.55 C 153.10 170.34 153.91 169.20 153.71 167.98 L 153.54 167.02 C 153.34 165.81 152.19 164.99 150.98 165.20 C 149.77 165.40 148.95 166.55 149.16 167.76 Z M 149.33 168.68 L 149.48 169.69 C 149.65 170.90 150.78 171.73 151.98 171.55 C 153.19 171.38 154.03 170.25 153.85 169.04 L 153.70 168.04 C 153.53 166.83 152.40 165.99 151.19 166.17 C 149.98 166.35 149.15 167.47 149.33 168.68 Z M 149.49 169.65 L 149.61 170.57 C 149.77 171.77 150.86 172.62 152.06 172.47 C 153.26 172.31 154.11 171.21 153.95 170.01 L 153.84 169.09 C 153.68 167.89 152.58 167.04 151.38 167.19 C 150.18 167.35 149.34 168.45 149.49 169.65 Z M 149.63 170.55 L 149.75 171.54 C 149.89 172.73 150.96 173.58 152.15 173.44 C 153.34 173.30 154.19 172.23 154.05 171.04 L 153.93 170.04 C 153.79 168.85 152.72 168.00 151.53 168.14 C 150.34 168.28 149.49 169.36 149.63 170.55 Z M 149.77 171.49 L 149.87 172.47 C 149.98 173.65 151.02 174.51 152.19 174.40 C 153.37 174.29 154.23 173.25 154.12 172.07 L 154.02 171.09 C 153.91 169.92 152.87 169.05 151.70 169.16 C 150.53 169.28 149.66 170.32 149.77 171.49 Z M 149.90 172.44 L 149.98 173.43 C 150.07 174.58 151.09 175.44 152.24 175.35 C 153.40 175.26 154.26 174.24 154.16 173.09 L 154.08 172.10 C 153.99 170.95 152.98 170.09 151.82 170.18 C 150.67 170.28 149.81 171.29 149.90 172.44 Z M 150.01 173.41 L 150.08 174.36 C 150.17 175.50 151.16 176.35 152.29 176.27 C 153.43 176.18 154.28 175.20 154.20 174.06 L 154.13 173.11 C 154.05 171.97 153.06 171.12 151.92 171.20 C 150.79 171.28 149.93 172.27 150.01 173.41 Z M 150.12 174.31 L 150.17 175.34 C 150.22 176.46 151.17 177.32 152.29 177.26 C 153.41 177.21 154.27 176.26 154.22 175.14 L 154.17 174.11 C 154.11 172.99 153.16 172.13 152.04 172.18 C 150.92 172.24 150.06 173.19 150.12 174.31 Z M 150.19 175.30 L 150.22 176.25 C 150.25 177.35 151.17 178.22 152.28 178.19 C 153.38 178.16 154.25 177.24 154.22 176.13 L 154.20 175.18 C 154.16 174.07 153.24 173.20 152.13 173.24 C 151.03 173.27 150.16 174.19 150.19 175.30 Z M 150.24 176.22 L 150.25 177.27 C 150.27 178.37 151.17 179.24 152.27 179.22 C 153.37 179.21 154.24 178.30 154.22 177.21 L 154.20 176.16 C 154.19 175.06 153.28 174.19 152.19 174.20 C 151.09 174.22 150.22 175.13 150.24 176.22 Z M 150.28 177.26 L 150.29 178.33 C 150.29 179.41 151.18 180.28 152.26 180.27 C 153.34 180.26 154.22 179.38 154.21 178.30 L 154.20 177.22 C 154.19 176.14 153.30 175.27 152.22 175.28 C 151.14 175.29 150.27 176.17 150.28 177.26 Z M 150.31 178.31 L 150.31 179.36 C 150.31 180.42 151.18 181.29 152.25 181.29 C 153.31 181.29 154.18 180.42 154.18 179.36 L 154.18 178.31 C 154.18 177.25 153.31 176.38 152.25 176.38 C 151.18 176.38 150.31 177.25 150.31 178.31 Z M 150.34 179.33 L 150.33 180.29 C 150.32 181.34 151.16 182.20 152.21 182.21 C 153.26 182.23 154.12 181.38 154.14 180.33 L 154.15 179.38 C 154.16 178.33 153.32 177.47 152.27 177.45 C 151.22 177.44 150.36 178.28 150.34 179.33 Z M 150.37 180.24 L 150.33 181.31 C 150.29 182.34 151.10 183.21 152.13 183.25 C 153.16 183.29 154.02 182.48 154.06 181.45 L 154.10 180.38 C 154.14 179.35 153.33 178.48 152.30 178.45 C 151.27 178.41 150.41 179.21 150.37 180.24 Z M 150.37 181.26 L 150.31 182.16 C 150.24 183.17 151.00 184.04 152.01 184.11 C 153.01 184.18 153.88 183.42 153.95 182.42 L 154.02 181.51 C 154.09 180.50 153.33 179.63 152.32 179.56 C 151.32 179.49 150.44 180.25 150.37 181.26 Z M 150.33 182.15 L 150.33 182.24 C 150.25 183.23 150.99 184.10 151.98 184.18 C 152.97 184.26 153.84 183.51 153.92 182.52 L 153.93 182.43 C 154.01 181.44 153.27 180.57 152.27 180.49 C 151.28 180.41 150.41 181.16 150.33 182.15 Z"
      fill="black"
      fill-rule="nonzero" /><path d="M 140.34 179.63 L 139.37 180.16 C 138.40 180.69 138.04 181.91 138.57 182.88 C 139.10 183.86 140.32 184.21 141.30 183.68 L 142.27 183.15 C 143.24 182.62 143.60 181.40 143.07 180.43 C 142.53 179.46 141.31 179.10 140.34 179.63 Z M 139.61 184.00 L 140.14 184.19 C 141.29 184.59 142.55 183.98 142.95 182.84 C 143.35 181.69 142.74 180.43 141.60 180.03 L 141.06 179.84 C 139.91 179.44 138.66 180.05 138.25 181.19 C 137.85 182.34 138.46 183.60 139.61 184.00 Z M 140.91 184.41 L 142.03 184.39 C 143.30 184.36 144.31 183.31 144.29 182.04 C 144.26 180.77 143.21 179.76 141.94 179.78 L 140.82 179.81 C 139.55 179.83 138.54 180.88 138.57 182.15 C 138.59 183.43 139.64 184.44 140.91 184.41 Z M 142.13 184.42 L 143.14 184.36 C 144.43 184.28 145.41 183.17 145.34 181.88 C 145.26 180.59 144.15 179.61 142.86 179.69 L 141.84 179.75 C 140.55 179.83 139.57 180.94 139.65 182.23 C 139.73 183.52 140.84 184.50 142.13 184.42 Z M 143.25 184.36 L 144.21 184.26 C 145.50 184.12 146.44 182.96 146.30 181.67 C 146.16 180.38 145.00 179.44 143.70 179.58 L 142.75 179.69 C 141.45 179.82 140.52 180.99 140.66 182.28 C 140.80 183.57 141.96 184.50 143.25 184.36 Z M 144.27 184.26 L 145.26 184.12 C 146.55 183.95 147.46 182.77 147.29 181.48 C 147.12 180.19 145.94 179.28 144.65 179.46 L 143.65 179.59 C 142.36 179.76 141.45 180.94 141.62 182.23 C 141.79 183.52 142.98 184.43 144.27 184.26 Z M 145.26 184.12 L 146.30 183.99 C 147.59 183.82 148.50 182.64 148.34 181.35 C 148.17 180.06 146.99 179.15 145.70 179.32 L 144.65 179.46 C 143.36 179.62 142.45 180.80 142.62 182.09 C 142.79 183.38 143.97 184.29 145.26 184.12 Z M 146.27 183.99 L 147.30 183.87 C 148.60 183.72 149.52 182.55 149.37 181.26 C 149.22 179.97 148.05 179.04 146.76 179.19 L 145.73 179.31 C 144.44 179.46 143.51 180.63 143.66 181.93 C 143.81 183.22 144.98 184.14 146.27 183.99 Z M 147.27 183.88 L 148.22 183.78 C 149.52 183.65 150.47 182.50 150.33 181.20 C 150.20 179.90 149.04 178.96 147.75 179.09 L 146.79 179.19 C 145.50 179.32 144.55 180.48 144.68 181.77 C 144.81 183.07 145.97 184.01 147.27 183.88 Z M 148.17 183.79 L 149.22 183.71 C 150.53 183.61 151.50 182.47 151.40 181.17 C 151.30 179.87 150.16 178.90 148.86 179.00 L 147.80 179.08 C 146.50 179.18 145.53 180.32 145.63 181.62 C 145.73 182.92 146.87 183.90 148.17 183.79 Z M 149.21 183.72 L 150.14 183.65 C 151.44 183.56 152.43 182.43 152.34 181.12 C 152.24 179.82 151.11 178.83 149.81 178.93 L 148.87 178.99 C 147.57 179.08 146.58 180.22 146.68 181.52 C 146.77 182.83 147.90 183.81 149.21 183.72 Z M 150.18 183.65 L 151.17 183.57 C 152.48 183.45 153.44 182.30 153.33 180.99 C 153.21 179.68 152.06 178.72 150.75 178.84 L 149.76 178.92 C 148.45 179.04 147.49 180.19 147.61 181.50 C 147.72 182.81 148.88 183.77 150.18 183.65 Z M 151.18 183.57 L 152.18 183.48 C 153.49 183.36 154.45 182.20 154.34 180.89 C 154.22 179.59 153.06 178.62 151.75 178.74 L 150.75 178.83 C 149.44 178.95 148.48 180.11 148.59 181.42 C 148.71 182.72 149.87 183.69 151.18 183.57 Z M 152.15 183.48 L 153.14 183.41 C 154.45 183.31 155.44 182.16 155.34 180.85 C 155.24 179.54 154.09 178.56 152.78 178.66 L 151.79 178.74 C 150.48 178.84 149.50 179.98 149.60 181.29 C 149.70 182.60 150.84 183.58 152.15 183.48 Z M 153.09 183.41 L 154.08 183.35 C 155.40 183.28 156.40 182.16 156.33 180.85 C 156.26 179.54 155.13 178.53 153.82 178.60 L 152.83 178.66 C 151.52 178.73 150.52 179.85 150.59 181.16 C 150.66 182.48 151.78 183.48 153.09 183.41 Z M 154.05 183.35 L 155.05 183.31 C 156.36 183.26 157.37 182.15 157.32 180.85 C 157.27 179.54 156.17 178.52 154.86 178.57 L 153.86 178.61 C 152.55 178.66 151.53 179.76 151.59 181.07 C 151.64 182.38 152.74 183.40 154.05 183.35 Z M 155.04 183.30 L 156.04 183.26 C 157.34 183.21 158.36 182.12 158.31 180.82 C 158.27 179.52 157.17 178.50 155.87 178.55 L 154.87 178.58 C 153.57 178.63 152.55 179.72 152.60 181.02 C 152.65 182.33 153.74 183.34 155.04 183.30 Z M 156.04 183.25 L 157.05 183.21 C 158.34 183.16 159.35 182.07 159.30 180.78 C 159.26 179.49 158.17 178.48 156.88 178.52 L 155.87 178.56 C 154.58 178.61 153.57 179.69 153.61 180.99 C 153.66 182.28 154.75 183.29 156.04 183.25 Z M 157.04 183.20 L 158.05 183.17 C 159.34 183.12 160.35 182.04 160.31 180.75 C 160.26 179.46 159.18 178.45 157.89 178.50 L 156.88 178.53 C 155.59 178.58 154.58 179.66 154.63 180.95 C 154.67 182.24 155.75 183.25 157.04 183.20 Z M 158.03 183.16 L 159.03 183.14 C 160.32 183.10 161.33 182.03 161.30 180.74 C 161.26 179.45 160.19 178.44 158.90 178.47 L 157.91 178.50 C 156.62 178.53 155.61 179.61 155.64 180.89 C 155.67 182.18 156.75 183.20 158.03 183.16 Z M 158.99 183.14 L 159.98 183.12 C 161.27 183.11 162.30 182.05 162.28 180.76 C 162.27 179.48 161.21 178.45 159.92 178.46 L 158.94 178.47 C 157.65 178.49 156.62 179.55 156.63 180.83 C 156.65 182.12 157.71 183.15 158.99 183.14 Z M 159.96 183.12 L 160.96 183.12 C 162.25 183.12 163.29 182.07 163.29 180.79 C 163.28 179.50 162.24 178.46 160.95 178.46 L 159.95 178.46 C 158.66 178.47 157.62 179.51 157.62 180.80 C 157.63 182.08 158.67 183.12 159.96 183.12 Z M 160.96 183.11 L 161.90 183.11 C 163.18 183.11 164.22 182.07 164.22 180.79 C 164.22 179.51 163.18 178.47 161.90 178.47 L 160.96 178.47 C 159.68 178.47 158.64 179.51 158.64 180.79 C 158.64 182.07 159.68 183.11 160.96 183.11 Z M 161.90 183.10 L 162.94 183.10 C 164.21 183.10 165.24 182.07 165.24 180.79 C 165.24 179.52 164.21 178.48 162.94 178.48 L 161.90 178.48 C 160.62 178.48 159.59 179.52 159.59 180.79 C 159.59 182.07 160.62 183.10 161.90 183.10 Z M 162.93 183.09 L 163.90 183.09 C 165.17 183.09 166.20 182.06 166.20 180.79 C 166.20 179.53 165.17 178.50 163.90 178.50 L 162.94 178.49 C 161.67 178.49 160.64 179.52 160.64 180.79 C 160.64 182.06 161.66 183.09 162.93 183.09 Z M 163.88 183.08 L 164.88 183.09 C 166.14 183.10 167.17 182.09 167.19 180.83 C 167.20 179.57 166.19 178.53 164.93 178.52 L 163.93 178.51 C 162.67 178.49 161.63 179.50 161.62 180.77 C 161.60 182.03 162.61 183.06 163.88 183.08 Z M 164.83 183.07 L 165.89 183.11 C 167.14 183.15 168.19 182.16 168.23 180.91 C 168.27 179.66 167.29 178.61 166.04 178.57 L 164.98 178.53 C 163.72 178.49 162.67 179.48 162.63 180.73 C 162.59 181.98 163.58 183.03 164.83 183.07 Z M 165.81 183.07 L 166.87 183.14 C 168.10 183.23 169.17 182.30 169.26 181.06 C 169.34 179.83 168.41 178.76 167.18 178.68 L 166.12 178.60 C 164.88 178.52 163.81 179.45 163.73 180.68 C 163.64 181.92 164.58 182.99 165.81 183.07 Z M 166.70 183.07 L 167.70 183.22 C 168.89 183.40 170.00 182.57 170.18 181.38 C 170.36 180.19 169.53 179.08 168.34 178.90 L 167.35 178.75 C 166.15 178.57 165.04 179.40 164.86 180.59 C 164.69 181.78 165.51 182.89 166.70 183.07 Z M 167.36 183.08 L 168.27 183.37 C 169.38 183.73 170.58 183.12 170.94 182.01 C 171.31 180.89 170.70 179.70 169.58 179.34 L 168.67 179.04 C 167.56 178.68 166.36 179.29 166.00 180.40 C 165.64 181.52 166.25 182.71 167.36 183.08 Z M 167.77 183.04 L 168.60 183.60 C 169.53 184.24 170.80 184.00 171.44 183.07 C 172.07 182.14 171.84 180.87 170.91 180.24 L 170.08 179.67 C 169.15 179.03 167.88 179.27 167.24 180.20 C 166.61 181.13 166.84 182.40 167.77 183.04 Z M 168.37 183.30 L 168.89 183.82 C 169.65 184.59 170.89 184.59 171.65 183.83 C 172.42 183.06 172.42 181.83 171.66 181.06 L 171.14 180.54 C 170.37 179.78 169.14 179.78 168.37 180.54 C 167.61 181.30 167.61 182.54 168.37 183.30 Z"
      fill="black"
      fill-rule="nonzero" /></svg>