<svg xmlns="http://www.w3.org/2000/svg" width="300" height="300" viewBox="0 0 300 300">
<path d="M 127.48 109.69 L 126.43 109.16 C 125.41 108.66 124.18 109.08 123.68 110.10 C 123.18 111.11 123.60 112.34 124.61 112.84 L 125.67 113.36 C 126.68 113.86 127.91 113.45 128.41 112.43 C 128.91 111.42 128.50 110.19 127.48 109.69 Z M 123.45 110.37 L 123.36 110.69 C 123.01 111.83 123.65 113.04 124.80 113.38 C 125.94 113.73 127.15 113.09 127.49 111.94 L 127.59 111.63 C 127.93 110.49 127.29 109.28 126.15 108.93 C 125.00 108.59 123.80 109.23 123.45 110.37 Z M 123.57 112.51 L 124.21 113.49 C 124.87 114.52 126.23 114.81 127.25 114.16 C 128.27 113.50 128.57 112.14 127.91 111.11 L 127.27 110.13 C 126.62 109.10 125.26 108.81 124.23 109.47 C 123.21 110.12 122.92 111.48 123.57 112.51 Z M 124.15 113.41 L 124.64 114.25 C 125.25 115.31 126.60 115.67 127.65 115.06 C 128.71 114.45 129.07 113.10 128.46 112.04 L 127.97 111.20 C 127.36 110.15 126.01 109.79 124.95 110.40 C 123.90 111.01 123.54 112.36 124.15 113.41 Z M 124.60 114.18 L 125.09 115.09 C 125.66 116.16 126.99 116.57 128.06 116.00 C 129.14 115.43 129.55 114.10 128.98 113.03 L 128.49 112.12 C 127.92 111.04 126.59 110.63 125.52 111.20 C 124.44 111.77 124.03 113.11 124.60 114.18 Z M 125.07 115.05 L 125.51 115.91 C 126.05 116.99 127.37 117.43 128.46 116.88 C 129.54 116.34 129.97 115.02 129.43 113.94 L 128.99 113.07 C 128.45 111.99 127.13 111.55 126.04 112.10 C 124.96 112.64 124.53 113.96 125.07 115.05 Z M 125.50 115.88 L 125.96 116.81 C 126.48 117.89 127.79 118.35 128.88 117.82 C 129.96 117.29 130.41 115.98 129.88 114.90 L 129.43 113.97 C 128.90 112.88 127.60 112.43 126.51 112.96 C 125.43 113.49 124.98 114.80 125.50 115.88 Z M 125.96 116.78 L 126.39 117.69 C 126.90 118.77 128.20 119.23 129.28 118.72 C 130.36 118.20 130.82 116.91 130.31 115.83 L 129.88 114.92 C 129.36 113.84 128.07 113.38 126.99 113.90 C 125.91 114.41 125.45 115.70 125.96 116.78 Z M 126.41 117.67 L 126.84 118.58 C 127.35 119.65 128.62 120.10 129.69 119.60 C 130.76 119.09 131.22 117.82 130.71 116.75 L 130.28 115.85 C 129.78 114.78 128.50 114.32 127.44 114.82 C 126.37 115.33 125.91 116.60 126.41 117.67 Z M 126.88 118.58 L 127.32 119.49 C 127.82 120.54 129.08 120.98 130.13 120.48 C 131.18 119.97 131.62 118.71 131.12 117.66 L 130.68 116.75 C 130.17 115.70 128.91 115.26 127.86 115.76 C 126.81 116.27 126.37 117.53 126.88 118.58 Z M 127.36 119.51 L 127.81 120.40 C 128.33 121.43 129.57 121.84 130.60 121.33 C 131.62 120.81 132.04 119.57 131.52 118.54 L 131.07 117.64 C 130.56 116.62 129.31 116.21 128.28 116.72 C 127.26 117.24 126.85 118.48 127.36 119.51 Z M 127.86 120.42 L 128.32 121.30 C 128.84 122.30 130.08 122.69 131.07 122.17 C 132.07 121.64 132.46 120.41 131.94 119.41 L 131.47 118.53 C 130.95 117.53 129.72 117.14 128.72 117.66 C 127.72 118.19 127.34 119.42 127.86 120.42 Z M 128.37 121.31 L 128.84 122.19 C 129.37 123.16 130.58 123.53 131.56 123.00 C 132.53 122.47 132.89 121.26 132.37 120.29 L 131.89 119.41 C 131.37 118.43 130.15 118.07 129.18 118.60 C 128.20 119.12 127.84 120.34 128.37 121.31 Z M 128.89 122.20 L 129.38 123.08 C 129.91 124.03 131.11 124.36 132.05 123.84 C 133.00 123.31 133.34 122.11 132.81 121.16 L 132.32 120.28 C 131.79 119.33 130.59 118.99 129.65 119.52 C 128.70 120.05 128.36 121.25 128.89 122.20 Z M 129.43 123.09 L 129.93 123.95 C 130.47 124.87 131.65 125.18 132.57 124.65 C 133.49 124.11 133.80 122.93 133.27 122.01 L 132.76 121.15 C 132.22 120.23 131.04 119.92 130.12 120.45 C 129.20 120.99 128.89 122.17 129.43 123.09 Z M 129.99 123.98 L 130.52 124.83 C 131.07 125.72 132.24 125.99 133.13 125.44 C 134.02 124.89 134.29 123.72 133.74 122.83 L 133.21 121.98 C 132.66 121.09 131.49 120.82 130.60 121.37 C 129.71 121.93 129.44 123.09 129.99 123.98 Z M 130.58 124.87 L 131.15 125.71 C 131.72 126.56 132.88 126.79 133.74 126.21 C 134.59 125.64 134.81 124.48 134.24 123.63 L 133.67 122.79 C 133.10 121.93 131.94 121.71 131.09 122.29 C 130.23 122.86 130.01 124.02 130.58 124.87 Z M 131.22 125.77 L 131.82 126.56 C 132.43 127.37 133.58 127.54 134.39 126.93 C 135.20 126.32 135.37 125.17 134.76 124.35 L 134.16 123.56 C 133.55 122.75 132.40 122.59 131.59 123.20 C 130.78 123.81 130.61 124.96 131.22 125.77 Z M 131.90 126.64 L 132.55 127.40 C 133.21 128.16 134.35 128.25 135.12 127.60 C 135.88 126.95 135.97 125.80 135.32 125.04 L 134.67 124.28 C 134.02 123.51 132.87 123.42 132.11 124.08 C 131.34 124.73 131.25 125.88 131.90 126.64 Z M 132.62 127.46 L 133.31 128.19 C 134.00 128.91 135.14 128.94 135.87 128.25 C 136.59 127.57 136.62 126.42 135.93 125.70 L 135.25 124.97 C 134.56 124.25 133.41 124.22 132.69 124.91 C 131.97 125.59 131.94 126.74 132.62 127.46 Z M 133.35 128.21 L 133.94 128.81 C 134.64 129.52 135.78 129.52 136.49 128.82 C 137.20 128.11 137.20 126.97 136.49 126.27 L 135.90 125.67 C 135.20 124.96 134.06 124.96 133.35 125.66 C 132.65 126.37 132.64 127.51 133.35 128.21 Z"
      fill="black"
      fill-rule="nonzero" /><path d="M 132.15 115.45 L 131.70 114.44 C 131.25 113.44 130.07 112.99 129.07 113.44 C 128.07 113.89 127.62 115.07 128.07 116.07 L 128.52 117.08 C 128.97 118.08 130.15 118.53 131.15 118.08 C 132.16 117.63 132.60 116.45 132.15 115.45 Z M 131.96 115.12 L 131.90 114.28 C 131.83 113.13 130.84 112.27 129.70 112.34 C 128.55 112.41 127.69 113.40 127.76 114.55 L 127.82 115.39 C 127.89 116.54 128.88 117.41 130.02 117.33 C 131.17 117.26 132.03 116.27 131.96 115.12 Z M 131.31 115.95 L 131.94 115.35 C 132.79 114.53 132.82 113.18 132.00 112.32 C 131.18 111.47 129.83 111.45 128.98 112.27 L 128.35 112.87 C 127.50 113.69 127.47 115.04 128.29 115.89 C 129.11 116.75 130.46 116.77 131.31 115.95 Z M 131.25 115.84 L 132.28 115.44 C 133.40 115.00 133.96 113.74 133.52 112.62 C 133.09 111.49 131.82 110.94 130.70 111.38 L 129.67 111.78 C 128.55 112.21 127.99 113.48 128.43 114.60 C 128.87 115.72 130.13 116.27 131.25 115.84 Z M 132.08 115.53 L 133.05 115.26 C 134.23 114.94 134.91 113.72 134.59 112.55 C 134.27 111.38 133.05 110.69 131.88 111.01 L 130.91 111.28 C 129.73 111.61 129.04 112.82 129.37 113.99 C 129.69 115.16 130.90 115.85 132.08 115.53 Z M 132.96 115.30 L 133.94 115.07 C 135.13 114.80 135.88 113.61 135.61 112.42 C 135.33 111.22 134.14 110.48 132.95 110.75 L 131.97 110.97 C 130.78 111.25 130.03 112.44 130.31 113.63 C 130.58 114.83 131.77 115.57 132.96 115.30 Z M 133.88 115.10 L 134.89 114.89 C 136.10 114.65 136.88 113.48 136.64 112.27 C 136.40 111.06 135.22 110.28 134.01 110.52 L 133.00 110.73 C 131.80 110.97 131.02 112.15 131.26 113.35 C 131.50 114.56 132.68 115.34 133.88 115.10 Z M 134.88 114.91 L 135.83 114.72 C 137.04 114.49 137.83 113.31 137.60 112.10 C 137.37 110.89 136.19 110.10 134.98 110.33 L 134.03 110.51 C 132.82 110.75 132.02 111.92 132.26 113.13 C 132.49 114.35 133.66 115.14 134.88 114.91 Z M 135.86 114.72 L 136.79 114.53 C 138.01 114.28 138.79 113.09 138.53 111.88 C 138.28 110.66 137.09 109.88 135.88 110.14 L 134.95 110.33 C 133.74 110.58 132.96 111.77 133.21 112.98 C 133.46 114.20 134.65 114.97 135.86 114.72 Z M 136.81 114.54 L 137.80 114.32 C 139.01 114.07 139.79 112.87 139.53 111.65 C 139.27 110.44 138.08 109.66 136.86 109.92 L 135.87 110.13 C 134.65 110.39 133.88 111.58 134.13 112.80 C 134.39 114.02 135.59 114.79 136.81 114.54 Z M 137.77 114.34 L 138.75 114.14 C 139.97 113.90 140.77 112.71 140.52 111.49 C 140.28 110.26 139.09 109.47 137.87 109.71 L 136.89 109.91 C 135.67 110.15 134.87 111.34 135.11 112.56 C 135.36 113.79 136.55 114.58 137.77 114.34 Z M 138.73 114.15 L 139.71 113.96 C 140.94 113.73 141.75 112.55 141.51 111.32 C 141.28 110.10 140.10 109.29 138.87 109.52 L 137.89 109.71 C 136.66 109.94 135.85 111.12 136.09 112.35 C 136.32 113.57 137.50 114.38 138.73 114.15 Z M 139.71 113.96 L 140.72 113.77 C 141.95 113.54 142.75 112.36 142.52 111.13 C 142.29 109.90 141.11 109.10 139.88 109.33 L 138.87 109.52 C 137.64 109.75 136.84 110.93 137.07 112.16 C 137.30 113.39 138.49 114.20 139.71 113.96 Z M 140.73 113.77 L 141.70 113.58 C 142.92 113.34 143.72 112.15 143.48 110.93 C 143.24 109.70 142.06 108.90 140.83 109.14 L 139.87 109.33 C 138.64 109.57 137.84 110.76 138.08 111.98 C 138.32 113.21 139.51 114.01 140.73 113.77 Z M 141.69 113.58 L 142.68 113.39 C 143.90 113.16 144.71 111.97 144.47 110.75 C 144.23 109.52 143.05 108.72 141.82 108.95 L 140.84 109.14 C 139.61 109.38 138.81 110.56 139.05 111.79 C 139.28 113.02 140.47 113.82 141.69 113.58 Z M 142.65 113.39 L 143.64 113.22 C 144.86 112.99 145.68 111.82 145.46 110.59 C 145.24 109.36 144.06 108.55 142.83 108.77 L 141.85 108.95 C 140.62 109.17 139.81 110.35 140.03 111.57 C 140.25 112.80 141.42 113.62 142.65 113.39 Z M 143.61 113.22 L 144.59 113.05 C 145.82 112.84 146.64 111.68 146.43 110.45 C 146.22 109.22 145.06 108.39 143.83 108.60 L 142.86 108.77 C 141.63 108.98 140.80 110.15 141.01 111.37 C 141.22 112.60 142.39 113.43 143.61 113.22 Z M 144.59 113.05 L 145.59 112.88 C 146.81 112.67 147.64 111.51 147.43 110.28 C 147.22 109.05 146.06 108.23 144.83 108.44 L 143.83 108.61 C 142.61 108.82 141.78 109.98 141.99 111.21 C 142.20 112.43 143.36 113.26 144.59 113.05 Z M 145.61 112.87 L 146.60 112.69 C 147.82 112.48 148.64 111.31 148.42 110.08 C 148.20 108.86 147.03 108.05 145.81 108.27 L 144.81 108.44 C 143.59 108.66 142.78 109.83 143.00 111.05 C 143.21 112.28 144.38 113.09 145.61 112.87 Z M 146.62 112.69 L 147.60 112.50 C 148.82 112.28 149.62 111.10 149.39 109.88 C 149.17 108.66 147.99 107.86 146.77 108.09 L 145.79 108.27 C 144.57 108.50 143.77 109.67 144.00 110.89 C 144.22 112.11 145.40 112.91 146.62 112.69 Z M 147.59 112.50 L 148.58 112.32 C 149.80 112.09 150.60 110.92 150.37 109.70 C 150.15 108.49 148.98 107.68 147.76 107.91 L 146.78 108.09 C 145.56 108.32 144.76 109.49 144.98 110.71 C 145.21 111.92 146.38 112.73 147.59 112.50 Z M 148.56 112.32 L 149.55 112.14 C 150.77 111.93 151.58 110.77 151.36 109.55 C 151.15 108.33 149.99 107.52 148.77 107.74 L 147.78 107.91 C 146.57 108.12 145.75 109.29 145.97 110.50 C 146.18 111.72 147.34 112.53 148.56 112.32 Z M 149.53 112.14 L 150.52 111.98 C 151.73 111.77 152.56 110.63 152.35 109.41 C 152.15 108.19 151.00 107.37 149.79 107.57 L 148.80 107.74 C 147.58 107.94 146.76 109.09 146.96 110.30 C 147.16 111.52 148.31 112.34 149.53 112.14 Z M 150.50 111.97 L 151.49 111.81 C 152.70 111.62 153.53 110.48 153.33 109.27 C 153.14 108.05 152.00 107.23 150.79 107.42 L 149.80 107.58 C 148.59 107.77 147.76 108.91 147.96 110.13 C 148.15 111.34 149.29 112.16 150.50 111.97 Z M 151.49 111.81 L 152.47 111.65 C 153.68 111.46 154.50 110.32 154.31 109.11 C 154.11 107.90 152.98 107.08 151.77 107.27 L 150.79 107.43 C 149.58 107.62 148.75 108.76 148.95 109.97 C 149.14 111.18 150.28 112.00 151.49 111.81 Z M 152.46 111.64 L 153.44 111.49 C 154.65 111.29 155.47 110.16 155.28 108.96 C 155.09 107.75 153.95 106.93 152.75 107.12 L 151.77 107.28 C 150.56 107.47 149.74 108.60 149.93 109.81 C 150.13 111.01 151.26 111.83 152.46 111.64 Z M 153.43 111.48 L 154.42 111.33 C 155.62 111.14 156.45 110.02 156.26 108.82 C 156.08 107.62 154.95 106.79 153.75 106.98 L 152.76 107.13 C 151.56 107.31 150.74 108.44 150.92 109.64 C 151.11 110.84 152.23 111.66 153.43 111.48 Z M 154.40 111.32 L 155.41 111.18 C 156.61 111.00 157.44 109.89 157.26 108.69 C 157.09 107.50 155.98 106.66 154.78 106.84 L 153.77 106.98 C 152.58 107.15 151.75 108.27 151.92 109.46 C 152.09 110.66 153.20 111.49 154.40 111.32 Z M 155.38 111.17 L 156.40 111.03 C 157.59 110.87 158.43 109.77 158.27 108.58 C 158.11 107.39 157.01 106.55 155.82 106.71 L 154.80 106.84 C 153.61 107.00 152.77 108.10 152.93 109.30 C 153.09 110.49 154.19 111.33 155.38 111.17 Z M 156.38 111.03 L 157.36 110.90 C 158.55 110.75 159.39 109.66 159.24 108.47 C 159.09 107.28 158.00 106.44 156.81 106.59 L 155.83 106.72 C 154.64 106.87 153.80 107.95 153.95 109.14 C 154.10 110.33 155.19 111.18 156.38 111.03 Z M 157.34 110.89 L 158.37 110.77 C 159.55 110.63 160.40 109.55 160.26 108.37 C 160.11 107.18 159.04 106.34 157.85 106.48 L 156.83 106.60 C 155.64 106.74 154.80 107.82 154.94 109.00 C 155.08 110.19 156.16 111.03 157.34 110.89 Z M 158.34 110.76 L 159.34 110.66 C 160.52 110.53 161.37 109.47 161.24 108.28 C 161.11 107.10 160.05 106.25 158.87 106.38 L 157.88 106.49 C 156.70 106.61 155.84 107.68 155.97 108.86 C 156.10 110.04 157.16 110.89 158.34 110.76 Z M 159.30 110.65 L 160.25 110.56 C 161.43 110.45 162.30 109.41 162.19 108.23 C 162.08 107.06 161.04 106.19 159.86 106.30 L 158.91 106.38 C 157.73 106.49 156.86 107.53 156.97 108.71 C 157.08 109.89 158.12 110.76 159.30 110.65 Z M 160.21 110.56 L 161.23 110.48 C 162.40 110.40 163.29 109.38 163.20 108.21 C 163.12 107.03 162.10 106.15 160.93 106.23 L 159.91 106.30 C 158.73 106.39 157.85 107.41 157.93 108.58 C 158.01 109.75 159.03 110.64 160.21 110.56 Z M 161.19 110.48 L 162.16 110.42 C 163.33 110.36 164.23 109.36 164.16 108.19 C 164.10 107.02 163.10 106.12 161.93 106.19 L 160.96 106.24 C 159.79 106.30 158.89 107.30 158.96 108.47 C 159.02 109.64 160.02 110.54 161.19 110.48 Z M 162.14 110.41 L 163.09 110.37 C 164.26 110.32 165.16 109.34 165.11 108.17 C 165.06 107.01 164.08 106.10 162.91 106.15 L 161.95 106.19 C 160.79 106.25 159.89 107.23 159.94 108.40 C 159.99 109.56 160.97 110.46 162.14 110.41 Z M 163.06 110.36 L 164.09 110.34 C 165.24 110.30 166.16 109.34 166.13 108.18 C 166.10 107.02 165.13 106.10 163.97 106.13 L 162.95 106.16 C 161.79 106.19 160.87 107.16 160.90 108.32 C 160.93 109.48 161.90 110.39 163.06 110.36 Z M 164.05 110.33 L 165.02 110.32 C 166.18 110.31 167.11 109.36 167.09 108.20 C 167.08 107.05 166.14 106.12 164.98 106.13 L 164.01 106.14 C 162.85 106.15 161.92 107.10 161.94 108.26 C 161.95 109.41 162.89 110.34 164.05 110.33 Z M 164.99 110.31 L 166.01 110.32 C 167.16 110.32 168.10 109.40 168.11 108.25 C 168.11 107.09 167.19 106.16 166.04 106.15 L 165.02 106.14 C 163.87 106.13 162.93 107.06 162.92 108.21 C 162.91 109.36 163.84 110.30 164.99 110.31 Z M 165.96 110.31 L 167.02 110.34 C 168.16 110.37 169.12 109.47 169.15 108.32 C 169.19 107.18 168.29 106.22 167.14 106.19 L 166.08 106.16 C 164.94 106.12 163.98 107.02 163.95 108.17 C 163.91 109.32 164.81 110.27 165.96 110.31 Z M 166.87 110.32 L 167.95 110.43 C 169.09 110.54 170.10 109.72 170.21 108.58 C 170.33 107.44 169.50 106.43 168.36 106.32 L 167.28 106.21 C 166.15 106.09 165.14 106.92 165.02 108.06 C 164.91 109.19 165.73 110.21 166.87 110.32 Z M 167.44 110.30 L 168.27 110.61 C 169.33 111.00 170.52 110.46 170.91 109.40 C 171.31 108.33 170.77 107.15 169.70 106.76 L 168.87 106.45 C 167.81 106.05 166.63 106.59 166.23 107.66 C 165.84 108.72 166.38 109.90 167.44 110.30 Z M 167.27 109.83 L 167.80 110.62 C 168.43 111.57 169.72 111.83 170.67 111.19 C 171.62 110.56 171.87 109.27 171.24 108.32 L 170.71 107.53 C 170.07 106.58 168.79 106.32 167.84 106.96 C 166.89 107.60 166.63 108.88 167.27 109.83 Z M 167.40 109.59 L 167.46 110.58 C 167.52 111.75 168.52 112.64 169.69 112.58 C 170.85 112.51 171.75 111.52 171.68 110.35 L 171.63 109.36 C 171.57 108.19 170.57 107.30 169.40 107.36 C 168.24 107.42 167.34 108.42 167.40 109.59 Z M 167.52 109.83 L 167.23 110.75 C 166.88 111.89 167.52 113.09 168.65 113.44 C 169.78 113.79 170.99 113.16 171.34 112.02 L 171.62 111.10 C 171.97 109.97 171.34 108.76 170.21 108.41 C 169.07 108.06 167.87 108.70 167.52 109.83 Z M 167.38 110.36 L 166.92 111.22 C 166.35 112.27 166.74 113.58 167.79 114.15 C 168.84 114.72 170.15 114.32 170.72 113.28 L 171.19 112.41 C 171.75 111.37 171.36 110.05 170.31 109.49 C 169.26 108.92 167.95 109.31 167.38 110.36 Z M 166.96 111.14 L 166.46 111.98 C 165.85 113.01 166.19 114.34 167.22 114.95 C 168.25 115.56 169.58 115.22 170.19 114.19 L 170.68 113.35 C 171.29 112.32 170.95 111.00 169.93 110.39 C 168.90 109.77 167.57 110.11 166.96 111.14 Z M 166.46 111.98 L 165.91 112.91 C 165.30 113.95 165.64 115.27 166.67 115.88 C 167.70 116.49 169.03 116.15 169.64 115.12 L 170.19 114.19 C 170.80 113.16 170.46 111.83 169.42 111.22 C 168.39 110.61 167.06 110.95 166.46 111.98 Z M 165.89 112.94 L 165.38 113.84 C 164.78 114.88 165.15 116.21 166.19 116.80 C 167.23 117.39 168.55 117.03 169.14 115.99 L 169.66 115.09 C 170.25 114.05 169.89 112.73 168.85 112.13 C 167.81 111.54 166.48 111.90 165.89 112.94 Z M 165.37 113.85 L 164.88 114.72 C 164.30 115.76 164.66 117.08 165.71 117.67 C 166.75 118.26 168.07 117.89 168.66 116.85 L 169.15 115.98 C 169.73 114.94 169.37 113.62 168.32 113.03 C 167.28 112.44 165.96 112.81 165.37 113.85 Z M 164.90 114.71 L 164.38 115.62 C 163.79 116.65 164.14 117.97 165.17 118.56 C 166.21 119.15 167.52 118.80 168.12 117.77 L 168.64 116.86 C 169.23 115.83 168.88 114.51 167.85 113.91 C 166.81 113.32 165.50 113.68 164.90 114.71 Z M 164.41 115.60 L 163.94 116.40 C 163.33 117.41 163.66 118.72 164.68 119.33 C 165.69 119.93 167.01 119.60 167.61 118.59 L 168.09 117.78 C 168.69 116.77 168.36 115.46 167.34 114.85 C 166.33 114.25 165.02 114.58 164.41 115.60 Z M 163.96 116.41 L 163.45 117.26 C 162.86 118.26 163.19 119.56 164.19 120.15 C 165.19 120.75 166.49 120.42 167.08 119.42 L 167.59 118.57 C 168.19 117.57 167.86 116.27 166.85 115.68 C 165.85 115.08 164.55 115.41 163.96 116.41 Z M 163.45 117.31 L 162.96 118.18 C 162.39 119.18 162.74 120.46 163.75 121.02 C 164.75 121.59 166.02 121.24 166.59 120.24 L 167.08 119.37 C 167.65 118.36 167.30 117.09 166.30 116.52 C 165.29 115.95 164.02 116.31 163.45 117.31 Z M 162.97 118.23 L 162.49 119.11 C 161.95 120.10 162.32 121.35 163.32 121.89 C 164.31 122.43 165.56 122.07 166.10 121.07 L 166.58 120.19 C 167.12 119.19 166.75 117.95 165.76 117.40 C 164.76 116.86 163.51 117.23 162.97 118.23 Z M 162.54 119.09 L 162.05 119.94 C 161.50 120.91 161.84 122.15 162.81 122.70 C 163.78 123.25 165.01 122.92 165.57 121.95 L 166.05 121.09 C 166.61 120.12 166.27 118.88 165.30 118.33 C 164.33 117.78 163.09 118.12 162.54 119.09 Z M 162.09 119.94 L 161.59 120.80 C 161.04 121.74 161.36 122.96 162.30 123.52 C 163.25 124.07 164.47 123.75 165.02 122.80 L 165.52 121.95 C 166.08 121.00 165.76 119.78 164.81 119.23 C 163.86 118.68 162.65 118.99 162.09 119.94 Z M 161.61 120.83 L 161.14 121.66 C 160.60 122.60 160.92 123.79 161.86 124.33 C 162.79 124.86 163.99 124.54 164.52 123.60 L 165.00 122.77 C 165.54 121.84 165.22 120.64 164.28 120.11 C 163.34 119.57 162.15 119.89 161.61 120.83 Z M 161.16 121.69 L 160.65 122.60 C 160.13 123.52 160.46 124.69 161.38 125.21 C 162.30 125.73 163.47 125.40 163.99 124.48 L 164.50 123.57 C 165.02 122.65 164.70 121.48 163.77 120.96 C 162.85 120.44 161.68 120.77 161.16 121.69 Z M 160.67 122.61 L 160.18 123.48 C 159.67 124.39 159.99 125.55 160.90 126.06 C 161.81 126.57 162.97 126.25 163.48 125.34 L 163.97 124.47 C 164.49 123.56 164.16 122.40 163.25 121.89 C 162.34 121.37 161.18 121.70 160.67 122.61 Z M 160.21 123.47 L 159.70 124.35 C 159.18 125.25 159.48 126.40 160.38 126.92 C 161.27 127.44 162.42 127.13 162.94 126.24 L 163.45 125.35 C 163.97 124.45 163.67 123.31 162.77 122.79 C 161.88 122.27 160.73 122.57 160.21 123.47 Z M 159.74 124.32 L 159.19 125.21 C 158.66 126.08 158.93 127.22 159.80 127.76 C 160.67 128.29 161.81 128.02 162.35 127.15 L 162.89 126.27 C 163.43 125.40 163.16 124.25 162.29 123.72 C 161.42 123.18 160.28 123.45 159.74 124.32 Z M 159.24 125.17 L 158.71 125.99 C 158.15 126.83 158.39 127.96 159.23 128.52 C 160.07 129.07 161.21 128.84 161.76 128.00 L 162.30 127.19 C 162.85 126.34 162.62 125.21 161.78 124.65 C 160.93 124.10 159.80 124.33 159.24 125.17 Z M 158.75 125.95 L 158.18 126.77 C 157.60 127.59 157.80 128.72 158.62 129.30 C 159.43 129.87 160.56 129.67 161.14 128.86 L 161.72 128.03 C 162.29 127.22 162.10 126.09 161.28 125.51 C 160.46 124.94 159.33 125.13 158.75 125.95 Z M 158.20 126.75 L 157.62 127.54 C 157.03 128.34 157.20 129.47 158.01 130.06 C 158.81 130.65 159.94 130.48 160.53 129.68 L 161.11 128.88 C 161.70 128.08 161.53 126.95 160.73 126.36 C 159.92 125.77 158.79 125.94 158.20 126.75 Z M 157.63 127.53 L 157.54 127.65 C 156.95 128.45 157.11 129.58 157.91 130.17 C 158.71 130.77 159.84 130.60 160.43 129.80 L 160.52 129.68 C 161.11 128.88 160.95 127.76 160.15 127.16 C 159.35 126.57 158.22 126.74 157.63 127.53 Z"
      fill="black"
      fill-rule="nonzero" /><path d="M 138.76 117.81 L 138.93 118.74 C 139.13 119.82 140.16 120.53 141.24 120.33 C 142.31 120.14 143.03 119.11 142.83 118.03 L 142.66 117.10 C 142.46 116.02 141.43 115.31 140.35 115.50 C 139.28 115.70 138.56 116.73 138.76 117.81 Z M 138.89 118.89 L 139.14 119.90 C 139.42 121.00 140.54 121.67 141.64 121.39 C 142.74 121.11 143.41 119.99 143.13 118.89 L 142.87 117.88 C 142.59 116.78 141.47 116.11 140.37 116.39 C 139.27 116.67 138.61 117.79 138.89 118.89 Z M 139.16 120.08 L 139.47 120.95 C 139.85 122.04 141.04 122.61 142.13 122.23 C 143.22 121.85 143.79 120.66 143.41 119.57 L 143.11 118.71 C 142.73 117.62 141.54 117.04 140.45 117.42 C 139.36 117.80 138.78 118.99 139.16 120.08 Z M 139.52 121.05 L 139.90 121.98 C 140.33 123.04 141.54 123.55 142.60 123.11 C 143.67 122.68 144.17 121.47 143.74 120.40 L 143.36 119.48 C 142.93 118.41 141.71 117.91 140.65 118.34 C 139.59 118.77 139.08 119.99 139.52 121.05 Z M 139.94 122.02 L 140.38 123.02 C 140.84 124.06 142.05 124.53 143.09 124.07 C 144.13 123.61 144.60 122.39 144.14 121.35 L 143.70 120.36 C 143.24 119.32 142.02 118.85 140.98 119.31 C 139.94 119.77 139.48 120.98 139.94 122.02 Z M 140.41 123.03 L 140.84 123.96 C 141.31 124.98 142.51 125.43 143.53 124.96 C 144.55 124.49 145.00 123.28 144.53 122.26 L 144.11 121.34 C 143.64 120.32 142.43 119.87 141.41 120.34 C 140.39 120.81 139.94 122.01 140.41 123.03 Z M 140.87 123.96 L 141.31 124.89 C 141.78 125.88 142.97 126.31 143.97 125.84 C 144.97 125.37 145.40 124.18 144.93 123.18 L 144.49 122.26 C 144.02 121.26 142.83 120.83 141.83 121.30 C 140.83 121.77 140.40 122.96 140.87 123.96 Z M 141.35 124.88 L 141.76 125.76 C 142.23 126.74 143.41 127.15 144.39 126.69 C 145.37 126.22 145.78 125.05 145.31 124.07 L 144.89 123.19 C 144.42 122.21 143.25 121.79 142.27 122.26 C 141.29 122.73 140.88 123.90 141.35 124.88 Z M 141.81 125.75 L 142.29 126.73 C 142.75 127.69 143.90 128.09 144.86 127.62 C 145.81 127.16 146.21 126.01 145.75 125.05 L 145.27 124.07 C 144.80 123.12 143.65 122.72 142.70 123.18 C 141.74 123.65 141.34 124.80 141.81 125.75 Z M 142.35 126.75 L 142.80 127.61 C 143.27 128.53 144.40 128.90 145.32 128.43 C 146.24 127.95 146.60 126.82 146.13 125.90 L 145.68 125.04 C 145.21 124.12 144.08 123.76 143.16 124.23 C 142.24 124.70 141.88 125.83 142.35 126.75 Z M 142.88 127.67 L 143.35 128.49 C 143.85 129.37 144.97 129.67 145.84 129.17 C 146.72 128.66 147.02 127.54 146.52 126.67 L 146.05 125.85 C 145.54 124.97 144.42 124.67 143.55 125.18 C 142.67 125.68 142.37 126.80 142.88 127.67 Z M 143.42 128.57 L 143.97 129.41 C 144.52 130.24 145.64 130.47 146.47 129.92 C 147.31 129.38 147.54 128.26 146.99 127.42 L 146.44 126.59 C 145.89 125.75 144.77 125.52 143.94 126.07 C 143.11 126.62 142.87 127.74 143.42 128.57 Z M 144.00 129.45 L 144.31 129.88 C 144.88 130.70 146.00 130.90 146.82 130.33 C 147.63 129.76 147.83 128.64 147.26 127.82 L 146.96 127.38 C 146.39 126.57 145.27 126.37 144.45 126.94 C 143.63 127.51 143.43 128.63 144.00 129.45 Z"
      fill="black"
      fill-rule="nonzero" /><path d="M 154.39 118.56 L 154.87 119.42 C 155.41 120.40 156.64 120.75 157.62 120.21 C 158.59 119.66 158.94 118.43 158.40 117.46 L 157.92 116.60 C 157.38 115.62 156.15 115.27 155.18 115.81 C 154.20 116.36 153.85 117.59 154.39 118.56 Z M 154.60 118.83 L 154.78 119.77 C 154.99 120.89 156.08 121.63 157.21 121.42 C 158.34 121.20 159.07 120.11 158.86 118.98 L 158.68 118.05 C 158.46 116.92 157.37 116.18 156.24 116.40 C 155.12 116.62 154.38 117.71 154.60 118.83 Z M 154.79 119.03 L 154.63 119.93 C 154.44 121.05 155.19 122.12 156.31 122.31 C 157.43 122.50 158.50 121.75 158.69 120.63 L 158.85 119.72 C 159.04 118.60 158.29 117.54 157.16 117.35 C 156.04 117.15 154.98 117.91 154.79 119.03 Z M 154.80 119.58 L 154.41 120.62 C 154.02 121.65 154.54 122.79 155.57 123.18 C 156.59 123.57 157.74 123.05 158.13 122.02 L 158.52 120.98 C 158.91 119.95 158.39 118.81 157.36 118.42 C 156.34 118.03 155.19 118.55 154.80 119.58 Z M 154.54 120.47 L 154.10 121.36 C 153.63 122.32 154.02 123.47 154.98 123.94 C 155.94 124.41 157.09 124.02 157.56 123.06 L 158.00 122.17 C 158.47 121.22 158.07 120.06 157.12 119.59 C 156.16 119.12 155.01 119.51 154.54 120.47 Z M 154.19 121.28 L 153.68 122.18 C 153.17 123.08 153.49 124.23 154.40 124.75 C 155.31 125.26 156.46 124.94 156.97 124.03 L 157.47 123.14 C 157.99 122.23 157.66 121.08 156.76 120.57 C 155.85 120.05 154.70 120.38 154.19 121.28 Z M 153.76 122.12 L 153.23 122.97 C 152.69 123.83 152.95 124.97 153.81 125.52 C 154.67 126.06 155.81 125.80 156.36 124.94 L 156.89 124.09 C 157.44 123.22 157.18 122.08 156.31 121.54 C 155.45 120.99 154.31 121.25 153.76 122.12 Z M 153.31 122.90 L 152.70 123.76 C 152.12 124.58 152.31 125.72 153.13 126.30 C 153.96 126.88 155.09 126.68 155.67 125.86 L 156.28 125.00 C 156.86 124.18 156.67 123.05 155.84 122.46 C 155.02 121.88 153.89 122.08 153.31 122.90 Z M 152.76 123.69 L 152.15 124.47 C 151.54 125.26 151.68 126.39 152.46 127.01 C 153.25 127.63 154.39 127.49 155.01 126.70 L 155.61 125.93 C 156.23 125.14 156.09 124.00 155.30 123.38 C 154.52 122.77 153.38 122.91 152.76 123.69 Z M 152.19 124.44 L 151.72 125.01 C 151.09 125.77 151.20 126.91 151.97 127.54 C 152.74 128.18 153.88 128.06 154.51 127.30 L 154.97 126.73 C 155.60 125.96 155.49 124.82 154.72 124.19 C 153.96 123.56 152.82 123.67 152.19 124.44 Z"
      fill="black"
      fill-rule="nonzero" /><path d="M 138.42 135.86 L 139.40 135.78 C 140.50 135.69 141.32 134.73 141.23 133.63 C 141.14 132.53 140.18 131.71 139.08 131.80 L 138.10 131.88 C 137.00 131.97 136.18 132.93 136.27 134.03 C 136.36 135.13 137.32 135.95 138.42 135.86 Z M 139.50 135.84 L 140.49 135.72 C 141.62 135.58 142.42 134.54 142.28 133.41 C 142.14 132.28 141.11 131.47 139.97 131.62 L 138.98 131.74 C 137.85 131.88 137.05 132.91 137.19 134.05 C 137.33 135.18 138.36 135.98 139.50 135.84 Z M 140.66 135.75 L 141.67 135.54 C 142.82 135.30 143.56 134.17 143.32 133.02 C 143.08 131.87 141.95 131.13 140.80 131.37 L 139.79 131.58 C 138.64 131.82 137.91 132.95 138.15 134.10 C 138.39 135.25 139.51 135.99 140.66 135.75 Z M 141.86 135.52 L 142.85 135.22 C 143.99 134.88 144.63 133.67 144.29 132.54 C 143.95 131.40 142.75 130.75 141.61 131.09 L 140.61 131.39 C 139.47 131.74 138.83 132.94 139.17 134.08 C 139.51 135.22 140.72 135.86 141.86 135.52 Z M 142.95 135.19 L 143.89 134.85 C 145.02 134.45 145.60 133.22 145.20 132.10 C 144.80 130.98 143.57 130.39 142.45 130.79 L 141.51 131.13 C 140.38 131.52 139.80 132.76 140.20 133.88 C 140.60 135.00 141.83 135.59 142.95 135.19 Z M 143.92 134.84 L 144.87 134.49 C 145.99 134.08 146.56 132.84 146.15 131.72 C 145.73 130.61 144.49 130.04 143.38 130.45 L 142.42 130.80 C 141.31 131.21 140.74 132.45 141.15 133.57 C 141.56 134.69 142.80 135.26 143.92 134.84 Z M 144.86 134.49 L 145.79 134.15 C 146.91 133.75 147.49 132.52 147.08 131.40 C 146.68 130.28 145.44 129.70 144.33 130.11 L 143.39 130.45 C 142.27 130.85 141.69 132.09 142.10 133.20 C 142.50 134.32 143.74 134.90 144.86 134.49 Z M 145.82 134.14 L 146.70 133.80 C 147.80 133.38 148.36 132.14 147.94 131.03 C 147.52 129.93 146.28 129.37 145.17 129.79 L 144.30 130.13 C 143.19 130.55 142.63 131.79 143.05 132.89 C 143.47 134.00 144.71 134.56 145.82 134.14 Z M 146.74 133.78 L 147.66 133.40 C 148.75 132.95 149.28 131.71 148.83 130.62 C 148.39 129.52 147.14 129.00 146.05 129.44 L 145.13 129.82 C 144.03 130.27 143.51 131.51 143.96 132.60 C 144.40 133.70 145.65 134.22 146.74 133.78 Z M 147.66 133.39 L 148.58 133.01 C 149.66 132.57 150.19 131.33 149.74 130.25 C 149.30 129.16 148.07 128.64 146.98 129.08 L 146.06 129.46 C 144.97 129.90 144.45 131.14 144.89 132.22 C 145.33 133.31 146.57 133.83 147.66 133.39 Z M 148.55 133.00 L 149.48 132.63 C 150.56 132.20 151.09 130.98 150.66 129.90 C 150.24 128.82 149.01 128.29 147.93 128.72 L 147.00 129.09 C 145.92 129.52 145.40 130.74 145.82 131.82 C 146.25 132.90 147.47 133.43 148.55 133.00 Z M 149.47 132.61 L 150.42 132.24 C 151.49 131.82 152.01 130.61 151.59 129.54 C 151.17 128.47 149.96 127.95 148.89 128.37 L 147.94 128.74 C 146.88 129.16 146.35 130.37 146.77 131.44 C 147.20 132.51 148.40 133.04 149.47 132.61 Z M 150.42 132.21 L 151.35 131.84 C 152.41 131.42 152.92 130.23 152.50 129.17 C 152.08 128.12 150.89 127.60 149.83 128.02 L 148.90 128.39 C 147.84 128.81 147.33 130.01 147.75 131.06 C 148.17 132.12 149.36 132.63 150.42 132.21 Z M 151.34 131.82 L 152.28 131.44 C 153.32 131.03 153.83 129.85 153.41 128.81 C 153.00 127.76 151.82 127.26 150.78 127.67 L 149.84 128.05 C 148.80 128.46 148.29 129.64 148.71 130.68 C 149.12 131.72 150.30 132.23 151.34 131.82 Z M 152.27 131.42 L 153.19 131.05 C 154.22 130.65 154.72 129.48 154.32 128.45 C 153.91 127.43 152.74 126.92 151.72 127.33 L 150.79 127.70 C 149.77 128.10 149.26 129.27 149.67 130.29 C 150.08 131.32 151.24 131.83 152.27 131.42 Z M 153.16 131.04 L 154.04 130.70 C 155.06 130.31 155.57 129.17 155.18 128.15 C 154.79 127.13 153.64 126.62 152.63 127.01 L 151.75 127.35 C 150.73 127.74 150.22 128.88 150.61 129.90 C 151.00 130.92 152.14 131.43 153.16 131.04 Z M 154.00 130.69 L 154.95 130.34 C 155.97 129.97 156.49 128.85 156.12 127.84 C 155.75 126.82 154.62 126.30 153.61 126.67 L 152.66 127.02 C 151.65 127.39 151.13 128.51 151.50 129.53 C 151.87 130.54 152.99 131.06 154.00 130.69 Z M 154.91 130.33 L 155.89 129.99 C 156.90 129.65 157.44 128.55 157.09 127.54 C 156.75 126.53 155.65 126.00 154.64 126.34 L 153.66 126.68 C 152.65 127.03 152.11 128.13 152.46 129.13 C 152.81 130.14 153.90 130.68 154.91 130.33 Z M 155.72 130.02 L 156.71 129.78 C 157.74 129.53 158.36 128.50 158.11 127.47 C 157.86 126.45 156.83 125.82 155.81 126.07 L 154.81 126.31 C 153.79 126.56 153.16 127.60 153.41 128.62 C 153.66 129.65 154.70 130.27 155.72 130.02 Z M 156.20 129.81 L 157.19 129.84 C 158.23 129.87 159.10 129.06 159.13 128.02 C 159.16 126.98 158.35 126.10 157.31 126.07 L 156.32 126.04 C 155.28 126.01 154.41 126.83 154.37 127.87 C 154.34 128.91 155.16 129.78 156.20 129.81 Z M 156.50 129.65 L 157.39 130.04 C 158.33 130.46 159.42 130.03 159.83 129.09 C 160.24 128.15 159.82 127.06 158.88 126.65 L 157.99 126.26 C 157.05 125.85 155.96 126.27 155.55 127.21 C 155.14 128.15 155.56 129.24 156.50 129.65 Z M 157.21 129.93 L 157.41 130.05 C 158.28 130.56 159.40 130.27 159.92 129.39 C 160.43 128.52 160.14 127.40 159.26 126.88 L 159.06 126.77 C 158.19 126.25 157.07 126.55 156.55 127.42 C 156.04 128.29 156.33 129.41 157.21 129.93 Z"
      fill="black"
      fill-rule="nonzero" /><path d="M 142.32 142.46 L 143.25 142.19 C 144.32 141.88 144.93 140.76 144.62 139.69 C 144.31 138.62 143.19 138.01 142.12 138.32 L 141.19 138.59 C 140.12 138.90 139.51 140.02 139.82 141.09 C 140.13 142.16 141.25 142.77 142.32 142.46 Z M 143.36 142.21 L 144.32 141.89 C 145.40 141.52 145.97 140.34 145.60 139.26 C 145.23 138.17 144.06 137.60 142.97 137.97 L 142.02 138.29 C 140.94 138.66 140.36 139.84 140.73 140.92 C 141.10 142.01 142.28 142.58 143.36 142.21 Z M 144.48 141.86 L 145.42 141.46 C 146.49 141.00 146.99 139.76 146.53 138.69 C 146.07 137.62 144.83 137.13 143.76 137.58 L 142.81 137.99 C 141.74 138.45 141.25 139.69 141.71 140.76 C 142.17 141.83 143.41 142.32 144.48 141.86 Z M 145.53 141.41 L 146.45 140.95 C 147.49 140.43 147.92 139.17 147.40 138.12 C 146.88 137.08 145.61 136.66 144.57 137.17 L 143.65 137.63 C 142.61 138.15 142.18 139.42 142.70 140.46 C 143.22 141.50 144.49 141.93 145.53 141.41 Z M 146.49 140.92 L 147.38 140.45 C 148.40 139.91 148.79 138.64 148.25 137.61 C 147.70 136.58 146.43 136.19 145.40 136.74 L 144.52 137.21 C 143.49 137.75 143.10 139.02 143.65 140.05 C 144.19 141.08 145.47 141.47 146.49 140.92 Z M 147.38 140.43 L 148.26 139.95 C 149.27 139.41 149.65 138.14 149.10 137.13 C 148.55 136.11 147.29 135.74 146.28 136.29 L 145.40 136.76 C 144.38 137.31 144.01 138.58 144.56 139.59 C 145.10 140.60 146.37 140.98 147.38 140.43 Z M 148.26 139.93 L 149.09 139.47 C 150.09 138.93 150.46 137.68 149.91 136.68 C 149.37 135.68 148.11 135.31 147.12 135.85 L 146.28 136.31 C 145.28 136.86 144.91 138.11 145.46 139.11 C 146.01 140.11 147.26 140.48 148.26 139.93 Z M 149.10 139.45 L 149.97 138.96 C 150.96 138.41 151.31 137.17 150.76 136.18 C 150.21 135.20 148.97 134.84 147.99 135.39 L 147.11 135.88 C 146.12 136.43 145.77 137.67 146.32 138.66 C 146.87 139.64 148.11 140.00 149.10 139.45 Z M 150.01 138.92 L 150.87 138.41 C 151.83 137.84 152.15 136.60 151.59 135.64 C 151.02 134.68 149.78 134.36 148.82 134.92 L 147.95 135.43 C 146.99 136.00 146.67 137.24 147.24 138.20 C 147.81 139.16 149.04 139.48 150.01 138.92 Z M 150.88 138.37 L 151.74 137.85 C 152.68 137.28 152.98 136.05 152.41 135.11 C 151.84 134.17 150.61 133.87 149.67 134.44 L 148.81 134.96 C 147.87 135.53 147.57 136.76 148.14 137.70 C 148.71 138.64 149.94 138.94 150.88 138.37 Z M 151.71 137.84 L 152.57 137.33 C 153.51 136.77 153.82 135.56 153.26 134.62 C 152.70 133.69 151.49 133.38 150.56 133.94 L 149.69 134.45 C 148.76 135.01 148.45 136.22 149.01 137.15 C 149.56 138.09 150.78 138.40 151.71 137.84 Z M 152.56 137.30 L 153.42 136.79 C 154.34 136.24 154.64 135.05 154.09 134.12 C 153.54 133.20 152.35 132.90 151.42 133.45 L 150.57 133.96 C 149.64 134.51 149.34 135.71 149.89 136.63 C 150.44 137.55 151.64 137.86 152.56 137.30 Z M 153.44 136.75 L 154.30 136.22 C 155.20 135.65 155.47 134.47 154.91 133.56 C 154.35 132.66 153.16 132.39 152.26 132.95 L 151.40 133.49 C 150.50 134.05 150.22 135.24 150.79 136.14 C 151.35 137.04 152.54 137.32 153.44 136.75 Z M 154.30 136.19 L 155.12 135.67 C 156.01 135.10 156.27 133.93 155.71 133.04 C 155.14 132.15 153.97 131.89 153.08 132.45 L 152.26 132.98 C 151.37 133.54 151.11 134.72 151.67 135.61 C 152.24 136.49 153.41 136.75 154.30 136.19 Z M 155.11 135.65 L 155.92 135.14 C 156.80 134.59 157.06 133.42 156.50 132.54 C 155.95 131.67 154.79 131.40 153.91 131.96 L 153.10 132.47 C 152.22 133.02 151.96 134.19 152.51 135.07 C 153.07 135.94 154.23 136.21 155.11 135.65 Z M 155.92 135.12 L 156.79 134.56 C 157.66 134.01 157.91 132.86 157.36 131.99 C 156.80 131.12 155.65 130.87 154.78 131.42 L 153.91 131.98 C 153.04 132.53 152.79 133.68 153.34 134.55 C 153.89 135.42 155.05 135.68 155.92 135.12 Z M 156.83 134.52 L 157.67 133.95 C 158.51 133.37 158.73 132.22 158.15 131.38 C 157.57 130.53 156.42 130.31 155.58 130.89 L 154.74 131.46 C 153.90 132.04 153.68 133.19 154.26 134.04 C 154.83 134.88 155.99 135.10 156.83 134.52 Z M 157.79 133.84 L 158.57 133.20 C 159.35 132.55 159.46 131.39 158.82 130.61 C 158.17 129.83 157.01 129.72 156.23 130.36 L 155.45 131.00 C 154.67 131.65 154.56 132.81 155.20 133.59 C 155.85 134.37 157.01 134.49 157.79 133.84 Z M 158.79 132.97 L 159.46 132.18 C 160.11 131.41 160.02 130.26 159.25 129.60 C 158.49 128.95 157.33 129.04 156.68 129.81 L 156.01 130.60 C 155.35 131.36 155.44 132.52 156.21 133.17 C 156.98 133.83 158.13 133.74 158.79 132.97 Z M 159.60 131.97 L 160.11 131.16 C 160.65 130.32 160.41 129.20 159.56 128.66 C 158.72 128.12 157.60 128.36 157.06 129.21 L 156.54 130.02 C 156.00 130.86 156.25 131.98 157.09 132.52 C 157.94 133.06 159.06 132.82 159.60 131.97 Z"
      fill="black"
      fill-rule="nonzero" /><path d="M 149.54 114.87 L 148.50 114.51 C 147.48 114.15 146.36 114.69 146.00 115.71 C 145.64 116.74 146.17 117.86 147.20 118.22 L 148.23 118.58 C 149.26 118.94 150.38 118.40 150.74 117.38 C 151.10 116.35 150.56 115.23 149.54 114.87 Z M 146.75 114.67 L 146.20 115.02 C 145.26 115.63 144.99 116.88 145.60 117.82 C 146.21 118.76 147.46 119.03 148.40 118.42 L 148.95 118.07 C 149.89 117.46 150.16 116.21 149.55 115.27 C 148.94 114.33 147.69 114.06 146.75 114.67 Z M 145.26 116.52 L 145.15 117.62 C 145.04 118.75 145.85 119.75 146.98 119.87 C 148.10 119.98 149.11 119.16 149.22 118.04 L 149.34 116.93 C 149.45 115.81 148.63 114.80 147.51 114.69 C 146.38 114.57 145.38 115.39 145.26 116.52 Z M 145.13 117.81 L 145.12 118.82 C 145.11 119.96 146.02 120.89 147.15 120.90 C 148.29 120.91 149.22 120.00 149.23 118.87 L 149.24 117.85 C 149.25 116.72 148.34 115.79 147.21 115.78 C 146.07 115.76 145.15 116.67 145.13 117.81 Z M 145.12 118.84 L 145.12 119.86 C 145.11 121.00 146.03 121.92 147.17 121.92 C 148.30 121.92 149.23 121.01 149.23 119.87 L 149.23 118.85 C 149.24 117.71 148.32 116.79 147.18 116.79 C 146.04 116.79 145.12 117.70 145.12 118.84 Z M 145.11 119.86 L 145.11 120.90 C 145.11 122.04 146.04 122.96 147.17 122.96 C 148.31 122.96 149.23 122.04 149.23 120.90 L 149.23 119.86 C 149.23 118.73 148.31 117.80 147.17 117.80 C 146.04 117.80 145.11 118.73 145.11 119.86 Z M 145.11 120.90 L 145.11 121.87 C 145.11 123.01 146.04 123.93 147.17 123.93 C 148.31 123.93 149.23 123.01 149.23 121.87 L 149.23 120.90 C 149.23 119.76 148.31 118.84 147.17 118.84 C 146.04 118.84 145.11 119.76 145.11 120.90 Z M 145.11 121.87 L 145.11 122.83 C 145.11 123.97 146.04 124.89 147.17 124.89 C 148.31 124.89 149.23 123.97 149.23 122.83 L 149.23 121.87 C 149.23 120.73 148.31 119.81 147.17 119.81 C 146.04 119.81 145.11 120.73 145.11 121.87 Z M 145.12 122.83 L 145.12 123.84 C 145.12 124.98 146.04 125.90 147.17 125.90 C 148.31 125.90 149.23 124.98 149.23 123.84 L 149.23 122.83 C 149.23 121.70 148.31 120.78 147.17 120.78 C 146.04 120.78 145.12 121.70 145.12 122.83 Z M 145.12 123.85 L 145.12 124.83 C 145.12 125.96 146.04 126.88 147.18 126.88 C 148.31 126.88 149.23 125.96 149.23 124.82 L 149.23 123.84 C 149.23 122.71 148.31 121.79 147.17 121.79 C 146.04 121.79 145.12 122.71 145.12 123.85 Z M 145.12 124.84 L 145.13 125.85 C 145.14 126.99 146.06 127.90 147.20 127.89 C 148.33 127.88 149.24 126.96 149.23 125.83 L 149.23 124.81 C 149.22 123.68 148.29 122.76 147.16 122.77 C 146.03 122.78 145.11 123.71 145.12 124.84 Z M 145.13 125.88 L 145.15 126.87 C 145.17 128.00 146.11 128.90 147.24 128.88 C 148.37 128.86 149.27 127.92 149.25 126.79 L 149.23 125.80 C 149.21 124.67 148.27 123.77 147.14 123.79 C 146.01 123.81 145.11 124.75 145.13 125.88 Z M 145.16 126.88 L 145.18 127.88 C 145.21 129.01 146.14 129.90 147.27 129.87 C 148.40 129.85 149.29 128.91 149.26 127.79 L 149.24 126.78 C 149.21 125.66 148.28 124.76 147.15 124.79 C 146.03 124.82 145.13 125.75 145.16 126.88 Z M 145.19 127.87 L 145.20 128.87 C 145.22 129.99 146.15 130.89 147.27 130.87 C 148.39 130.86 149.29 129.93 149.27 128.81 L 149.26 127.80 C 149.24 126.68 148.31 125.78 147.19 125.80 C 146.07 125.82 145.17 126.74 145.19 127.87 Z M 145.21 128.85 L 145.22 129.84 C 145.23 130.96 146.14 131.86 147.26 131.86 C 148.38 131.85 149.28 130.94 149.27 129.82 L 149.26 128.83 C 149.26 127.71 148.35 126.81 147.23 126.81 C 146.11 126.82 145.21 127.73 145.21 128.85 Z M 145.23 129.83 L 145.23 130.85 C 145.23 131.97 146.13 132.87 147.25 132.87 C 148.36 132.86 149.26 131.96 149.26 130.85 L 149.26 129.83 C 149.26 128.72 148.36 127.81 147.24 127.81 C 146.13 127.82 145.23 128.72 145.23 129.83 Z M 145.24 130.85 L 145.24 131.83 C 145.24 132.94 146.14 133.84 147.25 133.84 C 148.35 133.84 149.25 132.94 149.25 131.83 L 149.25 130.85 C 149.25 129.74 148.35 128.84 147.25 128.84 C 146.14 128.84 145.24 129.74 145.24 130.85 Z M 145.25 131.83 L 145.25 132.83 C 145.25 133.94 146.14 134.83 147.25 134.83 C 148.35 134.83 149.24 133.94 149.24 132.83 L 149.24 131.83 C 149.24 130.73 148.35 129.83 147.25 129.83 C 146.14 129.83 145.25 130.73 145.25 131.83 Z M 145.26 132.83 L 145.26 133.85 C 145.26 134.95 146.15 135.84 147.25 135.84 C 148.34 135.84 149.23 134.95 149.23 133.85 L 149.23 132.83 C 149.23 131.74 148.34 130.85 147.25 130.85 C 146.15 130.85 145.26 131.74 145.26 132.83 Z M 145.27 133.85 L 145.27 134.87 C 145.27 135.96 146.15 136.85 147.25 136.85 C 148.34 136.85 149.22 135.96 149.22 134.87 L 149.22 133.85 C 149.22 132.76 148.34 131.87 147.25 131.87 C 146.15 131.87 145.27 132.76 145.27 133.85 Z M 145.28 134.87 L 145.28 135.87 C 145.28 136.95 146.16 137.84 147.25 137.84 C 148.33 137.84 149.22 136.95 149.22 135.87 L 149.22 134.87 C 149.22 133.78 148.33 132.90 147.25 132.90 C 146.16 132.90 145.28 133.78 145.28 134.87 Z M 145.28 135.87 L 145.28 136.88 C 145.28 137.96 146.16 138.84 147.24 138.84 C 148.33 138.84 149.21 137.96 149.21 136.88 L 149.21 135.87 C 149.21 134.78 148.33 133.91 147.25 133.91 C 146.16 133.90 145.28 134.78 145.28 135.87 Z M 145.29 136.87 L 145.29 137.87 C 145.28 138.95 146.15 139.83 147.23 139.84 C 148.31 139.84 149.18 138.97 149.19 137.90 L 149.20 136.89 C 149.20 135.81 148.33 134.94 147.26 134.93 C 146.18 134.92 145.30 135.79 145.29 136.87 Z M 145.30 137.84 L 145.27 138.81 C 145.25 139.88 146.10 140.77 147.17 140.80 C 148.25 140.82 149.14 139.97 149.16 138.90 L 149.18 137.93 C 149.21 136.86 148.36 135.96 147.28 135.94 C 146.21 135.92 145.32 136.77 145.30 137.84 Z M 145.28 138.76 L 145.23 139.77 C 145.18 140.84 146.00 141.75 147.07 141.80 C 148.14 141.85 149.05 141.03 149.10 139.96 L 149.15 138.95 C 149.20 137.88 148.38 136.97 147.31 136.92 C 146.24 136.87 145.34 137.69 145.28 138.76 Z M 145.24 139.72 L 145.17 140.70 C 145.09 141.77 145.88 142.69 146.95 142.77 C 148.01 142.85 148.93 142.06 149.01 141.00 L 149.09 140.02 C 149.17 138.95 148.38 138.03 147.31 137.95 C 146.25 137.87 145.33 138.66 145.24 139.72 Z M 145.18 140.65 L 145.08 141.67 C 144.97 142.73 145.74 143.67 146.79 143.78 C 147.84 143.89 148.79 143.12 148.90 142.07 L 149.00 141.05 C 149.11 139.99 148.34 139.05 147.29 138.94 C 146.23 138.83 145.29 139.60 145.18 140.65 Z M 145.09 141.63 L 144.97 142.60 C 144.84 143.65 145.58 144.61 146.63 144.74 C 147.67 144.87 148.63 144.13 148.76 143.08 L 148.88 142.11 C 149.01 141.06 148.27 140.10 147.22 139.97 C 146.18 139.84 145.22 140.58 145.09 141.63 Z M 144.98 142.57 L 144.84 143.59 C 144.69 144.63 145.41 145.59 146.45 145.74 C 147.49 145.89 148.45 145.17 148.60 144.13 L 148.75 143.11 C 148.90 142.07 148.17 141.11 147.13 140.96 C 146.09 140.81 145.13 141.53 144.98 142.57 Z M 144.85 143.54 L 144.69 144.50 C 144.52 145.53 145.22 146.51 146.25 146.68 C 147.28 146.85 148.26 146.16 148.43 145.12 L 148.59 144.17 C 148.76 143.14 148.06 142.16 147.03 141.99 C 146.00 141.82 145.02 142.51 144.85 143.54 Z M 144.71 144.45 L 144.52 145.44 C 144.31 146.46 144.98 147.45 146.00 147.65 C 147.02 147.85 148.01 147.19 148.21 146.17 L 148.41 145.18 C 148.61 144.16 147.95 143.17 146.93 142.97 C 145.91 142.76 144.92 143.43 144.71 144.45 Z M 144.54 145.40 L 144.32 146.36 C 144.10 147.37 144.74 148.37 145.75 148.60 C 146.76 148.82 147.76 148.18 147.98 147.17 L 148.19 146.21 C 148.42 145.20 147.78 144.20 146.77 143.97 C 145.76 143.75 144.76 144.39 144.54 145.40 Z M 144.36 146.26 L 144.09 147.23 C 143.81 148.21 144.39 149.24 145.38 149.52 C 146.36 149.80 147.39 149.22 147.67 148.23 L 147.94 147.27 C 148.22 146.29 147.64 145.26 146.66 144.98 C 145.67 144.70 144.64 145.28 144.36 146.26 Z M 144.22 146.92 L 143.78 147.81 C 143.34 148.73 143.72 149.83 144.63 150.28 C 145.55 150.73 146.65 150.35 147.10 149.43 L 147.54 148.54 C 147.99 147.62 147.61 146.52 146.69 146.07 C 145.77 145.62 144.67 146.00 144.22 146.92 Z M 144.25 147.22 L 143.53 147.83 C 142.75 148.49 142.66 149.66 143.32 150.43 C 143.98 151.21 145.14 151.30 145.92 150.64 L 146.64 150.03 C 147.41 149.37 147.51 148.20 146.85 147.43 C 146.19 146.65 145.02 146.56 144.25 147.22 Z M 144.18 147.47 L 143.23 147.76 C 142.25 148.06 141.71 149.10 142.01 150.07 C 142.31 151.05 143.35 151.60 144.32 151.30 L 145.27 151.01 C 146.24 150.70 146.79 149.67 146.49 148.69 C 146.19 147.71 145.15 147.17 144.18 147.47 Z M 143.62 147.64 L 142.41 147.74 C 141.36 147.83 140.59 148.74 140.67 149.78 C 140.76 150.83 141.68 151.60 142.72 151.52 L 143.93 151.42 C 144.98 151.33 145.75 150.42 145.67 149.37 C 145.58 148.33 144.66 147.55 143.62 147.64 Z M 143.40 147.81 L 142.84 147.56 C 141.84 147.10 140.65 147.54 140.19 148.54 C 139.73 149.54 140.17 150.73 141.17 151.19 L 141.73 151.45 C 142.73 151.91 143.92 151.47 144.38 150.46 C 144.84 149.46 144.40 148.27 143.40 147.81 Z M 143.21 151.08 L 143.73 150.71 C 144.67 150.05 144.89 148.75 144.23 147.81 C 143.56 146.87 142.26 146.64 141.32 147.31 L 140.81 147.67 C 139.87 148.34 139.64 149.64 140.31 150.58 C 140.97 151.52 142.27 151.74 143.21 151.08 Z M 143.48 150.90 L 144.45 150.41 C 145.49 149.88 145.90 148.60 145.38 147.56 C 144.85 146.52 143.57 146.10 142.53 146.63 L 141.57 147.12 C 140.52 147.65 140.11 148.92 140.64 149.97 C 141.17 151.01 142.44 151.42 143.48 150.90 Z M 144.42 150.46 L 145.57 149.90 C 146.63 149.39 147.08 148.11 146.57 147.04 C 146.06 145.97 144.77 145.52 143.71 146.03 L 142.56 146.58 C 141.49 147.10 141.04 148.38 141.55 149.45 C 142.07 150.52 143.35 150.97 144.42 150.46 Z M 145.60 149.90 L 146.52 149.44 C 147.59 148.91 148.03 147.61 147.50 146.54 C 146.96 145.48 145.67 145.04 144.60 145.57 L 143.67 146.03 C 142.60 146.57 142.17 147.86 142.70 148.93 C 143.23 150.00 144.53 150.44 145.60 149.90 Z M 146.56 149.43 L 147.46 148.96 C 148.52 148.41 148.93 147.10 148.38 146.04 C 147.83 144.98 146.52 144.57 145.46 145.12 L 144.56 145.59 C 143.50 146.14 143.09 147.45 143.64 148.51 C 144.19 149.56 145.50 149.98 146.56 149.43 Z M 147.49 148.94 L 148.35 148.47 C 149.40 147.90 149.79 146.59 149.22 145.54 C 148.65 144.49 147.34 144.10 146.29 144.67 L 145.43 145.14 C 144.38 145.71 143.99 147.02 144.56 148.07 C 145.13 149.12 146.44 149.51 147.49 148.94 Z M 148.39 148.45 L 149.23 147.97 C 150.26 147.39 150.63 146.07 150.04 145.03 C 149.45 143.99 148.13 143.63 147.10 144.22 L 146.26 144.69 C 145.22 145.28 144.86 146.60 145.45 147.64 C 146.03 148.67 147.35 149.04 148.39 148.45 Z M 149.26 147.95 L 150.09 147.45 C 151.11 146.85 151.45 145.53 150.85 144.51 C 150.24 143.48 148.92 143.15 147.90 143.75 L 147.07 144.25 C 146.04 144.85 145.71 146.17 146.31 147.19 C 146.92 148.21 148.24 148.55 149.26 147.95 Z M 150.11 147.42 L 150.95 146.91 C 151.96 146.29 152.27 144.97 151.65 143.97 C 151.03 142.96 149.72 142.65 148.71 143.27 L 147.88 143.78 C 146.87 144.40 146.56 145.72 147.17 146.72 C 147.79 147.73 149.11 148.04 150.11 147.42 Z M 150.96 146.89 L 151.85 146.33 C 152.84 145.71 153.14 144.40 152.51 143.40 C 151.89 142.41 150.58 142.11 149.58 142.73 L 148.70 143.29 C 147.71 143.91 147.41 145.23 148.03 146.22 C 148.66 147.21 149.97 147.51 150.96 146.89 Z M 151.84 146.31 L 152.65 145.80 C 153.63 145.18 153.93 143.87 153.30 142.89 C 152.68 141.91 151.38 141.62 150.39 142.24 L 149.59 142.75 C 148.60 143.38 148.31 144.68 148.93 145.66 C 149.56 146.65 150.86 146.94 151.84 146.31 Z M 152.65 145.78 L 153.48 145.25 C 154.46 144.63 154.74 143.34 154.12 142.36 C 153.50 141.39 152.21 141.10 151.24 141.72 L 150.40 142.26 C 149.42 142.88 149.14 144.17 149.76 145.14 C 150.38 146.12 151.67 146.40 152.65 145.78 Z M 153.48 145.23 L 154.34 144.68 C 155.30 144.06 155.58 142.78 154.96 141.81 C 154.35 140.85 153.06 140.57 152.10 141.19 L 151.24 141.74 C 150.28 142.36 150.00 143.64 150.62 144.61 C 151.23 145.57 152.52 145.85 153.48 145.23 Z M 154.34 144.66 L 155.20 144.10 C 156.15 143.48 156.43 142.21 155.81 141.26 C 155.19 140.31 153.92 140.03 152.97 140.65 L 152.11 141.21 C 151.15 141.82 150.88 143.10 151.50 144.05 C 152.11 145.00 153.38 145.27 154.34 144.66 Z M 155.20 144.07 L 156.10 143.48 C 157.04 142.87 157.31 141.61 156.69 140.67 C 156.08 139.73 154.82 139.47 153.89 140.08 L 152.98 140.67 C 152.04 141.29 151.77 142.54 152.39 143.48 C 153.00 144.42 154.26 144.69 155.20 144.07 Z M 156.09 143.45 L 156.98 142.86 C 157.90 142.25 158.16 141.02 157.55 140.10 C 156.95 139.17 155.71 138.92 154.79 139.53 L 153.90 140.11 C 152.98 140.72 152.72 141.96 153.33 142.88 C 153.93 143.80 155.17 144.05 156.09 143.45 Z M 156.97 142.82 L 157.80 142.28 C 158.70 141.68 158.94 140.46 158.34 139.56 C 157.74 138.66 156.53 138.41 155.63 139.01 L 154.80 139.56 C 153.90 140.16 153.66 141.38 154.26 142.28 C 154.85 143.18 156.07 143.42 156.97 142.82 Z M 157.78 142.24 L 158.52 141.75 C 159.40 141.16 159.63 139.97 159.04 139.08 C 158.45 138.20 157.26 137.97 156.38 138.56 L 155.64 139.05 C 154.76 139.64 154.52 140.83 155.11 141.71 C 155.70 142.60 156.90 142.83 157.78 142.24 Z M 158.50 141.72 L 159.42 141.10 C 160.28 140.51 160.51 139.34 159.92 138.48 C 159.34 137.62 158.17 137.39 157.30 137.97 L 156.39 138.59 C 155.53 139.17 155.30 140.35 155.88 141.21 C 156.47 142.07 157.64 142.30 158.50 141.72 Z M 159.40 141.06 L 160.18 140.53 C 161.03 139.95 161.24 138.80 160.67 137.96 C 160.09 137.11 158.94 136.90 158.10 137.47 L 157.31 138.01 C 156.47 138.59 156.26 139.74 156.83 140.58 C 157.41 141.42 158.56 141.64 159.40 141.06 Z M 160.17 140.50 L 160.56 140.24 C 161.39 139.67 161.60 138.53 161.03 137.70 C 160.46 136.88 159.32 136.67 158.49 137.24 L 158.11 137.50 C 157.28 138.07 157.07 139.21 157.64 140.03 C 158.21 140.86 159.34 141.07 160.17 140.50 Z"
      fill="black"
      fill-rule="nonzero" /><path d="M 127.00 153.10 L 126.82 151.90 C 126.67 150.86 125.71 150.14 124.67 150.29 C 123.63 150.44 122.91 151.41 123.06 152.45 L 123.23 153.65 C 123.39 154.69 124.35 155.41 125.39 155.26 C 126.43 155.11 127.15 154.14 127.00 153.10 Z M 126.98 152.29 L 127.03 151.47 C 127.10 150.34 126.24 149.38 125.11 149.31 C 123.98 149.25 123.02 150.11 122.95 151.23 L 122.90 152.06 C 122.84 153.18 123.70 154.15 124.82 154.21 C 125.95 154.28 126.92 153.42 126.98 152.29 Z M 125.18 153.47 L 125.84 153.41 C 127.02 153.31 127.88 152.28 127.78 151.11 C 127.68 149.94 126.65 149.07 125.48 149.17 L 124.81 149.23 C 123.64 149.33 122.77 150.36 122.87 151.54 C 122.97 152.71 124.00 153.57 125.18 153.47 Z M 124.51 153.10 L 125.46 153.71 C 126.46 154.35 127.79 154.05 128.42 153.05 C 129.06 152.05 128.76 150.72 127.76 150.09 L 126.81 149.48 C 125.81 148.85 124.49 149.14 123.85 150.14 C 123.21 151.14 123.51 152.47 124.51 153.10 Z M 125.29 153.59 L 126.07 154.20 C 127.00 154.93 128.35 154.76 129.08 153.83 C 129.81 152.90 129.65 151.55 128.71 150.82 L 127.94 150.21 C 127.00 149.48 125.66 149.64 124.92 150.58 C 124.19 151.51 124.36 152.86 125.29 153.59 Z M 126.01 154.14 L 126.78 154.79 C 127.68 155.55 129.02 155.43 129.79 154.53 C 130.55 153.63 130.44 152.29 129.53 151.52 L 128.77 150.88 C 127.87 150.12 126.52 150.23 125.76 151.13 C 125.00 152.03 125.11 153.38 126.01 154.14 Z M 126.76 154.75 L 127.50 155.40 C 128.39 156.16 129.72 156.07 130.49 155.19 C 131.26 154.31 131.17 152.97 130.29 152.20 L 129.55 151.56 C 128.66 150.79 127.33 150.88 126.56 151.76 C 125.79 152.65 125.88 153.98 126.76 154.75 Z M 127.50 155.36 L 128.28 156.05 C 129.14 156.82 130.46 156.75 131.23 155.89 C 132.00 155.02 131.93 153.70 131.07 152.93 L 130.29 152.24 C 129.43 151.47 128.10 151.54 127.33 152.40 C 126.56 153.27 126.64 154.59 127.50 155.36 Z M 128.28 156.01 L 129.05 156.72 C 129.89 157.49 131.19 157.43 131.96 156.59 C 132.73 155.75 132.67 154.44 131.83 153.67 L 131.06 152.97 C 130.22 152.20 128.92 152.26 128.15 153.10 C 127.38 153.94 127.44 155.24 128.28 156.01 Z M 129.06 156.68 L 129.78 157.35 C 130.60 158.12 131.89 158.07 132.65 157.25 C 133.41 156.43 133.36 155.15 132.54 154.39 L 131.82 153.71 C 131.00 152.95 129.72 153.00 128.95 153.82 C 128.19 154.63 128.24 155.92 129.06 156.68 Z M 129.81 157.31 L 130.52 157.98 C 131.31 158.73 132.57 158.69 133.32 157.90 C 134.07 157.10 134.03 155.84 133.23 155.09 L 132.52 154.43 C 131.72 153.68 130.47 153.71 129.72 154.51 C 128.97 155.31 129.01 156.56 129.81 157.31 Z M 130.55 157.94 L 131.26 158.61 C 132.03 159.34 133.25 159.30 133.98 158.53 C 134.71 157.75 134.68 156.53 133.90 155.80 L 133.20 155.14 C 132.42 154.41 131.20 154.44 130.47 155.22 C 129.74 155.99 129.78 157.21 130.55 157.94 Z M 131.30 158.58 L 131.99 159.23 C 132.75 159.94 133.95 159.90 134.66 159.14 C 135.37 158.38 135.33 157.19 134.57 156.48 L 133.87 155.83 C 133.11 155.12 131.92 155.16 131.21 155.92 C 130.50 156.68 130.54 157.87 131.30 158.58 Z M 132.02 159.23 L 132.77 159.92 C 133.53 160.61 134.71 160.56 135.40 159.80 C 136.10 159.05 136.05 157.87 135.29 157.17 L 134.54 156.49 C 133.78 155.79 132.60 155.84 131.91 156.60 C 131.21 157.36 131.27 158.53 132.02 159.23 Z M 132.80 159.92 L 133.59 160.62 C 134.35 161.30 135.52 161.23 136.19 160.47 C 136.87 159.71 136.80 158.54 136.04 157.87 L 135.26 157.17 C 134.50 156.49 133.33 156.56 132.65 157.32 C 131.98 158.08 132.04 159.25 132.80 159.92 Z M 133.63 160.63 L 134.40 161.29 C 135.17 161.95 136.32 161.86 136.98 161.09 C 137.63 160.33 137.54 159.17 136.78 158.52 L 136.01 157.86 C 135.24 157.20 134.08 157.29 133.43 158.06 C 132.77 158.82 132.86 159.98 133.63 160.63 Z M 134.43 161.30 L 135.19 161.93 C 135.96 162.57 137.11 162.46 137.75 161.69 C 138.39 160.92 138.28 159.78 137.51 159.14 L 136.74 158.51 C 135.97 157.87 134.83 157.98 134.19 158.75 C 133.55 159.52 133.66 160.66 134.43 161.30 Z M 135.22 161.94 L 136.00 162.57 C 136.77 163.19 137.91 163.07 138.54 162.30 C 139.16 161.52 139.04 160.38 138.26 159.76 L 137.48 159.13 C 136.70 158.50 135.57 158.63 134.94 159.40 C 134.32 160.18 134.44 161.32 135.22 161.94 Z M 136.01 162.58 L 136.80 163.20 C 137.58 163.81 138.71 163.68 139.33 162.90 C 139.94 162.12 139.81 160.99 139.03 160.37 L 138.25 159.75 C 137.47 159.13 136.33 159.27 135.72 160.05 C 135.10 160.83 135.23 161.96 136.01 162.58 Z M 136.80 163.20 L 137.35 163.63 C 138.13 164.24 139.26 164.10 139.88 163.32 C 140.49 162.54 140.35 161.41 139.57 160.79 L 139.02 160.37 C 138.24 159.75 137.11 159.89 136.50 160.67 C 135.88 161.45 136.02 162.59 136.80 163.20 Z"
      fill="black"
      fill-rule="nonzero" /><path d="M 137.59 154.85 L 138.52 155.22 C 139.56 155.64 140.73 155.13 141.14 154.10 C 141.56 153.06 141.05 151.89 140.02 151.48 L 139.08 151.10 C 138.05 150.69 136.87 151.19 136.46 152.23 C 136.05 153.26 136.55 154.44 137.59 154.85 Z M 138.30 155.20 L 139.16 155.65 C 140.18 156.19 141.44 155.80 141.98 154.78 C 142.52 153.76 142.13 152.50 141.11 151.96 L 140.24 151.50 C 139.22 150.97 137.96 151.36 137.42 152.38 C 136.89 153.40 137.28 154.66 138.30 155.20 Z M 138.92 155.51 L 139.72 156.08 C 140.66 156.76 141.97 156.54 142.64 155.60 C 143.31 154.65 143.10 153.35 142.15 152.67 L 141.35 152.10 C 140.41 151.43 139.10 151.65 138.43 152.59 C 137.75 153.53 137.97 154.84 138.92 155.51 Z M 139.70 156.03 L 140.48 156.61 C 141.39 157.30 142.68 157.11 143.37 156.20 C 144.05 155.29 143.86 154.00 142.95 153.31 L 142.17 152.73 C 141.26 152.05 139.97 152.23 139.29 153.14 C 138.60 154.05 138.79 155.34 139.70 156.03 Z M 140.50 156.59 L 141.32 157.20 C 142.22 157.87 143.49 157.68 144.16 156.78 C 144.83 155.88 144.64 154.61 143.74 153.94 L 142.93 153.33 C 142.03 152.66 140.75 152.85 140.09 153.75 C 139.42 154.65 139.60 155.93 140.50 156.59 Z M 141.32 157.16 L 142.13 157.78 C 143.01 158.45 144.26 158.28 144.93 157.40 C 145.60 156.52 145.43 155.27 144.56 154.60 L 143.74 153.98 C 142.86 153.31 141.61 153.48 140.94 154.36 C 140.27 155.23 140.44 156.49 141.32 157.16 Z M 142.13 157.74 L 142.92 158.36 C 143.77 159.03 145.01 158.88 145.68 158.02 C 146.35 157.17 146.20 155.93 145.35 155.26 L 144.56 154.64 C 143.70 153.97 142.47 154.12 141.80 154.98 C 141.13 155.83 141.28 157.07 142.13 157.74 Z M 142.93 158.32 L 143.73 158.95 C 144.56 159.62 145.78 159.48 146.44 158.64 C 147.11 157.80 146.97 156.59 146.13 155.92 L 145.33 155.29 C 144.50 154.63 143.28 154.77 142.62 155.61 C 141.96 156.44 142.10 157.66 142.93 158.32 Z M 143.75 158.93 L 144.55 159.56 C 145.37 160.21 146.57 160.08 147.22 159.26 C 147.87 158.43 147.73 157.24 146.91 156.59 L 146.11 155.95 C 145.29 155.30 144.09 155.44 143.44 156.26 C 142.79 157.08 142.93 158.27 143.75 158.93 Z M 144.57 159.53 L 145.34 160.14 C 146.14 160.78 147.31 160.65 147.95 159.85 C 148.59 159.05 148.46 157.88 147.66 157.23 L 146.89 156.62 C 146.09 155.98 144.92 156.11 144.28 156.91 C 143.64 157.72 143.77 158.89 144.57 159.53 Z M 145.34 160.11 L 146.13 160.75 C 146.92 161.39 148.07 161.27 148.71 160.49 C 149.35 159.70 149.23 158.55 148.44 157.91 L 147.65 157.27 C 146.87 156.63 145.71 156.75 145.07 157.53 C 144.44 158.32 144.56 159.47 145.34 160.11 Z M 146.14 160.74 L 146.90 161.36 C 147.68 161.99 148.83 161.88 149.46 161.10 C 150.09 160.32 149.98 159.18 149.20 158.54 L 148.44 157.92 C 147.66 157.29 146.51 157.41 145.88 158.18 C 145.25 158.96 145.36 160.10 146.14 160.74 Z M 146.93 161.37 L 147.71 161.99 C 148.49 162.61 149.63 162.48 150.25 161.70 C 150.87 160.92 150.74 159.78 149.96 159.16 L 149.18 158.54 C 148.40 157.92 147.26 158.05 146.64 158.83 C 146.02 159.61 146.15 160.74 146.93 161.37 Z M 147.73 162.00 L 148.51 162.60 C 149.30 163.21 150.43 163.07 151.04 162.29 C 151.65 161.50 151.51 160.37 150.72 159.76 L 149.94 159.15 C 149.15 158.54 148.02 158.68 147.41 159.47 C 146.80 160.26 146.94 161.39 147.73 162.00 Z M 148.52 162.61 L 148.65 162.71 C 149.43 163.32 150.57 163.17 151.17 162.38 C 151.78 161.60 151.63 160.47 150.85 159.86 L 150.72 159.76 C 149.93 159.15 148.80 159.30 148.19 160.08 C 147.58 160.87 147.73 162.00 148.52 162.61 Z"
      fill="black"
      fill-rule="nonzero" /><path d="M 152.62 154.05 L 153.61 154.14 C 154.68 154.24 155.62 153.45 155.71 152.39 C 155.81 151.32 155.02 150.38 153.96 150.29 L 152.96 150.20 C 151.90 150.10 150.96 150.89 150.86 151.95 C 150.77 153.02 151.55 153.96 152.62 154.05 Z M 153.01 154.11 L 153.89 154.47 C 154.93 154.90 156.13 154.40 156.56 153.35 C 156.99 152.31 156.49 151.11 155.44 150.68 L 154.56 150.32 C 153.52 149.89 152.32 150.39 151.89 151.44 C 151.46 152.48 151.96 153.68 153.01 154.11 Z M 153.27 154.13 L 154.00 154.79 C 154.86 155.56 156.18 155.48 156.95 154.62 C 157.72 153.76 157.65 152.44 156.79 151.67 L 156.06 151.02 C 155.20 150.25 153.88 150.32 153.11 151.18 C 152.34 152.04 152.41 153.36 153.27 154.13 Z M 153.81 154.56 L 154.48 155.36 C 155.22 156.24 156.52 156.35 157.40 155.62 C 158.27 154.89 158.39 153.58 157.65 152.71 L 156.98 151.90 C 156.25 151.03 154.94 150.91 154.07 151.64 C 153.19 152.38 153.08 153.68 153.81 154.56 Z M 154.47 155.25 L 155.08 156.06 C 155.75 156.94 157.01 157.12 157.89 156.45 C 158.78 155.78 158.95 154.52 158.28 153.63 L 157.67 152.82 C 157.00 151.94 155.74 151.76 154.86 152.43 C 153.97 153.10 153.80 154.36 154.47 155.25 Z M 155.11 155.98 L 155.70 156.80 C 156.33 157.66 157.54 157.86 158.40 157.23 C 159.27 156.60 159.47 155.40 158.84 154.53 L 158.25 153.71 C 157.62 152.85 156.41 152.65 155.55 153.28 C 154.68 153.90 154.49 155.11 155.11 155.98 Z M 155.75 156.74 L 156.33 157.57 C 156.93 158.41 158.10 158.61 158.94 158.02 C 159.78 157.42 159.98 156.25 159.38 155.41 L 158.80 154.58 C 158.20 153.74 157.03 153.54 156.19 154.14 C 155.35 154.73 155.15 155.90 155.75 156.74 Z M 156.37 157.54 L 156.77 158.11 C 157.35 158.94 158.49 159.14 159.31 158.56 C 160.13 157.98 160.33 156.84 159.75 156.02 L 159.35 155.44 C 158.77 154.62 157.63 154.42 156.81 155.00 C 155.99 155.58 155.79 156.71 156.37 157.54 Z"
      fill="black"
      fill-rule="nonzero" /><path d="M 163.95 153.40 L 164.84 153.86 C 165.84 154.37 167.06 153.97 167.57 152.98 C 168.07 151.98 167.68 150.76 166.68 150.25 L 165.79 149.80 C 164.80 149.29 163.58 149.68 163.07 150.68 C 162.56 151.68 162.96 152.89 163.95 153.40 Z M 164.56 153.76 L 165.37 154.33 C 166.31 154.99 167.61 154.77 168.28 153.83 C 168.94 152.89 168.72 151.59 167.77 150.92 L 166.96 150.35 C 166.02 149.69 164.72 149.91 164.06 150.85 C 163.40 151.79 163.62 153.09 164.56 153.76 Z M 165.02 154.04 L 165.69 154.77 C 166.47 155.63 167.79 155.69 168.65 154.91 C 169.51 154.13 169.57 152.81 168.79 151.95 L 168.13 151.22 C 167.35 150.36 166.02 150.29 165.16 151.07 C 164.30 151.85 164.24 153.18 165.02 154.04 Z M 165.50 154.48 L 166.04 155.32 C 166.66 156.28 167.94 156.55 168.90 155.94 C 169.86 155.32 170.13 154.04 169.52 153.08 L 168.98 152.24 C 168.36 151.28 167.08 151.00 166.12 151.62 C 165.16 152.24 164.88 153.52 165.50 154.48 Z M 165.96 155.05 L 166.38 155.94 C 166.85 156.94 168.05 157.37 169.05 156.90 C 170.05 156.42 170.48 155.23 170.01 154.22 L 169.59 153.34 C 169.12 152.34 167.93 151.91 166.92 152.38 C 165.92 152.85 165.49 154.05 165.96 155.05 Z M 166.36 155.70 L 166.69 156.66 C 167.03 157.67 168.12 158.22 169.14 157.88 C 170.15 157.54 170.69 156.44 170.35 155.43 L 170.03 154.46 C 169.69 153.45 168.59 152.91 167.58 153.25 C 166.57 153.59 166.02 154.68 166.36 155.70 Z M 166.70 156.50 L 166.94 157.46 C 167.19 158.46 168.21 159.07 169.22 158.82 C 170.22 158.56 170.83 157.54 170.58 156.54 L 170.34 155.59 C 170.09 154.58 169.07 153.97 168.06 154.23 C 167.06 154.48 166.45 155.50 166.70 156.50 Z M 166.97 157.38 L 167.19 158.39 C 167.40 159.38 168.37 160.01 169.36 159.80 C 170.35 159.58 170.98 158.61 170.77 157.62 L 170.55 156.61 C 170.34 155.62 169.36 154.99 168.37 155.20 C 167.38 155.42 166.75 156.39 166.97 157.38 Z M 167.21 158.37 L 167.24 158.55 C 167.45 159.53 168.41 160.15 169.38 159.95 C 170.36 159.75 170.99 158.79 170.78 157.81 L 170.75 157.64 C 170.54 156.66 169.58 156.03 168.61 156.24 C 167.63 156.44 167.00 157.40 167.21 158.37 Z"
      fill="black"
      fill-rule="nonzero" /><path d="M 135.79 172.93 L 135.26 173.87 C 134.70 174.83 135.04 176.06 136.00 176.62 C 136.97 177.17 138.20 176.83 138.75 175.87 L 139.29 174.94 C 139.84 173.97 139.51 172.74 138.54 172.19 C 137.58 171.63 136.35 171.97 135.79 172.93 Z M 135.52 176.43 L 135.93 176.82 C 136.79 177.63 138.15 177.60 138.97 176.74 C 139.79 175.88 139.76 174.52 138.90 173.70 L 138.49 173.31 C 137.63 172.49 136.27 172.52 135.45 173.39 C 134.63 174.25 134.66 175.61 135.52 176.43 Z M 137.31 177.46 L 138.52 177.52 C 139.74 177.58 140.77 176.64 140.83 175.42 C 140.89 174.20 139.95 173.17 138.73 173.11 L 137.52 173.05 C 136.30 172.99 135.27 173.93 135.21 175.15 C 135.15 176.37 136.09 177.40 137.31 177.46 Z M 138.62 177.54 L 139.62 177.55 C 140.85 177.55 141.85 176.56 141.86 175.33 C 141.86 174.10 140.87 173.10 139.64 173.09 L 138.64 173.09 C 137.41 173.08 136.41 174.07 136.40 175.30 C 136.39 176.53 137.39 177.53 138.62 177.54 Z M 139.65 177.55 L 140.69 177.54 C 141.92 177.53 142.91 176.53 142.90 175.30 C 142.90 174.07 141.89 173.07 140.66 173.08 L 139.62 173.09 C 138.38 173.10 137.39 174.10 137.40 175.33 C 137.41 176.57 138.41 177.56 139.65 177.55 Z M 140.73 177.54 L 141.79 177.52 C 143.02 177.48 143.99 176.46 143.96 175.23 C 143.93 174.00 142.90 173.02 141.67 173.05 L 140.62 173.08 C 139.39 173.11 138.41 174.14 138.44 175.37 C 138.48 176.60 139.50 177.58 140.73 177.54 Z M 141.88 177.51 L 142.87 177.44 C 144.10 177.35 145.03 176.29 144.94 175.06 C 144.85 173.83 143.79 172.91 142.56 172.99 L 141.57 173.06 C 140.34 173.15 139.42 174.21 139.50 175.44 C 139.59 176.67 140.66 177.59 141.88 177.51 Z M 142.99 177.42 L 143.88 177.31 C 145.10 177.16 145.97 176.05 145.81 174.83 C 145.66 173.61 144.55 172.75 143.33 172.90 L 142.44 173.01 C 141.22 173.16 140.36 174.27 140.51 175.49 C 140.66 176.71 141.77 177.57 142.99 177.42 Z M 143.96 177.29 L 144.95 177.13 C 146.16 176.94 146.98 175.80 146.79 174.60 C 146.60 173.39 145.46 172.56 144.25 172.76 L 143.26 172.92 C 142.05 173.11 141.23 174.25 141.42 175.45 C 141.62 176.66 142.75 177.48 143.96 177.29 Z M 145.00 177.11 L 145.98 176.93 C 147.18 176.71 147.97 175.57 147.75 174.37 C 147.54 173.17 146.39 172.38 145.19 172.60 L 144.21 172.78 C 143.01 173.00 142.22 174.14 142.44 175.34 C 142.66 176.54 143.80 177.33 145.00 177.11 Z M 146.01 176.91 L 147.00 176.72 C 148.19 176.49 148.96 175.33 148.73 174.15 C 148.50 172.96 147.35 172.19 146.16 172.42 L 145.16 172.62 C 143.98 172.85 143.20 174.00 143.44 175.19 C 143.67 176.37 144.82 177.15 146.01 176.91 Z M 147.02 176.69 L 148.00 176.49 C 149.18 176.25 149.93 175.10 149.69 173.93 C 149.45 172.76 148.30 172.00 147.13 172.24 L 146.15 172.45 C 144.97 172.69 144.22 173.83 144.46 175.01 C 144.70 176.18 145.84 176.93 147.02 176.69 Z M 148.02 176.46 L 148.99 176.25 C 150.15 176.00 150.88 174.86 150.63 173.71 C 150.38 172.55 149.24 171.82 148.09 172.07 L 147.12 172.28 C 145.96 172.53 145.23 173.67 145.48 174.82 C 145.73 175.97 146.86 176.71 148.02 176.46 Z M 149.01 176.21 L 149.98 175.98 C 151.12 175.72 151.82 174.59 151.56 173.46 C 151.30 172.33 150.17 171.62 149.04 171.88 L 148.07 172.11 C 146.94 172.37 146.23 173.50 146.49 174.63 C 146.75 175.76 147.88 176.47 149.01 176.21 Z M 150.00 175.95 L 150.98 175.71 C 152.09 175.44 152.77 174.31 152.50 173.20 C 152.23 172.09 151.11 171.41 149.99 171.68 L 149.02 171.92 C 147.91 172.19 147.23 173.31 147.50 174.43 C 147.77 175.54 148.89 176.22 150.00 175.95 Z M 150.99 175.67 L 151.96 175.42 C 153.05 175.14 153.71 174.03 153.43 172.94 C 153.15 171.85 152.04 171.19 150.95 171.47 L 149.98 171.72 C 148.89 172.00 148.23 173.11 148.51 174.20 C 148.79 175.29 149.90 175.95 150.99 175.67 Z M 151.97 175.38 L 152.94 175.13 C 154.01 174.84 154.65 173.74 154.36 172.67 C 154.08 171.60 152.98 170.97 151.91 171.25 L 150.94 171.51 C 149.87 171.79 149.23 172.89 149.52 173.96 C 149.80 175.03 150.90 175.67 151.97 175.38 Z M 152.94 175.09 L 153.92 174.83 C 154.97 174.54 155.59 173.46 155.30 172.40 C 155.02 171.35 153.93 170.73 152.88 171.02 L 151.91 171.29 C 150.85 171.57 150.23 172.66 150.52 173.71 C 150.81 174.76 151.89 175.38 152.94 175.09 Z M 153.92 174.79 L 154.88 174.53 C 155.91 174.24 156.51 173.17 156.23 172.13 C 155.94 171.10 154.87 170.50 153.83 170.79 L 152.88 171.05 C 151.84 171.34 151.24 172.41 151.53 173.45 C 151.82 174.48 152.89 175.08 153.92 174.79 Z M 154.89 174.50 L 155.85 174.22 C 156.86 173.93 157.45 172.86 157.16 171.85 C 156.86 170.83 155.80 170.24 154.78 170.54 L 153.82 170.81 C 152.80 171.11 152.22 172.17 152.51 173.19 C 152.81 174.21 153.87 174.79 154.89 174.50 Z M 155.86 174.19 L 156.82 173.91 C 157.82 173.60 158.39 172.55 158.08 171.54 C 157.78 170.54 156.72 169.97 155.72 170.28 L 154.77 170.56 C 153.76 170.87 153.20 171.92 153.50 172.93 C 153.80 173.93 154.86 174.50 155.86 174.19 Z M 156.83 173.88 L 157.75 173.59 C 158.73 173.28 159.28 172.22 158.97 171.24 C 158.66 170.25 157.60 169.70 156.61 170.01 L 155.70 170.30 C 154.71 170.61 154.17 171.67 154.48 172.66 C 154.79 173.64 155.85 174.19 156.83 173.88 Z M 157.76 173.57 L 158.75 173.24 C 159.72 172.92 160.25 171.87 159.93 170.89 C 159.61 169.92 158.55 169.39 157.58 169.71 L 156.60 170.04 C 155.62 170.36 155.09 171.41 155.42 172.39 C 155.74 173.36 156.79 173.89 157.76 173.57 Z M 158.77 173.22 L 159.72 172.89 C 160.68 172.56 161.19 171.51 160.86 170.55 C 160.53 169.58 159.48 169.07 158.52 169.41 L 157.56 169.73 C 156.60 170.07 156.09 171.11 156.42 172.08 C 156.75 173.04 157.80 173.55 158.77 173.22 Z M 159.75 172.87 L 160.70 172.52 C 161.65 172.17 162.14 171.12 161.79 170.17 C 161.44 169.22 160.39 168.73 159.44 169.08 L 158.49 169.43 C 157.54 169.77 157.05 170.83 157.40 171.78 C 157.74 172.73 158.80 173.22 159.75 172.87 Z M 160.76 172.49 L 161.71 172.10 C 162.64 171.72 163.09 170.65 162.71 169.72 C 162.33 168.79 161.27 168.34 160.33 168.72 L 159.38 169.11 C 158.45 169.49 158.00 170.55 158.38 171.49 C 158.76 172.42 159.83 172.87 160.76 172.49 Z M 161.78 172.06 L 162.67 171.65 C 163.58 171.24 163.98 170.16 163.56 169.25 C 163.15 168.34 162.07 167.94 161.16 168.36 L 160.27 168.76 C 159.36 169.18 158.96 170.25 159.37 171.16 C 159.79 172.07 160.86 172.48 161.78 172.06 Z M 162.69 171.63 L 163.00 171.49 C 163.90 171.06 164.28 169.98 163.86 169.08 C 163.43 168.18 162.35 167.80 161.45 168.22 L 161.14 168.37 C 160.24 168.80 159.85 169.88 160.28 170.78 C 160.71 171.68 161.79 172.06 162.69 171.63 Z"
      fill="black"
      fill-rule="nonzero" /><path d="M 149.06 167.73 L 148.59 168.60 C 148.08 169.57 148.44 170.78 149.41 171.29 C 150.38 171.81 151.59 171.44 152.10 170.47 L 152.57 169.60 C 153.08 168.63 152.71 167.43 151.74 166.91 C 150.77 166.40 149.57 166.76 149.06 167.73 Z M 148.34 169.09 L 148.13 170.03 C 147.88 171.14 148.58 172.24 149.69 172.49 C 150.80 172.74 151.90 172.04 152.14 170.93 L 152.36 169.99 C 152.60 168.88 151.91 167.78 150.80 167.53 C 149.69 167.28 148.59 167.98 148.34 169.09 Z M 148.05 170.62 L 148.12 171.59 C 148.20 172.74 149.19 173.61 150.34 173.53 C 151.49 173.45 152.36 172.46 152.28 171.31 L 152.22 170.34 C 152.14 169.19 151.14 168.32 149.99 168.40 C 148.84 168.48 147.97 169.47 148.05 170.62 Z M 148.14 171.76 L 148.30 172.82 C 148.48 173.96 149.54 174.74 150.68 174.56 C 151.82 174.39 152.60 173.33 152.42 172.19 L 152.26 171.13 C 152.09 169.99 151.02 169.21 149.88 169.39 C 148.75 169.56 147.97 170.63 148.14 171.76 Z M 148.31 172.79 L 148.45 173.82 C 148.61 174.95 149.66 175.75 150.80 175.59 C 151.93 175.43 152.72 174.38 152.56 173.24 L 152.42 172.21 C 152.26 171.08 151.21 170.29 150.07 170.45 C 148.94 170.61 148.15 171.66 148.31 172.79 Z M 148.46 173.78 L 148.58 174.75 C 148.72 175.88 149.75 176.68 150.88 176.54 C 152.01 176.40 152.82 175.37 152.68 174.24 L 152.56 173.27 C 152.42 172.14 151.38 171.34 150.25 171.48 C 149.12 171.62 148.32 172.65 148.46 173.78 Z M 148.60 174.71 L 148.70 175.68 C 148.83 176.80 149.83 177.61 150.95 177.48 C 152.07 177.36 152.88 176.35 152.76 175.23 L 152.66 174.27 C 152.53 173.15 151.53 172.34 150.41 172.46 C 149.29 172.59 148.48 173.59 148.60 174.71 Z M 148.74 175.64 L 148.84 176.66 C 148.94 177.76 149.91 178.56 151.01 178.46 C 152.11 178.36 152.92 177.38 152.82 176.28 L 152.72 175.27 C 152.62 174.17 151.65 173.36 150.55 173.46 C 149.45 173.57 148.64 174.54 148.74 175.64 Z M 148.86 176.64 L 148.94 177.49 C 149.03 178.58 149.99 179.38 151.07 179.28 C 152.16 179.19 152.96 178.23 152.86 177.15 L 152.79 176.30 C 152.70 175.21 151.74 174.41 150.66 174.51 C 149.57 174.60 148.77 175.56 148.86 176.64 Z M 148.95 177.48 L 149.04 178.49 C 149.12 179.56 150.06 180.36 151.14 180.28 C 152.21 180.19 153.02 179.25 152.93 178.17 L 152.85 177.17 C 152.76 176.09 151.82 175.29 150.75 175.37 C 149.67 175.46 148.87 176.40 148.95 177.48 Z M 149.05 178.46 L 149.13 179.59 C 149.20 180.65 150.13 181.46 151.19 181.39 C 152.26 181.31 153.07 180.39 152.99 179.32 L 152.92 178.20 C 152.84 177.13 151.92 176.32 150.85 176.40 C 149.78 176.47 148.98 177.40 149.05 178.46 Z M 149.14 179.56 L 149.20 180.52 C 149.26 181.58 150.17 182.39 151.23 182.32 C 152.29 182.26 153.09 181.35 153.03 180.30 L 152.98 179.34 C 152.91 178.28 152.01 177.47 150.95 177.54 C 149.89 177.60 149.08 178.51 149.14 179.56 Z M 149.22 180.50 L 149.27 181.51 C 149.32 182.56 150.21 183.36 151.26 183.31 C 152.31 183.26 153.11 182.37 153.06 181.32 L 153.01 180.32 C 152.96 179.27 152.07 178.46 151.02 178.51 C 149.98 178.56 149.17 179.45 149.22 180.50 Z M 149.29 181.49 L 149.33 182.52 C 149.37 183.55 150.24 184.36 151.28 184.32 C 152.32 184.28 153.12 183.41 153.08 182.37 L 153.04 181.34 C 153.00 180.30 152.13 179.50 151.09 179.54 C 150.05 179.58 149.25 180.45 149.29 181.49 Z M 149.35 182.49 L 149.37 183.52 C 149.40 184.55 150.26 185.36 151.29 185.33 C 152.31 185.30 153.12 184.44 153.09 183.42 L 153.07 182.39 C 153.04 181.36 152.18 180.55 151.15 180.58 C 150.13 180.61 149.32 181.47 149.35 182.49 Z M 149.39 183.50 L 149.41 184.51 C 149.42 185.53 150.26 186.34 151.28 186.33 C 152.30 186.31 153.11 185.47 153.10 184.45 L 153.08 183.44 C 153.06 182.42 152.22 181.61 151.20 181.62 C 150.19 181.64 149.37 182.48 149.39 183.50 Z M 149.42 184.50 L 149.43 185.49 C 149.44 186.50 150.26 187.32 151.27 187.31 C 152.28 187.30 153.10 186.48 153.09 185.47 L 153.08 184.47 C 153.07 183.46 152.25 182.65 151.24 182.65 C 150.23 182.66 149.41 183.49 149.42 184.50 Z M 149.44 185.48 L 149.44 186.47 C 149.45 187.47 150.26 188.29 151.26 188.28 C 152.27 188.28 153.08 187.47 153.08 186.46 L 153.08 185.48 C 153.07 184.47 152.26 183.66 151.25 183.66 C 150.25 183.67 149.44 184.48 149.44 185.48 Z M 149.45 186.47 L 149.45 186.92 C 149.45 187.92 150.26 188.73 151.26 188.73 C 152.26 188.73 153.07 187.92 153.07 186.92 L 153.07 186.47 C 153.07 185.47 152.26 184.66 151.26 184.66 C 150.26 184.66 149.45 185.47 149.45 186.47 Z"
      fill="black"
      fill-rule="nonzero" /><path d="M 131.03 187.81 L 130.05 187.94 C 129.05 188.06 128.34 188.97 128.46 189.97 C 128.59 190.97 129.50 191.68 130.50 191.56 L 131.48 191.43 C 132.48 191.31 133.19 190.40 133.07 189.40 C 132.94 188.40 132.03 187.69 131.03 187.81 Z M 130.03 187.93 L 129.03 188.06 C 128.03 188.19 127.32 189.12 127.45 190.12 C 127.59 191.13 128.51 191.83 129.52 191.70 L 130.52 191.57 C 131.52 191.43 132.23 190.51 132.09 189.50 C 131.96 188.50 131.04 187.79 130.03 187.93 Z M 129.02 188.05 L 128.03 188.18 C 127.01 188.32 126.31 189.25 126.44 190.26 C 126.58 191.28 127.51 191.99 128.53 191.85 L 129.52 191.71 C 130.53 191.57 131.24 190.64 131.11 189.63 C 130.97 188.62 130.04 187.91 129.02 188.05 Z M 128.08 188.09 L 126.89 188.22 C 125.83 188.33 125.06 189.27 125.17 190.33 C 125.28 191.40 126.22 192.17 127.29 192.06 L 128.47 191.93 C 129.53 191.83 130.31 190.88 130.20 189.82 C 130.09 188.76 129.14 187.99 128.08 188.09 Z M 129.13 189.72 L 129.11 189.62 C 128.88 188.49 127.78 187.76 126.65 187.99 C 125.52 188.22 124.80 189.32 125.02 190.44 L 125.05 190.55 C 125.27 191.68 126.37 192.41 127.50 192.18 C 128.63 191.95 129.36 190.85 129.13 189.72 Z M 127.64 192.15 L 128.82 191.83 C 129.99 191.52 130.68 190.31 130.37 189.14 C 130.05 187.97 128.84 187.27 127.67 187.59 L 126.49 187.91 C 125.32 188.23 124.63 189.43 124.94 190.61 C 125.26 191.78 126.47 192.47 127.64 192.15 Z M 128.88 191.87 L 129.78 191.61 C 130.97 191.26 131.65 190.01 131.31 188.82 C 130.96 187.62 129.71 186.94 128.51 187.29 L 127.61 187.55 C 126.42 187.90 125.74 189.15 126.09 190.34 C 126.43 191.54 127.68 192.22 128.88 191.87 Z M 129.81 191.63 L 130.80 191.33 C 132.01 190.96 132.69 189.69 132.32 188.48 C 131.95 187.27 130.68 186.59 129.47 186.96 L 128.48 187.26 C 127.27 187.63 126.59 188.91 126.96 190.11 C 127.33 191.32 128.61 192.00 129.81 191.63 Z M 130.81 191.36 L 131.80 191.06 C 133.02 190.69 133.71 189.40 133.34 188.18 C 132.97 186.95 131.68 186.26 130.46 186.63 L 129.47 186.93 C 128.25 187.30 127.55 188.59 127.92 189.82 C 128.29 191.04 129.58 191.73 130.81 191.36 Z M 131.79 191.09 L 132.78 190.80 C 134.02 190.43 134.73 189.13 134.36 187.89 C 134.00 186.65 132.69 185.94 131.45 186.31 L 130.47 186.60 C 129.23 186.97 128.52 188.27 128.89 189.51 C 129.25 190.75 130.55 191.46 131.79 191.09 Z M 132.77 190.83 L 133.71 190.56 C 134.96 190.19 135.69 188.88 135.33 187.63 C 134.97 186.37 133.66 185.65 132.40 186.01 L 131.46 186.28 C 130.21 186.64 129.48 187.95 129.85 189.21 C 130.21 190.46 131.52 191.19 132.77 190.83 Z M 133.69 190.58 L 134.71 190.30 C 135.98 189.95 136.72 188.63 136.37 187.37 C 136.02 186.10 134.70 185.35 133.44 185.70 L 132.42 185.99 C 131.15 186.34 130.41 187.65 130.76 188.92 C 131.11 190.19 132.42 190.93 133.69 190.58 Z M 134.70 190.31 L 135.60 190.07 C 136.88 189.72 137.63 188.40 137.28 187.12 C 136.93 185.85 135.61 185.09 134.34 185.44 L 133.44 185.69 C 132.16 186.04 131.41 187.36 131.76 188.64 C 132.11 189.91 133.43 190.66 134.70 190.31 Z M 135.62 190.07 L 136.57 189.80 C 137.85 189.44 138.59 188.11 138.23 186.83 C 137.86 185.55 136.53 184.81 135.26 185.17 L 134.31 185.44 C 133.04 185.80 132.29 187.13 132.65 188.41 C 133.02 189.69 134.35 190.43 135.62 190.07 Z M 136.58 189.80 L 137.56 189.52 C 138.84 189.15 139.57 187.82 139.20 186.54 C 138.83 185.26 137.50 184.52 136.22 184.89 L 135.24 185.17 C 133.96 185.54 133.23 186.88 133.60 188.16 C 133.97 189.44 135.30 190.17 136.58 189.80 Z M 137.56 189.53 L 138.50 189.26 C 139.78 188.89 140.52 187.55 140.15 186.27 C 139.78 184.98 138.44 184.24 137.15 184.62 L 136.22 184.89 C 134.94 185.26 134.20 186.60 134.57 187.88 C 134.94 189.16 136.28 189.90 137.56 189.53 Z M 138.50 189.26 L 139.49 188.98 C 140.77 188.61 141.51 187.27 141.14 185.98 C 140.77 184.70 139.43 183.95 138.14 184.32 L 137.16 184.61 C 135.87 184.98 135.13 186.32 135.50 187.61 C 135.87 188.89 137.21 189.63 138.50 189.26 Z M 139.48 188.98 L 140.44 188.71 C 141.73 188.34 142.47 187.00 142.10 185.71 C 141.74 184.42 140.39 183.68 139.10 184.04 L 138.15 184.32 C 136.86 184.69 136.11 186.03 136.48 187.32 C 136.85 188.61 138.19 189.35 139.48 188.98 Z M 140.44 188.71 L 141.41 188.44 C 142.70 188.07 143.44 186.73 143.08 185.44 C 142.71 184.15 141.37 183.40 140.08 183.77 L 139.11 184.04 C 137.82 184.41 137.07 185.75 137.44 187.04 C 137.80 188.33 139.15 189.08 140.44 188.71 Z M 141.40 188.44 L 142.37 188.17 C 143.66 187.80 144.41 186.46 144.04 185.17 C 143.68 183.88 142.34 183.13 141.05 183.49 L 140.08 183.76 C 138.79 184.13 138.04 185.47 138.40 186.76 C 138.77 188.05 140.11 188.80 141.40 188.44 Z M 142.36 188.17 L 143.32 187.90 C 144.61 187.54 145.36 186.19 145.00 184.90 C 144.64 183.61 143.30 182.86 142.00 183.22 L 141.05 183.49 C 139.75 183.85 139.00 185.20 139.37 186.49 C 139.73 187.78 141.07 188.53 142.36 188.17 Z M 143.32 187.90 L 144.27 187.63 C 145.57 187.26 146.32 185.92 145.95 184.63 C 145.59 183.34 144.24 182.59 142.95 182.95 L 142.00 183.22 C 140.71 183.59 139.96 184.93 140.32 186.22 C 140.69 187.51 142.03 188.27 143.32 187.90 Z M 144.28 187.63 L 145.23 187.36 C 146.52 186.99 147.27 185.65 146.90 184.36 C 146.54 183.07 145.19 182.32 143.90 182.68 L 142.95 182.95 C 141.66 183.32 140.91 184.66 141.27 185.95 C 141.64 187.25 142.98 188.00 144.28 187.63 Z M 145.21 187.36 L 146.20 187.09 C 147.50 186.73 148.25 185.39 147.90 184.10 C 147.54 182.80 146.20 182.04 144.90 182.40 L 143.91 182.68 C 142.62 183.04 141.86 184.38 142.22 185.67 C 142.58 186.97 143.92 187.72 145.21 187.36 Z M 146.18 187.10 L 147.13 186.84 C 148.43 186.49 149.20 185.16 148.86 183.86 C 148.51 182.57 147.17 181.80 145.88 182.14 L 144.92 182.40 C 143.63 182.75 142.86 184.08 143.20 185.38 C 143.55 186.67 144.88 187.44 146.18 187.10 Z M 147.12 186.84 L 148.09 186.59 C 149.39 186.25 150.17 184.92 149.83 183.62 C 149.49 182.32 148.16 181.54 146.86 181.88 L 145.89 182.14 C 144.59 182.48 143.81 183.81 144.15 185.11 C 144.49 186.41 145.82 187.18 147.12 186.84 Z M 148.09 186.59 L 149.07 186.33 C 150.37 186.00 151.15 184.67 150.81 183.37 C 150.47 182.07 149.14 181.29 147.84 181.63 L 146.86 181.88 C 145.56 182.22 144.79 183.55 145.13 184.85 C 145.47 186.15 146.79 186.93 148.09 186.59 Z M 149.07 186.33 L 150.04 186.08 C 151.34 185.74 152.11 184.41 151.77 183.11 C 151.43 181.81 150.11 181.04 148.81 181.38 L 147.84 181.63 C 146.54 181.97 145.76 183.30 146.10 184.60 C 146.44 185.90 147.77 186.67 149.07 186.33 Z M 150.03 186.08 L 151.00 185.83 C 152.30 185.50 153.08 184.17 152.74 182.87 C 152.41 181.57 151.08 180.79 149.78 181.13 L 148.82 181.37 C 147.52 181.71 146.73 183.04 147.07 184.34 C 147.40 185.64 148.73 186.42 150.03 186.08 Z M 150.98 185.84 L 151.94 185.60 C 153.24 185.28 154.03 183.96 153.71 182.65 C 153.38 181.35 152.06 180.56 150.76 180.88 L 149.80 181.12 C 148.50 181.45 147.71 182.76 148.03 184.07 C 148.35 185.37 149.67 186.16 150.98 185.84 Z M 151.91 185.60 L 152.88 185.37 C 154.19 185.06 154.99 183.75 154.68 182.44 C 154.37 181.14 153.06 180.33 151.75 180.65 L 150.78 180.88 C 149.48 181.19 148.67 182.50 148.98 183.81 C 149.30 185.11 150.61 185.92 151.91 185.60 Z M 152.86 185.38 L 153.85 185.15 C 155.16 184.85 155.97 183.55 155.68 182.24 C 155.38 180.94 154.07 180.12 152.77 180.42 L 151.78 180.64 C 150.47 180.94 149.65 182.24 149.95 183.55 C 150.25 184.86 151.55 185.68 152.86 185.38 Z M 153.82 185.15 L 154.82 184.93 C 156.12 184.65 156.95 183.36 156.67 182.05 C 156.38 180.74 155.09 179.92 153.78 180.20 L 152.79 180.42 C 151.49 180.70 150.66 181.99 150.94 183.30 C 151.23 184.61 152.52 185.43 153.82 185.15 Z M 154.79 184.93 L 155.77 184.72 C 157.07 184.45 157.91 183.18 157.64 181.87 C 157.37 180.57 156.09 179.73 154.79 180.00 L 153.81 180.21 C 152.51 180.48 151.67 181.75 151.94 183.06 C 152.21 184.36 153.49 185.20 154.79 184.93 Z M 155.74 184.72 L 156.73 184.52 C 158.03 184.27 158.88 183.01 158.63 181.71 C 158.37 180.41 157.11 179.56 155.81 179.81 L 154.82 180.01 C 153.52 180.26 152.67 181.52 152.92 182.82 C 153.18 184.13 154.44 184.97 155.74 184.72 Z M 156.70 184.52 L 157.68 184.34 C 158.98 184.10 159.84 182.86 159.61 181.56 C 159.37 180.27 158.13 179.40 156.83 179.64 L 155.85 179.82 C 154.55 180.05 153.69 181.30 153.92 182.60 C 154.16 183.89 155.40 184.75 156.70 184.52 Z M 157.65 184.34 L 158.61 184.18 C 159.90 183.96 160.78 182.74 160.56 181.44 C 160.35 180.14 159.12 179.27 157.83 179.48 L 156.87 179.64 C 155.57 179.86 154.69 181.08 154.91 182.38 C 155.13 183.68 156.35 184.55 157.65 184.34 Z M 158.58 184.17 L 159.58 184.02 C 160.87 183.82 161.76 182.61 161.56 181.32 C 161.36 180.02 160.15 179.14 158.86 179.33 L 157.86 179.49 C 156.56 179.69 155.68 180.90 155.87 182.19 C 156.07 183.48 157.28 184.37 158.58 184.17 Z M 159.57 184.01 L 160.54 183.87 C 161.83 183.67 162.72 182.47 162.53 181.18 C 162.34 179.89 161.13 179.00 159.84 179.19 L 158.87 179.34 C 157.58 179.53 156.69 180.74 156.88 182.03 C 157.07 183.32 158.28 184.21 159.57 184.01 Z M 160.55 183.86 L 161.55 183.71 C 162.84 183.51 163.72 182.31 163.53 181.02 C 163.33 179.74 162.13 178.85 160.84 179.05 L 159.84 179.20 C 158.55 179.40 157.67 180.60 157.87 181.88 C 158.06 183.17 159.26 184.05 160.55 183.86 Z M 161.52 183.70 L 162.50 183.57 C 163.78 183.39 164.68 182.21 164.50 180.92 C 164.32 179.64 163.14 178.74 161.85 178.92 L 160.88 179.05 C 159.59 179.23 158.70 180.41 158.87 181.70 C 159.05 182.98 160.23 183.88 161.52 183.70 Z M 162.41 183.57 L 163.42 183.47 C 164.71 183.33 165.64 182.19 165.51 180.90 C 165.38 179.62 164.23 178.68 162.95 178.81 L 161.94 178.92 C 160.65 179.05 159.72 180.20 159.85 181.48 C 159.98 182.77 161.13 183.70 162.41 183.57 Z M 163.36 183.46 L 164.35 183.39 C 165.63 183.29 166.59 182.17 166.49 180.89 C 166.39 179.60 165.27 178.64 163.99 178.74 L 163.01 178.82 C 161.72 178.91 160.76 180.03 160.86 181.32 C 160.96 182.60 162.08 183.56 163.36 183.46 Z M 164.33 183.38 L 165.33 183.31 C 166.61 183.22 167.58 182.10 167.48 180.83 C 167.39 179.55 166.28 178.58 165.00 178.68 L 164.00 178.75 C 162.72 178.84 161.76 179.95 161.85 181.23 C 161.94 182.51 163.06 183.47 164.33 183.38 Z M 165.34 183.30 L 166.32 183.23 C 167.60 183.13 168.55 182.02 168.46 180.75 C 168.37 179.48 167.26 178.52 165.98 178.61 L 165.00 178.69 C 163.72 178.78 162.77 179.89 162.86 181.16 C 162.95 182.44 164.06 183.39 165.34 183.30 Z M 166.31 183.22 L 167.29 183.15 C 168.56 183.06 169.51 181.96 169.43 180.70 C 169.34 179.43 168.24 178.47 166.97 178.56 L 166.00 178.62 C 164.73 178.71 163.77 179.81 163.86 181.08 C 163.94 182.35 165.04 183.30 166.31 183.22 Z M 167.23 183.14 L 168.24 183.09 C 169.50 183.03 170.48 181.97 170.42 180.71 C 170.37 179.44 169.30 178.47 168.04 178.52 L 167.03 178.57 C 165.77 178.63 164.79 179.69 164.85 180.96 C 164.90 182.22 165.97 183.19 167.23 183.14 Z M 168.18 183.08 L 169.15 183.06 C 170.41 183.04 171.41 182.01 171.39 180.76 C 171.37 179.50 170.34 178.50 169.08 178.52 L 168.11 178.54 C 166.85 178.56 165.85 179.59 165.87 180.84 C 165.89 182.10 166.92 183.10 168.18 183.08 Z M 169.12 183.05 L 170.15 183.04 C 171.40 183.04 172.40 182.03 172.40 180.79 C 172.40 179.54 171.39 178.54 170.15 178.54 L 169.11 178.54 C 167.87 178.54 166.86 179.55 166.86 180.80 C 166.87 182.04 167.88 183.05 169.12 183.05 Z M 170.15 183.02 L 171.13 183.02 C 172.36 183.02 173.36 182.02 173.36 180.79 C 173.36 179.56 172.36 178.56 171.13 178.56 L 170.15 178.56 C 168.92 178.56 167.92 179.56 167.92 180.79 C 167.92 182.02 168.92 183.02 170.15 183.02 Z M 171.13 183.00 L 172.15 183.00 C 173.37 183.00 174.36 182.01 174.36 180.79 C 174.36 179.57 173.37 178.58 172.15 178.58 L 171.13 178.58 C 169.91 178.58 168.92 179.57 168.92 180.79 C 168.92 182.01 169.91 183.00 171.13 183.00 Z M 172.15 182.99 L 172.45 182.99 C 173.66 182.99 174.65 182.00 174.65 180.79 C 174.65 179.58 173.66 178.60 172.45 178.60 L 172.15 178.60 C 170.93 178.60 169.95 179.58 169.95 180.79 C 169.95 182.00 170.93 182.99 172.15 182.99 Z"
      fill="black"
      fill-rule="nonzero" /></svg>