<svg xmlns="http://www.w3.org/2000/svg" width="300" height="300" viewBox="0 0 300 300">
<path d="M 129.88 131.85 L 129.83 132.83 C 129.77 133.91 130.60 134.85 131.69 134.90 C 132.78 134.96 133.71 134.13 133.77 133.04 L 133.82 132.06 C 133.88 130.97 133.05 130.04 131.96 129.98 C 130.87 129.93 129.94 130.76 129.88 131.85 Z M 129.72 132.87 L 129.69 133.88 C 129.65 135.03 130.56 135.99 131.71 136.02 C 132.86 136.06 133.82 135.15 133.85 134.00 L 133.88 132.99 C 133.92 131.84 133.01 130.88 131.86 130.85 C 130.71 130.81 129.75 131.72 129.72 132.87 Z M 129.61 133.96 L 129.62 134.98 C 129.63 136.17 130.61 137.13 131.80 137.12 C 132.99 137.11 133.95 136.13 133.94 134.94 L 133.93 133.92 C 133.91 132.73 132.94 131.77 131.75 131.78 C 130.55 131.80 129.60 132.77 129.61 133.96 Z M 129.59 135.07 L 129.64 136.08 C 129.70 137.28 130.73 138.22 131.93 138.16 C 133.14 138.10 134.07 137.07 134.01 135.87 L 133.96 134.86 C 133.91 133.65 132.88 132.72 131.67 132.77 C 130.47 132.83 129.53 133.86 129.59 135.07 Z M 129.63 136.16 L 129.71 137.16 C 129.82 138.37 130.88 139.27 132.10 139.17 C 133.31 139.07 134.21 138.00 134.11 136.79 L 134.02 135.79 C 133.92 134.57 132.86 133.67 131.64 133.78 C 130.43 133.88 129.53 134.94 129.63 136.16 Z M 129.71 137.23 L 129.83 138.22 C 129.98 139.44 131.08 140.30 132.29 140.16 C 133.50 140.01 134.37 138.91 134.23 137.70 L 134.11 136.71 C 133.96 135.50 132.86 134.63 131.65 134.77 C 130.44 134.92 129.57 136.02 129.71 137.23 Z M 129.83 138.26 L 129.96 139.21 C 130.13 140.42 131.24 141.27 132.45 141.11 C 133.66 140.95 134.51 139.84 134.35 138.62 L 134.22 137.67 C 134.06 136.46 132.95 135.61 131.74 135.77 C 130.52 135.93 129.67 137.04 129.83 138.26 Z M 129.96 139.20 L 130.09 140.17 C 130.24 141.38 131.35 142.24 132.56 142.08 C 133.78 141.93 134.63 140.82 134.48 139.61 L 134.35 138.64 C 134.20 137.42 133.09 136.57 131.88 136.72 C 130.66 136.88 129.81 137.99 129.96 139.20 Z M 130.09 140.15 L 130.21 141.17 C 130.35 142.38 131.45 143.25 132.66 143.10 C 133.87 142.96 134.74 141.86 134.60 140.65 L 134.48 139.63 C 134.33 138.42 133.24 137.55 132.02 137.69 C 130.81 137.84 129.94 138.93 130.09 140.15 Z M 130.21 141.14 L 130.31 142.11 C 130.44 143.32 131.53 144.20 132.74 144.07 C 133.95 143.94 134.83 142.85 134.70 141.64 L 134.59 140.67 C 134.46 139.46 133.38 138.59 132.17 138.72 C 130.96 138.85 130.08 139.93 130.21 141.14 Z M 130.32 142.10 L 130.43 143.11 C 130.55 144.32 131.63 145.20 132.83 145.07 C 134.04 144.95 134.91 143.87 134.79 142.67 L 134.69 141.65 C 134.57 140.45 133.49 139.57 132.28 139.69 C 131.08 139.82 130.20 140.89 130.32 142.10 Z M 130.44 143.11 L 130.53 144.10 C 130.65 145.30 131.73 146.18 132.93 146.06 C 134.13 145.94 135.00 144.87 134.88 143.66 L 134.78 142.67 C 134.66 141.47 133.59 140.60 132.39 140.72 C 131.19 140.84 130.32 141.91 130.44 143.11 Z M 130.55 144.10 L 130.65 145.09 C 130.77 146.28 131.83 147.15 133.03 147.03 C 134.22 146.91 135.09 145.85 134.97 144.65 L 134.87 143.66 C 134.75 142.47 133.68 141.60 132.49 141.72 C 131.30 141.84 130.43 142.91 130.55 144.10 Z M 130.66 145.09 L 130.76 146.11 C 130.88 147.30 131.95 148.16 133.13 148.04 C 134.32 147.92 135.19 146.85 135.06 145.67 L 134.96 144.65 C 134.84 143.46 133.77 142.60 132.59 142.72 C 131.40 142.84 130.53 143.90 130.66 145.09 Z M 130.77 146.11 L 130.88 147.10 C 131.00 148.28 132.06 149.14 133.24 149.01 C 134.42 148.89 135.28 147.83 135.16 146.64 L 135.05 145.66 C 134.93 144.48 133.87 143.62 132.69 143.75 C 131.50 143.87 130.65 144.93 130.77 146.11 Z M 130.89 147.10 L 130.99 148.09 C 131.12 149.27 132.17 150.12 133.35 150.00 C 134.52 149.87 135.38 148.82 135.25 147.64 L 135.15 146.65 C 135.02 145.47 133.97 144.62 132.79 144.74 C 131.61 144.87 130.76 145.92 130.89 147.10 Z M 131.00 148.09 L 131.10 149.09 C 131.23 150.27 132.27 151.12 133.44 151.00 C 134.62 150.88 135.47 149.83 135.35 148.66 L 135.24 147.65 C 135.12 146.48 134.08 145.63 132.90 145.75 C 131.73 145.87 130.88 146.91 131.00 148.09 Z M 131.11 149.08 L 131.21 150.07 C 131.32 151.24 132.36 152.09 133.53 151.97 C 134.70 151.86 135.55 150.82 135.43 149.66 L 135.34 148.67 C 135.22 147.50 134.19 146.65 133.02 146.76 C 131.85 146.88 131.00 147.92 131.11 149.08 Z M 131.22 150.06 L 131.31 151.05 C 131.42 152.22 132.45 153.07 133.62 152.96 C 134.78 152.85 135.63 151.82 135.52 150.65 L 135.43 149.66 C 135.32 148.50 134.28 147.65 133.12 147.76 C 131.96 147.87 131.11 148.90 131.22 150.06 Z M 131.32 151.06 L 131.42 152.06 C 131.53 153.22 132.56 154.07 133.71 153.96 C 134.87 153.85 135.72 152.82 135.61 151.66 L 135.51 150.65 C 135.40 149.50 134.37 148.65 133.22 148.76 C 132.06 148.87 131.21 149.90 131.32 151.06 Z M 131.43 152.07 L 131.53 153.08 C 131.64 154.23 132.67 155.07 133.82 154.96 C 134.97 154.84 135.81 153.82 135.70 152.67 L 135.60 151.66 C 135.48 150.51 134.46 149.67 133.31 149.78 C 132.16 149.89 131.32 150.92 131.43 152.07 Z M 131.54 153.08 L 131.64 154.08 C 131.75 155.23 132.77 156.06 133.92 155.95 C 135.06 155.84 135.89 154.82 135.78 153.67 L 135.68 152.67 C 135.57 151.53 134.55 150.69 133.41 150.80 C 132.27 150.92 131.43 151.93 131.54 153.08 Z M 131.65 154.07 L 131.75 155.05 C 131.85 156.18 132.86 157.02 134.00 156.91 C 135.14 156.80 135.97 155.79 135.86 154.66 L 135.77 153.68 C 135.66 152.55 134.65 151.71 133.52 151.82 C 132.38 151.93 131.55 152.94 131.65 154.07 Z M 131.76 155.03 L 131.85 156.07 C 131.95 157.20 132.94 158.04 134.07 157.94 C 135.20 157.84 136.04 156.84 135.94 155.71 L 135.85 154.67 C 135.75 153.54 134.76 152.71 133.62 152.81 C 132.49 152.90 131.66 153.90 131.76 155.03 Z M 131.86 156.06 L 131.94 157.04 C 132.03 158.17 133.02 159.00 134.14 158.91 C 135.26 158.82 136.10 157.84 136.01 156.71 L 135.93 155.73 C 135.84 154.60 134.85 153.76 133.73 153.86 C 132.61 153.95 131.77 154.93 131.86 156.06 Z M 131.95 157.04 L 132.03 158.01 C 132.12 159.13 133.10 159.96 134.21 159.87 C 135.33 159.78 136.16 158.81 136.07 157.69 L 136.00 156.72 C 135.91 155.60 134.93 154.76 133.81 154.85 C 132.70 154.94 131.86 155.92 131.95 157.04 Z M 132.05 158.02 L 132.13 159.03 C 132.22 160.14 133.19 160.97 134.30 160.87 C 135.41 160.78 136.23 159.81 136.14 158.70 L 136.06 157.69 C 135.97 156.58 135.00 155.75 133.89 155.84 C 132.78 155.94 131.95 156.91 132.05 158.02 Z M 132.15 159.04 L 132.23 160.01 C 132.33 161.11 133.29 161.92 134.39 161.82 C 135.49 161.73 136.30 160.76 136.21 159.66 L 136.13 158.70 C 136.03 157.60 135.06 156.78 133.96 156.88 C 132.87 156.97 132.05 157.94 132.15 159.04 Z M 132.25 160.02 L 132.34 160.97 C 132.44 162.06 133.41 162.86 134.50 162.76 C 135.59 162.65 136.38 161.69 136.28 160.60 L 136.19 159.65 C 136.09 158.56 135.12 157.76 134.03 157.87 C 132.95 157.97 132.15 158.93 132.25 160.02 Z M 132.36 161.01 L 132.48 162.01 C 132.60 163.09 133.58 163.86 134.65 163.73 C 135.73 163.61 136.50 162.63 136.37 161.56 L 136.26 160.56 C 136.13 159.48 135.16 158.71 134.08 158.84 C 133.01 158.96 132.24 159.94 132.36 161.01 Z M 132.50 162.07 L 132.65 163.08 C 132.81 164.15 133.80 164.88 134.86 164.72 C 135.93 164.56 136.66 163.58 136.50 162.51 L 136.35 161.50 C 136.19 160.43 135.20 159.70 134.14 159.86 C 133.08 160.02 132.35 161.01 132.50 162.07 Z M 132.69 163.19 L 132.90 164.20 C 133.12 165.24 134.14 165.91 135.18 165.70 C 136.22 165.48 136.89 164.46 136.68 163.41 L 136.47 162.41 C 136.25 161.36 135.23 160.69 134.18 160.91 C 133.14 161.13 132.47 162.15 132.69 163.19 Z M 132.97 164.41 L 133.28 165.35 C 133.62 166.35 134.70 166.89 135.71 166.56 C 136.71 166.22 137.25 165.14 136.92 164.13 L 136.60 163.20 C 136.27 162.20 135.18 161.66 134.18 161.99 C 133.18 162.33 132.64 163.41 132.97 164.41 Z M 133.48 165.72 L 134.02 166.60 C 134.56 167.50 135.73 167.78 136.62 167.24 C 137.51 166.69 137.79 165.53 137.25 164.64 L 136.72 163.76 C 136.17 162.86 135.01 162.58 134.12 163.12 C 133.22 163.67 132.94 164.83 133.48 165.72 Z M 134.29 166.90 L 134.95 167.60 C 135.66 168.35 136.84 168.38 137.58 167.67 C 138.33 166.97 138.36 165.79 137.65 165.04 L 136.98 164.34 C 136.28 163.59 135.10 163.56 134.36 164.27 C 133.61 164.98 133.58 166.15 134.29 166.90 Z M 135.06 167.67 L 135.30 167.90 C 136.05 168.59 137.21 168.54 137.90 167.80 C 138.59 167.05 138.54 165.89 137.80 165.20 L 137.55 164.97 C 136.80 164.29 135.64 164.33 134.95 165.08 C 134.26 165.82 134.31 166.99 135.06 167.67 Z"
      fill="black"
      fill-rule="nonzero" /><path d="M 140.23 136.50 L 140.00 137.43 C 139.75 138.46 140.37 139.50 141.40 139.76 C 142.43 140.01 143.47 139.38 143.73 138.35 L 143.96 137.42 C 144.21 136.39 143.59 135.35 142.56 135.10 C 141.53 134.84 140.49 135.47 140.23 136.50 Z M 139.74 137.55 L 139.58 138.57 C 139.39 139.74 140.19 140.85 141.36 141.04 C 142.53 141.23 143.63 140.43 143.82 139.26 L 143.99 138.24 C 144.18 137.06 143.38 135.96 142.21 135.77 C 141.04 135.58 139.93 136.38 139.74 137.55 Z M 139.44 138.79 L 139.38 139.79 C 139.31 141.04 140.27 142.11 141.51 142.18 C 142.76 142.25 143.83 141.30 143.90 140.05 L 143.96 139.04 C 144.03 137.80 143.07 136.73 141.83 136.66 C 140.58 136.59 139.51 137.54 139.44 138.79 Z M 139.38 139.94 L 139.39 140.95 C 139.40 142.20 140.42 143.21 141.67 143.19 C 142.93 143.18 143.93 142.16 143.92 140.90 L 143.91 139.90 C 143.90 138.65 142.87 137.64 141.62 137.65 C 140.37 137.67 139.36 138.69 139.38 139.94 Z M 139.38 141.07 L 139.45 142.09 C 139.53 143.34 140.61 144.29 141.86 144.21 C 143.11 144.14 144.06 143.06 143.99 141.80 L 143.92 140.78 C 143.84 139.53 142.76 138.58 141.51 138.66 C 140.26 138.74 139.31 139.82 139.38 141.07 Z M 139.45 142.15 L 139.53 143.12 C 139.65 144.37 140.76 145.30 142.01 145.18 C 143.27 145.07 144.19 143.96 144.08 142.70 L 143.99 141.74 C 143.87 140.48 142.76 139.56 141.51 139.67 C 140.25 139.79 139.33 140.90 139.45 142.15 Z M 139.53 143.09 L 139.60 144.05 C 139.70 145.31 140.80 146.25 142.06 146.15 C 143.31 146.05 144.26 144.95 144.16 143.69 L 144.08 142.73 C 143.99 141.48 142.89 140.53 141.63 140.63 C 140.37 140.73 139.43 141.83 139.53 143.09 Z M 139.59 144.02 L 139.66 145.04 C 139.74 146.31 140.83 147.26 142.09 147.18 C 143.36 147.10 144.31 146.01 144.23 144.75 L 144.17 143.72 C 144.08 142.46 142.99 141.50 141.73 141.58 C 140.47 141.66 139.51 142.75 139.59 144.02 Z M 139.66 145.04 L 139.72 146.02 C 139.79 147.28 140.88 148.24 142.15 148.17 C 143.41 148.09 144.37 147.00 144.29 145.74 L 144.23 144.76 C 144.16 143.49 143.07 142.53 141.80 142.61 C 140.54 142.68 139.58 143.77 139.66 145.04 Z M 139.72 146.00 L 139.77 147.01 C 139.84 148.27 140.92 149.24 142.18 149.17 C 143.45 149.10 144.42 148.02 144.35 146.76 L 144.29 145.75 C 144.23 144.49 143.14 143.52 141.88 143.59 C 140.62 143.66 139.65 144.74 139.72 146.00 Z M 139.77 146.98 L 139.81 147.97 C 139.86 149.24 140.93 150.22 142.19 150.17 C 143.46 150.12 144.44 149.05 144.39 147.79 L 144.35 146.79 C 144.30 145.53 143.23 144.54 141.97 144.60 C 140.70 144.65 139.72 145.71 139.77 146.98 Z M 139.81 147.94 L 139.84 148.93 C 139.88 150.20 140.93 151.19 142.19 151.16 C 143.46 151.12 144.45 150.07 144.42 148.80 L 144.39 147.81 C 144.35 146.55 143.30 145.55 142.04 145.59 C 140.77 145.63 139.78 146.68 139.81 147.94 Z M 139.84 148.92 L 139.87 149.95 C 139.90 151.22 140.95 152.22 142.21 152.18 C 143.47 152.15 144.47 151.11 144.44 149.84 L 144.41 148.81 C 144.38 147.55 143.34 146.55 142.07 146.58 C 140.81 146.61 139.81 147.66 139.84 148.92 Z M 139.87 149.95 L 139.90 150.95 C 139.93 152.21 140.97 153.20 142.23 153.17 C 143.49 153.14 144.49 152.10 144.46 150.84 L 144.43 149.85 C 144.40 148.59 143.36 147.59 142.10 147.62 C 140.84 147.65 139.84 148.69 139.87 149.95 Z M 139.91 150.94 L 139.93 151.95 C 139.95 153.20 140.99 154.20 142.25 154.17 C 143.50 154.15 144.50 153.11 144.47 151.85 L 144.45 150.84 C 144.42 149.59 143.38 148.59 142.13 148.62 C 140.87 148.65 139.88 149.69 139.91 150.94 Z M 139.94 151.93 L 139.95 152.94 C 139.97 154.19 141.00 155.19 142.25 155.17 C 143.50 155.15 144.50 154.12 144.48 152.87 L 144.46 151.87 C 144.44 150.62 143.41 149.62 142.16 149.64 C 140.91 149.66 139.92 150.68 139.94 151.93 Z M 139.96 152.92 L 139.97 153.92 C 139.97 155.17 140.99 156.17 142.24 156.16 C 143.48 156.15 144.48 155.14 144.47 153.89 L 144.47 152.89 C 144.46 151.64 143.44 150.64 142.20 150.65 C 140.95 150.66 139.95 151.68 139.96 152.92 Z M 139.97 153.91 L 139.98 154.90 C 139.98 156.14 140.99 157.15 142.23 157.15 C 143.47 157.14 144.47 156.14 144.47 154.90 L 144.47 153.90 C 144.46 152.66 143.46 151.66 142.22 151.66 C 140.98 151.66 139.97 152.67 139.97 153.91 Z M 139.99 154.90 L 139.99 155.89 C 139.99 157.12 140.99 158.12 142.22 158.12 C 143.46 158.12 144.46 157.12 144.46 155.89 L 144.46 154.90 C 144.46 153.67 143.46 152.66 142.22 152.66 C 140.99 152.66 139.99 153.67 139.99 154.90 Z M 140.00 155.89 L 140.00 156.89 C 140.00 158.11 140.99 159.11 142.22 159.11 C 143.45 159.11 144.45 158.11 144.45 156.89 L 144.45 155.89 C 144.45 154.66 143.45 153.67 142.22 153.67 C 140.99 153.67 140.00 154.66 140.00 155.89 Z M 140.01 156.89 L 140.01 157.90 C 140.01 159.12 141.00 160.11 142.22 160.11 C 143.44 160.11 144.43 159.12 144.43 157.90 L 144.43 156.89 C 144.43 155.67 143.44 154.68 142.22 154.68 C 141.00 154.68 140.01 155.67 140.01 156.89 Z M 140.02 157.90 L 140.02 158.89 C 140.02 160.11 141.01 161.09 142.22 161.09 C 143.44 161.09 144.42 160.11 144.42 158.89 L 144.42 157.90 C 144.42 156.68 143.44 155.70 142.22 155.70 C 141.01 155.70 140.02 156.68 140.02 157.90 Z M 140.04 158.89 L 140.04 159.90 C 140.04 161.10 141.01 162.08 142.22 162.08 C 143.43 162.08 144.41 161.10 144.41 159.90 L 144.41 158.89 C 144.41 157.69 143.43 156.71 142.22 156.71 C 141.01 156.71 140.04 157.69 140.04 158.89 Z M 140.05 159.90 L 140.05 160.90 C 140.05 162.10 141.02 163.07 142.22 163.07 C 143.42 163.07 144.40 162.10 144.40 160.90 L 144.40 159.90 C 144.40 158.70 143.42 157.72 142.22 157.72 C 141.02 157.72 140.05 158.70 140.05 159.90 Z M 140.06 160.90 L 140.06 161.90 C 140.06 163.10 141.03 164.07 142.22 164.07 C 143.42 164.07 144.39 163.10 144.39 161.90 L 144.39 160.90 C 144.39 159.70 143.42 158.74 142.22 158.74 C 141.03 158.74 140.06 159.70 140.06 160.90 Z M 140.07 161.90 L 140.07 162.90 C 140.07 164.09 141.03 165.06 142.22 165.06 C 143.41 165.06 144.38 164.09 144.38 162.90 L 144.38 161.90 C 144.38 160.71 143.41 159.75 142.22 159.75 C 141.03 159.75 140.07 160.71 140.07 161.90 Z M 140.08 162.90 L 140.08 163.90 C 140.08 165.08 141.04 166.04 142.22 166.04 C 143.41 166.04 144.37 165.08 144.37 163.90 L 144.37 162.90 C 144.37 161.72 143.41 160.76 142.22 160.76 C 141.04 160.76 140.08 161.72 140.08 162.90 Z M 140.09 163.89 L 140.08 164.88 C 140.08 166.06 141.03 167.02 142.21 167.03 C 143.39 167.04 144.35 166.08 144.35 164.90 L 144.36 163.91 C 144.36 162.73 143.41 161.77 142.23 161.76 C 141.05 161.76 140.09 162.71 140.09 163.89 Z M 140.09 164.85 L 140.07 165.86 C 140.05 167.03 140.98 168.00 142.16 168.02 C 143.33 168.04 144.30 167.11 144.32 165.94 L 144.34 164.93 C 144.36 163.76 143.43 162.79 142.26 162.77 C 141.08 162.75 140.11 163.68 140.09 164.85 Z M 140.09 165.81 L 140.04 166.84 C 140.00 168.00 140.90 168.99 142.07 169.03 C 143.24 169.08 144.22 168.18 144.27 167.01 L 144.31 165.98 C 144.36 164.82 143.45 163.83 142.28 163.78 C 141.12 163.74 140.13 164.64 140.09 165.81 Z M 140.06 166.79 L 140.00 167.81 C 139.93 168.97 140.81 169.96 141.96 170.03 C 143.12 170.10 144.12 169.22 144.19 168.07 L 144.25 167.05 C 144.32 165.89 143.44 164.90 142.28 164.83 C 141.13 164.76 140.13 165.64 140.06 166.79 Z M 140.01 167.78 L 139.94 168.74 C 139.85 169.89 140.71 170.89 141.86 170.98 C 143.01 171.06 144.01 170.20 144.10 169.06 L 144.17 168.10 C 144.26 166.95 143.40 165.94 142.25 165.86 C 141.10 165.77 140.10 166.63 140.01 167.78 Z M 139.96 168.72 L 139.86 169.78 C 139.76 170.92 140.61 171.92 141.75 172.02 C 142.89 172.12 143.89 171.28 143.99 170.14 L 144.08 169.08 C 144.18 167.94 143.34 166.93 142.20 166.83 C 141.06 166.73 140.06 167.58 139.96 168.72 Z M 139.88 169.76 L 139.79 170.69 C 139.68 171.82 140.50 172.83 141.63 172.94 C 142.76 173.05 143.77 172.23 143.88 171.10 L 143.97 170.16 C 144.09 169.03 143.26 168.02 142.13 167.91 C 141.00 167.80 139.99 168.63 139.88 169.76 Z M 139.81 170.65 L 139.70 171.55 C 139.56 172.66 140.36 173.68 141.48 173.82 C 142.60 173.96 143.61 173.16 143.75 172.04 L 143.86 171.14 C 144.00 170.02 143.20 169.01 142.08 168.87 C 140.96 168.73 139.95 169.53 139.81 170.65 Z M 139.75 171.36 L 139.53 172.38 C 139.29 173.47 139.98 174.55 141.08 174.79 C 142.17 175.03 143.25 174.33 143.48 173.24 L 143.70 172.22 C 143.94 171.13 143.25 170.05 142.15 169.81 C 141.06 169.58 139.98 170.27 139.75 171.36 Z M 139.59 172.21 L 139.31 173.10 C 138.97 174.16 139.56 175.29 140.62 175.62 C 141.68 175.96 142.81 175.37 143.14 174.31 L 143.42 173.41 C 143.76 172.36 143.17 171.23 142.11 170.89 C 141.05 170.56 139.92 171.15 139.59 172.21 Z M 139.34 173.02 L 139.01 173.95 C 138.63 174.99 139.16 176.14 140.20 176.51 C 141.24 176.89 142.39 176.36 142.76 175.32 L 143.10 174.39 C 143.48 173.35 142.94 172.20 141.91 171.83 C 140.87 171.45 139.72 171.98 139.34 173.02 Z M 139.03 173.92 L 138.65 174.92 C 138.25 175.94 138.76 177.09 139.79 177.49 C 140.81 177.88 141.96 177.37 142.35 176.35 L 142.74 175.35 C 143.13 174.33 142.62 173.17 141.60 172.78 C 140.57 172.39 139.42 172.90 139.03 173.92 Z M 138.66 174.91 L 138.47 175.39 C 138.07 176.41 138.57 177.56 139.59 177.95 C 140.61 178.35 141.76 177.85 142.16 176.83 L 142.34 176.35 C 142.74 175.34 142.24 174.19 141.22 173.79 C 140.20 173.39 139.06 173.89 138.66 174.91 Z"
      fill="black"
      fill-rule="nonzero" /><path d="M 120.67 157.16 L 121.53 156.67 C 122.52 156.11 122.87 154.83 122.30 153.84 C 121.73 152.84 120.46 152.49 119.46 153.06 L 118.61 153.55 C 117.61 154.12 117.27 155.39 117.84 156.38 C 118.41 157.38 119.68 157.73 120.67 157.16 Z M 121.36 156.88 L 122.29 156.48 C 123.40 156.00 123.91 154.71 123.44 153.60 C 122.96 152.49 121.68 151.98 120.57 152.46 L 119.63 152.86 C 118.52 153.34 118.01 154.62 118.49 155.73 C 118.96 156.84 120.25 157.35 121.36 156.88 Z M 121.97 156.64 L 122.96 156.39 C 124.16 156.10 124.89 154.88 124.59 153.68 C 124.29 152.48 123.08 151.75 121.87 152.05 L 120.89 152.29 C 119.69 152.59 118.96 153.81 119.25 155.01 C 119.55 156.21 120.77 156.94 121.97 156.64 Z M 122.75 156.44 L 123.73 156.29 C 124.96 156.11 125.80 154.96 125.62 153.74 C 125.43 152.51 124.28 151.67 123.06 151.85 L 122.08 152.00 C 120.85 152.18 120.01 153.33 120.20 154.56 C 120.38 155.78 121.53 156.63 122.75 156.44 Z M 123.64 156.30 L 124.65 156.19 C 125.88 156.06 126.77 154.95 126.63 153.72 C 126.50 152.48 125.39 151.60 124.16 151.73 L 123.15 151.84 C 121.92 151.98 121.03 153.09 121.16 154.32 C 121.30 155.55 122.41 156.44 123.64 156.30 Z M 124.64 156.18 L 125.60 156.08 C 126.82 155.94 127.71 154.85 127.58 153.62 C 127.45 152.40 126.35 151.51 125.13 151.64 L 124.17 151.74 C 122.94 151.88 122.06 152.97 122.19 154.20 C 122.32 155.42 123.41 156.31 124.64 156.18 Z M 125.64 156.05 L 126.62 155.92 C 127.83 155.77 128.68 154.67 128.53 153.46 C 128.38 152.25 127.27 151.39 126.06 151.55 L 125.08 151.67 C 123.87 151.82 123.02 152.93 123.17 154.14 C 123.33 155.35 124.43 156.20 125.64 156.05 Z M 126.63 155.90 L 127.64 155.76 C 128.83 155.60 129.67 154.50 129.51 153.31 C 129.35 152.12 128.25 151.28 127.06 151.44 L 126.05 151.57 C 124.86 151.73 124.02 152.83 124.18 154.02 C 124.34 155.22 125.44 156.06 126.63 155.90 Z M 127.64 155.74 L 128.62 155.60 C 129.80 155.44 130.63 154.36 130.47 153.18 C 130.31 152.00 129.22 151.17 128.04 151.33 L 127.06 151.46 C 125.88 151.62 125.05 152.71 125.21 153.89 C 125.37 155.07 126.46 155.90 127.64 155.74 Z M 128.63 155.58 L 129.62 155.44 C 130.79 155.28 131.60 154.20 131.44 153.03 C 131.28 151.86 130.20 151.05 129.03 151.21 L 128.03 151.35 C 126.87 151.52 126.05 152.60 126.22 153.76 C 126.38 154.93 127.46 155.74 128.63 155.58 Z M 129.63 155.42 L 130.61 155.27 C 131.76 155.10 132.56 154.03 132.39 152.88 C 132.22 151.72 131.15 150.93 130.00 151.09 L 129.02 151.24 C 127.87 151.41 127.07 152.48 127.24 153.63 C 127.41 154.79 128.48 155.59 129.63 155.42 Z M 130.61 155.25 L 131.62 155.10 C 132.76 154.94 133.55 153.88 133.39 152.73 C 133.22 151.59 132.16 150.80 131.02 150.97 L 130.00 151.12 C 128.86 151.28 128.07 152.34 128.24 153.49 C 128.40 154.63 129.46 155.42 130.61 155.25 Z M 131.61 155.08 L 132.58 154.94 C 133.71 154.78 134.50 153.74 134.34 152.61 C 134.18 151.48 133.13 150.69 132.00 150.85 L 131.03 150.99 C 129.90 151.15 129.11 152.20 129.27 153.33 C 129.43 154.45 130.48 155.24 131.61 155.08 Z M 132.58 154.91 L 133.58 154.77 C 134.69 154.61 135.47 153.58 135.31 152.46 C 135.15 151.35 134.11 150.58 133.00 150.74 L 132.00 150.88 C 130.89 151.04 130.12 152.07 130.28 153.19 C 130.44 154.30 131.47 155.07 132.58 154.91 Z M 133.59 154.74 L 134.59 154.59 C 135.68 154.42 136.43 153.40 136.27 152.30 C 136.10 151.21 135.08 150.45 133.98 150.62 L 132.99 150.77 C 131.89 150.94 131.14 151.96 131.31 153.05 C 131.47 154.15 132.50 154.90 133.59 154.74 Z M 134.60 154.55 L 135.59 154.39 C 136.67 154.22 137.40 153.20 137.22 152.12 C 137.05 151.05 136.03 150.32 134.96 150.49 L 133.97 150.65 C 132.89 150.83 132.16 151.84 132.33 152.92 C 132.51 154.00 133.52 154.73 134.60 154.55 Z M 135.61 154.36 L 136.59 154.19 C 137.65 154.01 138.36 153.00 138.18 151.94 C 137.99 150.88 136.98 150.17 135.93 150.35 L 134.94 150.52 C 133.88 150.71 133.17 151.71 133.36 152.77 C 133.54 153.83 134.55 154.54 135.61 154.36 Z M 136.61 154.16 L 137.58 153.98 C 138.62 153.79 139.31 152.79 139.12 151.74 C 138.93 150.70 137.93 150.01 136.88 150.20 L 135.91 150.38 C 134.87 150.58 134.18 151.58 134.37 152.62 C 134.56 153.66 135.56 154.35 136.61 154.16 Z M 137.60 153.95 L 138.59 153.75 C 139.61 153.55 140.28 152.55 140.07 151.53 C 139.87 150.50 138.87 149.83 137.85 150.04 L 136.86 150.23 C 135.84 150.44 135.17 151.44 135.38 152.46 C 135.58 153.49 136.58 154.15 137.60 153.95 Z M 138.61 153.72 L 139.60 153.51 C 140.61 153.29 141.25 152.30 141.04 151.29 C 140.82 150.28 139.82 149.64 138.82 149.85 L 137.82 150.07 C 136.81 150.29 136.17 151.28 136.39 152.29 C 136.61 153.30 137.60 153.94 138.61 153.72 Z M 139.62 153.48 L 140.61 153.25 C 141.60 153.02 142.22 152.03 141.99 151.04 C 141.77 150.05 140.78 149.43 139.78 149.66 L 138.80 149.88 C 137.80 150.11 137.18 151.10 137.41 152.09 C 137.64 153.09 138.63 153.71 139.62 153.48 Z M 140.62 153.23 L 141.59 153.00 C 142.57 152.76 143.17 151.78 142.94 150.80 C 142.70 149.82 141.71 149.21 140.73 149.45 L 139.77 149.68 C 138.79 149.92 138.19 150.90 138.42 151.88 C 138.66 152.86 139.64 153.46 140.62 153.23 Z M 141.60 152.98 L 142.59 152.73 C 143.56 152.49 144.15 151.51 143.91 150.54 C 143.66 149.57 142.68 148.97 141.71 149.22 L 140.72 149.46 C 139.75 149.71 139.16 150.69 139.40 151.66 C 139.64 152.63 140.63 153.22 141.60 152.98 Z M 142.59 152.73 L 143.53 152.49 C 144.50 152.24 145.08 151.26 144.84 150.29 C 144.59 149.32 143.61 148.74 142.64 148.99 L 141.70 149.23 C 140.73 149.47 140.15 150.46 140.40 151.42 C 140.64 152.39 141.63 152.97 142.59 152.73 Z"
      fill="black"
      fill-rule="nonzero" /><path d="M 154.89 125.69 L 155.76 125.84 C 156.89 126.02 157.96 125.26 158.14 124.12 C 158.33 122.99 157.56 121.93 156.43 121.74 L 155.56 121.60 C 154.43 121.42 153.36 122.18 153.17 123.31 C 152.99 124.44 153.76 125.51 154.89 125.69 Z M 155.86 125.99 L 156.92 126.10 C 158.13 126.23 159.22 125.35 159.35 124.14 C 159.48 122.92 158.60 121.83 157.39 121.70 L 156.33 121.59 C 155.11 121.46 154.02 122.34 153.90 123.56 C 153.77 124.77 154.65 125.86 155.86 125.99 Z M 157.04 126.20 L 158.07 126.24 C 159.34 126.30 160.41 125.32 160.47 124.06 C 160.53 122.79 159.55 121.72 158.28 121.66 L 157.26 121.61 C 155.99 121.55 154.92 122.53 154.86 123.80 C 154.80 125.06 155.78 126.14 157.04 126.20 Z M 158.14 126.26 L 159.18 126.28 C 160.46 126.31 161.51 125.29 161.54 124.01 C 161.56 122.73 160.54 121.68 159.26 121.65 L 158.22 121.64 C 156.94 121.61 155.89 122.63 155.86 123.91 C 155.84 125.19 156.86 126.24 158.14 126.26 Z M 159.21 126.29 L 160.22 126.29 C 161.50 126.30 162.55 125.26 162.55 123.98 C 162.56 122.70 161.52 121.66 160.24 121.65 L 159.23 121.65 C 157.95 121.64 156.91 122.68 156.90 123.96 C 156.90 125.24 157.93 126.28 159.21 126.29 Z M 160.23 126.30 L 161.32 126.30 C 162.60 126.29 163.64 125.25 163.64 123.97 C 163.64 122.69 162.60 121.65 161.32 121.65 L 160.23 121.65 C 158.95 121.65 157.91 122.69 157.91 123.97 C 157.91 125.26 158.95 126.30 160.23 126.30 Z M 161.34 126.30 L 162.29 126.29 C 163.57 126.27 164.60 125.22 164.59 123.94 C 164.57 122.66 163.52 121.63 162.24 121.64 L 161.29 121.65 C 160.01 121.66 158.98 122.71 158.99 124.00 C 159.01 125.28 160.06 126.31 161.34 126.30 Z M 162.35 126.29 L 163.27 126.25 C 164.55 126.21 165.56 125.13 165.51 123.85 C 165.46 122.56 164.39 121.56 163.10 121.61 L 162.18 121.64 C 160.90 121.69 159.89 122.76 159.94 124.05 C 159.99 125.33 161.06 126.33 162.35 126.29 Z M 163.35 126.25 L 164.35 126.18 C 165.63 126.09 166.60 124.98 166.51 123.70 C 166.42 122.42 165.31 121.46 164.04 121.55 L 163.03 121.61 C 161.75 121.70 160.78 122.81 160.87 124.09 C 160.96 125.37 162.07 126.33 163.35 126.25 Z M 164.43 126.17 L 165.43 126.06 C 166.70 125.93 167.63 124.79 167.49 123.52 C 167.36 122.25 166.22 121.32 164.95 121.45 L 163.95 121.56 C 162.68 121.69 161.76 122.83 161.89 124.10 C 162.02 125.37 163.16 126.30 164.43 126.17 Z M 165.50 126.05 L 166.49 125.92 C 167.75 125.75 168.64 124.58 168.47 123.32 C 168.30 122.05 167.14 121.17 165.87 121.34 L 164.88 121.47 C 163.62 121.64 162.73 122.80 162.90 124.07 C 163.07 125.33 164.23 126.22 165.50 126.05 Z M 166.53 125.90 L 167.51 125.75 C 168.76 125.56 169.62 124.38 169.43 123.13 C 169.24 121.87 168.07 121.01 166.81 121.20 L 165.83 121.35 C 164.57 121.54 163.71 122.72 163.90 123.97 C 164.10 125.23 165.27 126.09 166.53 125.90 Z M 167.53 125.73 L 168.52 125.57 C 169.77 125.37 170.61 124.19 170.41 122.94 C 170.20 121.69 169.02 120.85 167.78 121.05 L 166.79 121.22 C 165.54 121.42 164.69 122.60 164.90 123.85 C 165.10 125.09 166.28 125.94 167.53 125.73 Z M 168.53 125.55 L 169.52 125.38 C 170.76 125.17 171.59 124.00 171.38 122.76 C 171.17 121.52 169.99 120.69 168.75 120.90 L 167.76 121.07 C 166.53 121.28 165.69 122.46 165.91 123.70 C 166.12 124.94 167.30 125.77 168.53 125.55 Z M 169.52 125.37 L 170.51 125.19 C 171.74 124.98 172.56 123.81 172.35 122.59 C 172.14 121.36 170.97 120.54 169.74 120.75 L 168.75 120.92 C 167.53 121.13 166.70 122.30 166.92 123.53 C 167.13 124.76 168.30 125.58 169.52 125.37 Z M 170.50 125.18 L 171.49 125.01 C 172.71 124.81 173.53 123.65 173.32 122.44 C 173.12 121.22 171.97 120.40 170.75 120.60 L 169.76 120.77 C 168.54 120.97 167.72 122.12 167.92 123.34 C 168.12 124.56 169.28 125.38 170.50 125.18 Z M 171.47 124.99 L 172.46 124.83 C 173.67 124.64 174.49 123.50 174.30 122.29 C 174.10 121.08 172.96 120.26 171.75 120.46 L 170.76 120.62 C 169.56 120.81 168.74 121.95 168.93 123.16 C 169.13 124.37 170.27 125.19 171.47 124.99 Z M 172.47 124.81 L 173.45 124.65 C 174.64 124.45 175.45 123.32 175.25 122.12 C 175.06 120.93 173.93 120.12 172.73 120.32 L 171.75 120.48 C 170.55 120.68 169.74 121.81 169.94 123.01 C 170.14 124.20 171.27 125.01 172.47 124.81 Z M 173.46 124.62 L 174.44 124.45 C 175.62 124.25 176.41 123.12 176.21 121.94 C 176.00 120.76 174.88 119.96 173.69 120.17 L 172.72 120.34 C 171.53 120.55 170.74 121.67 170.95 122.86 C 171.15 124.04 172.28 124.83 173.46 124.62 Z M 174.43 124.43 L 175.42 124.27 C 176.59 124.07 177.38 122.96 177.18 121.79 C 176.99 120.61 175.87 119.82 174.70 120.02 L 173.71 120.19 C 172.54 120.39 171.75 121.50 171.95 122.67 C 172.14 123.84 173.25 124.63 174.43 124.43 Z M 175.39 124.25 L 176.39 124.09 C 177.56 123.91 178.35 122.82 178.17 121.66 C 177.99 120.50 176.90 119.70 175.74 119.88 L 174.74 120.04 C 173.57 120.22 172.78 121.31 172.96 122.47 C 173.14 123.63 174.23 124.43 175.39 124.25 Z M 176.39 124.07 L 177.37 123.92 C 178.52 123.74 179.30 122.67 179.13 121.52 C 178.95 120.37 177.88 119.58 176.73 119.76 L 175.75 119.91 C 174.60 120.09 173.81 121.16 173.99 122.31 C 174.17 123.45 175.24 124.24 176.39 124.07 Z M 177.39 123.89 L 178.34 123.73 C 179.47 123.54 180.24 122.47 180.05 121.33 C 179.85 120.20 178.78 119.44 177.65 119.63 L 176.70 119.79 C 175.57 119.98 174.81 121.05 175.00 122.18 C 175.19 123.32 176.26 124.08 177.39 123.89 Z M 178.36 123.70 L 179.35 123.52 C 180.46 123.32 181.21 122.25 181.00 121.13 C 180.80 120.01 179.73 119.27 178.61 119.47 L 177.63 119.65 C 176.51 119.86 175.77 120.93 175.97 122.05 C 176.17 123.17 177.25 123.91 178.36 123.70 Z M 179.34 123.51 L 180.31 123.33 C 181.42 123.13 182.15 122.07 181.95 120.96 C 181.75 119.85 180.69 119.12 179.58 119.32 L 178.61 119.49 C 177.50 119.69 176.77 120.76 176.97 121.86 C 177.17 122.97 178.23 123.71 179.34 123.51 Z M 180.26 123.32 L 181.26 123.16 C 182.36 122.99 183.11 121.96 182.94 120.85 C 182.77 119.75 181.73 118.99 180.63 119.17 L 179.63 119.33 C 178.53 119.50 177.77 120.54 177.95 121.64 C 178.12 122.74 179.16 123.50 180.26 123.32 Z M 181.16 123.16 L 182.19 123.05 C 183.29 122.93 184.09 121.95 183.97 120.84 C 183.85 119.74 182.86 118.94 181.76 119.06 L 180.73 119.17 C 179.63 119.29 178.83 120.28 178.95 121.38 C 179.06 122.48 180.05 123.28 181.16 123.16 Z M 182.04 123.04 L 183.05 123.01 C 184.15 122.97 185.01 122.06 184.98 120.96 C 184.94 119.86 184.02 119.00 182.93 119.04 L 181.91 119.07 C 180.81 119.11 179.95 120.02 179.99 121.12 C 180.02 122.22 180.94 123.08 182.04 123.04 Z M 182.94 122.98 L 183.93 123.00 C 185.01 123.03 185.91 122.18 185.94 121.10 C 185.97 120.02 185.11 119.12 184.03 119.09 L 183.04 119.07 C 181.96 119.04 181.06 119.89 181.04 120.97 C 181.01 122.05 181.86 122.95 182.94 122.98 Z M 183.89 122.98 L 184.56 123.01 C 185.63 123.06 186.54 122.24 186.59 121.18 C 186.64 120.11 185.82 119.21 184.76 119.15 L 184.08 119.12 C 183.01 119.07 182.11 119.89 182.06 120.95 C 182.00 122.02 182.82 122.93 183.89 122.98 Z"
      fill="black"
      fill-rule="nonzero" /><path d="M 165.24 123.64 L 164.20 123.62 C 163.11 123.60 162.20 124.46 162.18 125.56 C 162.15 126.66 163.02 127.56 164.12 127.59 L 165.15 127.61 C 166.25 127.63 167.16 126.76 167.18 125.67 C 167.20 124.57 166.33 123.66 165.24 123.64 Z M 162.60 124.25 L 162.07 124.86 C 161.32 125.72 161.42 127.03 162.28 127.78 C 163.15 128.52 164.45 128.43 165.20 127.57 L 165.73 126.96 C 166.48 126.09 166.38 124.78 165.52 124.04 C 164.65 123.29 163.34 123.38 162.60 124.25 Z M 161.54 125.90 L 161.38 126.97 C 161.21 128.13 162.01 129.20 163.17 129.37 C 164.33 129.54 165.41 128.74 165.58 127.58 L 165.74 126.52 C 165.90 125.36 165.10 124.28 163.94 124.11 C 162.78 123.94 161.71 124.75 161.54 125.90 Z M 161.34 127.10 L 161.27 128.06 C 161.17 129.24 162.05 130.27 163.24 130.37 C 164.42 130.46 165.45 129.58 165.54 128.40 L 165.62 127.44 C 165.71 126.26 164.83 125.23 163.65 125.14 C 162.47 125.04 161.44 125.92 161.34 127.10 Z M 161.26 128.12 L 161.20 129.17 C 161.14 130.35 162.05 131.37 163.24 131.43 C 164.42 131.49 165.43 130.58 165.50 129.39 L 165.55 128.34 C 165.62 127.16 164.70 126.14 163.52 126.08 C 162.33 126.02 161.32 126.93 161.26 128.12 Z M 161.20 129.21 L 161.16 130.23 C 161.12 131.42 162.06 132.41 163.24 132.45 C 164.43 132.49 165.43 131.56 165.47 130.37 L 165.50 129.35 C 165.54 128.16 164.61 127.17 163.42 127.13 C 162.23 127.09 161.24 128.02 161.20 129.21 Z M 161.16 130.24 L 161.13 131.23 C 161.10 132.42 162.04 133.41 163.23 133.45 C 164.42 133.48 165.41 132.54 165.44 131.35 L 165.47 130.36 C 165.50 129.17 164.56 128.18 163.37 128.14 C 162.18 128.11 161.19 129.05 161.16 130.24 Z M 161.13 131.22 L 161.10 132.25 C 161.06 133.44 161.99 134.44 163.18 134.48 C 164.37 134.52 165.37 133.59 165.41 132.40 L 165.44 131.36 C 165.48 130.17 164.55 129.18 163.36 129.14 C 162.17 129.10 161.17 130.03 161.13 131.22 Z M 161.10 132.24 L 161.06 133.20 C 161.02 134.39 161.94 135.39 163.13 135.44 C 164.32 135.48 165.32 134.56 165.37 133.37 L 165.41 132.41 C 165.46 131.22 164.53 130.22 163.34 130.17 C 162.15 130.12 161.15 131.05 161.10 132.24 Z M 161.06 133.20 L 161.03 134.17 C 160.98 135.36 161.91 136.36 163.10 136.40 C 164.29 136.45 165.29 135.52 165.33 134.33 L 165.37 133.37 C 165.42 132.18 164.49 131.17 163.30 131.13 C 162.11 131.08 161.11 132.01 161.06 133.20 Z M 161.03 134.18 L 160.99 135.21 C 160.95 136.40 161.88 137.39 163.07 137.43 C 164.26 137.47 165.26 136.54 165.30 135.35 L 165.33 134.32 C 165.37 133.13 164.44 132.13 163.25 132.10 C 162.06 132.06 161.07 132.99 161.03 134.18 Z M 160.99 135.22 L 160.97 136.18 C 160.93 137.37 161.87 138.36 163.06 138.39 C 164.25 138.43 165.24 137.49 165.27 136.30 L 165.30 135.34 C 165.33 134.15 164.39 133.16 163.21 133.12 C 162.02 133.09 161.03 134.03 160.99 135.22 Z M 160.97 136.18 L 160.94 137.21 C 160.91 138.40 161.85 139.39 163.04 139.42 C 164.23 139.45 165.21 138.51 165.24 137.32 L 165.27 136.30 C 165.30 135.11 164.36 134.12 163.17 134.09 C 161.99 134.06 161.00 135.00 160.97 136.18 Z M 160.94 137.21 L 160.91 138.20 C 160.88 139.39 161.82 140.38 163.01 140.41 C 164.20 140.44 165.19 139.50 165.22 138.31 L 165.24 137.32 C 165.28 136.14 164.34 135.15 163.15 135.12 C 161.96 135.08 160.97 136.02 160.94 137.21 Z M 160.91 138.20 L 160.89 139.20 C 160.85 140.39 161.79 141.38 162.98 141.41 C 164.17 141.44 165.16 140.51 165.19 139.32 L 165.22 138.32 C 165.25 137.13 164.31 136.14 163.13 136.11 C 161.94 136.07 160.95 137.01 160.91 138.20 Z M 160.89 139.20 L 160.86 140.21 C 160.83 141.40 161.76 142.39 162.95 142.42 C 164.14 142.46 165.13 141.52 165.16 140.33 L 165.19 139.32 C 165.22 138.13 164.29 137.14 163.10 137.11 C 161.91 137.08 160.92 138.01 160.89 139.20 Z M 160.86 140.21 L 160.83 141.20 C 160.80 142.39 161.73 143.38 162.92 143.41 C 164.11 143.45 165.10 142.51 165.13 141.32 L 165.16 140.33 C 165.19 139.15 164.26 138.16 163.07 138.12 C 161.88 138.09 160.89 139.03 160.86 140.21 Z M 160.83 141.19 L 160.80 142.20 C 160.76 143.39 161.70 144.38 162.88 144.42 C 164.07 144.46 165.06 143.52 165.10 142.34 L 165.13 141.33 C 165.17 140.14 164.24 139.15 163.05 139.11 C 161.86 139.07 160.87 140.01 160.83 141.19 Z M 160.80 142.19 L 160.77 143.18 C 160.72 144.37 161.65 145.37 162.84 145.41 C 164.02 145.45 165.02 144.53 165.06 143.34 L 165.10 142.35 C 165.14 141.16 164.22 140.16 163.03 140.12 C 161.84 140.08 160.85 141.00 160.80 142.19 Z M 160.77 143.18 L 160.73 144.17 C 160.68 145.35 161.61 146.35 162.79 146.40 C 163.98 146.45 164.97 145.52 165.02 144.34 L 165.06 143.35 C 165.11 142.16 164.18 141.16 163.00 141.12 C 161.81 141.07 160.82 141.99 160.77 143.18 Z M 160.73 144.17 L 160.69 145.19 C 160.65 146.37 161.57 147.37 162.76 147.41 C 163.94 147.46 164.94 146.53 164.98 145.35 L 165.02 144.33 C 165.06 143.15 164.14 142.15 162.96 142.11 C 161.77 142.07 160.78 142.99 160.73 144.17 Z M 160.70 145.20 L 160.66 146.19 C 160.63 147.38 161.55 148.37 162.74 148.40 C 163.92 148.44 164.91 147.51 164.95 146.33 L 164.98 145.34 C 165.02 144.16 164.09 143.17 162.91 143.13 C 161.72 143.09 160.73 144.02 160.70 145.20 Z M 160.67 146.21 L 160.64 147.20 C 160.61 148.38 161.54 149.37 162.72 149.40 C 163.90 149.43 164.89 148.50 164.92 147.32 L 164.94 146.32 C 164.97 145.14 164.04 144.15 162.86 144.12 C 161.68 144.09 160.70 145.02 160.67 146.21 Z M 160.64 147.21 L 160.62 148.22 C 160.59 149.40 161.53 150.38 162.71 150.41 C 163.89 150.43 164.87 149.50 164.89 148.32 L 164.91 147.31 C 164.94 146.13 164.01 145.15 162.83 145.12 C 161.65 145.10 160.67 146.03 160.64 147.21 Z M 160.62 148.23 L 160.60 149.23 C 160.58 150.40 161.51 151.38 162.69 151.40 C 163.87 151.43 164.84 150.49 164.87 149.31 L 164.89 148.31 C 164.91 147.14 163.98 146.16 162.80 146.14 C 161.62 146.11 160.65 147.05 160.62 148.23 Z M 160.61 149.23 L 160.59 150.23 C 160.57 151.40 161.50 152.37 162.68 152.40 C 163.85 152.42 164.82 151.48 164.85 150.31 L 164.86 149.31 C 164.89 148.13 163.95 147.16 162.78 147.14 C 161.60 147.12 160.63 148.05 160.61 149.23 Z M 160.59 150.23 L 160.57 151.23 C 160.55 152.40 161.48 153.37 162.66 153.40 C 163.83 153.42 164.80 152.49 164.82 151.31 L 164.84 150.31 C 164.86 149.13 163.93 148.17 162.76 148.14 C 161.58 148.12 160.62 149.05 160.59 150.23 Z M 160.58 151.23 L 160.56 152.22 C 160.53 153.39 161.46 154.36 162.63 154.38 C 163.80 154.41 164.77 153.48 164.80 152.31 L 164.82 151.31 C 164.84 150.14 163.91 149.18 162.74 149.15 C 161.57 149.13 160.60 150.06 160.58 151.23 Z M 160.56 152.22 L 160.54 153.21 C 160.52 154.38 161.44 155.35 162.61 155.37 C 163.78 155.40 164.74 154.47 164.77 153.30 L 164.79 152.31 C 164.82 151.14 163.89 150.18 162.72 150.15 C 161.56 150.13 160.59 151.05 160.56 152.22 Z M 160.55 153.21 L 160.52 154.22 C 160.50 155.38 161.42 156.35 162.59 156.37 C 163.75 156.40 164.72 155.48 164.74 154.31 L 164.76 153.30 C 164.79 152.14 163.87 151.17 162.70 151.15 C 161.54 151.12 160.57 152.05 160.55 153.21 Z M 160.53 154.22 L 160.51 155.24 C 160.48 156.40 161.40 157.36 162.56 157.39 C 163.73 157.41 164.69 156.49 164.72 155.33 L 164.74 154.31 C 164.76 153.15 163.84 152.18 162.68 152.16 C 161.52 152.13 160.55 153.05 160.53 154.22 Z M 160.51 155.24 L 160.49 156.26 C 160.46 157.42 161.38 158.38 162.55 158.41 C 163.71 158.43 164.67 157.51 164.69 156.35 L 164.71 155.33 C 164.74 154.17 163.82 153.20 162.65 153.18 C 161.49 153.16 160.53 154.08 160.51 155.24 Z M 160.49 156.27 L 160.47 157.27 C 160.45 158.43 161.37 159.39 162.53 159.41 C 163.70 159.43 164.65 158.50 164.67 157.34 L 164.69 156.34 C 164.71 155.18 163.79 154.22 162.63 154.20 C 161.47 154.18 160.51 155.10 160.49 156.27 Z M 160.47 157.28 L 160.46 158.27 C 160.44 159.43 161.37 160.38 162.53 160.40 C 163.69 160.42 164.65 159.49 164.66 158.33 L 164.67 157.33 C 164.69 156.17 163.76 155.22 162.60 155.20 C 161.44 155.19 160.48 156.11 160.47 157.28 Z M 160.46 158.28 L 160.45 159.32 C 160.44 160.48 161.38 161.43 162.54 161.43 C 163.70 161.44 164.65 160.51 164.65 159.35 L 164.66 158.31 C 164.67 157.15 163.73 156.20 162.57 156.19 C 161.41 156.19 160.46 157.12 160.46 158.28 Z M 160.45 159.33 L 160.45 160.30 C 160.44 161.46 161.38 162.40 162.55 162.40 C 163.71 162.41 164.65 161.47 164.65 160.30 L 164.65 159.34 C 164.66 158.17 163.72 157.23 162.56 157.23 C 161.39 157.23 160.45 158.17 160.45 159.33 Z M 160.45 160.30 L 160.45 161.29 C 160.45 162.45 161.39 163.39 162.55 163.39 C 163.71 163.39 164.65 162.45 164.65 161.29 L 164.65 160.30 C 164.65 159.14 163.71 158.20 162.55 158.20 C 161.39 158.20 160.45 159.14 160.45 160.30 Z M 160.44 161.29 L 160.44 162.30 C 160.44 163.46 161.39 164.40 162.55 164.40 C 163.71 164.40 164.66 163.46 164.66 162.30 L 164.66 161.29 C 164.66 160.13 163.71 159.18 162.55 159.18 C 161.39 159.18 160.44 160.13 160.44 161.29 Z M 160.44 162.30 L 160.44 163.28 C 160.44 164.44 161.38 165.39 162.55 165.39 C 163.71 165.39 164.66 164.44 164.66 163.28 L 164.66 162.30 C 164.66 161.13 163.71 160.19 162.55 160.19 C 161.38 160.19 160.44 161.13 160.44 162.30 Z M 160.44 163.28 L 160.44 164.29 C 160.44 165.46 161.38 166.41 162.55 166.41 C 163.72 166.41 164.66 165.46 164.66 164.29 L 164.66 163.28 C 164.66 162.11 163.72 161.16 162.55 161.16 C 161.38 161.16 160.44 162.11 160.44 163.28 Z M 160.43 164.29 L 160.43 165.28 C 160.43 166.45 161.38 167.39 162.55 167.39 C 163.72 167.39 164.66 166.45 164.66 165.28 L 164.66 164.29 C 164.66 163.13 163.72 162.18 162.55 162.18 C 161.38 162.18 160.43 163.13 160.43 164.29 Z M 160.43 165.28 L 160.43 166.30 C 160.44 167.47 161.39 168.41 162.56 168.41 C 163.73 168.41 164.67 167.46 164.67 166.29 L 164.67 165.27 C 164.66 164.10 163.71 163.16 162.54 163.16 C 161.37 163.16 160.43 164.11 160.43 165.28 Z M 160.43 166.35 L 160.46 167.34 C 160.49 168.51 161.47 169.44 162.64 169.40 C 163.81 169.37 164.74 168.39 164.70 167.22 L 164.67 166.23 C 164.64 165.06 163.66 164.14 162.49 164.17 C 161.32 164.20 160.40 165.18 160.43 166.35 Z M 160.46 167.46 L 160.55 168.45 C 160.65 169.62 161.68 170.49 162.85 170.39 C 164.02 170.29 164.88 169.26 164.78 168.09 L 164.70 167.10 C 164.60 165.93 163.57 165.06 162.40 165.16 C 161.23 165.26 160.36 166.29 160.46 167.46 Z M 160.56 168.57 L 160.69 169.56 C 160.86 170.72 161.94 171.53 163.10 171.37 C 164.27 171.20 165.08 170.12 164.91 168.96 L 164.78 167.97 C 164.61 166.81 163.53 166.00 162.37 166.16 C 161.20 166.33 160.39 167.40 160.56 168.57 Z M 160.70 169.63 L 160.87 170.58 C 161.08 171.74 162.18 172.51 163.34 172.31 C 164.51 172.10 165.28 171.00 165.08 169.83 L 164.91 168.89 C 164.70 167.72 163.59 166.95 162.43 167.15 C 161.27 167.36 160.50 168.47 160.70 169.63 Z M 160.88 170.66 L 161.10 171.65 C 161.35 172.80 162.48 173.53 163.64 173.28 C 164.79 173.03 165.53 171.90 165.28 170.74 L 165.06 169.75 C 164.81 168.60 163.67 167.86 162.52 168.11 C 161.36 168.37 160.63 169.50 160.88 170.66 Z M 161.11 171.75 L 161.37 172.73 C 161.68 173.88 162.86 174.56 164.00 174.25 C 165.15 173.95 165.83 172.77 165.52 171.62 L 165.26 170.64 C 164.96 169.49 163.78 168.81 162.63 169.12 C 161.49 169.42 160.81 170.60 161.11 171.75 Z M 161.39 172.84 L 161.70 173.80 C 162.06 174.94 163.28 175.57 164.42 175.20 C 165.55 174.84 166.18 173.63 165.82 172.49 L 165.51 171.52 C 165.14 170.38 163.93 169.76 162.79 170.12 C 161.65 170.48 161.03 171.70 161.39 172.84 Z M 161.73 173.93 L 162.09 174.87 C 162.52 175.99 163.78 176.55 164.90 176.12 C 166.03 175.69 166.58 174.43 166.15 173.31 L 165.79 172.36 C 165.36 171.24 164.10 170.68 162.98 171.12 C 161.85 171.55 161.30 172.81 161.73 173.93 Z M 162.15 175.04 L 162.60 175.97 C 163.13 177.06 164.43 177.51 165.52 176.99 C 166.61 176.46 167.06 175.16 166.54 174.07 L 166.09 173.14 C 165.57 172.05 164.26 171.59 163.17 172.12 C 162.08 172.64 161.63 173.95 162.15 175.04 Z M 162.69 176.15 L 163.18 176.97 C 163.80 178.01 165.15 178.34 166.19 177.72 C 167.23 177.10 167.57 175.75 166.94 174.71 L 166.45 173.89 C 165.83 172.85 164.48 172.51 163.44 173.14 C 162.40 173.76 162.06 175.11 162.69 176.15 Z M 163.32 177.20 L 163.96 178.00 C 164.71 178.96 166.09 179.13 167.05 178.38 C 168.01 177.63 168.18 176.25 167.43 175.29 L 166.80 174.48 C 166.05 173.52 164.66 173.35 163.70 174.10 C 162.74 174.85 162.57 176.24 163.32 177.20 Z M 164.37 178.42 L 165.12 178.98 C 166.10 179.71 167.49 179.51 168.22 178.53 C 168.95 177.55 168.75 176.16 167.77 175.43 L 167.02 174.87 C 166.04 174.14 164.65 174.34 163.92 175.32 C 163.19 176.30 163.39 177.69 164.37 178.42 Z M 165.81 179.34 L 166.73 179.62 C 167.91 179.97 169.15 179.30 169.51 178.12 C 169.86 176.94 169.19 175.70 168.01 175.35 L 167.08 175.07 C 165.90 174.72 164.66 175.39 164.31 176.57 C 163.96 177.75 164.63 178.99 165.81 179.34 Z M 167.21 179.72 L 168.23 179.79 C 169.46 179.88 170.53 178.95 170.62 177.72 C 170.71 176.48 169.78 175.41 168.55 175.32 L 167.53 175.25 C 166.30 175.16 165.23 176.09 165.14 177.32 C 165.05 178.56 165.98 179.63 167.21 179.72 Z M 168.52 179.80 L 169.52 179.74 C 170.76 179.67 171.70 178.60 171.63 177.37 C 171.56 176.13 170.50 175.18 169.26 175.26 L 168.26 175.31 C 167.02 175.39 166.07 176.45 166.15 177.69 C 166.22 178.92 167.28 179.87 168.52 179.80 Z M 169.84 179.70 L 170.84 179.50 C 172.05 179.25 172.84 178.06 172.59 176.85 C 172.34 175.63 171.16 174.84 169.94 175.09 L 168.94 175.29 C 167.73 175.54 166.94 176.73 167.19 177.94 C 167.43 179.16 168.62 179.95 169.84 179.70 Z M 171.19 179.40 L 172.09 179.05 C 173.25 178.61 173.83 177.31 173.39 176.15 C 172.95 174.99 171.65 174.41 170.49 174.85 L 169.59 175.19 C 168.43 175.63 167.84 176.93 168.29 178.09 C 168.73 179.25 170.03 179.84 171.19 179.40 Z M 172.34 178.94 L 173.24 178.46 C 174.34 177.88 174.76 176.52 174.18 175.42 C 173.59 174.32 172.23 173.91 171.14 174.49 L 170.24 174.97 C 169.14 175.55 168.72 176.91 169.30 178.01 C 169.89 179.10 171.25 179.52 172.34 178.94 Z M 173.38 178.38 L 174.26 177.82 C 175.31 177.17 175.63 175.78 174.97 174.73 C 174.31 173.68 172.93 173.36 171.88 174.02 L 171.00 174.57 C 169.95 175.23 169.63 176.62 170.29 177.67 C 170.95 178.72 172.33 179.03 173.38 178.38 Z M 174.33 177.77 L 175.18 177.19 C 176.20 176.49 176.47 175.10 175.77 174.08 C 175.08 173.06 173.68 172.80 172.66 173.49 L 171.81 174.07 C 170.79 174.77 170.53 176.16 171.22 177.18 C 171.92 178.20 173.31 178.47 174.33 177.77 Z M 175.23 177.15 L 176.00 176.59 C 177.00 175.87 177.22 174.48 176.51 173.48 C 175.79 172.48 174.39 172.26 173.39 172.97 L 172.62 173.53 C 171.62 174.25 171.39 175.64 172.11 176.64 C 172.83 177.64 174.23 177.87 175.23 177.15 Z M 176.03 176.54 L 176.89 175.89 C 177.86 175.16 178.05 173.77 177.31 172.80 C 176.57 171.83 175.18 171.64 174.21 172.38 L 173.36 173.03 C 172.39 173.76 172.20 175.15 172.94 176.12 C 173.68 177.09 175.06 177.28 176.03 176.54 Z M 176.92 175.83 L 177.64 175.24 C 178.57 174.49 178.71 173.12 177.95 172.18 C 177.20 171.25 175.83 171.11 174.89 171.86 L 174.18 172.45 C 173.24 173.20 173.10 174.57 173.86 175.51 C 174.62 176.44 175.99 176.58 176.92 175.83 Z M 177.66 175.19 L 178.36 174.60 C 179.27 173.83 179.38 172.47 178.61 171.57 C 177.84 170.66 176.48 170.55 175.58 171.32 L 174.87 171.91 C 173.97 172.68 173.86 174.04 174.63 174.95 C 175.39 175.85 176.75 175.96 177.66 175.19 Z M 178.38 174.55 L 179.19 173.84 C 180.07 173.06 180.15 171.71 179.37 170.83 C 178.59 169.95 177.24 169.87 176.36 170.65 L 175.56 171.36 C 174.67 172.14 174.59 173.49 175.37 174.37 C 176.15 175.25 177.50 175.33 178.38 174.55 Z M 179.21 173.80 L 179.91 173.16 C 180.77 172.37 180.83 171.03 180.04 170.17 C 179.25 169.30 177.91 169.25 177.05 170.04 L 176.34 170.68 C 175.48 171.47 175.42 172.81 176.22 173.67 C 177.01 174.54 178.35 174.59 179.21 173.80 Z M 179.92 173.13 L 180.67 172.43 C 181.52 171.63 181.56 170.30 180.76 169.45 C 179.97 168.61 178.63 168.56 177.78 169.36 L 177.04 170.06 C 176.19 170.86 176.15 172.19 176.95 173.04 C 177.74 173.89 179.08 173.93 179.92 173.13 Z M 180.68 172.40 L 181.43 171.68 C 182.26 170.88 182.28 169.56 181.48 168.73 C 180.68 167.89 179.36 167.87 178.52 168.67 L 177.78 169.39 C 176.94 170.19 176.92 171.51 177.72 172.35 C 178.52 173.18 179.85 173.20 180.68 172.40 Z M 181.43 171.65 L 182.16 170.92 C 182.97 170.12 182.98 168.81 182.17 168.00 C 181.37 167.18 180.06 167.18 179.24 167.98 L 178.52 168.71 C 177.70 169.51 177.70 170.82 178.50 171.63 C 179.31 172.45 180.62 172.45 181.43 171.65 Z M 182.17 170.87 L 182.85 170.17 C 183.64 169.36 183.62 168.07 182.81 167.28 C 182.00 166.50 180.70 166.52 179.92 167.33 L 179.24 168.03 C 178.45 168.84 178.47 170.13 179.28 170.92 C 180.09 171.70 181.38 171.68 182.17 170.87 Z M 182.87 170.12 L 183.55 169.38 C 184.30 168.56 184.25 167.28 183.43 166.53 C 182.61 165.77 181.34 165.83 180.58 166.65 L 179.90 167.38 C 179.15 168.20 179.20 169.48 180.02 170.23 C 180.84 170.99 182.11 170.93 182.87 170.12 Z M 183.57 169.32 L 184.23 168.56 C 184.95 167.73 184.86 166.47 184.03 165.75 C 183.19 165.03 181.93 165.12 181.21 165.95 L 180.56 166.71 C 179.84 167.54 179.93 168.80 180.76 169.52 C 181.59 170.24 182.85 170.15 183.57 169.32 Z M 184.25 168.49 L 184.87 167.72 C 185.55 166.88 185.42 165.64 184.57 164.96 C 183.73 164.28 182.49 164.41 181.81 165.25 L 181.19 166.02 C 180.51 166.86 180.64 168.10 181.49 168.78 C 182.33 169.46 183.57 169.33 184.25 168.49 Z M 184.87 167.65 L 185.47 166.84 C 186.11 166.00 185.94 164.80 185.10 164.16 C 184.25 163.52 183.05 163.69 182.41 164.53 L 181.81 165.33 C 181.17 166.18 181.34 167.38 182.18 168.02 C 183.03 168.66 184.23 168.49 184.87 167.65 Z M 185.44 166.78 L 185.96 166.07 C 186.57 165.24 186.38 164.08 185.56 163.48 C 184.73 162.87 183.57 163.05 182.96 163.88 L 182.44 164.59 C 181.84 165.42 182.02 166.58 182.85 167.19 C 183.68 167.79 184.84 167.61 185.44 166.78 Z"
      fill="black"
      fill-rule="nonzero" /><path d="M 171.14 123.78 L 170.93 124.77 C 170.67 125.93 171.41 127.07 172.57 127.33 C 173.73 127.58 174.88 126.84 175.13 125.68 L 175.35 124.69 C 175.60 123.53 174.86 122.39 173.70 122.13 C 172.54 121.88 171.40 122.62 171.14 123.78 Z M 170.81 125.27 L 170.83 126.19 C 170.86 127.41 171.87 128.39 173.10 128.36 C 174.32 128.33 175.29 127.32 175.26 126.10 L 175.24 125.18 C 175.22 123.95 174.21 122.98 172.98 123.01 C 171.76 123.03 170.79 124.05 170.81 125.27 Z M 170.89 126.73 L 171.15 127.70 C 171.48 128.89 172.71 129.59 173.90 129.27 C 175.09 128.95 175.79 127.72 175.47 126.52 L 175.21 125.56 C 174.88 124.37 173.65 123.66 172.46 123.99 C 171.27 124.31 170.57 125.54 170.89 126.73 Z M 171.17 127.74 L 171.46 128.71 C 171.80 129.89 173.04 130.57 174.22 130.22 C 175.41 129.88 176.08 128.64 175.74 127.46 L 175.45 126.48 C 175.11 125.30 173.87 124.62 172.68 124.97 C 171.50 125.32 170.82 126.56 171.17 127.74 Z M 171.45 128.65 L 171.72 129.65 C 172.03 130.83 173.25 131.54 174.43 131.22 C 175.62 130.91 176.32 129.69 176.00 128.51 L 175.74 127.51 C 175.43 126.33 174.21 125.62 173.03 125.94 C 171.84 126.25 171.14 127.47 171.45 128.65 Z M 171.72 129.60 L 171.97 130.60 C 172.25 131.78 173.44 132.51 174.62 132.22 C 175.80 131.93 176.53 130.74 176.24 129.56 L 176.00 128.56 C 175.71 127.38 174.52 126.65 173.34 126.94 C 172.16 127.23 171.44 128.42 171.72 129.60 Z M 171.99 130.52 L 172.20 131.52 C 172.44 132.69 173.59 133.44 174.75 133.19 C 175.92 132.95 176.67 131.80 176.43 130.63 L 176.22 129.64 C 175.98 128.47 174.83 127.72 173.66 127.97 C 172.49 128.21 171.74 129.36 171.99 130.52 Z M 172.23 131.41 L 172.39 132.37 C 172.57 133.52 173.66 134.30 174.81 134.11 C 175.96 133.92 176.74 132.84 176.55 131.69 L 176.39 130.74 C 176.21 129.59 175.12 128.81 173.97 129.00 C 172.82 129.18 172.04 130.27 172.23 131.41 Z M 172.43 132.27 L 172.54 133.20 C 172.67 134.33 173.69 135.13 174.81 135.00 C 175.94 134.87 176.75 133.85 176.62 132.73 L 176.51 131.79 C 176.38 130.67 175.36 129.86 174.23 129.99 C 173.11 130.12 172.30 131.14 172.43 132.27 Z M 172.58 133.11 L 172.66 134.12 C 172.74 135.22 173.69 136.05 174.79 135.97 C 175.89 135.89 176.72 134.93 176.64 133.83 L 176.57 132.82 C 176.49 131.72 175.53 130.89 174.43 130.97 C 173.33 131.05 172.50 132.01 172.58 133.11 Z M 172.70 134.05 L 172.74 135.09 C 172.78 136.17 173.68 137.01 174.76 136.97 C 175.83 136.93 176.67 136.03 176.63 134.95 L 176.60 133.91 C 176.56 132.83 175.65 131.99 174.58 132.03 C 173.50 132.07 172.66 132.97 172.70 134.05 Z M 172.78 135.04 L 172.79 136.07 C 172.80 137.12 173.67 137.97 174.72 137.96 C 175.77 137.95 176.62 137.08 176.61 136.03 L 176.60 135.00 C 176.58 133.94 175.72 133.10 174.66 133.11 C 173.61 133.12 172.77 133.99 172.78 135.04 Z M 172.83 136.04 L 172.82 137.03 C 172.82 138.06 173.65 138.90 174.69 138.91 C 175.72 138.91 176.56 138.08 176.57 137.04 L 176.57 136.06 C 176.58 135.02 175.74 134.18 174.71 134.18 C 173.67 134.17 172.83 135.01 172.83 136.04 Z M 172.85 137.00 L 172.83 138.06 C 172.81 139.08 173.62 139.92 174.64 139.94 C 175.66 139.96 176.50 139.15 176.52 138.13 L 176.54 137.07 C 176.56 136.05 175.75 135.21 174.73 135.19 C 173.71 135.17 172.87 135.98 172.85 137.00 Z M 172.86 138.04 L 172.82 138.99 C 172.79 139.99 173.58 140.83 174.58 140.87 C 175.59 140.90 176.43 140.11 176.46 139.11 L 176.49 138.15 C 176.52 137.15 175.74 136.31 174.73 136.28 C 173.73 136.24 172.89 137.03 172.86 138.04 Z M 172.84 138.98 L 172.83 139.27 C 172.79 140.27 173.57 141.10 174.56 141.14 C 175.56 141.18 176.40 140.40 176.43 139.41 L 176.44 139.12 C 176.48 138.12 175.71 137.28 174.71 137.25 C 173.71 137.21 172.88 137.99 172.84 138.98 Z"
      fill="black"
      fill-rule="nonzero" /><path d="M 166.33 144.24 L 166.64 145.02 C 167.10 146.18 168.40 146.74 169.55 146.29 C 170.70 145.83 171.27 144.53 170.81 143.38 L 170.50 142.59 C 170.05 141.44 168.75 140.88 167.60 141.33 C 166.44 141.79 165.88 143.09 166.33 144.24 Z M 166.62 144.95 L 166.98 145.97 C 167.40 147.14 168.68 147.75 169.85 147.33 C 171.01 146.92 171.62 145.63 171.20 144.47 L 170.84 143.45 C 170.42 142.28 169.14 141.68 167.98 142.09 C 166.81 142.51 166.20 143.79 166.62 144.95 Z M 166.97 145.91 L 167.29 146.89 C 167.67 148.07 168.93 148.71 170.10 148.33 C 171.27 147.95 171.92 146.69 171.54 145.52 L 171.22 144.53 C 170.84 143.36 169.58 142.72 168.41 143.10 C 167.23 143.48 166.59 144.74 166.97 145.91 Z M 167.29 146.86 L 167.59 147.86 C 167.96 149.04 169.20 149.70 170.38 149.33 C 171.55 148.97 172.21 147.73 171.85 146.55 L 171.54 145.55 C 171.18 144.38 169.93 143.72 168.76 144.08 C 167.58 144.44 166.92 145.69 167.29 146.86 Z M 167.60 147.85 L 167.90 148.84 C 168.25 150.01 169.49 150.68 170.66 150.32 C 171.83 149.97 172.49 148.74 172.14 147.56 L 171.84 146.57 C 171.49 145.40 170.26 144.73 169.08 145.09 C 167.91 145.44 167.25 146.67 167.60 147.85 Z M 167.91 148.82 L 168.21 149.83 C 168.55 151.00 169.78 151.66 170.94 151.32 C 172.11 150.98 172.77 149.75 172.43 148.59 L 172.13 147.58 C 171.78 146.41 170.56 145.75 169.40 146.09 C 168.23 146.44 167.57 147.66 167.91 148.82 Z M 168.25 149.81 L 168.54 150.82 C 168.87 151.97 170.06 152.63 171.21 152.30 C 172.35 151.97 173.01 150.77 172.68 149.63 L 172.39 148.61 C 172.06 147.47 170.86 146.81 169.72 147.14 C 168.58 147.47 167.92 148.66 168.25 149.81 Z M 168.59 150.79 L 168.81 151.60 C 169.12 152.71 170.28 153.37 171.39 153.06 C 172.51 152.75 173.17 151.60 172.86 150.48 L 172.63 149.67 C 172.32 148.55 171.17 147.90 170.05 148.20 C 168.94 148.51 168.28 149.67 168.59 150.79 Z M 168.87 151.61 L 169.15 152.57 C 169.47 153.65 170.60 154.27 171.69 153.96 C 172.77 153.64 173.39 152.50 173.08 151.42 L 172.80 150.46 C 172.48 149.38 171.35 148.76 170.26 149.07 C 169.18 149.39 168.55 150.53 168.87 151.61 Z M 169.27 152.76 L 169.72 153.83 C 170.15 154.84 171.31 155.32 172.33 154.90 C 173.35 154.47 173.82 153.31 173.40 152.29 L 172.95 151.22 C 172.53 150.21 171.36 149.73 170.34 150.15 C 169.33 150.58 168.85 151.75 169.27 152.76 Z M 170.81 154.84 L 171.25 155.03 C 172.23 155.44 173.36 154.98 173.78 153.99 C 174.19 153.01 173.73 151.87 172.75 151.46 L 172.31 151.28 C 171.33 150.86 170.19 151.32 169.78 152.31 C 169.36 153.29 169.82 154.43 170.81 154.84 Z M 173.84 153.61 L 174.05 152.59 C 174.25 151.58 173.59 150.58 172.57 150.38 C 171.55 150.17 170.56 150.83 170.35 151.85 L 170.15 152.87 C 169.95 153.89 170.61 154.88 171.63 155.09 C 172.65 155.29 173.64 154.63 173.84 153.61 Z M 174.04 152.41 L 174.15 151.30 C 174.25 150.28 173.51 149.37 172.49 149.27 C 171.48 149.17 170.57 149.91 170.47 150.93 L 170.36 152.04 C 170.26 153.06 171.00 153.97 172.02 154.07 C 173.04 154.17 173.94 153.42 174.04 152.41 Z M 174.14 151.27 L 174.23 150.26 C 174.32 149.25 173.57 148.36 172.56 148.27 C 171.54 148.18 170.65 148.93 170.56 149.94 L 170.48 150.96 C 170.39 151.97 171.14 152.86 172.15 152.95 C 173.17 153.04 174.06 152.29 174.14 151.27 Z M 174.23 150.26 L 174.32 149.26 C 174.41 148.25 173.66 147.36 172.65 147.27 C 171.64 147.18 170.75 147.92 170.66 148.93 L 170.57 149.94 C 170.48 150.95 171.23 151.84 172.24 151.93 C 173.25 152.02 174.14 151.27 174.23 150.26 Z M 174.32 149.30 L 174.42 148.31 C 174.54 147.30 173.81 146.39 172.80 146.28 C 171.79 146.17 170.88 146.89 170.77 147.90 L 170.66 148.90 C 170.55 149.91 171.28 150.81 172.29 150.93 C 173.30 151.04 174.20 150.31 174.32 149.30 Z M 174.43 148.38 L 174.57 147.41 C 174.72 146.40 174.02 145.46 173.01 145.31 C 172.00 145.16 171.06 145.85 170.91 146.86 L 170.77 147.83 C 170.62 148.84 171.31 149.78 172.32 149.93 C 173.33 150.08 174.27 149.39 174.43 148.38 Z M 174.57 147.51 L 174.77 146.52 C 174.98 145.50 174.32 144.52 173.31 144.32 C 172.30 144.11 171.32 144.76 171.11 145.78 L 170.91 146.77 C 170.71 147.78 171.36 148.76 172.37 148.97 C 173.38 149.17 174.37 148.52 174.57 147.51 Z M 174.76 146.66 L 175.03 145.71 C 175.31 144.70 174.72 143.66 173.72 143.38 C 172.71 143.10 171.67 143.68 171.39 144.69 L 171.12 145.64 C 170.84 146.64 171.43 147.69 172.43 147.97 C 173.44 148.25 174.48 147.66 174.76 146.66 Z M 174.97 145.94 L 175.35 145.03 C 175.76 144.06 175.31 142.93 174.33 142.52 C 173.35 142.11 172.23 142.57 171.82 143.55 L 171.44 144.46 C 171.03 145.43 171.49 146.56 172.46 146.97 C 173.44 147.38 174.56 146.92 174.97 145.94 Z M 175.26 145.30 L 175.78 144.43 C 176.34 143.51 176.04 142.31 175.12 141.75 C 174.20 141.20 173.00 141.49 172.44 142.42 L 171.92 143.28 C 171.36 144.21 171.66 145.40 172.58 145.96 C 173.50 146.52 174.70 146.22 175.26 145.30 Z M 175.68 144.66 L 176.31 143.87 C 176.99 143.00 176.84 141.75 175.98 141.06 C 175.12 140.38 173.86 140.53 173.18 141.39 L 172.55 142.19 C 171.86 143.05 172.01 144.31 172.87 144.99 C 173.74 145.67 174.99 145.53 175.68 144.66 Z M 176.09 144.16 L 176.86 143.48 C 177.70 142.73 177.78 141.45 177.03 140.60 C 176.29 139.76 175.00 139.68 174.16 140.42 L 173.39 141.10 C 172.55 141.85 172.47 143.13 173.21 143.98 C 173.96 144.82 175.25 144.90 176.09 144.16 Z M 176.42 143.81 L 177.27 143.39 C 178.30 142.88 178.72 141.64 178.22 140.62 C 177.71 139.60 176.48 139.17 175.45 139.68 L 174.60 140.10 C 173.57 140.60 173.15 141.84 173.65 142.86 C 174.16 143.89 175.39 144.31 176.42 143.81 Z M 176.79 143.57 L 177.71 143.38 C 178.84 143.14 179.56 142.04 179.32 140.91 C 179.09 139.79 177.99 139.07 176.86 139.30 L 175.94 139.49 C 174.81 139.73 174.09 140.83 174.32 141.96 C 174.56 143.08 175.66 143.80 176.79 143.57 Z M 177.42 143.43 L 178.46 143.36 C 179.61 143.29 180.49 142.29 180.41 141.14 C 180.34 139.99 179.34 139.11 178.19 139.18 L 177.15 139.25 C 176.00 139.33 175.12 140.32 175.20 141.47 C 175.27 142.63 176.27 143.50 177.42 143.43 Z M 178.26 143.37 L 179.27 143.40 C 180.43 143.43 181.40 142.52 181.43 141.36 C 181.46 140.20 180.55 139.23 179.39 139.20 L 178.38 139.17 C 177.22 139.14 176.26 140.05 176.22 141.21 C 176.19 142.37 177.10 143.34 178.26 143.37 Z M 178.90 143.37 L 179.90 143.57 C 181.04 143.81 182.16 143.07 182.39 141.93 C 182.63 140.79 181.89 139.67 180.75 139.44 L 179.76 139.23 C 178.61 139.00 177.50 139.73 177.26 140.88 C 177.03 142.02 177.76 143.13 178.90 143.37 Z M 179.34 143.40 L 180.23 143.86 C 181.28 144.41 182.57 144.00 183.11 142.96 C 183.66 141.91 183.25 140.62 182.20 140.08 L 181.31 139.61 C 180.26 139.07 178.97 139.47 178.43 140.52 C 177.88 141.56 178.29 142.85 179.34 143.40 Z M 179.74 143.56 L 180.46 144.23 C 181.34 145.04 182.71 144.99 183.53 144.11 C 184.34 143.23 184.29 141.86 183.41 141.04 L 182.69 140.38 C 181.81 139.57 180.44 139.62 179.62 140.50 C 178.81 141.38 178.86 142.75 179.74 143.56 Z M 180.09 143.84 L 180.62 144.64 C 181.29 145.66 182.65 145.95 183.67 145.28 C 184.68 144.62 184.97 143.25 184.30 142.24 L 183.77 141.43 C 183.11 140.41 181.75 140.13 180.73 140.79 C 179.71 141.46 179.43 142.82 180.09 143.84 Z M 180.34 144.13 L 180.66 145.11 C 181.04 146.28 182.30 146.92 183.47 146.54 C 184.64 146.16 185.28 144.90 184.90 143.73 L 184.58 142.75 C 184.20 141.58 182.94 140.94 181.77 141.32 C 180.60 141.70 179.97 142.96 180.34 144.13 Z M 180.55 144.64 L 180.65 145.65 C 180.77 146.88 181.87 147.78 183.10 147.66 C 184.33 147.54 185.23 146.44 185.11 145.21 L 185.01 144.20 C 184.89 142.97 183.79 142.07 182.56 142.19 C 181.33 142.31 180.43 143.41 180.55 144.64 Z M 180.63 145.33 L 180.58 146.34 C 180.53 147.59 181.50 148.64 182.74 148.69 C 183.98 148.75 185.04 147.78 185.09 146.54 L 185.13 145.52 C 185.19 144.28 184.22 143.23 182.98 143.17 C 181.73 143.12 180.68 144.09 180.63 145.33 Z M 180.62 146.01 L 180.42 147.03 C 180.18 148.25 180.99 149.44 182.21 149.67 C 183.44 149.91 184.62 149.11 184.86 147.88 L 185.06 146.87 C 185.29 145.64 184.49 144.46 183.26 144.22 C 182.04 143.99 180.85 144.79 180.62 146.01 Z M 180.55 146.59 L 180.19 147.48 C 179.71 148.63 180.26 149.95 181.42 150.43 C 182.57 150.90 183.89 150.35 184.37 149.20 L 184.73 148.31 C 185.20 147.16 184.65 145.84 183.50 145.36 C 182.35 144.89 181.03 145.44 180.55 146.59 Z M 180.36 147.16 L 179.86 147.98 C 179.21 149.04 179.54 150.42 180.59 151.07 C 181.65 151.72 183.03 151.40 183.68 150.34 L 184.19 149.52 C 184.84 148.46 184.51 147.08 183.45 146.43 C 182.40 145.78 181.01 146.11 180.36 147.16 Z M 180.00 147.81 L 179.39 148.61 C 178.64 149.59 178.82 150.99 179.80 151.73 C 180.78 152.48 182.17 152.30 182.92 151.32 L 183.54 150.51 C 184.29 149.54 184.10 148.14 183.12 147.39 C 182.15 146.65 180.75 146.83 180.00 147.81 Z M 179.52 148.51 L 178.86 149.25 C 178.06 150.15 178.14 151.54 179.05 152.34 C 179.95 153.14 181.34 153.06 182.14 152.16 L 182.79 151.42 C 183.59 150.52 183.51 149.13 182.61 148.33 C 181.70 147.53 180.32 147.61 179.52 148.51 Z M 178.99 149.19 L 178.27 149.91 C 177.43 150.75 177.43 152.10 178.27 152.94 C 179.11 153.77 180.46 153.77 181.29 152.93 L 182.01 152.21 C 182.85 151.38 182.85 150.02 182.01 149.19 C 181.18 148.35 179.82 148.36 178.99 149.19 Z M 178.38 149.89 L 177.64 150.57 C 176.79 151.34 176.73 152.65 177.50 153.50 C 178.27 154.35 179.58 154.41 180.43 153.64 L 181.18 152.96 C 182.03 152.19 182.09 150.87 181.32 150.03 C 180.54 149.18 179.23 149.12 178.38 149.89 Z M 177.74 150.58 L 176.98 151.22 C 176.14 151.93 176.03 153.19 176.75 154.04 C 177.46 154.88 178.73 154.99 179.57 154.27 L 180.33 153.63 C 181.17 152.92 181.28 151.65 180.56 150.81 C 179.85 149.97 178.58 149.86 177.74 150.58 Z M 177.09 151.23 L 176.28 151.86 C 175.44 152.52 175.30 153.73 175.95 154.57 C 176.61 155.41 177.82 155.55 178.66 154.89 L 179.47 154.26 C 180.30 153.60 180.45 152.39 179.79 151.55 C 179.14 150.72 177.92 150.57 177.09 151.23 Z M 176.41 151.85 L 175.61 152.41 C 174.77 152.99 174.56 154.15 175.14 154.99 C 175.72 155.83 176.88 156.04 177.72 155.46 L 178.53 154.91 C 179.37 154.32 179.58 153.16 178.99 152.32 C 178.41 151.48 177.25 151.27 176.41 151.85 Z M 175.73 152.38 L 174.88 152.89 C 174.02 153.41 173.74 154.52 174.25 155.38 C 174.77 156.24 175.88 156.52 176.75 156.01 L 177.60 155.49 C 178.46 154.98 178.74 153.86 178.22 153.00 C 177.71 152.14 176.59 151.86 175.73 152.38 Z M 174.92 152.88 L 174.60 153.06 C 173.74 153.55 173.43 154.66 173.93 155.52 C 174.42 156.39 175.52 156.69 176.39 156.20 L 176.70 156.02 C 177.57 155.52 177.87 154.42 177.38 153.55 C 176.88 152.69 175.78 152.39 174.92 152.88 Z"
      fill="black"
      fill-rule="nonzero" /><path d="M 174.18 153.41 L 173.83 154.33 C 173.41 155.41 173.96 156.63 175.04 157.05 C 176.13 157.46 177.35 156.92 177.76 155.83 L 178.11 154.92 C 178.53 153.83 177.98 152.61 176.90 152.20 C 175.81 151.78 174.59 152.33 174.18 153.41 Z M 173.55 154.56 L 173.33 155.54 C 173.04 156.78 173.81 158.01 175.05 158.30 C 176.29 158.58 177.53 157.81 177.81 156.57 L 178.04 155.60 C 178.32 154.36 177.55 153.12 176.31 152.84 C 175.07 152.55 173.84 153.32 173.55 154.56 Z M 173.18 155.89 L 173.12 156.88 C 173.03 158.20 174.02 159.34 175.34 159.43 C 176.66 159.52 177.80 158.52 177.89 157.20 L 177.96 156.22 C 178.05 154.90 177.05 153.76 175.73 153.67 C 174.41 153.58 173.27 154.58 173.18 155.89 Z M 173.10 157.03 L 173.09 158.05 C 173.08 159.38 174.15 160.46 175.48 160.47 C 176.81 160.48 177.89 159.41 177.90 158.08 L 177.91 157.06 C 177.91 155.73 176.84 154.65 175.52 154.64 C 174.19 154.63 173.11 155.70 173.10 157.03 Z M 173.09 158.06 L 173.09 159.04 C 173.09 160.38 174.16 161.45 175.50 161.45 C 176.83 161.45 177.91 160.38 177.91 159.04 L 177.91 158.06 C 177.91 156.73 176.83 155.65 175.50 155.65 C 174.16 155.65 173.09 156.73 173.09 158.06 Z M 173.09 159.04 L 173.09 160.07 C 173.09 161.40 174.16 162.48 175.50 162.48 C 176.83 162.48 177.91 161.40 177.91 160.07 L 177.91 159.04 C 177.91 157.71 176.83 156.63 175.50 156.63 C 174.16 156.63 173.09 157.71 173.09 159.04 Z M 173.10 160.07 L 173.10 161.04 C 173.10 162.36 174.17 163.44 175.50 163.44 C 176.82 163.44 177.90 162.36 177.90 161.04 L 177.90 160.07 C 177.90 158.74 176.82 157.67 175.50 157.67 C 174.17 157.67 173.10 158.74 173.10 160.07 Z M 173.12 161.04 L 173.12 162.05 C 173.12 163.37 174.18 164.43 175.50 164.43 C 176.81 164.43 177.88 163.37 177.88 162.05 L 177.88 161.04 C 177.88 159.72 176.81 158.66 175.50 158.66 C 174.18 158.66 173.12 159.72 173.12 161.04 Z M 173.14 162.05 L 173.14 163.06 C 173.14 164.36 174.19 165.42 175.50 165.42 C 176.80 165.42 177.85 164.36 177.85 163.06 L 177.85 162.05 C 177.85 160.75 176.80 159.70 175.50 159.70 C 174.19 159.70 173.14 160.75 173.14 162.05 Z M 173.17 163.06 L 173.17 164.06 C 173.17 165.34 174.21 166.38 175.50 166.38 C 176.78 166.38 177.82 165.34 177.82 164.06 L 177.82 163.06 C 177.82 161.78 176.78 160.73 175.50 160.73 C 174.21 160.73 173.17 161.78 173.17 163.06 Z M 173.20 164.06 L 173.20 165.07 C 173.20 166.33 174.23 167.36 175.50 167.36 C 176.76 167.36 177.79 166.33 177.79 165.07 L 177.79 164.06 C 177.79 162.79 176.76 161.77 175.50 161.77 C 174.23 161.77 173.20 162.79 173.20 164.06 Z M 173.25 165.07 L 173.25 166.11 C 173.25 167.35 174.25 168.36 175.50 168.36 C 176.74 168.36 177.75 167.35 177.75 166.11 L 177.75 165.07 C 177.75 163.83 176.74 162.82 175.50 162.82 C 174.25 162.82 173.25 163.83 173.25 165.07 Z M 173.30 166.11 L 173.30 167.11 C 173.30 168.32 174.28 169.31 175.50 169.31 C 176.71 169.31 177.70 168.32 177.70 167.11 L 177.70 166.11 C 177.70 164.89 176.71 163.91 175.50 163.91 C 174.28 163.91 173.30 164.89 173.30 166.11 Z M 173.35 167.11 L 173.35 168.12 C 173.35 169.30 174.31 170.27 175.50 170.27 C 176.68 170.27 177.64 169.30 177.64 168.12 L 177.64 167.11 C 177.64 165.92 176.68 164.96 175.50 164.96 C 174.31 164.96 173.35 165.92 173.35 167.11 Z M 173.42 168.12 L 173.42 169.13 C 173.42 170.28 174.35 171.21 175.50 171.21 C 176.64 171.21 177.58 170.28 177.58 169.13 L 177.58 168.12 C 177.58 166.97 176.64 166.04 175.50 166.04 C 174.35 166.04 173.42 166.97 173.42 168.12 Z M 173.49 169.13 L 173.49 170.09 C 173.49 171.20 174.39 172.09 175.50 172.09 C 176.60 172.09 177.50 171.20 177.50 170.09 L 177.50 169.13 C 177.50 168.02 176.60 167.12 175.50 167.12 C 174.39 167.12 173.49 168.02 173.49 169.13 Z M 173.57 170.09 L 173.57 171.08 C 173.57 172.14 174.43 173.00 175.50 173.00 C 176.56 173.00 177.42 172.14 177.42 171.08 L 177.42 170.09 C 177.42 169.03 176.56 168.17 175.50 168.17 C 174.43 168.17 173.57 169.03 173.57 170.09 Z M 173.62 171.08 L 173.62 171.23 C 173.62 172.26 174.46 173.10 175.50 173.10 C 176.53 173.10 177.37 172.26 177.37 171.23 L 177.37 171.08 C 177.37 170.04 176.53 169.20 175.50 169.20 C 174.46 169.20 173.62 170.04 173.62 171.08 Z"
      fill="black"
      fill-rule="nonzero" /></svg>