<svg xmlns="http://www.w3.org/2000/svg" width="300" height="300" viewBox="0 0 300 300">
<path d="M 129.68 112.76 L 128.44 112.66 C 127.35 112.58 126.39 113.40 126.30 114.49 C 126.22 115.59 127.04 116.55 128.14 116.64 L 129.38 116.73 C 130.47 116.82 131.43 116.00 131.52 114.90 C 131.60 113.80 130.78 112.84 129.68 112.76 Z M 126.76 113.21 L 126.65 113.32 C 125.86 114.17 125.90 115.50 126.74 116.29 C 127.59 117.09 128.92 117.05 129.71 116.20 L 129.82 116.09 C 130.61 115.24 130.57 113.92 129.73 113.12 C 128.88 112.33 127.56 112.37 126.76 113.21 Z M 127.50 116.78 L 128.67 117.18 C 129.79 117.56 131.00 116.96 131.38 115.85 C 131.76 114.73 131.16 113.52 130.04 113.14 L 128.87 112.74 C 127.75 112.36 126.54 112.96 126.16 114.08 C 125.78 115.19 126.38 116.40 127.50 116.78 Z M 128.62 117.16 L 129.56 117.51 C 130.66 117.91 131.89 117.35 132.30 116.25 C 132.70 115.15 132.14 113.92 131.04 113.52 L 130.09 113.17 C 128.99 112.76 127.77 113.32 127.36 114.42 C 126.95 115.53 127.52 116.75 128.62 117.16 Z M 129.53 117.48 L 130.47 117.85 C 131.55 118.27 132.78 117.73 133.20 116.65 C 133.63 115.56 133.09 114.33 132.01 113.91 L 131.07 113.54 C 129.98 113.12 128.76 113.65 128.33 114.74 C 127.91 115.83 128.44 117.05 129.53 117.48 Z M 130.47 117.82 L 131.35 118.17 C 132.43 118.59 133.64 118.06 134.06 116.99 C 134.49 115.92 133.96 114.70 132.88 114.28 L 132.00 113.93 C 130.93 113.51 129.71 114.04 129.29 115.11 C 128.87 116.19 129.40 117.40 130.47 117.82 Z M 131.37 118.13 L 132.29 118.50 C 133.35 118.91 134.54 118.39 134.95 117.34 C 135.37 116.28 134.85 115.09 133.79 114.68 L 132.87 114.31 C 131.81 113.90 130.62 114.42 130.21 115.48 C 129.80 116.53 130.31 117.72 131.37 118.13 Z M 132.29 118.48 L 133.25 118.85 C 134.29 119.27 135.47 118.76 135.89 117.71 C 136.30 116.67 135.79 115.49 134.74 115.07 L 133.79 114.70 C 132.75 114.28 131.56 114.80 131.15 115.84 C 130.74 116.88 131.25 118.06 132.29 118.48 Z M 133.22 118.86 L 134.18 119.25 C 135.22 119.68 136.42 119.17 136.84 118.13 C 137.27 117.08 136.77 115.89 135.72 115.46 L 134.77 115.07 C 133.72 114.64 132.53 115.14 132.10 116.19 C 131.67 117.24 132.18 118.43 133.22 118.86 Z M 134.12 119.25 L 135.04 119.66 C 136.09 120.12 137.31 119.64 137.77 118.60 C 138.24 117.55 137.76 116.32 136.71 115.86 L 135.78 115.46 C 134.74 115.00 133.51 115.47 133.05 116.52 C 132.59 117.57 133.07 118.79 134.12 119.25 Z M 134.93 119.62 L 135.88 120.11 C 136.91 120.63 138.16 120.23 138.69 119.20 C 139.21 118.18 138.81 116.92 137.78 116.39 L 136.83 115.90 C 135.80 115.38 134.54 115.78 134.02 116.81 C 133.49 117.84 133.90 119.09 134.93 119.62 Z M 135.74 120.03 L 136.56 120.52 C 137.54 121.12 138.82 120.82 139.42 119.84 C 140.02 118.86 139.71 117.58 138.73 116.98 L 137.92 116.48 C 136.94 115.88 135.66 116.18 135.06 117.16 C 134.46 118.14 134.76 119.42 135.74 120.03 Z M 136.51 120.48 L 136.82 120.69 C 137.78 121.32 139.06 121.06 139.69 120.10 C 140.32 119.14 140.06 117.86 139.10 117.23 L 138.79 117.02 C 137.83 116.39 136.55 116.65 135.92 117.61 C 135.28 118.57 135.55 119.85 136.51 120.48 Z"
      fill="black"
      fill-rule="nonzero" /><path d="M 113.87 128.84 L 114.87 128.76 C 115.95 128.67 116.76 127.73 116.67 126.64 C 116.58 125.56 115.64 124.75 114.55 124.84 L 113.56 124.92 C 112.47 125.01 111.67 125.95 111.75 127.04 C 111.84 128.12 112.79 128.93 113.87 128.84 Z M 114.95 128.85 L 115.92 128.74 C 117.05 128.60 117.86 127.58 117.73 126.45 C 117.59 125.31 116.57 124.51 115.44 124.64 L 114.47 124.75 C 113.34 124.89 112.53 125.91 112.66 127.04 C 112.80 128.17 113.82 128.98 114.95 128.85 Z M 116.01 128.78 L 116.96 128.63 C 118.12 128.44 118.90 127.35 118.71 126.20 C 118.53 125.04 117.44 124.26 116.28 124.44 L 115.34 124.59 C 114.18 124.78 113.40 125.87 113.58 127.02 C 113.77 128.18 114.86 128.97 116.01 128.78 Z M 116.96 128.65 L 118.01 128.49 C 119.18 128.30 119.97 127.19 119.78 126.02 C 119.59 124.85 118.49 124.06 117.32 124.25 L 116.28 124.42 C 115.11 124.60 114.31 125.71 114.50 126.88 C 114.69 128.05 115.79 128.84 116.96 128.65 Z M 117.98 128.51 L 118.99 128.36 C 120.18 128.19 120.99 127.09 120.82 125.90 C 120.65 124.72 119.55 123.90 118.36 124.07 L 117.35 124.22 C 116.17 124.40 115.35 125.50 115.52 126.68 C 115.69 127.86 116.79 128.68 117.98 128.51 Z M 118.97 128.38 L 119.96 128.24 C 121.16 128.08 121.99 126.98 121.83 125.78 C 121.67 124.59 120.56 123.75 119.37 123.92 L 118.38 124.05 C 117.19 124.22 116.35 125.32 116.51 126.52 C 116.68 127.71 117.78 128.55 118.97 128.38 Z M 119.95 128.26 L 120.99 128.13 C 122.19 127.97 123.04 126.87 122.89 125.67 C 122.73 124.47 121.63 123.62 120.43 123.77 L 119.39 123.91 C 118.19 124.06 117.34 125.16 117.49 126.36 C 117.64 127.56 118.74 128.41 119.95 128.26 Z M 120.95 128.13 L 121.88 128.03 C 123.09 127.90 123.96 126.82 123.83 125.61 C 123.70 124.40 122.62 123.53 121.41 123.66 L 120.47 123.76 C 119.27 123.89 118.39 124.98 118.52 126.19 C 118.66 127.39 119.74 128.27 120.95 128.13 Z M 121.83 128.04 L 122.80 127.96 C 124.01 127.86 124.91 126.79 124.81 125.58 C 124.71 124.37 123.64 123.47 122.43 123.57 L 121.46 123.65 C 120.25 123.76 119.35 124.82 119.45 126.03 C 119.55 127.24 120.62 128.14 121.83 128.04 Z M 122.75 127.97 L 123.77 127.91 C 124.99 127.83 125.91 126.79 125.84 125.57 C 125.77 124.36 124.72 123.43 123.50 123.50 L 122.48 123.56 C 121.27 123.64 120.34 124.68 120.41 125.90 C 120.49 127.11 121.53 128.04 122.75 127.97 Z M 123.72 127.91 L 124.71 127.87 C 125.93 127.82 126.88 126.80 126.83 125.58 C 126.78 124.36 125.76 123.41 124.54 123.46 L 123.55 123.50 C 122.33 123.55 121.38 124.57 121.43 125.79 C 121.48 127.01 122.50 127.96 123.72 127.91 Z M 124.69 127.87 L 125.70 127.84 C 126.92 127.81 127.88 126.79 127.84 125.57 C 127.81 124.35 126.79 123.39 125.57 123.43 L 124.56 123.46 C 123.34 123.50 122.38 124.51 122.42 125.73 C 122.46 126.95 123.47 127.91 124.69 127.87 Z M 125.70 127.84 L 126.70 127.81 C 127.91 127.77 128.87 126.76 128.84 125.54 C 128.80 124.32 127.78 123.36 126.56 123.40 L 125.57 123.43 C 124.35 123.47 123.39 124.48 123.43 125.70 C 123.47 126.92 124.49 127.88 125.70 127.84 Z M 126.68 127.81 L 127.69 127.79 C 128.91 127.76 129.87 126.75 129.84 125.53 C 129.81 124.31 128.80 123.34 127.58 123.37 L 126.58 123.40 C 125.36 123.43 124.39 124.44 124.42 125.66 C 124.45 126.88 125.46 127.84 126.68 127.81 Z M 127.66 127.79 L 128.64 127.77 C 129.86 127.76 130.84 126.76 130.82 125.54 C 130.81 124.33 129.81 123.35 128.59 123.36 L 127.61 123.38 C 126.39 123.39 125.42 124.39 125.43 125.61 C 125.44 126.82 126.44 127.80 127.66 127.79 Z M 128.62 127.77 L 129.63 127.77 C 130.85 127.76 131.83 126.78 131.82 125.56 C 131.82 124.35 130.83 123.36 129.62 123.37 L 128.61 123.37 C 127.40 123.37 126.42 124.36 126.42 125.58 C 126.42 126.79 127.41 127.77 128.62 127.77 Z M 129.63 127.76 L 130.64 127.76 C 131.85 127.76 132.84 126.78 132.84 125.57 C 132.84 124.35 131.85 123.37 130.64 123.37 L 129.62 123.37 C 128.41 123.37 127.43 124.36 127.43 125.57 C 127.43 126.78 128.41 127.76 129.63 127.76 Z M 130.64 127.75 L 131.65 127.75 C 132.86 127.75 133.84 126.77 133.84 125.57 C 133.84 124.36 132.86 123.38 131.65 123.38 L 130.64 123.38 C 129.43 123.38 128.46 124.36 128.46 125.57 C 128.46 126.77 129.43 127.75 130.64 127.75 Z M 131.65 127.74 L 132.65 127.74 C 133.85 127.74 134.83 126.77 134.83 125.57 C 134.83 124.36 133.85 123.39 132.65 123.39 L 131.65 123.39 C 130.45 123.39 129.48 124.36 129.48 125.57 C 129.48 126.77 130.45 127.74 131.65 127.74 Z M 132.65 127.73 L 133.66 127.73 C 134.86 127.73 135.83 126.76 135.83 125.57 C 135.83 124.37 134.86 123.40 133.66 123.40 L 132.65 123.40 C 131.46 123.40 130.49 124.37 130.49 125.57 C 130.49 126.76 131.46 127.73 132.65 127.73 Z M 133.66 127.71 L 134.64 127.71 C 135.82 127.71 136.79 126.75 136.79 125.57 C 136.79 124.38 135.82 123.42 134.64 123.42 L 133.66 123.42 C 132.48 123.42 131.52 124.38 131.52 125.57 C 131.52 126.75 132.48 127.71 133.66 127.71 Z M 134.64 127.69 L 135.64 127.69 C 136.82 127.69 137.77 126.74 137.77 125.57 C 137.77 124.39 136.82 123.44 135.64 123.44 L 134.64 123.44 C 133.46 123.44 132.51 124.39 132.51 125.57 C 132.51 126.74 133.46 127.69 134.64 127.69 Z M 135.64 127.68 L 136.64 127.68 C 137.80 127.68 138.75 126.73 138.75 125.57 C 138.75 124.40 137.80 123.46 136.64 123.46 L 135.64 123.46 C 134.48 123.46 133.53 124.40 133.53 125.57 C 133.53 126.73 134.48 127.68 135.64 127.68 Z M 136.63 127.65 L 137.64 127.66 C 138.79 127.66 139.73 126.73 139.73 125.57 C 139.73 124.42 138.80 123.49 137.65 123.48 L 136.64 123.48 C 135.49 123.48 134.56 124.41 134.55 125.56 C 134.55 126.71 135.48 127.65 136.63 127.65 Z M 137.62 127.63 L 138.61 127.65 C 139.75 127.66 140.69 126.75 140.70 125.61 C 140.72 124.47 139.81 123.54 138.67 123.52 L 137.67 123.51 C 136.54 123.49 135.60 124.40 135.58 125.54 C 135.57 126.68 136.48 127.61 137.62 127.63 Z M 138.57 127.62 L 139.58 127.65 C 140.70 127.69 141.64 126.81 141.68 125.69 C 141.72 124.56 140.84 123.62 139.72 123.58 L 138.71 123.55 C 137.59 123.51 136.64 124.39 136.61 125.52 C 136.57 126.64 137.45 127.58 138.57 127.62 Z M 139.54 127.63 L 140.53 127.68 C 141.64 127.73 142.58 126.88 142.64 125.77 C 142.70 124.66 141.85 123.72 140.74 123.66 L 139.75 123.61 C 138.64 123.55 137.70 124.40 137.64 125.51 C 137.58 126.62 138.43 127.57 139.54 127.63 Z M 140.51 127.65 L 141.51 127.71 C 142.60 127.78 143.54 126.95 143.61 125.85 C 143.68 124.76 142.84 123.82 141.75 123.75 L 140.76 123.69 C 139.66 123.62 138.72 124.45 138.65 125.55 C 138.59 126.64 139.42 127.58 140.51 127.65 Z M 141.52 127.69 L 142.46 127.74 C 143.54 127.80 144.46 126.97 144.52 125.89 C 144.58 124.80 143.75 123.88 142.67 123.82 L 141.73 123.77 C 140.65 123.71 139.73 124.54 139.67 125.62 C 139.61 126.71 140.44 127.63 141.52 127.69 Z M 142.46 127.71 L 143.44 127.76 C 144.50 127.82 145.42 127.00 145.47 125.94 C 145.53 124.87 144.71 123.96 143.65 123.90 L 142.67 123.85 C 141.60 123.79 140.69 124.61 140.63 125.68 C 140.58 126.74 141.39 127.65 142.46 127.71 Z M 143.40 127.74 L 144.47 127.82 C 145.52 127.89 146.44 127.10 146.51 126.05 C 146.59 124.99 145.80 124.08 144.74 124.00 L 143.68 123.93 C 142.63 123.85 141.71 124.64 141.63 125.69 C 141.56 126.75 142.35 127.66 143.40 127.74 Z M 144.43 127.80 L 145.45 127.89 C 146.49 127.99 147.41 127.23 147.51 126.18 C 147.61 125.14 146.84 124.22 145.80 124.12 L 144.78 124.02 C 143.74 123.92 142.82 124.69 142.72 125.73 C 142.62 126.77 143.39 127.70 144.43 127.80 Z M 145.40 127.87 L 146.41 128.00 C 147.44 128.12 148.38 127.39 148.51 126.35 C 148.63 125.32 147.90 124.38 146.86 124.26 L 145.85 124.14 C 144.82 124.01 143.88 124.75 143.75 125.78 C 143.63 126.81 144.36 127.75 145.40 127.87 Z M 146.33 127.97 L 147.37 128.14 C 148.38 128.32 149.34 127.63 149.52 126.62 C 149.69 125.60 149.00 124.64 147.99 124.47 L 146.95 124.29 C 145.93 124.12 144.97 124.80 144.80 125.82 C 144.63 126.83 145.31 127.79 146.33 127.97 Z M 147.25 128.09 L 148.21 128.32 C 149.20 128.56 150.19 127.95 150.42 126.96 C 150.66 125.97 150.05 124.98 149.06 124.75 L 148.10 124.52 C 147.12 124.28 146.13 124.89 145.89 125.88 C 145.65 126.87 146.26 127.86 147.25 128.09 Z M 148.15 128.28 L 148.69 128.43 C 149.65 128.70 150.65 128.13 150.92 127.17 C 151.19 126.20 150.62 125.20 149.66 124.94 L 149.12 124.79 C 148.16 124.52 147.16 125.08 146.89 126.05 C 146.62 127.01 147.19 128.01 148.15 128.28 Z"
      fill="black"
      fill-rule="nonzero" /><path d="M 127.02 135.77 L 127.06 136.67 C 127.12 137.77 128.05 138.62 129.15 138.56 C 130.25 138.51 131.09 137.57 131.04 136.47 L 130.99 135.57 C 130.94 134.47 130.00 133.62 128.91 133.68 C 127.81 133.73 126.96 134.67 127.02 135.77 Z M 127.06 136.76 L 127.16 137.83 C 127.26 138.93 128.24 139.74 129.34 139.63 C 130.44 139.53 131.25 138.55 131.14 137.45 L 131.04 136.38 C 130.94 135.28 129.96 134.48 128.86 134.58 C 127.76 134.68 126.95 135.66 127.06 136.76 Z M 127.16 137.90 L 127.29 138.87 C 127.43 139.97 128.44 140.74 129.54 140.60 C 130.64 140.45 131.41 139.44 131.27 138.34 L 131.14 137.38 C 131.00 136.28 129.99 135.51 128.89 135.65 C 127.79 135.79 127.02 136.80 127.16 137.90 Z M 127.28 138.88 L 127.43 139.91 C 127.58 141.01 128.59 141.78 129.69 141.63 C 130.79 141.48 131.56 140.46 131.41 139.36 L 131.27 138.33 C 131.12 137.23 130.10 136.46 129.00 136.61 C 127.90 136.76 127.13 137.78 127.28 138.88 Z M 127.42 139.88 L 127.55 140.93 C 127.69 142.04 128.69 142.82 129.80 142.68 C 130.90 142.54 131.69 141.54 131.55 140.43 L 131.42 139.39 C 131.28 138.28 130.27 137.50 129.17 137.63 C 128.06 137.77 127.28 138.78 127.42 139.88 Z M 127.54 140.88 L 127.64 141.89 C 127.76 143.00 128.75 143.80 129.85 143.69 C 130.96 143.58 131.77 142.59 131.66 141.48 L 131.56 140.48 C 131.44 139.37 130.46 138.56 129.35 138.67 C 128.24 138.79 127.43 139.78 127.54 140.88 Z M 127.64 141.85 L 127.72 142.79 C 127.81 143.90 128.78 144.73 129.89 144.64 C 131.00 144.55 131.83 143.57 131.74 142.46 L 131.66 141.52 C 131.57 140.41 130.60 139.58 129.49 139.67 C 128.38 139.76 127.55 140.74 127.64 141.85 Z M 127.72 142.76 L 127.78 143.74 C 127.85 144.85 128.81 145.69 129.92 145.62 C 131.03 145.55 131.88 144.59 131.80 143.48 L 131.74 142.50 C 131.67 141.38 130.71 140.54 129.60 140.61 C 128.49 140.69 127.64 141.65 127.72 142.76 Z M 127.78 143.69 L 127.82 144.71 C 127.87 145.82 128.80 146.68 129.92 146.64 C 131.03 146.59 131.89 145.65 131.85 144.54 L 131.81 143.52 C 131.76 142.41 130.82 141.55 129.71 141.59 C 128.59 141.64 127.73 142.58 127.78 143.69 Z M 127.82 144.66 L 127.84 145.68 C 127.86 146.79 128.77 147.68 129.89 147.66 C 131.00 147.64 131.89 146.72 131.87 145.61 L 131.85 144.59 C 131.83 143.47 130.91 142.59 129.80 142.61 C 128.69 142.63 127.80 143.54 127.82 144.66 Z M 127.84 145.65 L 127.84 146.65 C 127.85 147.76 128.75 148.66 129.86 148.66 C 130.98 148.65 131.87 147.75 131.87 146.64 L 131.87 145.63 C 131.86 144.52 130.96 143.62 129.84 143.63 C 128.73 143.63 127.83 144.54 127.84 145.65 Z M 127.85 146.65 L 127.85 147.88 C 127.85 148.99 128.76 149.89 129.86 149.88 C 130.97 149.88 131.87 148.98 131.87 147.87 L 131.86 146.64 C 131.86 145.53 130.96 144.63 129.85 144.64 C 128.74 144.64 127.84 145.54 127.85 146.65 Z M 128.11 148.82 L 128.15 148.90 C 128.67 149.87 129.88 150.23 130.85 149.71 C 131.82 149.18 132.18 147.97 131.65 147.01 L 131.61 146.93 C 131.09 145.96 129.88 145.60 128.91 146.12 C 127.94 146.65 127.58 147.85 128.11 148.82 Z M 131.85 148.19 L 131.99 147.06 C 132.12 145.98 131.36 145.00 130.28 144.87 C 129.20 144.74 128.22 145.50 128.09 146.58 L 127.95 147.72 C 127.82 148.79 128.59 149.77 129.66 149.91 C 130.74 150.04 131.72 149.27 131.85 148.19 Z M 131.94 147.23 L 132.16 146.19 C 132.39 145.14 131.72 144.11 130.67 143.88 C 129.62 143.66 128.59 144.32 128.36 145.37 L 128.14 146.41 C 127.91 147.46 128.58 148.49 129.63 148.72 C 130.68 148.95 131.72 148.28 131.94 147.23 Z M 132.10 146.36 L 132.40 145.41 C 132.72 144.39 132.16 143.31 131.14 142.99 C 130.12 142.67 129.04 143.23 128.72 144.25 L 128.42 145.20 C 128.10 146.22 128.67 147.30 129.68 147.62 C 130.70 147.94 131.78 147.38 132.10 146.36 Z M 132.35 145.52 L 132.71 144.59 C 133.10 143.60 132.61 142.49 131.62 142.11 C 130.63 141.72 129.52 142.22 129.13 143.20 L 128.77 144.13 C 128.39 145.12 128.88 146.23 129.87 146.62 C 130.86 147.00 131.97 146.51 132.35 145.52 Z M 132.67 144.68 L 133.08 143.77 C 133.51 142.80 133.08 141.67 132.11 141.24 C 131.15 140.81 130.01 141.24 129.58 142.20 L 129.17 143.12 C 128.74 144.08 129.17 145.21 130.14 145.65 C 131.11 146.08 132.24 145.65 132.67 144.68 Z M 133.04 143.85 L 133.49 142.96 C 133.96 142.02 133.58 140.87 132.64 140.39 C 131.70 139.91 130.55 140.29 130.07 141.23 L 129.62 142.12 C 129.15 143.07 129.53 144.22 130.47 144.69 C 131.41 145.17 132.56 144.79 133.04 143.85 Z M 133.44 143.04 L 133.91 142.22 C 134.43 141.30 134.11 140.13 133.19 139.61 C 132.27 139.09 131.11 139.41 130.59 140.33 L 130.12 141.15 C 129.60 142.07 129.92 143.24 130.84 143.76 C 131.75 144.28 132.92 143.96 133.44 143.04 Z M 133.85 142.31 L 134.41 141.45 C 134.98 140.57 134.73 139.38 133.84 138.81 C 132.96 138.24 131.78 138.49 131.20 139.37 L 130.65 140.23 C 130.07 141.12 130.33 142.30 131.21 142.87 C 132.10 143.45 133.28 143.19 133.85 142.31 Z M 134.35 141.54 L 134.96 140.70 C 135.59 139.84 135.40 138.65 134.55 138.03 C 133.70 137.41 132.50 137.59 131.88 138.44 L 131.26 139.29 C 130.64 140.14 130.83 141.33 131.68 141.95 C 132.53 142.58 133.72 142.39 134.35 141.54 Z M 134.91 140.77 L 135.56 139.96 C 136.22 139.14 136.09 137.93 135.27 137.27 C 134.45 136.61 133.25 136.74 132.59 137.56 L 131.94 138.37 C 131.27 139.19 131.40 140.39 132.22 141.06 C 133.05 141.72 134.25 141.59 134.91 140.77 Z M 135.50 140.03 L 136.17 139.28 C 136.87 138.49 136.79 137.28 136.00 136.58 C 135.21 135.88 134.00 135.96 133.30 136.75 L 132.64 137.49 C 131.94 138.28 132.02 139.49 132.81 140.19 C 133.60 140.89 134.80 140.82 135.50 140.03 Z M 136.07 139.38 L 136.83 138.64 C 137.59 137.90 137.61 136.69 136.87 135.94 C 136.14 135.18 134.92 135.16 134.17 135.90 L 133.40 136.64 C 132.64 137.38 132.63 138.59 133.36 139.35 C 134.10 140.10 135.31 140.12 136.07 139.38 Z M 136.63 138.81 L 137.41 138.24 C 138.27 137.62 138.45 136.42 137.83 135.56 C 137.20 134.71 136.01 134.53 135.15 135.15 L 134.37 135.72 C 133.52 136.35 133.33 137.55 133.95 138.40 C 134.58 139.25 135.78 139.44 136.63 138.81 Z M 137.10 138.43 L 137.93 138.04 C 138.89 137.60 139.30 136.45 138.85 135.49 C 138.40 134.53 137.26 134.12 136.30 134.57 L 135.47 134.96 C 134.51 135.41 134.10 136.55 134.55 137.51 C 134.99 138.47 136.14 138.88 137.10 138.43 Z M 137.49 138.19 L 138.47 137.99 C 139.51 137.78 140.18 136.77 139.97 135.73 C 139.76 134.69 138.75 134.02 137.71 134.23 L 136.74 134.42 C 135.70 134.63 135.02 135.65 135.23 136.69 C 135.44 137.73 136.45 138.40 137.49 138.19 Z M 137.99 138.04 L 139.02 138.09 C 140.09 138.14 140.99 137.32 141.04 136.25 C 141.10 135.19 140.27 134.28 139.21 134.23 L 138.18 134.18 C 137.12 134.13 136.21 134.95 136.16 136.02 C 136.11 137.08 136.93 137.99 137.99 138.04 Z M 138.41 137.97 L 139.31 138.32 C 140.31 138.71 141.43 138.22 141.82 137.22 C 142.22 136.22 141.72 135.09 140.72 134.70 L 139.82 134.35 C 138.82 133.96 137.70 134.45 137.31 135.45 C 136.92 136.45 137.41 137.58 138.41 137.97 Z M 138.44 137.67 L 139.01 138.45 C 139.66 139.32 140.88 139.51 141.75 138.86 C 142.62 138.22 142.81 137.00 142.16 136.13 L 141.59 135.35 C 140.95 134.48 139.72 134.29 138.85 134.94 C 137.98 135.58 137.80 136.80 138.44 137.67 Z M 138.70 137.84 L 138.97 138.80 C 139.28 139.84 140.37 140.44 141.42 140.14 C 142.46 139.84 143.06 138.74 142.76 137.70 L 142.48 136.74 C 142.18 135.69 141.08 135.09 140.04 135.40 C 138.99 135.70 138.39 136.79 138.70 137.84 Z M 138.90 138.52 L 139.04 139.53 C 139.19 140.61 140.20 141.37 141.28 141.22 C 142.37 141.06 143.13 140.06 142.97 138.97 L 142.83 137.97 C 142.68 136.89 141.68 136.13 140.59 136.28 C 139.51 136.43 138.75 137.44 138.90 138.52 Z M 139.01 139.33 L 139.05 140.33 C 139.10 141.43 140.03 142.29 141.13 142.24 C 142.24 142.19 143.09 141.26 143.04 140.16 L 143.00 139.17 C 142.96 138.06 142.02 137.21 140.92 137.25 C 139.82 137.30 138.97 138.23 139.01 139.33 Z M 139.05 140.07 L 138.96 141.07 C 138.87 142.18 139.68 143.15 140.79 143.25 C 141.89 143.34 142.86 142.53 142.96 141.42 L 143.05 140.42 C 143.14 139.31 142.33 138.34 141.22 138.25 C 140.12 138.15 139.15 138.97 139.05 140.07 Z M 139.01 140.76 L 138.77 141.71 C 138.50 142.78 139.16 143.88 140.24 144.15 C 141.31 144.42 142.41 143.76 142.68 142.68 L 142.91 141.74 C 143.18 140.66 142.53 139.57 141.45 139.30 C 140.37 139.03 139.28 139.68 139.01 140.76 Z M 138.85 141.47 L 138.48 142.42 C 138.08 143.46 138.59 144.63 139.63 145.03 C 140.67 145.43 141.84 144.91 142.24 143.87 L 142.60 142.92 C 143.00 141.88 142.49 140.72 141.45 140.32 C 140.41 139.92 139.25 140.43 138.85 141.47 Z M 138.55 142.26 L 138.10 143.16 C 137.61 144.16 138.03 145.37 139.02 145.86 C 140.02 146.35 141.23 145.94 141.72 144.94 L 142.17 144.04 C 142.66 143.04 142.25 141.83 141.25 141.34 C 140.25 140.85 139.04 141.26 138.55 142.26 Z M 138.18 143.02 L 137.67 143.88 C 137.10 144.84 137.41 146.07 138.37 146.64 C 139.33 147.21 140.57 146.90 141.14 145.94 L 141.65 145.08 C 142.22 144.13 141.90 142.89 140.94 142.32 C 139.99 141.75 138.75 142.06 138.18 143.02 Z M 137.77 143.73 L 137.18 144.55 C 136.53 145.45 136.73 146.71 137.64 147.36 C 138.54 148.01 139.80 147.81 140.45 146.91 L 141.04 146.09 C 141.69 145.18 141.48 143.93 140.58 143.28 C 139.68 142.62 138.42 142.83 137.77 143.73 Z M 137.29 144.42 L 136.64 145.17 C 135.92 146.01 136.01 147.28 136.86 148.00 C 137.70 148.73 138.97 148.63 139.69 147.79 L 140.34 147.04 C 141.06 146.20 140.97 144.93 140.12 144.20 C 139.28 143.48 138.01 143.58 137.29 144.42 Z M 136.75 145.06 L 136.07 145.74 C 135.29 146.52 135.29 147.79 136.07 148.57 C 136.86 149.35 138.12 149.35 138.91 148.57 L 139.58 147.89 C 140.36 147.11 140.36 145.84 139.58 145.06 C 138.80 144.28 137.53 144.28 136.75 145.06 Z M 136.20 145.64 L 135.43 146.30 C 134.59 147.01 134.49 148.27 135.20 149.10 C 135.91 149.94 137.16 150.04 138.00 149.33 L 138.78 148.67 C 139.61 147.96 139.72 146.71 139.00 145.87 C 138.29 145.03 137.04 144.93 136.20 145.64 Z M 135.56 146.22 L 134.76 146.79 C 133.88 147.43 133.68 148.66 134.32 149.54 C 134.96 150.43 136.19 150.62 137.07 149.99 L 137.87 149.41 C 138.75 148.77 138.95 147.54 138.31 146.66 C 137.67 145.78 136.44 145.58 135.56 146.22 Z M 134.92 146.72 L 134.05 147.24 C 133.13 147.79 132.83 148.99 133.38 149.91 C 133.94 150.83 135.13 151.13 136.06 150.58 L 136.92 150.06 C 137.84 149.51 138.14 148.31 137.59 147.39 C 137.04 146.46 135.84 146.16 134.92 146.72 Z M 134.25 147.16 L 133.32 147.58 C 132.35 148.03 131.93 149.17 132.37 150.14 C 132.81 151.10 133.95 151.53 134.92 151.09 L 135.85 150.66 C 136.82 150.22 137.25 149.07 136.80 148.11 C 136.36 147.14 135.22 146.72 134.25 147.16 Z M 133.54 147.54 L 132.59 147.84 C 131.60 148.16 131.05 149.23 131.38 150.22 C 131.70 151.22 132.76 151.76 133.76 151.44 L 134.70 151.13 C 135.70 150.81 136.24 149.75 135.92 148.75 C 135.60 147.76 134.53 147.21 133.54 147.54 Z M 132.73 147.85 L 131.75 148.09 C 130.76 148.34 130.16 149.34 130.41 150.33 C 130.65 151.32 131.66 151.93 132.65 151.68 L 133.62 151.44 C 134.61 151.19 135.22 150.19 134.97 149.19 C 134.72 148.20 133.72 147.60 132.73 147.85 Z M 131.80 148.11 L 131.37 148.21 C 130.39 148.43 129.77 149.40 129.99 150.38 C 130.22 151.36 131.19 151.98 132.17 151.76 L 132.60 151.66 C 133.58 151.44 134.20 150.46 133.98 149.48 C 133.75 148.50 132.78 147.89 131.80 148.11 Z"
      fill="black"
      fill-rule="nonzero" /><path d="M 127.62 159.44 L 128.46 158.99 C 129.41 158.48 129.78 157.29 129.26 156.33 C 128.75 155.37 127.56 155.01 126.60 155.52 L 125.76 155.97 C 124.80 156.48 124.44 157.67 124.95 158.63 C 125.47 159.59 126.66 159.95 127.62 159.44 Z M 128.06 159.23 L 129.03 158.96 C 130.12 158.67 130.76 157.55 130.47 156.46 C 130.17 155.37 129.05 154.73 127.96 155.03 L 126.99 155.29 C 125.91 155.58 125.26 156.71 125.56 157.79 C 125.86 158.88 126.98 159.52 128.06 159.23 Z M 128.65 159.07 L 129.63 158.99 C 130.77 158.91 131.63 157.91 131.55 156.77 C 131.47 155.63 130.47 154.77 129.33 154.85 L 128.35 154.92 C 127.20 155.01 126.34 156.00 126.43 157.15 C 126.51 158.29 127.51 159.15 128.65 159.07 Z M 129.50 159.01 L 130.55 159.00 C 131.70 158.99 132.63 158.05 132.62 156.90 C 132.61 155.74 131.67 154.81 130.51 154.82 L 129.46 154.83 C 128.31 154.84 127.38 155.79 127.39 156.94 C 127.40 158.09 128.34 159.02 129.50 159.01 Z M 130.53 159.01 L 131.52 159.01 C 132.68 159.01 133.62 158.08 133.62 156.92 C 133.62 155.76 132.68 154.82 131.52 154.82 L 130.53 154.82 C 129.38 154.82 128.44 155.75 128.43 156.91 C 128.43 158.07 129.37 159.01 130.53 159.01 Z M 131.51 159.01 L 132.51 159.02 C 133.67 159.03 134.61 158.09 134.62 156.94 C 134.63 155.78 133.70 154.83 132.54 154.82 L 131.53 154.82 C 130.38 154.81 129.43 155.74 129.42 156.90 C 129.42 158.06 130.35 159.00 131.51 159.01 Z M 132.49 159.02 L 133.49 159.03 C 134.65 159.05 135.60 158.13 135.62 156.97 C 135.64 155.82 134.72 154.86 133.56 154.84 L 132.56 154.83 C 131.40 154.81 130.45 155.73 130.43 156.89 C 130.41 158.04 131.33 159.00 132.49 159.02 Z M 133.45 159.03 L 134.46 159.06 C 135.61 159.10 136.58 158.20 136.62 157.04 C 136.66 155.89 135.75 154.92 134.60 154.88 L 133.60 154.85 C 132.44 154.81 131.48 155.71 131.44 156.87 C 131.40 158.02 132.30 158.99 133.45 159.03 Z M 134.40 159.05 L 135.40 159.11 C 136.55 159.19 137.54 158.32 137.61 157.17 C 137.68 156.02 136.81 155.03 135.67 154.96 L 134.66 154.89 C 133.51 154.82 132.52 155.69 132.45 156.84 C 132.38 157.99 133.25 158.98 134.40 159.05 Z M 135.32 159.09 L 136.34 159.20 C 137.47 159.32 138.49 158.49 138.61 157.36 C 138.73 156.22 137.90 155.20 136.77 155.08 L 135.75 154.98 C 134.61 154.86 133.59 155.69 133.48 156.82 C 133.36 157.96 134.18 158.98 135.32 159.09 Z M 136.25 159.17 L 137.22 159.31 C 138.34 159.48 139.39 158.71 139.55 157.59 C 139.72 156.47 138.95 155.43 137.83 155.26 L 136.85 155.12 C 135.74 154.95 134.69 155.72 134.53 156.84 C 134.36 157.96 135.13 159.00 136.25 159.17 Z M 137.13 159.28 L 138.11 159.47 C 139.21 159.69 140.28 158.98 140.49 157.88 C 140.71 156.78 140.00 155.71 138.90 155.49 L 137.92 155.30 C 136.83 155.08 135.76 155.79 135.54 156.89 C 135.32 157.99 136.03 159.06 137.13 159.28 Z M 138.00 159.42 L 138.97 159.67 C 140.04 159.95 141.13 159.31 141.41 158.23 C 141.69 157.16 141.04 156.07 139.97 155.79 L 139.01 155.54 C 137.94 155.27 136.84 155.91 136.57 156.98 C 136.29 158.05 136.93 159.15 138.00 159.42 Z M 138.85 159.61 L 139.83 159.93 C 140.87 160.27 141.98 159.70 142.32 158.66 C 142.66 157.63 142.10 156.51 141.06 156.17 L 140.08 155.85 C 139.04 155.51 137.93 156.08 137.59 157.12 C 137.25 158.16 137.81 159.27 138.85 159.61 Z M 139.61 159.82 L 140.53 160.25 C 141.51 160.71 142.68 160.30 143.14 159.32 C 143.60 158.34 143.18 157.18 142.20 156.72 L 141.27 156.28 C 140.30 155.82 139.13 156.24 138.67 157.22 C 138.21 158.19 138.63 159.36 139.61 159.82 Z M 140.00 159.86 L 140.68 160.53 C 141.44 161.28 142.66 161.28 143.42 160.52 C 144.17 159.76 144.16 158.54 143.40 157.79 L 142.73 157.11 C 141.97 156.36 140.74 156.37 139.99 157.12 C 139.24 157.88 139.25 159.11 140.00 159.86 Z M 140.18 159.57 L 140.39 160.53 C 140.62 161.56 141.64 162.21 142.67 161.98 C 143.70 161.75 144.35 160.73 144.12 159.70 L 143.91 158.75 C 143.68 157.72 142.66 157.06 141.63 157.29 C 140.60 157.52 139.95 158.54 140.18 159.57 Z M 140.50 159.43 L 140.16 160.29 C 139.78 161.26 140.27 162.36 141.24 162.73 C 142.21 163.11 143.30 162.63 143.68 161.66 L 144.01 160.80 C 144.39 159.83 143.91 158.73 142.94 158.36 C 141.97 157.98 140.87 158.46 140.50 159.43 Z M 140.60 159.66 L 139.88 160.39 C 139.15 161.12 139.16 162.30 139.89 163.02 C 140.61 163.75 141.79 163.74 142.51 163.01 L 143.24 162.29 C 143.96 161.56 143.96 160.38 143.23 159.66 C 142.50 158.93 141.33 158.94 140.60 159.66 Z M 140.06 160.25 L 139.30 160.84 C 138.50 161.47 138.36 162.62 138.98 163.43 C 139.61 164.23 140.77 164.38 141.57 163.75 L 142.33 163.16 C 143.13 162.53 143.28 161.37 142.65 160.57 C 142.03 159.77 140.87 159.62 140.06 160.25 Z M 139.38 160.79 L 138.52 161.38 C 137.69 161.97 137.49 163.12 138.07 163.95 C 138.66 164.79 139.80 164.99 140.64 164.40 L 141.49 163.80 C 142.33 163.22 142.53 162.07 141.95 161.24 C 141.36 160.40 140.21 160.20 139.38 160.79 Z M 138.57 161.35 L 137.78 161.87 C 136.93 162.43 136.69 163.57 137.25 164.42 C 137.81 165.27 138.95 165.51 139.80 164.95 L 140.59 164.43 C 141.44 163.88 141.68 162.74 141.12 161.88 C 140.56 161.03 139.42 160.80 138.57 161.35 Z M 137.83 161.84 L 136.96 162.38 C 136.09 162.91 135.82 164.04 136.35 164.91 C 136.88 165.77 138.01 166.05 138.88 165.52 L 139.75 164.98 C 140.62 164.45 140.89 163.32 140.36 162.45 C 139.83 161.59 138.70 161.31 137.83 161.84 Z M 137.01 162.35 L 136.09 162.87 C 135.21 163.37 134.90 164.49 135.40 165.38 C 135.91 166.26 137.03 166.57 137.92 166.07 L 138.83 165.55 C 139.71 165.04 140.02 163.92 139.52 163.04 C 139.01 162.15 137.89 161.84 137.01 162.35 Z M 136.12 162.84 L 135.21 163.33 C 134.31 163.82 133.98 164.94 134.46 165.84 C 134.95 166.74 136.07 167.08 136.97 166.59 L 137.89 166.09 C 138.78 165.61 139.12 164.48 138.63 163.59 C 138.15 162.69 137.02 162.35 136.12 162.84 Z M 135.23 163.31 L 134.37 163.76 C 133.46 164.23 133.11 165.36 133.59 166.27 C 134.07 167.18 135.19 167.54 136.11 167.06 L 136.96 166.61 C 137.87 166.13 138.22 165.01 137.74 164.09 C 137.26 163.18 136.14 162.83 135.23 163.31 Z M 134.37 163.74 L 133.43 164.23 C 132.51 164.71 132.15 165.84 132.63 166.77 C 133.11 167.69 134.25 168.05 135.17 167.57 L 136.11 167.08 C 137.03 166.60 137.39 165.46 136.91 164.54 C 136.43 163.62 135.29 163.26 134.37 163.74 Z M 133.32 164.27 L 132.53 164.74 C 131.62 165.28 131.33 166.45 131.87 167.35 C 132.41 168.25 133.58 168.54 134.48 168.01 L 135.28 167.53 C 136.18 166.99 136.47 165.82 135.93 164.92 C 135.39 164.02 134.22 163.73 133.32 164.27 Z M 132.25 164.90 L 131.41 165.62 C 130.60 166.31 130.50 167.53 131.19 168.34 C 131.89 169.16 133.11 169.25 133.92 168.56 L 134.76 167.84 C 135.57 167.15 135.67 165.93 134.97 165.12 C 134.28 164.31 133.06 164.21 132.25 164.90 Z M 130.71 166.84 L 130.62 167.55 C 130.48 168.63 131.25 169.62 132.33 169.76 C 133.41 169.89 134.40 169.13 134.53 168.04 L 134.62 167.33 C 134.76 166.25 133.99 165.27 132.91 165.13 C 131.83 164.99 130.84 165.76 130.71 166.84 Z M 131.56 169.53 L 132.47 170.07 C 133.43 170.63 134.66 170.31 135.22 169.35 C 135.78 168.40 135.46 167.17 134.51 166.61 L 133.59 166.07 C 132.64 165.51 131.41 165.82 130.85 166.78 C 130.28 167.73 130.60 168.96 131.56 169.53 Z M 132.75 170.22 L 133.67 170.58 C 134.71 170.98 135.88 170.47 136.29 169.43 C 136.70 168.39 136.18 167.22 135.14 166.81 L 134.23 166.45 C 133.19 166.05 132.01 166.56 131.61 167.60 C 131.20 168.64 131.71 169.81 132.75 170.22 Z M 133.65 170.57 L 134.58 170.94 C 135.62 171.36 136.79 170.86 137.21 169.83 C 137.63 168.79 137.13 167.61 136.09 167.19 L 135.16 166.82 C 134.13 166.40 132.95 166.90 132.53 167.94 C 132.11 168.97 132.62 170.15 133.65 170.57 Z M 134.46 170.89 L 135.36 171.33 C 136.37 171.81 137.58 171.39 138.06 170.38 C 138.55 169.38 138.12 168.17 137.12 167.68 L 136.21 167.25 C 135.21 166.76 134.00 167.19 133.52 168.19 C 133.03 169.20 133.45 170.41 134.46 170.89 Z M 135.20 171.24 L 136.06 171.76 C 137.02 172.33 138.26 172.03 138.84 171.07 C 139.41 170.11 139.10 168.87 138.15 168.29 L 137.29 167.77 C 136.33 167.20 135.09 167.51 134.51 168.46 C 133.93 169.42 134.24 170.66 135.20 171.24 Z M 135.87 171.63 L 136.67 172.24 C 137.55 172.92 138.82 172.75 139.50 171.87 C 140.18 170.98 140.01 169.71 139.13 169.03 L 138.34 168.42 C 137.45 167.74 136.18 167.91 135.50 168.79 C 134.82 169.68 134.99 170.95 135.87 171.63 Z M 136.49 172.08 L 137.19 172.76 C 137.98 173.54 139.26 173.53 140.04 172.73 C 140.82 171.93 140.81 170.65 140.01 169.87 L 139.31 169.19 C 138.51 168.41 137.23 168.43 136.45 169.22 C 135.67 170.02 135.69 171.30 136.49 172.08 Z M 137.02 172.58 L 137.65 173.36 C 138.34 174.23 139.61 174.38 140.48 173.68 C 141.35 172.99 141.50 171.72 140.80 170.85 L 140.17 170.06 C 139.48 169.19 138.21 169.05 137.34 169.74 C 136.47 170.44 136.32 171.71 137.02 172.58 Z M 137.51 173.17 L 138.03 174.01 C 138.62 174.95 139.87 175.24 140.81 174.65 C 141.76 174.07 142.05 172.82 141.46 171.88 L 140.94 171.04 C 140.35 170.09 139.10 169.80 138.16 170.39 C 137.21 170.98 136.92 172.23 137.51 173.17 Z M 137.93 173.81 L 138.36 174.72 C 138.85 175.73 140.05 176.15 141.05 175.67 C 142.06 175.19 142.48 173.98 142.00 172.98 L 141.56 172.07 C 141.08 171.07 139.88 170.64 138.87 171.12 C 137.87 171.61 137.45 172.81 137.93 173.81 Z M 138.28 174.51 L 138.60 175.46 C 138.97 176.51 140.12 177.07 141.17 176.71 C 142.22 176.34 142.78 175.20 142.42 174.14 L 142.09 173.19 C 141.72 172.14 140.58 171.58 139.53 171.95 C 138.47 172.31 137.91 173.46 138.28 174.51 Z M 138.55 175.25 L 138.77 176.22 C 139.01 177.30 140.09 177.98 141.18 177.73 C 142.26 177.49 142.94 176.41 142.70 175.32 L 142.47 174.35 C 142.23 173.27 141.15 172.59 140.06 172.84 C 138.98 173.08 138.30 174.16 138.55 175.25 Z M 138.74 176.05 L 138.88 177.06 C 139.03 178.16 140.05 178.93 141.15 178.77 C 142.25 178.62 143.02 177.60 142.87 176.50 L 142.73 175.49 C 142.57 174.39 141.55 173.62 140.45 173.77 C 139.35 173.93 138.58 174.94 138.74 176.05 Z M 138.86 176.93 L 138.93 177.91 C 139.02 179.02 139.98 179.85 141.09 179.77 C 142.20 179.68 143.04 178.72 142.95 177.61 L 142.88 176.63 C 142.80 175.52 141.83 174.69 140.72 174.77 C 139.61 174.85 138.78 175.82 138.86 176.93 Z M 138.93 177.81 L 138.96 178.82 C 138.98 179.93 139.91 180.81 141.02 180.78 C 142.13 180.75 143.01 179.82 142.98 178.71 L 142.96 177.71 C 142.93 176.59 142.00 175.71 140.89 175.74 C 139.78 175.77 138.90 176.70 138.93 177.81 Z M 138.96 178.74 L 138.94 179.76 C 138.93 180.87 139.82 181.78 140.94 181.80 C 142.05 181.81 142.96 180.92 142.97 179.80 L 142.98 178.79 C 143.00 177.67 142.10 176.76 140.99 176.75 C 139.88 176.74 138.97 177.63 138.96 178.74 Z M 138.95 179.67 L 138.89 180.68 C 138.83 181.79 139.68 182.74 140.79 182.80 C 141.91 182.86 142.86 182.01 142.92 180.90 L 142.97 179.89 C 143.03 178.78 142.18 177.83 141.07 177.77 C 139.96 177.71 139.01 178.56 138.95 179.67 Z M 138.91 180.54 L 138.78 181.52 C 138.64 182.62 139.42 183.63 140.53 183.77 C 141.63 183.91 142.64 183.13 142.78 182.03 L 142.90 181.04 C 143.04 179.94 142.26 178.93 141.16 178.79 C 140.05 178.65 139.05 179.43 138.91 180.54 Z M 138.82 181.31 L 138.58 182.30 C 138.33 183.39 139.00 184.47 140.08 184.73 C 141.16 184.99 142.25 184.32 142.50 183.23 L 142.74 182.24 C 143.00 181.15 142.33 180.07 141.24 179.81 C 140.16 179.55 139.08 180.22 138.82 181.31 Z M 138.64 182.11 L 138.31 183.05 C 137.95 184.10 138.50 185.25 139.55 185.61 C 140.61 185.98 141.75 185.42 142.12 184.37 L 142.45 183.43 C 142.81 182.38 142.26 181.23 141.20 180.87 C 140.15 180.50 139.01 181.06 138.64 182.11 Z M 138.37 182.90 L 137.97 183.81 C 137.53 184.83 138.00 186.02 139.02 186.46 C 140.04 186.91 141.22 186.44 141.67 185.42 L 142.06 184.51 C 142.51 183.49 142.04 182.31 141.02 181.86 C 140.00 181.42 138.81 181.88 138.37 182.90 Z M 138.04 183.68 L 137.57 184.57 C 137.05 185.55 137.43 186.77 138.42 187.29 C 139.41 187.80 140.62 187.43 141.14 186.44 L 141.61 185.55 C 142.12 184.57 141.74 183.35 140.76 182.83 C 139.77 182.32 138.55 182.70 138.04 183.68 Z M 137.67 184.40 L 137.13 185.23 C 136.52 186.16 136.78 187.41 137.71 188.02 C 138.64 188.63 139.89 188.37 140.50 187.44 L 141.04 186.61 C 141.65 185.68 141.39 184.43 140.46 183.82 C 139.53 183.21 138.28 183.47 137.67 184.40 Z M 137.28 185.02 L 136.61 185.80 C 135.89 186.65 135.99 187.92 136.83 188.64 C 137.67 189.37 138.94 189.27 139.67 188.43 L 140.34 187.65 C 141.06 186.81 140.97 185.53 140.12 184.81 C 139.28 184.08 138.01 184.18 137.28 185.02 Z M 136.96 185.49 L 136.16 186.07 C 135.26 186.72 135.07 187.98 135.72 188.88 C 136.37 189.77 137.63 189.97 138.52 189.32 L 139.32 188.74 C 140.22 188.09 140.42 186.83 139.77 185.93 C 139.12 185.04 137.86 184.84 136.96 185.49 Z M 137.04 185.72 L 136.08 185.87 C 135.00 186.04 134.25 187.06 134.42 188.15 C 134.58 189.23 135.60 189.98 136.69 189.81 L 137.65 189.66 C 138.73 189.50 139.48 188.48 139.31 187.39 C 139.15 186.30 138.13 185.56 137.04 185.72 Z M 137.54 186.28 L 136.81 185.74 C 135.95 185.10 134.73 185.29 134.09 186.15 C 133.46 187.02 133.64 188.24 134.51 188.87 L 135.23 189.41 C 136.10 190.05 137.32 189.86 137.95 189.00 C 138.59 188.13 138.41 186.91 137.54 186.28 Z M 137.27 186.36 L 136.73 185.45 C 136.21 184.56 135.06 184.27 134.17 184.79 C 133.29 185.32 132.99 186.46 133.51 187.35 L 134.05 188.26 C 134.57 189.14 135.72 189.44 136.61 188.92 C 137.50 188.39 137.79 187.24 137.27 186.36 Z M 136.77 185.63 L 136.34 184.72 C 135.91 183.81 134.83 183.42 133.92 183.85 C 133.01 184.27 132.62 185.36 133.05 186.27 L 133.48 187.18 C 133.91 188.09 134.99 188.48 135.90 188.05 C 136.81 187.62 137.20 186.53 136.77 185.63 Z M 136.35 184.76 L 136.12 184.26 C 135.72 183.34 134.66 182.93 133.74 183.33 C 132.83 183.74 132.42 184.80 132.82 185.71 L 133.04 186.22 C 133.45 187.13 134.51 187.55 135.43 187.14 C 136.34 186.74 136.75 185.67 136.35 184.76 Z"
      fill="black"
      fill-rule="nonzero" /><path d="M 120.65 175.93 L 121.57 175.70 C 122.63 175.44 123.27 174.37 123.01 173.31 C 122.74 172.25 121.67 171.61 120.61 171.87 L 119.69 172.10 C 118.63 172.37 117.99 173.44 118.26 174.50 C 118.52 175.56 119.59 176.20 120.65 175.93 Z M 121.54 175.85 L 122.54 175.63 C 123.68 175.38 124.40 174.26 124.15 173.12 C 123.90 171.98 122.78 171.26 121.64 171.51 L 120.64 171.73 C 119.50 171.98 118.78 173.10 119.03 174.24 C 119.28 175.38 120.40 176.09 121.54 175.85 Z M 122.47 175.73 L 123.48 175.55 C 124.68 175.34 125.47 174.21 125.26 173.02 C 125.06 171.82 123.92 171.03 122.73 171.23 L 121.71 171.41 C 120.52 171.62 119.72 172.75 119.93 173.95 C 120.14 175.14 121.28 175.94 122.47 175.73 Z M 123.43 175.58 L 124.45 175.44 C 125.66 175.26 126.49 174.14 126.32 172.92 C 126.14 171.71 125.02 170.88 123.81 171.05 L 122.79 171.20 C 121.58 171.38 120.74 172.50 120.91 173.71 C 121.09 174.92 122.21 175.76 123.43 175.58 Z M 124.41 175.45 L 125.39 175.32 C 126.61 175.16 127.47 174.05 127.31 172.83 C 127.15 171.61 126.03 170.75 124.82 170.91 L 123.84 171.04 C 122.62 171.20 121.76 172.31 121.92 173.53 C 122.08 174.75 123.20 175.61 124.41 175.45 Z M 125.37 175.33 L 126.40 175.21 C 127.62 175.06 128.49 173.95 128.34 172.72 C 128.20 171.50 127.08 170.63 125.86 170.78 L 124.84 170.90 C 123.61 171.05 122.74 172.16 122.89 173.38 C 123.04 174.61 124.15 175.48 125.37 175.33 Z M 126.37 175.22 L 127.31 175.11 C 128.54 174.98 129.42 173.88 129.29 172.65 C 129.15 171.42 128.05 170.53 126.82 170.67 L 125.89 170.77 C 124.66 170.90 123.77 172.01 123.91 173.24 C 124.04 174.46 125.14 175.35 126.37 175.22 Z M 127.29 175.12 L 128.27 175.03 C 129.50 174.90 130.40 173.80 130.28 172.57 C 130.15 171.33 129.05 170.43 127.82 170.56 L 126.84 170.66 C 125.61 170.78 124.71 171.88 124.83 173.11 C 124.95 174.35 126.06 175.25 127.29 175.12 Z M 128.26 175.03 L 129.27 174.94 C 130.51 174.82 131.42 173.72 131.30 172.48 C 131.18 171.24 130.08 170.33 128.84 170.45 L 127.83 170.55 C 126.59 170.67 125.68 171.77 125.80 173.01 C 125.92 174.25 127.02 175.15 128.26 175.03 Z M 129.27 174.94 L 130.26 174.85 C 131.50 174.73 132.41 173.63 132.29 172.38 C 132.17 171.14 131.07 170.23 129.82 170.35 L 128.84 170.45 C 127.60 170.57 126.69 171.67 126.81 172.91 C 126.93 174.15 128.03 175.06 129.27 174.94 Z M 130.27 174.85 L 131.28 174.75 C 132.52 174.62 133.42 173.51 133.30 172.27 C 133.17 171.03 132.06 170.12 130.82 170.25 L 129.81 170.35 C 128.57 170.48 127.67 171.59 127.79 172.83 C 127.92 174.07 129.03 174.97 130.27 174.85 Z M 131.30 174.74 L 132.27 174.64 C 133.52 174.50 134.41 173.39 134.28 172.15 C 134.14 170.90 133.03 170.01 131.78 170.14 L 130.81 170.25 C 129.56 170.39 128.67 171.50 128.80 172.74 C 128.94 173.98 130.05 174.88 131.30 174.74 Z M 132.27 174.64 L 133.28 174.53 C 134.52 174.40 135.42 173.28 135.28 172.04 C 135.15 170.80 134.03 169.90 132.79 170.03 L 131.79 170.14 C 130.55 170.28 129.65 171.39 129.78 172.63 C 129.92 173.88 131.03 174.77 132.27 174.64 Z M 133.25 174.53 L 134.24 174.43 C 135.49 174.31 136.39 173.21 136.27 171.96 C 136.15 170.72 135.04 169.81 133.80 169.94 L 132.81 170.03 C 131.57 170.15 130.66 171.26 130.78 172.50 C 130.91 173.75 132.01 174.65 133.25 174.53 Z M 134.23 174.43 L 135.22 174.34 C 136.46 174.23 137.38 173.13 137.26 171.89 C 137.15 170.65 136.05 169.73 134.81 169.85 L 133.82 169.94 C 132.58 170.05 131.66 171.15 131.78 172.39 C 131.89 173.63 132.99 174.55 134.23 174.43 Z M 135.23 174.34 L 136.23 174.25 C 137.47 174.13 138.38 173.03 138.27 171.79 C 138.15 170.55 137.05 169.64 135.81 169.76 L 134.81 169.85 C 133.57 169.97 132.66 171.06 132.77 172.30 C 132.89 173.54 133.99 174.45 135.23 174.34 Z M 136.24 174.24 L 137.23 174.14 C 138.47 174.02 139.37 172.92 139.25 171.68 C 139.13 170.44 138.02 169.54 136.79 169.66 L 135.80 169.76 C 134.56 169.88 133.66 170.99 133.78 172.22 C 133.90 173.46 135.01 174.36 136.24 174.24 Z M 137.24 174.14 L 138.24 174.04 C 139.48 173.91 140.37 172.81 140.25 171.57 C 140.12 170.34 139.02 169.44 137.78 169.57 L 136.78 169.67 C 135.55 169.79 134.65 170.90 134.77 172.13 C 134.90 173.37 136.00 174.26 137.24 174.14 Z M 138.24 174.03 L 139.23 173.93 C 140.46 173.81 141.36 172.71 141.23 171.48 C 141.11 170.24 140.01 169.35 138.78 169.47 L 137.79 169.57 C 136.56 169.69 135.66 170.79 135.78 172.03 C 135.91 173.26 137.01 174.15 138.24 174.03 Z M 139.22 173.92 L 140.21 173.83 C 141.44 173.70 142.34 172.61 142.21 171.38 C 142.09 170.15 141.00 169.26 139.77 169.38 L 138.78 169.48 C 137.55 169.60 136.66 170.69 136.78 171.92 C 136.90 173.15 137.99 174.05 139.22 173.92 Z M 140.21 173.82 L 141.22 173.72 C 142.44 173.60 143.34 172.51 143.22 171.29 C 143.10 170.06 142.01 169.17 140.79 169.29 L 139.77 169.39 C 138.55 169.50 137.65 170.59 137.77 171.82 C 137.89 173.04 138.98 173.94 140.21 173.82 Z M 141.21 173.71 L 142.23 173.62 C 143.44 173.50 144.34 172.42 144.22 171.20 C 144.11 169.98 143.02 169.08 141.80 169.20 L 140.79 169.30 C 139.57 169.41 138.68 170.50 138.79 171.72 C 138.91 172.94 139.99 173.83 141.21 173.71 Z M 142.22 173.60 L 143.22 173.51 C 144.44 173.40 145.33 172.32 145.21 171.11 C 145.10 169.89 144.02 169.00 142.81 169.12 L 141.81 169.21 C 140.59 169.32 139.70 170.40 139.82 171.61 C 139.93 172.83 141.01 173.72 142.22 173.60 Z M 143.22 173.50 L 144.22 173.41 C 145.43 173.29 146.32 172.23 146.20 171.02 C 146.09 169.81 145.02 168.92 143.82 169.03 L 142.81 169.13 C 141.61 169.24 140.72 170.31 140.83 171.51 C 140.94 172.72 142.01 173.61 143.22 173.50 Z M 144.21 173.39 L 145.22 173.30 C 146.42 173.19 147.31 172.13 147.20 170.93 C 147.09 169.73 146.03 168.85 144.83 168.96 L 143.82 169.05 C 142.62 169.16 141.74 170.22 141.84 171.42 C 141.95 172.62 143.01 173.50 144.21 173.39 Z M 145.22 173.29 L 146.18 173.20 C 147.37 173.09 148.25 172.04 148.14 170.85 C 148.03 169.65 146.98 168.78 145.79 168.88 L 144.83 168.97 C 143.64 169.08 142.76 170.13 142.87 171.32 C 142.98 172.52 144.03 173.40 145.22 173.29 Z M 146.18 173.18 L 147.20 173.09 C 148.38 172.98 149.25 171.93 149.14 170.75 C 149.03 169.57 147.98 168.70 146.80 168.81 L 145.78 168.90 C 144.60 169.01 143.73 170.06 143.84 171.24 C 143.95 172.42 145.00 173.29 146.18 173.18 Z M 147.20 173.07 L 148.18 172.98 C 149.35 172.87 150.21 171.82 150.10 170.65 C 149.98 169.48 148.94 168.62 147.77 168.73 L 146.79 168.82 C 145.62 168.94 144.76 169.98 144.87 171.15 C 144.99 172.33 146.03 173.19 147.20 173.07 Z M 148.18 172.96 L 149.12 172.87 C 150.28 172.75 151.13 171.72 151.01 170.55 C 150.90 169.39 149.86 168.54 148.70 168.66 L 147.77 168.75 C 146.60 168.86 145.75 169.90 145.87 171.06 C 145.98 172.22 147.02 173.07 148.18 172.96 Z M 149.10 172.85 L 150.12 172.76 C 151.27 172.65 152.13 171.64 152.02 170.48 C 151.92 169.33 150.90 168.48 149.75 168.58 L 148.72 168.67 C 147.57 168.78 146.72 169.80 146.82 170.95 C 146.92 172.10 147.94 172.95 149.10 172.85 Z M 150.09 172.74 L 151.12 172.66 C 152.26 172.58 153.12 171.58 153.03 170.44 C 152.95 169.29 151.95 168.43 150.81 168.52 L 149.78 168.60 C 148.63 168.68 147.78 169.68 147.86 170.83 C 147.95 171.97 148.95 172.83 150.09 172.74 Z M 151.09 172.65 L 152.13 172.58 C 153.26 172.51 154.13 171.53 154.06 170.40 C 153.98 169.26 153.01 168.40 151.87 168.47 L 150.83 168.54 C 149.70 168.61 148.83 169.59 148.91 170.72 C 148.98 171.86 149.96 172.72 151.09 172.65 Z M 152.10 172.57 L 153.09 172.52 C 154.22 172.46 155.09 171.51 155.04 170.38 C 154.98 169.25 154.02 168.38 152.90 168.44 L 151.90 168.49 C 150.77 168.54 149.90 169.50 149.96 170.63 C 150.01 171.75 150.97 172.62 152.10 172.57 Z M 153.04 172.49 L 154.07 172.47 C 155.18 172.45 156.07 171.53 156.05 170.42 C 156.02 169.31 155.10 168.42 153.99 168.44 L 152.96 168.46 C 151.84 168.49 150.96 169.41 150.98 170.52 C 151.00 171.63 151.92 172.52 153.04 172.49 Z M 153.99 172.44 L 155.04 172.47 C 156.13 172.49 157.04 171.62 157.07 170.53 C 157.09 169.43 156.22 168.53 155.13 168.50 L 154.08 168.48 C 152.98 168.45 152.07 169.32 152.05 170.41 C 152.02 171.51 152.89 172.42 153.99 172.44 Z M 154.44 172.33 L 155.01 172.53 C 156.03 172.88 157.14 172.34 157.50 171.31 C 157.85 170.29 157.30 169.18 156.28 168.82 L 155.72 168.63 C 154.70 168.28 153.58 168.82 153.23 169.84 C 152.88 170.87 153.42 171.98 154.44 172.33 Z M 155.02 168.84 L 154.00 169.19 C 152.99 169.53 152.44 170.63 152.79 171.64 C 153.13 172.66 154.23 173.20 155.24 172.86 L 156.26 172.51 C 157.28 172.17 157.82 171.07 157.48 170.06 C 157.13 169.04 156.04 168.50 155.02 168.84 Z M 154.36 169.14 L 153.38 169.28 C 152.34 169.42 151.62 170.38 151.76 171.42 C 151.90 172.46 152.86 173.18 153.90 173.04 L 154.88 172.90 C 155.92 172.76 156.64 171.80 156.50 170.76 C 156.36 169.72 155.40 169.00 154.36 169.14 Z M 153.51 169.32 L 152.48 169.39 C 151.47 169.46 150.70 170.34 150.77 171.36 C 150.84 172.38 151.72 173.14 152.74 173.07 L 153.77 173.00 C 154.79 172.93 155.55 172.05 155.48 171.03 C 155.41 170.01 154.53 169.25 153.51 169.32 Z M 152.51 169.42 L 152.24 169.44 C 151.24 169.49 150.47 170.35 150.53 171.35 C 150.58 172.35 151.44 173.11 152.44 173.06 L 152.71 173.04 C 153.71 172.99 154.48 172.13 154.42 171.13 C 154.37 170.13 153.51 169.36 152.51 169.42 Z"
      fill="black"
      fill-rule="nonzero" /><path d="M 151.58 150.95 L 152.53 150.71 C 153.57 150.43 154.19 149.37 153.92 148.33 C 153.65 147.29 152.59 146.66 151.55 146.93 L 150.60 147.18 C 149.56 147.45 148.93 148.51 149.20 149.55 C 149.47 150.60 150.54 151.22 151.58 150.95 Z M 152.49 150.82 L 153.47 150.60 C 154.57 150.35 155.27 149.25 155.02 148.14 C 154.77 147.04 153.67 146.35 152.56 146.60 L 151.58 146.82 C 150.48 147.07 149.78 148.16 150.03 149.27 C 150.28 150.37 151.38 151.07 152.49 150.82 Z M 153.37 150.69 L 154.38 150.52 C 155.54 150.33 156.32 149.23 156.13 148.07 C 155.93 146.91 154.84 146.13 153.68 146.33 L 152.66 146.50 C 151.51 146.69 150.72 147.79 150.92 148.95 C 151.11 150.11 152.21 150.89 153.37 150.69 Z M 154.29 150.57 L 155.31 150.45 C 156.49 150.30 157.33 149.23 157.19 148.04 C 157.05 146.86 155.97 146.02 154.79 146.16 L 153.77 146.28 C 152.59 146.43 151.75 147.50 151.89 148.68 C 152.03 149.87 153.11 150.71 154.29 150.57 Z M 155.25 150.47 L 156.22 150.37 C 157.42 150.26 158.30 149.20 158.18 148.01 C 158.07 146.81 157.01 145.93 155.81 146.05 L 154.84 146.14 C 153.65 146.25 152.77 147.31 152.88 148.51 C 153.00 149.70 154.06 150.58 155.25 150.47 Z M 156.19 150.39 L 157.20 150.31 C 158.40 150.21 159.30 149.16 159.20 147.96 C 159.11 146.76 158.05 145.86 156.85 145.95 L 155.85 146.03 C 154.64 146.13 153.75 147.18 153.84 148.38 C 153.94 149.59 154.99 150.48 156.19 150.39 Z M 157.17 150.31 L 158.14 150.25 C 159.34 150.17 160.26 149.13 160.18 147.92 C 160.10 146.72 159.06 145.80 157.85 145.88 L 156.88 145.95 C 155.68 146.03 154.76 147.07 154.84 148.27 C 154.92 149.48 155.96 150.39 157.17 150.31 Z M 158.12 150.25 L 159.10 150.20 C 160.30 150.13 161.23 149.09 161.16 147.89 C 161.09 146.68 160.05 145.76 158.85 145.82 L 157.87 145.88 C 156.66 145.95 155.74 146.98 155.81 148.19 C 155.88 149.40 156.91 150.32 158.12 150.25 Z M 159.08 150.20 L 160.10 150.15 C 161.31 150.09 162.24 149.06 162.18 147.85 C 162.12 146.64 161.10 145.71 159.89 145.77 L 158.86 145.82 C 157.65 145.88 156.72 146.91 156.78 148.12 C 156.84 149.33 157.87 150.26 159.08 150.20 Z M 160.08 150.15 L 161.07 150.11 C 162.28 150.06 163.22 149.04 163.17 147.84 C 163.13 146.63 162.11 145.69 160.90 145.73 L 159.91 145.77 C 158.70 145.82 157.76 146.84 157.81 148.05 C 157.85 149.26 158.87 150.20 160.08 150.15 Z M 161.05 150.11 L 162.05 150.08 C 163.26 150.05 164.21 149.04 164.18 147.83 C 164.14 146.63 163.14 145.67 161.93 145.71 L 160.93 145.73 C 159.72 145.77 158.76 146.77 158.80 147.98 C 158.83 149.19 159.84 150.14 161.05 150.11 Z M 162.02 150.08 L 163.01 150.07 C 164.22 150.05 165.19 149.06 165.17 147.85 C 165.15 146.64 164.16 145.68 162.95 145.69 L 161.96 145.71 C 160.75 145.72 159.78 146.72 159.80 147.93 C 159.82 149.13 160.81 150.10 162.02 150.08 Z M 162.99 150.06 L 163.99 150.06 C 165.20 150.05 166.17 149.07 166.16 147.87 C 166.16 146.66 165.18 145.69 163.97 145.69 L 162.97 145.70 C 161.77 145.70 160.79 146.69 160.80 147.89 C 160.81 149.10 161.79 150.07 162.99 150.06 Z M 163.98 150.05 L 165.00 150.05 C 166.20 150.05 167.17 149.08 167.17 147.87 C 167.17 146.67 166.20 145.70 165.00 145.70 L 163.98 145.70 C 162.78 145.70 161.81 146.68 161.81 147.88 C 161.81 149.08 162.78 150.05 163.98 150.05 Z M 165.00 150.04 L 166.00 150.04 C 167.19 150.04 168.17 149.07 168.17 147.88 C 168.17 146.68 167.19 145.71 166.00 145.71 L 165.00 145.71 C 163.80 145.71 162.83 146.68 162.83 147.88 C 162.83 149.07 163.80 150.04 165.00 150.04 Z M 166.00 150.04 L 167.00 150.04 C 168.19 150.04 169.16 149.07 169.16 147.88 C 169.16 146.68 168.19 145.71 167.00 145.71 L 166.00 145.71 C 164.80 145.71 163.84 146.68 163.84 147.88 C 163.84 149.07 164.80 150.04 166.00 150.04 Z M 167.00 150.03 L 168.00 150.03 C 169.19 150.03 170.15 149.06 170.15 147.88 C 170.15 146.69 169.19 145.72 168.00 145.72 L 167.00 145.72 C 165.81 145.72 164.85 146.69 164.85 147.87 C 164.85 149.06 165.81 150.03 167.00 150.03 Z M 167.99 150.01 L 168.99 150.02 C 170.17 150.02 171.13 149.07 171.14 147.89 C 171.14 146.70 170.19 145.74 169.01 145.74 L 168.01 145.74 C 166.83 145.73 165.87 146.69 165.86 147.87 C 165.86 149.05 166.81 150.01 167.99 150.01 Z M 168.98 150.00 L 169.97 150.01 C 171.15 150.02 172.11 149.08 172.12 147.91 C 172.13 146.74 171.19 145.78 170.02 145.77 L 169.02 145.76 C 167.85 145.74 166.89 146.68 166.88 147.86 C 166.87 149.03 167.81 149.99 168.98 150.00 Z M 169.95 149.99 L 170.95 150.02 C 172.11 150.04 173.07 149.12 173.10 147.96 C 173.12 146.79 172.20 145.83 171.04 145.81 L 170.04 145.78 C 168.88 145.76 167.92 146.68 167.89 147.84 C 167.87 149.01 168.79 149.97 169.95 149.99 Z M 170.93 150.00 L 171.93 150.03 C 173.08 150.07 174.04 149.16 174.08 148.01 C 174.12 146.86 173.21 145.89 172.06 145.85 L 171.06 145.82 C 169.91 145.79 168.94 146.69 168.90 147.84 C 168.87 149.00 169.77 149.96 170.93 150.00 Z M 171.91 150.02 L 172.93 150.06 C 174.07 150.11 175.04 149.22 175.09 148.07 C 175.13 146.93 174.24 145.96 173.10 145.91 L 172.08 145.87 C 170.93 145.82 169.97 146.71 169.92 147.86 C 169.87 149.00 170.76 149.97 171.91 150.02 Z M 172.90 150.04 L 173.91 150.10 C 175.05 150.16 176.02 149.29 176.08 148.15 C 176.15 147.02 175.28 146.05 174.14 145.98 L 173.13 145.93 C 171.99 145.86 171.02 146.74 170.96 147.87 C 170.89 149.01 171.76 149.98 172.90 150.04 Z M 173.86 150.08 L 174.85 150.16 C 175.98 150.25 176.97 149.41 177.06 148.28 C 177.15 147.16 176.31 146.17 175.18 146.08 L 174.19 146.00 C 173.06 145.91 172.07 146.75 171.98 147.88 C 171.89 149.00 172.73 149.99 173.86 150.08 Z M 174.78 150.14 L 175.80 150.26 C 176.91 150.39 177.93 149.59 178.06 148.48 C 178.19 147.36 177.39 146.35 176.27 146.22 L 175.25 146.10 C 174.13 145.97 173.12 146.77 172.99 147.88 C 172.86 149.00 173.66 150.01 174.78 150.14 Z M 175.75 150.24 L 176.67 150.38 C 177.78 150.53 178.81 149.76 178.96 148.66 C 179.12 147.55 178.35 146.53 177.25 146.37 L 176.32 146.24 C 175.21 146.08 174.19 146.85 174.03 147.95 C 173.87 149.06 174.64 150.09 175.75 150.24 Z M 176.66 150.36 L 177.61 150.50 C 178.70 150.67 179.73 149.92 179.90 148.82 C 180.06 147.72 179.31 146.70 178.21 146.53 L 177.26 146.38 C 176.17 146.22 175.14 146.97 174.97 148.07 C 174.81 149.17 175.56 150.19 176.66 150.36 Z M 177.59 150.49 L 178.61 150.65 C 179.70 150.83 180.72 150.09 180.90 149.01 C 181.08 147.92 180.34 146.89 179.25 146.71 L 178.23 146.55 C 177.14 146.37 176.12 147.11 175.94 148.19 C 175.76 149.28 176.50 150.31 177.59 150.49 Z M 178.59 150.64 L 179.59 150.82 C 180.67 151.01 181.70 150.29 181.89 149.21 C 182.08 148.13 181.36 147.10 180.28 146.91 L 179.28 146.73 C 178.20 146.54 177.17 147.26 176.98 148.34 C 176.78 149.42 177.51 150.45 178.59 150.64 Z M 179.54 150.80 L 180.53 151.00 C 181.60 151.21 182.64 150.52 182.85 149.45 C 183.07 148.38 182.38 147.34 181.31 147.12 L 180.32 146.92 C 179.25 146.71 178.21 147.40 177.99 148.47 C 177.78 149.54 178.47 150.58 179.54 150.80 Z M 180.37 150.94 L 181.47 151.26 C 182.51 151.57 183.60 150.97 183.90 149.93 C 184.20 148.89 183.61 147.80 182.57 147.50 L 181.47 147.18 C 180.43 146.87 179.34 147.47 179.03 148.51 C 178.73 149.55 179.33 150.64 180.37 150.94 Z M 180.60 150.72 L 181.12 151.27 C 181.86 152.05 183.10 152.08 183.88 151.34 C 184.66 150.60 184.69 149.37 183.95 148.59 L 183.43 148.04 C 182.69 147.26 181.46 147.23 180.68 147.97 C 179.90 148.71 179.86 149.94 180.60 150.72 Z M 180.76 149.10 L 180.34 150.00 C 179.89 150.98 180.31 152.15 181.30 152.61 C 182.28 153.06 183.44 152.63 183.90 151.65 L 184.31 150.75 C 184.77 149.77 184.34 148.61 183.36 148.15 C 182.38 147.70 181.21 148.12 180.76 149.10 Z M 180.91 149.26 L 180.17 149.83 C 179.30 150.50 179.14 151.74 179.81 152.61 C 180.48 153.47 181.72 153.64 182.59 152.97 L 183.33 152.40 C 184.20 151.73 184.36 150.48 183.69 149.62 C 183.02 148.75 181.78 148.59 180.91 149.26 Z M 180.33 149.70 L 179.42 150.26 C 178.48 150.84 178.19 152.07 178.77 153.01 C 179.35 153.95 180.58 154.24 181.52 153.66 L 182.43 153.10 C 183.37 152.52 183.66 151.29 183.08 150.35 C 182.50 149.41 181.27 149.12 180.33 149.70 Z M 179.33 150.30 L 178.53 150.86 C 177.61 151.49 177.38 152.74 178.01 153.66 C 178.64 154.57 179.90 154.80 180.81 154.17 L 181.62 153.61 C 182.53 152.98 182.76 151.73 182.13 150.81 C 181.50 149.90 180.24 149.67 179.33 150.30 Z M 178.40 150.93 L 177.61 151.57 C 176.74 152.27 176.60 153.55 177.30 154.42 C 178.00 155.29 179.28 155.43 180.15 154.73 L 180.94 154.09 C 181.81 153.39 181.95 152.11 181.25 151.24 C 180.54 150.37 179.27 150.23 178.40 150.93 Z M 177.48 151.67 L 176.72 152.38 C 175.90 153.15 175.87 154.44 176.64 155.26 C 177.42 156.08 178.71 156.12 179.53 155.34 L 180.28 154.63 C 181.10 153.86 181.14 152.57 180.36 151.75 C 179.59 150.93 178.30 150.89 177.48 151.67 Z M 176.60 152.49 L 175.92 153.26 C 175.16 154.10 175.23 155.39 176.07 156.15 C 176.91 156.90 178.21 156.83 178.96 155.99 L 179.65 155.23 C 180.41 154.39 180.34 153.09 179.49 152.34 C 178.65 151.58 177.36 151.65 176.60 152.49 Z M 175.81 153.38 L 175.22 154.16 C 174.54 155.06 174.71 156.35 175.62 157.03 C 176.52 157.72 177.81 157.54 178.49 156.64 L 179.08 155.86 C 179.76 154.96 179.58 153.67 178.68 152.99 C 177.78 152.30 176.49 152.48 175.81 153.38 Z M 175.10 154.33 L 174.58 155.19 C 173.99 156.16 174.30 157.42 175.26 158.01 C 176.23 158.60 177.50 158.29 178.09 157.32 L 178.61 156.46 C 179.20 155.50 178.89 154.23 177.92 153.64 C 176.95 153.05 175.69 153.36 175.10 154.33 Z M 174.47 155.38 L 174.05 156.27 C 173.57 157.30 174.01 158.52 175.04 159.00 C 176.07 159.49 177.29 159.05 177.78 158.02 L 178.20 157.13 C 178.68 156.10 178.24 154.88 177.21 154.39 C 176.18 153.91 174.95 154.35 174.47 155.38 Z M 173.99 156.40 L 173.65 157.30 C 173.24 158.36 173.76 159.55 174.83 159.96 C 175.89 160.37 177.08 159.85 177.49 158.78 L 177.84 157.89 C 178.25 156.82 177.72 155.63 176.66 155.22 C 175.60 154.81 174.40 155.34 173.99 156.40 Z M 173.60 157.41 L 173.29 158.37 C 172.95 159.46 173.55 160.62 174.64 160.97 C 175.72 161.31 176.89 160.71 177.23 159.63 L 177.54 158.67 C 177.88 157.58 177.28 156.42 176.20 156.07 C 175.11 155.73 173.95 156.33 173.60 157.41 Z M 173.25 158.51 L 173.00 159.53 C 172.74 160.65 173.42 161.77 174.54 162.03 C 175.65 162.30 176.77 161.61 177.03 160.50 L 177.28 159.48 C 177.55 158.37 176.86 157.25 175.75 156.98 C 174.63 156.72 173.52 157.40 173.25 158.51 Z M 172.97 159.68 L 172.80 160.70 C 172.61 161.83 173.37 162.90 174.50 163.09 C 175.64 163.28 176.71 162.52 176.90 161.39 L 177.07 160.36 C 177.26 159.23 176.49 158.16 175.36 157.97 C 174.23 157.78 173.16 158.54 172.97 159.68 Z M 172.78 160.80 L 172.67 161.76 C 172.53 162.90 173.35 163.93 174.49 164.07 C 175.63 164.20 176.67 163.39 176.80 162.25 L 176.91 161.29 C 177.05 160.15 176.23 159.11 175.09 158.98 C 173.95 158.84 172.92 159.66 172.78 160.80 Z M 172.66 161.84 L 172.58 162.88 C 172.49 164.03 173.34 165.03 174.49 165.12 C 175.64 165.21 176.64 164.35 176.73 163.21 L 176.81 162.16 C 176.90 161.02 176.04 160.01 174.90 159.92 C 173.75 159.84 172.75 160.69 172.66 161.84 Z M 172.57 162.97 L 172.54 163.91 C 172.50 165.06 173.40 166.02 174.55 166.06 C 175.70 166.10 176.67 165.20 176.71 164.05 L 176.74 163.12 C 176.78 161.96 175.87 161.00 174.72 160.96 C 173.57 160.92 172.61 161.82 172.57 162.97 Z M 172.54 163.96 L 172.53 164.93 C 172.52 166.08 173.44 167.02 174.59 167.03 C 175.74 167.04 176.69 166.12 176.70 164.96 L 176.71 164.00 C 176.72 162.84 175.79 161.90 174.64 161.89 C 173.49 161.88 172.55 162.81 172.54 163.96 Z M 172.53 164.94 L 172.52 165.97 C 172.52 167.12 173.46 168.05 174.61 168.06 C 175.76 168.06 176.70 167.12 176.70 165.97 L 176.70 164.95 C 176.70 163.79 175.77 162.86 174.61 162.86 C 173.46 162.86 172.53 163.79 172.53 164.94 Z M 172.52 165.97 L 172.52 166.97 C 172.52 168.12 173.46 169.06 174.61 169.06 C 175.76 169.06 176.70 168.12 176.70 166.97 L 176.70 165.97 C 176.70 164.82 175.76 163.88 174.61 163.88 C 173.46 163.88 172.52 164.82 172.52 165.97 Z M 172.52 166.97 L 172.52 167.99 C 172.52 169.14 173.46 170.07 174.61 170.07 C 175.76 170.07 176.70 169.14 176.70 167.98 L 176.70 166.97 C 176.70 165.82 175.76 164.88 174.61 164.88 C 173.46 164.88 172.52 165.82 172.52 166.97 Z M 172.52 168.00 L 172.53 169.00 C 172.54 170.16 173.49 171.08 174.64 171.07 C 175.79 171.06 176.72 170.12 176.71 168.97 L 176.70 167.97 C 176.69 166.81 175.75 165.89 174.59 165.90 C 173.44 165.91 172.51 166.85 172.52 168.00 Z M 172.54 169.07 L 172.58 170.06 C 172.63 171.21 173.60 172.11 174.75 172.06 C 175.90 172.01 176.80 171.04 176.75 169.88 L 176.71 168.90 C 176.66 167.74 175.68 166.85 174.53 166.90 C 173.38 166.95 172.49 167.92 172.54 169.07 Z M 172.58 170.17 L 172.68 171.16 C 172.79 172.31 173.81 173.15 174.96 173.04 C 176.10 172.94 176.94 171.92 176.84 170.77 L 176.74 169.78 C 176.63 168.63 175.61 167.79 174.46 167.90 C 173.32 168.00 172.48 169.02 172.58 170.17 Z M 172.69 171.29 L 172.85 172.28 C 173.03 173.42 174.09 174.20 175.23 174.02 C 176.37 173.85 177.15 172.78 176.97 171.64 L 176.82 170.65 C 176.64 169.51 175.58 168.73 174.44 168.90 C 173.30 169.08 172.52 170.15 172.69 171.29 Z M 172.87 172.40 L 173.08 173.37 C 173.32 174.50 174.43 175.22 175.56 174.98 C 176.68 174.74 177.40 173.63 177.16 172.50 L 176.95 171.53 C 176.71 170.40 175.61 169.68 174.48 169.92 C 173.35 170.16 172.63 171.27 172.87 172.40 Z M 173.09 173.44 L 173.34 174.42 C 173.62 175.54 174.75 176.22 175.87 175.94 C 176.99 175.66 177.67 174.53 177.39 173.41 L 177.15 172.44 C 176.87 171.32 175.73 170.64 174.62 170.91 C 173.50 171.19 172.82 172.33 173.09 173.44 Z M 173.35 174.46 L 173.61 175.43 C 173.92 176.54 175.06 177.20 176.18 176.90 C 177.29 176.59 177.94 175.45 177.64 174.33 L 177.38 173.37 C 177.07 172.25 175.93 171.60 174.81 171.90 C 173.70 172.20 173.05 173.35 173.35 174.46 Z M 173.63 175.48 L 173.91 176.43 C 174.24 177.54 175.40 178.17 176.51 177.84 C 177.61 177.51 178.24 176.35 177.91 175.24 L 177.63 174.29 C 177.30 173.18 176.14 172.55 175.03 172.88 C 173.93 173.21 173.30 174.37 173.63 175.48 Z M 173.93 176.49 L 174.24 177.44 C 174.60 178.53 175.78 179.13 176.87 178.77 C 177.97 178.41 178.56 177.23 178.20 176.13 L 177.89 175.18 C 177.53 174.09 176.35 173.49 175.26 173.85 C 174.16 174.21 173.57 175.39 173.93 176.49 Z M 174.27 177.50 L 174.60 178.41 C 175.00 179.50 176.19 180.05 177.27 179.65 C 178.35 179.26 178.91 178.06 178.51 176.98 L 178.18 176.07 C 177.78 174.99 176.59 174.43 175.51 174.83 C 174.42 175.22 173.87 176.42 174.27 177.50 Z M 174.65 178.52 L 175.04 179.42 C 175.49 180.48 176.72 180.96 177.77 180.51 C 178.82 180.05 179.31 178.83 178.86 177.78 L 178.47 176.87 C 178.01 175.82 176.79 175.33 175.73 175.79 C 174.68 176.24 174.19 177.47 174.65 178.52 Z M 175.12 179.58 L 175.60 180.48 C 176.14 181.49 177.40 181.87 178.41 181.33 C 179.42 180.79 179.80 179.54 179.26 178.53 L 178.77 177.62 C 178.23 176.61 176.98 176.23 175.97 176.77 C 174.96 177.31 174.58 178.57 175.12 179.58 Z M 175.70 180.63 L 176.24 181.48 C 176.86 182.43 178.14 182.71 179.10 182.09 C 180.06 181.47 180.33 180.19 179.71 179.23 L 179.17 178.38 C 178.55 177.42 177.27 177.15 176.31 177.77 C 175.35 178.39 175.08 179.67 175.70 180.63 Z M 176.35 181.61 L 176.96 182.41 C 177.66 183.31 178.95 183.48 179.85 182.78 C 180.75 182.08 180.92 180.79 180.22 179.89 L 179.61 179.09 C 178.91 178.19 177.62 178.03 176.72 178.72 C 175.82 179.42 175.65 180.71 176.35 181.61 Z M 177.12 182.57 L 177.84 183.32 C 178.62 184.13 179.92 184.16 180.73 183.37 C 181.55 182.59 181.57 181.29 180.79 180.48 L 180.07 179.73 C 179.28 178.91 177.99 178.89 177.17 179.67 C 176.36 180.46 176.33 181.75 177.12 182.57 Z M 178.02 183.46 L 178.76 184.08 C 179.62 184.79 180.90 184.68 181.62 183.81 C 182.33 182.95 182.22 181.68 181.36 180.96 L 180.61 180.34 C 179.75 179.62 178.47 179.74 177.76 180.60 C 177.04 181.46 177.16 182.74 178.02 183.46 Z M 178.93 184.18 L 179.79 184.75 C 180.70 185.38 181.95 185.14 182.57 184.22 C 183.19 183.30 182.95 182.06 182.04 181.44 L 181.18 180.86 C 180.27 180.24 179.02 180.48 178.40 181.39 C 177.78 182.31 178.02 183.56 178.93 184.18 Z M 180.04 184.87 L 180.90 185.29 C 181.88 185.78 183.06 185.37 183.55 184.39 C 184.03 183.41 183.62 182.22 182.64 181.74 L 181.78 181.32 C 180.80 180.84 179.62 181.24 179.13 182.22 C 178.65 183.20 179.06 184.39 180.04 184.87 Z M 181.30 185.40 L 182.26 185.64 C 183.30 185.90 184.35 185.26 184.61 184.22 C 184.87 183.18 184.24 182.13 183.20 181.87 L 182.24 181.63 C 181.20 181.38 180.14 182.01 179.89 183.05 C 179.63 184.09 180.26 185.15 181.30 185.40 Z M 182.59 185.65 L 183.59 185.72 C 184.64 185.80 185.55 185.02 185.63 183.97 C 185.70 182.93 184.92 182.02 183.87 181.94 L 182.87 181.86 C 181.82 181.78 180.91 182.57 180.83 183.61 C 180.76 184.66 181.54 185.57 182.59 185.65 Z M 183.85 185.69 L 184.86 185.63 C 185.89 185.56 186.66 184.67 186.60 183.64 C 186.53 182.62 185.64 181.84 184.62 181.91 L 183.61 181.97 C 182.58 182.04 181.81 182.92 181.87 183.95 C 181.94 184.98 182.82 185.76 183.85 185.69 Z M 185.41 185.48 L 186.32 185.12 C 187.26 184.75 187.73 183.68 187.36 182.74 C 186.99 181.79 185.92 181.33 184.98 181.70 L 184.07 182.06 C 183.12 182.43 182.66 183.49 183.03 184.44 C 183.40 185.38 184.46 185.85 185.41 185.48 Z M 186.79 184.82 L 187.57 184.19 C 188.35 183.56 188.47 182.42 187.84 181.64 C 187.21 180.86 186.07 180.74 185.29 181.37 L 184.51 182.00 C 183.73 182.63 183.61 183.77 184.24 184.55 C 184.87 185.33 186.01 185.45 186.79 184.82 Z M 187.66 184.09 L 187.85 183.92 C 188.57 183.24 188.61 182.10 187.92 181.37 C 187.24 180.65 186.10 180.61 185.38 181.29 L 185.19 181.47 C 184.47 182.15 184.43 183.29 185.11 184.02 C 185.80 184.74 186.94 184.78 187.66 184.09 Z"
      fill="black"
      fill-rule="nonzero" /><path d="M 170.02 129.13 L 168.95 129.19 C 167.90 129.26 167.09 130.17 167.16 131.22 C 167.22 132.28 168.13 133.08 169.19 133.02 L 170.25 132.95 C 171.30 132.89 172.11 131.98 172.04 130.92 C 171.98 129.87 171.07 129.06 170.02 129.13 Z M 168.56 129.20 L 167.67 129.44 C 166.61 129.72 165.99 130.80 166.27 131.85 C 166.55 132.91 167.63 133.53 168.68 133.25 L 169.58 133.01 C 170.63 132.73 171.26 131.65 170.98 130.60 C 170.70 129.54 169.62 128.92 168.56 129.20 Z M 166.79 129.88 L 166.10 130.54 C 165.29 131.30 165.26 132.58 166.03 133.39 C 166.79 134.19 168.07 134.23 168.88 133.46 L 169.56 132.80 C 170.37 132.04 170.40 130.76 169.64 129.95 C 168.87 129.15 167.59 129.12 166.79 129.88 Z M 165.63 131.15 L 165.20 132.09 C 164.74 133.12 165.19 134.33 166.22 134.79 C 167.24 135.26 168.45 134.81 168.92 133.78 L 169.35 132.84 C 169.81 131.81 169.36 130.60 168.33 130.14 C 167.30 129.67 166.09 130.13 165.63 131.15 Z M 165.08 132.35 L 164.79 133.32 C 164.47 134.41 165.09 135.56 166.18 135.89 C 167.27 136.21 168.42 135.59 168.75 134.50 L 169.04 133.52 C 169.36 132.43 168.74 131.28 167.65 130.96 C 166.56 130.63 165.41 131.25 165.08 132.35 Z M 164.74 133.44 L 164.52 134.42 C 164.26 135.54 164.96 136.66 166.08 136.92 C 167.20 137.18 168.32 136.48 168.58 135.36 L 168.80 134.38 C 169.06 133.26 168.36 132.14 167.24 131.88 C 166.12 131.62 165.00 132.32 164.74 133.44 Z M 164.48 134.51 L 164.30 135.48 C 164.09 136.62 164.84 137.71 165.98 137.92 C 167.12 138.13 168.22 137.38 168.43 136.24 L 168.61 135.27 C 168.82 134.13 168.07 133.04 166.93 132.83 C 165.79 132.62 164.69 133.37 164.48 134.51 Z M 164.28 135.54 L 164.14 136.48 C 163.96 137.63 164.74 138.71 165.89 138.89 C 167.05 139.07 168.12 138.28 168.30 137.13 L 168.45 136.18 C 168.63 135.03 167.84 133.96 166.69 133.78 C 165.54 133.60 164.46 134.39 164.28 135.54 Z M 164.12 136.50 L 163.98 137.51 C 163.81 138.66 164.61 139.74 165.77 139.91 C 166.92 140.08 168.00 139.27 168.17 138.12 L 168.31 137.11 C 168.48 135.96 167.68 134.88 166.52 134.71 C 165.37 134.54 164.29 135.34 164.12 136.50 Z M 163.97 137.51 L 163.83 138.47 C 163.66 139.63 164.46 140.71 165.62 140.88 C 166.78 141.05 167.86 140.25 168.03 139.09 L 168.17 138.12 C 168.34 136.96 167.54 135.88 166.38 135.71 C 165.22 135.54 164.14 136.34 163.97 137.51 Z M 163.82 138.48 L 163.68 139.47 C 163.51 140.64 164.32 141.72 165.48 141.89 C 166.65 142.05 167.73 141.25 167.90 140.08 L 168.04 139.08 C 168.21 137.92 167.40 136.84 166.23 136.67 C 165.07 136.50 163.99 137.31 163.82 138.48 Z M 163.67 139.49 L 163.53 140.49 C 163.37 141.66 164.19 142.74 165.36 142.90 C 166.53 143.06 167.61 142.24 167.77 141.07 L 167.90 140.06 C 168.06 138.90 167.24 137.82 166.07 137.66 C 164.90 137.50 163.83 138.32 163.67 139.49 Z M 163.53 140.51 L 163.40 141.49 C 163.25 142.67 164.08 143.74 165.25 143.89 C 166.43 144.04 167.50 143.21 167.65 142.04 L 167.78 141.05 C 167.93 139.88 167.10 138.80 165.92 138.65 C 164.75 138.50 163.68 139.33 163.53 140.51 Z M 163.39 141.50 L 163.27 142.52 C 163.12 143.70 163.96 144.77 165.13 144.92 C 166.31 145.06 167.38 144.23 167.53 143.05 L 167.66 142.03 C 167.80 140.85 166.97 139.78 165.79 139.63 C 164.61 139.48 163.54 140.32 163.39 141.50 Z M 163.26 142.52 L 163.14 143.50 C 162.99 144.68 163.83 145.75 165.01 145.90 C 166.19 146.05 167.27 145.21 167.41 144.03 L 167.53 143.05 C 167.68 141.87 166.84 140.79 165.66 140.65 C 164.48 140.50 163.41 141.34 163.26 142.52 Z M 163.14 143.50 L 163.01 144.49 C 162.86 145.67 163.70 146.75 164.88 146.90 C 166.06 147.04 167.14 146.21 167.29 145.03 L 167.42 144.03 C 167.56 142.85 166.73 141.77 165.54 141.63 C 164.36 141.48 163.29 142.31 163.14 143.50 Z M 163.01 144.48 L 162.88 145.48 C 162.73 146.67 163.57 147.75 164.75 147.90 C 165.93 148.05 167.01 147.21 167.16 146.03 L 167.29 145.03 C 167.44 143.85 166.61 142.77 165.43 142.62 C 164.24 142.46 163.16 143.30 163.01 144.48 Z M 162.88 145.48 L 162.75 146.45 C 162.60 147.63 163.43 148.72 164.62 148.87 C 165.80 149.03 166.88 148.19 167.04 147.01 L 167.17 146.04 C 167.32 144.85 166.49 143.77 165.30 143.61 C 164.12 143.46 163.04 144.29 162.88 145.48 Z M 162.75 146.45 L 162.62 147.44 C 162.46 148.63 163.30 149.71 164.48 149.87 C 165.67 150.02 166.75 149.19 166.91 148.01 L 167.04 147.01 C 167.20 145.83 166.36 144.74 165.18 144.58 C 163.99 144.43 162.91 145.26 162.75 146.45 Z M 162.62 147.44 L 162.49 148.45 C 162.33 149.64 163.17 150.72 164.35 150.88 C 165.54 151.03 166.63 150.20 166.78 149.01 L 166.91 148.00 C 167.07 146.82 166.23 145.73 165.05 145.58 C 163.86 145.42 162.77 146.26 162.62 147.44 Z M 162.49 148.45 L 162.36 149.43 C 162.21 150.62 163.04 151.70 164.23 151.86 C 165.42 152.01 166.50 151.17 166.66 149.99 L 166.78 149.01 C 166.94 147.82 166.10 146.74 164.91 146.58 C 163.72 146.43 162.64 147.27 162.49 148.45 Z M 162.36 149.43 L 162.23 150.43 C 162.08 151.61 162.91 152.70 164.10 152.85 C 165.29 153.01 166.37 152.17 166.53 150.98 L 166.66 149.99 C 166.81 148.80 165.97 147.71 164.79 147.56 C 163.60 147.41 162.51 148.24 162.36 149.43 Z M 162.23 150.42 L 162.10 151.43 C 161.94 152.61 162.77 153.70 163.96 153.86 C 165.15 154.02 166.23 153.18 166.39 152.00 L 166.53 150.99 C 166.68 149.80 165.85 148.72 164.66 148.56 C 163.48 148.40 162.39 149.23 162.23 150.42 Z M 162.10 151.42 L 161.96 152.40 C 161.80 153.59 162.63 154.68 163.82 154.85 C 165.00 155.01 166.09 154.18 166.26 152.99 L 166.39 152.01 C 166.55 150.82 165.73 149.73 164.54 149.57 C 163.35 149.40 162.26 150.23 162.10 151.42 Z M 161.96 152.40 L 161.82 153.39 C 161.66 154.57 162.48 155.67 163.67 155.84 C 164.85 156.00 165.95 155.18 166.12 153.99 L 166.26 153.00 C 166.42 151.82 165.60 150.72 164.41 150.55 C 163.23 150.39 162.13 151.21 161.96 152.40 Z M 161.82 153.38 L 161.68 154.38 C 161.51 155.56 162.34 156.66 163.52 156.83 C 164.71 157.00 165.81 156.17 165.97 154.99 L 166.12 154.00 C 166.29 152.81 165.46 151.71 164.28 151.54 C 163.09 151.38 161.99 152.20 161.82 153.38 Z M 161.68 154.38 L 161.54 155.35 C 161.37 156.54 162.20 157.64 163.38 157.81 C 164.57 157.98 165.66 157.15 165.83 155.97 L 165.97 154.99 C 166.14 153.81 165.32 152.71 164.14 152.54 C 162.95 152.37 161.85 153.19 161.68 154.38 Z M 161.54 155.35 L 161.40 156.33 C 161.23 157.51 162.05 158.61 163.23 158.79 C 164.42 158.96 165.52 158.14 165.69 156.95 L 165.83 155.97 C 166.00 154.79 165.18 153.69 164.00 153.52 C 162.82 153.34 161.72 154.17 161.54 155.35 Z M 161.40 156.32 L 161.26 157.32 C 161.08 158.50 161.89 159.60 163.08 159.78 C 164.26 159.96 165.36 159.14 165.54 157.96 L 165.69 156.96 C 165.86 155.78 165.05 154.68 163.87 154.50 C 162.68 154.32 161.58 155.14 161.40 156.32 Z M 161.26 157.31 L 161.10 158.31 C 160.92 159.49 161.73 160.60 162.91 160.78 C 164.09 160.96 165.20 160.15 165.38 158.97 L 165.54 157.97 C 165.72 156.79 164.91 155.68 163.73 155.50 C 162.55 155.32 161.44 156.13 161.26 157.31 Z M 161.11 158.30 L 160.95 159.30 C 160.76 160.48 161.56 161.59 162.74 161.78 C 163.92 161.97 165.03 161.16 165.22 159.98 L 165.38 158.98 C 165.57 157.80 164.76 156.69 163.58 156.51 C 162.40 156.32 161.29 157.12 161.11 158.30 Z M 160.95 159.30 L 160.79 160.29 C 160.60 161.47 161.40 162.58 162.57 162.77 C 163.75 162.96 164.86 162.16 165.05 160.98 L 165.21 159.99 C 165.41 158.81 164.61 157.70 163.43 157.51 C 162.25 157.32 161.14 158.12 160.95 159.30 Z M 160.79 160.29 L 160.63 161.26 C 160.44 162.44 161.24 163.54 162.42 163.74 C 163.59 163.93 164.70 163.13 164.89 161.95 L 165.05 160.98 C 165.24 159.81 164.44 158.70 163.27 158.51 C 162.09 158.31 160.98 159.11 160.79 160.29 Z M 160.63 161.26 L 160.47 162.29 C 160.28 163.46 161.08 164.57 162.25 164.76 C 163.43 164.95 164.54 164.15 164.73 162.97 L 164.89 161.95 C 165.08 160.77 164.28 159.67 163.11 159.48 C 161.93 159.29 160.82 160.08 160.63 161.26 Z M 160.47 162.28 L 160.31 163.26 C 160.12 164.44 160.92 165.55 162.09 165.74 C 163.27 165.93 164.37 165.13 164.57 163.95 L 164.72 162.98 C 164.92 161.80 164.12 160.69 162.94 160.50 C 161.77 160.31 160.66 161.11 160.47 162.28 Z M 160.32 163.25 L 160.16 164.21 C 159.96 165.38 160.75 166.49 161.93 166.69 C 163.10 166.88 164.21 166.09 164.40 164.92 L 164.56 163.96 C 164.76 162.79 163.97 161.68 162.79 161.49 C 161.62 161.29 160.51 162.08 160.32 163.25 Z M 160.16 164.20 L 159.99 165.19 C 159.79 166.36 160.57 167.47 161.74 167.67 C 162.91 167.87 164.03 167.09 164.23 165.92 L 164.40 164.93 C 164.60 163.76 163.82 162.65 162.65 162.44 C 161.48 162.24 160.36 163.03 160.16 164.20 Z M 159.99 165.18 L 159.82 166.16 C 159.61 167.33 160.39 168.45 161.56 168.65 C 162.73 168.86 163.85 168.08 164.05 166.91 L 164.22 165.92 C 164.43 164.76 163.65 163.64 162.48 163.44 C 161.31 163.23 160.20 164.01 159.99 165.18 Z M 159.82 166.17 L 159.65 167.15 C 159.45 168.32 160.23 169.43 161.40 169.63 C 162.56 169.84 163.67 169.05 163.88 167.89 L 164.05 166.91 C 164.25 165.74 163.47 164.63 162.30 164.42 C 161.14 164.22 160.02 165.00 159.82 166.17 Z M 159.65 167.16 L 159.48 168.16 C 159.29 169.32 160.07 170.43 161.24 170.63 C 162.41 170.82 163.51 170.04 163.71 168.87 L 163.88 167.87 C 164.07 166.71 163.29 165.60 162.12 165.41 C 160.95 165.21 159.85 166.00 159.65 167.16 Z M 159.48 168.17 L 159.32 169.16 C 159.13 170.32 159.93 171.42 161.09 171.61 C 162.26 171.80 163.36 171.01 163.55 169.84 L 163.71 168.86 C 163.90 167.69 163.11 166.59 161.94 166.40 C 160.77 166.21 159.67 167.00 159.48 168.17 Z M 159.32 169.17 L 159.17 170.15 C 158.99 171.32 159.79 172.41 160.95 172.59 C 162.12 172.78 163.21 171.98 163.40 170.81 L 163.55 169.83 C 163.73 168.66 162.93 167.57 161.77 167.39 C 160.60 167.21 159.51 168.00 159.32 169.17 Z M 159.17 170.17 L 159.02 171.17 C 158.85 172.33 159.65 173.42 160.82 173.60 C 161.98 173.77 163.07 172.97 163.24 171.80 L 163.39 170.80 C 163.57 169.63 162.77 168.55 161.60 168.37 C 160.43 168.20 159.35 169.00 159.17 170.17 Z M 159.03 171.17 L 158.88 172.16 C 158.71 173.32 159.51 174.41 160.68 174.58 C 161.84 174.75 162.92 173.94 163.10 172.78 L 163.24 171.79 C 163.41 170.63 162.61 169.55 161.44 169.38 C 160.28 169.21 159.20 170.01 159.03 171.17 Z M 158.88 172.16 L 158.74 173.14 C 158.57 174.30 159.37 175.38 160.53 175.55 C 161.70 175.72 162.78 174.92 162.95 173.76 L 163.09 172.78 C 163.26 171.62 162.46 170.54 161.30 170.37 C 160.14 170.20 159.06 171.00 158.88 172.16 Z M 158.75 173.14 L 158.60 174.12 C 158.43 175.28 159.23 176.36 160.39 176.53 C 161.54 176.71 162.62 175.91 162.79 174.75 L 162.94 173.76 C 163.11 172.60 162.31 171.52 161.16 171.35 C 160.00 171.18 158.92 171.98 158.75 173.14 Z M 158.61 174.13 L 158.46 175.11 C 158.29 176.27 159.08 177.34 160.24 177.51 C 161.39 177.69 162.47 176.89 162.64 175.73 L 162.79 174.75 C 162.96 173.59 162.16 172.52 161.01 172.35 C 159.85 172.17 158.78 172.97 158.61 174.13 Z M 158.47 175.12 L 158.33 176.08 C 158.16 177.23 158.95 178.30 160.10 178.47 C 161.25 178.64 162.32 177.84 162.49 176.69 L 162.63 175.73 C 162.80 174.58 162.01 173.51 160.86 173.34 C 159.71 173.17 158.64 173.97 158.47 175.12 Z M 158.33 176.10 L 158.20 177.07 C 158.03 178.22 158.83 179.28 159.98 179.44 C 161.13 179.60 162.19 178.80 162.35 177.66 L 162.48 176.68 C 162.65 175.53 161.85 174.47 160.70 174.31 C 159.55 174.15 158.49 174.95 158.33 176.10 Z M 158.20 177.10 L 158.07 178.12 C 157.92 179.26 158.73 180.31 159.87 180.46 C 161.01 180.61 162.06 179.80 162.21 178.66 L 162.34 177.63 C 162.49 176.49 161.68 175.45 160.54 175.30 C 159.40 175.15 158.35 175.96 158.20 177.10 Z M 158.08 178.15 L 157.96 179.17 C 157.83 180.31 158.64 181.34 159.78 181.47 C 160.92 181.60 161.95 180.79 162.08 179.65 L 162.20 178.63 C 162.33 177.49 161.52 176.46 160.38 176.33 C 159.24 176.20 158.21 177.01 158.08 178.15 Z M 157.97 179.20 L 157.86 180.22 C 157.75 181.35 158.58 182.36 159.71 182.48 C 160.85 182.59 161.86 181.77 161.97 180.63 L 162.07 179.62 C 162.19 178.48 161.36 177.47 160.23 177.35 C 159.09 177.24 158.08 178.07 157.97 179.20 Z M 157.87 180.25 L 157.79 181.22 C 157.70 182.35 158.53 183.34 159.66 183.44 C 160.80 183.53 161.79 182.69 161.88 181.56 L 161.96 180.60 C 162.06 179.47 161.22 178.47 160.09 178.38 C 158.96 178.28 157.97 179.12 157.87 180.25 Z M 157.81 181.28 L 157.75 182.34 C 157.68 183.46 158.54 184.42 159.67 184.48 C 160.79 184.54 161.75 183.69 161.81 182.56 L 161.87 181.50 C 161.93 180.38 161.07 179.42 159.95 179.36 C 158.83 179.30 157.87 180.16 157.81 181.28 Z M 157.77 182.47 L 157.78 183.44 C 157.80 184.55 158.70 185.44 159.81 185.43 C 160.92 185.41 161.81 184.51 161.79 183.40 L 161.78 182.43 C 161.77 181.32 160.86 180.43 159.76 180.45 C 158.65 180.46 157.76 181.37 157.77 182.47 Z M 157.83 183.66 L 157.95 184.62 C 158.08 185.70 159.07 186.47 160.15 186.33 C 161.23 186.20 162.00 185.21 161.87 184.13 L 161.75 183.18 C 161.61 182.10 160.63 181.33 159.55 181.46 C 158.46 181.59 157.70 182.58 157.83 183.66 Z M 158.01 184.82 L 158.24 185.79 C 158.49 186.83 159.53 187.48 160.58 187.24 C 161.62 186.99 162.27 185.95 162.03 184.90 L 161.80 183.93 C 161.55 182.89 160.51 182.24 159.46 182.48 C 158.42 182.73 157.77 183.77 158.01 184.82 Z M 158.29 185.87 L 158.46 186.49 C 158.75 187.51 159.81 188.11 160.83 187.82 C 161.85 187.53 162.44 186.48 162.16 185.46 L 161.98 184.83 C 161.69 183.81 160.63 183.21 159.61 183.50 C 158.59 183.79 158.00 184.85 158.29 185.87 Z"
      fill="black"
      fill-rule="nonzero" /><path d="M 156.78 165.57 L 157.69 165.50 C 158.79 165.41 159.60 164.45 159.51 163.36 C 159.42 162.26 158.46 161.45 157.37 161.54 L 156.46 161.61 C 155.36 161.70 154.55 162.66 154.64 163.76 C 154.73 164.85 155.69 165.66 156.78 165.57 Z M 157.27 165.58 L 158.29 165.71 C 159.42 165.85 160.46 165.04 160.61 163.91 C 160.75 162.77 159.94 161.73 158.81 161.59 L 157.79 161.46 C 156.66 161.32 155.62 162.12 155.47 163.26 C 155.33 164.40 156.14 165.43 157.27 165.58 Z M 157.95 165.67 L 158.81 165.93 C 159.93 166.26 161.11 165.62 161.44 164.50 C 161.77 163.39 161.13 162.21 160.01 161.88 L 159.15 161.62 C 158.03 161.29 156.85 161.93 156.52 163.05 C 156.19 164.17 156.83 165.34 157.95 165.67 Z M 158.68 165.88 L 159.67 166.25 C 160.76 166.66 161.98 166.10 162.38 165.01 C 162.79 163.92 162.23 162.70 161.14 162.30 L 160.15 161.93 C 159.06 161.52 157.84 162.08 157.44 163.17 C 157.03 164.26 157.59 165.48 158.68 165.88 Z M 159.61 166.22 L 160.62 166.63 C 161.69 167.07 162.92 166.55 163.36 165.48 C 163.80 164.40 163.28 163.17 162.20 162.73 L 161.20 162.32 C 160.12 161.88 158.90 162.40 158.46 163.48 C 158.02 164.55 158.53 165.78 159.61 166.22 Z M 160.60 166.61 L 161.53 167.00 C 162.59 167.45 163.82 166.96 164.27 165.89 C 164.72 164.82 164.22 163.60 163.16 163.15 L 162.22 162.75 C 161.16 162.30 159.93 162.80 159.48 163.87 C 159.03 164.93 159.53 166.16 160.60 166.61 Z M 161.52 166.99 L 162.46 167.39 C 163.52 167.84 164.74 167.35 165.19 166.29 C 165.64 165.24 165.15 164.02 164.10 163.56 L 163.16 163.16 C 162.10 162.71 160.88 163.20 160.43 164.26 C 159.98 165.31 160.47 166.54 161.52 166.99 Z M 162.47 167.38 L 163.37 167.76 C 164.42 168.21 165.63 167.72 166.08 166.67 C 166.53 165.63 166.04 164.41 164.99 163.96 L 164.09 163.58 C 163.04 163.13 161.83 163.62 161.38 164.67 C 160.93 165.71 161.42 166.93 162.47 167.38 Z M 163.39 167.74 L 164.34 168.14 C 165.38 168.58 166.57 168.09 167.01 167.05 C 167.45 166.02 166.96 164.82 165.92 164.38 L 164.97 163.98 C 163.94 163.55 162.74 164.03 162.30 165.07 C 161.86 166.11 162.35 167.30 163.39 167.74 Z M 164.35 168.11 L 165.26 168.49 C 166.28 168.92 167.45 168.44 167.88 167.42 C 168.31 166.40 167.83 165.23 166.81 164.80 L 165.91 164.42 C 164.89 163.99 163.71 164.47 163.28 165.49 C 162.85 166.50 163.33 167.68 164.35 168.11 Z M 165.26 168.45 L 166.16 168.84 C 167.16 169.27 168.31 168.81 168.74 167.81 C 169.17 166.81 168.71 165.66 167.72 165.23 L 166.81 164.84 C 165.81 164.41 164.66 164.87 164.23 165.87 C 163.80 166.86 164.26 168.02 165.26 168.45 Z M 166.13 168.82 L 167.09 169.25 C 168.08 169.70 169.24 169.25 169.68 168.26 C 170.13 167.27 169.69 166.11 168.70 165.67 L 167.74 165.24 C 166.75 164.80 165.59 165.24 165.15 166.23 C 164.70 167.22 165.14 168.38 166.13 168.82 Z M 167.05 169.28 L 167.99 169.72 C 169.00 170.18 170.19 169.75 170.65 168.74 C 171.12 167.74 170.68 166.54 169.68 166.08 L 168.74 165.64 C 167.73 165.17 166.54 165.61 166.07 166.62 C 165.61 167.62 166.04 168.81 167.05 169.28 Z M 167.95 169.75 L 168.80 170.15 C 169.82 170.64 171.04 170.21 171.53 169.19 C 172.02 168.16 171.59 166.94 170.57 166.45 L 169.72 166.04 C 168.70 165.56 167.47 165.99 166.98 167.01 C 166.49 168.04 166.93 169.26 167.95 169.75 Z M 168.76 170.16 L 169.74 170.65 C 170.77 171.16 172.01 170.74 172.52 169.71 C 173.03 168.68 172.61 167.44 171.59 166.93 L 170.60 166.44 C 169.58 165.93 168.33 166.35 167.82 167.38 C 167.31 168.41 167.73 169.65 168.76 170.16 Z M 169.71 170.62 L 170.50 171.03 C 171.51 171.55 172.76 171.16 173.28 170.14 C 173.81 169.13 173.41 167.88 172.40 167.36 L 171.62 166.95 C 170.60 166.43 169.35 166.82 168.83 167.84 C 168.30 168.85 168.70 170.10 169.71 170.62 Z"
      fill="black"
      fill-rule="nonzero" /></svg>