<svg xmlns="http://www.w3.org/2000/svg" width="300" height="300" viewBox="0 0 300 300">
<path d="M 137.48 115.95 L 136.51 116.30 C 135.47 116.67 134.93 117.83 135.30 118.87 C 135.68 119.91 136.83 120.46 137.87 120.08 L 138.84 119.73 C 139.89 119.36 140.43 118.21 140.05 117.16 C 139.68 116.12 138.53 115.58 137.48 115.95 Z M 136.40 120.16 L 137.04 120.42 C 138.13 120.86 139.37 120.33 139.81 119.25 C 140.25 118.16 139.72 116.92 138.63 116.48 L 137.99 116.22 C 136.90 115.78 135.66 116.31 135.22 117.40 C 134.78 118.48 135.31 119.72 136.40 120.16 Z M 137.51 120.57 L 138.62 120.75 C 139.79 120.93 140.89 120.13 141.07 118.95 C 141.25 117.78 140.45 116.69 139.28 116.50 L 138.17 116.33 C 137.00 116.15 135.90 116.95 135.72 118.12 C 135.53 119.29 136.33 120.39 137.51 120.57 Z M 138.68 120.76 L 139.66 120.88 C 140.84 121.03 141.92 120.19 142.06 119.01 C 142.21 117.83 141.38 116.76 140.20 116.61 L 139.21 116.49 C 138.04 116.34 136.96 117.18 136.82 118.36 C 136.67 119.54 137.50 120.61 138.68 120.76 Z M 139.70 120.88 L 140.73 120.99 C 141.91 121.12 142.97 120.27 143.10 119.09 C 143.23 117.91 142.38 116.85 141.20 116.73 L 140.16 116.61 C 138.99 116.48 137.93 117.34 137.80 118.51 C 137.67 119.69 138.52 120.75 139.70 120.88 Z M 140.76 120.99 L 141.73 121.08 C 142.90 121.20 143.95 120.34 144.06 119.16 C 144.18 117.99 143.32 116.94 142.14 116.83 L 141.17 116.73 C 140.00 116.62 138.95 117.48 138.84 118.65 C 138.72 119.83 139.58 120.87 140.76 120.99 Z M 141.76 121.07 L 142.78 121.16 C 143.94 121.26 144.97 120.39 145.07 119.22 C 145.17 118.05 144.30 117.02 143.13 116.92 L 142.11 116.84 C 140.95 116.74 139.92 117.61 139.82 118.78 C 139.72 119.94 140.59 120.97 141.76 121.07 Z M 142.81 121.14 L 143.87 121.22 C 145.03 121.30 146.04 120.42 146.11 119.26 C 146.19 118.09 145.32 117.09 144.15 117.01 L 143.10 116.94 C 141.94 116.86 140.93 117.74 140.85 118.90 C 140.77 120.06 141.65 121.07 142.81 121.14 Z M 143.90 121.20 L 144.95 121.25 C 146.10 121.31 147.08 120.42 147.14 119.27 C 147.20 118.12 146.31 117.14 145.16 117.08 L 144.12 117.03 C 142.97 116.97 141.99 117.86 141.93 119.01 C 141.87 120.16 142.75 121.14 143.90 121.20 Z M 144.98 121.23 L 145.92 121.26 C 147.06 121.31 148.02 120.42 148.06 119.28 C 148.11 118.14 147.22 117.18 146.08 117.14 L 145.13 117.11 C 143.99 117.06 143.04 117.95 142.99 119.09 C 142.95 120.23 143.84 121.18 144.98 121.23 Z M 145.96 121.23 L 147.02 121.25 C 148.14 121.28 149.06 120.39 149.09 119.27 C 149.11 118.15 148.22 117.22 147.10 117.20 L 146.04 117.18 C 144.93 117.15 144.00 118.04 143.98 119.16 C 143.95 120.28 144.84 121.21 145.96 121.23 Z M 147.05 121.20 L 147.97 121.21 C 149.06 121.21 149.95 120.33 149.95 119.24 C 149.96 118.14 149.08 117.25 147.98 117.25 L 147.07 117.25 C 145.98 117.24 145.09 118.12 145.08 119.22 C 145.08 120.31 145.96 121.20 147.05 121.20 Z M 147.97 121.17 L 148.96 121.17 C 150.03 121.17 150.90 120.30 150.90 119.23 C 150.90 118.16 150.03 117.29 148.96 117.29 L 147.97 117.29 C 146.90 117.29 146.04 118.16 146.04 119.23 C 146.04 120.30 146.90 121.17 147.97 121.17 Z M 148.96 121.13 L 149.93 121.13 C 150.98 121.13 151.84 120.28 151.84 119.23 C 151.84 118.18 150.98 117.32 149.93 117.32 L 148.96 117.32 C 147.91 117.32 147.06 118.18 147.06 119.23 C 147.06 120.28 147.91 121.13 148.96 121.13 Z M 149.93 121.10 L 150.91 121.10 C 151.95 121.10 152.79 120.26 152.79 119.23 C 152.79 118.19 151.95 117.35 150.91 117.35 L 149.93 117.35 C 148.90 117.35 148.06 118.19 148.06 119.23 C 148.06 120.26 148.90 121.10 149.93 121.10 Z M 150.91 121.08 L 151.94 121.08 C 152.96 121.08 153.79 120.25 153.79 119.23 C 153.79 118.21 152.96 117.38 151.94 117.38 L 150.91 117.38 C 149.89 117.38 149.06 118.21 149.06 119.23 C 149.06 120.25 149.89 121.08 150.91 121.08 Z M 151.94 121.06 L 152.96 121.06 C 153.97 121.06 154.79 120.24 154.79 119.23 C 154.79 118.22 153.97 117.40 152.96 117.40 L 151.94 117.40 C 150.93 117.40 150.11 118.22 150.11 119.23 C 150.11 120.24 150.93 121.06 151.94 121.06 Z M 152.96 121.05 L 153.98 121.05 C 154.99 121.05 155.80 120.23 155.80 119.23 C 155.80 118.22 154.99 117.41 153.98 117.41 L 152.96 117.41 C 151.95 117.41 151.13 118.22 151.13 119.23 C 151.13 120.23 151.95 121.05 152.96 121.05 Z M 153.98 121.04 L 155.01 121.04 C 156.01 121.04 156.82 120.23 156.82 119.23 C 156.82 118.23 156.01 117.42 155.01 117.42 L 153.98 117.42 C 152.98 117.42 152.17 118.23 152.17 119.23 C 152.17 120.23 152.98 121.04 153.98 121.04 Z M 155.01 121.03 L 155.98 121.03 C 156.97 121.03 157.78 120.23 157.78 119.23 C 157.78 118.23 156.97 117.42 155.98 117.42 L 155.01 117.42 C 154.01 117.42 153.20 118.23 153.20 119.23 C 153.20 120.23 154.01 121.03 155.01 121.03 Z M 155.98 121.03 L 156.09 121.03 C 157.09 121.03 157.89 120.22 157.89 119.23 C 157.89 118.23 157.09 117.43 156.09 117.43 L 155.98 117.43 C 154.98 117.43 154.18 118.23 154.18 119.23 C 154.18 120.22 154.98 121.03 155.98 121.03 Z"
      fill="black"
      fill-rule="nonzero" /><path d="M 124.36 127.68 L 125.12 128.32 C 125.96 129.03 127.21 128.92 127.91 128.08 C 128.62 127.25 128.52 126.00 127.68 125.29 L 126.92 124.65 C 126.08 123.94 124.83 124.04 124.12 124.88 C 123.42 125.72 123.52 126.97 124.36 127.68 Z M 125.04 128.35 L 125.79 129.01 C 126.65 129.76 127.95 129.68 128.70 128.82 C 129.45 127.97 129.36 126.67 128.51 125.92 L 127.76 125.26 C 126.90 124.51 125.60 124.59 124.85 125.44 C 124.10 126.30 124.19 127.60 125.04 128.35 Z M 125.71 128.99 L 126.41 129.65 C 127.25 130.45 128.58 130.41 129.38 129.57 C 130.17 128.72 130.14 127.39 129.29 126.60 L 128.60 125.94 C 127.75 125.14 126.42 125.18 125.62 126.02 C 124.83 126.87 124.87 128.20 125.71 128.99 Z M 126.34 129.60 L 127.04 130.32 C 127.86 131.15 129.19 131.16 130.03 130.35 C 130.86 129.53 130.87 128.20 130.06 127.37 L 129.36 126.65 C 128.54 125.82 127.21 125.80 126.38 126.62 C 125.54 127.43 125.53 128.77 126.34 129.60 Z M 127.00 130.26 L 127.70 131.03 C 128.49 131.89 129.82 131.95 130.68 131.17 C 131.54 130.39 131.60 129.05 130.81 128.19 L 130.11 127.42 C 129.32 126.56 127.99 126.50 127.13 127.29 C 126.27 128.07 126.21 129.40 127.00 130.26 Z M 127.68 131.00 L 128.36 131.78 C 129.12 132.65 130.45 132.74 131.32 131.97 C 132.19 131.21 132.28 129.89 131.52 129.01 L 130.84 128.23 C 130.07 127.36 128.75 127.27 127.88 128.03 C 127.00 128.80 126.91 130.12 127.68 131.00 Z M 128.36 131.76 L 128.99 132.49 C 129.74 133.37 131.06 133.46 131.93 132.71 C 132.81 131.96 132.91 130.64 132.15 129.77 L 131.52 129.03 C 130.77 128.16 129.45 128.06 128.58 128.81 C 127.70 129.56 127.60 130.88 128.36 131.76 Z M 129.01 132.48 L 129.71 133.29 C 130.45 134.15 131.76 134.25 132.62 133.50 C 133.49 132.76 133.58 131.45 132.84 130.58 L 132.14 129.78 C 131.39 128.91 130.08 128.82 129.22 129.56 C 128.35 130.31 128.26 131.62 129.01 132.48 Z M 129.71 133.25 L 130.30 133.95 C 131.03 134.81 132.31 134.92 133.17 134.20 C 134.03 133.47 134.14 132.19 133.42 131.33 L 132.83 130.63 C 132.11 129.77 130.82 129.66 129.96 130.38 C 129.10 131.10 128.99 132.39 129.71 133.25 Z M 130.28 133.88 L 130.90 134.66 C 131.59 135.53 132.85 135.68 133.72 135.00 C 134.59 134.31 134.74 133.05 134.05 132.18 L 133.44 131.40 C 132.75 130.53 131.49 130.38 130.62 131.06 C 129.75 131.75 129.60 133.01 130.28 133.88 Z M 130.93 134.65 L 131.55 135.44 C 132.23 136.29 133.48 136.44 134.33 135.76 C 135.19 135.08 135.33 133.83 134.65 132.98 L 134.03 132.19 C 133.35 131.34 132.10 131.19 131.25 131.87 C 130.39 132.55 130.25 133.80 130.93 134.65 Z M 131.59 135.45 L 132.23 136.22 C 132.92 137.05 134.15 137.17 134.98 136.49 C 135.81 135.80 135.93 134.57 135.24 133.73 L 134.61 132.96 C 133.92 132.13 132.69 132.01 131.86 132.70 C 131.02 133.39 130.91 134.62 131.59 135.45 Z M 132.24 136.20 L 132.84 136.93 C 133.51 137.75 134.73 137.88 135.55 137.20 C 136.38 136.53 136.50 135.32 135.83 134.49 L 135.23 133.76 C 134.56 132.93 133.34 132.81 132.52 133.48 C 131.69 134.16 131.57 135.37 132.24 136.20 Z M 132.85 136.90 L 133.51 137.72 C 134.16 138.54 135.36 138.67 136.18 138.01 C 137.00 137.35 137.13 136.15 136.47 135.33 L 135.82 134.52 C 135.16 133.70 133.96 133.57 133.14 134.23 C 132.32 134.88 132.19 136.08 132.85 136.90 Z M 133.52 137.71 L 134.14 138.48 C 134.79 139.29 135.98 139.42 136.79 138.77 C 137.60 138.11 137.73 136.93 137.08 136.12 L 136.46 135.34 C 135.81 134.53 134.62 134.41 133.81 135.06 C 133.00 135.71 132.87 136.90 133.52 137.71 Z M 134.16 138.48 L 134.81 139.27 C 135.46 140.07 136.64 140.20 137.44 139.54 C 138.24 138.89 138.36 137.71 137.71 136.91 L 137.06 136.12 C 136.41 135.31 135.23 135.19 134.43 135.85 C 133.63 136.50 133.51 137.68 134.16 138.48 Z M 134.83 139.28 L 135.51 140.09 C 136.17 140.88 137.34 140.98 138.12 140.33 C 138.91 139.67 139.02 138.50 138.36 137.71 L 137.68 136.90 C 137.02 136.12 135.85 136.01 135.07 136.67 C 134.28 137.33 134.18 138.50 134.83 139.28 Z M 135.57 140.13 L 136.22 140.86 C 136.90 141.61 138.06 141.68 138.81 141.00 C 139.57 140.32 139.63 139.16 138.96 138.41 L 138.30 137.68 C 137.63 136.92 136.46 136.86 135.71 137.53 C 134.95 138.21 134.89 139.37 135.57 140.13 Z M 136.32 140.94 L 137.03 141.62 C 137.75 142.32 138.90 142.30 139.60 141.58 C 140.30 140.86 140.28 139.71 139.56 139.01 L 138.85 138.33 C 138.13 137.63 136.98 137.65 136.28 138.37 C 135.58 139.09 135.60 140.24 136.32 140.94 Z M 137.12 141.69 L 137.85 142.32 C 138.61 142.96 139.75 142.87 140.40 142.12 C 141.05 141.36 140.96 140.22 140.20 139.57 L 139.47 138.94 C 138.71 138.30 137.57 138.39 136.92 139.14 C 136.27 139.90 136.36 141.04 137.12 141.69 Z"
      fill="black"
      fill-rule="nonzero" /><path d="M 132.80 134.91 L 133.87 134.63 C 134.92 134.35 135.54 133.28 135.26 132.23 C 134.98 131.18 133.91 130.56 132.86 130.84 L 131.79 131.13 C 130.75 131.41 130.12 132.48 130.40 133.53 C 130.68 134.57 131.75 135.19 132.80 134.91 Z M 133.88 134.67 L 134.93 134.39 C 136.00 134.10 136.63 133.01 136.35 131.94 C 136.06 130.87 134.97 130.24 133.90 130.52 L 132.85 130.80 C 131.79 131.09 131.15 132.18 131.44 133.25 C 131.72 134.32 132.82 134.95 133.88 134.67 Z M 134.94 134.42 L 135.93 134.16 C 137.02 133.87 137.67 132.75 137.38 131.67 C 137.09 130.58 135.97 129.93 134.88 130.22 L 133.89 130.49 C 132.80 130.78 132.16 131.89 132.45 132.98 C 132.74 134.07 133.85 134.71 134.94 134.42 Z M 135.94 134.20 L 136.86 133.95 C 137.96 133.66 138.62 132.52 138.33 131.41 C 138.03 130.31 136.90 129.65 135.79 129.94 L 134.87 130.18 C 133.77 130.48 133.11 131.62 133.40 132.72 C 133.70 133.83 134.83 134.49 135.94 134.20 Z M 136.87 133.99 L 137.67 133.78 C 138.80 133.48 139.47 132.32 139.17 131.19 C 138.87 130.06 137.72 129.39 136.59 129.69 L 135.78 129.90 C 134.65 130.20 133.98 131.36 134.28 132.49 C 134.58 133.62 135.74 134.29 136.87 133.99 Z M 137.68 133.80 L 138.83 133.49 C 139.97 133.19 140.65 132.02 140.35 130.88 C 140.05 129.74 138.88 129.06 137.74 129.36 L 136.58 129.67 C 135.44 129.97 134.76 131.14 135.06 132.28 C 135.37 133.42 136.54 134.10 137.68 133.80 Z M 138.83 133.50 L 139.73 133.26 C 140.88 132.96 141.56 131.79 141.26 130.64 C 140.95 129.50 139.78 128.81 138.64 129.12 L 137.74 129.36 C 136.59 129.66 135.91 130.83 136.21 131.98 C 136.52 133.12 137.69 133.80 138.83 133.50 Z M 139.73 133.27 L 140.56 133.05 C 141.71 132.74 142.39 131.57 142.09 130.42 C 141.79 129.27 140.61 128.59 139.46 128.89 L 138.63 129.11 C 137.49 129.42 136.80 130.59 137.11 131.74 C 137.41 132.89 138.59 133.57 139.73 133.27 Z M 140.56 133.05 L 141.50 132.80 C 142.65 132.50 143.34 131.32 143.03 130.17 C 142.73 129.02 141.55 128.34 140.40 128.64 L 139.46 128.89 C 138.31 129.19 137.63 130.37 137.93 131.52 C 138.24 132.67 139.42 133.35 140.56 133.05 Z M 141.50 132.80 L 142.49 132.55 C 143.64 132.24 144.33 131.07 144.03 129.92 C 143.73 128.76 142.55 128.08 141.40 128.38 L 140.41 128.64 C 139.26 128.94 138.57 130.11 138.87 131.27 C 139.17 132.42 140.35 133.11 141.50 132.80 Z M 142.48 132.55 L 143.44 132.31 C 144.59 132.01 145.29 130.84 144.99 129.68 C 144.70 128.53 143.53 127.83 142.37 128.13 L 141.41 128.37 C 140.26 128.67 139.56 129.84 139.86 130.99 C 140.15 132.15 141.32 132.85 142.48 132.55 Z M 143.43 132.31 L 144.39 132.07 C 145.55 131.78 146.25 130.60 145.96 129.45 C 145.67 128.29 144.50 127.59 143.34 127.88 L 142.38 128.12 C 141.22 128.41 140.52 129.59 140.81 130.74 C 141.10 131.90 142.28 132.60 143.43 132.31 Z M 144.40 132.07 L 145.40 131.81 C 146.55 131.52 147.25 130.34 146.96 129.19 C 146.67 128.03 145.49 127.33 144.33 127.63 L 143.34 127.88 C 142.18 128.17 141.48 129.35 141.77 130.51 C 142.07 131.66 143.24 132.36 144.40 132.07 Z M 145.41 131.81 L 146.36 131.56 C 147.52 131.26 148.21 130.08 147.91 128.93 C 147.61 127.77 146.43 127.08 145.28 127.38 L 144.32 127.63 C 143.17 127.93 142.48 129.11 142.78 130.26 C 143.08 131.42 144.25 132.11 145.41 131.81 Z M 146.37 131.56 L 147.34 131.31 C 148.49 131.01 149.18 129.83 148.88 128.67 C 148.58 127.52 147.40 126.83 146.24 127.13 L 145.27 127.38 C 144.12 127.68 143.43 128.86 143.73 130.02 C 144.03 131.17 145.21 131.86 146.37 131.56 Z M 147.33 131.31 L 148.31 131.06 C 149.47 130.76 150.16 129.58 149.86 128.42 C 149.56 127.27 148.39 126.57 147.23 126.87 L 146.25 127.13 C 145.10 127.43 144.40 128.60 144.70 129.76 C 145.00 130.91 146.18 131.61 147.33 131.31 Z M 148.30 131.06 L 149.26 130.82 C 150.42 130.53 151.12 129.35 150.83 128.20 C 150.53 127.04 149.36 126.34 148.20 126.63 L 147.24 126.87 C 146.09 127.16 145.39 128.34 145.68 129.49 C 145.97 130.65 147.14 131.35 148.30 131.06 Z M 149.25 130.82 L 150.21 130.58 C 151.37 130.30 152.08 129.13 151.79 127.97 C 151.51 126.81 150.34 126.10 149.18 126.39 L 148.21 126.63 C 147.06 126.91 146.35 128.08 146.63 129.24 C 146.92 130.40 148.09 131.11 149.25 130.82 Z M 150.21 130.58 L 151.19 130.34 C 152.35 130.06 153.06 128.89 152.78 127.73 C 152.50 126.57 151.33 125.86 150.17 126.15 L 149.18 126.39 C 148.03 126.67 147.32 127.84 147.60 129.00 C 147.88 130.16 149.05 130.87 150.21 130.58 Z M 151.19 130.34 L 152.18 130.10 C 153.34 129.82 154.05 128.65 153.76 127.49 C 153.48 126.33 152.31 125.62 151.15 125.91 L 150.17 126.15 C 149.01 126.43 148.30 127.60 148.58 128.76 C 148.86 129.91 150.03 130.63 151.19 130.34 Z M 152.18 130.10 L 153.16 129.86 C 154.32 129.58 155.03 128.41 154.75 127.26 C 154.47 126.10 153.30 125.39 152.14 125.67 L 151.16 125.91 C 150.00 126.19 149.29 127.36 149.57 128.51 C 149.85 129.67 151.02 130.38 152.18 130.10 Z M 153.16 129.86 L 154.12 129.63 C 155.28 129.35 155.99 128.19 155.71 127.03 C 155.43 125.87 154.27 125.16 153.11 125.44 L 152.15 125.67 C 150.99 125.95 150.28 127.11 150.55 128.27 C 150.83 129.43 152.00 130.14 153.16 129.86 Z M 154.11 129.63 L 155.11 129.40 C 156.27 129.13 156.99 127.96 156.71 126.81 C 156.44 125.65 155.28 124.93 154.12 125.20 L 153.12 125.44 C 151.96 125.71 151.24 126.87 151.52 128.03 C 151.79 129.19 152.95 129.91 154.11 129.63 Z M 155.09 129.40 L 156.07 129.18 C 157.23 128.91 157.96 127.76 157.70 126.60 C 157.43 125.44 156.28 124.71 155.12 124.98 L 154.14 125.20 C 152.98 125.46 152.25 126.62 152.51 127.78 C 152.78 128.94 153.93 129.66 155.09 129.40 Z M 156.05 129.18 L 156.99 128.97 C 158.15 128.72 158.89 127.58 158.63 126.42 C 158.38 125.26 157.24 124.52 156.08 124.77 L 155.14 124.97 C 153.98 125.23 153.24 126.37 153.50 127.53 C 153.75 128.69 154.89 129.43 156.05 129.18 Z M 156.96 128.97 L 157.96 128.77 C 159.12 128.53 159.87 127.40 159.63 126.24 C 159.39 125.08 158.26 124.33 157.10 124.57 L 156.10 124.77 C 154.94 125.01 154.19 126.14 154.43 127.30 C 154.67 128.46 155.80 129.21 156.96 128.97 Z M 157.93 128.77 L 158.90 128.59 C 160.07 128.37 160.83 127.25 160.61 126.09 C 160.39 124.93 159.27 124.16 158.11 124.38 L 157.13 124.57 C 155.97 124.79 155.21 125.91 155.43 127.07 C 155.65 128.23 156.77 128.99 157.93 128.77 Z M 158.87 128.58 L 159.85 128.42 C 161.01 128.22 161.79 127.12 161.59 125.96 C 161.39 124.80 160.29 124.02 159.13 124.22 L 158.15 124.38 C 156.99 124.58 156.21 125.68 156.41 126.84 C 156.61 128.00 157.71 128.78 158.87 128.58 Z M 159.80 128.42 L 160.81 128.27 C 161.97 128.09 162.77 127.01 162.59 125.85 C 162.42 124.69 161.34 123.89 160.18 124.07 L 159.18 124.22 C 158.02 124.39 157.22 125.47 157.39 126.63 C 157.56 127.79 158.64 128.59 159.80 128.42 Z M 160.75 128.27 L 161.72 128.15 C 162.88 128.01 163.70 126.95 163.56 125.79 C 163.42 124.63 162.37 123.81 161.21 123.95 L 160.24 124.07 C 159.08 124.21 158.25 125.26 158.39 126.42 C 158.53 127.58 159.59 128.41 160.75 128.27 Z M 161.65 128.15 L 162.67 128.05 C 163.83 127.95 164.68 126.93 164.58 125.77 C 164.47 124.61 163.45 123.76 162.29 123.86 L 161.28 123.95 C 160.12 124.06 159.26 125.08 159.37 126.24 C 159.47 127.40 160.49 128.25 161.65 128.15 Z M 162.61 128.05 L 163.58 127.99 C 164.74 127.92 165.62 126.93 165.54 125.77 C 165.47 124.61 164.48 123.74 163.33 123.81 L 162.35 123.87 C 161.20 123.94 160.32 124.93 160.39 126.09 C 160.46 127.24 161.45 128.12 162.61 128.05 Z M 163.53 127.98 L 164.54 127.94 C 165.69 127.90 166.58 126.93 166.54 125.78 C 166.49 124.63 165.53 123.73 164.38 123.78 L 163.37 123.81 C 162.22 123.86 161.33 124.83 161.37 125.98 C 161.41 127.13 162.38 128.03 163.53 127.98 Z M 164.49 127.93 L 165.48 127.91 C 166.62 127.89 167.53 126.95 167.51 125.80 C 167.49 124.66 166.55 123.75 165.40 123.77 L 164.42 123.79 C 163.27 123.81 162.36 124.75 162.38 125.90 C 162.41 127.04 163.35 127.95 164.49 127.93 Z M 165.44 127.90 L 166.44 127.90 C 167.57 127.89 168.49 126.97 168.49 125.84 C 168.49 124.70 167.57 123.78 166.43 123.78 L 165.44 123.79 C 164.30 123.79 163.38 124.71 163.38 125.85 C 163.39 126.98 164.31 127.90 165.44 127.90 Z M 166.40 127.88 L 167.42 127.90 C 168.55 127.91 169.48 127.01 169.49 125.89 C 169.51 124.76 168.61 123.83 167.49 123.81 L 166.46 123.80 C 165.34 123.78 164.41 124.68 164.39 125.81 C 164.38 126.94 165.28 127.86 166.40 127.88 Z M 167.27 127.87 L 168.27 127.97 C 169.38 128.07 170.37 127.25 170.48 126.14 C 170.58 125.02 169.76 124.03 168.64 123.93 L 167.64 123.84 C 166.53 123.73 165.54 124.55 165.43 125.67 C 165.33 126.78 166.15 127.77 167.27 127.87 Z M 167.81 127.86 L 168.75 128.18 C 169.81 128.54 170.95 127.97 171.31 126.92 C 171.67 125.87 171.11 124.72 170.05 124.36 L 169.11 124.04 C 168.05 123.68 166.91 124.24 166.55 125.30 C 166.19 126.35 166.75 127.50 167.81 127.86 Z M 168.09 127.78 L 168.83 128.42 C 169.66 129.14 170.92 129.06 171.65 128.23 C 172.37 127.40 172.29 126.13 171.45 125.41 L 170.72 124.77 C 169.89 124.04 168.62 124.13 167.90 124.96 C 167.17 125.79 167.26 127.05 168.09 127.78 Z M 168.29 127.63 L 168.64 128.51 C 169.03 129.53 170.18 130.03 171.20 129.64 C 172.22 129.24 172.72 128.10 172.33 127.08 L 171.99 126.20 C 171.59 125.18 170.44 124.67 169.42 125.07 C 168.40 125.47 167.90 126.61 168.29 127.63 Z M 168.54 127.52 L 168.40 128.54 C 168.25 129.62 169.00 130.61 170.07 130.76 C 171.14 130.90 172.13 130.16 172.28 129.08 L 172.43 128.06 C 172.57 126.99 171.83 126.00 170.75 125.85 C 169.68 125.70 168.69 126.45 168.54 127.52 Z M 168.66 127.83 L 168.21 128.60 C 167.66 129.53 167.98 130.72 168.91 131.26 C 169.84 131.81 171.03 131.50 171.57 130.57 L 172.02 129.80 C 172.57 128.87 172.25 127.67 171.33 127.13 C 170.40 126.58 169.20 126.90 168.66 127.83 Z M 168.43 128.30 L 167.74 129.08 C 167.04 129.89 167.12 131.12 167.93 131.82 C 168.73 132.53 169.96 132.45 170.67 131.64 L 171.35 130.86 C 172.06 130.05 171.98 128.83 171.17 128.12 C 170.36 127.41 169.14 127.49 168.43 128.30 Z M 167.87 128.97 L 167.12 129.68 C 166.35 130.42 166.33 131.64 167.07 132.41 C 167.81 133.19 169.03 133.21 169.80 132.47 L 170.55 131.76 C 171.32 131.02 171.34 129.79 170.60 129.02 C 169.86 128.25 168.64 128.23 167.87 128.97 Z M 167.19 129.63 L 166.46 130.27 C 165.66 130.98 165.58 132.20 166.28 133.00 C 166.99 133.79 168.21 133.87 169.01 133.17 L 169.74 132.52 C 170.54 131.82 170.62 130.60 169.91 129.80 C 169.21 129.00 167.99 128.92 167.19 129.63 Z M 166.50 130.24 L 165.71 130.89 C 164.90 131.57 164.78 132.79 165.46 133.60 C 166.14 134.42 167.35 134.53 168.17 133.85 L 168.96 133.20 C 169.78 132.52 169.89 131.31 169.21 130.49 C 168.53 129.67 167.32 129.56 166.50 130.24 Z M 165.75 130.87 L 164.95 131.51 C 164.12 132.17 163.98 133.38 164.64 134.21 C 165.29 135.03 166.50 135.17 167.33 134.52 L 168.13 133.87 C 168.96 133.22 169.10 132.01 168.44 131.18 C 167.79 130.35 166.58 130.22 165.75 130.87 Z M 164.98 131.50 L 164.19 132.11 C 163.35 132.74 163.19 133.94 163.83 134.77 C 164.47 135.61 165.66 135.77 166.50 135.13 L 167.29 134.53 C 168.12 133.89 168.29 132.70 167.65 131.86 C 167.01 131.03 165.82 130.87 164.98 131.50 Z M 164.23 132.10 L 163.42 132.69 C 162.58 133.30 162.39 134.48 163.01 135.32 C 163.62 136.16 164.80 136.35 165.64 135.74 L 166.45 135.14 C 167.29 134.53 167.48 133.35 166.87 132.51 C 166.25 131.67 165.08 131.48 164.23 132.10 Z M 163.47 132.68 L 162.65 133.24 C 161.80 133.83 161.58 134.99 162.17 135.84 C 162.75 136.69 163.91 136.90 164.76 136.32 L 165.59 135.75 C 166.44 135.17 166.65 134.00 166.07 133.15 C 165.48 132.31 164.32 132.09 163.47 132.68 Z M 162.70 133.23 L 161.85 133.77 C 160.99 134.33 160.75 135.47 161.30 136.33 C 161.85 137.19 162.99 137.44 163.85 136.88 L 164.70 136.33 C 165.56 135.78 165.81 134.64 165.26 133.78 C 164.71 132.92 163.56 132.67 162.70 133.23 Z M 161.90 133.76 L 161.05 134.28 C 160.18 134.81 159.91 135.94 160.43 136.80 C 160.96 137.67 162.09 137.94 162.95 137.41 L 163.81 136.89 C 164.67 136.37 164.94 135.24 164.42 134.38 C 163.89 133.51 162.76 133.24 161.90 133.76 Z M 161.08 134.28 L 160.22 134.79 C 159.36 135.30 159.07 136.41 159.58 137.27 C 160.09 138.14 161.20 138.42 162.07 137.92 L 162.92 137.41 C 163.78 136.90 164.07 135.79 163.56 134.93 C 163.05 134.06 161.94 133.77 161.08 134.28 Z M 160.24 134.79 L 159.93 134.97 C 159.07 135.48 158.78 136.58 159.28 137.44 C 159.78 138.30 160.88 138.59 161.74 138.09 L 162.05 137.91 C 162.91 137.41 163.21 136.30 162.70 135.44 C 162.20 134.58 161.10 134.29 160.24 134.79 Z"
      fill="black"
      fill-rule="nonzero" /><path d="M 139.21 147.76 L 140.19 147.89 C 141.29 148.03 142.30 147.26 142.44 146.16 C 142.59 145.06 141.82 144.06 140.72 143.91 L 139.74 143.78 C 138.64 143.63 137.64 144.41 137.49 145.50 C 137.34 146.60 138.12 147.61 139.21 147.76 Z M 140.53 147.97 L 141.48 147.93 C 142.63 147.90 143.52 146.94 143.48 145.80 C 143.44 144.65 142.48 143.76 141.34 143.80 L 140.38 143.83 C 139.24 143.87 138.35 144.83 138.39 145.97 C 138.42 147.11 139.38 148.01 140.53 147.97 Z M 141.85 147.92 L 142.81 147.71 C 143.94 147.47 144.66 146.35 144.42 145.22 C 144.18 144.09 143.06 143.37 141.93 143.61 L 140.97 143.81 C 139.84 144.06 139.12 145.17 139.36 146.31 C 139.60 147.44 140.72 148.16 141.85 147.92 Z M 142.95 147.68 L 143.97 147.39 C 145.09 147.06 145.73 145.90 145.41 144.78 C 145.09 143.66 143.92 143.02 142.81 143.35 L 141.79 143.64 C 140.67 143.96 140.03 145.13 140.35 146.25 C 140.67 147.36 141.84 148.00 142.95 147.68 Z M 144.01 147.38 L 145.00 147.07 C 146.11 146.73 146.73 145.55 146.39 144.44 C 146.04 143.33 144.86 142.70 143.75 143.05 L 142.77 143.35 C 141.66 143.70 141.03 144.88 141.38 145.99 C 141.72 147.10 142.90 147.72 144.01 147.38 Z M 145.01 147.07 L 145.94 146.78 C 147.06 146.43 147.67 145.25 147.33 144.14 C 146.98 143.02 145.79 142.40 144.68 142.75 L 143.74 143.05 C 142.63 143.40 142.01 144.58 142.36 145.69 C 142.71 146.80 143.89 147.42 145.01 147.07 Z M 145.93 146.78 L 146.95 146.47 C 148.06 146.13 148.69 144.95 148.35 143.84 C 148.00 142.72 146.82 142.10 145.71 142.44 L 144.69 142.75 C 143.58 143.09 142.95 144.27 143.29 145.39 C 143.64 146.50 144.82 147.13 145.93 146.78 Z M 146.94 146.47 L 147.83 146.20 C 148.95 145.86 149.57 144.68 149.23 143.57 C 148.89 142.46 147.72 141.83 146.60 142.17 L 145.71 142.44 C 144.60 142.78 143.97 143.96 144.31 145.07 C 144.65 146.18 145.83 146.81 146.94 146.47 Z M 147.84 146.19 L 148.79 145.89 C 149.89 145.55 150.51 144.37 150.17 143.27 C 149.83 142.16 148.65 141.54 147.54 141.89 L 146.60 142.18 C 145.49 142.52 144.87 143.70 145.22 144.81 C 145.56 145.91 146.73 146.53 147.84 146.19 Z M 148.77 145.88 L 149.74 145.59 C 150.84 145.25 151.45 144.09 151.12 142.99 C 150.78 141.89 149.62 141.27 148.52 141.61 L 147.56 141.90 C 146.46 142.24 145.84 143.40 146.18 144.50 C 146.51 145.60 147.67 146.22 148.77 145.88 Z M 149.72 145.57 L 150.68 145.28 C 151.77 144.96 152.39 143.81 152.07 142.72 C 151.74 141.63 150.59 141.01 149.50 141.33 L 148.54 141.62 C 147.45 141.95 146.83 143.10 147.15 144.19 C 147.48 145.28 148.63 145.90 149.72 145.57 Z M 150.68 145.26 L 151.64 144.97 C 152.72 144.64 153.33 143.50 153.00 142.42 C 152.67 141.34 151.53 140.74 150.46 141.06 L 149.50 141.36 C 148.42 141.68 147.81 142.82 148.14 143.90 C 148.47 144.98 149.61 145.59 150.68 145.26 Z M 151.63 144.94 L 152.59 144.66 C 153.65 144.34 154.25 143.21 153.93 142.15 C 153.61 141.08 152.49 140.48 151.43 140.80 L 150.47 141.09 C 149.41 141.41 148.80 142.53 149.12 143.60 C 149.44 144.66 150.56 145.26 151.63 144.94 Z M 152.53 144.64 L 153.51 144.37 C 154.57 144.08 155.19 142.99 154.90 141.93 C 154.60 140.88 153.51 140.26 152.46 140.55 L 151.48 140.82 C 150.42 141.11 149.81 142.20 150.10 143.25 C 150.39 144.31 151.48 144.93 152.53 144.64 Z M 153.48 144.34 L 154.43 144.09 C 155.47 143.82 156.09 142.76 155.82 141.72 C 155.55 140.68 154.48 140.06 153.45 140.33 L 152.49 140.58 C 151.46 140.85 150.83 141.91 151.11 142.95 C 151.38 143.99 152.44 144.61 153.48 144.34 Z M 154.43 144.06 L 155.36 143.81 C 156.38 143.54 156.99 142.49 156.72 141.47 C 156.45 140.45 155.40 139.85 154.38 140.11 L 153.45 140.36 C 152.43 140.63 151.82 141.68 152.09 142.70 C 152.36 143.72 153.41 144.33 154.43 144.06 Z M 155.34 143.79 L 156.32 143.53 C 157.33 143.28 157.94 142.25 157.68 141.24 C 157.42 140.23 156.39 139.63 155.39 139.89 L 154.40 140.14 C 153.40 140.40 152.79 141.42 153.05 142.43 C 153.31 143.44 154.33 144.04 155.34 143.79 Z M 156.28 143.52 L 157.26 143.29 C 158.26 143.06 158.88 142.06 158.65 141.06 C 158.42 140.06 157.42 139.44 156.42 139.67 L 155.43 139.90 C 154.43 140.13 153.81 141.13 154.04 142.13 C 154.27 143.13 155.27 143.76 156.28 143.52 Z M 157.17 143.29 L 158.18 143.11 C 159.18 142.93 159.84 141.97 159.66 140.97 C 159.48 139.97 158.52 139.30 157.52 139.48 L 156.51 139.67 C 155.51 139.85 154.84 140.81 155.03 141.81 C 155.21 142.81 156.17 143.48 157.17 143.29 Z M 158.05 143.11 L 159.05 143.00 C 160.05 142.89 160.77 141.99 160.66 140.99 C 160.55 139.99 159.65 139.26 158.65 139.37 L 157.65 139.48 C 156.65 139.60 155.92 140.50 156.03 141.50 C 156.15 142.50 157.05 143.22 158.05 143.11 Z M 158.98 142.99 L 159.59 142.94 C 160.59 142.87 161.34 142.00 161.26 141.01 C 161.19 140.01 160.32 139.26 159.32 139.34 L 158.71 139.38 C 157.72 139.46 156.97 140.33 157.05 141.32 C 157.12 142.32 157.99 143.06 158.98 142.99 Z"
      fill="black"
      fill-rule="nonzero" /><path d="M 129.31 162.97 L 130.24 162.95 C 131.36 162.93 132.25 162.00 132.22 160.88 C 132.20 159.76 131.27 158.88 130.15 158.90 L 129.22 158.92 C 128.10 158.95 127.22 159.87 127.24 160.99 C 127.27 162.11 128.19 163.00 129.31 162.97 Z M 130.48 163.04 L 131.53 162.90 C 132.70 162.74 133.52 161.67 133.36 160.50 C 133.20 159.33 132.13 158.51 130.96 158.67 L 129.91 158.81 C 128.74 158.97 127.92 160.04 128.08 161.21 C 128.24 162.38 129.31 163.20 130.48 163.04 Z M 131.77 162.92 L 132.72 162.68 C 133.89 162.39 134.61 161.21 134.32 160.03 C 134.03 158.85 132.85 158.13 131.67 158.42 L 130.72 158.65 C 129.55 158.94 128.83 160.13 129.12 161.31 C 129.40 162.49 130.59 163.20 131.77 162.92 Z M 132.81 162.67 L 133.81 162.38 C 134.98 162.04 135.65 160.81 135.31 159.64 C 134.96 158.47 133.73 157.80 132.56 158.14 L 131.57 158.43 C 130.40 158.77 129.73 160.00 130.07 161.17 C 130.41 162.35 131.64 163.02 132.81 162.67 Z M 133.83 162.39 L 134.81 162.09 C 135.99 161.74 136.65 160.50 136.29 159.32 C 135.94 158.15 134.70 157.48 133.52 157.84 L 132.54 158.13 C 131.36 158.49 130.70 159.73 131.06 160.91 C 131.41 162.08 132.65 162.75 133.83 162.39 Z M 134.81 162.10 L 135.75 161.82 C 136.93 161.46 137.60 160.22 137.25 159.04 C 136.89 157.86 135.65 157.19 134.47 157.54 L 133.53 157.83 C 132.35 158.18 131.68 159.42 132.03 160.60 C 132.38 161.78 133.63 162.45 134.81 162.10 Z M 135.77 161.82 L 136.70 161.53 C 137.88 161.17 138.54 159.92 138.18 158.74 C 137.82 157.56 136.57 156.90 135.39 157.26 L 134.46 157.54 C 133.28 157.91 132.61 159.16 132.97 160.34 C 133.34 161.52 134.59 162.18 135.77 161.82 Z M 136.72 161.53 L 137.64 161.24 C 138.82 160.87 139.47 159.61 139.10 158.43 C 138.72 157.25 137.47 156.60 136.29 156.97 L 135.37 157.26 C 134.19 157.64 133.54 158.89 133.91 160.07 C 134.28 161.25 135.54 161.90 136.72 161.53 Z M 137.64 161.24 L 138.62 160.93 C 139.80 160.55 140.45 159.29 140.08 158.12 C 139.70 156.94 138.44 156.29 137.26 156.66 L 136.29 156.97 C 135.11 157.35 134.45 158.61 134.83 159.78 C 135.20 160.96 136.46 161.61 137.64 161.24 Z M 138.61 160.93 L 139.57 160.63 C 140.75 160.26 141.40 159.01 141.03 157.83 C 140.66 156.65 139.41 155.99 138.23 156.36 L 137.27 156.66 C 136.09 157.03 135.43 158.28 135.80 159.46 C 136.17 160.65 137.43 161.30 138.61 160.93 Z M 139.56 160.64 L 140.51 160.34 C 141.69 159.98 142.35 158.72 141.99 157.54 C 141.62 156.36 140.37 155.69 139.18 156.06 L 138.23 156.35 C 137.05 156.72 136.39 157.98 136.75 159.16 C 137.12 160.34 138.38 161.00 139.56 160.64 Z M 140.51 160.34 L 141.49 160.04 C 142.67 159.67 143.33 158.41 142.96 157.23 C 142.59 156.05 141.34 155.39 140.16 155.76 L 139.18 156.06 C 138.00 156.43 137.34 157.69 137.70 158.87 C 138.07 160.05 139.33 160.71 140.51 160.34 Z M 141.50 160.04 L 142.44 159.74 C 143.62 159.37 144.27 158.11 143.90 156.93 C 143.53 155.75 142.27 155.09 141.09 155.46 L 140.15 155.76 C 138.96 156.13 138.31 157.39 138.68 158.57 C 139.06 159.75 140.32 160.41 141.50 160.04 Z M 142.44 159.74 L 143.39 159.44 C 144.57 159.06 145.22 157.80 144.84 156.62 C 144.46 155.44 143.20 154.79 142.02 155.16 L 141.08 155.47 C 139.90 155.84 139.25 157.10 139.63 158.28 C 140.00 159.46 141.26 160.11 142.44 159.74 Z M 143.38 159.44 L 144.36 159.13 C 145.53 158.75 146.19 157.49 145.81 156.31 C 145.44 155.13 144.18 154.48 143.00 154.86 L 142.03 155.16 C 140.85 155.54 140.20 156.80 140.57 157.98 C 140.95 159.16 142.21 159.81 143.38 159.44 Z M 144.35 159.13 L 145.31 158.82 C 146.49 158.45 147.15 157.20 146.78 156.02 C 146.41 154.84 145.15 154.18 143.97 154.55 L 143.01 154.86 C 141.83 155.23 141.17 156.48 141.54 157.66 C 141.91 158.84 143.17 159.50 144.35 159.13 Z M 145.31 158.82 L 146.27 158.52 C 147.45 158.15 148.11 156.90 147.74 155.72 C 147.37 154.55 146.12 153.89 144.94 154.26 L 143.98 154.56 C 142.80 154.92 142.14 156.18 142.51 157.35 C 142.88 158.53 144.13 159.19 145.31 158.82 Z M 146.28 158.51 L 147.23 158.21 C 148.40 157.84 149.05 156.59 148.68 155.42 C 148.32 154.25 147.07 153.60 145.89 153.96 L 144.94 154.26 C 143.77 154.63 143.12 155.88 143.48 157.05 C 143.85 158.23 145.10 158.88 146.28 158.51 Z M 147.24 158.20 L 148.21 157.89 C 149.37 157.51 150.01 156.26 149.64 155.10 C 149.26 153.93 148.01 153.29 146.85 153.66 L 145.88 153.98 C 144.72 154.35 144.07 155.60 144.45 156.77 C 144.83 157.93 146.08 158.57 147.24 158.20 Z M 148.22 157.87 L 149.18 157.56 C 150.34 157.17 150.97 155.93 150.59 154.77 C 150.21 153.61 148.96 152.98 147.80 153.36 L 146.84 153.68 C 145.68 154.06 145.05 155.31 145.43 156.47 C 145.81 157.63 147.06 158.25 148.22 157.87 Z M 149.18 157.54 L 150.11 157.24 C 151.26 156.86 151.89 155.62 151.50 154.46 C 151.12 153.31 149.88 152.68 148.73 153.07 L 147.80 153.37 C 146.65 153.75 146.02 154.99 146.40 156.15 C 146.79 157.30 148.03 157.93 149.18 157.54 Z M 150.09 157.23 L 151.04 156.92 C 152.19 156.55 152.82 155.32 152.45 154.17 C 152.08 153.03 150.85 152.39 149.70 152.77 L 148.75 153.07 C 147.60 153.44 146.97 154.67 147.34 155.82 C 147.71 156.97 148.94 157.60 150.09 157.23 Z M 151.02 156.92 L 151.98 156.62 C 153.12 156.26 153.76 155.04 153.40 153.90 C 153.05 152.75 151.83 152.12 150.69 152.47 L 149.72 152.77 C 148.58 153.13 147.94 154.35 148.30 155.49 C 148.66 156.64 149.87 157.27 151.02 156.92 Z M 151.96 156.60 L 152.89 156.32 C 154.03 155.98 154.67 154.77 154.33 153.64 C 153.98 152.50 152.78 151.85 151.64 152.20 L 150.71 152.48 C 149.57 152.83 148.93 154.03 149.27 155.17 C 149.62 156.31 150.82 156.95 151.96 156.60 Z M 152.87 156.31 L 153.86 156.01 C 154.99 155.68 155.64 154.49 155.30 153.36 C 154.97 152.23 153.78 151.59 152.65 151.92 L 151.66 152.21 C 150.53 152.55 149.89 153.74 150.22 154.87 C 150.56 156.00 151.74 156.64 152.87 156.31 Z M 153.84 156.00 L 154.79 155.72 C 155.91 155.39 156.56 154.22 156.23 153.10 C 155.91 151.98 154.73 151.34 153.61 151.66 L 152.66 151.94 C 151.54 152.27 150.90 153.44 151.23 154.56 C 151.55 155.68 152.72 156.32 153.84 156.00 Z M 154.79 155.70 L 155.75 155.42 C 156.86 155.10 157.50 153.94 157.18 152.83 C 156.86 151.72 155.70 151.08 154.59 151.41 L 153.62 151.68 C 152.51 152.01 151.88 153.16 152.20 154.27 C 152.52 155.38 153.68 156.02 154.79 155.70 Z M 155.74 155.40 L 156.71 155.12 C 157.80 154.81 158.44 153.66 158.12 152.57 C 157.81 151.47 156.66 150.84 155.57 151.15 L 154.60 151.43 C 153.50 151.74 152.87 152.89 153.18 153.98 C 153.50 155.08 154.64 155.71 155.74 155.40 Z M 156.68 155.10 L 157.63 154.84 C 158.71 154.53 159.35 153.41 159.05 152.32 C 158.75 151.24 157.62 150.60 156.54 150.91 L 155.59 151.17 C 154.50 151.47 153.87 152.60 154.17 153.68 C 154.47 154.77 155.60 155.40 156.68 155.10 Z M 157.60 154.82 L 158.56 154.56 C 159.64 154.27 160.28 153.17 159.99 152.09 C 159.70 151.02 158.60 150.38 157.52 150.67 L 156.56 150.93 C 155.49 151.21 154.85 152.32 155.14 153.39 C 155.43 154.47 156.53 155.10 157.60 154.82 Z M 158.55 154.53 L 159.49 154.29 C 160.55 154.01 161.19 152.93 160.91 151.87 C 160.64 150.80 159.55 150.17 158.49 150.45 L 157.54 150.69 C 156.48 150.97 155.85 152.06 156.12 153.12 C 156.40 154.18 157.49 154.81 158.55 154.53 Z M 159.41 154.27 L 160.39 154.06 C 161.45 153.82 162.11 152.78 161.88 151.73 C 161.64 150.68 160.60 150.01 159.55 150.24 L 158.57 150.46 C 157.52 150.69 156.85 151.73 157.09 152.79 C 157.32 153.84 158.36 154.51 159.41 154.27 Z M 160.21 154.06 L 161.20 153.94 C 162.25 153.80 163.00 152.84 162.87 151.79 C 162.74 150.73 161.77 149.98 160.72 150.12 L 159.73 150.24 C 158.68 150.37 157.93 151.34 158.06 152.39 C 158.19 153.45 159.16 154.19 160.21 154.06 Z M 161.06 153.93 L 162.07 153.87 C 163.12 153.81 163.92 152.92 163.86 151.87 C 163.81 150.82 162.91 150.02 161.86 150.07 L 160.86 150.13 C 159.81 150.18 159.00 151.08 159.06 152.13 C 159.12 153.18 160.01 153.98 161.06 153.93 Z M 162.03 153.86 L 162.29 153.85 C 163.34 153.81 164.15 152.93 164.11 151.89 C 164.07 150.85 163.20 150.04 162.15 150.08 L 161.89 150.09 C 160.85 150.12 160.04 151.00 160.08 152.04 C 160.12 153.08 160.99 153.90 162.03 153.86 Z"
      fill="black"
      fill-rule="nonzero" /><path d="M 148.70 154.00 L 149.11 154.90 C 149.58 155.93 150.79 156.38 151.82 155.91 C 152.84 155.43 153.29 154.22 152.82 153.20 L 152.40 152.30 C 151.93 151.28 150.72 150.83 149.70 151.30 C 148.68 151.77 148.23 152.98 148.70 154.00 Z M 149.03 154.85 L 149.41 155.78 C 149.86 156.85 151.08 157.36 152.15 156.91 C 153.22 156.47 153.73 155.25 153.28 154.18 L 152.90 153.25 C 152.46 152.18 151.23 151.67 150.16 152.12 C 149.09 152.56 148.59 153.79 149.03 154.85 Z M 149.33 155.66 L 149.63 156.56 C 150.01 157.67 151.22 158.27 152.34 157.90 C 153.45 157.52 154.05 156.31 153.67 155.19 L 153.37 154.30 C 152.99 153.18 151.78 152.58 150.67 152.96 C 149.55 153.34 148.95 154.55 149.33 155.66 Z M 149.58 156.43 L 149.84 157.39 C 150.14 158.53 151.32 159.21 152.46 158.91 C 153.60 158.60 154.28 157.43 153.98 156.29 L 153.72 155.33 C 153.42 154.18 152.25 153.50 151.10 153.81 C 149.96 154.11 149.28 155.28 149.58 156.43 Z M 149.81 157.29 L 150.03 158.32 C 150.28 159.48 151.42 160.22 152.58 159.97 C 153.74 159.72 154.48 158.58 154.23 157.42 L 154.01 156.39 C 153.76 155.23 152.62 154.49 151.46 154.74 C 150.30 154.99 149.56 156.13 149.81 157.29 Z M 150.01 158.25 L 150.20 159.26 C 150.41 160.43 151.53 161.21 152.70 161.00 C 153.86 160.79 154.64 159.67 154.43 158.50 L 154.25 157.49 C 154.03 156.32 152.91 155.54 151.75 155.75 C 150.58 155.97 149.80 157.09 150.01 158.25 Z M 150.19 159.22 L 150.35 160.22 C 150.53 161.40 151.64 162.19 152.81 162.01 C 153.99 161.82 154.79 160.71 154.60 159.54 L 154.44 158.54 C 154.25 157.37 153.15 156.57 151.97 156.76 C 150.80 156.94 150.00 158.05 150.19 159.22 Z M 150.34 160.18 L 150.48 161.20 C 150.65 162.38 151.74 163.20 152.92 163.03 C 154.09 162.86 154.91 161.77 154.75 160.60 L 154.61 159.58 C 154.44 158.40 153.35 157.58 152.17 157.75 C 150.99 157.91 150.17 159.00 150.34 160.18 Z M 150.47 161.14 L 150.58 162.13 C 150.72 163.31 151.78 164.16 152.97 164.03 C 154.15 163.90 155.00 162.83 154.87 161.65 L 154.76 160.66 C 154.62 159.47 153.56 158.62 152.38 158.75 C 151.19 158.89 150.34 159.95 150.47 161.14 Z M 150.58 162.05 L 150.65 162.98 C 150.73 164.16 151.77 165.06 152.95 164.97 C 154.14 164.88 155.03 163.85 154.94 162.66 L 154.88 161.73 C 154.79 160.54 153.75 159.65 152.57 159.74 C 151.38 159.83 150.49 160.86 150.58 162.05 Z M 150.64 162.91 L 150.69 163.90 C 150.74 165.09 151.75 166.01 152.93 165.96 C 154.12 165.91 155.04 164.90 154.99 163.71 L 154.95 162.72 C 154.90 161.53 153.89 160.61 152.70 160.67 C 151.51 160.72 150.59 161.72 150.64 162.91 Z M 150.69 163.87 L 150.72 164.89 C 150.75 166.08 151.75 167.01 152.94 166.97 C 154.12 166.94 155.06 165.95 155.02 164.76 L 154.99 163.74 C 154.96 162.55 153.96 161.62 152.77 161.65 C 151.58 161.69 150.65 162.68 150.69 163.87 Z M 150.72 164.88 L 150.74 165.87 C 150.78 167.06 151.76 167.99 152.95 167.96 C 154.14 167.93 155.08 166.94 155.05 165.75 L 155.02 164.76 C 154.99 163.58 154.00 162.64 152.81 162.67 C 151.62 162.70 150.69 163.69 150.72 164.88 Z M 150.74 165.85 L 150.76 166.87 C 150.79 168.05 151.77 169.00 152.96 168.98 C 154.15 168.95 155.09 167.97 155.07 166.78 L 155.05 165.77 C 155.02 164.58 154.04 163.63 152.85 163.66 C 151.67 163.68 150.72 164.66 150.74 165.85 Z M 150.77 166.84 L 150.77 167.84 C 150.79 169.03 151.76 169.98 152.95 169.97 C 154.13 169.96 155.09 168.99 155.08 167.80 L 155.07 166.80 C 155.06 165.62 154.08 164.66 152.90 164.67 C 151.71 164.68 150.75 165.66 150.77 166.84 Z M 150.78 167.83 L 150.78 168.83 C 150.78 170.02 151.75 170.98 152.93 170.97 C 154.12 170.97 155.08 170.01 155.08 168.82 L 155.07 167.82 C 155.07 166.63 154.11 165.67 152.92 165.67 C 151.73 165.68 150.77 166.64 150.78 167.83 Z M 150.78 168.82 L 150.78 169.82 C 150.78 171.00 151.74 171.97 152.93 171.97 C 154.11 171.97 155.07 171.01 155.07 169.82 L 155.08 168.83 C 155.08 167.64 154.11 166.68 152.93 166.68 C 151.74 166.68 150.78 167.64 150.78 168.82 Z M 150.78 169.81 L 150.78 170.80 C 150.77 171.98 151.72 172.95 152.91 172.96 C 154.09 172.96 155.06 172.01 155.07 170.83 L 155.07 169.83 C 155.08 168.65 154.12 167.68 152.94 167.67 C 151.76 167.67 150.79 168.62 150.78 169.81 Z M 150.78 170.77 L 150.76 171.78 C 150.73 172.97 151.67 173.94 152.86 173.97 C 154.04 173.99 155.02 173.05 155.04 171.87 L 155.06 170.86 C 155.09 169.67 154.15 168.69 152.97 168.67 C 151.78 168.65 150.80 169.59 150.78 170.77 Z M 150.76 171.74 L 150.72 172.75 C 150.67 173.93 151.59 174.93 152.77 174.98 C 153.95 175.03 154.95 174.11 155.00 172.93 L 155.04 171.91 C 155.09 170.73 154.17 169.74 152.99 169.69 C 151.81 169.64 150.81 170.56 150.76 171.74 Z M 150.72 172.69 L 150.65 173.68 C 150.57 174.86 151.46 175.88 152.64 175.97 C 153.82 176.05 154.84 175.16 154.92 173.98 L 154.99 172.99 C 155.08 171.81 154.19 170.79 153.01 170.70 C 151.83 170.62 150.81 171.51 150.72 172.69 Z M 150.66 173.59 L 150.55 174.62 C 150.41 175.79 151.25 176.85 152.43 176.99 C 153.60 177.12 154.66 176.28 154.80 175.10 L 154.91 174.07 C 155.05 172.90 154.21 171.84 153.03 171.71 C 151.86 171.57 150.80 172.41 150.66 173.59 Z M 150.56 174.52 L 150.40 175.49 C 150.22 176.66 151.01 177.75 152.18 177.94 C 153.35 178.13 154.44 177.33 154.63 176.16 L 154.78 175.20 C 154.97 174.03 154.18 172.93 153.01 172.75 C 151.84 172.56 150.75 173.35 150.56 174.52 Z M 150.42 175.42 L 150.24 176.34 C 150.02 177.50 150.78 178.62 151.93 178.84 C 153.09 179.07 154.22 178.31 154.44 177.15 L 154.62 176.23 C 154.84 175.07 154.08 173.95 152.92 173.73 C 151.76 173.50 150.64 174.26 150.42 175.42 Z M 150.25 176.29 L 150.04 177.26 C 149.79 178.41 150.52 179.55 151.67 179.80 C 152.83 180.05 153.96 179.32 154.21 178.17 L 154.43 177.20 C 154.68 176.05 153.95 174.91 152.79 174.66 C 151.64 174.41 150.50 175.14 150.25 176.29 Z M 150.05 177.22 L 149.82 178.22 C 149.55 179.36 150.26 180.51 151.41 180.78 C 152.56 181.05 153.70 180.34 153.97 179.19 L 154.20 178.20 C 154.47 177.05 153.76 175.90 152.62 175.64 C 151.47 175.37 150.32 176.08 150.05 177.22 Z M 149.83 178.19 L 149.58 179.17 C 149.30 180.31 149.99 181.47 151.13 181.76 C 152.27 182.04 153.43 181.35 153.71 180.21 L 153.96 179.22 C 154.25 178.08 153.55 176.92 152.41 176.64 C 151.27 176.35 150.12 177.05 149.83 178.19 Z M 149.60 179.12 L 149.33 180.10 C 149.01 181.24 149.68 182.41 150.81 182.72 C 151.94 183.04 153.11 182.37 153.43 181.24 L 153.70 180.26 C 154.01 179.13 153.35 177.95 152.22 177.64 C 151.09 177.33 149.91 177.99 149.60 179.12 Z M 149.37 180.00 L 149.01 181.04 C 148.64 182.15 149.24 183.35 150.35 183.73 C 151.46 184.10 152.66 183.50 153.04 182.39 L 153.39 181.35 C 153.76 180.24 153.16 179.03 152.05 178.66 C 150.94 178.29 149.74 178.88 149.37 180.00 Z M 149.13 180.78 L 148.71 181.63 C 148.20 182.68 148.63 183.95 149.67 184.46 C 150.72 184.98 151.99 184.54 152.50 183.50 L 152.92 182.65 C 153.44 181.60 153.01 180.34 151.96 179.82 C 150.91 179.31 149.65 179.74 149.13 180.78 Z M 149.13 181.07 L 148.41 181.78 C 147.59 182.60 147.58 183.93 148.40 184.75 C 149.22 185.58 150.55 185.59 151.37 184.77 L 152.09 184.06 C 152.91 183.24 152.92 181.91 152.10 181.08 C 151.28 180.26 149.95 180.25 149.13 181.07 Z M 149.82 181.19 L 148.98 181.22 C 147.83 181.26 146.93 182.22 146.97 183.37 C 147.01 184.53 147.97 185.43 149.13 185.39 L 149.96 185.36 C 151.12 185.32 152.02 184.35 151.98 183.20 C 151.94 182.05 150.97 181.15 149.82 181.19 Z M 150.53 181.89 L 149.86 181.20 C 149.08 180.39 147.79 180.36 146.98 181.14 C 146.17 181.91 146.14 183.20 146.92 184.02 L 147.58 184.71 C 148.36 185.53 149.65 185.55 150.46 184.77 C 151.28 184.00 151.31 182.71 150.53 181.89 Z M 150.13 181.68 L 149.64 180.75 C 149.12 179.78 147.93 179.42 146.96 179.93 C 146.00 180.45 145.64 181.64 146.15 182.61 L 146.65 183.54 C 147.16 184.50 148.36 184.87 149.32 184.35 C 150.28 183.84 150.65 182.64 150.13 181.68 Z M 149.68 180.95 L 149.29 180.01 C 148.89 179.02 147.76 178.55 146.78 178.95 C 145.79 179.35 145.32 180.48 145.72 181.47 L 146.11 182.41 C 146.51 183.39 147.64 183.86 148.62 183.46 C 149.61 183.06 150.08 181.93 149.68 180.95 Z M 149.30 180.14 L 148.98 179.18 C 148.65 178.19 147.58 177.65 146.59 177.98 C 145.60 178.31 145.07 179.38 145.40 180.37 L 145.71 181.33 C 146.04 182.32 147.11 182.86 148.10 182.53 C 149.10 182.20 149.63 181.13 149.30 180.14 Z M 148.99 179.30 L 148.74 178.34 C 148.47 177.35 147.45 176.75 146.46 177.02 C 145.46 177.28 144.87 178.30 145.14 179.30 L 145.39 180.25 C 145.65 181.25 146.67 181.84 147.67 181.58 C 148.66 181.31 149.25 180.29 148.99 179.30 Z M 148.74 178.43 L 148.53 177.47 C 148.32 176.48 147.34 175.85 146.34 176.06 C 145.35 176.27 144.71 177.26 144.93 178.25 L 145.13 179.21 C 145.35 180.20 146.33 180.84 147.32 180.62 C 148.32 180.41 148.95 179.43 148.74 178.43 Z M 148.54 177.53 L 148.36 176.56 C 148.17 175.56 147.21 174.90 146.22 175.08 C 145.22 175.27 144.56 176.23 144.74 177.22 L 144.92 178.20 C 145.11 179.19 146.07 179.85 147.06 179.67 C 148.06 179.48 148.72 178.53 148.54 177.53 Z M 148.36 176.59 L 148.20 175.58 C 148.03 174.58 147.09 173.90 146.09 174.06 C 145.09 174.22 144.41 175.17 144.57 176.17 L 144.74 177.18 C 144.90 178.18 145.84 178.86 146.85 178.70 C 147.85 178.54 148.53 177.59 148.36 176.59 Z M 148.20 175.60 L 148.06 174.60 C 147.91 173.60 146.97 172.90 145.97 173.05 C 144.96 173.20 144.27 174.14 144.42 175.14 L 144.56 176.14 C 144.71 177.15 145.65 177.84 146.65 177.69 C 147.66 177.54 148.35 176.61 148.20 175.60 Z M 148.07 174.62 L 147.93 173.63 C 147.79 172.62 146.86 171.92 145.85 172.06 C 144.84 172.20 144.13 173.13 144.27 174.14 L 144.41 175.13 C 144.55 176.14 145.48 176.84 146.49 176.70 C 147.50 176.56 148.21 175.63 148.07 174.62 Z M 147.94 173.64 L 147.81 172.65 C 147.68 171.64 146.74 170.92 145.72 171.06 C 144.71 171.19 143.99 172.13 144.13 173.14 L 144.26 174.13 C 144.39 175.15 145.33 175.87 146.35 175.73 C 147.36 175.59 148.08 174.66 147.94 173.64 Z M 147.83 172.65 L 147.70 171.66 C 147.56 170.64 146.61 169.92 145.58 170.06 C 144.56 170.20 143.84 171.14 143.98 172.17 L 144.11 173.15 C 144.25 174.18 145.19 174.90 146.22 174.76 C 147.25 174.62 147.97 173.67 147.83 172.65 Z M 147.71 171.64 L 147.57 170.63 C 147.41 169.60 146.45 168.88 145.41 169.03 C 144.37 169.19 143.66 170.15 143.81 171.19 L 143.96 172.19 C 144.11 173.23 145.08 173.95 146.11 173.79 C 147.15 173.64 147.87 172.68 147.71 171.64 Z M 147.58 170.58 L 147.40 169.58 C 147.22 168.53 146.23 167.83 145.18 168.02 C 144.13 168.20 143.44 169.20 143.62 170.24 L 143.79 171.24 C 143.98 172.29 144.97 172.99 146.02 172.80 C 147.06 172.62 147.76 171.62 147.58 170.58 Z M 147.42 169.45 L 147.17 168.41 C 146.91 167.36 145.85 166.71 144.80 166.96 C 143.75 167.22 143.10 168.28 143.35 169.33 L 143.61 170.37 C 143.86 171.42 144.92 172.07 145.97 171.82 C 147.03 171.56 147.67 170.50 147.42 169.45 Z M 147.05 167.90 L 146.60 167.07 C 146.07 166.08 144.83 165.71 143.84 166.25 C 142.85 166.78 142.48 168.02 143.02 169.01 L 143.47 169.84 C 144.00 170.83 145.24 171.20 146.23 170.66 C 147.22 170.13 147.59 168.89 147.05 167.90 Z M 144.87 165.93 L 144.16 165.91 C 143.00 165.87 142.02 166.79 141.99 167.95 C 141.95 169.12 142.87 170.09 144.04 170.13 L 144.75 170.15 C 145.91 170.19 146.89 169.27 146.92 168.10 C 146.96 166.94 146.04 165.96 144.87 165.93 Z M 142.84 166.28 L 141.91 166.95 C 140.95 167.64 140.74 168.98 141.43 169.95 C 142.13 170.91 143.47 171.12 144.43 170.43 L 145.36 169.76 C 146.32 169.06 146.53 167.72 145.84 166.76 C 145.15 165.80 143.80 165.58 142.84 166.28 Z M 141.66 167.14 L 141.04 167.74 C 140.19 168.58 140.17 169.95 141.00 170.80 C 141.84 171.66 143.21 171.68 144.06 170.84 L 144.68 170.24 C 145.54 169.40 145.56 168.03 144.72 167.18 C 143.89 166.32 142.52 166.30 141.66 167.14 Z M 140.98 167.80 L 140.28 168.53 C 139.45 169.40 139.49 170.78 140.36 171.60 C 141.23 172.43 142.60 172.39 143.43 171.52 L 144.13 170.79 C 144.95 169.92 144.92 168.54 144.05 167.72 C 143.18 166.89 141.80 166.93 140.98 167.80 Z M 140.26 168.54 L 139.48 169.38 C 138.66 170.26 138.71 171.64 139.59 172.46 C 140.47 173.28 141.85 173.23 142.67 172.35 L 143.45 171.51 C 144.27 170.63 144.22 169.26 143.34 168.44 C 142.46 167.62 141.08 167.66 140.26 168.54 Z M 139.49 169.36 L 138.82 170.08 C 137.99 170.95 138.03 172.33 138.90 173.16 C 139.78 173.99 141.16 173.95 141.98 173.08 L 142.66 172.36 C 143.49 171.49 143.45 170.11 142.58 169.28 C 141.70 168.45 140.32 168.49 139.49 169.36 Z M 138.83 170.06 L 138.13 170.79 C 137.29 171.65 137.31 173.04 138.18 173.87 C 139.05 174.71 140.43 174.69 141.27 173.82 L 141.97 173.09 C 142.81 172.23 142.79 170.84 141.92 170.01 C 141.05 169.17 139.67 169.19 138.83 170.06 Z M 138.14 170.77 L 137.43 171.49 C 136.58 172.35 136.59 173.73 137.44 174.58 C 138.30 175.43 139.69 175.42 140.54 174.57 L 141.25 173.84 C 142.10 172.98 142.09 171.60 141.23 170.75 C 140.38 169.90 138.99 169.91 138.14 170.77 Z M 137.45 171.47 L 136.74 172.17 C 135.88 173.02 135.87 174.40 136.71 175.26 C 137.56 176.12 138.95 176.13 139.81 175.29 L 140.52 174.59 C 141.38 173.74 141.39 172.35 140.54 171.49 C 139.69 170.63 138.31 170.62 137.45 171.47 Z M 136.76 172.14 L 135.97 172.89 C 135.10 173.73 135.06 175.11 135.90 175.99 C 136.73 176.86 138.12 176.90 138.99 176.06 L 139.78 175.31 C 140.66 174.48 140.69 173.09 139.86 172.22 C 139.02 171.34 137.64 171.31 136.76 172.14 Z M 136.00 172.86 L 135.25 173.55 C 134.36 174.37 134.30 175.75 135.11 176.65 C 135.93 177.54 137.32 177.60 138.21 176.78 L 138.96 176.09 C 139.85 175.28 139.92 173.89 139.10 173.00 C 138.28 172.11 136.90 172.05 136.00 172.86 Z M 135.28 173.52 L 134.58 174.14 C 133.67 174.94 133.58 176.33 134.37 177.24 C 135.17 178.15 136.56 178.24 137.47 177.44 L 138.17 176.82 C 139.08 176.02 139.17 174.63 138.38 173.72 C 137.58 172.81 136.19 172.72 135.28 173.52 Z M 134.61 174.11 L 133.86 174.74 C 132.93 175.52 132.81 176.90 133.58 177.83 C 134.36 178.76 135.74 178.88 136.67 178.10 L 137.43 177.47 C 138.36 176.69 138.48 175.31 137.70 174.38 C 136.92 173.45 135.54 173.33 134.61 174.11 Z M 133.90 174.70 L 133.11 175.33 C 132.16 176.08 132.00 177.46 132.76 178.41 C 133.51 179.36 134.89 179.52 135.84 178.77 L 136.63 178.14 C 137.58 177.39 137.74 176.01 136.99 175.06 C 136.23 174.11 134.85 173.95 133.90 174.70 Z M 133.15 175.29 L 132.38 175.87 C 131.41 176.61 131.22 177.99 131.96 178.96 C 132.69 179.93 134.07 180.12 135.04 179.38 L 135.81 178.80 C 136.78 178.07 136.97 176.69 136.23 175.72 C 135.50 174.75 134.12 174.56 133.15 175.29 Z M 132.41 175.85 L 131.60 176.45 C 130.62 177.17 130.41 178.55 131.13 179.53 C 131.85 180.51 133.23 180.72 134.21 180.00 L 135.02 179.40 C 136.00 178.68 136.21 177.30 135.49 176.32 C 134.77 175.34 133.39 175.13 132.41 175.85 Z M 131.63 176.43 L 130.81 177.01 C 129.82 177.71 129.59 179.09 130.29 180.08 C 131.00 181.07 132.37 181.31 133.37 180.60 L 134.18 180.02 C 135.18 179.31 135.41 177.94 134.70 176.94 C 134.00 175.95 132.62 175.72 131.63 176.43 Z M 130.86 176.97 L 130.03 177.54 C 129.02 178.21 128.75 179.58 129.43 180.59 C 130.10 181.60 131.47 181.87 132.48 181.19 L 133.32 180.63 C 134.33 179.95 134.60 178.58 133.92 177.57 C 133.24 176.56 131.87 176.30 130.86 176.97 Z M 130.10 177.49 L 129.23 178.03 C 128.20 178.67 127.88 180.02 128.52 181.06 C 129.15 182.09 130.51 182.41 131.54 181.77 L 132.41 181.24 C 133.44 180.60 133.76 179.24 133.13 178.21 C 132.49 177.17 131.13 176.85 130.10 177.49 Z M 129.32 177.98 L 128.48 178.45 C 127.42 179.03 127.04 180.37 127.62 181.43 C 128.21 182.49 129.55 182.88 130.61 182.29 L 131.45 181.82 C 132.51 181.23 132.90 179.90 132.31 178.84 C 131.72 177.78 130.38 177.39 129.32 177.98 Z M 128.60 178.39 L 127.66 178.84 C 126.57 179.36 126.11 180.67 126.63 181.76 C 127.15 182.85 128.46 183.31 129.55 182.79 L 130.49 182.34 C 131.58 181.82 132.04 180.52 131.52 179.43 C 131.00 178.34 129.69 177.87 128.60 178.39 Z M 127.80 178.80 L 126.91 179.15 C 125.79 179.60 125.25 180.86 125.70 181.98 C 126.14 183.09 127.40 183.63 128.52 183.19 L 129.41 182.83 C 130.53 182.39 131.07 181.12 130.62 180.01 C 130.18 178.90 128.92 178.35 127.80 178.80 Z M 127.13 179.11 L 126.15 179.38 C 125.01 179.71 124.34 180.89 124.67 182.03 C 124.99 183.17 126.18 183.84 127.32 183.51 L 128.30 183.24 C 129.44 182.91 130.10 181.73 129.78 180.59 C 129.46 179.45 128.27 178.78 127.13 179.11 Z M 126.73 179.34 L 125.77 179.35 C 124.61 179.35 123.67 180.29 123.67 181.45 C 123.67 182.61 124.62 183.55 125.78 183.55 L 126.73 183.55 C 127.89 183.55 128.84 182.61 128.84 181.45 C 128.83 180.29 127.89 179.34 126.73 179.34 Z M 126.36 179.48 L 125.40 179.20 C 124.32 178.87 123.17 179.49 122.85 180.58 C 122.53 181.67 123.15 182.81 124.23 183.13 L 125.19 183.42 C 126.28 183.74 127.42 183.12 127.75 182.03 C 128.07 180.95 127.45 179.80 126.36 179.48 Z M 125.55 179.29 L 125.18 179.14 C 124.14 178.74 122.97 179.26 122.57 180.30 C 122.17 181.33 122.69 182.50 123.72 182.90 L 124.09 183.04 C 125.13 183.45 126.30 182.93 126.70 181.89 C 127.10 180.86 126.58 179.69 125.55 179.29 Z"
      fill="black"
      fill-rule="nonzero" /><path d="M 161.82 172.47 L 162.67 173.00 C 163.60 173.59 164.84 173.30 165.42 172.37 C 166.00 171.43 165.72 170.20 164.78 169.62 L 163.93 169.09 C 163.00 168.50 161.77 168.79 161.18 169.72 C 160.60 170.66 160.88 171.89 161.82 172.47 Z M 162.66 173.00 L 163.49 173.53 C 164.42 174.12 165.66 173.84 166.25 172.91 C 166.84 171.97 166.56 170.74 165.63 170.15 L 164.80 169.62 C 163.86 169.03 162.63 169.31 162.04 170.24 C 161.45 171.17 161.73 172.41 162.66 173.00 Z M 163.48 173.53 L 164.29 174.05 C 165.23 174.64 166.47 174.36 167.06 173.43 C 167.66 172.49 167.38 171.25 166.45 170.65 L 165.64 170.14 C 164.70 169.55 163.46 169.82 162.86 170.76 C 162.27 171.70 162.55 172.94 163.48 173.53 Z M 164.33 174.10 L 165.22 174.63 C 166.18 175.20 167.43 174.89 168.00 173.92 C 168.58 172.96 168.26 171.71 167.30 171.14 L 166.41 170.60 C 165.45 170.03 164.20 170.34 163.62 171.31 C 163.05 172.27 163.36 173.52 164.33 174.10 Z M 165.25 174.68 L 166.10 175.16 C 167.10 175.71 168.36 175.35 168.91 174.36 C 169.47 173.36 169.11 172.11 168.11 171.55 L 167.26 171.08 C 166.27 170.53 165.01 170.88 164.46 171.88 C 163.90 172.87 164.26 174.13 165.25 174.68 Z M 166.10 175.19 L 167.00 175.69 C 168.02 176.25 169.29 175.88 169.85 174.86 C 170.41 173.85 170.04 172.57 169.02 172.01 L 168.12 171.52 C 167.10 170.96 165.83 171.33 165.27 172.34 C 164.71 173.36 165.08 174.64 166.10 175.19 Z M 166.96 175.70 L 167.88 176.22 C 168.90 176.80 170.20 176.44 170.78 175.42 C 171.35 174.40 171.00 173.11 169.98 172.53 L 169.06 172.01 C 168.04 171.43 166.75 171.79 166.17 172.80 C 165.59 173.82 165.94 175.12 166.96 175.70 Z M 167.83 176.20 L 168.70 176.72 C 169.70 177.32 171.01 177.00 171.62 175.99 C 172.22 174.98 171.90 173.68 170.89 173.07 L 170.03 172.55 C 169.02 171.94 167.71 172.27 167.11 173.28 C 166.50 174.28 166.82 175.59 167.83 176.20 Z M 168.63 176.68 L 169.44 177.21 C 170.43 177.85 171.75 177.57 172.39 176.58 C 173.03 175.60 172.75 174.28 171.77 173.64 L 170.95 173.11 C 169.97 172.47 168.65 172.75 168.01 173.73 C 167.37 174.72 167.65 176.04 168.63 176.68 Z M 169.35 177.14 L 170.15 177.72 C 171.10 178.41 172.43 178.21 173.12 177.26 C 173.81 176.31 173.61 174.99 172.66 174.29 L 171.86 173.71 C 170.91 173.02 169.58 173.22 168.89 174.17 C 168.20 175.12 168.41 176.44 169.35 177.14 Z M 170.06 177.63 L 170.82 178.26 C 171.72 179.00 173.05 178.88 173.79 177.98 C 174.53 177.08 174.41 175.75 173.51 175.01 L 172.75 174.38 C 171.85 173.64 170.52 173.77 169.78 174.66 C 169.04 175.56 169.16 176.89 170.06 177.63 Z M 170.75 178.17 L 171.50 178.85 C 172.34 179.63 173.66 179.58 174.44 178.73 C 175.22 177.88 175.16 176.57 174.32 175.79 L 173.58 175.10 C 172.73 174.32 171.41 174.38 170.63 175.22 C 169.85 176.07 169.91 177.39 170.75 178.17 Z M 171.43 178.72 L 172.12 179.46 C 172.90 180.28 174.19 180.31 175.01 179.53 C 175.82 178.76 175.86 177.47 175.08 176.65 L 174.39 175.91 C 173.61 175.10 172.32 175.06 171.50 175.84 C 170.68 176.61 170.65 177.90 171.43 178.72 Z M 172.07 179.32 L 172.70 180.08 C 173.40 180.92 174.65 181.04 175.50 180.35 C 176.34 179.65 176.46 178.40 175.76 177.55 L 175.13 176.79 C 174.43 175.94 173.18 175.83 172.34 176.52 C 171.49 177.22 171.37 178.47 172.07 179.32 Z M 172.71 180.02 L 172.89 180.25 C 173.55 181.09 174.77 181.23 175.62 180.57 C 176.46 179.90 176.60 178.68 175.93 177.84 L 175.76 177.61 C 175.09 176.77 173.87 176.63 173.03 177.29 C 172.19 177.96 172.04 179.18 172.71 180.02 Z"
      fill="black"
      fill-rule="nonzero" /></svg>