<svg xmlns="http://www.w3.org/2000/svg" width="300" height="300" viewBox="0 0 300 300">
<path d="M 138.55 96.62 L 139.50 96.88 C 140.57 97.18 141.69 96.55 141.99 95.48 C 142.29 94.40 141.66 93.28 140.58 92.98 L 139.63 92.72 C 138.55 92.42 137.44 93.05 137.14 94.13 C 136.84 95.20 137.47 96.32 138.55 96.62 Z M 139.51 97.04 L 140.48 97.28 C 141.65 97.58 142.83 96.87 143.12 95.71 C 143.41 94.55 142.71 93.37 141.55 93.08 L 140.57 92.83 C 139.41 92.54 138.23 93.24 137.94 94.40 C 137.64 95.56 138.35 96.74 139.51 97.04 Z M 140.56 97.38 L 141.50 97.58 C 142.71 97.83 143.91 97.05 144.16 95.84 C 144.41 94.62 143.63 93.43 142.42 93.17 L 141.48 92.98 C 140.26 92.72 139.07 93.50 138.81 94.72 C 138.56 95.94 139.34 97.13 140.56 97.38 Z M 141.59 97.60 L 142.57 97.76 C 143.80 97.96 144.95 97.13 145.16 95.90 C 145.36 94.68 144.53 93.52 143.30 93.32 L 142.32 93.16 C 141.10 92.95 139.94 93.78 139.74 95.01 C 139.53 96.24 140.36 97.39 141.59 97.60 Z M 142.65 97.75 L 143.70 97.88 C 144.92 98.04 146.03 97.18 146.19 95.96 C 146.35 94.74 145.48 93.62 144.26 93.46 L 143.22 93.33 C 142.00 93.17 140.89 94.03 140.73 95.25 C 140.57 96.47 141.43 97.59 142.65 97.75 Z M 143.75 97.86 L 144.78 97.96 C 145.98 98.09 147.06 97.21 147.19 96.01 C 147.31 94.80 146.44 93.72 145.23 93.59 L 144.21 93.49 C 143.00 93.36 141.92 94.24 141.79 95.45 C 141.67 96.65 142.55 97.73 143.75 97.86 Z M 144.81 97.93 L 145.81 98.02 C 147.00 98.13 148.05 97.25 148.16 96.06 C 148.26 94.87 147.39 93.82 146.20 93.71 L 145.19 93.62 C 144.00 93.52 142.95 94.40 142.85 95.59 C 142.74 96.78 143.62 97.83 144.81 97.93 Z M 145.84 97.98 L 146.87 98.06 C 148.04 98.15 149.06 97.28 149.15 96.12 C 149.24 94.95 148.37 93.93 147.20 93.84 L 146.17 93.76 C 145.00 93.66 143.98 94.53 143.89 95.70 C 143.80 96.87 144.67 97.89 145.84 97.98 Z M 146.89 97.99 L 147.88 98.06 C 149.01 98.15 149.99 97.29 150.07 96.17 C 150.15 95.04 149.30 94.05 148.17 93.97 L 147.18 93.90 C 146.05 93.82 145.07 94.67 144.99 95.80 C 144.91 96.93 145.76 97.91 146.89 97.99 Z M 147.89 97.99 L 148.83 98.06 C 149.92 98.13 150.87 97.31 150.94 96.22 C 151.02 95.13 150.19 94.18 149.10 94.11 L 148.16 94.05 C 147.07 93.97 146.12 94.79 146.05 95.88 C 145.98 96.97 146.80 97.92 147.89 97.99 Z M 148.84 98.01 L 149.84 98.07 C 150.90 98.14 151.81 97.34 151.88 96.27 C 151.95 95.21 151.15 94.30 150.09 94.23 L 149.09 94.16 C 148.03 94.09 147.11 94.90 147.05 95.96 C 146.98 97.02 147.78 97.94 148.84 98.01 Z M 149.86 98.03 L 150.86 98.09 C 151.90 98.14 152.78 97.34 152.84 96.30 C 152.90 95.26 152.10 94.37 151.06 94.32 L 150.06 94.26 C 149.02 94.21 148.13 95.01 148.08 96.05 C 148.02 97.09 148.82 97.98 149.86 98.03 Z M 150.88 98.05 L 151.88 98.10 C 152.90 98.14 153.77 97.34 153.81 96.32 C 153.85 95.30 153.06 94.43 152.03 94.39 L 151.03 94.35 C 150.01 94.31 149.15 95.10 149.10 96.12 C 149.06 97.15 149.86 98.01 150.88 98.05 Z M 151.89 98.07 L 152.89 98.11 C 153.90 98.15 154.75 97.36 154.79 96.35 C 154.83 95.34 154.04 94.49 153.03 94.46 L 152.03 94.42 C 151.02 94.38 150.17 95.17 150.13 96.17 C 150.09 97.18 150.88 98.03 151.89 98.07 Z M 152.91 98.09 L 153.90 98.12 C 154.90 98.15 155.74 97.37 155.77 96.37 C 155.80 95.37 155.01 94.53 154.01 94.50 L 153.02 94.47 C 152.02 94.44 151.18 95.23 151.15 96.23 C 151.13 97.23 151.91 98.06 152.91 98.09 Z M 153.94 98.11 L 154.94 98.13 C 155.94 98.14 156.75 97.34 156.77 96.35 C 156.78 95.35 155.98 94.53 154.99 94.52 L 153.98 94.51 C 152.99 94.50 152.17 95.30 152.16 96.29 C 152.15 97.29 152.94 98.10 153.94 98.11 Z M 154.96 98.12 L 155.77 98.13 C 156.76 98.13 157.57 97.32 157.57 96.33 C 157.57 95.33 156.77 94.53 155.77 94.53 L 154.97 94.52 C 153.97 94.52 153.17 95.33 153.17 96.32 C 153.16 97.32 153.97 98.12 154.96 98.12 Z"
      fill="black"
      fill-rule="nonzero" /><path d="M 113.34 107.70 L 113.57 108.57 C 113.84 109.61 114.90 110.24 115.94 109.97 C 116.98 109.70 117.60 108.64 117.34 107.60 L 117.11 106.74 C 116.84 105.69 115.79 105.07 114.74 105.34 C 113.70 105.60 113.08 106.66 113.34 107.70 Z M 113.57 108.96 L 114.01 109.92 C 114.49 110.96 115.73 111.42 116.77 110.93 C 117.81 110.45 118.27 109.22 117.78 108.17 L 117.34 107.21 C 116.86 106.17 115.62 105.72 114.58 106.20 C 113.54 106.68 113.08 107.92 113.57 108.96 Z M 114.14 110.31 L 114.73 111.13 C 115.43 112.10 116.78 112.32 117.74 111.62 C 118.71 110.93 118.93 109.58 118.24 108.61 L 117.65 107.79 C 116.96 106.82 115.61 106.60 114.64 107.30 C 113.67 107.99 113.45 109.34 114.14 110.31 Z M 114.84 111.28 L 115.52 112.08 C 116.30 112.99 117.67 113.10 118.58 112.32 C 119.49 111.54 119.60 110.17 118.82 109.26 L 118.14 108.46 C 117.36 107.55 115.99 107.44 115.08 108.22 C 114.17 109.00 114.06 110.37 114.84 111.28 Z M 115.57 112.14 L 116.24 112.87 C 117.05 113.76 118.43 113.81 119.31 113.00 C 120.19 112.19 120.25 110.82 119.44 109.94 L 118.77 109.20 C 117.96 108.32 116.59 108.26 115.70 109.07 C 114.82 109.88 114.76 111.25 115.57 112.14 Z M 116.25 112.87 L 117.00 113.69 C 117.81 114.57 119.18 114.63 120.06 113.83 C 120.95 113.02 121.00 111.65 120.20 110.76 L 119.44 109.94 C 118.63 109.06 117.26 109.00 116.38 109.81 C 115.50 110.62 115.44 111.99 116.25 112.87 Z M 116.99 113.67 L 117.58 114.33 C 118.38 115.22 119.75 115.29 120.63 114.49 C 121.52 113.69 121.59 112.33 120.80 111.44 L 120.20 110.78 C 119.41 109.90 118.04 109.83 117.15 110.62 C 116.27 111.42 116.20 112.79 116.99 113.67 Z M 117.61 114.35 L 118.27 115.06 C 119.08 115.93 120.44 115.98 121.31 115.17 C 122.18 114.37 122.23 113.01 121.42 112.14 L 120.77 111.43 C 119.96 110.56 118.60 110.50 117.73 111.31 C 116.86 112.12 116.81 113.48 117.61 114.35 Z M 118.31 115.08 L 119.01 115.80 C 119.83 116.65 121.18 116.68 122.03 115.86 C 122.88 115.04 122.90 113.69 122.08 112.84 L 121.39 112.12 C 120.57 111.27 119.22 111.24 118.37 112.06 C 117.52 112.88 117.49 114.23 118.31 115.08 Z M 119.04 115.81 L 119.73 116.52 C 120.56 117.35 121.90 117.36 122.73 116.54 C 123.57 115.72 123.58 114.38 122.76 113.55 L 122.06 112.84 C 121.24 112.00 119.90 111.99 119.06 112.81 C 118.23 113.63 118.21 114.97 119.04 115.81 Z M 119.74 116.50 L 120.43 117.21 C 121.24 118.04 122.57 118.06 123.41 117.26 C 124.24 116.45 124.26 115.12 123.45 114.28 L 122.75 113.57 C 121.94 112.74 120.61 112.72 119.78 113.53 C 118.95 114.33 118.93 115.66 119.74 116.50 Z M 120.47 117.23 L 121.18 117.93 C 122.00 118.74 123.32 118.74 124.13 117.92 C 124.94 117.10 124.93 115.78 124.12 114.97 L 123.41 114.27 C 122.59 113.46 121.27 113.46 120.46 114.28 C 119.65 115.10 119.66 116.42 120.47 117.23 Z M 121.28 117.99 L 121.95 118.59 C 122.80 119.35 124.11 119.28 124.86 118.43 C 125.62 117.58 125.55 116.27 124.70 115.52 L 124.02 114.91 C 123.17 114.15 121.87 114.23 121.11 115.08 C 120.35 115.93 120.43 117.23 121.28 117.99 Z M 122.02 118.63 L 122.86 119.32 C 123.73 120.04 125.02 119.91 125.74 119.04 C 126.45 118.17 126.33 116.89 125.46 116.17 L 124.63 115.48 C 123.76 114.76 122.47 114.88 121.75 115.75 C 121.03 116.62 121.15 117.91 122.02 118.63 Z M 122.90 119.33 L 123.65 119.92 C 124.53 120.62 125.80 120.47 126.49 119.59 C 127.19 118.72 127.04 117.44 126.16 116.75 L 125.42 116.16 C 124.54 115.46 123.27 115.61 122.57 116.49 C 121.88 117.36 122.03 118.63 122.90 119.33 Z M 123.71 119.94 L 124.54 120.56 C 125.42 121.23 126.68 121.05 127.35 120.16 C 128.01 119.27 127.83 118.01 126.94 117.35 L 126.11 116.73 C 125.22 116.06 123.96 116.25 123.30 117.13 C 122.64 118.02 122.82 119.28 123.71 119.94 Z M 124.63 120.60 L 125.50 121.19 C 126.41 121.81 127.65 121.57 128.26 120.66 C 128.87 119.75 128.63 118.51 127.72 117.90 L 126.85 117.31 C 125.94 116.70 124.70 116.94 124.09 117.85 C 123.48 118.76 123.72 119.99 124.63 120.60 Z M 125.64 121.25 L 126.54 121.76 C 127.48 122.30 128.68 121.97 129.22 121.04 C 129.75 120.10 129.43 118.90 128.49 118.36 L 127.59 117.85 C 126.65 117.31 125.45 117.63 124.91 118.57 C 124.38 119.51 124.70 120.71 125.64 121.25 Z M 126.71 121.81 L 127.57 122.21 C 128.54 122.66 129.68 122.24 130.13 121.28 C 130.58 120.31 130.16 119.17 129.20 118.72 L 128.33 118.32 C 127.36 117.87 126.22 118.29 125.77 119.25 C 125.32 120.22 125.74 121.36 126.71 121.81 Z M 127.77 122.26 L 128.70 122.58 C 129.69 122.92 130.77 122.40 131.11 121.41 C 131.45 120.42 130.93 119.34 129.94 119.00 L 129.00 118.68 C 128.01 118.33 126.94 118.86 126.59 119.85 C 126.25 120.84 126.78 121.91 127.77 122.26 Z M 128.94 122.61 L 129.91 122.81 C 130.91 123.02 131.90 122.38 132.11 121.37 C 132.32 120.36 131.67 119.37 130.66 119.16 L 129.70 118.96 C 128.69 118.76 127.70 119.40 127.50 120.41 C 127.29 121.42 127.93 122.40 128.94 122.61 Z M 130.15 122.82 L 131.12 122.90 C 132.13 122.97 133.02 122.21 133.09 121.20 C 133.17 120.19 132.41 119.31 131.40 119.23 L 130.42 119.16 C 129.41 119.08 128.53 119.84 128.45 120.85 C 128.38 121.86 129.13 122.75 130.15 122.82 Z M 131.28 122.88 L 132.28 122.87 C 133.29 122.86 134.09 122.03 134.08 121.03 C 134.07 120.02 133.24 119.22 132.24 119.23 L 131.24 119.24 C 130.23 119.26 129.43 120.08 129.44 121.09 C 129.45 122.09 130.28 122.90 131.28 122.88 Z M 132.35 122.86 L 133.17 122.82 C 134.17 122.77 134.94 121.92 134.89 120.92 C 134.84 119.93 133.99 119.16 133.00 119.21 L 132.17 119.25 C 131.18 119.29 130.41 120.14 130.46 121.14 C 130.50 122.13 131.35 122.90 132.35 122.86 Z"
      fill="black"
      fill-rule="nonzero" /><path d="M 127.96 108.97 L 126.84 108.59 C 125.84 108.26 124.75 108.80 124.42 109.80 C 124.08 110.81 124.62 111.89 125.63 112.23 L 126.75 112.60 C 127.75 112.94 128.84 112.39 129.17 111.39 C 129.51 110.39 128.96 109.30 127.96 108.97 Z M 127.90 109.33 L 127.61 108.88 C 127.01 107.96 125.78 107.69 124.86 108.29 C 123.94 108.89 123.68 110.12 124.27 111.04 L 124.57 111.49 C 125.16 112.41 126.39 112.67 127.31 112.08 C 128.23 111.48 128.50 110.25 127.90 109.33 Z M 126.91 111.79 L 127.89 111.27 C 128.90 110.74 129.29 109.49 128.76 108.47 C 128.22 107.46 126.97 107.07 125.96 107.61 L 124.97 108.12 C 123.96 108.66 123.57 109.91 124.11 110.92 C 124.64 111.93 125.89 112.32 126.91 111.79 Z M 127.50 111.50 L 128.40 111.24 C 129.53 110.92 130.19 109.74 129.87 108.60 C 129.55 107.47 128.37 106.81 127.23 107.13 L 126.34 107.38 C 125.20 107.70 124.54 108.89 124.86 110.02 C 125.19 111.16 126.37 111.82 127.50 111.50 Z M 128.26 111.31 L 129.29 111.09 C 130.47 110.85 131.22 109.69 130.97 108.52 C 130.72 107.34 129.57 106.59 128.40 106.84 L 127.36 107.06 C 126.19 107.31 125.44 108.46 125.69 109.64 C 125.94 110.81 127.09 111.56 128.26 111.31 Z M 129.24 111.13 L 130.26 110.95 C 131.45 110.73 132.25 109.58 132.03 108.39 C 131.81 107.19 130.67 106.40 129.47 106.62 L 128.45 106.80 C 127.26 107.02 126.46 108.17 126.68 109.36 C 126.90 110.56 128.04 111.35 129.24 111.13 Z M 130.23 110.97 L 131.24 110.80 C 132.45 110.59 133.26 109.45 133.06 108.24 C 132.85 107.04 131.71 106.23 130.50 106.43 L 129.50 106.60 C 128.29 106.80 127.48 107.94 127.68 109.15 C 127.88 110.36 129.03 111.17 130.23 110.97 Z M 131.22 110.81 L 132.21 110.66 C 133.42 110.46 134.25 109.32 134.06 108.11 C 133.87 106.89 132.72 106.06 131.51 106.26 L 130.52 106.41 C 129.31 106.60 128.48 107.75 128.67 108.96 C 128.86 110.18 130.01 111.01 131.22 110.81 Z M 132.19 110.67 L 133.19 110.53 C 134.42 110.34 135.26 109.20 135.08 107.98 C 134.90 106.75 133.76 105.91 132.53 106.09 L 131.53 106.24 C 130.30 106.42 129.46 107.56 129.64 108.79 C 129.82 110.01 130.96 110.86 132.19 110.67 Z M 133.18 110.54 L 134.11 110.41 C 135.35 110.23 136.21 109.09 136.03 107.86 C 135.86 106.62 134.71 105.76 133.48 105.94 L 132.55 106.07 C 131.31 106.25 130.45 107.39 130.63 108.62 C 130.80 109.86 131.95 110.72 133.18 110.54 Z M 134.11 110.42 L 135.09 110.29 C 136.33 110.11 137.20 108.96 137.03 107.72 C 136.85 106.48 135.70 105.61 134.46 105.79 L 133.48 105.92 C 132.24 106.10 131.37 107.25 131.55 108.49 C 131.72 109.73 132.87 110.60 134.11 110.42 Z M 135.08 110.30 L 136.08 110.16 C 137.32 110.00 138.20 108.85 138.03 107.60 C 137.86 106.35 136.71 105.47 135.46 105.64 L 134.47 105.77 C 133.22 105.94 132.34 107.09 132.51 108.34 C 132.68 109.59 133.83 110.47 135.08 110.30 Z M 136.07 110.17 L 137.04 110.05 C 138.29 109.88 139.17 108.73 139.01 107.47 C 138.84 106.22 137.69 105.34 136.44 105.50 L 135.47 105.63 C 134.21 105.80 133.33 106.95 133.50 108.20 C 133.66 109.46 134.82 110.34 136.07 110.17 Z M 137.05 110.05 L 138.08 109.91 C 139.33 109.73 140.21 108.57 140.04 107.32 C 139.86 106.06 138.70 105.18 137.45 105.36 L 136.42 105.50 C 135.17 105.67 134.29 106.83 134.46 108.09 C 134.64 109.35 135.80 110.22 137.05 110.05 Z M 138.10 109.91 L 139.07 109.77 C 140.32 109.58 141.19 108.41 141.01 107.16 C 140.83 105.90 139.66 105.03 138.40 105.21 L 137.43 105.35 C 136.17 105.54 135.30 106.71 135.48 107.97 C 135.67 109.22 136.84 110.09 138.10 109.91 Z M 139.07 109.77 L 140.07 109.62 C 141.33 109.44 142.21 108.26 142.02 107.00 C 141.83 105.74 140.66 104.87 139.40 105.06 L 138.40 105.21 C 137.14 105.39 136.27 106.57 136.45 107.83 C 136.64 109.09 137.81 109.96 139.07 109.77 Z M 140.06 109.63 L 141.05 109.49 C 142.32 109.31 143.19 108.14 143.02 106.88 C 142.84 105.62 141.67 104.74 140.41 104.92 L 139.42 105.06 C 138.15 105.23 137.27 106.40 137.45 107.66 C 137.63 108.93 138.80 109.81 140.06 109.63 Z M 141.05 109.49 L 142.03 109.35 C 143.29 109.18 144.17 108.01 144.00 106.75 C 143.83 105.49 142.66 104.60 141.40 104.78 L 140.41 104.91 C 139.15 105.09 138.27 106.25 138.44 107.52 C 138.62 108.78 139.78 109.66 141.05 109.49 Z M 142.04 109.35 L 143.05 109.21 C 144.31 109.02 145.18 107.85 145.00 106.59 C 144.82 105.33 143.65 104.45 142.39 104.64 L 141.38 104.78 C 140.12 104.96 139.25 106.13 139.43 107.40 C 139.61 108.66 140.78 109.53 142.04 109.35 Z M 143.07 109.20 L 144.03 109.05 C 145.29 108.86 146.16 107.67 145.96 106.41 C 145.76 105.15 144.58 104.29 143.32 104.49 L 142.36 104.64 C 141.10 104.84 140.24 106.02 140.43 107.28 C 140.63 108.54 141.81 109.40 143.07 109.20 Z M 144.05 109.05 L 145.04 108.89 C 146.30 108.69 147.15 107.50 146.95 106.24 C 146.75 104.98 145.56 104.13 144.30 104.33 L 143.31 104.49 C 142.05 104.70 141.19 105.88 141.40 107.14 C 141.60 108.40 142.79 109.25 144.05 109.05 Z M 145.04 108.89 L 146.04 108.73 C 147.30 108.53 148.16 107.34 147.95 106.08 C 147.75 104.82 146.57 103.97 145.31 104.17 L 144.30 104.33 C 143.04 104.53 142.19 105.72 142.39 106.98 C 142.59 108.24 143.78 109.09 145.04 108.89 Z M 146.03 108.73 L 147.01 108.58 C 148.27 108.38 149.13 107.20 148.93 105.94 C 148.73 104.68 147.55 103.82 146.29 104.01 L 145.32 104.17 C 144.06 104.36 143.20 105.55 143.39 106.81 C 143.59 108.06 144.77 108.93 146.03 108.73 Z M 147.00 108.58 L 147.99 108.43 C 149.25 108.23 150.12 107.05 149.92 105.79 C 149.73 104.53 148.55 103.67 147.29 103.86 L 146.30 104.01 C 145.04 104.21 144.17 105.39 144.37 106.65 C 144.56 107.91 145.74 108.77 147.00 108.58 Z M 147.99 108.43 L 148.99 108.27 C 150.25 108.08 151.11 106.91 150.92 105.65 C 150.73 104.39 149.55 103.52 148.29 103.71 L 147.30 103.86 C 146.04 104.05 145.17 105.23 145.36 106.49 C 145.55 107.75 146.73 108.62 147.99 108.43 Z M 148.99 108.27 L 149.97 108.12 C 151.23 107.93 152.09 106.76 151.90 105.50 C 151.71 104.24 150.54 103.37 149.28 103.56 L 148.30 103.71 C 147.04 103.90 146.17 105.08 146.36 106.34 C 146.55 107.60 147.73 108.46 148.99 108.27 Z M 149.96 108.12 L 150.96 107.97 C 152.21 107.78 153.08 106.61 152.89 105.35 C 152.70 104.09 151.53 103.23 150.27 103.42 L 149.28 103.57 C 148.02 103.76 147.16 104.93 147.35 106.19 C 147.54 107.44 148.71 108.31 149.96 108.12 Z M 150.95 107.97 L 151.95 107.82 C 153.20 107.63 154.07 106.46 153.88 105.20 C 153.69 103.95 152.52 103.08 151.27 103.27 L 150.27 103.42 C 149.02 103.61 148.15 104.78 148.34 106.03 C 148.53 107.29 149.70 108.15 150.95 107.97 Z M 151.95 107.81 L 152.91 107.67 C 154.16 107.48 155.03 106.31 154.84 105.06 C 154.65 103.81 153.49 102.95 152.24 103.13 L 151.27 103.28 C 150.02 103.46 149.15 104.63 149.34 105.88 C 149.53 107.13 150.69 108.00 151.95 107.81 Z M 152.91 107.66 L 153.89 107.51 C 155.14 107.33 156.00 106.17 155.82 104.92 C 155.63 103.67 154.47 102.81 153.22 103.00 L 152.24 103.14 C 150.99 103.33 150.13 104.49 150.31 105.73 C 150.50 106.98 151.66 107.84 152.91 107.66 Z M 153.89 107.51 L 154.90 107.36 C 156.15 107.18 157.01 106.02 156.82 104.78 C 156.64 103.53 155.49 102.67 154.24 102.86 L 153.23 103.00 C 151.98 103.19 151.12 104.34 151.31 105.59 C 151.49 106.83 152.64 107.69 153.89 107.51 Z M 154.90 107.35 L 155.90 107.20 C 157.13 107.02 157.99 105.87 157.81 104.64 C 157.63 103.40 156.48 102.54 155.24 102.72 L 154.25 102.86 C 153.01 103.04 152.15 104.19 152.33 105.43 C 152.51 106.67 153.66 107.53 154.90 107.35 Z M 155.89 107.19 L 156.89 107.05 C 158.12 106.88 158.98 105.73 158.81 104.50 C 158.63 103.27 157.49 102.41 156.26 102.59 L 155.25 102.73 C 154.02 102.91 153.16 104.05 153.34 105.28 C 153.51 106.51 154.65 107.37 155.89 107.19 Z M 156.88 107.04 L 157.87 106.90 C 159.10 106.74 159.96 105.61 159.79 104.38 C 159.62 103.15 158.49 102.29 157.26 102.46 L 156.27 102.60 C 155.04 102.77 154.18 103.90 154.35 105.12 C 154.52 106.35 155.65 107.21 156.88 107.04 Z M 157.85 106.90 L 158.85 106.77 C 160.07 106.61 160.93 105.49 160.78 104.27 C 160.62 103.05 159.50 102.18 158.28 102.34 L 157.28 102.47 C 156.06 102.63 155.20 103.75 155.35 104.97 C 155.51 106.19 156.63 107.05 157.85 106.90 Z M 158.83 106.76 L 159.84 106.64 C 161.06 106.49 161.93 105.39 161.78 104.17 C 161.64 102.96 160.53 102.09 159.32 102.23 L 158.30 102.35 C 157.09 102.50 156.22 103.60 156.36 104.82 C 156.51 106.03 157.61 106.90 158.83 106.76 Z M 159.82 106.63 L 160.79 106.52 C 162.00 106.39 162.88 105.30 162.75 104.09 C 162.61 102.88 161.52 102.00 160.31 102.13 L 159.34 102.24 C 158.13 102.37 157.25 103.46 157.39 104.67 C 157.52 105.88 158.61 106.76 159.82 106.63 Z M 160.77 106.51 L 161.75 106.41 C 162.95 106.29 163.83 105.21 163.71 104.01 C 163.59 102.80 162.51 101.92 161.30 102.05 L 160.33 102.14 C 159.13 102.27 158.25 103.34 158.37 104.55 C 158.49 105.75 159.57 106.63 160.77 106.51 Z M 161.73 106.40 L 162.73 106.30 C 163.93 106.19 164.81 105.12 164.70 103.93 C 164.58 102.73 163.52 101.85 162.32 101.96 L 161.32 102.06 C 160.12 102.17 159.24 103.24 159.35 104.44 C 159.47 105.63 160.53 106.51 161.73 106.40 Z M 162.72 106.29 L 163.71 106.20 C 164.91 106.10 165.79 105.05 165.68 103.85 C 165.58 102.66 164.52 101.78 163.33 101.89 L 162.34 101.97 C 161.14 102.08 160.26 103.13 160.37 104.32 C 160.47 105.52 161.53 106.40 162.72 106.29 Z M 163.70 106.19 L 164.69 106.11 C 165.88 106.01 166.76 104.97 166.67 103.79 C 166.57 102.60 165.53 101.72 164.34 101.81 L 163.35 101.90 C 162.16 101.99 161.28 103.03 161.37 104.22 C 161.47 105.41 162.51 106.29 163.70 106.19 Z M 164.68 106.10 L 165.68 106.02 C 166.86 105.94 167.75 104.91 167.66 103.73 C 167.57 102.55 166.55 101.66 165.37 101.75 L 164.36 101.83 C 163.18 101.91 162.29 102.94 162.38 104.12 C 162.47 105.30 163.50 106.19 164.68 106.10 Z M 165.67 106.01 L 166.66 105.95 C 167.83 105.87 168.72 104.85 168.64 103.68 C 168.56 102.51 167.55 101.62 166.37 101.70 L 165.38 101.76 C 164.21 101.84 163.32 102.86 163.40 104.03 C 163.48 105.20 164.49 106.09 165.67 106.01 Z M 166.64 105.93 L 167.64 105.88 C 168.80 105.81 169.70 104.81 169.63 103.64 C 169.56 102.47 168.56 101.58 167.39 101.65 L 166.39 101.71 C 165.23 101.78 164.34 102.78 164.40 103.95 C 164.47 105.11 165.47 106.00 166.64 105.93 Z M 167.62 105.86 L 168.62 105.82 C 169.78 105.76 170.68 104.77 170.62 103.61 C 170.56 102.45 169.58 101.56 168.42 101.61 L 167.41 101.66 C 166.25 101.72 165.36 102.70 165.41 103.86 C 165.47 105.03 166.46 105.92 167.62 105.86 Z M 168.59 105.80 L 169.58 105.77 C 170.73 105.73 171.64 104.76 171.60 103.61 C 171.56 102.45 170.59 101.55 169.43 101.59 L 168.45 101.63 C 167.29 101.67 166.39 102.63 166.43 103.79 C 166.47 104.94 167.44 105.84 168.59 105.80 Z M 169.55 105.76 L 170.54 105.74 C 171.69 105.72 172.60 104.77 172.58 103.62 C 172.56 102.47 171.61 101.56 170.46 101.58 L 169.47 101.60 C 168.32 101.62 167.41 102.57 167.43 103.72 C 167.45 104.87 168.40 105.78 169.55 105.76 Z M 170.52 105.73 L 171.51 105.72 C 172.66 105.71 173.57 104.78 173.57 103.64 C 173.56 102.50 172.63 101.58 171.49 101.59 L 170.49 101.59 C 169.35 101.60 168.43 102.53 168.44 103.67 C 168.45 104.82 169.38 105.73 170.52 105.73 Z M 171.50 105.71 L 172.51 105.71 C 173.64 105.71 174.56 104.79 174.56 103.65 C 174.56 102.52 173.64 101.60 172.51 101.60 L 171.50 101.60 C 170.37 101.60 169.45 102.52 169.45 103.66 C 169.45 104.79 170.37 105.71 171.50 105.71 Z M 172.51 105.69 L 173.54 105.69 C 174.67 105.69 175.58 104.78 175.58 103.65 C 175.58 102.53 174.67 101.61 173.54 101.61 L 172.51 101.61 C 171.38 101.61 170.47 102.53 170.47 103.65 C 170.47 104.78 171.38 105.69 172.51 105.69 Z M 173.54 105.68 L 174.53 105.68 C 175.65 105.68 176.56 104.77 176.56 103.65 C 176.56 102.53 175.65 101.63 174.53 101.63 L 173.54 101.63 C 172.42 101.63 171.51 102.53 171.51 103.65 C 171.51 104.77 172.42 105.68 173.54 105.68 Z M 174.53 105.67 L 175.56 105.67 C 176.67 105.67 177.58 104.77 177.58 103.65 C 177.58 102.54 176.67 101.64 175.56 101.64 L 174.53 101.64 C 173.42 101.64 172.51 102.54 172.51 103.65 C 172.51 104.77 173.42 105.67 174.53 105.67 Z M 175.55 105.66 L 176.53 105.66 C 177.63 105.67 178.54 104.77 178.54 103.67 C 178.55 102.56 177.65 101.66 176.55 101.65 L 175.57 101.65 C 174.46 101.64 173.56 102.54 173.56 103.64 C 173.55 104.75 174.44 105.65 175.55 105.66 Z M 176.50 105.65 L 177.49 105.67 C 178.59 105.69 179.50 104.82 179.52 103.72 C 179.54 102.62 178.66 101.71 177.56 101.68 L 176.58 101.67 C 175.48 101.64 174.57 102.52 174.54 103.62 C 174.52 104.72 175.40 105.63 176.50 105.65 Z M 177.39 105.66 L 178.37 105.72 C 179.46 105.80 180.41 104.97 180.48 103.88 C 180.56 102.79 179.73 101.84 178.64 101.77 L 177.66 101.70 C 176.57 101.63 175.62 102.45 175.55 103.54 C 175.47 104.63 176.30 105.58 177.39 105.66 Z M 178.18 105.69 L 179.11 105.84 C 180.19 106.02 181.20 105.30 181.38 104.22 C 181.56 103.15 180.83 102.13 179.75 101.95 L 178.83 101.80 C 177.75 101.62 176.74 102.35 176.56 103.42 C 176.38 104.50 177.11 105.51 178.18 105.69 Z M 178.96 105.80 L 179.97 106.06 C 181.02 106.32 182.09 105.68 182.35 104.62 C 182.61 103.57 181.97 102.51 180.92 102.24 L 179.91 101.99 C 178.85 101.73 177.79 102.37 177.53 103.42 C 177.26 104.48 177.91 105.54 178.96 105.80 Z M 179.91 106.03 L 180.86 106.31 C 181.90 106.60 182.99 106.00 183.28 104.96 C 183.58 103.92 182.98 102.84 181.94 102.54 L 180.98 102.27 C 179.94 101.97 178.86 102.57 178.56 103.61 C 178.26 104.65 178.87 105.73 179.91 106.03 Z M 180.82 106.29 L 181.79 106.59 C 182.82 106.91 183.91 106.34 184.24 105.31 C 184.56 104.28 183.99 103.19 182.96 102.87 L 181.98 102.56 C 180.96 102.24 179.86 102.81 179.54 103.84 C 179.22 104.87 179.79 105.96 180.82 106.29 Z M 181.72 106.57 L 182.72 106.92 C 183.73 107.29 184.85 106.76 185.21 105.74 C 185.58 104.72 185.04 103.61 184.03 103.24 L 183.03 102.89 C 182.01 102.52 180.89 103.06 180.53 104.07 C 180.17 105.09 180.70 106.21 181.72 106.57 Z M 182.58 106.88 L 183.44 107.26 C 184.43 107.70 185.60 107.25 186.03 106.25 C 186.47 105.26 186.02 104.10 185.02 103.66 L 184.16 103.28 C 183.17 102.85 182.01 103.30 181.57 104.29 C 181.13 105.29 181.59 106.45 182.58 106.88 Z M 183.04 107.05 L 183.86 107.66 C 184.74 108.32 185.98 108.14 186.64 107.27 C 187.30 106.39 187.12 105.15 186.24 104.49 L 185.42 103.87 C 184.55 103.21 183.30 103.39 182.64 104.27 C 181.98 105.15 182.16 106.39 183.04 107.05 Z M 183.05 105.91 L 182.99 106.68 C 182.90 107.79 183.72 108.75 184.83 108.84 C 185.93 108.93 186.90 108.11 186.99 107.00 L 187.05 106.24 C 187.14 105.13 186.32 104.16 185.21 104.07 C 184.11 103.98 183.14 104.81 183.05 105.91 Z M 183.34 105.67 L 182.75 106.51 C 182.10 107.42 182.31 108.68 183.22 109.33 C 184.13 109.97 185.40 109.76 186.04 108.85 L 186.64 108.01 C 187.28 107.10 187.07 105.84 186.16 105.19 C 185.25 104.55 183.99 104.76 183.34 105.67 Z M 182.82 106.40 L 182.12 107.27 C 181.42 108.14 181.55 109.42 182.42 110.12 C 183.29 110.82 184.57 110.69 185.27 109.82 L 185.97 108.95 C 186.68 108.08 186.54 106.81 185.67 106.10 C 184.80 105.40 183.52 105.53 182.82 106.40 Z M 182.09 107.31 L 181.47 108.11 C 180.79 109.00 180.96 110.27 181.84 110.95 C 182.73 111.63 184.00 111.47 184.68 110.58 L 185.30 109.78 C 185.98 108.89 185.82 107.62 184.93 106.94 C 184.05 106.26 182.77 106.42 182.09 107.31 Z M 181.47 108.13 L 180.88 108.90 C 180.21 109.79 180.38 111.05 181.27 111.73 C 182.16 112.40 183.42 112.23 184.09 111.34 L 184.68 110.56 C 185.36 109.68 185.18 108.41 184.30 107.74 C 183.41 107.07 182.15 107.24 181.47 108.13 Z M 180.91 108.90 L 180.30 109.69 C 179.62 110.56 179.78 111.82 180.64 112.49 C 181.51 113.17 182.77 113.01 183.44 112.14 L 184.06 111.35 C 184.74 110.48 184.58 109.23 183.71 108.55 C 182.84 107.87 181.59 108.03 180.91 108.90 Z M 180.33 109.70 L 179.72 110.47 C 179.04 111.32 179.19 112.56 180.04 113.23 C 180.88 113.90 182.12 113.76 182.79 112.91 L 183.41 112.14 C 184.08 111.29 183.94 110.05 183.09 109.38 C 182.24 108.71 181.01 108.85 180.33 109.70 Z M 179.74 110.49 L 179.17 111.21 C 178.50 112.05 178.64 113.27 179.48 113.93 C 180.32 114.60 181.53 114.46 182.20 113.62 L 182.77 112.90 C 183.44 112.06 183.30 110.84 182.46 110.18 C 181.62 109.51 180.40 109.65 179.74 110.49 Z M 179.19 111.21 L 178.58 111.97 C 177.91 112.79 178.04 114.00 178.86 114.66 C 179.68 115.33 180.89 115.20 181.55 114.38 L 182.17 113.62 C 182.84 112.80 182.71 111.59 181.89 110.93 C 181.07 110.26 179.86 110.39 179.19 111.21 Z M 178.62 111.95 L 177.91 112.79 C 177.24 113.59 177.34 114.78 178.14 115.46 C 178.94 116.13 180.13 116.03 180.81 115.23 L 181.51 114.40 C 182.19 113.60 182.09 112.41 181.29 111.73 C 180.49 111.05 179.29 111.15 178.62 111.95 Z M 177.95 112.77 L 177.31 113.50 C 176.62 114.28 176.70 115.47 177.47 116.15 C 178.25 116.83 179.44 116.76 180.12 115.98 L 180.77 115.25 C 181.45 114.47 181.38 113.29 180.60 112.60 C 179.82 111.92 178.64 111.99 177.95 112.77 Z M 177.34 113.49 L 176.65 114.25 C 175.96 115.01 176.02 116.19 176.78 116.88 C 177.53 117.57 178.71 117.51 179.40 116.75 L 180.09 115.99 C 180.78 115.23 180.72 114.06 179.96 113.37 C 179.20 112.68 178.03 112.74 177.34 113.49 Z M 176.68 114.25 L 175.99 114.99 C 175.30 115.73 175.34 116.89 176.08 117.58 C 176.82 118.28 177.98 118.24 178.67 117.50 L 179.37 116.76 C 180.06 116.02 180.02 114.85 179.28 114.16 C 178.54 113.47 177.38 113.51 176.68 114.25 Z M 176.02 114.97 L 175.29 115.73 C 174.59 116.45 174.61 117.61 175.33 118.31 C 176.06 119.01 177.21 118.99 177.91 118.27 L 178.64 117.51 C 179.34 116.79 179.32 115.63 178.60 114.93 C 177.88 114.23 176.72 114.25 176.02 114.97 Z M 175.32 115.72 L 174.61 116.43 C 173.90 117.13 173.90 118.28 174.61 118.99 C 175.32 119.70 176.47 119.70 177.18 118.99 L 177.88 118.28 C 178.59 117.57 178.59 116.42 177.88 115.71 C 177.17 115.01 176.03 115.01 175.32 115.72 Z M 174.63 116.42 L 173.95 117.08 C 173.24 117.78 173.23 118.92 173.92 119.64 C 174.62 120.35 175.76 120.36 176.48 119.66 L 177.16 119.00 C 177.87 118.30 177.88 117.16 177.18 116.44 C 176.48 115.73 175.34 115.72 174.63 116.42 Z M 173.96 117.08 L 173.82 117.22 C 173.11 117.91 173.09 119.05 173.79 119.76 C 174.48 120.48 175.62 120.49 176.33 119.80 L 176.47 119.66 C 177.18 118.97 177.20 117.83 176.50 117.12 C 175.81 116.40 174.67 116.39 173.96 117.08 Z"
      fill="black"
      fill-rule="nonzero" /><path d="M 127.69 127.20 L 127.65 128.26 C 127.61 129.36 128.46 130.28 129.55 130.32 C 130.64 130.36 131.56 129.51 131.61 128.41 L 131.65 127.35 C 131.69 126.26 130.84 125.34 129.74 125.30 C 128.65 125.26 127.73 126.11 127.69 127.20 Z M 128.08 129.74 L 128.61 130.32 C 129.38 131.18 130.70 131.24 131.55 130.47 C 132.41 129.70 132.48 128.38 131.70 127.53 L 131.18 126.94 C 130.40 126.08 129.08 126.02 128.23 126.79 C 127.37 127.56 127.31 128.88 128.08 129.74 Z M 129.97 131.06 L 131.02 131.15 C 132.20 131.25 133.24 130.38 133.34 129.21 C 133.45 128.03 132.58 126.99 131.40 126.88 L 130.34 126.79 C 129.17 126.69 128.13 127.56 128.02 128.73 C 127.92 129.91 128.79 130.95 129.97 131.06 Z M 131.36 131.17 L 132.32 131.10 C 133.50 131.02 134.40 129.99 134.32 128.80 C 134.24 127.61 133.21 126.72 132.02 126.80 L 131.06 126.87 C 129.87 126.95 128.98 127.98 129.06 129.17 C 129.14 130.35 130.17 131.25 131.36 131.17 Z M 132.60 131.06 L 133.59 130.85 C 134.76 130.61 135.51 129.48 135.27 128.31 C 135.03 127.15 133.89 126.40 132.73 126.64 L 131.73 126.84 C 130.57 127.08 129.82 128.22 130.06 129.38 C 130.30 130.55 131.44 131.30 132.60 131.06 Z M 133.81 130.79 L 134.71 130.50 C 135.84 130.14 136.46 128.94 136.11 127.81 C 135.75 126.68 134.55 126.06 133.42 126.42 L 132.51 126.71 C 131.39 127.06 130.76 128.27 131.12 129.39 C 131.48 130.52 132.68 131.14 133.81 130.79 Z M 134.80 130.45 L 135.80 130.08 C 136.90 129.68 137.46 128.46 137.06 127.36 C 136.65 126.26 135.43 125.69 134.33 126.10 L 133.33 126.47 C 132.23 126.87 131.67 128.09 132.07 129.19 C 132.48 130.29 133.70 130.86 134.80 130.45 Z M 135.81 130.05 L 136.79 129.68 C 137.88 129.26 138.42 128.05 138.01 126.97 C 137.59 125.89 136.38 125.35 135.30 125.76 L 134.32 126.13 C 133.24 126.54 132.70 127.76 133.11 128.84 C 133.52 129.92 134.73 130.46 135.81 130.05 Z M 136.79 129.64 L 137.75 129.26 C 138.81 128.85 139.34 127.66 138.93 126.60 C 138.52 125.54 137.32 125.02 136.26 125.43 L 135.30 125.80 C 134.24 126.21 133.72 127.40 134.13 128.46 C 134.54 129.52 135.73 130.05 136.79 129.64 Z M 137.75 129.22 L 138.64 128.87 C 139.68 128.45 140.19 127.28 139.77 126.24 C 139.36 125.21 138.19 124.70 137.15 125.11 L 136.26 125.47 C 135.23 125.88 134.72 127.05 135.13 128.09 C 135.54 129.13 136.72 129.63 137.75 129.22 Z M 138.65 128.81 L 139.63 128.40 C 140.64 127.99 141.11 126.84 140.70 125.83 C 140.28 124.83 139.13 124.35 138.13 124.77 L 137.15 125.17 C 136.14 125.59 135.66 126.74 136.08 127.74 C 136.50 128.75 137.65 129.23 138.65 128.81 Z M 139.60 128.36 L 140.46 128.01 C 141.43 127.61 141.90 126.49 141.50 125.51 C 141.10 124.53 139.99 124.06 139.01 124.46 L 138.16 124.81 C 137.18 125.21 136.71 126.33 137.11 127.31 C 137.51 128.29 138.63 128.76 139.60 128.36 Z M 140.40 127.99 L 141.34 127.63 C 142.31 127.26 142.79 126.17 142.43 125.21 C 142.06 124.24 140.97 123.75 140.01 124.12 L 139.06 124.48 C 138.10 124.85 137.61 125.94 137.98 126.90 C 138.35 127.87 139.43 128.36 140.40 127.99 Z M 141.35 127.60 L 142.21 127.26 C 143.16 126.89 143.63 125.82 143.26 124.86 C 142.89 123.91 141.82 123.44 140.86 123.81 L 140.00 124.15 C 139.05 124.52 138.58 125.60 138.95 126.55 C 139.32 127.50 140.40 127.97 141.35 127.60 Z M 142.21 127.24 L 143.12 126.88 C 144.06 126.51 144.52 125.44 144.15 124.50 C 143.78 123.56 142.71 123.10 141.77 123.47 L 140.86 123.83 C 139.92 124.21 139.46 125.27 139.83 126.21 C 140.21 127.15 141.27 127.61 142.21 127.24 Z M 143.09 126.91 L 144.02 126.57 C 144.98 126.21 145.47 125.15 145.11 124.19 C 144.76 123.23 143.69 122.74 142.74 123.10 L 141.80 123.44 C 140.85 123.80 140.36 124.86 140.71 125.82 C 141.07 126.78 142.13 127.27 143.09 126.91 Z M 144.02 126.64 L 144.94 126.31 C 145.93 125.96 146.45 124.86 146.10 123.87 C 145.75 122.87 144.65 122.35 143.66 122.70 L 142.74 123.03 C 141.74 123.38 141.22 124.47 141.57 125.47 C 141.93 126.47 143.02 126.99 144.02 126.64 Z M 144.95 126.40 L 145.96 126.04 C 147.01 125.68 147.56 124.54 147.20 123.50 C 146.83 122.46 145.69 121.90 144.65 122.27 L 143.64 122.62 C 142.60 122.98 142.04 124.12 142.41 125.16 C 142.77 126.21 143.91 126.76 144.95 126.40 Z M 145.98 126.11 L 146.48 125.93 C 147.56 125.56 148.13 124.38 147.76 123.31 C 147.39 122.23 146.21 121.66 145.13 122.03 L 144.63 122.21 C 143.55 122.58 142.98 123.75 143.36 124.83 C 143.73 125.91 144.90 126.48 145.98 126.11 Z"
      fill="black"
      fill-rule="nonzero" /><path d="M 132.02 139.04 L 132.93 138.99 C 134.02 138.93 134.86 137.99 134.80 136.90 C 134.74 135.80 133.81 134.96 132.71 135.02 L 131.80 135.07 C 130.70 135.13 129.86 136.07 129.92 137.16 C 129.98 138.26 130.92 139.10 132.02 139.04 Z M 133.12 139.07 L 134.16 138.92 C 135.30 138.75 136.08 137.69 135.92 136.55 C 135.75 135.41 134.69 134.62 133.55 134.79 L 132.52 134.94 C 131.38 135.11 130.59 136.17 130.76 137.31 C 130.92 138.45 131.98 139.24 133.12 139.07 Z M 134.40 138.93 L 135.39 138.67 C 136.54 138.37 137.23 137.19 136.93 136.05 C 136.63 134.90 135.45 134.22 134.31 134.52 L 133.31 134.78 C 132.16 135.08 131.48 136.25 131.78 137.40 C 132.08 138.54 133.25 139.23 134.40 138.93 Z M 135.52 138.64 L 136.51 138.31 C 137.65 137.94 138.26 136.73 137.89 135.59 C 137.52 134.46 136.30 133.85 135.17 134.22 L 134.18 134.54 C 133.05 134.91 132.43 136.13 132.80 137.26 C 133.17 138.39 134.39 139.01 135.52 138.64 Z M 136.58 138.29 L 137.50 137.96 C 138.62 137.55 139.20 136.32 138.79 135.20 C 138.38 134.08 137.15 133.50 136.03 133.90 L 135.11 134.24 C 133.99 134.64 133.41 135.88 133.82 137.00 C 134.22 138.12 135.46 138.70 136.58 138.29 Z M 137.53 137.94 L 138.56 137.54 C 139.67 137.12 140.22 135.87 139.80 134.77 C 139.37 133.66 138.13 133.11 137.02 133.53 L 135.99 133.93 C 134.89 134.35 134.33 135.59 134.76 136.70 C 135.18 137.81 136.43 138.36 137.53 137.94 Z M 138.58 137.51 L 139.41 137.18 C 140.50 136.75 141.03 135.51 140.59 134.42 C 140.16 133.33 138.92 132.80 137.83 133.23 L 137.00 133.56 C 135.91 134.00 135.38 135.23 135.82 136.33 C 136.25 137.42 137.49 137.95 138.58 137.51 Z M 139.39 137.17 L 140.30 136.81 C 141.38 136.38 141.91 135.15 141.48 134.07 C 141.06 132.99 139.83 132.46 138.75 132.89 L 137.84 133.25 C 136.76 133.68 136.23 134.90 136.66 135.98 C 137.09 137.06 138.31 137.59 139.39 137.17 Z M 140.28 136.79 L 141.23 136.42 C 142.30 136.01 142.83 134.80 142.42 133.73 C 142.00 132.66 140.80 132.12 139.72 132.54 L 138.77 132.90 C 137.70 133.32 137.17 134.53 137.58 135.60 C 138.00 136.67 139.20 137.21 140.28 136.79 Z M 141.22 136.40 L 142.16 136.03 C 143.22 135.62 143.74 134.42 143.33 133.36 C 142.92 132.31 141.72 131.78 140.66 132.20 L 139.72 132.56 C 138.67 132.98 138.14 134.17 138.56 135.23 C 138.97 136.29 140.16 136.81 141.22 136.40 Z M 142.21 135.98 L 143.05 135.62 C 144.08 135.19 144.56 133.99 144.12 132.96 C 143.68 131.93 142.49 131.45 141.46 131.89 L 140.62 132.24 C 139.59 132.68 139.10 133.88 139.54 134.91 C 139.98 135.94 141.18 136.42 142.21 135.98 Z M 143.08 135.58 L 143.98 135.17 C 144.99 134.72 145.44 133.53 144.98 132.52 C 144.52 131.51 143.33 131.06 142.32 131.52 L 141.42 131.93 C 140.41 132.39 139.97 133.58 140.43 134.59 C 140.89 135.60 142.08 136.04 143.08 135.58 Z M 143.97 135.16 L 144.93 134.73 C 145.93 134.28 146.38 133.10 145.93 132.10 C 145.48 131.10 144.31 130.65 143.31 131.10 L 142.34 131.53 C 141.34 131.98 140.89 133.16 141.34 134.16 C 141.79 135.16 142.97 135.61 143.97 135.16 Z M 144.93 134.71 L 145.88 134.28 C 146.87 133.83 147.31 132.66 146.87 131.67 C 146.42 130.68 145.25 130.24 144.26 130.69 L 143.31 131.12 C 142.31 131.57 141.87 132.74 142.32 133.73 C 142.77 134.72 143.94 135.16 144.93 134.71 Z M 145.92 134.25 L 146.83 133.80 C 147.81 133.33 148.22 132.16 147.75 131.19 C 147.28 130.22 146.11 129.81 145.13 130.28 L 144.22 130.72 C 143.25 131.19 142.84 132.36 143.31 133.33 C 143.78 134.31 144.95 134.71 145.92 134.25 Z M 146.95 133.71 L 147.90 133.16 C 148.82 132.63 149.14 131.45 148.61 130.53 C 148.07 129.60 146.89 129.29 145.97 129.82 L 145.02 130.37 C 144.10 130.91 143.78 132.09 144.32 133.01 C 144.85 133.93 146.03 134.24 146.95 133.71 Z M 148.07 132.99 L 148.79 132.45 C 149.62 131.82 149.78 130.64 149.16 129.81 C 148.53 128.99 147.36 128.82 146.53 129.45 L 145.81 129.99 C 144.98 130.62 144.81 131.79 145.44 132.62 C 146.06 133.45 147.24 133.62 148.07 132.99 Z M 148.84 132.37 L 148.96 132.26 C 149.75 131.61 149.86 130.45 149.20 129.66 C 148.55 128.88 147.39 128.77 146.61 129.42 L 146.48 129.53 C 145.70 130.18 145.59 131.34 146.24 132.13 C 146.89 132.91 148.06 133.02 148.84 132.37 Z"
      fill="black"
      fill-rule="nonzero" /><path d="M 141.62 128.31 L 140.49 128.33 C 139.45 128.35 138.62 129.20 138.64 130.24 C 138.65 131.28 139.51 132.11 140.55 132.10 L 141.69 132.08 C 142.73 132.06 143.55 131.20 143.54 130.16 C 143.52 129.12 142.66 128.29 141.62 128.31 Z M 140.26 128.30 L 139.29 128.43 C 138.23 128.57 137.49 129.54 137.64 130.60 C 137.78 131.66 138.75 132.40 139.80 132.26 L 140.78 132.12 C 141.83 131.98 142.57 131.01 142.43 129.96 C 142.29 128.90 141.32 128.16 140.26 128.30 Z M 138.52 128.66 L 137.79 129.10 C 136.86 129.67 136.57 130.89 137.14 131.82 C 137.71 132.75 138.93 133.04 139.86 132.47 L 140.58 132.03 C 141.51 131.46 141.80 130.24 141.23 129.31 C 140.66 128.38 139.45 128.09 138.52 128.66 Z M 136.89 130.19 L 136.61 131.11 C 136.28 132.18 136.88 133.32 137.95 133.65 C 139.02 133.97 140.15 133.37 140.48 132.30 L 140.76 131.38 C 141.09 130.31 140.49 129.18 139.42 128.85 C 138.35 128.52 137.22 129.12 136.89 130.19 Z M 136.48 131.67 L 136.46 132.67 C 136.44 133.81 137.35 134.75 138.49 134.77 C 139.63 134.79 140.57 133.88 140.59 132.75 L 140.60 131.75 C 140.62 130.61 139.72 129.67 138.58 129.65 C 137.44 129.63 136.50 130.53 136.48 131.67 Z M 136.45 132.78 L 136.49 133.78 C 136.53 134.92 137.49 135.82 138.63 135.78 C 139.77 135.74 140.67 134.78 140.63 133.63 L 140.60 132.64 C 140.56 131.49 139.60 130.60 138.45 130.64 C 137.31 130.68 136.41 131.64 136.45 132.78 Z M 136.49 133.81 L 136.54 134.77 C 136.59 135.91 137.57 136.80 138.71 136.74 C 139.86 136.68 140.74 135.71 140.68 134.56 L 140.63 133.60 C 140.57 132.46 139.60 131.57 138.45 131.63 C 137.31 131.69 136.43 132.66 136.49 133.81 Z M 136.54 134.78 L 136.59 135.79 C 136.65 136.93 137.63 137.81 138.77 137.75 C 139.91 137.69 140.79 136.71 140.73 135.57 L 140.68 134.56 C 140.62 133.41 139.64 132.54 138.50 132.60 C 137.35 132.66 136.48 133.63 136.54 134.78 Z M 136.60 135.79 L 136.65 136.81 C 136.71 137.95 137.68 138.82 138.82 138.76 C 139.96 138.70 140.84 137.73 140.78 136.59 L 140.73 135.57 C 140.67 134.43 139.69 133.55 138.55 133.61 C 137.41 133.67 136.53 134.65 136.60 135.79 Z M 136.66 136.80 L 136.70 137.78 C 136.76 138.92 137.72 139.80 138.86 139.74 C 140.00 139.69 140.88 138.72 140.82 137.58 L 140.77 136.60 C 140.72 135.46 139.75 134.58 138.62 134.64 C 137.48 134.69 136.60 135.66 136.66 136.80 Z M 136.71 137.76 L 136.75 138.78 C 136.79 139.92 137.74 140.80 138.87 140.76 C 140.01 140.72 140.89 139.77 140.85 138.63 L 140.81 137.61 C 140.77 136.48 139.82 135.59 138.69 135.63 C 137.55 135.67 136.67 136.62 136.71 137.76 Z M 136.76 138.75 L 136.77 139.73 C 136.80 140.86 137.73 141.76 138.86 141.74 C 139.99 141.72 140.88 140.78 140.86 139.66 L 140.84 138.67 C 140.82 137.54 139.89 136.64 138.76 136.66 C 137.63 136.69 136.73 137.62 136.76 138.75 Z M 136.78 139.70 L 136.79 140.69 C 136.79 141.82 137.70 142.73 138.82 142.73 C 139.94 142.72 140.85 141.81 140.85 140.69 L 140.85 139.69 C 140.85 138.57 139.94 137.66 138.82 137.66 C 137.69 137.66 136.78 138.57 136.78 139.70 Z M 136.80 140.66 L 136.78 141.68 C 136.76 142.80 137.65 143.72 138.77 143.74 C 139.89 143.75 140.81 142.86 140.83 141.75 L 140.84 140.72 C 140.86 139.61 139.97 138.69 138.85 138.67 C 137.73 138.65 136.81 139.54 136.80 140.66 Z M 136.79 141.64 L 136.76 142.61 C 136.72 143.72 137.59 144.65 138.70 144.69 C 139.81 144.73 140.74 143.86 140.78 142.75 L 140.82 141.78 C 140.85 140.67 139.98 139.74 138.87 139.70 C 137.76 139.66 136.83 140.53 136.79 141.64 Z M 136.77 142.54 L 136.70 143.53 C 136.62 144.64 137.45 145.60 138.56 145.67 C 139.66 145.75 140.62 144.92 140.70 143.82 L 140.77 142.82 C 140.85 141.72 140.02 140.76 138.91 140.68 C 137.81 140.60 136.85 141.43 136.77 142.54 Z M 136.72 143.42 L 136.59 144.45 C 136.45 145.54 137.22 146.54 138.31 146.68 C 139.41 146.82 140.41 146.05 140.55 144.95 L 140.68 143.93 C 140.82 142.83 140.05 141.83 138.95 141.69 C 137.86 141.55 136.86 142.33 136.72 143.42 Z M 136.61 144.32 L 136.42 145.33 C 136.20 146.41 136.91 147.46 137.99 147.67 C 139.07 147.88 140.12 147.17 140.33 146.09 L 140.52 145.08 C 140.73 144.00 140.03 142.95 138.95 142.74 C 137.87 142.53 136.82 143.24 136.61 144.32 Z M 136.44 145.23 L 136.19 146.22 C 135.92 147.29 136.57 148.37 137.64 148.64 C 138.70 148.90 139.78 148.26 140.05 147.19 L 140.30 146.20 C 140.57 145.13 139.92 144.05 138.85 143.78 C 137.79 143.51 136.71 144.16 136.44 145.23 Z M 136.21 146.14 L 135.94 147.07 C 135.63 148.12 136.23 149.23 137.28 149.54 C 138.33 149.85 139.44 149.25 139.75 148.20 L 140.03 147.27 C 140.34 146.22 139.74 145.11 138.69 144.80 C 137.63 144.49 136.53 145.09 136.21 146.14 Z M 135.95 147.00 L 135.55 148.20 C 135.19 149.24 135.76 150.38 136.80 150.73 C 137.85 151.08 138.99 150.52 139.34 149.47 L 139.74 148.27 C 140.09 147.23 139.53 146.09 138.48 145.74 C 137.44 145.39 136.30 145.95 135.95 147.00 Z M 135.45 148.42 L 135.31 149.14 C 135.08 150.23 135.79 151.31 136.89 151.54 C 137.98 151.76 139.06 151.05 139.28 149.96 L 139.43 149.24 C 139.66 148.15 138.95 147.07 137.85 146.85 C 136.75 146.62 135.68 147.33 135.45 148.42 Z M 138.07 151.45 L 138.56 151.26 C 139.61 150.83 140.12 149.62 139.69 148.57 C 139.26 147.52 138.05 147.01 137.00 147.44 L 136.52 147.64 C 135.46 148.07 134.96 149.27 135.39 150.33 C 135.82 151.38 137.02 151.88 138.07 151.45 Z M 139.06 150.99 L 140.12 150.17 C 141.02 149.46 141.18 148.15 140.48 147.24 C 139.77 146.34 138.46 146.18 137.55 146.88 L 136.50 147.71 C 135.59 148.42 135.43 149.72 136.14 150.63 C 136.85 151.54 138.15 151.70 139.06 150.99 Z M 140.10 150.18 L 140.86 149.60 C 141.78 148.90 141.95 147.59 141.25 146.68 C 140.55 145.76 139.24 145.58 138.33 146.28 L 137.57 146.87 C 136.65 147.57 136.48 148.88 137.18 149.79 C 137.88 150.71 139.19 150.88 140.10 150.18 Z M 140.84 149.61 L 141.67 148.99 C 142.59 148.30 142.78 146.99 142.09 146.07 C 141.40 145.15 140.10 144.97 139.18 145.66 L 138.35 146.28 C 137.43 146.97 137.24 148.27 137.93 149.19 C 138.62 150.11 139.92 150.30 140.84 149.61 Z M 141.66 148.99 L 142.49 148.38 C 143.41 147.69 143.61 146.39 142.92 145.47 C 142.24 144.55 140.94 144.36 140.02 145.04 L 139.19 145.65 C 138.27 146.34 138.07 147.64 138.76 148.56 C 139.44 149.48 140.74 149.67 141.66 148.99 Z M 142.48 148.36 L 143.33 147.73 C 144.24 147.06 144.43 145.77 143.76 144.86 C 143.09 143.95 141.80 143.75 140.89 144.42 L 140.04 145.05 C 139.12 145.73 138.93 147.01 139.60 147.93 C 140.27 148.84 141.56 149.04 142.48 148.36 Z M 143.30 147.69 L 144.13 147.08 C 145.02 146.42 145.21 145.17 144.55 144.28 C 143.89 143.39 142.64 143.20 141.75 143.85 L 140.92 144.46 C 140.02 145.12 139.83 146.38 140.49 147.27 C 141.15 148.16 142.40 148.35 143.30 147.69 Z M 144.09 147.03 L 144.84 146.48 C 145.70 145.84 145.89 144.63 145.25 143.76 C 144.62 142.90 143.40 142.72 142.54 143.35 L 141.79 143.91 C 140.93 144.54 140.74 145.75 141.38 146.62 C 142.01 147.48 143.22 147.66 144.09 147.03 Z M 144.80 146.43 L 145.61 145.84 C 146.45 145.23 146.63 144.05 146.01 143.21 C 145.39 142.37 144.22 142.19 143.38 142.81 L 142.57 143.40 C 141.74 144.01 141.56 145.19 142.17 146.03 C 142.79 146.87 143.97 147.05 144.80 146.43 Z M 145.59 145.81 L 146.42 145.20 C 147.24 144.60 147.41 143.44 146.81 142.62 C 146.20 141.80 145.05 141.62 144.22 142.23 L 143.40 142.84 C 142.57 143.44 142.40 144.60 143.00 145.42 C 143.61 146.24 144.77 146.42 145.59 145.81 Z M 146.41 145.18 L 147.18 144.60 C 147.99 144.00 148.15 142.86 147.55 142.05 C 146.95 141.25 145.81 141.08 145.00 141.68 L 144.23 142.25 C 143.42 142.85 143.26 144.00 143.86 144.80 C 144.46 145.61 145.60 145.78 146.41 145.18 Z M 147.19 144.58 L 148.01 143.94 C 148.80 143.34 148.95 142.20 148.35 141.41 C 147.74 140.62 146.61 140.47 145.81 141.08 L 144.99 141.71 C 144.20 142.31 144.05 143.45 144.66 144.24 C 145.26 145.03 146.40 145.18 147.19 144.58 Z M 148.02 143.93 L 148.51 143.55 C 149.29 142.94 149.43 141.81 148.82 141.02 C 148.20 140.24 147.07 140.10 146.29 140.71 L 145.80 141.09 C 145.02 141.70 144.88 142.84 145.49 143.62 C 146.11 144.40 147.24 144.54 148.02 143.93 Z"
      fill="black"
      fill-rule="nonzero" /><path d="M 162.35 111.40 L 161.44 111.86 C 160.44 112.37 160.04 113.60 160.55 114.60 C 161.06 115.60 162.29 116.00 163.29 115.49 L 164.20 115.03 C 165.20 114.52 165.60 113.29 165.09 112.29 C 164.58 111.29 163.35 110.89 162.35 111.40 Z M 161.09 112.10 L 160.34 112.70 C 159.47 113.41 159.33 114.69 160.04 115.56 C 160.75 116.44 162.03 116.57 162.90 115.86 L 163.65 115.26 C 164.52 114.55 164.66 113.27 163.95 112.39 C 163.24 111.52 161.96 111.39 161.09 112.10 Z M 159.94 113.15 L 159.39 113.96 C 158.76 114.89 159.00 116.15 159.93 116.78 C 160.86 117.41 162.12 117.17 162.75 116.24 L 163.30 115.42 C 163.93 114.49 163.69 113.23 162.76 112.60 C 161.83 111.98 160.57 112.22 159.94 113.15 Z M 159.29 114.14 L 158.81 115.02 C 158.28 116.00 158.64 117.23 159.63 117.76 C 160.61 118.29 161.84 117.93 162.37 116.94 L 162.84 116.07 C 163.38 115.08 163.01 113.86 162.03 113.32 C 161.05 112.79 159.82 113.16 159.29 114.14 Z M 158.80 115.05 L 158.33 115.95 C 157.82 116.93 158.20 118.15 159.19 118.67 C 160.18 119.18 161.39 118.80 161.91 117.81 L 162.38 116.91 C 162.89 115.93 162.51 114.71 161.52 114.19 C 160.54 113.68 159.32 114.06 158.80 115.05 Z M 158.32 115.98 L 157.88 116.86 C 157.38 117.86 157.78 119.07 158.78 119.56 C 159.77 120.06 160.98 119.66 161.48 118.66 L 161.92 117.78 C 162.42 116.78 162.02 115.57 161.02 115.08 C 160.03 114.58 158.82 114.98 158.32 115.98 Z M 157.85 116.91 L 157.43 117.82 C 156.96 118.83 157.39 120.03 158.40 120.50 C 159.41 120.97 160.61 120.54 161.08 119.53 L 161.51 118.62 C 161.98 117.61 161.54 116.41 160.53 115.94 C 159.52 115.46 158.32 115.90 157.85 116.91 Z M 157.39 117.88 L 157.00 118.82 C 156.56 119.85 157.04 121.04 158.07 121.47 C 159.10 121.91 160.28 121.43 160.72 120.40 L 161.12 119.46 C 161.55 118.43 161.07 117.25 160.04 116.81 C 159.02 116.38 157.83 116.86 157.39 117.88 Z M 156.95 118.91 L 156.61 119.86 C 156.22 120.91 156.76 122.08 157.81 122.46 C 158.87 122.85 160.03 122.31 160.42 121.26 L 160.76 120.31 C 161.15 119.25 160.61 118.09 159.55 117.70 C 158.50 117.32 157.34 117.86 156.95 118.91 Z M 156.53 120.04 L 156.26 121.08 C 155.97 122.17 156.62 123.29 157.71 123.58 C 158.80 123.87 159.92 123.22 160.21 122.13 L 160.49 121.08 C 160.78 119.99 160.12 118.87 159.03 118.58 C 157.94 118.29 156.82 118.95 156.53 120.04 Z M 156.16 121.65 L 156.18 122.58 C 156.21 123.73 157.16 124.64 158.31 124.61 C 159.45 124.58 160.36 123.63 160.33 122.48 L 160.31 121.55 C 160.28 120.41 159.33 119.50 158.18 119.53 C 157.04 119.55 156.13 120.51 156.16 121.65 Z M 157.07 124.27 L 157.76 124.74 C 158.72 125.40 160.03 125.15 160.69 124.19 C 161.34 123.23 161.10 121.93 160.14 121.27 L 159.44 120.80 C 158.48 120.14 157.18 120.39 156.52 121.35 C 155.86 122.31 156.11 123.62 157.07 124.27 Z M 158.76 125.11 L 159.80 125.20 C 160.96 125.30 161.98 124.45 162.09 123.29 C 162.19 122.13 161.34 121.11 160.18 121.00 L 159.14 120.91 C 157.98 120.80 156.95 121.66 156.85 122.82 C 156.75 123.98 157.60 125.00 158.76 125.11 Z M 160.06 125.20 L 161.05 125.17 C 162.21 125.13 163.12 124.16 163.08 123.00 C 163.05 121.84 162.07 120.93 160.91 120.97 L 159.92 121.00 C 158.76 121.04 157.85 122.01 157.89 123.17 C 157.93 124.33 158.90 125.24 160.06 125.20 Z M 161.34 125.13 L 162.32 124.96 C 163.45 124.76 164.22 123.68 164.02 122.54 C 163.82 121.41 162.74 120.64 161.61 120.84 L 160.63 121.01 C 159.49 121.21 158.73 122.29 158.93 123.42 C 159.12 124.56 160.20 125.32 161.34 125.13 Z M 162.51 124.89 L 163.48 124.63 C 164.58 124.32 165.23 123.18 164.93 122.08 C 164.62 120.98 163.48 120.33 162.38 120.63 L 161.41 120.90 C 160.31 121.21 159.66 122.35 159.97 123.45 C 160.27 124.55 161.41 125.20 162.51 124.89 Z M 163.55 124.59 L 164.49 124.29 C 165.57 123.95 166.17 122.80 165.83 121.72 C 165.49 120.64 164.34 120.04 163.26 120.38 L 162.31 120.68 C 161.23 121.02 160.64 122.17 160.98 123.25 C 161.32 124.33 162.47 124.93 163.55 124.59 Z M 164.50 124.26 L 165.41 123.97 C 166.47 123.62 167.06 122.48 166.71 121.41 C 166.36 120.35 165.22 119.76 164.15 120.11 L 163.25 120.41 C 162.18 120.75 161.60 121.90 161.95 122.96 C 162.29 124.03 163.44 124.61 164.50 124.26 Z M 165.41 123.94 L 166.43 123.61 C 167.48 123.26 168.05 122.13 167.70 121.08 C 167.35 120.02 166.22 119.45 165.17 119.80 L 164.15 120.13 C 163.10 120.48 162.53 121.61 162.88 122.67 C 163.22 123.72 164.36 124.29 165.41 123.94 Z M 166.42 123.58 L 167.39 123.26 C 168.43 122.92 168.99 121.80 168.65 120.76 C 168.30 119.72 167.18 119.16 166.14 119.50 L 165.17 119.82 C 164.14 120.17 163.57 121.29 163.92 122.33 C 164.26 123.36 165.38 123.93 166.42 123.58 Z M 167.38 123.24 L 168.37 122.91 C 169.39 122.57 169.95 121.47 169.61 120.44 C 169.27 119.41 168.16 118.86 167.13 119.20 L 166.15 119.52 C 165.12 119.86 164.57 120.97 164.91 122.00 C 165.25 123.03 166.36 123.58 167.38 123.24 Z M 168.36 122.89 L 169.29 122.58 C 170.30 122.25 170.85 121.15 170.51 120.14 C 170.17 119.13 169.08 118.58 168.07 118.91 L 167.14 119.22 C 166.13 119.56 165.58 120.65 165.92 121.67 C 166.25 122.68 167.35 123.23 168.36 122.89 Z M 169.27 122.56 L 170.30 122.22 C 171.30 121.89 171.84 120.81 171.51 119.81 C 171.18 118.81 170.10 118.27 169.11 118.60 L 168.08 118.94 C 167.08 119.27 166.54 120.35 166.87 121.35 C 167.20 122.34 168.28 122.89 169.27 122.56 Z M 170.25 122.19 L 171.15 121.91 C 172.13 121.61 172.68 120.57 172.38 119.59 C 172.08 118.60 171.04 118.05 170.05 118.35 L 169.16 118.63 C 168.17 118.93 167.62 119.97 167.92 120.96 C 168.22 121.94 169.27 122.49 170.25 122.19 Z M 171.05 121.91 L 171.97 121.67 C 172.95 121.43 173.55 120.43 173.30 119.45 C 173.05 118.47 172.05 117.88 171.07 118.12 L 170.15 118.36 C 169.17 118.61 168.58 119.60 168.82 120.58 C 169.07 121.56 170.07 122.16 171.05 121.91 Z M 171.90 121.67 L 172.88 121.47 C 173.86 121.26 174.49 120.29 174.28 119.31 C 174.07 118.33 173.11 117.71 172.13 117.92 L 171.15 118.12 C 170.17 118.33 169.54 119.30 169.75 120.28 C 169.96 121.26 170.92 121.88 171.90 121.67 Z M 172.86 121.46 L 173.19 121.40 C 174.17 121.20 174.80 120.25 174.61 119.27 C 174.41 118.29 173.46 117.66 172.48 117.85 L 172.15 117.92 C 171.17 118.12 170.54 119.07 170.74 120.05 C 170.93 121.02 171.88 121.66 172.86 121.46 Z"
      fill="black"
      fill-rule="nonzero" /><path d="M 156.42 135.76 L 157.32 135.80 C 158.43 135.84 159.36 134.97 159.40 133.86 C 159.44 132.76 158.58 131.83 157.47 131.79 L 156.57 131.75 C 155.46 131.71 154.53 132.58 154.49 133.69 C 154.45 134.79 155.31 135.72 156.42 135.76 Z M 157.56 135.87 L 158.57 135.79 C 159.72 135.70 160.58 134.70 160.49 133.55 C 160.40 132.40 159.39 131.54 158.25 131.63 L 157.23 131.71 C 156.09 131.80 155.23 132.81 155.32 133.95 C 155.41 135.10 156.41 135.96 157.56 135.87 Z M 158.89 135.80 L 159.92 135.56 C 161.08 135.30 161.79 134.15 161.53 132.99 C 161.26 131.84 160.11 131.12 158.96 131.39 L 157.93 131.63 C 156.77 131.89 156.05 133.04 156.32 134.19 C 156.59 135.35 157.74 136.07 158.89 135.80 Z M 160.12 135.52 L 161.11 135.20 C 162.24 134.82 162.85 133.60 162.48 132.47 C 162.10 131.34 160.88 130.72 159.75 131.10 L 158.76 131.43 C 157.63 131.80 157.02 133.02 157.39 134.15 C 157.77 135.29 158.99 135.90 160.12 135.52 Z M 161.21 135.16 L 162.17 134.79 C 163.28 134.36 163.83 133.11 163.41 132.00 C 162.98 130.89 161.73 130.33 160.62 130.76 L 159.66 131.13 C 158.54 131.56 157.99 132.81 158.42 133.92 C 158.85 135.03 160.09 135.59 161.21 135.16 Z M 162.23 134.76 L 163.18 134.36 C 164.27 133.90 164.79 132.64 164.33 131.55 C 163.87 130.45 162.61 129.93 161.51 130.39 L 160.56 130.79 C 159.47 131.25 158.95 132.51 159.41 133.61 C 159.87 134.70 161.13 135.22 162.23 134.76 Z M 163.22 134.32 L 164.17 133.90 C 165.24 133.41 165.72 132.15 165.24 131.08 C 164.75 130.00 163.49 129.52 162.42 130.01 L 161.47 130.43 C 160.40 130.91 159.92 132.18 160.40 133.25 C 160.88 134.33 162.14 134.81 163.22 134.32 Z M 164.19 133.86 L 164.97 133.49 C 166.02 132.99 166.48 131.74 165.98 130.69 C 165.49 129.64 164.23 129.18 163.18 129.68 L 162.40 130.05 C 161.35 130.54 160.89 131.80 161.39 132.85 C 161.88 133.90 163.14 134.35 164.19 133.86 Z M 164.94 133.47 L 165.85 133.06 C 166.90 132.58 167.35 131.34 166.88 130.30 C 166.40 129.26 165.17 128.80 164.12 129.28 L 163.21 129.69 C 162.17 130.17 161.71 131.40 162.19 132.45 C 162.67 133.49 163.90 133.95 164.94 133.47 Z M 165.82 133.05 L 166.73 132.64 C 167.77 132.19 168.24 130.97 167.78 129.93 C 167.33 128.90 166.11 128.42 165.07 128.88 L 164.16 129.29 C 163.12 129.74 162.65 130.96 163.11 131.99 C 163.56 133.03 164.78 133.50 165.82 133.05 Z M 166.71 132.63 L 167.62 132.23 C 168.64 131.79 169.12 130.59 168.67 129.56 C 168.23 128.53 167.03 128.06 166.00 128.51 L 165.10 128.90 C 164.07 129.34 163.59 130.54 164.04 131.57 C 164.48 132.60 165.68 133.07 166.71 132.63 Z M 167.61 132.21 L 168.34 131.90 C 169.36 131.45 169.82 130.27 169.38 129.25 C 168.93 128.23 167.75 127.77 166.73 128.21 L 166.00 128.53 C 164.99 128.97 164.52 130.16 164.96 131.17 C 165.41 132.19 166.59 132.66 167.61 132.21 Z M 168.33 131.88 L 169.37 131.43 C 170.38 130.99 170.84 129.82 170.40 128.81 C 169.96 127.80 168.78 127.34 167.78 127.78 L 166.74 128.23 C 165.73 128.67 165.27 129.84 165.71 130.85 C 166.15 131.86 167.32 132.32 168.33 131.88 Z M 169.36 131.42 L 170.31 131.01 C 171.31 130.57 171.77 129.41 171.33 128.41 C 170.90 127.40 169.74 126.94 168.73 127.38 L 167.78 127.79 C 166.78 128.22 166.32 129.39 166.76 130.39 C 167.19 131.39 168.36 131.85 169.36 131.42 Z M 170.30 131.00 L 171.25 130.58 C 172.25 130.15 172.71 129.00 172.28 128.00 C 171.85 127.00 170.69 126.55 169.69 126.98 L 168.74 127.39 C 167.74 127.82 167.29 128.98 167.72 129.97 C 168.15 130.97 169.30 131.43 170.30 131.00 Z M 171.25 130.57 L 172.22 130.15 C 173.21 129.72 173.67 128.57 173.24 127.58 C 172.82 126.59 171.67 126.14 170.68 126.56 L 169.70 126.99 C 168.71 127.41 168.25 128.56 168.68 129.55 C 169.11 130.54 170.26 131.00 171.25 130.57 Z M 172.22 130.14 L 173.13 129.75 C 174.11 129.33 174.57 128.18 174.14 127.20 C 173.72 126.22 172.58 125.76 171.59 126.18 L 170.68 126.58 C 169.70 127.00 169.25 128.14 169.67 129.12 C 170.09 130.11 171.23 130.56 172.22 130.14 Z M 173.11 129.73 L 174.20 129.26 C 175.17 128.85 175.62 127.72 175.20 126.75 C 174.79 125.78 173.66 125.33 172.69 125.74 L 171.61 126.21 C 170.64 126.62 170.19 127.75 170.60 128.72 C 171.02 129.69 172.14 130.14 173.11 129.73 Z M 174.17 129.22 L 175.04 128.86 C 175.98 128.45 176.43 127.36 176.03 126.41 C 175.62 125.46 174.53 125.02 173.58 125.42 L 172.72 125.78 C 171.77 126.19 171.33 127.28 171.73 128.23 C 172.13 129.18 173.22 129.62 174.17 129.22 Z M 175.01 128.82 L 175.45 128.63 C 176.38 128.24 176.82 127.18 176.43 126.25 C 176.04 125.32 174.97 124.88 174.04 125.27 L 173.60 125.46 C 172.68 125.85 172.24 126.92 172.63 127.84 C 173.02 128.77 174.09 129.21 175.01 128.82 Z"
      fill="black"
      fill-rule="nonzero" /><path d="M 163.94 123.70 L 163.86 124.67 C 163.78 125.76 164.59 126.72 165.68 126.80 C 166.77 126.89 167.72 126.08 167.81 124.99 L 167.89 124.01 C 167.98 122.93 167.16 121.97 166.07 121.88 C 164.99 121.80 164.03 122.61 163.94 123.70 Z M 163.76 124.74 L 163.72 125.74 C 163.66 126.88 164.55 127.85 165.69 127.91 C 166.84 127.96 167.81 127.08 167.86 125.93 L 167.91 124.93 C 167.96 123.78 167.08 122.81 165.93 122.76 C 164.79 122.70 163.82 123.59 163.76 124.74 Z M 163.67 125.81 L 163.66 126.81 C 163.65 127.98 164.58 128.94 165.75 128.95 C 166.92 128.96 167.88 128.03 167.89 126.86 L 167.91 125.86 C 167.92 124.69 166.98 123.73 165.81 123.72 C 164.65 123.70 163.69 124.64 163.67 125.81 Z M 163.66 126.83 L 163.66 127.83 C 163.66 129.00 164.61 129.94 165.78 129.94 C 166.95 129.94 167.89 129.00 167.89 127.83 L 167.89 126.83 C 167.90 125.67 166.95 124.72 165.78 124.72 C 164.61 124.72 163.66 125.66 163.66 126.83 Z M 163.67 127.83 L 163.67 128.82 C 163.67 129.98 164.61 130.93 165.78 130.93 C 166.94 130.93 167.89 129.98 167.89 128.82 L 167.89 127.83 C 167.89 126.66 166.94 125.72 165.78 125.72 C 164.61 125.72 163.67 126.66 163.67 127.83 Z M 163.69 128.82 L 163.69 129.83 C 163.69 130.98 164.62 131.92 165.78 131.92 C 166.93 131.92 167.87 130.98 167.87 129.83 L 167.87 128.82 C 167.87 127.66 166.93 126.73 165.78 126.73 C 164.62 126.73 163.69 127.66 163.69 128.82 Z M 163.71 129.83 L 163.71 130.82 C 163.71 131.96 164.64 132.88 165.78 132.88 C 166.92 132.88 167.85 131.96 167.85 130.82 L 167.85 129.83 C 167.85 128.68 166.92 127.76 165.78 127.76 C 164.64 127.76 163.71 128.68 163.71 129.83 Z M 163.74 130.82 L 163.74 131.85 C 163.74 132.98 164.65 133.89 165.78 133.89 C 166.90 133.89 167.82 132.98 167.82 131.85 L 167.82 130.82 C 167.82 129.69 166.90 128.78 165.78 128.78 C 164.65 128.78 163.74 129.69 163.74 130.82 Z M 163.77 131.85 L 163.77 132.84 C 163.77 133.94 164.67 134.84 165.78 134.84 C 166.89 134.84 167.78 133.94 167.78 132.84 L 167.78 131.85 C 167.78 130.74 166.89 129.85 165.78 129.85 C 164.67 129.85 163.77 130.74 163.77 131.85 Z M 163.81 132.84 L 163.81 133.84 C 163.81 134.93 164.69 135.81 165.78 135.81 C 166.86 135.81 167.75 134.93 167.75 133.84 L 167.75 132.84 C 167.75 131.75 166.86 130.87 165.78 130.87 C 164.69 130.87 163.81 131.75 163.81 132.84 Z M 163.85 133.84 L 163.85 134.88 C 163.85 135.94 164.71 136.81 165.78 136.81 C 166.84 136.81 167.71 135.94 167.71 134.88 L 167.71 133.84 C 167.71 132.77 166.84 131.91 165.78 131.91 C 164.71 131.91 163.85 132.77 163.85 133.84 Z M 163.88 134.88 L 163.88 135.92 C 163.88 136.97 164.73 137.82 165.78 137.82 C 166.83 137.82 167.67 136.97 167.67 135.92 L 167.67 134.88 C 167.67 133.83 166.83 132.98 165.78 132.98 C 164.73 132.98 163.88 133.83 163.88 134.88 Z M 163.92 135.92 L 163.92 136.87 C 163.92 137.90 164.75 138.73 165.78 138.73 C 166.81 138.73 167.64 137.90 167.64 136.87 L 167.64 135.92 C 167.64 134.89 166.81 134.06 165.78 134.06 C 164.75 134.06 163.92 134.89 163.92 135.92 Z M 163.95 136.87 L 163.95 137.88 C 163.95 138.89 164.77 139.72 165.78 139.72 C 166.79 139.72 167.61 138.89 167.61 137.88 L 167.61 136.87 C 167.61 135.86 166.79 135.04 165.78 135.04 C 164.77 135.04 163.95 135.86 163.95 136.87 Z M 163.97 137.88 L 163.97 138.85 C 163.97 139.85 164.78 140.66 165.78 140.66 C 166.78 140.66 167.59 139.85 167.59 138.85 L 167.59 137.88 C 167.59 136.88 166.78 136.07 165.78 136.07 C 164.78 136.07 163.97 136.88 163.97 137.88 Z M 163.98 138.85 L 163.98 139.80 C 163.98 140.80 164.78 141.60 165.78 141.60 C 166.77 141.60 167.58 140.80 167.58 139.80 L 167.58 138.85 C 167.58 137.86 166.77 137.05 165.78 137.05 C 164.78 137.05 163.98 137.86 163.98 138.85 Z M 163.98 139.80 L 163.98 140.84 C 163.98 141.84 164.78 142.64 165.78 142.64 C 166.77 142.64 167.58 141.84 167.58 140.84 L 167.58 139.80 C 167.58 138.81 166.77 138.00 165.78 138.00 C 164.78 138.00 163.98 138.81 163.98 139.80 Z M 163.98 140.84 L 163.98 141.01 C 163.98 142.01 164.78 142.81 165.78 142.81 C 166.77 142.81 167.58 142.01 167.58 141.01 L 167.58 140.84 C 167.58 139.85 166.77 139.04 165.78 139.04 C 164.78 139.04 163.98 139.85 163.98 140.84 Z"
      fill="black"
      fill-rule="nonzero" /><path d="M 156.64 141.30 L 156.26 142.24 C 155.85 143.29 156.36 144.47 157.40 144.89 C 158.45 145.31 159.63 144.80 160.05 143.76 L 160.43 142.82 C 160.84 141.77 160.34 140.58 159.29 140.17 C 158.24 139.75 157.06 140.26 156.64 141.30 Z M 156.11 142.59 L 155.92 143.57 C 155.70 144.70 156.43 145.79 157.56 146.02 C 158.69 146.24 159.78 145.51 160.01 144.38 L 160.20 143.40 C 160.42 142.27 159.69 141.18 158.56 140.96 C 157.43 140.73 156.34 141.47 156.11 142.59 Z M 155.87 144.41 L 156.07 145.37 C 156.32 146.53 157.45 147.27 158.61 147.02 C 159.76 146.78 160.50 145.65 160.26 144.49 L 160.06 143.53 C 159.81 142.38 158.68 141.64 157.52 141.88 C 156.37 142.12 155.63 143.26 155.87 144.41 Z M 156.61 146.46 L 157.28 147.14 C 158.12 148.00 159.50 148.02 160.36 147.17 C 161.22 146.33 161.24 144.95 160.40 144.09 L 159.73 143.41 C 158.88 142.54 157.50 142.53 156.64 143.37 C 155.78 144.21 155.77 145.60 156.61 146.46 Z M 157.86 147.58 L 158.78 148.04 C 159.86 148.58 161.18 148.13 161.72 147.05 C 162.26 145.96 161.82 144.65 160.73 144.11 L 159.81 143.65 C 158.73 143.11 157.41 143.55 156.87 144.64 C 156.33 145.72 156.77 147.04 157.86 147.58 Z M 159.13 148.18 L 160.08 148.46 C 161.24 148.80 162.46 148.14 162.81 146.98 C 163.15 145.81 162.49 144.59 161.32 144.24 L 160.38 143.96 C 159.21 143.62 157.99 144.29 157.65 145.45 C 157.30 146.61 157.97 147.84 159.13 148.18 Z M 160.32 148.52 L 161.25 148.68 C 162.44 148.89 163.58 148.09 163.79 146.89 C 164.00 145.70 163.20 144.56 162.01 144.35 L 161.08 144.19 C 159.88 143.98 158.75 144.78 158.54 145.97 C 158.33 147.17 159.13 148.31 160.32 148.52 Z M 161.42 148.70 L 162.37 148.79 C 163.57 148.91 164.64 148.02 164.76 146.82 C 164.88 145.61 164.00 144.54 162.79 144.42 L 161.84 144.33 C 160.63 144.21 159.56 145.10 159.44 146.30 C 159.33 147.51 160.21 148.58 161.42 148.70 Z M 162.50 148.79 L 163.59 148.83 C 164.80 148.88 165.81 147.93 165.85 146.73 C 165.90 145.52 164.95 144.50 163.75 144.46 L 162.66 144.42 C 161.45 144.38 160.43 145.32 160.39 146.53 C 160.35 147.73 161.29 148.75 162.50 148.79 Z M 163.68 148.83 L 164.66 148.82 C 165.86 148.81 166.83 147.83 166.82 146.62 C 166.81 145.41 165.83 144.44 164.62 144.45 L 163.65 144.46 C 162.44 144.47 161.47 145.46 161.48 146.66 C 161.49 147.87 162.48 148.84 163.68 148.83 Z M 164.77 148.81 L 165.80 148.75 C 167.00 148.68 167.92 147.65 167.85 146.45 C 167.77 145.24 166.74 144.33 165.54 144.40 L 164.51 144.46 C 163.31 144.54 162.39 145.57 162.47 146.77 C 162.54 147.97 163.57 148.88 164.77 148.81 Z M 165.97 148.73 L 166.99 148.59 C 168.18 148.43 169.01 147.33 168.85 146.14 C 168.68 144.95 167.59 144.12 166.40 144.28 L 165.38 144.42 C 164.19 144.59 163.36 145.68 163.52 146.87 C 163.68 148.06 164.78 148.89 165.97 148.73 Z M 167.22 148.53 L 168.28 148.26 C 169.44 147.97 170.14 146.80 169.86 145.65 C 169.57 144.49 168.39 143.79 167.24 144.07 L 166.17 144.34 C 165.01 144.63 164.31 145.80 164.60 146.96 C 164.89 148.12 166.06 148.82 167.22 148.53 Z M 168.48 148.18 L 169.40 147.85 C 170.51 147.46 171.09 146.23 170.70 145.12 C 170.30 144.01 169.07 143.43 167.96 143.83 L 167.04 144.16 C 165.93 144.55 165.35 145.78 165.75 146.89 C 166.15 148.00 167.37 148.58 168.48 148.18 Z M 169.53 147.78 L 170.42 147.39 C 171.49 146.92 171.98 145.68 171.51 144.60 C 171.04 143.53 169.79 143.04 168.72 143.51 L 167.83 143.90 C 166.76 144.37 166.27 145.62 166.74 146.69 C 167.21 147.76 168.46 148.25 169.53 147.78 Z M 170.52 147.31 L 171.40 146.86 C 172.43 146.34 172.84 145.08 172.31 144.05 C 171.79 143.02 170.53 142.61 169.50 143.14 L 168.62 143.59 C 167.59 144.12 167.18 145.38 167.71 146.41 C 168.23 147.43 169.50 147.84 170.52 147.31 Z M 171.52 146.77 L 172.28 146.32 C 173.26 145.72 173.57 144.45 172.98 143.47 C 172.38 142.49 171.11 142.18 170.13 142.77 L 169.38 143.23 C 168.40 143.82 168.09 145.10 168.68 146.07 C 169.27 147.05 170.55 147.37 171.52 146.77 Z M 172.35 146.25 L 173.20 145.68 C 174.14 145.04 174.39 143.76 173.76 142.82 C 173.12 141.88 171.84 141.63 170.90 142.27 L 170.05 142.84 C 169.11 143.48 168.86 144.75 169.50 145.69 C 170.13 146.64 171.41 146.88 172.35 146.25 Z M 173.23 145.64 L 174.03 145.07 C 174.96 144.43 175.18 143.15 174.53 142.23 C 173.88 141.31 172.61 141.09 171.69 141.73 L 170.88 142.30 C 169.96 142.95 169.74 144.22 170.38 145.15 C 171.03 146.07 172.30 146.29 173.23 145.64 Z M 174.06 145.03 L 174.89 144.42 C 175.79 143.76 175.98 142.50 175.32 141.60 C 174.66 140.70 173.39 140.50 172.49 141.17 L 171.66 141.77 C 170.76 142.44 170.57 143.70 171.23 144.60 C 171.89 145.50 173.16 145.69 174.06 145.03 Z M 174.94 144.36 L 175.76 143.71 C 176.62 143.02 176.76 141.76 176.08 140.89 C 175.39 140.03 174.13 139.89 173.26 140.58 L 172.44 141.23 C 171.58 141.92 171.44 143.18 172.13 144.04 C 172.82 144.91 174.07 145.05 174.94 144.36 Z M 175.84 143.60 L 176.62 142.89 C 177.42 142.16 177.48 140.91 176.75 140.10 C 176.01 139.30 174.77 139.24 173.96 139.97 L 173.18 140.68 C 172.38 141.41 172.32 142.66 173.05 143.47 C 173.78 144.28 175.03 144.33 175.84 143.60 Z M 176.69 142.77 L 177.34 142.09 C 178.09 141.32 178.06 140.09 177.28 139.35 C 176.51 138.61 175.28 138.63 174.54 139.41 L 173.88 140.09 C 173.14 140.87 173.17 142.10 173.95 142.84 C 174.72 143.58 175.95 143.55 176.69 142.77 Z M 177.42 141.95 L 178.06 141.17 C 178.72 140.35 178.59 139.15 177.78 138.49 C 176.96 137.82 175.76 137.95 175.09 138.77 L 174.46 139.55 C 173.80 140.37 173.92 141.57 174.74 142.23 C 175.56 142.90 176.76 142.77 177.42 141.95 Z M 178.18 140.93 L 178.68 140.10 C 179.21 139.21 178.92 138.06 178.04 137.53 C 177.15 137.00 176.01 137.29 175.47 138.17 L 174.97 139.00 C 174.44 139.89 174.73 141.04 175.61 141.57 C 176.50 142.10 177.65 141.81 178.18 140.93 Z M 178.79 139.80 L 179.15 138.89 C 179.52 137.94 179.05 136.88 178.10 136.51 C 177.16 136.14 176.09 136.60 175.72 137.55 L 175.36 138.46 C 175.00 139.41 175.46 140.48 176.41 140.85 C 177.35 141.21 178.42 140.75 178.79 139.80 Z M 179.18 138.73 L 179.46 137.76 C 179.74 136.80 179.18 135.79 178.22 135.51 C 177.26 135.23 176.25 135.78 175.97 136.75 L 175.69 137.71 C 175.41 138.67 175.96 139.68 176.93 139.96 C 177.89 140.24 178.90 139.69 179.18 138.73 Z"
      fill="black"
      fill-rule="nonzero" /><path d="M 145.22 156.21 L 145.19 157.21 C 145.15 158.30 146.01 159.22 147.11 159.25 C 148.20 159.28 149.12 158.42 149.15 157.33 L 149.18 156.32 C 149.21 155.23 148.35 154.32 147.26 154.28 C 146.16 154.25 145.25 155.11 145.22 156.21 Z M 145.09 157.24 L 145.07 158.24 C 145.06 159.39 145.98 160.33 147.13 160.35 C 148.28 160.36 149.22 159.44 149.24 158.29 L 149.25 157.29 C 149.26 156.14 148.34 155.20 147.19 155.19 C 146.04 155.17 145.10 156.09 145.09 157.24 Z M 145.01 158.31 L 145.03 159.25 C 145.05 160.43 146.03 161.37 147.22 161.35 C 148.40 161.32 149.34 160.34 149.32 159.16 L 149.30 158.22 C 149.28 157.04 148.30 156.10 147.11 156.12 C 145.93 156.14 144.99 157.12 145.01 158.31 Z M 145.01 159.30 L 145.06 160.27 C 145.11 161.46 146.12 162.39 147.31 162.33 C 148.50 162.28 149.43 161.27 149.38 160.08 L 149.33 159.11 C 149.28 157.91 148.27 156.99 147.08 157.04 C 145.89 157.09 144.96 158.10 145.01 159.30 Z M 145.05 160.28 L 145.11 161.35 C 145.16 162.54 146.18 163.46 147.37 163.41 C 148.56 163.35 149.49 162.34 149.43 161.14 L 149.38 160.07 C 149.32 158.88 148.31 157.95 147.11 158.01 C 145.92 158.07 145.00 159.08 145.05 160.28 Z M 145.10 161.33 L 145.14 162.31 C 145.19 163.50 146.20 164.43 147.40 164.38 C 148.59 164.33 149.52 163.32 149.47 162.13 L 149.43 161.16 C 149.38 159.96 148.37 159.03 147.18 159.08 C 145.98 159.13 145.06 160.14 145.10 161.33 Z M 145.14 162.29 L 145.18 163.32 C 145.22 164.52 146.22 165.45 147.42 165.41 C 148.61 165.37 149.55 164.37 149.51 163.17 L 149.47 162.14 C 149.43 160.95 148.43 160.01 147.23 160.06 C 146.04 160.10 145.10 161.10 145.14 162.29 Z M 145.18 163.31 L 145.21 164.32 C 145.24 165.52 146.24 166.46 147.43 166.43 C 148.62 166.39 149.57 165.40 149.53 164.20 L 149.51 163.19 C 149.47 161.99 148.48 161.05 147.28 161.08 C 146.09 161.12 145.15 162.11 145.18 163.31 Z M 145.21 164.30 L 145.23 165.37 C 145.25 166.56 146.23 167.51 147.43 167.49 C 148.62 167.47 149.57 166.49 149.55 165.30 L 149.53 164.23 C 149.51 163.04 148.53 162.09 147.33 162.11 C 146.14 162.13 145.19 163.11 145.21 164.30 Z M 145.24 165.35 L 145.25 166.35 C 145.26 167.53 146.23 168.49 147.41 168.48 C 148.60 168.47 149.55 167.50 149.54 166.32 L 149.53 165.32 C 149.53 164.13 148.56 163.18 147.37 163.19 C 146.19 163.20 145.24 164.16 145.24 165.35 Z M 145.27 166.34 L 145.27 167.27 C 145.27 168.44 146.22 169.40 147.40 169.40 C 148.58 169.39 149.53 168.44 149.53 167.26 L 149.53 166.33 C 149.53 165.15 148.57 164.20 147.39 164.20 C 146.22 164.20 145.26 165.16 145.27 166.34 Z M 145.28 167.26 L 145.28 168.31 C 145.28 169.48 146.23 170.43 147.40 170.43 C 148.57 170.43 149.51 169.48 149.51 168.31 L 149.51 167.26 C 149.51 166.10 148.57 165.15 147.40 165.15 C 146.23 165.15 145.28 166.10 145.28 167.26 Z M 145.30 168.31 L 145.30 169.29 C 145.30 170.45 146.24 171.39 147.40 171.39 C 148.56 171.39 149.50 170.45 149.50 169.29 L 149.50 168.31 C 149.50 167.15 148.56 166.21 147.40 166.21 C 146.24 166.21 145.30 167.15 145.30 168.31 Z M 145.31 169.29 L 145.31 170.29 C 145.31 171.44 146.25 172.38 147.40 172.38 C 148.55 172.38 149.48 171.44 149.48 170.29 L 149.48 169.29 C 149.48 168.14 148.55 167.21 147.40 167.21 C 146.25 167.21 145.31 168.14 145.31 169.29 Z M 145.33 170.29 L 145.33 171.28 C 145.33 172.42 146.25 173.35 147.40 173.35 C 148.54 173.35 149.47 172.42 149.47 171.28 L 149.47 170.29 C 149.47 169.15 148.54 168.22 147.40 168.22 C 146.25 168.22 145.33 169.15 145.33 170.29 Z M 145.35 171.29 L 145.35 172.48 C 145.36 173.61 146.28 174.52 147.41 174.52 C 148.54 174.52 149.45 173.59 149.45 172.46 L 149.45 171.27 C 149.44 170.14 148.52 169.23 147.39 169.23 C 146.26 169.24 145.35 170.16 145.35 171.29 Z M 145.44 172.97 L 145.54 173.34 C 145.81 174.42 146.91 175.07 147.99 174.80 C 149.07 174.53 149.73 173.43 149.45 172.35 L 149.36 171.98 C 149.09 170.90 147.99 170.24 146.91 170.51 C 145.83 170.79 145.17 171.89 145.44 172.97 Z M 149.44 173.27 L 149.65 172.31 C 149.89 171.24 149.21 170.18 148.14 169.94 C 147.07 169.70 146.00 170.38 145.76 171.45 L 145.55 172.41 C 145.31 173.49 145.99 174.55 147.07 174.79 C 148.14 175.03 149.20 174.35 149.44 173.27 Z M 149.63 172.32 L 149.90 171.14 C 150.14 170.08 149.48 169.02 148.42 168.78 C 147.36 168.54 146.30 169.20 146.06 170.27 L 145.79 171.44 C 145.54 172.51 146.21 173.56 147.27 173.81 C 148.33 174.05 149.39 173.38 149.63 172.32 Z M 149.88 171.21 L 150.14 170.22 C 150.42 169.17 149.80 168.09 148.76 167.81 C 147.71 167.53 146.63 168.15 146.35 169.20 L 146.08 170.19 C 145.80 171.24 146.42 172.32 147.47 172.60 C 148.52 172.88 149.59 172.26 149.88 171.21 Z M 150.12 170.27 L 150.40 169.34 C 150.71 168.30 150.13 167.21 149.09 166.90 C 148.05 166.59 146.96 167.18 146.65 168.22 L 146.37 169.15 C 146.06 170.18 146.65 171.28 147.68 171.59 C 148.72 171.90 149.81 171.31 150.12 170.27 Z M 150.38 169.40 L 150.71 168.42 C 151.05 167.40 150.50 166.29 149.47 165.95 C 148.45 165.60 147.34 166.16 147.00 167.18 L 146.67 168.16 C 146.33 169.18 146.88 170.29 147.90 170.63 C 148.93 170.97 150.04 170.42 150.38 169.40 Z M 150.68 168.46 L 151.00 167.57 C 151.37 166.56 150.84 165.44 149.83 165.08 C 148.82 164.72 147.70 165.24 147.34 166.25 L 147.02 167.14 C 146.66 168.15 147.18 169.27 148.19 169.63 C 149.21 170.00 150.32 169.47 150.68 168.46 Z M 150.99 167.59 L 151.34 166.65 C 151.71 165.65 151.20 164.53 150.20 164.16 C 149.20 163.78 148.08 164.29 147.70 165.30 L 147.35 166.23 C 146.98 167.24 147.49 168.35 148.49 168.73 C 149.50 169.10 150.62 168.59 150.99 167.59 Z M 151.31 166.71 L 151.69 165.79 C 152.10 164.80 151.63 163.66 150.64 163.26 C 149.65 162.85 148.52 163.32 148.11 164.31 L 147.73 165.24 C 147.32 166.23 147.79 167.36 148.78 167.77 C 149.77 168.17 150.91 167.70 151.31 166.71 Z M 151.67 165.84 L 152.08 164.93 C 152.51 163.95 152.07 162.81 151.10 162.37 C 150.12 161.93 148.98 162.37 148.54 163.35 L 148.13 164.26 C 147.70 165.24 148.14 166.38 149.11 166.82 C 150.09 167.25 151.23 166.82 151.67 165.84 Z M 152.05 164.97 L 152.49 164.07 C 152.95 163.11 152.54 161.95 151.57 161.49 C 150.61 161.03 149.46 161.44 148.99 162.40 L 148.56 163.30 C 148.10 164.27 148.51 165.42 149.47 165.88 C 150.44 166.34 151.59 165.94 152.05 164.97 Z M 152.45 164.14 L 152.87 163.34 C 153.37 162.39 153.01 161.22 152.07 160.72 C 151.12 160.22 149.95 160.59 149.45 161.53 L 149.03 162.33 C 148.53 163.28 148.89 164.45 149.84 164.95 C 150.78 165.45 151.95 165.08 152.45 164.14 Z M 152.82 163.43 L 153.38 162.50 C 153.93 161.58 153.63 160.39 152.72 159.84 C 151.80 159.29 150.61 159.59 150.06 160.51 L 149.50 161.44 C 148.95 162.36 149.25 163.55 150.17 164.10 C 151.09 164.65 152.28 164.35 152.82 163.43 Z M 153.35 162.56 L 153.86 161.78 C 154.44 160.88 154.19 159.68 153.29 159.09 C 152.39 158.51 151.19 158.76 150.60 159.66 L 150.09 160.44 C 149.51 161.34 149.76 162.54 150.66 163.13 C 151.56 163.71 152.76 163.46 153.35 162.56 Z M 153.82 161.84 L 154.42 160.99 C 155.04 160.11 154.83 158.90 153.95 158.28 C 153.06 157.66 151.85 157.87 151.23 158.75 L 150.64 159.60 C 150.02 160.48 150.23 161.70 151.11 162.31 C 151.99 162.93 153.20 162.72 153.82 161.84 Z M 154.36 161.08 L 155.02 160.25 C 155.68 159.40 155.53 158.17 154.68 157.50 C 153.84 156.84 152.61 156.98 151.94 157.83 L 151.29 158.66 C 150.62 159.51 150.77 160.74 151.62 161.41 C 152.47 162.07 153.70 161.93 154.36 161.08 Z M 154.93 160.36 L 155.62 159.60 C 156.35 158.80 156.30 157.56 155.49 156.83 C 154.69 156.10 153.45 156.15 152.72 156.96 L 152.03 157.72 C 151.30 158.52 151.35 159.76 152.15 160.49 C 152.96 161.22 154.20 161.16 154.93 160.36 Z M 155.51 159.73 L 156.23 159.07 C 157.03 158.33 157.07 157.08 156.33 156.28 C 155.59 155.48 154.34 155.43 153.54 156.17 L 152.83 156.83 C 152.03 157.57 151.98 158.82 152.72 159.62 C 153.46 160.42 154.71 160.47 155.51 159.73 Z M 156.09 159.20 L 156.89 158.59 C 157.76 157.92 157.93 156.68 157.26 155.81 C 156.60 154.93 155.35 154.77 154.48 155.43 L 153.68 156.04 C 152.81 156.71 152.64 157.95 153.30 158.82 C 153.97 159.69 155.21 159.86 156.09 159.20 Z M 156.70 158.72 L 157.56 158.22 C 158.51 157.66 158.82 156.43 158.26 155.48 C 157.70 154.54 156.48 154.22 155.53 154.78 L 154.67 155.29 C 153.72 155.85 153.41 157.08 153.97 158.02 C 154.53 158.97 155.75 159.29 156.70 158.72 Z M 157.31 158.35 L 158.23 157.97 C 159.25 157.55 159.74 156.38 159.32 155.36 C 158.90 154.33 157.72 153.84 156.70 154.27 L 155.78 154.65 C 154.76 155.07 154.27 156.24 154.69 157.26 C 155.11 158.29 156.29 158.78 157.31 158.35 Z M 157.92 158.09 L 158.91 157.86 C 160.00 157.60 160.68 156.52 160.42 155.43 C 160.17 154.34 159.08 153.67 158.00 153.92 L 157.01 154.15 C 155.92 154.40 155.24 155.49 155.50 156.58 C 155.75 157.67 156.84 158.34 157.92 158.09 Z M 158.56 157.93 L 159.53 157.88 C 160.66 157.83 161.53 156.87 161.47 155.74 C 161.42 154.61 160.46 153.75 159.33 153.80 L 158.35 153.85 C 157.23 153.91 156.36 154.86 156.41 155.99 C 156.47 157.12 157.43 157.98 158.56 157.93 Z M 158.88 157.83 L 159.81 158.09 C 160.91 158.40 162.05 157.75 162.36 156.66 C 162.66 155.56 162.02 154.42 160.92 154.11 L 159.98 153.85 C 158.89 153.54 157.75 154.19 157.44 155.29 C 157.13 156.39 157.78 157.53 158.88 157.83 Z M 158.97 157.66 L 159.65 158.26 C 160.51 159.03 161.83 158.96 162.60 158.10 C 163.37 157.24 163.30 155.92 162.44 155.15 L 161.76 154.54 C 160.90 153.77 159.58 153.85 158.81 154.71 C 158.04 155.57 158.11 156.89 158.97 157.66 Z M 159.26 157.82 L 159.81 158.71 C 160.42 159.69 161.72 160.00 162.71 159.38 C 163.70 158.77 164.00 157.47 163.38 156.48 L 162.83 155.59 C 162.22 154.61 160.92 154.31 159.93 154.92 C 158.94 155.54 158.64 156.83 159.26 157.82 Z M 159.66 158.45 L 160.06 159.36 C 160.53 160.43 161.78 160.92 162.85 160.44 C 163.92 159.97 164.41 158.72 163.93 157.65 L 163.53 156.74 C 163.06 155.67 161.81 155.19 160.74 155.66 C 159.67 156.13 159.19 157.38 159.66 158.45 Z M 159.98 159.18 L 160.30 160.13 C 160.67 161.25 161.87 161.85 162.99 161.48 C 164.10 161.11 164.70 159.90 164.33 158.79 L 164.01 157.83 C 163.64 156.72 162.44 156.12 161.33 156.49 C 160.21 156.86 159.61 158.07 159.98 159.18 Z M 160.24 159.96 L 160.48 160.96 C 160.76 162.10 161.91 162.81 163.05 162.53 C 164.20 162.26 164.90 161.11 164.63 159.96 L 164.39 158.96 C 164.11 157.82 162.96 157.11 161.82 157.39 C 160.67 157.66 159.97 158.82 160.24 159.96 Z M 160.45 160.79 L 160.60 161.77 C 160.78 162.93 161.88 163.73 163.04 163.54 C 164.21 163.36 165.00 162.27 164.82 161.10 L 164.66 160.13 C 164.48 158.96 163.39 158.17 162.22 158.35 C 161.06 158.54 160.26 159.63 160.45 160.79 Z M 160.58 161.65 L 160.68 162.65 C 160.80 163.82 161.84 164.68 163.02 164.56 C 164.19 164.45 165.05 163.40 164.93 162.23 L 164.84 161.23 C 164.72 160.05 163.67 159.19 162.50 159.31 C 161.33 159.42 160.47 160.47 160.58 161.65 Z M 160.67 162.57 L 160.73 163.54 C 160.81 164.71 161.82 165.61 163.00 165.54 C 164.18 165.46 165.07 164.45 165.00 163.27 L 164.94 162.30 C 164.87 161.13 163.85 160.23 162.68 160.30 C 161.50 160.38 160.60 161.39 160.67 162.57 Z M 160.73 163.49 L 160.77 164.43 C 160.82 165.61 161.81 166.53 162.99 166.49 C 164.17 166.44 165.09 165.45 165.04 164.27 L 165.00 163.32 C 164.96 162.14 163.96 161.22 162.78 161.27 C 161.60 161.31 160.69 162.31 160.73 163.49 Z M 160.77 164.40 L 160.79 165.42 C 160.82 166.60 161.80 167.54 162.98 167.51 C 164.16 167.49 165.09 166.51 165.07 165.33 L 165.04 164.30 C 165.02 163.12 164.04 162.19 162.86 162.21 C 161.68 162.24 160.74 163.22 160.77 164.40 Z M 160.79 165.40 L 160.81 166.46 C 160.82 167.64 161.79 168.58 162.97 168.57 C 164.15 168.56 165.09 167.59 165.08 166.41 L 165.06 165.35 C 165.05 164.17 164.08 163.23 162.90 163.24 C 161.72 163.25 160.78 164.22 160.79 165.40 Z M 160.81 166.45 L 160.82 167.46 C 160.82 168.64 161.78 169.59 162.96 169.58 C 164.13 169.57 165.08 168.62 165.07 167.44 L 165.07 166.42 C 165.06 165.25 164.11 164.30 162.93 164.31 C 161.75 164.31 160.81 165.27 160.81 166.45 Z M 160.83 167.45 L 160.83 168.48 C 160.83 169.65 161.78 170.60 162.95 170.60 C 164.12 170.60 165.06 169.65 165.07 168.48 L 165.07 167.45 C 165.07 166.28 164.12 165.33 162.95 165.33 C 161.78 165.33 160.83 166.28 160.83 167.45 Z M 160.84 168.47 L 160.83 169.46 C 160.82 170.62 161.76 171.57 162.93 171.58 C 164.09 171.59 165.04 170.65 165.05 169.48 L 165.06 168.50 C 165.06 167.33 164.12 166.38 162.96 166.37 C 161.79 166.37 160.84 167.31 160.84 168.47 Z M 160.85 169.44 L 160.83 170.53 C 160.82 171.68 161.74 172.63 162.90 172.65 C 164.05 172.66 165.00 171.74 165.02 170.58 L 165.03 169.50 C 165.05 168.34 164.13 167.39 162.97 167.38 C 161.81 167.36 160.86 168.28 160.85 169.44 Z M 160.86 170.49 L 160.83 171.50 C 160.79 172.63 161.68 173.59 162.82 173.63 C 163.96 173.67 164.91 172.77 164.95 171.64 L 164.99 170.63 C 165.03 169.49 164.13 168.53 163.00 168.49 C 161.86 168.45 160.90 169.35 160.86 170.49 Z M 160.87 171.42 L 160.80 172.30 C 160.72 173.42 161.56 174.39 162.68 174.47 C 163.80 174.55 164.77 173.71 164.85 172.60 L 164.92 171.71 C 165.00 170.60 164.16 169.62 163.04 169.54 C 161.92 169.46 160.95 170.30 160.87 171.42 Z M 160.85 172.19 L 160.71 173.22 C 160.57 174.31 161.34 175.31 162.43 175.46 C 163.52 175.60 164.53 174.83 164.67 173.74 L 164.81 172.71 C 164.95 171.62 164.18 170.61 163.09 170.47 C 161.99 170.33 160.99 171.09 160.85 172.19 Z M 160.76 173.13 L 160.59 174.08 C 160.40 175.15 161.11 176.17 162.18 176.36 C 163.24 176.55 164.26 175.84 164.45 174.77 L 164.62 173.82 C 164.81 172.76 164.10 171.74 163.03 171.55 C 161.97 171.36 160.95 172.07 160.76 173.13 Z M 160.64 174.05 L 160.43 175.05 C 160.22 176.09 160.89 177.11 161.93 177.32 C 162.98 177.53 163.99 176.86 164.20 175.82 L 164.41 174.81 C 164.62 173.77 163.95 172.75 162.90 172.54 C 161.86 172.33 160.85 173.00 160.64 174.05 Z M 160.53 174.85 L 160.23 175.76 C 159.90 176.75 160.44 177.81 161.43 178.14 C 162.42 178.46 163.48 177.92 163.81 176.94 L 164.11 176.02 C 164.43 175.03 163.89 173.97 162.90 173.65 C 161.92 173.32 160.85 173.86 160.53 174.85 Z M 160.43 175.41 L 159.92 176.26 C 159.40 177.14 159.69 178.28 160.57 178.80 C 161.44 179.32 162.58 179.03 163.10 178.15 L 163.61 177.29 C 164.13 176.41 163.84 175.28 162.96 174.76 C 162.08 174.24 160.95 174.53 160.43 175.41 Z M 160.03 176.14 L 159.76 176.51 C 159.16 177.33 159.35 178.47 160.16 179.06 C 160.98 179.66 162.12 179.47 162.72 178.65 L 162.99 178.28 C 163.58 177.46 163.40 176.32 162.58 175.73 C 161.76 175.14 160.62 175.32 160.03 176.14 Z"
      fill="black"
      fill-rule="nonzero" /><path d="M 147.85 171.48 L 148.79 171.24 C 149.90 170.95 150.57 169.81 150.28 168.69 C 149.99 167.57 148.85 166.90 147.73 167.20 L 146.79 167.44 C 145.68 167.73 145.01 168.88 145.30 169.99 C 145.59 171.11 146.74 171.78 147.85 171.48 Z M 148.89 171.31 L 149.87 171.01 C 151.02 170.66 151.67 169.44 151.32 168.29 C 150.97 167.13 149.75 166.48 148.60 166.83 L 147.62 167.13 C 146.47 167.48 145.82 168.70 146.17 169.85 C 146.52 171.01 147.74 171.66 148.89 171.31 Z M 150.01 171.02 L 150.92 170.68 C 152.08 170.25 152.67 168.97 152.25 167.81 C 151.82 166.65 150.53 166.06 149.37 166.49 L 148.46 166.83 C 147.30 167.25 146.71 168.54 147.14 169.70 C 147.56 170.86 148.85 171.45 150.01 171.02 Z M 151.01 170.65 L 151.94 170.27 C 153.08 169.79 153.62 168.49 153.15 167.34 C 152.68 166.20 151.37 165.66 150.22 166.13 L 149.29 166.51 C 148.15 166.99 147.61 168.30 148.08 169.44 C 148.55 170.58 149.86 171.13 151.01 170.65 Z M 151.96 170.25 L 152.89 169.85 C 154.02 169.36 154.55 168.05 154.06 166.92 C 153.58 165.79 152.26 165.26 151.13 165.75 L 150.20 166.15 C 149.07 166.63 148.54 167.95 149.03 169.08 C 149.52 170.21 150.83 170.73 151.96 170.25 Z M 152.88 169.83 L 153.75 169.46 C 154.87 168.99 155.40 167.69 154.92 166.56 C 154.44 165.44 153.14 164.91 152.02 165.39 L 151.15 165.76 C 150.02 166.24 149.50 167.54 149.98 168.66 C 150.45 169.79 151.75 170.31 152.88 169.83 Z M 153.72 169.45 L 154.65 169.06 C 155.77 168.60 156.29 167.32 155.83 166.20 C 155.37 165.09 154.09 164.56 152.97 165.02 L 152.04 165.41 C 150.93 165.87 150.40 167.15 150.86 168.27 C 151.33 169.38 152.60 169.91 153.72 169.45 Z M 154.62 169.04 L 155.60 168.65 C 156.71 168.20 157.24 166.95 156.80 165.84 C 156.35 164.73 155.09 164.20 153.99 164.64 L 153.00 165.04 C 151.90 165.49 151.36 166.74 151.81 167.85 C 152.25 168.96 153.51 169.49 154.62 169.04 Z M 155.57 168.62 L 156.53 168.25 C 157.62 167.82 158.16 166.59 157.73 165.50 C 157.30 164.41 156.07 163.87 154.98 164.29 L 154.02 164.67 C 152.93 165.10 152.39 166.33 152.82 167.42 C 153.24 168.51 154.48 169.05 155.57 168.62 Z M 156.49 168.22 L 157.45 167.85 C 158.53 167.45 159.07 166.24 158.66 165.17 C 158.26 164.09 157.05 163.55 155.98 163.96 L 155.01 164.32 C 153.94 164.73 153.40 165.93 153.80 167.01 C 154.21 168.09 155.42 168.63 156.49 168.22 Z M 157.42 167.83 L 158.31 167.50 C 159.37 167.11 159.92 165.94 159.53 164.88 C 159.14 163.82 157.97 163.27 156.91 163.66 L 156.01 163.99 C 154.95 164.37 154.41 165.55 154.80 166.61 C 155.18 167.67 156.36 168.21 157.42 167.83 Z M 158.24 167.46 L 159.30 167.11 C 160.34 166.76 160.90 165.63 160.55 164.59 C 160.20 163.55 159.07 162.99 158.03 163.34 L 156.97 163.70 C 155.93 164.05 155.37 165.17 155.73 166.21 C 156.08 167.26 157.20 167.81 158.24 167.46 Z M 159.18 167.07 L 160.08 166.82 C 161.10 166.53 161.69 165.47 161.41 164.45 C 161.12 163.44 160.06 162.84 159.05 163.13 L 158.15 163.38 C 157.13 163.67 156.53 164.72 156.82 165.74 C 157.11 166.76 158.16 167.35 159.18 167.07 Z M 159.94 166.79 L 160.87 166.60 C 161.87 166.39 162.52 165.41 162.31 164.41 C 162.11 163.40 161.12 162.76 160.12 162.96 L 159.19 163.15 C 158.19 163.36 157.54 164.34 157.75 165.35 C 157.95 166.35 158.93 167.00 159.94 166.79 Z M 160.76 166.58 L 161.75 166.44 C 162.74 166.29 163.43 165.37 163.28 164.37 C 163.14 163.38 162.21 162.69 161.21 162.83 L 160.23 162.98 C 159.23 163.13 158.54 164.05 158.69 165.05 C 158.84 166.04 159.76 166.73 160.76 166.58 Z M 161.71 166.43 L 162.12 166.37 C 163.11 166.25 163.80 165.34 163.68 164.35 C 163.55 163.36 162.65 162.67 161.66 162.79 L 161.25 162.85 C 160.26 162.97 159.56 163.88 159.69 164.87 C 159.82 165.86 160.72 166.55 161.71 166.43 Z"
      fill="black"
      fill-rule="nonzero" /><path d="M 147.75 178.51 L 148.62 178.16 C 149.64 177.74 150.13 176.58 149.71 175.56 C 149.29 174.53 148.12 174.05 147.10 174.46 L 146.24 174.82 C 145.22 175.23 144.73 176.40 145.15 177.42 C 145.57 178.44 146.73 178.93 147.75 178.51 Z M 148.66 178.19 L 149.58 177.80 C 150.62 177.36 151.10 176.16 150.66 175.12 C 150.22 174.09 149.02 173.60 147.98 174.04 L 147.06 174.43 C 146.02 174.87 145.54 176.07 145.98 177.11 C 146.42 178.15 147.62 178.63 148.66 178.19 Z M 149.63 177.82 L 150.59 177.39 C 151.64 176.92 152.10 175.69 151.64 174.64 C 151.17 173.60 149.94 173.13 148.89 173.60 L 147.93 174.03 C 146.88 174.50 146.41 175.73 146.88 176.77 C 147.35 177.82 148.58 178.29 149.63 177.82 Z M 150.62 177.37 L 151.52 176.94 C 152.56 176.46 153.01 175.23 152.52 174.19 C 152.04 173.16 150.81 172.71 149.77 173.19 L 148.86 173.62 C 147.83 174.10 147.38 175.33 147.86 176.37 C 148.35 177.40 149.58 177.85 150.62 177.37 Z M 151.52 176.91 L 152.45 176.47 C 153.46 175.99 153.90 174.78 153.42 173.76 C 152.94 172.74 151.72 172.31 150.71 172.79 L 149.78 173.23 C 148.76 173.71 148.32 174.92 148.80 175.94 C 149.28 176.96 150.50 177.39 151.52 176.91 Z M 152.42 176.45 L 153.32 176.03 C 154.32 175.56 154.76 174.37 154.29 173.36 C 153.82 172.36 152.63 171.93 151.63 172.39 L 150.73 172.81 C 149.73 173.28 149.29 174.47 149.76 175.48 C 150.23 176.48 151.42 176.91 152.42 176.45 Z M 153.27 176.01 L 154.27 175.56 C 155.26 175.12 155.70 173.96 155.26 172.97 C 154.82 171.98 153.66 171.53 152.67 171.97 L 151.67 172.42 C 150.68 172.86 150.24 174.02 150.68 175.01 C 151.12 176.00 152.28 176.45 153.27 176.01 Z M 154.20 175.54 L 155.11 175.16 C 156.08 174.76 156.55 173.64 156.14 172.66 C 155.74 171.68 154.62 171.22 153.64 171.62 L 152.74 172.00 C 151.76 172.40 151.29 173.52 151.70 174.50 C 152.10 175.48 153.22 175.94 154.20 175.54 Z M 155.03 175.14 L 155.92 174.81 C 156.88 174.45 157.37 173.37 157.00 172.40 C 156.64 171.43 155.56 170.95 154.59 171.31 L 153.71 171.64 C 152.74 172.01 152.26 173.09 152.62 174.05 C 152.99 175.02 154.07 175.51 155.03 175.14 Z M 155.83 174.81 L 156.79 174.49 C 157.76 174.18 158.28 173.13 157.96 172.17 C 157.65 171.20 156.60 170.68 155.64 171.00 L 154.68 171.31 C 153.71 171.63 153.19 172.67 153.50 173.64 C 153.82 174.60 154.86 175.13 155.83 174.81 Z M 156.67 174.51 L 157.62 174.27 C 158.59 174.01 159.18 173.02 158.92 172.04 C 158.67 171.07 157.68 170.48 156.70 170.73 L 155.76 170.98 C 154.78 171.23 154.20 172.23 154.45 173.20 C 154.70 174.18 155.70 174.76 156.67 174.51 Z M 157.48 174.28 L 158.47 174.10 C 159.45 173.92 160.10 172.98 159.92 172.00 C 159.75 171.01 158.80 170.36 157.82 170.54 L 156.84 170.72 C 155.85 170.90 155.20 171.84 155.38 172.82 C 155.56 173.81 156.50 174.46 157.48 174.28 Z M 158.38 174.11 L 159.37 173.98 C 160.36 173.84 161.06 172.93 160.92 171.95 C 160.79 170.96 159.88 170.27 158.89 170.40 L 157.90 170.53 C 156.91 170.67 156.22 171.57 156.35 172.56 C 156.49 173.55 157.40 174.24 158.38 174.11 Z M 159.36 173.97 L 159.54 173.95 C 160.53 173.83 161.23 172.93 161.11 171.94 C 160.99 170.96 160.09 170.25 159.10 170.38 L 158.91 170.40 C 157.92 170.52 157.22 171.42 157.35 172.41 C 157.47 173.40 158.37 174.10 159.36 173.97 Z"
      fill="black"
      fill-rule="nonzero" /><path d="M 145.88 187.10 L 146.79 186.94 C 147.82 186.76 148.51 185.77 148.32 184.74 C 148.14 183.71 147.16 183.02 146.13 183.21 L 145.21 183.37 C 144.18 183.55 143.50 184.54 143.68 185.57 C 143.86 186.60 144.85 187.29 145.88 187.10 Z M 146.95 186.92 L 147.96 186.65 C 148.98 186.38 149.59 185.34 149.32 184.31 C 149.05 183.29 148.00 182.69 146.98 182.96 L 145.97 183.22 C 144.95 183.50 144.34 184.54 144.61 185.56 C 144.88 186.58 145.93 187.19 146.95 186.92 Z M 148.09 186.62 L 149.02 186.30 C 150.02 185.96 150.56 184.87 150.22 183.87 C 149.87 182.87 148.78 182.33 147.78 182.67 L 146.85 182.99 C 145.85 183.33 145.32 184.42 145.66 185.42 C 146.00 186.43 147.09 186.96 148.09 186.62 Z M 149.05 186.29 L 150.03 185.93 C 151.02 185.58 151.53 184.48 151.18 183.49 C 150.82 182.49 149.72 181.98 148.73 182.34 L 147.75 182.69 C 146.76 183.05 146.24 184.14 146.60 185.14 C 146.96 186.13 148.06 186.65 149.05 186.29 Z M 150.00 185.94 L 150.95 185.61 C 151.95 185.27 152.48 184.18 152.13 183.19 C 151.79 182.19 150.70 181.66 149.71 182.00 L 148.75 182.33 C 147.76 182.67 147.23 183.76 147.57 184.76 C 147.91 185.75 149.00 186.28 150.00 185.94 Z M 150.88 185.64 L 151.82 185.35 C 152.83 185.05 153.40 183.99 153.10 182.98 C 152.80 181.97 151.73 181.40 150.72 181.70 L 149.78 181.98 C 148.77 182.28 148.20 183.34 148.50 184.35 C 148.80 185.36 149.87 185.94 150.88 185.64 Z M 151.72 185.38 L 152.70 185.15 C 153.72 184.90 154.35 183.87 154.11 182.84 C 153.86 181.82 152.83 181.19 151.81 181.44 L 150.83 181.67 C 149.80 181.92 149.17 182.95 149.42 183.97 C 149.66 185.00 150.69 185.63 151.72 185.38 Z M 152.60 185.17 L 153.60 184.99 C 154.64 184.80 155.33 183.80 155.14 182.76 C 154.95 181.72 153.95 181.04 152.91 181.23 L 151.91 181.41 C 150.87 181.60 150.18 182.59 150.37 183.63 C 150.56 184.67 151.56 185.36 152.60 185.17 Z M 153.48 185.02 L 154.47 184.90 C 155.53 184.77 156.28 183.81 156.16 182.76 C 156.03 181.71 155.07 180.95 154.02 181.08 L 153.02 181.20 C 151.97 181.32 151.22 182.28 151.34 183.34 C 151.47 184.39 152.43 185.14 153.48 185.02 Z M 154.27 184.93 L 155.38 184.92 C 156.46 184.91 157.32 184.02 157.30 182.95 C 157.29 181.87 156.41 181.02 155.33 181.03 L 154.22 181.04 C 153.15 181.06 152.29 181.94 152.30 183.01 C 152.32 184.09 153.20 184.95 154.27 184.93 Z M 154.82 184.89 L 155.70 185.13 C 156.75 185.43 157.85 184.81 158.15 183.76 C 158.44 182.70 157.83 181.60 156.77 181.31 L 155.89 181.06 C 154.84 180.76 153.74 181.38 153.44 182.44 C 153.15 183.49 153.76 184.59 154.82 184.89 Z M 154.47 184.22 L 154.91 184.98 C 155.46 185.95 156.69 186.29 157.66 185.74 C 158.63 185.19 158.97 183.95 158.42 182.98 L 157.99 182.22 C 157.44 181.25 156.20 180.91 155.23 181.46 C 154.26 182.01 153.92 183.25 154.47 184.22 Z M 154.63 183.75 L 154.52 184.75 C 154.39 185.87 155.19 186.89 156.31 187.02 C 157.43 187.15 158.45 186.34 158.58 185.22 L 158.69 184.21 C 158.82 183.09 158.02 182.08 156.90 181.95 C 155.78 181.82 154.76 182.62 154.63 183.75 Z M 154.68 184.14 L 154.27 185.03 C 153.81 186.06 154.26 187.28 155.30 187.75 C 156.33 188.22 157.55 187.76 158.02 186.72 L 158.42 185.84 C 158.89 184.80 158.43 183.59 157.40 183.12 C 156.36 182.65 155.14 183.11 154.68 184.14 Z M 154.43 184.73 L 153.88 185.55 C 153.25 186.50 153.50 187.78 154.45 188.41 C 155.39 189.05 156.67 188.79 157.31 187.85 L 157.86 187.02 C 158.49 186.08 158.24 184.80 157.29 184.16 C 156.35 183.53 155.07 183.78 154.43 184.73 Z M 153.97 185.42 L 153.36 186.20 C 152.66 187.10 152.81 188.39 153.71 189.10 C 154.60 189.80 155.90 189.65 156.61 188.75 L 157.22 187.98 C 157.92 187.08 157.77 185.78 156.87 185.08 C 155.97 184.37 154.67 184.53 153.97 185.42 Z M 153.41 186.13 L 152.73 186.93 C 151.99 187.79 152.09 189.10 152.95 189.84 C 153.82 190.59 155.13 190.49 155.87 189.62 L 156.55 188.82 C 157.30 187.95 157.20 186.65 156.33 185.91 C 155.46 185.16 154.16 185.26 153.41 186.13 Z M 152.77 186.89 L 152.11 187.61 C 151.34 188.46 151.41 189.77 152.25 190.53 C 153.10 191.30 154.41 191.24 155.17 190.39 L 155.83 189.66 C 156.60 188.81 156.53 187.51 155.69 186.74 C 154.84 185.97 153.53 186.04 152.77 186.89 Z M 152.15 187.57 L 151.44 188.31 C 150.65 189.13 150.68 190.44 151.51 191.23 C 152.34 192.02 153.65 191.99 154.43 191.16 L 155.14 190.43 C 155.93 189.60 155.90 188.29 155.07 187.51 C 154.24 186.72 152.93 186.75 152.15 187.57 Z M 151.49 188.26 L 150.77 188.97 C 149.96 189.77 149.95 191.08 150.75 191.89 C 151.55 192.71 152.86 192.72 153.67 191.92 L 154.39 191.21 C 155.20 190.41 155.21 189.10 154.41 188.29 C 153.61 187.47 152.30 187.46 151.49 188.26 Z M 150.81 188.93 L 150.09 189.60 C 149.25 190.38 149.20 191.69 149.98 192.53 C 150.75 193.36 152.06 193.41 152.90 192.63 L 153.63 191.96 C 154.46 191.18 154.51 189.87 153.74 189.04 C 152.96 188.20 151.65 188.15 150.81 188.93 Z M 150.12 189.58 L 149.37 190.25 C 148.51 191.01 148.44 192.31 149.20 193.17 C 149.96 194.02 151.27 194.09 152.12 193.33 L 152.87 192.66 C 153.72 191.90 153.80 190.59 153.03 189.74 C 152.27 188.89 150.97 188.82 150.12 189.58 Z M 149.38 190.23 L 148.67 190.86 C 147.81 191.61 147.72 192.91 148.48 193.77 C 149.23 194.63 150.53 194.72 151.39 193.97 L 152.10 193.34 C 152.96 192.59 153.05 191.29 152.30 190.43 C 151.55 189.57 150.24 189.48 149.38 190.23 Z M 148.69 190.84 L 147.96 191.47 C 147.09 192.21 146.99 193.51 147.74 194.38 C 148.48 195.24 149.78 195.34 150.65 194.60 L 151.38 193.98 C 152.24 193.24 152.34 191.93 151.60 191.07 C 150.86 190.20 149.55 190.10 148.69 190.84 Z M 147.98 191.45 L 147.18 192.12 C 146.31 192.86 146.19 194.16 146.92 195.03 C 147.65 195.90 148.95 196.02 149.83 195.29 L 150.63 194.62 C 151.50 193.89 151.62 192.58 150.88 191.71 C 150.15 190.84 148.85 190.72 147.98 191.45 Z M 147.20 192.11 L 146.39 192.77 C 145.51 193.49 145.38 194.79 146.10 195.67 C 146.81 196.55 148.11 196.68 148.99 195.96 L 149.80 195.30 C 150.69 194.58 150.82 193.28 150.10 192.40 C 149.38 191.52 148.08 191.39 147.20 192.11 Z M 146.41 192.77 L 145.60 193.41 C 144.72 194.12 144.57 195.41 145.28 196.29 C 145.99 197.18 147.28 197.32 148.17 196.61 L 148.97 195.97 C 149.86 195.26 150.00 193.97 149.29 193.09 C 148.59 192.20 147.29 192.06 146.41 192.77 Z M 145.62 193.40 L 144.81 194.04 C 143.92 194.74 143.77 196.02 144.47 196.91 C 145.16 197.80 146.45 197.96 147.34 197.26 L 148.15 196.62 C 149.04 195.92 149.20 194.64 148.50 193.75 C 147.80 192.86 146.51 192.70 145.62 193.40 Z M 144.83 194.03 L 144.06 194.62 C 143.17 195.31 143.00 196.59 143.69 197.49 C 144.38 198.38 145.66 198.55 146.55 197.86 L 147.32 197.27 C 148.22 196.58 148.38 195.30 147.69 194.40 C 147.01 193.51 145.72 193.34 144.83 194.03 Z M 144.09 194.62 L 143.20 195.28 C 142.31 195.95 142.12 197.22 142.79 198.12 C 143.46 199.02 144.73 199.20 145.63 198.53 L 146.52 197.87 C 147.42 197.20 147.60 195.93 146.93 195.03 C 146.26 194.13 144.99 193.95 144.09 194.62 Z M 143.26 195.27 L 142.45 195.84 C 141.55 196.48 141.33 197.73 141.97 198.63 C 142.61 199.54 143.86 199.75 144.76 199.11 L 145.57 198.54 C 146.47 197.90 146.69 196.65 146.05 195.75 C 145.41 194.85 144.16 194.63 143.26 195.27 Z M 142.53 195.82 L 141.79 196.30 C 140.88 196.90 140.62 198.12 141.21 199.03 C 141.80 199.94 143.03 200.20 143.94 199.61 L 144.68 199.13 C 145.59 198.54 145.85 197.32 145.26 196.41 C 144.67 195.49 143.44 195.23 142.53 195.82 Z M 141.90 196.27 L 141.01 196.78 C 140.08 197.32 139.75 198.50 140.29 199.43 C 140.82 200.36 142.00 200.69 142.93 200.15 L 143.83 199.64 C 144.76 199.11 145.08 197.93 144.55 196.99 C 144.02 196.06 142.83 195.74 141.90 196.27 Z M 141.16 196.74 L 140.29 197.15 C 139.33 197.60 138.92 198.73 139.37 199.69 C 139.82 200.64 140.95 201.05 141.91 200.61 L 142.78 200.20 C 143.74 199.75 144.15 198.61 143.70 197.66 C 143.25 196.70 142.12 196.29 141.16 196.74 Z M 140.45 197.12 L 139.51 197.47 C 138.54 197.82 138.04 198.90 138.40 199.87 C 138.76 200.84 139.83 201.34 140.80 200.98 L 141.74 200.63 C 142.71 200.28 143.21 199.20 142.86 198.23 C 142.50 197.26 141.42 196.77 140.45 197.12 Z M 139.60 197.48 L 138.92 197.70 C 137.95 198.01 137.42 199.04 137.73 200.00 C 138.04 200.97 139.07 201.50 140.04 201.19 L 140.72 200.97 C 141.68 200.66 142.21 199.63 141.90 198.66 C 141.59 197.70 140.56 197.17 139.60 197.48 Z"
      fill="black"
      fill-rule="nonzero" /><path d="M 156.80 188.49 L 157.67 188.92 C 158.62 189.40 159.78 189.02 160.26 188.07 C 160.73 187.12 160.35 185.96 159.40 185.48 L 158.54 185.05 C 157.59 184.57 156.43 184.95 155.95 185.90 C 155.47 186.85 155.86 188.01 156.80 188.49 Z M 157.62 188.90 L 158.51 189.39 C 159.45 189.90 160.62 189.55 161.13 188.61 C 161.64 187.67 161.29 186.50 160.35 185.99 L 159.46 185.50 C 158.52 185.00 157.35 185.35 156.84 186.28 C 156.33 187.22 156.68 188.40 157.62 188.90 Z M 158.46 189.39 L 159.33 189.89 C 160.27 190.43 161.47 190.10 162.01 189.16 C 162.54 188.22 162.22 187.03 161.28 186.49 L 160.41 185.99 C 159.47 185.45 158.27 185.78 157.73 186.71 C 157.20 187.65 157.52 188.85 158.46 189.39 Z M 159.34 189.93 L 160.22 190.43 C 161.18 190.96 162.40 190.61 162.94 189.65 C 163.47 188.69 163.13 187.47 162.16 186.93 L 161.28 186.44 C 160.31 185.91 159.10 186.25 158.56 187.22 C 158.02 188.18 158.37 189.40 159.34 189.93 Z M 160.23 190.48 L 161.11 190.95 C 162.11 191.47 163.34 191.09 163.87 190.10 C 164.40 189.10 164.02 187.87 163.02 187.34 L 162.14 186.88 C 161.15 186.35 159.91 186.73 159.39 187.72 C 158.86 188.72 159.24 189.96 160.23 190.48 Z M 161.06 190.96 L 161.91 191.43 C 162.91 191.99 164.18 191.63 164.73 190.63 C 165.29 189.62 164.93 188.36 163.93 187.80 L 163.08 187.33 C 162.07 186.77 160.81 187.13 160.25 188.13 C 159.69 189.14 160.05 190.40 161.06 190.96 Z M 161.84 191.42 L 162.70 191.93 C 163.69 192.53 164.98 192.20 165.57 191.21 C 166.17 190.21 165.85 188.93 164.85 188.33 L 164.00 187.82 C 163.00 187.22 161.71 187.54 161.12 188.54 C 160.52 189.53 160.85 190.82 161.84 191.42 Z M 162.66 191.92 L 163.54 192.47 C 164.53 193.09 165.83 192.79 166.45 191.80 C 167.06 190.81 166.76 189.51 165.77 188.89 L 164.89 188.34 C 163.90 187.72 162.60 188.02 161.98 189.01 C 161.37 190.00 161.67 191.30 162.66 191.92 Z M 163.52 192.47 L 164.38 193.02 C 165.37 193.65 166.68 193.36 167.31 192.37 C 167.94 191.38 167.65 190.07 166.66 189.44 L 165.80 188.89 C 164.81 188.26 163.50 188.55 162.87 189.54 C 162.24 190.53 162.53 191.84 163.52 192.47 Z M 164.35 193.01 L 165.16 193.54 C 166.15 194.19 167.47 193.91 168.11 192.93 C 168.76 191.94 168.48 190.62 167.50 189.98 L 166.69 189.45 C 165.70 188.80 164.38 189.08 163.74 190.06 C 163.09 191.05 163.37 192.37 164.35 193.01 Z M 165.12 193.52 L 165.92 194.07 C 166.89 194.74 168.22 194.49 168.88 193.52 C 169.55 192.55 169.31 191.22 168.34 190.55 L 167.54 190.00 C 166.57 189.33 165.24 189.58 164.57 190.55 C 163.90 191.52 164.15 192.85 165.12 193.52 Z M 165.87 194.04 L 166.66 194.61 C 167.62 195.31 168.96 195.09 169.65 194.14 C 170.34 193.18 170.13 191.85 169.17 191.15 L 168.38 190.58 C 167.42 189.89 166.09 190.10 165.40 191.06 C 164.70 192.01 164.92 193.35 165.87 194.04 Z M 166.65 194.60 L 167.45 195.19 C 168.39 195.89 169.73 195.69 170.43 194.74 C 171.14 193.79 170.94 192.46 169.99 191.75 L 169.19 191.16 C 168.24 190.46 166.90 190.66 166.20 191.61 C 165.50 192.56 165.70 193.90 166.65 194.60 Z M 167.45 195.19 L 168.30 195.82 C 169.25 196.52 170.59 196.32 171.29 195.37 C 171.99 194.42 171.79 193.08 170.84 192.38 L 169.99 191.75 C 169.04 191.05 167.70 191.25 167.00 192.20 C 166.30 193.15 166.50 194.49 167.45 195.19 Z M 168.31 195.83 L 169.09 196.40 C 170.04 197.10 171.38 196.89 172.08 195.93 C 172.77 194.98 172.56 193.64 171.61 192.95 L 170.83 192.38 C 169.88 191.68 168.54 191.89 167.84 192.84 C 167.14 193.79 167.35 195.13 168.31 195.83 Z M 169.09 196.40 L 169.89 196.99 C 170.85 197.69 172.18 197.48 172.88 196.53 C 173.58 195.57 173.37 194.23 172.42 193.54 L 171.61 192.95 C 170.66 192.25 169.32 192.46 168.62 193.41 C 167.93 194.36 168.13 195.70 169.09 196.40 Z M 169.88 196.98 L 170.72 197.60 C 171.66 198.30 173.00 198.11 173.71 197.16 C 174.41 196.21 174.21 194.87 173.27 194.17 L 172.43 193.55 C 171.48 192.84 170.14 193.04 169.44 193.99 C 168.74 194.93 168.93 196.27 169.88 196.98 Z M 170.70 197.59 L 171.53 198.22 C 172.47 198.93 173.81 198.75 174.53 197.81 C 175.24 196.87 175.06 195.53 174.12 194.82 L 173.28 194.18 C 172.34 193.47 171.00 193.65 170.29 194.59 C 169.58 195.53 169.76 196.87 170.70 197.59 Z M 171.52 198.21 L 172.31 198.82 C 173.24 199.54 174.58 199.37 175.30 198.44 C 176.02 197.50 175.85 196.16 174.92 195.44 L 174.13 194.83 C 173.20 194.11 171.86 194.28 171.14 195.21 C 170.42 196.14 170.59 197.48 171.52 198.21 Z M 172.29 198.79 L 173.10 199.43 C 174.02 200.17 175.35 200.01 176.09 199.10 C 176.82 198.18 176.66 196.84 175.75 196.11 L 174.94 195.47 C 174.02 194.74 172.68 194.89 171.95 195.81 C 171.22 196.72 171.37 198.06 172.29 198.79 Z M 173.08 199.39 L 173.83 200.01 C 174.72 200.75 176.05 200.63 176.79 199.74 C 177.53 198.84 177.41 197.52 176.51 196.77 L 175.76 196.15 C 174.87 195.41 173.54 195.53 172.80 196.43 C 172.06 197.32 172.19 198.65 173.08 199.39 Z M 173.83 199.98 L 174.13 200.24 C 175.01 200.98 176.32 200.87 177.06 200.00 C 177.81 199.12 177.70 197.81 176.82 197.06 L 176.52 196.81 C 175.64 196.06 174.33 196.17 173.58 197.05 C 172.84 197.93 172.95 199.24 173.83 199.98 Z"
      fill="black"
      fill-rule="nonzero" /></svg>