<svg xmlns="http://www.w3.org/2000/svg" width="300" height="300" viewBox="0 0 300 300">
<path d="M 121.09 114.81 L 122.13 114.84 C 123.23 114.88 124.15 114.02 124.19 112.92 C 124.22 111.82 123.36 110.90 122.26 110.86 L 121.23 110.83 C 120.13 110.79 119.21 111.65 119.17 112.75 C 119.13 113.85 119.99 114.77 121.09 114.81 Z M 121.16 114.61 L 121.93 115.07 C 122.90 115.64 124.15 115.32 124.72 114.34 C 125.30 113.37 124.97 112.12 124.00 111.55 L 123.23 111.09 C 122.26 110.52 121.01 110.85 120.44 111.82 C 119.86 112.79 120.19 114.04 121.16 114.61 Z M 121.08 114.15 L 121.50 115.09 C 121.97 116.12 123.19 116.59 124.22 116.13 C 125.26 115.66 125.73 114.44 125.27 113.41 L 124.85 112.47 C 124.38 111.43 123.16 110.96 122.13 111.43 C 121.09 111.89 120.62 113.11 121.08 114.15 Z M 121.37 114.63 L 121.54 115.57 C 121.76 116.68 122.84 117.41 123.95 117.20 C 125.07 116.99 125.80 115.91 125.58 114.79 L 125.40 113.86 C 125.19 112.74 124.11 112.01 123.00 112.23 C 121.88 112.44 121.15 113.52 121.37 114.63 Z M 121.53 115.38 L 121.63 116.42 C 121.74 117.55 122.74 118.37 123.87 118.26 C 124.99 118.15 125.82 117.14 125.71 116.02 L 125.60 114.98 C 125.49 113.85 124.49 113.03 123.36 113.14 C 122.24 113.25 121.41 114.26 121.53 115.38 Z M 121.64 116.36 L 121.70 117.37 C 121.78 118.49 122.75 119.34 123.87 119.27 C 124.99 119.19 125.84 118.22 125.77 117.10 L 125.70 116.08 C 125.62 114.96 124.65 114.11 123.53 114.19 C 122.41 114.26 121.56 115.23 121.64 116.36 Z M 121.72 117.33 L 121.76 118.32 C 121.81 119.44 122.76 120.30 123.87 120.25 C 124.99 120.20 125.85 119.26 125.80 118.14 L 125.75 117.14 C 125.70 116.03 124.76 115.17 123.64 115.22 C 122.53 115.27 121.67 116.21 121.72 117.33 Z M 121.79 118.27 L 121.80 119.30 C 121.82 120.40 122.73 121.27 123.83 121.26 C 124.93 121.24 125.81 120.33 125.79 119.23 L 125.77 118.20 C 125.75 117.10 124.85 116.22 123.75 116.24 C 122.64 116.26 121.77 117.17 121.79 118.27 Z M 121.84 119.26 L 121.84 120.22 C 121.84 121.31 122.72 122.19 123.80 122.18 C 124.89 122.18 125.76 121.30 125.76 120.22 L 125.76 119.26 C 125.76 118.17 124.88 117.30 123.80 117.30 C 122.71 117.30 121.83 118.18 121.84 119.26 Z M 121.86 120.22 L 121.86 121.22 C 121.86 122.29 122.73 123.16 123.80 123.16 C 124.87 123.16 125.74 122.29 125.74 121.22 L 125.74 120.22 C 125.74 119.15 124.87 118.28 123.80 118.28 C 122.73 118.28 121.86 119.15 121.86 120.22 Z M 121.88 121.22 L 121.88 122.21 C 121.88 123.27 122.74 124.13 123.80 124.13 C 124.86 124.13 125.72 123.27 125.72 122.21 L 125.72 121.22 C 125.72 120.16 124.86 119.30 123.80 119.30 C 122.74 119.30 121.88 120.16 121.88 121.22 Z M 121.90 122.21 L 121.90 123.16 C 121.90 124.20 122.75 125.05 123.80 125.05 C 124.85 125.05 125.70 124.20 125.70 123.16 L 125.70 122.21 C 125.70 121.16 124.85 120.31 123.80 120.31 C 122.75 120.31 121.90 121.16 121.90 122.21 Z M 121.92 123.10 L 121.89 123.99 C 121.86 125.02 122.67 125.89 123.71 125.92 C 124.75 125.96 125.62 125.14 125.65 124.10 L 125.68 123.22 C 125.71 122.18 124.90 121.31 123.86 121.28 C 122.82 121.25 121.95 122.06 121.92 123.10 Z M 121.92 123.86 L 121.80 125.00 C 121.70 126.03 122.45 126.94 123.47 127.04 C 124.50 127.15 125.41 126.40 125.51 125.37 L 125.63 124.23 C 125.73 123.21 124.98 122.29 123.96 122.19 C 122.93 122.09 122.02 122.83 121.92 123.86 Z M 121.82 124.93 L 121.68 125.89 C 121.54 126.91 122.24 127.85 123.25 127.99 C 124.27 128.14 125.21 127.44 125.35 126.42 L 125.49 125.45 C 125.64 124.44 124.93 123.50 123.92 123.35 C 122.91 123.21 121.97 123.91 121.82 124.93 Z M 121.69 125.86 L 121.52 126.90 C 121.36 127.91 122.04 128.86 123.05 129.02 C 124.05 129.19 125.00 128.51 125.17 127.50 L 125.34 126.46 C 125.51 125.45 124.82 124.50 123.82 124.33 C 122.81 124.17 121.86 124.85 121.69 125.86 Z M 121.54 126.87 L 121.36 127.87 C 121.18 128.87 121.84 129.83 122.84 130.01 C 123.84 130.19 124.80 129.52 124.98 128.52 L 125.16 127.53 C 125.34 126.53 124.67 125.57 123.67 125.39 C 122.67 125.21 121.72 125.87 121.54 126.87 Z M 121.37 127.83 L 121.15 128.94 C 120.95 129.93 121.59 130.89 122.59 131.09 C 123.58 131.29 124.54 130.65 124.74 129.66 L 124.96 128.56 C 125.16 127.56 124.52 126.60 123.53 126.40 C 122.54 126.20 121.57 126.84 121.37 127.83 Z M 121.18 128.89 L 120.96 129.82 C 120.74 130.80 121.35 131.77 122.32 131.99 C 123.30 132.22 124.28 131.61 124.50 130.63 L 124.72 129.70 C 124.94 128.73 124.33 127.75 123.35 127.53 C 122.38 127.30 121.40 127.91 121.18 128.89 Z M 120.98 129.79 L 120.86 130.28 C 120.62 131.25 121.21 132.23 122.18 132.47 C 123.14 132.71 124.12 132.12 124.36 131.15 L 124.48 130.66 C 124.72 129.69 124.13 128.71 123.17 128.47 C 122.20 128.23 121.22 128.82 120.98 129.79 Z"
      fill="black"
      fill-rule="nonzero" /><path d="M 130.85 116.52 L 131.85 116.72 C 132.91 116.94 133.94 116.25 134.16 115.20 C 134.37 114.14 133.69 113.10 132.63 112.89 L 131.64 112.68 C 130.58 112.47 129.54 113.15 129.33 114.21 C 129.11 115.27 129.79 116.30 130.85 116.52 Z M 130.65 116.04 L 131.19 116.72 C 131.87 117.60 133.13 117.76 134.01 117.08 C 134.88 116.40 135.04 115.14 134.36 114.26 L 133.83 113.57 C 133.15 112.70 131.89 112.54 131.01 113.22 C 130.13 113.90 129.97 115.16 130.65 116.04 Z M 130.76 115.78 L 130.90 116.83 C 131.06 117.94 132.10 118.72 133.21 118.56 C 134.33 118.40 135.10 117.37 134.94 116.25 L 134.80 115.21 C 134.64 114.09 133.60 113.31 132.49 113.47 C 131.37 113.63 130.60 114.66 130.76 115.78 Z M 130.87 116.60 L 130.90 117.58 C 130.93 118.71 131.88 119.61 133.02 119.57 C 134.15 119.54 135.04 118.59 135.01 117.46 L 134.98 116.48 C 134.94 115.34 134.00 114.45 132.86 114.49 C 131.73 114.52 130.84 115.47 130.87 116.60 Z M 130.89 117.50 L 130.88 118.50 C 130.87 119.63 131.79 120.57 132.93 120.58 C 134.06 120.59 135.00 119.67 135.01 118.53 L 135.01 117.54 C 135.03 116.40 134.11 115.47 132.97 115.46 C 131.83 115.45 130.90 116.36 130.89 117.50 Z M 130.88 118.44 L 130.85 119.39 C 130.81 120.53 131.70 121.48 132.84 121.53 C 133.97 121.57 134.93 120.68 134.97 119.54 L 135.01 118.59 C 135.05 117.45 134.16 116.49 133.02 116.45 C 131.88 116.41 130.92 117.30 130.88 118.44 Z M 130.85 119.29 L 130.76 120.36 C 130.66 121.49 131.51 122.49 132.64 122.59 C 133.78 122.69 134.78 121.85 134.87 120.71 L 134.97 119.64 C 135.06 118.51 134.22 117.51 133.09 117.41 C 131.95 117.31 130.95 118.15 130.85 119.29 Z M 130.78 120.25 L 130.64 121.19 C 130.48 122.31 131.27 123.36 132.40 123.52 C 133.52 123.68 134.57 122.89 134.73 121.77 L 134.86 120.82 C 135.02 119.70 134.24 118.65 133.11 118.49 C 131.98 118.33 130.94 119.12 130.78 120.25 Z M 130.65 121.11 L 130.48 122.11 C 130.28 123.23 131.02 124.30 132.14 124.50 C 133.27 124.70 134.34 123.96 134.54 122.84 L 134.71 121.84 C 134.91 120.72 134.17 119.65 133.05 119.45 C 131.93 119.25 130.85 119.99 130.65 121.11 Z M 130.49 122.07 L 130.28 123.10 C 130.05 124.21 130.78 125.30 131.89 125.53 C 133.01 125.75 134.09 125.03 134.32 123.91 L 134.53 122.88 C 134.75 121.77 134.03 120.68 132.91 120.46 C 131.80 120.23 130.71 120.95 130.49 122.07 Z M 130.29 123.07 L 130.07 124.11 C 129.83 125.22 130.53 126.31 131.64 126.55 C 132.75 126.79 133.84 126.09 134.08 124.98 L 134.30 123.94 C 134.54 122.83 133.84 121.74 132.73 121.50 C 131.62 121.26 130.53 121.96 130.29 123.07 Z M 130.08 124.10 L 129.86 125.06 C 129.62 126.16 130.31 127.25 131.41 127.50 C 132.51 127.74 133.61 127.05 133.85 125.95 L 134.07 124.99 C 134.31 123.89 133.62 122.80 132.52 122.55 C 131.42 122.30 130.33 123.00 130.08 124.10 Z M 129.88 125.06 L 129.66 126.05 C 129.41 127.15 130.10 128.23 131.19 128.48 C 132.29 128.72 133.37 128.03 133.62 126.94 L 133.84 125.95 C 134.08 124.85 133.40 123.77 132.30 123.52 C 131.21 123.28 130.12 123.97 129.88 125.06 Z M 129.69 126.05 L 129.47 126.98 C 129.22 128.05 129.89 129.13 130.97 129.38 C 132.05 129.63 133.12 128.96 133.37 127.88 L 133.59 126.95 C 133.84 125.87 133.17 124.79 132.09 124.55 C 131.01 124.30 129.93 124.97 129.69 126.05 Z M 129.51 126.92 L 129.29 127.76 C 129.01 128.82 129.63 129.90 130.69 130.18 C 131.74 130.46 132.82 129.84 133.11 128.78 L 133.33 127.94 C 133.61 126.88 132.99 125.80 131.93 125.52 C 130.88 125.24 129.79 125.86 129.51 126.92 Z M 129.32 127.73 L 129.03 128.74 C 128.73 129.78 129.32 130.86 130.36 131.16 C 131.40 131.46 132.48 130.86 132.78 129.82 L 133.07 128.81 C 133.37 127.78 132.78 126.69 131.74 126.39 C 130.70 126.09 129.62 126.69 129.32 127.73 Z M 129.04 128.75 L 128.77 129.69 C 128.48 130.71 129.07 131.79 130.10 132.08 C 131.13 132.38 132.21 131.78 132.50 130.75 L 132.77 129.81 C 133.06 128.79 132.47 127.71 131.44 127.42 C 130.41 127.12 129.34 127.72 129.04 128.75 Z M 128.79 129.68 L 128.50 130.66 C 128.20 131.68 128.79 132.75 129.81 133.05 C 130.83 133.35 131.90 132.76 132.20 131.74 L 132.48 130.76 C 132.78 129.74 132.20 128.67 131.18 128.37 C 130.16 128.07 129.09 128.66 128.79 129.68 Z M 128.52 130.63 L 128.21 131.63 C 127.90 132.64 128.46 133.71 129.47 134.02 C 130.48 134.34 131.55 133.77 131.86 132.77 L 132.17 131.77 C 132.49 130.76 131.93 129.69 130.92 129.38 C 129.91 129.06 128.84 129.63 128.52 130.63 Z M 128.25 131.57 L 127.90 132.58 C 127.56 133.56 128.08 134.64 129.06 134.99 C 130.05 135.33 131.13 134.81 131.47 133.83 L 131.83 132.82 C 132.17 131.84 131.65 130.76 130.66 130.41 C 129.68 130.07 128.60 130.59 128.25 131.57 Z M 127.96 132.51 L 127.59 133.42 C 127.21 134.37 127.67 135.46 128.63 135.84 C 129.59 136.22 130.67 135.76 131.05 134.80 L 131.42 133.90 C 131.80 132.94 131.34 131.85 130.38 131.47 C 129.43 131.09 128.34 131.55 127.96 132.51 Z M 127.66 133.33 L 127.24 134.23 C 126.81 135.15 127.21 136.24 128.13 136.67 C 129.05 137.10 130.15 136.70 130.58 135.78 L 130.99 134.89 C 131.42 133.96 131.02 132.87 130.10 132.44 C 129.18 132.01 128.08 132.41 127.66 133.33 Z M 127.31 134.13 L 126.83 135.02 C 126.34 135.90 126.67 137.01 127.55 137.49 C 128.44 137.97 129.54 137.65 130.02 136.76 L 130.51 135.88 C 130.99 134.99 130.66 133.89 129.78 133.40 C 128.90 132.92 127.79 133.25 127.31 134.13 Z M 126.90 134.92 L 126.38 135.74 C 125.84 136.58 126.09 137.70 126.93 138.24 C 127.77 138.77 128.89 138.53 129.43 137.68 L 129.95 136.86 C 130.49 136.02 130.24 134.90 129.40 134.36 C 128.56 133.83 127.44 134.07 126.90 134.92 Z M 126.44 135.65 L 125.85 136.46 C 125.26 137.26 125.44 138.39 126.25 138.98 C 127.06 139.57 128.19 139.39 128.78 138.58 L 129.36 137.77 C 129.95 136.97 129.77 135.83 128.97 135.25 C 128.16 134.66 127.03 134.84 126.44 135.65 Z M 125.88 136.41 L 125.53 136.87 C 124.92 137.66 125.07 138.80 125.86 139.41 C 126.65 140.02 127.79 139.87 128.40 139.08 L 128.75 138.62 C 129.36 137.83 129.21 136.69 128.42 136.08 C 127.62 135.47 126.49 135.62 125.88 136.41 Z"
      fill="black"
      fill-rule="nonzero" /><path d="M 109.54 127.51 L 110.44 128.00 C 111.41 128.52 112.62 128.16 113.14 127.19 C 113.66 126.23 113.30 125.02 112.33 124.50 L 111.43 124.01 C 110.46 123.49 109.26 123.86 108.74 124.82 C 108.22 125.79 108.58 126.99 109.54 127.51 Z M 110.45 128.01 L 111.34 128.48 C 112.31 128.99 113.51 128.62 114.03 127.66 C 114.55 126.69 114.18 125.48 113.21 124.97 L 112.32 124.49 C 111.35 123.98 110.15 124.35 109.63 125.32 C 109.12 126.29 109.48 127.49 110.45 128.01 Z M 111.36 128.49 L 112.22 128.94 C 113.20 129.44 114.40 129.06 114.91 128.08 C 115.41 127.11 115.03 125.91 114.05 125.40 L 113.19 124.95 C 112.21 124.45 111.01 124.83 110.51 125.81 C 110.00 126.78 110.38 127.98 111.36 128.49 Z M 112.27 128.92 L 113.24 129.40 C 114.20 129.88 115.38 129.48 115.85 128.51 C 116.33 127.55 115.94 126.38 114.97 125.90 L 114.01 125.42 C 113.04 124.94 111.87 125.33 111.39 126.30 C 110.91 127.27 111.30 128.44 112.27 128.92 Z M 113.30 129.35 L 114.19 129.77 C 115.13 130.21 116.25 129.81 116.69 128.87 C 117.14 127.93 116.73 126.81 115.79 126.37 L 114.91 125.95 C 113.97 125.50 112.85 125.90 112.40 126.84 C 111.96 127.78 112.36 128.90 113.30 129.35 Z M 114.24 129.73 L 115.14 130.14 C 116.06 130.55 117.14 130.14 117.56 129.22 C 117.97 128.30 117.56 127.22 116.64 126.81 L 115.74 126.40 C 114.82 125.99 113.74 126.40 113.33 127.32 C 112.91 128.24 113.32 129.32 114.24 129.73 Z M 115.18 130.13 L 116.08 130.52 C 117.00 130.91 118.06 130.49 118.45 129.57 C 118.84 128.65 118.42 127.59 117.51 127.20 L 116.60 126.82 C 115.69 126.42 114.63 126.85 114.24 127.76 C 113.84 128.68 114.27 129.74 115.18 130.13 Z M 116.10 130.52 L 116.45 130.67 C 117.36 131.05 118.42 130.62 118.80 129.70 C 119.19 128.79 118.76 127.73 117.84 127.35 L 117.49 127.20 C 116.58 126.81 115.52 127.25 115.14 128.16 C 114.75 129.08 115.18 130.13 116.10 130.52 Z"
      fill="black"
      fill-rule="nonzero" /><path d="M 139.18 122.34 L 138.40 122.84 C 137.38 123.48 137.08 124.82 137.72 125.83 C 138.36 126.85 139.70 127.15 140.72 126.51 L 141.50 126.02 C 142.51 125.38 142.82 124.04 142.18 123.02 C 141.54 122.01 140.20 121.70 139.18 122.34 Z M 138.32 122.87 L 137.49 123.45 C 136.50 124.13 136.24 125.49 136.92 126.48 C 137.60 127.47 138.96 127.73 139.96 127.05 L 140.79 126.47 C 141.78 125.79 142.04 124.43 141.36 123.44 C 140.68 122.45 139.32 122.19 138.32 122.87 Z M 137.40 123.52 L 136.59 124.14 C 135.64 124.87 135.46 126.24 136.19 127.19 C 136.92 128.15 138.29 128.32 139.24 127.59 L 140.05 126.97 C 141.00 126.24 141.18 124.87 140.45 123.92 C 139.72 122.97 138.35 122.79 137.40 123.52 Z M 136.54 124.22 L 135.78 124.85 C 134.87 125.61 134.75 126.96 135.51 127.87 C 136.27 128.78 137.63 128.91 138.54 128.14 L 139.29 127.51 C 140.20 126.75 140.33 125.40 139.57 124.49 C 138.81 123.58 137.45 123.46 136.54 124.22 Z M 135.77 124.91 L 135.00 125.59 C 134.12 126.36 134.03 127.69 134.80 128.56 C 135.57 129.44 136.90 129.53 137.77 128.76 L 138.55 128.08 C 139.42 127.31 139.51 125.98 138.75 125.11 C 137.98 124.23 136.65 124.15 135.77 124.91 Z M 135.00 125.65 L 134.22 126.35 C 133.37 127.12 133.31 128.42 134.07 129.27 C 134.84 130.11 136.14 130.18 136.99 129.41 L 137.77 128.71 C 138.61 127.94 138.68 126.64 137.92 125.79 C 137.15 124.95 135.85 124.88 135.00 125.65 Z M 134.23 126.39 L 133.44 127.12 C 132.62 127.88 132.57 129.16 133.33 129.98 C 134.08 130.81 135.37 130.86 136.19 130.10 L 136.98 129.37 C 137.80 128.61 137.85 127.33 137.09 126.51 C 136.33 125.69 135.05 125.63 134.23 126.39 Z M 133.46 127.15 L 132.74 127.83 C 131.93 128.58 131.88 129.83 132.63 130.64 C 133.38 131.44 134.64 131.49 135.44 130.74 L 136.17 130.07 C 136.97 129.32 137.02 128.06 136.27 127.26 C 135.52 126.45 134.26 126.41 133.46 127.15 Z M 132.77 127.85 L 132.07 128.49 C 131.28 129.22 131.23 130.45 131.96 131.25 C 132.69 132.04 133.93 132.09 134.72 131.36 L 135.41 130.72 C 136.21 129.99 136.26 128.75 135.53 127.96 C 134.80 127.17 133.56 127.12 132.77 127.85 Z M 132.11 128.49 L 131.34 129.18 C 130.55 129.89 130.48 131.10 131.19 131.90 C 131.90 132.69 133.11 132.75 133.90 132.05 L 134.68 131.36 C 135.47 130.65 135.54 129.43 134.83 128.64 C 134.12 127.85 132.91 127.78 132.11 128.49 Z M 131.38 129.19 L 130.68 129.80 C 129.89 130.49 129.81 131.68 130.49 132.47 C 131.18 133.26 132.38 133.34 133.17 132.65 L 133.87 132.04 C 134.66 131.35 134.74 130.16 134.05 129.37 C 133.36 128.58 132.17 128.50 131.38 129.19 Z M 130.70 129.81 L 129.96 130.44 C 129.18 131.12 129.09 132.31 129.77 133.09 C 130.45 133.87 131.63 133.96 132.41 133.28 L 133.15 132.64 C 133.93 131.97 134.02 130.78 133.34 130.00 C 132.66 129.22 131.48 129.13 130.70 129.81 Z M 129.98 130.44 L 129.20 131.11 C 128.41 131.78 128.32 132.95 128.99 133.73 C 129.65 134.52 130.83 134.61 131.61 133.95 L 132.39 133.28 C 133.18 132.61 133.27 131.44 132.60 130.66 C 131.94 129.87 130.76 129.78 129.98 130.44 Z M 129.22 131.11 L 128.46 131.74 C 127.67 132.39 127.56 133.56 128.22 134.35 C 128.87 135.13 130.04 135.24 130.82 134.59 L 131.59 133.95 C 132.37 133.30 132.48 132.13 131.83 131.35 C 131.17 130.56 130.01 130.45 129.22 131.11 Z M 128.47 131.74 L 127.69 132.38 C 126.90 133.02 126.79 134.18 127.43 134.97 C 128.08 135.76 129.24 135.87 130.03 135.23 L 130.81 134.59 C 131.59 133.94 131.71 132.78 131.07 132.00 C 130.42 131.21 129.26 131.09 128.47 131.74 Z M 127.70 132.38 L 126.91 133.02 C 126.13 133.66 126.01 134.81 126.65 135.60 C 127.29 136.39 128.44 136.51 129.23 135.87 L 130.02 135.23 C 130.80 134.59 130.92 133.43 130.28 132.64 C 129.64 131.86 128.49 131.74 127.70 132.38 Z M 126.94 133.01 L 126.16 133.62 C 125.37 134.25 125.23 135.40 125.86 136.19 C 126.49 136.99 127.64 137.12 128.43 136.49 L 129.21 135.88 C 130.00 135.25 130.13 134.10 129.51 133.30 C 128.88 132.51 127.73 132.38 126.94 133.01 Z M 126.20 133.60 L 125.41 134.19 C 124.60 134.80 124.44 135.94 125.04 136.75 C 125.64 137.55 126.79 137.72 127.60 137.11 L 128.39 136.52 C 129.20 135.91 129.36 134.77 128.76 133.96 C 128.15 133.16 127.01 132.99 126.20 133.60 Z M 125.44 134.17 L 124.63 134.75 C 123.81 135.34 123.62 136.48 124.20 137.30 C 124.79 138.11 125.93 138.30 126.75 137.72 L 127.56 137.14 C 128.38 136.55 128.57 135.41 127.98 134.59 C 127.40 133.77 126.26 133.58 125.44 134.17 Z M 124.63 134.75 L 123.81 135.34 C 122.99 135.92 122.80 137.06 123.38 137.88 C 123.97 138.70 125.11 138.89 125.92 138.30 L 126.74 137.72 C 127.56 137.13 127.75 136.00 127.17 135.18 C 126.58 134.36 125.45 134.17 124.63 134.75 Z M 123.80 135.34 L 122.99 135.93 C 122.17 136.52 121.99 137.66 122.58 138.47 C 123.17 139.29 124.30 139.47 125.12 138.88 L 125.93 138.29 C 126.75 137.71 126.93 136.57 126.34 135.75 C 125.75 134.94 124.62 134.76 123.80 135.34 Z M 123.00 135.93 L 122.19 136.51 C 121.37 137.09 121.18 138.22 121.76 139.04 C 122.34 139.86 123.48 140.05 124.30 139.47 L 125.11 138.89 C 125.93 138.31 126.12 137.17 125.53 136.35 C 124.95 135.54 123.81 135.34 123.00 135.93 Z M 122.21 136.49 L 121.38 137.06 C 120.56 137.63 120.35 138.76 120.91 139.59 C 121.48 140.41 122.61 140.62 123.44 140.05 L 124.27 139.48 C 125.10 138.92 125.31 137.78 124.74 136.96 C 124.17 136.13 123.04 135.92 122.21 136.49 Z M 121.41 137.04 L 120.59 137.58 C 119.75 138.13 119.52 139.26 120.07 140.10 C 120.62 140.94 121.75 141.17 122.59 140.62 L 123.41 140.07 C 124.25 139.52 124.48 138.40 123.93 137.56 C 123.38 136.72 122.25 136.49 121.41 137.04 Z M 120.61 137.56 L 119.77 138.10 C 118.93 138.63 118.67 139.76 119.21 140.60 C 119.75 141.45 120.87 141.70 121.72 141.17 L 122.56 140.63 C 123.41 140.10 123.66 138.97 123.12 138.13 C 122.59 137.28 121.46 137.03 120.61 137.56 Z M 119.79 138.09 L 118.95 138.61 C 118.10 139.14 117.84 140.26 118.37 141.11 C 118.90 141.97 120.02 142.23 120.87 141.70 L 121.71 141.18 C 122.56 140.65 122.82 139.52 122.29 138.67 C 121.76 137.82 120.64 137.56 119.79 138.09 Z M 118.96 138.60 L 118.12 139.11 C 117.26 139.64 116.99 140.76 117.52 141.62 C 118.05 142.48 119.17 142.75 120.03 142.22 L 120.87 141.71 C 121.73 141.18 121.99 140.05 121.47 139.20 C 120.94 138.34 119.82 138.07 118.96 138.60 Z M 118.14 139.09 L 117.26 139.62 C 116.39 140.14 116.10 141.26 116.62 142.13 C 117.14 143.00 118.27 143.28 119.13 142.76 L 120.01 142.24 C 120.88 141.72 121.17 140.60 120.65 139.73 C 120.13 138.86 119.00 138.57 118.14 139.09 Z M 117.27 139.60 L 116.41 140.10 C 115.53 140.61 115.23 141.74 115.75 142.62 C 116.26 143.50 117.39 143.79 118.27 143.28 L 119.12 142.78 C 120.00 142.27 120.30 141.14 119.79 140.26 C 119.27 139.38 118.14 139.09 117.27 139.60 Z M 116.39 140.10 L 115.52 140.61 C 114.64 141.13 114.34 142.27 114.86 143.15 C 115.38 144.03 116.52 144.33 117.40 143.80 L 118.28 143.29 C 119.16 142.77 119.45 141.63 118.93 140.75 C 118.41 139.87 117.28 139.58 116.39 140.10 Z M 115.45 140.62 L 114.41 141.28 C 113.53 141.84 113.27 143.01 113.83 143.88 C 114.39 144.76 115.56 145.02 116.43 144.46 L 117.47 143.80 C 118.35 143.24 118.61 142.07 118.05 141.20 C 117.49 140.32 116.33 140.06 115.45 140.62 Z M 113.97 141.59 L 113.53 142.08 C 112.82 142.89 112.90 144.11 113.70 144.82 C 114.51 145.53 115.73 145.45 116.44 144.65 L 116.88 144.15 C 117.59 143.35 117.51 142.12 116.70 141.42 C 115.90 140.71 114.67 140.78 113.97 141.59 Z M 114.66 145.35 L 115.60 145.50 C 116.69 145.67 117.72 144.93 117.90 143.84 C 118.08 142.75 117.34 141.72 116.24 141.54 L 115.31 141.39 C 114.21 141.21 113.18 141.95 113.01 143.04 C 112.83 144.14 113.57 145.17 114.66 145.35 Z M 115.93 145.57 L 116.94 145.56 C 118.08 145.56 118.99 144.64 118.99 143.51 C 118.98 142.38 118.06 141.46 116.93 141.46 L 115.91 141.47 C 114.78 141.47 113.87 142.39 113.87 143.52 C 113.87 144.66 114.80 145.57 115.93 145.57 Z M 117.00 145.58 L 118.03 145.55 C 119.17 145.51 120.06 144.56 120.03 143.42 C 120.00 142.28 119.04 141.39 117.90 141.42 L 116.88 141.45 C 115.74 141.48 114.84 142.44 114.87 143.58 C 114.91 144.72 115.86 145.61 117.00 145.58 Z M 118.10 145.55 L 119.05 145.49 C 120.19 145.41 121.05 144.43 120.98 143.28 C 120.90 142.14 119.91 141.28 118.77 141.35 L 117.83 141.42 C 116.69 141.49 115.82 142.48 115.90 143.62 C 115.98 144.76 116.96 145.63 118.10 145.55 Z M 119.09 145.49 L 120.12 145.40 C 121.26 145.30 122.11 144.29 122.01 143.15 C 121.91 142.01 120.90 141.16 119.76 141.26 L 118.73 141.35 C 117.59 141.45 116.74 142.46 116.84 143.60 C 116.94 144.74 117.95 145.59 119.09 145.49 Z M 120.14 145.40 L 121.14 145.30 C 122.28 145.19 123.11 144.18 123.00 143.04 C 122.89 141.89 121.88 141.06 120.74 141.17 L 119.74 141.26 C 118.60 141.37 117.77 142.39 117.88 143.53 C 117.99 144.67 119.00 145.51 120.14 145.40 Z M 121.16 145.30 L 122.16 145.19 C 123.30 145.07 124.12 144.04 124.00 142.90 C 123.88 141.76 122.85 140.94 121.71 141.06 L 120.71 141.17 C 119.57 141.29 118.75 142.32 118.87 143.46 C 119.00 144.60 120.02 145.42 121.16 145.30 Z M 122.20 145.18 L 123.21 145.06 C 124.34 144.91 125.15 143.87 125.00 142.73 C 124.86 141.60 123.82 140.79 122.68 140.94 L 121.67 141.07 C 120.54 141.21 119.73 142.25 119.88 143.39 C 120.02 144.53 121.06 145.33 122.20 145.18 Z M 123.26 145.05 L 124.25 144.89 C 125.38 144.72 126.15 143.66 125.98 142.53 C 125.80 141.39 124.74 140.62 123.61 140.80 L 122.63 140.95 C 121.49 141.13 120.72 142.19 120.90 143.32 C 121.07 144.45 122.13 145.22 123.26 145.05 Z M 124.30 144.88 L 125.29 144.70 C 126.41 144.49 127.15 143.41 126.95 142.29 C 126.74 141.16 125.66 140.42 124.54 140.63 L 123.55 140.81 C 122.43 141.02 121.69 142.10 121.89 143.22 C 122.10 144.34 123.18 145.09 124.30 144.88 Z M 125.34 144.68 L 126.30 144.48 C 127.42 144.24 128.13 143.15 127.90 142.03 C 127.66 140.92 126.56 140.20 125.45 140.44 L 124.48 140.64 C 123.37 140.88 122.65 141.98 122.89 143.09 C 123.13 144.21 124.22 144.92 125.34 144.68 Z M 126.35 144.46 L 127.31 144.24 C 128.41 143.98 129.10 142.87 128.84 141.76 C 128.58 140.66 127.47 139.97 126.36 140.23 L 125.40 140.46 C 124.30 140.72 123.61 141.82 123.87 142.93 C 124.13 144.04 125.24 144.72 126.35 144.46 Z M 127.34 144.22 L 128.33 143.97 C 129.43 143.69 130.09 142.57 129.81 141.48 C 129.53 140.38 128.41 139.72 127.32 140.00 L 126.33 140.25 C 125.23 140.53 124.57 141.64 124.85 142.74 C 125.13 143.84 126.24 144.50 127.34 144.22 Z M 128.35 143.95 L 129.32 143.69 C 130.41 143.40 131.06 142.28 130.76 141.19 C 130.47 140.10 129.35 139.46 128.26 139.75 L 127.29 140.01 C 126.20 140.31 125.56 141.43 125.85 142.51 C 126.14 143.60 127.26 144.25 128.35 143.95 Z M 129.35 143.67 L 130.32 143.40 C 131.39 143.09 132.02 141.97 131.71 140.89 C 131.40 139.81 130.28 139.19 129.20 139.49 L 128.24 139.77 C 127.16 140.08 126.53 141.20 126.84 142.28 C 127.15 143.36 128.27 143.98 129.35 143.67 Z M 130.35 143.38 L 131.31 143.08 C 132.37 142.76 132.98 141.63 132.65 140.57 C 132.33 139.50 131.20 138.90 130.14 139.22 L 129.17 139.51 C 128.11 139.84 127.50 140.97 127.83 142.03 C 128.15 143.10 129.28 143.70 130.35 143.38 Z M 131.35 143.06 L 132.31 142.74 C 133.36 142.40 133.94 141.26 133.59 140.21 C 133.25 139.16 132.11 138.59 131.06 138.93 L 130.10 139.25 C 129.04 139.59 128.47 140.73 128.82 141.78 C 129.16 142.83 130.29 143.40 131.35 143.06 Z M 132.36 142.71 L 133.30 142.37 C 134.34 142.00 134.88 140.86 134.51 139.83 C 134.14 138.79 133.00 138.26 131.96 138.62 L 131.02 138.96 C 129.98 139.33 129.44 140.47 129.81 141.51 C 130.18 142.54 131.32 143.08 132.36 142.71 Z M 133.35 142.34 L 134.27 141.98 C 135.28 141.59 135.78 140.44 135.39 139.43 C 134.99 138.41 133.85 137.91 132.83 138.30 L 131.92 138.66 C 130.90 139.05 130.40 140.20 130.79 141.21 C 131.19 142.23 132.33 142.73 133.35 142.34 Z M 134.31 141.94 L 135.23 141.55 C 136.23 141.13 136.69 139.99 136.27 138.99 C 135.85 138.00 134.71 137.53 133.71 137.95 L 132.79 138.34 C 131.79 138.76 131.33 139.91 131.75 140.90 C 132.17 141.90 133.32 142.36 134.31 141.94 Z M 135.27 141.51 L 136.18 141.10 C 137.15 140.66 137.58 139.51 137.14 138.54 C 136.70 137.57 135.56 137.14 134.58 137.58 L 133.67 137.99 C 132.70 138.43 132.27 139.58 132.71 140.55 C 133.15 141.52 134.30 141.95 135.27 141.51 Z M 136.21 141.06 L 137.10 140.63 C 138.06 140.17 138.46 139.03 138.00 138.08 C 137.54 137.13 136.40 136.73 135.45 137.19 L 134.56 137.62 C 133.60 138.07 133.20 139.21 133.66 140.17 C 134.12 141.12 135.26 141.52 136.21 141.06 Z M 137.12 140.60 L 138.04 140.14 C 138.98 139.67 139.35 138.53 138.88 137.60 C 138.42 136.67 137.28 136.29 136.35 136.76 L 135.43 137.22 C 134.50 137.69 134.12 138.82 134.59 139.76 C 135.06 140.69 136.19 141.06 137.12 140.60 Z M 138.06 140.10 L 138.95 139.63 C 139.86 139.15 140.21 138.03 139.73 137.11 C 139.25 136.20 138.13 135.85 137.21 136.33 L 136.33 136.80 C 135.42 137.28 135.07 138.40 135.55 139.32 C 136.02 140.23 137.15 140.58 138.06 140.10 Z M 138.98 139.59 L 139.84 139.11 C 140.73 138.62 141.05 137.49 140.56 136.60 C 140.06 135.71 138.94 135.39 138.05 135.89 L 137.18 136.37 C 136.29 136.87 135.98 137.99 136.47 138.88 C 136.97 139.77 138.09 140.09 138.98 139.59 Z M 139.88 139.07 L 140.75 138.55 C 141.61 138.04 141.90 136.92 141.38 136.05 C 140.87 135.19 139.75 134.90 138.88 135.41 L 138.01 135.93 C 137.15 136.45 136.86 137.57 137.37 138.43 C 137.89 139.30 139.01 139.59 139.88 139.07 Z M 140.76 138.53 L 141.59 138.01 C 142.44 137.49 142.71 136.38 142.18 135.52 C 141.66 134.67 140.54 134.41 139.69 134.93 L 138.86 135.44 C 138.01 135.97 137.75 137.08 138.27 137.93 C 138.80 138.79 139.91 139.05 140.76 138.53 Z"
      fill="black"
      fill-rule="nonzero" /><path d="M 124.19 142.09 L 124.33 143.08 C 124.49 144.14 125.47 144.87 126.53 144.71 C 127.58 144.56 128.32 143.58 128.16 142.52 L 128.01 141.53 C 127.86 140.47 126.88 139.74 125.82 139.89 C 124.76 140.05 124.03 141.03 124.19 142.09 Z M 124.32 143.32 L 124.58 144.27 C 124.86 145.34 125.96 145.97 127.02 145.68 C 128.09 145.39 128.72 144.30 128.43 143.23 L 128.17 142.28 C 127.89 141.22 126.79 140.59 125.73 140.87 C 124.66 141.16 124.03 142.25 124.32 143.32 Z M 124.60 144.50 L 124.97 145.43 C 125.38 146.48 126.57 147.00 127.62 146.59 C 128.67 146.17 129.19 144.99 128.77 143.94 L 128.41 143.00 C 127.99 141.95 126.81 141.44 125.76 141.85 C 124.70 142.26 124.19 143.45 124.60 144.50 Z M 124.92 145.38 L 125.26 146.31 C 125.64 147.38 126.82 147.94 127.90 147.56 C 128.97 147.17 129.53 145.99 129.15 144.91 L 128.82 143.99 C 128.43 142.91 127.25 142.35 126.17 142.74 C 125.10 143.12 124.54 144.31 124.92 145.38 Z M 125.21 146.16 L 125.47 147.14 C 125.78 148.24 126.92 148.89 128.02 148.59 C 129.12 148.28 129.77 147.14 129.47 146.04 L 129.20 145.06 C 128.90 143.96 127.76 143.31 126.65 143.61 C 125.55 143.92 124.90 145.06 125.21 146.16 Z M 125.45 147.00 L 125.64 147.92 C 125.87 149.03 126.95 149.75 128.06 149.53 C 129.18 149.31 129.90 148.22 129.67 147.11 L 129.49 146.18 C 129.26 145.07 128.18 144.35 127.06 144.57 C 125.95 144.80 125.23 145.88 125.45 147.00 Z M 125.65 147.82 L 125.81 148.87 C 125.98 149.98 127.02 150.74 128.13 150.57 C 129.24 150.40 130.00 149.36 129.83 148.25 L 129.67 147.20 C 129.49 146.09 128.46 145.33 127.35 145.51 C 126.24 145.68 125.48 146.72 125.65 147.82 Z M 125.84 148.84 L 125.98 149.83 C 126.13 150.92 127.14 151.69 128.23 151.53 C 129.32 151.38 130.09 150.38 129.94 149.28 L 129.80 148.29 C 129.65 147.20 128.64 146.43 127.55 146.58 C 126.45 146.73 125.69 147.74 125.84 148.84 Z M 126.02 149.86 L 126.18 150.87 C 126.35 151.94 127.36 152.66 128.43 152.49 C 129.49 152.32 130.22 151.32 130.05 150.25 L 129.89 149.25 C 129.72 148.18 128.72 147.45 127.65 147.62 C 126.58 147.79 125.85 148.79 126.02 149.86 Z M 126.23 150.99 L 126.46 152.00 C 126.70 153.04 127.74 153.69 128.79 153.45 C 129.83 153.21 130.48 152.17 130.24 151.12 L 130.00 150.12 C 129.76 149.08 128.72 148.43 127.68 148.67 C 126.64 148.91 125.99 149.95 126.23 150.99 Z M 126.51 152.17 L 126.81 153.10 C 127.15 154.12 128.24 154.67 129.26 154.34 C 130.28 154.00 130.83 152.91 130.50 151.89 L 130.19 150.96 C 129.86 149.94 128.76 149.39 127.74 149.72 C 126.73 150.05 126.17 151.15 126.51 152.17 Z M 126.83 153.17 L 126.98 153.57 C 127.35 154.58 128.47 155.10 129.48 154.73 C 130.49 154.35 131.00 153.23 130.63 152.22 L 130.48 151.82 C 130.11 150.81 128.99 150.29 127.98 150.67 C 126.97 151.04 126.45 152.16 126.83 153.17 Z"
      fill="black"
      fill-rule="nonzero" /><path d="M 136.55 143.56 L 137.68 143.62 C 138.76 143.68 139.68 142.85 139.73 141.77 C 139.79 140.69 138.96 139.77 137.88 139.71 L 136.75 139.66 C 135.67 139.60 134.75 140.43 134.70 141.51 C 134.64 142.59 135.47 143.51 136.55 143.56 Z M 136.53 143.27 L 137.05 143.68 C 137.94 144.38 139.22 144.22 139.91 143.34 C 140.60 142.45 140.45 141.17 139.56 140.48 L 139.04 140.07 C 138.15 139.37 136.87 139.53 136.18 140.41 C 135.49 141.30 135.64 142.58 136.53 143.27 Z M 136.35 141.42 L 136.03 142.36 C 135.67 143.44 136.25 144.61 137.33 144.98 C 138.41 145.34 139.58 144.76 139.95 143.68 L 140.26 142.74 C 140.63 141.66 140.05 140.49 138.97 140.12 C 137.89 139.76 136.72 140.34 136.35 141.42 Z M 136.22 141.96 L 135.68 142.86 C 135.10 143.84 135.42 145.10 136.39 145.69 C 137.37 146.27 138.64 145.95 139.22 144.98 L 139.76 144.08 C 140.34 143.10 140.02 141.84 139.05 141.25 C 138.07 140.67 136.81 140.98 136.22 141.96 Z M 135.74 142.80 L 135.18 143.65 C 134.56 144.59 134.82 145.86 135.77 146.48 C 136.72 147.11 137.99 146.84 138.61 145.89 L 139.17 145.04 C 139.79 144.10 139.52 142.83 138.58 142.20 C 137.63 141.58 136.36 141.85 135.74 142.80 Z M 135.21 143.62 L 134.63 144.48 C 133.99 145.41 134.23 146.68 135.16 147.31 C 136.09 147.95 137.36 147.71 137.99 146.78 L 138.58 145.92 C 139.21 144.99 138.97 143.72 138.04 143.09 C 137.11 142.45 135.85 142.69 135.21 143.62 Z M 134.65 144.47 L 134.07 145.31 C 133.43 146.22 133.66 147.48 134.57 148.12 C 135.49 148.76 136.75 148.53 137.39 147.62 L 137.97 146.78 C 138.61 145.87 138.38 144.61 137.47 143.97 C 136.55 143.33 135.29 143.56 134.65 144.47 Z M 134.10 145.30 L 133.52 146.10 C 132.88 147.00 133.09 148.25 133.99 148.90 C 134.89 149.54 136.14 149.33 136.79 148.43 L 137.36 147.62 C 138.00 146.72 137.79 145.47 136.89 144.83 C 135.99 144.19 134.74 144.40 134.10 145.30 Z M 133.55 146.09 L 132.97 146.89 C 132.33 147.77 132.52 149.02 133.40 149.66 C 134.29 150.31 135.53 150.12 136.18 149.23 L 136.76 148.44 C 137.40 147.55 137.21 146.31 136.33 145.66 C 135.44 145.02 134.20 145.21 133.55 146.09 Z M 132.99 146.88 L 132.40 147.67 C 131.75 148.55 131.93 149.78 132.80 150.44 C 133.67 151.09 134.91 150.91 135.56 150.04 L 136.16 149.24 C 136.81 148.37 136.63 147.13 135.76 146.48 C 134.88 145.83 133.65 146.00 132.99 146.88 Z M 132.42 147.66 L 131.80 148.47 C 131.15 149.33 131.31 150.57 132.18 151.22 C 133.04 151.88 134.27 151.72 134.93 150.85 L 135.54 150.05 C 136.20 149.18 136.04 147.95 135.17 147.29 C 134.31 146.63 133.08 146.80 132.42 147.66 Z M 131.82 148.46 L 131.20 149.26 C 130.54 150.12 130.69 151.34 131.55 152.01 C 132.40 152.67 133.63 152.51 134.29 151.66 L 134.91 150.86 C 135.58 150.00 135.42 148.78 134.57 148.11 C 133.71 147.45 132.48 147.61 131.82 148.46 Z M 131.22 149.25 L 130.60 150.04 C 129.93 150.89 130.07 152.11 130.92 152.78 C 131.76 153.44 132.99 153.30 133.65 152.46 L 134.28 151.67 C 134.94 150.82 134.80 149.60 133.95 148.93 C 133.11 148.27 131.89 148.41 131.22 149.25 Z M 130.62 150.03 L 129.99 150.80 C 129.32 151.64 129.45 152.86 130.28 153.53 C 131.11 154.20 132.33 154.07 133.01 153.24 L 133.63 152.47 C 134.30 151.64 134.17 150.42 133.34 149.74 C 132.51 149.07 131.29 149.20 130.62 150.03 Z M 130.01 150.78 L 129.36 151.57 C 128.67 152.39 128.78 153.61 129.60 154.29 C 130.42 154.98 131.64 154.87 132.33 154.05 L 132.98 153.26 C 133.67 152.44 133.56 151.22 132.74 150.54 C 131.92 149.85 130.70 149.96 130.01 150.78 Z M 129.38 151.53 L 128.74 152.27 C 128.03 153.08 128.11 154.30 128.92 155.00 C 129.72 155.71 130.95 155.63 131.65 154.82 L 132.30 154.09 C 133.00 153.28 132.92 152.06 132.12 151.35 C 131.31 150.65 130.09 150.73 129.38 151.53 Z M 128.77 152.22 L 128.09 152.96 C 127.35 153.74 127.40 154.97 128.18 155.71 C 128.97 156.44 130.20 156.40 130.93 155.61 L 131.62 154.87 C 132.35 154.09 132.31 152.86 131.52 152.13 C 130.74 151.39 129.51 151.44 128.77 152.22 Z M 128.11 152.91 L 127.41 153.62 C 126.65 154.39 126.66 155.63 127.43 156.39 C 128.20 157.15 129.44 157.14 130.20 156.37 L 130.90 155.66 C 131.66 154.89 131.65 153.65 130.88 152.89 C 130.11 152.13 128.87 152.14 128.11 152.91 Z M 127.42 153.59 L 126.71 154.28 C 125.94 155.05 125.92 156.30 126.69 157.07 C 127.45 157.85 128.70 157.86 129.48 157.10 L 130.19 156.40 C 130.97 155.64 130.98 154.39 130.22 153.61 C 129.45 152.83 128.20 152.82 127.42 153.59 Z M 126.75 154.24 L 126.01 154.92 C 125.21 155.67 125.17 156.92 125.91 157.72 C 126.66 158.53 127.92 158.57 128.72 157.82 L 129.45 157.14 C 130.25 156.40 130.30 155.14 129.55 154.34 C 128.80 153.54 127.55 153.49 126.75 154.24 Z M 126.10 154.81 L 125.20 155.54 C 124.34 156.24 124.21 157.51 124.91 158.37 C 125.61 159.23 126.88 159.36 127.74 158.66 L 128.64 157.93 C 129.50 157.23 129.63 155.96 128.93 155.10 C 128.23 154.24 126.96 154.11 126.10 154.81 Z M 125.09 155.56 L 124.53 156.06 C 123.68 156.83 123.61 158.14 124.37 158.99 C 125.14 159.84 126.45 159.91 127.30 159.14 L 127.86 158.64 C 128.71 157.88 128.77 156.57 128.01 155.72 C 127.24 154.87 125.94 154.80 125.09 155.56 Z M 126.47 159.65 L 127.22 159.44 C 128.35 159.14 129.02 157.97 128.71 156.84 C 128.40 155.71 127.24 155.04 126.11 155.35 L 125.35 155.56 C 124.22 155.86 123.56 157.03 123.87 158.16 C 124.17 159.29 125.34 159.96 126.47 159.65 Z M 127.38 159.41 L 128.52 159.00 C 129.63 158.61 130.21 157.39 129.82 156.28 C 129.43 155.17 128.21 154.59 127.10 154.98 L 125.95 155.39 C 124.84 155.78 124.26 157.00 124.65 158.11 C 125.05 159.22 126.27 159.80 127.38 159.41 Z M 128.51 159.01 L 129.47 158.68 C 130.58 158.29 131.17 157.07 130.78 155.95 C 130.39 154.84 129.17 154.25 128.06 154.64 L 127.10 154.97 C 125.99 155.36 125.40 156.58 125.79 157.70 C 126.18 158.81 127.40 159.40 128.51 159.01 Z M 129.48 158.67 L 130.43 158.33 C 131.55 157.93 132.12 156.71 131.72 155.60 C 131.33 154.49 130.10 153.91 128.99 154.31 L 128.04 154.65 C 126.93 155.05 126.35 156.27 126.75 157.38 C 127.15 158.49 128.37 159.07 129.48 158.67 Z M 130.47 158.31 L 131.39 157.96 C 132.49 157.54 133.04 156.31 132.62 155.21 C 132.21 154.11 130.98 153.56 129.88 153.98 L 128.96 154.33 C 127.86 154.75 127.31 155.98 127.73 157.08 C 128.14 158.17 129.37 158.72 130.47 158.31 Z M 131.43 157.93 L 132.34 157.56 C 133.42 157.12 133.95 155.89 133.51 154.80 C 133.07 153.72 131.84 153.20 130.75 153.64 L 129.84 154.01 C 128.76 154.44 128.24 155.68 128.67 156.76 C 129.11 157.84 130.35 158.37 131.43 157.93 Z M 132.36 157.54 L 133.27 157.16 C 134.34 156.71 134.85 155.48 134.40 154.41 C 133.95 153.33 132.72 152.83 131.65 153.28 L 130.74 153.66 C 129.66 154.11 129.16 155.34 129.61 156.41 C 130.05 157.48 131.29 157.99 132.36 157.54 Z M 133.27 157.14 L 134.14 156.77 C 135.21 156.32 135.70 155.10 135.26 154.03 C 134.81 152.97 133.58 152.47 132.52 152.92 L 131.65 153.29 C 130.58 153.74 130.08 154.97 130.53 156.03 C 130.98 157.09 132.21 157.59 133.27 157.14 Z M 134.14 156.76 L 135.09 156.36 C 136.14 155.91 136.64 154.69 136.19 153.63 C 135.74 152.58 134.51 152.08 133.46 152.53 L 132.52 152.94 C 131.46 153.39 130.97 154.61 131.42 155.66 C 131.87 156.72 133.09 157.21 134.14 156.76 Z M 135.09 156.35 L 136.08 155.92 C 137.13 155.47 137.61 154.26 137.16 153.21 C 136.71 152.16 135.50 151.67 134.45 152.12 L 133.46 152.55 C 132.41 153.00 131.92 154.21 132.37 155.26 C 132.82 156.31 134.04 156.80 135.09 156.35 Z M 136.07 155.90 L 137.04 155.49 C 138.08 155.04 138.56 153.84 138.11 152.80 C 137.67 151.76 136.46 151.28 135.42 151.73 L 134.46 152.14 C 133.42 152.59 132.94 153.79 133.38 154.83 C 133.83 155.87 135.03 156.35 136.07 155.90 Z M 137.01 155.47 L 137.96 155.07 C 138.99 154.64 139.47 153.45 139.04 152.43 C 138.61 151.40 137.42 150.92 136.39 151.35 L 135.45 151.75 C 134.42 152.18 133.94 153.36 134.37 154.39 C 134.80 155.42 135.99 155.90 137.01 155.47 Z M 137.92 155.06 L 138.79 154.70 C 139.81 154.29 140.31 153.13 139.90 152.11 C 139.49 151.09 138.33 150.60 137.31 151.01 L 136.43 151.36 C 135.41 151.77 134.92 152.93 135.33 153.95 C 135.74 154.97 136.90 155.47 137.92 155.06 Z M 138.71 154.69 L 139.74 154.32 C 140.75 153.95 141.27 152.84 140.91 151.82 C 140.54 150.81 139.42 150.29 138.41 150.65 L 137.39 151.02 C 136.37 151.39 135.85 152.51 136.22 153.52 C 136.58 154.53 137.70 155.06 138.71 154.69 Z M 139.63 154.29 L 140.53 154.02 C 141.53 153.71 142.09 152.65 141.78 151.65 C 141.47 150.66 140.42 150.10 139.42 150.40 L 138.52 150.68 C 137.52 150.99 136.96 152.04 137.27 153.04 C 137.57 154.04 138.63 154.60 139.63 154.29 Z M 140.48 153.99 L 140.84 153.88 C 141.82 153.60 142.39 152.58 142.12 151.60 C 141.84 150.62 140.82 150.05 139.84 150.33 L 139.47 150.44 C 138.49 150.71 137.92 151.73 138.20 152.71 C 138.48 153.69 139.50 154.26 140.48 153.99 Z"
      fill="black"
      fill-rule="nonzero" /><path d="M 119.23 165.66 L 118.35 166.53 C 117.60 167.27 117.60 168.47 118.34 169.22 C 119.08 169.97 120.28 169.98 121.03 169.24 L 121.91 168.37 C 122.66 167.63 122.67 166.42 121.93 165.67 C 121.19 164.92 119.98 164.92 119.23 165.66 Z M 118.16 166.63 L 117.62 167.29 C 116.93 168.14 117.05 169.38 117.90 170.08 C 118.74 170.77 119.99 170.64 120.68 169.80 L 121.22 169.14 C 121.92 168.29 121.79 167.04 120.95 166.35 C 120.10 165.66 118.85 165.78 118.16 166.63 Z M 118.08 170.29 L 118.54 170.57 C 119.50 171.16 120.76 170.86 121.35 169.90 C 121.95 168.93 121.64 167.67 120.68 167.08 L 120.22 166.80 C 119.26 166.21 118.00 166.51 117.41 167.47 C 116.82 168.44 117.12 169.70 118.08 170.29 Z M 120.10 170.86 L 121.15 170.60 C 122.27 170.33 122.96 169.20 122.69 168.08 C 122.42 166.96 121.29 166.27 120.16 166.54 L 119.12 166.79 C 117.99 167.07 117.30 168.20 117.58 169.32 C 117.85 170.44 118.98 171.13 120.10 170.86 Z M 121.33 170.57 L 122.30 170.24 C 123.40 169.87 124.00 168.68 123.62 167.57 C 123.25 166.47 122.06 165.88 120.96 166.25 L 119.99 166.58 C 118.88 166.95 118.29 168.14 118.66 169.24 C 119.03 170.35 120.23 170.94 121.33 170.57 Z M 122.34 170.23 L 123.24 169.91 C 124.34 169.51 124.91 168.31 124.51 167.21 C 124.12 166.11 122.91 165.54 121.82 165.94 L 120.92 166.26 C 119.82 166.65 119.25 167.86 119.64 168.96 C 120.04 170.05 121.24 170.62 122.34 170.23 Z M 123.26 169.90 L 124.24 169.54 C 125.33 169.13 125.89 167.92 125.48 166.83 C 125.08 165.73 123.86 165.18 122.77 165.58 L 121.80 165.94 C 120.70 166.35 120.15 167.56 120.55 168.66 C 120.96 169.75 122.17 170.30 123.26 169.90 Z M 124.26 169.53 L 125.16 169.18 C 126.25 168.77 126.79 167.55 126.38 166.46 C 125.96 165.37 124.75 164.83 123.66 165.25 L 122.75 165.59 C 121.67 166.01 121.12 167.23 121.54 168.31 C 121.95 169.40 123.17 169.94 124.26 169.53 Z M 125.18 169.17 L 126.13 168.80 C 127.21 168.37 127.74 167.15 127.32 166.07 C 126.90 164.99 125.68 164.46 124.60 164.88 L 123.64 165.26 C 122.56 165.68 122.03 166.90 122.45 167.98 C 122.88 169.06 124.10 169.59 125.18 169.17 Z M 126.14 168.78 L 127.06 168.42 C 128.14 167.99 128.66 166.77 128.23 165.69 C 127.80 164.62 126.58 164.10 125.51 164.53 L 124.59 164.90 C 123.51 165.33 122.99 166.54 123.42 167.62 C 123.85 168.69 125.07 169.21 126.14 168.78 Z M 127.07 168.40 L 128.00 168.02 C 129.06 167.59 129.57 166.37 129.14 165.31 C 128.71 164.24 127.49 163.73 126.43 164.17 L 125.50 164.54 C 124.44 164.98 123.92 166.19 124.36 167.26 C 124.79 168.32 126.01 168.83 127.07 168.40 Z M 128.01 168.00 L 128.96 167.61 C 130.01 167.17 130.51 165.96 130.07 164.90 C 129.64 163.85 128.43 163.35 127.37 163.79 L 126.42 164.19 C 125.36 164.62 124.87 165.83 125.30 166.89 C 125.74 167.94 126.95 168.44 128.01 168.00 Z M 128.97 167.58 L 129.93 167.17 C 130.97 166.73 131.45 165.53 131.01 164.49 C 130.57 163.45 129.37 162.96 128.33 163.40 L 127.36 163.81 C 126.32 164.25 125.84 165.46 126.28 166.50 C 126.72 167.54 127.92 168.03 128.97 167.58 Z M 129.94 167.15 L 130.82 166.76 C 131.84 166.32 132.31 165.12 131.86 164.10 C 131.42 163.07 130.22 162.60 129.20 163.05 L 128.32 163.43 C 127.29 163.88 126.82 165.07 127.27 166.10 C 127.72 167.12 128.91 167.59 129.94 167.15 Z M 130.83 166.72 L 131.73 166.32 C 132.73 165.86 133.17 164.68 132.72 163.67 C 132.26 162.67 131.08 162.23 130.07 162.68 L 129.18 163.09 C 128.18 163.54 127.73 164.73 128.19 165.73 C 128.65 166.73 129.83 167.18 130.83 166.72 Z M 131.72 166.28 L 132.62 165.86 C 133.60 165.41 134.03 164.24 133.58 163.26 C 133.12 162.28 131.96 161.85 130.97 162.31 L 130.08 162.72 C 129.09 163.18 128.67 164.34 129.12 165.32 C 129.58 166.31 130.74 166.73 131.72 166.28 Z M 132.60 165.84 L 133.39 165.48 C 134.36 165.04 134.79 163.89 134.35 162.92 C 133.91 161.95 132.76 161.52 131.79 161.96 L 131.00 162.33 C 130.03 162.77 129.60 163.91 130.04 164.88 C 130.48 165.86 131.63 166.29 132.60 165.84 Z M 133.39 165.47 L 134.30 165.05 C 135.26 164.62 135.69 163.48 135.25 162.51 C 134.81 161.55 133.68 161.12 132.71 161.56 L 131.80 161.98 C 130.83 162.41 130.41 163.55 130.85 164.52 C 131.28 165.48 132.42 165.91 133.39 165.47 Z M 134.30 165.04 L 135.33 164.57 C 136.28 164.13 136.70 162.99 136.26 162.04 C 135.82 161.08 134.69 160.66 133.73 161.10 L 132.71 161.58 C 131.75 162.02 131.33 163.15 131.77 164.11 C 132.22 165.06 133.35 165.48 134.30 165.04 Z M 135.33 164.55 L 136.24 164.12 C 137.18 163.68 137.59 162.55 137.15 161.61 C 136.70 160.66 135.58 160.26 134.63 160.70 L 133.73 161.12 C 132.78 161.57 132.37 162.69 132.82 163.64 C 133.26 164.58 134.39 164.99 135.33 164.55 Z M 136.24 164.10 L 137.17 163.66 C 138.10 163.22 138.50 162.10 138.06 161.17 C 137.62 160.23 136.50 159.83 135.56 160.28 L 134.63 160.72 C 133.70 161.16 133.30 162.28 133.74 163.21 C 134.19 164.15 135.30 164.55 136.24 164.10 Z M 137.17 163.64 L 138.07 163.21 C 138.99 162.77 139.38 161.66 138.94 160.73 C 138.50 159.81 137.39 159.42 136.46 159.87 L 135.56 160.30 C 134.64 160.74 134.25 161.85 134.70 162.77 C 135.14 163.70 136.25 164.08 137.17 163.64 Z M 138.07 163.19 L 139.02 162.73 C 139.93 162.29 140.31 161.19 139.87 160.27 C 139.42 159.36 138.32 158.98 137.41 159.42 L 136.46 159.88 C 135.55 160.33 135.17 161.43 135.61 162.34 C 136.06 163.25 137.16 163.63 138.07 163.19 Z M 139.02 162.71 L 139.93 162.27 C 140.83 161.82 141.20 160.73 140.76 159.83 C 140.31 158.92 139.22 158.55 138.32 159.00 L 137.41 159.44 C 136.51 159.89 136.13 160.98 136.58 161.88 C 137.02 162.79 138.12 163.16 139.02 162.71 Z M 139.93 162.25 L 140.76 161.84 C 141.65 161.39 142.02 160.31 141.57 159.41 C 141.13 158.52 140.04 158.15 139.15 158.60 L 138.32 159.01 C 137.42 159.46 137.06 160.54 137.50 161.44 C 137.95 162.33 139.03 162.70 139.93 162.25 Z M 140.75 161.83 L 140.88 161.77 C 141.77 161.32 142.13 160.24 141.69 159.35 C 141.25 158.46 140.16 158.10 139.27 158.54 L 139.15 158.61 C 138.26 159.05 137.90 160.13 138.34 161.02 C 138.78 161.91 139.86 162.27 140.75 161.83 Z"
      fill="black"
      fill-rule="nonzero" /><path d="M 131.48 156.93 L 131.55 157.91 C 131.62 159.01 132.58 159.85 133.69 159.77 C 134.80 159.70 135.63 158.74 135.56 157.63 L 135.49 156.65 C 135.41 155.54 134.45 154.71 133.35 154.78 C 132.24 154.86 131.40 155.82 131.48 156.93 Z M 131.47 157.87 L 131.52 158.88 C 131.58 160.03 132.55 160.92 133.70 160.86 C 134.85 160.80 135.73 159.83 135.68 158.68 L 135.63 157.67 C 135.58 156.52 134.60 155.63 133.45 155.69 C 132.30 155.74 131.42 156.72 131.47 157.87 Z M 131.48 158.82 L 131.50 159.77 C 131.52 160.94 132.49 161.87 133.66 161.84 C 134.83 161.82 135.76 160.85 135.73 159.69 L 135.72 158.74 C 135.69 157.57 134.73 156.64 133.56 156.66 C 132.39 156.69 131.46 157.65 131.48 158.82 Z M 131.50 159.73 L 131.51 160.77 C 131.51 161.94 132.46 162.88 133.63 162.88 C 134.80 162.87 135.74 161.92 135.74 160.76 L 135.73 159.72 C 135.73 158.55 134.78 157.61 133.61 157.61 C 132.44 157.61 131.50 158.56 131.50 159.73 Z M 131.51 160.76 L 131.51 161.81 C 131.51 162.97 132.46 163.91 133.62 163.91 C 134.79 163.91 135.73 162.97 135.73 161.81 L 135.73 160.76 C 135.73 159.60 134.79 158.65 133.62 158.65 C 132.46 158.65 131.51 159.60 131.51 160.76 Z M 131.53 161.81 L 131.53 162.83 C 131.53 163.99 132.47 164.92 133.62 164.92 C 134.78 164.92 135.71 163.99 135.71 162.83 L 135.71 161.81 C 135.71 160.65 134.78 159.72 133.62 159.72 C 132.47 159.72 131.53 160.65 131.53 161.81 Z M 131.55 162.83 L 131.55 163.84 C 131.55 164.98 132.48 165.90 133.62 165.90 C 134.76 165.90 135.69 164.98 135.69 163.84 L 135.69 162.83 C 135.69 161.69 134.76 160.76 133.62 160.76 C 132.48 160.76 131.55 161.69 131.55 162.83 Z M 131.59 163.83 L 131.58 164.82 C 131.58 165.94 132.48 166.86 133.61 166.86 C 134.73 166.87 135.64 165.96 135.65 164.84 L 135.65 163.85 C 135.66 162.72 134.75 161.81 133.63 161.80 C 132.51 161.80 131.59 162.70 131.59 163.83 Z M 131.63 164.78 L 131.60 165.72 C 131.58 166.82 132.44 167.73 133.54 167.76 C 134.64 167.79 135.56 166.92 135.58 165.82 L 135.61 164.88 C 135.63 163.78 134.77 162.87 133.67 162.84 C 132.57 162.81 131.65 163.68 131.63 164.78 Z M 131.63 165.68 L 131.59 166.69 C 131.54 167.77 132.37 168.69 133.45 168.74 C 134.53 168.79 135.45 167.95 135.50 166.87 L 135.55 165.86 C 135.60 164.78 134.77 163.86 133.69 163.81 C 132.60 163.76 131.69 164.59 131.63 165.68 Z M 131.61 166.65 L 131.55 167.65 C 131.48 168.72 132.29 169.64 133.36 169.70 C 134.43 169.77 135.35 168.96 135.41 167.90 L 135.48 166.90 C 135.55 165.83 134.74 164.91 133.67 164.85 C 132.60 164.78 131.68 165.59 131.61 166.65 Z M 131.58 167.61 L 131.49 168.62 C 131.41 169.67 132.19 170.60 133.24 170.68 C 134.29 170.77 135.22 169.99 135.31 168.93 L 135.39 167.93 C 135.48 166.88 134.69 165.95 133.64 165.86 C 132.59 165.78 131.66 166.56 131.58 167.61 Z M 131.52 168.58 L 131.41 169.57 C 131.31 170.61 132.07 171.54 133.11 171.65 C 134.15 171.75 135.08 171.00 135.18 169.96 L 135.28 168.97 C 135.39 167.93 134.63 167.00 133.59 166.89 C 132.55 166.79 131.62 167.54 131.52 168.58 Z M 131.43 169.56 L 131.32 170.57 C 131.21 171.60 131.96 172.52 132.99 172.64 C 134.02 172.75 134.94 172.00 135.05 170.97 L 135.16 169.97 C 135.28 168.94 134.53 168.01 133.50 167.90 C 132.47 167.79 131.55 168.53 131.43 169.56 Z M 131.34 170.56 L 131.23 171.57 C 131.12 172.59 131.85 173.51 132.87 173.62 C 133.89 173.74 134.81 173.00 134.92 171.98 L 135.04 170.98 C 135.15 169.96 134.42 169.04 133.40 168.92 C 132.38 168.81 131.46 169.54 131.34 170.56 Z M 131.25 171.53 L 131.12 172.53 C 130.98 173.54 131.69 174.46 132.70 174.60 C 133.71 174.74 134.63 174.03 134.77 173.02 L 134.90 172.02 C 135.04 171.01 134.33 170.08 133.32 169.95 C 132.31 169.81 131.38 170.52 131.25 171.53 Z M 131.13 172.49 L 130.98 173.46 C 130.82 174.46 131.51 175.40 132.51 175.55 C 133.51 175.71 134.44 175.03 134.60 174.03 L 134.75 173.06 C 134.91 172.06 134.23 171.12 133.23 170.96 C 132.23 170.81 131.29 171.49 131.13 172.49 Z M 130.99 173.47 L 130.85 174.40 C 130.70 175.39 131.38 176.32 132.38 176.47 C 133.37 176.62 134.30 175.94 134.45 174.94 L 134.59 174.02 C 134.74 173.02 134.06 172.09 133.06 171.94 C 132.07 171.79 131.14 172.48 130.99 173.47 Z M 130.86 174.35 L 130.68 175.37 C 130.50 176.36 131.16 177.31 132.14 177.48 C 133.13 177.66 134.08 177.01 134.25 176.02 L 134.44 174.99 C 134.62 174.00 133.96 173.06 132.97 172.88 C 131.99 172.70 131.04 173.36 130.86 174.35 Z M 130.70 175.30 L 130.48 176.25 C 130.26 177.23 130.87 178.20 131.85 178.42 C 132.82 178.64 133.79 178.03 134.02 177.06 L 134.23 176.10 C 134.45 175.12 133.84 174.15 132.87 173.93 C 131.89 173.71 130.92 174.32 130.70 175.30 Z M 130.50 176.19 L 130.23 177.18 C 129.97 178.15 130.55 179.14 131.51 179.40 C 132.48 179.66 133.47 179.09 133.73 178.12 L 134.00 177.13 C 134.26 176.16 133.68 175.17 132.72 174.91 C 131.75 174.65 130.76 175.22 130.50 176.19 Z M 130.27 177.07 L 129.93 178.06 C 129.61 179.01 130.12 180.03 131.06 180.35 C 132.01 180.67 133.03 180.17 133.35 179.22 L 133.69 178.23 C 134.01 177.29 133.51 176.26 132.56 175.94 C 131.62 175.62 130.59 176.13 130.27 177.07 Z M 130.05 177.81 L 129.60 178.66 C 129.14 179.55 129.48 180.63 130.37 181.09 C 131.25 181.56 132.34 181.21 132.80 180.33 L 133.24 179.48 C 133.70 178.60 133.36 177.51 132.48 177.05 C 131.59 176.59 130.51 176.93 130.05 177.81 Z M 129.89 178.27 L 129.22 178.97 C 128.54 179.70 128.58 180.84 129.30 181.52 C 130.03 182.20 131.17 182.16 131.85 181.44 L 132.51 180.73 C 133.19 180.00 133.16 178.86 132.43 178.18 C 131.71 177.50 130.57 177.54 129.89 178.27 Z M 129.64 178.64 L 128.77 179.14 C 127.91 179.63 127.61 180.73 128.10 181.59 C 128.59 182.46 129.69 182.76 130.55 182.27 L 131.42 181.77 C 132.29 181.28 132.59 180.18 132.10 179.31 C 131.61 178.45 130.51 178.15 129.64 178.64 Z M 129.18 178.97 L 128.22 179.24 C 127.26 179.50 126.71 180.50 126.97 181.45 C 127.24 182.41 128.23 182.97 129.19 182.70 L 130.15 182.43 C 131.10 182.17 131.66 181.17 131.39 180.22 C 131.13 179.26 130.13 178.70 129.18 178.97 Z M 128.46 179.19 L 127.46 179.33 C 126.47 179.46 125.79 180.37 125.92 181.36 C 126.06 182.34 126.97 183.03 127.95 182.89 L 128.95 182.75 C 129.94 182.61 130.63 181.71 130.49 180.72 C 130.35 179.74 129.44 179.05 128.46 179.19 Z M 127.53 179.28 L 126.51 179.38 C 125.50 179.47 124.76 180.37 124.86 181.38 C 124.95 182.39 125.85 183.13 126.86 183.03 L 127.88 182.94 C 128.89 182.84 129.63 181.94 129.53 180.94 C 129.44 179.93 128.54 179.19 127.53 179.28 Z M 126.43 179.31 L 125.46 179.43 C 124.42 179.57 123.68 180.54 123.82 181.58 C 123.96 182.63 124.92 183.37 125.97 183.23 L 126.94 183.10 C 127.99 182.96 128.72 182.00 128.58 180.95 C 128.44 179.90 127.48 179.17 126.43 179.31 Z M 125.16 179.36 L 124.03 179.68 C 122.94 179.98 122.31 181.12 122.62 182.21 C 122.93 183.30 124.06 183.93 125.15 183.62 L 126.27 183.31 C 127.36 183.00 128.00 181.87 127.69 180.77 C 127.38 179.68 126.25 179.05 125.16 179.36 Z M 123.93 183.73 L 124.19 183.82 C 125.34 184.18 126.57 183.55 126.94 182.40 C 127.31 181.25 126.67 180.02 125.52 179.65 L 125.25 179.57 C 124.10 179.20 122.87 179.84 122.51 180.99 C 122.14 182.14 122.78 183.37 123.93 183.73 Z M 125.22 183.94 L 126.43 183.75 C 127.65 183.55 128.48 182.40 128.28 181.18 C 128.08 179.96 126.93 179.13 125.71 179.33 L 124.50 179.53 C 123.28 179.73 122.45 180.88 122.65 182.10 C 122.85 183.32 124.00 184.14 125.22 183.94 Z M 126.61 183.72 L 127.61 183.47 C 128.82 183.18 129.56 181.96 129.26 180.76 C 128.97 179.55 127.75 178.81 126.55 179.11 L 125.54 179.36 C 124.33 179.65 123.60 180.87 123.89 182.07 C 124.19 183.28 125.40 184.01 126.61 183.72 Z M 127.70 183.44 L 128.68 183.16 C 129.86 182.82 130.55 181.58 130.21 180.39 C 129.87 179.20 128.63 178.52 127.44 178.86 L 126.46 179.14 C 125.27 179.48 124.59 180.72 124.93 181.91 C 125.27 183.10 126.51 183.78 127.70 183.44 Z M 128.72 183.14 L 129.69 182.83 C 130.87 182.47 131.53 181.22 131.16 180.04 C 130.79 178.87 129.54 178.21 128.37 178.58 L 127.39 178.88 C 126.22 179.25 125.56 180.50 125.93 181.67 C 126.30 182.85 127.55 183.50 128.72 183.14 Z M 129.72 182.80 L 130.69 182.48 C 131.85 182.10 132.48 180.86 132.10 179.70 C 131.72 178.54 130.47 177.91 129.32 178.29 L 128.34 178.61 C 127.19 178.99 126.56 180.24 126.94 181.39 C 127.31 182.55 128.56 183.18 129.72 182.80 Z M 130.70 182.43 L 131.64 182.11 C 132.77 181.72 133.37 180.49 132.98 179.37 C 132.60 178.24 131.37 177.64 130.24 178.02 L 129.31 178.34 C 128.18 178.73 127.58 179.96 127.96 181.09 C 128.35 182.21 129.58 182.81 130.70 182.43 Z M 131.65 182.05 L 132.58 181.72 C 133.67 181.33 134.24 180.12 133.85 179.02 C 133.46 177.93 132.25 177.36 131.16 177.75 L 130.23 178.08 C 129.14 178.47 128.57 179.68 128.96 180.77 C 129.35 181.87 130.56 182.44 131.65 182.05 Z M 132.58 181.66 L 133.51 181.32 C 134.57 180.93 135.11 179.74 134.72 178.67 C 134.32 177.61 133.14 177.06 132.07 177.46 L 131.15 177.80 C 130.08 178.20 129.54 179.39 129.94 180.45 C 130.33 181.52 131.52 182.06 132.58 181.66 Z M 133.52 181.27 L 134.45 180.91 C 135.49 180.50 136.01 179.34 135.61 178.30 C 135.20 177.26 134.04 176.75 133.00 177.15 L 132.06 177.51 C 131.02 177.91 130.51 179.08 130.91 180.12 C 131.31 181.16 132.48 181.67 133.52 181.27 Z M 134.47 180.85 L 135.41 180.47 C 136.42 180.06 136.91 178.91 136.50 177.90 C 136.08 176.89 134.93 176.41 133.93 176.82 L 132.98 177.20 C 131.97 177.61 131.49 178.76 131.90 179.77 C 132.31 180.78 133.46 181.26 134.47 180.85 Z M 135.43 180.42 L 136.42 179.99 C 137.40 179.57 137.85 178.44 137.43 177.46 C 137.01 176.48 135.88 176.03 134.90 176.45 L 133.91 176.87 C 132.93 177.29 132.48 178.43 132.90 179.40 C 133.32 180.38 134.45 180.84 135.43 180.42 Z M 136.42 179.94 L 137.33 179.54 C 138.28 179.12 138.71 178.01 138.29 177.06 C 137.87 176.10 136.75 175.67 135.80 176.10 L 134.89 176.50 C 133.94 176.92 133.51 178.03 133.93 178.98 C 134.35 179.94 135.47 180.37 136.42 179.94 Z M 137.31 179.51 L 138.22 179.10 C 139.16 178.69 139.58 177.60 139.16 176.67 C 138.75 175.73 137.66 175.31 136.73 175.73 L 135.81 176.13 C 134.88 176.54 134.46 177.64 134.87 178.57 C 135.29 179.50 136.38 179.92 137.31 179.51 Z M 138.22 179.08 L 139.10 178.68 C 140.02 178.27 140.43 177.20 140.02 176.28 C 139.61 175.36 138.54 174.95 137.62 175.36 L 136.73 175.75 C 135.82 176.16 135.40 177.24 135.81 178.16 C 136.22 179.07 137.30 179.49 138.22 179.08 Z M 139.14 178.65 L 140.01 178.23 C 140.91 177.80 141.28 176.72 140.85 175.82 C 140.42 174.92 139.34 174.54 138.44 174.98 L 137.58 175.39 C 136.68 175.83 136.30 176.91 136.73 177.80 C 137.17 178.70 138.24 179.08 139.14 178.65 Z M 140.03 178.21 L 140.93 177.76 C 141.82 177.31 142.17 176.23 141.73 175.34 C 141.28 174.46 140.20 174.10 139.31 174.55 L 138.41 175.00 C 137.52 175.44 137.17 176.53 137.62 177.42 C 138.06 178.30 139.15 178.66 140.03 178.21 Z M 140.91 177.77 L 141.81 177.33 C 142.70 176.89 143.07 175.81 142.63 174.92 C 142.19 174.03 141.12 173.66 140.22 174.10 L 139.33 174.54 C 138.43 174.98 138.06 176.05 138.50 176.95 C 138.94 177.84 140.02 178.21 140.91 177.77 Z M 141.80 177.33 L 142.18 177.15 C 143.07 176.72 143.44 175.64 143.01 174.75 C 142.58 173.85 141.50 173.48 140.61 173.91 L 140.23 174.09 C 139.34 174.53 138.96 175.60 139.40 176.50 C 139.83 177.39 140.91 177.77 141.80 177.33 Z"
      fill="black"
      fill-rule="nonzero" /><path d="M 154.98 147.37 L 155.86 147.86 C 156.83 148.40 158.05 148.05 158.58 147.09 C 159.12 146.12 158.77 144.90 157.81 144.37 L 156.93 143.88 C 155.96 143.34 154.74 143.69 154.21 144.65 C 153.67 145.62 154.02 146.84 154.98 147.37 Z M 156.15 148.11 L 157.08 148.43 C 158.19 148.81 159.39 148.22 159.77 147.12 C 160.15 146.02 159.56 144.82 158.46 144.44 L 157.52 144.12 C 156.42 143.74 155.22 144.32 154.84 145.43 C 154.46 146.53 155.05 147.73 156.15 148.11 Z M 157.69 148.60 L 158.61 148.64 C 159.80 148.68 160.81 147.75 160.86 146.55 C 160.90 145.36 159.97 144.35 158.78 144.30 L 157.85 144.27 C 156.66 144.22 155.65 145.16 155.60 146.35 C 155.56 147.55 156.49 148.55 157.69 148.60 Z M 159.01 148.61 L 160.03 148.46 C 161.21 148.28 162.03 147.18 161.85 146.00 C 161.67 144.81 160.57 144.00 159.39 144.18 L 158.37 144.33 C 157.19 144.51 156.38 145.61 156.55 146.79 C 156.73 147.97 157.83 148.79 159.01 148.61 Z M 160.17 148.42 L 161.20 148.20 C 162.36 147.94 163.09 146.79 162.84 145.63 C 162.58 144.47 161.44 143.73 160.27 143.99 L 159.25 144.21 C 158.09 144.47 157.35 145.62 157.61 146.78 C 157.86 147.94 159.01 148.68 160.17 148.42 Z M 161.23 148.17 L 162.23 147.94 C 163.38 147.66 164.09 146.51 163.82 145.36 C 163.55 144.21 162.39 143.50 161.24 143.77 L 160.24 144.01 C 159.09 144.28 158.38 145.44 158.65 146.59 C 158.93 147.74 160.08 148.45 161.23 148.17 Z M 162.24 147.92 L 163.18 147.69 C 164.32 147.41 165.02 146.26 164.74 145.12 C 164.46 143.98 163.31 143.28 162.17 143.56 L 161.24 143.79 C 160.09 144.07 159.39 145.22 159.67 146.36 C 159.95 147.50 161.10 148.20 162.24 147.92 Z M 163.17 147.67 L 164.21 147.42 C 165.34 147.15 166.04 146.01 165.76 144.88 C 165.49 143.75 164.35 143.05 163.22 143.33 L 162.18 143.58 C 161.05 143.85 160.35 144.99 160.63 146.12 C 160.90 147.25 162.04 147.95 163.17 147.67 Z M 164.23 147.39 L 165.13 147.16 C 166.24 146.87 166.91 145.74 166.62 144.63 C 166.34 143.52 165.21 142.85 164.10 143.13 L 163.20 143.36 C 162.09 143.65 161.42 144.78 161.70 145.89 C 161.99 147.00 163.12 147.67 164.23 147.39 Z M 165.19 147.11 L 166.14 146.84 C 167.23 146.52 167.85 145.38 167.54 144.29 C 167.22 143.20 166.08 142.58 164.99 142.90 L 164.04 143.17 C 162.95 143.49 162.33 144.63 162.64 145.72 C 162.96 146.81 164.10 147.43 165.19 147.11 Z M 166.16 146.81 L 167.11 146.51 C 168.19 146.19 168.79 145.06 168.46 143.98 C 168.14 142.91 167.01 142.31 165.93 142.63 L 164.98 142.93 C 163.90 143.25 163.30 144.38 163.63 145.46 C 163.95 146.53 165.09 147.13 166.16 146.81 Z M 167.10 146.49 L 168.05 146.20 C 169.11 145.88 169.71 144.77 169.39 143.71 C 169.07 142.65 167.95 142.05 166.90 142.37 L 165.95 142.66 C 164.89 142.98 164.29 144.09 164.61 145.15 C 164.93 146.21 166.04 146.81 167.10 146.49 Z M 168.07 146.17 L 169.04 145.86 C 170.08 145.53 170.65 144.42 170.32 143.38 C 169.99 142.34 168.88 141.77 167.84 142.10 L 166.88 142.41 C 165.84 142.74 165.26 143.85 165.59 144.88 C 165.92 145.92 167.03 146.50 168.07 146.17 Z M 169.06 145.82 L 170.02 145.50 C 171.03 145.15 171.58 144.05 171.23 143.04 C 170.89 142.02 169.79 141.48 168.78 141.82 L 167.82 142.14 C 166.81 142.49 166.26 143.59 166.60 144.60 C 166.95 145.61 168.05 146.16 169.06 145.82 Z M 170.00 145.46 L 170.96 145.14 C 171.96 144.81 172.49 143.73 172.16 142.73 C 171.82 141.73 170.74 141.20 169.75 141.53 L 168.79 141.85 C 167.79 142.19 167.26 143.27 167.59 144.26 C 167.92 145.26 169.00 145.80 170.00 145.46 Z M 170.94 145.12 L 171.89 144.80 C 172.87 144.48 173.40 143.42 173.08 142.43 C 172.75 141.45 171.69 140.92 170.71 141.24 L 169.76 141.56 C 168.78 141.88 168.25 142.94 168.57 143.93 C 168.90 144.91 169.96 145.44 170.94 145.12 Z M 171.92 144.76 L 172.86 144.43 C 173.82 144.08 174.32 143.02 173.98 142.06 C 173.63 141.10 172.57 140.60 171.61 140.95 L 170.67 141.28 C 169.71 141.63 169.21 142.69 169.56 143.65 C 169.90 144.61 170.96 145.11 171.92 144.76 Z M 172.91 144.39 L 173.83 144.02 C 174.77 143.65 175.23 142.59 174.85 141.65 C 174.48 140.71 173.42 140.25 172.48 140.62 L 171.56 140.99 C 170.63 141.36 170.17 142.42 170.54 143.36 C 170.91 144.30 171.97 144.76 172.91 144.39 Z M 173.86 143.99 L 174.73 143.62 C 175.65 143.23 176.08 142.17 175.69 141.24 C 175.30 140.32 174.24 139.89 173.31 140.29 L 172.44 140.65 C 171.52 141.05 171.09 142.11 171.49 143.03 C 171.88 143.95 172.94 144.38 173.86 143.99 Z M 174.78 143.59 L 175.71 143.16 C 176.61 142.74 177.01 141.67 176.59 140.77 C 176.17 139.86 175.10 139.47 174.19 139.89 L 173.26 140.32 C 172.36 140.73 171.97 141.81 172.38 142.71 C 172.80 143.62 173.88 144.01 174.78 143.59 Z M 175.74 143.14 L 176.62 142.71 C 177.51 142.28 177.88 141.20 177.45 140.31 C 177.01 139.41 175.93 139.04 175.04 139.48 L 174.16 139.91 C 173.26 140.34 172.89 141.42 173.33 142.32 C 173.77 143.21 174.84 143.58 175.74 143.14 Z M 176.63 142.71 L 177.58 142.24 C 178.47 141.80 178.83 140.71 178.39 139.82 C 177.94 138.93 176.86 138.57 175.97 139.01 L 175.03 139.48 C 174.14 139.93 173.77 141.01 174.22 141.90 C 174.66 142.79 175.74 143.15 176.63 142.71 Z"
      fill="black"
      fill-rule="nonzero" /><path d="M 168.60 132.35 L 168.48 133.24 C 168.32 134.34 169.09 135.36 170.19 135.51 C 171.29 135.67 172.31 134.90 172.46 133.80 L 172.59 132.90 C 172.74 131.80 171.97 130.79 170.87 130.63 C 169.77 130.48 168.76 131.25 168.60 132.35 Z M 168.34 133.47 L 168.32 134.55 C 168.29 135.72 169.22 136.70 170.40 136.73 C 171.57 136.75 172.55 135.82 172.57 134.65 L 172.60 133.57 C 172.63 132.39 171.69 131.42 170.52 131.39 C 169.34 131.37 168.37 132.30 168.34 133.47 Z M 168.26 134.76 L 168.33 135.74 C 168.42 136.94 169.47 137.85 170.68 137.76 C 171.89 137.67 172.79 136.62 172.70 135.42 L 172.63 134.44 C 172.54 133.23 171.49 132.32 170.28 132.41 C 169.08 132.50 168.17 133.55 168.26 134.76 Z M 168.32 135.82 L 168.44 136.86 C 168.57 138.07 169.67 138.94 170.88 138.80 C 172.09 138.67 172.97 137.57 172.83 136.36 L 172.71 135.33 C 172.58 134.12 171.48 133.24 170.27 133.38 C 169.06 133.52 168.19 134.61 168.32 135.82 Z M 168.43 136.89 L 168.56 137.92 C 168.71 139.14 169.83 140.00 171.04 139.85 C 172.26 139.69 173.13 138.58 172.97 137.36 L 172.84 136.33 C 172.69 135.11 171.57 134.25 170.35 134.40 C 169.13 134.56 168.27 135.67 168.43 136.89 Z M 168.55 137.93 L 168.67 138.91 C 168.83 140.13 169.95 141.00 171.18 140.84 C 172.40 140.68 173.27 139.56 173.11 138.34 L 172.98 137.35 C 172.82 136.13 171.70 135.27 170.48 135.42 C 169.25 135.58 168.39 136.70 168.55 137.93 Z M 168.67 138.90 L 168.78 139.84 C 168.94 141.07 170.06 141.94 171.29 141.79 C 172.52 141.63 173.39 140.51 173.23 139.28 L 173.12 138.34 C 172.96 137.11 171.84 136.24 170.61 136.40 C 169.38 136.55 168.51 137.67 168.67 138.90 Z M 168.78 139.83 L 168.89 140.79 C 169.04 142.02 170.16 142.90 171.39 142.75 C 172.62 142.61 173.50 141.49 173.35 140.26 L 173.24 139.30 C 173.09 138.07 171.98 137.19 170.74 137.33 C 169.51 137.48 168.63 138.60 168.78 139.83 Z M 168.89 140.77 L 169.00 141.80 C 169.14 143.04 170.25 143.93 171.48 143.79 C 172.72 143.65 173.61 142.54 173.47 141.31 L 173.36 140.28 C 173.22 139.04 172.11 138.15 170.88 138.29 C 169.64 138.43 168.75 139.54 168.89 140.77 Z M 169.00 141.78 L 169.10 142.77 C 169.23 144.00 170.33 144.90 171.57 144.78 C 172.80 144.65 173.70 143.55 173.58 142.31 L 173.48 141.33 C 173.35 140.09 172.24 139.19 171.01 139.32 C 169.77 139.44 168.87 140.55 169.00 141.78 Z M 169.10 142.75 L 169.19 143.75 C 169.31 144.99 170.40 145.90 171.64 145.78 C 172.88 145.66 173.79 144.57 173.67 143.33 L 173.58 142.33 C 173.46 141.09 172.37 140.18 171.13 140.30 C 169.89 140.41 168.98 141.51 169.10 142.75 Z M 169.19 143.73 L 169.27 144.74 C 169.38 145.98 170.47 146.90 171.71 146.80 C 172.95 146.69 173.87 145.60 173.76 144.36 L 173.68 143.35 C 173.57 142.11 172.48 141.19 171.24 141.29 C 170.00 141.40 169.08 142.49 169.19 143.73 Z M 169.27 144.72 L 169.35 145.71 C 169.44 146.95 170.52 147.88 171.76 147.79 C 173.00 147.69 173.93 146.61 173.84 145.37 L 173.76 144.38 C 173.67 143.14 172.59 142.21 171.35 142.31 C 170.11 142.40 169.18 143.48 169.27 144.72 Z M 169.35 145.70 L 169.42 146.70 C 169.51 147.94 170.58 148.87 171.82 148.78 C 173.06 148.70 173.99 147.62 173.91 146.38 L 173.84 145.39 C 173.75 144.15 172.67 143.21 171.44 143.30 C 170.20 143.39 169.26 144.46 169.35 145.70 Z M 169.42 146.69 L 169.49 147.69 C 169.58 148.93 170.65 149.87 171.88 149.78 C 173.12 149.70 174.06 148.62 173.97 147.39 L 173.90 146.39 C 173.82 145.15 172.75 144.22 171.51 144.30 C 170.27 144.38 169.34 145.46 169.42 146.69 Z M 169.49 147.69 L 169.56 148.68 C 169.64 149.92 170.71 150.85 171.95 150.77 C 173.19 150.68 174.12 149.61 174.04 148.38 L 173.97 147.39 C 173.89 146.15 172.82 145.22 171.58 145.30 C 170.34 145.39 169.41 146.45 169.49 147.69 Z M 169.56 148.67 L 169.63 149.67 C 169.71 150.91 170.77 151.85 172.01 151.77 C 173.24 151.69 174.18 150.62 174.10 149.39 L 174.03 148.39 C 173.95 147.15 172.89 146.21 171.66 146.29 C 170.42 146.37 169.48 147.44 169.56 148.67 Z M 169.63 149.66 L 169.69 150.67 C 169.76 151.90 170.82 152.84 172.05 152.77 C 173.28 152.70 174.22 151.64 174.15 150.41 L 174.09 149.40 C 174.02 148.17 172.97 147.23 171.73 147.30 C 170.50 147.37 169.56 148.43 169.63 149.66 Z M 169.70 150.65 L 169.75 151.65 C 169.81 152.88 170.85 153.82 172.08 153.76 C 173.31 153.70 174.26 152.65 174.19 151.42 L 174.14 150.43 C 174.08 149.20 173.04 148.25 171.81 148.31 C 170.58 148.38 169.63 149.42 169.70 150.65 Z M 169.76 151.63 L 169.80 152.63 C 169.85 153.85 170.88 154.80 172.11 154.75 C 173.33 154.70 174.28 153.67 174.23 152.44 L 174.19 151.44 C 174.13 150.22 173.10 149.27 171.88 149.32 C 170.65 149.37 169.70 150.41 169.76 151.63 Z M 169.81 152.61 L 169.84 153.62 C 169.88 154.83 170.90 155.79 172.12 155.75 C 173.34 155.70 174.29 154.68 174.25 153.47 L 174.22 152.46 C 174.18 151.24 173.15 150.29 171.94 150.33 C 170.72 150.37 169.76 151.40 169.81 152.61 Z M 169.85 153.60 L 169.88 154.60 C 169.91 155.82 170.92 156.77 172.13 156.74 C 173.35 156.71 174.30 155.70 174.27 154.48 L 174.24 153.48 C 174.21 152.27 173.20 151.31 171.99 151.34 C 170.77 151.38 169.82 152.39 169.85 153.60 Z M 169.89 154.59 L 169.91 155.59 C 169.94 156.80 170.94 157.76 172.15 157.73 C 173.35 157.70 174.31 156.70 174.28 155.49 L 174.26 154.49 C 174.23 153.29 173.23 152.33 172.02 152.36 C 170.82 152.39 169.86 153.39 169.89 154.59 Z M 169.92 155.59 L 169.94 156.58 C 169.97 157.78 170.96 158.74 172.16 158.71 C 173.37 158.69 174.32 157.69 174.29 156.49 L 174.27 155.49 C 174.25 154.29 173.25 153.34 172.05 153.36 C 170.85 153.39 169.89 154.39 169.92 155.59 Z M 169.95 156.58 L 169.97 157.58 C 170.00 158.77 170.99 159.72 172.19 159.70 C 173.38 159.67 174.33 158.68 174.31 157.48 L 174.29 156.49 C 174.26 155.29 173.27 154.34 172.07 154.37 C 170.87 154.39 169.92 155.38 169.95 156.58 Z M 169.98 157.58 L 170.00 158.58 C 170.03 159.77 171.02 160.72 172.21 160.69 C 173.40 160.66 174.35 159.68 174.32 158.48 L 174.30 157.48 C 174.27 156.29 173.28 155.34 172.09 155.37 C 170.90 155.39 169.95 156.38 169.98 157.58 Z M 170.01 158.58 L 170.03 159.60 C 170.06 160.79 171.05 161.73 172.23 161.70 C 173.42 161.67 174.36 160.69 174.34 159.50 L 174.31 158.48 C 174.29 157.29 173.30 156.35 172.11 156.38 C 170.92 156.40 169.98 157.39 170.01 158.58 Z M 170.04 159.60 L 170.07 160.63 C 170.09 161.81 171.08 162.75 172.26 162.72 C 173.44 162.69 174.38 161.71 174.35 160.52 L 174.33 159.50 C 174.30 158.31 173.32 157.38 172.13 157.41 C 170.95 157.43 170.01 158.42 170.04 159.60 Z M 170.07 160.63 L 170.10 161.62 C 170.13 162.79 171.11 163.73 172.29 163.70 C 173.47 163.67 174.40 162.69 174.37 161.51 L 174.34 160.52 C 174.31 159.34 173.34 158.41 172.16 158.44 C 170.98 158.47 170.05 159.45 170.07 160.63 Z M 170.11 161.62 L 170.13 162.63 C 170.16 163.81 171.14 164.74 172.31 164.71 C 173.49 164.68 174.42 163.70 174.39 162.53 L 174.36 161.51 C 174.33 160.33 173.35 159.41 172.18 159.44 C 171.00 159.47 170.08 160.44 170.11 161.62 Z M 170.14 162.64 L 170.17 163.64 C 170.20 164.81 171.17 165.74 172.34 165.71 C 173.51 165.67 174.44 164.70 174.41 163.53 L 174.38 162.52 C 174.35 161.35 173.37 160.43 172.20 160.46 C 171.03 160.49 170.11 161.47 170.14 162.64 Z M 170.17 163.64 L 170.20 164.60 C 170.23 165.77 171.20 166.69 172.37 166.65 C 173.54 166.62 174.46 165.65 174.43 164.48 L 174.40 163.53 C 174.37 162.36 173.40 161.44 172.23 161.47 C 171.06 161.50 170.14 162.47 170.17 163.64 Z M 170.20 164.60 L 170.23 165.61 C 170.26 166.78 171.23 167.70 172.40 167.67 C 173.56 167.64 174.48 166.67 174.45 165.50 L 174.42 164.48 C 174.39 163.32 173.42 162.40 172.26 162.43 C 171.09 162.46 170.17 163.43 170.20 164.60 Z M 170.23 165.60 L 170.25 166.58 C 170.28 167.74 171.24 168.67 172.41 168.64 C 173.57 168.62 174.49 167.65 174.47 166.49 L 174.45 165.51 C 174.42 164.35 173.46 163.43 172.30 163.45 C 171.13 163.48 170.21 164.44 170.23 165.60 Z M 170.26 166.56 L 170.27 167.50 C 170.28 168.66 171.23 169.59 172.39 169.58 C 173.55 169.57 174.48 168.62 174.47 167.46 L 174.46 166.52 C 174.45 165.35 173.50 164.42 172.34 164.43 C 171.18 164.45 170.25 165.40 170.26 166.56 Z M 170.27 167.48 L 170.27 168.51 C 170.28 169.67 171.22 170.60 172.38 170.60 C 173.53 170.60 174.47 169.66 174.47 168.50 L 174.47 167.47 C 174.47 166.31 173.53 165.38 172.37 165.38 C 171.21 165.38 170.27 166.32 170.27 167.48 Z M 170.28 168.50 L 170.28 169.53 C 170.28 170.69 171.21 171.63 172.37 171.63 C 173.53 171.63 174.47 170.69 174.47 169.53 L 174.47 168.50 C 174.47 167.35 173.53 166.41 172.37 166.41 C 171.21 166.41 170.28 167.35 170.28 168.50 Z M 170.28 169.53 L 170.28 170.57 C 170.28 171.73 171.22 172.67 172.37 172.67 C 173.53 172.67 174.46 171.73 174.46 170.57 L 174.46 169.53 C 174.46 168.38 173.53 167.44 172.37 167.44 C 171.22 167.44 170.28 168.38 170.28 169.53 Z M 170.28 170.57 L 170.28 171.56 C 170.28 172.71 171.22 173.65 172.37 173.65 C 173.53 173.65 174.46 172.71 174.46 171.56 L 174.46 170.57 C 174.46 169.42 173.53 168.49 172.37 168.49 C 171.22 168.49 170.28 169.42 170.28 170.57 Z M 170.29 171.55 L 170.28 172.59 C 170.28 173.74 171.21 174.68 172.36 174.68 C 173.51 174.69 174.45 173.76 174.45 172.61 L 174.46 171.56 C 174.46 170.41 173.53 169.48 172.38 169.47 C 171.23 169.47 170.29 170.40 170.29 171.55 Z M 170.29 172.54 L 170.27 173.48 C 170.23 174.63 171.14 175.58 172.28 175.62 C 173.43 175.65 174.38 174.75 174.42 173.60 L 174.44 172.66 C 174.48 171.51 173.57 170.56 172.43 170.52 C 171.28 170.49 170.32 171.39 170.29 172.54 Z M 170.30 173.16 L 170.12 174.16 C 169.91 175.28 170.66 176.36 171.78 176.57 C 172.91 176.78 173.99 176.04 174.19 174.91 L 174.38 173.92 C 174.59 172.79 173.84 171.71 172.72 171.50 C 171.59 171.30 170.51 172.04 170.30 173.16 Z M 170.72 173.04 L 170.09 173.65 C 169.27 174.44 169.24 175.75 170.03 176.58 C 170.82 177.40 172.13 177.43 172.96 176.64 L 173.59 176.03 C 174.41 175.24 174.44 173.93 173.65 173.10 C 172.86 172.28 171.55 172.25 170.72 173.04 Z M 171.23 173.10 L 170.22 173.25 C 169.09 173.41 168.31 174.46 168.48 175.59 C 168.64 176.71 169.69 177.50 170.81 177.33 L 171.82 177.19 C 172.95 177.02 173.73 175.98 173.57 174.85 C 173.40 173.72 172.36 172.94 171.23 173.10 Z M 170.81 173.25 L 169.76 173.11 C 168.64 172.95 167.60 173.73 167.44 174.85 C 167.28 175.97 168.06 177.01 169.18 177.17 L 170.23 177.32 C 171.35 177.48 172.39 176.70 172.55 175.58 C 172.71 174.46 171.93 173.41 170.81 173.25 Z M 170.11 173.21 L 169.18 172.89 C 168.11 172.54 166.95 173.12 166.60 174.19 C 166.24 175.25 166.82 176.41 167.89 176.76 L 168.83 177.08 C 169.90 177.43 171.05 176.85 171.41 175.78 C 171.76 174.71 171.18 173.56 170.11 173.21 Z M 169.37 172.99 L 168.47 172.58 C 167.45 172.13 166.26 172.58 165.80 173.59 C 165.34 174.60 165.79 175.80 166.80 176.26 L 167.70 176.67 C 168.72 177.12 169.91 176.67 170.37 175.66 C 170.83 174.65 170.38 173.45 169.37 172.99 Z M 168.60 172.68 L 167.74 172.20 C 166.78 171.67 165.57 172.01 165.03 172.97 C 164.50 173.93 164.84 175.14 165.80 175.68 L 166.67 176.16 C 167.63 176.69 168.84 176.35 169.37 175.39 C 169.91 174.43 169.56 173.22 168.60 172.68 Z M 167.83 172.27 L 167.01 171.76 C 166.09 171.17 164.87 171.45 164.29 172.37 C 163.70 173.28 163.98 174.50 164.90 175.09 L 165.71 175.60 C 166.63 176.19 167.85 175.91 168.43 175.00 C 169.02 174.08 168.74 172.86 167.83 172.27 Z M 167.04 171.79 L 166.18 171.22 C 165.28 170.62 164.06 170.86 163.46 171.76 C 162.86 172.67 163.11 173.88 164.01 174.48 L 164.87 175.05 C 165.77 175.65 166.99 175.41 167.59 174.51 C 168.19 173.61 167.94 172.39 167.04 171.79 Z M 166.18 171.23 L 165.36 170.68 C 164.46 170.08 163.25 170.32 162.65 171.22 C 162.05 172.11 162.29 173.33 163.19 173.93 L 164.01 174.48 C 164.90 175.08 166.12 174.83 166.72 173.94 C 167.32 173.04 167.08 171.83 166.18 171.23 Z M 165.36 170.68 L 164.51 170.11 C 163.62 169.52 162.41 169.76 161.81 170.65 C 161.21 171.55 161.45 172.76 162.34 173.36 L 163.19 173.92 C 164.08 174.52 165.30 174.28 165.89 173.39 C 166.49 172.49 166.25 171.28 165.36 170.68 Z M 164.51 170.12 L 163.68 169.56 C 162.79 168.96 161.58 169.20 160.98 170.09 C 160.38 170.99 160.62 172.20 161.51 172.80 L 162.34 173.35 C 163.24 173.95 164.45 173.71 165.05 172.82 C 165.65 171.93 165.41 170.72 164.51 170.12 Z M 163.68 169.56 L 162.85 169.00 C 161.96 168.40 160.74 168.64 160.14 169.53 C 159.54 170.43 159.78 171.64 160.68 172.24 L 161.51 172.80 C 162.41 173.40 163.62 173.16 164.22 172.26 C 164.82 171.37 164.58 170.16 163.68 169.56 Z M 162.85 169.00 L 162.04 168.45 C 161.15 167.85 159.93 168.09 159.33 168.99 C 158.73 169.89 158.97 171.11 159.87 171.71 L 160.68 172.25 C 161.58 172.85 162.79 172.61 163.39 171.71 C 163.99 170.81 163.75 169.60 162.85 169.00 Z M 162.04 168.44 L 161.20 167.89 C 160.30 167.29 159.08 167.54 158.48 168.45 C 157.89 169.35 158.13 170.57 159.04 171.16 L 159.87 171.72 C 160.78 172.31 162.00 172.07 162.59 171.16 C 163.19 170.26 162.94 169.04 162.04 168.44 Z M 161.20 167.87 L 160.34 167.32 C 159.43 166.72 158.20 166.98 157.61 167.90 C 157.02 168.81 157.28 170.04 158.19 170.63 L 159.04 171.19 C 159.96 171.78 161.18 171.52 161.78 170.60 C 162.37 169.69 162.11 168.46 161.20 167.87 Z M 160.36 167.29 L 159.51 166.74 C 158.58 166.14 157.34 166.40 156.74 167.33 C 156.13 168.25 156.40 169.50 157.32 170.10 L 158.17 170.65 C 159.10 171.26 160.34 171.00 160.95 170.07 C 161.55 169.14 161.29 167.90 160.36 167.29 Z M 159.56 166.73 L 158.73 166.17 C 157.80 165.53 156.53 165.77 155.89 166.70 C 155.26 167.64 155.50 168.91 156.43 169.54 L 157.27 170.11 C 158.20 170.74 159.47 170.50 160.10 169.57 C 160.74 168.64 160.50 167.37 159.56 166.73 Z M 158.92 166.22 L 158.05 165.51 C 157.14 164.77 155.81 164.90 155.08 165.81 C 154.34 166.71 154.47 168.04 155.38 168.78 L 156.25 169.49 C 157.15 170.23 158.48 170.09 159.22 169.19 C 159.95 168.29 159.82 166.95 158.92 166.22 Z M 158.71 166.20 L 158.37 165.48 C 157.85 164.38 156.53 163.90 155.43 164.42 C 154.33 164.94 153.85 166.26 154.37 167.36 L 154.71 168.08 C 155.23 169.19 156.55 169.66 157.65 169.14 C 158.76 168.62 159.23 167.30 158.71 166.20 Z M 158.34 167.55 L 158.81 166.73 C 159.43 165.64 159.05 164.26 157.97 163.64 C 156.88 163.02 155.50 163.39 154.88 164.48 L 154.41 165.30 C 153.79 166.38 154.16 167.76 155.25 168.39 C 156.33 169.01 157.71 168.63 158.34 167.55 Z M 158.32 167.33 L 159.10 166.66 C 160.06 165.84 160.17 164.40 159.35 163.45 C 158.53 162.50 157.10 162.39 156.14 163.20 L 155.36 163.88 C 154.41 164.69 154.30 166.13 155.12 167.08 C 155.93 168.03 157.37 168.14 158.32 167.33 Z M 158.93 166.78 L 159.75 166.21 C 160.77 165.49 161.02 164.07 160.30 163.05 C 159.58 162.03 158.16 161.78 157.14 162.50 L 156.32 163.08 C 155.30 163.80 155.05 165.21 155.77 166.23 C 156.49 167.26 157.90 167.50 158.93 166.78 Z M 159.67 166.23 L 160.49 165.70 C 161.53 165.02 161.82 163.62 161.14 162.59 C 160.46 161.55 159.07 161.26 158.03 161.94 L 157.21 162.48 C 156.18 163.16 155.89 164.55 156.57 165.58 C 157.25 166.62 158.64 166.91 159.67 166.23 Z M 160.45 165.69 L 161.31 165.14 C 162.34 164.48 162.64 163.11 161.99 162.08 C 161.33 161.05 159.96 160.74 158.92 161.40 L 158.07 161.95 C 157.04 162.61 156.74 163.98 157.39 165.01 C 158.05 166.04 159.42 166.34 160.45 165.69 Z M 161.27 165.12 L 162.13 164.58 C 163.15 163.95 163.46 162.60 162.82 161.58 C 162.18 160.57 160.84 160.25 159.82 160.89 L 158.97 161.43 C 157.95 162.06 157.64 163.40 158.27 164.42 C 158.91 165.44 160.25 165.75 161.27 165.12 Z M 162.09 164.54 L 162.94 164.01 C 163.94 163.39 164.24 162.08 163.62 161.09 C 163.00 160.09 161.70 159.79 160.70 160.41 L 159.85 160.94 C 158.86 161.55 158.55 162.86 159.17 163.86 C 159.79 164.85 161.10 165.16 162.09 164.54 Z M 162.93 163.95 L 163.78 163.40 C 164.74 162.79 165.02 161.52 164.41 160.56 C 163.80 159.60 162.53 159.32 161.57 159.93 L 160.71 160.47 C 159.75 161.08 159.47 162.36 160.08 163.32 C 160.70 164.28 161.97 164.56 162.93 163.95 Z M 163.77 163.33 L 164.60 162.79 C 165.52 162.18 165.78 160.94 165.17 160.02 C 164.56 159.10 163.32 158.84 162.40 159.45 L 161.57 160.00 C 160.65 160.61 160.40 161.85 161.01 162.77 C 161.61 163.69 162.85 163.94 163.77 163.33 Z M 164.57 162.73 L 165.41 162.17 C 166.30 161.58 166.54 160.38 165.95 159.49 C 165.36 158.60 164.16 158.36 163.27 158.95 L 162.43 159.51 C 161.54 160.10 161.30 161.30 161.89 162.19 C 162.48 163.08 163.68 163.32 164.57 162.73 Z M 165.37 162.14 L 166.21 161.59 C 167.08 161.02 167.32 159.86 166.75 158.99 C 166.18 158.11 165.02 157.87 164.14 158.44 L 163.31 158.99 C 162.44 159.56 162.19 160.72 162.76 161.59 C 163.33 162.46 164.50 162.71 165.37 162.14 Z M 166.17 161.57 L 167.02 161.03 C 167.87 160.48 168.12 159.34 167.57 158.48 C 167.02 157.62 165.88 157.37 165.02 157.92 L 164.18 158.46 C 163.32 159.01 163.07 160.16 163.62 161.01 C 164.17 161.87 165.32 162.12 166.17 161.57 Z M 166.99 161.01 L 167.68 160.57 C 168.53 160.03 168.77 158.91 168.24 158.06 C 167.70 157.22 166.57 156.97 165.73 157.51 L 165.04 157.94 C 164.20 158.48 163.95 159.61 164.49 160.45 C 165.03 161.30 166.15 161.55 166.99 161.01 Z"
      fill="black"
      fill-rule="nonzero" /></svg>