<svg xmlns="http://www.w3.org/2000/svg" width="300" height="300" viewBox="0 0 300 300">
<path d="M 129.34 129.59 L 128.49 130.25 C 127.65 130.90 127.50 132.11 128.15 132.95 C 128.80 133.79 130.01 133.94 130.85 133.29 L 131.70 132.63 C 132.54 131.98 132.69 130.77 132.04 129.93 C 131.39 129.09 130.18 128.94 129.34 129.59 Z M 128.45 133.35 L 128.91 133.71 C 129.79 134.38 131.04 134.23 131.72 133.35 C 132.39 132.48 132.24 131.23 131.36 130.55 L 130.90 130.19 C 130.03 129.51 128.77 129.67 128.09 130.54 C 127.42 131.41 127.58 132.67 128.45 133.35 Z M 129.90 134.19 L 131.08 134.32 C 132.22 134.46 133.25 133.64 133.38 132.50 C 133.51 131.37 132.70 130.34 131.56 130.21 L 130.38 130.07 C 129.24 129.94 128.21 130.75 128.08 131.89 C 127.95 133.03 128.76 134.06 129.90 134.19 Z M 131.26 134.37 L 132.27 134.41 C 133.44 134.44 134.41 133.53 134.45 132.36 C 134.49 131.20 133.57 130.22 132.40 130.19 L 131.39 130.16 C 130.22 130.12 129.25 131.03 129.21 132.20 C 129.18 133.36 130.09 134.34 131.26 134.37 Z M 132.33 134.42 L 133.33 134.42 C 134.50 134.43 135.45 133.48 135.46 132.31 C 135.46 131.14 134.52 130.18 133.34 130.18 L 132.35 130.17 C 131.18 130.17 130.22 131.12 130.22 132.29 C 130.21 133.46 131.16 134.41 132.33 134.42 Z M 133.33 134.43 L 134.37 134.43 C 135.54 134.43 136.50 133.48 136.50 132.30 C 136.50 131.12 135.54 130.17 134.37 130.17 L 133.33 130.17 C 132.16 130.17 131.21 131.12 131.21 132.30 C 131.21 133.48 132.16 134.43 133.33 134.43 Z M 134.37 134.43 L 135.32 134.43 C 136.50 134.43 137.46 133.48 137.46 132.30 C 137.46 131.12 136.50 130.17 135.32 130.17 L 134.37 130.17 C 133.19 130.17 132.23 131.12 132.23 132.30 C 132.23 133.48 133.19 134.43 134.37 134.43 Z M 135.32 134.44 L 136.31 134.44 C 137.49 134.44 138.44 133.48 138.44 132.30 C 138.44 131.12 137.49 130.16 136.31 130.16 L 135.32 130.16 C 134.14 130.16 133.19 131.12 133.19 132.30 C 133.19 133.48 134.14 134.44 135.32 134.44 Z M 136.31 134.44 L 137.31 134.44 C 138.49 134.44 139.45 133.48 139.45 132.30 C 139.45 131.12 138.49 130.16 137.31 130.16 L 136.31 130.16 C 135.12 130.16 134.17 131.12 134.17 132.30 C 134.17 133.48 135.12 134.44 136.31 134.44 Z M 137.32 134.44 L 138.31 134.44 C 139.49 134.44 140.44 133.47 140.44 132.29 C 140.44 131.11 139.48 130.15 138.29 130.16 L 137.31 130.16 C 136.12 130.16 135.17 131.12 135.17 132.31 C 135.18 133.49 136.14 134.45 137.32 134.44 Z M 138.33 134.44 L 139.35 134.43 C 140.53 134.41 141.48 133.44 141.47 132.26 C 141.45 131.08 140.48 130.13 139.30 130.14 L 138.27 130.15 C 137.09 130.17 136.14 131.14 136.16 132.32 C 136.17 133.51 137.14 134.46 138.33 134.44 Z M 139.38 134.43 L 140.37 134.40 C 141.56 134.37 142.49 133.39 142.46 132.20 C 142.43 131.02 141.44 130.08 140.26 130.12 L 139.27 130.14 C 138.08 130.17 137.15 131.16 137.18 132.34 C 137.21 133.53 138.20 134.46 139.38 134.43 Z M 140.41 134.40 L 141.42 134.35 C 142.60 134.30 143.52 133.30 143.47 132.12 C 143.42 130.94 142.41 130.02 141.23 130.07 L 140.22 130.12 C 139.04 130.17 138.12 131.17 138.18 132.35 C 138.23 133.54 139.23 134.45 140.41 134.40 Z M 141.47 134.35 L 142.46 134.29 C 143.64 134.21 144.53 133.19 144.46 132.01 C 144.38 130.83 143.36 129.93 142.18 130.01 L 141.19 130.08 C 140.01 130.16 139.11 131.17 139.19 132.35 C 139.27 133.53 140.29 134.43 141.47 134.35 Z M 142.50 134.28 L 143.49 134.20 C 144.67 134.10 145.54 133.07 145.45 131.89 C 145.35 130.71 144.31 129.84 143.14 129.93 L 142.14 130.02 C 140.96 130.12 140.09 131.15 140.19 132.33 C 140.29 133.50 141.32 134.38 142.50 134.28 Z M 143.51 134.19 L 144.50 134.10 C 145.68 133.99 146.54 132.95 146.43 131.77 C 146.32 130.60 145.28 129.74 144.11 129.85 L 143.12 129.94 C 141.94 130.05 141.08 131.09 141.19 132.26 C 141.30 133.44 142.34 134.30 143.51 134.19 Z M 144.52 134.08 L 145.51 133.98 C 146.68 133.86 147.52 132.82 147.40 131.65 C 147.28 130.49 146.24 129.64 145.08 129.76 L 144.09 129.87 C 142.93 129.99 142.08 131.03 142.20 132.19 C 142.32 133.35 143.36 134.20 144.52 134.08 Z M 145.55 133.96 L 146.55 133.84 C 147.71 133.70 148.53 132.66 148.39 131.50 C 148.26 130.35 147.21 129.53 146.06 129.66 L 145.05 129.78 C 143.90 129.92 143.07 130.97 143.21 132.12 C 143.35 133.27 144.39 134.09 145.55 133.96 Z M 146.59 133.81 L 147.57 133.68 C 148.71 133.52 149.51 132.47 149.35 131.33 C 149.20 130.20 148.15 129.40 147.01 129.55 L 146.02 129.69 C 144.88 129.84 144.09 130.89 144.24 132.03 C 144.40 133.17 145.45 133.97 146.59 133.81 Z M 147.59 133.66 L 148.58 133.51 C 149.71 133.35 150.49 132.30 150.32 131.17 C 150.16 130.05 149.11 129.27 147.99 129.43 L 146.99 129.58 C 145.87 129.74 145.09 130.79 145.25 131.91 C 145.42 133.04 146.46 133.82 147.59 133.66 Z M 148.57 133.49 L 149.56 133.35 C 150.68 133.19 151.45 132.15 151.29 131.04 C 151.13 129.92 150.10 129.15 148.98 129.31 L 147.99 129.45 C 146.88 129.61 146.10 130.65 146.26 131.76 C 146.42 132.88 147.46 133.65 148.57 133.49 Z M 149.55 133.33 L 150.54 133.19 C 151.64 133.04 152.41 132.03 152.26 130.92 C 152.11 129.82 151.09 129.04 149.99 129.19 L 149.00 129.33 C 147.90 129.48 147.12 130.50 147.27 131.60 C 147.42 132.71 148.44 133.48 149.55 133.33 Z M 150.52 133.18 L 151.52 133.05 C 152.61 132.90 153.38 131.90 153.24 130.81 C 153.10 129.71 152.09 128.94 151.00 129.08 L 150.00 129.21 C 148.91 129.36 148.14 130.36 148.28 131.45 C 148.42 132.55 149.43 133.32 150.52 133.18 Z M 151.51 133.03 L 152.48 132.90 C 153.57 132.76 154.33 131.77 154.20 130.69 C 154.06 129.61 153.07 128.84 151.99 128.98 L 151.01 129.10 C 149.93 129.24 149.16 130.23 149.30 131.31 C 149.43 132.40 150.42 133.16 151.51 133.03 Z M 152.48 132.88 L 153.47 132.76 C 154.54 132.62 155.30 131.64 155.17 130.57 C 155.03 129.50 154.05 128.74 152.98 128.87 L 151.99 129.00 C 150.92 129.13 150.16 130.11 150.29 131.19 C 150.43 132.26 151.41 133.02 152.48 132.88 Z M 153.47 132.74 L 154.48 132.61 C 155.54 132.47 156.29 131.50 156.16 130.44 C 156.02 129.38 155.05 128.63 153.99 128.77 L 152.98 128.90 C 151.92 129.03 151.17 130.00 151.30 131.06 C 151.44 132.12 152.41 132.87 153.47 132.74 Z M 154.49 132.59 L 155.49 132.45 C 156.54 132.31 157.28 131.35 157.14 130.30 C 157.00 129.25 156.04 128.51 154.99 128.65 L 153.98 128.79 C 152.93 128.92 152.19 129.89 152.33 130.94 C 152.47 131.99 153.44 132.73 154.49 132.59 Z M 155.49 132.43 L 156.49 132.30 C 157.53 132.16 158.26 131.20 158.12 130.16 C 157.97 129.12 157.02 128.39 155.98 128.54 L 154.98 128.67 C 153.94 128.81 153.22 129.77 153.36 130.81 C 153.50 131.85 154.45 132.57 155.49 132.43 Z M 156.49 132.28 L 157.48 132.15 C 158.51 132.00 159.23 131.06 159.09 130.03 C 158.95 129.00 158.00 128.28 156.97 128.42 L 155.98 128.55 C 154.95 128.69 154.23 129.64 154.37 130.67 C 154.51 131.70 155.46 132.42 156.49 132.28 Z M 157.48 132.13 L 158.49 131.99 C 159.51 131.85 160.22 130.91 160.08 129.89 C 159.94 128.86 159.00 128.15 157.98 128.29 L 156.97 128.43 C 155.95 128.57 155.24 129.52 155.38 130.54 C 155.52 131.56 156.46 132.27 157.48 132.13 Z M 158.50 131.98 L 159.46 131.83 C 160.47 131.69 161.17 130.75 161.03 129.73 C 160.88 128.72 159.94 128.02 158.92 128.17 L 157.96 128.31 C 156.95 128.46 156.25 129.40 156.40 130.41 C 156.55 131.42 157.49 132.12 158.50 131.98 Z M 159.48 131.82 L 160.48 131.66 C 161.48 131.50 162.17 130.56 162.01 129.55 C 161.85 128.55 160.90 127.87 159.90 128.03 L 158.90 128.18 C 157.90 128.34 157.22 129.29 157.37 130.29 C 157.53 131.29 158.48 131.98 159.48 131.82 Z M 160.49 131.65 L 161.47 131.48 C 162.47 131.32 163.14 130.37 162.98 129.38 C 162.81 128.38 161.87 127.71 160.87 127.87 L 159.89 128.04 C 158.89 128.20 158.22 129.15 158.38 130.14 C 158.55 131.14 159.49 131.82 160.49 131.65 Z M 161.47 131.48 L 162.47 131.31 C 163.46 131.14 164.13 130.20 163.97 129.21 C 163.80 128.22 162.86 127.55 161.87 127.72 L 160.87 127.88 C 159.88 128.05 159.21 128.99 159.38 129.98 C 159.54 130.97 160.48 131.64 161.47 131.48 Z M 162.48 131.30 L 163.46 131.13 C 164.45 130.96 165.11 130.02 164.94 129.03 C 164.77 128.05 163.83 127.38 162.85 127.55 L 161.86 127.72 C 160.87 127.90 160.21 128.83 160.38 129.82 C 160.55 130.81 161.49 131.47 162.48 131.30 Z M 163.51 131.12 L 164.49 130.92 C 165.47 130.73 166.10 129.77 165.91 128.79 C 165.71 127.82 164.76 127.18 163.78 127.37 L 162.80 127.57 C 161.82 127.76 161.19 128.72 161.38 129.69 C 161.58 130.67 162.53 131.31 163.51 131.12 Z M 164.54 130.91 L 165.51 130.68 C 166.48 130.46 167.09 129.49 166.87 128.52 C 166.64 127.55 165.67 126.94 164.70 127.16 L 163.73 127.39 C 162.76 127.61 162.15 128.58 162.38 129.55 C 162.60 130.52 163.57 131.13 164.54 130.91 Z M 165.53 130.67 L 166.50 130.44 C 167.46 130.21 168.06 129.23 167.82 128.27 C 167.59 127.30 166.62 126.70 165.65 126.94 L 164.68 127.17 C 163.72 127.40 163.12 128.38 163.36 129.35 C 163.59 130.31 164.56 130.91 165.53 130.67 Z M 166.49 130.44 L 167.46 130.21 C 168.42 129.98 169.02 129.00 168.79 128.04 C 168.55 127.07 167.58 126.47 166.62 126.71 L 165.65 126.94 C 164.68 127.17 164.09 128.14 164.32 129.11 C 164.55 130.08 165.53 130.67 166.49 130.44 Z M 167.46 130.21 L 167.65 130.16 C 168.62 129.93 169.21 128.96 168.98 127.99 C 168.75 127.02 167.78 126.43 166.81 126.66 L 166.62 126.71 C 165.65 126.94 165.05 127.91 165.29 128.88 C 165.52 129.84 166.49 130.44 167.46 130.21 Z"
      fill="black"
      fill-rule="nonzero" /><path d="M 150.89 119.54 L 151.41 120.41 C 151.95 121.32 153.12 121.61 154.03 121.07 C 154.93 120.53 155.23 119.35 154.69 118.45 L 154.16 117.58 C 153.62 116.68 152.45 116.38 151.55 116.92 C 150.64 117.47 150.35 118.64 150.89 119.54 Z M 151.12 120.09 L 151.43 120.99 C 151.80 122.06 152.95 122.62 154.02 122.26 C 155.08 121.89 155.65 120.74 155.28 119.67 L 154.97 118.77 C 154.61 117.71 153.45 117.14 152.39 117.51 C 151.33 117.87 150.76 119.03 151.12 120.09 Z M 151.25 120.34 L 151.26 121.28 C 151.26 122.44 152.21 123.38 153.37 123.37 C 154.53 123.37 155.47 122.42 155.46 121.26 L 155.46 120.33 C 155.46 119.17 154.51 118.23 153.35 118.23 C 152.19 118.23 151.25 119.18 151.25 120.34 Z M 151.28 120.85 L 151.07 121.90 C 150.84 123.06 151.58 124.17 152.73 124.40 C 153.88 124.63 155.00 123.89 155.23 122.74 L 155.44 121.69 C 155.67 120.53 154.93 119.42 153.78 119.19 C 152.63 118.96 151.51 119.70 151.28 120.85 Z M 151.09 121.74 L 150.81 122.71 C 150.49 123.85 151.15 125.03 152.29 125.35 C 153.43 125.68 154.62 125.01 154.94 123.87 L 155.21 122.90 C 155.54 121.77 154.87 120.58 153.73 120.26 C 152.60 119.94 151.41 120.60 151.09 121.74 Z M 150.82 122.64 L 150.51 123.61 C 150.15 124.75 150.78 125.96 151.92 126.32 C 153.05 126.68 154.27 126.05 154.63 124.91 L 154.93 123.94 C 155.29 122.80 154.66 121.59 153.53 121.23 C 152.39 120.87 151.18 121.50 150.82 122.64 Z M 150.51 123.59 L 150.18 124.58 C 149.81 125.71 150.43 126.94 151.57 127.31 C 152.71 127.69 153.93 127.07 154.31 125.93 L 154.63 124.94 C 155.00 123.80 154.38 122.57 153.24 122.20 C 152.10 121.83 150.88 122.45 150.51 123.59 Z M 150.19 124.55 L 149.87 125.47 C 149.48 126.61 150.09 127.84 151.23 128.23 C 152.36 128.62 153.60 128.01 153.99 126.87 L 154.30 125.95 C 154.69 124.82 154.08 123.58 152.94 123.19 C 151.81 122.81 150.57 123.41 150.19 124.55 Z M 149.89 125.42 L 149.56 126.31 C 149.14 127.44 149.72 128.69 150.85 129.10 C 151.97 129.52 153.22 128.94 153.64 127.82 L 153.97 126.93 C 154.39 125.80 153.81 124.55 152.68 124.13 C 151.56 123.71 150.31 124.29 149.89 125.42 Z M 149.58 126.26 L 149.21 127.19 C 148.77 128.31 149.31 129.57 150.43 130.01 C 151.55 130.46 152.81 129.91 153.25 128.79 L 153.62 127.87 C 154.07 126.75 153.52 125.48 152.40 125.04 C 151.29 124.60 150.02 125.14 149.58 126.26 Z M 149.22 127.16 L 148.84 128.10 C 148.38 129.21 148.91 130.48 150.02 130.94 C 151.13 131.39 152.40 130.86 152.86 129.75 L 153.24 128.82 C 153.70 127.71 153.17 126.44 152.06 125.98 C 150.95 125.52 149.68 126.05 149.22 127.16 Z M 148.84 128.08 L 148.46 128.99 C 147.99 130.10 148.51 131.37 149.62 131.84 C 150.72 132.31 152.00 131.79 152.47 130.68 L 152.85 129.77 C 153.32 128.66 152.80 127.39 151.70 126.92 C 150.59 126.45 149.31 126.97 148.84 128.08 Z M 148.47 128.95 L 148.06 129.89 C 147.57 130.99 148.07 132.28 149.17 132.76 C 150.27 133.25 151.55 132.75 152.04 131.65 L 152.46 130.72 C 152.94 129.62 152.45 128.33 151.35 127.84 C 150.24 127.36 148.96 127.85 148.47 128.95 Z M 148.07 129.85 L 147.66 130.73 C 147.15 131.82 147.62 133.12 148.71 133.63 C 149.80 134.14 151.10 133.67 151.61 132.58 L 152.02 131.70 C 152.53 130.60 152.06 129.31 150.97 128.80 C 149.88 128.29 148.58 128.76 148.07 129.85 Z M 147.67 130.70 L 147.23 131.61 C 146.71 132.70 147.17 134.00 148.25 134.53 C 149.34 135.05 150.64 134.59 151.16 133.51 L 151.60 132.60 C 152.13 131.52 151.67 130.21 150.59 129.69 C 149.50 129.16 148.20 129.62 147.67 130.70 Z M 147.24 131.60 L 146.80 132.50 C 146.27 133.59 146.72 134.89 147.81 135.42 C 148.89 135.95 150.20 135.50 150.73 134.41 L 151.16 133.52 C 151.69 132.43 151.24 131.13 150.16 130.60 C 149.07 130.07 147.76 130.52 147.24 131.60 Z M 146.80 132.50 L 146.37 133.38 C 145.84 134.47 146.29 135.77 147.38 136.30 C 148.46 136.83 149.77 136.38 150.30 135.29 L 150.73 134.41 C 151.25 133.33 150.80 132.02 149.72 131.49 C 148.63 130.97 147.33 131.42 146.80 132.50 Z M 146.37 133.38 L 145.92 134.30 C 145.39 135.38 145.85 136.69 146.93 137.22 C 148.02 137.75 149.32 137.30 149.85 136.21 L 150.30 135.29 C 150.83 134.21 150.38 132.90 149.29 132.37 C 148.21 131.84 146.90 132.30 146.37 133.38 Z M 145.92 134.30 L 145.48 135.21 C 144.95 136.29 145.40 137.60 146.49 138.13 C 147.57 138.66 148.88 138.21 149.41 137.12 L 149.85 136.21 C 150.38 135.13 149.93 133.82 148.84 133.29 C 147.76 132.76 146.45 133.21 145.92 134.30 Z M 145.48 135.20 L 145.04 136.10 C 144.51 137.18 144.95 138.49 146.04 139.03 C 147.12 139.56 148.43 139.11 148.96 138.03 L 149.40 137.13 C 149.94 136.05 149.49 134.74 148.41 134.20 C 147.32 133.67 146.01 134.12 145.48 135.20 Z M 145.05 136.09 L 144.60 136.99 C 144.06 138.07 144.49 139.38 145.57 139.92 C 146.65 140.46 147.96 140.03 148.50 138.95 L 148.96 138.04 C 149.50 136.96 149.06 135.65 147.98 135.11 C 146.90 134.57 145.59 135.01 145.05 136.09 Z M 144.61 136.97 L 144.15 137.86 C 143.59 138.94 144.02 140.25 145.09 140.81 C 146.16 141.36 147.48 140.94 148.03 139.86 L 148.49 138.97 C 149.05 137.90 148.62 136.58 147.55 136.03 C 146.48 135.47 145.16 135.89 144.61 136.97 Z M 144.16 137.83 L 143.69 138.72 C 143.12 139.78 143.52 141.11 144.59 141.68 C 145.65 142.24 146.97 141.84 147.54 140.78 L 148.02 139.89 C 148.58 138.83 148.18 137.50 147.12 136.94 C 146.05 136.37 144.73 136.77 144.16 137.83 Z M 143.71 138.69 L 143.22 139.56 C 142.64 140.61 143.02 141.94 144.07 142.53 C 145.13 143.11 146.46 142.73 147.04 141.68 L 147.53 140.81 C 148.11 139.75 147.73 138.42 146.68 137.84 C 145.62 137.25 144.29 137.63 143.71 138.69 Z M 143.24 139.53 L 142.74 140.39 C 142.14 141.43 142.50 142.77 143.55 143.37 C 144.59 143.97 145.93 143.61 146.53 142.57 L 147.03 141.71 C 147.63 140.66 147.27 139.32 146.22 138.72 C 145.18 138.12 143.84 138.48 143.24 139.53 Z M 142.76 140.36 L 142.25 141.21 C 141.63 142.25 141.97 143.59 143.01 144.21 C 144.05 144.83 145.39 144.49 146.01 143.45 L 146.52 142.59 C 147.13 141.56 146.79 140.22 145.76 139.60 C 144.72 138.98 143.38 139.32 142.76 140.36 Z M 142.26 141.19 L 141.74 142.05 C 141.11 143.08 141.44 144.42 142.47 145.05 C 143.49 145.68 144.84 145.36 145.47 144.33 L 145.99 143.47 C 146.62 142.44 146.30 141.10 145.27 140.47 C 144.24 139.84 142.89 140.16 142.26 141.19 Z M 141.75 142.03 L 141.22 142.88 C 140.58 143.90 140.89 145.25 141.91 145.89 C 142.94 146.53 144.29 146.22 144.93 145.20 L 145.46 144.35 C 146.10 143.32 145.79 141.97 144.76 141.33 C 143.74 140.70 142.39 141.01 141.75 142.03 Z M 141.23 142.87 L 140.70 143.71 C 140.05 144.72 140.35 146.07 141.36 146.72 C 142.38 147.37 143.73 147.07 144.38 146.05 L 144.92 145.21 C 145.56 144.20 145.26 142.85 144.25 142.20 C 143.23 141.55 141.88 141.85 141.23 142.87 Z M 140.71 143.69 L 140.16 144.53 C 139.51 145.54 139.80 146.89 140.81 147.55 C 141.82 148.21 143.17 147.92 143.83 146.90 L 144.37 146.07 C 145.03 145.05 144.74 143.70 143.73 143.05 C 142.71 142.39 141.36 142.68 140.71 143.69 Z M 140.17 144.52 L 139.62 145.36 C 138.96 146.36 139.23 147.72 140.24 148.38 C 141.25 149.04 142.60 148.76 143.26 147.76 L 143.82 146.92 C 144.48 145.91 144.20 144.56 143.20 143.90 C 142.19 143.23 140.84 143.51 140.17 144.52 Z M 139.63 145.34 L 139.08 146.17 C 138.40 147.17 138.67 148.53 139.67 149.20 C 140.67 149.87 142.03 149.60 142.70 148.60 L 143.25 147.77 C 143.92 146.77 143.66 145.42 142.65 144.75 C 141.65 144.08 140.30 144.34 139.63 145.34 Z M 139.09 146.16 L 138.52 146.98 C 137.84 147.98 138.10 149.33 139.09 150.01 C 140.09 150.69 141.44 150.44 142.12 149.44 L 142.69 148.61 C 143.36 147.62 143.11 146.26 142.12 145.59 C 141.12 144.91 139.77 145.16 139.09 146.16 Z M 138.54 146.97 L 137.96 147.79 C 137.27 148.77 137.52 150.13 138.50 150.82 C 139.49 151.51 140.85 151.27 141.53 150.28 L 142.11 149.46 C 142.80 148.47 142.55 147.12 141.57 146.43 C 140.58 145.74 139.22 145.98 138.54 146.97 Z M 137.98 147.77 L 137.40 148.58 C 136.70 149.55 136.92 150.91 137.90 151.61 C 138.88 152.31 140.24 152.09 140.94 151.11 L 141.52 150.30 C 142.22 149.32 141.99 147.97 141.02 147.27 C 140.04 146.57 138.68 146.79 137.98 147.77 Z M 137.42 148.55 L 136.83 149.35 C 136.12 150.32 136.32 151.68 137.29 152.39 C 138.26 153.11 139.62 152.90 140.33 151.93 L 140.92 151.13 C 141.63 150.17 141.43 148.81 140.46 148.09 C 139.49 147.38 138.13 147.59 137.42 148.55 Z M 136.85 149.33 L 136.24 150.13 C 135.52 151.08 135.70 152.45 136.66 153.17 C 137.61 153.90 138.98 153.71 139.70 152.76 L 140.31 151.96 C 141.04 151.00 140.85 149.64 139.89 148.91 C 138.94 148.19 137.57 148.37 136.85 149.33 Z M 136.26 150.10 L 135.63 150.91 C 134.89 151.85 135.06 153.21 136.00 153.95 C 136.95 154.69 138.31 154.53 139.05 153.58 L 139.68 152.78 C 140.42 151.84 140.26 150.47 139.31 149.73 C 138.37 148.99 137.00 149.16 136.26 150.10 Z M 135.66 150.88 L 135.01 151.68 C 134.26 152.61 134.40 153.98 135.34 154.73 C 136.27 155.48 137.64 155.34 138.39 154.40 L 139.03 153.61 C 139.78 152.68 139.64 151.31 138.71 150.56 C 137.77 149.80 136.41 149.95 135.66 150.88 Z M 135.03 151.65 L 134.39 152.42 C 133.63 153.34 133.75 154.71 134.67 155.48 C 135.59 156.24 136.96 156.12 137.73 155.20 L 138.37 154.43 C 139.13 153.51 139.01 152.14 138.09 151.37 C 137.17 150.61 135.80 150.73 135.03 151.65 Z M 134.42 152.40 L 133.77 153.15 C 132.99 154.05 133.10 155.42 134.00 156.20 C 134.91 156.98 136.28 156.88 137.06 155.97 L 137.70 155.22 C 138.48 154.32 138.38 152.95 137.47 152.17 C 136.57 151.39 135.20 151.49 134.42 152.40 Z M 133.81 153.12 L 133.11 153.89 C 132.31 154.78 132.39 156.15 133.28 156.94 C 134.17 157.74 135.54 157.67 136.33 156.78 L 137.03 156.00 C 137.82 155.11 137.75 153.75 136.86 152.95 C 135.97 152.15 134.60 152.23 133.81 153.12 Z M 133.14 153.86 L 132.48 154.57 C 131.67 155.44 131.72 156.80 132.59 157.62 C 133.46 158.43 134.83 158.39 135.64 157.51 L 136.30 156.81 C 137.11 155.94 137.07 154.57 136.20 153.76 C 135.32 152.94 133.96 152.99 133.14 153.86 Z M 132.51 154.54 L 131.83 155.25 C 131.00 156.11 131.02 157.47 131.88 158.30 C 132.73 159.13 134.10 159.10 134.93 158.25 L 135.61 157.54 C 136.44 156.68 136.41 155.32 135.56 154.49 C 134.70 153.66 133.34 153.69 132.51 154.54 Z M 131.85 155.23 L 131.14 155.95 C 130.30 156.79 130.31 158.15 131.15 158.99 C 131.99 159.83 133.35 159.82 134.19 158.98 L 134.90 158.27 C 135.74 157.43 135.73 156.06 134.89 155.23 C 134.05 154.39 132.69 154.39 131.85 155.23 Z M 131.17 155.93 L 130.47 156.61 C 129.62 157.44 129.60 158.80 130.43 159.65 C 131.25 160.49 132.61 160.51 133.46 159.68 L 134.16 159.00 C 135.01 158.18 135.03 156.82 134.20 155.97 C 133.37 155.12 132.02 155.10 131.17 155.93 Z M 130.49 156.59 L 129.75 157.29 C 128.89 158.11 128.86 159.47 129.67 160.32 C 130.49 161.18 131.84 161.22 132.70 160.40 L 133.44 159.70 C 134.30 158.89 134.33 157.53 133.52 156.67 C 132.70 155.82 131.35 155.78 130.49 156.59 Z M 129.75 157.30 L 129.04 157.97 C 128.18 158.78 128.15 160.14 128.96 161.00 C 129.78 161.86 131.13 161.89 131.99 161.08 L 132.70 160.40 C 133.56 159.59 133.59 158.23 132.78 157.37 C 131.96 156.52 130.61 156.48 129.75 157.30 Z M 129.02 157.99 L 128.29 158.70 C 127.45 159.52 127.43 160.88 128.25 161.73 C 129.08 162.57 130.44 162.59 131.28 161.77 L 132.01 161.06 C 132.86 160.23 132.88 158.88 132.05 158.03 C 131.22 157.18 129.87 157.16 129.02 157.99 Z M 128.30 158.70 L 127.59 159.38 C 126.74 160.21 126.72 161.56 127.55 162.41 C 128.37 163.26 129.73 163.28 130.57 162.45 L 131.28 161.77 C 132.13 160.94 132.15 159.59 131.32 158.74 C 130.50 157.89 129.14 157.87 128.30 158.70 Z M 127.63 159.35 L 126.94 159.99 C 126.07 160.79 126.02 162.14 126.83 163.01 C 127.63 163.88 128.99 163.93 129.85 163.12 L 130.54 162.49 C 131.40 161.68 131.46 160.33 130.65 159.46 C 129.85 158.60 128.49 158.55 127.63 159.35 Z M 126.99 159.94 L 126.21 160.62 C 125.32 161.40 125.23 162.75 126.01 163.64 C 126.79 164.53 128.14 164.62 129.03 163.84 L 129.80 163.17 C 130.69 162.39 130.79 161.04 130.01 160.15 C 129.23 159.26 127.88 159.17 126.99 159.94 Z M 126.25 160.59 L 125.47 161.24 C 124.57 161.99 124.45 163.34 125.20 164.25 C 125.96 165.16 127.31 165.28 128.21 164.52 L 128.99 163.87 C 129.90 163.12 130.02 161.77 129.26 160.86 C 128.51 159.96 127.16 159.83 126.25 160.59 Z M 125.51 161.21 L 124.70 161.86 C 123.78 162.60 123.63 163.94 124.37 164.86 C 125.11 165.78 126.45 165.93 127.37 165.19 L 128.18 164.55 C 129.10 163.81 129.25 162.47 128.51 161.55 C 127.77 160.63 126.43 160.48 125.51 161.21 Z M 124.75 161.82 L 123.95 162.43 C 123.01 163.14 122.83 164.47 123.54 165.41 C 124.24 166.35 125.58 166.54 126.52 165.83 L 127.32 165.23 C 128.26 164.52 128.45 163.18 127.74 162.24 C 127.03 161.30 125.69 161.11 124.75 161.82 Z M 124.06 162.37 L 123.17 162.96 C 122.20 163.61 121.94 164.92 122.59 165.89 C 123.23 166.87 124.55 167.13 125.52 166.48 L 126.41 165.89 C 127.38 165.24 127.65 163.93 127.00 162.96 C 126.35 161.98 125.04 161.72 124.06 162.37 Z M 123.37 162.87 L 122.56 163.30 C 121.54 163.84 121.15 165.11 121.69 166.13 C 122.23 167.15 123.50 167.54 124.52 167.00 L 125.33 166.57 C 126.35 166.03 126.74 164.76 126.19 163.74 C 125.65 162.72 124.39 162.33 123.37 162.87 Z M 122.96 163.18 L 121.90 163.49 C 120.82 163.81 120.19 164.94 120.51 166.03 C 120.82 167.12 121.96 167.75 123.05 167.43 L 124.11 167.12 C 125.20 166.81 125.82 165.67 125.51 164.58 C 125.19 163.49 124.05 162.86 122.96 163.18 Z M 124.27 164.61 L 124.03 164.10 C 123.56 163.11 122.38 162.69 121.39 163.16 C 120.40 163.63 119.98 164.81 120.44 165.80 L 120.69 166.31 C 121.16 167.30 122.34 167.72 123.33 167.25 C 124.32 166.78 124.74 165.60 124.27 164.61 Z M 124.01 165.57 L 124.38 164.50 C 124.72 163.52 124.21 162.45 123.23 162.11 C 122.24 161.76 121.17 162.28 120.83 163.26 L 120.46 164.33 C 120.12 165.31 120.64 166.38 121.62 166.72 C 122.60 167.06 123.67 166.55 124.01 165.57 Z M 124.28 164.57 L 124.35 164.41 C 124.73 163.49 124.29 162.43 123.37 162.04 C 122.44 161.66 121.38 162.10 121.00 163.03 L 120.93 163.19 C 120.55 164.11 120.99 165.17 121.91 165.56 C 122.84 165.94 123.90 165.50 124.28 164.57 Z"
      fill="black"
      fill-rule="nonzero" /><path d="M 135.29 153.56 L 135.62 154.51 C 135.99 155.55 137.13 156.10 138.17 155.73 C 139.21 155.37 139.76 154.22 139.39 153.18 L 139.06 152.24 C 138.70 151.19 137.55 150.65 136.51 151.01 C 135.47 151.38 134.92 152.52 135.29 153.56 Z M 135.57 154.79 L 136.00 155.67 C 136.52 156.74 137.81 157.19 138.88 156.67 C 139.95 156.14 140.39 154.86 139.87 153.79 L 139.44 152.90 C 138.92 151.83 137.63 151.39 136.57 151.91 C 135.50 152.43 135.05 153.72 135.57 154.79 Z M 136.12 156.02 L 136.67 156.80 C 137.38 157.80 138.77 158.04 139.78 157.33 C 140.78 156.62 141.02 155.23 140.31 154.23 L 139.76 153.44 C 139.05 152.44 137.66 152.20 136.65 152.91 C 135.65 153.62 135.41 155.01 136.12 156.02 Z M 136.72 156.87 L 137.35 157.71 C 138.11 158.69 139.51 158.87 140.49 158.12 C 141.47 157.37 141.66 155.96 140.90 154.98 L 140.27 154.15 C 139.51 153.17 138.11 152.98 137.13 153.74 C 136.15 154.49 135.96 155.89 136.72 156.87 Z M 137.29 157.63 L 137.88 158.47 C 138.59 159.48 139.99 159.73 141.01 159.02 C 142.02 158.31 142.26 156.91 141.55 155.90 L 140.97 155.06 C 140.25 154.04 138.86 153.80 137.84 154.51 C 136.83 155.22 136.58 156.62 137.29 157.63 Z M 137.84 158.40 L 138.38 159.24 C 139.05 160.28 140.44 160.57 141.48 159.90 C 142.52 159.22 142.81 157.84 142.14 156.80 L 141.60 155.96 C 140.93 154.92 139.54 154.63 138.50 155.30 C 137.46 155.98 137.16 157.36 137.84 158.40 Z M 138.33 159.16 L 138.87 160.06 C 139.50 161.12 140.88 161.47 141.94 160.83 C 143.00 160.20 143.35 158.83 142.72 157.76 L 142.18 156.87 C 141.55 155.81 140.17 155.46 139.11 156.09 C 138.05 156.73 137.70 158.10 138.33 159.16 Z M 138.83 159.98 L 139.28 160.81 C 139.87 161.89 141.23 162.29 142.32 161.70 C 143.40 161.10 143.80 159.74 143.20 158.66 L 142.75 157.84 C 142.16 156.75 140.80 156.36 139.72 156.95 C 138.64 157.54 138.24 158.90 138.83 159.98 Z M 139.27 160.78 L 139.74 161.65 C 140.31 162.74 141.66 163.15 142.75 162.58 C 143.84 162.00 144.25 160.65 143.67 159.57 L 143.21 158.69 C 142.63 157.60 141.29 157.19 140.20 157.77 C 139.11 158.34 138.70 159.69 139.27 160.78 Z M 139.73 161.62 L 140.19 162.52 C 140.76 163.61 142.09 164.04 143.18 163.48 C 144.27 162.92 144.70 161.58 144.14 160.49 L 143.68 159.59 C 143.12 158.50 141.78 158.07 140.69 158.64 C 139.60 159.20 139.17 160.54 139.73 161.62 Z M 140.19 162.48 L 140.63 163.38 C 141.18 164.47 142.50 164.92 143.59 164.38 C 144.68 163.83 145.13 162.51 144.59 161.42 L 144.14 160.52 C 143.60 159.43 142.28 158.99 141.19 159.53 C 140.09 160.07 139.65 161.39 140.19 162.48 Z M 140.63 163.34 L 141.07 164.25 C 141.59 165.35 142.89 165.81 143.99 165.29 C 145.08 164.77 145.54 163.46 145.02 162.37 L 144.59 161.46 C 144.07 160.37 142.76 159.90 141.67 160.42 C 140.58 160.94 140.11 162.25 140.63 163.34 Z M 141.06 164.20 L 141.47 165.11 C 141.96 166.21 143.24 166.70 144.34 166.21 C 145.44 165.72 145.93 164.43 145.44 163.34 L 145.03 162.42 C 144.54 161.33 143.25 160.84 142.16 161.33 C 141.06 161.82 140.57 163.10 141.06 164.20 Z M 141.46 165.04 L 141.84 165.97 C 142.28 167.07 143.54 167.61 144.64 167.16 C 145.75 166.71 146.28 165.46 145.83 164.35 L 145.45 163.42 C 145.00 162.31 143.75 161.78 142.64 162.23 C 141.54 162.68 141.01 163.93 141.46 165.04 Z M 141.84 165.92 L 142.18 166.83 C 142.60 167.94 143.84 168.49 144.94 168.07 C 146.05 167.65 146.60 166.41 146.18 165.31 L 145.83 164.40 C 145.41 163.30 144.17 162.74 143.07 163.16 C 141.97 163.59 141.41 164.82 141.84 165.92 Z M 142.20 166.82 L 142.51 167.66 C 142.92 168.75 144.15 169.30 145.25 168.89 C 146.34 168.48 146.89 167.25 146.48 166.16 L 146.17 165.32 C 145.75 164.23 144.53 163.67 143.43 164.09 C 142.33 164.50 141.78 165.73 142.20 166.82 Z M 142.50 167.60 L 142.87 168.65 C 143.25 169.75 144.45 170.33 145.55 169.94 C 146.65 169.56 147.23 168.36 146.85 167.26 L 146.49 166.21 C 146.10 165.11 144.90 164.53 143.80 164.91 C 142.70 165.30 142.12 166.50 142.50 167.60 Z M 142.86 168.59 L 143.17 169.54 C 143.52 170.64 144.70 171.25 145.80 170.89 C 146.91 170.54 147.51 169.36 147.16 168.26 L 146.86 167.31 C 146.50 166.21 145.32 165.60 144.22 165.96 C 143.12 166.31 142.51 167.49 142.86 168.59 Z M 143.17 169.50 L 143.47 170.51 C 143.81 171.61 144.97 172.23 146.07 171.90 C 147.18 171.56 147.80 170.40 147.46 169.30 L 147.16 168.29 C 146.83 167.19 145.66 166.57 144.56 166.90 C 143.46 167.24 142.83 168.40 143.17 169.50 Z M 143.47 170.46 L 143.77 171.52 C 144.08 172.62 145.22 173.26 146.33 172.95 C 147.43 172.64 148.07 171.50 147.76 170.40 L 147.46 169.34 C 147.15 168.24 146.01 167.60 144.91 167.91 C 143.80 168.22 143.16 169.36 143.47 170.46 Z M 143.77 171.37 L 143.97 172.35 C 144.19 173.45 145.27 174.16 146.38 173.93 C 147.48 173.71 148.19 172.63 147.96 171.53 L 147.76 170.55 C 147.54 169.44 146.46 168.73 145.36 168.96 C 144.25 169.19 143.54 170.26 143.77 171.37 Z M 147.71 170.97 L 147.44 170.49 C 146.91 169.53 145.69 169.18 144.73 169.72 C 143.77 170.26 143.42 171.47 143.96 172.43 L 144.22 172.91 C 144.76 173.87 145.98 174.21 146.94 173.68 C 147.90 173.14 148.24 171.93 147.71 170.97 Z M 147.54 170.77 L 147.11 169.63 C 146.73 168.61 145.59 168.10 144.58 168.48 C 143.57 168.86 143.05 169.99 143.44 171.01 L 143.87 172.15 C 144.25 173.17 145.38 173.68 146.39 173.30 C 147.40 172.92 147.92 171.79 147.54 170.77 Z M 147.14 169.74 L 146.84 168.78 C 146.52 167.75 145.42 167.18 144.39 167.50 C 143.36 167.82 142.79 168.91 143.11 169.94 L 143.41 170.90 C 143.73 171.93 144.82 172.50 145.85 172.18 C 146.88 171.86 147.46 170.77 147.14 169.74 Z M 146.88 168.90 L 146.65 167.94 C 146.40 166.89 145.34 166.24 144.28 166.49 C 143.23 166.75 142.58 167.81 142.83 168.86 L 143.07 169.82 C 143.32 170.88 144.38 171.52 145.43 171.27 C 146.49 171.02 147.14 169.96 146.88 168.90 Z M 146.69 168.06 L 146.51 167.08 C 146.33 166.00 145.30 165.29 144.23 165.47 C 143.16 165.66 142.44 166.69 142.63 167.76 L 142.80 168.74 C 142.99 169.82 144.01 170.54 145.08 170.35 C 146.16 170.16 146.88 169.14 146.69 168.06 Z M 146.54 167.19 L 146.43 166.19 C 146.30 165.10 145.31 164.32 144.22 164.44 C 143.14 164.57 142.35 165.55 142.48 166.64 L 142.60 167.65 C 142.72 168.74 143.71 169.52 144.80 169.39 C 145.89 169.27 146.67 168.28 146.54 167.19 Z M 146.45 166.29 L 146.39 165.28 C 146.32 164.18 145.37 163.34 144.27 163.41 C 143.17 163.48 142.33 164.43 142.40 165.53 L 142.46 166.54 C 142.53 167.64 143.48 168.48 144.58 168.41 C 145.68 168.34 146.52 167.39 146.45 166.29 Z M 146.41 165.36 L 146.38 164.37 C 146.35 163.25 145.43 162.37 144.31 162.40 C 143.20 162.43 142.32 163.36 142.35 164.47 L 142.38 165.46 C 142.41 166.57 143.33 167.45 144.44 167.42 C 145.56 167.39 146.43 166.47 146.41 165.36 Z M 146.40 164.47 L 146.43 163.47 C 146.46 162.35 145.57 161.41 144.45 161.38 C 143.33 161.35 142.39 162.24 142.36 163.36 L 142.33 164.36 C 142.30 165.48 143.19 166.42 144.31 166.45 C 145.43 166.48 146.37 165.60 146.40 164.47 Z M 146.42 163.78 L 146.59 162.81 C 146.79 161.69 146.05 160.62 144.93 160.42 C 143.80 160.22 142.74 160.97 142.54 162.09 L 142.36 163.06 C 142.17 164.18 142.91 165.25 144.03 165.45 C 145.15 165.65 146.22 164.90 146.42 163.78 Z M 146.51 163.20 L 146.87 162.27 C 147.29 161.19 146.75 159.98 145.67 159.57 C 144.60 159.15 143.39 159.69 142.97 160.77 L 142.62 161.70 C 142.20 162.78 142.74 163.98 143.82 164.40 C 144.89 164.81 146.10 164.27 146.51 163.20 Z M 146.74 162.59 L 147.25 161.74 C 147.84 160.74 147.51 159.44 146.50 158.85 C 145.50 158.25 144.20 158.58 143.61 159.59 L 143.10 160.44 C 142.51 161.44 142.84 162.74 143.85 163.34 C 144.85 163.93 146.15 163.60 146.74 162.59 Z M 147.06 162.05 L 147.70 161.30 C 148.47 160.39 148.36 159.04 147.45 158.28 C 146.55 157.51 145.20 157.62 144.44 158.52 L 143.80 159.28 C 143.03 160.18 143.14 161.53 144.04 162.30 C 144.94 163.06 146.29 162.95 147.06 162.05 Z M 147.44 161.58 L 148.24 160.93 C 149.16 160.17 149.29 158.81 148.53 157.88 C 147.78 156.96 146.41 156.83 145.49 157.59 L 144.70 158.24 C 143.77 159.00 143.64 160.36 144.40 161.28 C 145.16 162.20 146.52 162.34 147.44 161.58 Z M 148.02 161.10 L 148.89 160.56 C 149.90 159.92 150.21 158.58 149.58 157.56 C 148.94 156.54 147.60 156.23 146.58 156.87 L 145.71 157.41 C 144.69 158.05 144.38 159.39 145.02 160.41 C 145.66 161.43 147.00 161.74 148.02 161.10 Z M 148.76 160.64 L 149.66 160.16 C 150.72 159.59 151.12 158.27 150.55 157.20 C 149.98 156.14 148.65 155.74 147.59 156.31 L 146.70 156.79 C 145.63 157.36 145.23 158.68 145.80 159.75 C 146.38 160.81 147.70 161.21 148.76 160.64 Z M 149.54 160.23 L 150.44 159.82 C 151.54 159.31 152.02 158.01 151.52 156.91 C 151.01 155.81 149.71 155.32 148.61 155.83 L 147.71 156.24 C 146.60 156.75 146.12 158.05 146.63 159.15 C 147.13 160.25 148.43 160.74 149.54 160.23 Z M 150.20 159.92 L 151.11 159.63 C 152.26 159.25 152.90 158.01 152.52 156.85 C 152.15 155.70 150.91 155.06 149.75 155.44 L 148.85 155.73 C 147.69 156.10 147.05 157.34 147.43 158.50 C 147.80 159.66 149.04 160.29 150.20 159.92 Z M 150.89 159.69 L 151.88 159.48 C 153.07 159.22 153.83 158.05 153.58 156.86 C 153.33 155.67 152.15 154.91 150.96 155.16 L 149.97 155.37 C 148.78 155.63 148.02 156.80 148.27 157.99 C 148.52 159.18 149.70 159.94 150.89 159.69 Z M 151.76 159.50 L 152.73 159.35 C 153.94 159.16 154.76 158.03 154.57 156.83 C 154.38 155.62 153.25 154.80 152.05 154.99 L 151.08 155.14 C 149.87 155.33 149.05 156.46 149.24 157.66 C 149.43 158.87 150.56 159.69 151.76 159.50 Z M 152.65 159.36 L 153.65 159.24 C 154.86 159.10 155.73 158.01 155.59 156.79 C 155.45 155.58 154.35 154.71 153.14 154.86 L 152.13 154.97 C 150.92 155.12 150.05 156.21 150.20 157.42 C 150.34 158.64 151.43 159.50 152.65 159.36 Z M 153.58 159.25 L 154.57 159.17 C 155.78 159.07 156.69 158.00 156.59 156.79 C 156.49 155.57 155.42 154.67 154.20 154.77 L 153.21 154.85 C 152.00 154.95 151.10 156.02 151.20 157.23 C 151.30 158.45 152.36 159.35 153.58 159.25 Z M 154.51 159.17 L 155.51 159.12 C 156.73 159.05 157.66 158.01 157.60 156.79 C 157.53 155.58 156.49 154.64 155.27 154.71 L 154.27 154.77 C 153.05 154.83 152.12 155.87 152.18 157.09 C 152.25 158.31 153.29 159.24 154.51 159.17 Z M 155.46 159.12 L 156.46 159.08 C 157.68 159.05 158.63 158.03 158.60 156.81 C 158.56 155.59 157.54 154.64 156.32 154.68 L 155.32 154.71 C 154.11 154.75 153.15 155.77 153.19 156.98 C 153.23 158.20 154.25 159.16 155.46 159.12 Z M 156.43 159.08 L 157.43 159.07 C 158.64 159.05 159.61 158.05 159.59 156.83 C 159.57 155.61 158.57 154.64 157.36 154.66 L 156.36 154.68 C 155.14 154.70 154.17 155.70 154.19 156.92 C 154.21 158.13 155.21 159.10 156.43 159.08 Z M 157.40 159.06 L 158.40 159.06 C 159.61 159.05 160.59 158.06 160.58 156.85 C 160.58 155.63 159.59 154.66 158.37 154.66 L 157.38 154.67 C 156.17 154.67 155.19 155.66 155.19 156.88 C 155.20 158.09 156.19 159.07 157.40 159.06 Z M 158.39 159.05 L 159.40 159.05 C 160.61 159.05 161.60 158.07 161.59 156.86 C 161.59 155.65 160.61 154.66 159.40 154.66 L 158.38 154.67 C 157.17 154.67 156.19 155.65 156.19 156.86 C 156.19 158.07 157.17 159.06 158.39 159.05 Z M 159.40 159.05 L 160.42 159.05 C 161.63 159.05 162.61 158.07 162.61 156.86 C 162.61 155.65 161.63 154.67 160.42 154.67 L 159.40 154.67 C 158.19 154.67 157.21 155.65 157.21 156.86 C 157.21 158.07 158.19 159.05 159.40 159.05 Z M 160.42 159.05 L 161.41 159.05 C 162.62 159.05 163.60 158.07 163.60 156.86 C 163.60 155.65 162.62 154.67 161.41 154.67 L 160.42 154.67 C 159.21 154.67 158.23 155.65 158.23 156.86 C 158.23 158.07 159.21 159.05 160.42 159.05 Z M 161.41 159.05 L 162.43 159.05 C 163.64 159.05 164.61 158.07 164.61 156.86 C 164.61 155.65 163.64 154.67 162.43 154.67 L 161.41 154.67 C 160.20 154.67 159.22 155.65 159.22 156.86 C 159.22 158.07 160.20 159.05 161.41 159.05 Z M 162.43 159.04 L 163.38 159.04 C 164.58 159.04 165.56 158.07 165.56 156.86 C 165.56 155.65 164.58 154.68 163.38 154.68 L 162.43 154.68 C 161.22 154.68 160.25 155.65 160.24 156.86 C 160.24 158.07 161.22 159.04 162.43 159.04 Z M 163.35 159.04 L 164.31 159.05 C 165.52 159.06 166.50 158.09 166.51 156.89 C 166.52 155.69 165.56 154.70 164.35 154.69 L 163.40 154.68 C 162.19 154.67 161.21 155.63 161.20 156.84 C 161.18 158.04 162.15 159.03 163.35 159.04 Z M 164.25 159.05 L 165.29 159.09 C 166.49 159.13 167.50 158.19 167.55 156.99 C 167.59 155.79 166.65 154.78 165.45 154.73 L 164.41 154.69 C 163.21 154.65 162.20 155.58 162.15 156.79 C 162.11 157.99 163.05 159.00 164.25 159.05 Z M 165.22 159.08 L 166.22 159.15 C 167.42 159.23 168.45 158.32 168.53 157.12 C 168.61 155.92 167.71 154.88 166.51 154.80 L 165.51 154.74 C 164.31 154.66 163.28 155.56 163.20 156.76 C 163.12 157.96 164.02 159.00 165.22 159.08 Z M 166.15 159.14 L 167.18 159.24 C 168.37 159.36 169.44 158.48 169.55 157.29 C 169.67 156.09 168.80 155.03 167.60 154.91 L 166.57 154.81 C 165.38 154.69 164.31 155.57 164.20 156.76 C 164.08 157.96 164.95 159.02 166.15 159.14 Z M 167.07 159.22 L 168.13 159.38 C 169.32 159.56 170.42 158.74 170.60 157.55 C 170.77 156.36 169.95 155.26 168.77 155.08 L 167.71 154.92 C 166.52 154.75 165.41 155.57 165.24 156.76 C 165.06 157.94 165.88 159.05 167.07 159.22 Z M 167.95 159.34 L 168.90 159.57 C 170.07 159.85 171.24 159.12 171.51 157.96 C 171.79 156.79 171.07 155.62 169.90 155.34 L 168.95 155.12 C 167.78 154.84 166.61 155.56 166.34 156.73 C 166.06 157.90 166.78 159.07 167.95 159.34 Z M 168.57 159.46 L 169.50 159.85 C 170.61 160.31 171.88 159.79 172.34 158.69 C 172.81 157.58 172.28 156.31 171.18 155.85 L 170.24 155.45 C 169.13 154.99 167.86 155.51 167.40 156.62 C 166.94 157.73 167.46 159.00 168.57 159.46 Z M 168.75 159.34 L 169.38 160.01 C 170.20 160.88 171.58 160.93 172.45 160.11 C 173.33 159.29 173.38 157.91 172.56 157.03 L 171.93 156.36 C 171.11 155.48 169.73 155.44 168.85 156.26 C 167.98 157.08 167.93 158.46 168.75 159.34 Z M 168.78 158.47 L 168.76 159.32 C 168.73 160.53 169.68 161.54 170.89 161.56 C 172.10 161.59 173.11 160.64 173.14 159.43 L 173.16 158.57 C 173.19 157.36 172.23 156.36 171.02 156.33 C 169.81 156.30 168.81 157.26 168.78 158.47 Z M 168.98 158.37 L 168.48 159.35 C 167.92 160.44 168.35 161.77 169.44 162.32 C 170.53 162.88 171.86 162.45 172.41 161.36 L 172.91 160.38 C 173.47 159.30 173.04 157.96 171.95 157.41 C 170.87 156.85 169.53 157.28 168.98 158.37 Z M 168.69 158.99 L 168.10 159.75 C 167.35 160.72 167.52 162.12 168.49 162.87 C 169.45 163.62 170.85 163.45 171.60 162.48 L 172.20 161.72 C 172.95 160.75 172.78 159.36 171.81 158.60 C 170.84 157.85 169.45 158.02 168.69 158.99 Z M 168.22 159.61 L 167.52 160.36 C 166.69 161.26 166.74 162.67 167.64 163.50 C 168.54 164.34 169.94 164.28 170.78 163.38 L 171.48 162.63 C 172.31 161.73 172.26 160.33 171.36 159.49 C 170.46 158.66 169.06 158.71 168.22 159.61 Z M 167.60 160.29 L 166.87 161.00 C 166.00 161.85 165.98 163.26 166.84 164.13 C 167.69 165.01 169.10 165.03 169.97 164.17 L 170.70 163.46 C 171.58 162.61 171.59 161.20 170.74 160.33 C 169.88 159.45 168.48 159.43 167.60 160.29 Z M 166.94 160.94 L 166.20 161.61 C 165.30 162.43 165.23 163.83 166.05 164.73 C 166.87 165.64 168.27 165.71 169.18 164.89 L 169.91 164.23 C 170.81 163.40 170.88 162.00 170.06 161.10 C 169.24 160.19 167.84 160.12 166.94 160.94 Z M 166.26 161.56 L 165.50 162.21 C 164.57 163.00 164.45 164.39 165.24 165.32 C 166.02 166.25 167.42 166.37 168.35 165.58 L 169.12 164.93 C 170.05 164.15 170.16 162.75 169.38 161.82 C 168.59 160.89 167.20 160.77 166.26 161.56 Z M 165.55 162.18 L 164.80 162.78 C 163.86 163.54 163.71 164.92 164.46 165.87 C 165.22 166.81 166.61 166.96 167.55 166.21 L 168.30 165.61 C 169.24 164.85 169.40 163.47 168.64 162.52 C 167.88 161.57 166.50 161.42 165.55 162.18 Z M 164.85 162.76 L 164.05 163.38 C 163.10 164.11 162.92 165.48 163.65 166.43 C 164.38 167.39 165.75 167.57 166.71 166.83 L 167.51 166.22 C 168.46 165.49 168.64 164.12 167.91 163.16 C 167.17 162.21 165.80 162.03 164.85 162.76 Z M 164.09 163.37 L 163.25 164.00 C 162.29 164.71 162.09 166.06 162.80 167.02 C 163.51 167.98 164.86 168.18 165.82 167.47 L 166.66 166.84 C 167.62 166.13 167.82 164.78 167.12 163.82 C 166.41 162.86 165.05 162.66 164.09 163.37 Z M 163.29 164.00 L 162.43 164.61 C 161.47 165.30 161.25 166.63 161.93 167.59 C 162.62 168.55 163.95 168.77 164.91 168.09 L 165.77 167.47 C 166.73 166.78 166.95 165.45 166.27 164.49 C 165.58 163.53 164.25 163.31 163.29 164.00 Z M 162.47 164.62 L 161.65 165.19 C 160.69 165.85 160.46 167.16 161.12 168.12 C 161.78 169.07 163.09 169.31 164.05 168.65 L 164.87 168.08 C 165.83 167.42 166.06 166.10 165.40 165.15 C 164.74 164.19 163.43 163.96 162.47 164.62 Z M 161.70 165.20 L 160.86 165.75 C 159.91 166.39 159.65 167.67 160.29 168.63 C 160.92 169.58 162.21 169.84 163.16 169.20 L 164.00 168.64 C 164.95 168.01 165.21 166.72 164.57 165.77 C 163.94 164.82 162.65 164.56 161.70 165.20 Z M 160.94 165.75 L 160.10 166.27 C 159.15 166.86 158.86 168.11 159.45 169.07 C 160.04 170.02 161.29 170.31 162.24 169.72 L 163.08 169.20 C 164.03 168.61 164.32 167.36 163.73 166.41 C 163.14 165.46 161.89 165.16 160.94 165.75 Z M 160.18 166.28 L 159.37 166.75 C 158.42 167.30 158.10 168.51 158.65 169.46 C 159.20 170.41 160.41 170.73 161.36 170.18 L 162.17 169.71 C 163.11 169.17 163.44 167.95 162.89 167.00 C 162.34 166.06 161.13 165.73 160.18 166.28 Z M 159.41 166.77 L 158.54 167.26 C 157.60 167.79 157.27 168.98 157.80 169.92 C 158.33 170.86 159.52 171.18 160.46 170.65 L 161.33 170.16 C 162.26 169.63 162.59 168.44 162.06 167.50 C 161.53 166.57 160.34 166.24 159.41 166.77 Z M 158.56 167.28 L 157.76 167.73 C 156.83 168.25 156.51 169.42 157.03 170.35 C 157.55 171.27 158.72 171.60 159.64 171.08 L 160.44 170.63 C 161.36 170.11 161.69 168.94 161.17 168.02 C 160.65 167.09 159.48 166.76 158.56 167.28 Z M 157.81 167.73 L 156.87 168.23 C 155.94 168.72 155.59 169.88 156.09 170.80 C 156.58 171.73 157.74 172.08 158.66 171.58 L 159.60 171.08 C 160.52 170.58 160.87 169.43 160.38 168.51 C 159.88 167.58 158.73 167.23 157.81 167.73 Z M 156.91 168.23 L 156.06 168.66 C 155.13 169.13 154.76 170.26 155.23 171.19 C 155.70 172.12 156.84 172.49 157.76 172.02 L 158.62 171.58 C 159.54 171.11 159.92 169.98 159.44 169.05 C 158.97 168.13 157.84 167.75 156.91 168.23 Z M 156.10 168.65 L 155.16 169.10 C 154.23 169.55 153.84 170.67 154.29 171.60 C 154.73 172.53 155.85 172.92 156.78 172.48 L 157.72 172.02 C 158.65 171.58 159.04 170.46 158.60 169.53 C 158.15 168.60 157.03 168.21 156.10 168.65 Z M 155.22 169.10 L 154.24 169.53 C 153.30 169.95 152.88 171.05 153.30 171.98 C 153.72 172.92 154.81 173.34 155.75 172.92 L 156.73 172.48 C 157.66 172.07 158.08 170.97 157.66 170.04 C 157.25 169.10 156.15 168.68 155.22 169.10 Z M 154.32 169.52 L 153.36 169.90 C 152.42 170.27 151.95 171.34 152.33 172.28 C 152.70 173.23 153.77 173.69 154.71 173.31 L 155.67 172.93 C 156.61 172.56 157.07 171.49 156.70 170.55 C 156.32 169.61 155.26 169.15 154.32 169.52 Z M 153.47 169.88 L 152.58 170.17 C 151.63 170.48 151.11 171.51 151.42 172.46 C 151.74 173.41 152.76 173.93 153.71 173.62 L 154.60 173.33 C 155.55 173.02 156.07 171.99 155.76 171.04 C 155.45 170.09 154.42 169.57 153.47 169.88 Z M 152.77 170.13 L 151.74 170.36 C 150.77 170.57 150.15 171.53 150.36 172.50 C 150.58 173.48 151.54 174.09 152.51 173.88 L 153.53 173.66 C 154.51 173.45 155.12 172.48 154.91 171.51 C 154.70 170.54 153.74 169.92 152.77 170.13 Z M 151.90 170.33 L 150.98 170.45 C 150.00 170.58 149.30 171.48 149.43 172.47 C 149.55 173.45 150.46 174.15 151.44 174.02 L 152.36 173.91 C 153.34 173.78 154.04 172.88 153.91 171.89 C 153.79 170.90 152.88 170.21 151.90 170.33 Z"
      fill="black"
      fill-rule="nonzero" /><path d="M 151.27 145.55 L 151.36 146.61 C 151.46 147.71 152.43 148.51 153.53 148.42 C 154.63 148.32 155.44 147.34 155.34 146.25 L 155.24 145.19 C 155.14 144.09 154.17 143.28 153.07 143.38 C 151.97 143.48 151.17 144.46 151.27 145.55 Z M 151.25 146.62 L 151.34 147.62 C 151.45 148.78 152.48 149.63 153.64 149.53 C 154.80 149.42 155.65 148.39 155.54 147.23 L 155.45 146.23 C 155.34 145.07 154.31 144.22 153.15 144.33 C 151.99 144.44 151.14 145.46 151.25 146.62 Z M 151.25 147.64 L 151.34 148.61 C 151.46 149.82 152.54 150.71 153.75 150.59 C 154.96 150.47 155.85 149.39 155.73 148.18 L 155.64 147.21 C 155.52 146.00 154.44 145.11 153.23 145.23 C 152.01 145.35 151.13 146.43 151.25 147.64 Z M 151.30 148.63 L 151.41 149.64 C 151.54 150.87 152.65 151.77 153.88 151.63 C 155.12 151.50 156.01 150.39 155.88 149.15 L 155.77 148.15 C 155.64 146.92 154.53 146.02 153.30 146.16 C 152.06 146.29 151.17 147.40 151.30 148.63 Z M 151.40 149.66 L 151.51 150.60 C 151.66 151.83 152.78 152.72 154.02 152.57 C 155.26 152.42 156.14 151.30 155.99 150.07 L 155.88 149.13 C 155.74 147.89 154.62 147.01 153.38 147.16 C 152.14 147.30 151.26 148.42 151.40 149.66 Z M 151.51 150.60 L 151.63 151.57 C 151.78 152.81 152.90 153.69 154.14 153.54 C 155.38 153.39 156.27 152.27 156.12 151.03 L 156.00 150.06 C 155.85 148.82 154.72 147.94 153.48 148.09 C 152.24 148.24 151.36 149.36 151.51 150.60 Z M 151.62 151.55 L 151.73 152.57 C 151.87 153.81 152.99 154.71 154.23 154.57 C 155.47 154.44 156.37 153.32 156.23 152.08 L 156.12 151.05 C 155.99 149.81 154.87 148.91 153.63 149.05 C 152.38 149.19 151.49 150.30 151.62 151.55 Z M 151.73 152.53 L 151.81 153.49 C 151.93 154.74 153.03 155.66 154.28 155.54 C 155.53 155.43 156.44 154.33 156.33 153.08 L 156.24 152.12 C 156.13 150.87 155.02 149.95 153.78 150.06 C 152.53 150.18 151.61 151.28 151.73 152.53 Z M 151.81 153.46 L 151.89 154.48 C 151.98 155.73 153.07 156.67 154.32 156.57 C 155.57 156.48 156.51 155.39 156.41 154.14 L 156.34 153.11 C 156.24 151.86 155.15 150.93 153.90 151.02 C 152.65 151.12 151.71 152.21 151.81 153.46 Z M 151.88 154.45 L 151.94 155.42 C 152.02 156.68 153.10 157.63 154.35 157.55 C 155.61 157.47 156.56 156.39 156.48 155.14 L 156.42 154.17 C 156.34 152.91 155.26 151.96 154.01 152.04 C 152.75 152.12 151.80 153.20 151.88 154.45 Z M 151.94 155.41 L 151.99 156.39 C 152.06 157.65 153.14 158.61 154.39 158.54 C 155.64 158.47 156.61 157.40 156.54 156.14 L 156.48 155.16 C 156.41 153.90 155.34 152.94 154.09 153.01 C 152.83 153.08 151.87 154.15 151.94 155.41 Z M 151.99 156.39 L 152.05 157.43 C 152.11 158.69 153.18 159.65 154.44 159.59 C 155.70 159.52 156.66 158.45 156.59 157.19 L 156.54 156.15 C 156.47 154.89 155.40 153.93 154.15 153.99 C 152.89 154.06 151.93 155.13 151.99 156.39 Z M 152.05 157.44 L 152.10 158.41 C 152.16 159.67 153.24 160.63 154.49 160.57 C 155.75 160.50 156.71 159.43 156.65 158.17 L 156.59 157.19 C 156.53 155.94 155.45 154.97 154.20 155.04 C 152.94 155.11 151.98 156.18 152.05 157.44 Z M 152.10 158.41 L 152.15 159.41 C 152.21 160.67 153.29 161.63 154.54 161.57 C 155.80 161.50 156.76 160.43 156.70 159.18 L 156.65 158.17 C 156.58 156.92 155.51 155.95 154.25 156.02 C 153.00 156.08 152.03 157.15 152.10 158.41 Z M 152.15 159.40 L 152.20 160.42 C 152.26 161.67 153.32 162.64 154.58 162.59 C 155.83 162.53 156.80 161.46 156.75 160.21 L 156.70 159.19 C 156.64 157.93 155.57 156.96 154.32 157.02 C 153.06 157.08 152.09 158.14 152.15 159.40 Z M 152.20 160.40 L 152.23 161.40 C 152.28 162.66 153.34 163.64 154.60 163.59 C 155.85 163.54 156.83 162.48 156.79 161.23 L 156.75 160.22 C 156.70 158.97 155.64 157.99 154.38 158.04 C 153.13 158.08 152.15 159.14 152.20 160.40 Z M 152.23 161.38 L 152.26 162.38 C 152.30 163.63 153.35 164.62 154.61 164.58 C 155.86 164.55 156.85 163.50 156.82 162.24 L 156.79 161.25 C 156.75 159.99 155.70 159.00 154.44 159.04 C 153.18 159.08 152.20 160.13 152.23 161.38 Z M 152.26 162.36 L 152.29 163.36 C 152.32 164.62 153.36 165.61 154.62 165.58 C 155.88 165.55 156.87 164.51 156.84 163.25 L 156.82 162.25 C 156.78 161.00 155.74 160.00 154.48 160.03 C 153.23 160.06 152.23 161.11 152.26 162.36 Z M 152.29 163.36 L 152.31 164.36 C 152.34 165.61 153.38 166.61 154.63 166.58 C 155.89 166.56 156.89 165.52 156.86 164.26 L 156.84 163.26 C 156.81 162.00 155.77 161.01 154.52 161.03 C 153.26 161.06 152.26 162.10 152.29 163.36 Z M 152.31 164.35 L 152.33 165.34 C 152.35 166.60 153.39 167.60 154.65 167.57 C 155.90 167.55 156.90 166.51 156.88 165.26 L 156.86 164.27 C 156.84 163.01 155.80 162.01 154.54 162.03 C 153.29 162.06 152.29 163.09 152.31 164.35 Z M 152.33 165.33 L 152.35 166.34 C 152.36 167.59 153.40 168.60 154.65 168.58 C 155.91 168.56 156.91 167.52 156.89 166.27 L 156.88 165.26 C 156.86 164.01 155.82 163.01 154.57 163.03 C 153.31 163.04 152.31 164.08 152.33 165.33 Z M 152.35 166.33 L 152.36 167.34 C 152.37 168.60 153.40 169.60 154.66 169.59 C 155.91 169.57 156.92 168.54 156.90 167.29 L 156.89 166.28 C 156.88 165.02 155.85 164.01 154.59 164.03 C 153.34 164.04 152.33 165.07 152.35 166.33 Z M 152.36 167.33 L 152.37 168.33 C 152.37 169.59 153.40 170.60 154.65 170.59 C 155.91 170.58 156.92 169.56 156.91 168.30 L 156.90 167.30 C 156.89 166.04 155.87 165.03 154.61 165.04 C 153.36 165.05 152.35 166.08 152.36 167.33 Z M 152.37 168.33 L 152.37 169.33 C 152.37 170.58 153.39 171.60 154.65 171.59 C 155.90 171.59 156.92 170.57 156.91 169.31 L 156.91 168.31 C 156.91 167.06 155.89 166.04 154.63 166.05 C 153.38 166.05 152.36 167.07 152.37 168.33 Z M 152.37 169.32 L 152.37 170.32 C 152.37 171.58 153.39 172.59 154.64 172.59 C 155.90 172.59 156.91 171.57 156.91 170.32 L 156.91 169.32 C 156.91 168.06 155.89 167.05 154.64 167.05 C 153.38 167.05 152.37 168.07 152.37 169.32 Z M 152.37 170.32 L 152.37 171.32 C 152.37 172.58 153.39 173.60 154.64 173.60 C 155.90 173.60 156.91 172.58 156.91 171.32 L 156.91 170.32 C 156.91 169.06 155.90 168.05 154.64 168.05 C 153.39 168.05 152.37 169.06 152.37 170.32 Z M 152.37 171.32 L 152.37 172.34 C 152.37 173.59 153.39 174.61 154.64 174.61 C 155.90 174.61 156.91 173.59 156.91 172.34 L 156.91 171.32 C 156.91 170.07 155.90 169.05 154.64 169.05 C 153.39 169.05 152.37 170.07 152.37 171.32 Z M 152.37 172.34 L 152.37 173.34 C 152.37 174.59 153.39 175.61 154.64 175.61 C 155.90 175.61 156.91 174.59 156.91 173.34 L 156.91 172.34 C 156.91 171.09 155.90 170.07 154.64 170.07 C 153.39 170.07 152.37 171.09 152.37 172.34 Z M 152.37 173.34 L 152.37 174.32 C 152.37 175.57 153.39 176.59 154.64 176.59 C 155.90 176.59 156.91 175.57 156.91 174.32 L 156.91 173.34 C 156.91 172.08 155.90 171.07 154.64 171.07 C 153.39 171.07 152.37 172.08 152.37 173.34 Z M 152.37 174.32 L 152.37 175.33 C 152.37 176.58 153.39 177.60 154.64 177.60 C 155.89 177.60 156.91 176.59 156.91 175.33 L 156.91 174.32 C 156.91 173.06 155.90 172.05 154.64 172.05 C 153.39 172.05 152.37 173.06 152.37 174.32 Z M 152.37 175.33 L 152.37 176.32 C 152.37 177.58 153.38 178.59 154.63 178.60 C 155.89 178.60 156.90 177.59 156.91 176.33 L 156.91 175.34 C 156.91 174.08 155.90 173.07 154.65 173.06 C 153.39 173.06 152.38 174.07 152.37 175.33 Z M 152.37 176.31 L 152.37 177.30 C 152.36 178.56 153.37 179.58 154.62 179.58 C 155.87 179.59 156.89 178.58 156.90 177.33 L 156.91 176.34 C 156.91 175.09 155.91 174.07 154.65 174.06 C 153.40 174.05 152.38 175.06 152.37 176.31 Z M 152.37 177.29 L 152.35 178.32 C 152.34 179.57 153.34 180.60 154.59 180.61 C 155.84 180.63 156.87 179.63 156.89 178.38 L 156.90 177.35 C 156.91 176.09 155.91 175.07 154.66 175.05 C 153.41 175.04 152.38 176.04 152.37 177.29 Z M 152.36 178.30 L 152.34 179.32 C 152.31 180.57 153.30 181.60 154.55 181.63 C 155.80 181.66 156.83 180.67 156.86 179.42 L 156.88 178.40 C 156.91 177.15 155.92 176.11 154.67 176.09 C 153.42 176.06 152.38 177.05 152.36 178.30 Z M 152.34 179.29 L 152.30 180.25 C 152.26 181.50 153.24 182.54 154.48 182.59 C 155.73 182.63 156.78 181.66 156.82 180.41 L 156.86 179.45 C 156.90 178.20 155.93 177.15 154.68 177.11 C 153.43 177.06 152.38 178.04 152.34 179.29 Z M 152.31 180.20 L 152.25 181.25 C 152.18 182.50 153.13 183.57 154.38 183.64 C 155.62 183.71 156.69 182.76 156.76 181.51 L 156.82 180.46 C 156.89 179.21 155.94 178.15 154.69 178.08 C 153.45 178.00 152.38 178.96 152.31 180.20 Z M 152.26 181.20 L 152.18 182.18 C 152.08 183.42 153.01 184.51 154.25 184.61 C 155.49 184.70 156.57 183.78 156.67 182.54 L 156.75 181.56 C 156.85 180.32 155.92 179.23 154.68 179.14 C 153.44 179.04 152.36 179.96 152.26 181.20 Z M 152.19 182.15 L 152.10 183.12 C 151.98 184.36 152.89 185.46 154.13 185.57 C 155.37 185.69 156.46 184.78 156.58 183.54 L 156.67 182.57 C 156.78 181.33 155.87 180.23 154.63 180.12 C 153.40 180.00 152.30 180.91 152.19 182.15 Z M 152.10 183.12 L 152.01 184.12 C 151.89 185.35 152.79 186.45 154.03 186.57 C 155.26 186.68 156.36 185.78 156.47 184.55 L 156.57 183.55 C 156.69 182.31 155.78 181.22 154.55 181.10 C 153.32 180.98 152.22 181.88 152.10 183.12 Z M 152.01 184.13 L 151.93 185.08 C 151.82 186.31 152.73 187.40 153.96 187.51 C 155.19 187.62 156.28 186.71 156.39 185.48 L 156.47 184.53 C 156.58 183.30 155.67 182.21 154.44 182.10 C 153.21 181.99 152.12 182.90 152.01 184.13 Z M 151.93 185.10 L 151.85 186.07 C 151.75 187.30 152.66 188.38 153.89 188.48 C 155.12 188.58 156.20 187.67 156.30 186.44 L 156.38 185.46 C 156.48 184.24 155.57 183.16 154.34 183.06 C 153.11 182.96 152.04 183.87 151.93 185.10 Z M 151.86 186.06 L 151.77 187.06 C 151.66 188.28 152.56 189.36 153.79 189.47 C 155.01 189.58 156.09 188.68 156.20 187.46 L 156.29 186.46 C 156.40 185.24 155.50 184.16 154.28 184.05 C 153.05 183.94 151.97 184.84 151.86 186.06 Z M 151.79 187.04 L 151.69 188.05 C 151.57 189.27 152.46 190.35 153.67 190.46 C 154.89 190.58 155.97 189.69 156.09 188.48 L 156.18 187.47 C 156.30 186.26 155.41 185.18 154.20 185.06 C 152.98 184.94 151.90 185.83 151.79 187.04 Z M 151.70 188.05 L 151.59 189.14 C 151.47 190.34 152.36 191.42 153.57 191.54 C 154.77 191.66 155.85 190.77 155.97 189.57 L 156.08 188.48 C 156.19 187.27 155.31 186.20 154.10 186.08 C 152.89 185.96 151.82 186.84 151.70 188.05 Z M 151.61 189.13 L 151.49 190.29 C 151.37 191.49 152.24 192.56 153.44 192.68 C 154.63 192.81 155.70 191.94 155.83 190.74 L 155.95 189.57 C 156.07 188.38 155.20 187.31 154.00 187.18 C 152.81 187.06 151.74 187.93 151.61 189.13 Z M 154.77 188.73 L 154.71 188.69 C 153.72 188.08 152.43 188.38 151.81 189.36 C 151.20 190.35 151.50 191.64 152.48 192.26 L 152.55 192.30 C 153.53 192.91 154.83 192.61 155.44 191.63 C 156.06 190.64 155.76 189.35 154.77 188.73 Z M 155.56 190.47 L 155.56 189.26 C 155.55 188.18 154.67 187.30 153.58 187.31 C 152.50 187.31 151.62 188.19 151.63 189.28 L 151.63 190.48 C 151.64 191.57 152.52 192.45 153.60 192.44 C 154.69 192.44 155.57 191.55 155.56 190.47 Z M 155.45 189.27 L 155.45 188.27 C 155.45 187.24 154.62 186.41 153.59 186.41 C 152.56 186.41 151.73 187.24 151.73 188.27 L 151.73 189.27 C 151.73 190.30 152.56 191.13 153.59 191.13 C 154.62 191.13 155.45 190.30 155.45 189.27 Z M 155.41 188.27 L 155.41 187.88 C 155.41 186.88 154.59 186.07 153.59 186.07 C 152.59 186.07 151.77 186.88 151.77 187.88 L 151.77 188.27 C 151.77 189.27 152.59 190.09 153.59 190.09 C 154.59 190.09 155.41 189.27 155.41 188.27 Z"
      fill="black"
      fill-rule="nonzero" /></svg>