<svg xmlns="http://www.w3.org/2000/svg" width="300" height="300" viewBox="0 0 300 300">
<path d="M 142.1457355909689 96.89020975203552 L 144.4224759619658 97.87462716943219 L 147.96789527673945 98.72023846028014 L 150.37852662882818 99.16328030033736 L 152.24104525389066 99.66374984049472 L 153.19657681642184 96.19342789388028 L 151.24195676960932 95.64287204341264 L 148.89917015294805 95.03488849284486 L 145.7105806786592 94.02869314306781 L 143.7380534715311 93.18632833390198 Z" fill="black" />
<path d="M 123.6041259765625 110.37226843833923 L 122.46223812484796 110.5440747631223 L 123.37311670312148 114.43553655283542 L 125.97611880888901 114.18121456137173 L 127.75375335348524 114.04401731716746 L 129.84775518079567 113.86773765952945 L 132.203013959972 113.59900887644743 L 134.93349564783003 113.20706509604834 L 137.73826822721477 112.80183151933588 L 140.81740350200354 112.25688267935935 L 144.1292690992958 111.63127497478345 L 147.54076430424539 110.93421532701444 L 150.93542935133996 110.09054205956312 L 154.6519080631959 109.1604674530088 L 157.68631031361386 108.35431121264004 L 160.6561661284113 107.62308601762011 L 163.463973128065 106.8751201450145 L 165.99175672990987 106.13100674281839 L 168.16199114096113 105.5261714688039 L 170.44670521142922 104.8448406380605 L 172.49431159005408 103.99871318333582 L 171.07868645682092 100.44183857447668 L 169.16511119482078 101.1722492056895 L 167.09252546060137 101.8172123202586 L 164.94147080915263 102.38852450718161 L 162.4277505047475 103.0958271206105 L 159.6899032075262 103.79927726362989 L 156.71798656138614 104.51946808423496 L 153.7025841243041 105.2898499298037 L 150.00084994553504 106.08645989356188 L 146.66150620356711 106.81932471204806 L 143.3389926194542 107.42353459552905 L 140.06089239643396 107.99909876595315 L 137.05421224153523 108.50517531660162 L 134.31333052404497 108.90072298988916 L 131.642200883778 109.28453604542757 L 129.38808466295433 109.54131995765805 L 127.37686188088976 109.76543092502004 L 125.58943294892349 109.90350223550327 L 122.89885595312852 110.17469293935208 L 120.78483218765204 114.4665453540652 L 123.6041259765625 114.63835167884827 Z" fill="black" />
<path d="M 123.438761504543 115.18460022605554 L 122.6909215309241 120.16481963131174 L 122.48824319290013 122.74708392773418 L 122.06027526253281 125.7750504085008 L 121.46534209831752 129.41073612448432 L 120.70966891858325 133.64901382548783 L 119.60647234995498 138.3040146721776 L 118.24935459588961 143.58950308780422 L 116.71632381104976 148.2438824167713 L 115.01624728692718 152.84206224452564 L 113.0646433902105 157.1771455856607 L 110.98113843818234 161.2788085253253 L 108.94785101136358 164.94327491524936 L 106.82861044359213 168.59592924537793 L 105.28622978052066 170.98445685813942 L 103.71622085601055 173.17765339587694 L 102.2550369795138 175.04065911789414 L 100.8005077533103 176.72078093904162 L 99.3557464902972 178.16391624745643 L 97.76525205320449 179.59425053671242 L 96.59754862662689 180.4244863455858 L 95.24360277356858 181.0942183689472 L 93.92830766335717 181.73671961812144 L 92.7338902067835 182.14953328403703 L 90.09932707776466 182.55565894884043 L 89.23858149707107 182.79408847317643 L 88.91957230266662 182.25281690531423 L 88.617575350739 179.9341854399588 L 85.056741055511 180.4585147553537 L 85.54698043170838 183.52013231343577 L 87.60468022167893 186.03183926119857 L 90.41703034411034 186.27026878553457 L 93.4721644807165 185.87561320033797 L 95.30264936789283 185.36252354594106 L 96.90422437486892 184.6787308498028 L 98.57518086556061 183.9220712716017 L 100.18030458742051 182.90050043985008 L 102.1548736268903 181.55312476816857 L 104.0231006451272 180.09342804533338 L 105.8815597001737 178.34520513991836 L 107.69735336273945 176.40449992443556 L 109.58437568822934 174.09330193092308 L 111.46301553297037 171.47694673118457 L 113.70107476988642 167.62227684256314 L 115.77301195244266 163.7794190137372 L 117.902763836352 159.4478544143393 L 119.91234158026032 154.79917310703686 L 121.63328556395024 149.9131000051037 L 123.16116786504789 144.95810433407078 L 124.43283429067002 139.4330458746974 L 125.45427151110425 134.57876937763717 L 126.13902801886998 130.13357539895318 L 126.58840637809219 126.3870589664992 L 126.95267477584987 123.20897075976582 L 127.1461146018884 120.51108368900076 L 127.1905109563945 115.48153746925696 Z" fill="black" />
<path d="M 130.7439559673864 129.9081322537209 L 131.60970659825068 128.9574387942399 L 133.9755937792412 128.18095559584003 L 135.6625517822552 127.62339730263737 L 137.55704481619898 127.05163023490563 L 139.59980603135463 126.39714807975841 L 141.86152476308257 125.68927233392367 L 143.88619665341415 125.1090730630823 L 145.85595428956515 124.54935888201506 L 147.60770413348803 124.07225728434167 L 151.6837409044921 123.0769953548536 L 150.8370110486329 119.5758366763964 L 146.73860934307447 120.55750345784583 L 144.92529571043485 121.00630518048494 L 142.93387170596085 121.4976163900427 L 140.85331898691743 121.99346692388883 L 138.50566271864537 122.58686070930409 L 136.44319932442602 123.13355042915687 L 134.5205536864948 123.61280875205013 L 132.6424482129463 124.10627584947247 L 129.31863812831182 125.30672136201011 L 127.69964754823859 127.50910407440408 Z" fill="black" />
<path d="M 140.27602310152935 114.9019552690471 L 138.05499918640515 116.7105110594116 L 137.94916355696355 119.87688955755729 L 138.05420447871597 121.58108244673426 L 138.21164733758837 123.28506585299941 L 138.32255962579958 125.12699295348612 L 138.36792421340942 127.19464111328125 L 138.4068887233734 129.37176513671875 L 138.43320655822754 131.6114501953125 L 138.44077535062857 133.8949953025948 L 138.37445516207666 135.62665934061928 L 138.184150540784 137.20283659960145 L 141.7578660607785 137.63139191602355 L 141.96367960354834 135.90434651875572 L 142.04140238374643 133.9574216895927 L 142.04897117614746 131.6114501953125 L 142.0752890110016 129.37176513671875 L 142.11425352096558 127.19464111328125 L 142.15961810857542 125.05818771057638 L 142.12648742803663 123.07137945950059 L 142.03185509159653 121.34701813920324 L 141.99285304459895 119.74798837213021 L 141.77898518859485 118.3098746827759 L 142.43882064847065 118.2666238325154 Z" fill="black" />
<path d="M 129.0402765229596 137.06866251385404 L 127.54678320048652 138.9721281678368 L 127.46342052618115 141.93872726087108 L 128.05439109650783 144.52416908301433 L 129.04893205835674 148.74840645256214 L 129.48732232072285 151.48338961312786 L 129.7412615480538 153.36386287474045 L 129.7211470603943 155.27203369140625 L 133.72573828697205 153.69549560546875 L 133.73790863744773 151.39100189673954 L 133.98098196263717 150.09710556086333 L 134.34304703425875 148.68661913186065 L 134.88261903388167 147.21109194520787 L 135.54562507223966 145.77828000673833 L 136.41799188615835 144.17859952856656 L 137.17305824308187 142.9774222444027 L 137.94794344763733 142.06007803468898 L 139.8550625456768 140.31705010749815 L 141.70623127522748 139.3440654327142 L 143.04135562789062 139.29304260038518 L 143.93157142610596 139.56024630821477 L 144.88718113747274 140.514343004478 L 145.3387219239411 141.8971190432141 L 145.56021762505492 143.8524563318166 L 145.5676499880323 146.16296689997938 L 145.4497524249657 147.93136560333457 L 144.85241970335838 149.43065216080745 L 144.21693148320074 150.6651799989166 L 143.56728998084955 151.3126637233854 L 141.59755820993365 151.43175253350304 L 141.80148964162885 155.03333535712196 L 144.69320806602545 154.8771556125521 L 147.10447964961176 153.2974664854584 L 148.44958224976662 151.22877166731755 L 149.4367221844093 148.89932287322793 L 149.7149427854052 146.33849794377062 L 149.72237514838258 143.6191012853709 L 149.4037097166839 140.9699463864734 L 148.41482081565226 138.273742933022 L 146.20148521451904 136.04973904334773 L 143.52663753617188 135.14079529023982 L 140.50446208414752 135.3400165985358 L 137.4581698761982 136.89449774406435 L 135.00798916955017 139.10532723874852 L 133.80228355379313 140.5402779509098 L 132.82883428571665 142.11681062768344 L 131.86465324807284 143.94547487607417 L 131.08722959893083 145.66573910947963 L 130.43844710636625 147.49343457907685 L 130.00827584986283 149.26104873601167 L 129.71118804223977 151.12022857201046 L 129.72335839271545 153.69549560546875 L 133.7279496192932 155.27203369140625 L 133.7078351316337 153.10122501588455 L 133.42161322615215 150.90271878530964 L 132.95973493383076 147.95715995368786 L 131.97368507536717 143.62304771386067 L 131.48433338006885 141.45385086412892 L 131.40097070576348 140.2163483946632 L 132.0321111723529 139.74249471270846 Z" fill="black" />
<path d="M 132.64796284548257 150.6668147627645 L 134.17664756602838 150.21379734474183 L 135.51460373910245 149.8341549020815 L 137.02677538931812 149.41308968594896 L 138.70940034969368 148.91873237054523 L 140.26691083999847 148.49927950706285 L 141.76728674190915 148.07380304839396 L 144.4682060521315 147.52741637931027 L 146.10982870002692 147.18116341287603 L 146.5746802797309 147.94818518316836 L 149.2120628843316 145.45415856683164 L 147.19217325309808 143.59361686056147 L 143.9363349634935 143.64775451912723 L 140.94755700809085 144.15239324066854 L 139.27898759750153 144.52769803199965 L 137.66755277530632 144.88400200445477 L 135.92915722786938 145.31554800936354 L 134.41642653433505 145.695264043231 L 132.83751259022162 146.09137843650817 L 131.19725199826743 146.8395328934855 Z" fill="black" />
<path d="M 130.75799738563722 154.6749812111137 L 127.47101801192953 156.76936292758774 L 131.64658172022007 159.64348658006296 L 135.71285673726592 158.15510999874323 L 137.25926173265094 157.5009083257759 L 138.90575758189442 156.89770245544753 L 140.55603188616354 156.33191499413624 L 142.21173091533853 155.69361195590255 L 143.55693126730486 155.29661093452503 L 145.9124150890518 154.65151020456537 L 148.9366192140194 154.85199877168873 L 149.2268329344181 151.21269849393627 L 145.6610712390732 150.88767436574713 L 142.61494373269514 151.56886758109997 L 141.04327396747397 151.94762339565995 L 139.27795248883646 152.51049223242626 L 137.61523851185558 152.99573016173997 L 135.84071385328656 153.5686717523491 L 134.21817353617158 154.11564195438177 L 130.36208527196743 155.53009740431204 L 131.08061773025798 159.05485582241226 L 132.83514226280028 157.9961613670113 Z" fill="black" />
<path d="M 127.1245043524033 165.7842800375073 L 125.65548051663208 166.47798837780334 L 123.03822459749684 170.0196730990045 L 127.46811280399154 170.89785849960683 L 130.02539979172417 169.93295764224794 L 131.5996775936556 169.3712404610808 L 133.30079685930855 168.68317986562786 L 135.15009067509027 167.9379073876218 L 136.9523041935457 167.1794528665577 L 139.0644616092633 166.3324260985688 L 140.8492186341599 165.54840648567728 L 142.64927410640252 164.78293319026255 L 144.35557486310546 164.0803588754861 L 146.02744565113014 163.39246285705417 L 147.46475117864472 162.86932995068676 L 148.91872433749765 162.41337840627304 L 150.66868937396487 161.9571255166246 L 149.76343953228513 158.4715854208754 L 147.94834109218985 158.94123585153946 L 146.34140116510528 159.41118762743824 L 144.75380434886986 159.93908011169583 L 143.00465462908204 160.5774780385764 L 141.25392413578498 161.20119766911245 L 139.3808839049026 161.88714038932272 L 137.6005774532367 162.5545367920562 L 135.4634672908293 163.2840481100048 L 133.59258510615973 163.9770096045657 L 131.73277247662895 164.68315314218464 L 130.1209034610319 165.2963620779817 L 128.52623595046333 165.78567028743956 L 126.22207274288346 166.67257607070567 L 126.94285450406566 168.2264206509955 L 127.49454389743042 169.91629873157166 L 128.7983472100967 169.2837131265552 Z" fill="black" />
<path d="M 137.81185459505073 159.36018612315874 L 138.33398247852867 160.6174580515152 L 138.6463629833119 162.3700453626355 L 138.98795792450642 165.27098541772204 L 139.0744968135332 166.8819770337401 L 139.1750342389865 168.70091090946548 L 139.2092568874359 170.43682861328125 L 139.25287675857544 172.1510009765625 L 139.30810381966958 175.13238408674252 L 139.26397283192395 177.2494786811635 L 142.94672052745105 177.4626795219615 L 143.15466473501792 175.22552606950748 L 143.20989179611206 172.1510009765625 L 143.2535116672516 170.43682861328125 L 143.287734315701 168.61927952022202 L 143.2442287724043 166.7346001146974 L 143.22273543486858 164.91724700415296 L 142.8801262745006 161.7622788561145 L 142.40027045115883 159.2857401906723 L 141.33792567838677 157.51505801746626 Z" fill="black" />
<path d="M 162.68615900130217 140.32465099977097 L 158.58484839490106 139.9712006284352 L 159.0179814997694 143.74572592805055 L 159.67593383639306 145.72483700712806 L 160.1842244378216 148.2598410300114 L 160.38605623744988 149.61979923506038 L 160.53022725586993 151.1784961830656 L 160.6300909226358 152.81055378093725 L 160.6729154586792 154.6839599609375 L 160.70197129249573 156.3355712890625 L 160.73106348672803 157.8131043854999 L 160.73115924168465 159.81377220563937 L 162.2099850545355 160.10357510759522 L 163.11260691940703 159.5369081605055 L 159.61017140090547 160.366290081682 L 161.449072562652 163.75348055646728 L 164.51237103175285 160.61493873186063 L 164.65650975545947 157.8859922941876 L 164.68560194969177 156.3355712890625 L 164.7146577835083 154.6839599609375 L 164.7574823195517 152.72863078937525 L 164.71330301756757 150.9323436606844 L 164.60539884067512 149.18781795243962 L 164.4111124762409 147.5198220559261 L 163.83908081204444 144.64955264130944 L 163.0566034611681 142.27441567351195 L 162.04930687853644 142.4954741762523 L 160.82885564713533 143.71856189085403 Z" fill="black" />
<path d="M 165.65853429979109 124.26296711009725 L 165.22204767334603 122.85243418233584 L 165.00790514302915 121.39973898776557 L 165.02104750299316 119.88705690091223 L 165.64485120597712 118.96642983849635 L 166.72547193377054 117.92594245773165 L 168.30017815404887 117.00242588228596 L 170.21937454681805 116.22461306380055 L 172.1484442043595 116.0813038854702 L 173.57407659369304 116.03445963861772 L 174.41175285850125 116.58495129043946 L 175.13908528903426 117.942584229322 L 175.86297710512457 120.47047462863443 L 176.2658257951708 122.14560108573626 L 176.54458141721733 123.74193134253308 L 176.7881251443547 125.52918177462296 L 177.04166604736085 127.47758234157622 L 177.28487974317673 129.61737966968784 L 177.61479384686623 131.79665569386464 L 177.9174819290504 134.3433164879901 L 178.0843275156572 136.80069656776882 L 178.23623751894192 139.5849460417987 L 178.46800046359516 142.5576783559571 L 178.72125936452852 145.80919060295187 L 178.91183058401015 149.20627925067507 L 179.1178996010533 153.1206809532959 L 179.20491361869006 156.36108964824288 L 179.2398579120636 159.6888427734375 L 179.27911591529846 163.05462646484375 L 179.27881540727014 166.2372953115877 L 179.15619648836372 169.1995065568119 L 178.77678548001353 172.33122797883394 L 178.3297416783476 174.5988997636879 L 177.88627400830288 176.73454598934057 L 177.32947098029499 178.57986891134743 L 176.75042511702782 180.31232320238072 L 176.25986087072113 181.74367406507415 L 175.7182416447911 183.07719001665347 L 175.20451163871604 183.99717213187697 L 174.73616353665884 184.2791376406158 L 174.36389643993323 184.45982524633888 L 173.9649358168405 184.02679660124926 L 172.80333412173323 182.31113524168336 L 171.97796529702578 179.80592934233917 L 171.5803984002537 178.3565637894203 L 171.25809248786308 176.70211879466987 L 170.92756436618825 174.90859367800672 L 170.5344141078825 172.89254532394483 L 170.26562632958007 171.12332666128137 L 169.93568056453546 169.37679742208616 L 166.39915830265204 170.04544378885134 L 166.71740589698243 171.72725927621863 L 166.9887792514925 173.51150741043017 L 167.38786532131175 175.57443854855578 L 167.70553055901192 177.35940464283013 L 168.0314180059963 179.1333043746422 L 168.42608743734922 180.83701499359833 L 169.32923423764177 183.86220460206664 L 170.796416722222 186.37566921906324 L 172.66613285694177 188.31995990991112 L 175.71488626802866 188.6257695859467 L 178.27144050972146 187.33119700874803 L 179.7383013239589 185.22322502240903 L 180.52907955896637 183.37864038805085 L 181.08282683609718 181.78203714918178 L 181.69213546501751 179.96102464334007 L 182.32368692919712 177.85249014347193 L 182.8164985560274 175.5087662519371 L 183.30573405123647 173.02179936491606 L 183.71855937101128 169.5720998885006 L 183.84801564741736 166.3282564462248 L 183.84771513938904 163.05462646484375 L 183.8869731426239 159.6888427734375 L 183.92191743599744 156.31005292988212 L 183.8648884848842 152.9440163123291 L 183.67483933786485 148.95070317119993 L 183.46929239328398 145.49110236579813 L 183.21840090359234 142.1611937143554 L 182.91000271543308 139.2031398957013 L 182.6657945546553 136.45699386191868 L 182.4365219771996 133.8844667151349 L 182.09101670000877 131.17600055613536 L 181.73672670213577 129.00102853343716 L 181.47579000732665 126.91169988498628 L 181.1891697775203 124.90624303006454 L 180.89255237184517 123.01490459496692 L 180.5231146345167 121.18289012520124 L 179.98968402768793 119.27952537136557 L 179.02107096096574 116.2770202628655 L 177.37169440712375 113.68079577987304 L 174.64430719536946 112.12923665044478 L 171.964714975328 112.0823924035923 L 169.28440963286945 112.33947385026195 L 166.55822028345113 113.38844325833904 L 164.31578783185446 114.71712394851835 L 162.51554918464788 116.45434652869115 L 161.15876206731934 118.81191770846277 L 161.02786145853335 121.65348366848443 L 161.46191228759147 123.75425527078916 L 161.96170495802141 125.39670085865275 Z" fill="black" />
<path d="M 166.56273206244686 147.28757482527857 L 169.0324349978581 146.58636235737293 L 172.35283310707334 145.54300414714518 L 174.99424482959392 144.73891541693595 L 177.01276042894145 144.40158863107774 L 176.46319171949605 140.84279613454726 L 174.26845048290608 141.15610411431405 L 171.36420790855166 141.67830932941732 L 167.8065542599544 142.48675775981457 L 165.27076403130314 143.48720544815893 Z" fill="black" />
<path d="M 165.09621565340552 152.88259043902593 L 162.7214255380408 156.49769986156633 L 167.47975801514323 158.11590580750888 L 170.1318487553172 157.03090778631227 L 171.62196551633707 156.29987634750617 L 173.0523221805863 155.58969817445825 L 174.64951123839694 154.78532381518525 L 176.1419267015215 153.94195502434346 L 177.84535120267222 153.08007476753366 L 179.21948989117794 152.40898829582963 L 181.83341865739496 151.35656552934577 L 180.50117606916754 148.00158876752923 L 177.82152573382206 149.05121678229537 L 176.31480504732778 149.68139984184134 L 174.453166071916 150.42108208503154 L 172.88466844910306 151.15425138012725 L 171.3129121944137 151.80129303647925 L 169.86240948366293 152.41740880874383 L 168.4356561274953 152.98764690118773 L 166.19028593016927 153.87957759092862 L 167.1314797353967 156.17344271655867 L 168.32175309659448 155.68454823284907 Z" fill="black" />
</svg>