<svg xmlns="http://www.w3.org/2000/svg" width="300" height="300" viewBox="0 0 300 300">
<path d="M 127.14684343338013 114.93267822265625 L 126.94961983749707 116.43798007271003 L 126.69985190634986 118.35749756762381 L 126.26407177042371 119.77460508761096 L 125.7417089456605 121.74680883895667 L 125.08592448973823 123.95816204684246 L 124.30667004670465 126.4859694790429 L 123.48449946072401 128.93140051775623 L 122.59255934837404 131.37504397772878 L 121.63744200603429 133.73106990662052 L 120.7571841287614 135.9690883792951 L 119.95049450283865 137.9067711380837 L 119.18122384178304 139.647797905809 L 118.21789852081001 140.94523473763033 L 121.21203311981499 143.24812463736967 L 122.48137381446696 141.642729437941 L 123.54865100497385 139.5550208541038 L 124.4704770040511 137.5388461910174 L 125.42676697834071 135.29749454650448 L 126.45224045631346 132.89888180352122 L 127.43285893771349 130.33764245099377 L 128.30319323454535 127.7781906772071 L 129.10841144776177 125.17599322659504 L 129.78502445277698 122.88295190323083 L 130.30697315145127 120.90129823270154 L 130.80747231240014 119.16532958081369 L 131.09786551406543 116.73059902885247 L 130.90064191818237 114.93267822265625 Z" fill="black" />
<path d="M 133.64720735508996 129.3803438342186 L 133.66066336631775 130.8857421875 L 133.4728222250875 131.7090161153464 L 132.52346584907028 133.739532800333 L 131.83678735355443 135.28184565309036 L 131.11966589630424 136.97596055286826 L 130.25283268689446 138.87329931626317 L 129.27351361179507 141.15766421026845 L 128.23657718181147 143.28668978438813 L 127.12607731228388 145.5925241748122 L 125.96776657970871 147.9934161600314 L 124.68388165880211 150.40447262907472 L 123.38812269799539 152.87865437201685 L 121.86864727217048 155.53775964791942 L 120.61203047835873 157.6040355204164 L 119.37384004339955 159.53830138297567 L 118.1111637967839 161.29547445489135 L 117.1178593471981 162.74737903299481 L 115.45817426929925 164.6957162722836 L 114.69652186797607 164.7899777751909 L 115.47864903046143 168.4262087482466 L 117.74189897288825 167.8698354855289 L 120.1874385043644 165.33880260763019 L 121.4268000704036 163.76275308417115 L 122.82891874566295 161.96645935921183 L 124.21951249039127 159.9218433858336 L 125.59167987626702 157.78401769583058 L 127.24114976294211 155.03784953423315 L 128.6101857240104 152.50714846467528 L 129.9550849827913 150.0384441915311 L 131.17348323459112 147.5595754345628 L 132.29564938068853 145.26091763748687 L 133.38334673976743 143.03569516473155 L 134.38461848498054 140.69054345717433 L 135.24630090057076 138.78417128306924 L 135.96960913082057 137.04994145628464 L 136.61532809624222 135.539275793417 L 137.6465625405375 133.0904223612161 L 137.96287178993225 130.8857421875 L 137.47217741053504 128.8376737439064 Z" fill="black" />
<path d="M 125.0324140816779 153.78846874950582 L 125.75864266401848 154.97886681418535 L 126.3902980539692 156.20518750549763 L 127.4403837419164 158.99899297721882 L 127.9865747152807 160.82174153762912 L 128.55693390687784 163.10398292511664 L 129.13339269430153 165.85907104337085 L 129.5761466624163 168.46412677125403 L 129.9191752302912 171.12183730807178 L 130.13384365888976 173.8327016405366 L 130.35564334823277 176.3183538016688 L 130.39158511161804 178.66986083984375 L 130.45073246955872 181.184814453125 L 130.52257431014064 184.069563194213 L 130.05298085118497 185.68478000222086 L 133.79223399256503 186.94485866965414 L 134.65503799454686 184.606218055787 L 134.72687983512878 181.184814453125 L 134.78602719306946 178.66986083984375 L 134.82196895645473 176.1416071358312 L 134.64765048173524 173.4972544141509 L 134.4662007462713 170.67772323880322 L 134.1250252125837 167.80503826780847 L 133.66751062601097 165.00482055819165 L 133.05561492124716 162.07936668425836 L 132.43761962065682 159.60696939987088 L 131.7954561018336 157.47586053840618 L 130.57686503196828 154.33887987731487 L 129.37197257035652 152.28700232643965 L 127.7214921683221 151.10008105518168 Z" fill="black" />
<path d="M 150.6221940223732 137.49919418736692 L 150.01870846791007 136.36920577732664 L 149.4262527312617 137.07387189062808 L 148.2353362899867 137.34455076761913 L 148.5476688067577 138.32820770035545 L 149.32366024414105 141.0776149301259 L 149.68085949655716 142.8113511620491 L 149.98783102404218 144.91759592760673 L 150.184488909946 147.19773910007947 L 150.33371071346045 149.6263818495945 L 150.39907331534167 152.32782742730444 L 150.41331887245178 155.27203369140625 L 150.42980861663818 158.2374267578125 L 150.45465387690777 161.38165258569327 L 150.43275990690543 163.6195597060813 L 150.20524783979272 165.47330823315963 L 150.0522965599748 166.93189283445628 L 153.067496541341 167.82025693784902 L 153.56687416376894 166.98539475303912 L 153.83803065307816 164.23470796792245 L 154.10801353786925 162.41771509352245 L 154.31069446989633 160.47583318676942 L 150.73080943635367 160.10302423510558 L 150.53737220431825 161.96485326585255 L 150.26719395629684 163.72635160239005 L 149.74611411748106 166.75630446571088 L 150.389534708659 170.95134950746348 L 154.1969710181502 167.61058763429372 L 154.44013790239478 166.04121813402787 L 154.75278696809457 163.9411092392312 L 154.83892522465473 161.42437768774423 L 154.86377048492432 158.2374267578125 L 154.88026022911072 155.27203369140625 L 154.89450578622083 152.28545382269556 L 154.85183616153955 149.456503892593 L 154.712972027554 146.88026382960803 L 154.51351174939532 144.40576833020577 L 154.17228991750534 142.0326429785759 L 153.73725284179645 139.9376438589366 L 152.7847286541798 136.75626495589455 L 151.2605133193883 134.06133302144337 L 147.0446945343633 133.53123064843442 L 146.16415286021493 137.26385086329836 L 147.2891829307518 139.31196303919558 Z" fill="black" />
<path d="M 157.13135659694672 134.97723388671875 L 157.11490109310407 133.82712928696412 L 157.64048729088086 133.5728491444401 L 159.4308014485879 132.70349409817788 L 160.80783000955248 132.05400304669516 L 162.52632878011565 131.4528658339931 L 164.583918912142 130.79964583333265 L 166.86947970926678 130.080715965865 L 169.31747331430418 129.500848013955 L 171.7921807350673 129.03250687875413 L 174.52379466754147 128.6362560169409 L 176.60507875886023 128.49487170945775 L 178.71856689453125 128.48894023895264 L 180.55220908793623 128.48072005107213 L 181.74586752400162 128.6391856020716 L 183.99386479827342 129.68946299745173 L 184.8158750821694 130.88647817749867 L 185.59815791985517 133.0545187764547 L 186.29698704922797 136.02321009813647 L 186.44440410462565 137.41905839178145 L 186.6217001989722 139.12707791412763 L 186.73301108727952 141.05929159251463 L 186.8698113841226 143.114319757423 L 186.92249106232074 145.35279123772997 L 187.064599063119 148.11376135672026 L 187.11539096366033 150.55404887072717 L 187.11512322284733 153.2006106003055 L 187.18712623058434 155.96438876229166 L 187.1880714893341 158.8380126953125 L 187.18973398208618 161.7408447265625 L 187.19676208496094 165.03155517578125 L 187.2042579650879 167.5965576171875 L 187.21447086334229 170.174072265625 L 187.225909948349 172.61395263671875 L 187.24200218281837 174.8789785657339 L 187.1920235168362 176.8154635143935 L 187.0442014703371 178.91483955648036 L 186.6614803133504 181.51094137443712 L 186.3492143190683 182.96431328653404 L 186.47651578508356 183.47970752106065 L 184.8326473758591 183.03236324451643 L 183.9838809444534 186.56932132579607 L 187.34550569929144 187.32314892425185 L 189.9935591184317 184.93571112752846 L 190.8696476163371 182.43522561775038 L 191.3871950140379 179.47590751383214 L 191.6354911316013 177.0959134387315 L 191.72955543436913 174.9534188952036 L 191.7456476688385 172.61395263671875 L 191.75708675384521 170.174072265625 L 191.7672996520996 167.5965576171875 L 191.77479553222656 165.03155517578125 L 191.78182363510132 161.7408447265625 L 191.7834861278534 158.8380126953125 L 191.78443138660316 155.90597256583334 L 191.71239142559017 153.139355220007 L 191.71212368477717 150.50576558239783 L 191.654883358756 147.94117028390474 L 191.50890542205426 145.17174489508253 L 191.4535528736899 142.9058218441395 L 191.30226723303298 140.75674844654787 L 191.1615029260278 138.73510470305987 L 190.94268085631185 136.88965742853105 L 190.69397974764703 135.10740513623853 L 189.80833622076983 131.7449197001078 L 188.6100282381431 128.78295541625133 L 186.51516840485158 126.27635731504829 L 183.10947915568588 124.6990712338659 L 180.84610634175127 124.33202408955287 L 178.71856689453125 124.32380390167236 L 176.47475522551477 124.31787243116725 L 174.09070728558353 124.45175667837158 L 171.1326239524327 124.83126265249588 L 168.45779524038332 125.2888248376075 L 165.75625271260822 125.88510434663498 L 163.288395540983 126.61759049479235 L 161.13272883707185 127.29066443944441 L 159.14212116232252 128.01582117205484 L 157.4942473795371 128.81774613619712 L 155.17933692786914 130.0504418711849 L 153.22018191470843 132.29860313491088 L 153.20372641086578 134.97723388671875 Z" fill="black" />
<path d="M 165.6050180916836 156.6526527742275 L 164.72133104372534 157.81136002755025 L 165.21450144322134 158.07503707955686 L 165.89668002827315 157.97638679405904 L 165.85321438972858 156.6679548493177 L 165.9846826637587 155.03485164634284 L 166.7350151586176 153.39974917534994 L 167.88817850825524 151.5971237464319 L 170.1389171596112 149.14327789614282 L 170.93934402268133 148.63405545662866 L 171.78358236068405 148.40683186268342 L 171.53667701106522 148.66997717607947 L 171.77503077048632 151.0957487179411 L 171.7557671070099 152.5068359375 L 171.75637520955195 155.3845910995053 L 171.1168058185893 157.5905912242462 L 169.49696868520968 160.67853850185293 L 168.5970984687894 161.7090331691174 L 167.77130126953125 161.68796586990356 L 167.77130126953125 165.47231245040894 L 170.3665245780856 165.4512451511951 L 173.03171783822782 163.17851716220957 L 175.1209871501607 159.2846529163788 L 176.06589041544805 155.9602575333072 L 176.0664985179901 152.5068359375 L 176.04723485451368 150.7648469851839 L 175.60138451237228 147.51007653485803 L 173.51793131119095 144.62014567637908 L 169.86082687575617 144.64316622305884 L 167.3842761997638 145.98575042416968 L 164.59351094486976 148.9371780113806 L 163.0098578882574 151.36367855902506 L 161.8876317893663 153.93267765053216 L 161.62298189933392 156.5287004241198 L 161.72355922953935 158.64861320594096 L 163.34201711146616 161.82816116263064 L 167.11216505002466 160.91569075369975 L 168.6051869864414 158.896297421085 Z" fill="black" />
<path d="M 156.49230366831853 174.61958793852563 L 152.46153079966504 176.87240693834272 L 157.44455323647114 179.46358212892065 L 160.19864392002165 178.71832615338494 L 161.7294796720039 178.3140859368942 L 163.480871240278 177.77779992402242 L 165.20367329159703 177.23774552870694 L 167.14938741965537 176.61593925779846 L 168.91070673791177 176.06553733592958 L 170.63440602662598 175.52174508309866 L 172.47670222373023 175.0136933208959 L 174.23202637360512 174.4430576819545 L 175.87830409855962 173.97568370275656 L 177.55991770642132 173.44434888025123 L 179.72846710779604 173.01099322159703 L 181.5527947382332 172.8436364308335 L 181.4299933477043 168.9559241160415 L 179.29313933751646 168.91368939559047 L 176.70827077014118 169.28111498693627 L 174.82482090144038 169.65065907068094 L 173.05007811858238 169.984066341483 L 171.24033879189477 170.4644560931666 L 169.37352854368652 170.88230765127634 L 167.53216435583823 171.38954078907042 L 165.72842019753213 171.89016425782654 L 163.74896342715297 172.46952986191806 L 162.014734228472 172.98050085722758 L 160.3451052889336 173.4952402349808 L 158.85103869716585 173.89178126849006 L 156.56362547446636 174.59794130857935 L 157.18934810658496 177.43936063978228 L 157.65991801136897 178.24076362397437 Z" fill="black" />
</svg>