<svg xmlns="http://www.w3.org/2000/svg" width="300" height="300" viewBox="0 0 300 300">
<path d="M 125.25 120.24 L 126.15 120.59 C 127.18 121.00 128.34 120.49 128.74 119.46 C 129.14 118.43 128.64 117.27 127.61 116.87 L 126.71 116.52 C 125.68 116.11 124.52 116.62 124.12 117.65 C 123.71 118.68 124.22 119.84 125.25 120.24 Z M 126.22 120.75 L 127.18 121.06 C 128.30 121.42 129.49 120.81 129.85 119.70 C 130.22 118.58 129.61 117.39 128.49 117.02 L 127.53 116.71 C 126.42 116.35 125.22 116.96 124.86 118.08 C 124.50 119.19 125.11 120.39 126.22 120.75 Z M 127.36 121.20 L 128.35 121.42 C 129.54 121.69 130.72 120.94 130.99 119.75 C 131.25 118.55 130.50 117.37 129.31 117.11 L 128.32 116.89 C 127.13 116.62 125.95 117.37 125.68 118.56 C 125.42 119.75 126.17 120.93 127.36 121.20 Z M 128.51 121.48 L 129.52 121.63 C 130.74 121.81 131.88 120.96 132.06 119.74 C 132.24 118.51 131.39 117.38 130.17 117.20 L 129.16 117.05 C 127.93 116.87 126.80 117.72 126.62 118.94 C 126.44 120.16 127.28 121.30 128.51 121.48 Z M 129.61 121.65 L 130.59 121.76 C 131.83 121.89 132.94 120.99 133.07 119.76 C 133.20 118.52 132.30 117.41 131.06 117.28 L 130.08 117.17 C 128.84 117.04 127.74 117.94 127.60 119.18 C 127.47 120.41 128.37 121.52 129.61 121.65 Z M 130.64 121.77 L 131.67 121.86 C 132.91 121.96 134.00 121.04 134.11 119.79 C 134.21 118.55 133.29 117.46 132.05 117.35 L 131.02 117.27 C 129.77 117.16 128.68 118.09 128.58 119.33 C 128.47 120.57 129.40 121.66 130.64 121.77 Z M 131.72 121.86 L 132.68 121.92 C 133.93 122.00 135.00 121.05 135.08 119.81 C 135.16 118.56 134.21 117.48 132.97 117.41 L 132.00 117.35 C 130.75 117.27 129.68 118.22 129.60 119.46 C 129.52 120.71 130.47 121.78 131.72 121.86 Z M 132.73 121.93 L 133.68 121.97 C 134.93 122.02 135.99 121.05 136.04 119.80 C 136.10 118.55 135.13 117.50 133.88 117.44 L 132.92 117.40 C 131.67 117.35 130.62 118.32 130.56 119.57 C 130.51 120.82 131.48 121.87 132.73 121.93 Z M 133.72 121.97 L 134.71 122.00 C 135.96 122.03 137.01 121.04 137.04 119.79 C 137.07 118.54 136.09 117.50 134.84 117.47 L 133.84 117.44 C 132.59 117.41 131.55 118.39 131.52 119.64 C 131.48 120.89 132.47 121.93 133.72 121.97 Z M 134.74 122.00 L 135.77 122.01 C 137.02 122.03 138.05 121.03 138.07 119.78 C 138.09 118.53 137.09 117.50 135.84 117.48 L 134.81 117.47 C 133.56 117.45 132.53 118.45 132.51 119.70 C 132.49 120.95 133.49 121.98 134.74 122.00 Z M 135.79 122.01 L 136.76 122.02 C 138.02 122.03 139.04 121.02 139.05 119.77 C 139.05 118.52 138.05 117.50 136.79 117.49 L 135.82 117.48 C 134.57 117.47 133.55 118.48 133.54 119.73 C 133.53 120.98 134.54 122.01 135.79 122.01 Z M 136.78 122.02 L 137.79 122.02 C 139.04 122.02 140.06 121.01 140.06 119.76 C 140.06 118.51 139.05 117.49 137.80 117.49 L 136.78 117.49 C 135.53 117.49 134.52 118.50 134.51 119.75 C 134.51 121.00 135.52 122.02 136.78 122.02 Z M 137.79 122.02 L 138.80 122.02 C 140.05 122.02 141.07 121.01 141.07 119.76 C 141.07 118.51 140.05 117.49 138.80 117.49 L 137.79 117.49 C 136.54 117.49 135.53 118.50 135.53 119.76 C 135.53 121.01 136.54 122.02 137.79 122.02 Z M 138.80 122.02 L 139.79 122.02 C 141.04 122.02 142.06 121.01 142.06 119.76 C 142.06 118.51 141.04 117.49 139.79 117.49 L 138.80 117.49 C 137.55 117.49 136.54 118.51 136.54 119.76 C 136.54 121.01 137.55 122.02 138.80 122.02 Z M 139.79 122.02 L 140.80 122.02 C 142.05 122.02 143.06 121.01 143.06 119.76 C 143.06 118.51 142.05 117.50 140.80 117.50 L 139.79 117.50 C 138.55 117.50 137.53 118.51 137.53 119.76 C 137.53 121.01 138.55 122.02 139.79 122.02 Z M 140.80 122.01 L 141.80 122.01 C 143.05 122.01 144.06 121.00 144.06 119.76 C 144.06 118.51 143.05 117.50 141.80 117.50 L 140.80 117.50 C 139.56 117.50 138.55 118.51 138.55 119.76 C 138.55 121.00 139.56 122.01 140.80 122.01 Z M 141.81 122.01 L 142.80 122.01 C 144.04 122.00 145.05 120.99 145.04 119.74 C 145.04 118.50 144.02 117.49 142.78 117.50 L 141.79 117.50 C 140.55 117.51 139.54 118.52 139.55 119.77 C 139.56 121.01 140.57 122.01 141.81 122.01 Z M 142.82 122.00 L 143.83 121.98 C 145.07 121.96 146.06 120.94 146.04 119.70 C 146.02 118.46 145.00 117.47 143.76 117.49 L 142.75 117.50 C 141.51 117.52 140.52 118.55 140.54 119.79 C 140.56 121.03 141.58 122.02 142.82 122.00 Z M 143.87 121.98 L 144.89 121.94 C 146.13 121.90 147.10 120.86 147.05 119.62 C 147.01 118.39 145.97 117.42 144.74 117.46 L 143.71 117.50 C 142.48 117.54 141.51 118.58 141.55 119.81 C 141.59 121.05 142.63 122.02 143.87 121.98 Z M 144.94 121.93 L 145.95 121.87 C 147.18 121.80 148.12 120.75 148.05 119.51 C 147.98 118.28 146.93 117.34 145.69 117.41 L 144.69 117.47 C 143.45 117.54 142.51 118.60 142.58 119.83 C 142.65 121.06 143.71 122.00 144.94 121.93 Z M 146.00 121.86 L 147.01 121.78 C 148.23 121.68 149.15 120.61 149.05 119.38 C 148.95 118.16 147.87 117.24 146.65 117.34 L 145.64 117.42 C 144.42 117.52 143.50 118.60 143.60 119.82 C 143.70 121.05 144.78 121.96 146.00 121.86 Z M 147.07 121.77 L 148.04 121.66 C 149.26 121.53 150.14 120.44 150.01 119.22 C 149.88 118.00 148.79 117.12 147.57 117.25 L 146.59 117.36 C 145.37 117.49 144.49 118.58 144.62 119.80 C 144.75 121.02 145.85 121.90 147.07 121.77 Z M 148.11 121.64 L 149.14 121.50 C 150.35 121.33 151.19 120.21 151.02 119.01 C 150.85 117.80 149.74 116.96 148.53 117.12 L 147.50 117.27 C 146.29 117.44 145.45 118.55 145.62 119.76 C 145.79 120.97 146.90 121.81 148.11 121.64 Z M 149.21 121.48 L 150.19 121.31 C 151.38 121.11 152.19 119.97 151.99 118.77 C 151.78 117.58 150.65 116.77 149.45 116.98 L 148.47 117.14 C 147.27 117.35 146.46 118.48 146.67 119.68 C 146.87 120.88 148.01 121.68 149.21 121.48 Z M 150.23 121.29 L 151.18 121.11 C 152.37 120.88 153.14 119.73 152.91 118.55 C 152.68 117.36 151.54 116.58 150.35 116.81 L 149.40 116.99 C 148.22 117.22 147.44 118.37 147.67 119.56 C 147.90 120.75 149.05 121.52 150.23 121.29 Z M 151.20 121.09 L 152.20 120.89 C 153.37 120.65 154.13 119.49 153.89 118.32 C 153.64 117.14 152.49 116.38 151.31 116.63 L 150.32 116.83 C 149.15 117.07 148.39 118.23 148.63 119.40 C 148.87 120.58 150.03 121.34 151.20 121.09 Z M 152.22 120.87 L 153.19 120.65 C 154.36 120.40 155.10 119.25 154.84 118.08 C 154.58 116.91 153.43 116.18 152.27 116.43 L 151.29 116.65 C 150.13 116.90 149.39 118.05 149.64 119.22 C 149.90 120.39 151.05 121.12 152.22 120.87 Z M 153.22 120.63 L 154.18 120.41 C 155.34 120.14 156.05 118.99 155.78 117.83 C 155.52 116.68 154.36 115.96 153.21 116.23 L 152.24 116.46 C 151.09 116.72 150.37 117.88 150.64 119.03 C 150.91 120.18 152.06 120.90 153.22 120.63 Z M 154.21 120.38 L 155.19 120.14 C 156.33 119.86 157.02 118.70 156.74 117.56 C 156.46 116.43 155.30 115.73 154.16 116.01 L 153.18 116.26 C 152.05 116.54 151.35 117.69 151.63 118.83 C 151.92 119.97 153.07 120.66 154.21 120.38 Z M 155.21 120.11 L 156.17 119.86 C 157.30 119.56 157.97 118.41 157.67 117.29 C 157.38 116.17 156.23 115.49 155.10 115.79 L 154.14 116.04 C 153.02 116.34 152.35 117.49 152.64 118.61 C 152.94 119.73 154.09 120.41 155.21 120.11 Z M 156.19 119.83 L 157.17 119.56 C 158.28 119.25 158.93 118.11 158.62 117.00 C 158.31 115.89 157.16 115.24 156.05 115.55 L 155.08 115.82 C 153.97 116.12 153.32 117.27 153.63 118.38 C 153.94 119.49 155.09 120.14 156.19 119.83 Z M 157.19 119.53 L 158.16 119.25 C 159.25 118.93 159.88 117.79 159.56 116.70 C 159.24 115.60 158.10 114.97 157.01 115.29 L 156.03 115.57 C 154.94 115.89 154.31 117.04 154.63 118.13 C 154.95 119.22 156.09 119.85 157.19 119.53 Z M 158.17 119.23 L 159.10 118.95 C 160.18 118.62 160.79 117.48 160.47 116.40 C 160.14 115.32 159.00 114.71 157.92 115.04 L 156.99 115.32 C 155.91 115.64 155.30 116.78 155.63 117.86 C 155.95 118.94 157.09 119.55 158.17 119.23 Z M 159.11 118.92 L 160.09 118.62 C 161.15 118.29 161.75 117.16 161.42 116.09 C 161.09 115.02 159.96 114.43 158.89 114.76 L 157.92 115.06 C 156.85 115.39 156.25 116.52 156.58 117.59 C 156.91 118.66 158.04 119.25 159.11 118.92 Z M 160.10 118.60 L 161.04 118.30 C 162.09 117.96 162.67 116.83 162.33 115.78 C 161.99 114.72 160.87 114.14 159.81 114.48 L 158.88 114.78 C 157.82 115.12 157.24 116.25 157.58 117.30 C 157.92 118.35 159.04 118.93 160.10 118.60 Z M 161.06 118.27 L 161.98 117.96 C 163.02 117.61 163.57 116.48 163.22 115.44 C 162.87 114.41 161.75 113.85 160.71 114.20 L 159.79 114.51 C 158.75 114.86 158.20 115.99 158.55 117.02 C 158.90 118.06 160.02 118.62 161.06 118.27 Z M 162.07 117.90 L 163.00 117.53 C 164.00 117.13 164.50 115.99 164.10 114.99 C 163.70 113.98 162.56 113.49 161.55 113.89 L 160.62 114.26 C 159.62 114.65 159.12 115.79 159.52 116.80 C 159.92 117.81 161.06 118.30 162.07 117.90 Z M 163.17 117.43 L 164.19 116.90 C 165.14 116.41 165.51 115.24 165.02 114.29 C 164.53 113.34 163.36 112.96 162.40 113.46 L 161.38 113.99 C 160.43 114.48 160.06 115.65 160.55 116.60 C 161.04 117.55 162.21 117.93 163.17 117.43 Z M 164.44 116.73 L 165.28 116.10 C 166.14 115.47 166.32 114.27 165.68 113.41 C 165.05 112.56 163.85 112.38 163.00 113.01 L 162.15 113.64 C 161.30 114.27 161.12 115.47 161.75 116.32 C 162.38 117.18 163.58 117.36 164.44 116.73 Z M 166.03 114.42 L 166.00 114.02 C 165.93 112.97 165.02 112.19 163.98 112.26 C 162.93 112.34 162.15 113.24 162.22 114.29 L 162.25 114.69 C 162.32 115.73 163.23 116.52 164.27 116.45 C 165.32 116.37 166.11 115.47 166.03 114.42 Z M 164.30 112.31 L 163.22 112.20 C 162.20 112.09 161.29 112.83 161.19 113.85 C 161.08 114.87 161.82 115.78 162.84 115.89 L 163.92 116.00 C 164.94 116.10 165.85 115.36 165.96 114.34 C 166.06 113.32 165.32 112.41 164.30 112.31 Z M 163.05 112.22 L 161.99 112.21 C 160.98 112.20 160.16 113.00 160.15 114.01 C 160.14 115.02 160.94 115.84 161.95 115.85 L 163.01 115.87 C 164.02 115.88 164.84 115.07 164.85 114.06 C 164.86 113.05 164.06 112.23 163.05 112.22 Z M 161.98 112.22 L 160.99 112.21 C 159.99 112.21 159.18 113.02 159.18 114.02 C 159.17 115.02 159.98 115.84 160.98 115.84 L 161.96 115.84 C 162.97 115.85 163.78 115.04 163.78 114.04 C 163.79 113.04 162.98 112.22 161.98 112.22 Z M 160.99 112.22 L 159.94 112.22 C 158.94 112.22 158.13 113.03 158.13 114.02 C 158.13 115.02 158.94 115.83 159.94 115.83 L 160.99 115.83 C 161.98 115.83 162.79 115.03 162.79 114.03 C 162.80 113.03 161.99 112.22 160.99 112.22 Z M 159.94 112.22 L 159.25 112.22 C 158.26 112.22 157.45 113.03 157.45 114.03 C 157.45 115.02 158.26 115.83 159.25 115.83 L 159.94 115.83 C 160.93 115.83 161.74 115.02 161.74 114.03 C 161.74 113.03 160.94 112.22 159.94 112.22 Z"
      fill="black"
      fill-rule="nonzero" /><path d="M 142.52 110.54 L 141.87 111.22 C 141.15 111.97 141.17 113.16 141.92 113.88 C 142.66 114.60 143.86 114.58 144.58 113.83 L 145.23 113.16 C 145.96 112.41 145.94 111.22 145.19 110.49 C 144.44 109.77 143.25 109.79 142.52 110.54 Z M 141.35 111.77 L 140.98 112.67 C 140.57 113.71 141.07 114.89 142.11 115.31 C 143.14 115.72 144.32 115.22 144.74 114.18 L 145.10 113.28 C 145.52 112.24 145.02 111.07 143.98 110.65 C 142.94 110.23 141.76 110.73 141.35 111.77 Z M 140.79 113.24 L 140.70 114.18 C 140.60 115.32 141.44 116.34 142.58 116.44 C 143.73 116.55 144.74 115.70 144.85 114.56 L 144.93 113.62 C 145.04 112.48 144.20 111.46 143.05 111.36 C 141.91 111.25 140.90 112.09 140.79 113.24 Z M 140.69 114.43 L 140.72 115.53 C 140.76 116.68 141.72 117.58 142.87 117.55 C 144.02 117.52 144.93 116.55 144.89 115.40 L 144.86 114.31 C 144.82 113.16 143.86 112.25 142.71 112.29 C 141.56 112.32 140.66 113.28 140.69 114.43 Z M 140.73 115.66 L 140.83 116.72 C 140.94 117.87 141.96 118.71 143.10 118.60 C 144.25 118.49 145.10 117.47 144.99 116.33 L 144.89 115.27 C 144.78 114.12 143.76 113.28 142.61 113.39 C 141.46 113.49 140.62 114.51 140.73 115.66 Z M 140.84 116.79 L 140.97 117.81 C 141.12 118.95 142.16 119.76 143.31 119.61 C 144.45 119.46 145.26 118.42 145.11 117.27 L 144.98 116.25 C 144.83 115.11 143.78 114.30 142.64 114.45 C 141.49 114.60 140.69 115.65 140.84 116.79 Z M 140.97 117.85 L 141.11 118.78 C 141.28 119.92 142.34 120.71 143.48 120.54 C 144.62 120.37 145.41 119.31 145.24 118.16 L 145.11 117.24 C 144.94 116.09 143.88 115.31 142.73 115.48 C 141.59 115.64 140.80 116.71 140.97 117.85 Z M 141.11 118.78 L 141.27 119.83 C 141.44 120.97 142.50 121.76 143.65 121.59 C 144.79 121.41 145.57 120.35 145.40 119.21 L 145.24 118.16 C 145.07 117.02 144.01 116.23 142.87 116.41 C 141.73 116.58 140.94 117.64 141.11 118.78 Z M 141.27 119.81 L 141.40 120.75 C 141.57 121.89 142.62 122.68 143.76 122.52 C 144.90 122.35 145.69 121.30 145.53 120.16 L 145.40 119.23 C 145.24 118.09 144.18 117.29 143.04 117.46 C 141.90 117.62 141.11 118.67 141.27 119.81 Z M 141.41 120.72 L 141.54 121.69 C 141.68 122.83 142.72 123.63 143.86 123.49 C 144.99 123.34 145.80 122.30 145.65 121.17 L 145.53 120.19 C 145.38 119.05 144.34 118.25 143.20 118.39 C 142.07 118.54 141.26 119.58 141.41 120.72 Z M 141.55 121.67 L 141.67 122.67 C 141.80 123.80 142.82 124.61 143.95 124.48 C 145.08 124.34 145.89 123.32 145.75 122.19 L 145.64 121.19 C 145.50 120.06 144.48 119.25 143.35 119.39 C 142.22 119.52 141.42 120.54 141.55 121.67 Z M 141.68 122.65 L 141.79 123.66 C 141.92 124.78 142.92 125.58 144.04 125.46 C 145.16 125.34 145.97 124.33 145.85 123.21 L 145.74 122.21 C 145.61 121.09 144.61 120.28 143.49 120.41 C 142.37 120.53 141.56 121.53 141.68 122.65 Z M 141.81 123.64 L 141.91 124.63 C 142.03 125.74 143.02 126.54 144.13 126.43 C 145.24 126.31 146.05 125.32 145.93 124.21 L 145.83 123.23 C 145.71 122.12 144.72 121.31 143.61 121.43 C 142.50 121.54 141.70 122.53 141.81 123.64 Z M 141.93 124.62 L 142.03 125.62 C 142.14 126.72 143.12 127.52 144.22 127.41 C 145.32 127.30 146.12 126.32 146.01 125.22 L 145.91 124.22 C 145.80 123.12 144.82 122.32 143.72 122.43 C 142.62 122.54 141.82 123.52 141.93 124.62 Z M 142.06 125.60 L 142.15 126.60 C 142.25 127.68 143.22 128.48 144.30 128.38 C 145.39 128.28 146.18 127.31 146.08 126.23 L 145.99 125.23 C 145.89 124.15 144.92 123.35 143.84 123.45 C 142.75 123.56 141.95 124.52 142.06 125.60 Z M 142.17 126.58 L 142.26 127.59 C 142.35 128.66 143.29 129.45 144.37 129.36 C 145.44 129.27 146.24 128.33 146.14 127.26 L 146.06 126.25 C 145.97 125.17 145.02 124.38 143.95 124.47 C 142.88 124.56 142.08 125.50 142.17 126.58 Z M 142.28 127.57 L 142.36 128.55 C 142.44 129.61 143.37 130.41 144.43 130.33 C 145.49 130.24 146.28 129.32 146.20 128.26 L 146.12 127.27 C 146.04 126.21 145.11 125.42 144.05 125.50 C 142.99 125.58 142.20 126.51 142.28 127.57 Z M 142.38 128.54 L 142.45 129.55 C 142.53 130.60 143.44 131.38 144.48 131.31 C 145.53 131.24 146.32 130.33 146.25 129.28 L 146.18 128.27 C 146.10 127.22 145.19 126.43 144.14 126.51 C 143.10 126.58 142.31 127.49 142.38 128.54 Z M 142.47 129.53 L 142.53 130.52 C 142.59 131.56 143.49 132.35 144.52 132.28 C 145.56 132.22 146.35 131.33 146.29 130.29 L 146.23 129.30 C 146.16 128.26 145.27 127.47 144.24 127.54 C 143.20 127.60 142.41 128.49 142.47 129.53 Z M 142.55 130.50 L 142.60 131.50 C 142.66 132.53 143.53 133.32 144.56 133.26 C 145.59 133.21 146.37 132.33 146.32 131.31 L 146.27 130.31 C 146.21 129.28 145.34 128.49 144.31 128.55 C 143.29 128.60 142.50 129.48 142.55 130.50 Z M 142.62 131.52 L 142.68 132.47 C 142.75 133.49 143.62 134.26 144.64 134.19 C 145.65 134.13 146.42 133.26 146.36 132.24 L 146.30 131.29 C 146.24 130.27 145.36 129.50 144.35 129.56 C 143.33 129.63 142.56 130.50 142.62 131.52 Z M 142.70 132.51 L 142.79 133.53 C 142.87 134.53 143.75 135.28 144.76 135.19 C 145.76 135.11 146.51 134.23 146.43 133.22 L 146.34 132.20 C 146.26 131.20 145.37 130.45 144.37 130.53 C 143.36 130.62 142.62 131.50 142.70 132.51 Z M 142.80 133.56 L 142.90 134.52 C 143.00 135.52 143.89 136.24 144.89 136.14 C 145.88 136.04 146.61 135.15 146.51 134.16 L 146.41 133.19 C 146.31 132.19 145.42 131.47 144.42 131.57 C 143.43 131.67 142.70 132.56 142.80 133.56 Z M 142.91 134.53 L 143.02 135.55 C 143.12 136.54 144.02 137.26 145.01 137.15 C 146.00 137.05 146.72 136.15 146.61 135.16 L 146.50 134.14 C 146.39 133.15 145.50 132.43 144.51 132.54 C 143.52 132.65 142.80 133.54 142.91 134.53 Z M 143.02 135.55 L 143.07 136.05 C 143.18 137.04 144.08 137.75 145.07 137.64 C 146.06 137.53 146.77 136.64 146.66 135.65 L 146.61 135.16 C 146.50 134.17 145.61 133.45 144.62 133.56 C 143.63 133.67 142.91 134.56 143.02 135.55 Z"
      fill="black"
      fill-rule="nonzero" /><path d="M 152.55 112.49 L 153.27 113.21 C 154.10 114.02 155.43 114.02 156.25 113.19 C 157.07 112.37 157.06 111.03 156.23 110.22 L 155.51 109.50 C 154.69 108.68 153.36 108.69 152.54 109.52 C 151.72 110.34 151.73 111.68 152.55 112.49 Z M 152.82 112.63 L 153.21 113.45 C 153.72 114.52 155.00 114.97 156.06 114.46 C 157.13 113.96 157.58 112.68 157.08 111.61 L 156.69 110.79 C 156.18 109.72 154.90 109.27 153.83 109.78 C 152.77 110.29 152.31 111.56 152.82 112.63 Z M 152.99 112.70 L 153.07 113.70 C 153.16 114.89 154.20 115.77 155.39 115.68 C 156.57 115.59 157.46 114.55 157.37 113.37 L 157.29 112.36 C 157.20 111.18 156.16 110.29 154.98 110.38 C 153.79 110.47 152.90 111.51 152.99 112.70 Z M 153.06 113.53 L 153.06 114.57 C 153.06 115.76 154.03 116.73 155.22 116.73 C 156.41 116.73 157.38 115.76 157.38 114.57 L 157.38 113.53 C 157.38 112.34 156.41 111.37 155.22 111.37 C 154.03 111.37 153.06 112.34 153.06 113.53 Z M 153.06 114.56 L 153.05 115.58 C 153.04 116.78 154.00 117.75 155.20 117.76 C 156.39 117.77 157.37 116.81 157.37 115.62 L 157.38 114.59 C 157.39 113.39 156.43 112.42 155.24 112.41 C 154.04 112.40 153.07 113.36 153.06 114.56 Z M 153.06 115.54 L 153.03 116.56 C 153.00 117.76 153.94 118.75 155.13 118.78 C 156.32 118.81 157.31 117.87 157.35 116.68 L 157.37 115.66 C 157.40 114.46 156.46 113.47 155.27 113.44 C 154.08 113.41 153.09 114.35 153.06 115.54 Z M 153.04 116.48 L 152.97 117.47 C 152.90 118.65 153.80 119.68 154.98 119.76 C 156.17 119.83 157.19 118.93 157.27 117.75 L 157.34 116.76 C 157.41 115.57 156.51 114.55 155.33 114.47 C 154.14 114.39 153.12 115.29 153.04 116.48 Z M 152.99 117.37 L 152.89 118.32 C 152.75 119.50 153.60 120.56 154.77 120.69 C 155.95 120.82 157.01 119.98 157.14 118.80 L 157.25 117.85 C 157.39 116.67 156.54 115.61 155.36 115.48 C 154.19 115.34 153.13 116.19 152.99 117.37 Z M 152.91 118.24 L 152.76 119.23 C 152.58 120.40 153.38 121.48 154.55 121.66 C 155.71 121.83 156.80 121.03 156.97 119.87 L 157.12 118.88 C 157.30 117.72 156.50 116.63 155.33 116.45 C 154.17 116.28 153.08 117.08 152.91 118.24 Z M 152.78 119.16 L 152.60 120.16 C 152.39 121.31 153.15 122.42 154.29 122.63 C 155.44 122.84 156.55 122.08 156.76 120.93 L 156.95 119.94 C 157.16 118.79 156.40 117.68 155.25 117.47 C 154.10 117.26 153.00 118.02 152.78 119.16 Z M 152.62 120.10 L 152.42 121.07 C 152.17 122.21 152.89 123.33 154.03 123.57 C 155.16 123.82 156.28 123.10 156.53 121.96 L 156.74 120.99 C 156.98 119.85 156.26 118.74 155.12 118.49 C 153.99 118.25 152.87 118.97 152.62 120.10 Z M 152.44 121.05 L 152.21 122.03 C 151.95 123.15 152.65 124.27 153.78 124.53 C 154.90 124.79 156.02 124.09 156.28 122.96 L 156.51 121.99 C 156.77 120.86 156.06 119.74 154.94 119.48 C 153.81 119.22 152.69 119.93 152.44 121.05 Z M 152.23 122.02 L 152.00 122.98 C 151.74 124.10 152.43 125.21 153.54 125.48 C 154.66 125.74 155.78 125.05 156.04 123.93 L 156.27 122.97 C 156.53 121.86 155.84 120.74 154.72 120.48 C 153.61 120.21 152.49 120.91 152.23 122.02 Z M 152.02 122.96 L 151.78 123.95 C 151.50 125.05 152.17 126.17 153.28 126.44 C 154.38 126.72 155.50 126.05 155.77 124.94 L 156.02 123.96 C 156.29 122.85 155.62 121.73 154.52 121.46 C 153.42 121.18 152.30 121.86 152.02 122.96 Z M 151.80 123.91 L 151.54 124.88 C 151.25 125.96 151.89 127.09 152.98 127.38 C 154.07 127.68 155.19 127.03 155.49 125.94 L 155.75 124.98 C 156.04 123.89 155.40 122.77 154.31 122.47 C 153.22 122.18 152.10 122.82 151.80 123.91 Z M 151.57 124.84 L 151.29 125.81 C 150.98 126.88 151.60 128.01 152.67 128.32 C 153.75 128.63 154.87 128.01 155.18 126.94 L 155.46 125.97 C 155.77 124.90 155.15 123.77 154.08 123.46 C 153.00 123.15 151.88 123.77 151.57 124.84 Z M 151.31 125.79 L 151.02 126.74 C 150.70 127.81 151.29 128.93 152.36 129.25 C 153.42 129.58 154.54 128.98 154.87 127.92 L 155.16 126.96 C 155.48 125.90 154.88 124.77 153.82 124.45 C 152.76 124.13 151.64 124.72 151.31 125.79 Z M 151.04 126.73 L 150.74 127.68 C 150.41 128.73 150.99 129.85 152.04 130.18 C 153.09 130.51 154.21 129.93 154.54 128.88 L 154.84 127.93 C 155.17 126.88 154.59 125.76 153.54 125.43 C 152.49 125.10 151.37 125.68 151.04 126.73 Z M 150.76 127.68 L 150.46 128.63 C 150.12 129.67 150.70 130.78 151.73 131.11 C 152.77 131.45 153.89 130.87 154.22 129.83 L 154.52 128.88 C 154.86 127.85 154.28 126.73 153.25 126.40 C 152.21 126.07 151.09 126.64 150.76 127.68 Z M 150.48 128.63 L 150.17 129.57 C 149.84 130.60 150.40 131.70 151.43 132.03 C 152.46 132.37 153.56 131.80 153.90 130.77 L 154.20 129.83 C 154.53 128.81 153.97 127.70 152.94 127.37 C 151.91 127.04 150.81 127.60 150.48 128.63 Z M 150.19 129.56 L 149.87 130.51 C 149.53 131.53 150.08 132.63 151.10 132.97 C 152.11 133.31 153.21 132.76 153.55 131.74 L 153.87 130.79 C 154.21 129.77 153.67 128.67 152.65 128.33 C 151.63 127.99 150.53 128.54 150.19 129.56 Z M 149.90 130.48 L 149.56 131.45 C 149.20 132.45 149.72 133.55 150.73 133.91 C 151.73 134.26 152.83 133.74 153.18 132.74 L 153.53 131.77 C 153.88 130.77 153.36 129.67 152.36 129.31 C 151.36 128.96 150.25 129.48 149.90 130.48 Z M 149.59 131.42 L 149.23 132.36 C 148.85 133.35 149.35 134.45 150.33 134.82 C 151.32 135.20 152.42 134.70 152.79 133.72 L 153.15 132.77 C 153.53 131.79 153.03 130.68 152.05 130.31 C 151.06 129.94 149.96 130.43 149.59 131.42 Z M 149.26 132.31 L 148.88 133.23 C 148.48 134.20 148.94 135.31 149.90 135.71 C 150.87 136.11 151.98 135.65 152.38 134.68 L 152.76 133.76 C 153.16 132.80 152.70 131.69 151.74 131.29 C 150.77 130.89 149.66 131.35 149.26 132.31 Z M 148.92 133.18 L 148.50 134.10 C 148.07 135.04 148.48 136.15 149.42 136.59 C 150.36 137.02 151.48 136.61 151.91 135.67 L 152.33 134.74 C 152.77 133.80 152.35 132.69 151.41 132.25 C 150.47 131.82 149.36 132.23 148.92 133.18 Z M 148.54 134.06 L 148.12 134.90 C 147.67 135.83 148.05 136.94 148.97 137.40 C 149.89 137.85 151.00 137.47 151.46 136.55 L 151.87 135.71 C 152.33 134.78 151.95 133.67 151.03 133.21 C 150.11 132.76 148.99 133.14 148.54 134.06 Z M 148.16 134.86 L 147.72 135.70 C 147.24 136.60 147.58 137.72 148.48 138.19 C 149.39 138.67 150.50 138.33 150.98 137.42 L 151.42 136.59 C 151.90 135.69 151.55 134.57 150.65 134.10 C 149.75 133.62 148.63 133.96 148.16 134.86 Z M 147.78 135.60 L 147.23 136.51 C 146.70 137.37 146.97 138.50 147.84 139.03 C 148.70 139.56 149.83 139.28 150.36 138.42 L 150.91 137.52 C 151.44 136.66 151.17 135.53 150.30 135.00 C 149.44 134.47 148.31 134.74 147.78 135.60 Z M 147.30 136.42 L 146.75 137.21 C 146.17 138.03 146.36 139.17 147.19 139.75 C 148.01 140.33 149.15 140.13 149.73 139.31 L 150.29 138.51 C 150.86 137.69 150.67 136.55 149.84 135.97 C 149.02 135.39 147.88 135.59 147.30 136.42 Z M 146.82 137.12 L 146.17 137.92 C 145.55 138.71 145.67 139.85 146.45 140.48 C 147.24 141.11 148.38 140.98 149.01 140.20 L 149.65 139.40 C 150.28 138.61 150.16 137.47 149.37 136.84 C 148.59 136.21 147.45 136.34 146.82 137.12 Z M 146.28 137.81 L 145.57 138.55 C 144.88 139.27 144.90 140.42 145.62 141.11 C 146.35 141.80 147.49 141.78 148.18 141.06 L 148.90 140.32 C 149.59 139.59 149.57 138.45 148.84 137.76 C 148.12 137.06 146.98 137.09 146.28 137.81 Z M 145.71 138.43 L 144.94 139.08 C 144.18 139.72 144.08 140.86 144.73 141.63 C 145.37 142.39 146.51 142.48 147.27 141.84 L 148.04 141.18 C 148.81 140.54 148.90 139.40 148.26 138.64 C 147.61 137.88 146.47 137.78 145.71 138.43 Z M 145.04 139.01 L 144.25 139.58 C 143.45 140.17 143.28 141.30 143.87 142.10 C 144.46 142.91 145.58 143.08 146.39 142.49 L 147.17 141.91 C 147.98 141.32 148.15 140.19 147.56 139.39 C 146.97 138.59 145.84 138.42 145.04 139.01 Z M 144.28 139.57 L 144.08 139.71 C 143.27 140.28 143.08 141.41 143.65 142.22 C 144.23 143.03 145.35 143.22 146.16 142.65 L 146.36 142.51 C 147.17 141.93 147.36 140.81 146.79 140.00 C 146.21 139.19 145.09 138.99 144.28 139.57 Z"
      fill="black"
      fill-rule="nonzero" /><path d="M 131.62 141.44 L 130.89 142.40 C 130.24 143.26 130.40 144.49 131.27 145.15 C 132.13 145.80 133.36 145.64 134.01 144.77 L 134.74 143.82 C 135.40 142.96 135.23 141.72 134.37 141.07 C 133.51 140.41 132.28 140.58 131.62 141.44 Z M 130.45 143.32 L 130.36 143.93 C 130.22 145.04 130.99 146.06 132.10 146.21 C 133.21 146.36 134.23 145.58 134.38 144.47 L 134.46 143.86 C 134.61 142.75 133.83 141.73 132.72 141.58 C 131.62 141.43 130.60 142.21 130.45 143.32 Z M 132.06 146.29 L 132.88 146.41 C 134.03 146.58 135.10 145.78 135.27 144.63 C 135.44 143.48 134.65 142.41 133.49 142.24 L 132.68 142.12 C 131.53 141.95 130.46 142.74 130.29 143.90 C 130.12 145.05 130.91 146.12 132.06 146.29 Z M 133.45 146.51 L 134.67 146.36 C 135.87 146.21 136.73 145.12 136.58 143.91 C 136.44 142.71 135.34 141.85 134.14 142.00 L 132.92 142.14 C 131.72 142.29 130.86 143.38 131.01 144.59 C 131.15 145.79 132.25 146.65 133.45 146.51 Z M 134.80 146.38 L 135.82 146.19 C 137.04 145.97 137.84 144.81 137.63 143.60 C 137.41 142.38 136.24 141.57 135.03 141.79 L 134.00 141.98 C 132.79 142.20 131.98 143.36 132.20 144.57 C 132.42 145.79 133.58 146.60 134.80 146.38 Z M 135.88 146.18 L 136.85 145.98 C 138.06 145.73 138.84 144.55 138.59 143.34 C 138.34 142.13 137.15 141.35 135.94 141.60 L 134.97 141.80 C 133.76 142.05 132.98 143.24 133.23 144.45 C 133.48 145.66 134.67 146.43 135.88 146.18 Z M 136.88 145.98 L 137.89 145.75 C 139.09 145.48 139.85 144.29 139.59 143.08 C 139.32 141.88 138.12 141.12 136.92 141.38 L 135.91 141.61 C 134.70 141.87 133.94 143.07 134.21 144.28 C 134.48 145.48 135.67 146.24 136.88 145.98 Z M 137.90 145.75 L 138.84 145.53 C 140.04 145.26 140.79 144.05 140.52 142.85 C 140.24 141.65 139.04 140.89 137.83 141.17 L 136.90 141.39 C 135.69 141.66 134.94 142.87 135.22 144.07 C 135.50 145.28 136.70 146.03 137.90 145.75 Z M 138.84 145.53 L 139.76 145.32 C 140.97 145.04 141.72 143.84 141.44 142.64 C 141.16 141.43 139.96 140.68 138.76 140.96 L 137.83 141.17 C 136.63 141.45 135.88 142.65 136.15 143.86 C 136.43 145.06 137.63 145.81 138.84 145.53 Z M 139.78 145.32 L 140.77 145.08 C 141.97 144.79 142.71 143.58 142.43 142.38 C 142.14 141.18 140.93 140.43 139.72 140.72 L 138.74 140.96 C 137.53 141.25 136.79 142.46 137.08 143.66 C 137.37 144.87 138.58 145.61 139.78 145.32 Z M 140.82 145.07 L 141.77 144.81 C 142.97 144.50 143.68 143.27 143.36 142.08 C 143.04 140.88 141.82 140.17 140.62 140.49 L 139.67 140.74 C 138.48 141.06 137.77 142.28 138.08 143.48 C 138.40 144.67 139.63 145.38 140.82 145.07 Z M 141.80 144.80 L 142.78 144.53 C 143.97 144.19 144.66 142.96 144.33 141.77 C 143.99 140.59 142.76 139.89 141.57 140.23 L 140.60 140.50 C 139.41 140.83 138.71 142.06 139.05 143.25 C 139.38 144.44 140.61 145.13 141.80 144.80 Z M 142.78 144.52 L 143.74 144.25 C 144.92 143.92 145.61 142.69 145.28 141.50 C 144.94 140.32 143.72 139.63 142.53 139.96 L 141.57 140.23 C 140.39 140.56 139.70 141.79 140.03 142.98 C 140.36 144.16 141.59 144.85 142.78 144.52 Z M 143.75 144.24 L 144.71 143.96 C 145.89 143.62 146.57 142.39 146.23 141.22 C 145.89 140.04 144.66 139.36 143.48 139.70 L 142.52 139.98 C 141.34 140.31 140.66 141.54 141.00 142.72 C 141.34 143.90 142.57 144.58 143.75 144.24 Z M 144.75 143.94 L 145.70 143.64 C 146.87 143.29 147.52 142.05 147.16 140.88 C 146.80 139.72 145.57 139.06 144.40 139.42 L 143.45 139.72 C 142.28 140.08 141.63 141.32 141.99 142.48 C 142.35 143.65 143.58 144.30 144.75 143.94 Z M 145.74 143.62 L 146.69 143.31 C 147.84 142.93 148.46 141.69 148.08 140.53 C 147.70 139.38 146.46 138.76 145.31 139.14 L 144.36 139.45 C 143.21 139.83 142.59 141.07 142.97 142.22 C 143.35 143.38 144.59 144.00 145.74 143.62 Z M 146.70 143.29 L 147.67 142.96 C 148.81 142.57 149.42 141.33 149.03 140.19 C 148.64 139.04 147.39 138.44 146.25 138.83 L 145.29 139.16 C 144.15 139.55 143.54 140.79 143.93 141.93 C 144.32 143.07 145.56 143.68 146.70 143.29 Z M 147.67 142.94 L 148.63 142.61 C 149.76 142.22 150.36 140.98 149.97 139.85 C 149.58 138.72 148.34 138.12 147.21 138.51 L 146.25 138.84 C 145.12 139.24 144.52 140.47 144.91 141.60 C 145.30 142.73 146.54 143.33 147.67 142.94 Z M 148.62 142.59 L 149.57 142.26 C 150.69 141.87 151.28 140.65 150.89 139.53 C 150.50 138.41 149.28 137.81 148.16 138.20 L 147.21 138.53 C 146.09 138.92 145.50 140.15 145.89 141.27 C 146.28 142.39 147.50 142.98 148.62 142.59 Z M 149.57 142.24 L 150.53 141.91 C 151.64 141.52 152.22 140.30 151.83 139.19 C 151.44 138.08 150.23 137.50 149.12 137.89 L 148.16 138.22 C 147.05 138.61 146.47 139.83 146.85 140.94 C 147.24 142.05 148.46 142.63 149.57 142.24 Z M 150.54 141.88 L 151.48 141.54 C 152.58 141.15 153.14 139.94 152.75 138.84 C 152.35 137.74 151.14 137.18 150.05 137.57 L 149.11 137.91 C 148.01 138.31 147.44 139.52 147.83 140.61 C 148.23 141.71 149.44 142.28 150.54 141.88 Z M 151.51 141.51 L 152.40 141.17 C 153.48 140.76 154.02 139.55 153.60 138.47 C 153.19 137.39 151.98 136.85 150.90 137.26 L 150.01 137.60 C 148.93 138.02 148.39 139.23 148.81 140.31 C 149.22 141.39 150.43 141.93 151.51 141.51 Z M 152.44 141.14 L 153.33 140.77 C 154.39 140.33 154.89 139.12 154.45 138.06 C 154.01 137.00 152.80 136.49 151.74 136.93 L 150.86 137.30 C 149.79 137.74 149.29 138.95 149.73 140.01 C 150.17 141.07 151.38 141.58 152.44 141.14 Z M 153.34 140.75 L 154.32 140.33 C 155.36 139.88 155.85 138.67 155.40 137.62 C 154.95 136.58 153.74 136.09 152.69 136.54 L 151.72 136.96 C 150.67 137.41 150.19 138.62 150.64 139.66 C 151.09 140.71 152.30 141.19 153.34 140.75 Z M 154.32 140.31 L 155.22 139.92 C 156.25 139.47 156.73 138.27 156.28 137.23 C 155.83 136.19 154.62 135.72 153.59 136.17 L 152.69 136.56 C 151.65 137.01 151.18 138.21 151.63 139.25 C 152.08 140.29 153.28 140.76 154.32 140.31 Z M 155.22 139.91 L 156.16 139.49 C 157.19 139.04 157.66 137.84 157.20 136.81 C 156.75 135.78 155.55 135.31 154.52 135.77 L 153.58 136.18 C 152.55 136.64 152.08 137.84 152.54 138.87 C 152.99 139.90 154.19 140.36 155.22 139.91 Z M 156.18 139.47 L 157.21 139.00 C 158.23 138.53 158.68 137.33 158.21 136.32 C 157.75 135.30 156.54 134.85 155.53 135.32 L 154.50 135.79 C 153.48 136.25 153.04 137.46 153.50 138.47 C 153.97 139.49 155.17 139.94 156.18 139.47 Z M 157.30 138.95 L 158.32 138.42 C 159.30 137.91 159.69 136.69 159.18 135.70 C 158.66 134.72 157.45 134.33 156.46 134.84 L 155.44 135.37 C 154.46 135.88 154.07 137.10 154.58 138.09 C 155.10 139.07 156.31 139.46 157.30 138.95 Z M 159.34 136.10 L 159.28 135.91 C 158.99 134.84 157.88 134.20 156.81 134.49 C 155.73 134.79 155.10 135.90 155.39 136.97 L 155.44 137.16 C 155.73 138.24 156.84 138.87 157.92 138.58 C 158.99 138.29 159.63 137.18 159.34 136.10 Z M 156.90 134.43 L 155.72 134.69 C 154.61 134.93 153.90 136.03 154.14 137.14 C 154.39 138.25 155.48 138.95 156.59 138.71 L 157.77 138.45 C 158.88 138.21 159.59 137.11 159.35 136.00 C 159.10 134.90 158.01 134.19 156.90 134.43 Z M 155.43 134.73 L 154.47 135.09 C 153.38 135.49 152.83 136.69 153.23 137.78 C 153.63 138.87 154.84 139.42 155.92 139.02 L 156.88 138.67 C 157.97 138.27 158.52 137.06 158.12 135.97 C 157.72 134.88 156.51 134.33 155.43 134.73 Z M 154.30 135.12 L 153.42 135.53 C 152.35 136.03 151.89 137.29 152.38 138.36 C 152.87 139.42 154.14 139.89 155.21 139.39 L 156.09 138.98 C 157.16 138.49 157.62 137.22 157.13 136.16 C 156.63 135.09 155.37 134.63 154.30 135.12 Z M 153.34 135.54 L 152.45 135.99 C 151.39 136.52 150.96 137.82 151.50 138.88 C 152.03 139.95 153.33 140.37 154.39 139.84 L 155.28 139.39 C 156.34 138.85 156.77 137.56 156.24 136.49 C 155.70 135.43 154.40 135.00 153.34 135.54 Z M 152.34 136.02 L 151.47 136.51 C 150.43 137.11 150.06 138.44 150.65 139.49 C 151.25 140.53 152.58 140.90 153.63 140.30 L 154.50 139.81 C 155.54 139.21 155.91 137.88 155.31 136.83 C 154.72 135.79 153.39 135.42 152.34 136.02 Z M 151.37 136.55 L 150.52 137.09 C 149.50 137.74 149.20 139.10 149.85 140.13 C 150.50 141.15 151.86 141.45 152.88 140.80 L 153.73 140.26 C 154.75 139.61 155.05 138.25 154.40 137.23 C 153.75 136.20 152.39 135.90 151.37 136.55 Z M 150.48 137.11 L 149.65 137.66 C 148.63 138.34 148.36 139.71 149.04 140.73 C 149.72 141.74 151.09 142.01 152.10 141.33 L 152.93 140.78 C 153.95 140.10 154.22 138.73 153.54 137.72 C 152.86 136.70 151.49 136.43 150.48 137.11 Z M 149.60 137.69 L 148.78 138.27 C 147.78 138.97 147.54 140.35 148.25 141.35 C 148.95 142.35 150.34 142.59 151.34 141.89 L 152.15 141.31 C 153.15 140.60 153.39 139.22 152.69 138.22 C 151.98 137.22 150.60 136.98 149.60 137.69 Z M 148.70 138.32 L 147.93 138.91 C 146.96 139.66 146.78 141.06 147.53 142.03 C 148.28 143.00 149.67 143.18 150.64 142.43 L 151.41 141.83 C 152.39 141.09 152.56 139.69 151.82 138.72 C 151.07 137.75 149.67 137.57 148.70 138.32 Z M 147.86 138.97 L 147.07 139.63 C 146.13 140.42 146.01 141.82 146.80 142.76 C 147.59 143.70 148.99 143.82 149.93 143.03 L 150.72 142.37 C 151.66 141.58 151.78 140.18 150.99 139.24 C 150.20 138.30 148.80 138.18 147.86 138.97 Z M 147.02 139.67 L 146.30 140.31 C 145.38 141.13 145.30 142.54 146.12 143.46 C 146.93 144.37 148.34 144.45 149.26 143.64 L 149.98 142.99 C 150.90 142.17 150.98 140.77 150.16 139.85 C 149.35 138.93 147.94 138.85 147.02 139.67 Z M 146.27 140.33 L 145.52 141.03 C 144.62 141.86 144.55 143.27 145.39 144.17 C 146.22 145.08 147.63 145.14 148.53 144.31 L 149.28 143.62 C 150.19 142.78 150.25 141.38 149.42 140.47 C 148.59 139.56 147.18 139.50 146.27 140.33 Z M 145.51 141.03 L 144.80 141.69 C 143.90 142.53 143.84 143.94 144.68 144.84 C 145.52 145.74 146.93 145.80 147.83 144.96 L 148.54 144.30 C 149.44 143.46 149.50 142.05 148.66 141.15 C 147.82 140.25 146.41 140.20 145.51 141.03 Z M 144.78 141.71 L 144.06 142.39 C 143.17 143.24 143.13 144.64 143.97 145.54 C 144.82 146.43 146.23 146.47 147.12 145.63 L 147.84 144.94 C 148.74 144.10 148.78 142.69 147.93 141.80 C 147.09 140.90 145.68 140.86 144.78 141.71 Z M 144.03 142.42 L 143.28 143.15 C 142.41 144.02 142.40 145.43 143.26 146.30 C 144.12 147.18 145.53 147.19 146.41 146.33 L 147.15 145.60 C 148.03 144.73 148.04 143.32 147.18 142.45 C 146.32 141.57 144.91 141.56 144.03 142.42 Z M 143.26 143.18 L 142.54 143.91 C 141.68 144.79 141.70 146.20 142.57 147.06 C 143.45 147.92 144.86 147.91 145.72 147.03 L 146.44 146.30 C 147.30 145.42 147.28 144.01 146.40 143.15 C 145.53 142.29 144.12 142.31 143.26 143.18 Z M 142.53 143.93 L 141.83 144.66 C 140.98 145.54 141.00 146.95 141.89 147.80 C 142.77 148.65 144.18 148.63 145.03 147.74 L 145.73 147.02 C 146.59 146.13 146.56 144.72 145.68 143.87 C 144.79 143.02 143.38 143.04 142.53 143.93 Z M 141.83 144.65 L 141.12 145.39 C 140.27 146.27 140.29 147.68 141.18 148.53 C 142.06 149.39 143.47 149.36 144.32 148.48 L 145.03 147.74 C 145.88 146.86 145.86 145.45 144.98 144.60 C 144.09 143.75 142.69 143.77 141.83 144.65 Z M 141.14 145.38 L 140.43 146.10 C 139.57 146.97 139.58 148.38 140.46 149.24 C 141.33 150.10 142.74 150.08 143.60 149.21 L 144.30 148.49 C 145.16 147.62 145.15 146.21 144.28 145.35 C 143.40 144.49 142.00 144.50 141.14 145.38 Z M 140.44 146.09 L 139.78 146.75 C 138.92 147.62 138.92 149.02 139.79 149.89 C 140.65 150.75 142.06 150.75 142.92 149.88 L 143.59 149.22 C 144.45 148.35 144.45 146.95 143.58 146.08 C 142.71 145.22 141.31 145.22 140.44 146.09 Z M 139.79 146.75 L 139.09 147.45 C 138.22 148.31 138.22 149.71 139.08 150.58 C 139.95 151.45 141.35 151.45 142.22 150.58 L 142.92 149.89 C 143.78 149.02 143.79 147.62 142.92 146.75 C 142.06 145.89 140.65 145.88 139.79 146.75 Z M 139.09 147.45 L 138.38 148.16 C 137.51 149.02 137.51 150.42 138.37 151.29 C 139.24 152.15 140.64 152.16 141.50 151.29 L 142.22 150.58 C 143.08 149.72 143.08 148.32 142.22 147.45 C 141.36 146.59 139.95 146.58 139.09 147.45 Z M 138.38 148.16 L 137.68 148.86 C 136.81 149.72 136.81 151.12 137.68 151.99 C 138.54 152.85 139.94 152.85 140.81 151.99 L 141.51 151.29 C 142.37 150.43 142.37 149.02 141.51 148.16 C 140.64 147.30 139.24 147.30 138.38 148.16 Z M 137.68 148.86 L 136.96 149.58 C 136.09 150.44 136.09 151.84 136.95 152.71 C 137.82 153.57 139.22 153.57 140.08 152.71 L 140.81 151.99 C 141.67 151.12 141.67 149.72 140.81 148.86 C 139.95 147.99 138.54 147.99 137.68 148.86 Z M 136.96 149.58 L 136.27 150.27 C 135.40 151.13 135.40 152.53 136.26 153.39 C 137.12 154.26 138.51 154.26 139.38 153.40 L 140.08 152.71 C 140.94 151.85 140.94 150.45 140.08 149.59 C 139.23 148.72 137.83 148.72 136.96 149.58 Z M 136.27 150.28 L 135.56 150.99 C 134.69 151.84 134.69 153.24 135.55 154.10 C 136.40 154.96 137.80 154.97 138.66 154.11 L 139.37 153.40 C 140.24 152.54 140.24 151.15 139.38 150.29 C 138.53 149.42 137.13 149.42 136.27 150.28 Z M 135.56 150.99 L 134.85 151.70 C 133.99 152.56 133.99 153.94 134.85 154.80 C 135.70 155.66 137.09 155.66 137.95 154.81 L 138.66 154.10 C 139.51 153.24 139.52 151.86 138.66 151.00 C 137.80 150.14 136.42 150.14 135.56 150.99 Z M 134.85 151.71 L 134.15 152.42 C 133.29 153.27 133.30 154.66 134.15 155.51 C 135.01 156.36 136.39 156.36 137.25 155.50 L 137.95 154.79 C 138.80 153.94 138.80 152.55 137.94 151.70 C 137.09 150.85 135.70 150.85 134.85 151.71 Z M 134.14 152.43 L 133.44 153.15 C 132.59 154.01 132.60 155.39 133.46 156.23 C 134.32 157.08 135.70 157.07 136.54 156.21 L 137.25 155.49 C 138.09 154.63 138.08 153.25 137.23 152.41 C 136.37 151.56 134.99 151.57 134.14 152.43 Z M 133.44 153.16 L 132.75 153.86 C 131.91 154.72 131.93 156.09 132.79 156.93 C 133.64 157.77 135.02 157.75 135.86 156.90 L 136.54 156.20 C 137.38 155.34 137.37 153.96 136.51 153.13 C 135.65 152.29 134.27 152.30 133.44 153.16 Z M 132.76 153.86 L 132.05 154.58 C 131.22 155.44 131.23 156.81 132.09 157.65 C 132.94 158.48 134.31 158.47 135.15 157.61 L 135.85 156.89 C 136.69 156.04 136.67 154.66 135.82 153.83 C 134.96 152.99 133.59 153.01 132.76 153.86 Z M 132.06 154.59 L 131.35 155.31 C 130.51 156.16 130.52 157.53 131.37 158.36 C 132.22 159.20 133.59 159.19 134.42 158.34 L 135.14 157.61 C 135.97 156.76 135.96 155.40 135.11 154.56 C 134.26 153.72 132.90 153.74 132.06 154.59 Z M 131.36 155.31 L 130.65 156.03 C 129.81 156.88 129.82 158.24 130.66 159.07 C 131.51 159.91 132.87 159.90 133.70 159.06 L 134.41 158.34 C 135.25 157.49 135.24 156.13 134.40 155.30 C 133.55 154.46 132.19 154.47 131.36 155.31 Z M 130.65 156.04 L 129.95 156.75 C 129.12 157.59 129.13 158.95 129.97 159.78 C 130.81 160.61 132.16 160.60 132.99 159.76 L 133.70 159.05 C 134.53 158.21 134.52 156.85 133.68 156.02 C 132.84 155.19 131.48 155.20 130.65 156.04 Z M 129.95 156.76 L 129.23 157.50 C 128.40 158.34 128.42 159.69 129.26 160.51 C 130.10 161.34 131.45 161.32 132.27 160.48 L 132.99 159.75 C 133.82 158.91 133.81 157.56 132.97 156.73 C 132.13 155.91 130.77 155.92 129.95 156.76 Z M 129.23 157.50 L 128.54 158.21 C 127.71 159.05 127.73 160.39 128.57 161.22 C 129.40 162.04 130.75 162.03 131.57 161.19 L 132.27 160.48 C 133.09 159.64 133.08 158.29 132.24 157.47 C 131.40 156.65 130.06 156.66 129.23 157.50 Z M 128.55 158.20 L 127.86 158.89 C 127.04 159.72 127.04 161.06 127.87 161.89 C 128.69 162.72 130.04 162.72 130.87 161.89 L 131.56 161.20 C 132.39 160.37 132.39 159.03 131.56 158.20 C 130.73 157.37 129.38 157.37 128.55 158.20 Z M 127.89 158.87 L 127.16 159.58 C 126.32 160.39 126.31 161.74 127.12 162.57 C 127.94 163.41 129.28 163.43 130.12 162.61 L 130.85 161.91 C 131.69 161.09 131.70 159.75 130.89 158.91 C 130.07 158.07 128.73 158.05 127.89 158.87 Z M 127.17 159.58 L 126.46 160.26 C 125.63 161.07 125.61 162.41 126.42 163.25 C 127.23 164.09 128.57 164.11 129.41 163.30 L 130.11 162.61 C 130.95 161.80 130.97 160.46 130.16 159.62 C 129.35 158.78 128.01 158.76 127.17 159.58 Z M 126.45 160.28 L 125.72 161.00 C 124.90 161.82 124.89 163.16 125.71 163.98 C 126.53 164.81 127.86 164.82 128.69 164.00 L 129.42 163.27 C 130.25 162.46 130.25 161.12 129.44 160.29 C 128.62 159.47 127.28 159.46 126.45 160.28 Z M 125.71 161.03 L 125.03 161.72 C 124.22 162.54 124.22 163.87 125.05 164.69 C 125.87 165.50 127.20 165.49 128.01 164.67 L 128.70 163.97 C 129.51 163.15 129.50 161.82 128.68 161.01 C 127.86 160.19 126.53 160.20 125.71 161.03 Z M 125.02 161.74 L 124.33 162.46 C 123.53 163.29 123.55 164.61 124.37 165.41 C 125.20 166.21 126.52 166.19 127.32 165.36 L 128.02 164.64 C 128.82 163.82 128.80 162.50 127.97 161.70 C 127.15 160.89 125.82 160.92 125.02 161.74 Z M 124.32 162.49 L 123.64 163.21 C 122.85 164.05 122.89 165.36 123.72 166.14 C 124.55 166.93 125.87 166.89 126.65 166.06 L 127.33 165.34 C 128.12 164.50 128.08 163.19 127.25 162.41 C 126.42 161.62 125.10 161.66 124.32 162.49 Z M 123.63 163.25 L 122.96 163.98 C 122.19 164.81 122.25 166.11 123.08 166.88 C 123.92 167.65 125.22 167.59 125.99 166.76 L 126.66 166.03 C 127.43 165.19 127.37 163.89 126.54 163.12 C 125.70 162.35 124.40 162.41 123.63 163.25 Z M 122.97 164.00 L 122.37 164.66 C 121.61 165.49 121.68 166.78 122.51 167.53 C 123.34 168.29 124.63 168.23 125.38 167.39 L 125.98 166.73 C 126.73 165.90 126.67 164.62 125.84 163.86 C 125.01 163.11 123.72 163.17 122.97 164.00 Z"
      fill="black"
      fill-rule="nonzero" /><path d="M 148.50 148.17 L 149.49 148.30 C 150.63 148.44 151.66 147.64 151.81 146.51 C 151.95 145.37 151.15 144.33 150.01 144.19 L 149.02 144.06 C 147.88 143.92 146.85 144.73 146.70 145.86 C 146.56 146.99 147.36 148.03 148.50 148.17 Z M 149.31 148.36 L 150.26 148.56 C 151.43 148.81 152.57 148.06 152.82 146.89 C 153.06 145.73 152.32 144.58 151.15 144.33 L 150.20 144.13 C 149.03 143.89 147.89 144.63 147.64 145.80 C 147.39 146.97 148.14 148.11 149.31 148.36 Z M 150.01 148.54 L 150.90 148.84 C 152.06 149.22 153.31 148.60 153.70 147.44 C 154.08 146.28 153.45 145.03 152.30 144.65 L 151.40 144.35 C 150.24 143.97 148.99 144.59 148.61 145.75 C 148.22 146.91 148.85 148.16 150.01 148.54 Z M 150.83 148.83 L 151.81 149.20 C 152.97 149.62 154.25 149.03 154.67 147.88 C 155.10 146.73 154.51 145.45 153.36 145.02 L 152.37 144.66 C 151.22 144.23 149.94 144.82 149.51 145.97 C 149.09 147.12 149.67 148.40 150.83 148.83 Z M 151.84 149.21 L 152.74 149.53 C 153.90 149.94 155.18 149.34 155.59 148.17 C 156.00 147.01 155.39 145.73 154.23 145.32 L 153.33 145.00 C 152.17 144.59 150.89 145.20 150.48 146.36 C 150.07 147.52 150.68 148.80 151.84 149.21 Z M 152.78 149.55 L 153.77 149.87 C 154.94 150.26 156.20 149.63 156.59 148.46 C 156.98 147.29 156.35 146.02 155.18 145.64 L 154.19 145.31 C 153.02 144.92 151.75 145.55 151.37 146.72 C 150.98 147.89 151.61 149.16 152.78 149.55 Z M 153.82 149.89 L 154.85 150.20 C 156.03 150.56 157.27 149.89 157.63 148.71 C 157.99 147.54 157.32 146.29 156.15 145.93 L 155.12 145.62 C 153.94 145.26 152.70 145.93 152.34 147.11 C 151.98 148.29 152.65 149.53 153.82 149.89 Z M 154.92 150.20 L 155.93 150.48 C 157.11 150.80 158.33 150.11 158.65 148.93 C 158.97 147.75 158.28 146.53 157.10 146.21 L 156.08 145.93 C 154.90 145.61 153.69 146.31 153.37 147.48 C 153.04 148.66 153.74 149.88 154.92 150.20 Z M 155.99 150.47 L 156.91 150.70 C 158.08 150.99 159.27 150.27 159.56 149.10 C 159.85 147.92 159.13 146.73 157.96 146.44 L 157.04 146.22 C 155.86 145.93 154.68 146.64 154.39 147.82 C 154.10 148.99 154.82 150.18 155.99 150.47 Z M 156.98 150.69 L 158.00 150.91 C 159.16 151.16 160.32 150.41 160.57 149.25 C 160.82 148.08 160.08 146.93 158.91 146.68 L 157.89 146.46 C 156.72 146.20 155.57 146.95 155.32 148.12 C 155.07 149.28 155.81 150.43 156.98 150.69 Z M 158.08 150.89 L 158.99 151.05 C 160.15 151.26 161.25 150.48 161.46 149.33 C 161.66 148.17 160.89 147.06 159.74 146.86 L 158.83 146.69 C 157.67 146.49 156.56 147.26 156.36 148.42 C 156.15 149.57 156.92 150.68 158.08 150.89 Z M 159.03 151.02 L 160.01 151.18 C 161.15 151.36 162.23 150.59 162.41 149.44 C 162.59 148.30 161.82 147.22 160.67 147.04 L 159.69 146.88 C 158.55 146.70 157.48 147.48 157.29 148.62 C 157.11 149.76 157.89 150.84 159.03 151.02 Z M 160.04 151.15 L 161.04 151.30 C 162.17 151.47 163.22 150.68 163.38 149.56 C 163.55 148.43 162.77 147.38 161.64 147.21 L 160.64 147.07 C 159.51 146.90 158.46 147.68 158.30 148.81 C 158.13 149.94 158.91 150.99 160.04 151.15 Z M 161.07 151.27 L 162.06 151.41 C 163.18 151.55 164.20 150.77 164.35 149.65 C 164.50 148.54 163.71 147.52 162.60 147.37 L 161.61 147.24 C 160.49 147.09 159.47 147.88 159.32 148.99 C 159.17 150.10 159.96 151.13 161.07 151.27 Z M 162.07 151.38 L 163.00 151.50 C 164.10 151.64 165.11 150.86 165.25 149.76 C 165.39 148.66 164.62 147.66 163.52 147.52 L 162.59 147.40 C 161.49 147.26 160.48 148.03 160.34 149.13 C 160.20 150.23 160.98 151.23 162.07 151.38 Z M 163.02 151.47 L 164.07 151.59 C 165.16 151.73 166.14 150.95 166.27 149.87 C 166.40 148.79 165.63 147.80 164.55 147.67 L 163.50 147.55 C 162.41 147.41 161.43 148.19 161.30 149.27 C 161.17 150.35 161.94 151.34 163.02 151.47 Z M 164.09 151.57 L 165.07 151.68 C 166.13 151.81 167.10 151.04 167.23 149.97 C 167.35 148.90 166.58 147.93 165.51 147.81 L 164.53 147.70 C 163.46 147.57 162.50 148.34 162.37 149.41 C 162.25 150.48 163.02 151.45 164.09 151.57 Z M 165.00 151.65 L 166.01 151.80 C 167.06 151.96 168.04 151.24 168.20 150.19 C 168.36 149.14 167.64 148.16 166.59 148.00 L 165.58 147.85 C 164.53 147.69 163.55 148.41 163.39 149.46 C 163.23 150.51 163.95 151.49 165.00 151.65 Z M 165.83 151.74 L 166.84 152.00 C 167.85 152.26 168.88 151.65 169.14 150.63 C 169.40 149.62 168.80 148.59 167.78 148.33 L 166.77 148.07 C 165.76 147.81 164.73 148.41 164.47 149.43 C 164.20 150.44 164.81 151.47 165.83 151.74 Z M 166.65 151.90 L 167.54 152.24 C 168.50 152.60 169.58 152.12 169.94 151.16 C 170.30 150.20 169.82 149.12 168.86 148.76 L 167.97 148.42 C 167.01 148.06 165.93 148.54 165.57 149.50 C 165.21 150.46 165.69 151.54 166.65 151.90 Z M 167.50 152.20 L 167.60 152.24 C 168.54 152.62 169.61 152.17 170.00 151.23 C 170.38 150.29 169.93 149.22 168.99 148.83 L 168.90 148.80 C 167.96 148.41 166.89 148.86 166.50 149.80 C 166.11 150.74 166.56 151.82 167.50 152.20 Z"
      fill="black"
      fill-rule="nonzero" /><path d="M 145.10 155.71 L 145.23 156.80 C 145.35 157.90 146.35 158.69 147.45 158.57 C 148.56 158.44 149.35 157.44 149.22 156.34 L 149.10 155.25 C 148.97 154.15 147.98 153.36 146.87 153.48 C 145.77 153.61 144.98 154.60 145.10 155.71 Z M 145.17 156.80 L 145.28 157.85 C 145.41 158.98 146.44 159.80 147.58 159.67 C 148.71 159.54 149.53 158.52 149.40 157.38 L 149.28 156.34 C 149.16 155.20 148.13 154.38 146.99 154.51 C 145.86 154.64 145.04 155.66 145.17 156.80 Z M 145.22 157.85 L 145.33 158.80 C 145.46 159.97 146.51 160.82 147.68 160.69 C 148.85 160.56 149.70 159.51 149.57 158.34 L 149.46 157.38 C 149.34 156.21 148.28 155.37 147.11 155.49 C 145.94 155.62 145.09 156.67 145.22 157.85 Z M 145.27 158.79 L 145.37 159.75 C 145.49 160.95 146.57 161.83 147.77 161.71 C 148.97 161.58 149.84 160.51 149.72 159.31 L 149.62 158.35 C 149.50 157.15 148.43 156.27 147.23 156.39 C 146.02 156.52 145.15 157.59 145.27 158.79 Z M 145.35 159.72 L 145.44 160.77 C 145.55 161.99 146.62 162.88 147.83 162.78 C 149.05 162.67 149.95 161.60 149.84 160.38 L 149.75 159.34 C 149.64 158.12 148.57 157.22 147.35 157.33 C 146.14 157.44 145.24 158.51 145.35 159.72 Z M 145.44 160.74 L 145.50 161.61 C 145.59 162.83 146.65 163.74 147.87 163.65 C 149.09 163.56 150.00 162.50 149.91 161.28 L 149.84 160.41 C 149.75 159.19 148.69 158.28 147.47 158.37 C 146.26 158.46 145.34 159.52 145.44 160.74 Z M 145.50 161.60 L 145.57 162.57 C 145.66 163.79 146.72 164.70 147.93 164.62 C 149.15 164.53 150.07 163.47 149.98 162.25 L 149.91 161.28 C 149.82 160.07 148.76 159.15 147.54 159.24 C 146.33 159.33 145.41 160.39 145.50 161.60 Z M 145.57 162.56 L 145.64 163.58 C 145.72 164.80 146.78 165.72 147.99 165.64 C 149.21 165.56 150.13 164.50 150.05 163.29 L 149.98 162.26 C 149.90 161.05 148.84 160.13 147.63 160.21 C 146.41 160.29 145.49 161.34 145.57 162.56 Z M 145.64 163.56 L 145.70 164.54 C 145.77 165.76 146.81 166.69 148.03 166.61 C 149.25 166.54 150.17 165.50 150.10 164.28 L 150.05 163.31 C 149.97 162.09 148.93 161.16 147.71 161.23 C 146.50 161.31 145.57 162.35 145.64 163.56 Z M 145.70 164.52 L 145.75 165.54 C 145.81 166.76 146.84 167.69 148.06 167.63 C 149.27 167.57 150.21 166.54 150.15 165.33 L 150.10 164.31 C 150.04 163.09 149.01 162.15 147.79 162.21 C 146.58 162.27 145.64 163.31 145.70 164.52 Z M 145.76 165.52 L 145.80 166.51 C 145.84 167.73 146.86 168.67 148.08 168.62 C 149.29 168.57 150.23 167.55 150.18 166.34 L 150.14 165.35 C 150.10 164.14 149.08 163.19 147.86 163.24 C 146.65 163.29 145.71 164.31 145.76 165.52 Z M 145.80 166.51 L 145.84 167.51 C 145.88 168.72 146.90 169.66 148.11 169.62 C 149.31 169.57 150.26 168.56 150.21 167.35 L 150.18 166.35 C 150.13 165.14 149.12 164.20 147.91 164.24 C 146.70 164.28 145.76 165.30 145.80 166.51 Z M 145.85 167.52 L 145.89 168.52 C 145.94 169.72 146.95 170.66 148.15 170.61 C 149.36 170.56 150.29 169.54 150.24 168.34 L 150.20 167.34 C 150.16 166.14 149.14 165.20 147.94 165.25 C 146.73 165.30 145.80 166.31 145.85 167.52 Z M 145.90 168.53 L 145.94 169.52 C 146.00 170.72 147.01 171.65 148.21 171.59 C 149.40 171.54 150.33 170.52 150.28 169.33 L 150.23 168.33 C 150.18 167.14 149.17 166.21 147.97 166.26 C 146.77 166.32 145.85 167.33 145.90 168.53 Z M 145.96 169.52 L 146.00 170.53 C 146.05 171.72 147.06 172.64 148.25 172.59 C 149.43 172.54 150.36 171.53 150.31 170.34 L 150.26 169.33 C 150.21 168.14 149.21 167.22 148.02 167.27 C 146.83 167.32 145.91 168.33 145.96 169.52 Z M 146.01 170.51 L 146.05 171.51 C 146.09 172.69 147.08 173.61 148.26 173.57 C 149.45 173.53 150.37 172.54 150.33 171.36 L 150.30 170.36 C 150.25 169.18 149.26 168.25 148.08 168.29 C 146.90 168.34 145.97 169.33 146.01 170.51 Z M 146.06 171.49 L 146.09 172.49 C 146.12 173.67 147.10 174.60 148.28 174.56 C 149.45 174.53 150.38 173.55 150.35 172.37 L 150.32 171.37 C 150.28 170.19 149.30 169.27 148.13 169.30 C 146.95 169.34 146.03 170.32 146.06 171.49 Z M 146.10 172.49 L 146.13 173.49 C 146.16 174.66 147.13 175.58 148.30 175.55 C 149.46 175.52 150.39 174.55 150.36 173.39 L 150.33 172.38 C 150.30 171.21 149.33 170.29 148.17 170.32 C 147.00 170.35 146.07 171.32 146.10 172.49 Z M 146.14 173.49 L 146.16 174.49 C 146.19 175.65 147.15 176.57 148.31 176.55 C 149.48 176.52 150.40 175.56 150.37 174.39 L 150.35 173.39 C 150.32 172.23 149.36 171.31 148.19 171.34 C 147.03 171.36 146.11 172.33 146.14 173.49 Z M 146.18 174.49 L 146.20 175.49 C 146.23 176.64 147.18 177.55 148.34 177.53 C 149.49 177.50 150.41 176.54 150.38 175.39 L 150.36 174.39 C 150.33 173.24 149.37 172.33 148.22 172.35 C 147.06 172.38 146.15 173.34 146.18 174.49 Z M 146.21 175.49 L 146.24 176.49 C 146.27 177.64 147.22 178.54 148.37 178.51 C 149.52 178.48 150.42 177.53 150.39 176.38 L 150.37 175.38 C 150.34 174.24 149.38 173.33 148.24 173.36 C 147.09 173.39 146.18 174.34 146.21 175.49 Z M 146.25 176.48 L 146.27 177.48 C 146.30 178.62 147.25 179.52 148.39 179.50 C 149.53 179.47 150.43 178.52 150.40 177.38 L 150.38 176.39 C 150.35 175.25 149.41 174.34 148.27 174.37 C 147.13 174.40 146.22 175.34 146.25 176.48 Z M 146.29 177.46 L 146.30 178.42 C 146.32 179.55 147.25 180.45 148.39 180.43 C 149.52 180.42 150.42 179.48 150.41 178.35 L 150.39 177.40 C 150.37 176.27 149.44 175.36 148.31 175.38 C 147.17 175.40 146.27 176.33 146.29 177.46 Z M 146.31 178.40 L 146.32 179.31 C 146.33 180.44 147.25 181.35 148.38 181.34 C 149.51 181.33 150.41 180.40 150.40 179.28 L 150.39 178.36 C 150.38 177.24 149.46 176.33 148.34 176.34 C 147.21 176.35 146.30 177.27 146.31 178.40 Z M 146.33 179.32 L 146.34 180.36 C 146.36 181.48 147.27 182.38 148.39 182.37 C 149.52 182.35 150.41 181.44 150.40 180.31 L 150.39 179.27 C 150.38 178.15 149.46 177.25 148.34 177.27 C 147.22 177.28 146.32 178.20 146.33 179.32 Z M 146.35 180.37 L 146.37 181.45 C 146.39 182.57 147.31 183.45 148.43 183.44 C 149.54 183.42 150.43 182.50 150.41 181.38 L 150.39 180.30 C 150.37 179.19 149.45 178.30 148.34 178.32 C 147.22 178.34 146.34 179.26 146.35 180.37 Z M 146.38 181.46 L 146.40 182.49 C 146.43 183.60 147.35 184.48 148.46 184.46 C 149.57 184.44 150.45 183.52 150.42 182.41 L 150.40 181.37 C 150.38 180.26 149.46 179.38 148.35 179.41 C 147.24 179.43 146.36 180.35 146.38 181.46 Z M 146.41 182.50 L 146.43 183.54 C 146.46 184.65 147.38 185.53 148.48 185.50 C 149.59 185.47 150.47 184.56 150.44 183.45 L 150.42 182.40 C 150.39 181.30 149.47 180.42 148.37 180.45 C 147.26 180.47 146.38 181.39 146.41 182.50 Z M 146.44 183.54 L 146.46 184.52 C 146.49 185.62 147.40 186.50 148.50 186.47 C 149.61 186.45 150.48 185.53 150.46 184.43 L 150.43 183.45 C 150.41 182.35 149.50 181.48 148.39 181.50 C 147.29 181.52 146.42 182.44 146.44 183.54 Z M 146.48 184.51 L 146.50 185.83 C 146.52 186.92 147.42 187.79 148.51 187.78 C 149.60 187.76 150.47 186.86 150.46 185.77 L 150.44 184.44 C 150.42 183.35 149.52 182.48 148.43 182.50 C 147.34 182.52 146.47 183.41 146.48 184.51 Z M 146.55 185.74 L 146.53 186.42 C 146.50 187.49 147.34 188.38 148.40 188.41 C 149.47 188.44 150.36 187.60 150.39 186.53 L 150.41 185.86 C 150.45 184.79 149.60 183.90 148.54 183.87 C 147.47 183.84 146.58 184.68 146.55 185.74 Z M 150.32 186.23 L 150.24 185.61 C 150.11 184.58 149.16 183.86 148.13 183.99 C 147.10 184.13 146.38 185.07 146.52 186.10 L 146.60 186.72 C 146.73 187.75 147.68 188.48 148.71 188.34 C 149.74 188.21 150.46 187.26 150.32 186.23 Z M 150.20 185.70 L 150.11 184.66 C 150.02 183.66 149.14 182.91 148.13 183.00 C 147.13 183.09 146.38 183.97 146.47 184.98 L 146.56 186.01 C 146.65 187.02 147.53 187.76 148.54 187.67 C 149.54 187.59 150.28 186.70 150.20 185.70 Z"
      fill="black"
      fill-rule="nonzero" /><path d="M 140.40 168.03 L 139.93 167.06 C 139.43 166.03 138.19 165.59 137.16 166.09 C 136.13 166.58 135.70 167.82 136.20 168.85 L 136.67 169.83 C 137.16 170.86 138.40 171.29 139.43 170.79 C 140.46 170.30 140.89 169.06 140.40 168.03 Z M 136.68 166.33 L 136.26 166.69 C 135.36 167.45 135.25 168.80 136.01 169.69 C 136.78 170.59 138.12 170.70 139.02 169.94 L 139.44 169.58 C 140.34 168.81 140.45 167.47 139.68 166.57 C 138.92 165.68 137.58 165.57 136.68 166.33 Z M 135.61 167.60 L 135.22 168.73 C 134.83 169.84 135.41 171.07 136.53 171.46 C 137.65 171.85 138.88 171.26 139.27 170.15 L 139.66 169.02 C 140.06 167.90 139.47 166.68 138.35 166.29 C 137.23 165.89 136.00 166.48 135.61 167.60 Z M 135.18 168.83 L 134.90 169.80 C 134.57 170.93 135.22 172.13 136.35 172.46 C 137.49 172.80 138.69 172.14 139.02 171.01 L 139.30 170.04 C 139.64 168.90 138.99 167.71 137.85 167.38 C 136.71 167.04 135.52 167.69 135.18 168.83 Z M 134.90 169.81 L 134.62 170.77 C 134.29 171.91 134.95 173.10 136.09 173.42 C 137.23 173.75 138.41 173.10 138.74 171.96 L 139.02 171.00 C 139.35 169.86 138.69 168.67 137.56 168.34 C 136.42 168.01 135.23 168.67 134.90 169.81 Z M 134.63 170.74 L 134.36 171.65 C 134.02 172.78 134.66 173.98 135.79 174.32 C 136.92 174.66 138.12 174.02 138.46 172.89 L 138.73 171.98 C 139.08 170.85 138.43 169.65 137.30 169.31 C 136.17 168.97 134.97 169.61 134.63 170.74 Z M 134.38 171.61 L 134.08 172.52 C 133.72 173.65 134.33 174.85 135.46 175.21 C 136.58 175.58 137.78 174.96 138.15 173.84 L 138.44 172.92 C 138.80 171.80 138.19 170.60 137.07 170.23 C 135.94 169.87 134.74 170.49 134.38 171.61 Z M 134.10 172.49 L 133.75 173.51 C 133.37 174.63 133.96 175.84 135.07 176.22 C 136.18 176.60 137.39 176.01 137.77 174.90 L 138.13 173.87 C 138.51 172.76 137.92 171.55 136.81 171.17 C 135.69 170.78 134.48 171.38 134.10 172.49 Z M 133.77 173.49 L 133.43 174.45 C 133.03 175.55 133.60 176.76 134.70 177.15 C 135.80 177.55 137.01 176.98 137.41 175.88 L 137.75 174.92 C 138.15 173.82 137.58 172.61 136.48 172.22 C 135.38 171.82 134.17 172.39 133.77 173.49 Z M 133.45 174.44 L 133.09 175.41 C 132.69 176.50 133.25 177.70 134.33 178.10 C 135.42 178.50 136.62 177.95 137.02 176.86 L 137.38 175.89 C 137.78 174.80 137.23 173.60 136.14 173.20 C 135.05 172.80 133.85 173.35 133.45 174.44 Z M 133.11 175.42 L 132.76 176.36 C 132.37 177.43 132.91 178.62 133.99 179.02 C 135.06 179.42 136.25 178.88 136.65 177.80 L 137.00 176.86 C 137.40 175.79 136.85 174.59 135.78 174.20 C 134.71 173.80 133.51 174.34 133.11 175.42 Z M 132.79 176.37 L 132.43 177.35 C 132.04 178.41 132.58 179.58 133.63 179.97 C 134.69 180.37 135.86 179.83 136.26 178.77 L 136.62 177.79 C 137.01 176.73 136.47 175.56 135.42 175.17 C 134.36 174.77 133.19 175.31 132.79 176.37 Z M 132.47 177.38 L 132.13 178.34 C 131.76 179.37 132.29 180.51 133.32 180.88 C 134.35 181.26 135.49 180.72 135.87 179.69 L 136.21 178.74 C 136.59 177.71 136.05 176.57 135.02 176.19 C 133.99 175.82 132.85 176.35 132.47 177.38 Z M 132.18 178.40 L 131.89 179.25 C 131.55 180.25 132.08 181.35 133.09 181.69 C 134.10 182.03 135.19 181.49 135.53 180.49 L 135.82 179.63 C 136.16 178.63 135.62 177.53 134.62 177.19 C 133.61 176.85 132.52 177.39 132.18 178.40 Z M 131.92 179.31 L 131.62 180.26 C 131.31 181.25 131.87 182.30 132.85 182.61 C 133.84 182.92 134.89 182.37 135.20 181.38 L 135.50 180.42 C 135.81 179.43 135.25 178.38 134.27 178.08 C 133.28 177.77 132.23 178.32 131.92 179.31 Z M 131.65 180.30 L 131.36 181.26 C 131.08 182.24 131.63 183.26 132.61 183.54 C 133.58 183.83 134.61 183.27 134.89 182.30 L 135.18 181.34 C 135.46 180.36 134.91 179.34 133.93 179.06 C 132.96 178.77 131.93 179.33 131.65 180.30 Z M 131.38 181.27 L 131.36 181.33 C 131.08 182.30 131.64 183.31 132.60 183.59 C 133.57 183.87 134.58 183.32 134.86 182.35 L 134.88 182.29 C 135.16 181.32 134.60 180.31 133.64 180.03 C 132.67 179.75 131.66 180.31 131.38 181.27 Z"
      fill="black"
      fill-rule="nonzero" /><path d="M 151.34 166.20 L 152.10 166.88 C 152.96 167.64 154.27 167.56 155.03 166.71 C 155.79 165.85 155.71 164.54 154.86 163.77 L 154.10 163.10 C 153.24 162.34 151.93 162.41 151.17 163.27 C 150.41 164.13 150.48 165.44 151.34 166.20 Z M 152.00 166.76 L 152.69 167.47 C 153.48 168.28 154.78 168.30 155.60 167.51 C 156.42 166.72 156.44 165.41 155.64 164.59 L 154.96 163.89 C 154.16 163.07 152.86 163.05 152.04 163.85 C 151.22 164.64 151.21 165.95 152.00 166.76 Z M 152.52 167.29 L 153.12 168.08 C 153.82 168.99 155.12 169.16 156.03 168.47 C 156.94 167.77 157.11 166.48 156.41 165.57 L 155.81 164.77 C 155.11 163.87 153.82 163.69 152.91 164.39 C 152.00 165.08 151.82 166.38 152.52 167.29 Z M 153.10 168.09 L 153.70 168.88 C 154.40 169.80 155.72 169.98 156.64 169.28 C 157.56 168.58 157.74 167.26 157.04 166.34 L 156.44 165.55 C 155.74 164.63 154.42 164.45 153.50 165.16 C 152.58 165.86 152.40 167.17 153.10 168.09 Z M 153.82 169.04 L 154.48 169.77 C 155.27 170.62 156.61 170.68 157.47 169.89 C 158.32 169.10 158.38 167.76 157.59 166.90 L 156.92 166.18 C 156.13 165.32 154.80 165.27 153.94 166.06 C 153.08 166.85 153.02 168.18 153.82 169.04 Z M 154.57 169.86 L 155.29 170.56 C 156.14 171.37 157.48 171.34 158.29 170.50 C 159.10 169.65 159.07 168.31 158.23 167.50 L 157.50 166.81 C 156.66 166.00 155.32 166.02 154.51 166.87 C 153.70 167.71 153.72 169.05 154.57 169.86 Z M 155.34 170.61 L 156.06 171.25 C 156.93 172.04 158.27 171.97 159.05 171.09 C 159.84 170.22 159.77 168.88 158.90 168.10 L 158.18 167.46 C 157.31 166.67 155.97 166.74 155.19 167.61 C 154.40 168.48 154.47 169.82 155.34 170.61 Z M 156.10 171.29 L 156.90 171.97 C 157.79 172.73 159.13 172.63 159.89 171.74 C 160.65 170.84 160.55 169.51 159.65 168.75 L 158.85 168.06 C 157.96 167.30 156.62 167.41 155.86 168.30 C 155.10 169.19 155.21 170.53 156.10 171.29 Z M 156.94 171.99 L 157.72 172.63 C 158.62 173.37 159.95 173.24 160.69 172.34 C 161.43 171.44 161.30 170.11 160.40 169.37 L 159.62 168.73 C 158.72 167.99 157.39 168.12 156.65 169.02 C 155.91 169.92 156.04 171.25 156.94 171.99 Z M 157.71 172.60 L 158.49 173.25 C 159.38 174.00 160.69 173.88 161.44 173.00 C 162.18 172.12 162.07 170.80 161.18 170.05 L 160.40 169.40 C 159.52 168.66 158.20 168.77 157.46 169.66 C 156.72 170.54 156.83 171.86 157.71 172.60 Z M 158.44 173.16 L 159.18 173.85 C 160.01 174.63 161.32 174.58 162.09 173.75 C 162.86 172.91 162.81 171.61 161.98 170.84 L 161.24 170.15 C 160.40 169.37 159.10 169.42 158.33 170.25 C 157.55 171.09 157.60 172.39 158.44 173.16 Z M 159.11 173.70 L 159.79 174.44 C 160.54 175.25 161.80 175.30 162.61 174.55 C 163.43 173.81 163.48 172.54 162.73 171.73 L 162.05 170.99 C 161.30 170.18 160.04 170.13 159.23 170.88 C 158.42 171.62 158.36 172.89 159.11 173.70 Z M 159.79 174.33 L 160.23 174.85 C 160.92 175.67 162.13 175.77 162.95 175.08 C 163.76 174.40 163.86 173.18 163.18 172.37 L 162.74 171.84 C 162.05 171.03 160.83 170.92 160.02 171.61 C 159.20 172.30 159.10 173.51 159.79 174.33 Z"
      fill="black"
      fill-rule="nonzero" /><path d="M 164.11 164.56 L 165.04 164.45 C 166.19 164.33 167.02 163.29 166.89 162.14 C 166.76 160.99 165.73 160.16 164.58 160.29 L 163.65 160.39 C 162.50 160.52 161.67 161.55 161.80 162.70 C 161.93 163.85 162.96 164.68 164.11 164.56 Z M 164.04 164.43 L 164.98 164.78 C 166.12 165.20 167.38 164.63 167.81 163.49 C 168.23 162.35 167.65 161.09 166.52 160.66 L 165.58 160.31 C 164.44 159.89 163.18 160.46 162.75 161.60 C 162.33 162.74 162.90 164.00 164.04 164.43 Z M 164.26 164.40 L 164.96 165.02 C 165.89 165.84 167.31 165.76 168.13 164.83 C 168.95 163.90 168.87 162.48 167.94 161.66 L 167.24 161.04 C 166.31 160.22 164.89 160.31 164.07 161.23 C 163.25 162.16 163.33 163.58 164.26 164.40 Z M 164.75 164.81 L 165.44 165.61 C 166.25 166.55 167.67 166.66 168.61 165.85 C 169.55 165.04 169.65 163.62 168.84 162.68 L 168.15 161.88 C 167.34 160.94 165.92 160.83 164.99 161.64 C 164.05 162.45 163.94 163.87 164.75 164.81 Z M 165.35 165.49 L 165.97 166.32 C 166.71 167.31 168.11 167.51 169.11 166.77 C 170.10 166.03 170.30 164.63 169.56 163.64 L 168.94 162.81 C 168.20 161.81 166.79 161.61 165.80 162.35 C 164.81 163.09 164.61 164.50 165.35 165.49 Z M 165.92 166.22 L 166.46 167.02 C 167.15 168.04 168.53 168.31 169.54 167.63 C 170.56 166.94 170.83 165.56 170.15 164.55 L 169.61 163.74 C 168.93 162.72 167.55 162.45 166.53 163.14 C 165.51 163.82 165.24 165.20 165.92 166.22 Z M 166.43 166.92 L 166.95 167.77 C 167.58 168.81 168.93 169.13 169.96 168.50 C 171.00 167.88 171.32 166.53 170.69 165.49 L 170.18 164.64 C 169.55 163.61 168.20 163.28 167.17 163.91 C 166.13 164.54 165.80 165.89 166.43 166.92 Z M 166.95 167.71 L 167.44 168.57 C 168.03 169.60 169.35 169.96 170.39 169.37 C 171.42 168.77 171.78 167.45 171.19 166.42 L 170.70 165.56 C 170.10 164.52 168.78 164.16 167.75 164.76 C 166.71 165.35 166.35 166.67 166.95 167.71 Z M 167.45 168.52 L 167.92 169.39 C 168.49 170.42 169.79 170.79 170.82 170.22 C 171.85 169.65 172.23 168.36 171.66 167.33 L 171.18 166.46 C 170.61 165.43 169.31 165.05 168.28 165.62 C 167.25 166.19 166.88 167.49 167.45 168.52 Z M 167.93 169.34 L 168.42 170.25 C 168.96 171.28 170.23 171.67 171.26 171.12 C 172.28 170.58 172.67 169.31 172.13 168.28 L 171.65 167.37 C 171.10 166.35 169.83 165.96 168.81 166.50 C 167.78 167.04 167.39 168.31 167.93 169.34 Z M 168.43 170.20 L 168.89 171.12 C 169.40 172.14 170.65 172.55 171.67 172.04 C 172.69 171.53 173.10 170.28 172.59 169.26 L 172.12 168.34 C 171.61 167.32 170.37 166.91 169.35 167.42 C 168.32 167.93 167.91 169.17 168.43 170.20 Z M 168.91 171.05 L 169.38 172.05 C 169.85 173.06 171.05 173.50 172.06 173.03 C 173.07 172.56 173.51 171.35 173.04 170.34 L 172.57 169.34 C 172.10 168.32 170.89 167.89 169.88 168.36 C 168.87 168.83 168.43 170.04 168.91 171.05 Z M 169.40 171.97 L 169.80 172.89 C 170.23 173.89 171.38 174.35 172.38 173.92 C 173.37 173.50 173.83 172.34 173.41 171.35 L 173.01 170.42 C 172.58 169.43 171.43 168.97 170.43 169.39 C 169.44 169.82 168.98 170.97 169.40 171.97 Z M 169.83 172.81 L 170.15 173.63 C 170.53 174.61 171.63 175.10 172.61 174.72 C 173.59 174.34 174.08 173.23 173.70 172.25 L 173.38 171.43 C 173.00 170.45 171.90 169.97 170.92 170.35 C 169.94 170.73 169.45 171.83 169.83 172.81 Z M 170.16 173.51 L 170.49 174.55 C 170.80 175.52 171.85 176.06 172.82 175.74 C 173.80 175.43 174.33 174.38 174.02 173.41 L 173.69 172.37 C 173.37 171.40 172.33 170.86 171.35 171.18 C 170.38 171.49 169.84 172.53 170.16 173.51 Z M 170.50 174.44 L 170.69 175.19 C 170.95 176.16 171.94 176.75 172.91 176.49 C 173.88 176.24 174.46 175.25 174.21 174.28 L 174.01 173.52 C 173.76 172.55 172.77 171.97 171.80 172.22 C 170.83 172.47 170.24 173.46 170.50 174.44 Z"
      fill="black"
      fill-rule="nonzero" /></svg>