<svg xmlns="http://www.w3.org/2000/svg" width="300" height="300" viewBox="0 0 300 300">
<path d="M 109.06 140.95 L 109.50 141.81 C 109.98 142.75 111.13 143.12 112.06 142.64 C 113.00 142.16 113.36 141.01 112.88 140.08 L 112.44 139.21 C 111.96 138.28 110.82 137.91 109.88 138.39 C 108.95 138.87 108.58 140.01 109.06 140.95 Z M 109.35 141.69 L 109.73 142.63 C 110.14 143.65 111.30 144.14 112.32 143.73 C 113.34 143.32 113.83 142.16 113.42 141.14 L 113.04 140.20 C 112.63 139.18 111.47 138.69 110.45 139.10 C 109.43 139.51 108.94 140.67 109.35 141.69 Z M 109.59 142.38 L 109.84 143.37 C 110.11 144.47 111.22 145.13 112.32 144.86 C 113.42 144.58 114.08 143.47 113.81 142.37 L 113.56 141.39 C 113.29 140.29 112.17 139.62 111.08 139.90 C 109.98 140.17 109.31 141.29 109.59 142.38 Z M 109.79 143.19 L 109.94 144.20 C 110.12 145.32 111.18 146.09 112.30 145.91 C 113.43 145.73 114.19 144.68 114.02 143.55 L 113.86 142.55 C 113.68 141.43 112.63 140.66 111.50 140.84 C 110.38 141.01 109.61 142.07 109.79 143.19 Z M 109.93 144.13 L 110.05 145.13 C 110.19 146.27 111.23 147.07 112.36 146.93 C 113.49 146.79 114.30 145.76 114.16 144.63 L 114.03 143.62 C 113.89 142.49 112.86 141.68 111.73 141.82 C 110.59 141.96 109.79 143.00 109.93 144.13 Z M 110.05 145.12 L 110.16 146.09 C 110.30 147.23 111.32 148.04 112.46 147.91 C 113.59 147.78 114.40 146.75 114.27 145.61 L 114.16 144.64 C 114.03 143.51 113.00 142.69 111.87 142.83 C 110.73 142.96 109.92 143.98 110.05 145.12 Z M 110.16 146.08 L 110.26 147.03 C 110.39 148.17 111.41 148.99 112.54 148.87 C 113.68 148.74 114.50 147.72 114.38 146.59 L 114.27 145.63 C 114.15 144.50 113.13 143.67 112.00 143.80 C 110.86 143.92 110.04 144.94 110.16 146.08 Z M 110.26 147.01 L 110.36 148.01 C 110.47 149.14 111.48 149.98 112.61 149.87 C 113.75 149.76 114.58 148.75 114.47 147.61 L 114.38 146.61 C 114.27 145.48 113.26 144.64 112.12 144.75 C 110.99 144.86 110.16 145.87 110.26 147.01 Z M 110.36 147.97 L 110.44 148.96 C 110.53 150.10 111.52 150.95 112.65 150.86 C 113.79 150.77 114.64 149.78 114.55 148.64 L 114.47 147.65 C 114.38 146.52 113.39 145.67 112.26 145.76 C 111.12 145.84 110.27 146.84 110.36 147.97 Z M 110.44 148.94 L 110.51 149.93 C 110.58 151.07 111.56 151.93 112.69 151.85 C 113.82 151.78 114.68 150.80 114.61 149.67 L 114.55 148.67 C 114.47 147.54 113.50 146.68 112.36 146.75 C 111.23 146.83 110.37 147.80 110.44 148.94 Z M 110.51 149.92 L 110.57 150.94 C 110.64 152.06 111.61 152.93 112.74 152.86 C 113.87 152.79 114.73 151.82 114.66 150.70 L 114.60 149.68 C 114.53 148.55 113.57 147.69 112.44 147.76 C 111.31 147.82 110.45 148.79 110.51 149.92 Z M 110.59 150.93 L 110.65 151.94 C 110.71 153.06 111.67 153.92 112.79 153.85 C 113.91 153.79 114.77 152.82 114.71 151.70 L 114.65 150.70 C 114.58 149.58 113.62 148.72 112.50 148.79 C 111.38 148.85 110.52 149.81 110.59 150.93 Z M 110.66 151.94 L 110.72 152.94 C 110.79 154.05 111.74 154.90 112.85 154.84 C 113.96 154.77 114.81 153.82 114.75 152.71 L 114.69 151.70 C 114.62 150.59 113.67 149.74 112.56 149.81 C 111.45 149.87 110.60 150.83 110.66 151.94 Z M 110.74 152.94 L 110.80 153.95 C 110.86 155.06 111.81 155.90 112.91 155.83 C 114.01 155.77 114.85 154.83 114.79 153.72 L 114.73 152.71 C 114.67 151.61 113.72 150.76 112.62 150.83 C 111.52 150.89 110.67 151.84 110.74 152.94 Z M 110.81 153.94 L 110.86 154.92 C 110.92 156.01 111.86 156.85 112.95 156.79 C 114.04 156.74 114.88 155.80 114.82 154.71 L 114.77 153.73 C 114.71 152.64 113.78 151.80 112.69 151.86 C 111.59 151.92 110.76 152.85 110.81 153.94 Z M 110.88 154.90 L 110.93 155.91 C 110.98 157.00 111.90 157.84 112.98 157.79 C 114.06 157.74 114.90 156.82 114.85 155.74 L 114.81 154.72 C 114.76 153.64 113.84 152.80 112.76 152.85 C 111.67 152.90 110.83 153.82 110.88 154.90 Z M 110.95 155.92 L 110.99 156.90 C 111.04 157.97 111.95 158.80 113.03 158.75 C 114.10 158.70 114.93 157.79 114.88 156.72 L 114.83 155.73 C 114.78 154.66 113.87 153.83 112.80 153.88 C 111.73 153.93 110.90 154.84 110.95 155.92 Z M 111.01 156.92 L 111.07 157.84 C 111.13 158.91 112.03 159.72 113.10 159.66 C 114.16 159.60 114.97 158.69 114.91 157.63 L 114.86 156.70 C 114.80 155.64 113.89 154.83 112.83 154.89 C 111.77 154.95 110.95 155.85 111.01 156.92 Z M 111.08 157.84 L 111.14 158.90 C 111.20 159.95 112.10 160.75 113.15 160.69 C 114.21 160.64 115.01 159.73 114.95 158.68 L 114.89 157.63 C 114.83 156.58 113.93 155.77 112.88 155.83 C 111.83 155.89 111.03 156.79 111.08 157.84 Z M 111.16 158.89 L 111.21 159.86 C 111.26 160.90 112.15 161.70 113.19 161.65 C 114.24 161.60 115.04 160.71 114.99 159.66 L 114.94 158.69 C 114.88 157.65 113.99 156.85 112.95 156.90 C 111.91 156.96 111.11 157.84 111.16 158.89 Z M 111.22 159.87 L 111.28 160.89 C 111.34 161.92 112.23 162.71 113.26 162.66 C 114.30 162.60 115.09 161.71 115.03 160.67 L 114.97 159.65 C 114.91 158.62 114.02 157.83 112.99 157.89 C 111.95 157.95 111.16 158.83 111.22 159.87 Z M 111.30 160.93 L 111.38 161.95 C 111.46 162.98 112.35 163.74 113.38 163.66 C 114.41 163.58 115.17 162.69 115.09 161.66 L 115.01 160.64 C 114.93 159.61 114.04 158.84 113.01 158.92 C 111.98 159.00 111.22 159.90 111.30 160.93 Z M 111.37 162.02 L 111.49 163.04 C 111.60 164.07 112.53 164.82 113.56 164.70 C 114.59 164.58 115.33 163.65 115.22 162.62 L 115.10 161.59 C 114.99 160.56 114.06 159.82 113.03 159.94 C 111.99 160.06 111.25 160.98 111.37 162.02 Z M 111.46 163.10 L 111.59 164.08 C 111.74 165.12 112.71 165.85 113.76 165.70 C 114.80 165.56 115.53 164.59 115.38 163.54 L 115.25 162.57 C 115.10 161.52 114.13 160.79 113.08 160.94 C 112.04 161.09 111.31 162.05 111.46 163.10 Z M 111.57 164.10 L 111.66 164.68 C 111.82 165.74 112.81 166.47 113.87 166.31 C 114.93 166.15 115.66 165.15 115.50 164.09 L 115.41 163.51 C 115.25 162.45 114.26 161.72 113.20 161.89 C 112.13 162.05 111.40 163.04 111.57 164.10 Z"
      fill="black"
      fill-rule="nonzero" /><path d="M 123.09 127.27 L 122.60 128.15 C 122.07 129.09 122.41 130.27 123.35 130.79 C 124.28 131.32 125.47 130.98 125.99 130.05 L 126.48 129.16 C 127.01 128.22 126.67 127.04 125.74 126.52 C 124.80 125.99 123.62 126.33 123.09 127.27 Z M 122.42 128.48 L 122.12 129.38 C 121.78 130.42 122.34 131.53 123.38 131.87 C 124.41 132.22 125.53 131.65 125.87 130.62 L 126.17 129.72 C 126.51 128.68 125.95 127.57 124.91 127.22 C 123.88 126.88 122.76 127.44 122.42 128.48 Z M 122.00 129.86 L 121.93 130.84 C 121.85 131.95 122.68 132.90 123.78 132.98 C 124.89 133.06 125.85 132.23 125.93 131.12 L 126.00 130.14 C 126.07 129.04 125.24 128.08 124.14 128.00 C 123.03 127.92 122.07 128.75 122.00 129.86 Z M 121.89 130.98 L 121.89 132.01 C 121.89 133.13 122.80 134.04 123.92 134.04 C 125.04 134.05 125.96 133.14 125.96 132.01 L 125.96 130.98 C 125.96 129.86 125.05 128.95 123.93 128.95 C 122.81 128.95 121.89 129.86 121.89 130.98 Z M 121.87 132.01 L 121.87 133.04 C 121.87 134.17 122.79 135.09 123.92 135.09 C 125.06 135.09 125.98 134.17 125.98 133.04 L 125.98 132.01 C 125.98 130.88 125.06 129.96 123.92 129.96 C 122.79 129.96 121.87 130.88 121.87 132.01 Z M 121.85 133.04 L 121.85 134.06 C 121.85 135.20 122.78 136.13 123.93 136.13 C 125.07 136.13 126.00 135.20 126.00 134.06 L 126.00 133.04 C 126.00 131.89 125.07 130.96 123.92 130.96 C 122.78 130.96 121.85 131.89 121.85 133.04 Z M 121.84 134.08 L 121.85 135.06 C 121.86 136.21 122.81 137.14 123.96 137.12 C 125.11 137.11 126.04 136.16 126.02 135.01 L 126.01 134.03 C 126.00 132.88 125.05 131.96 123.90 131.97 C 122.75 131.98 121.83 132.93 121.84 134.08 Z M 121.84 135.12 L 121.88 136.07 C 121.93 137.23 122.90 138.13 124.06 138.08 C 125.22 138.03 126.12 137.06 126.07 135.90 L 126.03 134.95 C 125.98 133.79 125.01 132.90 123.85 132.94 C 122.69 132.99 121.80 133.97 121.84 135.12 Z M 121.88 136.11 L 121.94 137.12 C 122.01 138.28 123.00 139.16 124.16 139.09 C 125.32 139.02 126.20 138.03 126.13 136.87 L 126.07 135.86 C 126.00 134.70 125.01 133.82 123.85 133.89 C 122.69 133.96 121.81 134.95 121.88 136.11 Z M 121.94 137.12 L 121.99 138.12 C 122.06 139.28 123.06 140.16 124.22 140.09 C 125.38 140.03 126.26 139.03 126.19 137.87 L 126.14 136.87 C 126.07 135.71 125.07 134.83 123.91 134.89 C 122.75 134.96 121.87 135.96 121.94 137.12 Z M 121.99 138.11 L 122.05 139.12 C 122.12 140.28 123.11 141.16 124.27 141.10 C 125.43 141.03 126.32 140.03 126.25 138.87 L 126.20 137.87 C 126.13 136.71 125.13 135.83 123.97 135.89 C 122.81 135.96 121.93 136.95 121.99 138.11 Z M 122.05 139.13 L 122.12 140.15 C 122.19 141.31 123.19 142.19 124.35 142.11 C 125.51 142.04 126.39 141.04 126.32 139.88 L 126.25 138.86 C 126.18 137.70 125.18 136.82 124.02 136.89 C 122.86 136.97 121.98 137.97 122.05 139.13 Z M 122.11 140.16 L 122.18 141.14 C 122.27 142.31 123.27 143.18 124.44 143.10 C 125.60 143.01 126.47 142.01 126.39 140.84 L 126.32 139.86 C 126.24 138.70 125.23 137.83 124.07 137.91 C 122.91 137.99 122.03 139.00 122.11 140.16 Z M 122.18 141.14 L 122.25 142.15 C 122.33 143.32 123.34 144.19 124.51 144.11 C 125.67 144.03 126.55 143.02 126.46 141.86 L 126.39 140.85 C 126.31 139.68 125.30 138.81 124.14 138.89 C 122.97 138.97 122.10 139.98 122.18 141.14 Z M 122.25 142.13 L 122.31 143.12 C 122.38 144.28 123.38 145.17 124.55 145.10 C 125.72 145.02 126.60 144.02 126.53 142.85 L 126.47 141.87 C 126.40 140.71 125.39 139.82 124.23 139.89 C 123.06 139.96 122.17 140.97 122.25 142.13 Z M 122.30 143.10 L 122.36 144.10 C 122.42 145.26 123.42 146.16 124.59 146.09 C 125.76 146.03 126.65 145.03 126.59 143.86 L 126.53 142.87 C 126.47 141.70 125.47 140.81 124.30 140.87 C 123.13 140.94 122.24 141.93 122.30 143.10 Z M 122.35 144.09 L 122.41 145.12 C 122.47 146.29 123.47 147.19 124.65 147.13 C 125.82 147.06 126.71 146.06 126.65 144.89 L 126.59 143.86 C 126.53 142.69 125.53 141.79 124.36 141.86 C 123.19 141.92 122.29 142.92 122.35 144.09 Z M 122.41 145.13 L 122.46 146.11 C 122.53 147.29 123.54 148.18 124.71 148.11 C 125.88 148.05 126.78 147.04 126.71 145.87 L 126.65 144.88 C 126.59 143.71 125.58 142.81 124.41 142.88 C 123.23 142.95 122.34 143.95 122.41 145.13 Z M 122.46 146.12 L 122.52 147.12 C 122.59 148.29 123.60 149.19 124.78 149.12 C 125.95 149.05 126.84 148.04 126.77 146.86 L 126.71 145.86 C 126.64 144.69 125.63 143.79 124.46 143.86 C 123.28 143.94 122.39 144.94 122.46 146.12 Z M 122.52 147.12 L 122.58 148.14 C 122.65 149.31 123.67 150.21 124.84 150.13 C 126.02 150.06 126.91 149.04 126.84 147.87 L 126.78 146.86 C 126.70 145.68 125.69 144.79 124.51 144.86 C 123.34 144.93 122.44 145.95 122.52 147.12 Z M 122.58 148.14 L 122.64 149.14 C 122.72 150.31 123.73 151.21 124.91 151.13 C 126.09 151.06 126.98 150.04 126.91 148.86 L 126.84 147.87 C 126.77 146.69 125.75 145.79 124.57 145.87 C 123.40 145.94 122.50 146.96 122.58 148.14 Z M 122.64 149.13 L 122.70 150.13 C 122.77 151.31 123.79 152.21 124.97 152.13 C 126.15 152.06 127.05 151.04 126.97 149.86 L 126.91 148.86 C 126.84 147.68 125.82 146.79 124.64 146.86 C 123.46 146.94 122.56 147.95 122.64 149.13 Z M 122.70 150.12 L 122.75 151.12 C 122.82 152.31 123.84 153.21 125.02 153.14 C 126.20 153.07 127.11 152.05 127.04 150.87 L 126.98 149.87 C 126.91 148.69 125.89 147.79 124.71 147.85 C 123.53 147.92 122.63 148.94 122.70 150.12 Z M 122.75 151.11 L 122.80 152.10 C 122.87 153.28 123.88 154.19 125.06 154.13 C 126.25 154.07 127.16 153.06 127.09 151.87 L 127.04 150.88 C 126.98 149.70 125.97 148.79 124.78 148.85 C 123.60 148.91 122.69 149.93 122.75 151.11 Z M 122.80 152.09 L 122.85 153.09 C 122.91 154.27 123.92 155.18 125.10 155.13 C 126.29 155.07 127.20 154.06 127.14 152.87 L 127.09 151.88 C 127.04 150.69 126.03 149.78 124.84 149.84 C 123.66 149.90 122.74 150.91 122.80 152.09 Z M 122.85 153.09 L 122.90 154.10 C 122.96 155.28 123.97 156.20 125.16 156.14 C 126.34 156.08 127.26 155.07 127.20 153.88 L 127.15 152.87 C 127.09 151.68 126.08 150.77 124.89 150.83 C 123.70 150.89 122.79 151.90 122.85 153.09 Z M 122.90 154.10 L 122.95 155.12 C 123.02 156.31 124.03 157.22 125.22 157.15 C 126.41 157.09 127.32 156.07 127.25 154.89 L 127.20 153.87 C 127.13 152.68 126.12 151.77 124.93 151.84 C 123.74 151.90 122.83 152.92 122.90 154.10 Z M 122.95 155.12 L 123.01 156.14 C 123.08 157.33 124.09 158.23 125.28 158.17 C 126.47 158.10 127.38 157.08 127.31 155.89 L 127.25 154.88 C 127.19 153.69 126.17 152.78 124.98 152.85 C 123.79 152.92 122.88 153.94 122.95 155.12 Z M 123.01 156.14 L 123.06 157.13 C 123.13 158.32 124.15 159.22 125.34 159.16 C 126.53 159.09 127.44 158.07 127.37 156.88 L 127.31 155.89 C 127.24 154.70 126.23 153.80 125.04 153.86 C 123.85 153.93 122.94 154.95 123.01 156.14 Z M 123.06 157.12 L 123.12 158.14 C 123.18 159.32 124.20 160.24 125.39 160.17 C 126.57 160.11 127.49 159.09 127.42 157.90 L 127.37 156.89 C 127.31 155.70 126.29 154.79 125.10 154.85 C 123.91 154.92 123.00 155.93 123.06 157.12 Z M 123.12 158.13 L 123.17 159.14 C 123.23 160.33 124.24 161.24 125.43 161.18 C 126.62 161.12 127.53 160.11 127.47 158.92 L 127.42 157.91 C 127.36 156.72 126.35 155.81 125.16 155.87 C 123.97 155.93 123.06 156.94 123.12 158.13 Z M 123.17 159.13 L 123.22 160.10 C 123.27 161.29 124.28 162.20 125.47 162.15 C 126.66 162.09 127.58 161.08 127.52 159.89 L 127.47 158.92 C 127.41 157.74 126.40 156.82 125.22 156.88 C 124.03 156.94 123.11 157.95 123.17 159.13 Z M 123.22 160.10 L 123.27 161.12 C 123.33 162.30 124.34 163.22 125.53 163.16 C 126.71 163.10 127.63 162.09 127.57 160.90 L 127.52 159.89 C 127.46 158.70 126.45 157.79 125.26 157.85 C 124.07 157.91 123.16 158.92 123.22 160.10 Z M 123.27 161.12 L 123.32 162.12 C 123.39 163.31 124.40 164.22 125.58 164.16 C 126.77 164.09 127.68 163.08 127.62 161.90 L 127.57 160.89 C 127.50 159.71 126.49 158.80 125.31 158.86 C 124.12 158.92 123.21 159.94 123.27 161.12 Z M 123.33 162.13 L 123.38 163.11 C 123.44 164.30 124.46 165.20 125.64 165.14 C 126.83 165.07 127.73 164.06 127.67 162.88 L 127.62 161.89 C 127.55 160.71 126.54 159.80 125.36 159.86 C 124.17 159.93 123.26 160.94 123.33 162.13 Z M 123.39 163.11 L 123.44 164.13 C 123.51 165.31 124.52 166.22 125.70 166.15 C 126.88 166.09 127.79 165.07 127.72 163.89 L 127.67 162.87 C 127.60 161.69 126.59 160.79 125.41 160.85 C 124.22 160.92 123.32 161.93 123.39 163.11 Z M 123.45 164.14 L 123.51 165.10 C 123.58 166.28 124.59 167.18 125.77 167.11 C 126.94 167.04 127.84 166.03 127.77 164.85 L 127.72 163.89 C 127.65 162.71 126.63 161.81 125.46 161.88 C 124.28 161.95 123.38 162.96 123.45 164.14 Z M 123.51 165.11 L 123.58 166.14 C 123.65 167.31 124.67 168.20 125.84 168.13 C 127.01 168.05 127.91 167.04 127.83 165.87 L 127.77 164.84 C 127.69 163.67 126.68 162.78 125.50 162.85 C 124.33 162.93 123.44 163.94 123.51 165.11 Z M 123.59 166.15 L 123.65 167.12 C 123.73 168.29 124.74 169.17 125.91 169.09 C 127.08 169.02 127.97 168.00 127.89 166.83 L 127.82 165.86 C 127.74 164.69 126.73 163.81 125.56 163.89 C 124.39 163.96 123.51 164.98 123.59 166.15 Z M 123.66 167.13 L 123.74 168.14 C 123.82 169.30 124.83 170.18 125.99 170.09 C 127.15 170.01 128.03 169.00 127.95 167.84 L 127.88 166.83 C 127.79 165.66 126.78 164.79 125.62 164.87 C 124.46 164.95 123.58 165.96 123.66 167.13 Z M 123.75 168.16 L 123.83 169.14 C 123.93 170.29 124.94 171.15 126.10 171.06 C 127.25 170.96 128.11 169.95 128.01 168.79 L 127.93 167.81 C 127.84 166.66 126.82 165.80 125.67 165.90 C 124.51 165.99 123.65 167.01 123.75 168.16 Z M 123.86 169.24 L 123.99 170.21 C 124.14 171.35 125.19 172.15 126.33 172.00 C 127.47 171.85 128.27 170.80 128.12 169.66 L 127.99 168.69 C 127.84 167.55 126.79 166.75 125.65 166.90 C 124.51 167.05 123.71 168.10 123.86 169.24 Z M 124.07 170.50 L 124.34 171.47 C 124.66 172.56 125.80 173.20 126.89 172.89 C 127.99 172.57 128.62 171.43 128.31 170.34 L 128.04 169.37 C 127.72 168.28 126.58 167.64 125.49 167.96 C 124.39 168.27 123.76 169.41 124.07 170.50 Z M 124.47 171.76 L 124.89 172.66 C 125.36 173.68 126.57 174.13 127.60 173.65 C 128.62 173.18 129.07 171.97 128.60 170.94 L 128.18 170.04 C 127.71 169.02 126.49 168.57 125.47 169.05 C 124.45 169.52 124.00 170.74 124.47 171.76 Z M 124.96 172.76 L 125.37 173.52 C 125.90 174.51 127.13 174.87 128.12 174.34 C 129.10 173.81 129.47 172.58 128.94 171.60 L 128.52 170.84 C 127.99 169.85 126.76 169.48 125.78 170.02 C 124.79 170.55 124.43 171.78 124.96 172.76 Z"
      fill="black"
      fill-rule="nonzero" /><path d="M 126.78 154.75 L 127.45 154.02 C 128.18 153.21 128.12 151.96 127.31 151.22 C 126.51 150.48 125.25 150.54 124.52 151.35 L 123.85 152.09 C 123.11 152.90 123.17 154.15 123.98 154.89 C 124.79 155.62 126.04 155.56 126.78 154.75 Z M 126.81 154.56 L 127.67 154.18 C 128.71 153.72 129.18 152.52 128.72 151.48 C 128.27 150.44 127.06 149.97 126.02 150.43 L 125.16 150.81 C 124.12 151.27 123.65 152.47 124.11 153.51 C 124.56 154.55 125.77 155.02 126.81 154.56 Z M 126.83 154.38 L 127.84 154.38 C 128.98 154.39 129.92 153.47 129.92 152.32 C 129.93 151.18 129.01 150.25 127.86 150.24 L 126.86 150.23 C 125.72 150.23 124.78 151.15 124.78 152.29 C 124.77 153.44 125.69 154.37 126.83 154.38 Z M 127.42 154.32 L 128.42 154.54 C 129.53 154.77 130.62 154.07 130.86 152.96 C 131.10 151.85 130.39 150.75 129.28 150.51 L 128.28 150.30 C 127.17 150.06 126.08 150.77 125.84 151.88 C 125.60 152.99 126.31 154.08 127.42 154.32 Z M 128.20 154.44 L 129.13 154.76 C 130.19 155.12 131.34 154.56 131.70 153.50 C 132.06 152.44 131.50 151.29 130.44 150.93 L 129.50 150.61 C 128.45 150.25 127.30 150.81 126.94 151.87 C 126.57 152.93 127.14 154.08 128.20 154.44 Z M 129.07 154.69 L 130.00 155.05 C 131.02 155.45 132.17 154.95 132.56 153.93 C 132.96 152.91 132.46 151.77 131.44 151.37 L 130.51 151.00 C 129.49 150.61 128.34 151.11 127.95 152.13 C 127.55 153.14 128.05 154.29 129.07 154.69 Z M 130.01 155.01 L 130.94 155.38 C 131.94 155.77 133.06 155.28 133.45 154.28 C 133.84 153.29 133.35 152.16 132.36 151.77 L 131.43 151.41 C 130.43 151.02 129.31 151.51 128.92 152.50 C 128.53 153.50 129.02 154.62 130.01 155.01 Z M 130.97 155.34 L 131.92 155.71 C 132.90 156.09 134.00 155.60 134.37 154.62 C 134.75 153.64 134.26 152.55 133.28 152.17 L 132.33 151.81 C 131.35 151.43 130.26 151.92 129.88 152.90 C 129.51 153.87 129.99 154.97 130.97 155.34 Z M 131.96 155.69 L 132.90 156.03 C 133.86 156.39 134.93 155.90 135.29 154.93 C 135.65 153.97 135.15 152.90 134.19 152.55 L 133.25 152.20 C 132.28 151.84 131.21 152.33 130.86 153.30 C 130.50 154.26 130.99 155.33 131.96 155.69 Z M 132.94 156.02 L 133.88 156.34 C 134.83 156.68 135.87 156.18 136.21 155.22 C 136.54 154.27 136.04 153.23 135.09 152.89 L 134.15 152.56 C 133.20 152.23 132.16 152.73 131.82 153.69 C 131.49 154.64 131.99 155.68 132.94 156.02 Z M 133.92 156.34 L 134.87 156.65 C 135.82 156.96 136.85 156.45 137.16 155.50 C 137.47 154.55 136.95 153.53 136.00 153.21 L 135.05 152.90 C 134.10 152.59 133.08 153.11 132.77 154.05 C 132.45 155.00 132.97 156.03 133.92 156.34 Z M 134.90 156.65 L 135.85 156.95 C 136.80 157.25 137.81 156.72 138.11 155.77 C 138.41 154.82 137.88 153.81 136.93 153.51 L 135.98 153.21 C 135.03 152.91 134.02 153.44 133.72 154.39 C 133.42 155.34 133.95 156.36 134.90 156.65 Z M 135.86 156.95 L 136.18 157.05 C 137.13 157.34 138.14 156.81 138.43 155.86 C 138.73 154.91 138.19 153.90 137.24 153.61 L 136.92 153.51 C 135.97 153.22 134.96 153.75 134.67 154.70 C 134.38 155.65 134.91 156.66 135.86 156.95 Z"
      fill="black"
      fill-rule="nonzero" /><path d="M 163.37 111.07 L 162.69 110.33 C 161.95 109.52 160.68 109.46 159.86 110.21 C 159.04 110.95 158.99 112.22 159.73 113.04 L 160.41 113.77 C 161.15 114.59 162.42 114.65 163.24 113.90 C 164.06 113.16 164.11 111.89 163.37 111.07 Z M 162.40 109.99 L 161.60 109.42 C 160.66 108.77 159.37 108.99 158.71 109.93 C 158.05 110.87 158.28 112.16 159.22 112.82 L 160.02 113.38 C 160.96 114.04 162.25 113.81 162.91 112.88 C 163.57 111.94 163.34 110.64 162.40 109.99 Z M 161.05 109.12 L 160.11 108.82 C 159.01 108.47 157.82 109.08 157.47 110.19 C 157.12 111.29 157.73 112.48 158.84 112.83 L 159.77 113.13 C 160.88 113.48 162.06 112.87 162.41 111.76 C 162.77 110.65 162.16 109.47 161.05 109.12 Z M 159.75 108.74 L 158.74 108.61 C 157.59 108.45 156.54 109.26 156.38 110.41 C 156.23 111.56 157.04 112.62 158.19 112.77 L 159.20 112.91 C 160.35 113.06 161.41 112.25 161.56 111.10 C 161.71 109.95 160.91 108.89 159.75 108.74 Z M 158.56 108.60 L 157.59 108.56 C 156.44 108.50 155.46 109.40 155.41 110.55 C 155.35 111.71 156.25 112.68 157.40 112.74 L 158.37 112.78 C 159.53 112.83 160.50 111.94 160.56 110.78 C 160.61 109.63 159.71 108.65 158.56 108.60 Z M 157.51 108.57 L 156.47 108.56 C 155.32 108.56 154.39 109.48 154.38 110.63 C 154.37 111.77 155.30 112.71 156.45 112.72 L 157.49 112.72 C 158.63 112.73 159.57 111.81 159.58 110.66 C 159.58 109.51 158.66 108.58 157.51 108.57 Z M 156.45 108.58 L 155.51 108.58 C 154.37 108.59 153.45 109.52 153.46 110.66 C 153.47 111.80 154.39 112.72 155.53 112.71 L 156.47 112.70 C 157.61 112.70 158.53 111.77 158.52 110.63 C 158.51 109.49 157.58 108.57 156.45 108.58 Z M 155.44 108.60 L 154.43 108.64 C 153.30 108.68 152.41 109.63 152.46 110.77 C 152.50 111.90 153.46 112.78 154.59 112.74 L 155.60 112.70 C 156.74 112.65 157.62 111.70 157.57 110.56 C 157.53 109.43 156.57 108.55 155.44 108.60 Z M 154.31 108.66 L 153.25 108.76 C 152.13 108.87 151.31 109.87 151.42 110.99 C 151.53 112.12 152.53 112.93 153.65 112.82 L 154.71 112.72 C 155.83 112.60 156.65 111.60 156.54 110.48 C 156.43 109.36 155.43 108.54 154.31 108.66 Z M 153.12 108.79 L 152.08 108.96 C 150.98 109.14 150.23 110.18 150.41 111.29 C 150.59 112.39 151.63 113.14 152.74 112.96 L 153.78 112.79 C 154.88 112.61 155.63 111.57 155.45 110.46 C 155.27 109.36 154.23 108.61 153.12 108.79 Z M 152.00 108.98 L 151.03 109.19 C 149.93 109.41 149.23 110.48 149.46 111.57 C 149.69 112.67 150.76 113.37 151.85 113.14 L 152.82 112.94 C 153.91 112.71 154.61 111.64 154.39 110.55 C 154.16 109.46 153.09 108.76 152.00 108.98 Z M 150.95 109.21 L 149.95 109.46 C 148.88 109.73 148.22 110.82 148.49 111.89 C 148.76 112.97 149.84 113.63 150.92 113.36 L 151.92 113.11 C 153.00 112.85 153.65 111.76 153.39 110.68 C 153.12 109.60 152.03 108.95 150.95 109.21 Z M 149.88 109.50 L 148.96 109.77 C 147.90 110.08 147.29 111.18 147.60 112.24 C 147.91 113.30 149.02 113.90 150.08 113.59 L 151.00 113.33 C 152.06 113.02 152.66 111.91 152.35 110.85 C 152.04 109.79 150.93 109.19 149.88 109.50 Z M 148.93 109.79 L 148.09 110.05 C 147.05 110.37 146.46 111.48 146.78 112.53 C 147.11 113.57 148.22 114.16 149.26 113.83 L 150.10 113.58 C 151.15 113.25 151.74 112.14 151.41 111.10 C 151.09 110.05 149.98 109.46 148.93 109.79 Z M 148.07 110.06 L 147.08 110.38 C 146.04 110.71 145.47 111.83 145.81 112.86 C 146.14 113.90 147.26 114.48 148.29 114.14 L 149.28 113.82 C 150.32 113.49 150.90 112.37 150.56 111.33 C 150.23 110.29 149.11 109.72 148.07 110.06 Z M 147.04 110.39 L 146.13 110.71 C 145.10 111.07 144.55 112.20 144.91 113.23 C 145.27 114.26 146.40 114.80 147.43 114.44 L 148.34 114.13 C 149.37 113.77 149.91 112.64 149.56 111.61 C 149.20 110.58 148.07 110.03 147.04 110.39 Z M 146.10 110.72 L 145.14 111.07 C 144.11 111.44 143.58 112.58 143.96 113.60 C 144.33 114.63 145.46 115.16 146.49 114.79 L 147.45 114.43 C 148.48 114.06 149.01 112.93 148.64 111.90 C 148.26 110.87 147.13 110.34 146.10 110.72 Z M 145.12 111.07 L 144.14 111.44 C 143.11 111.82 142.59 112.96 142.97 113.99 C 143.35 115.01 144.50 115.53 145.52 115.15 L 146.51 114.78 C 147.53 114.40 148.05 113.26 147.67 112.23 C 147.29 111.21 146.15 110.69 145.12 111.07 Z M 144.11 111.44 L 143.16 111.81 C 142.14 112.21 141.63 113.36 142.02 114.38 C 142.42 115.40 143.57 115.91 144.59 115.52 L 145.54 115.15 C 146.57 114.75 147.08 113.60 146.68 112.58 C 146.29 111.56 145.14 111.05 144.11 111.44 Z M 143.10 111.83 L 142.19 112.21 C 141.18 112.64 140.70 113.80 141.13 114.82 C 141.56 115.83 142.73 116.31 143.74 115.88 L 144.65 115.50 C 145.66 115.07 146.14 113.90 145.71 112.89 C 145.28 111.87 144.11 111.40 143.10 111.83 Z M 142.08 112.25 L 141.09 112.74 C 140.10 113.24 139.70 114.44 140.19 115.43 C 140.69 116.41 141.89 116.82 142.88 116.32 L 143.86 115.83 C 144.85 115.34 145.25 114.14 144.76 113.15 C 144.27 112.16 143.07 111.76 142.08 112.25 Z M 140.77 112.94 L 140.00 113.53 C 139.12 114.20 138.94 115.45 139.61 116.34 C 140.28 117.22 141.54 117.39 142.42 116.72 L 143.20 116.13 C 144.08 115.46 144.25 114.20 143.58 113.32 C 142.91 112.44 141.65 112.27 140.77 112.94 Z M 139.23 114.74 L 139.09 115.50 C 138.88 116.59 139.60 117.64 140.69 117.85 C 141.78 118.06 142.83 117.34 143.04 116.25 L 143.18 115.50 C 143.39 114.41 142.68 113.36 141.59 113.15 C 140.50 112.94 139.44 113.65 139.23 114.74 Z M 139.37 116.97 L 139.95 117.87 C 140.55 118.81 141.81 119.07 142.74 118.47 C 143.68 117.86 143.95 116.61 143.34 115.67 L 142.76 114.78 C 142.16 113.84 140.90 113.57 139.97 114.18 C 139.03 114.78 138.76 116.04 139.37 116.97 Z M 140.05 118.04 L 140.67 118.82 C 141.37 119.70 142.66 119.84 143.53 119.14 C 144.41 118.44 144.56 117.15 143.86 116.27 L 143.24 115.50 C 142.53 114.62 141.25 114.48 140.37 115.18 C 139.49 115.88 139.35 117.16 140.05 118.04 Z M 140.62 118.77 L 141.22 119.58 C 141.89 120.49 143.18 120.68 144.09 120.00 C 145.00 119.32 145.19 118.04 144.51 117.13 L 143.91 116.32 C 143.23 115.41 141.95 115.22 141.04 115.90 C 140.13 116.58 139.94 117.86 140.62 118.77 Z M 141.12 119.45 L 141.63 120.27 C 142.23 121.24 143.51 121.53 144.47 120.92 C 145.44 120.32 145.73 119.05 145.13 118.08 L 144.61 117.26 C 144.01 116.29 142.74 116.00 141.77 116.60 C 140.80 117.21 140.51 118.48 141.12 119.45 Z M 141.54 120.13 L 142.02 121.04 C 142.55 122.06 143.79 122.45 144.81 121.92 C 145.82 121.39 146.22 120.14 145.69 119.13 L 145.21 118.22 C 144.69 117.21 143.44 116.81 142.42 117.34 C 141.41 117.87 141.02 119.12 141.54 120.13 Z M 141.96 120.94 L 142.35 121.80 C 142.83 122.84 144.06 123.31 145.10 122.83 C 146.14 122.36 146.61 121.13 146.13 120.08 L 145.74 119.23 C 145.27 118.18 144.04 117.72 143.00 118.20 C 141.95 118.67 141.49 119.90 141.96 120.94 Z M 142.31 121.71 L 142.69 122.67 C 143.11 123.74 144.32 124.26 145.39 123.83 C 146.46 123.40 146.98 122.19 146.56 121.12 L 146.18 120.17 C 145.75 119.10 144.54 118.58 143.47 119.01 C 142.40 119.43 141.88 120.64 142.31 121.71 Z M 142.65 122.57 L 142.99 123.57 C 143.36 124.66 144.55 125.24 145.64 124.87 C 146.74 124.49 147.32 123.31 146.94 122.21 L 146.60 121.22 C 146.22 120.12 145.03 119.54 143.94 119.92 C 142.85 120.29 142.27 121.48 142.65 122.57 Z M 142.95 123.49 L 143.25 124.48 C 143.58 125.59 144.75 126.22 145.86 125.89 C 146.97 125.56 147.60 124.39 147.27 123.28 L 146.97 122.29 C 146.64 121.18 145.47 120.55 144.36 120.88 C 143.25 121.21 142.62 122.38 142.95 123.49 Z M 143.23 124.42 L 143.47 125.35 C 143.77 126.48 144.92 127.15 146.05 126.85 C 147.17 126.55 147.84 125.40 147.54 124.27 L 147.30 123.34 C 147.00 122.22 145.84 121.55 144.72 121.85 C 143.60 122.15 142.93 123.30 143.23 124.42 Z M 143.45 125.29 L 143.69 126.32 C 143.95 127.45 145.09 128.16 146.22 127.90 C 147.36 127.64 148.06 126.50 147.80 125.37 L 147.56 124.34 C 147.30 123.20 146.17 122.49 145.03 122.76 C 143.90 123.02 143.19 124.15 143.45 125.29 Z M 143.67 126.23 L 143.85 127.16 C 144.06 128.30 145.17 129.05 146.31 128.84 C 147.46 128.62 148.21 127.52 147.99 126.37 L 147.82 125.45 C 147.60 124.30 146.50 123.55 145.35 123.77 C 144.21 123.98 143.45 125.09 143.67 126.23 Z M 143.83 127.09 L 143.99 128.06 C 144.16 129.21 145.24 130.00 146.40 129.82 C 147.55 129.64 148.34 128.56 148.16 127.41 L 148.01 126.44 C 147.83 125.29 146.75 124.50 145.59 124.68 C 144.44 124.86 143.65 125.94 143.83 127.09 Z M 143.98 127.99 L 144.10 128.99 C 144.24 130.15 145.29 130.97 146.44 130.83 C 147.60 130.69 148.43 129.64 148.29 128.48 L 148.17 127.48 C 148.03 126.32 146.98 125.50 145.82 125.64 C 144.66 125.78 143.84 126.83 143.98 127.99 Z M 144.09 128.92 L 144.17 129.90 C 144.27 131.06 145.30 131.92 146.46 131.82 C 147.62 131.72 148.48 130.70 148.38 129.53 L 148.30 128.55 C 148.19 127.39 147.17 126.53 146.01 126.63 C 144.85 126.73 143.99 127.76 144.09 128.92 Z M 144.17 129.88 L 144.25 130.89 C 144.34 132.06 145.36 132.93 146.52 132.83 C 147.68 132.74 148.55 131.73 148.46 130.57 L 148.38 129.55 C 148.29 128.39 147.28 127.52 146.11 127.61 C 144.95 127.70 144.08 128.72 144.17 129.88 Z M 144.25 130.91 L 144.34 131.91 C 144.43 133.07 145.46 133.94 146.62 133.84 C 147.78 133.74 148.64 132.72 148.55 131.55 L 148.46 130.55 C 148.36 129.39 147.34 128.53 146.18 128.62 C 145.01 128.72 144.15 129.75 144.25 130.91 Z M 144.33 131.89 L 144.41 132.89 C 144.50 134.05 145.51 134.92 146.68 134.83 C 147.84 134.75 148.71 133.73 148.62 132.57 L 148.55 131.57 C 148.46 130.41 147.44 129.54 146.28 129.62 C 145.12 129.71 144.24 130.73 144.33 131.89 Z M 144.41 132.84 L 144.46 133.85 C 144.52 135.02 145.51 135.91 146.68 135.85 C 147.84 135.79 148.74 134.80 148.68 133.63 L 148.63 132.62 C 148.57 131.45 147.57 130.56 146.41 130.62 C 145.24 130.68 144.35 131.67 144.41 132.84 Z M 144.46 133.82 L 144.50 134.81 C 144.54 135.97 145.52 136.88 146.69 136.84 C 147.85 136.79 148.76 135.81 148.72 134.64 L 148.68 133.66 C 148.63 132.50 147.65 131.59 146.49 131.63 C 145.32 131.68 144.41 132.66 144.46 133.82 Z M 144.50 134.80 L 144.53 135.81 C 144.58 136.98 145.56 137.89 146.72 137.84 C 147.89 137.80 148.80 136.82 148.75 135.66 L 148.72 134.65 C 148.67 133.48 147.69 132.57 146.53 132.62 C 145.36 132.66 144.45 133.64 144.50 134.80 Z M 144.53 135.78 L 144.56 136.78 C 144.59 137.94 145.55 138.87 146.72 138.84 C 147.88 138.81 148.80 137.85 148.77 136.68 L 148.75 135.68 C 148.72 134.52 147.76 133.60 146.59 133.62 C 145.43 133.65 144.51 134.62 144.53 135.78 Z M 144.56 136.74 L 144.57 137.74 C 144.57 138.90 145.52 139.84 146.68 139.83 C 147.84 139.82 148.78 138.88 148.78 137.71 L 148.77 136.72 C 148.76 135.56 147.82 134.62 146.66 134.63 C 145.49 134.63 144.56 135.58 144.56 136.74 Z M 144.57 137.73 L 144.57 138.66 C 144.57 139.82 145.51 140.76 146.67 140.76 C 147.83 140.76 148.77 139.82 148.77 138.66 L 148.77 137.73 C 148.77 136.57 147.83 135.63 146.67 135.63 C 145.51 135.63 144.57 136.57 144.57 137.73 Z M 144.58 138.66 L 144.58 139.72 C 144.58 140.87 145.52 141.81 146.67 141.81 C 147.83 141.81 148.76 140.87 148.76 139.72 L 148.76 138.66 C 148.76 137.51 147.83 136.57 146.67 136.57 C 145.52 136.57 144.58 137.51 144.58 138.66 Z M 144.59 139.72 L 144.59 140.71 C 144.59 141.86 145.52 142.80 146.67 142.80 C 147.82 142.80 148.76 141.86 148.76 140.71 L 148.76 139.72 C 148.76 138.57 147.82 137.63 146.67 137.63 C 145.52 137.63 144.59 138.57 144.59 139.72 Z M 144.59 140.71 L 144.59 141.73 C 144.59 142.88 145.52 143.81 146.67 143.81 C 147.82 143.81 148.75 142.88 148.75 141.73 L 148.75 140.71 C 148.75 139.56 147.82 138.63 146.67 138.63 C 145.52 138.63 144.59 139.56 144.59 140.71 Z M 144.60 141.73 L 144.60 142.98 C 144.60 144.12 145.52 145.05 146.67 145.05 C 147.81 145.05 148.73 144.13 148.74 142.98 L 148.74 141.74 C 148.74 140.60 147.82 139.67 146.68 139.67 C 145.53 139.66 144.61 140.59 144.60 141.73 Z M 144.85 142.11 L 144.82 142.16 C 144.34 143.17 144.76 144.37 145.77 144.86 C 146.78 145.34 147.99 144.91 148.47 143.91 L 148.49 143.86 C 148.98 142.85 148.55 141.64 147.54 141.16 C 146.54 140.67 145.33 141.10 144.85 142.11 Z M 148.58 142.97 L 148.54 141.76 C 148.51 140.69 147.62 139.86 146.55 139.89 C 145.48 139.92 144.65 140.81 144.68 141.88 L 144.71 143.09 C 144.75 144.16 145.64 145.00 146.70 144.96 C 147.77 144.93 148.61 144.04 148.58 142.97 Z M 148.46 141.80 L 148.45 140.82 C 148.44 139.80 147.60 138.98 146.58 138.99 C 145.55 139.00 144.73 139.84 144.74 140.86 L 144.75 141.84 C 144.76 142.86 145.60 143.68 146.63 143.67 C 147.65 143.66 148.48 142.82 148.46 141.80 Z M 148.42 140.84 L 148.42 139.81 C 148.42 138.81 147.60 137.99 146.59 137.99 C 145.59 138.00 144.77 138.81 144.77 139.82 L 144.78 140.85 C 144.78 141.85 145.59 142.67 146.60 142.67 C 147.61 142.67 148.42 141.85 148.42 140.84 Z M 148.40 139.82 L 148.40 138.86 C 148.40 137.87 147.59 137.06 146.60 137.06 C 145.60 137.06 144.79 137.87 144.79 138.86 L 144.79 139.82 C 144.79 140.81 145.60 141.62 146.60 141.62 C 147.59 141.62 148.40 140.81 148.40 139.82 Z M 148.40 138.86 L 148.40 137.84 C 148.40 136.85 147.59 136.04 146.60 136.04 C 145.60 136.04 144.79 136.85 144.79 137.84 L 144.79 138.86 C 144.79 139.86 145.60 140.67 146.60 140.67 C 147.59 140.67 148.40 139.86 148.40 138.86 Z M 148.40 137.84 L 148.40 136.80 C 148.40 135.80 147.59 135.00 146.60 135.00 C 145.60 135.00 144.80 135.80 144.80 136.80 L 144.80 137.84 C 144.80 138.84 145.60 139.64 146.60 139.64 C 147.59 139.64 148.40 138.84 148.40 137.84 Z M 148.40 136.80 L 148.40 135.77 C 148.40 134.77 147.59 133.97 146.60 133.97 C 145.60 133.97 144.80 134.77 144.80 135.77 L 144.80 136.80 C 144.80 137.79 145.60 138.60 146.60 138.60 C 147.59 138.60 148.40 137.79 148.40 136.80 Z M 148.40 135.77 L 148.40 134.81 C 148.40 133.81 147.59 133.01 146.60 133.01 C 145.60 133.01 144.80 133.81 144.80 134.81 L 144.80 135.77 C 144.80 136.76 145.60 137.57 146.60 137.57 C 147.59 137.57 148.40 136.76 148.40 135.77 Z M 148.40 134.81 L 148.40 133.74 C 148.40 132.75 147.59 131.94 146.60 131.94 C 145.60 131.94 144.80 132.75 144.80 133.74 L 144.80 134.81 C 144.80 135.80 145.60 136.61 146.60 136.61 C 147.59 136.61 148.40 135.80 148.40 134.81 Z M 148.40 133.74 L 148.40 132.81 C 148.40 131.82 147.59 131.01 146.60 131.01 C 145.60 131.01 144.80 131.82 144.80 132.81 L 144.80 133.74 C 144.80 134.74 145.60 135.54 146.60 135.54 C 147.59 135.54 148.40 134.74 148.40 133.74 Z M 148.40 132.81 L 148.40 131.81 C 148.40 130.82 147.59 130.01 146.60 130.01 C 145.60 130.01 144.80 130.82 144.80 131.81 L 144.80 132.81 C 144.80 133.81 145.60 134.61 146.60 134.61 C 147.59 134.61 148.40 133.81 148.40 132.81 Z M 148.40 131.81 L 148.40 130.82 C 148.40 129.83 147.59 129.02 146.60 129.02 C 145.60 129.02 144.80 129.82 144.80 130.82 L 144.80 131.81 C 144.80 132.80 145.60 133.61 146.60 133.61 C 147.59 133.61 148.40 132.81 148.40 131.81 Z M 148.40 130.84 L 148.41 129.84 C 148.42 128.85 147.63 128.03 146.63 128.02 C 145.64 128.00 144.82 128.80 144.81 129.79 L 144.80 130.80 C 144.79 131.79 145.58 132.61 146.57 132.62 C 147.57 132.63 148.38 131.84 148.40 130.84 Z M 148.41 129.88 L 148.44 128.88 C 148.48 127.89 147.70 127.05 146.71 127.02 C 145.72 126.98 144.88 127.76 144.85 128.75 L 144.81 129.75 C 144.78 130.75 145.55 131.58 146.55 131.61 C 147.54 131.65 148.37 130.87 148.41 129.88 Z M 148.44 128.90 L 148.49 127.89 C 148.53 126.90 147.76 126.06 146.77 126.02 C 145.77 125.97 144.93 126.74 144.89 127.74 L 144.85 128.74 C 144.80 129.73 145.57 130.57 146.57 130.61 C 147.56 130.66 148.40 129.89 148.44 128.90 Z M 148.49 127.90 L 148.54 126.90 C 148.58 125.91 147.82 125.07 146.82 125.02 C 145.83 124.97 144.99 125.74 144.94 126.73 L 144.89 127.73 C 144.84 128.72 145.61 129.56 146.60 129.61 C 147.59 129.66 148.44 128.89 148.49 127.90 Z M 148.53 126.94 L 148.60 126.04 C 148.67 125.04 147.92 124.18 146.93 124.11 C 145.94 124.04 145.07 124.79 145.00 125.78 L 144.94 126.69 C 144.87 127.68 145.62 128.54 146.61 128.61 C 147.60 128.68 148.46 127.94 148.53 126.94 Z M 148.60 126.08 L 148.70 125.01 C 148.80 124.02 148.07 123.14 147.08 123.04 C 146.08 122.95 145.20 123.67 145.11 124.67 L 145.00 125.74 C 144.91 126.73 145.64 127.61 146.63 127.71 C 147.62 127.80 148.50 127.07 148.60 126.08 Z M 148.71 125.04 L 148.82 124.08 C 148.93 123.08 148.21 122.18 147.21 122.07 C 146.22 121.96 145.32 122.68 145.21 123.67 L 145.10 124.64 C 144.99 125.63 145.71 126.53 146.70 126.64 C 147.70 126.75 148.60 126.04 148.71 125.04 Z M 148.82 124.12 L 148.96 123.09 C 149.10 122.09 148.39 121.17 147.39 121.03 C 146.39 120.90 145.47 121.60 145.34 122.60 L 145.20 123.63 C 145.07 124.63 145.77 125.55 146.77 125.69 C 147.77 125.82 148.69 125.12 148.82 124.12 Z M 148.97 123.16 L 149.15 122.13 C 149.32 121.12 148.65 120.17 147.65 119.99 C 146.65 119.81 145.69 120.48 145.52 121.49 L 145.33 122.53 C 145.16 123.53 145.83 124.49 146.83 124.66 C 147.83 124.84 148.79 124.17 148.97 123.16 Z M 149.13 122.29 L 149.39 121.33 C 149.66 120.34 149.08 119.31 148.08 119.04 C 147.09 118.77 146.06 119.36 145.79 120.35 L 145.53 121.32 C 145.26 122.31 145.85 123.34 146.84 123.61 C 147.84 123.88 148.86 123.29 149.13 122.29 Z M 149.32 121.63 L 149.72 120.76 C 150.15 119.81 149.74 118.68 148.79 118.25 C 147.83 117.81 146.71 118.23 146.27 119.18 L 145.87 120.05 C 145.44 121.00 145.85 122.13 146.80 122.56 C 147.75 123.00 148.88 122.58 149.32 121.63 Z M 149.51 121.18 L 150.15 120.38 C 150.81 119.55 150.68 118.32 149.84 117.66 C 149.00 116.99 147.78 117.12 147.11 117.96 L 146.48 118.76 C 145.81 119.60 145.95 120.82 146.78 121.49 C 147.62 122.15 148.85 122.02 149.51 121.18 Z M 149.64 120.90 L 150.43 120.43 C 151.38 119.87 151.70 118.65 151.14 117.70 C 150.58 116.75 149.36 116.43 148.41 116.99 L 147.62 117.45 C 146.66 118.01 146.35 119.23 146.90 120.19 C 147.46 121.14 148.69 121.46 149.64 120.90 Z M 149.58 120.74 L 150.52 120.66 C 151.65 120.57 152.48 119.59 152.39 118.47 C 152.30 117.35 151.32 116.51 150.20 116.60 L 149.26 116.68 C 148.14 116.77 147.30 117.75 147.39 118.87 C 147.48 119.99 148.46 120.83 149.58 120.74 Z M 149.94 120.65 L 150.94 120.86 C 152.06 121.09 153.15 120.37 153.38 119.26 C 153.61 118.15 152.90 117.06 151.78 116.83 L 150.78 116.62 C 149.67 116.39 148.58 117.10 148.35 118.21 C 148.11 119.33 148.83 120.42 149.94 120.65 Z M 150.69 120.80 L 151.57 121.10 C 152.65 121.47 153.82 120.89 154.19 119.81 C 154.56 118.73 153.99 117.55 152.91 117.18 L 152.03 116.88 C 150.95 116.51 149.78 117.09 149.40 118.17 C 149.03 119.25 149.61 120.43 150.69 120.80 Z M 151.44 121.06 L 152.41 121.46 C 153.47 121.90 154.68 121.40 155.12 120.34 C 155.56 119.28 155.06 118.07 154.00 117.63 L 153.03 117.23 C 151.97 116.79 150.76 117.29 150.32 118.35 C 149.88 119.40 150.38 120.62 151.44 121.06 Z M 152.33 121.43 L 153.33 121.89 C 154.37 122.37 155.61 121.92 156.09 120.88 C 156.57 119.84 156.12 118.61 155.08 118.13 L 154.08 117.66 C 153.04 117.18 151.80 117.63 151.32 118.67 C 150.84 119.71 151.29 120.94 152.33 121.43 Z M 153.29 121.87 L 154.24 122.34 C 155.27 122.85 156.52 122.43 157.02 121.40 C 157.53 120.37 157.11 119.12 156.08 118.62 L 155.13 118.15 C 154.10 117.64 152.85 118.06 152.34 119.09 C 151.84 120.12 152.26 121.36 153.29 121.87 Z M 154.22 122.33 L 155.13 122.80 C 156.16 123.32 157.41 122.91 157.93 121.89 C 158.45 120.87 158.04 119.62 157.02 119.10 L 156.10 118.63 C 155.08 118.11 153.83 118.51 153.31 119.53 C 152.79 120.56 153.20 121.81 154.22 122.33 Z M 155.12 122.79 L 155.93 123.21 C 156.95 123.74 158.21 123.34 158.73 122.32 C 159.26 121.31 158.87 120.05 157.85 119.52 L 157.04 119.10 C 156.02 118.57 154.76 118.97 154.24 119.99 C 153.71 121.01 154.10 122.26 155.12 122.79 Z M 155.93 123.21 L 156.93 123.73 C 157.95 124.26 159.20 123.87 159.73 122.85 C 160.26 121.84 159.87 120.58 158.85 120.05 L 157.85 119.53 C 156.84 119.00 155.58 119.39 155.05 120.41 C 154.52 121.42 154.92 122.68 155.93 123.21 Z M 156.91 123.71 L 157.67 124.12 C 158.67 124.67 159.93 124.30 160.47 123.29 C 161.02 122.29 160.65 121.04 159.64 120.49 L 158.88 120.08 C 157.88 119.53 156.62 119.90 156.08 120.90 C 155.53 121.91 155.90 123.16 156.91 123.71 Z M 157.60 124.08 L 158.43 124.57 C 159.41 125.15 160.68 124.83 161.26 123.85 C 161.84 122.87 161.52 121.61 160.54 121.03 L 159.71 120.53 C 158.73 119.95 157.47 120.28 156.88 121.25 C 156.30 122.23 156.62 123.50 157.60 124.08 Z M 158.41 124.55 L 159.27 125.08 C 160.23 125.68 161.50 125.38 162.10 124.41 C 162.69 123.44 162.39 122.18 161.43 121.58 L 160.57 121.05 C 159.60 120.45 158.33 120.75 157.74 121.72 C 157.14 122.69 157.44 123.95 158.41 124.55 Z M 159.26 125.07 L 160.12 125.60 C 161.08 126.20 162.35 125.90 162.94 124.94 C 163.54 123.98 163.24 122.71 162.28 122.11 L 161.43 121.59 C 160.46 120.99 159.20 121.29 158.60 122.25 C 158.00 123.21 158.30 124.48 159.26 125.07 Z M 160.08 125.57 L 160.92 126.13 C 161.86 126.75 163.13 126.48 163.76 125.54 C 164.38 124.59 164.11 123.32 163.17 122.70 L 162.32 122.15 C 161.38 121.53 160.11 121.79 159.49 122.73 C 158.87 123.68 159.13 124.95 160.08 125.57 Z M 160.84 126.07 L 161.64 126.65 C 162.55 127.32 163.83 127.12 164.50 126.20 C 165.16 125.29 164.96 124.01 164.05 123.34 L 163.25 122.76 C 162.34 122.09 161.06 122.29 160.39 123.21 C 159.72 124.12 159.92 125.40 160.84 126.07 Z M 161.54 126.57 L 162.31 127.21 C 163.18 127.92 164.47 127.80 165.19 126.93 C 165.90 126.06 165.78 124.78 164.91 124.06 L 164.15 123.42 C 163.28 122.70 161.99 122.83 161.27 123.70 C 160.55 124.57 160.67 125.85 161.54 126.57 Z M 162.24 127.14 L 162.98 127.81 C 163.82 128.57 165.10 128.51 165.86 127.67 C 166.62 126.84 166.56 125.55 165.72 124.79 L 164.98 124.12 C 164.15 123.37 162.86 123.43 162.10 124.26 C 161.35 125.10 161.41 126.38 162.24 127.14 Z M 162.94 127.76 L 163.65 128.46 C 164.46 129.24 165.75 129.22 166.53 128.42 C 167.31 127.61 167.29 126.32 166.49 125.54 L 165.77 124.84 C 164.96 124.06 163.68 124.08 162.89 124.89 C 162.11 125.69 162.13 126.98 162.94 127.76 Z M 163.60 128.40 L 164.29 129.13 C 165.06 129.94 166.34 129.97 167.16 129.20 C 167.97 128.43 168.00 127.14 167.23 126.33 L 166.54 125.60 C 165.77 124.79 164.49 124.76 163.67 125.53 C 162.86 126.30 162.83 127.59 163.60 128.40 Z M 164.23 129.06 L 164.89 129.81 C 165.62 130.65 166.90 130.74 167.75 130.01 C 168.59 129.27 168.68 127.99 167.94 127.15 L 167.29 126.40 C 166.55 125.55 165.27 125.47 164.43 126.20 C 163.59 126.94 163.50 128.22 164.23 129.06 Z M 164.84 129.75 L 165.46 130.52 C 166.16 131.39 167.44 131.53 168.31 130.83 C 169.18 130.13 169.31 128.85 168.61 127.98 L 167.99 127.21 C 167.29 126.34 166.02 126.20 165.15 126.90 C 164.27 127.60 164.14 128.88 164.84 129.75 Z M 165.41 130.45 L 165.98 131.23 C 166.64 132.13 167.91 132.32 168.81 131.66 C 169.71 131.00 169.90 129.73 169.24 128.83 L 168.67 128.05 C 168.01 127.15 166.74 126.96 165.84 127.62 C 164.94 128.28 164.74 129.55 165.41 130.45 Z M 165.90 131.11 L 166.43 131.95 C 167.02 132.89 168.27 133.17 169.22 132.58 C 170.16 131.98 170.45 130.73 169.85 129.78 L 169.32 128.95 C 168.72 128.00 167.47 127.72 166.53 128.32 C 165.58 128.91 165.30 130.16 165.90 131.11 Z M 166.34 131.79 L 166.80 132.69 C 167.31 133.68 168.53 134.07 169.52 133.56 C 170.52 133.05 170.91 131.83 170.40 130.84 L 169.94 129.94 C 169.43 128.95 168.21 128.55 167.21 129.06 C 166.22 129.57 165.83 130.79 166.34 131.79 Z M 166.73 132.54 L 167.11 133.46 C 167.54 134.49 168.72 134.98 169.76 134.55 C 170.79 134.13 171.28 132.94 170.85 131.91 L 170.47 130.99 C 170.04 129.95 168.85 129.46 167.82 129.89 C 166.79 130.32 166.30 131.50 166.73 132.54 Z M 167.05 133.30 L 167.37 134.29 C 167.70 135.36 168.84 135.95 169.91 135.61 C 170.97 135.27 171.56 134.14 171.23 133.07 L 170.91 132.07 C 170.57 131.01 169.44 130.42 168.37 130.76 C 167.30 131.09 166.71 132.23 167.05 133.30 Z M 167.32 134.10 L 167.52 135.07 C 167.76 136.16 168.83 136.86 169.92 136.63 C 171.02 136.40 171.71 135.32 171.48 134.23 L 171.28 133.26 C 171.04 132.17 169.97 131.47 168.88 131.70 C 167.78 131.93 167.08 133.01 167.32 134.10 Z M 167.50 134.91 L 167.63 135.91 C 167.77 137.01 168.79 137.79 169.90 137.65 C 171.01 137.50 171.79 136.48 171.64 135.38 L 171.51 134.38 C 171.36 133.28 170.35 132.50 169.24 132.64 C 168.13 132.79 167.35 133.81 167.50 134.91 Z M 167.62 135.80 L 167.70 136.82 C 167.79 137.93 168.76 138.76 169.87 138.67 C 170.99 138.58 171.82 137.61 171.73 136.50 L 171.65 135.48 C 171.56 134.37 170.59 133.54 169.47 133.63 C 168.36 133.71 167.53 134.69 167.62 135.80 Z M 167.70 136.74 L 167.74 137.77 C 167.79 138.88 168.73 139.74 169.85 139.70 C 170.96 139.65 171.82 138.71 171.77 137.59 L 171.73 136.57 C 171.68 135.46 170.74 134.59 169.63 134.64 C 168.51 134.69 167.65 135.63 167.70 136.74 Z M 167.75 137.70 L 167.76 138.68 C 167.77 139.79 168.67 140.69 169.78 140.68 C 170.89 140.67 171.79 139.76 171.78 138.65 L 171.77 137.66 C 171.76 136.56 170.85 135.66 169.74 135.67 C 168.63 135.68 167.74 136.59 167.75 137.70 Z M 167.77 138.59 L 167.73 139.63 C 167.69 140.74 168.55 141.66 169.65 141.71 C 170.76 141.75 171.68 140.88 171.73 139.78 L 171.76 138.74 C 171.81 137.64 170.94 136.71 169.84 136.67 C 168.74 136.63 167.81 137.49 167.77 138.59 Z M 167.76 139.49 L 167.65 140.46 C 167.52 141.55 168.31 142.53 169.40 142.66 C 170.48 142.78 171.47 142.00 171.59 140.91 L 171.70 139.93 C 171.82 138.84 171.04 137.86 169.95 137.74 C 168.86 137.61 167.88 138.40 167.76 139.49 Z M 167.71 140.23 L 167.48 141.18 C 167.23 142.24 167.88 143.29 168.94 143.54 C 170.00 143.79 171.05 143.14 171.30 142.09 L 171.53 141.14 C 171.78 140.08 171.13 139.03 170.07 138.78 C 169.02 138.53 167.96 139.18 167.71 140.23 Z M 167.60 140.89 L 167.22 141.80 C 166.81 142.79 167.28 143.92 168.26 144.33 C 169.25 144.75 170.39 144.28 170.80 143.29 L 171.18 142.38 C 171.60 141.39 171.13 140.26 170.14 139.84 C 169.15 139.43 168.02 139.90 167.60 140.89 Z M 167.42 141.48 L 166.85 142.34 C 166.27 143.21 166.50 144.40 167.38 144.99 C 168.25 145.57 169.44 145.34 170.03 144.46 L 170.60 143.61 C 171.19 142.73 170.95 141.54 170.07 140.96 C 169.20 140.37 168.01 140.61 167.42 141.48 Z M 167.35 141.87 L 166.58 142.42 C 165.74 143.03 165.55 144.20 166.15 145.04 C 166.75 145.88 167.93 146.08 168.77 145.47 L 169.53 144.92 C 170.38 144.32 170.57 143.15 169.97 142.31 C 169.36 141.46 168.19 141.27 167.35 141.87 Z M 167.62 142.11 L 166.64 142.14 C 165.63 142.17 164.83 143.02 164.86 144.04 C 164.90 145.06 165.75 145.85 166.76 145.82 L 167.74 145.79 C 168.75 145.75 169.55 144.90 169.51 143.89 C 169.48 142.87 168.63 142.08 167.62 142.11 Z M 167.00 142.19 L 166.60 142.13 C 165.61 141.96 164.68 142.63 164.52 143.62 C 164.35 144.61 165.02 145.54 166.01 145.70 L 166.41 145.77 C 167.39 145.93 168.33 145.26 168.49 144.28 C 168.65 143.29 167.98 142.36 167.00 142.19 Z"
      fill="black"
      fill-rule="nonzero" /><path d="M 148.67 132.66 L 149.29 133.47 C 149.96 134.36 151.24 134.53 152.13 133.86 C 153.02 133.18 153.19 131.91 152.52 131.01 L 151.90 130.21 C 151.22 129.32 149.95 129.14 149.06 129.82 C 148.17 130.50 148.00 131.77 148.67 132.66 Z M 149.51 133.82 L 150.24 134.46 C 151.11 135.22 152.44 135.14 153.20 134.27 C 153.97 133.39 153.88 132.07 153.01 131.30 L 152.29 130.66 C 151.42 129.90 150.09 129.98 149.32 130.86 C 148.56 131.73 148.64 133.05 149.51 133.82 Z M 150.78 134.83 L 151.59 135.18 C 152.67 135.64 153.92 135.14 154.39 134.06 C 154.85 132.98 154.35 131.73 153.27 131.27 L 152.46 130.92 C 151.38 130.46 150.13 130.96 149.67 132.04 C 149.20 133.12 149.70 134.37 150.78 134.83 Z M 151.97 135.29 L 153.03 135.53 C 154.17 135.78 155.31 135.07 155.56 133.92 C 155.82 132.78 155.10 131.65 153.96 131.40 L 152.89 131.16 C 151.75 130.90 150.62 131.62 150.36 132.76 C 150.11 133.90 150.83 135.03 151.97 135.29 Z M 153.15 135.54 L 154.07 135.69 C 155.22 135.88 156.30 135.10 156.49 133.95 C 156.68 132.81 155.90 131.73 154.75 131.54 L 153.84 131.39 C 152.69 131.20 151.61 131.98 151.42 133.12 C 151.23 134.27 152.01 135.35 153.15 135.54 Z M 154.12 135.68 L 155.08 135.81 C 156.22 135.98 157.27 135.19 157.43 134.05 C 157.60 132.91 156.81 131.85 155.67 131.69 L 154.71 131.55 C 153.57 131.39 152.51 132.18 152.35 133.32 C 152.19 134.46 152.98 135.51 154.12 135.68 Z M 155.11 135.80 L 156.16 135.93 C 157.29 136.08 158.33 135.27 158.47 134.14 C 158.61 133.01 157.81 131.98 156.68 131.83 L 155.63 131.70 C 154.50 131.56 153.46 132.36 153.32 133.49 C 153.18 134.62 153.98 135.66 155.11 135.80 Z M 156.19 135.92 L 157.29 136.04 C 158.41 136.16 159.42 135.35 159.55 134.23 C 159.67 133.10 158.86 132.09 157.74 131.97 L 156.64 131.85 C 155.52 131.72 154.51 132.53 154.38 133.66 C 154.26 134.78 155.07 135.79 156.19 135.92 Z M 157.32 136.02 L 158.36 136.12 C 159.48 136.23 160.47 135.41 160.57 134.30 C 160.68 133.19 159.87 132.20 158.75 132.09 L 157.71 131.99 C 156.59 131.88 155.60 132.70 155.50 133.81 C 155.39 134.92 156.20 135.91 157.32 136.02 Z M 158.39 136.10 L 159.42 136.18 C 160.52 136.28 161.49 135.46 161.58 134.36 C 161.68 133.26 160.86 132.30 159.76 132.20 L 158.73 132.11 C 157.63 132.02 156.66 132.83 156.57 133.93 C 156.47 135.03 157.29 136.00 158.39 136.10 Z M 159.44 136.16 L 160.41 136.24 C 161.50 136.32 162.45 135.51 162.53 134.42 C 162.62 133.34 161.81 132.39 160.72 132.30 L 159.74 132.23 C 158.66 132.14 157.71 132.95 157.62 134.04 C 157.54 135.13 158.35 136.08 159.44 136.16 Z M 160.43 136.21 L 161.41 136.28 C 162.48 136.35 163.41 135.55 163.49 134.48 C 163.56 133.40 162.75 132.47 161.68 132.40 L 160.70 132.33 C 159.63 132.25 158.70 133.06 158.63 134.13 C 158.55 135.20 159.36 136.13 160.43 136.21 Z M 161.42 136.24 L 162.49 136.31 C 163.54 136.38 164.45 135.59 164.52 134.54 C 164.60 133.49 163.80 132.58 162.75 132.51 L 161.67 132.44 C 160.62 132.37 159.71 133.16 159.64 134.21 C 159.57 135.26 160.37 136.17 161.42 136.24 Z M 162.47 136.27 L 163.39 136.34 C 164.41 136.42 165.31 135.66 165.40 134.64 C 165.48 133.61 164.72 132.71 163.69 132.63 L 162.77 132.56 C 161.75 132.47 160.85 133.24 160.77 134.26 C 160.68 135.29 161.45 136.18 162.47 136.27 Z M 163.32 136.32 L 164.26 136.43 C 165.27 136.55 166.19 135.83 166.31 134.82 C 166.44 133.81 165.72 132.89 164.70 132.77 L 163.76 132.66 C 162.75 132.53 161.83 133.25 161.71 134.27 C 161.59 135.28 162.31 136.19 163.32 136.32 Z M 164.18 136.45 L 165.17 136.61 C 166.19 136.77 167.15 136.08 167.32 135.06 C 167.48 134.04 166.79 133.08 165.77 132.91 L 164.78 132.75 C 163.76 132.59 162.80 133.28 162.64 134.30 C 162.47 135.32 163.16 136.28 164.18 136.45 Z M 165.13 136.64 L 165.78 136.76 C 166.82 136.95 167.81 136.25 168.00 135.21 C 168.19 134.17 167.49 133.18 166.45 132.99 L 165.81 132.88 C 164.77 132.69 163.77 133.38 163.59 134.42 C 163.40 135.46 164.09 136.46 165.13 136.64 Z"
      fill="black"
      fill-rule="nonzero" /><path d="M 148.62 140.65 L 148.71 141.66 C 148.81 142.77 149.78 143.59 150.89 143.49 C 152.00 143.40 152.82 142.42 152.72 141.31 L 152.63 140.30 C 152.53 139.19 151.56 138.37 150.45 138.47 C 149.34 138.57 148.52 139.54 148.62 140.65 Z M 149.02 142.78 L 149.56 143.48 C 150.27 144.42 151.61 144.60 152.55 143.88 C 153.48 143.16 153.66 141.82 152.94 140.89 L 152.41 140.19 C 151.69 139.25 150.35 139.08 149.42 139.79 C 148.48 140.51 148.30 141.85 149.02 142.78 Z M 150.45 144.21 L 151.38 144.58 C 152.50 145.02 153.77 144.47 154.21 143.35 C 154.65 142.24 154.10 140.97 152.98 140.53 L 152.05 140.16 C 150.93 139.72 149.67 140.27 149.22 141.39 C 148.78 142.50 149.33 143.77 150.45 144.21 Z M 151.74 144.69 L 152.74 144.90 C 153.92 145.14 155.08 144.39 155.32 143.21 C 155.57 142.03 154.81 140.88 153.63 140.63 L 152.63 140.42 C 151.45 140.18 150.30 140.93 150.05 142.11 C 149.80 143.29 150.56 144.44 151.74 144.69 Z M 152.89 144.92 L 153.87 145.05 C 155.06 145.22 156.16 144.38 156.32 143.19 C 156.48 142.00 155.65 140.90 154.46 140.74 L 153.48 140.61 C 152.29 140.44 151.19 141.28 151.03 142.47 C 150.87 143.66 151.70 144.76 152.89 144.92 Z M 153.97 145.06 L 155.01 145.16 C 156.21 145.26 157.26 144.38 157.37 143.18 C 157.48 141.99 156.59 140.93 155.40 140.83 L 154.36 140.73 C 153.16 140.63 152.11 141.51 152.00 142.71 C 151.89 143.90 152.78 144.96 153.97 145.06 Z M 155.08 145.15 L 156.11 145.21 C 157.30 145.28 158.32 144.37 158.40 143.18 C 158.47 141.99 157.56 140.97 156.37 140.90 L 155.33 140.83 C 154.14 140.76 153.12 141.67 153.05 142.86 C 152.98 144.05 153.88 145.08 155.08 145.15 Z M 156.15 145.19 L 157.14 145.23 C 158.32 145.28 159.32 144.36 159.37 143.18 C 159.42 142.00 158.50 141.00 157.31 140.95 L 156.33 140.91 C 155.14 140.86 154.15 141.78 154.10 142.96 C 154.05 144.15 154.97 145.14 156.15 145.19 Z M 157.18 145.21 L 158.15 145.24 C 159.32 145.26 160.29 144.34 160.32 143.17 C 160.35 142.00 159.42 141.02 158.25 141.00 L 157.28 140.97 C 156.10 140.95 155.13 141.87 155.11 143.04 C 155.08 144.21 156.01 145.19 157.18 145.21 Z M 158.19 145.21 L 159.16 145.21 C 160.32 145.22 161.26 144.29 161.26 143.13 C 161.27 141.98 160.34 141.04 159.18 141.03 L 158.21 141.02 C 157.06 141.02 156.11 141.95 156.11 143.10 C 156.10 144.26 157.03 145.20 158.19 145.21 Z M 159.17 145.19 L 160.14 145.19 C 161.28 145.19 162.20 144.26 162.20 143.12 C 162.20 141.98 161.28 141.05 160.14 141.05 L 159.17 141.05 C 158.03 141.05 157.10 141.98 157.10 143.12 C 157.10 144.26 158.03 145.19 159.17 145.19 Z M 160.14 145.17 L 161.15 145.17 C 162.28 145.17 163.20 144.25 163.20 143.12 C 163.20 141.99 162.28 141.08 161.15 141.08 L 160.14 141.08 C 159.01 141.08 158.09 141.99 158.09 143.12 C 158.09 144.25 159.01 145.17 160.14 145.17 Z M 161.15 145.15 L 162.20 145.15 C 163.32 145.15 164.22 144.24 164.22 143.12 C 164.22 142.00 163.32 141.10 162.20 141.10 L 161.15 141.10 C 160.03 141.10 159.13 142.00 159.13 143.12 C 159.13 144.24 160.03 145.15 161.15 145.15 Z M 162.20 145.12 L 163.27 145.12 C 164.37 145.12 165.27 144.23 165.27 143.12 C 165.27 142.02 164.37 141.12 163.27 141.12 L 162.20 141.12 C 161.09 141.12 160.20 142.02 160.20 143.12 C 160.20 144.23 161.09 145.12 162.20 145.12 Z M 163.27 145.09 L 164.25 145.09 C 165.34 145.09 166.22 144.21 166.22 143.12 C 166.22 142.04 165.34 141.16 164.25 141.16 L 163.27 141.16 C 162.18 141.16 161.30 142.04 161.30 143.12 C 161.30 144.21 162.18 145.09 163.27 145.09 Z M 164.25 145.05 L 165.24 145.05 C 166.30 145.05 167.17 144.19 167.17 143.12 C 167.17 142.06 166.30 141.19 165.24 141.19 L 164.26 141.19 C 163.19 141.19 162.33 142.06 162.33 143.12 C 162.33 144.19 163.19 145.05 164.25 145.05 Z M 165.19 145.01 L 166.20 145.04 C 167.24 145.07 168.11 144.24 168.14 143.20 C 168.16 142.15 167.34 141.28 166.29 141.26 L 165.29 141.23 C 164.24 141.20 163.37 142.03 163.35 143.07 C 163.32 144.12 164.15 144.99 165.19 145.01 Z M 166.02 144.99 L 166.97 145.11 C 167.99 145.24 168.92 144.51 169.05 143.49 C 169.17 142.47 168.45 141.54 167.43 141.42 L 166.47 141.30 C 165.45 141.18 164.52 141.90 164.40 142.92 C 164.27 143.94 165.00 144.87 166.02 144.99 Z M 166.77 145.05 L 167.73 145.28 C 168.72 145.52 169.71 144.92 169.95 143.93 C 170.19 142.95 169.59 141.96 168.60 141.72 L 167.63 141.48 C 166.65 141.24 165.66 141.85 165.42 142.83 C 165.18 143.82 165.78 144.81 166.77 145.05 Z M 167.67 145.25 L 167.98 145.34 C 168.95 145.62 169.96 145.05 170.23 144.09 C 170.51 143.12 169.94 142.11 168.98 141.84 L 168.66 141.75 C 167.70 141.47 166.69 142.04 166.42 143.00 C 166.14 143.97 166.70 144.98 167.67 145.25 Z"
      fill="black"
      fill-rule="nonzero" /><path d="M 148.02 154.52 L 148.87 154.96 C 149.87 155.48 151.11 155.09 151.63 154.09 C 152.15 153.09 151.77 151.85 150.76 151.33 L 149.92 150.89 C 148.92 150.36 147.68 150.75 147.16 151.75 C 146.63 152.75 147.02 153.99 148.02 154.52 Z M 149.09 155.16 L 150.07 155.52 C 151.19 155.92 152.42 155.34 152.82 154.22 C 153.22 153.10 152.64 151.87 151.52 151.47 L 150.54 151.12 C 149.42 150.72 148.19 151.30 147.79 152.41 C 147.39 153.53 147.97 154.76 149.09 155.16 Z M 150.41 155.66 L 151.33 155.83 C 152.53 156.05 153.68 155.25 153.89 154.05 C 154.11 152.86 153.32 151.71 152.12 151.49 L 151.19 151.33 C 149.99 151.11 148.85 151.90 148.63 153.10 C 148.41 154.30 149.21 155.44 150.41 155.66 Z M 151.53 155.86 L 152.55 155.95 C 153.76 156.06 154.83 155.16 154.94 153.95 C 155.05 152.73 154.15 151.66 152.94 151.56 L 151.92 151.47 C 150.71 151.36 149.64 152.25 149.53 153.47 C 149.42 154.68 150.32 155.75 151.53 155.86 Z M 152.66 155.95 L 153.72 156.00 C 154.93 156.05 155.96 155.10 156.01 153.89 C 156.06 152.67 155.12 151.65 153.90 151.60 L 152.84 151.55 C 151.62 151.50 150.60 152.45 150.55 153.66 C 150.50 154.88 151.44 155.90 152.66 155.95 Z M 153.77 155.99 L 154.82 156.01 C 156.03 156.03 157.03 155.06 157.05 153.85 C 157.07 152.64 156.11 151.64 154.90 151.62 L 153.85 151.60 C 152.64 151.58 151.64 152.55 151.62 153.76 C 151.60 154.97 152.56 155.97 153.77 155.99 Z M 154.85 155.99 L 155.80 156.00 C 157.00 156.00 157.98 155.03 157.98 153.82 C 157.99 152.62 157.02 151.64 155.81 151.64 L 154.87 151.63 C 153.66 151.63 152.68 152.60 152.68 153.81 C 152.68 155.01 153.65 155.99 154.85 155.99 Z M 155.81 155.98 L 156.77 155.98 C 157.97 155.98 158.93 155.01 158.93 153.82 C 158.93 152.62 157.97 151.66 156.77 151.66 L 155.81 151.66 C 154.61 151.66 153.65 152.62 153.65 153.82 C 153.65 155.01 154.61 155.98 155.81 155.98 Z M 156.77 155.95 L 157.76 155.95 C 158.94 155.95 159.89 155.00 159.89 153.82 C 159.89 152.64 158.94 151.68 157.76 151.68 L 156.77 151.68 C 155.59 151.68 154.64 152.64 154.64 153.82 C 154.64 155.00 155.59 155.95 156.77 155.95 Z M 157.76 155.93 L 158.71 155.93 C 159.87 155.93 160.82 154.98 160.82 153.82 C 160.82 152.65 159.87 151.70 158.71 151.70 L 157.76 151.70 C 156.59 151.70 155.64 152.65 155.64 153.82 C 155.64 154.98 156.59 155.93 157.76 155.93 Z M 158.71 155.92 L 159.72 155.92 C 160.88 155.92 161.82 154.98 161.82 153.82 C 161.82 152.66 160.88 151.72 159.72 151.72 L 158.71 151.72 C 157.55 151.72 156.61 152.66 156.61 153.82 C 156.61 154.98 157.55 155.92 158.71 155.92 Z M 159.72 155.90 L 160.78 155.90 C 161.94 155.90 162.87 154.97 162.87 153.82 C 162.87 152.67 161.94 151.73 160.78 151.73 L 159.72 151.73 C 158.57 151.73 157.64 152.67 157.64 153.82 C 157.64 154.97 158.57 155.90 159.72 155.90 Z M 160.78 155.88 L 161.81 155.88 C 162.95 155.88 163.87 154.95 163.87 153.82 C 163.87 152.68 162.95 151.76 161.81 151.76 L 160.78 151.76 C 159.65 151.76 158.72 152.68 158.72 153.82 C 158.72 154.95 159.65 155.88 160.78 155.88 Z M 161.81 155.84 L 162.80 155.84 C 163.92 155.84 164.83 154.94 164.83 153.82 C 164.83 152.70 163.92 151.79 162.80 151.79 L 161.81 151.79 C 160.69 151.79 159.79 152.70 159.79 153.82 C 159.79 154.94 160.69 155.84 161.81 155.84 Z M 162.80 155.81 L 163.82 155.81 C 164.91 155.81 165.81 154.92 165.81 153.82 C 165.81 152.72 164.91 151.83 163.82 151.83 L 162.80 151.83 C 161.71 151.83 160.81 152.72 160.81 153.82 C 160.81 154.92 161.71 155.81 162.80 155.81 Z M 163.81 155.77 L 164.85 155.77 C 165.93 155.78 166.81 154.91 166.81 153.83 C 166.81 152.75 165.94 151.87 164.87 151.87 L 163.82 151.86 C 162.74 151.86 161.87 152.73 161.86 153.81 C 161.86 154.89 162.73 155.77 163.81 155.77 Z M 164.82 155.74 L 165.75 155.75 C 166.80 155.77 167.68 154.93 167.70 153.87 C 167.72 152.82 166.88 151.94 165.82 151.92 L 164.89 151.91 C 163.84 151.89 162.96 152.73 162.94 153.78 C 162.92 154.84 163.76 155.72 164.82 155.74 Z M 165.59 155.70 L 166.65 155.82 C 167.68 155.93 168.60 155.18 168.71 154.15 C 168.82 153.12 168.07 152.20 167.04 152.09 L 165.98 151.97 C 164.95 151.86 164.03 152.61 163.92 153.64 C 163.81 154.67 164.56 155.59 165.59 155.70 Z M 165.89 155.52 L 166.65 155.98 C 167.52 156.51 168.65 156.23 169.17 155.36 C 169.70 154.49 169.42 153.36 168.55 152.84 L 167.80 152.38 C 166.93 151.85 165.80 152.13 165.27 153.00 C 164.75 153.87 165.02 155.00 165.89 155.52 Z M 166.07 155.39 L 166.62 156.25 C 167.16 157.09 168.29 157.33 169.13 156.79 C 169.97 156.25 170.22 155.13 169.68 154.29 L 169.13 153.43 C 168.59 152.59 167.46 152.34 166.62 152.88 C 165.78 153.42 165.53 154.55 166.07 155.39 Z"
      fill="black"
      fill-rule="nonzero" /><path d="M 148.08 163.12 L 148.77 163.86 C 149.53 164.67 150.81 164.72 151.63 163.96 C 152.45 163.20 152.49 161.92 151.73 161.10 L 151.04 160.36 C 150.28 159.55 149.00 159.50 148.19 160.26 C 147.37 161.02 147.32 162.30 148.08 163.12 Z M 149.20 164.29 L 149.98 164.74 C 150.98 165.32 152.26 164.98 152.84 163.98 C 153.42 162.98 153.08 161.69 152.08 161.11 L 151.30 160.67 C 150.30 160.09 149.02 160.43 148.44 161.43 C 147.86 162.43 148.20 163.71 149.20 164.29 Z M 150.69 165.03 L 151.61 165.18 C 152.77 165.36 153.86 164.57 154.05 163.41 C 154.24 162.25 153.45 161.16 152.29 160.98 L 151.36 160.83 C 150.20 160.64 149.11 161.43 148.93 162.59 C 148.74 163.75 149.53 164.84 150.69 165.03 Z M 151.88 165.20 L 153.00 165.24 C 154.17 165.28 155.16 164.36 155.20 163.18 C 155.23 162.00 154.31 161.02 153.13 160.98 L 152.02 160.95 C 150.84 160.91 149.86 161.83 149.82 163.01 C 149.78 164.18 150.70 165.17 151.88 165.20 Z M 153.05 165.24 L 154.07 165.25 C 155.25 165.26 156.21 164.32 156.22 163.14 C 156.23 161.96 155.29 161.00 154.11 160.99 L 153.09 160.98 C 151.91 160.97 150.95 161.92 150.93 163.09 C 150.92 164.27 151.87 165.23 153.05 165.24 Z M 154.09 165.25 L 155.14 165.25 C 156.31 165.25 157.27 164.29 157.26 163.12 C 157.26 161.94 156.31 160.99 155.13 160.99 L 154.09 160.99 C 152.91 160.99 151.96 161.95 151.96 163.12 C 151.96 164.30 152.92 165.25 154.09 165.25 Z M 155.16 165.25 L 156.21 165.24 C 157.39 165.22 158.33 164.26 158.31 163.08 C 158.30 161.90 157.33 160.96 156.16 160.98 L 155.11 160.99 C 153.93 161.00 152.99 161.97 153.00 163.15 C 153.02 164.32 153.98 165.27 155.16 165.25 Z M 156.27 165.23 L 157.29 165.19 C 158.46 165.14 159.38 164.15 159.33 162.98 C 159.28 161.80 158.29 160.89 157.11 160.94 L 156.09 160.98 C 154.92 161.03 154.01 162.02 154.05 163.20 C 154.10 164.37 155.10 165.28 156.27 165.23 Z M 157.44 165.18 L 158.32 165.08 C 159.49 164.94 160.32 163.89 160.19 162.72 C 160.06 161.56 159.00 160.72 157.84 160.85 L 156.96 160.95 C 155.79 161.09 154.96 162.14 155.09 163.31 C 155.22 164.47 156.28 165.31 157.44 165.18 Z M 158.44 165.05 L 159.43 164.88 C 160.58 164.67 161.35 163.58 161.15 162.42 C 160.94 161.27 159.85 160.50 158.69 160.71 L 157.71 160.88 C 156.56 161.08 155.79 162.18 155.99 163.33 C 156.19 164.48 157.29 165.25 158.44 165.05 Z M 159.42 164.87 L 160.34 164.71 C 161.49 164.51 162.26 163.42 162.06 162.27 C 161.86 161.12 160.77 160.36 159.62 160.56 L 158.70 160.72 C 157.55 160.92 156.79 162.01 156.99 163.15 C 157.19 164.30 158.28 165.07 159.42 164.87 Z M 160.34 164.69 L 161.35 164.52 C 162.49 164.32 163.25 163.24 163.06 162.11 C 162.86 160.97 161.78 160.20 160.64 160.40 L 159.63 160.57 C 158.49 160.76 157.73 161.85 157.92 162.98 C 158.12 164.12 159.20 164.89 160.34 164.69 Z M 161.38 164.50 L 162.36 164.32 C 163.49 164.10 164.23 163.02 164.01 161.89 C 163.80 160.76 162.72 160.02 161.59 160.23 L 160.61 160.42 C 159.49 160.63 158.74 161.71 158.96 162.84 C 159.17 163.97 160.25 164.71 161.38 164.50 Z M 162.38 164.29 L 163.38 164.09 C 164.49 163.87 165.22 162.78 164.99 161.66 C 164.76 160.55 163.67 159.83 162.56 160.05 L 161.56 160.25 C 160.45 160.48 159.73 161.57 159.95 162.68 C 160.18 163.80 161.27 164.52 162.38 164.29 Z M 163.40 164.07 L 164.41 163.85 C 165.52 163.62 166.22 162.53 165.98 161.43 C 165.75 160.32 164.66 159.62 163.56 159.85 L 162.54 160.07 C 161.43 160.31 160.73 161.40 160.97 162.50 C 161.21 163.61 162.29 164.31 163.40 164.07 Z M 164.43 163.83 L 165.44 163.60 C 166.53 163.35 167.21 162.28 166.97 161.19 C 166.73 160.10 165.65 159.41 164.56 159.66 L 163.54 159.88 C 162.45 160.13 161.77 161.21 162.01 162.30 C 162.26 163.38 163.34 164.07 164.43 163.83 Z M 165.42 163.57 L 166.39 163.36 C 167.46 163.12 168.14 162.06 167.90 160.99 C 167.67 159.92 166.61 159.24 165.54 159.48 L 164.57 159.69 C 163.50 159.92 162.82 160.98 163.06 162.05 C 163.29 163.12 164.35 163.80 165.42 163.57 Z M 166.33 163.33 L 167.31 163.14 C 168.37 162.94 169.06 161.91 168.86 160.86 C 168.65 159.80 167.63 159.11 166.57 159.31 L 165.59 159.50 C 164.53 159.71 163.84 160.73 164.05 161.79 C 164.25 162.84 165.27 163.54 166.33 163.33 Z M 167.23 163.12 L 168.23 162.96 C 169.28 162.80 169.99 161.83 169.83 160.78 C 169.67 159.74 168.70 159.02 167.65 159.18 L 166.65 159.34 C 165.61 159.50 164.89 160.47 165.05 161.52 C 165.21 162.56 166.19 163.28 167.23 163.12 Z M 168.15 162.94 L 169.11 162.83 C 170.14 162.72 170.89 161.79 170.77 160.76 C 170.66 159.74 169.74 158.99 168.71 159.10 L 167.74 159.21 C 166.71 159.32 165.97 160.25 166.08 161.28 C 166.19 162.31 167.12 163.05 168.15 162.94 Z M 169.03 162.81 L 170.03 162.74 C 171.05 162.68 171.82 161.80 171.75 160.79 C 171.69 159.77 170.81 159.00 169.80 159.07 L 168.79 159.13 C 167.78 159.20 167.01 160.07 167.07 161.09 C 167.14 162.10 168.01 162.87 169.03 162.81 Z M 169.99 162.72 L 170.67 162.69 C 171.67 162.65 172.45 161.80 172.41 160.80 C 172.37 159.80 171.52 159.02 170.52 159.06 L 169.84 159.09 C 168.84 159.13 168.06 159.98 168.10 160.98 C 168.14 161.98 168.99 162.76 169.99 162.72 Z"
      fill="black"
      fill-rule="nonzero" /><path d="M 160.23 155.40 L 159.80 156.28 C 159.32 157.28 159.74 158.47 160.73 158.94 C 161.72 159.42 162.91 159.01 163.39 158.02 L 163.82 157.13 C 164.30 156.14 163.88 154.95 162.89 154.47 C 161.90 153.99 160.71 154.41 160.23 155.40 Z M 159.58 156.57 L 159.31 157.52 C 158.99 158.63 159.63 159.79 160.75 160.11 C 161.86 160.43 163.02 159.79 163.34 158.67 L 163.61 157.73 C 163.93 156.62 163.29 155.45 162.18 155.13 C 161.06 154.82 159.90 155.46 159.58 156.57 Z M 159.19 157.94 L 159.12 158.89 C 159.03 160.07 159.92 161.09 161.10 161.18 C 162.28 161.27 163.31 160.38 163.39 159.20 L 163.46 158.25 C 163.55 157.07 162.66 156.04 161.48 155.96 C 160.30 155.87 159.27 156.76 159.19 157.94 Z M 159.11 159.13 L 159.15 160.20 C 159.19 161.39 160.19 162.31 161.38 162.27 C 162.57 162.22 163.49 161.22 163.45 160.04 L 163.41 158.96 C 163.36 157.77 162.36 156.85 161.17 156.89 C 159.99 156.94 159.06 157.94 159.11 159.13 Z M 159.15 160.31 L 159.24 161.33 C 159.35 162.51 160.39 163.39 161.57 163.29 C 162.76 163.18 163.64 162.14 163.53 160.96 L 163.44 159.93 C 163.34 158.75 162.30 157.87 161.11 157.97 C 159.93 158.08 159.05 159.12 159.15 160.31 Z M 159.25 161.38 L 159.36 162.38 C 159.48 163.56 160.55 164.41 161.73 164.28 C 162.91 164.16 163.77 163.09 163.64 161.91 L 163.53 160.91 C 163.40 159.73 162.34 158.87 161.15 159.00 C 159.97 159.13 159.12 160.19 159.25 161.38 Z M 159.36 162.40 L 159.48 163.43 C 159.63 164.61 160.70 165.45 161.87 165.31 C 163.05 165.17 163.90 164.10 163.75 162.92 L 163.63 161.89 C 163.49 160.71 162.42 159.87 161.24 160.01 C 160.06 160.15 159.22 161.22 159.36 162.40 Z M 159.50 163.45 L 159.62 164.39 C 159.77 165.57 160.84 166.39 162.02 166.24 C 163.19 166.09 164.02 165.02 163.86 163.84 L 163.74 162.90 C 163.59 161.73 162.52 160.90 161.34 161.05 C 160.17 161.20 159.35 162.28 159.50 163.45 Z M 159.64 164.42 L 159.77 165.37 C 159.94 166.54 161.02 167.34 162.18 167.18 C 163.34 167.01 164.15 165.94 163.98 164.77 L 163.85 163.82 C 163.68 162.66 162.60 161.85 161.44 162.01 C 160.28 162.18 159.47 163.26 159.64 164.42 Z M 159.79 165.37 L 159.93 166.37 C 160.09 167.52 161.16 168.33 162.31 168.17 C 163.47 168.00 164.27 166.94 164.11 165.78 L 163.97 164.78 C 163.81 163.63 162.74 162.82 161.58 162.98 C 160.43 163.14 159.63 164.21 159.79 165.37 Z M 159.94 166.33 L 160.06 167.31 C 160.20 168.46 161.24 169.27 162.39 169.13 C 163.54 168.99 164.36 167.95 164.22 166.80 L 164.10 165.82 C 163.96 164.67 162.91 163.86 161.77 164.00 C 160.62 164.14 159.80 165.18 159.94 166.33 Z M 160.08 167.28 L 160.19 168.29 C 160.32 169.43 161.34 170.25 162.48 170.12 C 163.61 170.00 164.43 168.97 164.31 167.84 L 164.20 166.83 C 164.07 165.69 163.05 164.87 161.91 165.00 C 160.78 165.12 159.96 166.15 160.08 167.28 Z M 160.22 168.28 L 160.32 169.28 C 160.44 170.41 161.45 171.22 162.57 171.10 C 163.69 170.98 164.51 169.97 164.39 168.85 L 164.28 167.85 C 164.16 166.73 163.16 165.91 162.03 166.03 C 160.91 166.15 160.10 167.16 160.22 168.28 Z M 160.35 169.28 L 160.46 170.28 C 160.58 171.39 161.57 172.19 162.68 172.07 C 163.79 171.95 164.59 170.95 164.47 169.85 L 164.36 168.85 C 164.24 167.74 163.25 166.94 162.14 167.06 C 161.03 167.18 160.23 168.18 160.35 169.28 Z M 160.49 170.28 L 160.59 171.27 C 160.71 172.36 161.69 173.15 162.79 173.03 C 163.88 172.91 164.67 171.93 164.55 170.84 L 164.44 169.85 C 164.32 168.76 163.34 167.97 162.25 168.09 C 161.16 168.21 160.37 169.19 160.49 170.28 Z M 160.61 171.24 L 160.70 172.17 C 160.81 173.25 161.77 174.04 162.85 173.94 C 163.93 173.84 164.72 172.88 164.62 171.80 L 164.53 170.87 C 164.42 169.79 163.47 168.99 162.38 169.10 C 161.30 169.20 160.51 170.16 160.61 171.24 Z M 160.72 172.12 L 160.80 173.15 C 160.88 174.22 161.81 175.02 162.88 174.95 C 163.95 174.87 164.75 173.94 164.67 172.87 L 164.60 171.84 C 164.52 170.77 163.59 169.97 162.52 170.04 C 161.45 170.12 160.64 171.05 160.72 172.12 Z M 160.81 173.11 L 160.87 174.09 C 160.93 175.16 161.83 175.97 162.90 175.91 C 163.96 175.85 164.77 174.94 164.71 173.88 L 164.66 172.90 C 164.60 171.84 163.69 171.03 162.63 171.09 C 161.57 171.14 160.76 172.05 160.81 173.11 Z M 160.88 174.07 L 160.93 175.09 C 160.97 176.15 161.86 176.96 162.91 176.92 C 163.97 176.87 164.78 175.98 164.74 174.93 L 164.70 173.91 C 164.65 172.85 163.76 172.04 162.71 172.08 C 161.66 172.12 160.84 173.01 160.88 174.07 Z M 160.94 175.06 L 160.97 176.11 C 161.00 177.16 161.87 177.98 162.91 177.95 C 163.96 177.92 164.78 177.05 164.75 176.01 L 164.72 174.96 C 164.70 173.91 163.83 173.09 162.78 173.12 C 161.74 173.15 160.91 174.02 160.94 175.06 Z M 160.99 176.06 L 160.99 177.09 C 160.99 178.12 161.83 178.96 162.86 178.96 C 163.89 178.96 164.73 178.13 164.73 177.09 L 164.73 176.06 C 164.73 175.03 163.89 174.19 162.86 174.19 C 161.83 174.19 160.99 175.03 160.99 176.06 Z M 161.02 176.98 L 160.97 177.93 C 160.91 178.95 161.68 179.82 162.70 179.88 C 163.71 179.94 164.59 179.16 164.65 178.15 L 164.70 177.20 C 164.76 176.18 163.98 175.31 162.97 175.25 C 161.95 175.19 161.08 175.97 161.02 176.98 Z M 161.00 177.76 L 160.85 178.77 C 160.70 179.77 161.38 180.70 162.37 180.85 C 163.37 181.00 164.30 180.32 164.45 179.33 L 164.61 178.32 C 164.76 177.32 164.08 176.39 163.08 176.24 C 162.09 176.08 161.16 176.77 161.00 177.76 Z M 160.89 178.65 L 160.67 179.60 C 160.45 180.57 161.06 181.54 162.03 181.76 C 163.00 181.98 163.97 181.37 164.20 180.40 L 164.41 179.45 C 164.64 178.48 164.03 177.51 163.05 177.29 C 162.08 177.06 161.11 177.67 160.89 178.65 Z"
      fill="black"
      fill-rule="nonzero" /><path d="M 149.11 176.91 L 147.98 176.91 C 146.84 176.91 145.92 177.83 145.92 178.97 C 145.92 180.11 146.84 181.03 147.98 181.03 L 149.11 181.03 C 150.25 181.03 151.17 180.11 151.17 178.97 C 151.17 177.83 150.25 176.91 149.11 176.91 Z M 147.98 181.16 L 148.52 181.16 C 149.73 181.16 150.71 180.18 150.71 178.97 C 150.71 177.76 149.73 176.78 148.52 176.78 L 147.98 176.78 C 146.77 176.78 145.79 177.76 145.79 178.97 C 145.79 180.18 146.77 181.16 147.98 181.16 Z M 148.52 181.23 L 149.73 181.23 C 150.97 181.23 151.98 180.22 151.98 178.97 C 151.98 177.72 150.97 176.71 149.72 176.71 L 148.52 176.71 C 147.27 176.71 146.26 177.72 146.26 178.97 C 146.26 180.22 147.27 181.23 148.52 181.23 Z M 149.73 181.25 L 150.71 181.24 C 151.96 181.24 152.98 180.21 152.97 178.96 C 152.97 177.70 151.94 176.68 150.69 176.69 L 149.71 176.69 C 148.46 176.70 147.44 177.72 147.45 178.98 C 147.45 180.24 148.48 181.25 149.73 181.25 Z M 150.73 181.25 L 151.79 181.23 C 153.05 181.21 154.06 180.17 154.04 178.91 C 154.02 177.65 152.98 176.65 151.72 176.67 L 150.66 176.69 C 149.40 176.71 148.40 177.74 148.42 179.00 C 148.44 180.26 149.47 181.27 150.73 181.25 Z M 151.83 181.23 L 152.85 181.20 C 154.11 181.16 155.10 180.11 155.06 178.85 C 155.02 177.59 153.97 176.60 152.71 176.64 L 151.69 176.67 C 150.43 176.71 149.44 177.76 149.48 179.02 C 149.52 180.28 150.57 181.27 151.83 181.23 Z M 152.87 181.20 L 153.88 181.16 C 155.14 181.11 156.12 180.05 156.07 178.79 C 156.03 177.53 154.97 176.55 153.71 176.60 L 152.69 176.64 C 151.43 176.69 150.45 177.75 150.50 179.01 C 150.55 180.26 151.61 181.25 152.87 181.20 Z M 153.89 181.16 L 154.90 181.12 C 156.16 181.06 157.14 180.00 157.09 178.74 C 157.04 177.48 155.97 176.50 154.72 176.56 L 153.70 176.60 C 152.44 176.65 151.46 177.71 151.51 178.97 C 151.57 180.23 152.63 181.21 153.89 181.16 Z M 154.90 181.12 L 155.90 181.07 C 157.16 181.02 158.14 179.96 158.09 178.70 C 158.04 177.44 156.97 176.46 155.72 176.51 L 154.72 176.56 C 153.46 176.61 152.48 177.67 152.53 178.93 C 152.58 180.19 153.64 181.17 154.90 181.12 Z M 155.90 181.07 L 156.84 181.04 C 158.10 180.99 159.08 179.92 159.03 178.66 C 158.98 177.41 157.92 176.43 156.66 176.48 L 155.72 176.51 C 154.46 176.57 153.48 177.63 153.53 178.89 C 153.58 180.15 154.64 181.13 155.90 181.07 Z M 156.83 181.04 L 157.83 181.00 C 159.09 180.96 160.07 179.90 160.03 178.64 C 159.99 177.38 158.93 176.40 157.67 176.44 L 156.67 176.48 C 155.41 176.52 154.43 177.58 154.47 178.84 C 154.51 180.09 155.57 181.08 156.83 181.04 Z M 157.79 181.00 L 158.78 180.98 C 160.04 180.96 161.04 179.92 161.02 178.66 C 161.00 177.40 159.96 176.40 158.70 176.43 L 157.71 176.44 C 156.45 176.47 155.45 177.50 155.47 178.76 C 155.49 180.02 156.53 181.02 157.79 181.00 Z M 158.75 180.98 L 159.75 180.97 C 161.01 180.97 162.02 179.95 162.02 178.69 C 162.01 177.44 160.99 176.42 159.74 176.43 L 158.73 176.43 C 157.48 176.44 156.47 177.46 156.47 178.71 C 156.47 179.97 157.50 180.98 158.75 180.98 Z M 159.75 180.96 L 160.74 180.96 C 161.99 180.96 163.00 179.95 163.00 178.70 C 163.00 177.45 161.99 176.44 160.74 176.44 L 159.75 176.44 C 158.50 176.44 157.48 177.45 157.48 178.70 C 157.48 179.95 158.50 180.96 159.75 180.96 Z M 160.74 180.95 L 161.75 180.95 C 162.99 180.95 164.00 179.94 164.00 178.70 C 164.00 177.46 162.99 176.45 161.75 176.45 L 160.74 176.45 C 159.50 176.45 158.49 177.46 158.49 178.70 C 158.49 179.94 159.50 180.95 160.74 180.95 Z M 161.75 180.94 L 162.74 180.94 C 163.98 180.94 164.98 179.94 164.98 178.70 C 164.98 177.46 163.98 176.46 162.74 176.46 L 161.75 176.46 C 160.51 176.46 159.51 177.46 159.51 178.70 C 159.51 179.94 160.51 180.94 161.75 180.94 Z M 162.74 180.93 L 163.75 180.93 C 164.98 180.93 165.97 179.93 165.97 178.70 C 165.97 177.47 164.98 176.47 163.75 176.47 L 162.74 176.47 C 161.52 176.47 160.52 177.47 160.52 178.70 C 160.52 179.93 161.52 180.93 162.74 180.93 Z M 163.75 180.91 L 164.74 180.91 C 165.96 180.91 166.95 179.92 166.95 178.70 C 166.95 177.48 165.96 176.49 164.74 176.49 L 163.75 176.49 C 162.53 176.49 161.53 177.48 161.53 178.70 C 161.53 179.92 162.53 180.91 163.75 180.91 Z M 164.74 180.90 L 165.74 180.90 C 166.96 180.90 167.94 179.92 167.94 178.70 C 167.94 177.48 166.96 176.50 165.74 176.50 L 164.74 176.50 C 163.52 176.50 162.53 177.48 162.53 178.70 C 162.53 179.92 163.52 180.90 164.74 180.90 Z M 165.74 180.89 L 166.75 180.89 C 167.96 180.89 168.94 179.91 168.94 178.70 C 168.94 177.49 167.96 176.51 166.75 176.51 L 165.74 176.51 C 164.53 176.51 163.55 177.49 163.55 178.70 C 163.55 179.91 164.53 180.89 165.74 180.89 Z M 166.75 180.87 L 167.76 180.87 C 168.96 180.87 169.93 179.90 169.93 178.70 C 169.93 177.50 168.96 176.53 167.76 176.53 L 166.75 176.53 C 165.55 176.53 164.58 177.50 164.58 178.70 C 164.58 179.90 165.55 180.87 166.75 180.87 Z M 167.76 180.84 L 168.77 180.84 C 169.95 180.84 170.91 179.88 170.91 178.70 C 170.91 177.52 169.95 176.56 168.77 176.56 L 167.76 176.56 C 166.58 176.56 165.62 177.52 165.62 178.70 C 165.62 179.88 166.58 180.84 167.76 180.84 Z M 168.76 180.82 L 169.77 180.82 C 170.94 180.83 171.89 179.88 171.90 178.71 C 171.90 177.54 170.95 176.59 169.78 176.58 L 168.78 176.58 C 167.61 176.58 166.65 177.52 166.65 178.69 C 166.65 179.86 167.59 180.82 168.76 180.82 Z M 169.75 180.80 L 170.73 180.81 C 171.88 180.83 172.84 179.90 172.85 178.75 C 172.87 177.59 171.95 176.64 170.79 176.62 L 169.81 176.61 C 168.65 176.59 167.70 177.52 167.68 178.67 C 167.67 179.83 168.59 180.78 169.75 180.80 Z M 170.69 180.79 L 171.70 180.82 C 172.84 180.86 173.80 179.96 173.83 178.82 C 173.87 177.67 172.97 176.72 171.83 176.68 L 170.83 176.65 C 169.68 176.61 168.73 177.51 168.69 178.65 C 168.65 179.79 169.55 180.75 170.69 180.79 Z M 171.66 180.80 L 172.65 180.85 C 173.78 180.90 174.75 180.03 174.80 178.90 C 174.86 177.77 173.99 176.81 172.86 176.75 L 171.86 176.70 C 170.73 176.65 169.77 177.52 169.72 178.65 C 169.66 179.78 170.53 180.74 171.66 180.80 Z M 172.62 180.82 L 173.62 180.89 C 174.74 180.97 175.71 180.12 175.78 179.00 C 175.86 177.89 175.01 176.92 173.90 176.84 L 172.89 176.78 C 171.78 176.70 170.81 177.54 170.73 178.66 C 170.66 179.78 171.50 180.75 172.62 180.82 Z M 173.58 180.87 L 174.58 180.96 C 175.68 181.06 176.65 180.24 176.75 179.14 C 176.86 178.04 176.04 177.06 174.94 176.96 L 173.94 176.87 C 172.84 176.77 171.86 177.58 171.76 178.69 C 171.66 179.79 172.47 180.76 173.58 180.87 Z M 174.52 180.93 L 175.51 181.04 C 176.60 181.17 177.58 180.40 177.71 179.31 C 177.84 178.22 177.07 177.24 175.98 177.11 L 174.99 176.99 C 173.90 176.86 172.92 177.64 172.79 178.72 C 172.66 179.81 173.44 180.80 174.52 180.93 Z M 175.45 181.01 L 176.38 181.15 C 177.44 181.31 178.44 180.57 178.60 179.50 C 178.76 178.43 178.02 177.44 176.96 177.28 L 176.03 177.14 C 174.97 176.98 173.97 177.72 173.81 178.79 C 173.65 179.86 174.39 180.85 175.45 181.01 Z M 176.33 181.12 L 177.37 181.30 C 178.42 181.48 179.42 180.78 179.60 179.73 C 179.79 178.67 179.08 177.67 178.03 177.49 L 177.00 177.31 C 175.95 177.12 174.94 177.83 174.76 178.88 C 174.58 179.93 175.28 180.94 176.33 181.12 Z M 177.34 181.27 L 178.30 181.46 C 179.34 181.65 180.34 180.97 180.54 179.93 C 180.73 178.89 180.05 177.89 179.01 177.70 L 178.05 177.51 C 177.01 177.32 176.01 178.00 175.82 179.04 C 175.62 180.08 176.31 181.08 177.34 181.27 Z M 178.26 181.42 L 179.26 181.64 C 180.29 181.87 181.29 181.22 181.52 180.20 C 181.74 179.18 181.09 178.17 180.07 177.95 L 179.06 177.73 C 178.04 177.50 177.03 178.15 176.81 179.17 C 176.59 180.19 177.24 181.20 178.26 181.42 Z M 179.16 181.60 L 180.16 181.88 C 181.16 182.15 182.19 181.57 182.47 180.58 C 182.75 179.58 182.16 178.55 181.17 178.27 L 180.17 177.99 C 179.18 177.72 178.14 178.30 177.87 179.29 C 177.59 180.29 178.17 181.32 179.16 181.60 Z M 180.04 181.81 L 180.98 182.15 C 181.93 182.50 182.99 182.00 183.34 181.05 C 183.69 180.09 183.19 179.03 182.24 178.68 L 181.30 178.34 C 180.34 177.99 179.28 178.49 178.93 179.45 C 178.58 180.40 179.08 181.46 180.04 181.81 Z M 180.92 182.10 L 181.57 182.37 C 182.50 182.75 183.56 182.30 183.94 181.37 C 184.32 180.44 183.88 179.37 182.94 178.99 L 182.29 178.73 C 181.36 178.35 180.30 178.80 179.92 179.73 C 179.54 180.66 179.99 181.72 180.92 182.10 Z"
      fill="black"
      fill-rule="nonzero" /></svg>