<svg xmlns="http://www.w3.org/2000/svg" width="300" height="300" viewBox="0 0 300 300">
<path d="M 114.0252685546875 152.2919626235962 L 116.8701171875 152.3694667816162 L 119.7149658203125 152.36018753051758 L 121.42547607421875 152.31822276115417 L 123.46124619336726 152.2806462033928 L 125.84750829577173 151.95153361856057 L 128.04403182687258 151.57222460324968 L 130.28458725134823 151.04874006629757 L 132.4239032562253 150.38232253506288 L 134.55535515465607 149.59614009443862 L 136.53016462285342 148.7616646257922 L 138.7394836951614 147.74977884214434 L 141.2874040759171 146.11242594164415 L 139.3388166272079 143.08581624585585 L 136.9892760704636 144.60153951723066 L 135.09337053339658 145.4414603742078 L 133.25104132971893 146.18352299149888 L 131.2772686187747 146.84875656649962 L 129.34737075646427 147.38351091026493 L 127.33865860281492 147.78592969362532 L 125.32192529797827 148.05725544393943 L 123.20684462694524 148.2536555544197 L 121.42547607421875 148.21607899665833 L 119.7149658203125 148.17411422729492 L 116.8701171875 148.1648349761963 L 114.0252685546875 148.2423391342163 Z" fill="black" />
<path d="M 128.4243711682201 139.97914154851375 L 128.48867818439066 141.79564000848302 L 129.49779500266249 144.83197341048626 L 129.99646020287886 146.7713935481922 L 130.58507255447515 149.20452097100375 L 131.11181016891257 151.9080773241325 L 131.66867754215022 154.90797287154095 L 132.2068618102627 158.02616477587895 L 132.6964055187124 161.37585501314913 L 132.96768696614058 164.23422243887106 L 133.25855784245115 166.90217570582968 L 133.3955703525643 169.27492738903024 L 133.4784865479094 171.26364786004876 L 133.4848197742733 172.8205000352854 L 133.59345549215746 174.60153212065362 L 133.23699951171875 174.0412232875824 L 132.05158436036757 173.90873548176694 L 131.17706831136007 173.35808563979106 L 129.88544975249795 172.4628648036196 L 128.14230724124062 171.13645995736098 L 127.12554509278581 170.5850883082051 L 127.57423122664896 171.15697159198652 L 130.93914942447677 168.43815256106905 L 133.19827661073063 166.6929473409811 L 134.48590098067146 165.7191464905891 L 135.95936024092293 164.59092463214392 L 137.28746433103453 163.36052590950104 L 138.7926706629467 162.15107421461627 L 140.38732291655964 160.7342316933325 L 137.86218880219036 157.71755053323 L 136.2878957433033 158.95329590257123 L 134.73218898927797 159.97101705924896 L 133.17943370438957 160.99281560223108 L 131.73602284745354 162.0917665953484 L 130.39486303770687 163.0948944558939 L 128.15264745052323 164.92818044674345 L 124.38743869522604 167.86487899395098 L 122.71149104002669 171.7399849339824 L 125.54787830563437 174.49183594107652 L 127.62187446625207 175.7929945713804 L 129.10308305582743 176.74958037583394 L 130.85735118650743 177.65034654948306 L 133.23699951171875 178.0433714389801 L 136.84172517190504 176.95754991059638 L 137.4905220226017 173.0580400037771 L 137.4968552489656 171.18654745245124 L 137.4357284755607 169.09628843128226 L 137.32066579036135 166.58927937229532 L 137.07137553385942 163.85195920175394 L 136.8385065906626 160.90466256497587 L 136.3917710022373 157.39766334912105 L 135.88564374691228 154.18467849564655 L 135.36218885452493 151.12866583993 L 134.84461494552485 148.30182668524625 L 134.24487280493364 145.7300712955578 L 133.69922648171251 143.56548752701374 L 132.72775247967184 140.67103479620448 L 132.3959413317799 139.45957915461125 Z" fill="black" />
<path d="M 154.22457342996148 126.4805719364262 L 156.69083427469442 125.9499614711024 L 159.35669113667086 125.12522099397837 L 162.27696329237932 124.2073360022187 L 166.13681348942802 122.75718297087955 L 164.90444627619698 119.37013636505795 L 161.13001912949568 120.6976932946563 L 158.36059401957914 121.35634638883413 L 155.73287177999308 121.8578998570226 L 153.33768242941352 122.3783147823238 Z" fill="black" />
<path d="M 153.2890664844616 115.89190249327108 L 153.00992310042625 117.4275913630447 L 152.79701252233096 120.7433906109871 L 152.6422643031285 123.0907338836444 L 152.57793613981593 125.76773684999547 L 152.49678320043705 128.59008146502993 L 152.4153100772548 131.45852704984046 L 152.40780234336853 134.37664794921875 L 152.4031195640564 136.62884521484375 L 152.42308784084202 138.8403712282581 L 153.19370348335437 142.11375368062338 L 155.12237186974772 144.95324708736268 L 158.8223717527658 145.34620756079755 L 161.5372029471056 144.23900723193398 L 163.0984639149145 143.11978659805575 L 164.4082586326769 142.02309892772536 L 165.6923024369795 140.71403937098444 L 166.96188731813942 139.3749172888079 L 168.17211763009684 137.97731625425988 L 169.37943988529744 136.51962233504156 L 170.62251711836512 134.90507835393421 L 172.16158496288466 132.61859998446891 L 169.17874706836534 130.60430040615609 L 167.69291256913488 132.79719215387829 L 166.55928081782756 134.21060227433344 L 165.38989408865316 135.53061831605262 L 164.22341541623558 136.7605807580671 L 162.9722483442705 137.92390008214056 L 161.7715509376356 138.99215986133714 L 160.704636671023 139.74727883163175 L 159.6011027169569 140.35474276806602 L 158.1026770753592 140.94920259545245 L 157.30133418493978 141.06689451419982 L 157.39345471977063 140.62818967875162 L 156.83167290134548 138.2210301389294 L 156.8516411781311 136.62884521484375 L 156.84695839881897 134.37664794921875 L 156.8394506649327 131.51412920015954 L 156.90202051050045 128.70203279278257 L 156.96491053987157 125.86885982969203 L 157.0086146031215 123.2657114288556 L 157.14195232141904 121.0085625140129 L 157.32515990738625 117.7179164494553 L 157.2980917186634 116.22565121766642 Z" fill="black" />
<path d="M 154.5016289438787 155.8842607538847 L 154.88890620299316 156.99389975062584 L 154.81106519699097 158.963134765625 L 154.80784344673157 160.47711181640625 L 154.80560040473938 162.266357421875 L 154.8061239719391 164.168212890625 L 154.80769671672257 166.1065107938661 L 154.7437922153133 168.3287594726177 L 154.6985024606257 170.17837834278052 L 154.5701259448223 171.86118010349006 L 154.38299575422423 173.41944168364753 L 154.14865540619368 175.8857316101195 L 158.23642477593228 177.3344543670444 L 158.17825984317537 174.91347822707652 L 158.34571502606394 173.49860340085513 L 158.7163513277284 171.48731164265922 L 159.14536486909077 169.26904449889366 L 159.72301745069817 166.7741149958029 L 160.3681970220986 164.47769996013497 L 161.05860946961562 162.33871545864997 L 161.88432221416736 160.27705593619876 L 162.75123408991342 158.43519234973115 L 163.68159674741412 156.85408807534907 L 164.52299331861676 155.54391537920873 L 165.59853104816165 154.62422637998122 L 166.0621182675816 154.583113737508 L 165.96342386722895 154.94183667680335 L 166.58809846846745 156.72089037139395 L 167.3443652091118 159.16884340528432 L 167.7641134078514 160.53125879427512 L 168.6608062674865 164.90879264659978 L 168.86443448175814 166.45837886731633 L 169.14903204235426 168.10098435298394 L 169.3592214967626 169.7525523897688 L 169.57899429185284 171.531887099852 L 169.87832730403142 174.89739447632257 L 169.07902702455243 175.99136401354534 L 172.51338020201007 178.19528149426716 L 174.09078890690608 175.58563775023993 L 173.88597152845966 171.1935767673355 L 173.7096261594874 169.2692981961687 L 173.52369744983324 167.49252150639106 L 173.26813387761686 165.83190433580867 L 173.075643927826 164.10329231433772 L 172.1357889358986 159.52208593228738 L 171.6192578377632 157.83152280565318 L 170.79105192215755 155.27459302704355 L 169.83125386714605 152.84954515913415 L 167.6079256777309 150.5556802078045 L 164.00229902996335 150.78983612001878 L 161.51277328294574 152.77297915204127 L 160.22953606508588 154.74100469808843 L 159.17930790227408 156.58824515026885 L 158.20967192645764 158.70023898567624 L 157.30686904600938 160.99282751010003 L 156.5568518060264 163.33321312580253 L 155.86963391648933 165.7914367620096 L 155.25893200590923 168.42651214173134 L 154.7876769925841 170.71263952921578 L 154.36607696612356 172.78032726320737 L 153.99337101619963 174.66867509323598 L 153.93520608344272 178.1784850860806 L 158.56313658599382 176.449107257068 L 158.83294662858827 173.91051437103997 L 159.0419346020527 172.31569977932244 L 159.2016440237493 170.42001032909448 L 159.2643864956242 168.4659182617573 L 159.34452496296493 166.1837724092589 L 159.3460977077484 164.168212890625 L 159.34662127494812 162.266357421875 L 159.34437823295593 160.47711181640625 L 159.34115648269653 158.963134765625 L 159.26331547669434 156.05260903843666 L 157.9220771108088 154.0091718633028 Z" fill="black" />
<path d="M 153.3680569317289 171.49706334587503 L 156.1928632669866 170.99111986112726 L 157.93432156599886 170.3237603316526 L 159.65340530951778 169.66882021410817 L 161.44150336280154 168.99212028771476 L 163.3444239856973 168.17826939588235 L 165.16874314781106 167.43320280104436 L 167.0308636339729 166.64026282137576 L 168.91532927252362 165.9285188763991 L 170.37496245250978 165.47516031046746 L 172.83150254990608 164.94184617100115 L 172.07389295790642 161.41765089931135 L 169.52493989124022 161.96038656453254 L 167.81562775872638 162.4079069048509 L 165.7389117566521 163.02245690518674 L 163.78389357093894 163.68093294114314 L 161.8991062877402 164.26216029161765 L 159.98488823876096 164.89972541541024 L 158.20792281548222 165.39917294995433 L 156.46997530900114 165.9454047074099 L 154.9344560689509 166.32907056856024 L 152.3216403338961 167.12439661506247 Z" fill="black" />
<path d="M 157.85372862947878 186.72411452503647 L 160.62550309041754 185.8250068586377 L 162.22464337638817 184.78178598042146 L 163.7722187639409 183.81642197089272 L 165.2177197752828 182.77288968140292 L 166.71072265194292 181.7476746210421 L 168.25253455649636 180.61614738561926 L 169.63489205531212 179.5789260253788 L 171.11459520621398 178.53004849648673 L 174.56038931069853 176.35362644461367 L 172.57767221273897 173.07838039132383 L 169.03738233284852 175.13108431601327 L 167.34814017125038 176.0591354980587 L 165.81362755287864 176.99884284875574 L 164.22250488711958 177.9693663945829 L 162.6545946778422 178.92108004515958 L 161.2192363141841 179.85447646660728 L 159.70589861579933 180.74091909770354 L 158.42417952676996 181.5495048601123 L 156.15445008145872 182.87757004527603 Z" fill="black" />
</svg>