<svg xmlns="http://www.w3.org/2000/svg" width="300" height="300" viewBox="0 0 300 300">
<path d="M 119.29 135.96 L 120.26 136.06 C 121.38 136.18 122.38 135.38 122.50 134.26 C 122.63 133.14 121.82 132.14 120.70 132.02 L 119.74 131.91 C 118.62 131.79 117.62 132.59 117.49 133.71 C 117.37 134.83 118.18 135.83 119.29 135.96 Z M 120.30 136.18 L 121.30 136.27 C 122.48 136.37 123.53 135.50 123.63 134.31 C 123.73 133.13 122.86 132.08 121.67 131.98 L 120.67 131.89 C 119.48 131.79 118.44 132.67 118.34 133.85 C 118.23 135.04 119.11 136.08 120.30 136.18 Z M 121.38 136.36 L 122.40 136.41 C 123.63 136.47 124.68 135.51 124.74 134.28 C 124.80 133.05 123.85 132.00 122.61 131.94 L 121.59 131.90 C 120.36 131.84 119.31 132.79 119.25 134.02 C 119.19 135.25 120.15 136.30 121.38 136.36 Z M 122.47 136.42 L 123.49 136.44 C 124.73 136.46 125.75 135.47 125.77 134.23 C 125.80 132.99 124.81 131.97 123.57 131.95 L 122.55 131.93 C 121.31 131.91 120.28 132.90 120.26 134.14 C 120.24 135.38 121.23 136.40 122.47 136.42 Z M 123.52 136.43 L 124.50 136.43 C 125.73 136.43 126.74 135.44 126.74 134.20 C 126.74 132.97 125.75 131.97 124.51 131.96 L 123.53 131.96 C 122.30 131.96 121.30 132.95 121.29 134.19 C 121.29 135.42 122.29 136.42 123.52 136.43 Z M 124.51 136.41 L 125.55 136.41 C 126.78 136.41 127.77 135.42 127.77 134.20 C 127.77 132.97 126.78 131.98 125.55 131.98 L 124.51 131.98 C 123.28 131.98 122.29 132.97 122.29 134.20 C 122.29 135.42 123.28 136.41 124.51 136.41 Z M 125.55 136.40 L 126.52 136.40 C 127.73 136.40 128.72 135.41 128.72 134.20 C 128.72 132.98 127.73 131.99 126.52 131.99 L 125.55 131.99 C 124.34 131.99 123.35 132.98 123.35 134.20 C 123.35 135.41 124.34 136.40 125.55 136.40 Z M 126.52 136.38 L 127.49 136.38 C 128.70 136.38 129.67 135.40 129.67 134.20 C 129.67 132.99 128.70 132.01 127.49 132.01 L 126.52 132.01 C 125.31 132.01 124.33 132.99 124.33 134.20 C 124.33 135.40 125.31 136.38 126.52 136.38 Z M 127.49 136.36 L 128.50 136.36 C 129.69 136.36 130.66 135.39 130.66 134.20 C 130.66 133.00 129.69 132.03 128.50 132.03 L 127.49 132.03 C 126.30 132.03 125.33 133.00 125.33 134.20 C 125.33 135.39 126.30 136.36 127.49 136.36 Z M 128.50 136.33 L 129.49 136.33 C 130.67 136.33 131.63 135.38 131.63 134.19 C 131.63 133.01 130.67 132.06 129.49 132.06 L 128.50 132.06 C 127.31 132.06 126.36 133.01 126.36 134.20 C 126.36 135.38 127.31 136.33 128.50 136.33 Z M 129.50 136.31 L 130.50 136.31 C 131.67 136.30 132.61 135.35 132.61 134.18 C 132.61 133.02 131.65 132.07 130.49 132.08 L 129.48 132.08 C 128.32 132.08 127.37 133.03 127.38 134.20 C 127.38 135.37 128.33 136.32 129.50 136.31 Z M 130.52 136.28 L 131.53 136.27 C 132.69 136.26 133.61 135.31 133.60 134.15 C 133.58 133.00 132.64 132.07 131.48 132.09 L 130.47 132.10 C 129.31 132.11 128.39 133.06 128.40 134.22 C 128.41 135.37 129.36 136.30 130.52 136.28 Z M 131.55 136.25 L 132.56 136.22 C 133.70 136.20 134.60 135.25 134.58 134.11 C 134.55 132.96 133.60 132.06 132.46 132.09 L 131.46 132.11 C 130.31 132.14 129.41 133.09 129.44 134.23 C 129.46 135.37 130.41 136.27 131.55 136.25 Z M 132.58 136.20 L 133.58 136.16 C 134.71 136.12 135.59 135.17 135.55 134.05 C 135.51 132.92 134.56 132.03 133.43 132.08 L 132.43 132.11 C 131.31 132.15 130.42 133.10 130.47 134.23 C 130.51 135.36 131.45 136.24 132.58 136.20 Z M 133.61 136.14 L 134.62 136.09 C 135.73 136.03 136.59 135.08 136.54 133.97 C 136.48 132.85 135.53 132.00 134.42 132.05 L 133.40 132.10 C 132.29 132.16 131.43 133.11 131.49 134.22 C 131.54 135.33 132.49 136.19 133.61 136.14 Z M 134.64 136.06 L 135.62 136.00 C 136.72 135.94 137.56 134.99 137.50 133.89 C 137.43 132.80 136.49 131.96 135.39 132.02 L 134.40 132.08 C 133.30 132.14 132.47 133.09 132.53 134.19 C 132.59 135.28 133.54 136.12 134.64 136.06 Z M 135.63 135.97 L 136.62 135.91 C 137.71 135.85 138.53 134.92 138.47 133.83 C 138.40 132.75 137.47 131.92 136.39 131.99 L 135.39 132.05 C 134.31 132.11 133.48 133.04 133.54 134.13 C 133.61 135.21 134.54 136.04 135.63 135.97 Z M 136.62 135.89 L 137.62 135.83 C 138.68 135.76 139.50 134.84 139.43 133.77 C 139.37 132.71 138.45 131.89 137.38 131.96 L 136.39 132.02 C 135.32 132.08 134.51 133.00 134.57 134.07 C 134.63 135.14 135.55 135.95 136.62 135.89 Z M 137.62 135.80 L 138.58 135.74 C 139.64 135.67 140.44 134.77 140.37 133.71 C 140.31 132.66 139.40 131.86 138.35 131.92 L 137.38 131.98 C 136.33 132.05 135.53 132.96 135.59 134.01 C 135.66 135.06 136.56 135.86 137.62 135.80 Z M 138.59 135.71 L 139.58 135.65 C 140.62 135.58 141.40 134.69 141.34 133.65 C 141.27 132.61 140.37 131.82 139.34 131.89 L 138.35 131.95 C 137.31 132.02 136.52 132.91 136.59 133.95 C 136.65 134.99 137.55 135.78 138.59 135.71 Z M 139.58 135.62 L 140.62 135.55 C 141.65 135.49 142.42 134.60 142.35 133.57 C 142.28 132.55 141.39 131.77 140.37 131.84 L 139.33 131.91 C 138.30 131.98 137.53 132.87 137.60 133.89 C 137.67 134.92 138.56 135.69 139.58 135.62 Z M 140.63 135.54 L 141.66 135.46 C 142.68 135.39 143.44 134.50 143.36 133.49 C 143.29 132.47 142.40 131.71 141.39 131.78 L 140.36 131.86 C 139.34 131.93 138.58 132.82 138.66 133.83 C 138.73 134.85 139.62 135.61 140.63 135.54 Z M 141.68 135.45 L 142.66 135.36 C 143.67 135.27 144.41 134.38 144.32 133.37 C 144.24 132.37 143.35 131.62 142.34 131.71 L 141.36 131.80 C 140.35 131.88 139.61 132.77 139.70 133.78 C 139.79 134.79 140.68 135.54 141.68 135.45 Z M 142.72 135.34 L 143.76 135.22 C 144.76 135.10 145.47 134.19 145.36 133.19 C 145.24 132.20 144.33 131.48 143.33 131.60 L 142.28 131.73 C 141.28 131.85 140.57 132.75 140.69 133.75 C 140.81 134.75 141.72 135.46 142.72 135.34 Z M 143.82 135.20 L 144.74 135.06 C 145.73 134.91 146.40 133.99 146.26 133.00 C 146.11 132.01 145.18 131.33 144.20 131.48 L 143.28 131.62 C 142.29 131.77 141.61 132.69 141.76 133.68 C 141.91 134.67 142.83 135.35 143.82 135.20 Z"
      fill="black"
      fill-rule="nonzero" /><path d="M 133.22 123.85 L 133.22 124.83 C 133.22 125.97 134.15 126.90 135.29 126.90 C 136.44 126.89 137.36 125.97 137.36 124.82 L 137.36 123.84 C 137.36 122.70 136.43 121.78 135.29 121.78 C 134.14 121.78 133.22 122.71 133.22 123.85 Z M 133.11 124.85 L 133.12 125.87 C 133.13 127.08 134.12 128.05 135.33 128.03 C 136.53 128.02 137.50 127.03 137.49 125.82 L 137.48 124.80 C 137.46 123.60 136.47 122.63 135.27 122.64 C 134.06 122.66 133.09 123.64 133.11 124.85 Z M 133.05 125.91 L 133.08 126.93 C 133.11 128.17 134.15 129.15 135.39 129.12 C 136.64 129.08 137.62 128.04 137.58 126.80 L 137.55 125.79 C 137.52 124.54 136.48 123.56 135.24 123.60 C 134.00 123.63 133.02 124.67 133.05 125.91 Z M 133.06 126.99 L 133.12 127.98 C 133.19 129.23 134.27 130.19 135.52 130.12 C 136.77 130.04 137.73 128.97 137.65 127.72 L 137.60 126.73 C 137.53 125.48 136.45 124.52 135.20 124.60 C 133.95 124.67 132.99 125.74 133.06 126.99 Z M 133.11 128.09 L 133.22 129.08 C 133.36 130.34 134.48 131.25 135.74 131.11 C 136.99 130.98 137.90 129.85 137.77 128.59 L 137.66 127.60 C 137.53 126.35 136.40 125.44 135.14 125.58 C 133.89 125.71 132.98 126.84 133.11 128.09 Z M 133.22 129.15 L 133.35 130.13 C 133.52 131.39 134.68 132.27 135.94 132.10 C 137.19 131.93 138.07 130.77 137.90 129.51 L 137.77 128.53 C 137.60 127.27 136.44 126.39 135.18 126.56 C 133.93 126.73 133.05 127.89 133.22 129.15 Z M 133.34 130.11 L 133.46 131.06 C 133.63 132.32 134.78 133.21 136.04 133.05 C 137.30 132.89 138.20 131.74 138.03 130.47 L 137.91 129.53 C 137.75 128.27 136.60 127.37 135.33 127.54 C 134.07 127.70 133.18 128.85 133.34 130.11 Z M 133.46 131.05 L 133.59 132.09 C 133.75 133.35 134.90 134.25 136.16 134.09 C 137.43 133.94 138.32 132.79 138.17 131.52 L 138.04 130.48 C 137.88 129.22 136.73 128.32 135.46 128.48 C 134.20 128.64 133.30 129.79 133.46 131.05 Z M 133.59 132.09 L 133.71 133.06 C 133.87 134.32 135.02 135.22 136.29 135.06 C 137.55 134.90 138.45 133.74 138.29 132.48 L 138.17 131.52 C 138.01 130.25 136.85 129.36 135.59 129.52 C 134.32 129.68 133.43 130.83 133.59 132.09 Z M 133.71 133.06 L 133.84 134.06 C 134.00 135.32 135.16 136.21 136.42 136.05 C 137.69 135.89 138.58 134.73 138.42 133.47 L 138.29 132.47 C 138.13 131.21 136.97 130.31 135.70 130.48 C 134.44 130.64 133.55 131.80 133.71 133.06 Z M 133.84 134.06 L 133.97 135.07 C 134.14 136.33 135.30 137.22 136.56 137.05 C 137.82 136.89 138.71 135.73 138.55 134.47 L 138.41 133.46 C 138.25 132.20 137.09 131.31 135.83 131.47 C 134.56 131.64 133.67 132.80 133.84 134.06 Z M 133.98 135.07 L 134.10 136.02 C 134.27 137.28 135.42 138.17 136.68 138.01 C 137.95 137.84 138.83 136.68 138.67 135.42 L 138.54 134.47 C 138.38 133.21 137.22 132.32 135.96 132.48 C 134.70 132.65 133.81 133.81 133.98 135.07 Z M 134.11 136.02 L 134.24 137.02 C 134.40 138.28 135.55 139.17 136.81 139.01 C 138.07 138.85 138.95 137.70 138.79 136.44 L 138.66 135.43 C 138.50 134.17 137.35 133.28 136.09 133.44 C 134.83 133.61 133.94 134.76 134.11 136.02 Z M 134.24 137.01 L 134.37 138.03 C 134.52 139.28 135.67 140.18 136.92 140.02 C 138.18 139.86 139.07 138.72 138.91 137.46 L 138.79 136.45 C 138.63 135.19 137.49 134.30 136.23 134.46 C 134.98 134.61 134.09 135.76 134.24 137.01 Z M 134.37 138.01 L 134.49 138.97 C 134.63 140.23 135.77 141.12 137.02 140.97 C 138.27 140.83 139.17 139.69 139.02 138.44 L 138.91 137.48 C 138.76 136.23 137.63 135.33 136.37 135.48 C 135.12 135.63 134.22 136.76 134.37 138.01 Z M 134.49 138.96 L 134.60 139.96 C 134.74 141.20 135.87 142.10 137.12 141.97 C 138.37 141.83 139.27 140.70 139.13 139.45 L 139.02 138.45 C 138.88 137.20 137.75 136.30 136.50 136.44 C 135.25 136.58 134.35 137.71 134.49 138.96 Z M 134.61 139.94 L 134.72 140.97 C 134.85 142.22 135.96 143.12 137.21 142.99 C 138.46 142.86 139.36 141.75 139.23 140.50 L 139.12 139.47 C 138.99 138.22 137.87 137.32 136.63 137.45 C 135.38 137.58 134.48 138.69 134.61 139.94 Z M 134.72 140.96 L 134.82 141.93 C 134.94 143.18 136.05 144.09 137.29 143.96 C 138.53 143.84 139.44 142.74 139.32 141.49 L 139.22 140.52 C 139.10 139.27 138.00 138.36 136.75 138.49 C 135.51 138.61 134.60 139.71 134.72 140.96 Z M 134.82 141.92 L 134.91 142.90 C 135.03 144.14 136.13 145.06 137.37 144.94 C 138.61 144.83 139.52 143.73 139.41 142.49 L 139.32 141.51 C 139.20 140.26 138.10 139.35 136.86 139.47 C 135.62 139.58 134.71 140.68 134.82 141.92 Z M 134.92 142.89 L 135.00 143.90 C 135.11 145.13 136.21 146.05 137.44 145.94 C 138.68 145.83 139.60 144.74 139.49 143.50 L 139.40 142.50 C 139.29 141.26 138.20 140.34 136.96 140.45 C 135.72 140.56 134.81 141.65 134.92 142.89 Z M 135.01 143.89 L 135.10 144.92 C 135.20 146.15 136.29 147.07 137.52 146.97 C 138.76 146.86 139.67 145.78 139.57 144.54 L 139.48 143.51 C 139.38 142.28 138.30 141.36 137.06 141.46 C 135.82 141.57 134.91 142.65 135.01 143.89 Z M 135.10 144.91 L 135.18 145.87 C 135.28 147.11 136.36 148.03 137.59 147.93 C 138.83 147.83 139.74 146.75 139.64 145.51 L 139.57 144.55 C 139.47 143.31 138.39 142.40 137.15 142.50 C 135.92 142.60 135.00 143.68 135.10 144.91 Z M 135.18 145.87 L 135.26 146.85 C 135.36 148.08 136.43 149.00 137.66 148.90 C 138.89 148.81 139.81 147.73 139.72 146.50 L 139.64 145.52 C 139.54 144.29 138.47 143.37 137.24 143.47 C 136.01 143.56 135.09 144.64 135.18 145.87 Z M 135.26 146.84 L 135.34 147.84 C 135.43 149.07 136.50 149.99 137.73 149.90 C 138.96 149.81 139.88 148.74 139.79 147.51 L 139.71 146.51 C 139.62 145.28 138.55 144.36 137.32 144.45 C 136.09 144.54 135.17 145.61 135.26 146.84 Z M 135.34 147.83 L 135.42 148.86 C 135.50 150.09 136.56 151.01 137.79 150.92 C 139.02 150.84 139.94 149.77 139.85 148.55 L 139.78 147.52 C 139.70 146.29 138.63 145.37 137.41 145.46 C 136.18 145.54 135.26 146.61 135.34 147.83 Z M 135.42 148.85 L 135.49 149.86 C 135.57 151.08 136.62 152.01 137.85 151.93 C 139.07 151.85 139.99 150.79 139.91 149.57 L 139.85 148.56 C 139.77 147.34 138.71 146.41 137.49 146.49 C 136.27 146.57 135.34 147.63 135.42 148.85 Z M 135.49 149.85 L 135.56 150.85 C 135.63 152.07 136.68 153.00 137.90 152.92 C 139.12 152.85 140.04 151.80 139.97 150.58 L 139.91 149.58 C 139.83 148.36 138.78 147.43 137.57 147.51 C 136.35 147.58 135.42 148.63 135.49 149.85 Z M 135.56 150.84 L 135.62 151.85 C 135.69 153.07 136.73 153.99 137.94 153.92 C 139.16 153.86 140.09 152.82 140.02 151.60 L 139.96 150.59 C 139.89 149.38 138.85 148.45 137.64 148.52 C 136.42 148.59 135.50 149.63 135.56 150.84 Z M 135.63 151.84 L 135.68 152.84 C 135.75 154.05 136.78 154.98 137.99 154.92 C 139.19 154.85 140.12 153.82 140.06 152.61 L 140.01 151.61 C 139.95 150.40 138.91 149.47 137.71 149.54 C 136.50 149.60 135.57 150.63 135.63 151.84 Z M 135.69 152.83 L 135.74 153.82 C 135.79 155.02 136.82 155.96 138.02 155.90 C 139.22 155.84 140.15 154.82 140.10 153.62 L 140.05 152.63 C 140.00 151.42 138.97 150.49 137.77 150.55 C 136.56 150.60 135.63 151.63 135.69 152.83 Z M 135.75 153.81 L 135.79 154.84 C 135.84 156.04 136.85 156.97 138.05 156.93 C 139.25 156.88 140.18 155.86 140.13 154.67 L 140.09 153.63 C 140.04 152.43 139.03 151.50 137.83 151.55 C 136.63 151.60 135.70 152.61 135.75 153.81 Z M 135.80 154.83 L 135.83 155.83 C 135.87 157.03 136.87 157.96 138.07 157.92 C 139.26 157.88 140.20 156.88 140.16 155.69 L 140.12 154.68 C 140.08 153.49 139.08 152.55 137.89 152.59 C 136.69 152.63 135.76 153.63 135.80 154.83 Z M 135.84 155.82 L 135.87 156.80 C 135.90 157.99 136.89 158.93 138.08 158.90 C 139.27 158.87 140.21 157.88 140.18 156.69 L 140.15 155.70 C 140.12 154.51 139.13 153.57 137.94 153.61 C 136.75 153.64 135.81 154.63 135.84 155.82 Z M 135.88 156.79 L 135.89 157.75 C 135.92 158.94 136.90 159.88 138.08 159.86 C 139.27 159.83 140.21 158.85 140.19 157.67 L 140.17 156.70 C 140.14 155.52 139.16 154.57 137.98 154.60 C 136.79 154.62 135.85 155.60 135.88 156.79 Z M 135.90 157.74 L 135.91 158.75 C 135.93 159.93 136.90 160.88 138.08 160.86 C 139.26 160.85 140.21 159.88 140.19 158.70 L 140.18 157.69 C 140.17 156.50 139.20 155.56 138.01 155.57 C 136.83 155.59 135.89 156.56 135.90 157.74 Z M 135.92 158.74 L 135.92 159.74 C 135.93 160.93 136.89 161.88 138.07 161.87 C 139.25 161.86 140.20 160.90 140.20 159.72 L 140.19 158.71 C 140.18 157.53 139.22 156.58 138.04 156.59 C 136.86 156.60 135.91 157.56 135.92 158.74 Z M 135.92 159.74 L 135.93 160.73 C 135.93 161.91 136.89 162.86 138.07 162.86 C 139.25 162.86 140.20 161.90 140.20 160.72 L 140.19 159.73 C 140.19 158.55 139.23 157.59 138.05 157.60 C 136.88 157.60 135.92 158.56 135.92 159.74 Z M 135.93 160.73 L 135.93 161.71 C 135.93 162.89 136.89 163.84 138.06 163.84 C 139.24 163.84 140.20 162.89 140.19 161.71 L 140.19 160.73 C 140.19 159.55 139.24 158.59 138.06 158.59 C 136.88 158.59 135.93 159.55 135.93 160.73 Z M 135.93 161.71 L 135.93 162.73 C 135.93 163.91 136.89 164.86 138.06 164.86 C 139.24 164.86 140.19 163.91 140.19 162.73 L 140.19 161.71 C 140.19 160.53 139.24 159.58 138.06 159.58 C 136.89 159.58 135.93 160.53 135.93 161.71 Z M 135.93 162.73 L 135.93 163.74 C 135.93 164.91 136.89 165.87 138.06 165.87 C 139.24 165.87 140.19 164.91 140.19 163.74 L 140.19 162.73 C 140.19 161.56 139.24 160.60 138.06 160.60 C 136.89 160.60 135.93 161.56 135.93 162.73 Z M 135.94 163.74 L 135.94 164.73 C 135.94 165.90 136.89 166.86 138.06 166.86 C 139.24 166.86 140.19 165.90 140.19 164.73 L 140.19 163.74 C 140.19 162.56 139.24 161.61 138.06 161.61 C 136.89 161.61 135.94 162.56 135.94 163.74 Z M 135.94 164.73 L 135.94 165.72 C 135.94 166.89 136.89 167.84 138.06 167.84 C 139.24 167.84 140.19 166.89 140.19 165.72 L 140.19 164.73 C 140.19 163.56 139.24 162.60 138.06 162.60 C 136.89 162.60 135.94 163.56 135.94 164.73 Z M 135.95 165.72 L 135.95 166.75 C 135.95 167.92 136.89 168.87 138.06 168.87 C 139.23 168.87 140.18 167.92 140.18 166.75 L 140.18 165.72 C 140.18 164.55 139.23 163.60 138.06 163.60 C 136.89 163.60 135.95 164.55 135.95 165.72 Z M 135.96 166.75 L 135.96 167.75 C 135.96 168.91 136.90 169.86 138.06 169.86 C 139.23 169.86 140.17 168.91 140.17 167.75 L 140.17 166.75 C 140.17 165.59 139.23 164.64 138.06 164.64 C 136.90 164.64 135.96 165.59 135.96 166.75 Z M 135.97 167.75 L 135.97 168.72 C 135.97 169.88 136.90 170.82 138.06 170.82 C 139.22 170.82 140.16 169.88 140.16 168.72 L 140.16 167.75 C 140.16 166.59 139.22 165.65 138.06 165.65 C 136.90 165.65 135.97 166.59 135.97 167.75 Z M 135.98 168.72 L 135.98 169.74 C 135.98 170.89 136.91 171.82 138.06 171.82 C 139.21 171.82 140.15 170.89 140.15 169.74 L 140.15 168.72 C 140.15 167.57 139.21 166.64 138.06 166.64 C 136.91 166.64 135.98 167.57 135.98 168.72 Z M 135.99 169.74 L 135.99 170.74 C 135.99 171.88 136.92 172.81 138.06 172.81 C 139.21 172.81 140.13 171.88 140.13 170.74 L 140.13 169.74 C 140.13 168.59 139.21 167.66 138.06 167.66 C 136.92 167.66 135.99 168.59 135.99 169.74 Z M 136.01 170.74 L 136.01 171.72 C 136.01 172.85 136.93 173.77 138.06 173.77 C 139.20 173.77 140.12 172.85 140.12 171.72 L 140.12 170.74 C 140.12 169.60 139.20 168.68 138.06 168.68 C 136.93 168.68 136.01 169.60 136.01 170.74 Z M 136.02 171.72 L 136.02 172.76 C 136.02 173.88 136.94 174.80 138.06 174.80 C 139.19 174.80 140.10 173.88 140.10 172.76 L 140.10 171.72 C 140.10 170.59 139.19 169.68 138.06 169.68 C 136.94 169.68 136.02 170.59 136.02 171.72 Z M 136.04 172.76 L 136.04 173.79 C 136.04 174.91 136.95 175.81 138.06 175.81 C 139.18 175.81 140.08 174.91 140.08 173.79 L 140.08 172.76 C 140.08 171.64 139.18 170.74 138.06 170.74 C 136.95 170.74 136.04 171.64 136.04 172.76 Z M 136.06 173.79 L 136.06 174.73 C 136.06 175.83 136.96 176.73 138.06 176.73 C 139.17 176.73 140.06 175.83 140.06 174.73 L 140.06 173.79 C 140.06 172.68 139.17 171.79 138.06 171.79 C 136.96 171.79 136.06 172.68 136.06 173.79 Z M 136.08 174.73 L 136.08 175.74 C 136.08 176.84 136.97 177.72 138.06 177.72 C 139.16 177.72 140.04 176.84 140.04 175.74 L 140.04 174.73 C 140.04 173.63 139.16 172.75 138.06 172.75 C 136.97 172.75 136.08 173.63 136.08 174.73 Z M 136.10 175.74 L 136.10 176.71 C 136.10 177.79 136.98 178.67 138.06 178.67 C 139.15 178.67 140.02 177.79 140.02 176.71 L 140.02 175.74 C 140.02 174.66 139.15 173.78 138.06 173.78 C 136.98 173.78 136.10 174.66 136.10 175.74 Z M 136.12 176.70 L 136.12 177.71 C 136.12 178.78 136.99 179.65 138.06 179.65 C 139.13 179.65 140.00 178.78 140.00 177.71 L 140.00 176.71 C 140.01 175.64 139.14 174.77 138.06 174.76 C 136.99 174.76 136.12 175.63 136.12 176.70 Z M 136.14 177.69 L 136.13 178.71 C 136.11 179.77 136.96 180.65 138.02 180.66 C 139.09 180.67 139.96 179.82 139.97 178.76 L 139.98 177.73 C 140.00 176.67 139.15 175.80 138.09 175.79 C 137.02 175.78 136.15 176.63 136.14 177.69 Z M 136.15 178.64 L 136.10 179.68 C 136.05 180.73 136.85 181.62 137.90 181.67 C 138.94 181.73 139.84 180.92 139.89 179.88 L 139.94 178.83 C 140.00 177.79 139.19 176.90 138.15 176.84 C 137.10 176.79 136.21 177.59 136.15 178.64 Z M 136.19 179.30 L 135.95 180.22 C 135.68 181.21 136.28 182.24 137.27 182.50 C 138.27 182.76 139.29 182.17 139.55 181.18 L 139.80 180.26 C 140.06 179.26 139.47 178.24 138.47 177.98 C 137.48 177.71 136.46 178.30 136.19 179.30 Z M 136.43 179.42 L 135.80 180.08 C 135.09 180.81 135.11 181.97 135.84 182.67 C 136.57 183.38 137.73 183.36 138.43 182.63 L 139.07 181.97 C 139.77 181.25 139.75 180.08 139.03 179.38 C 138.30 178.68 137.14 178.69 136.43 179.42 Z M 136.20 179.79 L 135.37 180.28 C 134.50 180.78 134.21 181.89 134.71 182.76 C 135.22 183.62 136.33 183.91 137.19 183.41 L 138.03 182.92 C 138.89 182.41 139.19 181.30 138.68 180.44 C 138.18 179.58 137.07 179.28 136.20 179.79 Z"
      fill="black"
      fill-rule="nonzero" /><path d="M 116.26 164.31 L 117.16 164.63 C 118.28 165.04 119.52 164.45 119.92 163.33 C 120.33 162.21 119.75 160.97 118.62 160.56 L 117.73 160.24 C 116.61 159.83 115.37 160.41 114.96 161.54 C 114.56 162.66 115.14 163.90 116.26 164.31 Z M 117.51 164.80 L 118.49 164.97 C 119.71 165.18 120.86 164.37 121.07 163.15 C 121.29 161.93 120.47 160.77 119.25 160.56 L 118.27 160.39 C 117.05 160.18 115.90 161.00 115.69 162.21 C 115.47 163.43 116.29 164.59 117.51 164.80 Z M 118.85 165.04 L 119.79 165.04 C 121.04 165.05 122.06 164.05 122.08 162.79 C 122.09 161.54 121.08 160.51 119.82 160.50 L 118.89 160.50 C 117.64 160.49 116.61 161.49 116.60 162.75 C 116.59 164.00 117.60 165.02 118.85 165.04 Z M 119.97 165.04 L 121.06 164.96 C 122.31 164.87 123.25 163.78 123.16 162.53 C 123.07 161.28 121.98 160.34 120.73 160.43 L 119.64 160.50 C 118.39 160.60 117.45 161.68 117.54 162.94 C 117.63 164.19 118.72 165.13 119.97 165.04 Z M 121.15 164.95 L 122.17 164.84 C 123.41 164.70 124.31 163.58 124.17 162.33 C 124.03 161.08 122.91 160.19 121.67 160.32 L 120.64 160.44 C 119.40 160.58 118.50 161.70 118.64 162.95 C 118.78 164.19 119.90 165.09 121.15 164.95 Z M 122.20 164.82 L 123.22 164.69 C 124.45 164.53 125.33 163.40 125.17 162.17 C 125.02 160.93 123.89 160.06 122.65 160.22 L 121.63 160.34 C 120.40 160.50 119.52 161.63 119.68 162.86 C 119.84 164.10 120.96 164.97 122.20 164.82 Z M 123.22 164.67 L 124.19 164.55 C 125.41 164.39 126.28 163.27 126.12 162.04 C 125.97 160.82 124.84 159.95 123.62 160.11 L 122.65 160.23 C 121.42 160.39 120.56 161.51 120.72 162.74 C 120.87 163.96 122.00 164.83 123.22 164.67 Z M 124.16 164.51 L 125.22 164.39 C 126.43 164.25 127.29 163.15 127.15 161.95 C 127.01 160.74 125.91 159.87 124.70 160.02 L 123.65 160.14 C 122.44 160.28 121.57 161.38 121.72 162.58 C 121.86 163.79 122.95 164.66 124.16 164.51 Z M 125.19 164.34 L 126.14 164.23 C 127.32 164.11 128.17 163.05 128.04 161.87 C 127.92 160.69 126.86 159.84 125.68 159.97 L 124.73 160.07 C 123.55 160.20 122.70 161.25 122.83 162.43 C 122.96 163.61 124.01 164.46 125.19 164.34 Z M 126.14 164.18 L 127.09 164.08 C 128.24 163.95 129.06 162.92 128.94 161.77 C 128.81 160.62 127.78 159.79 126.63 159.91 L 125.68 160.02 C 124.53 160.15 123.70 161.18 123.83 162.33 C 123.96 163.48 124.99 164.31 126.14 164.18 Z M 127.08 164.05 L 128.08 163.94 C 129.21 163.81 130.02 162.79 129.90 161.66 C 129.77 160.53 128.75 159.71 127.62 159.84 L 126.63 159.95 C 125.50 160.07 124.68 161.09 124.81 162.23 C 124.93 163.36 125.95 164.17 127.08 164.05 Z M 128.05 163.91 L 129.06 163.81 C 130.18 163.70 131.00 162.70 130.88 161.58 C 130.77 160.46 129.77 159.65 128.65 159.76 L 127.64 159.86 C 126.52 159.97 125.71 160.97 125.82 162.09 C 125.93 163.21 126.93 164.03 128.05 163.91 Z M 129.04 163.79 L 130.04 163.70 C 131.14 163.60 131.96 162.62 131.86 161.51 C 131.76 160.41 130.78 159.59 129.67 159.69 L 128.68 159.78 C 127.57 159.88 126.75 160.86 126.85 161.96 C 126.95 163.07 127.93 163.89 129.04 163.79 Z M 130.04 163.68 L 131.04 163.59 C 132.13 163.49 132.94 162.52 132.84 161.42 C 132.74 160.33 131.77 159.52 130.68 159.62 L 129.67 159.71 C 128.58 159.81 127.77 160.78 127.87 161.88 C 127.97 162.97 128.94 163.78 130.04 163.68 Z M 131.05 163.56 L 132.07 163.46 C 133.15 163.35 133.94 162.38 133.83 161.30 C 133.72 160.22 132.76 159.43 131.67 159.54 L 130.66 159.65 C 129.58 159.75 128.79 160.72 128.90 161.80 C 129.01 162.88 129.97 163.67 131.05 163.56 Z M 132.07 163.43 L 133.05 163.33 C 134.12 163.23 134.89 162.28 134.79 161.21 C 134.68 160.14 133.73 159.37 132.66 159.47 L 131.68 159.57 C 130.61 159.68 129.84 160.63 129.94 161.69 C 130.05 162.76 131.00 163.54 132.07 163.43 Z M 133.02 163.31 L 134.01 163.22 C 135.06 163.14 135.85 162.21 135.76 161.16 C 135.67 160.11 134.75 159.33 133.69 159.41 L 132.70 159.50 C 131.65 159.59 130.87 160.51 130.95 161.56 C 131.04 162.61 131.96 163.39 133.02 163.31 Z M 133.98 163.20 L 134.98 163.13 C 136.02 163.05 136.80 162.15 136.73 161.12 C 136.65 160.08 135.75 159.30 134.72 159.37 L 133.72 159.44 C 132.69 159.52 131.90 160.41 131.98 161.45 C 132.05 162.49 132.95 163.27 133.98 163.20 Z M 134.99 163.10 L 135.99 163.02 C 137.01 162.95 137.77 162.06 137.70 161.04 C 137.62 160.02 136.73 159.25 135.71 159.33 L 134.71 159.40 C 133.69 159.48 132.92 160.37 133.00 161.39 C 133.08 162.41 133.97 163.17 134.99 163.10 Z M 136.00 163.00 L 137.01 162.91 C 138.02 162.83 138.76 161.94 138.68 160.93 C 138.59 159.92 137.70 159.18 136.69 159.26 L 135.69 159.35 C 134.68 159.44 133.94 160.32 134.02 161.33 C 134.11 162.34 135.00 163.09 136.00 163.00 Z M 137.00 162.90 L 138.00 162.82 C 139.00 162.73 139.74 161.85 139.66 160.85 C 139.57 159.85 138.69 159.11 137.69 159.19 L 136.70 159.28 C 135.70 159.36 134.95 160.24 135.04 161.24 C 135.12 162.24 136.00 162.99 137.00 162.90 Z M 137.98 162.81 L 138.98 162.73 C 139.98 162.66 140.73 161.79 140.65 160.79 C 140.57 159.79 139.70 159.05 138.71 159.12 L 137.71 159.20 C 136.71 159.28 135.96 160.15 136.04 161.14 C 136.12 162.14 136.99 162.88 137.98 162.81 Z M 138.97 162.73 L 139.96 162.66 C 140.95 162.59 141.70 161.72 141.63 160.73 C 141.56 159.74 140.70 158.99 139.70 159.06 L 138.72 159.13 C 137.72 159.20 136.98 160.06 137.05 161.06 C 137.12 162.05 137.98 162.80 138.97 162.73 Z M 139.96 162.65 L 140.95 162.58 C 141.95 162.51 142.69 161.65 142.62 160.66 C 142.55 159.67 141.69 158.92 140.70 158.99 L 139.71 159.06 C 138.71 159.13 137.97 159.99 138.04 160.98 C 138.11 161.98 138.97 162.72 139.96 162.65 Z M 140.95 162.58 L 141.36 162.55 C 142.35 162.48 143.10 161.62 143.03 160.63 C 142.96 159.64 142.10 158.89 141.11 158.96 L 140.70 158.99 C 139.71 159.06 138.96 159.92 139.03 160.91 C 139.10 161.90 139.96 162.65 140.95 162.58 Z"
      fill="black"
      fill-rule="nonzero" /><path d="M 161.67 112.36 L 161.54 113.34 C 161.39 114.48 162.19 115.53 163.34 115.68 C 164.48 115.83 165.53 115.03 165.68 113.88 L 165.81 112.91 C 165.96 111.77 165.15 110.72 164.01 110.57 C 162.87 110.42 161.82 111.22 161.67 112.36 Z M 161.40 113.50 L 161.35 114.50 C 161.29 115.72 162.23 116.76 163.45 116.82 C 164.67 116.88 165.71 115.94 165.77 114.72 L 165.82 113.72 C 165.88 112.50 164.94 111.46 163.72 111.40 C 162.50 111.34 161.46 112.28 161.40 113.50 Z M 161.29 114.71 L 161.34 115.69 C 161.40 116.94 162.46 117.91 163.71 117.85 C 164.96 117.79 165.93 116.73 165.87 115.48 L 165.83 114.50 C 165.77 113.25 164.71 112.28 163.46 112.34 C 162.20 112.40 161.23 113.46 161.29 114.71 Z M 161.34 115.75 L 161.42 116.78 C 161.51 118.03 162.60 118.97 163.85 118.87 C 165.10 118.78 166.04 117.69 165.94 116.44 L 165.87 115.41 C 165.77 114.16 164.69 113.23 163.44 113.32 C 162.19 113.41 161.25 114.50 161.34 115.75 Z M 161.43 116.75 L 161.48 117.71 C 161.56 118.95 162.63 119.90 163.88 119.83 C 165.12 119.75 166.07 118.68 166.00 117.44 L 165.94 116.48 C 165.86 115.23 164.79 114.28 163.55 114.35 C 162.30 114.43 161.35 115.50 161.43 116.75 Z M 161.49 117.66 L 161.53 118.69 C 161.58 119.93 162.63 120.90 163.87 120.85 C 165.11 120.80 166.08 119.75 166.03 118.51 L 165.99 117.48 C 165.94 116.24 164.89 115.27 163.65 115.32 C 162.41 115.37 161.44 116.42 161.49 117.66 Z M 161.55 118.65 L 161.57 119.66 C 161.59 120.89 162.61 121.87 163.85 121.84 C 165.08 121.82 166.06 120.80 166.04 119.56 L 166.02 118.55 C 165.99 117.32 164.97 116.34 163.73 116.36 C 162.50 116.39 161.52 117.41 161.55 118.65 Z M 161.59 119.63 L 161.60 120.64 C 161.61 121.86 162.61 122.84 163.83 122.83 C 165.06 122.82 166.04 121.82 166.02 120.60 L 166.01 119.59 C 166.00 118.37 165.00 117.39 163.78 117.40 C 162.56 117.41 161.58 118.41 161.59 119.63 Z M 161.63 120.64 L 161.64 121.64 C 161.65 122.85 162.64 123.82 163.84 123.81 C 165.05 123.79 166.02 122.80 166.01 121.60 L 166.00 120.60 C 165.99 119.39 165.00 118.42 163.79 118.43 C 162.58 118.44 161.61 119.43 161.63 120.64 Z M 161.67 121.66 L 161.69 122.71 C 161.71 123.89 162.69 124.84 163.88 124.82 C 165.07 124.80 166.01 123.82 165.99 122.63 L 165.97 121.58 C 165.95 120.39 164.97 119.45 163.78 119.47 C 162.59 119.49 161.65 120.47 161.67 121.66 Z M 161.73 122.71 L 161.75 123.70 C 161.78 124.86 162.74 125.79 163.91 125.76 C 165.07 125.74 166.00 124.77 165.97 123.61 L 165.95 122.62 C 165.93 121.46 164.96 120.53 163.80 120.56 C 162.63 120.58 161.71 121.55 161.73 122.71 Z M 161.80 123.68 L 161.82 124.69 C 161.84 125.82 162.77 126.73 163.91 126.71 C 165.05 126.69 165.95 125.76 165.94 124.62 L 165.92 123.62 C 165.90 122.48 164.97 121.57 163.83 121.59 C 162.69 121.61 161.79 122.55 161.80 123.68 Z M 161.89 124.69 L 161.91 125.69 C 161.93 126.79 162.84 127.66 163.94 127.64 C 165.04 127.62 165.91 126.71 165.89 125.61 L 165.87 124.61 C 165.84 123.51 164.93 122.64 163.84 122.67 C 162.74 122.69 161.87 123.60 161.89 124.69 Z M 161.99 125.77 L 162.05 126.75 C 162.12 127.81 163.03 128.61 164.08 128.54 C 165.14 128.47 165.94 127.56 165.87 126.50 L 165.81 125.53 C 165.74 124.47 164.83 123.67 163.78 123.74 C 162.72 123.81 161.92 124.72 161.99 125.77 Z M 162.12 126.85 L 162.24 127.84 C 162.36 128.85 163.28 129.58 164.30 129.46 C 165.32 129.34 166.04 128.41 165.92 127.39 L 165.80 126.41 C 165.68 125.39 164.76 124.66 163.74 124.79 C 162.72 124.91 162.00 125.83 162.12 126.85 Z M 162.28 127.87 L 162.33 128.25 C 162.47 129.25 163.39 129.94 164.39 129.80 C 165.38 129.66 166.07 128.74 165.93 127.75 L 165.88 127.36 C 165.74 126.37 164.82 125.68 163.83 125.82 C 162.83 125.95 162.14 126.87 162.28 127.87 Z"
      fill="black"
      fill-rule="nonzero" /><path d="M 169.62 113.57 L 169.62 114.58 C 169.62 115.78 170.59 116.75 171.79 116.74 C 172.99 116.74 173.95 115.77 173.95 114.58 L 173.95 113.56 C 173.95 112.36 172.98 111.40 171.78 111.40 C 170.59 111.40 169.62 112.37 169.62 113.57 Z M 169.55 114.60 L 169.56 115.60 C 169.57 116.84 170.58 117.83 171.82 117.82 C 173.05 117.81 174.04 116.80 174.03 115.56 L 174.02 114.56 C 174.01 113.32 173.00 112.33 171.77 112.34 C 170.53 112.35 169.54 113.36 169.55 114.60 Z M 169.49 115.64 L 169.51 116.63 C 169.54 117.90 170.60 118.91 171.88 118.88 C 173.15 118.85 174.16 117.79 174.13 116.52 L 174.10 115.53 C 174.07 114.26 173.01 113.25 171.74 113.28 C 170.47 113.31 169.46 114.37 169.49 115.64 Z M 169.48 116.68 L 169.53 117.70 C 169.59 118.99 170.69 119.99 171.98 119.93 C 173.27 119.87 174.27 118.77 174.21 117.47 L 174.16 116.46 C 174.10 115.17 173.00 114.17 171.71 114.23 C 170.42 114.29 169.42 115.39 169.48 116.68 Z M 169.53 117.74 L 169.60 118.75 C 169.69 120.04 170.80 121.01 172.09 120.92 C 173.38 120.84 174.36 119.72 174.27 118.43 L 174.20 117.43 C 174.11 116.14 173.00 115.17 171.71 115.25 C 170.42 115.34 169.45 116.45 169.53 117.74 Z M 169.62 118.76 L 169.70 119.74 C 169.79 121.02 170.90 121.97 172.18 121.88 C 173.45 121.79 174.41 120.68 174.32 119.40 L 174.25 118.42 C 174.15 117.14 173.04 116.19 171.77 116.28 C 170.49 116.37 169.53 117.48 169.62 118.76 Z M 169.74 119.72 L 169.81 120.75 C 169.89 122.01 170.97 122.96 172.22 122.88 C 173.48 122.79 174.43 121.71 174.34 120.46 L 174.28 119.42 C 174.19 118.17 173.11 117.22 171.86 117.30 C 170.61 117.38 169.66 118.46 169.74 119.72 Z M 169.89 120.72 L 169.94 121.75 C 170.00 122.96 171.04 123.89 172.25 123.83 C 173.45 123.76 174.38 122.73 174.32 121.52 L 174.26 120.49 C 174.20 119.28 173.17 118.35 171.96 118.42 C 170.75 118.48 169.82 119.51 169.89 120.72 Z M 170.03 121.73 L 170.08 122.66 C 170.13 123.81 171.11 124.71 172.27 124.66 C 173.42 124.60 174.32 123.62 174.27 122.46 L 174.22 121.54 C 174.17 120.38 173.19 119.49 172.03 119.54 C 170.88 119.59 169.98 120.57 170.03 121.73 Z M 170.17 122.64 L 170.22 123.72 C 170.27 124.82 171.20 125.68 172.30 125.63 C 173.40 125.58 174.26 124.65 174.21 123.55 L 174.17 122.48 C 174.12 121.37 173.19 120.52 172.09 120.56 C 170.98 120.61 170.13 121.54 170.17 122.64 Z M 170.32 123.69 L 170.34 124.61 C 170.38 125.66 171.25 126.48 172.30 126.45 C 173.35 126.42 174.18 125.54 174.14 124.50 L 174.12 123.58 C 174.08 122.53 173.21 121.70 172.16 121.73 C 171.11 121.76 170.29 122.64 170.32 123.69 Z M 170.41 124.57 L 170.42 125.58 C 170.43 126.59 171.26 127.41 172.27 127.40 C 173.29 127.39 174.10 126.56 174.09 125.54 L 174.08 124.54 C 174.07 123.52 173.24 122.70 172.23 122.71 C 171.21 122.72 170.40 123.56 170.41 124.57 Z M 170.44 125.56 L 170.44 126.50 C 170.44 127.50 171.25 128.31 172.26 128.31 C 173.26 128.31 174.07 127.50 174.07 126.50 L 174.07 125.56 C 174.07 124.55 173.26 123.74 172.25 123.74 C 171.25 123.74 170.44 124.56 170.44 125.56 Z M 170.45 126.50 L 170.45 127.51 C 170.45 128.51 171.26 129.32 172.25 129.32 C 173.25 129.32 174.06 128.51 174.06 127.51 L 174.06 126.50 C 174.06 125.50 173.25 124.69 172.25 124.69 C 171.26 124.69 170.45 125.50 170.45 126.50 Z M 170.45 127.51 L 170.45 128.48 C 170.45 129.47 171.26 130.28 172.25 130.28 C 173.25 130.28 174.06 129.47 174.06 128.48 L 174.06 127.51 C 174.06 126.52 173.25 125.71 172.25 125.71 C 171.26 125.71 170.45 126.52 170.45 127.51 Z M 170.45 128.48 L 170.45 129.50 C 170.45 130.49 171.26 131.30 172.25 131.30 C 173.25 131.30 174.06 130.49 174.06 129.50 L 174.06 128.48 C 174.06 127.48 173.25 126.68 172.25 126.68 C 171.26 126.68 170.45 127.48 170.45 128.48 Z M 170.45 129.50 L 170.45 130.24 C 170.45 131.24 171.26 132.04 172.25 132.04 C 173.25 132.04 174.05 131.24 174.05 130.24 L 174.05 129.50 C 174.05 128.51 173.25 127.70 172.25 127.70 C 171.26 127.70 170.45 128.51 170.45 129.50 Z"
      fill="black"
      fill-rule="nonzero" /><path d="M 150.15 118.36 L 150.01 119.38 C 149.86 120.54 150.68 121.61 151.84 121.76 C 153.00 121.92 154.06 121.10 154.22 119.94 L 154.35 118.92 C 154.51 117.76 153.69 116.70 152.53 116.54 C 151.37 116.39 150.30 117.20 150.15 118.36 Z M 150.01 119.97 L 150.14 120.88 C 150.31 122.04 151.39 122.85 152.55 122.68 C 153.72 122.51 154.53 121.43 154.36 120.27 L 154.22 119.35 C 154.06 118.19 152.97 117.38 151.81 117.55 C 150.64 117.72 149.84 118.80 150.01 119.97 Z M 150.48 121.76 L 150.98 122.51 C 151.64 123.48 152.96 123.74 153.94 123.08 C 154.91 122.43 155.17 121.10 154.51 120.13 L 154.01 119.38 C 153.36 118.41 152.03 118.15 151.06 118.81 C 150.08 119.46 149.82 120.79 150.48 121.76 Z M 151.35 122.91 L 152.20 123.65 C 153.08 124.42 154.42 124.33 155.19 123.45 C 155.96 122.57 155.87 121.24 154.99 120.47 L 154.14 119.72 C 153.26 118.95 151.93 119.04 151.16 119.92 C 150.39 120.80 150.48 122.14 151.35 122.91 Z M 152.37 123.75 L 153.19 124.34 C 154.13 125.01 155.43 124.80 156.11 123.87 C 156.78 122.94 156.57 121.63 155.64 120.96 L 154.82 120.37 C 153.88 119.69 152.58 119.90 151.90 120.84 C 151.23 121.77 151.44 123.07 152.37 123.75 Z M 153.29 124.35 L 154.16 124.93 C 155.10 125.55 156.37 125.29 156.99 124.35 C 157.61 123.41 157.35 122.14 156.41 121.52 L 155.54 120.95 C 154.60 120.33 153.33 120.58 152.71 121.53 C 152.09 122.47 152.35 123.73 153.29 124.35 Z M 154.25 124.93 L 155.12 125.45 C 156.06 126.03 157.28 125.73 157.85 124.79 C 158.43 123.85 158.13 122.62 157.19 122.05 L 156.32 121.52 C 155.38 120.95 154.16 121.25 153.58 122.19 C 153.01 123.13 153.31 124.35 154.25 124.93 Z M 155.24 125.44 L 156.17 125.94 C 157.10 126.44 158.26 126.09 158.77 125.16 C 159.27 124.22 158.92 123.06 157.98 122.56 L 157.06 122.06 C 156.13 121.56 154.97 121.91 154.46 122.84 C 153.96 123.78 154.31 124.94 155.24 125.44 Z M 156.28 125.91 L 156.81 126.16 C 157.72 126.59 158.82 126.21 159.26 125.29 C 159.69 124.38 159.31 123.28 158.39 122.84 L 157.87 122.59 C 156.95 122.15 155.86 122.54 155.42 123.46 C 154.98 124.37 155.37 125.47 156.28 125.91 Z"
      fill="black"
      fill-rule="nonzero" /><path d="M 182.10 120.03 L 181.86 121.01 C 181.57 122.17 182.28 123.35 183.45 123.64 C 184.61 123.92 185.79 123.21 186.07 122.05 L 186.32 121.06 C 186.60 119.90 185.89 118.73 184.73 118.44 C 183.57 118.15 182.39 118.86 182.10 120.03 Z M 181.90 120.45 L 181.45 121.30 C 180.86 122.44 181.29 123.85 182.43 124.45 C 183.57 125.05 184.98 124.61 185.58 123.47 L 186.03 122.61 C 186.63 121.47 186.19 120.07 185.05 119.47 C 183.91 118.87 182.50 119.31 181.90 120.45 Z M 181.88 120.68 L 181.16 121.37 C 180.22 122.27 180.19 123.77 181.09 124.71 C 181.99 125.65 183.48 125.69 184.43 124.79 L 185.15 124.10 C 186.09 123.19 186.13 121.70 185.22 120.76 C 184.32 119.81 182.83 119.78 181.88 120.68 Z M 181.45 121.24 L 180.68 121.80 C 179.66 122.54 179.44 123.97 180.19 124.99 C 180.93 126.00 182.36 126.23 183.37 125.48 L 184.14 124.92 C 185.16 124.18 185.38 122.75 184.64 121.73 C 183.89 120.71 182.47 120.49 181.45 121.24 Z M 180.83 121.84 L 179.96 122.42 C 178.96 123.08 178.69 124.42 179.35 125.42 C 180.02 126.41 181.36 126.68 182.36 126.02 L 183.23 125.44 C 184.22 124.78 184.49 123.43 183.83 122.44 C 183.17 121.44 181.82 121.17 180.83 121.84 Z M 180.04 122.49 L 179.19 123.03 C 178.24 123.65 177.96 124.92 178.57 125.88 C 179.19 126.83 180.46 127.11 181.42 126.50 L 182.27 125.95 C 183.23 125.34 183.50 124.06 182.89 123.11 C 182.27 122.15 181.00 121.87 180.04 122.49 Z M 179.26 123.10 L 178.40 123.63 C 177.48 124.21 177.20 125.43 177.77 126.35 C 178.35 127.27 179.57 127.55 180.49 126.97 L 181.35 126.44 C 182.27 125.86 182.55 124.64 181.98 123.72 C 181.40 122.80 180.18 122.52 179.26 123.10 Z M 178.48 123.67 L 177.59 124.20 C 176.69 124.73 176.39 125.89 176.92 126.80 C 177.45 127.70 178.61 127.99 179.51 127.46 L 180.41 126.93 C 181.31 126.40 181.61 125.24 181.07 124.34 C 180.54 123.44 179.38 123.14 178.48 123.67 Z M 177.68 124.22 L 176.85 124.66 C 175.96 125.14 175.63 126.25 176.10 127.14 C 176.58 128.03 177.69 128.37 178.58 127.89 L 179.41 127.45 C 180.30 126.97 180.64 125.86 180.16 124.97 C 179.69 124.08 178.58 123.74 177.68 124.22 Z M 176.92 124.66 L 176.04 125.10 C 175.15 125.54 174.79 126.62 175.23 127.51 C 175.67 128.40 176.75 128.77 177.64 128.33 L 178.52 127.89 C 179.41 127.45 179.77 126.37 179.33 125.48 C 178.89 124.59 177.81 124.22 176.92 124.66 Z M 176.07 125.08 L 175.16 125.52 C 174.26 125.94 173.87 127.02 174.30 127.91 C 174.72 128.81 175.80 129.20 176.70 128.77 L 177.61 128.34 C 178.51 127.91 178.90 126.84 178.47 125.94 C 178.05 125.04 176.97 124.66 176.07 125.08 Z M 175.17 125.51 L 174.26 125.93 C 173.36 126.35 172.97 127.42 173.39 128.32 C 173.81 129.22 174.88 129.62 175.78 129.20 L 176.68 128.78 C 177.58 128.36 177.98 127.29 177.56 126.39 C 177.14 125.49 176.07 125.09 175.17 125.51 Z M 174.27 125.93 L 173.75 126.17 C 172.85 126.58 172.45 127.65 172.87 128.56 C 173.29 129.46 174.36 129.85 175.26 129.44 L 175.77 129.20 C 176.68 128.78 177.07 127.71 176.65 126.81 C 176.24 125.91 175.17 125.51 174.27 125.93 Z"
      fill="black"
      fill-rule="nonzero" /><path d="M 151.24 132.14 L 150.96 133.08 C 150.63 134.22 151.28 135.42 152.43 135.76 C 153.57 136.10 154.77 135.44 155.11 134.30 L 155.38 133.35 C 155.72 132.21 155.07 131.01 153.92 130.67 C 152.78 130.34 151.58 130.99 151.24 132.14 Z M 151.69 135.67 L 152.35 136.11 C 153.44 136.86 154.93 136.58 155.67 135.48 C 156.42 134.39 156.13 132.90 155.04 132.16 L 154.38 131.71 C 153.29 130.96 151.80 131.25 151.06 132.34 C 150.31 133.43 150.60 134.92 151.69 135.67 Z M 153.30 136.60 L 154.36 136.76 C 155.72 136.98 156.99 136.05 157.21 134.69 C 157.42 133.33 156.50 132.05 155.14 131.84 L 154.08 131.67 C 152.72 131.46 151.45 132.39 151.23 133.75 C 151.02 135.11 151.94 136.38 153.30 136.60 Z M 154.59 136.83 L 155.71 136.90 C 157.11 136.99 158.31 135.93 158.40 134.53 C 158.49 133.14 157.43 131.93 156.03 131.85 L 154.91 131.77 C 153.51 131.69 152.31 132.75 152.22 134.14 C 152.13 135.54 153.19 136.74 154.59 136.83 Z M 155.82 136.92 L 156.80 136.94 C 158.20 136.97 159.37 135.86 159.40 134.45 C 159.43 133.04 158.31 131.88 156.91 131.85 L 155.93 131.82 C 154.52 131.79 153.35 132.91 153.32 134.32 C 153.29 135.73 154.41 136.89 155.82 136.92 Z M 156.85 136.95 L 157.78 136.95 C 159.19 136.95 160.33 135.81 160.33 134.40 C 160.34 132.99 159.19 131.85 157.79 131.84 L 156.85 131.84 C 155.44 131.84 154.30 132.98 154.30 134.39 C 154.30 135.80 155.44 136.95 156.85 136.95 Z M 157.78 136.95 L 158.80 136.95 C 160.21 136.95 161.35 135.80 161.35 134.40 C 161.35 132.99 160.21 131.84 158.80 131.84 L 157.78 131.84 C 156.37 131.84 155.23 132.99 155.23 134.40 C 155.23 135.80 156.37 136.95 157.78 136.95 Z M 158.80 136.95 L 159.77 136.95 C 161.18 136.95 162.33 135.80 162.33 134.40 C 162.33 132.99 161.18 131.84 159.77 131.84 L 158.80 131.84 C 157.39 131.84 156.24 132.99 156.24 134.40 C 156.24 135.80 157.39 136.95 158.80 136.95 Z M 159.77 136.95 L 160.79 136.95 C 162.20 136.95 163.34 135.80 163.34 134.40 C 163.34 132.99 162.20 131.85 160.79 131.85 L 159.77 131.85 C 158.37 131.85 157.22 132.99 157.22 134.40 C 157.22 135.80 158.37 136.95 159.77 136.95 Z M 160.80 136.93 L 161.78 136.93 C 163.18 136.92 164.32 135.78 164.31 134.38 C 164.30 132.98 163.17 131.85 161.76 131.86 L 160.78 131.86 C 159.38 131.87 158.25 133.01 158.26 134.41 C 158.26 135.81 159.40 136.94 160.80 136.93 Z M 161.83 136.90 L 162.85 136.88 C 164.24 136.85 165.33 135.70 165.30 134.32 C 165.27 132.93 164.13 131.83 162.74 131.86 L 161.72 131.88 C 160.34 131.91 159.24 133.06 159.27 134.45 C 159.30 135.83 160.44 136.93 161.83 136.90 Z M 162.92 136.85 L 163.90 136.80 C 165.27 136.73 166.32 135.57 166.26 134.20 C 166.19 132.83 165.03 131.78 163.66 131.85 L 162.68 131.89 C 161.31 131.96 160.25 133.12 160.32 134.49 C 160.39 135.86 161.55 136.91 162.92 136.85 Z M 163.96 136.76 L 164.97 136.69 C 166.32 136.59 167.33 135.41 167.23 134.06 C 167.13 132.72 165.96 131.71 164.61 131.81 L 163.60 131.88 C 162.25 131.98 161.24 133.16 161.34 134.50 C 161.44 135.85 162.62 136.86 163.96 136.76 Z M 165.02 136.65 L 165.99 136.55 C 167.32 136.43 168.29 135.25 168.16 133.92 C 168.04 132.60 166.86 131.63 165.53 131.75 L 164.56 131.85 C 163.24 131.97 162.27 133.15 162.39 134.48 C 162.52 135.80 163.70 136.77 165.02 136.65 Z M 166.00 136.51 L 167.01 136.41 C 168.31 136.28 169.26 135.11 169.12 133.81 C 168.99 132.51 167.83 131.56 166.53 131.69 L 165.52 131.79 C 164.22 131.93 163.27 133.09 163.41 134.39 C 163.54 135.70 164.70 136.64 166.00 136.51 Z M 166.98 136.37 L 167.99 136.27 C 169.27 136.15 170.21 135.02 170.09 133.74 C 169.97 132.46 168.84 131.52 167.56 131.64 L 166.55 131.73 C 165.27 131.85 164.33 132.99 164.45 134.27 C 164.57 135.55 165.70 136.49 166.98 136.37 Z M 167.97 136.23 L 168.98 136.14 C 170.23 136.03 171.16 134.93 171.05 133.68 C 170.95 132.42 169.84 131.49 168.59 131.60 L 167.58 131.69 C 166.33 131.79 165.40 132.90 165.51 134.15 C 165.61 135.40 166.72 136.33 167.97 136.23 Z M 168.98 136.09 L 169.97 136.00 C 171.20 135.89 172.10 134.81 171.99 133.58 C 171.88 132.36 170.80 131.45 169.58 131.56 L 168.58 131.65 C 167.36 131.76 166.45 132.84 166.56 134.07 C 166.67 135.29 167.76 136.20 168.98 136.09 Z M 170.00 135.95 L 171.01 135.85 C 172.21 135.73 173.08 134.65 172.96 133.45 C 172.84 132.25 171.76 131.38 170.56 131.51 L 169.55 131.61 C 168.35 131.73 167.48 132.81 167.60 134.01 C 167.73 135.20 168.80 136.08 170.00 135.95 Z M 171.03 135.81 L 172.01 135.70 C 173.19 135.56 174.03 134.50 173.90 133.33 C 173.77 132.15 172.70 131.30 171.53 131.44 L 170.55 131.55 C 169.37 131.68 168.52 132.74 168.66 133.92 C 168.79 135.10 169.85 135.94 171.03 135.81 Z M 172.01 135.66 L 173.00 135.55 C 174.15 135.41 174.98 134.37 174.85 133.21 C 174.72 132.06 173.67 131.23 172.52 131.36 L 171.53 131.47 C 170.37 131.61 169.54 132.65 169.67 133.81 C 169.81 134.96 170.85 135.79 172.01 135.66 Z M 172.99 135.51 L 173.99 135.39 C 175.12 135.26 175.94 134.24 175.81 133.10 C 175.68 131.97 174.65 131.15 173.52 131.28 L 172.52 131.40 C 171.39 131.53 170.57 132.55 170.70 133.69 C 170.83 134.82 171.86 135.64 172.99 135.51 Z M 173.99 135.36 L 174.99 135.24 C 176.10 135.11 176.90 134.10 176.77 132.98 C 176.64 131.87 175.63 131.07 174.52 131.20 L 173.52 131.32 C 172.40 131.45 171.60 132.46 171.73 133.57 C 171.87 134.69 172.87 135.49 173.99 135.36 Z M 174.99 135.20 L 175.99 135.09 C 177.08 134.96 177.87 133.97 177.74 132.87 C 177.61 131.77 176.62 130.99 175.52 131.12 L 174.52 131.24 C 173.42 131.37 172.64 132.36 172.77 133.45 C 172.90 134.55 173.89 135.33 174.99 135.20 Z M 175.97 135.05 L 176.96 134.94 C 178.04 134.82 178.81 133.85 178.69 132.77 C 178.57 131.69 177.59 130.92 176.52 131.04 L 175.53 131.15 C 174.46 131.27 173.68 132.25 173.80 133.32 C 173.92 134.40 174.90 135.18 175.97 135.05 Z M 176.94 134.91 L 177.95 134.80 C 179.01 134.69 179.78 133.74 179.67 132.68 C 179.55 131.62 178.60 130.85 177.54 130.96 L 176.53 131.07 C 175.47 131.18 174.71 132.14 174.82 133.20 C 174.93 134.26 175.88 135.02 176.94 134.91 Z M 177.95 134.77 L 178.92 134.67 C 179.97 134.56 180.72 133.63 180.61 132.58 C 180.50 131.54 179.57 130.78 178.52 130.89 L 177.55 131.00 C 176.50 131.11 175.75 132.04 175.86 133.08 C 175.97 134.13 176.90 134.88 177.95 134.77 Z M 178.93 134.64 L 179.92 134.53 C 180.95 134.42 181.69 133.50 181.58 132.47 C 181.47 131.44 180.54 130.70 179.52 130.81 L 178.52 130.92 C 177.49 131.03 176.75 131.96 176.87 132.98 C 176.98 134.01 177.90 134.75 178.93 134.64 Z M 179.92 134.50 L 180.90 134.40 C 181.91 134.29 182.65 133.38 182.54 132.37 C 182.43 131.35 181.52 130.62 180.50 130.73 L 179.52 130.84 C 178.51 130.95 177.78 131.86 177.89 132.87 C 178.00 133.88 178.91 134.61 179.92 134.50 Z M 180.88 134.38 L 181.87 134.28 C 182.87 134.19 183.61 133.29 183.51 132.29 C 183.41 131.29 182.52 130.56 181.52 130.66 L 180.53 130.75 C 179.53 130.85 178.79 131.74 178.89 132.74 C 178.99 133.74 179.88 134.48 180.88 134.38 Z M 181.82 134.27 L 182.82 134.20 C 183.82 134.13 184.57 133.27 184.50 132.27 C 184.43 131.28 183.57 130.53 182.57 130.60 L 181.57 130.67 C 180.58 130.73 179.82 131.60 179.89 132.59 C 179.96 133.59 180.83 134.34 181.82 134.27 Z M 182.78 134.20 L 183.78 134.15 C 184.77 134.11 185.54 133.26 185.50 132.27 C 185.45 131.28 184.61 130.51 183.61 130.55 L 182.61 130.60 C 181.62 130.65 180.85 131.49 180.89 132.48 C 180.94 133.48 181.78 134.25 182.78 134.20 Z M 183.77 134.15 L 184.01 134.14 C 185.01 134.10 185.78 133.26 185.74 132.27 C 185.70 131.28 184.86 130.50 183.87 130.54 L 183.62 130.55 C 182.63 130.59 181.86 131.43 181.90 132.43 C 181.94 133.42 182.77 134.19 183.77 134.15 Z"
      fill="black"
      fill-rule="nonzero" /><path d="M 161.37 133.00 L 161.30 134.01 C 161.22 135.21 162.12 136.25 163.32 136.33 C 164.53 136.41 165.56 135.51 165.65 134.31 L 165.71 133.29 C 165.80 132.09 164.89 131.05 163.69 130.97 C 162.49 130.89 161.45 131.80 161.37 133.00 Z M 161.28 134.06 L 161.24 134.99 C 161.18 136.20 162.12 137.23 163.33 137.28 C 164.54 137.34 165.56 136.40 165.62 135.19 L 165.66 134.26 C 165.72 133.05 164.78 132.02 163.57 131.97 C 162.36 131.91 161.33 132.85 161.28 134.06 Z M 161.22 135.17 L 161.25 136.05 C 161.29 137.27 162.31 138.23 163.53 138.19 C 164.75 138.14 165.71 137.12 165.67 135.90 L 165.64 135.02 C 165.60 133.80 164.57 132.84 163.35 132.88 C 162.13 132.92 161.18 133.95 161.22 135.17 Z M 161.26 136.31 L 161.43 137.42 C 161.62 138.63 162.75 139.46 163.97 139.28 C 165.18 139.09 166.01 137.96 165.82 136.74 L 165.65 135.64 C 165.47 134.43 164.33 133.59 163.12 133.78 C 161.91 133.97 161.08 135.10 161.26 136.31 Z M 161.45 137.55 L 161.65 138.45 C 161.91 139.65 163.09 140.42 164.29 140.16 C 165.49 139.90 166.26 138.72 166.00 137.52 L 165.80 136.61 C 165.55 135.41 164.36 134.65 163.16 134.91 C 161.96 135.16 161.19 136.35 161.45 137.55 Z M 161.66 138.50 L 161.90 139.51 C 162.18 140.70 163.38 141.44 164.58 141.16 C 165.77 140.87 166.51 139.67 166.23 138.48 L 165.99 137.47 C 165.70 136.28 164.50 135.54 163.31 135.82 C 162.11 136.10 161.37 137.30 161.66 138.50 Z M 161.91 139.53 L 162.16 140.56 C 162.46 141.76 163.67 142.48 164.86 142.18 C 166.05 141.89 166.77 140.68 166.48 139.49 L 166.22 138.45 C 165.92 137.26 164.72 136.54 163.52 136.84 C 162.33 137.13 161.61 138.34 161.91 139.53 Z M 162.19 140.57 L 162.46 141.63 C 162.76 142.80 163.95 143.52 165.13 143.22 C 166.30 142.92 167.02 141.73 166.72 140.55 L 166.45 139.49 C 166.15 138.31 164.96 137.60 163.78 137.90 C 162.60 138.20 161.89 139.39 162.19 140.57 Z M 162.53 141.61 L 162.78 142.63 C 163.07 143.77 164.23 144.46 165.37 144.17 C 166.51 143.89 167.20 142.73 166.91 141.59 L 166.65 140.57 C 166.36 139.43 165.21 138.74 164.07 139.03 C 162.93 139.31 162.24 140.47 162.53 141.61 Z M 162.87 142.60 L 163.09 143.52 C 163.36 144.62 164.47 145.29 165.56 145.02 C 166.66 144.75 167.32 143.64 167.06 142.55 L 166.83 141.62 C 166.56 140.53 165.45 139.86 164.36 140.13 C 163.26 140.40 162.60 141.50 162.87 142.60 Z M 163.17 143.48 L 163.39 144.41 C 163.63 145.46 164.69 146.11 165.74 145.87 C 166.79 145.62 167.44 144.57 167.20 143.51 L 166.98 142.59 C 166.73 141.54 165.68 140.88 164.63 141.13 C 163.58 141.38 162.92 142.43 163.17 143.48 Z M 163.44 144.36 L 163.66 145.36 C 163.88 146.38 164.89 147.03 165.91 146.81 C 166.93 146.59 167.58 145.58 167.36 144.56 L 167.14 143.56 C 166.92 142.54 165.91 141.89 164.89 142.11 C 163.87 142.33 163.22 143.34 163.44 144.36 Z M 163.71 145.33 L 163.90 146.26 C 164.10 147.25 165.07 147.89 166.06 147.69 C 167.06 147.49 167.70 146.52 167.50 145.53 L 167.31 144.59 C 167.10 143.60 166.13 142.96 165.14 143.16 C 164.15 143.36 163.51 144.33 163.71 145.33 Z M 163.93 146.25 L 163.95 146.35 C 164.15 147.33 165.10 147.96 166.07 147.76 C 167.05 147.57 167.69 146.62 167.49 145.64 L 167.47 145.54 C 167.27 144.56 166.32 143.93 165.34 144.12 C 164.36 144.32 163.73 145.27 163.93 146.25 Z"
      fill="black"
      fill-rule="nonzero" /><path d="M 172.38 135.40 L 172.57 136.37 C 172.80 137.57 173.96 138.36 175.16 138.13 C 176.36 137.90 177.15 136.74 176.92 135.54 L 176.74 134.57 C 176.51 133.37 175.34 132.58 174.14 132.81 C 172.94 133.04 172.15 134.20 172.38 135.40 Z M 172.49 136.19 L 172.59 137.19 C 172.72 138.43 173.83 139.34 175.08 139.21 C 176.33 139.08 177.23 137.97 177.10 136.72 L 177.00 135.72 C 176.87 134.47 175.76 133.57 174.51 133.70 C 173.27 133.83 172.36 134.94 172.49 136.19 Z M 172.60 136.88 L 172.56 137.88 C 172.52 139.12 173.49 140.16 174.74 140.20 C 175.98 140.25 177.02 139.27 177.06 138.03 L 177.10 137.03 C 177.14 135.79 176.17 134.75 174.93 134.70 C 173.68 134.66 172.64 135.63 172.60 136.88 Z M 172.69 137.52 L 172.49 138.48 C 172.25 139.66 173.01 140.80 174.18 141.04 C 175.35 141.28 176.50 140.52 176.74 139.35 L 176.94 138.39 C 177.18 137.22 176.42 136.07 175.25 135.83 C 174.07 135.59 172.93 136.35 172.69 137.52 Z M 172.70 138.18 L 172.35 139.10 C 171.94 140.16 172.47 141.35 173.53 141.75 C 174.58 142.16 175.77 141.63 176.18 140.57 L 176.53 139.65 C 176.94 138.60 176.41 137.41 175.35 137.00 C 174.29 136.60 173.11 137.12 172.70 138.18 Z M 172.53 138.98 L 172.08 139.88 C 171.61 140.84 172.00 142.00 172.96 142.47 C 173.92 142.95 175.08 142.55 175.55 141.60 L 176.00 140.70 C 176.47 139.74 176.08 138.58 175.12 138.10 C 174.16 137.63 173.00 138.02 172.53 138.98 Z M 172.18 139.85 L 171.70 140.72 C 171.21 141.63 171.55 142.76 172.45 143.26 C 173.36 143.75 174.49 143.41 174.98 142.50 L 175.46 141.63 C 175.95 140.72 175.61 139.59 174.71 139.10 C 173.80 138.60 172.67 138.94 172.18 139.85 Z M 171.75 140.72 L 171.33 141.48 C 170.84 142.35 171.15 143.47 172.03 143.96 C 172.91 144.45 174.02 144.13 174.51 143.26 L 174.93 142.50 C 175.42 141.63 175.11 140.52 174.23 140.02 C 173.35 139.53 172.24 139.85 171.75 140.72 Z"
      fill="black"
      fill-rule="nonzero" /><path d="M 155.98 150.28 L 156.91 150.54 C 158.08 150.85 159.28 150.17 159.60 149.00 C 159.92 147.83 159.23 146.63 158.06 146.31 L 157.13 146.06 C 155.96 145.74 154.76 146.43 154.44 147.60 C 154.12 148.76 154.81 149.97 155.98 150.28 Z M 157.05 150.69 L 158.06 150.88 C 159.31 151.13 160.52 150.31 160.76 149.06 C 161.01 147.81 160.19 146.60 158.94 146.36 L 157.93 146.16 C 156.68 145.92 155.47 146.74 155.22 147.99 C 154.98 149.24 155.80 150.45 157.05 150.69 Z M 158.29 150.96 L 159.30 151.05 C 160.59 151.17 161.74 150.22 161.85 148.92 C 161.97 147.63 161.02 146.49 159.72 146.37 L 158.71 146.28 C 157.42 146.16 156.27 147.12 156.16 148.41 C 156.04 149.70 156.99 150.85 158.29 150.96 Z M 159.43 151.04 L 160.43 151.07 C 161.72 151.12 162.79 150.11 162.84 148.82 C 162.88 147.54 161.87 146.46 160.59 146.42 L 159.59 146.39 C 158.30 146.34 157.23 147.35 157.18 148.63 C 157.14 149.92 158.15 151.00 159.43 151.04 Z M 160.48 151.04 L 161.52 151.05 C 162.78 151.07 163.82 150.05 163.84 148.78 C 163.85 147.52 162.84 146.48 161.57 146.46 L 160.54 146.45 C 159.27 146.44 158.23 147.45 158.21 148.72 C 158.20 149.99 159.22 151.03 160.48 151.04 Z M 161.54 151.01 L 162.49 151.01 C 163.73 151.01 164.74 150.01 164.74 148.76 C 164.75 147.52 163.74 146.51 162.50 146.51 L 161.55 146.51 C 160.30 146.51 159.29 147.51 159.29 148.75 C 159.29 150.00 160.30 151.01 161.54 151.01 Z M 162.49 150.97 L 163.48 150.97 C 164.70 150.97 165.69 149.98 165.69 148.76 C 165.69 147.54 164.70 146.55 163.48 146.55 L 162.49 146.55 C 161.27 146.55 160.29 147.54 160.29 148.76 C 160.29 149.98 161.27 150.97 162.49 150.97 Z M 163.48 150.93 L 164.49 150.93 C 165.68 150.93 166.65 149.96 166.65 148.76 C 166.65 147.56 165.68 146.59 164.49 146.59 L 163.48 146.59 C 162.29 146.59 161.32 147.56 161.32 148.76 C 161.32 149.96 162.29 150.93 163.48 150.93 Z M 164.49 150.89 L 165.49 150.89 C 166.66 150.89 167.61 149.93 167.61 148.76 C 167.61 147.59 166.66 146.63 165.49 146.63 L 164.49 146.63 C 163.31 146.63 162.36 147.59 162.36 148.76 C 162.36 149.93 163.31 150.89 164.49 150.89 Z M 165.49 150.84 L 166.49 150.84 C 167.64 150.84 168.57 149.91 168.57 148.76 C 168.57 147.61 167.64 146.67 166.49 146.68 L 165.48 146.68 C 164.33 146.68 163.40 147.61 163.40 148.76 C 163.40 149.91 164.33 150.84 165.49 150.84 Z M 166.50 150.80 L 167.50 150.80 C 168.63 150.79 169.54 149.87 169.53 148.74 C 169.53 147.61 168.61 146.70 167.48 146.71 L 166.48 146.72 C 165.35 146.72 164.44 147.64 164.44 148.77 C 164.45 149.90 165.37 150.81 166.50 150.80 Z M 167.53 150.75 L 168.54 150.73 C 169.64 150.71 170.52 149.80 170.50 148.70 C 170.48 147.59 169.56 146.72 168.46 146.74 L 167.45 146.75 C 166.35 146.78 165.47 147.69 165.49 148.79 C 165.51 149.90 166.42 150.77 167.53 150.75 Z M 168.56 150.69 L 169.56 150.66 C 170.63 150.62 171.48 149.72 171.45 148.65 C 171.42 147.57 170.52 146.72 169.44 146.75 L 168.44 146.78 C 167.36 146.82 166.51 147.72 166.55 148.79 C 166.58 149.87 167.48 150.72 168.56 150.69 Z M 169.56 150.61 L 170.55 150.58 C 171.61 150.54 172.43 149.66 172.39 148.61 C 172.36 147.55 171.48 146.73 170.42 146.76 L 169.43 146.80 C 168.38 146.83 167.55 147.72 167.59 148.77 C 167.63 149.82 168.51 150.65 169.56 150.61 Z M 170.57 150.54 L 171.57 150.50 C 172.60 150.45 173.40 149.58 173.36 148.55 C 173.31 147.52 172.44 146.72 171.41 146.76 L 170.41 146.80 C 169.38 146.85 168.58 147.72 168.62 148.75 C 168.66 149.78 169.53 150.58 170.57 150.54 Z M 171.59 150.47 L 172.53 150.42 C 173.55 150.36 174.33 149.49 174.27 148.48 C 174.22 147.46 173.35 146.69 172.33 146.74 L 171.39 146.79 C 170.37 146.85 169.60 147.71 169.65 148.73 C 169.71 149.74 170.57 150.52 171.59 150.47 Z M 172.52 150.40 L 173.54 150.35 C 174.55 150.30 175.32 149.45 175.28 148.45 C 175.23 147.44 174.38 146.66 173.37 146.71 L 172.35 146.76 C 171.34 146.81 170.57 147.66 170.61 148.66 C 170.66 149.67 171.51 150.44 172.52 150.40 Z M 173.50 150.34 L 174.49 150.31 C 175.49 150.29 176.28 149.46 176.25 148.46 C 176.23 147.46 175.40 146.67 174.40 146.70 L 173.41 146.72 C 172.42 146.75 171.63 147.58 171.65 148.57 C 171.67 149.57 172.50 150.36 173.50 150.34 Z M 174.46 150.31 L 175.46 150.30 C 176.46 150.29 177.26 149.48 177.25 148.48 C 177.24 147.49 176.43 146.69 175.43 146.69 L 174.43 146.70 C 173.43 146.71 172.63 147.52 172.64 148.52 C 172.65 149.52 173.46 150.32 174.46 150.31 Z M 175.45 150.30 L 176.49 150.30 C 177.48 150.30 178.29 149.49 178.29 148.49 C 178.29 147.50 177.48 146.69 176.48 146.70 L 175.45 146.70 C 174.45 146.70 173.65 147.51 173.65 148.50 C 173.65 149.49 174.46 150.30 175.45 150.30 Z"
      fill="black"
      fill-rule="nonzero" /><path d="M 152.58 158.22 L 153.19 158.99 C 153.90 159.90 155.21 160.06 156.12 159.35 C 157.03 158.64 157.19 157.32 156.48 156.41 L 155.88 155.64 C 155.17 154.73 153.85 154.57 152.94 155.28 C 152.03 155.99 151.87 157.31 152.58 158.22 Z M 153.70 159.65 L 154.53 160.13 C 155.60 160.75 156.98 160.39 157.61 159.31 C 158.23 158.24 157.87 156.86 156.79 156.23 L 155.96 155.75 C 154.89 155.13 153.51 155.49 152.89 156.57 C 152.26 157.64 152.63 159.02 153.70 159.65 Z M 155.28 160.47 L 156.21 160.62 C 157.48 160.83 158.67 159.97 158.88 158.71 C 159.09 157.44 158.23 156.25 156.97 156.04 L 156.03 155.89 C 154.77 155.68 153.58 156.54 153.37 157.80 C 153.16 159.07 154.02 160.26 155.28 160.47 Z M 156.51 160.65 L 157.60 160.69 C 158.89 160.74 159.96 159.73 160.01 158.45 C 160.05 157.17 159.05 156.09 157.77 156.05 L 156.67 156.01 C 155.39 155.97 154.31 156.97 154.27 158.25 C 154.22 159.53 155.23 160.61 156.51 160.65 Z M 157.67 160.69 L 158.72 160.70 C 160.00 160.70 161.05 159.67 161.05 158.39 C 161.06 157.11 160.03 156.07 158.75 156.06 L 157.70 156.05 C 156.42 156.04 155.37 157.08 155.37 158.36 C 155.36 159.64 156.39 160.68 157.67 160.69 Z M 158.76 160.69 L 159.77 160.68 C 161.04 160.66 162.07 159.62 162.05 158.34 C 162.04 157.07 161.00 156.04 159.72 156.06 L 158.71 156.07 C 157.44 156.08 156.41 157.13 156.43 158.40 C 156.44 159.68 157.48 160.70 158.76 160.69 Z M 159.84 160.66 L 160.85 160.62 C 162.12 160.56 163.10 159.49 163.04 158.22 C 162.99 156.95 161.92 155.97 160.65 156.03 L 159.64 156.07 C 158.38 156.13 157.39 157.20 157.45 158.47 C 157.50 159.73 158.58 160.72 159.84 160.66 Z M 160.97 160.59 L 161.94 160.49 C 163.20 160.37 164.11 159.26 163.99 158.01 C 163.87 156.76 162.76 155.84 161.51 155.96 L 160.53 156.06 C 159.28 156.18 158.36 157.29 158.48 158.54 C 158.60 159.79 159.71 160.71 160.97 160.59 Z M 161.99 160.46 L 162.94 160.35 C 164.17 160.21 165.05 159.09 164.91 157.85 C 164.76 156.62 163.64 155.74 162.41 155.88 L 161.46 155.99 C 160.23 156.14 159.35 157.26 159.49 158.49 C 159.64 159.73 160.76 160.61 161.99 160.46 Z M 162.91 160.33 L 163.91 160.23 C 165.13 160.10 166.02 159.00 165.89 157.77 C 165.76 156.55 164.66 155.66 163.43 155.79 L 162.43 155.90 C 161.21 156.03 160.32 157.13 160.45 158.35 C 160.58 159.58 161.68 160.47 162.91 160.33 Z M 163.87 160.21 L 164.87 160.12 C 166.08 160.01 166.97 158.94 166.86 157.72 C 166.76 156.51 165.68 155.62 164.47 155.72 L 163.47 155.81 C 162.26 155.92 161.37 156.99 161.47 158.21 C 161.58 159.42 162.66 160.31 163.87 160.21 Z M 164.85 160.09 L 165.84 160.00 C 167.04 159.91 167.93 158.86 167.83 157.66 C 167.73 156.46 166.68 155.57 165.49 155.67 L 164.49 155.75 C 163.29 155.85 162.40 156.90 162.50 158.10 C 162.60 159.29 163.65 160.18 164.85 160.09 Z M 165.84 159.97 L 166.83 159.89 C 168.01 159.79 168.88 158.76 168.78 157.58 C 168.69 156.41 167.66 155.53 166.48 155.63 L 165.49 155.71 C 164.32 155.81 163.44 156.84 163.54 158.01 C 163.63 159.19 164.66 160.06 165.84 159.97 Z M 166.82 159.84 L 167.76 159.77 C 168.91 159.68 169.78 158.68 169.69 157.53 C 169.60 156.38 168.60 155.52 167.45 155.60 L 166.50 155.67 C 165.35 155.76 164.49 156.77 164.57 157.92 C 164.66 159.07 165.67 159.93 166.82 159.84 Z M 167.72 159.72 L 168.71 159.66 C 169.84 159.60 170.70 158.64 170.63 157.52 C 170.57 156.39 169.61 155.53 168.49 155.60 L 167.49 155.65 C 166.37 155.71 165.51 156.68 165.57 157.80 C 165.63 158.92 166.60 159.78 167.72 159.72 Z M 168.65 159.62 L 169.67 159.59 C 170.76 159.56 171.63 158.65 171.60 157.55 C 171.57 156.45 170.66 155.59 169.56 155.61 L 168.55 155.64 C 167.45 155.67 166.58 156.58 166.61 157.68 C 166.64 158.78 167.55 159.65 168.65 159.62 Z M 169.63 159.56 L 170.64 159.55 C 171.71 159.54 172.58 158.66 172.57 157.58 C 172.56 156.50 171.68 155.63 170.60 155.64 L 169.60 155.65 C 168.52 155.66 167.65 156.54 167.66 157.62 C 167.67 158.70 168.55 159.56 169.63 159.56 Z M 170.62 159.51 L 171.66 159.51 C 172.72 159.51 173.58 158.65 173.58 157.59 C 173.57 156.53 172.71 155.67 171.65 155.67 L 170.62 155.67 C 169.56 155.68 168.70 156.54 168.70 157.60 C 168.70 158.66 169.56 159.52 170.62 159.51 Z M 171.66 159.48 L 172.71 159.48 C 173.75 159.48 174.59 158.63 174.59 157.59 C 174.59 156.55 173.75 155.71 172.71 155.71 L 171.66 155.71 C 170.61 155.71 169.77 156.55 169.77 157.59 C 169.77 158.63 170.61 159.48 171.66 159.48 Z M 172.71 159.44 L 173.69 159.44 C 174.71 159.44 175.54 158.62 175.54 157.59 C 175.54 156.57 174.71 155.74 173.69 155.74 L 172.71 155.74 C 171.69 155.74 170.86 156.57 170.86 157.59 C 170.86 158.62 171.69 159.44 172.71 159.44 Z M 173.69 159.42 L 174.68 159.42 C 175.69 159.42 176.51 158.60 176.51 157.59 C 176.51 156.59 175.69 155.77 174.68 155.77 L 173.69 155.77 C 172.69 155.77 171.87 156.59 171.87 157.59 C 171.87 158.60 172.69 159.42 173.69 159.42 Z M 174.68 159.40 L 175.68 159.40 C 176.68 159.40 177.49 158.59 177.49 157.59 C 177.49 156.59 176.68 155.78 175.68 155.78 L 174.68 155.78 C 173.69 155.78 172.88 156.59 172.88 157.59 C 172.88 158.59 173.69 159.40 174.68 159.40 Z M 175.68 159.40 L 176.22 159.40 C 177.21 159.40 178.02 158.59 178.02 157.59 C 178.02 156.60 177.21 155.79 176.22 155.79 L 175.68 155.79 C 174.68 155.79 173.88 156.60 173.88 157.59 C 173.88 158.59 174.68 159.40 175.68 159.40 Z"
      fill="black"
      fill-rule="nonzero" /><path d="M 149.91 169.03 L 150.80 169.28 C 151.92 169.58 153.07 168.93 153.37 167.81 C 153.68 166.70 153.02 165.55 151.91 165.24 L 151.02 165.00 C 149.91 164.69 148.76 165.35 148.45 166.46 C 148.15 167.58 148.80 168.73 149.91 169.03 Z M 151.01 169.51 L 152.06 169.67 C 153.31 169.86 154.47 169.00 154.65 167.76 C 154.84 166.52 153.99 165.36 152.75 165.17 L 151.70 165.01 C 150.45 164.82 149.29 165.68 149.11 166.92 C 148.92 168.16 149.77 169.32 151.01 169.51 Z M 152.29 169.78 L 153.29 169.82 C 154.59 169.89 155.70 168.88 155.76 167.58 C 155.83 166.28 154.82 165.17 153.52 165.11 L 152.52 165.06 C 151.22 165.00 150.11 166.00 150.05 167.30 C 149.98 168.61 150.99 169.71 152.29 169.78 Z M 153.39 169.84 L 154.42 169.84 C 155.73 169.85 156.79 168.79 156.80 167.48 C 156.81 166.17 155.75 165.11 154.44 165.10 L 153.41 165.10 C 152.11 165.09 151.04 166.15 151.03 167.46 C 151.03 168.76 152.08 169.83 153.39 169.84 Z M 154.47 169.84 L 155.52 169.82 C 156.82 169.80 157.87 168.72 157.84 167.41 C 157.82 166.10 156.74 165.06 155.43 165.08 L 154.39 165.10 C 153.08 165.13 152.04 166.21 152.06 167.51 C 152.09 168.82 153.16 169.86 154.47 169.84 Z M 155.58 169.80 L 156.54 169.76 C 157.83 169.70 158.84 168.61 158.78 167.31 C 158.73 166.01 157.63 165.01 156.33 165.06 L 155.37 165.11 C 154.08 165.16 153.07 166.26 153.13 167.55 C 153.18 168.85 154.28 169.85 155.58 169.80 Z M 156.61 169.73 L 157.56 169.66 C 158.84 169.57 159.80 168.45 159.71 167.17 C 159.62 165.89 158.50 164.92 157.21 165.02 L 156.26 165.09 C 154.98 165.18 154.02 166.30 154.11 167.58 C 154.21 168.87 155.32 169.83 156.61 169.73 Z M 157.61 169.65 L 158.61 169.55 C 159.89 169.43 160.82 168.30 160.70 167.02 C 160.58 165.75 159.45 164.82 158.17 164.94 L 157.17 165.03 C 155.89 165.16 154.96 166.29 155.08 167.56 C 155.20 168.83 156.33 169.77 157.61 169.65 Z M 158.64 169.54 L 159.63 169.43 C 160.90 169.29 161.81 168.16 161.68 166.89 C 161.54 165.63 160.41 164.71 159.14 164.85 L 158.15 164.95 C 156.88 165.09 155.97 166.22 156.10 167.49 C 156.24 168.76 157.37 169.67 158.64 169.54 Z M 159.64 169.42 L 160.64 169.30 C 161.90 169.16 162.80 168.03 162.66 166.77 C 162.52 165.52 161.39 164.61 160.13 164.75 L 159.13 164.86 C 157.88 165.00 156.97 166.13 157.11 167.39 C 157.25 168.65 158.38 169.56 159.64 169.42 Z M 160.64 169.29 L 161.64 169.18 C 162.89 169.04 163.79 167.91 163.65 166.66 C 163.51 165.41 162.39 164.51 161.14 164.65 L 160.13 164.76 C 158.88 164.91 157.98 166.03 158.12 167.28 C 158.26 168.53 159.39 169.43 160.64 169.29 Z M 161.64 169.16 L 162.63 169.05 C 163.87 168.91 164.76 167.80 164.63 166.56 C 164.49 165.32 163.38 164.43 162.14 164.56 L 161.15 164.67 C 159.91 164.81 159.01 165.92 159.15 167.16 C 159.28 168.40 160.40 169.29 161.64 169.16 Z M 162.61 169.02 L 163.61 168.92 C 164.83 168.79 165.73 167.70 165.60 166.48 C 165.47 165.25 164.38 164.36 163.15 164.49 L 162.16 164.59 C 160.93 164.71 160.04 165.81 160.17 167.03 C 160.29 168.26 161.39 169.15 162.61 169.02 Z M 163.58 168.90 L 164.57 168.81 C 165.78 168.69 166.67 167.62 166.56 166.41 C 166.45 165.20 165.38 164.31 164.17 164.42 L 163.18 164.51 C 161.97 164.62 161.08 165.69 161.19 166.90 C 161.30 168.12 162.37 169.01 163.58 168.90 Z M 164.54 168.78 L 165.54 168.70 C 166.73 168.61 167.63 167.56 167.53 166.36 C 167.44 165.17 166.39 164.27 165.19 164.37 L 164.20 164.45 C 163.00 164.54 162.11 165.59 162.20 166.78 C 162.30 167.98 163.34 168.87 164.54 168.78 Z M 165.51 168.67 L 166.51 168.61 C 167.70 168.53 168.59 167.51 168.51 166.33 C 168.44 165.15 167.42 164.25 166.24 164.33 L 165.23 164.40 C 164.05 164.47 163.15 165.49 163.23 166.67 C 163.31 167.85 164.33 168.75 165.51 168.67 Z M 166.49 168.57 L 167.50 168.51 C 168.66 168.45 169.55 167.46 169.48 166.29 C 169.42 165.13 168.43 164.25 167.27 164.31 L 166.26 164.37 C 165.10 164.43 164.21 165.42 164.27 166.58 C 164.34 167.75 165.33 168.63 166.49 168.57 Z M 167.49 168.47 L 168.48 168.42 C 169.62 168.36 170.50 167.39 170.44 166.25 C 170.38 165.11 169.40 164.23 168.26 164.30 L 167.27 164.35 C 166.13 164.41 165.26 165.38 165.32 166.52 C 165.38 167.66 166.35 168.54 167.49 168.47 Z M 168.48 168.39 L 169.51 168.33 C 170.62 168.27 171.48 167.31 171.42 166.19 C 171.36 165.07 170.40 164.21 169.28 164.28 L 168.26 164.33 C 167.14 164.39 166.28 165.35 166.35 166.47 C 166.41 167.59 167.37 168.45 168.48 168.39 Z M 169.49 168.30 L 170.47 168.25 C 171.57 168.20 172.42 167.27 172.37 166.16 C 172.32 165.06 171.38 164.21 170.28 164.26 L 169.30 164.31 C 168.20 164.36 167.35 165.29 167.40 166.39 C 167.45 167.50 168.38 168.35 169.49 168.30 Z M 170.42 168.22 L 171.42 168.19 C 172.51 168.17 173.37 167.27 173.34 166.19 C 173.31 165.10 172.41 164.24 171.33 164.27 L 170.33 164.30 C 169.24 164.32 168.39 165.22 168.41 166.30 C 168.44 167.39 169.34 168.25 170.42 168.22 Z M 171.39 168.16 L 172.39 168.16 C 173.45 168.15 174.31 167.28 174.30 166.22 C 174.30 165.15 173.43 164.29 172.36 164.30 L 171.37 164.30 C 170.30 164.31 169.44 165.18 169.45 166.24 C 169.45 167.31 170.32 168.17 171.39 168.16 Z M 172.37 168.13 L 173.38 168.13 C 174.43 168.13 175.28 167.28 175.28 166.23 C 175.28 165.18 174.43 164.33 173.38 164.33 L 172.37 164.33 C 171.33 164.33 170.48 165.18 170.48 166.23 C 170.48 167.28 171.33 168.13 172.37 168.13 Z M 173.38 168.10 L 174.37 168.10 C 175.41 168.10 176.25 167.26 176.25 166.23 C 176.25 165.19 175.41 164.36 174.37 164.36 L 173.38 164.36 C 172.34 164.36 171.51 165.19 171.51 166.23 C 171.51 167.26 172.34 168.10 173.38 168.10 Z M 174.37 168.07 L 175.38 168.07 C 176.40 168.07 177.22 167.25 177.22 166.23 C 177.22 165.21 176.40 164.38 175.38 164.38 L 174.37 164.38 C 173.36 164.38 172.53 165.21 172.53 166.23 C 172.53 167.25 173.36 168.07 174.37 168.07 Z M 175.38 168.05 L 176.38 168.05 C 177.39 168.05 178.20 167.24 178.20 166.23 C 178.20 165.22 177.39 164.40 176.38 164.40 L 175.38 164.40 C 174.37 164.40 173.55 165.22 173.55 166.23 C 173.55 167.24 174.37 168.05 175.38 168.05 Z M 176.38 168.04 L 177.32 168.04 C 178.32 168.04 179.14 167.23 179.14 166.23 C 179.14 165.22 178.32 164.41 177.32 164.41 L 176.38 164.41 C 175.37 164.41 174.56 165.22 174.56 166.23 C 174.56 167.23 175.37 168.04 176.38 168.04 Z M 177.32 168.03 L 178.30 168.03 C 179.30 168.03 180.11 167.22 180.11 166.23 C 180.11 165.23 179.30 164.42 178.30 164.42 L 177.32 164.42 C 176.32 164.42 175.51 165.23 175.51 166.23 C 175.51 167.22 176.32 168.03 177.32 168.03 Z M 178.30 168.03 L 179.31 168.03 C 180.31 168.03 181.11 167.22 181.11 166.23 C 181.11 165.23 180.31 164.43 179.31 164.43 L 178.30 164.43 C 177.31 164.43 176.50 165.23 176.50 166.23 C 176.50 167.22 177.31 168.03 178.30 168.03 Z M 179.31 168.03 L 180.29 168.03 C 181.28 168.03 182.09 167.22 182.09 166.23 C 182.09 165.23 181.28 164.43 180.29 164.43 L 179.31 164.43 C 178.32 164.43 177.51 165.23 177.51 166.23 C 177.51 167.22 178.32 168.03 179.31 168.03 Z M 180.29 168.03 L 181.34 168.03 C 182.33 168.03 183.14 167.22 183.14 166.23 C 183.14 165.23 182.33 164.43 181.34 164.43 L 180.29 164.43 C 179.30 164.43 178.49 165.23 178.49 166.23 C 178.49 167.22 179.30 168.03 180.29 168.03 Z M 181.34 168.03 L 181.76 168.03 C 182.76 168.03 183.56 167.22 183.56 166.23 C 183.56 165.23 182.76 164.43 181.76 164.43 L 181.34 164.43 C 180.35 164.43 179.54 165.23 179.54 166.23 C 179.54 167.22 180.35 168.03 181.34 168.03 Z"
      fill="black"
      fill-rule="nonzero" /><path d="M 166.01 150.42 L 165.33 151.09 C 164.51 151.92 164.50 153.26 165.33 154.09 C 166.15 154.92 167.49 154.92 168.32 154.10 L 169.00 153.43 C 169.83 152.60 169.83 151.26 169.00 150.43 C 168.18 149.60 166.84 149.60 166.01 150.42 Z M 164.86 151.46 L 164.34 152.36 C 163.71 153.45 164.09 154.84 165.17 155.46 C 166.26 156.09 167.65 155.72 168.28 154.63 L 168.80 153.73 C 169.43 152.64 169.05 151.25 167.97 150.62 C 166.88 150.00 165.49 150.37 164.86 151.46 Z M 164.01 152.95 L 163.78 153.90 C 163.48 155.17 164.26 156.45 165.53 156.75 C 166.80 157.05 168.08 156.27 168.38 155.00 L 168.61 154.04 C 168.91 152.77 168.13 151.50 166.86 151.19 C 165.59 150.89 164.31 151.67 164.01 152.95 Z M 163.70 154.18 L 163.59 155.21 C 163.44 156.53 164.39 157.71 165.70 157.86 C 167.02 158.01 168.20 157.06 168.35 155.74 L 168.46 154.71 C 168.61 153.39 167.66 152.21 166.35 152.06 C 165.03 151.92 163.85 152.87 163.70 154.18 Z M 163.55 155.30 L 163.48 156.35 C 163.38 157.69 164.39 158.85 165.72 158.94 C 167.05 159.04 168.21 158.03 168.31 156.70 L 168.38 155.65 C 168.48 154.32 167.48 153.16 166.14 153.06 C 164.81 152.97 163.65 153.97 163.55 155.30 Z M 163.46 156.33 L 163.39 157.30 C 163.28 158.64 164.28 159.82 165.62 159.92 C 166.96 160.03 168.14 159.03 168.25 157.69 L 168.32 156.72 C 168.43 155.38 167.43 154.20 166.09 154.10 C 164.75 153.99 163.57 154.99 163.46 156.33 Z M 163.38 157.26 L 163.29 158.19 C 163.17 159.53 164.15 160.73 165.49 160.85 C 166.84 160.98 168.03 160.00 168.16 158.65 L 168.25 157.73 C 168.38 156.38 167.39 155.19 166.05 155.06 C 164.70 154.93 163.51 155.92 163.38 157.26 Z M 163.29 158.15 L 163.18 159.16 C 163.03 160.50 164.00 161.71 165.35 161.86 C 166.69 162.01 167.90 161.04 168.05 159.69 L 168.16 158.69 C 168.31 157.34 167.34 156.14 165.99 155.99 C 164.65 155.84 163.44 156.81 163.29 158.15 Z M 163.18 159.13 L 163.06 160.11 C 162.90 161.46 163.86 162.68 165.20 162.84 C 166.54 163.01 167.77 162.05 167.93 160.70 L 168.05 159.72 C 168.21 158.38 167.26 157.16 165.91 156.99 C 164.57 156.83 163.35 157.79 163.18 159.13 Z M 163.06 160.10 L 162.94 161.10 C 162.77 162.45 163.72 163.67 165.07 163.84 C 166.41 164.01 167.64 163.06 167.81 161.71 L 167.93 160.71 C 168.10 159.37 167.15 158.14 165.80 157.97 C 164.46 157.81 163.23 158.76 163.06 160.10 Z M 162.94 161.12 L 162.82 162.11 C 162.66 163.45 163.62 164.67 164.96 164.83 C 166.31 164.99 167.53 164.03 167.69 162.69 L 167.81 161.70 C 167.97 160.35 167.01 159.13 165.66 158.97 C 164.32 158.81 163.10 159.77 162.94 161.12 Z M 162.82 162.12 L 162.70 163.11 C 162.55 164.45 163.51 165.67 164.85 165.83 C 166.20 165.98 167.42 165.02 167.57 163.68 L 167.69 162.68 C 167.85 161.34 166.88 160.12 165.54 159.96 C 164.19 159.81 162.98 160.77 162.82 162.12 Z M 162.71 163.09 L 162.58 164.10 C 162.42 165.44 163.37 166.66 164.71 166.83 C 166.06 166.99 167.28 166.04 167.45 164.70 L 167.57 163.69 C 167.73 162.35 166.78 161.13 165.44 160.96 C 164.10 160.80 162.87 161.75 162.71 163.09 Z M 162.59 164.07 L 162.46 165.05 C 162.28 166.39 163.21 167.62 164.55 167.80 C 165.89 167.98 167.12 167.05 167.30 165.71 L 167.44 164.73 C 167.62 163.39 166.68 162.15 165.34 161.97 C 164.01 161.79 162.77 162.73 162.59 164.07 Z M 162.47 165.02 L 162.32 166.02 C 162.12 167.35 163.04 168.60 164.37 168.80 C 165.70 168.99 166.95 168.07 167.15 166.74 L 167.29 165.74 C 167.49 164.40 166.57 163.16 165.24 162.96 C 163.91 162.76 162.67 163.68 162.47 165.02 Z M 162.33 165.99 L 162.17 166.97 C 161.95 168.30 162.86 169.55 164.18 169.77 C 165.51 169.98 166.76 169.08 166.97 167.75 L 167.13 166.77 C 167.35 165.44 166.45 164.19 165.12 163.98 C 163.79 163.76 162.54 164.67 162.33 165.99 Z M 162.18 166.96 L 162.01 167.95 C 161.79 169.27 162.68 170.52 164.00 170.75 C 165.33 170.97 166.58 170.08 166.80 168.75 L 166.96 167.77 C 167.19 166.44 166.29 165.19 164.97 164.97 C 163.65 164.75 162.40 165.64 162.18 166.96 Z M 162.02 167.96 L 161.86 168.95 C 161.64 170.26 162.53 171.51 163.85 171.73 C 165.16 171.94 166.41 171.05 166.62 169.74 L 166.79 168.75 C 167.01 167.43 166.12 166.19 164.80 165.97 C 163.48 165.75 162.24 166.64 162.02 167.96 Z M 161.87 168.96 L 161.71 169.94 C 161.50 171.25 162.39 172.48 163.70 172.69 C 165.01 172.91 166.24 172.02 166.45 170.71 L 166.61 169.73 C 166.82 168.42 165.93 167.19 164.63 166.97 C 163.32 166.76 162.08 167.65 161.87 168.96 Z M 161.73 169.93 L 161.57 170.92 C 161.35 172.22 162.23 173.45 163.53 173.66 C 164.82 173.88 166.05 173.00 166.27 171.71 L 166.43 170.72 C 166.65 169.42 165.77 168.19 164.47 167.97 C 163.18 167.76 161.95 168.63 161.73 169.93 Z M 161.60 170.90 L 161.42 171.90 C 161.19 173.18 162.04 174.40 163.32 174.63 C 164.60 174.86 165.83 174.01 166.06 172.73 L 166.24 171.73 C 166.47 170.45 165.62 169.22 164.34 168.99 C 163.05 168.76 161.83 169.61 161.60 170.90 Z M 161.46 171.87 L 161.27 172.87 C 161.02 174.13 161.85 175.35 163.10 175.59 C 164.36 175.83 165.58 175.01 165.83 173.75 L 166.02 172.75 C 166.26 171.50 165.44 170.28 164.18 170.03 C 162.92 169.79 161.70 170.61 161.46 171.87 Z M 161.31 172.86 L 161.11 173.82 C 160.87 175.05 161.67 176.26 162.90 176.51 C 164.14 176.75 165.34 175.95 165.59 174.72 L 165.78 173.76 C 166.03 172.52 165.23 171.32 163.99 171.07 C 162.76 170.82 161.55 171.62 161.31 172.86 Z M 161.15 173.81 L 160.94 174.84 C 160.69 176.06 161.47 177.25 162.69 177.50 C 163.90 177.75 165.09 176.97 165.34 175.75 L 165.56 174.72 C 165.81 173.50 165.02 172.31 163.81 172.06 C 162.59 171.81 161.40 172.60 161.15 173.81 Z M 160.97 174.83 L 160.77 175.77 C 160.51 176.97 161.27 178.15 162.47 178.41 C 163.67 178.67 164.85 177.91 165.11 176.71 L 165.31 175.76 C 165.57 174.57 164.81 173.39 163.61 173.13 C 162.41 172.87 161.23 173.63 160.97 174.83 Z M 160.81 175.74 L 160.58 176.72 C 160.30 177.90 161.03 179.08 162.21 179.35 C 163.38 179.63 164.56 178.90 164.84 177.73 L 165.07 176.74 C 165.34 175.57 164.61 174.39 163.44 174.11 C 162.26 173.83 161.08 174.56 160.81 175.74 Z M 160.62 176.69 L 160.38 177.64 C 160.08 178.79 160.77 179.96 161.93 180.26 C 163.08 180.56 164.25 179.86 164.55 178.71 L 164.79 177.76 C 165.09 176.61 164.39 175.43 163.24 175.14 C 162.09 174.84 160.91 175.54 160.62 176.69 Z M 160.42 177.62 L 160.17 178.54 C 159.86 179.66 160.53 180.82 161.65 181.13 C 162.78 181.44 163.94 180.78 164.25 179.65 L 164.50 178.73 C 164.81 177.60 164.15 176.44 163.02 176.13 C 161.89 175.82 160.73 176.49 160.42 177.62 Z M 160.23 178.52 L 159.94 179.52 C 159.63 180.61 160.26 181.76 161.36 182.07 C 162.46 182.38 163.60 181.75 163.91 180.65 L 164.20 179.66 C 164.51 178.56 163.88 177.42 162.78 177.11 C 161.68 176.79 160.54 177.43 160.23 178.52 Z M 159.99 179.51 L 159.71 180.46 C 159.40 181.53 160.01 182.65 161.08 182.97 C 162.15 183.28 163.27 182.67 163.58 181.60 L 163.86 180.65 C 164.18 179.59 163.57 178.46 162.50 178.15 C 161.43 177.83 160.31 178.45 159.99 179.51 Z M 159.77 180.44 L 159.46 181.42 C 159.14 182.46 159.72 183.57 160.76 183.89 C 161.79 184.22 162.90 183.64 163.23 182.60 L 163.53 181.62 C 163.86 180.58 163.28 179.48 162.24 179.15 C 161.20 178.83 160.09 179.41 159.77 180.44 Z M 159.53 181.37 L 159.19 182.35 C 158.84 183.35 159.37 184.45 160.37 184.80 C 161.37 185.15 162.46 184.62 162.82 183.62 L 163.16 182.64 C 163.51 181.64 162.98 180.55 161.98 180.20 C 160.98 179.84 159.88 180.37 159.53 181.37 Z M 159.27 182.31 L 158.91 183.22 C 158.54 184.18 159.01 185.26 159.97 185.63 C 160.93 186.00 162.01 185.53 162.38 184.57 L 162.74 183.66 C 163.11 182.70 162.64 181.62 161.68 181.25 C 160.72 180.88 159.64 181.35 159.27 182.31 Z M 158.96 183.21 L 158.83 183.54 C 158.45 184.47 158.90 185.53 159.83 185.90 C 160.76 186.28 161.82 185.83 162.20 184.90 L 162.33 184.58 C 162.71 183.65 162.26 182.59 161.33 182.21 C 160.40 181.83 159.34 182.28 158.96 183.21 Z"
      fill="black"
      fill-rule="nonzero" /><path d="M 166.33 175.24 L 167.33 175.23 C 168.49 175.22 169.41 174.28 169.41 173.13 C 169.40 171.97 168.46 171.04 167.30 171.05 L 166.30 171.06 C 165.15 171.06 164.22 172.01 164.22 173.16 C 164.23 174.31 165.17 175.24 166.33 175.24 Z M 167.07 175.38 L 168.06 175.49 C 169.30 175.62 170.41 174.73 170.55 173.49 C 170.68 172.25 169.79 171.14 168.55 171.01 L 167.56 170.90 C 166.33 170.76 165.21 171.66 165.08 172.89 C 164.94 174.13 165.84 175.25 167.07 175.38 Z M 167.54 175.49 L 168.45 175.80 C 169.69 176.23 171.04 175.57 171.46 174.33 C 171.88 173.09 171.22 171.74 169.98 171.31 L 169.07 171.00 C 167.83 170.58 166.48 171.24 166.06 172.48 C 165.63 173.72 166.30 175.07 167.54 175.49 Z M 167.99 175.64 L 168.84 176.14 C 169.99 176.81 171.47 176.43 172.14 175.28 C 172.82 174.13 172.43 172.65 171.29 171.98 L 170.44 171.48 C 169.29 170.80 167.81 171.19 167.14 172.34 C 166.46 173.48 166.84 174.96 167.99 175.64 Z M 168.62 175.99 L 169.45 176.62 C 170.52 177.42 172.03 177.20 172.83 176.13 C 173.63 175.06 173.41 173.55 172.35 172.75 L 171.51 172.12 C 170.44 171.32 168.93 171.54 168.13 172.61 C 167.33 173.68 167.55 175.19 168.62 175.99 Z M 169.36 176.55 L 170.17 177.21 C 171.20 178.06 172.72 177.91 173.57 176.88 C 174.42 175.85 174.27 174.33 173.24 173.48 L 172.43 172.82 C 171.40 171.97 169.88 172.11 169.03 173.15 C 168.18 174.18 168.33 175.70 169.36 176.55 Z M 170.13 177.18 L 170.90 177.84 C 171.91 178.71 173.44 178.59 174.31 177.58 C 175.18 176.57 175.06 175.04 174.05 174.17 L 173.28 173.51 C 172.27 172.64 170.74 172.76 169.87 173.77 C 169.00 174.79 169.12 176.31 170.13 177.18 Z M 170.88 177.83 L 171.63 178.48 C 172.64 179.35 174.16 179.25 175.04 178.24 C 175.92 177.23 175.81 175.71 174.80 174.83 L 174.06 174.18 C 173.05 173.30 171.52 173.41 170.65 174.42 C 169.77 175.42 169.88 176.95 170.88 177.83 Z M 171.63 178.48 L 172.40 179.15 C 173.41 180.02 174.94 179.91 175.81 178.90 C 176.69 177.90 176.58 176.37 175.57 175.49 L 174.80 174.83 C 173.79 173.95 172.26 174.06 171.39 175.07 C 170.52 176.08 170.62 177.60 171.63 178.48 Z M 172.40 179.14 L 173.10 179.76 C 174.10 180.64 175.63 180.53 176.51 179.53 C 177.39 178.53 177.29 177.00 176.28 176.12 L 175.58 175.50 C 174.58 174.63 173.05 174.73 172.17 175.73 C 171.29 176.73 171.39 178.26 172.40 179.14 Z M 173.09 179.74 L 173.83 180.40 C 174.83 181.29 176.35 181.20 177.24 180.20 C 178.12 179.21 178.03 177.69 177.04 176.80 L 176.30 176.14 C 175.30 175.25 173.78 175.34 172.89 176.34 C 172.01 177.33 172.10 178.85 173.09 179.74 Z M 173.85 180.40 L 174.60 181.06 C 175.59 181.94 177.11 181.84 177.99 180.85 C 178.86 179.85 178.77 178.34 177.77 177.46 L 177.02 176.80 C 176.03 175.92 174.51 176.02 173.63 177.01 C 172.76 178.01 172.85 179.53 173.85 180.40 Z M 174.61 181.06 L 175.36 181.72 C 176.36 182.59 177.87 182.49 178.74 181.50 C 179.61 180.50 179.51 178.99 178.52 178.12 L 177.76 177.46 C 176.77 176.59 175.26 176.69 174.39 177.69 C 173.52 178.68 173.62 180.19 174.61 181.06 Z M 175.34 181.69 L 176.09 182.36 C 177.06 183.24 178.57 183.17 179.45 182.19 C 180.33 181.22 180.26 179.71 179.28 178.83 L 178.54 178.16 C 177.56 177.27 176.06 177.35 175.17 178.32 C 174.29 179.30 174.37 180.81 175.34 181.69 Z M 176.07 182.33 L 176.80 183.01 C 177.76 183.90 179.26 183.85 180.15 182.89 C 181.04 181.93 180.99 180.43 180.03 179.54 L 179.30 178.86 C 178.34 177.97 176.84 178.02 175.95 178.98 C 175.06 179.94 175.11 181.44 176.07 182.33 Z M 176.82 183.00 L 177.55 183.68 C 178.50 184.57 179.99 184.51 180.88 183.56 C 181.76 182.61 181.71 181.12 180.75 180.23 L 180.02 179.55 C 179.06 178.67 177.57 178.72 176.69 179.68 C 175.81 180.63 175.86 182.12 176.82 183.00 Z M 177.57 183.68 L 178.31 184.36 C 179.26 185.23 180.74 185.17 181.62 184.21 C 182.49 183.26 182.42 181.78 181.47 180.91 L 180.73 180.23 C 179.78 179.36 178.30 179.43 177.43 180.38 C 176.55 181.33 176.62 182.81 177.57 183.68 Z M 178.33 184.35 L 179.01 184.98 C 179.96 185.84 181.43 185.77 182.29 184.82 C 183.16 183.88 183.09 182.41 182.14 181.55 L 181.45 180.92 C 180.51 180.06 179.04 180.12 178.17 181.07 C 177.31 182.02 177.38 183.48 178.33 184.35 Z M 179.03 184.96 L 179.77 185.63 C 180.71 186.49 182.16 186.42 183.01 185.48 C 183.87 184.55 183.80 183.10 182.86 182.24 L 182.12 181.57 C 181.19 180.71 179.74 180.78 178.88 181.71 C 178.03 182.65 178.09 184.10 179.03 184.96 Z M 179.79 185.61 L 180.55 186.31 C 181.48 187.16 182.91 187.09 183.76 186.17 C 184.60 185.24 184.54 183.81 183.61 182.96 L 182.85 182.26 C 181.92 181.42 180.49 181.48 179.64 182.41 C 178.80 183.33 178.86 184.77 179.79 185.61 Z M 180.57 186.29 L 181.32 186.98 C 182.23 187.82 183.65 187.76 184.49 186.85 C 185.33 185.93 185.27 184.51 184.35 183.68 L 183.60 182.98 C 182.69 182.15 181.27 182.21 180.43 183.12 C 179.59 184.03 179.65 185.45 180.57 186.29 Z M 181.33 186.95 L 182.07 187.64 C 182.97 188.48 184.37 188.43 185.21 187.53 C 186.04 186.63 185.99 185.23 185.09 184.40 L 184.35 183.70 C 183.45 182.87 182.05 182.92 181.21 183.82 C 180.38 184.72 180.43 186.12 181.33 186.95 Z M 182.08 187.60 L 182.87 188.34 C 183.74 189.17 185.12 189.14 185.94 188.27 C 186.77 187.40 186.74 186.02 185.87 185.19 L 185.08 184.44 C 184.21 183.61 182.83 183.65 182.00 184.52 C 181.18 185.39 181.21 186.77 182.08 187.60 Z M 182.89 188.29 L 183.59 188.96 C 184.43 189.78 185.77 189.76 186.58 188.91 C 187.40 188.07 187.38 186.73 186.54 185.92 L 185.84 185.25 C 185.00 184.43 183.66 184.45 182.84 185.29 C 182.03 186.13 182.05 187.48 182.89 188.29 Z M 183.65 188.93 L 184.35 189.59 C 185.17 190.37 186.47 190.33 187.25 189.51 C 188.03 188.69 187.99 187.39 187.17 186.61 L 186.47 185.95 C 185.65 185.17 184.35 185.21 183.57 186.03 C 182.79 186.85 182.83 188.15 183.65 188.93 Z M 184.43 189.56 L 185.16 190.22 C 185.97 190.95 187.22 190.89 187.95 190.09 C 188.68 189.28 188.62 188.03 187.81 187.30 L 187.08 186.64 C 186.28 185.91 185.03 185.97 184.30 186.78 C 183.57 187.58 183.63 188.83 184.43 189.56 Z M 185.21 190.19 L 185.36 190.33 C 186.15 191.04 187.36 190.97 188.07 190.18 C 188.78 189.39 188.71 188.18 187.92 187.47 L 187.77 187.33 C 186.98 186.63 185.77 186.69 185.06 187.48 C 184.35 188.27 184.42 189.48 185.21 190.19 Z"
      fill="black"
      fill-rule="nonzero" /></svg>