<svg xmlns="http://www.w3.org/2000/svg" width="300" height="300" viewBox="0 0 300 300">
<path d="M 124.03 125.08 L 124.88 124.76 C 125.90 124.37 126.41 123.24 126.02 122.23 C 125.64 121.22 124.50 120.71 123.49 121.09 L 122.64 121.41 C 121.63 121.80 121.12 122.93 121.50 123.94 C 121.88 124.96 123.02 125.47 124.03 125.08 Z M 124.83 124.92 L 125.78 124.61 C 126.88 124.26 127.49 123.08 127.14 121.98 C 126.78 120.88 125.61 120.27 124.50 120.62 L 123.55 120.93 C 122.45 121.28 121.84 122.46 122.19 123.56 C 122.55 124.66 123.72 125.27 124.83 124.92 Z M 125.65 124.76 L 126.69 124.51 C 127.88 124.23 128.61 123.05 128.33 121.86 C 128.05 120.68 126.86 119.95 125.68 120.23 L 124.64 120.48 C 123.45 120.76 122.72 121.94 123.00 123.12 C 123.28 124.31 124.47 125.04 125.65 124.76 Z M 126.58 124.57 L 127.60 124.39 C 128.82 124.17 129.63 123.01 129.41 121.80 C 129.19 120.58 128.03 119.77 126.82 119.99 L 125.80 120.17 C 124.58 120.39 123.77 121.55 123.99 122.76 C 124.20 123.98 125.36 124.79 126.58 124.57 Z M 127.54 124.40 L 128.57 124.24 C 129.79 124.06 130.63 122.92 130.44 121.70 C 130.26 120.48 129.12 119.64 127.90 119.83 L 126.88 119.98 C 125.66 120.16 124.82 121.30 125.00 122.52 C 125.18 123.74 126.32 124.58 127.54 124.40 Z M 128.55 124.24 L 129.50 124.11 C 130.72 123.93 131.57 122.81 131.40 121.59 C 131.22 120.37 130.10 119.52 128.88 119.69 L 127.92 119.83 C 126.70 120.00 125.85 121.13 126.03 122.35 C 126.20 123.57 127.33 124.41 128.55 124.24 Z M 129.52 124.09 L 130.61 123.92 C 131.82 123.74 132.65 122.62 132.47 121.41 C 132.29 120.20 131.16 119.37 129.96 119.55 L 128.86 119.71 C 127.65 119.89 126.82 121.02 127.00 122.23 C 127.18 123.43 128.31 124.27 129.52 124.09 Z M 130.63 123.89 L 131.48 123.75 C 132.66 123.56 133.47 122.45 133.29 121.26 C 133.10 120.07 131.98 119.26 130.79 119.45 L 129.94 119.58 C 128.75 119.77 127.94 120.89 128.13 122.08 C 128.32 123.27 129.44 124.08 130.63 123.89 Z M 131.46 123.73 L 132.43 123.58 C 133.61 123.40 134.41 122.30 134.23 121.12 C 134.05 119.95 132.95 119.14 131.77 119.32 L 130.81 119.47 C 129.63 119.65 128.82 120.75 129.00 121.93 C 129.18 123.10 130.28 123.91 131.46 123.73 Z M 132.41 123.57 L 133.41 123.42 C 134.58 123.26 135.40 122.17 135.23 121.00 C 135.06 119.83 133.97 119.02 132.80 119.19 L 131.80 119.33 C 130.63 119.50 129.82 120.59 129.98 121.76 C 130.15 122.93 131.24 123.74 132.41 123.57 Z M 133.40 123.40 L 134.40 123.26 C 135.56 123.10 136.36 122.03 136.20 120.87 C 136.04 119.71 134.97 118.91 133.81 119.07 L 132.81 119.21 C 131.66 119.37 130.85 120.44 131.01 121.60 C 131.18 122.76 132.25 123.57 133.40 123.40 Z M 134.43 123.23 L 135.43 123.08 C 136.57 122.90 137.35 121.83 137.17 120.69 C 136.99 119.55 135.92 118.77 134.78 118.94 L 133.78 119.10 C 132.64 119.28 131.86 120.35 132.04 121.49 C 132.22 122.63 133.29 123.41 134.43 123.23 Z M 135.46 123.04 L 136.44 122.87 C 137.56 122.67 138.31 121.60 138.12 120.48 C 137.92 119.36 136.85 118.61 135.73 118.81 L 134.75 118.98 C 133.62 119.17 132.87 120.24 133.07 121.37 C 133.27 122.49 134.33 123.24 135.46 123.04 Z M 136.42 122.84 L 137.40 122.68 C 138.51 122.49 139.26 121.44 139.07 120.34 C 138.88 119.23 137.83 118.48 136.73 118.67 L 135.75 118.83 C 134.64 119.02 133.89 120.07 134.08 121.17 C 134.27 122.28 135.31 123.03 136.42 122.84 Z M 137.38 122.65 L 138.36 122.50 C 139.46 122.32 140.20 121.30 140.03 120.20 C 139.86 119.11 138.83 118.37 137.74 118.54 L 136.75 118.69 C 135.66 118.87 134.91 119.89 135.09 120.99 C 135.26 122.08 136.28 122.82 137.38 122.65 Z M 138.38 122.46 L 139.38 122.29 C 140.45 122.11 141.17 121.10 140.99 120.02 C 140.81 118.95 139.80 118.22 138.72 118.40 L 137.72 118.57 C 136.65 118.75 135.93 119.77 136.11 120.84 C 136.29 121.92 137.30 122.64 138.38 122.46 Z M 139.39 122.26 L 140.36 122.09 C 141.42 121.90 142.12 120.90 141.94 119.84 C 141.75 118.78 140.74 118.08 139.69 118.26 L 138.71 118.44 C 137.65 118.62 136.95 119.63 137.14 120.69 C 137.32 121.74 138.33 122.45 139.39 122.26 Z M 140.35 122.06 L 141.27 121.91 C 142.31 121.73 143.01 120.74 142.83 119.69 C 142.65 118.65 141.66 117.95 140.62 118.13 L 139.70 118.29 C 138.66 118.47 137.96 119.46 138.14 120.50 C 138.32 121.55 139.31 122.24 140.35 122.06 Z M 141.27 121.88 L 142.31 121.70 C 143.34 121.52 144.03 120.54 143.84 119.51 C 143.66 118.48 142.68 117.79 141.66 117.97 L 140.62 118.16 C 139.59 118.34 138.90 119.32 139.08 120.35 C 139.26 121.37 140.24 122.06 141.27 121.88 Z M 142.32 121.68 L 143.26 121.51 C 144.28 121.32 144.95 120.35 144.77 119.33 C 144.59 118.32 143.61 117.64 142.59 117.82 L 141.65 117.99 C 140.63 118.18 139.96 119.15 140.14 120.17 C 140.32 121.19 141.30 121.86 142.32 121.68 Z M 143.25 121.50 L 144.27 121.31 C 145.28 121.13 145.96 120.17 145.78 119.16 C 145.60 118.15 144.63 117.48 143.62 117.66 L 142.60 117.84 C 141.59 118.02 140.92 118.98 141.10 119.99 C 141.28 121.00 142.24 121.67 143.25 121.50 Z M 144.25 121.31 L 145.28 121.14 C 146.29 120.97 146.97 120.02 146.80 119.01 C 146.63 118.00 145.68 117.31 144.67 117.48 L 143.64 117.65 C 142.63 117.82 141.95 118.78 142.12 119.79 C 142.29 120.80 143.24 121.48 144.25 121.31 Z M 145.26 121.17 L 146.25 121.01 C 147.27 120.86 147.98 119.90 147.82 118.88 C 147.66 117.85 146.70 117.15 145.68 117.31 L 144.69 117.46 C 143.66 117.62 142.96 118.57 143.12 119.60 C 143.28 120.62 144.24 121.32 145.26 121.17 Z M 146.24 121.05 L 147.13 120.92 C 148.17 120.76 148.89 119.80 148.73 118.75 C 148.58 117.71 147.61 116.99 146.57 117.15 L 145.69 117.28 C 144.65 117.43 143.93 118.40 144.08 119.44 C 144.23 120.48 145.20 121.20 146.24 121.05 Z"
      fill="black"
      fill-rule="nonzero" /><path d="M 121.52 128.72 L 121.28 129.67 C 120.98 130.82 121.68 132.00 122.84 132.29 C 123.99 132.58 125.16 131.88 125.45 130.73 L 125.69 129.78 C 125.98 128.63 125.29 127.46 124.13 127.16 C 122.98 126.87 121.81 127.57 121.52 128.72 Z M 121.25 130.75 L 121.48 131.63 C 121.78 132.80 122.97 133.50 124.14 133.20 C 125.30 132.90 126.00 131.71 125.70 130.54 L 125.47 129.66 C 125.17 128.49 123.98 127.79 122.82 128.09 C 121.65 128.39 120.95 129.58 121.25 130.75 Z M 121.82 132.36 L 122.39 133.15 C 123.09 134.13 124.46 134.36 125.44 133.65 C 126.42 132.95 126.64 131.58 125.94 130.60 L 125.37 129.81 C 124.66 128.83 123.30 128.61 122.32 129.31 C 121.34 130.02 121.11 131.38 121.82 132.36 Z M 122.49 133.28 L 123.20 134.13 C 123.98 135.05 125.35 135.17 126.28 134.39 C 127.20 133.62 127.32 132.24 126.54 131.32 L 125.83 130.47 C 125.06 129.55 123.68 129.43 122.76 130.21 C 121.84 130.98 121.72 132.36 122.49 133.28 Z M 123.17 134.08 L 123.81 134.88 C 124.56 135.82 125.93 135.97 126.87 135.21 C 127.81 134.46 127.96 133.09 127.21 132.16 L 126.57 131.36 C 125.82 130.42 124.45 130.27 123.51 131.02 C 122.57 131.78 122.42 133.15 123.17 134.08 Z M 123.78 134.83 L 124.39 135.62 C 125.11 136.58 126.47 136.76 127.42 136.04 C 128.38 135.32 128.56 133.96 127.84 133.00 L 127.24 132.21 C 126.51 131.25 125.15 131.07 124.20 131.79 C 123.25 132.51 123.06 133.87 123.78 134.83 Z M 124.36 135.57 L 124.93 136.36 C 125.62 137.33 126.97 137.56 127.94 136.86 C 128.90 136.17 129.13 134.83 128.44 133.86 L 127.87 133.06 C 127.18 132.10 125.83 131.87 124.86 132.56 C 123.90 133.25 123.67 134.60 124.36 135.57 Z M 124.91 136.29 L 125.45 137.10 C 126.10 138.08 127.42 138.35 128.40 137.69 C 129.38 137.04 129.65 135.72 129.00 134.74 L 128.46 133.93 C 127.81 132.96 126.49 132.69 125.51 133.34 C 124.53 133.99 124.26 135.31 124.91 136.29 Z M 125.44 137.04 L 125.98 137.89 C 126.60 138.88 127.89 139.17 128.88 138.56 C 129.86 137.94 130.16 136.64 129.54 135.66 L 129.00 134.80 C 128.39 133.82 127.09 133.52 126.11 134.14 C 125.12 134.76 124.83 136.06 125.44 137.04 Z M 125.98 137.87 L 126.50 138.71 C 127.10 139.69 128.39 140.00 129.37 139.40 C 130.35 138.80 130.66 137.51 130.05 136.53 L 129.54 135.69 C 128.93 134.70 127.65 134.40 126.67 135.00 C 125.69 135.60 125.38 136.89 125.98 137.87 Z M 126.51 138.71 L 127.05 139.59 C 127.65 140.56 128.94 140.86 129.91 140.26 C 130.89 139.66 131.19 138.37 130.58 137.40 L 130.04 136.53 C 129.44 135.55 128.16 135.25 127.18 135.85 C 126.21 136.46 125.91 137.74 126.51 138.71 Z M 127.08 139.61 L 127.65 140.50 C 128.27 141.46 129.55 141.73 130.51 141.12 C 131.47 140.50 131.74 139.22 131.13 138.26 L 130.55 137.37 C 129.94 136.41 128.66 136.14 127.70 136.76 C 126.74 137.37 126.46 138.65 127.08 139.61 Z M 127.74 140.59 L 128.35 141.42 C 129.02 142.33 130.30 142.52 131.21 141.86 C 132.12 141.19 132.31 139.91 131.64 139.00 L 131.03 138.17 C 130.37 137.26 129.09 137.07 128.18 137.73 C 127.27 138.40 127.08 139.68 127.74 140.59 Z M 128.58 141.63 L 129.23 142.28 C 130.02 143.06 131.29 143.06 132.07 142.28 C 132.86 141.49 132.85 140.22 132.07 139.44 L 131.42 138.79 C 130.63 138.00 129.36 138.01 128.58 138.79 C 127.79 139.58 127.80 140.85 128.58 141.63 Z M 129.75 142.62 L 130.67 143.10 C 131.65 143.60 132.84 143.21 133.34 142.24 C 133.84 141.26 133.46 140.07 132.48 139.57 L 131.55 139.09 C 130.58 138.59 129.38 138.98 128.88 139.95 C 128.39 140.93 128.77 142.12 129.75 142.62 Z M 131.51 143.30 L 132.38 143.33 C 133.47 143.37 134.38 142.52 134.42 141.44 C 134.46 140.35 133.61 139.44 132.53 139.40 L 131.65 139.37 C 130.57 139.33 129.65 140.18 129.61 141.26 C 129.57 142.35 130.42 143.26 131.51 143.30 Z M 133.33 143.12 L 134.13 142.72 C 135.09 142.24 135.49 141.06 135.01 140.10 C 134.53 139.13 133.35 138.74 132.39 139.22 L 131.59 139.62 C 130.62 140.10 130.23 141.27 130.71 142.24 C 131.19 143.20 132.36 143.60 133.33 143.12 Z M 134.53 142.44 L 135.36 141.73 C 136.18 141.02 136.27 139.79 135.56 138.98 C 134.86 138.16 133.63 138.07 132.82 138.78 L 131.99 139.49 C 131.17 140.20 131.08 141.43 131.78 142.24 C 132.49 143.06 133.72 143.15 134.53 142.44 Z M 135.44 141.64 L 136.13 140.97 C 136.90 140.23 136.91 139.00 136.17 138.23 C 135.42 137.46 134.19 137.44 133.42 138.19 L 132.73 138.86 C 131.96 139.61 131.95 140.84 132.70 141.61 C 133.45 142.38 134.68 142.39 135.44 141.64 Z M 136.14 140.96 L 136.88 140.22 C 137.64 139.46 137.64 138.23 136.89 137.48 C 136.13 136.72 134.91 136.72 134.15 137.47 L 133.41 138.21 C 132.65 138.97 132.64 140.19 133.40 140.95 C 134.16 141.71 135.38 141.71 136.14 140.96 Z M 136.87 140.23 L 137.62 139.49 C 138.38 138.74 138.39 137.52 137.65 136.75 C 136.90 135.99 135.67 135.98 134.91 136.73 L 134.16 137.46 C 133.40 138.21 133.39 139.44 134.13 140.20 C 134.88 140.96 136.11 140.97 136.87 140.23 Z M 137.58 139.53 L 138.38 138.79 C 139.16 138.06 139.20 136.84 138.47 136.05 C 137.75 135.27 136.52 135.23 135.74 135.96 L 134.95 136.69 C 134.16 137.42 134.12 138.65 134.85 139.43 C 135.58 140.21 136.80 140.25 137.58 139.53 Z M 138.33 138.84 L 139.08 138.18 C 139.89 137.48 139.97 136.25 139.27 135.45 C 138.57 134.64 137.34 134.55 136.53 135.26 L 135.78 135.91 C 134.98 136.61 134.89 137.84 135.59 138.65 C 136.30 139.45 137.52 139.54 138.33 138.84 Z M 139.03 138.23 L 139.75 137.64 C 140.59 136.96 140.71 135.74 140.03 134.91 C 139.36 134.08 138.13 133.95 137.30 134.63 L 136.58 135.21 C 135.75 135.89 135.62 137.11 136.30 137.95 C 136.98 138.78 138.20 138.90 139.03 138.23 Z M 139.70 137.69 L 140.54 137.06 C 141.40 136.41 141.57 135.19 140.92 134.33 C 140.27 133.47 139.04 133.30 138.18 133.95 L 137.35 134.58 C 136.49 135.23 136.32 136.45 136.97 137.31 C 137.62 138.17 138.84 138.34 139.70 137.69 Z M 140.47 137.12 L 141.28 136.57 C 142.18 135.95 142.41 134.73 141.79 133.84 C 141.18 132.94 139.96 132.71 139.06 133.33 L 138.25 133.88 C 137.36 134.50 137.13 135.72 137.74 136.61 C 138.35 137.51 139.58 137.74 140.47 137.12 Z M 141.19 136.64 L 142.04 136.13 C 142.98 135.57 143.28 134.36 142.72 133.42 C 142.16 132.49 140.95 132.18 140.01 132.74 L 139.16 133.25 C 138.22 133.81 137.92 135.02 138.48 135.96 C 139.04 136.90 140.25 137.20 141.19 136.64 Z M 141.92 136.20 L 142.82 135.75 C 143.80 135.26 144.19 134.06 143.69 133.09 C 143.20 132.11 142.01 131.72 141.03 132.21 L 140.13 132.67 C 139.15 133.16 138.76 134.35 139.26 135.33 C 139.75 136.31 140.94 136.70 141.92 136.20 Z M 142.70 135.81 L 143.61 135.42 C 144.62 134.99 145.09 133.83 144.65 132.82 C 144.22 131.81 143.06 131.34 142.05 131.77 L 141.14 132.15 C 140.13 132.59 139.67 133.75 140.10 134.76 C 140.53 135.77 141.70 136.24 142.70 135.81 Z M 143.46 135.48 L 144.42 135.16 C 145.46 134.81 146.02 133.68 145.67 132.64 C 145.31 131.59 144.18 131.03 143.14 131.39 L 142.19 131.71 C 141.15 132.06 140.59 133.19 140.94 134.23 C 141.29 135.28 142.42 135.84 143.46 135.48 Z M 144.14 135.25 L 145.16 135.06 C 146.25 134.86 146.97 133.81 146.77 132.72 C 146.57 131.63 145.52 130.91 144.43 131.11 L 143.41 131.30 C 142.32 131.50 141.60 132.55 141.80 133.64 C 142.01 134.73 143.05 135.45 144.14 135.25 Z M 144.45 135.09 L 145.36 135.25 C 146.47 135.44 147.52 134.70 147.72 133.60 C 147.91 132.49 147.17 131.44 146.06 131.24 L 145.15 131.08 C 144.04 130.89 142.98 131.63 142.79 132.74 C 142.60 133.85 143.34 134.90 144.45 135.09 Z M 143.83 134.14 L 144.21 134.95 C 144.70 135.99 145.94 136.44 146.99 135.94 C 148.03 135.45 148.47 134.21 147.98 133.17 L 147.60 132.36 C 147.11 131.31 145.86 130.87 144.82 131.36 C 143.78 131.85 143.33 133.10 143.83 134.14 Z M 144.00 133.61 L 143.79 134.61 C 143.54 135.77 144.27 136.90 145.43 137.15 C 146.58 137.40 147.72 136.67 147.97 135.51 L 148.19 134.51 C 148.43 133.35 147.70 132.21 146.54 131.96 C 145.39 131.72 144.25 132.45 144.00 133.61 Z M 143.97 134.03 L 143.49 134.92 C 142.92 135.97 143.31 137.29 144.36 137.86 C 145.41 138.43 146.72 138.04 147.30 136.99 L 147.78 136.10 C 148.35 135.05 147.97 133.73 146.91 133.16 C 145.86 132.59 144.55 132.97 143.97 134.03 Z M 143.63 134.68 L 143.04 135.50 C 142.33 136.47 142.55 137.84 143.53 138.54 C 144.50 139.24 145.86 139.02 146.57 138.05 L 147.16 137.23 C 147.86 136.25 147.64 134.89 146.67 134.19 C 145.69 133.49 144.33 133.71 143.63 134.68 Z M 143.15 135.35 L 142.51 136.10 C 141.72 137.01 141.83 138.39 142.74 139.17 C 143.65 139.96 145.03 139.85 145.82 138.94 L 146.46 138.19 C 147.24 137.28 147.14 135.90 146.22 135.12 C 145.31 134.34 143.93 134.44 143.15 135.35 Z M 142.57 136.02 L 141.90 136.74 C 141.08 137.62 141.12 139.00 141.99 139.82 C 142.87 140.65 144.25 140.61 145.07 139.73 L 145.75 139.02 C 146.57 138.14 146.53 136.76 145.66 135.93 C 144.78 135.11 143.40 135.15 142.57 136.02 Z M 141.96 136.68 L 141.23 137.40 C 140.37 138.24 140.36 139.62 141.21 140.48 C 142.05 141.34 143.43 141.35 144.29 140.50 L 145.02 139.79 C 145.87 138.94 145.88 137.56 145.04 136.71 C 144.19 135.85 142.82 135.84 141.96 136.68 Z M 141.29 137.35 L 140.55 138.03 C 139.67 138.85 139.61 140.22 140.43 141.10 C 141.24 141.99 142.61 142.04 143.50 141.23 L 144.23 140.55 C 145.12 139.74 145.17 138.36 144.36 137.48 C 143.54 136.59 142.17 136.54 141.29 137.35 Z M 140.60 138.00 L 139.84 138.66 C 138.94 139.45 138.85 140.82 139.63 141.72 C 140.42 142.62 141.79 142.71 142.69 141.92 L 143.45 141.26 C 144.35 140.48 144.44 139.11 143.65 138.21 C 142.87 137.31 141.50 137.21 140.60 138.00 Z M 139.90 138.63 L 139.13 139.27 C 138.21 140.02 138.08 141.37 138.83 142.29 C 139.58 143.21 140.94 143.34 141.86 142.59 L 142.63 141.95 C 143.55 141.20 143.68 139.85 142.93 138.93 C 142.17 138.01 140.82 137.88 139.90 138.63 Z M 139.21 139.23 L 138.42 139.83 C 137.48 140.54 137.29 141.87 138.00 142.80 C 138.70 143.74 140.04 143.93 140.97 143.22 L 141.77 142.62 C 142.71 141.92 142.89 140.59 142.19 139.65 C 141.48 138.71 140.15 138.52 139.21 139.23 Z M 138.52 139.80 L 137.70 140.36 C 136.74 141.01 136.49 142.30 137.14 143.26 C 137.79 144.21 139.08 144.46 140.04 143.82 L 140.87 143.26 C 141.82 142.61 142.07 141.31 141.43 140.36 C 140.78 139.40 139.48 139.15 138.52 139.80 Z M 137.82 140.33 L 136.98 140.83 C 136.01 141.41 135.69 142.67 136.27 143.64 C 136.85 144.61 138.11 144.93 139.08 144.35 L 139.92 143.84 C 140.89 143.26 141.20 142.01 140.62 141.04 C 140.04 140.07 138.79 139.75 137.82 140.33 Z M 137.11 140.81 L 136.22 141.28 C 135.24 141.78 134.85 142.99 135.36 143.97 C 135.87 144.95 137.07 145.33 138.06 144.83 L 138.95 144.36 C 139.93 143.86 140.31 142.65 139.81 141.67 C 139.30 140.69 138.09 140.31 137.11 140.81 Z M 136.34 141.27 L 135.40 141.69 C 134.42 142.13 133.98 143.28 134.42 144.26 C 134.86 145.25 136.01 145.69 136.99 145.25 L 137.93 144.83 C 138.91 144.39 139.36 143.24 138.92 142.26 C 138.48 141.27 137.33 140.83 136.34 141.27 Z M 135.55 141.68 L 134.61 142.02 C 133.62 142.38 133.11 143.47 133.46 144.46 C 133.82 145.45 134.91 145.96 135.90 145.60 L 136.84 145.26 C 137.83 144.90 138.34 143.81 137.99 142.82 C 137.63 141.84 136.54 141.32 135.55 141.68 Z M 134.87 141.99 L 133.87 142.20 C 132.87 142.41 132.22 143.40 132.43 144.40 C 132.64 145.41 133.63 146.05 134.63 145.84 L 135.63 145.63 C 136.64 145.42 137.28 144.44 137.07 143.43 C 136.86 142.43 135.88 141.78 134.87 141.99 Z M 134.13 142.21 L 133.26 142.27 C 132.26 142.33 131.50 143.20 131.57 144.20 C 131.63 145.21 132.50 145.96 133.50 145.89 L 134.37 145.84 C 135.38 145.77 136.13 144.90 136.07 143.90 C 136.00 142.90 135.13 142.14 134.13 142.21 Z"
      fill="black"
      fill-rule="nonzero" /><path d="M 133.15 120.92 L 133.42 121.94 C 133.69 123.01 134.79 123.66 135.86 123.38 C 136.93 123.10 137.57 122.01 137.30 120.94 L 137.03 119.92 C 136.75 118.85 135.66 118.20 134.59 118.48 C 133.52 118.76 132.87 119.85 133.15 120.92 Z M 133.33 121.95 L 133.57 122.91 C 133.85 124.03 134.99 124.71 136.11 124.43 C 137.23 124.15 137.91 123.01 137.62 121.89 L 137.38 120.93 C 137.10 119.81 135.97 119.13 134.85 119.41 C 133.73 119.69 133.05 120.83 133.33 121.95 Z M 133.50 122.89 L 133.73 123.87 C 134.00 125.03 135.15 125.75 136.31 125.48 C 137.47 125.21 138.19 124.05 137.93 122.89 L 137.70 121.91 C 137.43 120.75 136.27 120.03 135.11 120.30 C 133.95 120.57 133.23 121.73 133.50 122.89 Z M 133.69 123.81 L 133.88 124.77 C 134.12 125.95 135.27 126.71 136.45 126.47 C 137.63 126.24 138.39 125.09 138.15 123.91 L 137.96 122.95 C 137.72 121.77 136.58 121.01 135.40 121.25 C 134.22 121.48 133.45 122.63 133.69 123.81 Z M 133.87 124.71 L 134.03 125.65 C 134.24 126.84 135.36 127.63 136.55 127.43 C 137.74 127.22 138.54 126.09 138.33 124.91 L 138.17 123.96 C 137.96 122.78 136.83 121.98 135.64 122.19 C 134.46 122.39 133.66 123.52 133.87 124.71 Z M 134.02 125.61 L 134.17 126.61 C 134.36 127.80 135.47 128.62 136.66 128.44 C 137.85 128.26 138.67 127.14 138.49 125.95 L 138.34 124.95 C 138.16 123.76 137.04 122.94 135.85 123.12 C 134.66 123.30 133.84 124.42 134.02 125.61 Z M 134.17 126.57 L 134.30 127.54 C 134.46 128.74 135.56 129.57 136.76 129.41 C 137.95 129.25 138.79 128.15 138.63 126.96 L 138.50 125.99 C 138.33 124.79 137.23 123.95 136.04 124.12 C 134.84 124.28 134.01 125.38 134.17 126.57 Z M 134.30 127.51 L 134.42 128.52 C 134.56 129.72 135.64 130.57 136.84 130.43 C 138.04 130.29 138.89 129.20 138.75 128.01 L 138.63 126.99 C 138.49 125.79 137.40 124.94 136.21 125.08 C 135.01 125.22 134.15 126.31 134.30 127.51 Z M 134.41 128.49 L 134.51 129.46 C 134.64 130.65 135.71 131.53 136.91 131.40 C 138.10 131.28 138.98 130.21 138.85 129.01 L 138.75 128.04 C 138.63 126.84 137.56 125.97 136.36 126.09 C 135.16 126.22 134.29 127.29 134.41 128.49 Z M 134.51 129.43 L 134.61 130.44 C 134.71 131.64 135.77 132.52 136.97 132.41 C 138.17 132.31 139.05 131.25 138.95 130.05 L 138.85 129.04 C 138.75 127.84 137.69 126.95 136.49 127.06 C 135.29 127.17 134.40 128.23 134.51 129.43 Z M 134.61 130.43 L 134.69 131.41 C 134.79 132.60 135.84 133.49 137.04 133.39 C 138.24 133.29 139.12 132.24 139.02 131.04 L 138.94 130.06 C 138.84 128.87 137.79 127.98 136.59 128.08 C 135.40 128.18 134.51 129.23 134.61 130.43 Z M 134.70 131.40 L 134.78 132.39 C 134.87 133.59 135.92 134.48 137.11 134.38 C 138.30 134.29 139.19 133.24 139.10 132.05 L 139.02 131.05 C 138.92 129.86 137.88 128.97 136.69 129.07 C 135.49 129.16 134.60 130.21 134.70 131.40 Z M 134.79 132.39 L 134.86 133.40 C 134.95 134.59 135.99 135.48 137.18 135.39 C 138.37 135.30 139.26 134.27 139.17 133.08 L 139.09 132.06 C 139.00 130.87 137.96 129.98 136.77 130.07 C 135.58 130.16 134.69 131.20 134.79 132.39 Z M 134.87 133.40 L 134.94 134.37 C 135.03 135.55 136.06 136.44 137.24 136.35 C 138.42 136.27 139.31 135.24 139.23 134.06 L 139.16 133.09 C 139.07 131.90 138.04 131.01 136.86 131.10 C 135.68 131.18 134.79 132.21 134.87 133.40 Z M 134.95 134.35 L 135.02 135.36 C 135.10 136.54 136.12 137.43 137.29 137.35 C 138.47 137.28 139.37 136.26 139.29 135.08 L 139.22 134.07 C 139.14 132.89 138.12 132.00 136.94 132.08 C 135.76 132.16 134.87 133.18 134.95 134.35 Z M 135.03 135.35 L 135.09 136.36 C 135.16 137.54 136.16 138.43 137.34 138.36 C 138.51 138.29 139.41 137.29 139.34 136.11 L 139.28 135.09 C 139.21 133.92 138.20 133.03 137.03 133.10 C 135.85 133.16 134.96 134.17 135.03 135.35 Z M 135.10 136.35 L 135.15 137.35 C 135.21 138.52 136.20 139.42 137.37 139.36 C 138.54 139.30 139.44 138.30 139.38 137.13 L 139.33 136.13 C 139.27 134.96 138.27 134.06 137.10 134.12 C 135.94 134.18 135.04 135.18 135.10 136.35 Z M 135.16 137.33 L 135.20 138.34 C 135.25 139.50 136.23 140.40 137.40 140.35 C 138.56 140.30 139.46 139.32 139.41 138.16 L 139.37 137.15 C 139.32 135.99 138.34 135.09 137.17 135.14 C 136.01 135.19 135.11 136.17 135.16 137.33 Z M 135.21 138.32 L 135.25 139.33 C 135.29 140.48 136.26 141.39 137.41 141.35 C 138.57 141.31 139.47 140.34 139.43 139.18 L 139.40 138.18 C 139.36 137.02 138.39 136.11 137.23 136.15 C 136.08 136.19 135.17 137.16 135.21 138.32 Z M 135.26 139.31 L 135.28 140.32 C 135.32 141.47 136.27 142.38 137.42 142.35 C 138.57 142.32 139.48 141.36 139.45 140.21 L 139.42 139.20 C 139.39 138.05 138.44 137.14 137.29 137.17 C 136.13 137.20 135.23 138.16 135.26 139.31 Z M 135.29 140.31 L 135.32 141.30 C 135.34 142.44 136.29 143.35 137.44 143.32 C 138.58 143.30 139.49 142.35 139.46 141.20 L 139.44 140.22 C 139.42 139.07 138.47 138.17 137.32 138.19 C 136.18 138.22 135.27 139.17 135.29 140.31 Z M 135.33 141.30 L 135.35 142.29 C 135.38 143.43 136.32 144.34 137.46 144.31 C 138.60 144.28 139.50 143.34 139.48 142.20 L 139.45 141.20 C 139.43 140.06 138.48 139.16 137.34 139.19 C 136.20 139.21 135.30 140.16 135.33 141.30 Z M 135.36 142.29 L 135.38 143.29 C 135.41 144.43 136.35 145.33 137.48 145.30 C 138.62 145.28 139.52 144.33 139.49 143.20 L 139.47 142.20 C 139.44 141.06 138.50 140.17 137.37 140.19 C 136.23 140.22 135.33 141.16 135.36 142.29 Z M 135.39 143.28 L 135.41 144.28 C 135.43 145.41 136.36 146.31 137.49 146.29 C 138.62 146.27 139.52 145.33 139.50 144.20 L 139.48 143.21 C 139.46 142.08 138.53 141.18 137.40 141.20 C 136.27 141.22 135.37 142.16 135.39 143.28 Z M 135.42 144.26 L 135.43 145.27 C 135.44 146.40 136.36 147.30 137.48 147.29 C 138.61 147.28 139.51 146.36 139.50 145.23 L 139.49 144.22 C 139.48 143.10 138.56 142.19 137.44 142.20 C 136.31 142.22 135.41 143.14 135.42 144.26 Z M 135.44 145.26 L 135.44 146.26 C 135.45 147.38 136.36 148.28 137.47 148.28 C 138.59 148.28 139.50 147.37 139.49 146.25 L 139.49 145.25 C 139.49 144.13 138.58 143.22 137.46 143.23 C 136.34 143.23 135.44 144.14 135.44 145.26 Z M 135.45 146.25 L 135.46 147.25 C 135.46 148.37 136.36 149.27 137.47 149.27 C 138.58 149.27 139.48 148.36 139.48 147.25 L 139.48 146.25 C 139.48 145.14 138.58 144.24 137.47 144.24 C 136.36 144.24 135.45 145.14 135.45 146.25 Z M 135.47 147.25 L 135.47 148.27 C 135.47 149.38 136.37 150.27 137.47 150.27 C 138.57 150.27 139.46 149.38 139.46 148.27 L 139.46 147.25 C 139.46 146.15 138.57 145.26 137.47 145.26 C 136.37 145.26 135.47 146.15 135.47 147.25 Z M 135.49 148.27 L 135.49 149.25 C 135.49 150.34 136.38 151.22 137.47 151.22 C 138.56 151.22 139.45 150.34 139.45 149.25 L 139.45 148.27 C 139.45 147.18 138.56 146.30 137.47 146.30 C 136.38 146.30 135.49 147.18 135.49 148.27 Z M 135.51 149.25 L 135.51 150.26 C 135.51 151.34 136.39 152.21 137.47 152.21 C 138.55 152.21 139.43 151.34 139.43 150.26 L 139.43 149.25 C 139.43 148.17 138.55 147.29 137.47 147.29 C 136.39 147.29 135.51 148.17 135.51 149.25 Z M 135.53 150.26 L 135.53 151.24 C 135.53 152.31 136.40 153.18 137.47 153.18 C 138.54 153.18 139.41 152.31 139.41 151.24 L 139.41 150.26 C 139.41 149.19 138.54 148.32 137.47 148.32 C 136.40 148.32 135.53 149.19 135.53 150.26 Z M 135.55 151.24 L 135.55 152.23 C 135.55 153.29 136.41 154.14 137.47 154.14 C 138.53 154.14 139.39 153.29 139.39 152.23 L 139.39 151.24 C 139.39 150.18 138.53 149.32 137.47 149.32 C 136.41 149.32 135.55 150.18 135.55 151.24 Z M 135.56 152.23 L 135.56 153.23 C 135.56 154.28 136.42 155.13 137.47 155.13 C 138.52 155.13 139.37 154.28 139.37 153.23 L 139.37 152.23 C 139.37 151.17 138.52 150.32 137.47 150.32 C 136.42 150.32 135.56 151.17 135.56 152.23 Z M 135.58 153.22 L 135.57 154.26 C 135.57 155.31 136.42 156.16 137.46 156.16 C 138.51 156.16 139.36 155.31 139.36 154.27 L 139.36 153.23 C 139.36 152.18 138.52 151.34 137.47 151.33 C 136.43 151.33 135.58 152.18 135.58 153.22 Z M 135.59 154.19 L 135.54 155.21 C 135.50 156.25 136.31 157.13 137.35 157.17 C 138.39 157.21 139.26 156.40 139.30 155.37 L 139.35 154.34 C 139.39 153.30 138.58 152.43 137.54 152.39 C 136.51 152.34 135.63 153.15 135.59 154.19 Z M 135.59 154.94 L 135.41 155.90 C 135.21 156.92 135.88 157.90 136.89 158.09 C 137.91 158.28 138.89 157.61 139.08 156.60 L 139.26 155.64 C 139.45 154.62 138.79 153.64 137.77 153.45 C 136.76 153.26 135.78 153.93 135.59 154.94 Z M 135.57 155.47 L 135.15 156.36 C 134.72 157.28 135.12 158.38 136.04 158.81 C 136.97 159.25 138.07 158.85 138.50 157.92 L 138.92 157.03 C 139.35 156.11 138.95 155.01 138.02 154.58 C 137.10 154.15 136.00 154.55 135.57 155.47 Z M 135.26 156.20 L 135.11 156.46 C 134.59 157.32 134.87 158.45 135.74 158.96 C 136.61 159.48 137.73 159.20 138.25 158.33 L 138.40 158.08 C 138.91 157.21 138.63 156.09 137.76 155.57 C 136.90 155.05 135.77 155.34 135.26 156.20 Z"
      fill="black"
      fill-rule="nonzero" /><path d="M 139.42 143.46 L 138.53 142.95 C 137.46 142.35 136.10 142.73 135.50 143.80 C 134.90 144.87 135.28 146.23 136.35 146.83 L 137.24 147.33 C 138.31 147.93 139.67 147.55 140.27 146.48 C 140.87 145.41 140.49 144.06 139.42 143.46 Z M 137.20 142.66 L 136.35 142.75 C 135.12 142.88 134.22 143.99 134.35 145.22 C 134.48 146.45 135.59 147.34 136.82 147.21 L 137.67 147.12 C 138.90 146.99 139.79 145.89 139.66 144.66 C 139.53 143.43 138.43 142.53 137.20 142.66 Z M 135.20 143.22 L 134.38 143.86 C 133.41 144.62 133.24 146.03 134.00 147.00 C 134.76 147.97 136.17 148.15 137.14 147.38 L 137.96 146.74 C 138.94 145.98 139.11 144.57 138.34 143.60 C 137.58 142.63 136.17 142.45 135.20 143.22 Z M 134.20 144.04 L 133.50 144.73 C 132.63 145.60 132.62 147.00 133.48 147.88 C 134.35 148.75 135.75 148.76 136.63 147.89 L 137.33 147.20 C 138.20 146.34 138.21 144.93 137.34 144.06 C 136.48 143.18 135.07 143.18 134.20 144.04 Z M 133.50 144.77 L 132.79 145.50 C 131.94 146.36 131.95 147.75 132.81 148.60 C 133.67 149.45 135.06 149.44 135.91 148.58 L 136.63 147.85 C 137.48 146.99 137.47 145.60 136.60 144.75 C 135.74 143.90 134.35 143.91 133.50 144.77 Z M 132.82 145.51 L 132.13 146.20 C 131.28 147.04 131.28 148.41 132.12 149.26 C 132.96 150.11 134.33 150.11 135.18 149.27 L 135.88 148.57 C 136.72 147.73 136.72 146.36 135.88 145.51 C 135.04 144.67 133.67 144.66 132.82 145.51 Z M 132.16 146.21 L 131.44 146.92 C 130.60 147.75 130.59 149.10 131.42 149.94 C 132.24 150.77 133.59 150.79 134.43 149.96 L 135.15 149.25 C 135.99 148.43 136.00 147.08 135.17 146.24 C 134.35 145.40 133.00 145.39 132.16 146.21 Z M 131.45 146.95 L 130.74 147.66 C 129.92 148.48 129.91 149.81 130.73 150.63 C 131.55 151.46 132.88 151.46 133.70 150.64 L 134.42 149.93 C 135.24 149.11 135.24 147.78 134.42 146.96 C 133.61 146.14 132.28 146.13 131.45 146.95 Z M 130.75 147.71 L 130.09 148.38 C 129.29 149.19 129.30 150.49 130.11 151.29 C 130.92 152.09 132.22 152.08 133.02 151.27 L 133.68 150.60 C 134.48 149.79 134.48 148.49 133.67 147.69 C 132.86 146.89 131.55 146.90 130.75 147.71 Z M 130.12 148.41 L 129.41 149.14 C 128.63 149.93 128.64 151.21 129.43 151.99 C 130.23 152.77 131.50 152.75 132.28 151.96 L 132.99 151.23 C 133.77 150.44 133.76 149.17 132.97 148.39 C 132.17 147.61 130.90 147.62 130.12 148.41 Z M 129.44 149.17 L 128.70 149.92 C 127.93 150.70 127.94 151.94 128.72 152.71 C 129.49 153.47 130.74 153.46 131.50 152.69 L 132.25 151.93 C 133.01 151.16 133.00 149.91 132.23 149.15 C 131.45 148.38 130.20 148.39 129.44 149.17 Z M 128.73 149.94 L 128.00 150.68 C 127.24 151.44 127.25 152.66 128.00 153.41 C 128.76 154.17 129.99 154.16 130.74 153.40 L 131.47 152.67 C 132.22 151.91 132.22 150.69 131.46 149.93 C 130.70 149.18 129.48 149.19 128.73 149.94 Z M 128.02 150.70 L 127.30 151.42 C 126.56 152.17 126.56 153.37 127.30 154.11 C 128.04 154.85 129.25 154.85 129.99 154.11 L 130.71 153.38 C 131.45 152.64 131.45 151.44 130.71 150.70 C 129.97 149.96 128.76 149.96 128.02 150.70 Z M 127.33 151.44 L 126.64 152.13 C 125.91 152.86 125.91 154.04 126.64 154.77 C 127.36 155.50 128.55 155.50 129.28 154.77 L 129.96 154.09 C 130.69 153.36 130.69 152.18 129.97 151.45 C 129.24 150.72 128.06 150.72 127.33 151.44 Z M 126.66 152.15 L 125.89 152.91 C 125.17 153.63 125.17 154.79 125.88 155.51 C 126.60 156.23 127.76 156.24 128.48 155.52 L 129.25 154.75 C 129.97 154.04 129.98 152.88 129.26 152.16 C 128.55 151.44 127.38 151.43 126.66 152.15 Z M 125.91 152.93 L 125.28 153.55 C 124.56 154.26 124.56 155.40 125.26 156.12 C 125.96 156.83 127.11 156.84 127.83 156.13 L 128.46 155.51 C 129.17 154.80 129.18 153.66 128.48 152.94 C 127.77 152.23 126.62 152.22 125.91 152.93 Z M 125.29 153.56 L 125.24 153.61 C 124.53 154.31 124.52 155.45 125.22 156.16 C 125.92 156.86 127.06 156.87 127.77 156.17 L 127.82 156.13 C 128.52 155.43 128.53 154.29 127.83 153.58 C 127.13 152.87 125.99 152.86 125.29 153.56 Z"
      fill="black"
      fill-rule="nonzero" /><path d="M 138.73 149.73 L 139.71 149.60 C 140.82 149.45 141.61 148.42 141.46 147.31 C 141.31 146.19 140.28 145.41 139.16 145.56 L 138.19 145.69 C 137.07 145.84 136.29 146.86 136.44 147.98 C 136.59 149.10 137.61 149.88 138.73 149.73 Z M 139.63 149.68 L 140.64 149.59 C 141.80 149.48 142.66 148.45 142.55 147.29 C 142.44 146.13 141.41 145.27 140.25 145.38 L 139.24 145.47 C 138.08 145.58 137.22 146.61 137.33 147.77 C 137.44 148.94 138.47 149.79 139.63 149.68 Z M 140.51 149.66 L 141.50 149.63 C 142.70 149.60 143.65 148.59 143.61 147.39 C 143.58 146.19 142.57 145.24 141.37 145.28 L 140.38 145.31 C 139.18 145.34 138.23 146.35 138.26 147.55 C 138.30 148.75 139.30 149.70 140.51 149.66 Z M 141.38 149.68 L 142.39 149.71 C 143.62 149.74 144.65 148.76 144.67 147.53 C 144.70 146.30 143.73 145.28 142.50 145.25 L 141.48 145.23 C 140.25 145.20 139.23 146.17 139.20 147.40 C 139.18 148.63 140.15 149.65 141.38 149.68 Z M 142.28 149.72 L 143.32 149.80 C 144.56 149.89 145.63 148.96 145.72 147.72 C 145.82 146.48 144.88 145.40 143.64 145.31 L 142.61 145.23 C 141.37 145.14 140.29 146.08 140.20 147.31 C 140.11 148.55 141.04 149.63 142.28 149.72 Z M 143.16 149.78 L 144.11 149.91 C 145.34 150.09 146.48 149.24 146.65 148.01 C 146.83 146.78 145.98 145.65 144.75 145.47 L 143.80 145.33 C 142.57 145.16 141.43 146.01 141.26 147.23 C 141.08 148.46 141.93 149.60 143.16 149.78 Z M 143.88 149.85 L 144.82 150.09 C 146.02 150.39 147.23 149.67 147.53 148.48 C 147.84 147.29 147.12 146.07 145.92 145.77 L 144.98 145.53 C 143.79 145.23 142.58 145.95 142.27 147.14 C 141.97 148.33 142.69 149.55 143.88 149.85 Z M 144.68 150.02 L 145.63 150.34 C 146.78 150.72 148.03 150.10 148.41 148.94 C 148.80 147.79 148.17 146.55 147.02 146.16 L 146.07 145.84 C 144.92 145.46 143.67 146.08 143.29 147.23 C 142.90 148.39 143.52 149.63 144.68 150.02 Z M 145.59 150.29 L 146.53 150.62 C 147.66 151.03 148.90 150.44 149.30 149.31 C 149.70 148.19 149.12 146.95 147.99 146.55 L 147.05 146.21 C 145.93 145.81 144.69 146.39 144.29 147.52 C 143.88 148.64 144.47 149.88 145.59 150.29 Z M 146.50 150.56 L 147.46 150.94 C 148.56 151.36 149.78 150.82 150.21 149.73 C 150.63 148.63 150.09 147.41 149.00 146.98 L 148.03 146.61 C 146.94 146.19 145.71 146.73 145.29 147.82 C 144.86 148.91 145.41 150.14 146.50 150.56 Z M 147.42 150.84 L 148.37 151.25 C 149.41 151.70 150.62 151.22 151.06 150.18 C 151.51 149.14 151.03 147.93 149.99 147.48 L 149.04 147.07 C 148.00 146.63 146.79 147.11 146.35 148.15 C 145.90 149.19 146.38 150.40 147.42 150.84 Z M 148.36 151.15 L 149.23 151.56 C 150.22 152.01 151.38 151.58 151.84 150.59 C 152.29 149.61 151.86 148.44 150.88 147.99 L 150.00 147.58 C 149.02 147.13 147.85 147.56 147.39 148.55 C 146.94 149.53 147.37 150.70 148.36 151.15 Z M 149.24 151.48 L 150.16 151.91 C 151.10 152.36 152.23 151.96 152.68 151.01 C 153.12 150.07 152.72 148.95 151.78 148.50 L 150.86 148.06 C 149.92 147.62 148.79 148.02 148.35 148.96 C 147.90 149.90 148.30 151.03 149.24 151.48 Z M 150.18 151.86 L 150.74 152.13 C 151.65 152.56 152.74 152.18 153.18 151.27 C 153.62 150.35 153.23 149.26 152.32 148.82 L 151.76 148.55 C 150.85 148.12 149.75 148.50 149.32 149.41 C 148.88 150.33 149.27 151.42 150.18 151.86 Z"
      fill="black"
      fill-rule="nonzero" /><path d="M 167.00 115.42 L 166.46 116.17 C 165.82 117.06 166.02 118.31 166.91 118.95 C 167.80 119.60 169.05 119.40 169.69 118.50 L 170.23 117.76 C 170.88 116.87 170.68 115.62 169.78 114.98 C 168.89 114.33 167.65 114.53 167.00 115.42 Z M 166.36 116.18 L 165.77 117.06 C 165.13 118.01 165.38 119.30 166.33 119.94 C 167.28 120.58 168.57 120.32 169.21 119.37 L 169.80 118.49 C 170.44 117.54 170.18 116.26 169.23 115.62 C 168.28 114.98 167.00 115.23 166.36 116.18 Z M 165.71 117.09 L 165.17 117.95 C 164.55 118.93 164.84 120.23 165.82 120.85 C 166.81 121.47 168.11 121.18 168.73 120.20 L 169.27 119.34 C 169.89 118.36 169.60 117.06 168.61 116.44 C 167.63 115.82 166.33 116.11 165.71 117.09 Z M 165.16 117.96 L 164.62 118.83 C 164.01 119.81 164.31 121.11 165.30 121.72 C 166.29 122.34 167.59 122.03 168.20 121.04 L 168.74 120.18 C 169.35 119.19 169.04 117.90 168.06 117.28 C 167.07 116.67 165.77 116.97 165.16 117.96 Z M 164.63 118.82 L 164.07 119.72 C 163.46 120.70 163.76 122.00 164.74 122.61 C 165.72 123.22 167.01 122.93 167.63 121.94 L 168.19 121.05 C 168.80 120.06 168.50 118.77 167.52 118.16 C 166.54 117.54 165.25 117.84 164.63 118.82 Z M 164.10 119.71 L 163.59 120.50 C 162.97 121.46 163.25 122.75 164.22 123.37 C 165.18 123.99 166.47 123.71 167.09 122.75 L 167.60 121.96 C 168.22 120.99 167.94 119.70 166.98 119.08 C 166.01 118.46 164.72 118.74 164.10 119.71 Z M 163.63 120.47 L 163.08 121.29 C 162.45 122.24 162.70 123.52 163.65 124.15 C 164.59 124.79 165.87 124.54 166.51 123.59 L 167.06 122.77 C 167.69 121.82 167.44 120.54 166.49 119.91 C 165.54 119.27 164.26 119.53 163.63 120.47 Z M 163.12 121.27 L 162.54 122.09 C 161.89 123.01 162.12 124.29 163.04 124.94 C 163.97 125.59 165.25 125.36 165.90 124.44 L 166.47 123.61 C 167.12 122.69 166.89 121.41 165.97 120.76 C 165.04 120.11 163.77 120.34 163.12 121.27 Z M 162.57 122.07 L 161.99 122.86 C 161.33 123.77 161.53 125.04 162.44 125.71 C 163.35 126.37 164.62 126.17 165.28 125.26 L 165.86 124.46 C 166.52 123.55 166.32 122.28 165.42 121.62 C 164.51 120.96 163.23 121.16 162.57 122.07 Z M 162.02 122.85 L 161.41 123.66 C 160.74 124.55 160.93 125.82 161.82 126.49 C 162.72 127.16 163.99 126.98 164.65 126.08 L 165.26 125.27 C 165.93 124.38 165.74 123.11 164.85 122.44 C 163.95 121.77 162.69 121.95 162.02 122.85 Z M 161.43 123.65 L 160.83 124.44 C 160.16 125.33 160.33 126.59 161.22 127.27 C 162.10 127.94 163.37 127.77 164.04 126.88 L 164.64 126.09 C 165.31 125.20 165.14 123.94 164.25 123.26 C 163.36 122.59 162.10 122.77 161.43 123.65 Z M 160.84 124.44 L 160.22 125.25 C 159.55 126.13 159.72 127.39 160.60 128.06 C 161.48 128.74 162.74 128.57 163.41 127.69 L 164.03 126.88 C 164.70 126.00 164.53 124.74 163.65 124.07 C 162.77 123.39 161.51 123.56 160.84 124.44 Z M 160.23 125.25 L 159.62 126.04 C 158.94 126.92 159.11 128.17 159.98 128.85 C 160.86 129.52 162.12 129.36 162.79 128.48 L 163.40 127.69 C 164.08 126.81 163.92 125.56 163.04 124.88 C 162.16 124.21 160.90 124.37 160.23 125.25 Z M 159.63 126.02 L 159.02 126.80 C 158.33 127.67 158.48 128.93 159.35 129.61 C 160.22 130.30 161.48 130.15 162.17 129.28 L 162.78 128.50 C 163.46 127.63 163.31 126.37 162.44 125.69 C 161.58 125.00 160.32 125.15 159.63 126.02 Z M 159.04 126.78 L 158.45 127.49 C 157.76 128.35 157.89 129.61 158.74 130.31 C 159.60 131.01 160.86 130.88 161.56 130.02 L 162.15 129.30 C 162.84 128.45 162.72 127.18 161.86 126.49 C 161.00 125.79 159.74 125.92 159.04 126.78 Z M 158.47 127.48 L 157.80 128.28 C 157.09 129.13 157.21 130.40 158.06 131.10 C 158.91 131.81 160.18 131.69 160.89 130.84 L 161.55 130.04 C 162.26 129.19 162.14 127.92 161.29 127.21 C 160.44 126.51 159.17 126.62 158.47 127.48 Z M 157.80 128.28 L 157.15 129.06 C 156.44 129.91 156.56 131.18 157.41 131.88 C 158.26 132.59 159.52 132.48 160.23 131.63 L 160.88 130.84 C 161.59 129.99 161.48 128.73 160.63 128.02 C 159.77 127.31 158.51 127.43 157.80 128.28 Z M 157.14 129.07 L 156.49 129.86 C 155.78 130.72 155.90 131.98 156.76 132.69 C 157.61 133.39 158.87 133.27 159.58 132.42 L 160.24 131.62 C 160.94 130.77 160.82 129.50 159.97 128.80 C 159.11 128.09 157.85 128.21 157.14 129.07 Z M 156.47 129.88 L 155.84 130.66 C 155.14 131.52 155.28 132.78 156.14 133.48 C 157.00 134.18 158.26 134.04 158.96 133.18 L 159.59 132.40 C 160.29 131.54 160.16 130.28 159.30 129.58 C 158.44 128.88 157.17 129.02 156.47 129.88 Z M 155.81 130.71 L 155.06 131.70 C 154.39 132.58 154.56 133.83 155.44 134.50 C 156.32 135.17 157.58 135.00 158.25 134.12 L 159.00 133.13 C 159.66 132.25 159.49 130.99 158.61 130.33 C 157.73 129.66 156.47 129.83 155.81 130.71 Z M 154.85 132.07 L 154.53 132.75 C 154.07 133.75 154.50 134.93 155.50 135.40 C 156.49 135.86 157.68 135.43 158.14 134.43 L 158.46 133.75 C 158.92 132.75 158.49 131.56 157.49 131.10 C 156.49 130.64 155.31 131.07 154.85 132.07 Z M 156.01 135.55 L 156.65 135.66 C 157.73 135.83 158.75 135.10 158.93 134.01 C 159.11 132.93 158.37 131.91 157.29 131.73 L 156.65 131.63 C 155.57 131.45 154.55 132.19 154.37 133.27 C 154.20 134.35 154.93 135.38 156.01 135.55 Z M 157.60 135.58 L 158.71 135.21 C 159.75 134.86 160.31 133.73 159.96 132.69 C 159.61 131.65 158.48 131.09 157.44 131.44 L 156.33 131.81 C 155.29 132.16 154.73 133.29 155.08 134.33 C 155.43 135.37 156.56 135.93 157.60 135.58 Z M 158.85 135.15 L 159.77 134.76 C 160.78 134.33 161.25 133.17 160.82 132.16 C 160.40 131.14 159.23 130.67 158.22 131.10 L 157.30 131.49 C 156.29 131.92 155.81 133.09 156.24 134.10 C 156.67 135.11 157.84 135.58 158.85 135.15 Z M 159.82 134.74 L 160.78 134.30 C 161.77 133.84 162.21 132.66 161.75 131.67 C 161.29 130.67 160.11 130.23 159.12 130.69 L 158.16 131.13 C 157.17 131.58 156.73 132.76 157.19 133.76 C 157.64 134.76 158.82 135.20 159.82 134.74 Z M 160.81 134.28 L 161.75 133.82 C 162.74 133.35 163.15 132.16 162.68 131.18 C 162.20 130.19 161.02 129.78 160.03 130.25 L 159.09 130.71 C 158.10 131.18 157.69 132.37 158.16 133.35 C 158.64 134.34 159.82 134.75 160.81 134.28 Z M 161.77 133.80 L 162.67 133.35 C 163.64 132.86 164.03 131.68 163.54 130.71 C 163.06 129.74 161.88 129.35 160.91 129.83 L 160.01 130.28 C 159.04 130.77 158.65 131.95 159.14 132.92 C 159.62 133.89 160.80 134.28 161.77 133.80 Z M 162.68 133.32 L 163.53 132.88 C 164.49 132.39 164.86 131.22 164.37 130.26 C 163.88 129.31 162.70 128.93 161.75 129.42 L 160.90 129.86 C 159.94 130.35 159.56 131.53 160.06 132.48 C 160.55 133.44 161.72 133.81 162.68 133.32 Z M 163.53 132.87 L 164.42 132.40 C 165.36 131.91 165.73 130.74 165.24 129.79 C 164.74 128.85 163.58 128.48 162.63 128.98 L 161.74 129.44 C 160.80 129.93 160.43 131.10 160.93 132.05 C 161.42 132.99 162.59 133.36 163.53 132.87 Z M 164.42 132.39 L 165.31 131.93 C 166.25 131.43 166.61 130.27 166.11 129.33 C 165.62 128.39 164.46 128.03 163.52 128.52 L 162.63 128.99 C 161.69 129.48 161.33 130.64 161.82 131.58 C 162.32 132.52 163.48 132.89 164.42 132.39 Z M 165.30 131.92 L 166.20 131.45 C 167.14 130.95 167.50 129.80 167.01 128.86 C 166.52 127.92 165.36 127.56 164.42 128.05 L 163.52 128.53 C 162.58 129.02 162.22 130.18 162.72 131.11 C 163.21 132.05 164.36 132.41 165.30 131.92 Z M 166.20 131.44 L 167.10 130.97 C 168.04 130.48 168.39 129.32 167.90 128.39 C 167.41 127.45 166.25 127.09 165.32 127.59 L 164.42 128.06 C 163.49 128.55 163.13 129.71 163.62 130.64 C 164.11 131.58 165.27 131.93 166.20 131.44 Z M 167.12 130.96 L 167.98 130.50 C 168.91 130.00 169.26 128.84 168.76 127.91 C 168.26 126.98 167.10 126.63 166.17 127.13 L 165.31 127.59 C 164.37 128.09 164.03 129.25 164.53 130.18 C 165.03 131.11 166.18 131.46 167.12 130.96 Z M 168.00 130.49 L 168.91 129.99 C 169.83 129.47 170.17 128.31 169.65 127.39 C 169.14 126.46 167.98 126.13 167.05 126.64 L 166.14 127.14 C 165.22 127.65 164.88 128.82 165.40 129.74 C 165.91 130.67 167.07 131.00 168.00 130.49 Z M 168.90 129.99 L 169.74 129.54 C 170.67 129.02 171.01 127.86 170.49 126.93 C 169.98 126.00 168.82 125.66 167.89 126.17 L 167.06 126.63 C 166.13 127.14 165.79 128.31 166.30 129.24 C 166.81 130.16 167.98 130.50 168.90 129.99 Z M 169.67 129.58 L 170.56 129.14 C 171.51 128.66 171.89 127.50 171.42 126.55 C 170.94 125.60 169.79 125.21 168.83 125.69 L 167.95 126.13 C 167.00 126.61 166.61 127.76 167.09 128.72 C 167.57 129.67 168.72 130.05 169.67 129.58 Z M 170.40 129.23 L 171.39 128.84 C 172.40 128.45 172.89 127.33 172.50 126.32 C 172.11 125.32 170.98 124.82 169.98 125.21 L 168.99 125.60 C 167.99 125.99 167.49 127.12 167.88 128.12 C 168.27 129.12 169.40 129.62 170.40 129.23 Z M 170.96 129.01 L 171.95 128.87 C 173.04 128.72 173.81 127.71 173.66 126.62 C 173.51 125.52 172.50 124.76 171.40 124.91 L 170.41 125.05 C 169.32 125.20 168.55 126.21 168.70 127.30 C 168.86 128.40 169.86 129.16 170.96 129.01 Z M 169.98 128.06 L 170.39 128.66 C 171.04 129.60 172.32 129.84 173.26 129.20 C 174.20 128.55 174.44 127.27 173.79 126.33 L 173.38 125.73 C 172.73 124.79 171.45 124.55 170.51 125.19 C 169.57 125.84 169.33 127.12 169.98 128.06 Z M 170.02 127.13 L 169.83 128.20 C 169.63 129.34 170.39 130.44 171.53 130.64 C 172.68 130.84 173.77 130.08 173.97 128.93 L 174.16 127.86 C 174.37 126.72 173.60 125.63 172.46 125.42 C 171.31 125.22 170.22 125.98 170.02 127.13 Z M 169.95 127.71 L 169.58 128.55 C 169.11 129.63 169.60 130.89 170.68 131.36 C 171.75 131.83 173.01 131.34 173.48 130.27 L 173.85 129.42 C 174.32 128.35 173.83 127.09 172.76 126.62 C 171.68 126.14 170.42 126.63 169.95 127.71 Z M 169.65 128.39 L 169.13 129.34 C 168.57 130.38 168.95 131.68 170.00 132.25 C 171.04 132.81 172.34 132.42 172.90 131.38 L 173.42 130.43 C 173.98 129.39 173.59 128.09 172.55 127.53 C 171.51 126.96 170.21 127.35 169.65 128.39 Z M 169.12 129.34 L 168.67 130.19 C 168.10 131.23 168.49 132.54 169.54 133.10 C 170.58 133.67 171.89 133.28 172.45 132.23 L 172.91 131.39 C 173.47 130.34 173.08 129.03 172.04 128.47 C 170.99 127.91 169.69 128.30 169.12 129.34 Z M 168.66 130.19 L 168.17 131.10 C 167.61 132.15 168.00 133.46 169.05 134.02 C 170.10 134.58 171.41 134.19 171.97 133.14 L 172.46 132.23 C 173.02 131.18 172.63 129.87 171.58 129.31 C 170.53 128.75 169.22 129.14 168.66 130.19 Z M 168.17 131.08 L 167.68 131.99 C 167.11 133.03 167.50 134.35 168.54 134.92 C 169.59 135.49 170.90 135.10 171.48 134.06 L 171.97 133.15 C 172.54 132.11 172.15 130.79 171.10 130.22 C 170.06 129.65 168.74 130.04 168.17 131.08 Z M 167.69 131.96 L 167.18 132.86 C 166.60 133.90 166.97 135.22 168.01 135.81 C 169.05 136.40 170.37 136.03 170.96 134.98 L 171.46 134.08 C 172.05 133.04 171.68 131.72 170.64 131.13 C 169.60 130.55 168.28 130.92 167.69 131.96 Z M 167.19 132.84 L 166.71 133.68 C 166.11 134.72 166.47 136.04 167.51 136.64 C 168.55 137.24 169.87 136.88 170.47 135.84 L 170.95 135.00 C 171.55 133.96 171.19 132.64 170.15 132.04 C 169.11 131.44 167.79 131.80 167.19 132.84 Z M 166.71 133.68 L 166.23 134.50 C 165.63 135.54 165.99 136.87 167.03 137.47 C 168.07 138.07 169.40 137.71 169.99 136.67 L 170.47 135.84 C 171.07 134.80 170.71 133.48 169.67 132.88 C 168.63 132.28 167.31 132.64 166.71 133.68 Z M 166.22 134.51 L 165.74 135.37 C 165.14 136.41 165.50 137.74 166.55 138.33 C 167.59 138.93 168.92 138.56 169.51 137.52 L 170.00 136.66 C 170.59 135.62 170.23 134.30 169.19 133.70 C 168.15 133.11 166.82 133.47 166.22 134.51 Z M 165.73 135.38 L 165.22 136.28 C 164.63 137.32 165.00 138.65 166.05 139.24 C 167.09 139.83 168.42 139.46 169.01 138.41 L 169.52 137.51 C 170.11 136.47 169.74 135.14 168.69 134.55 C 167.64 133.96 166.32 134.33 165.73 135.38 Z M 165.22 136.28 L 164.78 137.07 C 164.20 138.12 164.57 139.44 165.62 140.02 C 166.66 140.61 167.99 140.24 168.57 139.19 L 169.01 138.41 C 169.60 137.36 169.22 136.04 168.18 135.45 C 167.13 134.86 165.81 135.24 165.22 136.28 Z M 164.79 137.06 L 164.31 137.92 C 163.72 138.97 164.09 140.29 165.13 140.88 C 166.18 141.46 167.50 141.09 168.09 140.05 L 168.57 139.19 C 169.15 138.15 168.79 136.83 167.74 136.24 C 166.70 135.65 165.38 136.02 164.79 137.06 Z M 164.32 137.91 L 163.77 138.86 C 163.17 139.90 163.53 141.22 164.57 141.82 C 165.61 142.41 166.93 142.06 167.53 141.02 L 168.07 140.06 C 168.67 139.02 168.31 137.70 167.27 137.11 C 166.23 136.51 164.91 136.87 164.32 137.91 Z M 163.78 138.85 L 163.25 139.75 C 162.65 140.78 163.00 142.11 164.03 142.71 C 165.06 143.31 166.38 142.97 166.98 141.94 L 167.51 141.03 C 168.12 140.00 167.77 138.68 166.74 138.08 C 165.71 137.47 164.39 137.82 163.78 138.85 Z M 163.26 139.75 L 162.72 140.66 C 162.12 141.68 162.45 143.00 163.48 143.61 C 164.50 144.22 165.82 143.88 166.43 142.86 L 166.97 141.95 C 167.58 140.92 167.24 139.60 166.22 138.99 C 165.19 138.39 163.87 138.72 163.26 139.75 Z M 162.73 140.65 L 162.21 141.53 C 161.60 142.55 161.93 143.87 162.95 144.47 C 163.97 145.08 165.29 144.75 165.90 143.74 L 166.42 142.86 C 167.03 141.84 166.70 140.52 165.68 139.91 C 164.66 139.30 163.34 139.64 162.73 140.65 Z M 162.22 141.53 L 161.75 142.30 C 161.14 143.31 161.47 144.63 162.48 145.24 C 163.50 145.85 164.81 145.52 165.42 144.51 L 165.89 143.74 C 166.50 142.72 166.17 141.41 165.16 140.80 C 164.15 140.18 162.83 140.51 162.22 141.53 Z M 161.77 142.30 L 161.15 143.31 C 160.55 144.32 160.87 145.63 161.87 146.24 C 162.88 146.85 164.19 146.52 164.80 145.52 L 165.41 144.51 C 166.02 143.50 165.70 142.19 164.69 141.58 C 163.69 140.97 162.38 141.30 161.77 142.30 Z M 161.18 143.30 L 160.74 144.02 C 160.12 145.01 160.43 146.31 161.42 146.93 C 162.41 147.54 163.72 147.23 164.33 146.24 L 164.77 145.52 C 165.39 144.53 165.08 143.23 164.09 142.62 C 163.10 142.00 161.79 142.31 161.18 143.30 Z M 160.77 144.00 L 160.25 144.81 C 159.63 145.78 159.92 147.08 160.89 147.70 C 161.87 148.33 163.16 148.04 163.79 147.06 L 164.30 146.26 C 164.92 145.28 164.64 143.99 163.66 143.36 C 162.69 142.74 161.39 143.03 160.77 144.00 Z M 160.27 144.80 L 159.74 145.62 C 159.11 146.59 159.38 147.88 160.34 148.51 C 161.31 149.14 162.60 148.86 163.23 147.90 L 163.77 147.07 C 164.40 146.11 164.12 144.82 163.16 144.19 C 162.19 143.56 160.90 143.83 160.27 144.80 Z M 159.75 145.61 L 159.29 146.30 C 158.66 147.26 158.92 148.55 159.88 149.18 C 160.83 149.82 162.12 149.56 162.76 148.60 L 163.21 147.91 C 163.85 146.95 163.59 145.66 162.63 145.03 C 161.67 144.39 160.39 144.66 159.75 145.61 Z M 159.32 146.28 L 158.69 147.19 C 158.04 148.13 158.28 149.42 159.22 150.07 C 160.16 150.72 161.45 150.48 162.10 149.54 L 162.73 148.63 C 163.38 147.68 163.14 146.40 162.20 145.75 C 161.26 145.10 159.97 145.34 159.32 146.28 Z M 158.72 147.17 L 158.10 148.03 C 157.44 148.96 157.66 150.24 158.59 150.90 C 159.52 151.56 160.81 151.35 161.47 150.42 L 162.08 149.56 C 162.74 148.63 162.52 147.34 161.59 146.68 C 160.66 146.02 159.38 146.24 158.72 147.17 Z M 158.12 148.01 L 157.51 148.86 C 156.84 149.77 157.05 151.06 157.96 151.73 C 158.88 152.39 160.17 152.19 160.83 151.27 L 161.45 150.43 C 162.11 149.51 161.91 148.23 160.99 147.56 C 160.08 146.89 158.79 147.10 158.12 148.01 Z M 157.53 148.84 L 156.90 149.69 C 156.22 150.59 156.41 151.88 157.31 152.55 C 158.22 153.23 159.50 153.05 160.18 152.14 L 160.81 151.29 C 161.49 150.38 161.30 149.10 160.40 148.42 C 159.49 147.75 158.21 147.93 157.53 148.84 Z M 156.93 149.66 L 156.33 150.43 C 155.64 151.32 155.80 152.60 156.69 153.29 C 157.58 153.98 158.86 153.82 159.56 152.93 L 160.15 152.17 C 160.84 151.28 160.68 149.99 159.79 149.30 C 158.90 148.61 157.62 148.77 156.93 149.66 Z M 156.42 150.37 L 155.65 151.27 C 154.93 152.12 155.03 153.38 155.87 154.10 C 156.72 154.83 157.99 154.73 158.71 153.88 L 159.47 152.98 C 160.19 152.14 160.09 150.87 159.25 150.15 C 158.41 149.43 157.14 149.53 156.42 150.37 Z M 155.81 151.20 L 155.17 151.83 C 154.41 152.58 154.40 153.81 155.16 154.58 C 155.92 155.34 157.15 155.34 157.91 154.59 L 158.55 153.96 C 159.31 153.20 159.31 151.97 158.56 151.21 C 157.80 150.45 156.57 150.44 155.81 151.20 Z M 155.27 151.80 L 155.02 152.03 C 154.24 152.73 154.18 153.93 154.88 154.70 C 155.58 155.48 156.77 155.54 157.55 154.84 L 157.81 154.61 C 158.58 153.91 158.64 152.72 157.94 151.94 C 157.25 151.17 156.05 151.11 155.27 151.80 Z"
      fill="black"
      fill-rule="nonzero" /><path d="M 155.63 141.62 L 156.58 142.09 C 157.66 142.63 158.97 142.19 159.51 141.11 C 160.05 140.03 159.61 138.71 158.53 138.17 L 157.58 137.70 C 156.50 137.17 155.19 137.61 154.65 138.69 C 154.11 139.77 154.55 141.08 155.63 141.62 Z M 156.56 142.11 L 157.47 142.57 C 158.57 143.11 159.89 142.67 160.44 141.58 C 160.99 140.49 160.55 139.16 159.45 138.61 L 158.54 138.16 C 157.45 137.61 156.12 138.05 155.57 139.14 C 155.03 140.24 155.47 141.56 156.56 142.11 Z M 157.45 142.58 L 158.30 143.01 C 159.40 143.57 160.75 143.13 161.30 142.03 C 161.86 140.93 161.42 139.58 160.32 139.02 L 159.47 138.60 C 158.37 138.04 157.03 138.48 156.47 139.58 C 155.91 140.68 156.35 142.03 157.45 142.58 Z M 158.28 143.01 L 159.15 143.46 C 160.25 144.03 161.60 143.60 162.17 142.50 C 162.74 141.40 162.31 140.05 161.21 139.48 L 160.34 139.03 C 159.24 138.46 157.89 138.89 157.32 139.99 C 156.75 141.09 157.18 142.44 158.28 143.01 Z M 159.12 143.43 L 159.97 143.89 C 161.05 144.48 162.40 144.08 162.99 142.99 C 163.58 141.91 163.18 140.56 162.09 139.97 L 161.25 139.51 C 160.16 138.93 158.81 139.33 158.22 140.41 C 157.64 141.49 158.04 142.84 159.12 143.43 Z M 159.93 143.85 L 160.82 144.36 C 161.88 144.96 163.23 144.60 163.83 143.54 C 164.44 142.48 164.07 141.13 163.01 140.52 L 162.13 140.01 C 161.07 139.41 159.72 139.77 159.11 140.83 C 158.51 141.89 158.87 143.24 159.93 143.85 Z M 160.79 144.32 L 161.63 144.82 C 162.67 145.44 164.02 145.10 164.64 144.06 C 165.26 143.03 164.92 141.68 163.88 141.06 L 163.04 140.56 C 162.00 139.93 160.65 140.27 160.03 141.31 C 159.41 142.35 159.75 143.70 160.79 144.32 Z M 161.61 144.79 L 162.49 145.33 C 163.51 145.96 164.85 145.65 165.48 144.63 C 166.11 143.60 165.80 142.26 164.78 141.63 L 163.90 141.09 C 162.88 140.46 161.54 140.77 160.91 141.80 C 160.27 142.82 160.59 144.16 161.61 144.79 Z M 162.46 145.30 L 163.31 145.84 C 164.31 146.48 165.64 146.20 166.29 145.19 C 166.93 144.19 166.65 142.86 165.64 142.21 L 164.80 141.67 C 163.80 141.02 162.46 141.31 161.82 142.31 C 161.17 143.31 161.46 144.65 162.46 145.30 Z M 163.28 145.78 L 164.14 146.37 C 165.11 147.03 166.43 146.78 167.09 145.81 C 167.75 144.84 167.50 143.52 166.53 142.86 L 165.67 142.27 C 164.70 141.61 163.38 141.86 162.72 142.83 C 162.06 143.80 162.31 145.12 163.28 145.78 Z M 164.10 146.27 L 164.88 146.86 C 165.80 147.54 167.10 147.35 167.78 146.43 C 168.46 145.52 168.27 144.22 167.36 143.54 L 166.57 142.95 C 165.65 142.27 164.36 142.46 163.68 143.38 C 162.99 144.29 163.18 145.59 164.10 146.27 Z M 164.84 146.75 L 165.59 147.37 C 166.45 148.08 167.72 147.96 168.43 147.10 C 169.13 146.24 169.01 144.97 168.15 144.26 L 167.40 143.64 C 166.54 142.94 165.27 143.06 164.57 143.92 C 163.86 144.78 163.98 146.04 164.84 146.75 Z M 165.55 147.27 L 166.29 147.95 C 167.10 148.68 168.34 148.63 169.08 147.82 C 169.81 147.02 169.75 145.77 168.94 145.04 L 168.20 144.36 C 167.39 143.63 166.15 143.69 165.42 144.49 C 164.69 145.30 164.74 146.54 165.55 147.27 Z M 166.24 147.85 L 166.95 148.57 C 167.70 149.33 168.92 149.34 169.68 148.60 C 170.44 147.85 170.45 146.63 169.71 145.87 L 169.00 145.15 C 168.25 144.38 167.03 144.37 166.27 145.12 C 165.51 145.87 165.50 147.09 166.24 147.85 Z M 166.88 148.44 L 167.52 149.20 C 168.20 150.00 169.39 150.10 170.19 149.43 C 170.99 148.76 171.09 147.56 170.42 146.76 L 169.78 146.00 C 169.10 145.20 167.91 145.10 167.11 145.77 C 166.31 146.45 166.21 147.64 166.88 148.44 Z M 167.44 149.04 L 168.03 149.88 C 168.61 150.72 169.77 150.93 170.61 150.35 C 171.46 149.76 171.67 148.60 171.08 147.76 L 170.50 146.92 C 169.91 146.08 168.75 145.87 167.91 146.46 C 167.07 147.04 166.86 148.20 167.44 149.04 Z M 167.99 149.76 L 168.49 150.59 C 169.01 151.46 170.14 151.74 171.00 151.21 C 171.86 150.69 172.14 149.57 171.62 148.70 L 171.12 147.87 C 170.59 147.01 169.47 146.73 168.61 147.25 C 167.74 147.78 167.47 148.90 167.99 149.76 Z M 168.49 150.56 L 168.59 150.72 C 169.09 151.59 170.20 151.88 171.06 151.37 C 171.92 150.87 172.21 149.76 171.71 148.90 L 171.62 148.74 C 171.11 147.87 170.01 147.58 169.14 148.09 C 168.28 148.59 167.99 149.70 168.49 150.56 Z"
      fill="black"
      fill-rule="nonzero" /><path d="M 137.73 164.13 L 138.70 164.26 C 139.80 164.40 140.81 163.62 140.96 162.52 C 141.10 161.42 140.32 160.41 139.22 160.27 L 138.25 160.14 C 137.15 160.00 136.14 160.77 135.99 161.88 C 135.85 162.98 136.63 163.99 137.73 164.13 Z M 138.88 164.44 L 139.87 164.47 C 141.07 164.52 142.08 163.58 142.13 162.38 C 142.17 161.17 141.23 160.16 140.03 160.12 L 139.04 160.08 C 137.84 160.04 136.83 160.98 136.78 162.18 C 136.74 163.38 137.68 164.40 138.88 164.44 Z M 140.13 164.56 L 140.99 164.49 C 142.23 164.38 143.16 163.29 143.06 162.04 C 142.96 160.80 141.87 159.87 140.62 159.97 L 139.77 160.04 C 138.52 160.14 137.59 161.23 137.69 162.48 C 137.79 163.73 138.89 164.66 140.13 164.56 Z M 141.13 164.49 L 142.18 164.34 C 143.43 164.16 144.30 163.00 144.12 161.75 C 143.94 160.50 142.78 159.63 141.53 159.82 L 140.48 159.97 C 139.23 160.15 138.36 161.31 138.54 162.55 C 138.72 163.80 139.88 164.67 141.13 164.49 Z M 142.23 164.34 L 143.29 164.17 C 144.55 163.96 145.39 162.78 145.19 161.53 C 144.98 160.27 143.80 159.43 142.55 159.63 L 141.48 159.81 C 140.23 160.02 139.38 161.20 139.59 162.45 C 139.80 163.70 140.98 164.55 142.23 164.34 Z M 143.30 164.17 L 144.32 164.00 C 145.57 163.79 146.42 162.60 146.21 161.35 C 145.99 160.09 144.81 159.25 143.55 159.46 L 142.54 159.63 C 141.28 159.84 140.44 161.03 140.65 162.28 C 140.86 163.54 142.05 164.38 143.30 164.17 Z M 144.32 164.00 L 145.35 163.83 C 146.61 163.62 147.45 162.43 147.24 161.17 C 147.03 159.92 145.84 159.07 144.58 159.28 L 143.55 159.46 C 142.30 159.67 141.45 160.86 141.66 162.11 C 141.87 163.37 143.06 164.21 144.32 164.00 Z M 145.34 163.83 L 146.30 163.67 C 147.56 163.47 148.41 162.28 148.21 161.02 C 148.00 159.76 146.81 158.91 145.55 159.12 L 144.59 159.28 C 143.33 159.49 142.48 160.67 142.69 161.93 C 142.90 163.19 144.09 164.04 145.34 163.83 Z M 146.28 163.67 L 147.42 163.49 C 148.67 163.30 149.53 162.12 149.34 160.86 C 149.14 159.61 147.96 158.75 146.71 158.94 L 145.57 159.12 C 144.32 159.32 143.46 160.49 143.65 161.75 C 143.85 163.01 145.03 163.87 146.28 163.67 Z M 147.38 163.48 L 148.31 163.35 C 149.56 163.17 150.43 162.02 150.25 160.77 C 150.08 159.52 148.92 158.65 147.67 158.82 L 146.74 158.96 C 145.49 159.13 144.62 160.29 144.80 161.54 C 144.98 162.79 146.13 163.66 147.38 163.48 Z M 148.29 163.34 L 149.19 163.22 C 150.43 163.05 151.30 161.91 151.13 160.66 C 150.96 159.42 149.82 158.55 148.58 158.72 L 147.69 158.84 C 146.44 159.01 145.57 160.15 145.74 161.39 C 145.91 162.63 147.05 163.50 148.29 163.34 Z M 149.19 163.20 L 150.18 163.07 C 151.41 162.90 152.28 161.76 152.11 160.53 C 151.94 159.29 150.80 158.43 149.57 158.60 L 148.58 158.73 C 147.34 158.90 146.48 160.04 146.65 161.27 C 146.81 162.51 147.95 163.37 149.19 163.20 Z M 150.18 163.06 L 151.17 162.92 C 152.39 162.75 153.25 161.62 153.08 160.39 C 152.92 159.17 151.78 158.31 150.56 158.47 L 149.57 158.61 C 148.34 158.78 147.48 159.91 147.65 161.14 C 147.82 162.36 148.95 163.22 150.18 163.06 Z M 151.15 162.90 L 152.15 162.77 C 153.36 162.61 154.22 161.49 154.06 160.27 C 153.89 159.05 152.78 158.20 151.56 158.36 L 150.57 158.49 C 149.35 158.66 148.50 159.77 148.66 160.99 C 148.82 162.21 149.94 163.06 151.15 162.90 Z M 152.12 162.75 L 153.11 162.62 C 154.32 162.48 155.18 161.39 155.03 160.18 C 154.88 158.98 153.79 158.12 152.59 158.26 L 151.59 158.39 C 150.39 158.53 149.53 159.63 149.67 160.83 C 149.82 162.03 150.91 162.89 152.12 162.75 Z M 153.09 162.59 L 154.08 162.48 C 155.27 162.35 156.12 161.29 155.99 160.10 C 155.86 158.91 154.79 158.06 153.61 158.19 L 152.61 158.30 C 151.43 158.43 150.57 159.49 150.70 160.68 C 150.83 161.87 151.90 162.72 153.09 162.59 Z M 154.07 162.45 L 155.08 162.34 C 156.24 162.21 157.09 161.16 156.96 160.00 C 156.83 158.83 155.78 157.99 154.62 158.11 L 153.61 158.22 C 152.45 158.35 151.60 159.40 151.73 160.56 C 151.86 161.73 152.91 162.57 154.07 162.45 Z M 155.06 162.30 L 156.05 162.20 C 157.20 162.08 158.03 161.05 157.91 159.91 C 157.79 158.76 156.76 157.93 155.62 158.05 L 154.63 158.15 C 153.48 158.27 152.65 159.30 152.77 160.44 C 152.89 161.59 153.92 162.42 155.06 162.30 Z M 156.01 162.17 L 156.94 162.09 C 158.07 161.99 158.91 160.99 158.81 159.86 C 158.71 158.73 157.71 157.89 156.58 157.99 L 155.65 158.08 C 154.52 158.18 153.68 159.17 153.78 160.31 C 153.88 161.44 154.88 162.27 156.01 162.17 Z M 156.91 162.06 L 157.96 161.98 C 159.08 161.90 159.92 160.93 159.83 159.81 C 159.75 158.69 158.78 157.86 157.66 157.94 L 156.61 158.02 C 155.49 158.10 154.66 159.08 154.74 160.19 C 154.82 161.31 155.80 162.15 156.91 162.06 Z M 157.94 161.96 L 158.91 161.90 C 160.01 161.82 160.85 160.87 160.78 159.77 C 160.70 158.67 159.75 157.83 158.65 157.90 L 157.68 157.97 C 156.58 158.04 155.74 158.99 155.81 160.09 C 155.89 161.19 156.84 162.03 157.94 161.96 Z M 158.82 161.87 L 159.85 161.85 C 160.94 161.83 161.81 160.92 161.78 159.83 C 161.76 158.74 160.86 157.88 159.76 157.90 L 158.73 157.92 C 157.64 157.95 156.78 158.85 156.80 159.94 C 156.83 161.03 157.73 161.90 158.82 161.87 Z M 159.67 161.82 L 160.70 161.89 C 161.78 161.97 162.71 161.16 162.78 160.08 C 162.86 159.01 162.05 158.08 160.97 158.00 L 159.94 157.93 C 158.87 157.86 157.94 158.67 157.86 159.74 C 157.79 160.82 158.60 161.75 159.67 161.82 Z M 160.48 161.83 L 161.47 162.02 C 162.51 162.21 163.51 161.53 163.71 160.49 C 163.90 159.45 163.22 158.45 162.18 158.25 L 161.19 158.06 C 160.15 157.87 159.15 158.55 158.95 159.59 C 158.76 160.63 159.44 161.63 160.48 161.83 Z M 161.35 161.96 L 162.22 162.18 C 163.23 162.44 164.26 161.84 164.52 160.83 C 164.78 159.82 164.17 158.80 163.16 158.54 L 162.29 158.31 C 161.29 158.05 160.26 158.66 160.00 159.66 C 159.74 160.67 160.35 161.70 161.35 161.96 Z"
      fill="black"
      fill-rule="nonzero" /><path d="M 150.89 162.86 L 151.41 163.72 C 151.96 164.62 153.13 164.90 154.03 164.36 C 154.93 163.81 155.22 162.63 154.67 161.73 L 154.15 160.88 C 153.60 159.98 152.43 159.69 151.53 160.24 C 150.63 160.79 150.34 161.96 150.89 162.86 Z M 151.15 163.63 L 151.58 164.52 C 152.08 165.57 153.33 166.01 154.37 165.51 C 155.42 165.01 155.86 163.76 155.36 162.72 L 154.93 161.82 C 154.43 160.78 153.18 160.34 152.14 160.84 C 151.09 161.33 150.65 162.58 151.15 163.63 Z M 151.38 164.26 L 151.67 165.21 C 152.02 166.36 153.24 167.01 154.39 166.66 C 155.54 166.31 156.19 165.09 155.84 163.94 L 155.55 162.99 C 155.20 161.83 153.98 161.19 152.83 161.54 C 151.68 161.89 151.03 163.10 151.38 164.26 Z M 151.61 164.97 L 151.79 165.94 C 152.01 167.13 153.15 167.91 154.34 167.69 C 155.53 167.47 156.31 166.32 156.09 165.13 L 155.91 164.17 C 155.69 162.98 154.54 162.20 153.36 162.42 C 152.17 162.64 151.38 163.79 151.61 164.97 Z M 151.75 165.78 L 151.86 166.76 C 151.99 167.97 153.08 168.84 154.29 168.71 C 155.50 168.58 156.37 167.49 156.23 166.28 L 156.12 165.29 C 155.99 164.09 154.90 163.22 153.70 163.35 C 152.49 163.48 151.62 164.57 151.75 165.78 Z M 151.85 166.66 L 151.91 167.70 C 151.99 168.91 153.03 169.84 154.25 169.76 C 155.46 169.68 156.39 168.64 156.31 167.42 L 156.25 166.39 C 156.17 165.17 155.13 164.25 153.91 164.32 C 152.69 164.40 151.77 165.45 151.85 166.66 Z M 151.91 167.64 L 151.95 168.66 C 151.99 169.88 153.01 170.83 154.23 170.78 C 155.44 170.74 156.39 169.72 156.35 168.50 L 156.31 167.48 C 156.27 166.26 155.25 165.31 154.03 165.36 C 152.82 165.40 151.87 166.42 151.91 167.64 Z M 151.96 168.63 L 151.98 169.64 C 152.00 170.85 153.01 171.81 154.21 171.78 C 155.42 171.76 156.38 170.76 156.36 169.55 L 156.34 168.54 C 156.31 167.33 155.31 166.37 154.10 166.39 C 152.89 166.42 151.93 167.42 151.96 168.63 Z M 152.01 169.61 L 152.01 170.62 C 152.02 171.81 153.00 172.77 154.19 172.76 C 155.39 172.76 156.35 171.78 156.34 170.59 L 156.33 169.58 C 156.32 168.38 155.35 167.42 154.15 167.43 C 152.96 167.44 152.00 168.41 152.01 169.61 Z M 152.05 170.60 L 152.05 171.56 C 152.05 172.74 153.00 173.69 154.18 173.69 C 155.35 173.69 156.30 172.74 156.30 171.56 L 156.30 170.60 C 156.30 169.43 155.35 168.47 154.18 168.48 C 153.00 168.48 152.05 169.43 152.05 170.60 Z M 152.08 171.56 L 152.08 172.56 C 152.08 173.72 153.02 174.65 154.18 174.65 C 155.33 174.65 156.27 173.72 156.27 172.56 L 156.27 171.56 C 156.27 170.40 155.33 169.47 154.18 169.47 C 153.02 169.47 152.08 170.40 152.08 171.56 Z M 152.11 172.56 L 152.11 173.56 C 152.11 174.70 153.04 175.62 154.18 175.62 C 155.32 175.62 156.24 174.70 156.24 173.56 L 156.24 172.56 C 156.24 171.42 155.32 170.50 154.18 170.50 C 153.04 170.50 152.11 171.42 152.11 172.56 Z M 152.15 173.56 L 152.15 174.56 C 152.15 175.68 153.06 176.58 154.18 176.58 C 155.29 176.58 156.20 175.68 156.20 174.56 L 156.20 173.56 C 156.20 172.44 155.29 171.54 154.18 171.54 C 153.06 171.54 152.15 172.44 152.15 173.56 Z M 152.19 174.53 L 152.18 175.53 C 152.17 176.63 153.04 177.53 154.14 177.54 C 155.23 177.56 156.13 176.68 156.15 175.59 L 156.16 174.59 C 156.17 173.49 155.30 172.59 154.20 172.58 C 153.11 172.56 152.21 173.44 152.19 174.53 Z M 152.22 175.45 L 152.17 176.37 C 152.11 177.45 152.93 178.37 154.00 178.43 C 155.07 178.49 155.99 177.67 156.06 176.59 L 156.11 175.67 C 156.17 174.60 155.35 173.68 154.28 173.62 C 153.20 173.56 152.28 174.38 152.22 175.45 Z M 152.20 176.30 L 152.10 177.36 C 151.99 178.41 152.77 179.35 153.82 179.45 C 154.88 179.56 155.81 178.78 155.92 177.73 L 156.02 176.67 C 156.12 175.62 155.35 174.68 154.30 174.57 C 153.24 174.47 152.30 175.24 152.20 176.30 Z M 152.12 177.33 L 152.02 178.28 C 151.90 179.32 152.65 180.26 153.69 180.37 C 154.73 180.49 155.67 179.74 155.79 178.70 L 155.89 177.75 C 156.01 176.71 155.26 175.77 154.22 175.66 C 153.18 175.54 152.24 176.29 152.12 177.33 Z M 152.03 178.26 L 151.91 179.29 C 151.78 180.32 152.52 181.26 153.55 181.38 C 154.58 181.51 155.52 180.78 155.65 179.74 L 155.77 178.72 C 155.90 177.68 155.16 176.75 154.13 176.62 C 153.10 176.50 152.16 177.23 152.03 178.26 Z M 151.93 179.26 L 151.79 180.29 C 151.65 181.31 152.36 182.26 153.38 182.40 C 154.40 182.54 155.34 181.83 155.48 180.81 L 155.62 179.77 C 155.76 178.75 155.05 177.81 154.03 177.67 C 153.01 177.53 152.07 178.24 151.93 179.26 Z M 151.81 180.26 L 151.66 181.26 C 151.50 182.26 152.18 183.21 153.19 183.36 C 154.19 183.52 155.14 182.84 155.30 181.83 L 155.45 180.84 C 155.61 179.83 154.93 178.89 153.92 178.73 C 152.92 178.57 151.97 179.26 151.81 180.26 Z M 151.69 181.24 L 151.52 182.20 C 151.35 183.19 152.02 184.12 153.01 184.29 C 154.00 184.46 154.94 183.80 155.10 182.81 L 155.27 181.85 C 155.43 180.86 154.77 179.92 153.78 179.75 C 152.79 179.59 151.85 180.25 151.69 181.24 Z"
      fill="black"
      fill-rule="nonzero" /><path d="M 155.39 173.42 L 156.39 173.27 C 157.52 173.11 158.31 172.07 158.15 170.94 C 157.99 169.80 156.94 169.02 155.81 169.18 L 154.80 169.32 C 153.67 169.48 152.89 170.53 153.05 171.66 C 153.21 172.79 154.26 173.58 155.39 173.42 Z M 156.46 173.33 L 157.43 173.17 C 158.59 172.97 159.37 171.87 159.18 170.71 C 158.98 169.54 157.88 168.76 156.72 168.96 L 155.74 169.12 C 154.58 169.32 153.80 170.42 153.99 171.58 C 154.19 172.75 155.29 173.53 156.46 173.33 Z M 157.52 173.19 L 158.48 172.99 C 159.66 172.74 160.41 171.59 160.16 170.41 C 159.92 169.24 158.76 168.48 157.59 168.73 L 156.62 168.93 C 155.45 169.18 154.69 170.33 154.94 171.51 C 155.19 172.69 156.34 173.44 157.52 173.19 Z M 158.49 173.00 L 159.48 172.79 C 160.66 172.54 161.42 171.37 161.16 170.19 C 160.91 169.01 159.75 168.26 158.57 168.51 L 157.58 168.72 C 156.39 168.97 155.64 170.13 155.89 171.32 C 156.15 172.50 157.31 173.25 158.49 173.00 Z M 159.44 172.80 L 160.44 172.60 C 161.63 172.37 162.40 171.22 162.17 170.03 C 161.94 168.85 160.79 168.07 159.60 168.31 L 158.60 168.50 C 157.42 168.73 156.64 169.88 156.87 171.07 C 157.11 172.26 158.26 173.03 159.44 172.80 Z M 160.44 172.58 L 161.43 172.39 C 162.61 172.16 163.37 171.02 163.14 169.84 C 162.91 168.67 161.78 167.90 160.60 168.13 L 159.60 168.33 C 158.43 168.56 157.66 169.69 157.89 170.87 C 158.12 172.05 159.26 172.81 160.44 172.58 Z M 161.44 172.32 L 162.42 172.12 C 163.56 171.88 164.29 170.77 164.05 169.63 C 163.81 168.49 162.70 167.76 161.56 168.00 L 160.59 168.20 C 159.45 168.44 158.72 169.55 158.96 170.69 C 159.19 171.82 160.31 172.56 161.44 172.32 Z M 162.40 172.02 L 163.37 171.82 C 164.46 171.59 165.15 170.53 164.92 169.44 C 164.70 168.35 163.63 167.66 162.54 167.89 L 161.58 168.09 C 160.49 168.32 159.80 169.38 160.02 170.47 C 160.25 171.56 161.32 172.25 162.40 172.02 Z M 163.27 171.75 L 164.25 171.58 C 165.30 171.41 166.00 170.42 165.83 169.38 C 165.65 168.33 164.67 167.63 163.62 167.80 L 162.64 167.96 C 161.60 168.14 160.89 169.12 161.06 170.17 C 161.24 171.21 162.22 171.92 163.27 171.75 Z M 164.08 171.54 L 165.08 171.46 C 166.10 171.38 166.86 170.49 166.78 169.47 C 166.70 168.45 165.81 167.69 164.79 167.77 L 163.79 167.85 C 162.77 167.93 162.01 168.82 162.09 169.84 C 162.17 170.86 163.06 171.62 164.08 171.54 Z M 165.01 171.43 L 165.47 171.41 C 166.48 171.36 167.25 170.52 167.21 169.51 C 167.17 168.51 166.32 167.73 165.31 167.78 L 164.85 167.80 C 163.85 167.84 163.07 168.69 163.12 169.69 C 163.16 170.70 164.01 171.47 165.01 171.43 Z"
      fill="black"
      fill-rule="nonzero" /><path d="M 138.95 168.68 L 139.09 169.68 C 139.24 170.72 140.21 171.44 141.25 171.29 C 142.30 171.14 143.02 170.17 142.87 169.13 L 142.72 168.13 C 142.57 167.09 141.60 166.37 140.56 166.52 C 139.52 166.67 138.80 167.63 138.95 168.68 Z M 139.07 169.73 L 139.23 170.70 C 139.41 171.76 140.41 172.47 141.47 172.30 C 142.52 172.12 143.24 171.12 143.06 170.06 L 142.89 169.08 C 142.72 168.03 141.72 167.31 140.66 167.49 C 139.60 167.67 138.89 168.67 139.07 169.73 Z M 139.23 170.77 L 139.43 171.76 C 139.65 172.81 140.68 173.49 141.74 173.28 C 142.79 173.06 143.47 172.03 143.26 170.97 L 143.06 169.99 C 142.84 168.93 141.81 168.25 140.75 168.47 C 139.70 168.69 139.02 169.72 139.23 170.77 Z M 139.44 171.76 L 139.64 172.73 C 139.86 173.78 140.89 174.45 141.95 174.23 C 143.00 174.02 143.67 172.98 143.45 171.93 L 143.25 170.97 C 143.03 169.92 142.00 169.24 140.95 169.46 C 139.90 169.68 139.22 170.71 139.44 171.76 Z M 139.64 172.67 L 139.81 173.65 C 140.00 174.70 141.00 175.40 142.06 175.22 C 143.11 175.03 143.81 174.03 143.63 172.98 L 143.45 172.00 C 143.27 170.94 142.26 170.24 141.21 170.43 C 140.16 170.61 139.46 171.61 139.64 172.67 Z M 139.81 173.54 L 139.93 174.53 C 140.06 175.58 141.02 176.33 142.07 176.21 C 143.13 176.08 143.88 175.12 143.75 174.07 L 143.63 173.08 C 143.50 172.02 142.54 171.28 141.49 171.40 C 140.43 171.53 139.68 172.49 139.81 173.54 Z M 139.94 174.43 L 140.01 175.43 C 140.09 176.47 140.99 177.27 142.04 177.19 C 143.09 177.12 143.88 176.21 143.81 175.16 L 143.74 174.17 C 143.67 173.12 142.76 172.33 141.71 172.40 C 140.66 172.47 139.87 173.38 139.94 174.43 Z M 140.03 175.35 L 140.06 176.37 C 140.10 177.41 140.96 178.23 142.00 178.19 C 143.04 178.16 143.85 177.29 143.82 176.26 L 143.79 175.24 C 143.76 174.20 142.89 173.38 141.85 173.42 C 140.81 173.45 140.00 174.32 140.03 175.35 Z M 140.08 176.33 L 140.09 177.33 C 140.09 178.36 140.93 179.19 141.96 179.18 C 142.98 179.18 143.81 178.34 143.81 177.31 L 143.80 176.30 C 143.79 175.28 142.96 174.45 141.93 174.46 C 140.91 174.46 140.08 175.30 140.08 176.33 Z M 140.11 177.30 L 140.10 178.28 C 140.08 179.30 140.89 180.13 141.91 180.15 C 142.92 180.16 143.76 179.35 143.77 178.33 L 143.79 177.35 C 143.80 176.33 142.99 175.50 141.97 175.48 C 140.96 175.47 140.12 176.28 140.11 177.30 Z M 140.12 178.14 L 140.03 179.11 C 139.94 180.11 140.67 181.00 141.68 181.09 C 142.68 181.19 143.57 180.45 143.66 179.45 L 143.75 178.47 C 143.84 177.47 143.10 176.58 142.10 176.49 C 141.10 176.40 140.21 177.14 140.12 178.14 Z M 140.10 178.79 L 139.82 179.77 C 139.55 180.73 140.11 181.73 141.07 182.00 C 142.04 182.28 143.04 181.72 143.31 180.75 L 143.59 179.77 C 143.86 178.81 143.30 177.81 142.34 177.54 C 141.38 177.26 140.37 177.82 140.10 178.79 Z M 139.93 179.49 L 139.49 180.42 C 139.07 181.32 139.45 182.40 140.35 182.82 C 141.25 183.25 142.33 182.87 142.76 181.97 L 143.20 181.03 C 143.63 180.13 143.24 179.05 142.34 178.63 C 141.44 178.20 140.36 178.59 139.93 179.49 Z M 139.61 180.21 L 139.08 181.03 C 138.53 181.87 138.77 182.99 139.60 183.53 C 140.44 184.07 141.56 183.84 142.10 183.00 L 142.64 182.18 C 143.18 181.34 142.94 180.22 142.11 179.68 C 141.27 179.14 140.16 179.37 139.61 180.21 Z M 139.33 180.72 L 138.61 181.42 C 137.90 182.12 137.88 183.26 138.57 183.97 C 139.26 184.69 140.40 184.71 141.12 184.01 L 141.84 183.31 C 142.56 182.62 142.58 181.48 141.88 180.76 C 141.19 180.05 140.05 180.03 139.33 180.72 Z M 139.10 181.09 L 138.25 181.48 C 137.35 181.91 136.96 182.98 137.38 183.88 C 137.80 184.78 138.88 185.17 139.78 184.75 L 140.63 184.35 C 141.53 183.93 141.92 182.86 141.50 181.96 C 141.08 181.06 140.00 180.67 139.10 181.09 Z M 138.64 181.36 L 137.68 181.56 C 136.70 181.77 136.09 182.73 136.29 183.70 C 136.50 184.67 137.46 185.29 138.43 185.08 L 139.39 184.88 C 140.37 184.67 140.98 183.71 140.78 182.74 C 140.57 181.77 139.61 181.15 138.64 181.36 Z M 137.97 181.52 L 136.91 181.57 C 135.91 181.62 135.14 182.46 135.19 183.46 C 135.24 184.45 136.08 185.22 137.08 185.17 L 138.14 185.12 C 139.13 185.08 139.90 184.23 139.86 183.24 C 139.81 182.24 138.96 181.47 137.97 181.52 Z M 137.20 181.57 L 136.17 181.45 C 135.18 181.34 134.28 182.06 134.17 183.05 C 134.05 184.05 134.77 184.95 135.76 185.06 L 136.79 185.17 C 137.78 185.29 138.68 184.57 138.79 183.58 C 138.91 182.58 138.19 181.68 137.20 181.57 Z M 136.58 181.53 L 135.65 181.20 C 134.70 180.86 133.65 181.35 133.31 182.31 C 132.97 183.26 133.47 184.31 134.42 184.65 L 135.35 184.98 C 136.30 185.32 137.35 184.83 137.69 183.87 C 138.03 182.92 137.54 181.87 136.58 181.53 Z M 136.41 181.62 L 135.71 180.88 C 134.99 180.12 133.79 180.09 133.03 180.81 C 132.27 181.53 132.24 182.73 132.96 183.49 L 133.66 184.23 C 134.38 184.99 135.58 185.02 136.34 184.30 C 137.10 183.58 137.14 182.38 136.41 181.62 Z M 136.02 183.32 L 136.43 182.72 C 137.05 181.79 136.81 180.52 135.88 179.90 C 134.95 179.27 133.68 179.52 133.06 180.45 L 132.65 181.05 C 132.02 181.98 132.27 183.24 133.20 183.87 C 134.13 184.50 135.39 184.25 136.02 183.32 Z M 135.22 183.70 L 136.22 183.48 C 137.39 183.21 138.12 182.05 137.86 180.88 C 137.59 179.71 136.43 178.98 135.26 179.24 L 134.26 179.46 C 133.09 179.73 132.36 180.89 132.62 182.06 C 132.89 183.23 134.05 183.97 135.22 183.70 Z M 135.85 183.60 L 136.82 183.55 C 138.06 183.49 139.01 182.44 138.95 181.20 C 138.89 179.96 137.83 179.00 136.59 179.06 L 135.62 179.11 C 134.39 179.18 133.43 180.23 133.49 181.47 C 133.56 182.71 134.61 183.66 135.85 183.60 Z M 136.76 183.58 L 137.81 183.56 C 139.07 183.52 140.06 182.48 140.03 181.22 C 139.99 179.97 138.95 178.98 137.69 179.01 L 136.65 179.03 C 135.39 179.07 134.40 180.11 134.43 181.37 C 134.46 182.62 135.51 183.62 136.76 183.58 Z M 137.83 183.58 L 138.83 183.55 C 140.10 183.51 141.09 182.44 141.05 181.18 C 141.01 179.91 139.95 178.91 138.68 178.95 L 137.68 178.98 C 136.41 179.03 135.41 180.09 135.45 181.36 C 135.49 182.63 136.56 183.62 137.83 183.58 Z M 138.83 183.57 L 139.88 183.54 C 141.16 183.49 142.16 182.42 142.12 181.13 C 142.07 179.85 141.00 178.85 139.72 178.89 L 138.67 178.93 C 137.39 178.97 136.39 180.05 136.43 181.33 C 136.48 182.61 137.55 183.62 138.83 183.57 Z M 139.87 183.55 L 140.91 183.52 C 142.20 183.48 143.22 182.40 143.17 181.10 C 143.13 179.81 142.05 178.80 140.76 178.84 L 139.72 178.87 C 138.43 178.92 137.41 180.00 137.46 181.29 C 137.50 182.58 138.58 183.60 139.87 183.55 Z M 140.91 183.53 L 141.91 183.50 C 143.20 183.45 144.22 182.37 144.18 181.07 C 144.13 179.77 143.05 178.76 141.75 178.80 L 140.76 178.83 C 139.46 178.87 138.44 179.96 138.49 181.26 C 138.53 182.56 139.62 183.57 140.91 183.53 Z M 141.93 183.50 L 142.90 183.46 C 144.20 183.40 145.21 182.30 145.15 181.00 C 145.10 179.70 144.00 178.69 142.70 178.75 L 141.73 178.79 C 140.43 178.85 139.42 179.95 139.47 181.25 C 139.53 182.55 140.63 183.56 141.93 183.50 Z M 142.94 183.46 L 143.97 183.40 C 145.27 183.32 146.27 182.21 146.19 180.91 C 146.11 179.61 145.00 178.61 143.70 178.69 L 142.66 178.75 C 141.36 178.83 140.37 179.94 140.44 181.24 C 140.52 182.54 141.64 183.54 142.94 183.46 Z M 143.99 183.40 L 144.99 183.33 C 146.29 183.25 147.27 182.12 147.18 180.82 C 147.10 179.53 145.98 178.54 144.68 178.63 L 143.68 178.69 C 142.38 178.78 141.40 179.90 141.48 181.20 C 141.57 182.50 142.69 183.48 143.99 183.40 Z M 144.98 183.33 L 146.00 183.27 C 147.29 183.19 148.28 182.07 148.20 180.77 C 148.12 179.47 147.01 178.49 145.71 178.57 L 144.69 178.63 C 143.39 178.71 142.40 179.82 142.48 181.12 C 142.56 182.42 143.68 183.41 144.98 183.33 Z M 145.98 183.27 L 146.95 183.22 C 148.25 183.15 149.25 182.04 149.18 180.74 C 149.11 179.44 148.00 178.44 146.70 178.51 L 145.73 178.56 C 144.43 178.63 143.43 179.74 143.50 181.04 C 143.57 182.34 144.68 183.34 145.98 183.27 Z M 146.97 183.22 L 147.93 183.16 C 149.23 183.08 150.22 181.96 150.14 180.66 C 150.06 179.36 148.94 178.37 147.64 178.45 L 146.68 178.51 C 145.38 178.59 144.39 179.71 144.47 181.01 C 144.55 182.31 145.67 183.30 146.97 183.22 Z M 147.96 183.16 L 148.96 183.09 C 150.26 182.99 151.24 181.86 151.14 180.56 C 151.04 179.26 149.91 178.28 148.61 178.38 L 147.61 178.45 C 146.31 178.54 145.33 179.68 145.43 180.98 C 145.53 182.28 146.66 183.26 147.96 183.16 Z M 148.96 183.09 L 149.94 183.01 C 151.24 182.92 152.22 181.78 152.12 180.48 C 152.02 179.18 150.89 178.20 149.58 178.30 L 148.61 178.37 C 147.30 178.47 146.33 179.61 146.43 180.91 C 146.53 182.21 147.66 183.19 148.96 183.09 Z M 149.93 183.02 L 150.95 182.94 C 152.25 182.85 153.23 181.72 153.14 180.41 C 153.04 179.11 151.91 178.13 150.61 178.22 L 149.59 178.30 C 148.29 178.39 147.31 179.52 147.40 180.83 C 147.50 182.13 148.63 183.11 149.93 183.02 Z M 150.93 182.94 L 151.92 182.88 C 153.22 182.79 154.21 181.66 154.12 180.36 C 154.04 179.06 152.91 178.07 151.61 178.16 L 150.62 178.22 C 149.32 178.31 148.33 179.44 148.42 180.74 C 148.50 182.04 149.63 183.03 150.93 182.94 Z M 151.92 182.88 L 152.93 182.81 C 154.23 182.73 155.22 181.60 155.13 180.30 C 155.05 179.00 153.92 178.01 152.62 178.09 L 151.61 178.16 C 150.31 178.24 149.32 179.37 149.41 180.67 C 149.49 181.97 150.61 182.96 151.92 182.88 Z M 152.93 182.81 L 153.92 182.74 C 155.22 182.66 156.21 181.53 156.12 180.23 C 156.03 178.93 154.91 177.95 153.61 178.03 L 152.62 178.10 C 151.32 178.18 150.33 179.31 150.42 180.61 C 150.50 181.91 151.63 182.89 152.93 182.81 Z M 153.92 182.74 L 154.92 182.67 C 156.22 182.59 157.20 181.47 157.12 180.17 C 157.03 178.87 155.91 177.89 154.62 177.97 L 153.61 178.04 C 152.32 178.12 151.33 179.24 151.42 180.54 C 151.50 181.84 152.62 182.82 153.92 182.74 Z M 154.91 182.66 L 155.89 182.60 C 157.18 182.52 158.16 181.41 158.09 180.12 C 158.01 178.83 156.90 177.85 155.61 177.93 L 154.63 177.99 C 153.33 178.06 152.35 179.17 152.43 180.46 C 152.51 181.76 153.62 182.74 154.91 182.66 Z M 155.89 182.58 L 156.90 182.52 C 158.18 182.44 159.16 181.35 159.08 180.07 C 159.01 178.79 157.91 177.81 156.63 177.88 L 155.61 177.94 C 154.33 178.02 153.36 179.12 153.43 180.40 C 153.51 181.68 154.61 182.66 155.89 182.58 Z M 156.90 182.50 L 157.90 182.44 C 159.17 182.37 160.14 181.28 160.07 180.01 C 160.00 178.74 158.91 177.77 157.64 177.85 L 156.64 177.90 C 155.37 177.98 154.40 179.07 154.47 180.33 C 154.54 181.60 155.63 182.57 156.90 182.50 Z M 157.89 182.42 L 158.89 182.37 C 160.15 182.30 161.12 181.23 161.05 179.97 C 160.98 178.71 159.91 177.75 158.65 177.81 L 157.65 177.87 C 156.39 177.93 155.43 179.01 155.49 180.26 C 155.56 181.52 156.63 182.49 157.89 182.42 Z M 158.87 182.36 L 159.89 182.31 C 161.14 182.26 162.11 181.20 162.05 179.95 C 162.00 178.70 160.94 177.73 159.69 177.78 L 158.67 177.83 C 157.42 177.88 156.45 178.94 156.51 180.19 C 156.56 181.44 157.62 182.41 158.87 182.36 Z M 159.87 182.30 L 160.86 182.27 C 162.10 182.23 163.08 181.18 163.04 179.94 C 162.99 178.69 161.95 177.71 160.70 177.76 L 159.71 177.79 C 158.47 177.83 157.49 178.88 157.53 180.13 C 157.58 181.37 158.62 182.35 159.87 182.30 Z M 160.85 182.26 L 161.85 182.23 C 163.09 182.19 164.07 181.15 164.03 179.91 C 163.99 178.67 162.95 177.69 161.71 177.73 L 160.71 177.76 C 159.47 177.80 158.49 178.84 158.53 180.09 C 158.57 181.33 159.61 182.30 160.85 182.26 Z M 161.84 182.22 L 162.83 182.20 C 164.07 182.16 165.05 181.13 165.01 179.90 C 164.98 178.66 163.95 177.68 162.71 177.72 L 161.72 177.74 C 160.48 177.78 159.50 178.81 159.54 180.04 C 159.57 181.28 160.60 182.26 161.84 182.22 Z M 162.80 182.18 L 163.73 182.17 C 164.96 182.15 165.95 181.14 165.93 179.91 C 165.91 178.68 164.90 177.70 163.67 177.72 L 162.74 177.73 C 161.51 177.75 160.53 178.76 160.55 179.99 C 160.56 181.22 161.57 182.20 162.80 182.18 Z M 163.71 182.15 L 164.72 182.14 C 165.93 182.14 166.92 181.15 166.91 179.93 C 166.91 178.72 165.92 177.73 164.70 177.74 L 163.70 177.74 C 162.48 177.74 161.50 178.73 161.50 179.95 C 161.50 181.17 162.49 182.15 163.71 182.15 Z M 164.71 182.12 L 165.75 182.12 C 166.96 182.12 167.93 181.14 167.93 179.94 C 167.93 178.74 166.96 177.76 165.75 177.76 L 164.71 177.76 C 163.50 177.76 162.53 178.74 162.53 179.94 C 162.53 181.14 163.50 182.12 164.71 182.12 Z M 165.75 182.10 L 166.79 182.10 C 167.99 182.10 168.95 181.13 168.95 179.94 C 168.95 178.75 167.99 177.78 166.79 177.78 L 165.75 177.78 C 164.56 177.78 163.59 178.75 163.59 179.94 C 163.59 181.13 164.56 182.10 165.75 182.10 Z M 166.79 182.08 L 167.77 182.08 C 168.95 182.08 169.91 181.12 169.91 179.94 C 169.91 178.76 168.95 177.80 167.77 177.80 L 166.79 177.80 C 165.61 177.80 164.65 178.76 164.65 179.94 C 164.65 181.12 165.61 182.08 166.79 182.08 Z M 167.76 182.05 L 168.85 182.06 C 170.01 182.06 170.96 181.12 170.96 179.95 C 170.97 178.78 170.03 177.84 168.86 177.83 L 167.77 177.83 C 166.61 177.82 165.66 178.77 165.65 179.93 C 165.65 181.10 166.59 182.05 167.76 182.05 Z M 168.79 182.01 L 169.70 182.04 C 170.84 182.07 171.80 181.17 171.83 180.03 C 171.86 178.89 170.96 177.93 169.82 177.90 L 168.91 177.88 C 167.77 177.84 166.82 178.74 166.78 179.89 C 166.75 181.03 167.65 181.98 168.79 182.01 Z M 169.59 182.00 L 170.59 182.08 C 171.71 182.17 172.70 181.34 172.79 180.22 C 172.88 179.10 172.05 178.12 170.93 178.03 L 169.93 177.94 C 168.81 177.85 167.83 178.68 167.73 179.80 C 167.64 180.92 168.47 181.90 169.59 182.00 Z M 170.37 182.01 L 171.52 182.24 C 172.60 182.46 173.66 181.76 173.87 180.67 C 174.09 179.59 173.39 178.54 172.30 178.32 L 171.15 178.09 C 170.07 177.88 169.02 178.58 168.80 179.66 C 168.59 180.74 169.29 181.80 170.37 182.01 Z M 170.41 179.06 L 170.27 179.23 C 169.60 180.06 169.72 181.28 170.56 181.96 C 171.39 182.63 172.61 182.50 173.28 181.67 L 173.42 181.50 C 174.09 180.67 173.96 179.45 173.13 178.78 C 172.30 178.10 171.08 178.23 170.41 179.06 Z M 171.75 178.59 L 170.77 178.61 C 169.74 178.62 168.92 179.46 168.94 180.49 C 168.95 181.52 169.80 182.34 170.82 182.33 L 171.80 182.31 C 172.83 182.30 173.65 181.45 173.64 180.43 C 173.62 179.40 172.78 178.58 171.75 178.59 Z"
      fill="black"
      fill-rule="nonzero" /></svg>