<svg xmlns="http://www.w3.org/2000/svg" width="300" height="300" viewBox="0 0 300 300">
<path d="M 119.81 135.92 L 119.84 136.89 C 119.88 137.95 120.77 138.79 121.84 138.76 C 122.90 138.73 123.74 137.84 123.71 136.77 L 123.68 135.81 C 123.65 134.74 122.76 133.90 121.69 133.93 C 120.62 133.96 119.78 134.86 119.81 135.92 Z M 119.78 136.89 L 119.81 137.89 C 119.85 139.00 120.77 139.86 121.87 139.83 C 122.97 139.79 123.84 138.87 123.80 137.77 L 123.77 136.76 C 123.74 135.66 122.82 134.80 121.71 134.83 C 120.61 134.87 119.75 135.79 119.78 136.89 Z M 119.76 137.90 L 119.80 138.93 C 119.84 140.07 120.78 140.95 121.92 140.91 C 123.05 140.87 123.93 139.92 123.89 138.79 L 123.86 137.76 C 123.82 136.63 122.87 135.74 121.74 135.78 C 120.61 135.82 119.72 136.77 119.76 137.90 Z M 119.77 138.94 L 119.81 139.96 C 119.85 141.11 120.82 142.00 121.96 141.96 C 123.10 141.91 124.00 140.95 123.95 139.81 L 123.92 138.79 C 123.87 137.64 122.91 136.75 121.77 136.79 C 120.62 136.83 119.73 137.80 119.77 138.94 Z M 119.81 139.96 L 119.84 140.97 C 119.89 142.11 120.85 143.01 122.00 142.97 C 123.14 142.92 124.04 141.96 124.00 140.81 L 123.96 139.81 C 123.92 138.66 122.95 137.77 121.81 137.81 C 120.66 137.85 119.76 138.82 119.81 139.96 Z M 119.84 140.96 L 119.88 141.97 C 119.92 143.12 120.88 144.02 122.03 143.98 C 123.18 143.94 124.08 142.98 124.04 141.83 L 124.00 140.82 C 123.96 139.67 123.00 138.77 121.85 138.81 C 120.70 138.85 119.80 139.82 119.84 140.96 Z M 119.87 141.97 L 119.91 142.96 C 119.94 144.11 120.90 145.01 122.05 144.97 C 123.20 144.94 124.11 143.97 124.07 142.82 L 124.04 141.83 C 124.00 140.68 123.04 139.78 121.89 139.82 C 120.74 139.86 119.84 140.82 119.87 141.97 Z M 119.90 142.95 L 119.93 143.92 C 119.97 145.07 120.93 145.97 122.08 145.94 C 123.23 145.90 124.13 144.94 124.10 143.79 L 124.07 142.83 C 124.04 141.68 123.08 140.77 121.93 140.81 C 120.77 140.84 119.87 141.80 119.90 142.95 Z M 119.93 143.91 L 119.96 144.89 C 119.99 146.04 120.95 146.95 122.10 146.91 C 123.25 146.88 124.16 145.92 124.13 144.77 L 124.10 143.79 C 124.07 142.64 123.11 141.74 121.96 141.77 C 120.81 141.80 119.90 142.76 119.93 143.91 Z M 119.96 144.88 L 119.98 145.90 C 120.01 147.05 120.96 147.96 122.11 147.93 C 123.27 147.91 124.18 146.95 124.15 145.80 L 124.13 144.78 C 124.10 143.63 123.15 142.72 122.00 142.75 C 120.85 142.77 119.93 143.73 119.96 144.88 Z M 119.98 145.88 L 120.00 146.87 C 120.01 148.02 120.96 148.94 122.11 148.93 C 123.26 148.91 124.18 147.97 124.17 146.82 L 124.15 145.82 C 124.14 144.67 123.19 143.75 122.04 143.76 C 120.89 143.78 119.97 144.73 119.98 145.88 Z M 120.00 146.85 L 120.00 147.85 C 120.00 149.00 120.94 149.93 122.09 149.92 C 123.25 149.92 124.18 148.98 124.17 147.83 L 124.17 146.83 C 124.16 145.68 123.22 144.75 122.07 144.76 C 120.92 144.76 119.99 145.70 120.00 146.85 Z M 120.00 147.84 L 120.00 148.86 C 120.00 150.01 120.93 150.95 122.09 150.94 C 123.24 150.94 124.17 150.01 124.17 148.86 L 124.17 147.84 C 124.17 146.68 123.24 145.75 122.08 145.75 C 120.93 145.75 120.00 146.69 120.00 147.84 Z M 120.00 148.86 L 120.00 149.86 C 120.00 151.02 120.93 151.95 122.09 151.95 C 123.24 151.95 124.17 151.02 124.17 149.86 L 124.17 148.86 C 124.17 147.71 123.24 146.77 122.09 146.77 C 120.93 146.77 120.00 147.71 120.00 148.86 Z M 120.00 149.86 L 120.00 150.87 C 120.00 152.02 120.93 152.96 122.09 152.96 C 123.24 152.96 124.17 152.02 124.17 150.87 L 124.17 149.86 C 124.17 148.71 123.24 147.78 122.09 147.78 C 120.93 147.78 120.00 148.71 120.00 149.86 Z M 120.00 150.87 L 120.00 151.88 C 120.00 153.03 120.94 153.96 122.09 153.96 C 123.23 153.96 124.17 153.03 124.17 151.88 L 124.17 150.87 C 124.17 149.72 123.23 148.79 122.09 148.79 C 120.94 148.79 120.00 149.72 120.00 150.87 Z M 120.01 151.88 L 120.01 152.90 C 120.01 154.05 120.94 154.98 122.09 154.98 C 123.23 154.98 124.17 154.05 124.17 152.90 L 124.17 151.88 C 124.17 150.73 123.23 149.80 122.09 149.80 C 120.94 149.80 120.01 150.73 120.01 151.88 Z M 120.01 152.90 L 120.01 153.87 C 120.01 155.02 120.94 155.95 122.09 155.95 C 123.23 155.95 124.16 155.02 124.16 153.87 L 124.16 152.90 C 124.16 151.75 123.23 150.82 122.09 150.82 C 120.94 150.82 120.01 151.75 120.01 152.90 Z M 120.01 153.87 L 120.01 154.88 C 120.01 156.03 120.94 156.95 122.09 156.95 C 123.23 156.95 124.16 156.03 124.16 154.88 L 124.16 153.87 C 124.16 152.72 123.23 151.79 122.09 151.79 C 120.94 151.79 120.01 152.72 120.01 153.87 Z M 120.01 154.88 L 120.01 155.88 C 120.01 157.02 120.94 157.95 122.09 157.95 C 123.23 157.95 124.16 157.02 124.16 155.88 L 124.16 154.88 C 124.16 153.74 123.23 152.81 122.09 152.81 C 120.94 152.81 120.01 153.74 120.01 154.88 Z M 120.02 155.87 L 120.02 156.88 C 120.02 158.02 120.94 158.94 122.08 158.94 C 123.23 158.94 124.15 158.02 124.15 156.88 L 124.15 155.88 C 124.15 154.73 123.23 153.81 122.09 153.81 C 120.95 153.81 120.02 154.73 120.02 155.87 Z M 120.02 156.85 L 120.01 157.86 C 120.00 158.99 120.91 159.93 122.05 159.94 C 123.19 159.95 124.12 159.04 124.13 157.90 L 124.15 156.90 C 124.16 155.76 123.25 154.83 122.11 154.82 C 120.97 154.80 120.04 155.72 120.02 156.85 Z M 120.02 157.79 L 119.97 158.78 C 119.92 159.92 120.80 160.88 121.93 160.93 C 123.07 160.98 124.03 160.10 124.08 158.97 L 124.13 157.97 C 124.18 156.84 123.30 155.88 122.17 155.83 C 121.03 155.77 120.07 156.65 120.02 157.79 Z M 119.99 158.70 L 119.90 159.71 C 119.81 160.83 120.64 161.83 121.77 161.92 C 122.90 162.02 123.89 161.18 123.98 160.05 L 124.07 159.05 C 124.16 157.92 123.33 156.93 122.20 156.83 C 121.07 156.74 120.08 157.58 119.99 158.70 Z M 119.91 159.69 L 119.82 160.68 C 119.71 161.80 120.54 162.80 121.66 162.90 C 122.78 163.01 123.78 162.18 123.88 161.06 L 123.98 160.07 C 124.08 158.95 123.26 157.95 122.13 157.85 C 121.01 157.74 120.02 158.56 119.91 159.69 Z M 119.82 160.70 L 119.74 161.68 C 119.64 162.80 120.47 163.79 121.59 163.88 C 122.71 163.98 123.70 163.15 123.79 162.03 L 123.88 161.04 C 123.97 159.92 123.14 158.94 122.02 158.84 C 120.90 158.75 119.92 159.58 119.82 160.70 Z M 119.75 161.68 L 119.67 162.66 C 119.57 163.77 120.40 164.75 121.51 164.85 C 122.62 164.94 123.60 164.12 123.70 163.00 L 123.78 162.03 C 123.88 160.91 123.05 159.93 121.94 159.84 C 120.82 159.74 119.84 160.57 119.75 161.68 Z M 119.69 162.57 L 119.55 163.64 C 119.41 164.74 120.18 165.74 121.29 165.89 C 122.39 166.03 123.39 165.25 123.54 164.15 L 123.67 163.09 C 123.82 161.99 123.04 160.98 121.94 160.84 C 120.84 160.69 119.83 161.47 119.69 162.57 Z M 119.62 163.39 L 119.38 164.31 C 119.10 165.38 119.74 166.46 120.80 166.74 C 121.87 167.02 122.95 166.38 123.23 165.32 L 123.47 164.40 C 123.75 163.33 123.11 162.25 122.05 161.97 C 120.98 161.69 119.89 162.33 119.62 163.39 Z M 123.22 164.59 L 123.15 163.93 C 123.02 162.87 122.07 162.11 121.01 162.23 C 119.95 162.35 119.19 163.31 119.31 164.37 L 119.39 165.04 C 119.51 166.10 120.47 166.86 121.52 166.73 C 122.58 166.61 123.34 165.65 123.22 164.59 Z M 123.07 164.14 L 123.06 163.19 C 123.06 162.17 122.23 161.35 121.21 161.35 C 120.19 161.36 119.37 162.19 119.38 163.21 L 119.38 164.16 C 119.39 165.18 120.22 166.00 121.24 165.99 C 122.26 165.99 123.08 165.16 123.07 164.14 Z"
      fill="black"
      fill-rule="nonzero" /><path d="M 122.58 138.98 L 123.07 138.09 C 123.59 137.16 123.26 135.99 122.33 135.47 C 121.41 134.96 120.23 135.29 119.72 136.21 L 119.22 137.11 C 118.70 138.03 119.03 139.20 119.96 139.72 C 120.89 140.24 122.06 139.91 122.58 138.98 Z M 122.75 138.60 L 123.40 137.99 C 124.20 137.24 124.24 135.99 123.49 135.19 C 122.75 134.39 121.49 134.35 120.69 135.09 L 120.04 135.70 C 119.24 136.45 119.20 137.70 119.95 138.50 C 120.70 139.30 121.95 139.35 122.75 138.60 Z M 122.62 138.46 L 123.56 138.18 C 124.63 137.87 125.23 136.75 124.92 135.69 C 124.60 134.63 123.49 134.02 122.43 134.34 L 121.48 134.62 C 120.42 134.93 119.81 136.05 120.13 137.11 C 120.44 138.17 121.55 138.78 122.62 138.46 Z M 123.14 138.26 L 124.17 138.19 C 125.28 138.11 126.11 137.15 126.03 136.04 C 125.95 134.94 124.99 134.10 123.88 134.18 L 122.85 134.26 C 121.74 134.34 120.91 135.30 120.99 136.41 C 121.07 137.51 122.03 138.34 123.14 138.26 Z M 123.96 138.20 L 124.99 138.23 C 126.11 138.26 127.03 137.39 127.07 136.28 C 127.10 135.17 126.23 134.24 125.12 134.21 L 124.09 134.18 C 122.98 134.14 122.05 135.02 122.01 136.13 C 121.98 137.24 122.85 138.16 123.96 138.20 Z M 124.76 138.21 L 125.76 138.36 C 126.86 138.52 127.89 137.76 128.05 136.66 C 128.21 135.56 127.45 134.54 126.35 134.37 L 125.35 134.22 C 124.25 134.06 123.23 134.82 123.06 135.92 C 122.90 137.02 123.66 138.05 124.76 138.21 Z M 125.39 138.27 L 126.36 138.61 C 127.41 138.98 128.57 138.43 128.94 137.38 C 129.31 136.33 128.76 135.18 127.70 134.81 L 126.73 134.46 C 125.68 134.09 124.53 134.65 124.16 135.70 C 123.78 136.75 124.34 137.90 125.39 138.27 Z M 125.98 138.43 L 126.81 138.94 C 127.76 139.52 129.00 139.22 129.58 138.26 C 130.16 137.31 129.86 136.07 128.91 135.49 L 128.08 134.99 C 127.13 134.41 125.89 134.71 125.31 135.66 C 124.73 136.61 125.03 137.85 125.98 138.43 Z M 126.60 138.79 L 127.34 139.39 C 128.21 140.09 129.48 139.95 130.18 139.08 C 130.88 138.21 130.74 136.94 129.87 136.24 L 129.13 135.64 C 128.26 134.94 126.98 135.08 126.29 135.95 C 125.59 136.82 125.73 138.09 126.60 138.79 Z M 127.21 139.27 L 127.92 139.96 C 128.73 140.73 130.00 140.71 130.78 139.90 C 131.55 139.10 131.53 137.82 130.72 137.05 L 130.01 136.36 C 129.20 135.59 127.93 135.61 127.15 136.41 C 126.38 137.22 126.40 138.50 127.21 139.27 Z M 127.79 139.82 L 128.48 140.61 C 129.21 141.46 130.48 141.55 131.33 140.82 C 132.17 140.09 132.26 138.82 131.53 137.97 L 130.85 137.18 C 130.12 136.34 128.85 136.25 128.00 136.97 C 127.16 137.70 127.06 138.98 127.79 139.82 Z M 128.37 140.49 L 128.99 141.32 C 129.65 142.22 130.91 142.42 131.81 141.76 C 132.71 141.10 132.91 139.84 132.25 138.93 L 131.64 138.10 C 130.98 137.20 129.71 137.00 128.81 137.66 C 127.91 138.32 127.72 139.59 128.37 140.49 Z M 128.92 141.23 L 129.47 142.07 C 130.08 143.01 131.33 143.27 132.27 142.66 C 133.20 142.05 133.47 140.80 132.86 139.86 L 132.31 139.02 C 131.70 138.09 130.45 137.82 129.51 138.43 C 128.58 139.04 128.31 140.30 128.92 141.23 Z M 129.42 141.99 L 129.94 142.88 C 130.51 143.85 131.75 144.17 132.72 143.60 C 133.68 143.03 134.00 141.79 133.43 140.83 L 132.91 139.94 C 132.34 138.97 131.10 138.65 130.13 139.22 C 129.17 139.79 128.85 141.03 129.42 141.99 Z M 129.87 142.77 L 130.31 143.63 C 130.81 144.63 132.03 145.04 133.03 144.53 C 134.03 144.03 134.44 142.81 133.93 141.81 L 133.50 140.95 C 133.00 139.94 131.78 139.54 130.78 140.04 C 129.78 140.54 129.37 141.76 129.87 142.77 Z M 130.22 143.44 L 130.56 144.34 C 130.96 145.38 132.14 145.91 133.18 145.51 C 134.23 145.11 134.76 143.94 134.36 142.89 L 134.02 141.99 C 133.62 140.95 132.44 140.42 131.40 140.82 C 130.35 141.22 129.82 142.39 130.22 143.44 Z M 130.51 144.17 L 130.78 145.14 C 131.10 146.22 132.22 146.84 133.30 146.53 C 134.38 146.22 135.00 145.09 134.69 144.02 L 134.41 143.05 C 134.10 141.97 132.98 141.35 131.90 141.66 C 130.82 141.97 130.20 143.09 130.51 144.17 Z M 130.76 145.04 L 130.98 146.00 C 131.24 147.09 132.34 147.77 133.43 147.51 C 134.52 147.25 135.20 146.16 134.94 145.06 L 134.72 144.11 C 134.46 143.02 133.36 142.34 132.27 142.60 C 131.18 142.86 130.50 143.95 130.76 145.04 Z M 130.96 145.90 L 131.14 146.89 C 131.35 148.00 132.41 148.73 133.51 148.53 C 134.62 148.33 135.35 147.27 135.15 146.16 L 134.97 145.17 C 134.76 144.06 133.70 143.33 132.60 143.53 C 131.49 143.73 130.76 144.79 130.96 145.90 Z M 131.13 146.78 L 131.25 147.75 C 131.38 148.87 132.40 149.66 133.52 149.52 C 134.63 149.39 135.42 148.37 135.29 147.26 L 135.17 146.28 C 135.03 145.17 134.01 144.37 132.90 144.51 C 131.78 144.65 130.99 145.66 131.13 146.78 Z M 131.24 147.66 L 131.32 148.68 C 131.40 149.80 132.38 150.63 133.50 150.55 C 134.62 150.46 135.46 149.48 135.37 148.36 L 135.29 147.35 C 135.21 146.23 134.23 145.39 133.11 145.48 C 131.99 145.56 131.15 146.54 131.24 147.66 Z M 131.31 148.61 L 131.36 149.60 C 131.41 150.72 132.36 151.59 133.48 151.54 C 134.61 151.49 135.47 150.54 135.42 149.42 L 135.38 148.43 C 135.33 147.30 134.37 146.44 133.25 146.49 C 132.13 146.54 131.26 147.49 131.31 148.61 Z M 131.36 149.57 L 131.39 150.59 C 131.42 151.71 132.36 152.59 133.48 152.56 C 134.61 152.52 135.49 151.58 135.45 150.46 L 135.42 149.45 C 135.39 148.32 134.45 147.44 133.33 147.47 C 132.20 147.51 131.32 148.45 131.36 149.57 Z M 131.39 150.58 L 131.41 151.56 C 131.44 152.68 132.38 153.57 133.50 153.54 C 134.63 153.51 135.51 152.57 135.48 151.45 L 135.45 150.47 C 135.42 149.34 134.49 148.46 133.37 148.49 C 132.24 148.52 131.36 149.45 131.39 150.58 Z M 131.41 151.55 L 131.44 152.56 C 131.46 153.68 132.39 154.57 133.51 154.55 C 134.64 154.52 135.53 153.59 135.50 152.47 L 135.48 151.46 C 135.46 150.34 134.53 149.45 133.40 149.47 C 132.28 149.50 131.39 150.43 131.41 151.55 Z M 131.44 152.54 L 131.45 153.55 C 131.46 154.67 132.38 155.57 133.50 155.56 C 134.63 155.55 135.53 154.63 135.51 153.50 L 135.50 152.49 C 135.49 151.37 134.57 150.47 133.45 150.48 C 132.32 150.49 131.42 151.41 131.44 152.54 Z M 131.45 153.53 L 131.45 154.54 C 131.45 155.66 132.37 156.57 133.49 156.57 C 134.61 156.56 135.52 155.65 135.52 154.53 L 135.51 153.52 C 135.51 152.40 134.60 151.49 133.47 151.49 C 132.35 151.50 131.44 152.41 131.45 153.53 Z M 131.45 154.53 L 131.45 155.54 C 131.45 156.66 132.36 157.57 133.48 157.57 C 134.61 157.57 135.52 156.66 135.52 155.54 L 135.52 154.53 C 135.52 153.41 134.61 152.50 133.48 152.50 C 132.36 152.50 131.45 153.41 131.45 154.53 Z M 131.45 155.52 L 131.44 156.52 C 131.44 157.64 132.34 158.56 133.46 158.57 C 134.58 158.58 135.50 157.68 135.51 156.56 L 135.51 155.55 C 135.52 154.43 134.62 153.52 133.50 153.51 C 132.38 153.50 131.46 154.40 131.45 155.52 Z M 131.45 156.47 L 131.41 157.45 C 131.37 158.57 132.25 159.51 133.37 159.55 C 134.49 159.59 135.43 158.72 135.47 157.60 L 135.50 156.61 C 135.54 155.49 134.67 154.55 133.55 154.51 C 132.43 154.47 131.49 155.35 131.45 156.47 Z M 131.42 157.37 L 131.34 158.37 C 131.26 159.49 132.09 160.46 133.21 160.55 C 134.32 160.64 135.30 159.80 135.38 158.69 L 135.46 157.68 C 135.55 156.56 134.71 155.59 133.60 155.50 C 132.48 155.42 131.51 156.25 131.42 157.37 Z M 131.35 158.30 L 131.24 159.26 C 131.11 160.37 131.91 161.37 133.02 161.50 C 134.13 161.63 135.13 160.84 135.26 159.73 L 135.37 158.76 C 135.50 157.65 134.70 156.65 133.59 156.52 C 132.48 156.39 131.48 157.19 131.35 158.30 Z M 131.25 159.20 L 131.12 160.06 C 130.96 161.16 131.73 162.19 132.83 162.35 C 133.94 162.51 134.96 161.75 135.12 160.64 L 135.25 159.79 C 135.41 158.68 134.65 157.66 133.54 157.49 C 132.44 157.33 131.41 158.09 131.25 159.20 Z M 131.13 160.03 L 130.96 161.08 C 130.79 162.18 131.53 163.21 132.64 163.39 C 133.74 163.57 134.77 162.82 134.95 161.72 L 135.12 160.67 C 135.29 159.57 134.55 158.53 133.44 158.36 C 132.34 158.18 131.31 158.93 131.13 160.03 Z M 130.97 161.08 L 130.80 162.11 C 130.62 163.21 131.37 164.25 132.47 164.42 C 133.57 164.60 134.60 163.85 134.78 162.75 L 134.95 161.72 C 135.12 160.62 134.38 159.58 133.28 159.41 C 132.18 159.23 131.14 159.98 130.97 161.08 Z M 130.80 162.11 L 130.63 163.13 C 130.45 164.23 131.20 165.26 132.30 165.44 C 133.39 165.62 134.43 164.88 134.61 163.78 L 134.78 162.76 C 134.96 161.66 134.21 160.63 133.11 160.45 C 132.02 160.27 130.98 161.01 130.80 162.11 Z M 130.64 163.11 L 130.46 164.14 C 130.27 165.24 131.00 166.28 132.10 166.47 C 133.19 166.66 134.23 165.93 134.42 164.84 L 134.60 163.80 C 134.80 162.71 134.06 161.66 132.97 161.47 C 131.87 161.28 130.83 162.01 130.64 163.11 Z M 130.47 164.10 L 130.28 165.05 C 130.07 166.14 130.78 167.20 131.87 167.41 C 132.96 167.62 134.02 166.91 134.23 165.82 L 134.41 164.88 C 134.63 163.79 133.92 162.73 132.83 162.52 C 131.74 162.30 130.68 163.01 130.47 164.10 Z M 130.33 164.90 L 129.97 166.19 C 129.68 167.25 130.30 168.35 131.37 168.65 C 132.43 168.94 133.54 168.32 133.83 167.25 L 134.18 165.97 C 134.48 164.90 133.85 163.80 132.79 163.51 C 131.72 163.21 130.62 163.84 130.33 164.90 Z M 130.47 165.36 L 130.09 165.76 C 129.33 166.55 129.37 167.80 130.16 168.56 C 130.95 169.31 132.20 169.28 132.96 168.48 L 133.34 168.08 C 134.09 167.29 134.06 166.04 133.27 165.28 C 132.47 164.53 131.22 164.56 130.47 165.36 Z M 133.12 166.03 L 132.65 165.34 C 132.05 164.46 130.85 164.23 129.96 164.83 C 129.08 165.43 128.85 166.63 129.45 167.51 L 129.92 168.21 C 130.52 169.09 131.72 169.32 132.61 168.72 C 133.49 168.12 133.72 166.92 133.12 166.03 Z M 132.79 165.71 L 132.52 165.06 C 132.12 164.10 131.02 163.64 130.07 164.04 C 129.11 164.43 128.65 165.53 129.05 166.49 L 129.32 167.14 C 129.71 168.10 130.81 168.55 131.77 168.16 C 132.72 167.77 133.18 166.67 132.79 165.71 Z"
      fill="black"
      fill-rule="nonzero" /><path d="M 121.70 158.72 L 122.64 158.65 C 123.74 158.57 124.58 157.61 124.50 156.51 C 124.42 155.40 123.46 154.57 122.35 154.65 L 121.42 154.71 C 120.31 154.79 119.48 155.75 119.56 156.86 C 119.64 157.96 120.60 158.80 121.70 158.72 Z M 122.73 158.67 L 123.76 158.55 C 124.87 158.42 125.67 157.41 125.54 156.29 C 125.41 155.18 124.40 154.38 123.28 154.51 L 122.26 154.63 C 121.14 154.76 120.34 155.77 120.47 156.89 C 120.61 158.00 121.62 158.80 122.73 158.67 Z M 123.88 158.53 L 124.86 158.36 C 125.97 158.16 126.70 157.10 126.51 155.99 C 126.31 154.88 125.25 154.15 124.14 154.35 L 123.16 154.52 C 122.05 154.72 121.32 155.78 121.52 156.89 C 121.71 158.00 122.77 158.73 123.88 158.53 Z M 124.93 158.32 L 125.92 158.10 C 127.01 157.86 127.69 156.79 127.46 155.71 C 127.22 154.63 126.15 153.94 125.07 154.17 L 124.07 154.39 C 122.99 154.63 122.30 155.70 122.54 156.78 C 122.77 157.86 123.84 158.55 124.93 158.32 Z M 125.94 158.06 L 126.93 157.83 C 127.99 157.58 128.65 156.52 128.41 155.46 C 128.16 154.40 127.10 153.74 126.04 153.98 L 125.05 154.21 C 123.99 154.46 123.33 155.52 123.57 156.58 C 123.82 157.64 124.88 158.31 125.94 158.06 Z M 126.92 157.79 L 127.94 157.55 C 128.98 157.31 129.63 156.28 129.39 155.24 C 129.15 154.20 128.11 153.55 127.07 153.79 L 126.05 154.03 C 125.01 154.27 124.36 155.30 124.60 156.34 C 124.84 157.38 125.88 158.03 126.92 157.79 Z M 127.91 157.51 L 128.87 157.30 C 129.88 157.07 130.52 156.07 130.30 155.06 C 130.08 154.05 129.07 153.41 128.06 153.63 L 127.10 153.84 C 126.09 154.06 125.45 155.06 125.67 156.07 C 125.89 157.09 126.90 157.73 127.91 157.51 Z M 128.83 157.26 L 129.78 157.07 C 130.78 156.87 131.42 155.90 131.22 154.91 C 131.02 153.91 130.05 153.27 129.06 153.47 L 128.10 153.66 C 127.11 153.86 126.47 154.83 126.67 155.82 C 126.87 156.82 127.83 157.46 128.83 157.26 Z M 129.75 157.05 L 130.73 156.87 C 131.72 156.69 132.37 155.75 132.19 154.76 C 132.01 153.78 131.06 153.13 130.08 153.31 L 129.09 153.49 C 128.11 153.67 127.46 154.61 127.64 155.60 C 127.82 156.58 128.76 157.23 129.75 157.05 Z M 130.71 156.87 L 131.62 156.71 C 132.60 156.54 133.25 155.61 133.08 154.62 C 132.91 153.64 131.98 152.99 131.00 153.16 L 130.10 153.31 C 129.11 153.48 128.46 154.42 128.63 155.40 C 128.80 156.38 129.73 157.04 130.71 156.87 Z"
      fill="black"
      fill-rule="nonzero" /><path d="M 123.27 172.17 L 124.10 171.77 C 125.09 171.30 125.50 170.12 125.03 169.13 C 124.56 168.14 123.37 167.72 122.38 168.19 L 121.55 168.59 C 120.56 169.07 120.15 170.25 120.62 171.24 C 121.09 172.23 122.28 172.65 123.27 172.17 Z M 124.10 171.79 L 125.00 171.36 C 126.00 170.89 126.42 169.69 125.95 168.70 C 125.47 167.70 124.28 167.27 123.28 167.75 L 122.38 168.18 C 121.38 168.65 120.96 169.85 121.43 170.84 C 121.91 171.84 123.10 172.26 124.10 171.79 Z M 125.00 171.37 L 125.97 170.91 C 126.97 170.44 127.40 169.24 126.93 168.24 C 126.45 167.24 125.26 166.81 124.26 167.28 L 123.29 167.74 C 122.28 168.22 121.86 169.41 122.33 170.41 C 122.80 171.41 124.00 171.84 125.00 171.37 Z M 125.96 170.89 L 126.89 170.45 C 127.88 169.98 128.31 168.80 127.84 167.81 C 127.38 166.82 126.20 166.40 125.21 166.86 L 124.27 167.30 C 123.28 167.77 122.86 168.95 123.32 169.94 C 123.79 170.93 124.97 171.35 125.96 170.89 Z M 126.87 170.41 L 127.81 169.97 C 128.78 169.51 129.19 168.36 128.74 167.39 C 128.28 166.42 127.13 166.01 126.16 166.46 L 125.22 166.91 C 124.26 167.36 123.84 168.51 124.30 169.48 C 124.75 170.45 125.91 170.86 126.87 170.41 Z M 127.80 169.92 L 128.66 169.51 C 129.60 169.06 130.00 167.93 129.55 166.99 C 129.10 166.05 127.97 165.65 127.03 166.10 L 126.17 166.51 C 125.23 166.96 124.83 168.09 125.28 169.03 C 125.73 169.97 126.86 170.37 127.80 169.92 Z M 128.66 169.47 L 129.67 168.97 C 130.59 168.52 130.96 167.41 130.51 166.49 C 130.06 165.57 128.94 165.19 128.03 165.65 L 127.02 166.15 C 126.10 166.60 125.73 167.71 126.18 168.63 C 126.63 169.55 127.75 169.92 128.66 169.47 Z M 129.69 168.92 L 130.47 168.52 C 131.36 168.05 131.70 166.95 131.24 166.06 C 130.77 165.17 129.68 164.83 128.78 165.29 L 128.01 165.70 C 127.12 166.16 126.77 167.26 127.23 168.15 C 127.70 169.04 128.80 169.39 129.69 168.92 Z M 130.48 168.49 L 131.35 168.02 C 132.22 167.55 132.55 166.46 132.08 165.58 C 131.61 164.70 130.51 164.38 129.64 164.85 L 128.77 165.32 C 127.90 165.79 127.57 166.88 128.04 167.76 C 128.51 168.63 129.61 168.96 130.48 168.49 Z M 131.36 168.01 L 132.11 167.60 C 132.98 167.13 133.30 166.03 132.82 165.16 C 132.35 164.29 131.25 163.97 130.38 164.45 L 129.63 164.86 C 128.76 165.33 128.44 166.43 128.91 167.30 C 129.39 168.17 130.48 168.49 131.36 168.01 Z"
      fill="black"
      fill-rule="nonzero" /><path d="M 149.86 111.29 L 149.30 112.09 C 148.67 112.99 148.89 114.21 149.78 114.84 C 150.67 115.46 151.90 115.25 152.53 114.36 L 153.09 113.55 C 153.71 112.66 153.50 111.43 152.61 110.81 C 151.72 110.18 150.49 110.40 149.86 111.29 Z M 149.28 112.09 L 148.70 112.93 C 148.08 113.83 148.30 115.07 149.20 115.69 C 150.10 116.32 151.34 116.09 151.97 115.19 L 152.54 114.36 C 153.17 113.46 152.95 112.22 152.04 111.59 C 151.14 110.97 149.91 111.19 149.28 112.09 Z M 148.70 112.94 L 148.22 113.65 C 147.60 114.55 147.83 115.78 148.73 116.40 C 149.63 117.01 150.86 116.79 151.48 115.89 L 151.96 115.18 C 152.58 114.28 152.35 113.05 151.45 112.43 C 150.55 111.81 149.32 112.04 148.70 112.94 Z M 148.25 113.65 L 147.67 114.49 C 147.05 115.37 147.27 116.59 148.15 117.20 C 149.03 117.82 150.25 117.60 150.86 116.72 L 151.45 115.88 C 152.06 115.00 151.85 113.78 150.96 113.17 C 150.08 112.55 148.87 112.77 148.25 113.65 Z M 147.70 114.48 L 147.06 115.38 C 146.44 116.25 146.63 117.45 147.50 118.07 C 148.36 118.69 149.56 118.49 150.18 117.63 L 150.83 116.73 C 151.45 115.86 151.25 114.66 150.39 114.04 C 149.52 113.42 148.32 113.62 147.70 114.48 Z M 147.07 115.37 L 146.46 116.21 C 145.84 117.06 146.02 118.26 146.88 118.88 C 147.73 119.51 148.93 119.32 149.55 118.47 L 150.17 117.64 C 150.79 116.78 150.61 115.58 149.75 114.96 C 148.90 114.33 147.70 114.52 147.07 115.37 Z M 146.47 116.20 L 145.84 117.04 C 145.21 117.89 145.39 119.09 146.24 119.72 C 147.09 120.35 148.29 120.18 148.92 119.32 L 149.55 118.48 C 150.18 117.63 150.00 116.43 149.15 115.80 C 148.30 115.17 147.10 115.35 146.47 116.20 Z M 145.85 117.03 L 145.27 117.80 C 144.64 118.65 144.81 119.85 145.66 120.49 C 146.50 121.12 147.70 120.95 148.34 120.10 L 148.92 119.33 C 149.55 118.49 149.38 117.29 148.53 116.65 C 147.68 116.02 146.48 116.19 145.85 117.03 Z M 145.28 117.79 L 144.62 118.65 C 143.98 119.49 144.14 120.70 144.98 121.34 C 145.83 121.98 147.03 121.82 147.67 120.98 L 148.33 120.12 C 148.97 119.27 148.81 118.07 147.97 117.43 C 147.13 116.79 145.92 116.95 145.28 117.79 Z M 144.65 118.62 L 144.08 119.34 C 143.42 120.17 143.55 121.38 144.38 122.03 C 145.21 122.69 146.42 122.56 147.07 121.73 L 147.65 121.01 C 148.31 120.18 148.17 118.97 147.34 118.32 C 146.51 117.66 145.31 117.79 144.65 118.62 Z M 144.10 119.31 L 143.51 120.02 C 142.84 120.83 142.95 122.04 143.76 122.72 C 144.58 123.39 145.79 123.28 146.47 122.47 L 147.05 121.76 C 147.73 120.94 147.61 119.73 146.80 119.06 C 145.98 118.38 144.77 118.49 144.10 119.31 Z M 143.52 119.99 L 142.88 120.75 C 142.19 121.56 142.29 122.78 143.10 123.47 C 143.91 124.16 145.13 124.06 145.81 123.25 L 146.46 122.49 C 147.15 121.68 147.05 120.46 146.24 119.77 C 145.42 119.08 144.21 119.18 143.52 119.99 Z M 142.88 120.73 L 142.20 121.52 C 141.50 122.33 141.58 123.55 142.39 124.25 C 143.20 124.95 144.42 124.86 145.12 124.06 L 145.81 123.27 C 146.51 122.46 146.42 121.24 145.61 120.54 C 144.81 119.84 143.58 119.92 142.88 120.73 Z M 142.21 121.50 L 141.51 122.28 C 140.79 123.08 140.86 124.31 141.66 125.03 C 142.47 125.74 143.69 125.67 144.41 124.87 L 145.11 124.08 C 145.83 123.28 145.76 122.05 144.95 121.34 C 144.15 120.62 142.92 120.69 142.21 121.50 Z M 141.51 122.26 L 140.84 123.00 C 140.11 123.80 140.17 125.04 140.97 125.76 C 141.77 126.49 143.01 126.43 143.74 125.63 L 144.41 124.89 C 145.13 124.09 145.07 122.85 144.27 122.13 C 143.47 121.40 142.24 121.46 141.51 122.26 Z M 140.82 122.99 L 140.11 123.78 C 139.38 124.59 139.44 125.84 140.26 126.57 C 141.07 127.30 142.32 127.23 143.05 126.42 L 143.76 125.64 C 144.49 124.83 144.42 123.58 143.61 122.85 C 142.80 122.11 141.55 122.18 140.82 122.99 Z M 139.94 123.92 L 139.33 124.76 C 138.68 125.67 138.89 126.93 139.79 127.58 C 140.70 128.23 141.96 128.03 142.61 127.12 L 143.22 126.28 C 143.87 125.37 143.66 124.11 142.76 123.46 C 141.85 122.81 140.59 123.02 139.94 123.92 Z M 139.29 127.15 L 139.57 127.54 C 140.24 128.47 141.53 128.68 142.46 128.01 C 143.39 127.34 143.60 126.05 142.93 125.12 L 142.65 124.73 C 141.98 123.80 140.69 123.59 139.76 124.26 C 138.84 124.93 138.63 126.23 139.29 127.15 Z M 141.33 128.44 L 142.51 128.39 C 143.67 128.35 144.58 127.38 144.54 126.21 C 144.50 125.05 143.52 124.14 142.36 124.18 L 141.18 124.22 C 140.01 124.26 139.10 125.24 139.15 126.40 C 139.19 127.57 140.16 128.48 141.33 128.44 Z M 142.73 128.39 L 143.71 128.26 C 144.87 128.09 145.68 127.02 145.52 125.86 C 145.36 124.69 144.28 123.88 143.12 124.04 L 142.14 124.18 C 140.97 124.34 140.16 125.42 140.32 126.58 C 140.49 127.75 141.56 128.56 142.73 128.39 Z M 143.76 128.26 L 144.77 128.09 C 145.93 127.90 146.72 126.80 146.53 125.63 C 146.33 124.47 145.23 123.68 144.07 123.88 L 143.06 124.04 C 141.90 124.24 141.11 125.34 141.30 126.50 C 141.50 127.66 142.60 128.45 143.76 128.26 Z M 144.80 128.09 L 145.82 127.91 C 146.98 127.70 147.75 126.58 147.54 125.42 C 147.33 124.26 146.22 123.48 145.06 123.69 L 144.04 123.88 C 142.88 124.09 142.10 125.20 142.31 126.36 C 142.52 127.53 143.64 128.30 144.80 128.09 Z M 145.83 127.91 L 146.85 127.71 C 148.01 127.49 148.78 126.37 148.56 125.21 C 148.34 124.05 147.22 123.28 146.05 123.50 L 145.04 123.69 C 143.88 123.91 143.11 125.03 143.33 126.20 C 143.55 127.36 144.67 128.13 145.83 127.91 Z M 146.86 127.71 L 147.83 127.53 C 148.99 127.30 149.75 126.18 149.53 125.01 C 149.30 123.85 148.18 123.09 147.01 123.32 L 146.04 123.50 C 144.88 123.73 144.12 124.85 144.35 126.01 C 144.57 127.18 145.70 127.94 146.86 127.71 Z M 147.83 127.53 L 148.79 127.34 C 149.95 127.11 150.72 125.99 150.49 124.83 C 150.27 123.66 149.14 122.90 147.98 123.13 L 147.01 123.31 C 145.85 123.54 145.09 124.66 145.32 125.83 C 145.54 126.99 146.67 127.75 147.83 127.53 Z M 148.79 127.34 L 149.82 127.14 C 150.98 126.92 151.74 125.80 151.52 124.64 C 151.30 123.47 150.18 122.71 149.01 122.93 L 147.98 123.13 C 146.82 123.35 146.06 124.47 146.28 125.64 C 146.50 126.80 147.62 127.56 148.79 127.34 Z M 149.82 127.14 L 150.81 126.95 C 151.97 126.73 152.73 125.60 152.51 124.44 C 152.29 123.28 151.16 122.52 150.00 122.74 L 149.01 122.93 C 147.85 123.16 147.08 124.28 147.31 125.44 C 147.53 126.61 148.66 127.37 149.82 127.14 Z M 150.83 126.95 L 151.81 126.75 C 152.97 126.51 153.72 125.38 153.49 124.22 C 153.25 123.06 152.12 122.31 150.96 122.55 L 149.98 122.75 C 148.82 122.98 148.07 124.11 148.30 125.28 C 148.54 126.44 149.67 127.18 150.83 126.95 Z M 151.85 126.74 L 152.83 126.52 C 153.99 126.26 154.71 125.11 154.46 123.96 C 154.20 122.81 153.05 122.08 151.90 122.34 L 150.92 122.56 C 149.77 122.82 149.04 123.96 149.30 125.11 C 149.55 126.27 150.70 126.99 151.85 126.74 Z M 152.84 126.51 L 153.75 126.30 C 154.90 126.04 155.63 124.90 155.36 123.75 C 155.10 122.60 153.96 121.87 152.81 122.14 L 151.89 122.34 C 150.74 122.61 150.02 123.75 150.28 124.90 C 150.54 126.05 151.69 126.77 152.84 126.51 Z M 153.74 126.30 L 154.72 126.09 C 155.87 125.83 156.59 124.69 156.34 123.54 C 156.08 122.39 154.94 121.66 153.79 121.92 L 152.82 122.13 C 151.67 122.39 150.94 123.53 151.20 124.68 C 151.45 125.83 152.59 126.56 153.74 126.30 Z M 154.74 126.09 L 155.70 125.86 C 156.85 125.59 157.57 124.45 157.30 123.30 C 157.04 122.15 155.89 121.43 154.74 121.70 L 153.77 121.92 C 152.62 122.19 151.90 123.34 152.17 124.49 C 152.44 125.64 153.59 126.35 154.74 126.09 Z M 155.72 125.86 L 156.70 125.62 C 157.85 125.35 158.55 124.19 158.28 123.05 C 158.00 121.90 156.85 121.19 155.70 121.47 L 154.72 121.70 C 153.57 121.98 152.87 123.13 153.14 124.28 C 153.42 125.43 154.57 126.13 155.72 125.86 Z M 156.71 125.62 L 157.67 125.38 C 158.82 125.10 159.52 123.95 159.24 122.80 C 158.96 121.66 157.81 120.95 156.66 121.23 L 155.69 121.47 C 154.55 121.75 153.85 122.91 154.13 124.05 C 154.41 125.20 155.56 125.90 156.71 125.62 Z M 157.70 125.37 L 158.67 125.12 C 159.80 124.83 160.49 123.67 160.20 122.53 C 159.90 121.39 158.74 120.71 157.61 121.00 L 156.64 121.25 C 155.50 121.54 154.81 122.70 155.11 123.84 C 155.40 124.98 156.56 125.66 157.70 125.37 Z M 158.69 125.11 L 159.65 124.85 C 160.78 124.54 161.46 123.38 161.15 122.25 C 160.85 121.12 159.69 120.45 158.56 120.75 L 157.59 121.01 C 156.46 121.31 155.79 122.48 156.09 123.61 C 156.39 124.74 157.55 125.41 158.69 125.11 Z M 159.65 124.84 L 160.60 124.58 C 161.73 124.28 162.40 123.13 162.10 122.00 C 161.80 120.87 160.64 120.20 159.51 120.51 L 158.56 120.76 C 157.43 121.06 156.76 122.22 157.07 123.34 C 157.37 124.47 158.52 125.14 159.65 124.84 Z M 160.60 124.57 L 161.58 124.31 C 162.70 124.02 163.36 122.87 163.06 121.75 C 162.77 120.62 161.62 119.96 160.50 120.26 L 159.52 120.52 C 158.40 120.81 157.73 121.96 158.03 123.08 C 158.33 124.21 159.48 124.87 160.60 124.57 Z M 161.58 124.30 L 162.56 124.03 C 163.68 123.73 164.34 122.59 164.03 121.47 C 163.73 120.36 162.59 119.70 161.47 120.00 L 160.49 120.27 C 159.38 120.57 158.72 121.72 159.02 122.83 C 159.32 123.94 160.47 124.60 161.58 124.30 Z M 162.58 124.01 L 163.53 123.75 C 164.63 123.44 165.27 122.29 164.96 121.19 C 164.65 120.09 163.51 119.45 162.41 119.76 L 161.46 120.02 C 160.36 120.33 159.71 121.48 160.02 122.58 C 160.33 123.68 161.48 124.32 162.58 124.01 Z M 163.56 123.72 L 164.47 123.45 C 165.56 123.12 166.17 121.98 165.85 120.89 C 165.52 119.80 164.38 119.18 163.29 119.51 L 162.38 119.78 C 161.29 120.11 160.67 121.25 161.00 122.34 C 161.32 123.43 162.47 124.05 163.56 123.72 Z M 164.50 123.42 L 165.48 123.11 C 166.55 122.77 167.14 121.62 166.80 120.55 C 166.46 119.48 165.32 118.89 164.25 119.23 L 163.26 119.54 C 162.19 119.88 161.60 121.02 161.94 122.10 C 162.28 123.17 163.42 123.76 164.50 123.42 Z M 165.49 123.09 L 166.42 122.79 C 167.48 122.44 168.06 121.30 167.72 120.24 C 167.37 119.18 166.23 118.60 165.17 118.94 L 164.24 119.25 C 163.17 119.59 162.59 120.73 162.94 121.79 C 163.29 122.86 164.43 123.44 165.49 123.09 Z M 166.43 122.77 L 167.41 122.44 C 168.46 122.09 169.03 120.95 168.68 119.90 C 168.33 118.85 167.19 118.28 166.14 118.63 L 165.16 118.96 C 164.11 119.31 163.54 120.45 163.89 121.50 C 164.24 122.55 165.38 123.12 166.43 122.77 Z M 167.43 122.42 L 168.44 122.06 C 169.48 121.70 170.03 120.57 169.67 119.53 C 169.31 118.50 168.17 117.95 167.14 118.31 L 166.12 118.66 C 165.09 119.02 164.54 120.15 164.90 121.19 C 165.26 122.23 166.39 122.77 167.43 122.42 Z M 168.45 122.03 L 169.37 121.70 C 170.39 121.33 170.92 120.21 170.55 119.19 C 170.19 118.17 169.06 117.64 168.04 118.01 L 167.12 118.34 C 166.10 118.71 165.58 119.83 165.94 120.85 C 166.31 121.87 167.43 122.40 168.45 122.03 Z M 169.37 121.66 L 170.30 121.32 C 171.30 120.95 171.81 119.85 171.44 118.85 C 171.08 117.85 169.97 117.34 168.97 117.70 L 168.04 118.05 C 167.04 118.41 166.53 119.52 166.90 120.52 C 167.27 121.52 168.38 122.03 169.37 121.66 Z M 170.29 121.28 L 171.20 120.94 C 172.17 120.58 172.67 119.49 172.31 118.52 C 171.95 117.55 170.86 117.05 169.89 117.41 L 168.98 117.75 C 168.01 118.11 167.51 119.19 167.87 120.17 C 168.23 121.14 169.32 121.64 170.29 121.28 Z M 171.19 120.91 L 171.24 120.90 C 172.20 120.54 172.69 119.47 172.33 118.51 C 171.98 117.55 170.91 117.06 169.95 117.42 L 169.90 117.44 C 168.94 117.79 168.45 118.86 168.80 119.82 C 169.16 120.78 170.23 121.27 171.19 120.91 Z"
      fill="black"
      fill-rule="nonzero" /><path d="M 146.99 139.50 L 147.26 140.41 C 147.56 141.43 148.63 142.01 149.64 141.71 C 150.66 141.41 151.25 140.34 150.95 139.33 L 150.68 138.42 C 150.38 137.40 149.31 136.82 148.29 137.12 C 147.28 137.42 146.69 138.49 146.99 139.50 Z M 147.14 140.14 L 147.29 141.17 C 147.44 142.25 148.44 143.01 149.52 142.86 C 150.60 142.71 151.36 141.71 151.21 140.62 L 151.06 139.59 C 150.91 138.51 149.91 137.76 148.83 137.91 C 147.75 138.06 146.99 139.06 147.14 140.14 Z M 147.24 140.81 L 147.19 141.81 C 147.14 142.92 148.00 143.86 149.11 143.91 C 150.22 143.96 151.16 143.10 151.21 141.99 L 151.26 140.98 C 151.30 139.88 150.44 138.94 149.33 138.89 C 148.22 138.84 147.29 139.70 147.24 140.81 Z M 147.21 141.62 L 147.07 142.64 C 146.91 143.74 147.68 144.76 148.78 144.91 C 149.88 145.07 150.90 144.30 151.05 143.20 L 151.20 142.18 C 151.35 141.08 150.58 140.06 149.48 139.91 C 148.38 139.75 147.37 140.52 147.21 141.62 Z M 147.08 142.56 L 146.90 143.57 C 146.70 144.66 147.42 145.71 148.51 145.91 C 149.60 146.11 150.65 145.39 150.85 144.29 L 151.04 143.28 C 151.24 142.19 150.51 141.14 149.42 140.94 C 148.33 140.74 147.28 141.47 147.08 142.56 Z M 146.90 143.55 L 146.71 144.53 C 146.50 145.62 147.21 146.67 148.30 146.88 C 149.39 147.10 150.44 146.39 150.65 145.30 L 150.84 144.32 C 151.06 143.23 150.35 142.17 149.26 141.96 C 148.17 141.75 147.11 142.46 146.90 143.55 Z M 146.71 144.54 L 146.53 145.46 C 146.33 146.54 147.04 147.60 148.13 147.80 C 149.22 148.01 150.27 147.30 150.48 146.21 L 150.65 145.29 C 150.86 144.20 150.15 143.15 149.06 142.94 C 147.97 142.73 146.92 143.45 146.71 144.54 Z M 146.53 145.47 L 146.35 146.45 C 146.15 147.54 146.87 148.59 147.96 148.79 C 149.05 148.99 150.10 148.27 150.30 147.18 L 150.48 146.20 C 150.68 145.11 149.96 144.06 148.87 143.86 C 147.78 143.66 146.73 144.38 146.53 145.47 Z M 146.36 146.44 L 146.17 147.42 C 145.96 148.51 146.67 149.56 147.75 149.77 C 148.84 149.98 149.89 149.27 150.10 148.18 L 150.29 147.20 C 150.50 146.11 149.79 145.06 148.71 144.85 C 147.62 144.64 146.57 145.35 146.36 146.44 Z M 146.17 147.40 L 145.97 148.38 C 145.75 149.47 146.45 150.53 147.54 150.75 C 148.62 150.97 149.68 150.26 149.90 149.18 L 150.10 148.20 C 150.32 147.11 149.62 146.05 148.53 145.84 C 147.45 145.62 146.39 146.32 146.17 147.40 Z M 145.97 148.39 L 145.78 149.37 C 145.56 150.46 146.27 151.51 147.35 151.73 C 148.44 151.94 149.49 151.24 149.71 150.15 L 149.90 149.17 C 150.12 148.08 149.41 147.03 148.33 146.81 C 147.24 146.60 146.19 147.30 145.97 148.39 Z M 145.77 149.38 L 145.58 150.37 C 145.38 151.46 146.09 152.51 147.17 152.72 C 148.26 152.93 149.31 152.21 149.52 151.13 L 149.71 150.14 C 149.92 149.05 149.21 148.00 148.12 147.79 C 147.03 147.59 145.98 148.30 145.77 149.38 Z M 145.58 150.37 L 145.40 151.35 C 145.19 152.44 145.90 153.49 146.99 153.70 C 148.07 153.91 149.12 153.19 149.33 152.11 L 149.52 151.13 C 149.73 150.04 149.02 148.99 147.93 148.78 C 146.84 148.57 145.79 149.28 145.58 150.37 Z M 145.40 151.35 L 145.21 152.33 C 145.00 153.42 145.71 154.47 146.80 154.68 C 147.89 154.88 148.94 154.17 149.15 153.08 L 149.33 152.11 C 149.54 151.02 148.83 149.97 147.74 149.76 C 146.65 149.55 145.60 150.26 145.40 151.35 Z M 145.21 152.34 L 145.02 153.34 C 144.82 154.43 145.54 155.47 146.63 155.67 C 147.72 155.88 148.76 155.16 148.96 154.07 L 149.15 153.07 C 149.35 151.98 148.63 150.94 147.54 150.74 C 146.45 150.53 145.41 151.25 145.21 152.34 Z M 145.02 153.35 L 144.84 154.35 C 144.65 155.44 145.37 156.48 146.46 156.67 C 147.55 156.87 148.59 156.14 148.79 155.05 L 148.97 154.06 C 149.16 152.97 148.43 151.92 147.34 151.73 C 146.25 151.54 145.21 152.26 145.02 153.35 Z M 144.84 154.35 L 144.67 155.33 C 144.47 156.42 145.20 157.46 146.29 157.65 C 147.38 157.85 148.42 157.12 148.62 156.03 L 148.79 155.05 C 148.98 153.96 148.25 152.92 147.16 152.73 C 146.07 152.53 145.03 153.26 144.84 154.35 Z M 144.67 155.34 L 144.49 156.33 C 144.30 157.42 145.03 158.46 146.12 158.65 C 147.21 158.84 148.25 158.11 148.44 157.02 L 148.62 156.03 C 148.81 154.94 148.08 153.90 146.99 153.71 C 145.90 153.52 144.86 154.25 144.67 155.34 Z M 144.49 156.37 L 144.34 157.35 C 144.17 158.44 144.92 159.46 146.02 159.63 C 147.11 159.80 148.13 159.05 148.30 157.95 L 148.45 156.98 C 148.62 155.88 147.86 154.86 146.77 154.70 C 145.68 154.53 144.65 155.28 144.49 156.37 Z M 144.33 157.41 L 144.21 158.41 C 144.07 159.50 144.86 160.50 145.95 160.64 C 147.05 160.77 148.05 159.99 148.19 158.89 L 148.31 157.89 C 148.44 156.79 147.66 155.79 146.56 155.66 C 145.46 155.53 144.46 156.31 144.33 157.41 Z M 144.21 158.43 L 144.10 159.38 C 143.98 160.48 144.77 161.47 145.87 161.59 C 146.97 161.71 147.96 160.92 148.08 159.82 L 148.19 158.87 C 148.31 157.77 147.52 156.78 146.42 156.66 C 145.32 156.54 144.33 157.33 144.21 158.43 Z M 144.10 159.41 L 144.00 160.38 C 143.90 161.49 144.71 162.46 145.81 162.57 C 146.91 162.67 147.89 161.87 147.99 160.76 L 148.09 159.79 C 148.19 158.69 147.38 157.71 146.28 157.60 C 145.18 157.50 144.20 158.31 144.10 159.41 Z M 144.00 160.45 L 143.94 161.47 C 143.87 162.58 144.71 163.53 145.82 163.59 C 146.92 163.66 147.87 162.82 147.94 161.71 L 148.00 160.69 C 148.07 159.59 147.22 158.64 146.12 158.57 C 145.01 158.51 144.06 159.35 144.00 160.45 Z M 143.93 161.53 L 143.90 162.55 C 143.86 163.66 144.73 164.58 145.84 164.62 C 146.95 164.65 147.88 163.78 147.92 162.67 L 147.95 161.65 C 147.98 160.54 147.11 159.62 146.00 159.58 C 144.89 159.55 143.96 160.42 143.93 161.53 Z M 143.89 162.59 L 143.88 163.62 C 143.87 164.73 144.76 165.64 145.88 165.65 C 146.99 165.66 147.90 164.77 147.91 163.66 L 147.92 162.63 C 147.93 161.51 147.04 160.60 145.92 160.59 C 144.81 160.58 143.90 161.48 143.89 162.59 Z M 143.88 163.74 L 143.93 164.80 C 143.99 165.92 144.94 166.77 146.06 166.72 C 147.17 166.66 148.03 165.71 147.97 164.59 L 147.92 163.53 C 147.86 162.42 146.91 161.56 145.79 161.62 C 144.68 161.68 143.82 162.63 143.88 163.74 Z M 144.01 165.28 L 144.27 166.16 C 144.60 167.23 145.73 167.84 146.80 167.52 C 147.87 167.19 148.48 166.06 148.16 164.99 L 147.89 164.11 C 147.57 163.04 146.44 162.43 145.37 162.75 C 144.29 163.08 143.68 164.21 144.01 165.28 Z M 144.69 166.92 L 145.34 167.65 C 146.08 168.49 147.37 168.57 148.21 167.82 C 149.05 167.08 149.13 165.79 148.38 164.95 L 147.74 164.22 C 146.99 163.38 145.71 163.30 144.86 164.05 C 144.02 164.80 143.95 166.08 144.69 166.92 Z M 145.89 168.10 L 146.77 168.57 C 147.76 169.11 149.00 168.73 149.54 167.74 C 150.07 166.75 149.70 165.51 148.71 164.98 L 147.83 164.50 C 146.84 163.97 145.60 164.34 145.06 165.33 C 144.53 166.33 144.90 167.56 145.89 168.10 Z M 147.23 168.76 L 148.10 168.98 C 149.19 169.26 150.31 168.60 150.59 167.50 C 150.87 166.41 150.21 165.29 149.11 165.01 L 148.25 164.79 C 147.15 164.51 146.04 165.17 145.76 166.27 C 145.48 167.36 146.14 168.48 147.23 168.76 Z M 148.42 169.03 L 149.49 169.13 C 150.62 169.24 151.62 168.41 151.72 167.28 C 151.82 166.16 151.00 165.16 149.87 165.05 L 148.79 164.96 C 147.66 164.85 146.67 165.68 146.56 166.81 C 146.46 167.93 147.29 168.93 148.42 169.03 Z M 149.64 169.14 L 150.66 169.16 C 151.79 169.19 152.73 168.29 152.75 167.16 C 152.78 166.03 151.88 165.09 150.75 165.07 L 149.73 165.05 C 148.59 165.02 147.66 165.92 147.63 167.05 C 147.61 168.18 148.51 169.12 149.64 169.14 Z M 150.73 169.16 L 151.78 169.15 C 152.91 169.14 153.81 168.21 153.80 167.08 C 153.79 165.95 152.86 165.04 151.73 165.06 L 150.68 165.07 C 149.55 165.08 148.64 166.01 148.66 167.14 C 148.67 168.27 149.60 169.18 150.73 169.16 Z M 151.83 169.15 L 152.84 169.11 C 153.97 169.07 154.85 168.12 154.80 166.98 C 154.76 165.85 153.81 164.97 152.67 165.02 L 151.67 165.06 C 150.54 165.10 149.66 166.06 149.71 167.19 C 149.75 168.32 150.70 169.20 151.83 169.15 Z M 152.93 169.10 L 154.02 169.01 C 155.15 168.91 155.98 167.92 155.88 166.80 C 155.79 165.67 154.80 164.84 153.67 164.93 L 152.58 165.03 C 151.45 165.13 150.62 166.12 150.72 167.24 C 150.82 168.37 151.81 169.20 152.93 169.10 Z M 154.19 168.98 L 155.11 168.82 C 156.22 168.63 156.96 167.58 156.78 166.48 C 156.59 165.37 155.54 164.62 154.43 164.81 L 153.51 164.97 C 152.40 165.15 151.66 166.20 151.84 167.31 C 152.03 168.42 153.08 169.16 154.19 168.98 Z M 155.25 168.78 L 156.14 168.56 C 157.22 168.30 157.88 167.21 157.62 166.12 C 157.36 165.04 156.27 164.37 155.18 164.64 L 154.29 164.85 C 153.21 165.12 152.55 166.21 152.81 167.29 C 153.07 168.38 154.17 169.04 155.25 168.78 Z M 156.17 168.54 L 157.15 168.28 C 158.22 168.00 158.86 166.90 158.57 165.83 C 158.29 164.76 157.19 164.12 156.12 164.40 L 155.15 164.66 C 154.07 164.94 153.44 166.04 153.72 167.11 C 154.00 168.18 155.10 168.82 156.17 168.54 Z M 157.12 168.27 L 158.10 168.03 C 159.16 167.76 159.81 166.67 159.54 165.61 C 159.27 164.54 158.19 163.89 157.12 164.16 L 156.15 164.41 C 155.08 164.68 154.43 165.76 154.70 166.83 C 154.97 167.89 156.05 168.54 157.12 168.27 Z M 158.08 168.01 L 159.06 167.77 C 160.11 167.51 160.76 166.44 160.50 165.39 C 160.24 164.33 159.17 163.68 158.12 163.94 L 157.14 164.18 C 156.08 164.44 155.43 165.51 155.69 166.56 C 155.95 167.62 157.02 168.27 158.08 168.01 Z M 159.07 167.75 L 160.06 167.50 C 161.10 167.23 161.74 166.17 161.47 165.12 C 161.20 164.07 160.13 163.44 159.09 163.71 L 158.10 163.96 C 157.05 164.23 156.42 165.29 156.69 166.34 C 156.96 167.39 158.02 168.02 159.07 167.75 Z M 160.10 167.47 L 161.04 167.21 C 162.08 166.92 162.68 165.84 162.39 164.81 C 162.10 163.78 161.02 163.18 159.99 163.47 L 159.05 163.73 C 158.01 164.02 157.41 165.10 157.70 166.13 C 157.99 167.16 159.07 167.76 160.10 167.47 Z M 161.09 167.18 L 162.05 166.88 C 163.07 166.56 163.63 165.48 163.32 164.47 C 163.00 163.45 161.92 162.88 160.91 163.20 L 159.95 163.50 C 158.93 163.81 158.36 164.89 158.68 165.91 C 158.99 166.92 160.07 167.49 161.09 167.18 Z M 162.04 166.87 L 162.96 166.59 C 163.97 166.27 164.53 165.20 164.22 164.19 C 163.91 163.18 162.84 162.61 161.82 162.93 L 160.91 163.21 C 159.90 163.52 159.34 164.59 159.65 165.60 C 159.96 166.62 161.03 167.18 162.04 166.87 Z M 162.93 166.58 L 163.85 166.31 C 164.86 166.01 165.44 164.95 165.14 163.95 C 164.85 162.94 163.79 162.36 162.78 162.66 L 161.85 162.93 C 160.84 163.23 160.27 164.29 160.56 165.29 C 160.86 166.30 161.92 166.88 162.93 166.58 Z M 163.86 166.30 L 164.84 166.01 C 165.84 165.71 166.41 164.66 166.11 163.65 C 165.82 162.65 164.76 162.08 163.76 162.38 L 162.78 162.67 C 161.78 162.97 161.20 164.02 161.50 165.02 C 161.80 166.02 162.85 166.60 163.86 166.30 Z M 164.85 165.99 L 165.80 165.70 C 166.79 165.40 167.35 164.35 167.05 163.36 C 166.75 162.36 165.70 161.80 164.70 162.10 L 163.75 162.39 C 162.76 162.70 162.20 163.75 162.50 164.74 C 162.80 165.73 163.85 166.29 164.85 165.99 Z M 165.80 165.68 L 166.80 165.38 C 167.79 165.07 168.34 164.03 168.03 163.04 C 167.73 162.06 166.68 161.51 165.70 161.81 L 164.70 162.12 C 163.71 162.43 163.16 163.47 163.47 164.46 C 163.77 165.44 164.82 165.99 165.80 165.68 Z M 166.81 165.36 L 167.83 165.03 C 168.80 164.72 169.34 163.68 169.03 162.71 C 168.73 161.74 167.69 161.20 166.71 161.51 L 165.69 161.83 C 164.72 162.14 164.18 163.18 164.49 164.15 C 164.80 165.13 165.83 165.66 166.81 165.36 Z M 167.84 165.01 L 168.79 164.70 C 169.75 164.38 170.27 163.35 169.96 162.39 C 169.65 161.43 168.61 160.91 167.65 161.22 L 166.70 161.53 C 165.74 161.84 165.22 162.88 165.53 163.84 C 165.85 164.80 166.88 165.32 167.84 165.01 Z M 168.81 164.67 L 169.73 164.36 C 170.67 164.03 171.18 163.00 170.86 162.06 C 170.53 161.11 169.50 160.61 168.56 160.93 L 167.64 161.25 C 166.69 161.57 166.19 162.60 166.51 163.54 C 166.83 164.49 167.86 165.00 168.81 164.67 Z M 169.76 164.34 L 170.70 164.00 C 171.63 163.66 172.11 162.63 171.78 161.69 C 171.44 160.75 170.40 160.27 169.47 160.61 L 168.53 160.95 C 167.59 161.29 167.11 162.32 167.45 163.26 C 167.79 164.19 168.82 164.68 169.76 164.34 Z M 170.71 163.99 L 171.16 163.82 C 172.09 163.47 172.57 162.44 172.22 161.51 C 171.87 160.57 170.84 160.10 169.90 160.45 L 169.45 160.62 C 168.52 160.96 168.05 162.00 168.39 162.93 C 168.74 163.86 169.78 164.34 170.71 163.99 Z"
      fill="black"
      fill-rule="nonzero" /><path d="M 156.03 137.35 L 157.01 137.18 C 158.12 136.99 158.86 135.94 158.67 134.84 C 158.48 133.73 157.43 132.99 156.33 133.17 L 155.35 133.34 C 154.25 133.53 153.50 134.58 153.69 135.68 C 153.88 136.79 154.93 137.53 156.03 137.35 Z M 156.91 137.19 L 157.91 137.07 C 159.03 136.94 159.82 135.93 159.69 134.81 C 159.55 133.70 158.54 132.90 157.42 133.04 L 156.42 133.16 C 155.31 133.30 154.52 134.31 154.65 135.42 C 154.79 136.54 155.80 137.33 156.91 137.19 Z M 157.77 137.08 L 158.72 137.04 C 159.84 136.98 160.71 136.03 160.65 134.91 C 160.60 133.79 159.64 132.93 158.52 132.98 L 157.57 133.03 C 156.45 133.08 155.59 134.03 155.64 135.15 C 155.69 136.27 156.65 137.14 157.77 137.08 Z M 158.64 137.04 L 159.67 137.03 C 160.79 137.02 161.70 136.11 161.69 134.98 C 161.68 133.86 160.76 132.96 159.64 132.97 L 158.61 132.98 C 157.48 132.99 156.58 133.90 156.59 135.03 C 156.60 136.15 157.52 137.05 158.64 137.04 Z M 159.66 137.03 L 160.56 137.03 C 161.69 137.03 162.59 136.12 162.59 135.00 C 162.59 133.88 161.68 132.97 160.56 132.97 L 159.65 132.97 C 158.53 132.97 157.63 133.88 157.63 135.00 C 157.63 136.12 158.54 137.03 159.66 137.03 Z M 160.57 137.03 L 161.54 137.02 C 162.66 137.02 163.57 136.11 163.57 134.99 C 163.56 133.88 162.65 132.97 161.54 132.97 L 160.56 132.98 C 159.44 132.98 158.54 133.89 158.54 135.01 C 158.54 136.12 159.45 137.03 160.57 137.03 Z M 161.55 137.02 L 162.68 137.01 C 163.79 137.01 164.69 136.10 164.69 134.98 C 164.68 133.86 163.77 132.96 162.65 132.97 L 161.53 132.98 C 160.41 132.98 159.51 133.89 159.52 135.01 C 159.53 136.13 160.44 137.03 161.55 137.02 Z M 162.69 137.01 L 163.67 137.00 C 164.78 136.99 165.68 136.08 165.67 134.96 C 165.66 133.85 164.75 132.96 163.63 132.97 L 162.65 132.98 C 161.53 132.99 160.64 133.90 160.65 135.01 C 160.66 136.13 161.57 137.02 162.69 137.01 Z M 163.68 136.99 L 164.71 136.98 C 165.82 136.96 166.71 136.05 166.69 134.94 C 166.68 133.83 165.76 132.94 164.65 132.96 L 163.62 132.97 C 162.51 132.99 161.63 133.90 161.64 135.01 C 161.66 136.12 162.57 137.01 163.68 136.99 Z M 164.73 136.97 L 165.74 136.95 C 166.85 136.92 167.73 136.01 167.70 134.90 C 167.68 133.80 166.76 132.92 165.66 132.94 L 164.64 132.97 C 163.53 132.99 162.66 133.91 162.68 135.01 C 162.70 136.12 163.62 136.99 164.73 136.97 Z M 165.77 136.94 L 166.77 136.91 C 167.87 136.87 168.74 135.95 168.70 134.84 C 168.66 133.74 167.74 132.88 166.64 132.92 L 165.63 132.95 C 164.53 132.99 163.67 133.91 163.71 135.01 C 163.74 136.11 164.67 136.98 165.77 136.94 Z M 166.81 136.89 L 167.86 136.84 C 168.95 136.78 169.79 135.84 169.73 134.75 C 169.67 133.65 168.73 132.81 167.64 132.87 L 166.60 132.93 C 165.50 132.99 164.66 133.93 164.72 135.02 C 164.78 136.11 165.72 136.95 166.81 136.89 Z M 167.91 136.82 L 168.86 136.74 C 169.95 136.65 170.75 135.69 170.66 134.61 C 170.57 133.53 169.62 132.72 168.54 132.81 L 167.58 132.89 C 166.50 132.98 165.69 133.93 165.78 135.02 C 165.87 136.10 166.83 136.91 167.91 136.82 Z M 168.92 136.72 L 169.97 136.60 C 171.04 136.48 171.81 135.51 171.69 134.43 C 171.57 133.36 170.59 132.58 169.52 132.71 L 168.48 132.83 C 167.40 132.95 166.63 133.92 166.75 135.00 C 166.88 136.07 167.85 136.85 168.92 136.72 Z M 170.00 136.60 L 171.17 136.45 C 172.24 136.30 173.00 135.32 172.86 134.24 C 172.71 133.17 171.73 132.41 170.65 132.55 L 169.48 132.71 C 168.41 132.85 167.65 133.84 167.80 134.91 C 167.94 135.99 168.93 136.74 170.00 136.60 Z M 171.12 136.46 L 171.82 136.39 C 172.90 136.27 173.69 135.30 173.57 134.21 C 173.45 133.13 172.48 132.35 171.40 132.46 L 170.70 132.54 C 169.62 132.66 168.83 133.63 168.95 134.71 C 169.07 135.79 170.04 136.58 171.12 136.46 Z M 170.38 132.88 L 169.71 133.41 C 168.85 134.09 168.71 135.33 169.39 136.19 C 170.07 137.05 171.32 137.19 172.18 136.51 L 172.84 135.97 C 173.70 135.29 173.84 134.05 173.16 133.19 C 172.48 132.34 171.23 132.19 170.38 132.88 Z M 169.27 133.87 L 168.76 134.66 C 168.16 135.58 168.42 136.82 169.34 137.42 C 170.27 138.02 171.50 137.75 172.10 136.83 L 172.61 136.04 C 173.21 135.12 172.95 133.88 172.03 133.28 C 171.10 132.68 169.87 132.95 169.27 133.87 Z M 168.54 135.05 L 168.18 136.04 C 167.79 137.08 168.33 138.24 169.37 138.62 C 170.41 139.01 171.57 138.47 171.95 137.43 L 172.32 136.44 C 172.70 135.40 172.17 134.24 171.12 133.86 C 170.08 133.47 168.92 134.01 168.54 135.05 Z M 168.09 136.28 L 167.87 137.23 C 167.62 138.33 168.30 139.41 169.39 139.66 C 170.49 139.91 171.57 139.23 171.82 138.14 L 172.04 137.19 C 172.29 136.10 171.61 135.01 170.52 134.76 C 169.43 134.51 168.34 135.19 168.09 136.28 Z M 167.83 137.39 L 167.68 138.40 C 167.52 139.52 168.29 140.55 169.41 140.72 C 170.52 140.88 171.56 140.11 171.72 138.99 L 171.87 137.98 C 172.03 136.86 171.26 135.83 170.14 135.66 C 169.02 135.50 167.99 136.28 167.83 137.39 Z M 167.65 138.49 L 167.56 139.44 C 167.44 140.57 168.26 141.58 169.39 141.70 C 170.52 141.81 171.53 140.99 171.65 139.86 L 171.75 138.90 C 171.86 137.77 171.04 136.76 169.91 136.65 C 168.78 136.53 167.77 137.35 167.65 138.49 Z M 167.54 139.50 L 167.47 140.51 C 167.38 141.65 168.24 142.64 169.38 142.72 C 170.52 142.81 171.51 141.95 171.60 140.81 L 171.67 139.80 C 171.75 138.66 170.89 137.67 169.75 137.59 C 168.61 137.50 167.62 138.36 167.54 139.50 Z M 167.45 140.58 L 167.41 141.62 C 167.36 142.77 168.26 143.74 169.40 143.79 C 170.55 143.83 171.52 142.94 171.57 141.79 L 171.61 140.74 C 171.66 139.60 170.76 138.63 169.61 138.58 C 168.47 138.53 167.50 139.43 167.45 140.58 Z M 167.40 141.67 L 167.38 142.71 C 167.36 143.86 168.28 144.81 169.44 144.83 C 170.59 144.85 171.54 143.93 171.56 142.77 L 171.58 141.74 C 171.60 140.58 170.68 139.63 169.52 139.62 C 168.37 139.60 167.42 140.52 167.40 141.67 Z M 167.38 142.73 L 167.37 143.70 C 167.37 144.86 168.30 145.80 169.46 145.81 C 170.62 145.81 171.56 144.87 171.57 143.72 L 171.57 142.75 C 171.57 141.59 170.64 140.65 169.48 140.64 C 168.32 140.64 167.38 141.57 167.38 142.73 Z M 167.37 143.71 L 167.37 144.76 C 167.37 145.92 168.31 146.86 169.47 146.86 C 170.63 146.86 171.57 145.92 171.57 144.76 L 171.57 143.71 C 171.57 142.55 170.63 141.61 169.47 141.61 C 168.31 141.61 167.37 142.55 167.37 143.71 Z M 167.37 144.76 L 167.37 145.70 C 167.37 146.86 168.31 147.80 169.47 147.80 C 170.63 147.80 171.57 146.86 171.57 145.70 L 171.57 144.76 C 171.57 143.60 170.63 142.66 169.47 142.66 C 168.31 142.66 167.37 143.60 167.37 144.76 Z M 167.37 145.70 L 167.37 146.68 C 167.37 147.84 168.31 148.78 169.47 148.78 C 170.63 148.78 171.57 147.84 171.57 146.68 L 171.57 145.70 C 171.57 144.54 170.63 143.60 169.47 143.60 C 168.31 143.60 167.37 144.54 167.37 145.70 Z M 167.37 146.68 L 167.37 147.69 C 167.37 148.85 168.31 149.79 169.47 149.79 C 170.63 149.79 171.57 148.85 171.57 147.69 L 171.57 146.68 C 171.57 145.52 170.63 144.58 169.47 144.58 C 168.31 144.58 167.37 145.52 167.37 146.68 Z M 167.36 147.69 L 167.36 148.67 C 167.36 149.83 168.31 150.78 169.47 150.78 C 170.63 150.78 171.57 149.83 171.57 148.67 L 171.57 147.69 C 171.57 146.53 170.63 145.58 169.47 145.58 C 168.31 145.58 167.36 146.53 167.36 147.69 Z M 167.36 148.67 L 167.36 149.69 C 167.36 150.85 168.31 151.79 169.47 151.79 C 170.63 151.79 171.58 150.85 171.58 149.69 L 171.58 148.67 C 171.58 147.51 170.63 146.56 169.47 146.56 C 168.31 146.56 167.36 147.51 167.36 148.67 Z M 167.36 149.69 L 167.36 150.67 C 167.36 151.84 168.30 152.78 169.47 152.78 C 170.63 152.78 171.58 151.84 171.58 150.67 L 171.58 149.69 C 171.58 148.52 170.63 147.58 169.47 147.58 C 168.30 147.58 167.36 148.52 167.36 149.69 Z M 167.36 150.67 L 167.36 151.69 C 167.36 152.85 168.30 153.80 169.47 153.80 C 170.63 153.80 171.58 152.85 171.58 151.69 L 171.58 150.67 C 171.58 149.51 170.63 148.56 169.47 148.56 C 168.30 148.56 167.36 149.51 167.36 150.67 Z M 167.36 151.69 L 167.36 152.67 C 167.36 153.84 168.30 154.78 169.47 154.78 C 170.63 154.78 171.58 153.84 171.58 152.67 L 171.58 151.69 C 171.58 150.53 170.63 149.58 169.47 149.58 C 168.30 149.58 167.36 150.53 167.36 151.69 Z M 167.36 152.67 L 167.36 153.68 C 167.36 154.85 168.30 155.79 169.47 155.79 C 170.63 155.79 171.58 154.85 171.58 153.68 L 171.58 152.67 C 171.58 151.51 170.63 150.56 169.47 150.56 C 168.30 150.56 167.36 151.51 167.36 152.67 Z M 167.36 153.68 L 167.36 154.65 C 167.36 155.82 168.30 156.76 169.47 156.76 C 170.63 156.76 171.58 155.82 171.58 154.66 L 171.58 153.68 C 171.58 152.52 170.63 151.57 169.47 151.57 C 168.30 151.57 167.36 152.52 167.36 153.68 Z M 167.36 154.65 L 167.36 155.64 C 167.35 156.81 168.29 157.76 169.46 157.76 C 170.62 157.77 171.57 156.82 171.57 155.66 L 171.58 154.66 C 171.58 153.50 170.64 152.55 169.48 152.55 C 168.31 152.54 167.36 153.48 167.36 154.65 Z M 167.36 155.63 L 167.35 156.66 C 167.33 157.83 168.27 158.78 169.43 158.79 C 170.60 158.80 171.55 157.87 171.56 156.70 L 171.57 155.67 C 171.59 154.51 170.65 153.55 169.49 153.54 C 168.32 153.53 167.37 154.47 167.36 155.63 Z M 167.35 156.64 L 167.33 157.64 C 167.31 158.80 168.23 159.76 169.40 159.78 C 170.56 159.81 171.52 158.88 171.55 157.71 L 171.56 156.72 C 171.59 155.56 170.66 154.59 169.49 154.57 C 168.33 154.55 167.37 155.48 167.35 156.64 Z M 167.33 157.61 L 167.30 158.63 C 167.26 159.79 168.18 160.76 169.34 160.80 C 170.51 160.83 171.48 159.92 171.51 158.75 L 171.55 157.74 C 171.58 156.57 170.66 155.60 169.50 155.57 C 168.34 155.53 167.36 156.45 167.33 157.61 Z M 167.30 158.59 L 167.25 159.60 C 167.20 160.77 168.10 161.75 169.26 161.81 C 170.43 161.86 171.41 160.96 171.47 159.80 L 171.51 158.79 C 171.57 157.62 170.67 156.64 169.50 156.58 C 168.34 156.53 167.35 157.43 167.30 158.59 Z M 167.26 159.57 L 167.19 160.57 C 167.12 161.73 168.00 162.73 169.17 162.81 C 170.33 162.88 171.33 162.00 171.40 160.83 L 171.46 159.83 C 171.54 158.67 170.65 157.67 169.49 157.60 C 168.33 157.52 167.33 158.41 167.26 159.57 Z M 167.19 160.55 L 167.12 161.54 C 167.04 162.70 167.91 163.71 169.07 163.79 C 170.23 163.88 171.24 163.00 171.33 161.84 L 171.40 160.86 C 171.48 159.69 170.61 158.68 169.45 158.60 C 168.29 158.52 167.28 159.39 167.19 160.55 Z M 167.12 161.53 L 167.05 162.52 C 166.96 163.68 167.83 164.69 168.99 164.77 C 170.15 164.86 171.17 163.99 171.25 162.83 L 171.33 161.85 C 171.41 160.69 170.54 159.67 169.38 159.59 C 168.22 159.50 167.21 160.37 167.12 161.53 Z M 167.05 162.51 L 166.98 163.51 C 166.89 164.67 167.76 165.68 168.92 165.77 C 170.08 165.86 171.09 164.99 171.18 163.83 L 171.25 162.83 C 171.34 161.67 170.47 160.66 169.31 160.57 C 168.15 160.48 167.14 161.35 167.05 162.51 Z M 166.98 163.50 L 166.90 164.51 C 166.80 165.67 167.67 166.68 168.83 166.77 C 169.98 166.87 171.00 166.00 171.09 164.84 L 171.17 163.84 C 171.27 162.68 170.40 161.66 169.24 161.57 C 168.09 161.48 167.07 162.34 166.98 163.50 Z M 166.90 164.49 L 166.81 165.48 C 166.71 166.64 167.57 167.66 168.73 167.76 C 169.88 167.86 170.90 167.00 171.00 165.84 L 171.09 164.86 C 171.19 163.70 170.33 162.68 169.18 162.58 C 168.02 162.48 167.00 163.34 166.90 164.49 Z M 166.82 165.47 L 166.72 166.46 C 166.61 167.62 167.46 168.65 168.62 168.75 C 169.77 168.86 170.80 168.01 170.91 166.86 L 171.00 165.86 C 171.11 164.70 170.26 163.68 169.10 163.57 C 167.95 163.46 166.92 164.31 166.82 165.47 Z M 166.73 166.45 L 166.63 167.45 C 166.51 168.61 167.35 169.64 168.50 169.75 C 169.66 169.87 170.69 169.03 170.80 167.87 L 170.90 166.87 C 171.02 165.72 170.18 164.69 169.03 164.57 C 167.87 164.46 166.84 165.30 166.73 166.45 Z M 166.63 167.44 L 166.52 168.44 C 166.40 169.59 167.23 170.62 168.38 170.75 C 169.53 170.87 170.57 170.04 170.69 168.89 L 170.80 167.89 C 170.92 166.74 170.09 165.70 168.94 165.58 C 167.79 165.45 166.75 166.29 166.63 167.44 Z M 166.53 168.43 L 166.41 169.42 C 166.28 170.57 167.11 171.61 168.26 171.74 C 169.41 171.86 170.45 171.04 170.58 169.89 L 170.69 168.90 C 170.82 167.75 169.99 166.71 168.84 166.58 C 167.69 166.45 166.66 167.28 166.53 168.43 Z M 166.42 169.41 L 166.30 170.40 C 166.17 171.55 166.99 172.59 168.14 172.72 C 169.29 172.85 170.33 172.03 170.46 170.88 L 170.57 169.89 C 170.70 168.75 169.88 167.71 168.73 167.58 C 167.59 167.44 166.55 168.27 166.42 169.41 Z M 166.31 170.40 L 166.19 171.38 C 166.06 172.53 166.88 173.57 168.02 173.70 C 169.17 173.84 170.21 173.02 170.34 171.87 L 170.46 170.88 C 170.59 169.74 169.77 168.70 168.62 168.57 C 167.48 168.43 166.44 169.25 166.31 170.40 Z M 166.19 171.38 L 166.07 172.37 C 165.93 173.52 166.75 174.55 167.90 174.69 C 169.04 174.83 170.08 174.01 170.22 172.87 L 170.34 171.88 C 170.47 170.73 169.66 169.69 168.51 169.55 C 167.37 169.42 166.33 170.23 166.19 171.38 Z M 166.07 172.36 L 165.95 173.37 C 165.81 174.52 166.62 175.56 167.76 175.70 C 168.90 175.85 169.95 175.03 170.09 173.89 L 170.21 172.88 C 170.36 171.74 169.55 170.69 168.40 170.55 C 167.26 170.41 166.22 171.22 166.07 172.36 Z M 165.95 173.36 L 165.82 174.38 C 165.67 175.52 166.48 176.57 167.62 176.71 C 168.76 176.86 169.81 176.06 169.95 174.92 L 170.09 173.90 C 170.23 172.76 169.43 171.71 168.29 171.56 C 167.14 171.42 166.10 172.22 165.95 173.36 Z M 165.82 174.37 L 165.69 175.35 C 165.54 176.49 166.34 177.54 167.48 177.69 C 168.62 177.85 169.67 177.05 169.82 175.90 L 169.95 174.92 C 170.11 173.78 169.30 172.73 168.16 172.58 C 167.02 172.43 165.97 173.23 165.82 174.37 Z M 165.69 175.34 L 165.55 176.36 C 165.39 177.50 166.19 178.55 167.33 178.71 C 168.47 178.87 169.52 178.07 169.68 176.93 L 169.82 175.91 C 169.98 174.77 169.18 173.72 168.04 173.56 C 166.90 173.40 165.85 174.20 165.69 175.34 Z M 165.55 176.35 L 165.41 177.34 C 165.24 178.48 166.03 179.53 167.17 179.70 C 168.31 179.86 169.37 179.07 169.54 177.93 L 169.68 176.94 C 169.84 175.80 169.05 174.75 167.91 174.58 C 166.77 174.42 165.71 175.21 165.55 176.35 Z M 165.41 177.32 L 165.27 178.27 C 165.09 179.41 165.88 180.47 167.01 180.65 C 168.15 180.82 169.22 180.04 169.39 178.90 L 169.53 177.95 C 169.71 176.81 168.92 175.75 167.79 175.57 C 166.65 175.40 165.58 176.18 165.41 177.32 Z M 165.27 178.25 L 165.11 179.25 C 164.92 180.38 165.69 181.46 166.83 181.64 C 167.97 181.82 169.04 181.05 169.23 179.91 L 169.39 178.92 C 169.57 177.78 168.80 176.71 167.66 176.52 C 166.52 176.34 165.45 177.11 165.27 178.25 Z M 165.11 179.22 L 164.94 180.19 C 164.74 181.32 165.49 182.40 166.63 182.61 C 167.76 182.81 168.85 182.05 169.05 180.91 L 169.22 179.94 C 169.42 178.81 168.66 177.73 167.53 177.53 C 166.39 177.32 165.31 178.08 165.11 179.22 Z M 164.94 180.16 L 164.75 181.15 C 164.53 182.28 165.27 183.38 166.41 183.59 C 167.54 183.81 168.63 183.07 168.85 181.94 L 169.04 180.95 C 169.26 179.81 168.52 178.72 167.39 178.50 C 166.26 178.28 165.16 179.02 164.94 180.16 Z M 164.75 181.14 L 164.56 182.11 C 164.34 183.25 165.07 184.34 166.21 184.57 C 167.34 184.79 168.44 184.05 168.66 182.92 L 168.85 181.95 C 169.08 180.82 168.34 179.72 167.21 179.49 C 166.07 179.27 164.98 180.01 164.75 181.14 Z M 164.56 182.12 L 164.36 183.11 C 164.14 184.25 164.88 185.35 166.02 185.57 C 167.15 185.79 168.25 185.05 168.47 183.91 L 168.66 182.92 C 168.88 181.78 168.14 180.68 167.01 180.46 C 165.88 180.24 164.78 180.98 164.56 182.12 Z M 164.36 183.10 L 164.17 184.07 C 163.94 185.20 164.68 186.31 165.81 186.53 C 166.95 186.76 168.05 186.03 168.28 184.89 L 168.47 183.92 C 168.70 182.79 167.96 181.69 166.83 181.46 C 165.69 181.23 164.59 181.97 164.36 183.10 Z M 164.17 184.05 L 163.97 185.02 C 163.73 186.16 164.46 187.27 165.59 187.50 C 166.73 187.74 167.84 187.01 168.07 185.88 L 168.28 184.91 C 168.51 183.77 167.78 182.66 166.65 182.43 C 165.52 182.19 164.41 182.92 164.17 184.05 Z M 163.96 185.03 L 163.76 185.99 C 163.53 187.13 164.26 188.24 165.40 188.47 C 166.53 188.71 167.65 187.98 167.88 186.84 L 168.08 185.87 C 168.31 184.74 167.58 183.63 166.44 183.39 C 165.31 183.16 164.20 183.89 163.96 185.03 Z M 163.77 185.94 L 163.54 186.92 C 163.28 188.06 163.98 189.19 165.12 189.45 C 166.25 189.72 167.38 189.01 167.65 187.88 L 167.87 186.89 C 168.14 185.76 167.43 184.63 166.30 184.36 C 165.16 184.10 164.03 184.81 163.77 185.94 Z M 163.57 186.81 L 163.29 187.76 C 162.97 188.88 163.61 190.05 164.73 190.38 C 165.85 190.70 167.02 190.06 167.35 188.94 L 167.62 187.99 C 167.94 186.87 167.30 185.70 166.18 185.37 C 165.06 185.05 163.89 185.69 163.57 186.81 Z M 163.33 187.65 L 162.95 188.71 C 162.56 189.81 163.14 191.01 164.24 191.40 C 165.34 191.79 166.55 191.21 166.94 190.11 L 167.31 189.05 C 167.70 187.95 167.12 186.75 166.02 186.36 C 164.92 185.97 163.71 186.55 163.33 187.65 Z M 163.24 188.17 L 162.76 188.82 C 162.07 189.77 162.28 191.09 163.22 191.78 C 164.17 192.46 165.49 192.25 166.18 191.31 L 166.65 190.65 C 167.34 189.71 167.13 188.39 166.19 187.70 C 165.24 187.01 163.92 187.22 163.24 188.17 Z M 166.39 189.23 L 166.10 188.56 C 165.64 187.49 164.41 187.00 163.34 187.46 C 162.28 187.93 161.79 189.16 162.25 190.23 L 162.54 190.90 C 163.00 191.97 164.24 192.46 165.30 192.00 C 166.37 191.53 166.86 190.30 166.39 189.23 Z M 166.21 189.02 L 166.00 187.83 C 165.79 186.70 164.72 185.95 163.59 186.16 C 162.46 186.36 161.72 187.44 161.92 188.56 L 162.14 189.76 C 162.34 190.89 163.42 191.64 164.54 191.43 C 165.67 191.23 166.42 190.15 166.21 189.02 Z M 165.93 187.91 L 165.79 186.90 C 165.63 185.81 164.62 185.05 163.53 185.20 C 162.44 185.36 161.68 186.37 161.84 187.46 L 161.98 188.48 C 162.14 189.57 163.15 190.32 164.24 190.17 C 165.33 190.01 166.09 189.00 165.93 187.91 Z M 165.67 186.94 L 165.55 185.98 C 165.42 184.95 164.48 184.22 163.45 184.35 C 162.43 184.49 161.70 185.42 161.83 186.45 L 161.95 187.42 C 162.09 188.44 163.02 189.17 164.05 189.04 C 165.08 188.91 165.80 187.97 165.67 186.94 Z M 165.48 185.99 L 165.47 185.88 C 165.35 184.89 164.44 184.18 163.45 184.31 C 162.46 184.43 161.76 185.33 161.88 186.32 L 161.90 186.44 C 162.02 187.43 162.92 188.13 163.91 188.01 C 164.90 187.88 165.61 186.98 165.48 185.99 Z"
      fill="black"
      fill-rule="nonzero" /><path d="M 152.13 142.74 L 152.61 143.56 C 153.16 144.52 154.39 144.84 155.34 144.28 C 156.29 143.73 156.62 142.50 156.06 141.55 L 155.58 140.73 C 155.02 139.78 153.80 139.45 152.85 140.01 C 151.89 140.57 151.57 141.79 152.13 142.74 Z M 152.65 143.73 L 153.24 144.58 C 153.89 145.51 155.17 145.73 156.10 145.08 C 157.03 144.44 157.25 143.16 156.61 142.23 L 156.01 141.38 C 155.37 140.45 154.09 140.23 153.16 140.88 C 152.23 141.52 152.00 142.80 152.65 143.73 Z M 153.38 144.70 L 154.00 145.43 C 154.72 146.28 155.98 146.40 156.84 145.68 C 157.69 144.97 157.80 143.70 157.08 142.85 L 156.47 142.11 C 155.75 141.26 154.48 141.15 153.63 141.86 C 152.78 142.58 152.67 143.85 153.38 144.70 Z M 154.14 145.41 L 154.84 146.18 C 155.54 146.96 156.74 147.01 157.51 146.31 C 158.29 145.61 158.34 144.41 157.64 143.64 L 156.94 142.87 C 156.24 142.09 155.05 142.04 154.27 142.74 C 153.50 143.44 153.44 144.64 154.14 145.41 Z M 154.90 146.14 L 155.08 146.34 C 155.76 147.07 156.92 147.12 157.65 146.44 C 158.39 145.76 158.44 144.61 157.75 143.87 L 157.58 143.68 C 156.90 142.94 155.74 142.89 155.01 143.57 C 154.27 144.26 154.22 145.41 154.90 146.14 Z"
      fill="black"
      fill-rule="nonzero" /><path d="M 156.68 152.03 L 156.30 152.94 C 155.86 154.00 156.36 155.22 157.42 155.66 C 158.48 156.10 159.70 155.59 160.14 154.53 L 160.51 153.62 C 160.95 152.56 160.45 151.35 159.39 150.91 C 158.33 150.47 157.12 150.97 156.68 152.03 Z M 156.15 153.30 L 155.95 154.28 C 155.70 155.42 156.43 156.54 157.57 156.78 C 158.71 157.02 159.83 156.30 160.08 155.16 L 160.28 154.18 C 160.52 153.03 159.80 151.91 158.66 151.67 C 157.51 151.43 156.39 152.16 156.15 153.30 Z M 155.89 154.74 L 155.90 155.75 C 155.91 156.92 156.87 157.86 158.05 157.85 C 159.22 157.84 160.16 156.88 160.15 155.70 L 160.14 154.69 C 160.12 153.52 159.16 152.58 157.99 152.59 C 156.81 152.61 155.87 153.57 155.89 154.74 Z M 155.93 156.08 L 156.08 157.00 C 156.27 158.15 157.37 158.94 158.52 158.74 C 159.68 158.55 160.46 157.45 160.27 156.30 L 160.12 155.38 C 159.93 154.22 158.83 153.44 157.67 153.63 C 156.51 153.82 155.73 154.92 155.93 156.08 Z M 156.13 157.23 L 156.41 158.18 C 156.73 159.31 157.90 159.97 159.03 159.64 C 160.16 159.32 160.81 158.15 160.49 157.02 L 160.22 156.06 C 159.89 154.94 158.72 154.28 157.59 154.61 C 156.47 154.93 155.81 156.10 156.13 157.23 Z M 156.44 158.25 L 156.74 159.18 C 157.09 160.29 158.29 160.90 159.40 160.54 C 160.51 160.18 161.12 158.99 160.76 157.88 L 160.46 156.95 C 160.10 155.84 158.91 155.23 157.80 155.59 C 156.69 155.95 156.08 157.14 156.44 158.25 Z M 156.75 159.18 L 157.05 160.11 C 157.41 161.21 158.60 161.82 159.70 161.46 C 160.80 161.10 161.41 159.91 161.05 158.81 L 160.74 157.88 C 160.38 156.78 159.20 156.17 158.10 156.53 C 156.99 156.89 156.39 158.08 156.75 159.18 Z M 157.06 160.10 L 157.39 161.12 C 157.74 162.21 158.92 162.82 160.01 162.47 C 161.11 162.11 161.71 160.94 161.36 159.84 L 161.04 158.82 C 160.68 157.73 159.51 157.12 158.41 157.47 C 157.32 157.83 156.71 159.00 157.06 160.10 Z M 157.41 161.09 L 157.73 162.12 C 158.07 163.21 159.22 163.82 160.31 163.48 C 161.40 163.14 162.00 161.99 161.67 160.90 L 161.35 159.87 C 161.01 158.78 159.85 158.17 158.76 158.51 C 157.68 158.85 157.07 160.01 157.41 161.09 Z M 157.76 162.10 L 158.06 163.10 C 158.38 164.17 159.51 164.77 160.58 164.45 C 161.65 164.13 162.26 163.00 161.94 161.93 L 161.64 160.93 C 161.31 159.86 160.19 159.25 159.11 159.57 C 158.04 159.90 157.44 161.02 157.76 162.10 Z M 158.10 163.07 L 158.37 164.01 C 158.68 165.06 159.78 165.67 160.83 165.36 C 161.88 165.05 162.48 163.95 162.18 162.90 L 161.90 161.96 C 161.59 160.91 160.49 160.30 159.44 160.61 C 158.39 160.92 157.79 162.02 158.10 163.07 Z M 158.41 163.99 L 158.68 164.94 C 158.97 165.97 160.04 166.57 161.07 166.28 C 162.11 165.98 162.70 164.91 162.41 163.88 L 162.14 162.93 C 161.85 161.90 160.78 161.30 159.75 161.59 C 158.71 161.88 158.12 162.96 158.41 163.99 Z M 158.72 164.91 L 158.98 165.89 C 159.26 166.90 160.30 167.50 161.31 167.22 C 162.32 166.95 162.91 165.91 162.64 164.90 L 162.38 163.92 C 162.10 162.91 161.06 162.31 160.05 162.58 C 159.04 162.85 158.44 163.90 158.72 164.91 Z M 159.02 165.84 L 159.24 166.74 C 159.49 167.73 160.49 168.34 161.49 168.09 C 162.48 167.84 163.08 166.83 162.83 165.84 L 162.61 164.94 C 162.36 163.95 161.35 163.35 160.36 163.60 C 159.37 163.85 158.77 164.85 159.02 165.84 Z M 159.26 166.70 L 159.48 167.67 C 159.71 168.65 160.69 169.26 161.67 169.04 C 162.65 168.81 163.26 167.83 163.04 166.85 L 162.81 165.88 C 162.59 164.90 161.61 164.29 160.63 164.51 C 159.64 164.74 159.03 165.72 159.26 166.70 Z M 159.49 167.65 L 159.71 168.63 C 159.92 169.61 160.89 170.23 161.86 170.01 C 162.84 169.80 163.46 168.83 163.24 167.85 L 163.03 166.87 C 162.81 165.89 161.85 165.27 160.87 165.49 C 159.89 165.70 159.28 166.67 159.49 167.65 Z M 159.71 168.63 L 159.74 168.73 C 159.95 169.70 160.91 170.32 161.88 170.11 C 162.86 169.90 163.47 168.94 163.26 167.96 L 163.24 167.86 C 163.03 166.88 162.06 166.27 161.09 166.48 C 160.12 166.69 159.50 167.65 159.71 168.63 Z"
      fill="black"
      fill-rule="nonzero" /><path d="M 137.44 153.48 L 138.38 153.48 C 139.51 153.48 140.42 152.57 140.42 151.44 C 140.42 150.31 139.51 149.40 138.38 149.40 L 137.44 149.40 C 136.31 149.40 135.40 150.31 135.40 151.44 C 135.40 152.57 136.31 153.48 137.44 153.48 Z M 138.38 153.60 L 139.43 153.60 C 140.62 153.60 141.59 152.63 141.59 151.44 C 141.59 150.25 140.62 149.28 139.43 149.28 L 138.38 149.28 C 137.19 149.28 136.22 150.25 136.22 151.44 C 136.22 152.63 137.19 153.60 138.38 153.60 Z M 139.43 153.67 L 140.45 153.67 C 141.68 153.67 142.67 152.67 142.67 151.44 C 142.67 150.21 141.68 149.21 140.45 149.21 L 139.43 149.21 C 138.20 149.21 137.20 150.21 137.20 151.44 C 137.20 152.67 138.20 153.67 139.43 153.67 Z M 140.45 153.69 L 141.44 153.69 C 142.68 153.69 143.68 152.68 143.68 151.44 C 143.68 150.20 142.68 149.19 141.44 149.19 L 140.45 149.19 C 139.21 149.19 138.20 150.20 138.20 151.44 C 138.20 152.68 139.21 153.69 140.45 153.69 Z M 141.44 153.70 L 142.47 153.70 C 143.72 153.70 144.73 152.68 144.73 151.43 C 144.73 150.18 143.71 149.17 142.46 149.18 L 141.43 149.18 C 140.18 149.18 139.17 150.20 139.18 151.44 C 139.18 152.69 140.19 153.70 141.44 153.70 Z M 142.50 153.71 L 143.46 153.70 C 144.71 153.68 145.72 152.65 145.70 151.39 C 145.68 150.13 144.65 149.13 143.39 149.15 L 142.43 149.16 C 141.18 149.18 140.17 150.21 140.19 151.47 C 140.21 152.73 141.24 153.73 142.50 153.71 Z M 143.50 153.71 L 144.48 153.68 C 145.74 153.64 146.73 152.58 146.69 151.32 C 146.65 150.06 145.60 149.07 144.33 149.11 L 143.35 149.14 C 142.09 149.18 141.10 150.24 141.14 151.50 C 141.18 152.76 142.23 153.75 143.50 153.71 Z M 144.51 153.68 L 145.53 153.63 C 146.80 153.58 147.77 152.51 147.72 151.24 C 147.66 149.98 146.59 149.00 145.32 149.06 L 144.30 149.10 C 143.04 149.16 142.06 150.23 142.12 151.50 C 142.18 152.76 143.25 153.74 144.51 153.68 Z M 145.55 153.64 L 146.54 153.59 C 147.80 153.52 148.77 152.44 148.71 151.17 C 148.64 149.91 147.56 148.93 146.29 149.00 L 145.31 149.05 C 144.04 149.12 143.07 150.20 143.13 151.47 C 143.20 152.73 144.28 153.71 145.55 153.64 Z M 146.53 153.59 L 147.54 153.54 C 148.81 153.48 149.79 152.40 149.73 151.13 C 149.66 149.86 148.59 148.88 147.32 148.95 L 146.30 149.00 C 145.03 149.06 144.05 150.14 144.12 151.41 C 144.18 152.68 145.26 153.65 146.53 153.59 Z M 147.52 153.55 L 148.50 153.51 C 149.77 153.46 150.76 152.39 150.71 151.12 C 150.66 149.84 149.59 148.85 148.32 148.90 L 147.34 148.94 C 146.06 148.99 145.07 150.06 145.12 151.34 C 145.17 152.61 146.24 153.60 147.52 153.55 Z M 148.50 153.52 L 149.51 153.48 C 150.79 153.44 151.79 152.36 151.74 151.08 C 151.69 149.80 150.62 148.80 149.34 148.85 L 148.32 148.89 C 147.04 148.94 146.04 150.02 146.09 151.29 C 146.14 152.57 147.22 153.57 148.50 153.52 Z M 149.53 153.49 L 150.51 153.45 C 151.79 153.39 152.79 152.31 152.73 151.03 C 152.68 149.74 151.59 148.75 150.31 148.80 L 149.32 148.84 C 148.04 148.90 147.05 149.99 147.10 151.27 C 147.16 152.55 148.24 153.55 149.53 153.49 Z M 150.52 153.46 L 151.52 153.41 C 152.81 153.35 153.80 152.25 153.74 150.97 C 153.68 149.68 152.59 148.69 151.30 148.75 L 150.30 148.80 C 149.01 148.86 148.02 149.95 148.08 151.24 C 148.14 152.52 149.23 153.52 150.52 153.46 Z M 151.52 153.41 L 152.53 153.36 C 153.82 153.30 154.82 152.21 154.76 150.92 C 154.69 149.63 153.60 148.63 152.31 148.69 L 151.30 148.74 C 150.01 148.81 149.01 149.90 149.08 151.19 C 149.14 152.48 150.23 153.48 151.52 153.41 Z M 152.53 153.37 L 153.52 153.32 C 154.81 153.26 155.81 152.16 155.74 150.87 C 155.68 149.58 154.59 148.58 153.30 148.64 L 152.31 148.69 C 151.02 148.75 150.02 149.85 150.08 151.14 C 150.14 152.43 151.24 153.43 152.53 153.37 Z M 153.52 153.32 L 154.53 153.27 C 155.82 153.21 156.82 152.11 156.75 150.82 C 156.69 149.53 155.60 148.54 154.31 148.60 L 153.30 148.65 C 152.01 148.71 151.01 149.80 151.07 151.09 C 151.13 152.38 152.23 153.38 153.52 153.32 Z M 154.53 153.27 L 155.52 153.22 C 156.81 153.16 157.81 152.06 157.74 150.77 C 157.68 149.48 156.58 148.49 155.29 148.55 L 154.30 148.60 C 153.01 148.66 152.02 149.76 152.08 151.05 C 152.15 152.34 153.24 153.33 154.53 153.27 Z M 155.53 153.22 L 156.52 153.17 C 157.81 153.10 158.80 152.00 158.73 150.71 C 158.67 149.43 157.57 148.43 156.28 148.50 L 155.29 148.55 C 154.00 148.62 153.01 149.72 153.08 151.00 C 153.14 152.29 154.24 153.28 155.53 153.22 Z M 156.53 153.17 L 157.54 153.11 C 158.83 153.04 159.82 151.94 159.75 150.65 C 159.68 149.36 158.57 148.38 157.29 148.45 L 156.27 148.50 C 154.98 148.57 154.00 149.67 154.07 150.96 C 154.14 152.25 155.24 153.24 156.53 153.17 Z M 157.55 153.11 L 158.56 153.05 C 159.85 152.97 160.83 151.87 160.75 150.58 C 160.68 149.30 159.57 148.32 158.29 148.39 L 157.28 148.45 C 155.99 148.53 155.01 149.63 155.09 150.91 C 155.16 152.20 156.27 153.18 157.55 153.11 Z M 158.56 153.04 L 159.57 152.98 C 160.85 152.90 161.83 151.80 161.75 150.52 C 161.68 149.24 160.57 148.26 159.29 148.34 L 158.28 148.40 C 157.00 148.48 156.03 149.58 156.11 150.86 C 156.18 152.14 157.28 153.12 158.56 153.04 Z M 159.57 152.97 L 160.56 152.91 C 161.84 152.83 162.81 151.74 162.73 150.46 C 162.66 149.19 161.56 148.21 160.29 148.29 L 159.30 148.35 C 158.02 148.42 157.05 149.52 157.12 150.80 C 157.20 152.07 158.29 153.04 159.57 152.97 Z M 160.55 152.90 L 161.58 152.84 C 162.85 152.77 163.82 151.69 163.75 150.42 C 163.68 149.14 162.60 148.17 161.32 148.24 L 160.30 148.30 C 159.03 148.37 158.05 149.46 158.12 150.73 C 158.19 152.00 159.28 152.97 160.55 152.90 Z M 161.58 152.84 L 162.57 152.78 C 163.84 152.71 164.81 151.63 164.74 150.36 C 164.67 149.10 163.59 148.13 162.32 148.20 L 161.33 148.25 C 160.06 148.32 159.09 149.40 159.16 150.67 C 159.23 151.93 160.31 152.90 161.58 152.84 Z M 162.59 152.77 L 163.55 152.71 C 164.81 152.64 165.78 151.56 165.70 150.29 C 165.62 149.03 164.54 148.07 163.28 148.15 L 162.31 148.20 C 161.05 148.28 160.09 149.36 160.17 150.63 C 160.24 151.89 161.32 152.85 162.59 152.77 Z M 163.58 152.70 L 164.59 152.63 C 165.85 152.54 166.79 151.45 166.70 150.20 C 166.61 148.94 165.52 148.00 164.27 148.09 L 163.25 148.16 C 162.00 148.25 161.05 149.34 161.14 150.59 C 161.23 151.85 162.32 152.79 163.58 152.70 Z M 164.61 152.62 L 165.60 152.54 C 166.84 152.44 167.77 151.35 167.67 150.10 C 167.58 148.85 166.48 147.92 165.24 148.02 L 164.25 148.10 C 163.00 148.20 162.07 149.29 162.17 150.54 C 162.27 151.79 163.36 152.72 164.61 152.62 Z M 165.60 152.53 L 166.61 152.44 C 167.85 152.34 168.77 151.25 168.67 150.01 C 168.56 148.77 167.47 147.85 166.23 147.95 L 165.23 148.03 C 163.99 148.14 163.06 149.23 163.17 150.47 C 163.27 151.71 164.36 152.63 165.60 152.53 Z M 166.62 152.43 L 167.62 152.34 C 168.85 152.23 169.76 151.14 169.65 149.90 C 169.54 148.67 168.45 147.76 167.22 147.87 L 166.22 147.96 C 164.99 148.07 164.08 149.16 164.19 150.40 C 164.30 151.63 165.39 152.54 166.62 152.43 Z M 167.65 152.32 L 168.64 152.22 C 169.86 152.09 170.75 151.00 170.62 149.77 C 170.50 148.55 169.40 147.66 168.18 147.79 L 167.19 147.89 C 165.96 148.02 165.07 149.11 165.20 150.34 C 165.33 151.56 166.42 152.45 167.65 152.32 Z M 168.67 152.20 L 169.67 152.08 C 170.88 151.94 171.75 150.84 171.61 149.63 C 171.46 148.41 170.37 147.55 169.15 147.69 L 168.15 147.81 C 166.94 147.95 166.07 149.05 166.21 150.26 C 166.35 151.48 167.45 152.34 168.67 152.20 Z M 169.67 152.07 L 170.62 151.95 C 171.82 151.81 172.68 150.72 172.54 149.51 C 172.40 148.31 171.31 147.45 170.10 147.59 L 169.15 147.71 C 167.95 147.85 167.09 148.94 167.23 150.14 C 167.37 151.35 168.46 152.21 169.67 152.07 Z M 170.60 151.94 L 171.53 151.83 C 172.73 151.70 173.59 150.63 173.46 149.43 C 173.33 148.23 172.25 147.37 171.05 147.50 L 170.12 147.61 C 168.93 147.74 168.06 148.82 168.20 150.01 C 168.33 151.21 169.41 152.07 170.60 151.94 Z M 171.53 151.82 L 172.60 151.70 C 173.79 151.57 174.65 150.50 174.52 149.31 C 174.38 148.13 173.32 147.27 172.13 147.40 L 171.05 147.52 C 169.87 147.65 169.01 148.72 169.14 149.91 C 169.27 151.09 170.34 151.95 171.53 151.82 Z M 172.61 151.68 L 173.58 151.57 C 174.76 151.44 175.60 150.37 175.47 149.19 C 175.33 148.02 174.27 147.17 173.09 147.31 L 172.12 147.42 C 170.94 147.55 170.10 148.62 170.23 149.80 C 170.37 150.97 171.43 151.82 172.61 151.68 Z M 173.59 151.56 L 174.62 151.44 C 175.79 151.29 176.62 150.23 176.48 149.06 C 176.34 147.89 175.28 147.06 174.11 147.20 L 173.08 147.32 C 171.91 147.46 171.07 148.52 171.21 149.69 C 171.36 150.86 172.42 151.70 173.59 151.56 Z M 174.63 151.42 L 175.63 151.29 C 176.79 151.14 177.61 150.08 177.46 148.92 C 177.32 147.76 176.25 146.94 175.09 147.08 L 174.09 147.21 C 172.93 147.36 172.11 148.42 172.26 149.58 C 172.41 150.75 173.47 151.57 174.63 151.42 Z M 175.65 151.27 L 176.70 151.13 C 177.85 150.97 178.66 149.90 178.50 148.75 C 178.34 147.60 177.27 146.80 176.12 146.96 L 175.07 147.11 C 173.92 147.27 173.12 148.33 173.28 149.48 C 173.44 150.63 174.50 151.43 175.65 151.27 Z M 176.71 151.10 L 177.64 150.97 C 178.78 150.80 179.57 149.75 179.41 148.61 C 179.24 147.48 178.19 146.69 177.05 146.85 L 176.12 146.98 C 174.98 147.15 174.19 148.20 174.35 149.34 C 174.52 150.48 175.57 151.27 176.71 151.10 Z M 177.65 150.94 L 178.85 150.77 C 179.97 150.60 180.75 149.55 180.58 148.42 C 180.41 147.30 179.36 146.52 178.24 146.69 L 177.04 146.87 C 175.92 147.04 175.14 148.09 175.31 149.21 C 175.48 150.34 176.53 151.11 177.65 150.94 Z M 179.67 150.43 L 180.05 150.18 C 180.99 149.56 181.25 148.29 180.63 147.35 C 180.01 146.41 178.74 146.15 177.80 146.77 L 177.42 147.03 C 176.48 147.65 176.22 148.91 176.84 149.85 C 177.46 150.79 178.73 151.05 179.67 150.43 Z M 179.62 146.58 L 178.78 146.27 C 177.73 145.89 176.57 146.43 176.19 147.47 C 175.80 148.52 176.34 149.68 177.39 150.06 L 178.23 150.37 C 179.28 150.76 180.44 150.22 180.82 149.17 C 181.21 148.12 180.67 146.96 179.62 146.58 Z M 178.60 146.23 L 177.77 146.01 C 176.70 145.73 175.60 146.36 175.32 147.43 C 175.03 148.50 175.67 149.60 176.74 149.88 L 177.57 150.10 C 178.64 150.39 179.73 149.75 180.02 148.68 C 180.30 147.61 179.66 146.52 178.60 146.23 Z"
      fill="black"
      fill-rule="nonzero" /></svg>