<svg xmlns="http://www.w3.org/2000/svg" width="300" height="300" viewBox="0 0 300 300">
<path d="M 124.24 124.12 L 124.93 124.75 C 125.73 125.49 126.98 125.44 127.71 124.63 C 128.45 123.83 128.40 122.58 127.60 121.84 L 126.91 121.21 C 126.11 120.48 124.86 120.53 124.12 121.33 C 123.39 122.13 123.44 123.38 124.24 124.12 Z M 125.42 125.18 L 126.37 125.60 C 127.41 126.06 128.63 125.60 129.09 124.56 C 129.55 123.52 129.09 122.30 128.05 121.84 L 127.10 121.42 C 126.06 120.96 124.85 121.42 124.38 122.46 C 123.92 123.50 124.39 124.71 125.42 125.18 Z M 126.95 125.81 L 127.92 125.94 C 129.07 126.08 130.13 125.27 130.28 124.11 C 130.42 122.95 129.61 121.90 128.45 121.75 L 127.48 121.63 C 126.32 121.48 125.27 122.30 125.12 123.45 C 124.97 124.61 125.79 125.67 126.95 125.81 Z M 128.17 125.98 L 129.21 125.99 C 130.39 126.00 131.36 125.05 131.36 123.87 C 131.37 122.69 130.42 121.72 129.24 121.72 L 128.20 121.71 C 127.02 121.70 126.06 122.65 126.05 123.83 C 126.04 125.01 126.99 125.97 128.17 125.98 Z M 129.34 126.01 L 130.40 125.95 C 131.59 125.89 132.50 124.88 132.44 123.68 C 132.38 122.49 131.36 121.58 130.17 121.64 L 129.12 121.70 C 127.92 121.76 127.01 122.77 127.07 123.97 C 127.13 125.16 128.15 126.07 129.34 126.01 Z M 130.49 125.96 L 131.46 125.87 C 132.66 125.75 133.53 124.69 133.41 123.49 C 133.30 122.29 132.23 121.42 131.04 121.54 L 130.07 121.63 C 128.87 121.75 128.00 122.81 128.12 124.01 C 128.23 125.21 129.30 126.08 130.49 125.96 Z M 131.52 125.87 L 132.45 125.76 C 133.64 125.61 134.50 124.51 134.34 123.31 C 134.19 122.11 133.10 121.26 131.90 121.41 L 130.98 121.53 C 129.78 121.68 128.93 122.78 129.08 123.98 C 129.23 125.18 130.32 126.03 131.52 125.87 Z M 132.46 125.77 L 133.45 125.64 C 134.66 125.48 135.51 124.37 135.35 123.16 C 135.19 121.96 134.08 121.11 132.88 121.27 L 131.88 121.40 C 130.68 121.56 129.83 122.67 129.99 123.88 C 130.15 125.08 131.26 125.93 132.46 125.77 Z M 133.47 125.65 L 134.47 125.51 C 135.68 125.34 136.52 124.22 136.35 123.01 C 136.19 121.80 135.07 120.96 133.86 121.13 L 132.86 121.26 C 131.65 121.43 130.81 122.55 130.97 123.76 C 131.14 124.97 132.26 125.81 133.47 125.65 Z M 134.47 125.51 L 135.45 125.37 C 136.67 125.20 137.51 124.08 137.34 122.87 C 137.17 121.65 136.04 120.81 134.83 120.98 L 133.85 121.12 C 132.64 121.29 131.79 122.41 131.97 123.63 C 132.14 124.84 133.26 125.69 134.47 125.51 Z M 135.45 125.38 L 136.46 125.24 C 137.68 125.07 138.53 123.94 138.36 122.73 C 138.19 121.51 137.06 120.66 135.85 120.83 L 134.83 120.98 C 133.62 121.15 132.77 122.27 132.94 123.49 C 133.11 124.70 134.23 125.55 135.45 125.38 Z M 136.46 125.24 L 137.42 125.11 C 138.64 124.94 139.49 123.82 139.32 122.60 C 139.16 121.38 138.03 120.53 136.82 120.70 L 135.85 120.83 C 134.63 121.00 133.78 122.12 133.95 123.34 C 134.12 124.56 135.24 125.41 136.46 125.24 Z M 137.43 125.11 L 138.44 124.96 C 139.65 124.79 140.50 123.67 140.33 122.45 C 140.16 121.24 139.03 120.39 137.82 120.56 L 136.81 120.70 C 135.59 120.87 134.75 122.00 134.92 123.21 C 135.09 124.43 136.21 125.28 137.43 125.11 Z M 138.46 124.96 L 139.44 124.81 C 140.66 124.63 141.49 123.50 141.31 122.29 C 141.13 121.07 140.00 120.24 138.79 120.42 L 137.80 120.56 C 136.59 120.74 135.75 121.88 135.93 123.09 C 136.11 124.30 137.24 125.14 138.46 124.96 Z M 139.46 124.81 L 140.44 124.65 C 141.65 124.46 142.48 123.33 142.29 122.12 C 142.10 120.91 140.96 120.08 139.75 120.27 L 138.77 120.42 C 137.56 120.61 136.73 121.75 136.92 122.96 C 137.11 124.17 138.25 125.00 139.46 124.81 Z M 140.45 124.65 L 141.45 124.49 C 142.66 124.30 143.48 123.16 143.29 121.95 C 143.10 120.74 141.96 119.92 140.75 120.11 L 139.75 120.27 C 138.54 120.46 137.71 121.60 137.91 122.81 C 138.10 124.02 139.24 124.84 140.45 124.65 Z M 141.45 124.48 L 142.43 124.33 C 143.64 124.13 144.46 123.00 144.27 121.79 C 144.07 120.59 142.94 119.77 141.73 119.96 L 140.75 120.12 C 139.55 120.31 138.73 121.44 138.92 122.65 C 139.11 123.85 140.24 124.68 141.45 124.48 Z M 142.43 124.32 L 143.41 124.16 C 144.62 123.97 145.44 122.84 145.25 121.64 C 145.05 120.44 143.93 119.62 142.73 119.81 L 141.74 119.97 C 140.54 120.16 139.72 121.29 139.91 122.49 C 140.10 123.69 141.23 124.51 142.43 124.32 Z M 143.41 124.15 L 144.41 124.00 C 145.61 123.81 146.42 122.69 146.23 121.49 C 146.05 120.29 144.93 119.48 143.73 119.66 L 142.73 119.82 C 141.53 120.01 140.72 121.13 140.90 122.33 C 141.09 123.52 142.21 124.34 143.41 124.15 Z M 144.41 123.99 L 145.38 123.83 C 146.57 123.65 147.39 122.53 147.20 121.34 C 147.02 120.15 145.90 119.34 144.71 119.52 L 143.73 119.67 C 142.54 119.86 141.73 120.98 141.91 122.17 C 142.10 123.36 143.21 124.17 144.41 123.99 Z M 145.38 123.82 L 146.36 123.67 C 147.55 123.49 148.36 122.38 148.17 121.19 C 147.99 120.01 146.88 119.19 145.69 119.38 L 144.71 119.53 C 143.53 119.72 142.71 120.83 142.90 122.01 C 143.08 123.20 144.19 124.01 145.38 123.82 Z M 146.36 123.66 L 147.36 123.50 C 148.54 123.32 149.35 122.22 149.16 121.04 C 148.98 119.86 147.87 119.05 146.70 119.23 L 145.69 119.39 C 144.51 119.57 143.71 120.68 143.89 121.86 C 144.08 123.04 145.18 123.84 146.36 123.66 Z M 147.36 123.49 L 148.36 123.33 C 149.54 123.15 150.34 122.05 150.15 120.88 C 149.97 119.71 148.87 118.90 147.70 119.09 L 146.69 119.25 C 145.52 119.43 144.72 120.53 144.91 121.70 C 145.09 122.87 146.19 123.68 147.36 123.49 Z M 148.37 123.32 L 149.37 123.16 C 150.53 122.97 151.32 121.88 151.14 120.72 C 150.95 119.55 149.86 118.76 148.70 118.95 L 147.70 119.11 C 146.53 119.29 145.74 120.38 145.92 121.55 C 146.11 122.71 147.20 123.50 148.37 123.32 Z M 149.37 123.14 L 150.35 122.98 C 151.51 122.80 152.29 121.71 152.10 120.56 C 151.92 119.40 150.83 118.62 149.68 118.81 L 148.70 118.96 C 147.54 119.15 146.76 120.24 146.94 121.39 C 147.13 122.54 148.22 123.33 149.37 123.14 Z M 150.36 122.96 L 151.36 122.80 C 152.50 122.61 153.28 121.53 153.09 120.39 C 152.90 119.24 151.82 118.47 150.67 118.66 L 149.67 118.82 C 148.53 119.01 147.75 120.09 147.94 121.24 C 148.13 122.38 149.21 123.15 150.36 122.96 Z M 151.36 122.78 L 152.36 122.61 C 153.50 122.42 154.26 121.34 154.07 120.21 C 153.87 119.08 152.80 118.31 151.67 118.51 L 150.67 118.68 C 149.53 118.87 148.77 119.94 148.96 121.08 C 149.16 122.21 150.23 122.97 151.36 122.78 Z M 152.37 122.59 L 153.32 122.43 C 154.45 122.23 155.20 121.17 155.00 120.04 C 154.81 118.92 153.74 118.16 152.62 118.36 L 151.66 118.52 C 150.54 118.72 149.78 119.79 149.98 120.91 C 150.17 122.03 151.24 122.79 152.37 122.59 Z M 153.32 122.41 L 154.31 122.24 C 155.43 122.04 156.17 120.98 155.98 119.87 C 155.78 118.76 154.72 118.01 153.61 118.20 L 152.62 118.38 C 151.50 118.57 150.76 119.63 150.95 120.75 C 151.15 121.86 152.21 122.61 153.32 122.41 Z M 154.31 122.22 L 155.30 122.04 C 156.41 121.85 157.14 120.79 156.95 119.69 C 156.75 118.59 155.70 117.85 154.59 118.05 L 153.61 118.22 C 152.50 118.42 151.77 119.47 151.96 120.58 C 152.16 121.68 153.21 122.41 154.31 122.22 Z M 155.31 122.02 L 156.28 121.84 C 157.37 121.64 158.09 120.59 157.89 119.50 C 157.69 118.41 156.64 117.69 155.55 117.89 L 154.58 118.07 C 153.49 118.27 152.77 119.32 152.97 120.41 C 153.18 121.50 154.22 122.22 155.31 122.02 Z M 156.29 121.82 L 157.29 121.63 C 158.37 121.42 159.08 120.38 158.87 119.30 C 158.66 118.22 157.62 117.51 156.54 117.72 L 155.54 117.91 C 154.46 118.12 153.76 119.16 153.96 120.24 C 154.17 121.32 155.21 122.03 156.29 121.82 Z M 157.28 121.61 L 158.25 121.42 C 159.32 121.22 160.02 120.19 159.82 119.13 C 159.61 118.06 158.59 117.36 157.52 117.56 L 156.55 117.74 C 155.48 117.94 154.78 118.97 154.98 120.04 C 155.19 121.11 156.21 121.81 157.28 121.61 Z M 158.21 121.41 L 159.21 121.24 C 160.27 121.06 160.98 120.05 160.80 118.99 C 160.62 117.93 159.61 117.22 158.55 117.40 L 157.55 117.57 C 156.49 117.75 155.78 118.76 155.96 119.82 C 156.15 120.88 157.15 121.59 158.21 121.41 Z M 159.19 121.22 L 160.17 121.06 C 161.22 120.89 161.94 119.90 161.76 118.85 C 161.59 117.80 160.60 117.09 159.55 117.26 L 158.57 117.42 C 157.52 117.59 156.81 118.58 156.98 119.63 C 157.15 120.68 158.14 121.39 159.19 121.22 Z M 160.20 121.04 L 161.13 120.87 C 162.16 120.69 162.85 119.70 162.67 118.66 C 162.49 117.62 161.50 116.93 160.46 117.12 L 159.53 117.28 C 158.49 117.47 157.80 118.46 157.98 119.49 C 158.17 120.53 159.16 121.22 160.20 121.04 Z M 161.15 120.85 L 162.11 120.66 C 163.13 120.46 163.80 119.47 163.60 118.45 C 163.40 117.42 162.41 116.76 161.39 116.95 L 160.43 117.14 C 159.41 117.34 158.74 118.33 158.94 119.35 C 159.14 120.38 160.13 121.05 161.15 120.85 Z M 162.10 120.65 L 163.14 120.45 C 164.16 120.25 164.82 119.27 164.62 118.25 C 164.43 117.24 163.44 116.57 162.43 116.77 L 161.39 116.97 C 160.38 117.17 159.71 118.15 159.91 119.17 C 160.11 120.18 161.09 120.84 162.10 120.65 Z M 163.13 120.43 L 164.15 120.24 C 165.15 120.05 165.81 119.08 165.62 118.07 C 165.43 117.06 164.46 116.40 163.45 116.59 L 162.44 116.78 C 161.43 116.98 160.77 117.95 160.96 118.95 C 161.15 119.96 162.12 120.62 163.13 120.43 Z M 164.15 120.22 L 165.15 120.03 C 166.14 119.83 166.80 118.87 166.60 117.87 C 166.41 116.87 165.44 116.22 164.44 116.41 L 163.45 116.61 C 162.45 116.80 161.80 117.77 161.99 118.77 C 162.19 119.77 163.15 120.42 164.15 120.22 Z M 165.18 120.01 L 166.22 119.78 C 167.21 119.57 167.84 118.60 167.62 117.62 C 167.41 116.63 166.44 116.00 165.46 116.21 L 164.41 116.43 C 163.42 116.65 162.80 117.62 163.01 118.60 C 163.22 119.59 164.19 120.22 165.18 120.01 Z M 166.27 119.76 L 167.18 119.53 C 168.15 119.29 168.75 118.31 168.51 117.34 C 168.27 116.37 167.28 115.77 166.31 116.01 L 165.40 116.24 C 164.43 116.48 163.84 117.46 164.08 118.43 C 164.32 119.40 165.30 120.00 166.27 119.76 Z M 167.20 119.52 L 167.42 119.46 C 168.39 119.21 168.96 118.22 168.71 117.26 C 168.46 116.30 167.47 115.72 166.51 115.97 L 166.29 116.03 C 165.33 116.28 164.75 117.27 165.00 118.23 C 165.25 119.19 166.24 119.77 167.20 119.52 Z"
      fill="black"
      fill-rule="nonzero" /><path d="M 133.71 131.34 L 134.48 131.97 C 135.26 132.61 136.42 132.50 137.06 131.71 C 137.70 130.93 137.59 129.78 136.80 129.14 L 136.03 128.51 C 135.25 127.86 134.10 127.98 133.46 128.76 C 132.81 129.55 132.93 130.70 133.71 131.34 Z M 134.21 131.80 L 134.87 132.55 C 135.55 133.34 136.75 133.43 137.54 132.74 C 138.33 132.05 138.42 130.85 137.73 130.06 L 137.07 129.31 C 136.39 128.52 135.19 128.44 134.40 129.12 C 133.61 129.81 133.52 131.01 134.21 131.80 Z M 134.58 132.23 L 135.05 133.12 C 135.56 134.07 136.74 134.43 137.69 133.92 C 138.64 133.41 139.00 132.23 138.49 131.28 L 138.02 130.39 C 137.51 129.44 136.33 129.08 135.38 129.59 C 134.43 130.10 134.07 131.28 134.58 132.23 Z M 134.90 132.89 L 135.25 133.81 C 135.63 134.84 136.77 135.37 137.81 134.99 C 138.84 134.60 139.37 133.46 138.98 132.43 L 138.64 131.50 C 138.26 130.47 137.11 129.95 136.08 130.33 C 135.05 130.71 134.52 131.86 134.90 132.89 Z M 135.16 133.63 L 135.41 134.59 C 135.70 135.66 136.80 136.31 137.88 136.02 C 138.96 135.74 139.60 134.63 139.32 133.55 L 139.07 132.60 C 138.78 131.52 137.68 130.88 136.60 131.17 C 135.52 131.45 134.88 132.56 135.16 133.63 Z M 135.37 134.47 L 135.57 135.47 C 135.80 136.57 136.87 137.28 137.97 137.06 C 139.07 136.84 139.78 135.76 139.56 134.66 L 139.36 133.67 C 139.14 132.57 138.06 131.85 136.96 132.08 C 135.86 132.30 135.15 133.37 135.37 134.47 Z M 135.55 135.42 L 135.73 136.42 C 135.92 137.54 136.98 138.28 138.10 138.09 C 139.21 137.89 139.95 136.83 139.76 135.72 L 139.58 134.71 C 139.39 133.60 138.33 132.85 137.21 133.05 C 136.10 133.24 135.36 134.30 135.55 135.42 Z M 135.71 136.38 L 135.85 137.34 C 136.03 138.46 137.08 139.23 138.20 139.06 C 139.33 138.89 140.10 137.84 139.92 136.71 L 139.78 135.76 C 139.61 134.64 138.55 133.86 137.43 134.04 C 136.31 134.21 135.54 135.26 135.71 136.38 Z M 135.84 137.28 L 135.96 138.25 C 136.10 139.39 137.13 140.19 138.26 140.05 C 139.40 139.91 140.20 138.88 140.06 137.74 L 139.94 136.77 C 139.80 135.64 138.77 134.83 137.64 134.97 C 136.50 135.11 135.70 136.15 135.84 137.28 Z M 135.95 138.20 L 136.05 139.21 C 136.16 140.35 137.18 141.18 138.32 141.07 C 139.46 140.96 140.29 139.94 140.17 138.80 L 140.07 137.79 C 139.96 136.65 138.94 135.82 137.80 135.93 C 136.66 136.05 135.83 137.06 135.95 138.20 Z M 136.04 139.19 L 136.13 140.22 C 136.23 141.36 137.24 142.21 138.38 142.11 C 139.52 142.01 140.37 141.00 140.27 139.86 L 140.18 138.83 C 140.08 137.68 139.07 136.84 137.93 136.94 C 136.79 137.04 135.94 138.04 136.04 139.19 Z M 136.13 140.19 L 136.20 141.20 C 136.29 142.35 137.29 143.21 138.43 143.12 C 139.58 143.04 140.43 142.04 140.35 140.90 L 140.27 139.88 C 140.19 138.74 139.19 137.88 138.05 137.96 C 136.90 138.05 136.04 139.05 136.13 140.19 Z M 136.20 141.16 L 136.26 142.21 C 136.32 143.36 137.30 144.24 138.45 144.18 C 139.60 144.11 140.47 143.13 140.41 141.99 L 140.35 140.94 C 140.29 139.79 139.31 138.91 138.16 138.97 C 137.02 139.04 136.14 140.02 136.20 141.16 Z M 136.26 142.18 L 136.29 143.10 C 136.33 144.25 137.30 145.15 138.45 145.10 C 139.60 145.06 140.49 144.09 140.45 142.94 L 140.41 142.02 C 140.37 140.87 139.40 139.98 138.25 140.02 C 137.11 140.06 136.21 141.03 136.26 142.18 Z M 136.29 143.09 L 136.32 144.09 C 136.36 145.24 137.32 146.14 138.47 146.10 C 139.62 146.06 140.52 145.10 140.48 143.95 L 140.45 142.96 C 140.41 141.81 139.45 140.91 138.30 140.95 C 137.15 140.98 136.25 141.94 136.29 143.09 Z M 136.32 144.06 L 136.34 145.06 C 136.36 146.21 137.31 147.12 138.46 147.10 C 139.61 147.08 140.52 146.13 140.50 144.98 L 140.48 143.98 C 140.46 142.83 139.51 141.92 138.36 141.94 C 137.21 141.97 136.30 142.91 136.32 144.06 Z M 136.34 145.03 L 136.35 146.03 C 136.35 147.18 137.29 148.10 138.44 148.10 C 139.58 148.09 140.51 147.16 140.50 146.01 L 140.50 145.01 C 140.49 143.86 139.56 142.94 138.41 142.94 C 137.26 142.95 136.34 143.88 136.34 145.03 Z M 136.35 146.02 L 136.35 147.04 C 136.35 148.18 137.28 149.11 138.43 149.11 C 139.57 149.11 140.50 148.18 140.50 147.04 L 140.50 146.02 C 140.50 144.87 139.57 143.94 138.43 143.94 C 137.28 143.94 136.35 144.87 136.35 146.02 Z M 136.36 147.04 L 136.36 148.04 C 136.36 149.18 137.28 150.11 138.43 150.11 C 139.57 150.11 140.50 149.18 140.50 148.04 L 140.50 147.04 C 140.50 145.89 139.57 144.97 138.43 144.97 C 137.28 144.97 136.36 145.89 136.36 147.04 Z M 136.36 148.04 L 136.36 149.00 C 136.36 150.14 137.29 151.06 138.43 151.06 C 139.57 151.06 140.49 150.14 140.49 149.00 L 140.49 148.04 C 140.49 146.90 139.57 145.97 138.43 145.97 C 137.29 145.97 136.36 146.90 136.36 148.04 Z M 136.37 149.00 L 136.37 150.02 C 136.37 151.16 137.29 152.08 138.43 152.08 C 139.56 152.08 140.49 151.16 140.49 150.02 L 140.49 149.00 C 140.49 147.86 139.56 146.94 138.43 146.94 C 137.29 146.94 136.37 147.86 136.37 149.00 Z M 136.37 150.02 L 136.37 150.97 C 136.37 152.10 137.28 153.02 138.42 153.03 C 139.56 153.03 140.48 152.11 140.48 150.97 L 140.48 150.03 C 140.49 148.89 139.57 147.97 138.43 147.97 C 137.29 147.96 136.37 148.88 136.37 150.02 Z M 136.37 150.94 L 136.36 151.98 C 136.34 153.12 137.25 154.05 138.39 154.06 C 139.52 154.08 140.45 153.17 140.47 152.03 L 140.48 150.99 C 140.49 149.86 139.58 148.93 138.45 148.92 C 137.32 148.90 136.38 149.81 136.37 150.94 Z M 136.37 151.94 L 136.32 153.20 C 136.28 154.33 137.17 155.28 138.30 155.31 C 139.43 155.35 140.38 154.47 140.42 153.34 L 140.46 152.08 C 140.50 150.95 139.61 150.00 138.48 149.96 C 137.35 149.93 136.40 150.81 136.37 151.94 Z M 136.34 153.10 L 136.28 153.83 C 136.18 154.95 137.02 155.94 138.14 156.03 C 139.26 156.13 140.24 155.29 140.34 154.17 L 140.40 153.44 C 140.49 152.32 139.66 151.33 138.54 151.24 C 137.42 151.14 136.43 151.98 136.34 153.10 Z M 140.31 153.84 L 140.25 153.14 C 140.16 152.04 139.19 151.21 138.09 151.30 C 136.98 151.39 136.16 152.36 136.25 153.47 L 136.30 154.16 C 136.39 155.27 137.36 156.09 138.47 156.00 C 139.58 155.91 140.40 154.95 140.31 153.84 Z M 140.22 153.27 L 140.20 152.07 C 140.19 150.98 139.29 150.11 138.20 150.13 C 137.11 150.14 136.24 151.04 136.26 152.13 L 136.28 153.34 C 136.30 154.43 137.19 155.30 138.28 155.28 C 139.37 155.26 140.24 154.36 140.22 153.27 Z M 140.18 152.10 L 140.18 151.06 C 140.18 149.98 139.31 149.11 138.23 149.11 C 137.15 149.11 136.28 149.98 136.28 151.06 L 136.28 152.10 C 136.28 153.18 137.15 154.05 138.23 154.05 C 139.31 154.05 140.18 153.18 140.18 152.10 Z M 140.17 151.09 L 140.18 150.11 C 140.20 149.05 139.35 148.16 138.28 148.15 C 137.21 148.13 136.33 148.98 136.31 150.05 L 136.30 151.03 C 136.28 152.09 137.13 152.98 138.20 152.99 C 139.27 153.01 140.15 152.16 140.17 151.09 Z M 140.17 150.19 L 140.23 149.09 C 140.29 148.03 139.47 147.13 138.41 147.07 C 137.35 147.01 136.44 147.82 136.39 148.88 L 136.33 149.98 C 136.27 151.04 137.08 151.95 138.14 152.00 C 139.20 152.06 140.11 151.25 140.17 150.19 Z M 140.21 149.23 L 140.33 148.34 C 140.46 147.29 139.72 146.33 138.67 146.20 C 137.62 146.06 136.65 146.80 136.52 147.85 L 136.40 148.74 C 136.27 149.80 137.01 150.76 138.06 150.89 C 139.11 151.03 140.08 150.28 140.21 149.23 Z M 140.30 148.47 L 140.49 147.49 C 140.70 146.45 140.02 145.45 138.98 145.24 C 137.95 145.04 136.94 145.72 136.73 146.75 L 136.54 147.73 C 136.34 148.77 137.01 149.77 138.05 149.98 C 139.09 150.18 140.10 149.51 140.30 148.47 Z M 140.48 147.55 L 140.71 146.58 C 140.94 145.55 140.30 144.52 139.27 144.28 C 138.24 144.04 137.21 144.69 136.97 145.72 L 136.75 146.69 C 136.51 147.72 137.15 148.75 138.18 148.99 C 139.22 149.23 140.24 148.58 140.48 147.55 Z M 140.70 146.61 L 140.94 145.63 C 141.20 144.61 140.57 143.57 139.55 143.31 C 138.52 143.05 137.48 143.68 137.22 144.71 L 136.98 145.69 C 136.72 146.71 137.35 147.75 138.38 148.01 C 139.40 148.27 140.44 147.64 140.70 146.61 Z M 140.94 145.68 L 141.20 144.72 C 141.48 143.69 140.87 142.64 139.85 142.36 C 138.83 142.08 137.77 142.68 137.49 143.71 L 137.23 144.66 C 136.95 145.69 137.55 146.74 138.58 147.02 C 139.60 147.30 140.66 146.70 140.94 145.68 Z M 141.18 144.79 L 141.48 143.83 C 141.80 142.82 141.24 141.73 140.22 141.42 C 139.21 141.10 138.13 141.66 137.81 142.68 L 137.51 143.63 C 137.19 144.65 137.75 145.73 138.77 146.05 C 139.78 146.37 140.86 145.81 141.18 144.79 Z M 141.46 143.92 L 141.80 142.99 C 142.17 141.99 141.66 140.87 140.66 140.50 C 139.66 140.13 138.55 140.65 138.18 141.65 L 137.83 142.58 C 137.46 143.59 137.97 144.70 138.98 145.07 C 139.98 145.44 141.09 144.93 141.46 143.92 Z M 141.78 143.08 L 142.17 142.16 C 142.58 141.17 142.12 140.03 141.14 139.62 C 140.15 139.20 139.01 139.66 138.59 140.64 L 138.20 141.56 C 137.79 142.55 138.25 143.69 139.23 144.10 C 140.22 144.52 141.36 144.06 141.78 143.08 Z M 142.14 142.24 L 142.56 141.34 C 143.02 140.37 142.61 139.21 141.64 138.75 C 140.67 138.29 139.51 138.70 139.05 139.67 L 138.62 140.57 C 138.16 141.54 138.57 142.70 139.54 143.16 C 140.51 143.62 141.67 143.21 142.14 142.24 Z M 142.54 141.41 L 143.00 140.50 C 143.50 139.55 143.13 138.37 142.17 137.87 C 141.21 137.38 140.04 137.75 139.54 138.71 L 139.07 139.61 C 138.58 140.57 138.95 141.74 139.91 142.24 C 140.86 142.74 142.04 142.36 142.54 141.41 Z M 142.98 140.56 L 143.47 139.68 C 144.00 138.73 143.66 137.54 142.72 137.01 C 141.77 136.49 140.58 136.83 140.05 137.77 L 139.56 138.65 C 139.04 139.60 139.38 140.79 140.32 141.32 C 141.26 141.84 142.46 141.50 142.98 140.56 Z M 143.44 139.75 L 143.97 138.89 C 144.53 137.96 144.24 136.75 143.31 136.19 C 142.39 135.62 141.18 135.91 140.61 136.84 L 140.09 137.70 C 139.52 138.62 139.81 139.83 140.74 140.40 C 141.67 140.97 142.87 140.67 143.44 139.75 Z M 143.91 138.99 L 144.48 138.17 C 145.10 137.28 144.88 136.05 143.98 135.43 C 143.09 134.81 141.86 135.03 141.24 135.92 L 140.67 136.74 C 140.05 137.63 140.27 138.86 141.16 139.48 C 142.06 140.11 143.29 139.88 143.91 138.99 Z M 144.40 138.29 L 145.02 137.52 C 145.70 136.67 145.56 135.42 144.71 134.74 C 143.85 134.05 142.61 134.19 141.92 135.04 L 141.31 135.81 C 140.63 136.66 140.76 137.91 141.62 138.59 C 142.47 139.28 143.72 139.14 144.40 138.29 Z M 144.93 137.63 L 145.61 136.90 C 146.35 136.09 146.31 134.83 145.50 134.09 C 144.69 133.34 143.43 133.39 142.69 134.20 L 142.01 134.93 C 141.26 135.74 141.31 137.00 142.12 137.74 C 142.93 138.49 144.18 138.44 144.93 137.63 Z M 145.51 137.01 L 146.24 136.33 C 147.04 135.58 147.09 134.31 146.34 133.51 C 145.59 132.70 144.33 132.66 143.52 133.41 L 142.79 134.09 C 141.98 134.84 141.94 136.10 142.69 136.91 C 143.44 137.71 144.70 137.76 145.51 137.01 Z M 146.14 136.42 L 146.92 135.78 C 147.77 135.09 147.90 133.83 147.20 132.97 C 146.50 132.12 145.24 131.99 144.39 132.69 L 143.62 133.32 C 142.76 134.02 142.63 135.28 143.33 136.13 C 144.03 136.99 145.29 137.11 146.14 136.42 Z M 146.85 135.84 L 147.66 135.24 C 148.54 134.58 148.73 133.33 148.07 132.44 C 147.41 131.56 146.16 131.37 145.27 132.03 L 144.46 132.63 C 143.57 133.29 143.39 134.54 144.05 135.43 C 144.70 136.32 145.96 136.50 146.85 135.84 Z M 147.59 135.29 L 148.42 134.73 C 149.33 134.11 149.57 132.87 148.95 131.95 C 148.33 131.04 147.09 130.79 146.17 131.41 L 145.34 131.97 C 144.43 132.59 144.19 133.84 144.80 134.76 C 145.42 135.67 146.67 135.91 147.59 135.29 Z M 148.32 134.80 L 149.18 134.29 C 150.13 133.72 150.44 132.49 149.88 131.54 C 149.31 130.59 148.08 130.28 147.13 130.84 L 146.27 131.35 C 145.32 131.91 145.01 133.14 145.57 134.10 C 146.13 135.05 147.36 135.36 148.32 134.80 Z M 149.06 134.35 L 149.94 133.91 C 150.93 133.41 151.32 132.20 150.82 131.21 C 150.32 130.22 149.12 129.83 148.13 130.33 L 147.25 130.78 C 146.26 131.28 145.86 132.48 146.36 133.47 C 146.86 134.46 148.07 134.85 149.06 134.35 Z M 149.85 133.95 L 150.78 133.53 C 151.79 133.08 152.24 131.89 151.79 130.88 C 151.34 129.87 150.15 129.42 149.14 129.87 L 148.21 130.29 C 147.20 130.74 146.75 131.93 147.20 132.94 C 147.66 133.95 148.84 134.40 149.85 133.95 Z M 150.73 133.56 L 151.66 133.17 C 152.68 132.75 153.17 131.58 152.75 130.56 C 152.33 129.53 151.15 129.04 150.13 129.46 L 149.20 129.85 C 148.17 130.27 147.69 131.44 148.11 132.47 C 148.53 133.49 149.70 133.98 150.73 133.56 Z M 151.58 133.20 L 152.52 132.86 C 153.56 132.48 154.10 131.33 153.72 130.29 C 153.34 129.25 152.19 128.71 151.15 129.09 L 150.21 129.44 C 149.17 129.82 148.63 130.97 149.01 132.01 C 149.39 133.05 150.54 133.58 151.58 133.20 Z M 152.39 132.90 L 153.38 132.62 C 154.44 132.31 155.05 131.20 154.74 130.13 C 154.44 129.07 153.33 128.46 152.26 128.77 L 151.28 129.05 C 150.21 129.36 149.60 130.47 149.91 131.53 C 150.22 132.60 151.33 133.21 152.39 132.90 Z M 153.20 132.66 L 154.17 132.47 C 155.25 132.26 155.96 131.21 155.75 130.12 C 155.55 129.04 154.49 128.33 153.41 128.54 L 152.44 128.72 C 151.35 128.93 150.64 129.98 150.85 131.07 C 151.06 132.16 152.11 132.87 153.20 132.66 Z M 153.97 132.50 L 154.96 132.41 C 156.06 132.30 156.87 131.33 156.77 130.23 C 156.67 129.13 155.69 128.32 154.59 128.42 L 153.60 128.51 C 152.50 128.61 151.69 129.59 151.79 130.69 C 151.90 131.79 152.87 132.60 153.97 132.50 Z M 154.81 132.41 L 155.81 132.39 C 156.91 132.37 157.79 131.46 157.77 130.35 C 157.75 129.25 156.83 128.37 155.73 128.39 L 154.73 128.41 C 153.63 128.43 152.75 129.35 152.77 130.45 C 152.79 131.56 153.71 132.44 154.81 132.41 Z M 155.76 132.39 L 156.77 132.39 C 157.87 132.40 158.77 131.50 158.77 130.40 C 158.77 129.29 157.88 128.40 156.78 128.39 L 155.77 128.39 C 154.67 128.39 153.77 129.28 153.77 130.39 C 153.76 131.49 154.66 132.39 155.76 132.39 Z M 156.71 132.39 L 157.70 132.42 C 158.80 132.45 159.72 131.58 159.76 130.48 C 159.79 129.38 158.92 128.46 157.82 128.43 L 156.83 128.40 C 155.73 128.37 154.81 129.23 154.78 130.34 C 154.74 131.44 155.61 132.36 156.71 132.39 Z M 157.55 132.41 L 158.56 132.51 C 159.66 132.63 160.64 131.83 160.75 130.73 C 160.86 129.64 160.07 128.66 158.97 128.54 L 157.97 128.44 C 156.87 128.33 155.89 129.12 155.78 130.22 C 155.66 131.31 156.46 132.29 157.55 132.41 Z M 158.27 132.46 L 159.22 132.70 C 160.28 132.98 161.37 132.34 161.64 131.27 C 161.92 130.21 161.28 129.12 160.22 128.85 L 159.27 128.60 C 158.20 128.32 157.11 128.96 156.84 130.03 C 156.56 131.09 157.20 132.18 158.27 132.46 Z M 158.89 132.59 L 159.80 133.00 C 160.80 133.45 161.98 133.01 162.43 132.01 C 162.89 131.01 162.45 129.83 161.45 129.37 L 160.54 128.96 C 159.54 128.51 158.36 128.95 157.90 129.95 C 157.45 130.95 157.89 132.13 158.89 132.59 Z M 159.64 132.92 L 160.46 133.38 C 161.41 133.93 162.63 133.59 163.17 132.64 C 163.72 131.68 163.38 130.47 162.43 129.92 L 161.61 129.46 C 160.65 128.91 159.44 129.25 158.89 130.20 C 158.35 131.16 158.68 132.37 159.64 132.92 Z M 160.25 133.24 L 161.06 133.86 C 161.94 134.52 163.19 134.34 163.85 133.46 C 164.51 132.59 164.33 131.34 163.45 130.68 L 162.64 130.06 C 161.76 129.40 160.51 129.58 159.85 130.46 C 159.19 131.33 159.37 132.58 160.25 133.24 Z M 160.83 133.65 L 161.54 134.39 C 162.31 135.18 163.56 135.20 164.35 134.44 C 165.15 133.68 165.17 132.42 164.41 131.63 L 163.69 130.89 C 162.93 130.10 161.67 130.07 160.88 130.84 C 160.09 131.60 160.06 132.86 160.83 133.65 Z M 161.42 134.24 L 162.06 135.06 C 162.74 135.92 163.99 136.06 164.85 135.38 C 165.71 134.70 165.86 133.45 165.18 132.59 L 164.53 131.78 C 163.85 130.92 162.60 130.77 161.74 131.45 C 160.88 132.13 160.73 133.38 161.42 134.24 Z M 161.97 134.94 L 162.55 135.79 C 163.16 136.70 164.40 136.93 165.31 136.32 C 166.22 135.70 166.45 134.47 165.84 133.56 L 165.26 132.71 C 164.65 131.80 163.41 131.56 162.50 132.18 C 161.59 132.79 161.36 134.03 161.97 134.94 Z M 162.43 135.60 L 162.90 136.49 C 163.41 137.46 164.62 137.83 165.59 137.32 C 166.56 136.80 166.93 135.60 166.42 134.63 L 165.95 133.75 C 165.44 132.77 164.24 132.40 163.27 132.91 C 162.29 133.43 161.92 134.63 162.43 135.60 Z M 162.79 136.23 L 163.11 137.11 C 163.48 138.15 164.62 138.68 165.65 138.31 C 166.68 137.94 167.22 136.80 166.85 135.77 L 166.53 134.88 C 166.16 133.85 165.02 133.32 163.99 133.69 C 162.95 134.06 162.42 135.20 162.79 136.23 Z M 163.05 136.93 L 163.29 137.90 C 163.56 138.96 164.64 139.61 165.71 139.34 C 166.77 139.08 167.42 138.00 167.15 136.93 L 166.91 135.96 C 166.64 134.89 165.56 134.24 164.49 134.51 C 163.43 134.78 162.78 135.86 163.05 136.93 Z M 163.26 137.78 L 163.44 138.75 C 163.65 139.84 164.69 140.55 165.77 140.35 C 166.85 140.14 167.57 139.10 167.36 138.02 L 167.18 137.05 C 166.98 135.97 165.94 135.25 164.85 135.45 C 163.77 135.66 163.06 136.70 163.26 137.78 Z M 163.43 138.68 L 163.57 139.68 C 163.73 140.77 164.75 141.52 165.84 141.36 C 166.93 141.20 167.69 140.19 167.53 139.10 L 167.38 138.10 C 167.22 137.01 166.21 136.25 165.11 136.41 C 164.02 136.57 163.27 137.58 163.43 138.68 Z M 163.56 139.60 L 163.67 140.60 C 163.79 141.70 164.77 142.49 165.87 142.38 C 166.97 142.26 167.77 141.27 167.65 140.17 L 167.54 139.17 C 167.42 138.07 166.43 137.28 165.33 137.39 C 164.23 137.51 163.44 138.50 163.56 139.60 Z M 163.65 140.49 L 163.71 141.48 C 163.76 142.59 164.70 143.44 165.81 143.38 C 166.92 143.33 167.77 142.39 167.71 141.28 L 167.66 140.28 C 167.60 139.18 166.66 138.32 165.56 138.38 C 164.45 138.44 163.60 139.38 163.65 140.49 Z M 163.70 141.40 L 163.71 142.39 C 163.72 143.50 164.62 144.39 165.73 144.39 C 166.84 144.38 167.73 143.47 167.72 142.36 L 167.71 141.37 C 167.71 140.26 166.80 139.37 165.69 139.37 C 164.59 139.38 163.69 140.29 163.70 141.40 Z M 163.71 142.36 L 163.70 143.35 C 163.69 144.46 164.58 145.37 165.69 145.38 C 166.79 145.39 167.70 144.50 167.71 143.39 L 167.72 142.40 C 167.73 141.29 166.84 140.38 165.74 140.37 C 164.63 140.36 163.72 141.25 163.71 142.36 Z M 163.70 143.24 L 163.64 144.24 C 163.57 145.35 164.41 146.30 165.51 146.37 C 166.62 146.44 167.57 145.60 167.64 144.50 L 167.71 143.50 C 167.78 142.39 166.94 141.44 165.83 141.37 C 164.73 141.30 163.78 142.14 163.70 143.24 Z M 163.66 144.09 L 163.52 145.08 C 163.36 146.17 164.12 147.19 165.22 147.34 C 166.31 147.50 167.33 146.74 167.48 145.64 L 167.62 144.66 C 167.78 143.56 167.02 142.55 165.93 142.39 C 164.83 142.23 163.82 142.99 163.66 144.09 Z M 163.54 144.95 L 163.34 145.93 C 163.11 147.01 163.80 148.07 164.88 148.29 C 165.96 148.52 167.02 147.83 167.25 146.75 L 167.46 145.77 C 167.68 144.69 166.99 143.63 165.91 143.40 C 164.83 143.18 163.77 143.87 163.54 144.95 Z M 163.36 145.83 L 163.11 146.80 C 162.83 147.87 163.46 148.96 164.53 149.24 C 165.60 149.52 166.69 148.88 166.97 147.82 L 167.23 146.85 C 167.51 145.78 166.87 144.69 165.80 144.41 C 164.74 144.13 163.64 144.76 163.36 145.83 Z M 163.13 146.73 L 162.84 147.68 C 162.53 148.73 163.12 149.84 164.17 150.16 C 165.23 150.48 166.34 149.89 166.66 148.83 L 166.95 147.89 C 167.27 146.83 166.67 145.72 165.62 145.40 C 164.56 145.08 163.45 145.68 163.13 146.73 Z M 162.86 147.64 L 162.55 148.60 C 162.21 149.64 162.78 150.77 163.82 151.11 C 164.87 151.45 165.99 150.88 166.33 149.83 L 166.64 148.87 C 166.99 147.83 166.41 146.70 165.37 146.36 C 164.32 146.02 163.20 146.59 162.86 147.64 Z M 162.56 148.58 L 162.23 149.55 C 161.88 150.59 162.44 151.72 163.48 152.07 C 164.52 152.42 165.65 151.86 166.00 150.82 L 166.32 149.85 C 166.67 148.81 166.11 147.68 165.07 147.33 C 164.03 146.98 162.91 147.54 162.56 148.58 Z M 162.25 149.51 L 161.91 150.45 C 161.55 151.48 162.08 152.61 163.11 152.98 C 164.14 153.35 165.28 152.81 165.65 151.78 L 165.98 150.85 C 166.35 149.82 165.81 148.69 164.78 148.32 C 163.75 147.95 162.62 148.48 162.25 149.51 Z M 161.95 150.36 L 161.56 151.31 C 161.15 152.32 161.63 153.48 162.64 153.89 C 163.65 154.31 164.80 153.83 165.22 152.82 L 165.61 151.87 C 166.02 150.86 165.54 149.70 164.53 149.29 C 163.52 148.87 162.37 149.36 161.95 150.36 Z M 161.59 151.27 L 161.20 152.14 C 160.76 153.13 161.21 154.30 162.21 154.74 C 163.20 155.18 164.36 154.73 164.80 153.74 L 165.19 152.86 C 165.63 151.87 165.18 150.71 164.19 150.27 C 163.19 149.83 162.03 150.27 161.59 151.27 Z M 161.23 152.10 L 160.81 152.99 C 160.35 153.97 160.77 155.14 161.75 155.60 C 162.73 156.06 163.90 155.64 164.36 154.66 L 164.78 153.77 C 165.24 152.79 164.82 151.62 163.84 151.16 C 162.86 150.70 161.69 151.12 161.23 152.10 Z M 160.90 152.83 L 160.40 153.68 C 159.85 154.61 160.16 155.81 161.09 156.36 C 162.02 156.91 163.22 156.60 163.77 155.67 L 164.27 154.81 C 164.82 153.88 164.51 152.69 163.58 152.14 C 162.65 151.59 161.45 151.90 160.90 152.83 Z M 160.52 153.52 L 159.92 154.33 C 159.28 155.19 159.46 156.41 160.32 157.05 C 161.19 157.69 162.41 157.51 163.05 156.65 L 163.65 155.83 C 164.29 154.97 164.11 153.75 163.24 153.11 C 162.38 152.47 161.16 152.65 160.52 153.52 Z M 160.07 154.16 L 159.37 154.91 C 158.64 155.69 158.67 156.91 159.45 157.65 C 160.23 158.38 161.45 158.34 162.19 157.56 L 162.89 156.82 C 163.62 156.04 163.59 154.81 162.81 154.08 C 162.03 153.35 160.81 153.39 160.07 154.16 Z M 159.65 154.69 L 158.84 155.28 C 157.99 155.90 157.81 157.10 158.43 157.96 C 159.06 158.81 160.26 159.00 161.11 158.37 L 161.91 157.78 C 162.77 157.16 162.95 155.96 162.32 155.10 C 161.70 154.25 160.50 154.07 159.65 154.69 Z M 159.34 155.04 L 158.42 155.37 C 157.44 155.72 156.92 156.80 157.27 157.78 C 157.62 158.77 158.71 159.29 159.69 158.94 L 160.61 158.61 C 161.60 158.26 162.11 157.18 161.76 156.19 C 161.41 155.21 160.33 154.69 159.34 155.04 Z M 158.94 155.29 L 157.98 155.35 C 156.95 155.41 156.17 156.30 156.23 157.32 C 156.29 158.35 157.18 159.13 158.20 159.07 L 159.17 159.01 C 160.20 158.95 160.98 158.07 160.92 157.04 C 160.86 156.01 159.97 155.23 158.94 155.29 Z M 158.22 155.38 L 157.19 155.31 C 156.18 155.24 155.30 156.00 155.23 157.00 C 155.16 158.01 155.92 158.89 156.93 158.96 L 157.96 159.04 C 158.97 159.11 159.85 158.35 159.92 157.34 C 159.99 156.33 159.23 155.45 158.22 155.38 Z M 157.24 155.33 L 157.00 155.31 C 156.01 155.21 155.12 155.93 155.02 156.93 C 154.91 157.92 155.64 158.81 156.64 158.92 L 156.87 158.94 C 157.87 159.04 158.76 158.31 158.86 157.32 C 158.96 156.32 158.24 155.43 157.24 155.33 Z"
      fill="black"
      fill-rule="nonzero" /><path d="M 138.81 148.27 L 139.77 148.54 C 140.87 148.84 142.00 148.20 142.30 147.10 C 142.60 146.01 141.96 144.87 140.86 144.57 L 139.90 144.31 C 138.80 144.01 137.67 144.65 137.37 145.75 C 137.07 146.84 137.71 147.97 138.81 148.27 Z M 139.98 148.59 L 140.95 148.75 C 142.07 148.94 143.13 148.18 143.32 147.06 C 143.51 145.93 142.75 144.87 141.62 144.68 L 140.66 144.52 C 139.53 144.33 138.47 145.09 138.28 146.22 C 138.09 147.34 138.85 148.40 139.98 148.59 Z M 141.29 148.78 L 142.22 148.78 C 143.36 148.78 144.28 147.85 144.28 146.71 C 144.28 145.58 143.36 144.65 142.22 144.65 L 141.28 144.65 C 140.14 144.66 139.22 145.58 139.22 146.72 C 139.22 147.86 140.15 148.78 141.29 148.78 Z M 142.49 148.76 L 143.56 148.62 C 144.68 148.47 145.47 147.43 145.33 146.31 C 145.18 145.18 144.14 144.39 143.02 144.54 L 141.95 144.68 C 140.82 144.83 140.03 145.86 140.18 146.99 C 140.33 148.11 141.36 148.91 142.49 148.76 Z M 143.69 148.59 L 144.67 148.39 C 145.78 148.16 146.50 147.08 146.27 145.97 C 146.05 144.86 144.97 144.14 143.86 144.37 L 142.88 144.57 C 141.77 144.79 141.05 145.87 141.28 146.98 C 141.50 148.09 142.58 148.81 143.69 148.59 Z M 144.74 148.36 L 145.74 148.12 C 146.83 147.86 147.51 146.76 147.25 145.66 C 146.99 144.57 145.89 143.89 144.79 144.15 L 143.79 144.39 C 142.69 144.65 142.02 145.75 142.28 146.85 C 142.54 147.95 143.64 148.63 144.74 148.36 Z M 145.78 148.10 L 146.78 147.84 C 147.86 147.55 148.51 146.44 148.22 145.36 C 147.93 144.27 146.82 143.63 145.74 143.91 L 144.74 144.18 C 143.66 144.46 143.01 145.57 143.30 146.66 C 143.59 147.74 144.70 148.39 145.78 148.10 Z M 146.81 147.80 L 147.77 147.53 C 148.83 147.22 149.45 146.11 149.14 145.04 C 148.83 143.98 147.72 143.37 146.66 143.67 L 145.70 143.95 C 144.64 144.26 144.03 145.37 144.33 146.43 C 144.64 147.49 145.75 148.11 146.81 147.80 Z M 147.78 147.49 L 148.69 147.21 C 149.74 146.90 150.33 145.80 150.01 144.76 C 149.70 143.71 148.60 143.12 147.55 143.44 L 146.64 143.71 C 145.60 144.02 145.01 145.13 145.32 146.17 C 145.64 147.21 146.74 147.80 147.78 147.49 Z M 148.68 147.18 L 149.64 146.90 C 150.67 146.59 151.25 145.51 150.94 144.48 C 150.64 143.45 149.55 142.87 148.53 143.18 L 147.57 143.47 C 146.54 143.77 145.96 144.86 146.26 145.88 C 146.57 146.91 147.65 147.49 148.68 147.18 Z M 149.62 146.87 L 150.59 146.59 C 151.60 146.29 152.18 145.23 151.88 144.22 C 151.59 143.20 150.53 142.62 149.51 142.92 L 148.55 143.20 C 147.54 143.50 146.96 144.56 147.25 145.57 C 147.55 146.59 148.61 147.17 149.62 146.87 Z M 150.57 146.57 L 151.53 146.29 C 152.53 146.00 153.11 144.96 152.83 143.96 C 152.54 142.96 151.50 142.38 150.50 142.67 L 149.53 142.94 C 148.53 143.23 147.96 144.27 148.24 145.27 C 148.53 146.27 149.57 146.85 150.57 146.57 Z M 151.52 146.27 L 152.48 146.00 C 153.47 145.72 154.04 144.69 153.76 143.70 C 153.48 142.71 152.46 142.14 151.47 142.42 L 150.51 142.69 C 149.52 142.97 148.94 144.00 149.22 144.99 C 149.50 145.97 150.53 146.55 151.52 146.27 Z M 152.48 145.98 L 153.45 145.70 C 154.42 145.42 154.99 144.40 154.71 143.42 C 154.43 142.45 153.41 141.88 152.43 142.16 L 151.47 142.44 C 150.49 142.72 149.92 143.74 150.20 144.72 C 150.48 145.69 151.50 146.26 152.48 145.98 Z M 153.46 145.68 L 154.38 145.41 C 155.34 145.12 155.89 144.10 155.60 143.14 C 155.31 142.17 154.30 141.62 153.33 141.91 L 152.42 142.18 C 151.45 142.47 150.90 143.49 151.19 144.45 C 151.48 145.42 152.49 145.97 153.46 145.68 Z M 154.39 145.39 L 155.32 145.11 C 156.28 144.81 156.82 143.80 156.52 142.84 C 156.23 141.88 155.21 141.34 154.25 141.64 L 153.32 141.92 C 152.36 142.22 151.82 143.23 152.12 144.19 C 152.41 145.15 153.43 145.69 154.39 145.39 Z M 155.31 145.10 L 156.28 144.81 C 157.24 144.51 157.77 143.50 157.48 142.55 C 157.19 141.59 156.18 141.05 155.23 141.35 L 154.26 141.64 C 153.30 141.93 152.77 142.94 153.06 143.90 C 153.35 144.85 154.36 145.39 155.31 145.10 Z M 156.27 144.80 L 157.21 144.52 C 158.16 144.24 158.71 143.23 158.42 142.28 C 158.13 141.32 157.13 140.78 156.17 141.07 L 155.23 141.35 C 154.28 141.63 153.74 142.64 154.03 143.59 C 154.31 144.55 155.32 145.09 156.27 144.80 Z M 157.21 144.52 L 158.21 144.22 C 159.17 143.94 159.71 142.93 159.42 141.98 C 159.14 141.02 158.14 140.48 157.18 140.77 L 156.18 141.07 C 155.22 141.35 154.68 142.36 154.96 143.31 C 155.25 144.26 156.25 144.81 157.21 144.52 Z M 158.21 144.22 L 158.52 144.13 C 159.47 143.84 160.02 142.84 159.73 141.89 C 159.45 140.93 158.45 140.39 157.49 140.68 L 157.18 140.77 C 156.23 141.05 155.69 142.06 155.97 143.01 C 156.26 143.96 157.26 144.50 158.21 144.22 Z"
      fill="black"
      fill-rule="nonzero" /><path d="M 137.68 162.13 L 138.68 162.17 C 139.77 162.21 140.69 161.37 140.74 160.28 C 140.78 159.19 139.94 158.27 138.85 158.23 L 137.85 158.18 C 136.76 158.14 135.84 158.98 135.79 160.07 C 135.75 161.16 136.59 162.08 137.68 162.13 Z M 138.72 162.18 L 139.68 162.20 C 140.78 162.23 141.68 161.36 141.71 160.27 C 141.74 159.17 140.87 158.27 139.78 158.24 L 138.81 158.22 C 137.72 158.19 136.81 159.06 136.79 160.15 C 136.76 161.24 137.63 162.15 138.72 162.18 Z M 139.84 162.21 L 140.83 162.16 C 141.94 162.10 142.78 161.16 142.72 160.06 C 142.66 158.96 141.72 158.11 140.62 158.17 L 139.62 158.23 C 138.52 158.29 137.68 159.23 137.74 160.33 C 137.80 161.43 138.74 162.27 139.84 162.21 Z M 141.07 162.15 L 142.07 161.98 C 143.16 161.79 143.90 160.75 143.71 159.65 C 143.52 158.56 142.48 157.82 141.38 158.01 L 140.38 158.18 C 139.29 158.37 138.55 159.41 138.74 160.51 C 138.93 161.60 139.97 162.34 141.07 162.15 Z M 142.19 161.96 L 143.19 161.72 C 144.28 161.46 144.94 160.37 144.69 159.29 C 144.43 158.20 143.34 157.54 142.26 157.79 L 141.26 158.03 C 140.17 158.29 139.51 159.38 139.76 160.46 C 140.02 161.55 141.11 162.21 142.19 161.96 Z M 143.25 161.70 L 144.24 161.43 C 145.32 161.14 145.96 160.03 145.66 158.96 C 145.37 157.88 144.26 157.25 143.19 157.54 L 142.20 157.81 C 141.12 158.10 140.48 159.21 140.78 160.28 C 141.07 161.36 142.18 161.99 143.25 161.70 Z M 144.27 161.43 L 145.21 161.16 C 146.28 160.85 146.90 159.73 146.59 158.66 C 146.28 157.59 145.16 156.97 144.09 157.28 L 143.16 157.54 C 142.08 157.85 141.47 158.97 141.77 160.05 C 142.08 161.12 143.20 161.74 144.27 161.43 Z M 145.21 161.16 L 146.13 160.89 C 147.21 160.58 147.83 159.46 147.52 158.39 C 147.21 157.32 146.08 156.70 145.01 157.01 L 144.09 157.27 C 143.01 157.58 142.40 158.71 142.71 159.78 C 143.02 160.85 144.14 161.47 145.21 161.16 Z M 146.16 160.89 L 147.14 160.59 C 148.21 160.27 148.81 159.14 148.49 158.07 C 148.17 157.00 147.03 156.39 145.96 156.72 L 144.99 157.01 C 143.92 157.34 143.31 158.47 143.63 159.54 C 143.96 160.61 145.09 161.21 146.16 160.89 Z M 147.19 160.58 L 148.12 160.27 C 149.18 159.91 149.76 158.76 149.40 157.70 C 149.04 156.64 147.90 156.07 146.84 156.42 L 145.91 156.73 C 144.85 157.09 144.27 158.24 144.63 159.30 C 144.99 160.36 146.13 160.93 147.19 160.58 Z M 148.16 160.25 L 149.12 159.91 C 150.17 159.53 150.72 158.37 150.34 157.32 C 149.97 156.27 148.81 155.72 147.75 156.09 L 146.80 156.44 C 145.74 156.81 145.19 157.97 145.57 159.03 C 145.95 160.08 147.11 160.63 148.16 160.25 Z M 149.13 159.91 L 150.08 159.56 C 151.13 159.18 151.67 158.01 151.28 156.96 C 150.90 155.91 149.74 155.37 148.69 155.75 L 147.74 156.10 C 146.69 156.48 146.15 157.65 146.53 158.70 C 146.91 159.75 148.08 160.29 149.13 159.91 Z M 150.08 159.56 L 151.03 159.21 C 152.07 158.82 152.61 157.66 152.23 156.61 C 151.84 155.56 150.68 155.02 149.63 155.41 L 148.68 155.76 C 147.63 156.14 147.10 157.31 147.48 158.36 C 147.87 159.40 149.03 159.94 150.08 159.56 Z M 151.03 159.21 L 151.98 158.85 C 153.02 158.47 153.56 157.30 153.17 156.26 C 152.78 155.21 151.62 154.67 150.57 155.06 L 149.62 155.41 C 148.58 155.80 148.04 156.96 148.43 158.01 C 148.82 159.06 149.98 159.59 151.03 159.21 Z M 151.99 158.85 L 152.93 158.49 C 153.97 158.09 154.50 156.93 154.10 155.89 C 153.71 154.84 152.54 154.32 151.50 154.71 L 150.56 155.07 C 149.52 155.47 148.99 156.63 149.39 157.67 C 149.78 158.72 150.95 159.24 151.99 158.85 Z M 152.97 158.47 L 153.88 158.10 C 154.91 157.68 155.41 156.51 154.99 155.48 C 154.58 154.45 153.40 153.95 152.37 154.37 L 151.46 154.74 C 150.43 155.15 149.93 156.33 150.35 157.36 C 150.77 158.39 151.94 158.88 152.97 158.47 Z M 153.94 158.06 L 154.86 157.65 C 155.87 157.20 156.33 156.02 155.88 155.01 C 155.43 154.00 154.24 153.54 153.23 153.99 L 152.31 154.40 C 151.30 154.85 150.85 156.04 151.30 157.05 C 151.75 158.06 152.93 158.51 153.94 158.06 Z M 154.92 157.62 L 155.81 157.18 C 156.80 156.70 157.22 155.51 156.74 154.52 C 156.26 153.53 155.06 153.11 154.07 153.59 L 153.17 154.03 C 152.18 154.51 151.77 155.70 152.25 156.69 C 152.73 157.69 153.92 158.10 154.92 157.62 Z M 155.85 157.15 L 156.75 156.68 C 157.72 156.18 158.10 154.98 157.60 154.01 C 157.09 153.04 155.90 152.66 154.93 153.17 L 154.03 153.63 C 153.06 154.13 152.68 155.33 153.18 156.30 C 153.69 157.27 154.88 157.65 155.85 157.15 Z M 156.78 156.65 L 157.65 156.17 C 158.60 155.65 158.96 154.46 158.44 153.51 C 157.92 152.55 156.73 152.20 155.77 152.72 L 154.90 153.20 C 153.95 153.72 153.60 154.91 154.11 155.86 C 154.63 156.81 155.83 157.17 156.78 156.65 Z M 157.67 156.14 L 158.55 155.64 C 159.49 155.11 159.82 153.93 159.29 152.99 C 158.76 152.06 157.58 151.73 156.64 152.26 L 155.76 152.75 C 154.82 153.28 154.49 154.47 155.02 155.40 C 155.55 156.34 156.73 156.67 157.67 156.14 Z M 158.56 155.61 L 159.42 155.11 C 160.34 154.58 160.65 153.40 160.11 152.49 C 159.58 151.57 158.41 151.26 157.49 151.79 L 156.63 152.29 C 155.71 152.82 155.40 154.00 155.94 154.91 C 156.47 155.83 157.65 156.14 158.56 155.61 Z M 159.43 155.07 L 160.29 154.56 C 161.18 154.02 161.47 152.86 160.93 151.96 C 160.39 151.06 159.23 150.77 158.33 151.31 L 157.48 151.83 C 156.58 152.37 156.29 153.53 156.83 154.43 C 157.37 155.33 158.53 155.62 159.43 155.07 Z M 160.31 154.52 L 161.14 153.99 C 162.02 153.44 162.28 152.28 161.73 151.41 C 161.18 150.53 160.02 150.27 159.15 150.83 L 158.31 151.35 C 157.44 151.91 157.17 153.06 157.73 153.93 C 158.28 154.81 159.43 155.07 160.31 154.52 Z M 161.18 153.94 L 161.98 153.40 C 162.83 152.83 163.05 151.68 162.48 150.84 C 161.91 149.99 160.76 149.77 159.92 150.33 L 159.11 150.88 C 158.27 151.44 158.04 152.59 158.61 153.44 C 159.18 154.28 160.33 154.51 161.18 153.94 Z M 162.04 153.33 L 162.87 152.71 C 163.67 152.11 163.84 150.97 163.24 150.16 C 162.63 149.35 161.49 149.18 160.68 149.79 L 159.86 150.40 C 159.05 151.01 158.88 152.15 159.49 152.96 C 160.09 153.77 161.23 153.93 162.04 153.33 Z M 162.95 152.63 L 163.72 151.97 C 164.48 151.33 164.58 150.18 163.93 149.42 C 163.28 148.66 162.14 148.56 161.38 149.21 L 160.60 149.87 C 159.84 150.52 159.74 151.66 160.39 152.42 C 161.04 153.19 162.18 153.28 162.95 152.63 Z M 163.83 151.87 L 164.53 151.17 C 165.23 150.46 165.23 149.32 164.53 148.61 C 163.82 147.91 162.68 147.91 161.97 148.61 L 161.27 149.32 C 160.57 150.02 160.57 151.17 161.27 151.87 C 161.98 152.57 163.12 152.57 163.83 151.87 Z M 164.69 150.97 L 165.31 150.15 C 165.91 149.35 165.75 148.22 164.95 147.63 C 164.15 147.03 163.02 147.19 162.43 147.98 L 161.81 148.81 C 161.21 149.60 161.37 150.73 162.17 151.33 C 162.96 151.93 164.09 151.77 164.69 150.97 Z M 165.42 149.98 L 165.81 149.31 C 166.32 148.46 166.04 147.35 165.18 146.85 C 164.33 146.34 163.22 146.62 162.71 147.48 L 162.32 148.15 C 161.81 149.01 162.09 150.11 162.95 150.62 C 163.81 151.12 164.91 150.84 165.42 149.98 Z"
      fill="black"
      fill-rule="nonzero" /><path d="M 148.10 114.92 L 147.90 115.81 C 147.67 116.88 148.34 117.93 149.41 118.16 C 150.47 118.39 151.52 117.72 151.75 116.66 L 151.95 115.76 C 152.18 114.70 151.51 113.65 150.45 113.41 C 149.38 113.18 148.33 113.85 148.10 114.92 Z M 147.82 116.02 L 147.71 117.08 C 147.59 118.19 148.39 119.18 149.50 119.30 C 150.61 119.42 151.61 118.62 151.73 117.51 L 151.84 116.45 C 151.96 115.34 151.15 114.34 150.04 114.22 C 148.93 114.11 147.94 114.91 147.82 116.02 Z M 147.67 117.28 L 147.66 118.24 C 147.66 119.38 148.57 120.30 149.70 120.30 C 150.83 120.31 151.75 119.40 151.76 118.27 L 151.76 117.30 C 151.77 116.17 150.86 115.25 149.73 115.24 C 148.59 115.24 147.67 116.15 147.67 117.28 Z M 147.66 118.36 L 147.71 119.40 C 147.77 120.53 148.74 121.40 149.87 121.35 C 151.00 121.29 151.88 120.32 151.82 119.19 L 151.76 118.15 C 151.71 117.02 150.74 116.14 149.60 116.20 C 148.47 116.26 147.60 117.23 147.66 118.36 Z M 147.71 119.50 L 147.81 120.52 C 147.93 121.65 148.93 122.48 150.07 122.36 C 151.20 122.25 152.03 121.24 151.92 120.11 L 151.82 119.09 C 151.70 117.96 150.70 117.13 149.56 117.24 C 148.43 117.35 147.60 118.36 147.71 119.50 Z M 147.82 120.60 L 147.96 121.58 C 148.11 122.71 149.16 123.49 150.29 123.34 C 151.42 123.18 152.20 122.14 152.05 121.01 L 151.91 120.03 C 151.75 118.90 150.71 118.11 149.58 118.27 C 148.45 118.43 147.66 119.47 147.82 120.60 Z M 147.96 121.62 L 148.12 122.61 C 148.30 123.73 149.36 124.50 150.49 124.32 C 151.62 124.14 152.38 123.08 152.20 121.95 L 152.04 120.96 C 151.86 119.84 150.80 119.07 149.67 119.25 C 148.55 119.43 147.78 120.49 147.96 121.62 Z M 148.12 122.61 L 148.27 123.54 C 148.45 124.67 149.51 125.43 150.64 125.25 C 151.77 125.07 152.54 124.00 152.35 122.87 L 152.20 121.95 C 152.02 120.82 150.96 120.05 149.83 120.24 C 148.70 120.42 147.93 121.48 148.12 122.61 Z M 148.27 123.53 L 148.42 124.51 C 148.60 125.64 149.66 126.41 150.79 126.23 C 151.92 126.05 152.69 124.99 152.51 123.86 L 152.36 122.88 C 152.18 121.75 151.12 120.98 149.99 121.16 C 148.86 121.34 148.09 122.40 148.27 123.53 Z M 148.42 124.51 L 148.58 125.56 C 148.76 126.69 149.82 127.46 150.95 127.29 C 152.08 127.11 152.85 126.05 152.68 124.92 L 152.51 123.87 C 152.34 122.74 151.28 121.96 150.15 122.14 C 149.02 122.32 148.24 123.37 148.42 124.51 Z M 148.58 125.55 L 148.72 126.51 C 148.89 127.64 149.95 128.42 151.09 128.25 C 152.22 128.07 153.00 127.02 152.83 125.88 L 152.68 124.93 C 152.51 123.80 151.45 123.02 150.32 123.19 C 149.19 123.36 148.41 124.42 148.58 125.55 Z M 148.72 126.50 L 148.87 127.49 C 149.04 128.62 150.09 129.41 151.23 129.24 C 152.36 129.07 153.14 128.01 152.98 126.88 L 152.83 125.89 C 152.66 124.75 151.60 123.97 150.47 124.14 C 149.33 124.31 148.55 125.37 148.72 126.50 Z M 148.87 127.49 L 149.02 128.50 C 149.18 129.63 150.24 130.42 151.38 130.25 C 152.51 130.08 153.30 129.03 153.13 127.89 L 152.98 126.88 C 152.81 125.74 151.75 124.96 150.62 125.13 C 149.48 125.30 148.70 126.35 148.87 127.49 Z M 149.01 128.50 L 149.16 129.50 C 149.33 130.63 150.39 131.42 151.52 131.25 C 152.66 131.09 153.44 130.03 153.28 128.89 L 153.13 127.89 C 152.96 126.76 151.90 125.97 150.77 126.14 C 149.63 126.30 148.85 127.36 149.01 128.50 Z M 149.16 129.50 L 149.30 130.48 C 149.47 131.61 150.53 132.40 151.66 132.23 C 152.80 132.07 153.59 131.01 153.42 129.87 L 153.28 128.89 C 153.11 127.76 152.05 126.97 150.92 127.14 C 149.78 127.30 148.99 128.36 149.16 129.50 Z M 149.30 130.47 L 149.44 131.46 C 149.61 132.60 150.66 133.39 151.80 133.22 C 152.94 133.06 153.73 132.01 153.56 130.87 L 153.42 129.88 C 153.26 128.74 152.21 127.95 151.07 128.11 C 149.93 128.28 149.14 129.33 149.30 130.47 Z M 149.44 131.45 L 149.58 132.45 C 149.74 133.59 150.79 134.39 151.93 134.23 C 153.07 134.07 153.86 133.02 153.71 131.88 L 153.57 130.88 C 153.41 129.74 152.36 128.94 151.22 129.10 C 150.08 129.26 149.28 130.31 149.44 131.45 Z M 149.57 132.44 L 149.70 133.42 C 149.85 134.56 150.90 135.37 152.04 135.22 C 153.19 135.07 153.99 134.02 153.84 132.88 L 153.71 131.89 C 153.56 130.75 152.51 129.95 151.37 130.10 C 150.23 130.25 149.42 131.30 149.57 132.44 Z M 149.69 133.41 L 149.82 134.40 C 149.96 135.54 151.01 136.36 152.16 136.21 C 153.31 136.07 154.12 135.02 153.97 133.87 L 153.85 132.89 C 153.71 131.74 152.66 130.92 151.51 131.07 C 150.36 131.21 149.55 132.26 149.69 133.41 Z M 149.81 134.39 L 149.93 135.39 C 150.07 136.54 151.12 137.36 152.27 137.22 C 153.43 137.08 154.25 136.03 154.11 134.88 L 153.98 133.88 C 153.84 132.73 152.79 131.90 151.64 132.05 C 150.49 132.19 149.67 133.24 149.81 134.39 Z M 149.92 135.39 L 150.04 136.39 C 150.18 137.55 151.23 138.38 152.39 138.24 C 153.55 138.10 154.38 137.05 154.24 135.89 L 154.12 134.88 C 153.98 133.72 152.92 132.89 151.77 133.03 C 150.61 133.17 149.78 134.23 149.92 135.39 Z M 150.03 136.39 L 150.15 137.37 C 150.29 138.54 151.34 139.37 152.51 139.23 C 153.67 139.09 154.51 138.04 154.37 136.87 L 154.25 135.89 C 154.11 134.72 153.05 133.89 151.89 134.03 C 150.72 134.17 149.89 135.23 150.03 136.39 Z M 150.13 137.37 L 150.25 138.36 C 150.39 139.53 151.45 140.37 152.62 140.23 C 153.79 140.10 154.63 139.03 154.50 137.86 L 154.38 136.87 C 154.24 135.70 153.18 134.86 152.01 135.00 C 150.83 135.14 149.99 136.20 150.13 137.37 Z M 150.23 138.35 L 150.35 139.35 C 150.48 140.53 151.55 141.38 152.73 141.25 C 153.91 141.11 154.76 140.04 154.62 138.86 L 154.51 137.87 C 154.38 136.69 153.31 135.84 152.13 135.97 C 150.95 136.11 150.10 137.17 150.23 138.35 Z M 150.33 139.34 L 150.44 140.35 C 150.57 141.54 151.64 142.39 152.83 142.26 C 154.02 142.13 154.88 141.07 154.75 139.88 L 154.64 138.87 C 154.51 137.68 153.44 136.83 152.25 136.96 C 151.06 137.08 150.20 138.15 150.33 139.34 Z M 150.44 140.34 L 150.54 141.32 C 150.66 142.51 151.73 143.38 152.92 143.26 C 154.11 143.13 154.98 142.06 154.86 140.87 L 154.76 139.89 C 154.63 138.70 153.57 137.83 152.37 137.95 C 151.18 138.08 150.31 139.14 150.44 140.34 Z M 150.53 141.31 L 150.63 142.30 C 150.75 143.49 151.81 144.37 153.01 144.25 C 154.20 144.13 155.08 143.07 154.96 141.87 L 154.86 140.88 C 154.74 139.69 153.68 138.81 152.48 138.93 C 151.29 139.05 150.42 140.11 150.53 141.31 Z M 150.63 142.29 L 150.72 143.29 C 150.84 144.49 151.90 145.37 153.09 145.25 C 154.29 145.14 155.17 144.08 155.05 142.88 L 154.96 141.88 C 154.85 140.69 153.79 139.81 152.59 139.92 C 151.40 140.03 150.52 141.09 150.63 142.29 Z M 150.72 143.28 L 150.81 144.29 C 150.92 145.49 151.98 146.37 153.17 146.26 C 154.37 146.16 155.26 145.10 155.15 143.90 L 155.06 142.89 C 154.95 141.70 153.89 140.81 152.69 140.92 C 151.50 141.03 150.61 142.09 150.72 143.28 Z M 150.81 144.28 L 150.89 145.26 C 150.99 146.46 152.05 147.35 153.25 147.25 C 154.45 147.14 155.34 146.09 155.24 144.89 L 155.15 143.91 C 155.05 142.71 153.99 141.82 152.79 141.92 C 151.59 142.03 150.70 143.08 150.81 144.28 Z M 150.88 145.25 L 150.97 146.24 C 151.06 147.44 152.12 148.34 153.33 148.24 C 154.53 148.14 155.42 147.08 155.33 145.88 L 155.24 144.89 C 155.14 143.69 154.09 142.79 152.88 142.89 C 151.68 142.99 150.78 144.05 150.88 145.25 Z M 150.96 146.23 L 151.04 147.23 C 151.13 148.44 152.19 149.34 153.39 149.25 C 154.60 149.15 155.50 148.10 155.41 146.89 L 155.33 145.89 C 155.24 144.68 154.18 143.78 152.97 143.87 C 151.77 143.97 150.86 145.02 150.96 146.23 Z M 151.03 147.22 L 151.10 148.23 C 151.19 149.45 152.25 150.36 153.46 150.27 C 154.67 150.18 155.58 149.13 155.49 147.91 L 155.42 146.90 C 155.33 145.69 154.28 144.78 153.06 144.86 C 151.85 144.95 150.94 146.01 151.03 147.22 Z M 151.10 148.22 L 151.16 149.23 C 151.25 150.45 152.30 151.37 153.51 151.29 C 154.73 151.20 155.65 150.15 155.57 148.94 L 155.50 147.93 C 155.42 146.71 154.36 145.79 153.15 145.87 C 151.93 145.96 151.01 147.01 151.10 148.22 Z M 151.16 149.22 L 151.22 150.24 C 151.30 151.45 152.35 152.38 153.57 152.31 C 154.79 152.23 155.71 151.18 155.64 149.96 L 155.57 148.95 C 155.50 147.73 154.45 146.80 153.23 146.88 C 152.01 146.95 151.08 148.00 151.16 149.22 Z M 151.21 150.22 L 151.27 151.23 C 151.34 152.46 152.39 153.39 153.61 153.32 C 154.84 153.25 155.77 152.20 155.70 150.98 L 155.64 149.97 C 155.57 148.75 154.52 147.81 153.30 147.88 C 152.08 147.95 151.14 149.00 151.21 150.22 Z M 151.27 151.22 L 151.32 152.21 C 151.38 153.44 152.43 154.38 153.66 154.32 C 154.88 154.25 155.82 153.21 155.76 151.98 L 155.71 150.99 C 155.64 149.76 154.60 148.82 153.37 148.89 C 152.14 148.95 151.20 150.00 151.27 151.22 Z M 151.31 152.20 L 151.36 153.20 C 151.42 154.43 152.46 155.38 153.69 155.33 C 154.92 155.27 155.87 154.22 155.81 152.99 L 155.77 151.99 C 155.71 150.76 154.66 149.81 153.43 149.87 C 152.20 149.93 151.25 150.97 151.31 152.20 Z M 151.35 153.19 L 151.40 154.23 C 151.45 155.46 152.49 156.42 153.72 156.37 C 154.95 156.32 155.91 155.27 155.86 154.04 L 155.82 153.01 C 155.77 151.77 154.73 150.82 153.49 150.87 C 152.26 150.92 151.30 151.96 151.35 153.19 Z M 151.39 154.21 L 151.43 155.21 C 151.47 156.45 152.51 157.41 153.74 157.37 C 154.98 157.32 155.95 156.28 155.90 155.05 L 155.87 154.05 C 155.82 152.82 154.79 151.85 153.55 151.89 C 152.31 151.94 151.35 152.98 151.39 154.21 Z M 151.42 155.20 L 151.45 156.16 C 151.49 157.40 152.52 158.38 153.76 158.34 C 155.00 158.30 155.98 157.27 155.94 156.03 L 155.91 155.06 C 155.87 153.82 154.83 152.84 153.60 152.88 C 152.36 152.92 151.38 153.96 151.42 155.20 Z M 151.45 156.16 L 151.47 157.14 C 151.51 158.39 152.54 159.36 153.78 159.33 C 155.02 159.30 156.00 158.26 155.97 157.02 L 155.94 156.03 C 155.91 154.79 154.87 153.81 153.63 153.85 C 152.39 153.88 151.41 154.91 151.45 156.16 Z M 151.48 157.14 L 151.50 158.15 C 151.53 159.39 152.56 160.37 153.80 160.34 C 155.04 160.31 156.02 159.28 155.99 158.04 L 155.97 157.03 C 155.94 155.79 154.91 154.81 153.67 154.84 C 152.43 154.87 151.45 155.90 151.48 157.14 Z M 151.51 158.14 L 151.53 159.13 C 151.55 160.37 152.57 161.35 153.81 161.33 C 155.04 161.31 156.03 160.28 156.00 159.05 L 155.98 158.05 C 155.96 156.82 154.94 155.83 153.70 155.86 C 152.47 155.88 151.48 156.90 151.51 158.14 Z M 151.53 159.12 L 151.55 160.10 C 151.56 161.34 152.58 162.32 153.81 162.30 C 155.04 162.29 156.03 161.27 156.01 160.04 L 156.00 159.06 C 155.98 157.83 154.97 156.84 153.73 156.86 C 152.50 156.88 151.52 157.89 151.53 159.12 Z M 151.55 160.09 L 151.56 161.11 C 151.57 162.33 152.58 163.32 153.80 163.31 C 155.03 163.30 156.02 162.30 156.01 161.07 L 156.00 160.05 C 155.99 158.83 154.99 157.84 153.76 157.85 C 152.53 157.86 151.54 158.86 151.55 160.09 Z M 151.57 161.10 L 151.57 162.10 C 151.58 163.32 152.57 164.31 153.80 164.31 C 155.02 164.30 156.01 163.31 156.01 162.08 L 156.00 161.08 C 156.00 159.86 155.00 158.87 153.78 158.87 C 152.55 158.88 151.57 159.87 151.57 161.10 Z M 151.58 162.09 L 151.58 163.08 C 151.58 164.30 152.57 165.29 153.79 165.29 C 155.01 165.29 156.00 164.30 156.00 163.08 L 156.00 162.09 C 156.00 160.87 155.01 159.88 153.79 159.88 C 152.57 159.88 151.58 160.87 151.58 162.09 Z M 151.59 163.08 L 151.59 164.09 C 151.59 165.30 152.58 166.28 153.79 166.28 C 155.01 166.28 155.99 165.30 155.99 164.09 L 155.99 163.08 C 155.99 161.87 155.01 160.88 153.79 160.88 C 152.58 160.88 151.59 161.87 151.59 163.08 Z M 151.61 164.09 L 151.61 165.10 C 151.61 166.30 152.59 167.28 153.79 167.28 C 154.99 167.28 155.97 166.30 155.97 165.10 L 155.97 164.09 C 155.97 162.88 154.99 161.91 153.79 161.91 C 152.59 161.91 151.61 162.88 151.61 164.09 Z M 151.64 165.10 L 151.64 166.09 C 151.64 167.28 152.60 168.25 153.79 168.25 C 154.98 168.25 155.95 167.28 155.95 166.09 L 155.95 165.10 C 155.95 163.91 154.98 162.94 153.79 162.94 C 152.60 162.94 151.64 163.91 151.64 165.10 Z M 151.66 166.09 L 151.66 167.08 C 151.66 168.26 152.61 169.21 153.79 169.21 C 154.97 169.21 155.92 168.26 155.92 167.08 L 155.92 166.09 C 155.92 164.91 154.97 163.96 153.79 163.96 C 152.61 163.96 151.66 164.91 151.66 166.09 Z M 151.68 167.08 L 151.68 168.08 C 151.68 169.25 152.62 170.19 153.79 170.19 C 154.96 170.19 155.90 169.25 155.90 168.08 L 155.90 167.08 C 155.90 165.91 154.96 164.97 153.79 164.97 C 152.62 164.97 151.68 165.91 151.68 167.08 Z M 151.70 168.08 L 151.70 169.07 C 151.70 170.23 152.64 171.16 153.79 171.16 C 154.95 171.16 155.88 170.23 155.88 169.07 L 155.88 168.08 C 155.88 166.93 154.95 165.99 153.79 165.99 C 152.64 165.99 151.70 166.93 151.70 168.08 Z M 151.72 169.07 L 151.72 170.08 C 151.72 171.23 152.65 172.16 153.79 172.16 C 154.94 172.16 155.87 171.23 155.87 170.08 L 155.87 169.07 C 155.87 167.93 154.94 167.00 153.79 167.00 C 152.65 167.00 151.72 167.93 151.72 169.07 Z M 151.73 170.08 L 151.73 171.12 C 151.73 172.26 152.65 173.18 153.79 173.18 C 154.93 173.18 155.86 172.26 155.86 171.12 L 155.86 170.08 C 155.86 168.94 154.93 168.02 153.79 168.02 C 152.65 168.02 151.73 168.94 151.73 170.08 Z M 151.73 171.12 L 151.73 172.11 C 151.73 173.25 152.65 174.17 153.79 174.17 C 154.93 174.17 155.85 173.25 155.85 172.11 L 155.85 171.12 C 155.85 169.98 154.93 169.05 153.79 169.05 C 152.65 169.05 151.73 169.98 151.73 171.12 Z M 151.73 172.11 L 151.73 173.13 C 151.73 174.26 152.65 175.19 153.79 175.19 C 154.93 175.19 155.85 174.26 155.85 173.13 L 155.85 172.11 C 155.85 170.97 154.93 170.05 153.79 170.05 C 152.65 170.05 151.73 170.97 151.73 172.11 Z M 151.74 173.13 L 151.74 174.13 C 151.74 175.27 152.66 176.19 153.79 176.19 C 154.93 176.19 155.85 175.27 155.85 174.13 L 155.85 173.13 C 155.85 171.99 154.93 171.07 153.79 171.07 C 152.66 171.07 151.74 171.99 151.74 173.13 Z M 151.74 174.13 L 151.74 175.08 C 151.74 176.22 152.66 177.13 153.79 177.13 C 154.92 177.13 155.84 176.22 155.84 175.08 L 155.84 174.13 C 155.84 173.00 154.92 172.08 153.79 172.08 C 152.66 172.08 151.74 173.00 151.74 174.13 Z M 151.75 175.08 L 151.75 176.10 C 151.75 177.23 152.66 178.14 153.79 178.14 C 154.92 178.14 155.84 177.23 155.84 176.10 L 155.84 175.08 C 155.84 173.95 154.92 173.04 153.79 173.04 C 152.66 173.04 151.75 173.95 151.75 175.08 Z M 151.75 176.10 L 151.75 177.05 C 151.75 178.18 152.67 179.09 153.79 179.09 C 154.92 179.09 155.83 178.18 155.83 177.05 L 155.83 176.10 C 155.83 174.97 154.92 174.06 153.79 174.06 C 152.67 174.06 151.75 174.97 151.75 176.10 Z M 151.76 177.05 L 151.76 178.02 C 151.76 179.14 152.67 180.05 153.79 180.05 C 154.91 180.05 155.82 179.14 155.82 178.02 L 155.82 177.05 C 155.82 175.93 154.91 175.02 153.79 175.02 C 152.67 175.02 151.76 175.93 151.76 177.05 Z M 151.77 178.02 L 151.77 179.04 C 151.77 180.16 152.67 181.07 153.79 181.07 C 154.91 181.07 155.81 180.16 155.81 179.04 L 155.81 178.02 C 155.81 176.90 154.91 175.99 153.79 175.99 C 152.67 175.99 151.77 176.90 151.77 178.02 Z M 151.78 179.04 L 151.78 180.05 C 151.78 181.17 152.68 182.07 153.79 182.07 C 154.90 182.07 155.81 181.17 155.81 180.05 L 155.81 179.04 C 155.81 177.93 154.90 177.03 153.79 177.03 C 152.68 177.03 151.78 177.93 151.78 179.04 Z M 151.79 180.05 L 151.79 181.07 C 151.79 182.18 152.68 183.08 153.79 183.08 C 154.90 183.08 155.80 182.18 155.80 181.07 L 155.80 180.05 C 155.80 178.95 154.90 178.05 153.79 178.05 C 152.68 178.05 151.79 178.95 151.79 180.05 Z M 151.80 181.06 L 151.79 182.11 C 151.79 183.21 152.68 184.10 153.78 184.11 C 154.88 184.11 155.77 183.23 155.78 182.13 L 155.78 181.08 C 155.79 179.98 154.90 179.08 153.80 179.08 C 152.70 179.07 151.80 179.96 151.80 181.06 Z M 151.81 182.04 L 151.77 183.00 C 151.73 184.09 152.58 185.01 153.67 185.06 C 154.76 185.10 155.68 184.25 155.72 183.16 L 155.76 182.19 C 155.80 181.10 154.95 180.18 153.86 180.14 C 152.77 180.10 151.85 180.95 151.81 182.04 Z M 151.80 182.82 L 151.65 183.94 C 151.51 185.01 152.26 186.00 153.34 186.15 C 154.41 186.29 155.40 185.54 155.55 184.46 L 155.70 183.34 C 155.84 182.26 155.09 181.27 154.01 181.13 C 152.93 180.99 151.94 181.74 151.80 182.82 Z M 151.96 183.13 L 151.54 183.77 C 150.95 184.68 151.20 185.89 152.11 186.48 C 153.02 187.07 154.23 186.82 154.82 185.91 L 155.24 185.27 C 155.83 184.36 155.57 183.15 154.67 182.56 C 153.76 181.97 152.55 182.22 151.96 183.13 Z M 154.09 183.12 L 153.26 182.68 C 152.30 182.18 151.13 182.55 150.63 183.50 C 150.13 184.45 150.49 185.63 151.44 186.13 L 152.27 186.56 C 153.23 187.06 154.40 186.70 154.90 185.75 C 155.40 184.80 155.04 183.62 154.09 183.12 Z M 153.90 183.28 L 153.31 182.47 C 152.69 181.61 151.49 181.42 150.64 182.05 C 149.78 182.67 149.59 183.87 150.21 184.73 L 150.80 185.53 C 151.42 186.39 152.62 186.58 153.48 185.96 C 154.33 185.33 154.52 184.13 153.90 183.28 Z M 153.47 182.81 L 153.04 181.87 C 152.60 180.92 151.48 180.51 150.54 180.94 C 149.59 181.38 149.18 182.50 149.62 183.44 L 150.05 184.39 C 150.49 185.33 151.61 185.74 152.55 185.31 C 153.50 184.87 153.91 183.75 153.47 182.81 Z M 153.08 182.02 L 152.76 181.14 C 152.41 180.18 151.35 179.68 150.38 180.03 C 149.41 180.37 148.91 181.44 149.26 182.41 L 149.58 183.29 C 149.93 184.25 150.99 184.75 151.96 184.40 C 152.93 184.06 153.43 182.99 153.08 182.02 Z M 152.78 181.23 L 152.47 180.26 C 152.17 179.28 151.14 178.74 150.16 179.04 C 149.19 179.34 148.64 180.37 148.95 181.35 L 149.25 182.32 C 149.55 183.30 150.58 183.84 151.56 183.54 C 152.53 183.24 153.08 182.20 152.78 181.23 Z M 152.48 180.32 L 152.20 179.30 C 151.93 178.32 150.92 177.74 149.95 178.01 C 148.97 178.28 148.39 179.29 148.66 180.27 L 148.94 181.29 C 149.21 182.26 150.22 182.84 151.19 182.57 C 152.17 182.31 152.75 181.30 152.48 180.32 Z M 152.20 179.34 L 151.95 178.34 C 151.71 177.36 150.72 176.76 149.74 177.01 C 148.76 177.25 148.16 178.24 148.41 179.22 L 148.66 180.22 C 148.90 181.20 149.89 181.80 150.87 181.55 C 151.85 181.31 152.45 180.32 152.20 179.34 Z M 151.95 178.37 L 151.73 177.41 C 151.51 176.43 150.53 175.81 149.55 176.04 C 148.57 176.26 147.96 177.24 148.19 178.22 L 148.41 179.19 C 148.63 180.17 149.61 180.78 150.59 180.56 C 151.57 180.33 152.18 179.35 151.95 178.37 Z M 151.73 177.45 L 151.52 176.42 C 151.32 175.44 150.36 174.81 149.38 175.01 C 148.40 175.22 147.77 176.17 147.97 177.15 L 148.18 178.18 C 148.39 179.16 149.34 179.79 150.33 179.59 C 151.31 179.39 151.94 178.43 151.73 177.45 Z M 151.53 176.47 L 151.36 175.52 C 151.18 174.53 150.25 173.88 149.26 174.05 C 148.28 174.23 147.62 175.17 147.80 176.15 L 147.97 177.10 C 148.14 178.09 149.08 178.74 150.06 178.57 C 151.05 178.39 151.70 177.46 151.53 176.47 Z M 151.36 175.56 L 151.22 174.61 C 151.06 173.63 150.14 172.95 149.16 173.11 C 148.17 173.26 147.50 174.18 147.65 175.16 L 147.79 176.11 C 147.95 177.09 148.87 177.77 149.85 177.62 C 150.84 177.46 151.51 176.54 151.36 175.56 Z M 151.22 174.65 L 151.08 173.66 C 150.95 172.67 150.04 171.98 149.06 172.11 C 148.07 172.25 147.38 173.15 147.51 174.14 L 147.65 175.13 C 147.78 176.12 148.69 176.81 149.68 176.67 C 150.66 176.54 151.35 175.63 151.22 174.65 Z M 151.09 173.69 L 150.97 172.70 C 150.86 171.71 149.96 171.00 148.97 171.12 C 147.98 171.23 147.28 172.13 147.39 173.12 L 147.51 174.11 C 147.62 175.10 148.52 175.80 149.51 175.69 C 150.50 175.57 151.20 174.68 151.09 173.69 Z M 150.98 172.74 L 150.88 171.74 C 150.79 170.75 149.91 170.03 148.92 170.12 C 147.93 170.21 147.20 171.09 147.30 172.08 L 147.39 173.08 C 147.48 174.07 148.36 174.80 149.35 174.70 C 150.34 174.61 151.07 173.73 150.98 172.74 Z M 150.89 171.80 L 150.82 170.80 C 150.76 169.81 149.91 169.05 148.91 169.11 C 147.92 169.18 147.17 170.03 147.23 171.02 L 147.29 172.02 C 147.35 173.02 148.21 173.77 149.20 173.71 C 150.19 173.65 150.95 172.79 150.89 171.80 Z M 150.83 170.85 L 150.79 169.85 C 150.76 168.86 149.93 168.08 148.93 168.11 C 147.94 168.14 147.16 168.98 147.19 169.97 L 147.23 170.97 C 147.26 171.97 148.09 172.75 149.09 172.71 C 150.08 172.68 150.86 171.85 150.83 170.85 Z M 150.79 169.88 L 150.78 168.88 C 150.77 167.88 149.95 167.09 148.95 167.10 C 147.96 167.12 147.16 167.94 147.18 168.93 L 147.19 169.94 C 147.21 170.93 148.02 171.73 149.02 171.71 C 150.01 171.70 150.81 170.88 150.79 169.88 Z M 150.78 168.90 L 150.78 167.90 C 150.77 166.90 149.96 166.10 148.97 166.10 C 147.97 166.11 147.17 166.92 147.17 167.91 L 147.18 168.91 C 147.18 169.91 147.99 170.71 148.99 170.71 C 149.98 170.71 150.78 169.90 150.78 168.90 Z M 150.78 167.91 L 150.78 166.91 C 150.78 165.92 149.97 165.11 148.97 165.11 C 147.98 165.11 147.17 165.92 147.17 166.91 L 147.17 167.91 C 147.17 168.90 147.98 169.71 148.97 169.71 C 149.97 169.71 150.78 168.90 150.78 167.91 Z M 150.78 166.91 L 150.78 165.92 C 150.78 164.92 149.97 164.11 148.97 164.11 C 147.98 164.11 147.17 164.92 147.17 165.92 L 147.17 166.91 C 147.17 167.91 147.98 168.72 148.97 168.72 C 149.97 168.72 150.78 167.91 150.78 166.91 Z M 150.78 165.92 L 150.78 164.90 C 150.78 163.90 149.97 163.09 148.97 163.09 C 147.98 163.09 147.17 163.90 147.17 164.90 L 147.17 165.92 C 147.17 166.92 147.98 167.72 148.97 167.72 C 149.97 167.72 150.78 166.92 150.78 165.92 Z M 150.78 164.90 L 150.78 163.89 C 150.78 162.89 149.97 162.08 148.97 162.08 C 147.97 162.08 147.16 162.89 147.16 163.89 L 147.16 164.90 C 147.16 165.90 147.97 166.71 148.97 166.71 C 149.97 166.71 150.78 165.90 150.78 164.90 Z M 150.79 163.89 L 150.79 162.88 C 150.79 161.87 149.98 161.06 148.97 161.06 C 147.97 161.06 147.16 161.87 147.16 162.88 L 147.16 163.89 C 147.16 164.89 147.97 165.70 148.97 165.70 C 149.98 165.70 150.79 164.89 150.79 163.89 Z M 150.80 162.88 L 150.80 161.89 C 150.80 160.88 149.98 160.07 148.97 160.07 C 147.97 160.07 147.15 160.88 147.15 161.89 L 147.15 162.88 C 147.15 163.88 147.97 164.70 148.97 164.70 C 149.98 164.70 150.80 163.88 150.80 162.88 Z M 150.81 161.90 L 150.81 160.96 C 150.82 159.95 150.00 159.13 148.99 159.12 C 147.98 159.12 147.15 159.93 147.15 160.94 L 147.14 161.88 C 147.14 162.89 147.95 163.72 148.96 163.72 C 149.98 163.73 150.80 162.91 150.81 161.90 Z M 150.82 161.07 L 150.88 160.03 C 150.94 159.01 150.17 158.14 149.16 158.08 C 148.14 158.01 147.27 158.79 147.21 159.80 L 147.14 160.84 C 147.08 161.85 147.85 162.73 148.87 162.79 C 149.88 162.85 150.75 162.08 150.82 161.07 Z M 150.88 160.17 L 151.02 159.19 C 151.16 158.17 150.45 157.24 149.44 157.09 C 148.42 156.95 147.48 157.66 147.34 158.68 L 147.20 159.66 C 147.06 160.67 147.77 161.61 148.79 161.75 C 149.80 161.90 150.74 161.19 150.88 160.17 Z M 151.02 159.32 L 151.23 158.33 C 151.45 157.31 150.79 156.31 149.78 156.10 C 148.76 155.88 147.76 156.54 147.55 157.55 L 147.34 158.55 C 147.12 159.56 147.78 160.56 148.79 160.78 C 149.81 160.99 150.81 160.34 151.02 159.32 Z M 151.22 158.59 L 151.62 157.47 C 151.98 156.46 151.45 155.34 150.44 154.99 C 149.42 154.63 148.31 155.16 147.95 156.17 L 147.56 157.29 C 147.20 158.30 147.73 159.41 148.74 159.77 C 149.75 160.13 150.86 159.60 151.22 158.59 Z M 148.75 158.59 L 149.04 158.76 C 150.02 159.34 151.28 159.01 151.85 158.03 C 152.42 157.05 152.10 155.80 151.12 155.22 L 150.82 155.05 C 149.85 154.48 148.59 154.80 148.02 155.78 C 147.44 156.76 147.77 158.02 148.75 158.59 Z M 147.97 156.62 L 147.77 157.72 C 147.56 158.89 148.34 160.01 149.51 160.21 C 150.68 160.42 151.79 159.64 152.00 158.48 L 152.20 157.37 C 152.41 156.20 151.63 155.09 150.46 154.88 C 149.29 154.67 148.18 155.45 147.97 156.62 Z M 148.02 156.92 L 147.50 157.75 C 146.85 158.78 147.16 160.14 148.18 160.79 C 149.21 161.44 150.57 161.13 151.22 160.11 L 151.75 159.28 C 152.40 158.25 152.09 156.89 151.06 156.24 C 150.03 155.59 148.67 155.89 148.02 156.92 Z M 147.64 157.51 L 146.99 158.31 C 146.20 159.26 146.34 160.66 147.28 161.44 C 148.23 162.23 149.63 162.09 150.42 161.14 L 151.08 160.35 C 151.86 159.40 151.73 158.00 150.78 157.21 C 149.83 156.43 148.43 156.56 147.64 157.51 Z M 147.01 158.25 L 146.35 159.01 C 145.54 159.94 145.63 161.36 146.57 162.17 C 147.50 162.99 148.92 162.89 149.73 161.96 L 150.39 161.20 C 151.21 160.27 151.11 158.85 150.17 158.04 C 149.24 157.22 147.83 157.32 147.01 158.25 Z M 146.36 158.99 L 145.69 159.74 C 144.86 160.67 144.94 162.09 145.87 162.92 C 146.80 163.74 148.22 163.66 149.05 162.74 L 149.72 161.98 C 150.55 161.06 150.47 159.63 149.54 158.80 C 148.61 157.98 147.19 158.06 146.36 158.99 Z M 145.69 159.72 L 145.02 160.46 C 144.19 161.39 144.26 162.82 145.19 163.66 C 146.12 164.49 147.55 164.42 148.38 163.49 L 149.05 162.75 C 149.88 161.82 149.81 160.39 148.88 159.56 C 147.95 158.72 146.53 158.80 145.69 159.72 Z M 145.02 160.46 L 144.35 161.20 C 143.52 162.13 143.59 163.56 144.53 164.40 C 145.46 165.24 146.89 165.16 147.72 164.23 L 148.39 163.49 C 149.22 162.56 149.15 161.13 148.22 160.29 C 147.29 159.46 145.86 159.53 145.02 160.46 Z M 144.35 161.20 L 143.70 161.92 C 142.87 162.86 142.95 164.29 143.88 165.13 C 144.82 165.96 146.25 165.88 147.09 164.95 L 147.73 164.23 C 148.57 163.29 148.49 161.86 147.55 161.02 C 146.62 160.19 145.18 160.27 144.35 161.20 Z M 143.71 161.91 L 143.02 162.67 C 142.18 163.60 142.25 165.04 143.18 165.88 C 144.11 166.72 145.55 166.65 146.39 165.72 L 147.08 164.96 C 147.92 164.03 147.85 162.60 146.92 161.75 C 145.99 160.91 144.56 160.98 143.71 161.91 Z M 143.04 162.64 L 142.33 163.41 C 141.47 164.33 141.52 165.76 142.44 166.62 C 143.36 167.48 144.80 167.43 145.65 166.51 L 146.37 165.75 C 147.22 164.83 147.18 163.39 146.26 162.53 C 145.34 161.68 143.90 161.73 143.04 162.64 Z M 142.35 163.38 L 141.65 164.12 C 140.78 165.03 140.81 166.47 141.71 167.34 C 142.62 168.21 144.06 168.18 144.93 167.27 L 145.63 166.53 C 146.50 165.63 146.47 164.19 145.57 163.32 C 144.66 162.45 143.22 162.48 142.35 163.38 Z M 141.67 164.09 L 140.97 164.80 C 140.09 165.69 140.09 167.13 140.98 168.02 C 141.88 168.90 143.32 168.90 144.20 168.00 L 144.90 167.30 C 145.79 166.40 145.78 164.96 144.89 164.08 C 144.00 163.19 142.55 163.20 141.67 164.09 Z M 141.00 164.77 L 140.29 165.46 C 139.39 166.34 139.37 167.78 140.25 168.68 C 141.13 169.58 142.57 169.60 143.47 168.72 L 144.17 168.03 C 145.07 167.16 145.09 165.72 144.22 164.82 C 143.34 163.91 141.90 163.90 141.00 164.77 Z M 140.29 165.46 L 139.61 166.13 C 138.71 167.00 138.69 168.44 139.57 169.34 C 140.45 170.24 141.89 170.26 142.79 169.38 L 143.47 168.72 C 144.37 167.84 144.38 166.40 143.51 165.50 C 142.63 164.60 141.19 164.59 140.29 165.46 Z M 139.60 166.14 L 138.88 166.85 C 137.99 167.73 137.98 169.17 138.86 170.06 C 139.74 170.95 141.18 170.96 142.07 170.08 L 142.79 169.37 C 143.69 168.49 143.70 167.05 142.82 166.16 C 141.93 165.26 140.50 165.25 139.60 166.14 Z M 138.90 166.83 L 138.18 167.53 C 137.28 168.40 137.25 169.84 138.13 170.74 C 139.00 171.64 140.44 171.67 141.34 170.79 L 142.06 170.10 C 142.96 169.22 142.98 167.78 142.11 166.88 C 141.24 165.98 139.80 165.96 138.90 166.83 Z M 138.20 167.51 L 137.47 168.20 C 136.56 169.06 136.51 170.49 137.38 171.41 C 138.24 172.32 139.68 172.36 140.59 171.50 L 141.32 170.81 C 142.23 169.95 142.27 168.52 141.41 167.60 C 140.55 166.69 139.11 166.65 138.20 167.51 Z M 137.49 168.17 L 136.77 168.84 C 135.84 169.69 135.78 171.13 136.63 172.05 C 137.48 172.98 138.91 173.04 139.84 172.19 L 140.56 171.52 C 141.49 170.68 141.55 169.24 140.70 168.31 C 139.86 167.39 138.42 167.33 137.49 168.17 Z M 136.80 168.81 L 136.04 169.48 C 135.10 170.31 135.01 171.74 135.84 172.68 C 136.66 173.63 138.10 173.72 139.04 172.89 L 139.80 172.22 C 140.74 171.39 140.84 169.96 140.01 169.02 C 139.18 168.07 137.75 167.98 136.80 168.81 Z M 136.09 169.44 L 135.33 170.08 C 134.36 170.88 134.24 172.31 135.04 173.27 C 135.84 174.24 137.27 174.36 138.24 173.56 L 139.00 172.93 C 139.96 172.12 140.09 170.69 139.28 169.73 C 138.48 168.77 137.05 168.64 136.09 169.44 Z M 135.35 170.06 L 134.57 170.70 C 133.60 171.49 133.45 172.92 134.24 173.89 C 135.04 174.86 136.46 175.01 137.43 174.21 L 138.22 173.58 C 139.19 172.78 139.33 171.35 138.54 170.38 C 137.75 169.41 136.32 169.27 135.35 170.06 Z M 134.56 170.71 L 133.79 171.34 C 132.83 172.14 132.69 173.57 133.48 174.53 C 134.28 175.50 135.71 175.63 136.67 174.84 L 137.44 174.20 C 138.40 173.41 138.54 171.98 137.75 171.02 C 136.95 170.05 135.52 169.91 134.56 170.71 Z M 133.79 171.35 L 133.02 171.98 C 132.06 172.78 131.92 174.20 132.71 175.17 C 133.51 176.13 134.93 176.27 135.90 175.47 L 136.67 174.83 C 137.63 174.04 137.77 172.62 136.98 171.65 C 136.18 170.69 134.76 170.55 133.79 171.35 Z M 133.04 171.97 L 132.27 172.59 C 131.30 173.37 131.15 174.79 131.93 175.76 C 132.71 176.73 134.13 176.89 135.10 176.10 L 135.87 175.49 C 136.84 174.70 137.00 173.28 136.22 172.31 C 135.43 171.34 134.01 171.19 133.04 171.97 Z M 132.30 172.57 L 131.52 173.19 C 130.54 173.95 130.36 175.37 131.13 176.35 C 131.90 177.33 133.31 177.50 134.29 176.73 L 135.08 176.12 C 136.06 175.35 136.23 173.94 135.46 172.96 C 134.70 171.98 133.28 171.81 132.30 172.57 Z M 131.54 173.18 L 130.73 173.80 C 129.74 174.55 129.55 175.96 130.31 176.94 C 131.06 177.93 132.47 178.12 133.46 177.37 L 134.27 176.75 C 135.25 175.99 135.44 174.58 134.69 173.60 C 133.94 172.61 132.53 172.42 131.54 173.18 Z M 130.75 173.79 L 129.94 174.40 C 128.95 175.14 128.75 176.55 129.49 177.53 C 130.24 178.52 131.64 178.72 132.63 177.98 L 133.44 177.37 C 134.43 176.63 134.63 175.22 133.88 174.24 C 133.14 173.25 131.74 173.05 130.75 173.79 Z M 129.95 174.40 L 129.16 174.99 C 128.17 175.72 127.96 177.12 128.70 178.11 C 129.43 179.10 130.83 179.31 131.82 178.57 L 132.61 177.98 C 133.60 177.24 133.81 175.85 133.07 174.86 C 132.34 173.87 130.94 173.66 129.95 174.40 Z M 129.17 174.99 L 128.34 175.60 C 127.35 176.33 127.13 177.72 127.86 178.71 C 128.59 179.70 129.98 179.91 130.97 179.19 L 131.80 178.57 C 132.79 177.85 133.01 176.45 132.28 175.46 C 131.55 174.47 130.16 174.26 129.17 174.99 Z M 128.37 175.59 L 127.57 176.15 C 126.58 176.86 126.34 178.25 127.05 179.24 C 127.76 180.24 129.15 180.47 130.15 179.76 L 130.94 179.20 C 131.94 178.49 132.17 177.10 131.46 176.11 C 130.75 175.11 129.36 174.88 128.37 175.59 Z M 127.62 176.12 L 126.79 176.68 C 125.78 177.37 125.51 178.74 126.20 179.75 C 126.88 180.77 128.25 181.03 129.27 180.35 L 130.10 179.79 C 131.11 179.11 131.38 177.73 130.69 176.72 C 130.01 175.71 128.64 175.44 127.62 176.12 Z M 126.85 176.65 L 126.02 177.18 C 124.98 177.83 124.68 179.19 125.33 180.22 C 125.98 181.25 127.34 181.56 128.37 180.91 L 129.21 180.38 C 130.24 179.73 130.54 178.37 129.89 177.34 C 129.25 176.31 127.88 176.00 126.85 176.65 Z M 126.08 177.15 L 125.20 177.66 C 124.16 178.28 123.81 179.62 124.42 180.67 C 125.03 181.72 126.38 182.07 127.43 181.45 L 128.30 180.94 C 129.35 180.33 129.70 178.98 129.09 177.93 C 128.47 176.89 127.13 176.54 126.08 177.15 Z M 125.26 177.64 L 124.40 178.12 C 123.34 178.70 122.96 180.03 123.54 181.09 C 124.12 182.14 125.45 182.53 126.51 181.95 L 127.37 181.47 C 128.43 180.89 128.81 179.56 128.23 178.51 C 127.65 177.45 126.32 177.06 125.26 177.64 Z M 124.46 178.10 L 123.63 178.52 C 122.57 179.07 122.15 180.38 122.69 181.45 C 123.24 182.52 124.55 182.94 125.62 182.39 L 126.45 181.97 C 127.52 181.42 127.94 180.11 127.39 179.04 C 126.84 177.97 125.53 177.55 124.46 178.10 Z M 123.75 178.48 L 122.78 178.92 C 121.69 179.41 121.20 180.68 121.69 181.77 C 122.17 182.86 123.45 183.35 124.54 182.86 L 125.51 182.43 C 126.60 181.94 127.09 180.66 126.60 179.57 C 126.11 178.48 124.84 178.00 123.75 178.48 Z M 122.88 178.89 L 122.02 179.22 C 120.91 179.65 120.36 180.90 120.79 182.00 C 121.22 183.11 122.47 183.66 123.57 183.23 L 124.44 182.90 C 125.54 182.47 126.09 181.22 125.66 180.11 C 125.23 179.01 123.99 178.46 122.88 178.89 Z M 122.14 179.19 L 121.16 179.51 C 120.03 179.87 119.42 181.08 119.78 182.20 C 120.14 183.32 121.35 183.94 122.47 183.58 L 123.45 183.26 C 124.58 182.90 125.19 181.69 124.83 180.57 C 124.47 179.44 123.26 178.83 122.14 179.19 Z M 121.33 179.48 L 120.27 179.72 C 119.13 179.99 118.42 181.13 118.69 182.28 C 118.96 183.42 120.10 184.12 121.24 183.86 L 122.30 183.61 C 123.44 183.34 124.15 182.20 123.88 181.06 C 123.61 179.92 122.47 179.21 121.33 179.48 Z M 120.52 179.71 L 119.44 179.83 C 118.29 179.97 117.47 181.01 117.60 182.16 C 117.74 183.31 118.78 184.13 119.93 184.00 L 121.00 183.87 C 122.15 183.74 122.98 182.70 122.84 181.55 C 122.71 180.40 121.67 179.57 120.52 179.71 Z M 119.79 179.86 L 118.85 179.81 C 117.71 179.75 116.74 180.62 116.68 181.76 C 116.63 182.90 117.50 183.87 118.64 183.93 L 119.58 183.98 C 120.71 184.03 121.68 183.16 121.74 182.02 C 121.80 180.89 120.93 179.92 119.79 179.86 Z M 119.56 180.04 L 118.71 179.65 C 117.70 179.20 116.51 179.65 116.06 180.66 C 115.60 181.68 116.06 182.86 117.07 183.32 L 117.92 183.70 C 118.93 184.15 120.12 183.70 120.57 182.69 C 121.03 181.68 120.57 180.49 119.56 180.04 Z M 119.55 180.52 L 119.07 179.69 C 118.54 178.77 117.37 178.46 116.45 178.99 C 115.53 179.52 115.21 180.69 115.74 181.61 L 116.23 182.44 C 116.76 183.36 117.93 183.68 118.85 183.15 C 119.77 182.62 120.08 181.44 119.55 180.52 Z M 119.24 180.38 L 119.10 179.44 C 118.95 178.43 118.01 177.73 117.00 177.88 C 115.99 178.03 115.29 178.97 115.44 179.99 L 115.57 180.92 C 115.72 181.93 116.66 182.63 117.68 182.48 C 118.69 182.33 119.39 181.39 119.24 180.38 Z M 119.09 179.70 L 119.08 178.66 C 119.07 177.66 118.25 176.85 117.24 176.86 C 116.23 176.87 115.42 177.69 115.44 178.70 L 115.45 179.73 C 115.46 180.74 116.28 181.55 117.29 181.54 C 118.29 181.53 119.10 180.70 119.09 179.70 Z M 119.06 178.73 L 119.07 178.29 C 119.10 177.30 118.31 176.47 117.31 176.45 C 116.31 176.42 115.49 177.21 115.46 178.21 L 115.45 178.64 C 115.43 179.64 116.22 180.46 117.22 180.49 C 118.21 180.51 119.04 179.72 119.06 178.73 Z"
      fill="black"
      fill-rule="nonzero" /><path d="M 154.53 165.53 L 155.39 165.99 C 156.32 166.49 157.48 166.14 157.97 165.22 C 158.47 164.29 158.13 163.13 157.20 162.63 L 156.33 162.17 C 155.41 161.67 154.25 162.01 153.75 162.94 C 153.25 163.87 153.60 165.03 154.53 165.53 Z M 155.34 165.97 L 156.15 166.44 C 157.07 166.96 158.24 166.65 158.76 165.73 C 159.29 164.81 158.97 163.65 158.06 163.12 L 157.25 162.65 C 156.33 162.13 155.16 162.44 154.64 163.36 C 154.11 164.27 154.43 165.44 155.34 165.97 Z M 156.10 166.41 L 156.87 166.88 C 157.77 167.44 158.95 167.17 159.50 166.27 C 160.06 165.37 159.79 164.19 158.89 163.63 L 158.12 163.15 C 157.22 162.59 156.04 162.87 155.48 163.77 C 154.92 164.67 155.20 165.85 156.10 166.41 Z M 156.83 166.87 L 157.80 167.49 C 158.69 168.07 159.88 167.82 160.45 166.93 C 161.03 166.04 160.78 164.85 159.89 164.27 L 158.92 163.65 C 158.03 163.07 156.84 163.32 156.27 164.21 C 155.69 165.10 155.94 166.29 156.83 166.87 Z M 157.78 167.49 L 158.57 168.01 C 159.46 168.60 160.65 168.35 161.24 167.46 C 161.82 166.57 161.58 165.38 160.69 164.79 L 159.90 164.28 C 159.02 163.69 157.82 163.94 157.24 164.82 C 156.65 165.71 156.90 166.91 157.78 167.49 Z M 158.57 168.02 L 159.44 168.59 C 160.33 169.17 161.53 168.92 162.12 168.02 C 162.70 167.13 162.45 165.93 161.55 165.35 L 160.69 164.78 C 159.79 164.20 158.59 164.45 158.01 165.35 C 157.43 166.24 157.68 167.44 158.57 168.02 Z M 159.46 168.61 L 160.34 169.17 C 161.25 169.74 162.45 169.47 163.02 168.56 C 163.60 167.66 163.33 166.46 162.42 165.88 L 161.54 165.32 C 160.63 164.75 159.43 165.02 158.85 165.93 C 158.28 166.84 158.55 168.04 159.46 168.61 Z M 160.38 169.21 L 161.32 169.77 C 162.25 170.32 163.45 170.01 164.00 169.09 C 164.55 168.16 164.25 166.96 163.32 166.41 L 162.38 165.85 C 161.45 165.29 160.25 165.60 159.70 166.53 C 159.15 167.45 159.45 168.65 160.38 169.21 Z M 161.38 169.82 L 162.32 170.33 C 163.28 170.86 164.48 170.50 165.00 169.54 C 165.52 168.59 165.17 167.39 164.21 166.87 L 163.26 166.35 C 162.31 165.83 161.11 166.18 160.59 167.14 C 160.07 168.10 160.42 169.30 161.38 169.82 Z M 162.37 170.38 L 163.19 170.79 C 164.17 171.29 165.37 170.89 165.87 169.91 C 166.36 168.92 165.96 167.72 164.98 167.23 L 164.16 166.82 C 163.18 166.32 161.98 166.72 161.48 167.71 C 160.99 168.69 161.39 169.89 162.37 170.38 Z M 163.22 170.83 L 164.01 171.21 C 165.02 171.69 166.22 171.26 166.70 170.26 C 167.18 169.26 166.75 168.06 165.75 167.58 L 164.95 167.19 C 163.95 166.72 162.75 167.14 162.27 168.14 C 161.79 169.15 162.21 170.35 163.22 170.83 Z M 164.06 171.25 L 164.91 171.63 C 165.94 172.08 167.14 171.62 167.59 170.60 C 168.05 169.58 167.59 168.38 166.56 167.92 L 165.71 167.54 C 164.68 167.08 163.48 167.54 163.03 168.57 C 162.57 169.59 163.03 170.79 164.06 171.25 Z M 164.97 171.67 L 165.94 172.06 C 166.98 172.48 168.17 171.98 168.60 170.94 C 169.02 169.89 168.52 168.70 167.47 168.27 L 166.51 167.88 C 165.46 167.46 164.27 167.96 163.85 169.01 C 163.42 170.05 163.93 171.24 164.97 171.67 Z M 165.96 172.08 L 166.85 172.43 C 167.91 172.84 169.10 172.32 169.51 171.26 C 169.92 170.20 169.40 169.02 168.34 168.60 L 167.45 168.26 C 166.39 167.84 165.20 168.37 164.79 169.42 C 164.38 170.48 164.90 171.67 165.96 172.08 Z M 166.85 172.43 L 167.83 172.81 C 168.88 173.22 170.08 172.70 170.49 171.64 C 170.90 170.58 170.38 169.39 169.32 168.98 L 168.35 168.60 C 167.29 168.19 166.09 168.71 165.68 169.77 C 165.27 170.83 165.79 172.02 166.85 172.43 Z M 167.81 172.81 L 168.78 173.20 C 169.83 173.62 171.03 173.10 171.46 172.05 C 171.88 170.99 171.36 169.79 170.31 169.37 L 169.34 168.98 C 168.28 168.56 167.08 169.07 166.66 170.13 C 166.23 171.19 166.75 172.39 167.81 172.81 Z M 168.74 173.19 L 169.70 173.59 C 170.75 174.03 171.96 173.54 172.41 172.49 C 172.85 171.44 172.36 170.23 171.30 169.78 L 170.34 169.38 C 169.29 168.93 168.08 169.43 167.64 170.48 C 167.19 171.53 167.69 172.74 168.74 173.19 Z M 169.66 173.57 L 170.55 173.98 C 171.60 174.44 172.82 173.98 173.29 172.93 C 173.75 171.89 173.29 170.67 172.25 170.20 L 171.35 169.80 C 170.31 169.33 169.08 169.80 168.61 170.84 C 168.15 171.88 168.61 173.11 169.66 173.57 Z M 170.52 173.96 L 171.40 174.38 C 172.43 174.86 173.67 174.42 174.15 173.39 C 174.64 172.35 174.20 171.12 173.16 170.63 L 172.28 170.22 C 171.25 169.73 170.01 170.17 169.53 171.21 C 169.04 172.24 169.48 173.47 170.52 173.96 Z M 171.37 174.37 L 172.28 174.81 C 173.31 175.31 174.55 174.88 175.05 173.86 C 175.55 172.83 175.13 171.59 174.10 171.09 L 173.19 170.64 C 172.16 170.14 170.92 170.57 170.42 171.60 C 169.92 172.63 170.35 173.87 171.37 174.37 Z M 172.25 174.79 L 173.17 175.26 C 174.19 175.78 175.44 175.38 175.96 174.36 C 176.48 173.34 176.07 172.09 175.05 171.57 L 174.13 171.10 C 173.11 170.58 171.87 170.99 171.35 172.01 C 170.83 173.02 171.23 174.27 172.25 174.79 Z M 173.11 175.23 L 173.97 175.71 C 174.97 176.26 176.23 175.90 176.79 174.90 C 177.34 173.90 176.98 172.64 175.98 172.09 L 175.12 171.61 C 174.12 171.05 172.85 171.41 172.30 172.41 C 171.74 173.41 172.11 174.67 173.11 175.23 Z M 173.86 175.64 L 174.72 176.19 C 175.68 176.81 176.96 176.53 177.58 175.57 C 178.20 174.61 177.92 173.33 176.96 172.72 L 176.10 172.16 C 175.14 171.54 173.86 171.82 173.24 172.78 C 172.62 173.74 172.90 175.02 173.86 175.64 Z M 174.58 176.08 L 175.37 176.70 C 176.27 177.39 177.57 177.23 178.26 176.33 C 178.96 175.43 178.79 174.14 177.89 173.44 L 177.10 172.83 C 176.20 172.13 174.91 172.30 174.21 173.19 C 173.52 174.09 173.68 175.39 174.58 176.08 Z M 175.29 176.62 L 175.91 177.15 C 176.76 177.89 178.06 177.80 178.80 176.94 C 179.54 176.09 179.45 174.80 178.59 174.06 L 177.98 173.52 C 177.12 172.78 175.83 172.87 175.09 173.73 C 174.35 174.58 174.44 175.87 175.29 176.62 Z"
      fill="black"
      fill-rule="nonzero" /></svg>