<svg xmlns="http://www.w3.org/2000/svg" width="300" height="300" viewBox="0 0 300 300">
<path d="M 138.03 114.64 L 138.05 113.68 C 138.08 112.66 137.27 111.82 136.25 111.79 C 135.23 111.77 134.38 112.58 134.36 113.60 L 134.34 114.56 C 134.32 115.58 135.13 116.43 136.15 116.45 C 137.17 116.47 138.01 115.66 138.03 114.64 Z M 138.08 113.89 L 138.22 112.81 C 138.36 111.78 137.63 110.83 136.60 110.69 C 135.56 110.56 134.61 111.28 134.48 112.32 L 134.33 113.40 C 134.20 114.43 134.93 115.38 135.96 115.52 C 136.99 115.65 137.94 114.92 138.08 113.89 Z M 138.19 113.22 L 138.54 112.24 C 138.90 111.22 138.37 110.10 137.35 109.74 C 136.33 109.38 135.21 109.91 134.85 110.93 L 134.51 111.91 C 134.15 112.93 134.68 114.05 135.70 114.41 C 136.71 114.77 137.83 114.24 138.19 113.22 Z M 137.10 113.58 L 137.75 113.44 C 138.85 113.22 139.56 112.15 139.34 111.05 C 139.12 109.95 138.05 109.24 136.95 109.46 L 136.29 109.59 C 135.19 109.81 134.48 110.88 134.70 111.99 C 134.93 113.09 136.00 113.80 137.10 113.58 Z M 135.68 112.73 L 136.33 113.57 C 137.04 114.49 138.35 114.67 139.27 113.96 C 140.19 113.26 140.37 111.95 139.66 111.03 L 139.01 110.18 C 138.31 109.26 136.99 109.08 136.08 109.79 C 135.16 110.49 134.98 111.81 135.68 112.73 Z M 135.98 112.97 L 136.28 113.87 C 136.65 114.99 137.85 115.59 138.97 115.22 C 140.08 114.85 140.69 113.64 140.31 112.53 L 140.02 111.63 C 139.64 110.51 138.44 109.91 137.33 110.28 C 136.21 110.65 135.61 111.86 135.98 112.97 Z M 136.20 113.60 L 136.40 114.66 C 136.62 115.82 137.74 116.58 138.90 116.36 C 140.06 116.14 140.82 115.02 140.60 113.86 L 140.39 112.80 C 140.17 111.64 139.06 110.88 137.90 111.10 C 136.74 111.32 135.98 112.44 136.20 113.60 Z M 136.37 114.56 L 136.52 115.58 C 136.68 116.76 137.77 117.57 138.95 117.41 C 140.12 117.24 140.94 116.15 140.77 114.98 L 140.62 113.96 C 140.46 112.78 139.37 111.97 138.20 112.13 C 137.02 112.30 136.21 113.39 136.37 114.56 Z M 136.50 115.53 L 136.61 116.52 C 136.74 117.70 137.82 118.55 139.00 118.42 C 140.19 118.28 141.04 117.21 140.90 116.02 L 140.79 115.03 C 140.66 113.85 139.58 113.00 138.40 113.13 C 137.21 113.27 136.36 114.34 136.50 115.53 Z M 136.59 116.45 L 136.68 117.50 C 136.77 118.69 137.82 119.58 139.02 119.48 C 140.22 119.39 141.11 118.34 141.01 117.14 L 140.92 116.09 C 140.83 114.89 139.78 114.00 138.58 114.10 C 137.38 114.20 136.49 115.25 136.59 116.45 Z M 136.66 117.40 L 136.70 118.32 C 136.74 119.53 137.76 120.47 138.96 120.42 C 140.17 120.38 141.11 119.36 141.06 118.16 L 141.02 117.23 C 140.98 116.03 139.96 115.09 138.76 115.14 C 137.55 115.18 136.62 116.20 136.66 117.40 Z M 136.69 118.26 L 136.70 119.25 C 136.71 120.46 137.70 121.43 138.91 121.42 C 140.12 121.41 141.09 120.41 141.08 119.20 L 141.07 118.22 C 141.06 117.01 140.07 116.04 138.86 116.05 C 137.65 116.06 136.68 117.05 136.69 118.26 Z M 136.69 119.23 L 136.69 120.23 C 136.69 121.45 137.68 122.43 138.89 122.43 C 140.10 122.43 141.09 121.44 141.09 120.23 L 141.09 119.23 C 141.09 118.01 140.10 117.03 138.89 117.03 C 137.67 117.03 136.69 118.01 136.69 119.23 Z M 136.68 120.23 L 136.68 121.23 C 136.68 122.45 137.67 123.44 138.89 123.44 C 140.11 123.44 141.09 122.45 141.09 121.23 L 141.09 120.23 C 141.09 119.01 140.11 118.02 138.89 118.02 C 137.67 118.02 136.68 119.01 136.68 120.23 Z M 136.68 121.23 L 136.67 122.23 C 136.67 123.45 137.66 124.44 138.88 124.45 C 140.10 124.45 141.09 123.46 141.10 122.24 L 141.10 121.24 C 141.10 120.02 140.12 119.02 138.89 119.02 C 137.67 119.02 136.68 120.00 136.68 121.23 Z M 136.67 122.16 L 136.64 123.16 C 136.59 124.38 137.55 125.41 138.77 125.45 C 140.00 125.50 141.02 124.54 141.07 123.32 L 141.10 122.31 C 141.14 121.09 140.19 120.06 138.97 120.02 C 137.74 119.98 136.72 120.93 136.67 122.16 Z M 136.64 123.00 L 136.54 123.97 C 136.41 125.19 137.29 126.28 138.51 126.41 C 139.73 126.54 140.83 125.66 140.96 124.44 L 141.06 123.47 C 141.19 122.25 140.30 121.16 139.09 121.03 C 137.87 120.90 136.77 121.78 136.64 123.00 Z M 136.56 123.82 L 136.38 124.83 C 136.17 126.04 136.98 127.19 138.19 127.40 C 139.39 127.62 140.55 126.81 140.76 125.60 L 140.94 124.59 C 141.15 123.38 140.34 122.23 139.13 122.02 C 137.92 121.81 136.77 122.61 136.56 123.82 Z M 136.40 124.73 L 136.18 125.70 C 135.91 126.90 136.67 128.09 137.86 128.36 C 139.06 128.63 140.25 127.87 140.52 126.67 L 140.74 125.70 C 141.01 124.50 140.26 123.31 139.06 123.04 C 137.86 122.77 136.67 123.53 136.40 124.73 Z M 136.19 125.64 L 135.95 126.61 C 135.64 127.81 136.36 129.02 137.56 129.32 C 138.75 129.62 139.96 128.90 140.26 127.71 L 140.51 126.73 C 140.81 125.54 140.09 124.33 138.90 124.03 C 137.71 123.72 136.50 124.45 136.19 125.64 Z M 135.96 126.57 L 135.69 127.54 C 135.36 128.73 136.05 129.95 137.24 130.28 C 138.42 130.61 139.65 129.92 139.98 128.73 L 140.25 127.76 C 140.58 126.57 139.89 125.34 138.70 125.01 C 137.51 124.69 136.29 125.38 135.96 126.57 Z M 135.71 127.47 L 135.41 128.41 C 135.04 129.58 135.69 130.83 136.87 131.20 C 138.04 131.58 139.29 130.92 139.66 129.75 L 139.96 128.81 C 140.33 127.63 139.68 126.38 138.50 126.01 C 137.33 125.64 136.08 126.29 135.71 127.47 Z M 135.44 128.32 L 135.10 129.26 C 134.68 130.42 135.28 131.69 136.44 132.11 C 137.59 132.53 138.87 131.94 139.29 130.78 L 139.63 129.84 C 140.05 128.68 139.45 127.40 138.30 126.98 C 137.14 126.56 135.86 127.16 135.44 128.32 Z M 135.12 129.20 L 134.75 130.14 C 134.30 131.28 134.87 132.58 136.02 133.03 C 137.16 133.48 138.46 132.91 138.91 131.77 L 139.27 130.83 C 139.72 129.69 139.16 128.39 138.01 127.94 C 136.86 127.49 135.57 128.06 135.12 129.20 Z M 134.76 130.11 L 134.38 131.05 C 133.92 132.19 134.47 133.49 135.61 133.95 C 136.75 134.42 138.05 133.87 138.51 132.73 L 138.90 131.79 C 139.36 130.65 138.81 129.35 137.67 128.89 C 136.53 128.42 135.23 128.97 134.76 130.11 Z M 134.40 131.00 L 134.01 131.91 C 133.52 133.04 134.03 134.35 135.16 134.84 C 136.29 135.33 137.61 134.82 138.10 133.69 L 138.49 132.78 C 138.98 131.65 138.47 130.34 137.34 129.84 C 136.21 129.35 134.90 129.87 134.40 131.00 Z M 134.05 131.83 L 133.61 132.74 C 133.08 133.85 133.54 135.18 134.65 135.71 C 135.75 136.24 137.09 135.78 137.62 134.67 L 138.06 133.76 C 138.59 132.66 138.13 131.33 137.02 130.79 C 135.91 130.26 134.58 130.72 134.05 131.83 Z M 133.66 132.66 L 133.21 133.50 C 132.63 134.58 133.04 135.92 134.12 136.50 C 135.20 137.08 136.55 136.67 137.12 135.59 L 137.57 134.75 C 138.15 133.67 137.74 132.33 136.66 131.75 C 135.58 131.17 134.24 131.58 133.66 132.66 Z M 133.27 133.40 L 132.77 134.23 C 132.14 135.27 132.48 136.63 133.53 137.27 C 134.57 137.90 135.93 137.56 136.56 136.51 L 137.06 135.69 C 137.69 134.64 137.36 133.28 136.31 132.65 C 135.26 132.02 133.90 132.36 133.27 133.40 Z M 132.85 134.13 L 132.27 134.98 C 131.58 135.99 131.84 137.36 132.85 138.04 C 133.86 138.73 135.23 138.47 135.91 137.46 L 136.49 136.61 C 137.18 135.60 136.91 134.23 135.91 133.55 C 134.90 132.86 133.53 133.12 132.85 134.13 Z M 132.34 134.90 L 131.74 135.69 C 131.01 136.65 131.20 138.02 132.16 138.76 C 133.13 139.49 134.50 139.30 135.23 138.34 L 135.83 137.55 C 136.57 136.58 136.38 135.21 135.42 134.48 C 134.45 133.74 133.08 133.93 132.34 134.90 Z M 131.86 135.57 L 131.17 136.35 C 130.37 137.25 130.46 138.62 131.36 139.42 C 132.26 140.22 133.63 140.13 134.43 139.23 L 135.12 138.46 C 135.92 137.55 135.83 136.18 134.93 135.38 C 134.03 134.58 132.66 134.67 131.86 135.57 Z M 131.36 136.18 L 130.57 136.89 C 129.69 137.68 129.61 139.05 130.41 139.93 C 131.20 140.82 132.56 140.90 133.45 140.10 L 134.24 139.40 C 135.13 138.60 135.20 137.24 134.41 136.35 C 133.61 135.46 132.25 135.39 131.36 136.18 Z M 130.84 136.72 L 130.00 137.28 C 129.02 137.93 128.76 139.25 129.41 140.22 C 130.06 141.20 131.37 141.47 132.35 140.82 L 133.19 140.27 C 134.17 139.62 134.43 138.30 133.78 137.32 C 133.13 136.34 131.81 136.08 130.84 136.72 Z M 130.34 137.14 L 129.44 137.53 C 128.39 137.99 127.90 139.22 128.36 140.28 C 128.83 141.33 130.06 141.82 131.11 141.36 L 132.01 140.96 C 133.07 140.50 133.55 139.27 133.09 138.21 C 132.63 137.16 131.40 136.67 130.34 137.14 Z M 130.07 137.42 L 129.07 137.52 C 127.96 137.64 127.14 138.63 127.26 139.75 C 127.37 140.86 128.36 141.68 129.48 141.56 L 130.48 141.46 C 131.60 141.35 132.41 140.35 132.30 139.24 C 132.19 138.12 131.19 137.31 130.07 137.42 Z M 130.35 137.91 L 129.64 137.44 C 128.74 136.85 127.52 137.10 126.93 138.00 C 126.33 138.91 126.59 140.12 127.49 140.72 L 128.20 141.18 C 129.10 141.77 130.32 141.52 130.91 140.62 C 131.51 139.71 131.25 138.50 130.35 137.91 Z M 130.30 138.30 L 129.92 137.46 C 129.49 136.50 128.36 136.07 127.41 136.51 C 126.45 136.94 126.02 138.06 126.46 139.02 L 126.84 139.86 C 127.27 140.81 128.39 141.24 129.35 140.81 C 130.30 140.38 130.73 139.25 130.30 138.30 Z M 129.98 137.79 L 129.71 136.72 C 129.46 135.73 128.46 135.13 127.47 135.37 C 126.48 135.62 125.88 136.62 126.13 137.61 L 126.40 138.68 C 126.64 139.67 127.65 140.27 128.63 140.02 C 129.62 139.78 130.22 138.78 129.98 137.79 Z M 129.69 136.78 L 129.65 136.60 C 129.44 135.62 128.47 135.00 127.49 135.21 C 126.52 135.42 125.89 136.39 126.11 137.37 L 126.15 137.55 C 126.36 138.53 127.32 139.15 128.30 138.93 C 129.28 138.72 129.90 137.76 129.69 136.78 Z"
      fill="black"
      fill-rule="nonzero" /><path d="M 137.17 126.66 L 138.19 126.66 C 139.28 126.66 140.15 125.79 140.16 124.71 C 140.16 123.63 139.28 122.75 138.20 122.75 L 137.18 122.74 C 136.10 122.74 135.22 123.62 135.22 124.70 C 135.21 125.78 136.09 126.66 137.17 126.66 Z M 138.17 126.73 L 139.16 126.75 C 140.28 126.76 141.20 125.87 141.22 124.75 C 141.24 123.63 140.34 122.71 139.22 122.69 L 138.23 122.68 C 137.11 122.66 136.19 123.56 136.17 124.67 C 136.16 125.79 137.05 126.71 138.17 126.73 Z M 139.11 126.80 L 140.11 126.84 C 141.26 126.89 142.23 126.00 142.28 124.85 C 142.32 123.70 141.43 122.73 140.28 122.68 L 139.28 122.64 C 138.13 122.59 137.16 123.48 137.11 124.63 C 137.06 125.78 137.96 126.75 139.11 126.80 Z M 140.06 126.88 L 141.05 126.94 C 142.22 127.02 143.23 126.13 143.31 124.96 C 143.38 123.79 142.50 122.79 141.33 122.71 L 140.33 122.65 C 139.16 122.57 138.15 123.46 138.08 124.62 C 138.00 125.79 138.89 126.80 140.06 126.88 Z M 141.08 126.97 L 142.05 127.02 C 143.23 127.08 144.24 126.17 144.30 124.99 C 144.36 123.81 143.45 122.80 142.27 122.74 L 141.31 122.69 C 140.12 122.62 139.11 123.53 139.05 124.71 C 138.99 125.89 139.90 126.90 141.08 126.97 Z M 142.11 127.04 L 143.09 127.06 C 144.28 127.08 145.27 126.14 145.29 124.94 C 145.32 123.75 144.37 122.76 143.18 122.73 L 142.20 122.71 C 141.01 122.69 140.02 123.64 140.00 124.83 C 139.97 126.03 140.92 127.01 142.11 127.04 Z M 143.13 127.08 L 144.16 127.08 C 145.37 127.09 146.35 126.11 146.35 124.91 C 146.35 123.70 145.38 122.72 144.17 122.72 L 143.14 122.72 C 141.93 122.71 140.95 123.69 140.95 124.89 C 140.95 126.10 141.92 127.08 143.13 127.08 Z M 144.17 127.09 L 145.19 127.09 C 146.40 127.09 147.38 126.11 147.38 124.90 C 147.38 123.69 146.40 122.71 145.19 122.71 L 144.17 122.71 C 142.95 122.71 141.98 123.69 141.98 124.90 C 141.98 126.11 142.96 127.09 144.17 127.09 Z M 145.21 127.09 L 146.22 127.08 C 147.43 127.07 148.40 126.08 148.39 124.87 C 148.38 123.66 147.39 122.69 146.18 122.70 L 145.17 122.71 C 143.96 122.72 142.99 123.71 143.00 124.92 C 143.01 126.13 144.00 127.10 145.21 127.09 Z M 146.27 127.08 L 147.29 127.05 C 148.50 127.01 149.45 126.00 149.41 124.79 C 149.37 123.58 148.36 122.63 147.15 122.67 L 146.14 122.70 C 144.93 122.74 143.98 123.75 144.01 124.96 C 144.05 126.17 145.06 127.12 146.27 127.08 Z M 147.38 127.04 L 148.36 126.97 C 149.56 126.88 150.47 125.83 150.38 124.63 C 150.29 123.42 149.24 122.52 148.03 122.60 L 147.06 122.68 C 145.85 122.77 144.95 123.81 145.04 125.02 C 145.13 126.23 146.18 127.13 147.38 127.04 Z M 148.48 126.95 L 149.42 126.83 C 150.61 126.68 151.46 125.58 151.30 124.38 C 151.15 123.19 150.05 122.34 148.86 122.50 L 147.92 122.62 C 146.72 122.77 145.87 123.87 146.03 125.07 C 146.18 126.26 147.28 127.11 148.48 126.95 Z M 149.51 126.82 L 150.50 126.64 C 151.69 126.44 152.48 125.31 152.28 124.12 C 152.07 122.93 150.94 122.14 149.75 122.34 L 148.76 122.51 C 147.57 122.72 146.78 123.85 146.99 125.04 C 147.19 126.23 148.32 127.02 149.51 126.82 Z M 150.56 126.63 L 151.54 126.43 C 152.72 126.19 153.48 125.04 153.24 123.86 C 153.00 122.68 151.85 121.92 150.68 122.16 L 149.69 122.36 C 148.51 122.60 147.75 123.75 147.99 124.93 C 148.23 126.11 149.38 126.87 150.56 126.63 Z M 151.57 126.41 L 152.56 126.20 C 153.73 125.94 154.47 124.78 154.21 123.61 C 153.96 122.44 152.80 121.70 151.63 121.96 L 150.64 122.17 C 149.47 122.43 148.73 123.59 148.99 124.76 C 149.24 125.93 150.40 126.67 151.57 126.41 Z M 152.57 126.19 L 153.56 125.96 C 154.72 125.70 155.45 124.54 155.19 123.38 C 154.93 122.21 153.77 121.48 152.61 121.74 L 151.62 121.97 C 150.45 122.23 149.72 123.39 149.98 124.55 C 150.25 125.72 151.40 126.45 152.57 126.19 Z M 153.56 125.96 L 154.53 125.73 C 155.69 125.47 156.42 124.32 156.16 123.16 C 155.89 122.00 154.74 121.27 153.58 121.53 L 152.60 121.75 C 151.44 122.02 150.72 123.17 150.98 124.33 C 151.24 125.49 152.40 126.22 153.56 125.96 Z M 154.53 125.72 L 155.50 125.50 C 156.66 125.24 157.38 124.09 157.12 122.94 C 156.85 121.78 155.70 121.06 154.55 121.32 L 153.58 121.54 C 152.43 121.81 151.71 122.96 151.97 124.11 C 152.23 125.26 153.38 125.98 154.53 125.72 Z M 155.50 125.49 L 156.47 125.26 C 157.62 125.00 158.33 123.86 158.07 122.72 C 157.81 121.57 156.67 120.86 155.53 121.12 L 154.55 121.34 C 153.41 121.60 152.69 122.74 152.95 123.88 C 153.21 125.03 154.35 125.75 155.50 125.49 Z M 156.47 125.25 L 157.45 125.02 C 158.58 124.76 159.29 123.63 159.03 122.50 C 158.77 121.36 157.64 120.65 156.51 120.91 L 155.53 121.13 C 154.40 121.39 153.69 122.52 153.94 123.66 C 154.20 124.79 155.33 125.50 156.47 125.25 Z M 157.44 125.00 L 158.42 124.78 C 159.54 124.53 160.25 123.41 159.99 122.28 C 159.74 121.16 158.62 120.45 157.49 120.71 L 156.51 120.93 C 155.39 121.18 154.68 122.30 154.94 123.43 C 155.19 124.55 156.31 125.26 157.44 125.00 Z M 158.40 124.77 L 159.38 124.55 C 160.50 124.31 161.21 123.20 160.96 122.08 C 160.72 120.97 159.61 120.26 158.50 120.51 L 157.51 120.72 C 156.39 120.97 155.69 122.07 155.93 123.19 C 156.18 124.31 157.28 125.01 158.40 124.77 Z M 159.36 124.54 L 160.34 124.33 C 161.45 124.10 162.16 123.01 161.93 121.90 C 161.70 120.79 160.61 120.08 159.50 120.31 L 158.52 120.52 C 157.41 120.75 156.70 121.84 156.93 122.95 C 157.16 124.06 158.25 124.77 159.36 124.54 Z M 160.32 124.32 L 161.26 124.13 C 162.36 123.91 163.07 122.84 162.85 121.74 C 162.63 120.64 161.56 119.92 160.46 120.14 L 159.53 120.33 C 158.43 120.55 157.71 121.62 157.93 122.72 C 158.15 123.82 159.22 124.53 160.32 124.32 Z M 161.23 124.11 L 162.19 123.93 C 163.28 123.73 164.00 122.68 163.79 121.59 C 163.59 120.49 162.54 119.77 161.44 119.98 L 160.49 120.16 C 159.40 120.36 158.68 121.42 158.88 122.51 C 159.09 123.60 160.14 124.32 161.23 124.11 Z M 162.16 123.92 L 163.17 123.74 C 164.26 123.55 164.98 122.52 164.79 121.44 C 164.60 120.35 163.57 119.63 162.49 119.82 L 161.47 120.00 C 160.39 120.19 159.67 121.22 159.86 122.30 C 160.04 123.38 161.08 124.11 162.16 123.92 Z M 163.12 123.72 L 164.13 123.57 C 165.20 123.41 165.94 122.41 165.78 121.34 C 165.62 120.26 164.61 119.52 163.54 119.69 L 162.54 119.84 C 161.46 120.00 160.73 121.00 160.89 122.07 C 161.05 123.14 162.05 123.88 163.12 123.72 Z M 164.01 123.56 L 165.02 123.46 C 166.09 123.36 166.87 122.42 166.77 121.35 C 166.67 120.29 165.73 119.50 164.66 119.60 L 163.65 119.70 C 162.59 119.80 161.80 120.74 161.90 121.81 C 162.00 122.88 162.95 123.66 164.01 123.56 Z M 164.82 123.44 L 165.87 123.45 C 166.92 123.46 167.78 122.62 167.79 121.56 C 167.80 120.51 166.96 119.65 165.90 119.64 L 164.86 119.63 C 163.81 119.61 162.94 120.46 162.93 121.51 C 162.92 122.57 163.77 123.43 164.82 123.44 Z M 165.69 123.41 L 166.65 123.51 C 167.68 123.61 168.60 122.86 168.71 121.84 C 168.82 120.81 168.07 119.89 167.04 119.78 L 166.08 119.68 C 165.05 119.58 164.13 120.32 164.02 121.35 C 163.92 122.38 164.66 123.30 165.69 123.41 Z M 166.61 123.48 L 166.86 123.51 C 167.88 123.64 168.81 122.93 168.94 121.92 C 169.07 120.90 168.36 119.98 167.34 119.84 L 167.09 119.81 C 166.07 119.68 165.15 120.39 165.01 121.40 C 164.88 122.42 165.59 123.35 166.61 123.48 Z"
      fill="black"
      fill-rule="nonzero" /><path d="M 141.15 139.83 L 141.04 140.89 C 140.93 141.93 141.70 142.87 142.74 142.98 C 143.79 143.08 144.72 142.32 144.83 141.27 L 144.94 140.22 C 145.04 139.17 144.28 138.24 143.24 138.13 C 142.19 138.02 141.26 138.79 141.15 139.83 Z M 140.96 140.88 L 140.87 141.86 C 140.76 142.95 141.55 143.92 142.64 144.03 C 143.73 144.14 144.70 143.35 144.81 142.26 L 144.91 141.28 C 145.02 140.19 144.22 139.22 143.13 139.11 C 142.05 139.00 141.07 139.79 140.96 140.88 Z M 140.81 141.86 L 140.71 142.86 C 140.60 143.98 141.42 144.98 142.54 145.09 C 143.66 145.20 144.66 144.38 144.77 143.26 L 144.86 142.26 C 144.97 141.14 144.15 140.14 143.03 140.03 C 141.92 139.92 140.92 140.74 140.81 141.86 Z M 140.70 142.86 L 140.60 143.81 C 140.49 144.94 141.32 145.95 142.45 146.06 C 143.58 146.17 144.58 145.34 144.69 144.21 L 144.78 143.26 C 144.89 142.13 144.07 141.13 142.94 141.02 C 141.81 140.91 140.81 141.73 140.70 142.86 Z M 140.60 143.80 L 140.50 144.77 C 140.39 145.89 141.20 146.90 142.33 147.02 C 143.46 147.14 144.47 146.32 144.59 145.19 L 144.69 144.23 C 144.81 143.10 143.99 142.09 142.86 141.97 C 141.73 141.85 140.72 142.67 140.60 143.80 Z M 140.50 144.78 L 140.40 145.79 C 140.29 146.92 141.12 147.93 142.25 148.04 C 143.38 148.15 144.38 147.32 144.49 146.19 L 144.59 145.18 C 144.70 144.05 143.88 143.04 142.75 142.93 C 141.62 142.82 140.61 143.65 140.50 144.78 Z M 140.40 145.82 L 140.31 146.81 C 140.22 147.94 141.06 148.93 142.20 149.03 C 143.33 149.12 144.33 148.28 144.42 147.14 L 144.50 146.16 C 144.59 145.03 143.75 144.03 142.62 143.94 C 141.48 143.85 140.49 144.69 140.40 145.82 Z M 140.31 146.79 L 140.22 147.79 C 140.12 148.92 140.95 149.93 142.08 150.03 C 143.22 150.14 144.22 149.30 144.33 148.17 L 144.42 147.16 C 144.52 146.03 143.69 145.03 142.56 144.92 C 141.42 144.82 140.42 145.65 140.31 146.79 Z M 140.22 147.75 L 140.11 148.73 C 139.98 149.86 140.80 150.88 141.93 151.01 C 143.06 151.14 144.09 150.33 144.21 149.19 L 144.33 148.21 C 144.45 147.08 143.64 146.06 142.51 145.93 C 141.37 145.80 140.35 146.61 140.22 147.75 Z M 140.11 148.73 L 139.99 149.73 C 139.86 150.87 140.68 151.89 141.81 152.02 C 142.95 152.15 143.97 151.34 144.10 150.20 L 144.22 149.20 C 144.35 148.06 143.53 147.04 142.40 146.91 C 141.26 146.78 140.24 147.59 140.11 148.73 Z M 139.99 149.76 L 139.89 150.74 C 139.77 151.88 140.60 152.89 141.74 153.01 C 142.88 153.12 143.89 152.29 144.01 151.16 L 144.11 150.18 C 144.22 149.04 143.39 148.03 142.26 147.91 C 141.12 147.79 140.10 148.62 139.99 149.76 Z M 139.89 150.74 L 139.79 151.76 C 139.67 152.90 140.51 153.91 141.64 154.02 C 142.78 154.14 143.80 153.31 143.91 152.17 L 144.01 151.15 C 144.12 150.01 143.29 149.00 142.15 148.89 C 141.01 148.77 140.00 149.61 139.89 150.74 Z M 139.79 151.75 L 139.69 152.73 C 139.57 153.87 140.39 154.88 141.53 155.00 C 142.67 155.12 143.69 154.29 143.81 153.16 L 143.91 152.18 C 144.03 151.04 143.20 150.02 142.06 149.90 C 140.92 149.79 139.91 150.61 139.79 151.75 Z M 139.69 152.73 L 139.58 153.73 C 139.46 154.87 140.29 155.89 141.43 156.01 C 142.57 156.12 143.58 155.30 143.70 154.16 L 143.81 153.15 C 143.92 152.02 143.10 151.00 141.96 150.88 C 140.82 150.76 139.80 151.59 139.69 152.73 Z M 139.58 153.75 L 139.49 154.74 C 139.38 155.88 140.21 156.89 141.35 156.99 C 142.49 157.10 143.50 156.27 143.61 155.13 L 143.70 154.14 C 143.81 153.00 142.98 151.99 141.84 151.88 C 140.70 151.78 139.69 152.61 139.58 153.75 Z M 139.49 154.75 L 139.40 155.74 C 139.30 156.88 140.14 157.88 141.28 157.98 C 142.42 158.08 143.42 157.24 143.52 156.10 L 143.61 155.11 C 143.71 153.98 142.87 152.97 141.73 152.87 C 140.59 152.77 139.59 153.61 139.49 154.75 Z M 139.40 155.74 L 139.31 156.76 C 139.21 157.90 140.05 158.90 141.19 159.00 C 142.33 159.10 143.34 158.26 143.44 157.12 L 143.52 156.10 C 143.62 154.96 142.78 153.96 141.64 153.86 C 140.50 153.76 139.50 154.60 139.40 155.74 Z M 139.31 156.76 L 139.22 157.76 C 139.12 158.90 139.96 159.90 141.10 160.01 C 142.24 160.11 143.24 159.27 143.34 158.13 L 143.43 157.13 C 143.54 155.99 142.70 154.98 141.56 154.88 C 140.42 154.78 139.41 155.62 139.31 156.76 Z M 139.22 157.76 L 139.13 158.77 C 139.03 159.91 139.88 160.91 141.01 161.01 C 142.15 161.11 143.16 160.27 143.26 159.13 L 143.35 158.12 C 143.44 156.98 142.60 155.98 141.46 155.88 C 140.32 155.78 139.32 156.62 139.22 157.76 Z M 139.13 158.79 L 139.05 159.80 C 138.96 160.94 139.82 161.94 140.96 162.02 C 142.10 162.11 143.10 161.26 143.18 160.11 L 143.26 159.10 C 143.35 157.96 142.49 156.97 141.35 156.88 C 140.21 156.79 139.22 157.65 139.13 158.79 Z M 139.05 159.84 L 138.99 160.84 C 138.92 161.99 139.79 162.97 140.94 163.03 C 142.08 163.10 143.06 162.23 143.13 161.08 L 143.19 160.08 C 143.25 158.94 142.38 157.95 141.24 157.89 C 140.10 157.82 139.11 158.69 139.05 159.84 Z M 138.98 160.89 L 138.95 161.85 C 138.90 163.00 139.80 163.96 140.94 164.01 C 142.09 164.05 143.05 163.15 143.10 162.01 L 143.13 161.04 C 143.18 159.89 142.28 158.93 141.14 158.89 C 139.99 158.85 139.03 159.74 138.98 160.89 Z M 138.94 161.90 L 138.93 162.91 C 138.91 164.06 139.83 165.01 140.97 165.02 C 142.12 165.04 143.07 164.13 143.09 162.98 L 143.10 161.96 C 143.12 160.81 142.20 159.87 141.05 159.85 C 139.91 159.83 138.96 160.75 138.94 161.90 Z M 138.92 162.94 L 138.92 163.93 C 138.92 165.08 139.85 166.01 141.00 166.01 C 142.15 166.02 143.08 165.09 143.09 163.94 L 143.09 162.95 C 143.09 161.80 142.16 160.86 141.01 160.86 C 139.86 160.86 138.93 161.79 138.92 162.94 Z M 138.92 163.93 L 138.92 164.95 C 138.92 166.10 139.85 167.04 141.00 167.04 C 142.16 167.04 143.09 166.10 143.09 164.95 L 143.09 163.93 C 143.09 162.78 142.16 161.84 141.00 161.84 C 139.85 161.84 138.92 162.78 138.92 163.93 Z M 138.91 164.95 L 138.91 165.93 C 138.91 167.09 139.85 168.02 141.00 168.02 C 142.16 168.02 143.09 167.09 143.09 165.93 L 143.09 164.95 C 143.09 163.80 142.16 162.86 141.00 162.86 C 139.85 162.86 138.91 163.80 138.91 164.95 Z M 138.91 165.93 L 138.91 166.96 C 138.91 168.12 139.85 169.05 141.00 169.05 C 142.16 169.05 143.10 168.12 143.10 166.96 L 143.10 165.93 C 143.10 164.78 142.16 163.84 141.00 163.84 C 139.85 163.84 138.91 164.78 138.91 165.93 Z M 138.91 166.96 L 138.91 167.93 C 138.91 169.09 139.85 170.03 141.00 170.03 C 142.16 170.03 143.10 169.09 143.10 167.93 L 143.10 166.96 C 143.10 165.80 142.16 164.87 141.00 164.87 C 139.85 164.87 138.91 165.80 138.91 166.96 Z M 138.91 167.96 L 138.92 168.97 C 138.94 170.13 139.89 171.05 141.05 171.03 C 142.21 171.02 143.13 170.06 143.12 168.90 L 143.10 167.90 C 143.08 166.74 142.13 165.82 140.97 165.83 C 139.81 165.85 138.89 166.80 138.91 167.96 Z M 138.92 169.12 L 139.01 170.09 C 139.12 171.24 140.14 172.10 141.30 171.99 C 142.45 171.89 143.30 170.86 143.20 169.71 L 143.11 168.75 C 143.01 167.59 141.99 166.74 140.83 166.84 C 139.67 166.95 138.82 167.97 138.92 169.12 Z M 139.07 170.44 L 139.33 171.41 C 139.62 172.54 140.78 173.21 141.90 172.91 C 143.03 172.61 143.70 171.46 143.40 170.34 L 143.14 169.36 C 142.85 168.23 141.69 167.56 140.57 167.86 C 139.44 168.16 138.77 169.31 139.07 170.44 Z M 139.48 171.84 L 139.93 172.71 C 140.47 173.75 141.74 174.16 142.78 173.63 C 143.82 173.09 144.23 171.82 143.69 170.78 L 143.24 169.91 C 142.71 168.87 141.43 168.46 140.40 169.00 C 139.36 169.53 138.95 170.80 139.48 171.84 Z M 140.14 173.06 L 140.78 173.86 C 141.50 174.79 142.84 174.95 143.76 174.22 C 144.68 173.49 144.84 172.16 144.11 171.24 L 143.48 170.43 C 142.76 169.51 141.42 169.35 140.50 170.08 C 139.58 170.80 139.42 172.14 140.14 173.06 Z M 141.06 174.17 L 141.80 174.80 C 142.69 175.57 144.04 175.46 144.80 174.57 C 145.57 173.67 145.46 172.33 144.57 171.56 L 143.83 170.93 C 142.94 170.17 141.59 170.27 140.83 171.16 C 140.06 172.06 140.17 173.40 141.06 174.17 Z M 142.10 175.02 L 142.97 175.53 C 143.99 176.13 145.29 175.79 145.89 174.78 C 146.49 173.77 146.15 172.46 145.14 171.86 L 144.27 171.35 C 143.25 170.75 141.95 171.08 141.35 172.10 C 140.75 173.11 141.09 174.42 142.10 175.02 Z M 143.21 175.66 L 144.11 176.04 C 145.19 176.51 146.45 176.01 146.91 174.92 C 147.38 173.84 146.88 172.58 145.79 172.12 L 144.90 171.73 C 143.81 171.27 142.56 171.77 142.09 172.85 C 141.63 173.94 142.13 175.19 143.21 175.66 Z M 144.31 176.12 L 145.26 176.42 C 146.39 176.77 147.59 176.14 147.94 175.02 C 148.29 173.89 147.67 172.70 146.54 172.34 L 145.59 172.04 C 144.47 171.69 143.27 172.32 142.92 173.44 C 142.56 174.57 143.19 175.77 144.31 176.12 Z M 145.47 176.47 L 146.50 176.68 C 147.65 176.92 148.78 176.18 149.02 175.03 C 149.26 173.87 148.52 172.74 147.37 172.50 L 146.34 172.29 C 145.18 172.05 144.05 172.79 143.81 173.94 C 143.57 175.10 144.31 176.23 145.47 176.47 Z M 146.68 176.71 L 147.72 176.83 C 148.89 176.97 149.95 176.13 150.09 174.96 C 150.23 173.79 149.39 172.73 148.22 172.59 L 147.18 172.47 C 146.01 172.34 144.95 173.18 144.81 174.35 C 144.68 175.52 145.51 176.58 146.68 176.71 Z M 147.84 176.84 L 148.84 176.90 C 150.02 176.97 151.03 176.08 151.10 174.90 C 151.17 173.72 150.27 172.71 149.09 172.64 L 148.10 172.58 C 146.92 172.52 145.91 173.41 145.84 174.59 C 145.77 175.76 146.67 176.77 147.84 176.84 Z M 148.91 176.90 L 149.92 176.93 C 151.10 176.96 152.08 176.04 152.11 174.86 C 152.15 173.68 151.22 172.70 150.04 172.67 L 149.03 172.64 C 147.85 172.61 146.87 173.54 146.84 174.71 C 146.81 175.89 147.73 176.87 148.91 176.90 Z M 149.96 176.93 L 150.94 176.94 C 152.12 176.95 153.08 176.00 153.09 174.83 C 153.10 173.66 152.16 172.70 150.98 172.69 L 150.00 172.68 C 148.83 172.66 147.87 173.61 147.86 174.78 C 147.85 175.96 148.79 176.92 149.96 176.93 Z M 150.96 176.93 L 151.91 176.93 C 153.08 176.93 154.03 175.98 154.03 174.81 C 154.03 173.64 153.08 172.69 151.91 172.69 L 150.96 172.69 C 149.79 172.69 148.84 173.64 148.84 174.81 C 148.84 175.98 149.79 176.93 150.96 176.93 Z M 151.91 176.92 L 152.91 176.92 C 154.08 176.92 155.03 175.98 155.03 174.81 C 155.03 173.64 154.08 172.70 152.91 172.70 L 151.91 172.70 C 150.74 172.70 149.80 173.64 149.80 174.81 C 149.80 175.98 150.74 176.92 151.91 176.92 Z M 152.93 176.91 L 153.90 176.91 C 155.07 176.90 156.00 175.96 156.00 174.79 C 155.99 173.63 155.04 172.70 153.88 172.70 L 152.90 172.71 C 151.74 172.71 150.80 173.66 150.81 174.82 C 150.82 175.98 151.76 176.92 152.93 176.91 Z M 153.99 176.89 L 155.02 176.84 C 156.17 176.78 157.06 175.81 157.00 174.65 C 156.94 173.50 155.96 172.61 154.81 172.67 L 153.79 172.72 C 152.64 172.78 151.75 173.76 151.81 174.91 C 151.86 176.06 152.84 176.95 153.99 176.89 Z M 155.16 176.81 L 156.15 176.69 C 157.28 176.56 158.09 175.53 157.96 174.40 C 157.83 173.26 156.80 172.45 155.66 172.58 L 154.67 172.70 C 153.54 172.83 152.73 173.86 152.86 175.00 C 152.99 176.13 154.02 176.94 155.16 176.81 Z M 156.24 176.66 L 157.23 176.49 C 158.35 176.31 159.10 175.25 158.91 174.14 C 158.73 173.02 157.67 172.27 156.56 172.46 L 155.57 172.62 C 154.45 172.81 153.70 173.86 153.88 174.98 C 154.07 176.09 155.12 176.84 156.24 176.66 Z M 157.29 176.46 L 158.29 176.26 C 159.39 176.04 160.10 174.97 159.88 173.88 C 159.66 172.78 158.59 172.07 157.50 172.29 L 156.50 172.49 C 155.40 172.71 154.69 173.78 154.91 174.87 C 155.13 175.97 156.20 176.68 157.29 176.46 Z M 158.32 176.22 L 159.28 176.01 C 160.36 175.78 161.04 174.71 160.80 173.64 C 160.57 172.56 159.50 171.88 158.42 172.11 L 157.47 172.32 C 156.39 172.56 155.71 173.63 155.94 174.70 C 156.18 175.78 157.24 176.46 158.32 176.22 Z M 159.29 175.98 L 160.26 175.76 C 161.32 175.52 161.99 174.46 161.75 173.40 C 161.50 172.34 160.45 171.68 159.39 171.92 L 158.41 172.14 C 157.35 172.39 156.69 173.44 156.93 174.50 C 157.17 175.56 158.23 176.23 159.29 175.98 Z M 160.31 175.72 L 161.28 175.48 C 162.32 175.21 162.94 174.15 162.68 173.11 C 162.41 172.07 161.35 171.45 160.32 171.71 L 159.34 171.96 C 158.30 172.23 157.68 173.28 157.94 174.32 C 158.21 175.36 159.27 175.99 160.31 175.72 Z M 161.34 175.43 L 162.30 175.15 C 163.32 174.85 163.90 173.78 163.60 172.77 C 163.30 171.75 162.23 171.17 161.22 171.47 L 160.25 171.76 C 159.24 172.06 158.66 173.12 158.96 174.14 C 159.26 175.15 160.32 175.73 161.34 175.43 Z M 162.35 175.11 L 163.31 174.79 C 164.30 174.46 164.84 173.39 164.51 172.40 C 164.19 171.41 163.12 170.87 162.12 171.20 L 161.17 171.51 C 160.17 171.84 159.63 172.91 159.96 173.90 C 160.29 174.89 161.36 175.43 162.35 175.11 Z M 163.35 174.75 L 164.29 174.41 C 165.26 174.06 165.76 172.99 165.41 172.02 C 165.06 171.05 163.99 170.55 163.02 170.90 L 162.08 171.23 C 161.11 171.58 160.61 172.66 160.96 173.63 C 161.31 174.60 162.38 175.10 163.35 174.75 Z M 164.33 174.38 L 165.19 174.04 C 166.14 173.67 166.61 172.60 166.24 171.64 C 165.87 170.69 164.79 170.22 163.84 170.60 L 162.98 170.93 C 162.03 171.31 161.56 172.38 161.93 173.33 C 162.30 174.28 163.38 174.75 164.33 174.38 Z M 165.25 173.99 L 166.21 173.58 C 167.13 173.17 167.55 172.09 167.15 171.16 C 166.74 170.24 165.66 169.82 164.74 170.22 L 163.78 170.64 C 162.86 171.05 162.44 172.13 162.84 173.05 C 163.25 173.98 164.33 174.40 165.25 173.99 Z M 166.25 173.54 L 167.10 173.14 C 168.00 172.70 168.39 171.62 167.96 170.71 C 167.52 169.81 166.44 169.42 165.53 169.86 L 164.69 170.26 C 163.78 170.69 163.40 171.78 163.83 172.68 C 164.26 173.59 165.35 173.97 166.25 173.54 Z M 167.12 173.12 L 168.03 172.67 C 168.93 172.22 169.30 171.14 168.86 170.24 C 168.41 169.35 167.33 168.98 166.43 169.42 L 165.52 169.87 C 164.62 170.32 164.25 171.40 164.69 172.30 C 165.14 173.19 166.22 173.56 167.12 173.12 Z M 168.04 172.66 L 168.82 172.26 C 169.71 171.82 170.08 170.74 169.63 169.85 C 169.19 168.96 168.10 168.59 167.21 169.04 L 166.43 169.43 C 165.54 169.88 165.18 170.96 165.62 171.85 C 166.07 172.74 167.15 173.10 168.04 172.66 Z"
      fill="black"
      fill-rule="nonzero" /><path d="M 150.70 136.13 L 151.57 135.88 C 152.60 135.59 153.19 134.52 152.89 133.49 C 152.59 132.47 151.52 131.88 150.50 132.17 L 149.63 132.43 C 148.60 132.72 148.01 133.79 148.31 134.82 C 148.61 135.84 149.68 136.43 150.70 136.13 Z M 151.36 135.98 L 152.43 135.81 C 153.51 135.63 154.24 134.61 154.06 133.53 C 153.88 132.45 152.86 131.72 151.78 131.90 L 150.71 132.07 C 149.63 132.25 148.90 133.27 149.08 134.35 C 149.26 135.43 150.28 136.16 151.36 135.98 Z M 152.20 135.86 L 153.13 135.82 C 154.24 135.76 155.09 134.82 155.04 133.71 C 154.98 132.60 154.04 131.74 152.93 131.80 L 152.01 131.84 C 150.90 131.90 150.04 132.84 150.10 133.95 C 150.15 135.06 151.09 135.92 152.20 135.86 Z M 153.00 135.82 L 154.02 135.84 C 155.14 135.85 156.05 134.97 156.07 133.85 C 156.09 132.74 155.20 131.83 154.09 131.81 L 153.06 131.79 C 151.95 131.78 151.03 132.66 151.01 133.78 C 151.00 134.89 151.88 135.80 153.00 135.82 Z M 153.92 135.83 L 154.98 135.90 C 156.09 135.98 157.05 135.14 157.12 134.03 C 157.19 132.92 156.35 131.96 155.24 131.88 L 154.19 131.81 C 153.08 131.74 152.12 132.58 152.04 133.69 C 151.97 134.80 152.81 135.76 153.92 135.83 Z M 154.89 135.90 L 155.89 136.01 C 157.00 136.13 158.00 135.34 158.12 134.23 C 158.24 133.12 157.44 132.12 156.34 132.00 L 155.33 131.89 C 154.23 131.77 153.23 132.56 153.11 133.67 C 152.98 134.78 153.78 135.77 154.89 135.90 Z M 155.83 136.00 L 156.82 136.14 C 157.92 136.29 158.94 135.53 159.10 134.42 C 159.25 133.32 158.48 132.30 157.38 132.15 L 156.39 132.01 C 155.29 131.85 154.27 132.62 154.12 133.72 C 153.96 134.83 154.73 135.85 155.83 136.00 Z M 156.80 136.14 L 157.78 136.28 C 158.88 136.45 159.91 135.69 160.07 134.59 C 160.24 133.48 159.48 132.46 158.38 132.30 L 157.40 132.15 C 156.29 131.99 155.27 132.75 155.11 133.85 C 154.94 134.95 155.70 135.97 156.80 136.14 Z M 157.80 136.28 L 158.79 136.42 C 159.89 136.58 160.91 135.81 161.07 134.71 C 161.22 133.61 160.46 132.59 159.35 132.44 L 158.36 132.30 C 157.26 132.14 156.24 132.91 156.09 134.01 C 155.93 135.11 156.70 136.13 157.80 136.28 Z M 158.81 136.42 L 159.81 136.55 C 160.91 136.70 161.92 135.92 162.06 134.82 C 162.20 133.72 161.43 132.71 160.33 132.57 L 159.33 132.44 C 158.23 132.29 157.22 133.07 157.08 134.17 C 156.94 135.27 157.71 136.28 158.81 136.42 Z M 159.83 136.55 L 160.83 136.67 C 161.93 136.80 162.93 136.01 163.06 134.91 C 163.19 133.81 162.40 132.82 161.30 132.68 L 160.30 132.57 C 159.20 132.44 158.20 133.22 158.07 134.32 C 157.94 135.42 158.73 136.42 159.83 136.55 Z M 160.86 136.67 L 161.90 136.78 C 163.00 136.90 163.99 136.10 164.10 135.00 C 164.22 133.90 163.42 132.91 162.32 132.80 L 161.28 132.69 C 160.18 132.57 159.19 133.37 159.08 134.47 C 158.96 135.57 159.76 136.55 160.86 136.67 Z M 161.92 136.78 L 162.91 136.87 C 164.00 136.97 164.98 136.17 165.08 135.07 C 165.19 133.97 164.38 133.00 163.28 132.89 L 162.30 132.80 C 161.20 132.70 160.23 133.50 160.12 134.60 C 160.02 135.70 160.83 136.67 161.92 136.78 Z M 162.93 136.87 L 163.91 136.95 C 165.01 137.04 165.97 136.23 166.06 135.13 C 166.15 134.03 165.34 133.07 164.24 132.98 L 163.26 132.90 C 162.16 132.80 161.20 133.62 161.11 134.71 C 161.02 135.81 161.83 136.77 162.93 136.87 Z M 163.92 136.94 L 164.90 137.02 C 165.99 137.11 166.95 136.30 167.04 135.21 C 167.13 134.11 166.32 133.15 165.23 133.07 L 164.24 132.98 C 163.15 132.90 162.19 133.71 162.10 134.80 C 162.01 135.89 162.82 136.85 163.92 136.94 Z M 164.85 137.01 L 165.86 137.12 C 166.94 137.23 167.92 136.45 168.03 135.36 C 168.15 134.28 167.36 133.30 166.28 133.19 L 165.27 133.08 C 164.19 132.96 163.21 133.75 163.10 134.83 C 162.98 135.92 163.77 136.89 164.85 137.01 Z M 165.63 137.07 L 166.64 137.30 C 167.70 137.54 168.75 136.88 169.00 135.82 C 169.24 134.76 168.58 133.71 167.52 133.46 L 166.51 133.23 C 165.45 132.99 164.39 133.65 164.15 134.71 C 163.91 135.77 164.57 136.83 165.63 137.07 Z M 165.74 136.83 L 166.38 137.42 C 167.18 138.16 168.43 138.11 169.16 137.30 C 169.90 136.50 169.85 135.25 169.05 134.52 L 168.41 133.93 C 167.61 133.19 166.36 133.24 165.63 134.05 C 164.89 134.85 164.94 136.10 165.74 136.83 Z M 165.70 136.07 L 165.75 137.07 C 165.81 138.18 166.75 139.04 167.86 138.98 C 168.97 138.93 169.83 137.98 169.77 136.87 L 169.72 135.87 C 169.67 134.76 168.72 133.90 167.61 133.96 C 166.50 134.01 165.65 134.96 165.70 136.07 Z M 165.75 136.61 L 165.57 137.55 C 165.37 138.67 166.11 139.73 167.22 139.94 C 168.34 140.14 169.40 139.40 169.61 138.29 L 169.78 137.34 C 169.98 136.23 169.24 135.16 168.13 134.96 C 167.02 134.75 165.95 135.49 165.75 136.61 Z M 165.56 137.53 L 165.38 138.48 C 165.16 139.60 165.89 140.69 167.02 140.90 C 168.14 141.12 169.22 140.38 169.44 139.26 L 169.62 138.31 C 169.84 137.19 169.10 136.11 167.98 135.89 C 166.86 135.68 165.78 136.41 165.56 137.53 Z M 165.35 138.59 L 165.22 139.49 C 165.07 140.63 165.87 141.68 167.00 141.83 C 168.14 141.99 169.19 141.19 169.35 140.05 L 169.47 139.15 C 169.62 138.01 168.83 136.97 167.69 136.81 C 166.55 136.66 165.50 137.45 165.35 138.59 Z M 165.20 139.58 L 165.10 140.73 C 164.99 141.88 165.84 142.90 166.99 143.00 C 168.14 143.11 169.16 142.26 169.26 141.11 L 169.37 139.96 C 169.47 138.81 168.63 137.80 167.48 137.69 C 166.33 137.58 165.31 138.43 165.20 139.58 Z M 165.08 140.78 L 165.01 141.78 C 164.94 142.94 165.81 143.94 166.97 144.02 C 168.13 144.09 169.13 143.22 169.21 142.06 L 169.28 141.06 C 169.35 139.90 168.48 138.90 167.32 138.82 C 166.16 138.74 165.16 139.62 165.08 140.78 Z M 165.00 141.80 L 164.94 142.86 C 164.88 144.02 165.77 145.02 166.94 145.08 C 168.11 145.15 169.11 144.25 169.17 143.08 L 169.23 142.03 C 169.29 140.87 168.39 139.87 167.23 139.81 C 166.06 139.74 165.06 140.64 165.00 141.80 Z M 164.93 142.88 L 164.88 143.87 C 164.83 145.04 165.74 146.04 166.92 146.09 C 168.09 146.14 169.09 145.23 169.14 144.06 L 169.18 143.06 C 169.24 141.89 168.33 140.90 167.15 140.84 C 165.98 140.79 164.98 141.70 164.93 142.88 Z M 164.87 143.90 L 164.84 145.00 C 164.80 146.18 165.73 147.17 166.91 147.21 C 168.09 147.25 169.08 146.32 169.12 145.14 L 169.15 144.03 C 169.19 142.85 168.26 141.86 167.08 141.82 C 165.90 141.79 164.91 142.71 164.87 143.90 Z M 164.83 145.04 L 164.82 145.97 C 164.80 147.16 165.75 148.13 166.94 148.14 C 168.13 148.16 169.10 147.21 169.12 146.02 L 169.13 145.09 C 169.14 143.91 168.19 142.93 167.00 142.92 C 165.81 142.90 164.84 143.86 164.83 145.04 Z M 164.81 145.99 L 164.81 146.91 C 164.81 148.10 165.77 149.06 166.97 149.06 C 168.16 149.06 169.12 148.10 169.13 146.91 L 169.13 145.99 C 169.13 144.80 168.16 143.84 166.97 143.83 C 165.78 143.83 164.81 144.80 164.81 145.99 Z M 164.80 146.91 L 164.80 147.92 C 164.80 149.11 165.77 150.08 166.97 150.08 C 168.16 150.08 169.13 149.11 169.13 147.92 L 169.13 146.91 C 169.13 145.71 168.16 144.74 166.97 144.74 C 165.77 144.74 164.80 145.71 164.80 146.91 Z M 164.80 147.92 L 164.80 148.91 C 164.80 150.11 165.77 151.08 166.97 151.08 C 168.17 151.08 169.14 150.11 169.14 148.91 L 169.14 147.92 C 169.14 146.72 168.17 145.75 166.97 145.75 C 165.77 145.75 164.80 146.72 164.80 147.92 Z M 164.79 148.91 L 164.79 149.92 C 164.79 151.12 165.76 152.09 166.97 152.09 C 168.17 152.09 169.14 151.12 169.14 149.92 L 169.14 148.91 C 169.14 147.71 168.17 146.73 166.97 146.73 C 165.76 146.73 164.79 147.71 164.79 148.91 Z M 164.79 149.92 L 164.79 150.89 C 164.79 152.10 165.76 153.07 166.97 153.07 C 168.17 153.07 169.15 152.10 169.15 150.89 L 169.15 149.92 C 169.15 148.71 168.17 147.74 166.97 147.74 C 165.76 147.74 164.79 148.71 164.79 149.92 Z M 164.79 150.89 L 164.79 151.92 C 164.79 153.12 165.76 154.10 166.97 154.10 C 168.17 154.10 169.15 153.12 169.15 151.92 L 169.15 150.89 C 169.15 149.69 168.17 148.71 166.97 148.71 C 165.76 148.71 164.79 149.69 164.79 150.89 Z M 164.78 151.92 L 164.79 152.93 C 164.79 154.13 165.77 155.11 166.97 155.11 C 168.18 155.10 169.15 154.13 169.15 152.92 L 169.15 151.91 C 169.15 150.71 168.17 149.73 166.96 149.73 C 165.76 149.74 164.78 150.71 164.78 151.92 Z M 164.78 152.95 L 164.79 153.95 C 164.81 155.15 165.79 156.12 167.00 156.11 C 168.21 156.10 169.17 155.11 169.16 153.90 L 169.15 152.90 C 169.14 151.70 168.15 150.73 166.95 150.74 C 165.74 150.75 164.77 151.74 164.78 152.95 Z M 164.79 153.98 L 164.82 154.99 C 164.85 156.19 165.85 157.15 167.06 157.12 C 168.26 157.09 169.22 156.09 169.19 154.88 L 169.16 153.87 C 169.13 152.67 168.13 151.71 166.93 151.74 C 165.72 151.77 164.76 152.77 164.79 153.98 Z M 164.82 155.01 L 164.85 155.99 C 164.89 157.20 165.91 158.14 167.11 158.10 C 168.32 158.06 169.26 157.04 169.22 155.84 L 169.19 154.86 C 169.15 153.65 168.13 152.71 166.93 152.75 C 165.72 152.79 164.78 153.80 164.82 155.01 Z M 164.85 155.99 L 164.89 156.98 C 164.93 158.19 165.95 159.13 167.15 159.09 C 168.36 159.04 169.30 158.03 169.26 156.82 L 169.22 155.83 C 169.18 154.63 168.16 153.68 166.96 153.73 C 165.75 153.77 164.81 154.79 164.85 155.99 Z M 164.88 156.98 L 164.92 157.99 C 164.96 159.20 165.98 160.14 167.18 160.10 C 168.39 160.06 169.34 159.05 169.30 157.84 L 169.26 156.83 C 169.22 155.62 168.21 154.67 167.00 154.71 C 165.79 154.75 164.84 155.77 164.88 156.98 Z M 164.92 157.98 L 164.95 158.98 C 164.99 160.19 166.00 161.14 167.21 161.10 C 168.42 161.06 169.37 160.05 169.33 158.84 L 169.30 157.85 C 169.26 156.64 168.25 155.69 167.04 155.72 C 165.83 155.76 164.88 156.77 164.92 157.98 Z M 164.95 158.98 L 164.98 159.98 C 165.01 161.19 166.02 162.15 167.23 162.11 C 168.45 162.07 169.40 161.06 169.36 159.85 L 169.33 158.84 C 169.30 157.63 168.29 156.68 167.07 156.72 C 165.86 156.75 164.91 157.76 164.95 158.98 Z M 164.97 159.98 L 165.00 160.98 C 165.04 162.19 166.05 163.15 167.26 163.11 C 168.48 163.07 169.43 162.06 169.40 160.85 L 169.37 159.85 C 169.33 158.64 168.32 157.68 167.10 157.72 C 165.89 157.76 164.94 158.77 164.97 159.98 Z M 165.00 160.98 L 165.03 161.98 C 165.06 163.20 166.08 164.15 167.29 164.12 C 168.51 164.08 169.47 163.07 169.43 161.85 L 169.40 160.85 C 169.36 159.63 168.35 158.68 167.13 158.71 C 165.92 158.75 164.96 159.76 165.00 160.98 Z M 165.02 161.98 L 165.05 162.96 C 165.09 164.18 166.10 165.14 167.32 165.10 C 168.54 165.07 169.49 164.06 169.46 162.84 L 169.43 161.85 C 169.40 160.64 168.38 159.68 167.17 159.71 C 165.95 159.75 164.99 160.76 165.02 161.98 Z M 165.05 162.95 L 165.07 163.96 C 165.10 165.18 166.11 166.14 167.33 166.12 C 168.55 166.09 169.51 165.08 169.49 163.86 L 169.46 162.85 C 169.44 161.63 168.43 160.66 167.21 160.69 C 165.99 160.72 165.02 161.73 165.05 162.95 Z M 165.07 163.93 L 165.08 164.95 C 165.09 166.17 166.09 167.15 167.31 167.14 C 168.53 167.12 169.51 166.12 169.50 164.90 L 169.49 163.88 C 169.48 162.66 168.48 161.68 167.25 161.70 C 166.03 161.71 165.05 162.71 165.07 163.93 Z M 165.07 164.93 L 165.08 165.94 C 165.08 167.16 166.07 168.15 167.30 168.15 C 168.52 168.14 169.51 167.15 169.51 165.92 L 169.51 164.92 C 169.50 163.69 168.51 162.70 167.28 162.71 C 166.06 162.71 165.07 163.71 165.07 164.93 Z M 165.07 165.93 L 165.07 166.94 C 165.07 168.17 166.07 169.16 167.29 169.16 C 168.52 169.16 169.51 168.17 169.51 166.94 L 169.51 165.93 C 169.51 164.70 168.52 163.71 167.29 163.71 C 166.07 163.71 165.07 164.70 165.07 165.93 Z M 165.07 166.94 L 165.07 167.94 C 165.07 169.16 166.07 170.16 167.29 170.16 C 168.52 170.16 169.51 169.16 169.51 167.94 L 169.51 166.94 C 169.51 165.71 168.52 164.72 167.29 164.72 C 166.07 164.72 165.07 165.71 165.07 166.94 Z M 165.07 167.94 L 165.07 168.92 C 165.07 170.14 166.06 171.14 167.29 171.14 C 168.52 171.14 169.51 170.14 169.51 168.92 L 169.51 167.94 C 169.51 166.71 168.52 165.71 167.29 165.71 C 166.06 165.71 165.07 166.71 165.07 167.94 Z M 165.07 168.92 L 165.07 169.91 C 165.07 171.14 166.06 172.14 167.29 172.14 C 168.52 172.14 169.51 171.14 169.51 169.91 L 169.51 168.92 C 169.51 167.69 168.52 166.69 167.29 166.69 C 166.06 166.69 165.07 167.69 165.07 168.92 Z M 165.07 169.91 L 165.07 170.92 C 165.07 172.15 166.06 173.14 167.29 173.14 C 168.52 173.14 169.51 172.15 169.51 170.92 L 169.51 169.91 C 169.51 168.69 168.52 167.69 167.29 167.69 C 166.06 167.69 165.07 168.69 165.07 169.91 Z M 165.07 170.92 L 165.07 171.92 C 165.07 173.15 166.06 174.15 167.29 174.15 C 168.52 174.15 169.51 173.15 169.51 171.92 L 169.51 170.92 C 169.51 169.69 168.52 168.70 167.29 168.70 C 166.06 168.70 165.07 169.69 165.07 170.92 Z M 165.07 171.92 L 165.07 172.93 C 165.07 174.16 166.06 175.15 167.29 175.15 C 168.52 175.15 169.51 174.16 169.52 172.93 L 169.52 171.92 C 169.52 170.70 168.52 169.70 167.29 169.70 C 166.06 169.70 165.07 170.69 165.07 171.92 Z M 165.07 172.92 L 165.06 173.91 C 165.05 175.13 166.04 176.14 167.27 176.15 C 168.50 176.15 169.50 175.17 169.51 173.94 L 169.52 172.95 C 169.52 171.72 168.54 170.71 167.31 170.71 C 166.08 170.70 165.07 171.69 165.07 172.92 Z M 165.06 173.86 L 165.03 174.86 C 165.00 176.09 165.97 177.11 167.20 177.14 C 168.43 177.17 169.45 176.20 169.48 174.97 L 169.51 173.98 C 169.54 172.75 168.57 171.73 167.34 171.70 C 166.11 171.66 165.09 172.64 165.06 173.86 Z M 165.04 174.77 L 164.97 175.76 C 164.89 176.99 165.82 178.05 167.05 178.13 C 168.27 178.21 169.33 177.28 169.41 176.06 L 169.48 175.06 C 169.56 173.83 168.63 172.77 167.41 172.69 C 166.18 172.61 165.12 173.54 165.04 174.77 Z M 164.98 175.64 L 164.87 176.60 C 164.72 177.82 165.59 178.93 166.81 179.08 C 168.03 179.22 169.14 178.35 169.29 177.13 L 169.40 176.18 C 169.55 174.96 168.68 173.85 167.46 173.70 C 166.24 173.55 165.13 174.42 164.98 175.64 Z M 164.88 176.53 L 164.72 177.55 C 164.53 178.76 165.36 179.90 166.58 180.09 C 167.79 180.28 168.93 179.44 169.12 178.23 L 169.28 177.21 C 169.47 175.99 168.63 174.85 167.42 174.67 C 166.20 174.48 165.07 175.31 164.88 176.53 Z M 164.73 177.51 L 164.56 178.50 C 164.35 179.71 165.16 180.86 166.37 181.07 C 167.58 181.28 168.73 180.47 168.94 179.25 L 169.11 178.26 C 169.32 177.05 168.51 175.90 167.30 175.69 C 166.09 175.49 164.93 176.30 164.73 177.51 Z M 164.57 178.46 L 164.38 179.44 C 164.14 180.65 164.93 181.81 166.14 182.04 C 167.35 182.28 168.51 181.49 168.74 180.28 L 168.93 179.30 C 169.17 178.09 168.38 176.93 167.17 176.70 C 165.96 176.46 164.80 177.25 164.57 178.46 Z M 164.40 179.36 L 164.18 180.30 C 163.90 181.50 164.64 182.69 165.83 182.97 C 167.03 183.25 168.22 182.51 168.50 181.31 L 168.72 180.37 C 169.00 179.17 168.26 177.98 167.07 177.70 C 165.87 177.42 164.68 178.16 164.40 179.36 Z M 164.23 180.15 L 163.93 181.12 C 163.56 182.29 164.22 183.53 165.38 183.89 C 166.55 184.25 167.79 183.60 168.15 182.44 L 168.45 181.46 C 168.81 180.30 168.16 179.06 166.99 178.70 C 165.83 178.34 164.59 178.99 164.23 180.15 Z M 164.00 180.95 L 163.56 182.03 C 163.10 183.15 163.64 184.44 164.77 184.89 C 165.89 185.35 167.18 184.81 167.63 183.69 L 168.07 182.61 C 168.53 181.49 167.99 180.20 166.87 179.74 C 165.74 179.28 164.46 179.82 164.00 180.95 Z M 163.78 181.65 L 163.29 182.38 C 162.62 183.38 162.89 184.74 163.90 185.41 C 164.90 186.08 166.26 185.81 166.93 184.80 L 167.42 184.07 C 168.09 183.07 167.82 181.71 166.81 181.04 C 165.81 180.37 164.45 180.64 163.78 181.65 Z M 166.21 181.79 L 165.63 181.43 C 164.63 180.83 163.33 181.14 162.73 182.14 C 162.12 183.13 162.44 184.43 163.43 185.04 L 164.01 185.39 C 165.01 186.00 166.31 185.69 166.91 184.69 C 167.52 183.69 167.21 182.39 166.21 181.79 Z M 166.41 182.61 L 166.07 181.56 C 165.72 180.52 164.60 179.96 163.56 180.30 C 162.52 180.65 161.95 181.77 162.30 182.81 L 162.65 183.86 C 162.99 184.90 164.12 185.47 165.16 185.12 C 166.20 184.77 166.76 183.65 166.41 182.61 Z M 166.01 181.80 L 165.80 180.82 C 165.59 179.81 164.59 179.16 163.58 179.38 C 162.57 179.59 161.93 180.59 162.14 181.60 L 162.35 182.58 C 162.57 183.59 163.56 184.23 164.57 184.02 C 165.58 183.80 166.23 182.81 166.01 181.80 Z M 165.75 180.87 L 165.72 180.68 C 165.53 179.70 164.58 179.06 163.60 179.25 C 162.62 179.43 161.97 180.38 162.16 181.36 L 162.20 181.55 C 162.38 182.53 163.33 183.17 164.31 182.99 C 165.29 182.80 165.94 181.85 165.75 180.87 Z"
      fill="black"
      fill-rule="nonzero" /><path d="M 152.18 140.19 L 151.13 140.20 C 150.02 140.22 149.13 141.13 149.14 142.24 C 149.15 143.35 150.06 144.24 151.18 144.23 L 152.23 144.22 C 153.34 144.20 154.23 143.29 154.21 142.18 C 154.20 141.07 153.29 140.18 152.18 140.19 Z M 149.51 143.43 L 149.85 143.89 C 150.52 144.80 151.80 144.99 152.71 144.32 C 153.61 143.66 153.81 142.38 153.14 141.47 L 152.80 141.00 C 152.13 140.10 150.85 139.90 149.94 140.57 C 149.03 141.24 148.84 142.52 149.51 143.43 Z M 150.18 144.22 L 151.13 145.03 C 151.98 145.75 153.25 145.65 153.98 144.80 C 154.70 143.95 154.60 142.67 153.75 141.95 L 152.81 141.14 C 151.96 140.42 150.68 140.52 149.96 141.37 C 149.23 142.22 149.33 143.50 150.18 144.22 Z M 151.04 144.88 L 151.72 145.56 C 152.49 146.33 153.74 146.33 154.51 145.57 C 155.28 144.80 155.28 143.55 154.51 142.77 L 153.84 142.09 C 153.07 141.32 151.82 141.32 151.05 142.09 C 150.27 142.86 150.27 144.11 151.04 144.88 Z M 151.70 145.45 L 152.39 146.20 C 153.09 146.98 154.30 147.04 155.08 146.34 C 155.86 145.63 155.92 144.42 155.21 143.64 L 154.53 142.89 C 153.82 142.11 152.62 142.05 151.84 142.75 C 151.06 143.46 151.00 144.67 151.70 145.45 Z M 152.41 146.14 L 152.85 146.65 C 153.52 147.42 154.69 147.49 155.46 146.82 C 156.23 146.15 156.31 144.98 155.63 144.21 L 155.19 143.70 C 154.52 142.93 153.35 142.86 152.58 143.53 C 151.81 144.20 151.74 145.37 152.41 146.14 Z"
      fill="black"
      fill-rule="nonzero" /><path d="M 153.09 154.70 L 152.76 155.57 C 152.37 156.61 152.89 157.77 153.93 158.16 C 154.97 158.55 156.13 158.02 156.52 156.99 L 156.85 156.11 C 157.24 155.07 156.71 153.91 155.67 153.52 C 154.64 153.13 153.48 153.66 153.09 154.70 Z M 152.63 155.86 L 152.41 156.88 C 152.17 157.99 152.88 159.08 154.00 159.32 C 155.11 159.55 156.20 158.84 156.43 157.73 L 156.65 156.70 C 156.88 155.59 156.17 154.50 155.06 154.27 C 153.95 154.03 152.86 154.74 152.63 155.86 Z M 152.33 157.21 L 152.28 158.22 C 152.23 159.37 153.12 160.35 154.27 160.41 C 155.43 160.46 156.41 159.57 156.46 158.42 L 156.51 157.41 C 156.57 156.25 155.67 155.27 154.52 155.22 C 153.37 155.16 152.38 156.05 152.33 157.21 Z M 152.25 158.44 L 152.31 159.45 C 152.38 160.62 153.38 161.51 154.55 161.45 C 155.72 161.38 156.61 160.38 156.55 159.21 L 156.49 158.20 C 156.42 157.03 155.42 156.13 154.25 156.20 C 153.08 156.27 152.19 157.27 152.25 158.44 Z M 152.33 159.72 L 152.52 160.74 C 152.74 161.90 153.85 162.67 155.01 162.45 C 156.17 162.24 156.94 161.12 156.72 159.96 L 156.53 158.94 C 156.32 157.77 155.20 157.01 154.04 157.23 C 152.88 157.44 152.11 158.56 152.33 159.72 Z M 152.58 161.01 L 152.88 161.91 C 153.24 163.03 154.45 163.65 155.58 163.28 C 156.70 162.92 157.32 161.71 156.95 160.58 L 156.66 159.69 C 156.29 158.56 155.08 157.95 153.96 158.31 C 152.83 158.68 152.22 159.89 152.58 161.01 Z M 152.89 161.95 L 153.19 162.80 C 153.57 163.91 154.79 164.50 155.91 164.11 C 157.03 163.72 157.62 162.51 157.23 161.39 L 156.93 160.54 C 156.55 159.43 155.33 158.84 154.21 159.23 C 153.09 159.61 152.50 160.83 152.89 161.95 Z M 153.17 162.74 L 153.51 163.79 C 153.87 164.91 155.07 165.53 156.19 165.17 C 157.31 164.82 157.93 163.61 157.58 162.49 L 157.24 161.44 C 156.88 160.32 155.68 159.70 154.56 160.06 C 153.43 160.42 152.81 161.62 153.17 162.74 Z M 153.50 163.74 L 153.77 164.67 C 154.10 165.80 155.29 166.45 156.41 166.12 C 157.54 165.79 158.19 164.61 157.86 163.48 L 157.58 162.54 C 157.25 161.41 156.07 160.77 154.94 161.10 C 153.82 161.43 153.17 162.61 153.50 163.74 Z M 153.78 164.65 L 154.06 165.64 C 154.38 166.77 155.55 167.42 156.67 167.10 C 157.79 166.79 158.45 165.62 158.13 164.50 L 157.85 163.50 C 157.53 162.38 156.36 161.73 155.24 162.04 C 154.12 162.36 153.47 163.53 153.78 164.65 Z M 154.08 165.64 L 154.36 166.63 C 154.67 167.74 155.83 168.39 156.94 168.08 C 158.06 167.76 158.70 166.60 158.39 165.49 L 158.11 164.50 C 157.80 163.39 156.64 162.74 155.53 163.06 C 154.41 163.37 153.77 164.53 154.08 165.64 Z M 154.40 166.63 L 154.69 167.64 C 155.00 168.73 156.14 169.36 157.23 169.05 C 158.33 168.74 158.96 167.60 158.64 166.51 L 158.35 165.49 C 158.04 164.40 156.90 163.77 155.81 164.08 C 154.72 164.39 154.08 165.53 154.40 166.63 Z M 154.73 167.61 L 154.98 168.49 C 155.27 169.56 156.38 170.19 157.45 169.89 C 158.52 169.59 159.14 168.48 158.85 167.42 L 158.60 166.54 C 158.30 165.47 157.20 164.84 156.13 165.14 C 155.06 165.44 154.43 166.54 154.73 167.61 Z M 155.00 168.43 L 155.24 169.39 C 155.51 170.45 156.57 171.09 157.63 170.83 C 158.68 170.56 159.32 169.49 159.06 168.44 L 158.82 167.48 C 158.56 166.42 157.49 165.78 156.43 166.05 C 155.38 166.31 154.74 167.38 155.00 168.43 Z M 155.26 169.33 L 155.48 170.31 C 155.70 171.35 156.73 172.01 157.78 171.78 C 158.82 171.55 159.48 170.52 159.25 169.48 L 159.04 168.50 C 158.81 167.46 157.78 166.80 156.74 167.03 C 155.69 167.26 155.03 168.29 155.26 169.33 Z M 155.50 170.27 L 155.69 171.23 C 155.89 172.26 156.90 172.93 157.93 172.73 C 158.96 172.52 159.63 171.52 159.43 170.49 L 159.23 169.52 C 159.03 168.49 158.02 167.82 156.99 168.03 C 155.96 168.23 155.29 169.23 155.50 170.27 Z M 155.71 171.21 L 155.90 172.19 C 156.10 173.21 157.08 173.88 158.10 173.68 C 159.12 173.49 159.78 172.51 159.59 171.49 L 159.40 170.50 C 159.21 169.49 158.22 168.82 157.20 169.01 C 156.19 169.21 155.52 170.19 155.71 171.21 Z"
      fill="black"
      fill-rule="nonzero" /><path d="M 129.03 155.39 L 129.94 155.25 C 131.03 155.09 131.78 154.09 131.62 153.00 C 131.46 151.92 130.45 151.16 129.37 151.32 L 128.46 151.46 C 127.37 151.61 126.62 152.62 126.78 153.71 C 126.94 154.79 127.94 155.54 129.03 155.39 Z M 129.84 155.40 L 130.91 155.30 C 132.07 155.20 132.93 154.17 132.83 153.00 C 132.73 151.84 131.70 150.98 130.53 151.08 L 129.47 151.18 C 128.30 151.28 127.44 152.31 127.55 153.48 C 127.65 154.64 128.68 155.50 129.84 155.40 Z M 130.79 155.38 L 131.78 155.35 C 132.98 155.31 133.93 154.30 133.89 153.09 C 133.85 151.88 132.84 150.93 131.63 150.97 L 130.65 151.00 C 129.44 151.04 128.49 152.06 128.53 153.26 C 128.57 154.47 129.59 155.42 130.79 155.38 Z M 131.72 155.37 L 132.75 155.36 C 133.97 155.35 134.95 154.35 134.94 153.13 C 134.93 151.91 133.94 150.93 132.72 150.94 L 131.68 150.95 C 130.46 150.96 129.48 151.96 129.49 153.18 C 129.50 154.40 130.50 155.38 131.72 155.37 Z M 132.73 155.38 L 133.77 155.38 C 135.00 155.38 135.99 154.38 135.99 153.15 C 135.99 151.92 134.99 150.92 133.76 150.92 L 132.73 150.92 C 131.50 150.93 130.51 151.92 130.51 153.15 C 130.51 154.38 131.51 155.38 132.73 155.38 Z M 133.77 155.39 L 134.76 155.39 C 135.99 155.39 137.00 154.39 137.00 153.15 C 137.00 151.91 135.99 150.91 134.76 150.91 L 133.77 150.91 C 132.53 150.91 131.53 151.91 131.53 153.15 C 131.53 154.39 132.53 155.39 133.77 155.39 Z M 134.76 155.40 L 135.71 155.40 C 136.95 155.40 137.96 154.39 137.96 153.15 C 137.96 151.91 136.95 150.90 135.71 150.90 L 134.76 150.90 C 133.51 150.90 132.50 151.91 132.50 153.15 C 132.50 154.39 133.51 155.40 134.76 155.40 Z M 135.71 155.41 L 136.68 155.41 C 137.93 155.41 138.94 154.40 138.94 153.15 C 138.94 151.90 137.93 150.89 136.68 150.89 L 135.71 150.89 C 134.46 150.89 133.45 151.90 133.45 153.15 C 133.45 154.40 134.46 155.41 135.71 155.41 Z M 136.68 155.42 L 137.72 155.42 C 138.98 155.42 139.99 154.40 139.99 153.15 C 139.99 151.90 138.98 150.88 137.72 150.88 L 136.68 150.88 C 135.42 150.88 134.41 151.90 134.41 153.15 C 134.41 154.40 135.42 155.42 136.68 155.42 Z M 137.72 155.43 L 138.70 155.43 C 139.96 155.43 140.98 154.41 140.98 153.15 C 140.98 151.89 139.96 150.87 138.70 150.87 L 137.72 150.87 C 136.46 150.87 135.44 151.89 135.44 153.15 C 135.44 154.41 136.46 155.43 137.72 155.43 Z M 138.70 155.43 L 139.71 155.43 C 140.97 155.43 141.99 154.41 141.99 153.15 C 141.99 151.89 140.97 150.87 139.71 150.87 L 138.70 150.87 C 137.44 150.87 136.42 151.89 136.42 153.15 C 136.42 154.41 137.44 155.43 138.70 155.43 Z M 139.71 155.44 L 140.72 155.44 C 141.99 155.44 143.01 154.41 143.01 153.15 C 143.01 151.89 141.99 150.86 140.72 150.86 L 139.71 150.86 C 138.45 150.86 137.42 151.89 137.42 153.15 C 137.42 154.41 138.45 155.44 139.71 155.44 Z M 140.72 155.44 L 141.71 155.44 C 142.98 155.44 144.00 154.42 144.00 153.15 C 144.00 151.89 142.98 150.86 141.71 150.86 L 140.72 150.86 C 139.46 150.86 138.43 151.89 138.43 153.15 C 138.43 154.42 139.46 155.44 140.72 155.44 Z M 141.71 155.44 L 142.72 155.44 C 143.98 155.44 145.01 154.42 145.01 153.15 C 145.01 151.89 143.98 150.86 142.72 150.86 L 141.71 150.86 C 140.45 150.86 139.42 151.89 139.42 153.15 C 139.42 154.42 140.45 155.44 141.71 155.44 Z M 142.72 155.44 L 143.71 155.44 C 144.98 155.44 146.01 154.42 146.01 153.15 C 146.01 151.88 144.98 150.86 143.71 150.86 L 142.72 150.86 C 141.45 150.86 140.42 151.88 140.42 153.15 C 140.42 154.42 141.45 155.44 142.72 155.44 Z M 143.71 155.44 L 144.71 155.44 C 145.97 155.44 147.00 154.42 147.00 153.15 C 147.00 151.89 145.97 150.86 144.71 150.86 L 143.71 150.86 C 142.45 150.86 141.42 151.89 141.42 153.15 C 141.42 154.42 142.45 155.44 143.71 155.44 Z M 144.71 155.44 L 145.72 155.44 C 146.98 155.44 148.01 154.41 148.01 153.15 C 148.01 151.89 146.98 150.86 145.72 150.86 L 144.71 150.86 C 143.45 150.86 142.42 151.89 142.42 153.15 C 142.42 154.41 143.45 155.44 144.71 155.44 Z M 145.72 155.44 L 146.73 155.44 C 147.99 155.44 149.01 154.41 149.01 153.15 C 149.01 151.89 147.99 150.86 146.73 150.86 L 145.72 150.86 C 144.46 150.86 143.43 151.89 143.43 153.15 C 143.43 154.41 144.46 155.44 145.72 155.44 Z M 146.73 155.43 L 147.73 155.43 C 148.99 155.43 150.01 154.41 150.01 153.15 C 150.01 151.89 148.99 150.87 147.73 150.87 L 146.73 150.87 C 145.47 150.87 144.44 151.89 144.44 153.15 C 144.44 154.41 145.47 155.43 146.73 155.43 Z M 147.73 155.43 L 148.73 155.43 C 149.99 155.43 151.01 154.41 151.01 153.15 C 151.01 151.89 149.99 150.87 148.73 150.87 L 147.73 150.87 C 146.47 150.87 145.45 151.89 145.45 153.15 C 145.45 154.41 146.47 155.43 147.73 155.43 Z M 148.73 155.43 L 149.73 155.43 C 150.99 155.43 152.01 154.41 152.01 153.15 C 152.01 151.89 150.99 150.87 149.73 150.87 L 148.73 150.87 C 147.47 150.87 146.45 151.89 146.45 153.15 C 146.45 154.41 147.47 155.43 148.73 155.43 Z M 149.73 155.43 L 150.73 155.43 C 151.98 155.43 153.00 154.41 153.00 153.15 C 153.00 151.89 151.98 150.88 150.73 150.88 L 149.73 150.88 C 148.47 150.88 147.45 151.89 147.45 153.15 C 147.45 154.41 148.47 155.43 149.73 155.43 Z M 150.73 155.42 L 151.73 155.42 C 152.98 155.42 154.00 154.41 154.00 153.15 C 154.00 151.90 152.98 150.88 151.73 150.88 L 150.73 150.88 C 149.47 150.88 148.46 151.90 148.46 153.15 C 148.46 154.41 149.47 155.42 150.73 155.42 Z M 151.73 155.42 L 152.72 155.42 C 153.97 155.42 154.98 154.40 154.98 153.15 C 154.98 151.90 153.97 150.88 152.72 150.88 L 151.73 150.88 C 150.47 150.88 149.46 151.90 149.46 153.15 C 149.46 154.40 150.47 155.42 151.73 155.42 Z M 152.72 155.41 L 153.71 155.41 C 154.96 155.41 155.97 154.40 155.97 153.15 C 155.97 151.90 154.96 150.89 153.71 150.89 L 152.72 150.89 C 151.47 150.89 150.45 151.90 150.45 153.15 C 150.45 154.40 151.47 155.41 152.72 155.41 Z M 153.71 155.41 L 154.72 155.41 C 155.96 155.41 156.98 154.40 156.98 153.15 C 156.98 151.90 155.96 150.89 154.72 150.89 L 153.71 150.89 C 152.46 150.89 151.45 151.90 151.45 153.15 C 151.45 154.40 152.46 155.41 153.71 155.41 Z M 154.72 155.41 L 155.73 155.41 C 156.98 155.41 157.99 154.40 157.99 153.15 C 157.99 151.90 156.98 150.89 155.73 150.89 L 154.72 150.89 C 153.47 150.89 152.46 151.90 152.46 153.15 C 152.46 154.40 153.47 155.41 154.72 155.41 Z M 155.73 155.40 L 156.75 155.40 C 157.99 155.40 159.00 154.39 159.00 153.15 C 159.00 151.91 157.99 150.90 156.75 150.90 L 155.73 150.90 C 154.49 150.90 153.48 151.91 153.48 153.15 C 153.48 154.39 154.49 155.40 155.73 155.40 Z M 156.75 155.40 L 157.74 155.40 C 158.99 155.40 159.99 154.39 159.99 153.15 C 159.99 151.91 158.99 150.90 157.74 150.90 L 156.75 150.90 C 155.51 150.90 154.50 151.91 154.50 153.15 C 154.50 154.39 155.51 155.40 156.75 155.40 Z M 157.74 155.39 L 158.76 155.39 C 160.00 155.39 161.00 154.39 161.00 153.15 C 161.00 151.91 160.00 150.91 158.76 150.91 L 157.75 150.91 C 156.51 150.91 155.50 151.91 155.50 153.15 C 155.50 154.39 156.51 155.39 157.74 155.39 Z M 158.76 155.39 L 159.77 155.39 C 161.00 155.39 162.01 154.39 162.01 153.16 C 162.01 151.92 161.01 150.92 159.78 150.92 L 158.76 150.91 C 157.53 150.91 156.53 151.91 156.52 153.15 C 156.52 154.38 157.52 155.38 158.76 155.39 Z M 159.76 155.38 L 160.72 155.39 C 161.95 155.40 162.96 154.41 162.97 153.18 C 162.98 151.95 161.99 150.94 160.76 150.93 L 159.79 150.93 C 158.56 150.92 157.56 151.91 157.55 153.14 C 157.54 154.37 158.53 155.37 159.76 155.38 Z M 160.70 155.38 L 161.71 155.39 C 162.93 155.41 163.94 154.44 163.96 153.21 C 163.98 151.99 163.01 150.98 161.78 150.96 L 160.78 150.94 C 159.55 150.92 158.54 151.90 158.52 153.12 C 158.50 154.35 159.48 155.36 160.70 155.38 Z M 161.69 155.38 L 162.69 155.40 C 163.91 155.43 164.92 154.47 164.95 153.26 C 164.98 152.04 164.02 151.03 162.80 151.00 L 161.80 150.98 C 160.59 150.94 159.58 151.91 159.55 153.12 C 159.51 154.34 160.48 155.35 161.69 155.38 Z M 162.68 155.39 L 163.67 155.42 C 164.88 155.45 165.89 154.50 165.93 153.30 C 165.96 152.09 165.01 151.08 163.80 151.05 L 162.81 151.02 C 161.61 150.98 160.60 151.93 160.56 153.14 C 160.53 154.34 161.47 155.35 162.68 155.39 Z M 163.68 155.40 L 164.69 155.43 C 165.89 155.47 166.89 154.52 166.92 153.33 C 166.96 152.13 166.02 151.13 164.82 151.09 L 163.80 151.06 C 162.60 151.03 161.60 151.97 161.57 153.17 C 161.53 154.37 162.48 155.37 163.68 155.40 Z M 164.71 155.42 L 165.68 155.44 C 166.87 155.47 167.86 154.52 167.88 153.33 C 167.91 152.14 166.97 151.15 165.78 151.13 L 164.80 151.11 C 163.61 151.08 162.62 152.02 162.60 153.21 C 162.57 154.40 163.51 155.39 164.71 155.42 Z M 165.70 155.43 L 166.73 155.44 C 167.92 155.45 168.89 154.50 168.90 153.32 C 168.91 152.13 167.96 151.17 166.78 151.15 L 165.75 151.14 C 164.57 151.13 163.60 152.08 163.59 153.26 C 163.57 154.44 164.52 155.41 165.70 155.43 Z M 166.74 155.42 L 167.71 155.43 C 168.88 155.44 169.84 154.50 169.85 153.32 C 169.87 152.15 168.92 151.19 167.75 151.18 L 166.78 151.17 C 165.60 151.15 164.64 152.10 164.63 153.27 C 164.62 154.45 165.56 155.41 166.74 155.42 Z M 167.68 155.42 L 168.69 155.44 C 169.85 155.47 170.82 154.54 170.85 153.37 C 170.88 152.21 169.95 151.24 168.78 151.21 L 167.77 151.19 C 166.61 151.16 165.64 152.09 165.61 153.26 C 165.59 154.42 166.51 155.39 167.68 155.42 Z M 168.66 155.43 L 169.62 155.46 C 170.78 155.50 171.75 154.59 171.79 153.43 C 171.83 152.27 170.92 151.30 169.76 151.26 L 168.80 151.23 C 167.65 151.19 166.67 152.10 166.63 153.26 C 166.60 154.42 167.50 155.39 168.66 155.43 Z M 169.63 155.45 L 170.56 155.48 C 171.71 155.51 172.67 154.61 172.71 153.46 C 172.75 152.30 171.84 151.34 170.69 151.30 L 169.76 151.27 C 168.61 151.23 167.64 152.14 167.61 153.29 C 167.57 154.44 168.47 155.41 169.63 155.45 Z M 170.58 155.46 L 171.66 155.49 C 172.80 155.51 173.75 154.60 173.78 153.45 C 173.80 152.31 172.89 151.36 171.74 151.34 L 170.66 151.31 C 169.52 151.29 168.57 152.20 168.55 153.35 C 168.53 154.49 169.44 155.44 170.58 155.46 Z M 171.68 155.48 L 172.62 155.49 C 173.76 155.49 174.69 154.58 174.70 153.43 C 174.71 152.29 173.79 151.36 172.65 151.35 L 171.72 151.34 C 170.57 151.33 169.64 152.25 169.63 153.39 C 169.62 154.54 170.54 155.47 171.68 155.48 Z M 172.63 155.48 L 173.65 155.48 C 174.79 155.49 175.72 154.56 175.72 153.43 C 175.72 152.29 174.80 151.36 173.66 151.36 L 172.64 151.36 C 171.50 151.35 170.57 152.27 170.57 153.41 C 170.57 154.55 171.49 155.48 172.63 155.48 Z M 173.66 155.48 L 174.61 155.48 C 175.75 155.48 176.67 154.56 176.67 153.42 C 176.67 152.28 175.75 151.36 174.61 151.36 L 173.66 151.36 C 172.52 151.36 171.60 152.28 171.60 153.42 C 171.60 154.56 172.52 155.48 173.66 155.48 Z"
      fill="black"
      fill-rule="nonzero" /></svg>