<svg xmlns="http://www.w3.org/2000/svg" width="300" height="300" viewBox="0 0 300 300">
<path d="M 112.22 142.42 L 112.97 143.08 C 113.85 143.86 115.20 143.78 115.99 142.90 C 116.77 142.01 116.69 140.66 115.80 139.88 L 115.06 139.22 C 114.17 138.43 112.82 138.52 112.04 139.40 C 111.26 140.28 111.34 141.63 112.22 142.42 Z M 113.54 143.46 L 114.41 143.83 C 115.50 144.30 116.77 143.79 117.23 142.70 C 117.70 141.60 117.19 140.34 116.10 139.87 L 115.23 139.50 C 114.14 139.03 112.87 139.54 112.41 140.63 C 111.94 141.73 112.45 142.99 113.54 143.46 Z M 115.08 143.96 L 116.07 144.04 C 117.24 144.14 118.26 143.27 118.36 142.11 C 118.45 140.94 117.59 139.92 116.42 139.82 L 115.43 139.74 C 114.26 139.64 113.24 140.51 113.14 141.68 C 113.04 142.84 113.91 143.87 115.08 143.96 Z M 116.24 143.99 L 117.25 143.99 C 118.39 143.99 119.32 143.07 119.32 141.93 C 119.32 140.80 118.40 139.87 117.26 139.87 L 116.25 139.87 C 115.11 139.87 114.19 140.79 114.18 141.93 C 114.18 143.07 115.11 143.99 116.24 143.99 Z M 117.30 143.95 L 118.30 143.93 C 119.41 143.91 120.30 142.99 120.27 141.87 C 120.25 140.76 119.33 139.87 118.21 139.89 L 117.22 139.91 C 116.10 139.94 115.22 140.86 115.24 141.97 C 115.26 143.09 116.18 143.97 117.30 143.95 Z M 118.39 143.89 L 119.40 143.82 C 120.49 143.75 121.32 142.81 121.24 141.72 C 121.17 140.62 120.23 139.80 119.14 139.87 L 118.13 139.94 C 117.03 140.01 116.21 140.95 116.28 142.04 C 116.35 143.13 117.29 143.96 118.39 143.89 Z M 119.50 143.77 L 120.44 143.66 C 121.51 143.53 122.27 142.57 122.14 141.50 C 122.01 140.43 121.05 139.67 119.98 139.80 L 119.04 139.92 C 117.97 140.04 117.21 141.01 117.34 142.08 C 117.47 143.14 118.44 143.90 119.50 143.77 Z M 120.51 143.61 L 121.53 143.45 C 122.57 143.28 123.28 142.31 123.11 141.27 C 122.94 140.23 121.96 139.52 120.92 139.69 L 119.91 139.85 C 118.87 140.02 118.16 140.99 118.33 142.03 C 118.50 143.07 119.48 143.78 120.51 143.61 Z M 121.57 143.41 L 122.56 143.23 C 123.58 143.04 124.25 142.06 124.06 141.04 C 123.87 140.03 122.89 139.35 121.87 139.54 L 120.88 139.73 C 119.87 139.92 119.20 140.89 119.38 141.91 C 119.57 142.93 120.55 143.60 121.57 143.41 Z M 122.58 143.20 L 123.54 143.01 C 124.54 142.81 125.19 141.83 124.99 140.83 C 124.79 139.83 123.82 139.18 122.82 139.38 L 121.85 139.57 C 120.85 139.77 120.20 140.74 120.40 141.75 C 120.60 142.75 121.57 143.40 122.58 143.20 Z M 123.55 142.99 L 124.55 142.78 C 125.54 142.58 126.18 141.61 125.98 140.61 C 125.77 139.62 124.80 138.98 123.81 139.19 L 122.81 139.40 C 121.81 139.60 121.18 140.57 121.38 141.56 C 121.59 142.56 122.56 143.20 123.55 142.99 Z M 124.55 142.77 L 125.36 142.60 C 126.34 142.39 126.97 141.43 126.77 140.44 C 126.56 139.46 125.60 138.83 124.61 139.04 L 123.81 139.21 C 122.82 139.41 122.19 140.38 122.40 141.36 C 122.61 142.34 123.57 142.97 124.55 142.77 Z"
      fill="black"
      fill-rule="nonzero" /><path d="M 116.99 156.82 L 117.91 156.71 C 119.10 156.58 119.94 155.51 119.81 154.33 C 119.67 153.15 118.60 152.30 117.42 152.44 L 116.50 152.54 C 115.32 152.68 114.47 153.75 114.60 154.93 C 114.74 156.11 115.81 156.96 116.99 156.82 Z M 118.17 156.72 L 119.16 156.49 C 120.35 156.22 121.09 155.03 120.81 153.85 C 120.54 152.66 119.35 151.92 118.17 152.20 L 117.17 152.43 C 115.99 152.70 115.25 153.89 115.52 155.07 C 115.79 156.26 116.98 157.00 118.17 156.72 Z M 119.48 156.42 L 120.37 156.07 C 121.52 155.61 122.08 154.32 121.62 153.17 C 121.17 152.03 119.88 151.47 118.73 151.92 L 117.84 152.27 C 116.70 152.72 116.14 154.02 116.59 155.16 C 117.04 156.31 118.34 156.87 119.48 156.42 Z M 120.55 155.97 L 121.41 155.54 C 122.50 154.99 122.94 153.66 122.39 152.57 C 121.84 151.47 120.51 151.03 119.42 151.58 L 118.56 152.01 C 117.46 152.56 117.02 153.89 117.57 154.99 C 118.12 156.08 119.45 156.52 120.55 155.97 Z M 121.47 155.48 L 122.39 154.97 C 123.45 154.39 123.84 153.06 123.26 152.00 C 122.68 150.94 121.35 150.55 120.29 151.13 L 119.36 151.64 C 118.30 152.22 117.92 153.55 118.50 154.61 C 119.08 155.67 120.41 156.06 121.47 155.48 Z M 122.38 154.94 L 123.33 154.42 C 124.38 153.84 124.75 152.53 124.18 151.48 C 123.60 150.44 122.29 150.06 121.25 150.64 L 120.30 151.16 C 119.25 151.74 118.88 153.05 119.45 154.10 C 120.03 155.14 121.34 155.52 122.38 154.94 Z M 123.29 154.40 L 124.22 153.90 C 125.25 153.34 125.64 152.06 125.09 151.03 C 124.53 149.99 123.25 149.61 122.21 150.16 L 121.29 150.66 C 120.26 151.21 119.87 152.50 120.42 153.53 C 120.98 154.56 122.26 154.95 123.29 154.40 Z M 124.18 153.87 L 125.08 153.41 C 126.10 152.88 126.50 151.62 125.97 150.60 C 125.44 149.58 124.18 149.19 123.16 149.72 L 122.26 150.18 C 121.24 150.71 120.84 151.97 121.37 152.99 C 121.90 154.01 123.16 154.40 124.18 153.87 Z M 125.03 153.39 L 125.86 152.97 C 126.87 152.47 127.28 151.25 126.78 150.24 C 126.28 149.23 125.06 148.82 124.05 149.32 L 123.22 149.73 C 122.21 150.23 121.80 151.46 122.30 152.47 C 122.80 153.47 124.02 153.89 125.03 153.39 Z M 125.77 152.96 L 126.80 152.49 C 127.80 152.04 128.24 150.86 127.79 149.86 C 127.34 148.87 126.17 148.42 125.17 148.87 L 124.13 149.34 C 123.14 149.79 122.69 150.97 123.14 151.97 C 123.59 152.97 124.77 153.41 125.77 152.96 Z M 126.65 152.48 L 127.52 152.16 C 128.52 151.80 129.02 150.69 128.66 149.69 C 128.29 148.70 127.18 148.19 126.19 148.56 L 125.32 148.88 C 124.32 149.25 123.81 150.35 124.18 151.35 C 124.55 152.34 125.65 152.85 126.65 152.48 Z M 127.28 152.18 L 128.23 151.95 C 129.24 151.71 129.86 150.71 129.62 149.70 C 129.38 148.70 128.38 148.08 127.37 148.32 L 126.42 148.54 C 125.42 148.78 124.80 149.79 125.04 150.79 C 125.27 151.79 126.28 152.41 127.28 152.18 Z M 127.62 151.95 L 128.54 152.05 C 129.55 152.15 130.44 151.41 130.54 150.41 C 130.64 149.40 129.91 148.51 128.91 148.41 L 127.98 148.32 C 126.98 148.22 126.08 148.95 125.98 149.95 C 125.88 150.96 126.62 151.85 127.62 151.95 Z M 127.64 151.67 L 128.42 152.26 C 129.22 152.86 130.35 152.70 130.95 151.90 C 131.55 151.10 131.39 149.97 130.59 149.37 L 129.81 148.78 C 129.01 148.18 127.88 148.34 127.28 149.14 C 126.68 149.94 126.84 151.08 127.64 151.67 Z M 128.20 152.05 L 128.48 152.35 C 129.17 153.08 130.31 153.11 131.03 152.43 C 131.75 151.74 131.79 150.60 131.10 149.88 L 130.82 149.58 C 130.13 148.85 128.99 148.82 128.27 149.50 C 127.55 150.19 127.51 151.33 128.20 152.05 Z"
      fill="black"
      fill-rule="nonzero" /><path d="M 120.40 170.62 L 119.76 171.71 C 119.19 172.67 119.51 173.91 120.48 174.48 C 121.44 175.05 122.68 174.73 123.25 173.76 L 123.89 172.67 C 124.46 171.71 124.14 170.46 123.17 169.90 C 122.21 169.33 120.97 169.65 120.40 170.62 Z M 119.58 171.89 L 119.25 172.64 C 118.78 173.71 119.27 174.95 120.33 175.42 C 121.39 175.88 122.63 175.40 123.10 174.33 L 123.43 173.58 C 123.90 172.51 123.41 171.27 122.35 170.81 C 121.29 170.34 120.04 170.83 119.58 171.89 Z M 121.08 175.65 L 121.58 175.67 C 122.77 175.72 123.78 174.80 123.84 173.61 C 123.89 172.42 122.97 171.41 121.77 171.35 L 121.27 171.33 C 120.08 171.28 119.07 172.20 119.02 173.39 C 118.96 174.58 119.88 175.59 121.08 175.65 Z M 122.87 175.34 L 123.84 174.70 C 124.85 174.04 125.13 172.69 124.47 171.68 C 123.81 170.67 122.46 170.39 121.45 171.05 L 120.48 171.69 C 119.47 172.35 119.19 173.70 119.85 174.71 C 120.51 175.71 121.86 176.00 122.87 175.34 Z M 124.01 174.57 L 124.78 173.95 C 125.71 173.20 125.86 171.83 125.11 170.90 C 124.36 169.96 122.99 169.81 122.06 170.56 L 121.29 171.18 C 120.35 171.93 120.20 173.30 120.95 174.24 C 121.70 175.17 123.07 175.32 124.01 174.57 Z M 124.86 173.85 L 125.59 173.18 C 126.47 172.39 126.54 171.03 125.74 170.15 C 124.94 169.27 123.59 169.20 122.71 170.00 L 121.97 170.67 C 121.09 171.47 121.03 172.82 121.83 173.70 C 122.62 174.58 123.98 174.65 124.86 173.85 Z M 125.63 173.09 L 126.33 172.40 C 127.16 171.58 127.17 170.25 126.35 169.42 C 125.54 168.59 124.20 168.58 123.37 169.40 L 122.67 170.09 C 121.84 170.91 121.83 172.24 122.65 173.07 C 123.47 173.90 124.80 173.91 125.63 173.09 Z M 126.35 172.32 L 127.07 171.56 C 127.85 170.73 127.81 169.42 126.99 168.64 C 126.16 167.86 124.85 167.89 124.07 168.72 L 123.35 169.49 C 122.57 170.31 122.61 171.62 123.44 172.40 C 124.26 173.18 125.57 173.15 126.35 172.32 Z M 127.08 171.48 L 127.72 170.75 C 128.46 169.92 128.38 168.64 127.55 167.90 C 126.71 167.17 125.44 167.24 124.70 168.08 L 124.06 168.80 C 123.32 169.64 123.40 170.91 124.23 171.65 C 125.07 172.39 126.34 172.31 127.08 171.48 Z M 127.72 170.69 L 128.37 169.92 C 129.07 169.09 128.97 167.85 128.14 167.14 C 127.31 166.44 126.06 166.54 125.36 167.37 L 124.70 168.14 C 124.00 168.97 124.10 170.22 124.93 170.92 C 125.76 171.63 127.01 171.53 127.72 170.69 Z M 128.35 169.88 L 129.02 169.07 C 129.70 168.25 129.58 167.03 128.76 166.35 C 127.94 165.67 126.72 165.79 126.04 166.61 L 125.37 167.42 C 124.69 168.24 124.81 169.46 125.63 170.14 C 126.46 170.82 127.67 170.70 128.35 169.88 Z M 129.00 169.04 L 129.65 168.23 C 130.31 167.42 130.19 166.22 129.38 165.56 C 128.57 164.90 127.38 165.03 126.72 165.84 L 126.06 166.65 C 125.40 167.46 125.52 168.65 126.33 169.31 C 127.14 169.97 128.34 169.85 129.00 169.04 Z M 129.64 168.20 L 130.25 167.43 C 130.90 166.63 130.77 165.46 129.97 164.81 C 129.17 164.17 127.99 164.30 127.35 165.10 L 126.73 165.87 C 126.09 166.67 126.22 167.84 127.02 168.49 C 127.82 169.13 128.99 169.00 129.64 168.20 Z M 130.24 167.40 L 130.87 166.59 C 131.50 165.80 131.36 164.65 130.57 164.02 C 129.78 163.40 128.62 163.53 128.00 164.33 L 127.37 165.13 C 126.74 165.92 126.88 167.08 127.67 167.70 C 128.46 168.33 129.62 168.19 130.24 167.40 Z M 130.87 166.57 L 131.47 165.79 C 132.08 165.00 131.94 163.86 131.14 163.25 C 130.35 162.64 129.21 162.78 128.60 163.58 L 128.00 164.35 C 127.39 165.14 127.54 166.28 128.33 166.89 C 129.12 167.51 130.26 167.36 130.87 166.57 Z M 131.47 165.78 L 131.75 165.41 C 132.36 164.62 132.20 163.49 131.41 162.88 C 130.62 162.28 129.49 162.43 128.89 163.22 L 128.60 163.59 C 128.00 164.38 128.15 165.51 128.94 166.12 C 129.73 166.72 130.86 166.57 131.47 165.78 Z"
      fill="black"
      fill-rule="nonzero" /><path d="M 146.60 115.91 L 147.47 115.31 C 148.37 114.70 148.60 113.47 147.99 112.57 C 147.37 111.67 146.15 111.44 145.25 112.05 L 144.37 112.65 C 143.47 113.26 143.24 114.49 143.85 115.39 C 144.47 116.29 145.69 116.52 146.60 115.91 Z M 145.54 115.56 L 146.20 115.85 C 147.24 116.30 148.45 115.83 148.90 114.79 C 149.35 113.75 148.88 112.54 147.84 112.08 L 147.18 111.80 C 146.14 111.34 144.93 111.82 144.47 112.86 C 144.02 113.90 144.50 115.11 145.54 115.56 Z M 145.06 114.75 L 145.48 115.79 C 145.91 116.86 147.13 117.39 148.21 116.96 C 149.29 116.53 149.81 115.31 149.38 114.23 L 148.97 113.19 C 148.54 112.11 147.32 111.58 146.24 112.01 C 145.16 112.44 144.63 113.67 145.06 114.75 Z M 145.34 115.37 L 145.50 116.29 C 145.70 117.45 146.80 118.22 147.96 118.02 C 149.11 117.81 149.89 116.71 149.68 115.56 L 149.52 114.64 C 149.32 113.48 148.22 112.71 147.07 112.91 C 145.91 113.12 145.14 114.22 145.34 115.37 Z M 145.47 116.10 L 145.55 117.13 C 145.65 118.30 146.67 119.18 147.85 119.08 C 149.02 118.99 149.89 117.96 149.80 116.79 L 149.71 115.75 C 149.62 114.58 148.59 113.71 147.42 113.80 C 146.25 113.90 145.37 114.92 145.47 116.10 Z M 145.54 117.03 L 145.58 118.08 C 145.62 119.26 146.60 120.18 147.78 120.15 C 148.96 120.11 149.88 119.12 149.84 117.94 L 149.81 116.89 C 149.77 115.71 148.78 114.79 147.61 114.83 C 146.43 114.87 145.50 115.85 145.54 117.03 Z M 145.58 118.04 L 145.59 119.07 C 145.60 120.25 146.57 121.19 147.75 121.18 C 148.92 121.16 149.87 120.20 149.86 119.02 L 149.84 117.99 C 149.83 116.81 148.87 115.87 147.69 115.88 C 146.51 115.89 145.56 116.86 145.58 118.04 Z M 145.59 119.05 L 145.59 120.02 C 145.59 121.20 146.55 122.15 147.73 122.15 C 148.90 122.15 149.86 121.19 149.86 120.01 L 149.86 119.04 C 149.85 117.86 148.90 116.91 147.72 116.91 C 146.54 116.91 145.59 117.87 145.59 119.05 Z M 145.59 120.02 L 145.59 121.05 C 145.59 122.23 146.54 123.19 147.72 123.19 C 148.90 123.19 149.86 122.23 149.86 121.05 L 149.86 120.02 C 149.86 118.84 148.90 117.88 147.72 117.88 C 146.54 117.88 145.59 118.84 145.59 120.02 Z M 145.59 121.05 L 145.59 121.99 C 145.59 123.17 146.54 124.12 147.72 124.12 C 148.90 124.12 149.86 123.17 149.86 121.99 L 149.86 121.05 C 149.86 119.87 148.90 118.92 147.72 118.92 C 146.54 118.92 145.59 119.87 145.59 121.05 Z M 145.59 121.98 L 145.58 122.99 C 145.58 124.17 146.53 125.13 147.71 125.13 C 148.89 125.14 149.85 124.19 149.85 123.01 L 149.86 122.00 C 149.86 120.82 148.91 119.86 147.73 119.86 C 146.55 119.85 145.59 120.80 145.59 121.98 Z M 145.59 122.95 L 145.56 123.90 C 145.54 125.08 146.47 126.06 147.65 126.08 C 148.83 126.11 149.80 125.18 149.83 124.00 L 149.85 123.04 C 149.88 121.87 148.94 120.89 147.77 120.87 C 146.59 120.84 145.61 121.77 145.59 122.95 Z M 145.57 123.82 L 145.51 124.82 C 145.43 126.00 146.32 127.01 147.50 127.09 C 148.67 127.16 149.68 126.27 149.76 125.10 L 149.82 124.09 C 149.90 122.91 149.01 121.90 147.83 121.82 C 146.66 121.75 145.65 122.64 145.57 123.82 Z M 145.52 124.74 L 145.42 125.68 C 145.30 126.84 146.15 127.89 147.32 128.01 C 148.49 128.13 149.53 127.28 149.65 126.11 L 149.75 125.18 C 149.87 124.01 149.02 122.97 147.85 122.84 C 146.68 122.72 145.64 123.57 145.52 124.74 Z M 145.43 125.65 L 145.31 126.66 C 145.17 127.82 146.00 128.88 147.17 129.02 C 148.33 129.15 149.39 128.32 149.53 127.15 L 149.65 126.14 C 149.78 124.98 148.95 123.92 147.79 123.78 C 146.62 123.65 145.56 124.48 145.43 125.65 Z M 145.31 126.66 L 145.17 127.83 C 145.04 128.99 145.87 130.04 147.03 130.18 C 148.19 130.32 149.25 129.49 149.38 128.32 L 149.52 127.15 C 149.66 125.99 148.83 124.94 147.66 124.80 C 146.50 124.66 145.45 125.49 145.31 126.66 Z M 145.18 127.87 L 145.07 129.08 C 144.96 130.23 145.80 131.26 146.96 131.37 C 148.12 131.49 149.15 130.64 149.26 129.48 L 149.37 128.28 C 149.49 127.12 148.64 126.09 147.48 125.98 C 146.32 125.87 145.30 126.72 145.18 127.87 Z M 145.09 129.45 L 145.13 129.93 C 145.22 131.08 146.23 131.93 147.38 131.84 C 148.52 131.74 149.37 130.74 149.28 129.59 L 149.24 129.11 C 149.14 127.96 148.14 127.11 146.99 127.20 C 145.84 127.30 144.99 128.31 145.09 129.45 Z M 149.11 130.54 L 149.44 129.73 C 149.86 128.68 149.36 127.48 148.31 127.05 C 147.25 126.62 146.05 127.13 145.63 128.18 L 145.30 128.99 C 144.87 130.04 145.38 131.24 146.43 131.67 C 147.48 132.09 148.68 131.59 149.11 130.54 Z M 149.46 129.60 L 149.83 128.47 C 150.19 127.40 149.61 126.25 148.55 125.90 C 147.49 125.55 146.34 126.12 145.98 127.18 L 145.61 128.31 C 145.25 129.38 145.83 130.53 146.89 130.88 C 147.95 131.24 149.10 130.66 149.46 129.60 Z M 149.80 128.48 L 150.13 127.55 C 150.49 126.50 149.93 125.36 148.89 125.00 C 147.84 124.64 146.70 125.19 146.34 126.24 L 146.01 127.17 C 145.65 128.22 146.21 129.36 147.25 129.72 C 148.30 130.08 149.44 129.53 149.80 128.48 Z M 150.09 127.57 L 150.44 126.60 C 150.82 125.57 150.28 124.44 149.25 124.06 C 148.23 123.69 147.09 124.22 146.72 125.25 L 146.37 126.22 C 146.00 127.25 146.53 128.38 147.56 128.75 C 148.59 129.13 149.72 128.59 150.09 127.57 Z M 150.42 126.62 L 150.79 125.64 C 151.17 124.63 150.66 123.49 149.65 123.11 C 148.63 122.73 147.50 123.24 147.12 124.25 L 146.74 125.23 C 146.36 126.25 146.87 127.38 147.89 127.76 C 148.90 128.15 150.03 127.64 150.42 126.62 Z M 150.77 125.66 L 151.14 124.71 C 151.53 123.71 151.03 122.58 150.03 122.19 C 149.03 121.79 147.90 122.29 147.51 123.29 L 147.14 124.23 C 146.74 125.24 147.24 126.37 148.24 126.76 C 149.24 127.15 150.37 126.66 150.77 125.66 Z M 151.12 124.73 L 151.48 123.83 C 151.88 122.84 151.40 121.71 150.41 121.31 C 149.42 120.91 148.29 121.39 147.89 122.38 L 147.52 123.28 C 147.12 124.27 147.60 125.40 148.59 125.80 C 149.59 126.20 150.72 125.72 151.12 124.73 Z M 151.46 123.87 L 151.84 122.97 C 152.27 121.99 151.81 120.86 150.84 120.43 C 149.86 120.01 148.72 120.46 148.30 121.44 L 147.91 122.34 C 147.49 123.32 147.94 124.46 148.92 124.88 C 149.90 125.30 151.03 124.85 151.46 123.87 Z M 151.81 123.04 L 152.23 122.17 C 152.69 121.21 152.29 120.06 151.33 119.60 C 150.37 119.14 149.22 119.54 148.76 120.50 L 148.33 121.37 C 147.87 122.33 148.28 123.48 149.23 123.94 C 150.19 124.41 151.34 124.00 151.81 123.04 Z M 152.19 122.24 L 152.65 121.38 C 153.15 120.44 152.79 119.27 151.85 118.77 C 150.91 118.27 149.75 118.63 149.25 119.57 L 148.79 120.43 C 148.29 121.37 148.65 122.54 149.59 123.04 C 150.53 123.54 151.69 123.18 152.19 122.24 Z M 152.61 121.45 L 153.14 120.56 C 153.68 119.64 153.38 118.46 152.46 117.92 C 151.54 117.37 150.36 117.68 149.82 118.60 L 149.29 119.49 C 148.75 120.41 149.05 121.59 149.97 122.13 C 150.89 122.68 152.07 122.37 152.61 121.45 Z M 153.08 120.66 L 153.65 119.82 C 154.25 118.93 154.01 117.73 153.13 117.13 C 152.24 116.54 151.04 116.77 150.44 117.65 L 149.88 118.50 C 149.28 119.38 149.51 120.58 150.40 121.18 C 151.28 121.78 152.49 121.54 153.08 120.66 Z M 153.59 119.92 L 154.19 119.13 C 154.85 118.28 154.69 117.06 153.84 116.41 C 152.99 115.75 151.77 115.91 151.12 116.76 L 150.51 117.55 C 149.85 118.40 150.01 119.62 150.86 120.27 C 151.71 120.93 152.93 120.77 153.59 119.92 Z M 154.13 119.23 L 154.79 118.48 C 155.50 117.66 155.41 116.43 154.60 115.72 C 153.79 115.01 152.55 115.09 151.84 115.90 L 151.18 116.66 C 150.47 117.47 150.56 118.71 151.37 119.42 C 152.18 120.13 153.42 120.04 154.13 119.23 Z M 154.71 118.58 L 155.43 117.86 C 156.20 117.09 156.19 115.84 155.42 115.07 C 154.65 114.31 153.40 114.31 152.63 115.08 L 151.92 115.80 C 151.15 116.57 151.15 117.82 151.92 118.59 C 152.70 119.36 153.94 119.35 154.71 118.58 Z M 155.31 118.00 L 156.07 117.36 C 156.91 116.65 157.02 115.39 156.31 114.55 C 155.60 113.71 154.34 113.60 153.50 114.31 L 152.75 114.95 C 151.90 115.66 151.80 116.91 152.51 117.75 C 153.21 118.60 154.47 118.70 155.31 118.00 Z M 155.88 117.52 L 156.72 116.97 C 157.65 116.37 157.92 115.12 157.31 114.19 C 156.70 113.26 155.46 113.00 154.53 113.60 L 153.69 114.15 C 152.76 114.76 152.49 116.00 153.10 116.93 C 153.71 117.87 154.95 118.13 155.88 117.52 Z M 156.49 117.13 L 157.38 116.71 C 158.40 116.23 158.84 115.02 158.36 114.00 C 157.89 112.99 156.68 112.55 155.66 113.03 L 154.76 113.45 C 153.75 113.92 153.31 115.13 153.79 116.15 C 154.26 117.17 155.47 117.60 156.49 117.13 Z M 157.14 116.82 L 158.05 116.53 C 159.13 116.19 159.72 115.04 159.38 113.96 C 159.03 112.88 157.88 112.28 156.80 112.63 L 155.90 112.91 C 154.82 113.26 154.22 114.41 154.57 115.49 C 154.91 116.57 156.07 117.17 157.14 116.82 Z M 157.81 116.61 L 158.74 116.43 C 159.86 116.22 160.60 115.14 160.39 114.02 C 160.17 112.90 159.09 112.16 157.97 112.37 L 157.04 112.55 C 155.92 112.76 155.18 113.84 155.39 114.97 C 155.61 116.09 156.69 116.82 157.81 116.61 Z M 158.52 116.48 L 159.59 116.39 C 160.74 116.31 161.60 115.30 161.51 114.16 C 161.42 113.01 160.42 112.16 159.27 112.24 L 158.20 112.33 C 157.05 112.42 156.19 113.42 156.28 114.56 C 156.37 115.71 157.37 116.57 158.52 116.48 Z M 159.42 116.42 L 160.42 116.42 C 161.58 116.43 162.53 115.49 162.53 114.34 C 162.54 113.18 161.60 112.23 160.45 112.23 L 159.44 112.22 C 158.29 112.22 157.34 113.15 157.34 114.31 C 157.33 115.47 158.27 116.41 159.42 116.42 Z M 160.28 116.43 L 161.30 116.51 C 162.47 116.60 163.48 115.72 163.57 114.56 C 163.66 113.40 162.78 112.38 161.62 112.29 L 160.59 112.22 C 159.43 112.13 158.41 113.00 158.33 114.17 C 158.24 115.33 159.11 116.35 160.28 116.43 Z M 161.12 116.51 L 162.12 116.67 C 163.28 116.85 164.38 116.06 164.56 114.90 C 164.75 113.74 163.96 112.64 162.80 112.46 L 161.80 112.30 C 160.64 112.11 159.55 112.90 159.36 114.06 C 159.17 115.22 159.96 116.32 161.12 116.51 Z M 161.84 116.62 L 162.84 116.91 C 163.97 117.26 165.17 116.61 165.51 115.48 C 165.85 114.34 165.20 113.14 164.07 112.80 L 163.07 112.51 C 161.94 112.17 160.74 112.81 160.40 113.94 C 160.06 115.08 160.71 116.28 161.84 116.62 Z M 162.48 116.78 L 163.37 117.24 C 164.43 117.78 165.73 117.35 166.27 116.29 C 166.81 115.23 166.39 113.93 165.32 113.39 L 164.43 112.94 C 163.37 112.40 162.07 112.82 161.53 113.88 C 160.99 114.94 161.41 116.24 162.48 116.78 Z M 163.07 117.06 L 163.83 117.62 C 164.80 118.32 166.15 118.11 166.85 117.14 C 167.56 116.18 167.35 114.83 166.38 114.12 L 165.62 113.57 C 164.66 112.86 163.31 113.08 162.60 114.04 C 161.90 115.01 162.11 116.36 163.07 117.06 Z M 163.64 117.47 L 164.38 118.14 C 165.26 118.95 166.64 118.89 167.44 118.00 C 168.25 117.12 168.19 115.75 167.30 114.94 L 166.57 114.27 C 165.68 113.46 164.31 113.52 163.50 114.41 C 162.70 115.29 162.76 116.66 163.64 117.47 Z M 164.24 118.01 L 164.91 118.74 C 165.72 119.63 167.10 119.69 167.98 118.88 C 168.87 118.07 168.93 116.70 168.12 115.81 L 167.45 115.07 C 166.64 114.19 165.26 114.12 164.37 114.93 C 163.49 115.74 163.43 117.12 164.24 118.01 Z M 164.79 118.61 L 165.41 119.41 C 166.15 120.36 167.52 120.53 168.47 119.79 C 169.42 119.05 169.59 117.68 168.85 116.73 L 168.24 115.94 C 167.50 114.99 166.13 114.82 165.18 115.55 C 164.23 116.29 164.05 117.66 164.79 118.61 Z M 165.31 119.27 L 165.86 120.11 C 166.53 121.12 167.88 121.40 168.89 120.73 C 169.89 120.07 170.17 118.72 169.51 117.71 L 168.96 116.87 C 168.29 115.86 166.94 115.58 165.93 116.25 C 164.92 116.91 164.64 118.26 165.31 119.27 Z M 165.76 119.95 L 166.23 120.82 C 166.81 121.88 168.13 122.28 169.20 121.70 C 170.26 121.13 170.65 119.80 170.08 118.74 L 169.61 117.87 C 169.03 116.81 167.71 116.41 166.65 116.99 C 165.58 117.56 165.19 118.89 165.76 119.95 Z M 166.14 120.62 L 166.53 121.55 C 166.99 122.66 168.27 123.19 169.39 122.72 C 170.50 122.25 171.03 120.97 170.56 119.86 L 170.17 118.93 C 169.70 117.82 168.42 117.30 167.31 117.76 C 166.20 118.23 165.67 119.51 166.14 120.62 Z M 166.46 121.36 L 166.76 122.31 C 167.12 123.46 168.34 124.10 169.50 123.74 C 170.65 123.37 171.29 122.15 170.92 121.00 L 170.63 120.05 C 170.27 118.90 169.04 118.26 167.89 118.62 C 166.74 118.98 166.10 120.21 166.46 121.36 Z M 166.72 122.15 L 166.94 123.11 C 167.22 124.28 168.39 125.00 169.56 124.73 C 170.73 124.46 171.46 123.28 171.19 122.11 L 170.96 121.16 C 170.69 119.99 169.52 119.26 168.34 119.53 C 167.17 119.81 166.45 120.98 166.72 122.15 Z M 166.93 122.98 L 167.10 123.97 C 167.31 125.15 168.43 125.94 169.61 125.73 C 170.79 125.53 171.58 124.41 171.37 123.23 L 171.20 122.24 C 171.00 121.06 169.87 120.27 168.70 120.47 C 167.52 120.68 166.73 121.80 166.93 122.98 Z M 167.10 123.87 L 167.23 124.85 C 167.38 126.03 168.45 126.86 169.63 126.71 C 170.81 126.56 171.64 125.48 171.49 124.30 L 171.37 123.33 C 171.22 122.15 170.14 121.31 168.97 121.46 C 167.79 121.61 166.95 122.69 167.10 123.87 Z M 167.24 124.77 L 167.33 125.73 C 167.43 126.90 168.47 127.77 169.64 127.66 C 170.81 127.56 171.67 126.53 171.57 125.35 L 171.48 124.39 C 171.38 123.21 170.34 122.35 169.17 122.46 C 168.00 122.56 167.14 123.59 167.24 124.77 Z M 167.35 125.66 L 167.41 126.70 C 167.47 127.86 168.46 128.75 169.62 128.68 C 170.78 128.62 171.67 127.63 171.60 126.47 L 171.55 125.43 C 171.48 124.27 170.49 123.38 169.33 123.44 C 168.17 123.51 167.28 124.50 167.35 125.66 Z M 167.43 126.64 L 167.45 127.67 C 167.48 128.82 168.43 129.72 169.58 129.69 C 170.73 129.67 171.64 128.71 171.61 127.57 L 171.58 126.53 C 171.55 125.39 170.60 124.48 169.45 124.51 C 168.31 124.54 167.40 125.49 167.43 126.64 Z M 167.47 127.59 L 167.46 128.62 C 167.45 129.75 168.35 130.69 169.49 130.70 C 170.62 130.72 171.56 129.81 171.57 128.67 L 171.59 127.64 C 171.60 126.51 170.69 125.58 169.56 125.56 C 168.42 125.55 167.49 126.45 167.47 127.59 Z M 167.49 128.50 L 167.42 129.45 C 167.34 130.57 168.18 131.54 169.30 131.63 C 170.42 131.71 171.39 130.86 171.47 129.74 L 171.54 128.79 C 171.62 127.67 170.78 126.70 169.66 126.62 C 168.54 126.54 167.57 127.38 167.49 128.50 Z M 167.49 129.19 L 167.26 130.29 C 167.03 131.37 167.73 132.43 168.81 132.66 C 169.89 132.88 170.95 132.19 171.17 131.11 L 171.40 130.01 C 171.63 128.93 170.94 127.87 169.86 127.64 C 168.78 127.41 167.72 128.11 167.49 129.19 Z M 167.53 129.70 L 167.09 130.45 C 166.55 131.38 166.85 132.58 167.78 133.13 C 168.71 133.67 169.91 133.37 170.46 132.44 L 170.90 131.69 C 171.45 130.76 171.14 129.56 170.21 129.02 C 169.28 128.47 168.08 128.78 167.53 129.70 Z M 167.90 129.76 L 167.05 130.21 C 166.12 130.69 165.76 131.84 166.25 132.77 C 166.73 133.70 167.88 134.06 168.81 133.57 L 169.66 133.12 C 170.59 132.64 170.94 131.49 170.46 130.56 C 169.97 129.63 168.82 129.28 167.90 129.76 Z M 167.52 130.09 L 166.89 130.23 C 165.90 130.45 165.27 131.44 165.49 132.43 C 165.71 133.43 166.70 134.05 167.69 133.83 L 168.33 133.69 C 169.32 133.47 169.95 132.48 169.73 131.49 C 169.50 130.49 168.52 129.87 167.52 130.09 Z"
      fill="black"
      fill-rule="nonzero" /><path d="M 153.88 115.77 L 153.88 116.76 C 153.87 117.91 154.79 118.84 155.93 118.85 C 157.08 118.86 158.01 117.94 158.02 116.79 L 158.03 115.80 C 158.04 114.66 157.11 113.73 155.97 113.72 C 154.83 113.71 153.89 114.63 153.88 115.77 Z M 153.82 116.67 L 153.77 117.68 C 153.72 118.85 154.62 119.85 155.80 119.91 C 156.97 119.97 157.97 119.06 158.03 117.88 L 158.08 116.88 C 158.13 115.70 157.23 114.70 156.05 114.65 C 154.88 114.59 153.88 115.50 153.82 116.67 Z M 153.74 117.53 L 153.62 118.52 C 153.48 119.72 154.33 120.80 155.53 120.94 C 156.72 121.08 157.80 120.23 157.94 119.04 L 158.06 118.04 C 158.20 116.85 157.35 115.76 156.16 115.62 C 154.96 115.48 153.88 116.33 153.74 117.53 Z M 153.61 118.41 L 153.44 119.40 C 153.24 120.60 154.04 121.74 155.24 121.94 C 156.44 122.15 157.58 121.34 157.78 120.14 L 157.95 119.15 C 158.16 117.95 157.35 116.82 156.15 116.61 C 154.95 116.41 153.82 117.21 153.61 118.41 Z M 153.43 119.36 L 153.25 120.33 C 153.02 121.53 153.81 122.69 155.01 122.92 C 156.21 123.15 157.37 122.37 157.60 121.16 L 157.79 120.19 C 158.02 118.99 157.23 117.82 156.03 117.59 C 154.83 117.36 153.66 118.15 153.43 119.36 Z M 153.24 120.31 L 153.05 121.27 C 152.81 122.48 153.59 123.65 154.79 123.89 C 156.00 124.14 157.17 123.36 157.41 122.15 L 157.61 121.19 C 157.85 119.98 157.07 118.81 155.87 118.56 C 154.66 118.32 153.49 119.10 153.24 120.31 Z M 153.06 121.23 L 152.84 122.20 C 152.57 123.40 153.33 124.59 154.53 124.86 C 155.73 125.13 156.92 124.37 157.19 123.17 L 157.41 122.19 C 157.67 120.99 156.92 119.80 155.72 119.54 C 154.51 119.27 153.32 120.03 153.06 121.23 Z M 152.85 122.16 L 152.63 123.09 C 152.34 124.28 153.07 125.49 154.26 125.78 C 155.46 126.07 156.66 125.33 156.95 124.14 L 157.18 123.21 C 157.47 122.01 156.73 120.81 155.54 120.52 C 154.34 120.23 153.14 120.96 152.85 122.16 Z M 152.63 123.07 L 152.38 124.08 C 152.08 125.27 152.81 126.47 154.00 126.77 C 155.19 127.07 156.40 126.34 156.70 125.15 L 156.95 124.15 C 157.25 122.96 156.52 121.75 155.33 121.46 C 154.14 121.16 152.93 121.88 152.63 123.07 Z M 152.39 124.08 L 152.13 125.11 C 151.84 126.30 152.57 127.50 153.75 127.80 C 154.94 128.09 156.14 127.36 156.44 126.18 L 156.69 125.14 C 156.98 123.96 156.26 122.76 155.07 122.46 C 153.88 122.17 152.68 122.89 152.39 124.08 Z M 152.15 125.13 L 151.91 126.14 C 151.62 127.32 152.34 128.51 153.52 128.79 C 154.70 129.08 155.89 128.36 156.17 127.18 L 156.42 126.16 C 156.71 124.98 155.98 123.80 154.80 123.51 C 153.62 123.23 152.44 123.95 152.15 125.13 Z M 151.93 126.15 L 151.70 127.08 C 151.42 128.24 152.14 129.42 153.30 129.70 C 154.47 129.98 155.64 129.27 155.92 128.10 L 156.15 127.17 C 156.43 126.01 155.72 124.83 154.55 124.55 C 153.38 124.27 152.21 124.98 151.93 126.15 Z M 151.75 127.08 L 151.51 128.05 C 151.23 129.19 151.93 130.34 153.07 130.62 C 154.21 130.90 155.36 130.20 155.64 129.06 L 155.88 128.10 C 156.16 126.96 155.46 125.80 154.32 125.52 C 153.18 125.24 152.03 125.94 151.75 127.08 Z M 151.58 128.08 L 151.36 129.01 C 151.10 130.12 151.78 131.22 152.88 131.48 C 153.98 131.75 155.09 131.07 155.35 129.97 L 155.57 129.03 C 155.84 127.93 155.16 126.82 154.05 126.56 C 152.95 126.30 151.84 126.98 151.58 128.08 Z M 151.41 129.06 L 151.20 129.99 C 150.97 131.07 151.65 132.13 152.72 132.36 C 153.79 132.60 154.86 131.92 155.09 130.85 L 155.30 129.92 C 155.53 128.84 154.86 127.78 153.78 127.55 C 152.71 127.31 151.65 127.99 151.41 129.06 Z M 151.23 130.03 L 151.03 131.03 C 150.81 132.09 151.50 133.12 152.56 133.33 C 153.62 133.55 154.65 132.87 154.86 131.81 L 155.07 130.81 C 155.28 129.75 154.60 128.72 153.54 128.50 C 152.48 128.29 151.45 128.97 151.23 130.03 Z M 151.05 131.07 L 150.86 132.11 C 150.67 133.16 151.37 134.16 152.41 134.35 C 153.46 134.54 154.46 133.85 154.65 132.80 L 154.84 131.76 C 155.03 130.72 154.34 129.71 153.29 129.52 C 152.24 129.33 151.24 130.03 151.05 131.07 Z M 150.89 132.17 L 150.72 133.22 C 150.57 134.26 151.27 135.22 152.31 135.38 C 153.34 135.54 154.31 134.83 154.47 133.80 L 154.63 132.74 C 154.79 131.71 154.08 130.74 153.05 130.58 C 152.01 130.43 151.05 131.13 150.89 132.17 Z M 150.76 133.28 L 150.63 134.23 C 150.50 135.25 151.22 136.18 152.23 136.31 C 153.25 136.44 154.18 135.72 154.31 134.71 L 154.43 133.75 C 154.56 132.73 153.85 131.81 152.83 131.67 C 151.82 131.54 150.89 132.26 150.76 133.28 Z M 150.66 134.28 L 150.55 135.28 C 150.44 136.28 151.17 137.18 152.17 137.29 C 153.17 137.40 154.07 136.67 154.18 135.67 L 154.28 134.67 C 154.39 133.67 153.67 132.77 152.67 132.66 C 151.67 132.55 150.77 133.28 150.66 134.28 Z M 150.56 135.31 L 150.48 136.27 C 150.39 137.26 151.12 138.14 152.12 138.23 C 153.11 138.32 153.99 137.58 154.08 136.59 L 154.16 135.64 C 154.25 134.64 153.52 133.76 152.52 133.68 C 151.53 133.59 150.65 134.32 150.56 135.31 Z M 150.48 136.28 L 150.47 136.43 C 150.39 137.43 151.12 138.30 152.11 138.38 C 153.10 138.46 153.98 137.73 154.06 136.74 L 154.07 136.58 C 154.16 135.59 153.42 134.72 152.43 134.63 C 151.44 134.55 150.57 135.29 150.48 136.28 Z"
      fill="black"
      fill-rule="nonzero" /><path d="M 159.47 123.19 L 159.61 124.16 C 159.79 125.35 160.90 126.17 162.10 125.99 C 163.29 125.81 164.11 124.70 163.93 123.50 L 163.78 122.54 C 163.60 121.35 162.49 120.53 161.30 120.71 C 160.11 120.89 159.29 122.00 159.47 123.19 Z M 159.56 123.88 L 159.58 124.88 C 159.60 126.10 160.62 127.07 161.84 127.04 C 163.07 127.02 164.03 126.00 164.01 124.78 L 163.98 123.78 C 163.96 122.56 162.94 121.59 161.72 121.62 C 160.50 121.64 159.53 122.66 159.56 123.88 Z M 159.61 124.40 L 159.42 125.40 C 159.19 126.60 159.97 127.77 161.17 128.00 C 162.38 128.24 163.54 127.45 163.78 126.25 L 163.97 125.25 C 164.21 124.05 163.42 122.89 162.22 122.65 C 161.02 122.42 159.85 123.20 159.61 124.40 Z M 159.56 125.07 L 159.20 126.03 C 158.79 127.16 159.36 128.41 160.48 128.82 C 161.61 129.24 162.86 128.67 163.28 127.54 L 163.64 126.58 C 164.05 125.45 163.48 124.20 162.35 123.79 C 161.23 123.37 159.98 123.94 159.56 125.07 Z M 159.33 125.90 L 158.92 126.79 C 158.43 127.85 158.89 129.10 159.94 129.59 C 161.00 130.08 162.25 129.62 162.74 128.56 L 163.15 127.67 C 163.64 126.61 163.18 125.36 162.12 124.87 C 161.07 124.39 159.82 124.85 159.33 125.90 Z M 158.99 126.78 L 158.52 127.73 C 158.03 128.74 158.44 129.97 159.46 130.47 C 160.47 130.97 161.70 130.55 162.20 129.53 L 162.66 128.58 C 163.16 127.57 162.74 126.34 161.73 125.84 C 160.72 125.34 159.49 125.76 158.99 126.78 Z M 158.58 127.73 L 158.16 128.57 C 157.67 129.55 158.06 130.75 159.04 131.25 C 160.02 131.74 161.22 131.35 161.71 130.37 L 162.14 129.53 C 162.63 128.55 162.24 127.35 161.26 126.85 C 160.28 126.36 159.08 126.75 158.58 127.73 Z M 158.20 128.58 L 157.76 129.44 C 157.27 130.40 157.65 131.58 158.61 132.07 C 159.56 132.56 160.74 132.18 161.23 131.22 L 161.67 130.36 C 162.16 129.40 161.78 128.23 160.83 127.74 C 159.87 127.25 158.69 127.62 158.20 128.58 Z M 157.80 129.44 L 157.32 130.34 C 156.83 131.27 157.18 132.44 158.12 132.93 C 159.06 133.43 160.22 133.07 160.72 132.13 L 161.19 131.23 C 161.69 130.29 161.33 129.13 160.39 128.63 C 159.45 128.14 158.29 128.50 157.80 129.44 Z M 157.36 130.31 L 156.88 131.18 C 156.37 132.10 156.71 133.25 157.62 133.76 C 158.54 134.27 159.70 133.93 160.20 133.02 L 160.68 132.15 C 161.19 131.23 160.86 130.08 159.94 129.57 C 159.02 129.06 157.87 129.40 157.36 130.31 Z M 156.91 131.17 L 156.41 132.05 C 155.90 132.95 156.22 134.10 157.12 134.61 C 158.02 135.12 159.17 134.80 159.68 133.90 L 160.18 133.02 C 160.69 132.12 160.37 130.97 159.47 130.46 C 158.57 129.95 157.42 130.27 156.91 131.17 Z M 156.43 132.06 L 155.94 132.92 C 155.43 133.82 155.74 134.95 156.64 135.46 C 157.53 135.96 158.66 135.65 159.17 134.76 L 159.66 133.89 C 160.17 133.00 159.85 131.86 158.96 131.36 C 158.07 130.85 156.93 131.17 156.43 132.06 Z M 155.95 132.93 L 155.45 133.80 C 154.95 134.69 155.26 135.81 156.15 136.32 C 157.03 136.82 158.16 136.51 158.66 135.62 L 159.16 134.75 C 159.66 133.86 159.35 132.74 158.46 132.24 C 157.58 131.73 156.45 132.05 155.95 132.93 Z M 155.47 133.80 L 154.97 134.67 C 154.47 135.55 154.77 136.67 155.65 137.17 C 156.52 137.68 157.64 137.37 158.15 136.50 L 158.65 135.62 C 159.15 134.75 158.85 133.63 157.97 133.13 C 157.09 132.62 155.97 132.93 155.47 133.80 Z M 154.99 134.66 L 154.48 135.52 C 153.97 136.39 154.26 137.50 155.12 138.02 C 155.99 138.53 157.11 138.24 157.62 137.37 L 158.13 136.51 C 158.64 135.64 158.35 134.53 157.48 134.02 C 156.62 133.51 155.50 133.79 154.99 134.66 Z M 154.51 135.49 L 153.98 136.34 C 153.45 137.20 153.72 138.31 154.57 138.84 C 155.42 139.37 156.54 139.10 157.06 138.25 L 157.59 137.40 C 158.12 136.55 157.86 135.43 157.00 134.91 C 156.15 134.38 155.04 134.64 154.51 135.49 Z M 154.01 136.31 L 153.47 137.14 C 152.92 137.97 153.15 139.09 153.99 139.64 C 154.82 140.19 155.94 139.95 156.49 139.12 L 157.03 138.29 C 157.58 137.46 157.35 136.34 156.51 135.79 C 155.68 135.24 154.56 135.47 154.01 136.31 Z M 153.49 137.11 L 152.92 137.94 C 152.36 138.76 152.57 139.88 153.39 140.45 C 154.21 141.01 155.34 140.80 155.90 139.98 L 156.47 139.15 C 157.03 138.33 156.82 137.20 156.00 136.64 C 155.18 136.08 154.05 136.29 153.49 137.11 Z M 152.94 137.92 L 152.35 138.75 C 151.78 139.57 151.98 140.69 152.79 141.26 C 153.60 141.83 154.73 141.64 155.30 140.82 L 155.88 139.99 C 156.46 139.18 156.26 138.06 155.45 137.48 C 154.63 136.91 153.51 137.11 152.94 137.92 Z M 152.37 138.73 L 151.78 139.54 C 151.19 140.35 151.37 141.48 152.18 142.06 C 152.98 142.64 154.11 142.46 154.69 141.66 L 155.28 140.85 C 155.87 140.04 155.69 138.91 154.88 138.33 C 154.08 137.75 152.95 137.93 152.37 138.73 Z M 151.81 139.51 L 151.19 140.31 C 150.59 141.10 150.74 142.23 151.53 142.83 C 152.32 143.44 153.45 143.29 154.05 142.50 L 154.67 141.70 C 155.27 140.91 155.12 139.78 154.33 139.17 C 153.54 138.57 152.41 138.72 151.81 139.51 Z M 151.23 140.26 L 150.59 141.04 C 149.96 141.80 150.07 142.94 150.84 143.57 C 151.60 144.20 152.74 144.09 153.37 143.33 L 154.01 142.55 C 154.64 141.78 154.53 140.65 153.77 140.01 C 153.00 139.38 151.87 139.49 151.23 140.26 Z M 150.64 140.98 L 149.99 141.71 C 149.33 142.45 149.39 143.59 150.13 144.25 C 150.87 144.91 152.01 144.85 152.67 144.11 L 153.32 143.38 C 153.99 142.64 153.92 141.51 153.18 140.84 C 152.44 140.18 151.31 140.24 150.64 140.98 Z M 150.04 141.65 L 149.34 142.37 C 148.65 143.08 148.66 144.22 149.37 144.92 C 150.08 145.61 151.22 145.60 151.92 144.88 L 152.62 144.17 C 153.31 143.45 153.30 142.31 152.59 141.62 C 151.88 140.93 150.74 140.94 150.04 141.65 Z M 149.39 142.33 L 148.67 143.02 C 147.95 143.70 147.92 144.84 148.61 145.56 C 149.30 146.28 150.43 146.30 151.15 145.62 L 151.87 144.93 C 152.59 144.24 152.62 143.10 151.93 142.38 C 151.24 141.67 150.10 141.64 149.39 142.33 Z M 148.70 142.98 L 147.96 143.65 C 147.22 144.31 147.16 145.45 147.83 146.19 C 148.49 146.93 149.63 146.99 150.37 146.32 L 151.11 145.65 C 151.85 144.99 151.91 143.85 151.25 143.11 C 150.58 142.37 149.44 142.31 148.70 142.98 Z M 148.01 143.61 L 147.30 144.21 C 146.53 144.85 146.43 145.98 147.07 146.74 C 147.71 147.50 148.85 147.60 149.61 146.96 L 150.32 146.36 C 151.08 145.72 151.18 144.59 150.54 143.83 C 149.91 143.07 148.77 142.97 148.01 143.61 Z M 147.34 144.17 L 146.54 144.80 C 145.75 145.41 145.62 146.55 146.23 147.33 C 146.84 148.11 147.97 148.25 148.76 147.63 L 149.56 147.00 C 150.35 146.39 150.48 145.26 149.87 144.47 C 149.25 143.69 148.12 143.55 147.34 144.17 Z M 146.56 144.78 L 145.78 145.37 C 144.99 145.97 144.83 147.10 145.43 147.89 C 146.03 148.68 147.16 148.84 147.96 148.24 L 148.73 147.65 C 149.53 147.05 149.68 145.92 149.08 145.13 C 148.48 144.34 147.35 144.18 146.56 144.78 Z M 145.81 145.34 L 144.98 145.95 C 144.18 146.53 144.00 147.66 144.58 148.46 C 145.17 149.27 146.29 149.45 147.10 148.86 L 147.93 148.26 C 148.73 147.68 148.91 146.55 148.33 145.74 C 147.74 144.94 146.62 144.76 145.81 145.34 Z M 145.02 145.90 L 144.09 146.52 C 143.26 147.09 143.04 148.22 143.60 149.05 C 144.17 149.89 145.30 150.10 146.13 149.54 L 147.06 148.91 C 147.89 148.35 148.11 147.22 147.55 146.39 C 146.99 145.55 145.85 145.33 145.02 145.90 Z M 144.08 146.43 L 143.09 147.06 C 142.20 147.63 141.95 148.82 142.52 149.70 C 143.09 150.59 144.27 150.85 145.15 150.28 L 146.15 149.64 C 147.03 149.07 147.29 147.89 146.72 147.00 C 146.15 146.11 144.97 145.86 144.08 146.43 Z M 142.53 147.39 L 142.24 147.74 C 141.53 148.62 141.67 149.91 142.56 150.62 C 143.44 151.33 144.73 151.19 145.44 150.31 L 145.72 149.95 C 146.43 149.07 146.29 147.78 145.40 147.07 C 144.52 146.36 143.23 146.51 142.53 147.39 Z M 144.10 151.17 L 145.18 151.04 C 146.37 150.89 147.21 149.81 147.07 148.63 C 146.92 147.44 145.84 146.60 144.66 146.74 L 143.57 146.88 C 142.39 147.02 141.55 148.10 141.69 149.29 C 141.84 150.47 142.92 151.32 144.10 151.17 Z M 145.38 151.06 L 146.26 150.88 C 147.46 150.62 148.23 149.45 147.97 148.25 C 147.72 147.05 146.54 146.28 145.34 146.53 L 144.46 146.72 C 143.26 146.97 142.50 148.15 142.75 149.35 C 143.00 150.55 144.18 151.31 145.38 151.06 Z M 146.34 150.88 L 147.43 150.61 C 148.63 150.31 149.36 149.10 149.06 147.90 C 148.76 146.70 147.55 145.97 146.35 146.26 L 145.26 146.53 C 144.06 146.83 143.33 148.04 143.63 149.24 C 143.93 150.44 145.14 151.17 146.34 150.88 Z M 147.48 150.60 L 148.38 150.36 C 149.58 150.03 150.28 148.80 149.96 147.60 C 149.63 146.40 148.39 145.70 147.20 146.02 L 146.30 146.27 C 145.10 146.59 144.39 147.83 144.72 149.03 C 145.05 150.22 146.28 150.93 147.48 150.60 Z M 148.41 150.35 L 149.39 150.07 C 150.59 149.73 151.28 148.49 150.94 147.29 C 150.60 146.10 149.35 145.40 148.16 145.75 L 147.17 146.03 C 145.98 146.37 145.28 147.61 145.62 148.81 C 145.97 150.00 147.21 150.69 148.41 150.35 Z M 149.41 150.07 L 150.41 149.78 C 151.60 149.42 152.29 148.17 151.94 146.98 C 151.58 145.79 150.33 145.10 149.14 145.45 L 148.14 145.75 C 146.94 146.10 146.26 147.35 146.61 148.54 C 146.96 149.74 148.22 150.42 149.41 150.07 Z M 150.43 149.77 L 151.43 149.47 C 152.62 149.11 153.30 147.85 152.94 146.66 C 152.58 145.47 151.32 144.79 150.12 145.15 L 149.12 145.45 C 147.93 145.81 147.26 147.07 147.62 148.27 C 147.98 149.46 149.23 150.13 150.43 149.77 Z M 151.45 149.47 L 152.41 149.17 C 153.60 148.80 154.26 147.53 153.89 146.34 C 153.51 145.15 152.25 144.48 151.05 144.86 L 150.10 145.16 C 148.91 145.53 148.25 146.80 148.62 147.99 C 148.99 149.18 150.26 149.84 151.45 149.47 Z M 152.44 149.16 L 153.36 148.86 C 154.54 148.47 155.19 147.19 154.79 146.00 C 154.40 144.82 153.12 144.17 151.94 144.56 L 151.02 144.86 C 149.83 145.26 149.19 146.54 149.58 147.72 C 149.97 148.91 151.25 149.55 152.44 149.16 Z M 153.40 148.85 L 154.40 148.49 C 155.58 148.08 156.20 146.79 155.78 145.61 C 155.37 144.43 154.08 143.81 152.90 144.22 L 151.90 144.58 C 150.72 144.99 150.10 146.28 150.51 147.46 C 150.93 148.64 152.22 149.26 153.40 148.85 Z M 154.44 148.48 L 155.38 148.12 C 156.55 147.69 157.15 146.39 156.72 145.22 C 156.28 144.05 154.98 143.45 153.81 143.89 L 152.86 144.24 C 151.69 144.67 151.09 145.98 151.53 147.15 C 151.96 148.32 153.27 148.91 154.44 148.48 Z M 155.42 148.11 L 156.32 147.76 C 157.48 147.30 158.05 145.99 157.60 144.83 C 157.15 143.67 155.84 143.10 154.68 143.55 L 153.77 143.90 C 152.61 144.36 152.04 145.67 152.49 146.83 C 152.95 147.99 154.26 148.56 155.42 148.11 Z M 156.36 147.73 L 157.29 147.34 C 158.44 146.86 158.98 145.54 158.50 144.40 C 158.02 143.25 156.70 142.71 155.56 143.19 L 154.63 143.58 C 153.49 144.06 152.95 145.38 153.43 146.52 C 153.90 147.66 155.22 148.20 156.36 147.73 Z M 157.35 147.29 L 158.21 146.90 C 159.33 146.39 159.82 145.07 159.31 143.95 C 158.80 142.83 157.48 142.33 156.36 142.85 L 155.50 143.24 C 154.38 143.75 153.89 145.07 154.40 146.19 C 154.91 147.31 156.23 147.81 157.35 147.29 Z M 158.22 146.88 L 159.13 146.45 C 160.24 145.93 160.71 144.61 160.19 143.50 C 159.67 142.40 158.35 141.92 157.25 142.44 L 156.34 142.87 C 155.23 143.39 154.76 144.71 155.28 145.82 C 155.80 146.92 157.12 147.40 158.22 146.88 Z M 159.10 146.44 L 160.00 146.03 C 161.10 145.53 161.58 144.23 161.08 143.12 C 160.57 142.02 159.27 141.54 158.17 142.04 L 157.28 142.45 C 156.17 142.96 155.69 144.26 156.20 145.36 C 156.70 146.46 158.00 146.95 159.10 146.44 Z M 159.99 146.01 L 160.86 145.61 C 161.95 145.11 162.43 143.82 161.92 142.73 C 161.42 141.64 160.13 141.16 159.04 141.66 L 158.17 142.06 C 157.08 142.57 156.61 143.86 157.11 144.95 C 157.61 146.04 158.90 146.52 159.99 146.01 Z M 160.87 145.58 L 161.71 145.19 C 162.78 144.68 163.24 143.40 162.73 142.33 C 162.23 141.25 160.95 140.79 159.87 141.30 L 159.03 141.69 C 157.96 142.20 157.50 143.48 158.01 144.55 C 158.51 145.63 159.79 146.09 160.87 145.58 Z M 161.69 145.16 L 162.70 144.69 C 163.76 144.19 164.22 142.93 163.72 141.87 C 163.22 140.80 161.96 140.35 160.90 140.85 L 159.89 141.32 C 158.83 141.82 158.37 143.08 158.87 144.14 C 159.37 145.21 160.63 145.66 161.69 145.16 Z M 162.68 144.68 L 163.59 144.26 C 164.64 143.77 165.10 142.52 164.61 141.47 C 164.13 140.41 162.88 139.95 161.82 140.44 L 160.92 140.86 C 159.86 141.35 159.40 142.60 159.89 143.65 C 160.38 144.70 161.63 145.16 162.68 144.68 Z M 163.56 144.25 L 164.51 143.82 C 165.57 143.35 166.03 142.12 165.56 141.06 C 165.09 140.01 163.85 139.54 162.80 140.02 L 161.85 140.45 C 160.80 140.92 160.33 142.15 160.80 143.20 C 161.28 144.26 162.51 144.72 163.56 144.25 Z M 164.47 143.82 L 165.39 143.43 C 166.44 142.98 166.93 141.77 166.48 140.72 C 166.04 139.67 164.82 139.18 163.77 139.62 L 162.85 140.02 C 161.80 140.47 161.31 141.68 161.76 142.73 C 162.20 143.78 163.42 144.27 164.47 143.82 Z M 165.30 143.42 L 166.32 143.03 C 167.36 142.63 167.89 141.46 167.49 140.42 C 167.09 139.38 165.92 138.85 164.88 139.25 L 163.86 139.64 C 162.82 140.03 162.29 141.20 162.69 142.25 C 163.09 143.29 164.26 143.82 165.30 143.42 Z M 166.22 142.99 L 167.08 142.71 C 168.10 142.36 168.65 141.26 168.31 140.23 C 167.97 139.21 166.86 138.66 165.83 139.00 L 164.98 139.29 C 163.95 139.63 163.40 140.74 163.74 141.76 C 164.09 142.79 165.20 143.34 166.22 142.99 Z M 167.04 142.68 L 167.16 142.64 C 168.16 142.32 168.72 141.23 168.39 140.23 C 168.07 139.22 166.98 138.67 165.98 138.99 L 165.86 139.03 C 164.86 139.35 164.30 140.43 164.63 141.44 C 164.96 142.45 166.04 143.00 167.04 142.68 Z"
      fill="black"
      fill-rule="nonzero" /><path d="M 156.25 142.84 L 156.34 143.80 C 156.45 144.87 157.40 145.66 158.48 145.55 C 159.55 145.45 160.34 144.49 160.23 143.42 L 160.14 142.47 C 160.04 141.39 159.08 140.60 158.01 140.71 C 156.93 140.81 156.15 141.77 156.25 142.84 Z M 156.20 143.91 L 156.35 144.93 C 156.51 146.09 157.59 146.89 158.74 146.72 C 159.89 146.55 160.69 145.48 160.53 144.32 L 160.38 143.30 C 160.21 142.15 159.14 141.35 157.98 141.52 C 156.83 141.69 156.03 142.76 156.20 143.91 Z M 156.29 145.04 L 156.48 146.03 C 156.71 147.22 157.85 147.99 159.03 147.77 C 160.22 147.54 161.00 146.40 160.77 145.22 L 160.58 144.22 C 160.35 143.04 159.21 142.26 158.03 142.48 C 156.84 142.71 156.07 143.85 156.29 145.04 Z M 156.48 146.04 L 156.67 147.04 C 156.90 148.23 158.05 149.00 159.24 148.77 C 160.43 148.54 161.20 147.39 160.97 146.20 L 160.78 145.21 C 160.55 144.02 159.39 143.24 158.21 143.47 C 157.02 143.71 156.24 144.86 156.48 146.04 Z M 156.66 146.99 L 156.82 147.97 C 157.03 149.17 158.17 149.97 159.36 149.76 C 160.56 149.55 161.36 148.42 161.15 147.22 L 160.98 146.25 C 160.78 145.05 159.64 144.25 158.45 144.46 C 157.25 144.66 156.45 145.80 156.66 146.99 Z M 156.82 147.93 L 156.96 148.88 C 157.15 150.08 158.27 150.90 159.47 150.72 C 160.66 150.54 161.49 149.42 161.31 148.22 L 161.16 147.27 C 160.98 146.07 159.86 145.24 158.66 145.43 C 157.46 145.61 156.63 146.73 156.82 147.93 Z M 156.96 148.84 L 157.09 149.84 C 157.25 151.04 158.36 151.89 159.56 151.72 C 160.77 151.56 161.61 150.46 161.45 149.25 L 161.31 148.26 C 161.15 147.05 160.04 146.21 158.84 146.37 C 157.64 146.54 156.79 147.64 156.96 148.84 Z M 157.09 149.80 L 157.20 150.78 C 157.34 151.98 158.42 152.85 159.63 152.71 C 160.84 152.57 161.70 151.48 161.56 150.28 L 161.45 149.30 C 161.31 148.09 160.22 147.23 159.02 147.37 C 157.81 147.50 156.95 148.59 157.09 149.80 Z M 157.20 150.75 L 157.30 151.75 C 157.42 152.95 158.50 153.83 159.70 153.71 C 160.91 153.59 161.79 152.51 161.67 151.30 L 161.57 150.30 C 161.44 149.10 160.37 148.22 159.16 148.34 C 157.95 148.46 157.07 149.54 157.20 150.75 Z M 157.30 151.74 L 157.40 152.74 C 157.52 153.95 158.59 154.83 159.80 154.71 C 161.01 154.59 161.89 153.51 161.77 152.31 L 161.67 151.31 C 161.55 150.10 160.47 149.22 159.26 149.34 C 158.06 149.46 157.18 150.54 157.30 151.74 Z M 157.40 152.74 L 157.50 153.73 C 157.62 154.93 158.69 155.81 159.90 155.69 C 161.10 155.57 161.98 154.50 161.86 153.29 L 161.76 152.31 C 161.64 151.10 160.57 150.22 159.36 150.34 C 158.16 150.46 157.28 151.54 157.40 152.74 Z M 157.50 153.71 L 157.59 154.74 C 157.71 155.95 158.78 156.83 159.98 156.72 C 161.19 156.61 162.07 155.54 161.96 154.34 L 161.86 153.31 C 161.75 152.10 160.68 151.22 159.48 151.33 C 158.27 151.44 157.39 152.51 157.50 153.71 Z M 157.60 154.72 L 157.68 155.69 C 157.78 156.90 158.83 157.79 160.04 157.69 C 161.24 157.59 162.14 156.54 162.04 155.33 L 161.96 154.36 C 161.86 153.15 160.80 152.26 159.60 152.36 C 158.39 152.46 157.50 153.52 157.60 154.72 Z M 157.68 155.67 L 157.75 156.67 C 157.83 157.87 158.88 158.78 160.08 158.69 C 161.29 158.61 162.19 157.56 162.11 156.36 L 162.04 155.36 C 161.95 154.15 160.91 153.25 159.70 153.33 C 158.50 153.42 157.59 154.46 157.68 155.67 Z M 157.75 156.64 L 157.81 157.65 C 157.88 158.85 158.92 159.77 160.12 159.70 C 161.32 159.63 162.24 158.59 162.17 157.39 L 162.11 156.38 C 162.03 155.18 161.00 154.26 159.80 154.34 C 158.60 154.41 157.68 155.44 157.75 156.64 Z M 157.81 157.63 L 157.86 158.60 C 157.92 159.81 158.95 160.73 160.15 160.67 C 161.35 160.61 162.27 159.59 162.21 158.39 L 162.16 157.41 C 162.10 156.21 161.08 155.29 159.88 155.35 C 158.68 155.41 157.75 156.43 157.81 157.63 Z M 157.87 158.59 L 157.91 159.60 C 157.97 160.80 158.98 161.73 160.18 161.67 C 161.38 161.62 162.31 160.61 162.25 159.41 L 162.21 158.40 C 162.15 157.20 161.14 156.27 159.94 156.33 C 158.74 156.38 157.81 157.39 157.87 158.59 Z M 157.92 159.60 L 157.96 160.62 C 158.01 161.81 159.02 162.74 160.22 162.69 C 161.41 162.64 162.34 161.63 162.29 160.43 L 162.25 159.41 C 162.20 158.22 161.19 157.29 159.99 157.34 C 158.79 157.39 157.87 158.40 157.92 159.60 Z M 157.97 160.61 L 158.01 161.62 C 158.06 162.81 159.06 163.73 160.26 163.69 C 161.45 163.64 162.37 162.63 162.33 161.44 L 162.28 160.44 C 162.24 159.24 161.23 158.32 160.04 158.37 C 158.84 158.42 157.92 159.42 157.97 160.61 Z M 158.02 161.61 L 158.05 162.62 C 158.10 163.80 159.10 164.73 160.29 164.68 C 161.48 164.64 162.40 163.64 162.36 162.45 L 162.32 161.44 C 162.27 160.26 161.27 159.33 160.08 159.38 C 158.90 159.42 157.97 160.42 158.02 161.61 Z M 158.06 162.61 L 158.10 163.61 C 158.14 164.79 159.13 165.72 160.31 165.68 C 161.50 165.64 162.42 164.64 162.38 163.46 L 162.35 162.46 C 162.31 161.28 161.32 160.35 160.13 160.39 C 158.95 160.43 158.02 161.42 158.06 162.61 Z M 158.10 163.59 L 158.13 164.61 C 158.16 165.79 159.15 166.72 160.33 166.69 C 161.51 166.65 162.44 165.67 162.40 164.49 L 162.38 163.47 C 162.34 162.29 161.36 161.36 160.18 161.40 C 159.00 161.43 158.07 162.41 158.10 163.59 Z M 158.14 164.60 L 158.16 165.60 C 158.19 166.77 159.17 167.70 160.34 167.67 C 161.52 167.65 162.45 166.67 162.42 165.49 L 162.40 164.50 C 162.37 163.32 161.39 162.39 160.22 162.42 C 159.04 162.45 158.11 163.43 158.14 164.60 Z M 158.17 165.59 L 158.19 166.57 C 158.21 167.75 159.19 168.68 160.36 168.65 C 161.53 168.63 162.46 167.66 162.44 166.48 L 162.41 165.50 C 162.39 164.33 161.42 163.40 160.25 163.42 C 159.07 163.45 158.14 164.42 158.17 165.59 Z M 158.20 166.57 L 158.22 167.59 C 158.24 168.75 159.21 169.68 160.38 169.66 C 161.55 169.63 162.47 168.67 162.45 167.50 L 162.43 166.48 C 162.40 165.32 161.44 164.39 160.27 164.41 C 159.10 164.44 158.17 165.40 158.20 166.57 Z M 158.22 167.58 L 158.24 168.58 C 158.26 169.74 159.23 170.67 160.39 170.65 C 161.56 170.63 162.48 169.67 162.46 168.50 L 162.44 167.50 C 162.42 166.34 161.46 165.41 160.30 165.43 C 159.13 165.45 158.20 166.42 158.22 167.58 Z M 158.25 168.57 L 158.26 169.56 C 158.28 170.72 159.23 171.65 160.39 171.64 C 161.55 171.62 162.48 170.67 162.47 169.51 L 162.45 168.51 C 162.44 167.35 161.49 166.42 160.32 166.44 C 159.16 166.45 158.23 167.41 158.25 168.57 Z M 158.27 169.55 L 158.28 170.56 C 158.28 171.72 159.23 172.65 160.38 172.64 C 161.54 172.64 162.47 171.69 162.47 170.53 L 162.46 169.52 C 162.45 168.36 161.51 167.43 160.35 167.44 C 159.19 167.44 158.26 168.39 158.27 169.55 Z M 158.28 170.55 L 158.28 171.54 C 158.29 172.70 159.22 173.63 160.38 173.63 C 161.53 173.62 162.46 172.69 162.46 171.53 L 162.46 170.54 C 162.46 169.39 161.52 168.46 160.37 168.46 C 159.21 168.46 158.28 169.40 158.28 170.55 Z M 158.29 171.54 L 158.29 172.54 C 158.29 173.69 159.22 174.62 160.37 174.62 C 161.52 174.62 162.45 173.69 162.45 172.54 L 162.45 171.54 C 162.45 170.39 161.52 169.46 160.37 169.46 C 159.22 169.46 158.29 170.39 158.29 171.54 Z M 158.30 172.54 L 158.30 173.55 C 158.30 174.70 159.23 175.63 160.37 175.63 C 161.52 175.63 162.45 174.70 162.45 173.55 L 162.45 172.54 C 162.45 171.40 161.52 170.47 160.37 170.47 C 159.23 170.47 158.30 171.40 158.30 172.54 Z M 158.31 173.55 L 158.31 174.53 C 158.31 175.67 159.23 176.60 160.37 176.60 C 161.51 176.60 162.44 175.67 162.44 174.53 L 162.44 173.55 C 162.44 172.41 161.51 171.49 160.37 171.49 C 159.23 171.49 158.31 172.41 158.31 173.55 Z M 158.31 174.53 L 158.31 175.47 C 158.31 176.61 159.23 177.53 160.37 177.53 C 161.51 177.53 162.43 176.61 162.43 175.47 L 162.43 174.53 C 162.43 173.39 161.51 172.47 160.37 172.47 C 159.24 172.47 158.31 173.39 158.31 174.53 Z M 158.32 175.46 L 158.31 176.46 C 158.31 177.59 159.22 178.52 160.36 178.52 C 161.49 178.53 162.42 177.61 162.42 176.48 L 162.43 175.48 C 162.43 174.35 161.52 173.42 160.38 173.42 C 159.25 173.41 158.32 174.33 158.32 175.46 Z M 158.32 176.45 L 158.31 177.49 C 158.30 178.62 159.21 179.55 160.34 179.56 C 161.47 179.57 162.39 178.67 162.40 177.53 L 162.41 176.49 C 162.43 175.36 161.52 174.43 160.39 174.42 C 159.26 174.41 158.33 175.32 158.32 176.45 Z M 158.32 177.48 L 158.30 178.50 C 158.28 179.63 159.18 180.56 160.30 180.58 C 161.43 180.60 162.36 179.70 162.38 178.58 L 162.40 177.55 C 162.42 176.42 161.52 175.49 160.39 175.47 C 159.27 175.45 158.34 176.35 158.32 177.48 Z M 158.30 178.48 L 158.27 179.50 C 158.24 180.63 159.12 181.56 160.25 181.60 C 161.37 181.63 162.31 180.75 162.34 179.63 L 162.37 178.60 C 162.41 177.48 161.53 176.54 160.40 176.51 C 159.28 176.47 158.34 177.35 158.30 178.48 Z M 158.28 179.45 L 158.22 180.49 C 158.16 181.61 159.02 182.57 160.14 182.63 C 161.26 182.69 162.21 181.84 162.28 180.72 L 162.33 179.68 C 162.40 178.56 161.54 177.60 160.42 177.54 C 159.30 177.47 158.34 178.33 158.28 179.45 Z M 158.24 180.35 L 158.12 181.39 C 157.98 182.50 158.76 183.51 159.87 183.64 C 160.98 183.78 161.99 183.00 162.13 181.89 L 162.25 180.85 C 162.39 179.75 161.61 178.74 160.50 178.60 C 159.39 178.46 158.38 179.25 158.24 180.35 Z M 158.20 181.06 L 157.93 181.96 C 157.61 183.02 158.21 184.14 159.28 184.45 C 160.34 184.77 161.46 184.17 161.77 183.11 L 162.04 182.22 C 162.36 181.15 161.76 180.04 160.70 179.72 C 159.64 179.40 158.52 180.00 158.20 181.06 Z M 158.46 181.12 L 157.82 181.75 C 157.05 182.52 157.04 183.78 157.81 184.55 C 158.58 185.33 159.84 185.34 160.62 184.57 L 161.25 183.94 C 162.03 183.17 162.03 181.91 161.26 181.13 C 160.49 180.36 159.23 180.35 158.46 181.12 Z M 160.61 181.80 L 160.09 181.27 C 159.34 180.51 158.11 180.50 157.34 181.25 C 156.58 182.00 156.57 183.23 157.32 183.99 L 157.84 184.52 C 158.59 185.28 159.82 185.29 160.58 184.54 C 161.35 183.79 161.36 182.56 160.61 181.80 Z M 160.43 181.88 L 159.96 180.79 C 159.54 179.84 158.44 179.40 157.48 179.81 C 156.53 180.23 156.09 181.33 156.50 182.29 L 156.98 183.38 C 157.39 184.33 158.50 184.77 159.45 184.36 C 160.41 183.94 160.84 182.84 160.43 181.88 Z M 159.98 180.95 L 159.68 180.05 C 159.35 179.09 158.31 178.57 157.34 178.89 C 156.37 179.22 155.86 180.26 156.18 181.23 L 156.48 182.13 C 156.81 183.09 157.85 183.61 158.82 183.29 C 159.78 182.96 160.30 181.92 159.98 180.95 Z M 159.67 180.11 L 159.38 179.13 C 159.08 178.16 158.06 177.62 157.10 177.91 C 156.13 178.21 155.59 179.23 155.88 180.19 L 156.18 181.17 C 156.48 182.14 157.49 182.68 158.46 182.39 C 159.42 182.09 159.97 181.07 159.67 180.11 Z M 159.37 179.15 L 159.14 178.39 C 158.86 177.43 157.86 176.88 156.90 177.16 C 155.94 177.44 155.39 178.45 155.67 179.41 L 155.89 180.17 C 156.17 181.12 157.18 181.68 158.14 181.40 C 159.10 181.12 159.65 180.11 159.37 179.15 Z"
      fill="black"
      fill-rule="nonzero" /><path d="M 159.02 159.11 L 158.42 158.18 C 157.80 157.22 156.52 156.95 155.56 157.57 C 154.61 158.18 154.33 159.46 154.95 160.42 L 155.55 161.35 C 156.17 162.31 157.44 162.58 158.40 161.96 C 159.36 161.34 159.64 160.07 159.02 159.11 Z M 157.30 157.25 L 156.58 157.04 C 155.45 156.70 154.26 157.34 153.92 158.47 C 153.58 159.61 154.23 160.80 155.36 161.13 L 156.07 161.35 C 157.20 161.69 158.39 161.04 158.73 159.91 C 159.07 158.78 158.43 157.59 157.30 157.25 Z M 154.52 157.46 L 153.74 158.16 C 152.84 158.96 152.76 160.34 153.56 161.24 C 154.36 162.13 155.74 162.21 156.64 161.41 L 157.42 160.71 C 158.32 159.91 158.40 158.54 157.60 157.64 C 156.80 156.74 155.42 156.66 154.52 157.46 Z M 153.37 158.55 L 152.90 159.24 C 152.22 160.25 152.48 161.61 153.48 162.29 C 154.49 162.97 155.85 162.71 156.53 161.71 L 157.00 161.02 C 157.68 160.02 157.42 158.65 156.42 157.97 C 155.42 157.29 154.06 157.55 153.37 158.55 Z M 152.82 159.37 L 152.23 160.37 C 151.62 161.42 151.97 162.77 153.02 163.38 C 154.07 164.00 155.42 163.64 156.03 162.59 L 156.62 161.59 C 157.23 160.54 156.88 159.19 155.83 158.58 C 154.78 157.96 153.43 158.32 152.82 159.37 Z M 152.22 160.37 L 151.80 161.11 C 151.18 162.16 151.54 163.51 152.59 164.12 C 153.65 164.74 155.00 164.38 155.61 163.33 L 156.04 162.59 C 156.65 161.54 156.30 160.19 155.24 159.57 C 154.19 158.96 152.84 159.32 152.22 160.37 Z M 151.80 161.09 L 151.30 161.94 C 150.68 162.99 151.03 164.35 152.08 164.97 C 153.13 165.59 154.48 165.24 155.10 164.19 L 155.61 163.34 C 156.23 162.29 155.88 160.93 154.83 160.31 C 153.78 159.69 152.42 160.04 151.80 161.09 Z M 151.31 161.93 L 150.75 162.85 C 150.12 163.89 150.46 165.25 151.51 165.88 C 152.55 166.51 153.91 166.18 154.54 165.13 L 155.10 164.21 C 155.73 163.16 155.39 161.80 154.34 161.17 C 153.30 160.54 151.94 160.88 151.31 161.93 Z M 150.76 162.83 L 150.18 163.77 C 149.53 164.81 149.86 166.18 150.90 166.82 C 151.94 167.46 153.31 167.14 153.95 166.10 L 154.53 165.15 C 155.17 164.11 154.85 162.75 153.81 162.10 C 152.77 161.46 151.40 161.78 150.76 162.83 Z M 150.19 163.75 L 149.60 164.69 C 148.94 165.72 149.25 167.09 150.28 167.74 C 151.31 168.40 152.68 168.09 153.34 167.06 L 153.93 166.12 C 154.59 165.09 154.28 163.72 153.25 163.06 C 152.22 162.41 150.85 162.72 150.19 163.75 Z M 149.61 164.66 L 149.04 165.54 C 148.37 166.56 148.66 167.94 149.69 168.61 C 150.71 169.27 152.09 168.98 152.76 167.96 L 153.33 167.08 C 153.99 166.06 153.70 164.68 152.68 164.02 C 151.65 163.35 150.28 163.64 149.61 164.66 Z M 149.06 165.52 L 148.54 166.29 C 147.86 167.31 148.13 168.68 149.15 169.36 C 150.17 170.04 151.55 169.77 152.23 168.75 L 152.74 167.98 C 153.42 166.96 153.15 165.58 152.13 164.90 C 151.11 164.22 149.74 164.50 149.06 165.52 Z M 148.56 166.26 L 147.98 167.10 C 147.28 168.11 147.53 169.49 148.54 170.19 C 149.54 170.88 150.92 170.63 151.62 169.63 L 152.20 168.78 C 152.90 167.78 152.65 166.40 151.64 165.70 C 150.64 165.00 149.26 165.25 148.56 166.26 Z M 148.02 167.06 L 147.44 167.84 C 146.72 168.82 146.93 170.21 147.91 170.93 C 148.90 171.65 150.28 171.44 151.00 170.46 L 151.58 169.67 C 152.30 168.69 152.09 167.31 151.11 166.59 C 150.12 165.86 148.74 166.07 148.02 167.06 Z M 147.47 167.82 L 146.93 168.53 C 146.20 169.50 146.39 170.88 147.36 171.61 C 148.33 172.35 149.71 172.15 150.44 171.18 L 150.98 170.47 C 151.71 169.50 151.52 168.12 150.55 167.39 C 149.58 166.66 148.20 166.85 147.47 167.82 Z M 146.95 168.52 L 146.34 169.31 C 145.60 170.27 145.78 171.65 146.74 172.39 C 147.70 173.13 149.08 172.95 149.81 171.99 L 150.43 171.20 C 151.17 170.23 150.99 168.86 150.03 168.12 C 149.06 167.38 147.69 167.56 146.95 168.52 Z M 146.40 169.25 L 145.76 170.01 C 144.98 170.94 145.10 172.31 146.03 173.09 C 146.95 173.87 148.33 173.75 149.10 172.82 L 149.75 172.06 C 150.52 171.13 150.40 169.76 149.48 168.98 C 148.56 168.20 147.18 168.32 146.40 169.25 Z M 145.81 169.98 L 145.14 170.74 C 144.35 171.63 144.44 173.00 145.33 173.80 C 146.23 174.59 147.60 174.50 148.39 173.60 L 149.06 172.85 C 149.85 171.95 149.76 170.58 148.87 169.79 C 147.97 169.00 146.60 169.09 145.81 169.98 Z M 145.18 170.72 L 144.51 171.46 C 143.70 172.34 143.77 173.70 144.64 174.50 C 145.52 175.30 146.88 175.24 147.68 174.36 L 148.36 173.62 C 149.16 172.74 149.10 171.38 148.22 170.58 C 147.34 169.78 145.98 169.84 145.18 170.72 Z M 144.59 171.40 L 143.89 172.10 C 143.05 172.93 143.05 174.28 143.88 175.12 C 144.71 175.95 146.06 175.95 146.90 175.12 L 147.60 174.42 C 148.43 173.59 148.43 172.24 147.60 171.40 C 146.77 170.57 145.42 170.57 144.59 171.40 Z M 143.95 172.08 L 143.23 172.76 C 142.38 173.56 142.34 174.89 143.14 175.73 C 143.94 176.58 145.27 176.62 146.12 175.82 L 146.83 175.14 C 147.68 174.34 147.72 173.01 146.92 172.17 C 146.12 171.32 144.79 171.28 143.95 172.08 Z M 143.27 172.76 L 142.55 173.42 C 141.71 174.19 141.65 175.50 142.42 176.35 C 143.20 177.19 144.51 177.25 145.35 176.48 L 146.07 175.82 C 146.92 175.05 146.97 173.73 146.20 172.89 C 145.43 172.05 144.12 171.99 143.27 172.76 Z M 142.66 173.36 L 141.87 174.01 C 141.00 174.72 140.87 176.00 141.58 176.88 C 142.29 177.76 143.58 177.89 144.45 177.18 L 145.24 176.53 C 146.12 175.82 146.25 174.53 145.54 173.66 C 144.83 172.78 143.54 172.65 142.66 173.36 Z M 142.03 173.92 L 141.19 174.49 C 140.27 175.12 140.03 176.37 140.66 177.29 C 141.29 178.21 142.54 178.45 143.46 177.83 L 144.30 177.26 C 145.22 176.63 145.46 175.38 144.83 174.46 C 144.21 173.53 142.95 173.29 142.03 173.92 Z M 141.43 174.38 L 140.52 174.84 C 139.54 175.33 139.15 176.53 139.64 177.51 C 140.14 178.49 141.34 178.89 142.32 178.39 L 143.22 177.93 C 144.21 177.44 144.60 176.24 144.10 175.26 C 143.61 174.28 142.41 173.89 141.43 174.38 Z M 140.80 174.77 L 139.85 175.09 C 138.83 175.44 138.29 176.54 138.63 177.56 C 138.98 178.58 140.08 179.12 141.10 178.78 L 142.04 178.46 C 143.06 178.11 143.61 177.01 143.26 175.99 C 142.92 174.98 141.81 174.43 140.80 174.77 Z M 139.98 175.11 L 139.32 175.29 C 138.31 175.56 137.71 176.60 137.99 177.61 C 138.26 178.62 139.30 179.22 140.31 178.94 L 140.97 178.77 C 141.98 178.49 142.58 177.45 142.30 176.44 C 142.03 175.43 140.99 174.83 139.98 175.11 Z"
      fill="black"
      fill-rule="nonzero" /><path d="M 162.07 163.16 L 162.96 163.48 C 164.00 163.86 165.15 163.32 165.53 162.27 C 165.90 161.23 165.36 160.08 164.32 159.70 L 163.43 159.38 C 162.39 159.01 161.24 159.55 160.86 160.59 C 160.49 161.63 161.03 162.78 162.07 163.16 Z M 162.94 163.48 L 163.91 163.84 C 164.96 164.23 166.12 163.70 166.51 162.65 C 166.89 161.61 166.36 160.45 165.31 160.06 L 164.34 159.70 C 163.29 159.31 162.13 159.85 161.75 160.89 C 161.36 161.94 161.89 163.10 162.94 163.48 Z M 163.88 163.87 L 164.74 164.19 C 165.79 164.59 166.98 164.06 167.38 163.01 C 167.78 161.95 167.25 160.77 166.20 160.36 L 165.34 160.04 C 164.29 159.64 163.10 160.17 162.70 161.22 C 162.30 162.28 162.83 163.46 163.88 163.87 Z M 164.70 164.22 L 165.66 164.61 C 166.73 165.03 167.95 164.51 168.38 163.43 C 168.80 162.36 168.28 161.14 167.20 160.71 L 166.24 160.33 C 165.16 159.90 163.95 160.43 163.52 161.51 C 163.09 162.58 163.62 163.80 164.70 164.22 Z M 165.61 164.63 L 166.56 165.03 C 167.65 165.48 168.90 164.96 169.36 163.87 C 169.81 162.78 169.29 161.53 168.20 161.08 L 167.25 160.69 C 166.16 160.23 164.91 160.75 164.46 161.84 C 164.01 162.93 164.52 164.18 165.61 164.63 Z M 166.52 165.04 L 167.41 165.43 C 168.51 165.91 169.78 165.41 170.26 164.31 C 170.74 163.21 170.24 161.93 169.14 161.46 L 168.25 161.07 C 167.15 160.59 165.87 161.09 165.40 162.19 C 164.92 163.28 165.42 164.56 166.52 165.04 Z M 167.35 165.43 L 168.28 165.86 C 169.38 166.37 170.68 165.89 171.19 164.79 C 171.70 163.70 171.22 162.39 170.12 161.88 L 169.20 161.45 C 168.10 160.95 166.80 161.42 166.29 162.52 C 165.78 163.62 166.25 164.92 167.35 165.43 Z M 168.21 165.85 L 169.15 166.32 C 170.24 166.87 171.57 166.43 172.12 165.33 C 172.67 164.24 172.22 162.91 171.13 162.36 L 170.19 161.89 C 169.10 161.34 167.77 161.79 167.22 162.88 C 166.67 163.97 167.11 165.31 168.21 165.85 Z M 169.07 166.30 L 169.98 166.80 C 171.07 167.39 172.42 166.99 173.01 165.90 C 173.60 164.82 173.20 163.46 172.12 162.87 L 171.20 162.38 C 170.12 161.79 168.76 162.19 168.17 163.28 C 167.59 164.36 167.99 165.72 169.07 166.30 Z M 169.92 166.78 L 170.80 167.29 C 171.87 167.91 173.25 167.55 173.87 166.48 C 174.49 165.40 174.13 164.03 173.06 163.40 L 172.18 162.89 C 171.11 162.27 169.73 162.64 169.11 163.71 C 168.48 164.78 168.85 166.16 169.92 166.78 Z M 170.74 167.27 L 171.56 167.77 C 172.62 168.43 174.02 168.10 174.67 167.03 C 175.32 165.97 174.99 164.58 173.93 163.93 L 173.11 163.42 C 172.05 162.77 170.66 163.10 170.00 164.16 C 169.35 165.23 169.68 166.62 170.74 167.27 Z M 171.51 167.75 L 172.38 168.32 C 173.43 169.01 174.84 168.71 175.52 167.66 C 176.21 166.61 175.91 165.21 174.86 164.52 L 173.99 163.95 C 172.94 163.27 171.53 163.56 170.85 164.61 C 170.16 165.66 170.46 167.06 171.51 167.75 Z M 172.34 168.29 L 173.15 168.86 C 174.18 169.57 175.60 169.31 176.31 168.27 C 177.02 167.24 176.76 165.83 175.73 165.12 L 174.91 164.55 C 173.88 163.84 172.46 164.10 171.75 165.14 C 171.04 166.17 171.30 167.58 172.34 168.29 Z M 173.13 168.84 L 173.90 169.38 C 174.92 170.11 176.34 169.87 177.06 168.84 C 177.79 167.82 177.55 166.40 176.52 165.68 L 175.75 165.13 C 174.73 164.41 173.31 164.65 172.59 165.67 C 171.86 166.70 172.10 168.12 173.13 168.84 Z M 173.90 169.38 L 174.73 169.97 C 175.75 170.70 177.17 170.46 177.89 169.43 C 178.62 168.41 178.38 167.00 177.36 166.27 L 176.52 165.68 C 175.50 164.96 174.09 165.20 173.36 166.22 C 172.64 167.24 172.88 168.65 173.90 169.38 Z M 174.72 169.95 L 175.51 170.53 C 176.52 171.26 177.94 171.04 178.67 170.03 C 179.40 169.02 179.18 167.61 178.17 166.88 L 177.37 166.30 C 176.36 165.56 174.95 165.79 174.22 166.79 C 173.49 167.80 173.71 169.22 174.72 169.95 Z M 175.47 170.48 L 176.24 171.07 C 177.22 171.83 178.63 171.65 179.39 170.67 C 180.15 169.68 179.96 168.27 178.98 167.51 L 178.22 166.92 C 177.23 166.16 175.82 166.35 175.06 167.33 C 174.31 168.31 174.49 169.72 175.47 170.48 Z M 176.17 171.00 L 176.92 171.64 C 177.87 172.43 179.27 172.31 180.07 171.37 C 180.87 170.43 180.75 169.02 179.80 168.22 L 179.05 167.59 C 178.11 166.79 176.70 166.91 175.90 167.85 C 175.11 168.80 175.23 170.20 176.17 171.00 Z M 176.86 171.56 L 177.62 172.26 C 178.52 173.09 179.92 173.04 180.75 172.14 C 181.58 171.24 181.53 169.83 180.63 169.00 L 179.87 168.30 C 178.97 167.47 177.57 167.52 176.73 168.42 C 175.90 169.33 175.96 170.73 176.86 171.56 Z M 177.56 172.19 L 178.29 172.92 C 179.15 173.78 180.55 173.78 181.41 172.92 C 182.27 172.06 182.27 170.67 181.41 169.81 L 180.68 169.08 C 179.82 168.21 178.43 168.21 177.57 169.07 C 176.71 169.93 176.70 171.33 177.56 172.19 Z M 178.23 172.82 L 178.88 173.55 C 179.68 174.44 181.06 174.52 181.96 173.71 C 182.86 172.90 182.93 171.52 182.13 170.63 L 181.48 169.90 C 180.67 169.01 179.29 168.93 178.39 169.74 C 177.50 170.55 177.42 171.93 178.23 172.82 Z M 178.78 173.35 L 179.41 174.21 C 180.10 175.16 181.44 175.37 182.39 174.67 C 183.34 173.98 183.55 172.64 182.86 171.69 L 182.23 170.83 C 181.53 169.87 180.19 169.67 179.24 170.36 C 178.29 171.06 178.08 172.39 178.78 173.35 Z M 179.36 174.00 L 179.76 174.67 C 180.34 175.65 181.60 175.97 182.58 175.39 C 183.56 174.81 183.88 173.55 183.30 172.57 L 182.90 171.90 C 182.32 170.92 181.06 170.60 180.08 171.18 C 179.11 171.76 178.78 173.02 179.36 174.00 Z"
      fill="black"
      fill-rule="nonzero" /></svg>