<svg xmlns="http://www.w3.org/2000/svg" width="300" height="300" viewBox="0 0 300 300">
<path d="M 125.11 136.45 L 126.09 136.57 C 127.30 136.72 128.40 135.86 128.55 134.65 C 128.70 133.44 127.85 132.34 126.64 132.19 L 125.66 132.07 C 124.45 131.92 123.35 132.77 123.20 133.98 C 123.04 135.19 123.90 136.30 125.11 136.45 Z M 126.18 136.60 L 127.19 136.69 C 128.42 136.79 129.49 135.88 129.60 134.65 C 129.70 133.42 128.79 132.34 127.56 132.24 L 126.55 132.16 C 125.32 132.05 124.24 132.97 124.14 134.20 C 124.04 135.42 124.95 136.50 126.18 136.60 Z M 127.34 136.66 L 128.30 136.68 C 129.51 136.70 130.51 135.73 130.53 134.51 C 130.55 133.30 129.58 132.30 128.37 132.28 L 127.41 132.26 C 126.19 132.24 125.19 133.21 125.17 134.43 C 125.15 135.64 126.12 136.65 127.34 136.66 Z M 128.44 136.59 L 129.46 136.54 C 130.62 136.48 131.52 135.49 131.46 134.32 C 131.40 133.15 130.41 132.26 129.24 132.32 L 128.23 132.37 C 127.06 132.43 126.16 133.42 126.22 134.59 C 126.28 135.75 127.28 136.65 128.44 136.59 Z M 129.58 136.45 L 130.57 136.34 C 131.69 136.21 132.49 135.21 132.36 134.09 C 132.24 132.97 131.23 132.17 130.12 132.30 L 129.12 132.41 C 128.01 132.53 127.20 133.54 127.33 134.65 C 127.45 135.77 128.46 136.57 129.58 136.45 Z M 130.64 136.26 L 131.63 136.11 C 132.70 135.95 133.44 134.94 133.27 133.87 C 133.11 132.79 132.11 132.06 131.03 132.22 L 130.05 132.37 C 128.97 132.54 128.24 133.54 128.40 134.61 C 128.56 135.69 129.57 136.42 130.64 136.26 Z M 131.65 136.04 L 132.66 135.87 C 133.70 135.69 134.40 134.71 134.22 133.67 C 134.04 132.64 133.06 131.94 132.02 132.12 L 131.01 132.29 C 129.97 132.46 129.28 133.45 129.45 134.49 C 129.63 135.52 130.61 136.22 131.65 136.04 Z M 132.66 135.83 L 133.64 135.66 C 134.65 135.48 135.33 134.52 135.16 133.51 C 134.98 132.49 134.02 131.81 133.01 131.99 L 132.02 132.16 C 131.01 132.33 130.33 133.30 130.51 134.31 C 130.68 135.32 131.64 136.00 132.66 135.83 Z M 133.63 135.63 L 134.62 135.46 C 135.62 135.29 136.29 134.34 136.12 133.34 C 135.95 132.34 135.00 131.67 134.00 131.84 L 133.01 132.01 C 132.01 132.19 131.34 133.14 131.51 134.13 C 131.69 135.13 132.63 135.80 133.63 135.63 Z M 134.62 135.44 L 135.33 135.32 C 136.31 135.15 136.98 134.21 136.81 133.23 C 136.64 132.24 135.70 131.58 134.71 131.74 L 134.00 131.87 C 133.02 132.04 132.35 132.97 132.52 133.96 C 132.69 134.95 133.63 135.61 134.62 135.44 Z"
      fill="black"
      fill-rule="nonzero" /><path d="M 124.95 152.04 L 125.90 151.97 C 127.13 151.88 128.05 150.81 127.96 149.59 C 127.88 148.36 126.81 147.43 125.58 147.52 L 124.63 147.59 C 123.41 147.67 122.48 148.74 122.57 149.97 C 122.65 151.20 123.72 152.12 124.95 152.04 Z M 126.24 151.98 L 127.25 151.75 C 128.49 151.48 129.27 150.25 128.99 149.01 C 128.71 147.78 127.48 147.00 126.25 147.28 L 125.23 147.51 C 124.00 147.78 123.22 149.01 123.50 150.25 C 123.78 151.48 125.01 152.26 126.24 151.98 Z M 127.56 151.68 L 128.51 151.32 C 129.70 150.87 130.31 149.55 129.86 148.35 C 129.42 147.16 128.09 146.55 126.90 147.00 L 125.94 147.36 C 124.75 147.80 124.14 149.13 124.59 150.32 C 125.04 151.52 126.36 152.12 127.56 151.68 Z M 128.60 151.25 L 129.53 150.85 C 130.69 150.36 131.23 149.02 130.73 147.86 C 130.24 146.71 128.90 146.17 127.74 146.67 L 126.81 147.07 C 125.65 147.56 125.12 148.90 125.61 150.06 C 126.11 151.21 127.44 151.75 128.60 151.25 Z M 129.52 150.81 L 130.45 150.41 C 131.59 149.93 132.11 148.61 131.63 147.48 C 131.14 146.35 129.83 145.82 128.70 146.31 L 127.76 146.71 C 126.63 147.19 126.10 148.50 126.59 149.64 C 127.07 150.77 128.38 151.30 129.52 150.81 Z M 130.42 150.37 L 131.30 150.00 C 132.41 149.53 132.93 148.25 132.46 147.14 C 131.99 146.04 130.72 145.52 129.61 145.98 L 128.73 146.35 C 127.62 146.82 127.10 148.10 127.57 149.20 C 128.03 150.31 129.31 150.83 130.42 150.37 Z M 131.29 149.95 L 132.21 149.56 C 133.29 149.10 133.80 147.85 133.34 146.76 C 132.88 145.68 131.63 145.17 130.54 145.63 L 129.62 146.02 C 128.54 146.48 128.03 147.74 128.49 148.82 C 128.95 149.91 130.20 150.41 131.29 149.95 Z M 132.21 149.52 L 133.12 149.12 C 134.18 148.66 134.67 147.43 134.21 146.37 C 133.75 145.31 132.52 144.82 131.46 145.28 L 130.55 145.68 C 129.49 146.14 129.00 147.37 129.46 148.43 C 129.92 149.49 131.15 149.97 132.21 149.52 Z M 133.06 149.09 L 133.99 148.71 C 135.04 148.29 135.54 147.09 135.11 146.05 C 134.68 145.01 133.49 144.51 132.45 144.93 L 131.52 145.31 C 130.48 145.74 129.98 146.93 130.40 147.97 C 130.83 149.02 132.02 149.52 133.06 149.09 Z M 133.90 148.69 L 134.84 148.35 C 135.88 147.97 136.41 146.83 136.03 145.79 C 135.65 144.76 134.51 144.23 133.48 144.61 L 132.54 144.95 C 131.50 145.33 130.97 146.47 131.35 147.51 C 131.73 148.54 132.87 149.07 133.90 148.69 Z M 134.80 148.32 L 135.70 148.00 C 136.72 147.65 137.26 146.54 136.91 145.53 C 136.55 144.51 135.45 143.97 134.43 144.33 L 133.52 144.64 C 132.51 144.99 131.97 146.10 132.32 147.11 C 132.67 148.13 133.78 148.67 134.80 148.32 Z M 135.64 147.98 L 136.63 147.67 C 137.64 147.35 138.19 146.28 137.87 145.28 C 137.56 144.27 136.49 143.72 135.48 144.03 L 134.49 144.35 C 133.49 144.67 132.93 145.74 133.25 146.74 C 133.57 147.74 134.64 148.30 135.64 147.98 Z M 136.55 147.66 L 137.49 147.40 C 138.49 147.13 139.08 146.10 138.81 145.10 C 138.54 144.10 137.50 143.51 136.50 143.78 L 135.56 144.04 C 134.56 144.31 133.97 145.35 134.25 146.35 C 134.52 147.35 135.55 147.94 136.55 147.66 Z M 137.38 147.41 L 138.38 147.20 C 139.39 146.99 140.03 146.00 139.82 145.00 C 139.61 143.99 138.62 143.35 137.62 143.56 L 136.61 143.77 C 135.61 143.99 134.97 144.97 135.18 145.98 C 135.39 146.98 136.38 147.63 137.38 147.41 Z M 138.22 147.21 L 139.23 147.09 C 140.24 146.97 140.96 146.06 140.84 145.05 C 140.72 144.04 139.80 143.31 138.79 143.43 L 137.78 143.55 C 136.77 143.67 136.05 144.59 136.17 145.60 C 136.29 146.61 137.21 147.33 138.22 147.21 Z M 139.10 147.08 L 140.09 147.03 C 141.09 146.98 141.86 146.13 141.82 145.12 C 141.77 144.12 140.91 143.35 139.91 143.40 L 138.92 143.44 C 137.92 143.49 137.14 144.35 137.19 145.35 C 137.24 146.36 138.09 147.13 139.10 147.08 Z M 140.05 147.02 L 140.30 147.01 C 141.29 146.98 142.08 146.15 142.05 145.15 C 142.02 144.15 141.18 143.37 140.19 143.40 L 139.94 143.41 C 138.94 143.44 138.16 144.27 138.19 145.27 C 138.22 146.27 139.06 147.05 140.05 147.02 Z"
      fill="black"
      fill-rule="nonzero" /><path d="M 127.54 176.13 L 128.46 175.89 C 129.67 175.58 130.40 174.34 130.08 173.12 C 129.76 171.91 128.52 171.18 127.31 171.50 L 126.40 171.74 C 125.18 172.05 124.46 173.29 124.77 174.51 C 125.09 175.72 126.33 176.45 127.54 176.13 Z M 128.75 175.86 L 129.72 175.47 C 130.92 174.99 131.50 173.63 131.02 172.44 C 130.54 171.24 129.18 170.66 127.98 171.14 L 127.01 171.53 C 125.82 172.01 125.24 173.37 125.72 174.57 C 126.20 175.76 127.56 176.34 128.75 175.86 Z M 129.98 175.32 L 130.86 174.82 C 131.97 174.20 132.36 172.80 131.74 171.69 C 131.12 170.58 129.71 170.18 128.60 170.80 L 127.73 171.30 C 126.62 171.92 126.22 173.32 126.84 174.43 C 127.47 175.54 128.87 175.94 129.98 175.32 Z M 130.91 174.67 L 131.77 174.13 C 132.79 173.48 133.10 172.11 132.44 171.09 C 131.79 170.06 130.43 169.76 129.40 170.41 L 128.55 170.95 C 127.52 171.61 127.22 172.97 127.87 174.00 C 128.52 175.02 129.89 175.33 130.91 174.67 Z M 131.75 174.03 L 132.61 173.46 C 133.58 172.82 133.85 171.51 133.21 170.54 C 132.57 169.57 131.26 169.30 130.29 169.94 L 129.42 170.51 C 128.45 171.15 128.18 172.46 128.83 173.43 C 129.47 174.40 130.77 174.67 131.75 174.03 Z M 132.58 173.37 L 133.37 172.83 C 134.29 172.21 134.53 170.96 133.91 170.04 C 133.29 169.11 132.03 168.87 131.11 169.49 L 130.32 170.03 C 129.40 170.65 129.16 171.91 129.78 172.83 C 130.41 173.75 131.66 173.99 132.58 173.37 Z M 133.35 172.77 L 134.16 172.21 C 135.05 171.59 135.27 170.38 134.66 169.49 C 134.04 168.60 132.83 168.38 131.94 169.00 L 131.13 169.56 C 130.24 170.17 130.02 171.39 130.64 172.28 C 131.25 173.16 132.47 173.38 133.35 172.77 Z M 134.15 172.18 L 134.98 171.60 C 135.85 170.99 136.06 169.79 135.46 168.92 C 134.85 168.05 133.65 167.84 132.78 168.45 L 131.95 169.03 C 131.08 169.64 130.87 170.83 131.48 171.70 C 132.09 172.57 133.28 172.78 134.15 172.18 Z M 134.97 171.58 L 135.79 171.01 C 136.64 170.41 136.86 169.22 136.26 168.37 C 135.66 167.51 134.48 167.30 133.62 167.90 L 132.80 168.47 C 131.94 169.07 131.73 170.25 132.33 171.11 C 132.93 171.97 134.11 172.18 134.97 171.58 Z M 135.78 170.99 L 136.59 170.42 C 137.44 169.83 137.65 168.66 137.06 167.81 C 136.46 166.96 135.29 166.75 134.44 167.34 L 133.63 167.91 C 132.78 168.51 132.57 169.67 133.16 170.52 C 133.76 171.37 134.93 171.58 135.78 170.99 Z M 136.59 170.40 L 137.40 169.83 C 138.24 169.24 138.44 168.08 137.85 167.24 C 137.26 166.40 136.10 166.20 135.26 166.79 L 134.45 167.36 C 133.61 167.95 133.41 169.11 134.00 169.95 C 134.59 170.79 135.75 170.99 136.59 170.40 Z M 137.41 169.80 L 138.23 169.21 C 139.05 168.61 139.24 167.46 138.64 166.63 C 138.04 165.81 136.89 165.62 136.06 166.22 L 135.24 166.82 C 134.42 167.41 134.24 168.57 134.84 169.39 C 135.43 170.22 136.59 170.40 137.41 169.80 Z M 138.25 169.18 L 139.05 168.58 C 139.86 167.97 140.02 166.82 139.41 166.02 C 138.80 165.21 137.66 165.04 136.85 165.65 L 136.05 166.25 C 135.24 166.86 135.07 168.01 135.68 168.81 C 136.29 169.62 137.44 169.79 138.25 169.18 Z M 139.05 168.57 L 139.85 167.96 C 140.65 167.35 140.81 166.21 140.20 165.41 C 139.59 164.61 138.45 164.45 137.65 165.06 L 136.85 165.66 C 136.04 166.27 135.89 167.41 136.49 168.21 C 137.10 169.02 138.24 169.17 139.05 168.57 Z M 139.84 167.95 L 140.64 167.35 C 141.43 166.74 141.59 165.61 140.98 164.81 C 140.38 164.01 139.24 163.86 138.44 164.46 L 137.65 165.07 C 136.85 165.67 136.70 166.81 137.30 167.61 C 137.91 168.40 139.04 168.56 139.84 167.95 Z M 140.66 167.33 L 141.44 166.72 C 142.23 166.10 142.37 164.96 141.75 164.18 C 141.13 163.39 140.00 163.25 139.21 163.87 L 138.42 164.48 C 137.64 165.10 137.50 166.23 138.11 167.02 C 138.73 167.81 139.87 167.95 140.66 167.33 Z M 141.48 166.71 L 142.25 166.09 C 143.04 165.45 143.15 164.29 142.52 163.51 C 141.88 162.72 140.72 162.60 139.93 163.24 L 139.17 163.87 C 138.38 164.51 138.26 165.66 138.90 166.45 C 139.54 167.24 140.70 167.35 141.48 166.71 Z M 142.28 166.12 L 143.06 165.47 C 143.86 164.82 143.98 163.64 143.32 162.84 C 142.67 162.04 141.49 161.92 140.69 162.57 L 139.90 163.22 C 139.10 163.87 138.99 165.05 139.64 165.85 C 140.30 166.66 141.48 166.77 142.28 166.12 Z M 143.06 165.49 L 143.83 164.87 C 144.64 164.21 144.77 163.03 144.11 162.22 C 143.46 161.41 142.28 161.28 141.47 161.94 L 140.69 162.56 C 139.88 163.21 139.76 164.40 140.41 165.21 C 141.06 166.02 142.25 166.14 143.06 165.49 Z M 143.81 164.86 L 144.60 164.23 C 145.40 163.59 145.53 162.41 144.89 161.61 C 144.25 160.81 143.08 160.67 142.27 161.32 L 141.49 161.94 C 140.68 162.59 140.55 163.76 141.19 164.56 C 141.83 165.37 143.01 165.50 143.81 164.86 Z M 144.59 164.22 L 144.64 164.19 C 145.44 163.55 145.57 162.38 144.93 161.58 C 144.29 160.78 143.13 160.65 142.33 161.29 L 142.28 161.32 C 141.48 161.96 141.35 163.13 141.99 163.93 C 142.62 164.73 143.79 164.86 144.59 164.22 Z"
      fill="black"
      fill-rule="nonzero" /><path d="M 156.95 127.79 L 157.96 127.79 C 159.12 127.79 160.06 126.85 160.06 125.68 C 160.06 124.52 159.11 123.58 157.95 123.58 L 156.95 123.58 C 155.79 123.58 154.84 124.53 154.85 125.69 C 154.85 126.85 155.79 127.79 156.95 127.79 Z M 157.97 127.83 L 158.97 127.82 C 160.15 127.81 161.11 126.84 161.10 125.66 C 161.08 124.48 160.12 123.53 158.94 123.54 L 157.94 123.54 C 156.75 123.55 155.80 124.52 155.81 125.70 C 155.82 126.89 156.79 127.84 157.97 127.83 Z M 159.01 127.84 L 160.03 127.81 C 161.23 127.79 162.17 126.79 162.14 125.60 C 162.11 124.41 161.12 123.46 159.93 123.49 L 158.90 123.52 C 157.71 123.54 156.76 124.54 156.79 125.73 C 156.82 126.92 157.81 127.87 159.01 127.84 Z M 160.09 127.80 L 161.12 127.74 C 162.31 127.68 163.22 126.67 163.16 125.49 C 163.10 124.30 162.09 123.39 160.90 123.45 L 159.87 123.51 C 158.69 123.57 157.78 124.58 157.84 125.76 C 157.90 126.95 158.91 127.86 160.09 127.80 Z M 161.23 127.70 L 162.17 127.60 C 163.33 127.48 164.17 126.45 164.05 125.29 C 163.94 124.13 162.90 123.29 161.74 123.40 L 160.80 123.50 C 159.64 123.62 158.80 124.65 158.92 125.81 C 159.03 126.97 160.07 127.82 161.23 127.70 Z M 162.35 127.51 L 163.36 127.31 C 164.47 127.10 165.19 126.02 164.98 124.91 C 164.76 123.81 163.69 123.08 162.58 123.30 L 161.56 123.50 C 160.46 123.71 159.73 124.79 159.95 125.90 C 160.17 127.00 161.24 127.73 162.35 127.51 Z M 163.49 127.20 L 164.41 126.95 C 165.45 126.66 166.07 125.58 165.78 124.53 C 165.49 123.48 164.41 122.87 163.36 123.16 L 162.45 123.41 C 161.40 123.70 160.79 124.78 161.08 125.83 C 161.37 126.87 162.45 127.49 163.49 127.20 Z M 164.43 126.88 L 165.39 126.59 C 166.40 126.29 166.97 125.23 166.67 124.23 C 166.37 123.22 165.31 122.64 164.30 122.94 L 163.34 123.23 C 162.34 123.53 161.76 124.59 162.06 125.59 C 162.36 126.60 163.42 127.18 164.43 126.88 Z M 165.38 126.56 L 166.34 126.27 C 167.32 125.97 167.88 124.93 167.59 123.94 C 167.29 122.96 166.25 122.40 165.26 122.69 L 164.31 122.98 C 163.32 123.28 162.76 124.32 163.06 125.30 C 163.35 126.29 164.39 126.85 165.38 126.56 Z M 166.36 126.23 L 167.32 125.93 C 168.28 125.62 168.82 124.58 168.51 123.62 C 168.20 122.65 167.16 122.12 166.20 122.43 L 165.24 122.73 C 164.27 123.04 163.74 124.07 164.05 125.04 C 164.36 126.01 165.39 126.54 166.36 126.23 Z M 167.36 125.89 L 168.31 125.56 C 169.25 125.22 169.75 124.18 169.42 123.24 C 169.08 122.29 168.04 121.79 167.10 122.13 L 166.15 122.46 C 165.21 122.80 164.71 123.83 165.04 124.78 C 165.38 125.73 166.42 126.22 167.36 125.89 Z M 168.31 125.54 L 169.25 125.21 C 170.20 124.87 170.69 123.84 170.35 122.90 C 170.01 121.96 168.98 121.47 168.04 121.80 L 167.09 122.14 C 166.15 122.48 165.66 123.51 166.00 124.45 C 166.34 125.39 167.37 125.88 168.31 125.54 Z M 169.24 125.21 L 170.18 124.88 C 171.12 124.56 171.62 123.53 171.29 122.59 C 170.97 121.65 169.94 121.15 169.00 121.48 L 168.06 121.80 C 167.12 122.13 166.62 123.15 166.94 124.09 C 167.27 125.03 168.30 125.53 169.24 125.21 Z M 170.17 124.88 L 170.34 124.82 C 171.28 124.50 171.78 123.48 171.45 122.54 C 171.13 121.60 170.11 121.10 169.17 121.42 L 169.00 121.48 C 168.06 121.80 167.56 122.82 167.89 123.76 C 168.21 124.70 169.23 125.20 170.17 124.88 Z"
      fill="black"
      fill-rule="nonzero" /><path d="M 163.14 117.21 L 163.09 118.12 C 163.03 119.33 163.96 120.35 165.17 120.41 C 166.38 120.47 167.40 119.54 167.46 118.33 L 167.51 117.42 C 167.57 116.22 166.64 115.19 165.43 115.13 C 164.22 115.07 163.20 116.00 163.14 117.21 Z M 163.05 118.26 L 163.06 119.29 C 163.08 120.52 164.09 121.51 165.32 121.49 C 166.55 121.48 167.54 120.46 167.52 119.23 L 167.51 118.20 C 167.49 116.96 166.48 115.98 165.25 116.00 C 164.02 116.01 163.03 117.02 163.05 118.26 Z M 163.05 119.47 L 163.15 120.51 C 163.26 121.74 164.36 122.66 165.59 122.54 C 166.83 122.43 167.74 121.33 167.63 120.09 L 167.53 119.05 C 167.42 117.82 166.32 116.91 165.08 117.02 C 163.85 117.13 162.94 118.23 163.05 119.47 Z M 163.18 120.60 L 163.32 121.64 C 163.49 122.86 164.61 123.71 165.83 123.54 C 167.05 123.38 167.90 122.26 167.74 121.04 L 167.60 120.00 C 167.43 118.78 166.31 117.93 165.09 118.09 C 163.87 118.26 163.01 119.38 163.18 120.60 Z M 163.36 121.66 L 163.50 122.64 C 163.68 123.84 164.80 124.67 166.00 124.49 C 167.19 124.31 168.02 123.20 167.84 122.00 L 167.70 121.02 C 167.52 119.82 166.41 118.99 165.21 119.17 C 164.01 119.34 163.18 120.46 163.36 121.66 Z M 163.55 122.60 L 163.70 123.68 C 163.85 124.85 164.92 125.68 166.09 125.52 C 167.26 125.37 168.09 124.30 167.94 123.13 L 167.79 122.04 C 167.64 120.87 166.57 120.05 165.40 120.20 C 164.23 120.35 163.40 121.43 163.55 122.60 Z M 163.78 123.59 L 163.86 124.51 C 163.97 125.63 164.97 126.46 166.09 126.35 C 167.22 126.25 168.04 125.25 167.94 124.12 L 167.85 123.21 C 167.75 122.09 166.75 121.26 165.62 121.37 C 164.50 121.47 163.67 122.47 163.78 123.59 Z M 163.94 124.46 L 164.01 125.41 C 164.09 126.49 165.04 127.30 166.12 127.22 C 167.21 127.14 168.02 126.19 167.94 125.11 L 167.86 124.16 C 167.78 123.08 166.83 122.27 165.75 122.35 C 164.67 122.43 163.86 123.38 163.94 124.46 Z M 164.06 125.38 L 164.12 126.39 C 164.19 127.45 165.10 128.25 166.16 128.18 C 167.22 128.12 168.02 127.20 167.95 126.14 L 167.89 125.13 C 167.82 124.07 166.91 123.27 165.85 123.34 C 164.79 123.41 163.99 124.32 164.06 125.38 Z M 164.16 126.35 L 164.20 127.34 C 164.25 128.38 165.13 129.19 166.17 129.14 C 167.21 129.10 168.01 128.22 167.97 127.18 L 167.92 126.18 C 167.87 125.14 166.99 124.34 165.95 124.39 C 164.91 124.43 164.11 125.31 164.16 126.35 Z M 164.23 127.31 L 164.25 128.31 C 164.28 129.34 165.13 130.15 166.15 130.12 C 167.18 130.10 167.99 129.24 167.96 128.22 L 167.94 127.21 C 167.91 126.19 167.06 125.38 166.04 125.40 C 165.01 125.43 164.20 126.28 164.23 127.31 Z M 164.27 128.28 L 164.28 129.27 C 164.29 130.28 165.11 131.10 166.13 131.09 C 167.14 131.08 167.96 130.26 167.95 129.24 L 167.94 128.25 C 167.93 127.24 167.11 126.42 166.09 126.43 C 165.08 126.44 164.27 127.27 164.27 128.28 Z M 164.30 129.26 L 164.30 130.27 C 164.30 131.28 165.11 132.09 166.12 132.09 C 167.12 132.09 167.93 131.28 167.93 130.27 L 167.93 129.26 C 167.93 128.25 167.12 127.44 166.11 127.44 C 165.11 127.44 164.30 128.25 164.30 129.26 Z M 164.31 130.27 L 164.31 131.28 C 164.31 132.28 165.12 133.09 166.11 133.09 C 167.11 133.09 167.92 132.28 167.92 131.28 L 167.92 130.27 C 167.92 129.27 167.11 128.46 166.11 128.46 C 165.12 128.46 164.31 129.27 164.31 130.27 Z M 164.31 131.28 L 164.31 132.29 C 164.31 133.29 165.12 134.10 166.11 134.10 C 167.11 134.10 167.92 133.29 167.92 132.29 L 167.92 131.28 C 167.92 130.29 167.11 129.48 166.12 129.48 C 165.12 129.48 164.31 130.29 164.31 131.28 Z M 164.31 132.28 L 164.31 133.27 C 164.30 134.26 165.10 135.07 166.09 135.08 C 167.09 135.09 167.90 134.29 167.91 133.29 L 167.91 132.31 C 167.92 131.31 167.12 130.50 166.13 130.49 C 165.13 130.49 164.32 131.29 164.31 132.28 Z M 164.31 133.23 L 164.28 134.22 C 164.25 135.22 165.04 136.04 166.03 136.07 C 167.02 136.10 167.85 135.32 167.88 134.32 L 167.91 133.33 C 167.93 132.34 167.15 131.51 166.16 131.48 C 165.16 131.45 164.34 132.24 164.31 133.23 Z M 164.28 134.20 L 164.24 135.04 C 164.20 136.04 164.97 136.88 165.97 136.92 C 166.96 136.96 167.80 136.19 167.84 135.20 L 167.88 134.35 C 167.92 133.36 167.15 132.52 166.16 132.47 C 165.16 132.43 164.32 133.20 164.28 134.20 Z"
      fill="black"
      fill-rule="nonzero" /><path d="M 150.83 139.28 L 150.30 140.15 C 149.69 141.15 150.00 142.46 151.01 143.08 C 152.01 143.69 153.32 143.37 153.94 142.37 L 154.47 141.50 C 155.08 140.49 154.76 139.18 153.76 138.57 C 152.75 137.96 151.44 138.28 150.83 139.28 Z M 151.65 143.47 L 152.19 143.58 C 153.41 143.84 154.61 143.06 154.87 141.83 C 155.12 140.61 154.34 139.41 153.11 139.15 L 152.58 139.04 C 151.36 138.78 150.16 139.57 149.90 140.79 C 149.65 142.02 150.43 143.22 151.65 143.47 Z M 153.12 143.64 L 154.20 143.42 C 155.45 143.16 156.26 141.93 156.00 140.68 C 155.74 139.42 154.52 138.62 153.26 138.87 L 152.18 139.10 C 150.93 139.35 150.12 140.58 150.38 141.84 C 150.64 143.09 151.86 143.90 153.12 143.64 Z M 154.37 143.40 L 155.54 143.07 C 156.78 142.71 157.50 141.41 157.15 140.17 C 156.79 138.92 155.49 138.20 154.25 138.56 L 153.08 138.89 C 151.84 139.25 151.12 140.55 151.47 141.79 C 151.83 143.04 153.13 143.76 154.37 143.40 Z M 155.60 143.05 L 156.59 142.74 C 157.83 142.35 158.51 141.03 158.12 139.79 C 157.73 138.56 156.41 137.87 155.18 138.26 L 154.18 138.58 C 152.95 138.97 152.26 140.29 152.65 141.52 C 153.04 142.76 154.36 143.44 155.60 143.05 Z M 156.62 142.72 L 157.61 142.39 C 158.83 141.99 159.50 140.67 159.09 139.44 C 158.69 138.22 157.37 137.55 156.14 137.96 L 155.15 138.28 C 153.93 138.69 153.26 140.01 153.66 141.23 C 154.07 142.46 155.39 143.12 156.62 142.72 Z M 157.62 142.37 L 158.53 142.07 C 159.74 141.66 160.39 140.34 159.98 139.12 C 159.57 137.90 158.25 137.25 157.03 137.67 L 156.13 137.97 C 154.91 138.39 154.26 139.71 154.67 140.92 C 155.09 142.14 156.41 142.79 157.62 142.37 Z M 158.52 142.02 L 159.60 141.65 C 160.78 141.24 161.41 139.94 161.00 138.75 C 160.59 137.56 159.30 136.93 158.11 137.34 L 157.04 137.72 C 155.85 138.13 155.22 139.42 155.63 140.61 C 156.04 141.80 157.33 142.43 158.52 142.02 Z M 159.58 141.55 L 160.45 141.24 C 161.58 140.84 162.17 139.60 161.77 138.46 C 161.37 137.33 160.12 136.73 158.99 137.13 L 158.13 137.44 C 156.99 137.84 156.40 139.09 156.80 140.22 C 157.20 141.36 158.45 141.95 159.58 141.55 Z M 160.43 141.15 L 161.29 140.84 C 162.37 140.45 162.93 139.25 162.53 138.16 C 162.14 137.08 160.94 136.52 159.85 136.91 L 159.00 137.23 C 157.92 137.62 157.36 138.82 157.75 139.91 C 158.15 140.99 159.35 141.55 160.43 141.15 Z M 161.29 140.78 L 162.23 140.43 C 163.28 140.03 163.81 138.86 163.41 137.81 C 163.02 136.76 161.85 136.23 160.80 136.62 L 159.86 136.98 C 158.80 137.37 158.27 138.54 158.67 139.59 C 159.06 140.64 160.24 141.18 161.29 140.78 Z M 162.24 140.38 L 163.16 140.02 C 164.18 139.62 164.69 138.46 164.29 137.44 C 163.88 136.42 162.73 135.91 161.71 136.31 L 160.78 136.67 C 159.76 137.07 159.26 138.23 159.66 139.25 C 160.06 140.27 161.21 140.78 162.24 140.38 Z M 163.16 139.98 L 164.09 139.61 C 165.09 139.21 165.58 138.07 165.18 137.07 C 164.78 136.07 163.64 135.58 162.64 135.98 L 161.71 136.35 C 160.71 136.75 160.22 137.89 160.62 138.89 C 161.02 139.89 162.15 140.38 163.16 139.98 Z M 164.07 139.58 L 165.01 139.21 C 166.00 138.82 166.48 137.71 166.09 136.72 C 165.70 135.73 164.59 135.25 163.60 135.63 L 162.66 136.00 C 161.67 136.39 161.19 137.51 161.58 138.50 C 161.97 139.48 163.08 139.97 164.07 139.58 Z M 165.00 139.18 L 165.94 138.81 C 166.91 138.42 167.38 137.32 167.00 136.35 C 166.61 135.38 165.51 134.91 164.54 135.29 L 163.61 135.67 C 162.64 136.05 162.16 137.15 162.55 138.12 C 162.93 139.09 164.03 139.56 165.00 139.18 Z M 165.97 138.77 L 166.91 138.37 C 167.85 137.97 168.30 136.87 167.90 135.93 C 167.50 134.98 166.40 134.53 165.45 134.93 L 164.51 135.33 C 163.57 135.73 163.12 136.83 163.52 137.78 C 163.92 138.72 165.02 139.17 165.97 138.77 Z M 166.94 138.34 L 167.84 137.93 C 168.77 137.51 169.19 136.42 168.77 135.49 C 168.35 134.55 167.25 134.14 166.32 134.56 L 165.42 134.97 C 164.49 135.39 164.07 136.48 164.49 137.41 C 164.91 138.34 166.01 138.76 166.94 138.34 Z M 167.85 137.92 L 168.75 137.50 C 169.67 137.08 170.07 135.99 169.65 135.07 C 169.23 134.14 168.14 133.74 167.21 134.16 L 166.31 134.58 C 165.39 135.00 164.99 136.09 165.41 137.01 C 165.83 137.94 166.93 138.34 167.85 137.92 Z M 168.75 137.49 L 169.65 137.07 C 170.57 136.64 170.96 135.56 170.54 134.64 C 170.11 133.73 169.03 133.33 168.11 133.76 L 167.21 134.18 C 166.29 134.60 165.90 135.69 166.32 136.60 C 166.75 137.52 167.84 137.91 168.75 137.49 Z M 169.67 137.05 L 170.57 136.62 C 171.47 136.19 171.86 135.10 171.43 134.20 C 170.99 133.29 169.91 132.91 169.00 133.34 L 168.10 133.77 C 167.19 134.20 166.81 135.29 167.24 136.20 C 167.68 137.10 168.76 137.49 169.67 137.05 Z M 170.56 136.62 L 171.47 136.19 C 172.37 135.76 172.75 134.68 172.32 133.77 C 171.90 132.87 170.81 132.49 169.91 132.92 L 169.01 133.35 C 168.10 133.78 167.72 134.86 168.15 135.76 C 168.58 136.66 169.66 137.05 170.56 136.62 Z M 171.44 136.19 L 172.35 135.77 C 173.26 135.36 173.66 134.29 173.24 133.38 C 172.83 132.47 171.75 132.08 170.85 132.49 L 169.94 132.91 C 169.03 133.33 168.63 134.40 169.05 135.30 C 169.46 136.21 170.54 136.61 171.44 136.19 Z M 172.34 135.78 L 172.92 135.51 C 173.83 135.10 174.23 134.04 173.83 133.13 C 173.42 132.22 172.35 131.82 171.44 132.23 L 170.86 132.49 C 169.95 132.90 169.55 133.97 169.96 134.87 C 170.37 135.78 171.43 136.18 172.34 135.78 Z"
      fill="black"
      fill-rule="nonzero" /><path d="M 182.10 123.24 L 181.45 123.97 C 180.68 124.84 180.76 126.17 181.62 126.94 C 182.49 127.71 183.82 127.63 184.59 126.76 L 185.24 126.03 C 186.01 125.16 185.93 123.84 185.07 123.06 C 184.20 122.29 182.87 122.37 182.10 123.24 Z M 181.35 123.91 L 180.69 124.67 C 179.88 125.60 179.98 127.00 180.91 127.80 C 181.83 128.60 183.23 128.50 184.04 127.58 L 184.70 126.82 C 185.50 125.90 185.40 124.50 184.47 123.69 C 183.55 122.89 182.15 122.99 181.35 123.91 Z M 180.59 124.66 L 179.93 125.45 C 179.12 126.43 179.25 127.88 180.23 128.69 C 181.21 129.50 182.66 129.37 183.47 128.39 L 184.13 127.60 C 184.94 126.62 184.81 125.17 183.83 124.36 C 182.86 123.55 181.41 123.68 180.59 124.66 Z M 179.89 125.46 L 179.25 126.26 C 178.44 127.26 178.60 128.73 179.60 129.53 C 180.60 130.34 182.06 130.18 182.86 129.18 L 183.51 128.38 C 184.31 127.38 184.16 125.92 183.16 125.11 C 182.16 124.31 180.70 124.46 179.89 125.46 Z M 179.25 126.27 L 178.65 127.02 C 177.84 128.02 178.00 129.48 179.00 130.28 C 180.00 131.08 181.46 130.92 182.26 129.92 L 182.86 129.17 C 183.67 128.18 183.51 126.72 182.51 125.91 C 181.51 125.11 180.05 125.27 179.25 126.27 Z M 178.67 126.99 L 178.00 127.80 C 177.19 128.79 177.33 130.25 178.32 131.06 C 179.31 131.88 180.77 131.74 181.58 130.75 L 182.24 129.94 C 183.06 128.96 182.92 127.49 181.93 126.68 C 180.94 125.87 179.48 126.01 178.67 126.99 Z M 178.01 127.78 L 177.41 128.51 C 176.58 129.49 176.71 130.96 177.69 131.78 C 178.68 132.60 180.14 132.47 180.96 131.49 L 181.57 130.76 C 182.39 129.78 182.26 128.32 181.28 127.50 C 180.30 126.67 178.84 126.80 178.01 127.78 Z M 177.40 128.51 L 176.78 129.26 C 175.96 130.24 176.09 131.71 177.07 132.53 C 178.06 133.35 179.52 133.22 180.34 132.23 L 180.96 131.49 C 181.79 130.50 181.65 129.04 180.67 128.22 C 179.69 127.40 178.22 127.53 177.40 128.51 Z M 176.79 129.25 L 176.13 130.03 C 175.30 131.01 175.42 132.47 176.40 133.30 C 177.38 134.13 178.84 134.01 179.67 133.03 L 180.33 132.24 C 181.16 131.27 181.04 129.80 180.06 128.97 C 179.08 128.15 177.62 128.27 176.79 129.25 Z M 176.14 130.01 L 175.51 130.74 C 174.68 131.70 174.78 133.17 175.75 134.01 C 176.72 134.85 178.18 134.74 179.02 133.78 L 179.65 133.05 C 180.49 132.08 180.39 130.62 179.42 129.78 C 178.45 128.94 176.98 129.04 176.14 130.01 Z M 175.52 130.73 L 174.84 131.50 C 174.00 132.46 174.10 133.93 175.06 134.77 C 176.02 135.62 177.49 135.52 178.33 134.56 L 179.01 133.79 C 179.86 132.82 179.76 131.36 178.80 130.51 C 177.83 129.67 176.37 129.76 175.52 130.73 Z M 174.85 131.50 L 174.21 132.23 C 173.36 133.19 173.46 134.66 174.42 135.50 C 175.38 136.35 176.85 136.25 177.69 135.29 L 178.33 134.56 C 179.18 133.60 179.08 132.13 178.12 131.29 C 177.15 130.44 175.69 130.54 174.85 131.50 Z M 174.21 132.23 L 173.55 132.98 C 172.71 133.94 172.81 135.41 173.77 136.25 C 174.73 137.09 176.20 136.99 177.04 136.03 L 177.69 135.28 C 178.54 134.32 178.44 132.86 177.48 132.01 C 176.51 131.17 175.05 131.27 174.21 132.23 Z M 173.55 132.98 L 172.86 133.78 C 172.02 134.74 172.12 136.20 173.08 137.04 C 174.05 137.88 175.51 137.78 176.35 136.82 L 177.04 136.03 C 177.88 135.07 177.78 133.60 176.82 132.76 C 175.85 131.92 174.39 132.02 173.55 132.98 Z M 172.86 133.78 L 172.22 134.52 C 171.38 135.48 171.48 136.94 172.44 137.78 C 173.41 138.62 174.87 138.52 175.71 137.56 L 176.35 136.82 C 177.19 135.85 177.09 134.39 176.12 133.55 C 175.16 132.72 173.70 132.82 172.86 133.78 Z M 172.21 134.53 L 171.55 135.29 C 170.72 136.26 170.83 137.72 171.79 138.55 C 172.76 139.38 174.22 139.28 175.05 138.31 L 175.71 137.55 C 176.54 136.58 176.44 135.12 175.47 134.29 C 174.50 133.46 173.05 133.56 172.21 134.53 Z M 171.54 135.31 L 170.89 136.08 C 170.06 137.05 170.18 138.51 171.15 139.33 C 172.12 140.16 173.58 140.04 174.40 139.07 L 175.06 138.30 C 175.89 137.32 175.77 135.87 174.80 135.04 C 173.82 134.22 172.37 134.34 171.54 135.31 Z M 170.87 136.10 L 170.23 136.87 C 169.42 137.85 169.55 139.30 170.53 140.12 C 171.51 140.93 172.97 140.80 173.78 139.82 L 174.42 139.05 C 175.23 138.07 175.10 136.61 174.12 135.80 C 173.14 134.99 171.69 135.12 170.87 136.10 Z M 170.22 136.89 L 169.59 137.66 C 168.79 138.64 168.94 140.10 169.92 140.90 C 170.91 141.70 172.36 141.56 173.16 140.57 L 173.79 139.80 C 174.60 138.81 174.45 137.36 173.46 136.56 C 172.48 135.75 171.03 135.90 170.22 136.89 Z M 169.59 137.67 L 168.96 138.45 C 168.16 139.44 168.32 140.89 169.31 141.69 C 170.30 142.48 171.74 142.33 172.54 141.34 L 173.17 140.56 C 173.97 139.57 173.81 138.12 172.82 137.32 C 171.83 136.53 170.38 136.68 169.59 137.67 Z M 168.95 138.46 L 168.34 139.23 C 167.55 140.22 167.71 141.67 168.70 142.46 C 169.69 143.25 171.14 143.09 171.93 142.10 L 172.54 141.33 C 173.34 140.34 173.18 138.89 172.19 138.10 C 171.19 137.31 169.75 137.47 168.95 138.46 Z M 168.33 139.24 L 167.71 140.02 C 166.93 141.01 167.09 142.46 168.09 143.24 C 169.08 144.03 170.52 143.87 171.31 142.87 L 171.93 142.09 C 172.72 141.10 172.56 139.65 171.56 138.87 C 170.57 138.08 169.12 138.24 168.33 139.24 Z M 167.71 140.03 L 167.08 140.82 C 166.30 141.82 166.47 143.26 167.47 144.05 C 168.47 144.83 169.91 144.66 170.70 143.66 L 171.32 142.86 C 172.10 141.87 171.93 140.42 170.93 139.64 C 169.93 138.86 168.49 139.03 167.71 140.03 Z M 167.07 140.84 L 166.46 141.63 C 165.68 142.64 165.87 144.08 166.87 144.85 C 167.87 145.63 169.31 145.44 170.09 144.44 L 170.71 143.65 C 171.48 142.64 171.30 141.20 170.29 140.43 C 169.29 139.65 167.85 139.83 167.07 140.84 Z M 166.45 141.65 L 165.84 142.44 C 165.07 143.45 165.27 144.89 166.28 145.66 C 167.29 146.43 168.73 146.23 169.49 145.22 L 170.10 144.43 C 170.87 143.42 170.67 141.98 169.66 141.21 C 168.66 140.44 167.22 140.64 166.45 141.65 Z M 165.83 142.45 L 165.23 143.25 C 164.47 144.27 164.67 145.71 165.69 146.47 C 166.70 147.23 168.14 147.03 168.90 146.01 L 169.50 145.21 C 170.26 144.20 170.06 142.76 169.05 142.00 C 168.04 141.24 166.60 141.44 165.83 142.45 Z M 165.23 143.26 L 164.63 144.07 C 163.87 145.08 164.08 146.52 165.10 147.28 C 166.11 148.03 167.55 147.82 168.31 146.81 L 168.91 146.00 C 169.66 144.99 169.45 143.55 168.44 142.79 C 167.42 142.03 165.98 142.24 165.23 143.26 Z M 164.62 144.07 L 164.03 144.87 C 163.27 145.89 163.49 147.33 164.51 148.09 C 165.53 148.84 166.96 148.63 167.72 147.61 L 168.31 146.80 C 169.07 145.78 168.85 144.34 167.83 143.59 C 166.81 142.84 165.38 143.05 164.62 144.07 Z M 164.03 144.87 L 163.43 145.68 C 162.68 146.70 162.89 148.14 163.91 148.89 C 164.93 149.65 166.37 149.43 167.13 148.41 L 167.72 147.61 C 168.48 146.58 168.26 145.15 167.24 144.39 C 166.22 143.64 164.78 143.85 164.03 144.87 Z M 163.43 145.67 L 162.84 146.48 C 162.08 147.50 162.29 148.94 163.31 149.69 C 164.33 150.45 165.77 150.24 166.53 149.22 L 167.13 148.41 C 167.88 147.39 167.67 145.95 166.65 145.20 C 165.63 144.44 164.19 144.65 163.43 145.67 Z M 162.84 146.47 L 162.25 147.26 C 161.49 148.28 161.69 149.72 162.71 150.48 C 163.73 151.24 165.17 151.04 165.93 150.02 L 166.53 149.23 C 167.29 148.21 167.08 146.77 166.06 146.00 C 165.05 145.24 163.60 145.45 162.84 146.47 Z M 162.25 147.25 L 161.65 148.05 C 160.88 149.06 161.08 150.51 162.10 151.27 C 163.12 152.04 164.56 151.84 165.33 150.82 L 165.93 150.03 C 166.69 149.01 166.49 147.57 165.48 146.80 C 164.46 146.03 163.02 146.24 162.25 147.25 Z M 161.65 148.04 L 161.04 148.84 C 160.27 149.85 160.47 151.30 161.48 152.07 C 162.50 152.84 163.95 152.65 164.72 151.63 L 165.33 150.83 C 166.10 149.82 165.90 148.37 164.89 147.60 C 163.87 146.83 162.42 147.02 161.65 148.04 Z M 161.05 148.83 L 160.43 149.64 C 159.65 150.65 159.84 152.10 160.86 152.88 C 161.87 153.65 163.32 153.46 164.10 152.45 L 164.71 151.64 C 165.49 150.62 165.30 149.17 164.28 148.40 C 163.27 147.63 161.82 147.82 161.05 148.83 Z M 160.43 149.64 L 159.80 150.45 C 159.03 151.47 159.22 152.91 160.23 153.69 C 161.24 154.47 162.69 154.28 163.47 153.26 L 164.09 152.45 C 164.87 151.44 164.68 149.99 163.67 149.21 C 162.65 148.44 161.20 148.63 160.43 149.64 Z M 159.81 150.46 L 159.20 151.25 C 158.42 152.26 158.61 153.71 159.62 154.49 C 160.63 155.26 162.08 155.07 162.86 154.06 L 163.47 153.26 C 164.24 152.25 164.05 150.80 163.04 150.03 C 162.03 149.25 160.58 149.44 159.81 150.46 Z M 159.19 151.26 L 158.61 152.02 C 157.84 153.03 158.03 154.48 159.04 155.25 C 160.05 156.02 161.50 155.83 162.27 154.82 L 162.86 154.06 C 163.63 153.04 163.44 151.60 162.42 150.83 C 161.41 150.05 159.97 150.25 159.19 151.26 Z M 158.61 152.03 L 157.97 152.87 C 157.21 153.88 157.40 155.32 158.41 156.09 C 159.42 156.86 160.87 156.66 161.63 155.65 L 162.27 154.81 C 163.04 153.80 162.84 152.36 161.83 151.59 C 160.82 150.82 159.38 151.02 158.61 152.03 Z M 157.98 152.87 L 157.38 153.66 C 156.62 154.66 156.82 156.10 157.82 156.87 C 158.83 157.63 160.27 157.43 161.03 156.43 L 161.63 155.64 C 162.39 154.64 162.20 153.20 161.19 152.43 C 160.18 151.67 158.75 151.86 157.98 152.87 Z M 157.40 153.65 L 156.81 154.42 C 156.04 155.42 156.23 156.85 157.24 157.62 C 158.24 158.39 159.67 158.20 160.44 157.19 L 161.02 156.43 C 161.79 155.43 161.60 153.99 160.60 153.23 C 159.59 152.46 158.16 152.65 157.40 153.65 Z M 156.82 154.41 L 156.20 155.22 C 155.43 156.21 155.61 157.64 156.60 158.41 C 157.60 159.18 159.03 159.00 159.80 158.01 L 160.42 157.20 C 161.20 156.21 161.01 154.78 160.02 154.01 C 159.02 153.23 157.59 153.42 156.82 154.41 Z M 156.21 155.21 L 155.59 155.99 C 154.82 156.98 154.99 158.41 155.98 159.19 C 156.97 159.96 158.41 159.79 159.18 158.80 L 159.79 158.02 C 160.57 157.03 160.39 155.59 159.40 154.82 C 158.41 154.04 156.98 154.22 156.21 155.21 Z M 155.60 155.98 L 154.97 156.78 C 154.20 157.76 154.37 159.20 155.35 159.98 C 156.34 160.75 157.77 160.58 158.55 159.60 L 159.18 158.80 C 159.95 157.82 159.78 156.38 158.80 155.61 C 157.81 154.83 156.38 155.00 155.60 155.98 Z M 154.97 156.77 L 154.35 157.56 C 153.57 158.55 153.74 159.99 154.73 160.77 C 155.72 161.55 157.15 161.38 157.93 160.39 L 158.56 159.60 C 159.34 158.61 159.17 157.17 158.18 156.39 C 157.19 155.61 155.75 155.78 154.97 156.77 Z M 154.34 157.57 L 153.74 158.33 C 152.96 159.33 153.13 160.77 154.13 161.55 C 155.12 162.32 156.56 162.15 157.34 161.16 L 157.94 160.39 C 158.72 159.39 158.55 157.95 157.55 157.18 C 156.56 156.40 155.12 156.57 154.34 157.57 Z M 153.73 158.35 L 153.11 159.15 C 152.34 160.15 152.52 161.59 153.52 162.36 C 154.52 163.13 155.95 162.95 156.73 161.95 L 157.35 161.14 C 158.12 160.14 157.93 158.71 156.94 157.94 C 155.94 157.16 154.50 157.35 153.73 158.35 Z M 153.10 159.17 L 152.51 159.94 C 151.75 160.95 151.94 162.38 152.94 163.14 C 153.94 163.90 155.37 163.71 156.14 162.71 L 156.73 161.93 C 157.49 160.93 157.30 159.50 156.30 158.74 C 155.30 157.97 153.87 158.17 153.10 159.17 Z M 152.51 159.97 L 151.91 160.77 C 151.15 161.77 151.36 163.20 152.36 163.95 C 153.36 164.70 154.78 164.50 155.53 163.50 L 156.14 162.69 C 156.89 161.69 156.69 160.27 155.68 159.51 C 154.68 158.76 153.26 158.96 152.51 159.97 Z M 151.90 160.81 L 151.32 161.61 C 150.59 162.61 150.81 164.02 151.81 164.75 C 152.81 165.48 154.22 165.26 154.95 164.26 L 155.53 163.46 C 156.26 162.46 156.04 161.05 155.04 160.32 C 154.04 159.59 152.63 159.81 151.90 160.81 Z M 151.31 161.67 L 150.75 162.47 C 150.05 163.48 150.30 164.86 151.31 165.56 C 152.32 166.26 153.70 166.01 154.40 165.00 L 154.96 164.20 C 155.66 163.19 155.41 161.81 154.40 161.11 C 153.39 160.41 152.01 160.66 151.31 161.67 Z M 150.73 162.55 L 150.18 163.41 C 149.53 164.43 149.82 165.78 150.84 166.44 C 151.86 167.09 153.22 166.80 153.87 165.78 L 154.42 164.92 C 155.08 163.90 154.78 162.55 153.76 161.89 C 152.74 161.24 151.39 161.53 150.73 162.55 Z M 150.15 163.50 L 149.64 164.38 C 149.03 165.41 149.38 166.74 150.41 167.35 C 151.45 167.95 152.78 167.61 153.38 166.57 L 153.90 165.69 C 154.50 164.66 154.16 163.33 153.12 162.72 C 152.09 162.12 150.76 162.46 150.15 163.50 Z M 149.62 164.46 L 149.15 165.34 C 148.58 166.38 148.98 167.68 150.02 168.25 C 151.07 168.81 152.37 168.41 152.93 167.37 L 153.40 166.49 C 153.96 165.45 153.57 164.14 152.53 163.58 C 151.48 163.02 150.18 163.41 149.62 164.46 Z M 149.13 165.46 L 148.69 166.38 C 148.20 167.43 148.65 168.69 149.71 169.19 C 150.77 169.68 152.03 169.23 152.52 168.17 L 152.95 167.25 C 153.45 166.19 152.99 164.93 151.93 164.44 C 150.88 163.94 149.62 164.40 149.13 165.46 Z M 148.63 166.70 L 148.36 167.62 C 148.04 168.71 148.67 169.86 149.76 170.17 C 150.85 170.49 151.99 169.87 152.31 168.78 L 152.58 167.85 C 152.90 166.76 152.27 165.62 151.18 165.30 C 150.10 164.98 148.95 165.61 148.63 166.70 Z M 148.34 168.04 L 148.26 169.01 C 148.17 170.11 148.99 171.08 150.09 171.17 C 151.20 171.26 152.16 170.43 152.25 169.33 L 152.33 168.36 C 152.42 167.26 151.60 166.30 150.50 166.21 C 149.40 166.12 148.43 166.94 148.34 168.04 Z M 148.30 169.20 L 148.31 170.14 C 148.33 171.23 149.21 172.09 150.30 172.08 C 151.38 172.06 152.24 171.17 152.23 170.09 L 152.22 169.14 C 152.20 168.06 151.31 167.20 150.23 167.21 C 149.15 167.22 148.28 168.11 148.30 169.20 Z"
      fill="black"
      fill-rule="nonzero" /><path d="M 165.30 152.71 L 165.50 153.68 C 165.72 154.75 166.76 155.44 167.83 155.22 C 168.90 155.00 169.58 153.96 169.36 152.89 L 169.17 151.92 C 168.95 150.85 167.90 150.16 166.83 150.38 C 165.77 150.60 165.08 151.64 165.30 152.71 Z M 165.31 153.61 L 165.46 154.60 C 165.64 155.77 166.74 156.57 167.91 156.39 C 169.08 156.21 169.88 155.12 169.70 153.95 L 169.55 152.96 C 169.37 151.79 168.28 150.98 167.10 151.16 C 165.93 151.34 165.13 152.44 165.31 153.61 Z M 165.36 154.45 L 165.43 155.39 C 165.53 156.61 166.60 157.53 167.83 157.44 C 169.06 157.34 169.98 156.27 169.88 155.04 L 169.81 154.10 C 169.71 152.87 168.64 151.95 167.41 152.05 C 166.18 152.14 165.26 153.22 165.36 154.45 Z M 165.42 155.28 L 165.45 156.33 C 165.48 157.57 166.52 158.54 167.75 158.51 C 168.99 158.47 169.96 157.44 169.92 156.20 L 169.89 155.15 C 169.86 153.91 168.83 152.94 167.59 152.98 C 166.35 153.01 165.38 154.04 165.42 155.28 Z M 165.44 156.29 L 165.45 157.30 C 165.46 158.54 166.48 159.54 167.72 159.53 C 168.96 159.51 169.95 158.50 169.94 157.26 L 169.93 156.25 C 169.92 155.01 168.90 154.01 167.66 154.02 C 166.42 154.03 165.43 155.05 165.44 156.29 Z M 165.45 157.29 L 165.45 158.31 C 165.45 159.55 166.46 160.56 167.71 160.55 C 168.95 160.55 169.95 159.54 169.95 158.30 L 169.94 157.28 C 169.94 156.03 168.93 155.03 167.69 155.03 C 166.45 155.04 165.44 156.05 165.45 157.29 Z M 165.45 158.31 L 165.45 159.32 C 165.45 160.57 166.46 161.57 167.70 161.57 C 168.94 161.57 169.95 160.56 169.95 159.32 L 169.95 158.30 C 169.95 157.06 168.94 156.05 167.70 156.05 C 166.46 156.05 165.45 157.06 165.45 158.31 Z M 165.45 159.32 L 165.45 160.32 C 165.45 161.56 166.45 162.57 167.70 162.57 C 168.94 162.57 169.95 161.56 169.95 160.32 L 169.95 159.32 C 169.95 158.08 168.94 157.07 167.70 157.07 C 166.45 157.07 165.45 158.08 165.45 159.32 Z M 165.44 160.32 L 165.44 161.27 C 165.44 162.51 166.45 163.52 167.70 163.52 C 168.94 163.52 169.95 162.51 169.95 161.27 L 169.95 160.32 C 169.95 159.07 168.94 158.06 167.70 158.06 C 166.45 158.06 165.44 159.07 165.44 160.32 Z M 165.45 161.27 L 165.45 162.27 C 165.45 163.51 166.46 164.52 167.70 164.52 C 168.94 164.52 169.95 163.51 169.95 162.27 L 169.95 161.27 C 169.95 160.02 168.94 159.02 167.70 159.02 C 166.46 159.02 165.45 160.02 165.45 161.27 Z M 165.45 162.27 L 165.45 163.27 C 165.45 164.51 166.46 165.52 167.70 165.52 C 168.94 165.52 169.95 164.51 169.95 163.27 L 169.95 162.27 C 169.95 161.03 168.94 160.02 167.70 160.02 C 166.46 160.02 165.45 161.03 165.45 162.27 Z M 165.45 163.27 L 165.45 164.26 C 165.45 165.50 166.46 166.51 167.70 166.51 C 168.94 166.51 169.94 165.50 169.94 164.26 L 169.94 163.27 C 169.94 162.03 168.94 161.02 167.70 161.02 C 166.46 161.02 165.45 162.03 165.45 163.27 Z M 165.46 164.26 L 165.46 165.28 C 165.46 166.52 166.46 167.52 167.70 167.52 C 168.93 167.52 169.94 166.52 169.94 165.28 L 169.94 164.26 C 169.94 163.03 168.94 162.02 167.70 162.02 C 166.46 162.02 165.46 163.03 165.46 164.26 Z M 165.47 165.27 L 165.47 166.29 C 165.47 167.52 166.46 168.52 167.69 168.52 C 168.92 168.53 169.92 167.53 169.92 166.30 L 169.92 165.29 C 169.93 164.06 168.94 163.06 167.71 163.06 C 166.48 163.05 165.48 164.05 165.47 165.27 Z M 165.49 166.26 L 165.47 167.21 C 165.46 168.43 166.43 169.43 167.65 169.45 C 168.87 169.47 169.87 168.49 169.89 167.28 L 169.90 166.33 C 169.92 165.11 168.95 164.11 167.73 164.09 C 166.51 164.07 165.51 165.05 165.49 166.26 Z M 165.49 167.16 L 165.46 168.07 C 165.41 169.28 166.36 170.30 167.57 170.34 C 168.78 170.39 169.79 169.44 169.84 168.23 L 169.87 167.33 C 169.92 166.11 168.97 165.10 167.76 165.05 C 166.55 165.01 165.54 165.95 165.49 167.16 Z M 165.47 168.02 L 165.40 169.13 C 165.33 170.34 166.25 171.37 167.45 171.44 C 168.65 171.51 169.69 170.60 169.76 169.40 L 169.83 168.28 C 169.90 167.08 168.98 166.04 167.78 165.97 C 166.58 165.90 165.54 166.82 165.47 168.02 Z M 165.41 169.11 L 165.34 170.06 C 165.26 171.26 166.16 172.30 167.36 172.38 C 168.55 172.47 169.60 171.57 169.68 170.37 L 169.75 169.42 C 169.84 168.22 168.94 167.18 167.74 167.09 C 166.54 167.01 165.50 167.91 165.41 169.11 Z M 165.34 170.04 L 165.26 171.08 C 165.16 172.28 166.06 173.33 167.26 173.42 C 168.45 173.52 169.50 172.63 169.60 171.43 L 169.68 170.39 C 169.78 169.19 168.88 168.14 167.69 168.04 C 166.49 167.95 165.44 168.84 165.34 170.04 Z M 165.26 171.06 L 165.17 172.08 C 165.06 173.28 165.95 174.34 167.14 174.45 C 168.34 174.55 169.40 173.67 169.50 172.47 L 169.60 171.45 C 169.70 170.25 168.82 169.19 167.62 169.09 C 166.43 168.98 165.37 169.86 165.26 171.06 Z M 165.18 172.04 L 165.04 173.34 C 164.91 174.53 165.77 175.61 166.96 175.74 C 168.15 175.87 169.22 175.01 169.35 173.82 L 169.49 172.52 C 169.62 171.33 168.76 170.25 167.57 170.12 C 166.38 169.99 165.31 170.85 165.18 172.04 Z M 165.09 173.15 L 164.92 173.97 C 164.69 175.14 165.44 176.27 166.60 176.51 C 167.76 176.74 168.90 175.99 169.13 174.83 L 169.30 174.01 C 169.53 172.85 168.78 171.71 167.62 171.48 C 166.46 171.24 165.33 171.99 165.09 173.15 Z M 168.98 173.61 L 168.80 173.16 C 168.36 172.09 167.14 171.56 166.06 172.00 C 164.98 172.43 164.46 173.66 164.89 174.74 L 165.08 175.19 C 165.51 176.27 166.74 176.79 167.81 176.35 C 168.89 175.92 169.41 174.69 168.98 173.61 Z M 168.88 173.77 L 168.76 172.54 C 168.66 171.42 167.67 170.59 166.55 170.70 C 165.43 170.80 164.60 171.79 164.70 172.91 L 164.82 174.14 C 164.92 175.26 165.91 176.08 167.03 175.98 C 168.15 175.88 168.98 174.89 168.88 173.77 Z M 168.71 172.68 L 168.68 171.69 C 168.66 170.60 167.75 169.74 166.66 169.76 C 165.57 169.79 164.71 170.70 164.73 171.79 L 164.76 172.77 C 164.79 173.87 165.69 174.73 166.78 174.70 C 167.87 174.67 168.74 173.77 168.71 172.68 Z M 168.64 171.74 L 168.64 170.78 C 168.64 169.72 167.78 168.85 166.71 168.85 C 165.64 168.85 164.77 169.72 164.77 170.79 L 164.77 171.74 C 164.78 172.81 165.64 173.67 166.71 173.67 C 167.78 173.67 168.65 172.80 168.64 171.74 Z M 168.63 170.79 L 168.63 169.77 C 168.63 168.71 167.77 167.85 166.71 167.85 C 165.65 167.85 164.79 168.71 164.79 169.77 L 164.79 170.79 C 164.79 171.85 165.65 172.71 166.71 172.71 C 167.77 172.71 168.63 171.85 168.63 170.79 Z M 168.63 169.78 L 168.63 168.80 C 168.63 167.74 167.77 166.88 166.71 166.88 C 165.65 166.88 164.79 167.74 164.79 168.80 L 164.79 169.77 C 164.79 170.83 165.65 171.69 166.71 171.69 C 167.77 171.70 168.63 170.84 168.63 169.78 Z M 168.63 168.81 L 168.64 167.81 C 168.65 166.75 167.79 165.88 166.73 165.87 C 165.67 165.87 164.81 166.72 164.80 167.78 L 164.79 168.78 C 164.78 169.84 165.63 170.71 166.69 170.72 C 167.75 170.72 168.62 169.87 168.63 168.81 Z M 168.64 167.84 L 168.66 166.84 C 168.68 165.78 167.84 164.90 166.78 164.88 C 165.72 164.85 164.84 165.69 164.82 166.75 L 164.80 167.75 C 164.77 168.81 165.61 169.69 166.67 169.71 C 167.73 169.74 168.61 168.90 168.64 167.84 Z M 168.66 166.89 L 168.70 165.96 C 168.75 164.90 167.94 164.00 166.88 163.95 C 165.82 163.90 164.92 164.71 164.87 165.77 L 164.82 166.70 C 164.77 167.76 165.59 168.66 166.65 168.71 C 167.71 168.77 168.61 167.95 168.66 166.89 Z M 168.70 166.04 L 168.79 165.01 C 168.89 163.95 168.11 163.02 167.05 162.92 C 166.00 162.82 165.06 163.60 164.97 164.66 L 164.87 165.69 C 164.78 166.75 165.55 167.68 166.61 167.78 C 167.67 167.87 168.60 167.10 168.70 166.04 Z M 168.79 165.10 L 168.93 164.05 C 169.08 163.00 168.35 162.03 167.29 161.88 C 166.24 161.73 165.27 162.47 165.12 163.52 L 164.97 164.56 C 164.83 165.62 165.56 166.59 166.61 166.74 C 167.66 166.88 168.64 166.15 168.79 165.10 Z M 168.93 164.13 L 169.11 163.14 C 169.30 162.09 168.60 161.08 167.55 160.89 C 166.50 160.70 165.49 161.40 165.30 162.45 L 165.12 163.44 C 164.93 164.49 165.63 165.50 166.68 165.69 C 167.74 165.88 168.74 165.18 168.93 164.13 Z M 169.11 163.19 L 169.32 162.19 C 169.54 161.13 168.87 160.10 167.81 159.88 C 166.76 159.66 165.73 160.33 165.51 161.39 L 165.30 162.39 C 165.08 163.45 165.75 164.48 166.81 164.70 C 167.86 164.92 168.89 164.25 169.11 163.19 Z M 169.33 162.24 L 169.56 161.27 C 169.81 160.21 169.15 159.15 168.10 158.91 C 167.04 158.66 165.98 159.31 165.73 160.37 L 165.50 161.34 C 165.25 162.39 165.91 163.45 166.96 163.70 C 168.02 163.95 169.08 163.29 169.33 162.24 Z M 169.55 161.33 L 169.83 160.30 C 170.11 159.25 169.49 158.16 168.43 157.88 C 167.38 157.60 166.29 158.22 166.01 159.28 L 165.74 160.31 C 165.45 161.36 166.08 162.44 167.13 162.73 C 168.19 163.01 169.27 162.38 169.55 161.33 Z M 169.81 160.38 L 170.11 159.42 C 170.44 158.38 169.86 157.26 168.81 156.94 C 167.76 156.61 166.65 157.19 166.32 158.24 L 166.03 159.20 C 165.70 160.24 166.28 161.36 167.33 161.68 C 168.37 162.01 169.49 161.43 169.81 160.38 Z M 170.09 159.52 L 170.41 158.64 C 170.79 157.60 170.26 156.46 169.23 156.08 C 168.20 155.70 167.05 156.23 166.67 157.26 L 166.35 158.15 C 165.97 159.18 166.50 160.32 167.53 160.70 C 168.57 161.08 169.71 160.55 170.09 159.52 Z M 170.38 158.74 L 170.78 157.81 C 171.21 156.80 170.74 155.62 169.73 155.18 C 168.71 154.75 167.53 155.22 167.10 156.24 L 166.70 157.16 C 166.27 158.18 166.74 159.36 167.76 159.79 C 168.77 160.23 169.95 159.75 170.38 158.74 Z M 170.73 157.94 L 171.19 157.03 C 171.69 156.04 171.30 154.83 170.31 154.33 C 169.32 153.82 168.10 154.22 167.60 155.21 L 167.14 156.11 C 166.64 157.10 167.04 158.32 168.03 158.82 C 169.02 159.32 170.23 158.93 170.73 157.94 Z M 171.11 157.20 L 171.63 156.38 C 172.22 155.43 171.93 154.18 170.99 153.59 C 170.04 152.99 168.79 153.28 168.20 154.23 L 167.68 155.05 C 167.09 155.99 167.37 157.24 168.32 157.84 C 169.27 158.43 170.52 158.15 171.11 157.20 Z M 171.48 156.59 L 172.15 155.78 C 172.86 154.91 172.74 153.63 171.87 152.92 C 171.01 152.21 169.73 152.33 169.01 153.20 L 168.34 154.01 C 167.63 154.87 167.75 156.15 168.62 156.87 C 169.49 157.58 170.77 157.46 171.48 156.59 Z M 171.95 156.00 L 172.65 155.36 C 173.48 154.60 173.55 153.32 172.80 152.48 C 172.04 151.65 170.76 151.59 169.92 152.34 L 169.22 152.98 C 168.38 153.73 168.32 155.02 169.07 155.85 C 169.83 156.69 171.11 156.75 171.95 156.00 Z M 172.39 155.56 L 173.21 155.03 C 174.16 154.42 174.43 153.16 173.82 152.21 C 173.21 151.27 171.95 151.00 171.01 151.61 L 170.18 152.14 C 169.24 152.75 168.97 154.01 169.58 154.95 C 170.19 155.90 171.45 156.17 172.39 155.56 Z M 172.83 155.22 L 173.76 154.87 C 174.82 154.47 175.35 153.30 174.95 152.25 C 174.55 151.19 173.38 150.66 172.32 151.06 L 171.39 151.41 C 170.34 151.81 169.81 152.99 170.20 154.04 C 170.60 155.09 171.78 155.62 172.83 155.22 Z M 173.38 154.99 L 174.37 154.83 C 175.49 154.64 176.24 153.58 176.06 152.46 C 175.87 151.35 174.81 150.59 173.69 150.78 L 172.71 150.94 C 171.59 151.13 170.83 152.18 171.02 153.30 C 171.20 154.42 172.26 155.18 173.38 154.99 Z M 173.93 154.89 L 174.93 154.94 C 176.08 154.99 177.06 154.10 177.12 152.95 C 177.18 151.80 176.29 150.82 175.14 150.77 L 174.13 150.72 C 172.98 150.66 172.00 151.55 171.95 152.70 C 171.89 153.85 172.78 154.83 173.93 154.89 Z M 174.27 154.83 L 175.17 155.17 C 176.26 155.59 177.49 155.05 177.91 153.96 C 178.33 152.87 177.79 151.64 176.70 151.22 L 175.80 150.88 C 174.70 150.45 173.48 151.00 173.06 152.09 C 172.64 153.18 173.18 154.40 174.27 154.83 Z M 174.62 154.88 L 175.41 155.50 C 176.34 156.23 177.69 156.06 178.41 155.13 C 179.14 154.20 178.97 152.86 178.04 152.13 L 177.25 151.51 C 176.32 150.79 174.98 150.95 174.25 151.88 C 173.52 152.81 173.69 154.16 174.62 154.88 Z M 175.16 155.30 L 175.84 156.02 C 176.66 156.88 178.02 156.92 178.89 156.10 C 179.75 155.29 179.79 153.92 178.97 153.06 L 178.29 152.33 C 177.48 151.47 176.11 151.43 175.25 152.25 C 174.38 153.07 174.34 154.43 175.16 155.30 Z M 175.70 155.87 L 176.32 156.66 C 177.05 157.61 178.42 157.78 179.36 157.04 C 180.31 156.31 180.47 154.94 179.74 154.00 L 179.12 153.20 C 178.38 152.26 177.02 152.09 176.07 152.83 C 175.13 153.56 174.96 154.92 175.70 155.87 Z M 176.19 156.50 L 176.72 157.35 C 177.37 158.37 178.72 158.67 179.73 158.02 C 180.75 157.38 181.05 156.03 180.41 155.01 L 179.87 154.16 C 179.22 153.15 177.88 152.84 176.86 153.49 C 175.84 154.14 175.54 155.48 176.19 156.50 Z M 176.60 157.17 L 177.05 158.05 C 177.59 159.13 178.92 159.57 180.00 159.02 C 181.08 158.47 181.52 157.15 180.97 156.07 L 180.53 155.19 C 179.98 154.10 178.66 153.67 177.57 154.22 C 176.49 154.77 176.06 156.09 176.60 157.17 Z M 176.96 157.90 L 177.34 158.84 C 177.80 159.98 179.10 160.52 180.23 160.06 C 181.37 159.59 181.91 158.30 181.45 157.16 L 181.06 156.22 C 180.60 155.09 179.30 154.54 178.17 155.00 C 177.04 155.47 176.49 156.76 176.96 157.90 Z M 177.28 158.73 L 177.62 159.71 C 178.02 160.88 179.29 161.50 180.46 161.10 C 181.62 160.70 182.24 159.43 181.84 158.27 L 181.51 157.28 C 181.11 156.11 179.84 155.49 178.67 155.89 C 177.51 156.29 176.88 157.56 177.28 158.73 Z M 177.59 159.63 L 177.88 160.60 C 178.23 161.79 179.48 162.46 180.67 162.11 C 181.85 161.75 182.53 160.50 182.17 159.32 L 181.88 158.35 C 181.52 157.16 180.27 156.49 179.09 156.84 C 177.90 157.20 177.23 158.45 177.59 159.63 Z M 177.85 160.54 L 178.11 161.51 C 178.43 162.71 179.66 163.42 180.86 163.10 C 182.06 162.78 182.77 161.55 182.45 160.35 L 182.19 159.38 C 181.88 158.18 180.64 157.47 179.45 157.79 C 178.25 158.11 177.53 159.34 177.85 160.54 Z M 178.09 161.44 L 178.31 162.40 C 178.60 163.60 179.81 164.36 181.02 164.07 C 182.23 163.79 182.98 162.58 182.70 161.37 L 182.47 160.42 C 182.19 159.21 180.98 158.46 179.77 158.74 C 178.56 159.02 177.81 160.23 178.09 161.44 Z M 178.31 162.37 L 178.50 163.24 C 178.77 164.46 179.97 165.22 181.19 164.95 C 182.40 164.68 183.16 163.48 182.89 162.27 L 182.70 161.40 C 182.43 160.18 181.23 159.42 180.02 159.69 C 178.81 159.96 178.04 161.16 178.31 162.37 Z M 178.50 163.19 L 178.69 164.18 C 178.93 165.39 180.11 166.19 181.33 165.95 C 182.54 165.71 183.34 164.53 183.10 163.31 L 182.90 162.32 C 182.66 161.11 181.48 160.31 180.27 160.55 C 179.05 160.79 178.26 161.97 178.50 163.19 Z M 178.68 164.07 L 178.83 165.11 C 179.01 166.34 180.15 167.18 181.37 167.00 C 182.60 166.82 183.45 165.68 183.26 164.46 L 183.11 163.42 C 182.93 162.19 181.79 161.35 180.56 161.53 C 179.34 161.71 178.49 162.85 178.68 164.07 Z M 178.82 165.05 L 178.95 166.08 C 179.09 167.31 180.20 168.18 181.43 168.04 C 182.66 167.89 183.54 166.78 183.39 165.55 L 183.27 164.52 C 183.12 163.29 182.01 162.41 180.78 162.56 C 179.55 162.71 178.68 163.82 178.82 165.05 Z M 178.94 166.05 L 179.05 167.04 C 179.18 168.26 180.28 169.16 181.51 169.03 C 182.73 168.90 183.63 167.80 183.50 166.57 L 183.39 165.58 C 183.26 164.35 182.16 163.46 180.94 163.59 C 179.71 163.72 178.82 164.82 178.94 166.05 Z M 179.06 167.01 L 179.16 168.07 C 179.27 169.30 180.36 170.20 181.58 170.08 C 182.81 169.96 183.71 168.88 183.59 167.65 L 183.49 166.59 C 183.37 165.37 182.29 164.47 181.06 164.59 C 179.84 164.70 178.94 165.79 179.06 167.01 Z M 179.17 168.02 L 179.23 168.93 C 179.32 170.15 180.37 171.07 181.59 170.98 C 182.81 170.90 183.73 169.84 183.64 168.62 L 183.58 167.71 C 183.49 166.49 182.44 165.57 181.22 165.66 C 180.00 165.74 179.08 166.80 179.17 168.02 Z M 179.24 168.87 L 179.29 169.87 C 179.34 171.08 180.37 172.02 181.58 171.97 C 182.79 171.91 183.73 170.89 183.67 169.68 L 183.63 168.68 C 183.57 167.47 182.55 166.53 181.34 166.59 C 180.13 166.64 179.19 167.66 179.24 168.87 Z M 179.31 169.87 L 179.35 170.85 C 179.40 172.06 180.41 172.99 181.61 172.94 C 182.81 172.89 183.75 171.87 183.70 170.67 L 183.65 169.69 C 183.61 168.49 182.59 167.55 181.39 167.60 C 180.19 167.65 179.26 168.67 179.31 169.87 Z M 179.37 170.88 L 179.42 171.88 C 179.48 173.07 180.50 173.98 181.69 173.92 C 182.88 173.86 183.79 172.84 183.73 171.65 L 183.68 170.65 C 183.61 169.46 182.60 168.55 181.41 168.61 C 180.22 168.67 179.30 169.69 179.37 170.88 Z M 179.44 171.89 L 179.49 172.78 C 179.56 173.96 180.57 174.86 181.75 174.79 C 182.93 174.72 183.83 173.71 183.76 172.53 L 183.71 171.64 C 183.64 170.46 182.63 169.56 181.45 169.63 C 180.27 169.70 179.37 170.71 179.44 171.89 Z M 179.50 172.73 L 179.54 173.85 C 179.59 175.02 180.58 175.94 181.75 175.90 C 182.92 175.85 183.84 174.86 183.79 173.69 L 183.75 172.57 C 183.71 171.40 182.72 170.48 181.55 170.53 C 180.37 170.57 179.46 171.56 179.50 172.73 Z M 179.55 173.80 L 179.57 174.77 C 179.58 175.94 180.54 176.88 181.71 176.86 C 182.88 176.84 183.81 175.88 183.80 174.72 L 183.78 173.74 C 183.77 172.57 182.81 171.64 181.64 171.65 C 180.47 171.67 179.54 172.63 179.55 173.80 Z M 179.57 174.74 L 179.57 175.78 C 179.56 176.94 180.51 177.89 181.67 177.90 C 182.84 177.90 183.78 176.96 183.79 175.79 L 183.79 174.75 C 183.80 173.59 182.86 172.64 181.69 172.63 C 180.52 172.63 179.58 173.57 179.57 174.74 Z M 179.58 175.73 L 179.55 176.75 C 179.52 177.91 180.44 178.87 181.60 178.90 C 182.76 178.93 183.73 178.01 183.75 176.85 L 183.78 175.84 C 183.81 174.68 182.89 173.71 181.73 173.68 C 180.57 173.66 179.61 174.57 179.58 175.73 Z M 179.59 176.55 L 179.45 177.70 C 179.32 178.84 180.13 179.87 181.26 180.01 C 182.40 180.15 183.43 179.34 183.57 178.20 L 183.71 177.05 C 183.85 175.91 183.04 174.88 181.90 174.74 C 180.77 174.60 179.73 175.41 179.59 176.55 Z M 180.06 176.54 L 179.58 177.03 C 178.80 177.84 178.82 179.12 179.62 179.89 C 180.43 180.67 181.71 180.65 182.49 179.85 L 182.97 179.36 C 183.74 178.56 183.72 177.28 182.92 176.50 C 182.12 175.72 180.84 175.74 180.06 176.54 Z M 181.36 176.52 L 180.47 176.37 C 179.41 176.19 178.40 176.90 178.22 177.96 C 178.04 179.02 178.75 180.03 179.81 180.21 L 180.71 180.36 C 181.77 180.54 182.77 179.83 182.95 178.77 C 183.13 177.71 182.42 176.70 181.36 176.52 Z M 180.82 176.56 L 180.00 176.23 C 179.04 175.85 177.96 176.32 177.58 177.28 C 177.20 178.23 177.67 179.32 178.63 179.69 L 179.45 180.02 C 180.41 180.40 181.49 179.93 181.87 178.98 C 182.25 178.02 181.78 176.94 180.82 176.56 Z"
      fill="black"
      fill-rule="nonzero" /><path d="M 168.66 172.65 L 169.50 172.23 C 170.57 171.70 171.01 170.40 170.47 169.33 C 169.94 168.26 168.64 167.82 167.57 168.35 L 166.73 168.77 C 165.66 169.30 165.23 170.60 165.76 171.67 C 166.29 172.74 167.59 173.18 168.66 172.65 Z M 169.52 172.31 L 170.42 171.87 C 171.53 171.32 172.00 169.98 171.45 168.87 C 170.91 167.75 169.56 167.29 168.45 167.83 L 167.55 168.28 C 166.43 168.82 165.97 170.16 166.51 171.28 C 167.06 172.39 168.40 172.85 169.52 172.31 Z M 170.42 171.92 L 171.36 171.48 C 172.50 170.93 172.99 169.57 172.44 168.42 C 171.90 167.28 170.53 166.79 169.39 167.33 L 168.45 167.78 C 167.31 168.32 166.82 169.69 167.36 170.84 C 167.91 171.98 169.27 172.47 170.42 171.92 Z M 171.33 171.47 L 172.23 171.06 C 173.37 170.53 173.87 169.17 173.34 168.03 C 172.81 166.89 171.46 166.39 170.31 166.92 L 169.41 167.34 C 168.27 167.87 167.77 169.22 168.30 170.37 C 168.83 171.51 170.19 172.00 171.33 171.47 Z M 172.20 171.01 L 173.13 170.59 C 174.25 170.08 174.75 168.75 174.24 167.64 C 173.72 166.52 172.40 166.02 171.28 166.53 L 170.35 166.96 C 169.23 167.47 168.74 168.79 169.25 169.91 C 169.76 171.03 171.08 171.53 172.20 171.01 Z M 173.10 170.54 L 174.03 170.13 C 175.13 169.63 175.62 168.34 175.12 167.25 C 174.63 166.15 173.34 165.66 172.24 166.16 L 171.32 166.58 C 170.22 167.07 169.73 168.36 170.23 169.45 C 170.72 170.55 172.01 171.04 173.10 170.54 Z M 174.00 170.08 L 174.95 169.66 C 176.02 169.18 176.51 167.93 176.03 166.86 C 175.56 165.79 174.31 165.31 173.24 165.78 L 172.28 166.20 C 171.21 166.68 170.73 167.93 171.20 169.00 C 171.67 170.07 172.93 170.55 174.00 170.08 Z M 174.91 169.61 L 175.81 169.22 C 176.85 168.77 177.34 167.56 176.89 166.52 C 176.44 165.47 175.23 164.99 174.19 165.44 L 173.28 165.83 C 172.24 166.28 171.76 167.49 172.20 168.53 C 172.65 169.57 173.86 170.06 174.91 169.61 Z M 175.76 169.18 L 176.64 168.82 C 177.67 168.40 178.15 167.23 177.74 166.21 C 177.32 165.19 176.15 164.70 175.13 165.12 L 174.24 165.48 C 173.22 165.90 172.73 167.07 173.15 168.09 C 173.57 169.11 174.73 169.60 175.76 169.18 Z M 176.58 168.78 L 177.52 168.42 C 178.52 168.04 179.02 166.92 178.64 165.91 C 178.26 164.91 177.13 164.41 176.13 164.79 L 175.19 165.15 C 174.19 165.53 173.69 166.66 174.07 167.66 C 174.45 168.66 175.58 169.17 176.58 168.78 Z M 177.44 168.40 L 178.38 168.08 C 179.37 167.74 179.90 166.66 179.56 165.67 C 179.22 164.68 178.14 164.15 177.15 164.49 L 176.21 164.82 C 175.22 165.15 174.69 166.23 175.03 167.22 C 175.37 168.21 176.45 168.74 177.44 168.40 Z M 178.29 168.06 L 179.24 167.78 C 180.22 167.50 180.79 166.47 180.50 165.48 C 180.21 164.50 179.18 163.94 178.20 164.23 L 177.24 164.51 C 176.26 164.79 175.70 165.82 175.99 166.81 C 176.28 167.79 177.30 168.35 178.29 168.06 Z M 179.16 167.78 L 180.13 167.54 C 181.11 167.29 181.71 166.30 181.46 165.32 C 181.22 164.34 180.23 163.74 179.25 163.99 L 178.28 164.23 C 177.30 164.48 176.70 165.47 176.95 166.45 C 177.19 167.43 178.18 168.02 179.16 167.78 Z M 180.09 167.53 L 181.07 167.31 C 182.05 167.09 182.66 166.11 182.43 165.14 C 182.21 164.16 181.24 163.55 180.27 163.77 L 179.29 163.99 C 178.31 164.22 177.70 165.19 177.92 166.16 C 178.14 167.14 179.12 167.75 180.09 167.53 Z M 181.06 167.30 L 181.23 167.26 C 182.21 167.05 182.82 166.08 182.60 165.11 C 182.39 164.14 181.42 163.52 180.45 163.74 L 180.28 163.78 C 179.30 164.00 178.69 164.96 178.91 165.93 C 179.12 166.90 180.09 167.52 181.06 167.30 Z"
      fill="black"
      fill-rule="nonzero" /><path d="M 168.12 181.96 L 168.95 182.52 C 169.96 183.20 171.34 182.94 172.02 181.93 C 172.70 180.92 172.43 179.54 171.42 178.86 L 170.59 178.30 C 169.58 177.62 168.21 177.88 167.53 178.89 C 166.84 179.90 167.11 181.27 168.12 181.96 Z M 169.68 182.89 L 170.58 183.10 C 171.80 183.38 173.01 182.62 173.29 181.41 C 173.58 180.19 172.82 178.98 171.60 178.70 L 170.70 178.49 C 169.48 178.21 168.27 178.97 167.99 180.18 C 167.71 181.40 168.46 182.61 169.68 182.89 Z M 171.54 183.10 L 172.47 182.91 C 173.68 182.67 174.47 181.48 174.22 180.27 C 173.98 179.05 172.79 178.26 171.58 178.51 L 170.65 178.70 C 169.43 178.94 168.65 180.13 168.89 181.35 C 169.14 182.56 170.32 183.35 171.54 183.10 Z M 172.79 182.76 L 173.82 182.37 C 174.95 181.95 175.52 180.69 175.10 179.55 C 174.67 178.42 173.41 177.85 172.28 178.28 L 171.25 178.66 C 170.12 179.09 169.55 180.35 169.97 181.48 C 170.40 182.61 171.66 183.19 172.79 182.76 Z M 173.88 182.30 L 174.83 181.90 C 175.92 181.44 176.43 180.18 175.97 179.09 C 175.51 178.00 174.26 177.49 173.17 177.95 L 172.22 178.35 C 171.13 178.81 170.62 180.07 171.07 181.16 C 171.53 182.25 172.79 182.76 173.88 182.30 Z M 174.85 181.84 L 175.76 181.44 C 176.82 180.96 177.29 179.72 176.82 178.67 C 176.35 177.61 175.11 177.13 174.05 177.60 L 173.15 178.01 C 172.09 178.48 171.61 179.72 172.08 180.78 C 172.56 181.84 173.80 182.31 174.85 181.84 Z M 175.79 181.36 L 176.73 180.91 C 177.75 180.42 178.18 179.21 177.70 178.19 C 177.21 177.17 175.99 176.74 174.98 177.23 L 174.03 177.68 C 173.01 178.16 172.58 179.38 173.06 180.40 C 173.55 181.42 174.77 181.85 175.79 181.36 Z M 176.75 180.82 L 177.58 180.39 C 178.55 179.90 178.93 178.71 178.43 177.74 C 177.94 176.78 176.75 176.40 175.78 176.89 L 174.96 177.32 C 173.99 177.81 173.61 179.00 174.11 179.97 C 174.60 180.93 175.79 181.31 176.75 180.82 Z M 177.56 180.34 L 178.45 179.88 C 179.38 179.39 179.75 178.24 179.26 177.30 C 178.77 176.36 177.62 176.00 176.68 176.49 L 175.80 176.95 C 174.86 177.43 174.50 178.59 174.99 179.53 C 175.47 180.46 176.63 180.83 177.56 180.34 Z M 178.41 179.87 L 179.30 179.42 C 180.23 178.96 180.61 177.83 180.14 176.89 C 179.68 175.96 178.54 175.59 177.61 176.05 L 176.72 176.50 C 175.79 176.96 175.41 178.10 175.88 179.03 C 176.34 179.96 177.48 180.34 178.41 179.87 Z M 179.26 179.42 L 180.16 178.99 C 181.09 178.54 181.48 177.43 181.04 176.51 C 180.59 175.58 179.48 175.19 178.56 175.63 L 177.66 176.06 C 176.73 176.50 176.34 177.61 176.78 178.54 C 177.22 179.46 178.33 179.86 179.26 179.42 Z M 180.14 178.97 L 181.04 178.54 C 181.95 178.11 182.34 177.02 181.91 176.10 C 181.48 175.19 180.38 174.79 179.47 175.23 L 178.57 175.65 C 177.66 176.08 177.27 177.18 177.70 178.09 C 178.13 179.01 179.23 179.40 180.14 178.97 Z M 181.00 178.54 L 181.92 178.12 C 182.83 177.71 183.23 176.63 182.82 175.72 C 182.40 174.81 181.33 174.40 180.42 174.82 L 179.50 175.23 C 178.59 175.65 178.19 176.72 178.60 177.64 C 179.01 178.55 180.09 178.95 181.00 178.54 Z M 181.87 178.13 L 182.79 177.74 C 183.71 177.34 184.14 176.28 183.74 175.37 C 183.35 174.45 182.29 174.03 181.38 174.42 L 180.46 174.81 C 179.54 175.20 179.12 176.26 179.51 177.18 C 179.90 178.09 180.96 178.52 181.87 178.13 Z M 182.78 177.74 L 183.18 177.57 C 184.09 177.19 184.53 176.13 184.14 175.22 C 183.76 174.30 182.70 173.87 181.79 174.25 L 181.39 174.42 C 180.47 174.80 180.04 175.86 180.43 176.77 C 180.81 177.69 181.86 178.12 182.78 177.74 Z"
      fill="black"
      fill-rule="nonzero" /></svg>