<svg xmlns="http://www.w3.org/2000/svg" width="300" height="300" viewBox="0 0 300 300">
<path d="M 125.40 130.83 L 124.43 130.56 C 123.37 130.26 122.27 130.88 121.98 131.94 C 121.68 133.00 122.30 134.09 123.36 134.39 L 124.33 134.66 C 125.39 134.96 126.49 134.34 126.78 133.28 C 127.08 132.22 126.46 131.12 125.40 130.83 Z M 124.30 130.36 L 123.22 130.16 C 122.05 129.93 120.93 130.70 120.70 131.87 C 120.48 133.03 121.25 134.16 122.41 134.38 L 123.49 134.58 C 124.66 134.81 125.78 134.04 126.00 132.87 C 126.23 131.71 125.46 130.58 124.30 130.36 Z M 122.06 130.11 L 121.42 130.34 C 120.23 130.75 119.60 132.06 120.02 133.25 C 120.43 134.44 121.74 135.07 122.93 134.65 L 123.57 134.42 C 124.76 134.01 125.39 132.70 124.97 131.51 C 124.55 130.32 123.25 129.69 122.06 130.11 Z M 120.32 133.93 L 120.93 134.71 C 121.72 135.73 123.19 135.92 124.22 135.13 C 125.24 134.34 125.43 132.86 124.63 131.84 L 124.03 131.06 C 123.23 130.03 121.76 129.85 120.74 130.64 C 119.71 131.43 119.53 132.90 120.32 133.93 Z M 121.43 135.17 L 122.27 135.78 C 123.32 136.53 124.78 136.28 125.52 135.23 C 126.27 134.19 126.03 132.73 124.98 131.98 L 124.14 131.38 C 123.09 130.63 121.63 130.87 120.88 131.92 C 120.13 132.97 120.38 134.43 121.43 135.17 Z M 122.53 135.91 L 123.43 136.39 C 124.55 137.00 125.95 136.58 126.55 135.46 C 127.16 134.34 126.74 132.94 125.62 132.34 L 124.72 131.85 C 123.60 131.25 122.20 131.66 121.60 132.78 C 120.99 133.90 121.41 135.30 122.53 135.91 Z M 123.61 136.41 L 124.54 136.83 C 125.67 137.33 127.00 136.82 127.50 135.69 C 128.01 134.56 127.50 133.23 126.36 132.73 L 125.44 132.32 C 124.31 131.81 122.98 132.32 122.48 133.45 C 121.97 134.59 122.48 135.91 123.61 136.41 Z M 124.71 136.78 L 125.64 137.12 C 126.74 137.53 127.97 136.97 128.38 135.87 C 128.79 134.77 128.23 133.54 127.13 133.13 L 126.20 132.78 C 125.10 132.37 123.87 132.93 123.46 134.03 C 123.04 135.14 123.61 136.36 124.71 136.78 Z M 125.77 137.05 L 126.71 137.35 C 127.77 137.69 128.91 137.11 129.25 136.04 C 129.59 134.98 129.01 133.84 127.95 133.50 L 127.00 133.20 C 125.94 132.86 124.80 133.45 124.46 134.51 C 124.12 135.57 124.71 136.71 125.77 137.05 Z M 126.79 137.29 L 127.75 137.57 C 128.78 137.86 129.85 137.27 130.15 136.24 C 130.45 135.21 129.85 134.14 128.82 133.84 L 127.86 133.57 C 126.84 133.27 125.76 133.86 125.47 134.89 C 125.17 135.92 125.76 136.99 126.79 137.29 Z M 127.79 137.52 L 128.77 137.78 C 129.77 138.05 130.80 137.46 131.07 136.46 C 131.35 135.46 130.76 134.43 129.75 134.16 L 128.78 133.89 C 127.78 133.62 126.75 134.21 126.48 135.21 C 126.20 136.21 126.79 137.24 127.79 137.52 Z M 128.79 137.75 L 129.75 138.00 C 130.73 138.27 131.74 137.68 132.00 136.70 C 132.27 135.72 131.68 134.71 130.70 134.45 L 129.73 134.19 C 128.75 133.93 127.75 134.51 127.48 135.50 C 127.22 136.48 127.81 137.49 128.79 137.75 Z M 129.76 137.98 L 130.73 138.24 C 131.70 138.50 132.70 137.92 132.95 136.95 C 133.21 135.97 132.63 134.98 131.66 134.72 L 130.69 134.47 C 129.72 134.21 128.72 134.79 128.47 135.76 C 128.21 136.73 128.79 137.73 129.76 137.98 Z M 130.74 138.23 L 130.80 138.25 C 131.76 138.50 132.75 137.92 133.00 136.96 C 133.26 135.99 132.68 135.00 131.72 134.75 L 131.66 134.73 C 130.69 134.48 129.70 135.06 129.45 136.02 C 129.19 136.99 129.77 137.98 130.74 138.23 Z"
      fill="black"
      fill-rule="nonzero" /><path d="M 123.35 146.54 L 122.25 147.19 C 121.27 147.77 120.96 149.03 121.53 150.00 C 122.11 150.97 123.37 151.29 124.34 150.71 L 125.44 150.06 C 126.41 149.48 126.73 148.22 126.16 147.25 C 125.58 146.28 124.32 145.96 123.35 146.54 Z M 122.03 147.20 L 121.28 147.75 C 120.31 148.44 120.09 149.80 120.79 150.76 C 121.49 151.73 122.84 151.95 123.81 151.25 L 124.56 150.70 C 125.53 150.00 125.74 148.65 125.04 147.69 C 124.34 146.72 122.99 146.50 122.03 147.20 Z M 120.29 149.52 L 120.30 149.86 C 120.31 151.11 121.32 152.11 122.56 152.09 C 123.81 152.08 124.81 151.07 124.79 149.83 L 124.79 149.48 C 124.78 148.23 123.76 147.24 122.52 147.25 C 121.28 147.26 120.28 148.27 120.29 149.52 Z M 122.67 152.14 L 123.73 152.08 C 124.99 152.01 125.96 150.93 125.90 149.66 C 125.83 148.40 124.75 147.43 123.48 147.50 L 122.42 147.55 C 121.15 147.62 120.18 148.70 120.25 149.97 C 120.32 151.24 121.40 152.21 122.67 152.14 Z M 124.25 152.01 L 125.31 151.70 C 126.53 151.35 127.24 150.06 126.88 148.84 C 126.53 147.61 125.24 146.90 124.02 147.26 L 122.96 147.57 C 121.73 147.92 121.03 149.21 121.38 150.43 C 121.74 151.66 123.02 152.36 124.25 152.01 Z M 125.52 151.63 L 126.43 151.26 C 127.62 150.79 128.20 149.45 127.72 148.26 C 127.25 147.08 125.91 146.50 124.72 146.97 L 123.81 147.33 C 122.62 147.81 122.04 149.15 122.52 150.34 C 122.99 151.52 124.33 152.10 125.52 151.63 Z M 126.53 151.21 L 127.48 150.78 C 128.63 150.26 129.15 148.90 128.62 147.74 C 128.10 146.58 126.73 146.06 125.58 146.59 L 124.63 147.02 C 123.47 147.54 122.96 148.91 123.48 150.07 C 124.00 151.22 125.37 151.74 126.53 151.21 Z M 127.52 150.75 L 128.46 150.30 C 129.60 149.75 130.08 148.38 129.53 147.24 C 128.99 146.10 127.62 145.62 126.48 146.17 L 125.53 146.62 C 124.39 147.17 123.91 148.54 124.46 149.68 C 125.01 150.82 126.38 151.30 127.52 150.75 Z M 128.46 150.25 L 129.38 149.80 C 130.50 149.26 130.96 147.91 130.42 146.79 C 129.87 145.68 128.53 145.22 127.41 145.76 L 126.48 146.21 C 125.37 146.76 124.91 148.10 125.45 149.22 C 126.00 150.33 127.34 150.80 128.46 150.25 Z M 129.36 149.74 L 130.26 149.30 C 131.34 148.77 131.78 147.46 131.25 146.38 C 130.72 145.30 129.42 144.85 128.34 145.38 L 127.44 145.82 C 126.36 146.35 125.91 147.66 126.44 148.74 C 126.97 149.82 128.28 150.27 129.36 149.74 Z M 130.22 149.24 L 131.09 148.82 C 132.14 148.31 132.58 147.04 132.07 145.99 C 131.56 144.94 130.29 144.50 129.24 145.02 L 128.37 145.44 C 127.32 145.95 126.88 147.22 127.39 148.27 C 127.91 149.32 129.17 149.75 130.22 149.24 Z M 131.05 148.77 L 132.00 148.32 C 133.02 147.83 133.45 146.60 132.96 145.58 C 132.47 144.56 131.25 144.12 130.23 144.61 L 129.28 145.07 C 128.26 145.55 127.83 146.78 128.32 147.80 C 128.80 148.82 130.03 149.26 131.05 148.77 Z M 131.95 148.27 L 132.88 147.84 C 133.88 147.38 134.32 146.20 133.86 145.20 C 133.40 144.20 132.21 143.76 131.21 144.22 L 130.28 144.65 C 129.28 145.11 128.84 146.30 129.30 147.30 C 129.76 148.30 130.95 148.74 131.95 148.27 Z M 132.81 147.81 L 133.68 147.44 C 134.66 147.01 135.11 145.87 134.69 144.89 C 134.26 143.91 133.12 143.46 132.14 143.88 L 131.28 144.26 C 130.29 144.68 129.84 145.82 130.27 146.80 C 130.69 147.78 131.83 148.24 132.81 147.81 Z M 133.58 147.42 L 134.56 147.05 C 135.53 146.68 136.01 145.58 135.64 144.61 C 135.27 143.64 134.18 143.15 133.20 143.53 L 132.23 143.90 C 131.26 144.27 130.78 145.36 131.15 146.34 C 131.52 147.31 132.61 147.79 133.58 147.42 Z M 134.46 147.04 L 135.38 146.73 C 136.34 146.41 136.86 145.37 136.54 144.40 C 136.22 143.44 135.18 142.91 134.21 143.24 L 133.30 143.54 C 132.33 143.86 131.81 144.90 132.13 145.87 C 132.45 146.83 133.50 147.36 134.46 147.04 Z M 135.34 146.71 L 135.71 146.60 C 136.66 146.30 137.19 145.28 136.89 144.33 C 136.59 143.37 135.58 142.84 134.62 143.14 L 134.25 143.25 C 133.30 143.55 132.77 144.57 133.07 145.53 C 133.37 146.48 134.38 147.01 135.34 146.71 Z"
      fill="black"
      fill-rule="nonzero" /><path d="M 122.44 167.60 L 121.90 168.50 C 121.38 169.36 121.67 170.48 122.53 171.00 C 123.40 171.51 124.51 171.23 125.03 170.36 L 125.56 169.46 C 126.08 168.60 125.80 167.48 124.93 166.97 C 124.07 166.45 122.95 166.73 122.44 167.60 Z M 121.87 168.49 L 121.37 169.33 C 120.85 170.21 121.14 171.35 122.02 171.87 C 122.90 172.39 124.04 172.10 124.56 171.22 L 125.06 170.38 C 125.58 169.50 125.29 168.36 124.41 167.84 C 123.53 167.31 122.39 167.61 121.87 168.49 Z M 121.32 169.33 L 120.82 170.20 C 120.30 171.10 120.61 172.26 121.51 172.78 C 122.42 173.31 123.57 173.00 124.10 172.09 L 124.60 171.22 C 125.13 170.32 124.82 169.16 123.91 168.64 C 123.01 168.11 121.85 168.42 121.32 169.33 Z M 120.73 170.26 L 120.29 171.12 C 119.80 172.07 120.18 173.24 121.13 173.73 C 122.09 174.22 123.25 173.84 123.74 172.89 L 124.18 172.03 C 124.67 171.08 124.30 169.91 123.34 169.42 C 122.39 168.93 121.22 169.31 120.73 170.26 Z M 120.08 171.31 L 119.70 172.37 C 119.32 173.44 119.87 174.62 120.94 175.00 C 122.01 175.39 123.18 174.83 123.57 173.77 L 123.95 172.70 C 124.34 171.63 123.78 170.45 122.71 170.07 C 121.65 169.69 120.47 170.24 120.08 171.31 Z M 119.66 174.05 L 119.89 174.53 C 120.44 175.62 121.76 176.07 122.85 175.53 C 123.95 174.98 124.39 173.66 123.85 172.57 L 123.61 172.09 C 123.07 171.00 121.75 170.55 120.65 171.09 C 119.56 171.63 119.11 172.96 119.66 174.05 Z M 122.89 175.58 L 123.90 175.07 C 125.02 174.51 125.47 173.14 124.91 172.02 C 124.34 170.90 122.98 170.45 121.85 171.01 L 120.85 171.52 C 119.73 172.08 119.28 173.45 119.84 174.57 C 120.41 175.69 121.77 176.14 122.89 175.58 Z M 124.33 174.79 L 125.08 174.17 C 126.05 173.37 126.18 171.93 125.38 170.97 C 124.58 170.00 123.14 169.87 122.18 170.67 L 121.42 171.29 C 120.46 172.10 120.32 173.53 121.13 174.50 C 121.93 175.46 123.36 175.60 124.33 174.79 Z M 125.19 174.06 L 125.94 173.35 C 126.85 172.49 126.88 171.05 126.02 170.15 C 125.16 169.24 123.72 169.20 122.82 170.07 L 122.07 170.78 C 121.16 171.64 121.12 173.07 121.99 173.98 C 122.85 174.89 124.28 174.92 125.19 174.06 Z M 125.99 173.29 L 126.71 172.55 C 127.58 171.66 127.57 170.23 126.68 169.36 C 125.79 168.49 124.36 168.50 123.49 169.39 L 122.77 170.13 C 121.89 171.02 121.91 172.45 122.80 173.32 C 123.69 174.19 125.12 174.18 125.99 173.29 Z M 126.72 172.49 L 127.43 171.72 C 128.27 170.83 128.22 169.43 127.33 168.59 C 126.44 167.76 125.04 167.80 124.20 168.69 L 123.49 169.46 C 122.65 170.35 122.69 171.75 123.59 172.59 C 124.48 173.42 125.88 173.38 126.72 172.49 Z M 127.40 171.64 L 128.06 170.92 C 128.85 170.04 128.78 168.69 127.90 167.90 C 127.02 167.11 125.67 167.18 124.88 168.05 L 124.23 168.78 C 123.44 169.65 123.51 171.01 124.38 171.80 C 125.26 172.59 126.61 172.52 127.40 171.64 Z M 128.02 170.85 L 128.68 170.11 C 129.43 169.25 129.35 167.94 128.49 167.19 C 127.63 166.43 126.33 166.52 125.57 167.37 L 124.92 168.12 C 124.16 168.98 124.24 170.28 125.10 171.04 C 125.96 171.79 127.26 171.71 128.02 170.85 Z M 128.64 170.07 L 129.32 169.28 C 130.05 168.45 129.97 167.18 129.14 166.44 C 128.30 165.71 127.03 165.80 126.30 166.63 L 125.61 167.42 C 124.88 168.25 124.96 169.52 125.80 170.25 C 126.63 170.98 127.91 170.90 128.64 170.07 Z M 129.28 169.26 L 129.92 168.53 C 130.64 167.72 130.56 166.48 129.75 165.76 C 128.94 165.04 127.70 165.12 126.98 165.93 L 126.34 166.66 C 125.62 167.47 125.70 168.71 126.51 169.43 C 127.32 170.15 128.57 170.07 129.28 169.26 Z M 129.87 168.52 L 130.57 167.74 C 131.28 166.96 131.22 165.75 130.44 165.04 C 129.65 164.33 128.44 164.39 127.74 165.17 L 127.03 165.95 C 126.32 166.73 126.38 167.94 127.17 168.65 C 127.95 169.36 129.16 169.30 129.87 168.52 Z M 130.51 167.72 L 131.15 167.03 C 131.84 166.28 131.80 165.11 131.05 164.41 C 130.29 163.71 129.12 163.76 128.42 164.51 L 127.79 165.20 C 127.09 165.95 127.14 167.12 127.89 167.82 C 128.64 168.52 129.82 168.47 130.51 167.72 Z M 131.13 167.00 L 131.81 166.26 C 132.48 165.52 132.43 164.37 131.69 163.69 C 130.95 163.01 129.80 163.06 129.12 163.80 L 128.44 164.54 C 127.76 165.28 127.81 166.44 128.56 167.12 C 129.30 167.79 130.45 167.74 131.13 167.00 Z M 131.79 166.26 L 132.48 165.52 C 133.15 164.78 133.10 163.64 132.37 162.96 C 131.63 162.29 130.49 162.33 129.82 163.07 L 129.13 163.81 C 128.46 164.54 128.50 165.69 129.24 166.36 C 129.97 167.04 131.12 166.99 131.79 166.26 Z M 132.45 165.53 L 133.14 164.81 C 133.82 164.08 133.79 162.94 133.07 162.26 C 132.34 161.58 131.20 161.61 130.52 162.33 L 129.84 163.05 C 129.15 163.78 129.18 164.92 129.91 165.60 C 130.63 166.28 131.77 166.25 132.45 165.53 Z M 133.11 164.83 L 133.81 164.12 C 134.51 163.41 134.49 162.27 133.78 161.57 C 133.07 160.88 131.94 160.89 131.24 161.60 L 130.54 162.31 C 129.85 163.02 129.86 164.16 130.57 164.85 C 131.28 165.55 132.42 165.54 133.11 164.83 Z M 133.80 164.13 L 134.38 163.55 C 135.09 162.84 135.09 161.70 134.38 161.00 C 133.68 160.30 132.54 160.30 131.84 161.00 L 131.25 161.59 C 130.55 162.29 130.55 163.43 131.25 164.13 C 131.96 164.83 133.09 164.83 133.80 164.13 Z"
      fill="black"
      fill-rule="nonzero" /><path d="M 147.56 116.68 L 146.70 117.52 C 145.95 118.25 145.93 119.45 146.66 120.20 C 147.39 120.95 148.59 120.97 149.34 120.24 L 150.21 119.40 C 150.96 118.67 150.97 117.47 150.24 116.72 C 149.51 115.97 148.31 115.95 147.56 116.68 Z M 146.34 117.67 L 145.85 118.35 C 145.18 119.28 145.39 120.58 146.32 121.24 C 147.24 121.91 148.54 121.70 149.21 120.78 L 149.70 120.09 C 150.37 119.16 150.16 117.87 149.23 117.20 C 148.30 116.53 147.01 116.74 146.34 117.67 Z M 145.79 120.90 L 146.15 121.37 C 146.88 122.32 148.26 122.51 149.22 121.77 C 150.18 121.03 150.36 119.66 149.62 118.70 L 149.27 118.23 C 148.53 117.27 147.15 117.09 146.19 117.83 C 145.23 118.56 145.05 119.94 145.79 120.90 Z M 147.61 122.26 L 148.81 122.40 C 150.04 122.55 151.16 121.68 151.31 120.45 C 151.46 119.22 150.59 118.10 149.36 117.95 L 148.16 117.80 C 146.93 117.65 145.81 118.53 145.66 119.76 C 145.51 120.99 146.38 122.11 147.61 122.26 Z M 149.01 122.44 L 150.03 122.47 C 151.28 122.51 152.32 121.53 152.36 120.28 C 152.40 119.03 151.42 117.99 150.17 117.95 L 149.16 117.92 C 147.91 117.88 146.86 118.86 146.82 120.11 C 146.78 121.35 147.76 122.40 149.01 122.44 Z M 150.08 122.47 L 151.12 122.48 C 152.37 122.49 153.39 121.49 153.40 120.24 C 153.41 118.99 152.41 117.97 151.16 117.96 L 150.12 117.95 C 148.87 117.93 147.85 118.94 147.84 120.19 C 147.82 121.44 148.83 122.46 150.08 122.47 Z M 151.14 122.47 L 152.19 122.47 C 153.43 122.47 154.44 121.47 154.44 120.22 C 154.44 118.97 153.43 117.96 152.19 117.96 L 151.14 117.96 C 149.90 117.96 148.89 118.97 148.89 120.22 C 148.88 121.46 149.89 122.47 151.14 122.47 Z M 152.24 122.44 L 153.24 122.42 C 154.47 122.39 155.44 121.37 155.41 120.14 C 155.38 118.92 154.36 117.94 153.14 117.97 L 152.14 118.00 C 150.91 118.02 149.94 119.04 149.97 120.27 C 149.99 121.50 151.01 122.47 152.24 122.44 Z M 153.46 122.36 L 154.35 122.25 C 155.55 122.10 156.40 121.01 156.25 119.81 C 156.10 118.61 155.00 117.76 153.81 117.92 L 152.91 118.03 C 151.72 118.18 150.87 119.27 151.02 120.47 C 151.17 121.67 152.26 122.51 153.46 122.36 Z M 154.55 122.20 L 155.53 121.98 C 156.70 121.72 157.44 120.56 157.18 119.39 C 156.92 118.22 155.76 117.49 154.59 117.75 L 153.61 117.96 C 152.44 118.23 151.70 119.38 151.96 120.56 C 152.22 121.73 153.38 122.46 154.55 122.20 Z M 155.56 121.97 L 156.53 121.74 C 157.69 121.47 158.41 120.30 158.14 119.14 C 157.87 117.98 156.70 117.26 155.54 117.53 L 154.57 117.76 C 153.41 118.03 152.68 119.20 152.96 120.36 C 153.23 121.52 154.39 122.24 155.56 121.97 Z M 156.53 121.72 L 157.51 121.49 C 158.66 121.21 159.37 120.06 159.10 118.90 C 158.82 117.75 157.67 117.04 156.51 117.32 L 155.54 117.55 C 154.38 117.83 153.67 118.98 153.95 120.14 C 154.22 121.29 155.38 122.00 156.53 121.72 Z M 157.54 121.46 L 158.49 121.21 C 159.63 120.92 160.31 119.76 160.02 118.63 C 159.72 117.49 158.57 116.81 157.43 117.10 L 156.48 117.35 C 155.35 117.64 154.67 118.80 154.96 119.93 C 155.25 121.07 156.41 121.75 157.54 121.46 Z M 158.50 121.18 L 159.48 120.92 C 160.60 120.63 161.27 119.48 160.97 118.36 C 160.68 117.24 159.53 116.58 158.41 116.87 L 157.43 117.13 C 156.31 117.43 155.64 118.57 155.94 119.69 C 156.23 120.81 157.38 121.48 158.50 121.18 Z M 159.47 120.89 L 160.45 120.63 C 161.55 120.34 162.20 119.21 161.91 118.11 C 161.62 117.01 160.49 116.36 159.39 116.65 L 158.42 116.91 C 157.32 117.20 156.66 118.33 156.95 119.43 C 157.24 120.53 158.37 121.18 159.47 120.89 Z M 160.48 120.58 L 161.45 120.30 C 162.52 119.99 163.14 118.87 162.83 117.80 C 162.52 116.73 161.40 116.11 160.33 116.42 L 159.36 116.70 C 158.28 117.01 157.67 118.13 157.98 119.20 C 158.29 120.27 159.41 120.89 160.48 120.58 Z M 161.51 120.24 L 162.47 119.93 C 163.51 119.58 164.07 118.46 163.73 117.42 C 163.39 116.38 162.26 115.82 161.22 116.16 L 160.27 116.48 C 159.23 116.82 158.66 117.94 159.00 118.98 C 159.35 120.02 160.47 120.59 161.51 120.24 Z M 162.49 119.88 L 163.42 119.56 C 164.44 119.20 164.97 118.08 164.62 117.07 C 164.26 116.05 163.15 115.52 162.13 115.88 L 161.20 116.20 C 160.18 116.56 159.65 117.68 160.01 118.69 C 160.36 119.71 161.48 120.24 162.49 119.88 Z M 163.44 119.52 L 164.38 119.18 C 165.37 118.81 165.88 117.71 165.52 116.71 C 165.16 115.72 164.05 115.21 163.06 115.57 L 162.12 115.91 C 161.12 116.28 160.61 117.38 160.97 118.37 C 161.34 119.37 162.44 119.88 163.44 119.52 Z M 164.42 119.13 L 165.30 118.78 C 166.27 118.39 166.74 117.29 166.35 116.32 C 165.96 115.35 164.86 114.87 163.89 115.26 L 163.01 115.61 C 162.04 116.00 161.57 117.10 161.96 118.08 C 162.35 119.05 163.45 119.52 164.42 119.13 Z M 165.34 118.74 L 166.27 118.34 C 167.22 117.93 167.65 116.82 167.24 115.87 C 166.83 114.93 165.73 114.49 164.78 114.90 L 163.85 115.30 C 162.90 115.71 162.46 116.82 162.88 117.77 C 163.29 118.72 164.39 119.15 165.34 118.74 Z M 166.27 118.32 L 167.20 117.91 C 168.14 117.49 168.56 116.40 168.15 115.46 C 167.73 114.52 166.64 114.10 165.70 114.51 L 164.77 114.92 C 163.84 115.34 163.41 116.43 163.83 117.37 C 164.24 118.31 165.34 118.73 166.27 118.32 Z M 167.19 117.90 L 168.13 117.48 C 169.06 117.07 169.49 115.99 169.08 115.06 C 168.67 114.13 167.58 113.70 166.65 114.11 L 165.71 114.52 C 164.78 114.93 164.36 116.02 164.76 116.95 C 165.17 117.88 166.26 118.30 167.19 117.90 Z M 168.10 117.48 L 169.06 117.08 C 169.99 116.68 170.42 115.61 170.03 114.68 C 169.63 113.75 168.56 113.32 167.63 113.71 L 166.68 114.11 C 165.75 114.51 165.32 115.58 165.71 116.51 C 166.10 117.44 167.17 117.87 168.10 117.48 Z M 169.02 117.08 L 169.95 116.71 C 170.88 116.33 171.33 115.28 170.96 114.35 C 170.58 113.42 169.53 112.96 168.60 113.34 L 167.67 113.71 C 166.74 114.08 166.29 115.14 166.66 116.07 C 167.03 117.00 168.09 117.45 169.02 117.08 Z M 169.93 116.70 L 170.46 116.50 C 171.39 116.13 171.85 115.09 171.49 114.16 C 171.13 113.23 170.08 112.77 169.15 113.13 L 168.62 113.34 C 167.69 113.70 167.23 114.75 167.59 115.68 C 167.95 116.60 169.00 117.06 169.93 116.70 Z"
      fill="black"
      fill-rule="nonzero" /><path d="M 145.99 132.42 L 146.92 132.64 C 148.01 132.89 149.11 132.21 149.36 131.12 C 149.61 130.02 148.93 128.93 147.84 128.68 L 146.91 128.46 C 145.82 128.21 144.73 128.89 144.47 129.98 C 144.22 131.07 144.90 132.17 145.99 132.42 Z M 147.33 132.78 L 148.36 132.81 C 149.53 132.84 150.51 131.91 150.54 130.74 C 150.57 129.56 149.64 128.59 148.47 128.56 L 147.43 128.53 C 146.26 128.50 145.28 129.43 145.25 130.60 C 145.22 131.78 146.15 132.75 147.33 132.78 Z M 148.80 132.81 L 149.79 132.63 C 150.96 132.42 151.74 131.29 151.53 130.12 C 151.31 128.95 150.19 128.17 149.02 128.38 L 148.03 128.56 C 146.85 128.77 146.07 129.90 146.29 131.07 C 146.50 132.24 147.62 133.02 148.80 132.81 Z M 149.96 132.57 L 150.93 132.31 C 152.08 132.00 152.75 130.82 152.44 129.68 C 152.13 128.54 150.96 127.86 149.81 128.17 L 148.84 128.43 C 147.70 128.74 147.02 129.92 147.33 131.06 C 147.64 132.21 148.82 132.88 149.96 132.57 Z M 150.98 132.28 L 151.99 131.98 C 153.12 131.65 153.76 130.46 153.42 129.33 C 153.09 128.21 151.90 127.57 150.78 127.90 L 149.77 128.20 C 148.64 128.54 148.00 129.72 148.33 130.85 C 148.67 131.97 149.85 132.62 150.98 132.28 Z M 152.02 131.95 L 152.91 131.67 C 154.02 131.33 154.64 130.14 154.29 129.03 C 153.94 127.92 152.76 127.30 151.65 127.65 L 150.75 127.93 C 149.64 128.28 149.02 129.46 149.37 130.57 C 149.72 131.68 150.90 132.30 152.02 131.95 Z M 152.93 131.64 L 153.87 131.33 C 154.97 130.96 155.56 129.78 155.20 128.69 C 154.83 127.60 153.65 127.01 152.56 127.37 L 151.62 127.68 C 150.53 128.05 149.94 129.23 150.30 130.32 C 150.66 131.41 151.84 132.00 152.93 131.64 Z M 153.91 131.28 L 154.85 130.94 C 155.92 130.56 156.47 129.38 156.09 128.32 C 155.71 127.25 154.53 126.70 153.46 127.08 L 152.52 127.42 C 151.46 127.80 150.90 128.98 151.29 130.04 C 151.67 131.11 152.84 131.66 153.91 131.28 Z M 154.88 130.90 L 155.82 130.54 C 156.86 130.14 157.38 128.97 156.98 127.93 C 156.59 126.89 155.42 126.36 154.37 126.76 L 153.44 127.12 C 152.39 127.52 151.87 128.69 152.27 129.73 C 152.67 130.78 153.84 131.30 154.88 130.90 Z M 155.82 130.51 L 156.75 130.15 C 157.78 129.75 158.29 128.59 157.89 127.56 C 157.49 126.54 156.33 126.03 155.30 126.43 L 154.37 126.79 C 153.34 127.19 152.83 128.35 153.23 129.38 C 153.63 130.41 154.79 130.91 155.82 130.51 Z M 156.74 130.13 L 157.68 129.77 C 158.70 129.37 159.20 128.23 158.81 127.21 C 158.41 126.19 157.26 125.69 156.25 126.08 L 155.31 126.45 C 154.29 126.84 153.79 127.99 154.18 129.01 C 154.58 130.02 155.73 130.53 156.74 130.13 Z M 157.67 129.75 L 158.60 129.39 C 159.61 129.00 160.11 127.87 159.72 126.86 C 159.33 125.86 158.20 125.35 157.19 125.74 L 156.26 126.10 C 155.25 126.49 154.75 127.62 155.14 128.63 C 155.53 129.64 156.66 130.14 157.67 129.75 Z M 158.60 129.37 L 159.53 129.00 C 160.53 128.61 161.02 127.49 160.63 126.50 C 160.24 125.50 159.12 125.01 158.12 125.40 L 157.19 125.77 C 156.20 126.15 155.71 127.28 156.09 128.27 C 156.48 129.26 157.60 129.76 158.60 129.37 Z M 159.55 128.96 L 160.50 128.58 C 161.47 128.18 161.94 127.06 161.53 126.09 C 161.13 125.11 160.02 124.65 159.04 125.05 L 158.10 125.44 C 157.13 125.84 156.66 126.95 157.06 127.93 C 157.47 128.90 158.58 129.37 159.55 128.96 Z M 160.52 128.53 L 161.45 128.13 C 162.39 127.71 162.82 126.60 162.41 125.65 C 161.99 124.71 160.89 124.28 159.94 124.69 L 159.02 125.10 C 158.07 125.51 157.64 126.62 158.05 127.57 C 158.47 128.52 159.58 128.95 160.52 128.53 Z M 161.48 128.08 L 162.35 127.67 C 163.27 127.23 163.66 126.13 163.23 125.21 C 162.79 124.29 161.69 123.89 160.77 124.33 L 159.90 124.74 C 158.98 125.18 158.59 126.28 159.02 127.20 C 159.46 128.12 160.56 128.51 161.48 128.08 Z M 162.39 127.63 L 163.26 127.18 C 164.16 126.72 164.52 125.62 164.06 124.72 C 163.60 123.82 162.50 123.47 161.60 123.93 L 160.73 124.37 C 159.83 124.83 159.47 125.93 159.93 126.83 C 160.39 127.73 161.49 128.08 162.39 127.63 Z M 163.29 127.15 L 164.16 126.69 C 165.04 126.21 165.37 125.11 164.90 124.23 C 164.43 123.35 163.33 123.01 162.44 123.49 L 161.57 123.95 C 160.69 124.43 160.36 125.53 160.83 126.41 C 161.30 127.29 162.41 127.63 163.29 127.15 Z M 164.17 126.67 L 165.04 126.20 C 165.91 125.72 166.24 124.62 165.76 123.75 C 165.28 122.87 164.18 122.55 163.30 123.02 L 162.43 123.50 C 161.56 123.98 161.23 125.08 161.71 125.95 C 162.19 126.83 163.29 127.15 164.17 126.67 Z M 165.04 126.19 L 165.97 125.68 C 166.84 125.21 167.16 124.11 166.68 123.23 C 166.20 122.36 165.10 122.04 164.23 122.52 L 163.30 123.03 C 162.43 123.51 162.11 124.61 162.59 125.48 C 163.07 126.35 164.17 126.67 165.04 126.19 Z M 165.97 125.68 L 166.07 125.63 C 166.94 125.15 167.26 124.05 166.78 123.18 C 166.30 122.31 165.20 121.99 164.33 122.47 L 164.23 122.52 C 163.36 123.00 163.04 124.10 163.52 124.97 C 164.00 125.84 165.09 126.16 165.97 125.68 Z"
      fill="black"
      fill-rule="nonzero" /><path d="M 152.43 112.43 L 152.80 113.29 C 153.27 114.36 154.52 114.85 155.59 114.39 C 156.67 113.92 157.16 112.67 156.69 111.59 L 156.32 110.74 C 155.86 109.66 154.61 109.17 153.53 109.64 C 152.45 110.11 151.96 111.36 152.43 112.43 Z M 152.64 113.07 L 152.94 114.07 C 153.28 115.24 154.51 115.90 155.67 115.55 C 156.84 115.21 157.50 113.98 157.15 112.82 L 156.85 111.81 C 156.51 110.65 155.28 109.98 154.12 110.33 C 152.95 110.68 152.29 111.90 152.64 113.07 Z M 152.85 113.86 L 153.05 114.86 C 153.28 116.07 154.45 116.86 155.66 116.63 C 156.87 116.40 157.66 115.23 157.43 114.02 L 157.24 113.02 C 157.00 111.81 155.83 111.02 154.62 111.25 C 153.41 111.49 152.62 112.65 152.85 113.86 Z M 153.03 114.77 L 153.18 115.76 C 153.37 116.98 154.50 117.82 155.72 117.64 C 156.93 117.45 157.77 116.32 157.59 115.10 L 157.44 114.11 C 157.26 112.89 156.12 112.06 154.91 112.24 C 153.69 112.42 152.85 113.55 153.03 114.77 Z M 153.20 115.72 L 153.33 116.75 C 153.49 117.96 154.60 118.81 155.80 118.66 C 157.01 118.50 157.87 117.39 157.71 116.19 L 157.57 115.15 C 157.42 113.94 156.31 113.09 155.10 113.25 C 153.89 113.40 153.04 114.51 153.20 115.72 Z M 153.36 116.70 L 153.46 117.64 C 153.58 118.83 154.65 119.70 155.85 119.57 C 157.04 119.45 157.91 118.38 157.78 117.18 L 157.68 116.24 C 157.55 115.05 156.49 114.18 155.29 114.31 C 154.10 114.43 153.23 115.50 153.36 116.70 Z M 153.49 117.60 L 153.57 118.57 C 153.67 119.74 154.71 120.62 155.89 120.52 C 157.06 120.41 157.94 119.38 157.83 118.20 L 157.75 117.23 C 157.65 116.05 156.61 115.18 155.44 115.28 C 154.26 115.38 153.39 116.42 153.49 117.60 Z M 153.60 118.56 L 153.69 119.57 C 153.78 120.73 154.80 121.60 155.96 121.50 C 157.12 121.40 157.98 120.39 157.89 119.23 L 157.80 118.21 C 157.71 117.05 156.69 116.19 155.53 116.29 C 154.37 116.38 153.51 117.40 153.60 118.56 Z M 153.72 119.58 L 153.80 120.55 C 153.90 121.69 154.91 122.54 156.05 122.44 C 157.19 122.34 158.04 121.33 157.94 120.19 L 157.85 119.22 C 157.75 118.08 156.75 117.24 155.61 117.33 C 154.47 117.43 153.62 118.44 153.72 119.58 Z M 153.84 120.55 L 153.92 121.58 C 154.02 122.71 155.01 123.54 156.14 123.44 C 157.26 123.34 158.09 122.35 158.00 121.23 L 157.91 120.20 C 157.81 119.07 156.82 118.24 155.69 118.34 C 154.57 118.43 153.74 119.42 153.84 120.55 Z M 153.96 121.57 L 154.04 122.56 C 154.13 123.66 155.10 124.49 156.21 124.40 C 157.31 124.31 158.14 123.34 158.05 122.23 L 157.96 121.24 C 157.87 120.13 156.90 119.31 155.80 119.40 C 154.69 119.49 153.87 120.46 153.96 121.57 Z M 154.07 122.54 L 154.14 123.55 C 154.23 124.64 155.18 125.45 156.27 125.37 C 157.35 125.29 158.17 124.34 158.09 123.25 L 158.01 122.24 C 157.93 121.15 156.98 120.34 155.89 120.42 C 154.80 120.50 153.99 121.45 154.07 122.54 Z M 154.17 123.53 L 154.24 124.54 C 154.31 125.61 155.24 126.42 156.31 126.35 C 157.39 126.28 158.20 125.35 158.13 124.28 L 158.06 123.27 C 157.99 122.20 157.06 121.38 155.99 121.46 C 154.91 121.53 154.10 122.46 154.17 123.53 Z M 154.27 124.52 L 154.32 125.52 C 154.39 126.58 155.30 127.39 156.36 127.32 C 157.42 127.26 158.22 126.35 158.16 125.29 L 158.10 124.29 C 158.04 123.24 157.13 122.43 156.07 122.49 C 155.01 122.55 154.20 123.46 154.27 124.52 Z M 154.35 125.51 L 154.40 126.50 C 154.46 127.55 155.35 128.35 156.40 128.29 C 157.45 128.23 158.25 127.34 158.19 126.29 L 158.14 125.30 C 158.08 124.25 157.19 123.45 156.14 123.51 C 155.09 123.57 154.29 124.46 154.35 125.51 Z M 154.42 126.50 L 154.48 127.50 C 154.54 128.54 155.42 129.33 156.46 129.27 C 157.49 129.22 158.28 128.33 158.23 127.30 L 158.17 126.29 C 158.11 125.26 157.23 124.47 156.19 124.52 C 155.16 124.58 154.37 125.46 154.42 126.50 Z M 154.50 127.51 L 154.56 128.50 C 154.62 129.52 155.49 130.30 156.52 130.24 C 157.54 130.18 158.32 129.31 158.26 128.28 L 158.20 127.29 C 158.15 126.27 157.27 125.49 156.25 125.55 C 155.22 125.61 154.44 126.49 154.50 127.51 Z M 154.58 128.51 L 154.64 129.52 C 154.70 130.53 155.57 131.30 156.59 131.24 C 157.60 131.17 158.37 130.30 158.31 129.29 L 158.24 128.28 C 158.18 127.26 157.31 126.50 156.30 126.56 C 155.28 126.62 154.51 127.49 154.58 128.51 Z M 154.66 129.52 L 154.72 130.51 C 154.78 131.51 155.65 132.27 156.65 132.21 C 157.66 132.15 158.42 131.28 158.35 130.27 L 158.29 129.29 C 158.23 128.28 157.36 127.52 156.36 127.59 C 155.35 127.65 154.59 128.52 154.66 129.52 Z M 154.73 130.51 L 154.79 131.52 C 154.86 132.52 155.72 133.28 156.72 133.21 C 157.71 133.15 158.47 132.29 158.41 131.29 L 158.34 130.28 C 158.28 129.28 157.42 128.52 156.42 128.59 C 155.42 128.65 154.67 129.51 154.73 130.51 Z M 154.80 131.52 L 154.86 132.51 C 154.93 133.50 155.78 134.26 156.78 134.20 C 157.77 134.13 158.53 133.27 158.47 132.28 L 158.40 131.29 C 158.34 130.30 157.48 129.54 156.49 129.60 C 155.49 129.67 154.74 130.53 154.80 131.52 Z M 154.87 132.51 L 154.93 133.52 C 155.00 134.51 155.86 135.26 156.85 135.20 C 157.85 135.13 158.60 134.27 158.53 133.28 L 158.46 132.27 C 158.40 131.28 157.54 130.53 156.54 130.60 C 155.55 130.66 154.80 131.52 154.87 132.51 Z M 154.94 133.52 L 155.00 134.51 C 155.07 135.50 155.93 136.25 156.93 136.18 C 157.92 136.11 158.67 135.25 158.60 134.25 L 158.53 133.27 C 158.46 132.28 157.60 131.53 156.61 131.60 C 155.61 131.67 154.87 132.53 154.94 133.52 Z M 155.01 134.51 L 155.01 134.59 C 155.08 135.58 155.94 136.32 156.93 136.25 C 157.92 136.18 158.67 135.32 158.60 134.33 L 158.60 134.25 C 158.53 133.26 157.66 132.51 156.67 132.58 C 155.68 132.65 154.93 133.52 155.01 134.51 Z"
      fill="black"
      fill-rule="nonzero" /><path d="M 164.57 111.96 L 164.17 112.85 C 163.68 113.92 164.16 115.18 165.23 115.67 C 166.30 116.15 167.57 115.68 168.05 114.61 L 168.45 113.72 C 168.94 112.64 168.46 111.38 167.39 110.89 C 166.32 110.41 165.05 110.89 164.57 111.96 Z M 164.02 113.08 L 163.72 114.05 C 163.37 115.21 164.01 116.43 165.16 116.78 C 166.31 117.14 167.53 116.50 167.89 115.35 L 168.19 114.37 C 168.55 113.22 167.91 112.00 166.75 111.64 C 165.60 111.28 164.38 111.93 164.02 113.08 Z M 163.62 114.39 L 163.48 115.40 C 163.31 116.60 164.15 117.72 165.35 117.89 C 166.56 118.06 167.68 117.22 167.85 116.02 L 167.99 115.01 C 168.16 113.80 167.32 112.69 166.12 112.52 C 164.91 112.35 163.80 113.19 163.62 114.39 Z M 163.47 115.56 L 163.40 116.55 C 163.32 117.76 164.24 118.81 165.46 118.89 C 166.67 118.97 167.72 118.05 167.80 116.84 L 167.86 115.85 C 167.94 114.64 167.02 113.59 165.81 113.51 C 164.59 113.43 163.55 114.35 163.47 115.56 Z M 163.41 116.59 L 163.36 117.61 C 163.30 118.82 164.23 119.85 165.44 119.91 C 166.65 119.97 167.68 119.04 167.74 117.83 L 167.79 116.80 C 167.85 115.59 166.91 114.57 165.71 114.51 C 164.50 114.45 163.47 115.38 163.41 116.59 Z M 163.38 117.63 L 163.34 118.58 C 163.29 119.78 164.22 120.79 165.42 120.84 C 166.62 120.89 167.63 119.96 167.68 118.76 L 167.72 117.81 C 167.77 116.61 166.84 115.60 165.64 115.55 C 164.44 115.50 163.43 116.44 163.38 117.63 Z M 163.36 118.57 L 163.32 119.57 C 163.26 120.75 164.18 121.76 165.36 121.81 C 166.55 121.87 167.55 120.95 167.61 119.77 L 167.66 118.77 C 167.71 117.58 166.79 116.58 165.61 116.52 C 164.42 116.47 163.42 117.39 163.36 118.57 Z M 163.34 119.51 L 163.27 120.50 C 163.18 121.67 164.06 122.69 165.23 122.78 C 166.40 122.87 167.42 121.99 167.51 120.82 L 167.58 119.83 C 167.67 118.66 166.80 117.64 165.63 117.55 C 164.46 117.46 163.43 118.34 163.34 119.51 Z M 163.30 120.44 L 163.19 121.45 C 163.07 122.60 163.91 123.64 165.06 123.76 C 166.22 123.88 167.25 123.04 167.38 121.89 L 167.48 120.88 C 167.60 119.72 166.76 118.69 165.61 118.57 C 164.45 118.44 163.42 119.28 163.30 120.44 Z M 163.22 121.42 L 163.10 122.40 C 162.96 123.54 163.77 124.58 164.91 124.72 C 166.05 124.86 167.09 124.05 167.23 122.90 L 167.35 121.92 C 167.49 120.78 166.67 119.74 165.53 119.60 C 164.39 119.46 163.36 120.28 163.22 121.42 Z M 163.12 122.39 L 162.99 123.39 C 162.85 124.52 163.65 125.55 164.77 125.69 C 165.90 125.84 166.93 125.04 167.07 123.92 L 167.20 122.92 C 167.35 121.79 166.55 120.76 165.42 120.61 C 164.30 120.47 163.27 121.26 163.12 122.39 Z M 163.02 123.40 L 162.89 124.38 C 162.75 125.49 163.54 126.51 164.65 126.65 C 165.76 126.80 166.78 126.01 166.93 124.90 L 167.05 123.91 C 167.19 122.80 166.41 121.78 165.29 121.64 C 164.18 121.49 163.16 122.28 163.02 123.40 Z M 162.92 124.37 L 162.78 125.37 C 162.64 126.47 163.41 127.48 164.51 127.63 C 165.61 127.77 166.62 127.00 166.77 125.90 L 166.90 124.90 C 167.05 123.80 166.27 122.79 165.17 122.65 C 164.07 122.50 163.06 123.27 162.92 124.37 Z M 162.81 125.34 L 162.66 126.34 C 162.50 127.43 163.25 128.44 164.33 128.60 C 165.42 128.76 166.43 128.01 166.59 126.93 L 166.74 125.93 C 166.90 124.84 166.15 123.83 165.07 123.67 C 163.98 123.51 162.97 124.26 162.81 125.34 Z M 162.69 126.32 L 162.53 127.31 C 162.36 128.38 163.08 129.39 164.15 129.56 C 165.22 129.74 166.22 129.01 166.40 127.94 L 166.56 126.95 C 166.73 125.88 166.01 124.88 164.94 124.70 C 163.87 124.53 162.87 125.25 162.69 126.32 Z M 162.56 127.31 L 162.39 128.30 C 162.22 129.36 162.93 130.35 163.98 130.53 C 165.04 130.70 166.03 129.99 166.21 128.94 L 166.37 127.95 C 166.54 126.89 165.83 125.90 164.78 125.72 C 163.73 125.55 162.73 126.26 162.56 127.31 Z M 162.42 128.31 L 162.25 129.31 C 162.08 130.35 162.78 131.33 163.82 131.50 C 164.86 131.68 165.85 130.97 166.02 129.93 L 166.18 128.93 C 166.35 127.89 165.65 126.91 164.61 126.74 C 163.57 126.56 162.59 127.27 162.42 128.31 Z M 162.27 129.29 L 162.10 130.25 C 161.92 131.28 162.60 132.26 163.63 132.44 C 164.66 132.63 165.64 131.94 165.82 130.91 L 166.00 129.95 C 166.18 128.92 165.49 127.94 164.47 127.76 C 163.44 127.58 162.46 128.26 162.27 129.29 Z M 162.13 130.20 L 161.92 131.19 C 161.71 132.20 162.37 133.19 163.38 133.40 C 164.39 133.61 165.38 132.96 165.59 131.95 L 165.80 130.96 C 166.01 129.95 165.36 128.96 164.34 128.75 C 163.33 128.54 162.34 129.19 162.13 130.20 Z M 161.95 131.13 L 161.72 132.09 C 161.47 133.09 162.08 134.10 163.08 134.34 C 164.08 134.58 165.08 133.97 165.33 132.98 L 165.56 132.01 C 165.81 131.01 165.20 130.01 164.20 129.76 C 163.20 129.52 162.20 130.13 161.95 131.13 Z M 161.75 132.03 L 161.47 133.00 C 161.19 133.98 161.76 135.00 162.74 135.28 C 163.72 135.56 164.74 134.99 165.02 134.01 L 165.30 133.04 C 165.57 132.06 165.01 131.04 164.03 130.76 C 163.05 130.48 162.03 131.05 161.75 132.03 Z M 161.51 132.95 L 161.20 133.90 C 160.89 134.86 161.42 135.89 162.38 136.20 C 163.34 136.51 164.37 135.98 164.68 135.02 L 164.99 134.07 C 165.30 133.10 164.77 132.07 163.81 131.76 C 162.85 131.46 161.81 131.98 161.51 132.95 Z M 161.24 133.83 L 160.89 134.76 C 160.55 135.70 161.03 136.75 161.97 137.09 C 162.91 137.44 163.96 136.96 164.30 136.01 L 164.64 135.09 C 164.99 134.14 164.51 133.10 163.57 132.76 C 162.62 132.41 161.58 132.89 161.24 133.83 Z M 160.94 134.66 L 160.58 135.50 C 160.18 136.41 160.59 137.48 161.51 137.88 C 162.42 138.28 163.48 137.86 163.88 136.95 L 164.25 136.11 C 164.65 135.20 164.24 134.13 163.32 133.73 C 162.41 133.33 161.34 133.75 160.94 134.66 Z M 160.66 135.34 L 160.14 136.27 C 159.64 137.13 159.95 138.23 160.81 138.72 C 161.68 139.21 162.78 138.91 163.27 138.05 L 163.80 137.11 C 164.29 136.25 163.99 135.15 163.12 134.66 C 162.25 134.17 161.15 134.47 160.66 135.34 Z M 160.21 136.15 L 159.70 136.92 C 159.14 137.74 159.36 138.86 160.19 139.41 C 161.02 139.97 162.13 139.74 162.69 138.92 L 163.20 138.16 C 163.75 137.33 163.53 136.21 162.70 135.66 C 161.88 135.11 160.76 135.33 160.21 136.15 Z M 159.73 136.87 L 159.12 137.72 C 158.55 138.53 158.74 139.65 159.55 140.23 C 160.36 140.80 161.48 140.61 162.06 139.81 L 162.66 138.96 C 163.23 138.15 163.05 137.03 162.24 136.45 C 161.43 135.87 160.30 136.06 159.73 136.87 Z M 159.13 137.70 L 158.72 138.28 C 158.13 139.09 158.31 140.21 159.12 140.79 C 159.92 141.38 161.05 141.20 161.63 140.39 L 162.05 139.82 C 162.63 139.01 162.45 137.89 161.65 137.31 C 160.84 136.72 159.72 136.90 159.13 137.70 Z"
      fill="black"
      fill-rule="nonzero" /><path d="M 146.69 141.52 L 145.63 141.83 C 144.59 142.14 143.99 143.24 144.29 144.28 C 144.60 145.33 145.70 145.93 146.74 145.62 L 147.80 145.31 C 148.85 145.01 149.45 143.91 149.14 142.86 C 148.83 141.81 147.74 141.21 146.69 141.52 Z M 146.31 145.92 L 146.82 145.90 C 148.04 145.83 148.96 144.79 148.89 143.57 C 148.82 142.36 147.79 141.43 146.57 141.50 L 146.06 141.53 C 144.85 141.60 143.92 142.64 143.99 143.85 C 144.06 145.07 145.10 145.99 146.31 145.92 Z M 147.12 145.92 L 148.38 145.68 C 149.61 145.45 150.41 144.26 150.18 143.03 C 149.95 141.81 148.76 141.00 147.53 141.23 L 146.27 141.47 C 145.04 141.71 144.24 142.89 144.47 144.12 C 144.71 145.35 145.89 146.16 147.12 145.92 Z M 148.50 145.68 L 149.50 145.43 C 150.73 145.13 151.48 143.89 151.18 142.66 C 150.87 141.44 149.64 140.69 148.41 140.99 L 147.41 141.24 C 146.18 141.54 145.44 142.78 145.74 144.01 C 146.04 145.23 147.28 145.98 148.50 145.68 Z M 149.57 145.42 L 150.52 145.16 C 151.74 144.82 152.46 143.56 152.12 142.34 C 151.78 141.12 150.52 140.40 149.30 140.74 L 148.35 141.00 C 147.13 141.34 146.41 142.60 146.75 143.82 C 147.09 145.04 148.35 145.75 149.57 145.42 Z M 150.55 145.15 L 151.53 144.87 C 152.75 144.52 153.45 143.25 153.10 142.03 C 152.75 140.82 151.48 140.11 150.26 140.46 L 149.28 140.75 C 148.06 141.09 147.36 142.36 147.71 143.58 C 148.06 144.80 149.33 145.50 150.55 145.15 Z M 151.55 144.86 L 152.47 144.59 C 153.68 144.23 154.37 142.95 154.01 141.74 C 153.65 140.53 152.37 139.84 151.16 140.20 L 150.24 140.47 C 149.03 140.83 148.34 142.11 148.70 143.32 C 149.06 144.53 150.34 145.22 151.55 144.86 Z M 152.49 144.57 L 153.43 144.28 C 154.63 143.91 155.30 142.63 154.93 141.43 C 154.55 140.23 153.28 139.55 152.08 139.93 L 151.14 140.22 C 149.94 140.59 149.27 141.87 149.64 143.07 C 150.01 144.27 151.29 144.94 152.49 144.57 Z M 153.45 144.25 L 154.41 143.94 C 155.60 143.56 156.25 142.28 155.87 141.09 C 155.48 139.90 154.20 139.25 153.02 139.64 L 152.05 139.95 C 150.87 140.34 150.21 141.61 150.60 142.80 C 150.99 143.99 152.26 144.64 153.45 144.25 Z M 154.44 143.91 L 155.38 143.59 C 156.56 143.19 157.18 141.92 156.78 140.75 C 156.38 139.57 155.11 138.94 153.94 139.34 L 152.99 139.67 C 151.82 140.07 151.19 141.34 151.59 142.51 C 151.99 143.69 153.26 144.31 154.44 143.91 Z M 155.39 143.57 L 156.34 143.24 C 157.49 142.83 158.10 141.56 157.70 140.41 C 157.29 139.25 156.03 138.64 154.87 139.04 L 153.93 139.37 C 152.77 139.78 152.16 141.04 152.56 142.20 C 152.97 143.36 154.23 143.97 155.39 143.57 Z M 156.33 143.21 L 157.27 142.88 C 158.41 142.48 159.01 141.22 158.61 140.08 C 158.20 138.93 156.95 138.33 155.80 138.74 L 154.87 139.06 C 153.72 139.47 153.12 140.72 153.53 141.87 C 153.93 143.02 155.19 143.62 156.33 143.21 Z M 157.27 142.86 L 158.22 142.51 C 159.35 142.10 159.94 140.86 159.53 139.73 C 159.12 138.60 157.88 138.01 156.75 138.42 L 155.80 138.76 C 154.67 139.17 154.08 140.42 154.49 141.55 C 154.90 142.68 156.14 143.26 157.27 142.86 Z M 158.24 142.48 L 159.17 142.13 C 160.28 141.71 160.85 140.47 160.43 139.36 C 160.01 138.25 158.77 137.69 157.66 138.11 L 156.73 138.46 C 155.62 138.87 155.06 140.11 155.48 141.22 C 155.89 142.33 157.13 142.89 158.24 142.48 Z M 159.19 142.09 L 160.13 141.72 C 161.22 141.29 161.75 140.06 161.33 138.97 C 160.90 137.89 159.67 137.35 158.58 137.78 L 157.64 138.15 C 156.56 138.57 156.02 139.80 156.45 140.89 C 156.87 141.98 158.10 142.51 159.19 142.09 Z M 160.14 141.68 L 161.07 141.30 C 162.14 140.86 162.65 139.65 162.21 138.58 C 161.78 137.52 160.56 137.00 159.50 137.44 L 158.57 137.82 C 157.50 138.25 156.99 139.47 157.42 140.54 C 157.86 141.60 159.08 142.11 160.14 141.68 Z M 161.06 141.27 L 161.98 140.89 C 163.03 140.46 163.53 139.26 163.10 138.21 C 162.68 137.17 161.48 136.66 160.43 137.09 L 159.51 137.47 C 158.46 137.90 157.96 139.10 158.38 140.15 C 158.81 141.20 160.01 141.70 161.06 141.27 Z M 161.95 140.87 L 162.88 140.50 C 163.91 140.08 164.42 138.91 164.00 137.87 C 163.59 136.84 162.42 136.34 161.38 136.75 L 160.46 137.12 C 159.42 137.53 158.92 138.71 159.33 139.74 C 159.75 140.78 160.92 141.28 161.95 140.87 Z M 162.86 140.47 L 163.79 140.10 C 164.81 139.70 165.31 138.55 164.91 137.53 C 164.51 136.51 163.35 136.01 162.34 136.41 L 161.40 136.78 C 160.38 137.18 159.88 138.33 160.29 139.35 C 160.69 140.37 161.84 140.87 162.86 140.47 Z M 163.78 140.06 L 164.67 139.71 C 165.67 139.32 166.16 138.18 165.77 137.18 C 165.37 136.18 164.24 135.70 163.24 136.09 L 162.35 136.44 C 161.35 136.84 160.86 137.97 161.25 138.97 C 161.65 139.97 162.78 140.46 163.78 140.06 Z M 164.66 139.68 L 165.62 139.30 C 166.60 138.91 167.08 137.80 166.69 136.82 C 166.30 135.84 165.19 135.36 164.21 135.75 L 163.25 136.13 C 162.27 136.51 161.79 137.63 162.18 138.61 C 162.57 139.59 163.68 140.07 164.66 139.68 Z M 165.60 139.27 L 166.56 138.89 C 167.53 138.51 168.01 137.42 167.62 136.45 C 167.24 135.49 166.15 135.01 165.18 135.39 L 164.22 135.77 C 163.25 136.15 162.78 137.24 163.16 138.21 C 163.54 139.18 164.63 139.65 165.60 139.27 Z M 166.53 138.89 L 167.48 138.53 C 168.44 138.17 168.93 137.10 168.57 136.13 C 168.21 135.17 167.14 134.68 166.17 135.04 L 165.22 135.40 C 164.26 135.76 163.77 136.83 164.13 137.80 C 164.49 138.76 165.56 139.25 166.53 138.89 Z M 167.39 138.54 L 168.36 138.23 C 169.33 137.91 169.86 136.88 169.55 135.91 C 169.24 134.94 168.20 134.41 167.23 134.72 L 166.26 135.03 C 165.29 135.35 164.76 136.38 165.07 137.35 C 165.38 138.32 166.42 138.85 167.39 138.54 Z M 168.22 138.24 L 169.18 138.01 C 170.15 137.78 170.75 136.79 170.52 135.81 C 170.28 134.84 169.30 134.24 168.32 134.47 L 167.36 134.70 C 166.39 134.94 165.79 135.93 166.02 136.90 C 166.26 137.88 167.25 138.48 168.22 138.24 Z M 169.11 138.01 L 169.45 137.94 C 170.43 137.74 171.06 136.78 170.86 135.81 C 170.65 134.83 169.70 134.20 168.72 134.40 L 168.38 134.47 C 167.40 134.68 166.77 135.63 166.98 136.61 C 167.18 137.59 168.14 138.21 169.11 138.01 Z"
      fill="black"
      fill-rule="nonzero" /><path d="M 147.73 155.29 L 148.16 156.20 C 148.61 157.13 149.72 157.53 150.66 157.09 C 151.59 156.64 151.99 155.52 151.54 154.59 L 151.11 153.69 C 150.67 152.75 149.55 152.36 148.62 152.80 C 147.69 153.24 147.29 154.36 147.73 155.29 Z M 147.99 156.09 L 148.33 157.01 C 148.72 158.04 149.86 158.57 150.89 158.18 C 151.92 157.80 152.45 156.65 152.06 155.62 L 151.72 154.70 C 151.34 153.67 150.19 153.15 149.16 153.53 C 148.13 153.91 147.60 155.06 147.99 156.09 Z M 148.20 156.76 L 148.39 157.66 C 148.64 158.76 149.74 159.46 150.84 159.21 C 151.95 158.97 152.65 157.87 152.40 156.77 L 152.20 155.87 C 151.96 154.77 150.86 154.07 149.75 154.32 C 148.65 154.56 147.95 155.66 148.20 156.76 Z M 148.35 157.48 L 148.50 158.56 C 148.65 159.68 149.69 160.48 150.81 160.33 C 151.94 160.17 152.73 159.14 152.58 158.01 L 152.44 156.94 C 152.29 155.81 151.25 155.02 150.12 155.17 C 149.00 155.32 148.20 156.36 148.35 157.48 Z M 148.48 158.50 L 148.59 159.48 C 148.71 160.61 149.73 161.44 150.87 161.31 C 152.00 161.19 152.82 160.17 152.70 159.04 L 152.60 158.06 C 152.47 156.93 151.46 156.11 150.32 156.23 C 149.18 156.35 148.36 157.37 148.48 158.50 Z M 148.58 159.46 L 148.68 160.49 C 148.79 161.63 149.81 162.46 150.95 162.35 C 152.09 162.24 152.92 161.22 152.81 160.08 L 152.71 159.06 C 152.60 157.92 151.58 157.08 150.44 157.19 C 149.30 157.31 148.47 158.32 148.58 159.46 Z M 148.67 160.47 L 148.76 161.47 C 148.86 162.61 149.87 163.46 151.02 163.35 C 152.16 163.25 153.01 162.24 152.90 161.10 L 152.82 160.10 C 152.71 158.96 151.71 158.11 150.56 158.21 C 149.42 158.31 148.57 159.32 148.67 160.47 Z M 148.76 161.44 L 148.84 162.49 C 148.92 163.63 149.93 164.49 151.07 164.40 C 152.22 164.32 153.08 163.31 152.99 162.17 L 152.91 161.12 C 152.82 159.98 151.82 159.12 150.67 159.21 C 149.53 159.29 148.67 160.30 148.76 161.44 Z M 148.83 162.45 L 148.89 163.42 C 148.96 164.57 149.94 165.44 151.09 165.38 C 152.24 165.31 153.12 164.32 153.05 163.17 L 153.00 162.20 C 152.93 161.05 151.94 160.18 150.79 160.25 C 149.64 160.31 148.76 161.30 148.83 162.45 Z M 148.88 163.38 L 148.92 164.34 C 148.97 165.49 149.94 166.39 151.09 166.34 C 152.25 166.30 153.14 165.32 153.10 164.17 L 153.06 163.21 C 153.01 162.06 152.04 161.16 150.89 161.21 C 149.73 161.25 148.84 162.23 148.88 163.38 Z M 148.92 164.31 L 148.95 165.30 C 148.98 166.46 149.94 167.37 151.09 167.34 C 152.24 167.31 153.15 166.35 153.12 165.20 L 153.10 164.20 C 153.07 163.05 152.11 162.14 150.96 162.17 C 149.80 162.20 148.89 163.16 148.92 164.31 Z M 148.94 165.28 L 148.96 166.31 C 148.98 167.46 149.93 168.38 151.08 168.36 C 152.24 168.35 153.16 167.40 153.14 166.24 L 153.13 165.22 C 153.11 164.06 152.16 163.14 151.00 163.16 C 149.85 163.18 148.93 164.13 148.94 165.28 Z M 148.96 166.29 L 148.97 167.29 C 148.98 168.45 149.92 169.38 151.08 169.37 C 152.23 169.36 153.16 168.41 153.15 167.26 L 153.14 166.26 C 153.13 165.10 152.19 164.17 151.04 164.18 C 149.88 164.19 148.95 165.13 148.96 166.29 Z M 148.97 167.28 L 148.97 168.28 C 148.97 169.43 149.91 170.37 151.07 170.37 C 152.22 170.36 153.16 169.42 153.15 168.27 L 153.15 167.27 C 153.15 166.11 152.21 165.18 151.05 165.18 C 149.90 165.18 148.96 166.12 148.97 167.28 Z M 148.97 168.27 L 148.97 169.28 C 148.97 170.43 149.91 171.37 151.06 171.37 C 152.22 171.37 153.15 170.43 153.15 169.28 L 153.15 168.27 C 153.15 167.12 152.22 166.18 151.06 166.18 C 149.91 166.18 148.97 167.12 148.97 168.27 Z M 148.97 169.28 L 148.97 170.27 C 148.97 171.43 149.91 172.36 151.06 172.36 C 152.22 172.36 153.15 171.43 153.15 170.27 L 153.15 169.28 C 153.15 168.12 152.22 167.18 151.06 167.18 C 149.91 167.18 148.97 168.12 148.97 169.28 Z M 148.97 170.27 L 148.97 171.27 C 148.97 172.43 149.91 173.37 151.06 173.37 C 152.22 173.37 153.15 172.43 153.15 171.27 L 153.15 170.27 C 153.15 169.12 152.22 168.18 151.06 168.18 C 149.91 168.18 148.97 169.12 148.97 170.27 Z M 148.97 171.27 L 148.97 172.28 C 148.97 173.43 149.91 174.37 151.06 174.37 C 152.22 174.37 153.15 173.43 153.15 172.28 L 153.15 171.27 C 153.15 170.12 152.22 169.18 151.06 169.18 C 149.91 169.18 148.97 170.12 148.97 171.27 Z M 148.97 172.28 L 148.97 173.28 C 148.97 174.43 149.91 175.37 151.06 175.37 C 152.22 175.37 153.15 174.43 153.15 173.28 L 153.15 172.28 C 153.15 171.13 152.22 170.19 151.06 170.19 C 149.91 170.19 148.97 171.13 148.97 172.28 Z M 148.98 173.28 L 148.98 174.28 C 148.98 175.43 149.91 176.37 151.06 176.37 C 152.21 176.37 153.15 175.43 153.15 174.28 L 153.15 173.28 C 153.15 172.13 152.21 171.19 151.06 171.19 C 149.91 171.19 148.98 172.13 148.98 173.28 Z M 148.98 174.28 L 148.98 175.29 C 148.98 176.44 149.91 177.37 151.06 177.37 C 152.21 177.37 153.15 176.44 153.15 175.29 L 153.15 174.28 C 153.15 173.13 152.21 172.20 151.06 172.20 C 149.91 172.20 148.98 173.13 148.98 174.28 Z M 148.98 175.29 L 148.98 176.29 C 148.98 177.44 149.91 178.37 151.06 178.37 C 152.21 178.37 153.14 177.44 153.14 176.29 L 153.14 175.29 C 153.14 174.14 152.21 173.21 151.06 173.21 C 149.91 173.21 148.98 174.14 148.98 175.29 Z M 148.98 176.29 L 148.98 177.28 C 148.98 178.43 149.91 179.36 151.06 179.36 C 152.21 179.36 153.14 178.43 153.14 177.28 L 153.14 176.29 C 153.14 175.14 152.21 174.21 151.06 174.21 C 149.91 174.21 148.98 175.14 148.98 176.29 Z M 148.99 177.28 L 148.99 178.28 C 148.99 179.43 149.92 180.36 151.06 180.36 C 152.21 180.36 153.14 179.43 153.14 178.28 L 153.14 177.28 C 153.14 176.13 152.21 175.20 151.06 175.20 C 149.92 175.20 148.99 176.13 148.99 177.28 Z M 148.99 178.28 L 148.99 179.28 C 148.99 180.42 149.92 181.35 151.06 181.35 C 152.21 181.35 153.14 180.42 153.14 179.28 L 153.14 178.28 C 153.14 177.14 152.21 176.21 151.06 176.21 C 149.92 176.21 148.99 177.14 148.99 178.28 Z M 148.99 179.28 L 148.99 180.29 C 148.99 181.43 149.92 182.36 151.06 182.36 C 152.21 182.36 153.13 181.43 153.13 180.29 L 153.13 179.28 C 153.13 178.13 152.21 177.21 151.06 177.21 C 149.92 177.21 148.99 178.13 148.99 179.28 Z M 149.00 180.29 L 149.00 181.32 C 149.00 182.46 149.92 183.38 151.06 183.38 C 152.20 183.38 153.13 182.46 153.13 181.32 L 153.13 180.29 C 153.13 179.15 152.20 178.23 151.06 178.23 C 149.92 178.23 149.00 179.15 149.00 180.29 Z M 149.01 181.32 L 149.01 182.29 C 149.01 183.42 149.93 184.34 151.06 184.34 C 152.20 184.34 153.12 183.42 153.12 182.29 L 153.12 181.32 C 153.12 180.18 152.20 179.26 151.06 179.26 C 149.93 179.26 149.01 180.18 149.01 181.32 Z M 149.02 182.28 L 149.02 183.27 C 149.01 184.40 149.93 185.32 151.06 185.32 C 152.19 185.33 153.10 184.41 153.11 183.28 L 153.11 182.29 C 153.11 181.16 152.20 180.24 151.07 180.24 C 149.94 180.24 149.02 181.15 149.02 182.28 Z M 149.03 183.25 L 149.01 184.24 C 149.00 185.36 149.90 186.28 151.02 186.30 C 152.14 186.31 153.06 185.42 153.08 184.29 L 153.09 183.31 C 153.11 182.18 152.21 181.26 151.09 181.25 C 149.97 181.23 149.04 182.13 149.03 183.25 Z M 149.03 184.20 L 148.99 185.20 C 148.96 186.31 149.83 187.25 150.95 187.28 C 152.07 187.32 153.00 186.44 153.04 185.33 L 153.07 184.33 C 153.10 183.21 152.23 182.28 151.11 182.24 C 150.00 182.21 149.06 183.08 149.03 184.20 Z M 149.01 185.16 L 148.96 186.19 C 148.90 187.30 149.76 188.24 150.87 188.29 C 151.98 188.35 152.92 187.49 152.97 186.38 L 153.02 185.36 C 153.08 184.25 152.22 183.31 151.11 183.25 C 150.00 183.20 149.06 184.05 149.01 185.16 Z M 148.97 186.15 L 148.89 187.32 C 148.81 188.42 149.64 189.38 150.74 189.45 C 151.84 189.53 152.80 188.70 152.88 187.60 L 152.96 186.42 C 153.04 185.32 152.21 184.37 151.10 184.29 C 150.00 184.21 149.05 185.04 148.97 186.15 Z M 148.93 187.18 L 148.81 188.01 C 148.66 189.09 149.41 190.09 150.49 190.24 C 151.57 190.39 152.57 189.64 152.72 188.56 L 152.84 187.73 C 152.99 186.65 152.24 185.65 151.16 185.50 C 150.08 185.35 149.08 186.10 148.93 187.18 Z M 152.69 188.10 L 152.62 187.41 C 152.52 186.35 151.57 185.57 150.51 185.68 C 149.45 185.78 148.67 186.73 148.77 187.79 L 148.84 188.48 C 148.95 189.54 149.89 190.31 150.96 190.21 C 152.02 190.10 152.80 189.16 152.69 188.10 Z M 152.58 187.56 L 152.55 186.34 C 152.53 185.30 151.67 184.47 150.63 184.49 C 149.60 184.51 148.77 185.37 148.79 186.41 L 148.82 187.64 C 148.84 188.68 149.70 189.50 150.74 189.48 C 151.78 189.46 152.60 188.60 152.58 187.56 Z M 152.52 186.36 L 152.51 185.37 C 152.50 184.35 151.67 183.53 150.66 183.53 C 149.64 183.54 148.82 184.37 148.82 185.39 L 148.83 186.39 C 148.84 187.40 149.67 188.22 150.68 188.22 C 151.70 188.21 152.52 187.38 152.52 186.36 Z M 152.48 185.38 L 152.48 184.42 C 152.48 183.42 151.67 182.60 150.66 182.61 C 149.66 182.61 148.85 183.42 148.85 184.42 L 148.85 185.38 C 148.85 186.38 149.67 187.19 150.67 187.19 C 151.67 187.19 152.48 186.38 152.48 185.38 Z"
      fill="black"
      fill-rule="nonzero" /><path d="M 153.56 159.43 L 153.82 158.40 C 154.07 157.42 153.48 156.44 152.51 156.19 C 151.53 155.94 150.55 156.53 150.30 157.51 L 150.04 158.54 C 149.79 159.51 150.38 160.50 151.36 160.74 C 152.33 160.99 153.32 160.40 153.56 159.43 Z M 153.85 158.41 L 154.10 157.46 C 154.35 156.47 153.76 155.46 152.77 155.21 C 151.79 154.95 150.78 155.54 150.52 156.53 L 150.27 157.49 C 150.02 158.47 150.61 159.48 151.60 159.74 C 152.58 159.99 153.59 159.40 153.85 158.41 Z M 154.12 157.51 L 154.40 156.53 C 154.69 155.53 154.11 154.49 153.10 154.20 C 152.10 153.92 151.06 154.50 150.78 155.50 L 150.50 156.48 C 150.21 157.48 150.79 158.52 151.79 158.81 C 152.79 159.09 153.84 158.51 154.12 157.51 Z M 154.37 156.77 L 154.74 155.89 C 155.15 154.91 154.69 153.77 153.71 153.36 C 152.72 152.95 151.59 153.41 151.17 154.39 L 150.81 155.27 C 150.39 156.25 150.85 157.38 151.84 157.80 C 152.82 158.21 153.96 157.75 154.37 156.77 Z M 154.52 156.38 L 155.12 155.62 C 155.81 154.76 155.66 153.50 154.80 152.82 C 153.94 152.13 152.68 152.28 152.00 153.14 L 151.39 153.90 C 150.71 154.77 150.85 156.02 151.72 156.71 C 152.58 157.39 153.83 157.25 154.52 156.38 Z M 154.85 155.99 L 155.63 155.36 C 156.51 154.65 156.65 153.35 155.94 152.47 C 155.23 151.58 153.93 151.44 153.04 152.15 L 152.27 152.78 C 151.38 153.49 151.24 154.78 151.96 155.67 C 152.67 156.56 153.96 156.70 154.85 155.99 Z M 155.37 155.59 L 156.23 155.10 C 157.24 154.53 157.59 153.25 157.02 152.24 C 156.45 151.23 155.17 150.87 154.16 151.44 L 153.30 151.93 C 152.29 152.50 151.93 153.78 152.51 154.79 C 153.08 155.80 154.36 156.16 155.37 155.59 Z M 156.01 155.23 L 156.89 154.86 C 157.97 154.41 158.48 153.17 158.03 152.09 C 157.58 151.01 156.34 150.50 155.26 150.95 L 154.38 151.32 C 153.30 151.77 152.79 153.01 153.24 154.09 C 153.69 155.17 154.93 155.68 156.01 155.23 Z M 156.76 154.92 L 157.72 154.59 C 158.84 154.21 159.43 153.00 159.05 151.89 C 158.68 150.78 157.47 150.19 156.36 150.56 L 155.39 150.89 C 154.28 151.27 153.69 152.47 154.06 153.59 C 154.44 154.70 155.65 155.29 156.76 154.92 Z M 157.64 154.62 L 158.61 154.34 C 159.73 154.01 160.38 152.82 160.05 151.70 C 159.72 150.57 158.54 149.92 157.41 150.25 L 156.45 150.53 C 155.32 150.86 154.67 152.04 155.00 153.17 C 155.33 154.30 156.51 154.95 157.64 154.62 Z M 158.53 154.36 L 159.50 154.11 C 160.64 153.82 161.33 152.67 161.04 151.53 C 160.75 150.39 159.59 149.70 158.45 149.99 L 157.49 150.23 C 156.35 150.52 155.66 151.68 155.95 152.82 C 156.24 153.95 157.39 154.64 158.53 154.36 Z M 159.41 154.13 L 160.43 153.92 C 161.58 153.68 162.31 152.55 162.07 151.40 C 161.84 150.25 160.71 149.52 159.56 149.76 L 158.54 149.97 C 157.39 150.21 156.65 151.33 156.89 152.48 C 157.13 153.63 158.26 154.37 159.41 154.13 Z M 160.33 153.93 L 161.30 153.78 C 162.46 153.59 163.25 152.51 163.07 151.35 C 162.88 150.19 161.80 149.40 160.64 149.59 L 159.66 149.74 C 158.50 149.93 157.71 151.01 157.90 152.17 C 158.08 153.33 159.17 154.12 160.33 153.93 Z M 161.21 153.78 L 162.21 153.67 C 163.37 153.53 164.20 152.48 164.07 151.32 C 163.93 150.16 162.88 149.33 161.73 149.47 L 160.73 149.58 C 159.57 149.72 158.74 150.76 158.87 151.92 C 159.00 153.08 160.05 153.91 161.21 153.78 Z M 162.13 153.66 L 163.16 153.59 C 164.31 153.50 165.18 152.48 165.09 151.33 C 165.00 150.17 163.99 149.30 162.83 149.39 L 161.81 149.47 C 160.65 149.56 159.78 150.57 159.87 151.73 C 159.96 152.89 160.97 153.75 162.13 153.66 Z M 163.09 153.58 L 164.15 153.53 C 165.30 153.47 166.19 152.50 166.14 151.34 C 166.08 150.19 165.11 149.30 163.95 149.35 L 162.90 149.40 C 161.74 149.45 160.85 150.43 160.91 151.58 C 160.96 152.74 161.94 153.63 163.09 153.58 Z M 164.10 153.51 L 165.07 153.49 C 166.21 153.46 167.12 152.51 167.09 151.36 C 167.06 150.22 166.11 149.31 164.96 149.34 L 164.00 149.37 C 162.85 149.40 161.95 150.35 161.98 151.49 C 162.01 152.63 162.96 153.54 164.10 153.51 Z M 165.04 153.47 L 166.04 153.46 C 167.18 153.44 168.08 152.52 168.07 151.38 C 168.06 150.25 167.13 149.34 166.00 149.35 L 164.99 149.36 C 163.86 149.38 162.95 150.30 162.96 151.44 C 162.98 152.57 163.90 153.48 165.04 153.47 Z M 165.98 153.43 L 166.93 153.45 C 168.05 153.48 168.98 152.59 169.00 151.47 C 169.02 150.35 168.14 149.42 167.02 149.40 L 166.07 149.38 C 164.95 149.35 164.02 150.24 163.99 151.36 C 163.97 152.48 164.86 153.41 165.98 153.43 Z M 166.82 153.43 L 167.78 153.50 C 168.89 153.59 169.86 152.76 169.94 151.66 C 170.03 150.55 169.20 149.58 168.09 149.50 L 167.13 149.42 C 166.02 149.34 165.06 150.16 164.97 151.27 C 164.88 152.38 165.71 153.34 166.82 153.43 Z M 167.57 153.47 L 168.58 153.65 C 169.66 153.85 170.71 153.14 170.91 152.05 C 171.11 150.97 170.39 149.92 169.31 149.72 L 168.30 149.53 C 167.22 149.33 166.17 150.05 165.97 151.13 C 165.77 152.22 166.49 153.26 167.57 153.47 Z M 168.23 153.55 L 169.17 153.91 C 170.20 154.30 171.35 153.78 171.74 152.75 C 172.13 151.72 171.62 150.57 170.59 150.18 L 169.65 149.82 C 168.62 149.43 167.47 149.95 167.08 150.98 C 166.69 152.01 167.21 153.16 168.23 153.55 Z M 168.83 153.73 L 169.68 154.26 C 170.61 154.84 171.83 154.55 172.41 153.62 C 172.99 152.69 172.71 151.47 171.78 150.89 L 170.93 150.36 C 170.00 149.78 168.78 150.06 168.20 150.99 C 167.62 151.92 167.90 153.15 168.83 153.73 Z M 169.39 154.05 L 170.13 154.71 C 170.95 155.45 172.20 155.38 172.94 154.57 C 173.68 153.75 173.61 152.50 172.80 151.76 L 172.06 151.10 C 171.24 150.36 169.99 150.42 169.25 151.24 C 168.52 152.05 168.58 153.31 169.39 154.05 Z M 169.88 154.45 L 170.48 155.25 C 171.16 156.13 172.41 156.29 173.29 155.62 C 174.17 154.95 174.33 153.69 173.66 152.81 L 173.05 152.02 C 172.38 151.14 171.12 150.98 170.25 151.65 C 169.37 152.32 169.20 153.58 169.88 154.45 Z M 170.26 154.93 L 170.69 155.79 C 171.19 156.79 172.40 157.20 173.40 156.70 C 174.40 156.21 174.80 155.00 174.31 154.00 L 173.88 153.14 C 173.39 152.14 172.17 151.73 171.18 152.22 C 170.18 152.72 169.77 153.93 170.26 154.93 Z M 170.55 155.48 L 170.83 156.44 C 171.16 157.52 172.29 158.13 173.37 157.81 C 174.45 157.49 175.07 156.35 174.74 155.27 L 174.46 154.31 C 174.13 153.23 173.00 152.62 171.92 152.94 C 170.84 153.26 170.22 154.40 170.55 155.48 Z M 170.75 156.19 L 170.93 157.22 C 171.11 158.35 172.18 159.11 173.30 158.92 C 174.42 158.73 175.18 157.67 174.99 156.55 L 174.82 155.52 C 174.64 154.39 173.57 153.63 172.45 153.82 C 171.33 154.01 170.57 155.07 170.75 156.19 Z M 170.89 157.07 L 170.98 158.10 C 171.08 159.24 172.09 160.09 173.23 159.98 C 174.38 159.88 175.22 158.87 175.12 157.73 L 175.03 156.70 C 174.93 155.56 173.92 154.71 172.78 154.82 C 171.63 154.92 170.79 155.93 170.89 157.07 Z M 170.96 158.01 L 171.01 158.97 C 171.06 160.12 172.04 161.02 173.19 160.96 C 174.35 160.91 175.24 159.93 175.18 158.78 L 175.14 157.82 C 175.09 156.66 174.11 155.77 172.95 155.83 C 171.80 155.88 170.91 156.86 170.96 158.01 Z M 171.00 158.92 L 171.02 159.96 C 171.04 161.12 172.00 162.04 173.16 162.02 C 174.32 161.99 175.24 161.03 175.21 159.88 L 175.19 158.83 C 175.17 157.67 174.21 156.75 173.05 156.78 C 171.90 156.80 170.98 157.76 171.00 158.92 Z M 171.02 159.92 L 171.02 160.87 C 171.02 162.03 171.96 162.96 173.12 162.96 C 174.28 162.96 175.22 162.02 175.22 160.86 L 175.22 159.91 C 175.21 158.75 174.27 157.82 173.11 157.82 C 171.95 157.82 171.01 158.76 171.02 159.92 Z M 171.02 160.86 L 171.02 161.86 C 171.02 163.02 171.96 163.96 173.12 163.96 C 174.28 163.96 175.22 163.02 175.22 161.86 L 175.22 160.86 C 175.22 159.70 174.28 158.76 173.12 158.76 C 171.96 158.76 171.02 159.70 171.02 160.86 Z M 171.01 161.86 L 171.01 162.87 C 171.01 164.03 171.96 164.97 173.12 164.97 C 174.28 164.97 175.23 164.03 175.23 162.87 L 175.23 161.86 C 175.23 160.69 174.28 159.75 173.12 159.75 C 171.96 159.75 171.01 160.69 171.01 161.86 Z M 171.01 162.86 L 171.01 163.85 C 171.00 165.01 171.94 165.96 173.11 165.97 C 174.27 165.97 175.22 165.03 175.22 163.87 L 175.23 162.87 C 175.23 161.71 174.29 160.76 173.13 160.76 C 171.96 160.75 171.01 161.69 171.01 162.86 Z M 171.01 163.82 L 170.99 164.81 C 170.97 165.97 171.90 166.94 173.06 166.96 C 174.23 166.98 175.19 166.05 175.21 164.88 L 175.22 163.89 C 175.24 162.73 174.32 161.77 173.15 161.75 C 171.99 161.73 171.03 162.66 171.01 163.82 Z M 170.99 164.75 L 170.95 165.74 C 170.89 166.90 171.79 167.89 172.96 167.94 C 174.12 168.00 175.10 167.10 175.16 165.93 L 175.20 164.94 C 175.25 163.78 174.36 162.80 173.19 162.74 C 172.03 162.69 171.05 163.59 170.99 164.75 Z M 170.96 165.64 L 170.87 166.65 C 170.76 167.81 171.61 168.83 172.76 168.94 C 173.92 169.05 174.94 168.20 175.05 167.04 L 175.14 166.03 C 175.25 164.88 174.40 163.86 173.25 163.75 C 172.09 163.64 171.07 164.49 170.96 165.64 Z M 170.88 166.56 L 170.75 167.53 C 170.59 168.68 171.39 169.74 172.53 169.89 C 173.68 170.05 174.74 169.25 174.90 168.11 L 175.03 167.14 C 175.19 165.99 174.39 164.93 173.25 164.77 C 172.10 164.61 171.04 165.41 170.88 166.56 Z M 170.76 167.50 L 170.60 168.51 C 170.42 169.65 171.20 170.72 172.34 170.90 C 173.48 171.08 174.54 170.30 174.72 169.16 L 174.88 168.15 C 175.06 167.01 174.29 165.94 173.15 165.76 C 172.01 165.58 170.94 166.36 170.76 167.50 Z M 170.61 168.52 L 170.46 169.49 C 170.28 170.62 171.06 171.69 172.19 171.86 C 173.32 172.04 174.39 171.27 174.56 170.13 L 174.72 169.16 C 174.89 168.02 174.12 166.96 172.98 166.78 C 171.85 166.61 170.79 167.38 170.61 168.52 Z M 170.47 169.50 L 170.32 170.49 C 170.15 171.62 170.92 172.68 172.05 172.85 C 173.18 173.02 174.23 172.24 174.40 171.11 L 174.55 170.12 C 174.72 168.99 173.95 167.94 172.82 167.77 C 171.69 167.60 170.64 168.37 170.47 169.50 Z M 170.33 170.50 L 170.18 171.49 C 170.01 172.62 170.79 173.66 171.91 173.83 C 173.03 174.00 174.07 173.22 174.24 172.10 L 174.39 171.11 C 174.56 169.99 173.78 168.94 172.66 168.77 C 171.54 168.61 170.50 169.38 170.33 170.50 Z M 170.19 171.50 L 170.05 172.47 C 169.89 173.58 170.66 174.62 171.77 174.78 C 172.89 174.95 173.92 174.18 174.09 173.06 L 174.23 172.10 C 174.39 170.98 173.62 169.94 172.51 169.78 C 171.40 169.61 170.36 170.38 170.19 171.50 Z M 170.06 172.47 L 169.92 173.47 C 169.75 174.58 170.52 175.61 171.63 175.77 C 172.73 175.93 173.76 175.17 173.93 174.06 L 174.07 173.06 C 174.24 171.95 173.47 170.92 172.36 170.76 C 171.26 170.60 170.23 171.36 170.06 172.47 Z M 169.93 173.47 L 169.78 174.47 C 169.62 175.58 170.38 176.60 171.48 176.76 C 172.58 176.93 173.61 176.16 173.77 175.06 L 173.92 174.06 C 174.08 172.96 173.32 171.93 172.22 171.77 C 171.11 171.61 170.09 172.37 169.93 173.47 Z M 169.78 174.48 L 169.64 175.47 C 169.48 176.57 170.23 177.59 171.33 177.75 C 172.43 177.92 173.45 177.16 173.62 176.06 L 173.76 175.06 C 173.92 173.96 173.17 172.94 172.07 172.78 C 170.97 172.62 169.95 173.38 169.78 174.48 Z M 169.64 175.47 L 169.49 176.47 C 169.33 177.57 170.09 178.59 171.19 178.75 C 172.28 178.91 173.30 178.15 173.47 177.05 L 173.61 176.06 C 173.78 174.96 173.02 173.94 171.92 173.78 C 170.82 173.62 169.80 174.37 169.64 175.47 Z M 169.50 176.47 L 169.35 177.47 C 169.19 178.57 169.94 179.58 171.04 179.75 C 172.14 179.91 173.16 179.15 173.32 178.05 L 173.46 177.05 C 173.63 175.96 172.87 174.94 171.77 174.78 C 170.68 174.62 169.66 175.37 169.50 176.47 Z M 169.35 177.47 L 169.20 178.47 C 169.04 179.56 169.80 180.58 170.90 180.74 C 171.99 180.90 173.01 180.14 173.17 179.05 L 173.32 178.05 C 173.48 176.96 172.72 175.94 171.62 175.78 C 170.53 175.62 169.51 176.38 169.35 177.47 Z M 169.20 178.47 L 169.06 179.44 C 168.90 180.54 169.66 181.55 170.76 181.71 C 171.85 181.87 172.87 181.12 173.03 180.02 L 173.17 179.05 C 173.33 177.95 172.57 176.93 171.48 176.77 C 170.38 176.61 169.36 177.37 169.20 178.47 Z M 169.06 179.44 L 168.92 180.43 C 168.76 181.52 169.52 182.54 170.62 182.70 C 171.71 182.86 172.73 182.10 172.88 181.00 L 173.03 180.02 C 173.19 178.92 172.43 177.91 171.33 177.75 C 170.24 177.59 169.22 178.35 169.06 179.44 Z M 168.92 180.43 L 168.78 181.43 C 168.62 182.52 169.39 183.53 170.48 183.69 C 171.57 183.84 172.59 183.08 172.74 181.99 L 172.88 181.00 C 173.04 179.90 172.28 178.89 171.18 178.73 C 170.09 178.58 169.08 179.34 168.92 180.43 Z M 168.78 181.44 L 168.65 182.42 C 168.50 183.52 169.26 184.52 170.35 184.67 C 171.45 184.82 172.45 184.06 172.61 182.97 L 172.74 181.98 C 172.89 180.89 172.13 179.88 171.03 179.73 C 169.94 179.58 168.93 180.34 168.78 181.44 Z M 168.65 182.44 L 168.52 183.43 C 168.37 184.53 169.14 185.53 170.24 185.67 C 171.33 185.81 172.33 185.04 172.47 183.95 L 172.60 182.95 C 172.75 181.86 171.98 180.86 170.88 180.72 C 169.79 180.57 168.79 181.34 168.65 182.44 Z M 168.52 183.45 L 168.39 184.44 C 168.26 185.53 169.03 186.52 170.12 186.66 C 171.21 186.80 172.21 186.02 172.35 184.93 L 172.47 183.94 C 172.61 182.85 171.83 181.85 170.74 181.72 C 169.65 181.58 168.66 182.35 168.52 183.45 Z M 168.40 184.44 L 168.28 185.43 C 168.14 186.52 168.92 187.51 170.01 187.65 C 171.10 187.78 172.09 187.00 172.22 185.91 L 172.35 184.93 C 172.48 183.84 171.70 182.84 170.61 182.71 C 169.52 182.57 168.53 183.35 168.40 184.44 Z M 168.28 185.43 L 168.16 186.43 C 168.02 187.52 168.79 188.51 169.88 188.64 C 170.97 188.78 171.96 188.00 172.10 186.91 L 172.22 185.91 C 172.35 184.83 171.58 183.83 170.49 183.70 C 169.40 183.57 168.41 184.34 168.28 185.43 Z M 168.16 186.42 L 168.03 187.41 C 167.90 188.50 168.67 189.49 169.75 189.63 C 170.84 189.76 171.83 188.99 171.97 187.91 L 172.09 186.92 C 172.23 185.83 171.46 184.84 170.37 184.70 C 169.29 184.57 168.30 185.34 168.16 186.42 Z M 168.04 187.41 L 167.91 188.39 C 167.77 189.48 168.54 190.47 169.62 190.61 C 170.70 190.75 171.70 189.98 171.84 188.90 L 171.96 187.91 C 172.11 186.83 171.34 185.84 170.26 185.70 C 169.17 185.56 168.18 186.32 168.04 187.41 Z M 167.92 188.39 L 167.78 189.37 C 167.64 190.45 168.40 191.45 169.48 191.59 C 170.57 191.73 171.56 190.97 171.70 189.89 L 171.83 188.91 C 171.98 187.82 171.22 186.83 170.13 186.69 C 169.05 186.54 168.06 187.30 167.92 188.39 Z M 167.79 189.38 L 167.66 190.37 C 167.52 191.45 168.28 192.44 169.36 192.58 C 170.44 192.73 171.43 191.96 171.57 190.88 L 171.70 189.89 C 171.84 188.81 171.08 187.82 170.00 187.68 C 168.92 187.54 167.93 188.30 167.79 189.38 Z M 167.66 190.38 L 167.53 191.41 C 167.39 192.49 168.16 193.47 169.24 193.61 C 170.32 193.74 171.31 192.98 171.44 191.90 L 171.57 190.87 C 171.70 189.79 170.94 188.81 169.86 188.67 C 168.78 188.54 167.79 189.30 167.66 190.38 Z M 167.53 191.42 L 167.41 192.41 C 167.28 193.49 168.05 194.48 169.13 194.60 C 170.21 194.73 171.19 193.96 171.32 192.88 L 171.44 191.89 C 171.57 190.80 170.80 189.82 169.72 189.70 C 168.64 189.57 167.66 190.34 167.53 191.42 Z M 167.41 192.43 L 167.29 193.43 C 167.17 194.51 167.95 195.49 169.03 195.61 C 170.11 195.74 171.09 194.96 171.21 193.88 L 171.32 192.87 C 171.45 191.79 170.67 190.81 169.59 190.69 C 168.51 190.57 167.53 191.35 167.41 192.43 Z M 167.30 193.44 L 167.18 194.43 C 167.06 195.51 167.84 196.49 168.92 196.61 C 170.00 196.73 170.98 195.95 171.10 194.87 L 171.21 193.88 C 171.33 192.80 170.55 191.82 169.47 191.70 C 168.39 191.58 167.42 192.35 167.30 193.44 Z M 167.19 194.40 L 167.07 195.33 C 166.93 196.40 167.69 197.39 168.77 197.53 C 169.84 197.67 170.83 196.91 170.97 195.83 L 171.09 194.91 C 171.23 193.83 170.47 192.84 169.39 192.70 C 168.32 192.56 167.33 193.32 167.19 194.40 Z M 167.08 195.25 L 166.91 196.22 C 166.73 197.29 167.45 198.31 168.52 198.49 C 169.60 198.67 170.61 197.95 170.79 196.88 L 170.96 195.91 C 171.14 194.84 170.42 193.82 169.35 193.64 C 168.28 193.46 167.26 194.18 167.08 195.25 Z M 166.93 196.13 L 166.72 197.12 C 166.49 198.18 167.16 199.23 168.22 199.46 C 169.28 199.69 170.33 199.02 170.56 197.96 L 170.78 196.97 C 171.01 195.90 170.33 194.86 169.27 194.63 C 168.21 194.40 167.16 195.07 166.93 196.13 Z M 166.74 197.02 L 166.48 198.01 C 166.19 199.05 166.81 200.13 167.86 200.42 C 168.90 200.70 169.98 200.09 170.27 199.04 L 170.53 198.06 C 170.82 197.01 170.20 195.93 169.15 195.64 C 168.11 195.36 167.03 195.98 166.74 197.02 Z M 166.53 197.84 L 166.16 198.83 C 165.78 199.84 166.30 200.97 167.31 201.35 C 168.33 201.73 169.46 201.22 169.84 200.20 L 170.21 199.21 C 170.59 198.20 170.07 197.07 169.06 196.69 C 168.04 196.31 166.91 196.82 166.53 197.84 Z M 166.36 198.45 L 165.82 199.28 C 165.23 200.19 165.49 201.40 166.39 201.99 C 167.30 202.58 168.51 202.32 169.10 201.41 L 169.64 200.58 C 170.23 199.67 169.97 198.46 169.07 197.87 C 168.16 197.28 166.95 197.54 166.36 198.45 Z M 166.67 198.58 L 165.87 198.93 C 164.90 199.36 164.45 200.51 164.89 201.49 C 165.32 202.46 166.47 202.91 167.44 202.47 L 168.24 202.12 C 169.22 201.68 169.66 200.54 169.23 199.56 C 168.80 198.58 167.65 198.14 166.67 198.58 Z M 167.31 198.92 L 166.37 198.58 C 165.38 198.22 164.29 198.73 163.93 199.71 C 163.58 200.70 164.09 201.78 165.07 202.14 L 166.01 202.48 C 167.00 202.84 168.08 202.33 168.44 201.35 C 168.80 200.36 168.29 199.28 167.31 198.92 Z M 167.01 199.02 L 166.32 198.36 C 165.58 197.65 164.41 197.67 163.70 198.41 C 162.99 199.15 163.01 200.32 163.75 201.04 L 164.43 201.70 C 165.17 202.41 166.34 202.38 167.05 201.65 C 167.76 200.91 167.74 199.73 167.01 199.02 Z M 166.45 198.56 L 165.82 197.78 C 165.19 197.00 164.04 196.88 163.26 197.51 C 162.48 198.14 162.36 199.28 162.99 200.06 L 163.62 200.84 C 164.25 201.62 165.40 201.74 166.18 201.11 C 166.96 200.48 167.08 199.34 166.45 198.56 Z"
      fill="black"
      fill-rule="nonzero" /><path d="M 152.61 164.91 L 151.68 164.18 C 150.85 163.51 149.63 163.65 148.97 164.48 C 148.30 165.32 148.44 166.54 149.27 167.20 L 150.20 167.94 C 151.03 168.60 152.25 168.47 152.92 167.63 C 153.58 166.80 153.45 165.58 152.61 164.91 Z M 152.27 164.79 L 152.00 164.25 C 151.51 163.26 150.30 162.86 149.31 163.35 C 148.32 163.85 147.92 165.06 148.41 166.05 L 148.68 166.59 C 149.18 167.58 150.39 167.98 151.38 167.48 C 152.37 166.99 152.77 165.78 152.27 164.79 Z M 150.93 167.09 L 151.70 166.80 C 152.77 166.40 153.32 165.21 152.92 164.14 C 152.51 163.07 151.32 162.52 150.25 162.92 L 149.48 163.21 C 148.41 163.61 147.87 164.80 148.27 165.87 C 148.67 166.94 149.86 167.49 150.93 167.09 Z M 151.25 166.95 L 152.48 166.79 C 153.64 166.64 154.45 165.58 154.30 164.42 C 154.14 163.27 153.09 162.46 151.93 162.61 L 150.70 162.77 C 149.55 162.92 148.74 163.98 148.89 165.14 C 149.04 166.29 150.10 167.10 151.25 166.95 Z M 152.43 166.81 L 153.45 166.70 C 154.62 166.58 155.46 165.53 155.33 164.36 C 155.21 163.20 154.16 162.35 152.99 162.48 L 151.98 162.59 C 150.81 162.71 149.97 163.76 150.09 164.93 C 150.22 166.09 151.27 166.94 152.43 166.81 Z M 153.44 166.71 L 154.50 166.60 C 155.67 166.48 156.52 165.44 156.40 164.27 C 156.28 163.10 155.24 162.24 154.07 162.36 L 153.00 162.47 C 151.83 162.59 150.98 163.64 151.10 164.81 C 151.22 165.98 152.27 166.83 153.44 166.71 Z M 154.49 166.61 L 155.48 166.51 C 156.66 166.39 157.51 165.34 157.40 164.17 C 157.28 163.00 156.23 162.14 155.06 162.26 L 154.07 162.36 C 152.90 162.48 152.04 163.52 152.16 164.70 C 152.27 165.87 153.32 166.72 154.49 166.61 Z M 155.50 166.51 L 156.65 166.39 C 157.82 166.26 158.67 165.21 158.55 164.04 C 158.42 162.86 157.37 162.01 156.20 162.14 L 155.05 162.26 C 153.87 162.38 153.02 163.43 153.14 164.61 C 153.27 165.78 154.32 166.63 155.50 166.51 Z M 156.68 166.38 L 157.59 166.27 C 158.76 166.13 159.59 165.07 159.45 163.90 C 159.31 162.73 158.24 161.89 157.07 162.03 L 156.17 162.14 C 154.99 162.28 154.16 163.35 154.30 164.52 C 154.44 165.69 155.51 166.52 156.68 166.38 Z M 157.62 166.26 L 158.50 166.14 C 159.66 165.98 160.48 164.91 160.32 163.74 C 160.16 162.57 159.08 161.76 157.92 161.92 L 157.04 162.04 C 155.87 162.20 155.06 163.28 155.22 164.44 C 155.38 165.61 156.45 166.42 157.62 166.26 Z M 158.51 166.13 L 159.51 165.99 C 160.67 165.82 161.47 164.74 161.30 163.58 C 161.13 162.42 160.05 161.61 158.89 161.78 L 157.90 161.93 C 156.74 162.10 155.94 163.18 156.11 164.34 C 156.28 165.50 157.35 166.30 158.51 166.13 Z M 159.52 165.97 L 160.51 165.82 C 161.67 165.64 162.46 164.57 162.28 163.42 C 162.11 162.27 161.03 161.47 159.88 161.65 L 158.89 161.80 C 157.73 161.97 156.94 163.05 157.12 164.20 C 157.29 165.35 158.37 166.15 159.52 165.97 Z M 160.53 165.80 L 161.52 165.64 C 162.66 165.45 163.43 164.38 163.24 163.24 C 163.06 162.10 161.98 161.32 160.84 161.51 L 159.86 161.67 C 158.72 161.86 157.95 162.93 158.13 164.07 C 158.32 165.21 159.39 165.98 160.53 165.80 Z M 161.54 165.61 L 162.52 165.43 C 163.65 165.23 164.40 164.16 164.19 163.03 C 163.99 161.91 162.92 161.16 161.80 161.36 L 160.82 161.54 C 159.69 161.74 158.94 162.81 159.15 163.94 C 159.35 165.06 160.42 165.81 161.54 165.61 Z M 162.53 165.40 L 163.52 165.22 C 164.63 165.01 165.36 163.95 165.15 162.84 C 164.95 161.74 163.88 161.01 162.78 161.21 L 161.79 161.39 C 160.68 161.60 159.95 162.66 160.16 163.77 C 160.36 164.88 161.42 165.61 162.53 165.40 Z M 163.52 165.19 L 164.50 165.00 C 165.59 164.80 166.31 163.75 166.11 162.67 C 165.91 161.58 164.86 160.86 163.77 161.06 L 162.78 161.24 C 161.69 161.45 160.98 162.49 161.18 163.58 C 161.38 164.67 162.43 165.39 163.52 165.19 Z M 164.51 164.96 L 165.50 164.77 C 166.56 164.56 167.26 163.53 167.05 162.47 C 166.85 161.40 165.82 160.70 164.75 160.91 L 163.76 161.10 C 162.70 161.31 162.00 162.34 162.21 163.41 C 162.42 164.47 163.45 165.17 164.51 164.96 Z M 165.54 164.72 L 166.51 164.50 C 167.55 164.28 168.20 163.25 167.97 162.21 C 167.74 161.18 166.72 160.52 165.68 160.75 L 164.71 160.96 C 163.67 161.19 163.02 162.22 163.25 163.25 C 163.48 164.29 164.50 164.95 165.54 164.72 Z M 166.58 164.45 L 167.54 164.19 C 168.55 163.92 169.14 162.89 168.87 161.88 C 168.61 160.88 167.57 160.28 166.57 160.55 L 165.61 160.81 C 164.60 161.07 164.01 162.11 164.27 163.11 C 164.54 164.12 165.58 164.72 166.58 164.45 Z M 167.55 164.16 L 168.50 163.89 C 169.49 163.62 170.07 162.60 169.79 161.61 C 169.52 160.63 168.50 160.05 167.51 160.32 L 166.56 160.58 C 165.57 160.86 164.99 161.88 165.27 162.87 C 165.54 163.85 166.56 164.43 167.55 164.16 Z M 168.46 163.88 L 169.40 163.64 C 170.38 163.39 170.97 162.39 170.72 161.41 C 170.47 160.44 169.47 159.84 168.50 160.09 L 167.55 160.33 C 166.58 160.58 165.99 161.58 166.24 162.56 C 166.49 163.54 167.48 164.13 168.46 163.88 Z M 169.42 163.61 L 170.40 163.35 C 171.37 163.09 171.94 162.09 171.68 161.13 C 171.42 160.16 170.42 159.59 169.46 159.85 L 168.48 160.12 C 167.51 160.38 166.94 161.37 167.20 162.34 C 167.46 163.30 168.45 163.88 169.42 163.61 Z M 170.44 163.33 L 171.39 163.05 C 172.35 162.77 172.89 161.77 172.61 160.81 C 172.33 159.86 171.33 159.31 170.37 159.59 L 169.42 159.87 C 168.46 160.15 167.92 161.15 168.20 162.11 C 168.48 163.07 169.48 163.61 170.44 163.33 Z M 171.41 163.04 L 172.18 162.81 C 173.14 162.52 173.67 161.51 173.38 160.56 C 173.10 159.61 172.09 159.07 171.14 159.36 L 170.36 159.60 C 169.41 159.88 168.87 160.89 169.16 161.84 C 169.45 162.80 170.45 163.33 171.41 163.04 Z"
      fill="black"
      fill-rule="nonzero" /><path d="M 143.98 179.57 L 144.93 179.58 C 146.04 179.60 146.95 178.71 146.96 177.61 C 146.98 176.50 146.10 175.59 144.99 175.57 L 144.03 175.56 C 142.93 175.54 142.02 176.43 142.00 177.53 C 141.98 178.64 142.87 179.55 143.98 179.57 Z M 145.14 179.71 L 146.18 179.62 C 147.35 179.52 148.22 178.48 148.12 177.31 C 148.02 176.13 146.99 175.26 145.81 175.36 L 144.78 175.45 C 143.60 175.55 142.73 176.58 142.83 177.76 C 142.93 178.93 143.97 179.81 145.14 179.71 Z M 146.46 179.65 L 147.44 179.44 C 148.64 179.19 149.40 178.01 149.15 176.81 C 148.89 175.62 147.71 174.86 146.52 175.11 L 145.53 175.32 C 144.34 175.58 143.58 176.76 143.83 177.95 C 144.09 179.15 145.26 179.91 146.46 179.65 Z M 147.58 179.43 L 148.56 179.16 C 149.74 178.83 150.44 177.60 150.11 176.41 C 149.78 175.22 148.55 174.53 147.36 174.86 L 146.39 175.13 C 145.20 175.46 144.50 176.68 144.83 177.87 C 145.16 179.06 146.39 179.76 147.58 179.43 Z M 148.57 179.17 L 149.56 178.89 C 150.76 178.55 151.45 177.31 151.12 176.12 C 150.78 174.92 149.54 174.23 148.35 174.57 L 147.35 174.85 C 146.16 175.18 145.46 176.42 145.80 177.61 C 146.14 178.81 147.38 179.50 148.57 179.17 Z M 149.52 178.91 L 150.45 178.66 C 151.66 178.35 152.38 177.12 152.06 175.92 C 151.75 174.71 150.52 173.99 149.32 174.30 L 148.39 174.55 C 147.18 174.86 146.46 176.09 146.77 177.29 C 147.09 178.50 148.32 179.22 149.52 178.91 Z M 150.44 178.67 L 151.37 178.44 C 152.58 178.13 153.31 176.90 153.01 175.70 C 152.70 174.49 151.47 173.75 150.27 174.06 L 149.33 174.29 C 148.12 174.60 147.39 175.83 147.69 177.04 C 148.00 178.25 149.23 178.98 150.44 178.67 Z M 151.37 178.44 L 152.35 178.20 C 153.57 177.89 154.30 176.67 154.00 175.45 C 153.70 174.24 152.47 173.50 151.26 173.81 L 150.27 174.05 C 149.06 174.36 148.32 175.58 148.62 176.80 C 148.93 178.01 150.15 178.75 151.37 178.44 Z M 152.35 178.20 L 153.29 177.97 C 154.51 177.67 155.25 176.45 154.95 175.23 C 154.65 174.02 153.43 173.27 152.21 173.57 L 151.27 173.80 C 150.05 174.10 149.31 175.33 149.61 176.54 C 149.90 177.76 151.13 178.50 152.35 178.20 Z M 153.30 177.97 L 154.29 177.72 C 155.51 177.42 156.25 176.19 155.94 174.97 C 155.64 173.76 154.41 173.02 153.20 173.32 L 152.20 173.57 C 150.99 173.87 150.25 175.10 150.55 176.32 C 150.86 177.53 152.09 178.27 153.30 177.97 Z M 154.31 177.71 L 155.27 177.47 C 156.48 177.15 157.20 175.92 156.89 174.71 C 156.58 173.50 155.34 172.77 154.13 173.08 L 153.18 173.33 C 151.97 173.64 151.24 174.88 151.55 176.09 C 151.87 177.30 153.10 178.03 154.31 177.71 Z M 155.27 177.47 L 156.25 177.21 C 157.46 176.90 158.18 175.66 157.87 174.45 C 157.55 173.24 156.32 172.52 155.11 172.83 L 154.13 173.09 C 152.92 173.40 152.19 174.63 152.51 175.84 C 152.82 177.05 154.06 177.78 155.27 177.47 Z M 156.22 177.21 L 157.20 176.97 C 158.41 176.67 159.15 175.44 158.85 174.23 C 158.55 173.02 157.32 172.28 156.11 172.59 L 155.13 172.83 C 153.92 173.13 153.19 174.36 153.49 175.57 C 153.79 176.78 155.01 177.51 156.22 177.21 Z M 157.18 176.97 L 158.15 176.74 C 159.36 176.45 160.11 175.24 159.82 174.03 C 159.53 172.82 158.32 172.07 157.11 172.35 L 156.13 172.58 C 154.92 172.87 154.17 174.09 154.46 175.30 C 154.75 176.51 155.96 177.26 157.18 176.97 Z M 158.13 176.74 L 159.11 176.51 C 160.32 176.23 161.07 175.02 160.79 173.82 C 160.51 172.61 159.30 171.85 158.09 172.13 L 157.12 172.36 C 155.91 172.64 155.16 173.84 155.44 175.05 C 155.72 176.26 156.92 177.02 158.13 176.74 Z M 159.10 176.51 L 160.07 176.28 C 161.28 176.01 162.03 174.81 161.76 173.60 C 161.48 172.39 160.28 171.64 159.07 171.92 L 158.10 172.14 C 156.90 172.41 156.14 173.62 156.42 174.82 C 156.69 176.03 157.89 176.78 159.10 176.51 Z M 160.06 176.28 L 161.05 176.05 C 162.25 175.78 163.00 174.59 162.73 173.39 C 162.46 172.18 161.26 171.43 160.06 171.70 L 159.08 171.92 C 157.88 172.20 157.12 173.39 157.39 174.59 C 157.67 175.79 158.86 176.55 160.06 176.28 Z M 161.04 176.04 L 162.02 175.82 C 163.21 175.56 163.97 174.37 163.70 173.17 C 163.43 171.98 162.24 171.23 161.05 171.49 L 160.07 171.71 C 158.87 171.98 158.12 173.17 158.39 174.36 C 158.66 175.56 159.84 176.31 161.04 176.04 Z M 162.01 175.81 L 162.99 175.59 C 164.18 175.32 164.93 174.15 164.66 172.96 C 164.39 171.77 163.22 171.02 162.03 171.29 L 161.05 171.51 C 159.86 171.77 159.12 172.95 159.38 174.14 C 159.65 175.33 160.83 176.08 162.01 175.81 Z M 162.99 175.57 L 163.98 175.35 C 165.16 175.08 165.89 173.91 165.62 172.73 C 165.36 171.55 164.18 170.82 163.01 171.08 L 162.02 171.31 C 160.85 171.58 160.11 172.75 160.38 173.93 C 160.65 175.10 161.82 175.84 162.99 175.57 Z M 163.99 175.33 L 164.96 175.10 C 166.13 174.83 166.85 173.66 166.58 172.50 C 166.31 171.33 165.14 170.61 163.98 170.88 L 163.00 171.11 C 161.83 171.38 161.11 172.54 161.38 173.71 C 161.65 174.87 162.82 175.60 163.99 175.33 Z M 164.97 175.08 L 165.93 174.85 C 167.08 174.57 167.79 173.41 167.52 172.26 C 167.24 171.11 166.08 170.39 164.93 170.67 L 163.97 170.90 C 162.82 171.18 162.10 172.34 162.38 173.49 C 162.66 174.64 163.82 175.35 164.97 175.08 Z M 165.93 174.82 L 166.90 174.58 C 168.04 174.30 168.74 173.15 168.46 172.02 C 168.18 170.88 167.03 170.18 165.89 170.46 L 164.92 170.70 C 163.79 170.98 163.09 172.13 163.37 173.26 C 163.65 174.40 164.80 175.10 165.93 174.82 Z M 166.90 174.56 L 167.87 174.32 C 168.99 174.04 169.68 172.91 169.41 171.78 C 169.13 170.66 168.00 169.97 166.87 170.25 L 165.90 170.49 C 164.77 170.76 164.09 171.90 164.36 173.02 C 164.64 174.14 165.77 174.83 166.90 174.56 Z M 167.86 174.29 L 168.86 174.05 C 169.96 173.78 170.64 172.66 170.38 171.56 C 170.11 170.45 168.99 169.77 167.89 170.04 L 166.89 170.28 C 165.78 170.55 165.10 171.66 165.37 172.77 C 165.63 173.87 166.75 174.56 167.86 174.29 Z M 168.84 174.01 L 169.80 173.78 C 170.88 173.52 171.56 172.43 171.30 171.34 C 171.03 170.25 169.94 169.58 168.85 169.84 L 167.90 170.07 C 166.81 170.33 166.14 171.42 166.40 172.51 C 166.66 173.60 167.75 174.27 168.84 174.01 Z M 169.79 173.75 L 170.79 173.51 C 171.86 173.25 172.52 172.18 172.27 171.11 C 172.01 170.04 170.94 169.38 169.87 169.64 L 168.86 169.88 C 167.80 170.13 167.14 171.21 167.39 172.27 C 167.65 173.34 168.72 174.00 169.79 173.75 Z M 170.79 173.47 L 171.72 173.24 C 172.76 172.99 173.40 171.93 173.15 170.89 C 172.89 169.84 171.84 169.20 170.79 169.45 L 169.87 169.68 C 168.82 169.93 168.18 170.99 168.44 172.03 C 168.69 173.08 169.75 173.72 170.79 173.47 Z M 171.72 173.21 L 172.65 172.97 C 173.67 172.71 174.29 171.67 174.03 170.64 C 173.77 169.62 172.73 169.00 171.71 169.26 L 170.78 169.49 C 169.76 169.75 169.13 170.79 169.39 171.82 C 169.66 172.84 170.70 173.47 171.72 173.21 Z M 172.64 172.95 L 173.63 172.70 C 174.64 172.44 175.25 171.42 175.00 170.40 C 174.74 169.39 173.72 168.78 172.71 169.03 L 171.72 169.28 C 170.70 169.53 170.09 170.56 170.34 171.57 C 170.60 172.59 171.62 173.20 172.64 172.95 Z M 173.63 172.68 L 174.58 172.43 C 175.58 172.18 176.19 171.16 175.93 170.16 C 175.68 169.16 174.66 168.55 173.66 168.81 L 172.70 169.05 C 171.70 169.31 171.10 170.33 171.35 171.33 C 171.61 172.33 172.63 172.93 173.63 172.68 Z M 174.63 172.41 L 175.64 172.12 C 176.62 171.84 177.19 170.81 176.91 169.82 C 176.63 168.84 175.60 168.27 174.62 168.55 L 173.61 168.84 C 172.63 169.12 172.05 170.14 172.34 171.13 C 172.62 172.12 173.64 172.69 174.63 172.41 Z M 175.71 172.08 L 176.67 171.76 C 177.63 171.44 178.15 170.39 177.83 169.43 C 177.50 168.46 176.46 167.94 175.49 168.27 L 174.54 168.59 C 173.58 168.91 173.06 169.96 173.38 170.92 C 173.71 171.88 174.75 172.40 175.71 172.08 Z M 176.72 171.72 L 177.65 171.38 C 178.60 171.03 179.08 169.98 178.73 169.03 C 178.37 168.09 177.32 167.60 176.38 167.96 L 175.44 168.30 C 174.50 168.65 174.02 169.70 174.37 170.65 C 174.72 171.59 175.77 172.08 176.72 171.72 Z M 177.66 171.36 L 178.05 171.21 C 178.99 170.85 179.46 169.80 179.10 168.87 C 178.74 167.93 177.69 167.47 176.76 167.82 L 176.37 167.97 C 175.43 168.33 174.96 169.38 175.32 170.31 C 175.68 171.25 176.73 171.72 177.66 171.36 Z"
      fill="black"
      fill-rule="nonzero" /><path d="M 159.49 142.95 L 159.14 143.84 C 158.74 144.88 159.25 146.04 160.28 146.44 C 161.32 146.85 162.49 146.34 162.89 145.30 L 163.24 144.41 C 163.64 143.38 163.13 142.21 162.09 141.81 C 161.06 141.40 159.89 141.91 159.49 142.95 Z M 158.94 144.11 L 158.71 145.11 C 158.46 146.26 159.18 147.39 160.33 147.65 C 161.47 147.91 162.61 147.19 162.86 146.04 L 163.09 145.03 C 163.35 143.89 162.62 142.75 161.48 142.50 C 160.33 142.24 159.20 142.96 158.94 144.11 Z M 158.61 145.44 L 158.55 146.45 C 158.47 147.65 159.38 148.69 160.59 148.77 C 161.79 148.84 162.83 147.93 162.90 146.73 L 162.97 145.71 C 163.04 144.51 162.13 143.47 160.93 143.40 C 159.73 143.32 158.69 144.23 158.61 145.44 Z M 158.53 146.61 L 158.54 147.62 C 158.56 148.83 159.55 149.80 160.76 149.79 C 161.98 149.77 162.95 148.78 162.93 147.57 L 162.92 146.56 C 162.91 145.35 161.91 144.38 160.70 144.39 C 159.49 144.41 158.52 145.40 158.53 146.61 Z M 158.54 147.72 L 158.60 148.73 C 158.66 149.94 159.70 150.87 160.92 150.80 C 162.13 150.74 163.06 149.70 162.99 148.48 L 162.93 147.47 C 162.87 146.26 161.83 145.33 160.61 145.40 C 159.40 145.46 158.47 146.50 158.54 147.72 Z M 158.60 148.80 L 158.69 149.75 C 158.79 150.96 159.86 151.86 161.07 151.75 C 162.28 151.64 163.18 150.57 163.07 149.36 L 162.99 148.41 C 162.88 147.20 161.81 146.31 160.60 146.41 C 159.39 146.52 158.50 147.59 158.60 148.80 Z M 158.69 149.77 L 158.78 150.75 C 158.90 151.96 159.98 152.85 161.19 152.73 C 162.40 152.61 163.28 151.53 163.16 150.32 L 163.07 149.34 C 162.95 148.13 161.87 147.25 160.66 147.37 C 159.45 147.48 158.57 148.56 158.69 149.77 Z M 158.78 150.75 L 158.88 151.76 C 159.00 152.97 160.07 153.85 161.28 153.74 C 162.49 153.62 163.38 152.55 163.26 151.34 L 163.16 150.33 C 163.05 149.12 161.97 148.23 160.76 148.35 C 159.55 148.47 158.67 149.54 158.78 150.75 Z M 158.89 151.75 L 158.98 152.73 C 159.08 153.94 160.15 154.83 161.36 154.72 C 162.56 154.61 163.45 153.54 163.34 152.34 L 163.26 151.35 C 163.15 150.15 162.08 149.26 160.87 149.36 C 159.67 149.47 158.78 150.54 158.89 151.75 Z M 158.98 152.72 L 159.07 153.74 C 159.17 154.94 160.23 155.83 161.43 155.73 C 162.64 155.63 163.53 154.57 163.43 153.37 L 163.34 152.35 C 163.23 151.14 162.18 150.25 160.97 150.36 C 159.77 150.46 158.88 151.52 158.98 152.72 Z M 159.08 153.73 L 159.16 154.70 C 159.26 155.90 160.31 156.79 161.51 156.70 C 162.71 156.60 163.60 155.54 163.50 154.35 L 163.42 153.37 C 163.32 152.18 162.27 151.28 161.07 151.38 C 159.87 151.48 158.98 152.53 159.08 153.73 Z M 159.17 154.70 L 159.25 155.71 C 159.34 156.90 160.39 157.80 161.58 157.70 C 162.77 157.61 163.66 156.56 163.57 155.37 L 163.49 154.35 C 163.40 153.16 162.35 152.27 161.16 152.36 C 159.96 152.46 159.07 153.50 159.17 154.70 Z M 159.26 155.70 L 159.33 156.71 C 159.42 157.89 160.46 158.78 161.65 158.70 C 162.83 158.61 163.72 157.57 163.63 156.38 L 163.56 155.38 C 163.47 154.19 162.43 153.30 161.25 153.39 C 160.06 153.48 159.17 154.51 159.26 155.70 Z M 159.35 156.70 L 159.42 157.70 C 159.50 158.88 160.53 159.77 161.71 159.68 C 162.89 159.60 163.77 158.58 163.69 157.40 L 163.62 156.39 C 163.54 155.21 162.51 154.32 161.33 154.41 C 160.15 154.49 159.26 155.52 159.35 156.70 Z M 159.44 157.69 L 159.50 158.69 C 159.58 159.86 160.59 160.74 161.76 160.67 C 162.93 160.59 163.82 159.58 163.74 158.41 L 163.68 157.41 C 163.60 156.24 162.59 155.35 161.42 155.43 C 160.25 155.50 159.36 156.52 159.44 157.69 Z M 159.52 158.67 L 159.57 159.68 C 159.64 160.85 160.64 161.73 161.80 161.67 C 162.96 161.60 163.85 160.60 163.78 159.44 L 163.72 158.43 C 163.66 157.26 162.66 156.38 161.50 156.44 C 160.34 156.51 159.45 157.51 159.52 158.67 Z M 159.59 159.67 L 159.64 160.67 C 159.71 161.82 160.69 162.70 161.84 162.64 C 163.00 162.58 163.88 161.59 163.82 160.44 L 163.77 159.45 C 163.71 158.30 162.72 157.41 161.57 157.47 C 160.41 157.54 159.53 158.52 159.59 159.67 Z M 159.66 160.66 L 159.71 161.66 C 159.78 162.81 160.75 163.68 161.90 163.62 C 163.04 163.56 163.92 162.58 163.86 161.44 L 163.80 160.44 C 163.74 159.30 162.76 158.42 161.62 158.48 C 160.48 158.54 159.60 159.52 159.66 160.66 Z M 159.73 161.66 L 159.79 162.67 C 159.85 163.80 160.82 164.67 161.95 164.61 C 163.08 164.55 163.95 163.58 163.89 162.45 L 163.84 161.44 C 163.78 160.31 162.81 159.44 161.68 159.50 C 160.54 159.56 159.67 160.53 159.73 161.66 Z M 159.80 162.65 L 159.85 163.64 C 159.90 164.76 160.86 165.63 161.98 165.58 C 163.11 165.52 163.97 164.57 163.92 163.44 L 163.88 162.46 C 163.82 161.34 162.87 160.47 161.74 160.52 C 160.62 160.58 159.75 161.53 159.80 162.65 Z M 159.87 163.61 L 159.91 164.64 C 159.95 165.75 160.88 166.62 162.00 166.58 C 163.11 166.54 163.98 165.61 163.94 164.50 L 163.90 163.47 C 163.86 162.35 162.93 161.48 161.81 161.52 C 160.70 161.56 159.83 162.50 159.87 163.61 Z M 159.93 164.62 L 159.96 165.61 C 159.99 166.71 160.91 167.58 162.01 167.55 C 163.11 167.51 163.98 166.59 163.95 165.49 L 163.92 164.51 C 163.89 163.41 162.97 162.54 161.87 162.57 C 160.76 162.60 159.90 163.52 159.93 164.62 Z M 159.98 165.61 L 160.01 166.63 C 160.04 167.72 160.95 168.58 162.04 168.54 C 163.13 168.51 163.99 167.60 163.96 166.51 L 163.93 165.49 C 163.89 164.40 162.98 163.54 161.89 163.57 C 160.80 163.61 159.94 164.52 159.98 165.61 Z M 160.03 166.62 L 160.05 167.61 C 160.08 168.69 160.98 169.54 162.06 169.51 C 163.14 169.48 164.00 168.58 163.97 167.50 L 163.94 166.51 C 163.91 165.43 163.01 164.58 161.93 164.61 C 160.85 164.64 160.00 165.54 160.03 166.62 Z M 160.07 167.59 L 160.09 168.52 C 160.11 169.59 160.99 170.44 162.06 170.43 C 163.13 170.41 163.98 169.53 163.96 168.46 L 163.95 167.52 C 163.93 166.45 163.05 165.60 161.98 165.62 C 160.91 165.64 160.06 166.52 160.07 167.59 Z M 160.11 168.51 L 160.12 169.52 C 160.13 170.57 161.00 171.42 162.05 171.41 C 163.11 171.40 163.96 170.54 163.95 169.48 L 163.94 168.47 C 163.93 167.41 163.06 166.56 162.01 166.57 C 160.95 166.58 160.10 167.45 160.11 168.51 Z M 160.10 169.53 L 160.11 170.50 C 160.13 171.57 161.01 172.42 162.08 172.40 C 163.15 172.38 164.01 171.50 163.99 170.43 L 163.97 169.47 C 163.96 168.39 163.07 167.54 162.00 167.56 C 160.93 167.58 160.08 168.46 160.10 169.53 Z M 160.04 170.51 L 160.06 171.51 C 160.08 172.62 161.00 173.50 162.12 173.48 C 163.23 173.46 164.11 172.53 164.09 171.42 L 164.07 170.42 C 164.04 169.31 163.12 168.43 162.01 168.45 C 160.90 168.47 160.01 169.39 160.04 170.51 Z M 159.97 171.51 L 159.99 172.58 C 160.02 173.74 160.98 174.66 162.15 174.64 C 163.31 174.61 164.23 173.64 164.20 172.48 L 164.18 171.42 C 164.15 170.25 163.19 169.33 162.02 169.36 C 160.86 169.39 159.94 170.35 159.97 171.51 Z M 159.94 172.58 L 159.94 172.67 C 159.97 173.86 160.96 174.81 162.15 174.78 C 163.34 174.75 164.28 173.76 164.26 172.57 L 164.25 172.48 C 164.23 171.29 163.24 170.35 162.05 170.37 C 160.86 170.40 159.91 171.39 159.94 172.58 Z"
      fill="black"
      fill-rule="nonzero" /></svg>