<svg xmlns="http://www.w3.org/2000/svg" width="300" height="300" viewBox="0 0 300 300">
<path d="M 121.00 132.50 L 121.56 133.26 C 122.22 134.14 123.47 134.33 124.36 133.68 C 125.25 133.02 125.44 131.77 124.78 130.88 L 124.22 130.12 C 123.56 129.23 122.31 129.05 121.42 129.70 C 120.53 130.36 120.35 131.61 121.00 132.50 Z M 121.63 133.55 L 122.36 134.30 C 123.17 135.15 124.52 135.17 125.37 134.36 C 126.22 133.54 126.25 132.19 125.43 131.34 L 124.71 130.59 C 123.89 129.74 122.54 129.71 121.69 130.53 C 120.84 131.35 120.82 132.70 121.63 133.55 Z M 122.58 134.57 L 123.35 135.16 C 124.32 135.88 125.70 135.69 126.42 134.72 C 127.15 133.76 126.96 132.38 125.99 131.65 L 125.21 131.07 C 124.25 130.34 122.87 130.53 122.14 131.50 C 121.41 132.47 121.61 133.84 122.58 134.57 Z M 123.53 135.25 L 124.40 135.79 C 125.42 136.42 126.76 136.11 127.39 135.09 C 128.02 134.07 127.70 132.74 126.69 132.10 L 125.82 131.56 C 124.80 130.93 123.46 131.25 122.83 132.26 C 122.20 133.28 122.51 134.62 123.53 135.25 Z M 124.51 135.81 L 125.39 136.30 C 126.42 136.87 127.72 136.50 128.29 135.47 C 128.86 134.44 128.49 133.14 127.46 132.57 L 126.58 132.08 C 125.55 131.51 124.25 131.88 123.68 132.91 C 123.11 133.94 123.48 135.24 124.51 135.81 Z M 125.48 136.28 L 126.34 136.72 C 127.36 137.24 128.60 136.84 129.13 135.82 C 129.65 134.80 129.24 133.55 128.23 133.03 L 127.37 132.59 C 126.35 132.07 125.10 132.47 124.58 133.49 C 124.06 134.51 124.46 135.76 125.48 136.28 Z M 126.42 136.68 L 127.33 137.11 C 128.33 137.58 129.52 137.16 129.99 136.16 C 130.47 135.17 130.04 133.97 129.05 133.50 L 128.14 133.07 C 127.14 132.60 125.95 133.02 125.48 134.02 C 125.00 135.01 125.43 136.20 126.42 136.68 Z M 127.39 137.07 L 128.28 137.47 C 129.25 137.91 130.40 137.48 130.84 136.50 C 131.28 135.53 130.85 134.38 129.87 133.94 L 128.99 133.54 C 128.01 133.10 126.87 133.53 126.43 134.51 C 125.98 135.48 126.42 136.63 127.39 137.07 Z M 128.31 137.44 L 129.20 137.83 C 130.16 138.26 131.28 137.82 131.70 136.86 C 132.12 135.91 131.69 134.79 130.73 134.37 L 129.84 133.97 C 128.88 133.55 127.76 133.98 127.34 134.94 C 126.92 135.90 127.35 137.02 128.31 137.44 Z M 129.22 137.81 L 130.17 138.22 C 131.12 138.63 132.21 138.20 132.62 137.26 C 133.04 136.31 132.60 135.22 131.66 134.81 L 130.71 134.39 C 129.77 133.98 128.67 134.41 128.26 135.35 C 127.85 136.30 128.28 137.40 129.22 137.81 Z M 130.19 138.20 L 130.98 138.54 C 131.91 138.94 132.99 138.51 133.39 137.59 C 133.79 136.66 133.37 135.58 132.44 135.17 L 131.65 134.83 C 130.72 134.43 129.64 134.85 129.23 135.78 C 128.83 136.71 129.26 137.79 130.19 138.20 Z"
      fill="black"
      fill-rule="nonzero" /><path d="M 124.36 152.42 L 125.36 152.63 C 126.52 152.86 127.65 152.12 127.89 150.96 C 128.13 149.80 127.38 148.66 126.22 148.43 L 125.22 148.22 C 124.06 147.99 122.92 148.74 122.69 149.90 C 122.45 151.06 123.20 152.19 124.36 152.42 Z M 125.58 152.69 L 126.55 152.78 C 127.74 152.90 128.80 152.03 128.92 150.84 C 129.04 149.64 128.17 148.58 126.97 148.47 L 126.00 148.37 C 124.81 148.25 123.75 149.12 123.63 150.32 C 123.51 151.51 124.39 152.57 125.58 152.69 Z M 126.97 152.74 L 127.89 152.65 C 129.06 152.54 129.92 151.50 129.81 150.33 C 129.70 149.16 128.65 148.30 127.48 148.41 L 126.56 148.50 C 125.39 148.62 124.53 149.66 124.64 150.83 C 124.75 152.00 125.80 152.86 126.97 152.74 Z M 128.12 152.51 L 129.15 152.29 C 130.24 152.05 130.93 150.97 130.69 149.87 C 130.45 148.78 129.37 148.09 128.28 148.33 L 127.25 148.55 C 126.16 148.80 125.47 149.88 125.71 150.97 C 125.95 152.06 127.03 152.75 128.12 152.51 Z M 129.15 152.21 L 130.13 151.99 C 131.18 151.74 131.83 150.70 131.59 149.65 C 131.35 148.60 130.30 147.94 129.25 148.18 L 128.28 148.41 C 127.23 148.65 126.57 149.70 126.81 150.75 C 127.06 151.80 128.10 152.45 129.15 152.21 Z M 130.08 151.95 L 131.09 151.74 C 132.12 151.52 132.78 150.51 132.56 149.48 C 132.35 148.45 131.34 147.79 130.31 148.01 L 129.30 148.22 C 128.27 148.44 127.61 149.45 127.82 150.48 C 128.04 151.51 129.05 152.17 130.08 151.95 Z M 131.02 151.71 L 132.03 151.54 C 133.04 151.36 133.72 150.40 133.55 149.38 C 133.37 148.36 132.41 147.68 131.39 147.86 L 130.38 148.03 C 129.36 148.21 128.68 149.17 128.86 150.19 C 129.03 151.21 130.00 151.89 131.02 151.71 Z M 131.92 151.52 L 132.93 151.41 C 133.93 151.29 134.66 150.38 134.54 149.38 C 134.43 148.37 133.52 147.65 132.52 147.76 L 131.50 147.87 C 130.50 147.99 129.77 148.90 129.89 149.90 C 130.00 150.91 130.91 151.63 131.92 151.52 Z M 132.85 151.39 L 133.55 151.34 C 134.55 151.26 135.30 150.40 135.23 149.40 C 135.15 148.40 134.29 147.65 133.29 147.73 L 132.59 147.78 C 131.59 147.85 130.84 148.72 130.92 149.72 C 130.99 150.71 131.86 151.46 132.85 151.39 Z"
      fill="black"
      fill-rule="nonzero" /><path d="M 121.17 168.95 L 120.62 169.99 C 120.12 170.92 120.48 172.09 121.41 172.59 C 122.35 173.09 123.52 172.74 124.02 171.80 L 124.57 170.77 C 125.07 169.83 124.72 168.66 123.78 168.16 C 122.84 167.66 121.68 168.01 121.17 168.95 Z M 120.18 171.00 L 120.21 171.63 C 120.27 172.82 121.27 173.73 122.46 173.67 C 123.64 173.61 124.56 172.60 124.50 171.42 L 124.47 170.79 C 124.41 169.60 123.40 168.69 122.22 168.75 C 121.03 168.81 120.12 169.81 120.18 171.00 Z M 122.38 173.77 L 123.28 173.76 C 124.52 173.74 125.52 172.73 125.50 171.49 C 125.48 170.25 124.47 169.25 123.23 169.27 L 122.32 169.28 C 121.08 169.30 120.09 170.31 120.11 171.55 C 120.12 172.80 121.14 173.79 122.38 173.77 Z M 124.03 173.63 L 125.08 173.24 C 126.24 172.81 126.84 171.52 126.41 170.36 C 125.99 169.19 124.69 168.59 123.53 169.02 L 122.48 169.40 C 121.31 169.83 120.72 171.12 121.14 172.29 C 121.57 173.45 122.86 174.05 124.03 173.63 Z M 125.31 173.13 L 126.20 172.68 C 127.30 172.12 127.74 170.78 127.18 169.67 C 126.63 168.57 125.28 168.13 124.18 168.69 L 123.29 169.13 C 122.19 169.69 121.75 171.04 122.30 172.14 C 122.86 173.24 124.21 173.69 125.31 173.13 Z M 126.31 172.60 L 127.21 172.07 C 128.27 171.45 128.63 170.09 128.01 169.03 C 127.39 167.97 126.02 167.62 124.97 168.24 L 124.06 168.77 C 123.00 169.39 122.65 170.75 123.27 171.81 C 123.89 172.87 125.25 173.22 126.31 172.60 Z M 127.28 171.99 L 128.19 171.40 C 129.21 170.73 129.49 169.38 128.83 168.37 C 128.17 167.35 126.82 167.07 125.80 167.73 L 124.89 168.32 C 123.88 168.98 123.59 170.34 124.25 171.35 C 124.92 172.36 126.27 172.65 127.28 171.99 Z M 128.23 171.30 L 129.08 170.70 C 130.04 170.02 130.27 168.69 129.59 167.73 C 128.91 166.77 127.58 166.54 126.62 167.22 L 125.77 167.82 C 124.81 168.50 124.58 169.83 125.26 170.79 C 125.94 171.75 127.27 171.98 128.23 171.30 Z M 129.08 170.61 L 129.81 170.06 C 130.72 169.38 130.91 168.09 130.23 167.18 C 129.55 166.27 128.27 166.08 127.35 166.76 L 126.62 167.31 C 125.71 167.99 125.52 169.28 126.20 170.19 C 126.88 171.10 128.17 171.29 129.08 170.61 Z M 129.78 169.98 L 130.62 169.35 C 131.49 168.68 131.66 167.44 131.00 166.57 C 130.33 165.70 129.09 165.54 128.22 166.20 L 127.38 166.84 C 126.52 167.50 126.35 168.74 127.01 169.61 C 127.67 170.48 128.92 170.65 129.78 169.98 Z M 130.58 169.27 L 131.31 168.71 C 132.13 168.06 132.28 166.87 131.64 166.05 C 131.00 165.22 129.81 165.07 128.98 165.71 L 128.26 166.28 C 127.43 166.92 127.28 168.11 127.93 168.93 C 128.57 169.76 129.76 169.91 130.58 169.27 Z M 131.29 168.65 L 132.07 168.03 C 132.86 167.40 133.00 166.24 132.36 165.44 C 131.73 164.65 130.57 164.52 129.78 165.15 L 129.00 165.77 C 128.20 166.40 128.07 167.56 128.71 168.36 C 129.34 169.15 130.50 169.28 131.29 168.65 Z M 132.09 167.98 L 132.86 167.34 C 133.63 166.69 133.73 165.54 133.08 164.77 C 132.44 164.00 131.29 163.91 130.52 164.55 L 129.75 165.20 C 128.98 165.85 128.88 166.99 129.53 167.76 C 130.18 168.53 131.33 168.63 132.09 167.98 Z M 132.89 167.30 L 133.64 166.63 C 134.39 165.97 134.46 164.83 133.79 164.08 C 133.13 163.34 131.99 163.27 131.24 163.93 L 130.49 164.59 C 129.75 165.25 129.68 166.40 130.34 167.14 C 131.00 167.89 132.14 167.96 132.89 167.30 Z M 133.65 166.62 L 134.39 165.95 C 135.13 165.28 135.19 164.14 134.52 163.40 C 133.86 162.66 132.72 162.61 131.98 163.27 L 131.24 163.94 C 130.50 164.61 130.44 165.75 131.11 166.48 C 131.77 167.22 132.91 167.28 133.65 166.62 Z M 134.39 165.94 L 135.02 165.38 C 135.75 164.71 135.81 163.57 135.14 162.84 C 134.48 162.10 133.34 162.04 132.60 162.71 L 131.98 163.28 C 131.24 163.94 131.18 165.08 131.85 165.82 C 132.52 166.55 133.66 166.61 134.39 165.94 Z"
      fill="black"
      fill-rule="nonzero" /><path d="M 162.74 110.62 L 161.78 110.83 C 160.71 111.06 160.02 112.11 160.25 113.18 C 160.48 114.25 161.53 114.94 162.61 114.71 L 163.56 114.51 C 164.63 114.28 165.32 113.23 165.09 112.15 C 164.86 111.08 163.81 110.40 162.74 110.62 Z M 161.63 110.77 L 160.65 111.05 C 159.55 111.36 158.90 112.50 159.21 113.61 C 159.53 114.71 160.67 115.36 161.78 115.04 L 162.76 114.77 C 163.86 114.46 164.50 113.31 164.19 112.21 C 163.88 111.10 162.74 110.46 161.63 110.77 Z M 160.45 111.09 L 159.50 111.46 C 158.42 111.88 157.88 113.10 158.31 114.18 C 158.73 115.26 159.95 115.80 161.03 115.37 L 161.98 115.00 C 163.06 114.58 163.59 113.36 163.17 112.28 C 162.75 111.20 161.53 110.66 160.45 111.09 Z M 159.40 111.56 L 158.49 111.98 C 157.46 112.46 157.02 113.68 157.50 114.70 C 157.97 115.73 159.19 116.18 160.22 115.70 L 161.13 115.28 C 162.16 114.80 162.60 113.58 162.12 112.55 C 161.65 111.53 160.43 111.08 159.40 111.56 Z M 158.47 112.04 L 157.56 112.50 C 156.56 112.99 156.16 114.19 156.65 115.18 C 157.14 116.17 158.34 116.58 159.33 116.09 L 160.24 115.63 C 161.24 115.14 161.64 113.94 161.15 112.95 C 160.66 111.96 159.46 111.55 158.47 112.04 Z M 157.56 112.54 L 156.69 112.98 C 155.73 113.47 155.34 114.65 155.83 115.61 C 156.32 116.58 157.50 116.97 158.47 116.48 L 159.33 116.04 C 160.30 115.55 160.68 114.37 160.19 113.40 C 159.70 112.44 158.52 112.05 157.56 112.54 Z M 156.71 113.00 L 155.84 113.44 C 154.89 113.93 154.51 115.09 155.00 116.04 C 155.48 116.99 156.64 117.37 157.60 116.89 L 158.46 116.45 C 159.41 115.97 159.79 114.80 159.30 113.85 C 158.82 112.90 157.66 112.52 156.71 113.00 Z M 155.87 113.45 L 154.95 113.90 C 154.00 114.37 153.61 115.52 154.08 116.46 C 154.55 117.41 155.69 117.80 156.64 117.34 L 157.56 116.88 C 158.51 116.42 158.90 115.27 158.44 114.32 C 157.97 113.37 156.82 112.98 155.87 113.45 Z M 154.99 113.90 L 154.10 114.31 C 153.15 114.76 152.74 115.89 153.19 116.84 C 153.63 117.79 154.76 118.20 155.71 117.76 L 156.60 117.34 C 157.55 116.90 157.96 115.77 157.52 114.82 C 157.07 113.87 155.94 113.45 154.99 113.90 Z M 154.12 114.32 L 153.20 114.74 C 152.25 115.18 151.83 116.30 152.27 117.24 C 152.70 118.19 153.82 118.61 154.76 118.17 L 155.69 117.75 C 156.64 117.32 157.06 116.20 156.62 115.25 C 156.19 114.30 155.07 113.89 154.12 114.32 Z M 153.20 114.76 L 152.31 115.16 C 151.37 115.59 150.96 116.71 151.39 117.65 C 151.82 118.59 152.93 119.00 153.87 118.57 L 154.76 118.16 C 155.70 117.73 156.11 116.62 155.68 115.68 C 155.25 114.74 154.14 114.33 153.20 114.76 Z M 152.33 115.17 L 151.41 115.58 C 150.47 116.00 150.05 117.10 150.47 118.04 C 150.89 118.98 151.99 119.40 152.93 118.98 L 153.85 118.57 C 154.79 118.14 155.21 117.04 154.79 116.10 C 154.37 115.17 153.27 114.75 152.33 115.17 Z M 151.44 115.58 L 150.52 115.97 C 149.58 116.37 149.14 117.46 149.54 118.40 C 149.95 119.34 151.03 119.78 151.97 119.38 L 152.90 118.98 C 153.84 118.58 154.27 117.49 153.87 116.55 C 153.47 115.61 152.38 115.18 151.44 115.58 Z M 150.55 115.97 L 149.62 116.35 C 148.67 116.73 148.22 117.81 148.61 118.75 C 148.99 119.69 150.07 120.15 151.01 119.76 L 151.94 119.38 C 152.89 119.00 153.34 117.92 152.95 116.98 C 152.57 116.04 151.49 115.58 150.55 115.97 Z M 149.64 116.35 L 148.70 116.72 C 147.76 117.09 147.29 118.15 147.66 119.10 C 148.03 120.04 149.10 120.50 150.04 120.13 L 150.98 119.76 C 151.93 119.39 152.39 118.33 152.02 117.38 C 151.65 116.44 150.58 115.98 149.64 116.35 Z M 148.72 116.72 L 147.78 117.07 C 146.84 117.43 146.36 118.49 146.72 119.43 C 147.08 120.38 148.14 120.85 149.08 120.49 L 150.02 120.13 C 150.96 119.78 151.44 118.72 151.08 117.78 C 150.72 116.83 149.67 116.36 148.72 116.72 Z M 147.80 117.07 L 146.88 117.41 C 145.93 117.76 145.45 118.81 145.80 119.75 C 146.14 120.70 147.19 121.18 148.14 120.83 L 149.06 120.49 C 150.00 120.15 150.49 119.10 150.14 118.15 C 149.79 117.21 148.74 116.73 147.80 117.07 Z M 146.90 117.41 L 145.95 117.75 C 145.00 118.08 144.50 119.12 144.84 120.07 C 145.18 121.02 146.22 121.51 147.16 121.18 L 148.12 120.84 C 149.06 120.50 149.56 119.46 149.22 118.51 C 148.89 117.57 147.85 117.07 146.90 117.41 Z M 145.98 117.73 L 145.05 118.04 C 144.09 118.36 143.57 119.39 143.89 120.34 C 144.20 121.29 145.23 121.81 146.19 121.50 L 147.12 121.19 C 148.08 120.87 148.60 119.85 148.28 118.89 C 147.97 117.94 146.94 117.42 145.98 117.73 Z M 145.10 118.03 L 144.13 118.31 C 143.16 118.59 142.61 119.61 142.89 120.57 C 143.18 121.53 144.19 122.08 145.15 121.80 L 146.13 121.52 C 147.09 121.23 147.64 120.22 147.36 119.26 C 147.08 118.30 146.07 117.74 145.10 118.03 Z M 144.17 118.30 L 143.22 118.56 C 142.25 118.82 141.67 119.82 141.93 120.79 C 142.19 121.75 143.19 122.33 144.16 122.07 L 145.11 121.81 C 146.08 121.55 146.66 120.55 146.39 119.59 C 146.13 118.62 145.14 118.04 144.17 118.30 Z M 143.23 118.55 L 142.24 118.81 C 141.27 119.07 140.69 120.06 140.94 121.03 C 141.20 122.00 142.19 122.58 143.16 122.33 L 144.15 122.07 C 145.12 121.82 145.70 120.82 145.45 119.85 C 145.19 118.88 144.20 118.30 143.23 118.55 Z M 142.26 118.81 L 141.32 119.04 C 140.35 119.28 139.75 120.26 140.00 121.24 C 140.24 122.21 141.22 122.81 142.19 122.57 L 143.13 122.34 C 144.11 122.10 144.70 121.11 144.46 120.14 C 144.22 119.16 143.24 118.57 142.26 118.81 Z M 141.38 119.03 L 140.47 119.22 C 139.49 119.43 138.86 120.40 139.07 121.38 C 139.28 122.36 140.24 122.98 141.22 122.78 L 142.14 122.58 C 143.12 122.37 143.75 121.41 143.54 120.43 C 143.33 119.44 142.36 118.82 141.38 119.03 Z M 140.54 119.21 L 139.43 119.40 C 138.44 119.57 137.77 120.51 137.94 121.50 C 138.11 122.48 139.05 123.15 140.04 122.98 L 141.15 122.79 C 142.14 122.62 142.81 121.68 142.64 120.69 C 142.47 119.70 141.53 119.04 140.54 119.21 Z M 139.45 119.39 L 138.25 119.58 C 137.26 119.74 136.58 120.68 136.74 121.67 C 136.90 122.66 137.84 123.34 138.83 123.18 L 140.02 122.99 C 141.02 122.83 141.69 121.89 141.53 120.90 C 141.37 119.91 140.44 119.23 139.45 119.39 Z M 137.68 119.75 L 137.44 119.87 C 136.54 120.35 136.20 121.47 136.68 122.37 C 137.16 123.27 138.27 123.61 139.17 123.13 L 139.41 123.01 C 140.31 122.53 140.65 121.42 140.17 120.52 C 139.70 119.62 138.58 119.27 137.68 119.75 Z M 138.25 123.41 L 139.37 123.45 C 140.42 123.48 141.30 122.65 141.34 121.60 C 141.37 120.55 140.54 119.67 139.49 119.64 L 138.37 119.60 C 137.32 119.57 136.44 120.39 136.40 121.44 C 136.37 122.49 137.20 123.37 138.25 123.41 Z M 139.38 123.51 L 140.49 123.54 C 141.57 123.57 142.48 122.71 142.51 121.63 C 142.54 120.54 141.68 119.63 140.60 119.60 L 139.49 119.57 C 138.40 119.54 137.49 120.40 137.46 121.49 C 137.43 122.57 138.29 123.48 139.38 123.51 Z M 140.30 123.56 L 141.27 123.68 C 142.37 123.82 143.37 123.04 143.51 121.94 C 143.64 120.83 142.86 119.83 141.76 119.70 L 140.79 119.58 C 139.69 119.44 138.68 120.23 138.55 121.33 C 138.41 122.43 139.20 123.43 140.30 123.56 Z M 140.92 123.64 L 141.87 123.93 C 142.95 124.26 144.09 123.65 144.41 122.57 C 144.74 121.49 144.13 120.35 143.05 120.02 L 142.10 119.74 C 141.03 119.41 139.89 120.02 139.56 121.10 C 139.23 122.18 139.84 123.32 140.92 123.64 Z M 141.58 123.85 L 142.49 124.28 C 143.53 124.77 144.76 124.32 145.25 123.29 C 145.74 122.25 145.29 121.02 144.26 120.53 L 143.34 120.10 C 142.31 119.62 141.07 120.06 140.59 121.10 C 140.10 122.13 140.54 123.36 141.58 123.85 Z M 142.29 124.20 L 143.16 124.73 C 144.15 125.32 145.44 125.00 146.04 124.01 C 146.64 123.02 146.32 121.73 145.32 121.13 L 144.46 120.61 C 143.47 120.01 142.18 120.33 141.58 121.32 C 140.98 122.32 141.30 123.61 142.29 124.20 Z M 142.99 124.63 L 143.78 125.22 C 144.72 125.91 146.05 125.71 146.74 124.77 C 147.43 123.83 147.23 122.51 146.29 121.81 L 145.50 121.23 C 144.56 120.53 143.23 120.73 142.54 121.67 C 141.84 122.61 142.05 123.94 142.99 124.63 Z M 143.64 125.12 L 144.34 125.74 C 145.23 126.51 146.57 126.42 147.34 125.54 C 148.12 124.65 148.03 123.31 147.14 122.53 L 146.44 121.91 C 145.55 121.14 144.21 121.23 143.44 122.12 C 142.66 123.00 142.75 124.34 143.64 125.12 Z M 144.22 125.64 L 144.92 126.34 C 145.75 127.18 147.10 127.19 147.94 126.36 C 148.78 125.53 148.79 124.18 147.96 123.34 L 147.26 122.63 C 146.43 121.79 145.08 121.79 144.24 122.62 C 143.40 123.44 143.40 124.80 144.22 125.64 Z M 144.84 126.26 L 145.52 127.04 C 146.31 127.92 147.66 128.00 148.55 127.22 C 149.43 126.44 149.51 125.09 148.73 124.20 L 148.04 123.42 C 147.26 122.54 145.91 122.45 145.02 123.24 C 144.14 124.02 144.05 125.37 144.84 126.26 Z M 145.47 126.98 L 146.12 127.76 C 146.87 128.68 148.22 128.81 149.13 128.06 C 150.05 127.30 150.18 125.95 149.43 125.04 L 148.78 124.26 C 148.03 123.34 146.68 123.21 145.77 123.96 C 144.85 124.72 144.72 126.07 145.47 126.98 Z M 146.08 127.72 L 146.71 128.52 C 147.43 129.45 148.78 129.62 149.71 128.89 C 150.65 128.17 150.81 126.82 150.09 125.89 L 149.46 125.09 C 148.74 124.15 147.39 123.99 146.46 124.71 C 145.52 125.44 145.36 126.78 146.08 127.72 Z M 146.66 128.46 L 147.29 129.32 C 147.98 130.28 149.32 130.49 150.27 129.80 C 151.23 129.10 151.45 127.77 150.75 126.81 L 150.13 125.95 C 149.44 124.99 148.10 124.78 147.14 125.47 C 146.18 126.16 145.97 127.50 146.66 128.46 Z M 147.24 129.23 L 147.77 130.05 C 148.42 131.03 149.74 131.30 150.72 130.66 C 151.71 130.01 151.98 128.69 151.33 127.71 L 150.80 126.89 C 150.15 125.91 148.83 125.64 147.85 126.28 C 146.87 126.93 146.59 128.25 147.24 129.23 Z M 147.73 129.95 L 148.21 130.76 C 148.80 131.77 150.10 132.11 151.11 131.51 C 152.11 130.92 152.45 129.62 151.86 128.61 L 151.38 127.80 C 150.79 126.79 149.49 126.46 148.48 127.05 C 147.47 127.65 147.14 128.94 147.73 129.95 Z M 148.16 130.64 L 148.61 131.52 C 149.14 132.55 150.40 132.96 151.44 132.43 C 152.47 131.90 152.88 130.64 152.35 129.61 L 151.90 128.73 C 151.37 127.70 150.11 127.29 149.08 127.82 C 148.05 128.35 147.64 129.61 148.16 130.64 Z M 148.58 131.40 L 148.99 132.34 C 149.45 133.39 150.67 133.87 151.72 133.41 C 152.77 132.95 153.25 131.72 152.79 130.68 L 152.38 129.73 C 151.92 128.68 150.70 128.21 149.65 128.67 C 148.60 129.12 148.12 130.35 148.58 131.40 Z M 148.98 132.23 L 149.34 133.19 C 149.74 134.25 150.92 134.78 151.98 134.39 C 153.04 133.99 153.57 132.80 153.17 131.74 L 152.81 130.78 C 152.41 129.72 151.23 129.19 150.17 129.59 C 149.11 129.99 148.58 131.17 148.98 132.23 Z M 149.33 133.06 L 149.62 134.02 C 149.94 135.08 151.07 135.68 152.14 135.36 C 153.20 135.03 153.80 133.90 153.48 132.84 L 153.19 131.88 C 152.86 130.81 151.73 130.21 150.67 130.54 C 149.60 130.86 149.00 131.99 149.33 133.06 Z M 149.63 133.81 L 149.82 134.80 C 150.03 135.87 151.06 136.56 152.12 136.35 C 153.18 136.14 153.88 135.11 153.67 134.05 L 153.47 133.05 C 153.26 131.99 152.23 131.30 151.17 131.50 C 150.11 131.71 149.42 132.74 149.63 133.81 Z M 149.87 134.68 L 149.94 135.20 C 150.07 136.24 151.03 136.96 152.06 136.83 C 153.10 136.69 153.83 135.73 153.69 134.70 L 153.62 134.18 C 153.49 133.14 152.53 132.41 151.49 132.55 C 150.46 132.68 149.73 133.64 149.87 134.68 Z"
      fill="black"
      fill-rule="nonzero" /><path d="M 152.47 122.13 L 152.68 123.03 C 152.93 124.11 154.02 124.79 155.10 124.54 C 156.19 124.29 156.87 123.20 156.62 122.11 L 156.41 121.22 C 156.16 120.13 155.07 119.46 153.99 119.71 C 152.90 119.96 152.22 121.05 152.47 122.13 Z M 152.59 123.11 L 152.87 124.15 C 153.17 125.29 154.33 125.96 155.47 125.66 C 156.60 125.36 157.28 124.20 156.98 123.06 L 156.70 122.03 C 156.40 120.89 155.24 120.22 154.10 120.52 C 152.97 120.82 152.29 121.98 152.59 123.11 Z M 152.84 124.23 L 153.12 125.17 C 153.46 126.32 154.68 126.98 155.83 126.63 C 156.98 126.28 157.64 125.07 157.29 123.92 L 157.01 122.98 C 156.66 121.83 155.45 121.17 154.30 121.52 C 153.14 121.87 152.49 123.08 152.84 124.23 Z M 153.12 125.20 L 153.43 126.18 C 153.80 127.33 155.02 127.97 156.17 127.61 C 157.32 127.25 157.96 126.02 157.59 124.87 L 157.29 123.89 C 156.92 122.74 155.70 122.10 154.55 122.46 C 153.40 122.83 152.76 124.05 153.12 125.20 Z M 153.44 126.18 L 153.75 127.15 C 154.11 128.30 155.33 128.94 156.47 128.58 C 157.61 128.22 158.25 127.00 157.89 125.86 L 157.59 124.88 C 157.23 123.74 156.01 123.10 154.87 123.46 C 153.72 123.82 153.08 125.03 153.44 126.18 Z M 153.80 127.11 L 154.10 128.12 C 154.43 129.23 155.61 129.87 156.73 129.53 C 157.85 129.19 158.48 128.02 158.15 126.90 L 157.85 125.90 C 157.51 124.78 156.33 124.14 155.21 124.48 C 154.09 124.82 153.46 126.00 153.80 127.11 Z M 154.19 128.07 L 154.45 128.98 C 154.76 130.05 155.89 130.66 156.96 130.35 C 158.02 130.03 158.64 128.91 158.32 127.84 L 158.06 126.94 C 157.74 125.87 156.62 125.26 155.55 125.57 C 154.48 125.88 153.87 127.01 154.19 128.07 Z M 154.53 128.96 L 154.82 129.91 C 155.12 130.94 156.20 131.52 157.22 131.22 C 158.25 130.91 158.83 129.84 158.52 128.81 L 158.24 127.86 C 157.94 126.83 156.86 126.25 155.84 126.56 C 154.81 126.86 154.23 127.94 154.53 128.96 Z M 154.88 129.90 L 155.17 130.86 C 155.47 131.84 156.51 132.40 157.50 132.10 C 158.49 131.81 159.04 130.76 158.75 129.78 L 158.46 128.82 C 158.16 127.84 157.12 127.28 156.13 127.58 C 155.14 127.87 154.58 128.92 154.88 129.90 Z M 155.21 130.85 L 155.27 131.05 C 155.56 132.01 156.58 132.56 157.55 132.27 C 158.52 131.97 159.06 130.95 158.77 129.99 L 158.71 129.79 C 158.41 128.82 157.39 128.28 156.43 128.57 C 155.46 128.86 154.92 129.88 155.21 130.85 Z"
      fill="black"
      fill-rule="nonzero" /><path d="M 165.18 119.30 L 165.55 120.17 C 165.99 121.19 167.17 121.66 168.20 121.23 C 169.22 120.79 169.69 119.60 169.25 118.58 L 168.88 117.71 C 168.44 116.69 167.26 116.22 166.23 116.66 C 165.21 117.10 164.74 118.28 165.18 119.30 Z M 165.33 119.84 L 165.55 120.83 C 165.80 121.98 166.94 122.70 168.08 122.45 C 169.23 122.19 169.95 121.06 169.70 119.92 L 169.47 118.92 C 169.22 117.77 168.09 117.05 166.94 117.30 C 165.80 117.56 165.08 118.69 165.33 119.84 Z M 165.46 120.45 L 165.50 121.45 C 165.54 122.64 166.55 123.57 167.74 123.53 C 168.93 123.49 169.86 122.48 169.82 121.29 L 169.78 120.29 C 169.74 119.10 168.74 118.17 167.54 118.21 C 166.35 118.26 165.42 119.26 165.46 120.45 Z M 165.52 121.16 L 165.42 122.18 C 165.30 123.36 166.16 124.42 167.34 124.53 C 168.52 124.65 169.58 123.79 169.70 122.61 L 169.80 121.59 C 169.92 120.40 169.06 119.35 167.87 119.23 C 166.69 119.11 165.64 119.98 165.52 121.16 Z M 165.52 121.89 L 165.28 122.84 C 165.00 123.96 165.69 125.10 166.81 125.38 C 167.94 125.66 169.08 124.98 169.36 123.85 L 169.59 122.90 C 169.87 121.78 169.19 120.64 168.07 120.36 C 166.94 120.08 165.80 120.76 165.52 121.89 Z M 165.43 122.65 L 165.08 123.60 C 164.70 124.64 165.23 125.80 166.28 126.18 C 167.32 126.57 168.48 126.03 168.86 124.99 L 169.21 124.04 C 169.59 123.00 169.06 121.84 168.01 121.45 C 166.97 121.07 165.81 121.61 165.43 122.65 Z M 165.18 123.54 L 164.78 124.49 C 164.36 125.48 164.83 126.62 165.82 127.04 C 166.81 127.45 167.95 126.99 168.37 126.00 L 168.77 125.05 C 169.18 124.05 168.72 122.91 167.73 122.50 C 166.73 122.08 165.59 122.55 165.18 123.54 Z M 164.84 124.47 L 164.42 125.40 C 163.99 126.36 164.43 127.49 165.39 127.91 C 166.35 128.34 167.47 127.91 167.90 126.95 L 168.31 126.02 C 168.74 125.06 168.31 123.93 167.35 123.50 C 166.39 123.08 165.26 123.51 164.84 124.47 Z M 164.47 125.38 L 164.04 126.30 C 163.60 127.23 164.00 128.34 164.93 128.78 C 165.86 129.22 166.97 128.82 167.41 127.89 L 167.84 126.97 C 168.28 126.04 167.88 124.93 166.95 124.49 C 166.02 124.05 164.91 124.45 164.47 125.38 Z M 164.10 126.25 L 163.65 127.12 C 163.18 128.02 163.53 129.12 164.43 129.59 C 165.33 130.06 166.43 129.70 166.90 128.81 L 167.35 127.94 C 167.82 127.04 167.47 125.93 166.57 125.47 C 165.67 125.00 164.56 125.35 164.10 126.25 Z M 163.71 127.06 L 163.23 127.88 C 162.73 128.75 163.02 129.86 163.89 130.36 C 164.75 130.86 165.86 130.57 166.36 129.70 L 166.84 128.87 C 167.34 128.01 167.05 126.90 166.18 126.40 C 165.32 125.90 164.21 126.19 163.71 127.06 Z M 163.27 127.83 L 162.73 128.69 C 162.20 129.53 162.46 130.64 163.30 131.17 C 164.14 131.70 165.26 131.45 165.79 130.60 L 166.32 129.75 C 166.85 128.91 166.60 127.79 165.75 127.27 C 164.91 126.74 163.80 126.99 163.27 127.83 Z M 162.76 128.65 L 162.21 129.47 C 161.67 130.30 161.90 131.42 162.73 131.97 C 163.56 132.52 164.67 132.29 165.22 131.46 L 165.76 130.64 C 166.31 129.81 166.08 128.69 165.25 128.14 C 164.42 127.59 163.30 127.82 162.76 128.65 Z M 162.24 129.44 L 161.66 130.27 C 161.10 131.09 161.30 132.21 162.12 132.77 C 162.94 133.34 164.06 133.14 164.63 132.32 L 165.20 131.49 C 165.76 130.67 165.56 129.55 164.74 128.99 C 163.92 128.42 162.80 128.62 162.24 129.44 Z M 161.68 130.24 L 161.10 131.06 C 160.52 131.86 160.71 132.99 161.51 133.57 C 162.32 134.15 163.44 133.96 164.02 133.15 L 164.61 132.34 C 165.19 131.54 165.00 130.41 164.19 129.83 C 163.39 129.25 162.26 129.44 161.68 130.24 Z M 161.11 131.05 L 160.77 131.51 C 160.18 132.32 160.36 133.44 161.17 134.03 C 161.97 134.61 163.10 134.43 163.68 133.63 L 164.02 133.16 C 164.60 132.36 164.42 131.23 163.62 130.65 C 162.82 130.07 161.69 130.24 161.11 131.05 Z"
      fill="black"
      fill-rule="nonzero" /><path d="M 157.67 135.68 L 156.86 136.25 C 155.93 136.90 155.70 138.19 156.35 139.13 C 157.01 140.07 158.30 140.30 159.23 139.64 L 160.04 139.08 C 160.98 138.42 161.21 137.13 160.56 136.19 C 159.90 135.26 158.61 135.03 157.67 135.68 Z M 156.82 136.26 L 156.01 136.85 C 155.08 137.53 154.87 138.83 155.55 139.76 C 156.23 140.69 157.53 140.90 158.46 140.22 L 159.27 139.63 C 160.20 138.95 160.41 137.65 159.73 136.72 C 159.06 135.79 157.75 135.58 156.82 136.26 Z M 155.96 136.90 L 155.20 137.49 C 154.29 138.19 154.13 139.50 154.83 140.40 C 155.53 141.30 156.83 141.47 157.74 140.77 L 158.50 140.17 C 159.41 139.47 159.57 138.17 158.87 137.27 C 158.17 136.36 156.87 136.20 155.96 136.90 Z M 155.19 137.54 L 154.41 138.17 C 153.53 138.87 153.39 140.16 154.09 141.03 C 154.79 141.91 156.07 142.05 156.95 141.35 L 157.74 140.72 C 158.62 140.02 158.76 138.74 158.06 137.86 C 157.35 136.98 156.07 136.84 155.19 137.54 Z M 154.43 138.19 L 153.61 138.84 C 152.74 139.53 152.60 140.79 153.29 141.66 C 153.98 142.53 155.24 142.67 156.11 141.98 L 156.93 141.33 C 157.80 140.64 157.94 139.38 157.25 138.51 C 156.56 137.64 155.30 137.50 154.43 138.19 Z M 153.63 138.85 L 152.82 139.48 C 151.95 140.16 151.80 141.41 152.48 142.28 C 153.16 143.15 154.42 143.30 155.28 142.62 L 156.09 141.98 C 156.96 141.30 157.11 140.05 156.43 139.18 C 155.75 138.32 154.49 138.16 153.63 138.85 Z M 152.82 139.49 L 152.05 140.10 C 151.19 140.78 151.05 142.03 151.73 142.89 C 152.41 143.75 153.66 143.89 154.52 143.21 L 155.28 142.61 C 156.14 141.92 156.29 140.67 155.61 139.82 C 154.92 138.96 153.68 138.81 152.82 139.49 Z M 152.03 140.12 L 151.24 140.77 C 150.39 141.46 150.26 142.71 150.95 143.56 C 151.65 144.41 152.89 144.53 153.74 143.84 L 154.54 143.19 C 155.39 142.50 155.52 141.25 154.82 140.40 C 154.13 139.55 152.88 139.42 152.03 140.12 Z M 151.24 140.76 L 150.51 141.36 C 149.66 142.05 149.53 143.30 150.22 144.15 C 150.91 145.00 152.16 145.13 153.01 144.44 L 153.74 143.84 C 154.59 143.15 154.72 141.90 154.03 141.05 C 153.34 140.20 152.09 140.07 151.24 140.76 Z M 150.52 141.35 L 149.73 141.98 C 148.88 142.66 148.74 143.91 149.42 144.77 C 150.11 145.62 151.36 145.76 152.21 145.08 L 153.00 144.45 C 153.85 143.77 153.99 142.52 153.31 141.66 C 152.62 140.80 151.37 140.66 150.52 141.35 Z M 149.71 141.99 L 148.94 142.62 C 148.09 143.31 147.97 144.57 148.67 145.42 C 149.36 146.27 150.62 146.39 151.47 145.69 L 152.24 145.07 C 153.09 144.37 153.21 143.11 152.51 142.26 C 151.82 141.41 150.56 141.29 149.71 141.99 Z M 148.93 142.61 L 148.17 143.24 C 147.32 143.94 147.20 145.20 147.90 146.06 C 148.60 146.91 149.86 147.03 150.72 146.33 L 151.48 145.70 C 152.33 145.00 152.45 143.73 151.75 142.88 C 151.05 142.03 149.79 141.91 148.93 142.61 Z M 148.17 143.23 L 147.41 143.84 C 146.55 144.55 146.43 145.82 147.13 146.68 C 147.84 147.54 149.10 147.66 149.96 146.96 L 150.72 146.34 C 151.58 145.64 151.70 144.37 151.00 143.51 C 150.30 142.65 149.03 142.52 148.17 143.23 Z M 147.38 143.86 L 146.60 144.52 C 145.75 145.24 145.64 146.51 146.36 147.36 C 147.09 148.22 148.36 148.32 149.21 147.60 L 149.99 146.95 C 150.85 146.23 150.95 144.95 150.23 144.10 C 149.51 143.24 148.24 143.14 147.38 143.86 Z M 146.56 144.55 L 145.81 145.22 C 144.97 145.97 144.90 147.25 145.64 148.08 C 146.39 148.92 147.67 148.99 148.51 148.24 L 149.26 147.57 C 150.09 146.83 150.17 145.54 149.42 144.71 C 148.68 143.87 147.39 143.80 146.56 144.55 Z M 145.74 145.28 L 144.94 146.05 C 144.14 146.84 144.12 148.12 144.91 148.93 C 145.69 149.73 146.98 149.75 147.78 148.96 L 148.58 148.19 C 149.38 147.40 149.40 146.11 148.61 145.31 C 147.83 144.51 146.54 144.49 145.74 145.28 Z M 144.60 146.45 L 144.12 147.26 C 143.54 148.24 143.85 149.50 144.82 150.08 C 145.80 150.66 147.06 150.34 147.64 149.37 L 148.12 148.56 C 148.70 147.59 148.39 146.33 147.42 145.75 C 146.44 145.17 145.19 145.48 144.60 146.45 Z M 144.73 150.04 L 145.25 150.39 C 146.20 151.02 147.49 150.77 148.12 149.82 C 148.76 148.87 148.50 147.58 147.55 146.95 L 147.03 146.60 C 146.08 145.96 144.79 146.22 144.16 147.17 C 143.52 148.12 143.78 149.40 144.73 150.04 Z M 146.29 150.75 L 147.35 150.81 C 148.50 150.87 149.48 149.99 149.55 148.84 C 149.61 147.70 148.73 146.71 147.58 146.65 L 146.52 146.59 C 145.37 146.52 144.39 147.40 144.32 148.55 C 144.26 149.70 145.14 150.68 146.29 150.75 Z M 147.65 150.81 L 148.77 150.71 C 149.92 150.61 150.77 149.59 150.67 148.44 C 150.56 147.29 149.55 146.44 148.40 146.54 L 147.28 146.64 C 146.13 146.75 145.28 147.76 145.38 148.91 C 145.48 150.07 146.50 150.92 147.65 150.81 Z M 148.97 150.69 L 149.91 150.51 C 151.05 150.29 151.80 149.19 151.58 148.06 C 151.36 146.92 150.26 146.17 149.13 146.39 L 148.19 146.57 C 147.05 146.79 146.31 147.88 146.52 149.02 C 146.74 150.16 147.84 150.90 148.97 150.69 Z M 150.05 150.47 L 151.03 150.22 C 152.15 149.92 152.82 148.78 152.52 147.66 C 152.23 146.54 151.09 145.87 149.97 146.17 L 148.99 146.42 C 147.87 146.72 147.20 147.86 147.50 148.98 C 147.79 150.10 148.93 150.77 150.05 150.47 Z M 151.09 150.20 L 152.02 149.92 C 153.13 149.59 153.76 148.43 153.43 147.32 C 153.11 146.22 151.95 145.59 150.84 145.91 L 149.91 146.19 C 148.80 146.52 148.17 147.68 148.49 148.78 C 148.82 149.89 149.98 150.52 151.09 150.20 Z M 152.05 149.91 L 152.94 149.64 C 154.04 149.30 154.66 148.13 154.32 147.03 C 153.98 145.92 152.81 145.31 151.71 145.65 L 150.82 145.92 C 149.71 146.26 149.10 147.43 149.44 148.53 C 149.78 149.63 150.94 150.25 152.05 149.91 Z M 152.96 149.63 L 153.92 149.32 C 155.02 148.97 155.63 147.80 155.28 146.70 C 154.93 145.61 153.76 145.00 152.66 145.35 L 151.70 145.65 C 150.60 146.00 149.99 147.17 150.34 148.27 C 150.69 149.37 151.86 149.98 152.96 149.63 Z M 153.94 149.31 L 154.97 148.98 C 156.06 148.62 156.66 147.45 156.31 146.36 C 155.95 145.26 154.78 144.66 153.68 145.02 L 152.65 145.35 C 151.56 145.71 150.96 146.88 151.32 147.98 C 151.67 149.07 152.84 149.67 153.94 149.31 Z M 154.98 148.97 L 156.01 148.63 C 157.10 148.27 157.69 147.10 157.33 146.01 C 156.97 144.92 155.79 144.33 154.70 144.69 L 153.67 145.03 C 152.58 145.39 151.99 146.56 152.35 147.65 C 152.71 148.74 153.89 149.33 154.98 148.97 Z M 156.01 148.63 L 157.03 148.29 C 158.11 147.92 158.70 146.75 158.33 145.66 C 157.97 144.57 156.79 143.99 155.71 144.35 L 154.69 144.69 C 153.61 145.06 153.02 146.23 153.39 147.32 C 153.75 148.40 154.93 148.99 156.01 148.63 Z M 157.03 148.28 L 158.00 147.95 C 159.09 147.58 159.67 146.41 159.30 145.33 C 158.93 144.24 157.76 143.66 156.67 144.03 L 155.70 144.36 C 154.62 144.72 154.04 145.90 154.41 146.98 C 154.77 148.07 155.95 148.65 157.03 148.28 Z M 158.01 147.95 L 158.88 147.65 C 159.96 147.28 160.54 146.10 160.17 145.02 C 159.80 143.94 158.63 143.37 157.55 143.73 L 156.67 144.03 C 155.59 144.40 155.01 145.58 155.38 146.66 C 155.75 147.74 156.93 148.31 158.01 147.95 Z M 158.88 147.64 L 159.91 147.29 C 160.98 146.92 161.56 145.75 161.19 144.67 C 160.82 143.60 159.65 143.02 158.57 143.39 L 157.55 143.74 C 156.47 144.11 155.90 145.28 156.27 146.36 C 156.63 147.44 157.81 148.01 158.88 147.64 Z M 159.88 147.30 L 160.80 146.99 C 161.88 146.64 162.47 145.48 162.12 144.40 C 161.77 143.32 160.60 142.73 159.52 143.08 L 158.60 143.39 C 157.52 143.74 156.93 144.90 157.28 145.98 C 157.64 147.06 158.80 147.65 159.88 147.30 Z M 160.70 147.02 L 161.63 146.77 C 162.72 146.47 163.37 145.35 163.07 144.25 C 162.77 143.16 161.65 142.51 160.55 142.81 L 159.63 143.06 C 158.53 143.36 157.89 144.48 158.18 145.58 C 158.48 146.67 159.61 147.31 160.70 147.02 Z M 161.28 146.82 L 162.28 146.73 C 163.40 146.63 164.23 145.63 164.12 144.51 C 164.02 143.38 163.02 142.55 161.90 142.66 L 160.90 142.75 C 159.78 142.86 158.95 143.85 159.05 144.98 C 159.16 146.10 160.15 146.93 161.28 146.82 Z M 160.19 143.94 L 160.00 144.43 C 159.58 145.47 160.09 146.66 161.14 147.08 C 162.18 147.50 163.37 146.99 163.78 145.94 L 163.98 145.45 C 164.40 144.41 163.89 143.22 162.84 142.80 C 161.80 142.38 160.61 142.89 160.19 143.94 Z M 160.55 143.66 L 159.63 144.48 C 158.78 145.22 158.70 146.50 159.44 147.34 C 160.19 148.18 161.47 148.26 162.31 147.52 L 163.23 146.71 C 164.07 145.97 164.16 144.69 163.41 143.84 C 162.67 143.00 161.39 142.92 160.55 143.66 Z M 159.70 144.42 L 158.98 145.00 C 158.11 145.70 157.97 146.97 158.67 147.84 C 159.37 148.71 160.64 148.85 161.51 148.15 L 162.23 147.58 C 163.10 146.88 163.24 145.60 162.54 144.73 C 161.84 143.86 160.57 143.72 159.70 144.42 Z M 159.00 144.99 L 158.21 145.61 C 157.34 146.30 157.18 147.57 157.87 148.44 C 158.56 149.32 159.83 149.47 160.70 148.78 L 161.49 148.16 C 162.37 147.48 162.52 146.21 161.83 145.33 C 161.15 144.46 159.88 144.30 159.00 144.99 Z M 158.22 145.61 L 157.40 146.26 C 156.52 146.94 156.37 148.20 157.05 149.08 C 157.74 149.95 159.00 150.11 159.87 149.42 L 160.69 148.78 C 161.57 148.10 161.72 146.84 161.04 145.96 C 160.36 145.09 159.09 144.93 158.22 145.61 Z M 157.40 146.26 L 156.61 146.88 C 155.74 147.56 155.59 148.82 156.27 149.69 C 156.95 150.56 158.21 150.71 159.08 150.03 L 159.87 149.42 C 160.74 148.73 160.89 147.48 160.21 146.61 C 159.53 145.73 158.27 145.58 157.40 146.26 Z M 156.62 146.88 L 155.81 147.52 C 154.94 148.20 154.78 149.45 155.46 150.32 C 156.14 151.19 157.39 151.34 158.26 150.66 L 159.07 150.03 C 159.94 149.35 160.10 148.10 159.42 147.23 C 158.74 146.36 157.49 146.20 156.62 146.88 Z M 155.81 147.52 L 155.02 148.13 C 154.16 148.81 154.00 150.05 154.67 150.92 C 155.34 151.79 156.59 151.95 157.46 151.28 L 158.25 150.66 C 159.12 149.99 159.28 148.74 158.60 147.87 C 157.93 147.01 156.68 146.85 155.81 147.52 Z M 155.04 148.13 L 154.25 148.74 C 153.38 149.41 153.21 150.65 153.88 151.52 C 154.54 152.38 155.79 152.55 156.65 151.88 L 157.45 151.27 C 158.31 150.61 158.48 149.37 157.81 148.50 C 157.15 147.63 155.90 147.47 155.04 148.13 Z M 154.26 148.74 L 153.49 149.33 C 152.62 149.99 152.45 151.22 153.11 152.09 C 153.77 152.95 155.00 153.12 155.87 152.47 L 156.64 151.88 C 157.50 151.22 157.67 149.99 157.02 149.12 C 156.36 148.26 155.13 148.09 154.26 148.74 Z M 153.50 149.34 L 152.68 149.96 C 151.82 150.61 151.64 151.83 152.30 152.70 C 152.95 153.56 154.17 153.73 155.04 153.08 L 155.86 152.46 C 156.72 151.81 156.89 150.58 156.24 149.72 C 155.59 148.86 154.36 148.68 153.50 149.34 Z M 152.68 149.96 L 151.89 150.56 C 151.03 151.21 150.86 152.43 151.51 153.29 C 152.16 154.15 153.38 154.32 154.24 153.67 L 155.03 153.07 C 155.89 152.42 156.06 151.20 155.41 150.34 C 154.76 149.48 153.54 149.31 152.68 149.96 Z M 151.89 150.57 L 151.06 151.19 C 150.21 151.84 150.04 153.06 150.69 153.92 C 151.34 154.78 152.56 154.94 153.42 154.29 L 154.24 153.67 C 155.10 153.02 155.26 151.80 154.61 150.94 C 153.96 150.08 152.74 149.92 151.89 150.57 Z M 151.06 151.20 L 150.26 151.81 C 149.41 152.46 149.25 153.68 149.90 154.54 C 150.55 155.39 151.77 155.55 152.62 154.90 L 153.42 154.29 C 154.27 153.63 154.43 152.41 153.78 151.56 C 153.13 150.71 151.91 150.55 151.06 151.20 Z M 150.25 151.82 L 149.41 152.47 C 148.56 153.13 148.41 154.35 149.07 155.20 C 149.73 156.05 150.95 156.20 151.80 155.54 L 152.64 154.89 C 153.48 154.23 153.63 153.01 152.97 152.16 C 152.31 151.31 151.09 151.16 150.25 151.82 Z M 149.38 152.48 L 148.58 153.13 C 147.74 153.80 147.61 155.03 148.28 155.87 C 148.95 156.71 150.18 156.85 151.02 156.17 L 151.83 155.53 C 152.67 154.85 152.80 153.62 152.13 152.78 C 151.45 151.94 150.22 151.81 149.38 152.48 Z M 148.55 153.14 L 147.87 153.70 C 147.03 154.39 146.92 155.63 147.61 156.46 C 148.30 157.30 149.54 157.42 150.37 156.73 L 151.05 156.16 C 151.89 155.47 152.01 154.24 151.31 153.40 C 150.62 152.57 149.39 152.45 148.55 153.14 Z M 147.84 153.73 L 147.07 154.39 C 146.25 155.10 146.16 156.34 146.87 157.16 C 147.58 157.98 148.82 158.07 149.64 157.36 L 150.41 156.70 C 151.23 155.99 151.32 154.75 150.61 153.93 C 149.90 153.11 148.66 153.02 147.84 153.73 Z M 146.95 154.51 L 146.27 155.21 C 145.51 155.98 145.53 157.22 146.30 157.98 C 147.08 158.73 148.32 158.72 149.07 157.94 L 149.76 157.24 C 150.51 156.47 150.50 155.23 149.72 154.47 C 148.95 153.72 147.71 153.73 146.95 154.51 Z M 146.02 155.49 L 145.40 156.42 C 144.80 157.33 145.05 158.56 145.97 159.16 C 146.88 159.76 148.11 159.51 148.71 158.60 L 149.32 157.67 C 149.93 156.75 149.67 155.53 148.76 154.92 C 147.85 154.32 146.62 154.57 146.02 155.49 Z M 145.03 157.72 L 145.11 158.44 C 145.23 159.56 146.23 160.37 147.35 160.25 C 148.47 160.13 149.28 159.13 149.16 158.01 L 149.08 157.29 C 148.96 156.17 147.96 155.36 146.84 155.48 C 145.72 155.60 144.91 156.60 145.03 157.72 Z M 146.56 160.25 L 147.56 160.53 C 148.68 160.85 149.84 160.20 150.16 159.08 C 150.48 157.96 149.83 156.80 148.71 156.48 L 147.71 156.20 C 146.59 155.88 145.42 156.53 145.10 157.65 C 144.79 158.77 145.44 159.93 146.56 160.25 Z M 148.02 160.66 L 149.00 160.71 C 150.19 160.77 151.20 159.85 151.26 158.66 C 151.32 157.47 150.40 156.46 149.22 156.40 L 148.24 156.35 C 147.05 156.29 146.04 157.21 145.98 158.40 C 145.92 159.59 146.83 160.60 148.02 160.66 Z M 149.21 160.72 L 150.25 160.67 C 151.44 160.61 152.37 159.60 152.31 158.40 C 152.25 157.21 151.24 156.29 150.04 156.34 L 149.01 156.39 C 147.81 156.45 146.89 157.46 146.95 158.66 C 147.00 159.85 148.02 160.77 149.21 160.72 Z M 150.42 160.66 L 151.38 160.53 C 152.57 160.38 153.41 159.29 153.26 158.10 C 153.10 156.92 152.02 156.08 150.83 156.23 L 149.87 156.35 C 148.68 156.51 147.84 157.60 147.99 158.78 C 148.15 159.97 149.24 160.81 150.42 160.66 Z M 151.53 160.51 L 152.53 160.31 C 153.71 160.07 154.47 158.93 154.23 157.75 C 154.00 156.58 152.85 155.82 151.68 156.05 L 150.68 156.25 C 149.51 156.49 148.74 157.63 148.98 158.81 C 149.22 159.98 150.36 160.74 151.53 160.51 Z M 152.67 160.27 L 153.64 160.01 C 154.79 159.70 155.48 158.51 155.16 157.35 C 154.85 156.20 153.66 155.52 152.50 155.83 L 151.54 156.09 C 150.38 156.40 149.70 157.59 150.01 158.75 C 150.33 159.90 151.52 160.59 152.67 160.27 Z M 153.74 159.98 L 154.69 159.67 C 155.83 159.30 156.45 158.08 156.08 156.94 C 155.71 155.80 154.49 155.18 153.35 155.55 L 152.40 155.86 C 151.26 156.23 150.64 157.45 151.01 158.59 C 151.38 159.73 152.60 160.35 153.74 159.98 Z M 154.74 159.65 L 155.69 159.31 C 156.82 158.91 157.40 157.67 157.00 156.55 C 156.60 155.42 155.37 154.84 154.24 155.24 L 153.29 155.58 C 152.17 155.98 151.58 157.21 151.98 158.34 C 152.38 159.46 153.62 160.05 154.74 159.65 Z M 155.71 159.29 L 156.64 158.95 C 157.76 158.54 158.33 157.30 157.92 156.19 C 157.50 155.07 156.27 154.50 155.15 154.91 L 154.22 155.25 C 153.11 155.66 152.54 156.90 152.95 158.02 C 153.36 159.13 154.60 159.70 155.71 159.29 Z M 156.65 158.94 L 157.60 158.58 C 158.70 158.16 159.26 156.93 158.85 155.82 C 158.43 154.71 157.19 154.15 156.09 154.57 L 155.14 154.93 C 154.03 155.34 153.47 156.58 153.89 157.69 C 154.31 158.79 155.54 159.35 156.65 158.94 Z M 157.60 158.57 L 158.49 158.23 C 159.59 157.81 160.14 156.58 159.73 155.48 C 159.31 154.38 158.08 153.83 156.98 154.24 L 156.08 154.58 C 154.98 155.00 154.43 156.23 154.85 157.33 C 155.27 158.43 156.50 158.98 157.60 158.57 Z M 158.50 158.20 L 159.40 157.85 C 160.49 157.43 161.02 156.20 160.60 155.12 C 160.18 154.03 158.95 153.49 157.86 153.92 L 156.97 154.27 C 155.88 154.69 155.34 155.92 155.77 157.00 C 156.19 158.09 157.42 158.63 158.50 158.20 Z M 159.42 157.83 L 160.40 157.43 C 161.47 156.99 161.98 155.77 161.55 154.70 C 161.11 153.63 159.89 153.11 158.82 153.55 L 157.84 153.94 C 156.77 154.38 156.25 155.60 156.69 156.67 C 157.13 157.75 158.35 158.26 159.42 157.83 Z M 160.42 157.40 L 161.36 157.00 C 162.41 156.55 162.91 155.33 162.46 154.28 C 162.01 153.22 160.79 152.73 159.73 153.18 L 158.79 153.58 C 157.74 154.03 157.25 155.24 157.69 156.30 C 158.14 157.36 159.36 157.85 160.42 157.40 Z M 161.37 156.98 L 162.31 156.57 C 163.35 156.11 163.82 154.90 163.37 153.86 C 162.92 152.82 161.70 152.34 160.66 152.79 L 159.72 153.20 C 158.68 153.66 158.20 154.87 158.66 155.91 C 159.11 156.95 160.33 157.43 161.37 156.98 Z M 162.30 156.55 L 163.24 156.14 C 164.27 155.69 164.74 154.48 164.29 153.45 C 163.83 152.42 162.63 151.95 161.60 152.40 L 160.66 152.81 C 159.63 153.27 159.16 154.47 159.61 155.50 C 160.07 156.53 161.27 157.00 162.30 156.55 Z M 163.22 156.12 L 164.13 155.73 C 165.16 155.28 165.63 154.09 165.18 153.07 C 164.74 152.05 163.54 151.58 162.52 152.02 L 161.61 152.42 C 160.59 152.86 160.12 154.05 160.57 155.08 C 161.01 156.10 162.20 156.57 163.22 156.12 Z M 164.10 155.70 L 165.09 155.28 C 166.10 154.86 166.57 153.69 166.14 152.68 C 165.72 151.67 164.55 151.20 163.54 151.63 L 162.55 152.05 C 161.54 152.47 161.07 153.64 161.50 154.65 C 161.93 155.66 163.09 156.13 164.10 155.70 Z M 165.05 155.25 L 165.95 154.88 C 166.94 154.47 167.41 153.34 167.00 152.35 C 166.59 151.36 165.46 150.89 164.47 151.30 L 163.58 151.67 C 162.59 152.07 162.12 153.21 162.52 154.19 C 162.93 155.18 164.06 155.65 165.05 155.25 Z M 165.92 154.84 L 166.57 154.58 C 167.54 154.19 168.00 153.08 167.61 152.11 C 167.21 151.14 166.11 150.68 165.14 151.07 L 164.50 151.33 C 163.53 151.73 163.06 152.83 163.45 153.80 C 163.85 154.77 164.95 155.24 165.92 154.84 Z"
      fill="black"
      fill-rule="nonzero" /><path d="M 142.19 167.88 L 141.48 168.70 C 140.76 169.54 140.85 170.81 141.69 171.53 C 142.53 172.26 143.79 172.16 144.52 171.32 L 145.22 170.50 C 145.95 169.66 145.85 168.40 145.02 167.68 C 144.18 166.95 142.91 167.05 142.19 167.88 Z M 141.71 171.70 L 142.18 172.05 C 143.10 172.76 144.43 172.58 145.14 171.65 C 145.85 170.73 145.68 169.40 144.75 168.69 L 144.28 168.33 C 143.36 167.62 142.03 167.80 141.32 168.73 C 140.61 169.66 140.78 170.99 141.71 171.70 Z M 143.45 172.54 L 144.63 172.55 C 145.83 172.55 146.81 171.58 146.81 170.38 C 146.82 169.18 145.85 168.20 144.65 168.20 L 143.47 168.20 C 142.27 168.19 141.29 169.16 141.29 170.36 C 141.28 171.56 142.25 172.54 143.45 172.54 Z M 144.92 172.55 L 145.89 172.42 C 147.09 172.26 147.94 171.16 147.78 169.96 C 147.62 168.76 146.52 167.91 145.32 168.07 L 144.35 168.20 C 143.15 168.36 142.31 169.46 142.46 170.66 C 142.62 171.86 143.72 172.70 144.92 172.55 Z M 146.08 172.39 L 147.07 172.17 C 148.25 171.91 149.00 170.74 148.74 169.56 C 148.48 168.37 147.31 167.63 146.13 167.89 L 145.13 168.10 C 143.95 168.36 143.20 169.53 143.46 170.72 C 143.72 171.90 144.89 172.65 146.08 172.39 Z M 147.19 172.14 L 148.12 171.88 C 149.28 171.55 149.96 170.34 149.63 169.17 C 149.30 168.01 148.09 167.33 146.93 167.66 L 146.00 167.92 C 144.84 168.25 144.16 169.46 144.49 170.62 C 144.82 171.79 146.03 172.47 147.19 172.14 Z M 148.19 171.85 L 149.15 171.54 C 150.30 171.17 150.93 169.94 150.56 168.79 C 150.19 167.64 148.96 167.00 147.81 167.38 L 146.85 167.68 C 145.70 168.05 145.07 169.29 145.44 170.44 C 145.81 171.59 147.04 172.22 148.19 171.85 Z M 149.20 171.52 L 150.20 171.17 C 151.34 170.77 151.93 169.52 151.53 168.39 C 151.13 167.25 149.89 166.65 148.75 167.05 L 147.76 167.40 C 146.62 167.80 146.02 169.04 146.42 170.18 C 146.82 171.32 148.07 171.92 149.20 171.52 Z M 150.23 171.15 L 151.20 170.79 C 152.33 170.37 152.90 169.12 152.49 167.99 C 152.07 166.87 150.82 166.29 149.69 166.71 L 148.72 167.07 C 147.59 167.49 147.02 168.74 147.43 169.87 C 147.85 170.99 149.10 171.57 150.23 171.15 Z M 151.22 170.77 L 152.14 170.41 C 153.26 169.99 153.81 168.74 153.39 167.62 C 152.96 166.51 151.71 165.95 150.60 166.38 L 149.68 166.73 C 148.56 167.16 148.00 168.41 148.43 169.52 C 148.86 170.64 150.10 171.19 151.22 170.77 Z M 152.14 170.38 L 153.11 170.01 C 154.21 169.58 154.75 168.34 154.33 167.25 C 153.90 166.15 152.66 165.60 151.56 166.03 L 150.60 166.41 C 149.50 166.83 148.95 168.07 149.38 169.17 C 149.81 170.27 151.04 170.81 152.14 170.38 Z M 153.10 169.96 L 153.99 169.61 C 155.06 169.19 155.59 167.99 155.18 166.91 C 154.76 165.84 153.55 165.31 152.47 165.73 L 151.58 166.08 C 150.51 166.49 149.98 167.70 150.39 168.78 C 150.81 169.85 152.02 170.38 153.10 169.96 Z M 153.96 169.57 L 154.87 169.22 C 155.92 168.82 156.44 167.64 156.04 166.59 C 155.64 165.54 154.46 165.02 153.41 165.42 L 152.50 165.77 C 151.45 166.17 150.93 167.35 151.33 168.40 C 151.73 169.45 152.91 169.98 153.96 169.57 Z M 154.87 169.19 L 155.79 168.82 C 156.82 168.42 157.33 167.26 156.93 166.23 C 156.52 165.20 155.36 164.69 154.34 165.10 L 153.41 165.46 C 152.38 165.86 151.87 167.02 152.28 168.05 C 152.68 169.08 153.84 169.59 154.87 169.19 Z M 155.82 168.78 L 156.75 168.39 C 157.75 167.97 158.22 166.82 157.80 165.82 C 157.38 164.81 156.23 164.34 155.23 164.76 L 154.31 165.14 C 153.30 165.56 152.83 166.72 153.25 167.72 C 153.67 168.72 154.82 169.19 155.82 168.78 Z M 156.73 168.36 L 157.65 167.98 C 158.64 167.57 159.11 166.44 158.70 165.45 C 158.29 164.47 157.16 163.99 156.17 164.40 L 155.25 164.78 C 154.26 165.19 153.79 166.32 154.20 167.31 C 154.61 168.30 155.74 168.77 156.73 168.36 Z M 157.61 167.97 L 158.54 167.60 C 159.52 167.22 160.01 166.12 159.62 165.14 C 159.24 164.15 158.13 163.67 157.15 164.05 L 156.22 164.42 C 155.24 164.80 154.75 165.90 155.14 166.89 C 155.52 167.87 156.62 168.35 157.61 167.97 Z M 158.54 167.58 L 159.47 167.21 C 160.44 166.82 160.91 165.73 160.53 164.77 C 160.15 163.80 159.06 163.33 158.09 163.71 L 157.16 164.08 C 156.19 164.46 155.72 165.55 156.10 166.52 C 156.48 167.48 157.57 167.96 158.54 167.58 Z M 159.49 167.17 L 160.40 166.79 C 161.35 166.40 161.80 165.32 161.41 164.37 C 161.02 163.43 159.94 162.98 158.99 163.37 L 158.08 163.74 C 157.13 164.13 156.68 165.22 157.07 166.16 C 157.46 167.11 158.54 167.56 159.49 167.17 Z M 160.41 166.77 L 161.34 166.38 C 162.27 165.98 162.70 164.91 162.31 163.97 C 161.91 163.04 160.84 162.61 159.90 163.00 L 158.98 163.39 C 158.05 163.79 157.61 164.86 158.01 165.80 C 158.40 166.73 159.48 167.16 160.41 166.77 Z M 161.34 166.36 L 162.23 165.98 C 163.16 165.58 163.59 164.51 163.19 163.59 C 162.80 162.67 161.73 162.24 160.80 162.63 L 159.90 163.02 C 158.98 163.41 158.55 164.48 158.95 165.41 C 159.34 166.33 160.41 166.76 161.34 166.36 Z M 162.24 165.96 L 163.17 165.55 C 164.09 165.15 164.51 164.09 164.11 163.17 C 163.71 162.26 162.64 161.84 161.73 162.24 L 160.80 162.65 C 159.88 163.05 159.46 164.11 159.86 165.03 C 160.26 165.94 161.33 166.36 162.24 165.96 Z M 163.20 165.54 L 164.09 165.13 C 164.99 164.72 165.39 163.65 164.98 162.75 C 164.57 161.84 163.50 161.44 162.60 161.85 L 161.71 162.26 C 160.80 162.67 160.40 163.74 160.81 164.64 C 161.22 165.55 162.29 165.95 163.20 165.54 Z M 164.10 165.13 L 164.89 164.76 C 165.80 164.34 166.19 163.27 165.77 162.37 C 165.36 161.47 164.29 161.07 163.38 161.49 L 162.59 161.86 C 161.69 162.27 161.29 163.34 161.71 164.25 C 162.12 165.15 163.19 165.54 164.10 165.13 Z"
      fill="black"
      fill-rule="nonzero" /><path d="M 156.51 158.21 L 156.47 159.20 C 156.42 160.29 157.26 161.20 158.34 161.25 C 159.42 161.30 160.34 160.46 160.39 159.38 L 160.43 158.39 C 160.48 157.30 159.64 156.39 158.56 156.34 C 157.47 156.29 156.56 157.13 156.51 158.21 Z M 156.33 159.11 L 156.24 160.11 C 156.14 161.27 157.00 162.29 158.16 162.39 C 159.32 162.49 160.34 161.63 160.44 160.47 L 160.53 159.47 C 160.63 158.31 159.77 157.29 158.61 157.19 C 157.45 157.09 156.43 157.95 156.33 159.11 Z M 156.18 159.95 L 156.02 160.97 C 155.83 162.17 156.64 163.29 157.84 163.48 C 159.03 163.66 160.16 162.85 160.34 161.65 L 160.50 160.63 C 160.69 159.44 159.88 158.32 158.68 158.13 C 157.49 157.94 156.37 158.76 156.18 159.95 Z M 156.02 160.86 L 155.82 161.82 C 155.57 163.01 156.33 164.18 157.52 164.43 C 158.71 164.68 159.88 163.92 160.13 162.73 L 160.34 161.77 C 160.59 160.58 159.83 159.41 158.64 159.16 C 157.45 158.90 156.28 159.67 156.02 160.86 Z M 155.83 161.75 L 155.59 162.74 C 155.30 163.92 156.03 165.12 157.21 165.41 C 158.40 165.70 159.59 164.97 159.88 163.78 L 160.12 162.80 C 160.41 161.61 159.69 160.42 158.50 160.13 C 157.32 159.84 156.12 160.56 155.83 161.75 Z M 155.60 162.69 L 155.35 163.62 C 155.04 164.80 155.74 166.01 156.92 166.33 C 158.10 166.64 159.32 165.94 159.63 164.76 L 159.88 163.83 C 160.19 162.65 159.49 161.43 158.30 161.12 C 157.12 160.81 155.91 161.51 155.60 162.69 Z M 155.35 163.61 L 155.10 164.56 C 154.78 165.74 155.48 166.96 156.66 167.27 C 157.84 167.59 159.06 166.89 159.37 165.71 L 159.63 164.76 C 159.95 163.58 159.25 162.37 158.07 162.05 C 156.89 161.73 155.67 162.43 155.35 163.61 Z M 155.10 164.56 L 154.83 165.54 C 154.51 166.73 155.22 167.94 156.40 168.26 C 157.58 168.58 158.79 167.87 159.11 166.69 L 159.37 165.71 C 159.69 164.53 158.99 163.31 157.81 163.00 C 156.63 162.68 155.41 163.38 155.10 164.56 Z M 154.84 165.53 L 154.57 166.50 C 154.24 167.68 154.94 168.90 156.12 169.22 C 157.30 169.55 158.52 168.85 158.84 167.67 L 159.11 166.71 C 159.43 165.53 158.74 164.31 157.56 163.98 C 156.38 163.66 155.16 164.35 154.84 165.53 Z M 154.59 166.44 L 154.29 167.41 C 153.94 168.58 154.60 169.82 155.77 170.17 C 156.94 170.52 158.18 169.86 158.53 168.69 L 158.83 167.73 C 159.18 166.55 158.52 165.32 157.35 164.96 C 156.18 164.61 154.94 165.27 154.59 166.44 Z M 154.32 167.35 L 154.00 168.29 C 153.61 169.45 154.23 170.71 155.39 171.09 C 156.55 171.48 157.81 170.86 158.20 169.70 L 158.51 168.75 C 158.90 167.60 158.28 166.34 157.12 165.95 C 155.96 165.56 154.70 166.19 154.32 167.35 Z M 154.01 168.26 L 153.68 169.20 C 153.27 170.35 153.87 171.61 155.02 172.02 C 156.17 172.43 157.44 171.83 157.85 170.68 L 158.18 169.74 C 158.59 168.59 157.99 167.32 156.84 166.91 C 155.69 166.50 154.42 167.10 154.01 168.26 Z M 153.69 169.18 L 153.34 170.12 C 152.92 171.26 153.51 172.53 154.66 172.95 C 155.81 173.37 157.07 172.78 157.49 171.64 L 157.84 170.70 C 158.26 169.55 157.67 168.28 156.52 167.86 C 155.38 167.44 154.11 168.03 153.69 169.18 Z M 153.35 170.09 L 153.00 171.03 C 152.57 172.17 153.14 173.45 154.28 173.88 C 155.42 174.31 156.69 173.74 157.13 172.60 L 157.48 171.66 C 157.92 170.52 157.34 169.24 156.20 168.81 C 155.06 168.38 153.79 168.95 153.35 170.09 Z M 153.01 171.01 L 152.65 171.94 C 152.20 173.07 152.76 174.35 153.89 174.79 C 155.02 175.24 156.30 174.69 156.74 173.56 L 157.11 172.62 C 157.56 171.49 157.00 170.21 155.87 169.77 C 154.74 169.32 153.46 169.88 153.01 171.01 Z M 152.67 171.91 L 152.28 172.83 C 151.82 173.95 152.35 175.23 153.47 175.70 C 154.59 176.16 155.87 175.63 156.34 174.51 L 156.72 173.59 C 157.19 172.47 156.66 171.18 155.54 170.72 C 154.42 170.26 153.13 170.79 152.67 171.91 Z M 152.31 172.80 L 151.90 173.72 C 151.42 174.83 151.93 176.12 153.03 176.60 C 154.14 177.08 155.43 176.58 155.91 175.47 L 156.31 174.55 C 156.80 173.44 156.29 172.15 155.19 171.67 C 154.08 171.19 152.79 171.69 152.31 172.80 Z M 151.93 173.69 L 151.52 174.60 C 151.02 175.69 151.50 176.98 152.60 177.48 C 153.69 177.98 154.98 177.49 155.48 176.40 L 155.89 175.50 C 156.39 174.40 155.90 173.11 154.81 172.61 C 153.72 172.12 152.42 172.60 151.93 173.69 Z M 151.54 174.58 L 151.11 175.48 C 150.60 176.57 151.06 177.86 152.15 178.37 C 153.23 178.88 154.52 178.41 155.03 177.33 L 155.46 176.42 C 155.97 175.34 155.50 174.05 154.42 173.54 C 153.34 173.03 152.05 173.49 151.54 174.58 Z M 151.14 175.46 L 150.70 176.36 C 150.18 177.42 150.62 178.71 151.69 179.24 C 152.75 179.76 154.04 179.32 154.57 178.25 L 155.00 177.35 C 155.53 176.29 155.08 175.00 154.02 174.47 C 152.95 173.95 151.66 174.39 151.14 175.46 Z M 150.73 176.32 L 150.26 177.24 C 149.72 178.29 150.13 179.58 151.18 180.12 C 152.23 180.66 153.52 180.24 154.06 179.19 L 154.53 178.28 C 155.07 177.23 154.66 175.94 153.61 175.40 C 152.56 174.86 151.27 175.27 150.73 176.32 Z M 150.31 177.18 L 149.84 178.02 C 149.27 179.04 149.63 180.34 150.65 180.91 C 151.67 181.48 152.96 181.12 153.53 180.10 L 154.01 179.25 C 154.58 178.23 154.22 176.94 153.20 176.37 C 152.18 175.80 150.89 176.16 150.31 177.18 Z M 149.94 177.91 L 149.40 178.72 C 148.76 179.68 149.03 180.98 150.00 181.62 C 150.96 182.26 152.27 181.99 152.90 181.03 L 153.44 180.22 C 154.08 179.25 153.81 177.95 152.84 177.31 C 151.88 176.67 150.57 176.94 149.94 177.91 Z M 149.52 178.59 L 148.91 179.37 C 148.19 180.27 148.35 181.57 149.25 182.28 C 150.15 182.99 151.45 182.84 152.16 181.94 L 152.78 181.16 C 153.49 180.26 153.34 178.95 152.44 178.24 C 151.54 177.53 150.23 177.69 149.52 178.59 Z M 149.02 179.27 L 148.34 180.01 C 147.58 180.85 147.64 182.15 148.47 182.91 C 149.31 183.68 150.61 183.62 151.38 182.78 L 152.05 182.04 C 152.82 181.20 152.76 179.90 151.92 179.13 C 151.08 178.37 149.78 178.43 149.02 179.27 Z M 148.50 179.88 L 147.71 180.59 C 146.87 181.34 146.80 182.63 147.55 183.47 C 148.30 184.30 149.59 184.37 150.42 183.62 L 151.22 182.91 C 152.06 182.16 152.13 180.87 151.38 180.03 C 150.63 179.20 149.34 179.13 148.50 179.88 Z M 148.01 180.40 L 147.09 180.97 C 146.15 181.55 145.86 182.79 146.44 183.73 C 147.02 184.67 148.26 184.96 149.20 184.38 L 150.12 183.81 C 151.06 183.23 151.35 182.00 150.77 181.05 C 150.19 180.11 148.95 179.82 148.01 180.40 Z M 148.05 180.72 L 147.24 180.76 C 146.16 180.81 145.33 181.73 145.38 182.80 C 145.43 183.88 146.34 184.71 147.42 184.66 L 148.24 184.63 C 149.31 184.57 150.14 183.66 150.09 182.58 C 150.04 181.51 149.13 180.67 148.05 180.72 Z M 148.79 181.54 L 148.17 180.77 C 147.52 179.96 146.35 179.83 145.54 180.48 C 144.73 181.13 144.60 182.31 145.25 183.11 L 145.87 183.88 C 146.52 184.69 147.70 184.82 148.50 184.17 C 149.31 183.53 149.44 182.35 148.79 181.54 Z M 148.31 181.07 L 148.27 181.00 C 147.79 180.12 146.68 179.79 145.80 180.27 C 144.92 180.75 144.60 181.86 145.08 182.74 L 145.12 182.81 C 145.60 183.69 146.70 184.02 147.58 183.54 C 148.46 183.05 148.79 181.95 148.31 181.07 Z"
      fill="black"
      fill-rule="nonzero" /><path d="M 157.00 173.51 L 158.08 173.56 C 159.18 173.61 160.12 172.75 160.16 171.65 C 160.21 170.55 159.36 169.61 158.25 169.57 L 157.17 169.52 C 156.07 169.47 155.13 170.33 155.08 171.43 C 155.04 172.53 155.89 173.47 157.00 173.51 Z M 158.02 173.63 L 159.03 173.71 C 160.17 173.79 161.17 172.93 161.25 171.79 C 161.33 170.64 160.47 169.65 159.33 169.57 L 158.32 169.49 C 157.17 169.41 156.18 170.27 156.10 171.41 C 156.02 172.56 156.87 173.55 158.02 173.63 Z M 158.87 173.76 L 159.77 173.89 C 160.95 174.06 162.03 173.25 162.20 172.07 C 162.37 170.90 161.56 169.81 160.39 169.64 L 159.49 169.51 C 158.31 169.34 157.23 170.15 157.06 171.33 C 156.89 172.50 157.70 173.59 158.87 173.76 Z M 159.39 173.86 L 160.38 174.18 C 161.53 174.56 162.78 173.93 163.16 172.78 C 163.54 171.63 162.91 170.38 161.76 170.00 L 160.77 169.68 C 159.61 169.30 158.37 169.92 157.99 171.08 C 157.61 172.23 158.24 173.48 159.39 173.86 Z M 159.94 174.01 L 160.74 174.49 C 161.80 175.11 163.17 174.76 163.79 173.70 C 164.42 172.64 164.07 171.27 163.00 170.64 L 162.20 170.17 C 161.14 169.54 159.77 169.90 159.14 170.96 C 158.52 172.02 158.87 173.39 159.94 174.01 Z M 160.55 174.39 L 161.31 174.94 C 162.32 175.67 163.73 175.45 164.46 174.44 C 165.19 173.43 164.96 172.03 163.96 171.30 L 163.19 170.74 C 162.19 170.01 160.78 170.24 160.05 171.24 C 159.32 172.25 159.54 173.66 160.55 174.39 Z M 161.19 174.87 L 162.01 175.54 C 162.98 176.33 164.41 176.20 165.20 175.23 C 165.99 174.26 165.86 172.84 164.89 172.04 L 164.07 171.37 C 163.11 170.58 161.68 170.71 160.89 171.68 C 160.09 172.65 160.23 174.07 161.19 174.87 Z M 161.92 175.47 L 162.64 176.12 C 163.57 176.97 165.00 176.90 165.85 175.97 C 166.69 175.04 166.62 173.60 165.69 172.76 L 164.98 172.11 C 164.05 171.27 162.61 171.33 161.77 172.26 C 160.93 173.19 160.99 174.63 161.92 175.47 Z M 162.58 176.07 L 163.30 176.77 C 164.20 177.65 165.64 177.64 166.52 176.74 C 167.40 175.84 167.38 174.40 166.48 173.52 L 165.76 172.81 C 164.86 171.93 163.42 171.95 162.54 172.85 C 161.66 173.75 161.68 175.19 162.58 176.07 Z M 163.25 176.73 L 163.96 177.47 C 164.84 178.38 166.28 178.40 167.18 177.53 C 168.09 176.66 168.12 175.21 167.25 174.31 L 166.53 173.57 C 165.66 172.66 164.21 172.63 163.31 173.50 C 162.40 174.38 162.37 175.82 163.25 176.73 Z M 163.92 177.43 L 164.59 178.16 C 165.44 179.09 166.88 179.15 167.81 178.30 C 168.74 177.46 168.81 176.01 167.96 175.09 L 167.29 174.35 C 166.44 173.42 164.99 173.36 164.07 174.21 C 163.14 175.06 163.07 176.50 163.92 177.43 Z M 164.56 178.13 L 165.23 178.88 C 166.06 179.82 167.50 179.92 168.44 179.09 C 169.39 178.26 169.48 176.82 168.65 175.87 L 167.98 175.12 C 167.15 174.18 165.72 174.08 164.77 174.91 C 163.83 175.74 163.73 177.18 164.56 178.13 Z M 165.21 178.85 L 165.88 179.64 C 166.70 180.59 168.13 180.71 169.09 179.89 C 170.04 179.08 170.15 177.64 169.34 176.69 L 168.67 175.90 C 167.85 174.95 166.42 174.83 165.46 175.65 C 164.51 176.46 164.39 177.90 165.21 178.85 Z M 165.88 179.61 L 166.55 180.43 C 167.35 181.38 168.78 181.51 169.74 180.71 C 170.70 179.91 170.82 178.48 170.02 177.53 L 169.35 176.72 C 168.55 175.76 167.12 175.63 166.16 176.43 C 165.20 177.23 165.07 178.66 165.88 179.61 Z M 166.55 180.40 L 167.16 181.14 C 167.94 182.10 169.36 182.24 170.32 181.45 C 171.28 180.66 171.42 179.25 170.63 178.29 L 170.02 177.55 C 169.24 176.59 167.82 176.45 166.86 177.24 C 165.90 178.03 165.77 179.44 166.55 180.40 Z M 167.16 181.10 L 167.77 181.85 C 168.53 182.81 169.93 182.96 170.88 182.19 C 171.84 181.43 171.99 180.03 171.23 179.08 L 170.62 178.33 C 169.86 177.37 168.46 177.22 167.51 177.99 C 166.55 178.75 166.40 180.15 167.16 181.10 Z M 167.78 181.80 L 168.37 182.56 C 169.11 183.51 170.47 183.68 171.42 182.94 C 172.37 182.21 172.54 180.84 171.80 179.90 L 171.21 179.13 C 170.48 178.19 169.11 178.02 168.17 178.75 C 167.22 179.49 167.05 180.85 167.78 181.80 Z M 168.39 182.52 L 168.99 183.30 C 169.70 184.24 171.03 184.42 171.97 183.71 C 172.91 183.00 173.09 181.67 172.38 180.73 L 171.79 179.94 C 171.08 179.00 169.74 178.82 168.80 179.53 C 167.86 180.24 167.68 181.58 168.39 182.52 Z M 168.98 183.26 L 169.59 184.09 C 170.27 185.03 171.59 185.24 172.53 184.55 C 173.47 183.86 173.68 182.55 172.99 181.61 L 172.39 180.77 C 171.70 179.83 170.38 179.63 169.44 180.31 C 168.50 181.00 168.30 182.32 168.98 183.26 Z M 169.56 184.01 L 170.13 184.86 C 170.77 185.82 172.07 186.07 173.03 185.43 C 173.98 184.79 174.23 183.49 173.59 182.53 L 173.02 181.69 C 172.38 180.73 171.08 180.48 170.13 181.12 C 169.17 181.76 168.92 183.06 169.56 184.01 Z M 170.11 184.71 L 170.63 185.62 C 171.19 186.59 172.43 186.92 173.40 186.36 C 174.37 185.81 174.70 184.57 174.14 183.60 L 173.62 182.69 C 173.06 181.72 171.82 181.38 170.85 181.94 C 169.88 182.50 169.55 183.74 170.11 184.71 Z M 170.66 185.47 L 171.08 186.31 C 171.56 187.27 172.72 187.65 173.67 187.18 C 174.63 186.70 175.01 185.54 174.53 184.59 L 174.11 183.75 C 173.64 182.79 172.48 182.40 171.52 182.88 C 170.57 183.36 170.18 184.52 170.66 185.47 Z M 171.11 186.27 L 171.14 186.33 C 171.59 187.26 172.72 187.65 173.66 187.20 C 174.59 186.75 174.98 185.62 174.53 184.69 L 174.50 184.63 C 174.05 183.69 172.92 183.30 171.99 183.76 C 171.05 184.21 170.66 185.33 171.11 186.27 Z"
      fill="black"
      fill-rule="nonzero" /></svg>