<svg xmlns="http://www.w3.org/2000/svg" width="300" height="300" viewBox="0 0 300 300">
<path d="M 126.43 138.25 L 125.40 138.15 C 124.33 138.05 123.38 138.84 123.28 139.91 C 123.18 140.99 123.97 141.93 125.04 142.03 L 126.07 142.13 C 127.14 142.23 128.09 141.44 128.19 140.37 C 128.29 139.30 127.50 138.35 126.43 138.25 Z M 123.20 139.87 L 123.12 140.53 C 123.00 141.65 123.80 142.66 124.92 142.78 C 126.03 142.91 127.04 142.11 127.17 140.99 L 127.24 140.32 C 127.37 139.21 126.56 138.20 125.45 138.07 C 124.33 137.95 123.32 138.75 123.20 139.87 Z M 123.22 141.48 L 123.62 142.55 C 124.01 143.61 125.20 144.15 126.26 143.75 C 127.32 143.35 127.86 142.17 127.47 141.11 L 127.07 140.04 C 126.67 138.98 125.49 138.44 124.43 138.84 C 123.36 139.23 122.82 140.42 123.22 141.48 Z M 123.64 142.58 L 124.00 143.48 C 124.41 144.54 125.61 145.05 126.66 144.63 C 127.71 144.21 128.22 143.02 127.80 141.97 L 127.45 141.07 C 127.03 140.02 125.84 139.51 124.79 139.92 C 123.73 140.34 123.22 141.53 123.64 142.58 Z M 124.00 143.47 L 124.36 144.39 C 124.77 145.43 125.95 145.95 127.00 145.54 C 128.05 145.14 128.57 143.96 128.16 142.91 L 127.80 141.99 C 127.39 140.94 126.21 140.42 125.16 140.83 C 124.11 141.24 123.59 142.42 124.00 143.47 Z M 124.38 144.41 L 124.77 145.37 C 125.19 146.41 126.37 146.91 127.41 146.49 C 128.45 146.07 128.94 144.89 128.53 143.85 L 128.13 142.89 C 127.71 141.85 126.53 141.35 125.50 141.77 C 124.46 142.19 123.96 143.37 124.38 144.41 Z M 124.80 145.39 L 125.19 146.30 C 125.62 147.32 126.80 147.80 127.82 147.36 C 128.84 146.93 129.31 145.75 128.88 144.73 L 128.50 143.83 C 128.06 142.81 126.89 142.33 125.87 142.77 C 124.85 143.20 124.37 144.38 124.80 145.39 Z M 125.22 146.32 L 125.64 147.27 C 126.08 148.27 127.25 148.72 128.26 148.28 C 129.26 147.84 129.71 146.66 129.27 145.66 L 128.85 144.71 C 128.41 143.71 127.23 143.26 126.23 143.70 C 125.23 144.14 124.77 145.32 125.22 146.32 Z M 125.67 147.29 L 126.10 148.22 C 126.56 149.20 127.72 149.63 128.71 149.18 C 129.69 148.72 130.12 147.55 129.67 146.57 L 129.24 145.64 C 128.78 144.65 127.61 144.23 126.63 144.68 C 125.64 145.14 125.21 146.31 125.67 147.29 Z M 126.15 148.24 L 126.62 149.19 C 127.09 150.15 128.24 150.54 129.20 150.07 C 130.15 149.60 130.55 148.45 130.08 147.49 L 129.61 146.54 C 129.14 145.59 127.99 145.19 127.03 145.66 C 126.08 146.13 125.68 147.29 126.15 148.24 Z M 126.68 149.20 L 127.13 150.08 C 127.61 151.00 128.74 151.36 129.66 150.88 C 130.58 150.41 130.94 149.27 130.47 148.35 L 130.02 147.48 C 129.54 146.56 128.41 146.19 127.49 146.67 C 126.56 147.15 126.20 148.28 126.68 149.20 Z M 127.18 150.07 L 127.61 150.87 C 128.08 151.76 129.19 152.10 130.08 151.63 C 130.97 151.15 131.31 150.05 130.84 149.15 L 130.42 148.36 C 129.94 147.47 128.84 147.13 127.94 147.60 C 127.05 148.07 126.71 149.18 127.18 150.07 Z"
      fill="black"
      fill-rule="nonzero" /><path d="M 142.86 135.94 L 142.55 136.88 C 142.20 137.95 142.78 139.10 143.85 139.45 C 144.92 139.81 146.07 139.22 146.42 138.16 L 146.73 137.21 C 147.08 136.14 146.50 134.99 145.43 134.64 C 144.37 134.29 143.21 134.87 142.86 135.94 Z M 142.45 137.08 L 142.24 138.05 C 142.00 139.18 142.71 140.29 143.83 140.53 C 144.96 140.77 146.07 140.06 146.31 138.93 L 146.52 137.96 C 146.76 136.84 146.05 135.73 144.92 135.48 C 143.80 135.24 142.69 135.96 142.45 137.08 Z M 142.18 138.35 L 142.11 139.34 C 142.03 140.50 142.91 141.50 144.07 141.58 C 145.22 141.66 146.23 140.79 146.30 139.63 L 146.37 138.64 C 146.45 137.48 145.57 136.48 144.42 136.40 C 143.26 136.32 142.26 137.19 142.18 138.35 Z M 142.11 139.48 L 142.11 140.48 C 142.10 141.63 143.04 142.58 144.19 142.58 C 145.35 142.59 146.29 141.66 146.30 140.50 L 146.30 139.50 C 146.31 138.34 145.37 137.40 144.22 137.39 C 143.06 137.39 142.12 138.32 142.11 139.48 Z M 142.13 140.49 L 142.13 141.48 C 142.13 142.62 143.06 143.55 144.20 143.55 C 145.35 143.55 146.27 142.62 146.27 141.48 L 146.27 140.49 C 146.27 139.34 145.35 138.42 144.20 138.42 C 143.06 138.42 142.13 139.34 142.13 140.49 Z M 142.16 141.48 L 142.16 142.48 C 142.16 143.60 143.08 144.52 144.20 144.52 C 145.33 144.52 146.24 143.60 146.24 142.48 L 146.24 141.48 C 146.24 140.35 145.33 139.44 144.20 139.44 C 143.08 139.44 142.16 140.35 142.16 141.48 Z M 142.19 142.48 L 142.19 143.46 C 142.19 144.57 143.09 145.47 144.20 145.47 C 145.31 145.47 146.21 144.57 146.21 143.46 L 146.21 142.48 C 146.21 141.37 145.31 140.47 144.20 140.47 C 143.09 140.47 142.19 141.37 142.19 142.48 Z M 142.23 143.46 L 142.23 144.49 C 142.23 145.58 143.11 146.46 144.20 146.46 C 145.29 146.46 146.18 145.58 146.18 144.49 L 146.18 143.46 C 146.18 142.37 145.29 141.49 144.20 141.49 C 143.11 141.49 142.23 142.37 142.23 143.46 Z M 142.26 144.49 L 142.26 145.47 C 142.26 146.55 143.13 147.41 144.20 147.41 C 145.27 147.41 146.14 146.55 146.14 145.47 L 146.14 144.49 C 146.14 143.42 145.27 142.55 144.20 142.55 C 143.13 142.55 142.26 143.42 142.26 144.49 Z M 142.30 145.47 L 142.30 146.49 C 142.30 147.54 143.15 148.39 144.20 148.39 C 145.25 148.39 146.11 147.54 146.11 146.49 L 146.11 145.47 C 146.11 144.42 145.25 143.57 144.20 143.57 C 143.15 143.57 142.30 144.42 142.30 145.47 Z M 142.33 146.49 L 142.33 147.48 C 142.32 148.52 143.16 149.36 144.20 149.36 C 145.24 149.36 146.08 148.52 146.08 147.49 L 146.08 146.49 C 146.08 145.46 145.24 144.61 144.20 144.61 C 143.17 144.61 142.33 145.45 142.33 146.49 Z M 142.35 147.47 L 142.34 148.46 C 142.33 149.49 143.15 150.33 144.17 150.34 C 145.19 150.35 146.03 149.53 146.04 148.50 L 146.05 147.50 C 146.06 146.48 145.24 145.64 144.22 145.63 C 143.20 145.62 142.36 146.44 142.35 147.47 Z M 142.36 148.43 L 142.33 149.43 C 142.30 150.44 143.09 151.29 144.10 151.32 C 145.11 151.35 145.96 150.56 145.99 149.55 L 146.02 148.54 C 146.05 147.53 145.26 146.69 144.25 146.65 C 143.24 146.62 142.39 147.41 142.36 148.43 Z M 142.34 149.39 L 142.29 150.38 C 142.23 151.38 143.00 152.24 144.00 152.30 C 145.00 152.35 145.86 151.59 145.92 150.59 L 145.97 149.59 C 146.03 148.59 145.26 147.73 144.26 147.68 C 143.26 147.62 142.40 148.39 142.34 149.39 Z M 142.30 150.36 L 142.23 151.36 C 142.16 152.36 142.91 153.22 143.90 153.29 C 144.90 153.36 145.77 152.61 145.84 151.61 L 145.91 150.61 C 145.98 149.61 145.23 148.75 144.23 148.68 C 143.23 148.61 142.37 149.36 142.30 150.36 Z M 142.24 151.35 L 142.21 151.73 C 142.13 152.72 142.88 153.59 143.87 153.66 C 144.86 153.73 145.73 152.99 145.80 152.00 L 145.83 151.62 C 145.90 150.63 145.16 149.76 144.17 149.69 C 143.17 149.62 142.31 150.36 142.24 151.35 Z"
      fill="black"
      fill-rule="nonzero" /><path d="M 139.02 127.72 L 138.00 127.22 C 137.01 126.73 135.81 127.14 135.32 128.13 C 134.83 129.12 135.24 130.33 136.23 130.81 L 137.25 131.31 C 138.24 131.80 139.44 131.39 139.93 130.40 C 140.42 129.41 140.01 128.21 139.02 127.72 Z M 136.80 126.99 L 136.11 127.10 C 135.00 127.28 134.24 128.33 134.41 129.44 C 134.59 130.56 135.64 131.32 136.75 131.14 L 137.44 131.04 C 138.55 130.86 139.31 129.81 139.14 128.69 C 138.96 127.58 137.91 126.82 136.80 126.99 Z M 134.39 128.73 L 134.20 129.76 C 133.98 130.88 134.72 131.97 135.84 132.19 C 136.97 132.41 138.06 131.67 138.27 130.55 L 138.47 129.52 C 138.69 128.39 137.95 127.30 136.83 127.08 C 135.70 126.87 134.61 127.60 134.39 128.73 Z M 134.14 130.10 L 134.12 131.05 C 134.09 132.21 135.00 133.17 136.16 133.20 C 137.31 133.23 138.27 132.31 138.30 131.16 L 138.33 130.21 C 138.36 129.05 137.44 128.09 136.29 128.06 C 135.13 128.03 134.17 128.94 134.14 130.10 Z M 134.11 131.08 L 134.10 132.13 C 134.09 133.29 135.02 134.24 136.18 134.25 C 137.34 134.26 138.29 133.33 138.30 132.18 L 138.31 131.13 C 138.32 129.97 137.39 129.02 136.23 129.01 C 135.07 129.00 134.13 129.93 134.11 131.08 Z M 134.10 132.13 L 134.08 133.15 C 134.07 134.31 135.00 135.26 136.16 135.28 C 137.32 135.29 138.27 134.37 138.29 133.20 L 138.30 132.18 C 138.32 131.02 137.39 130.07 136.23 130.05 C 135.07 130.04 134.11 130.96 134.10 132.13 Z M 134.08 133.14 L 134.06 134.16 C 134.04 135.32 134.97 136.28 136.14 136.30 C 137.30 136.32 138.26 135.39 138.28 134.23 L 138.29 133.21 C 138.31 132.05 137.38 131.09 136.22 131.07 C 135.06 131.05 134.10 131.98 134.08 133.14 Z M 134.06 134.17 L 134.04 135.19 C 134.03 136.36 134.96 137.32 136.13 137.33 C 137.30 137.35 138.26 136.41 138.27 135.24 L 138.28 134.22 C 138.30 133.05 137.36 132.09 136.20 132.08 C 135.03 132.07 134.07 133.00 134.06 134.17 Z M 134.04 135.20 L 134.03 136.18 C 134.02 137.35 134.96 138.30 136.13 138.31 C 137.30 138.32 138.25 137.39 138.26 136.22 L 138.27 135.24 C 138.28 134.07 137.35 133.11 136.18 133.10 C 135.01 133.09 134.05 134.03 134.04 135.20 Z M 134.03 136.15 L 134.01 137.10 C 133.99 138.27 134.91 139.23 136.08 139.26 C 137.25 139.28 138.22 138.36 138.24 137.19 L 138.27 136.24 C 138.29 135.07 137.36 134.11 136.19 134.08 C 135.03 134.06 134.06 134.98 134.03 136.15 Z M 134.01 137.07 L 133.98 138.08 C 133.94 139.24 134.85 140.22 136.02 140.26 C 137.19 140.30 138.17 139.39 138.21 138.22 L 138.24 137.21 C 138.28 136.05 137.37 135.07 136.20 135.03 C 135.03 134.99 134.05 135.90 134.01 137.07 Z M 133.98 138.07 L 133.94 139.06 C 133.90 140.22 134.82 141.20 135.98 141.25 C 137.15 141.29 138.13 140.37 138.17 139.21 L 138.21 138.22 C 138.25 137.05 137.34 136.07 136.17 136.03 C 135.00 135.99 134.02 136.91 133.98 138.07 Z M 133.95 139.04 L 133.90 140.05 C 133.86 141.22 134.76 142.20 135.93 142.25 C 137.10 142.30 138.08 141.39 138.13 140.22 L 138.17 139.22 C 138.22 138.05 137.31 137.07 136.15 137.02 C 134.98 136.97 133.99 137.88 133.95 139.04 Z M 133.91 140.02 L 133.85 141.03 C 133.78 142.19 134.68 143.19 135.84 143.26 C 137.01 143.32 138.01 142.43 138.07 141.26 L 138.13 140.26 C 138.19 139.09 137.30 138.09 136.14 138.03 C 134.97 137.96 133.97 138.85 133.91 140.02 Z M 133.85 141.00 L 133.78 141.98 C 133.70 143.15 134.58 144.16 135.74 144.24 C 136.91 144.32 137.92 143.44 138.00 142.28 L 138.07 141.29 C 138.15 140.13 137.27 139.12 136.11 139.04 C 134.94 138.95 133.93 139.83 133.85 141.00 Z M 133.78 141.97 L 133.71 143.00 C 133.62 144.16 134.49 145.18 135.66 145.27 C 136.82 145.35 137.84 144.48 137.92 143.32 L 138.00 142.29 C 138.09 141.12 137.22 140.11 136.05 140.02 C 134.89 139.93 133.87 140.81 133.78 141.97 Z M 133.71 143.00 L 133.63 143.97 C 133.55 145.13 134.42 146.15 135.59 146.24 C 136.75 146.32 137.76 145.45 137.85 144.28 L 137.92 143.31 C 138.01 142.15 137.14 141.14 135.97 141.05 C 134.81 140.96 133.79 141.84 133.71 143.00 Z M 133.64 143.97 L 133.56 144.97 C 133.48 146.13 134.35 147.15 135.51 147.23 C 136.68 147.32 137.69 146.45 137.78 145.28 L 137.85 144.28 C 137.94 143.12 137.06 142.11 135.90 142.02 C 134.74 141.93 133.72 142.81 133.64 143.97 Z M 133.56 144.97 L 133.49 145.98 C 133.40 147.15 134.27 148.16 135.43 148.25 C 136.59 148.34 137.61 147.47 137.70 146.30 L 137.77 145.29 C 137.86 144.12 136.99 143.11 135.83 143.02 C 134.67 142.93 133.65 143.80 133.56 144.97 Z M 133.49 145.97 L 133.41 146.94 C 133.32 148.10 134.18 149.12 135.34 149.21 C 136.50 149.31 137.52 148.44 137.62 147.28 L 137.70 146.31 C 137.79 145.15 136.92 144.13 135.76 144.04 C 134.60 143.95 133.58 144.81 133.49 145.97 Z M 133.41 146.93 L 133.33 147.92 C 133.22 149.08 134.08 150.11 135.24 150.21 C 136.40 150.31 137.42 149.45 137.53 148.29 L 137.61 147.29 C 137.72 146.13 136.86 145.11 135.70 145.01 C 134.54 144.91 133.51 145.77 133.41 146.93 Z M 133.33 147.91 L 133.23 148.93 C 133.12 150.09 133.97 151.12 135.12 151.23 C 136.28 151.35 137.31 150.50 137.42 149.34 L 137.52 148.31 C 137.63 147.15 136.79 146.12 135.63 146.01 C 134.47 145.90 133.44 146.75 133.33 147.91 Z M 133.24 148.92 L 133.13 149.90 C 133.01 151.06 133.85 152.09 135.00 152.22 C 136.16 152.34 137.19 151.50 137.31 150.35 L 137.42 149.36 C 137.54 148.20 136.70 147.17 135.55 147.05 C 134.39 146.92 133.36 147.76 133.24 148.92 Z M 133.14 149.89 L 133.02 150.90 C 132.90 152.05 133.73 153.09 134.88 153.21 C 136.03 153.34 137.07 152.51 137.20 151.36 L 137.31 150.36 C 137.44 149.20 136.61 148.17 135.45 148.04 C 134.30 147.91 133.26 148.74 133.14 149.89 Z M 133.03 150.89 L 132.92 151.89 C 132.79 153.04 133.61 154.08 134.76 154.21 C 135.91 154.34 136.95 153.51 137.08 152.36 L 137.19 151.36 C 137.32 150.21 136.50 149.18 135.35 149.05 C 134.20 148.92 133.16 149.74 133.03 150.89 Z M 132.92 151.89 L 132.81 152.90 C 132.68 154.05 133.50 155.08 134.65 155.21 C 135.80 155.34 136.83 154.52 136.96 153.37 L 137.08 152.36 C 137.21 151.21 136.38 150.18 135.23 150.05 C 134.09 149.92 133.05 150.74 132.92 151.89 Z M 132.81 152.90 L 132.70 153.89 C 132.57 155.03 133.39 156.07 134.53 156.20 C 135.68 156.33 136.71 155.51 136.84 154.36 L 136.96 153.37 C 137.09 152.23 136.27 151.19 135.12 151.06 C 133.98 150.93 132.94 151.75 132.81 152.90 Z M 132.70 153.88 L 132.59 154.86 C 132.45 156.00 133.26 157.04 134.40 157.17 C 135.55 157.31 136.58 156.50 136.72 155.36 L 136.84 154.37 C 136.97 153.23 136.16 152.20 135.02 152.06 C 133.88 151.92 132.84 152.74 132.70 153.88 Z M 132.59 154.84 L 132.47 155.83 C 132.32 156.96 133.12 158.00 134.26 158.15 C 135.40 158.30 136.44 157.49 136.58 156.36 L 136.71 155.37 C 136.86 154.24 136.06 153.20 134.92 153.05 C 133.78 152.90 132.74 153.70 132.59 154.84 Z M 132.48 155.81 L 132.34 156.80 C 132.18 157.93 132.97 158.98 134.11 159.13 C 135.24 159.29 136.28 158.50 136.44 157.37 L 136.57 156.38 C 136.73 155.24 135.94 154.20 134.81 154.04 C 133.68 153.89 132.63 154.68 132.48 155.81 Z M 132.35 156.79 L 132.20 157.78 C 132.04 158.91 132.82 159.95 133.95 160.11 C 135.08 160.28 136.12 159.50 136.29 158.37 L 136.43 157.38 C 136.59 156.25 135.81 155.20 134.68 155.04 C 133.56 154.88 132.51 155.66 132.35 156.79 Z M 132.21 157.77 L 132.07 158.76 C 131.90 159.89 132.68 160.93 133.80 161.10 C 134.92 161.26 135.97 160.49 136.13 159.36 L 136.28 158.37 C 136.44 157.25 135.67 156.21 134.55 156.04 C 133.42 155.87 132.38 156.65 132.21 157.77 Z M 132.07 158.76 L 131.93 159.75 C 131.76 160.87 132.53 161.91 133.65 162.08 C 134.77 162.24 135.81 161.47 135.98 160.35 L 136.12 159.36 C 136.29 158.24 135.52 157.20 134.40 157.04 C 133.28 156.87 132.24 157.64 132.07 158.76 Z M 131.93 159.76 L 131.79 160.75 C 131.63 161.86 132.40 162.90 133.51 163.06 C 134.63 163.22 135.66 162.45 135.83 161.34 L 135.97 160.35 C 136.13 159.23 135.36 158.20 134.25 158.04 C 133.13 157.87 132.10 158.64 131.93 159.76 Z M 131.80 160.76 L 131.66 161.75 C 131.50 162.86 132.28 163.89 133.39 164.05 C 134.50 164.20 135.52 163.43 135.68 162.32 L 135.82 161.33 C 135.97 160.21 135.20 159.19 134.09 159.03 C 132.98 158.88 131.95 159.65 131.80 160.76 Z M 131.67 161.77 L 131.53 162.76 C 131.38 163.87 132.16 164.89 133.27 165.03 C 134.37 165.18 135.39 164.41 135.54 163.30 L 135.67 162.30 C 135.82 161.20 135.04 160.18 133.94 160.03 C 132.83 159.88 131.81 160.66 131.67 161.77 Z M 131.54 162.77 L 131.41 163.76 C 131.27 164.86 132.04 165.87 133.14 166.02 C 134.24 166.16 135.25 165.38 135.40 164.28 L 135.53 163.29 C 135.67 162.19 134.90 161.18 133.80 161.04 C 132.69 160.89 131.68 161.67 131.54 162.77 Z M 131.42 163.76 L 131.29 164.75 C 131.15 165.84 131.92 166.85 133.02 166.99 C 134.11 167.13 135.12 166.36 135.26 165.27 L 135.39 164.28 C 135.53 163.18 134.76 162.18 133.66 162.04 C 132.57 161.89 131.56 162.67 131.42 163.76 Z M 131.30 164.75 L 131.17 165.74 C 131.03 166.83 131.80 167.83 132.89 167.97 C 133.98 168.11 134.98 167.35 135.12 166.26 L 135.25 165.27 C 135.39 164.18 134.63 163.18 133.54 163.03 C 132.45 162.89 131.45 163.66 131.30 164.75 Z M 131.18 165.74 L 131.05 166.73 C 130.91 167.81 131.67 168.81 132.76 168.95 C 133.84 169.09 134.83 168.33 134.98 167.25 L 135.11 166.26 C 135.25 165.17 134.49 164.18 133.40 164.04 C 132.32 163.89 131.33 164.65 131.18 165.74 Z M 131.06 166.73 L 130.93 167.73 C 130.79 168.81 131.55 169.80 132.63 169.94 C 133.71 170.08 134.69 169.32 134.83 168.24 L 134.97 167.24 C 135.11 166.16 134.35 165.18 133.27 165.04 C 132.19 164.89 131.21 165.65 131.06 166.73 Z M 130.95 167.74 L 130.81 168.76 C 130.68 169.83 131.43 170.81 132.50 170.95 C 133.57 171.09 134.55 170.33 134.69 169.26 L 134.82 168.24 C 134.96 167.17 134.20 166.19 133.13 166.05 C 132.06 165.91 131.08 166.67 130.95 167.74 Z M 130.83 168.78 L 130.70 169.77 C 130.57 170.83 131.33 171.80 132.39 171.93 C 133.46 172.06 134.42 171.31 134.55 170.24 L 134.68 169.25 C 134.81 168.19 134.05 167.22 132.99 167.09 C 131.93 166.96 130.96 167.71 130.83 168.78 Z M 130.72 169.79 L 130.61 170.77 C 130.49 171.83 131.24 172.78 132.30 172.90 C 133.36 173.02 134.31 172.27 134.43 171.21 L 134.54 170.22 C 134.66 169.17 133.90 168.21 132.85 168.09 C 131.79 167.97 130.84 168.73 130.72 169.79 Z M 130.62 170.81 L 130.51 171.84 C 130.41 172.89 131.18 173.83 132.23 173.93 C 133.28 174.03 134.22 173.26 134.32 172.21 L 134.42 171.18 C 134.52 170.13 133.75 169.19 132.70 169.09 C 131.65 168.99 130.72 169.75 130.62 170.81 Z M 130.52 171.88 L 130.45 172.81 C 130.37 173.86 131.15 174.77 132.20 174.85 C 133.24 174.93 134.16 174.15 134.24 173.11 L 134.31 172.17 C 134.39 171.13 133.61 170.22 132.56 170.14 C 131.52 170.05 130.61 170.84 130.52 171.88 Z M 130.46 172.85 L 130.41 173.88 C 130.35 174.92 131.15 175.81 132.18 175.87 C 133.22 175.92 134.11 175.13 134.17 174.09 L 134.22 173.06 C 134.28 172.02 133.49 171.14 132.45 171.08 C 131.41 171.02 130.52 171.82 130.46 172.85 Z M 130.42 173.91 L 130.38 174.87 C 130.34 175.91 131.15 176.77 132.18 176.81 C 133.21 176.85 134.08 176.05 134.12 175.02 L 134.15 174.06 C 134.19 173.03 133.39 172.16 132.36 172.12 C 131.33 172.08 130.46 172.88 130.42 173.91 Z M 130.40 174.89 L 130.37 175.78 C 130.34 176.80 131.14 177.66 132.16 177.69 C 133.19 177.72 134.04 176.92 134.07 175.90 L 134.10 175.01 C 134.13 173.98 133.33 173.13 132.31 173.10 C 131.29 173.06 130.43 173.87 130.40 174.89 Z M 130.38 175.80 L 130.36 176.90 C 130.34 177.92 131.15 178.76 132.17 178.78 C 133.19 178.80 134.02 177.99 134.04 176.97 L 134.06 175.87 C 134.08 174.85 133.27 174.01 132.25 174.00 C 131.24 173.98 130.40 174.79 130.38 175.80 Z M 130.37 176.92 L 130.36 177.81 C 130.36 178.83 131.17 179.65 132.18 179.66 C 133.19 179.67 134.02 178.85 134.03 177.84 L 134.03 176.95 C 134.04 175.94 133.23 175.11 132.21 175.11 C 131.20 175.10 130.38 175.91 130.37 176.92 Z M 130.37 177.82 L 130.37 178.83 C 130.36 179.83 131.18 180.65 132.19 180.66 C 133.20 180.66 134.02 179.84 134.02 178.83 L 134.02 177.83 C 134.02 176.82 133.21 176.00 132.20 176.00 C 131.19 176.00 130.37 176.81 130.37 177.82 Z M 130.37 178.83 L 130.37 179.91 C 130.37 180.91 131.19 181.73 132.19 181.73 C 133.20 181.73 134.01 180.92 134.01 179.91 L 134.01 178.83 C 134.01 177.83 133.20 177.01 132.19 177.01 C 131.19 177.01 130.37 177.82 130.37 178.83 Z M 130.38 179.91 L 130.38 180.33 C 130.38 181.33 131.19 182.14 132.19 182.14 C 133.20 182.14 134.01 181.33 134.01 180.33 L 134.01 179.91 C 134.01 178.91 133.20 178.09 132.19 178.09 C 131.19 178.09 130.38 178.91 130.38 179.91 Z"
      fill="black"
      fill-rule="nonzero" /><path d="M 131.46 164.20 L 132.03 165.07 C 132.63 165.98 133.85 166.23 134.76 165.64 C 135.67 165.04 135.92 163.82 135.33 162.91 L 134.76 162.05 C 134.16 161.14 132.94 160.88 132.03 161.48 C 131.12 162.07 130.87 163.29 131.46 164.20 Z M 132.07 165.18 L 132.65 165.96 C 133.30 166.85 134.55 167.04 135.44 166.38 C 136.33 165.73 136.52 164.48 135.86 163.59 L 135.29 162.81 C 134.63 161.92 133.38 161.73 132.49 162.38 C 131.61 163.04 131.42 164.29 132.07 165.18 Z M 132.79 166.17 L 133.45 166.86 C 134.22 167.67 135.50 167.70 136.31 166.92 C 137.12 166.15 137.15 164.87 136.37 164.06 L 135.72 163.37 C 134.94 162.57 133.66 162.54 132.85 163.31 C 132.05 164.08 132.02 165.37 132.79 166.17 Z M 133.62 167.05 L 134.42 167.71 C 135.30 168.42 136.60 168.29 137.31 167.41 C 138.02 166.53 137.89 165.23 137.01 164.52 L 136.20 163.87 C 135.32 163.15 134.03 163.29 133.32 164.17 C 132.60 165.05 132.74 166.34 133.62 167.05 Z M 134.48 167.78 L 135.20 168.31 C 136.13 168.99 137.42 168.80 138.10 167.88 C 138.78 166.96 138.59 165.66 137.67 164.98 L 136.95 164.45 C 136.03 163.77 134.73 163.96 134.05 164.88 C 133.37 165.80 133.56 167.10 134.48 167.78 Z M 135.24 168.35 L 136.08 168.94 C 137.02 169.60 138.32 169.37 138.98 168.43 C 139.64 167.48 139.41 166.19 138.47 165.53 L 137.63 164.94 C 136.69 164.28 135.39 164.51 134.73 165.45 C 134.07 166.39 134.30 167.69 135.24 168.35 Z M 136.12 168.97 L 137.03 169.57 C 137.99 170.21 139.28 169.94 139.92 168.98 C 140.56 168.02 140.29 166.72 139.33 166.09 L 138.42 165.49 C 137.46 164.85 136.17 165.12 135.53 166.08 C 134.89 167.04 135.16 168.34 136.12 168.97 Z M 137.07 169.60 L 137.93 170.14 C 138.90 170.75 140.19 170.46 140.81 169.48 C 141.42 168.51 141.12 167.22 140.15 166.61 L 139.29 166.06 C 138.31 165.45 137.02 165.74 136.41 166.72 C 135.80 167.69 136.09 168.98 137.07 169.60 Z M 137.95 170.14 L 138.82 170.67 C 139.80 171.27 141.07 170.96 141.67 169.99 C 142.27 169.01 141.97 167.73 140.99 167.13 L 140.12 166.60 C 139.15 166.00 137.87 166.31 137.27 167.29 C 136.67 168.26 136.98 169.54 137.95 170.14 Z M 138.83 170.66 L 139.66 171.17 C 140.63 171.77 141.90 171.46 142.50 170.49 C 143.09 169.52 142.78 168.25 141.81 167.65 L 140.98 167.14 C 140.01 166.55 138.74 166.85 138.15 167.83 C 137.55 168.80 137.86 170.07 138.83 170.66 Z M 139.66 171.14 L 140.56 171.70 C 141.51 172.30 142.77 172.01 143.37 171.05 C 143.96 170.10 143.67 168.84 142.72 168.25 L 141.82 167.68 C 140.86 167.09 139.60 167.38 139.01 168.33 C 138.41 169.29 138.70 170.54 139.66 171.14 Z M 140.56 171.66 L 141.37 172.18 C 142.30 172.77 143.54 172.50 144.14 171.57 C 144.73 170.64 144.46 169.41 143.53 168.81 L 142.72 168.29 C 141.79 167.69 140.55 167.97 139.95 168.90 C 139.36 169.83 139.63 171.06 140.56 171.66 Z M 141.38 172.14 L 142.20 172.68 C 143.11 173.27 144.33 173.02 144.92 172.11 C 145.51 171.20 145.26 169.99 144.35 169.39 L 143.53 168.85 C 142.62 168.26 141.40 168.51 140.81 169.42 C 140.22 170.33 140.47 171.54 141.38 172.14 Z M 142.20 172.63 L 143.05 173.20 C 143.93 173.80 145.13 173.56 145.72 172.68 C 146.32 171.80 146.08 170.60 145.20 170.01 L 144.35 169.44 C 143.47 168.84 142.27 169.08 141.68 169.96 C 141.08 170.84 141.32 172.04 142.20 172.63 Z M 143.03 173.15 L 143.82 173.71 C 144.67 174.31 145.85 174.11 146.46 173.26 C 147.06 172.41 146.86 171.23 146.01 170.62 L 145.22 170.06 C 144.36 169.46 143.18 169.66 142.58 170.51 C 141.97 171.36 142.18 172.54 143.03 173.15 Z M 143.78 173.64 L 144.58 174.26 C 145.40 174.88 146.57 174.73 147.19 173.91 C 147.82 173.10 147.66 171.93 146.85 171.30 L 146.05 170.69 C 145.23 170.06 144.06 170.22 143.44 171.03 C 142.81 171.85 142.97 173.02 143.78 173.64 Z M 144.56 174.21 L 145.32 174.82 C 146.10 175.45 147.26 175.33 147.90 174.55 C 148.53 173.76 148.41 172.60 147.63 171.96 L 146.87 171.35 C 146.08 170.72 144.93 170.84 144.29 171.62 C 143.65 172.41 143.77 173.57 144.56 174.21 Z M 145.32 174.79 L 146.09 175.43 C 146.86 176.06 148.01 175.95 148.64 175.18 C 149.28 174.40 149.17 173.26 148.40 172.62 L 147.63 171.99 C 146.85 171.35 145.71 171.46 145.07 172.24 C 144.43 173.01 144.54 174.16 145.32 174.79 Z M 146.09 175.42 L 146.62 175.85 C 147.39 176.49 148.52 176.38 149.16 175.61 C 149.80 174.84 149.69 173.70 148.92 173.07 L 148.39 172.63 C 147.62 172.00 146.48 172.10 145.85 172.87 C 145.21 173.64 145.32 174.78 146.09 175.42 Z"
      fill="black"
      fill-rule="nonzero" /><path d="M 151.94 120.15 L 152.36 120.95 C 152.87 121.93 154.07 122.31 155.05 121.80 C 156.02 121.29 156.40 120.09 155.90 119.11 L 155.48 118.31 C 154.97 117.33 153.77 116.95 152.79 117.46 C 151.81 117.97 151.43 119.17 151.94 120.15 Z M 153.09 121.96 L 153.97 122.42 C 155.03 122.99 156.35 122.60 156.92 121.53 C 157.49 120.47 157.09 119.15 156.03 118.58 L 155.16 118.11 C 154.10 117.54 152.77 117.94 152.20 119.00 C 151.63 120.06 152.03 121.38 153.09 121.96 Z M 154.69 122.74 L 155.59 122.87 C 156.83 123.04 157.97 122.17 158.14 120.93 C 158.31 119.69 157.44 118.55 156.20 118.38 L 155.31 118.26 C 154.07 118.09 152.92 118.96 152.76 120.19 C 152.59 121.43 153.45 122.58 154.69 122.74 Z M 155.87 122.90 L 156.94 122.91 C 158.19 122.92 159.22 121.91 159.23 120.66 C 159.25 119.41 158.24 118.38 156.99 118.36 L 155.92 118.35 C 154.67 118.34 153.64 119.35 153.63 120.60 C 153.61 121.85 154.62 122.88 155.87 122.90 Z M 157.12 122.91 L 158.22 122.83 C 159.48 122.75 160.43 121.66 160.34 120.40 C 160.26 119.15 159.17 118.20 157.91 118.29 L 156.80 118.36 C 155.55 118.45 154.60 119.54 154.69 120.79 C 154.77 122.05 155.86 123.00 157.12 122.91 Z M 158.37 122.81 L 159.45 122.67 C 160.70 122.50 161.57 121.36 161.40 120.11 C 161.24 118.87 160.09 117.99 158.85 118.16 L 157.77 118.31 C 156.52 118.47 155.65 119.62 155.81 120.86 C 155.98 122.11 157.13 122.98 158.37 122.81 Z M 159.56 122.63 L 160.54 122.45 C 161.77 122.23 162.58 121.05 162.35 119.82 C 162.12 118.59 160.95 117.79 159.72 118.01 L 158.74 118.19 C 157.51 118.42 156.70 119.60 156.93 120.83 C 157.16 122.05 158.33 122.86 159.56 122.63 Z M 160.61 122.42 L 161.50 122.23 C 162.70 121.96 163.47 120.77 163.21 119.56 C 162.94 118.35 161.75 117.58 160.54 117.85 L 159.65 118.04 C 158.44 118.31 157.68 119.50 157.94 120.71 C 158.21 121.92 159.40 122.69 160.61 122.42 Z M 161.53 122.20 L 162.58 121.95 C 163.77 121.67 164.51 120.47 164.22 119.28 C 163.94 118.09 162.75 117.35 161.56 117.63 L 160.51 117.88 C 159.31 118.16 158.58 119.36 158.86 120.55 C 159.14 121.74 160.33 122.48 161.53 122.20 Z M 162.60 121.91 L 163.49 121.68 C 164.66 121.39 165.37 120.20 165.07 119.03 C 164.77 117.86 163.59 117.15 162.42 117.45 L 161.53 117.67 C 160.36 117.97 159.65 119.16 159.95 120.33 C 160.25 121.49 161.43 122.20 162.60 121.91 Z M 163.50 121.64 L 164.48 121.38 C 165.63 121.08 166.31 119.90 166.00 118.76 C 165.70 117.61 164.52 116.93 163.38 117.23 L 162.40 117.49 C 161.26 117.80 160.57 118.97 160.88 120.12 C 161.18 121.26 162.36 121.95 163.50 121.64 Z M 164.49 121.34 L 165.44 121.08 C 166.57 120.77 167.23 119.61 166.92 118.49 C 166.61 117.36 165.45 116.70 164.32 117.01 L 163.37 117.27 C 162.24 117.58 161.58 118.74 161.89 119.87 C 162.20 120.99 163.36 121.65 164.49 121.34 Z M 165.45 121.04 L 166.41 120.76 C 167.51 120.45 168.15 119.31 167.84 118.21 C 167.53 117.11 166.39 116.47 165.29 116.78 L 164.32 117.05 C 163.22 117.36 162.58 118.51 162.89 119.61 C 163.20 120.71 164.35 121.35 165.45 121.04 Z M 166.42 120.72 L 167.39 120.44 C 168.46 120.12 169.08 118.99 168.76 117.91 C 168.44 116.84 167.31 116.22 166.24 116.54 L 165.27 116.82 C 164.20 117.14 163.58 118.27 163.90 119.35 C 164.21 120.42 165.35 121.04 166.42 120.72 Z M 167.40 120.40 L 168.35 120.11 C 169.40 119.79 170.00 118.67 169.67 117.61 C 169.35 116.55 168.23 115.96 167.17 116.28 L 166.22 116.58 C 165.17 116.90 164.57 118.02 164.90 119.08 C 165.22 120.13 166.34 120.73 167.40 120.40 Z M 168.34 120.08 L 169.23 119.81 C 170.27 119.48 170.85 118.38 170.52 117.34 C 170.20 116.30 169.10 115.72 168.06 116.04 L 167.17 116.31 C 166.13 116.64 165.55 117.74 165.88 118.78 C 166.20 119.82 167.30 120.40 168.34 120.08 Z M 169.19 119.79 L 170.20 119.49 C 171.23 119.18 171.82 118.10 171.51 117.07 C 171.21 116.04 170.13 115.46 169.10 115.76 L 168.09 116.06 C 167.06 116.36 166.47 117.45 166.78 118.48 C 167.08 119.51 168.16 120.09 169.19 119.79 Z M 170.16 119.47 L 171.10 119.21 C 172.13 118.93 172.72 117.87 172.44 116.85 C 172.15 115.83 171.10 115.23 170.07 115.51 L 169.13 115.77 C 168.11 116.06 167.52 117.12 167.80 118.14 C 168.08 119.16 169.14 119.76 170.16 119.47 Z M 171.07 119.20 L 172.07 118.94 C 173.09 118.67 173.70 117.64 173.43 116.62 C 173.17 115.61 172.13 115.00 171.12 115.26 L 170.11 115.53 C 169.09 115.79 168.49 116.83 168.75 117.84 C 169.02 118.86 170.05 119.47 171.07 119.20 Z M 172.03 118.93 L 173.04 118.69 C 174.05 118.45 174.67 117.44 174.43 116.43 C 174.19 115.42 173.18 114.79 172.17 115.03 L 171.16 115.27 C 170.15 115.51 169.53 116.53 169.77 117.53 C 170.01 118.54 171.02 119.17 172.03 118.93 Z M 173.00 118.68 L 173.97 118.47 C 174.97 118.25 175.61 117.26 175.39 116.26 C 175.17 115.25 174.18 114.61 173.18 114.83 L 172.21 115.04 C 171.20 115.26 170.57 116.25 170.78 117.26 C 171.00 118.26 171.99 118.90 173.00 118.68 Z M 173.95 118.46 L 174.54 118.34 C 175.54 118.13 176.18 117.15 175.97 116.15 C 175.76 115.15 174.79 114.51 173.79 114.72 L 173.19 114.84 C 172.19 115.05 171.55 116.03 171.76 117.03 C 171.97 118.03 172.95 118.67 173.95 118.46 Z"
      fill="black"
      fill-rule="nonzero" /><path d="M 147.67 128.77 L 147.31 129.66 C 146.90 130.70 147.41 131.88 148.45 132.29 C 149.49 132.71 150.67 132.20 151.08 131.16 L 151.43 130.26 C 151.85 129.22 151.34 128.05 150.30 127.63 C 149.26 127.22 148.08 127.73 147.67 128.77 Z M 147.11 130.34 L 147.07 131.30 C 147.04 132.46 147.94 133.42 149.09 133.46 C 150.24 133.50 151.21 132.60 151.25 131.45 L 151.28 130.48 C 151.32 129.33 150.42 128.36 149.27 128.32 C 148.11 128.28 147.15 129.19 147.11 130.34 Z M 147.13 131.96 L 147.37 132.81 C 147.70 133.94 148.87 134.58 150.00 134.26 C 151.12 133.93 151.77 132.76 151.44 131.64 L 151.20 130.79 C 150.87 129.66 149.70 129.01 148.57 129.34 C 147.45 129.66 146.80 130.84 147.13 131.96 Z M 147.44 133.03 L 147.85 134.03 C 148.29 135.12 149.53 135.64 150.62 135.19 C 151.71 134.75 152.23 133.51 151.78 132.42 L 151.38 131.42 C 150.93 130.33 149.69 129.81 148.60 130.26 C 147.52 130.70 147.00 131.94 147.44 133.03 Z M 147.86 134.06 L 148.26 135.01 C 148.72 136.09 149.98 136.59 151.06 136.13 C 152.14 135.66 152.64 134.41 152.18 133.33 L 151.78 132.39 C 151.31 131.31 150.06 130.80 148.98 131.27 C 147.90 131.73 147.40 132.98 147.86 134.06 Z M 148.26 134.99 L 148.63 135.87 C 149.08 136.96 150.33 137.47 151.42 137.01 C 152.50 136.56 153.01 135.31 152.56 134.23 L 152.18 133.34 C 151.73 132.26 150.48 131.75 149.40 132.20 C 148.31 132.66 147.80 133.91 148.26 134.99 Z M 148.63 135.87 L 149.02 136.81 C 149.47 137.90 150.72 138.41 151.80 137.96 C 152.89 137.50 153.40 136.26 152.95 135.17 L 152.56 134.23 C 152.10 133.15 150.86 132.63 149.77 133.08 C 148.69 133.54 148.17 134.78 148.63 135.87 Z M 149.02 136.81 L 149.43 137.79 C 149.88 138.88 151.13 139.39 152.21 138.94 C 153.30 138.48 153.81 137.24 153.36 136.15 L 152.95 135.17 C 152.49 134.09 151.25 133.57 150.16 134.03 C 149.08 134.48 148.57 135.73 149.02 136.81 Z M 149.44 137.80 L 149.85 138.76 C 150.30 139.84 151.55 140.35 152.62 139.89 C 153.70 139.44 154.21 138.20 153.75 137.12 L 153.35 136.15 C 152.89 135.07 151.65 134.57 150.57 135.02 C 149.49 135.48 148.99 136.72 149.44 137.80 Z M 149.87 138.76 L 150.27 139.72 C 150.73 140.79 151.96 141.28 153.03 140.83 C 154.10 140.37 154.60 139.14 154.14 138.07 L 153.74 137.12 C 153.28 136.05 152.05 135.55 150.98 136.01 C 149.91 136.46 149.41 137.69 149.87 138.76 Z M 150.29 139.71 L 150.69 140.64 C 151.14 141.70 152.36 142.19 153.42 141.74 C 154.48 141.29 154.97 140.06 154.52 139.00 L 154.12 138.07 C 153.67 137.02 152.45 136.53 151.39 136.98 C 150.33 137.43 149.84 138.65 150.29 139.71 Z M 150.71 140.63 L 151.08 141.51 C 151.53 142.56 152.74 143.05 153.79 142.60 C 154.84 142.15 155.33 140.94 154.88 139.89 L 154.50 139.01 C 154.05 137.96 152.84 137.48 151.79 137.92 C 150.74 138.37 150.26 139.59 150.71 140.63 Z M 151.10 141.50 L 151.53 142.49 C 151.97 143.53 153.17 144.01 154.20 143.56 C 155.24 143.12 155.72 141.93 155.28 140.89 L 154.85 139.90 C 154.41 138.86 153.21 138.38 152.18 138.83 C 151.14 139.27 150.66 140.47 151.10 141.50 Z M 151.56 142.48 L 151.97 143.43 C 152.41 144.44 153.58 144.91 154.60 144.47 C 155.61 144.04 156.08 142.86 155.65 141.84 L 155.24 140.90 C 154.80 139.88 153.63 139.42 152.61 139.85 C 151.60 140.29 151.13 141.47 151.56 142.48 Z M 152.02 143.43 L 152.38 144.26 C 152.82 145.25 153.98 145.70 154.97 145.26 C 155.96 144.82 156.41 143.66 155.97 142.67 L 155.60 141.84 C 155.16 140.85 154.00 140.40 153.01 140.84 C 152.02 141.28 151.58 142.44 152.02 143.43 Z M 152.44 144.29 L 152.87 145.19 C 153.32 146.15 154.47 146.56 155.43 146.11 C 156.39 145.65 156.80 144.51 156.34 143.54 L 155.92 142.64 C 155.46 141.68 154.31 141.27 153.35 141.73 C 152.39 142.18 151.98 143.33 152.44 144.29 Z M 152.94 145.25 L 153.40 146.12 C 153.89 147.04 155.03 147.39 155.95 146.90 C 156.87 146.42 157.22 145.27 156.73 144.35 L 156.27 143.48 C 155.78 142.56 154.64 142.21 153.72 142.70 C 152.80 143.19 152.45 144.33 152.94 145.25 Z M 153.49 146.21 L 154.00 147.04 C 154.54 147.91 155.68 148.18 156.55 147.64 C 157.42 147.10 157.70 145.96 157.16 145.09 L 156.65 144.26 C 156.11 143.39 154.96 143.12 154.09 143.66 C 153.22 144.20 152.95 145.34 153.49 146.21 Z M 154.07 147.11 L 154.65 147.93 C 155.22 148.76 156.37 148.97 157.20 148.39 C 158.03 147.81 158.23 146.66 157.65 145.83 L 157.08 145.01 C 156.50 144.18 155.36 143.98 154.53 144.56 C 153.70 145.14 153.49 146.28 154.07 147.11 Z M 154.69 147.96 L 155.14 148.58 C 155.74 149.39 156.88 149.57 157.68 148.97 C 158.49 148.38 158.67 147.24 158.07 146.43 L 157.61 145.81 C 157.02 145.00 155.88 144.83 155.07 145.42 C 154.26 146.01 154.09 147.15 154.69 147.96 Z"
      fill="black"
      fill-rule="nonzero" /><path d="M 153.32 137.18 L 154.20 137.12 C 155.24 137.04 156.01 136.15 155.94 135.11 C 155.87 134.08 154.97 133.30 153.94 133.38 L 153.05 133.44 C 152.02 133.51 151.24 134.41 151.32 135.44 C 151.39 136.48 152.29 137.25 153.32 137.18 Z M 154.49 137.22 L 155.56 137.00 C 156.65 136.77 157.35 135.70 157.12 134.60 C 156.89 133.51 155.82 132.82 154.73 133.04 L 153.65 133.27 C 152.56 133.50 151.87 134.57 152.09 135.66 C 152.32 136.75 153.39 137.45 154.49 137.22 Z M 155.79 137.02 L 156.73 136.72 C 157.84 136.36 158.45 135.18 158.09 134.07 C 157.73 132.96 156.55 132.35 155.44 132.71 L 154.50 133.02 C 153.39 133.37 152.78 134.56 153.14 135.67 C 153.50 136.77 154.69 137.38 155.79 137.02 Z M 156.82 136.73 L 157.80 136.37 C 158.91 135.97 159.49 134.74 159.08 133.63 C 158.68 132.51 157.45 131.94 156.34 132.34 L 155.35 132.70 C 154.24 133.11 153.67 134.34 154.07 135.45 C 154.48 136.56 155.71 137.14 156.82 136.73 Z M 157.83 136.40 L 158.80 136.04 C 159.93 135.62 160.51 134.37 160.09 133.24 C 159.67 132.11 158.42 131.54 157.29 131.96 L 156.31 132.32 C 155.19 132.74 154.61 133.99 155.03 135.12 C 155.45 136.24 156.70 136.82 157.83 136.40 Z M 158.78 136.06 L 159.74 135.72 C 160.88 135.32 161.48 134.07 161.08 132.93 C 160.68 131.79 159.43 131.19 158.28 131.59 L 157.32 131.93 C 156.18 132.33 155.58 133.58 155.98 134.72 C 156.38 135.87 157.63 136.47 158.78 136.06 Z M 159.72 135.73 L 160.58 135.44 C 161.72 135.05 162.33 133.80 161.94 132.65 C 161.55 131.51 160.30 130.90 159.16 131.29 L 158.30 131.58 C 157.15 131.98 156.54 133.22 156.94 134.37 C 157.33 135.51 158.58 136.12 159.72 135.73 Z M 160.58 135.44 L 161.52 135.12 C 162.67 134.72 163.28 133.48 162.88 132.33 C 162.49 131.18 161.24 130.57 160.10 130.97 L 159.16 131.29 C 158.01 131.68 157.40 132.93 157.79 134.08 C 158.19 135.22 159.43 135.83 160.58 135.44 Z M 161.48 135.13 L 162.43 134.82 C 163.58 134.46 164.21 133.22 163.84 132.07 C 163.48 130.92 162.24 130.28 161.09 130.65 L 160.14 130.95 C 158.99 131.32 158.35 132.56 158.72 133.71 C 159.09 134.86 160.32 135.50 161.48 135.13 Z M 162.37 134.84 L 163.33 134.56 C 164.49 134.22 165.16 133.00 164.82 131.84 C 164.48 130.68 163.27 130.02 162.11 130.36 L 161.14 130.64 C 159.98 130.97 159.32 132.19 159.66 133.35 C 159.99 134.51 161.21 135.18 162.37 134.84 Z M 163.29 134.56 L 164.27 134.30 C 165.43 133.98 166.12 132.78 165.80 131.62 C 165.48 130.45 164.28 129.77 163.12 130.08 L 162.15 130.35 C 160.98 130.67 160.29 131.87 160.61 133.03 C 160.93 134.20 162.13 134.88 163.29 134.56 Z M 164.24 134.30 L 165.21 134.05 C 166.38 133.75 167.08 132.56 166.78 131.40 C 166.48 130.23 165.29 129.53 164.12 129.83 L 163.15 130.08 C 161.98 130.38 161.28 131.57 161.58 132.74 C 161.88 133.90 163.07 134.61 164.24 134.30 Z M 165.18 134.05 L 166.16 133.81 C 167.33 133.53 168.04 132.35 167.75 131.18 C 167.47 130.02 166.29 129.30 165.12 129.59 L 164.15 129.83 C 162.98 130.12 162.27 131.29 162.55 132.46 C 162.84 133.63 164.02 134.34 165.18 134.05 Z M 166.13 133.81 L 167.10 133.59 C 168.27 133.32 169.00 132.15 168.73 130.99 C 168.46 129.82 167.29 129.10 166.13 129.37 L 165.15 129.59 C 163.99 129.86 163.26 131.02 163.53 132.19 C 163.80 133.36 164.97 134.08 166.13 133.81 Z M 167.07 133.58 L 168.03 133.37 C 169.20 133.12 169.94 131.98 169.69 130.82 C 169.44 129.65 168.29 128.91 167.13 129.16 L 166.16 129.37 C 165.00 129.62 164.26 130.76 164.51 131.93 C 164.76 133.09 165.90 133.83 167.07 133.58 Z M 167.98 133.37 L 168.96 133.19 C 170.12 132.97 170.89 131.84 170.66 130.68 C 170.44 129.52 169.32 128.76 168.16 128.98 L 167.18 129.16 C 166.02 129.38 165.26 130.51 165.48 131.67 C 165.70 132.83 166.82 133.59 167.98 133.37 Z M 168.89 133.19 L 169.89 133.03 C 171.05 132.85 171.85 131.76 171.67 130.60 C 171.49 129.43 170.40 128.64 169.23 128.82 L 168.23 128.98 C 167.07 129.16 166.27 130.25 166.46 131.41 C 166.64 132.57 167.73 133.37 168.89 133.19 Z M 169.83 133.02 L 170.83 132.89 C 171.99 132.75 172.81 131.69 172.66 130.54 C 172.52 129.38 171.46 128.56 170.31 128.71 L 169.30 128.83 C 168.14 128.98 167.32 130.03 167.47 131.19 C 167.62 132.34 168.67 133.16 169.83 133.02 Z M 170.78 132.88 L 171.78 132.77 C 172.93 132.65 173.76 131.63 173.65 130.48 C 173.53 129.33 172.50 128.50 171.35 128.62 L 170.36 128.72 C 169.21 128.84 168.37 129.87 168.49 131.01 C 168.61 132.16 169.64 132.99 170.78 132.88 Z M 171.73 132.76 L 172.73 132.68 C 173.87 132.59 174.72 131.59 174.63 130.46 C 174.54 129.32 173.55 128.46 172.41 128.55 L 171.41 128.63 C 170.27 128.72 169.42 129.72 169.51 130.86 C 169.59 132.00 170.59 132.85 171.73 132.76 Z M 172.66 132.67 L 173.64 132.63 C 174.77 132.58 175.65 131.63 175.61 130.49 C 175.56 129.36 174.60 128.48 173.47 128.52 L 172.49 128.56 C 171.35 128.61 170.47 129.57 170.52 130.70 C 170.56 131.84 171.52 132.72 172.66 132.67 Z M 173.57 132.63 L 174.57 132.62 C 175.70 132.61 176.61 131.68 176.60 130.55 C 176.59 129.42 175.66 128.51 174.53 128.52 L 173.53 128.53 C 172.40 128.54 171.49 129.46 171.50 130.60 C 171.51 131.73 172.44 132.64 173.57 132.63 Z M 174.54 132.61 L 175.48 132.62 C 176.61 132.62 177.53 131.71 177.53 130.58 C 177.53 129.45 176.62 128.53 175.49 128.52 L 174.56 128.52 C 173.43 128.52 172.51 129.43 172.50 130.56 C 172.50 131.69 173.41 132.61 174.54 132.61 Z M 175.40 132.61 L 176.44 132.66 C 177.57 132.71 178.52 131.83 178.57 130.70 C 178.62 129.57 177.74 128.62 176.61 128.57 L 175.57 128.53 C 174.44 128.48 173.49 129.36 173.44 130.48 C 173.39 131.61 174.27 132.57 175.40 132.61 Z M 176.33 132.64 L 177.30 132.74 C 178.42 132.84 179.41 132.02 179.52 130.90 C 179.63 129.78 178.81 128.79 177.69 128.68 L 176.72 128.59 C 175.60 128.48 174.61 129.30 174.50 130.42 C 174.39 131.54 175.21 132.54 176.33 132.64 Z M 177.17 132.71 L 178.19 132.87 C 179.29 133.05 180.33 132.30 180.51 131.19 C 180.69 130.09 179.94 129.05 178.83 128.87 L 177.81 128.71 C 176.71 128.53 175.67 129.28 175.49 130.39 C 175.32 131.49 176.07 132.53 177.17 132.71 Z M 177.99 132.82 L 178.99 133.08 C 180.07 133.37 181.17 132.74 181.46 131.66 C 181.75 130.59 181.11 129.48 180.03 129.20 L 179.03 128.93 C 177.96 128.64 176.85 129.28 176.57 130.35 C 176.28 131.42 176.91 132.53 177.99 132.82 Z M 178.69 132.97 L 179.61 133.38 C 180.62 133.83 181.80 133.38 182.26 132.37 C 182.71 131.36 182.26 130.17 181.25 129.72 L 180.33 129.31 C 179.32 128.86 178.14 129.31 177.68 130.32 C 177.23 131.33 177.68 132.52 178.69 132.97 Z M 179.25 133.17 L 180.04 133.74 C 180.93 134.39 182.18 134.19 182.83 133.30 C 183.48 132.41 183.28 131.16 182.39 130.51 L 181.61 129.93 C 180.71 129.28 179.46 129.48 178.81 130.37 C 178.16 131.27 178.36 132.52 179.25 133.17 Z M 179.70 133.43 L 180.37 134.22 C 181.10 135.05 182.36 135.15 183.20 134.42 C 184.04 133.70 184.13 132.43 183.41 131.59 L 182.73 130.81 C 182.01 129.97 180.74 129.88 179.90 130.60 C 179.06 131.33 178.97 132.60 179.70 133.43 Z M 180.10 133.84 L 180.54 134.69 C 181.06 135.68 182.29 136.06 183.27 135.54 C 184.26 135.02 184.65 133.80 184.13 132.81 L 183.68 131.96 C 183.16 130.98 181.94 130.59 180.95 131.11 C 179.96 131.63 179.58 132.86 180.10 133.84 Z M 180.34 134.15 L 180.53 135.14 C 180.75 136.24 181.83 136.96 182.93 136.74 C 184.04 136.52 184.75 135.44 184.53 134.34 L 184.33 133.35 C 184.11 132.25 183.04 131.53 181.93 131.75 C 180.83 131.97 180.11 133.05 180.34 134.15 Z M 180.48 134.72 L 180.47 135.69 C 180.46 136.83 181.37 137.76 182.50 137.77 C 183.64 137.78 184.56 136.87 184.58 135.74 L 184.59 134.76 C 184.60 133.63 183.69 132.70 182.55 132.69 C 181.42 132.68 180.49 133.59 180.48 134.72 Z M 180.47 135.48 L 180.36 136.46 C 180.23 137.60 181.05 138.62 182.18 138.75 C 183.31 138.87 184.34 138.06 184.46 136.93 L 184.57 135.95 C 184.70 134.81 183.89 133.79 182.75 133.66 C 181.62 133.54 180.60 134.35 180.47 135.48 Z M 180.44 136.07 L 180.15 136.98 C 179.80 138.07 180.40 139.23 181.49 139.58 C 182.58 139.93 183.75 139.32 184.09 138.24 L 184.38 137.32 C 184.73 136.24 184.13 135.07 183.04 134.72 C 181.95 134.38 180.79 134.98 180.44 136.07 Z M 180.31 136.60 L 179.86 137.42 C 179.30 138.42 179.66 139.68 180.66 140.24 C 181.67 140.79 182.93 140.43 183.48 139.43 L 183.93 138.61 C 184.49 137.61 184.13 136.35 183.13 135.79 C 182.12 135.24 180.86 135.60 180.31 136.60 Z M 179.97 137.24 L 179.33 138.16 C 178.67 139.10 178.90 140.39 179.84 141.05 C 180.78 141.70 182.07 141.47 182.73 140.53 L 183.37 139.61 C 184.03 138.67 183.80 137.38 182.86 136.72 C 181.92 136.07 180.62 136.30 179.97 137.24 Z M 179.38 138.08 L 178.81 138.83 C 178.11 139.74 178.29 141.04 179.20 141.74 C 180.11 142.43 181.42 142.26 182.11 141.35 L 182.68 140.60 C 183.37 139.69 183.20 138.39 182.29 137.69 C 181.37 137.00 180.07 137.17 179.38 138.08 Z M 178.85 138.78 L 178.21 139.57 C 177.49 140.46 177.62 141.77 178.52 142.49 C 179.41 143.21 180.72 143.07 181.44 142.18 L 182.08 141.39 C 182.80 140.50 182.66 139.19 181.77 138.47 C 180.88 137.75 179.57 137.89 178.85 138.78 Z M 178.25 139.52 L 177.57 140.31 C 176.82 141.17 176.91 142.49 177.78 143.24 C 178.65 143.99 179.96 143.89 180.71 143.02 L 181.39 142.23 C 182.14 141.37 182.05 140.05 181.18 139.30 C 180.31 138.55 179.00 138.65 178.25 139.52 Z M 177.63 140.25 L 176.92 141.01 C 176.13 141.84 176.17 143.15 177.01 143.94 C 177.85 144.72 179.16 144.68 179.94 143.84 L 180.65 143.08 C 181.44 142.25 181.39 140.94 180.56 140.15 C 179.72 139.37 178.41 139.41 177.63 140.25 Z M 176.98 140.95 L 176.26 141.66 C 175.45 142.45 175.43 143.76 176.23 144.58 C 177.03 145.39 178.33 145.41 179.15 144.61 L 179.87 143.90 C 180.69 143.10 180.70 141.79 179.90 140.98 C 179.11 140.16 177.80 140.15 176.98 140.95 Z M 176.33 141.61 L 175.60 142.27 C 174.76 143.03 174.69 144.33 175.45 145.17 C 176.21 146.01 177.51 146.08 178.35 145.31 L 179.08 144.65 C 179.92 143.89 179.99 142.60 179.23 141.75 C 178.47 140.91 177.17 140.85 176.33 141.61 Z M 175.66 142.23 L 174.89 142.88 C 174.03 143.61 173.92 144.89 174.65 145.76 C 175.38 146.62 176.66 146.72 177.53 146.00 L 178.29 145.35 C 179.15 144.62 179.26 143.34 178.53 142.48 C 177.81 141.62 176.52 141.51 175.66 142.23 Z M 174.96 142.85 L 174.13 143.50 C 173.26 144.20 173.11 145.47 173.80 146.34 C 174.49 147.22 175.76 147.37 176.64 146.68 L 177.46 146.03 C 178.34 145.33 178.49 144.06 177.80 143.19 C 177.10 142.31 175.83 142.16 174.96 142.85 Z M 174.20 143.48 L 173.41 144.06 C 172.52 144.71 172.33 145.96 172.98 146.85 C 173.64 147.74 174.89 147.94 175.78 147.28 L 176.57 146.70 C 177.46 146.05 177.65 144.80 177.00 143.91 C 176.34 143.02 175.09 142.83 174.20 143.48 Z M 173.50 144.03 L 172.68 144.58 C 171.77 145.19 171.53 146.41 172.14 147.32 C 172.74 148.22 173.97 148.46 174.87 147.86 L 175.69 147.31 C 176.60 146.70 176.84 145.48 176.23 144.57 C 175.63 143.67 174.40 143.43 173.50 144.03 Z M 172.81 144.55 L 171.94 145.05 C 171.02 145.58 170.70 146.76 171.23 147.68 C 171.76 148.61 172.94 148.93 173.87 148.39 L 174.74 147.89 C 175.66 147.36 175.98 146.18 175.45 145.26 C 174.92 144.33 173.74 144.01 172.81 144.55 Z M 172.13 145.00 L 171.26 145.39 C 170.32 145.82 169.90 146.94 170.32 147.89 C 170.75 148.84 171.87 149.26 172.82 148.83 L 173.68 148.44 C 174.63 148.01 175.05 146.89 174.62 145.94 C 174.19 145.00 173.08 144.57 172.13 145.00 Z M 171.43 145.37 L 170.49 145.69 C 169.53 146.03 169.02 147.08 169.36 148.05 C 169.69 149.01 170.75 149.52 171.71 149.18 L 172.65 148.86 C 173.61 148.52 174.12 147.47 173.79 146.50 C 173.45 145.54 172.40 145.03 171.43 145.37 Z M 170.58 145.69 L 169.68 145.96 C 168.72 146.25 168.17 147.27 168.46 148.23 C 168.75 149.20 169.76 149.74 170.73 149.45 L 171.63 149.18 C 172.59 148.89 173.14 147.88 172.85 146.92 C 172.56 145.95 171.54 145.41 170.58 145.69 Z"
      fill="black"
      fill-rule="nonzero" /><path d="M 163.64 124.76 L 163.55 123.52 C 163.48 122.46 162.55 121.65 161.48 121.73 C 160.41 121.80 159.61 122.73 159.68 123.80 L 159.77 125.04 C 159.84 126.10 160.77 126.91 161.84 126.83 C 162.91 126.76 163.71 125.83 163.64 124.76 Z M 163.47 122.82 L 163.42 122.71 C 162.95 121.68 161.75 121.23 160.72 121.70 C 159.70 122.16 159.25 123.37 159.71 124.39 L 159.76 124.50 C 160.23 125.53 161.44 125.98 162.46 125.51 C 163.48 125.05 163.93 123.84 163.47 122.82 Z M 159.47 123.57 L 159.48 124.73 C 159.49 125.89 160.44 126.82 161.60 126.81 C 162.76 126.80 163.69 125.85 163.68 124.69 L 163.66 123.53 C 163.65 122.37 162.70 121.44 161.54 121.45 C 160.39 121.46 159.46 122.41 159.47 123.57 Z M 159.45 124.77 L 159.48 125.69 C 159.51 126.86 160.48 127.79 161.66 127.76 C 162.83 127.73 163.76 126.75 163.72 125.58 L 163.70 124.66 C 163.67 123.48 162.69 122.56 161.52 122.59 C 160.35 122.62 159.42 123.59 159.45 124.77 Z M 159.47 125.68 L 159.49 126.77 C 159.51 127.95 160.48 128.89 161.66 128.87 C 162.84 128.84 163.77 127.87 163.75 126.70 L 163.73 125.60 C 163.71 124.42 162.74 123.48 161.56 123.50 C 160.39 123.53 159.45 124.50 159.47 125.68 Z M 159.48 126.75 L 159.49 127.71 C 159.50 128.89 160.46 129.84 161.64 129.83 C 162.82 129.82 163.77 128.85 163.77 127.67 L 163.76 126.72 C 163.75 125.54 162.79 124.59 161.61 124.60 C 160.42 124.61 159.48 125.57 159.48 126.75 Z M 159.49 127.69 L 159.49 128.73 C 159.49 129.91 160.45 130.87 161.64 130.86 C 162.82 130.86 163.77 129.90 163.77 128.72 L 163.77 127.68 C 163.77 126.50 162.80 125.55 161.62 125.55 C 160.44 125.55 159.49 126.51 159.49 127.69 Z M 159.49 128.72 L 159.49 129.76 C 159.49 130.94 160.45 131.90 161.63 131.90 C 162.82 131.90 163.77 130.94 163.77 129.76 L 163.77 128.72 C 163.77 127.54 162.81 126.58 161.63 126.58 C 160.45 126.58 159.49 127.54 159.49 128.72 Z M 159.50 129.76 L 159.50 130.81 C 159.50 131.99 160.46 132.94 161.63 132.94 C 162.81 132.94 163.76 131.99 163.76 130.81 L 163.76 129.76 C 163.76 128.58 162.81 127.63 161.63 127.63 C 160.46 127.63 159.50 128.58 159.50 129.76 Z M 159.54 130.81 L 159.54 131.80 C 159.54 132.96 160.47 133.90 161.63 133.90 C 162.79 133.90 163.73 132.96 163.73 131.80 L 163.73 130.81 C 163.73 129.66 162.79 128.72 161.63 128.72 C 160.47 128.72 159.54 129.66 159.54 130.81 Z M 159.57 131.80 L 159.57 132.75 C 159.57 133.89 160.49 134.81 161.63 134.81 C 162.77 134.81 163.69 133.89 163.69 132.75 L 163.69 131.80 C 163.69 130.66 162.77 129.74 161.63 129.74 C 160.49 129.74 159.57 130.66 159.57 131.80 Z M 159.60 132.75 L 159.60 133.68 C 159.60 134.80 160.51 135.71 161.63 135.71 C 162.75 135.71 163.66 134.80 163.66 133.68 L 163.66 132.75 C 163.66 131.63 162.75 130.72 161.63 130.72 C 160.51 130.72 159.60 131.63 159.60 132.75 Z M 159.64 133.68 L 159.64 134.67 C 159.64 135.77 160.53 136.66 161.63 136.66 C 162.73 136.66 163.62 135.77 163.62 134.67 L 163.62 133.68 C 163.62 132.59 162.73 131.70 161.63 131.70 C 160.53 131.70 159.64 132.59 159.64 133.68 Z M 159.68 134.67 L 159.68 135.75 C 159.68 136.83 160.56 137.70 161.63 137.70 C 162.71 137.70 163.58 136.83 163.58 135.75 L 163.58 134.67 C 163.58 133.60 162.71 132.73 161.63 132.73 C 160.56 132.73 159.68 133.60 159.68 134.67 Z M 159.71 135.75 L 159.71 136.78 C 159.71 137.84 160.57 138.69 161.63 138.69 C 162.69 138.69 163.55 137.83 163.55 136.77 L 163.55 135.75 C 163.55 134.69 162.69 133.84 161.63 133.84 C 160.57 133.84 159.71 134.69 159.71 135.75 Z M 159.74 136.78 L 159.74 137.82 C 159.74 138.87 160.59 139.71 161.64 139.71 C 162.68 139.71 163.53 138.86 163.53 137.82 L 163.52 136.77 C 163.52 135.73 162.67 134.88 161.63 134.88 C 160.58 134.89 159.74 135.73 159.74 136.78 Z M 159.77 137.83 L 159.77 138.81 C 159.78 139.84 160.62 140.67 161.65 140.67 C 162.68 140.66 163.51 139.82 163.51 138.79 L 163.50 137.81 C 163.49 136.78 162.65 135.95 161.62 135.95 C 160.59 135.96 159.76 136.80 159.77 137.83 Z M 159.80 138.83 L 159.81 139.91 C 159.83 140.93 160.66 141.74 161.68 141.72 C 162.70 141.71 163.51 140.87 163.50 139.86 L 163.48 138.77 C 163.47 137.76 162.63 136.94 161.61 136.96 C 160.60 136.97 159.78 137.81 159.80 138.83 Z M 159.83 139.93 L 159.86 140.91 C 159.89 141.91 160.73 142.71 161.73 142.68 C 162.74 142.65 163.53 141.81 163.50 140.81 L 163.48 139.83 C 163.45 138.83 162.61 138.03 161.60 138.06 C 160.60 138.09 159.81 138.93 159.83 139.93 Z M 159.88 140.92 L 159.90 141.51 C 159.93 142.50 160.77 143.28 161.77 143.25 C 162.77 143.21 163.55 142.37 163.51 141.37 L 163.49 140.79 C 163.45 139.80 162.61 139.02 161.62 139.05 C 160.62 139.09 159.84 139.93 159.88 140.92 Z"
      fill="black"
      fill-rule="nonzero" /><path d="M 167.29 122.33 L 166.49 122.91 C 165.59 123.57 165.39 124.84 166.05 125.75 C 166.71 126.66 167.98 126.86 168.89 126.20 L 169.69 125.62 C 170.60 124.96 170.80 123.68 170.14 122.78 C 169.47 121.87 168.20 121.67 167.29 122.33 Z M 165.90 123.60 L 165.45 124.43 C 164.93 125.42 165.30 126.66 166.29 127.18 C 167.28 127.71 168.51 127.34 169.04 126.35 L 169.48 125.51 C 170.01 124.52 169.64 123.29 168.65 122.76 C 167.66 122.23 166.43 122.61 165.90 123.60 Z M 165.22 125.15 L 165.10 126.16 C 164.97 127.28 165.77 128.29 166.89 128.42 C 168.01 128.56 169.02 127.76 169.15 126.64 L 169.27 125.63 C 169.40 124.51 168.60 123.50 167.48 123.37 C 166.37 123.24 165.35 124.04 165.22 125.15 Z M 165.09 126.36 L 165.07 127.33 C 165.05 128.45 165.95 129.38 167.07 129.40 C 168.20 129.43 169.13 128.53 169.15 127.40 L 169.17 126.44 C 169.19 125.31 168.29 124.38 167.17 124.36 C 166.04 124.34 165.11 125.24 165.09 126.36 Z M 165.07 127.40 L 165.09 128.37 C 165.11 129.50 166.04 130.40 167.16 130.38 C 168.29 130.36 169.19 129.43 169.17 128.30 L 169.15 127.33 C 169.13 126.20 168.20 125.30 167.07 125.32 C 165.95 125.34 165.05 126.27 165.07 127.40 Z M 165.10 128.45 L 165.15 129.45 C 165.22 130.57 166.18 131.43 167.30 131.37 C 168.42 131.30 169.28 130.34 169.22 129.22 L 169.16 128.22 C 169.10 127.10 168.14 126.24 167.01 126.30 C 165.89 126.37 165.03 127.33 165.10 128.45 Z M 165.16 129.49 L 165.23 130.41 C 165.31 131.52 166.29 132.36 167.40 132.28 C 168.52 132.20 169.36 131.22 169.28 130.10 L 169.21 129.18 C 169.13 128.07 168.15 127.23 167.03 127.31 C 165.92 127.39 165.08 128.37 165.16 129.49 Z M 165.23 130.41 L 165.31 131.45 C 165.40 132.56 166.37 133.40 167.49 133.31 C 168.60 133.23 169.44 132.25 169.35 131.14 L 169.27 130.10 C 169.19 128.98 168.21 128.15 167.10 128.24 C 165.98 128.32 165.15 129.30 165.23 130.41 Z M 165.32 131.44 L 165.40 132.55 C 165.48 133.67 166.44 134.50 167.55 134.43 C 168.67 134.35 169.51 133.38 169.43 132.27 L 169.35 131.15 C 169.27 130.04 168.30 129.20 167.19 129.28 C 166.08 129.36 165.24 130.32 165.32 131.44 Z M 165.41 132.53 L 165.47 133.55 C 165.53 134.66 166.49 135.51 167.59 135.44 C 168.70 135.37 169.55 134.42 169.48 133.31 L 169.42 132.29 C 169.35 131.18 168.40 130.34 167.29 130.40 C 166.18 130.47 165.34 131.42 165.41 132.53 Z M 165.48 133.53 L 165.53 134.57 C 165.59 135.67 166.52 136.52 167.63 136.46 C 168.73 136.40 169.58 135.47 169.52 134.37 L 169.47 133.33 C 169.41 132.23 168.47 131.38 167.37 131.44 C 166.27 131.50 165.42 132.43 165.48 133.53 Z M 165.54 134.55 L 165.59 135.55 C 165.63 136.64 166.55 137.49 167.65 137.45 C 168.74 137.40 169.59 136.48 169.55 135.38 L 169.51 134.38 C 169.46 133.29 168.54 132.44 167.44 132.48 C 166.35 132.53 165.50 133.45 165.54 134.55 Z M 165.60 135.53 L 165.63 136.49 C 165.66 137.58 166.57 138.43 167.66 138.40 C 168.75 138.36 169.60 137.45 169.57 136.37 L 169.54 135.40 C 169.50 134.32 168.59 133.46 167.50 133.50 C 166.42 133.53 165.56 134.44 165.60 135.53 Z M 165.64 136.47 L 165.66 137.57 C 165.69 138.65 166.58 139.51 167.66 139.49 C 168.74 139.47 169.60 138.58 169.57 137.50 L 169.55 136.39 C 169.53 135.31 168.64 134.45 167.56 134.47 C 166.48 134.50 165.62 135.39 165.64 136.47 Z M 165.68 137.55 L 165.69 138.51 C 165.70 139.59 166.57 140.45 167.64 140.44 C 168.71 140.43 169.57 139.56 169.57 138.49 L 169.56 137.52 C 169.55 136.45 168.68 135.59 167.61 135.60 C 166.53 135.61 165.67 136.48 165.68 137.55 Z M 165.70 138.50 L 165.70 139.42 C 165.70 140.48 166.57 141.34 167.63 141.34 C 168.69 141.34 169.55 140.48 169.55 139.41 L 169.55 138.50 C 169.55 137.44 168.69 136.58 167.63 136.58 C 166.56 136.58 165.70 137.44 165.70 138.50 Z M 165.72 139.42 L 165.72 140.43 C 165.72 141.48 166.58 142.34 167.63 142.34 C 168.69 142.33 169.54 141.48 169.54 140.42 L 169.54 139.41 C 169.54 138.36 168.68 137.50 167.62 137.51 C 166.57 137.51 165.72 138.36 165.72 139.42 Z M 165.73 140.44 L 165.74 141.42 C 165.75 142.47 166.61 143.32 167.65 143.31 C 168.70 143.30 169.54 142.44 169.54 141.39 L 169.53 140.41 C 169.52 139.36 168.66 138.52 167.61 138.53 C 166.56 138.54 165.72 139.39 165.73 140.44 Z M 165.75 141.49 L 165.80 142.65 C 165.84 143.69 166.72 144.50 167.76 144.46 C 168.81 144.42 169.62 143.54 169.57 142.50 L 169.52 141.33 C 169.48 140.29 168.60 139.48 167.56 139.52 C 166.52 139.56 165.71 140.44 165.75 141.49 Z M 165.89 143.15 L 166.14 143.91 C 166.45 144.90 167.52 145.44 168.51 145.12 C 169.50 144.81 170.04 143.74 169.72 142.75 L 169.48 142.00 C 169.16 141.01 168.10 140.46 167.11 140.78 C 166.12 141.10 165.57 142.16 165.89 143.15 Z M 168.42 145.15 L 169.17 144.94 C 170.18 144.67 170.77 143.64 170.50 142.64 C 170.23 141.63 169.19 141.04 168.19 141.31 L 167.44 141.52 C 166.44 141.79 165.84 142.82 166.11 143.82 C 166.38 144.82 167.42 145.42 168.42 145.15 Z M 169.96 144.50 L 170.79 143.73 C 171.55 143.02 171.59 141.84 170.89 141.08 C 170.18 140.32 169.00 140.28 168.24 140.98 L 167.41 141.75 C 166.65 142.46 166.60 143.64 167.31 144.40 C 168.01 145.16 169.20 145.21 169.96 144.50 Z M 170.87 143.62 L 171.57 142.87 C 172.27 142.13 172.23 140.95 171.48 140.25 C 170.74 139.55 169.56 139.59 168.86 140.34 L 168.16 141.09 C 167.46 141.84 167.49 143.01 168.24 143.71 C 168.99 144.41 170.17 144.37 170.87 143.62 Z M 171.53 142.88 L 172.25 142.15 C 172.95 141.42 172.93 140.26 172.21 139.55 C 171.48 138.85 170.32 138.87 169.61 139.59 L 168.90 140.33 C 168.19 141.06 168.21 142.22 168.94 142.92 C 169.66 143.63 170.83 143.61 171.53 142.88 Z M 172.14 142.22 L 172.88 141.56 C 173.62 140.90 173.69 139.75 173.02 139.00 C 172.35 138.25 171.20 138.19 170.45 138.86 L 169.72 139.52 C 168.97 140.19 168.91 141.33 169.57 142.08 C 170.24 142.83 171.39 142.89 172.14 142.22 Z M 172.82 141.59 L 173.09 141.37 C 173.85 140.73 173.95 139.60 173.31 138.83 C 172.68 138.07 171.54 137.97 170.77 138.60 L 170.51 138.83 C 169.74 139.47 169.64 140.60 170.28 141.37 C 170.92 142.13 172.06 142.23 172.82 141.59 Z"
      fill="black"
      fill-rule="nonzero" /><path d="M 155.15 155.29 L 156.10 155.51 C 157.23 155.76 158.36 155.05 158.62 153.92 C 158.87 152.79 158.16 151.66 157.03 151.40 L 156.08 151.19 C 154.95 150.93 153.82 151.64 153.57 152.77 C 153.31 153.91 154.02 155.03 155.15 155.29 Z M 156.43 155.65 L 157.43 155.71 C 158.64 155.79 159.68 154.86 159.76 153.65 C 159.83 152.43 158.91 151.39 157.69 151.32 L 156.70 151.26 C 155.48 151.18 154.44 152.11 154.37 153.32 C 154.29 154.53 155.22 155.58 156.43 155.65 Z M 157.81 155.74 L 158.80 155.63 C 160.03 155.49 160.91 154.38 160.78 153.15 C 160.64 151.92 159.52 151.03 158.29 151.17 L 157.31 151.28 C 156.08 151.42 155.19 152.54 155.33 153.77 C 155.47 155.00 156.58 155.88 157.81 155.74 Z M 159.02 155.60 L 159.99 155.39 C 161.20 155.13 161.98 153.93 161.71 152.72 C 161.45 151.51 160.26 150.73 159.04 151.00 L 158.07 151.20 C 156.86 151.47 156.08 152.66 156.35 153.88 C 156.61 155.09 157.80 155.86 159.02 155.60 Z M 160.13 155.35 L 161.01 155.10 C 162.20 154.76 162.89 153.52 162.55 152.33 C 162.21 151.14 160.97 150.44 159.78 150.78 L 158.90 151.03 C 157.71 151.37 157.02 152.62 157.36 153.81 C 157.70 155.00 158.94 155.69 160.13 155.35 Z M 161.10 155.07 L 162.12 154.73 C 163.30 154.34 163.93 153.07 163.54 151.90 C 163.15 150.73 161.89 150.09 160.72 150.48 L 159.69 150.82 C 158.52 151.21 157.88 152.48 158.27 153.65 C 158.66 154.82 159.93 155.45 161.10 155.07 Z M 162.16 154.70 L 163.11 154.36 C 164.27 153.95 164.87 152.68 164.46 151.53 C 164.05 150.37 162.78 149.76 161.62 150.17 L 160.68 150.51 C 159.52 150.92 158.91 152.19 159.32 153.35 C 159.74 154.50 161.01 155.11 162.16 154.70 Z M 163.13 154.34 L 164.08 153.99 C 165.23 153.57 165.82 152.30 165.40 151.16 C 164.97 150.01 163.71 149.42 162.56 149.84 L 161.60 150.19 C 160.46 150.61 159.87 151.88 160.29 153.03 C 160.71 154.18 161.98 154.76 163.13 154.34 Z M 164.10 153.97 L 165.07 153.61 C 166.20 153.18 166.77 151.91 166.35 150.77 C 165.92 149.64 164.65 149.07 163.51 149.50 L 162.54 149.86 C 161.41 150.29 160.84 151.56 161.27 152.69 C 161.70 153.83 162.96 154.40 164.10 153.97 Z M 165.08 153.58 L 166.04 153.21 C 167.16 152.77 167.71 151.51 167.27 150.38 C 166.84 149.26 165.57 148.71 164.45 149.15 L 163.50 149.52 C 162.38 149.96 161.82 151.22 162.26 152.34 C 162.70 153.46 163.96 154.02 165.08 153.58 Z M 166.05 153.16 L 167.05 152.75 C 168.14 152.31 168.66 151.06 168.22 149.97 C 167.78 148.87 166.53 148.35 165.44 148.79 L 164.44 149.20 C 163.35 149.64 162.82 150.89 163.27 151.98 C 163.71 153.08 164.96 153.60 166.05 153.16 Z M 167.04 152.69 L 167.92 152.33 C 168.98 151.89 169.48 150.67 169.04 149.61 C 168.60 148.55 167.39 148.05 166.33 148.49 L 165.44 148.85 C 164.38 149.29 163.88 150.51 164.32 151.57 C 164.76 152.63 165.98 153.13 167.04 152.69 Z M 167.89 152.28 L 168.76 151.93 C 169.80 151.51 170.29 150.33 169.87 149.29 C 169.45 148.26 168.27 147.76 167.24 148.18 L 166.36 148.53 C 165.33 148.95 164.83 150.13 165.25 151.17 C 165.67 152.20 166.85 152.70 167.89 152.28 Z M 168.71 151.90 L 169.65 151.54 C 170.67 151.15 171.18 150.00 170.79 148.98 C 170.40 147.97 169.25 147.46 168.24 147.85 L 167.29 148.21 C 166.27 148.60 165.76 149.74 166.15 150.76 C 166.54 151.78 167.69 152.29 168.71 151.90 Z M 169.59 151.51 L 170.51 151.19 C 171.52 150.83 172.05 149.73 171.69 148.72 C 171.34 147.71 170.23 147.18 169.23 147.54 L 168.30 147.87 C 167.29 148.22 166.76 149.33 167.12 150.33 C 167.47 151.34 168.58 151.87 169.59 151.51 Z M 170.44 151.17 L 171.43 150.86 C 172.43 150.54 172.98 149.47 172.66 148.47 C 172.34 147.48 171.28 146.93 170.28 147.24 L 169.30 147.56 C 168.30 147.87 167.75 148.94 168.06 149.94 C 168.38 150.93 169.45 151.49 170.44 151.17 Z M 171.35 150.84 L 172.31 150.58 C 173.30 150.31 173.88 149.28 173.60 148.29 C 173.33 147.30 172.31 146.72 171.31 146.99 L 170.36 147.25 C 169.37 147.53 168.79 148.55 169.06 149.54 C 169.33 150.54 170.36 151.12 171.35 150.84 Z M 172.21 150.58 L 173.19 150.36 C 174.18 150.14 174.80 149.16 174.58 148.17 C 174.36 147.18 173.38 146.56 172.39 146.78 L 171.41 147.00 C 170.42 147.21 169.80 148.19 170.02 149.18 C 170.24 150.17 171.22 150.80 172.21 150.58 Z M 173.10 150.36 L 174.06 150.19 C 175.05 150.02 175.72 149.08 175.55 148.10 C 175.38 147.11 174.44 146.44 173.45 146.61 L 172.48 146.78 C 171.50 146.95 170.83 147.89 171.00 148.87 C 171.17 149.86 172.11 150.53 173.10 150.36 Z M 174.03 150.19 L 174.31 150.14 C 175.30 149.99 175.97 149.07 175.82 148.08 C 175.67 147.10 174.75 146.42 173.76 146.58 L 173.48 146.62 C 172.50 146.77 171.82 147.69 171.97 148.68 C 172.13 149.66 173.05 150.34 174.03 150.19 Z"
      fill="black"
      fill-rule="nonzero" /><path d="M 155.29 167.57 L 155.99 168.30 C 156.77 169.11 158.05 169.14 158.86 168.36 C 159.67 167.59 159.69 166.30 158.92 165.50 L 158.21 164.76 C 157.44 163.95 156.16 163.93 155.35 164.70 C 154.54 165.48 154.51 166.76 155.29 167.57 Z M 156.67 168.95 L 157.51 169.27 C 158.64 169.71 159.92 169.14 160.35 168.00 C 160.78 166.87 160.21 165.60 159.08 165.16 L 158.24 164.84 C 157.11 164.41 155.83 164.98 155.40 166.11 C 154.97 167.25 155.54 168.52 156.67 168.95 Z M 158.57 169.47 L 159.56 169.35 C 160.80 169.19 161.69 168.06 161.53 166.82 C 161.38 165.58 160.25 164.70 159.01 164.85 L 158.02 164.97 C 156.78 165.12 155.89 166.25 156.04 167.49 C 156.20 168.73 157.33 169.62 158.57 169.47 Z M 159.92 169.27 L 160.88 169.00 C 162.08 168.65 162.78 167.39 162.43 166.19 C 162.08 164.98 160.82 164.29 159.62 164.64 L 158.65 164.92 C 157.45 165.27 156.76 166.52 157.11 167.73 C 157.46 168.93 158.71 169.62 159.92 169.27 Z M 160.99 168.96 L 161.93 168.64 C 163.12 168.23 163.75 166.94 163.34 165.75 C 162.93 164.57 161.64 163.94 160.46 164.35 L 159.51 164.67 C 158.33 165.08 157.70 166.37 158.11 167.55 C 158.51 168.74 159.80 169.37 160.99 168.96 Z M 161.98 168.62 L 162.98 168.24 C 164.15 167.81 164.75 166.50 164.31 165.33 C 163.88 164.16 162.57 163.56 161.40 164.00 L 160.40 164.37 C 159.23 164.81 158.63 166.11 159.07 167.28 C 159.51 168.46 160.81 169.05 161.98 168.62 Z M 163.01 168.23 L 163.99 167.85 C 165.15 167.39 165.73 166.09 165.28 164.92 C 164.83 163.76 163.52 163.18 162.35 163.64 L 161.38 164.02 C 160.21 164.47 159.64 165.77 160.09 166.94 C 160.54 168.10 161.85 168.68 163.01 168.23 Z M 164.00 167.83 L 164.92 167.46 C 166.07 167.00 166.63 165.70 166.17 164.54 C 165.71 163.39 164.40 162.83 163.25 163.29 L 162.34 163.65 C 161.19 164.11 160.63 165.42 161.09 166.57 C 161.55 167.73 162.85 168.29 164.00 167.83 Z M 164.93 167.43 L 165.89 167.03 C 167.03 166.57 167.57 165.27 167.10 164.13 C 166.63 163.00 165.33 162.46 164.20 162.93 L 163.24 163.32 C 162.10 163.79 161.56 165.09 162.03 166.22 C 162.50 167.36 163.80 167.90 164.93 167.43 Z M 165.89 166.99 L 166.75 166.62 C 167.86 166.15 168.38 164.88 167.91 163.77 C 167.44 162.66 166.16 162.14 165.05 162.61 L 164.20 162.97 C 163.09 163.44 162.57 164.72 163.04 165.83 C 163.51 166.94 164.78 167.46 165.89 166.99 Z M 166.73 166.59 L 167.54 166.25 C 168.63 165.79 169.15 164.54 168.69 163.45 C 168.24 162.36 166.99 161.85 165.90 162.30 L 165.08 162.65 C 163.99 163.10 163.48 164.35 163.93 165.44 C 164.39 166.53 165.64 167.04 166.73 166.59 Z M 167.54 166.21 L 168.54 165.79 C 169.61 165.34 170.11 164.10 169.66 163.03 C 169.21 161.96 167.97 161.46 166.90 161.91 L 165.90 162.34 C 164.83 162.79 164.33 164.03 164.78 165.10 C 165.24 166.17 166.47 166.67 167.54 166.21 Z M 168.55 165.76 L 169.41 165.39 C 170.46 164.93 170.95 163.71 170.49 162.66 C 170.04 161.60 168.81 161.12 167.76 161.57 L 166.90 161.94 C 165.85 162.40 165.36 163.62 165.81 164.67 C 166.27 165.73 167.49 166.21 168.55 165.76 Z M 169.39 165.37 L 170.34 164.96 C 171.39 164.51 171.87 163.31 171.43 162.27 C 170.98 161.22 169.77 160.74 168.73 161.18 L 167.78 161.59 C 166.73 162.04 166.25 163.24 166.69 164.29 C 167.14 165.33 168.35 165.81 169.39 165.37 Z M 170.31 164.95 L 171.29 164.54 C 172.32 164.12 172.82 162.93 172.39 161.90 C 171.97 160.86 170.78 160.37 169.75 160.79 L 168.77 161.20 C 167.73 161.62 167.24 162.81 167.66 163.84 C 168.09 164.88 169.27 165.37 170.31 164.95 Z M 171.23 164.53 L 172.20 164.15 C 173.23 163.76 173.74 162.60 173.34 161.58 C 172.95 160.55 171.79 160.04 170.77 160.44 L 169.80 160.81 C 168.78 161.21 168.26 162.36 168.66 163.39 C 169.06 164.41 170.21 164.92 171.23 164.53 Z M 172.14 164.13 L 173.05 163.81 C 174.07 163.44 174.60 162.33 174.23 161.31 C 173.87 160.30 172.75 159.77 171.74 160.13 L 170.83 160.46 C 169.81 160.82 169.29 161.94 169.65 162.95 C 170.01 163.97 171.13 164.49 172.14 164.13 Z M 172.99 163.79 L 173.96 163.47 C 174.96 163.14 175.51 162.06 175.18 161.06 C 174.85 160.06 173.78 159.51 172.77 159.84 L 171.80 160.15 C 170.80 160.48 170.25 161.56 170.58 162.56 C 170.91 163.57 171.99 164.11 172.99 163.79 Z M 173.91 163.45 L 174.85 163.16 C 175.84 162.86 176.41 161.82 176.11 160.83 C 175.81 159.84 174.76 159.28 173.77 159.57 L 172.82 159.86 C 171.83 160.16 171.27 161.20 171.57 162.19 C 171.87 163.18 172.91 163.74 173.91 163.45 Z M 174.84 163.13 L 175.78 162.85 C 176.75 162.56 177.31 161.54 177.02 160.56 C 176.73 159.59 175.71 159.03 174.73 159.32 L 173.79 159.60 C 172.82 159.89 172.26 160.92 172.55 161.89 C 172.84 162.87 173.86 163.42 174.84 163.13 Z M 175.78 162.83 L 176.73 162.54 C 177.69 162.25 178.23 161.23 177.94 160.27 C 177.65 159.31 176.63 158.77 175.67 159.06 L 174.73 159.35 C 173.76 159.64 173.22 160.66 173.51 161.62 C 173.81 162.58 174.82 163.12 175.78 162.83 Z M 176.73 162.53 L 177.07 162.42 C 178.02 162.13 178.56 161.12 178.27 160.17 C 177.97 159.21 176.96 158.68 176.01 158.97 L 175.67 159.07 C 174.72 159.37 174.18 160.38 174.48 161.33 C 174.77 162.28 175.78 162.82 176.73 162.53 Z"
      fill="black"
      fill-rule="nonzero" /><path d="M 166.71 150.67 L 165.98 151.30 C 165.18 151.99 165.09 153.21 165.78 154.01 C 166.47 154.82 167.69 154.91 168.49 154.21 L 169.22 153.58 C 170.03 152.89 170.12 151.68 169.43 150.87 C 168.73 150.07 167.52 149.97 166.71 150.67 Z M 165.32 151.84 L 164.92 152.69 C 164.41 153.75 164.86 155.01 165.92 155.52 C 166.98 156.03 168.25 155.58 168.75 154.52 L 169.16 153.67 C 169.66 152.61 169.21 151.34 168.15 150.84 C 167.10 150.33 165.83 150.78 165.32 151.84 Z M 164.63 153.40 L 164.54 154.33 C 164.43 155.55 165.32 156.63 166.54 156.74 C 167.76 156.85 168.84 155.96 168.95 154.74 L 169.04 153.81 C 169.15 152.59 168.26 151.51 167.04 151.40 C 165.82 151.29 164.74 152.18 164.63 153.40 Z M 164.52 154.68 L 164.59 155.81 C 164.67 157.04 165.73 157.97 166.96 157.89 C 168.19 157.81 169.12 156.75 169.04 155.53 L 168.97 154.40 C 168.89 153.17 167.83 152.23 166.60 152.31 C 165.38 152.39 164.44 153.45 164.52 154.68 Z M 164.60 155.98 L 164.74 156.94 C 164.91 158.16 166.04 159.01 167.26 158.84 C 168.49 158.67 169.34 157.54 169.17 156.32 L 169.03 155.36 C 168.86 154.13 167.73 153.28 166.51 153.45 C 165.29 153.62 164.43 154.75 164.60 155.98 Z M 164.75 157.00 L 164.92 158.00 C 165.12 159.22 166.28 160.04 167.50 159.83 C 168.71 159.63 169.53 158.47 169.33 157.25 L 169.16 156.25 C 168.95 155.04 167.80 154.22 166.58 154.42 C 165.36 154.63 164.54 155.78 164.75 157.00 Z M 164.92 158.01 L 165.09 159.01 C 165.30 160.23 166.46 161.04 167.67 160.83 C 168.89 160.63 169.71 159.47 169.50 158.25 L 169.33 157.25 C 169.12 156.03 167.96 155.22 166.74 155.42 C 165.53 155.63 164.71 156.79 164.92 158.01 Z M 165.09 158.96 L 165.24 160.02 C 165.43 161.24 166.56 162.08 167.78 161.90 C 169.00 161.72 169.84 160.58 169.66 159.36 L 169.50 158.30 C 169.32 157.08 168.18 156.24 166.96 156.42 C 165.74 156.60 164.90 157.74 165.09 158.96 Z M 165.24 159.97 L 165.37 160.97 C 165.52 162.19 166.63 163.06 167.85 162.91 C 169.07 162.76 169.94 161.65 169.79 160.43 L 169.66 159.42 C 169.51 158.20 168.40 157.33 167.18 157.48 C 165.96 157.63 165.09 158.75 165.24 159.97 Z M 165.37 160.93 L 165.46 161.84 C 165.59 163.06 166.68 163.95 167.90 163.82 C 169.12 163.70 170.00 162.61 169.88 161.39 L 169.78 160.47 C 169.66 159.25 168.57 158.37 167.35 158.49 C 166.13 158.62 165.24 159.71 165.37 160.93 Z M 165.48 161.80 L 165.57 162.87 C 165.67 164.08 166.74 164.98 167.95 164.87 C 169.16 164.77 170.06 163.70 169.96 162.49 L 169.86 161.43 C 169.76 160.21 168.69 159.32 167.48 159.42 C 166.27 159.52 165.37 160.59 165.48 161.80 Z M 165.59 162.85 L 165.66 163.77 C 165.76 164.96 166.80 165.86 168.00 165.77 C 169.19 165.68 170.09 164.63 170.00 163.44 L 169.93 162.52 C 169.84 161.32 168.79 160.42 167.60 160.51 C 166.40 160.60 165.50 161.65 165.59 162.85 Z M 165.69 163.77 L 165.77 164.77 C 165.86 165.95 166.89 166.84 168.07 166.75 C 169.26 166.66 170.14 165.62 170.05 164.44 L 169.97 163.44 C 169.88 162.25 168.85 161.37 167.67 161.46 C 166.48 161.55 165.60 162.58 165.69 163.77 Z M 165.79 164.71 L 165.83 165.70 C 165.89 166.87 166.89 167.77 168.06 167.71 C 169.23 167.66 170.14 166.66 170.08 165.49 L 170.03 164.50 C 169.97 163.33 168.98 162.42 167.80 162.48 C 166.63 162.54 165.73 163.54 165.79 164.71 Z M 165.86 165.62 L 165.87 166.62 C 165.88 167.77 166.84 168.70 167.99 168.69 C 169.15 168.67 170.08 167.72 170.07 166.57 L 170.06 165.57 C 170.04 164.41 169.09 163.48 167.93 163.49 C 166.77 163.51 165.85 164.46 165.86 165.62 Z M 165.90 166.59 L 165.90 167.59 C 165.90 168.74 166.83 169.66 167.97 169.66 C 169.11 169.66 170.04 168.73 170.04 167.59 L 170.04 166.59 C 170.04 165.45 169.11 164.52 167.97 164.52 C 166.83 164.52 165.90 165.45 165.90 166.59 Z M 165.93 167.59 L 165.93 168.59 C 165.93 169.72 166.84 170.64 167.97 170.64 C 169.10 170.64 170.01 169.72 170.01 168.59 L 170.01 167.59 C 170.01 166.46 169.10 165.55 167.97 165.55 C 166.84 165.55 165.93 166.46 165.93 167.59 Z M 165.96 168.59 L 165.96 169.60 C 165.96 170.71 166.86 171.61 167.97 171.61 C 169.08 171.61 169.98 170.71 169.98 169.60 L 169.98 168.59 C 169.98 167.48 169.08 166.58 167.97 166.58 C 166.86 166.58 165.96 167.48 165.96 168.59 Z M 165.99 169.60 L 165.99 170.59 C 165.99 171.69 166.87 172.58 167.97 172.58 C 169.06 172.58 169.95 171.69 169.95 170.59 L 169.95 169.60 C 169.95 168.50 169.06 167.62 167.97 167.62 C 166.87 167.62 165.99 168.50 165.99 169.60 Z M 166.01 170.59 L 166.01 171.58 C 166.01 172.66 166.89 173.54 167.97 173.54 C 169.05 173.54 169.92 172.66 169.92 171.58 L 169.92 170.59 C 169.92 169.51 169.05 168.64 167.97 168.64 C 166.89 168.64 166.01 169.51 166.01 170.59 Z M 166.04 171.58 L 166.04 172.56 C 166.04 173.63 166.90 174.50 167.97 174.50 C 169.04 174.50 169.90 173.63 169.90 172.56 L 169.90 171.58 C 169.90 170.51 169.04 169.65 167.97 169.65 C 166.90 169.65 166.04 170.51 166.04 171.58 Z M 166.05 172.56 L 166.05 173.53 C 166.05 174.59 166.91 175.45 167.97 175.45 C 169.03 175.45 169.89 174.59 169.89 173.53 L 169.89 172.56 C 169.89 171.50 169.03 170.64 167.97 170.64 C 166.91 170.64 166.05 171.50 166.05 172.56 Z M 166.06 173.53 L 166.06 174.58 C 166.06 175.64 166.91 176.49 167.97 176.49 C 169.02 176.49 169.88 175.64 169.88 174.58 L 169.88 173.53 C 169.88 172.47 169.02 171.62 167.97 171.62 C 166.91 171.62 166.06 172.47 166.06 173.53 Z M 166.07 174.57 L 166.06 175.57 C 166.06 176.62 166.91 177.48 167.96 177.48 C 169.01 177.49 169.86 176.64 169.87 175.59 L 169.87 174.59 C 169.87 173.54 169.03 172.68 167.98 172.68 C 166.93 172.68 166.07 173.52 166.07 174.57 Z M 166.07 175.55 L 166.06 176.57 C 166.04 177.61 166.87 178.47 167.91 178.49 C 168.96 178.51 169.82 177.68 169.84 176.63 L 169.86 175.62 C 169.88 174.57 169.04 173.71 168.00 173.69 C 166.95 173.67 166.09 174.50 166.07 175.55 Z M 166.07 176.51 L 166.02 177.57 C 165.97 178.61 166.77 179.49 167.80 179.54 C 168.84 179.59 169.72 178.79 169.77 177.75 L 169.82 176.69 C 169.87 175.66 169.07 174.78 168.04 174.73 C 167.00 174.68 166.12 175.47 166.07 176.51 Z M 166.06 177.46 L 165.95 178.44 C 165.84 179.46 166.57 180.37 167.59 180.49 C 168.60 180.60 169.52 179.86 169.63 178.85 L 169.74 177.87 C 169.85 176.85 169.11 175.94 168.10 175.82 C 167.08 175.71 166.17 176.45 166.06 177.46 Z M 166.01 178.25 L 165.79 179.20 C 165.57 180.18 166.19 181.16 167.17 181.38 C 168.16 181.60 169.13 180.98 169.36 180.00 L 169.57 179.05 C 169.79 178.06 169.17 177.09 168.19 176.87 C 167.21 176.64 166.23 177.26 166.01 178.25 Z M 165.87 178.98 L 165.54 179.89 C 165.20 180.83 165.68 181.87 166.62 182.21 C 167.56 182.55 168.60 182.07 168.94 181.13 L 169.27 180.22 C 169.62 179.28 169.13 178.24 168.19 177.90 C 167.26 177.56 166.22 178.04 165.87 178.98 Z M 165.57 179.83 L 165.51 179.98 C 165.13 180.91 165.58 181.96 166.50 182.33 C 167.42 182.71 168.47 182.27 168.84 181.35 L 168.91 181.19 C 169.28 180.27 168.84 179.22 167.92 178.85 C 167.00 178.47 165.95 178.91 165.57 179.83 Z"
      fill="black"
      fill-rule="nonzero" /><path d="M 155.70 178.88 L 154.84 179.78 C 154.08 180.58 154.11 181.85 154.91 182.61 C 155.71 183.38 156.98 183.35 157.74 182.55 L 158.60 181.65 C 159.36 180.85 159.33 179.58 158.53 178.81 C 157.73 178.05 156.46 178.08 155.70 178.88 Z M 154.20 180.72 L 154.11 181.14 C 153.86 182.30 154.60 183.44 155.76 183.68 C 156.92 183.93 158.05 183.19 158.30 182.03 L 158.39 181.61 C 158.63 180.45 157.89 179.31 156.74 179.07 C 155.58 178.82 154.44 179.56 154.20 180.72 Z M 156.75 183.75 L 157.78 183.49 C 158.98 183.19 159.70 181.97 159.39 180.77 C 159.09 179.58 157.87 178.86 156.68 179.16 L 155.65 179.42 C 154.46 179.73 153.73 180.94 154.04 182.14 C 154.34 183.34 155.56 184.06 156.75 183.75 Z M 157.99 183.47 L 158.98 183.11 C 160.16 182.69 160.78 181.39 160.36 180.21 C 159.94 179.02 158.63 178.41 157.45 178.83 L 156.46 179.18 C 155.28 179.61 154.66 180.91 155.09 182.09 C 155.51 183.27 156.81 183.89 157.99 183.47 Z M 158.98 183.13 L 159.93 182.79 C 161.12 182.36 161.74 181.06 161.32 179.87 C 160.89 178.68 159.58 178.06 158.39 178.48 L 157.45 178.82 C 156.26 179.25 155.64 180.55 156.06 181.74 C 156.49 182.93 157.80 183.55 158.98 183.13 Z M 159.90 182.81 L 160.85 182.48 C 162.05 182.08 162.69 180.78 162.29 179.58 C 161.89 178.38 160.59 177.74 159.39 178.14 L 158.43 178.46 C 157.23 178.87 156.59 180.17 156.99 181.37 C 157.40 182.57 158.70 183.21 159.90 182.81 Z M 160.81 182.51 L 161.76 182.21 C 162.97 181.83 163.64 180.54 163.26 179.33 C 162.88 178.11 161.59 177.44 160.38 177.82 L 159.43 178.12 C 158.22 178.50 157.54 179.79 157.92 181.00 C 158.30 182.21 159.59 182.89 160.81 182.51 Z M 161.72 182.23 L 162.70 181.95 C 163.92 181.59 164.63 180.30 164.27 179.08 C 163.91 177.85 162.62 177.15 161.40 177.51 L 160.42 177.80 C 159.19 178.16 158.49 179.44 158.85 180.67 C 159.21 181.89 160.49 182.59 161.72 182.23 Z M 162.66 181.97 L 163.56 181.72 C 164.80 181.38 165.52 180.10 165.18 178.87 C 164.84 177.63 163.57 176.90 162.33 177.24 L 161.43 177.49 C 160.20 177.83 159.47 179.11 159.81 180.34 C 160.15 181.58 161.43 182.31 162.66 181.97 Z M 163.52 181.74 L 164.46 181.50 C 165.71 181.19 166.46 179.92 166.15 178.67 C 165.83 177.42 164.56 176.66 163.31 176.98 L 162.37 177.22 C 161.12 177.54 160.37 178.81 160.68 180.06 C 161.00 181.31 162.27 182.06 163.52 181.74 Z M 164.42 181.52 L 165.48 181.27 C 166.74 180.98 167.53 179.72 167.23 178.46 C 166.94 177.20 165.68 176.42 164.42 176.71 L 163.35 176.96 C 162.09 177.26 161.31 178.52 161.60 179.78 C 161.90 181.04 163.16 181.82 164.42 181.52 Z M 165.45 181.29 L 166.45 181.07 C 167.71 180.79 168.52 179.54 168.24 178.27 C 167.96 177.01 166.71 176.20 165.44 176.48 L 164.45 176.70 C 163.18 176.98 162.38 178.23 162.66 179.49 C 162.93 180.76 164.19 181.56 165.45 181.29 Z M 166.42 181.07 L 167.45 180.86 C 168.72 180.59 169.54 179.35 169.27 178.08 C 169.01 176.81 167.76 176.00 166.49 176.26 L 165.47 176.48 C 164.20 176.74 163.38 177.99 163.65 179.25 C 163.91 180.52 165.16 181.34 166.42 181.07 Z M 167.43 180.86 L 168.42 180.67 C 169.69 180.41 170.51 179.18 170.26 177.90 C 170.01 176.63 168.77 175.81 167.50 176.06 L 166.51 176.26 C 165.24 176.51 164.42 177.75 164.67 179.02 C 164.93 180.29 166.16 181.12 167.43 180.86 Z M 168.39 180.67 L 169.41 180.47 C 170.69 180.24 171.52 179.01 171.28 177.74 C 171.04 176.47 169.82 175.63 168.55 175.87 L 167.53 176.06 C 166.25 176.30 165.42 177.53 165.66 178.80 C 165.90 180.07 167.12 180.91 168.39 180.67 Z M 169.36 180.47 L 170.40 180.30 C 171.67 180.08 172.52 178.88 172.31 177.62 C 172.10 176.35 170.90 175.49 169.63 175.70 L 168.60 175.88 C 167.33 176.09 166.47 177.29 166.68 178.56 C 166.90 179.82 168.10 180.68 169.36 180.47 Z M 170.34 180.29 L 171.18 180.17 C 172.44 179.99 173.32 178.82 173.15 177.56 C 172.97 176.30 171.80 175.42 170.54 175.59 L 169.69 175.71 C 168.43 175.89 167.55 177.06 167.73 178.32 C 167.90 179.58 169.07 180.46 170.34 180.29 Z M 171.14 180.16 L 172.13 180.04 C 173.39 179.89 174.29 178.74 174.14 177.48 C 173.98 176.22 172.84 175.33 171.58 175.48 L 170.58 175.60 C 169.32 175.75 168.42 176.90 168.58 178.16 C 168.73 179.42 169.88 180.31 171.14 180.16 Z M 172.09 180.04 L 173.07 179.94 C 174.33 179.81 175.25 178.68 175.12 177.42 C 174.99 176.16 173.87 175.25 172.61 175.38 L 171.62 175.48 C 170.36 175.61 169.45 176.73 169.57 177.99 C 169.70 179.25 170.83 180.17 172.09 180.04 Z M 173.04 179.94 L 174.04 179.85 C 175.30 179.74 176.23 178.63 176.12 177.37 C 176.01 176.11 174.90 175.18 173.64 175.29 L 172.64 175.38 C 171.38 175.49 170.45 176.60 170.56 177.86 C 170.67 179.12 171.78 180.05 173.04 179.94 Z M 174.02 179.85 L 175.02 179.77 C 176.28 179.67 177.22 178.57 177.12 177.31 C 177.02 176.05 175.92 175.11 174.66 175.21 L 173.66 175.29 C 172.40 175.39 171.46 176.49 171.56 177.75 C 171.66 179.01 172.76 179.95 174.02 179.85 Z M 174.99 179.77 L 175.94 179.70 C 177.20 179.62 178.15 178.53 178.06 177.27 C 177.98 176.02 176.89 175.07 175.63 175.15 L 174.69 175.21 C 173.43 175.30 172.48 176.39 172.56 177.64 C 172.65 178.90 173.73 179.85 174.99 179.77 Z M 175.88 179.70 L 176.84 179.66 C 178.10 179.61 179.08 178.55 179.02 177.29 C 178.97 176.03 177.91 175.06 176.65 175.11 L 175.69 175.15 C 174.43 175.21 173.46 176.27 173.51 177.52 C 173.56 178.78 174.63 179.76 175.88 179.70 Z M 176.79 179.66 L 177.82 179.64 C 179.07 179.62 180.07 178.59 180.05 177.33 C 180.03 176.07 178.99 175.07 177.74 175.10 L 176.71 175.11 C 175.45 175.14 174.45 176.17 174.47 177.43 C 174.50 178.68 175.53 179.68 176.79 179.66 Z M 177.79 179.64 L 178.80 179.63 C 180.05 179.62 181.06 178.60 181.05 177.35 C 181.05 176.10 180.03 175.09 178.78 175.10 L 177.77 175.10 C 176.51 175.11 175.51 176.13 175.51 177.38 C 175.52 178.63 176.54 179.64 177.79 179.64 Z M 178.79 179.62 L 179.83 179.62 C 181.08 179.62 182.09 178.61 182.09 177.36 C 182.09 176.11 181.07 175.10 179.83 175.10 L 178.79 175.10 C 177.54 175.11 176.53 176.12 176.53 177.37 C 176.53 178.61 177.54 179.62 178.79 179.62 Z M 179.81 179.61 L 180.90 179.62 C 182.14 179.63 183.15 178.63 183.17 177.39 C 183.18 176.15 182.18 175.14 180.94 175.13 L 179.85 175.12 C 178.61 175.11 177.59 176.10 177.58 177.34 C 177.57 178.58 178.57 179.60 179.81 179.61 Z M 180.73 179.59 L 181.70 179.67 C 182.92 179.77 184.00 178.86 184.10 177.64 C 184.20 176.42 183.30 175.34 182.07 175.24 L 181.11 175.16 C 179.89 175.05 178.81 175.96 178.71 177.18 C 178.60 178.41 179.51 179.48 180.73 179.59 Z M 181.23 179.55 L 182.14 179.83 C 183.30 180.19 184.53 179.55 184.89 178.39 C 185.25 177.23 184.61 176.00 183.45 175.64 L 182.54 175.35 C 181.38 175.00 180.15 175.64 179.79 176.80 C 179.43 177.96 180.07 179.19 181.23 179.55 Z M 181.65 179.58 L 182.49 180.10 C 183.51 180.73 184.85 180.41 185.48 179.40 C 186.11 178.38 185.79 177.04 184.77 176.41 L 183.94 175.89 C 182.92 175.26 181.58 175.58 180.95 176.59 C 180.32 177.61 180.64 178.95 181.65 179.58 Z M 182.36 179.99 L 182.60 180.16 C 183.55 180.86 184.90 180.65 185.60 179.70 C 186.30 178.74 186.10 177.39 185.14 176.69 L 184.90 176.52 C 183.95 175.82 182.60 176.03 181.90 176.98 C 181.20 177.94 181.40 179.29 182.36 179.99 Z"
      fill="black"
      fill-rule="nonzero" /></svg>