<svg xmlns="http://www.w3.org/2000/svg" width="300" height="300" viewBox="0 0 300 300">
<path d="M 122.36 120.53 L 122.23 121.49 C 122.07 122.61 122.86 123.64 123.98 123.79 C 125.10 123.95 126.13 123.16 126.29 122.04 L 126.42 121.09 C 126.57 119.97 125.79 118.94 124.67 118.78 C 123.55 118.63 122.51 119.41 122.36 120.53 Z M 122.23 121.31 L 122.01 122.32 C 121.76 123.43 122.46 124.54 123.58 124.80 C 124.70 125.05 125.81 124.34 126.06 123.22 L 126.28 122.22 C 126.53 121.10 125.83 119.99 124.71 119.74 C 123.59 119.49 122.48 120.19 122.23 121.31 Z M 122.05 122.14 L 121.74 123.10 C 121.39 124.20 122.00 125.37 123.09 125.72 C 124.19 126.06 125.36 125.46 125.71 124.36 L 126.02 123.40 C 126.36 122.30 125.76 121.13 124.66 120.79 C 123.57 120.44 122.40 121.04 122.05 122.14 Z M 121.78 123.03 L 121.44 123.98 C 121.05 125.06 121.61 126.24 122.68 126.63 C 123.76 127.02 124.95 126.46 125.33 125.38 L 125.67 124.43 C 126.06 123.36 125.50 122.17 124.43 121.78 C 123.35 121.40 122.16 121.96 121.78 123.03 Z M 121.45 123.96 L 121.10 124.91 C 120.70 125.98 121.24 127.17 122.31 127.56 C 123.38 127.96 124.57 127.42 124.96 126.35 L 125.32 125.40 C 125.71 124.33 125.17 123.15 124.10 122.75 C 123.04 122.35 121.85 122.89 121.45 123.96 Z M 121.11 124.88 L 120.76 125.77 C 120.35 126.83 120.87 128.03 121.92 128.44 C 122.98 128.86 124.18 128.34 124.59 127.28 L 124.95 126.38 C 125.36 125.33 124.84 124.13 123.78 123.71 C 122.73 123.30 121.53 123.82 121.11 124.88 Z M 120.78 125.73 L 120.40 126.64 C 119.96 127.68 120.44 128.89 121.49 129.33 C 122.54 129.78 123.74 129.29 124.19 128.24 L 124.57 127.33 C 125.02 126.28 124.53 125.07 123.48 124.63 C 122.43 124.19 121.23 124.68 120.78 125.73 Z M 120.42 126.59 L 120.00 127.51 C 119.53 128.54 119.99 129.76 121.03 130.23 C 122.06 130.70 123.28 130.24 123.75 129.20 L 124.17 128.29 C 124.63 127.25 124.18 126.03 123.14 125.57 C 122.11 125.10 120.89 125.55 120.42 126.59 Z M 120.02 127.46 L 119.59 128.36 C 119.10 129.38 119.53 130.61 120.55 131.11 C 121.58 131.60 122.80 131.17 123.30 130.15 L 123.73 129.25 C 124.22 128.22 123.79 126.99 122.77 126.50 C 121.75 126.01 120.52 126.44 120.02 127.46 Z M 119.61 128.33 L 119.15 129.23 C 118.64 130.25 119.05 131.48 120.06 131.99 C 121.08 132.51 122.31 132.10 122.82 131.08 L 123.28 130.18 C 123.79 129.17 123.38 127.93 122.37 127.42 C 121.36 126.91 120.12 127.31 119.61 128.33 Z M 119.17 129.20 L 118.70 130.08 C 118.18 131.09 118.57 132.33 119.57 132.86 C 120.58 133.39 121.82 133.00 122.35 131.99 L 122.81 131.11 C 123.34 130.10 122.95 128.86 121.94 128.33 C 120.93 127.81 119.69 128.20 119.17 129.20 Z M 118.71 130.07 L 118.24 130.96 C 117.70 131.96 118.08 133.21 119.08 133.74 C 120.08 134.28 121.33 133.90 121.86 132.90 L 122.34 132.01 C 122.88 131.01 122.50 129.76 121.50 129.22 C 120.50 128.69 119.25 129.06 118.71 130.07 Z M 118.24 130.95 L 117.77 131.82 C 117.22 132.82 117.59 134.07 118.59 134.61 C 119.59 135.15 120.84 134.79 121.38 133.79 L 121.86 132.91 C 122.40 131.92 122.03 130.67 121.03 130.12 C 120.04 129.58 118.79 129.95 118.24 130.95 Z M 117.77 131.80 L 117.29 132.68 C 116.73 133.68 117.09 134.93 118.09 135.48 C 119.08 136.03 120.33 135.68 120.89 134.68 L 121.37 133.80 C 121.93 132.81 121.57 131.55 120.57 131.00 C 119.58 130.45 118.33 130.81 117.77 131.80 Z M 117.29 132.66 L 116.80 133.53 C 116.24 134.52 116.59 135.78 117.58 136.34 C 118.57 136.90 119.82 136.56 120.38 135.57 L 120.88 134.70 C 121.44 133.71 121.09 132.45 120.10 131.89 C 119.11 131.33 117.86 131.68 117.29 132.66 Z M 116.81 133.52 L 116.31 134.38 C 115.74 135.37 116.07 136.63 117.05 137.20 C 118.04 137.77 119.30 137.44 119.87 136.45 L 120.38 135.59 C 120.95 134.60 120.61 133.34 119.63 132.77 C 118.64 132.20 117.38 132.53 116.81 133.52 Z M 116.32 134.36 L 115.80 135.24 C 115.21 136.21 115.54 137.48 116.51 138.06 C 117.49 138.65 118.76 138.32 119.34 137.35 L 119.86 136.47 C 120.45 135.49 120.12 134.23 119.15 133.64 C 118.17 133.06 116.90 133.38 116.32 134.36 Z M 115.81 135.22 L 115.28 136.09 C 114.68 137.06 114.99 138.33 115.96 138.92 C 116.94 139.52 118.21 139.21 118.80 138.24 L 119.33 137.37 C 119.93 136.39 119.62 135.12 118.64 134.53 C 117.67 133.93 116.40 134.24 115.81 135.22 Z M 115.29 136.07 L 114.77 136.89 C 114.16 137.86 114.46 139.14 115.42 139.74 C 116.39 140.35 117.67 140.05 118.27 139.09 L 118.79 138.26 C 119.39 137.29 119.10 136.02 118.13 135.41 C 117.17 134.80 115.89 135.10 115.29 136.07 Z M 114.78 136.87 L 114.22 137.74 C 113.60 138.70 113.87 139.98 114.83 140.60 C 115.79 141.22 117.08 140.94 117.70 139.98 L 118.26 139.11 C 118.88 138.15 118.60 136.87 117.64 136.25 C 116.68 135.63 115.40 135.91 114.78 136.87 Z M 114.24 137.69 L 113.73 138.45 C 113.08 139.40 113.33 140.69 114.27 141.34 C 115.22 141.98 116.51 141.73 117.16 140.79 L 117.67 140.03 C 118.32 139.08 118.07 137.79 117.12 137.14 C 116.18 136.50 114.89 136.75 114.24 137.69 Z M 113.76 138.40 L 113.21 139.14 C 112.54 140.07 112.74 141.37 113.67 142.05 C 114.60 142.73 115.90 142.52 116.58 141.59 L 117.12 140.85 C 117.80 139.92 117.59 138.62 116.67 137.94 C 115.74 137.26 114.44 137.47 113.76 138.40 Z M 113.25 139.09 L 112.54 140.00 C 111.84 140.92 112.00 142.23 112.92 142.93 C 113.83 143.63 115.14 143.47 115.84 142.56 L 116.55 141.64 C 117.25 140.73 117.08 139.42 116.17 138.72 C 115.26 138.01 113.95 138.18 113.25 139.09 Z M 112.52 140.03 L 111.82 140.96 C 111.13 141.89 111.32 143.20 112.25 143.89 C 113.17 144.58 114.48 144.39 115.17 143.46 L 115.87 142.53 C 116.56 141.60 116.36 140.29 115.44 139.61 C 114.51 138.92 113.21 139.11 112.52 140.03 Z M 111.63 141.27 L 111.28 141.95 C 110.76 142.98 111.18 144.24 112.21 144.76 C 113.24 145.28 114.50 144.87 115.02 143.83 L 115.36 143.15 C 115.88 142.12 115.47 140.86 114.44 140.35 C 113.40 139.83 112.15 140.24 111.63 141.27 Z M 112.97 144.98 L 113.62 145.04 C 114.78 145.14 115.80 144.29 115.90 143.14 C 116.00 141.99 115.15 140.97 114.00 140.87 L 113.34 140.81 C 112.19 140.70 111.17 141.55 111.07 142.71 C 110.96 143.86 111.81 144.88 112.97 144.98 Z M 114.42 144.96 L 115.53 144.62 C 116.64 144.29 117.26 143.11 116.92 142.00 C 116.58 140.90 115.41 140.27 114.30 140.61 L 113.20 140.94 C 112.09 141.28 111.47 142.46 111.80 143.57 C 112.14 144.67 113.32 145.30 114.42 144.96 Z M 115.47 144.64 L 116.42 144.39 C 117.54 144.08 118.20 142.93 117.89 141.81 C 117.59 140.69 116.43 140.03 115.31 140.33 L 114.36 140.59 C 113.24 140.89 112.58 142.05 112.89 143.17 C 113.19 144.29 114.35 144.95 115.47 144.64 Z M 116.35 144.41 L 117.35 144.17 C 118.48 143.90 119.18 142.77 118.92 141.64 C 118.65 140.51 117.52 139.81 116.39 140.07 L 115.38 140.31 C 114.25 140.58 113.55 141.71 113.82 142.84 C 114.08 143.97 115.22 144.67 116.35 144.41 Z M 117.30 144.18 L 118.23 143.99 C 119.37 143.75 120.10 142.63 119.86 141.49 C 119.63 140.36 118.51 139.63 117.37 139.86 L 116.44 140.06 C 115.30 140.30 114.57 141.41 114.81 142.55 C 115.05 143.69 116.16 144.42 117.30 144.18 Z M 118.21 143.99 L 119.20 143.80 C 120.34 143.58 121.09 142.47 120.87 141.33 C 120.64 140.19 119.54 139.44 118.40 139.66 L 117.40 139.86 C 116.26 140.08 115.51 141.19 115.74 142.33 C 115.96 143.47 117.06 144.22 118.21 143.99 Z M 119.19 143.80 L 120.23 143.61 C 121.37 143.39 122.13 142.29 121.91 141.14 C 121.69 140.00 120.59 139.25 119.45 139.46 L 118.41 139.66 C 117.26 139.88 116.51 140.98 116.73 142.12 C 116.94 143.27 118.05 144.02 119.19 143.80 Z M 120.23 143.61 L 121.27 143.41 C 122.41 143.20 123.16 142.10 122.95 140.95 C 122.74 139.81 121.63 139.05 120.49 139.27 L 119.45 139.46 C 118.31 139.68 117.55 140.78 117.77 141.92 C 117.98 143.07 119.08 143.82 120.23 143.61 Z M 121.27 143.41 L 122.24 143.23 C 123.38 143.02 124.14 141.92 123.92 140.77 C 123.71 139.63 122.61 138.87 121.47 139.09 L 120.49 139.27 C 119.35 139.48 118.59 140.58 118.81 141.73 C 119.02 142.87 120.12 143.62 121.27 143.41 Z M 122.23 143.23 L 123.24 143.04 C 124.38 142.83 125.14 141.73 124.93 140.59 C 124.72 139.45 123.62 138.69 122.48 138.90 L 121.47 139.09 C 120.33 139.30 119.57 140.40 119.78 141.54 C 119.99 142.68 121.09 143.44 122.23 143.23 Z M 123.23 143.04 L 124.18 142.87 C 125.32 142.67 126.08 141.57 125.88 140.43 C 125.67 139.29 124.58 138.53 123.44 138.73 L 122.49 138.90 C 121.34 139.11 120.58 140.20 120.79 141.34 C 120.99 142.49 122.09 143.25 123.23 143.04 Z M 124.17 142.87 L 125.09 142.71 C 126.23 142.51 127.00 141.42 126.80 140.28 C 126.60 139.14 125.51 138.38 124.37 138.57 L 123.45 138.74 C 122.31 138.93 121.54 140.02 121.74 141.16 C 121.94 142.30 123.03 143.07 124.17 142.87 Z M 125.08 142.71 L 126.07 142.54 C 127.21 142.35 127.98 141.27 127.79 140.13 C 127.60 138.99 126.52 138.22 125.38 138.41 L 124.39 138.58 C 123.25 138.77 122.48 139.85 122.67 140.99 C 122.86 142.13 123.94 142.90 125.08 142.71 Z M 126.05 142.54 L 127.04 142.38 C 128.17 142.20 128.95 141.13 128.77 139.99 C 128.59 138.86 127.52 138.08 126.38 138.26 L 125.40 138.41 C 124.26 138.59 123.48 139.66 123.66 140.80 C 123.84 141.94 124.91 142.72 126.05 142.54 Z M 127.03 142.37 L 128.03 142.22 C 129.16 142.04 129.93 140.97 129.76 139.84 C 129.58 138.71 128.51 137.93 127.38 138.11 L 126.39 138.27 C 125.25 138.44 124.48 139.51 124.66 140.64 C 124.83 141.78 125.90 142.55 127.03 142.37 Z M 128.03 142.21 L 129.02 142.05 C 130.15 141.87 130.92 140.80 130.73 139.67 C 130.55 138.54 129.49 137.78 128.36 137.96 L 127.37 138.12 C 126.24 138.30 125.48 139.37 125.66 140.50 C 125.84 141.62 126.90 142.39 128.03 142.21 Z M 129.02 142.04 L 129.93 141.89 C 131.06 141.70 131.82 140.64 131.63 139.52 C 131.45 138.40 130.39 137.64 129.27 137.82 L 128.36 137.97 C 127.23 138.16 126.47 139.21 126.66 140.34 C 126.84 141.46 127.90 142.22 129.02 142.04 Z M 129.94 141.87 L 130.95 141.70 C 132.06 141.52 132.82 140.47 132.63 139.35 C 132.45 138.24 131.39 137.49 130.28 137.67 L 129.27 137.84 C 128.15 138.02 127.40 139.07 127.58 140.19 C 127.77 141.30 128.82 142.06 129.94 141.87 Z M 130.95 141.69 L 131.94 141.52 C 133.04 141.34 133.79 140.29 133.60 139.19 C 133.42 138.08 132.37 137.34 131.27 137.52 L 130.28 137.69 C 129.17 137.87 128.43 138.92 128.61 140.02 C 128.80 141.13 129.84 141.87 130.95 141.69 Z M 131.93 141.51 L 132.94 141.34 C 134.04 141.16 134.78 140.12 134.60 139.02 C 134.42 137.93 133.38 137.19 132.28 137.37 L 131.27 137.54 C 130.18 137.72 129.44 138.76 129.62 139.85 C 129.80 140.95 130.84 141.69 131.93 141.51 Z M 132.93 141.32 L 133.94 141.16 C 135.03 140.98 135.77 139.96 135.59 138.87 C 135.42 137.78 134.39 137.04 133.31 137.22 L 132.30 137.38 C 131.21 137.56 130.47 138.59 130.64 139.67 C 130.82 140.76 131.85 141.50 132.93 141.32 Z M 133.92 141.14 L 134.97 140.98 C 136.04 140.82 136.79 139.82 136.62 138.74 C 136.46 137.66 135.46 136.92 134.38 137.08 L 133.33 137.24 C 132.26 137.40 131.52 138.41 131.68 139.48 C 131.84 140.56 132.84 141.30 133.92 141.14 Z M 134.90 140.95 L 135.86 140.84 C 136.92 140.71 137.68 139.75 137.55 138.69 C 137.43 137.63 136.46 136.87 135.40 137.00 L 134.45 137.11 C 133.39 137.24 132.63 138.20 132.75 139.26 C 132.88 140.32 133.84 141.08 134.90 140.95 Z M 135.76 140.82 L 136.73 140.75 C 137.78 140.68 138.57 139.78 138.51 138.73 C 138.44 137.68 137.53 136.89 136.49 136.96 L 135.51 137.02 C 134.46 137.09 133.67 137.99 133.74 139.04 C 133.80 140.09 134.71 140.88 135.76 140.82 Z M 136.64 140.72 L 137.64 140.70 C 138.67 140.69 139.49 139.83 139.47 138.80 C 139.46 137.77 138.60 136.95 137.57 136.97 L 136.58 136.99 C 135.54 137.01 134.72 137.86 134.74 138.89 C 134.76 139.92 135.61 140.74 136.64 140.72 Z M 137.61 140.68 L 138.10 140.68 C 139.12 140.68 139.95 139.85 139.94 138.83 C 139.94 137.82 139.12 136.99 138.10 136.99 L 137.60 136.99 C 136.59 137.00 135.76 137.82 135.76 138.84 C 135.76 139.86 136.59 140.68 137.61 140.68 Z"
      fill="black"
      fill-rule="nonzero" /><path d="M 107.00 164.80 L 107.99 164.80 C 109.13 164.79 110.06 163.86 110.05 162.71 C 110.04 161.56 109.11 160.64 107.96 160.65 L 106.97 160.65 C 105.82 160.66 104.90 161.60 104.91 162.74 C 104.92 163.89 105.85 164.81 107.00 164.80 Z M 108.07 164.85 L 109.07 164.81 C 110.25 164.76 111.16 163.76 111.11 162.59 C 111.06 161.41 110.06 160.50 108.89 160.55 L 107.88 160.59 C 106.71 160.64 105.79 161.64 105.84 162.82 C 105.89 163.99 106.89 164.90 108.07 164.85 Z M 109.21 164.84 L 110.22 164.73 C 111.42 164.60 112.28 163.53 112.15 162.34 C 112.02 161.14 110.95 160.28 109.76 160.41 L 108.74 160.52 C 107.55 160.65 106.69 161.72 106.82 162.91 C 106.94 164.11 108.02 164.97 109.21 164.84 Z M 110.33 164.74 L 111.32 164.59 C 112.52 164.40 113.34 163.28 113.15 162.08 C 112.96 160.88 111.84 160.06 110.64 160.25 L 109.65 160.40 C 108.45 160.59 107.63 161.71 107.82 162.91 C 108.01 164.11 109.13 164.93 110.33 164.74 Z M 111.36 164.60 L 112.34 164.42 C 113.54 164.22 114.35 163.07 114.14 161.87 C 113.93 160.67 112.79 159.86 111.59 160.07 L 110.60 160.24 C 109.40 160.45 108.59 161.59 108.80 162.79 C 109.01 164.00 110.16 164.80 111.36 164.60 Z M 112.36 164.44 L 113.34 164.26 C 114.55 164.04 115.35 162.88 115.13 161.67 C 114.90 160.46 113.74 159.66 112.53 159.88 L 111.56 160.06 C 110.35 160.28 109.55 161.44 109.77 162.65 C 109.99 163.86 111.15 164.66 112.36 164.44 Z M 113.38 164.27 L 114.32 164.08 C 115.53 163.83 116.32 162.65 116.08 161.44 C 115.83 160.22 114.65 159.44 113.44 159.68 L 112.49 159.87 C 111.28 160.12 110.49 161.30 110.74 162.51 C 110.98 163.72 112.16 164.51 113.38 164.27 Z M 114.37 164.08 L 115.34 163.86 C 116.55 163.59 117.32 162.39 117.05 161.18 C 116.78 159.96 115.58 159.19 114.36 159.46 L 113.39 159.68 C 112.17 159.95 111.41 161.15 111.68 162.37 C 111.95 163.58 113.15 164.35 114.37 164.08 Z M 115.38 163.86 L 116.36 163.63 C 117.58 163.34 118.33 162.12 118.04 160.90 C 117.75 159.68 116.52 158.93 115.31 159.23 L 114.32 159.46 C 113.11 159.75 112.36 160.97 112.65 162.19 C 112.94 163.41 114.16 164.16 115.38 163.86 Z M 116.39 163.63 L 117.33 163.39 C 118.55 163.08 119.29 161.85 118.98 160.63 C 118.67 159.42 117.44 158.68 116.22 158.99 L 115.28 159.23 C 114.06 159.53 113.33 160.77 113.63 161.98 C 113.94 163.20 115.18 163.94 116.39 163.63 Z M 117.35 163.39 L 118.35 163.13 C 119.57 162.81 120.30 161.57 119.98 160.35 C 119.66 159.14 118.42 158.41 117.21 158.73 L 116.20 158.99 C 114.99 159.30 114.26 160.55 114.57 161.76 C 114.89 162.98 116.13 163.71 117.35 163.39 Z M 118.36 163.13 L 119.32 162.88 C 120.53 162.56 121.26 161.31 120.94 160.09 C 120.62 158.88 119.37 158.15 118.15 158.47 L 117.20 158.72 C 115.98 159.05 115.25 160.29 115.58 161.51 C 115.90 162.73 117.14 163.45 118.36 163.13 Z M 119.32 162.88 L 120.28 162.63 C 121.49 162.30 122.22 161.05 121.90 159.84 C 121.57 158.62 120.32 157.89 119.11 158.22 L 118.15 158.47 C 116.93 158.80 116.21 160.04 116.53 161.26 C 116.85 162.48 118.10 163.20 119.32 162.88 Z M 120.28 162.63 L 121.27 162.36 C 122.49 162.04 123.21 160.79 122.89 159.57 C 122.56 158.36 121.32 157.63 120.10 157.95 L 119.11 158.22 C 117.89 158.54 117.16 159.79 117.49 161.01 C 117.81 162.22 119.06 162.95 120.28 162.63 Z M 121.27 162.36 L 122.23 162.11 C 123.45 161.79 124.17 160.54 123.85 159.32 C 123.53 158.10 122.28 157.38 121.06 157.70 L 120.10 157.95 C 118.88 158.28 118.16 159.52 118.48 160.74 C 118.80 161.96 120.05 162.68 121.27 162.36 Z M 122.23 162.11 L 123.19 161.85 C 124.41 161.53 125.13 160.28 124.81 159.06 C 124.48 157.85 123.24 157.12 122.02 157.45 L 121.06 157.70 C 119.85 158.02 119.12 159.27 119.44 160.49 C 119.77 161.70 121.02 162.43 122.23 162.11 Z M 123.20 161.85 L 124.17 161.58 C 125.39 161.26 126.11 160.01 125.78 158.79 C 125.45 157.58 124.20 156.86 122.99 157.19 L 122.01 157.45 C 120.80 157.78 120.08 159.03 120.41 160.24 C 120.73 161.46 121.98 162.18 123.20 161.85 Z M 124.19 161.58 L 125.16 161.31 C 126.37 160.97 127.08 159.72 126.74 158.51 C 126.41 157.30 125.15 156.59 123.94 156.92 L 122.97 157.19 C 121.76 157.53 121.05 158.78 121.39 159.99 C 121.72 161.21 122.98 161.92 124.19 161.58 Z M 125.17 161.30 L 126.12 161.03 C 127.33 160.69 128.03 159.43 127.68 158.22 C 127.34 157.02 126.08 156.32 124.87 156.66 L 123.93 156.93 C 122.72 157.28 122.02 158.53 122.37 159.74 C 122.71 160.95 123.97 161.65 125.17 161.30 Z M 126.13 161.03 L 127.09 160.75 C 128.30 160.40 128.99 159.14 128.64 157.93 C 128.29 156.73 127.03 156.04 125.83 156.39 L 124.86 156.67 C 123.66 157.02 122.97 158.28 123.32 159.48 C 123.67 160.68 124.93 161.38 126.13 161.03 Z M 127.10 160.74 L 128.07 160.45 C 129.28 160.10 129.96 158.84 129.61 157.64 C 129.26 156.44 128.00 155.76 126.80 156.11 L 125.82 156.39 C 124.62 156.75 123.93 158.00 124.28 159.20 C 124.64 160.41 125.90 161.09 127.10 160.74 Z M 128.07 160.45 L 129.05 160.16 C 130.25 159.81 130.93 158.56 130.58 157.36 C 130.23 156.16 128.98 155.47 127.78 155.83 L 126.80 156.11 C 125.60 156.46 124.92 157.72 125.27 158.92 C 125.62 160.11 126.88 160.80 128.07 160.45 Z M 129.05 160.16 L 130.03 159.87 C 131.22 159.52 131.90 158.26 131.55 157.07 C 131.20 155.88 129.95 155.19 128.75 155.55 L 127.78 155.83 C 126.58 156.18 125.90 157.44 126.25 158.63 C 126.60 159.82 127.86 160.51 129.05 160.16 Z M 130.03 159.86 L 130.99 159.57 C 132.18 159.22 132.85 157.97 132.50 156.78 C 132.15 155.59 130.90 154.92 129.71 155.27 L 128.75 155.55 C 127.56 155.91 126.88 157.16 127.24 158.35 C 127.59 159.54 128.84 160.21 130.03 159.86 Z M 130.99 159.56 L 131.94 159.28 C 133.12 158.92 133.79 157.67 133.44 156.49 C 133.08 155.31 131.83 154.64 130.65 154.99 L 129.70 155.28 C 128.52 155.64 127.85 156.89 128.20 158.07 C 128.56 159.25 129.81 159.92 130.99 159.56 Z M 131.95 159.26 L 132.95 158.96 C 134.12 158.59 134.78 157.34 134.41 156.17 C 134.05 154.99 132.80 154.34 131.63 154.70 L 130.63 155.01 C 129.46 155.37 128.80 156.62 129.17 157.80 C 129.53 158.97 130.78 159.63 131.95 159.26 Z M 132.96 158.94 L 133.90 158.64 C 135.07 158.26 135.71 157.01 135.33 155.85 C 134.96 154.68 133.71 154.04 132.55 154.42 L 131.61 154.72 C 130.44 155.09 129.80 156.34 130.18 157.51 C 130.55 158.67 131.80 159.31 132.96 158.94 Z M 133.92 158.62 L 134.84 158.31 C 135.99 157.92 136.61 156.67 136.22 155.52 C 135.84 154.37 134.59 153.74 133.43 154.13 L 132.52 154.44 C 131.37 154.82 130.75 156.07 131.13 157.23 C 131.52 158.38 132.77 159.00 133.92 158.62 Z M 134.86 158.29 L 135.82 157.95 C 136.96 157.55 137.56 156.30 137.16 155.16 C 136.76 154.02 135.51 153.42 134.37 153.82 L 133.41 154.15 C 132.27 154.55 131.67 155.80 132.07 156.94 C 132.47 158.09 133.72 158.69 134.86 158.29 Z M 135.83 157.93 L 136.77 157.59 C 137.90 157.19 138.48 155.94 138.08 154.81 C 137.67 153.68 136.42 153.10 135.29 153.50 L 134.36 153.84 C 133.23 154.25 132.64 155.49 133.05 156.62 C 133.45 157.75 134.70 158.34 135.83 157.93 Z M 136.77 157.57 L 137.70 157.23 C 138.82 156.83 139.40 155.59 138.99 154.47 C 138.58 153.35 137.34 152.77 136.23 153.18 L 135.29 153.52 C 134.17 153.93 133.60 155.17 134.00 156.29 C 134.41 157.41 135.65 157.98 136.77 157.57 Z M 137.70 157.21 L 138.66 156.86 C 139.76 156.46 140.34 155.23 139.93 154.13 C 139.53 153.02 138.30 152.45 137.19 152.85 L 136.23 153.20 C 135.12 153.60 134.55 154.83 134.96 155.94 C 135.36 157.05 136.59 157.62 137.70 157.21 Z M 138.65 156.84 L 139.58 156.50 C 140.68 156.10 141.24 154.89 140.84 153.79 C 140.44 152.69 139.22 152.13 138.13 152.53 L 137.20 152.87 C 136.10 153.27 135.54 154.49 135.94 155.58 C 136.34 156.68 137.55 157.24 138.65 156.84 Z M 139.58 156.48 L 140.52 156.13 C 141.60 155.73 142.16 154.53 141.76 153.44 C 141.35 152.36 140.15 151.81 139.07 152.21 L 138.13 152.56 C 137.05 152.96 136.49 154.16 136.89 155.24 C 137.29 156.33 138.50 156.88 139.58 156.48 Z M 140.52 156.10 L 141.46 155.75 C 142.53 155.34 143.07 154.15 142.67 153.09 C 142.27 152.02 141.08 151.48 140.01 151.88 L 139.07 152.24 C 138.00 152.64 137.46 153.83 137.86 154.89 C 138.26 155.96 139.45 156.50 140.52 156.10 Z M 141.46 155.72 L 142.37 155.37 C 143.42 154.97 143.95 153.79 143.55 152.74 C 143.15 151.69 141.97 151.17 140.92 151.57 L 140.01 151.91 C 138.96 152.31 138.44 153.49 138.84 154.54 C 139.24 155.59 140.41 156.12 141.46 155.72 Z M 142.37 155.34 L 143.31 154.97 C 144.35 154.57 144.86 153.41 144.46 152.38 C 144.06 151.34 142.89 150.83 141.86 151.23 L 140.92 151.60 C 139.89 152.00 139.38 153.16 139.78 154.19 C 140.18 155.23 141.34 155.74 142.37 155.34 Z M 143.34 154.93 L 144.25 154.55 C 145.26 154.14 145.74 152.99 145.33 151.98 C 144.92 150.97 143.76 150.49 142.75 150.90 L 141.84 151.28 C 140.83 151.69 140.35 152.84 140.76 153.85 C 141.18 154.86 142.33 155.34 143.34 154.93 Z M 144.29 154.50 L 145.19 154.10 C 146.17 153.67 146.61 152.52 146.17 151.54 C 145.74 150.56 144.59 150.12 143.61 150.56 L 142.71 150.95 C 141.74 151.39 141.29 152.54 141.73 153.51 C 142.17 154.49 143.31 154.94 144.29 154.50 Z M 145.23 154.05 L 146.13 153.61 C 147.08 153.15 147.48 152.01 147.02 151.07 C 146.56 150.12 145.43 149.72 144.48 150.18 L 143.57 150.61 C 142.62 151.07 142.23 152.21 142.68 153.16 C 143.14 154.10 144.28 154.50 145.23 154.05 Z M 146.17 153.56 L 147.08 153.09 C 148.00 152.61 148.36 151.48 147.89 150.56 C 147.41 149.64 146.28 149.28 145.36 149.75 L 144.44 150.23 C 143.52 150.70 143.16 151.83 143.64 152.75 C 144.11 153.67 145.24 154.04 146.17 153.56 Z M 147.13 153.03 L 148.02 152.54 C 148.91 152.03 149.22 150.90 148.72 150.01 C 148.22 149.12 147.09 148.80 146.19 149.30 L 145.31 149.80 C 144.42 150.31 144.10 151.44 144.60 152.33 C 145.11 153.22 146.24 153.54 147.13 153.03 Z M 148.12 152.45 L 148.95 151.90 C 149.80 151.35 150.03 150.21 149.47 149.36 C 148.92 148.51 147.78 148.28 146.93 148.84 L 146.10 149.39 C 145.25 149.94 145.01 151.08 145.57 151.93 C 146.13 152.78 147.27 153.01 148.12 152.45 Z M 149.08 151.78 L 149.86 151.16 C 150.64 150.53 150.76 149.38 150.13 148.60 C 149.50 147.82 148.35 147.70 147.57 148.33 L 146.80 148.96 C 146.02 149.59 145.90 150.73 146.53 151.51 C 147.16 152.29 148.30 152.42 149.08 151.78 Z M 149.91 151.10 L 150.23 150.81 C 150.98 150.15 151.05 149.01 150.39 148.26 C 149.73 147.52 148.59 147.45 147.84 148.11 L 147.52 148.39 C 146.77 149.05 146.70 150.20 147.36 150.94 C 148.02 151.69 149.16 151.76 149.91 151.10 Z"
      fill="black"
      fill-rule="nonzero" /><path d="M 131.27 129.65 L 131.27 130.71 C 131.27 131.82 132.17 132.72 133.28 132.72 C 134.39 132.72 135.29 131.82 135.29 130.71 L 135.29 129.65 C 135.29 128.54 134.39 127.64 133.28 127.64 C 132.17 127.64 131.27 128.54 131.27 129.65 Z M 131.14 130.71 L 131.14 131.69 C 131.14 132.87 132.10 133.83 133.28 133.83 C 134.47 133.83 135.42 132.87 135.42 131.69 L 135.42 130.71 C 135.42 129.53 134.47 128.57 133.28 128.57 C 132.10 128.57 131.14 129.53 131.14 130.71 Z M 131.05 131.69 L 131.05 132.69 C 131.05 133.92 132.05 134.92 133.28 134.92 C 134.52 134.92 135.51 133.92 135.51 132.69 L 135.51 131.69 C 135.51 130.46 134.52 129.46 133.28 129.46 C 132.05 129.46 131.05 130.46 131.05 131.69 Z M 131.02 132.69 L 131.02 133.65 C 131.02 134.91 132.03 135.92 133.28 135.92 C 134.53 135.92 135.55 134.91 135.55 133.65 L 135.55 132.69 C 135.55 131.43 134.53 130.42 133.28 130.42 C 132.03 130.42 131.02 131.43 131.02 132.69 Z M 131.01 133.65 L 131.01 134.60 C 131.01 135.86 132.03 136.88 133.28 136.88 C 134.54 136.88 135.56 135.86 135.56 134.60 L 135.56 133.65 C 135.56 132.40 134.54 131.38 133.28 131.38 C 132.03 131.38 131.01 132.40 131.01 133.65 Z M 131.00 134.60 L 131.00 135.63 C 131.00 136.89 132.02 137.91 133.28 137.91 C 134.55 137.91 135.57 136.89 135.57 135.63 L 135.57 134.60 C 135.57 133.34 134.55 132.32 133.28 132.32 C 132.02 132.32 131.00 133.34 131.00 134.60 Z M 130.99 135.63 L 130.99 136.61 C 130.99 137.88 132.02 138.90 133.28 138.90 C 134.55 138.90 135.57 137.88 135.57 136.61 L 135.57 135.63 C 135.57 134.37 134.55 133.34 133.28 133.34 C 132.02 133.34 130.99 134.37 130.99 135.63 Z M 130.99 136.61 L 130.99 137.61 C 130.99 138.88 132.02 139.91 133.28 139.91 C 134.55 139.91 135.58 138.88 135.58 137.61 L 135.58 136.61 C 135.58 135.34 134.55 134.32 133.28 134.32 C 132.02 134.32 130.99 135.34 130.99 136.61 Z M 130.98 137.61 L 130.98 138.64 C 130.98 139.91 132.01 140.94 133.28 140.94 C 134.55 140.94 135.58 139.91 135.58 138.64 L 135.58 137.61 C 135.58 136.34 134.55 135.31 133.28 135.31 C 132.01 135.31 130.98 136.34 130.98 137.61 Z M 130.98 138.64 L 130.98 139.61 C 130.98 140.88 132.01 141.91 133.28 141.91 C 134.56 141.91 135.59 140.88 135.59 139.61 L 135.59 138.64 C 135.59 137.37 134.56 136.33 133.28 136.33 C 132.01 136.33 130.98 137.37 130.98 138.64 Z M 130.98 139.61 L 130.98 140.62 C 130.98 141.89 132.01 142.92 133.28 142.92 C 134.56 142.92 135.59 141.89 135.59 140.62 L 135.59 139.61 C 135.59 138.33 134.56 137.30 133.28 137.30 C 132.01 137.30 130.98 138.33 130.98 139.61 Z M 130.98 140.62 L 130.98 141.63 C 130.98 142.91 132.01 143.94 133.28 143.94 C 134.56 143.94 135.59 142.91 135.59 141.63 L 135.59 140.62 C 135.59 139.35 134.56 138.32 133.28 138.32 C 132.01 138.32 130.98 139.35 130.98 140.62 Z M 130.98 141.63 L 130.98 142.61 C 130.98 143.88 132.01 144.91 133.28 144.91 C 134.56 144.91 135.59 143.88 135.59 142.61 L 135.59 141.63 C 135.59 140.36 134.56 139.33 133.28 139.33 C 132.01 139.33 130.98 140.36 130.98 141.63 Z M 130.98 142.61 L 130.98 143.62 C 130.98 144.89 132.01 145.92 133.28 145.92 C 134.56 145.92 135.59 144.89 135.59 143.62 L 135.59 142.61 C 135.59 141.34 134.56 140.31 133.28 140.31 C 132.01 140.31 130.98 141.34 130.98 142.61 Z M 130.98 143.62 L 130.98 144.65 C 130.98 145.92 132.01 146.95 133.28 146.95 C 134.56 146.95 135.59 145.92 135.59 144.65 L 135.59 143.62 C 135.59 142.35 134.56 141.31 133.28 141.31 C 132.01 141.31 130.98 142.35 130.98 143.62 Z M 130.98 144.65 L 130.98 145.62 C 130.98 146.89 132.01 147.92 133.28 147.92 C 134.55 147.92 135.58 146.89 135.58 145.62 L 135.58 144.65 C 135.58 143.38 134.55 142.35 133.28 142.35 C 132.01 142.35 130.98 143.38 130.98 144.65 Z M 130.99 145.62 L 130.99 146.62 C 130.99 147.89 132.02 148.92 133.28 148.92 C 134.55 148.92 135.58 147.89 135.58 146.62 L 135.58 145.62 C 135.58 144.35 134.55 143.33 133.28 143.33 C 132.02 143.33 130.99 144.35 130.99 145.62 Z M 130.99 146.62 L 130.99 147.64 C 130.99 148.91 132.02 149.93 133.28 149.93 C 134.55 149.93 135.57 148.91 135.57 147.64 L 135.57 146.62 C 135.57 145.36 134.55 144.33 133.28 144.33 C 132.02 144.33 130.99 145.36 130.99 146.62 Z M 131.00 147.64 L 131.00 148.64 C 131.00 149.90 132.02 150.92 133.28 150.92 C 134.55 150.92 135.57 149.90 135.57 148.64 L 135.57 147.64 C 135.57 146.38 134.55 145.36 133.28 145.36 C 132.02 145.36 131.00 146.38 131.00 147.64 Z M 131.00 148.63 L 131.00 149.62 C 131.00 150.87 132.02 151.90 133.28 151.90 C 134.54 151.90 135.56 150.88 135.56 149.62 L 135.56 148.64 C 135.56 147.38 134.55 146.36 133.29 146.36 C 132.03 146.36 131.01 147.38 131.00 148.63 Z M 131.01 149.61 L 131.00 150.61 C 131.00 151.86 132.01 152.89 133.27 152.89 C 134.52 152.90 135.54 151.88 135.55 150.63 L 135.56 149.63 C 135.56 148.37 134.55 147.35 133.29 147.35 C 132.04 147.34 131.02 148.35 131.01 149.61 Z M 131.01 150.60 L 131.00 151.62 C 130.99 152.87 131.99 153.90 133.24 153.91 C 134.50 153.92 135.52 152.92 135.53 151.67 L 135.54 150.64 C 135.56 149.39 134.55 148.36 133.30 148.35 C 132.05 148.34 131.02 149.34 131.01 150.60 Z M 131.01 151.60 L 130.99 152.61 C 130.97 153.86 131.96 154.89 133.21 154.91 C 134.46 154.93 135.49 153.94 135.51 152.69 L 135.53 151.68 C 135.55 150.43 134.55 149.41 133.31 149.38 C 132.06 149.36 131.03 150.36 131.01 151.60 Z M 131.00 152.59 L 130.98 153.60 C 130.94 154.84 131.92 155.87 133.17 155.90 C 134.41 155.94 135.44 154.96 135.47 153.72 L 135.50 152.71 C 135.53 151.47 134.55 150.43 133.31 150.40 C 132.07 150.37 131.03 151.35 131.00 152.59 Z M 130.99 153.58 L 130.95 154.59 C 130.91 155.82 131.87 156.86 133.11 156.90 C 134.34 156.94 135.38 155.98 135.42 154.75 L 135.46 153.74 C 135.50 152.50 134.54 151.47 133.30 151.42 C 132.07 151.38 131.03 152.34 130.99 153.58 Z M 130.97 154.56 L 130.92 155.55 C 130.86 156.78 131.81 157.82 133.04 157.88 C 134.26 157.94 135.30 156.99 135.36 155.76 L 135.41 154.77 C 135.47 153.54 134.52 152.50 133.29 152.45 C 132.07 152.39 131.02 153.33 130.97 154.56 Z M 130.93 155.52 L 130.87 156.54 C 130.79 157.76 131.72 158.81 132.94 158.89 C 134.16 158.97 135.21 158.04 135.28 156.82 L 135.35 155.80 C 135.42 154.58 134.50 153.53 133.28 153.45 C 132.06 153.38 131.01 154.30 130.93 155.52 Z M 130.88 156.51 L 130.81 157.53 C 130.71 158.74 131.62 159.80 132.83 159.89 C 134.04 159.98 135.10 159.07 135.19 157.86 L 135.27 156.85 C 135.36 155.64 134.46 154.58 133.24 154.49 C 132.03 154.40 130.98 155.30 130.88 156.51 Z M 130.82 157.51 L 130.73 158.49 C 130.63 159.69 131.52 160.75 132.72 160.86 C 133.93 160.96 134.99 160.07 135.09 158.87 L 135.18 157.88 C 135.28 156.68 134.39 155.62 133.19 155.52 C 131.99 155.41 130.92 156.30 130.82 157.51 Z M 130.75 158.48 L 130.66 159.44 C 130.55 160.63 131.43 161.69 132.62 161.80 C 133.82 161.92 134.88 161.04 134.99 159.84 L 135.08 158.88 C 135.19 157.68 134.31 156.62 133.11 156.51 C 131.92 156.40 130.86 157.28 130.75 158.48 Z M 130.67 159.44 L 130.58 160.44 C 130.47 161.63 131.34 162.69 132.53 162.80 C 133.72 162.91 134.77 162.04 134.88 160.85 L 134.98 159.84 C 135.09 158.65 134.22 157.60 133.03 157.49 C 131.84 157.38 130.78 158.25 130.67 159.44 Z M 130.59 160.45 L 130.50 161.44 C 130.39 162.62 131.25 163.67 132.43 163.78 C 133.61 163.89 134.66 163.03 134.77 161.85 L 134.87 160.85 C 134.98 159.67 134.11 158.62 132.93 158.51 C 131.75 158.40 130.71 159.27 130.59 160.45 Z M 130.52 161.44 L 130.42 162.43 C 130.31 163.60 131.17 164.64 132.34 164.75 C 133.51 164.86 134.55 164.00 134.66 162.83 L 134.76 161.85 C 134.87 160.68 134.01 159.64 132.84 159.52 C 131.67 159.41 130.63 160.27 130.52 161.44 Z M 130.44 162.43 L 130.34 163.43 C 130.23 164.59 131.08 165.62 132.24 165.74 C 133.41 165.85 134.44 164.99 134.55 163.83 L 134.65 162.83 C 134.76 161.67 133.90 160.64 132.74 160.53 C 131.58 160.42 130.55 161.27 130.44 162.43 Z M 130.36 163.43 L 130.26 164.44 C 130.15 165.59 131.00 166.62 132.15 166.73 C 133.30 166.84 134.33 165.99 134.44 164.84 L 134.53 163.83 C 134.64 162.68 133.80 161.65 132.65 161.54 C 131.49 161.43 130.47 162.28 130.36 163.43 Z M 130.28 164.44 L 130.18 165.44 C 130.08 166.58 130.92 167.59 132.06 167.70 C 133.20 167.81 134.22 166.97 134.33 165.83 L 134.42 164.84 C 134.53 163.69 133.69 162.68 132.55 162.57 C 131.40 162.46 130.39 163.30 130.28 164.44 Z M 130.20 165.44 L 130.11 166.43 C 130.00 167.56 130.84 168.57 131.97 168.67 C 133.11 168.78 134.11 167.94 134.22 166.81 L 134.31 165.82 C 134.42 164.69 133.58 163.68 132.45 163.58 C 131.31 163.47 130.31 164.31 130.20 165.44 Z M 130.13 166.43 L 130.03 167.46 C 129.93 168.59 130.76 169.58 131.89 169.68 C 133.01 169.79 134.01 168.96 134.11 167.83 L 134.20 166.80 C 134.30 165.67 133.47 164.68 132.35 164.58 C 131.22 164.48 130.23 165.31 130.13 166.43 Z M 130.05 167.47 L 129.96 168.46 C 129.86 169.57 130.69 170.56 131.80 170.66 C 132.92 170.76 133.90 169.93 134.00 168.82 L 134.09 167.83 C 134.19 166.71 133.37 165.73 132.25 165.63 C 131.14 165.53 130.15 166.35 130.05 167.47 Z M 129.98 168.45 L 129.89 169.42 C 129.79 170.52 130.61 171.50 131.71 171.60 C 132.82 171.70 133.80 170.89 133.90 169.78 L 133.99 168.82 C 134.09 167.71 133.27 166.74 132.17 166.64 C 131.06 166.53 130.08 167.35 129.98 168.45 Z M 129.91 169.41 L 129.82 170.43 C 129.71 171.53 130.52 172.50 131.61 172.60 C 132.71 172.70 133.68 171.90 133.78 170.80 L 133.88 169.79 C 133.98 168.69 133.18 167.72 132.08 167.62 C 130.99 167.51 130.01 168.32 129.91 169.41 Z M 129.83 170.44 L 129.75 171.42 C 129.65 172.51 130.45 173.47 131.53 173.57 C 132.62 173.66 133.58 172.86 133.68 171.78 L 133.76 170.79 C 133.86 169.71 133.06 168.75 131.98 168.65 C 130.89 168.55 129.93 169.35 129.83 170.44 Z M 129.76 171.45 L 129.68 172.46 C 129.60 173.54 130.41 174.48 131.48 174.56 C 132.56 174.65 133.50 173.84 133.58 172.76 L 133.66 171.75 C 133.74 170.67 132.94 169.73 131.86 169.65 C 130.78 169.57 129.84 170.37 129.76 171.45 Z M 129.70 172.50 L 129.64 173.53 C 129.57 174.60 130.38 175.52 131.45 175.59 C 132.52 175.65 133.44 174.84 133.50 173.77 L 133.57 172.73 C 133.63 171.67 132.82 170.75 131.75 170.68 C 130.68 170.61 129.76 171.43 129.70 172.50 Z M 129.65 173.56 L 129.60 174.49 C 129.55 175.55 130.36 176.45 131.42 176.51 C 132.48 176.56 133.39 175.75 133.44 174.69 L 133.49 173.75 C 133.54 172.69 132.73 171.79 131.67 171.73 C 130.61 171.68 129.70 172.50 129.65 173.56 Z M 129.62 174.52 L 129.58 175.56 C 129.55 176.61 130.37 177.49 131.42 177.52 C 132.47 177.56 133.35 176.74 133.39 175.69 L 133.42 174.65 C 133.46 173.60 132.64 172.72 131.59 172.69 C 130.54 172.65 129.66 173.47 129.62 174.52 Z M 129.61 175.72 L 129.66 176.67 C 129.72 177.70 130.60 178.50 131.64 178.44 C 132.68 178.38 133.47 177.50 133.41 176.46 L 133.36 175.52 C 133.31 174.48 132.42 173.69 131.38 173.74 C 130.35 173.80 129.55 174.69 129.61 175.72 Z M 129.70 176.85 L 129.86 177.83 C 130.02 178.84 130.97 179.53 131.98 179.37 C 133.00 179.21 133.69 178.26 133.52 177.25 L 133.37 176.27 C 133.21 175.26 132.26 174.57 131.25 174.73 C 130.23 174.89 129.54 175.84 129.70 176.85 Z M 129.89 177.89 L 130.03 178.60 C 130.23 179.60 131.19 180.25 132.19 180.05 C 133.18 179.85 133.83 178.89 133.63 177.90 L 133.49 177.18 C 133.30 176.19 132.33 175.54 131.34 175.74 C 130.34 175.94 129.70 176.90 129.89 177.89 Z"
      fill="black"
      fill-rule="nonzero" /><path d="M 154.00 126.99 L 154.22 127.91 C 154.46 128.92 155.47 129.54 156.48 129.30 C 157.49 129.07 158.12 128.05 157.88 127.04 L 157.66 126.12 C 157.42 125.11 156.41 124.49 155.40 124.73 C 154.39 124.97 153.76 125.98 154.00 126.99 Z M 154.12 127.44 L 154.10 128.43 C 154.08 129.49 154.92 130.38 155.99 130.40 C 157.05 130.42 157.93 129.57 157.96 128.51 L 157.98 127.52 C 158.00 126.45 157.15 125.57 156.09 125.55 C 155.02 125.53 154.14 126.37 154.12 127.44 Z M 154.13 127.99 L 153.92 128.82 C 153.65 129.87 154.29 130.93 155.33 131.20 C 156.38 131.47 157.45 130.83 157.71 129.78 L 157.92 128.95 C 158.19 127.90 157.56 126.84 156.51 126.57 C 155.46 126.31 154.40 126.94 154.13 127.99 Z M 153.95 128.65 L 153.61 129.65 C 153.25 130.68 153.79 131.80 154.82 132.16 C 155.85 132.52 156.97 131.97 157.33 130.95 L 157.68 129.95 C 158.04 128.92 157.49 127.80 156.46 127.44 C 155.44 127.08 154.31 127.63 153.95 128.65 Z M 153.61 129.60 L 153.22 130.64 C 152.84 131.67 153.36 132.81 154.38 133.20 C 155.41 133.58 156.55 133.06 156.94 132.03 L 157.33 130.99 C 157.71 129.97 157.19 128.82 156.16 128.44 C 155.14 128.05 154.00 128.57 153.61 129.60 Z M 153.21 130.64 L 152.86 131.56 C 152.48 132.60 153.00 133.75 154.03 134.13 C 155.07 134.52 156.22 133.99 156.60 132.96 L 156.95 132.04 C 157.33 131.00 156.81 129.85 155.78 129.47 C 154.75 129.08 153.60 129.61 153.21 130.64 Z M 152.85 131.56 L 152.49 132.53 C 152.11 133.56 152.63 134.72 153.67 135.11 C 154.71 135.49 155.87 134.97 156.25 133.93 L 156.61 132.96 C 157.00 131.93 156.47 130.77 155.43 130.38 C 154.40 130.00 153.24 130.52 152.85 131.56 Z M 152.48 132.52 L 152.13 133.48 C 151.74 134.52 152.27 135.69 153.31 136.07 C 154.35 136.46 155.52 135.93 155.90 134.89 L 156.26 133.93 C 156.65 132.89 156.12 131.73 155.08 131.34 C 154.03 130.95 152.87 131.48 152.48 132.52 Z M 152.12 133.47 L 151.74 134.47 C 151.35 135.52 151.88 136.69 152.93 137.08 C 153.98 137.47 155.15 136.94 155.54 135.89 L 155.91 134.90 C 156.31 133.85 155.78 132.68 154.73 132.29 C 153.68 131.89 152.51 132.42 152.12 133.47 Z M 151.74 134.46 L 151.34 135.50 C 150.94 136.55 151.47 137.73 152.53 138.12 C 153.58 138.52 154.76 137.99 155.16 136.94 L 155.55 135.90 C 155.95 134.85 155.42 133.67 154.36 133.27 C 153.31 132.88 152.13 133.41 151.74 134.46 Z M 151.34 135.48 L 150.99 136.37 C 150.59 137.43 151.12 138.62 152.17 139.02 C 153.23 139.43 154.42 138.90 154.82 137.84 L 155.16 136.95 C 155.57 135.90 155.04 134.71 153.98 134.30 C 152.93 133.90 151.74 134.43 151.34 135.48 Z M 150.99 136.36 L 150.66 137.20 C 150.24 138.26 150.77 139.46 151.83 139.87 C 152.88 140.29 154.08 139.76 154.49 138.70 L 154.83 137.86 C 155.24 136.80 154.72 135.60 153.66 135.19 C 152.60 134.77 151.41 135.30 150.99 136.36 Z M 150.66 137.18 L 150.28 138.11 C 149.86 139.17 150.37 140.38 151.43 140.80 C 152.49 141.23 153.70 140.72 154.12 139.66 L 154.50 138.73 C 154.92 137.66 154.41 136.46 153.35 136.03 C 152.29 135.61 151.08 136.12 150.66 137.18 Z M 150.27 138.12 L 149.92 139.01 C 149.50 140.07 150.02 141.28 151.09 141.70 C 152.15 142.13 153.36 141.60 153.78 140.54 L 154.14 139.65 C 154.56 138.58 154.04 137.37 152.97 136.95 C 151.90 136.53 150.69 137.05 150.27 138.12 Z M 149.85 139.17 L 149.56 140.14 C 149.23 141.25 149.85 142.41 150.95 142.74 C 152.06 143.08 153.22 142.45 153.55 141.35 L 153.85 140.37 C 154.18 139.27 153.56 138.11 152.45 137.78 C 151.35 137.44 150.19 138.07 149.85 139.17 Z M 149.46 140.84 L 149.50 141.86 C 149.55 143.02 150.53 143.92 151.69 143.87 C 152.85 143.82 153.75 142.84 153.70 141.68 L 153.66 140.66 C 153.61 139.50 152.63 138.60 151.47 138.65 C 150.31 138.70 149.41 139.68 149.46 140.84 Z M 150.28 143.44 L 150.92 143.95 C 151.85 144.68 153.19 144.53 153.92 143.60 C 154.65 142.68 154.49 141.34 153.57 140.61 L 152.92 140.10 C 152.00 139.37 150.66 139.52 149.93 140.45 C 149.20 141.37 149.35 142.71 150.28 143.44 Z M 152.83 144.35 L 153.70 144.10 C 154.85 143.78 155.51 142.59 155.19 141.45 C 154.87 140.31 153.68 139.64 152.54 139.97 L 151.66 140.21 C 150.52 140.53 149.85 141.72 150.18 142.86 C 150.50 144.01 151.69 144.67 152.83 144.35 Z M 154.05 143.97 L 155.04 143.50 C 156.11 142.98 156.56 141.70 156.04 140.63 C 155.53 139.56 154.24 139.11 153.17 139.62 L 152.19 140.10 C 151.12 140.61 150.67 141.90 151.18 142.97 C 151.70 144.04 152.98 144.49 154.05 143.97 Z M 155.04 143.50 L 155.90 143.08 C 156.97 142.57 157.43 141.29 156.91 140.21 C 156.40 139.14 155.11 138.69 154.04 139.21 L 153.17 139.62 C 152.10 140.14 151.65 141.42 152.17 142.49 C 152.68 143.56 153.96 144.01 155.04 143.50 Z M 155.90 143.09 L 156.84 142.64 C 157.92 142.12 158.37 140.84 157.86 139.77 C 157.35 138.70 156.06 138.24 154.99 138.75 L 154.05 139.20 C 152.97 139.72 152.52 141.00 153.03 142.07 C 153.54 143.14 154.83 143.60 155.90 143.09 Z M 156.85 142.63 L 157.80 142.18 C 158.87 141.66 159.32 140.37 158.80 139.30 C 158.29 138.23 157.00 137.78 155.93 138.30 L 154.98 138.76 C 153.91 139.27 153.46 140.56 153.98 141.63 C 154.50 142.70 155.78 143.15 156.85 142.63 Z M 157.81 142.17 L 158.73 141.72 C 159.80 141.20 160.25 139.92 159.73 138.85 C 159.21 137.78 157.93 137.33 156.86 137.85 L 155.93 138.30 C 154.86 138.82 154.41 140.11 154.93 141.18 C 155.45 142.25 156.74 142.69 157.81 142.17 Z M 158.73 141.73 L 159.59 141.31 C 160.66 140.80 161.11 139.51 160.59 138.44 C 160.07 137.37 158.79 136.92 157.72 137.44 L 156.86 137.85 C 155.79 138.36 155.34 139.65 155.86 140.72 C 156.37 141.79 157.66 142.24 158.73 141.73 Z M 159.56 141.32 L 160.53 140.87 C 161.61 140.36 162.07 139.08 161.57 138.01 C 161.06 136.93 159.78 136.47 158.70 136.97 L 157.74 137.42 C 156.66 137.93 156.20 139.21 156.70 140.29 C 157.21 141.36 158.49 141.83 159.56 141.32 Z M 160.50 140.89 L 161.34 140.51 C 162.43 140.02 162.92 138.75 162.43 137.66 C 161.95 136.58 160.67 136.09 159.59 136.58 L 158.74 136.95 C 157.65 137.44 157.17 138.71 157.65 139.80 C 158.14 140.88 159.41 141.37 160.50 140.89 Z M 161.31 140.52 L 162.20 140.15 C 163.29 139.68 163.80 138.42 163.34 137.32 C 162.87 136.23 161.61 135.72 160.51 136.18 L 159.62 136.56 C 158.53 137.03 158.02 138.29 158.48 139.39 C 158.95 140.48 160.22 140.99 161.31 140.52 Z M 162.17 140.16 L 163.12 139.77 C 164.22 139.32 164.75 138.06 164.30 136.96 C 163.85 135.86 162.59 135.33 161.49 135.78 L 160.54 136.17 C 159.44 136.62 158.91 137.88 159.36 138.98 C 159.81 140.08 161.07 140.61 162.17 140.16 Z M 163.10 139.78 L 164.03 139.41 C 165.13 138.97 165.68 137.72 165.24 136.61 C 164.80 135.51 163.55 134.97 162.44 135.40 L 161.51 135.77 C 160.40 136.21 159.86 137.46 160.30 138.57 C 160.74 139.68 161.99 140.22 163.10 139.78 Z M 164.02 139.41 L 164.96 139.05 C 166.06 138.61 166.61 137.36 166.17 136.25 C 165.74 135.14 164.49 134.60 163.38 135.03 L 162.45 135.40 C 161.34 135.84 160.79 137.09 161.23 138.20 C 161.66 139.30 162.91 139.85 164.02 139.41 Z M 164.96 139.04 L 165.90 138.67 C 167.01 138.23 167.55 136.98 167.11 135.87 C 166.67 134.77 165.42 134.23 164.32 134.66 L 163.37 135.04 C 162.27 135.48 161.73 136.73 162.16 137.83 C 162.60 138.94 163.85 139.48 164.96 139.04 Z M 165.89 138.67 L 166.81 138.31 C 167.92 137.88 168.47 136.63 168.03 135.52 C 167.60 134.41 166.35 133.87 165.24 134.30 L 164.32 134.66 C 163.22 135.09 162.67 136.34 163.10 137.45 C 163.54 138.56 164.79 139.11 165.89 138.67 Z M 166.78 138.32 L 167.71 137.98 C 168.83 137.56 169.39 136.32 168.97 135.20 C 168.56 134.09 167.32 133.53 166.20 133.94 L 165.27 134.29 C 164.16 134.71 163.59 135.95 164.01 137.06 C 164.43 138.18 165.67 138.74 166.78 138.32 Z M 167.68 137.99 L 168.63 137.65 C 169.75 137.25 170.33 136.01 169.93 134.90 C 169.53 133.78 168.30 133.19 167.18 133.59 L 166.23 133.93 C 165.11 134.33 164.53 135.57 164.93 136.68 C 165.33 137.80 166.56 138.39 167.68 137.99 Z M 168.61 137.65 L 169.55 137.33 C 170.67 136.94 171.27 135.71 170.88 134.59 C 170.49 133.47 169.27 132.87 168.15 133.26 L 167.20 133.59 C 166.08 133.98 165.48 135.20 165.87 136.32 C 166.26 137.44 167.48 138.04 168.61 137.65 Z M 169.53 137.33 L 170.48 137.01 C 171.60 136.63 172.21 135.42 171.83 134.29 C 171.45 133.17 170.24 132.57 169.12 132.94 L 168.17 133.26 C 167.05 133.64 166.44 134.85 166.82 135.98 C 167.20 137.10 168.41 137.70 169.53 137.33 Z M 170.47 137.00 L 171.43 136.69 C 172.55 136.32 173.16 135.11 172.79 133.99 C 172.42 132.87 171.21 132.26 170.09 132.63 L 169.13 132.95 C 168.01 133.32 167.40 134.52 167.77 135.64 C 168.14 136.76 169.34 137.37 170.47 137.00 Z M 171.43 136.68 L 172.36 136.37 C 173.48 136.00 174.08 134.80 173.71 133.68 C 173.35 132.57 172.15 131.96 171.03 132.33 L 170.09 132.64 C 168.98 133.01 168.37 134.21 168.74 135.33 C 169.11 136.44 170.31 137.04 171.43 136.68 Z M 172.37 136.35 L 173.32 136.03 C 174.42 135.66 175.01 134.46 174.64 133.36 C 174.27 132.25 173.07 131.66 171.96 132.03 L 171.02 132.35 C 169.92 132.72 169.32 133.92 169.70 135.03 C 170.07 136.13 171.27 136.72 172.37 136.35 Z M 173.30 136.02 L 174.24 135.71 C 175.34 135.34 175.94 134.15 175.57 133.06 C 175.21 131.96 174.02 131.36 172.92 131.73 L 171.98 132.04 C 170.88 132.41 170.28 133.59 170.65 134.69 C 171.02 135.79 172.20 136.39 173.30 136.02 Z M 174.21 135.70 L 175.12 135.41 C 176.22 135.06 176.82 133.90 176.48 132.80 C 176.13 131.71 174.96 131.10 173.87 131.45 L 172.95 131.74 C 171.86 132.08 171.25 133.25 171.60 134.35 C 171.95 135.44 173.11 136.05 174.21 135.70 Z M 175.09 135.40 L 176.10 135.10 C 177.19 134.77 177.80 133.62 177.47 132.53 C 177.14 131.44 175.99 130.82 174.90 131.15 L 173.90 131.46 C 172.81 131.79 172.19 132.94 172.52 134.02 C 172.85 135.11 174.00 135.73 175.09 135.40 Z M 176.07 135.09 L 177.01 134.82 C 178.09 134.51 178.72 133.37 178.41 132.29 C 178.09 131.20 176.96 130.58 175.88 130.89 L 174.94 131.16 C 173.85 131.47 173.22 132.61 173.54 133.69 C 173.85 134.78 174.98 135.40 176.07 135.09 Z M 176.95 134.82 L 177.94 134.56 C 179.02 134.28 179.68 133.17 179.39 132.09 C 179.11 131.00 178.00 130.35 176.92 130.63 L 175.93 130.89 C 174.84 131.17 174.19 132.28 174.47 133.36 C 174.76 134.45 175.87 135.10 176.95 134.82 Z M 177.83 134.57 L 179.00 134.33 C 180.08 134.11 180.79 133.05 180.56 131.96 C 180.34 130.87 179.28 130.17 178.19 130.39 L 177.02 130.63 C 175.94 130.85 175.23 131.91 175.46 133.00 C 175.68 134.09 176.74 134.79 177.83 134.57 Z M 178.69 134.34 L 179.63 134.29 C 180.73 134.24 181.57 133.31 181.51 132.22 C 181.46 131.12 180.53 130.28 179.44 130.34 L 178.50 130.38 C 177.40 130.44 176.56 131.37 176.61 132.46 C 176.67 133.55 177.60 134.39 178.69 134.34 Z M 177.64 131.92 L 177.54 132.41 C 177.32 133.45 178.00 134.48 179.05 134.69 C 180.10 134.91 181.12 134.23 181.33 133.18 L 181.43 132.70 C 181.65 131.65 180.97 130.63 179.92 130.42 C 178.88 130.20 177.85 130.88 177.64 131.92 Z M 178.26 131.30 L 177.36 132.01 C 176.54 132.66 176.40 133.86 177.05 134.68 C 177.70 135.51 178.89 135.65 179.72 135.00 L 180.61 134.29 C 181.44 133.64 181.58 132.44 180.93 131.62 C 180.28 130.79 179.08 130.65 178.26 131.30 Z M 177.53 131.89 L 176.71 132.41 C 175.82 132.96 175.55 134.14 176.11 135.03 C 176.67 135.91 177.84 136.18 178.73 135.63 L 179.55 135.11 C 180.44 134.56 180.71 133.38 180.15 132.50 C 179.59 131.61 178.42 131.34 177.53 131.89 Z M 176.80 132.33 L 175.88 132.83 C 174.94 133.33 174.60 134.50 175.11 135.44 C 175.61 136.37 176.78 136.72 177.72 136.21 L 178.64 135.71 C 179.57 135.20 179.92 134.03 179.41 133.10 C 178.90 132.16 177.73 131.82 176.80 132.33 Z M 175.92 132.77 L 174.99 133.23 C 174.03 133.72 173.64 134.90 174.13 135.87 C 174.61 136.83 175.79 137.22 176.76 136.73 L 177.68 136.27 C 178.64 135.78 179.03 134.60 178.55 133.64 C 178.06 132.67 176.88 132.28 175.92 132.77 Z M 175.01 133.18 L 174.12 133.61 C 173.13 134.09 172.71 135.28 173.19 136.28 C 173.67 137.27 174.86 137.69 175.86 137.21 L 176.74 136.78 C 177.74 136.30 178.15 135.11 177.67 134.12 C 177.20 133.12 176.00 132.71 175.01 133.18 Z M 174.14 133.57 L 173.16 134.02 C 172.15 134.49 171.70 135.70 172.18 136.71 C 172.65 137.73 173.85 138.17 174.87 137.70 L 175.84 137.25 C 176.86 136.78 177.30 135.57 176.83 134.56 C 176.36 133.54 175.15 133.10 174.14 133.57 Z M 173.09 134.02 L 172.29 134.43 C 171.27 134.94 170.87 136.18 171.38 137.19 C 171.89 138.21 173.13 138.61 174.14 138.10 L 174.94 137.70 C 175.96 137.18 176.36 135.95 175.85 134.93 C 175.34 133.92 174.10 133.51 173.09 134.02 Z M 171.88 134.65 L 171.16 135.24 C 170.26 135.98 170.13 137.30 170.86 138.19 C 171.60 139.09 172.91 139.22 173.81 138.48 L 174.54 137.89 C 175.43 137.15 175.57 135.83 174.83 134.94 C 174.10 134.04 172.78 133.91 171.88 134.65 Z M 170.57 135.90 L 170.13 136.79 C 169.59 137.85 170.02 139.13 171.07 139.66 C 172.13 140.19 173.41 139.77 173.94 138.72 L 174.39 137.82 C 174.92 136.77 174.50 135.49 173.44 134.96 C 172.39 134.42 171.11 134.85 170.57 135.90 Z M 169.93 137.23 L 169.69 138.20 C 169.40 139.36 170.11 140.54 171.27 140.83 C 172.43 141.12 173.61 140.41 173.90 139.25 L 174.14 138.28 C 174.42 137.11 173.72 135.94 172.55 135.65 C 171.39 135.36 170.22 136.07 169.93 137.23 Z M 169.64 138.34 L 169.45 139.38 C 169.24 140.57 170.03 141.71 171.22 141.92 C 172.41 142.13 173.55 141.34 173.76 140.15 L 173.95 139.11 C 174.16 137.92 173.37 136.79 172.18 136.57 C 170.99 136.36 169.85 137.15 169.64 138.34 Z M 169.44 139.37 L 169.26 140.36 C 169.04 141.55 169.83 142.70 171.03 142.92 C 172.22 143.14 173.37 142.35 173.59 141.15 L 173.77 140.16 C 173.99 138.97 173.20 137.82 172.00 137.60 C 170.81 137.38 169.66 138.17 169.44 139.37 Z M 169.26 140.31 L 169.06 141.27 C 168.82 142.47 169.59 143.63 170.78 143.88 C 171.98 144.12 173.15 143.35 173.39 142.16 L 173.59 141.20 C 173.83 140.00 173.06 138.83 171.87 138.59 C 170.67 138.35 169.50 139.12 169.26 140.31 Z M 169.07 141.24 L 168.85 142.23 C 168.59 143.42 169.34 144.60 170.53 144.86 C 171.73 145.13 172.91 144.37 173.17 143.18 L 173.39 142.19 C 173.65 140.99 172.90 139.81 171.70 139.55 C 170.51 139.29 169.33 140.04 169.07 141.24 Z M 168.85 142.21 L 168.62 143.20 C 168.35 144.39 169.09 145.58 170.28 145.86 C 171.48 146.13 172.67 145.39 172.94 144.19 L 173.17 143.20 C 173.44 142.01 172.70 140.82 171.51 140.54 C 170.31 140.27 169.13 141.01 168.85 142.21 Z M 168.63 143.18 L 168.39 144.16 C 168.10 145.35 168.83 146.55 170.02 146.83 C 171.21 147.12 172.41 146.39 172.70 145.20 L 172.93 144.22 C 173.22 143.03 172.49 141.83 171.30 141.54 C 170.11 141.26 168.92 141.99 168.63 143.18 Z M 168.40 144.12 L 168.14 145.11 C 167.83 146.29 168.54 147.50 169.72 147.81 C 170.91 148.12 172.12 147.41 172.43 146.23 L 172.69 145.24 C 173.00 144.06 172.29 142.85 171.10 142.54 C 169.92 142.23 168.71 142.94 168.40 144.12 Z M 168.16 145.05 L 167.88 146.00 C 167.54 147.18 168.21 148.40 169.39 148.75 C 170.56 149.09 171.79 148.41 172.13 147.24 L 172.41 146.29 C 172.75 145.11 172.08 143.88 170.90 143.54 C 169.73 143.20 168.50 143.87 168.16 145.05 Z M 167.89 145.96 L 167.61 146.87 C 167.25 148.03 167.90 149.27 169.06 149.64 C 170.23 150.00 171.47 149.35 171.84 148.19 L 172.12 147.28 C 172.49 146.11 171.84 144.87 170.67 144.51 C 169.50 144.14 168.26 144.79 167.89 145.96 Z M 167.62 146.85 L 167.32 147.78 C 166.94 148.94 167.58 150.19 168.75 150.56 C 169.91 150.94 171.16 150.30 171.53 149.13 L 171.83 148.20 C 172.21 147.04 171.57 145.79 170.40 145.42 C 169.24 145.04 167.99 145.68 167.62 146.85 Z M 167.32 147.76 L 167.00 148.74 C 166.62 149.90 167.24 151.15 168.41 151.53 C 169.57 151.92 170.82 151.29 171.20 150.13 L 171.53 149.15 C 171.91 147.99 171.28 146.74 170.12 146.35 C 168.96 145.97 167.71 146.60 167.32 147.76 Z M 167.01 148.71 L 166.69 149.63 C 166.30 150.78 166.91 152.04 168.07 152.44 C 169.22 152.84 170.48 152.22 170.88 151.07 L 171.19 150.15 C 171.59 149.00 170.98 147.74 169.82 147.34 C 168.67 146.94 167.41 147.56 167.01 148.71 Z M 166.71 149.61 L 166.37 150.55 C 165.96 151.70 166.56 152.96 167.71 153.37 C 168.86 153.78 170.13 153.18 170.53 152.03 L 170.87 151.09 C 171.28 149.94 170.68 148.67 169.53 148.26 C 168.38 147.85 167.11 148.46 166.71 149.61 Z M 166.38 150.53 L 166.03 151.49 C 165.61 152.64 166.19 153.91 167.34 154.33 C 168.48 154.75 169.75 154.16 170.17 153.01 L 170.52 152.05 C 170.94 150.90 170.36 149.63 169.21 149.22 C 168.07 148.80 166.80 149.38 166.38 150.53 Z M 166.04 151.48 L 165.69 152.40 C 165.26 153.54 165.84 154.81 166.98 155.24 C 168.12 155.67 169.39 155.09 169.81 153.95 L 170.16 153.03 C 170.59 151.89 170.01 150.62 168.87 150.19 C 167.73 149.76 166.46 150.34 166.04 151.48 Z M 165.70 152.39 L 165.34 153.33 C 164.90 154.47 165.47 155.74 166.60 156.17 C 167.74 156.61 169.01 156.04 169.44 154.91 L 169.80 153.96 C 170.24 152.83 169.67 151.56 168.54 151.12 C 167.41 150.69 166.13 151.25 165.70 152.39 Z M 165.34 153.32 L 164.97 154.27 C 164.53 155.39 165.09 156.67 166.22 157.11 C 167.35 157.55 168.62 157.00 169.06 155.87 L 169.43 154.92 C 169.87 153.79 169.32 152.52 168.19 152.08 C 167.06 151.63 165.79 152.19 165.34 153.32 Z M 164.98 154.25 L 164.61 155.18 C 164.16 156.30 164.71 157.58 165.83 158.03 C 166.96 158.48 168.23 157.93 168.68 156.81 L 169.05 155.88 C 169.50 154.76 168.96 153.48 167.83 153.03 C 166.71 152.58 165.43 153.13 164.98 154.25 Z M 164.62 155.16 L 164.24 156.08 C 163.78 157.20 164.32 158.48 165.44 158.94 C 166.55 159.40 167.83 158.86 168.29 157.75 L 168.67 156.83 C 169.13 155.71 168.60 154.43 167.48 153.97 C 166.36 153.51 165.08 154.04 164.62 155.16 Z M 164.26 156.06 L 163.87 156.98 C 163.39 158.09 163.91 159.37 165.02 159.85 C 166.13 160.32 167.42 159.80 167.89 158.69 L 168.28 157.77 C 168.75 156.66 168.24 155.37 167.12 154.90 C 166.01 154.43 164.73 154.95 164.26 156.06 Z M 163.88 156.96 L 163.48 157.86 C 163.00 158.97 163.50 160.25 164.60 160.74 C 165.71 161.22 166.99 160.72 167.48 159.62 L 167.88 158.71 C 168.36 157.61 167.86 156.32 166.75 155.84 C 165.65 155.35 164.36 155.85 163.88 156.96 Z M 163.49 157.85 L 163.08 158.77 C 162.59 159.86 163.08 161.15 164.18 161.65 C 165.28 162.14 166.57 161.64 167.06 160.55 L 167.47 159.63 C 167.96 158.53 167.47 157.24 166.37 156.75 C 165.27 156.26 163.98 156.75 163.49 157.85 Z M 163.08 158.76 L 162.67 159.69 C 162.18 160.78 162.66 162.07 163.76 162.56 C 164.86 163.06 166.15 162.57 166.64 161.47 L 167.06 160.55 C 167.55 159.45 167.06 158.16 165.96 157.67 C 164.87 157.18 163.58 157.67 163.08 158.76 Z M 162.67 159.69 L 162.26 160.60 C 161.77 161.69 162.26 162.98 163.35 163.47 C 164.45 163.96 165.74 163.48 166.23 162.38 L 166.64 161.47 C 167.13 160.38 166.64 159.09 165.55 158.60 C 164.45 158.10 163.16 158.59 162.67 159.69 Z M 162.27 160.59 L 161.86 161.50 C 161.36 162.59 161.84 163.88 162.94 164.38 C 164.03 164.87 165.31 164.39 165.81 163.30 L 166.22 162.38 C 166.72 161.29 166.23 160.01 165.14 159.51 C 164.05 159.02 162.76 159.50 162.27 160.59 Z M 161.87 161.49 L 161.44 162.40 C 160.94 163.48 161.41 164.77 162.50 165.28 C 163.59 165.78 164.88 165.31 165.38 164.22 L 165.80 163.31 C 166.30 162.22 165.83 160.94 164.74 160.43 C 163.66 159.93 162.37 160.40 161.87 161.49 Z M 161.46 162.38 L 161.03 163.28 C 160.51 164.36 160.97 165.65 162.05 166.17 C 163.13 166.68 164.42 166.23 164.93 165.15 L 165.36 164.24 C 165.88 163.16 165.42 161.87 164.34 161.36 C 163.27 160.84 161.97 161.30 161.46 162.38 Z M 161.04 163.26 L 160.60 164.16 C 160.07 165.23 160.51 166.53 161.59 167.05 C 162.66 167.58 163.95 167.14 164.48 166.07 L 164.92 165.17 C 165.44 164.09 165.00 162.80 163.93 162.27 C 162.86 161.75 161.57 162.19 161.04 163.26 Z M 160.61 164.15 L 160.16 165.04 C 159.63 166.11 160.06 167.40 161.13 167.94 C 162.19 168.47 163.49 168.04 164.02 166.97 L 164.47 166.08 C 165.00 165.01 164.57 163.72 163.50 163.18 C 162.44 162.65 161.14 163.08 160.61 164.15 Z M 160.17 165.04 L 159.72 165.93 C 159.19 166.99 159.61 168.29 160.68 168.82 C 161.74 169.35 163.03 168.93 163.57 167.86 L 164.02 166.97 C 164.55 165.91 164.12 164.62 163.06 164.08 C 162.00 163.55 160.70 163.98 160.17 165.04 Z M 159.73 165.93 L 159.28 166.82 C 158.74 167.88 159.17 169.17 160.23 169.70 C 161.29 170.24 162.58 169.81 163.12 168.75 L 163.56 167.87 C 164.10 166.81 163.67 165.51 162.61 164.98 C 161.55 164.44 160.26 164.87 159.73 165.93 Z M 159.28 166.81 L 158.83 167.71 C 158.29 168.76 158.71 170.06 159.77 170.59 C 160.83 171.13 162.12 170.71 162.66 169.65 L 163.11 168.76 C 163.65 167.70 163.22 166.41 162.17 165.87 C 161.11 165.33 159.82 165.76 159.28 166.81 Z M 158.83 167.70 L 158.37 168.61 C 157.83 169.66 158.25 170.96 159.31 171.49 C 160.36 172.03 161.65 171.61 162.19 170.56 L 162.65 169.65 C 163.19 168.60 162.77 167.30 161.72 166.77 C 160.66 166.23 159.37 166.65 158.83 167.70 Z M 158.38 168.61 L 157.91 169.53 C 157.37 170.58 157.78 171.87 158.83 172.40 C 159.89 172.94 161.17 172.53 161.71 171.48 L 162.18 170.56 C 162.72 169.51 162.31 168.22 161.26 167.68 C 160.21 167.14 158.92 167.56 158.38 168.61 Z M 157.92 169.52 L 157.45 170.41 C 156.91 171.46 157.32 172.74 158.37 173.29 C 159.41 173.83 160.70 173.42 161.24 172.37 L 161.70 171.48 C 162.25 170.44 161.84 169.15 160.79 168.61 C 159.75 168.06 158.46 168.47 157.92 169.52 Z M 157.47 170.40 L 157.01 171.26 C 156.46 172.30 156.86 173.59 157.90 174.14 C 158.94 174.69 160.23 174.29 160.78 173.25 L 161.23 172.39 C 161.78 171.35 161.38 170.06 160.34 169.51 C 159.30 168.96 158.02 169.36 157.47 170.40 Z M 157.03 171.24 L 156.52 172.17 C 155.96 173.20 156.34 174.49 157.37 175.05 C 158.41 175.61 159.70 175.23 160.26 174.20 L 160.76 173.27 C 161.32 172.24 160.94 170.95 159.91 170.39 C 158.87 169.83 157.58 170.21 157.03 171.24 Z M 156.53 172.16 L 156.07 172.99 C 155.50 174.02 155.87 175.31 156.90 175.87 C 157.92 176.44 159.21 176.07 159.78 175.05 L 160.24 174.21 C 160.81 173.19 160.44 171.90 159.41 171.33 C 158.39 170.76 157.10 171.13 156.53 172.16 Z M 156.08 172.99 L 155.61 173.82 C 155.05 174.84 155.41 176.13 156.43 176.70 C 157.46 177.27 158.74 176.90 159.31 175.88 L 159.77 175.05 C 160.34 174.03 159.98 172.74 158.96 172.17 C 157.93 171.60 156.65 171.97 156.08 172.99 Z M 155.62 173.82 L 155.14 174.67 C 154.57 175.69 154.93 176.98 155.95 177.55 C 156.96 178.12 158.25 177.76 158.82 176.74 L 159.30 175.88 C 159.87 174.87 159.51 173.58 158.50 173.01 C 157.48 172.44 156.19 172.80 155.62 173.82 Z M 155.16 174.66 L 154.65 175.55 C 154.07 176.56 154.41 177.84 155.42 178.42 C 156.43 179.00 157.71 178.66 158.29 177.65 L 158.80 176.76 C 159.38 175.75 159.04 174.46 158.03 173.89 C 157.02 173.31 155.74 173.65 155.16 174.66 Z M 154.67 175.53 L 154.14 176.41 C 153.55 177.41 153.88 178.69 154.87 179.28 C 155.86 179.88 157.15 179.55 157.74 178.56 L 158.27 177.67 C 158.86 176.68 158.53 175.39 157.54 174.80 C 156.55 174.21 155.26 174.53 154.67 175.53 Z M 154.18 176.37 L 153.66 177.20 C 153.04 178.17 153.33 179.46 154.30 180.07 C 155.28 180.69 156.56 180.40 157.18 179.43 L 157.70 178.60 C 158.32 177.62 158.03 176.34 157.06 175.72 C 156.08 175.11 154.80 175.40 154.18 176.37 Z M 153.82 177.01 L 153.09 177.91 C 152.37 178.79 152.50 180.09 153.38 180.81 C 154.26 181.53 155.56 181.40 156.28 180.51 L 157.01 179.62 C 157.73 178.74 157.60 177.44 156.72 176.72 C 155.84 176.00 154.54 176.13 153.82 177.01 Z M 155.98 177.67 L 155.63 177.37 C 154.78 176.66 153.51 176.77 152.79 177.62 C 152.07 178.47 152.19 179.74 153.04 180.46 L 153.39 180.75 C 154.24 181.47 155.51 181.36 156.23 180.51 C 156.94 179.65 156.83 178.38 155.98 177.67 Z M 156.28 178.75 L 156.19 177.79 C 156.10 176.71 155.16 175.92 154.09 176.01 C 153.01 176.10 152.22 177.04 152.31 178.12 L 152.39 179.08 C 152.48 180.15 153.42 180.95 154.50 180.86 C 155.57 180.77 156.37 179.82 156.28 178.75 Z M 156.13 177.94 L 156.13 176.85 C 156.12 175.81 155.27 174.97 154.23 174.98 C 153.19 174.99 152.35 175.84 152.36 176.88 L 152.37 177.97 C 152.38 179.01 153.23 179.84 154.27 179.84 C 155.31 179.83 156.14 178.98 156.13 177.94 Z"
      fill="black"
      fill-rule="nonzero" /><path d="M 156.00 154.73 L 157.00 154.71 C 158.16 154.69 159.08 153.73 159.06 152.57 C 159.04 151.41 158.08 150.48 156.91 150.51 L 155.91 150.53 C 154.75 150.55 153.83 151.51 153.85 152.67 C 153.88 153.83 154.84 154.75 156.00 154.73 Z M 156.22 154.74 L 157.08 155.04 C 158.26 155.45 159.54 154.82 159.95 153.65 C 160.36 152.47 159.74 151.18 158.56 150.77 L 157.69 150.48 C 156.52 150.07 155.23 150.69 154.82 151.87 C 154.42 153.05 155.04 154.33 156.22 154.74 Z M 156.37 154.72 L 157.15 155.35 C 158.15 156.15 159.62 155.99 160.42 154.99 C 161.22 153.99 161.06 152.52 160.06 151.72 L 159.27 151.09 C 158.27 150.29 156.81 150.45 156.00 151.45 C 155.20 152.46 155.36 153.92 156.37 154.72 Z M 156.97 155.22 L 157.72 155.95 C 158.66 156.85 160.14 156.82 161.04 155.89 C 161.94 154.95 161.91 153.47 160.98 152.57 L 160.23 151.84 C 159.30 150.94 157.81 150.97 156.91 151.91 C 156.01 152.84 156.04 154.33 156.97 155.22 Z M 157.69 155.93 L 158.41 156.65 C 159.34 157.57 160.83 157.57 161.75 156.64 C 162.67 155.72 162.67 154.22 161.74 153.30 L 161.02 152.58 C 160.09 151.66 158.60 151.67 157.68 152.59 C 156.76 153.52 156.76 155.01 157.69 155.93 Z M 158.39 156.65 L 159.10 157.37 C 160.03 158.30 161.53 158.31 162.46 157.39 C 163.39 156.47 163.40 154.96 162.48 154.03 L 161.77 153.31 C 160.84 152.38 159.34 152.37 158.41 153.29 C 157.48 154.21 157.47 155.71 158.39 156.65 Z M 159.09 157.36 L 159.80 158.10 C 160.72 159.04 162.23 159.06 163.17 158.14 C 164.11 157.22 164.13 155.71 163.21 154.77 L 162.50 154.04 C 161.58 153.09 160.07 153.08 159.13 153.99 C 158.19 154.91 158.17 156.42 159.09 157.36 Z M 159.78 158.09 L 160.45 158.79 C 161.37 159.74 162.88 159.77 163.83 158.85 C 164.79 157.93 164.81 156.42 163.90 155.47 L 163.23 154.77 C 162.31 153.82 160.80 153.79 159.85 154.71 C 158.89 155.63 158.87 157.14 159.78 158.09 Z M 160.44 158.78 L 161.11 159.49 C 162.03 160.45 163.55 160.48 164.51 159.56 C 165.46 158.65 165.50 157.13 164.58 156.17 L 163.91 155.47 C 162.99 154.51 161.47 154.48 160.52 155.39 C 159.56 156.31 159.53 157.83 160.44 158.78 Z M 161.10 159.48 L 161.80 160.22 C 162.71 161.18 164.23 161.22 165.20 160.31 C 166.16 159.40 166.20 157.88 165.29 156.92 L 164.59 156.18 C 163.68 155.22 162.16 155.17 161.20 156.09 C 160.23 157.00 160.19 158.52 161.10 159.48 Z M 161.79 160.21 L 162.46 160.93 C 163.36 161.90 164.88 161.95 165.86 161.04 C 166.83 160.14 166.88 158.62 165.97 157.65 L 165.30 156.93 C 164.40 155.96 162.88 155.91 161.91 156.81 C 160.94 157.72 160.88 159.24 161.79 160.21 Z M 162.45 160.92 L 163.13 161.66 C 164.03 162.63 165.56 162.69 166.53 161.79 C 167.50 160.88 167.56 159.36 166.66 158.39 L 165.98 157.65 C 165.08 156.68 163.56 156.62 162.58 157.52 C 161.61 158.42 161.55 159.95 162.45 160.92 Z M 163.13 161.66 L 163.82 162.40 C 164.72 163.37 166.25 163.43 167.22 162.53 C 168.19 161.63 168.25 160.10 167.35 159.13 L 166.66 158.39 C 165.76 157.41 164.24 157.35 163.26 158.26 C 162.29 159.16 162.23 160.68 163.13 161.66 Z M 163.82 162.40 L 164.49 163.12 C 165.39 164.10 166.91 164.16 167.89 163.25 C 168.87 162.35 168.92 160.83 168.02 159.85 L 167.35 159.13 C 166.45 158.15 164.92 158.10 163.95 159.00 C 162.97 159.90 162.92 161.42 163.82 162.40 Z M 164.48 163.11 L 165.16 163.86 C 166.05 164.84 167.58 164.91 168.56 164.02 C 169.54 163.12 169.61 161.60 168.72 160.62 L 168.03 159.87 C 167.14 158.89 165.62 158.81 164.64 159.71 C 163.65 160.60 163.58 162.13 164.48 163.11 Z M 165.14 163.83 L 165.80 164.58 C 166.68 165.58 168.20 165.67 169.19 164.80 C 170.19 163.92 170.29 162.40 169.41 161.40 L 168.74 160.65 C 167.86 159.65 166.34 159.56 165.35 160.44 C 164.35 161.32 164.26 162.84 165.14 163.83 Z M 165.78 164.56 L 166.43 165.32 C 167.30 166.32 168.81 166.44 169.82 165.57 C 170.83 164.71 170.94 163.19 170.08 162.18 L 169.43 161.42 C 168.56 160.42 167.04 160.30 166.03 161.17 C 165.03 162.03 164.91 163.55 165.78 164.56 Z M 166.42 165.30 L 167.07 166.07 C 167.93 167.09 169.45 167.21 170.46 166.35 C 171.47 165.49 171.60 163.97 170.74 162.96 L 170.09 162.19 C 169.23 161.18 167.71 161.06 166.70 161.92 C 165.69 162.77 165.56 164.29 166.42 165.30 Z M 167.07 166.07 L 167.71 166.83 C 168.57 167.84 170.09 167.96 171.10 167.11 C 172.11 166.25 172.24 164.73 171.38 163.72 L 170.74 162.96 C 169.88 161.95 168.36 161.83 167.35 162.68 C 166.34 163.54 166.21 165.06 167.07 166.07 Z M 167.71 166.82 L 168.36 167.58 C 169.21 168.60 170.73 168.72 171.74 167.86 C 172.75 167.01 172.88 165.49 172.02 164.48 L 171.38 163.72 C 170.52 162.71 169.01 162.58 167.99 163.44 C 166.98 164.30 166.86 165.81 167.71 166.82 Z M 168.36 167.58 L 169.01 168.35 C 169.86 169.36 171.38 169.49 172.39 168.64 C 173.40 167.79 173.53 166.27 172.68 165.26 L 172.02 164.49 C 171.17 163.47 169.66 163.35 168.64 164.20 C 167.63 165.05 167.50 166.57 168.36 167.58 Z M 169.01 168.34 L 169.66 169.12 C 170.51 170.13 172.01 170.27 173.03 169.42 C 174.04 168.57 174.17 167.06 173.33 166.05 L 172.68 165.27 C 171.83 164.26 170.32 164.13 169.31 164.97 C 168.29 165.82 168.16 167.33 169.01 168.34 Z M 169.65 169.10 L 170.30 169.88 C 171.14 170.90 172.64 171.04 173.66 170.20 C 174.67 169.36 174.81 167.86 173.97 166.84 L 173.33 166.06 C 172.49 165.05 170.99 164.91 169.97 165.75 C 168.96 166.58 168.82 168.09 169.65 169.10 Z M 170.29 169.86 L 170.91 170.62 C 171.74 171.64 173.23 171.80 174.25 170.97 C 175.27 170.14 175.43 168.64 174.60 167.62 L 173.98 166.86 C 173.15 165.84 171.66 165.69 170.64 166.52 C 169.62 167.34 169.46 168.84 170.29 169.86 Z M 170.90 170.59 L 171.54 171.41 C 172.36 172.44 173.85 172.61 174.87 171.80 C 175.90 170.99 176.07 169.50 175.26 168.47 L 174.61 167.65 C 173.80 166.63 172.31 166.45 171.29 167.27 C 170.26 168.08 170.09 169.57 170.90 170.59 Z M 171.54 171.38 L 172.14 172.16 C 172.93 173.19 174.41 173.38 175.44 172.59 C 176.47 171.80 176.66 170.32 175.87 169.29 L 175.27 168.50 C 174.48 167.47 173.00 167.28 171.97 168.07 C 170.93 168.87 170.74 170.35 171.54 171.38 Z M 172.13 172.13 L 172.72 172.91 C 173.50 173.95 174.96 174.16 176.00 173.38 C 177.03 172.60 177.24 171.13 176.47 170.10 L 175.88 169.32 C 175.10 168.28 173.63 168.07 172.60 168.85 C 171.56 169.63 171.35 171.10 172.13 172.13 Z M 172.71 172.88 L 173.31 173.70 C 174.07 174.74 175.53 174.96 176.57 174.20 C 177.60 173.44 177.83 171.98 177.07 170.94 L 176.47 170.13 C 175.71 169.09 174.25 168.87 173.22 169.63 C 172.18 170.39 171.95 171.85 172.71 172.88 Z M 173.31 173.66 L 173.87 174.46 C 174.62 175.50 176.06 175.75 177.10 175.00 C 178.14 174.26 178.39 172.82 177.64 171.78 L 177.07 170.98 C 176.33 169.94 174.89 169.69 173.85 170.44 C 172.81 171.18 172.56 172.62 173.31 173.66 Z M 173.87 174.43 L 174.45 175.27 C 175.17 176.31 176.60 176.57 177.65 175.85 C 178.69 175.13 178.95 173.70 178.23 172.65 L 177.65 171.81 C 176.93 170.77 175.50 170.51 174.45 171.23 C 173.41 171.95 173.15 173.38 173.87 174.43 Z M 174.44 175.23 L 174.99 176.05 C 175.69 177.10 177.11 177.38 178.16 176.68 C 179.21 175.98 179.49 174.56 178.79 173.51 L 178.24 172.69 C 177.53 171.64 176.12 171.36 175.07 172.06 C 174.02 172.77 173.74 174.18 174.44 175.23 Z M 174.99 176.02 L 175.55 176.87 C 176.23 177.92 177.63 178.22 178.68 177.53 C 179.73 176.85 180.03 175.45 179.34 174.40 L 178.79 173.54 C 178.10 172.50 176.70 172.20 175.65 172.88 C 174.60 173.56 174.31 174.97 174.99 176.02 Z M 175.55 176.85 L 176.08 177.67 C 176.75 178.72 178.14 179.02 179.19 178.35 C 180.23 177.69 180.54 176.30 179.87 175.25 L 179.34 174.42 C 178.67 173.38 177.28 173.07 176.24 173.74 C 175.19 174.41 174.88 175.80 175.55 176.85 Z M 176.10 177.66 L 176.64 178.50 C 177.30 179.54 178.67 179.84 179.71 179.18 C 180.75 178.52 181.05 177.14 180.39 176.11 L 179.85 175.26 C 179.19 174.23 177.81 173.92 176.78 174.59 C 175.74 175.25 175.44 176.62 176.10 177.66 Z M 176.65 178.48 L 177.18 179.32 C 177.83 180.34 179.19 180.65 180.22 180.00 C 181.25 179.35 181.55 177.99 180.90 176.96 L 180.38 176.13 C 179.73 175.10 178.36 174.79 177.34 175.44 C 176.31 176.09 176.00 177.45 176.65 178.48 Z M 177.18 179.28 L 177.69 180.12 C 178.32 181.14 179.66 181.47 180.69 180.84 C 181.72 180.21 182.04 178.87 181.41 177.85 L 180.90 177.00 C 180.27 175.98 178.93 175.65 177.90 176.28 C 176.88 176.91 176.55 178.25 177.18 179.28 Z M 177.69 180.06 L 178.20 180.95 C 178.80 181.98 180.12 182.33 181.15 181.74 C 182.18 181.14 182.53 179.82 181.93 178.79 L 181.42 177.90 C 180.82 176.87 179.50 176.52 178.47 177.12 C 177.44 177.71 177.09 179.03 177.69 180.06 Z M 178.16 180.83 L 178.62 181.75 C 179.15 182.81 180.44 183.23 181.49 182.70 C 182.55 182.17 182.97 180.89 182.44 179.83 L 181.98 178.91 C 181.45 177.86 180.17 177.43 179.11 177.96 C 178.06 178.49 177.63 179.77 178.16 180.83 Z M 178.47 181.28 L 178.70 182.23 C 178.97 183.37 180.11 184.08 181.25 183.81 C 182.38 183.54 183.09 182.40 182.82 181.26 L 182.59 180.31 C 182.32 179.17 181.18 178.46 180.05 178.73 C 178.91 179.00 178.20 180.14 178.47 181.28 Z M 178.67 181.54 L 178.59 182.33 C 178.48 183.48 179.32 184.51 180.47 184.62 C 181.62 184.74 182.65 183.90 182.77 182.74 L 182.84 181.95 C 182.96 180.80 182.12 179.78 180.97 179.66 C 179.81 179.55 178.79 180.39 178.67 181.54 Z"
      fill="black"
      fill-rule="nonzero" /></svg>