<svg xmlns="http://www.w3.org/2000/svg" width="300" height="300" viewBox="0 0 300 300">
<path d="M 120.12 133.77 L 118.94 134.27 C 117.91 134.70 117.42 135.89 117.85 136.92 C 118.28 137.96 119.47 138.44 120.51 138.01 L 121.69 137.52 C 122.72 137.09 123.21 135.90 122.78 134.86 C 122.34 133.83 121.16 133.34 120.12 133.77 Z M 117.97 134.78 L 117.72 135.10 C 116.97 136.07 117.14 137.47 118.11 138.22 C 119.08 138.97 120.47 138.80 121.22 137.83 L 121.48 137.50 C 122.23 136.53 122.05 135.14 121.09 134.39 C 120.12 133.64 118.73 133.81 117.97 134.78 Z M 119.22 138.76 L 120.14 138.86 C 121.41 139.00 122.55 138.08 122.69 136.81 C 122.83 135.55 121.91 134.41 120.64 134.27 L 119.72 134.17 C 118.45 134.03 117.31 134.95 117.17 136.22 C 117.03 137.49 117.95 138.63 119.22 138.76 Z M 120.38 138.89 L 121.58 138.90 C 122.86 138.90 123.91 137.87 123.91 136.59 C 123.92 135.30 122.89 134.25 121.60 134.25 L 120.40 134.24 C 119.12 134.23 118.07 135.27 118.07 136.55 C 118.06 137.84 119.10 138.88 120.38 138.89 Z M 121.63 138.90 L 122.59 138.88 C 123.88 138.86 124.90 137.81 124.88 136.52 C 124.86 135.24 123.80 134.21 122.52 134.23 L 121.55 134.25 C 120.27 134.27 119.24 135.32 119.26 136.61 C 119.28 137.89 120.34 138.92 121.63 138.90 Z M 122.70 138.87 L 123.71 138.80 C 124.98 138.72 125.95 137.62 125.87 136.35 C 125.79 135.07 124.69 134.10 123.42 134.18 L 122.41 134.25 C 121.13 134.33 120.17 135.43 120.25 136.70 C 120.33 137.98 121.43 138.95 122.70 138.87 Z M 123.81 138.77 L 124.80 138.67 C 126.06 138.53 126.97 137.40 126.83 136.14 C 126.69 134.88 125.56 133.97 124.31 134.11 L 123.32 134.21 C 122.06 134.35 121.15 135.48 121.28 136.74 C 121.42 138.00 122.55 138.91 123.81 138.77 Z M 124.86 138.63 L 125.88 138.49 C 127.11 138.32 127.98 137.18 127.81 135.94 C 127.64 134.71 126.50 133.84 125.27 134.01 L 124.25 134.15 C 123.01 134.31 122.14 135.45 122.31 136.69 C 122.48 137.93 123.62 138.80 124.86 138.63 Z M 125.93 138.43 L 126.96 138.27 C 128.16 138.07 128.98 136.93 128.79 135.72 C 128.59 134.52 127.45 133.70 126.24 133.89 L 125.22 134.06 C 124.01 134.26 123.19 135.40 123.39 136.60 C 123.58 137.81 124.72 138.63 125.93 138.43 Z M 127.01 138.18 L 127.98 137.99 C 129.14 137.76 129.90 136.64 129.67 135.48 C 129.45 134.32 128.32 133.57 127.16 133.79 L 126.19 133.98 C 125.03 134.21 124.28 135.33 124.50 136.49 C 124.73 137.65 125.85 138.40 127.01 138.18 Z M 128.01 137.89 L 128.93 137.69 C 130.04 137.45 130.74 136.36 130.49 135.25 C 130.25 134.15 129.16 133.45 128.05 133.69 L 127.13 133.89 C 126.03 134.13 125.33 135.22 125.57 136.33 C 125.81 137.44 126.91 138.14 128.01 137.89 Z M 128.93 137.62 L 129.89 137.40 C 130.96 137.16 131.62 136.10 131.38 135.04 C 131.14 133.97 130.09 133.30 129.02 133.54 L 128.06 133.76 C 126.99 134.00 126.33 135.06 126.57 136.12 C 126.81 137.19 127.86 137.86 128.93 137.62 Z M 129.86 137.35 L 130.85 137.13 C 131.89 136.91 132.54 135.89 132.32 134.85 C 132.10 133.82 131.08 133.16 130.04 133.39 L 129.05 133.60 C 128.02 133.82 127.36 134.84 127.58 135.88 C 127.81 136.91 128.83 137.57 129.86 137.35 Z M 130.82 137.09 L 131.79 136.89 C 132.80 136.69 133.46 135.70 133.25 134.69 C 133.05 133.68 132.06 133.02 131.05 133.23 L 130.08 133.43 C 129.06 133.63 128.41 134.62 128.62 135.63 C 128.82 136.64 129.81 137.30 130.82 137.09 Z M 131.77 136.86 L 132.77 136.66 C 133.77 136.47 134.41 135.50 134.22 134.51 C 134.02 133.52 133.06 132.87 132.06 133.06 L 131.07 133.26 C 130.07 133.46 129.42 134.42 129.62 135.41 C 129.81 136.41 130.78 137.06 131.77 136.86 Z"
      fill="black"
      fill-rule="nonzero" /><path d="M 119.56 154.15 L 120.46 153.82 C 121.55 153.43 122.10 152.23 121.71 151.15 C 121.32 150.07 120.12 149.51 119.04 149.90 L 118.14 150.23 C 117.06 150.62 116.50 151.82 116.89 152.90 C 117.28 153.98 118.48 154.54 119.56 154.15 Z M 120.52 153.93 L 121.45 153.58 C 122.60 153.15 123.18 151.88 122.75 150.74 C 122.32 149.60 121.05 149.02 119.91 149.45 L 118.98 149.80 C 117.84 150.22 117.26 151.49 117.69 152.63 C 118.11 153.77 119.38 154.35 120.52 153.93 Z M 121.48 153.62 L 122.38 153.28 C 123.54 152.84 124.13 151.54 123.69 150.37 C 123.25 149.21 121.95 148.62 120.78 149.06 L 119.89 149.40 C 118.72 149.85 118.13 151.15 118.57 152.31 C 119.02 153.48 120.32 154.06 121.48 153.62 Z M 122.36 153.29 L 123.38 152.92 C 124.55 152.48 125.15 151.18 124.72 150.01 C 124.29 148.84 122.99 148.24 121.82 148.68 L 120.80 149.05 C 119.63 149.49 119.03 150.79 119.46 151.96 C 119.89 153.13 121.19 153.73 122.36 153.29 Z M 123.36 152.93 L 124.33 152.58 C 125.50 152.16 126.11 150.87 125.69 149.69 C 125.27 148.51 123.98 147.90 122.80 148.32 L 121.84 148.67 C 120.66 149.09 120.05 150.38 120.47 151.56 C 120.89 152.74 122.18 153.35 123.36 152.93 Z M 124.32 152.58 L 125.27 152.25 C 126.45 151.83 127.07 150.54 126.65 149.36 C 126.23 148.18 124.94 147.57 123.76 147.98 L 122.81 148.32 C 121.63 148.74 121.02 150.03 121.43 151.21 C 121.85 152.38 123.14 153.00 124.32 152.58 Z M 125.28 152.24 L 126.26 151.88 C 127.43 151.46 128.04 150.17 127.62 149.00 C 127.19 147.83 125.90 147.22 124.73 147.64 L 123.76 147.99 C 122.59 148.41 121.98 149.70 122.40 150.88 C 122.82 152.05 124.11 152.66 125.28 152.24 Z M 126.26 151.86 L 127.18 151.52 C 128.33 151.10 128.93 149.82 128.51 148.66 C 128.08 147.50 126.80 146.91 125.64 147.33 L 124.73 147.67 C 123.57 148.09 122.98 149.37 123.40 150.53 C 123.82 151.69 125.11 152.28 126.26 151.86 Z M 127.14 151.50 L 128.04 151.19 C 129.19 150.78 129.79 149.52 129.38 148.38 C 128.98 147.23 127.72 146.63 126.58 147.04 L 125.68 147.35 C 124.53 147.76 123.93 149.01 124.34 150.16 C 124.74 151.31 126.00 151.91 127.14 151.50 Z M 128.00 151.17 L 128.95 150.85 C 130.09 150.47 130.70 149.24 130.32 148.10 C 129.94 146.96 128.70 146.35 127.57 146.73 L 126.62 147.05 C 125.48 147.43 124.87 148.66 125.25 149.80 C 125.63 150.94 126.86 151.55 128.00 151.17 Z M 128.93 150.83 L 129.88 150.52 C 131.00 150.15 131.61 148.93 131.24 147.81 C 130.87 146.68 129.65 146.07 128.53 146.44 L 127.58 146.75 C 126.46 147.13 125.84 148.34 126.22 149.47 C 126.59 150.59 127.81 151.21 128.93 150.83 Z M 129.86 150.50 L 130.80 150.19 C 131.91 149.83 132.52 148.63 132.16 147.52 C 131.79 146.40 130.60 145.79 129.48 146.16 L 128.54 146.46 C 127.43 146.83 126.82 148.03 127.18 149.14 C 127.55 150.25 128.75 150.86 129.86 150.50 Z M 130.78 150.16 L 131.70 149.87 C 132.80 149.51 133.40 148.34 133.05 147.24 C 132.70 146.14 131.52 145.54 130.42 145.89 L 129.50 146.18 C 128.40 146.54 127.80 147.72 128.15 148.81 C 128.50 149.91 129.68 150.52 130.78 150.16 Z M 131.69 149.84 L 132.65 149.53 C 133.73 149.18 134.32 148.02 133.97 146.93 C 133.62 145.85 132.46 145.26 131.38 145.61 L 130.42 145.92 C 129.34 146.27 128.75 147.43 129.10 148.51 C 129.45 149.59 130.61 150.19 131.69 149.84 Z M 132.63 149.50 L 133.53 149.22 C 134.60 148.87 135.19 147.73 134.84 146.66 C 134.50 145.59 133.35 145.00 132.28 145.35 L 131.39 145.63 C 130.32 145.98 129.73 147.12 130.08 148.19 C 130.42 149.26 131.57 149.85 132.63 149.50 Z M 133.49 149.20 L 134.53 148.89 C 135.59 148.57 136.19 147.44 135.86 146.38 C 135.54 145.32 134.42 144.72 133.35 145.04 L 132.32 145.36 C 131.26 145.68 130.66 146.80 130.98 147.87 C 131.31 148.93 132.43 149.53 133.49 149.20 Z M 134.48 148.88 L 135.42 148.61 C 136.47 148.31 137.09 147.22 136.79 146.16 C 136.49 145.11 135.40 144.49 134.34 144.79 L 133.40 145.06 C 132.35 145.35 131.73 146.45 132.03 147.50 C 132.33 148.56 133.42 149.17 134.48 148.88 Z M 135.38 148.59 L 136.34 148.33 C 137.39 148.05 138.00 146.98 137.73 145.94 C 137.45 144.90 136.38 144.28 135.34 144.56 L 134.38 144.82 C 133.33 145.09 132.72 146.16 132.99 147.20 C 133.27 148.25 134.34 148.86 135.38 148.59 Z M 136.32 148.30 L 137.32 148.04 C 138.35 147.78 138.96 146.73 138.70 145.70 C 138.43 144.68 137.39 144.06 136.36 144.33 L 135.36 144.59 C 134.33 144.85 133.72 145.90 133.98 146.93 C 134.25 147.95 135.30 148.57 136.32 148.30 Z M 137.31 148.02 L 137.81 147.89 C 138.82 147.63 139.43 146.60 139.17 145.59 C 138.92 144.57 137.88 143.96 136.87 144.22 L 136.37 144.35 C 135.36 144.61 134.75 145.64 135.01 146.66 C 135.27 147.67 136.30 148.28 137.31 148.02 Z"
      fill="black"
      fill-rule="nonzero" /><path d="M 130.78 141.64 L 130.78 140.68 C 130.78 139.56 129.87 138.65 128.75 138.65 C 127.63 138.65 126.72 139.56 126.72 140.68 L 126.72 141.64 C 126.72 142.76 127.63 143.67 128.75 143.67 C 129.87 143.67 130.78 142.76 130.78 141.64 Z M 126.60 140.73 L 126.61 141.52 C 126.64 142.72 127.62 143.66 128.81 143.64 C 130.00 143.62 130.95 142.63 130.93 141.44 L 130.91 140.64 C 130.89 139.45 129.90 138.50 128.71 138.53 C 127.52 138.55 126.57 139.53 126.60 140.73 Z M 126.60 141.61 L 126.67 142.80 C 126.74 144.00 127.77 144.91 128.97 144.84 C 130.17 144.77 131.08 143.74 131.01 142.54 L 130.94 141.35 C 130.87 140.15 129.84 139.24 128.64 139.31 C 127.44 139.38 126.53 140.41 126.60 141.61 Z M 126.67 142.86 L 126.76 143.88 C 126.86 145.08 127.92 145.97 129.12 145.87 C 130.32 145.76 131.20 144.70 131.10 143.51 L 131.01 142.48 C 130.91 141.28 129.85 140.40 128.65 140.50 C 127.45 140.61 126.57 141.66 126.67 142.86 Z M 126.76 143.87 L 126.84 144.88 C 126.93 146.08 127.99 146.98 129.19 146.88 C 130.39 146.78 131.28 145.73 131.19 144.53 L 131.10 143.52 C 131.01 142.32 129.95 141.42 128.75 141.52 C 127.55 141.62 126.66 142.67 126.76 143.87 Z M 126.83 144.82 L 126.88 145.81 C 126.95 147.02 127.97 147.94 129.18 147.88 C 130.38 147.82 131.31 146.79 131.24 145.58 L 131.19 144.59 C 131.13 143.39 130.10 142.46 128.90 142.52 C 127.69 142.59 126.77 143.61 126.83 144.82 Z M 126.88 145.78 L 126.92 146.73 C 126.97 147.94 127.98 148.88 129.19 148.83 C 130.39 148.78 131.33 147.77 131.28 146.56 L 131.24 145.61 C 131.20 144.41 130.18 143.47 128.98 143.52 C 127.77 143.57 126.84 144.58 126.88 145.78 Z M 126.92 146.74 L 126.96 147.74 C 127.01 148.95 128.03 149.88 129.23 149.84 C 130.43 149.79 131.37 148.77 131.32 147.57 L 131.28 146.56 C 131.23 145.36 130.22 144.42 129.01 144.47 C 127.81 144.52 126.87 145.53 126.92 146.74 Z M 126.96 147.74 L 127.00 148.73 C 127.05 149.93 128.06 150.87 129.26 150.82 C 130.47 150.78 131.40 149.76 131.36 148.56 L 131.32 147.57 C 131.27 146.37 130.26 145.43 129.06 145.48 C 127.85 145.53 126.92 146.54 126.96 147.74 Z M 127.01 148.71 L 127.04 149.72 C 127.07 150.92 128.07 151.87 129.27 151.83 C 130.47 151.80 131.42 150.80 131.38 149.60 L 131.35 148.58 C 131.32 147.38 130.32 146.44 129.12 146.47 C 127.92 146.51 126.97 147.51 127.01 148.71 Z M 127.04 149.69 L 127.05 150.67 C 127.07 151.86 128.05 152.82 129.24 152.81 C 130.44 152.80 131.40 151.81 131.39 150.62 L 131.38 149.64 C 131.36 148.44 130.38 147.48 129.18 147.49 C 127.99 147.51 127.03 148.49 127.04 149.69 Z M 127.06 150.65 L 127.06 151.66 C 127.06 152.86 128.03 153.83 129.23 153.82 C 130.42 153.82 131.39 152.85 131.39 151.66 L 131.38 150.64 C 131.38 149.44 130.41 148.48 129.22 148.48 C 128.02 148.48 127.05 149.45 127.06 150.65 Z M 127.07 151.66 L 127.07 152.65 C 127.07 153.84 128.03 154.81 129.22 154.81 C 130.41 154.81 131.38 153.84 131.38 152.65 L 131.38 151.66 C 131.38 150.47 130.41 149.50 129.22 149.50 C 128.03 149.50 127.07 150.47 127.07 151.66 Z M 127.08 152.65 L 127.08 153.66 C 127.08 154.85 128.04 155.81 129.22 155.81 C 130.41 155.81 131.37 154.85 131.37 153.66 L 131.37 152.65 C 131.37 151.47 130.41 150.51 129.22 150.51 C 128.04 150.51 127.08 151.47 127.08 152.65 Z M 127.09 153.66 L 127.09 154.67 C 127.09 155.85 128.04 156.80 129.22 156.80 C 130.40 156.80 131.36 155.85 131.36 154.67 L 131.36 153.66 C 131.36 152.48 130.40 151.53 129.22 151.53 C 128.04 151.53 127.09 152.48 127.09 153.66 Z M 127.10 154.67 L 127.10 155.66 C 127.10 156.84 128.05 157.79 129.22 157.79 C 130.40 157.79 131.35 156.84 131.35 155.66 L 131.35 154.67 C 131.35 153.49 130.40 152.54 129.22 152.54 C 128.05 152.54 127.10 153.49 127.10 154.67 Z M 127.10 155.66 L 127.10 156.66 C 127.10 157.83 128.05 158.78 129.22 158.78 C 130.39 158.78 131.34 157.83 131.34 156.66 L 131.34 155.66 C 131.34 154.49 130.39 153.54 129.22 153.54 C 128.05 153.54 127.10 154.49 127.10 155.66 Z M 127.11 156.65 L 127.10 157.65 C 127.09 158.81 128.04 159.77 129.20 159.77 C 130.37 159.78 131.32 158.84 131.33 157.67 L 131.34 156.67 C 131.34 155.50 130.40 154.55 129.23 154.54 C 128.07 154.54 127.11 155.48 127.11 156.65 Z M 127.10 157.62 L 127.09 158.62 C 127.06 159.79 127.99 160.75 129.16 160.77 C 130.32 160.80 131.29 159.87 131.31 158.70 L 131.33 157.70 C 131.35 156.53 130.42 155.57 129.25 155.55 C 128.09 155.53 127.13 156.45 127.10 157.62 Z M 127.09 158.58 L 127.05 159.59 C 127.01 160.75 127.92 161.73 129.08 161.77 C 130.24 161.82 131.22 160.91 131.27 159.74 L 131.30 158.74 C 131.35 157.58 130.44 156.60 129.28 156.56 C 128.11 156.51 127.13 157.42 127.09 158.58 Z M 127.06 159.53 L 127.00 160.54 C 126.92 161.70 127.80 162.70 128.96 162.77 C 130.12 162.84 131.12 161.96 131.20 160.80 L 131.26 159.80 C 131.33 158.64 130.45 157.64 129.29 157.56 C 128.13 157.49 127.13 158.37 127.06 159.53 Z M 127.00 160.47 L 126.91 161.47 C 126.80 162.63 127.65 163.65 128.80 163.76 C 129.96 163.87 130.99 163.02 131.10 161.86 L 131.19 160.87 C 131.30 159.71 130.45 158.68 129.29 158.57 C 128.14 158.47 127.11 159.31 127.00 160.47 Z M 126.92 161.40 L 126.79 162.38 C 126.64 163.53 127.46 164.59 128.61 164.73 C 129.76 164.88 130.81 164.07 130.96 162.92 L 131.09 161.93 C 131.24 160.78 130.42 159.73 129.27 159.58 C 128.12 159.43 127.06 160.25 126.92 161.40 Z M 126.80 162.32 L 126.64 163.30 C 126.46 164.45 127.25 165.53 128.39 165.71 C 129.54 165.89 130.62 165.11 130.80 163.96 L 130.95 162.97 C 131.13 161.83 130.35 160.75 129.20 160.57 C 128.05 160.39 126.98 161.17 126.80 162.32 Z M 126.65 163.28 L 126.48 164.25 C 126.29 165.39 127.06 166.48 128.21 166.67 C 129.36 166.86 130.44 166.09 130.63 164.95 L 130.80 163.98 C 130.99 162.83 130.22 161.75 129.07 161.56 C 127.92 161.36 126.84 162.14 126.65 163.28 Z M 126.49 164.23 L 126.31 165.19 C 126.11 166.34 126.87 167.43 128.02 167.64 C 129.16 167.84 130.25 167.08 130.46 165.93 L 130.63 164.97 C 130.84 163.82 130.07 162.73 128.93 162.52 C 127.78 162.32 126.69 163.08 126.49 164.23 Z M 126.32 165.14 L 126.11 166.14 C 125.88 167.28 126.61 168.40 127.75 168.63 C 128.89 168.87 130.01 168.14 130.24 167.00 L 130.45 165.99 C 130.69 164.85 129.95 163.74 128.81 163.50 C 127.67 163.26 126.56 164.00 126.32 165.14 Z M 126.13 166.07 L 125.89 167.04 C 125.61 168.17 126.31 169.31 127.44 169.59 C 128.58 169.87 129.72 169.17 129.99 168.04 L 130.23 167.07 C 130.51 165.94 129.81 164.80 128.68 164.52 C 127.55 164.24 126.40 164.94 126.13 166.07 Z M 125.91 166.95 L 125.62 167.92 C 125.30 169.05 125.94 170.22 127.07 170.55 C 128.19 170.88 129.37 170.23 129.69 169.10 L 129.98 168.13 C 130.30 167.00 129.66 165.83 128.53 165.50 C 127.41 165.18 126.23 165.82 125.91 166.95 Z M 125.64 167.81 L 125.23 168.99 C 124.84 170.10 125.42 171.32 126.54 171.71 C 127.65 172.10 128.87 171.52 129.26 170.40 L 129.67 169.22 C 130.06 168.11 129.48 166.89 128.37 166.50 C 127.25 166.11 126.03 166.69 125.64 167.81 Z M 125.16 169.13 L 124.97 169.82 C 124.66 170.98 125.34 172.16 126.50 172.47 C 127.65 172.78 128.84 172.10 129.15 170.95 L 129.33 170.26 C 129.64 169.11 128.96 167.92 127.81 167.61 C 126.65 167.30 125.47 167.98 125.16 169.13 Z M 128.42 172.10 L 129.09 171.57 C 130.04 170.82 130.20 169.44 129.44 168.49 C 128.69 167.54 127.31 167.38 126.37 168.14 L 125.70 168.67 C 124.75 169.42 124.59 170.80 125.34 171.75 C 126.09 172.69 127.47 172.85 128.42 172.10 Z M 129.11 171.57 L 129.89 170.95 C 130.84 170.18 130.98 168.79 130.22 167.84 C 129.45 166.90 128.06 166.75 127.12 167.51 L 126.34 168.14 C 125.39 168.90 125.25 170.29 126.01 171.24 C 126.78 172.19 128.17 172.34 129.11 171.57 Z M 129.72 171.07 L 130.60 170.48 C 131.62 169.81 131.89 168.44 131.22 167.42 C 130.54 166.41 129.18 166.13 128.16 166.81 L 127.28 167.39 C 126.27 168.07 125.99 169.44 126.66 170.45 C 127.34 171.46 128.71 171.74 129.72 171.07 Z M 130.59 170.48 L 131.40 169.94 C 132.42 169.27 132.69 167.91 132.03 166.90 C 131.36 165.89 130.00 165.61 128.98 166.28 L 128.17 166.81 C 127.16 167.48 126.88 168.84 127.55 169.85 C 128.22 170.87 129.58 171.15 130.59 170.48 Z M 131.41 169.92 L 132.27 169.34 C 133.27 168.67 133.53 167.32 132.86 166.32 C 132.19 165.32 130.84 165.05 129.84 165.72 L 128.98 166.30 C 127.98 166.97 127.71 168.32 128.38 169.32 C 129.06 170.32 130.41 170.59 131.41 169.92 Z M 132.27 169.32 L 133.12 168.74 C 134.11 168.06 134.36 166.72 133.69 165.73 C 133.02 164.75 131.67 164.49 130.69 165.17 L 129.83 165.75 C 128.85 166.42 128.59 167.77 129.27 168.75 C 129.94 169.74 131.28 169.99 132.27 169.32 Z M 133.11 168.70 L 133.97 168.10 C 134.94 167.44 135.18 166.11 134.51 165.15 C 133.85 164.19 132.52 163.94 131.56 164.61 L 130.70 165.20 C 129.73 165.87 129.49 167.19 130.16 168.16 C 130.82 169.12 132.15 169.36 133.11 168.70 Z M 133.93 168.07 L 134.72 167.53 C 135.66 166.89 135.91 165.60 135.27 164.66 C 134.63 163.72 133.34 163.47 132.40 164.11 L 131.61 164.65 C 130.66 165.29 130.42 166.57 131.06 167.52 C 131.70 168.46 132.98 168.71 133.93 168.07 Z M 134.64 167.52 L 135.47 166.99 C 136.41 166.39 136.68 165.15 136.09 164.21 C 135.49 163.27 134.25 163.00 133.31 163.59 L 132.48 164.12 C 131.54 164.72 131.27 165.96 131.86 166.90 C 132.46 167.84 133.70 168.11 134.64 167.52 Z M 135.38 166.98 L 136.24 166.48 C 137.18 165.94 137.49 164.73 136.95 163.80 C 136.40 162.86 135.20 162.55 134.27 163.09 L 133.40 163.60 C 132.47 164.14 132.15 165.34 132.70 166.28 C 133.24 167.21 134.44 167.53 135.38 166.98 Z M 136.15 166.48 L 137.04 166.01 C 137.97 165.51 138.33 164.36 137.84 163.42 C 137.35 162.49 136.19 162.13 135.26 162.62 L 134.36 163.10 C 133.43 163.59 133.07 164.75 133.56 165.68 C 134.05 166.61 135.21 166.97 136.15 166.48 Z M 136.95 166.00 L 137.86 165.56 C 138.79 165.12 139.19 164.00 138.74 163.07 C 138.30 162.14 137.18 161.75 136.25 162.20 L 135.34 162.63 C 134.41 163.08 134.02 164.19 134.46 165.12 C 134.91 166.05 136.02 166.44 136.95 166.00 Z M 137.79 165.55 L 138.70 165.16 C 139.63 164.75 140.05 163.67 139.64 162.75 C 139.24 161.82 138.16 161.40 137.24 161.80 L 136.32 162.20 C 135.40 162.61 134.98 163.69 135.38 164.61 C 135.79 165.54 136.87 165.96 137.79 165.55 Z M 138.65 165.16 L 139.57 164.78 C 140.50 164.41 140.94 163.35 140.57 162.42 C 140.19 161.50 139.14 161.05 138.21 161.43 L 137.29 161.80 C 136.36 162.18 135.92 163.24 136.29 164.16 C 136.67 165.09 137.72 165.53 138.65 165.16 Z M 139.55 164.78 L 139.98 164.61 C 140.91 164.25 141.36 163.20 141.00 162.28 C 140.64 161.35 139.59 160.89 138.66 161.26 L 138.23 161.43 C 137.31 161.79 136.85 162.84 137.22 163.77 C 137.58 164.69 138.63 165.15 139.55 164.78 Z"
      fill="black"
      fill-rule="nonzero" /><path d="M 151.61 120.70 L 151.56 121.66 C 151.49 122.82 152.37 123.82 153.53 123.88 C 154.68 123.95 155.68 123.07 155.75 121.91 L 155.81 120.94 C 155.87 119.79 154.99 118.79 153.83 118.72 C 152.68 118.66 151.68 119.54 151.61 120.70 Z M 151.58 121.48 L 151.43 122.47 C 151.25 123.62 152.04 124.69 153.19 124.86 C 154.34 125.03 155.41 124.24 155.58 123.09 L 155.73 122.10 C 155.90 120.95 155.11 119.88 153.96 119.71 C 152.82 119.54 151.75 120.33 151.58 121.48 Z M 151.47 122.26 L 151.23 123.19 C 150.94 124.31 151.62 125.45 152.74 125.74 C 153.87 126.03 155.01 125.35 155.30 124.23 L 155.54 123.30 C 155.82 122.18 155.15 121.04 154.02 120.75 C 152.90 120.46 151.76 121.14 151.47 122.26 Z M 151.26 123.09 L 150.94 124.11 C 150.60 125.22 151.23 126.39 152.33 126.74 C 153.44 127.08 154.62 126.45 154.96 125.35 L 155.27 124.32 C 155.61 123.22 154.99 122.04 153.88 121.70 C 152.77 121.36 151.60 121.98 151.26 123.09 Z M 150.95 124.08 L 150.66 124.99 C 150.30 126.10 150.91 127.28 152.01 127.63 C 153.12 127.99 154.30 127.39 154.66 126.28 L 154.95 125.37 C 155.31 124.27 154.70 123.09 153.60 122.73 C 152.49 122.37 151.31 122.98 150.95 124.08 Z M 150.67 124.97 L 150.35 125.93 C 149.98 127.03 150.57 128.22 151.67 128.59 C 152.77 128.96 153.96 128.36 154.33 127.26 L 154.65 126.30 C 155.02 125.20 154.43 124.01 153.33 123.65 C 152.23 123.28 151.04 123.87 150.67 124.97 Z M 150.35 125.90 L 150.01 126.87 C 149.63 127.96 150.20 129.16 151.30 129.55 C 152.39 129.93 153.59 129.36 153.98 128.26 L 154.32 127.29 C 154.70 126.20 154.13 125.00 153.03 124.61 C 151.94 124.23 150.74 124.80 150.35 125.90 Z M 150.02 126.84 L 149.68 127.77 C 149.27 128.86 149.83 130.07 150.92 130.47 C 152.02 130.87 153.23 130.31 153.63 129.22 L 153.97 128.29 C 154.37 127.20 153.82 125.99 152.72 125.59 C 151.63 125.19 150.42 125.75 150.02 126.84 Z M 149.67 127.75 L 149.32 128.69 C 148.91 129.78 149.46 131.00 150.55 131.42 C 151.65 131.83 152.87 131.27 153.28 130.18 L 153.63 129.24 C 154.04 128.15 153.49 126.93 152.40 126.52 C 151.30 126.10 150.09 126.66 149.67 127.75 Z M 149.31 128.69 L 148.95 129.66 C 148.53 130.75 149.09 131.98 150.19 132.39 C 151.28 132.80 152.51 132.25 152.92 131.15 L 153.29 130.18 C 153.70 129.09 153.14 127.86 152.05 127.45 C 150.95 127.04 149.72 127.59 149.31 128.69 Z M 148.94 129.67 L 148.57 130.66 C 148.17 131.76 148.73 132.98 149.83 133.39 C 150.93 133.79 152.16 133.23 152.56 132.13 L 152.93 131.14 C 153.34 130.04 152.77 128.82 151.67 128.41 C 150.57 128.00 149.35 128.57 148.94 129.67 Z M 148.56 130.68 L 148.24 131.59 C 147.84 132.70 148.42 133.92 149.53 134.32 C 150.63 134.71 151.85 134.13 152.25 133.03 L 152.58 132.11 C 152.97 131.00 152.39 129.78 151.29 129.39 C 150.18 128.99 148.96 129.57 148.56 130.68 Z M 148.21 131.66 L 147.87 132.72 C 147.51 133.84 148.13 135.05 149.25 135.41 C 150.38 135.77 151.58 135.15 151.94 134.02 L 152.28 132.96 C 152.64 131.84 152.02 130.63 150.89 130.27 C 149.77 129.91 148.57 130.53 148.21 131.66 Z M 147.75 133.43 L 147.77 134.25 C 147.80 135.44 148.79 136.37 149.98 136.34 C 151.17 136.31 152.11 135.32 152.08 134.13 L 152.06 133.31 C 152.02 132.12 151.03 131.18 149.84 131.22 C 148.66 131.25 147.72 132.24 147.75 133.43 Z M 149.34 136.28 L 150.10 136.49 C 151.26 136.82 152.45 136.14 152.78 134.99 C 153.10 133.84 152.43 132.64 151.28 132.32 L 150.51 132.10 C 149.36 131.78 148.16 132.45 147.84 133.60 C 147.51 134.75 148.18 135.95 149.34 136.28 Z M 151.07 136.54 L 152.17 136.35 C 153.35 136.14 154.14 135.02 153.93 133.83 C 153.72 132.65 152.59 131.86 151.41 132.07 L 150.31 132.26 C 149.13 132.47 148.34 133.60 148.55 134.78 C 148.76 135.96 149.89 136.75 151.07 136.54 Z M 152.49 136.27 L 153.40 135.96 C 154.54 135.57 155.15 134.34 154.76 133.20 C 154.38 132.06 153.14 131.45 152.00 131.84 L 151.09 132.15 C 149.95 132.54 149.34 133.77 149.73 134.91 C 150.11 136.05 151.35 136.66 152.49 136.27 Z M 153.55 135.91 L 154.51 135.50 C 155.62 135.03 156.14 133.76 155.68 132.65 C 155.21 131.54 153.94 131.02 152.83 131.49 L 151.86 131.89 C 150.75 132.36 150.23 133.64 150.70 134.74 C 151.16 135.85 152.44 136.37 153.55 135.91 Z M 154.57 135.47 L 155.51 135.05 C 156.60 134.55 157.09 133.27 156.59 132.17 C 156.10 131.08 154.81 130.59 153.72 131.09 L 152.78 131.51 C 151.68 132.01 151.20 133.30 151.69 134.39 C 152.18 135.48 153.47 135.97 154.57 135.47 Z M 155.52 135.04 L 156.44 134.62 C 157.53 134.11 158.01 132.82 157.50 131.73 C 157.00 130.64 155.71 130.17 154.62 130.67 L 153.70 131.10 C 152.61 131.60 152.14 132.89 152.64 133.98 C 153.14 135.07 154.43 135.54 155.52 135.04 Z M 156.43 134.62 L 157.36 134.20 C 158.45 133.70 158.93 132.41 158.43 131.32 C 157.93 130.23 156.65 129.75 155.56 130.25 L 154.63 130.67 C 153.54 131.17 153.06 132.45 153.56 133.54 C 154.05 134.63 155.34 135.12 156.43 134.62 Z M 157.33 134.20 L 158.22 133.81 C 159.32 133.32 159.81 132.05 159.33 130.95 C 158.84 129.86 157.57 129.37 156.47 129.85 L 155.58 130.24 C 154.49 130.73 153.99 132.00 154.48 133.10 C 154.96 134.19 156.24 134.68 157.33 134.20 Z M 158.23 133.80 L 159.09 133.41 C 160.18 132.93 160.67 131.65 160.19 130.56 C 159.70 129.48 158.43 128.99 157.34 129.47 L 156.47 129.86 C 155.38 130.34 154.90 131.62 155.38 132.71 C 155.86 133.79 157.14 134.28 158.23 133.80 Z M 159.10 133.40 L 160.02 132.98 C 161.10 132.49 161.58 131.22 161.09 130.14 C 160.60 129.06 159.33 128.58 158.25 129.07 L 157.33 129.48 C 156.25 129.97 155.77 131.25 156.26 132.33 C 156.75 133.41 158.02 133.89 159.10 133.40 Z M 160.01 132.98 L 160.93 132.57 C 162.01 132.08 162.49 130.82 162.01 129.74 C 161.52 128.66 160.26 128.18 159.18 128.66 L 158.26 129.07 C 157.19 129.56 156.70 130.82 157.19 131.90 C 157.67 132.98 158.93 133.46 160.01 132.98 Z M 160.92 132.55 L 161.84 132.15 C 162.91 131.67 163.39 130.41 162.91 129.34 C 162.43 128.27 161.17 127.79 160.10 128.27 L 159.19 128.67 C 158.12 129.15 157.64 130.41 158.11 131.48 C 158.59 132.55 159.85 133.03 160.92 132.55 Z M 161.84 132.12 L 162.76 131.71 C 163.82 131.23 164.29 129.98 163.81 128.92 C 163.33 127.86 162.08 127.39 161.02 127.87 L 160.10 128.29 C 159.04 128.77 158.57 130.02 159.05 131.08 C 159.53 132.14 160.78 132.61 161.84 132.12 Z M 162.76 131.68 L 163.66 131.27 C 164.71 130.79 165.17 129.56 164.69 128.51 C 164.21 127.46 162.97 127.00 161.92 127.48 L 161.02 127.89 C 159.98 128.37 159.52 129.61 159.99 130.66 C 160.47 131.70 161.71 132.16 162.76 131.68 Z M 163.65 131.25 L 164.56 130.83 C 165.60 130.36 166.05 129.13 165.58 128.10 C 165.11 127.06 163.88 126.61 162.85 127.08 L 161.93 127.50 C 160.90 127.98 160.44 129.20 160.92 130.23 C 161.39 131.27 162.61 131.72 163.65 131.25 Z M 164.55 130.81 L 165.42 130.41 C 166.44 129.94 166.89 128.74 166.42 127.72 C 165.96 126.69 164.75 126.25 163.73 126.71 L 162.86 127.11 C 161.84 127.57 161.39 128.78 161.86 129.80 C 162.32 130.82 163.53 131.27 164.55 130.81 Z M 165.41 130.38 L 166.31 129.97 C 167.31 129.51 167.75 128.32 167.29 127.32 C 166.83 126.31 165.65 125.87 164.64 126.33 L 163.74 126.74 C 162.74 127.20 162.30 128.39 162.76 129.39 C 163.22 130.40 164.40 130.84 165.41 130.38 Z M 166.30 129.94 L 167.19 129.52 C 168.18 129.07 168.61 127.90 168.16 126.92 C 167.71 125.93 166.54 125.50 165.55 125.95 L 164.65 126.36 C 163.67 126.82 163.24 127.98 163.69 128.97 C 164.14 129.96 165.31 130.39 166.30 129.94 Z M 167.17 129.50 L 168.09 129.09 C 169.06 128.65 169.50 127.51 169.06 126.53 C 168.63 125.55 167.48 125.12 166.50 125.55 L 165.58 125.97 C 164.60 126.41 164.17 127.55 164.61 128.53 C 165.04 129.51 166.19 129.94 167.17 129.50 Z M 168.03 129.09 L 169.00 128.68 C 169.97 128.27 170.43 127.15 170.03 126.18 C 169.62 125.21 168.50 124.75 167.52 125.16 L 166.56 125.56 C 165.58 125.97 165.12 127.09 165.53 128.06 C 165.94 129.03 167.06 129.49 168.03 129.09 Z M 168.93 128.68 L 169.87 128.32 C 170.84 127.95 171.33 126.87 170.96 125.89 C 170.59 124.92 169.50 124.44 168.53 124.80 L 167.59 125.16 C 166.62 125.53 166.14 126.62 166.50 127.59 C 166.87 128.56 167.96 129.05 168.93 128.68 Z M 169.82 128.30 L 170.76 127.97 C 171.72 127.63 172.22 126.57 171.88 125.61 C 171.54 124.65 170.48 124.15 169.52 124.49 L 168.58 124.82 C 167.62 125.16 167.12 126.22 167.46 127.18 C 167.80 128.14 168.86 128.64 169.82 128.30 Z M 170.74 127.95 L 171.14 127.81 C 172.09 127.48 172.60 126.44 172.26 125.49 C 171.93 124.54 170.90 124.04 169.95 124.37 L 169.54 124.51 C 168.59 124.84 168.09 125.88 168.42 126.83 C 168.75 127.78 169.79 128.28 170.74 127.95 Z"
      fill="black"
      fill-rule="nonzero" /><path d="M 147.26 150.83 L 148.17 150.76 C 149.27 150.67 150.10 149.71 150.02 148.60 C 149.93 147.49 148.96 146.66 147.86 146.75 L 146.95 146.82 C 145.84 146.90 145.01 147.87 145.10 148.98 C 145.18 150.08 146.15 150.91 147.26 150.83 Z M 148.36 150.78 L 149.37 150.61 C 150.49 150.41 151.24 149.35 151.05 148.23 C 150.85 147.11 149.79 146.36 148.67 146.55 L 147.66 146.73 C 146.54 146.92 145.79 147.98 145.98 149.10 C 146.18 150.22 147.24 150.97 148.36 150.78 Z M 149.62 150.58 L 150.62 150.28 C 151.73 149.95 152.36 148.78 152.02 147.67 C 151.69 146.56 150.52 145.94 149.41 146.27 L 148.41 146.57 C 147.31 146.91 146.68 148.08 147.01 149.18 C 147.35 150.29 148.52 150.92 149.62 150.58 Z M 150.78 150.25 L 151.75 149.88 C 152.84 149.46 153.38 148.23 152.96 147.14 C 152.53 146.05 151.31 145.51 150.22 145.93 L 149.25 146.30 C 148.16 146.73 147.62 147.95 148.04 149.04 C 148.46 150.13 149.69 150.68 150.78 150.25 Z M 151.83 149.86 L 152.76 149.46 C 153.85 148.99 154.34 147.73 153.88 146.65 C 153.41 145.57 152.15 145.07 151.07 145.54 L 150.13 145.94 C 149.05 146.41 148.55 147.67 149.02 148.75 C 149.49 149.83 150.75 150.33 151.83 149.86 Z M 152.81 149.46 L 153.76 149.02 C 154.84 148.53 155.32 147.25 154.83 146.17 C 154.33 145.09 153.06 144.61 151.98 145.11 L 151.02 145.54 C 149.94 146.04 149.47 147.31 149.96 148.39 C 150.45 149.47 151.73 149.95 152.81 149.46 Z M 153.78 149.02 L 154.68 148.60 C 155.76 148.10 156.22 146.81 155.72 145.73 C 155.21 144.65 153.93 144.19 152.85 144.69 L 151.96 145.11 C 150.87 145.61 150.41 146.90 150.91 147.98 C 151.42 149.06 152.70 149.53 153.78 149.02 Z M 154.68 148.61 L 155.50 148.22 C 156.59 147.72 157.06 146.43 156.55 145.35 C 156.05 144.26 154.76 143.79 153.68 144.30 L 152.85 144.68 C 151.77 145.19 151.30 146.48 151.80 147.56 C 152.30 148.64 153.59 149.11 154.68 148.61 Z M 155.49 148.23 L 156.38 147.83 C 157.47 147.33 157.95 146.04 157.45 144.95 C 156.96 143.87 155.67 143.39 154.58 143.88 L 153.69 144.29 C 152.60 144.79 152.12 146.07 152.62 147.16 C 153.12 148.25 154.40 148.73 155.49 148.23 Z M 156.40 147.82 L 157.34 147.38 C 158.42 146.88 158.89 145.59 158.39 144.50 C 157.88 143.41 156.59 142.94 155.50 143.45 L 154.56 143.89 C 153.48 144.39 153.01 145.69 153.51 146.77 C 154.02 147.86 155.31 148.33 156.40 147.82 Z M 157.37 147.37 L 158.24 146.94 C 159.31 146.42 159.76 145.12 159.24 144.05 C 158.72 142.97 157.42 142.52 156.34 143.04 L 155.47 143.47 C 154.40 143.99 153.95 145.29 154.47 146.36 C 155.00 147.44 156.29 147.89 157.37 147.37 Z M 158.25 146.93 L 159.16 146.48 C 160.23 145.95 160.66 144.65 160.13 143.58 C 159.60 142.51 158.31 142.08 157.24 142.61 L 156.33 143.06 C 155.26 143.59 154.82 144.89 155.35 145.96 C 155.88 147.03 157.18 147.46 158.25 146.93 Z M 159.15 146.48 L 160.07 146.03 C 161.13 145.50 161.57 144.20 161.04 143.14 C 160.52 142.07 159.22 141.63 158.15 142.16 L 157.24 142.61 C 156.17 143.14 155.74 144.43 156.26 145.50 C 156.79 146.57 158.09 147.00 159.15 146.48 Z M 160.06 146.02 L 160.96 145.57 C 162.03 145.05 162.47 143.76 161.94 142.70 C 161.42 141.63 160.13 141.20 159.06 141.72 L 158.16 142.17 C 157.10 142.69 156.66 143.98 157.18 145.04 C 157.71 146.11 159.00 146.54 160.06 146.02 Z M 160.97 145.56 L 161.87 145.11 C 162.92 144.58 163.35 143.30 162.82 142.24 C 162.29 141.18 161.01 140.76 159.95 141.29 L 159.06 141.74 C 158.00 142.26 157.57 143.55 158.10 144.61 C 158.63 145.66 159.92 146.09 160.97 145.56 Z M 161.89 145.09 L 162.80 144.62 C 163.84 144.07 164.25 142.79 163.70 141.75 C 163.16 140.70 161.88 140.30 160.83 140.84 L 159.93 141.31 C 158.89 141.85 158.48 143.14 159.02 144.18 C 159.56 145.22 160.85 145.63 161.89 145.09 Z M 162.82 144.59 L 163.69 144.12 C 164.72 143.56 165.11 142.28 164.55 141.25 C 164.00 140.22 162.72 139.84 161.69 140.39 L 160.81 140.86 C 159.78 141.42 159.40 142.70 159.95 143.73 C 160.51 144.76 161.79 145.15 162.82 144.59 Z M 163.71 144.10 L 164.57 143.62 C 165.59 143.06 165.96 141.78 165.40 140.77 C 164.84 139.75 163.56 139.38 162.54 139.94 L 161.68 140.41 C 160.66 140.97 160.29 142.25 160.85 143.27 C 161.41 144.29 162.69 144.66 163.71 144.10 Z M 164.57 143.61 L 165.46 143.11 C 166.46 142.55 166.83 141.28 166.26 140.27 C 165.70 139.26 164.43 138.90 163.42 139.46 L 162.54 139.95 C 161.53 140.52 161.17 141.79 161.73 142.80 C 162.29 143.81 163.56 144.17 164.57 143.61 Z M 165.46 143.09 L 166.32 142.61 C 167.32 142.04 167.67 140.78 167.10 139.78 C 166.54 138.78 165.28 138.43 164.28 139.00 L 163.42 139.48 C 162.42 140.05 162.07 141.31 162.63 142.31 C 163.20 143.31 164.46 143.66 165.46 143.09 Z M 166.32 142.58 L 167.21 142.08 C 168.19 141.51 168.53 140.25 167.97 139.27 C 167.40 138.29 166.15 137.95 165.16 138.51 L 164.28 139.02 C 163.29 139.58 162.95 140.84 163.52 141.83 C 164.08 142.81 165.34 143.15 166.32 142.58 Z M 167.21 142.05 L 168.06 141.56 C 169.03 140.99 169.36 139.75 168.80 138.78 C 168.24 137.80 166.99 137.47 166.02 138.04 L 165.16 138.53 C 164.19 139.10 163.86 140.34 164.43 141.31 C 164.99 142.29 166.23 142.62 167.21 142.05 Z M 168.05 141.54 L 168.93 141.03 C 169.89 140.47 170.21 139.24 169.66 138.28 C 169.10 137.32 167.87 136.99 166.91 137.55 L 166.03 138.06 C 165.07 138.62 164.74 139.85 165.30 140.81 C 165.86 141.77 167.09 142.09 168.05 141.54 Z M 168.92 141.00 L 169.77 140.50 C 170.72 139.95 171.04 138.73 170.49 137.78 C 169.93 136.84 168.72 136.52 167.77 137.07 L 166.92 137.57 C 165.97 138.13 165.65 139.34 166.20 140.29 C 166.76 141.24 167.97 141.55 168.92 141.00 Z M 169.78 140.46 L 170.60 139.97 C 171.53 139.41 171.83 138.21 171.27 137.28 C 170.71 136.36 169.51 136.06 168.58 136.62 L 167.76 137.11 C 166.84 137.67 166.54 138.87 167.10 139.80 C 167.65 140.72 168.86 141.02 169.78 140.46 Z M 170.62 139.92 L 171.47 139.38 C 172.37 138.81 172.64 137.62 172.07 136.72 C 171.50 135.82 170.31 135.56 169.41 136.13 L 168.56 136.66 C 167.66 137.23 167.39 138.42 167.96 139.32 C 168.53 140.22 169.72 140.49 170.62 139.92 Z M 171.50 139.34 L 172.33 138.78 C 173.21 138.19 173.44 137.01 172.86 136.14 C 172.27 135.27 171.09 135.03 170.22 135.62 L 169.39 136.17 C 168.51 136.76 168.28 137.94 168.86 138.81 C 169.45 139.68 170.63 139.92 171.50 139.34 Z M 172.43 138.68 L 173.23 138.06 C 174.05 137.42 174.20 136.24 173.57 135.42 C 172.93 134.61 171.75 134.46 170.93 135.09 L 170.13 135.71 C 169.31 136.35 169.16 137.53 169.80 138.35 C 170.43 139.16 171.61 139.31 172.43 138.68 Z M 173.44 137.84 L 174.13 137.09 C 174.83 136.34 174.79 135.17 174.04 134.47 C 173.29 133.78 172.12 133.82 171.43 134.56 L 170.73 135.31 C 170.03 136.06 170.07 137.23 170.82 137.93 C 171.57 138.62 172.74 138.58 173.44 137.84 Z M 174.31 136.82 L 174.84 136.01 C 175.39 135.16 175.16 134.03 174.31 133.48 C 173.47 132.93 172.33 133.16 171.78 134.01 L 171.25 134.83 C 170.70 135.67 170.94 136.81 171.78 137.36 C 172.63 137.91 173.76 137.67 174.31 136.82 Z M 174.88 135.92 L 175.01 135.69 C 175.51 134.83 175.22 133.72 174.35 133.22 C 173.49 132.71 172.38 133.01 171.88 133.87 L 171.75 134.10 C 171.24 134.96 171.54 136.07 172.40 136.57 C 173.27 137.08 174.38 136.78 174.88 135.92 Z"
      fill="black"
      fill-rule="nonzero" /><path d="M 163.09 116.24 L 162.44 116.98 C 161.74 117.78 161.81 118.99 162.61 119.70 C 163.41 120.40 164.63 120.32 165.33 119.52 L 165.98 118.79 C 166.68 117.99 166.60 116.77 165.80 116.07 C 165.01 115.37 163.79 115.45 163.09 116.24 Z M 162.08 117.46 L 161.69 118.36 C 161.26 119.35 161.71 120.51 162.71 120.94 C 163.70 121.38 164.86 120.92 165.29 119.93 L 165.68 119.04 C 166.12 118.04 165.66 116.88 164.67 116.45 C 163.68 116.02 162.52 116.47 162.08 117.46 Z M 161.51 118.91 L 161.39 119.89 C 161.26 120.99 162.05 121.98 163.14 122.11 C 164.24 122.24 165.23 121.46 165.36 120.36 L 165.48 119.38 C 165.61 118.28 164.83 117.29 163.73 117.16 C 162.63 117.03 161.64 117.81 161.51 118.91 Z M 161.35 120.11 L 161.34 121.17 C 161.33 122.29 162.23 123.21 163.35 123.22 C 164.47 123.23 165.39 122.33 165.40 121.21 L 165.41 120.15 C 165.42 119.03 164.52 118.11 163.40 118.10 C 162.28 118.09 161.36 118.99 161.35 120.11 Z M 161.32 121.25 L 161.35 122.27 C 161.39 123.40 162.33 124.29 163.46 124.25 C 164.59 124.22 165.48 123.28 165.44 122.15 L 165.41 121.13 C 165.38 120.00 164.43 119.11 163.31 119.14 C 162.18 119.18 161.29 120.12 161.32 121.25 Z M 161.35 122.38 L 161.43 123.35 C 161.52 124.48 162.52 125.33 163.65 125.23 C 164.78 125.14 165.62 124.15 165.53 123.02 L 165.45 122.04 C 165.36 120.91 164.36 120.07 163.23 120.16 C 162.10 120.25 161.26 121.25 161.35 122.38 Z M 161.44 123.49 L 161.58 124.47 C 161.75 125.59 162.80 126.37 163.93 126.20 C 165.06 126.04 165.83 124.99 165.67 123.86 L 165.52 122.88 C 165.35 121.75 164.30 120.98 163.18 121.14 C 162.05 121.31 161.27 122.36 161.44 123.49 Z M 161.59 124.53 L 161.76 125.47 C 161.96 126.60 163.03 127.35 164.16 127.15 C 165.28 126.95 166.03 125.87 165.83 124.75 L 165.66 123.80 C 165.46 122.67 164.39 121.93 163.26 122.13 C 162.14 122.33 161.39 123.40 161.59 124.53 Z M 161.75 125.46 L 161.92 126.46 C 162.12 127.59 163.18 128.35 164.31 128.15 C 165.44 127.96 166.20 126.89 166.01 125.77 L 165.84 124.76 C 165.64 123.64 164.57 122.88 163.45 123.07 C 162.32 123.26 161.56 124.33 161.75 125.46 Z M 161.91 126.42 L 162.06 127.38 C 162.23 128.51 163.28 129.29 164.41 129.12 C 165.55 128.95 166.33 127.90 166.16 126.77 L 166.02 125.81 C 165.85 124.67 164.79 123.89 163.66 124.06 C 162.53 124.23 161.75 125.29 161.91 126.42 Z M 162.05 127.33 L 162.18 128.34 C 162.32 129.48 163.36 130.28 164.50 130.14 C 165.64 129.99 166.44 128.95 166.29 127.82 L 166.17 126.81 C 166.02 125.67 164.98 124.87 163.84 125.01 C 162.71 125.16 161.90 126.20 162.05 127.33 Z M 162.17 128.31 L 162.28 129.30 C 162.41 130.44 163.44 131.26 164.58 131.14 C 165.72 131.01 166.54 129.98 166.41 128.84 L 166.30 127.85 C 166.17 126.71 165.15 125.89 164.01 126.02 C 162.87 126.14 162.04 127.17 162.17 128.31 Z M 162.27 129.28 L 162.37 130.28 C 162.49 131.42 163.51 132.26 164.65 132.14 C 165.80 132.03 166.63 131.01 166.52 129.86 L 166.42 128.86 C 166.30 127.72 165.28 126.88 164.14 127.00 C 163.00 127.11 162.16 128.13 162.27 129.28 Z M 162.37 130.26 L 162.46 131.27 C 162.56 132.42 163.58 133.27 164.73 133.17 C 165.87 133.06 166.72 132.05 166.62 130.90 L 166.53 129.88 C 166.42 128.73 165.41 127.89 164.26 127.99 C 163.11 128.09 162.26 129.11 162.37 130.26 Z M 162.45 131.26 L 162.53 132.24 C 162.63 133.39 163.64 134.25 164.79 134.15 C 165.94 134.06 166.80 133.05 166.70 131.90 L 166.62 130.92 C 166.53 129.77 165.52 128.91 164.37 129.00 C 163.22 129.10 162.36 130.11 162.45 131.26 Z M 162.53 132.22 L 162.60 133.22 C 162.69 134.37 163.69 135.24 164.84 135.16 C 165.99 135.08 166.86 134.07 166.78 132.92 L 166.70 131.92 C 166.62 130.77 165.62 129.90 164.47 129.98 C 163.32 130.07 162.45 131.07 162.53 132.22 Z M 162.60 133.20 L 162.66 134.19 C 162.73 135.34 163.73 136.22 164.88 136.15 C 166.03 136.08 166.91 135.08 166.84 133.93 L 166.78 132.94 C 166.71 131.79 165.71 130.91 164.56 130.98 C 163.41 131.05 162.53 132.05 162.60 133.20 Z M 162.66 134.17 L 162.71 135.15 C 162.77 136.31 163.75 137.20 164.91 137.14 C 166.06 137.08 166.95 136.09 166.89 134.94 L 166.84 133.95 C 166.78 132.80 165.80 131.91 164.65 131.97 C 163.49 132.03 162.60 133.01 162.66 134.17 Z M 162.71 135.12 L 162.75 136.14 C 162.79 137.30 163.76 138.20 164.92 138.16 C 166.07 138.12 166.97 137.15 166.93 135.99 L 166.89 134.97 C 166.85 133.81 165.88 132.91 164.72 132.96 C 163.57 133.00 162.67 133.97 162.71 135.12 Z M 162.75 136.11 L 162.77 137.11 C 162.79 138.26 163.75 139.18 164.91 139.15 C 166.06 139.13 166.98 138.17 166.95 137.01 L 166.93 136.02 C 166.91 134.87 165.95 133.95 164.79 133.97 C 163.64 134.00 162.72 134.96 162.75 136.11 Z M 162.77 137.08 L 162.78 138.07 C 162.79 139.23 163.73 140.15 164.89 140.14 C 166.05 140.13 166.97 139.19 166.96 138.03 L 166.95 137.04 C 166.94 135.88 166.00 134.96 164.84 134.97 C 163.69 134.98 162.76 135.92 162.77 137.08 Z M 162.78 138.05 L 162.78 139.07 C 162.78 140.23 163.72 141.16 164.88 141.16 C 166.03 141.15 166.97 140.22 166.97 139.06 L 166.96 138.04 C 166.96 136.89 166.02 135.95 164.86 135.96 C 163.71 135.96 162.77 136.90 162.78 138.05 Z M 162.78 139.06 L 162.78 140.07 C 162.78 141.22 163.72 142.16 164.87 142.16 C 166.03 142.16 166.97 141.22 166.97 140.07 L 166.97 139.06 C 166.96 137.91 166.03 136.97 164.87 136.97 C 163.72 136.97 162.78 137.91 162.78 139.06 Z M 162.78 140.07 L 162.78 141.06 C 162.78 142.21 163.72 143.15 164.87 143.15 C 166.03 143.15 166.96 142.21 166.96 141.06 L 166.96 140.07 C 166.96 138.91 166.03 137.98 164.87 137.98 C 163.72 137.98 162.78 138.91 162.78 140.07 Z M 162.78 141.06 L 162.78 142.06 C 162.78 143.22 163.72 144.15 164.87 144.15 C 166.03 144.15 166.96 143.22 166.96 142.06 L 166.96 141.06 C 166.96 139.90 166.03 138.96 164.87 138.96 C 163.72 138.96 162.78 139.90 162.78 141.06 Z M 162.78 142.06 L 162.78 143.08 C 162.78 144.23 163.72 145.17 164.87 145.17 C 166.03 145.17 166.96 144.23 166.96 143.08 L 166.96 142.06 C 166.96 140.91 166.03 139.97 164.87 139.97 C 163.72 139.97 162.78 140.91 162.78 142.06 Z M 162.78 143.08 L 162.78 144.05 C 162.78 145.21 163.72 146.14 164.87 146.14 C 166.03 146.14 166.96 145.21 166.96 144.05 L 166.96 143.08 C 166.96 141.92 166.03 140.99 164.87 140.99 C 163.72 140.99 162.78 141.92 162.78 143.08 Z M 162.78 144.05 L 162.78 145.04 C 162.78 146.20 163.72 147.13 164.87 147.13 C 166.03 147.13 166.96 146.20 166.96 145.04 L 166.96 144.05 C 166.96 142.90 166.03 141.96 164.87 141.96 C 163.72 141.96 162.78 142.90 162.78 144.05 Z M 162.78 145.04 L 162.78 146.06 C 162.78 147.21 163.72 148.15 164.87 148.15 C 166.03 148.15 166.96 147.21 166.96 146.06 L 166.96 145.04 C 166.96 143.89 166.03 142.96 164.87 142.96 C 163.72 142.96 162.78 143.89 162.78 145.04 Z M 162.78 146.06 L 162.78 147.08 C 162.78 148.23 163.72 149.17 164.87 149.17 C 166.03 149.17 166.96 148.23 166.96 147.08 L 166.96 146.06 C 166.96 144.91 166.03 143.97 164.87 143.97 C 163.72 143.97 162.78 144.91 162.78 146.06 Z M 162.78 147.08 L 162.78 148.08 C 162.77 149.24 163.71 150.18 164.87 150.18 C 166.03 150.18 166.97 149.24 166.97 148.08 L 166.97 147.08 C 166.97 145.92 166.03 144.98 164.87 144.98 C 163.72 144.98 162.78 145.92 162.78 147.08 Z M 162.77 148.08 L 162.76 149.09 C 162.76 150.25 163.70 151.19 164.86 151.20 C 166.03 151.20 166.97 150.26 166.97 149.10 L 166.98 148.09 C 166.98 146.92 166.04 145.98 164.88 145.98 C 163.71 145.97 162.77 146.91 162.77 148.08 Z M 162.76 149.08 L 162.75 150.08 C 162.74 151.24 163.68 152.19 164.85 152.20 C 166.02 152.21 166.97 151.27 166.98 150.10 L 166.98 149.10 C 166.99 147.94 166.05 146.98 164.88 146.98 C 163.71 146.97 162.76 147.91 162.76 149.08 Z M 162.75 150.07 L 162.73 151.08 C 162.72 152.25 163.66 153.21 164.83 153.22 C 166.00 153.24 166.96 152.30 166.97 151.13 L 166.98 150.11 C 166.99 148.94 166.06 147.98 164.89 147.97 C 163.72 147.96 162.76 148.90 162.75 150.07 Z M 162.73 151.07 L 162.72 152.08 C 162.69 153.25 163.63 154.22 164.80 154.24 C 165.97 154.26 166.93 153.33 166.95 152.16 L 166.97 151.14 C 166.99 149.97 166.06 149.01 164.89 148.99 C 163.72 148.97 162.76 149.90 162.73 151.07 Z M 162.72 152.06 L 162.69 153.04 C 162.65 154.21 163.58 155.19 164.74 155.22 C 165.91 155.26 166.89 154.34 166.92 153.17 L 166.95 152.18 C 166.99 151.01 166.06 150.03 164.90 150.00 C 163.73 149.97 162.75 150.89 162.72 152.06 Z M 162.69 153.01 L 162.65 153.99 C 162.60 155.16 163.51 156.15 164.67 156.20 C 165.84 156.25 166.83 155.34 166.88 154.17 L 166.92 153.20 C 166.97 152.03 166.06 151.04 164.90 150.99 C 163.73 150.94 162.74 151.85 162.69 153.01 Z M 162.65 153.96 L 162.59 154.97 C 162.53 156.13 163.42 157.13 164.58 157.20 C 165.75 157.27 166.75 156.38 166.82 155.21 L 166.88 154.20 C 166.94 153.04 166.05 152.04 164.89 151.97 C 163.72 151.90 162.72 152.79 162.65 153.96 Z M 162.60 154.94 L 162.53 155.94 C 162.45 157.11 163.33 158.12 164.50 158.20 C 165.66 158.28 166.67 157.40 166.75 156.23 L 166.82 155.23 C 166.90 154.07 166.01 153.06 164.85 152.98 C 163.68 152.90 162.68 153.78 162.60 154.94 Z M 162.53 155.94 L 162.46 156.93 C 162.38 158.09 163.25 159.10 164.42 159.19 C 165.58 159.27 166.59 158.39 166.68 157.23 L 166.75 156.24 C 166.83 155.07 165.95 154.06 164.79 153.98 C 163.62 153.90 162.61 154.77 162.53 155.94 Z M 162.46 156.93 L 162.39 157.94 C 162.31 159.10 163.19 160.11 164.35 160.19 C 165.52 160.27 166.53 159.39 166.61 158.23 L 166.67 157.22 C 166.75 156.06 165.88 155.05 164.71 154.97 C 163.55 154.89 162.54 155.77 162.46 156.93 Z M 162.40 157.95 L 162.33 158.95 C 162.26 160.11 163.14 161.11 164.30 161.19 C 165.46 161.26 166.46 160.38 166.54 159.22 L 166.60 158.22 C 166.68 157.06 165.80 156.05 164.63 155.98 C 163.47 155.90 162.47 156.78 162.40 157.95 Z M 162.34 158.96 L 162.27 159.95 C 162.20 161.11 163.08 162.10 164.24 162.18 C 165.40 162.25 166.40 161.37 166.47 160.21 L 166.53 159.22 C 166.60 158.06 165.72 157.06 164.56 156.99 C 163.40 156.92 162.41 157.80 162.34 158.96 Z M 162.28 159.95 L 162.22 160.94 C 162.15 162.10 163.03 163.10 164.18 163.17 C 165.34 163.24 166.34 162.36 166.41 161.20 L 166.47 160.21 C 166.54 159.05 165.66 158.05 164.50 157.98 C 163.34 157.91 162.35 158.79 162.28 159.95 Z M 162.22 160.94 L 162.16 161.96 C 162.09 163.11 162.97 164.11 164.12 164.18 C 165.28 164.25 166.27 163.37 166.34 162.21 L 166.41 161.20 C 166.48 160.04 165.60 159.05 164.44 158.98 C 163.28 158.91 162.29 159.79 162.22 160.94 Z M 162.16 161.96 L 162.10 162.95 C 162.03 164.11 162.91 165.10 164.07 165.17 C 165.22 165.24 166.22 164.36 166.29 163.20 L 166.34 162.21 C 166.41 161.05 165.53 160.06 164.37 159.99 C 163.22 159.92 162.22 160.80 162.16 161.96 Z M 162.10 162.96 L 162.04 163.95 C 161.98 165.10 162.87 166.09 164.02 166.16 C 165.18 166.22 166.17 165.33 166.23 164.18 L 166.29 163.19 C 166.35 162.04 165.46 161.05 164.31 160.98 C 163.15 160.92 162.16 161.81 162.10 162.96 Z M 162.04 163.96 L 161.99 164.96 C 161.94 166.11 162.83 167.10 163.99 167.15 C 165.15 167.21 166.13 166.32 166.19 165.16 L 166.23 164.16 C 166.29 163.00 165.40 162.02 164.24 161.96 C 163.08 161.91 162.10 162.80 162.04 163.96 Z M 161.99 164.97 L 161.95 165.96 C 161.90 167.12 162.80 168.10 163.96 168.15 C 165.12 168.20 166.10 167.30 166.15 166.14 L 166.19 165.14 C 166.24 163.98 165.34 163.01 164.18 162.96 C 163.02 162.91 162.04 163.81 161.99 164.97 Z M 161.95 165.98 L 161.91 166.99 C 161.87 168.15 162.78 169.12 163.94 169.16 C 165.10 169.20 166.08 168.29 166.12 167.13 L 166.15 166.12 C 166.19 164.96 165.28 163.99 164.12 163.95 C 162.96 163.91 161.99 164.82 161.95 165.98 Z M 161.91 167.00 L 161.88 168.03 C 161.85 169.20 162.76 170.16 163.92 170.20 C 165.09 170.23 166.05 169.32 166.09 168.15 L 166.12 167.12 C 166.15 165.96 165.23 164.99 164.07 164.96 C 162.91 164.92 161.94 165.84 161.91 167.00 Z M 161.88 168.04 L 161.85 169.05 C 161.82 170.21 162.74 171.18 163.91 171.21 C 165.07 171.24 166.04 170.32 166.06 169.16 L 166.09 168.15 C 166.12 166.98 165.20 166.02 164.04 165.99 C 162.87 165.96 161.91 166.88 161.88 168.04 Z M 161.85 169.05 L 161.83 170.02 C 161.80 171.19 162.72 172.15 163.89 172.18 C 165.05 172.20 166.02 171.28 166.04 170.12 L 166.07 169.15 C 166.09 167.99 165.17 167.02 164.01 167.00 C 162.84 166.97 161.88 167.89 161.85 169.05 Z M 161.83 170.02 L 161.80 171.08 C 161.78 172.25 162.70 173.21 163.86 173.24 C 165.03 173.27 165.99 172.34 166.02 171.18 L 166.04 170.12 C 166.07 168.95 165.15 167.99 163.98 167.96 C 162.82 167.94 161.85 168.86 161.83 170.02 Z M 161.80 171.09 L 161.79 172.04 C 161.76 173.21 162.69 174.17 163.85 174.19 C 165.02 174.21 165.98 173.29 166.00 172.12 L 166.02 171.17 C 166.04 170.01 165.12 169.04 163.95 169.02 C 162.79 169.00 161.83 169.93 161.80 171.09 Z M 161.78 172.06 L 161.77 173.05 C 161.76 174.22 162.70 175.17 163.86 175.18 C 165.03 175.19 165.98 174.26 165.99 173.09 L 166.00 172.10 C 166.02 170.94 165.08 169.98 163.92 169.97 C 162.75 169.96 161.80 170.89 161.78 172.06 Z M 161.77 173.07 L 161.77 174.06 C 161.77 175.22 162.71 176.17 163.88 176.17 C 165.04 176.18 165.99 175.23 165.99 174.07 L 165.99 173.08 C 166.00 171.91 165.05 170.96 163.89 170.96 C 162.72 170.96 161.78 171.90 161.77 173.07 Z M 161.77 174.06 L 161.77 175.07 C 161.77 176.23 162.72 177.18 163.88 177.18 C 165.05 177.18 165.99 176.23 165.99 175.07 L 165.99 174.06 C 165.99 172.90 165.05 171.95 163.88 171.95 C 162.72 171.95 161.77 172.90 161.77 174.06 Z M 161.77 175.07 L 161.77 176.06 C 161.77 177.23 162.72 178.17 163.88 178.17 C 165.05 178.17 165.99 177.23 165.99 176.06 L 165.99 175.07 C 165.99 173.90 165.05 172.96 163.88 172.96 C 162.72 172.96 161.77 173.90 161.77 175.07 Z M 161.77 176.06 L 161.77 177.08 C 161.77 178.24 162.72 179.18 163.88 179.18 C 165.05 179.18 165.99 178.24 165.99 177.08 L 165.99 176.06 C 165.99 174.90 165.05 173.95 163.88 173.95 C 162.72 173.95 161.77 174.90 161.77 176.06 Z M 161.78 177.08 L 161.78 178.06 C 161.78 179.22 162.72 180.17 163.88 180.17 C 165.04 180.17 165.99 179.22 165.99 178.06 L 165.99 177.08 C 165.99 175.91 165.04 174.97 163.88 174.97 C 162.72 174.97 161.78 175.91 161.78 177.08 Z M 161.78 178.06 L 161.78 179.06 C 161.78 180.22 162.72 181.16 163.88 181.16 C 165.04 181.16 165.99 180.22 165.99 179.06 L 165.99 178.06 C 165.99 176.90 165.04 175.96 163.88 175.96 C 162.72 175.96 161.78 176.90 161.78 178.06 Z M 161.78 179.06 L 161.78 180.05 C 161.78 181.21 162.72 182.15 163.88 182.15 C 165.04 182.15 165.98 181.21 165.98 180.05 L 165.98 179.06 C 165.98 177.90 165.04 176.96 163.88 176.96 C 162.72 176.96 161.78 177.90 161.78 179.06 Z M 161.78 180.05 L 161.78 181.03 C 161.78 182.19 162.72 183.13 163.88 183.13 C 165.04 183.13 165.98 182.19 165.98 181.03 L 165.98 180.05 C 165.98 178.89 165.04 177.95 163.88 177.95 C 162.72 177.95 161.78 178.89 161.78 180.05 Z M 161.79 181.03 L 161.79 182.04 C 161.79 183.20 162.72 184.14 163.88 184.14 C 165.04 184.14 165.98 183.20 165.98 182.04 L 165.98 181.03 C 165.98 179.87 165.04 178.93 163.88 178.93 C 162.72 178.93 161.79 179.87 161.79 181.03 Z M 161.79 182.02 L 161.78 183.02 C 161.77 184.17 162.70 185.12 163.85 185.13 C 165.01 185.14 165.96 184.21 165.97 183.05 L 165.98 182.06 C 165.99 180.90 165.06 179.96 163.90 179.95 C 162.74 179.94 161.80 180.86 161.79 182.02 Z M 161.78 182.95 L 161.74 184.07 C 161.69 185.22 162.59 186.20 163.74 186.24 C 164.90 186.29 165.87 185.39 165.92 184.24 L 165.96 183.12 C 166.01 181.97 165.11 180.99 163.96 180.94 C 162.80 180.90 161.83 181.80 161.78 182.95 Z M 161.77 183.79 L 161.59 184.81 C 161.39 185.94 162.15 187.03 163.29 187.22 C 164.43 187.42 165.51 186.66 165.71 185.52 L 165.89 184.51 C 166.09 183.37 165.32 182.29 164.19 182.09 C 163.05 181.89 161.97 182.66 161.77 183.79 Z M 164.35 183.21 L 163.95 183.07 C 162.88 182.69 161.69 183.25 161.31 184.33 C 160.92 185.41 161.49 186.59 162.56 186.98 L 162.96 187.12 C 164.03 187.50 165.22 186.94 165.60 185.86 C 165.99 184.78 165.42 183.60 164.35 183.21 Z M 165.15 184.30 L 164.70 183.12 C 164.30 182.08 163.12 181.56 162.08 181.96 C 161.03 182.36 160.51 183.53 160.91 184.58 L 161.37 185.75 C 161.77 186.80 162.94 187.32 163.99 186.92 C 165.03 186.52 165.55 185.34 165.15 184.30 Z M 164.74 183.46 L 164.56 182.56 C 164.34 181.49 163.30 180.80 162.23 181.02 C 161.16 181.23 160.47 182.27 160.69 183.34 L 160.87 184.24 C 161.09 185.31 162.13 186.00 163.20 185.78 C 164.27 185.57 164.96 184.52 164.74 183.46 Z M 164.52 182.69 L 164.38 181.69 C 164.24 180.64 163.27 179.91 162.23 180.06 C 161.18 180.20 160.45 181.16 160.59 182.21 L 160.73 183.21 C 160.87 184.26 161.84 184.99 162.88 184.84 C 163.93 184.70 164.66 183.74 164.52 182.69 Z M 164.33 181.75 L 164.22 180.70 C 164.11 179.68 163.20 178.94 162.18 179.05 C 161.16 179.16 160.42 180.07 160.53 181.09 L 160.64 182.15 C 160.75 183.16 161.67 183.90 162.68 183.79 C 163.70 183.68 164.44 182.77 164.33 181.75 Z M 164.18 180.71 L 164.16 180.49 C 164.06 179.49 163.17 178.76 162.17 178.86 C 161.17 178.96 160.44 179.85 160.54 180.85 L 160.57 181.07 C 160.67 182.07 161.56 182.80 162.56 182.70 C 163.55 182.60 164.28 181.71 164.18 180.71 Z"
      fill="black"
      fill-rule="nonzero" /><path d="M 161.44 147.65 L 160.80 148.36 C 160.07 149.16 160.14 150.40 160.94 151.12 C 161.74 151.85 162.97 151.78 163.70 150.98 L 164.34 150.27 C 165.07 149.47 165.00 148.23 164.20 147.51 C 163.40 146.79 162.17 146.85 161.44 147.65 Z M 160.53 148.48 L 159.94 149.33 C 159.28 150.28 159.52 151.58 160.47 152.24 C 161.42 152.90 162.72 152.66 163.38 151.71 L 163.97 150.86 C 164.63 149.91 164.39 148.61 163.44 147.95 C 162.49 147.29 161.19 147.53 160.53 148.48 Z M 159.72 149.55 L 159.27 150.46 C 158.74 151.53 159.17 152.83 160.24 153.37 C 161.31 153.90 162.61 153.47 163.15 152.40 L 163.60 151.49 C 164.13 150.42 163.70 149.12 162.63 148.58 C 161.56 148.05 160.26 148.48 159.72 149.55 Z M 159.19 150.59 L 158.81 151.51 C 158.34 152.62 158.87 153.90 159.99 154.36 C 161.10 154.83 162.38 154.30 162.85 153.19 L 163.23 152.27 C 163.69 151.15 163.16 149.87 162.05 149.41 C 160.93 148.94 159.65 149.47 159.19 150.59 Z M 158.77 151.56 L 158.40 152.51 C 157.97 153.65 158.54 154.92 159.67 155.36 C 160.81 155.79 162.08 155.22 162.52 154.09 L 162.88 153.13 C 163.32 152.00 162.75 150.72 161.61 150.29 C 160.48 149.85 159.20 150.42 158.77 151.56 Z M 158.39 152.51 L 158.05 153.41 C 157.62 154.55 158.19 155.83 159.33 156.26 C 160.47 156.70 161.75 156.12 162.19 154.98 L 162.53 154.09 C 162.96 152.95 162.39 151.67 161.25 151.23 C 160.11 150.80 158.83 151.37 158.39 152.51 Z M 158.06 153.37 L 157.69 154.29 C 157.23 155.43 157.79 156.72 158.93 157.18 C 160.07 157.63 161.36 157.08 161.82 155.94 L 162.18 155.02 C 162.64 153.88 162.08 152.58 160.94 152.13 C 159.80 151.67 158.51 152.23 158.06 153.37 Z M 157.69 154.27 L 157.30 155.21 C 156.84 156.35 157.38 157.65 158.53 158.12 C 159.67 158.58 160.97 158.04 161.44 156.90 L 161.82 155.96 C 162.29 154.82 161.74 153.51 160.60 153.05 C 159.46 152.58 158.15 153.13 157.69 154.27 Z M 157.30 155.20 L 156.92 156.12 C 156.45 157.26 157.00 158.57 158.14 159.04 C 159.29 159.51 160.59 158.96 161.06 157.82 L 161.44 156.90 C 161.91 155.76 161.36 154.45 160.22 153.98 C 159.08 153.51 157.77 154.06 157.30 155.20 Z M 156.92 156.12 L 156.53 157.06 C 156.07 158.21 156.62 159.51 157.77 159.98 C 158.92 160.45 160.23 159.89 160.69 158.75 L 161.07 157.81 C 161.54 156.66 160.99 155.36 159.84 154.89 C 158.69 154.42 157.38 154.97 156.92 156.12 Z M 156.53 157.06 L 156.16 157.97 C 155.70 159.12 156.25 160.43 157.40 160.90 C 158.55 161.36 159.86 160.81 160.33 159.66 L 160.70 158.74 C 161.16 157.59 160.61 156.28 159.46 155.82 C 158.30 155.35 157.00 155.91 156.53 157.06 Z M 156.17 157.95 L 155.77 158.90 C 155.30 160.05 155.84 161.37 156.99 161.84 C 158.14 162.32 159.45 161.77 159.93 160.63 L 160.32 159.67 C 160.80 158.53 160.25 157.21 159.11 156.74 C 157.96 156.26 156.64 156.81 156.17 157.95 Z M 155.78 158.87 L 155.40 159.77 C 154.90 160.91 155.43 162.24 156.57 162.73 C 157.71 163.22 159.04 162.70 159.53 161.56 L 159.92 160.66 C 160.41 159.52 159.88 158.19 158.74 157.70 C 157.60 157.21 156.28 157.73 155.78 158.87 Z M 155.40 159.76 L 155.00 160.68 C 154.50 161.82 155.01 163.15 156.15 163.65 C 157.29 164.15 158.62 163.63 159.12 162.49 L 159.53 161.57 C 160.03 160.43 159.51 159.10 158.37 158.60 C 157.23 158.10 155.90 158.62 155.40 159.76 Z M 154.99 160.69 L 154.59 161.62 C 154.10 162.76 154.62 164.09 155.76 164.58 C 156.91 165.07 158.23 164.55 158.73 163.41 L 159.13 162.48 C 159.62 161.34 159.10 160.01 157.95 159.52 C 156.81 159.02 155.48 159.55 154.99 160.69 Z M 154.58 161.63 L 154.20 162.54 C 153.71 163.69 154.25 165.01 155.39 165.50 C 156.54 165.99 157.86 165.45 158.35 164.30 L 158.73 163.39 C 159.22 162.24 158.68 160.92 157.54 160.44 C 156.39 159.95 155.07 160.49 154.58 161.63 Z M 154.19 162.55 L 153.80 163.48 C 153.32 164.63 153.86 165.95 155.00 166.43 C 156.15 166.92 157.47 166.38 157.96 165.23 L 158.35 164.30 C 158.83 163.15 158.29 161.83 157.15 161.35 C 156.00 160.86 154.68 161.40 154.19 162.55 Z M 153.80 163.47 L 153.42 164.39 C 152.93 165.53 153.47 166.86 154.61 167.34 C 155.76 167.83 157.08 167.29 157.57 166.15 L 157.95 165.24 C 158.44 164.09 157.91 162.77 156.76 162.28 C 155.61 161.79 154.29 162.33 153.80 163.47 Z M 153.42 164.38 L 153.03 165.29 C 152.54 166.44 153.07 167.76 154.22 168.25 C 155.36 168.74 156.68 168.21 157.17 167.07 L 157.56 166.15 C 158.05 165.01 157.52 163.68 156.38 163.20 C 155.23 162.71 153.91 163.24 153.42 164.38 Z M 153.03 165.30 L 152.63 166.23 C 152.14 167.37 152.67 168.70 153.82 169.19 C 154.96 169.68 156.29 169.14 156.77 168.00 L 157.17 167.07 C 157.66 165.92 157.13 164.60 155.99 164.11 C 154.84 163.62 153.52 164.15 153.03 165.30 Z M 152.63 166.24 L 152.23 167.17 C 151.75 168.32 152.28 169.64 153.43 170.12 C 154.57 170.61 155.89 170.08 156.38 168.93 L 156.78 167.99 C 157.26 166.85 156.73 165.53 155.58 165.04 C 154.44 164.56 153.11 165.09 152.63 166.24 Z M 152.23 167.17 L 151.84 168.11 C 151.35 169.25 151.89 170.57 153.03 171.06 C 154.18 171.54 155.50 171.01 155.98 169.86 L 156.38 168.93 C 156.86 167.78 156.33 166.46 155.18 165.98 C 154.04 165.49 152.72 166.03 152.23 167.17 Z M 151.84 168.10 L 151.46 169.00 C 150.97 170.15 151.50 171.47 152.64 171.96 C 153.78 172.44 155.10 171.91 155.59 170.77 L 155.98 169.87 C 156.47 168.73 155.94 167.41 154.80 166.92 C 153.65 166.43 152.33 166.96 151.84 168.10 Z M 151.47 168.99 L 151.05 169.93 C 150.56 171.07 151.07 172.39 152.21 172.89 C 153.35 173.39 154.67 172.87 155.17 171.73 L 155.58 170.79 C 156.08 169.65 155.56 168.33 154.42 167.83 C 153.29 167.33 151.96 167.85 151.47 168.99 Z M 151.06 169.93 L 150.66 170.83 C 150.16 171.96 150.67 173.28 151.80 173.79 C 152.93 174.29 154.25 173.78 154.75 172.65 L 155.16 171.74 C 155.66 170.61 155.15 169.29 154.02 168.79 C 152.89 168.29 151.57 168.79 151.06 169.93 Z M 150.66 170.84 L 150.27 171.74 C 149.78 172.86 150.29 174.18 151.42 174.68 C 152.55 175.17 153.86 174.66 154.36 173.53 L 154.75 172.64 C 155.25 171.51 154.73 170.19 153.60 169.70 C 152.48 169.20 151.16 169.71 150.66 170.84 Z M 150.27 171.76 L 149.88 172.69 C 149.39 173.81 149.92 175.12 151.04 175.60 C 152.17 176.09 153.48 175.56 153.96 174.43 L 154.36 173.51 C 154.84 172.38 154.32 171.07 153.19 170.59 C 152.06 170.11 150.76 170.63 150.27 171.76 Z M 149.88 172.70 L 149.50 173.61 C 149.02 174.73 149.54 176.03 150.67 176.51 C 151.79 176.98 153.09 176.46 153.57 175.33 L 153.96 174.42 C 154.43 173.30 153.91 172.00 152.78 171.52 C 151.66 171.05 150.36 171.57 149.88 172.70 Z M 149.51 173.60 L 149.11 174.54 C 148.63 175.65 149.15 176.95 150.27 177.43 C 151.38 177.90 152.68 177.39 153.16 176.27 L 153.56 175.34 C 154.04 174.22 153.52 172.93 152.40 172.45 C 151.28 171.97 149.99 172.49 149.51 173.60 Z M 149.13 174.52 L 148.73 175.43 C 148.24 176.54 148.74 177.83 149.85 178.32 C 150.96 178.81 152.25 178.30 152.74 177.20 L 153.14 176.28 C 153.63 175.18 153.12 173.88 152.02 173.40 C 150.91 172.91 149.62 173.41 149.13 174.52 Z M 148.75 175.41 L 148.33 176.33 C 147.83 177.42 148.31 178.71 149.41 179.21 C 150.50 179.71 151.80 179.23 152.30 178.14 L 152.71 177.22 C 153.21 176.12 152.73 174.83 151.64 174.33 C 150.54 173.83 149.25 174.31 148.75 175.41 Z M 148.36 176.30 L 147.93 177.20 C 147.41 178.28 147.87 179.58 148.95 180.09 C 150.03 180.61 151.32 180.15 151.84 179.07 L 152.27 178.16 C 152.79 177.08 152.33 175.79 151.25 175.27 C 150.17 174.76 148.87 175.22 148.36 176.30 Z M 147.95 177.17 L 147.51 178.06 C 146.98 179.12 147.41 180.42 148.48 180.95 C 149.54 181.48 150.84 181.05 151.37 179.98 L 151.81 179.10 C 152.34 178.03 151.91 176.74 150.85 176.21 C 149.78 175.68 148.49 176.11 147.95 177.17 Z M 147.54 178.03 L 147.08 178.92 C 146.53 179.97 146.94 181.26 147.99 181.81 C 149.04 182.35 150.34 181.94 150.88 180.89 L 151.34 180.01 C 151.89 178.96 151.48 177.66 150.43 177.12 C 149.38 176.57 148.08 176.98 147.54 178.03 Z M 147.09 178.91 L 146.63 179.79 C 146.09 180.83 146.49 182.12 147.53 182.67 C 148.57 183.22 149.86 182.81 150.41 181.77 L 150.87 180.90 C 151.42 179.85 151.01 178.56 149.97 178.02 C 148.93 177.47 147.64 177.87 147.09 178.91 Z M 146.64 179.80 L 146.18 180.69 C 145.64 181.73 146.04 183.01 147.08 183.55 C 148.12 184.09 149.40 183.69 149.94 182.65 L 150.41 181.76 C 150.95 180.72 150.54 179.44 149.50 178.90 C 148.46 178.36 147.18 178.76 146.64 179.80 Z M 146.18 180.73 L 145.64 181.80 C 145.12 182.85 145.54 184.11 146.58 184.63 C 147.63 185.15 148.89 184.72 149.41 183.68 L 149.95 182.61 C 150.46 181.57 150.04 180.30 149.00 179.78 C 147.96 179.26 146.70 179.69 146.18 180.73 Z M 145.52 182.30 L 145.42 182.74 C 145.18 183.85 145.87 184.94 146.98 185.19 C 148.08 185.44 149.18 184.74 149.43 183.64 L 149.53 183.19 C 149.77 182.09 149.08 180.99 147.97 180.74 C 146.87 180.50 145.77 181.19 145.52 182.30 Z M 148.90 184.40 L 149.63 183.51 C 150.30 182.70 150.18 181.49 149.36 180.83 C 148.55 180.16 147.34 180.28 146.68 181.09 L 145.95 181.98 C 145.28 182.80 145.40 184.00 146.22 184.67 C 147.03 185.34 148.23 185.22 148.90 184.40 Z M 149.63 183.36 L 150.19 182.57 C 150.78 181.76 150.59 180.62 149.77 180.04 C 148.95 179.45 147.82 179.64 147.23 180.46 L 146.67 181.24 C 146.09 182.06 146.28 183.20 147.10 183.78 C 147.91 184.37 149.05 184.18 149.63 183.36 Z M 150.23 182.56 L 150.82 181.70 C 151.40 180.87 151.19 179.72 150.35 179.15 C 149.51 178.57 148.37 178.78 147.79 179.61 L 147.20 180.47 C 146.62 181.31 146.83 182.45 147.67 183.03 C 148.50 183.61 149.65 183.40 150.23 182.56 Z M 150.83 181.71 L 150.88 181.64 C 151.45 180.80 151.24 179.64 150.40 179.07 C 149.56 178.49 148.41 178.70 147.83 179.54 L 147.78 179.61 C 147.20 180.45 147.42 181.60 148.26 182.18 C 149.10 182.76 150.25 182.55 150.83 181.71 Z"
      fill="black"
      fill-rule="nonzero" /><path d="M 164.89 153.25 L 165.85 153.43 C 166.95 153.64 168.01 152.92 168.22 151.82 C 168.42 150.72 167.70 149.66 166.60 149.45 L 165.64 149.27 C 164.55 149.07 163.49 149.79 163.28 150.89 C 163.07 151.99 163.80 153.04 164.89 153.25 Z M 165.64 153.50 L 166.62 153.78 C 167.76 154.10 168.94 153.44 169.27 152.31 C 169.59 151.17 168.93 149.99 167.79 149.66 L 166.81 149.39 C 165.68 149.06 164.49 149.72 164.17 150.86 C 163.85 151.99 164.51 153.18 165.64 153.50 Z M 166.33 153.75 L 167.26 154.15 C 168.38 154.64 169.68 154.13 170.17 153.01 C 170.65 151.89 170.14 150.59 169.02 150.10 L 168.09 149.70 C 166.97 149.21 165.67 149.72 165.18 150.84 C 164.70 151.96 165.21 153.26 166.33 153.75 Z M 167.10 154.09 L 167.98 154.56 C 169.07 155.14 170.41 154.73 170.99 153.64 C 171.57 152.56 171.16 151.21 170.07 150.63 L 169.19 150.16 C 168.10 149.58 166.75 150.00 166.18 151.08 C 165.60 152.17 166.01 153.52 167.10 154.09 Z M 167.92 154.54 L 168.81 155.05 C 169.88 155.66 171.25 155.28 171.86 154.20 C 172.47 153.13 172.09 151.76 171.01 151.15 L 170.13 150.65 C 169.05 150.04 167.69 150.42 167.08 151.49 C 166.47 152.57 166.85 153.93 167.92 154.54 Z M 168.78 155.04 L 169.62 155.52 C 170.69 156.14 172.06 155.78 172.68 154.71 C 173.31 153.64 172.94 152.27 171.87 151.65 L 171.04 151.16 C 169.97 150.54 168.60 150.90 167.98 151.97 C 167.35 153.04 167.71 154.41 168.78 155.04 Z M 169.60 155.51 L 170.44 156.01 C 171.50 156.64 172.88 156.29 173.51 155.23 C 174.14 154.16 173.79 152.79 172.73 152.15 L 171.89 151.66 C 170.83 151.03 169.45 151.38 168.82 152.44 C 168.19 153.50 168.54 154.88 169.60 155.51 Z M 170.45 156.02 L 171.33 156.54 C 172.40 157.16 173.77 156.80 174.40 155.74 C 175.03 154.67 174.67 153.29 173.60 152.67 L 172.72 152.15 C 171.65 151.52 170.27 151.88 169.65 152.95 C 169.02 154.02 169.38 155.39 170.45 156.02 Z M 171.36 156.55 L 172.21 157.04 C 173.29 157.65 174.66 157.27 175.27 156.19 C 175.88 155.12 175.51 153.75 174.43 153.13 L 173.57 152.65 C 172.50 152.04 171.13 152.41 170.51 153.49 C 169.90 154.57 170.28 155.94 171.36 156.55 Z M 172.22 157.04 L 173.11 157.54 C 174.19 158.15 175.55 157.77 176.16 156.69 C 176.77 155.61 176.39 154.24 175.31 153.63 L 174.42 153.13 C 173.34 152.52 171.97 152.90 171.37 153.98 C 170.76 155.06 171.14 156.43 172.22 157.04 Z M 173.09 157.53 L 173.96 158.03 C 175.04 158.64 176.41 158.27 177.02 157.20 C 177.64 156.12 177.26 154.75 176.19 154.13 L 175.32 153.64 C 174.25 153.02 172.87 153.40 172.26 154.47 C 171.64 155.55 172.02 156.92 173.09 157.53 Z M 173.95 158.02 L 174.82 158.53 C 175.89 159.15 177.26 158.78 177.88 157.71 C 178.50 156.64 178.14 155.27 177.07 154.64 L 176.20 154.14 C 175.13 153.52 173.75 153.88 173.13 154.96 C 172.51 156.03 172.88 157.40 173.95 158.02 Z M 174.81 158.52 L 175.69 159.04 C 176.76 159.66 178.13 159.30 178.76 158.23 C 179.38 157.16 179.02 155.79 177.95 155.16 L 177.07 154.65 C 176.01 154.02 174.63 154.38 174.01 155.45 C 173.38 156.52 173.74 157.90 174.81 158.52 Z M 175.69 159.03 L 176.55 159.53 C 177.61 160.16 178.99 159.80 179.61 158.73 C 180.23 157.66 179.87 156.29 178.80 155.66 L 177.95 155.16 C 176.88 154.54 175.51 154.90 174.89 155.97 C 174.26 157.04 174.62 158.41 175.69 159.03 Z M 176.56 159.54 L 177.44 160.04 C 178.51 160.66 179.88 160.29 180.49 159.21 C 181.11 158.14 180.74 156.77 179.66 156.16 L 178.79 155.66 C 177.72 155.04 176.35 155.41 175.73 156.48 C 175.12 157.55 175.49 158.92 176.56 159.54 Z M 177.45 160.05 L 178.31 160.53 C 179.39 161.14 180.75 160.75 181.36 159.68 C 181.96 158.60 181.58 157.24 180.51 156.63 L 179.65 156.15 C 178.57 155.55 177.21 155.93 176.60 157.00 C 176.00 158.08 176.38 159.44 177.45 160.05 Z M 178.33 160.54 L 179.22 161.03 C 180.30 161.62 181.66 161.23 182.25 160.15 C 182.85 159.07 182.46 157.72 181.38 157.12 L 180.49 156.63 C 179.41 156.03 178.05 156.43 177.46 157.50 C 176.86 158.58 177.25 159.94 178.33 160.54 Z M 179.22 161.02 L 180.08 161.49 C 181.15 162.09 182.50 161.70 183.10 160.62 C 183.69 159.55 183.30 158.19 182.23 157.60 L 181.37 157.13 C 180.30 156.53 178.95 156.92 178.35 158.00 C 177.76 159.07 178.15 160.43 179.22 161.02 Z M 180.05 161.47 L 180.88 161.94 C 181.94 162.55 183.29 162.18 183.90 161.11 C 184.51 160.05 184.14 158.70 183.08 158.09 L 182.25 157.62 C 181.19 157.01 179.83 157.38 179.23 158.45 C 178.62 159.51 178.99 160.86 180.05 161.47 Z M 180.83 161.90 L 181.72 162.44 C 182.76 163.08 184.12 162.75 184.75 161.70 C 185.39 160.66 185.05 159.30 184.01 158.67 L 183.12 158.13 C 182.08 157.49 180.72 157.83 180.09 158.87 C 179.45 159.91 179.79 161.27 180.83 161.90 Z M 181.65 162.40 L 182.50 162.95 C 183.52 163.62 184.88 163.34 185.55 162.32 C 186.22 161.30 185.94 159.94 184.92 159.27 L 184.07 158.71 C 183.06 158.04 181.69 158.33 181.02 159.34 C 180.35 160.36 180.64 161.73 181.65 162.40 Z M 182.38 162.86 L 183.18 163.47 C 184.15 164.20 185.53 164.02 186.26 163.05 C 187.00 162.09 186.81 160.71 185.84 159.97 L 185.04 159.36 C 184.08 158.63 182.70 158.81 181.96 159.78 C 181.23 160.75 181.41 162.12 182.38 162.86 Z M 182.91 163.20 L 183.73 164.08 C 184.55 164.97 185.93 165.02 186.81 164.20 C 187.69 163.39 187.75 162.01 186.93 161.12 L 186.11 160.24 C 185.29 159.36 183.91 159.30 183.03 160.12 C 182.15 160.94 182.09 162.32 182.91 163.20 Z M 184.75 160.56 L 184.46 160.64 C 183.33 160.96 182.67 162.14 183.00 163.27 C 183.32 164.40 184.49 165.05 185.62 164.73 L 185.91 164.65 C 187.04 164.33 187.70 163.15 187.37 162.02 C 187.05 160.89 185.88 160.24 184.75 160.56 Z M 186.03 160.91 L 184.97 160.33 C 183.99 159.78 182.75 160.13 182.21 161.11 C 181.67 162.09 182.02 163.32 183.00 163.87 L 184.06 164.46 C 185.03 165.00 186.27 164.65 186.81 163.67 C 187.36 162.69 187.00 161.46 186.03 160.91 Z"
      fill="black"
      fill-rule="nonzero" /></svg>