<svg xmlns="http://www.w3.org/2000/svg" width="300" height="300" viewBox="0 0 300 300">
<path d="M 138.88 116.14 L 138.81 114.91 C 138.74 113.86 137.84 113.06 136.79 113.12 C 135.74 113.18 134.94 114.08 135.00 115.13 L 135.07 116.37 C 135.13 117.42 136.04 118.22 137.09 118.16 C 138.14 118.10 138.94 117.20 138.88 116.14 Z M 138.76 115.78 L 138.96 115.31 C 139.37 114.28 138.88 113.11 137.85 112.69 C 136.83 112.27 135.65 112.76 135.23 113.79 L 135.04 114.26 C 134.62 115.29 135.12 116.46 136.14 116.88 C 137.17 117.30 138.34 116.81 138.76 115.78 Z M 135.43 115.77 L 136.03 116.58 C 136.71 117.50 138.00 117.70 138.92 117.02 C 139.83 116.34 140.03 115.05 139.35 114.14 L 138.76 113.33 C 138.08 112.41 136.79 112.21 135.87 112.89 C 134.95 113.56 134.76 114.86 135.43 115.77 Z M 135.79 116.18 L 136.20 117.12 C 136.65 118.17 137.87 118.66 138.92 118.20 C 139.97 117.75 140.46 116.53 140.00 115.48 L 139.59 114.54 C 139.14 113.49 137.92 113.00 136.87 113.46 C 135.82 113.91 135.34 115.13 135.79 116.18 Z M 136.12 116.92 L 136.42 117.88 C 136.77 118.97 137.93 119.58 139.02 119.23 C 140.12 118.89 140.72 117.73 140.38 116.63 L 140.08 115.68 C 139.74 114.58 138.57 113.98 137.48 114.32 C 136.39 114.66 135.78 115.83 136.12 116.92 Z M 136.39 117.77 L 136.65 118.79 C 136.93 119.90 138.06 120.57 139.17 120.29 C 140.28 120.01 140.95 118.88 140.67 117.77 L 140.41 116.75 C 140.13 115.64 139.00 114.96 137.89 115.25 C 136.78 115.53 136.11 116.66 136.39 117.77 Z M 136.64 118.74 L 136.86 119.74 C 137.12 120.85 138.23 121.56 139.34 121.30 C 140.46 121.05 141.16 119.94 140.91 118.82 L 140.68 117.82 C 140.43 116.71 139.32 116.00 138.20 116.26 C 137.09 116.51 136.39 117.62 136.64 118.74 Z M 136.86 119.70 L 137.06 120.69 C 137.30 121.81 138.39 122.53 139.52 122.29 C 140.64 122.06 141.36 120.96 141.12 119.84 L 140.92 118.86 C 140.68 117.74 139.58 117.02 138.46 117.25 C 137.34 117.48 136.62 118.58 136.86 119.70 Z M 137.06 120.66 L 137.26 121.68 C 137.48 122.80 138.56 123.53 139.69 123.32 C 140.81 123.10 141.54 122.01 141.33 120.88 L 141.13 119.87 C 140.91 118.74 139.82 118.01 138.70 118.23 C 137.57 118.45 136.84 119.54 137.06 120.66 Z M 137.25 121.64 L 137.42 122.60 C 137.62 123.73 138.69 124.48 139.82 124.28 C 140.94 124.08 141.70 123.01 141.50 121.88 L 141.33 120.92 C 141.13 119.80 140.06 119.04 138.93 119.24 C 137.81 119.44 137.05 120.51 137.25 121.64 Z M 137.41 122.55 L 137.55 123.48 C 137.72 124.61 138.78 125.39 139.91 125.22 C 141.04 125.05 141.81 124.00 141.64 122.87 L 141.50 121.93 C 141.33 120.80 140.28 120.03 139.15 120.20 C 138.02 120.37 137.24 121.42 137.41 122.55 Z M 137.55 123.43 L 137.68 124.42 C 137.82 125.55 138.85 126.35 139.98 126.20 C 141.11 126.06 141.91 125.03 141.77 123.90 L 141.65 122.91 C 141.50 121.78 140.47 120.98 139.34 121.13 C 138.21 121.27 137.41 122.30 137.55 123.43 Z M 137.68 124.37 L 137.79 125.39 C 137.91 126.52 138.92 127.34 140.05 127.22 C 141.18 127.10 142.00 126.09 141.88 124.96 L 141.77 123.94 C 141.65 122.81 140.64 121.99 139.51 122.11 C 138.38 122.23 137.56 123.24 137.68 124.37 Z M 137.79 125.36 L 137.88 126.36 C 137.98 127.49 138.98 128.32 140.11 128.22 C 141.24 128.11 142.07 127.12 141.97 125.99 L 141.88 124.99 C 141.77 123.86 140.77 123.03 139.65 123.13 C 138.52 123.23 137.69 124.23 137.79 125.36 Z M 137.89 126.35 L 137.97 127.35 C 138.07 128.47 139.06 129.31 140.18 129.21 C 141.31 129.11 142.14 128.13 142.05 127.00 L 141.96 126.00 C 141.87 124.88 140.88 124.04 139.75 124.14 C 138.63 124.23 137.79 125.22 137.89 126.35 Z M 137.98 127.34 L 138.06 128.36 C 138.15 129.48 139.14 130.31 140.26 130.22 C 141.38 130.13 142.22 129.14 142.12 128.02 L 142.04 127.00 C 141.95 125.88 140.96 125.05 139.84 125.14 C 138.72 125.23 137.88 126.22 137.98 127.34 Z M 138.07 128.34 L 138.14 129.33 C 138.22 130.44 139.20 131.28 140.32 131.20 C 141.44 131.12 142.28 130.14 142.19 129.02 L 142.12 128.04 C 142.04 126.92 141.06 126.08 139.94 126.16 C 138.82 126.25 137.98 127.22 138.07 128.34 Z M 138.14 129.29 L 138.20 130.29 C 138.26 131.41 139.22 132.26 140.34 132.20 C 141.45 132.14 142.31 131.18 142.25 130.06 L 142.19 129.06 C 142.13 127.94 141.17 127.09 140.05 127.15 C 138.94 127.21 138.08 128.17 138.14 129.29 Z M 138.21 130.26 L 138.24 131.25 C 138.29 132.37 139.23 133.23 140.34 133.19 C 141.46 133.14 142.33 132.21 142.28 131.09 L 142.24 130.09 C 142.20 128.98 141.26 128.11 140.14 128.16 C 139.03 128.20 138.16 129.14 138.21 130.26 Z M 138.25 131.24 L 138.29 132.25 C 138.32 133.36 139.25 134.23 140.36 134.19 C 141.47 134.16 142.34 133.23 142.31 132.12 L 142.27 131.10 C 142.24 129.99 141.31 129.12 140.20 129.16 C 139.09 129.20 138.22 130.13 138.25 131.24 Z M 138.29 132.24 L 138.32 133.23 C 138.35 134.34 139.27 135.21 140.38 135.18 C 141.48 135.15 142.36 134.23 142.33 133.12 L 142.30 132.13 C 142.27 131.02 141.35 130.15 140.24 130.18 C 139.14 130.21 138.26 131.13 138.29 132.24 Z M 138.33 133.21 L 138.34 134.15 C 138.36 135.25 139.27 136.13 140.37 136.11 C 141.47 136.10 142.35 135.19 142.33 134.09 L 142.32 133.15 C 142.30 132.05 141.40 131.17 140.29 131.18 C 139.19 131.20 138.31 132.11 138.33 133.21 Z M 138.35 134.13 L 138.36 135.13 C 138.36 136.22 139.25 137.11 140.35 137.11 C 141.44 137.10 142.33 136.21 142.33 135.11 L 142.32 134.11 C 142.32 133.02 141.43 132.13 140.33 132.14 C 139.23 132.14 138.35 133.03 138.35 134.13 Z M 138.36 135.12 L 138.36 136.15 C 138.36 137.24 139.25 138.13 140.34 138.13 C 141.43 138.13 142.32 137.24 142.32 136.15 L 142.32 135.12 C 142.32 134.03 141.43 133.14 140.34 133.14 C 139.25 133.14 138.36 134.03 138.36 135.12 Z M 138.37 136.16 L 138.37 137.19 C 138.38 138.28 139.26 139.16 140.35 139.16 C 141.44 139.15 142.32 138.27 142.31 137.18 L 142.31 136.14 C 142.31 135.06 141.42 134.18 140.33 134.18 C 139.25 134.18 138.37 135.07 138.37 136.16 Z M 138.39 137.21 L 138.40 138.32 C 138.41 139.40 139.30 140.27 140.38 140.26 C 141.46 140.24 142.33 139.36 142.32 138.27 L 142.30 137.16 C 142.29 136.08 141.40 135.21 140.32 135.23 C 139.24 135.24 138.37 136.13 138.39 137.21 Z M 138.44 138.47 L 138.52 139.34 C 138.62 140.40 139.55 141.18 140.61 141.08 C 141.67 140.99 142.45 140.05 142.35 138.99 L 142.27 138.12 C 142.18 137.06 141.24 136.28 140.18 136.38 C 139.12 136.48 138.34 137.42 138.44 138.47 Z M 142.25 139.64 L 142.43 138.92 C 142.69 137.92 142.09 136.90 141.09 136.64 C 140.09 136.38 139.07 136.98 138.81 137.98 L 138.63 138.70 C 138.37 139.69 138.97 140.71 139.97 140.97 C 140.97 141.23 141.99 140.63 142.25 139.64 Z M 142.42 138.76 L 142.53 138.09 C 142.71 137.10 142.04 136.15 141.05 135.98 C 140.06 135.81 139.12 136.47 138.95 137.46 L 138.83 138.14 C 138.66 139.13 139.32 140.07 140.31 140.24 C 141.30 140.41 142.24 139.75 142.42 138.76 Z"
      fill="black"
      fill-rule="nonzero" /><path d="M 141.04 116.59 L 141.11 115.56 C 141.19 114.52 140.40 113.61 139.35 113.54 C 138.31 113.47 137.40 114.26 137.33 115.30 L 137.26 116.32 C 137.19 117.37 137.98 118.27 139.02 118.35 C 140.07 118.42 140.97 117.63 141.04 116.59 Z M 140.94 116.46 L 141.40 115.69 C 141.97 114.74 141.65 113.51 140.70 112.94 C 139.75 112.38 138.52 112.69 137.96 113.64 L 137.50 114.41 C 136.94 115.36 137.25 116.59 138.20 117.15 C 139.15 117.72 140.38 117.41 140.94 116.46 Z M 140.66 116.48 L 141.53 116.01 C 142.54 115.47 142.92 114.22 142.38 113.21 C 141.84 112.21 140.58 111.83 139.58 112.37 L 138.70 112.84 C 137.70 113.38 137.32 114.64 137.86 115.64 C 138.40 116.65 139.65 117.02 140.66 116.48 Z M 141.20 116.18 L 142.15 115.88 C 143.25 115.52 143.85 114.34 143.50 113.24 C 143.14 112.14 141.96 111.54 140.86 111.89 L 139.91 112.20 C 138.81 112.56 138.21 113.74 138.57 114.84 C 138.92 115.94 140.10 116.54 141.20 116.18 Z M 142.04 115.92 L 142.99 115.67 C 144.12 115.37 144.79 114.22 144.50 113.10 C 144.20 111.97 143.05 111.30 141.92 111.60 L 140.97 111.85 C 139.85 112.14 139.17 113.30 139.47 114.42 C 139.77 115.54 140.92 116.22 142.04 115.92 Z M 142.95 115.69 L 143.98 115.44 C 145.11 115.17 145.81 114.04 145.54 112.90 C 145.27 111.77 144.14 111.07 143.00 111.34 L 141.97 111.58 C 140.84 111.85 140.14 112.99 140.41 114.12 C 140.68 115.25 141.81 115.96 142.95 115.69 Z M 143.96 115.45 L 144.96 115.22 C 146.10 114.96 146.81 113.83 146.55 112.69 C 146.29 111.56 145.16 110.84 144.02 111.10 L 143.02 111.33 C 141.88 111.59 141.17 112.72 141.43 113.86 C 141.69 115.00 142.82 115.71 143.96 115.45 Z M 144.94 115.23 L 145.92 115.01 C 147.06 114.76 147.78 113.63 147.54 112.50 C 147.29 111.36 146.16 110.63 145.02 110.88 L 144.04 111.10 C 142.90 111.35 142.18 112.47 142.43 113.61 C 142.68 114.75 143.80 115.47 144.94 115.23 Z M 145.90 115.01 L 146.91 114.81 C 148.05 114.57 148.79 113.45 148.55 112.31 C 148.32 111.17 147.20 110.44 146.06 110.67 L 145.05 110.88 C 143.90 111.12 143.17 112.23 143.40 113.37 C 143.64 114.51 144.76 115.25 145.90 115.01 Z M 146.89 114.80 L 147.84 114.62 C 148.98 114.39 149.72 113.28 149.50 112.14 C 149.27 111.00 148.17 110.26 147.03 110.49 L 146.08 110.67 C 144.94 110.90 144.19 112.01 144.42 113.15 C 144.64 114.29 145.75 115.03 146.89 114.80 Z M 147.86 114.61 L 148.80 114.41 C 149.94 114.17 150.67 113.06 150.43 111.93 C 150.19 110.79 149.08 110.06 147.95 110.30 L 147.00 110.50 C 145.87 110.73 145.14 111.84 145.38 112.98 C 145.61 114.11 146.73 114.84 147.86 114.61 Z M 148.81 114.40 L 149.79 114.19 C 150.92 113.96 151.65 112.85 151.41 111.72 C 151.17 110.59 150.06 109.86 148.93 110.10 L 147.95 110.31 C 146.81 110.54 146.09 111.65 146.33 112.78 C 146.57 113.92 147.68 114.64 148.81 114.40 Z M 149.73 114.20 L 150.73 114.02 C 151.86 113.82 152.61 112.73 152.41 111.60 C 152.21 110.47 151.12 109.71 149.99 109.91 L 148.99 110.09 C 147.86 110.30 147.11 111.38 147.31 112.52 C 147.51 113.65 148.60 114.40 149.73 114.20 Z M 150.66 114.03 L 151.64 113.88 C 152.78 113.72 153.57 112.66 153.40 111.53 C 153.24 110.39 152.18 109.60 151.04 109.77 L 150.06 109.91 C 148.92 110.07 148.13 111.13 148.30 112.27 C 148.46 113.40 149.52 114.19 150.66 114.03 Z M 151.62 113.88 L 152.61 113.74 C 153.74 113.59 154.54 112.55 154.38 111.41 C 154.23 110.28 153.18 109.48 152.05 109.64 L 151.06 109.77 C 149.93 109.93 149.13 110.97 149.29 112.11 C 149.44 113.24 150.49 114.03 151.62 113.88 Z M 152.59 113.74 L 153.58 113.61 C 154.71 113.47 155.51 112.43 155.37 111.30 C 155.22 110.17 154.19 109.37 153.06 109.52 L 152.07 109.64 C 150.94 109.79 150.14 110.82 150.28 111.95 C 150.43 113.08 151.46 113.88 152.59 113.74 Z M 153.52 113.61 L 154.52 113.51 C 155.64 113.40 156.47 112.40 156.36 111.27 C 156.25 110.14 155.25 109.31 154.12 109.42 L 153.12 109.52 C 151.99 109.63 151.17 110.64 151.28 111.76 C 151.39 112.89 152.39 113.72 153.52 113.61 Z M 154.45 113.51 L 155.45 113.44 C 156.58 113.36 157.43 112.39 157.35 111.26 C 157.28 110.14 156.30 109.29 155.18 109.36 L 154.18 109.43 C 153.05 109.51 152.20 110.48 152.28 111.60 C 152.35 112.73 153.33 113.58 154.45 113.51 Z M 155.41 113.43 L 156.42 113.38 C 157.54 113.33 158.41 112.38 158.35 111.25 C 158.30 110.13 157.35 109.27 156.23 109.32 L 155.22 109.37 C 154.10 109.43 153.23 110.38 153.28 111.50 C 153.34 112.62 154.29 113.48 155.41 113.43 Z M 156.39 113.37 L 157.38 113.34 C 158.50 113.31 159.37 112.37 159.34 111.26 C 159.30 110.14 158.37 109.27 157.25 109.30 L 156.26 109.33 C 155.15 109.37 154.27 110.30 154.30 111.42 C 154.34 112.53 155.27 113.41 156.39 113.37 Z M 157.34 113.33 L 158.34 113.32 C 159.45 113.30 160.34 112.39 160.33 111.28 C 160.31 110.17 159.40 109.28 158.29 109.30 L 157.29 109.31 C 156.18 109.33 155.29 110.24 155.31 111.35 C 155.32 112.46 156.23 113.34 157.34 113.33 Z M 158.32 113.31 L 159.31 113.30 C 160.41 113.30 161.31 112.41 161.30 111.30 C 161.30 110.20 160.41 109.31 159.30 109.31 L 158.31 109.31 C 157.21 109.31 156.32 110.21 156.32 111.31 C 156.32 112.41 157.22 113.31 158.32 113.31 Z M 159.26 113.30 L 160.23 113.32 C 161.33 113.34 162.24 112.47 162.26 111.37 C 162.29 110.27 161.41 109.36 160.31 109.34 L 159.35 109.31 C 158.25 109.29 157.34 110.16 157.31 111.26 C 157.29 112.36 158.16 113.27 159.26 113.30 Z M 160.04 113.30 L 161.06 113.43 C 162.15 113.55 163.14 112.78 163.27 111.68 C 163.40 110.59 162.62 109.60 161.53 109.47 L 160.50 109.35 C 159.41 109.22 158.42 110.00 158.29 111.09 C 158.16 112.18 158.94 113.17 160.04 113.30 Z M 160.80 113.38 L 161.77 113.62 C 162.84 113.90 163.92 113.26 164.19 112.19 C 164.47 111.13 163.82 110.04 162.76 109.77 L 161.79 109.52 C 160.73 109.25 159.64 109.89 159.37 110.96 C 159.10 112.02 159.74 113.10 160.80 113.38 Z M 161.48 113.52 L 162.40 113.92 C 163.40 114.36 164.57 113.89 165.01 112.89 C 165.45 111.88 164.98 110.71 163.98 110.27 L 163.06 109.87 C 162.05 109.44 160.88 109.90 160.44 110.91 C 160.01 111.92 160.47 113.09 161.48 113.52 Z M 162.01 113.70 L 162.82 114.29 C 163.71 114.94 164.95 114.74 165.60 113.86 C 166.24 112.97 166.05 111.73 165.16 111.08 L 164.36 110.49 C 163.47 109.84 162.23 110.04 161.58 110.92 C 160.94 111.81 161.13 113.05 162.01 113.70 Z M 162.47 113.96 L 163.11 114.72 C 163.82 115.56 165.07 115.67 165.91 114.96 C 166.75 114.26 166.86 113.01 166.15 112.17 L 165.51 111.41 C 164.81 110.57 163.55 110.46 162.72 111.17 C 161.88 111.87 161.77 113.12 162.47 113.96 Z M 162.89 114.40 L 163.36 115.26 C 163.89 116.22 165.09 116.57 166.05 116.05 C 167.02 115.52 167.37 114.31 166.84 113.35 L 166.38 112.49 C 165.85 111.53 164.64 111.18 163.68 111.70 C 162.72 112.23 162.36 113.44 162.89 114.40 Z M 163.22 114.97 L 163.56 115.92 C 163.93 116.96 165.07 117.51 166.11 117.14 C 167.14 116.77 167.69 115.63 167.32 114.59 L 166.98 113.64 C 166.61 112.60 165.47 112.06 164.44 112.42 C 163.40 112.79 162.85 113.93 163.22 114.97 Z M 163.48 115.66 L 163.67 116.58 C 163.89 117.66 164.95 118.36 166.03 118.14 C 167.11 117.92 167.81 116.86 167.59 115.78 L 167.40 114.86 C 167.18 113.77 166.12 113.07 165.04 113.30 C 163.95 113.52 163.26 114.58 163.48 115.66 Z M 163.62 116.37 L 163.71 117.32 C 163.82 118.42 164.80 119.24 165.91 119.13 C 167.01 119.03 167.83 118.04 167.72 116.94 L 167.63 115.99 C 167.53 114.88 166.55 114.07 165.44 114.17 C 164.33 114.28 163.52 115.26 163.62 116.37 Z M 163.70 117.20 L 163.73 118.31 C 163.77 119.43 164.71 120.30 165.83 120.26 C 166.94 120.22 167.82 119.29 167.78 118.17 L 167.74 117.06 C 167.70 115.94 166.76 115.07 165.65 115.11 C 164.53 115.14 163.66 116.08 163.70 117.20 Z M 163.72 118.27 L 163.74 119.28 C 163.75 120.40 164.67 121.30 165.79 121.28 C 166.92 121.27 167.82 120.35 167.80 119.22 L 167.79 118.21 C 167.78 117.09 166.85 116.19 165.73 116.21 C 164.61 116.22 163.71 117.14 163.72 118.27 Z M 163.72 119.25 L 163.72 120.30 C 163.72 121.43 164.63 122.34 165.76 122.35 C 166.89 122.35 167.81 121.43 167.81 120.30 L 167.81 119.25 C 167.82 118.12 166.90 117.21 165.77 117.21 C 164.64 117.20 163.73 118.12 163.72 119.25 Z M 163.71 120.26 L 163.69 121.25 C 163.67 122.39 164.57 123.32 165.71 123.35 C 166.84 123.37 167.78 122.47 167.80 121.33 L 167.82 120.34 C 167.85 119.21 166.94 118.27 165.81 118.25 C 164.67 118.22 163.73 119.13 163.71 120.26 Z M 163.69 121.18 L 163.63 122.21 C 163.57 123.35 164.44 124.32 165.58 124.38 C 166.72 124.45 167.69 123.57 167.75 122.44 L 167.81 121.40 C 167.87 120.26 167.00 119.29 165.86 119.23 C 164.72 119.17 163.75 120.04 163.69 121.18 Z M 163.64 122.07 L 163.52 123.02 C 163.39 124.15 164.19 125.18 165.33 125.32 C 166.46 125.46 167.49 124.65 167.63 123.52 L 167.74 122.57 C 167.88 121.44 167.08 120.41 165.94 120.27 C 164.81 120.13 163.78 120.94 163.64 122.07 Z M 163.54 122.90 L 163.38 123.81 C 163.17 124.94 163.92 126.01 165.05 126.22 C 166.17 126.42 167.25 125.67 167.45 124.54 L 167.61 123.63 C 167.82 122.51 167.07 121.43 165.94 121.23 C 164.82 121.03 163.74 121.78 163.54 122.90 Z M 163.38 123.78 L 163.20 124.72 C 162.98 125.84 163.71 126.93 164.83 127.15 C 165.95 127.37 167.04 126.64 167.26 125.52 L 167.44 124.58 C 167.66 123.46 166.93 122.37 165.81 122.15 C 164.69 121.93 163.60 122.66 163.38 123.78 Z M 163.20 124.70 L 162.99 125.73 C 162.76 126.85 163.48 127.94 164.60 128.17 C 165.72 128.40 166.81 127.68 167.04 126.56 L 167.26 125.54 C 167.49 124.42 166.77 123.32 165.65 123.09 C 164.53 122.86 163.43 123.58 163.20 124.70 Z M 162.99 125.71 L 162.78 126.69 C 162.54 127.81 163.25 128.91 164.37 129.15 C 165.49 129.39 166.59 128.68 166.83 127.56 L 167.04 126.58 C 167.28 125.46 166.57 124.36 165.45 124.12 C 164.33 123.88 163.23 124.59 162.99 125.71 Z M 162.79 126.67 L 162.58 127.61 C 162.33 128.73 163.03 129.83 164.15 130.08 C 165.26 130.33 166.37 129.62 166.62 128.51 L 166.83 127.57 C 167.08 126.46 166.37 125.35 165.26 125.10 C 164.14 124.85 163.03 125.56 162.79 126.67 Z M 162.58 127.60 L 162.35 128.59 C 162.10 129.71 162.80 130.82 163.92 131.07 C 165.03 131.32 166.14 130.62 166.39 129.51 L 166.62 128.52 C 166.87 127.40 166.17 126.29 165.06 126.04 C 163.94 125.79 162.83 126.49 162.58 127.60 Z M 162.36 128.59 L 162.13 129.60 C 161.87 130.72 162.57 131.83 163.68 132.08 C 164.80 132.33 165.91 131.64 166.16 130.52 L 166.39 129.51 C 166.64 128.40 165.95 127.29 164.83 127.03 C 163.72 126.78 162.61 127.48 162.36 128.59 Z M 162.13 129.61 L 161.91 130.57 C 161.66 131.69 162.35 132.79 163.47 133.04 C 164.58 133.30 165.69 132.60 165.94 131.48 L 166.16 130.52 C 166.41 129.41 165.71 128.30 164.60 128.05 C 163.49 127.80 162.38 128.49 162.13 129.61 Z M 161.91 130.58 L 161.69 131.57 C 161.44 132.69 162.14 133.79 163.25 134.04 C 164.36 134.29 165.47 133.59 165.72 132.48 L 165.94 131.48 C 166.19 130.37 165.49 129.26 164.38 129.01 C 163.26 128.76 162.16 129.46 161.91 130.58 Z M 161.69 131.58 L 161.47 132.57 C 161.22 133.68 161.93 134.78 163.04 135.03 C 164.15 135.27 165.25 134.57 165.50 133.46 L 165.72 132.47 C 165.96 131.36 165.26 130.26 164.15 130.01 C 163.03 129.76 161.93 130.47 161.69 131.58 Z M 161.47 132.58 L 161.25 133.64 C 161.01 134.75 161.71 135.84 162.82 136.08 C 163.93 136.32 165.03 135.62 165.26 134.51 L 165.49 133.45 C 165.73 132.34 165.02 131.24 163.92 131.01 C 162.81 130.77 161.71 131.47 161.47 132.58 Z M 161.26 133.64 L 161.03 134.70 C 160.79 135.80 161.49 136.88 162.59 137.12 C 163.69 137.36 164.78 136.66 165.02 135.56 L 165.25 134.51 C 165.49 133.41 164.79 132.32 163.69 132.08 C 162.59 131.84 161.50 132.54 161.26 133.64 Z M 161.06 134.65 L 160.84 135.57 C 160.58 136.66 161.24 137.75 162.33 138.01 C 163.41 138.28 164.50 137.61 164.77 136.53 L 164.99 135.61 C 165.25 134.52 164.59 133.43 163.50 133.17 C 162.42 132.90 161.33 133.57 161.06 134.65 Z M 160.91 135.44 L 160.61 136.36 C 160.27 137.41 160.85 138.53 161.90 138.87 C 162.95 139.20 164.07 138.63 164.41 137.58 L 164.70 136.66 C 165.04 135.61 164.46 134.49 163.41 134.15 C 162.36 133.82 161.24 134.39 160.91 135.44 Z M 160.76 136.12 L 160.33 137.00 C 159.86 137.96 160.26 139.12 161.23 139.59 C 162.19 140.07 163.35 139.67 163.82 138.70 L 164.25 137.82 C 164.72 136.86 164.32 135.70 163.36 135.23 C 162.40 134.75 161.23 135.15 160.76 136.12 Z M 160.45 136.87 L 160.26 137.19 C 159.72 138.09 160.01 139.26 160.91 139.80 C 161.81 140.34 162.97 140.04 163.51 139.15 L 163.71 138.82 C 164.24 137.93 163.95 136.76 163.05 136.22 C 162.16 135.68 160.99 135.98 160.45 136.87 Z"
      fill="black"
      fill-rule="nonzero" /><path d="M 144.20 132.21 L 145.16 132.45 C 146.28 132.72 147.40 132.04 147.67 130.93 C 147.95 129.81 147.27 128.69 146.15 128.42 L 145.19 128.18 C 144.08 127.91 142.95 128.59 142.68 129.70 C 142.41 130.81 143.09 131.93 144.20 132.21 Z M 145.36 132.51 L 146.36 132.65 C 147.51 132.81 148.57 132.01 148.73 130.87 C 148.90 129.72 148.10 128.65 146.95 128.49 L 145.95 128.35 C 144.80 128.19 143.74 128.99 143.58 130.14 C 143.42 131.29 144.22 132.35 145.36 132.51 Z M 146.70 132.68 L 147.66 132.65 C 148.82 132.63 149.74 131.67 149.72 130.50 C 149.69 129.34 148.73 128.42 147.56 128.45 L 146.61 128.47 C 145.44 128.49 144.52 129.46 144.55 130.62 C 144.57 131.78 145.54 132.70 146.70 132.68 Z M 147.90 132.62 L 148.91 132.48 C 150.05 132.32 150.85 131.27 150.69 130.12 C 150.53 128.98 149.48 128.19 148.33 128.34 L 147.32 128.48 C 146.18 128.64 145.39 129.70 145.54 130.84 C 145.70 131.98 146.76 132.78 147.90 132.62 Z M 149.02 132.43 L 149.99 132.25 C 151.10 132.03 151.83 130.94 151.62 129.83 C 151.40 128.71 150.32 127.98 149.20 128.20 L 148.23 128.39 C 147.11 128.60 146.38 129.69 146.60 130.81 C 146.81 131.92 147.90 132.65 149.02 132.43 Z M 150.03 132.21 L 151.00 131.99 C 152.10 131.75 152.79 130.67 152.55 129.57 C 152.31 128.47 151.22 127.78 150.13 128.02 L 149.16 128.24 C 148.06 128.48 147.37 129.56 147.61 130.66 C 147.85 131.75 148.93 132.45 150.03 132.21 Z M 151.01 131.96 L 152.02 131.72 C 153.10 131.48 153.77 130.40 153.52 129.32 C 153.27 128.25 152.20 127.58 151.12 127.82 L 150.11 128.06 C 149.04 128.31 148.36 129.38 148.61 130.46 C 148.86 131.53 149.94 132.21 151.01 131.96 Z M 152.02 131.69 L 152.93 131.48 C 153.99 131.23 154.65 130.17 154.40 129.11 C 154.15 128.05 153.09 127.40 152.03 127.64 L 151.12 127.85 C 150.06 128.10 149.40 129.16 149.65 130.22 C 149.90 131.28 150.96 131.94 152.02 131.69 Z M 152.92 131.46 L 153.89 131.23 C 154.93 130.99 155.58 129.94 155.34 128.90 C 155.10 127.85 154.05 127.20 153.01 127.44 L 152.04 127.67 C 150.99 127.91 150.34 128.96 150.59 130.00 C 150.83 131.05 151.87 131.70 152.92 131.46 Z M 153.87 131.21 L 154.92 130.96 C 155.96 130.73 156.60 129.70 156.36 128.67 C 156.13 127.64 155.10 126.99 154.07 127.23 L 153.02 127.47 C 151.99 127.71 151.34 128.74 151.58 129.77 C 151.81 130.80 152.84 131.44 153.87 131.21 Z M 154.91 130.94 L 155.83 130.73 C 156.85 130.50 157.49 129.49 157.26 128.47 C 157.03 127.45 156.01 126.81 155.00 127.05 L 154.08 127.25 C 153.06 127.48 152.42 128.50 152.65 129.51 C 152.88 130.53 153.90 131.17 154.91 130.94 Z M 155.82 130.71 L 156.79 130.49 C 157.80 130.27 158.43 129.27 158.21 128.26 C 157.98 127.26 156.98 126.62 155.98 126.85 L 155.01 127.07 C 154.00 127.29 153.37 128.29 153.59 129.30 C 153.82 130.30 154.82 130.94 155.82 130.71 Z M 156.79 130.47 L 157.79 130.25 C 158.78 130.02 159.41 129.04 159.19 128.05 C 158.97 127.05 157.98 126.43 156.99 126.65 L 155.98 126.87 C 154.99 127.09 154.36 128.08 154.59 129.07 C 154.81 130.07 155.79 130.69 156.79 130.47 Z M 157.79 130.22 L 158.59 130.05 C 159.57 129.83 160.19 128.85 159.97 127.87 C 159.75 126.89 158.78 126.27 157.80 126.49 L 156.99 126.67 C 156.01 126.89 155.39 127.86 155.61 128.84 C 155.83 129.82 156.80 130.44 157.79 130.22 Z"
      fill="black"
      fill-rule="nonzero" /><path d="M 141.93 146.28 L 142.69 146.95 C 143.52 147.67 144.78 147.59 145.50 146.76 C 146.23 145.93 146.15 144.67 145.32 143.95 L 144.56 143.28 C 143.73 142.55 142.47 142.63 141.74 143.46 C 141.02 144.29 141.10 145.55 141.93 146.28 Z M 143.34 147.40 L 144.18 147.68 C 145.26 148.05 146.43 147.47 146.79 146.39 C 147.16 145.31 146.58 144.14 145.50 143.78 L 144.66 143.49 C 143.59 143.13 142.42 143.71 142.05 144.79 C 141.69 145.86 142.26 147.03 143.34 147.40 Z M 145.13 147.79 L 146.04 147.67 C 147.18 147.51 147.98 146.46 147.82 145.32 C 147.66 144.18 146.61 143.38 145.47 143.54 L 144.56 143.67 C 143.42 143.82 142.62 144.87 142.78 146.01 C 142.93 147.15 143.99 147.95 145.13 147.79 Z M 146.40 147.57 L 147.49 147.22 C 148.58 146.86 149.17 145.69 148.81 144.60 C 148.45 143.51 147.28 142.92 146.19 143.28 L 145.11 143.63 C 144.02 143.99 143.43 145.16 143.78 146.25 C 144.14 147.34 145.31 147.93 146.40 147.57 Z M 147.58 147.17 L 148.54 146.80 C 149.60 146.39 150.13 145.20 149.72 144.14 C 149.31 143.07 148.11 142.54 147.05 142.95 L 146.10 143.32 C 145.03 143.73 144.51 144.93 144.92 145.99 C 145.33 147.05 146.52 147.58 147.58 147.17 Z M 148.56 146.77 L 149.53 146.38 C 150.58 145.96 151.08 144.76 150.65 143.71 C 150.23 142.67 149.03 142.16 147.99 142.59 L 147.02 142.98 C 145.97 143.41 145.47 144.60 145.90 145.65 C 146.32 146.70 147.52 147.20 148.56 146.77 Z M 149.53 146.36 L 150.44 145.98 C 151.48 145.55 151.97 144.37 151.54 143.33 C 151.11 142.30 149.93 141.81 148.89 142.23 L 147.98 142.61 C 146.95 143.04 146.46 144.23 146.88 145.26 C 147.31 146.30 148.50 146.79 149.53 146.36 Z M 150.44 145.94 L 151.38 145.54 C 152.39 145.12 152.86 143.96 152.44 142.95 C 152.02 141.94 150.85 141.46 149.84 141.88 L 148.90 142.28 C 147.89 142.70 147.41 143.86 147.84 144.88 C 148.26 145.89 149.42 146.36 150.44 145.94 Z M 151.39 145.47 L 152.25 145.09 C 153.22 144.65 153.66 143.52 153.23 142.55 C 152.79 141.58 151.66 141.14 150.69 141.57 L 149.83 141.96 C 148.86 142.39 148.42 143.53 148.85 144.50 C 149.28 145.47 150.42 145.90 151.39 145.47 Z M 152.28 145.03 L 153.12 144.63 C 154.06 144.18 154.46 143.06 154.01 142.12 C 153.56 141.18 152.44 140.78 151.50 141.23 L 150.66 141.63 C 149.72 142.08 149.32 143.20 149.77 144.14 C 150.22 145.08 151.34 145.48 152.28 145.03 Z M 153.14 144.61 L 154.07 144.15 C 155.00 143.69 155.37 142.56 154.92 141.64 C 154.46 140.71 153.33 140.33 152.41 140.79 L 151.48 141.25 C 150.55 141.71 150.17 142.84 150.63 143.76 C 151.09 144.69 152.22 145.07 153.14 144.61 Z M 154.08 144.12 L 155.02 143.64 C 155.93 143.18 156.30 142.06 155.83 141.14 C 155.36 140.23 154.24 139.87 153.33 140.34 L 152.39 140.82 C 151.48 141.28 151.12 142.40 151.58 143.32 C 152.05 144.23 153.17 144.59 154.08 144.12 Z M 155.03 143.62 L 155.93 143.14 C 156.83 142.67 157.17 141.55 156.70 140.66 C 156.22 139.76 155.11 139.41 154.21 139.89 L 153.31 140.36 C 152.42 140.84 152.07 141.95 152.55 142.85 C 153.02 143.75 154.13 144.09 155.03 143.62 Z M 155.95 143.11 L 156.81 142.64 C 157.69 142.16 158.01 141.05 157.53 140.17 C 157.04 139.29 155.94 138.96 155.06 139.45 L 154.20 139.92 C 153.32 140.40 152.99 141.51 153.47 142.39 C 153.96 143.27 155.06 143.60 155.95 143.11 Z M 156.83 142.62 L 157.71 142.11 C 158.57 141.62 158.88 140.51 158.38 139.64 C 157.88 138.78 156.78 138.48 155.91 138.97 L 155.03 139.48 C 154.17 139.97 153.86 141.08 154.36 141.94 C 154.86 142.81 155.96 143.11 156.83 142.62 Z M 157.73 142.09 L 158.58 141.59 C 159.44 141.08 159.72 139.97 159.21 139.12 C 158.71 138.26 157.60 137.98 156.74 138.49 L 155.89 138.99 C 155.03 139.50 154.75 140.60 155.26 141.46 C 155.77 142.32 156.87 142.60 157.73 142.09 Z M 158.59 141.58 L 159.06 141.30 C 159.91 140.79 160.19 139.68 159.68 138.83 C 159.17 137.97 158.06 137.70 157.21 138.21 L 156.74 138.49 C 155.88 139.01 155.61 140.11 156.12 140.96 C 156.63 141.82 157.74 142.09 158.59 141.58 Z"
      fill="black"
      fill-rule="nonzero" /><path d="M 151.16 117.32 L 150.56 118.07 C 149.87 118.94 150.01 120.20 150.88 120.89 C 151.75 121.58 153.01 121.43 153.69 120.57 L 154.30 119.81 C 154.98 118.94 154.84 117.68 153.97 116.99 C 153.11 116.31 151.85 116.45 151.16 117.32 Z M 150.22 118.53 L 149.84 119.46 C 149.40 120.51 149.90 121.72 150.95 122.15 C 152.00 122.59 153.21 122.09 153.65 121.04 L 154.03 120.11 C 154.47 119.06 153.97 117.85 152.91 117.42 C 151.86 116.98 150.66 117.48 150.22 118.53 Z M 149.66 120.01 L 149.55 121.01 C 149.42 122.16 150.24 123.19 151.39 123.33 C 152.54 123.46 153.57 122.63 153.71 121.48 L 153.82 120.49 C 153.95 119.34 153.13 118.30 151.98 118.17 C 150.83 118.04 149.79 118.86 149.66 120.01 Z M 149.53 121.22 L 149.51 122.24 C 149.50 123.40 150.43 124.35 151.59 124.37 C 152.75 124.38 153.70 123.45 153.71 122.29 L 153.73 121.27 C 153.74 120.11 152.81 119.16 151.65 119.15 C 150.49 119.13 149.54 120.06 149.53 121.22 Z M 149.51 122.28 L 149.51 123.29 C 149.52 124.45 150.47 125.39 151.63 125.38 C 152.79 125.38 153.73 124.43 153.72 123.27 L 153.72 122.26 C 153.71 121.10 152.77 120.16 151.60 120.16 C 150.44 120.17 149.50 121.12 149.51 122.28 Z M 149.51 123.34 L 149.54 124.29 C 149.57 125.45 150.54 126.37 151.70 126.34 C 152.87 126.31 153.78 125.34 153.75 124.18 L 153.72 123.22 C 153.69 122.06 152.72 121.14 151.56 121.17 C 150.40 121.21 149.48 122.17 149.51 123.34 Z M 149.54 124.34 L 149.59 125.32 C 149.65 126.48 150.64 127.38 151.80 127.32 C 152.96 127.26 153.86 126.27 153.80 125.11 L 153.75 124.13 C 153.69 122.97 152.70 122.07 151.54 122.13 C 150.38 122.19 149.48 123.18 149.54 124.34 Z M 149.59 125.32 L 149.64 126.35 C 149.70 127.51 150.69 128.40 151.85 128.35 C 153.01 128.29 153.90 127.30 153.85 126.14 L 153.80 125.11 C 153.74 123.95 152.75 123.06 151.59 123.11 C 150.43 123.17 149.53 124.16 149.59 125.32 Z M 149.65 126.33 L 149.69 127.33 C 149.73 128.49 150.71 129.39 151.87 129.34 C 153.03 129.30 153.93 128.32 153.88 127.16 L 153.84 126.16 C 153.80 125.00 152.82 124.10 151.66 124.15 C 150.50 124.19 149.60 125.17 149.65 126.33 Z M 149.69 127.33 L 149.74 128.34 C 149.78 129.49 150.76 130.39 151.91 130.34 C 153.07 130.29 153.96 129.32 153.92 128.17 L 153.87 127.16 C 153.83 126.00 152.85 125.11 151.70 125.16 C 150.54 125.20 149.65 126.18 149.69 127.33 Z M 149.75 128.36 L 149.80 129.36 C 149.85 130.51 150.83 131.40 151.98 131.34 C 153.13 131.28 154.01 130.30 153.96 129.15 L 153.91 128.15 C 153.85 127.00 152.87 126.12 151.72 126.17 C 150.57 126.23 149.69 127.21 149.75 128.36 Z M 149.81 129.36 L 149.86 130.35 C 149.91 131.49 150.88 132.38 152.03 132.32 C 153.17 132.26 154.05 131.29 154.00 130.15 L 153.95 129.16 C 153.89 128.01 152.92 127.13 151.77 127.19 C 150.63 127.25 149.75 128.22 149.81 129.36 Z M 149.87 130.33 L 149.91 131.33 C 149.95 132.46 150.91 133.34 152.04 133.30 C 153.18 133.26 154.06 132.30 154.02 131.17 L 153.98 130.17 C 153.93 129.03 152.98 128.15 151.85 128.20 C 150.71 128.24 149.83 129.19 149.87 130.33 Z M 149.93 131.31 L 149.97 132.31 C 150.00 133.43 150.94 134.31 152.06 134.28 C 153.18 134.24 154.06 133.30 154.03 132.18 L 153.99 131.18 C 153.96 130.06 153.02 129.18 151.90 129.22 C 150.78 129.25 149.90 130.19 149.93 131.31 Z M 149.99 132.31 L 150.03 133.32 C 150.06 134.43 150.99 135.29 152.10 135.26 C 153.20 135.22 154.07 134.29 154.03 133.19 L 154.00 132.18 C 153.96 131.08 153.04 130.21 151.93 130.24 C 150.82 130.28 149.96 131.21 149.99 132.31 Z M 150.05 133.32 L 150.09 134.32 C 150.13 135.41 151.04 136.26 152.13 136.22 C 153.22 136.19 154.08 135.27 154.04 134.18 L 154.00 133.19 C 153.97 132.10 153.05 131.24 151.96 131.28 C 150.87 131.32 150.02 132.23 150.05 133.32 Z M 150.12 134.31 L 150.15 135.32 C 150.19 136.39 151.09 137.24 152.16 137.20 C 153.23 137.17 154.08 136.27 154.04 135.19 L 154.01 134.19 C 153.97 133.11 153.07 132.27 152.00 132.30 C 150.92 132.34 150.08 133.24 150.12 134.31 Z M 150.18 135.32 L 150.21 136.31 C 150.24 137.37 151.13 138.20 152.19 138.17 C 153.25 138.14 154.08 137.25 154.05 136.19 L 154.01 135.20 C 153.98 134.14 153.10 133.30 152.04 133.34 C 150.98 133.37 150.15 134.26 150.18 135.32 Z M 150.24 136.31 L 150.27 137.31 C 150.30 138.35 151.18 139.17 152.22 139.14 C 153.26 139.11 154.08 138.23 154.05 137.19 L 154.02 136.19 C 153.98 135.15 153.11 134.33 152.07 134.36 C 151.02 134.40 150.20 135.27 150.24 136.31 Z M 150.30 137.31 L 150.33 138.30 C 150.36 139.33 151.22 140.14 152.25 140.11 C 153.28 140.08 154.09 139.21 154.06 138.18 L 154.02 137.19 C 153.99 136.16 153.13 135.35 152.10 135.39 C 151.07 135.42 150.26 136.28 150.30 137.31 Z M 150.35 138.30 L 150.38 139.28 C 150.41 140.29 151.26 141.09 152.28 141.06 C 153.30 141.03 154.10 140.17 154.06 139.16 L 154.03 138.19 C 154.00 137.17 153.15 136.37 152.13 136.40 C 151.12 136.44 150.32 137.29 150.35 138.30 Z M 150.40 139.27 L 150.43 140.28 C 150.46 141.28 151.30 142.08 152.31 142.04 C 153.32 142.01 154.11 141.17 154.08 140.16 L 154.05 139.16 C 154.01 138.15 153.17 137.36 152.17 137.39 C 151.16 137.42 150.37 138.27 150.40 139.27 Z M 150.44 140.28 L 150.47 141.27 C 150.50 142.27 151.34 143.06 152.34 143.03 C 153.34 143.00 154.13 142.16 154.10 141.16 L 154.07 140.16 C 154.03 139.16 153.20 138.38 152.20 138.41 C 151.20 138.44 150.41 139.27 150.44 140.28 Z M 150.48 141.27 L 150.51 142.28 C 150.54 143.27 151.37 144.05 152.37 144.02 C 153.37 143.99 154.15 143.16 154.12 142.16 L 154.09 141.16 C 154.06 140.16 153.23 139.38 152.23 139.41 C 151.23 139.44 150.45 140.27 150.48 141.27 Z M 150.52 142.27 L 150.54 143.05 C 150.57 144.05 151.40 144.83 152.40 144.80 C 153.39 144.77 154.17 143.93 154.14 142.94 L 154.12 142.16 C 154.09 141.17 153.26 140.39 152.26 140.42 C 151.27 140.45 150.48 141.28 150.52 142.27 Z"
      fill="black"
      fill-rule="nonzero" /><path d="M 126.31 157.42 L 125.05 157.42 C 124.02 157.41 123.18 158.25 123.18 159.28 C 123.18 160.31 124.01 161.15 125.04 161.15 L 126.30 161.16 C 127.33 161.16 128.17 160.33 128.17 159.30 C 128.17 158.26 127.34 157.43 126.31 157.42 Z M 125.20 157.33 L 124.74 157.30 C 123.66 157.21 122.72 158.02 122.64 159.10 C 122.56 160.18 123.36 161.12 124.44 161.21 L 124.90 161.24 C 125.98 161.32 126.92 160.52 127.00 159.44 C 127.09 158.36 126.28 157.41 125.20 157.33 Z M 124.86 161.30 L 125.99 161.15 C 127.12 161.00 127.92 159.96 127.77 158.83 C 127.62 157.70 126.58 156.90 125.45 157.05 L 124.32 157.20 C 123.19 157.35 122.39 158.39 122.54 159.52 C 122.69 160.65 123.73 161.45 124.86 161.30 Z M 126.05 161.23 L 126.98 161.08 C 128.15 160.90 128.95 159.80 128.77 158.63 C 128.59 157.45 127.49 156.65 126.31 156.83 L 125.39 156.98 C 124.22 157.16 123.41 158.26 123.59 159.43 C 123.78 160.61 124.88 161.41 126.05 161.23 Z M 127.01 161.13 L 128.03 160.96 C 129.23 160.75 130.04 159.62 129.84 158.42 C 129.64 157.23 128.50 156.42 127.31 156.62 L 126.28 156.79 C 125.08 156.99 124.28 158.12 124.48 159.32 C 124.68 160.52 125.81 161.33 127.01 161.13 Z M 128.03 161.00 L 129.08 160.82 C 130.30 160.62 131.13 159.47 130.93 158.25 C 130.73 157.03 129.58 156.21 128.36 156.41 L 127.31 156.58 C 126.09 156.78 125.26 157.93 125.46 159.15 C 125.66 160.37 126.81 161.20 128.03 161.00 Z M 129.08 160.85 L 130.09 160.69 C 131.33 160.49 132.17 159.33 131.98 158.10 C 131.78 156.86 130.62 156.02 129.39 156.22 L 128.37 156.38 C 127.13 156.57 126.29 157.73 126.49 158.97 C 126.68 160.20 127.84 161.05 129.08 160.85 Z M 130.11 160.71 L 131.04 160.56 C 132.28 160.35 133.13 159.18 132.92 157.93 C 132.72 156.69 131.55 155.84 130.30 156.05 L 129.37 156.20 C 128.13 156.40 127.28 157.58 127.49 158.82 C 127.69 160.07 128.86 160.91 130.11 160.71 Z M 131.08 160.56 L 132.11 160.38 C 133.36 160.15 134.18 158.95 133.95 157.70 C 133.73 156.45 132.53 155.62 131.28 155.85 L 130.26 156.04 C 129.01 156.27 128.18 157.47 128.41 158.72 C 128.64 159.96 129.84 160.79 131.08 160.56 Z M 132.13 160.38 L 133.06 160.20 C 134.31 159.96 135.13 158.75 134.88 157.50 C 134.64 156.24 133.43 155.43 132.18 155.67 L 131.25 155.85 C 130.00 156.09 129.18 157.30 129.43 158.55 C 129.67 159.80 130.88 160.62 132.13 160.38 Z M 133.05 160.21 L 134.02 160.03 C 135.28 159.79 136.10 158.58 135.87 157.32 C 135.63 156.07 134.42 155.24 133.16 155.48 L 132.19 155.66 C 130.93 155.90 130.11 157.11 130.34 158.36 C 130.58 159.62 131.79 160.45 133.05 160.21 Z M 134.03 160.03 L 135.02 159.83 C 136.28 159.59 137.10 158.37 136.85 157.12 C 136.61 155.86 135.39 155.04 134.13 155.28 L 133.15 155.48 C 131.89 155.72 131.07 156.94 131.32 158.19 C 131.56 159.45 132.78 160.27 134.03 160.03 Z M 135.05 159.83 L 136.03 159.62 C 137.28 159.36 138.08 158.13 137.82 156.88 C 137.56 155.62 136.33 154.82 135.07 155.08 L 134.10 155.29 C 132.85 155.55 132.04 156.78 132.31 158.04 C 132.57 159.29 133.80 160.09 135.05 159.83 Z M 136.07 159.61 L 137.04 159.39 C 138.29 159.10 139.07 157.85 138.78 156.61 C 138.49 155.36 137.24 154.58 136.00 154.87 L 135.03 155.10 C 133.78 155.38 133.00 156.63 133.29 157.88 C 133.58 159.13 134.83 159.90 136.07 159.61 Z M 137.08 159.38 L 138.04 159.14 C 139.28 158.84 140.04 157.58 139.73 156.34 C 139.42 155.09 138.17 154.33 136.92 154.64 L 135.96 154.88 C 134.72 155.19 133.96 156.44 134.27 157.69 C 134.58 158.93 135.83 159.69 137.08 159.38 Z M 138.04 159.14 L 139.03 158.90 C 140.27 158.59 141.03 157.33 140.72 156.09 C 140.42 154.85 139.16 154.09 137.92 154.40 L 136.92 154.64 C 135.68 154.95 134.92 156.21 135.23 157.45 C 135.54 158.69 136.79 159.45 138.04 159.14 Z M 139.03 158.90 L 139.99 158.66 C 141.23 158.36 141.99 157.10 141.69 155.86 C 141.38 154.62 140.13 153.86 138.88 154.16 L 137.92 154.39 C 136.68 154.70 135.92 155.95 136.22 157.20 C 136.53 158.44 137.78 159.20 139.03 158.90 Z M 140.00 158.66 L 140.99 158.41 C 142.23 158.10 142.98 156.84 142.67 155.59 C 142.35 154.35 141.09 153.60 139.85 153.91 L 138.87 154.16 C 137.62 154.48 136.87 155.74 137.19 156.98 C 137.50 158.22 138.76 158.97 140.00 158.66 Z M 141.03 158.39 L 141.99 158.13 C 143.22 157.80 143.95 156.53 143.61 155.30 C 143.28 154.06 142.01 153.33 140.78 153.67 L 139.81 153.93 C 138.58 154.26 137.85 155.54 138.19 156.77 C 138.52 158.00 139.79 158.73 141.03 158.39 Z M 142.03 158.11 L 142.98 157.83 C 144.20 157.48 144.90 156.20 144.55 154.98 C 144.19 153.76 142.91 153.06 141.69 153.41 L 140.74 153.69 C 139.52 154.05 138.82 155.32 139.17 156.55 C 139.53 157.77 140.81 158.47 142.03 158.11 Z M 143.01 157.81 L 143.97 157.51 C 145.18 157.14 145.86 155.86 145.49 154.65 C 145.12 153.45 143.84 152.77 142.63 153.14 L 141.67 153.44 C 140.46 153.81 139.78 155.09 140.15 156.29 C 140.52 157.50 141.80 158.18 143.01 157.81 Z M 143.99 157.49 L 144.93 157.19 C 146.13 156.81 146.79 155.53 146.40 154.34 C 146.02 153.14 144.75 152.48 143.55 152.86 L 142.61 153.16 C 141.42 153.54 140.76 154.82 141.14 156.02 C 141.52 157.21 142.80 157.87 143.99 157.49 Z M 144.94 157.17 L 145.90 156.85 C 147.08 156.47 147.72 155.19 147.34 154.01 C 146.95 152.83 145.68 152.19 144.50 152.57 L 143.54 152.89 C 142.36 153.27 141.71 154.55 142.10 155.73 C 142.49 156.91 143.76 157.55 144.94 157.17 Z M 145.90 156.83 L 146.86 156.51 C 148.03 156.12 148.66 154.86 148.27 153.69 C 147.88 152.52 146.62 151.89 145.45 152.28 L 144.49 152.60 C 143.32 152.99 142.69 154.25 143.08 155.42 C 143.47 156.59 144.73 157.22 145.90 156.83 Z M 146.86 156.49 L 147.80 156.17 C 148.96 155.78 149.58 154.52 149.19 153.37 C 148.80 152.21 147.54 151.59 146.39 151.98 L 145.45 152.30 C 144.29 152.69 143.67 153.95 144.06 155.10 C 144.45 156.26 145.71 156.88 146.86 156.49 Z M 147.81 156.14 L 148.76 155.82 C 149.90 155.43 150.51 154.18 150.11 153.04 C 149.72 151.90 148.48 151.29 147.34 151.68 L 146.39 152.01 C 145.24 152.40 144.64 153.64 145.03 154.79 C 145.42 155.93 146.66 156.54 147.81 156.14 Z M 148.76 155.79 L 149.71 155.46 C 150.84 155.07 151.43 153.83 151.04 152.70 C 150.64 151.58 149.41 150.98 148.28 151.38 L 147.33 151.71 C 146.20 152.10 145.61 153.34 146.00 154.46 C 146.40 155.59 147.63 156.19 148.76 155.79 Z M 149.71 155.44 L 150.66 155.10 C 151.77 154.70 152.35 153.48 151.96 152.37 C 151.56 151.25 150.34 150.67 149.22 151.07 L 148.28 151.40 C 147.16 151.80 146.58 153.02 146.98 154.14 C 147.37 155.25 148.60 155.83 149.71 155.44 Z M 150.66 155.07 L 151.60 154.73 C 152.70 154.34 153.27 153.12 152.87 152.02 C 152.47 150.92 151.26 150.35 150.16 150.75 L 149.22 151.09 C 148.12 151.49 147.55 152.70 147.95 153.80 C 148.35 154.90 149.56 155.47 150.66 155.07 Z M 151.60 154.71 L 152.55 154.36 C 153.63 153.96 154.19 152.76 153.79 151.67 C 153.39 150.59 152.19 150.03 151.10 150.43 L 150.16 150.78 C 149.07 151.18 148.52 152.38 148.91 153.46 C 149.31 154.55 150.52 155.11 151.60 154.71 Z M 152.55 154.33 L 153.49 153.98 C 154.56 153.59 155.10 152.39 154.70 151.32 C 154.30 150.25 153.11 149.71 152.04 150.11 L 151.10 150.46 C 150.03 150.86 149.49 152.05 149.89 153.12 C 150.28 154.19 151.48 154.73 152.55 154.33 Z M 153.49 153.96 L 154.41 153.61 C 155.47 153.21 156.00 152.03 155.60 150.97 C 155.21 149.92 154.03 149.38 152.97 149.78 L 152.04 150.13 C 150.98 150.53 150.45 151.71 150.85 152.77 C 151.25 153.82 152.43 154.36 153.49 153.96 Z M 154.41 153.58 L 155.34 153.23 C 156.39 152.83 156.91 151.66 156.51 150.62 C 156.11 149.58 154.95 149.05 153.90 149.45 L 152.97 149.81 C 151.93 150.20 151.40 151.37 151.80 152.41 C 152.20 153.46 153.37 153.98 154.41 153.58 Z M 155.33 153.21 L 156.26 152.85 C 157.30 152.46 157.81 151.31 157.42 150.28 C 157.03 149.25 155.88 148.73 154.85 149.12 L 153.92 149.47 C 152.88 149.86 152.36 151.02 152.75 152.05 C 153.15 153.08 154.30 153.60 155.33 153.21 Z M 156.24 152.84 L 157.18 152.49 C 158.20 152.11 158.73 150.98 158.35 149.96 C 157.97 148.93 156.84 148.41 155.82 148.79 L 154.87 149.14 C 153.85 149.51 153.33 150.65 153.70 151.67 C 154.08 152.69 155.22 153.22 156.24 152.84 Z M 157.15 152.48 L 158.12 152.13 C 159.14 151.77 159.67 150.66 159.31 149.64 C 158.95 148.63 157.84 148.10 156.82 148.46 L 155.85 148.80 C 154.83 149.16 154.30 150.28 154.66 151.29 C 155.02 152.30 156.14 152.83 157.15 152.48 Z M 158.10 152.11 L 159.04 151.78 C 160.05 151.44 160.58 150.35 160.24 149.34 C 159.89 148.34 158.80 147.81 157.80 148.15 L 156.85 148.48 C 155.85 148.82 155.31 149.92 155.66 150.92 C 156.00 151.92 157.09 152.45 158.10 152.11 Z M 159.03 151.76 L 159.94 151.45 C 160.93 151.12 161.46 150.04 161.13 149.05 C 160.79 148.06 159.72 147.53 158.73 147.87 L 157.81 148.18 C 156.82 148.51 156.29 149.59 156.63 150.58 C 156.96 151.57 158.04 152.10 159.03 151.76 Z M 159.92 151.44 L 160.84 151.13 C 161.82 150.81 162.36 149.75 162.03 148.77 C 161.71 147.79 160.65 147.25 159.67 147.58 L 158.75 147.88 C 157.77 148.21 157.23 149.26 157.56 150.24 C 157.88 151.23 158.94 151.76 159.92 151.44 Z M 160.80 151.12 L 161.77 150.83 C 162.75 150.53 163.30 149.50 163.00 148.52 C 162.71 147.54 161.67 146.99 160.70 147.29 L 159.72 147.58 C 158.74 147.88 158.19 148.92 158.49 149.89 C 158.78 150.87 159.82 151.42 160.80 151.12 Z M 161.72 150.83 L 162.68 150.56 C 163.66 150.29 164.23 149.28 163.96 148.31 C 163.69 147.33 162.68 146.75 161.71 147.02 L 160.75 147.29 C 159.77 147.56 159.20 148.57 159.46 149.54 C 159.73 150.52 160.74 151.10 161.72 150.83 Z M 162.64 150.56 L 163.64 150.31 C 164.62 150.07 165.21 149.08 164.96 148.10 C 164.72 147.12 163.73 146.53 162.75 146.77 L 161.75 147.02 C 160.77 147.27 160.18 148.26 160.42 149.24 C 160.67 150.22 161.66 150.81 162.64 150.56 Z M 163.59 150.32 L 164.56 150.10 C 165.54 149.88 166.16 148.91 165.95 147.93 C 165.73 146.95 164.76 146.33 163.78 146.55 L 162.80 146.77 C 161.82 146.99 161.20 147.96 161.42 148.94 C 161.64 149.91 162.61 150.53 163.59 150.32 Z M 164.49 150.11 L 165.52 149.92 C 166.51 149.75 167.16 148.81 166.99 147.82 C 166.81 146.84 165.87 146.18 164.89 146.36 L 163.85 146.54 C 162.87 146.72 162.21 147.66 162.39 148.64 C 162.57 149.63 163.51 150.28 164.49 150.11 Z M 165.46 149.93 L 166.38 149.79 C 167.37 149.65 168.05 148.74 167.91 147.75 C 167.77 146.77 166.86 146.08 165.87 146.22 L 164.95 146.36 C 163.96 146.50 163.28 147.41 163.42 148.40 C 163.56 149.38 164.48 150.07 165.46 149.93 Z M 166.37 149.79 L 166.42 149.78 C 167.41 149.65 168.10 148.74 167.96 147.76 C 167.83 146.77 166.92 146.08 165.93 146.22 L 165.88 146.22 C 164.90 146.36 164.21 147.27 164.34 148.25 C 164.48 149.24 165.39 149.93 166.37 149.79 Z"
      fill="black"
      fill-rule="nonzero" /><path d="M 137.32 161.08 L 137.44 162.02 C 137.58 163.10 138.58 163.87 139.67 163.73 C 140.75 163.59 141.52 162.59 141.38 161.51 L 141.26 160.57 C 141.12 159.48 140.12 158.71 139.03 158.85 C 137.95 158.99 137.18 159.99 137.32 161.08 Z M 137.39 161.99 L 137.50 163.02 C 137.63 164.14 138.64 164.94 139.75 164.82 C 140.87 164.69 141.68 163.68 141.55 162.56 L 141.44 161.53 C 141.31 160.42 140.30 159.61 139.18 159.74 C 138.07 159.86 137.26 160.87 137.39 161.99 Z M 137.47 162.97 L 137.56 164.00 C 137.66 165.13 138.66 165.98 139.80 165.87 C 140.94 165.77 141.78 164.77 141.68 163.63 L 141.59 162.61 C 141.49 161.47 140.48 160.63 139.34 160.73 C 138.21 160.83 137.37 161.84 137.47 162.97 Z M 137.55 163.96 L 137.62 164.99 C 137.71 166.13 138.70 166.99 139.84 166.90 C 140.99 166.82 141.84 165.83 141.76 164.68 L 141.69 163.66 C 141.60 162.52 140.61 161.66 139.47 161.75 C 138.33 161.83 137.47 162.82 137.55 163.96 Z M 137.62 164.96 L 137.68 165.98 C 137.75 167.12 138.74 167.99 139.88 167.92 C 141.02 167.85 141.89 166.87 141.82 165.73 L 141.76 164.71 C 141.69 163.57 140.71 162.70 139.57 162.76 C 138.42 162.83 137.55 163.82 137.62 164.96 Z M 137.68 165.94 L 137.72 166.92 C 137.77 168.07 138.74 168.95 139.88 168.91 C 141.03 168.86 141.92 167.89 141.87 166.75 L 141.83 165.77 C 141.78 164.62 140.81 163.73 139.67 163.78 C 138.52 163.83 137.63 164.79 137.68 165.94 Z M 137.72 166.87 L 137.74 167.81 C 137.76 168.96 138.70 169.87 139.85 169.85 C 140.99 169.83 141.91 168.89 141.89 167.74 L 141.87 166.80 C 141.85 165.65 140.90 164.74 139.76 164.76 C 138.61 164.78 137.70 165.73 137.72 166.87 Z M 137.74 167.79 L 137.74 168.79 C 137.74 169.94 138.68 170.87 139.82 170.86 C 140.97 170.86 141.89 169.93 141.89 168.78 L 141.89 167.77 C 141.88 166.63 140.95 165.70 139.80 165.70 C 138.66 165.71 137.73 166.64 137.74 167.79 Z M 137.74 168.79 L 137.74 169.78 C 137.74 170.93 138.67 171.86 139.82 171.86 C 140.96 171.86 141.89 170.93 141.89 169.78 L 141.89 168.79 C 141.89 167.64 140.96 166.71 139.82 166.71 C 138.67 166.71 137.74 167.64 137.74 168.79 Z M 137.74 169.78 L 137.74 170.79 C 137.74 171.94 138.67 172.87 139.82 172.87 C 140.96 172.87 141.89 171.94 141.89 170.79 L 141.89 169.78 C 141.89 168.64 140.96 167.71 139.82 167.71 C 138.67 167.71 137.74 168.64 137.74 169.78 Z M 137.74 170.79 L 137.74 171.79 C 137.74 172.94 138.67 173.87 139.82 173.87 C 140.96 173.87 141.89 172.94 141.89 171.79 L 141.89 170.79 C 141.89 169.65 140.96 168.72 139.82 168.72 C 138.67 168.72 137.74 169.65 137.74 170.79 Z M 137.74 171.79 L 137.74 172.80 C 137.74 173.94 138.67 174.87 139.82 174.87 C 140.96 174.87 141.89 173.94 141.89 172.80 L 141.89 171.79 C 141.89 170.65 140.96 169.71 139.82 169.71 C 138.67 169.71 137.74 170.65 137.74 171.79 Z M 137.73 172.80 L 137.73 173.80 C 137.73 174.95 138.67 175.88 139.82 175.88 C 140.96 175.88 141.90 174.95 141.90 173.80 L 141.90 172.80 C 141.90 171.65 140.96 170.72 139.82 170.72 C 138.67 170.72 137.73 171.65 137.73 172.80 Z M 137.73 173.80 L 137.73 174.80 C 137.73 175.95 138.67 176.88 139.82 176.88 C 140.96 176.88 141.90 175.95 141.90 174.80 L 141.90 173.80 C 141.90 172.65 140.96 171.71 139.82 171.71 C 138.67 171.71 137.73 172.65 137.73 173.80 Z M 137.73 174.80 L 137.73 175.83 C 137.73 176.98 138.66 177.91 139.82 177.91 C 140.97 177.91 141.90 176.98 141.90 175.83 L 141.90 174.80 C 141.90 173.65 140.97 172.71 139.82 172.71 C 138.66 172.71 137.73 173.65 137.73 174.80 Z M 137.73 175.83 L 137.73 176.80 C 137.73 177.95 138.66 178.89 139.82 178.89 C 140.97 178.89 141.90 177.95 141.90 176.80 L 141.90 175.83 C 141.90 174.67 140.97 173.74 139.82 173.74 C 138.66 173.74 137.73 174.67 137.73 175.83 Z M 137.72 176.80 L 137.72 177.76 C 137.72 178.92 138.66 179.86 139.82 179.86 C 140.97 179.86 141.91 178.92 141.91 177.76 L 141.91 176.80 C 141.91 175.64 140.97 174.70 139.82 174.70 C 138.66 174.70 137.72 175.64 137.72 176.80 Z M 137.72 177.76 L 137.72 178.77 C 137.72 179.93 138.66 180.87 139.82 180.87 C 140.97 180.87 141.91 179.93 141.91 178.77 L 141.91 177.76 C 141.91 176.61 140.97 175.67 139.82 175.67 C 138.66 175.67 137.72 176.61 137.72 177.76 Z M 137.72 178.77 L 137.72 179.77 C 137.72 180.93 138.66 181.87 139.82 181.87 C 140.97 181.87 141.91 180.93 141.91 179.77 L 141.91 178.77 C 141.91 177.61 140.97 176.67 139.82 176.67 C 138.66 176.67 137.72 177.61 137.72 178.77 Z M 137.71 179.77 L 137.71 180.81 C 137.71 181.97 138.65 182.91 139.82 182.91 C 140.98 182.91 141.92 181.97 141.92 180.81 L 141.92 179.77 C 141.92 178.61 140.98 177.67 139.82 177.67 C 138.65 177.67 137.71 178.61 137.71 179.77 Z M 137.71 180.91 L 137.77 182.03 C 137.82 183.19 138.80 184.09 139.97 184.03 C 141.13 183.98 142.02 183.00 141.97 181.83 L 141.92 180.71 C 141.86 179.55 140.88 178.65 139.72 178.71 C 138.56 178.76 137.66 179.74 137.71 180.91 Z M 138.04 182.97 L 138.42 183.64 C 138.99 184.66 140.28 185.01 141.29 184.44 C 142.30 183.86 142.65 182.58 142.08 181.57 L 141.70 180.89 C 141.12 179.88 139.84 179.53 138.83 180.10 C 137.82 180.68 137.46 181.96 138.04 182.97 Z M 140.46 184.70 L 141.44 184.60 C 142.59 184.49 143.44 183.45 143.32 182.30 C 143.20 181.14 142.17 180.30 141.01 180.41 L 140.04 180.51 C 138.88 180.63 138.04 181.66 138.15 182.82 C 138.27 183.97 139.30 184.82 140.46 184.70 Z M 142.32 184.30 L 143.15 183.80 C 144.14 183.19 144.45 181.89 143.85 180.90 C 143.24 179.91 141.94 179.60 140.95 180.21 L 140.12 180.71 C 139.13 181.32 138.82 182.62 139.43 183.61 C 140.04 184.60 141.33 184.91 142.32 184.30 Z M 143.43 183.59 L 144.22 182.90 C 145.10 182.14 145.19 180.81 144.43 179.93 C 143.67 179.06 142.34 178.96 141.46 179.73 L 140.67 180.42 C 139.79 181.18 139.70 182.51 140.46 183.38 C 141.23 184.26 142.55 184.35 143.43 183.59 Z M 144.29 182.82 L 144.93 182.21 C 145.76 181.41 145.79 180.08 144.99 179.25 C 144.19 178.42 142.87 178.39 142.04 179.19 L 141.40 179.81 C 140.56 180.60 140.54 181.93 141.34 182.76 C 142.13 183.59 143.46 183.62 144.29 182.82 Z M 144.93 182.17 L 145.65 181.46 C 146.47 180.66 146.48 179.35 145.68 178.54 C 144.88 177.73 143.57 177.72 142.75 178.52 L 142.03 179.23 C 141.22 180.03 141.21 181.34 142.01 182.15 C 142.81 182.96 144.12 182.97 144.93 182.17 Z M 145.64 181.44 L 146.40 180.69 C 147.20 179.90 147.21 178.61 146.42 177.80 C 145.63 177.00 144.34 176.99 143.53 177.78 L 142.77 178.53 C 141.97 179.33 141.96 180.62 142.75 181.42 C 143.54 182.23 144.83 182.24 145.64 181.44 Z M 146.38 180.68 L 147.08 179.99 C 147.88 179.21 147.89 177.94 147.11 177.14 C 146.33 176.34 145.05 176.33 144.26 177.11 L 143.56 177.79 C 142.76 178.57 142.74 179.85 143.52 180.65 C 144.30 181.44 145.58 181.46 146.38 180.68 Z M 147.05 179.98 L 147.80 179.26 C 148.59 178.50 148.61 177.24 147.84 176.45 C 147.07 175.66 145.81 175.64 145.02 176.40 L 144.28 177.12 C 143.49 177.89 143.47 179.15 144.24 179.94 C 145.00 180.73 146.26 180.75 147.05 179.98 Z M 147.77 179.25 L 148.51 178.55 C 149.29 177.79 149.32 176.55 148.57 175.76 C 147.82 174.98 146.57 174.95 145.79 175.70 L 145.05 176.41 C 144.26 177.16 144.24 178.41 144.99 179.19 C 145.74 179.98 146.99 180.01 147.77 179.25 Z M 148.48 178.53 L 149.24 177.81 C 150.02 177.08 150.05 175.85 149.32 175.07 C 148.59 174.30 147.36 174.26 146.59 174.99 L 145.82 175.72 C 145.04 176.45 145.01 177.68 145.74 178.45 C 146.47 179.23 147.70 179.26 148.48 178.53 Z M 149.20 177.79 L 149.94 177.10 C 150.70 176.39 150.75 175.20 150.03 174.43 C 149.32 173.67 148.13 173.62 147.36 174.33 L 146.63 175.02 C 145.86 175.73 145.82 176.92 146.53 177.69 C 147.24 178.45 148.44 178.50 149.20 177.79 Z M 149.90 177.08 L 150.61 176.43 C 151.36 175.74 151.41 174.57 150.72 173.82 C 150.03 173.07 148.86 173.02 148.11 173.71 L 147.40 174.36 C 146.65 175.05 146.60 176.22 147.29 176.97 C 147.98 177.72 149.15 177.77 149.90 177.08 Z M 150.58 176.40 L 150.86 176.15 C 151.60 175.47 151.65 174.32 150.97 173.59 C 150.30 172.85 149.15 172.80 148.41 173.47 L 148.13 173.73 C 147.39 174.41 147.34 175.55 148.02 176.29 C 148.70 177.03 149.84 177.08 150.58 176.40 Z"
      fill="black"
      fill-rule="nonzero" /><path d="M 172.56 156.71 L 171.92 155.81 C 171.22 154.83 169.86 154.61 168.88 155.31 C 167.90 156.01 167.68 157.37 168.38 158.35 L 169.03 159.25 C 169.73 160.22 171.09 160.45 172.07 159.75 C 173.04 159.04 173.27 157.68 172.56 156.71 Z M 171.03 155.07 L 170.34 154.76 C 169.23 154.27 167.93 154.78 167.45 155.89 C 166.96 157.00 167.46 158.29 168.57 158.78 L 169.27 159.09 C 170.38 159.58 171.67 159.07 172.16 157.96 C 172.65 156.85 172.14 155.55 171.03 155.07 Z M 168.11 155.03 L 167.32 155.64 C 166.36 156.39 166.18 157.77 166.92 158.73 C 167.66 159.69 169.05 159.87 170.01 159.13 L 170.80 158.51 C 171.76 157.77 171.94 156.39 171.20 155.43 C 170.46 154.46 169.07 154.29 168.11 155.03 Z M 166.93 156.05 L 166.31 156.86 C 165.58 157.82 165.75 159.19 166.71 159.92 C 167.66 160.66 169.03 160.48 169.77 159.53 L 170.39 158.72 C 171.13 157.76 170.95 156.39 169.99 155.66 C 169.04 154.92 167.67 155.10 166.93 156.05 Z M 166.28 156.97 L 165.69 157.81 C 165.01 158.78 165.25 160.12 166.23 160.80 C 167.20 161.48 168.54 161.24 169.21 160.26 L 169.80 159.42 C 170.48 158.45 170.24 157.11 169.27 156.43 C 168.29 155.75 166.96 155.99 166.28 156.97 Z M 165.73 157.83 L 165.14 158.67 C 164.47 159.62 164.70 160.94 165.65 161.60 C 166.60 162.27 167.91 162.04 168.58 161.09 L 169.18 160.25 C 169.84 159.30 169.61 157.98 168.66 157.31 C 167.71 156.65 166.40 156.88 165.73 157.83 Z M 165.21 158.65 L 164.62 159.45 C 163.94 160.36 164.13 161.64 165.04 162.32 C 165.95 163.00 167.24 162.81 167.92 161.90 L 168.51 161.11 C 169.19 160.20 169.00 158.91 168.09 158.23 C 167.18 157.55 165.89 157.74 165.21 158.65 Z M 164.69 159.43 L 164.08 160.20 C 163.39 161.07 163.54 162.34 164.41 163.02 C 165.29 163.71 166.55 163.56 167.24 162.69 L 167.85 161.92 C 168.53 161.05 168.39 159.78 167.51 159.10 C 166.64 158.41 165.38 158.56 164.69 159.43 Z M 164.14 160.18 L 163.50 160.95 C 162.80 161.79 162.91 163.04 163.75 163.74 C 164.59 164.44 165.84 164.32 166.54 163.48 L 167.18 162.71 C 167.88 161.87 167.77 160.62 166.93 159.92 C 166.09 159.22 164.84 159.34 164.14 160.18 Z M 163.55 160.92 L 162.88 161.68 C 162.17 162.48 162.24 163.72 163.05 164.44 C 163.86 165.15 165.10 165.08 165.81 164.27 L 166.49 163.51 C 167.20 162.70 167.13 161.47 166.32 160.75 C 165.51 160.03 164.27 160.11 163.55 160.92 Z M 162.95 161.63 L 162.25 162.36 C 161.51 163.14 161.54 164.36 162.32 165.10 C 163.09 165.84 164.32 165.81 165.06 165.04 L 165.75 164.31 C 166.49 163.54 166.46 162.31 165.69 161.57 C 164.91 160.83 163.68 160.86 162.95 161.63 Z M 162.32 162.31 L 161.64 162.96 C 160.87 163.70 160.84 164.92 161.58 165.69 C 162.31 166.45 163.53 166.48 164.30 165.75 L 164.98 165.09 C 165.75 164.36 165.78 163.14 165.05 162.37 C 164.31 161.60 163.09 161.57 162.32 162.31 Z M 161.71 162.91 L 160.98 163.54 C 160.18 164.24 160.09 165.45 160.79 166.25 C 161.48 167.05 162.69 167.14 163.49 166.44 L 164.23 165.80 C 165.03 165.11 165.11 163.90 164.42 163.10 C 163.72 162.30 162.51 162.21 161.71 162.91 Z M 160.99 163.50 L 160.14 164.21 C 159.31 164.90 159.20 166.12 159.89 166.95 C 160.57 167.77 161.80 167.88 162.62 167.20 L 163.48 166.48 C 164.30 165.80 164.41 164.57 163.73 163.75 C 163.04 162.93 161.82 162.81 160.99 163.50 Z M 159.95 164.28 L 159.19 165.05 C 158.41 165.84 158.41 167.11 159.20 167.90 C 159.99 168.68 161.27 168.68 162.05 167.89 L 162.81 167.13 C 163.59 166.34 163.59 165.06 162.80 164.28 C 162.01 163.49 160.73 163.49 159.95 164.28 Z M 158.57 165.94 L 158.38 166.67 C 158.09 167.80 158.78 168.95 159.91 169.25 C 161.04 169.54 162.20 168.85 162.49 167.72 L 162.67 166.99 C 162.96 165.86 162.28 164.71 161.15 164.42 C 160.01 164.13 158.86 164.81 158.57 165.94 Z M 158.94 168.83 L 159.62 169.45 C 160.52 170.28 161.92 170.22 162.75 169.31 C 163.58 168.41 163.51 167.01 162.61 166.18 L 161.93 165.56 C 161.03 164.73 159.63 164.79 158.80 165.70 C 157.97 166.60 158.04 168.00 158.94 168.83 Z M 160.09 169.88 L 161.09 170.38 C 162.23 170.94 163.62 170.48 164.18 169.33 C 164.75 168.19 164.28 166.81 163.14 166.25 L 162.14 165.75 C 161.00 165.18 159.61 165.65 159.05 166.79 C 158.48 167.93 158.95 169.32 160.09 169.88 Z M 161.05 170.40 L 161.95 170.86 C 163.10 171.45 164.52 170.99 165.11 169.84 C 165.69 168.68 165.24 167.26 164.08 166.68 L 163.18 166.22 C 162.03 165.63 160.61 166.09 160.02 167.24 C 159.43 168.40 159.89 169.82 161.05 170.40 Z M 161.81 170.80 L 162.62 171.28 C 163.74 171.94 165.19 171.57 165.85 170.45 C 166.51 169.32 166.14 167.88 165.02 167.22 L 164.21 166.74 C 163.09 166.08 161.65 166.45 160.98 167.57 C 160.32 168.69 160.69 170.14 161.81 170.80 Z M 162.50 171.21 L 163.33 171.77 C 164.42 172.49 165.89 172.20 166.62 171.12 C 167.34 170.03 167.05 168.56 165.97 167.84 L 165.14 167.28 C 164.05 166.55 162.58 166.84 161.85 167.93 C 161.13 169.02 161.42 170.49 162.50 171.21 Z M 163.25 171.71 L 164.06 172.31 C 165.12 173.09 166.60 172.86 167.38 171.81 C 168.15 170.75 167.93 169.27 166.87 168.49 L 166.06 167.89 C 165.00 167.11 163.52 167.34 162.74 168.40 C 161.96 169.45 162.19 170.94 163.25 171.71 Z M 164.00 172.26 L 164.78 172.89 C 165.81 173.70 167.30 173.52 168.12 172.49 C 168.93 171.47 168.75 169.97 167.73 169.16 L 166.94 168.54 C 165.91 167.73 164.42 167.90 163.60 168.93 C 162.79 169.96 162.97 171.45 164.00 172.26 Z M 164.73 172.85 L 165.51 173.49 C 166.52 174.33 168.01 174.20 168.85 173.19 C 169.69 172.18 169.56 170.69 168.55 169.85 L 167.77 169.20 C 166.77 168.36 165.27 168.50 164.43 169.50 C 163.59 170.51 163.73 172.01 164.73 172.85 Z M 165.47 173.45 L 166.22 174.11 C 167.20 174.98 168.70 174.88 169.56 173.90 C 170.43 172.91 170.33 171.41 169.35 170.55 L 168.59 169.89 C 167.61 169.03 166.11 169.12 165.25 170.11 C 164.38 171.09 164.48 172.59 165.47 173.45 Z M 166.17 174.06 L 166.90 174.74 C 167.85 175.63 169.35 175.58 170.24 174.62 C 171.13 173.66 171.08 172.17 170.12 171.28 L 169.39 170.60 C 168.44 169.71 166.94 169.76 166.05 170.72 C 165.16 171.68 165.21 173.17 166.17 174.06 Z M 166.85 174.68 L 167.56 175.38 C 168.48 176.29 169.97 176.29 170.89 175.36 C 171.80 174.44 171.79 172.95 170.87 172.03 L 170.17 171.34 C 169.24 170.42 167.75 170.43 166.84 171.35 C 165.92 172.27 165.93 173.76 166.85 174.68 Z M 167.52 175.32 L 168.22 176.05 C 169.11 176.99 170.59 177.02 171.53 176.13 C 172.46 175.24 172.50 173.76 171.61 172.83 L 170.91 172.09 C 170.02 171.16 168.54 171.12 167.60 172.01 C 166.67 172.90 166.63 174.38 167.52 175.32 Z M 168.20 176.01 L 168.88 176.76 C 169.75 177.70 171.22 177.77 172.16 176.91 C 173.11 176.04 173.18 174.57 172.31 173.63 L 171.63 172.87 C 170.76 171.93 169.30 171.86 168.35 172.72 C 167.40 173.59 167.33 175.06 168.20 176.01 Z M 168.88 176.73 L 169.54 177.47 C 170.38 178.42 171.84 178.50 172.79 177.65 C 173.74 176.80 173.83 175.34 172.98 174.39 L 172.32 173.65 C 171.47 172.70 170.01 172.62 169.06 173.47 C 168.11 174.32 168.03 175.78 168.88 176.73 Z M 169.55 177.44 L 170.23 178.22 C 171.07 179.16 172.51 179.25 173.45 178.42 C 174.40 177.58 174.49 176.14 173.65 175.20 L 172.97 174.42 C 172.13 173.47 170.69 173.38 169.75 174.22 C 168.80 175.05 168.71 176.50 169.55 177.44 Z M 170.24 178.17 L 170.87 178.89 C 171.68 179.83 173.09 179.93 174.03 179.12 C 174.97 178.31 175.07 176.89 174.26 175.96 L 173.64 175.24 C 172.83 174.30 171.41 174.20 170.47 175.01 C 169.54 175.82 169.43 177.24 170.24 178.17 Z M 170.88 178.84 L 171.52 179.59 C 172.30 180.52 173.69 180.64 174.61 179.86 C 175.54 179.07 175.66 177.69 174.88 176.76 L 174.25 176.01 C 173.46 175.08 172.08 174.96 171.15 175.74 C 170.22 176.53 170.10 177.91 170.88 178.84 Z M 171.55 179.56 L 172.19 180.32 C 172.95 181.22 174.31 181.34 175.22 180.58 C 176.13 179.81 176.24 178.46 175.48 177.55 L 174.84 176.79 C 174.08 175.88 172.72 175.77 171.81 176.53 C 170.91 177.29 170.79 178.65 171.55 179.56 Z M 172.23 180.29 L 172.88 181.06 C 173.63 181.95 174.96 182.06 175.85 181.31 C 176.73 180.56 176.85 179.23 176.09 178.35 L 175.44 177.57 C 174.69 176.69 173.36 176.57 172.47 177.33 C 171.59 178.08 171.48 179.40 172.23 180.29 Z M 172.91 181.05 L 173.23 181.43 C 173.97 182.30 175.28 182.41 176.15 181.67 C 177.03 180.93 177.13 179.62 176.39 178.75 L 176.07 178.36 C 175.33 177.49 174.02 177.38 173.15 178.12 C 172.27 178.86 172.17 180.17 172.91 181.05 Z"
      fill="black"
      fill-rule="nonzero" /></svg>