<svg xmlns="http://www.w3.org/2000/svg" width="300" height="300" viewBox="0 0 300 300">
<path d="M 123.06 137.53 L 123.33 138.55 C 123.59 139.57 124.63 140.18 125.65 139.92 C 126.67 139.66 127.28 138.62 127.02 137.60 L 126.76 136.58 C 126.50 135.56 125.46 134.94 124.44 135.21 C 123.42 135.47 122.80 136.51 123.06 137.53 Z M 123.26 138.55 L 123.50 139.53 C 123.77 140.58 124.84 141.22 125.89 140.96 C 126.95 140.70 127.59 139.63 127.33 138.57 L 127.09 137.60 C 126.82 136.54 125.75 135.90 124.70 136.16 C 123.64 136.43 123.00 137.50 123.26 138.55 Z M 123.44 139.51 L 123.66 140.45 C 123.92 141.54 125.00 142.22 126.09 141.96 C 127.18 141.71 127.86 140.62 127.61 139.53 L 127.39 138.59 C 127.14 137.50 126.05 136.83 124.96 137.08 C 123.87 137.33 123.19 138.42 123.44 139.51 Z M 123.62 140.39 L 123.82 141.38 C 124.04 142.49 125.12 143.21 126.23 142.99 C 127.34 142.77 128.06 141.69 127.84 140.58 L 127.65 139.59 C 127.43 138.48 126.35 137.76 125.24 137.98 C 124.13 138.20 123.40 139.28 123.62 140.39 Z M 123.80 141.30 L 123.95 142.25 C 124.13 143.37 125.18 144.13 126.30 143.95 C 127.42 143.78 128.19 142.73 128.01 141.60 L 127.86 140.66 C 127.68 139.54 126.63 138.77 125.51 138.95 C 124.39 139.13 123.63 140.18 123.80 141.30 Z M 123.94 142.19 L 124.06 143.15 C 124.21 144.27 125.24 145.07 126.37 144.92 C 127.49 144.78 128.29 143.75 128.14 142.62 L 128.02 141.66 C 127.87 140.54 126.84 139.74 125.72 139.89 C 124.59 140.03 123.80 141.06 123.94 142.19 Z M 124.06 143.11 L 124.17 144.14 C 124.30 145.27 125.32 146.08 126.45 145.96 C 127.58 145.83 128.39 144.81 128.27 143.68 L 128.15 142.65 C 128.02 141.52 127.00 140.71 125.87 140.84 C 124.74 140.96 123.93 141.98 124.06 143.11 Z M 124.17 144.13 L 124.27 145.10 C 124.39 146.23 125.41 147.05 126.54 146.93 C 127.67 146.81 128.49 145.80 128.37 144.67 L 128.27 143.69 C 128.15 142.56 127.14 141.74 126.00 141.86 C 124.87 141.98 124.05 142.99 124.17 144.13 Z M 124.27 145.08 L 124.37 146.08 C 124.48 147.21 125.49 148.04 126.62 147.93 C 127.75 147.82 128.58 146.81 128.47 145.68 L 128.38 144.68 C 128.27 143.55 127.26 142.72 126.12 142.83 C 124.99 142.94 124.16 143.95 124.27 145.08 Z M 124.37 146.05 L 124.45 147.07 C 124.55 148.20 125.55 149.04 126.68 148.95 C 127.82 148.85 128.66 147.85 128.56 146.72 L 128.48 145.70 C 128.38 144.57 127.38 143.73 126.24 143.82 C 125.11 143.92 124.27 144.92 124.37 146.05 Z M 124.45 147.04 L 124.52 148.00 C 124.60 149.14 125.59 149.99 126.73 149.91 C 127.86 149.83 128.72 148.84 128.63 147.70 L 128.56 146.74 C 128.48 145.61 127.49 144.75 126.36 144.84 C 125.22 144.92 124.37 145.91 124.45 147.04 Z M 124.52 147.98 L 124.58 148.99 C 124.65 150.13 125.63 150.99 126.77 150.92 C 127.91 150.85 128.77 149.87 128.70 148.73 L 128.64 147.73 C 128.57 146.59 127.59 145.72 126.45 145.80 C 125.31 145.87 124.45 146.85 124.52 147.98 Z M 124.58 148.97 L 124.64 150.00 C 124.70 151.14 125.67 152.01 126.80 151.95 C 127.94 151.89 128.82 150.92 128.75 149.78 L 128.70 148.75 C 128.64 147.62 127.67 146.74 126.53 146.80 C 125.39 146.86 124.52 147.83 124.58 148.97 Z M 124.64 149.98 L 124.68 150.96 C 124.73 152.10 125.70 152.98 126.83 152.93 C 127.97 152.87 128.85 151.91 128.80 150.77 L 128.76 149.79 C 128.70 148.66 127.74 147.78 126.60 147.83 C 125.46 147.88 124.58 148.84 124.64 149.98 Z M 124.68 150.95 L 124.72 151.96 C 124.76 153.09 125.72 153.98 126.86 153.93 C 128.00 153.89 128.88 152.93 128.84 151.79 L 128.80 150.79 C 128.76 149.65 127.80 148.76 126.66 148.81 C 125.52 148.85 124.64 149.81 124.68 150.95 Z M 124.72 151.94 L 124.75 152.96 C 124.79 154.10 125.74 154.99 126.88 154.96 C 128.02 154.92 128.91 153.97 128.87 152.83 L 128.84 151.81 C 128.80 150.67 127.85 149.78 126.71 149.81 C 125.57 149.85 124.68 150.80 124.72 151.94 Z M 124.75 152.95 L 124.78 153.95 C 124.81 155.08 125.76 155.98 126.89 155.95 C 128.03 155.92 128.93 154.98 128.90 153.84 L 128.87 152.84 C 128.84 151.70 127.90 150.81 126.76 150.84 C 125.62 150.87 124.72 151.81 124.75 152.95 Z M 124.78 153.93 L 124.80 154.93 C 124.82 156.07 125.76 156.97 126.90 156.95 C 128.04 156.93 128.94 155.98 128.92 154.85 L 128.90 153.85 C 128.88 152.71 127.94 151.81 126.80 151.83 C 125.66 151.85 124.76 152.80 124.78 153.93 Z M 124.80 154.92 L 124.81 155.92 C 124.83 157.06 125.77 157.97 126.90 157.95 C 128.04 157.94 128.95 157.00 128.93 155.86 L 128.92 154.86 C 128.90 153.72 127.97 152.81 126.83 152.83 C 125.69 152.84 124.78 153.78 124.80 154.92 Z M 124.81 155.91 L 124.82 156.91 C 124.83 158.05 125.76 158.96 126.90 158.95 C 128.04 158.94 128.95 158.01 128.94 156.88 L 128.93 155.87 C 128.92 154.74 127.99 153.82 126.86 153.83 C 125.72 153.84 124.80 154.77 124.81 155.91 Z M 124.83 156.90 L 124.83 157.90 C 124.84 159.04 125.76 159.96 126.90 159.95 C 128.03 159.95 128.95 159.02 128.95 157.88 L 128.94 156.88 C 128.94 155.75 128.01 154.83 126.87 154.84 C 125.74 154.84 124.82 155.77 124.83 156.90 Z M 124.83 157.90 L 124.83 158.90 C 124.84 160.03 125.76 160.95 126.89 160.95 C 128.03 160.95 128.95 160.03 128.94 158.89 L 128.94 157.89 C 128.94 156.76 128.02 155.84 126.88 155.84 C 125.75 155.84 124.83 156.76 124.83 157.90 Z M 124.84 158.90 L 124.84 159.90 C 124.84 161.03 125.76 161.95 126.89 161.95 C 128.02 161.95 128.94 161.03 128.94 159.90 L 128.94 158.90 C 128.94 157.76 128.02 156.84 126.89 156.84 C 125.76 156.84 124.84 157.76 124.84 158.90 Z M 124.84 159.90 L 124.84 160.91 C 124.84 162.04 125.76 162.96 126.89 162.96 C 128.02 162.96 128.94 162.04 128.94 160.91 L 128.94 159.90 C 128.94 158.77 128.02 157.85 126.89 157.85 C 125.76 157.85 124.84 158.77 124.84 159.90 Z M 124.84 160.91 L 124.84 161.91 C 124.84 163.04 125.76 163.96 126.89 163.96 C 128.02 163.96 128.94 163.04 128.94 161.91 L 128.94 160.91 C 128.94 159.78 128.02 158.86 126.89 158.86 C 125.76 158.86 124.84 159.78 124.84 160.91 Z M 124.85 161.91 L 124.85 162.91 C 124.85 164.03 125.76 164.95 126.89 164.95 C 128.02 164.95 128.93 164.03 128.93 162.91 L 128.93 161.91 C 128.93 160.78 128.02 159.87 126.89 159.87 C 125.76 159.87 124.85 160.78 124.85 161.91 Z M 124.85 162.91 L 124.85 163.91 C 124.85 165.04 125.76 165.95 126.89 165.95 C 128.02 165.95 128.93 165.04 128.93 163.91 L 128.93 162.91 C 128.93 161.78 128.02 160.87 126.89 160.87 C 125.76 160.87 124.85 161.78 124.85 162.91 Z M 124.85 163.91 L 124.85 164.93 C 124.85 166.05 125.77 166.97 126.89 166.97 C 128.01 166.97 128.93 166.05 128.93 164.93 L 128.93 163.91 C 128.93 162.79 128.01 161.88 126.89 161.88 C 125.77 161.88 124.85 162.79 124.85 163.91 Z M 124.86 164.93 L 124.86 165.92 C 124.86 167.05 125.77 167.95 126.89 167.95 C 128.01 167.95 128.92 167.05 128.92 165.92 L 128.92 164.93 C 128.92 163.81 128.01 162.90 126.89 162.90 C 125.77 162.90 124.86 163.81 124.86 164.93 Z M 124.86 165.92 L 124.86 166.90 C 124.86 168.02 125.77 168.93 126.89 168.93 C 128.01 168.93 128.92 168.02 128.92 166.90 L 128.92 165.92 C 128.92 164.80 128.01 163.90 126.89 163.90 C 125.77 163.90 124.86 164.80 124.86 165.92 Z M 124.87 166.90 L 124.87 167.91 C 124.86 169.03 125.77 169.94 126.88 169.94 C 128.00 169.94 128.91 169.04 128.91 167.92 L 128.91 166.91 C 128.91 165.79 128.01 164.88 126.89 164.88 C 125.78 164.88 124.87 165.78 124.87 166.90 Z M 124.87 167.89 L 124.86 168.89 C 124.85 170.00 125.74 170.91 126.86 170.93 C 127.97 170.94 128.88 170.04 128.89 168.93 L 128.91 167.94 C 128.92 166.82 128.02 165.91 126.91 165.90 C 125.80 165.89 124.88 166.78 124.87 167.89 Z M 124.87 168.86 L 124.84 169.84 C 124.81 170.95 125.69 171.88 126.80 171.90 C 127.91 171.93 128.83 171.06 128.86 169.95 L 128.89 168.96 C 128.92 167.85 128.04 166.93 126.93 166.90 C 125.82 166.87 124.90 167.74 124.87 168.86 Z M 124.85 169.80 L 124.80 170.78 C 124.75 171.89 125.61 172.82 126.71 172.88 C 127.82 172.93 128.76 172.07 128.81 170.97 L 128.85 169.99 C 128.91 168.88 128.05 167.94 126.94 167.89 C 125.84 167.84 124.90 168.69 124.85 169.80 Z M 124.81 170.75 L 124.75 171.74 C 124.68 172.84 125.51 173.79 126.61 173.86 C 127.71 173.93 128.66 173.10 128.73 172.00 L 128.80 171.00 C 128.87 169.90 128.03 168.95 126.93 168.88 C 125.83 168.81 124.88 169.65 124.81 170.75 Z M 124.76 171.72 L 124.68 172.74 C 124.60 173.83 125.42 174.79 126.51 174.87 C 127.60 174.96 128.56 174.14 128.64 173.05 L 128.72 172.02 C 128.81 170.93 127.99 169.97 126.90 169.89 C 125.80 169.81 124.85 170.62 124.76 171.72 Z M 124.69 172.72 L 124.60 173.77 C 124.51 174.85 125.31 175.81 126.40 175.91 C 127.49 176.00 128.45 175.20 128.54 174.11 L 128.63 173.07 C 128.73 171.98 127.92 171.02 126.83 170.92 C 125.75 170.83 124.79 171.63 124.69 172.72 Z M 124.61 173.76 L 124.52 174.77 C 124.41 175.85 125.21 176.81 126.29 176.91 C 127.38 177.02 128.34 176.22 128.44 175.14 L 128.53 174.12 C 128.63 173.04 127.84 172.08 126.75 171.98 C 125.67 171.88 124.71 172.67 124.61 173.76 Z M 124.52 174.76 L 124.43 175.69 C 124.33 176.77 125.12 177.73 126.20 177.83 C 127.27 177.94 128.23 177.15 128.34 176.07 L 128.43 175.14 C 128.53 174.07 127.74 173.11 126.67 173.00 C 125.59 172.90 124.63 173.69 124.52 174.76 Z M 124.46 175.64 L 124.31 176.88 C 124.18 177.94 124.94 178.90 126.00 179.04 C 127.06 179.17 128.03 178.41 128.16 177.35 L 128.31 176.12 C 128.44 175.05 127.68 174.09 126.62 173.96 C 125.56 173.83 124.59 174.58 124.46 175.64 Z M 127.80 176.04 L 127.68 175.87 C 127.09 175.00 125.91 174.77 125.04 175.37 C 124.18 175.96 123.95 177.14 124.54 178.00 L 124.66 178.18 C 125.25 179.05 126.44 179.27 127.30 178.68 C 128.17 178.09 128.39 176.91 127.80 176.04 Z M 127.97 176.74 L 127.87 175.83 C 127.76 174.81 126.85 174.07 125.82 174.18 C 124.80 174.28 124.06 175.20 124.17 176.22 L 124.26 177.13 C 124.37 178.15 125.29 178.90 126.31 178.79 C 127.33 178.68 128.07 177.76 127.97 176.74 Z M 127.84 175.89 L 127.74 174.63 C 127.66 173.62 126.78 172.87 125.77 172.95 C 124.77 173.03 124.02 173.91 124.10 174.91 L 124.20 176.17 C 124.28 177.18 125.16 177.93 126.16 177.85 C 127.17 177.77 127.92 176.89 127.84 175.89 Z M 127.72 174.64 L 127.70 174.41 C 127.63 173.41 126.76 172.66 125.77 172.74 C 124.77 172.81 124.03 173.68 124.10 174.68 L 124.12 174.91 C 124.19 175.90 125.06 176.65 126.05 176.57 C 127.05 176.50 127.79 175.63 127.72 174.64 Z"
      fill="black"
      fill-rule="nonzero" /><path d="M 126.96 140.28 L 126.61 139.33 C 126.24 138.35 125.14 137.85 124.16 138.22 C 123.17 138.59 122.67 139.68 123.04 140.67 L 123.39 141.61 C 123.76 142.59 124.86 143.09 125.84 142.73 C 126.83 142.36 127.33 141.26 126.96 140.28 Z M 126.69 139.62 L 126.50 138.65 C 126.29 137.62 125.28 136.95 124.25 137.16 C 123.22 137.37 122.55 138.38 122.76 139.41 L 122.95 140.38 C 123.16 141.41 124.17 142.08 125.20 141.87 C 126.23 141.66 126.90 140.65 126.69 139.62 Z M 126.53 139.30 L 126.67 138.31 C 126.81 137.26 126.08 136.29 125.03 136.15 C 123.98 136.00 123.01 136.73 122.86 137.78 L 122.72 138.77 C 122.58 139.82 123.31 140.79 124.36 140.93 C 125.41 141.08 126.38 140.35 126.53 139.30 Z M 126.42 139.06 L 126.93 138.23 C 127.49 137.31 127.20 136.12 126.28 135.56 C 125.37 135.00 124.17 135.29 123.62 136.21 L 123.11 137.04 C 122.55 137.95 122.84 139.15 123.75 139.71 C 124.67 140.26 125.86 139.97 126.42 139.06 Z M 126.65 138.61 L 127.37 137.89 C 128.14 137.13 128.15 135.89 127.39 135.12 C 126.64 134.35 125.40 134.35 124.63 135.10 L 123.90 135.82 C 123.13 136.58 123.12 137.82 123.88 138.59 C 124.64 139.36 125.88 139.37 126.65 138.61 Z M 127.11 138.12 L 127.93 137.56 C 128.83 136.95 129.06 135.72 128.45 134.83 C 127.83 133.93 126.61 133.70 125.71 134.31 L 124.89 134.87 C 123.99 135.49 123.76 136.71 124.38 137.61 C 124.99 138.51 126.21 138.74 127.11 138.12 Z M 127.61 137.74 L 128.51 137.35 C 129.51 136.91 129.97 135.75 129.53 134.75 C 129.09 133.75 127.93 133.30 126.93 133.73 L 126.03 134.13 C 125.03 134.56 124.58 135.73 125.01 136.73 C 125.45 137.73 126.61 138.18 127.61 137.74 Z M 128.21 137.46 L 129.19 137.21 C 130.25 136.94 130.89 135.86 130.62 134.80 C 130.34 133.74 129.26 133.10 128.20 133.37 L 127.23 133.62 C 126.17 133.90 125.53 134.98 125.80 136.04 C 126.07 137.10 127.15 137.73 128.21 137.46 Z M 128.96 137.26 L 129.94 137.13 C 131.02 136.98 131.79 135.98 131.64 134.89 C 131.49 133.81 130.49 133.04 129.40 133.19 L 128.43 133.32 C 127.34 133.47 126.58 134.47 126.73 135.56 C 126.88 136.65 127.88 137.41 128.96 137.26 Z M 129.79 137.15 L 130.81 137.08 C 131.90 137.02 132.74 136.08 132.67 134.98 C 132.61 133.88 131.66 133.05 130.57 133.11 L 129.55 133.17 C 128.45 133.24 127.62 134.18 127.68 135.28 C 127.75 136.38 128.69 137.21 129.79 137.15 Z M 130.71 137.09 L 131.70 137.08 C 132.80 137.07 133.68 136.17 133.67 135.07 C 133.66 133.97 132.76 133.09 131.66 133.10 L 130.66 133.11 C 129.57 133.12 128.68 134.02 128.70 135.12 C 128.71 136.22 129.61 137.10 130.71 137.09 Z M 131.50 137.07 L 132.51 137.16 C 133.60 137.26 134.57 136.45 134.67 135.36 C 134.77 134.26 133.96 133.29 132.86 133.19 L 131.86 133.10 C 130.76 133.01 129.80 133.81 129.70 134.91 C 129.60 136.01 130.41 136.97 131.50 137.07 Z M 132.17 137.10 L 133.12 137.35 C 134.18 137.64 135.27 137.01 135.56 135.94 C 135.84 134.88 135.21 133.79 134.14 133.51 L 133.20 133.25 C 132.13 132.97 131.04 133.60 130.76 134.67 C 130.48 135.73 131.11 136.82 132.17 137.10 Z M 132.78 137.23 L 133.68 137.66 C 134.67 138.13 135.86 137.71 136.33 136.71 C 136.81 135.72 136.38 134.53 135.39 134.06 L 134.49 133.63 C 133.49 133.16 132.30 133.58 131.83 134.58 C 131.36 135.57 131.78 136.76 132.78 137.23 Z M 133.41 137.50 L 134.22 138.06 C 135.12 138.68 136.36 138.45 136.99 137.55 C 137.61 136.64 137.38 135.40 136.48 134.78 L 135.66 134.22 C 134.76 133.60 133.52 133.82 132.89 134.73 C 132.27 135.64 132.50 136.88 133.41 137.50 Z M 134.01 137.90 L 134.73 138.55 C 135.55 139.29 136.81 139.23 137.55 138.41 C 138.29 137.60 138.23 136.34 137.41 135.60 L 136.69 134.94 C 135.87 134.20 134.61 134.27 133.87 135.08 C 133.13 135.90 133.19 137.16 134.01 137.90 Z M 134.57 138.39 L 135.26 139.18 C 135.99 140.01 137.25 140.09 138.08 139.37 C 138.90 138.64 138.99 137.38 138.26 136.55 L 137.57 135.76 C 136.85 134.93 135.59 134.85 134.76 135.58 C 133.93 136.30 133.85 137.56 134.57 138.39 Z M 135.14 139.03 L 135.74 139.87 C 136.38 140.77 137.63 140.98 138.53 140.33 C 139.42 139.69 139.63 138.45 138.99 137.55 L 138.39 136.70 C 137.75 135.81 136.50 135.60 135.60 136.24 C 134.71 136.88 134.50 138.13 135.14 139.03 Z M 135.66 139.75 L 136.19 140.62 C 136.77 141.56 137.99 141.86 138.94 141.29 C 139.88 140.72 140.18 139.49 139.60 138.55 L 139.07 137.67 C 138.50 136.73 137.27 136.43 136.33 137.01 C 135.39 137.58 135.09 138.81 135.66 139.75 Z M 136.12 140.50 L 136.57 141.37 C 137.08 142.35 138.28 142.73 139.26 142.23 C 140.24 141.72 140.63 140.52 140.12 139.54 L 139.67 138.67 C 139.17 137.69 137.96 137.30 136.98 137.81 C 136.00 138.31 135.62 139.52 136.12 140.50 Z M 136.49 141.19 L 136.87 142.15 C 137.28 143.17 138.44 143.67 139.47 143.26 C 140.49 142.85 140.99 141.69 140.58 140.66 L 140.20 139.71 C 139.79 138.69 138.63 138.19 137.60 138.60 C 136.58 139.01 136.08 140.17 136.49 141.19 Z M 136.81 141.96 L 137.06 142.85 C 137.37 143.91 138.47 144.53 139.53 144.22 C 140.60 143.92 141.21 142.81 140.91 141.75 L 140.65 140.86 C 140.35 139.79 139.24 139.18 138.18 139.48 C 137.11 139.79 136.50 140.90 136.81 141.96 Z M 137.03 142.74 L 137.25 143.71 C 137.50 144.78 138.57 145.46 139.64 145.21 C 140.72 144.97 141.40 143.90 141.15 142.82 L 140.93 141.86 C 140.69 140.78 139.62 140.10 138.54 140.35 C 137.46 140.59 136.79 141.66 137.03 142.74 Z M 137.23 143.61 L 137.41 144.61 C 137.60 145.69 138.64 146.42 139.73 146.23 C 140.82 146.03 141.54 144.99 141.35 143.90 L 141.17 142.91 C 140.98 141.82 139.94 141.10 138.85 141.29 C 137.76 141.49 137.04 142.53 137.23 143.61 Z M 137.39 144.53 L 137.53 145.51 C 137.68 146.61 138.70 147.37 139.79 147.22 C 140.89 147.07 141.65 146.05 141.50 144.96 L 141.36 143.98 C 141.21 142.88 140.20 142.12 139.10 142.27 C 138.01 142.42 137.24 143.43 137.39 144.53 Z M 137.52 145.46 L 137.64 146.47 C 137.76 147.57 138.75 148.36 139.85 148.23 C 140.95 148.11 141.75 147.12 141.62 146.02 L 141.51 145.01 C 141.39 143.91 140.39 143.12 139.29 143.24 C 138.19 143.36 137.40 144.36 137.52 145.46 Z M 137.63 146.42 L 137.72 147.41 C 137.82 148.51 138.80 149.32 139.90 149.22 C 141.01 149.12 141.82 148.14 141.72 147.04 L 141.63 146.06 C 141.53 144.95 140.55 144.14 139.45 144.24 C 138.34 144.34 137.53 145.32 137.63 146.42 Z M 137.71 147.36 L 137.79 148.38 C 137.86 149.49 138.82 150.32 139.93 150.25 C 141.03 150.17 141.87 149.21 141.79 148.10 L 141.72 147.09 C 141.65 145.98 140.69 145.14 139.58 145.22 C 138.47 145.30 137.64 146.26 137.71 147.36 Z M 137.78 148.33 L 137.83 149.30 C 137.88 150.41 138.82 151.27 139.92 151.22 C 141.03 151.17 141.89 150.23 141.84 149.12 L 141.80 148.15 C 141.75 147.04 140.81 146.18 139.70 146.23 C 138.59 146.29 137.73 147.23 137.78 148.33 Z M 137.82 149.27 L 137.85 150.28 C 137.89 151.39 138.81 152.26 139.92 152.23 C 141.03 152.19 141.91 151.27 141.87 150.16 L 141.84 149.15 C 141.81 148.04 140.88 147.17 139.77 147.20 C 138.66 147.23 137.79 148.16 137.82 149.27 Z M 137.85 150.26 L 137.88 151.28 C 137.90 152.39 138.82 153.27 139.94 153.24 C 141.05 153.22 141.93 152.30 141.90 151.19 L 141.88 150.17 C 141.85 149.06 140.93 148.18 139.82 148.20 C 138.70 148.23 137.83 149.15 137.85 150.26 Z M 137.88 151.28 L 137.90 152.28 C 137.92 153.39 138.84 154.27 139.95 154.25 C 141.06 154.22 141.94 153.30 141.92 152.19 L 141.90 151.19 C 141.88 150.08 140.96 149.20 139.85 149.22 C 138.73 149.24 137.85 150.16 137.88 151.28 Z M 137.90 152.27 L 137.91 153.28 C 137.93 154.39 138.85 155.28 139.96 155.26 C 141.07 155.24 141.96 154.32 141.94 153.21 L 141.92 152.20 C 141.90 151.09 140.99 150.20 139.88 150.22 C 138.76 150.24 137.88 151.16 137.90 152.27 Z M 137.91 153.26 L 137.92 154.28 C 137.93 155.40 138.84 156.29 139.96 156.28 C 141.07 156.27 141.96 155.36 141.95 154.24 L 141.94 153.22 C 141.93 152.11 141.02 151.22 139.91 151.23 C 138.79 151.24 137.90 152.15 137.91 153.26 Z M 137.92 154.27 L 137.92 155.27 C 137.92 156.38 138.83 157.28 139.94 157.28 C 141.05 157.28 141.95 156.37 141.95 155.26 L 141.95 154.26 C 141.95 153.15 141.05 152.25 139.93 152.25 C 138.82 152.25 137.92 153.15 137.92 154.27 Z M 137.92 155.25 L 137.91 156.23 C 137.90 157.34 138.80 158.25 139.91 158.26 C 141.03 158.27 141.93 157.37 141.94 156.26 L 141.95 155.28 C 141.96 154.17 141.07 153.26 139.95 153.25 C 138.84 153.24 137.93 154.13 137.92 155.25 Z M 137.91 156.20 L 137.89 157.21 C 137.87 158.32 138.75 159.25 139.87 159.27 C 140.98 159.29 141.90 158.41 141.92 157.29 L 141.94 156.28 C 141.97 155.17 141.08 154.25 139.97 154.23 C 138.86 154.21 137.94 155.09 137.91 156.20 Z M 137.89 157.16 L 137.85 158.16 C 137.80 159.27 138.66 160.21 139.77 160.26 C 140.89 160.31 141.83 159.45 141.88 158.34 L 141.92 157.34 C 141.97 156.23 141.11 155.29 140.00 155.24 C 138.89 155.19 137.94 156.05 137.89 157.16 Z M 137.85 158.08 L 137.77 159.08 C 137.68 160.19 138.50 161.17 139.61 161.26 C 140.72 161.35 141.70 160.53 141.79 159.42 L 141.87 158.41 C 141.97 157.30 141.14 156.33 140.03 156.24 C 138.92 156.15 137.95 156.97 137.85 158.08 Z M 137.78 159.00 L 137.66 160.00 C 137.52 161.11 138.31 162.11 139.41 162.25 C 140.52 162.38 141.53 161.60 141.66 160.49 L 141.78 159.50 C 141.92 158.39 141.13 157.38 140.03 157.25 C 138.92 157.11 137.91 157.90 137.78 159.00 Z M 137.66 159.94 L 137.51 160.92 C 137.35 162.02 138.10 163.05 139.21 163.22 C 140.31 163.39 141.34 162.63 141.51 161.53 L 141.66 160.55 C 141.82 159.45 141.06 158.42 139.96 158.25 C 138.86 158.08 137.83 158.84 137.66 159.94 Z M 137.52 160.88 L 137.34 161.88 C 137.15 162.98 137.89 164.03 138.99 164.22 C 140.09 164.41 141.14 163.67 141.33 162.57 L 141.50 161.57 C 141.69 160.47 140.96 159.43 139.86 159.23 C 138.76 159.04 137.71 159.78 137.52 160.88 Z M 137.35 161.84 L 137.16 162.80 C 136.95 163.90 137.66 164.96 138.76 165.17 C 139.86 165.39 140.92 164.67 141.13 163.58 L 141.32 162.62 C 141.54 161.52 140.82 160.45 139.72 160.24 C 138.63 160.03 137.56 160.74 137.35 161.84 Z M 137.17 162.76 L 136.95 163.75 C 136.72 164.84 137.41 165.92 138.51 166.16 C 139.60 166.39 140.68 165.70 140.91 164.60 L 141.13 163.61 C 141.36 162.52 140.67 161.44 139.58 161.21 C 138.48 160.97 137.40 161.67 137.17 162.76 Z M 136.96 163.74 L 136.74 164.70 C 136.50 165.80 137.19 166.88 138.28 167.12 C 139.38 167.36 140.46 166.67 140.70 165.58 L 140.91 164.61 C 141.15 163.52 140.46 162.44 139.37 162.20 C 138.28 161.96 137.20 162.65 136.96 163.74 Z M 136.74 164.72 L 136.53 165.68 C 136.30 166.78 137.00 167.86 138.10 168.09 C 139.19 168.32 140.27 167.62 140.50 166.52 L 140.70 165.56 C 140.94 164.47 140.24 163.39 139.14 163.16 C 138.05 162.93 136.97 163.63 136.74 164.72 Z M 136.54 165.66 L 136.32 166.64 C 136.07 167.73 136.76 168.82 137.85 169.06 C 138.94 169.31 140.02 168.63 140.27 167.53 L 140.49 166.55 C 140.74 165.46 140.06 164.37 138.96 164.13 C 137.87 163.88 136.79 164.56 136.54 165.66 Z M 136.34 166.56 L 136.07 167.54 C 135.78 168.62 136.42 169.73 137.50 170.02 C 138.58 170.32 139.69 169.68 139.99 168.60 L 140.25 167.62 C 140.54 166.54 139.91 165.42 138.82 165.13 C 137.74 164.84 136.63 165.48 136.34 166.56 Z M 136.11 167.43 L 135.79 168.38 C 135.43 169.44 136.01 170.59 137.07 170.94 C 138.13 171.30 139.28 170.72 139.63 169.66 L 139.95 168.71 C 140.31 167.65 139.73 166.50 138.67 166.15 C 137.61 165.79 136.46 166.36 136.11 167.43 Z M 135.87 168.16 L 135.39 169.21 C 134.92 170.23 135.36 171.43 136.37 171.90 C 137.39 172.37 138.59 171.93 139.06 170.92 L 139.55 169.87 C 140.02 168.86 139.58 167.65 138.57 167.18 C 137.55 166.71 136.35 167.15 135.87 168.16 Z M 136.33 168.26 L 135.79 168.52 C 134.79 169.02 134.38 170.23 134.88 171.23 C 135.37 172.22 136.58 172.63 137.58 172.14 L 138.12 171.87 C 139.12 171.38 139.53 170.17 139.03 169.17 C 138.54 168.17 137.33 167.76 136.33 168.26 Z M 138.40 169.33 L 137.97 168.59 C 137.42 167.65 136.20 167.33 135.26 167.88 C 134.31 168.43 133.99 169.64 134.54 170.59 L 134.97 171.33 C 135.52 172.27 136.74 172.59 137.68 172.04 C 138.63 171.49 138.95 170.28 138.40 169.33 Z M 138.09 168.98 L 137.71 167.85 C 137.37 166.84 136.27 166.29 135.26 166.63 C 134.25 166.97 133.71 168.06 134.05 169.07 L 134.43 170.20 C 134.76 171.22 135.86 171.76 136.87 171.42 C 137.88 171.08 138.42 169.99 138.09 168.98 Z M 137.69 167.93 L 137.43 167.02 C 137.14 166.02 136.09 165.45 135.09 165.74 C 134.09 166.03 133.51 167.07 133.80 168.07 L 134.06 168.98 C 134.35 169.99 135.40 170.56 136.40 170.27 C 137.40 169.98 137.98 168.94 137.69 167.93 Z M 137.40 167.06 L 137.13 166.07 C 136.86 165.08 135.84 164.50 134.85 164.77 C 133.87 165.04 133.28 166.06 133.55 167.05 L 133.82 168.04 C 134.09 169.03 135.11 169.61 136.10 169.34 C 137.09 169.07 137.67 168.05 137.40 167.06 Z M 137.10 166.09 L 136.83 165.06 C 136.57 164.09 135.57 163.51 134.60 163.77 C 133.63 164.03 133.05 165.03 133.31 166.00 L 133.58 167.03 C 133.84 168.00 134.84 168.58 135.81 168.32 C 136.78 168.06 137.36 167.06 137.10 166.09 Z"
      fill="black"
      fill-rule="nonzero" /><path d="M 129.05 153.51 L 129.99 153.15 C 131.02 152.76 131.54 151.61 131.15 150.58 C 130.76 149.54 129.61 149.02 128.58 149.41 L 127.63 149.77 C 126.60 150.16 126.08 151.31 126.47 152.34 C 126.86 153.38 128.02 153.90 129.05 153.51 Z M 129.89 153.21 L 130.83 152.92 C 131.90 152.58 132.49 151.45 132.16 150.38 C 131.83 149.32 130.69 148.72 129.63 149.06 L 128.68 149.35 C 127.61 149.69 127.02 150.82 127.35 151.89 C 127.69 152.95 128.82 153.55 129.89 153.21 Z M 130.64 152.96 L 131.61 152.75 C 132.70 152.53 133.40 151.46 133.17 150.37 C 132.94 149.28 131.88 148.58 130.79 148.81 L 129.82 149.01 C 128.73 149.24 128.03 150.31 128.26 151.40 C 128.49 152.49 129.55 153.19 130.64 152.96 Z M 131.50 152.73 L 132.50 152.58 C 133.58 152.41 134.32 151.40 134.15 150.32 C 133.98 149.25 132.97 148.51 131.89 148.67 L 130.90 148.83 C 129.82 149.00 129.08 150.01 129.25 151.09 C 129.42 152.16 130.43 152.90 131.50 152.73 Z M 132.49 152.55 L 133.49 152.39 C 134.54 152.23 135.27 151.24 135.11 150.18 C 134.95 149.13 133.96 148.40 132.90 148.56 L 131.91 148.71 C 130.85 148.87 130.12 149.86 130.28 150.92 C 130.44 151.98 131.43 152.71 132.49 152.55 Z M 133.47 152.36 L 134.45 152.22 C 135.49 152.07 136.21 151.10 136.06 150.06 C 135.91 149.02 134.95 148.30 133.91 148.45 L 132.92 148.59 C 131.88 148.74 131.16 149.71 131.31 150.75 C 131.46 151.79 132.42 152.51 133.47 152.36 Z M 134.40 152.19 L 135.40 152.07 C 136.42 151.94 137.15 151.01 137.03 149.99 C 136.90 148.96 135.97 148.23 134.95 148.36 L 133.95 148.48 C 132.93 148.60 132.20 149.54 132.32 150.56 C 132.45 151.59 133.38 152.32 134.40 152.19 Z M 135.35 152.04 L 136.34 151.94 C 137.34 151.85 138.08 150.95 137.98 149.94 C 137.89 148.93 136.99 148.19 135.98 148.29 L 134.99 148.39 C 133.98 148.48 133.25 149.38 133.34 150.39 C 133.44 151.40 134.34 152.14 135.35 152.04 Z M 136.30 151.93 L 137.29 151.85 C 138.29 151.77 139.04 150.89 138.96 149.89 C 138.88 148.89 138.00 148.15 137.00 148.23 L 136.01 148.31 C 135.01 148.39 134.27 149.26 134.35 150.26 C 134.43 151.26 135.30 152.01 136.30 151.93 Z M 137.28 151.84 L 138.03 151.78 C 139.03 151.71 139.77 150.84 139.70 149.85 C 139.63 148.85 138.76 148.11 137.77 148.18 L 137.02 148.24 C 136.02 148.31 135.28 149.18 135.35 150.17 C 135.42 151.16 136.29 151.91 137.28 151.84 Z"
      fill="black"
      fill-rule="nonzero" /><path d="M 126.45 160.37 L 125.62 161.20 C 124.86 161.95 124.86 163.18 125.62 163.93 C 126.37 164.69 127.60 164.69 128.35 163.94 L 129.18 163.11 C 129.94 162.35 129.94 161.13 129.19 160.37 C 128.43 159.62 127.21 159.61 126.45 160.37 Z M 125.72 164.12 L 126.01 164.36 C 126.87 165.06 128.13 164.93 128.83 164.07 C 129.53 163.21 129.41 161.95 128.55 161.25 L 128.26 161.01 C 127.40 160.31 126.13 160.44 125.43 161.30 C 124.73 162.15 124.86 163.42 125.72 164.12 Z M 127.80 164.76 L 128.95 164.45 C 130.03 164.16 130.67 163.05 130.38 161.97 C 130.09 160.89 128.98 160.25 127.90 160.54 L 126.75 160.85 C 125.67 161.14 125.03 162.25 125.32 163.33 C 125.61 164.41 126.72 165.05 127.80 164.76 Z M 129.15 164.38 L 130.08 164.02 C 131.12 163.62 131.63 162.45 131.23 161.41 C 130.83 160.37 129.66 159.85 128.62 160.26 L 127.70 160.61 C 126.66 161.01 126.14 162.18 126.55 163.22 C 126.95 164.26 128.11 164.78 129.15 164.38 Z M 130.15 163.98 L 131.06 163.58 C 132.08 163.14 132.55 161.96 132.11 160.95 C 131.67 159.93 130.49 159.46 129.48 159.90 L 128.56 160.30 C 127.54 160.74 127.07 161.92 127.51 162.93 C 127.95 163.95 129.13 164.41 130.15 163.98 Z M 131.06 163.56 L 131.98 163.16 C 132.98 162.72 133.44 161.55 133.00 160.55 C 132.56 159.54 131.39 159.09 130.39 159.52 L 129.48 159.92 C 128.47 160.36 128.01 161.53 128.45 162.53 C 128.89 163.54 130.06 164.00 131.06 163.56 Z M 131.95 163.15 L 132.89 162.75 C 133.88 162.33 134.35 161.17 133.92 160.18 C 133.50 159.18 132.34 158.71 131.35 159.14 L 130.41 159.54 C 129.42 159.96 128.95 161.11 129.38 162.11 C 129.80 163.11 130.95 163.57 131.95 163.15 Z M 132.85 162.74 L 133.78 162.36 C 134.77 161.96 135.24 160.83 134.84 159.84 C 134.44 158.85 133.31 158.37 132.32 158.77 L 131.39 159.15 C 130.40 159.55 129.92 160.68 130.32 161.67 C 130.72 162.67 131.85 163.14 132.85 162.74 Z M 133.73 162.35 L 134.66 161.99 C 135.65 161.61 136.14 160.51 135.76 159.52 C 135.38 158.54 134.27 158.05 133.29 158.43 L 132.36 158.78 C 131.38 159.16 130.89 160.27 131.27 161.25 C 131.64 162.24 132.75 162.73 133.73 162.35 Z M 134.60 161.98 L 135.55 161.65 C 136.53 161.30 137.04 160.22 136.69 159.25 C 136.35 158.27 135.27 157.76 134.29 158.10 L 133.35 158.44 C 132.37 158.78 131.86 159.86 132.20 160.84 C 132.55 161.81 133.63 162.33 134.60 161.98 Z M 135.45 161.65 L 136.40 161.36 C 137.38 161.07 137.94 160.04 137.65 159.06 C 137.35 158.08 136.32 157.52 135.34 157.82 L 134.39 158.10 C 133.41 158.39 132.85 159.43 133.15 160.40 C 133.44 161.38 134.47 161.94 135.45 161.65 Z M 136.29 161.37 L 137.26 161.14 C 138.24 160.91 138.85 159.93 138.62 158.95 C 138.39 157.96 137.41 157.35 136.43 157.58 L 135.46 157.81 C 134.48 158.04 133.87 159.02 134.10 160.00 C 134.33 160.99 135.31 161.60 136.29 161.37 Z M 137.20 161.14 L 138.18 160.94 C 139.16 160.75 139.80 159.79 139.60 158.81 C 139.41 157.83 138.46 157.20 137.48 157.39 L 136.49 157.59 C 135.51 157.78 134.87 158.73 135.07 159.71 C 135.26 160.69 136.22 161.33 137.20 161.14 Z"
      fill="black"
      fill-rule="nonzero" /><path d="M 125.20 179.00 L 126.16 178.80 C 127.23 178.57 127.91 177.52 127.69 176.45 C 127.46 175.37 126.40 174.69 125.33 174.92 L 124.38 175.12 C 123.30 175.35 122.62 176.40 122.85 177.47 C 123.07 178.55 124.13 179.23 125.20 179.00 Z M 126.20 178.84 L 127.18 178.62 C 128.28 178.36 128.96 177.27 128.71 176.17 C 128.45 175.07 127.36 174.39 126.26 174.65 L 125.28 174.87 C 124.19 175.13 123.50 176.22 123.76 177.32 C 124.01 178.42 125.11 179.10 126.20 178.84 Z M 127.23 178.61 L 128.19 178.36 C 129.28 178.08 129.93 176.97 129.65 175.87 C 129.37 174.78 128.26 174.13 127.16 174.41 L 126.21 174.65 C 125.12 174.94 124.46 176.05 124.75 177.14 C 125.03 178.23 126.14 178.89 127.23 178.61 Z M 128.22 178.32 L 129.20 178.04 C 130.27 177.74 130.90 176.63 130.60 175.57 C 130.30 174.50 129.19 173.87 128.12 174.17 L 127.13 174.45 C 126.06 174.75 125.44 175.86 125.74 176.93 C 126.04 178.00 127.15 178.62 128.22 178.32 Z M 129.23 178.00 L 130.18 177.72 C 131.22 177.40 131.81 176.30 131.50 175.26 C 131.19 174.21 130.09 173.62 129.04 173.93 L 128.09 174.22 C 127.05 174.53 126.46 175.63 126.77 176.68 C 127.08 177.72 128.19 178.31 129.23 178.00 Z M 130.20 177.67 L 131.17 177.36 C 132.19 177.04 132.75 175.94 132.43 174.92 C 132.10 173.90 131.01 173.34 129.99 173.67 L 129.02 173.98 C 128.00 174.30 127.44 175.39 127.76 176.42 C 128.09 177.44 129.18 178.00 130.20 177.67 Z M 131.19 177.32 L 132.13 177.00 C 133.12 176.66 133.66 175.58 133.32 174.58 C 132.98 173.59 131.90 173.05 130.90 173.39 L 129.97 173.71 C 128.97 174.05 128.44 175.13 128.78 176.13 C 129.11 177.12 130.20 177.66 131.19 177.32 Z M 132.14 176.96 L 133.09 176.63 C 134.07 176.28 134.57 175.20 134.23 174.23 C 133.88 173.25 132.80 172.74 131.83 173.09 L 130.88 173.43 C 129.91 173.78 129.40 174.85 129.75 175.83 C 130.09 176.80 131.17 177.31 132.14 176.96 Z M 133.11 176.61 L 134.05 176.26 C 135.01 175.90 135.51 174.83 135.15 173.86 C 134.79 172.89 133.71 172.40 132.75 172.76 L 131.81 173.11 C 130.84 173.47 130.35 174.54 130.71 175.51 C 131.07 176.47 132.14 176.97 133.11 176.61 Z M 134.07 176.28 L 135.01 175.92 C 135.98 175.55 136.47 174.46 136.10 173.48 C 135.73 172.50 134.64 172.01 133.66 172.39 L 132.72 172.74 C 131.75 173.11 131.26 174.21 131.63 175.18 C 132.00 176.16 133.10 176.65 134.07 176.28 Z M 135.03 175.96 L 135.89 175.62 C 136.89 175.24 137.38 174.12 137.00 173.13 C 136.62 172.13 135.50 171.63 134.50 172.02 L 133.64 172.35 C 132.64 172.74 132.15 173.85 132.53 174.85 C 132.91 175.84 134.03 176.34 135.03 175.96 Z"
      fill="black"
      fill-rule="nonzero" /><path d="M 156.67 128.03 L 157.68 128.21 C 158.75 128.40 159.78 127.69 159.97 126.61 C 160.16 125.54 159.45 124.52 158.37 124.33 L 157.37 124.15 C 156.29 123.96 155.27 124.67 155.08 125.74 C 154.89 126.81 155.60 127.84 156.67 128.03 Z M 157.77 128.30 L 158.69 128.42 C 159.82 128.56 160.84 127.77 160.98 126.65 C 161.13 125.53 160.34 124.50 159.22 124.36 L 158.29 124.24 C 157.17 124.09 156.14 124.89 156.00 126.01 C 155.85 127.13 156.65 128.15 157.77 128.30 Z M 158.95 128.46 L 159.80 128.46 C 160.94 128.47 161.88 127.54 161.88 126.40 C 161.88 125.25 160.96 124.32 159.81 124.32 L 158.96 124.31 C 157.82 124.31 156.89 125.24 156.88 126.38 C 156.88 127.53 157.80 128.46 158.95 128.46 Z M 160.10 128.43 L 161.27 128.26 C 162.40 128.10 163.18 127.05 163.01 125.92 C 162.84 124.79 161.80 124.01 160.67 124.18 L 159.50 124.35 C 158.38 124.51 157.59 125.56 157.76 126.69 C 157.93 127.82 158.98 128.60 160.10 128.43 Z M 161.40 128.23 L 162.29 128.04 C 163.40 127.80 164.10 126.71 163.87 125.60 C 163.63 124.49 162.54 123.78 161.43 124.02 L 160.54 124.21 C 159.43 124.45 158.72 125.54 158.96 126.65 C 159.19 127.76 160.29 128.47 161.40 128.23 Z M 162.33 128.02 L 163.34 127.78 C 164.43 127.51 165.11 126.41 164.85 125.31 C 164.59 124.22 163.48 123.54 162.39 123.80 L 161.38 124.04 C 160.28 124.30 159.61 125.41 159.87 126.50 C 160.13 127.60 161.23 128.28 162.33 128.02 Z M 163.36 127.76 L 164.39 127.50 C 165.48 127.22 166.13 126.11 165.86 125.03 C 165.58 123.94 164.48 123.28 163.39 123.56 L 162.36 123.82 C 161.27 124.10 160.62 125.20 160.89 126.29 C 161.17 127.38 162.27 128.03 163.36 127.76 Z M 164.41 127.47 L 165.42 127.20 C 166.49 126.92 167.13 125.81 166.85 124.74 C 166.56 123.66 165.45 123.02 164.38 123.31 L 163.37 123.58 C 162.29 123.87 161.66 124.97 161.94 126.05 C 162.23 127.12 163.33 127.76 164.41 127.47 Z M 165.43 127.16 L 166.49 126.86 C 167.54 126.57 168.16 125.48 167.86 124.43 C 167.57 123.38 166.48 122.76 165.43 123.06 L 164.37 123.36 C 163.32 123.65 162.70 124.74 163.00 125.79 C 163.29 126.84 164.38 127.45 165.43 127.16 Z M 166.50 126.80 L 167.43 126.53 C 168.44 126.23 169.02 125.16 168.72 124.15 C 168.43 123.13 167.36 122.55 166.35 122.85 L 165.42 123.12 C 164.41 123.42 163.83 124.49 164.12 125.50 C 164.42 126.51 165.49 127.10 166.50 126.80 Z M 167.43 126.47 L 168.29 126.21 C 169.27 125.91 169.83 124.87 169.53 123.88 C 169.23 122.90 168.19 122.35 167.20 122.65 L 166.34 122.91 C 165.36 123.21 164.81 124.25 165.11 125.23 C 165.41 126.21 166.45 126.77 167.43 126.47 Z M 168.30 126.21 L 169.26 125.91 C 170.25 125.61 170.80 124.56 170.50 123.57 C 170.19 122.58 169.14 122.03 168.15 122.34 L 167.19 122.64 C 166.20 122.95 165.65 124.00 165.96 124.98 C 166.27 125.97 167.32 126.52 168.30 126.21 Z M 169.29 125.98 L 170.24 125.68 C 171.26 125.36 171.83 124.27 171.51 123.24 C 171.19 122.22 170.10 121.65 169.08 121.98 L 168.13 122.28 C 167.10 122.60 166.54 123.69 166.86 124.71 C 167.18 125.73 168.27 126.30 169.29 125.98 Z M 170.26 125.73 L 170.80 125.56 C 171.85 125.23 172.43 124.11 172.10 123.06 C 171.77 122.00 170.64 121.42 169.59 121.75 L 169.06 121.92 C 168.01 122.26 167.42 123.38 167.76 124.43 C 168.09 125.48 169.21 126.06 170.26 125.73 Z"
      fill="black"
      fill-rule="nonzero" /><path d="M 160.52 118.80 L 160.88 119.77 C 161.25 120.82 162.41 121.37 163.46 120.99 C 164.51 120.61 165.05 119.46 164.68 118.41 L 164.32 117.43 C 163.95 116.38 162.79 115.83 161.74 116.21 C 160.69 116.59 160.15 117.75 160.52 118.80 Z M 160.85 119.72 L 161.15 120.67 C 161.50 121.73 162.65 122.31 163.71 121.97 C 164.78 121.62 165.36 120.47 165.02 119.41 L 164.71 118.46 C 164.36 117.40 163.21 116.81 162.15 117.16 C 161.08 117.51 160.50 118.65 160.85 119.72 Z M 161.11 120.53 L 161.34 121.47 C 161.61 122.56 162.72 123.22 163.81 122.95 C 164.90 122.68 165.57 121.57 165.29 120.48 L 165.06 119.54 C 164.79 118.45 163.68 117.79 162.59 118.06 C 161.50 118.33 160.84 119.44 161.11 120.53 Z M 161.31 121.26 L 161.45 122.23 C 161.61 123.34 162.63 124.11 163.74 123.95 C 164.85 123.79 165.63 122.76 165.47 121.65 L 165.33 120.69 C 165.17 119.58 164.14 118.80 163.03 118.96 C 161.92 119.12 161.15 120.15 161.31 121.26 Z M 161.44 122.07 L 161.51 123.09 C 161.59 124.20 162.55 125.04 163.66 124.97 C 164.78 124.89 165.62 123.93 165.54 122.82 L 165.47 121.80 C 165.39 120.69 164.43 119.85 163.32 119.92 C 162.21 120.00 161.37 120.96 161.44 122.07 Z M 161.52 123.03 L 161.56 124.05 C 161.60 125.15 162.53 126.02 163.64 125.98 C 164.74 125.93 165.61 125.00 165.57 123.90 L 165.53 122.88 C 165.49 121.77 164.56 120.91 163.45 120.95 C 162.35 120.99 161.48 121.92 161.52 123.03 Z M 161.58 124.02 L 161.60 125.02 C 161.62 126.12 162.53 126.99 163.63 126.97 C 164.73 126.94 165.60 126.03 165.57 124.94 L 165.55 123.93 C 165.53 122.83 164.62 121.96 163.52 121.99 C 162.42 122.01 161.55 122.92 161.58 124.02 Z M 161.62 125.00 L 161.63 126.05 C 161.64 127.13 162.53 128.00 163.62 127.99 C 164.70 127.98 165.58 127.09 165.56 126.01 L 165.55 124.96 C 165.54 123.87 164.65 123.00 163.57 123.01 C 162.48 123.02 161.61 123.91 161.62 125.00 Z M 161.65 125.98 L 161.63 126.94 C 161.60 128.01 162.45 128.90 163.53 128.93 C 164.60 128.95 165.49 128.10 165.52 127.03 L 165.54 126.07 C 165.57 125.00 164.72 124.11 163.64 124.08 C 162.57 124.06 161.68 124.91 161.65 125.98 Z M 161.66 126.81 L 161.57 127.75 C 161.48 128.81 162.26 129.75 163.32 129.84 C 164.37 129.94 165.31 129.16 165.40 128.10 L 165.49 127.15 C 165.58 126.10 164.80 125.16 163.75 125.07 C 162.69 124.97 161.75 125.75 161.66 126.81 Z M 161.60 127.63 L 161.44 128.63 C 161.28 129.67 161.99 130.65 163.03 130.82 C 164.07 130.98 165.05 130.27 165.22 129.23 L 165.37 128.22 C 165.54 127.18 164.83 126.20 163.79 126.04 C 162.74 125.87 161.77 126.59 161.60 127.63 Z M 161.47 128.54 L 161.27 129.52 C 161.05 130.55 161.71 131.55 162.73 131.77 C 163.76 131.98 164.77 131.33 164.98 130.30 L 165.19 129.32 C 165.40 128.29 164.75 127.29 163.72 127.07 C 162.69 126.86 161.69 127.51 161.47 128.54 Z M 161.30 129.45 L 161.05 130.43 C 160.79 131.44 161.40 132.46 162.41 132.72 C 163.42 132.97 164.45 132.36 164.70 131.35 L 164.95 130.37 C 165.21 129.37 164.60 128.34 163.59 128.08 C 162.58 127.83 161.55 128.44 161.30 129.45 Z M 161.08 130.35 L 160.79 131.32 C 160.49 132.31 161.05 133.35 162.04 133.65 C 163.03 133.95 164.08 133.39 164.38 132.40 L 164.67 131.43 C 164.97 130.44 164.41 129.40 163.42 129.10 C 162.43 128.80 161.38 129.36 161.08 130.35 Z M 160.82 131.24 L 160.49 132.17 C 160.15 133.14 160.66 134.21 161.63 134.55 C 162.60 134.90 163.67 134.39 164.01 133.42 L 164.34 132.48 C 164.69 131.51 164.18 130.44 163.20 130.10 C 162.23 129.76 161.17 130.26 160.82 131.24 Z M 160.52 132.10 L 160.15 133.03 C 159.77 133.98 160.24 135.07 161.19 135.45 C 162.15 135.83 163.23 135.36 163.61 134.41 L 163.98 133.48 C 164.36 132.53 163.90 131.45 162.94 131.06 C 161.99 130.68 160.90 131.15 160.52 132.10 Z M 160.19 132.97 L 159.78 133.89 C 159.37 134.82 159.79 135.92 160.73 136.33 C 161.67 136.74 162.76 136.32 163.18 135.38 L 163.58 134.47 C 163.99 133.53 163.57 132.44 162.63 132.02 C 161.70 131.61 160.60 132.03 160.19 132.97 Z M 159.82 133.82 L 159.38 134.72 C 158.93 135.64 159.30 136.75 160.22 137.20 C 161.14 137.65 162.24 137.27 162.69 136.35 L 163.14 135.45 C 163.59 134.53 163.21 133.43 162.29 132.98 C 161.38 132.52 160.27 132.90 159.82 133.82 Z M 159.42 134.65 L 158.94 135.52 C 158.45 136.41 158.77 137.53 159.66 138.02 C 160.55 138.52 161.67 138.19 162.17 137.30 L 162.65 136.43 C 163.14 135.54 162.82 134.42 161.93 133.93 C 161.04 133.43 159.92 133.75 159.42 134.65 Z M 159.00 135.42 L 158.46 136.28 C 157.91 137.13 158.17 138.27 159.02 138.82 C 159.88 139.36 161.02 139.11 161.56 138.25 L 162.10 137.40 C 162.65 136.54 162.40 135.40 161.54 134.86 C 160.68 134.31 159.54 134.57 159.00 135.42 Z M 158.52 136.19 L 157.94 136.99 C 157.35 137.82 157.54 138.96 158.36 139.55 C 159.19 140.15 160.33 139.96 160.92 139.13 L 161.50 138.33 C 162.09 137.51 161.90 136.36 161.08 135.77 C 160.26 135.18 159.11 135.37 158.52 136.19 Z M 158.01 136.91 L 157.43 137.63 C 156.79 138.42 156.92 139.57 157.70 140.21 C 158.49 140.84 159.64 140.72 160.28 139.93 L 160.86 139.22 C 161.49 138.43 161.37 137.28 160.58 136.64 C 159.80 136.01 158.65 136.13 158.01 136.91 Z M 157.55 137.50 L 156.80 138.27 C 156.09 138.99 156.10 140.14 156.82 140.85 C 157.54 141.56 158.70 141.55 159.41 140.83 L 160.16 140.06 C 160.86 139.34 160.85 138.19 160.13 137.48 C 159.41 136.77 158.26 136.78 157.55 137.50 Z M 156.91 138.16 L 156.18 138.79 C 155.41 139.45 155.33 140.61 155.99 141.37 C 156.65 142.14 157.80 142.22 158.56 141.56 L 159.30 140.93 C 160.06 140.27 160.15 139.12 159.49 138.35 C 158.83 137.59 157.67 137.50 156.91 138.16 Z M 156.27 138.71 L 155.44 139.33 C 154.63 139.94 154.47 141.09 155.07 141.90 C 155.68 142.71 156.83 142.87 157.64 142.27 L 158.47 141.65 C 159.28 141.04 159.44 139.89 158.84 139.08 C 158.23 138.27 157.08 138.10 156.27 138.71 Z M 155.59 139.22 L 154.70 139.76 C 153.83 140.28 153.55 141.42 154.08 142.29 C 154.60 143.16 155.74 143.44 156.61 142.91 L 157.49 142.38 C 158.37 141.85 158.64 140.72 158.12 139.85 C 157.59 138.98 156.46 138.70 155.59 139.22 Z M 154.95 139.62 L 154.02 140.00 C 153.07 140.39 152.61 141.47 153.00 142.42 C 153.39 143.37 154.47 143.82 155.42 143.44 L 156.36 143.05 C 157.31 142.67 157.76 141.58 157.37 140.63 C 156.98 139.68 155.90 139.23 154.95 139.62 Z M 154.33 139.88 L 153.33 140.09 C 152.32 140.30 151.67 141.30 151.88 142.32 C 152.10 143.33 153.10 143.98 154.11 143.77 L 155.11 143.56 C 156.13 143.34 156.78 142.34 156.56 141.33 C 156.35 140.31 155.35 139.66 154.33 139.88 Z M 153.65 139.99 L 152.55 140.04 C 151.48 140.08 150.65 140.98 150.69 142.04 C 150.73 143.11 151.63 143.94 152.70 143.90 L 153.80 143.86 C 154.87 143.82 155.70 142.92 155.66 141.85 C 155.62 140.79 154.72 139.95 153.65 139.99 Z M 153.76 143.63 L 154.01 143.46 C 154.92 142.84 155.16 141.59 154.54 140.67 C 153.91 139.75 152.66 139.51 151.74 140.14 L 151.49 140.31 C 150.58 140.93 150.34 142.18 150.96 143.10 C 151.59 144.02 152.84 144.26 153.76 143.63 Z M 153.19 143.85 L 154.43 143.66 C 155.56 143.48 156.33 142.42 156.16 141.29 C 155.98 140.16 154.92 139.39 153.79 139.56 L 152.56 139.75 C 151.42 139.93 150.65 140.99 150.83 142.12 C 151.00 143.25 152.06 144.03 153.19 143.85 Z M 154.32 143.70 L 155.29 143.60 C 156.45 143.49 157.29 142.46 157.17 141.31 C 157.06 140.15 156.03 139.31 154.88 139.43 L 153.90 139.52 C 152.75 139.64 151.91 140.66 152.02 141.82 C 152.14 142.97 153.16 143.81 154.32 143.70 Z M 155.28 143.60 L 156.31 143.51 C 157.46 143.40 158.31 142.38 158.21 141.22 C 158.10 140.07 157.07 139.22 155.92 139.33 L 154.89 139.42 C 153.74 139.53 152.89 140.55 153.00 141.71 C 153.10 142.86 154.13 143.71 155.28 143.60 Z M 156.35 143.50 L 157.32 143.39 C 158.48 143.26 159.30 142.22 159.17 141.07 C 159.04 139.92 158.00 139.09 156.85 139.22 L 155.88 139.33 C 154.73 139.46 153.90 140.50 154.03 141.66 C 154.16 142.81 155.20 143.63 156.35 143.50 Z M 157.40 143.38 L 158.34 143.24 C 159.49 143.07 160.28 142.00 160.11 140.85 C 159.94 139.71 158.87 138.92 157.72 139.09 L 156.77 139.23 C 155.63 139.40 154.84 140.47 155.01 141.62 C 155.18 142.76 156.25 143.55 157.40 143.38 Z M 158.42 143.23 L 159.44 143.04 C 160.58 142.82 161.34 141.73 161.12 140.59 C 160.91 139.45 159.82 138.70 158.68 138.91 L 157.65 139.10 C 156.51 139.31 155.76 140.41 155.97 141.55 C 156.18 142.68 157.28 143.44 158.42 143.23 Z M 159.50 143.02 L 160.46 142.82 C 161.59 142.58 162.32 141.47 162.08 140.34 C 161.84 139.20 160.73 138.48 159.60 138.72 L 158.63 138.92 C 157.50 139.16 156.77 140.27 157.01 141.41 C 157.25 142.54 158.36 143.26 159.50 143.02 Z M 160.49 142.81 L 161.48 142.58 C 162.61 142.33 163.31 141.21 163.05 140.08 C 162.80 138.95 161.67 138.25 160.55 138.51 L 159.56 138.73 C 158.44 138.99 157.73 140.11 157.99 141.23 C 158.25 142.36 159.37 143.07 160.49 142.81 Z M 161.50 142.57 L 162.51 142.33 C 163.63 142.06 164.32 140.93 164.04 139.81 C 163.77 138.69 162.65 138.00 161.52 138.27 L 160.52 138.51 C 159.40 138.79 158.71 139.91 158.98 141.04 C 159.25 142.16 160.38 142.85 161.50 142.57 Z M 162.53 142.32 L 163.51 142.07 C 164.63 141.79 165.30 140.65 165.02 139.54 C 164.73 138.42 163.60 137.75 162.48 138.03 L 161.50 138.28 C 160.38 138.57 159.71 139.70 160.00 140.82 C 160.28 141.93 161.41 142.61 162.53 142.32 Z M 163.54 142.05 L 164.53 141.78 C 165.64 141.48 166.29 140.34 165.99 139.24 C 165.69 138.14 164.55 137.48 163.45 137.78 L 162.45 138.05 C 161.35 138.35 160.70 139.49 161.00 140.60 C 161.30 141.70 162.44 142.35 163.54 142.05 Z M 164.57 141.75 L 165.51 141.48 C 166.60 141.16 167.22 140.02 166.90 138.93 C 166.58 137.84 165.44 137.22 164.36 137.54 L 163.41 137.81 C 162.33 138.13 161.70 139.27 162.02 140.36 C 162.34 141.45 163.48 142.07 164.57 141.75 Z M 165.54 141.44 L 166.48 141.15 C 167.55 140.81 168.14 139.67 167.80 138.60 C 167.47 137.53 166.33 136.94 165.26 137.28 L 164.32 137.57 C 163.25 137.91 162.66 139.05 163.00 140.12 C 163.33 141.19 164.47 141.78 165.54 141.44 Z M 166.51 141.12 L 167.51 140.78 C 168.56 140.42 169.12 139.28 168.77 138.23 C 168.41 137.18 167.28 136.62 166.22 136.97 L 165.22 137.31 C 164.17 137.66 163.61 138.80 163.96 139.86 C 164.32 140.91 165.46 141.47 166.51 141.12 Z M 167.54 140.74 L 168.52 140.38 C 169.55 140.01 170.08 138.87 169.71 137.84 C 169.33 136.81 168.20 136.28 167.17 136.65 L 166.19 137.01 C 165.16 137.38 164.63 138.52 165.00 139.55 C 165.38 140.58 166.51 141.12 167.54 140.74 Z M 168.57 140.34 L 169.44 139.99 C 170.45 139.59 170.94 138.44 170.53 137.44 C 170.13 136.44 168.99 135.95 167.98 136.35 L 167.11 136.70 C 166.11 137.10 165.62 138.25 166.03 139.25 C 166.43 140.25 167.57 140.74 168.57 140.34 Z M 169.55 139.90 L 170.53 139.43 C 171.49 138.97 171.89 137.81 171.42 136.86 C 170.96 135.90 169.81 135.50 168.85 135.96 L 167.87 136.44 C 166.92 136.90 166.52 138.05 166.98 139.01 C 167.44 139.97 168.60 140.37 169.55 139.90 Z M 170.67 139.30 L 171.43 138.83 C 172.32 138.29 172.60 137.14 172.06 136.25 C 171.52 135.37 170.36 135.08 169.48 135.63 L 168.71 136.09 C 167.82 136.63 167.54 137.79 168.09 138.68 C 168.63 139.56 169.78 139.84 170.67 139.30 Z M 171.47 138.78 L 171.54 138.73 C 172.40 138.17 172.64 137.03 172.08 136.17 C 171.53 135.31 170.38 135.07 169.52 135.63 L 169.44 135.68 C 168.59 136.24 168.35 137.38 168.90 138.24 C 169.46 139.10 170.61 139.34 171.47 138.78 Z"
      fill="black"
      fill-rule="nonzero" /><path d="M 162.97 137.85 L 162.06 138.49 C 161.19 139.09 160.97 140.28 161.58 141.15 C 162.18 142.02 163.37 142.24 164.24 141.64 L 165.15 141.01 C 166.02 140.40 166.24 139.21 165.64 138.34 C 165.04 137.47 163.84 137.25 162.97 137.85 Z M 161.92 138.49 L 161.13 139.12 C 160.26 139.80 160.11 141.05 160.79 141.92 C 161.47 142.78 162.72 142.93 163.59 142.25 L 164.38 141.63 C 165.25 140.95 165.40 139.70 164.72 138.83 C 164.04 137.96 162.79 137.81 161.92 138.49 Z M 160.82 139.31 L 160.22 139.98 C 159.46 140.83 159.53 142.13 160.38 142.89 C 161.23 143.66 162.54 143.58 163.30 142.73 L 163.90 142.06 C 164.66 141.21 164.59 139.91 163.74 139.15 C 162.89 138.38 161.58 138.46 160.82 139.31 Z M 159.78 140.64 L 159.45 141.57 C 159.06 142.66 159.63 143.86 160.72 144.25 C 161.81 144.65 163.01 144.08 163.40 142.99 L 163.73 142.06 C 164.13 140.97 163.56 139.77 162.47 139.38 C 161.38 138.99 160.17 139.55 159.78 140.64 Z M 159.36 141.91 L 159.20 142.83 C 158.99 143.97 159.75 145.06 160.89 145.26 C 162.03 145.47 163.12 144.71 163.33 143.57 L 163.49 142.65 C 163.70 141.51 162.94 140.42 161.80 140.21 C 160.66 140.01 159.56 140.77 159.36 141.91 Z M 159.26 142.58 L 158.97 143.50 C 158.64 144.61 159.26 145.78 160.37 146.12 C 161.48 146.46 162.65 145.84 162.99 144.73 L 163.27 143.81 C 163.61 142.70 162.98 141.53 161.88 141.19 C 160.77 140.85 159.59 141.47 159.26 142.58 Z M 159.03 143.34 L 158.63 144.33 C 158.20 145.41 158.73 146.63 159.80 147.06 C 160.88 147.49 162.10 146.97 162.53 145.89 L 162.93 144.90 C 163.36 143.82 162.84 142.60 161.76 142.17 C 160.69 141.74 159.46 142.26 159.03 143.34 Z M 158.67 144.25 L 158.25 145.18 C 157.77 146.24 158.24 147.48 159.30 147.96 C 160.35 148.43 161.59 147.97 162.07 146.91 L 162.49 145.98 C 162.97 144.92 162.50 143.68 161.45 143.20 C 160.39 142.73 159.15 143.19 158.67 144.25 Z M 158.28 145.13 L 157.84 146.03 C 157.33 147.07 157.76 148.33 158.80 148.83 C 159.84 149.34 161.10 148.91 161.61 147.87 L 162.05 146.97 C 162.55 145.92 162.12 144.67 161.08 144.16 C 160.04 143.65 158.78 144.09 158.28 145.13 Z M 157.87 145.97 L 157.38 146.90 C 156.84 147.92 157.23 149.19 158.25 149.73 C 159.27 150.27 160.54 149.88 161.08 148.86 L 161.57 147.93 C 162.12 146.91 161.72 145.64 160.70 145.10 C 159.68 144.55 158.41 144.95 157.87 145.97 Z M 157.42 146.83 L 156.94 147.65 C 156.36 148.65 156.70 149.93 157.71 150.51 C 158.71 151.09 159.99 150.75 160.57 149.75 L 161.05 148.93 C 161.62 147.92 161.28 146.64 160.28 146.06 C 159.28 145.48 157.99 145.82 157.42 146.83 Z M 156.96 147.62 L 156.46 148.45 C 155.86 149.44 156.18 150.73 157.17 151.32 C 158.17 151.92 159.45 151.60 160.05 150.61 L 160.55 149.78 C 161.15 148.79 160.83 147.50 159.84 146.90 C 158.84 146.30 157.56 146.62 156.96 147.62 Z M 156.48 148.41 L 155.94 149.27 C 155.33 150.25 155.62 151.54 156.60 152.16 C 157.58 152.77 158.88 152.48 159.49 151.50 L 160.03 150.64 C 160.65 149.66 160.35 148.37 159.37 147.75 C 158.39 147.14 157.10 147.43 156.48 148.41 Z M 155.98 149.21 L 155.43 150.03 C 154.78 150.99 155.04 152.29 156.00 152.94 C 156.96 153.59 158.26 153.33 158.91 152.37 L 159.46 151.55 C 160.10 150.59 159.85 149.29 158.89 148.65 C 157.93 148.00 156.63 148.25 155.98 149.21 Z M 155.46 149.99 L 154.88 150.82 C 154.21 151.76 154.43 153.06 155.38 153.73 C 156.32 154.40 157.62 154.18 158.29 153.23 L 158.87 152.41 C 159.54 151.47 159.32 150.16 158.38 149.50 C 157.43 148.83 156.13 149.05 155.46 149.99 Z M 154.90 150.79 L 154.32 151.59 C 153.64 152.52 153.84 153.83 154.77 154.51 C 155.69 155.19 157.00 154.99 157.68 154.06 L 158.27 153.26 C 158.95 152.33 158.75 151.03 157.82 150.34 C 156.89 149.66 155.58 149.86 154.90 150.79 Z M 154.34 151.58 L 153.73 152.39 C 153.04 153.30 153.22 154.61 154.14 155.30 C 155.06 155.99 156.36 155.80 157.05 154.89 L 157.66 154.07 C 158.35 153.16 158.17 151.85 157.25 151.16 C 156.33 150.47 155.03 150.66 154.34 151.58 Z M 153.75 152.37 L 153.13 153.17 C 152.43 154.08 152.60 155.38 153.51 156.08 C 154.41 156.77 155.71 156.61 156.41 155.70 L 157.03 154.90 C 157.73 153.99 157.56 152.69 156.65 152.00 C 155.75 151.30 154.45 151.47 153.75 152.37 Z M 153.17 153.15 L 152.56 153.91 C 151.84 154.79 151.98 156.09 152.87 156.80 C 153.75 157.51 155.05 157.37 155.76 156.49 L 156.37 155.73 C 157.09 154.84 156.95 153.55 156.06 152.83 C 155.18 152.12 153.88 152.26 153.17 153.15 Z M 152.62 153.86 L 152.00 154.57 C 151.26 155.42 151.35 156.71 152.20 157.45 C 153.05 158.19 154.34 158.10 155.08 157.25 L 155.70 156.54 C 156.44 155.69 156.35 154.40 155.50 153.66 C 154.65 152.91 153.36 153.00 152.62 153.86 Z M 152.08 154.50 L 151.35 155.26 C 150.57 156.07 150.59 157.36 151.40 158.13 C 152.21 158.91 153.50 158.89 154.27 158.08 L 155.00 157.32 C 155.78 156.51 155.76 155.22 154.95 154.45 C 154.14 153.67 152.85 153.69 152.08 154.50 Z M 151.41 155.22 L 150.71 155.89 C 149.91 156.67 149.89 157.94 150.66 158.75 C 151.44 159.55 152.72 159.57 153.52 158.79 L 154.21 158.12 C 155.02 157.35 155.04 156.07 154.26 155.26 C 153.49 154.46 152.21 154.44 151.41 155.22 Z M 150.75 155.86 L 149.99 156.56 C 149.18 157.31 149.12 158.58 149.87 159.40 C 150.62 160.22 151.89 160.27 152.71 159.52 L 153.47 158.82 C 154.29 158.07 154.35 156.80 153.59 155.98 C 152.84 155.16 151.57 155.11 150.75 155.86 Z M 150.05 156.53 L 149.25 157.22 C 148.41 157.94 148.32 159.20 149.04 160.04 C 149.76 160.87 151.02 160.96 151.86 160.24 L 152.66 159.55 C 153.49 158.83 153.59 157.57 152.86 156.74 C 152.14 155.90 150.88 155.81 150.05 156.53 Z M 149.35 157.16 L 148.52 157.80 C 147.66 158.46 147.50 159.71 148.16 160.57 C 148.83 161.44 150.07 161.60 150.94 160.93 L 151.76 160.30 C 152.63 159.63 152.79 158.39 152.12 157.52 C 151.45 156.66 150.21 156.50 149.35 157.16 Z M 148.71 157.70 L 147.93 158.18 C 147.01 158.74 146.72 159.94 147.28 160.86 C 147.84 161.78 149.04 162.07 149.96 161.51 L 150.75 161.03 C 151.67 160.47 151.96 159.27 151.40 158.35 C 150.84 157.43 149.63 157.13 148.71 157.70 Z M 148.25 158.05 L 147.30 158.42 C 146.31 158.80 145.82 159.92 146.20 160.91 C 146.58 161.90 147.70 162.39 148.69 162.00 L 149.64 161.64 C 150.63 161.25 151.12 160.14 150.74 159.15 C 150.36 158.16 149.24 157.67 148.25 158.05 Z M 147.55 158.38 L 146.68 158.59 C 145.66 158.84 145.05 159.86 145.29 160.87 C 145.54 161.88 146.56 162.50 147.57 162.25 L 148.44 162.04 C 149.45 161.80 150.07 160.78 149.82 159.77 C 149.58 158.75 148.56 158.14 147.55 158.38 Z"
      fill="black"
      fill-rule="nonzero" /><path d="M 163.57 145.26 L 163.85 146.22 C 164.16 147.27 165.25 147.86 166.29 147.56 C 167.33 147.25 167.93 146.16 167.62 145.12 L 167.34 144.15 C 167.03 143.11 165.94 142.52 164.90 142.82 C 163.86 143.13 163.26 144.22 163.57 145.26 Z M 163.84 146.35 L 164.17 147.28 C 164.54 148.33 165.69 148.88 166.74 148.51 C 167.79 148.14 168.34 146.98 167.97 145.93 L 167.63 145.00 C 167.26 143.95 166.11 143.40 165.06 143.77 C 164.01 144.14 163.46 145.30 163.84 146.35 Z M 164.22 147.49 L 164.66 148.40 C 165.14 149.42 166.36 149.85 167.38 149.36 C 168.40 148.87 168.83 147.65 168.35 146.63 L 167.91 145.73 C 167.43 144.71 166.21 144.28 165.19 144.76 C 164.17 145.25 163.74 146.47 164.22 147.49 Z M 164.76 148.61 L 165.29 149.44 C 165.89 150.40 167.16 150.69 168.12 150.09 C 169.08 149.48 169.37 148.21 168.76 147.25 L 168.24 146.42 C 167.63 145.46 166.37 145.17 165.41 145.78 C 164.45 146.38 164.16 147.65 164.76 148.61 Z M 165.43 149.65 L 166.05 150.41 C 166.77 151.29 168.06 151.42 168.95 150.71 C 169.83 149.99 169.96 148.69 169.24 147.81 L 168.62 147.05 C 167.90 146.17 166.61 146.03 165.73 146.75 C 164.85 147.47 164.71 148.77 165.43 149.65 Z M 166.22 150.59 L 166.95 151.30 C 167.77 152.09 169.07 152.07 169.86 151.25 C 170.65 150.44 170.63 149.14 169.81 148.35 L 169.08 147.63 C 168.26 146.84 166.96 146.86 166.17 147.68 C 165.38 148.49 165.40 149.80 166.22 150.59 Z M 167.10 151.42 L 167.90 152.06 C 168.78 152.77 170.07 152.63 170.78 151.75 C 171.49 150.87 171.35 149.58 170.46 148.87 L 169.67 148.23 C 168.79 147.52 167.50 147.66 166.79 148.54 C 166.08 149.42 166.22 150.71 167.10 151.42 Z M 168.05 152.15 L 168.89 152.71 C 169.82 153.34 171.08 153.09 171.71 152.16 C 172.33 151.23 172.08 149.96 171.15 149.34 L 170.31 148.78 C 169.38 148.15 168.12 148.40 167.49 149.33 C 166.87 150.26 167.12 151.53 168.05 152.15 Z M 169.11 152.80 L 170.00 153.25 C 170.98 153.75 172.18 153.36 172.68 152.38 C 173.18 151.40 172.79 150.20 171.81 149.70 L 170.92 149.25 C 169.94 148.75 168.74 149.14 168.24 150.12 C 167.74 151.10 168.13 152.30 169.11 152.80 Z M 170.26 153.31 L 171.15 153.62 C 172.16 153.98 173.27 153.45 173.63 152.44 C 173.98 151.42 173.45 150.32 172.44 149.96 L 171.55 149.65 C 170.54 149.29 169.43 149.82 169.07 150.83 C 168.72 151.84 169.25 152.95 170.26 153.31 Z M 171.41 153.64 L 172.41 153.85 C 173.43 154.06 174.43 153.41 174.64 152.39 C 174.86 151.37 174.20 150.36 173.18 150.15 L 172.18 149.94 C 171.16 149.73 170.16 150.38 169.95 151.40 C 169.73 152.43 170.39 153.43 171.41 153.64 Z M 172.60 153.87 L 173.57 153.97 C 174.60 154.08 175.53 153.33 175.64 152.30 C 175.75 151.27 175.00 150.34 173.96 150.23 L 172.99 150.13 C 171.96 150.02 171.03 150.77 170.92 151.80 C 170.81 152.84 171.56 153.76 172.60 153.87 Z M 173.63 154.01 L 174.48 154.06 C 175.53 154.14 176.44 153.34 176.52 152.29 C 176.59 151.24 175.79 150.33 174.74 150.26 L 173.90 150.20 C 172.84 150.13 171.93 150.92 171.86 151.97 C 171.79 153.02 172.58 153.93 173.63 154.01 Z"
      fill="black"
      fill-rule="nonzero" /><path d="M 152.61 170.83 L 153.54 171.17 C 154.62 171.57 155.82 171.01 156.21 169.93 C 156.61 168.85 156.06 167.65 154.98 167.25 L 154.05 166.91 C 152.97 166.51 151.77 167.07 151.37 168.15 C 150.97 169.23 151.53 170.43 152.61 170.83 Z M 153.74 171.26 L 154.72 171.50 C 155.85 171.79 156.99 171.10 157.28 169.97 C 157.56 168.84 156.87 167.69 155.74 167.41 L 154.77 167.16 C 153.64 166.88 152.49 167.57 152.21 168.70 C 151.92 169.83 152.61 170.98 153.74 171.26 Z M 155.09 171.58 L 156.04 171.64 C 157.21 171.72 158.22 170.83 158.30 169.66 C 158.38 168.48 157.49 167.47 156.32 167.39 L 155.37 167.33 C 154.20 167.25 153.18 168.14 153.10 169.31 C 153.03 170.49 153.92 171.50 155.09 171.58 Z M 156.35 171.64 L 157.34 171.56 C 158.52 171.47 159.39 170.44 159.30 169.27 C 159.21 168.10 158.18 167.22 157.01 167.31 L 156.01 167.39 C 154.84 167.48 153.96 168.51 154.05 169.69 C 154.14 170.86 155.17 171.74 156.35 171.64 Z M 157.52 171.54 L 158.57 171.37 C 159.73 171.18 160.51 170.08 160.32 168.92 C 160.13 167.76 159.03 166.97 157.87 167.16 L 156.83 167.33 C 155.66 167.53 154.88 168.62 155.07 169.79 C 155.26 170.95 156.36 171.74 157.52 171.54 Z M 158.66 171.35 L 159.67 171.14 C 160.82 170.89 161.56 169.76 161.31 168.61 C 161.07 167.46 159.94 166.72 158.79 166.97 L 157.77 167.18 C 156.62 167.43 155.89 168.56 156.13 169.71 C 156.38 170.86 157.51 171.60 158.66 171.35 Z M 159.73 171.12 L 160.70 170.89 C 161.84 170.61 162.54 169.46 162.27 168.32 C 161.99 167.17 160.84 166.47 159.70 166.75 L 158.73 166.98 C 157.59 167.26 156.88 168.41 157.16 169.55 C 157.43 170.69 158.58 171.40 159.73 171.12 Z M 160.74 170.87 L 161.74 170.60 C 162.87 170.31 163.55 169.15 163.25 168.01 C 162.95 166.88 161.79 166.21 160.66 166.50 L 159.66 166.77 C 158.53 167.06 157.85 168.22 158.15 169.36 C 158.45 170.49 159.61 171.17 160.74 170.87 Z M 161.78 170.57 L 162.72 170.30 C 163.84 169.98 164.48 168.82 164.16 167.70 C 163.84 166.59 162.68 165.94 161.56 166.26 L 160.62 166.53 C 159.50 166.85 158.86 168.02 159.18 169.13 C 159.50 170.25 160.66 170.89 161.78 170.57 Z M 162.76 170.26 L 163.67 169.98 C 164.76 169.64 165.37 168.48 165.04 167.39 C 164.70 166.29 163.53 165.68 162.44 166.02 L 161.53 166.30 C 160.44 166.64 159.82 167.80 160.16 168.90 C 160.50 169.99 161.66 170.60 162.76 170.26 Z M 163.69 169.95 L 164.64 169.64 C 165.72 169.28 166.30 168.13 165.95 167.05 C 165.59 165.97 164.44 165.39 163.36 165.74 L 162.41 166.05 C 161.34 166.41 160.75 167.57 161.11 168.64 C 161.46 169.72 162.62 170.30 163.69 169.95 Z M 164.66 169.60 L 165.60 169.28 C 166.66 168.91 167.22 167.76 166.85 166.70 C 166.49 165.64 165.33 165.08 164.28 165.45 L 163.34 165.78 C 162.28 166.14 161.72 167.30 162.09 168.35 C 162.45 169.41 163.61 169.97 164.66 169.60 Z M 165.61 169.24 L 166.56 168.91 C 167.60 168.54 168.14 167.39 167.76 166.35 C 167.39 165.31 166.25 164.77 165.21 165.15 L 164.27 165.48 C 163.23 165.85 162.69 167.00 163.06 168.04 C 163.43 169.07 164.58 169.62 165.61 169.24 Z M 166.56 168.88 L 167.34 168.60 C 168.36 168.22 168.89 167.09 168.52 166.06 C 168.14 165.04 167.01 164.51 165.99 164.89 L 165.21 165.17 C 164.18 165.55 163.66 166.68 164.03 167.70 C 164.40 168.73 165.54 169.25 166.56 168.88 Z M 167.37 168.56 L 168.37 168.17 C 169.38 167.78 169.88 166.65 169.48 165.64 C 169.09 164.64 167.96 164.14 166.95 164.53 L 165.95 164.92 C 164.95 165.31 164.45 166.44 164.84 167.45 C 165.23 168.46 166.37 168.95 167.37 168.56 Z M 168.40 168.14 L 169.36 167.75 C 170.35 167.34 170.82 166.21 170.41 165.22 C 170.00 164.23 168.87 163.76 167.88 164.17 L 166.92 164.56 C 165.93 164.97 165.46 166.10 165.87 167.09 C 166.28 168.08 167.41 168.55 168.40 168.14 Z M 169.39 167.73 L 170.32 167.32 C 171.30 166.90 171.75 165.76 171.33 164.79 C 170.90 163.81 169.77 163.36 168.79 163.78 L 167.86 164.19 C 166.88 164.61 166.43 165.75 166.85 166.72 C 167.28 167.70 168.41 168.15 169.39 167.73 Z M 170.36 167.29 L 171.32 166.85 C 172.28 166.41 172.70 165.27 172.26 164.31 C 171.81 163.35 170.68 162.93 169.72 163.37 L 168.76 163.81 C 167.80 164.25 167.38 165.39 167.82 166.35 C 168.26 167.31 169.40 167.73 170.36 167.29 Z M 171.38 166.81 L 172.26 166.36 C 173.20 165.89 173.57 164.74 173.10 163.80 C 172.62 162.87 171.48 162.49 170.54 162.96 L 169.66 163.41 C 168.72 163.89 168.34 165.03 168.82 165.97 C 169.29 166.91 170.44 167.28 171.38 166.81 Z M 172.37 166.28 L 173.34 165.69 C 174.24 165.15 174.52 164.00 173.99 163.11 C 173.45 162.22 172.30 161.93 171.40 162.46 L 170.43 163.05 C 169.54 163.59 169.25 164.74 169.78 165.63 C 170.32 166.52 171.48 166.81 172.37 166.28 Z M 173.47 165.57 L 174.23 165.01 C 175.05 164.40 175.23 163.25 174.63 162.43 C 174.03 161.60 172.87 161.42 172.05 162.03 L 171.28 162.59 C 170.46 163.19 170.28 164.34 170.88 165.17 C 171.49 165.99 172.64 166.17 173.47 165.57 Z M 174.28 164.93 L 174.77 164.54 C 175.55 163.91 175.67 162.76 175.04 161.98 C 174.40 161.20 173.26 161.08 172.48 161.71 L 172.00 162.10 C 171.22 162.74 171.10 163.88 171.73 164.66 C 172.36 165.44 173.50 165.56 174.28 164.93 Z"
      fill="black"
      fill-rule="nonzero" /><path d="M 161.06 160.66 L 160.98 161.66 C 160.89 162.77 161.72 163.74 162.83 163.83 C 163.94 163.92 164.92 163.09 165.01 161.98 L 165.09 160.98 C 165.18 159.87 164.35 158.90 163.24 158.81 C 162.13 158.72 161.15 159.55 161.06 160.66 Z M 160.95 161.73 L 160.91 162.73 C 160.87 163.86 161.74 164.81 162.87 164.86 C 164.00 164.90 164.95 164.03 164.99 162.90 L 165.04 161.90 C 165.08 160.78 164.21 159.83 163.08 159.78 C 161.95 159.73 161.00 160.61 160.95 161.73 Z M 160.90 162.88 L 160.92 163.84 C 160.96 164.98 161.91 165.87 163.04 165.84 C 164.18 165.80 165.07 164.86 165.04 163.72 L 165.01 162.76 C 164.98 161.62 164.03 160.73 162.89 160.76 C 161.76 160.79 160.86 161.74 160.90 162.88 Z M 160.93 163.94 L 161.00 164.93 C 161.09 166.06 162.09 166.91 163.22 166.82 C 164.36 166.73 165.20 165.73 165.11 164.60 L 165.04 163.62 C 164.95 162.48 163.95 161.63 162.82 161.72 C 161.68 161.81 160.84 162.81 160.93 163.94 Z M 161.01 164.93 L 161.09 165.97 C 161.18 167.11 162.17 167.95 163.31 167.86 C 164.44 167.77 165.29 166.78 165.20 165.65 L 165.11 164.60 C 165.02 163.47 164.03 162.62 162.90 162.71 C 161.76 162.80 160.92 163.79 161.01 164.93 Z M 161.09 165.92 L 161.15 166.96 C 161.21 168.09 162.18 168.96 163.32 168.89 C 164.45 168.83 165.32 167.86 165.25 166.72 L 165.19 165.69 C 165.13 164.56 164.16 163.69 163.03 163.76 C 161.89 163.82 161.03 164.79 161.09 165.92 Z M 161.16 166.92 L 161.20 167.93 C 161.24 169.06 162.19 169.94 163.32 169.89 C 164.45 169.85 165.33 168.89 165.29 167.77 L 165.25 166.76 C 165.20 165.63 164.25 164.75 163.12 164.80 C 161.99 164.84 161.11 165.79 161.16 166.92 Z M 161.20 167.90 L 161.23 168.93 C 161.26 170.05 162.19 170.94 163.32 170.91 C 164.44 170.89 165.33 169.95 165.30 168.83 L 165.28 167.80 C 165.25 166.67 164.32 165.78 163.19 165.81 C 162.07 165.84 161.18 166.77 161.20 167.90 Z M 161.24 168.89 L 161.25 169.87 C 161.26 170.99 162.17 171.89 163.29 171.88 C 164.41 171.87 165.31 170.95 165.30 169.83 L 165.29 168.86 C 165.28 167.74 164.37 166.84 163.25 166.85 C 162.13 166.86 161.23 167.78 161.24 168.89 Z M 161.26 169.85 L 161.26 170.79 C 161.26 171.90 162.16 172.80 163.27 172.80 C 164.39 172.80 165.29 171.90 165.29 170.79 L 165.29 169.85 C 165.29 168.74 164.39 167.84 163.28 167.84 C 162.16 167.84 161.26 168.74 161.26 169.85 Z M 161.27 170.77 L 161.26 171.77 C 161.25 172.88 162.14 173.78 163.24 173.80 C 164.35 173.81 165.25 172.92 165.27 171.82 L 165.28 170.81 C 165.29 169.71 164.40 168.80 163.30 168.79 C 162.19 168.78 161.29 169.66 161.27 170.77 Z M 161.27 171.72 L 161.23 172.73 C 161.19 173.83 162.05 174.76 163.14 174.80 C 164.24 174.85 165.17 173.99 165.21 172.89 L 165.25 171.87 C 165.30 170.78 164.44 169.85 163.34 169.81 C 162.24 169.76 161.32 170.62 161.27 171.72 Z M 161.25 172.64 L 161.16 173.63 C 161.07 174.72 161.87 175.68 162.96 175.78 C 164.05 175.88 165.01 175.07 165.11 173.98 L 165.19 172.99 C 165.29 171.90 164.49 170.94 163.40 170.84 C 162.31 170.75 161.35 171.55 161.25 172.64 Z M 161.20 173.48 L 161.03 174.48 C 160.85 175.55 161.57 176.56 162.64 176.74 C 163.71 176.93 164.72 176.21 164.90 175.14 L 165.07 174.14 C 165.25 173.07 164.53 172.05 163.46 171.87 C 162.39 171.69 161.38 172.41 161.20 173.48 Z M 161.07 174.36 L 160.84 175.31 C 160.59 176.36 161.24 177.41 162.29 177.65 C 163.34 177.90 164.39 177.25 164.64 176.20 L 164.86 175.25 C 165.11 174.21 164.46 173.16 163.41 172.91 C 162.36 172.66 161.31 173.31 161.07 174.36 Z M 160.87 175.26 L 160.63 176.16 C 160.36 177.19 160.97 178.25 162.01 178.53 C 163.04 178.80 164.10 178.18 164.38 177.15 L 164.61 176.25 C 164.89 175.22 164.27 174.16 163.24 173.88 C 162.20 173.61 161.14 174.22 160.87 175.26 Z M 160.68 176.05 L 160.35 177.05 C 160.01 178.05 160.56 179.14 161.57 179.48 C 162.58 179.81 163.66 179.26 164.00 178.26 L 164.33 177.26 C 164.66 176.25 164.12 175.16 163.11 174.83 C 162.10 174.49 161.01 175.04 160.68 176.05 Z M 160.40 176.94 L 160.04 177.84 C 159.65 178.82 160.13 179.93 161.11 180.32 C 162.09 180.71 163.20 180.24 163.59 179.26 L 163.95 178.36 C 164.34 177.38 163.86 176.27 162.88 175.88 C 161.90 175.49 160.79 175.96 160.40 176.94 Z M 160.09 177.75 L 159.65 178.69 C 159.21 179.64 159.63 180.77 160.58 181.22 C 161.53 181.66 162.66 181.24 163.10 180.29 L 163.54 179.35 C 163.98 178.39 163.57 177.26 162.61 176.82 C 161.66 176.38 160.53 176.80 160.09 177.75 Z M 159.72 178.58 L 159.21 179.51 C 158.71 180.42 159.04 181.57 159.95 182.07 C 160.87 182.58 162.01 182.25 162.52 181.33 L 163.03 180.40 C 163.53 179.49 163.20 178.34 162.29 177.84 C 161.38 177.33 160.23 177.67 159.72 178.58 Z M 159.32 179.36 L 158.74 180.20 C 158.16 181.05 158.37 182.22 159.23 182.80 C 160.08 183.39 161.25 183.17 161.83 182.32 L 162.41 181.48 C 163.00 180.63 162.78 179.46 161.93 178.88 C 161.07 178.29 159.90 178.51 159.32 179.36 Z M 158.92 180.00 L 158.28 180.70 C 157.58 181.46 157.64 182.64 158.39 183.33 C 159.15 184.02 160.33 183.97 161.02 183.21 L 161.66 182.51 C 162.36 181.76 162.30 180.58 161.54 179.89 C 160.79 179.19 159.61 179.24 158.92 180.00 Z M 158.57 180.46 L 157.74 181.05 C 156.92 181.65 156.73 182.81 157.33 183.63 C 157.93 184.46 159.08 184.65 159.91 184.05 L 160.73 183.46 C 161.56 182.86 161.75 181.70 161.15 180.87 C 160.55 180.05 159.40 179.86 158.57 180.46 Z M 158.08 180.87 L 157.20 181.26 C 156.27 181.67 155.85 182.76 156.27 183.69 C 156.68 184.62 157.77 185.04 158.70 184.62 L 159.57 184.24 C 160.50 183.82 160.92 182.73 160.51 181.80 C 160.10 180.87 159.01 180.45 158.08 180.87 Z M 157.46 181.17 L 156.59 181.41 C 155.61 181.68 155.03 182.69 155.30 183.67 C 155.58 184.65 156.59 185.23 157.57 184.96 L 158.44 184.71 C 159.42 184.44 159.99 183.43 159.72 182.45 C 159.45 181.47 158.44 180.90 157.46 181.17 Z M 156.76 181.37 L 155.70 181.55 C 154.70 181.73 154.03 182.69 154.21 183.69 C 154.39 184.69 155.35 185.36 156.35 185.18 L 157.40 185.00 C 158.40 184.82 159.07 183.86 158.89 182.86 C 158.72 181.86 157.76 181.19 156.76 181.37 Z M 155.78 181.53 L 154.77 181.66 C 153.75 181.80 153.04 182.74 153.17 183.75 C 153.31 184.77 154.25 185.49 155.26 185.35 L 156.27 185.21 C 157.29 185.07 158.01 184.14 157.87 183.12 C 157.73 182.10 156.79 181.39 155.78 181.53 Z M 154.79 181.63 L 153.75 181.76 C 152.72 181.88 151.98 182.83 152.11 183.86 C 152.23 184.90 153.18 185.63 154.21 185.51 L 155.24 185.38 C 156.28 185.25 157.02 184.31 156.89 183.28 C 156.76 182.24 155.82 181.50 154.79 181.63 Z M 153.75 181.73 L 152.76 181.85 C 151.70 181.98 150.95 182.94 151.08 183.99 C 151.21 185.04 152.17 185.79 153.23 185.66 L 154.22 185.54 C 155.27 185.41 156.02 184.45 155.89 183.40 C 155.76 182.34 154.80 181.60 153.75 181.73 Z M 152.70 181.79 L 151.41 181.98 C 150.32 182.14 149.57 183.15 149.73 184.23 C 149.89 185.31 150.90 186.07 151.98 185.91 L 153.28 185.72 C 154.36 185.56 155.11 184.55 154.95 183.47 C 154.80 182.38 153.79 181.63 152.70 181.79 Z M 150.99 181.98 L 150.59 182.13 C 149.51 182.52 148.95 183.71 149.35 184.80 C 149.74 185.88 150.93 186.44 152.01 186.04 L 152.41 185.90 C 153.49 185.51 154.05 184.32 153.65 183.23 C 153.26 182.15 152.07 181.59 150.99 181.98 Z M 151.23 186.25 L 152.28 186.29 C 153.48 186.33 154.48 185.39 154.52 184.19 C 154.56 182.99 153.62 181.99 152.42 181.95 L 151.38 181.92 C 150.18 181.88 149.18 182.82 149.14 184.01 C 149.10 185.21 150.04 186.21 151.23 186.25 Z M 152.35 186.33 L 153.40 186.33 C 154.62 186.33 155.61 185.34 155.61 184.12 C 155.61 182.90 154.62 181.91 153.40 181.91 L 152.35 181.91 C 151.13 181.91 150.14 182.90 150.14 184.12 C 150.14 185.34 151.13 186.33 152.35 186.33 Z M 153.40 186.34 L 154.41 186.34 C 155.64 186.34 156.63 185.35 156.63 184.12 C 156.63 182.89 155.64 181.90 154.41 181.90 L 153.40 181.90 C 152.17 181.90 151.17 182.89 151.17 184.12 C 151.17 185.35 152.17 186.34 153.40 186.34 Z M 154.41 186.35 L 155.38 186.35 C 156.61 186.35 157.61 185.35 157.61 184.12 C 157.61 182.88 156.61 181.89 155.37 181.89 L 154.41 181.89 C 153.17 181.89 152.18 182.89 152.18 184.12 C 152.18 185.36 153.18 186.35 154.41 186.35 Z M 155.42 186.35 L 156.42 186.34 C 157.65 186.32 158.64 185.30 158.61 184.06 C 158.59 182.83 157.58 181.85 156.34 181.87 L 155.34 181.88 C 154.11 181.90 153.12 182.92 153.14 184.16 C 153.16 185.39 154.18 186.37 155.42 186.35 Z M 156.49 186.34 L 157.54 186.29 C 158.78 186.23 159.73 185.18 159.67 183.94 C 159.61 182.71 158.56 181.76 157.33 181.82 L 156.27 181.87 C 155.04 181.93 154.09 182.98 154.15 184.21 C 154.21 185.44 155.25 186.40 156.49 186.34 Z M 157.62 186.28 L 158.66 186.19 C 159.90 186.09 160.81 185.01 160.71 183.78 C 160.60 182.54 159.52 181.63 158.29 181.73 L 157.25 181.82 C 156.02 181.92 155.10 183.01 155.21 184.24 C 155.31 185.47 156.39 186.38 157.62 186.28 Z M 158.71 186.19 L 159.69 186.09 C 160.92 185.96 161.82 184.85 161.69 183.62 C 161.56 182.40 160.45 181.50 159.23 181.63 L 158.24 181.74 C 157.01 181.87 156.12 182.97 156.25 184.20 C 156.38 185.43 157.48 186.32 158.71 186.19 Z M 159.72 186.08 L 160.74 185.96 C 161.97 185.82 162.85 184.71 162.71 183.49 C 162.56 182.26 161.46 181.38 160.23 181.52 L 159.20 181.64 C 157.98 181.78 157.10 182.89 157.24 184.12 C 157.38 185.34 158.49 186.22 159.72 186.08 Z M 160.74 185.96 L 161.70 185.85 C 162.92 185.70 163.80 184.59 163.65 183.37 C 163.51 182.14 162.40 181.27 161.17 181.41 L 160.22 181.53 C 159.00 181.67 158.12 182.78 158.27 184.00 C 158.41 185.23 159.52 186.10 160.74 185.96 Z M 161.70 185.84 L 162.65 185.73 C 163.87 185.58 164.74 184.48 164.60 183.26 C 164.46 182.04 163.35 181.16 162.13 181.31 L 161.17 181.42 C 159.95 181.56 159.08 182.67 159.23 183.89 C 159.37 185.11 160.48 185.98 161.70 185.84 Z M 162.67 185.72 L 163.67 185.59 C 164.88 185.44 165.74 184.33 165.59 183.12 C 165.44 181.90 164.33 181.04 163.11 181.19 L 162.11 181.32 C 160.90 181.47 160.04 182.58 160.19 183.79 C 160.34 185.01 161.45 185.87 162.67 185.72 Z M 163.70 185.58 L 164.66 185.45 C 165.87 185.28 166.71 184.16 166.54 182.95 C 166.37 181.74 165.25 180.90 164.04 181.07 L 163.08 181.20 C 161.87 181.37 161.03 182.49 161.20 183.70 C 161.37 184.91 162.49 185.75 163.70 185.58 Z M 164.66 185.44 L 165.67 185.30 C 166.88 185.13 167.72 184.01 167.55 182.81 C 167.38 181.60 166.26 180.76 165.06 180.93 L 164.04 181.08 C 162.84 181.24 162.00 182.36 162.17 183.56 C 162.34 184.77 163.45 185.61 164.66 185.44 Z M 165.65 185.29 L 166.64 185.16 C 167.84 185.01 168.69 183.91 168.53 182.71 C 168.38 181.50 167.28 180.65 166.07 180.81 L 165.09 180.94 C 163.88 181.09 163.03 182.19 163.19 183.40 C 163.35 184.60 164.45 185.45 165.65 185.29 Z M 166.61 185.16 L 167.62 185.04 C 168.81 184.89 169.67 183.81 169.53 182.61 C 169.38 181.41 168.30 180.55 167.10 180.70 L 166.10 180.82 C 164.90 180.96 164.04 182.05 164.19 183.25 C 164.33 184.44 165.42 185.30 166.61 185.16 Z M 167.60 185.03 L 168.60 184.92 C 169.80 184.79 170.66 183.71 170.53 182.52 C 170.40 181.32 169.32 180.46 168.13 180.59 L 167.12 180.70 C 165.92 180.84 165.06 181.91 165.19 183.11 C 165.32 184.30 166.40 185.16 167.60 185.03 Z M 168.59 184.91 L 169.57 184.81 C 170.76 184.69 171.63 183.62 171.50 182.43 C 171.38 181.24 170.31 180.37 169.12 180.50 L 168.14 180.60 C 166.95 180.72 166.08 181.79 166.21 182.98 C 166.33 184.17 167.40 185.04 168.59 184.91 Z M 169.56 184.80 L 170.56 184.70 C 171.74 184.58 172.60 183.52 172.48 182.34 C 172.36 181.15 171.31 180.29 170.12 180.41 L 169.13 180.51 C 167.94 180.63 167.08 181.69 167.20 182.87 C 167.32 184.06 168.38 184.92 169.56 184.80 Z M 170.53 184.68 L 171.53 184.59 C 172.70 184.49 173.57 183.45 173.47 182.27 C 173.36 181.09 172.32 180.23 171.14 180.33 L 170.15 180.42 C 168.97 180.53 168.10 181.57 168.21 182.75 C 168.31 183.92 169.35 184.79 170.53 184.68 Z M 171.49 184.58 L 172.49 184.50 C 173.66 184.41 174.54 183.40 174.45 182.23 C 174.36 181.06 173.35 180.19 172.18 180.27 L 171.18 180.35 C 170.01 180.44 169.13 181.45 169.22 182.62 C 169.31 183.79 170.33 184.66 171.49 184.58 Z M 172.48 184.48 L 173.48 184.42 C 174.63 184.34 175.51 183.34 175.43 182.18 C 175.35 181.02 174.35 180.15 173.19 180.23 L 172.20 180.29 C 171.04 180.37 170.16 181.37 170.24 182.53 C 170.32 183.69 171.32 184.56 172.48 184.48 Z M 173.46 184.40 L 174.47 184.33 C 175.61 184.26 176.49 183.28 176.41 182.13 C 176.34 180.98 175.36 180.11 174.21 180.18 L 173.21 180.25 C 172.06 180.32 171.19 181.30 171.26 182.45 C 171.33 183.59 172.32 184.47 173.46 184.40 Z M 174.42 184.31 L 175.41 184.28 C 176.54 184.23 177.43 183.28 177.39 182.14 C 177.34 181.01 176.39 180.12 175.25 180.16 L 174.26 180.20 C 173.12 180.25 172.24 181.20 172.28 182.34 C 172.33 183.47 173.28 184.36 174.42 184.31 Z M 175.36 184.26 L 176.36 184.24 C 177.48 184.22 178.38 183.30 178.36 182.17 C 178.34 181.05 177.42 180.15 176.29 180.17 L 175.30 180.18 C 174.17 180.20 173.27 181.13 173.29 182.25 C 173.31 183.38 174.23 184.27 175.36 184.26 Z M 176.37 184.22 L 177.30 184.20 C 178.41 184.17 179.29 183.25 179.27 182.14 C 179.24 181.03 178.32 180.15 177.21 180.17 L 176.28 180.19 C 175.17 180.22 174.29 181.14 174.31 182.25 C 174.34 183.36 175.26 184.24 176.37 184.22 Z M 177.31 184.17 L 178.31 184.15 C 179.41 184.12 180.27 183.21 180.25 182.11 C 180.22 181.01 179.31 180.14 178.21 180.17 L 177.20 180.20 C 176.11 180.23 175.24 181.14 175.27 182.24 C 175.30 183.33 176.21 184.20 177.31 184.17 Z M 178.28 184.12 L 179.35 184.11 C 180.43 184.10 181.30 183.21 181.29 182.12 C 181.27 181.04 180.38 180.17 179.30 180.18 L 178.24 180.20 C 177.15 180.21 176.28 181.10 176.30 182.18 C 176.31 183.27 177.20 184.14 178.28 184.12 Z M 179.28 184.09 L 180.33 184.11 C 181.40 184.14 182.29 183.29 182.31 182.21 C 182.34 181.14 181.49 180.25 180.41 180.23 L 179.37 180.20 C 178.30 180.18 177.41 181.03 177.38 182.10 C 177.36 183.18 178.21 184.07 179.28 184.09 Z M 180.18 184.09 L 181.13 184.18 C 182.19 184.29 183.13 183.52 183.24 182.46 C 183.35 181.40 182.58 180.46 181.52 180.35 L 180.57 180.25 C 179.51 180.15 178.56 180.92 178.46 181.97 C 178.35 183.03 179.12 183.98 180.18 184.09 Z M 180.74 184.07 L 181.77 184.40 C 182.76 184.72 183.83 184.17 184.15 183.18 C 184.47 182.18 183.92 181.12 182.93 180.80 L 181.90 180.47 C 180.91 180.15 179.85 180.69 179.52 181.69 C 179.20 182.68 179.75 183.75 180.74 184.07 Z M 181.42 184.19 L 181.99 184.52 C 182.87 185.03 184.00 184.74 184.51 183.86 C 185.02 182.98 184.73 181.86 183.85 181.34 L 183.28 181.01 C 182.40 180.49 181.27 180.79 180.76 181.67 C 180.24 182.55 180.54 183.67 181.42 184.19 Z"
      fill="black"
      fill-rule="nonzero" /></svg>