<svg xmlns="http://www.w3.org/2000/svg" width="300" height="300" viewBox="0 0 300 300">
<path d="M 111.9310178111735 118.30450876508462 L 114.37283664524834 118.90761018300324 L 117.48934258675664 119.46947063135067 L 119.46934269300546 119.6553010516568 L 121.71346497381823 119.92792538363524 L 124.1844550821893 120.06652338295996 L 126.61831708321546 120.14821224427293 L 128.90040292491977 120.16682231368144 L 131.2280166784129 120.19140755273192 L 133.26973965500108 120.1511302584716 L 137.0169420352381 119.26666104601117 L 136.1910657772619 115.75372469617633 L 132.70010897781142 116.5709156399659 L 131.2848007043996 116.53063834570558 L 129.00303945789273 116.43010151444356 L 126.78378252615954 116.32358951353957 L 124.4642265584357 116.13000982016504 L 122.18179869805677 115.86821719448976 L 120.06862117418204 115.4902067608432 L 118.23148260855586 115.15052448583683 L 115.26217312037666 114.53623747324676 L 112.842541759139 114.08831350054038 Z" fill="black" />
<path d="M 108.94687425080473 133.5348144306577 L 110.95039088124575 133.76170462581285 L 115.7160490912792 132.83336890437235 L 118.02605372228732 132.4446009056248 L 120.57742477647595 132.04967079167056 L 123.23087281883082 131.63944474266657 L 126.07776859011886 131.29247499009978 L 128.40172286519805 131.068908052126 L 130.32371461253712 130.91649890455147 L 133.45344902443756 130.89762134871572 L 133.74114528880241 128.9913496955218 L 132.71793304147778 127.72129668511741 L 130.65465976906347 128.5872014289249 L 128.48061706430812 129.7139401167224 L 126.35074242022763 130.7994869691857 L 123.33817758301656 132.64996145844137 L 121.14143273603067 134.20382035622686 L 119.09772276434289 135.90661559221712 L 117.0313263052081 137.89140494920744 L 115.70420767195138 139.29079203633557 L 114.613023783152 140.52363589533505 L 113.54381143716691 141.81305111740824 L 112.40974332439504 143.16695958089952 L 111.26490971538334 144.68678977280183 L 110.24352420540858 146.09706918302874 L 109.00549596858458 147.81130241845185 L 108.08866376003412 149.2004572462991 L 107.19009861025091 150.5841054585327 L 105.92452137480217 152.90774730535801 L 106.56253977340212 157.1271183865739 L 110.10838993449529 155.98799324699004 L 108.57935420612971 152.72929190925996 L 107.91194753128538 153.5670954806136 L 109.59427745332283 154.60836597589199 L 110.70540920224909 152.7279062602173 L 111.53535967746588 151.5840886521384 L 112.45507532047792 150.34568000342315 L 113.73779903677892 148.75669058259626 L 114.80503657367916 147.41428444594817 L 115.92887972247996 146.03128260660048 L 117.02747762533309 144.75762759352926 L 118.0828990684105 143.51957699528995 L 119.08033822648612 142.40012593241443 L 120.2739715463544 141.14692512891756 L 122.16875672784461 139.32800354840788 L 123.94218542803183 137.85269819846064 L 125.85066519042094 136.50372506499613 L 128.63582984539738 134.8007327573768 L 130.61117981069188 133.7842288285901 L 132.65039394187403 132.6587702507626 L 134.44027008352222 131.8230148383201 L 138.02643283619759 128.7011551872907 L 133.56071113181244 126.51961497940927 L 130.20851194996288 126.50073742357354 L 128.06128983011445 126.62359683068651 L 125.63182613644364 126.80042051771271 L 122.64498167335668 127.10408553077094 L 119.89681838758655 127.49464073176692 L 117.29865330896268 127.87546745375019 L 114.8552399712208 128.28748070500265 L 110.36613743906675 129.21095162418715 L 109.34475172575777 129.1625732646548 Z" fill="black" />
<path d="M 121.17825866438844 142.62302526877374 L 121.64178453858192 143.44561098172318 L 121.71069716868618 145.70803346063678 L 121.76718837904089 147.65685408024942 L 121.77432489395142 149.86676025390625 L 121.78772306442261 152.56939697265625 L 121.80409741401672 155.5347900390625 L 121.82619285583496 158.70037841796875 L 121.85230326652527 161.80340576171875 L 121.89963128246322 165.01033527965893 L 121.89391116507116 167.41098668629914 L 121.88232059365393 169.48402222908106 L 121.76086165587344 174.12545940508718 L 125.92329168656755 170.7382648525775 L 122.32927178999495 170.38563651461 L 125.84350846131406 173.60488727460032 L 126.11816768759607 169.66295042716894 L 126.25062008492884 167.53188440745086 L 126.35293219409928 165.05277507190357 L 126.40026021003723 161.80340576171875 L 126.42637062072754 158.70037841796875 L 126.44846606254578 155.5347900390625 L 126.46484041213989 152.56939697265625 L 126.47823858261108 149.86676025390625 L 126.48537509752161 147.59729631037558 L 126.43383408131382 145.46713743780072 L 126.10662854735558 141.92389585421432 L 124.04940246842406 139.99379602028876 Z" fill="black" />
<path d="M 122.47044898320087 148.4848611033051 L 124.8348505496735 149.88423131695052 L 127.84056252884119 150.56915414215135 L 129.64684231474862 150.76288212759874 L 131.531697871448 150.948906635358 L 133.45734923920585 151.06449988725632 L 135.48558528662517 151.121307196558 L 137.45432757721923 151.18838504147277 L 139.61630622932054 151.20952670837005 L 141.25682576376377 151.20506583228828 L 144.1158046368435 151.1406994423918 L 144.036661183469 147.5417956747957 L 141.20594279092373 147.60255135521172 L 139.67751701286696 147.59809047912995 L 137.62623882903077 147.49411007571473 L 135.74183170556233 147.3109437800045 L 133.80888611235665 147.09248253461868 L 132.0614417769895 146.807685161517 L 130.38123385712638 146.46819697396376 L 128.8745253617838 146.01129019378615 L 126.4786260128265 145.36991907367448 L 124.48572777461163 144.5421164357574 Z" fill="black" />
<path d="M 152.5927734375 122.6245231628418 L 155.719740948169 122.7237327190856 L 157.3655775300629 122.64916712215947 L 159.09979211388438 122.57024736060872 L 161.163330078125 122.5565824508667 L 163.08990478515625 122.5470757484436 L 165.07049560546875 122.5470757484436 L 166.66578731911818 122.54134360691783 L 168.0162614426726 122.76495820586052 L 170.47762269476962 123.3739738389086 L 170.52771428445598 123.1265344397231 L 170.60812916516556 124.205622351336 L 169.41209878087594 125.87389419449826 L 168.5515210479608 126.84679074733353 L 167.3458900839634 127.9322767067235 L 166.15990881218787 129.0199106033818 L 164.8583632013144 129.96895434459793 L 163.57915854583212 130.8314137745714 L 161.44613432709878 131.77560430210823 L 158.06254761986793 132.05310593592563 L 158.32234007544457 135.64916457188687 L 162.21292329008872 135.40115351039177 L 165.22943520416788 134.2432932566786 L 166.9751328924356 133.25394604602707 L 168.59045739874963 132.2260610763057 L 170.0332603066616 131.08652212140152 L 171.4564135223517 129.91981081516647 L 172.86451254724906 128.51538803206424 L 174.83742747545944 125.454045617414 L 174.62975641866902 121.5032263024644 L 172.19510679741788 119.2788581923414 L 168.9667707838899 118.43645780976448 L 167.00425662619432 118.13455971339467 L 165.07049560546875 118.1288275718689 L 163.08990478515625 118.1288275718689 L 161.163330078125 118.1193208694458 L 159.01361120642812 118.10565595970378 L 157.1827623136871 118.17688268252803 L 155.659653583081 118.2274391559144 L 152.5927734375 118.3266487121582 Z" fill="black" />
<path d="M 152.6758276377924 124.72144439174183 L 152.7250868344488 126.0072966539089 L 152.78560648618287 129.13943461893749 L 152.7854061126709 131.2861328125 L 152.7854061126709 133.78857421875 L 152.7854061126709 136.8165283203125 L 152.7855243084117 140.35913902777122 L 152.71677153680784 143.81092685898815 L 152.39754696664 147.49446878071137 L 152.07356242805457 151.3644447770538 L 151.67981995250747 155.07561193623346 L 151.20948322096461 158.60053129022793 L 150.73523434685566 162.20045744676824 L 150.34194187972997 164.59840955800604 L 150.01842258809899 166.62853688121479 L 149.5395949081407 169.46163755290735 L 149.63862950923706 173.12759116090402 L 153.07028931590187 174.5135262009964 L 155.26337803358763 174.60386605021725 L 158.32716976005014 174.61390521278983 L 160.35292574586748 174.33461793380258 L 162.2821420219676 174.0125497973684 L 164.51008365096953 173.67570495410297 L 166.50703907850925 173.35032006368144 L 168.4884792181861 173.02771055747587 L 170.4566096124394 172.6993518323569 L 172.41777150378098 172.5130084966586 L 174.30967676384756 172.30481910937286 L 176.34238173952497 172.1526891964862 L 177.91783033813354 172.06906547761875 L 179.456787109375 172.04003739356995 L 182.50335288486392 172.01801189747127 L 186.44392068619084 171.8992882437796 L 189.43026116422064 170.11501982710874 L 189.68940849536943 166.497461656579 L 188.14289378445767 164.44668407230776 L 186.7860062348619 162.17801885887164 L 183.6149947417006 163.93123407081586 L 184.88689137179233 166.41720752925474 L 185.57304267650557 167.644628187171 L 185.58011481234186 167.85580536820376 L 185.79362814193416 167.3978308968454 L 182.46002602138608 167.40422931346623 L 179.456787109375 167.38220381736755 L 177.82679856811646 167.35317573331875 L 176.08925888547503 167.3946740847638 L 173.90870702521494 167.51781272656464 L 171.94746287121902 167.7100139642789 L 169.8394108953731 167.8990368395181 L 167.7023166802514 168.24633729408663 L 165.72257517930325 168.57436255350606 L 163.75834896621797 168.89961242870953 L 161.5209585639699 169.2384267651316 L 159.59702542600752 169.56699339432242 L 158.05771793526236 169.81321881064767 L 155.32378016953737 169.82325797322025 L 153.41164427784813 169.7884757521286 L 153.67435877201294 170.77402016722098 L 154.1695115371718 170.08572572834265 L 154.62696315408851 167.38843089222271 L 154.95163722183253 165.33957872324396 L 155.35058108283184 162.85777009229426 L 155.81261150559789 159.20061617070957 L 156.27855407093003 155.61860193095404 L 156.67704792350793 151.7974204573212 L 157.0012567442975 147.88480368022613 L 157.33022553350466 144.06102138319935 L 157.4055157306508 140.40587562066628 L 157.4056339263916 136.8165283203125 L 157.4056339263916 133.78857421875 L 157.4056339263916 131.2861328125 L 157.40543355287963 129.07858295918751 L 157.3219102358637 125.6293000257786 L 156.7229760731451 123.86217377232067 Z" fill="black" />
</svg>