<svg xmlns="http://www.w3.org/2000/svg" width="300" height="300" viewBox="0 0 300 300">
<path d="M 119.05 113.26 L 118.07 113.94 C 117.17 114.56 116.95 115.78 117.57 116.67 C 118.18 117.56 119.41 117.79 120.30 117.17 L 121.29 116.49 C 122.18 115.87 122.40 114.65 121.79 113.75 C 121.17 112.86 119.95 112.64 119.05 113.26 Z M 117.31 114.67 L 117.05 115.22 C 116.56 116.25 117.00 117.49 118.04 117.98 C 119.07 118.47 120.30 118.02 120.79 116.99 L 121.05 116.44 C 121.54 115.41 121.10 114.17 120.07 113.68 C 119.03 113.19 117.80 113.64 117.31 114.67 Z M 118.14 118.09 L 119.02 118.44 C 120.12 118.87 121.36 118.32 121.79 117.23 C 122.22 116.13 121.68 114.89 120.58 114.46 L 119.70 114.12 C 118.60 113.69 117.36 114.23 116.93 115.33 C 116.50 116.43 117.05 117.66 118.14 118.09 Z M 119.49 118.58 L 120.54 118.73 C 121.71 118.90 122.80 118.09 122.98 116.91 C 123.15 115.73 122.33 114.64 121.15 114.47 L 120.11 114.32 C 118.93 114.15 117.84 114.96 117.67 116.14 C 117.50 117.32 118.32 118.41 119.49 118.58 Z M 120.69 118.75 L 121.66 118.82 C 122.85 118.91 123.88 118.01 123.97 116.82 C 124.05 115.64 123.16 114.60 121.97 114.52 L 121.00 114.45 C 119.81 114.36 118.78 115.26 118.69 116.45 C 118.61 117.63 119.50 118.67 120.69 118.75 Z M 121.77 118.82 L 122.82 118.84 C 124.01 118.87 124.99 117.93 125.01 116.74 C 125.04 115.55 124.10 114.57 122.91 114.54 L 121.86 114.52 C 120.67 114.49 119.69 115.44 119.66 116.63 C 119.64 117.81 120.58 118.80 121.77 118.82 Z M 122.89 118.83 L 123.87 118.82 C 125.06 118.81 126.00 117.84 125.99 116.66 C 125.98 115.48 125.01 114.53 123.83 114.54 L 122.84 114.55 C 121.66 114.56 120.71 115.53 120.72 116.71 C 120.73 117.90 121.70 118.85 122.89 118.83 Z M 123.94 118.81 L 124.97 118.77 C 126.14 118.72 127.06 117.73 127.01 116.56 C 126.96 115.38 125.97 114.47 124.80 114.51 L 123.77 114.56 C 122.59 114.60 121.68 115.59 121.72 116.77 C 121.77 117.94 122.76 118.86 123.94 118.81 Z M 125.05 118.75 L 126.05 118.67 C 127.21 118.58 128.08 117.56 127.99 116.40 C 127.90 115.23 126.88 114.37 125.72 114.46 L 124.72 114.54 C 123.56 114.63 122.69 115.64 122.78 116.81 C 122.87 117.97 123.89 118.84 125.05 118.75 Z M 126.16 118.62 L 127.11 118.50 C 128.25 118.35 129.05 117.31 128.90 116.17 C 128.75 115.03 127.70 114.22 126.57 114.37 L 125.62 114.50 C 124.48 114.65 123.67 115.69 123.82 116.83 C 123.97 117.97 125.02 118.77 126.16 118.62 Z M 127.21 118.44 L 128.17 118.26 C 129.28 118.06 130.01 116.99 129.81 115.89 C 129.60 114.78 128.54 114.05 127.43 114.25 L 126.46 114.43 C 125.36 114.64 124.63 115.70 124.83 116.81 C 125.04 117.92 126.10 118.65 127.21 118.44 Z M 128.24 118.21 L 129.27 117.98 C 130.35 117.73 131.03 116.66 130.79 115.59 C 130.54 114.51 129.47 113.83 128.40 114.07 L 127.36 114.31 C 126.29 114.55 125.61 115.62 125.85 116.70 C 126.09 117.78 127.16 118.45 128.24 118.21 Z M 129.30 117.94 L 130.31 117.69 C 131.37 117.43 132.01 116.36 131.75 115.31 C 131.49 114.25 130.43 113.61 129.37 113.87 L 128.37 114.12 C 127.31 114.38 126.67 115.44 126.93 116.50 C 127.19 117.55 128.25 118.19 129.30 117.94 Z M 130.32 117.66 L 131.34 117.39 C 132.38 117.13 133.00 116.07 132.74 115.04 C 132.47 114.00 131.41 113.37 130.38 113.64 L 129.36 113.90 C 128.32 114.17 127.70 115.22 127.96 116.26 C 128.23 117.30 129.29 117.92 130.32 117.66 Z M 131.34 117.36 L 132.28 117.12 C 133.30 116.85 133.91 115.81 133.64 114.79 C 133.38 113.77 132.33 113.16 131.31 113.42 L 130.37 113.67 C 129.35 113.94 128.74 114.98 129.01 116.00 C 129.28 117.02 130.32 117.63 131.34 117.36 Z M 132.28 117.09 L 133.35 116.80 C 134.36 116.54 134.95 115.51 134.69 114.51 C 134.43 113.51 133.40 112.91 132.40 113.17 L 131.32 113.46 C 130.32 113.72 129.72 114.75 129.98 115.75 C 130.25 116.75 131.27 117.35 132.28 117.09 Z M 133.34 116.76 L 134.23 116.53 C 135.21 116.27 135.80 115.27 135.54 114.29 C 135.29 113.30 134.28 112.72 133.30 112.98 L 132.41 113.21 C 131.43 113.47 130.84 114.47 131.10 115.45 C 131.36 116.43 132.36 117.02 133.34 116.76 Z M 134.22 116.50 L 134.53 116.42 C 135.50 116.17 136.07 115.18 135.82 114.22 C 135.57 113.25 134.58 112.67 133.61 112.92 L 133.31 113.00 C 132.34 113.26 131.76 114.24 132.02 115.21 C 132.27 116.18 133.26 116.76 134.22 116.50 Z"
      fill="black"
      fill-rule="nonzero" /><path d="M 113.81 134.69 L 114.79 134.78 C 115.89 134.87 116.86 134.06 116.96 132.95 C 117.05 131.85 116.24 130.88 115.13 130.78 L 114.15 130.70 C 113.05 130.60 112.08 131.42 111.98 132.52 C 111.89 133.63 112.70 134.60 113.81 134.69 Z M 114.96 134.87 L 115.97 134.88 C 117.12 134.88 118.06 133.95 118.07 132.79 C 118.07 131.64 117.13 130.70 115.98 130.69 L 114.97 130.69 C 113.81 130.68 112.87 131.62 112.87 132.77 C 112.87 133.93 113.80 134.87 114.96 134.87 Z M 116.24 134.91 L 117.25 134.78 C 118.43 134.63 119.26 133.56 119.11 132.39 C 118.96 131.21 117.89 130.38 116.71 130.53 L 115.70 130.66 C 114.53 130.81 113.70 131.88 113.85 133.05 C 114.00 134.23 115.07 135.06 116.24 134.91 Z M 117.44 134.75 L 118.40 134.54 C 119.56 134.29 120.29 133.15 120.04 131.99 C 119.79 130.84 118.65 130.10 117.49 130.35 L 116.53 130.56 C 115.37 130.81 114.64 131.95 114.89 133.11 C 115.14 134.27 116.28 135.00 117.44 134.75 Z M 118.51 134.52 L 119.50 134.25 C 120.64 133.94 121.32 132.77 121.01 131.62 C 120.70 130.48 119.52 129.80 118.38 130.11 L 117.39 130.38 C 116.24 130.68 115.57 131.86 115.88 133.01 C 116.18 134.15 117.36 134.83 118.51 134.52 Z M 119.60 134.22 L 120.51 133.93 C 121.64 133.56 122.26 132.35 121.89 131.23 C 121.53 130.10 120.32 129.48 119.19 129.84 L 118.28 130.14 C 117.15 130.50 116.53 131.71 116.90 132.84 C 117.26 133.97 118.47 134.59 119.60 134.22 Z M 120.59 133.90 L 121.52 133.56 C 122.63 133.15 123.20 131.92 122.79 130.81 C 122.38 129.69 121.15 129.12 120.04 129.53 L 119.11 129.87 C 118.00 130.28 117.43 131.51 117.84 132.62 C 118.25 133.74 119.48 134.31 120.59 133.90 Z M 121.57 133.53 L 122.50 133.16 C 123.60 132.73 124.14 131.48 123.70 130.39 C 123.26 129.29 122.02 128.75 120.92 129.19 L 119.99 129.55 C 118.89 129.99 118.35 131.23 118.79 132.33 C 119.23 133.43 120.47 133.97 121.57 133.53 Z M 122.53 133.15 L 123.45 132.76 C 124.54 132.31 125.06 131.07 124.61 129.98 C 124.16 128.89 122.91 128.37 121.82 128.82 L 120.90 129.20 C 119.81 129.65 119.29 130.90 119.74 131.99 C 120.19 133.08 121.44 133.60 122.53 133.15 Z M 123.47 132.75 L 124.39 132.36 C 125.47 131.90 125.98 130.66 125.52 129.57 C 125.06 128.49 123.82 127.99 122.74 128.44 L 121.81 128.83 C 120.73 129.29 120.23 130.54 120.68 131.62 C 121.14 132.70 122.38 133.21 123.47 132.75 Z M 124.40 132.34 L 125.32 131.95 C 126.39 131.49 126.88 130.25 126.43 129.17 C 125.97 128.10 124.72 127.61 123.65 128.07 L 122.73 128.46 C 121.66 128.92 121.16 130.16 121.62 131.23 C 122.08 132.31 123.32 132.80 124.40 132.34 Z M 125.32 131.93 L 126.24 131.53 C 127.30 131.06 127.79 129.83 127.33 128.77 C 126.86 127.71 125.63 127.22 124.57 127.68 L 123.65 128.08 C 122.59 128.55 122.10 129.78 122.56 130.84 C 123.03 131.90 124.26 132.39 125.32 131.93 Z M 126.26 131.50 L 127.17 131.09 C 128.22 130.62 128.68 129.39 128.21 128.34 C 127.74 127.29 126.51 126.83 125.46 127.30 L 124.55 127.71 C 123.50 128.18 123.04 129.41 123.51 130.46 C 123.98 131.50 125.21 131.97 126.26 131.50 Z M 127.20 131.05 L 128.10 130.62 C 129.13 130.14 129.57 128.91 129.08 127.88 C 128.59 126.85 127.36 126.42 126.34 126.90 L 125.43 127.33 C 124.41 127.82 123.97 129.05 124.46 130.08 C 124.95 131.11 126.18 131.54 127.20 131.05 Z M 128.13 130.59 L 129.03 130.14 C 130.03 129.64 130.44 128.41 129.94 127.41 C 129.43 126.40 128.21 125.99 127.20 126.49 L 126.31 126.94 C 125.30 127.45 124.89 128.67 125.40 129.68 C 125.90 130.68 127.13 131.09 128.13 130.59 Z M 129.03 130.11 L 129.94 129.65 C 130.93 129.14 131.32 127.92 130.81 126.93 C 130.30 125.94 129.09 125.55 128.10 126.06 L 127.19 126.53 C 126.20 127.03 125.81 128.25 126.32 129.24 C 126.83 130.23 128.04 130.62 129.03 130.11 Z M 129.94 129.62 L 130.84 129.15 C 131.81 128.64 132.19 127.44 131.68 126.47 C 131.18 125.49 129.97 125.11 129.00 125.62 L 128.10 126.09 C 127.13 126.60 126.75 127.80 127.26 128.77 C 127.76 129.74 128.96 130.12 129.94 129.62 Z M 130.85 129.11 L 131.73 128.63 C 132.68 128.12 133.04 126.93 132.53 125.98 C 132.01 125.03 130.83 124.67 129.87 125.18 L 128.99 125.66 C 128.04 126.17 127.68 127.36 128.19 128.31 C 128.71 129.27 129.89 129.62 130.85 129.11 Z M 131.75 128.59 L 132.61 128.10 C 133.54 127.58 133.87 126.40 133.34 125.47 C 132.82 124.54 131.64 124.22 130.71 124.74 L 129.85 125.23 C 128.92 125.75 128.59 126.93 129.12 127.86 C 129.65 128.79 130.83 129.12 131.75 128.59 Z M 132.63 128.06 L 133.45 127.58 C 134.35 127.05 134.65 125.88 134.12 124.97 C 133.58 124.06 132.41 123.76 131.50 124.30 L 130.69 124.78 C 129.78 125.32 129.48 126.49 130.02 127.39 C 130.56 128.30 131.73 128.60 132.63 128.06 Z M 133.47 127.54 L 134.35 126.99 C 135.23 126.44 135.50 125.27 134.94 124.39 C 134.39 123.51 133.23 123.25 132.35 123.80 L 131.47 124.35 C 130.59 124.90 130.33 126.06 130.88 126.94 C 131.43 127.82 132.59 128.09 133.47 127.54 Z M 134.39 126.94 L 135.20 126.39 C 136.06 125.81 136.28 124.65 135.70 123.80 C 135.12 122.95 133.96 122.73 133.11 123.30 L 132.30 123.85 C 131.45 124.43 131.23 125.59 131.81 126.44 C 132.38 127.29 133.54 127.51 134.39 126.94 Z M 135.31 126.29 L 136.11 125.65 C 136.91 125.02 137.04 123.86 136.41 123.06 C 135.77 122.26 134.61 122.13 133.81 122.76 L 133.01 123.40 C 132.21 124.03 132.08 125.19 132.71 125.99 C 133.35 126.79 134.51 126.92 135.31 126.29 Z M 136.26 125.50 L 136.97 124.78 C 137.68 124.06 137.68 122.90 136.96 122.19 C 136.24 121.48 135.08 121.48 134.37 122.20 L 133.66 122.92 C 132.95 123.64 132.96 124.79 133.67 125.51 C 134.39 126.22 135.55 126.21 136.26 125.50 Z M 137.05 124.66 L 137.69 123.91 C 138.34 123.15 138.25 122.00 137.48 121.35 C 136.72 120.71 135.58 120.80 134.93 121.56 L 134.29 122.32 C 133.64 123.08 133.74 124.22 134.50 124.87 C 135.26 125.52 136.41 125.43 137.05 124.66 Z"
      fill="black"
      fill-rule="nonzero" /><path d="M 126.77 118.26 L 126.58 119.20 C 126.37 120.26 127.06 121.29 128.11 121.50 C 129.17 121.70 130.19 121.02 130.40 119.96 L 130.59 119.01 C 130.80 117.96 130.11 116.93 129.06 116.72 C 128.00 116.51 126.98 117.20 126.77 118.26 Z M 126.47 119.27 L 126.32 120.27 C 126.15 121.38 126.91 122.42 128.03 122.60 C 129.14 122.77 130.18 122.01 130.35 120.89 L 130.51 119.90 C 130.68 118.78 129.92 117.74 128.80 117.57 C 127.69 117.39 126.65 118.16 126.47 119.27 Z M 126.24 120.40 L 126.15 121.42 C 126.05 122.58 126.92 123.60 128.08 123.70 C 129.24 123.80 130.25 122.94 130.35 121.78 L 130.44 120.76 C 130.53 119.60 129.67 118.58 128.51 118.48 C 127.35 118.38 126.33 119.24 126.24 120.40 Z M 126.12 121.55 L 126.09 122.57 C 126.06 123.75 126.99 124.73 128.17 124.76 C 129.35 124.79 130.33 123.86 130.36 122.68 L 130.39 121.65 C 130.42 120.48 129.48 119.50 128.31 119.47 C 127.13 119.44 126.15 120.37 126.12 121.55 Z M 126.08 122.65 L 126.09 123.62 C 126.10 124.81 127.08 125.76 128.26 125.75 C 129.44 125.73 130.39 124.76 130.38 123.58 L 130.37 122.60 C 130.36 121.41 129.39 120.47 128.20 120.48 C 127.02 120.49 126.07 121.46 126.08 122.65 Z M 126.09 123.68 L 126.12 124.71 C 126.17 125.90 127.17 126.83 128.36 126.78 C 129.54 126.74 130.47 125.74 130.43 124.55 L 130.39 123.52 C 130.34 122.33 129.34 121.41 128.16 121.45 C 126.97 121.49 126.04 122.49 126.09 123.68 Z M 126.12 124.75 L 126.18 125.72 C 126.24 126.91 127.26 127.82 128.45 127.75 C 129.64 127.69 130.55 126.67 130.48 125.48 L 130.43 124.51 C 130.36 123.32 129.34 122.41 128.15 122.48 C 126.96 122.55 126.05 123.56 126.12 124.75 Z M 126.17 125.73 L 126.23 126.69 C 126.30 127.89 127.33 128.79 128.52 128.72 C 129.71 128.65 130.62 127.63 130.55 126.43 L 130.49 125.47 C 130.42 124.28 129.39 123.37 128.20 123.44 C 127.01 123.51 126.10 124.54 126.17 125.73 Z M 126.23 126.70 L 126.29 127.70 C 126.36 128.90 127.39 129.81 128.58 129.73 C 129.78 129.66 130.69 128.63 130.61 127.44 L 130.55 126.43 C 130.47 125.24 129.45 124.33 128.25 124.40 C 127.06 124.48 126.15 125.50 126.23 126.70 Z M 126.29 127.72 L 126.36 128.73 C 126.44 129.92 127.47 130.83 128.67 130.74 C 129.86 130.66 130.76 129.63 130.68 128.43 L 130.61 127.42 C 130.53 126.23 129.50 125.33 128.30 125.41 C 127.11 125.49 126.20 126.52 126.29 127.72 Z M 126.35 128.74 L 126.43 129.73 C 126.51 130.93 127.55 131.82 128.75 131.74 C 129.95 131.65 130.84 130.61 130.76 129.41 L 130.68 128.42 C 130.60 127.23 129.56 126.33 128.36 126.42 C 127.16 126.50 126.27 127.54 126.35 128.74 Z M 126.42 129.72 L 126.49 130.73 C 126.58 131.93 127.61 132.83 128.81 132.75 C 130.01 132.67 130.91 131.63 130.83 130.43 L 130.76 129.42 C 130.68 128.22 129.64 127.32 128.44 127.40 C 127.24 127.49 126.34 128.52 126.42 129.72 Z M 126.49 130.71 L 126.55 131.69 C 126.62 132.89 127.65 133.80 128.85 133.73 C 130.05 133.66 130.96 132.63 130.89 131.43 L 130.83 130.46 C 130.76 129.26 129.73 128.34 128.53 128.41 C 127.33 128.48 126.42 129.51 126.49 130.71 Z M 126.55 131.67 L 126.60 132.67 C 126.66 133.87 127.68 134.80 128.88 134.73 C 130.08 134.67 131.00 133.65 130.94 132.45 L 130.89 131.45 C 130.83 130.25 129.81 129.33 128.61 129.39 C 127.41 129.45 126.49 130.47 126.55 131.67 Z M 126.60 132.67 L 126.65 133.68 C 126.70 134.88 127.72 135.80 128.92 135.75 C 130.12 135.69 131.05 134.67 130.99 133.47 L 130.94 132.46 C 130.88 131.26 129.87 130.33 128.67 130.39 C 127.47 130.45 126.54 131.47 126.60 132.67 Z M 126.65 133.68 L 126.69 134.66 C 126.75 135.86 127.76 136.79 128.96 136.74 C 130.16 136.68 131.09 135.66 131.04 134.46 L 130.99 133.47 C 130.93 132.27 129.92 131.35 128.72 131.40 C 127.52 131.46 126.59 132.48 126.65 133.68 Z M 126.69 134.66 L 126.73 135.66 C 126.78 136.86 127.80 137.79 129.00 137.74 C 130.20 137.69 131.13 136.68 131.08 135.48 L 131.04 134.47 C 130.99 133.27 129.97 132.34 128.77 132.39 C 127.57 132.44 126.64 133.46 126.69 134.66 Z M 126.73 135.65 L 126.77 136.65 C 126.81 137.85 127.82 138.79 129.02 138.75 C 130.22 138.71 131.16 137.70 131.12 136.50 L 131.08 135.49 C 131.04 134.29 130.03 133.35 128.83 133.40 C 127.63 133.44 126.69 134.45 126.73 135.65 Z M 126.77 136.64 L 126.80 137.63 C 126.83 138.83 127.83 139.78 129.03 139.74 C 130.23 139.71 131.18 138.71 131.14 137.51 L 131.12 136.52 C 131.08 135.32 130.08 134.37 128.88 134.40 C 127.68 134.44 126.74 135.44 126.77 136.64 Z M 126.80 137.62 L 126.82 138.62 C 126.85 139.82 127.84 140.77 129.04 140.75 C 130.24 140.72 131.19 139.72 131.17 138.52 L 131.14 137.52 C 131.11 136.32 130.12 135.37 128.92 135.40 C 127.72 135.43 126.77 136.42 126.80 137.62 Z M 126.82 138.62 L 126.84 139.61 C 126.87 140.81 127.86 141.76 129.06 141.74 C 130.26 141.71 131.21 140.72 131.19 139.52 L 131.16 138.53 C 131.14 137.33 130.15 136.38 128.95 136.40 C 127.75 136.43 126.80 137.42 126.82 138.62 Z M 126.84 139.61 L 126.86 140.60 C 126.89 141.80 127.88 142.75 129.08 142.73 C 130.27 142.70 131.23 141.71 131.20 140.51 L 131.18 139.52 C 131.16 138.33 130.17 137.37 128.97 137.40 C 127.77 137.42 126.82 138.41 126.84 139.61 Z M 126.86 140.59 L 126.88 141.60 C 126.90 142.79 127.89 143.75 129.08 143.73 C 130.28 143.71 131.24 142.73 131.22 141.53 L 131.20 140.52 C 131.18 139.32 130.20 138.36 129.00 138.38 C 127.80 138.40 126.84 139.39 126.86 140.59 Z M 126.88 141.58 L 126.89 142.60 C 126.90 143.80 127.89 144.76 129.08 144.75 C 130.28 144.74 131.24 143.76 131.23 142.56 L 131.22 141.54 C 131.21 140.34 130.22 139.38 129.03 139.39 C 127.83 139.41 126.87 140.39 126.88 141.58 Z M 126.89 142.59 L 126.90 143.61 C 126.91 144.80 127.88 145.77 129.08 145.76 C 130.27 145.75 131.24 144.78 131.23 143.58 L 131.23 142.57 C 131.22 141.37 130.25 140.41 129.05 140.41 C 127.85 140.42 126.89 141.39 126.89 142.59 Z M 126.90 143.60 L 126.90 144.60 C 126.91 145.80 127.88 146.76 129.07 146.76 C 130.26 146.76 131.23 145.79 131.23 144.59 L 131.23 143.59 C 131.23 142.40 130.26 141.43 129.06 141.43 C 127.87 141.43 126.90 142.40 126.90 143.60 Z M 126.91 144.60 L 126.91 145.59 C 126.91 146.79 127.88 147.75 129.07 147.75 C 130.26 147.75 131.23 146.78 131.23 145.59 L 131.23 144.60 C 131.23 143.41 130.26 142.44 129.07 142.44 C 127.87 142.44 126.91 143.41 126.91 144.60 Z M 126.91 145.59 L 126.91 146.62 C 126.91 147.81 127.88 148.77 129.07 148.77 C 130.26 148.77 131.22 147.81 131.22 146.62 L 131.22 145.59 C 131.22 144.40 130.26 143.44 129.07 143.44 C 127.88 143.44 126.91 144.40 126.91 145.59 Z M 126.92 146.62 L 126.92 147.60 C 126.92 148.78 127.88 149.75 129.07 149.75 C 130.26 149.75 131.22 148.78 131.22 147.60 L 131.22 146.62 C 131.22 145.43 130.26 144.46 129.07 144.46 C 127.88 144.46 126.92 145.43 126.92 146.62 Z M 126.92 147.60 L 126.92 148.58 C 126.92 149.77 127.88 150.73 129.07 150.73 C 130.25 150.73 131.21 149.77 131.21 148.58 L 131.21 147.60 C 131.21 146.41 130.25 145.45 129.07 145.45 C 127.88 145.45 126.92 146.41 126.92 147.60 Z M 126.93 148.58 L 126.93 149.59 C 126.93 150.78 127.88 151.74 129.07 151.74 C 130.25 151.74 131.21 150.78 131.21 149.59 L 131.21 148.58 C 131.21 147.40 130.25 146.44 129.07 146.44 C 127.88 146.44 126.93 147.40 126.93 148.58 Z M 126.93 149.59 L 126.93 150.58 C 126.93 151.76 127.89 152.72 129.07 152.72 C 130.25 152.72 131.20 151.76 131.20 150.58 L 131.20 149.59 C 131.20 148.42 130.25 147.46 129.07 147.46 C 127.89 147.46 126.93 148.42 126.93 149.59 Z M 126.94 150.58 L 126.94 151.60 C 126.94 152.78 127.89 153.73 129.06 153.73 C 130.24 153.73 131.19 152.78 131.19 151.61 L 131.19 150.59 C 131.20 149.41 130.24 148.46 129.07 148.46 C 127.89 148.46 126.94 149.41 126.94 150.58 Z M 126.95 151.58 L 126.93 152.58 C 126.92 153.75 127.86 154.71 129.03 154.72 C 130.20 154.73 131.16 153.80 131.17 152.62 L 131.19 151.63 C 131.20 150.46 130.26 149.50 129.09 149.48 C 127.92 149.47 126.96 150.41 126.95 151.58 Z M 126.94 152.52 L 126.91 153.51 C 126.86 154.68 127.77 155.66 128.94 155.70 C 130.10 155.75 131.09 154.84 131.13 153.67 L 131.17 152.68 C 131.21 151.51 130.30 150.53 129.13 150.49 C 127.97 150.45 126.99 151.36 126.94 152.52 Z M 126.92 153.44 L 126.85 154.46 C 126.76 155.62 127.64 156.62 128.80 156.70 C 129.96 156.78 130.97 155.91 131.05 154.75 L 131.12 153.74 C 131.20 152.58 130.32 151.57 129.16 151.49 C 128.00 151.41 127.00 152.28 126.92 153.44 Z M 126.85 154.42 L 126.77 155.39 C 126.66 156.54 127.52 157.56 128.68 157.67 C 129.83 157.77 130.85 156.92 130.95 155.76 L 131.04 154.79 C 131.14 153.63 130.29 152.61 129.13 152.51 C 127.98 152.41 126.96 153.26 126.85 154.42 Z M 126.77 155.38 L 126.68 156.38 C 126.57 157.53 127.42 158.56 128.57 158.66 C 129.73 158.77 130.75 157.92 130.85 156.77 L 130.95 155.77 C 131.06 154.62 130.21 153.59 129.06 153.49 C 127.90 153.38 126.88 154.22 126.77 155.38 Z M 126.69 156.38 L 126.59 157.36 C 126.48 158.51 127.32 159.53 128.47 159.64 C 129.62 159.75 130.65 158.91 130.76 157.76 L 130.85 156.78 C 130.96 155.63 130.12 154.60 128.97 154.49 C 127.82 154.38 126.79 155.23 126.69 156.38 Z M 126.60 157.35 L 126.50 158.32 C 126.39 159.47 127.22 160.49 128.37 160.61 C 129.51 160.72 130.54 159.88 130.65 158.74 L 130.75 157.77 C 130.86 156.62 130.03 155.60 128.88 155.48 C 127.74 155.37 126.71 156.21 126.60 157.35 Z M 126.51 158.28 L 126.39 159.30 C 126.25 160.44 127.07 161.47 128.21 161.61 C 129.35 161.75 130.38 160.93 130.52 159.79 L 130.64 158.78 C 130.78 157.64 129.96 156.60 128.82 156.47 C 127.68 156.33 126.65 157.14 126.51 158.28 Z M 126.40 159.24 L 126.26 160.22 C 126.09 161.35 126.87 162.41 128.00 162.58 C 129.14 162.75 130.19 161.96 130.36 160.83 L 130.51 159.85 C 130.68 158.72 129.89 157.66 128.76 157.49 C 127.63 157.32 126.57 158.11 126.40 159.24 Z M 126.27 160.15 L 126.09 161.15 C 125.89 162.27 126.63 163.35 127.76 163.56 C 128.88 163.76 129.96 163.02 130.16 161.89 L 130.35 160.90 C 130.55 159.77 129.80 158.69 128.68 158.49 C 127.56 158.28 126.48 159.03 126.27 160.15 Z M 126.12 161.07 L 125.88 162.09 C 125.63 163.20 126.33 164.31 127.44 164.56 C 128.56 164.81 129.66 164.11 129.91 163.00 L 130.14 161.97 C 130.39 160.86 129.69 159.76 128.58 159.51 C 127.47 159.26 126.37 159.95 126.12 161.07 Z M 125.94 161.94 L 125.64 162.89 C 125.30 163.98 125.91 165.13 126.99 165.46 C 128.07 165.80 129.22 165.19 129.56 164.11 L 129.86 163.15 C 130.19 162.07 129.59 160.92 128.51 160.58 C 127.42 160.25 126.27 160.85 125.94 161.94 Z M 125.81 162.53 L 125.32 163.44 C 124.78 164.42 125.14 165.66 126.13 166.20 C 127.11 166.74 128.35 166.38 128.89 165.39 L 129.39 164.48 C 129.92 163.49 129.56 162.26 128.58 161.72 C 127.59 161.18 126.35 161.54 125.81 162.53 Z M 126.19 162.62 L 125.44 163.00 C 124.45 163.51 124.06 164.72 124.56 165.71 C 125.07 166.70 126.28 167.09 127.27 166.59 L 128.02 166.20 C 129.00 165.70 129.40 164.49 128.89 163.50 C 128.39 162.51 127.18 162.12 126.19 162.62 Z M 127.56 163.26 L 126.82 162.68 C 125.97 162.01 124.74 162.16 124.08 163.01 C 123.41 163.85 123.56 165.08 124.41 165.75 L 125.15 166.33 C 125.99 167.00 127.22 166.85 127.89 166.00 C 128.55 165.15 128.41 163.93 127.56 163.26 Z M 127.29 163.35 L 126.86 162.52 C 126.38 161.59 125.25 161.23 124.32 161.71 C 123.40 162.18 123.03 163.32 123.51 164.24 L 123.94 165.07 C 124.41 166.00 125.55 166.36 126.47 165.89 C 127.40 165.41 127.76 164.28 127.29 163.35 Z M 126.96 162.91 L 126.69 161.92 C 126.44 160.94 125.43 160.35 124.45 160.61 C 123.47 160.87 122.89 161.88 123.15 162.86 L 123.41 163.85 C 123.67 164.83 124.67 165.41 125.65 165.15 C 126.63 164.89 127.22 163.89 126.96 162.91 Z M 126.70 162.08 L 126.53 161.11 C 126.36 160.12 125.43 159.46 124.44 159.63 C 123.46 159.81 122.80 160.74 122.97 161.73 L 123.14 162.70 C 123.31 163.68 124.25 164.34 125.23 164.17 C 126.21 164.00 126.87 163.06 126.70 162.08 Z M 126.53 161.16 L 126.39 160.19 C 126.25 159.20 125.33 158.52 124.35 158.67 C 123.37 158.81 122.68 159.72 122.83 160.71 L 122.97 161.68 C 123.11 162.66 124.03 163.34 125.01 163.20 C 126.00 163.06 126.68 162.14 126.53 161.16 Z M 126.40 160.21 L 126.25 159.16 C 126.12 158.17 125.22 157.48 124.23 157.61 C 123.24 157.74 122.55 158.65 122.68 159.64 L 122.83 160.69 C 122.96 161.67 123.86 162.37 124.85 162.23 C 125.84 162.10 126.53 161.20 126.40 160.21 Z M 126.25 159.16 L 126.17 158.54 C 126.04 157.55 125.14 156.86 124.16 156.98 C 123.17 157.11 122.47 158.01 122.60 159.00 L 122.68 159.63 C 122.81 160.61 123.72 161.31 124.70 161.18 C 125.69 161.05 126.38 160.15 126.25 159.16 Z"
      fill="black"
      fill-rule="nonzero" /><path d="M 128.26 138.78 L 128.53 137.53 C 128.76 136.48 128.09 135.45 127.04 135.22 C 126.00 134.99 124.96 135.66 124.74 136.71 L 124.47 137.96 C 124.24 139.01 124.91 140.04 125.95 140.27 C 127.00 140.49 128.04 139.83 128.26 138.78 Z M 128.67 136.74 L 128.62 136.49 C 128.41 135.36 127.33 134.62 126.20 134.84 C 125.08 135.05 124.34 136.13 124.55 137.25 L 124.60 137.50 C 124.81 138.63 125.89 139.37 127.02 139.15 C 128.14 138.94 128.88 137.86 128.67 136.74 Z M 124.66 135.94 L 124.19 136.93 C 123.67 137.99 124.12 139.27 125.18 139.78 C 126.24 140.30 127.52 139.85 128.03 138.79 L 128.51 137.80 C 129.02 136.74 128.58 135.46 127.52 134.95 C 126.45 134.43 125.18 134.88 124.66 135.94 Z M 124.18 136.90 L 123.68 137.90 C 123.15 138.96 123.58 140.26 124.64 140.79 C 125.71 141.32 127.00 140.89 127.53 139.83 L 128.04 138.83 C 128.57 137.76 128.14 136.47 127.07 135.93 C 126.01 135.40 124.72 135.83 124.18 136.90 Z M 123.71 137.82 L 123.22 138.72 C 122.64 139.77 123.03 141.08 124.08 141.66 C 125.13 142.23 126.45 141.84 127.02 140.79 L 127.51 139.90 C 128.08 138.85 127.70 137.53 126.65 136.96 C 125.60 136.39 124.28 136.77 123.71 137.82 Z M 123.24 138.66 L 122.74 139.53 C 122.13 140.56 122.49 141.89 123.53 142.50 C 124.56 143.10 125.89 142.75 126.50 141.71 L 127.00 140.85 C 127.60 139.81 127.25 138.48 126.21 137.88 C 125.17 137.27 123.84 137.62 123.24 138.66 Z M 122.76 139.47 L 122.23 140.34 C 121.60 141.36 121.91 142.70 122.94 143.33 C 123.96 143.97 125.31 143.65 125.94 142.63 L 126.47 141.76 C 127.10 140.74 126.79 139.40 125.76 138.76 C 124.74 138.13 123.40 138.45 122.76 139.47 Z M 122.26 140.28 L 121.72 141.10 C 121.06 142.11 121.34 143.46 122.35 144.12 C 123.36 144.78 124.71 144.50 125.37 143.50 L 125.91 142.68 C 126.57 141.67 126.29 140.32 125.28 139.66 C 124.27 139.00 122.92 139.28 122.26 140.28 Z M 121.75 141.07 L 121.22 141.83 C 120.54 142.82 120.80 144.18 121.79 144.86 C 122.78 145.54 124.14 145.29 124.82 144.30 L 125.35 143.53 C 126.03 142.54 125.78 141.18 124.78 140.50 C 123.79 139.82 122.43 140.07 121.75 141.07 Z M 121.25 141.78 L 120.68 142.58 C 119.97 143.56 120.19 144.92 121.17 145.63 C 122.15 146.33 123.51 146.11 124.22 145.14 L 124.79 144.34 C 125.50 143.37 125.28 142.00 124.30 141.29 C 123.33 140.59 121.96 140.81 121.25 141.78 Z M 120.72 142.52 L 120.06 143.38 C 119.32 144.34 119.50 145.71 120.45 146.45 C 121.41 147.18 122.78 147.01 123.51 146.05 L 124.18 145.19 C 124.91 144.24 124.74 142.87 123.78 142.13 C 122.83 141.39 121.46 141.57 120.72 142.52 Z M 120.09 143.34 L 119.47 144.11 C 118.70 145.04 118.84 146.42 119.78 147.18 C 120.71 147.94 122.09 147.80 122.85 146.87 L 123.48 146.10 C 124.24 145.16 124.10 143.79 123.17 143.03 C 122.23 142.26 120.86 142.40 120.09 143.34 Z M 119.50 144.07 L 118.83 144.85 C 118.05 145.77 118.16 147.15 119.07 147.93 C 119.99 148.71 121.37 148.60 122.15 147.69 L 122.82 146.90 C 123.60 145.99 123.49 144.61 122.57 143.83 C 121.66 143.04 120.28 143.15 119.50 144.07 Z M 118.86 144.82 L 118.20 145.56 C 117.40 146.46 117.48 147.84 118.38 148.64 C 119.28 149.44 120.65 149.37 121.46 148.47 L 122.12 147.72 C 122.92 146.82 122.84 145.44 121.94 144.64 C 121.04 143.84 119.66 143.92 118.86 144.82 Z M 118.25 145.52 L 117.51 146.29 C 116.68 147.16 116.72 148.54 117.60 149.37 C 118.47 150.20 119.85 150.16 120.67 149.29 L 121.41 148.51 C 122.24 147.64 122.20 146.26 121.33 145.43 C 120.45 144.60 119.07 144.64 118.25 145.52 Z M 117.58 146.24 L 116.87 146.93 C 116.01 147.76 116.00 149.14 116.83 149.99 C 117.67 150.85 119.04 150.87 119.90 150.03 L 120.61 149.34 C 121.47 148.51 121.48 147.13 120.65 146.27 C 119.81 145.42 118.44 145.40 117.58 146.24 Z M 116.94 146.87 L 116.25 147.50 C 115.36 148.29 115.29 149.66 116.09 150.55 C 116.88 151.43 118.25 151.50 119.13 150.71 L 119.83 150.09 C 120.71 149.29 120.79 147.92 119.99 147.04 C 119.19 146.15 117.83 146.08 116.94 146.87 Z M 116.34 147.45 L 115.56 148.09 C 114.65 148.84 114.51 150.18 115.26 151.10 C 116.01 152.01 117.36 152.14 118.27 151.39 L 119.05 150.76 C 119.96 150.01 120.09 148.66 119.34 147.75 C 118.59 146.83 117.25 146.70 116.34 147.45 Z M 115.70 148.02 L 114.88 148.60 C 113.93 149.27 113.71 150.58 114.38 151.53 C 115.06 152.48 116.37 152.71 117.32 152.04 L 118.13 151.46 C 119.08 150.79 119.31 149.47 118.63 148.52 C 117.96 147.57 116.65 147.35 115.70 148.02 Z M 115.08 148.51 L 114.18 149.02 C 113.18 149.59 112.83 150.85 113.40 151.85 C 113.96 152.85 115.23 153.20 116.22 152.63 L 117.13 152.12 C 118.12 151.55 118.47 150.29 117.91 149.29 C 117.34 148.30 116.08 147.95 115.08 148.51 Z M 114.46 148.94 L 113.53 149.30 C 112.49 149.71 111.97 150.88 112.38 151.93 C 112.79 152.97 113.97 153.49 115.01 153.08 L 115.94 152.72 C 116.98 152.31 117.50 151.13 117.09 150.09 C 116.68 149.04 115.51 148.53 114.46 148.94 Z M 114.02 149.23 L 113.05 149.36 C 111.97 149.50 111.20 150.48 111.34 151.57 C 111.48 152.65 112.47 153.41 113.55 153.27 L 114.52 153.15 C 115.61 153.01 116.37 152.02 116.23 150.94 C 116.09 149.86 115.10 149.09 114.02 149.23 Z M 113.57 149.44 L 112.59 149.30 C 111.56 149.15 110.60 149.87 110.45 150.91 C 110.30 151.95 111.03 152.91 112.06 153.05 L 113.03 153.19 C 114.07 153.34 115.03 152.62 115.18 151.58 C 115.32 150.54 114.60 149.58 113.57 149.44 Z M 112.74 149.38 L 112.47 149.32 C 111.48 149.10 110.50 149.72 110.27 150.71 C 110.04 151.70 110.66 152.68 111.65 152.91 L 111.92 152.97 C 112.91 153.20 113.90 152.58 114.12 151.58 C 114.35 150.59 113.73 149.61 112.74 149.38 Z"
      fill="black"
      fill-rule="nonzero" /><path d="M 126.83 140.04 L 127.82 140.08 C 128.89 140.11 129.78 139.28 129.81 138.21 C 129.85 137.15 129.01 136.26 127.95 136.22 L 126.95 136.19 C 125.89 136.15 125.00 136.99 124.96 138.05 C 124.93 139.12 125.76 140.01 126.83 140.04 Z M 127.73 140.07 L 128.73 140.15 C 129.79 140.23 130.72 139.44 130.81 138.38 C 130.89 137.32 130.10 136.39 129.03 136.30 L 128.03 136.23 C 126.97 136.14 126.04 136.94 125.96 138.00 C 125.88 139.06 126.67 139.99 127.73 140.07 Z M 128.58 140.13 L 129.53 140.29 C 130.59 140.46 131.58 139.74 131.75 138.69 C 131.92 137.63 131.20 136.64 130.15 136.47 L 129.19 136.32 C 128.14 136.15 127.14 136.87 126.98 137.92 C 126.81 138.97 127.52 139.97 128.58 140.13 Z M 129.39 140.27 L 130.36 140.50 C 131.41 140.75 132.45 140.11 132.71 139.07 C 132.96 138.03 132.31 136.98 131.27 136.73 L 130.30 136.49 C 129.25 136.24 128.20 136.88 127.95 137.93 C 127.70 138.97 128.35 140.02 129.39 140.27 Z M 130.26 140.49 L 131.23 140.78 C 132.26 141.09 133.35 140.50 133.66 139.47 C 133.97 138.43 133.38 137.35 132.35 137.04 L 131.38 136.75 C 130.34 136.44 129.26 137.02 128.95 138.06 C 128.64 139.09 129.22 140.18 130.26 140.49 Z M 131.15 140.76 L 132.10 141.09 C 133.12 141.44 134.24 140.89 134.59 139.87 C 134.94 138.84 134.40 137.73 133.37 137.38 L 132.43 137.05 C 131.40 136.70 130.28 137.24 129.93 138.27 C 129.58 139.29 130.13 140.41 131.15 140.76 Z M 132.02 141.07 L 132.97 141.44 C 133.98 141.83 135.13 141.32 135.52 140.31 C 135.91 139.29 135.41 138.15 134.39 137.76 L 133.44 137.39 C 132.43 137.00 131.29 137.51 130.89 138.52 C 130.50 139.54 131.01 140.68 132.02 141.07 Z M 132.89 141.41 L 133.82 141.81 C 134.82 142.25 135.99 141.79 136.42 140.78 C 136.85 139.78 136.39 138.62 135.39 138.18 L 134.46 137.78 C 133.46 137.35 132.30 137.81 131.86 138.81 C 131.43 139.81 131.89 140.98 132.89 141.41 Z M 133.75 141.78 L 134.65 142.21 C 135.63 142.69 136.81 142.27 137.29 141.29 C 137.76 140.30 137.35 139.12 136.36 138.64 L 135.46 138.21 C 134.48 137.74 133.30 138.15 132.82 139.14 C 132.35 140.12 132.76 141.31 133.75 141.78 Z M 134.58 142.18 L 135.46 142.64 C 136.43 143.15 137.63 142.78 138.14 141.81 C 138.65 140.84 138.27 139.64 137.30 139.14 L 136.42 138.68 C 135.46 138.17 134.26 138.54 133.75 139.51 C 133.24 140.48 133.62 141.67 134.58 142.18 Z M 135.41 142.62 L 136.28 143.11 C 137.23 143.64 138.44 143.31 138.98 142.35 C 139.52 141.40 139.18 140.19 138.23 139.66 L 137.36 139.17 C 136.40 138.63 135.20 138.96 134.66 139.92 C 134.12 140.87 134.46 142.08 135.41 142.62 Z M 136.23 143.08 L 137.09 143.59 C 138.03 144.16 139.24 143.86 139.81 142.92 C 140.37 141.99 140.07 140.77 139.13 140.20 L 138.28 139.69 C 137.34 139.12 136.12 139.42 135.56 140.36 C 135.00 141.30 135.30 142.51 136.23 143.08 Z M 137.04 143.56 L 137.87 144.10 C 138.79 144.69 140.02 144.42 140.61 143.50 C 141.20 142.59 140.93 141.36 140.01 140.77 L 139.18 140.24 C 138.26 139.65 137.04 139.91 136.45 140.83 C 135.86 141.75 136.12 142.97 137.04 143.56 Z M 137.82 144.05 L 138.63 144.62 C 139.52 145.24 140.75 145.02 141.37 144.13 C 141.99 143.24 141.78 142.01 140.88 141.39 L 140.07 140.82 C 139.18 140.20 137.95 140.42 137.33 141.31 C 136.71 142.20 136.93 143.43 137.82 144.05 Z M 138.56 144.55 L 139.36 145.17 C 140.22 145.84 141.45 145.68 142.11 144.82 C 142.77 143.97 142.62 142.74 141.76 142.08 L 140.96 141.45 C 140.10 140.79 138.87 140.95 138.21 141.80 C 137.55 142.66 137.70 143.89 138.56 144.55 Z M 139.30 145.10 L 140.07 145.76 C 140.88 146.46 142.11 146.37 142.81 145.55 C 143.51 144.74 143.42 143.51 142.60 142.81 L 141.83 142.15 C 141.01 141.45 139.79 141.54 139.09 142.36 C 138.39 143.17 138.48 144.40 139.30 145.10 Z M 140.04 145.71 L 140.78 146.39 C 141.57 147.10 142.79 147.05 143.50 146.26 C 144.22 145.48 144.16 144.26 143.38 143.55 L 142.63 142.87 C 141.85 142.15 140.63 142.21 139.92 142.99 C 139.20 143.78 139.25 144.99 140.04 145.71 Z M 140.79 146.36 L 141.52 147.04 C 142.29 147.75 143.49 147.71 144.20 146.94 C 144.92 146.18 144.88 144.97 144.11 144.26 L 143.37 143.58 C 142.61 142.86 141.41 142.91 140.69 143.67 C 139.98 144.44 140.02 145.64 140.79 146.36 Z M 141.55 147.02 L 142.29 147.71 C 143.05 148.41 144.23 148.36 144.93 147.60 C 145.63 146.85 145.58 145.67 144.83 144.97 L 144.08 144.28 C 143.32 143.58 142.14 143.62 141.44 144.38 C 140.74 145.14 140.79 146.32 141.55 147.02 Z M 142.32 147.68 L 142.99 148.30 C 143.74 148.99 144.90 148.94 145.58 148.19 C 146.26 147.45 146.21 146.29 145.47 145.61 L 144.80 144.99 C 144.05 144.31 142.89 144.36 142.21 145.10 C 141.53 145.84 141.58 147.00 142.32 147.68 Z"
      fill="black"
      fill-rule="nonzero" /><path d="M 151.43 105.46 L 152.31 105.66 C 153.42 105.90 154.52 105.20 154.76 104.09 C 155.01 102.99 154.31 101.89 153.20 101.64 L 152.32 101.45 C 151.21 101.20 150.12 101.90 149.87 103.01 C 149.63 104.12 150.33 105.22 151.43 105.46 Z M 152.48 105.77 L 153.57 105.91 C 154.73 106.06 155.80 105.23 155.95 104.06 C 156.11 102.89 155.28 101.82 154.11 101.67 L 153.03 101.53 C 151.86 101.38 150.79 102.21 150.64 103.38 C 150.49 104.55 151.31 105.62 152.48 105.77 Z M 153.74 105.96 L 154.67 106.00 C 155.87 106.05 156.88 105.12 156.93 103.93 C 156.99 102.73 156.06 101.71 154.86 101.66 L 153.93 101.62 C 152.74 101.57 151.72 102.50 151.67 103.69 C 151.62 104.89 152.54 105.91 153.74 105.96 Z M 154.79 106.00 L 155.82 105.98 C 157.01 105.97 157.97 104.99 157.96 103.80 C 157.95 102.60 156.97 101.64 155.77 101.65 L 154.74 101.66 C 153.55 101.68 152.59 102.66 152.60 103.85 C 152.61 105.05 153.59 106.01 154.79 106.00 Z M 155.93 105.97 L 156.99 105.91 C 158.18 105.83 159.09 104.80 159.01 103.61 C 158.93 102.42 157.91 101.52 156.72 101.60 L 155.66 101.67 C 154.47 101.74 153.56 102.77 153.64 103.96 C 153.72 105.15 154.74 106.05 155.93 105.97 Z M 157.12 105.87 L 158.20 105.74 C 159.37 105.59 160.20 104.52 160.06 103.35 C 159.91 102.18 158.84 101.35 157.67 101.49 L 156.59 101.63 C 155.42 101.78 154.59 102.84 154.73 104.02 C 154.88 105.19 155.95 106.02 157.12 105.87 Z M 158.29 105.69 L 159.26 105.53 C 160.41 105.33 161.18 104.24 160.98 103.09 C 160.78 101.95 159.69 101.18 158.54 101.37 L 157.58 101.54 C 156.43 101.74 155.66 102.83 155.85 103.97 C 156.05 105.12 157.14 105.89 158.29 105.69 Z M 159.30 105.49 L 160.22 105.31 C 161.34 105.09 162.07 103.99 161.85 102.87 C 161.63 101.74 160.54 101.01 159.41 101.23 L 158.50 101.41 C 157.38 101.64 156.64 102.73 156.86 103.85 C 157.09 104.98 158.18 105.71 159.30 105.49 Z M 160.23 105.26 L 161.17 105.07 C 162.27 104.84 162.97 103.76 162.74 102.66 C 162.51 101.56 161.44 100.85 160.34 101.08 L 159.40 101.28 C 158.30 101.51 157.59 102.58 157.82 103.69 C 158.05 104.79 159.13 105.49 160.23 105.26 Z M 161.17 105.03 L 162.10 104.83 C 163.18 104.59 163.86 103.53 163.63 102.45 C 163.39 101.38 162.33 100.69 161.25 100.92 L 160.33 101.12 C 159.25 101.36 158.57 102.42 158.80 103.50 C 159.03 104.58 160.09 105.26 161.17 105.03 Z M 162.09 104.80 L 162.94 104.62 C 164.00 104.39 164.68 103.34 164.45 102.28 C 164.22 101.21 163.17 100.53 162.10 100.77 L 161.26 100.95 C 160.19 101.18 159.52 102.23 159.75 103.29 C 159.98 104.36 161.03 105.03 162.09 104.80 Z M 162.92 104.61 L 163.94 104.39 C 165.00 104.17 165.67 103.13 165.45 102.07 C 165.22 101.01 164.18 100.34 163.13 100.56 L 162.11 100.78 C 161.05 101.00 160.38 102.04 160.60 103.10 C 160.83 104.16 161.87 104.83 162.92 104.61 Z M 163.92 104.38 L 165.06 104.14 C 166.11 103.93 166.79 102.90 166.57 101.85 C 166.36 100.80 165.33 100.13 164.28 100.34 L 163.14 100.58 C 162.09 100.79 161.42 101.82 161.63 102.87 C 161.85 103.92 162.87 104.59 163.92 104.38 Z M 165.05 104.13 L 165.94 103.95 C 166.98 103.74 167.66 102.73 167.45 101.69 C 167.24 100.65 166.23 99.97 165.19 100.18 L 164.30 100.36 C 163.26 100.57 162.58 101.58 162.79 102.62 C 163.00 103.66 164.01 104.34 165.05 104.13 Z M 165.93 103.93 L 166.89 103.75 C 167.92 103.54 168.59 102.54 168.39 101.51 C 168.19 100.48 167.19 99.81 166.15 100.01 L 165.20 100.20 C 164.16 100.40 163.49 101.40 163.69 102.43 C 163.90 103.46 164.90 104.14 165.93 103.93 Z M 166.88 103.73 L 167.89 103.53 C 168.91 103.33 169.58 102.34 169.38 101.32 C 169.18 100.30 168.19 99.63 167.17 99.83 L 166.16 100.03 C 165.14 100.22 164.47 101.21 164.67 102.24 C 164.87 103.26 165.86 103.93 166.88 103.73 Z M 167.88 103.51 L 168.92 103.31 C 169.93 103.12 170.60 102.14 170.40 101.13 C 170.20 100.11 169.23 99.45 168.21 99.65 L 167.17 99.85 C 166.16 100.04 165.50 101.02 165.70 102.04 C 165.89 103.05 166.87 103.71 167.88 103.51 Z M 168.92 103.30 L 169.69 103.15 C 170.70 102.96 171.35 101.98 171.16 100.98 C 170.97 99.98 170.00 99.32 168.99 99.51 L 168.22 99.66 C 167.21 99.86 166.56 100.83 166.75 101.83 C 166.94 102.83 167.91 103.49 168.92 103.30 Z"
      fill="black"
      fill-rule="nonzero" /><path d="M 152.99 113.97 L 154.04 113.97 C 155.11 113.97 155.98 113.10 155.98 112.02 C 155.98 110.95 155.11 110.08 154.04 110.08 L 152.99 110.09 C 151.92 110.09 151.05 110.96 151.05 112.03 C 151.05 113.10 151.92 113.97 152.99 113.97 Z M 154.05 114.02 L 155.04 114.02 C 156.15 114.01 157.04 113.12 157.03 112.01 C 157.03 110.91 156.13 110.02 155.03 110.03 L 154.03 110.03 C 152.93 110.03 152.04 110.93 152.04 112.03 C 152.05 113.14 152.95 114.03 154.05 114.02 Z M 155.06 114.06 L 156.05 114.05 C 157.17 114.03 158.07 113.11 158.06 111.98 C 158.04 110.86 157.12 109.96 155.99 109.97 L 155.01 109.98 C 153.88 110.00 152.98 110.92 153.00 112.05 C 153.01 113.17 153.94 114.07 155.06 114.06 Z M 156.13 114.05 L 157.11 114.00 C 158.24 113.93 159.11 112.97 159.04 111.84 C 158.98 110.71 158.01 109.85 156.88 109.91 L 155.91 109.97 C 154.78 110.03 153.91 110.99 153.98 112.12 C 154.04 113.25 155.01 114.12 156.13 114.05 Z M 157.30 113.97 L 158.25 113.83 C 159.36 113.66 160.12 112.62 159.96 111.51 C 159.79 110.40 158.75 109.63 157.64 109.80 L 156.70 109.94 C 155.58 110.11 154.82 111.15 154.99 112.26 C 155.15 113.37 156.19 114.13 157.30 113.97 Z M 158.41 113.78 L 159.36 113.55 C 160.45 113.30 161.12 112.21 160.87 111.12 C 160.61 110.04 159.52 109.37 158.44 109.62 L 157.48 109.85 C 156.39 110.10 155.72 111.19 155.98 112.27 C 156.23 113.36 157.32 114.03 158.41 113.78 Z M 159.44 113.51 L 160.45 113.23 C 161.51 112.93 162.13 111.82 161.83 110.76 C 161.53 109.70 160.43 109.08 159.36 109.38 L 158.36 109.66 C 157.30 109.96 156.68 111.07 156.98 112.13 C 157.28 113.19 158.38 113.81 159.44 113.51 Z M 160.48 113.19 L 161.42 112.91 C 162.46 112.59 163.05 111.49 162.74 110.44 C 162.42 109.40 161.31 108.81 160.27 109.13 L 159.33 109.41 C 158.29 109.73 157.70 110.83 158.01 111.88 C 158.33 112.92 159.44 113.51 160.48 113.19 Z M 161.44 112.88 L 162.40 112.57 C 163.43 112.25 164.00 111.15 163.67 110.12 C 163.34 109.09 162.25 108.53 161.22 108.85 L 160.25 109.16 C 159.23 109.49 158.66 110.58 158.99 111.61 C 159.31 112.64 160.41 113.20 161.44 112.88 Z M 162.41 112.54 L 163.38 112.22 C 164.39 111.89 164.94 110.81 164.61 109.79 C 164.28 108.78 163.19 108.23 162.18 108.56 L 161.21 108.88 C 160.20 109.21 159.65 110.30 159.98 111.31 C 160.31 112.32 161.40 112.87 162.41 112.54 Z M 163.39 112.19 L 164.35 111.87 C 165.34 111.54 165.88 110.46 165.54 109.47 C 165.21 108.47 164.13 107.94 163.14 108.27 L 162.18 108.59 C 161.18 108.93 160.65 110.00 160.98 111.00 C 161.32 111.99 162.39 112.53 163.39 112.19 Z M 164.36 111.84 L 165.28 111.52 C 166.26 111.18 166.77 110.11 166.43 109.14 C 166.10 108.16 165.03 107.64 164.05 107.98 L 163.13 108.30 C 162.15 108.64 161.64 109.71 161.97 110.68 C 162.31 111.66 163.38 112.18 164.36 111.84 Z M 165.30 111.49 L 166.29 111.12 C 167.25 110.77 167.74 109.71 167.39 108.76 C 167.05 107.80 165.99 107.30 165.03 107.65 L 164.03 108.02 C 163.08 108.36 162.58 109.42 162.93 110.38 C 163.28 111.34 164.34 111.83 165.30 111.49 Z M 166.34 111.08 L 167.24 110.72 C 168.18 110.34 168.63 109.28 168.25 108.34 C 167.87 107.41 166.81 106.96 165.88 107.33 L 164.98 107.70 C 164.04 108.07 163.59 109.14 163.97 110.07 C 164.34 111.01 165.41 111.46 166.34 111.08 Z M 167.34 110.66 L 168.24 110.23 C 169.15 109.80 169.53 108.72 169.10 107.81 C 168.67 106.91 167.58 106.53 166.68 106.96 L 165.78 107.39 C 164.88 107.82 164.49 108.91 164.93 109.81 C 165.36 110.71 166.44 111.09 167.34 110.66 Z M 168.33 110.17 L 169.19 109.70 C 170.06 109.22 170.38 108.12 169.89 107.25 C 169.41 106.38 168.32 106.06 167.44 106.54 L 166.59 107.02 C 165.72 107.50 165.40 108.59 165.88 109.47 C 166.37 110.34 167.46 110.65 168.33 110.17 Z M 169.21 109.69 L 169.31 109.63 C 170.17 109.14 170.47 108.04 169.98 107.17 C 169.49 106.31 168.39 106.01 167.53 106.50 L 167.42 106.56 C 166.56 107.05 166.26 108.15 166.75 109.02 C 167.24 109.88 168.34 110.18 169.21 109.69 Z"
      fill="black"
      fill-rule="nonzero" /><path d="M 160.68 96.35 L 160.21 97.20 C 159.67 98.17 160.02 99.38 160.98 99.91 C 161.94 100.45 163.15 100.10 163.69 99.14 L 164.17 98.29 C 164.70 97.32 164.36 96.11 163.39 95.57 C 162.43 95.04 161.22 95.39 160.68 96.35 Z M 160.07 97.40 L 159.68 98.33 C 159.26 99.37 159.75 100.56 160.79 100.99 C 161.83 101.41 163.02 100.92 163.45 99.88 L 163.83 98.95 C 164.25 97.91 163.76 96.72 162.72 96.29 C 161.68 95.87 160.49 96.36 160.07 97.40 Z M 159.57 98.63 L 159.35 99.57 C 159.09 100.67 159.77 101.78 160.87 102.04 C 161.97 102.30 163.08 101.62 163.34 100.52 L 163.56 99.58 C 163.82 98.47 163.14 97.37 162.04 97.11 C 160.93 96.85 159.83 97.53 159.57 98.63 Z M 159.31 99.74 L 159.16 100.77 C 158.99 101.89 159.76 102.93 160.88 103.10 C 162.00 103.27 163.05 102.50 163.22 101.38 L 163.37 100.35 C 163.54 99.23 162.77 98.18 161.65 98.02 C 160.53 97.85 159.48 98.62 159.31 99.74 Z M 159.16 100.82 L 159.03 101.85 C 158.89 102.97 159.68 103.99 160.80 104.13 C 161.93 104.27 162.95 103.48 163.09 102.35 L 163.22 101.33 C 163.36 100.21 162.56 99.18 161.44 99.04 C 160.32 98.90 159.30 99.70 159.16 100.82 Z M 159.04 101.85 L 158.92 102.84 C 158.78 103.95 159.57 104.96 160.69 105.10 C 161.80 105.24 162.81 104.45 162.95 103.33 L 163.07 102.35 C 163.21 101.24 162.42 100.22 161.31 100.09 C 160.20 99.95 159.18 100.74 159.04 101.85 Z M 158.94 102.81 L 158.80 103.82 C 158.65 104.92 159.42 105.93 160.52 106.09 C 161.62 106.24 162.64 105.47 162.79 104.37 L 162.93 103.36 C 163.08 102.26 162.32 101.25 161.22 101.09 C 160.11 100.94 159.10 101.71 158.94 102.81 Z M 158.83 103.79 L 158.69 104.74 C 158.52 105.82 159.26 106.84 160.34 107.01 C 161.43 107.17 162.44 106.43 162.61 105.35 L 162.76 104.40 C 162.93 103.32 162.19 102.30 161.10 102.13 C 160.02 101.96 159.00 102.70 158.83 103.79 Z M 158.71 104.74 L 158.56 105.72 C 158.40 106.79 159.13 107.79 160.20 107.95 C 161.27 108.12 162.27 107.38 162.44 106.31 L 162.59 105.34 C 162.75 104.27 162.02 103.27 160.95 103.10 C 159.88 102.94 158.87 103.67 158.71 104.74 Z M 158.58 105.71 L 158.42 106.71 C 158.25 107.77 158.98 108.76 160.03 108.93 C 161.09 109.10 162.09 108.38 162.26 107.32 L 162.42 106.32 C 162.58 105.26 161.86 104.27 160.80 104.10 C 159.75 103.93 158.75 104.65 158.58 105.71 Z M 158.45 106.68 L 158.27 107.66 C 158.09 108.70 158.78 109.70 159.83 109.89 C 160.88 110.07 161.87 109.37 162.06 108.33 L 162.23 107.35 C 162.42 106.30 161.72 105.31 160.68 105.12 C 159.63 104.93 158.63 105.63 158.45 106.68 Z M 158.29 107.63 L 158.10 108.61 C 157.90 109.64 158.57 110.64 159.61 110.85 C 160.64 111.05 161.64 110.38 161.85 109.34 L 162.04 108.36 C 162.24 107.33 161.57 106.32 160.53 106.12 C 159.50 105.92 158.50 106.59 158.29 107.63 Z M 158.12 108.58 L 157.91 109.56 C 157.69 110.58 158.35 111.59 159.37 111.80 C 160.39 112.02 161.40 111.37 161.62 110.35 L 161.83 109.37 C 162.05 108.35 161.39 107.34 160.37 107.12 C 159.34 106.90 158.34 107.56 158.12 108.58 Z M 157.93 109.53 L 157.70 110.51 C 157.47 111.53 158.11 112.54 159.12 112.77 C 160.14 113.00 161.15 112.36 161.38 111.35 L 161.60 110.37 C 161.84 109.35 161.20 108.34 160.19 108.11 C 159.17 107.88 158.16 108.51 157.93 109.53 Z M 157.72 110.49 L 157.48 111.46 C 157.24 112.47 157.86 113.48 158.86 113.73 C 159.87 113.97 160.89 113.35 161.13 112.34 L 161.37 111.37 C 161.61 110.36 160.99 109.35 159.98 109.10 C 158.98 108.86 157.96 109.48 157.72 110.49 Z M 157.49 111.43 L 157.24 112.41 C 156.99 113.41 157.59 114.43 158.59 114.69 C 159.59 114.94 160.61 114.34 160.87 113.34 L 161.12 112.37 C 161.38 111.37 160.77 110.35 159.77 110.09 C 158.77 109.83 157.75 110.43 157.49 111.43 Z M 157.26 112.38 L 156.99 113.35 C 156.72 114.34 157.30 115.37 158.30 115.64 C 159.29 115.91 160.32 115.33 160.59 114.33 L 160.86 113.37 C 161.13 112.37 160.54 111.35 159.55 111.08 C 158.56 110.80 157.53 111.39 157.26 112.38 Z M 157.01 113.31 L 156.74 114.22 C 156.45 115.21 157.01 116.24 158.00 116.54 C 158.98 116.83 160.02 116.26 160.31 115.28 L 160.58 114.37 C 160.87 113.38 160.30 112.35 159.32 112.05 C 158.33 111.76 157.30 112.33 157.01 113.31 Z M 156.75 114.18 L 156.46 115.09 C 156.15 116.07 156.68 117.12 157.66 117.43 C 158.64 117.75 159.69 117.21 160.00 116.23 L 160.29 115.32 C 160.61 114.34 160.07 113.29 159.09 112.98 C 158.11 112.67 157.07 113.20 156.75 114.18 Z M 156.47 115.06 L 156.13 116.07 C 155.79 117.04 156.31 118.09 157.28 118.43 C 158.25 118.76 159.30 118.25 159.64 117.28 L 159.98 116.27 C 160.32 115.30 159.80 114.24 158.83 113.91 C 157.87 113.57 156.81 114.09 156.47 115.06 Z M 156.14 116.04 L 155.80 116.97 C 155.45 117.94 155.95 119.00 156.91 119.35 C 157.87 119.70 158.94 119.20 159.29 118.24 L 159.63 117.30 C 159.98 116.34 159.48 115.28 158.51 114.93 C 157.55 114.58 156.49 115.08 156.14 116.04 Z M 155.81 116.94 L 155.44 117.91 C 155.07 118.86 155.55 119.94 156.51 120.30 C 157.47 120.67 158.54 120.19 158.91 119.24 L 159.28 118.27 C 159.64 117.31 159.16 116.24 158.21 115.87 C 157.25 115.51 156.18 115.98 155.81 116.94 Z M 155.46 117.86 L 155.06 118.81 C 154.67 119.76 155.11 120.85 156.06 121.24 C 157.01 121.64 158.10 121.19 158.49 120.24 L 158.89 119.28 C 159.28 118.34 158.83 117.25 157.89 116.86 C 156.94 116.46 155.85 116.91 155.46 117.86 Z M 155.09 118.72 L 154.64 119.66 C 154.20 120.59 154.59 121.71 155.52 122.15 C 156.45 122.60 157.57 122.20 158.01 121.27 L 158.46 120.33 C 158.90 119.40 158.51 118.29 157.58 117.84 C 156.65 117.40 155.53 117.79 155.09 118.72 Z M 154.70 119.53 L 154.23 120.34 C 153.71 121.24 154.02 122.39 154.92 122.91 C 155.82 123.43 156.97 123.12 157.49 122.22 L 157.96 121.41 C 158.48 120.51 158.17 119.36 157.27 118.84 C 156.37 118.32 155.22 118.63 154.70 119.53 Z M 154.29 120.20 L 153.62 121.17 C 153.03 122.04 153.25 123.22 154.12 123.82 C 154.99 124.42 156.17 124.19 156.77 123.33 L 157.43 122.36 C 158.03 121.49 157.81 120.30 156.94 119.70 C 156.07 119.11 154.88 119.33 154.29 120.20 Z M 153.34 121.63 L 153.13 122.26 C 152.79 123.28 153.34 124.39 154.36 124.73 C 155.39 125.08 156.49 124.53 156.84 123.50 L 157.05 122.87 C 157.39 121.84 156.84 120.74 155.82 120.39 C 154.79 120.05 153.69 120.60 153.34 121.63 Z M 154.86 124.91 L 155.77 124.97 C 156.89 125.03 157.85 124.18 157.92 123.06 C 157.98 121.94 157.13 120.97 156.01 120.91 L 155.10 120.85 C 153.98 120.78 153.02 121.64 152.95 122.76 C 152.89 123.88 153.74 124.85 154.86 124.91 Z M 156.17 125.02 L 157.20 124.88 C 158.35 124.72 159.16 123.66 159.00 122.51 C 158.84 121.36 157.78 120.56 156.63 120.71 L 155.60 120.85 C 154.45 121.01 153.65 122.07 153.80 123.22 C 153.96 124.37 155.02 125.18 156.17 125.02 Z M 157.23 124.89 L 158.22 124.74 C 159.37 124.57 160.17 123.49 160.00 122.33 C 159.82 121.18 158.75 120.38 157.59 120.55 L 156.60 120.70 C 155.45 120.88 154.65 121.95 154.82 123.11 C 155.00 124.27 156.07 125.06 157.23 124.89 Z M 158.24 124.74 L 159.30 124.57 C 160.46 124.38 161.24 123.29 161.05 122.14 C 160.86 120.98 159.78 120.20 158.62 120.39 L 157.56 120.56 C 156.41 120.75 155.63 121.83 155.81 122.99 C 156.00 124.14 157.09 124.93 158.24 124.74 Z M 159.33 124.56 L 160.23 124.40 C 161.38 124.20 162.15 123.10 161.94 121.95 C 161.74 120.80 160.64 120.03 159.49 120.23 L 158.59 120.39 C 157.44 120.59 156.68 121.69 156.88 122.84 C 157.08 123.99 158.18 124.76 159.33 124.56 Z M 160.25 124.39 L 161.22 124.21 C 162.36 123.99 163.12 122.89 162.90 121.74 C 162.68 120.59 161.58 119.84 160.43 120.06 L 159.47 120.24 C 158.32 120.46 157.57 121.56 157.79 122.71 C 158.00 123.86 159.11 124.61 160.25 124.39 Z M 161.24 124.20 L 162.30 123.98 C 163.44 123.75 164.18 122.64 163.94 121.50 C 163.71 120.36 162.60 119.62 161.46 119.86 L 160.41 120.07 C 159.27 120.30 158.53 121.41 158.76 122.55 C 158.99 123.69 160.10 124.43 161.24 124.20 Z M 162.32 123.97 L 163.35 123.75 C 164.49 123.51 165.21 122.39 164.97 121.26 C 164.72 120.13 163.61 119.40 162.47 119.65 L 161.44 119.87 C 160.31 120.11 159.59 121.23 159.83 122.36 C 160.07 123.49 161.19 124.21 162.32 123.97 Z M 163.36 123.73 L 164.39 123.51 C 165.52 123.26 166.23 122.15 165.98 121.02 C 165.73 119.90 164.62 119.19 163.49 119.43 L 162.46 119.66 C 161.34 119.91 160.63 121.02 160.88 122.15 C 161.13 123.27 162.24 123.98 163.36 123.73 Z M 164.39 123.49 L 165.40 123.27 C 166.52 123.02 167.22 121.91 166.97 120.80 C 166.72 119.68 165.61 118.98 164.50 119.23 L 163.49 119.45 C 162.38 119.70 161.67 120.81 161.92 121.92 C 162.17 123.04 163.28 123.74 164.39 123.49 Z M 165.39 123.25 L 166.31 123.05 C 167.41 122.81 168.11 121.71 167.87 120.60 C 167.62 119.49 166.53 118.79 165.42 119.04 L 164.50 119.24 C 163.40 119.49 162.70 120.58 162.94 121.69 C 163.19 122.80 164.28 123.50 165.39 123.25 Z M 166.28 123.02 L 167.39 122.78 C 168.48 122.55 169.18 121.48 168.95 120.39 C 168.72 119.30 167.65 118.61 166.56 118.84 L 165.45 119.07 C 164.36 119.30 163.66 120.37 163.89 121.46 C 164.12 122.55 165.19 123.25 166.28 123.02 Z M 167.32 122.73 L 168.24 122.56 C 169.30 122.37 170.00 121.36 169.81 120.30 C 169.62 119.24 168.61 118.53 167.55 118.72 L 166.63 118.89 C 165.57 119.08 164.86 120.09 165.05 121.16 C 165.24 122.22 166.26 122.92 167.32 122.73 Z M 168.13 122.51 L 169.02 122.40 C 170.05 122.27 170.78 121.33 170.65 120.29 C 170.52 119.26 169.57 118.53 168.54 118.66 L 167.66 118.77 C 166.62 118.91 165.89 119.85 166.02 120.88 C 166.15 121.92 167.10 122.65 168.13 122.51 Z M 168.93 122.37 L 169.93 122.28 C 170.94 122.20 171.69 121.31 171.61 120.30 C 171.52 119.28 170.64 118.53 169.62 118.62 L 168.63 118.70 C 167.61 118.78 166.86 119.67 166.94 120.68 C 167.03 121.70 167.92 122.45 168.93 122.37 Z M 169.90 122.26 L 170.38 122.23 C 171.38 122.16 172.14 121.29 172.07 120.29 C 172.00 119.29 171.14 118.54 170.14 118.61 L 169.65 118.64 C 168.65 118.71 167.90 119.57 167.96 120.57 C 168.03 121.57 168.90 122.33 169.90 122.26 Z"
      fill="black"
      fill-rule="nonzero" /><path d="M 154.18 134.55 L 154.18 135.52 C 154.18 136.61 155.06 137.50 156.16 137.50 C 157.25 137.50 158.14 136.61 158.14 135.52 L 158.14 134.55 C 158.14 133.46 157.25 132.57 156.16 132.57 C 155.06 132.57 154.18 133.46 154.18 134.55 Z M 154.15 135.52 L 154.15 136.54 C 154.15 137.64 155.05 138.54 156.16 138.54 C 157.26 138.54 158.16 137.64 158.16 136.54 L 158.16 135.52 C 158.16 134.41 157.26 133.51 156.16 133.51 C 155.05 133.51 154.15 134.41 154.15 135.52 Z M 154.14 136.54 L 154.14 137.52 C 154.14 138.63 155.05 139.54 156.16 139.53 C 157.28 139.53 158.18 138.63 158.18 137.51 L 158.17 136.53 C 158.17 135.42 157.27 134.52 156.15 134.52 C 155.04 134.52 154.14 135.42 154.14 136.54 Z M 154.13 137.53 L 154.14 138.57 C 154.15 139.68 155.07 140.58 156.18 140.57 C 157.30 140.56 158.20 139.65 158.19 138.53 L 158.18 137.50 C 158.17 136.38 157.26 135.48 156.14 135.49 C 155.02 135.50 154.12 136.42 154.13 137.53 Z M 154.14 138.59 L 154.16 139.55 C 154.18 140.67 155.10 141.56 156.22 141.54 C 157.34 141.52 158.23 140.59 158.21 139.48 L 158.19 138.51 C 158.17 137.40 157.25 136.50 156.13 136.52 C 155.01 136.54 154.12 137.47 154.14 138.59 Z M 154.16 139.55 L 154.18 140.56 C 154.20 141.68 155.12 142.57 156.24 142.55 C 157.36 142.53 158.25 141.61 158.23 140.49 L 158.21 139.48 C 158.19 138.36 157.26 137.47 156.15 137.49 C 155.03 137.51 154.14 138.43 154.16 139.55 Z M 154.19 140.55 L 154.20 141.59 C 154.21 142.70 155.12 143.59 156.24 143.58 C 157.35 143.57 158.24 142.65 158.23 141.54 L 158.22 140.50 C 158.21 139.39 157.29 138.50 156.18 138.51 C 155.07 138.52 154.18 139.44 154.19 140.55 Z M 154.22 141.57 L 154.22 142.60 C 154.22 143.71 155.12 144.60 156.23 144.59 C 157.33 144.59 158.22 143.69 158.22 142.59 L 158.21 141.56 C 158.21 140.45 157.31 139.56 156.21 139.57 C 155.10 139.57 154.21 140.47 154.22 141.57 Z M 154.24 142.60 L 154.24 143.56 C 154.24 144.65 155.13 145.54 156.22 145.53 C 157.31 145.53 158.20 144.65 158.20 143.56 L 158.20 142.59 C 158.19 141.50 157.31 140.62 156.22 140.62 C 155.12 140.62 154.24 141.50 154.24 142.60 Z M 154.27 143.56 L 154.27 144.63 C 154.27 145.71 155.14 146.58 156.22 146.58 C 157.29 146.58 158.17 145.71 158.17 144.63 L 158.17 143.56 C 158.17 142.48 157.29 141.61 156.22 141.61 C 155.14 141.61 154.27 142.48 154.27 143.56 Z M 154.31 144.63 L 154.31 145.55 C 154.31 146.60 155.16 147.46 156.22 147.46 C 157.27 147.46 158.13 146.60 158.13 145.55 L 158.13 144.63 C 158.13 143.58 157.27 142.72 156.22 142.72 C 155.16 142.72 154.31 143.58 154.31 144.63 Z M 154.34 145.49 L 154.31 146.47 C 154.28 147.51 155.10 148.38 156.14 148.40 C 157.18 148.43 158.04 147.62 158.07 146.58 L 158.10 145.60 C 158.13 144.56 157.31 143.70 156.27 143.67 C 155.23 143.64 154.37 144.46 154.34 145.49 Z M 154.35 146.26 L 154.19 147.39 C 154.04 148.41 154.74 149.35 155.76 149.50 C 156.78 149.64 157.72 148.94 157.87 147.92 L 158.03 146.79 C 158.18 145.78 157.47 144.83 156.46 144.69 C 155.44 144.54 154.50 145.24 154.35 146.26 Z M 154.30 147.01 L 154.00 147.83 C 153.64 148.78 154.13 149.84 155.08 150.20 C 156.03 150.55 157.09 150.07 157.44 149.12 L 157.75 148.30 C 158.11 147.35 157.62 146.29 156.67 145.93 C 155.72 145.58 154.66 146.06 154.30 147.01 Z M 157.38 147.73 L 157.06 147.02 C 156.66 146.11 155.58 145.69 154.66 146.10 C 153.75 146.51 153.34 147.59 153.74 148.50 L 154.06 149.21 C 154.47 150.13 155.54 150.54 156.46 150.13 C 157.38 149.73 157.79 148.65 157.38 147.73 Z M 157.20 147.61 L 157.12 146.60 C 157.03 145.61 156.16 144.87 155.17 144.95 C 154.18 145.04 153.44 145.91 153.52 146.90 L 153.61 147.91 C 153.69 148.90 154.56 149.64 155.55 149.56 C 156.55 149.48 157.28 148.61 157.20 147.61 Z M 157.12 146.74 L 157.11 145.70 C 157.10 144.70 156.29 143.91 155.30 143.91 C 154.30 143.92 153.50 144.73 153.51 145.73 L 153.52 146.77 C 153.53 147.76 154.34 148.56 155.33 148.55 C 156.33 148.54 157.13 147.73 157.12 146.74 Z M 157.11 145.74 L 157.13 144.75 C 157.14 143.76 156.35 142.94 155.36 142.92 C 154.36 142.91 153.55 143.70 153.53 144.69 L 153.51 145.68 C 153.50 146.68 154.29 147.50 155.28 147.51 C 156.28 147.53 157.10 146.74 157.11 145.74 Z M 157.13 144.81 L 157.17 143.81 C 157.22 142.82 156.45 141.97 155.46 141.93 C 154.46 141.88 153.62 142.65 153.58 143.64 L 153.53 144.64 C 153.49 145.63 154.25 146.48 155.25 146.52 C 156.24 146.57 157.08 145.80 157.13 144.81 Z M 157.16 143.90 L 157.27 142.87 C 157.37 141.88 156.65 141.00 155.66 140.90 C 154.67 140.80 153.79 141.52 153.69 142.51 L 153.58 143.55 C 153.48 144.54 154.21 145.42 155.20 145.52 C 156.18 145.62 157.07 144.89 157.16 143.90 Z M 157.25 142.98 L 157.41 142.01 C 157.57 141.03 156.91 140.10 155.93 139.94 C 154.95 139.78 154.02 140.45 153.86 141.43 L 153.70 142.40 C 153.54 143.38 154.21 144.30 155.19 144.46 C 156.17 144.62 157.09 143.96 157.25 142.98 Z M 157.40 142.08 L 157.60 141.10 C 157.80 140.12 157.18 139.17 156.20 138.97 C 155.23 138.77 154.28 139.40 154.08 140.37 L 153.87 141.36 C 153.67 142.33 154.30 143.28 155.27 143.48 C 156.25 143.68 157.20 143.06 157.40 142.08 Z M 157.60 141.13 L 157.79 140.28 C 158.00 139.31 157.40 138.34 156.43 138.12 C 155.46 137.91 154.49 138.52 154.28 139.49 L 154.08 140.34 C 153.87 141.31 154.48 142.27 155.44 142.49 C 156.41 142.71 157.38 142.10 157.60 141.13 Z"
      fill="black"
      fill-rule="nonzero" /><path d="M 160.14 135.29 L 160.89 134.59 C 161.63 133.92 161.68 132.78 161.01 132.05 C 160.34 131.32 159.20 131.26 158.46 131.94 L 157.71 132.63 C 156.97 133.30 156.92 134.44 157.59 135.17 C 158.26 135.91 159.40 135.96 160.14 135.29 Z M 160.84 134.64 L 161.59 134.01 C 162.35 133.37 162.45 132.23 161.81 131.47 C 161.17 130.71 160.03 130.61 159.27 131.25 L 158.52 131.89 C 157.76 132.53 157.66 133.66 158.30 134.42 C 158.94 135.19 160.08 135.28 160.84 134.64 Z M 161.46 134.11 L 162.26 133.56 C 163.07 132.99 163.28 131.87 162.71 131.05 C 162.14 130.23 161.02 130.03 160.20 130.59 L 159.40 131.15 C 158.58 131.72 158.38 132.84 158.95 133.66 C 159.52 134.48 160.64 134.68 161.46 134.11 Z M 162.04 133.69 L 162.93 133.25 C 163.82 132.80 164.19 131.72 163.74 130.82 C 163.29 129.93 162.21 129.57 161.32 130.01 L 160.42 130.46 C 159.53 130.91 159.17 131.99 159.61 132.88 C 160.06 133.78 161.14 134.14 162.04 133.69 Z M 162.72 133.34 L 163.65 133.02 C 164.60 132.69 165.10 131.65 164.77 130.71 C 164.44 129.76 163.41 129.26 162.46 129.59 L 161.53 129.92 C 160.58 130.25 160.08 131.28 160.41 132.23 C 160.74 133.17 161.78 133.67 162.72 133.34 Z M 163.49 133.07 L 164.48 132.83 C 165.45 132.59 166.05 131.61 165.82 130.63 C 165.58 129.66 164.60 129.06 163.62 129.30 L 162.63 129.54 C 161.65 129.78 161.05 130.76 161.29 131.73 C 161.53 132.71 162.51 133.31 163.49 133.07 Z M 164.29 132.87 L 165.34 132.73 C 166.33 132.60 167.04 131.68 166.90 130.68 C 166.77 129.68 165.85 128.98 164.85 129.11 L 163.81 129.25 C 162.81 129.39 162.11 130.31 162.24 131.31 C 162.38 132.31 163.29 133.01 164.29 132.87 Z M 165.06 132.76 L 166.08 132.78 C 167.10 132.79 167.93 131.99 167.95 130.98 C 167.97 129.97 167.17 129.13 166.15 129.11 L 165.13 129.09 C 164.12 129.07 163.28 129.88 163.26 130.89 C 163.24 131.90 164.05 132.74 165.06 132.76 Z M 165.61 132.71 L 166.50 132.97 C 167.48 133.25 168.50 132.69 168.78 131.71 C 169.06 130.73 168.50 129.71 167.52 129.43 L 166.63 129.17 C 165.65 128.89 164.63 129.46 164.35 130.43 C 164.07 131.41 164.63 132.43 165.61 132.71 Z M 165.85 132.64 L 166.61 133.25 C 167.40 133.89 168.57 133.77 169.21 132.97 C 169.85 132.18 169.73 131.01 168.93 130.37 L 168.17 129.76 C 167.38 129.12 166.21 129.24 165.57 130.04 C 164.93 130.83 165.05 132.00 165.85 132.64 Z M 166.25 132.88 L 166.81 133.67 C 167.40 134.51 168.56 134.72 169.40 134.12 C 170.24 133.53 170.44 132.37 169.85 131.53 L 169.29 130.74 C 168.70 129.90 167.54 129.70 166.70 130.29 C 165.86 130.88 165.66 132.04 166.25 132.88 Z M 166.65 133.43 L 167.10 134.35 C 167.56 135.27 168.68 135.65 169.61 135.19 C 170.53 134.73 170.91 133.61 170.46 132.69 L 170.00 131.77 C 169.54 130.85 168.42 130.47 167.50 130.93 C 166.57 131.38 166.19 132.51 166.65 133.43 Z M 166.97 134.14 L 167.30 135.07 C 167.64 136.07 168.73 136.60 169.72 136.25 C 170.72 135.91 171.25 134.82 170.91 133.82 L 170.58 132.89 C 170.24 131.90 169.15 131.37 168.16 131.71 C 167.16 132.06 166.63 133.14 166.97 134.14 Z M 167.17 134.92 L 167.41 135.90 C 167.67 136.97 168.75 137.62 169.82 137.36 C 170.88 137.10 171.54 136.02 171.27 134.95 L 171.03 133.97 C 170.77 132.91 169.69 132.25 168.63 132.51 C 167.56 132.78 166.91 133.85 167.17 134.92 Z M 167.32 135.80 L 167.50 136.79 C 167.71 137.91 168.78 138.65 169.90 138.44 C 171.02 138.23 171.75 137.16 171.55 136.04 L 171.36 135.05 C 171.16 133.94 170.08 133.20 168.97 133.40 C 167.85 133.61 167.11 134.68 167.32 135.80 Z M 167.46 136.72 L 167.61 137.70 C 167.77 138.84 168.83 139.63 169.97 139.46 C 171.11 139.29 171.89 138.24 171.73 137.10 L 171.58 136.12 C 171.42 134.98 170.36 134.19 169.22 134.36 C 168.09 134.52 167.30 135.58 167.46 136.72 Z M 167.60 137.64 L 167.71 138.65 C 167.85 139.80 168.88 140.62 170.02 140.49 C 171.17 140.36 171.99 139.32 171.85 138.18 L 171.74 137.16 C 171.61 136.02 170.57 135.20 169.43 135.33 C 168.29 135.46 167.47 136.50 167.60 137.64 Z M 167.71 138.60 L 167.79 139.53 C 167.89 140.68 168.90 141.53 170.05 141.42 C 171.20 141.32 172.05 140.31 171.94 139.16 L 171.86 138.23 C 171.76 137.08 170.75 136.24 169.60 136.34 C 168.45 136.44 167.60 137.45 167.71 138.60 Z M 167.79 139.48 L 167.85 140.47 C 167.92 141.62 168.91 142.49 170.06 142.42 C 171.21 142.35 172.08 141.36 172.01 140.21 L 171.95 139.21 C 171.88 138.07 170.89 137.19 169.74 137.26 C 168.59 137.34 167.71 138.33 167.79 139.48 Z M 167.84 140.42 L 167.88 141.48 C 167.93 142.63 168.89 143.53 170.05 143.49 C 171.20 143.44 172.10 142.48 172.05 141.32 L 172.01 140.26 C 171.97 139.11 171.00 138.21 169.85 138.26 C 168.70 138.30 167.80 139.27 167.84 140.42 Z M 167.88 141.43 L 167.90 142.43 C 167.92 143.58 168.86 144.50 170.01 144.48 C 171.17 144.46 172.08 143.51 172.07 142.36 L 172.05 141.37 C 172.04 140.22 171.09 139.30 169.94 139.32 C 168.79 139.33 167.87 140.28 167.88 141.43 Z M 167.90 142.38 L 167.89 143.40 C 167.89 144.56 168.81 145.49 169.96 145.50 C 171.11 145.51 172.05 144.58 172.06 143.43 L 172.07 142.41 C 172.07 141.26 171.15 140.32 170.00 140.31 C 168.85 140.30 167.91 141.23 167.90 142.38 Z M 167.90 143.35 L 167.86 144.35 C 167.82 145.50 168.72 146.46 169.87 146.50 C 171.02 146.54 171.98 145.64 172.02 144.49 L 172.06 143.49 C 172.09 142.34 171.19 141.38 170.05 141.34 C 168.90 141.30 167.94 142.20 167.90 143.35 Z M 167.88 144.27 L 167.80 145.34 C 167.71 146.49 168.57 147.48 169.71 147.56 C 170.85 147.65 171.85 146.79 171.93 145.65 L 172.01 144.57 C 172.09 143.43 171.24 142.44 170.09 142.35 C 168.95 142.27 167.96 143.13 167.88 144.27 Z M 167.82 145.24 L 167.70 146.24 C 167.56 147.37 168.36 148.40 169.49 148.54 C 170.61 148.68 171.64 147.88 171.78 146.75 L 171.91 145.75 C 172.05 144.62 171.24 143.59 170.12 143.45 C 168.99 143.31 167.96 144.11 167.82 145.24 Z M 167.73 146.14 L 167.57 147.04 C 167.37 148.15 168.11 149.20 169.22 149.40 C 170.33 149.60 171.39 148.86 171.59 147.75 L 171.75 146.85 C 171.95 145.74 171.21 144.69 170.10 144.49 C 168.99 144.29 167.93 145.03 167.73 146.14 Z M 167.61 146.92 L 167.37 147.95 C 167.11 149.04 167.78 150.13 168.87 150.39 C 169.95 150.65 171.04 149.98 171.30 148.89 L 171.55 147.86 C 171.81 146.78 171.13 145.69 170.05 145.43 C 168.96 145.17 167.87 145.84 167.61 146.92 Z M 167.42 147.84 L 167.14 148.75 C 166.82 149.81 167.42 150.93 168.48 151.25 C 169.53 151.57 170.65 150.98 170.97 149.92 L 171.25 149.00 C 171.57 147.95 170.97 146.83 169.92 146.51 C 168.86 146.19 167.74 146.78 167.42 147.84 Z M 167.20 148.65 L 166.85 149.60 C 166.48 150.63 167.00 151.76 168.02 152.14 C 169.05 152.52 170.18 151.99 170.56 150.97 L 170.91 150.02 C 171.29 149.00 170.76 147.86 169.74 147.48 C 168.72 147.10 167.58 147.63 167.20 148.65 Z M 166.94 149.47 L 166.53 150.35 C 166.08 151.33 166.51 152.48 167.48 152.93 C 168.46 153.38 169.61 152.96 170.06 151.98 L 170.47 151.10 C 170.92 150.13 170.50 148.97 169.52 148.52 C 168.55 148.07 167.39 148.50 166.94 149.47 Z M 166.75 150.04 L 166.15 150.88 C 165.53 151.73 165.72 152.92 166.57 153.55 C 167.42 154.17 168.62 153.98 169.24 153.12 L 169.84 152.29 C 170.46 151.44 170.28 150.24 169.42 149.62 C 168.57 149.00 167.38 149.19 166.75 150.04 Z M 167.32 150.17 L 166.49 150.33 C 165.48 150.54 164.82 151.53 165.02 152.54 C 165.23 153.55 166.22 154.21 167.23 154.00 L 168.06 153.83 C 169.08 153.63 169.73 152.64 169.53 151.63 C 169.32 150.62 168.34 149.96 167.32 150.17 Z M 167.47 150.44 L 166.52 150.11 C 165.57 149.77 164.53 150.27 164.19 151.23 C 163.85 152.18 164.35 153.23 165.31 153.56 L 166.25 153.89 C 167.20 154.23 168.25 153.73 168.59 152.78 C 168.92 151.82 168.42 150.78 167.47 150.44 Z"
      fill="black"
      fill-rule="nonzero" /><path d="M 157.92 140.15 L 158.89 140.46 C 159.94 140.80 161.07 140.23 161.41 139.17 C 161.75 138.12 161.17 136.99 160.12 136.65 L 159.15 136.33 C 158.10 135.99 156.97 136.57 156.63 137.63 C 156.29 138.68 156.86 139.81 157.92 140.15 Z M 159.30 140.55 L 160.25 140.65 C 161.35 140.76 162.34 139.96 162.45 138.86 C 162.56 137.76 161.76 136.78 160.66 136.66 L 159.71 136.56 C 158.61 136.45 157.62 137.25 157.51 138.35 C 157.40 139.45 158.20 140.43 159.30 140.55 Z M 160.87 140.56 L 161.83 140.35 C 162.88 140.12 163.55 139.09 163.33 138.04 C 163.10 136.99 162.07 136.32 161.02 136.55 L 160.05 136.75 C 159.00 136.98 158.33 138.01 158.56 139.06 C 158.78 140.11 159.82 140.78 160.87 140.56 Z M 162.08 140.20 L 163.02 139.85 C 163.99 139.49 164.48 138.41 164.12 137.44 C 163.76 136.47 162.68 135.98 161.71 136.34 L 160.77 136.69 C 159.80 137.05 159.31 138.13 159.67 139.10 C 160.03 140.07 161.11 140.57 162.08 140.20 Z M 163.12 139.77 L 164.05 139.36 C 164.97 138.94 165.38 137.85 164.96 136.92 C 164.54 135.99 163.45 135.58 162.53 136.00 L 161.60 136.42 C 160.68 136.84 160.27 137.93 160.69 138.86 C 161.10 139.78 162.20 140.19 163.12 139.77 Z M 164.16 139.28 L 165.04 138.80 C 165.93 138.32 166.26 137.21 165.78 136.33 C 165.30 135.44 164.19 135.11 163.30 135.59 L 162.41 136.07 C 161.53 136.55 161.20 137.66 161.68 138.55 C 162.16 139.44 163.27 139.77 164.16 139.28 Z M 165.12 138.74 L 165.97 138.22 C 166.82 137.70 167.09 136.58 166.57 135.73 C 166.05 134.88 164.93 134.61 164.08 135.13 L 163.23 135.65 C 162.37 136.18 162.10 137.29 162.63 138.14 C 163.15 139.00 164.27 139.27 165.12 138.74 Z M 165.99 138.20 L 166.22 138.06 C 167.06 137.52 167.31 136.41 166.78 135.57 C 166.25 134.73 165.13 134.48 164.29 135.01 L 164.06 135.15 C 163.22 135.68 162.97 136.80 163.50 137.64 C 164.03 138.48 165.14 138.73 165.99 138.20 Z"
      fill="black"
      fill-rule="nonzero" /><path d="M 159.60 146.26 L 160.53 146.00 C 161.61 145.70 162.24 144.59 161.94 143.51 C 161.64 142.43 160.52 141.80 159.45 142.10 L 158.52 142.36 C 157.44 142.66 156.81 143.78 157.11 144.85 C 157.41 145.93 158.52 146.56 159.60 146.26 Z M 160.61 146.05 L 161.57 145.76 C 162.68 145.41 163.30 144.24 162.96 143.13 C 162.62 142.03 161.44 141.41 160.33 141.75 L 159.37 142.05 C 158.26 142.39 157.64 143.56 157.99 144.67 C 158.33 145.78 159.50 146.40 160.61 146.05 Z M 161.68 145.75 L 162.64 145.40 C 163.74 145.01 164.31 143.79 163.91 142.68 C 163.51 141.58 162.30 141.01 161.19 141.41 L 160.23 141.75 C 159.13 142.15 158.56 143.37 158.96 144.47 C 159.35 145.58 160.57 146.15 161.68 145.75 Z M 162.69 145.34 L 163.64 144.96 C 164.71 144.53 165.23 143.32 164.80 142.25 C 164.37 141.18 163.16 140.66 162.09 141.09 L 161.14 141.47 C 160.07 141.90 159.55 143.11 159.98 144.18 C 160.41 145.25 161.62 145.77 162.69 145.34 Z M 163.64 144.89 L 164.55 144.52 C 165.58 144.08 166.07 142.90 165.64 141.87 C 165.21 140.83 164.02 140.35 162.99 140.78 L 162.08 141.16 C 161.05 141.59 160.56 142.78 160.99 143.81 C 161.42 144.84 162.61 145.33 163.64 144.89 Z M 164.52 144.46 L 165.47 144.06 C 166.47 143.65 166.94 142.50 166.52 141.50 C 166.11 140.50 164.96 140.03 163.96 140.44 L 163.02 140.84 C 162.02 141.25 161.54 142.40 161.96 143.40 C 162.38 144.40 163.52 144.87 164.52 144.46 Z M 165.41 144.01 L 166.32 143.65 C 167.29 143.27 167.76 142.17 167.38 141.20 C 167.00 140.23 165.90 139.75 164.93 140.14 L 164.02 140.49 C 163.05 140.88 162.57 141.98 162.96 142.95 C 163.34 143.92 164.44 144.40 165.41 144.01 Z M 166.25 143.63 L 167.16 143.29 C 168.12 142.95 168.61 141.89 168.27 140.93 C 167.92 139.98 166.86 139.49 165.91 139.83 L 164.99 140.16 C 164.04 140.51 163.54 141.57 163.89 142.52 C 164.24 143.48 165.29 143.97 166.25 143.63 Z M 167.12 143.28 L 168.08 142.96 C 169.03 142.63 169.54 141.60 169.21 140.65 C 168.89 139.70 167.85 139.19 166.90 139.52 L 165.95 139.84 C 165.00 140.17 164.49 141.20 164.81 142.15 C 165.14 143.10 166.17 143.61 167.12 143.28 Z M 168.06 142.95 L 168.73 142.73 C 169.67 142.41 170.18 141.39 169.87 140.44 C 169.55 139.50 168.53 138.99 167.58 139.30 L 166.92 139.52 C 165.97 139.84 165.46 140.86 165.78 141.81 C 166.09 142.76 167.12 143.27 168.06 142.95 Z"
      fill="black"
      fill-rule="nonzero" /><path d="M 157.22 156.09 L 158.10 155.59 C 159.13 155.00 159.49 153.69 158.91 152.65 C 158.32 151.62 157.01 151.25 155.97 151.84 L 155.09 152.34 C 154.06 152.93 153.69 154.24 154.28 155.28 C 154.87 156.31 156.18 156.67 157.22 156.09 Z M 158.06 155.60 L 158.92 155.14 C 159.96 154.57 160.35 153.27 159.78 152.23 C 159.22 151.18 157.91 150.80 156.87 151.36 L 156.01 151.83 C 154.97 152.39 154.58 153.70 155.14 154.74 C 155.71 155.78 157.01 156.17 158.06 155.60 Z M 158.85 155.17 L 159.72 154.73 C 160.78 154.21 161.21 152.92 160.69 151.86 C 160.16 150.80 158.87 150.37 157.81 150.90 L 156.94 151.33 C 155.88 151.86 155.45 153.14 155.97 154.20 C 156.50 155.26 157.79 155.69 158.85 155.17 Z M 159.65 154.76 L 160.59 154.34 C 161.66 153.85 162.14 152.58 161.65 151.51 C 161.16 150.43 159.90 149.96 158.82 150.44 L 157.89 150.87 C 156.81 151.36 156.33 152.62 156.82 153.70 C 157.31 154.77 158.57 155.25 159.65 154.76 Z M 160.54 154.35 L 161.48 153.95 C 162.57 153.49 163.07 152.24 162.61 151.16 C 162.15 150.07 160.90 149.57 159.81 150.03 L 158.87 150.43 C 157.79 150.89 157.28 152.14 157.74 153.23 C 158.20 154.31 159.45 154.81 160.54 154.35 Z M 161.44 153.97 L 162.37 153.59 C 163.46 153.15 163.99 151.91 163.55 150.82 C 163.11 149.73 161.87 149.20 160.78 149.64 L 159.85 150.01 C 158.76 150.45 158.23 151.70 158.67 152.79 C 159.11 153.88 160.35 154.41 161.44 153.97 Z M 162.31 153.61 L 163.22 153.28 C 164.33 152.87 164.89 151.65 164.49 150.55 C 164.08 149.44 162.86 148.88 161.76 149.28 L 160.84 149.62 C 159.74 150.02 159.17 151.25 159.58 152.35 C 159.98 153.45 161.21 154.02 162.31 153.61 Z M 163.15 153.30 L 164.10 153.00 C 165.22 152.63 165.83 151.43 165.47 150.32 C 165.10 149.20 163.90 148.58 162.79 148.95 L 161.83 149.25 C 160.72 149.62 160.10 150.82 160.47 151.94 C 160.83 153.05 162.03 153.67 163.15 153.30 Z M 164.02 153.02 L 165.01 152.74 C 166.14 152.42 166.80 151.24 166.48 150.11 C 166.15 148.98 164.98 148.32 163.84 148.64 L 162.86 148.92 C 161.73 149.24 161.07 150.42 161.39 151.55 C 161.71 152.69 162.89 153.34 164.02 153.02 Z M 164.84 152.81 L 165.92 152.60 C 167.09 152.37 167.86 151.23 167.63 150.06 C 167.40 148.90 166.26 148.13 165.09 148.36 L 164.01 148.58 C 162.84 148.81 162.08 149.94 162.31 151.11 C 162.54 152.28 163.67 153.04 164.84 152.81 Z M 164.65 152.52 L 165.34 152.81 C 166.46 153.29 167.76 152.76 168.24 151.64 C 168.71 150.51 168.19 149.21 167.06 148.74 L 166.37 148.44 C 165.25 147.97 163.95 148.49 163.47 149.62 C 163.00 150.74 163.52 152.04 164.65 152.52 Z M 163.95 150.80 L 163.97 151.72 C 163.98 152.96 165.00 153.95 166.24 153.94 C 167.48 153.92 168.47 152.90 168.46 151.66 L 168.45 150.74 C 168.43 149.50 167.41 148.51 166.17 148.53 C 164.93 148.54 163.94 149.56 163.95 150.80 Z M 164.04 151.11 L 163.77 152.14 C 163.45 153.34 164.16 154.57 165.36 154.89 C 166.57 155.21 167.80 154.49 168.11 153.29 L 168.39 152.27 C 168.70 151.06 167.99 149.83 166.79 149.52 C 165.59 149.20 164.35 149.91 164.04 151.11 Z M 163.83 151.94 L 163.50 152.84 C 163.07 154.00 163.66 155.30 164.83 155.73 C 166.00 156.16 167.29 155.56 167.72 154.39 L 168.05 153.49 C 168.48 152.33 167.88 151.03 166.72 150.60 C 165.55 150.17 164.26 150.77 163.83 151.94 Z M 163.54 152.74 L 163.11 153.74 C 162.62 154.88 163.16 156.20 164.30 156.69 C 165.45 157.18 166.77 156.64 167.25 155.50 L 167.68 154.50 C 168.17 153.35 167.63 152.03 166.49 151.54 C 165.34 151.06 164.02 151.59 163.54 152.74 Z M 163.13 153.69 L 162.73 154.58 C 162.21 155.71 162.71 157.04 163.84 157.56 C 164.97 158.07 166.31 157.57 166.82 156.44 L 167.23 155.55 C 167.74 154.42 167.25 153.09 166.11 152.57 C 164.98 152.06 163.65 152.56 163.13 153.69 Z M 162.75 154.54 L 162.31 155.46 C 161.78 156.58 162.25 157.92 163.37 158.46 C 164.49 158.99 165.83 158.52 166.37 157.40 L 166.80 156.48 C 167.34 155.36 166.86 154.02 165.74 153.48 C 164.62 152.95 163.28 153.42 162.75 154.54 Z M 162.33 155.43 L 161.88 156.34 C 161.32 157.45 161.78 158.80 162.89 159.35 C 164.00 159.90 165.34 159.45 165.90 158.34 L 166.35 157.43 C 166.90 156.32 166.45 154.97 165.34 154.42 C 164.23 153.87 162.88 154.32 162.33 155.43 Z M 161.90 156.30 L 161.40 157.26 C 160.82 158.36 161.25 159.71 162.34 160.29 C 163.44 160.86 164.79 160.44 165.37 159.34 L 165.87 158.38 C 166.45 157.28 166.02 155.93 164.93 155.35 C 163.83 154.78 162.48 155.20 161.90 156.30 Z M 161.43 157.23 L 160.93 158.12 C 160.34 159.20 160.73 160.56 161.81 161.16 C 162.89 161.75 164.25 161.36 164.84 160.28 L 165.34 159.38 C 165.93 158.30 165.54 156.94 164.46 156.35 C 163.38 155.75 162.02 156.15 161.43 157.23 Z M 160.96 158.10 L 160.52 158.87 C 159.91 159.93 160.28 161.29 161.35 161.90 C 162.41 162.51 163.77 162.14 164.38 161.07 L 164.82 160.30 C 165.43 159.24 165.06 157.88 163.99 157.27 C 162.92 156.66 161.56 157.03 160.96 158.10 Z M 160.54 158.84 L 160.00 159.76 C 159.38 160.81 159.73 162.17 160.78 162.79 C 161.83 163.42 163.19 163.07 163.81 162.01 L 164.35 161.09 C 164.98 160.04 164.63 158.68 163.57 158.06 C 162.52 157.44 161.16 157.79 160.54 158.84 Z M 160.04 159.71 L 159.55 160.49 C 158.90 161.52 159.20 162.88 160.23 163.53 C 161.26 164.18 162.62 163.88 163.27 162.85 L 163.77 162.07 C 164.42 161.04 164.11 159.68 163.08 159.03 C 162.06 158.38 160.70 158.68 160.04 159.71 Z M 159.59 160.44 L 159.03 161.27 C 158.36 162.28 158.62 163.64 159.62 164.31 C 160.63 164.99 161.99 164.73 162.67 163.72 L 163.22 162.90 C 163.90 161.89 163.64 160.53 162.63 159.85 C 161.63 159.18 160.27 159.44 159.59 160.44 Z M 159.04 161.28 L 158.49 162.10 C 157.82 163.10 158.08 164.45 159.08 165.12 C 160.07 165.80 161.43 165.54 162.10 164.54 L 162.65 163.72 C 163.33 162.72 163.06 161.37 162.07 160.69 C 161.07 160.02 159.72 160.28 159.04 161.28 Z M 158.51 162.10 L 157.94 162.93 C 157.26 163.92 157.52 165.27 158.50 165.94 C 159.49 166.62 160.84 166.36 161.51 165.37 L 162.08 164.54 C 162.76 163.55 162.50 162.21 161.51 161.53 C 160.53 160.86 159.18 161.11 158.51 162.10 Z M 157.99 162.90 L 157.40 163.72 C 156.70 164.68 156.92 166.02 157.88 166.71 C 158.84 167.40 160.18 167.19 160.87 166.23 L 161.46 165.41 C 162.16 164.45 161.94 163.11 160.98 162.42 C 160.02 161.72 158.68 161.94 157.99 162.90 Z M 157.44 163.70 L 156.85 164.48 C 156.15 165.42 156.33 166.75 157.27 167.45 C 158.20 168.15 159.53 167.97 160.23 167.03 L 160.83 166.25 C 161.53 165.31 161.34 163.98 160.41 163.28 C 159.48 162.57 158.15 162.76 157.44 163.70 Z M 156.90 164.46 L 156.32 165.19 C 155.60 166.10 155.75 167.42 156.66 168.14 C 157.57 168.86 158.89 168.70 159.60 167.79 L 160.19 167.06 C 160.90 166.15 160.75 164.83 159.84 164.11 C 158.93 163.40 157.62 163.55 156.90 164.46 Z M 156.39 165.14 L 155.70 165.93 C 154.95 166.80 155.05 168.11 155.92 168.86 C 156.79 169.61 158.11 169.51 158.85 168.64 L 159.54 167.85 C 160.28 166.98 160.19 165.67 159.32 164.92 C 158.45 164.17 157.13 164.27 156.39 165.14 Z M 155.76 165.89 L 155.09 166.62 C 154.32 167.46 154.38 168.76 155.22 169.53 C 156.05 170.30 157.36 170.25 158.13 169.41 L 158.80 168.68 C 159.57 167.84 159.51 166.54 158.67 165.77 C 157.84 165.00 156.53 165.05 155.76 165.89 Z M 155.14 166.58 L 154.42 167.33 C 153.63 168.14 153.65 169.44 154.46 170.23 C 155.27 171.01 156.57 171.00 157.36 170.19 L 158.08 169.44 C 158.87 168.63 158.85 167.33 158.04 166.54 C 157.23 165.75 155.93 165.77 155.14 166.58 Z M 154.49 167.28 L 153.71 168.02 C 152.90 168.79 152.87 170.07 153.64 170.89 C 154.41 171.70 155.69 171.74 156.51 170.97 L 157.28 170.23 C 158.10 169.46 158.13 168.17 157.36 167.36 C 156.59 166.55 155.31 166.51 154.49 167.28 Z M 153.84 167.95 L 153.07 168.59 C 152.22 169.29 152.10 170.55 152.80 171.40 C 153.50 172.25 154.76 172.37 155.61 171.67 L 156.38 171.03 C 157.23 170.33 157.35 169.07 156.65 168.22 C 155.95 167.37 154.69 167.25 153.84 167.95 Z M 153.29 168.48 L 152.42 169.04 C 151.52 169.62 151.25 170.83 151.84 171.74 C 152.42 172.65 153.63 172.91 154.54 172.32 L 155.40 171.77 C 156.31 171.19 156.57 169.98 155.99 169.07 C 155.40 168.16 154.19 167.90 153.29 168.48 Z M 153.01 168.85 L 152.10 169.08 C 151.09 169.34 150.48 170.38 150.75 171.39 C 151.01 172.40 152.04 173.01 153.05 172.75 L 153.96 172.51 C 154.97 172.25 155.58 171.22 155.31 170.21 C 155.05 169.19 154.02 168.58 153.01 168.85 Z M 154.08 169.85 L 153.60 169.18 C 153.01 168.35 151.87 168.15 151.04 168.74 C 150.21 169.33 150.01 170.47 150.60 171.30 L 151.08 171.98 C 151.67 172.81 152.81 173.00 153.64 172.41 C 154.47 171.83 154.67 170.68 154.08 169.85 Z M 153.88 169.89 L 153.78 169.38 C 153.58 168.40 152.63 167.77 151.65 167.96 C 150.67 168.15 150.03 169.10 150.23 170.08 L 150.33 170.59 C 150.52 171.57 151.47 172.21 152.45 172.01 C 153.43 171.82 154.07 170.87 153.88 169.89 Z"
      fill="black"
      fill-rule="nonzero" /><path d="M 161.70 161.45 L 162.72 161.52 C 163.77 161.59 164.67 160.79 164.74 159.75 C 164.81 158.70 164.01 157.80 162.97 157.73 L 161.95 157.67 C 160.90 157.60 160.00 158.39 159.93 159.44 C 159.86 160.48 160.66 161.38 161.70 161.45 Z M 162.58 161.56 L 163.56 161.69 C 164.62 161.84 165.61 161.10 165.76 160.03 C 165.90 158.97 165.16 157.98 164.09 157.83 L 163.12 157.70 C 162.05 157.55 161.06 158.29 160.92 159.36 C 160.77 160.42 161.51 161.41 162.58 161.56 Z M 163.24 161.68 L 164.14 161.96 C 165.20 162.28 166.32 161.68 166.64 160.62 C 166.96 159.56 166.36 158.43 165.30 158.11 L 164.41 157.84 C 163.35 157.52 162.23 158.12 161.90 159.18 C 161.58 160.24 162.18 161.36 163.24 161.68 Z M 163.80 161.89 L 164.68 162.32 C 165.71 162.83 166.95 162.41 167.45 161.38 C 167.96 160.36 167.54 159.12 166.51 158.61 L 165.64 158.18 C 164.61 157.67 163.37 158.09 162.86 159.12 C 162.36 160.14 162.78 161.39 163.80 161.89 Z M 164.49 162.29 L 165.38 162.83 C 166.38 163.44 167.69 163.12 168.30 162.12 C 168.92 161.11 168.60 159.80 167.59 159.19 L 166.70 158.65 C 165.70 158.03 164.39 158.35 163.78 159.36 C 163.16 160.36 163.48 161.68 164.49 162.29 Z M 165.29 162.82 L 166.11 163.36 C 167.12 164.02 168.46 163.74 169.12 162.74 C 169.78 161.74 169.50 160.39 168.50 159.73 L 167.68 159.19 C 166.67 158.53 165.33 158.81 164.67 159.82 C 164.01 160.82 164.29 162.16 165.29 162.82 Z M 166.05 163.36 L 166.90 163.94 C 167.90 164.63 169.27 164.38 169.96 163.38 C 170.65 162.38 170.40 161.01 169.40 160.32 L 168.56 159.74 C 167.56 159.05 166.19 159.30 165.50 160.30 C 164.81 161.29 165.06 162.66 166.05 163.36 Z M 166.84 163.93 L 167.69 164.55 C 168.69 165.28 170.08 165.06 170.80 164.07 C 171.53 163.07 171.31 161.68 170.32 160.96 L 169.47 160.34 C 168.47 159.61 167.08 159.83 166.36 160.82 C 165.63 161.81 165.85 163.21 166.84 163.93 Z M 167.63 164.53 L 168.48 165.19 C 169.46 165.94 170.87 165.77 171.63 164.79 C 172.39 163.81 172.21 162.40 171.23 161.64 L 170.38 160.98 C 169.40 160.22 167.99 160.40 167.23 161.38 C 166.47 162.36 166.65 163.77 167.63 164.53 Z M 168.44 165.16 L 169.18 165.76 C 170.14 166.55 171.56 166.40 172.35 165.44 C 173.13 164.47 172.98 163.05 172.02 162.27 L 171.28 161.67 C 170.31 160.88 168.89 161.03 168.11 161.99 C 167.32 162.96 167.47 164.38 168.44 165.16 Z M 169.14 165.75 L 169.91 166.39 C 170.86 167.20 172.29 167.08 173.09 166.12 C 173.90 165.17 173.78 163.74 172.82 162.93 L 172.06 162.29 C 171.10 161.48 169.67 161.60 168.87 162.56 C 168.06 163.51 168.18 164.94 169.14 165.75 Z M 169.86 166.36 L 170.58 166.99 C 171.52 167.82 172.95 167.73 173.78 166.79 C 174.61 165.86 174.52 164.42 173.58 163.60 L 172.86 162.96 C 171.93 162.14 170.49 162.22 169.67 163.16 C 168.84 164.10 168.93 165.53 169.86 166.36 Z M 170.53 166.95 L 171.24 167.61 C 172.16 168.46 173.59 168.41 174.44 167.50 C 175.30 166.58 175.25 165.15 174.33 164.29 L 173.63 163.64 C 172.71 162.78 171.28 162.83 170.42 163.75 C 169.57 164.66 169.62 166.10 170.53 166.95 Z M 171.22 167.59 L 171.94 168.28 C 172.84 169.14 174.28 169.11 175.14 168.21 C 176.01 167.30 175.98 165.86 175.07 165.00 L 174.35 164.31 C 173.45 163.45 172.01 163.48 171.15 164.39 C 170.28 165.29 170.31 166.73 171.22 167.59 Z M 171.93 168.27 L 172.59 168.90 C 173.49 169.77 174.93 169.74 175.79 168.83 C 176.66 167.93 176.63 166.49 175.73 165.63 L 175.07 165.00 C 174.17 164.14 172.73 164.17 171.87 165.07 C 171.00 165.97 171.03 167.41 171.93 168.27 Z M 172.58 168.89 L 173.35 169.65 C 174.25 170.52 175.68 170.50 176.56 169.60 C 177.43 168.71 177.41 167.27 176.52 166.40 L 175.74 165.64 C 174.84 164.77 173.41 164.79 172.53 165.68 C 171.66 166.58 171.68 168.02 172.58 168.89 Z M 173.34 169.63 L 173.96 170.25 C 174.85 171.13 176.28 171.13 177.16 170.25 C 178.05 169.36 178.05 167.93 177.16 167.04 L 176.53 166.42 C 175.65 165.54 174.21 165.54 173.33 166.42 C 172.45 167.31 172.45 168.74 173.34 169.63 Z M 173.93 170.22 L 174.64 170.95 C 175.51 171.85 176.94 171.87 177.84 171.00 C 178.74 170.13 178.76 168.70 177.89 167.80 L 177.19 167.07 C 176.32 166.18 174.89 166.15 173.99 167.02 C 173.09 167.89 173.06 169.32 173.93 170.22 Z M 174.60 170.90 L 175.35 171.73 C 176.20 172.65 177.63 172.71 178.55 171.86 C 179.47 171.02 179.53 169.59 178.68 168.67 L 177.93 167.85 C 177.09 166.93 175.66 166.86 174.74 167.71 C 173.81 168.55 173.75 169.98 174.60 170.90 Z M 175.31 171.67 L 175.99 172.46 C 176.81 173.40 178.23 173.51 179.18 172.69 C 180.12 171.87 180.22 170.45 179.41 169.51 L 178.73 168.72 C 177.91 167.78 176.48 167.67 175.54 168.49 C 174.60 169.30 174.50 170.73 175.31 171.67 Z M 175.96 172.41 L 176.62 173.21 C 177.41 174.17 178.83 174.31 179.79 173.52 C 180.75 172.73 180.88 171.32 180.09 170.36 L 179.44 169.56 C 178.65 168.60 177.23 168.46 176.27 169.25 C 175.31 170.04 175.17 171.45 175.96 172.41 Z M 176.60 173.17 L 177.21 173.95 C 177.98 174.92 179.39 175.09 180.36 174.33 C 181.33 173.57 181.50 172.16 180.74 171.19 L 180.12 170.40 C 179.36 169.43 177.95 169.26 176.98 170.02 C 176.00 170.79 175.83 172.20 176.60 173.17 Z M 177.19 173.90 L 177.78 174.69 C 178.51 175.68 179.91 175.88 180.90 175.14 C 181.88 174.41 182.08 173.01 181.35 172.03 L 180.76 171.24 C 180.03 170.25 178.63 170.05 177.64 170.78 C 176.66 171.52 176.45 172.91 177.19 173.90 Z M 177.74 174.60 L 178.35 175.50 C 179.03 176.50 180.40 176.77 181.41 176.08 C 182.42 175.40 182.68 174.02 182.00 173.01 L 181.39 172.12 C 180.70 171.11 179.33 170.85 178.32 171.53 C 177.31 172.22 177.05 173.59 177.74 174.60 Z M 178.27 175.33 L 178.72 176.13 C 179.32 177.18 180.65 177.55 181.70 176.96 C 182.75 176.36 183.12 175.03 182.52 173.98 L 182.07 173.18 C 181.48 172.13 180.15 171.76 179.10 172.35 C 178.05 172.95 177.68 174.28 178.27 175.33 Z M 178.63 175.86 L 179.01 176.81 C 179.45 177.91 180.71 178.44 181.81 178.00 C 182.91 177.56 183.44 176.30 183.00 175.20 L 182.62 174.25 C 182.18 173.15 180.92 172.62 179.82 173.06 C 178.72 173.50 178.19 174.76 178.63 175.86 Z M 178.92 176.31 L 179.06 177.26 C 179.22 178.42 180.29 179.22 181.45 179.05 C 182.60 178.88 183.40 177.81 183.23 176.66 L 183.09 175.70 C 182.93 174.55 181.86 173.75 180.70 173.92 C 179.55 174.08 178.75 175.15 178.92 176.31 Z M 179.28 176.12 L 178.91 176.95 C 178.44 177.98 178.90 179.19 179.93 179.65 C 180.96 180.12 182.17 179.66 182.63 178.63 L 183.01 177.80 C 183.47 176.77 183.01 175.56 181.98 175.10 C 180.96 174.64 179.75 175.09 179.28 176.12 Z M 179.52 176.29 L 178.91 176.80 C 178.08 177.49 177.97 178.72 178.65 179.55 C 179.34 180.38 180.57 180.49 181.40 179.80 L 182.02 179.29 C 182.84 178.61 182.96 177.38 182.27 176.55 C 181.58 175.72 180.35 175.60 179.52 176.29 Z"
      fill="black"
      fill-rule="nonzero" /></svg>