<svg xmlns="http://www.w3.org/2000/svg" width="300" height="300" viewBox="0 0 300 300">
<path d="M 129.29 111.79 L 129.32 112.78 C 129.36 113.91 130.30 114.79 131.43 114.75 C 132.55 114.72 133.43 113.78 133.40 112.65 L 133.36 111.66 C 133.33 110.53 132.39 109.65 131.26 109.69 C 130.14 109.72 129.26 110.66 129.29 111.79 Z M 129.21 112.77 L 129.23 113.77 C 129.26 114.96 130.25 115.90 131.44 115.87 C 132.63 115.84 133.57 114.86 133.54 113.67 L 133.51 112.67 C 133.48 111.48 132.49 110.54 131.31 110.57 C 130.12 110.60 129.18 111.58 129.21 112.77 Z M 129.17 113.75 L 129.18 114.78 C 129.19 116.00 130.20 116.99 131.42 116.97 C 132.65 116.96 133.63 115.95 133.62 114.73 L 133.60 113.70 C 133.59 112.47 132.59 111.49 131.36 111.50 C 130.13 111.52 129.15 112.52 129.17 113.75 Z M 129.17 114.74 L 129.16 115.74 C 129.16 116.97 130.15 117.97 131.38 117.98 C 132.62 117.98 133.62 116.99 133.62 115.75 L 133.63 114.76 C 133.63 113.53 132.64 112.53 131.41 112.52 C 130.17 112.52 129.17 113.51 129.17 114.74 Z M 129.16 115.68 L 129.13 116.68 C 129.10 117.92 130.07 118.94 131.30 118.98 C 132.54 119.01 133.56 118.04 133.60 116.80 L 133.62 115.81 C 133.66 114.57 132.69 113.55 131.45 113.51 C 130.22 113.48 129.19 114.45 129.16 115.68 Z M 129.14 116.55 L 129.06 117.53 C 128.95 118.75 129.86 119.84 131.09 119.94 C 132.32 120.05 133.40 119.14 133.51 117.91 L 133.59 116.94 C 133.70 115.71 132.79 114.63 131.56 114.52 C 130.33 114.41 129.25 115.32 129.14 116.55 Z M 129.08 117.35 L 128.92 118.29 C 128.72 119.51 129.54 120.66 130.76 120.86 C 131.98 121.06 133.13 120.24 133.33 119.02 L 133.48 118.08 C 133.69 116.87 132.86 115.72 131.65 115.51 C 130.43 115.31 129.28 116.14 129.08 117.35 Z M 128.94 118.18 L 128.72 119.20 C 128.46 120.41 129.22 121.60 130.43 121.86 C 131.63 122.12 132.82 121.36 133.09 120.15 L 133.31 119.13 C 133.57 117.93 132.81 116.74 131.60 116.47 C 130.40 116.21 129.21 116.98 128.94 118.18 Z M 128.73 119.15 L 128.50 120.08 C 128.21 121.28 128.94 122.49 130.14 122.78 C 131.34 123.08 132.55 122.35 132.84 121.15 L 133.07 120.21 C 133.37 119.01 132.63 117.80 131.44 117.51 C 130.24 117.22 129.03 117.95 128.73 119.15 Z M 128.52 120.03 L 128.25 121.02 C 127.93 122.21 128.63 123.44 129.83 123.76 C 131.02 124.08 132.24 123.37 132.56 122.18 L 132.83 121.20 C 133.15 120.01 132.45 118.78 131.25 118.46 C 130.06 118.14 128.84 118.84 128.52 120.03 Z M 128.27 120.97 L 127.98 121.92 C 127.63 123.11 128.31 124.35 129.49 124.70 C 130.67 125.05 131.92 124.37 132.27 123.19 L 132.55 122.23 C 132.90 121.05 132.22 119.81 131.04 119.46 C 129.86 119.11 128.61 119.78 128.27 120.97 Z M 128.00 121.88 L 127.70 122.83 C 127.32 124.01 127.97 125.26 129.15 125.63 C 130.32 126.01 131.58 125.36 131.95 124.18 L 132.25 123.23 C 132.63 122.06 131.98 120.80 130.80 120.43 C 129.62 120.06 128.37 120.71 128.00 121.88 Z M 127.71 122.80 L 127.38 123.77 C 127.00 124.94 127.63 126.20 128.80 126.59 C 129.97 126.98 131.23 126.35 131.62 125.18 L 131.94 124.21 C 132.33 123.04 131.70 121.78 130.53 121.39 C 129.36 121.00 128.09 121.63 127.71 122.80 Z M 127.39 123.75 L 127.07 124.68 C 126.68 125.85 127.30 127.11 128.46 127.51 C 129.63 127.91 130.89 127.29 131.29 126.13 L 131.61 125.20 C 132.01 124.03 131.39 122.77 130.22 122.37 C 129.06 121.97 127.79 122.59 127.39 123.75 Z M 127.09 124.65 L 126.75 125.60 C 126.33 126.76 126.94 128.03 128.09 128.45 C 129.25 128.86 130.53 128.26 130.94 127.10 L 131.28 126.15 C 131.70 125.00 131.09 123.72 129.93 123.31 C 128.78 122.89 127.50 123.49 127.09 124.65 Z M 126.76 125.56 L 126.40 126.51 C 125.97 127.66 126.55 128.94 127.70 129.38 C 128.85 129.81 130.13 129.24 130.57 128.09 L 130.93 127.14 C 131.36 125.99 130.78 124.71 129.63 124.27 C 128.48 123.83 127.20 124.41 126.76 125.56 Z M 126.42 126.47 L 126.05 127.39 C 125.59 128.53 126.15 129.83 127.28 130.28 C 128.42 130.74 129.72 130.19 130.18 129.05 L 130.55 128.13 C 131.01 126.99 130.45 125.69 129.31 125.24 C 128.18 124.78 126.88 125.33 126.42 126.47 Z M 126.07 127.36 L 125.68 128.29 C 125.20 129.42 125.73 130.72 126.86 131.19 C 127.99 131.67 129.30 131.14 129.77 130.01 L 130.16 129.08 C 130.63 127.95 130.10 126.65 128.97 126.18 C 127.84 125.70 126.54 126.23 126.07 127.36 Z M 125.69 128.26 L 125.29 129.19 C 124.80 130.31 125.32 131.62 126.44 132.11 C 127.56 132.59 128.87 132.08 129.36 130.96 L 129.76 130.03 C 130.24 128.91 129.73 127.60 128.61 127.12 C 127.48 126.63 126.18 127.14 125.69 128.26 Z M 125.30 129.17 L 124.89 130.09 C 124.39 131.21 124.89 132.52 126.01 133.01 C 127.13 133.51 128.44 133.01 128.93 131.89 L 129.34 130.97 C 129.84 129.86 129.34 128.55 128.22 128.05 C 127.11 127.55 125.80 128.05 125.30 129.17 Z M 124.90 130.07 L 124.49 130.98 C 123.98 132.09 124.47 133.40 125.58 133.91 C 126.69 134.41 128.00 133.93 128.51 132.82 L 128.92 131.91 C 129.43 130.80 128.94 129.49 127.83 128.98 C 126.72 128.48 125.41 128.96 124.90 130.07 Z M 124.50 130.96 L 124.08 131.86 C 123.56 132.96 124.04 134.27 125.14 134.79 C 126.24 135.31 127.55 134.84 128.07 133.73 L 128.49 132.83 C 129.01 131.73 128.54 130.42 127.44 129.90 C 126.33 129.39 125.02 129.86 124.50 130.96 Z M 124.10 131.84 L 123.67 132.74 C 123.14 133.83 123.60 135.14 124.69 135.67 C 125.78 136.20 127.09 135.74 127.62 134.65 L 128.05 133.75 C 128.58 132.66 128.12 131.35 127.03 130.82 C 125.94 130.29 124.63 130.75 124.10 131.84 Z M 123.69 132.72 L 123.24 133.61 C 122.70 134.69 123.14 136.00 124.22 136.54 C 125.30 137.08 126.61 136.64 127.15 135.56 L 127.60 134.67 C 128.14 133.59 127.70 132.28 126.62 131.74 C 125.54 131.20 124.23 131.64 123.69 132.72 Z M 123.27 133.59 L 122.80 134.50 C 122.25 135.56 122.66 136.87 123.73 137.42 C 124.79 137.98 126.10 137.56 126.65 136.49 L 127.12 135.59 C 127.67 134.52 127.26 133.21 126.19 132.66 C 125.13 132.11 123.82 132.52 123.27 133.59 Z M 122.83 134.48 L 122.35 135.38 C 121.78 136.42 122.18 137.73 123.23 138.29 C 124.28 138.85 125.58 138.46 126.14 137.41 L 126.62 136.51 C 127.19 135.46 126.79 134.16 125.74 133.60 C 124.69 133.04 123.39 133.43 122.83 134.48 Z M 122.38 135.36 L 121.91 136.20 C 121.34 137.23 121.71 138.53 122.74 139.10 C 123.77 139.67 125.07 139.30 125.64 138.27 L 126.11 137.43 C 126.68 136.40 126.31 135.10 125.28 134.53 C 124.25 133.95 122.95 134.32 122.38 135.36 Z M 121.95 136.17 L 121.41 137.09 C 120.82 138.10 121.16 139.40 122.17 139.99 C 123.19 140.58 124.48 140.23 125.07 139.22 L 125.61 138.30 C 126.20 137.29 125.86 135.99 124.84 135.40 C 123.83 134.81 122.54 135.16 121.95 136.17 Z M 121.45 137.05 L 120.95 137.86 C 120.34 138.85 120.64 140.14 121.63 140.76 C 122.62 141.37 123.91 141.06 124.53 140.08 L 125.03 139.26 C 125.64 138.28 125.34 136.98 124.35 136.37 C 123.36 135.76 122.06 136.06 121.45 137.05 Z M 121.00 137.81 L 120.48 138.59 C 119.84 139.55 120.10 140.85 121.06 141.49 C 122.02 142.13 123.31 141.87 123.95 140.91 L 124.47 140.13 C 125.11 139.17 124.85 137.87 123.89 137.23 C 122.94 136.59 121.64 136.85 121.00 137.81 Z M 120.56 138.51 L 119.96 139.31 C 119.27 140.22 119.46 141.52 120.37 142.21 C 121.28 142.89 122.58 142.71 123.27 141.80 L 123.87 141.00 C 124.56 140.08 124.37 138.78 123.46 138.10 C 122.55 137.41 121.25 137.59 120.56 138.51 Z M 120.05 139.22 L 119.39 140.00 C 118.65 140.86 118.76 142.16 119.62 142.89 C 120.48 143.63 121.77 143.53 122.51 142.66 L 123.17 141.88 C 123.91 141.02 123.81 139.73 122.94 138.99 C 122.08 138.26 120.79 138.36 120.05 139.22 Z M 119.47 139.94 L 118.76 140.69 C 117.99 141.50 118.03 142.79 118.84 143.56 C 119.66 144.33 120.94 144.29 121.71 143.48 L 122.42 142.73 C 123.19 141.91 123.16 140.63 122.34 139.86 C 121.53 139.09 120.24 139.12 119.47 139.94 Z M 118.88 140.61 L 118.11 141.32 C 117.30 142.08 117.25 143.34 118.00 144.16 C 118.76 144.97 120.03 145.01 120.84 144.26 L 121.60 143.55 C 122.41 142.80 122.46 141.53 121.71 140.72 C 120.95 139.91 119.69 139.86 118.88 140.61 Z M 118.44 141.13 L 117.55 141.69 C 116.63 142.26 116.35 143.46 116.92 144.38 C 117.49 145.30 118.69 145.58 119.61 145.01 L 120.51 144.46 C 121.42 143.88 121.71 142.68 121.14 141.76 C 120.57 140.84 119.36 140.56 118.44 141.13 Z M 119.41 141.65 L 118.78 141.34 C 117.84 140.88 116.71 141.27 116.25 142.21 C 115.79 143.15 116.18 144.29 117.12 144.74 L 117.75 145.05 C 118.69 145.51 119.82 145.12 120.28 144.18 C 120.74 143.24 120.35 142.10 119.41 141.65 Z M 119.66 142.37 L 119.37 141.64 C 119.01 140.69 117.94 140.22 116.99 140.59 C 116.05 140.96 115.58 142.03 115.95 142.97 L 116.24 143.71 C 116.61 144.65 117.67 145.12 118.62 144.75 C 119.56 144.39 120.03 143.32 119.66 142.37 Z"
      fill="black"
      fill-rule="nonzero" /><path d="M 134.45 124.65 L 135.26 124.40 C 136.40 124.06 137.04 122.86 136.69 121.73 C 136.35 120.59 135.15 119.95 134.02 120.30 L 133.21 120.54 C 132.07 120.89 131.43 122.09 131.78 123.22 C 132.12 124.35 133.32 124.99 134.45 124.65 Z M 135.26 124.41 L 136.29 124.10 C 137.42 123.75 138.07 122.56 137.73 121.42 C 137.38 120.29 136.19 119.64 135.05 119.99 L 134.02 120.30 C 132.89 120.64 132.24 121.83 132.59 122.97 C 132.93 124.10 134.12 124.75 135.26 124.41 Z M 136.29 124.10 L 137.26 123.81 C 138.40 123.47 139.05 122.27 138.71 121.13 C 138.37 120.00 137.17 119.35 136.03 119.69 L 135.06 119.98 C 133.92 120.32 133.27 121.52 133.61 122.66 C 133.95 123.79 135.15 124.44 136.29 124.10 Z M 137.26 123.81 L 138.25 123.52 C 139.39 123.18 140.04 121.98 139.70 120.84 C 139.36 119.70 138.16 119.05 137.02 119.39 L 136.04 119.68 C 134.90 120.02 134.25 121.22 134.59 122.36 C 134.92 123.50 136.12 124.15 137.26 123.81 Z M 138.24 123.53 L 139.25 123.23 C 140.39 122.89 141.05 121.69 140.71 120.55 C 140.37 119.41 139.17 118.75 138.03 119.09 L 137.02 119.39 C 135.88 119.72 135.23 120.92 135.56 122.07 C 135.90 123.21 137.10 123.86 138.24 123.53 Z M 139.24 123.24 L 140.22 122.95 C 141.37 122.62 142.03 121.42 141.70 120.27 C 141.36 119.12 140.16 118.46 139.02 118.80 L 138.03 119.08 C 136.89 119.42 136.23 120.62 136.56 121.76 C 136.90 122.91 138.10 123.57 139.24 123.24 Z M 140.20 122.94 L 141.27 122.64 C 142.41 122.32 143.07 121.13 142.75 119.99 C 142.43 118.85 141.24 118.18 140.10 118.51 L 139.04 118.81 C 137.89 119.13 137.23 120.32 137.55 121.46 C 137.88 122.60 139.06 123.26 140.20 122.94 Z M 141.22 122.62 L 142.11 122.39 C 143.24 122.09 143.92 120.94 143.62 119.81 C 143.33 118.67 142.17 118.00 141.04 118.29 L 140.15 118.53 C 139.01 118.82 138.34 119.98 138.63 121.11 C 138.93 122.24 140.09 122.92 141.22 122.62 Z M 142.04 122.37 L 142.97 122.16 C 144.09 121.91 144.79 120.79 144.53 119.67 C 144.28 118.54 143.16 117.84 142.04 118.10 L 141.11 118.31 C 139.99 118.57 139.28 119.68 139.54 120.81 C 139.80 121.93 140.91 122.63 142.04 122.37 Z M 142.87 122.14 L 143.85 121.96 C 144.96 121.76 145.70 120.69 145.49 119.58 C 145.29 118.48 144.23 117.74 143.12 117.94 L 142.14 118.12 C 141.03 118.32 140.29 119.39 140.49 120.50 C 140.70 121.60 141.76 122.34 142.87 122.14 Z M 143.72 121.93 L 144.72 121.81 C 145.81 121.68 146.59 120.69 146.46 119.60 C 146.33 118.51 145.34 117.73 144.25 117.86 L 143.25 117.97 C 142.16 118.10 141.38 119.09 141.51 120.18 C 141.64 121.28 142.63 122.06 143.72 121.93 Z M 144.57 121.76 L 145.57 121.72 C 146.64 121.67 147.46 120.77 147.42 119.70 C 147.37 118.63 146.46 117.81 145.40 117.85 L 144.40 117.90 C 143.33 117.95 142.50 118.85 142.55 119.92 C 142.60 120.99 143.50 121.81 144.57 121.76 Z M 145.44 121.67 L 146.43 121.69 C 147.47 121.71 148.33 120.89 148.35 119.85 C 148.38 118.81 147.55 117.95 146.52 117.93 L 145.53 117.91 C 144.49 117.88 143.63 118.71 143.60 119.74 C 143.58 120.78 144.40 121.64 145.44 121.67 Z M 146.35 121.64 L 147.33 121.71 C 148.34 121.78 149.22 121.02 149.29 120.01 C 149.36 119.00 148.60 118.12 147.59 118.05 L 146.60 117.98 C 145.59 117.91 144.72 118.67 144.65 119.68 C 144.57 120.69 145.34 121.57 146.35 121.64 Z M 147.31 121.68 L 147.49 121.70 C 148.49 121.78 149.36 121.04 149.44 120.04 C 149.53 119.05 148.79 118.17 147.79 118.09 L 147.61 118.08 C 146.62 118.00 145.74 118.73 145.66 119.73 C 145.58 120.72 146.32 121.60 147.31 121.68 Z"
      fill="black"
      fill-rule="nonzero" /><path d="M 130.61 134.51 L 131.61 134.48 C 132.77 134.43 133.67 133.46 133.63 132.31 C 133.59 131.15 132.61 130.25 131.46 130.29 L 130.46 130.33 C 129.30 130.37 128.40 131.34 128.44 132.50 C 128.49 133.65 129.46 134.55 130.61 134.51 Z M 131.69 134.51 L 132.68 134.44 C 133.86 134.35 134.74 133.33 134.66 132.16 C 134.57 130.98 133.55 130.10 132.38 130.18 L 131.38 130.26 C 130.21 130.34 129.32 131.36 129.41 132.53 C 129.49 133.71 130.51 134.59 131.69 134.51 Z M 132.83 134.45 L 133.85 134.30 C 135.03 134.14 135.85 133.05 135.69 131.87 C 135.52 130.69 134.43 129.87 133.25 130.03 L 132.23 130.18 C 131.05 130.34 130.23 131.43 130.40 132.61 C 130.56 133.79 131.65 134.61 132.83 134.45 Z M 133.99 134.28 L 134.99 134.07 C 136.16 133.83 136.91 132.69 136.66 131.52 C 136.42 130.35 135.28 129.61 134.11 129.85 L 133.11 130.06 C 131.95 130.30 131.20 131.44 131.44 132.61 C 131.68 133.77 132.83 134.52 133.99 134.28 Z M 135.06 134.03 L 136.00 133.80 C 137.15 133.52 137.85 132.37 137.57 131.22 C 137.29 130.08 136.14 129.37 134.99 129.65 L 134.05 129.88 C 132.90 130.16 132.20 131.32 132.48 132.47 C 132.76 133.61 133.91 134.31 135.06 134.03 Z M 136.03 133.75 L 137.00 133.49 C 138.11 133.20 138.78 132.06 138.49 130.94 C 138.19 129.83 137.05 129.16 135.93 129.45 L 134.97 129.71 C 133.85 130.00 133.18 131.14 133.48 132.26 C 133.77 133.38 134.91 134.04 136.03 133.75 Z M 137.04 133.41 L 137.96 133.14 C 139.03 132.82 139.65 131.70 139.33 130.63 C 139.01 129.56 137.89 128.95 136.82 129.26 L 135.89 129.53 C 134.82 129.85 134.21 130.98 134.53 132.05 C 134.84 133.12 135.97 133.73 137.04 133.41 Z M 138.00 133.07 L 138.96 132.76 C 139.99 132.42 140.55 131.31 140.22 130.28 C 139.88 129.25 138.77 128.68 137.74 129.02 L 136.78 129.33 C 135.75 129.67 135.18 130.78 135.52 131.81 C 135.86 132.84 136.97 133.41 138.00 133.07 Z M 138.98 132.71 L 139.93 132.38 C 140.93 132.03 141.46 130.94 141.12 129.93 C 140.77 128.93 139.68 128.40 138.67 128.74 L 137.72 129.07 C 136.72 129.42 136.18 130.51 136.53 131.52 C 136.88 132.52 137.97 133.05 138.98 132.71 Z M 139.93 132.34 L 140.87 132.01 C 141.85 131.66 142.37 130.58 142.02 129.60 C 141.67 128.62 140.59 128.10 139.61 128.45 L 138.67 128.78 C 137.69 129.13 137.17 130.21 137.52 131.19 C 137.87 132.17 138.95 132.69 139.93 132.34 Z M 140.86 131.98 L 141.80 131.65 C 142.77 131.31 143.28 130.24 142.93 129.27 C 142.59 128.30 141.53 127.80 140.56 128.14 L 139.62 128.47 C 138.65 128.82 138.14 129.88 138.48 130.85 C 138.83 131.82 139.89 132.33 140.86 131.98 Z M 141.83 131.62 L 142.77 131.27 C 143.72 130.91 144.20 129.85 143.85 128.90 C 143.49 127.94 142.42 127.46 141.47 127.81 L 140.53 128.17 C 139.58 128.52 139.09 129.59 139.45 130.54 C 139.81 131.50 140.87 131.98 141.83 131.62 Z M 142.83 131.23 L 143.76 130.84 C 144.69 130.45 145.13 129.38 144.74 128.44 C 144.35 127.51 143.27 127.07 142.34 127.46 L 141.41 127.85 C 140.48 128.24 140.04 129.32 140.43 130.25 C 140.82 131.19 141.89 131.63 142.83 131.23 Z M 143.80 130.82 L 144.71 130.40 C 145.63 129.99 146.04 128.91 145.62 127.99 C 145.21 127.07 144.12 126.66 143.21 127.08 L 142.30 127.49 C 141.38 127.91 140.97 128.99 141.38 129.91 C 141.80 130.82 142.88 131.23 143.80 130.82 Z M 144.73 130.39 L 145.64 129.96 C 146.55 129.54 146.94 128.45 146.51 127.55 C 146.09 126.64 145.01 126.25 144.10 126.67 L 143.19 127.10 C 142.28 127.52 141.89 128.60 142.31 129.51 C 142.74 130.42 143.82 130.81 144.73 130.39 Z M 145.64 129.95 L 146.54 129.53 C 147.45 129.10 147.83 128.02 147.41 127.12 C 146.98 126.22 145.90 125.83 145.00 126.25 L 144.10 126.68 C 143.19 127.11 142.81 128.18 143.23 129.09 C 143.66 129.99 144.74 130.38 145.64 129.95 Z M 146.54 129.52 L 147.42 129.11 C 148.32 128.69 148.71 127.61 148.28 126.71 C 147.86 125.81 146.79 125.42 145.88 125.84 L 145.00 126.26 C 144.10 126.68 143.71 127.76 144.14 128.66 C 144.56 129.56 145.64 129.95 146.54 129.52 Z"
      fill="black"
      fill-rule="nonzero" /><path d="M 155.36 113.61 L 155.36 114.63 C 155.35 115.79 156.29 116.74 157.45 116.75 C 158.62 116.76 159.57 115.82 159.57 114.65 L 159.58 113.64 C 159.59 112.47 158.65 111.53 157.49 111.52 C 156.32 111.51 155.37 112.45 155.36 113.61 Z M 155.25 114.54 L 155.21 115.52 C 155.16 116.75 156.10 117.78 157.32 117.83 C 158.55 117.89 159.58 116.94 159.64 115.72 L 159.68 114.74 C 159.73 113.52 158.79 112.48 157.56 112.43 C 156.34 112.37 155.31 113.32 155.25 114.54 Z M 155.18 115.34 L 155.06 116.30 C 154.90 117.54 155.78 118.67 157.02 118.82 C 158.26 118.98 159.39 118.10 159.55 116.86 L 159.67 115.90 C 159.82 114.66 158.94 113.53 157.70 113.38 C 156.46 113.22 155.33 114.10 155.18 115.34 Z M 155.10 116.09 L 154.88 117.07 C 154.61 118.28 155.38 119.49 156.59 119.76 C 157.81 120.03 159.01 119.26 159.28 118.05 L 159.50 117.07 C 159.77 115.85 159.01 114.65 157.79 114.38 C 156.58 114.11 155.37 114.87 155.10 116.09 Z M 154.93 116.94 L 154.69 117.76 C 154.35 118.95 155.03 120.19 156.22 120.54 C 157.41 120.88 158.65 120.20 158.99 119.01 L 159.23 118.18 C 159.58 116.99 158.89 115.75 157.71 115.41 C 156.52 115.06 155.28 115.75 154.93 116.94 Z M 154.74 117.71 L 154.42 118.69 C 154.04 119.86 154.68 121.11 155.85 121.48 C 157.01 121.86 158.26 121.22 158.63 120.05 L 158.95 119.07 C 159.33 117.90 158.69 116.65 157.52 116.28 C 156.36 115.90 155.11 116.54 154.74 117.71 Z M 154.45 118.67 L 154.09 119.74 C 153.70 120.89 154.32 122.13 155.46 122.52 C 156.61 122.90 157.85 122.29 158.24 121.14 L 158.60 120.08 C 158.99 118.93 158.37 117.69 157.23 117.30 C 156.08 116.91 154.84 117.53 154.45 118.67 Z M 154.12 119.74 L 153.79 120.73 C 153.40 121.85 154.00 123.08 155.13 123.47 C 156.25 123.86 157.48 123.25 157.87 122.13 L 158.21 121.14 C 158.59 120.01 157.99 118.79 156.87 118.40 C 155.74 118.01 154.51 118.61 154.12 119.74 Z M 153.82 120.73 L 153.48 121.73 C 153.09 122.83 153.68 124.04 154.79 124.43 C 155.90 124.81 157.11 124.22 157.49 123.11 L 157.83 122.12 C 158.22 121.01 157.63 119.80 156.52 119.42 C 155.41 119.04 154.20 119.62 153.82 120.73 Z M 153.51 121.73 L 153.19 122.65 C 152.82 123.73 153.39 124.92 154.48 125.30 C 155.57 125.68 156.76 125.11 157.14 124.02 L 157.45 123.11 C 157.83 122.02 157.26 120.83 156.17 120.45 C 155.08 120.07 153.89 120.65 153.51 121.73 Z M 153.25 122.66 L 152.88 123.72 C 152.50 124.78 153.06 125.94 154.12 126.31 C 155.18 126.68 156.33 126.13 156.71 125.07 L 157.08 124.01 C 157.45 122.95 156.90 121.79 155.84 121.42 C 154.78 121.05 153.62 121.60 153.25 122.66 Z M 152.96 123.74 L 152.65 124.60 C 152.29 125.61 152.81 126.72 153.82 127.09 C 154.83 127.45 155.94 126.93 156.31 125.92 L 156.62 125.06 C 156.98 124.05 156.46 122.93 155.45 122.57 C 154.44 122.21 153.33 122.73 152.96 123.74 Z M 152.73 124.60 L 152.44 125.39 C 152.07 126.35 152.56 127.43 153.52 127.79 C 154.49 128.16 155.56 127.67 155.93 126.71 L 156.23 125.92 C 156.59 124.96 156.10 123.88 155.14 123.51 C 154.18 123.15 153.10 123.64 152.73 124.60 Z M 152.48 125.39 L 152.11 126.34 C 151.74 127.28 152.21 128.34 153.15 128.70 C 154.09 129.07 155.15 128.60 155.52 127.66 L 155.89 126.71 C 156.25 125.77 155.78 124.71 154.84 124.35 C 153.90 123.98 152.84 124.45 152.48 125.39 Z M 152.12 126.34 L 151.77 127.25 C 151.41 128.18 151.87 129.23 152.81 129.60 C 153.74 129.96 154.79 129.50 155.15 128.56 L 155.50 127.65 C 155.87 126.72 155.40 125.67 154.47 125.31 C 153.54 124.95 152.49 125.41 152.12 126.34 Z M 151.78 127.25 L 151.41 128.20 C 151.05 129.13 151.51 130.18 152.44 130.54 C 153.37 130.90 154.42 130.43 154.78 129.50 L 155.15 128.56 C 155.51 127.63 155.04 126.58 154.11 126.22 C 153.18 125.86 152.14 126.32 151.78 127.25 Z M 151.41 128.20 L 151.11 128.99 C 150.75 129.92 151.21 130.96 152.14 131.32 C 153.07 131.68 154.11 131.22 154.47 130.29 L 154.78 129.50 C 155.13 128.57 154.67 127.53 153.74 127.17 C 152.82 126.81 151.77 127.27 151.41 128.20 Z"
      fill="black"
      fill-rule="nonzero" /><path d="M 164.71 120.21 L 165.72 120.26 C 166.88 120.31 167.86 119.41 167.91 118.25 C 167.96 117.10 167.06 116.12 165.91 116.07 L 164.89 116.02 C 163.74 115.97 162.76 116.87 162.71 118.03 C 162.66 119.18 163.55 120.16 164.71 120.21 Z M 165.84 120.28 L 166.83 120.27 C 168.00 120.25 168.94 119.29 168.93 118.12 C 168.91 116.95 167.95 116.02 166.78 116.03 L 165.79 116.04 C 164.62 116.06 163.68 117.02 163.70 118.19 C 163.71 119.36 164.67 120.29 165.84 120.28 Z M 167.08 120.26 L 168.08 120.14 C 169.25 119.99 170.07 118.92 169.93 117.75 C 169.78 116.58 168.71 115.76 167.54 115.91 L 166.54 116.04 C 165.37 116.19 164.55 117.25 164.69 118.42 C 164.84 119.59 165.91 120.41 167.08 120.26 Z M 168.31 120.09 L 169.28 119.86 C 170.42 119.59 171.12 118.44 170.85 117.30 C 170.58 116.15 169.43 115.45 168.29 115.72 L 167.32 115.95 C 166.18 116.22 165.47 117.37 165.74 118.51 C 166.01 119.66 167.16 120.36 168.31 120.09 Z M 169.36 119.82 L 170.32 119.54 C 171.44 119.22 172.09 118.06 171.77 116.94 C 171.45 115.82 170.28 115.17 169.16 115.49 L 168.20 115.76 C 167.09 116.08 166.44 117.25 166.76 118.37 C 167.08 119.49 168.24 120.14 169.36 119.82 Z M 170.32 119.50 L 171.27 119.22 C 172.37 118.90 172.99 117.75 172.67 116.66 C 172.35 115.56 171.21 114.94 170.11 115.26 L 169.16 115.54 C 168.07 115.86 167.44 117.01 167.76 118.10 C 168.08 119.19 169.23 119.82 170.32 119.50 Z M 171.26 119.16 L 172.20 118.88 C 173.26 118.57 173.87 117.45 173.55 116.39 C 173.24 115.33 172.12 114.72 171.06 115.04 L 170.12 115.32 C 169.06 115.63 168.46 116.75 168.77 117.81 C 169.09 118.87 170.20 119.47 171.26 119.16 Z M 172.13 118.84 L 173.10 118.58 C 174.14 118.30 174.75 117.24 174.48 116.20 C 174.20 115.17 173.14 114.55 172.10 114.82 L 171.13 115.08 C 170.10 115.36 169.48 116.42 169.76 117.46 C 170.03 118.49 171.10 119.11 172.13 118.84 Z M 172.96 118.55 L 173.94 118.36 C 174.96 118.16 175.63 117.17 175.43 116.15 C 175.23 115.13 174.24 114.46 173.22 114.66 L 172.24 114.85 C 171.22 115.05 170.55 116.04 170.75 117.06 C 170.95 118.08 171.94 118.75 172.96 118.55 Z M 173.84 118.33 L 174.83 118.19 C 175.84 118.05 176.54 117.12 176.40 116.11 C 176.25 115.10 175.32 114.41 174.32 114.55 L 173.32 114.69 C 172.31 114.83 171.61 115.76 171.75 116.77 C 171.90 117.78 172.83 118.48 173.84 118.33 Z M 174.81 118.17 L 175.13 118.13 C 176.13 118.00 176.83 117.09 176.70 116.10 C 176.57 115.10 175.66 114.40 174.67 114.53 L 174.34 114.57 C 173.35 114.70 172.65 115.61 172.78 116.60 C 172.90 117.59 173.81 118.29 174.81 118.17 Z"
      fill="black"
      fill-rule="nonzero" /><path d="M 160.06 131.83 L 161.06 131.89 C 162.20 131.95 163.17 131.08 163.23 129.95 C 163.29 128.81 162.42 127.84 161.29 127.78 L 160.29 127.73 C 159.15 127.66 158.18 128.53 158.12 129.67 C 158.06 130.80 158.93 131.77 160.06 131.83 Z M 161.40 131.94 L 162.36 131.84 C 163.52 131.72 164.36 130.68 164.24 129.51 C 164.12 128.35 163.08 127.51 161.92 127.63 L 160.96 127.73 C 159.80 127.85 158.95 128.89 159.07 130.05 C 159.19 131.21 160.23 132.06 161.40 131.94 Z M 162.73 131.77 L 163.71 131.48 C 164.83 131.15 165.47 129.97 165.14 128.85 C 164.81 127.73 163.63 127.09 162.51 127.42 L 161.54 127.70 C 160.42 128.03 159.77 129.21 160.10 130.33 C 160.43 131.45 161.61 132.10 162.73 131.77 Z M 163.82 131.41 L 164.73 131.09 C 165.82 130.69 166.38 129.50 165.99 128.41 C 165.60 127.32 164.40 126.76 163.32 127.15 L 162.40 127.48 C 161.31 127.87 160.75 129.07 161.14 130.16 C 161.53 131.24 162.73 131.81 163.82 131.41 Z M 164.76 131.05 L 165.73 130.68 C 166.79 130.27 167.33 129.08 166.92 128.01 C 166.51 126.95 165.32 126.41 164.25 126.82 L 163.29 127.19 C 162.22 127.60 161.69 128.79 162.10 129.86 C 162.50 130.92 163.70 131.45 164.76 131.05 Z M 165.74 130.64 L 166.67 130.28 C 167.72 129.86 168.23 128.68 167.81 127.63 C 167.40 126.58 166.21 126.07 165.16 126.49 L 164.24 126.85 C 163.19 127.27 162.68 128.45 163.09 129.50 C 163.51 130.55 164.70 131.06 165.74 130.64 Z M 166.67 130.25 L 167.60 129.88 C 168.63 129.46 169.13 128.29 168.72 127.26 C 168.31 126.23 167.13 125.72 166.10 126.14 L 165.17 126.51 C 164.14 126.92 163.63 128.10 164.05 129.13 C 164.46 130.16 165.63 130.66 166.67 130.25 Z M 167.57 129.84 L 168.50 129.47 C 169.51 129.08 170.01 127.94 169.61 126.92 C 169.22 125.91 168.07 125.41 167.06 125.81 L 166.13 126.18 C 165.12 126.57 164.62 127.71 165.02 128.73 C 165.41 129.74 166.56 130.24 167.57 129.84 Z M 168.46 129.42 L 169.39 129.06 C 170.37 128.69 170.86 127.59 170.49 126.61 C 170.12 125.63 169.02 125.14 168.04 125.51 L 167.11 125.87 C 166.13 126.24 165.63 127.34 166.01 128.32 C 166.38 129.30 167.48 129.79 168.46 129.42 Z M 169.35 129.01 L 170.29 128.67 C 171.25 128.32 171.74 127.26 171.39 126.31 C 171.04 125.35 169.98 124.86 169.02 125.21 L 168.08 125.56 C 167.13 125.91 166.64 126.97 166.99 127.92 C 167.34 128.88 168.40 129.36 169.35 129.01 Z M 170.27 128.65 L 171.21 128.31 C 172.15 127.98 172.65 126.94 172.31 125.99 C 171.97 125.05 170.93 124.56 169.99 124.89 L 169.05 125.23 C 168.10 125.57 167.61 126.61 167.95 127.55 C 168.29 128.49 169.33 128.99 170.27 128.65 Z M 171.20 128.30 L 171.74 128.11 C 172.68 127.78 173.17 126.75 172.84 125.81 C 172.51 124.87 171.48 124.38 170.54 124.71 L 170.00 124.90 C 169.06 125.24 168.57 126.27 168.90 127.21 C 169.23 128.14 170.26 128.64 171.20 128.30 Z"
      fill="black"
      fill-rule="nonzero" /><path d="M 152.81 136.66 L 153.74 135.90 C 154.59 135.19 154.71 133.93 154.00 133.08 C 153.30 132.22 152.04 132.11 151.19 132.81 L 150.26 133.58 C 149.40 134.28 149.28 135.54 149.99 136.40 C 150.69 137.25 151.95 137.37 152.81 136.66 Z M 152.77 132.23 L 152.53 132.20 C 151.36 132.02 150.27 132.83 150.10 134.00 C 149.93 135.17 150.73 136.26 151.90 136.44 L 152.15 136.47 C 153.32 136.64 154.41 135.84 154.58 134.67 C 154.75 133.49 153.94 132.41 152.77 132.23 Z M 151.20 132.39 L 150.12 132.96 C 149.05 133.52 148.65 134.84 149.21 135.90 C 149.77 136.97 151.09 137.38 152.15 136.82 L 153.23 136.25 C 154.30 135.68 154.71 134.36 154.15 133.30 C 153.58 132.23 152.27 131.83 151.20 132.39 Z M 150.00 133.04 L 149.15 133.56 C 148.13 134.19 147.82 135.53 148.45 136.55 C 149.08 137.57 150.42 137.88 151.44 137.25 L 152.28 136.73 C 153.30 136.10 153.61 134.76 152.98 133.75 C 152.35 132.73 151.01 132.41 150.00 133.04 Z M 149.14 133.59 L 148.32 134.12 C 147.32 134.75 147.02 136.08 147.66 137.08 C 148.29 138.09 149.62 138.38 150.62 137.74 L 151.45 137.22 C 152.45 136.58 152.75 135.26 152.11 134.25 C 151.47 133.25 150.14 132.96 149.14 133.59 Z M 148.36 134.11 L 147.56 134.60 C 146.56 135.22 146.24 136.53 146.85 137.53 C 147.47 138.53 148.78 138.85 149.78 138.24 L 150.58 137.75 C 151.58 137.13 151.90 135.82 151.29 134.82 C 150.67 133.82 149.36 133.50 148.36 134.11 Z M 147.61 134.60 L 146.66 135.15 C 145.66 135.74 145.32 137.03 145.90 138.03 C 146.49 139.04 147.78 139.38 148.79 138.79 L 149.73 138.24 C 150.73 137.65 151.07 136.37 150.49 135.36 C 149.90 134.36 148.61 134.02 147.61 134.60 Z M 146.70 135.15 L 145.89 135.61 C 144.88 136.17 144.52 137.44 145.09 138.45 C 145.65 139.45 146.93 139.81 147.93 139.25 L 148.75 138.79 C 149.75 138.23 150.11 136.96 149.55 135.95 C 148.98 134.94 147.71 134.59 146.70 135.15 Z M 145.92 135.60 L 145.04 136.08 C 144.03 136.63 143.65 137.89 144.20 138.89 C 144.74 139.90 146.00 140.28 147.01 139.73 L 147.90 139.25 C 148.90 138.71 149.28 137.45 148.73 136.44 C 148.19 135.43 146.93 135.06 145.92 135.60 Z M 145.07 136.08 L 144.14 136.56 C 143.13 137.08 142.74 138.33 143.26 139.34 C 143.79 140.35 145.03 140.74 146.04 140.22 L 146.97 139.74 C 147.98 139.21 148.38 137.97 147.85 136.96 C 147.33 135.95 146.08 135.55 145.07 136.08 Z M 144.19 136.55 L 143.24 137.02 C 142.22 137.52 141.81 138.75 142.30 139.76 C 142.80 140.77 144.03 141.19 145.04 140.69 L 145.99 140.23 C 147.01 139.73 147.43 138.50 146.93 137.49 C 146.43 136.47 145.20 136.06 144.19 136.55 Z M 143.28 137.02 L 142.35 137.45 C 141.34 137.93 140.90 139.13 141.37 140.15 C 141.84 141.16 143.05 141.60 144.06 141.13 L 145.00 140.70 C 146.01 140.22 146.45 139.02 145.98 138.00 C 145.51 136.99 144.30 136.55 143.28 137.02 Z M 142.40 137.45 L 141.51 137.84 C 140.50 138.29 140.04 139.48 140.49 140.49 C 140.94 141.51 142.12 141.97 143.14 141.52 L 144.02 141.13 C 145.03 140.68 145.49 139.50 145.05 138.48 C 144.60 137.47 143.41 137.01 142.40 137.45 Z M 141.56 137.84 L 140.60 138.24 C 139.58 138.67 139.10 139.83 139.52 140.85 C 139.95 141.86 141.11 142.34 142.13 141.92 L 143.09 141.52 C 144.11 141.10 144.59 139.93 144.16 138.92 C 143.74 137.90 142.58 137.42 141.56 137.84 Z M 140.65 138.24 L 139.71 138.60 C 138.69 139.00 138.19 140.14 138.58 141.16 C 138.98 142.18 140.12 142.68 141.14 142.29 L 142.08 141.93 C 143.10 141.53 143.60 140.39 143.21 139.37 C 142.81 138.35 141.67 137.84 140.65 138.24 Z M 139.76 138.60 L 138.87 138.92 C 137.85 139.29 137.33 140.42 137.70 141.44 C 138.07 142.46 139.20 142.98 140.22 142.61 L 141.10 142.29 C 142.12 141.92 142.64 140.79 142.27 139.77 C 141.90 138.76 140.77 138.23 139.76 138.60 Z M 138.91 138.91 L 137.95 139.24 C 136.93 139.59 136.39 140.71 136.74 141.73 C 137.09 142.76 138.21 143.30 139.23 142.95 L 140.18 142.62 C 141.21 142.27 141.75 141.15 141.40 140.13 C 141.04 139.10 139.93 138.56 138.91 138.91 Z M 137.96 139.24 L 136.92 139.60 C 135.89 139.95 135.35 141.06 135.70 142.09 C 136.05 143.11 137.16 143.65 138.18 143.30 L 139.23 142.94 C 140.25 142.59 140.79 141.48 140.44 140.46 C 140.09 139.44 138.98 138.89 137.96 139.24 Z M 135.73 140.75 L 135.54 141.23 C 135.16 142.24 135.66 143.37 136.67 143.75 C 137.67 144.14 138.80 143.64 139.19 142.63 L 139.37 142.15 C 139.76 141.14 139.26 140.01 138.25 139.63 C 137.24 139.24 136.11 139.74 135.73 140.75 Z M 136.35 143.63 L 137.27 144.18 C 138.21 144.75 139.43 144.44 139.99 143.51 C 140.55 142.57 140.25 141.35 139.31 140.79 L 138.39 140.23 C 137.45 139.67 136.23 139.97 135.67 140.91 C 135.11 141.85 135.41 143.06 136.35 143.63 Z M 137.17 144.17 L 138.04 144.75 C 138.97 145.37 140.22 145.12 140.84 144.19 C 141.46 143.27 141.21 142.01 140.29 141.39 L 139.42 140.81 C 138.49 140.19 137.23 140.44 136.61 141.36 C 135.99 142.29 136.24 143.55 137.17 144.17 Z M 137.79 144.60 L 138.51 145.25 C 139.36 146.01 140.66 145.95 141.42 145.10 C 142.18 144.26 142.11 142.96 141.27 142.20 L 140.54 141.54 C 139.70 140.78 138.39 140.85 137.63 141.69 C 136.87 142.54 136.94 143.84 137.79 144.60 Z M 138.35 145.14 L 139.02 145.87 C 139.80 146.72 141.12 146.77 141.97 145.99 C 142.82 145.21 142.88 143.89 142.10 143.04 L 141.43 142.31 C 140.65 141.46 139.33 141.40 138.48 142.18 C 137.62 142.97 137.57 144.29 138.35 145.14 Z M 138.85 145.71 L 139.45 146.52 C 140.15 147.47 141.47 147.67 142.42 146.97 C 143.36 146.28 143.56 144.95 142.86 144.00 L 142.27 143.19 C 141.57 142.25 140.24 142.05 139.30 142.75 C 138.36 143.44 138.16 144.77 138.85 145.71 Z M 139.29 146.33 L 139.79 147.19 C 140.38 148.22 141.69 148.58 142.72 147.99 C 143.75 147.40 144.10 146.08 143.51 145.05 L 143.02 144.19 C 142.43 143.17 141.12 142.81 140.09 143.40 C 139.06 143.99 138.70 145.30 139.29 146.33 Z M 139.68 147.04 L 140.11 147.95 C 140.62 149.04 141.91 149.50 143.00 148.99 C 144.08 148.49 144.55 147.19 144.04 146.11 L 143.62 145.20 C 143.11 144.12 141.82 143.65 140.73 144.16 C 139.64 144.66 139.18 145.96 139.68 147.04 Z M 140.04 147.83 L 140.40 148.75 C 140.84 149.88 142.12 150.43 143.24 149.98 C 144.37 149.54 144.92 148.26 144.47 147.14 L 144.11 146.22 C 143.67 145.10 142.39 144.55 141.27 144.99 C 140.14 145.44 139.59 146.71 140.04 147.83 Z M 140.34 148.64 L 140.66 149.61 C 141.05 150.77 142.29 151.40 143.45 151.02 C 144.61 150.64 145.24 149.39 144.86 148.23 L 144.53 147.25 C 144.15 146.10 142.90 145.47 141.75 145.85 C 140.59 146.23 139.96 147.48 140.34 148.64 Z M 140.62 149.50 L 140.88 150.46 C 141.20 151.64 142.42 152.34 143.60 152.02 C 144.78 151.70 145.48 150.48 145.16 149.30 L 144.90 148.34 C 144.58 147.16 143.36 146.47 142.18 146.79 C 141.00 147.11 140.30 148.32 140.62 149.50 Z M 140.86 150.35 L 141.07 151.34 C 141.34 152.54 142.52 153.29 143.71 153.03 C 144.90 152.77 145.66 151.59 145.40 150.39 L 145.18 149.41 C 144.92 148.21 143.74 147.46 142.55 147.72 C 141.35 147.98 140.60 149.16 140.86 150.35 Z M 141.06 151.23 L 141.23 152.23 C 141.43 153.44 142.57 154.25 143.77 154.05 C 144.97 153.85 145.78 152.71 145.58 151.50 L 145.41 150.50 C 145.21 149.30 144.07 148.49 142.87 148.69 C 141.67 148.89 140.86 150.03 141.06 151.23 Z M 141.22 152.14 L 141.34 153.13 C 141.49 154.33 142.59 155.19 143.79 155.04 C 145.00 154.90 145.86 153.80 145.71 152.59 L 145.59 151.60 C 145.44 150.40 144.34 149.54 143.14 149.69 C 141.93 149.83 141.07 150.93 141.22 152.14 Z M 141.35 153.06 L 141.43 154.05 C 141.54 155.26 142.61 156.14 143.81 156.04 C 145.01 155.93 145.90 154.86 145.79 153.66 L 145.70 152.66 C 145.60 151.46 144.53 150.57 143.33 150.68 C 142.13 150.79 141.24 151.85 141.35 153.06 Z M 141.44 153.99 L 141.51 155.00 C 141.59 156.20 142.62 157.11 143.82 157.04 C 145.02 156.96 145.93 155.93 145.85 154.73 L 145.78 153.72 C 145.71 152.52 144.67 151.61 143.48 151.69 C 142.28 151.76 141.37 152.80 141.44 153.99 Z M 141.52 154.95 L 141.56 155.93 C 141.61 157.12 142.61 158.05 143.80 158.00 C 144.99 157.96 145.92 156.95 145.87 155.76 L 145.84 154.78 C 145.79 153.59 144.79 152.66 143.60 152.71 C 142.40 152.76 141.48 153.76 141.52 154.95 Z M 141.59 155.87 L 141.60 156.89 C 141.61 158.06 142.58 159.01 143.75 158.99 C 144.93 158.98 145.87 158.02 145.86 156.84 L 145.85 155.82 C 145.84 154.65 144.87 153.70 143.69 153.72 C 142.52 153.73 141.57 154.69 141.59 155.87 Z M 141.63 156.82 L 141.61 157.80 C 141.59 158.96 142.51 159.91 143.66 159.94 C 144.82 159.96 145.78 159.04 145.80 157.89 L 145.82 156.91 C 145.85 155.75 144.93 154.79 143.77 154.77 C 142.62 154.75 141.66 155.66 141.63 156.82 Z M 141.67 157.74 L 141.61 158.74 C 141.55 159.87 142.42 160.83 143.55 160.89 C 144.68 160.95 145.64 160.08 145.70 158.95 L 145.75 157.95 C 145.81 156.82 144.94 155.86 143.81 155.80 C 142.69 155.74 141.72 156.61 141.67 157.74 Z M 141.67 158.71 L 141.62 159.44 C 141.55 160.54 142.38 161.49 143.48 161.56 C 144.58 161.63 145.52 160.80 145.60 159.70 L 145.65 158.98 C 145.72 157.88 144.89 156.93 143.79 156.86 C 142.69 156.78 141.74 157.61 141.67 158.71 Z"
      fill="black"
      fill-rule="nonzero" /><path d="M 147.37 146.09 L 148.32 145.64 C 149.32 145.16 149.75 143.97 149.27 142.96 C 148.79 141.96 147.59 141.54 146.59 142.01 L 145.64 142.47 C 144.64 142.94 144.22 144.14 144.69 145.14 C 145.17 146.15 146.37 146.57 147.37 146.09 Z M 148.28 145.72 L 149.18 145.32 C 150.22 144.87 150.70 143.65 150.24 142.61 C 149.78 141.57 148.57 141.09 147.52 141.55 L 146.63 141.94 C 145.59 142.40 145.11 143.61 145.57 144.65 C 146.02 145.70 147.24 146.17 148.28 145.72 Z M 149.03 145.44 L 149.97 145.13 C 151.08 144.75 151.67 143.55 151.29 142.44 C 150.92 141.33 149.72 140.74 148.61 141.11 L 147.67 141.43 C 146.56 141.80 145.97 143.01 146.34 144.12 C 146.72 145.22 147.92 145.82 149.03 145.44 Z M 149.74 145.26 L 150.70 145.05 C 151.88 144.80 152.63 143.65 152.38 142.47 C 152.13 141.29 150.97 140.53 149.79 140.78 L 148.84 140.98 C 147.66 141.23 146.90 142.39 147.15 143.57 C 147.40 144.75 148.56 145.50 149.74 145.26 Z M 150.57 145.12 L 151.50 144.99 C 152.71 144.81 153.56 143.68 153.38 142.46 C 153.20 141.24 152.07 140.40 150.86 140.58 L 149.93 140.71 C 148.71 140.89 147.86 142.02 148.04 143.24 C 148.22 144.46 149.35 145.30 150.57 145.12 Z M 151.43 145.02 L 152.46 144.90 C 153.70 144.76 154.59 143.64 154.44 142.41 C 154.30 141.17 153.19 140.29 151.95 140.43 L 150.92 140.55 C 149.69 140.69 148.80 141.80 148.94 143.04 C 149.08 144.27 150.19 145.16 151.43 145.02 Z M 152.42 144.91 L 153.36 144.82 C 154.60 144.71 155.52 143.61 155.40 142.37 C 155.29 141.13 154.19 140.21 152.95 140.33 L 152.00 140.42 C 150.76 140.53 149.85 141.63 149.96 142.87 C 150.08 144.11 151.18 145.03 152.42 144.91 Z M 153.31 144.81 L 154.29 144.74 C 155.52 144.66 156.46 143.59 156.37 142.35 C 156.28 141.12 155.21 140.18 153.97 140.27 L 153.00 140.34 C 151.76 140.43 150.83 141.50 150.92 142.73 C 151.00 143.97 152.08 144.90 153.31 144.81 Z M 154.23 144.73 L 155.32 144.68 C 156.55 144.63 157.50 143.59 157.44 142.36 C 157.39 141.14 156.35 140.18 155.12 140.24 L 154.03 140.29 C 152.81 140.34 151.86 141.38 151.91 142.60 C 151.96 143.83 153.00 144.78 154.23 144.73 Z M 155.26 144.67 L 156.25 144.66 C 157.48 144.64 158.45 143.63 158.43 142.41 C 158.41 141.19 157.41 140.21 156.18 140.23 L 155.19 140.25 C 153.96 140.27 152.99 141.27 153.01 142.50 C 153.03 143.72 154.03 144.69 155.26 144.67 Z M 156.17 144.65 L 157.19 144.68 C 158.41 144.71 159.43 143.74 159.46 142.52 C 159.49 141.30 158.52 140.29 157.30 140.26 L 156.27 140.24 C 155.05 140.21 154.04 141.17 154.01 142.39 C 153.98 143.61 154.95 144.62 156.17 144.65 Z M 157.05 144.67 L 158.04 144.75 C 159.26 144.86 160.33 143.96 160.43 142.75 C 160.54 141.54 159.64 140.47 158.43 140.36 L 157.44 140.27 C 156.23 140.17 155.16 141.06 155.05 142.28 C 154.94 143.49 155.84 144.56 157.05 144.67 Z M 157.80 144.71 L 158.83 144.92 C 160.02 145.16 161.18 144.39 161.42 143.20 C 161.66 142.01 160.89 140.85 159.70 140.61 L 158.67 140.40 C 157.48 140.16 156.32 140.93 156.08 142.12 C 155.84 143.31 156.61 144.47 157.80 144.71 Z M 158.51 144.81 L 159.44 145.15 C 160.57 145.57 161.83 144.99 162.24 143.86 C 162.66 142.73 162.08 141.47 160.95 141.06 L 160.02 140.72 C 158.89 140.30 157.63 140.88 157.22 142.01 C 156.80 143.14 157.38 144.39 158.51 144.81 Z M 159.15 145.00 L 159.98 145.45 C 161.03 146.03 162.34 145.65 162.92 144.60 C 163.49 143.55 163.11 142.24 162.06 141.66 L 161.23 141.21 C 160.19 140.63 158.87 141.02 158.30 142.06 C 157.72 143.11 158.10 144.43 159.15 145.00 Z M 159.75 145.29 L 160.58 145.89 C 161.53 146.59 162.87 146.38 163.57 145.42 C 164.27 144.47 164.06 143.12 163.11 142.43 L 162.28 141.83 C 161.33 141.13 159.99 141.34 159.29 142.29 C 158.59 143.25 158.80 144.59 159.75 145.29 Z M 160.37 145.69 L 161.09 146.38 C 161.93 147.19 163.28 147.16 164.09 146.32 C 164.90 145.47 164.88 144.12 164.03 143.31 L 163.31 142.62 C 162.47 141.81 161.12 141.84 160.31 142.69 C 159.49 143.53 159.52 144.88 160.37 145.69 Z M 160.88 146.12 L 161.48 146.92 C 162.19 147.84 163.51 148.02 164.44 147.32 C 165.37 146.61 165.55 145.29 164.84 144.36 L 164.24 143.57 C 163.53 142.64 162.21 142.46 161.28 143.17 C 160.35 143.87 160.17 145.20 160.88 146.12 Z M 161.30 146.62 L 161.76 147.50 C 162.31 148.52 163.58 148.91 164.61 148.37 C 165.63 147.83 166.02 146.56 165.48 145.53 L 165.02 144.65 C 164.48 143.63 163.20 143.24 162.18 143.78 C 161.15 144.32 160.76 145.59 161.30 146.62 Z M 161.65 147.22 L 161.99 148.15 C 162.38 149.24 163.58 149.80 164.67 149.41 C 165.76 149.02 166.32 147.82 165.93 146.73 L 165.59 145.80 C 165.20 144.72 164.00 144.15 162.91 144.54 C 161.82 144.94 161.26 146.14 161.65 147.22 Z M 161.93 147.93 L 162.17 148.89 C 162.44 150.00 163.56 150.69 164.68 150.42 C 165.79 150.15 166.48 149.03 166.21 147.91 L 165.98 146.95 C 165.71 145.83 164.59 145.15 163.47 145.42 C 162.35 145.69 161.66 146.81 161.93 147.93 Z M 162.15 148.70 L 162.30 149.72 C 162.46 150.84 163.51 151.62 164.64 151.46 C 165.77 151.29 166.55 150.24 166.38 149.11 L 166.23 148.09 C 166.06 146.97 165.01 146.19 163.89 146.35 C 162.76 146.52 161.98 147.57 162.15 148.70 Z M 162.30 149.57 L 162.38 150.56 C 162.46 151.68 163.45 152.52 164.57 152.44 C 165.70 152.35 166.54 151.37 166.45 150.24 L 166.38 149.26 C 166.29 148.13 165.31 147.29 164.18 147.37 C 163.06 147.46 162.21 148.44 162.30 149.57 Z M 162.40 150.44 L 162.42 151.45 C 162.45 152.57 163.37 153.45 164.48 153.42 C 165.60 153.40 166.48 152.47 166.46 151.36 L 166.43 150.35 C 166.41 149.24 165.48 148.36 164.37 148.38 C 163.25 148.41 162.37 149.33 162.40 150.44 Z M 162.45 151.36 L 162.43 152.37 C 162.40 153.47 163.27 154.38 164.37 154.41 C 165.47 154.43 166.38 153.56 166.41 152.46 L 166.43 151.45 C 166.45 150.35 165.58 149.44 164.48 149.42 C 163.38 149.39 162.47 150.26 162.45 151.36 Z M 162.46 152.26 L 162.38 153.26 C 162.30 154.34 163.11 155.29 164.19 155.37 C 165.27 155.45 166.21 154.64 166.30 153.56 L 166.37 152.57 C 166.46 151.48 165.65 150.54 164.57 150.46 C 163.48 150.37 162.54 151.18 162.46 152.26 Z M 162.43 153.11 L 162.27 154.09 C 162.11 155.15 162.83 156.14 163.89 156.31 C 164.94 156.47 165.93 155.75 166.10 154.69 L 166.25 153.71 C 166.42 152.66 165.69 151.66 164.64 151.50 C 163.58 151.33 162.59 152.06 162.43 153.11 Z M 162.34 153.92 L 162.09 154.90 C 161.82 155.92 162.44 156.96 163.46 157.22 C 164.48 157.48 165.52 156.87 165.78 155.85 L 166.03 154.87 C 166.29 153.85 165.68 152.81 164.66 152.55 C 163.64 152.28 162.60 152.90 162.34 153.92 Z M 162.16 154.75 L 161.83 155.69 C 161.48 156.67 161.99 157.74 162.97 158.09 C 163.94 158.43 165.02 157.92 165.36 156.95 L 165.70 156.00 C 166.05 155.03 165.54 153.95 164.56 153.61 C 163.58 153.26 162.51 153.77 162.16 154.75 Z M 161.91 155.56 L 161.49 156.49 C 161.07 157.43 161.49 158.52 162.42 158.94 C 163.35 159.36 164.44 158.94 164.86 158.01 L 165.28 157.08 C 165.70 156.15 165.29 155.05 164.35 154.63 C 163.42 154.21 162.33 154.63 161.91 155.56 Z M 161.58 156.35 L 161.08 157.24 C 160.59 158.12 160.90 159.24 161.78 159.74 C 162.65 160.23 163.77 159.92 164.27 159.04 L 164.77 158.15 C 165.27 157.27 164.95 156.16 164.08 155.66 C 163.20 155.16 162.08 155.47 161.58 156.35 Z M 161.22 157.06 L 160.65 157.83 C 160.05 158.63 160.21 159.77 161.01 160.37 C 161.82 160.97 162.95 160.80 163.55 160.00 L 164.13 159.23 C 164.73 158.43 164.56 157.29 163.76 156.69 C 162.96 156.09 161.82 156.25 161.22 157.06 Z M 160.85 157.61 L 160.13 158.30 C 159.41 159.00 159.39 160.14 160.08 160.86 C 160.78 161.57 161.92 161.59 162.64 160.90 L 163.35 160.21 C 164.07 159.52 164.09 158.38 163.40 157.66 C 162.71 156.94 161.56 156.92 160.85 157.61 Z M 160.22 158.22 L 159.95 158.45 C 159.19 159.09 159.09 160.23 159.73 160.99 C 160.37 161.75 161.51 161.85 162.27 161.21 L 162.54 160.98 C 163.30 160.34 163.40 159.21 162.76 158.45 C 162.12 157.68 160.99 157.58 160.22 158.22 Z"
      fill="black"
      fill-rule="nonzero" /><path d="M 144.98 153.55 L 145.93 153.73 C 147.08 153.96 148.20 153.21 148.43 152.06 C 148.65 150.91 147.90 149.79 146.75 149.57 L 145.80 149.38 C 144.65 149.15 143.53 149.90 143.31 151.05 C 143.08 152.20 143.83 153.32 144.98 153.55 Z M 146.10 153.87 L 147.08 153.98 C 148.30 154.11 149.41 153.23 149.54 152.00 C 149.68 150.77 148.79 149.67 147.56 149.54 L 146.59 149.43 C 145.36 149.29 144.25 150.18 144.12 151.41 C 143.99 152.63 144.87 153.74 146.10 153.87 Z M 147.31 154.01 L 148.28 154.02 C 149.52 154.03 150.54 153.02 150.55 151.78 C 150.56 150.53 149.55 149.52 148.31 149.51 L 147.34 149.50 C 146.09 149.49 145.07 150.50 145.07 151.74 C 145.06 152.99 146.06 154.00 147.31 154.01 Z M 148.46 153.98 L 149.48 153.90 C 150.71 153.81 151.62 152.74 151.53 151.52 C 151.44 150.29 150.37 149.38 149.15 149.47 L 148.12 149.55 C 146.90 149.64 145.98 150.71 146.08 151.93 C 146.17 153.16 147.24 154.07 148.46 153.98 Z M 149.60 153.86 L 150.50 153.74 C 151.70 153.58 152.55 152.48 152.39 151.28 C 152.23 150.08 151.13 149.24 149.93 149.40 L 149.03 149.51 C 147.83 149.67 146.99 150.77 147.15 151.97 C 147.30 153.17 148.40 154.01 149.60 153.86 Z M 150.55 153.70 L 151.58 153.54 C 152.75 153.35 153.56 152.25 153.37 151.07 C 153.19 149.89 152.08 149.09 150.90 149.27 L 149.88 149.43 C 148.70 149.62 147.90 150.73 148.08 151.90 C 148.27 153.08 149.38 153.89 150.55 153.70 Z M 151.59 153.50 L 152.64 153.33 C 153.80 153.14 154.58 152.04 154.39 150.88 C 154.20 149.72 153.10 148.94 151.94 149.13 L 150.89 149.31 C 149.73 149.50 148.95 150.60 149.14 151.76 C 149.33 152.92 150.43 153.70 151.59 153.50 Z M 152.64 153.30 L 153.57 153.14 C 154.72 152.95 155.49 151.87 155.30 150.73 C 155.10 149.58 154.02 148.81 152.88 149.00 L 151.94 149.16 C 150.80 149.35 150.03 150.43 150.22 151.58 C 150.41 152.72 151.49 153.49 152.64 153.30 Z M 153.56 153.11 L 154.56 152.95 C 155.69 152.76 156.45 151.70 156.26 150.57 C 156.07 149.44 155.01 148.68 153.88 148.87 L 152.89 149.03 C 151.76 149.22 151.00 150.28 151.19 151.41 C 151.37 152.54 152.44 153.30 153.56 153.11 Z M 154.55 152.92 L 155.58 152.75 C 156.69 152.57 157.44 151.52 157.26 150.41 C 157.08 149.30 156.03 148.55 154.92 148.73 L 153.89 148.90 C 152.78 149.08 152.03 150.12 152.21 151.23 C 152.39 152.35 153.44 153.10 154.55 152.92 Z M 155.56 152.72 L 156.59 152.56 C 157.68 152.39 158.43 151.36 158.26 150.27 C 158.08 149.17 157.06 148.43 155.96 148.60 L 154.94 148.76 C 153.84 148.93 153.10 149.96 153.27 151.05 C 153.44 152.15 154.47 152.89 155.56 152.72 Z M 156.57 152.52 L 157.56 152.37 C 158.64 152.21 159.38 151.21 159.21 150.13 C 159.05 149.06 158.05 148.32 156.97 148.48 L 155.98 148.63 C 154.91 148.80 154.17 149.80 154.33 150.88 C 154.49 151.95 155.50 152.69 156.57 152.52 Z M 157.55 152.33 L 158.54 152.19 C 159.59 152.03 160.32 151.05 160.16 150.00 C 160.01 148.95 159.03 148.22 157.97 148.38 L 156.99 148.52 C 155.93 148.68 155.21 149.66 155.36 150.71 C 155.52 151.76 156.50 152.49 157.55 152.33 Z M 158.53 152.15 L 159.52 152.00 C 160.55 151.85 161.26 150.90 161.11 149.87 C 160.96 148.84 160.00 148.12 158.97 148.27 L 157.99 148.42 C 156.96 148.57 156.24 149.52 156.39 150.55 C 156.54 151.58 157.50 152.30 158.53 152.15 Z M 159.51 151.96 L 160.38 151.84 C 161.39 151.69 162.09 150.76 161.94 149.75 C 161.80 148.74 160.86 148.04 159.86 148.19 L 158.98 148.31 C 157.97 148.46 157.27 149.39 157.42 150.40 C 157.56 151.41 158.50 152.11 159.51 151.96 Z"
      fill="black"
      fill-rule="nonzero" /><path d="M 143.31 161.99 L 144.11 162.55 C 145.08 163.22 146.41 162.98 147.09 162.01 C 147.76 161.04 147.52 159.71 146.55 159.04 L 145.75 158.48 C 144.78 157.80 143.45 158.04 142.77 159.01 C 142.10 159.98 142.34 161.31 143.31 161.99 Z M 144.49 162.90 L 145.40 163.27 C 146.57 163.73 147.89 163.16 148.35 162.00 C 148.82 160.83 148.25 159.51 147.08 159.05 L 146.17 158.68 C 145.01 158.22 143.69 158.79 143.22 159.95 C 142.76 161.12 143.33 162.44 144.49 162.90 Z M 146.00 163.47 L 146.94 163.56 C 148.21 163.69 149.35 162.76 149.48 161.49 C 149.61 160.21 148.69 159.07 147.41 158.94 L 146.48 158.85 C 145.20 158.72 144.06 159.64 143.93 160.92 C 143.80 162.19 144.73 163.33 146.00 163.47 Z M 147.31 163.55 L 148.39 163.49 C 149.67 163.42 150.64 162.33 150.56 161.06 C 150.49 159.78 149.40 158.81 148.13 158.89 L 147.04 158.95 C 145.77 159.02 144.80 160.11 144.87 161.39 C 144.95 162.66 146.04 163.63 147.31 163.55 Z M 148.58 163.45 L 149.59 163.31 C 150.84 163.13 151.71 161.97 151.53 160.72 C 151.36 159.48 150.20 158.61 148.95 158.78 L 147.94 158.93 C 146.69 159.10 145.82 160.26 146.00 161.51 C 146.18 162.76 147.33 163.63 148.58 163.45 Z M 149.68 163.27 L 150.69 163.08 C 151.92 162.86 152.73 161.68 152.50 160.45 C 152.27 159.22 151.09 158.41 149.87 158.64 L 148.86 158.82 C 147.63 159.05 146.82 160.23 147.05 161.46 C 147.28 162.68 148.46 163.49 149.68 163.27 Z M 150.74 163.05 L 151.73 162.84 C 152.94 162.58 153.71 161.40 153.45 160.19 C 153.20 158.98 152.01 158.21 150.81 158.47 L 149.82 158.67 C 148.61 158.93 147.84 160.11 148.09 161.32 C 148.35 162.53 149.53 163.30 150.74 163.05 Z M 151.77 162.80 L 152.75 162.57 C 153.93 162.29 154.67 161.11 154.39 159.93 C 154.12 158.74 152.94 158.00 151.75 158.28 L 150.77 158.51 C 149.58 158.78 148.85 159.96 149.12 161.15 C 149.40 162.33 150.58 163.07 151.77 162.80 Z M 152.78 162.53 L 153.69 162.30 C 154.86 162.00 155.56 160.82 155.27 159.66 C 154.97 158.49 153.79 157.79 152.62 158.09 L 151.71 158.32 C 150.55 158.61 149.85 159.80 150.14 160.96 C 150.44 162.12 151.62 162.83 152.78 162.53 Z M 153.71 162.28 L 154.68 162.02 C 155.83 161.72 156.52 160.54 156.21 159.39 C 155.91 158.24 154.73 157.55 153.58 157.85 L 152.61 158.11 C 151.46 158.41 150.77 159.59 151.07 160.74 C 151.37 161.89 152.55 162.58 153.71 162.28 Z M 154.65 162.00 L 155.62 161.76 C 156.76 161.47 157.45 160.31 157.16 159.16 C 156.87 158.02 155.71 157.34 154.57 157.63 L 153.60 157.87 C 152.46 158.16 151.77 159.32 152.06 160.46 C 152.35 161.60 153.51 162.29 154.65 162.00 Z M 155.60 161.70 L 156.57 161.46 C 157.68 161.18 158.35 160.06 158.08 158.95 C 157.80 157.84 156.68 157.16 155.57 157.44 L 154.60 157.68 C 153.49 157.96 152.81 159.08 153.09 160.19 C 153.36 161.30 154.49 161.98 155.60 161.70 Z M 156.56 161.39 L 157.48 161.16 C 158.55 160.88 159.20 159.79 158.93 158.72 C 158.66 157.65 157.57 157.00 156.49 157.27 L 155.57 157.51 C 154.50 157.78 153.85 158.87 154.13 159.94 C 154.40 161.02 155.49 161.66 156.56 161.39 Z M 157.45 161.09 L 158.47 160.84 C 159.51 160.59 160.14 159.54 159.88 158.50 C 159.63 157.46 158.58 156.83 157.54 157.09 L 156.52 157.34 C 155.49 157.59 154.85 158.64 155.11 159.68 C 155.37 160.71 156.41 161.35 157.45 161.09 Z M 158.42 160.81 L 159.38 160.59 C 160.40 160.36 161.04 159.35 160.80 158.33 C 160.57 157.31 159.56 156.67 158.54 156.90 L 157.59 157.12 C 156.57 157.35 155.93 158.37 156.16 159.38 C 156.39 160.40 157.41 161.04 158.42 160.81 Z M 159.34 160.58 L 160.34 160.37 C 161.35 160.17 162.00 159.18 161.79 158.17 C 161.59 157.16 160.60 156.50 159.59 156.71 L 158.59 156.92 C 157.58 157.12 156.92 158.11 157.13 159.12 C 157.34 160.13 158.32 160.78 159.34 160.58 Z M 160.27 160.36 L 161.28 160.19 C 162.29 160.02 162.97 159.07 162.80 158.06 C 162.63 157.05 161.67 156.38 160.66 156.55 L 159.65 156.72 C 158.65 156.89 157.97 157.85 158.14 158.85 C 158.31 159.86 159.27 160.54 160.27 160.36 Z M 161.23 160.18 L 162.20 160.04 C 163.20 159.90 163.90 158.98 163.76 157.98 C 163.62 156.98 162.70 156.29 161.70 156.43 L 160.72 156.56 C 159.72 156.70 159.03 157.62 159.17 158.62 C 159.31 159.62 160.23 160.32 161.23 160.18 Z M 162.18 160.03 L 162.58 159.98 C 163.58 159.85 164.27 158.94 164.15 157.95 C 164.02 156.96 163.11 156.26 162.12 156.39 L 161.72 156.44 C 160.73 156.57 160.03 157.48 160.16 158.47 C 160.29 159.46 161.19 160.16 162.18 160.03 Z"
      fill="black"
      fill-rule="nonzero" /><path d="M 138.78 171.36 L 139.10 172.30 C 139.49 173.47 140.76 174.11 141.94 173.71 C 143.12 173.32 143.75 172.04 143.35 170.87 L 143.04 169.93 C 142.64 168.75 141.37 168.12 140.19 168.52 C 139.02 168.91 138.38 170.18 138.78 171.36 Z M 139.88 173.51 L 140.59 174.01 C 141.66 174.76 143.12 174.50 143.87 173.43 C 144.61 172.37 144.35 170.91 143.29 170.16 L 142.57 169.66 C 141.51 168.91 140.04 169.17 139.30 170.23 C 138.55 171.30 138.81 172.76 139.88 173.51 Z M 141.57 174.45 L 142.56 174.60 C 143.86 174.81 145.09 173.91 145.29 172.61 C 145.49 171.31 144.60 170.08 143.30 169.88 L 142.31 169.72 C 141.01 169.52 139.78 170.41 139.58 171.72 C 139.38 173.02 140.27 174.24 141.57 174.45 Z M 142.84 174.63 L 143.95 174.67 C 145.27 174.72 146.38 173.69 146.42 172.37 C 146.47 171.05 145.44 169.94 144.12 169.89 L 143.02 169.85 C 141.70 169.80 140.59 170.83 140.54 172.15 C 140.49 173.47 141.52 174.58 142.84 174.63 Z M 144.02 174.66 L 145.06 174.66 C 146.37 174.66 147.44 173.60 147.44 172.29 C 147.45 170.98 146.39 169.92 145.08 169.91 L 144.04 169.91 C 142.73 169.90 141.66 170.96 141.66 172.27 C 141.65 173.58 142.71 174.65 144.02 174.66 Z M 145.15 174.63 L 146.10 174.59 C 147.39 174.55 148.40 173.46 148.36 172.17 C 148.31 170.87 147.23 169.86 145.93 169.91 L 144.99 169.94 C 143.69 169.99 142.68 171.07 142.72 172.37 C 142.77 173.66 143.86 174.67 145.15 174.63 Z M 146.25 174.53 L 147.30 174.42 C 148.55 174.29 149.47 173.16 149.34 171.90 C 149.20 170.65 148.08 169.73 146.82 169.86 L 145.78 169.97 C 144.52 170.10 143.61 171.23 143.74 172.49 C 143.87 173.75 145.00 174.66 146.25 174.53 Z M 147.43 174.33 L 148.36 174.17 C 149.57 173.97 150.38 172.82 150.17 171.61 C 149.97 170.40 148.82 169.59 147.61 169.80 L 146.68 169.95 C 145.47 170.16 144.66 171.31 144.87 172.52 C 145.08 173.73 146.22 174.54 147.43 174.33 Z M 148.40 174.13 L 149.37 173.94 C 150.55 173.71 151.33 172.57 151.10 171.39 C 150.87 170.20 149.73 169.43 148.54 169.65 L 147.57 169.84 C 146.39 170.07 145.62 171.21 145.84 172.39 C 146.07 173.58 147.21 174.35 148.40 174.13 Z M 149.37 173.92 L 150.37 173.73 C 151.54 173.49 152.31 172.36 152.08 171.18 C 151.85 170.01 150.71 169.25 149.54 169.48 L 148.54 169.67 C 147.37 169.90 146.60 171.04 146.83 172.21 C 147.06 173.39 148.20 174.15 149.37 173.92 Z M 150.36 173.69 L 151.35 173.50 C 152.51 173.27 153.26 172.15 153.03 171.00 C 152.81 169.84 151.69 169.09 150.53 169.32 L 149.54 169.51 C 148.39 169.74 147.64 170.86 147.86 172.01 C 148.09 173.16 149.21 173.92 150.36 173.69 Z M 151.34 173.45 L 152.34 173.25 C 153.46 173.03 154.20 171.94 153.98 170.81 C 153.76 169.69 152.66 168.95 151.54 169.17 L 150.54 169.37 C 149.42 169.59 148.68 170.68 148.90 171.81 C 149.12 172.93 150.22 173.67 151.34 173.45 Z M 152.33 173.19 L 153.31 173.00 C 154.40 172.78 155.11 171.71 154.89 170.62 C 154.67 169.53 153.60 168.82 152.51 169.04 L 151.54 169.23 C 150.45 169.45 149.74 170.52 149.96 171.61 C 150.18 172.70 151.24 173.41 152.33 173.19 Z M 153.32 172.94 L 154.29 172.73 C 155.35 172.50 156.03 171.46 155.80 170.40 C 155.58 169.34 154.54 168.67 153.48 168.89 L 152.50 169.10 C 151.44 169.32 150.76 170.37 150.99 171.43 C 151.22 172.49 152.26 173.16 153.32 172.94 Z M 154.28 172.69 L 155.25 172.49 C 156.29 172.27 156.96 171.26 156.74 170.22 C 156.52 169.18 155.51 168.51 154.47 168.73 L 153.49 168.93 C 152.46 169.15 151.79 170.16 152.00 171.20 C 152.22 172.24 153.24 172.91 154.28 172.69 Z M 155.20 172.47 L 156.11 172.30 C 157.14 172.12 157.82 171.13 157.64 170.10 C 157.45 169.07 156.46 168.39 155.43 168.58 L 154.52 168.74 C 153.49 168.93 152.81 169.92 153.00 170.95 C 153.18 171.98 154.17 172.66 155.20 172.47 Z M 156.11 172.29 L 157.16 172.10 C 158.18 171.91 158.85 170.93 158.66 169.91 C 158.47 168.89 157.50 168.21 156.48 168.40 L 155.43 168.59 C 154.41 168.78 153.74 169.76 153.93 170.78 C 154.11 171.80 155.09 172.48 156.11 172.29 Z M 157.18 172.08 L 158.10 171.89 C 159.11 171.69 159.76 170.71 159.56 169.70 C 159.36 168.69 158.38 168.04 157.37 168.24 L 156.45 168.42 C 155.44 168.62 154.79 169.60 154.99 170.61 C 155.19 171.62 156.17 172.28 157.18 172.08 Z M 158.09 171.88 L 159.11 171.68 C 160.11 171.49 160.76 170.51 160.57 169.51 C 160.37 168.51 159.40 167.85 158.39 168.05 L 157.38 168.25 C 156.38 168.45 155.72 169.42 155.92 170.42 C 156.12 171.43 157.09 172.08 158.09 171.88 Z M 159.07 171.68 L 160.10 171.49 C 161.10 171.32 161.76 170.36 161.59 169.36 C 161.41 168.36 160.45 167.69 159.45 167.87 L 158.43 168.06 C 157.43 168.24 156.76 169.19 156.94 170.19 C 157.12 171.19 158.08 171.86 159.07 171.68 Z M 160.06 171.49 L 161.05 171.33 C 162.05 171.18 162.73 170.24 162.57 169.24 C 162.41 168.25 161.48 167.57 160.48 167.72 L 159.49 167.88 C 158.50 168.04 157.82 168.97 157.97 169.97 C 158.13 170.96 159.06 171.64 160.06 171.49 Z M 161.02 171.32 L 162.01 171.18 C 163.00 171.04 163.69 170.12 163.55 169.13 C 163.40 168.14 162.48 167.45 161.49 167.59 L 160.51 167.73 C 159.52 167.88 158.83 168.80 158.97 169.79 C 159.11 170.78 160.03 171.46 161.02 171.32 Z M 162.00 171.17 L 162.40 171.12 C 163.39 170.98 164.08 170.07 163.94 169.08 C 163.80 168.09 162.89 167.41 161.90 167.54 L 161.50 167.60 C 160.52 167.74 159.83 168.65 159.97 169.64 C 160.10 170.62 161.02 171.31 162.00 171.17 Z"
      fill="black"
      fill-rule="nonzero" /><path d="M 140.80 183.79 L 141.67 184.27 C 142.70 184.84 144.00 184.46 144.57 183.43 C 145.14 182.40 144.76 181.10 143.73 180.53 L 142.86 180.05 C 141.82 179.48 140.52 179.85 139.96 180.89 C 139.39 181.92 139.76 183.22 140.80 183.79 Z M 142.17 184.59 L 143.09 184.81 C 144.30 185.10 145.51 184.36 145.81 183.15 C 146.10 181.94 145.35 180.72 144.14 180.43 L 143.23 180.21 C 142.02 179.92 140.80 180.66 140.51 181.87 C 140.22 183.08 140.96 184.30 142.17 184.59 Z M 143.79 184.91 L 144.76 184.83 C 146.02 184.74 146.97 183.63 146.87 182.37 C 146.77 181.11 145.67 180.16 144.41 180.26 L 143.44 180.33 C 142.18 180.43 141.23 181.53 141.33 182.79 C 141.43 184.06 142.53 185.00 143.79 184.91 Z M 145.07 184.77 L 146.12 184.54 C 147.35 184.27 148.13 183.06 147.86 181.83 C 147.59 180.59 146.37 179.82 145.14 180.09 L 144.09 180.32 C 142.86 180.59 142.08 181.80 142.36 183.03 C 142.63 184.27 143.84 185.04 145.07 184.77 Z M 146.22 184.49 L 147.21 184.22 C 148.41 183.90 149.12 182.66 148.80 181.46 C 148.47 180.26 147.24 179.55 146.04 179.87 L 145.04 180.14 C 143.84 180.47 143.13 181.70 143.45 182.90 C 143.78 184.10 145.02 184.81 146.22 184.49 Z M 147.24 184.17 L 148.18 183.90 C 149.35 183.56 150.03 182.33 149.69 181.15 C 149.35 179.98 148.12 179.31 146.94 179.65 L 146.01 179.92 C 144.83 180.26 144.16 181.49 144.50 182.67 C 144.84 183.84 146.07 184.51 147.24 184.17 Z M 148.18 183.85 L 149.20 183.55 C 150.35 183.20 151.00 181.99 150.66 180.85 C 150.32 179.70 149.11 179.04 147.96 179.39 L 146.94 179.69 C 145.79 180.04 145.14 181.25 145.48 182.40 C 145.83 183.54 147.04 184.20 148.18 183.85 Z M 149.18 183.51 L 150.08 183.24 C 151.20 182.91 151.85 181.73 151.51 180.60 C 151.18 179.47 150.00 178.83 148.87 179.16 L 147.98 179.43 C 146.85 179.76 146.21 180.94 146.54 182.07 C 146.87 183.20 148.06 183.84 149.18 183.51 Z M 150.05 183.22 L 151.01 182.95 C 152.12 182.63 152.77 181.47 152.45 180.36 C 152.14 179.24 150.97 178.60 149.86 178.91 L 148.90 179.19 C 147.79 179.50 147.14 180.66 147.46 181.78 C 147.77 182.89 148.93 183.54 150.05 183.22 Z M 151.00 182.94 L 151.96 182.67 C 153.07 182.36 153.72 181.21 153.41 180.10 C 153.10 178.99 151.95 178.35 150.84 178.66 L 149.87 178.93 C 148.76 179.24 148.12 180.39 148.43 181.49 C 148.74 182.60 149.89 183.25 151.00 182.94 Z M 151.97 182.65 L 152.93 182.37 C 154.03 182.06 154.67 180.91 154.35 179.82 C 154.04 178.72 152.89 178.08 151.79 178.40 L 150.83 178.67 C 149.74 178.99 149.10 180.13 149.42 181.23 C 149.73 182.33 150.88 182.96 151.97 182.65 Z M 152.96 182.34 L 153.90 182.05 C 154.98 181.72 155.59 180.58 155.26 179.50 C 154.94 178.42 153.79 177.81 152.71 178.14 L 151.77 178.43 C 150.69 178.76 150.08 179.90 150.41 180.98 C 150.74 182.06 151.88 182.67 152.96 182.34 Z M 153.90 182.02 L 154.87 181.72 C 155.93 181.40 156.53 180.27 156.20 179.21 C 155.87 178.14 154.75 177.55 153.68 177.87 L 152.72 178.17 C 151.65 178.50 151.06 179.63 151.38 180.69 C 151.71 181.75 152.84 182.35 153.90 182.02 Z M 154.83 181.70 L 155.81 181.41 C 156.85 181.11 157.46 180.01 157.15 178.96 C 156.84 177.91 155.74 177.31 154.69 177.62 L 153.72 177.90 C 152.67 178.21 152.07 179.31 152.38 180.35 C 152.68 181.40 153.78 182.01 154.83 181.70 Z M 155.78 181.38 L 156.72 181.12 C 157.75 180.83 158.35 179.76 158.06 178.72 C 157.77 177.69 156.70 177.09 155.67 177.38 L 154.72 177.65 C 153.69 177.94 153.09 179.01 153.38 180.04 C 153.67 181.07 154.74 181.67 155.78 181.38 Z M 156.69 181.09 L 157.61 180.84 C 158.63 180.56 159.23 179.51 158.95 178.50 C 158.68 177.48 157.63 176.88 156.61 177.16 L 155.69 177.41 C 154.67 177.69 154.07 178.74 154.35 179.75 C 154.63 180.77 155.68 181.37 156.69 181.09 Z M 157.58 180.82 L 158.55 180.57 C 159.55 180.31 160.16 179.28 159.90 178.28 C 159.64 177.27 158.61 176.67 157.60 176.93 L 156.64 177.18 C 155.63 177.44 155.03 178.47 155.29 179.47 C 155.55 180.48 156.58 181.08 157.58 180.82 Z M 158.53 180.55 L 159.47 180.32 C 160.46 180.06 161.07 179.05 160.81 178.05 C 160.56 177.06 159.54 176.45 158.55 176.71 L 157.62 176.94 C 156.62 177.20 156.02 178.21 156.27 179.21 C 156.52 180.21 157.54 180.81 158.53 180.55 Z M 159.47 180.30 L 160.52 180.03 C 161.50 179.77 162.09 178.76 161.84 177.77 C 161.58 176.79 160.57 176.19 159.58 176.45 L 158.54 176.72 C 157.55 176.98 156.96 177.99 157.22 178.98 C 157.48 179.97 158.49 180.56 159.47 180.30 Z M 160.53 180.01 L 161.50 179.74 C 162.47 179.47 163.05 178.47 162.78 177.49 C 162.51 176.51 161.50 175.94 160.53 176.21 L 159.56 176.47 C 158.59 176.74 158.01 177.75 158.28 178.72 C 158.55 179.70 159.56 180.27 160.53 180.01 Z M 161.51 179.73 L 162.47 179.45 C 163.44 179.18 164.00 178.17 163.72 177.20 C 163.45 176.24 162.44 175.68 161.48 175.95 L 160.51 176.22 C 159.55 176.50 158.99 177.51 159.26 178.47 C 159.54 179.44 160.54 180.00 161.51 179.73 Z M 162.48 179.44 L 163.45 179.16 C 164.41 178.88 164.97 177.88 164.69 176.92 C 164.41 175.96 163.41 175.40 162.45 175.68 L 161.47 175.96 C 160.51 176.24 159.96 177.24 160.24 178.20 C 160.51 179.16 161.52 179.72 162.48 179.44 Z M 163.45 179.15 L 163.65 179.09 C 164.60 178.81 165.15 177.82 164.87 176.86 C 164.60 175.90 163.60 175.36 162.64 175.63 L 162.45 175.69 C 161.49 175.97 160.94 176.97 161.22 177.92 C 161.50 178.88 162.50 179.43 163.45 179.15 Z"
      fill="black"
      fill-rule="nonzero" /><path d="M 151.15 172.41 L 151.23 173.32 C 151.34 174.52 152.39 175.40 153.59 175.29 C 154.78 175.19 155.66 174.14 155.55 172.94 L 155.47 172.03 C 155.37 170.84 154.31 169.95 153.12 170.06 C 151.93 170.16 151.05 171.22 151.15 172.41 Z M 151.19 173.46 L 151.34 174.50 C 151.52 175.72 152.65 176.56 153.87 176.38 C 155.09 176.21 155.93 175.08 155.75 173.86 L 155.60 172.81 C 155.42 171.59 154.29 170.75 153.07 170.93 C 151.85 171.11 151.01 172.24 151.19 173.46 Z M 151.33 174.61 L 151.49 175.48 C 151.73 176.70 152.92 177.51 154.14 177.27 C 155.37 177.03 156.17 175.85 155.93 174.62 L 155.77 173.75 C 155.53 172.53 154.35 171.72 153.12 171.96 C 151.89 172.20 151.09 173.38 151.33 174.61 Z M 151.48 175.48 L 151.68 176.49 C 151.92 177.72 153.11 178.53 154.34 178.29 C 155.57 178.05 156.38 176.86 156.14 175.63 L 155.94 174.62 C 155.71 173.39 154.52 172.58 153.28 172.82 C 152.05 173.06 151.25 174.25 151.48 175.48 Z M 151.66 176.43 L 151.84 177.53 C 152.05 178.78 153.22 179.62 154.47 179.41 C 155.71 179.20 156.55 178.03 156.34 176.79 L 156.16 175.68 C 155.95 174.44 154.78 173.60 153.53 173.81 C 152.29 174.01 151.45 175.19 151.66 176.43 Z M 151.82 177.46 L 151.96 178.51 C 152.13 179.76 153.28 180.64 154.53 180.47 C 155.78 180.31 156.66 179.16 156.50 177.90 L 156.36 176.86 C 156.19 175.61 155.04 174.73 153.79 174.89 C 152.54 175.06 151.66 176.21 151.82 177.46 Z M 151.96 178.46 L 152.07 179.49 C 152.21 180.75 153.34 181.65 154.60 181.51 C 155.85 181.37 156.76 180.24 156.62 178.99 L 156.51 177.95 C 156.37 176.70 155.24 175.79 153.98 175.93 C 152.72 176.07 151.82 177.20 151.96 178.46 Z M 152.06 179.45 L 152.15 180.38 C 152.27 181.64 153.39 182.57 154.65 182.45 C 155.91 182.33 156.83 181.21 156.71 179.95 L 156.63 179.02 C 156.51 177.76 155.39 176.84 154.13 176.96 C 152.87 177.08 151.95 178.19 152.06 179.45 Z M 152.16 180.34 L 152.25 181.45 C 152.34 182.70 153.44 183.64 154.69 183.55 C 155.94 183.45 156.88 182.36 156.79 181.10 L 156.70 179.99 C 156.61 178.74 155.51 177.80 154.26 177.90 C 153.01 177.99 152.07 179.09 152.16 180.34 Z M 152.28 181.38 L 152.32 182.27 C 152.37 183.50 153.42 184.46 154.66 184.40 C 155.89 184.35 156.85 183.30 156.80 182.07 L 156.76 181.18 C 156.70 179.94 155.65 178.98 154.42 179.04 C 153.18 179.09 152.23 180.14 152.28 181.38 Z M 152.36 182.20 L 152.38 183.15 C 152.39 184.37 153.39 185.34 154.60 185.32 C 155.82 185.30 156.79 184.30 156.77 183.09 L 156.75 182.13 C 156.74 180.92 155.74 179.95 154.52 179.97 C 153.31 179.99 152.34 180.99 152.36 182.20 Z M 152.42 183.13 L 152.43 184.13 C 152.43 185.32 153.39 186.28 154.58 186.28 C 155.76 186.27 156.72 185.31 156.72 184.12 L 156.72 183.12 C 156.72 181.93 155.75 180.97 154.57 180.97 C 153.38 180.98 152.42 181.94 152.42 183.13 Z M 152.48 184.13 L 152.48 185.11 C 152.48 186.27 153.42 187.21 154.57 187.21 C 155.73 187.21 156.67 186.27 156.67 185.11 L 156.67 184.13 C 156.67 182.97 155.73 182.03 154.57 182.03 C 153.42 182.03 152.48 182.97 152.48 184.13 Z M 152.54 185.11 L 152.54 186.13 C 152.54 187.25 153.45 188.17 154.57 188.17 C 155.70 188.17 156.61 187.25 156.61 186.13 L 156.61 185.11 C 156.61 183.99 155.70 183.08 154.57 183.08 C 153.45 183.08 152.54 183.99 152.54 185.11 Z M 152.60 186.13 L 152.60 187.14 C 152.60 188.23 153.48 189.12 154.57 189.12 C 155.67 189.12 156.55 188.23 156.55 187.14 L 156.55 186.13 C 156.55 185.04 155.67 184.15 154.57 184.15 C 153.48 184.15 152.60 185.04 152.60 186.13 Z M 152.65 187.14 L 152.65 188.10 C 152.65 189.16 153.51 190.03 154.57 190.03 C 155.64 190.03 156.50 189.17 156.50 188.10 L 156.50 187.14 C 156.50 186.08 155.64 185.22 154.57 185.22 C 153.51 185.22 152.65 186.08 152.65 187.14 Z M 152.69 188.08 L 152.68 189.06 C 152.66 190.10 153.50 190.96 154.54 190.97 C 155.58 190.98 156.43 190.15 156.45 189.11 L 156.46 188.12 C 156.47 187.08 155.64 186.23 154.60 186.22 C 153.55 186.20 152.70 187.04 152.69 188.08 Z M 152.70 189.02 L 152.67 190.03 C 152.63 191.05 153.43 191.92 154.46 191.95 C 155.49 191.99 156.35 191.18 156.38 190.16 L 156.42 189.15 C 156.45 188.12 155.65 187.26 154.63 187.23 C 153.60 187.19 152.74 187.99 152.70 189.02 Z M 152.69 189.97 L 152.62 190.99 C 152.55 192.00 153.31 192.88 154.33 192.95 C 155.34 193.02 156.22 192.25 156.29 191.24 L 156.36 190.22 C 156.43 189.21 155.67 188.33 154.65 188.26 C 153.64 188.19 152.76 188.95 152.69 189.97 Z M 152.65 190.87 L 152.51 191.89 C 152.38 192.89 153.08 193.81 154.08 193.94 C 155.08 194.07 156.00 193.37 156.13 192.37 L 156.26 191.35 C 156.40 190.35 155.69 189.44 154.70 189.30 C 153.70 189.17 152.78 189.87 152.65 190.87 Z M 152.55 191.72 L 152.32 192.72 C 152.09 193.69 152.69 194.67 153.67 194.90 C 154.65 195.13 155.62 194.52 155.85 193.55 L 156.09 192.55 C 156.31 191.57 155.71 190.59 154.73 190.37 C 153.76 190.14 152.78 190.74 152.55 191.72 Z M 152.36 192.60 L 152.08 193.51 C 151.78 194.46 152.31 195.48 153.26 195.77 C 154.21 196.07 155.23 195.54 155.52 194.59 L 155.81 193.67 C 156.10 192.72 155.57 191.71 154.62 191.41 C 153.67 191.11 152.66 191.64 152.36 192.60 Z M 152.09 193.49 L 152.07 193.54 C 151.76 194.49 152.28 195.50 153.22 195.81 C 154.16 196.12 155.18 195.61 155.49 194.66 L 155.51 194.61 C 155.82 193.67 155.30 192.65 154.36 192.34 C 153.42 192.03 152.40 192.54 152.09 193.49 Z"
      fill="black"
      fill-rule="nonzero" /><path d="M 132.79 195.39 L 133.80 195.74 C 134.84 196.09 135.97 195.54 136.32 194.50 C 136.67 193.46 136.12 192.34 135.08 191.98 L 134.08 191.64 C 133.04 191.28 131.91 191.84 131.56 192.88 C 131.20 193.91 131.76 195.04 132.79 195.39 Z M 133.83 195.91 L 134.77 196.20 C 135.90 196.54 137.10 195.89 137.44 194.76 C 137.78 193.63 137.14 192.43 136.00 192.09 L 135.06 191.81 C 133.93 191.47 132.73 192.11 132.39 193.24 C 132.05 194.38 132.69 195.57 133.83 195.91 Z M 134.97 196.37 L 135.96 196.55 C 137.19 196.78 138.37 195.97 138.60 194.74 C 138.83 193.51 138.02 192.33 136.79 192.10 L 135.80 191.92 C 134.57 191.69 133.39 192.50 133.16 193.73 C 132.93 194.96 133.74 196.14 134.97 196.37 Z M 136.33 196.64 L 137.27 196.66 C 138.55 196.69 139.61 195.68 139.64 194.40 C 139.67 193.12 138.65 192.06 137.38 192.04 L 136.43 192.01 C 135.15 191.99 134.09 193.00 134.06 194.27 C 134.04 195.55 135.05 196.61 136.33 196.64 Z M 137.46 196.68 L 138.42 196.63 C 139.71 196.55 140.70 195.45 140.62 194.16 C 140.55 192.87 139.44 191.88 138.15 191.96 L 137.19 192.01 C 135.90 192.09 134.92 193.20 134.99 194.48 C 135.06 195.77 136.17 196.76 137.46 196.68 Z M 138.49 196.65 L 139.51 196.56 C 140.81 196.44 141.77 195.30 141.65 194.00 C 141.54 192.70 140.39 191.74 139.09 191.85 L 138.08 191.94 C 136.78 192.05 135.82 193.20 135.94 194.50 C 136.05 195.80 137.19 196.76 138.49 196.65 Z M 139.55 196.57 L 140.54 196.47 C 141.85 196.33 142.80 195.16 142.66 193.85 C 142.53 192.55 141.36 191.60 140.05 191.74 L 139.05 191.84 C 137.75 191.98 136.80 193.14 136.94 194.45 C 137.07 195.76 138.24 196.71 139.55 196.57 Z M 140.59 196.47 L 141.59 196.35 C 142.90 196.19 143.83 194.99 143.66 193.69 C 143.50 192.38 142.31 191.45 141.00 191.61 L 140.01 191.73 C 138.70 191.89 137.77 193.08 137.93 194.39 C 138.09 195.70 139.28 196.63 140.59 196.47 Z M 141.62 196.35 L 142.61 196.21 C 143.92 196.03 144.83 194.82 144.65 193.51 C 144.47 192.20 143.26 191.29 141.95 191.47 L 140.97 191.61 C 139.66 191.79 138.74 193.00 138.93 194.31 C 139.11 195.61 140.31 196.53 141.62 196.35 Z M 142.61 196.22 L 143.58 196.08 C 144.89 195.90 145.81 194.69 145.63 193.38 C 145.45 192.07 144.24 191.15 142.93 191.33 L 141.95 191.47 C 140.64 191.65 139.73 192.86 139.91 194.17 C 140.09 195.48 141.30 196.40 142.61 196.22 Z M 143.57 196.09 L 144.57 195.95 C 145.88 195.78 146.80 194.57 146.63 193.26 C 146.45 191.94 145.24 191.02 143.93 191.20 L 142.94 191.33 C 141.62 191.51 140.70 192.71 140.88 194.03 C 141.05 195.34 142.26 196.26 143.57 196.09 Z M 144.57 195.95 L 145.57 195.82 C 146.88 195.64 147.80 194.43 147.62 193.11 C 147.44 191.80 146.23 190.88 144.92 191.06 L 143.92 191.20 C 142.61 191.38 141.69 192.59 141.87 193.90 C 142.05 195.21 143.26 196.13 144.57 195.95 Z M 145.58 195.82 L 146.56 195.68 C 147.88 195.50 148.79 194.28 148.61 192.97 C 148.43 191.66 147.22 190.74 145.90 190.92 L 144.91 191.06 C 143.60 191.24 142.68 192.46 142.87 193.77 C 143.05 195.08 144.26 196.00 145.58 195.82 Z M 146.55 195.68 L 147.55 195.55 C 148.87 195.37 149.79 194.17 149.62 192.85 C 149.44 191.54 148.24 190.61 146.92 190.79 L 145.92 190.92 C 144.60 191.10 143.68 192.30 143.85 193.62 C 144.03 194.93 145.23 195.85 146.55 195.68 Z M 147.53 195.55 L 148.51 195.43 C 149.83 195.27 150.77 194.07 150.61 192.76 C 150.44 191.44 149.25 190.51 147.93 190.67 L 146.95 190.79 C 145.63 190.95 144.70 192.14 144.86 193.46 C 145.02 194.77 146.21 195.71 147.53 195.55 Z M 148.50 195.43 L 149.50 195.31 C 150.81 195.16 151.76 193.98 151.61 192.66 C 151.46 191.34 150.27 190.40 148.95 190.55 L 147.95 190.67 C 146.64 190.82 145.69 192.01 145.84 193.32 C 145.99 194.64 147.18 195.58 148.50 195.43 Z M 149.49 195.31 L 150.47 195.21 C 151.78 195.06 152.73 193.88 152.58 192.56 C 152.44 191.25 151.25 190.30 149.94 190.44 L 148.96 190.55 C 147.65 190.70 146.70 191.88 146.85 193.20 C 146.99 194.51 148.17 195.46 149.49 195.31 Z M 150.46 195.20 L 151.46 195.09 C 152.77 194.95 153.72 193.77 153.57 192.45 C 153.43 191.14 152.25 190.19 150.93 190.34 L 149.94 190.45 C 148.63 190.59 147.68 191.77 147.82 193.09 C 147.97 194.40 149.15 195.35 150.46 195.20 Z M 151.46 195.09 L 152.48 194.98 C 153.79 194.83 154.73 193.65 154.58 192.34 C 154.44 191.03 153.25 190.08 151.94 190.23 L 150.93 190.34 C 149.62 190.49 148.68 191.67 148.82 192.98 C 148.97 194.29 150.15 195.24 151.46 195.09 Z M 152.48 194.96 L 153.48 194.85 C 154.79 194.70 155.72 193.52 155.57 192.21 C 155.42 190.91 154.25 189.98 152.94 190.13 L 151.94 190.24 C 150.63 190.39 149.70 191.57 149.85 192.87 C 150.00 194.18 151.18 195.11 152.48 194.96 Z M 153.49 194.83 L 154.48 194.72 C 155.77 194.57 156.70 193.39 156.55 192.10 C 156.40 190.80 155.23 189.87 153.93 190.03 L 152.94 190.14 C 151.65 190.29 150.72 191.46 150.87 192.76 C 151.02 194.05 152.19 194.98 153.49 194.83 Z M 154.47 194.70 L 155.48 194.58 C 156.77 194.44 157.69 193.27 157.55 191.99 C 157.40 190.70 156.23 189.78 154.95 189.93 L 153.94 190.04 C 152.65 190.19 151.73 191.35 151.88 192.64 C 152.02 193.93 153.19 194.85 154.47 194.70 Z M 155.47 194.57 L 156.46 194.46 C 157.74 194.32 158.66 193.17 158.52 191.89 C 158.37 190.61 157.22 189.69 155.95 189.83 L 154.96 189.94 C 153.68 190.08 152.76 191.23 152.90 192.51 C 153.04 193.79 154.19 194.71 155.47 194.57 Z M 156.43 194.44 L 157.41 194.34 C 158.68 194.22 159.61 193.08 159.48 191.81 C 159.35 190.55 158.22 189.62 156.95 189.75 L 155.97 189.85 C 154.70 189.98 153.78 191.11 153.90 192.38 C 154.03 193.65 155.17 194.57 156.43 194.44 Z M 157.38 194.33 L 158.38 194.24 C 159.64 194.13 160.58 193.02 160.47 191.76 C 160.36 190.50 159.24 189.56 157.98 189.67 L 156.98 189.76 C 155.72 189.87 154.78 190.98 154.89 192.25 C 155.01 193.51 156.12 194.44 157.38 194.33 Z M 158.34 194.23 L 159.33 194.16 C 160.59 194.08 161.53 192.99 161.45 191.73 C 161.36 190.48 160.27 189.53 159.02 189.62 L 158.02 189.69 C 156.77 189.77 155.82 190.86 155.91 192.12 C 155.99 193.37 157.08 194.32 158.34 194.23 Z M 159.28 194.15 L 160.29 194.10 C 161.54 194.05 162.51 192.99 162.45 191.74 C 162.39 190.49 161.33 189.52 160.08 189.58 L 159.07 189.63 C 157.82 189.69 156.85 190.75 156.91 192.00 C 156.97 193.25 158.03 194.21 159.28 194.15 Z M 160.26 194.09 L 161.25 194.06 C 162.49 194.02 163.47 192.98 163.43 191.74 C 163.39 190.50 162.35 189.52 161.10 189.56 L 160.11 189.59 C 158.87 189.63 157.90 190.67 157.94 191.92 C 157.98 193.16 159.02 194.13 160.26 194.09 Z M 161.24 194.05 L 162.25 194.02 C 163.48 193.98 164.45 192.95 164.42 191.72 C 164.38 190.49 163.35 189.51 162.12 189.55 L 161.11 189.58 C 159.88 189.61 158.91 190.64 158.94 191.87 C 158.98 193.11 160.01 194.08 161.24 194.05 Z M 162.24 194.01 L 163.24 193.98 C 164.46 193.95 165.43 192.93 165.40 191.70 C 165.38 190.48 164.36 189.50 163.13 189.53 L 162.13 189.56 C 160.90 189.59 159.93 190.61 159.96 191.84 C 159.99 193.06 161.01 194.04 162.24 194.01 Z M 163.21 193.97 L 164.21 193.96 C 165.43 193.94 166.40 192.93 166.39 191.71 C 166.37 190.49 165.36 189.51 164.14 189.53 L 163.15 189.54 C 161.93 189.56 160.95 190.57 160.97 191.79 C 160.98 193.01 161.99 193.99 163.21 193.97 Z M 164.18 193.95 L 165.18 193.94 C 166.40 193.94 167.38 192.95 167.37 191.73 C 167.37 190.51 166.38 189.53 165.16 189.54 L 164.16 189.54 C 162.95 189.55 161.96 190.54 161.97 191.75 C 161.97 192.97 162.97 193.95 164.18 193.95 Z M 165.17 193.93 L 166.19 193.93 C 167.40 193.93 168.38 192.95 168.38 191.74 C 168.38 190.53 167.39 189.55 166.19 189.55 L 165.17 189.55 C 163.96 189.55 162.98 190.53 162.98 191.74 C 162.98 192.95 163.96 193.93 165.17 193.93 Z M 166.19 193.90 L 167.20 193.90 C 168.40 193.90 169.37 192.94 169.37 191.74 C 169.37 190.54 168.40 189.57 167.20 189.57 L 166.19 189.57 C 164.99 189.57 164.02 190.54 164.02 191.74 C 164.02 192.94 164.99 193.90 166.19 193.90 Z M 167.20 193.88 L 168.16 193.88 C 169.34 193.88 170.29 192.92 170.29 191.74 C 170.29 190.56 169.34 189.60 168.16 189.60 L 167.20 189.60 C 166.02 189.60 165.07 190.56 165.07 191.74 C 165.07 192.92 166.02 193.88 167.20 193.88 Z M 168.16 193.85 L 169.12 193.85 C 170.28 193.85 171.22 192.90 171.22 191.74 C 171.22 190.58 170.28 189.63 169.12 189.63 L 168.16 189.63 C 166.99 189.63 166.05 190.58 166.05 191.74 C 166.05 192.90 166.99 193.85 168.16 193.85 Z M 169.12 193.82 L 170.07 193.82 C 171.22 193.82 172.16 192.89 172.16 191.74 C 172.16 190.59 171.23 189.66 170.07 189.66 L 169.12 189.65 C 167.97 189.65 167.03 190.59 167.03 191.74 C 167.03 192.89 167.96 193.82 169.12 193.82 Z M 170.04 193.81 L 170.98 193.83 C 172.12 193.84 173.06 192.93 173.08 191.78 C 173.10 190.64 172.18 189.70 171.04 189.68 L 170.10 189.67 C 168.96 189.65 168.02 190.57 168.00 191.71 C 167.98 192.85 168.90 193.80 170.04 193.81 Z M 170.91 193.82 L 172.00 193.87 C 173.14 193.92 174.11 193.04 174.16 191.90 C 174.21 190.76 173.33 189.79 172.19 189.74 L 171.10 189.69 C 169.96 189.64 168.99 190.52 168.94 191.66 C 168.89 192.80 169.77 193.77 170.91 193.82 Z M 171.92 193.85 L 173.00 193.95 C 174.13 194.04 175.13 193.20 175.23 192.07 C 175.32 190.94 174.48 189.94 173.35 189.84 L 172.27 189.75 C 171.14 189.65 170.14 190.49 170.04 191.63 C 169.95 192.76 170.79 193.76 171.92 193.85 Z M 172.93 193.93 L 173.97 194.05 C 175.09 194.19 176.11 193.39 176.25 192.27 C 176.38 191.14 175.58 190.12 174.46 189.99 L 173.42 189.86 C 172.30 189.73 171.28 190.53 171.14 191.65 C 171.01 192.77 171.81 193.79 172.93 193.93 Z M 173.91 194.03 L 174.92 194.18 C 176.03 194.35 177.07 193.59 177.23 192.48 C 177.40 191.37 176.64 190.33 175.53 190.16 L 174.52 190.01 C 173.41 189.84 172.38 190.60 172.21 191.71 C 172.04 192.82 172.80 193.86 173.91 194.03 Z M 174.85 194.16 L 175.76 194.33 C 176.86 194.54 177.91 193.82 178.12 192.73 C 178.33 191.63 177.61 190.57 176.52 190.37 L 175.60 190.19 C 174.51 189.98 173.45 190.70 173.24 191.80 C 173.03 192.89 173.75 193.95 174.85 194.16 Z M 175.64 194.28 L 176.73 194.57 C 177.80 194.84 178.89 194.20 179.17 193.13 C 179.45 192.06 178.80 190.97 177.73 190.69 L 176.64 190.41 C 175.57 190.14 174.48 190.78 174.20 191.85 C 173.93 192.92 174.57 194.01 175.64 194.28 Z M 176.59 194.50 L 177.44 194.79 C 178.47 195.14 179.60 194.59 179.95 193.56 C 180.30 192.53 179.75 191.41 178.72 191.05 L 177.87 190.76 C 176.84 190.41 175.72 190.96 175.36 191.99 C 175.01 193.02 175.56 194.15 176.59 194.50 Z M 177.40 194.76 L 177.59 194.83 C 178.60 195.20 179.73 194.69 180.11 193.67 C 180.48 192.66 179.97 191.53 178.95 191.15 L 178.76 191.08 C 177.75 190.71 176.62 191.22 176.24 192.24 C 175.87 193.25 176.39 194.38 177.40 194.76 Z"
      fill="black"
      fill-rule="nonzero" /></svg>