<svg xmlns="http://www.w3.org/2000/svg" width="300" height="300" viewBox="0 0 300 300">
<path d="M 135.21 130.32 L 135.87 129.69 C 136.64 128.96 136.67 127.75 135.94 126.98 C 135.21 126.21 134.00 126.18 133.23 126.91 L 132.56 127.54 C 131.80 128.27 131.77 129.49 132.50 130.25 C 133.23 131.02 134.44 131.05 135.21 130.32 Z M 135.89 129.72 L 136.71 128.95 C 137.50 128.21 137.53 126.98 136.79 126.19 C 136.05 125.40 134.82 125.36 134.03 126.10 L 133.21 126.88 C 132.42 127.62 132.38 128.85 133.13 129.64 C 133.87 130.43 135.10 130.46 135.89 129.72 Z M 136.69 129.03 L 137.55 128.28 C 138.38 127.55 138.46 126.28 137.73 125.46 C 137.00 124.63 135.74 124.54 134.91 125.27 L 134.05 126.03 C 133.22 126.76 133.14 128.02 133.87 128.85 C 134.60 129.68 135.86 129.76 136.69 129.03 Z M 136.94 128.68 L 137.44 128.49 C 138.49 128.10 139.03 126.93 138.64 125.88 C 138.25 124.82 137.08 124.29 136.02 124.68 L 135.52 124.87 C 134.47 125.26 133.93 126.43 134.32 127.48 C 134.71 128.54 135.89 129.07 136.94 128.68 Z M 134.79 125.94 L 134.44 127.00 C 134.08 128.07 134.66 129.23 135.74 129.59 C 136.81 129.94 137.97 129.36 138.33 128.29 L 138.68 127.23 C 139.03 126.16 138.45 125.00 137.38 124.64 C 136.30 124.29 135.14 124.87 134.79 125.94 Z M 134.54 126.75 L 134.12 127.61 C 133.63 128.63 134.06 129.85 135.08 130.34 C 136.09 130.84 137.32 130.41 137.81 129.39 L 138.23 128.54 C 138.72 127.52 138.29 126.29 137.27 125.80 C 136.25 125.31 135.03 125.73 134.54 126.75 Z M 134.15 127.56 L 133.67 128.48 C 133.15 129.49 133.55 130.72 134.55 131.24 C 135.56 131.76 136.80 131.36 137.31 130.36 L 137.79 129.44 C 138.31 128.43 137.91 127.20 136.91 126.68 C 135.90 126.16 134.67 126.56 134.15 127.56 Z M 133.69 128.45 L 133.21 129.34 C 132.68 130.34 133.05 131.58 134.05 132.11 C 135.04 132.65 136.28 132.27 136.82 131.28 L 137.30 130.39 C 137.83 129.39 137.46 128.15 136.46 127.62 C 135.46 127.08 134.22 127.46 133.69 128.45 Z M 133.23 129.32 L 132.77 130.15 C 132.22 131.14 132.57 132.38 133.56 132.93 C 134.54 133.48 135.78 133.12 136.33 132.14 L 136.80 131.30 C 137.35 130.32 136.99 129.08 136.01 128.53 C 135.02 127.98 133.78 128.34 133.23 129.32 Z M 132.80 130.12 L 132.29 130.99 C 131.72 131.96 132.05 133.21 133.02 133.77 C 133.99 134.34 135.23 134.01 135.79 133.04 L 136.30 132.17 C 136.87 131.20 136.54 129.96 135.58 129.39 C 134.61 128.83 133.36 129.15 132.80 130.12 Z M 132.31 130.96 L 131.78 131.83 C 131.20 132.79 131.50 134.03 132.46 134.61 C 133.41 135.20 134.66 134.89 135.24 133.94 L 135.77 133.07 C 136.35 132.12 136.05 130.87 135.09 130.29 C 134.14 129.71 132.90 130.01 132.31 130.96 Z M 131.80 131.82 L 131.27 132.67 C 130.67 133.61 130.96 134.86 131.90 135.45 C 132.84 136.04 134.09 135.76 134.68 134.82 L 135.22 133.96 C 135.81 133.02 135.53 131.77 134.58 131.18 C 133.64 130.59 132.40 130.87 131.80 131.82 Z M 131.28 132.66 L 130.73 133.52 C 130.13 134.45 130.39 135.70 131.33 136.30 C 132.26 136.90 133.50 136.63 134.10 135.70 L 134.66 134.83 C 135.26 133.90 134.99 132.66 134.06 132.06 C 133.13 131.46 131.88 131.72 131.28 132.66 Z M 130.75 133.51 L 130.19 134.34 C 129.58 135.26 129.84 136.50 130.76 137.11 C 131.68 137.72 132.92 137.47 133.53 136.55 L 134.08 135.71 C 134.69 134.79 134.44 133.55 133.52 132.94 C 132.60 132.33 131.36 132.59 130.75 133.51 Z M 130.23 134.32 L 129.63 135.20 C 129.01 136.10 129.24 137.33 130.14 137.95 C 131.04 138.57 132.28 138.34 132.90 137.44 L 133.50 136.57 C 134.11 135.66 133.88 134.43 132.98 133.81 C 132.08 133.19 130.85 133.42 130.23 134.32 Z M 129.68 135.18 L 129.11 135.97 C 128.49 136.85 128.69 138.07 129.57 138.69 C 130.44 139.32 131.66 139.12 132.29 138.24 L 132.85 137.45 C 133.48 136.58 133.27 135.36 132.40 134.73 C 131.52 134.10 130.30 134.31 129.68 135.18 Z M 129.15 135.96 L 128.59 136.73 C 127.95 137.58 128.13 138.79 128.99 139.42 C 129.84 140.05 131.05 139.87 131.68 139.02 L 132.25 138.25 C 132.88 137.39 132.70 136.19 131.84 135.56 C 130.99 134.93 129.78 135.11 129.15 135.96 Z M 128.61 136.72 L 128.01 137.51 C 127.37 138.35 127.54 139.55 128.38 140.19 C 129.22 140.83 130.42 140.66 131.06 139.82 L 131.66 139.02 C 132.30 138.18 132.13 136.98 131.29 136.35 C 130.44 135.71 129.25 135.88 128.61 136.72 Z M 128.02 137.50 L 127.41 138.30 C 126.77 139.14 126.92 140.33 127.76 140.98 C 128.59 141.62 129.79 141.46 130.43 140.63 L 131.05 139.83 C 131.69 138.99 131.53 137.79 130.70 137.15 C 129.86 136.51 128.66 136.67 128.02 137.50 Z M 127.42 138.29 L 126.78 139.10 C 126.14 139.94 126.29 141.13 127.12 141.78 C 127.95 142.43 129.15 142.28 129.80 141.44 L 130.43 140.63 C 131.07 139.80 130.92 138.60 130.09 137.96 C 129.26 137.31 128.06 137.46 127.42 138.29 Z M 126.79 139.10 L 126.16 139.90 C 125.51 140.73 125.65 141.93 126.48 142.58 C 127.31 143.23 128.51 143.09 129.16 142.26 L 129.79 141.45 C 130.44 140.62 130.30 139.42 129.47 138.77 C 128.64 138.12 127.44 138.27 126.79 139.10 Z M 126.16 139.89 L 125.56 140.65 C 124.91 141.47 125.04 142.67 125.87 143.33 C 126.69 143.99 127.89 143.85 128.55 143.03 L 129.15 142.27 C 129.81 141.44 129.67 140.24 128.85 139.59 C 128.02 138.93 126.82 139.07 126.16 139.89 Z M 125.57 140.64 L 124.90 141.46 C 124.24 142.28 124.37 143.48 125.19 144.15 C 126.01 144.81 127.21 144.68 127.88 143.86 L 128.54 143.04 C 129.21 142.22 129.08 141.01 128.26 140.35 C 127.44 139.69 126.23 139.81 125.57 140.64 Z M 124.89 141.47 L 124.29 142.22 C 123.64 143.05 123.78 144.26 124.61 144.91 C 125.43 145.57 126.64 145.43 127.30 144.60 L 127.89 143.85 C 128.55 143.02 128.41 141.82 127.58 141.16 C 126.75 140.50 125.55 140.64 124.89 141.47 Z M 124.19 142.36 L 123.58 143.30 C 123.00 144.18 123.24 145.37 124.13 145.95 C 125.01 146.53 126.20 146.29 126.78 145.40 L 127.40 144.46 C 127.98 143.58 127.73 142.39 126.85 141.81 C 125.96 141.23 124.77 141.48 124.19 142.36 Z M 123.76 145.63 L 124.04 145.95 C 124.75 146.74 125.96 146.80 126.75 146.09 C 127.53 145.38 127.60 144.17 126.89 143.39 L 126.60 143.07 C 125.89 142.28 124.68 142.22 123.90 142.93 C 123.11 143.64 123.05 144.85 123.76 145.63 Z M 125.96 146.52 L 126.94 146.26 C 127.96 145.99 128.57 144.94 128.30 143.91 C 128.03 142.89 126.98 142.28 125.95 142.56 L 124.97 142.82 C 123.95 143.09 123.34 144.14 123.61 145.16 C 123.89 146.18 124.93 146.79 125.96 146.52 Z M 127.14 146.19 L 128.23 145.77 C 129.21 145.38 129.70 144.27 129.32 143.29 C 128.93 142.30 127.82 141.81 126.84 142.20 L 125.75 142.62 C 124.76 143.01 124.28 144.12 124.66 145.10 C 125.05 146.09 126.16 146.58 127.14 146.19 Z M 128.29 145.74 L 129.21 145.35 C 130.18 144.93 130.63 143.80 130.21 142.83 C 129.79 141.86 128.67 141.41 127.69 141.83 L 126.77 142.22 C 125.80 142.64 125.35 143.77 125.77 144.74 C 126.19 145.71 127.32 146.16 128.29 145.74 Z M 129.23 145.34 L 130.17 144.92 C 131.14 144.49 131.57 143.36 131.14 142.39 C 130.71 141.43 129.58 140.99 128.62 141.42 L 127.67 141.84 C 126.71 142.27 126.27 143.40 126.70 144.37 C 127.13 145.33 128.26 145.77 129.23 145.34 Z M 130.17 144.92 L 131.11 144.50 C 132.07 144.07 132.51 142.94 132.08 141.98 C 131.65 141.01 130.52 140.58 129.55 141.01 L 128.62 141.42 C 127.65 141.85 127.22 142.98 127.65 143.95 C 128.07 144.91 129.20 145.35 130.17 144.92 Z M 131.09 144.50 L 132.04 144.09 C 133.00 143.67 133.44 142.55 133.02 141.58 C 132.60 140.62 131.48 140.17 130.51 140.59 L 129.57 141.01 C 128.60 141.43 128.16 142.55 128.58 143.51 C 129.00 144.48 130.12 144.92 131.09 144.50 Z M 132.02 144.09 L 132.91 143.71 C 133.88 143.30 134.33 142.18 133.92 141.22 C 133.51 140.25 132.39 139.80 131.43 140.21 L 130.53 140.60 C 129.57 141.01 129.12 142.12 129.53 143.09 C 129.94 144.05 131.05 144.50 132.02 144.09 Z M 132.90 143.70 L 133.81 143.32 C 134.77 142.92 135.22 141.81 134.82 140.85 C 134.41 139.89 133.31 139.43 132.34 139.84 L 131.44 140.22 C 130.48 140.62 130.02 141.73 130.43 142.69 C 130.83 143.66 131.94 144.11 132.90 143.70 Z M 133.79 143.33 L 134.74 142.94 C 135.70 142.54 136.16 141.44 135.76 140.47 C 135.36 139.51 134.26 139.05 133.30 139.45 L 132.36 139.83 C 131.39 140.23 130.93 141.34 131.33 142.30 C 131.73 143.26 132.83 143.72 133.79 143.33 Z M 134.71 142.95 L 135.63 142.59 C 136.60 142.20 137.07 141.10 136.69 140.13 C 136.31 139.16 135.21 138.69 134.24 139.07 L 133.32 139.44 C 132.35 139.82 131.88 140.92 132.26 141.89 C 132.64 142.86 133.74 143.33 134.71 142.95 Z M 135.59 142.60 L 136.56 142.24 C 137.54 141.88 138.04 140.80 137.68 139.82 C 137.32 138.84 136.23 138.34 135.25 138.70 L 134.28 139.06 C 133.30 139.42 132.80 140.50 133.16 141.48 C 133.52 142.46 134.61 142.96 135.59 142.60 Z M 136.50 142.26 L 137.45 141.95 C 138.44 141.61 138.97 140.55 138.64 139.56 C 138.31 138.57 137.24 138.04 136.25 138.37 L 135.31 138.68 C 134.32 139.01 133.79 140.08 134.12 141.07 C 134.45 142.06 135.52 142.59 136.50 142.26 Z M 137.39 141.96 L 138.34 141.68 C 139.33 141.38 139.90 140.32 139.60 139.33 C 139.30 138.33 138.24 137.77 137.25 138.07 L 136.30 138.35 C 135.31 138.65 134.74 139.70 135.04 140.70 C 135.34 141.70 136.40 142.26 137.39 141.96 Z M 138.25 141.70 L 139.22 141.46 C 140.23 141.21 140.84 140.19 140.59 139.18 C 140.34 138.17 139.32 137.55 138.31 137.80 L 137.34 138.04 C 136.33 138.29 135.71 139.32 135.96 140.33 C 136.21 141.34 137.24 141.95 138.25 141.70 Z M 139.00 141.51 L 140.06 141.38 C 141.10 141.24 141.83 140.30 141.70 139.26 C 141.57 138.22 140.62 137.49 139.59 137.62 L 138.52 137.75 C 137.49 137.88 136.75 138.83 136.88 139.87 C 137.01 140.91 137.96 141.64 139.00 141.51 Z M 139.05 141.26 L 139.76 141.57 C 140.73 142.00 141.86 141.56 142.29 140.59 C 142.72 139.61 142.28 138.48 141.31 138.05 L 140.60 137.74 C 139.63 137.31 138.49 137.75 138.06 138.72 C 137.64 139.69 138.08 140.83 139.05 141.26 Z M 138.62 139.44 L 138.45 140.33 C 138.25 141.39 138.94 142.41 140.00 142.61 C 141.05 142.81 142.08 142.12 142.28 141.06 L 142.45 140.18 C 142.65 139.12 141.96 138.10 140.90 137.90 C 139.84 137.69 138.82 138.39 138.62 139.44 Z M 138.68 139.69 L 138.11 140.65 C 137.56 141.58 137.86 142.78 138.79 143.33 C 139.72 143.89 140.92 143.58 141.47 142.66 L 142.04 141.70 C 142.60 140.77 142.29 139.57 141.37 139.02 C 140.44 138.46 139.24 138.76 138.68 139.69 Z M 138.24 140.46 L 137.61 141.27 C 136.95 142.13 137.11 143.36 137.97 144.02 C 138.83 144.68 140.06 144.52 140.72 143.66 L 141.34 142.85 C 142.01 141.99 141.85 140.76 140.99 140.10 C 140.13 139.44 138.90 139.60 138.24 140.46 Z M 137.67 141.20 L 137.01 141.98 C 136.31 142.81 136.42 144.04 137.24 144.74 C 138.07 145.44 139.31 145.34 140.00 144.51 L 140.66 143.73 C 141.36 142.90 141.26 141.67 140.43 140.97 C 139.60 140.27 138.37 140.37 137.67 141.20 Z M 137.04 141.95 L 136.38 142.69 C 135.66 143.50 135.74 144.74 136.55 145.46 C 137.36 146.18 138.60 146.10 139.32 145.29 L 139.98 144.54 C 140.69 143.73 140.62 142.49 139.81 141.78 C 138.99 141.06 137.76 141.14 137.04 141.95 Z M 136.42 142.64 L 135.77 143.34 C 135.02 144.13 135.06 145.37 135.85 146.11 C 136.63 146.85 137.88 146.82 138.62 146.03 L 139.27 145.34 C 140.02 144.55 139.98 143.31 139.19 142.56 C 138.41 141.82 137.17 141.86 136.42 142.64 Z M 135.80 143.30 L 135.09 144.02 C 134.33 144.79 134.33 146.03 135.10 146.80 C 135.88 147.56 137.12 147.55 137.88 146.78 L 138.59 146.07 C 139.35 145.29 139.35 144.05 138.57 143.29 C 137.80 142.52 136.56 142.53 135.80 143.30 Z M 135.09 144.01 L 134.39 144.72 C 133.62 145.49 133.62 146.74 134.39 147.50 C 135.16 148.27 136.41 148.27 137.18 147.50 L 137.88 146.79 C 138.65 146.02 138.65 144.77 137.88 144.00 C 137.10 143.24 135.86 143.24 135.09 144.01 Z M 134.38 144.71 L 133.68 145.42 C 132.91 146.20 132.91 147.45 133.68 148.22 C 134.45 148.99 135.70 148.98 136.47 148.21 L 137.18 147.50 C 137.95 146.73 137.95 145.48 137.18 144.71 C 136.40 143.94 135.15 143.94 134.38 144.71 Z M 133.68 145.42 L 132.98 146.12 C 132.21 146.89 132.21 148.14 132.98 148.91 C 133.75 149.68 135.00 149.68 135.77 148.91 L 136.47 148.21 C 137.24 147.44 137.24 146.19 136.47 145.42 C 135.70 144.65 134.45 144.65 133.68 145.42 Z M 132.97 146.13 L 132.25 146.86 C 131.49 147.63 131.50 148.88 132.28 149.65 C 133.06 150.41 134.31 150.40 135.07 149.63 L 135.78 148.90 C 136.55 148.12 136.54 146.87 135.76 146.11 C 134.98 145.34 133.73 145.35 132.97 146.13 Z M 132.24 146.87 L 131.54 147.60 C 130.78 148.38 130.80 149.63 131.59 150.39 C 132.37 151.15 133.62 151.13 134.38 150.34 L 135.08 149.61 C 135.84 148.83 135.82 147.58 135.03 146.82 C 134.25 146.06 133.00 146.09 132.24 146.87 Z M 131.54 147.60 L 130.84 148.32 C 130.08 149.10 130.10 150.35 130.88 151.11 C 131.66 151.87 132.91 151.85 133.67 151.07 L 134.37 150.34 C 135.13 149.56 135.12 148.31 134.33 147.55 C 133.55 146.80 132.30 146.81 131.54 147.60 Z M 130.86 148.30 L 130.16 149.00 C 129.39 149.77 129.39 151.02 130.16 151.79 C 130.93 152.56 132.18 152.56 132.95 151.79 L 133.65 151.09 C 134.42 150.32 134.42 149.07 133.65 148.30 C 132.88 147.53 131.63 147.53 130.86 148.30 Z M 130.19 148.98 L 129.52 149.61 C 128.74 150.37 128.72 151.62 129.48 152.40 C 130.23 153.19 131.48 153.21 132.27 152.45 L 132.93 151.81 C 133.71 151.05 133.73 149.81 132.98 149.02 C 132.22 148.24 130.97 148.22 130.19 148.98 Z M 129.53 149.61 L 128.76 150.34 C 127.98 151.09 127.95 152.34 128.70 153.13 C 129.45 153.92 130.70 153.95 131.49 153.19 L 132.26 152.46 C 133.05 151.71 133.08 150.46 132.32 149.67 C 131.57 148.88 130.32 148.85 129.53 149.61 Z M 128.76 150.34 L 128.08 151.00 C 127.29 151.75 127.27 153.00 128.02 153.79 C 128.78 154.57 130.02 154.60 130.81 153.85 L 131.49 153.19 C 132.28 152.44 132.30 151.19 131.55 150.40 C 130.80 149.61 129.55 149.59 128.76 150.34 Z M 128.08 151.00 L 127.33 151.71 C 126.54 152.47 126.52 153.72 127.27 154.50 C 128.03 155.29 129.28 155.32 130.06 154.56 L 130.81 153.85 C 131.60 153.09 131.63 151.84 130.87 151.05 C 130.12 150.27 128.87 150.24 128.08 151.00 Z M 127.33 151.70 L 126.57 152.43 C 125.77 153.19 125.74 154.44 126.50 155.23 C 127.25 156.02 128.50 156.05 129.29 155.30 L 130.06 154.57 C 130.85 153.82 130.88 152.57 130.13 151.77 C 129.38 150.98 128.13 150.95 127.33 151.70 Z M 126.55 152.44 L 125.82 153.15 C 125.03 153.91 125.01 155.17 125.77 155.96 C 126.53 156.75 127.79 156.77 128.58 156.00 L 129.31 155.30 C 130.10 154.53 130.12 153.28 129.36 152.49 C 128.59 151.70 127.34 151.68 126.55 152.44 Z M 125.74 153.21 L 125.07 153.92 C 124.31 154.72 124.35 155.99 125.15 156.74 C 125.95 157.50 127.22 157.46 127.97 156.66 L 128.65 155.95 C 129.41 155.14 129.37 153.88 128.57 153.12 C 127.76 152.37 126.50 152.40 125.74 153.21 Z M 124.81 154.25 L 124.26 155.15 C 123.68 156.09 123.98 157.33 124.93 157.91 C 125.87 158.48 127.11 158.18 127.68 157.24 L 128.23 156.34 C 128.81 155.39 128.51 154.16 127.57 153.58 C 126.62 153.00 125.39 153.30 124.81 154.25 Z M 124.48 157.54 L 124.90 158.01 C 125.64 158.84 126.92 158.91 127.74 158.16 C 128.57 157.42 128.64 156.14 127.89 155.32 L 127.47 154.85 C 126.72 154.02 125.45 153.95 124.62 154.70 C 123.80 155.44 123.73 156.72 124.48 157.54 Z M 126.19 158.67 L 127.24 158.78 C 128.35 158.89 129.34 158.08 129.45 156.97 C 129.57 155.87 128.76 154.88 127.65 154.76 L 126.60 154.66 C 125.49 154.55 124.50 155.35 124.39 156.46 C 124.28 157.57 125.08 158.56 126.19 158.67 Z M 127.62 158.78 L 128.72 158.69 C 129.83 158.59 130.65 157.61 130.56 156.50 C 130.46 155.39 129.48 154.57 128.37 154.66 L 127.27 154.76 C 126.16 154.86 125.34 155.83 125.43 156.95 C 125.53 158.06 126.51 158.88 127.62 158.78 Z M 128.96 158.65 L 129.93 158.45 C 131.03 158.22 131.72 157.14 131.49 156.05 C 131.26 154.96 130.19 154.26 129.10 154.49 L 128.13 154.70 C 127.04 154.93 126.34 156.00 126.57 157.09 C 126.80 158.19 127.87 158.88 128.96 158.65 Z M 130.05 158.42 L 130.97 158.16 C 132.05 157.87 132.68 156.76 132.38 155.68 C 132.09 154.61 130.97 153.98 129.90 154.27 L 128.98 154.52 C 127.90 154.82 127.27 155.93 127.57 157.01 C 127.86 158.08 128.98 158.71 130.05 158.42 Z M 130.99 158.15 L 131.90 157.89 C 132.97 157.59 133.59 156.47 133.28 155.40 C 132.97 154.33 131.86 153.72 130.79 154.02 L 129.88 154.28 C 128.81 154.59 128.19 155.70 128.50 156.77 C 128.81 157.84 129.92 158.46 130.99 158.15 Z M 131.88 157.89 L 132.91 157.60 C 133.98 157.30 134.60 156.20 134.31 155.13 C 134.01 154.06 132.90 153.44 131.84 153.74 L 130.80 154.03 C 129.74 154.32 129.11 155.43 129.41 156.50 C 129.71 157.56 130.82 158.19 131.88 157.89 Z M 132.89 157.60 L 133.86 157.34 C 134.92 157.06 135.56 155.97 135.28 154.90 C 134.99 153.84 133.90 153.20 132.83 153.48 L 131.86 153.74 C 130.80 154.02 130.16 155.12 130.44 156.18 C 130.73 157.25 131.82 157.88 132.89 157.60 Z M 133.83 157.34 L 134.83 157.09 C 135.89 156.82 136.54 155.74 136.27 154.68 C 136.00 153.61 134.92 152.97 133.86 153.23 L 132.86 153.49 C 131.79 153.75 131.15 154.83 131.42 155.90 C 131.69 156.96 132.77 157.61 133.83 157.34 Z M 134.80 157.09 L 135.77 156.86 C 136.84 156.60 137.49 155.54 137.24 154.47 C 136.99 153.41 135.92 152.75 134.86 153.01 L 133.89 153.24 C 132.82 153.49 132.17 154.56 132.42 155.62 C 132.67 156.68 133.74 157.34 134.80 157.09 Z M 135.73 156.85 L 136.80 156.62 C 137.86 156.40 138.54 155.35 138.31 154.28 C 138.08 153.22 137.04 152.55 135.97 152.77 L 134.90 153.01 C 133.84 153.23 133.16 154.28 133.39 155.34 C 133.62 156.41 134.67 157.08 135.73 156.85 Z M 136.73 156.63 L 137.68 156.46 C 138.75 156.27 139.46 155.25 139.27 154.19 C 139.08 153.12 138.06 152.41 137.00 152.60 L 136.05 152.77 C 134.98 152.96 134.27 153.98 134.46 155.04 C 134.65 156.11 135.66 156.82 136.73 156.63 Z M 137.58 156.47 L 138.53 156.35 C 139.60 156.22 140.36 155.25 140.23 154.18 C 140.10 153.11 139.13 152.35 138.06 152.48 L 137.11 152.59 C 136.04 152.72 135.28 153.70 135.41 154.76 C 135.54 155.83 136.51 156.60 137.58 156.47 Z M 138.38 156.36 L 139.36 156.32 C 140.43 156.27 141.27 155.36 141.22 154.29 C 141.17 153.21 140.26 152.38 139.19 152.43 L 138.21 152.47 C 137.13 152.52 136.30 153.43 136.35 154.50 C 136.39 155.57 137.30 156.41 138.38 156.36 Z M 139.11 156.31 L 140.12 156.40 C 141.19 156.48 142.13 155.69 142.22 154.61 C 142.31 153.54 141.51 152.60 140.44 152.51 L 139.43 152.43 C 138.36 152.34 137.42 153.14 137.33 154.21 C 137.25 155.28 138.04 156.22 139.11 156.31 Z M 139.10 156.00 L 139.80 156.54 C 140.66 157.19 141.88 157.02 142.53 156.17 C 143.18 155.31 143.01 154.09 142.16 153.44 L 141.46 152.91 C 140.61 152.26 139.39 152.42 138.73 153.28 C 138.08 154.13 138.25 155.35 139.10 156.00 Z M 139.08 155.41 L 139.30 156.37 C 139.53 157.41 140.57 158.07 141.61 157.84 C 142.66 157.61 143.32 156.57 143.09 155.52 L 142.88 154.57 C 142.64 153.52 141.61 152.86 140.56 153.09 C 139.51 153.32 138.85 154.36 139.08 155.41 Z M 139.27 155.77 L 139.17 156.84 C 139.08 157.90 139.86 158.84 140.92 158.93 C 141.99 159.03 142.92 158.25 143.02 157.18 L 143.12 156.12 C 143.21 155.05 142.43 154.12 141.37 154.02 C 140.30 153.93 139.37 154.71 139.27 155.77 Z M 139.27 156.48 L 138.99 157.45 C 138.70 158.46 139.28 159.51 140.29 159.80 C 141.30 160.09 142.35 159.51 142.64 158.51 L 142.92 157.54 C 143.21 156.53 142.63 155.48 141.63 155.19 C 140.62 154.90 139.57 155.48 139.27 156.48 Z M 139.11 157.25 L 138.71 158.18 C 138.31 159.13 138.75 160.22 139.69 160.62 C 140.64 161.02 141.73 160.58 142.13 159.64 L 142.53 158.71 C 142.93 157.76 142.49 156.67 141.54 156.27 C 140.60 155.87 139.51 156.31 139.11 157.25 Z M 138.81 158.07 L 138.36 158.93 C 137.89 159.82 138.24 160.92 139.13 161.38 C 140.03 161.85 141.12 161.50 141.59 160.61 L 142.04 159.75 C 142.50 158.86 142.15 157.76 141.26 157.29 C 140.37 156.83 139.27 157.18 138.81 158.07 Z M 138.39 158.91 L 138.36 158.97 C 137.88 159.84 138.21 160.94 139.08 161.41 C 139.95 161.89 141.05 161.57 141.52 160.69 L 141.56 160.63 C 142.03 159.76 141.71 158.66 140.84 158.19 C 139.96 157.71 138.87 158.03 138.39 158.91 Z"
      fill="black"
      fill-rule="nonzero" /><path d="M 110.16 161.43 L 110.45 162.32 C 110.79 163.34 111.89 163.89 112.91 163.55 C 113.93 163.21 114.48 162.11 114.14 161.09 L 113.85 160.21 C 113.51 159.19 112.41 158.64 111.39 158.98 C 110.37 159.31 109.82 160.41 110.16 161.43 Z M 110.42 162.45 L 110.80 163.40 C 111.21 164.44 112.38 164.94 113.42 164.53 C 114.46 164.12 114.96 162.95 114.55 161.91 L 114.17 160.96 C 113.76 159.92 112.58 159.42 111.55 159.83 C 110.51 160.24 110.01 161.42 110.42 162.45 Z M 110.82 163.58 L 111.29 164.51 C 111.79 165.53 113.03 165.95 114.05 165.44 C 115.08 164.93 115.49 163.69 114.99 162.67 L 114.52 161.74 C 114.02 160.72 112.78 160.30 111.75 160.81 C 110.73 161.31 110.32 162.55 110.82 163.58 Z M 111.33 164.61 L 111.84 165.51 C 112.40 166.51 113.67 166.86 114.66 166.30 C 115.66 165.74 116.01 164.47 115.45 163.48 L 114.94 162.57 C 114.38 161.57 113.11 161.22 112.12 161.78 C 111.12 162.35 110.77 163.61 111.33 164.61 Z M 111.87 165.56 L 112.38 166.40 C 112.96 167.38 114.23 167.69 115.21 167.11 C 116.19 166.52 116.51 165.25 115.92 164.27 L 115.42 163.43 C 114.83 162.46 113.57 162.14 112.59 162.72 C 111.61 163.31 111.29 164.58 111.87 165.56 Z M 112.41 166.40 L 112.97 167.33 C 113.56 168.29 114.82 168.59 115.78 168.00 C 116.75 167.41 117.05 166.16 116.46 165.19 L 115.89 164.27 C 115.30 163.30 114.04 163.00 113.08 163.59 C 112.12 164.18 111.82 165.44 112.41 166.40 Z M 113.01 167.32 L 113.49 168.09 C 114.08 169.03 115.32 169.32 116.26 168.73 C 117.20 168.15 117.49 166.91 116.90 165.97 L 116.42 165.20 C 115.83 164.26 114.59 163.97 113.65 164.56 C 112.71 165.14 112.43 166.38 113.01 167.32 Z M 113.53 168.09 L 114.05 168.91 C 114.63 169.83 115.85 170.11 116.77 169.52 C 117.69 168.94 117.97 167.72 117.39 166.80 L 116.87 165.98 C 116.28 165.06 115.07 164.78 114.14 165.36 C 113.22 165.94 112.95 167.16 113.53 168.09 Z M 114.07 168.90 L 114.61 169.75 C 115.18 170.66 116.39 170.94 117.30 170.36 C 118.21 169.79 118.48 168.58 117.91 167.67 L 117.37 166.82 C 116.79 165.90 115.59 165.63 114.68 166.21 C 113.77 166.78 113.49 167.98 114.07 168.90 Z M 114.63 169.74 L 115.17 170.59 C 115.74 171.49 116.92 171.76 117.82 171.19 C 118.72 170.62 118.99 169.43 118.42 168.53 L 117.88 167.68 C 117.31 166.79 116.13 166.52 115.23 167.09 C 114.33 167.66 114.06 168.84 114.63 169.74 Z M 115.21 170.61 L 115.77 171.45 C 116.34 172.32 117.52 172.56 118.39 171.98 C 119.27 171.41 119.51 170.23 118.93 169.36 L 118.38 168.52 C 117.80 167.64 116.62 167.40 115.75 167.98 C 114.88 168.56 114.63 169.73 115.21 170.61 Z M 115.81 171.47 L 116.38 172.29 C 116.96 173.14 118.13 173.35 118.98 172.76 C 119.83 172.17 120.04 171.01 119.45 170.16 L 118.89 169.34 C 118.30 168.49 117.13 168.27 116.28 168.86 C 115.43 169.45 115.22 170.62 115.81 171.47 Z M 116.39 172.27 L 116.96 173.09 C 117.53 173.94 118.68 174.15 119.53 173.58 C 120.37 173.00 120.58 171.85 120.01 171.01 L 119.44 170.18 C 118.87 169.34 117.72 169.12 116.87 169.70 C 116.03 170.27 115.81 171.42 116.39 172.27 Z M 116.98 173.09 L 117.54 173.90 C 118.11 174.74 119.25 174.94 120.08 174.37 C 120.91 173.80 121.12 172.66 120.55 171.83 L 119.99 171.01 C 119.41 170.18 118.28 169.97 117.44 170.55 C 116.61 171.12 116.40 172.26 116.98 173.09 Z M 117.59 173.96 L 118.16 174.71 C 118.76 175.51 119.90 175.67 120.70 175.07 C 121.50 174.47 121.66 173.33 121.06 172.53 L 120.49 171.77 C 119.89 170.97 118.75 170.81 117.95 171.41 C 117.15 172.02 116.99 173.15 117.59 173.96 Z M 118.20 174.77 L 118.85 175.56 C 119.49 176.34 120.63 176.45 121.41 175.81 C 122.18 175.18 122.30 174.03 121.66 173.26 L 121.02 172.47 C 120.38 171.69 119.24 171.58 118.46 172.21 C 117.68 172.85 117.57 173.99 118.20 174.77 Z M 118.85 175.61 L 119.48 176.35 C 120.14 177.13 121.31 177.22 122.09 176.56 C 122.86 175.90 122.96 174.73 122.30 173.95 L 121.66 173.21 C 121.00 172.43 119.84 172.34 119.06 173.00 C 118.28 173.66 118.19 174.83 118.85 175.61 Z M 119.45 176.39 L 120.14 177.19 C 120.83 177.99 122.03 178.07 122.82 177.39 C 123.62 176.70 123.70 175.50 123.02 174.71 L 122.33 173.91 C 121.64 173.12 120.44 173.03 119.65 173.71 C 118.85 174.40 118.77 175.60 119.45 176.39 Z M 120.12 177.21 L 120.17 177.26 C 120.86 178.07 122.08 178.15 122.88 177.46 C 123.69 176.76 123.78 175.54 123.08 174.74 L 123.04 174.69 C 122.34 173.88 121.12 173.80 120.32 174.49 C 119.51 175.19 119.43 176.41 120.12 177.21 Z"
      fill="black"
      fill-rule="nonzero" /><path d="M 122.53 162.17 L 122.78 163.12 C 123.06 164.18 124.14 164.81 125.20 164.53 C 126.26 164.26 126.89 163.18 126.61 162.12 L 126.37 161.17 C 126.09 160.11 125.01 159.48 123.95 159.75 C 122.89 160.03 122.26 161.11 122.53 162.17 Z M 122.75 163.26 L 123.07 164.22 C 123.42 165.29 124.58 165.87 125.65 165.52 C 126.73 165.17 127.31 164.01 126.96 162.94 L 126.64 161.98 C 126.29 160.91 125.13 160.32 124.06 160.67 C 122.99 161.03 122.40 162.18 122.75 163.26 Z M 123.10 164.39 L 123.45 165.21 C 123.90 166.27 125.12 166.76 126.18 166.31 C 127.23 165.86 127.73 164.64 127.28 163.58 L 126.93 162.76 C 126.48 161.71 125.26 161.21 124.20 161.66 C 123.14 162.11 122.65 163.33 123.10 164.39 Z M 123.47 165.28 L 123.92 166.23 C 124.41 167.27 125.65 167.72 126.69 167.23 C 127.73 166.74 128.18 165.49 127.69 164.45 L 127.25 163.51 C 126.76 162.47 125.52 162.02 124.47 162.51 C 123.43 163.00 122.98 164.24 123.47 165.28 Z M 123.92 166.23 L 124.34 167.12 C 124.83 168.16 126.07 168.61 127.11 168.12 C 128.16 167.63 128.60 166.39 128.11 165.34 L 127.69 164.45 C 127.20 163.41 125.96 162.96 124.92 163.45 C 123.87 163.94 123.42 165.18 123.92 166.23 Z M 124.33 167.11 L 124.73 167.96 C 125.21 169.01 126.45 169.46 127.50 168.98 C 128.54 168.50 129.00 167.26 128.51 166.21 L 128.12 165.36 C 127.63 164.31 126.40 163.86 125.35 164.34 C 124.30 164.82 123.85 166.06 124.33 167.11 Z M 124.73 167.96 L 125.16 168.89 C 125.64 169.94 126.87 170.40 127.92 169.92 C 128.96 169.44 129.42 168.20 128.94 167.16 L 128.51 166.22 C 128.03 165.17 126.80 164.72 125.75 165.20 C 124.71 165.68 124.25 166.91 124.73 167.96 Z M 125.16 168.89 L 125.62 169.90 C 126.10 170.94 127.33 171.40 128.38 170.92 C 129.42 170.44 129.88 169.21 129.40 168.16 L 128.94 167.16 C 128.46 166.12 127.23 165.66 126.19 166.14 C 125.14 166.62 124.68 167.85 125.16 168.89 Z M 125.64 169.89 L 126.07 170.84 C 126.55 171.87 127.77 172.33 128.81 171.85 C 129.85 171.37 130.30 170.15 129.82 169.11 L 129.39 168.17 C 128.91 167.13 127.68 166.68 126.65 167.15 C 125.61 167.63 125.16 168.86 125.64 169.89 Z M 126.09 170.83 L 126.53 171.78 C 127.00 172.80 128.22 173.24 129.24 172.77 C 130.27 172.29 130.71 171.08 130.24 170.05 L 129.80 169.11 C 129.32 168.09 128.11 167.64 127.09 168.12 C 126.06 168.59 125.62 169.81 126.09 170.83 Z M 126.55 171.78 L 126.98 172.69 C 127.46 173.70 128.66 174.13 129.67 173.66 C 130.68 173.18 131.12 171.98 130.64 170.97 L 130.21 170.05 C 129.74 169.04 128.53 168.61 127.52 169.09 C 126.51 169.56 126.08 170.76 126.55 171.78 Z M 127.01 172.69 L 127.42 173.54 C 127.89 174.54 129.09 174.96 130.08 174.48 C 131.08 174.00 131.50 172.81 131.02 171.81 L 130.62 170.96 C 130.14 169.97 128.94 169.55 127.95 170.02 C 126.95 170.50 126.53 171.70 127.01 172.69 Z M 127.46 173.55 L 127.94 174.54 C 128.43 175.51 129.61 175.91 130.58 175.43 C 131.56 174.94 131.96 173.76 131.47 172.79 L 130.98 171.80 C 130.50 170.83 129.32 170.43 128.35 170.91 C 127.37 171.40 126.97 172.58 127.46 173.55 Z M 127.99 174.55 L 128.45 175.44 C 128.94 176.38 130.11 176.75 131.05 176.26 C 132.00 175.77 132.37 174.61 131.88 173.66 L 131.42 172.77 C 130.93 171.83 129.77 171.46 128.82 171.95 C 127.87 172.44 127.50 173.60 127.99 174.55 Z M 128.50 175.44 L 128.93 176.23 C 129.42 177.15 130.56 177.50 131.48 177.01 C 132.40 176.51 132.75 175.37 132.26 174.45 L 131.83 173.66 C 131.34 172.74 130.19 172.39 129.27 172.88 C 128.36 173.38 128.01 174.52 128.50 175.44 Z M 128.97 176.24 L 129.47 177.15 C 129.96 178.04 131.09 178.37 131.99 177.88 C 132.89 177.38 133.21 176.25 132.72 175.35 L 132.22 174.45 C 131.72 173.55 130.59 173.22 129.70 173.71 C 128.80 174.21 128.47 175.34 128.97 176.24 Z M 129.51 177.17 L 130.00 178.03 C 130.51 178.90 131.64 179.20 132.51 178.69 C 133.39 178.18 133.68 177.06 133.17 176.18 L 132.68 175.33 C 132.17 174.45 131.05 174.15 130.17 174.66 C 129.29 175.17 129.00 176.30 129.51 177.17 Z M 130.06 178.09 L 130.61 178.93 C 131.15 179.77 132.28 180.01 133.12 179.46 C 133.96 178.92 134.20 177.79 133.66 176.95 L 133.11 176.11 C 132.57 175.27 131.44 175.03 130.60 175.58 C 129.76 176.13 129.52 177.25 130.06 178.09 Z M 130.68 179.01 L 131.26 179.80 C 131.85 180.60 132.98 180.78 133.78 180.19 C 134.58 179.60 134.76 178.46 134.17 177.66 L 133.59 176.87 C 133.00 176.07 131.87 175.89 131.06 176.48 C 130.26 177.07 130.08 178.20 130.68 179.01 Z M 131.28 179.82 L 131.47 180.07 C 132.07 180.86 133.20 181.01 133.99 180.40 C 134.78 179.80 134.93 178.67 134.33 177.88 L 134.14 177.63 C 133.54 176.84 132.41 176.69 131.62 177.30 C 130.83 177.90 130.68 179.03 131.28 179.82 Z"
      fill="black"
      fill-rule="nonzero" /><path d="M 134.03 165.66 L 134.41 166.47 C 134.87 167.44 136.02 167.86 136.99 167.41 C 137.96 166.95 138.38 165.80 137.92 164.83 L 137.54 164.01 C 137.09 163.04 135.93 162.63 134.96 163.08 C 133.99 163.54 133.58 164.69 134.03 165.66 Z M 134.42 166.52 L 134.89 167.47 C 135.37 168.44 136.54 168.84 137.51 168.35 C 138.48 167.87 138.87 166.70 138.39 165.73 L 137.92 164.78 C 137.44 163.81 136.27 163.42 135.30 163.90 C 134.33 164.38 133.93 165.55 134.42 166.52 Z M 134.89 167.52 L 135.35 168.40 C 135.86 169.37 137.06 169.74 138.03 169.23 C 138.99 168.72 139.37 167.53 138.86 166.56 L 138.39 165.68 C 137.88 164.71 136.69 164.34 135.72 164.85 C 134.75 165.36 134.38 166.56 134.89 167.52 Z M 135.33 168.42 L 135.81 169.33 C 136.33 170.31 137.54 170.68 138.53 170.16 C 139.51 169.64 139.88 168.43 139.36 167.44 L 138.88 166.54 C 138.36 165.56 137.14 165.18 136.16 165.70 C 135.18 166.22 134.81 167.44 135.33 168.42 Z M 135.77 169.32 L 136.23 170.23 C 136.74 171.23 137.97 171.63 138.98 171.12 C 139.98 170.60 140.38 169.37 139.87 168.37 L 139.40 167.46 C 138.89 166.45 137.66 166.06 136.65 166.57 C 135.65 167.08 135.25 168.31 135.77 169.32 Z M 136.18 170.17 L 136.61 171.10 C 137.09 172.13 138.32 172.58 139.35 172.10 C 140.38 171.62 140.83 170.40 140.35 169.37 L 139.92 168.43 C 139.44 167.40 138.22 166.95 137.18 167.43 C 136.15 167.91 135.70 169.13 136.18 170.17 Z M 136.57 171.01 L 136.94 171.91 C 137.37 172.97 138.57 173.48 139.62 173.05 C 140.68 172.62 141.19 171.42 140.76 170.36 L 140.39 169.46 C 139.97 168.40 138.76 167.89 137.71 168.32 C 136.65 168.75 136.14 169.95 136.57 171.01 Z M 136.91 171.84 L 137.25 172.77 C 137.64 173.84 138.82 174.39 139.89 174.00 C 140.96 173.61 141.51 172.43 141.12 171.36 L 140.79 170.43 C 140.40 169.36 139.21 168.81 138.14 169.20 C 137.07 169.59 136.52 170.77 136.91 171.84 Z M 137.26 172.73 L 137.59 173.69 C 137.95 174.76 139.12 175.32 140.18 174.96 C 141.25 174.59 141.82 173.43 141.45 172.36 L 141.12 171.40 C 140.75 170.33 139.59 169.77 138.52 170.14 C 137.45 170.50 136.89 171.67 137.26 172.73 Z M 137.61 173.66 L 137.94 174.63 C 138.29 175.68 139.43 176.25 140.48 175.90 C 141.53 175.54 142.10 174.41 141.74 173.36 L 141.42 172.39 C 141.07 171.34 139.93 170.77 138.88 171.12 C 137.83 171.47 137.26 172.61 137.61 173.66 Z M 137.97 174.61 L 138.28 175.55 C 138.62 176.59 139.73 177.15 140.76 176.81 C 141.80 176.47 142.36 175.36 142.02 174.33 L 141.71 173.38 C 141.37 172.35 140.26 171.78 139.23 172.12 C 138.20 172.46 137.63 173.57 137.97 174.61 Z M 138.33 175.52 L 138.65 176.51 C 138.97 177.52 140.05 178.07 141.05 177.75 C 142.06 177.43 142.61 176.35 142.29 175.34 L 141.97 174.36 C 141.65 173.35 140.57 172.80 139.57 173.12 C 138.56 173.44 138.01 174.52 138.33 175.52 Z M 138.71 176.48 L 138.98 177.35 C 139.29 178.32 140.32 178.86 141.30 178.55 C 142.27 178.25 142.81 177.21 142.50 176.24 L 142.23 175.37 C 141.92 174.40 140.88 173.86 139.91 174.17 C 138.94 174.47 138.40 175.51 138.71 176.48 Z"
      fill="black"
      fill-rule="nonzero" /><path d="M 168.63 119.93 L 167.63 119.92 C 166.53 119.92 165.63 120.81 165.62 121.91 C 165.62 123.02 166.51 123.92 167.61 123.92 L 168.61 123.93 C 169.71 123.93 170.61 123.05 170.62 121.94 C 170.62 120.84 169.73 119.94 168.63 119.93 Z M 167.70 119.91 L 166.72 119.87 C 165.61 119.83 164.68 120.70 164.63 121.81 C 164.59 122.92 165.46 123.86 166.57 123.90 L 167.55 123.94 C 168.66 123.98 169.59 123.11 169.64 122.00 C 169.68 120.89 168.81 119.95 167.70 119.91 Z M 166.75 119.87 L 165.75 119.82 C 164.63 119.76 163.68 120.61 163.62 121.72 C 163.56 122.84 164.42 123.79 165.53 123.85 L 166.54 123.90 C 167.65 123.96 168.60 123.11 168.66 121.99 C 168.72 120.88 167.87 119.93 166.75 119.87 Z M 165.68 119.81 L 164.67 119.79 C 163.55 119.77 162.63 120.66 162.61 121.78 C 162.59 122.89 163.48 123.81 164.59 123.83 L 165.60 123.85 C 166.72 123.87 167.64 122.98 167.66 121.87 C 167.68 120.75 166.79 119.83 165.68 119.81 Z M 164.51 119.80 L 163.50 119.86 C 162.39 119.92 161.54 120.88 161.60 121.99 C 161.67 123.11 162.63 123.95 163.74 123.89 L 164.75 123.83 C 165.86 123.76 166.71 122.81 166.65 121.69 C 166.58 120.58 165.62 119.73 164.51 119.80 Z M 163.24 119.91 L 162.35 120.08 C 161.26 120.29 160.55 121.34 160.76 122.43 C 160.97 123.51 162.02 124.22 163.11 124.01 L 164.00 123.84 C 165.09 123.63 165.80 122.58 165.59 121.49 C 165.38 120.41 164.33 119.70 163.24 119.91 Z M 162.12 120.17 L 161.13 120.50 C 160.10 120.84 159.54 121.95 159.88 122.98 C 160.21 124.01 161.33 124.58 162.36 124.24 L 163.34 123.92 C 164.38 123.58 164.94 122.47 164.60 121.43 C 164.26 120.40 163.15 119.84 162.12 120.17 Z M 161.05 120.55 L 160.17 120.89 C 159.17 121.28 158.67 122.40 159.06 123.40 C 159.44 124.40 160.57 124.90 161.57 124.52 L 162.44 124.18 C 163.45 123.80 163.94 122.67 163.56 121.67 C 163.17 120.67 162.05 120.17 161.05 120.55 Z M 160.15 120.92 L 159.25 121.28 C 158.26 121.68 157.78 122.80 158.18 123.79 C 158.58 124.78 159.71 125.26 160.70 124.86 L 161.59 124.49 C 162.58 124.09 163.06 122.97 162.66 121.98 C 162.26 120.99 161.14 120.52 160.15 120.92 Z M 159.23 121.30 L 158.25 121.71 C 157.27 122.11 156.81 123.24 157.21 124.22 C 157.62 125.20 158.75 125.66 159.72 125.25 L 160.71 124.84 C 161.69 124.43 162.15 123.31 161.74 122.33 C 161.34 121.35 160.21 120.89 159.23 121.30 Z M 158.24 121.72 L 157.25 122.14 C 156.28 122.55 155.83 123.68 156.25 124.65 C 156.66 125.62 157.78 126.07 158.75 125.66 L 159.74 125.24 C 160.71 124.82 161.16 123.70 160.74 122.73 C 160.33 121.76 159.21 121.31 158.24 121.72 Z M 157.25 122.15 L 156.34 122.54 C 155.37 122.96 154.93 124.08 155.35 125.05 C 155.77 126.01 156.89 126.46 157.85 126.04 L 158.76 125.64 C 159.73 125.23 160.17 124.10 159.75 123.14 C 159.33 122.18 158.21 121.73 157.25 122.15 Z M 156.33 122.56 L 155.41 122.96 C 154.45 123.38 154.02 124.51 154.44 125.46 C 154.86 126.42 155.98 126.86 156.94 126.43 L 157.86 126.03 C 158.82 125.60 159.26 124.48 158.83 123.52 C 158.41 122.57 157.29 122.13 156.33 122.56 Z M 155.40 122.97 L 154.48 123.39 C 153.53 123.82 153.10 124.94 153.53 125.89 C 153.96 126.84 155.08 127.27 156.03 126.84 L 156.95 126.42 C 157.91 125.99 158.33 124.87 157.90 123.92 C 157.47 122.97 156.35 122.54 155.40 122.97 Z M 154.47 123.40 L 153.53 123.83 C 152.58 124.26 152.16 125.38 152.60 126.33 C 153.04 127.28 154.16 127.69 155.10 127.26 L 156.04 126.83 C 156.99 126.39 157.41 125.27 156.97 124.32 C 156.54 123.38 155.41 122.96 154.47 123.40 Z M 153.51 123.83 L 152.55 124.28 C 151.61 124.73 151.20 125.86 151.65 126.80 C 152.09 127.75 153.22 128.15 154.16 127.71 L 155.12 127.25 C 156.07 126.81 156.47 125.68 156.03 124.74 C 155.58 123.79 154.45 123.39 153.51 123.83 Z M 152.53 124.29 L 151.62 124.73 C 150.67 125.19 150.28 126.32 150.74 127.27 C 151.20 128.21 152.33 128.60 153.27 128.14 L 154.18 127.70 C 155.13 127.25 155.52 126.11 155.06 125.17 C 154.61 124.23 153.47 123.83 152.53 124.29 Z M 151.59 124.74 L 150.75 125.16 C 149.81 125.63 149.43 126.78 149.90 127.72 C 150.38 128.65 151.52 129.03 152.46 128.56 L 153.30 128.14 C 154.24 127.67 154.62 126.52 154.14 125.58 C 153.67 124.64 152.53 124.26 151.59 124.74 Z M 150.70 125.18 L 149.76 125.68 C 148.82 126.18 148.47 127.34 148.97 128.27 C 149.47 129.20 150.62 129.55 151.55 129.05 L 152.50 128.55 C 153.43 128.05 153.79 126.89 153.29 125.96 C 152.79 125.03 151.63 124.68 150.70 125.18 Z M 149.66 125.73 L 148.79 126.25 C 147.89 126.80 147.60 127.98 148.14 128.88 C 148.69 129.79 149.87 130.08 150.78 129.53 L 151.65 129.01 C 152.55 128.46 152.84 127.28 152.30 126.38 C 151.75 125.47 150.57 125.18 149.66 125.73 Z M 148.62 126.36 L 147.92 126.89 C 147.08 127.53 146.91 128.74 147.55 129.59 C 148.19 130.43 149.40 130.60 150.25 129.96 L 150.95 129.43 C 151.80 128.79 151.96 127.58 151.32 126.73 C 150.68 125.88 149.47 125.72 148.62 126.36 Z M 147.61 127.18 L 146.96 127.95 C 146.27 128.77 146.37 129.99 147.19 130.68 C 148.01 131.36 149.23 131.26 149.91 130.44 L 150.57 129.67 C 151.25 128.85 151.15 127.63 150.33 126.94 C 149.52 126.26 148.30 126.36 147.61 127.18 Z M 146.62 128.52 L 146.30 129.37 C 145.93 130.38 146.44 131.49 147.44 131.87 C 148.45 132.24 149.56 131.73 149.94 130.72 L 150.25 129.87 C 150.63 128.87 150.11 127.75 149.11 127.38 C 148.11 127.00 146.99 127.52 146.62 128.52 Z M 146.18 129.84 L 146.08 130.78 C 145.96 131.85 146.74 132.81 147.80 132.93 C 148.87 133.04 149.83 132.27 149.95 131.20 L 150.05 130.26 C 150.17 129.19 149.40 128.23 148.33 128.11 C 147.26 128.00 146.30 128.77 146.18 129.84 Z M 146.06 130.95 L 146.04 132.03 C 146.02 133.10 146.87 134.00 147.95 134.02 C 149.03 134.04 149.92 133.18 149.95 132.11 L 149.97 131.03 C 149.99 129.96 149.13 129.06 148.06 129.04 C 146.98 129.02 146.09 129.87 146.06 130.95 Z M 146.03 132.06 L 146.03 133.03 C 146.03 134.11 146.91 134.99 147.99 134.99 C 149.07 134.99 149.95 134.12 149.95 133.04 L 149.95 132.07 C 149.95 130.99 149.08 130.11 148.00 130.11 C 146.91 130.11 146.04 130.98 146.03 132.06 Z M 146.03 133.07 L 146.05 134.10 C 146.07 135.19 146.96 136.05 148.05 136.03 C 149.13 136.01 150.00 135.12 149.98 134.03 L 149.96 133.00 C 149.94 131.91 149.04 131.05 147.96 131.07 C 146.87 131.09 146.01 131.98 146.03 133.07 Z M 146.04 134.16 L 146.09 135.22 C 146.15 136.31 147.07 137.15 148.16 137.10 C 149.24 137.05 150.08 136.12 150.03 135.04 L 149.98 133.97 C 149.93 132.89 149.00 132.05 147.92 132.10 C 146.83 132.15 145.99 133.08 146.04 134.16 Z M 146.10 135.29 L 146.18 136.34 C 146.27 137.43 147.22 138.24 148.31 138.15 C 149.39 138.06 150.20 137.11 150.11 136.02 L 150.03 134.97 C 149.94 133.88 148.99 133.07 147.90 133.16 C 146.82 133.25 146.01 134.20 146.10 135.29 Z M 146.18 136.39 L 146.28 137.35 C 146.40 138.43 147.37 139.22 148.45 139.11 C 149.53 138.99 150.32 138.02 150.21 136.94 L 150.11 135.98 C 150.00 134.90 149.03 134.11 147.94 134.22 C 146.86 134.33 146.07 135.30 146.18 136.39 Z M 146.29 137.36 L 146.40 138.36 C 146.52 139.44 147.50 140.22 148.58 140.10 C 149.66 139.98 150.44 139.00 150.32 137.92 L 150.21 136.92 C 150.09 135.84 149.11 135.06 148.03 135.18 C 146.94 135.30 146.16 136.28 146.29 137.36 Z M 146.40 138.37 L 146.51 139.33 C 146.64 140.41 147.62 141.19 148.70 141.07 C 149.78 140.94 150.56 139.96 150.43 138.88 L 150.32 137.91 C 150.19 136.83 149.21 136.05 148.13 136.18 C 147.05 136.30 146.27 137.28 146.40 138.37 Z M 146.51 139.35 L 146.63 140.29 C 146.76 141.37 147.75 142.14 148.83 142.01 C 149.91 141.87 150.68 140.89 150.55 139.81 L 150.43 138.86 C 150.30 137.78 149.31 137.01 148.23 137.15 C 147.15 137.28 146.38 138.27 146.51 139.35 Z M 146.63 140.29 L 146.75 141.29 C 146.89 142.37 147.87 143.14 148.95 143.00 C 150.04 142.87 150.80 141.88 150.67 140.80 L 150.55 139.80 C 150.41 138.72 149.43 137.95 148.34 138.09 C 147.26 138.22 146.49 139.21 146.63 140.29 Z M 146.75 141.26 L 146.86 142.24 C 146.98 143.33 147.95 144.11 149.04 143.99 C 150.12 143.87 150.90 142.89 150.78 141.81 L 150.68 140.83 C 150.56 139.74 149.58 138.96 148.49 139.08 C 147.41 139.20 146.63 140.18 146.75 141.26 Z M 146.85 142.22 L 146.95 143.21 C 147.05 144.29 148.02 145.09 149.11 144.98 C 150.20 144.88 150.99 143.91 150.89 142.82 L 150.79 141.83 C 150.68 140.74 149.71 139.95 148.63 140.06 C 147.54 140.16 146.74 141.13 146.85 142.22 Z M 146.94 143.20 L 147.04 144.22 C 147.14 145.31 148.11 146.11 149.20 146.01 C 150.29 145.90 151.09 144.93 150.99 143.84 L 150.89 142.82 C 150.79 141.73 149.82 140.93 148.73 141.04 C 147.64 141.14 146.84 142.11 146.94 143.20 Z M 147.04 144.22 L 147.13 145.22 C 147.24 146.31 148.21 147.11 149.30 147.00 C 150.39 146.90 151.19 145.92 151.09 144.83 L 150.99 143.84 C 150.89 142.75 149.92 141.95 148.82 142.06 C 147.73 142.16 146.93 143.13 147.04 144.22 Z M 147.13 145.21 L 147.23 146.22 C 147.33 147.32 148.30 148.12 149.39 148.01 C 150.49 147.91 151.29 146.94 151.19 145.85 L 151.09 144.84 C 150.99 143.74 150.02 142.94 148.92 143.04 C 147.83 143.15 147.03 144.12 147.13 145.21 Z M 147.22 146.21 L 147.31 147.21 C 147.41 148.31 148.38 149.12 149.47 149.02 C 150.57 148.92 151.38 147.95 151.28 146.86 L 151.19 145.86 C 151.09 144.76 150.12 143.95 149.03 144.05 C 147.93 144.15 147.12 145.12 147.22 146.21 Z M 147.31 147.21 L 147.40 148.20 C 147.49 149.29 148.46 150.11 149.55 150.01 C 150.65 149.92 151.46 148.95 151.37 147.85 L 151.28 146.86 C 151.19 145.77 150.22 144.96 149.12 145.05 C 148.03 145.15 147.22 146.11 147.31 147.21 Z M 147.40 148.20 L 147.49 149.20 C 147.58 150.29 148.55 151.10 149.65 151.00 C 150.74 150.91 151.55 149.94 151.46 148.84 L 151.37 147.85 C 151.27 146.75 150.30 145.94 149.20 146.04 C 148.11 146.14 147.30 147.11 147.40 148.20 Z M 147.48 149.21 L 147.58 150.19 C 147.68 151.29 148.65 152.10 149.75 151.99 C 150.85 151.89 151.65 150.92 151.55 149.82 L 151.46 148.83 C 151.35 147.73 150.38 146.93 149.28 147.03 C 148.19 147.14 147.38 148.11 147.48 149.21 Z M 147.57 150.19 L 147.67 151.20 C 147.77 152.29 148.74 153.10 149.84 153.00 C 150.94 152.90 151.75 151.92 151.65 150.83 L 151.55 149.82 C 151.45 148.72 150.48 147.92 149.38 148.02 C 148.28 148.12 147.47 149.09 147.57 150.19 Z M 147.66 151.18 L 147.75 152.18 C 147.85 153.28 148.82 154.10 149.92 154.00 C 151.02 153.91 151.83 152.94 151.74 151.84 L 151.65 150.84 C 151.55 149.74 150.59 148.92 149.48 149.02 C 148.38 149.11 147.57 150.08 147.66 151.18 Z M 147.75 152.17 L 147.82 153.17 C 147.91 154.27 148.88 155.09 149.98 155.01 C 151.09 154.92 151.91 153.95 151.82 152.85 L 151.74 151.85 C 151.65 150.75 150.69 149.92 149.58 150.01 C 148.48 150.10 147.66 151.07 147.75 152.17 Z M 147.82 153.16 L 147.90 154.16 C 147.98 155.27 148.95 156.09 150.05 156.01 C 151.16 155.93 151.99 154.96 151.90 153.85 L 151.83 152.86 C 151.74 151.75 150.78 150.92 149.67 151.00 C 148.56 151.09 147.73 152.05 147.82 153.16 Z M 147.89 154.16 L 147.97 155.16 C 148.05 156.27 149.02 157.10 150.13 157.02 C 151.24 156.93 152.07 155.96 151.98 154.85 L 151.91 153.85 C 151.82 152.74 150.86 151.91 149.75 152.00 C 148.64 152.08 147.81 153.05 147.89 154.16 Z M 147.96 155.17 L 148.04 156.16 C 148.13 157.28 149.10 158.11 150.22 158.02 C 151.33 157.93 152.16 156.95 152.07 155.84 L 151.99 154.85 C 151.90 153.73 150.93 152.90 149.81 152.99 C 148.70 153.08 147.87 154.06 147.96 155.17 Z M 148.04 156.18 L 148.12 157.17 C 148.22 158.28 149.20 159.11 150.32 159.01 C 151.43 158.91 152.26 157.93 152.16 156.82 L 152.07 155.83 C 151.97 154.71 150.99 153.89 149.88 153.99 C 148.77 154.08 147.94 155.07 148.04 156.18 Z M 148.12 157.18 L 148.21 158.17 C 148.32 159.28 149.31 160.10 150.43 160.00 C 151.54 159.89 152.36 158.90 152.26 157.78 L 152.16 156.80 C 152.06 155.68 151.07 154.86 149.95 154.97 C 148.83 155.08 148.01 156.07 148.12 157.18 Z M 148.21 158.17 L 148.31 159.18 C 148.42 160.29 149.41 161.11 150.53 161.00 C 151.65 160.89 152.47 159.90 152.36 158.78 L 152.26 157.78 C 152.15 156.66 151.16 155.84 150.04 155.95 C 148.92 156.06 148.10 157.05 148.21 158.17 Z M 148.30 159.17 L 148.40 160.19 C 148.51 161.31 149.50 162.13 150.62 162.03 C 151.75 161.92 152.57 160.92 152.46 159.80 L 152.36 158.78 C 152.26 157.66 151.26 156.84 150.14 156.95 C 149.02 157.05 148.19 158.05 148.30 159.17 Z M 148.39 160.18 L 148.49 161.20 C 148.59 162.32 149.59 163.15 150.71 163.05 C 151.84 162.95 152.67 161.95 152.56 160.82 L 152.47 159.81 C 152.36 158.68 151.37 157.85 150.24 157.96 C 149.12 158.06 148.29 159.06 148.39 160.18 Z M 148.48 161.20 L 148.57 162.16 C 148.67 163.29 149.67 164.12 150.80 164.02 C 151.92 163.92 152.76 162.92 152.66 161.79 L 152.57 160.83 C 152.47 159.70 151.47 158.86 150.34 158.97 C 149.21 159.07 148.38 160.07 148.48 161.20 Z M 148.56 162.16 L 148.65 163.22 C 148.76 164.35 149.76 165.18 150.89 165.08 C 152.02 164.98 152.86 163.98 152.76 162.85 L 152.66 161.79 C 152.56 160.66 151.56 159.82 150.43 159.92 C 149.29 160.03 148.46 161.03 148.56 162.16 Z M 148.65 163.22 L 148.74 164.18 C 148.84 165.31 149.85 166.15 150.98 166.04 C 152.12 165.94 152.96 164.93 152.85 163.80 L 152.76 162.84 C 152.66 161.71 151.65 160.87 150.52 160.97 C 149.38 161.08 148.54 162.08 148.65 163.22 Z M 148.73 164.19 L 148.83 165.19 C 148.94 166.33 149.96 167.16 151.10 167.04 C 152.23 166.93 153.07 165.92 152.95 164.78 L 152.86 163.78 C 152.74 162.64 151.73 161.81 150.59 161.92 C 149.45 162.04 148.62 163.05 148.73 164.19 Z M 148.83 165.22 L 148.94 166.20 C 149.07 167.33 150.10 168.15 151.24 168.03 C 152.37 167.90 153.19 166.87 153.07 165.73 L 152.96 164.75 C 152.83 163.61 151.80 162.79 150.66 162.92 C 149.52 163.05 148.70 164.08 148.83 165.22 Z M 148.94 166.24 L 149.06 167.11 C 149.21 168.25 150.26 169.05 151.40 168.89 C 152.54 168.74 153.34 167.69 153.18 166.55 L 153.06 165.68 C 152.91 164.54 151.86 163.75 150.72 163.90 C 149.58 164.06 148.79 165.10 148.94 166.24 Z M 149.06 167.17 L 149.23 168.18 C 149.42 169.32 150.49 170.09 151.63 169.90 C 152.77 169.71 153.53 168.63 153.34 167.50 L 153.18 166.49 C 152.99 165.35 151.91 164.59 150.78 164.77 C 149.64 164.96 148.88 166.04 149.06 167.17 Z M 149.24 168.22 L 149.43 169.26 C 149.64 170.39 150.73 171.14 151.86 170.93 C 153.00 170.72 153.74 169.63 153.53 168.49 L 153.34 167.46 C 153.13 166.33 152.04 165.58 150.91 165.79 C 149.77 166.00 149.03 167.09 149.24 168.22 Z M 149.44 169.30 L 149.65 170.31 C 149.88 171.44 150.98 172.17 152.11 171.94 C 153.24 171.70 153.97 170.60 153.73 169.47 L 153.53 168.46 C 153.29 167.33 152.19 166.60 151.06 166.83 C 149.93 167.06 149.21 168.17 149.44 169.30 Z M 149.66 170.37 L 149.90 171.38 C 150.16 172.50 151.28 173.20 152.41 172.93 C 153.53 172.67 154.22 171.55 153.96 170.42 L 153.72 169.41 C 153.46 168.29 152.33 167.60 151.21 167.86 C 150.09 168.12 149.39 169.25 149.66 170.37 Z M 149.93 171.50 L 150.24 172.53 C 150.57 173.63 151.73 174.26 152.84 173.93 C 153.94 173.59 154.57 172.43 154.23 171.33 L 153.93 170.30 C 153.59 169.20 152.43 168.57 151.33 168.90 C 150.22 169.24 149.60 170.40 149.93 171.50 Z M 150.37 172.86 L 150.83 173.78 C 151.34 174.81 152.60 175.23 153.63 174.72 C 154.66 174.21 155.08 172.95 154.56 171.92 L 154.10 171.00 C 153.59 169.96 152.34 169.54 151.31 170.06 C 150.27 170.57 149.85 171.83 150.37 172.86 Z M 151.31 174.41 L 151.95 174.98 C 152.81 175.74 154.13 175.67 154.90 174.80 C 155.66 173.94 155.58 172.62 154.72 171.86 L 154.08 171.29 C 153.22 170.53 151.90 170.60 151.14 171.47 C 150.37 172.33 150.45 173.65 151.31 174.41 Z M 152.91 175.46 L 153.88 175.66 C 155.00 175.89 156.11 175.17 156.34 174.04 C 156.57 172.92 155.85 171.82 154.73 171.58 L 153.76 171.38 C 152.64 171.15 151.53 171.87 151.30 173.00 C 151.07 174.12 151.79 175.22 152.91 175.46 Z M 155.11 175.52 L 155.96 175.16 C 157.01 174.71 157.50 173.50 157.05 172.45 C 156.61 171.40 155.40 170.91 154.35 171.36 L 153.50 171.72 C 152.45 172.17 151.96 173.38 152.40 174.43 C 152.85 175.48 154.06 175.97 155.11 175.52 Z M 156.65 174.65 L 157.36 173.89 C 158.13 173.06 158.09 171.77 157.26 171.00 C 156.43 170.23 155.14 170.28 154.37 171.10 L 153.66 171.87 C 152.89 172.69 152.94 173.98 153.76 174.75 C 154.59 175.52 155.88 175.48 156.65 174.65 Z M 157.52 173.65 L 158.06 172.89 C 158.70 171.98 158.48 170.72 157.56 170.08 C 156.65 169.44 155.39 169.66 154.75 170.57 L 154.21 171.34 C 153.57 172.25 153.79 173.51 154.71 174.15 C 155.62 174.79 156.88 174.57 157.52 173.65 Z M 158.10 172.77 L 158.65 171.88 C 159.22 170.94 158.92 169.71 157.99 169.14 C 157.05 168.56 155.82 168.86 155.25 169.80 L 154.70 170.69 C 154.13 171.63 154.43 172.86 155.36 173.43 C 156.30 174.00 157.53 173.71 158.10 172.77 Z M 158.66 171.80 L 159.16 170.90 C 159.69 169.95 159.35 168.75 158.40 168.23 C 157.46 167.70 156.26 168.04 155.73 168.98 L 155.23 169.88 C 154.70 170.83 155.04 172.03 155.99 172.55 C 156.94 173.08 158.13 172.74 158.66 171.80 Z M 159.16 170.84 L 159.64 169.94 C 160.14 168.99 159.77 167.82 158.82 167.32 C 157.87 166.82 156.70 167.19 156.21 168.14 L 155.73 169.04 C 155.23 169.99 155.60 171.16 156.55 171.66 C 157.49 172.16 158.67 171.79 159.16 170.84 Z M 159.63 169.88 L 160.08 168.97 C 160.54 168.03 160.15 166.88 159.21 166.42 C 158.26 165.95 157.12 166.34 156.66 167.29 L 156.21 168.20 C 155.75 169.14 156.14 170.28 157.08 170.75 C 158.03 171.21 159.17 170.82 159.63 169.88 Z M 160.07 168.90 L 160.48 167.97 C 160.91 167.03 160.49 165.93 159.55 165.50 C 158.61 165.08 157.51 165.50 157.09 166.44 L 156.67 167.36 C 156.24 168.30 156.66 169.41 157.60 169.83 C 158.54 170.25 159.64 169.84 160.07 168.90 Z M 160.46 167.92 L 160.73 167.28 C 161.13 166.36 160.70 165.29 159.77 164.89 C 158.85 164.50 157.78 164.92 157.38 165.85 L 157.11 166.49 C 156.72 167.41 157.14 168.48 158.07 168.88 C 158.99 169.27 160.06 168.84 160.46 167.92 Z"
      fill="black"
      fill-rule="nonzero" /><path d="M 152.45 151.74 L 153.38 151.84 C 154.49 151.96 155.49 151.15 155.60 150.04 C 155.72 148.93 154.91 147.93 153.80 147.81 L 152.88 147.72 C 151.76 147.60 150.77 148.41 150.65 149.52 C 150.54 150.63 151.34 151.63 152.45 151.74 Z M 153.52 151.94 L 154.58 151.97 C 155.75 152.01 156.72 151.10 156.76 149.93 C 156.80 148.76 155.88 147.79 154.72 147.75 L 153.66 147.71 C 152.49 147.68 151.52 148.59 151.48 149.76 C 151.44 150.92 152.36 151.90 153.52 151.94 Z M 154.73 152.02 L 155.74 151.98 C 156.93 151.93 157.86 150.93 157.81 149.74 C 157.77 148.55 156.77 147.62 155.58 147.67 L 154.57 147.71 C 153.38 147.75 152.45 148.75 152.49 149.94 C 152.54 151.13 153.54 152.06 154.73 152.02 Z M 155.82 151.98 L 156.83 151.90 C 158.02 151.82 158.91 150.78 158.82 149.59 C 158.74 148.40 157.70 147.51 156.51 147.59 L 155.50 147.67 C 154.31 147.76 153.42 148.79 153.51 149.98 C 153.59 151.17 154.63 152.06 155.82 151.98 Z M 156.88 151.90 L 157.93 151.80 C 159.11 151.68 159.98 150.62 159.87 149.43 C 159.75 148.25 158.69 147.38 157.50 147.49 L 156.46 147.60 C 155.27 147.71 154.40 148.77 154.52 149.96 C 154.63 151.15 155.69 152.02 156.88 151.90 Z M 157.96 151.79 L 158.90 151.68 C 160.08 151.55 160.93 150.47 160.79 149.29 C 160.66 148.10 159.58 147.25 158.40 147.39 L 157.46 147.50 C 156.28 147.64 155.43 148.71 155.57 149.90 C 155.70 151.08 156.78 151.93 157.96 151.79 Z M 158.90 151.68 L 159.87 151.57 C 161.05 151.43 161.90 150.36 161.76 149.18 C 161.62 147.99 160.55 147.15 159.37 147.28 L 158.40 147.40 C 157.22 147.53 156.37 148.60 156.51 149.79 C 156.64 150.97 157.71 151.82 158.90 151.68 Z M 159.88 151.55 L 160.89 151.43 C 162.06 151.29 162.90 150.22 162.76 149.04 C 162.61 147.86 161.54 147.03 160.37 147.17 L 159.36 147.29 C 158.18 147.44 157.34 148.51 157.49 149.68 C 157.63 150.86 158.70 151.70 159.88 151.55 Z M 160.91 151.42 L 161.89 151.28 C 163.06 151.13 163.88 150.05 163.73 148.88 C 163.57 147.71 162.49 146.89 161.32 147.05 L 160.34 147.19 C 159.17 147.34 158.35 148.42 158.51 149.59 C 158.67 150.76 159.74 151.57 160.91 151.42 Z M 161.90 151.27 L 162.90 151.13 C 164.06 150.97 164.87 149.90 164.71 148.74 C 164.55 147.58 163.48 146.77 162.31 146.93 L 161.32 147.07 C 160.16 147.23 159.34 148.30 159.51 149.46 C 159.67 150.62 160.74 151.43 161.90 151.27 Z M 162.89 151.12 L 163.88 150.98 C 165.03 150.83 165.84 149.76 165.68 148.61 C 165.52 147.46 164.46 146.65 163.31 146.81 L 162.32 146.94 C 161.17 147.10 160.36 148.16 160.52 149.31 C 160.68 150.47 161.74 151.27 162.89 151.12 Z M 163.87 150.97 L 164.86 150.84 C 166.00 150.69 166.81 149.64 166.66 148.49 C 166.51 147.35 165.46 146.54 164.32 146.69 L 163.32 146.82 C 162.18 146.97 161.37 148.02 161.52 149.17 C 161.67 150.31 162.72 151.12 163.87 150.97 Z M 164.85 150.82 L 165.84 150.69 C 166.97 150.55 167.77 149.51 167.63 148.37 C 167.48 147.24 166.44 146.44 165.31 146.58 L 164.32 146.71 C 163.19 146.86 162.39 147.89 162.54 149.03 C 162.68 150.16 163.72 150.96 164.85 150.82 Z M 165.85 150.67 L 166.85 150.53 C 167.98 150.38 168.76 149.35 168.61 148.22 C 168.46 147.10 167.42 146.32 166.30 146.47 L 165.30 146.61 C 164.17 146.76 163.39 147.79 163.54 148.91 C 163.69 150.04 164.73 150.82 165.85 150.67 Z M 166.87 150.51 L 167.87 150.36 C 168.98 150.20 169.75 149.17 169.58 148.06 C 169.42 146.95 168.39 146.18 167.28 146.34 L 166.28 146.49 C 165.17 146.66 164.40 147.69 164.57 148.80 C 164.73 149.91 165.76 150.67 166.87 150.51 Z M 167.87 150.34 L 168.85 150.20 C 169.95 150.03 170.71 149.01 170.55 147.91 C 170.38 146.81 169.36 146.05 168.26 146.22 L 167.28 146.36 C 166.18 146.53 165.42 147.55 165.59 148.65 C 165.75 149.75 166.77 150.51 167.87 150.34 Z M 168.83 150.18 L 169.84 150.04 C 170.93 149.89 171.69 148.88 171.54 147.79 C 171.39 146.70 170.38 145.94 169.29 146.09 L 168.28 146.23 C 167.19 146.39 166.43 147.39 166.58 148.48 C 166.74 149.58 167.74 150.33 168.83 150.18 Z M 169.83 150.02 L 170.81 149.89 C 171.89 149.74 172.64 148.74 172.49 147.66 C 172.35 146.58 171.35 145.83 170.27 145.97 L 169.30 146.11 C 168.21 146.26 167.46 147.25 167.61 148.34 C 167.76 149.42 168.75 150.17 169.83 150.02 Z M 170.81 149.86 L 171.80 149.72 C 172.87 149.57 173.61 148.58 173.46 147.52 C 173.31 146.45 172.32 145.71 171.25 145.86 L 170.26 146.00 C 169.19 146.15 168.45 147.14 168.60 148.21 C 168.76 149.27 169.74 150.02 170.81 149.86 Z M 171.81 149.69 L 172.79 149.54 C 173.84 149.39 174.57 148.42 174.42 147.37 C 174.26 146.32 173.29 145.60 172.24 145.75 L 171.25 145.89 C 170.20 146.05 169.48 147.02 169.63 148.07 C 169.78 149.12 170.76 149.84 171.81 149.69 Z M 172.79 149.51 L 173.79 149.37 C 174.82 149.22 175.53 148.26 175.38 147.23 C 175.23 146.20 174.27 145.48 173.24 145.63 L 172.24 145.78 C 171.21 145.93 170.50 146.89 170.65 147.92 C 170.80 148.95 171.76 149.66 172.79 149.51 Z M 173.78 149.34 L 174.77 149.19 C 175.79 149.04 176.49 148.10 176.34 147.08 C 176.19 146.07 175.25 145.37 174.23 145.51 L 173.24 145.66 C 172.23 145.81 171.52 146.75 171.67 147.77 C 171.82 148.79 172.77 149.49 173.78 149.34 Z M 174.79 149.17 L 175.77 149.02 C 176.78 148.86 177.46 147.92 177.31 146.92 C 177.15 145.92 176.21 145.23 175.21 145.39 L 174.22 145.54 C 173.22 145.70 172.53 146.63 172.69 147.64 C 172.84 148.64 173.78 149.33 174.79 149.17 Z M 175.82 148.99 L 176.80 148.81 C 177.79 148.63 178.44 147.68 178.26 146.69 C 178.08 145.70 177.13 145.05 176.14 145.23 L 175.16 145.41 C 174.17 145.59 173.52 146.54 173.70 147.53 C 173.88 148.52 174.83 149.17 175.82 148.99 Z M 176.83 148.79 L 177.81 148.59 C 178.79 148.39 179.42 147.43 179.21 146.45 C 179.01 145.48 178.06 144.85 177.08 145.05 L 176.10 145.25 C 175.13 145.45 174.50 146.41 174.70 147.38 C 174.90 148.36 175.86 148.99 176.83 148.79 Z M 177.80 148.58 L 178.78 148.39 C 179.75 148.19 180.39 147.24 180.19 146.26 C 179.99 145.29 179.04 144.66 178.06 144.86 L 177.09 145.05 C 176.11 145.25 175.48 146.20 175.68 147.18 C 175.88 148.15 176.83 148.78 177.80 148.58 Z M 178.77 148.39 L 179.44 148.25 C 180.42 148.06 181.05 147.11 180.86 146.14 C 180.66 145.16 179.72 144.53 178.74 144.72 L 178.07 144.85 C 177.10 145.05 176.46 146.00 176.66 146.97 C 176.85 147.95 177.80 148.58 178.77 148.39 Z"
      fill="black"
      fill-rule="nonzero" /><path d="M 166.22 133.56 L 165.92 134.49 C 165.59 135.48 166.13 136.55 167.12 136.88 C 168.11 137.20 169.18 136.67 169.51 135.67 L 169.81 134.75 C 170.14 133.76 169.60 132.69 168.61 132.36 C 167.62 132.03 166.55 132.57 166.22 133.56 Z M 165.76 134.69 L 165.57 135.67 C 165.35 136.75 166.05 137.79 167.12 138.01 C 168.20 138.22 169.25 137.53 169.46 136.45 L 169.66 135.47 C 169.87 134.40 169.18 133.35 168.10 133.13 C 167.03 132.92 165.98 133.62 165.76 134.69 Z M 165.46 136.08 L 165.47 137.08 C 165.48 138.22 166.40 139.13 167.54 139.12 C 168.68 139.11 169.59 138.18 169.58 137.05 L 169.57 136.04 C 169.56 134.91 168.63 133.99 167.50 134.00 C 166.36 134.01 165.45 134.94 165.46 136.08 Z M 165.47 137.41 L 165.64 138.42 C 165.83 139.55 166.91 140.31 168.05 140.12 C 169.18 139.93 169.94 138.85 169.75 137.71 L 169.58 136.71 C 169.38 135.58 168.31 134.82 167.17 135.01 C 166.04 135.20 165.27 136.28 165.47 137.41 Z M 165.67 138.58 L 165.91 139.55 C 166.20 140.67 167.33 141.35 168.45 141.07 C 169.57 140.78 170.25 139.65 169.97 138.53 L 169.72 137.55 C 169.44 136.43 168.30 135.75 167.18 136.04 C 166.06 136.32 165.38 137.46 165.67 138.58 Z M 165.92 139.60 L 166.20 140.60 C 166.51 141.71 167.67 142.37 168.78 142.05 C 169.90 141.74 170.55 140.58 170.24 139.47 L 169.96 138.47 C 169.65 137.36 168.49 136.71 167.38 137.02 C 166.26 137.33 165.61 138.49 165.92 139.60 Z M 166.20 140.61 L 166.46 141.55 C 166.78 142.66 167.94 143.31 169.06 142.99 C 170.18 142.68 170.82 141.51 170.51 140.40 L 170.24 139.46 C 169.92 138.34 168.76 137.69 167.64 138.01 C 166.53 138.33 165.88 139.49 166.20 140.61 Z M 166.46 141.54 L 166.71 142.45 C 167.03 143.57 168.19 144.23 169.31 143.92 C 170.43 143.60 171.08 142.44 170.77 141.32 L 170.51 140.40 C 170.20 139.28 169.04 138.63 167.92 138.94 C 166.80 139.26 166.14 140.42 166.46 141.54 Z M 166.71 142.44 L 166.96 143.38 C 167.27 144.51 168.43 145.17 169.55 144.86 C 170.67 144.56 171.34 143.40 171.03 142.28 L 170.78 141.33 C 170.47 140.21 169.31 139.55 168.19 139.85 C 167.06 140.16 166.40 141.32 166.71 142.44 Z M 166.96 143.38 L 167.23 144.39 C 167.54 145.52 168.69 146.18 169.82 145.88 C 170.94 145.58 171.61 144.42 171.31 143.30 L 171.03 142.28 C 170.73 141.16 169.57 140.49 168.45 140.79 C 167.32 141.09 166.66 142.25 166.96 143.38 Z M 167.23 144.39 L 167.49 145.33 C 167.79 146.46 168.95 147.13 170.07 146.83 C 171.20 146.52 171.87 145.36 171.56 144.24 L 171.31 143.29 C 171.01 142.17 169.85 141.50 168.72 141.80 C 167.60 142.11 166.93 143.27 167.23 144.39 Z M 167.49 145.34 L 167.75 146.31 C 168.05 147.43 169.21 148.10 170.33 147.80 C 171.46 147.49 172.13 146.33 171.82 145.21 L 171.56 144.24 C 171.26 143.11 170.10 142.44 168.97 142.75 C 167.85 143.05 167.18 144.21 167.49 145.34 Z M 167.75 146.31 L 168.01 147.30 C 168.32 148.42 169.48 149.09 170.60 148.78 C 171.73 148.48 172.39 147.32 172.09 146.20 L 171.82 145.21 C 171.52 144.08 170.36 143.42 169.24 143.72 C 168.11 144.02 167.44 145.18 167.75 146.31 Z M 168.01 147.30 L 168.27 148.26 C 168.58 149.38 169.73 150.05 170.86 149.74 C 171.99 149.44 172.65 148.28 172.35 147.16 L 172.09 146.20 C 171.79 145.07 170.63 144.40 169.50 144.71 C 168.38 145.01 167.71 146.17 168.01 147.30 Z M 168.27 148.25 L 168.53 149.21 C 168.83 150.34 169.99 151.01 171.11 150.71 C 172.24 150.41 172.91 149.25 172.61 148.12 L 172.35 147.16 C 172.05 146.03 170.89 145.36 169.77 145.67 C 168.64 145.97 167.97 147.12 168.27 148.25 Z M 168.53 149.20 L 168.78 150.18 C 169.08 151.31 170.23 151.98 171.36 151.69 C 172.49 151.39 173.16 150.23 172.87 149.11 L 172.61 148.13 C 172.31 147.00 171.16 146.33 170.03 146.63 C 168.90 146.92 168.23 148.08 168.53 149.20 Z M 168.78 150.17 L 169.02 151.12 C 169.31 152.25 170.46 152.93 171.59 152.64 C 172.72 152.35 173.40 151.20 173.11 150.07 L 172.87 149.12 C 172.58 147.99 171.43 147.31 170.30 147.60 C 169.17 147.89 168.49 149.04 168.78 150.17 Z M 169.02 151.11 L 169.26 152.07 C 169.55 153.20 170.69 153.89 171.82 153.61 C 172.96 153.32 173.64 152.18 173.36 151.05 L 173.12 150.08 C 172.83 148.95 171.69 148.26 170.56 148.55 C 169.42 148.83 168.74 149.98 169.02 151.11 Z M 169.26 152.06 L 169.50 153.05 C 169.78 154.18 170.92 154.87 172.06 154.60 C 173.19 154.32 173.88 153.17 173.60 152.04 L 173.36 151.06 C 173.08 149.92 171.94 149.23 170.81 149.51 C 169.68 149.79 168.98 150.93 169.26 152.06 Z M 169.50 153.04 L 169.73 154.01 C 170.01 155.15 171.15 155.84 172.28 155.57 C 173.41 155.30 174.11 154.16 173.84 153.02 L 173.60 152.05 C 173.33 150.92 172.19 150.22 171.06 150.49 C 169.93 150.77 169.23 151.91 169.50 153.04 Z M 169.73 154.01 L 169.97 154.97 C 170.24 156.11 171.37 156.81 172.51 156.54 C 173.64 156.27 174.34 155.13 174.07 154.00 L 173.84 153.03 C 173.57 151.90 172.43 151.20 171.30 151.47 C 170.16 151.74 169.46 152.87 169.73 154.01 Z M 169.97 154.97 L 170.20 155.95 C 170.47 157.09 171.61 157.78 172.74 157.51 C 173.87 157.24 174.57 156.11 174.30 154.97 L 174.07 154.00 C 173.80 152.86 172.66 152.16 171.53 152.43 C 170.40 152.70 169.70 153.84 169.97 154.97 Z M 170.20 155.96 L 170.44 156.94 C 170.71 158.07 171.85 158.77 172.98 158.49 C 174.11 158.22 174.81 157.08 174.54 155.95 L 174.30 154.97 C 174.03 153.84 172.89 153.14 171.76 153.42 C 170.62 153.69 169.93 154.83 170.20 155.96 Z M 170.44 156.95 L 170.68 157.91 C 170.96 159.04 172.10 159.73 173.23 159.45 C 174.36 159.18 175.05 158.04 174.77 156.91 L 174.53 155.94 C 174.25 154.81 173.12 154.12 171.99 154.40 C 170.86 154.68 170.17 155.82 170.44 156.95 Z M 170.68 157.91 L 170.92 158.88 C 171.20 160.01 172.33 160.70 173.46 160.42 C 174.59 160.15 175.28 159.01 175.00 157.88 L 174.77 156.91 C 174.49 155.78 173.35 155.09 172.23 155.37 C 171.10 155.64 170.41 156.78 170.68 157.91 Z M 170.92 158.87 L 171.15 159.84 C 171.42 160.97 172.55 161.67 173.68 161.40 C 174.81 161.13 175.50 160.00 175.24 158.87 L 175.00 157.89 C 174.73 156.77 173.60 156.07 172.48 156.34 C 171.35 156.61 170.65 157.74 170.92 158.87 Z M 171.15 159.82 L 171.37 160.79 C 171.63 161.92 172.75 162.63 173.88 162.37 C 175.01 162.11 175.72 160.99 175.46 159.86 L 175.24 158.89 C 174.98 157.77 173.86 157.06 172.73 157.32 C 171.60 157.57 170.90 158.69 171.15 159.82 Z M 171.37 160.77 L 171.58 161.74 C 171.83 162.87 172.94 163.58 174.07 163.34 C 175.20 163.09 175.92 161.98 175.67 160.85 L 175.46 159.88 C 175.22 158.75 174.10 158.04 172.97 158.28 C 171.84 158.53 171.13 159.64 171.37 160.77 Z M 171.58 161.73 L 171.79 162.71 C 172.03 163.84 173.13 164.56 174.26 164.32 C 175.39 164.08 176.12 162.97 175.88 161.84 L 175.67 160.86 C 175.43 159.73 174.32 159.01 173.19 159.25 C 172.06 159.49 171.34 160.60 171.58 161.73 Z M 171.79 162.70 L 172.00 163.70 C 172.23 164.83 173.34 165.55 174.47 165.32 C 175.60 165.08 176.32 163.97 176.09 162.85 L 175.88 161.85 C 175.64 160.72 174.54 160.00 173.41 160.23 C 172.28 160.47 171.55 161.57 171.79 162.70 Z M 172.00 163.70 L 172.20 164.70 C 172.44 165.82 173.54 166.55 174.67 166.31 C 175.80 166.08 176.53 164.97 176.29 163.84 L 176.08 162.85 C 175.85 161.72 174.74 160.99 173.62 161.23 C 172.49 161.46 171.76 162.57 172.00 163.70 Z M 172.20 164.69 L 172.41 165.69 C 172.64 166.82 173.75 167.54 174.88 167.31 C 176.01 167.08 176.73 165.97 176.50 164.84 L 176.29 163.85 C 176.06 162.72 174.96 161.99 173.83 162.23 C 172.70 162.46 171.97 163.56 172.20 164.69 Z M 172.41 165.68 L 172.61 166.65 C 172.83 167.78 173.94 168.51 175.07 168.28 C 176.20 168.05 176.93 166.95 176.70 165.82 L 176.50 164.85 C 176.27 163.72 175.17 162.99 174.04 163.22 C 172.91 163.45 172.18 164.55 172.41 165.68 Z M 172.60 166.64 L 172.79 167.62 C 173.02 168.75 174.11 169.49 175.24 169.27 C 176.38 169.05 177.11 167.95 176.89 166.82 L 176.70 165.84 C 176.48 164.70 175.38 163.97 174.25 164.19 C 173.12 164.41 172.38 165.51 172.60 166.64 Z M 172.79 167.60 L 172.98 168.62 C 173.19 169.75 174.28 170.50 175.42 170.29 C 176.55 170.07 177.30 168.98 177.09 167.85 L 176.90 166.83 C 176.68 165.70 175.59 164.96 174.46 165.17 C 173.33 165.38 172.58 166.47 172.79 167.60 Z M 172.98 168.61 L 173.15 169.57 C 173.36 170.70 174.45 171.46 175.58 171.25 C 176.72 171.04 177.47 169.96 177.26 168.82 L 177.09 167.86 C 176.88 166.73 175.79 165.97 174.66 166.18 C 173.53 166.39 172.77 167.47 172.98 168.61 Z M 173.15 169.57 L 173.33 170.52 C 173.53 171.65 174.62 172.41 175.75 172.20 C 176.89 172.00 177.64 170.91 177.44 169.78 L 177.26 168.82 C 177.06 167.69 175.97 166.94 174.84 167.14 C 173.70 167.35 172.95 168.43 173.15 169.57 Z M 173.33 170.52 L 173.51 171.52 C 173.72 172.66 174.81 173.41 175.94 173.20 C 177.07 173.00 177.83 171.91 177.62 170.77 L 177.44 169.77 C 177.23 168.64 176.14 167.89 175.00 168.09 C 173.87 168.30 173.12 169.39 173.33 170.52 Z M 173.51 171.53 L 173.69 172.50 C 173.90 173.64 174.99 174.39 176.12 174.18 C 177.26 173.97 178.01 172.88 177.80 171.75 L 177.62 170.77 C 177.41 169.64 176.32 168.89 175.19 169.09 C 174.05 169.30 173.30 170.39 173.51 171.53 Z M 173.69 172.50 L 173.87 173.49 C 174.08 174.62 175.17 175.37 176.30 175.17 C 177.44 174.96 178.19 173.87 177.98 172.73 L 177.80 171.75 C 177.59 170.61 176.50 169.86 175.37 170.07 C 174.23 170.28 173.48 171.37 173.69 172.50 Z M 173.87 173.48 L 174.05 174.49 C 174.26 175.63 175.34 176.38 176.48 176.17 C 177.62 175.97 178.37 174.88 178.16 173.74 L 177.98 172.74 C 177.77 171.60 176.69 170.85 175.55 171.05 C 174.42 171.26 173.66 172.35 173.87 173.48 Z M 174.05 174.49 L 174.22 175.45 C 174.43 176.58 175.52 177.34 176.65 177.13 C 177.79 176.92 178.54 175.84 178.34 174.70 L 178.16 173.74 C 177.96 172.61 176.87 171.85 175.73 172.06 C 174.60 172.26 173.84 173.35 174.05 174.49 Z M 174.22 175.45 L 174.41 176.46 C 174.61 177.60 175.70 178.35 176.84 178.15 C 177.98 177.94 178.73 176.85 178.52 175.71 L 178.34 174.70 C 178.13 173.56 177.04 172.81 175.90 173.01 C 174.77 173.22 174.01 174.31 174.22 175.45 Z M 174.41 176.48 L 174.59 177.44 C 174.80 178.58 175.90 179.33 177.04 179.11 C 178.17 178.90 178.92 177.81 178.71 176.67 L 178.52 175.70 C 178.31 174.56 177.21 173.82 176.08 174.03 C 174.94 174.24 174.19 175.34 174.41 176.48 Z M 174.59 177.47 L 174.79 178.44 C 175.02 179.58 176.12 180.31 177.26 180.08 C 178.39 179.86 179.13 178.75 178.90 177.62 L 178.70 176.64 C 178.47 175.51 177.37 174.77 176.23 175.00 C 175.10 175.23 174.36 176.33 174.59 177.47 Z M 174.79 178.48 L 175.01 179.44 C 175.26 180.58 176.38 181.29 177.51 181.04 C 178.64 180.79 179.35 179.67 179.10 178.54 L 178.89 177.58 C 178.64 176.45 177.52 175.73 176.39 175.98 C 175.26 176.23 174.54 177.35 174.79 178.48 Z M 175.02 179.49 L 175.25 180.46 C 175.53 181.59 176.67 182.28 177.79 182.00 C 178.92 181.73 179.61 180.59 179.33 179.46 L 179.10 178.49 C 178.82 177.37 177.68 176.68 176.56 176.95 C 175.43 177.23 174.74 178.37 175.02 179.49 Z M 175.28 180.57 L 175.56 181.52 C 175.90 182.63 177.07 183.26 178.18 182.93 C 179.30 182.60 179.93 181.43 179.59 180.31 L 179.31 179.36 C 178.98 178.25 177.80 177.61 176.69 177.95 C 175.58 178.28 174.94 179.45 175.28 180.57 Z M 175.63 181.73 L 176.02 182.67 C 176.47 183.74 177.71 184.25 178.79 183.80 C 179.86 183.35 180.37 182.11 179.92 181.03 L 179.53 180.10 C 179.07 179.02 177.84 178.52 176.76 178.97 C 175.69 179.42 175.18 180.66 175.63 181.73 Z M 176.22 183.05 L 176.78 183.86 C 177.44 184.83 178.76 185.07 179.73 184.41 C 180.69 183.75 180.94 182.43 180.27 181.46 L 179.72 180.65 C 179.06 179.69 177.74 179.44 176.77 180.10 C 175.81 180.76 175.56 182.08 176.22 183.05 Z M 177.21 184.33 L 177.99 184.95 C 178.92 185.68 180.25 185.52 180.98 184.60 C 181.71 183.68 181.55 182.34 180.63 181.61 L 179.84 180.99 C 178.92 180.26 177.58 180.42 176.86 181.34 C 176.13 182.27 176.29 183.60 177.21 184.33 Z M 178.67 185.31 L 179.58 185.60 C 180.70 185.95 181.90 185.33 182.25 184.21 C 182.61 183.09 181.98 181.89 180.86 181.53 L 179.95 181.25 C 178.83 180.89 177.63 181.52 177.28 182.64 C 176.92 183.76 177.55 184.96 178.67 185.31 Z M 180.47 185.69 L 181.48 185.57 C 182.65 185.43 183.49 184.37 183.36 183.20 C 183.22 182.03 182.16 181.19 180.98 181.33 L 179.97 181.44 C 178.80 181.58 177.96 182.64 178.10 183.82 C 178.23 184.99 179.30 185.83 180.47 185.69 Z M 182.12 185.40 L 182.99 185.00 C 184.07 184.51 184.54 183.24 184.05 182.16 C 183.56 181.09 182.29 180.61 181.21 181.10 L 180.35 181.50 C 179.27 181.99 178.79 183.26 179.29 184.34 C 179.78 185.41 181.05 185.89 182.12 185.40 Z M 183.28 184.84 L 184.15 184.27 C 185.14 183.62 185.41 182.29 184.76 181.31 C 184.11 180.32 182.78 180.04 181.79 180.69 L 180.93 181.26 C 179.94 181.91 179.66 183.24 180.31 184.23 C 180.96 185.22 182.29 185.49 183.28 184.84 Z M 184.31 184.15 L 185.10 183.52 C 186.02 182.78 186.17 181.43 185.43 180.51 C 184.69 179.59 183.34 179.44 182.42 180.18 L 181.63 180.81 C 180.71 181.55 180.56 182.90 181.30 183.82 C 182.04 184.74 183.39 184.89 184.31 184.15 Z M 185.22 183.40 L 185.95 182.72 C 186.81 181.92 186.85 180.57 186.04 179.71 C 185.24 178.85 183.89 178.80 183.03 179.61 L 182.30 180.29 C 181.44 181.10 181.40 182.45 182.20 183.31 C 183.01 184.17 184.36 184.21 185.22 183.40 Z M 186.03 182.63 L 186.72 181.90 C 187.52 181.05 187.48 179.70 186.63 178.90 C 185.77 178.09 184.43 178.13 183.62 178.98 L 182.94 179.71 C 182.13 180.56 182.17 181.91 183.03 182.71 C 183.88 183.52 185.23 183.48 186.03 182.63 Z M 186.77 181.82 L 187.42 181.06 C 188.19 180.17 188.08 178.84 187.20 178.08 C 186.31 177.32 184.98 177.42 184.22 178.31 L 183.56 179.07 C 182.80 179.95 182.91 181.29 183.79 182.05 C 184.68 182.81 186.01 182.71 186.77 181.82 Z M 187.46 180.99 L 188.09 180.21 C 188.81 179.30 188.66 177.98 187.76 177.26 C 186.85 176.54 185.54 176.68 184.81 177.59 L 184.18 178.37 C 183.46 179.28 183.61 180.60 184.51 181.32 C 185.42 182.04 186.74 181.90 187.46 180.99 Z M 188.11 180.14 L 188.71 179.33 C 189.39 178.42 189.20 177.12 188.29 176.44 C 187.37 175.75 186.08 175.94 185.39 176.86 L 184.79 177.66 C 184.11 178.57 184.29 179.87 185.21 180.55 C 186.12 181.24 187.42 181.05 188.11 180.14 Z M 188.73 179.25 L 189.30 178.42 C 189.94 177.50 189.70 176.23 188.78 175.59 C 187.85 174.95 186.58 175.19 185.94 176.11 L 185.37 176.94 C 184.73 177.87 184.97 179.13 185.89 179.77 C 186.82 180.41 188.09 180.18 188.73 179.25 Z M 189.31 178.32 L 189.85 177.45 C 190.43 176.52 190.15 175.29 189.22 174.71 C 188.29 174.12 187.06 174.41 186.48 175.34 L 185.93 176.21 C 185.35 177.14 185.63 178.37 186.57 178.95 C 187.50 179.54 188.73 179.25 189.31 178.32 Z M 189.85 177.34 L 190.33 176.49 C 190.85 175.56 190.52 174.38 189.58 173.86 C 188.65 173.34 187.48 173.67 186.96 174.60 L 186.48 175.45 C 185.96 176.38 186.29 177.56 187.22 178.08 C 188.15 178.60 189.33 178.27 189.85 177.34 Z M 190.32 176.37 L 190.77 175.46 C 191.23 174.53 190.84 173.41 189.92 172.95 C 188.99 172.50 187.86 172.88 187.41 173.81 L 186.96 174.72 C 186.50 175.65 186.89 176.77 187.81 177.23 C 188.74 177.68 189.86 177.30 190.32 176.37 Z M 190.75 175.40 L 190.97 174.91 C 191.39 173.99 190.99 172.90 190.07 172.48 C 189.16 172.06 188.07 172.47 187.65 173.38 L 187.43 173.87 C 187.01 174.79 187.41 175.88 188.33 176.30 C 189.25 176.72 190.33 176.31 190.75 175.40 Z"
      fill="black"
      fill-rule="nonzero" /></svg>