<svg xmlns="http://www.w3.org/2000/svg" width="300" height="300" viewBox="0 0 300 300">
<path d="M 129.75 128.29 L 130.86 127.66 C 131.77 127.14 132.10 125.97 131.57 125.05 C 131.05 124.14 129.88 123.81 128.96 124.34 L 127.86 124.96 C 126.94 125.49 126.62 126.66 127.14 127.57 C 127.66 128.49 128.83 128.82 129.75 128.29 Z M 130.04 128.03 L 130.45 128.00 C 131.57 127.93 132.41 126.96 132.34 125.84 C 132.27 124.72 131.30 123.87 130.18 123.95 L 129.78 123.97 C 128.66 124.05 127.81 125.01 127.88 126.13 C 127.96 127.25 128.92 128.10 130.04 128.03 Z M 128.61 124.80 L 128.05 125.61 C 127.41 126.55 127.64 127.84 128.58 128.49 C 129.52 129.13 130.81 128.90 131.46 127.96 L 132.02 127.15 C 132.66 126.21 132.43 124.92 131.49 124.27 C 130.55 123.62 129.26 123.86 128.61 124.80 Z M 128.16 125.50 L 127.47 126.36 C 126.77 127.24 126.91 128.53 127.79 129.24 C 128.67 129.94 129.96 129.80 130.67 128.92 L 131.35 128.06 C 132.06 127.18 131.92 125.89 131.04 125.19 C 130.15 124.48 128.87 124.62 128.16 125.50 Z M 127.48 126.38 L 126.89 127.12 C 126.19 128.00 126.34 129.27 127.22 129.97 C 128.10 130.67 129.37 130.52 130.07 129.65 L 130.66 128.90 C 131.36 128.02 131.21 126.75 130.33 126.05 C 129.46 125.35 128.18 125.50 127.48 126.38 Z M 126.91 127.12 L 126.22 127.99 C 125.52 128.86 125.67 130.12 126.54 130.82 C 127.41 131.51 128.67 131.37 129.37 130.50 L 130.06 129.64 C 130.75 128.77 130.61 127.50 129.74 126.81 C 128.87 126.11 127.60 126.25 126.91 127.12 Z M 126.23 127.98 L 125.63 128.73 C 124.93 129.60 125.07 130.86 125.93 131.55 C 126.79 132.25 128.05 132.11 128.75 131.25 L 129.35 130.50 C 130.05 129.64 129.91 128.38 129.05 127.68 C 128.19 126.99 126.93 127.12 126.23 127.98 Z M 125.64 128.73 L 124.99 129.52 C 124.30 130.37 124.42 131.63 125.28 132.33 C 126.13 133.03 127.39 132.90 128.09 132.05 L 128.74 131.26 C 129.43 130.40 129.31 129.14 128.45 128.44 C 127.60 127.75 126.34 127.87 125.64 128.73 Z M 125.01 129.51 L 124.35 130.31 C 123.65 131.15 123.77 132.41 124.61 133.11 C 125.46 133.81 126.71 133.70 127.42 132.85 L 128.08 132.06 C 128.78 131.21 128.66 129.95 127.81 129.25 C 126.97 128.55 125.71 128.67 125.01 129.51 Z M 124.37 130.30 L 123.69 131.10 C 122.98 131.94 123.08 133.19 123.92 133.90 C 124.75 134.61 126.00 134.50 126.71 133.67 L 127.40 132.86 C 128.11 132.03 128.00 130.77 127.17 130.07 C 126.33 129.36 125.08 129.46 124.37 130.30 Z M 123.71 131.08 L 122.99 131.92 C 122.27 132.74 122.35 133.99 123.17 134.70 C 124.00 135.42 125.24 135.34 125.96 134.52 L 126.69 133.69 C 127.41 132.86 127.32 131.62 126.50 130.90 C 125.68 130.18 124.43 130.26 123.71 131.08 Z M 123.01 131.90 L 122.38 132.60 C 121.66 133.42 121.73 134.66 122.54 135.38 C 123.35 136.11 124.59 136.04 125.32 135.23 L 125.94 134.53 C 126.67 133.72 126.60 132.47 125.79 131.75 C 124.97 131.02 123.73 131.09 123.01 131.90 Z M 122.39 132.61 L 121.76 133.31 C 121.04 134.12 121.10 135.36 121.91 136.08 C 122.72 136.80 123.96 136.73 124.68 135.93 L 125.31 135.22 C 126.03 134.42 125.96 133.18 125.16 132.45 C 124.35 131.73 123.11 131.80 122.39 132.61 Z M 121.76 133.31 L 121.12 134.02 C 120.39 134.83 120.46 136.07 121.26 136.79 C 122.07 137.52 123.30 137.45 124.03 136.65 L 124.67 135.93 C 125.40 135.13 125.33 133.89 124.53 133.16 C 123.73 132.44 122.49 132.50 121.76 133.31 Z M 121.15 133.99 L 120.49 134.69 C 119.74 135.47 119.77 136.71 120.56 137.46 C 121.34 138.20 122.58 138.17 123.32 137.39 L 123.99 136.69 C 124.74 135.90 124.71 134.66 123.92 133.92 C 123.14 133.17 121.90 133.20 121.15 133.99 Z M 120.52 134.65 L 119.80 135.38 C 119.04 136.14 119.04 137.38 119.80 138.14 C 120.57 138.91 121.81 138.91 122.57 138.14 L 123.29 137.42 C 124.05 136.65 124.05 135.42 123.29 134.65 C 122.52 133.89 121.28 133.89 120.52 134.65 Z M 119.82 135.36 L 119.08 136.08 C 118.31 136.84 118.29 138.07 119.04 138.85 C 119.80 139.62 121.04 139.64 121.81 138.88 L 122.55 138.16 C 123.33 137.40 123.34 136.17 122.59 135.39 C 121.83 134.62 120.59 134.60 119.82 135.36 Z M 119.06 136.10 L 118.38 136.79 C 117.61 137.55 117.61 138.79 118.38 139.55 C 119.14 140.31 120.38 140.31 121.14 139.55 L 121.83 138.86 C 122.59 138.10 122.59 136.86 121.83 136.10 C 121.06 135.34 119.82 135.34 119.06 136.10 Z M 118.20 136.99 L 117.55 137.85 C 116.90 138.71 117.07 139.93 117.93 140.58 C 118.79 141.23 120.01 141.07 120.66 140.21 L 121.31 139.35 C 121.96 138.49 121.79 137.27 120.94 136.62 C 120.08 135.96 118.86 136.13 118.20 136.99 Z M 117.56 140.21 L 117.91 140.67 C 118.56 141.53 119.78 141.70 120.64 141.05 C 121.49 140.40 121.66 139.18 121.01 138.32 L 120.65 137.85 C 120.00 137.00 118.78 136.83 117.93 137.48 C 117.07 138.13 116.91 139.35 117.56 140.21 Z M 119.22 141.42 L 120.39 141.57 C 121.46 141.70 122.43 140.95 122.56 139.88 C 122.69 138.82 121.94 137.85 120.87 137.72 L 119.70 137.57 C 118.64 137.44 117.67 138.19 117.53 139.26 C 117.40 140.32 118.16 141.29 119.22 141.42 Z M 120.57 141.58 L 121.53 141.61 C 122.60 141.65 123.50 140.81 123.53 139.73 C 123.57 138.66 122.72 137.77 121.65 137.73 L 120.69 137.70 C 119.62 137.67 118.73 138.51 118.69 139.58 C 118.66 140.65 119.50 141.55 120.57 141.58 Z M 121.58 141.61 L 122.61 141.62 C 123.68 141.63 124.56 140.77 124.57 139.70 C 124.57 138.63 123.71 137.75 122.64 137.74 L 121.61 137.73 C 120.54 137.72 119.66 138.59 119.65 139.66 C 119.64 140.73 120.51 141.61 121.58 141.61 Z M 122.63 141.62 L 123.67 141.62 C 124.74 141.62 125.61 140.75 125.61 139.68 C 125.61 138.61 124.74 137.74 123.67 137.74 L 122.63 137.74 C 121.55 137.74 120.69 138.61 120.68 139.68 C 120.68 140.75 121.55 141.62 122.63 141.62 Z M 123.67 141.62 L 124.68 141.62 C 125.75 141.61 126.62 140.74 126.62 139.67 C 126.61 138.60 125.74 137.74 124.67 137.74 L 123.66 137.74 C 122.59 137.75 121.72 138.62 121.73 139.69 C 121.73 140.76 122.60 141.63 123.67 141.62 Z M 124.71 141.62 L 125.68 141.60 C 126.74 141.58 127.60 140.70 127.58 139.63 C 127.56 138.56 126.68 137.71 125.61 137.73 L 124.64 137.74 C 123.57 137.76 122.72 138.64 122.74 139.71 C 122.76 140.78 123.64 141.63 124.71 141.62 Z M 125.72 141.60 L 126.67 141.56 C 127.73 141.51 128.56 140.61 128.52 139.54 C 128.48 138.48 127.57 137.65 126.51 137.69 L 125.56 137.73 C 124.50 137.77 123.67 138.68 123.71 139.74 C 123.75 140.81 124.66 141.64 125.72 141.60 Z M 126.76 141.55 L 127.76 141.46 C 128.82 141.36 129.60 140.42 129.51 139.36 C 129.41 138.29 128.47 137.51 127.41 137.61 L 126.41 137.70 C 125.35 137.80 124.57 138.74 124.66 139.80 C 124.76 140.86 125.70 141.64 126.76 141.55 Z M 127.88 141.44 L 128.91 141.28 C 129.96 141.12 130.68 140.13 130.52 139.08 C 130.36 138.02 129.37 137.30 128.32 137.47 L 127.29 137.63 C 126.23 137.79 125.51 138.78 125.68 139.83 C 125.84 140.88 126.83 141.60 127.88 141.44 Z M 129.00 141.26 L 130.00 141.06 C 131.05 140.85 131.72 139.83 131.51 138.79 C 131.30 137.75 130.29 137.07 129.24 137.28 L 128.23 137.48 C 127.19 137.69 126.51 138.71 126.72 139.75 C 126.93 140.80 127.95 141.47 129.00 141.26 Z M 130.04 141.05 L 131.03 140.83 C 132.07 140.60 132.73 139.57 132.50 138.53 C 132.26 137.49 131.23 136.84 130.20 137.07 L 129.20 137.29 C 128.17 137.52 127.51 138.55 127.74 139.59 C 127.97 140.63 129.00 141.28 130.04 141.05 Z M 131.04 140.83 L 132.05 140.60 C 133.09 140.37 133.74 139.34 133.50 138.30 C 133.27 137.26 132.24 136.61 131.20 136.84 L 130.19 137.07 C 129.15 137.30 128.50 138.33 128.73 139.37 C 128.97 140.41 130.00 141.06 131.04 140.83 Z M 132.02 140.60 L 133.01 140.39 C 134.05 140.17 134.71 139.15 134.49 138.11 C 134.27 137.07 133.25 136.41 132.21 136.63 L 131.23 136.84 C 130.19 137.06 129.52 138.08 129.74 139.12 C 129.96 140.16 130.99 140.82 132.02 140.60 Z M 132.97 140.40 L 133.95 140.21 C 134.99 140.01 135.67 139.01 135.47 137.96 C 135.27 136.92 134.26 136.24 133.22 136.44 L 132.25 136.62 C 131.20 136.82 130.52 137.83 130.72 138.88 C 130.92 139.92 131.93 140.60 132.97 140.40 Z M 133.73 140.26 L 134.75 140.18 C 135.81 140.11 136.62 139.18 136.54 138.11 C 136.46 137.04 135.53 136.24 134.46 136.32 L 133.44 136.39 C 132.38 136.47 131.57 137.40 131.65 138.47 C 131.73 139.53 132.66 140.34 133.73 140.26 Z M 132.67 138.53 L 132.73 138.96 C 132.88 140.03 133.87 140.77 134.94 140.62 C 136.01 140.47 136.75 139.48 136.60 138.41 L 136.54 137.98 C 136.39 136.91 135.40 136.16 134.33 136.32 C 133.26 136.47 132.52 137.46 132.67 138.53 Z M 133.19 137.39 L 132.33 138.37 C 131.62 139.19 131.71 140.43 132.53 141.14 C 133.34 141.85 134.58 141.77 135.29 140.95 L 136.15 139.97 C 136.86 139.15 136.77 137.91 135.95 137.20 C 135.14 136.49 133.90 136.58 133.19 137.39 Z M 132.44 138.26 L 131.82 138.86 C 131.05 139.62 131.03 140.86 131.79 141.64 C 132.55 142.41 133.79 142.43 134.57 141.67 L 135.19 141.06 C 135.96 140.31 135.98 139.06 135.22 138.29 C 134.46 137.51 133.22 137.50 132.44 138.26 Z M 131.85 138.84 L 131.13 139.52 C 130.34 140.26 130.30 141.50 131.04 142.29 C 131.78 143.08 133.03 143.12 133.82 142.38 L 134.54 141.70 C 135.33 140.95 135.37 139.71 134.63 138.92 C 133.88 138.13 132.64 138.09 131.85 138.84 Z M 131.14 139.50 L 130.36 140.22 C 129.56 140.95 129.50 142.20 130.23 143.00 C 130.96 143.80 132.21 143.85 133.01 143.12 L 133.80 142.40 C 134.60 141.66 134.65 140.42 133.92 139.62 C 133.19 138.82 131.94 138.77 131.14 139.50 Z M 130.37 140.21 L 129.56 140.94 C 128.75 141.66 128.68 142.90 129.41 143.71 C 130.13 144.52 131.37 144.58 132.18 143.86 L 132.99 143.13 C 133.80 142.41 133.87 141.17 133.14 140.36 C 132.42 139.55 131.18 139.48 130.37 140.21 Z M 129.57 140.93 L 128.76 141.64 C 127.94 142.36 127.87 143.60 128.58 144.41 C 129.30 145.23 130.54 145.31 131.36 144.59 L 132.17 143.87 C 132.98 143.15 133.06 141.91 132.34 141.10 C 131.63 140.29 130.38 140.21 129.57 140.93 Z M 128.77 141.63 L 127.99 142.31 C 127.17 143.02 127.08 144.26 127.80 145.08 C 128.51 145.90 129.75 145.99 130.57 145.27 L 131.35 144.60 C 132.16 143.88 132.25 142.64 131.54 141.83 C 130.83 141.01 129.59 140.92 128.77 141.63 Z M 127.99 142.31 L 127.26 142.94 C 126.44 143.65 126.35 144.89 127.06 145.71 C 127.77 146.53 129.00 146.62 129.83 145.91 L 130.56 145.28 C 131.38 144.57 131.47 143.33 130.76 142.51 C 130.06 141.69 128.82 141.60 127.99 142.31 Z M 127.26 142.94 L 126.57 143.54 C 125.74 144.25 125.65 145.49 126.36 146.31 C 127.07 147.13 128.31 147.22 129.13 146.51 L 129.82 145.91 C 130.64 145.21 130.74 143.97 130.03 143.15 C 129.32 142.33 128.08 142.23 127.26 142.94 Z M 126.57 143.54 L 125.78 144.22 C 124.96 144.93 124.87 146.17 125.57 146.99 C 126.28 147.81 127.52 147.90 128.34 147.19 L 129.13 146.51 C 129.95 145.80 130.04 144.56 129.33 143.75 C 128.62 142.93 127.38 142.83 126.57 143.54 Z M 125.77 144.23 L 125.04 144.87 C 124.22 145.58 124.13 146.81 124.84 147.63 C 125.55 148.45 126.79 148.53 127.60 147.83 L 128.34 147.19 C 129.16 146.48 129.24 145.24 128.54 144.43 C 127.83 143.61 126.59 143.52 125.77 144.23 Z M 125.04 144.87 L 124.31 145.51 C 123.49 146.22 123.40 147.45 124.11 148.27 C 124.82 149.08 126.06 149.17 126.87 148.46 L 127.60 147.82 C 128.42 147.11 128.51 145.88 127.80 145.06 C 127.09 144.25 125.85 144.16 125.04 144.87 Z M 124.30 145.51 L 123.55 146.17 C 122.73 146.88 122.65 148.11 123.36 148.93 C 124.07 149.74 125.31 149.83 126.13 149.12 L 126.88 148.46 C 127.69 147.75 127.78 146.51 127.06 145.69 C 126.35 144.88 125.11 144.80 124.30 145.51 Z M 123.53 146.17 L 122.77 146.85 C 121.96 147.57 121.89 148.82 122.61 149.63 C 123.34 150.44 124.58 150.51 125.39 149.78 L 126.15 149.11 C 126.96 148.38 127.03 147.14 126.30 146.33 C 125.58 145.52 124.34 145.45 123.53 146.17 Z M 122.73 146.87 L 122.01 147.55 C 121.21 148.30 121.17 149.55 121.91 150.35 C 122.66 151.14 123.91 151.18 124.71 150.44 L 125.43 149.76 C 126.23 149.01 126.27 147.76 125.52 146.97 C 124.78 146.17 123.53 146.13 122.73 146.87 Z M 121.94 147.60 L 121.17 148.39 C 120.40 149.17 120.41 150.43 121.20 151.20 C 121.98 151.97 123.24 151.95 124.01 151.17 L 124.78 150.39 C 125.55 149.60 125.53 148.34 124.75 147.57 C 123.96 146.81 122.71 146.82 121.94 147.60 Z M 121.06 148.49 L 120.43 149.24 C 119.71 150.08 119.82 151.34 120.66 152.06 C 121.51 152.77 122.77 152.66 123.48 151.82 L 124.12 151.07 C 124.83 150.23 124.72 148.96 123.88 148.25 C 123.04 147.54 121.77 147.64 121.06 148.49 Z M 120.25 149.46 L 119.71 150.32 C 119.12 151.26 119.40 152.50 120.34 153.09 C 121.28 153.69 122.53 153.40 123.12 152.46 L 123.66 151.60 C 124.25 150.66 123.97 149.42 123.02 148.82 C 122.08 148.23 120.84 148.52 120.25 149.46 Z M 119.42 151.03 L 119.26 151.94 C 119.06 153.04 119.79 154.09 120.89 154.29 C 121.99 154.49 123.05 153.76 123.25 152.65 L 123.41 151.75 C 123.60 150.65 122.87 149.59 121.77 149.40 C 120.67 149.20 119.62 149.93 119.42 151.03 Z M 120.09 153.97 L 120.76 154.44 C 121.69 155.08 122.95 154.85 123.60 153.92 C 124.24 153.00 124.01 151.73 123.08 151.09 L 122.41 150.62 C 121.49 149.98 120.22 150.21 119.58 151.14 C 118.94 152.06 119.17 153.33 120.09 153.97 Z M 121.70 154.79 L 122.75 154.91 C 123.87 155.03 124.88 154.22 125.00 153.10 C 125.13 151.98 124.32 150.97 123.20 150.85 L 122.15 150.73 C 121.02 150.61 120.01 151.42 119.89 152.54 C 119.77 153.66 120.58 154.67 121.70 154.79 Z M 122.94 154.92 L 123.94 154.94 C 125.07 154.95 126.00 154.05 126.01 152.92 C 126.03 151.79 125.13 150.86 124.00 150.85 L 123.00 150.83 C 121.87 150.82 120.95 151.72 120.93 152.85 C 120.91 153.98 121.81 154.91 122.94 154.92 Z M 124.01 154.93 L 125.01 154.91 C 126.14 154.89 127.03 153.95 127.01 152.83 C 126.98 151.70 126.05 150.80 124.92 150.83 L 123.93 150.85 C 122.80 150.87 121.90 151.81 121.93 152.94 C 121.95 154.06 122.89 154.96 124.01 154.93 Z M 125.13 154.90 L 126.13 154.82 C 127.25 154.73 128.09 153.75 128.00 152.62 C 127.91 151.50 126.92 150.66 125.80 150.76 L 124.80 150.84 C 123.68 150.93 122.84 151.91 122.93 153.04 C 123.02 154.16 124.01 154.99 125.13 154.90 Z M 126.36 154.78 L 127.31 154.60 C 128.41 154.38 129.13 153.31 128.91 152.21 C 128.69 151.11 127.62 150.39 126.52 150.61 L 125.57 150.79 C 124.47 151.01 123.75 152.08 123.97 153.18 C 124.19 154.28 125.26 155.00 126.36 154.78 Z M 127.54 154.53 L 128.43 154.24 C 129.49 153.90 130.07 152.75 129.73 151.69 C 129.39 150.63 128.24 150.04 127.18 150.39 L 126.29 150.67 C 125.23 151.02 124.64 152.16 124.99 153.22 C 125.33 154.29 126.47 154.87 127.54 154.53 Z M 128.57 154.18 L 129.57 153.76 C 130.60 153.34 131.09 152.16 130.67 151.13 C 130.24 150.10 129.06 149.61 128.03 150.04 L 127.03 150.45 C 126.01 150.88 125.52 152.05 125.94 153.08 C 126.37 154.11 127.55 154.60 128.57 154.18 Z M 129.65 153.72 L 130.54 153.31 C 131.55 152.84 131.98 151.65 131.52 150.64 C 131.05 149.64 129.86 149.20 128.85 149.66 L 127.96 150.08 C 126.95 150.55 126.52 151.74 126.98 152.74 C 127.45 153.75 128.64 154.19 129.65 153.72 Z M 130.58 153.28 L 131.48 152.84 C 132.47 152.35 132.88 151.15 132.39 150.16 C 131.90 149.17 130.70 148.76 129.71 149.25 L 128.81 149.69 C 127.82 150.18 127.41 151.38 127.90 152.37 C 128.39 153.36 129.59 153.77 130.58 153.28 Z M 131.51 152.81 L 132.43 152.33 C 133.41 151.83 133.79 150.62 133.28 149.65 C 132.77 148.67 131.57 148.29 130.59 148.80 L 129.67 149.27 C 128.70 149.78 128.32 150.99 128.83 151.96 C 129.33 152.94 130.54 153.32 131.51 152.81 Z M 132.47 152.31 L 133.38 151.81 C 134.34 151.28 134.69 150.07 134.17 149.11 C 133.64 148.15 132.43 147.79 131.47 148.32 L 130.56 148.82 C 129.59 149.35 129.24 150.56 129.77 151.52 C 130.30 152.48 131.51 152.84 132.47 152.31 Z M 133.42 151.78 L 134.38 151.22 C 135.33 150.67 135.65 149.46 135.10 148.51 C 134.55 147.56 133.34 147.24 132.39 147.79 L 131.43 148.35 C 130.48 148.90 130.16 150.11 130.71 151.06 C 131.26 152.01 132.47 152.33 133.42 151.78 Z M 134.41 151.20 L 135.27 150.68 C 136.21 150.12 136.51 148.90 135.95 147.97 C 135.38 147.03 134.17 146.73 133.23 147.29 L 132.37 147.81 C 131.43 148.37 131.13 149.59 131.69 150.52 C 132.26 151.46 133.47 151.76 134.41 151.20 Z M 135.27 150.68 L 136.01 150.23 C 136.95 149.67 137.25 148.46 136.69 147.52 C 136.13 146.59 134.91 146.29 133.98 146.85 L 133.24 147.30 C 132.30 147.86 132.00 149.07 132.56 150.00 C 133.12 150.94 134.33 151.24 135.27 150.68 Z M 135.95 150.27 L 136.89 149.75 C 137.85 149.22 138.19 148.02 137.67 147.06 C 137.14 146.11 135.94 145.76 134.98 146.29 L 134.04 146.81 C 133.09 147.34 132.74 148.54 133.27 149.49 C 133.80 150.45 135.00 150.79 135.95 150.27 Z M 136.70 149.85 L 137.54 149.50 C 138.55 149.08 139.03 147.92 138.61 146.91 C 138.19 145.90 137.03 145.42 136.02 145.84 L 135.18 146.19 C 134.17 146.61 133.69 147.77 134.11 148.78 C 134.53 149.79 135.69 150.27 136.70 149.85 Z M 137.19 149.63 L 138.22 149.42 C 139.30 149.20 140.00 148.14 139.78 147.05 C 139.56 145.97 138.50 145.27 137.41 145.49 L 136.38 145.70 C 135.29 145.93 134.60 146.99 134.82 148.07 C 135.04 149.16 136.10 149.85 137.19 149.63 Z M 137.09 149.36 L 137.88 149.66 C 138.93 150.06 140.11 149.54 140.51 148.48 C 140.91 147.43 140.38 146.25 139.33 145.85 L 138.54 145.55 C 137.49 145.15 136.31 145.67 135.91 146.73 C 135.51 147.78 136.04 148.96 137.09 149.36 Z M 136.68 148.50 L 137.03 149.40 C 137.44 150.46 138.64 150.99 139.70 150.58 C 140.76 150.17 141.29 148.97 140.88 147.91 L 140.53 147.01 C 140.12 145.95 138.92 145.42 137.86 145.83 C 136.80 146.24 136.27 147.44 136.68 148.50 Z M 136.89 148.87 L 137.00 149.94 C 137.12 151.08 138.14 151.91 139.27 151.79 C 140.41 151.68 141.24 150.66 141.13 149.52 L 141.02 148.44 C 140.90 147.31 139.88 146.48 138.74 146.59 C 137.60 146.71 136.77 147.73 136.89 148.87 Z M 136.99 149.78 L 137.01 150.80 C 137.04 151.94 137.99 152.85 139.14 152.82 C 140.29 152.79 141.19 151.84 141.16 150.69 L 141.14 149.68 C 141.11 148.53 140.16 147.63 139.01 147.66 C 137.87 147.69 136.96 148.64 136.99 149.78 Z M 137.02 150.74 L 137.02 151.69 C 137.02 152.84 137.94 153.77 139.09 153.77 C 140.23 153.77 141.16 152.84 141.16 151.70 L 141.16 150.74 C 141.16 149.60 140.23 148.67 139.09 148.67 C 137.94 148.67 137.02 149.60 137.02 150.74 Z M 137.03 151.63 L 137.00 152.61 C 136.97 153.75 137.86 154.70 139.00 154.73 C 140.13 154.76 141.08 153.87 141.12 152.73 L 141.15 151.76 C 141.18 150.62 140.29 149.67 139.15 149.64 C 138.01 149.60 137.06 150.50 137.03 151.63 Z M 137.02 152.51 L 136.94 153.52 C 136.85 154.65 137.69 155.63 138.81 155.72 C 139.94 155.81 140.92 154.98 141.01 153.85 L 141.09 152.84 C 141.18 151.71 140.35 150.73 139.22 150.64 C 138.10 150.55 137.12 151.38 137.02 152.51 Z M 136.97 153.46 L 136.85 154.49 C 136.72 155.59 137.52 156.60 138.62 156.72 C 139.73 156.85 140.73 156.06 140.86 154.95 L 140.98 153.92 C 141.11 152.81 140.32 151.81 139.21 151.68 C 138.10 151.56 137.10 152.35 136.97 153.46 Z M 136.89 154.42 L 136.74 155.44 C 136.57 156.52 137.32 157.53 138.40 157.70 C 139.49 157.86 140.50 157.12 140.67 156.03 L 140.82 155.02 C 140.99 153.93 140.24 152.92 139.16 152.76 C 138.07 152.59 137.06 153.34 136.89 154.42 Z M 136.83 155.34 L 136.62 156.34 C 136.40 157.38 137.06 158.40 138.10 158.61 C 139.14 158.83 140.15 158.17 140.37 157.13 L 140.58 156.13 C 140.79 155.09 140.13 154.08 139.10 153.86 C 138.06 153.64 137.04 154.31 136.83 155.34 Z M 136.71 156.29 L 136.58 156.81 C 136.34 157.80 136.94 158.79 137.92 159.04 C 138.90 159.28 139.90 158.68 140.14 157.70 L 140.27 157.18 C 140.52 156.20 139.92 155.20 138.94 154.96 C 137.95 154.71 136.96 155.31 136.71 156.29 Z"
      fill="black"
      fill-rule="nonzero" /><path d="M 107.52 163.87 L 108.12 164.52 C 108.86 165.32 110.11 165.36 110.90 164.62 C 111.70 163.88 111.75 162.63 111.00 161.83 L 110.40 161.19 C 109.66 160.39 108.41 160.35 107.62 161.09 C 106.82 161.83 106.77 163.08 107.52 163.87 Z M 108.01 164.49 L 108.72 165.33 C 109.44 166.19 110.72 166.30 111.58 165.58 C 112.44 164.85 112.55 163.57 111.83 162.71 L 111.12 161.87 C 110.39 161.01 109.11 160.90 108.25 161.62 C 107.39 162.35 107.28 163.63 108.01 164.49 Z M 108.65 165.29 L 109.26 166.08 C 109.96 166.97 111.26 167.13 112.15 166.43 C 113.05 165.74 113.21 164.44 112.51 163.55 L 111.90 162.76 C 111.20 161.86 109.90 161.70 109.01 162.40 C 108.11 163.10 107.95 164.39 108.65 165.29 Z M 109.25 166.05 L 109.87 166.88 C 110.56 167.79 111.85 167.97 112.75 167.29 C 113.66 166.60 113.84 165.31 113.16 164.41 L 112.53 163.57 C 111.85 162.67 110.56 162.49 109.65 163.17 C 108.74 163.85 108.56 165.14 109.25 166.05 Z M 109.86 166.86 L 110.49 167.71 C 111.16 168.62 112.44 168.81 113.35 168.15 C 114.26 167.48 114.46 166.20 113.79 165.28 L 113.17 164.43 C 112.50 163.52 111.22 163.32 110.30 163.99 C 109.39 164.66 109.20 165.94 109.86 166.86 Z M 110.48 167.65 L 111.04 168.46 C 111.68 169.37 112.94 169.60 113.86 168.96 C 114.77 168.32 115.00 167.06 114.36 166.14 L 113.80 165.34 C 113.16 164.42 111.90 164.19 110.98 164.83 C 110.06 165.47 109.84 166.73 110.48 167.65 Z M 111.01 168.37 L 111.50 169.14 C 112.09 170.07 113.33 170.35 114.26 169.76 C 115.19 169.17 115.46 167.94 114.87 167.00 L 114.39 166.23 C 113.80 165.30 112.56 165.02 111.63 165.61 C 110.70 166.20 110.42 167.44 111.01 168.37 Z M 111.50 169.09 L 112.02 169.95 C 112.58 170.89 113.79 171.19 114.72 170.63 C 115.66 170.07 115.96 168.86 115.40 167.92 L 114.88 167.06 C 114.32 166.12 113.11 165.82 112.17 166.38 C 111.24 166.94 110.94 168.15 111.50 169.09 Z M 112.05 169.95 L 112.57 170.81 C 113.13 171.73 114.33 172.02 115.24 171.46 C 116.16 170.90 116.45 169.71 115.89 168.79 L 115.37 167.93 C 114.81 167.01 113.62 166.72 112.70 167.28 C 111.78 167.84 111.49 169.03 112.05 169.95 Z M 112.60 170.78 L 113.11 171.64 C 113.65 172.55 114.83 172.84 115.73 172.30 C 116.64 171.75 116.93 170.58 116.39 169.68 L 115.87 168.82 C 115.33 167.91 114.16 167.62 113.25 168.16 C 112.35 168.70 112.05 169.88 112.60 170.78 Z M 113.11 171.59 L 113.61 172.47 C 114.12 173.37 115.27 173.69 116.18 173.17 C 117.08 172.66 117.40 171.51 116.88 170.61 L 116.38 169.73 C 115.87 168.83 114.72 168.51 113.82 169.02 C 112.92 169.54 112.60 170.68 113.11 171.59 Z M 113.64 172.46 L 114.13 173.32 C 114.64 174.21 115.78 174.51 116.67 174.00 C 117.55 173.49 117.86 172.36 117.35 171.47 L 116.86 170.61 C 116.34 169.73 115.21 169.42 114.32 169.93 C 113.43 170.44 113.13 171.58 113.64 172.46 Z M 114.17 173.34 L 114.69 174.20 C 115.21 175.07 116.34 175.34 117.21 174.82 C 118.07 174.30 118.35 173.17 117.83 172.31 L 117.31 171.45 C 116.79 170.58 115.66 170.30 114.79 170.83 C 113.93 171.35 113.65 172.48 114.17 173.34 Z M 114.69 174.18 L 115.17 174.98 C 115.68 175.85 116.80 176.13 117.66 175.62 C 118.53 175.11 118.81 174.00 118.30 173.13 L 117.82 172.33 C 117.31 171.46 116.20 171.18 115.33 171.69 C 114.47 172.20 114.18 173.31 114.69 174.18 Z M 115.18 174.98 L 115.71 175.88 C 116.22 176.74 117.33 177.02 118.19 176.51 C 119.05 176.00 119.33 174.89 118.82 174.04 L 118.29 173.14 C 117.78 172.28 116.67 172.00 115.81 172.50 C 114.96 173.01 114.67 174.12 115.18 174.98 Z M 115.73 175.90 L 116.23 176.70 C 116.75 177.55 117.86 177.82 118.71 177.30 C 119.55 176.78 119.82 175.67 119.30 174.82 L 118.80 174.01 C 118.28 173.17 117.17 172.90 116.33 173.42 C 115.48 173.94 115.21 175.05 115.73 175.90 Z M 116.24 176.72 L 116.78 177.59 C 117.31 178.43 118.42 178.69 119.26 178.16 C 120.11 177.63 120.36 176.52 119.83 175.68 L 119.29 174.81 C 118.76 173.96 117.65 173.71 116.81 174.24 C 115.96 174.76 115.71 175.87 116.24 176.72 Z M 116.78 177.59 L 117.13 178.15 C 117.66 178.99 118.77 179.24 119.62 178.71 C 120.46 178.18 120.71 177.07 120.18 176.23 L 119.83 175.67 C 119.30 174.83 118.19 174.58 117.35 175.11 C 116.51 175.64 116.26 176.75 116.78 177.59 Z"
      fill="black"
      fill-rule="nonzero" /><path d="M 124.58 162.64 L 125.33 163.28 C 126.20 164.01 127.49 163.90 128.22 163.04 C 128.95 162.17 128.84 160.88 127.98 160.15 L 127.23 159.51 C 126.36 158.78 125.07 158.89 124.34 159.75 C 123.61 160.61 123.71 161.91 124.58 162.64 Z M 125.01 163.06 L 125.60 163.78 C 126.34 164.69 127.68 164.83 128.59 164.08 C 129.51 163.34 129.64 161.99 128.90 161.08 L 128.31 160.36 C 127.56 159.45 126.22 159.32 125.31 160.06 C 124.40 160.81 124.26 162.15 125.01 163.06 Z M 125.33 163.43 L 125.78 164.30 C 126.34 165.35 127.64 165.76 128.70 165.21 C 129.76 164.65 130.16 163.35 129.61 162.29 L 129.16 161.43 C 128.61 160.37 127.30 159.97 126.24 160.52 C 125.19 161.07 124.78 162.38 125.33 163.43 Z M 125.70 164.11 L 126.10 165.08 C 126.55 166.18 127.81 166.71 128.91 166.26 C 130.01 165.80 130.54 164.54 130.09 163.44 L 129.69 162.48 C 129.24 161.37 127.98 160.85 126.88 161.30 C 125.78 161.75 125.25 163.01 125.70 164.11 Z M 126.08 165.00 L 126.42 165.92 C 126.83 167.03 128.06 167.60 129.17 167.19 C 130.28 166.78 130.85 165.55 130.44 164.43 L 130.10 163.52 C 129.69 162.41 128.46 161.84 127.35 162.25 C 126.24 162.66 125.67 163.89 126.08 165.00 Z M 126.42 165.86 L 126.76 166.85 C 127.14 167.96 128.34 168.56 129.45 168.18 C 130.57 167.80 131.16 166.59 130.78 165.48 L 130.44 164.49 C 130.06 163.38 128.86 162.79 127.74 163.16 C 126.63 163.54 126.04 164.75 126.42 165.86 Z M 126.77 166.80 L 127.09 167.83 C 127.44 168.94 128.61 169.55 129.72 169.20 C 130.83 168.86 131.44 167.68 131.10 166.57 L 130.77 165.54 C 130.43 164.44 129.25 163.82 128.14 164.17 C 127.04 164.51 126.42 165.69 126.77 166.80 Z M 127.12 167.77 L 127.41 168.79 C 127.73 169.88 128.87 170.51 129.96 170.20 C 131.05 169.88 131.68 168.74 131.36 167.65 L 131.07 166.63 C 130.75 165.54 129.61 164.91 128.52 165.23 C 127.43 165.54 126.80 166.68 127.12 167.77 Z M 127.46 168.76 L 127.71 169.68 C 128.01 170.74 129.11 171.37 130.18 171.07 C 131.24 170.78 131.87 169.67 131.57 168.61 L 131.32 167.69 C 131.02 166.62 129.92 166.00 128.85 166.29 C 127.79 166.59 127.16 167.69 127.46 168.76 Z M 127.76 169.67 L 128.02 170.59 C 128.31 171.63 129.39 172.23 130.43 171.94 C 131.47 171.65 132.07 170.57 131.78 169.53 L 131.52 168.61 C 131.23 167.57 130.15 166.97 129.11 167.26 C 128.08 167.55 127.47 168.63 127.76 169.67 Z M 128.07 170.60 L 128.34 171.51 C 128.64 172.52 129.70 173.10 130.71 172.81 C 131.72 172.51 132.29 171.45 132.00 170.44 L 131.73 169.53 C 131.43 168.52 130.37 167.94 129.36 168.23 C 128.35 168.53 127.78 169.59 128.07 170.60 Z M 128.38 171.50 L 128.65 172.42 C 128.94 173.41 129.98 173.98 130.97 173.69 C 131.95 173.40 132.52 172.36 132.23 171.37 L 131.96 170.45 C 131.67 169.46 130.63 168.90 129.64 169.19 C 128.65 169.48 128.09 170.51 128.38 171.50 Z M 128.67 172.42 L 128.95 173.35 C 129.24 174.33 130.26 174.88 131.24 174.59 C 132.22 174.30 132.77 173.28 132.48 172.30 L 132.21 171.37 C 131.92 170.39 130.89 169.84 129.91 170.13 C 128.94 170.42 128.38 171.44 128.67 172.42 Z M 128.97 173.38 L 129.29 174.39 C 129.59 175.35 130.62 175.89 131.59 175.58 C 132.55 175.28 133.09 174.25 132.78 173.29 L 132.46 172.27 C 132.16 171.31 131.13 170.77 130.16 171.08 C 129.20 171.38 128.66 172.41 128.97 173.38 Z M 129.32 174.44 L 129.65 175.41 C 129.98 176.36 131.02 176.86 131.97 176.53 C 132.92 176.20 133.42 175.16 133.09 174.21 L 132.76 173.24 C 132.43 172.29 131.39 171.79 130.44 172.12 C 129.49 172.45 128.99 173.49 129.32 174.44 Z M 129.68 175.45 L 130.03 176.38 C 130.38 177.32 131.43 177.79 132.36 177.44 C 133.30 177.09 133.77 176.04 133.42 175.11 L 133.07 174.17 C 132.72 173.24 131.67 172.76 130.73 173.11 C 129.80 173.47 129.32 174.51 129.68 175.45 Z M 130.04 176.41 L 130.41 177.34 C 130.78 178.27 131.83 178.73 132.75 178.36 C 133.68 178.00 134.14 176.95 133.77 176.02 L 133.41 175.08 C 133.04 174.15 131.99 173.70 131.06 174.06 C 130.13 174.43 129.68 175.48 130.04 176.41 Z M 130.42 177.35 L 130.62 177.86 C 130.99 178.78 132.04 179.23 132.96 178.86 C 133.89 178.49 134.34 177.44 133.97 176.52 L 133.77 176.01 C 133.40 175.09 132.35 174.64 131.42 175.01 C 130.50 175.37 130.05 176.42 130.42 177.35 Z"
      fill="black"
      fill-rule="nonzero" /><path d="M 134.84 163.82 L 135.63 164.42 C 136.52 165.09 137.79 164.91 138.46 164.03 C 139.13 163.14 138.96 161.87 138.07 161.20 L 137.28 160.60 C 136.39 159.93 135.13 160.10 134.45 160.99 C 133.78 161.88 133.95 163.14 134.84 163.82 Z M 135.38 164.32 L 136.10 165.02 C 136.94 165.83 138.27 165.81 139.09 164.97 C 139.90 164.13 139.88 162.79 139.04 161.98 L 138.32 161.29 C 137.48 160.48 136.15 160.50 135.33 161.34 C 134.52 162.18 134.54 163.51 135.38 164.32 Z M 135.83 164.77 L 136.41 165.57 C 137.11 166.53 138.46 166.74 139.42 166.04 C 140.38 165.34 140.59 164.00 139.89 163.03 L 139.31 162.23 C 138.61 161.27 137.26 161.06 136.30 161.76 C 135.34 162.46 135.13 163.81 135.83 164.77 Z M 136.27 165.35 L 136.76 166.22 C 137.34 167.26 138.65 167.64 139.69 167.06 C 140.73 166.48 141.10 165.17 140.52 164.13 L 140.03 163.25 C 139.45 162.21 138.14 161.84 137.10 162.42 C 136.06 163.00 135.69 164.31 136.27 165.35 Z M 136.68 166.06 L 137.08 166.95 C 137.57 168.03 138.84 168.51 139.92 168.02 C 141.00 167.54 141.49 166.26 141.00 165.18 L 140.60 164.29 C 140.11 163.21 138.84 162.73 137.76 163.22 C 136.67 163.70 136.19 164.98 136.68 166.06 Z M 137.03 166.81 L 137.38 167.76 C 137.79 168.87 139.03 169.43 140.14 169.02 C 141.24 168.61 141.81 167.38 141.40 166.27 L 141.05 165.32 C 140.64 164.21 139.40 163.64 138.29 164.06 C 137.19 164.47 136.62 165.70 137.03 166.81 Z M 137.36 167.65 L 137.63 168.52 C 137.98 169.64 139.18 170.26 140.30 169.91 C 141.42 169.56 142.04 168.37 141.69 167.24 L 141.42 166.38 C 141.07 165.26 139.88 164.63 138.76 164.98 C 137.63 165.34 137.01 166.53 137.36 167.65 Z M 137.62 168.42 L 137.89 169.41 C 138.18 170.54 139.33 171.21 140.46 170.92 C 141.59 170.62 142.26 169.47 141.96 168.34 L 141.70 167.34 C 141.40 166.22 140.25 165.55 139.13 165.84 C 138.00 166.14 137.33 167.29 137.62 168.42 Z M 137.89 169.33 L 138.11 170.35 C 138.36 171.47 139.47 172.18 140.60 171.94 C 141.72 171.69 142.43 170.58 142.18 169.45 L 141.96 168.43 C 141.71 167.31 140.60 166.60 139.48 166.84 C 138.35 167.09 137.64 168.20 137.89 169.33 Z M 138.13 170.28 L 138.31 171.23 C 138.52 172.34 139.59 173.08 140.71 172.87 C 141.82 172.66 142.56 171.59 142.35 170.47 L 142.17 169.52 C 141.96 168.41 140.89 167.67 139.77 167.88 C 138.65 168.09 137.92 169.16 138.13 170.28 Z M 138.33 171.17 L 138.49 172.18 C 138.67 173.28 139.71 174.03 140.81 173.85 C 141.91 173.68 142.66 172.64 142.49 171.53 L 142.32 170.53 C 142.15 169.42 141.11 168.67 140.01 168.85 C 138.90 169.03 138.15 170.07 138.33 171.17 Z M 138.51 172.12 L 138.65 173.15 C 138.80 174.24 139.80 175.01 140.89 174.86 C 141.98 174.72 142.75 173.72 142.60 172.63 L 142.46 171.59 C 142.32 170.50 141.32 169.74 140.23 169.88 C 139.13 170.03 138.37 171.03 138.51 172.12 Z M 138.68 173.09 L 138.79 174.11 C 138.90 175.19 139.86 175.97 140.94 175.85 C 142.01 175.74 142.79 174.78 142.68 173.70 L 142.57 172.69 C 142.46 171.61 141.50 170.83 140.42 170.94 C 139.35 171.06 138.57 172.02 138.68 173.09 Z M 138.82 174.06 L 138.90 175.06 C 138.98 176.12 139.91 176.91 140.96 176.82 C 142.02 176.74 142.81 175.82 142.73 174.76 L 142.65 173.76 C 142.56 172.70 141.64 171.91 140.58 171.99 C 139.53 172.08 138.74 173.00 138.82 174.06 Z M 138.93 175.02 L 139.00 176.02 C 139.06 177.05 139.95 177.84 140.99 177.78 C 142.02 177.72 142.81 176.82 142.75 175.79 L 142.69 174.79 C 142.63 173.76 141.73 172.97 140.70 173.03 C 139.66 173.10 138.87 173.99 138.93 175.02 Z M 139.03 176.00 L 139.08 176.99 C 139.14 178.00 140.00 178.78 141.02 178.73 C 142.03 178.68 142.82 177.81 142.76 176.80 L 142.71 175.81 C 142.66 174.79 141.79 174.01 140.78 174.06 C 139.76 174.12 138.98 174.98 139.03 176.00 Z M 139.11 176.98 L 139.11 177.08 C 139.16 178.08 140.02 178.86 141.02 178.81 C 142.02 178.76 142.80 177.90 142.75 176.90 L 142.74 176.80 C 142.69 175.80 141.84 175.02 140.83 175.07 C 139.83 175.12 139.06 175.98 139.11 176.98 Z"
      fill="black"
      fill-rule="nonzero" /><path d="M 149.37 139.90 L 149.66 140.81 C 149.98 141.86 151.10 142.44 152.15 142.12 C 153.20 141.79 153.79 140.67 153.46 139.62 L 153.18 138.71 C 152.85 137.66 151.74 137.07 150.68 137.40 C 149.63 137.73 149.05 138.85 149.37 139.90 Z M 149.54 140.80 L 149.82 141.77 C 150.14 142.89 151.31 143.53 152.43 143.21 C 153.54 142.89 154.19 141.72 153.86 140.60 L 153.58 139.63 C 153.26 138.51 152.09 137.87 150.97 138.19 C 149.86 138.51 149.21 139.68 149.54 140.80 Z M 149.73 141.73 L 149.98 142.73 C 150.28 143.89 151.47 144.60 152.64 144.30 C 153.81 144.00 154.51 142.81 154.21 141.64 L 153.96 140.64 C 153.65 139.48 152.46 138.77 151.30 139.08 C 150.13 139.38 149.43 140.57 149.73 141.73 Z M 149.95 142.68 L 150.18 143.68 C 150.45 144.87 151.64 145.61 152.83 145.33 C 154.01 145.06 154.75 143.87 154.48 142.68 L 154.25 141.69 C 153.97 140.50 152.79 139.76 151.60 140.03 C 150.41 140.31 149.67 141.49 149.95 142.68 Z M 150.16 143.64 L 150.37 144.60 C 150.62 145.80 151.79 146.57 152.99 146.31 C 154.19 146.06 154.95 144.89 154.70 143.69 L 154.49 142.72 C 154.24 141.53 153.07 140.76 151.87 141.02 C 150.67 141.27 149.91 142.44 150.16 143.64 Z M 150.35 144.56 L 150.55 145.58 C 150.77 146.79 151.93 147.58 153.14 147.35 C 154.34 147.12 155.13 145.96 154.90 144.76 L 154.71 143.73 C 154.48 142.53 153.32 141.74 152.12 141.97 C 150.92 142.19 150.13 143.35 150.35 144.56 Z M 150.54 145.53 L 150.69 146.48 C 150.89 147.69 152.03 148.51 153.24 148.31 C 154.45 148.11 155.27 146.97 155.07 145.76 L 154.92 144.81 C 154.72 143.60 153.57 142.78 152.36 142.98 C 151.15 143.18 150.34 144.32 150.54 145.53 Z M 150.69 146.45 L 150.83 147.39 C 151.01 148.61 152.14 149.44 153.35 149.26 C 154.57 149.08 155.40 147.95 155.22 146.73 L 155.08 145.79 C 154.90 144.58 153.77 143.74 152.55 143.93 C 151.34 144.11 150.50 145.24 150.69 146.45 Z M 150.82 147.36 L 150.96 148.36 C 151.12 149.57 152.24 150.42 153.46 150.25 C 154.67 150.09 155.53 148.97 155.36 147.75 L 155.22 146.76 C 155.06 145.55 153.94 144.70 152.72 144.86 C 151.51 145.03 150.66 146.15 150.82 147.36 Z M 150.96 148.32 L 151.08 149.34 C 151.22 150.56 152.33 151.42 153.55 151.28 C 154.76 151.13 155.63 150.02 155.48 148.81 L 155.36 147.79 C 155.22 146.57 154.11 145.70 152.89 145.85 C 151.68 146.00 150.81 147.10 150.96 148.32 Z M 151.08 149.30 L 151.18 150.29 C 151.31 151.51 152.40 152.40 153.61 152.27 C 154.83 152.14 155.71 151.05 155.59 149.84 L 155.49 148.84 C 155.36 147.63 154.27 146.74 153.05 146.87 C 151.84 147.00 150.95 148.09 151.08 149.30 Z M 151.18 150.26 L 151.27 151.27 C 151.38 152.48 152.45 153.38 153.67 153.27 C 154.89 153.17 155.78 152.09 155.68 150.88 L 155.59 149.87 C 155.48 148.65 154.41 147.76 153.19 147.86 C 151.97 147.97 151.08 149.05 151.18 150.26 Z M 151.28 151.23 L 151.35 152.25 C 151.44 153.46 152.49 154.37 153.71 154.28 C 154.92 154.20 155.83 153.14 155.75 151.93 L 155.67 150.91 C 155.58 149.70 154.53 148.79 153.31 148.87 C 152.10 148.96 151.19 150.02 151.28 151.23 Z M 151.36 152.21 L 151.41 153.21 C 151.48 154.42 152.52 155.35 153.73 155.28 C 154.94 155.21 155.87 154.17 155.80 152.96 L 155.74 151.96 C 155.67 150.75 154.63 149.83 153.42 149.89 C 152.21 149.96 151.29 151.00 151.36 152.21 Z M 151.42 153.18 L 151.46 154.17 C 151.52 155.37 152.54 156.31 153.75 156.25 C 154.95 156.20 155.89 155.18 155.83 153.97 L 155.79 152.99 C 155.74 151.78 154.72 150.85 153.51 150.90 C 152.30 150.95 151.37 151.97 151.42 153.18 Z M 151.47 154.14 L 151.51 155.14 C 151.55 156.34 152.55 157.28 153.76 157.24 C 154.96 157.20 155.90 156.20 155.86 154.99 L 155.82 154.00 C 155.78 152.79 154.78 151.85 153.58 151.89 C 152.37 151.94 151.43 152.94 151.47 154.14 Z M 151.52 155.13 L 151.55 156.13 C 151.58 157.32 152.58 158.27 153.77 158.23 C 154.97 158.20 155.91 157.20 155.88 156.00 L 155.85 155.01 C 155.81 153.81 154.82 152.87 153.62 152.90 C 152.43 152.94 151.48 153.93 151.52 155.13 Z M 151.56 156.13 L 151.58 157.13 C 151.62 158.32 152.61 159.26 153.80 159.23 C 154.99 159.20 155.93 158.20 155.89 157.01 L 155.87 156.01 C 155.83 154.82 154.84 153.88 153.65 153.91 C 152.46 153.95 151.52 154.94 151.56 156.13 Z M 151.60 157.13 L 151.62 158.13 C 151.65 159.32 152.64 160.25 153.82 160.22 C 155.00 160.19 155.94 159.21 155.91 158.02 L 155.88 157.02 C 155.85 155.84 154.87 154.90 153.68 154.93 C 152.50 154.96 151.56 155.95 151.60 157.13 Z M 151.63 158.12 L 151.65 159.12 C 151.67 160.30 152.64 161.24 153.82 161.21 C 155.00 161.19 155.94 160.22 155.92 159.04 L 155.90 158.04 C 155.88 156.86 154.90 155.93 153.73 155.95 C 152.55 155.97 151.61 156.94 151.63 158.12 Z M 151.66 159.10 L 151.67 160.12 C 151.68 161.29 152.63 162.23 153.81 162.22 C 154.98 162.21 155.92 161.26 155.91 160.08 L 155.90 159.07 C 155.90 157.89 154.94 156.95 153.77 156.96 C 152.60 156.97 151.65 157.93 151.66 159.10 Z M 151.68 160.10 L 151.68 161.07 C 151.68 162.23 152.63 163.18 153.79 163.17 C 154.96 163.17 155.90 162.23 155.90 161.06 L 155.90 160.10 C 155.90 158.93 154.95 157.99 153.79 157.99 C 152.62 157.99 151.68 158.94 151.68 160.10 Z M 151.69 161.06 L 151.69 162.01 C 151.69 163.17 152.63 164.11 153.79 164.11 C 154.95 164.11 155.89 163.17 155.89 162.01 L 155.89 161.06 C 155.89 159.90 154.95 158.97 153.79 158.97 C 152.63 158.97 151.69 159.90 151.69 161.06 Z M 151.70 162.01 L 151.70 163.04 C 151.70 164.19 152.64 165.13 153.79 165.13 C 154.94 165.13 155.88 164.19 155.88 163.04 L 155.88 162.01 C 155.88 160.85 154.94 159.92 153.79 159.92 C 152.64 159.92 151.70 160.85 151.70 162.01 Z M 151.71 163.04 L 151.71 164.05 C 151.71 165.20 152.64 166.13 153.79 166.13 C 154.94 166.13 155.87 165.20 155.87 164.06 L 155.87 163.04 C 155.87 161.89 154.94 160.96 153.79 160.96 C 152.65 160.96 151.71 161.89 151.71 163.04 Z M 151.72 164.03 L 151.71 165.07 C 151.70 166.21 152.62 167.14 153.76 167.15 C 154.90 167.17 155.83 166.25 155.85 165.11 L 155.86 164.08 C 155.87 162.93 154.95 162.00 153.81 161.99 C 152.67 161.97 151.74 162.89 151.72 164.03 Z M 151.73 165.02 L 151.69 166.00 C 151.65 167.13 152.54 168.08 153.67 168.12 C 154.81 168.16 155.76 167.27 155.80 166.14 L 155.83 165.16 C 155.87 164.02 154.98 163.07 153.85 163.03 C 152.72 163.00 151.76 163.88 151.73 165.02 Z M 151.73 165.86 L 151.60 167.07 C 151.49 168.19 152.29 169.18 153.41 169.30 C 154.52 169.42 155.52 168.61 155.63 167.50 L 155.76 166.28 C 155.88 165.17 155.07 164.17 153.96 164.05 C 152.84 163.94 151.85 164.74 151.73 165.86 Z M 155.48 166.63 L 155.40 166.40 C 155.03 165.37 153.91 164.83 152.88 165.20 C 151.85 165.56 151.31 166.69 151.68 167.72 L 151.76 167.94 C 152.12 168.97 153.25 169.51 154.28 169.15 C 155.30 168.78 155.84 167.65 155.48 166.63 Z M 155.44 167.02 L 155.42 166.01 C 155.40 164.96 154.53 164.12 153.48 164.14 C 152.43 164.16 151.59 165.03 151.61 166.08 L 151.63 167.09 C 151.65 168.15 152.52 168.98 153.57 168.96 C 154.63 168.94 155.46 168.07 155.44 167.02 Z M 155.35 166.04 L 155.35 165.03 C 155.35 164.02 154.53 163.20 153.51 163.20 C 152.50 163.20 151.68 164.02 151.68 165.04 L 151.68 166.05 C 151.68 167.06 152.51 167.89 153.52 167.88 C 154.53 167.88 155.36 167.06 155.35 166.04 Z"
      fill="black"
      fill-rule="nonzero" /><path d="M 156.44 131.05 L 157.40 130.70 C 158.41 130.33 158.94 129.21 158.57 128.19 C 158.20 127.17 157.08 126.64 156.06 127.01 L 155.10 127.36 C 154.08 127.73 153.55 128.85 153.92 129.87 C 154.29 130.89 155.42 131.42 156.44 131.05 Z M 157.36 130.73 L 158.30 130.41 C 159.33 130.05 159.89 128.93 159.53 127.90 C 159.18 126.87 158.06 126.31 157.03 126.67 L 156.09 126.99 C 155.06 127.34 154.51 128.46 154.86 129.49 C 155.21 130.53 156.33 131.08 157.36 130.73 Z M 158.22 130.44 L 159.16 130.17 C 160.21 129.86 160.81 128.76 160.50 127.70 C 160.19 126.65 159.09 126.05 158.04 126.36 L 157.11 126.63 C 156.05 126.94 155.45 128.04 155.76 129.09 C 156.07 130.15 157.17 130.75 158.22 130.44 Z M 159.04 130.20 L 160.01 129.98 C 161.08 129.74 161.75 128.67 161.50 127.60 C 161.26 126.53 160.19 125.86 159.12 126.11 L 158.16 126.33 C 157.09 126.57 156.42 127.63 156.66 128.70 C 156.90 129.77 157.97 130.44 159.04 130.20 Z M 159.89 130.00 L 160.91 129.83 C 161.99 129.65 162.72 128.63 162.54 127.54 C 162.36 126.46 161.34 125.73 160.25 125.91 L 159.24 126.08 C 158.15 126.26 157.42 127.29 157.61 128.37 C 157.79 129.45 158.81 130.18 159.89 130.00 Z M 160.83 129.85 L 161.85 129.72 C 162.94 129.58 163.72 128.58 163.58 127.49 C 163.44 126.40 162.45 125.63 161.36 125.77 L 160.33 125.90 C 159.24 126.04 158.47 127.03 158.61 128.12 C 158.75 129.21 159.74 129.98 160.83 129.85 Z M 161.78 129.73 L 162.77 129.64 C 163.87 129.54 164.68 128.58 164.58 127.48 C 164.49 126.39 163.52 125.58 162.43 125.67 L 161.43 125.76 C 160.34 125.86 159.53 126.82 159.62 127.92 C 159.72 129.01 160.68 129.82 161.78 129.73 Z M 162.67 129.64 L 163.68 129.61 C 164.77 129.57 165.63 128.65 165.59 127.55 C 165.56 126.45 164.63 125.59 163.54 125.63 L 162.53 125.67 C 161.43 125.71 160.57 126.63 160.61 127.72 C 160.65 128.82 161.57 129.68 162.67 129.64 Z M 163.61 129.61 L 164.55 129.61 C 165.65 129.60 166.53 128.71 166.53 127.62 C 166.53 126.52 165.64 125.63 164.54 125.63 L 163.60 125.63 C 162.51 125.63 161.62 126.53 161.62 127.62 C 161.62 128.72 162.51 129.61 163.61 129.61 Z M 164.53 129.60 L 165.54 129.61 C 166.64 129.61 167.53 128.73 167.54 127.64 C 167.54 126.54 166.66 125.65 165.56 125.64 L 164.56 125.64 C 163.46 125.63 162.57 126.51 162.56 127.61 C 162.56 128.70 163.44 129.60 164.53 129.60 Z M 165.51 129.61 L 166.52 129.63 C 167.61 129.66 168.52 128.79 168.55 127.70 C 168.57 126.60 167.71 125.69 166.61 125.67 L 165.60 125.64 C 164.51 125.62 163.60 126.48 163.57 127.58 C 163.55 128.67 164.41 129.58 165.51 129.61 Z M 166.39 129.62 L 167.38 129.71 C 168.47 129.81 169.43 129.01 169.53 127.92 C 169.63 126.83 168.83 125.86 167.74 125.77 L 166.74 125.68 C 165.66 125.58 164.69 126.38 164.59 127.47 C 164.50 128.56 165.30 129.52 166.39 129.62 Z M 167.13 129.67 L 168.11 129.89 C 169.17 130.13 170.23 129.46 170.47 128.39 C 170.71 127.32 170.04 126.27 168.97 126.03 L 167.99 125.81 C 166.92 125.57 165.87 126.24 165.63 127.30 C 165.39 128.37 166.06 129.43 167.13 129.67 Z M 167.87 129.82 L 168.80 130.16 C 169.83 130.53 170.96 129.99 171.33 128.96 C 171.70 127.93 171.17 126.80 170.14 126.43 L 169.21 126.10 C 168.18 125.72 167.05 126.26 166.68 127.29 C 166.31 128.32 166.84 129.45 167.87 129.82 Z M 168.63 130.09 L 169.53 130.51 C 170.53 130.97 171.70 130.55 172.17 129.56 C 172.63 128.57 172.21 127.39 171.21 126.92 L 170.31 126.50 C 169.32 126.04 168.14 126.46 167.68 127.45 C 167.21 128.44 167.64 129.62 168.63 130.09 Z M 169.39 130.44 L 170.26 130.93 C 171.21 131.47 172.42 131.14 172.96 130.19 C 173.51 129.24 173.17 128.03 172.22 127.49 L 171.36 127.00 C 170.41 126.45 169.20 126.79 168.65 127.74 C 168.11 128.69 168.44 129.90 169.39 130.44 Z M 170.14 130.85 L 170.97 131.42 C 171.88 132.03 173.11 131.79 173.72 130.88 C 174.33 129.97 174.09 128.74 173.18 128.13 L 172.35 127.57 C 171.44 126.96 170.21 127.20 169.60 128.11 C 168.99 129.01 169.23 130.24 170.14 130.85 Z M 170.85 131.33 L 171.63 131.95 C 172.49 132.62 173.74 132.48 174.42 131.62 C 175.09 130.76 174.95 129.51 174.09 128.83 L 173.30 128.21 C 172.44 127.54 171.19 127.69 170.52 128.55 C 169.84 129.41 169.99 130.65 170.85 131.33 Z M 171.51 131.85 L 172.25 132.53 C 173.05 133.27 174.31 133.22 175.05 132.41 C 175.80 131.60 175.75 130.35 174.94 129.60 L 174.21 128.93 C 173.40 128.19 172.14 128.24 171.40 129.04 C 170.66 129.85 170.71 131.11 171.51 131.85 Z M 172.14 132.41 L 172.81 133.14 C 173.55 133.94 174.81 133.99 175.61 133.25 C 176.42 132.50 176.46 131.25 175.72 130.44 L 175.05 129.72 C 174.31 128.91 173.05 128.86 172.25 129.61 C 171.44 130.35 171.39 131.61 172.14 132.41 Z M 172.71 133.02 L 173.34 133.82 C 174.02 134.67 175.26 134.82 176.12 134.14 C 176.98 133.46 177.13 132.21 176.45 131.36 L 175.82 130.56 C 175.14 129.70 173.89 129.56 173.03 130.24 C 172.18 130.92 172.03 132.16 172.71 133.02 Z M 173.25 133.71 L 173.82 134.54 C 174.44 135.45 175.67 135.68 176.58 135.06 C 177.49 134.44 177.72 133.21 177.10 132.30 L 176.54 131.46 C 175.92 130.56 174.68 130.32 173.77 130.94 C 172.86 131.56 172.63 132.80 173.25 133.71 Z M 173.72 134.41 L 174.22 135.28 C 174.77 136.24 175.99 136.57 176.95 136.02 C 177.91 135.47 178.24 134.25 177.70 133.29 L 177.20 132.42 C 176.65 131.46 175.42 131.13 174.46 131.68 C 173.51 132.23 173.17 133.45 173.72 134.41 Z M 174.12 135.11 L 174.53 136.02 C 174.98 137.03 176.17 137.48 177.19 137.03 C 178.20 136.57 178.66 135.38 178.20 134.37 L 177.80 133.46 C 177.34 132.45 176.15 132.00 175.13 132.45 C 174.12 132.91 173.67 134.10 174.12 135.11 Z M 174.44 135.83 L 174.75 136.77 C 175.11 137.83 176.25 138.40 177.31 138.05 C 178.37 137.70 178.95 136.55 178.60 135.49 L 178.29 134.56 C 177.93 133.50 176.79 132.92 175.73 133.27 C 174.67 133.62 174.09 134.77 174.44 135.83 Z M 174.71 136.63 L 174.96 137.61 C 175.23 138.70 176.34 139.35 177.43 139.07 C 178.51 138.80 179.17 137.69 178.89 136.60 L 178.64 135.63 C 178.37 134.54 177.26 133.88 176.17 134.16 C 175.08 134.44 174.43 135.54 174.71 136.63 Z M 174.93 137.54 L 175.14 138.51 C 175.38 139.61 176.47 140.31 177.57 140.07 C 178.67 139.83 179.37 138.74 179.13 137.64 L 178.92 136.67 C 178.68 135.57 177.59 134.87 176.49 135.11 C 175.39 135.35 174.69 136.44 174.93 137.54 Z M 175.12 138.43 L 175.29 139.42 C 175.48 140.53 176.54 141.28 177.66 141.09 C 178.77 140.89 179.52 139.83 179.33 138.72 L 179.15 137.73 C 178.96 136.61 177.90 135.87 176.79 136.06 C 175.67 136.25 174.92 137.31 175.12 138.43 Z M 175.27 139.30 L 175.38 140.28 C 175.50 141.41 176.52 142.22 177.65 142.09 C 178.78 141.96 179.59 140.94 179.46 139.82 L 179.35 138.84 C 179.22 137.71 178.20 136.90 177.08 137.03 C 175.95 137.15 175.14 138.17 175.27 139.30 Z M 175.36 140.19 L 175.43 141.19 C 175.51 142.33 176.49 143.19 177.63 143.11 C 178.76 143.04 179.62 142.05 179.55 140.92 L 179.48 139.91 C 179.40 138.77 178.42 137.91 177.28 137.99 C 176.14 138.07 175.28 139.05 175.36 140.19 Z M 175.42 141.14 L 175.46 142.13 C 175.51 143.27 176.48 144.16 177.62 144.11 C 178.76 144.06 179.65 143.09 179.60 141.95 L 179.55 140.97 C 179.51 139.82 178.54 138.94 177.40 138.99 C 176.26 139.04 175.37 140.00 175.42 141.14 Z M 175.45 142.10 L 175.49 143.10 C 175.52 144.25 176.48 145.15 177.63 145.11 C 178.77 145.08 179.67 144.12 179.64 142.97 L 179.60 141.97 C 179.57 140.83 178.61 139.93 177.46 139.96 C 176.32 140.00 175.42 140.96 175.45 142.10 Z M 175.48 143.09 L 175.51 144.11 C 175.54 145.26 176.49 146.17 177.64 146.14 C 178.79 146.11 179.70 145.15 179.67 144.00 L 179.64 142.98 C 179.61 141.84 178.66 140.93 177.51 140.96 C 176.36 140.99 175.45 141.94 175.48 143.09 Z M 175.50 144.11 L 175.52 145.11 C 175.55 146.27 176.51 147.18 177.66 147.15 C 178.81 147.12 179.72 146.17 179.70 145.02 L 179.67 144.01 C 179.65 142.86 178.69 141.95 177.54 141.97 C 176.39 142.00 175.47 142.95 175.50 144.11 Z M 175.52 145.10 L 175.54 146.10 C 175.56 147.25 176.51 148.17 177.67 148.15 C 178.82 148.13 179.74 147.18 179.72 146.03 L 179.70 145.03 C 179.68 143.87 178.73 142.96 177.57 142.98 C 176.42 143.00 175.50 143.95 175.52 145.10 Z M 175.54 146.08 L 175.54 147.10 C 175.55 148.25 176.50 149.18 177.66 149.17 C 178.81 149.16 179.74 148.22 179.73 147.06 L 179.72 146.04 C 179.71 144.89 178.77 143.96 177.61 143.97 C 176.45 143.98 175.53 144.93 175.54 146.08 Z M 175.54 147.08 L 175.54 148.07 C 175.55 149.23 176.49 150.16 177.64 150.16 C 178.80 150.16 179.74 149.22 179.73 148.06 L 179.73 147.07 C 179.73 145.92 178.79 144.98 177.63 144.98 C 176.48 144.99 175.54 145.93 175.54 147.08 Z M 175.54 148.07 L 175.54 149.06 C 175.54 150.22 176.48 151.15 177.64 151.15 C 178.80 151.16 179.74 150.22 179.74 149.06 L 179.74 148.07 C 179.74 146.91 178.80 145.97 177.64 145.97 C 176.48 145.97 175.54 146.91 175.54 148.07 Z M 175.54 149.05 L 175.54 150.05 C 175.53 151.21 176.47 152.15 177.63 152.16 C 178.79 152.16 179.73 151.23 179.73 150.07 L 179.74 149.06 C 179.74 147.91 178.81 146.96 177.65 146.96 C 176.49 146.95 175.54 147.89 175.54 149.05 Z M 175.53 150.03 L 175.52 151.04 C 175.51 152.20 176.44 153.15 177.60 153.16 C 178.76 153.18 179.71 152.25 179.72 151.09 L 179.74 150.08 C 179.75 148.92 178.82 147.97 177.66 147.96 C 176.50 147.94 175.55 148.87 175.53 150.03 Z M 175.52 151.01 L 175.50 152.01 C 175.47 153.17 176.38 154.14 177.54 154.17 C 178.70 154.20 179.67 153.28 179.70 152.12 L 179.73 151.12 C 179.76 149.96 178.84 148.99 177.68 148.96 C 176.52 148.93 175.55 149.85 175.52 151.01 Z M 175.50 151.97 L 175.45 152.96 C 175.40 154.12 176.29 155.11 177.45 155.16 C 178.61 155.22 179.60 154.32 179.65 153.16 L 179.70 152.16 C 179.75 151.00 178.86 150.02 177.70 149.96 C 176.53 149.91 175.55 150.81 175.50 151.97 Z M 175.45 152.91 L 175.38 153.91 C 175.30 155.07 176.17 156.08 177.33 156.16 C 178.49 156.24 179.50 155.37 179.58 154.21 L 179.65 153.21 C 179.73 152.05 178.86 151.04 177.70 150.96 C 176.54 150.88 175.53 151.75 175.45 152.91 Z M 175.38 153.87 L 175.29 154.86 C 175.19 156.02 176.04 157.04 177.20 157.15 C 178.35 157.26 179.38 156.40 179.48 155.25 L 179.58 154.25 C 179.68 153.10 178.83 152.07 177.67 151.97 C 176.52 151.86 175.49 152.71 175.38 153.87 Z M 175.30 154.83 L 175.19 155.82 C 175.07 156.97 175.91 158.01 177.06 158.13 C 178.22 158.26 179.25 157.42 179.38 156.26 L 179.48 155.28 C 179.60 154.12 178.77 153.08 177.61 152.96 C 176.46 152.84 175.42 153.68 175.30 154.83 Z M 175.19 155.80 L 175.08 156.80 C 174.95 157.95 175.78 158.99 176.93 159.13 C 178.09 159.26 179.13 158.43 179.26 157.27 L 179.37 156.28 C 179.51 155.12 178.68 154.08 177.52 153.95 C 176.37 153.82 175.32 154.65 175.19 155.80 Z M 175.08 156.80 L 174.97 157.81 C 174.83 158.96 175.66 160.01 176.82 160.14 C 177.97 160.27 179.01 159.44 179.15 158.29 L 179.26 157.27 C 179.39 156.12 178.56 155.08 177.41 154.95 C 176.25 154.81 175.21 155.64 175.08 156.80 Z M 174.97 157.82 L 174.85 158.83 C 174.73 159.98 175.56 161.02 176.71 161.15 C 177.86 161.28 178.90 160.45 179.03 159.29 L 179.14 158.28 C 179.27 157.13 178.44 156.09 177.29 155.96 C 176.14 155.83 175.10 156.66 174.97 157.82 Z M 174.86 158.83 L 174.75 159.76 C 174.63 160.91 175.45 161.95 176.61 162.08 C 177.76 162.21 178.80 161.38 178.92 160.23 L 179.03 159.29 C 179.16 158.14 178.33 157.10 177.17 156.97 C 176.02 156.85 174.99 157.68 174.86 158.83 Z M 174.76 159.75 L 174.65 160.64 C 174.52 161.79 175.34 162.83 176.49 162.96 C 177.64 163.10 178.68 162.28 178.81 161.13 L 178.92 160.24 C 179.05 159.09 178.23 158.05 177.08 157.91 C 175.93 157.78 174.89 158.60 174.76 159.75 Z M 174.66 160.60 L 174.51 161.69 C 174.36 162.84 175.16 163.89 176.30 164.05 C 177.45 164.20 178.50 163.40 178.66 162.26 L 178.81 161.16 C 178.96 160.02 178.16 158.97 177.02 158.81 C 175.87 158.65 174.82 159.46 174.66 160.60 Z M 174.52 161.66 L 174.38 162.62 C 174.20 163.76 174.99 164.83 176.13 165.00 C 177.27 165.17 178.33 164.38 178.51 163.24 L 178.65 162.29 C 178.82 161.14 178.04 160.08 176.90 159.91 C 175.76 159.74 174.69 160.52 174.52 161.66 Z M 174.38 162.61 L 174.22 163.63 C 174.04 164.76 174.82 165.83 175.95 166.01 C 177.09 166.19 178.16 165.42 178.34 164.28 L 178.50 163.26 C 178.68 162.12 177.90 161.05 176.77 160.87 C 175.63 160.69 174.56 161.47 174.38 162.61 Z M 174.23 163.61 L 174.06 164.65 C 173.87 165.78 174.64 166.85 175.77 167.04 C 176.91 167.23 177.98 166.46 178.16 165.32 L 178.33 164.29 C 178.52 163.16 177.75 162.08 176.62 161.90 C 175.48 161.71 174.41 162.48 174.23 163.61 Z M 174.06 164.63 L 173.89 165.66 C 173.69 166.79 174.45 167.86 175.58 168.05 C 176.71 168.25 177.78 167.49 177.98 166.36 L 178.15 165.34 C 178.35 164.21 177.59 163.13 176.46 162.94 C 175.33 162.74 174.26 163.50 174.06 164.63 Z M 173.91 165.63 L 173.70 166.71 C 173.49 167.83 174.23 168.90 175.35 169.11 C 176.46 169.33 177.54 168.59 177.75 167.47 L 177.96 166.39 C 178.17 165.27 177.43 164.20 176.32 163.98 C 175.20 163.77 174.12 164.51 173.91 165.63 Z M 173.74 166.64 L 173.54 167.53 C 173.29 168.63 173.98 169.72 175.08 169.97 C 176.17 170.22 177.27 169.53 177.51 168.43 L 177.72 167.54 C 177.96 166.44 177.28 165.35 176.18 165.10 C 175.08 164.85 173.99 165.54 173.74 166.64 Z M 173.60 167.41 L 173.31 168.38 C 172.99 169.45 173.59 170.57 174.66 170.89 C 175.72 171.21 176.85 170.60 177.16 169.53 L 177.46 168.56 C 177.77 167.49 177.17 166.37 176.10 166.05 C 175.04 165.73 173.91 166.34 173.60 167.41 Z M 173.49 168.02 L 173.03 168.86 C 172.51 169.83 172.87 171.03 173.84 171.55 C 174.80 172.07 176.01 171.71 176.53 170.75 L 176.98 169.90 C 177.50 168.93 177.14 167.73 176.18 167.21 C 175.21 166.69 174.01 167.05 173.49 168.02 Z M 174.10 168.00 L 173.29 168.30 C 172.29 168.68 171.79 169.79 172.17 170.79 C 172.54 171.79 173.66 172.29 174.66 171.92 L 175.46 171.61 C 176.46 171.23 176.96 170.12 176.59 169.12 C 176.21 168.12 175.09 167.62 174.10 168.00 Z M 174.28 168.27 L 173.54 168.15 C 172.53 167.98 171.57 168.66 171.40 169.68 C 171.23 170.69 171.91 171.65 172.93 171.82 L 173.67 171.94 C 174.68 172.11 175.64 171.43 175.81 170.42 C 175.98 169.40 175.29 168.44 174.28 168.27 Z"
      fill="black"
      fill-rule="nonzero" /><path d="M 156.70 149.02 L 157.61 149.13 C 158.76 149.26 159.79 148.44 159.92 147.30 C 160.05 146.16 159.24 145.13 158.10 145.00 L 157.18 144.89 C 156.04 144.76 155.01 145.58 154.88 146.72 C 154.75 147.86 155.56 148.89 156.70 149.02 Z M 157.68 149.15 L 158.71 149.24 C 159.87 149.34 160.88 148.48 160.98 147.32 C 161.07 146.17 160.21 145.15 159.06 145.06 L 158.03 144.97 C 156.87 144.88 155.86 145.73 155.76 146.89 C 155.67 148.04 156.53 149.06 157.68 149.15 Z M 158.80 149.26 L 159.84 149.30 C 161.01 149.35 161.99 148.44 162.04 147.27 C 162.08 146.11 161.18 145.13 160.01 145.08 L 158.97 145.04 C 157.80 144.99 156.82 145.90 156.77 147.06 C 156.73 148.23 157.63 149.21 158.80 149.26 Z M 159.90 149.30 L 160.95 149.32 C 162.11 149.33 163.07 148.40 163.09 147.23 C 163.10 146.07 162.17 145.11 161.00 145.09 L 159.96 145.08 C 158.79 145.06 157.83 146.00 157.82 147.16 C 157.80 148.33 158.73 149.29 159.90 149.30 Z M 160.98 149.31 L 161.96 149.31 C 163.13 149.31 164.07 148.36 164.07 147.20 C 164.07 146.03 163.12 145.09 161.95 145.09 L 160.97 145.09 C 159.80 145.10 158.86 146.04 158.86 147.21 C 158.87 148.37 159.81 149.32 160.98 149.31 Z M 162.00 149.30 L 163.02 149.28 C 164.18 149.26 165.10 148.31 165.08 147.15 C 165.06 145.99 164.11 145.07 162.95 145.09 L 161.92 145.11 C 160.77 145.13 159.84 146.08 159.86 147.24 C 159.88 148.40 160.84 149.32 162.00 149.30 Z M 163.10 149.25 L 164.04 149.20 C 165.18 149.13 166.06 148.15 165.99 147.01 C 165.93 145.87 164.95 145.00 163.81 145.07 L 162.87 145.12 C 161.73 145.18 160.85 146.16 160.92 147.30 C 160.98 148.44 161.96 149.31 163.10 149.25 Z M 164.13 149.16 L 165.04 149.07 C 166.16 148.96 166.98 147.95 166.86 146.83 C 166.75 145.71 165.74 144.89 164.62 145.01 L 163.72 145.10 C 162.59 145.21 161.78 146.22 161.89 147.34 C 162.01 148.46 163.01 149.28 164.13 149.16 Z M 165.07 149.05 L 166.04 148.93 C 167.15 148.80 167.94 147.79 167.80 146.67 C 167.67 145.56 166.66 144.77 165.55 144.91 L 164.58 145.03 C 163.47 145.16 162.68 146.17 162.82 147.28 C 162.95 148.39 163.96 149.19 165.07 149.05 Z M 166.04 148.92 L 167.13 148.78 C 168.23 148.64 169.01 147.64 168.88 146.54 C 168.74 145.43 167.73 144.65 166.63 144.79 L 165.54 144.92 C 164.44 145.06 163.66 146.07 163.79 147.17 C 163.93 148.27 164.94 149.05 166.04 148.92 Z M 167.11 148.76 L 168.14 148.64 C 169.24 148.51 170.02 147.52 169.89 146.43 C 169.76 145.34 168.77 144.56 167.68 144.69 L 166.65 144.81 C 165.56 144.93 164.77 145.92 164.90 147.02 C 165.03 148.11 166.02 148.89 167.11 148.76 Z M 168.12 148.62 L 169.14 148.51 C 170.22 148.40 171.00 147.43 170.89 146.35 C 170.77 145.27 169.80 144.49 168.73 144.60 L 167.70 144.71 C 166.62 144.82 165.84 145.79 165.96 146.87 C 166.07 147.95 167.04 148.73 168.12 148.62 Z M 169.11 148.49 L 170.10 148.40 C 171.17 148.30 171.95 147.36 171.86 146.29 C 171.76 145.23 170.82 144.44 169.75 144.54 L 168.76 144.63 C 167.69 144.72 166.91 145.66 167.00 146.73 C 167.10 147.80 168.04 148.58 169.11 148.49 Z M 170.05 148.37 L 171.07 148.30 C 172.12 148.24 172.92 147.33 172.85 146.28 C 172.78 145.23 171.87 144.43 170.82 144.50 L 169.80 144.56 C 168.75 144.63 167.96 145.54 168.02 146.59 C 168.09 147.64 169.00 148.44 170.05 148.37 Z M 171.00 148.27 L 172.03 148.24 C 173.06 148.21 173.87 147.34 173.84 146.31 C 173.80 145.28 172.94 144.47 171.91 144.50 L 170.89 144.53 C 169.85 144.56 169.04 145.43 169.08 146.46 C 169.11 147.49 169.97 148.30 171.00 148.27 Z M 171.98 148.20 L 172.92 148.19 C 173.93 148.19 174.74 147.36 174.74 146.35 C 174.73 145.34 173.91 144.53 172.90 144.53 L 171.96 144.54 C 170.94 144.54 170.13 145.37 170.14 146.38 C 170.14 147.39 170.97 148.21 171.98 148.20 Z M 172.91 148.17 L 173.10 148.17 C 174.10 148.17 174.90 147.36 174.90 146.36 C 174.90 145.36 174.10 144.56 173.10 144.56 L 172.91 144.56 C 171.91 144.56 171.10 145.36 171.10 146.36 C 171.10 147.36 171.91 148.17 172.91 148.17 Z"
      fill="black"
      fill-rule="nonzero" /><path d="M 157.75 157.55 L 158.79 157.55 C 159.87 157.55 160.74 156.68 160.74 155.60 C 160.74 154.52 159.87 153.65 158.79 153.65 L 157.75 153.65 C 156.67 153.65 155.79 154.52 155.79 155.60 C 155.79 156.68 156.67 157.55 157.75 157.55 Z M 158.79 157.66 L 159.76 157.66 C 160.90 157.66 161.82 156.73 161.82 155.60 C 161.82 154.46 160.90 153.54 159.76 153.54 L 158.79 153.54 C 157.65 153.54 156.73 154.46 156.73 155.60 C 156.73 156.73 157.65 157.66 158.79 157.66 Z M 159.76 157.72 L 160.75 157.72 C 161.92 157.72 162.87 156.77 162.87 155.60 C 162.87 154.43 161.92 153.48 160.75 153.48 L 159.76 153.48 C 158.59 153.48 157.65 154.43 157.65 155.60 C 157.65 156.77 158.59 157.72 159.76 157.72 Z M 160.75 157.73 L 161.74 157.73 C 162.92 157.73 163.87 156.77 163.87 155.60 C 163.87 154.42 162.92 153.47 161.74 153.47 L 160.75 153.47 C 159.58 153.47 158.62 154.42 158.62 155.60 C 158.62 156.77 159.58 157.73 160.75 157.73 Z M 161.75 157.73 L 162.69 157.72 C 163.86 157.72 164.81 156.76 164.81 155.59 C 164.81 154.41 163.85 153.47 162.68 153.47 L 161.74 153.47 C 160.56 153.48 159.61 154.43 159.62 155.61 C 159.62 156.78 160.58 157.73 161.75 157.73 Z M 162.73 157.72 L 163.77 157.70 C 164.95 157.67 165.88 156.70 165.85 155.53 C 165.83 154.35 164.86 153.42 163.68 153.45 L 162.64 153.47 C 161.46 153.50 160.53 154.47 160.56 155.64 C 160.58 156.82 161.55 157.75 162.73 157.72 Z M 163.83 157.69 L 164.83 157.64 C 166.00 157.58 166.90 156.59 166.84 155.42 C 166.79 154.25 165.79 153.35 164.62 153.41 L 163.62 153.46 C 162.45 153.51 161.55 154.51 161.61 155.68 C 161.67 156.85 162.66 157.75 163.83 157.69 Z M 164.88 157.63 L 165.88 157.56 C 167.05 157.47 167.92 156.46 167.84 155.30 C 167.75 154.13 166.74 153.26 165.58 153.34 L 164.57 153.42 C 163.41 153.50 162.54 154.52 162.62 155.68 C 162.71 156.84 163.72 157.72 164.88 157.63 Z M 165.92 157.54 L 166.91 157.45 C 168.07 157.35 168.92 156.33 168.82 155.17 C 168.71 154.02 167.69 153.17 166.54 153.27 L 165.54 153.36 C 164.39 153.46 163.54 154.48 163.64 155.64 C 163.74 156.79 164.76 157.64 165.92 157.54 Z M 166.93 157.43 L 167.91 157.34 C 169.05 157.22 169.88 156.20 169.77 155.06 C 169.65 153.91 168.63 153.08 167.49 153.19 L 166.52 153.29 C 165.38 153.40 164.54 154.42 164.66 155.57 C 164.77 156.71 165.79 157.55 166.93 157.43 Z M 167.91 157.31 L 168.92 157.21 C 170.06 157.09 170.88 156.07 170.76 154.94 C 170.64 153.81 169.62 152.99 168.49 153.11 L 167.48 153.21 C 166.35 153.33 165.53 154.35 165.65 155.48 C 165.77 156.61 166.78 157.43 167.91 157.31 Z M 168.92 157.18 L 169.93 157.08 C 171.05 156.96 171.86 155.96 171.74 154.84 C 171.62 153.72 170.62 152.91 169.50 153.03 L 168.49 153.13 C 167.38 153.25 166.56 154.25 166.68 155.37 C 166.80 156.49 167.80 157.30 168.92 157.18 Z M 169.91 157.05 L 170.92 156.95 C 172.02 156.85 172.83 155.86 172.72 154.76 C 172.62 153.65 171.63 152.85 170.53 152.95 L 169.52 153.05 C 168.42 153.16 167.61 154.14 167.72 155.25 C 167.82 156.35 168.80 157.16 169.91 157.05 Z M 170.88 156.93 L 171.88 156.85 C 172.97 156.76 173.78 155.81 173.69 154.72 C 173.61 153.63 172.65 152.82 171.56 152.90 L 170.57 152.98 C 169.48 153.07 168.67 154.02 168.75 155.11 C 168.84 156.20 169.79 157.01 170.88 156.93 Z M 171.81 156.82 L 172.84 156.77 C 173.92 156.72 174.74 155.80 174.69 154.73 C 174.64 153.66 173.73 152.83 172.66 152.88 L 171.63 152.93 C 170.56 152.98 169.73 153.90 169.78 154.97 C 169.83 156.04 170.74 156.87 171.81 156.82 Z M 172.78 156.72 L 173.77 156.71 C 174.82 156.69 175.66 155.83 175.64 154.78 C 175.62 153.73 174.76 152.89 173.71 152.91 L 172.72 152.93 C 171.67 152.94 170.84 153.81 170.85 154.86 C 170.87 155.91 171.73 156.74 172.78 156.72 Z M 173.75 156.67 L 174.49 156.67 C 175.52 156.66 176.35 155.83 176.34 154.80 C 176.34 153.78 175.51 152.95 174.48 152.95 L 173.74 152.95 C 172.71 152.95 171.88 153.79 171.88 154.81 C 171.89 155.84 172.72 156.67 173.75 156.67 Z"
      fill="black"
      fill-rule="nonzero" /><path d="M 149.66 179.11 L 150.57 179.00 C 151.67 178.88 152.47 177.89 152.34 176.79 C 152.22 175.69 151.23 174.90 150.13 175.02 L 149.21 175.12 C 148.11 175.25 147.32 176.24 147.45 177.34 C 147.57 178.44 148.56 179.23 149.66 179.11 Z M 150.55 179.13 L 151.56 179.03 C 152.73 178.92 153.59 177.89 153.48 176.72 C 153.37 175.55 152.33 174.70 151.17 174.81 L 150.15 174.90 C 148.99 175.01 148.13 176.04 148.24 177.21 C 148.35 178.38 149.38 179.24 150.55 179.13 Z M 151.51 179.12 L 152.57 179.05 C 153.79 178.97 154.71 177.91 154.62 176.70 C 154.54 175.48 153.49 174.56 152.27 174.64 L 151.21 174.71 C 150.00 174.80 149.08 175.85 149.16 177.07 C 149.24 178.29 150.30 179.21 151.51 179.12 Z M 152.53 179.09 L 153.58 179.03 C 154.81 178.97 155.77 177.91 155.70 176.67 C 155.64 175.44 154.58 174.48 153.34 174.55 L 152.30 174.60 C 151.06 174.67 150.11 175.72 150.17 176.96 C 150.24 178.20 151.30 179.15 152.53 179.09 Z M 153.57 179.05 L 154.57 179.00 C 155.82 178.94 156.78 177.88 156.72 176.64 C 156.66 175.39 155.60 174.43 154.36 174.49 L 153.35 174.53 C 152.10 174.59 151.14 175.65 151.20 176.90 C 151.26 178.15 152.32 179.11 153.57 179.05 Z M 154.58 179.01 L 155.64 178.96 C 156.90 178.89 157.86 177.82 157.79 176.57 C 157.73 175.32 156.66 174.35 155.40 174.42 L 154.35 174.48 C 153.09 174.54 152.13 175.61 152.20 176.86 C 152.26 178.12 153.33 179.08 154.58 179.01 Z M 155.67 178.96 L 156.63 178.90 C 157.88 178.82 158.84 177.74 158.76 176.49 C 158.68 175.23 157.60 174.28 156.34 174.36 L 155.38 174.42 C 154.13 174.49 153.17 175.58 153.25 176.83 C 153.33 178.09 154.41 179.04 155.67 178.96 Z M 156.62 178.90 L 157.53 178.85 C 158.79 178.78 159.75 177.70 159.68 176.45 C 159.61 175.19 158.53 174.23 157.27 174.30 L 156.36 174.35 C 155.10 174.42 154.14 175.50 154.21 176.76 C 154.28 178.02 155.36 178.98 156.62 178.90 Z M 157.51 178.86 L 158.51 178.81 C 159.77 178.75 160.74 177.68 160.68 176.42 C 160.62 175.16 159.55 174.19 158.29 174.25 L 157.29 174.30 C 156.03 174.36 155.06 175.43 155.12 176.69 C 155.18 177.95 156.25 178.92 157.51 178.86 Z M 158.53 178.81 L 159.52 178.75 C 160.78 178.68 161.74 177.60 161.67 176.35 C 161.60 175.09 160.53 174.12 159.27 174.19 L 158.28 174.25 C 157.02 174.32 156.06 175.40 156.13 176.65 C 156.20 177.91 157.27 178.88 158.53 178.81 Z M 159.55 178.75 L 160.56 178.68 C 161.81 178.59 162.76 177.50 162.68 176.25 C 162.59 174.99 161.50 174.04 160.25 174.13 L 159.24 174.20 C 157.98 174.28 157.03 175.37 157.12 176.63 C 157.20 177.88 158.29 178.83 159.55 178.75 Z M 160.59 178.67 L 161.60 178.59 C 162.85 178.49 163.78 177.39 163.68 176.14 C 163.58 174.88 162.48 173.95 161.23 174.05 L 160.22 174.13 C 158.96 174.23 158.03 175.33 158.13 176.59 C 158.23 177.84 159.33 178.78 160.59 178.67 Z M 161.59 178.59 L 162.59 178.51 C 163.85 178.41 164.78 177.31 164.68 176.06 C 164.58 174.80 163.48 173.87 162.23 173.97 L 161.23 174.05 C 159.97 174.15 159.04 175.25 159.14 176.51 C 159.24 177.76 160.34 178.69 161.59 178.59 Z M 162.55 178.51 L 163.56 178.45 C 164.81 178.37 165.77 177.29 165.69 176.04 C 165.61 174.78 164.53 173.83 163.28 173.91 L 162.27 173.97 C 161.01 174.05 160.06 175.13 160.14 176.38 C 160.22 177.64 161.30 178.59 162.55 178.51 Z M 163.53 178.45 L 164.52 178.40 C 165.77 178.34 166.74 177.27 166.68 176.02 C 166.62 174.77 165.55 173.80 164.30 173.86 L 163.31 173.91 C 162.06 173.97 161.09 175.04 161.15 176.29 C 161.21 177.54 162.28 178.51 163.53 178.45 Z M 164.54 178.39 L 165.54 178.34 C 166.79 178.26 167.75 177.19 167.68 175.94 C 167.60 174.69 166.53 173.74 165.28 173.81 L 164.28 173.87 C 163.03 173.94 162.07 175.01 162.15 176.26 C 162.22 177.51 163.29 178.46 164.54 178.39 Z M 165.56 178.33 L 166.55 178.26 C 167.80 178.18 168.74 177.10 168.66 175.85 C 168.57 174.61 167.49 173.66 166.25 173.75 L 165.26 173.82 C 164.01 173.90 163.07 174.98 163.15 176.22 C 163.24 177.47 164.32 178.41 165.56 178.33 Z M 166.56 178.26 L 167.40 178.20 C 168.64 178.11 169.58 177.03 169.49 175.78 C 169.40 174.54 168.32 173.61 167.07 173.69 L 166.24 173.75 C 165.00 173.84 164.06 174.92 164.15 176.17 C 164.24 177.41 165.32 178.35 166.56 178.26 Z M 167.40 178.19 L 168.45 178.11 C 169.69 178.02 170.62 176.94 170.53 175.70 C 170.44 174.46 169.36 173.53 168.12 173.62 L 167.07 173.70 C 165.83 173.79 164.90 174.87 164.99 176.11 C 165.08 177.35 166.16 178.28 167.40 178.19 Z M 168.45 178.11 L 169.45 178.04 C 170.69 177.95 171.62 176.87 171.53 175.63 C 171.44 174.39 170.36 173.46 169.13 173.55 L 168.12 173.63 C 166.88 173.72 165.95 174.79 166.04 176.03 C 166.13 177.27 167.21 178.20 168.45 178.11 Z M 169.45 178.03 L 170.42 177.96 C 171.65 177.87 172.58 176.80 172.49 175.56 C 172.40 174.33 171.33 173.40 170.09 173.49 L 169.13 173.56 C 167.89 173.65 166.96 174.72 167.05 175.96 C 167.14 177.19 168.22 178.12 169.45 178.03 Z M 170.41 177.96 L 171.46 177.89 C 172.69 177.80 173.62 176.73 173.53 175.49 C 173.45 174.26 172.38 173.33 171.14 173.42 L 170.10 173.49 C 168.86 173.58 167.93 174.65 168.02 175.88 C 168.11 177.12 169.18 178.05 170.41 177.96 Z M 171.45 177.88 L 172.52 177.81 C 173.75 177.73 174.68 176.66 174.60 175.43 C 174.51 174.20 173.45 173.26 172.21 173.35 L 171.15 173.42 C 169.92 173.50 168.98 174.57 169.07 175.80 C 169.15 177.04 170.22 177.97 171.45 177.88 Z M 172.51 177.80 L 173.56 177.74 C 174.79 177.66 175.73 176.60 175.65 175.37 C 175.57 174.14 174.51 173.21 173.28 173.29 L 172.22 173.35 C 170.99 173.43 170.06 174.49 170.14 175.72 C 170.22 176.95 171.28 177.88 172.51 177.80 Z M 173.55 177.72 L 174.57 177.66 C 175.80 177.59 176.73 176.54 176.66 175.32 C 176.58 174.10 175.53 173.17 174.31 173.24 L 173.29 173.30 C 172.07 173.37 171.14 174.42 171.21 175.64 C 171.28 176.87 172.33 177.80 173.55 177.72 Z M 174.57 177.65 L 175.55 177.59 C 176.76 177.53 177.69 176.49 177.62 175.27 C 177.55 174.06 176.51 173.13 175.30 173.20 L 174.32 173.25 C 173.11 173.32 172.18 174.36 172.24 175.57 C 172.31 176.79 173.35 177.72 174.57 177.65 Z M 175.54 177.58 L 176.50 177.53 C 177.71 177.46 178.63 176.43 178.57 175.23 C 178.50 174.02 177.47 173.10 176.27 173.16 L 175.31 173.21 C 174.10 173.28 173.18 174.31 173.24 175.51 C 173.31 176.72 174.34 177.64 175.54 177.58 Z M 176.50 177.52 L 176.71 177.51 C 177.91 177.44 178.83 176.42 178.76 175.22 C 178.70 174.02 177.67 173.09 176.47 173.16 L 176.27 173.17 C 175.07 173.23 174.15 174.26 174.21 175.46 C 174.28 176.66 175.30 177.58 176.50 177.52 Z"
      fill="black"
      fill-rule="nonzero" /></svg>