<svg xmlns="http://www.w3.org/2000/svg" width="300" height="300" viewBox="0 0 300 300">
<path d="M 122.50 114.95 L 122.04 115.86 C 121.54 116.86 121.94 118.09 122.95 118.60 C 123.96 119.10 125.19 118.70 125.69 117.69 L 126.15 116.78 C 126.66 115.77 126.25 114.55 125.24 114.04 C 124.23 113.53 123.01 113.94 122.50 114.95 Z M 121.69 116.89 L 121.74 117.77 C 121.80 118.98 122.83 119.90 124.04 119.83 C 125.24 119.77 126.16 118.74 126.10 117.53 L 126.05 116.65 C 125.98 115.45 124.95 114.53 123.75 114.59 C 122.54 114.66 121.62 115.69 121.69 116.89 Z M 122.06 118.93 L 122.62 119.75 C 123.33 120.78 124.73 121.04 125.76 120.33 C 126.79 119.63 127.05 118.23 126.34 117.20 L 125.78 116.38 C 125.07 115.35 123.67 115.09 122.64 115.79 C 121.61 116.50 121.35 117.90 122.06 118.93 Z M 122.95 120.15 L 123.74 120.88 C 124.67 121.72 126.11 121.66 126.95 120.73 C 127.80 119.80 127.73 118.36 126.81 117.52 L 126.01 116.80 C 125.09 115.95 123.65 116.02 122.80 116.94 C 121.96 117.87 122.02 119.31 122.95 120.15 Z M 123.93 121.02 L 124.75 121.63 C 125.76 122.37 127.17 122.16 127.92 121.15 C 128.66 120.15 128.45 118.73 127.45 117.99 L 126.62 117.38 C 125.62 116.63 124.20 116.84 123.45 117.85 C 122.71 118.86 122.92 120.27 123.93 121.02 Z M 124.86 121.67 L 125.70 122.23 C 126.72 122.91 128.11 122.64 128.80 121.61 C 129.49 120.58 129.21 119.19 128.18 118.50 L 127.34 117.94 C 126.31 117.26 124.92 117.54 124.23 118.57 C 123.55 119.60 123.83 120.98 124.86 121.67 Z M 125.79 122.22 L 126.63 122.74 C 127.65 123.38 129.00 123.06 129.63 122.04 C 130.27 121.01 129.95 119.67 128.93 119.03 L 128.09 118.51 C 127.06 117.87 125.72 118.19 125.08 119.21 C 124.44 120.24 124.76 121.59 125.79 122.22 Z M 126.72 122.72 L 127.54 123.20 C 128.55 123.78 129.85 123.44 130.44 122.43 C 131.02 121.41 130.68 120.12 129.66 119.53 L 128.84 119.05 C 127.83 118.47 126.53 118.81 125.94 119.83 C 125.36 120.84 125.70 122.13 126.72 122.72 Z M 127.60 123.17 L 128.49 123.66 C 129.49 124.22 130.74 123.85 131.30 122.86 C 131.85 121.86 131.49 120.60 130.49 120.05 L 129.60 119.56 C 128.61 119.01 127.35 119.37 126.80 120.36 C 126.24 121.36 126.60 122.62 127.60 123.17 Z M 128.53 123.64 L 129.41 124.11 C 130.39 124.63 131.62 124.26 132.15 123.28 C 132.67 122.29 132.30 121.07 131.32 120.54 L 130.44 120.07 C 129.46 119.54 128.23 119.92 127.70 120.90 C 127.18 121.89 127.55 123.11 128.53 123.64 Z M 129.45 124.09 L 130.36 124.55 C 131.33 125.06 132.53 124.67 133.03 123.70 C 133.53 122.72 133.15 121.52 132.17 121.02 L 131.27 120.56 C 130.30 120.05 129.10 120.44 128.60 121.42 C 128.09 122.39 128.48 123.59 129.45 124.09 Z M 130.40 124.54 L 131.28 124.97 C 132.25 125.45 133.42 125.05 133.90 124.08 C 134.37 123.11 133.97 121.94 133.00 121.46 L 132.13 121.03 C 131.16 120.56 129.98 120.96 129.51 121.93 C 129.03 122.89 129.43 124.07 130.40 124.54 Z M 131.32 124.96 L 132.24 125.39 C 133.20 125.85 134.35 125.44 134.80 124.48 C 135.26 123.52 134.85 122.38 133.89 121.92 L 132.97 121.48 C 132.01 121.02 130.86 121.43 130.41 122.39 C 129.95 123.35 130.36 124.50 131.32 124.96 Z M 132.26 125.37 L 133.17 125.80 C 134.12 126.24 135.24 125.83 135.69 124.88 C 136.13 123.94 135.72 122.81 134.78 122.37 L 133.87 121.94 C 132.92 121.50 131.79 121.91 131.35 122.85 C 130.91 123.80 131.32 124.93 132.26 125.37 Z M 133.21 125.78 L 134.12 126.19 C 135.05 126.61 136.15 126.20 136.58 125.26 C 137.00 124.33 136.59 123.23 135.65 122.80 L 134.74 122.39 C 133.81 121.96 132.70 122.38 132.28 123.31 C 131.86 124.25 132.27 125.35 133.21 125.78 Z M 134.16 126.18 L 135.10 126.58 C 136.03 126.98 137.11 126.55 137.51 125.62 C 137.91 124.69 137.47 123.61 136.54 123.21 L 135.61 122.81 C 134.67 122.41 133.60 122.84 133.20 123.77 C 132.80 124.71 133.23 125.78 134.16 126.18 Z M 135.14 126.58 L 136.05 126.95 C 136.98 127.33 138.04 126.87 138.42 125.94 C 138.79 125.01 138.34 123.95 137.41 123.57 L 136.50 123.21 C 135.57 122.83 134.51 123.28 134.13 124.22 C 133.76 125.15 134.21 126.21 135.14 126.58 Z M 136.08 126.95 L 136.94 127.28 C 137.88 127.64 138.92 127.17 139.28 126.24 C 139.64 125.31 139.17 124.26 138.24 123.90 L 137.38 123.57 C 136.45 123.21 135.40 123.68 135.04 124.61 C 134.68 125.55 135.15 126.59 136.08 126.95 Z M 136.98 127.29 L 137.97 127.65 C 138.90 127.98 139.94 127.50 140.28 126.56 C 140.61 125.62 140.13 124.59 139.19 124.25 L 138.20 123.89 C 137.27 123.56 136.23 124.04 135.89 124.98 C 135.56 125.92 136.04 126.95 136.98 127.29 Z M 138.00 127.65 L 138.90 127.96 C 139.84 128.28 140.86 127.78 141.18 126.83 C 141.50 125.89 141.00 124.87 140.06 124.55 L 139.16 124.24 C 138.22 123.92 137.19 124.42 136.87 125.37 C 136.55 126.31 137.05 127.33 138.00 127.65 Z M 138.91 127.96 L 139.86 128.28 C 140.81 128.59 141.83 128.08 142.14 127.14 C 142.45 126.19 141.94 125.17 141.00 124.86 L 140.04 124.54 C 139.10 124.23 138.08 124.74 137.77 125.69 C 137.45 126.63 137.97 127.65 138.91 127.96 Z M 139.87 128.28 L 140.88 128.61 C 141.83 128.92 142.84 128.41 143.15 127.46 C 143.46 126.52 142.95 125.50 142.00 125.19 L 140.99 124.86 C 140.05 124.55 139.03 125.07 138.72 126.01 C 138.41 126.95 138.93 127.97 139.87 128.28 Z M 140.88 128.61 L 141.00 128.65 C 141.94 128.96 142.96 128.44 143.27 127.50 C 143.57 126.55 143.06 125.54 142.11 125.23 L 142.00 125.19 C 141.06 124.88 140.04 125.40 139.73 126.34 C 139.42 127.29 139.94 128.30 140.88 128.61 Z"
      fill="black"
      fill-rule="nonzero" /><path d="M 132.47 119.20 L 133.22 118.62 C 134.12 117.92 134.27 116.62 133.57 115.73 C 132.87 114.83 131.57 114.67 130.68 115.37 L 129.93 115.95 C 129.03 116.66 128.88 117.95 129.58 118.85 C 130.28 119.75 131.58 119.91 132.47 119.20 Z M 133.10 118.86 L 133.99 118.31 C 135.02 117.68 135.34 116.33 134.71 115.30 C 134.08 114.27 132.73 113.94 131.69 114.58 L 130.80 115.13 C 129.77 115.76 129.45 117.11 130.08 118.15 C 130.72 119.18 132.07 119.50 133.10 118.86 Z M 133.77 118.51 L 134.65 118.11 C 135.79 117.60 136.30 116.27 135.79 115.13 C 135.28 113.99 133.95 113.47 132.81 113.98 L 131.92 114.38 C 130.78 114.89 130.27 116.23 130.78 117.37 C 131.29 118.51 132.63 119.02 133.77 118.51 Z M 134.51 118.18 L 135.47 117.83 C 136.65 117.40 137.26 116.09 136.83 114.92 C 136.40 113.74 135.09 113.13 133.91 113.56 L 132.95 113.92 C 131.77 114.35 131.17 115.65 131.60 116.83 C 132.03 118.01 133.33 118.61 134.51 118.18 Z M 135.40 117.87 L 136.37 117.55 C 137.57 117.16 138.22 115.87 137.83 114.67 C 137.44 113.48 136.15 112.82 134.96 113.21 L 133.99 113.53 C 132.79 113.92 132.14 115.21 132.53 116.40 C 132.92 117.60 134.20 118.26 135.40 117.87 Z M 136.33 117.57 L 137.28 117.28 C 138.49 116.92 139.17 115.64 138.80 114.43 C 138.43 113.22 137.15 112.53 135.94 112.90 L 135.00 113.19 C 133.79 113.56 133.10 114.84 133.47 116.05 C 133.84 117.26 135.12 117.94 136.33 117.57 Z M 137.25 117.30 L 138.20 117.02 C 139.42 116.67 140.12 115.39 139.76 114.17 C 139.40 112.95 138.13 112.25 136.91 112.61 L 135.96 112.89 C 134.74 113.24 134.04 114.52 134.40 115.74 C 134.76 116.96 136.04 117.66 137.25 117.30 Z M 138.19 117.04 L 139.13 116.77 C 140.35 116.41 141.06 115.13 140.71 113.91 C 140.35 112.68 139.07 111.97 137.84 112.33 L 136.91 112.60 C 135.69 112.95 134.98 114.23 135.33 115.46 C 135.69 116.68 136.97 117.39 138.19 117.04 Z M 139.11 116.79 L 140.09 116.51 C 141.33 116.17 142.05 114.89 141.71 113.65 C 141.36 112.41 140.08 111.69 138.84 112.03 L 137.86 112.31 C 136.62 112.65 135.90 113.94 136.25 115.17 C 136.59 116.41 137.87 117.13 139.11 116.79 Z M 140.06 116.53 L 141.03 116.27 C 142.28 115.95 143.02 114.67 142.69 113.42 C 142.36 112.18 141.09 111.44 139.84 111.76 L 138.87 112.02 C 137.63 112.35 136.89 113.62 137.21 114.87 C 137.54 116.11 138.82 116.86 140.06 116.53 Z M 141.00 116.28 L 141.96 116.04 C 143.21 115.73 143.97 114.47 143.66 113.22 C 143.35 111.97 142.09 111.21 140.84 111.52 L 139.88 111.75 C 138.62 112.06 137.86 113.33 138.17 114.58 C 138.48 115.83 139.75 116.59 141.00 116.28 Z M 141.94 116.05 L 142.93 115.81 C 144.18 115.52 144.95 114.26 144.66 113.01 C 144.36 111.75 143.10 110.98 141.85 111.28 L 140.86 111.51 C 139.61 111.81 138.83 113.07 139.13 114.32 C 139.43 115.57 140.68 116.34 141.94 116.05 Z M 142.91 115.81 L 143.87 115.59 C 145.12 115.31 145.90 114.06 145.62 112.80 C 145.33 111.55 144.08 110.77 142.83 111.06 L 141.87 111.28 C 140.62 111.56 139.83 112.81 140.12 114.07 C 140.41 115.32 141.66 116.10 142.91 115.81 Z M 143.85 115.59 L 144.82 115.38 C 146.07 115.10 146.86 113.86 146.59 112.61 C 146.31 111.36 145.07 110.57 143.82 110.84 L 142.85 111.06 C 141.59 111.34 140.80 112.57 141.08 113.83 C 141.36 115.08 142.60 115.87 143.85 115.59 Z M 144.80 115.38 L 145.80 115.17 C 147.05 114.90 147.85 113.67 147.59 112.42 C 147.32 111.17 146.09 110.37 144.84 110.63 L 143.84 110.84 C 142.59 111.11 141.79 112.34 142.05 113.59 C 142.31 114.84 143.54 115.64 144.80 115.38 Z M 145.77 115.17 L 146.74 114.97 C 147.99 114.73 148.80 113.51 148.56 112.26 C 148.31 111.01 147.09 110.19 145.84 110.44 L 144.87 110.63 C 143.62 110.88 142.80 112.10 143.05 113.35 C 143.30 114.60 144.52 115.41 145.77 115.17 Z M 146.71 114.97 L 147.68 114.79 C 148.93 114.56 149.76 113.36 149.53 112.11 C 149.30 110.86 148.10 110.03 146.85 110.26 L 145.87 110.44 C 144.62 110.67 143.79 111.88 144.02 113.13 C 144.26 114.38 145.46 115.20 146.71 114.97 Z M 147.65 114.79 L 148.65 114.62 C 149.90 114.40 150.74 113.22 150.52 111.97 C 150.31 110.72 149.12 109.88 147.88 110.09 L 146.88 110.26 C 145.63 110.48 144.79 111.67 145.00 112.91 C 145.22 114.16 146.40 115.00 147.65 114.79 Z M 148.62 114.61 L 149.62 114.45 C 150.86 114.26 151.71 113.09 151.52 111.84 C 151.32 110.59 150.15 109.74 148.90 109.94 L 147.91 110.10 C 146.66 110.29 145.81 111.46 146.01 112.71 C 146.20 113.96 147.37 114.81 148.62 114.61 Z M 149.59 114.45 L 150.58 114.30 C 151.82 114.12 152.68 112.97 152.50 111.72 C 152.32 110.48 151.16 109.62 149.92 109.80 L 148.93 109.95 C 147.69 110.13 146.83 111.28 147.01 112.53 C 147.19 113.77 148.35 114.63 149.59 114.45 Z M 150.56 114.30 L 151.55 114.16 C 152.79 113.99 153.66 112.84 153.49 111.60 C 153.31 110.36 152.17 109.50 150.93 109.67 L 149.93 109.81 C 148.70 109.98 147.83 111.13 148.00 112.37 C 148.18 113.60 149.32 114.47 150.56 114.30 Z M 151.55 114.15 L 152.54 114.01 C 153.77 113.85 154.64 112.71 154.47 111.47 C 154.30 110.24 153.16 109.38 151.93 109.54 L 150.94 109.68 C 149.70 109.85 148.84 110.99 149.01 112.22 C 149.17 113.45 150.31 114.32 151.55 114.15 Z M 152.54 114.00 L 153.52 113.87 C 154.75 113.70 155.61 112.57 155.44 111.34 C 155.27 110.12 154.14 109.26 152.92 109.42 L 151.93 109.56 C 150.71 109.73 149.85 110.85 150.01 112.08 C 150.18 113.31 151.31 114.17 152.54 114.00 Z M 153.52 113.85 L 154.50 113.72 C 155.72 113.55 156.57 112.44 156.41 111.22 C 156.25 110.00 155.13 109.15 153.91 109.31 L 152.92 109.44 C 151.71 109.60 150.85 110.72 151.01 111.94 C 151.18 113.16 152.30 114.01 153.52 113.85 Z M 154.49 113.70 L 155.49 113.57 C 156.70 113.42 157.55 112.31 157.39 111.10 C 157.24 109.89 156.13 109.04 154.92 109.19 L 153.92 109.32 C 152.71 109.48 151.86 110.59 152.02 111.80 C 152.17 113.01 153.28 113.86 154.49 113.70 Z M 155.47 113.56 L 156.48 113.43 C 157.68 113.28 158.53 112.19 158.38 110.99 C 158.24 109.79 157.15 108.94 155.95 109.09 L 154.94 109.21 C 153.74 109.36 152.88 110.45 153.03 111.65 C 153.18 112.85 154.27 113.70 155.47 113.56 Z M 156.46 113.41 L 157.47 113.29 C 158.66 113.16 159.51 112.09 159.38 110.90 C 159.24 109.71 158.17 108.86 156.98 109.00 L 155.97 109.11 C 154.78 109.25 153.93 110.32 154.06 111.50 C 154.20 112.69 155.27 113.54 156.46 113.41 Z M 157.45 113.27 L 158.44 113.17 C 159.62 113.05 160.47 112.00 160.35 110.82 C 160.23 109.65 159.18 108.80 158.01 108.92 L 157.01 109.02 C 155.84 109.14 154.98 110.19 155.10 111.36 C 155.22 112.54 156.27 113.39 157.45 113.27 Z M 158.41 113.14 L 159.38 113.06 C 160.54 112.96 161.40 111.93 161.30 110.77 C 161.20 109.61 160.18 108.75 159.02 108.86 L 158.04 108.94 C 156.88 109.04 156.02 110.07 156.12 111.23 C 156.22 112.39 157.25 113.25 158.41 113.14 Z M 159.34 113.04 L 160.39 112.97 C 161.54 112.89 162.41 111.89 162.33 110.74 C 162.25 109.59 161.26 108.72 160.11 108.80 L 159.06 108.88 C 157.91 108.95 157.04 109.95 157.12 111.10 C 157.20 112.25 158.19 113.12 159.34 113.04 Z M 160.36 112.95 L 161.34 112.90 C 162.48 112.83 163.36 111.86 163.29 110.72 C 163.23 109.58 162.26 108.71 161.12 108.77 L 160.14 108.82 C 159.00 108.88 158.12 109.86 158.19 111.00 C 158.25 112.14 159.22 113.01 160.36 112.95 Z M 161.33 112.88 L 162.29 112.83 C 163.42 112.77 164.29 111.82 164.23 110.69 C 164.18 109.56 163.22 108.69 162.09 108.74 L 161.13 108.79 C 160.00 108.84 159.13 109.80 159.19 110.93 C 159.24 112.06 160.20 112.93 161.33 112.88 Z M 162.29 112.81 L 163.31 112.76 C 164.43 112.70 165.29 111.75 165.24 110.64 C 165.18 109.52 164.23 108.66 163.12 108.71 L 162.09 108.76 C 160.97 108.82 160.11 109.77 160.17 110.88 C 160.22 112.00 161.17 112.86 162.29 112.81 Z M 163.30 112.74 L 164.28 112.70 C 165.39 112.65 166.24 111.72 166.20 110.61 C 166.15 109.50 165.22 108.65 164.11 108.69 L 163.13 108.73 C 162.02 108.78 161.16 109.71 161.21 110.82 C 161.26 111.93 162.19 112.78 163.30 112.74 Z M 164.25 112.68 L 165.26 112.65 C 166.35 112.63 167.22 111.72 167.19 110.62 C 167.17 109.52 166.25 108.66 165.16 108.68 L 164.15 108.71 C 163.05 108.74 162.18 109.65 162.21 110.74 C 162.24 111.84 163.15 112.71 164.25 112.68 Z M 165.22 112.64 L 166.23 112.63 C 167.32 112.62 168.19 111.73 168.18 110.64 C 168.17 109.55 167.28 108.68 166.19 108.69 L 165.19 108.70 C 164.10 108.71 163.23 109.60 163.23 110.69 C 163.24 111.77 164.13 112.65 165.22 112.64 Z M 166.21 112.62 L 167.20 112.62 C 168.29 112.62 169.16 111.74 169.16 110.66 C 169.16 109.58 168.28 108.70 167.20 108.70 L 166.21 108.70 C 165.13 108.70 164.25 109.58 164.25 110.66 C 164.25 111.75 165.13 112.62 166.21 112.62 Z M 167.20 112.61 L 168.21 112.61 C 169.29 112.61 170.17 111.74 170.17 110.66 C 170.17 109.58 169.29 108.71 168.21 108.71 L 167.20 108.71 C 166.12 108.71 165.25 109.58 165.25 110.66 C 165.25 111.74 166.12 112.61 167.20 112.61 Z M 168.21 112.60 L 169.19 112.60 C 170.26 112.60 171.13 111.73 171.13 110.66 C 171.13 109.59 170.26 108.72 169.19 108.72 L 168.21 108.72 C 167.14 108.72 166.27 109.59 166.27 110.66 C 166.27 111.73 167.14 112.60 168.21 112.60 Z M 169.16 112.59 L 170.15 112.61 C 171.22 112.63 172.10 111.77 172.12 110.71 C 172.13 109.64 171.28 108.76 170.21 108.74 L 169.22 108.73 C 168.15 108.71 167.27 109.56 167.26 110.63 C 167.24 111.70 168.09 112.58 169.16 112.59 Z M 170.05 112.60 L 171.01 112.66 C 172.07 112.74 172.99 111.93 173.06 110.87 C 173.14 109.81 172.33 108.89 171.27 108.82 L 170.31 108.75 C 169.25 108.68 168.33 109.48 168.26 110.55 C 168.19 111.61 168.99 112.53 170.05 112.60 Z M 170.83 112.64 L 171.82 112.80 C 172.87 112.98 173.86 112.27 174.03 111.22 C 174.21 110.17 173.50 109.18 172.45 109.01 L 171.45 108.84 C 170.41 108.67 169.42 109.38 169.24 110.43 C 169.07 111.47 169.78 112.46 170.83 112.64 Z M 171.60 112.75 L 172.57 113.03 C 173.59 113.33 174.65 112.74 174.95 111.72 C 175.24 110.71 174.66 109.64 173.64 109.35 L 172.67 109.07 C 171.66 108.77 170.59 109.35 170.30 110.37 C 170.00 111.39 170.58 112.45 171.60 112.75 Z M 172.40 112.96 L 173.34 113.34 C 174.32 113.73 175.44 113.25 175.83 112.27 C 176.22 111.29 175.74 110.18 174.76 109.79 L 173.82 109.41 C 172.84 109.02 171.72 109.50 171.33 110.48 C 170.94 111.46 171.42 112.57 172.40 112.96 Z M 173.18 113.26 L 174.11 113.73 C 175.04 114.21 176.19 113.84 176.67 112.91 C 177.15 111.97 176.78 110.83 175.85 110.35 L 174.92 109.87 C 173.99 109.39 172.84 109.76 172.36 110.70 C 171.88 111.63 172.25 112.78 173.18 113.26 Z M 173.91 113.61 L 174.72 114.16 C 175.59 114.75 176.77 114.53 177.36 113.66 C 177.95 112.80 177.72 111.62 176.86 111.03 L 176.04 110.47 C 175.18 109.88 174.00 110.11 173.41 110.97 C 172.82 111.84 173.04 113.02 173.91 113.61 Z M 174.47 113.96 L 175.17 114.63 C 175.93 115.36 177.13 115.34 177.85 114.58 C 178.58 113.83 178.56 112.62 177.80 111.90 L 177.11 111.23 C 176.35 110.50 175.15 110.52 174.42 111.28 C 173.70 112.03 173.72 113.23 174.47 113.96 Z M 174.82 114.21 L 175.31 115.07 C 175.83 116.00 177.00 116.32 177.92 115.80 C 178.84 115.28 179.17 114.11 178.65 113.19 L 178.16 112.32 C 177.64 111.40 176.47 111.07 175.54 111.59 C 174.62 112.11 174.29 113.29 174.82 114.21 Z M 175.07 114.53 L 175.28 115.49 C 175.50 116.54 176.53 117.21 177.58 116.99 C 178.63 116.77 179.30 115.73 179.08 114.68 L 178.88 113.73 C 178.66 112.68 177.63 112.01 176.57 112.23 C 175.52 112.45 174.85 113.48 175.07 114.53 Z M 175.21 115.17 L 175.26 116.19 C 175.30 117.28 176.22 118.12 177.31 118.07 C 178.39 118.02 179.23 117.11 179.19 116.02 L 179.14 115.00 C 179.09 113.91 178.18 113.07 177.09 113.12 C 176.01 113.17 175.17 114.09 175.21 115.17 Z M 175.24 115.97 L 175.17 116.97 C 175.09 118.06 175.92 119.01 177.01 119.09 C 178.10 119.16 179.05 118.34 179.13 117.25 L 179.20 116.25 C 179.28 115.15 178.45 114.20 177.36 114.13 C 176.27 114.05 175.32 114.87 175.24 115.97 Z M 175.21 116.63 L 174.97 117.59 C 174.71 118.66 175.36 119.74 176.43 120.01 C 177.50 120.27 178.59 119.62 178.85 118.55 L 179.09 117.59 C 179.35 116.52 178.70 115.43 177.63 115.17 C 176.56 114.90 175.48 115.56 175.21 116.63 Z M 175.09 117.24 L 174.69 118.12 C 174.23 119.13 174.68 120.32 175.69 120.77 C 176.70 121.23 177.89 120.78 178.35 119.77 L 178.74 118.89 C 179.20 117.88 178.75 116.69 177.74 116.24 C 176.73 115.78 175.54 116.23 175.09 117.24 Z M 174.80 117.90 L 174.26 118.78 C 173.68 119.73 173.98 120.97 174.93 121.55 C 175.88 122.12 177.11 121.82 177.69 120.88 L 178.23 119.99 C 178.81 119.04 178.51 117.81 177.56 117.23 C 176.62 116.65 175.38 116.95 174.80 117.90 Z M 174.36 118.64 L 173.77 119.43 C 173.12 120.33 173.31 121.59 174.20 122.24 C 175.10 122.90 176.36 122.71 177.02 121.81 L 177.60 121.02 C 178.26 120.13 178.06 118.87 177.17 118.21 C 176.27 117.55 175.01 117.74 174.36 118.64 Z M 173.86 119.32 L 173.21 120.09 C 172.49 120.94 172.60 122.21 173.45 122.93 C 174.29 123.65 175.56 123.54 176.28 122.69 L 176.93 121.92 C 177.65 121.07 177.54 119.80 176.69 119.09 C 175.85 118.37 174.58 118.48 173.86 119.32 Z M 173.29 120.01 L 172.60 120.73 C 171.84 121.54 171.87 122.80 172.67 123.57 C 173.47 124.33 174.74 124.30 175.50 123.50 L 176.19 122.78 C 176.96 121.98 176.93 120.71 176.13 119.94 C 175.33 119.18 174.06 119.21 173.29 120.01 Z M 172.69 120.67 L 171.96 121.36 C 171.16 122.11 171.13 123.37 171.88 124.17 C 172.63 124.97 173.89 125.00 174.69 124.25 L 175.42 123.56 C 176.21 122.81 176.25 121.55 175.50 120.75 C 174.74 119.96 173.48 119.92 172.69 120.67 Z M 172.04 121.31 L 171.28 121.97 C 170.45 122.68 170.36 123.92 171.07 124.74 C 171.77 125.57 173.02 125.66 173.84 124.95 L 174.61 124.30 C 175.43 123.59 175.52 122.35 174.82 121.52 C 174.11 120.70 172.87 120.61 172.04 121.31 Z M 171.36 121.94 L 170.56 122.56 C 169.71 123.23 169.57 124.45 170.23 125.29 C 170.89 126.13 172.11 126.28 172.96 125.62 L 173.76 124.99 C 174.60 124.33 174.75 123.11 174.09 122.26 C 173.42 121.42 172.20 121.27 171.36 121.94 Z M 170.64 122.53 L 169.83 123.11 C 168.97 123.73 168.77 124.92 169.39 125.78 C 170.00 126.65 171.20 126.85 172.06 126.23 L 172.87 125.65 C 173.73 125.04 173.93 123.84 173.32 122.98 C 172.70 122.12 171.50 121.92 170.64 122.53 Z M 169.93 123.08 L 169.07 123.63 C 168.20 124.19 167.94 125.36 168.50 126.24 C 169.07 127.12 170.23 127.37 171.11 126.81 L 171.97 126.26 C 172.85 125.70 173.10 124.53 172.54 123.65 C 171.97 122.77 170.81 122.52 169.93 123.08 Z M 169.19 123.60 L 168.32 124.08 C 167.42 124.58 167.10 125.71 167.60 126.61 C 168.10 127.50 169.23 127.82 170.12 127.32 L 170.99 126.84 C 171.89 126.34 172.21 125.21 171.71 124.32 C 171.21 123.42 170.09 123.10 169.19 123.60 Z M 168.45 124.05 L 167.56 124.46 C 166.65 124.89 166.25 125.97 166.68 126.88 C 167.10 127.80 168.19 128.19 169.10 127.77 L 169.99 127.36 C 170.90 126.93 171.30 125.85 170.87 124.94 C 170.45 124.02 169.37 123.63 168.45 124.05 Z M 167.68 124.43 L 166.75 124.79 C 165.82 125.15 165.35 126.19 165.71 127.13 C 166.07 128.06 167.12 128.52 168.05 128.16 L 168.98 127.80 C 169.91 127.44 170.38 126.40 170.02 125.47 C 169.66 124.54 168.61 124.07 167.68 124.43 Z M 166.80 124.78 L 166.23 124.98 C 165.30 125.31 164.80 126.34 165.14 127.28 C 165.47 128.21 166.50 128.71 167.44 128.37 L 168.00 128.17 C 168.94 127.84 169.43 126.81 169.10 125.87 C 168.76 124.94 167.74 124.45 166.80 124.78 Z"
      fill="black"
      fill-rule="nonzero" /><path d="M 146.72 112.29 L 146.46 113.30 C 146.16 114.46 146.86 115.65 148.02 115.95 C 149.18 116.25 150.37 115.55 150.67 114.39 L 150.93 113.39 C 151.24 112.22 150.54 111.03 149.38 110.73 C 148.22 110.43 147.03 111.13 146.72 112.29 Z M 146.39 113.59 L 146.28 114.54 C 146.14 115.75 147.00 116.83 148.21 116.97 C 149.41 117.11 150.50 116.25 150.63 115.05 L 150.74 114.10 C 150.88 112.89 150.02 111.81 148.82 111.67 C 147.62 111.53 146.53 112.39 146.39 113.59 Z M 146.34 115.17 L 146.51 116.14 C 146.72 117.31 147.84 118.09 149.01 117.88 C 150.18 117.67 150.95 116.56 150.75 115.39 L 150.57 114.42 C 150.37 113.25 149.25 112.47 148.08 112.68 C 146.91 112.89 146.13 114.00 146.34 115.17 Z M 146.69 116.46 L 147.00 117.33 C 147.39 118.41 148.57 118.96 149.64 118.58 C 150.71 118.19 151.27 117.01 150.88 115.94 L 150.57 115.07 C 150.19 113.99 149.01 113.44 147.93 113.82 C 146.86 114.21 146.30 115.39 146.69 116.46 Z M 147.10 117.38 L 147.46 118.27 C 147.87 119.29 149.03 119.78 150.05 119.37 C 151.06 118.96 151.55 117.80 151.14 116.79 L 150.78 115.90 C 150.37 114.88 149.22 114.39 148.20 114.80 C 147.19 115.21 146.69 116.36 147.10 117.38 Z M 147.54 118.28 L 147.96 119.26 C 148.37 120.24 149.50 120.69 150.47 120.28 C 151.45 119.86 151.90 118.73 151.49 117.76 L 151.07 116.78 C 150.65 115.81 149.53 115.35 148.55 115.77 C 147.58 116.18 147.13 117.31 147.54 118.28 Z M 148.00 119.26 L 148.38 120.13 C 148.80 121.08 149.90 121.51 150.85 121.09 C 151.80 120.68 152.23 119.58 151.82 118.63 L 151.44 117.76 C 151.03 116.81 149.92 116.38 148.97 116.79 C 148.02 117.21 147.59 118.31 148.00 119.26 Z M 148.41 120.12 L 148.83 121.07 C 149.24 122.00 150.33 122.42 151.26 122.01 C 152.20 121.60 152.62 120.51 152.21 119.58 L 151.79 118.63 C 151.38 117.70 150.29 117.27 149.35 117.69 C 148.42 118.10 148.00 119.19 148.41 120.12 Z M 148.85 121.06 L 149.27 122.01 C 149.68 122.93 150.75 123.34 151.67 122.94 C 152.59 122.53 153.01 121.45 152.60 120.53 L 152.18 119.58 C 151.77 118.66 150.70 118.25 149.78 118.66 C 148.86 119.06 148.44 120.14 148.85 121.06 Z"
      fill="black"
      fill-rule="nonzero" /><path d="M 161.01 112.34 L 160.36 113.07 C 159.57 113.97 159.66 115.33 160.55 116.11 C 161.44 116.90 162.81 116.81 163.59 115.92 L 164.24 115.19 C 165.02 114.29 164.94 112.93 164.05 112.15 C 163.15 111.36 161.79 111.45 161.01 112.34 Z M 160.30 113.03 L 159.64 113.79 C 158.83 114.72 158.92 116.12 159.85 116.93 C 160.77 117.74 162.18 117.65 162.99 116.72 L 163.65 115.96 C 164.46 115.04 164.37 113.63 163.44 112.82 C 162.51 112.01 161.11 112.11 160.30 113.03 Z M 159.62 113.80 L 158.95 114.58 C 158.14 115.51 158.24 116.92 159.18 117.73 C 160.11 118.54 161.53 118.43 162.33 117.50 L 163.01 116.71 C 163.81 115.78 163.71 114.37 162.77 113.56 C 161.84 112.76 160.43 112.86 159.62 113.80 Z M 159.01 114.64 L 158.34 115.41 C 157.57 116.31 157.67 117.67 158.57 118.44 C 159.47 119.21 160.83 119.11 161.60 118.21 L 162.27 117.44 C 163.04 116.54 162.94 115.18 162.04 114.41 C 161.14 113.63 159.78 113.74 159.01 114.64 Z M 158.44 115.47 L 157.79 116.21 C 157.05 117.06 157.14 118.34 157.98 119.08 C 158.82 119.82 160.11 119.74 160.85 118.89 L 161.50 118.15 C 162.24 117.31 162.16 116.02 161.31 115.28 C 160.47 114.54 159.19 114.63 158.44 115.47 Z M 157.89 116.24 L 157.20 116.99 C 156.47 117.78 156.52 119.01 157.32 119.74 C 158.11 120.47 159.34 120.41 160.07 119.62 L 160.76 118.87 C 161.48 118.08 161.43 116.85 160.64 116.12 C 159.85 115.39 158.61 115.44 157.89 116.24 Z M 157.25 117.01 L 156.60 117.70 C 155.89 118.46 155.92 119.66 156.68 120.37 C 157.44 121.09 158.64 121.05 159.36 120.29 L 160.01 119.60 C 160.73 118.84 160.69 117.64 159.93 116.93 C 159.17 116.21 157.97 116.24 157.25 117.01 Z M 156.63 117.71 L 155.95 118.43 C 155.24 119.18 155.27 120.36 156.01 121.06 C 156.76 121.77 157.93 121.74 158.64 121.00 L 159.33 120.28 C 160.04 119.53 160.01 118.36 159.26 117.65 C 158.52 116.94 157.34 116.97 156.63 117.71 Z M 155.99 118.42 L 155.28 119.12 C 154.56 119.85 154.57 121.01 155.29 121.73 C 156.01 122.45 157.18 122.45 157.90 121.72 L 158.60 121.02 C 159.32 120.30 159.32 119.13 158.59 118.41 C 157.87 117.69 156.71 117.69 155.99 118.42 Z M 155.33 119.09 L 154.61 119.78 C 153.87 120.47 153.83 121.63 154.53 122.37 C 155.22 123.10 156.38 123.14 157.12 122.44 L 157.85 121.76 C 158.58 121.06 158.62 119.90 157.92 119.17 C 157.23 118.43 156.07 118.40 155.33 119.09 Z M 154.65 119.74 L 153.91 120.40 C 153.15 121.07 153.08 122.22 153.74 122.98 C 154.41 123.73 155.56 123.81 156.32 123.14 L 157.07 122.48 C 157.83 121.81 157.90 120.66 157.23 119.90 C 156.56 119.15 155.41 119.07 154.65 119.74 Z M 153.94 120.38 L 153.18 121.02 C 152.41 121.67 152.30 122.81 152.95 123.58 C 153.60 124.35 154.74 124.46 155.51 123.81 L 156.28 123.17 C 157.05 122.52 157.15 121.37 156.51 120.60 C 155.86 119.83 154.71 119.73 153.94 120.38 Z M 153.20 121.01 L 152.42 121.64 C 151.64 122.28 151.52 123.42 152.15 124.20 C 152.79 124.98 153.93 125.09 154.71 124.46 L 155.49 123.82 C 156.27 123.19 156.39 122.05 155.75 121.27 C 155.12 120.49 153.98 120.37 153.20 121.01 Z M 152.44 121.62 L 151.65 122.24 C 150.86 122.87 150.73 124.01 151.35 124.80 C 151.97 125.59 153.12 125.72 153.90 125.10 L 154.69 124.48 C 155.48 123.86 155.61 122.71 154.99 121.92 C 154.37 121.14 153.22 121.00 152.44 121.62 Z M 151.68 122.21 L 150.89 122.81 C 150.08 123.41 149.91 124.55 150.52 125.36 C 151.12 126.17 152.26 126.33 153.07 125.73 L 153.87 125.13 C 154.68 124.53 154.84 123.39 154.24 122.58 C 153.64 121.77 152.49 121.61 151.68 122.21 Z M 150.92 122.77 L 150.11 123.34 C 149.28 123.93 149.08 125.07 149.67 125.90 C 150.25 126.73 151.40 126.92 152.22 126.34 L 153.04 125.77 C 153.86 125.18 154.06 124.04 153.48 123.21 C 152.89 122.39 151.75 122.19 150.92 122.77 Z M 150.12 123.32 L 149.31 123.88 C 148.48 124.46 148.26 125.60 148.84 126.44 C 149.41 127.28 150.56 127.49 151.40 126.91 L 152.21 126.36 C 153.04 125.78 153.26 124.64 152.68 123.80 C 152.11 122.96 150.96 122.75 150.12 123.32 Z M 149.32 123.87 L 148.53 124.41 C 147.69 124.98 147.47 126.13 148.04 126.97 C 148.61 127.81 149.76 128.03 150.60 127.46 L 151.39 126.92 C 152.23 126.35 152.45 125.21 151.88 124.36 C 151.31 123.52 150.16 123.30 149.32 123.87 Z M 148.55 124.40 L 147.66 124.98 C 146.81 125.54 146.58 126.69 147.14 127.54 C 147.71 128.39 148.85 128.62 149.70 128.06 L 150.58 127.47 C 151.43 126.91 151.66 125.77 151.10 124.92 C 150.54 124.07 149.40 123.84 148.55 124.40 Z M 147.68 124.97 L 146.84 125.51 C 145.99 126.06 145.74 127.20 146.29 128.06 C 146.85 128.91 147.99 129.16 148.84 128.61 L 149.68 128.07 C 150.54 127.52 150.78 126.38 150.23 125.52 C 149.68 124.66 148.54 124.42 147.68 124.97 Z M 146.86 125.49 L 145.99 126.04 C 145.13 126.59 144.87 127.73 145.41 128.59 C 145.96 129.46 147.10 129.72 147.97 129.17 L 148.83 128.62 C 149.70 128.08 149.96 126.93 149.41 126.07 C 148.86 125.20 147.72 124.95 146.86 125.49 Z M 146.00 126.03 L 145.15 126.55 C 144.28 127.10 144.01 128.24 144.55 129.11 C 145.09 129.99 146.24 130.25 147.11 129.71 L 147.96 129.18 C 148.83 128.64 149.10 127.49 148.56 126.62 C 148.02 125.75 146.87 125.48 146.00 126.03 Z M 145.15 126.53 L 144.21 127.11 C 143.33 127.65 143.05 128.81 143.59 129.69 C 144.14 130.58 145.30 130.85 146.18 130.31 L 147.11 129.73 C 148.00 129.19 148.27 128.03 147.73 127.15 C 147.19 126.26 146.03 125.99 145.15 126.53 Z M 144.18 127.09 L 143.38 127.59 C 142.49 128.15 142.22 129.33 142.78 130.23 C 143.35 131.12 144.53 131.39 145.42 130.83 L 146.21 130.33 C 147.11 129.76 147.38 128.58 146.81 127.69 C 146.25 126.79 145.07 126.53 144.18 127.09 Z M 143.22 127.60 L 142.30 128.28 C 141.41 128.94 141.23 130.18 141.88 131.07 C 142.53 131.96 143.78 132.14 144.67 131.49 L 145.59 130.81 C 146.47 130.16 146.66 128.91 146.01 128.02 C 145.35 127.14 144.10 126.95 143.22 127.60 Z M 141.51 130.70 L 141.66 131.05 C 142.11 132.14 143.35 132.66 144.44 132.21 C 145.53 131.76 146.05 130.52 145.60 129.43 L 145.45 129.07 C 145.00 127.99 143.76 127.47 142.67 127.92 C 141.58 128.36 141.07 129.61 141.51 130.70 Z M 143.72 132.49 L 144.85 132.44 C 146.09 132.39 147.06 131.34 147.01 130.10 C 146.96 128.86 145.91 127.89 144.67 127.94 L 143.54 127.99 C 142.30 128.04 141.33 129.09 141.38 130.33 C 141.43 131.57 142.48 132.54 143.72 132.49 Z M 145.01 132.49 L 145.87 132.39 C 147.14 132.25 148.06 131.11 147.92 129.85 C 147.78 128.58 146.64 127.67 145.37 127.81 L 144.51 127.90 C 143.24 128.04 142.33 129.18 142.47 130.44 C 142.60 131.71 143.74 132.62 145.01 132.49 Z M 145.91 132.40 L 147.01 132.27 C 148.29 132.11 149.19 130.95 149.03 129.68 C 148.88 128.41 147.72 127.51 146.45 127.66 L 145.34 127.80 C 144.07 127.95 143.17 129.11 143.32 130.38 C 143.48 131.65 144.63 132.56 145.91 132.40 Z M 147.02 132.27 L 148.03 132.14 C 149.31 131.99 150.21 130.83 150.06 129.56 C 149.90 128.28 148.74 127.38 147.47 127.54 L 146.45 127.66 C 145.18 127.82 144.27 128.97 144.43 130.25 C 144.59 131.52 145.74 132.42 147.02 132.27 Z M 148.03 132.13 L 149.07 132.00 C 150.33 131.85 151.23 130.70 151.08 129.43 C 150.93 128.17 149.77 127.26 148.51 127.42 L 147.47 127.55 C 146.21 127.70 145.30 128.85 145.46 130.12 C 145.61 131.38 146.77 132.29 148.03 132.13 Z M 149.07 131.99 L 150.09 131.86 C 151.35 131.71 152.25 130.56 152.09 129.31 C 151.94 128.05 150.79 127.15 149.53 127.31 L 148.51 127.43 C 147.25 127.59 146.35 128.73 146.51 129.99 C 146.66 131.25 147.81 132.15 149.07 131.99 Z M 150.10 131.85 L 151.12 131.72 C 152.37 131.56 153.26 130.42 153.10 129.17 C 152.94 127.92 151.80 127.04 150.55 127.19 L 149.53 127.32 C 148.28 127.48 147.39 128.62 147.55 129.87 C 147.71 131.12 148.85 132.01 150.10 131.85 Z M 151.14 131.70 L 152.21 131.56 C 153.45 131.39 154.32 130.25 154.16 129.01 C 153.99 127.77 152.85 126.90 151.61 127.07 L 150.54 127.21 C 149.30 127.38 148.43 128.52 148.59 129.76 C 148.76 131.00 149.90 131.87 151.14 131.70 Z M 152.24 131.53 L 153.07 131.41 C 154.30 131.23 155.15 130.09 154.97 128.86 C 154.78 127.64 153.64 126.79 152.42 126.97 L 151.59 127.09 C 150.36 127.27 149.51 128.41 149.69 129.64 C 149.87 130.87 151.01 131.72 152.24 131.53 Z M 153.09 131.39 L 154.09 131.24 C 155.31 131.04 156.14 129.90 155.94 128.68 C 155.75 127.46 154.60 126.63 153.39 126.83 L 152.39 126.99 C 151.17 127.18 150.34 128.33 150.54 129.54 C 150.73 130.76 151.88 131.59 153.09 131.39 Z M 154.10 131.22 L 155.07 131.06 C 156.28 130.86 157.10 129.72 156.90 128.51 C 156.71 127.30 155.57 126.48 154.36 126.68 L 153.38 126.84 C 152.17 127.04 151.35 128.18 151.55 129.39 C 151.75 130.60 152.89 131.42 154.10 131.22 Z M 155.07 131.04 L 156.06 130.88 C 157.26 130.68 158.07 129.55 157.87 128.35 C 157.67 127.15 156.54 126.34 155.34 126.54 L 154.36 126.70 C 153.16 126.90 152.35 128.03 152.55 129.23 C 152.74 130.43 153.88 131.24 155.07 131.04 Z M 156.10 130.84 L 157.08 130.66 C 158.26 130.44 159.04 129.31 158.82 128.13 C 158.60 126.95 157.47 126.17 156.29 126.39 L 155.31 126.57 C 154.13 126.79 153.35 127.92 153.57 129.10 C 153.79 130.28 154.92 131.06 156.10 130.84 Z M 157.11 130.63 L 158.09 130.43 C 159.25 130.19 160.00 129.06 159.76 127.90 C 159.53 126.74 158.40 125.99 157.24 126.23 L 156.26 126.43 C 155.10 126.66 154.35 127.79 154.59 128.95 C 154.82 130.11 155.95 130.86 157.11 130.63 Z M 158.08 130.40 L 159.07 130.20 C 160.21 129.97 160.95 128.85 160.72 127.71 C 160.49 126.56 159.37 125.83 158.23 126.06 L 157.24 126.26 C 156.10 126.49 155.36 127.61 155.59 128.75 C 155.83 129.89 156.94 130.63 158.08 130.40 Z M 159.04 130.17 L 160.02 129.98 C 161.14 129.77 161.88 128.68 161.67 127.55 C 161.45 126.42 160.36 125.68 159.23 125.90 L 158.26 126.09 C 157.13 126.30 156.39 127.39 156.61 128.52 C 156.82 129.65 157.91 130.39 159.04 130.17 Z M 160.01 129.95 L 160.99 129.76 C 162.10 129.55 162.82 128.48 162.61 127.37 C 162.40 126.26 161.33 125.53 160.22 125.75 L 159.24 125.93 C 158.13 126.14 157.40 127.21 157.61 128.32 C 157.83 129.43 158.90 130.16 160.01 129.95 Z M 161.03 129.72 L 161.97 129.52 C 163.06 129.28 163.75 128.21 163.51 127.12 C 163.28 126.03 162.20 125.34 161.11 125.58 L 160.18 125.79 C 159.09 126.02 158.40 127.10 158.64 128.18 C 158.87 129.27 159.95 129.96 161.03 129.72 Z M 161.99 129.49 L 163.00 129.26 C 164.07 129.01 164.74 127.95 164.50 126.87 C 164.25 125.80 163.18 125.13 162.11 125.38 L 161.10 125.61 C 160.03 125.86 159.36 126.92 159.60 127.99 C 159.85 129.06 160.92 129.73 161.99 129.49 Z M 162.97 129.24 L 163.92 129.04 C 164.98 128.81 165.66 127.76 165.43 126.70 C 165.20 125.64 164.15 124.96 163.09 125.19 L 162.14 125.39 C 161.08 125.62 160.40 126.67 160.63 127.73 C 160.86 128.79 161.91 129.47 162.97 129.24 Z M 163.86 129.03 L 164.88 128.84 C 165.94 128.65 166.63 127.63 166.44 126.57 C 166.24 125.51 165.22 124.81 164.16 125.01 L 163.15 125.19 C 162.09 125.39 161.39 126.41 161.58 127.47 C 161.78 128.53 162.80 129.23 163.86 129.03 Z M 164.80 128.83 L 165.79 128.68 C 166.85 128.53 167.57 127.54 167.41 126.49 C 167.26 125.44 166.28 124.71 165.22 124.87 L 164.23 125.02 C 163.18 125.18 162.45 126.16 162.61 127.21 C 162.77 128.26 163.75 128.99 164.80 128.83 Z M 165.74 128.65 L 166.74 128.53 C 167.77 128.40 168.51 127.46 168.38 126.42 C 168.25 125.38 167.30 124.65 166.27 124.77 L 165.27 124.90 C 164.24 125.03 163.50 125.97 163.63 127.01 C 163.76 128.05 164.71 128.78 165.74 128.65 Z M 166.72 128.51 L 167.05 128.47 C 168.08 128.35 168.81 127.42 168.69 126.39 C 168.57 125.37 167.64 124.64 166.62 124.76 L 166.28 124.80 C 165.26 124.92 164.52 125.85 164.65 126.87 C 164.77 127.90 165.70 128.63 166.72 128.51 Z"
      fill="black"
      fill-rule="nonzero" /><path d="M 142.49 137.27 L 141.79 137.82 C 140.87 138.55 140.71 139.88 141.43 140.80 C 142.16 141.73 143.49 141.89 144.41 141.16 L 145.12 140.61 C 146.04 139.88 146.20 138.55 145.47 137.63 C 144.75 136.70 143.42 136.54 142.49 137.27 Z M 141.77 137.80 L 140.94 138.46 C 140.01 139.19 139.85 140.54 140.58 141.47 C 141.31 142.41 142.67 142.57 143.60 141.83 L 144.43 141.18 C 145.36 140.45 145.52 139.10 144.79 138.17 C 144.05 137.23 142.70 137.07 141.77 137.80 Z M 140.94 138.46 L 140.16 139.07 C 139.23 139.80 139.07 141.15 139.80 142.09 C 140.54 143.02 141.89 143.18 142.82 142.45 L 143.60 141.83 C 144.53 141.10 144.69 139.75 143.96 138.82 C 143.22 137.89 141.87 137.72 140.94 138.46 Z M 140.19 139.09 L 139.39 139.72 C 138.47 140.43 138.30 141.76 139.02 142.68 C 139.74 143.61 141.07 143.77 141.99 143.05 L 142.79 142.43 C 143.71 141.71 143.88 140.38 143.16 139.46 C 142.44 138.54 141.11 138.37 140.19 139.09 Z M 139.43 139.74 L 138.60 140.37 C 137.69 141.06 137.52 142.37 138.22 143.28 C 138.92 144.19 140.22 144.36 141.13 143.66 L 141.95 143.03 C 142.86 142.33 143.03 141.03 142.34 140.12 C 141.64 139.21 140.34 139.04 139.43 139.74 Z M 138.65 140.38 L 137.77 141.03 C 136.87 141.70 136.68 142.98 137.35 143.88 C 138.02 144.79 139.30 144.97 140.21 144.30 L 141.08 143.65 C 141.99 142.98 142.18 141.70 141.50 140.80 C 140.83 139.89 139.56 139.70 138.65 140.38 Z M 137.82 141.03 L 136.98 141.63 C 136.08 142.27 135.87 143.53 136.52 144.43 C 137.16 145.33 138.41 145.54 139.32 144.90 L 140.16 144.30 C 141.06 143.66 141.27 142.40 140.62 141.50 C 139.98 140.60 138.73 140.39 137.82 141.03 Z M 137.03 141.64 L 136.30 142.14 C 135.40 142.76 135.18 143.99 135.80 144.89 C 136.42 145.79 137.65 146.01 138.55 145.39 L 139.27 144.89 C 140.17 144.27 140.40 143.04 139.78 142.14 C 139.16 141.24 137.93 141.02 137.03 141.64 Z M 136.33 142.13 L 135.45 142.73 C 134.55 143.33 134.31 144.55 134.92 145.45 C 135.52 146.35 136.74 146.59 137.64 145.98 L 138.52 145.39 C 139.42 144.79 139.66 143.57 139.05 142.67 C 138.45 141.77 137.23 141.53 136.33 142.13 Z M 135.47 142.71 L 134.69 143.22 C 133.78 143.81 133.52 145.03 134.12 145.94 C 134.71 146.84 135.92 147.10 136.83 146.51 L 137.62 146.00 C 138.52 145.41 138.78 144.19 138.19 143.28 C 137.60 142.38 136.38 142.12 135.47 142.71 Z M 134.70 143.21 L 133.86 143.75 C 132.94 144.33 132.67 145.54 133.26 146.46 C 133.84 147.37 135.05 147.64 135.97 147.06 L 136.81 146.52 C 137.73 145.94 138.00 144.73 137.42 143.81 C 136.83 142.90 135.62 142.63 134.70 143.21 Z M 133.88 143.73 L 133.09 144.22 C 132.17 144.79 131.88 146.00 132.45 146.93 C 133.02 147.85 134.24 148.14 135.16 147.57 L 135.95 147.08 C 136.88 146.51 137.16 145.29 136.59 144.37 C 136.02 143.44 134.80 143.16 133.88 143.73 Z M 133.08 144.22 L 132.19 144.77 C 131.27 145.35 130.99 146.57 131.57 147.50 C 132.15 148.42 133.37 148.70 134.29 148.12 L 135.18 147.57 C 136.10 146.98 136.38 145.76 135.80 144.84 C 135.22 143.91 134.00 143.64 133.08 144.22 Z M 132.15 144.79 L 131.33 145.33 C 130.41 145.93 130.16 147.16 130.76 148.08 C 131.36 148.99 132.59 149.25 133.51 148.65 L 134.33 148.11 C 135.25 147.51 135.51 146.27 134.90 145.36 C 134.30 144.44 133.07 144.18 132.15 144.79 Z M 131.31 145.33 L 130.45 145.91 C 129.53 146.52 129.29 147.76 129.90 148.68 C 130.52 149.59 131.76 149.84 132.68 149.22 L 133.53 148.64 C 134.45 148.03 134.69 146.79 134.08 145.87 C 133.46 144.96 132.22 144.71 131.31 145.33 Z M 130.43 145.90 L 129.56 146.50 C 128.64 147.12 128.41 148.37 129.03 149.29 C 129.66 150.21 130.91 150.44 131.82 149.82 L 132.69 149.22 C 133.61 148.60 133.85 147.35 133.22 146.43 C 132.60 145.51 131.35 145.28 130.43 145.90 Z M 129.52 146.51 L 128.68 147.10 C 127.77 147.75 127.55 149.02 128.20 149.93 C 128.85 150.84 130.11 151.05 131.02 150.40 L 131.86 149.81 C 132.78 149.16 132.99 147.90 132.34 146.98 C 131.69 146.07 130.43 145.86 129.52 146.51 Z M 128.56 147.17 L 127.80 147.79 C 126.93 148.50 126.80 149.79 127.51 150.66 C 128.22 151.54 129.51 151.67 130.38 150.96 L 131.14 150.34 C 132.01 149.62 132.14 148.34 131.43 147.46 C 130.72 146.59 129.43 146.46 128.56 147.17 Z M 127.37 148.23 L 126.84 149.03 C 126.21 149.98 126.47 151.26 127.42 151.89 C 128.38 152.52 129.66 152.26 130.29 151.31 L 130.81 150.51 C 131.44 149.56 131.18 148.28 130.23 147.65 C 129.28 147.02 128.00 147.28 127.37 148.23 Z M 127.63 152.05 L 128.21 152.34 C 129.25 152.86 130.52 152.43 131.03 151.39 C 131.55 150.35 131.12 149.09 130.08 148.57 L 129.50 148.28 C 128.46 147.77 127.20 148.19 126.68 149.23 C 126.16 150.27 126.59 151.54 127.63 152.05 Z M 129.02 152.61 L 130.19 152.68 C 131.38 152.75 132.40 151.84 132.47 150.65 C 132.54 149.45 131.62 148.43 130.43 148.37 L 129.27 148.30 C 128.08 148.23 127.06 149.14 126.99 150.33 C 126.92 151.53 127.83 152.55 129.02 152.61 Z M 130.29 152.72 L 131.38 152.73 C 132.60 152.74 133.59 151.76 133.60 150.55 C 133.61 149.34 132.63 148.35 131.42 148.34 L 130.33 148.33 C 129.12 148.32 128.12 149.29 128.11 150.50 C 128.10 151.72 129.08 152.71 130.29 152.72 Z M 131.42 152.74 L 132.44 152.73 C 133.66 152.72 134.64 151.73 134.63 150.51 C 134.62 149.29 133.63 148.31 132.41 148.32 L 131.39 148.33 C 130.17 148.33 129.19 149.33 129.20 150.55 C 129.20 151.76 130.20 152.74 131.42 152.74 Z M 132.50 152.73 L 133.47 152.70 C 134.69 152.66 135.65 151.64 135.61 150.42 C 135.57 149.20 134.55 148.25 133.33 148.29 L 132.36 148.32 C 131.14 148.36 130.18 149.38 130.22 150.60 C 130.26 151.81 131.28 152.77 132.50 152.73 Z M 133.58 152.69 L 134.62 152.61 C 135.83 152.51 136.73 151.44 136.63 150.23 C 136.53 149.02 135.47 148.11 134.26 148.21 L 133.22 148.30 C 132.01 148.40 131.11 149.46 131.21 150.67 C 131.31 151.89 132.37 152.79 133.58 152.69 Z M 134.72 152.59 L 135.64 152.47 C 136.85 152.31 137.69 151.21 137.54 150.01 C 137.38 148.80 136.28 147.95 135.08 148.11 L 134.15 148.23 C 132.95 148.39 132.10 149.49 132.26 150.69 C 132.41 151.90 133.52 152.75 134.72 152.59 Z M 135.67 152.46 L 136.66 152.32 C 137.86 152.15 138.69 151.04 138.52 149.84 C 138.35 148.64 137.24 147.80 136.04 147.98 L 135.05 148.12 C 133.85 148.29 133.01 149.40 133.19 150.60 C 133.36 151.80 134.47 152.63 135.67 152.46 Z M 136.63 152.32 L 137.63 152.19 C 138.83 152.04 139.67 150.94 139.52 149.74 C 139.36 148.53 138.26 147.69 137.06 147.84 L 136.06 147.97 C 134.86 148.13 134.02 149.23 134.17 150.43 C 134.33 151.63 135.43 152.48 136.63 152.32 Z M 137.61 152.19 L 138.60 152.07 C 139.80 151.93 140.66 150.84 140.51 149.63 C 140.37 148.43 139.27 147.58 138.07 147.72 L 137.08 147.84 C 135.88 147.99 135.02 149.08 135.17 150.28 C 135.31 151.48 136.41 152.34 137.61 152.19 Z M 138.63 152.07 L 139.62 151.93 C 140.82 151.77 141.66 150.66 141.49 149.46 C 141.33 148.27 140.22 147.43 139.02 147.59 L 138.04 147.73 C 136.84 147.89 136.00 149.00 136.17 150.20 C 136.33 151.39 137.44 152.23 138.63 152.07 Z M 139.65 151.92 L 140.63 151.77 C 141.82 151.59 142.64 150.48 142.46 149.29 C 142.28 148.09 141.17 147.27 139.97 147.45 L 138.99 147.60 C 137.80 147.78 136.98 148.90 137.16 150.09 C 137.34 151.28 138.46 152.10 139.65 151.92 Z M 140.64 151.76 L 141.49 151.63 C 142.68 151.44 143.49 150.33 143.30 149.14 C 143.11 147.95 142.00 147.14 140.81 147.33 L 139.96 147.46 C 138.77 147.65 137.96 148.77 138.15 149.96 C 138.34 151.14 139.46 151.95 140.64 151.76 Z M 141.53 151.62 L 142.62 151.42 C 143.80 151.21 144.59 150.09 144.38 148.91 C 144.17 147.73 143.04 146.94 141.86 147.15 L 140.77 147.34 C 139.59 147.55 138.80 148.68 139.01 149.86 C 139.22 151.04 140.35 151.83 141.53 151.62 Z M 142.65 151.41 L 143.62 151.23 C 144.80 151.00 145.57 149.86 145.34 148.69 C 145.11 147.51 143.98 146.74 142.80 146.97 L 141.83 147.16 C 140.66 147.38 139.89 148.52 140.11 149.70 C 140.34 150.87 141.48 151.64 142.65 151.41 Z M 143.64 151.22 L 144.66 151.01 C 145.83 150.78 146.59 149.64 146.35 148.47 C 146.11 147.29 144.97 146.54 143.80 146.77 L 142.79 146.98 C 141.61 147.21 140.86 148.35 141.09 149.53 C 141.33 150.70 142.47 151.46 143.64 151.22 Z M 144.67 151.01 L 145.69 150.80 C 146.86 150.55 147.61 149.41 147.36 148.24 C 147.12 147.07 145.97 146.32 144.80 146.56 L 143.79 146.78 C 142.62 147.02 141.87 148.17 142.11 149.33 C 142.35 150.50 143.50 151.25 144.67 151.01 Z M 145.70 150.79 L 146.74 150.57 C 147.90 150.32 148.64 149.17 148.39 148.00 C 148.14 146.84 146.99 146.10 145.83 146.35 L 144.79 146.57 C 143.62 146.82 142.88 147.97 143.14 149.14 C 143.39 150.30 144.54 151.04 145.70 150.79 Z M 146.74 150.56 L 147.77 150.34 C 148.93 150.08 149.67 148.93 149.41 147.77 C 149.16 146.61 148.01 145.87 146.85 146.13 L 145.82 146.35 C 144.66 146.61 143.92 147.76 144.18 148.92 C 144.43 150.08 145.58 150.82 146.74 150.56 Z M 147.72 150.34 L 148.60 150.17 C 149.76 149.95 150.52 148.82 150.30 147.65 C 150.07 146.49 148.95 145.73 147.78 145.95 L 146.90 146.12 C 145.74 146.35 144.98 147.47 145.20 148.64 C 145.43 149.80 146.55 150.57 147.72 150.34 Z M 148.47 150.17 L 149.44 150.05 C 150.60 149.89 151.43 148.82 151.27 147.66 C 151.12 146.49 150.05 145.67 148.88 145.82 L 147.91 145.95 C 146.75 146.10 145.92 147.17 146.08 148.34 C 146.23 149.51 147.30 150.33 148.47 150.17 Z M 149.33 150.03 L 150.32 149.95 C 151.48 149.85 152.34 148.84 152.25 147.69 C 152.15 146.53 151.14 145.67 149.98 145.76 L 148.99 145.84 C 147.84 145.93 146.97 146.95 147.07 148.10 C 147.16 149.26 148.17 150.12 149.33 150.03 Z M 150.29 149.93 L 150.61 149.91 C 151.75 149.83 152.62 148.84 152.54 147.70 C 152.47 146.55 151.48 145.68 150.33 145.76 L 150.02 145.78 C 148.87 145.86 148.00 146.85 148.08 147.99 C 148.15 149.14 149.14 150.00 150.29 149.93 Z"
      fill="black"
      fill-rule="nonzero" /><path d="M 146.07 143.30 L 145.97 144.21 C 145.83 145.37 146.65 146.41 147.80 146.55 C 148.96 146.69 150.01 145.87 150.14 144.71 L 150.25 143.80 C 150.39 142.65 149.57 141.60 148.41 141.47 C 147.26 141.33 146.21 142.15 146.07 143.30 Z M 145.85 144.50 L 145.86 145.56 C 145.88 146.78 146.89 147.76 148.11 147.74 C 149.33 147.72 150.30 146.71 150.28 145.49 L 150.26 144.43 C 150.24 143.21 149.24 142.24 148.02 142.25 C 146.80 142.27 145.83 143.28 145.85 144.50 Z M 145.84 145.88 L 145.99 146.80 C 146.18 148.03 147.34 148.87 148.57 148.67 C 149.80 148.48 150.64 147.32 150.44 146.09 L 150.30 145.18 C 150.11 143.95 148.95 143.10 147.72 143.30 C 146.49 143.49 145.65 144.65 145.84 145.88 Z M 146.03 146.93 L 146.25 147.91 C 146.51 149.12 147.71 149.89 148.91 149.62 C 150.12 149.35 150.89 148.16 150.62 146.95 L 150.40 145.96 C 150.14 144.76 148.94 143.99 147.73 144.26 C 146.53 144.52 145.76 145.72 146.03 146.93 Z M 146.27 147.94 L 146.52 148.98 C 146.80 150.17 147.99 150.91 149.19 150.63 C 150.38 150.35 151.12 149.15 150.84 147.96 L 150.59 146.92 C 150.31 145.73 149.12 144.99 147.92 145.27 C 146.73 145.55 145.99 146.75 146.27 147.94 Z M 146.56 148.93 L 146.79 149.98 C 147.05 151.15 148.20 151.89 149.37 151.63 C 150.54 151.38 151.28 150.22 151.02 149.05 L 150.79 148.01 C 150.54 146.84 149.38 146.10 148.21 146.35 C 147.05 146.61 146.31 147.76 146.56 148.93 Z M 146.86 149.91 L 147.06 150.92 C 147.28 152.05 148.37 152.78 149.50 152.57 C 150.62 152.35 151.36 151.26 151.14 150.13 L 150.95 149.12 C 150.73 147.99 149.64 147.26 148.51 147.47 C 147.38 147.69 146.65 148.78 146.86 149.91 Z M 147.14 150.85 L 147.29 151.77 C 147.47 152.85 148.49 153.59 149.57 153.41 C 150.66 153.23 151.39 152.21 151.22 151.12 L 151.07 150.20 C 150.89 149.12 149.86 148.38 148.78 148.56 C 147.69 148.74 146.96 149.76 147.14 150.85 Z M 147.35 151.68 L 147.48 152.73 C 147.61 153.77 148.57 154.52 149.61 154.39 C 150.66 154.26 151.41 153.31 151.28 152.26 L 151.15 151.21 C 151.02 150.17 150.07 149.42 149.02 149.55 C 147.97 149.68 147.23 150.63 147.35 151.68 Z M 147.54 152.64 L 147.61 153.59 C 147.69 154.61 148.59 155.37 149.60 155.29 C 150.62 155.21 151.38 154.32 151.30 153.30 L 151.23 152.35 C 151.14 151.33 150.25 150.57 149.23 150.65 C 148.22 150.73 147.46 151.62 147.54 152.64 Z M 147.65 153.56 L 147.67 153.88 C 147.74 154.88 148.60 155.64 149.59 155.57 C 150.59 155.51 151.35 154.65 151.28 153.65 L 151.26 153.33 C 151.20 152.33 150.34 151.57 149.34 151.64 C 148.34 151.70 147.59 152.56 147.65 153.56 Z"
      fill="black"
      fill-rule="nonzero" /><path d="M 133.24 161.21 L 133.41 160.17 C 133.59 159.04 132.83 157.98 131.70 157.80 C 130.58 157.62 129.52 158.38 129.33 159.51 L 129.17 160.55 C 128.98 161.68 129.75 162.74 130.87 162.92 C 132.00 163.10 133.06 162.34 133.24 161.21 Z M 129.63 161.25 L 130.05 161.76 C 130.83 162.72 132.24 162.86 133.20 162.08 C 134.16 161.30 134.30 159.89 133.52 158.93 L 133.11 158.42 C 132.33 157.46 130.92 157.32 129.96 158.10 C 129.00 158.88 128.85 160.29 129.63 161.25 Z M 129.57 161.01 L 129.88 162.03 C 130.25 163.25 131.54 163.95 132.76 163.58 C 133.98 163.21 134.67 161.93 134.30 160.70 L 133.99 159.68 C 133.63 158.46 132.34 157.77 131.12 158.13 C 129.90 158.50 129.21 159.79 129.57 161.01 Z M 129.81 161.82 L 130.00 162.80 C 130.25 164.06 131.47 164.88 132.73 164.63 C 133.99 164.39 134.82 163.16 134.57 161.90 L 134.38 160.92 C 134.13 159.66 132.91 158.84 131.64 159.08 C 130.38 159.33 129.56 160.56 129.81 161.82 Z M 129.98 162.71 L 130.14 163.77 C 130.34 165.05 131.53 165.92 132.81 165.72 C 134.08 165.53 134.95 164.33 134.76 163.06 L 134.59 161.99 C 134.40 160.72 133.20 159.85 131.93 160.04 C 130.65 160.24 129.78 161.43 129.98 162.71 Z M 130.13 163.73 L 130.27 164.75 C 130.44 166.03 131.62 166.93 132.90 166.75 C 134.18 166.58 135.08 165.40 134.90 164.12 L 134.77 163.10 C 134.59 161.82 133.42 160.92 132.14 161.10 C 130.86 161.27 129.96 162.45 130.13 163.73 Z M 130.26 164.72 L 130.38 165.71 C 130.54 166.99 131.70 167.91 132.99 167.75 C 134.27 167.60 135.19 166.43 135.03 165.15 L 134.91 164.16 C 134.76 162.87 133.59 161.96 132.31 162.11 C 131.02 162.27 130.11 163.43 130.26 164.72 Z M 130.38 165.67 L 130.48 166.72 C 130.61 168.00 131.77 168.94 133.05 168.81 C 134.34 168.68 135.28 167.53 135.15 166.24 L 135.04 165.19 C 134.91 163.90 133.76 162.97 132.47 163.10 C 131.18 163.23 130.24 164.38 130.38 165.67 Z M 130.48 166.67 L 130.55 167.62 C 130.66 168.91 131.79 169.87 133.08 169.77 C 134.37 169.66 135.33 168.53 135.23 167.24 L 135.15 166.29 C 135.05 165.00 133.92 164.04 132.63 164.14 C 131.34 164.25 130.37 165.38 130.48 166.67 Z M 130.55 167.60 L 130.62 168.55 C 130.71 169.84 131.83 170.81 133.12 170.72 C 134.41 170.63 135.39 169.51 135.30 168.22 L 135.23 167.27 C 135.14 165.97 134.02 165.00 132.73 165.09 C 131.43 165.18 130.46 166.30 130.55 167.60 Z M 130.62 168.53 L 130.68 169.53 C 130.76 170.82 131.88 171.80 133.17 171.72 C 134.46 171.64 135.44 170.53 135.36 169.24 L 135.30 168.23 C 135.22 166.94 134.10 165.96 132.81 166.04 C 131.52 166.12 130.54 167.24 130.62 168.53 Z M 130.69 169.49 L 130.73 170.48 C 130.79 171.77 131.89 172.76 133.18 172.70 C 134.47 172.64 135.46 171.55 135.40 170.26 L 135.36 169.27 C 135.30 167.98 134.20 166.99 132.91 167.05 C 131.62 167.11 130.62 168.20 130.69 169.49 Z M 130.74 170.43 L 130.77 171.45 C 130.81 172.73 131.88 173.74 133.16 173.71 C 134.45 173.67 135.46 172.60 135.42 171.31 L 135.39 170.30 C 135.35 169.02 134.28 168.01 133.00 168.04 C 131.72 168.08 130.70 169.15 130.74 170.43 Z M 130.78 171.41 L 130.80 172.40 C 130.81 173.68 131.86 174.70 133.14 174.68 C 134.41 174.67 135.44 173.62 135.42 172.34 L 135.41 171.35 C 135.39 170.08 134.34 169.06 133.07 169.07 C 131.79 169.09 130.77 170.13 130.78 171.41 Z M 130.81 172.38 L 130.81 173.39 C 130.82 174.65 131.85 175.68 133.12 175.68 C 134.38 175.67 135.41 174.64 135.41 173.38 L 135.40 172.37 C 135.40 171.10 134.37 170.07 133.10 170.07 C 131.83 170.08 130.81 171.11 130.81 172.38 Z M 130.83 173.38 L 130.83 174.37 C 130.83 175.63 131.85 176.65 133.11 176.65 C 134.37 176.65 135.39 175.63 135.39 174.37 L 135.39 173.38 C 135.39 172.12 134.37 171.10 133.11 171.10 C 131.85 171.10 130.83 172.12 130.83 173.38 Z M 130.85 174.37 L 130.85 175.37 C 130.85 176.62 131.86 177.63 133.11 177.63 C 134.36 177.63 135.37 176.62 135.37 175.37 L 135.37 174.37 C 135.37 173.12 134.36 172.11 133.11 172.11 C 131.86 172.11 130.85 173.12 130.85 174.37 Z M 130.88 175.37 L 130.88 176.39 C 130.88 177.62 131.88 178.62 133.11 178.62 C 134.34 178.62 135.34 177.62 135.34 176.39 L 135.34 175.37 C 135.34 174.14 134.34 173.14 133.11 173.14 C 131.88 173.14 130.88 174.14 130.88 175.37 Z M 130.91 176.39 L 130.91 177.39 C 130.91 178.61 131.89 179.60 133.11 179.60 C 134.33 179.60 135.31 178.61 135.31 177.39 L 135.31 176.39 C 135.31 175.17 134.33 174.18 133.11 174.18 C 131.89 174.18 130.91 175.17 130.91 176.39 Z M 130.94 177.39 L 130.94 178.39 C 130.94 179.59 131.91 180.57 133.11 180.57 C 134.31 180.57 135.28 179.59 135.28 178.39 L 135.28 177.39 C 135.28 176.19 134.31 175.22 133.11 175.22 C 131.91 175.22 130.94 176.19 130.94 177.39 Z M 130.96 178.39 L 130.96 179.42 C 130.96 180.60 131.93 181.56 133.11 181.56 C 134.30 181.56 135.26 180.60 135.26 179.42 L 135.26 178.39 C 135.26 177.21 134.30 176.25 133.11 176.25 C 131.93 176.25 130.96 177.21 130.96 178.39 Z M 130.99 179.42 L 130.99 180.39 C 130.99 181.56 131.94 182.51 133.11 182.51 C 134.28 182.51 135.24 181.56 135.24 180.39 L 135.24 179.42 C 135.24 178.24 134.28 177.29 133.11 177.29 C 131.94 177.29 130.99 178.24 130.99 179.42 Z M 131.01 180.39 L 131.01 181.41 C 131.01 182.57 131.95 183.52 133.11 183.52 C 134.27 183.52 135.21 182.57 135.21 181.41 L 135.21 180.39 C 135.21 179.23 134.27 178.29 133.11 178.29 C 131.95 178.29 131.01 179.23 131.01 180.39 Z M 131.03 181.41 L 131.03 182.39 C 131.03 183.54 131.96 184.47 133.11 184.47 C 134.26 184.47 135.19 183.54 135.19 182.39 L 135.19 181.41 C 135.19 180.26 134.26 179.33 133.11 179.33 C 131.96 179.33 131.03 180.26 131.03 181.41 Z M 131.06 182.39 L 131.06 183.42 C 131.06 184.55 131.98 185.47 133.11 185.47 C 134.24 185.47 135.16 184.55 135.16 183.42 L 135.16 182.39 C 135.16 181.26 134.24 180.34 133.11 180.34 C 131.98 180.34 131.06 181.26 131.06 182.39 Z M 131.09 183.42 L 131.09 184.37 C 131.09 185.49 132.00 186.39 133.11 186.39 C 134.23 186.39 135.13 185.49 135.13 184.37 L 135.13 183.42 C 135.13 182.30 134.23 181.39 133.11 181.39 C 131.99 181.39 131.09 182.30 131.09 183.42 Z M 131.12 184.40 L 131.13 185.36 C 131.15 186.46 132.06 187.33 133.16 187.32 C 134.26 187.30 135.13 186.40 135.12 185.30 L 135.10 184.34 C 135.09 183.24 134.18 182.36 133.08 182.38 C 131.98 182.40 131.10 183.30 131.12 184.40 Z M 131.17 185.45 L 131.24 186.61 C 131.31 187.69 132.24 188.52 133.32 188.45 C 134.40 188.38 135.22 187.45 135.16 186.37 L 135.08 185.20 C 135.02 184.12 134.09 183.30 133.00 183.37 C 131.92 183.44 131.10 184.37 131.17 185.45 Z M 131.28 186.74 L 131.42 187.79 C 131.55 188.85 132.53 189.59 133.59 189.45 C 134.65 189.32 135.39 188.34 135.25 187.28 L 135.12 186.24 C 134.98 185.18 134.01 184.43 132.95 184.57 C 131.89 184.71 131.14 185.68 131.28 186.74 Z M 134.03 189.30 L 134.24 189.21 C 135.21 188.83 135.69 187.73 135.31 186.76 C 134.92 185.79 133.82 185.31 132.85 185.69 L 132.64 185.77 C 131.67 186.16 131.19 187.26 131.57 188.23 C 131.96 189.20 133.06 189.68 134.03 189.30 Z M 135.37 187.68 L 135.52 186.50 C 135.65 185.49 134.93 184.57 133.92 184.44 C 132.92 184.31 132.00 185.03 131.87 186.04 L 131.72 187.22 C 131.59 188.23 132.31 189.15 133.31 189.28 C 134.32 189.40 135.24 188.69 135.37 187.68 Z M 135.50 186.36 L 135.56 185.37 C 135.61 184.37 134.84 183.52 133.85 183.47 C 132.85 183.41 132.00 184.18 131.94 185.18 L 131.89 186.17 C 131.83 187.17 132.60 188.02 133.60 188.07 C 134.59 188.13 135.45 187.36 135.50 186.36 Z M 135.55 185.34 L 135.58 184.48 C 135.61 183.49 134.83 182.65 133.84 182.62 C 132.84 182.58 132.01 183.36 131.98 184.36 L 131.95 185.21 C 131.91 186.21 132.69 187.04 133.69 187.08 C 134.68 187.11 135.52 186.33 135.55 185.34 Z"
      fill="black"
      fill-rule="nonzero" /><path d="M 136.67 165.65 L 137.08 164.68 C 137.49 163.70 137.02 162.57 136.04 162.16 C 135.06 161.75 133.93 162.22 133.52 163.20 L 133.12 164.17 C 132.71 165.15 133.17 166.28 134.15 166.69 C 135.13 167.10 136.26 166.64 136.67 165.65 Z M 137.08 164.77 L 137.49 163.89 C 137.95 162.91 137.53 161.74 136.54 161.28 C 135.56 160.82 134.39 161.24 133.93 162.23 L 133.52 163.11 C 133.06 164.09 133.49 165.26 134.47 165.72 C 135.45 166.18 136.62 165.75 137.08 164.77 Z M 137.42 164.12 L 137.96 163.26 C 138.54 162.32 138.26 161.08 137.31 160.49 C 136.37 159.90 135.13 160.19 134.54 161.13 L 134.00 161.99 C 133.42 162.93 133.70 164.18 134.65 164.76 C 135.59 165.35 136.83 165.07 137.42 164.12 Z M 137.72 163.66 L 138.39 162.99 C 139.20 162.18 139.20 160.86 138.38 160.05 C 137.57 159.25 136.26 159.25 135.45 160.06 L 134.78 160.74 C 133.97 161.55 133.97 162.86 134.78 163.67 C 135.60 164.48 136.91 164.47 137.72 163.66 Z M 138.04 163.32 L 138.86 162.81 C 139.86 162.19 140.16 160.89 139.55 159.89 C 138.93 158.90 137.62 158.59 136.63 159.21 L 135.80 159.72 C 134.81 160.34 134.50 161.65 135.12 162.64 C 135.74 163.64 137.04 163.94 138.04 163.32 Z M 138.43 163.04 L 139.40 162.71 C 140.52 162.34 141.12 161.12 140.74 160.00 C 140.36 158.88 139.15 158.28 138.03 158.65 L 137.06 158.98 C 135.94 159.36 135.34 160.58 135.72 161.70 C 136.09 162.82 137.31 163.42 138.43 163.04 Z M 139.00 162.83 L 140.00 162.69 C 141.18 162.53 142.01 161.45 141.85 160.26 C 141.69 159.08 140.61 158.25 139.42 158.41 L 138.43 158.54 C 137.24 158.70 136.41 159.79 136.57 160.97 C 136.73 162.15 137.82 162.98 139.00 162.83 Z M 139.80 162.72 L 140.82 162.68 C 142.01 162.63 142.94 161.62 142.89 160.42 C 142.84 159.22 141.83 158.29 140.63 158.34 L 139.62 158.38 C 138.42 158.43 137.49 159.44 137.54 160.64 C 137.59 161.84 138.60 162.77 139.80 162.72 Z M 140.61 162.68 L 141.60 162.73 C 142.80 162.80 143.83 161.88 143.89 160.68 C 143.96 159.48 143.04 158.46 141.84 158.39 L 140.84 158.34 C 139.64 158.27 138.62 159.19 138.55 160.39 C 138.49 161.59 139.41 162.61 140.61 162.68 Z M 141.09 162.64 L 141.99 162.92 C 143.14 163.27 144.36 162.62 144.71 161.47 C 145.06 160.32 144.41 159.11 143.26 158.76 L 142.35 158.48 C 141.20 158.13 139.99 158.78 139.64 159.93 C 139.29 161.08 139.94 162.29 141.09 162.64 Z M 141.48 162.69 L 142.34 163.22 C 143.36 163.85 144.70 163.54 145.33 162.52 C 145.97 161.50 145.65 160.16 144.63 159.52 L 143.77 158.99 C 142.75 158.36 141.41 158.67 140.78 159.69 C 140.15 160.72 140.46 162.05 141.48 162.69 Z M 142.06 163.01 L 142.78 163.64 C 143.69 164.43 145.06 164.34 145.85 163.44 C 146.64 162.54 146.55 161.16 145.65 160.37 L 144.92 159.74 C 144.01 158.95 142.64 159.04 141.85 159.94 C 141.06 160.84 141.15 162.22 142.06 163.01 Z M 142.61 163.47 L 143.29 164.22 C 144.10 165.11 145.47 165.18 146.36 164.37 C 147.25 163.56 147.31 162.19 146.51 161.30 L 145.82 160.55 C 145.02 159.66 143.64 159.59 142.75 160.40 C 141.87 161.21 141.80 162.58 142.61 163.47 Z M 143.16 164.06 L 143.76 164.87 C 144.48 165.83 145.85 166.03 146.81 165.31 C 147.77 164.59 147.96 163.22 147.24 162.26 L 146.64 161.46 C 145.92 160.50 144.56 160.30 143.59 161.02 C 142.63 161.74 142.44 163.10 143.16 164.06 Z M 143.66 164.73 L 144.20 165.58 C 144.84 166.59 146.18 166.90 147.20 166.25 C 148.22 165.61 148.52 164.26 147.88 163.25 L 147.34 162.40 C 146.70 161.39 145.36 161.08 144.34 161.73 C 143.32 162.37 143.02 163.71 143.66 164.73 Z M 144.11 165.44 L 144.59 166.34 C 145.16 167.41 146.48 167.81 147.54 167.25 C 148.61 166.68 149.01 165.36 148.45 164.30 L 147.97 163.39 C 147.40 162.32 146.08 161.92 145.01 162.48 C 143.95 163.05 143.54 164.37 144.11 165.44 Z M 144.51 166.20 L 144.94 167.17 C 145.43 168.28 146.72 168.78 147.83 168.30 C 148.93 167.81 149.44 166.52 148.95 165.41 L 148.52 164.44 C 148.04 163.33 146.75 162.83 145.64 163.31 C 144.53 163.80 144.03 165.09 144.51 166.20 Z M 144.88 167.06 L 145.23 167.98 C 145.65 169.12 146.92 169.70 148.06 169.27 C 149.20 168.85 149.78 167.58 149.35 166.44 L 149.01 165.52 C 148.58 164.38 147.31 163.80 146.17 164.23 C 145.04 164.66 144.46 165.92 144.88 167.06 Z M 145.19 167.90 L 145.51 168.86 C 145.88 170.02 147.13 170.66 148.29 170.28 C 149.45 169.90 150.08 168.66 149.70 167.50 L 149.39 166.53 C 149.01 165.37 147.77 164.74 146.61 165.11 C 145.45 165.49 144.81 166.74 145.19 167.90 Z M 145.47 168.75 L 145.71 169.66 C 146.02 170.84 147.23 171.55 148.41 171.23 C 149.59 170.92 150.30 169.71 149.98 168.53 L 149.74 167.62 C 149.43 166.44 148.22 165.73 147.04 166.04 C 145.86 166.35 145.16 167.56 145.47 168.75 Z M 145.68 169.53 L 145.87 170.49 C 146.11 171.69 147.28 172.46 148.48 172.22 C 149.68 171.98 150.45 170.81 150.21 169.61 L 150.02 168.66 C 149.77 167.46 148.61 166.68 147.41 166.93 C 146.21 167.17 145.43 168.34 145.68 169.53 Z M 145.86 170.45 L 146.04 171.44 C 146.26 172.64 147.42 173.44 148.62 173.22 C 149.82 172.99 150.62 171.84 150.40 170.64 L 150.22 169.65 C 150.00 168.45 148.84 167.65 147.64 167.87 C 146.44 168.09 145.64 169.25 145.86 170.45 Z M 146.04 171.44 L 146.22 172.42 C 146.44 173.62 147.60 174.41 148.80 174.19 C 150.01 173.97 150.80 172.81 150.58 171.61 L 150.40 170.63 C 150.18 169.43 149.02 168.64 147.82 168.86 C 146.61 169.08 145.82 170.24 146.04 171.44 Z M 146.21 172.37 L 146.38 173.37 C 146.58 174.57 147.72 175.39 148.92 175.19 C 150.13 174.99 150.95 173.85 150.75 172.65 L 150.59 171.65 C 150.39 170.45 149.25 169.63 148.04 169.83 C 146.83 170.03 146.02 171.17 146.21 172.37 Z M 146.37 173.30 L 146.50 174.30 C 146.67 175.51 147.78 176.36 148.99 176.20 C 150.21 176.04 151.06 174.92 150.89 173.71 L 150.76 172.71 C 150.60 171.50 149.48 170.65 148.27 170.81 C 147.06 170.97 146.21 172.09 146.37 173.30 Z M 146.49 174.22 L 146.59 175.22 C 146.71 176.44 147.80 177.33 149.02 177.21 C 150.23 177.09 151.12 176.00 151.00 174.79 L 150.90 173.79 C 150.78 172.57 149.70 171.68 148.48 171.80 C 147.26 171.92 146.37 173.01 146.49 174.22 Z M 146.59 175.15 L 146.66 176.15 C 146.74 177.37 147.79 178.29 149.01 178.21 C 150.23 178.13 151.16 177.07 151.07 175.85 L 151.01 174.86 C 150.92 173.63 149.87 172.71 148.65 172.80 C 147.43 172.88 146.51 173.93 146.59 175.15 Z M 146.65 176.11 L 146.70 177.09 C 146.76 178.31 147.79 179.25 149.02 179.20 C 150.24 179.14 151.18 178.10 151.12 176.88 L 151.08 175.89 C 151.02 174.67 149.98 173.73 148.76 173.79 C 147.54 173.85 146.59 174.88 146.65 176.11 Z M 146.70 177.05 L 146.73 178.06 C 146.76 179.28 147.78 180.25 149.01 180.21 C 150.23 180.17 151.19 179.15 151.16 177.93 L 151.13 176.92 C 151.09 175.69 150.07 174.73 148.85 174.77 C 147.62 174.81 146.66 175.83 146.70 177.05 Z M 146.72 178.02 L 146.74 179.01 C 146.75 180.24 147.76 181.22 148.98 181.20 C 150.20 181.19 151.19 180.18 151.17 178.96 L 151.16 177.97 C 151.14 176.74 150.14 175.76 148.91 175.78 C 147.69 175.79 146.71 176.80 146.72 178.02 Z M 146.73 178.99 L 146.74 180.00 C 146.74 181.23 147.74 182.22 148.96 182.22 C 150.19 182.21 151.18 181.22 151.17 179.99 L 151.17 178.98 C 151.17 177.76 150.17 176.77 148.95 176.77 C 147.72 176.77 146.73 177.77 146.73 178.99 Z M 146.74 180.00 L 146.74 181.00 C 146.74 182.22 147.73 183.22 148.96 183.22 C 150.18 183.22 151.18 182.22 151.18 181.00 L 151.18 180.00 C 151.18 178.77 150.18 177.78 148.96 177.78 C 147.73 177.78 146.74 178.77 146.74 180.00 Z M 146.74 181.00 L 146.74 182.00 C 146.74 183.22 147.73 184.22 148.96 184.22 C 150.18 184.22 151.18 183.22 151.18 182.00 L 151.18 181.00 C 151.18 179.77 150.18 178.78 148.96 178.78 C 147.73 178.78 146.74 179.77 146.74 181.00 Z M 146.74 182.00 L 146.74 182.98 C 146.74 184.21 147.73 185.20 148.95 185.20 C 150.18 185.20 151.17 184.21 151.17 182.98 L 151.17 182.00 C 151.18 180.77 150.18 179.78 148.96 179.78 C 147.73 179.78 146.74 180.77 146.74 182.00 Z M 146.74 182.96 L 146.73 183.96 C 146.72 185.19 147.70 186.19 148.93 186.20 C 150.15 186.21 151.15 185.23 151.16 184.00 L 151.17 183.00 C 151.18 181.78 150.20 180.78 148.97 180.77 C 147.75 180.76 146.75 181.74 146.74 182.96 Z M 146.73 183.92 L 146.71 184.94 C 146.67 186.16 147.64 187.18 148.86 187.21 C 150.08 187.24 151.10 186.28 151.13 185.06 L 151.16 184.04 C 151.19 182.82 150.23 181.80 149.01 181.77 C 147.78 181.74 146.77 182.70 146.73 183.92 Z M 146.71 184.88 L 146.66 185.89 C 146.60 187.11 147.53 188.15 148.75 188.21 C 149.97 188.28 151.01 187.34 151.07 186.12 L 151.12 185.11 C 151.19 183.90 150.25 182.86 149.04 182.79 C 147.82 182.73 146.78 183.66 146.71 184.88 Z M 146.67 185.81 L 146.58 186.81 C 146.48 188.02 147.37 189.09 148.58 189.19 C 149.79 189.30 150.86 188.41 150.97 187.20 L 151.06 186.20 C 151.17 184.99 150.27 183.92 149.06 183.81 C 147.85 183.71 146.78 184.60 146.67 185.81 Z M 146.60 186.71 L 146.47 187.72 C 146.30 188.92 147.15 190.03 148.35 190.19 C 149.55 190.35 150.66 189.51 150.82 188.31 L 150.95 187.29 C 151.11 186.09 150.27 184.99 149.07 184.83 C 147.87 184.66 146.76 185.51 146.60 186.71 Z M 146.48 187.66 L 146.33 188.62 C 146.13 189.81 146.94 190.94 148.13 191.13 C 149.33 191.33 150.45 190.52 150.64 189.33 L 150.80 188.37 C 151.00 187.17 150.19 186.05 148.99 185.85 C 147.80 185.66 146.68 186.47 146.48 187.66 Z M 146.33 188.61 L 146.16 189.61 C 145.96 190.80 146.76 191.93 147.95 192.13 C 149.14 192.33 150.26 191.53 150.47 190.34 L 150.64 189.34 C 150.84 188.15 150.04 187.02 148.85 186.82 C 147.66 186.62 146.54 187.42 146.33 188.61 Z M 146.17 189.60 L 146.00 190.57 C 145.79 191.76 146.58 192.89 147.77 193.09 C 148.95 193.30 150.08 192.51 150.29 191.32 L 150.46 190.35 C 150.67 189.17 149.88 188.04 148.69 187.83 C 147.51 187.62 146.38 188.42 146.17 189.60 Z M 146.01 190.54 L 145.82 191.54 C 145.59 192.72 146.36 193.86 147.54 194.08 C 148.72 194.31 149.86 193.54 150.09 192.36 L 150.28 191.36 C 150.51 190.18 149.73 189.04 148.56 188.81 C 147.38 188.59 146.24 189.36 146.01 190.54 Z M 145.84 191.44 L 145.62 192.37 C 145.34 193.53 146.05 194.70 147.22 194.98 C 148.39 195.27 149.56 194.55 149.84 193.38 L 150.06 192.46 C 150.34 191.29 149.63 190.12 148.46 189.84 C 147.30 189.56 146.12 190.27 145.84 191.44 Z M 145.66 192.24 L 145.37 193.18 C 145.02 194.32 145.67 195.54 146.81 195.88 C 147.95 196.23 149.17 195.59 149.51 194.44 L 149.80 193.51 C 150.15 192.36 149.51 191.15 148.36 190.80 C 147.22 190.45 146.01 191.10 145.66 192.24 Z M 145.39 193.13 L 145.06 194.11 C 144.69 195.25 145.30 196.47 146.43 196.85 C 147.56 197.22 148.79 196.61 149.16 195.48 L 149.49 194.50 C 149.87 193.36 149.26 192.14 148.13 191.76 C 146.99 191.39 145.77 192.00 145.39 193.13 Z M 145.12 193.99 L 144.73 194.94 C 144.29 196.05 144.82 197.30 145.92 197.75 C 147.02 198.19 148.28 197.66 148.72 196.56 L 149.11 195.61 C 149.56 194.50 149.02 193.25 147.92 192.80 C 146.82 192.36 145.56 192.89 145.12 193.99 Z M 144.97 194.54 L 144.37 195.41 C 143.69 196.38 143.94 197.71 144.91 198.38 C 145.88 199.06 147.21 198.81 147.88 197.84 L 148.48 196.96 C 149.16 195.99 148.91 194.66 147.94 193.99 C 146.97 193.32 145.64 193.57 144.97 194.54 Z M 145.45 194.65 L 144.65 194.92 C 143.55 195.29 142.97 196.48 143.34 197.58 C 143.72 198.67 144.91 199.25 146.00 198.88 L 146.80 198.61 C 147.89 198.24 148.48 197.05 148.10 195.95 C 147.73 194.86 146.54 194.27 145.45 194.65 Z M 146.65 195.40 L 146.02 194.84 C 145.19 194.11 143.92 194.19 143.19 195.02 C 142.46 195.85 142.54 197.12 143.37 197.85 L 144.00 198.40 C 144.83 199.13 146.10 199.05 146.83 198.22 C 147.56 197.39 147.48 196.13 146.65 195.40 Z M 146.40 195.51 L 145.91 194.53 C 145.45 193.59 144.32 193.20 143.38 193.66 C 142.44 194.12 142.05 195.26 142.51 196.19 L 142.99 197.18 C 143.46 198.12 144.59 198.51 145.53 198.05 C 146.47 197.58 146.86 196.45 146.40 195.51 Z M 145.95 194.74 L 145.62 193.84 C 145.28 192.88 144.23 192.38 143.27 192.73 C 142.31 193.07 141.81 194.12 142.16 195.08 L 142.48 195.98 C 142.82 196.94 143.88 197.44 144.83 197.09 C 145.79 196.75 146.29 195.70 145.95 194.74 Z M 145.63 193.91 L 145.31 192.91 C 145.01 191.95 143.98 191.41 143.03 191.72 C 142.07 192.02 141.53 193.04 141.84 194.00 L 142.15 195.01 C 142.46 195.97 143.48 196.50 144.44 196.20 C 145.40 195.90 145.93 194.87 145.63 193.91 Z M 145.30 192.93 L 145.14 192.39 C 144.85 191.44 143.84 190.90 142.89 191.19 C 141.93 191.47 141.39 192.48 141.68 193.44 L 141.84 193.98 C 142.13 194.93 143.14 195.47 144.10 195.18 C 145.05 194.89 145.59 193.89 145.30 192.93 Z"
      fill="black"
      fill-rule="nonzero" /><path d="M 138.00 172.41 L 138.92 172.29 C 140.07 172.15 140.89 171.10 140.75 169.95 C 140.61 168.79 139.56 167.97 138.40 168.11 L 137.48 168.23 C 136.33 168.37 135.51 169.42 135.65 170.58 C 135.79 171.73 136.84 172.55 138.00 172.41 Z M 139.08 172.32 L 140.13 172.11 C 141.29 171.88 142.05 170.74 141.82 169.58 C 141.59 168.41 140.45 167.65 139.28 167.88 L 138.24 168.09 C 137.07 168.32 136.31 169.46 136.55 170.63 C 136.78 171.79 137.91 172.55 139.08 172.32 Z M 140.29 172.06 L 141.18 171.81 C 142.32 171.49 142.99 170.31 142.66 169.16 C 142.34 168.02 141.16 167.36 140.01 167.68 L 139.12 167.93 C 137.98 168.25 137.31 169.44 137.64 170.58 C 137.96 171.72 139.14 172.39 140.29 172.06 Z M 141.20 171.73 L 142.18 171.43 C 143.27 171.10 143.89 169.94 143.56 168.84 C 143.22 167.75 142.06 167.13 140.97 167.46 L 139.99 167.76 C 138.89 168.09 138.28 169.25 138.61 170.35 C 138.95 171.45 140.11 172.07 141.20 171.73 Z M 142.12 171.37 L 143.14 171.08 C 144.20 170.78 144.82 169.67 144.51 168.61 C 144.21 167.55 143.10 166.93 142.04 167.23 L 141.02 167.52 C 139.96 167.82 139.34 168.93 139.64 170.00 C 139.95 171.06 141.06 171.68 142.12 171.37 Z M 143.05 171.04 L 144.01 170.81 C 145.05 170.56 145.69 169.51 145.44 168.47 C 145.19 167.42 144.14 166.78 143.10 167.04 L 142.13 167.27 C 141.09 167.53 140.45 168.57 140.70 169.62 C 140.96 170.66 142.00 171.30 143.05 171.04 Z M 143.95 170.77 L 144.93 170.56 C 145.95 170.34 146.60 169.34 146.38 168.32 C 146.16 167.30 145.16 166.65 144.14 166.87 L 143.16 167.08 C 142.14 167.30 141.49 168.30 141.71 169.32 C 141.93 170.34 142.93 170.99 143.95 170.77 Z M 144.89 170.51 L 145.82 170.33 C 146.82 170.13 147.46 169.16 147.26 168.17 C 147.06 167.18 146.10 166.53 145.10 166.73 L 144.18 166.91 C 143.18 167.11 142.54 168.08 142.73 169.07 C 142.93 170.07 143.90 170.71 144.89 170.51 Z"
      fill="black"
      fill-rule="nonzero" /><path d="M 136.05 178.91 L 136.97 179.35 C 138.01 179.84 139.25 179.40 139.74 178.37 C 140.23 177.33 139.79 176.09 138.76 175.60 L 137.84 175.16 C 136.80 174.67 135.56 175.11 135.07 176.14 C 134.58 177.18 135.02 178.42 136.05 178.91 Z M 137.23 179.51 L 138.17 179.80 C 139.29 180.15 140.49 179.52 140.84 178.39 C 141.19 177.27 140.56 176.07 139.43 175.73 L 138.50 175.44 C 137.37 175.09 136.17 175.72 135.83 176.84 C 135.48 177.97 136.11 179.16 137.23 179.51 Z M 138.72 179.90 L 139.66 179.93 C 140.84 179.98 141.83 179.06 141.87 177.88 C 141.92 176.70 141.00 175.71 139.82 175.66 L 138.88 175.63 C 137.70 175.59 136.71 176.51 136.67 177.68 C 136.62 178.86 137.54 179.85 138.72 179.90 Z M 140.09 179.86 L 141.11 179.68 C 142.25 179.49 143.02 178.42 142.83 177.28 C 142.63 176.14 141.56 175.38 140.42 175.57 L 139.39 175.74 C 138.26 175.93 137.49 177.01 137.68 178.15 C 137.87 179.28 138.95 180.05 140.09 179.86 Z M 141.30 179.59 L 142.22 179.35 C 143.31 179.05 143.95 177.93 143.66 176.85 C 143.37 175.76 142.25 175.12 141.16 175.41 L 140.24 175.66 C 139.15 175.95 138.51 177.07 138.80 178.16 C 139.09 179.24 140.21 179.89 141.30 179.59 Z M 142.31 179.27 L 143.27 178.96 C 144.32 178.61 144.89 177.49 144.55 176.44 C 144.21 175.40 143.08 174.83 142.04 175.17 L 141.07 175.48 C 140.03 175.83 139.46 176.95 139.80 178.00 C 140.14 179.04 141.26 179.61 142.31 179.27 Z M 143.34 178.88 L 144.33 178.51 C 145.33 178.13 145.84 177.01 145.47 176.01 C 145.09 175.00 143.97 174.49 142.96 174.87 L 141.97 175.24 C 140.97 175.62 140.46 176.74 140.83 177.75 C 141.21 178.75 142.33 179.26 143.34 178.88 Z M 144.37 178.44 L 145.35 178.04 C 146.32 177.63 146.77 176.52 146.37 175.56 C 145.97 174.59 144.86 174.13 143.89 174.53 L 142.92 174.94 C 141.95 175.34 141.49 176.45 141.89 177.42 C 142.30 178.39 143.41 178.84 144.37 178.44 Z M 145.36 177.98 L 146.26 177.58 C 147.19 177.17 147.62 176.08 147.21 175.15 C 146.80 174.21 145.71 173.79 144.77 174.20 L 143.88 174.59 C 142.94 175.01 142.52 176.10 142.93 177.03 C 143.34 177.96 144.43 178.39 145.36 177.98 Z M 146.26 177.54 L 147.20 177.12 C 148.11 176.71 148.52 175.64 148.11 174.72 C 147.70 173.81 146.62 173.41 145.71 173.82 L 144.77 174.24 C 143.86 174.65 143.45 175.72 143.86 176.63 C 144.27 177.55 145.35 177.95 146.26 177.54 Z M 147.20 177.11 L 148.06 176.72 C 148.96 176.31 149.37 175.24 148.96 174.34 C 148.55 173.43 147.48 173.03 146.58 173.44 L 145.71 173.83 C 144.81 174.24 144.40 175.30 144.81 176.21 C 145.22 177.12 146.29 177.52 147.20 177.11 Z M 148.06 176.72 L 148.24 176.64 C 149.14 176.23 149.55 175.16 149.14 174.26 C 148.73 173.35 147.66 172.95 146.76 173.36 L 146.58 173.44 C 145.67 173.85 145.27 174.91 145.68 175.82 C 146.09 176.73 147.15 177.13 148.06 176.72 Z"
      fill="black"
      fill-rule="nonzero" /><path d="M 162.13 150.23 L 163.12 150.22 C 164.34 150.20 165.31 149.21 165.29 147.99 C 165.28 146.78 164.28 145.81 163.06 145.82 L 162.07 145.83 C 160.86 145.85 159.88 146.85 159.90 148.06 C 159.92 149.28 160.91 150.25 162.13 150.23 Z M 163.29 150.20 L 164.28 150.11 C 165.49 150.00 166.38 148.94 166.27 147.73 C 166.16 146.52 165.09 145.64 163.88 145.75 L 162.89 145.84 C 161.69 145.95 160.80 147.02 160.91 148.22 C 161.02 149.43 162.09 150.32 163.29 150.20 Z M 164.51 150.03 L 165.47 149.84 C 166.63 149.60 167.38 148.47 167.14 147.31 C 166.90 146.15 165.77 145.40 164.61 145.63 L 163.65 145.83 C 162.49 146.06 161.74 147.20 161.98 148.36 C 162.22 149.52 163.35 150.27 164.51 150.03 Z M 165.57 149.73 L 166.56 149.47 C 167.66 149.18 168.32 148.05 168.03 146.95 C 167.73 145.84 166.60 145.18 165.50 145.48 L 164.51 145.74 C 163.41 146.03 162.75 147.16 163.04 148.26 C 163.33 149.37 164.46 150.02 165.57 149.73 Z M 166.58 149.39 L 167.53 149.12 C 168.59 148.81 169.20 147.71 168.90 146.65 C 168.59 145.59 167.49 144.98 166.43 145.28 L 165.48 145.56 C 164.42 145.86 163.81 146.97 164.11 148.03 C 164.42 149.08 165.52 149.69 166.58 149.39 Z M 167.56 149.04 L 168.53 148.73 C 169.55 148.41 170.11 147.33 169.79 146.31 C 169.47 145.30 168.39 144.74 167.38 145.06 L 166.40 145.36 C 165.39 145.68 164.83 146.76 165.15 147.78 C 165.47 148.79 166.55 149.36 167.56 149.04 Z M 168.58 148.66 L 169.55 148.32 C 170.53 147.97 171.04 146.90 170.70 145.93 C 170.36 144.95 169.29 144.44 168.31 144.78 L 167.33 145.12 C 166.36 145.47 165.84 146.54 166.19 147.51 C 166.53 148.49 167.60 149.00 168.58 148.66 Z M 169.58 148.27 L 170.49 147.93 C 171.45 147.57 171.93 146.51 171.57 145.56 C 171.21 144.60 170.15 144.12 169.20 144.48 L 168.28 144.83 C 167.33 145.19 166.85 146.25 167.21 147.20 C 167.57 148.15 168.63 148.63 169.58 148.27 Z M 170.50 147.90 L 171.45 147.53 C 172.39 147.17 172.85 146.12 172.49 145.18 C 172.13 144.24 171.07 143.78 170.14 144.14 L 169.19 144.51 C 168.25 144.87 167.79 145.93 168.15 146.86 C 168.51 147.80 169.57 148.26 170.50 147.90 Z M 171.45 147.52 L 172.36 147.16 C 173.29 146.80 173.74 145.75 173.38 144.82 C 173.02 143.90 171.97 143.44 171.04 143.80 L 170.14 144.16 C 169.21 144.52 168.75 145.57 169.11 146.50 C 169.48 147.42 170.52 147.88 171.45 147.52 Z"
      fill="black"
      fill-rule="nonzero" /><path d="M 159.49 143.11 L 159.57 144.07 C 159.65 145.22 160.65 146.07 161.79 145.98 C 162.93 145.90 163.78 144.90 163.70 143.76 L 163.63 142.80 C 163.54 141.66 162.54 140.80 161.40 140.89 C 160.26 140.97 159.41 141.97 159.49 143.11 Z M 159.48 144.08 L 159.56 145.11 C 159.66 146.30 160.69 147.19 161.88 147.10 C 163.06 147.00 163.95 145.97 163.86 144.78 L 163.78 143.75 C 163.69 142.57 162.65 141.68 161.47 141.77 C 160.28 141.86 159.39 142.90 159.48 144.08 Z M 159.53 145.12 L 159.60 146.07 C 159.69 147.27 160.75 148.18 161.95 148.08 C 163.16 147.99 164.07 146.94 163.97 145.73 L 163.90 144.78 C 163.80 143.57 162.75 142.67 161.54 142.76 C 160.33 142.85 159.43 143.91 159.53 145.12 Z M 159.60 146.04 L 159.67 147.06 C 159.75 148.27 160.80 149.18 162.00 149.10 C 163.21 149.02 164.12 147.98 164.03 146.77 L 163.97 145.75 C 163.88 144.55 162.84 143.64 161.64 143.72 C 160.43 143.80 159.52 144.84 159.60 146.04 Z M 159.68 147.02 L 159.73 148.07 C 159.79 149.27 160.81 150.20 162.01 150.14 C 163.21 150.09 164.13 149.07 164.08 147.87 L 164.03 146.81 C 163.97 145.61 162.95 144.69 161.75 144.74 C 160.55 144.80 159.62 145.82 159.68 147.02 Z M 159.74 148.04 L 159.77 149.07 C 159.81 150.26 160.81 151.20 162.00 151.16 C 163.20 151.12 164.14 150.12 164.10 148.93 L 164.07 147.90 C 164.03 146.71 163.03 145.77 161.84 145.81 C 160.64 145.84 159.70 146.84 159.74 148.04 Z M 159.79 149.06 L 159.81 150.02 C 159.85 151.21 160.83 152.14 162.02 152.11 C 163.21 152.08 164.15 151.09 164.11 149.90 L 164.09 148.94 C 164.05 147.75 163.06 146.82 161.88 146.85 C 160.69 146.88 159.75 147.87 159.79 149.06 Z M 159.83 150.03 L 159.86 151.06 C 159.90 152.24 160.89 153.17 162.07 153.13 C 163.25 153.09 164.17 152.10 164.13 150.92 L 164.10 149.89 C 164.06 148.71 163.07 147.79 161.89 147.83 C 160.71 147.87 159.79 148.86 159.83 150.03 Z M 159.88 151.05 L 159.91 151.99 C 159.93 153.15 160.91 154.08 162.07 154.05 C 163.24 154.02 164.17 153.05 164.14 151.88 L 164.11 150.94 C 164.08 149.77 163.11 148.85 161.94 148.88 C 160.78 148.91 159.85 149.88 159.88 151.05 Z M 159.92 151.95 L 159.92 152.95 C 159.93 154.11 160.88 155.04 162.04 155.04 C 163.20 155.03 164.14 154.08 164.13 152.92 L 164.13 151.92 C 164.12 150.76 163.17 149.82 162.01 149.83 C 160.85 149.84 159.91 150.78 159.92 151.95 Z M 159.93 152.93 L 159.93 153.94 C 159.93 155.09 160.87 156.03 162.03 156.03 C 163.19 156.03 164.12 155.09 164.12 153.94 L 164.12 152.93 C 164.12 151.77 163.18 150.84 162.03 150.84 C 160.87 150.84 159.93 151.77 159.93 152.93 Z M 159.94 153.94 L 159.94 154.94 C 159.94 156.09 160.87 157.03 162.03 157.03 C 163.18 157.03 164.12 156.09 164.12 154.94 L 164.12 153.94 C 164.12 152.78 163.18 151.85 162.03 151.85 C 160.87 151.85 159.94 152.78 159.94 153.94 Z M 159.94 154.94 L 159.94 155.86 C 159.94 157.02 160.88 157.95 162.03 157.95 C 163.18 157.95 164.12 157.01 164.12 155.86 L 164.12 154.94 C 164.12 153.78 163.18 152.85 162.03 152.85 C 160.87 152.85 159.94 153.79 159.94 154.94 Z M 159.94 155.88 L 159.94 156.92 C 159.95 158.08 160.90 159.01 162.05 159.00 C 163.21 158.99 164.14 158.05 164.13 156.89 L 164.12 155.84 C 164.11 154.69 163.17 153.76 162.01 153.77 C 160.86 153.78 159.93 154.72 159.94 155.88 Z M 159.94 156.94 L 159.96 157.94 C 159.98 159.10 160.94 160.02 162.09 160.00 C 163.25 159.98 164.17 159.02 164.15 157.87 L 164.13 156.87 C 164.11 155.71 163.16 154.79 162.00 154.81 C 160.84 154.83 159.92 155.79 159.94 156.94 Z M 159.96 157.97 L 159.99 159.00 C 160.03 160.16 161.00 161.07 162.16 161.03 C 163.31 160.99 164.22 160.02 164.18 158.87 L 164.15 157.84 C 164.11 156.68 163.14 155.77 161.99 155.81 C 160.83 155.85 159.92 156.82 159.96 157.97 Z M 160.00 159.06 L 160.06 160.08 C 160.13 161.23 161.12 162.11 162.27 162.04 C 163.43 161.97 164.31 160.98 164.24 159.83 L 164.18 158.81 C 164.11 157.66 163.12 156.77 161.96 156.84 C 160.81 156.91 159.93 157.90 160.00 159.06 Z M 160.07 160.19 L 160.20 161.25 C 160.33 162.40 161.37 163.22 162.51 163.09 C 163.66 162.96 164.48 161.92 164.35 160.77 L 164.23 159.71 C 164.09 158.56 163.06 157.74 161.91 157.88 C 160.76 158.01 159.94 159.04 160.07 160.19 Z M 160.24 161.46 L 160.44 162.37 C 160.69 163.49 161.80 164.20 162.92 163.95 C 164.04 163.71 164.75 162.60 164.50 161.48 L 164.30 160.57 C 164.05 159.45 162.94 158.74 161.82 158.99 C 160.70 159.23 160.00 160.34 160.24 161.46 Z M 160.56 162.71 L 160.96 163.67 C 161.39 164.72 162.59 165.22 163.65 164.79 C 164.70 164.36 165.20 163.16 164.77 162.11 L 164.38 161.15 C 163.95 160.09 162.75 159.59 161.69 160.02 C 160.64 160.45 160.13 161.65 160.56 162.71 Z M 161.37 164.28 L 162.00 164.95 C 162.77 165.78 164.06 165.83 164.89 165.06 C 165.71 164.29 165.76 163.00 164.99 162.17 L 164.36 161.49 C 163.59 160.67 162.30 160.62 161.47 161.39 C 160.65 162.16 160.60 163.45 161.37 164.28 Z M 163.05 165.54 L 163.99 165.75 C 165.08 166.00 166.16 165.32 166.41 164.23 C 166.66 163.14 165.98 162.06 164.89 161.81 L 163.95 161.59 C 162.86 161.34 161.77 162.02 161.52 163.11 C 161.28 164.20 161.96 165.29 163.05 165.54 Z M 164.80 165.75 L 165.77 165.57 C 166.85 165.37 167.57 164.33 167.38 163.25 C 167.18 162.16 166.14 161.44 165.05 161.64 L 164.08 161.81 C 163.00 162.01 162.28 163.05 162.47 164.14 C 162.67 165.22 163.71 165.94 164.80 165.75 Z M 166.18 165.42 L 167.10 165.03 C 168.10 164.60 168.57 163.45 168.15 162.44 C 167.72 161.44 166.56 160.97 165.56 161.40 L 164.64 161.79 C 163.64 162.21 163.17 163.37 163.60 164.37 C 164.02 165.37 165.18 165.84 166.18 165.42 Z M 167.25 164.92 L 168.09 164.47 C 169.03 163.96 169.38 162.79 168.87 161.84 C 168.37 160.90 167.19 160.55 166.25 161.06 L 165.41 161.51 C 164.47 162.02 164.12 163.19 164.62 164.13 C 165.13 165.08 166.31 165.43 167.25 164.92 Z M 168.13 164.40 L 168.98 163.90 C 169.89 163.37 170.19 162.21 169.66 161.30 C 169.13 160.39 167.97 160.09 167.06 160.62 L 166.21 161.12 C 165.30 161.65 165.00 162.82 165.53 163.72 C 166.06 164.63 167.22 164.93 168.13 164.40 Z M 169.00 163.85 L 169.90 163.30 C 170.78 162.76 171.06 161.61 170.52 160.73 C 169.98 159.86 168.83 159.58 167.95 160.12 L 167.05 160.67 C 166.17 161.21 165.89 162.36 166.43 163.24 C 166.97 164.11 168.12 164.39 169.00 163.85 Z M 169.90 163.27 L 170.72 162.76 C 171.58 162.22 171.84 161.09 171.30 160.22 C 170.77 159.36 169.63 159.10 168.77 159.64 L 167.95 160.15 C 167.09 160.68 166.83 161.82 167.36 162.68 C 167.90 163.55 169.04 163.81 169.90 163.27 Z M 170.72 162.74 L 171.58 162.20 C 172.43 161.66 172.69 160.53 172.15 159.68 C 171.61 158.83 170.49 158.57 169.63 159.11 L 168.77 159.65 C 167.91 160.19 167.66 161.32 168.20 162.17 C 168.73 163.03 169.86 163.28 170.72 162.74 Z M 171.58 162.19 L 172.36 161.69 C 173.21 161.16 173.46 160.04 172.92 159.19 C 172.39 158.34 171.27 158.09 170.42 158.63 L 169.64 159.12 C 168.79 159.66 168.54 160.78 169.07 161.62 C 169.61 162.47 170.73 162.72 171.58 162.19 Z"
      fill="black"
      fill-rule="nonzero" /><path d="M 162.31 175.54 L 163.19 175.95 C 164.26 176.45 165.53 175.99 166.02 174.92 C 166.52 173.86 166.06 172.59 165.00 172.09 L 164.12 171.68 C 163.05 171.18 161.78 171.64 161.29 172.71 C 160.79 173.77 161.25 175.04 162.31 175.54 Z M 163.64 176.13 L 164.61 176.34 C 165.78 176.59 166.93 175.85 167.18 174.69 C 167.43 173.52 166.69 172.37 165.52 172.12 L 164.55 171.91 C 163.38 171.65 162.23 172.40 161.98 173.56 C 161.73 174.73 162.47 175.88 163.64 176.13 Z M 165.13 176.40 L 166.13 176.37 C 167.32 176.34 168.27 175.34 168.24 174.14 C 168.21 172.95 167.21 172.00 166.01 172.03 L 165.01 172.06 C 163.81 172.09 162.86 173.09 162.90 174.29 C 162.93 175.49 163.93 176.43 165.13 176.40 Z M 166.49 176.32 L 167.49 176.13 C 168.66 175.89 169.42 174.75 169.19 173.58 C 168.96 172.41 167.82 171.65 166.65 171.88 L 165.65 172.08 C 164.47 172.31 163.71 173.45 163.95 174.62 C 164.18 175.80 165.32 176.56 166.49 176.32 Z M 167.77 176.02 L 168.70 175.70 C 169.81 175.31 170.40 174.10 170.02 172.98 C 169.63 171.87 168.41 171.28 167.30 171.66 L 166.37 171.99 C 165.25 172.37 164.66 173.59 165.05 174.70 C 165.44 175.82 166.65 176.41 167.77 176.02 Z M 168.83 175.60 L 169.77 175.20 C 170.83 174.74 171.31 173.50 170.85 172.44 C 170.39 171.38 169.16 170.89 168.09 171.35 L 167.16 171.76 C 166.10 172.22 165.61 173.46 166.08 174.52 C 166.54 175.58 167.77 176.07 168.83 175.60 Z M 169.81 175.14 L 170.72 174.71 C 171.74 174.22 172.18 173.00 171.70 171.97 C 171.21 170.94 169.99 170.50 168.96 170.99 L 168.05 171.42 C 167.02 171.90 166.58 173.13 167.07 174.15 C 167.55 175.18 168.78 175.62 169.81 175.14 Z M 170.75 174.65 L 171.64 174.19 C 172.64 173.69 173.03 172.48 172.53 171.48 C 172.03 170.49 170.81 170.09 169.82 170.60 L 168.93 171.05 C 167.93 171.55 167.54 172.77 168.04 173.76 C 168.54 174.75 169.76 175.15 170.75 174.65 Z M 171.68 174.11 L 172.57 173.62 C 173.51 173.10 173.86 171.91 173.34 170.96 C 172.81 170.01 171.62 169.67 170.68 170.19 L 169.79 170.68 C 168.84 171.20 168.49 172.39 169.02 173.34 C 169.54 174.29 170.73 174.63 171.68 174.11 Z M 172.59 173.52 L 173.43 173.01 C 174.32 172.48 174.61 171.32 174.08 170.43 C 173.55 169.54 172.39 169.25 171.50 169.78 L 170.66 170.29 C 169.76 170.82 169.47 171.98 170.01 172.87 C 170.54 173.76 171.70 174.05 172.59 173.52 Z M 173.45 172.94 L 174.29 172.41 C 175.14 171.87 175.39 170.74 174.84 169.88 C 174.30 169.03 173.17 168.78 172.32 169.32 L 171.48 169.86 C 170.63 170.40 170.38 171.53 170.93 172.38 C 171.47 173.23 172.60 173.48 173.45 172.94 Z M 174.30 172.38 L 175.14 171.82 C 175.97 171.27 176.20 170.15 175.65 169.32 C 175.10 168.48 173.98 168.25 173.14 168.80 L 172.31 169.36 C 171.47 169.91 171.24 171.03 171.79 171.86 C 172.34 172.70 173.47 172.93 174.30 172.38 Z M 175.14 171.81 L 175.43 171.62 C 176.26 171.07 176.48 169.95 175.93 169.12 C 175.38 168.29 174.26 168.07 173.43 168.62 L 173.14 168.81 C 172.31 169.37 172.09 170.48 172.64 171.31 C 173.19 172.14 174.31 172.36 175.14 171.81 Z"
      fill="black"
      fill-rule="nonzero" /><path d="M 159.74 164.33 L 159.32 165.23 C 158.82 166.32 159.30 167.60 160.38 168.10 C 161.47 168.60 162.76 168.13 163.26 167.04 L 163.67 166.14 C 164.17 165.06 163.70 163.77 162.61 163.27 C 161.52 162.77 160.24 163.25 159.74 164.33 Z M 159.20 165.48 L 158.90 166.43 C 158.54 167.58 159.18 168.81 160.33 169.17 C 161.48 169.54 162.71 168.90 163.08 167.75 L 163.38 166.80 C 163.74 165.64 163.10 164.41 161.95 164.05 C 160.80 163.69 159.57 164.32 159.20 165.48 Z M 158.79 166.76 L 158.64 167.74 C 158.46 168.96 159.30 170.09 160.51 170.27 C 161.73 170.45 162.86 169.61 163.05 168.40 L 163.19 167.41 C 163.37 166.20 162.53 165.07 161.32 164.88 C 160.10 164.70 158.97 165.54 158.79 166.76 Z M 158.58 167.94 L 158.52 168.93 C 158.45 170.18 159.40 171.25 160.65 171.33 C 161.90 171.40 162.97 170.45 163.05 169.20 L 163.11 168.20 C 163.18 166.95 162.23 165.88 160.98 165.81 C 159.73 165.73 158.65 166.69 158.58 167.94 Z M 158.50 169.02 L 158.48 170.00 C 158.46 171.27 159.47 172.31 160.73 172.33 C 161.99 172.35 163.03 171.34 163.05 170.08 L 163.07 169.10 C 163.09 167.84 162.08 166.80 160.82 166.78 C 159.56 166.76 158.52 167.76 158.50 169.02 Z M 158.48 170.04 L 158.48 171.08 C 158.48 172.35 159.50 173.37 160.76 173.37 C 162.03 173.37 163.05 172.35 163.06 171.09 L 163.06 170.04 C 163.06 168.78 162.03 167.75 160.77 167.75 C 159.51 167.75 158.48 168.78 158.48 170.04 Z M 158.47 171.08 L 158.47 172.11 C 158.47 173.38 159.50 174.41 160.77 174.41 C 162.03 174.41 163.06 173.38 163.06 172.11 L 163.06 171.08 C 163.06 169.82 162.03 168.79 160.77 168.79 C 159.50 168.79 158.47 169.82 158.47 171.08 Z M 158.47 172.11 L 158.47 173.09 C 158.47 174.36 159.50 175.38 160.77 175.38 C 162.04 175.38 163.06 174.36 163.06 173.09 L 163.06 172.11 C 163.06 170.85 162.04 169.82 160.77 169.82 C 159.50 169.82 158.47 170.85 158.47 172.11 Z M 158.47 173.09 L 158.47 174.15 C 158.47 175.42 159.50 176.45 160.77 176.45 C 162.04 176.45 163.07 175.42 163.07 174.15 L 163.07 173.09 C 163.07 171.82 162.04 170.79 160.77 170.79 C 159.50 170.79 158.47 171.82 158.47 173.09 Z M 158.47 174.15 L 158.47 175.08 C 158.47 176.35 159.50 177.38 160.77 177.38 C 162.04 177.38 163.07 176.35 163.07 175.08 L 163.07 174.15 C 163.07 172.88 162.04 171.85 160.77 171.85 C 159.50 171.85 158.47 172.88 158.47 174.15 Z M 158.46 175.10 L 158.47 176.09 C 158.48 177.37 159.52 178.39 160.79 178.38 C 162.06 178.38 163.08 177.34 163.08 176.07 L 163.07 175.07 C 163.06 173.80 162.02 172.77 160.75 172.78 C 159.48 172.79 158.46 173.83 158.46 175.10 Z M 158.47 176.14 L 158.49 177.14 C 158.53 178.41 159.59 179.42 160.86 179.38 C 162.14 179.35 163.14 178.29 163.11 177.01 L 163.08 176.02 C 163.04 174.74 161.98 173.74 160.71 173.77 C 159.44 173.81 158.43 174.87 158.47 176.14 Z M 158.49 177.19 L 158.54 178.20 C 158.61 179.48 159.69 180.46 160.97 180.40 C 162.25 180.33 163.23 179.24 163.16 177.97 L 163.11 176.96 C 163.05 175.68 161.96 174.70 160.68 174.76 C 159.41 174.83 158.42 175.92 158.49 177.19 Z M 158.54 178.24 L 158.60 179.24 C 158.69 180.52 159.79 181.49 161.07 181.40 C 162.35 181.32 163.32 180.21 163.23 178.93 L 163.17 177.93 C 163.08 176.65 161.98 175.68 160.70 175.77 C 159.42 175.85 158.45 176.96 158.54 178.24 Z M 158.60 179.23 L 158.66 180.23 C 158.74 181.51 159.84 182.49 161.13 182.41 C 162.41 182.33 163.38 181.22 163.30 179.94 L 163.24 178.94 C 163.16 177.66 162.06 176.69 160.77 176.76 C 159.49 176.84 158.52 177.95 158.60 179.23 Z M 158.66 180.22 L 158.71 181.21 C 158.78 182.49 159.88 183.48 161.17 183.41 C 162.45 183.33 163.43 182.24 163.36 180.95 L 163.31 179.96 C 163.23 178.67 162.13 177.69 160.85 177.76 C 159.57 177.83 158.58 178.93 158.66 180.22 Z M 158.71 181.25 L 158.78 182.17 C 158.87 183.45 159.99 184.42 161.27 184.32 C 162.55 184.23 163.52 183.12 163.43 181.83 L 163.36 180.91 C 163.27 179.63 162.15 178.66 160.87 178.76 C 159.58 178.85 158.62 179.97 158.71 181.25 Z M 158.78 182.23 L 158.89 183.29 C 159.02 184.57 160.16 185.51 161.44 185.38 C 162.72 185.25 163.65 184.11 163.53 182.83 L 163.42 181.77 C 163.29 180.49 162.15 179.56 160.87 179.68 C 159.59 179.81 158.66 180.95 158.78 182.23 Z M 158.90 183.34 L 159.01 184.32 C 159.17 185.59 160.33 186.50 161.61 186.35 C 162.89 186.19 163.80 185.03 163.64 183.75 L 163.52 182.78 C 163.37 181.50 162.20 180.59 160.93 180.75 C 159.65 180.90 158.74 182.06 158.90 183.34 Z M 159.02 184.39 L 159.18 185.41 C 159.38 186.68 160.57 187.55 161.84 187.36 C 163.11 187.16 163.98 185.97 163.79 184.70 L 163.63 183.68 C 163.43 182.41 162.24 181.53 160.97 181.73 C 159.70 181.93 158.83 183.12 159.02 184.39 Z M 159.21 185.56 L 159.44 186.57 C 159.72 187.83 160.96 188.62 162.22 188.34 C 163.47 188.06 164.27 186.82 163.99 185.56 L 163.76 184.55 C 163.48 183.29 162.23 182.50 160.98 182.78 C 159.72 183.06 158.93 184.30 159.21 185.56 Z M 159.53 186.88 L 159.87 187.79 C 160.32 189.00 161.66 189.61 162.87 189.16 C 164.07 188.71 164.68 187.37 164.23 186.17 L 163.89 185.25 C 163.44 184.05 162.10 183.43 160.90 183.88 C 159.69 184.33 159.08 185.68 159.53 186.88 Z M 160.07 188.21 L 160.59 189.04 C 161.27 190.13 162.70 190.46 163.79 189.78 C 164.89 189.10 165.22 187.67 164.54 186.57 L 164.03 185.75 C 163.35 184.66 161.91 184.32 160.82 185.00 C 159.73 185.68 159.39 187.12 160.07 188.21 Z M 160.95 189.48 L 161.66 190.18 C 162.59 191.07 164.06 191.04 164.96 190.12 C 165.85 189.19 165.83 187.72 164.90 186.82 L 164.18 186.13 C 163.26 185.23 161.78 185.26 160.89 186.19 C 159.99 187.11 160.02 188.59 160.95 189.48 Z M 162.30 190.61 L 163.19 191.02 C 164.36 191.57 165.74 191.06 166.28 189.89 C 166.83 188.72 166.32 187.34 165.15 186.80 L 164.26 186.38 C 163.10 185.84 161.71 186.35 161.17 187.52 C 160.63 188.68 161.13 190.07 162.30 190.61 Z M 163.90 191.22 L 164.88 191.34 C 166.16 191.49 167.31 190.58 167.46 189.30 C 167.61 188.03 166.70 186.87 165.43 186.72 L 164.44 186.60 C 163.17 186.45 162.01 187.36 161.86 188.64 C 161.71 189.91 162.62 191.07 163.90 191.22 Z M 165.37 191.33 L 166.40 191.23 C 167.68 191.11 168.61 189.98 168.49 188.71 C 168.37 187.43 167.24 186.50 165.96 186.62 L 164.93 186.72 C 163.66 186.84 162.73 187.97 162.85 189.25 C 162.97 190.52 164.10 191.45 165.37 191.33 Z M 166.74 191.16 L 167.75 190.91 C 168.98 190.60 169.73 189.36 169.42 188.12 C 169.12 186.89 167.87 186.14 166.64 186.45 L 165.63 186.70 C 164.40 187.00 163.65 188.25 163.95 189.48 C 164.26 190.72 165.51 191.47 166.74 191.16 Z M 167.93 190.83 L 168.84 190.52 C 170.03 190.11 170.67 188.81 170.26 187.62 C 169.85 186.43 168.55 185.80 167.36 186.21 L 166.45 186.52 C 165.26 186.93 164.62 188.23 165.03 189.42 C 165.44 190.61 166.74 191.24 167.93 190.83 Z M 168.91 190.46 L 169.88 190.08 C 171.04 189.63 171.61 188.33 171.16 187.17 C 170.71 186.02 169.41 185.45 168.25 185.90 L 167.28 186.27 C 166.13 186.72 165.56 188.02 166.01 189.18 C 166.46 190.34 167.76 190.91 168.91 190.46 Z M 169.92 190.01 L 170.79 189.64 C 171.91 189.16 172.43 187.88 171.96 186.76 C 171.49 185.65 170.20 185.13 169.09 185.60 L 168.21 185.97 C 167.10 186.44 166.58 187.73 167.05 188.84 C 167.52 189.96 168.81 190.48 169.92 190.01 Z M 170.81 189.57 L 171.72 189.17 C 172.80 188.69 173.29 187.42 172.81 186.34 C 172.32 185.26 171.06 184.78 169.98 185.26 L 169.07 185.66 C 167.99 186.14 167.50 187.41 167.98 188.49 C 168.47 189.57 169.73 190.06 170.81 189.57 Z M 171.72 189.12 L 172.63 188.71 C 173.68 188.23 174.14 186.98 173.66 185.93 C 173.18 184.88 171.94 184.41 170.89 184.89 L 169.98 185.31 C 168.93 185.79 168.46 187.03 168.94 188.08 C 169.42 189.14 170.67 189.60 171.72 189.12 Z M 172.63 188.66 L 173.54 188.23 C 174.56 187.75 175.01 186.53 174.53 185.50 C 174.05 184.48 172.83 184.04 171.80 184.52 L 170.89 184.94 C 169.86 185.42 169.42 186.64 169.90 187.67 C 170.38 188.69 171.60 189.14 172.63 188.66 Z M 173.55 188.17 L 174.45 187.73 C 175.44 187.25 175.85 186.05 175.37 185.05 C 174.88 184.06 173.68 183.65 172.69 184.14 L 171.79 184.57 C 170.80 185.06 170.39 186.26 170.87 187.25 C 171.36 188.25 172.56 188.66 173.55 188.17 Z M 174.43 187.69 L 175.34 187.25 C 176.30 186.77 176.70 185.59 176.22 184.62 C 175.74 183.65 174.57 183.25 173.60 183.73 L 172.70 184.18 C 171.73 184.66 171.33 185.83 171.81 186.80 C 172.29 187.77 173.46 188.17 174.43 187.69 Z M 175.30 187.22 L 176.20 186.78 C 177.16 186.32 177.56 185.18 177.10 184.22 C 176.64 183.27 175.49 182.87 174.54 183.33 L 173.64 183.76 C 172.68 184.22 172.28 185.37 172.74 186.32 C 173.20 187.27 174.35 187.68 175.30 187.22 Z M 176.17 186.76 L 177.07 186.33 C 178.01 185.89 178.42 184.77 177.98 183.83 C 177.53 182.89 176.42 182.49 175.48 182.93 L 174.57 183.35 C 173.63 183.79 173.23 184.91 173.67 185.85 C 174.11 186.79 175.23 187.20 176.17 186.76 Z M 177.05 186.31 L 177.95 185.89 C 178.88 185.46 179.29 184.37 178.86 183.44 C 178.43 182.51 177.33 182.11 176.40 182.53 L 175.50 182.95 C 174.57 183.38 174.17 184.48 174.59 185.41 C 175.02 186.33 176.12 186.74 177.05 186.31 Z M 177.94 185.87 L 178.81 185.47 C 179.73 185.05 180.13 183.97 179.71 183.05 C 179.29 182.13 178.20 181.73 177.28 182.15 L 176.42 182.55 C 175.50 182.97 175.10 184.06 175.52 184.98 C 175.94 185.89 177.02 186.29 177.94 185.87 Z M 178.80 185.46 L 179.70 185.05 C 180.61 184.63 181.01 183.56 180.59 182.65 C 180.17 181.74 179.10 181.34 178.19 181.76 L 177.29 182.17 C 176.38 182.58 175.98 183.66 176.40 184.57 C 176.82 185.48 177.89 185.88 178.80 185.46 Z M 179.69 185.05 L 180.62 184.63 C 181.52 184.21 181.92 183.14 181.51 182.24 C 181.10 181.33 180.03 180.93 179.12 181.34 L 178.20 181.76 C 177.29 182.17 176.89 183.24 177.30 184.15 C 177.71 185.06 178.78 185.46 179.69 185.05 Z M 180.61 184.62 L 181.51 184.22 C 182.41 183.81 182.82 182.75 182.41 181.84 C 182.00 180.93 180.93 180.53 180.03 180.94 L 179.13 181.34 C 178.22 181.75 177.82 182.82 178.23 183.72 C 178.64 184.63 179.70 185.03 180.61 184.62 Z M 181.50 184.22 L 182.46 183.79 C 183.37 183.38 183.77 182.32 183.36 181.41 C 182.95 180.50 181.89 180.10 180.98 180.51 L 180.03 180.94 C 179.12 181.34 178.72 182.41 179.12 183.32 C 179.53 184.22 180.60 184.63 181.50 184.22 Z M 182.46 183.79 L 182.70 183.68 C 183.60 183.28 184.01 182.21 183.60 181.30 C 183.19 180.40 182.13 179.99 181.22 180.40 L 180.98 180.51 C 180.08 180.92 179.67 181.98 180.08 182.89 C 180.49 183.79 181.55 184.20 182.46 183.79 Z"
      fill="black"
      fill-rule="nonzero" /></svg>