<svg xmlns="http://www.w3.org/2000/svg" width="300" height="300" viewBox="0 0 300 300">
<path d="M 118.98 133.36 L 119.81 132.87 C 120.74 132.32 121.04 131.13 120.49 130.21 C 119.95 129.29 118.76 128.98 117.84 129.53 L 117.00 130.02 C 116.08 130.57 115.77 131.76 116.32 132.68 C 116.86 133.60 118.05 133.91 118.98 133.36 Z M 119.52 133.01 L 120.46 132.65 C 121.46 132.26 121.96 131.14 121.57 130.14 C 121.19 129.14 120.07 128.64 119.07 129.03 L 118.13 129.39 C 117.13 129.77 116.63 130.89 117.01 131.89 C 117.40 132.89 118.52 133.39 119.52 133.01 Z M 120.09 132.75 L 121.07 132.58 C 122.12 132.40 122.83 131.40 122.65 130.34 C 122.47 129.29 121.47 128.58 120.42 128.76 L 119.44 128.92 C 118.38 129.10 117.67 130.10 117.85 131.16 C 118.03 132.22 119.03 132.93 120.09 132.75 Z M 120.86 132.61 L 121.88 132.55 C 122.95 132.48 123.77 131.56 123.70 130.49 C 123.64 129.42 122.71 128.60 121.64 128.67 L 120.62 128.73 C 119.55 128.79 118.73 129.72 118.80 130.79 C 118.86 131.86 119.79 132.68 120.86 132.61 Z M 121.70 132.56 L 122.68 132.59 C 123.76 132.62 124.66 131.77 124.69 130.69 C 124.72 129.61 123.87 128.71 122.79 128.68 L 121.82 128.65 C 120.74 128.62 119.84 129.47 119.81 130.55 C 119.78 131.63 120.63 132.53 121.70 132.56 Z M 122.32 132.56 L 123.32 132.77 C 124.38 133.00 125.43 132.32 125.65 131.26 C 125.88 130.20 125.20 129.15 124.14 128.92 L 123.15 128.71 C 122.08 128.48 121.04 129.16 120.81 130.22 C 120.58 131.29 121.26 132.33 122.32 132.56 Z M 122.93 132.66 L 123.84 133.06 C 124.84 133.50 126.01 133.05 126.45 132.05 C 126.89 131.05 126.43 129.88 125.44 129.44 L 124.53 129.04 C 123.53 128.60 122.36 129.05 121.92 130.05 C 121.48 131.05 121.93 132.22 122.93 132.66 Z M 123.62 132.95 L 124.50 133.47 C 125.44 134.03 126.66 133.73 127.22 132.79 C 127.78 131.85 127.47 130.64 126.53 130.08 L 125.65 129.55 C 124.72 128.99 123.50 129.30 122.94 130.24 C 122.38 131.17 122.69 132.39 123.62 132.95 Z M 124.37 133.38 L 125.20 133.98 C 126.09 134.62 127.33 134.42 127.96 133.53 C 128.60 132.64 128.40 131.40 127.51 130.77 L 126.67 130.17 C 125.78 129.53 124.55 129.74 123.91 130.62 C 123.27 131.51 123.48 132.75 124.37 133.38 Z M 125.06 133.88 L 125.82 134.53 C 126.65 135.24 127.90 135.15 128.62 134.32 C 129.33 133.49 129.23 132.24 128.40 131.52 L 127.65 130.87 C 126.82 130.16 125.57 130.25 124.85 131.08 C 124.14 131.91 124.23 133.17 125.06 133.88 Z M 125.68 134.40 L 126.33 135.08 C 127.09 135.87 128.34 135.90 129.14 135.14 C 129.93 134.39 129.96 133.13 129.20 132.34 L 128.55 131.65 C 127.79 130.86 126.53 130.83 125.74 131.59 C 124.95 132.35 124.92 133.60 125.68 134.40 Z M 126.21 134.95 L 126.82 135.72 C 127.51 136.58 128.76 136.72 129.62 136.04 C 130.48 135.36 130.62 134.10 129.94 133.24 L 129.32 132.47 C 128.64 131.61 127.39 131.47 126.53 132.15 C 125.67 132.84 125.52 134.09 126.21 134.95 Z M 126.72 135.58 L 127.27 136.41 C 127.87 137.33 129.11 137.58 130.03 136.98 C 130.95 136.37 131.20 135.13 130.59 134.22 L 130.04 133.38 C 129.44 132.47 128.20 132.21 127.28 132.82 C 126.36 133.43 126.11 134.66 126.72 135.58 Z M 127.19 136.29 L 127.67 137.15 C 128.21 138.11 129.42 138.45 130.38 137.91 C 131.35 137.38 131.69 136.16 131.15 135.20 L 130.67 134.34 C 130.13 133.38 128.92 133.03 127.95 133.57 C 126.99 134.11 126.65 135.33 127.19 136.29 Z M 127.61 137.05 L 128.06 137.97 C 128.55 138.97 129.74 139.38 130.74 138.90 C 131.73 138.41 132.14 137.22 131.66 136.22 L 131.21 135.30 C 130.72 134.30 129.53 133.89 128.53 134.37 C 127.54 134.86 127.13 136.05 127.61 137.05 Z M 128.02 137.89 L 128.40 138.77 C 128.84 139.79 130.02 140.25 131.04 139.81 C 132.05 139.38 132.52 138.20 132.08 137.18 L 131.70 136.30 C 131.26 135.29 130.08 134.82 129.07 135.26 C 128.05 135.70 127.58 136.88 128.02 137.89 Z M 128.37 138.69 L 128.73 139.65 C 129.13 140.68 130.29 141.20 131.32 140.80 C 132.36 140.40 132.87 139.24 132.48 138.21 L 132.11 137.26 C 131.72 136.23 130.56 135.71 129.52 136.11 C 128.49 136.50 127.97 137.66 128.37 138.69 Z M 128.70 139.57 L 129.03 140.52 C 129.38 141.57 130.52 142.14 131.57 141.78 C 132.62 141.43 133.18 140.29 132.83 139.24 L 132.51 138.29 C 132.15 137.24 131.01 136.67 129.96 137.03 C 128.91 137.38 128.35 138.52 128.70 139.57 Z M 129.00 140.46 L 129.28 141.39 C 129.60 142.45 130.72 143.06 131.78 142.74 C 132.84 142.42 133.45 141.30 133.13 140.24 L 132.85 139.31 C 132.53 138.24 131.42 137.64 130.35 137.96 C 129.29 138.27 128.69 139.39 129.00 140.46 Z M 129.26 141.33 L 129.53 142.32 C 129.81 143.39 130.91 144.03 131.99 143.74 C 133.06 143.46 133.70 142.36 133.41 141.29 L 133.15 140.30 C 132.86 139.23 131.76 138.59 130.69 138.87 C 129.62 139.16 128.98 140.26 129.26 141.33 Z M 129.51 142.27 L 129.75 143.25 C 130.00 144.33 131.09 145.00 132.17 144.74 C 133.25 144.48 133.92 143.40 133.66 142.32 L 133.43 141.34 C 133.17 140.26 132.08 139.59 131.00 139.85 C 129.92 140.10 129.26 141.19 129.51 142.27 Z M 129.73 143.21 L 129.93 144.14 C 130.17 145.23 131.24 145.92 132.33 145.69 C 133.41 145.46 134.11 144.39 133.87 143.30 L 133.67 142.36 C 133.44 141.27 132.37 140.58 131.28 140.81 C 130.19 141.05 129.50 142.12 129.73 143.21 Z M 129.92 144.11 L 130.11 145.09 C 130.33 146.18 131.38 146.90 132.48 146.68 C 133.57 146.47 134.29 145.41 134.07 144.32 L 133.88 143.34 C 133.67 142.25 132.61 141.53 131.52 141.74 C 130.43 141.95 129.71 143.01 129.92 144.11 Z M 130.11 145.05 L 130.29 146.09 C 130.48 147.19 131.53 147.92 132.62 147.73 C 133.72 147.53 134.46 146.49 134.26 145.39 L 134.08 144.36 C 133.89 143.26 132.84 142.52 131.75 142.72 C 130.65 142.91 129.91 143.95 130.11 145.05 Z M 130.28 146.06 L 130.44 147.04 C 130.62 148.14 131.65 148.89 132.75 148.71 C 133.85 148.53 134.60 147.50 134.43 146.40 L 134.27 145.42 C 134.09 144.32 133.06 143.57 131.96 143.74 C 130.85 143.92 130.11 144.96 130.28 146.06 Z M 130.44 147.01 L 130.58 147.99 C 130.74 149.10 131.76 149.86 132.87 149.70 C 133.97 149.54 134.73 148.52 134.57 147.41 L 134.43 146.42 C 134.27 145.32 133.24 144.56 132.14 144.72 C 131.04 144.88 130.28 145.90 130.44 147.01 Z M 130.58 147.96 L 130.71 148.96 C 130.85 150.07 131.86 150.85 132.96 150.71 C 134.06 150.57 134.84 149.56 134.70 148.45 L 134.57 147.45 C 134.43 146.34 133.42 145.56 132.32 145.71 C 131.22 145.85 130.44 146.86 130.58 147.96 Z M 130.71 148.92 L 130.81 149.93 C 130.93 151.03 131.92 151.83 133.03 151.71 C 134.13 151.60 134.93 150.61 134.81 149.50 L 134.70 148.49 C 134.59 147.39 133.60 146.59 132.49 146.71 C 131.39 146.83 130.59 147.82 130.71 148.92 Z M 130.81 149.88 L 130.89 150.89 C 130.98 151.99 131.95 152.82 133.06 152.73 C 134.17 152.63 134.99 151.66 134.90 150.56 L 134.82 149.55 C 134.72 148.44 133.75 147.62 132.65 147.71 C 131.54 147.80 130.72 148.77 130.81 149.88 Z M 130.89 150.84 L 130.95 151.84 C 131.01 152.94 131.96 153.79 133.07 153.73 C 134.18 153.66 135.02 152.71 134.96 151.61 L 134.90 150.61 C 134.84 149.50 133.89 148.65 132.78 148.72 C 131.67 148.78 130.83 149.73 130.89 150.84 Z M 130.95 151.80 L 130.99 152.79 C 131.03 153.90 131.96 154.76 133.07 154.72 C 134.17 154.68 135.04 153.75 135.00 152.64 L 134.96 151.65 C 134.92 150.54 133.98 149.67 132.88 149.72 C 131.77 149.76 130.91 150.69 130.95 151.80 Z M 130.99 152.76 L 131.01 153.76 C 131.04 154.86 131.95 155.74 133.06 155.71 C 134.17 155.69 135.04 154.77 135.02 153.66 L 135.00 152.67 C 134.97 151.56 134.05 150.68 132.94 150.71 C 131.84 150.74 130.96 151.65 130.99 152.76 Z M 131.01 153.74 L 131.02 154.73 C 131.04 155.83 131.95 156.72 133.06 156.70 C 134.16 156.69 135.05 155.78 135.03 154.67 L 135.02 153.68 C 135.00 152.58 134.09 151.69 132.99 151.71 C 131.88 151.72 131.00 152.63 131.01 153.74 Z M 131.03 154.72 L 131.03 155.71 C 131.04 156.82 131.94 157.71 133.05 157.70 C 134.16 157.69 135.05 156.79 135.04 155.68 L 135.03 154.69 C 135.02 153.58 134.12 152.69 133.01 152.70 C 131.91 152.71 131.02 153.61 131.03 154.72 Z M 131.03 155.70 L 131.04 156.71 C 131.04 157.81 131.94 158.70 133.04 158.70 C 134.15 158.70 135.04 157.80 135.04 156.69 L 135.04 155.69 C 135.03 154.59 134.13 153.69 133.03 153.70 C 131.92 153.70 131.03 154.60 131.03 155.70 Z M 131.04 156.70 L 131.04 157.71 C 131.04 158.81 131.94 159.71 133.04 159.71 C 134.14 159.71 135.04 158.81 135.04 157.71 L 135.04 156.70 C 135.04 155.60 134.14 154.70 133.04 154.70 C 131.93 154.70 131.04 155.60 131.04 156.70 Z M 131.04 157.71 L 131.04 158.71 C 131.04 159.81 131.94 160.70 133.04 160.70 C 134.14 160.70 135.04 159.81 135.04 158.71 L 135.04 157.71 C 135.04 156.60 134.14 155.71 133.04 155.71 C 131.94 155.71 131.04 156.60 131.04 157.71 Z M 131.04 158.71 L 131.04 159.70 C 131.04 160.81 131.94 161.70 133.04 161.70 C 134.14 161.70 135.03 160.81 135.03 159.71 L 135.03 158.71 C 135.03 157.61 134.14 156.71 133.04 156.71 C 131.94 156.71 131.04 157.60 131.04 158.71 Z M 131.05 159.70 L 131.04 160.70 C 131.04 161.80 131.93 162.70 133.03 162.70 C 134.13 162.70 135.03 161.81 135.03 160.71 L 135.03 159.71 C 135.03 158.61 134.14 157.72 133.04 157.71 C 131.94 157.71 131.05 158.60 131.05 159.70 Z M 131.05 160.70 L 131.04 161.70 C 131.04 162.80 131.92 163.69 133.02 163.70 C 134.12 163.70 135.02 162.82 135.02 161.72 L 135.03 160.71 C 135.03 159.61 134.14 158.72 133.04 158.71 C 131.95 158.71 131.05 159.60 131.05 160.70 Z M 131.04 161.69 L 131.04 162.70 C 131.03 163.79 131.91 164.69 133.01 164.70 C 134.11 164.71 135.01 163.82 135.01 162.72 L 135.02 161.72 C 135.03 160.62 134.14 159.73 133.05 159.72 C 131.95 159.71 131.05 160.60 131.04 161.69 Z M 131.04 162.69 L 131.03 163.69 C 131.01 164.78 131.89 165.68 132.99 165.70 C 134.08 165.71 134.98 164.83 135.00 163.74 L 135.01 162.73 C 135.02 161.64 134.15 160.74 133.05 160.72 C 131.95 160.71 131.05 161.59 131.04 162.69 Z M 131.03 163.67 L 131.01 164.67 C 130.99 165.77 131.86 166.67 132.95 166.70 C 134.04 166.72 134.95 165.85 134.97 164.75 L 135.00 163.75 C 135.02 162.66 134.15 161.75 133.05 161.73 C 131.96 161.71 131.05 162.58 131.03 163.67 Z M 131.01 164.65 L 130.98 165.65 C 130.94 166.74 131.80 167.65 132.89 167.69 C 133.99 167.73 134.90 166.87 134.94 165.78 L 134.97 164.78 C 135.01 163.69 134.15 162.77 133.06 162.73 C 131.96 162.70 131.05 163.55 131.01 164.65 Z M 130.98 165.62 L 130.93 166.61 C 130.88 167.70 131.72 168.63 132.81 168.68 C 133.91 168.74 134.83 167.90 134.89 166.81 L 134.93 165.81 C 134.99 164.72 134.15 163.79 133.05 163.74 C 131.96 163.68 131.04 164.52 130.98 165.62 Z M 130.94 166.58 L 130.87 167.58 C 130.80 168.67 131.63 169.61 132.72 169.68 C 133.81 169.75 134.75 168.92 134.82 167.84 L 134.88 166.84 C 134.95 165.75 134.13 164.81 133.04 164.74 C 131.95 164.67 131.01 165.49 130.94 166.58 Z M 130.88 167.56 L 130.80 168.55 C 130.72 169.64 131.53 170.59 132.62 170.67 C 133.70 170.75 134.65 169.94 134.74 168.85 L 134.81 167.86 C 134.90 166.77 134.08 165.82 133.00 165.74 C 131.91 165.66 130.96 166.47 130.88 167.56 Z M 130.81 168.54 L 130.72 169.53 C 130.63 170.61 131.43 171.57 132.52 171.66 C 133.60 171.76 134.56 170.95 134.65 169.87 L 134.73 168.87 C 134.83 167.79 134.02 166.83 132.94 166.74 C 131.85 166.65 130.90 167.45 130.81 168.54 Z M 130.72 169.52 L 130.63 170.54 C 130.53 171.62 131.33 172.58 132.41 172.68 C 133.50 172.78 134.46 171.98 134.55 170.89 L 134.65 169.88 C 134.74 168.79 133.95 167.83 132.86 167.74 C 131.78 167.64 130.82 168.44 130.72 169.52 Z M 130.63 170.53 L 130.53 171.57 C 130.43 172.65 131.22 173.61 132.31 173.71 C 133.39 173.82 134.35 173.02 134.45 171.94 L 134.55 170.90 C 134.66 169.82 133.86 168.86 132.78 168.75 C 131.69 168.65 130.73 169.45 130.63 170.53 Z M 130.53 171.55 L 130.43 172.56 C 130.32 173.64 131.11 174.61 132.19 174.72 C 133.28 174.83 134.24 174.04 134.35 172.96 L 134.45 171.95 C 134.56 170.87 133.77 169.90 132.69 169.79 C 131.61 169.68 130.64 170.47 130.53 171.55 Z M 130.43 172.54 L 130.33 173.50 C 130.21 174.58 130.99 175.56 132.07 175.68 C 133.15 175.80 134.13 175.02 134.25 173.93 L 134.35 172.98 C 134.47 171.89 133.69 170.92 132.61 170.80 C 131.52 170.68 130.55 171.46 130.43 172.54 Z M 130.33 173.47 L 130.20 174.50 C 130.07 175.58 130.83 176.56 131.92 176.70 C 133.00 176.83 133.98 176.07 134.12 174.98 L 134.24 173.96 C 134.38 172.88 133.61 171.89 132.53 171.76 C 131.45 171.63 130.46 172.39 130.33 173.47 Z M 130.21 174.46 L 130.06 175.49 C 129.91 176.57 130.66 177.57 131.74 177.72 C 132.82 177.87 133.81 177.12 133.97 176.04 L 134.11 175.02 C 134.27 173.94 133.51 172.94 132.44 172.79 C 131.36 172.63 130.36 173.39 130.21 174.46 Z M 130.06 175.46 L 129.92 176.39 C 129.75 177.47 130.49 178.48 131.56 178.65 C 132.64 178.81 133.65 178.08 133.82 177.00 L 133.96 176.07 C 134.13 174.99 133.39 173.98 132.32 173.82 C 131.24 173.65 130.23 174.39 130.06 175.46 Z M 129.92 176.38 L 129.76 177.36 C 129.59 178.44 130.32 179.45 131.39 179.63 C 132.47 179.80 133.48 179.07 133.66 178.00 L 133.82 177.01 C 133.99 175.94 133.26 174.92 132.19 174.75 C 131.11 174.57 130.10 175.30 129.92 176.38 Z M 129.76 177.35 L 129.59 178.35 C 129.41 179.42 130.14 180.44 131.21 180.62 C 132.29 180.81 133.30 180.08 133.49 179.01 L 133.66 178.01 C 133.84 176.93 133.11 175.91 132.04 175.73 C 130.96 175.55 129.94 176.28 129.76 177.35 Z M 129.60 178.33 L 129.43 179.26 C 129.23 180.33 129.95 181.36 131.02 181.55 C 132.09 181.75 133.12 181.03 133.31 179.96 L 133.48 179.03 C 133.68 177.96 132.97 176.93 131.89 176.74 C 130.82 176.54 129.79 177.25 129.60 178.33 Z M 129.44 179.21 L 129.24 180.17 C 129.02 181.24 129.71 182.28 130.78 182.50 C 131.84 182.72 132.89 182.03 133.11 180.97 L 133.30 180.01 C 133.52 178.94 132.84 177.89 131.77 177.68 C 130.70 177.46 129.66 178.14 129.44 179.21 Z M 129.25 180.11 L 129.02 181.09 C 128.76 182.15 129.41 183.22 130.47 183.48 C 131.53 183.73 132.60 183.08 132.85 182.02 L 133.09 181.03 C 133.35 179.97 132.70 178.90 131.64 178.65 C 130.58 178.39 129.51 179.05 129.25 180.11 Z M 129.03 181.03 L 128.77 181.99 C 128.47 183.04 129.09 184.13 130.14 184.42 C 131.19 184.71 132.28 184.10 132.57 183.05 L 132.84 182.08 C 133.13 181.03 132.51 179.94 131.46 179.65 C 130.41 179.36 129.32 179.98 129.03 181.03 Z M 128.79 181.90 L 128.48 182.86 C 128.13 183.90 128.69 185.01 129.73 185.36 C 130.76 185.70 131.88 185.14 132.22 184.10 L 132.54 183.14 C 132.89 182.10 132.33 180.99 131.29 180.64 C 130.25 180.30 129.14 180.86 128.79 181.90 Z M 128.55 182.66 L 128.09 183.69 C 127.63 184.68 128.07 185.85 129.06 186.31 C 130.06 186.76 131.23 186.32 131.68 185.33 L 132.15 184.30 C 132.60 183.31 132.16 182.14 131.17 181.69 C 130.18 181.23 129.01 181.67 128.55 182.66 Z M 128.56 183.05 L 127.94 183.62 C 127.13 184.35 127.07 185.59 127.80 186.40 C 128.53 187.20 129.78 187.26 130.58 186.53 L 131.20 185.97 C 132.01 185.24 132.07 183.99 131.34 183.19 C 130.61 182.38 129.36 182.32 128.56 183.05 Z M 130.06 183.31 L 129.32 182.97 C 128.35 182.53 127.20 182.96 126.76 183.93 C 126.31 184.90 126.74 186.05 127.71 186.50 L 128.45 186.84 C 129.43 187.28 130.57 186.85 131.02 185.88 C 131.46 184.91 131.04 183.76 130.06 183.31 Z M 129.86 183.42 L 129.23 182.78 C 128.51 182.04 127.32 182.02 126.58 182.75 C 125.83 183.48 125.82 184.67 126.55 185.41 L 127.17 186.05 C 127.90 186.79 129.09 186.80 129.83 186.08 C 130.57 185.35 130.58 184.16 129.86 183.42 Z"
      fill="black"
      fill-rule="nonzero" /><path d="M 112.10 158.50 L 113.06 158.83 C 114.14 159.21 115.32 158.64 115.69 157.56 C 116.07 156.48 115.50 155.30 114.42 154.92 L 113.47 154.59 C 112.39 154.21 111.21 154.78 110.83 155.86 C 110.45 156.94 111.02 158.12 112.10 158.50 Z M 113.24 158.89 L 114.20 159.12 C 115.31 159.40 116.43 158.72 116.71 157.61 C 116.98 156.50 116.30 155.38 115.20 155.10 L 114.24 154.87 C 113.13 154.59 112.01 155.27 111.73 156.38 C 111.46 157.49 112.13 158.61 113.24 158.89 Z M 114.56 159.16 L 115.52 159.22 C 116.65 159.30 117.63 158.44 117.70 157.31 C 117.78 156.18 116.92 155.21 115.79 155.13 L 114.83 155.07 C 113.70 154.99 112.73 155.85 112.65 156.98 C 112.58 158.11 113.43 159.08 114.56 159.16 Z M 115.81 159.18 L 116.83 159.10 C 117.94 159.01 118.76 158.05 118.67 156.94 C 118.59 155.84 117.62 155.01 116.52 155.10 L 115.50 155.18 C 114.39 155.26 113.57 156.23 113.66 157.33 C 113.74 158.44 114.71 159.26 115.81 159.18 Z M 116.95 159.05 L 117.91 158.91 C 118.99 158.75 119.73 157.76 119.58 156.68 C 119.43 155.60 118.43 154.86 117.35 155.01 L 116.39 155.15 C 115.32 155.30 114.57 156.30 114.73 157.38 C 114.88 158.45 115.88 159.20 116.95 159.05 Z M 117.95 158.87 L 118.95 158.70 C 120.01 158.52 120.72 157.52 120.54 156.47 C 120.36 155.42 119.36 154.71 118.31 154.88 L 117.31 155.05 C 116.26 155.23 115.55 156.23 115.72 157.28 C 115.90 158.34 116.90 159.05 117.95 158.87 Z M 118.96 158.67 L 119.98 158.49 C 121.02 158.31 121.71 157.32 121.53 156.28 C 121.35 155.25 120.36 154.55 119.33 154.74 L 118.30 154.92 C 117.26 155.10 116.57 156.08 116.75 157.12 C 116.93 158.16 117.92 158.85 118.96 158.67 Z M 119.97 158.46 L 120.98 158.29 C 122.00 158.12 122.69 157.15 122.51 156.13 C 122.34 155.10 121.37 154.42 120.35 154.59 L 119.34 154.76 C 118.32 154.93 117.63 155.90 117.80 156.93 C 117.98 157.95 118.95 158.64 119.97 158.46 Z M 120.95 158.27 L 121.92 158.12 C 122.93 157.96 123.62 157.02 123.47 156.01 C 123.31 155.00 122.36 154.30 121.35 154.46 L 120.38 154.61 C 119.37 154.77 118.67 155.72 118.83 156.73 C 118.99 157.74 119.93 158.43 120.95 158.27 Z M 121.87 158.10 L 122.88 157.97 C 123.88 157.84 124.59 156.93 124.46 155.92 C 124.33 154.92 123.41 154.21 122.41 154.34 L 121.40 154.48 C 120.40 154.60 119.69 155.52 119.82 156.52 C 119.95 157.53 120.87 158.23 121.87 158.10 Z M 122.83 157.96 L 123.82 157.86 C 124.81 157.76 125.54 156.87 125.44 155.87 C 125.33 154.87 124.44 154.15 123.44 154.25 L 122.46 154.35 C 121.46 154.46 120.74 155.35 120.84 156.35 C 120.94 157.34 121.84 158.07 122.83 157.96 Z M 123.80 157.85 L 124.37 157.80 C 125.36 157.71 126.09 156.83 126.00 155.84 C 125.90 154.84 125.02 154.12 124.03 154.21 L 123.46 154.26 C 122.47 154.35 121.74 155.23 121.83 156.22 C 121.93 157.22 122.81 157.95 123.80 157.85 Z"
      fill="black"
      fill-rule="nonzero" /><path d="M 113.74 171.29 L 114.68 171.27 C 115.77 171.25 116.63 170.35 116.60 169.27 C 116.58 168.19 115.69 167.33 114.61 167.35 L 113.66 167.37 C 112.58 167.39 111.72 168.29 111.74 169.37 C 111.76 170.45 112.66 171.31 113.74 171.29 Z M 115.25 171.26 L 116.23 170.95 C 117.30 170.62 117.90 169.48 117.57 168.40 C 117.23 167.33 116.09 166.73 115.01 167.06 L 114.04 167.36 C 112.96 167.70 112.36 168.84 112.70 169.92 C 113.03 170.99 114.18 171.59 115.25 171.26 Z M 116.65 170.78 L 117.53 170.27 C 118.51 169.71 118.84 168.45 118.28 167.47 C 117.71 166.49 116.45 166.15 115.47 166.72 L 114.59 167.23 C 113.61 167.80 113.28 169.06 113.84 170.04 C 114.41 171.02 115.67 171.35 116.65 170.78 Z M 117.66 170.15 L 118.50 169.56 C 119.42 168.92 119.64 167.66 119.00 166.75 C 118.36 165.83 117.10 165.61 116.18 166.25 L 115.34 166.84 C 114.43 167.48 114.20 168.74 114.84 169.66 C 115.49 170.57 116.75 170.79 117.66 170.15 Z M 118.54 169.48 L 119.35 168.87 C 120.22 168.20 120.39 166.96 119.73 166.09 C 119.06 165.22 117.82 165.05 116.95 165.72 L 116.14 166.33 C 115.27 166.99 115.10 168.24 115.77 169.11 C 116.43 169.98 117.67 170.15 118.54 169.48 Z M 119.36 168.80 L 120.09 168.21 C 120.93 167.54 121.06 166.33 120.39 165.49 C 119.73 164.66 118.51 164.53 117.68 165.19 L 116.94 165.78 C 116.11 166.45 115.97 167.67 116.64 168.50 C 117.31 169.33 118.53 169.47 119.36 168.80 Z M 120.08 168.16 L 120.85 167.53 C 121.66 166.87 121.78 165.68 121.12 164.88 C 120.46 164.07 119.27 163.95 118.46 164.61 L 117.69 165.24 C 116.88 165.90 116.77 167.09 117.43 167.90 C 118.09 168.70 119.27 168.82 120.08 168.16 Z M 120.85 167.49 L 121.62 166.84 C 122.40 166.18 122.50 165.01 121.84 164.23 C 121.18 163.45 120.01 163.35 119.23 164.01 L 118.46 164.66 C 117.68 165.32 117.58 166.48 118.24 167.26 C 118.90 168.04 120.07 168.14 120.85 167.49 Z M 121.62 166.80 L 122.38 166.14 C 123.14 165.48 123.22 164.33 122.56 163.57 C 121.90 162.81 120.75 162.72 119.99 163.39 L 119.23 164.05 C 118.47 164.71 118.39 165.86 119.05 166.62 C 119.71 167.38 120.86 167.46 121.62 166.80 Z M 122.39 166.11 L 123.14 165.45 C 123.89 164.78 123.95 163.64 123.29 162.89 C 122.63 162.15 121.48 162.08 120.74 162.74 L 119.99 163.41 C 119.24 164.07 119.17 165.22 119.84 165.96 C 120.50 166.71 121.64 166.78 122.39 166.11 Z M 123.15 165.43 L 123.89 164.76 C 124.62 164.10 124.68 162.96 124.01 162.22 C 123.35 161.48 122.21 161.42 121.47 162.09 L 120.73 162.76 C 119.99 163.43 119.93 164.57 120.60 165.30 C 121.27 166.04 122.41 166.10 123.15 165.43 Z M 123.89 164.75 L 124.63 164.08 C 125.36 163.41 125.42 162.27 124.74 161.54 C 124.07 160.80 122.93 160.75 122.20 161.42 L 121.46 162.10 C 120.73 162.77 120.68 163.91 121.35 164.64 C 122.02 165.38 123.16 165.43 123.89 164.75 Z M 124.64 164.07 L 125.37 163.40 C 126.10 162.72 126.15 161.59 125.47 160.85 C 124.80 160.12 123.66 160.08 122.93 160.75 L 122.20 161.43 C 121.46 162.10 121.42 163.24 122.09 163.97 C 122.77 164.70 123.90 164.75 124.64 164.07 Z M 125.37 163.40 L 125.94 162.87 C 126.67 162.19 126.72 161.06 126.04 160.33 C 125.37 159.60 124.23 159.55 123.50 160.23 L 122.93 160.75 C 122.20 161.43 122.15 162.56 122.83 163.29 C 123.50 164.03 124.64 164.07 125.37 163.40 Z"
      fill="black"
      fill-rule="nonzero" /><path d="M 139.54 139.56 L 140.49 140.01 C 141.53 140.51 142.76 140.07 143.26 139.03 C 143.75 138.00 143.32 136.76 142.28 136.27 L 141.33 135.81 C 140.30 135.32 139.06 135.76 138.57 136.79 C 138.07 137.83 138.51 139.06 139.54 139.56 Z M 140.44 140.03 L 141.34 140.48 C 142.38 141.00 143.65 140.58 144.18 139.54 C 144.70 138.50 144.28 137.23 143.24 136.70 L 142.34 136.25 C 141.29 135.73 140.02 136.15 139.50 137.19 C 138.97 138.23 139.40 139.50 140.44 140.03 Z M 141.24 140.47 L 142.06 140.93 C 143.10 141.51 144.41 141.14 144.99 140.11 C 145.57 139.07 145.20 137.76 144.17 137.18 L 143.34 136.72 C 142.30 136.14 140.99 136.51 140.41 137.54 C 139.83 138.58 140.20 139.89 141.24 140.47 Z M 141.89 140.85 L 142.72 141.42 C 143.71 142.09 145.06 141.84 145.74 140.85 C 146.42 139.87 146.16 138.52 145.18 137.84 L 144.34 137.27 C 143.35 136.59 142.00 136.84 141.33 137.83 C 140.65 138.82 140.90 140.17 141.89 140.85 Z M 142.51 141.26 L 143.24 141.90 C 144.14 142.70 145.51 142.62 146.31 141.72 C 147.11 140.82 147.02 139.44 146.12 138.65 L 145.39 138.00 C 144.49 137.20 143.12 137.28 142.32 138.18 C 141.52 139.08 141.60 140.46 142.51 141.26 Z M 143.07 141.74 L 143.74 142.49 C 144.56 143.38 145.94 143.44 146.83 142.63 C 147.72 141.82 147.78 140.44 146.97 139.55 L 146.29 138.80 C 145.48 137.91 144.10 137.85 143.21 138.66 C 142.32 139.47 142.25 140.85 143.07 141.74 Z M 143.65 142.38 L 144.28 143.18 C 145.03 144.13 146.41 144.29 147.35 143.54 C 148.30 142.78 148.46 141.41 147.71 140.46 L 147.07 139.66 C 146.32 138.71 144.94 138.56 144.00 139.31 C 143.05 140.06 142.89 141.43 143.65 142.38 Z M 144.22 143.10 L 144.80 143.91 C 145.50 144.89 146.87 145.12 147.85 144.41 C 148.84 143.71 149.06 142.34 148.36 141.36 L 147.77 140.55 C 147.07 139.56 145.70 139.34 144.72 140.04 C 143.74 140.75 143.51 142.12 144.22 143.10 Z M 144.73 143.81 L 145.28 144.67 C 145.93 145.69 147.29 145.99 148.31 145.34 C 149.33 144.69 149.62 143.33 148.97 142.31 L 148.42 141.45 C 147.77 140.43 146.42 140.14 145.40 140.79 C 144.38 141.44 144.08 142.79 144.73 143.81 Z M 145.20 144.54 L 145.65 145.37 C 146.23 146.43 147.56 146.82 148.62 146.25 C 149.69 145.67 150.08 144.34 149.50 143.27 L 149.05 142.45 C 148.47 141.38 147.14 140.99 146.08 141.57 C 145.02 142.14 144.62 143.48 145.20 144.54 Z M 145.59 145.25 L 146.01 146.15 C 146.53 147.24 147.84 147.71 148.93 147.20 C 150.03 146.68 150.50 145.38 149.98 144.28 L 149.56 143.39 C 149.05 142.29 147.74 141.82 146.64 142.34 C 145.55 142.85 145.08 144.16 145.59 145.25 Z M 145.98 146.08 L 146.38 147.01 C 146.86 148.12 148.15 148.63 149.26 148.16 C 150.37 147.68 150.89 146.39 150.41 145.28 L 150.01 144.35 C 149.54 143.24 148.25 142.72 147.13 143.20 C 146.02 143.68 145.51 144.97 145.98 146.08 Z M 146.36 146.95 L 146.72 147.87 C 147.17 148.99 148.44 149.54 149.57 149.09 C 150.69 148.64 151.24 147.37 150.79 146.24 L 150.43 145.33 C 149.98 144.21 148.71 143.66 147.58 144.10 C 146.46 144.55 145.91 145.83 146.36 146.95 Z M 146.69 147.79 L 147.03 148.75 C 147.44 149.90 148.69 150.49 149.83 150.09 C 150.97 149.68 151.57 148.43 151.17 147.29 L 150.82 146.32 C 150.42 145.18 149.17 144.58 148.03 144.99 C 146.89 145.39 146.29 146.64 146.69 147.79 Z M 147.01 148.66 L 147.30 149.61 C 147.65 150.77 148.87 151.42 150.03 151.07 C 151.19 150.72 151.84 149.49 151.49 148.33 L 151.20 147.38 C 150.84 146.23 149.62 145.57 148.46 145.93 C 147.31 146.28 146.65 147.50 147.01 148.66 Z M 147.28 149.53 L 147.53 150.50 C 147.84 151.67 149.03 152.37 150.20 152.07 C 151.37 151.76 152.07 150.56 151.76 149.40 L 151.51 148.42 C 151.20 147.25 150.01 146.55 148.84 146.86 C 147.67 147.16 146.97 148.36 147.28 149.53 Z M 147.51 150.42 L 147.73 151.40 C 147.99 152.58 149.15 153.32 150.33 153.07 C 151.51 152.81 152.25 151.64 151.99 150.47 L 151.78 149.48 C 151.52 148.31 150.36 147.56 149.18 147.82 C 148.00 148.08 147.26 149.24 147.51 150.42 Z M 147.72 151.32 L 147.89 152.30 C 148.10 153.48 149.24 154.27 150.42 154.06 C 151.61 153.84 152.39 152.71 152.18 151.53 L 152.01 150.55 C 151.79 149.36 150.66 148.58 149.48 148.79 C 148.29 149.00 147.51 150.13 147.72 151.32 Z M 147.89 152.23 L 148.03 153.21 C 148.20 154.39 149.31 155.22 150.50 155.04 C 151.68 154.87 152.51 153.76 152.33 152.58 L 152.19 151.60 C 152.01 150.41 150.91 149.59 149.72 149.76 C 148.53 149.94 147.71 151.04 147.89 152.23 Z M 148.03 153.14 L 148.14 154.12 C 148.28 155.31 149.35 156.17 150.54 156.03 C 151.73 155.89 152.58 154.82 152.45 153.63 L 152.33 152.64 C 152.20 151.45 151.12 150.60 149.93 150.74 C 148.74 150.88 147.89 151.95 148.03 153.14 Z M 148.14 154.04 L 148.22 155.05 C 148.31 156.24 149.34 157.13 150.53 157.04 C 151.72 156.95 152.61 155.92 152.52 154.73 L 152.45 153.71 C 152.36 152.53 151.32 151.63 150.13 151.72 C 148.94 151.81 148.05 152.85 148.14 154.04 Z M 148.22 154.96 L 148.25 155.95 C 148.30 157.14 149.29 158.07 150.48 158.02 C 151.67 157.98 152.60 156.99 152.55 155.80 L 152.52 154.82 C 152.48 153.63 151.48 152.70 150.30 152.74 C 149.11 152.78 148.18 153.78 148.22 154.96 Z M 148.26 155.89 L 148.27 156.90 C 148.28 158.08 149.25 159.03 150.43 159.02 C 151.62 159.01 152.57 158.04 152.56 156.86 L 152.55 155.86 C 152.54 154.67 151.57 153.72 150.39 153.73 C 149.20 153.74 148.25 154.71 148.26 155.89 Z M 148.28 156.88 L 148.28 157.89 C 148.28 159.06 149.24 160.02 150.41 160.02 C 151.59 160.02 152.55 159.06 152.55 157.88 L 152.55 156.88 C 152.55 155.70 151.59 154.75 150.41 154.75 C 149.24 154.75 148.28 155.70 148.28 156.88 Z M 148.30 157.88 L 148.29 158.88 C 148.29 160.05 149.24 161.00 150.41 161.00 C 151.58 161.00 152.53 160.06 152.53 158.89 L 152.53 157.89 C 152.54 156.72 151.59 155.77 150.42 155.77 C 149.25 155.76 148.30 156.71 148.30 157.88 Z M 148.31 158.87 L 148.30 159.87 C 148.29 161.03 149.23 161.98 150.39 161.99 C 151.55 162.00 152.50 161.07 152.51 159.91 L 152.52 158.90 C 152.52 157.74 151.59 156.79 150.43 156.78 C 149.27 156.77 148.32 157.70 148.31 158.87 Z M 148.32 159.85 L 148.30 160.82 C 148.28 161.97 149.19 162.93 150.35 162.95 C 151.50 162.97 152.45 162.05 152.47 160.90 L 152.49 159.93 C 152.51 158.77 151.60 157.82 150.44 157.80 C 149.29 157.78 148.34 158.70 148.32 159.85 Z M 148.32 160.77 L 148.28 161.76 C 148.23 162.91 149.12 163.87 150.26 163.92 C 151.40 163.97 152.36 163.08 152.41 161.94 L 152.45 160.95 C 152.50 159.81 151.61 158.84 150.47 158.80 C 149.33 158.75 148.37 159.63 148.32 160.77 Z M 148.30 161.69 L 148.22 162.72 C 148.13 163.85 148.97 164.83 150.10 164.93 C 151.22 165.02 152.21 164.18 152.30 163.05 L 152.39 162.02 C 152.48 160.89 151.64 159.90 150.51 159.81 C 149.38 159.72 148.39 160.56 148.30 161.69 Z M 148.25 162.64 L 148.13 163.62 C 147.99 164.73 148.78 165.74 149.89 165.88 C 151.01 166.01 152.02 165.22 152.15 164.11 L 152.27 163.13 C 152.41 162.02 151.62 161.01 150.51 160.87 C 149.40 160.73 148.38 161.52 148.25 162.64 Z M 148.16 163.55 L 148.00 164.55 C 147.83 165.65 148.58 166.68 149.68 166.85 C 150.77 167.02 151.80 166.27 151.97 165.17 L 152.13 164.17 C 152.30 163.08 151.55 162.05 150.45 161.88 C 149.35 161.71 148.33 162.46 148.16 163.55 Z M 148.03 164.50 L 147.85 165.49 C 147.65 166.57 148.36 167.61 149.44 167.81 C 150.52 168.00 151.56 167.29 151.76 166.21 L 151.94 165.22 C 152.14 164.14 151.42 163.11 150.34 162.91 C 149.27 162.71 148.23 163.42 148.03 164.50 Z M 147.88 165.44 L 147.66 166.45 C 147.44 167.52 148.12 168.56 149.19 168.79 C 150.25 169.01 151.29 168.33 151.52 167.26 L 151.73 166.26 C 151.95 165.19 151.27 164.15 150.21 163.92 C 149.14 163.70 148.10 164.38 147.88 165.44 Z M 147.69 166.42 L 147.46 167.38 C 147.22 168.44 147.87 169.49 148.92 169.73 C 149.97 169.98 151.02 169.32 151.27 168.27 L 151.49 167.30 C 151.74 166.25 151.09 165.20 150.03 164.96 C 148.98 164.71 147.93 165.36 147.69 166.42 Z M 147.49 167.36 L 147.25 168.30 C 146.99 169.34 147.62 170.39 148.66 170.65 C 149.69 170.91 150.75 170.28 151.01 169.24 L 151.24 168.30 C 151.50 167.26 150.87 166.21 149.84 165.95 C 148.80 165.69 147.75 166.32 147.49 167.36 Z M 147.26 168.28 L 147.00 169.26 C 146.73 170.29 147.35 171.35 148.38 171.62 C 149.41 171.89 150.47 171.27 150.74 170.24 L 150.99 169.27 C 151.27 168.23 150.65 167.18 149.62 166.91 C 148.59 166.64 147.53 167.25 147.26 168.28 Z M 147.01 169.24 L 146.74 170.20 C 146.46 171.23 147.06 172.29 148.09 172.57 C 149.12 172.86 150.18 172.26 150.47 171.23 L 150.73 170.27 C 151.02 169.24 150.41 168.18 149.38 167.89 C 148.36 167.61 147.29 168.21 147.01 169.24 Z M 146.75 170.17 L 146.47 171.13 C 146.17 172.16 146.76 173.23 147.78 173.53 C 148.81 173.83 149.88 173.24 150.18 172.22 L 150.46 171.25 C 150.76 170.23 150.17 169.16 149.15 168.86 C 148.12 168.56 147.05 169.15 146.75 170.17 Z M 146.47 171.11 L 146.17 172.08 C 145.86 173.10 146.43 174.18 147.46 174.50 C 148.48 174.81 149.56 174.24 149.87 173.22 L 150.17 172.24 C 150.49 171.22 149.91 170.14 148.89 169.82 C 147.87 169.51 146.79 170.08 146.47 171.11 Z M 146.18 172.05 L 145.88 172.99 C 145.55 174.01 146.11 175.10 147.13 175.43 C 148.15 175.76 149.24 175.20 149.57 174.18 L 149.87 173.24 C 150.20 172.22 149.64 171.13 148.62 170.80 C 147.60 170.47 146.51 171.03 146.18 172.05 Z M 145.89 172.97 L 145.56 173.94 C 145.22 174.96 145.77 176.06 146.78 176.40 C 147.80 176.74 148.90 176.19 149.24 175.17 L 149.56 174.20 C 149.90 173.18 149.36 172.08 148.34 171.74 C 147.32 171.40 146.23 171.95 145.89 172.97 Z M 145.57 173.93 L 145.25 174.86 C 144.90 175.87 145.43 176.97 146.44 177.32 C 147.45 177.67 148.55 177.13 148.90 176.13 L 149.22 175.19 C 149.57 174.18 149.04 173.08 148.03 172.73 C 147.02 172.38 145.92 172.92 145.57 173.93 Z M 145.27 174.85 L 144.93 175.79 C 144.58 176.78 145.10 177.88 146.09 178.24 C 147.09 178.59 148.19 178.07 148.54 177.08 L 148.88 176.14 C 149.23 175.14 148.71 174.04 147.72 173.69 C 146.72 173.33 145.62 173.85 145.27 174.85 Z M 144.96 175.77 L 144.61 176.70 C 144.25 177.69 144.75 178.78 145.73 179.15 C 146.72 179.51 147.81 179.01 148.18 178.02 L 148.52 177.09 C 148.88 176.11 148.38 175.01 147.40 174.65 C 146.41 174.29 145.32 174.79 144.96 175.77 Z M 144.64 176.67 L 144.27 177.60 C 143.89 178.56 144.36 179.66 145.33 180.04 C 146.29 180.43 147.39 179.96 147.77 178.99 L 148.14 178.06 C 148.53 177.10 148.06 176.00 147.09 175.62 C 146.12 175.23 145.03 175.70 144.64 176.67 Z M 144.35 177.48 L 143.91 178.36 C 143.46 179.29 143.85 180.40 144.77 180.86 C 145.70 181.31 146.82 180.92 147.27 180.00 L 147.70 179.11 C 148.15 178.18 147.77 177.07 146.84 176.62 C 145.91 176.16 144.80 176.55 144.35 177.48 Z M 144.11 178.06 L 143.50 178.87 C 142.88 179.68 143.04 180.85 143.86 181.46 C 144.68 182.08 145.84 181.92 146.46 181.11 L 147.07 180.30 C 147.69 179.48 147.53 178.32 146.71 177.70 C 145.89 177.08 144.73 177.24 144.11 178.06 Z M 144.20 178.32 L 143.36 178.71 C 142.44 179.14 142.04 180.24 142.47 181.16 C 142.90 182.08 144.00 182.48 144.92 182.05 L 145.76 181.65 C 146.68 181.22 147.08 180.13 146.65 179.21 C 146.22 178.28 145.12 177.89 144.20 178.32 Z M 144.18 178.55 L 143.17 178.53 C 142.16 178.51 141.33 179.31 141.31 180.32 C 141.29 181.32 142.08 182.16 143.09 182.18 L 144.10 182.20 C 145.11 182.22 145.94 181.42 145.96 180.42 C 145.99 179.41 145.19 178.58 144.18 178.55 Z M 143.34 178.56 L 143.09 178.53 C 142.10 178.42 141.20 179.13 141.09 180.12 C 140.98 181.11 141.69 182.01 142.68 182.13 L 142.93 182.15 C 143.92 182.27 144.81 181.55 144.93 180.56 C 145.04 179.57 144.33 178.67 143.34 178.56 Z"
      fill="black"
      fill-rule="nonzero" /><path d="M 136.47 154.69 L 136.54 155.72 C 136.60 156.78 137.52 157.58 138.58 157.51 C 139.63 157.44 140.44 156.53 140.37 155.47 L 140.30 154.44 C 140.23 153.38 139.32 152.58 138.26 152.65 C 137.21 152.72 136.40 153.63 136.47 154.69 Z M 136.95 157.05 L 137.54 157.66 C 138.34 158.49 139.67 158.51 140.50 157.71 C 141.33 156.90 141.35 155.58 140.55 154.75 L 139.96 154.14 C 139.15 153.31 137.83 153.29 137.00 154.09 C 136.17 154.90 136.14 156.22 136.95 157.05 Z M 138.59 158.29 L 139.61 158.51 C 140.77 158.76 141.90 158.03 142.15 156.87 C 142.40 155.72 141.66 154.59 140.51 154.34 L 139.49 154.12 C 138.34 153.87 137.20 154.60 136.96 155.76 C 136.71 156.91 137.44 158.04 138.59 158.29 Z M 139.85 158.51 L 140.82 158.61 C 141.97 158.72 143.00 157.88 143.12 156.73 C 143.23 155.58 142.39 154.55 141.24 154.44 L 140.27 154.34 C 139.12 154.22 138.09 155.06 137.98 156.21 C 137.86 157.37 138.70 158.39 139.85 158.51 Z M 140.92 158.55 L 141.95 158.61 C 143.07 158.67 144.03 157.82 144.09 156.69 C 144.16 155.57 143.30 154.61 142.18 154.55 L 141.15 154.49 C 140.02 154.43 139.06 155.29 139.00 156.41 C 138.94 157.53 139.80 158.49 140.92 158.55 Z M 142.02 158.56 L 142.98 158.58 C 144.08 158.60 144.98 157.73 145.01 156.64 C 145.03 155.55 144.16 154.64 143.07 154.62 L 142.10 154.60 C 141.01 154.58 140.10 155.44 140.08 156.54 C 140.06 157.63 140.93 158.54 142.02 158.56 Z M 143.01 158.54 L 144.04 158.54 C 145.12 158.55 145.99 157.69 145.99 156.61 C 146.00 155.54 145.14 154.67 144.06 154.66 L 143.03 154.66 C 141.96 154.65 141.09 155.52 141.08 156.59 C 141.08 157.66 141.94 158.53 143.01 158.54 Z M 144.05 158.50 L 145.09 158.50 C 146.14 158.50 146.99 157.65 146.99 156.61 C 146.99 155.56 146.14 154.71 145.09 154.71 L 144.05 154.71 C 143.01 154.71 142.16 155.56 142.16 156.60 C 142.16 157.65 143.01 158.50 144.05 158.50 Z M 145.09 158.46 L 146.09 158.46 C 147.12 158.46 147.95 157.63 147.95 156.60 C 147.95 155.58 147.12 154.75 146.09 154.75 L 145.09 154.75 C 144.06 154.75 143.23 155.58 143.23 156.60 C 143.23 157.63 144.06 158.46 145.09 158.46 Z M 146.09 158.43 L 146.98 158.43 C 147.98 158.43 148.80 157.61 148.80 156.60 C 148.80 155.60 147.98 154.78 146.98 154.78 L 146.09 154.78 C 145.09 154.78 144.27 155.60 144.27 156.60 C 144.27 157.61 145.09 158.43 146.09 158.43 Z"
      fill="black"
      fill-rule="nonzero" /><path d="M 136.37 166.03 L 136.03 167.13 C 135.70 168.21 136.32 169.36 137.40 169.69 C 138.48 170.02 139.63 169.41 139.96 168.33 L 140.30 167.23 C 140.63 166.14 140.02 164.99 138.93 164.66 C 137.85 164.33 136.70 164.94 136.37 166.03 Z M 135.91 167.81 L 135.94 168.61 C 135.99 169.76 136.96 170.66 138.11 170.61 C 139.27 170.56 140.17 169.59 140.12 168.44 L 140.09 167.64 C 140.04 166.49 139.07 165.59 137.91 165.64 C 136.76 165.69 135.86 166.66 135.91 167.81 Z M 137.60 170.60 L 138.49 170.78 C 139.64 171.02 140.76 170.28 140.99 169.13 C 141.23 167.99 140.49 166.87 139.34 166.63 L 138.46 166.45 C 137.31 166.21 136.19 166.95 135.95 168.09 C 135.72 169.24 136.46 170.36 137.60 170.60 Z M 139.57 170.73 L 140.51 170.42 C 141.63 170.06 142.24 168.86 141.88 167.74 C 141.51 166.63 140.31 166.01 139.20 166.38 L 138.26 166.68 C 137.14 167.04 136.53 168.24 136.89 169.36 C 137.26 170.48 138.46 171.09 139.57 170.73 Z M 140.83 170.29 L 141.75 169.81 C 142.79 169.27 143.20 167.99 142.66 166.95 C 142.12 165.91 140.84 165.50 139.80 166.04 L 138.88 166.52 C 137.84 167.06 137.43 168.34 137.97 169.38 C 138.51 170.42 139.79 170.82 140.83 170.29 Z M 141.84 169.73 L 142.74 169.20 C 143.73 168.61 144.06 167.33 143.47 166.33 C 142.89 165.34 141.60 165.01 140.61 165.59 L 139.71 166.12 C 138.72 166.71 138.38 167.99 138.97 168.99 C 139.56 169.98 140.84 170.31 141.84 169.73 Z M 142.74 169.12 L 143.61 168.59 C 144.57 168.00 144.86 166.74 144.27 165.79 C 143.68 164.83 142.43 164.53 141.47 165.13 L 140.60 165.66 C 139.65 166.25 139.35 167.51 139.94 168.46 C 140.53 169.42 141.79 169.72 142.74 169.12 Z M 143.60 168.52 L 144.47 167.96 C 145.38 167.37 145.65 166.15 145.06 165.24 C 144.47 164.32 143.26 164.06 142.34 164.64 L 141.48 165.20 C 140.56 165.79 140.29 167.01 140.88 167.92 C 141.47 168.84 142.69 169.10 143.60 168.52 Z M 144.47 167.88 L 145.27 167.34 C 146.14 166.75 146.37 165.57 145.78 164.70 C 145.19 163.83 144.01 163.60 143.14 164.19 L 142.34 164.73 C 141.47 165.32 141.24 166.50 141.83 167.36 C 142.42 168.23 143.60 168.46 144.47 167.88 Z M 145.28 167.26 L 146.05 166.71 C 146.88 166.12 147.08 164.97 146.48 164.14 C 145.89 163.31 144.74 163.11 143.91 163.71 L 143.13 164.26 C 142.30 164.85 142.11 166.01 142.70 166.83 C 143.30 167.66 144.45 167.86 145.28 167.26 Z M 146.07 166.67 L 146.88 166.06 C 147.69 165.46 147.85 164.32 147.25 163.51 C 146.65 162.70 145.51 162.54 144.70 163.14 L 143.89 163.75 C 143.09 164.35 142.92 165.49 143.52 166.30 C 144.13 167.11 145.27 167.27 146.07 166.67 Z M 146.89 166.04 L 147.68 165.44 C 148.47 164.83 148.62 163.70 148.01 162.90 C 147.41 162.11 146.27 161.96 145.47 162.56 L 144.69 163.16 C 143.90 163.77 143.75 164.91 144.35 165.70 C 144.96 166.50 146.10 166.65 146.89 166.04 Z M 147.66 165.45 L 148.47 164.85 C 149.27 164.25 149.43 163.12 148.83 162.32 C 148.24 161.52 147.10 161.35 146.30 161.95 L 145.49 162.55 C 144.70 163.15 144.53 164.28 145.13 165.08 C 145.72 165.88 146.86 166.05 147.66 165.45 Z M 148.44 164.86 L 149.24 164.28 C 150.05 163.70 150.24 162.58 149.66 161.77 C 149.08 160.96 147.95 160.77 147.14 161.35 L 146.33 161.93 C 145.52 162.51 145.34 163.64 145.92 164.45 C 146.50 165.26 147.63 165.44 148.44 164.86 Z M 149.24 164.29 L 150.06 163.70 C 150.87 163.12 151.06 162.00 150.48 161.19 C 149.90 160.38 148.78 160.19 147.97 160.77 L 147.15 161.35 C 146.34 161.93 146.15 163.05 146.73 163.86 C 147.30 164.67 148.43 164.86 149.24 164.29 Z M 150.07 163.69 L 150.88 163.11 C 151.68 162.53 151.87 161.40 151.28 160.60 C 150.70 159.79 149.58 159.61 148.77 160.19 L 147.96 160.77 C 147.15 161.35 146.97 162.48 147.55 163.29 C 148.13 164.09 149.26 164.28 150.07 163.69 Z M 150.88 163.11 L 151.47 162.68 C 152.27 162.10 152.46 160.97 151.87 160.17 C 151.29 159.36 150.16 159.18 149.36 159.76 L 148.77 160.19 C 147.96 160.77 147.78 161.90 148.37 162.70 C 148.95 163.51 150.07 163.69 150.88 163.11 Z"
      fill="black"
      fill-rule="nonzero" /><path d="M 172.88 132.19 L 173.35 131.16 C 173.81 130.16 173.37 128.98 172.37 128.52 C 171.37 128.06 170.19 128.50 169.73 129.50 L 169.26 130.52 C 168.80 131.52 169.24 132.71 170.24 133.17 C 171.24 133.62 172.42 133.19 172.88 132.19 Z M 169.64 131.42 L 169.86 131.81 C 170.46 132.86 171.80 133.22 172.85 132.62 C 173.91 132.02 174.27 130.68 173.67 129.63 L 173.44 129.23 C 172.84 128.18 171.50 127.82 170.45 128.42 C 169.40 129.03 169.03 130.37 169.64 131.42 Z M 169.44 130.58 L 169.37 131.78 C 169.29 133.07 170.27 134.17 171.55 134.24 C 172.84 134.32 173.94 133.34 174.01 132.06 L 174.09 130.85 C 174.16 129.57 173.18 128.47 171.90 128.39 C 170.62 128.32 169.52 129.30 169.44 130.58 Z M 169.37 131.35 L 169.14 132.27 C 168.83 133.55 169.61 134.85 170.89 135.17 C 172.17 135.48 173.46 134.70 173.78 133.42 L 174.01 132.50 C 174.33 131.22 173.55 129.92 172.27 129.60 C 170.99 129.29 169.69 130.07 169.37 131.35 Z M 169.21 132.02 L 168.85 133.00 C 168.39 134.24 169.03 135.62 170.27 136.08 C 171.52 136.54 172.90 135.90 173.36 134.66 L 173.72 133.68 C 174.18 132.43 173.54 131.05 172.29 130.59 C 171.05 130.14 169.66 130.77 169.21 132.02 Z M 168.89 132.87 L 168.48 133.81 C 167.95 135.03 168.51 136.45 169.73 136.98 C 170.95 137.52 172.38 136.95 172.91 135.73 L 173.32 134.79 C 173.85 133.57 173.29 132.14 172.06 131.61 C 170.84 131.08 169.42 131.64 168.89 132.87 Z M 168.50 133.74 L 168.07 134.67 C 167.50 135.88 168.02 137.32 169.23 137.89 C 170.45 138.46 171.89 137.93 172.45 136.72 L 172.89 135.79 C 173.45 134.58 172.93 133.14 171.72 132.57 C 170.51 132.01 169.06 132.53 168.50 133.74 Z M 168.08 134.64 L 167.64 135.54 C 167.05 136.75 167.56 138.20 168.76 138.78 C 169.97 139.37 171.42 138.87 172.01 137.66 L 172.44 136.75 C 173.03 135.55 172.52 134.10 171.32 133.51 C 170.11 132.93 168.66 133.43 168.08 134.64 Z M 167.65 135.53 L 167.20 136.44 C 166.60 137.64 167.10 139.10 168.30 139.69 C 169.50 140.28 170.95 139.79 171.55 138.59 L 172.00 137.67 C 172.59 136.47 172.10 135.02 170.89 134.43 C 169.69 133.83 168.24 134.33 167.65 135.53 Z M 167.21 136.43 L 166.79 137.27 C 166.20 138.46 166.68 139.91 167.87 140.51 C 169.07 141.11 170.52 140.62 171.11 139.43 L 171.53 138.59 C 172.13 137.40 171.64 135.95 170.45 135.35 C 169.26 134.76 167.81 135.24 167.21 136.43 Z M 166.82 137.27 L 166.37 138.16 C 165.78 139.34 166.25 140.77 167.43 141.37 C 168.60 141.96 170.04 141.49 170.63 140.32 L 171.08 139.43 C 171.68 138.25 171.21 136.82 170.03 136.22 C 168.85 135.63 167.42 136.10 166.82 137.27 Z M 166.42 138.16 L 165.96 139.04 C 165.36 140.19 165.81 141.60 166.96 142.20 C 168.11 142.80 169.53 142.35 170.13 141.20 L 170.59 140.32 C 171.19 139.17 170.74 137.75 169.59 137.15 C 168.44 136.56 167.02 137.00 166.42 138.16 Z M 166.01 139.02 L 165.54 139.91 C 164.93 141.03 165.35 142.43 166.48 143.03 C 167.60 143.64 169.00 143.22 169.61 142.09 L 170.08 141.21 C 170.68 140.09 170.26 138.69 169.14 138.08 C 168.02 137.48 166.62 137.90 166.01 139.02 Z M 165.59 139.90 L 165.10 140.77 C 164.49 141.86 164.89 143.25 165.98 143.86 C 167.08 144.47 168.46 144.07 169.07 142.98 L 169.56 142.10 C 170.17 141.01 169.77 139.62 168.68 139.01 C 167.58 138.40 166.20 138.80 165.59 139.90 Z M 165.14 140.76 L 164.65 141.63 C 164.04 142.70 164.41 144.07 165.48 144.68 C 166.56 145.30 167.92 144.92 168.54 143.85 L 169.03 142.98 C 169.64 141.91 169.27 140.54 168.20 139.93 C 167.12 139.31 165.76 139.69 165.14 140.76 Z M 164.68 141.64 L 164.18 142.51 C 163.57 143.56 163.93 144.91 164.99 145.52 C 166.04 146.13 167.39 145.77 168.00 144.71 L 168.50 143.84 C 169.11 142.79 168.75 141.44 167.70 140.83 C 166.64 140.22 165.29 140.58 164.68 141.64 Z M 164.21 142.51 L 163.71 143.37 C 163.11 144.41 163.46 145.74 164.49 146.35 C 165.53 146.95 166.86 146.60 167.47 145.56 L 167.97 144.71 C 168.57 143.67 168.22 142.34 167.19 141.73 C 166.15 141.13 164.82 141.48 164.21 142.51 Z M 163.74 143.38 L 163.22 144.26 C 162.62 145.28 162.96 146.59 163.98 147.19 C 165.00 147.80 166.32 147.46 166.92 146.44 L 167.44 145.56 C 168.04 144.54 167.70 143.22 166.68 142.62 C 165.66 142.02 164.34 142.36 163.74 143.38 Z M 163.25 144.26 L 162.75 145.09 C 162.15 146.10 162.48 147.40 163.49 148.00 C 164.49 148.60 165.79 148.27 166.39 147.27 L 166.89 146.43 C 167.49 145.43 167.16 144.13 166.16 143.53 C 165.15 142.93 163.85 143.25 163.25 144.26 Z M 162.78 145.10 L 162.26 145.96 C 161.66 146.95 161.98 148.23 162.97 148.83 C 163.95 149.43 165.24 149.12 165.84 148.13 L 166.36 147.26 C 166.96 146.28 166.64 144.99 165.66 144.39 C 164.67 143.79 163.38 144.11 162.78 145.10 Z M 162.29 145.97 L 161.76 146.83 C 161.16 147.81 161.47 149.08 162.44 149.67 C 163.41 150.27 164.68 149.96 165.28 148.99 L 165.81 148.12 C 166.41 147.15 166.10 145.88 165.13 145.28 C 164.16 144.69 162.88 144.99 162.29 145.97 Z M 161.79 146.84 L 161.26 147.70 C 160.66 148.66 160.96 149.91 161.91 150.50 C 162.87 151.09 164.12 150.80 164.72 149.84 L 165.25 148.98 C 165.84 148.03 165.54 146.77 164.59 146.18 C 163.63 145.59 162.38 145.89 161.79 146.84 Z M 161.29 147.71 L 160.76 148.55 C 160.17 149.49 160.45 150.73 161.39 151.31 C 162.33 151.90 163.56 151.62 164.15 150.68 L 164.68 149.84 C 165.27 148.90 164.99 147.66 164.05 147.07 C 163.11 146.49 161.88 146.77 161.29 147.71 Z M 160.80 148.56 L 160.24 149.43 C 159.65 150.35 159.92 151.56 160.84 152.15 C 161.76 152.73 162.97 152.47 163.56 151.55 L 164.12 150.68 C 164.70 149.76 164.43 148.54 163.52 147.96 C 162.60 147.37 161.38 147.64 160.80 148.56 Z M 160.28 149.43 L 159.74 150.27 C 159.15 151.17 159.41 152.36 160.30 152.94 C 161.20 153.53 162.39 153.27 162.98 152.38 L 163.52 151.54 C 164.10 150.65 163.85 149.45 162.95 148.87 C 162.06 148.29 160.86 148.54 160.28 149.43 Z M 159.77 150.28 L 159.23 151.10 C 158.66 151.98 158.90 153.15 159.77 153.73 C 160.65 154.30 161.82 154.06 162.40 153.19 L 162.94 152.37 C 163.52 151.49 163.27 150.32 162.40 149.74 C 161.53 149.16 160.35 149.41 159.77 150.28 Z M 159.26 151.11 L 158.70 151.96 C 158.13 152.81 158.36 153.97 159.21 154.54 C 160.07 155.12 161.23 154.89 161.80 154.03 L 162.37 153.18 C 162.94 152.32 162.71 151.17 161.85 150.59 C 161.00 150.02 159.84 150.25 159.26 151.11 Z M 158.73 151.95 L 158.19 152.75 C 157.61 153.59 157.83 154.73 158.67 155.30 C 159.50 155.88 160.65 155.66 161.22 154.83 L 161.77 154.03 C 162.34 153.19 162.13 152.05 161.29 151.48 C 160.45 150.90 159.31 151.12 158.73 151.95 Z M 158.22 152.73 L 157.65 153.54 C 157.06 154.35 157.25 155.49 158.07 156.08 C 158.89 156.66 160.03 156.47 160.61 155.65 L 161.19 154.85 C 161.77 154.03 161.58 152.89 160.76 152.31 C 159.94 151.72 158.81 151.91 158.22 152.73 Z M 157.68 153.50 L 157.09 154.29 C 156.48 155.09 156.64 156.23 157.44 156.83 C 158.24 157.43 159.37 157.28 159.97 156.48 L 160.57 155.69 C 161.18 154.89 161.02 153.75 160.22 153.15 C 159.42 152.55 158.29 152.70 157.68 153.50 Z M 157.12 154.27 L 156.50 155.04 C 155.88 155.82 156.01 156.96 156.80 157.58 C 157.58 158.20 158.71 158.06 159.33 157.28 L 159.94 156.51 C 160.56 155.72 160.43 154.59 159.65 153.97 C 158.87 153.35 157.73 153.48 157.12 154.27 Z M 156.51 155.03 L 155.94 155.74 C 155.32 156.51 155.44 157.64 156.22 158.27 C 156.99 158.89 158.12 158.77 158.75 158.00 L 159.32 157.29 C 159.94 156.52 159.82 155.38 159.05 154.76 C 158.27 154.14 157.14 154.26 156.51 155.03 Z"
      fill="black"
      fill-rule="nonzero" /><path d="M 170.61 135.08 L 171.38 135.69 C 172.35 136.45 173.74 136.28 174.50 135.32 C 175.26 134.36 175.10 132.96 174.13 132.20 L 173.36 131.59 C 172.40 130.83 171.00 130.99 170.24 131.96 C 169.48 132.92 169.65 134.32 170.61 135.08 Z M 171.49 135.84 L 172.32 136.40 C 173.37 137.10 174.79 136.81 175.49 135.76 C 176.19 134.71 175.91 133.29 174.85 132.59 L 174.03 132.04 C 172.97 131.34 171.56 131.63 170.86 132.68 C 170.16 133.73 170.44 135.15 171.49 135.84 Z M 172.51 136.55 L 173.36 136.99 C 174.49 137.58 175.89 137.15 176.49 136.01 C 177.08 134.88 176.64 133.48 175.51 132.88 L 174.66 132.44 C 173.53 131.85 172.13 132.29 171.53 133.42 C 170.94 134.55 171.38 135.95 172.51 136.55 Z M 173.46 137.05 L 174.42 137.49 C 175.59 138.03 176.97 137.52 177.50 136.36 C 178.04 135.19 177.54 133.81 176.37 133.28 L 175.41 132.83 C 174.24 132.29 172.86 132.80 172.33 133.96 C 171.79 135.13 172.29 136.51 173.46 137.05 Z M 174.44 137.50 L 175.38 137.93 C 176.55 138.45 177.92 137.93 178.45 136.76 C 178.98 135.59 178.46 134.22 177.29 133.69 L 176.35 133.26 C 175.18 132.74 173.81 133.26 173.28 134.43 C 172.75 135.60 173.27 136.97 174.44 137.50 Z M 175.39 137.93 L 176.30 138.34 C 177.47 138.86 178.85 138.34 179.37 137.17 C 179.90 135.99 179.37 134.62 178.20 134.09 L 177.28 133.68 C 176.11 133.16 174.74 133.69 174.21 134.86 C 173.69 136.03 174.21 137.41 175.39 137.93 Z M 176.31 138.35 L 177.27 138.77 C 178.45 139.28 179.82 138.75 180.34 137.57 C 180.85 136.39 180.32 135.02 179.14 134.50 L 178.18 134.08 C 177.01 133.57 175.63 134.10 175.12 135.28 C 174.60 136.46 175.14 137.83 176.31 138.35 Z M 177.28 138.77 L 178.13 139.15 C 179.31 139.66 180.69 139.12 181.20 137.94 C 181.71 136.75 181.17 135.38 179.99 134.87 L 179.13 134.50 C 177.95 133.98 176.58 134.53 176.07 135.71 C 175.55 136.89 176.09 138.26 177.28 138.77 Z M 178.12 139.13 L 179.02 139.54 C 180.20 140.06 181.57 139.53 182.09 138.35 C 182.61 137.18 182.08 135.80 180.91 135.28 L 180.01 134.88 C 178.83 134.36 177.46 134.89 176.93 136.06 C 176.41 137.24 176.94 138.61 178.12 139.13 Z M 179.05 139.53 L 179.90 139.90 C 181.07 140.41 182.43 139.87 182.94 138.70 C 183.45 137.53 182.91 136.17 181.74 135.66 L 180.88 135.29 C 179.71 134.78 178.35 135.32 177.85 136.49 C 177.34 137.66 177.87 139.02 179.05 139.53 Z M 179.94 139.89 L 180.78 140.24 C 181.95 140.72 183.28 140.17 183.77 139.00 C 184.25 137.84 183.70 136.50 182.54 136.02 L 181.70 135.67 C 180.53 135.19 179.20 135.74 178.71 136.90 C 178.23 138.07 178.78 139.40 179.94 139.89 Z M 180.79 140.20 L 181.82 140.63 C 182.97 141.11 184.28 140.57 184.76 139.42 C 185.24 138.28 184.70 136.96 183.55 136.48 L 182.53 136.05 C 181.38 135.57 180.06 136.11 179.58 137.26 C 179.10 138.41 179.65 139.73 180.79 140.20 Z M 181.82 140.60 L 182.70 140.97 C 183.83 141.45 185.13 140.92 185.61 139.79 C 186.09 138.66 185.56 137.36 184.42 136.88 L 183.55 136.51 C 182.42 136.03 181.12 136.56 180.64 137.69 C 180.16 138.82 180.69 140.13 181.82 140.60 Z M 182.70 140.95 L 183.66 141.36 C 184.78 141.83 186.07 141.31 186.54 140.19 C 187.02 139.08 186.50 137.79 185.38 137.31 L 184.42 136.90 C 183.30 136.43 182.01 136.95 181.54 138.07 C 181.06 139.18 181.58 140.47 182.70 140.95 Z M 183.67 141.33 L 184.63 141.74 C 185.74 142.22 187.01 141.71 187.49 140.60 C 187.96 139.50 187.45 138.22 186.34 137.75 L 185.38 137.34 C 184.27 136.87 183.00 137.38 182.53 138.48 C 182.05 139.58 182.56 140.86 183.67 141.33 Z M 184.64 141.71 L 185.68 142.15 C 186.76 142.62 188.01 142.12 188.48 141.04 C 188.95 139.96 188.45 138.71 187.37 138.24 L 186.34 137.79 C 185.25 137.32 184.00 137.82 183.53 138.90 C 183.06 139.98 183.56 141.24 184.64 141.71 Z M 185.69 142.09 L 186.63 142.51 C 187.68 142.97 188.90 142.50 189.36 141.45 C 189.83 140.40 189.35 139.18 188.30 138.72 L 187.36 138.30 C 186.31 137.84 185.09 138.31 184.63 139.36 C 184.16 140.41 184.64 141.63 185.69 142.09 Z M 186.63 142.44 L 187.44 142.81 C 188.45 143.27 189.64 142.83 190.10 141.82 C 190.56 140.81 190.12 139.62 189.11 139.15 L 188.30 138.79 C 187.29 138.32 186.10 138.77 185.64 139.78 C 185.18 140.79 185.62 141.98 186.63 142.44 Z M 187.42 142.72 L 188.35 143.18 C 189.31 143.65 190.48 143.25 190.95 142.29 C 191.42 141.33 191.02 140.17 190.06 139.70 L 189.13 139.24 C 188.17 138.77 187.00 139.17 186.53 140.13 C 186.06 141.09 186.46 142.25 187.42 142.72 Z M 188.34 143.08 L 189.16 143.52 C 190.06 144.00 191.19 143.65 191.67 142.74 C 192.15 141.84 191.80 140.71 190.90 140.23 L 190.08 139.80 C 189.17 139.32 188.05 139.66 187.57 140.57 C 187.09 141.48 187.43 142.60 188.34 143.08 Z M 189.16 143.47 L 189.22 143.50 C 190.10 143.98 191.20 143.65 191.68 142.77 C 192.15 141.88 191.83 140.78 190.94 140.31 L 190.89 140.28 C 190.01 139.80 188.91 140.13 188.43 141.01 C 187.95 141.89 188.28 142.99 189.16 143.47 Z"
      fill="black"
      fill-rule="nonzero" /><path d="M 166.33 158.70 L 167.12 159.34 C 168.05 160.10 169.42 159.95 170.18 159.02 C 170.94 158.08 170.80 156.71 169.86 155.95 L 169.07 155.31 C 168.14 154.55 166.76 154.70 166.00 155.63 C 165.25 156.57 165.39 157.94 166.33 158.70 Z M 167.50 159.62 L 168.37 160.06 C 169.46 160.60 170.79 160.16 171.33 159.07 C 171.88 157.98 171.44 156.65 170.35 156.10 L 169.48 155.67 C 168.39 155.12 167.06 155.56 166.51 156.65 C 165.96 157.75 166.41 159.08 167.50 159.62 Z M 169.10 160.29 L 170.03 160.40 C 171.25 160.54 172.35 159.66 172.49 158.44 C 172.63 157.22 171.75 156.11 170.53 155.97 L 169.61 155.87 C 168.39 155.73 167.28 156.60 167.14 157.83 C 167.00 159.05 167.88 160.15 169.10 160.29 Z M 170.44 160.41 L 171.50 160.33 C 172.72 160.24 173.64 159.17 173.55 157.95 C 173.47 156.72 172.40 155.80 171.17 155.89 L 170.12 155.96 C 168.89 156.05 167.97 157.12 168.06 158.35 C 168.15 159.57 169.21 160.49 170.44 160.41 Z M 171.58 160.32 L 172.61 160.20 C 173.83 160.07 174.71 158.97 174.58 157.75 C 174.44 156.53 173.34 155.65 172.12 155.78 L 171.09 155.90 C 169.87 156.04 168.99 157.14 169.12 158.36 C 169.26 159.58 170.36 160.45 171.58 160.32 Z M 172.62 160.19 L 173.63 160.08 C 174.84 159.94 175.71 158.84 175.57 157.62 C 175.43 156.41 174.33 155.54 173.12 155.68 L 172.11 155.79 C 170.90 155.93 170.02 157.03 170.16 158.25 C 170.30 159.46 171.40 160.33 172.62 160.19 Z M 173.61 160.07 L 174.59 159.97 C 175.80 159.84 176.68 158.75 176.55 157.53 C 176.42 156.32 175.33 155.44 174.11 155.57 L 173.13 155.68 C 171.92 155.81 171.04 156.90 171.18 158.12 C 171.31 159.33 172.40 160.20 173.61 160.07 Z M 174.53 159.96 L 175.49 159.88 C 176.70 159.79 177.60 158.72 177.50 157.51 C 177.40 156.30 176.34 155.40 175.13 155.50 L 174.17 155.58 C 172.96 155.68 172.06 156.74 172.16 157.95 C 172.26 159.16 173.32 160.06 174.53 159.96 Z M 175.42 159.89 L 176.38 159.84 C 177.60 159.78 178.53 158.75 178.48 157.54 C 178.42 156.33 177.39 155.39 176.17 155.45 L 175.21 155.49 C 173.99 155.55 173.06 156.58 173.11 157.80 C 173.17 159.01 174.20 159.95 175.42 159.89 Z M 176.34 159.85 L 177.36 159.83 C 178.58 159.79 179.54 158.77 179.50 157.56 C 179.47 156.34 178.45 155.37 177.23 155.41 L 176.22 155.44 C 175.00 155.47 174.04 156.49 174.07 157.71 C 174.11 158.93 175.12 159.89 176.34 159.85 Z M 177.33 159.84 L 178.37 159.82 C 179.60 159.80 180.58 158.79 180.56 157.57 C 180.54 156.34 179.53 155.36 178.31 155.38 L 177.26 155.39 C 176.03 155.41 175.05 156.42 175.07 157.65 C 175.09 158.88 176.10 159.86 177.33 159.84 Z M 178.30 159.84 L 179.32 159.85 C 180.55 159.88 181.57 158.89 181.60 157.66 C 181.62 156.43 180.64 155.41 179.40 155.38 L 178.38 155.37 C 177.15 155.34 176.13 156.33 176.11 157.56 C 176.08 158.79 177.07 159.81 178.30 159.84 Z M 179.08 159.85 L 180.04 159.97 C 181.27 160.12 182.39 159.25 182.54 158.02 C 182.70 156.79 181.82 155.66 180.59 155.51 L 179.64 155.39 C 178.41 155.24 177.29 156.11 177.13 157.34 C 176.98 158.57 177.85 159.69 179.08 159.85 Z M 179.62 159.88 L 180.59 160.19 C 181.78 160.58 183.04 159.93 183.43 158.75 C 183.81 157.57 183.16 156.30 181.98 155.91 L 181.01 155.60 C 179.83 155.22 178.56 155.86 178.18 157.04 C 177.79 158.23 178.44 159.49 179.62 159.88 Z M 180.11 159.97 L 180.93 160.48 C 181.99 161.13 183.38 160.80 184.03 159.74 C 184.68 158.68 184.35 157.30 183.29 156.65 L 182.47 156.14 C 181.41 155.49 180.02 155.82 179.37 156.87 C 178.72 157.93 179.05 159.32 180.11 159.97 Z M 180.45 160.07 L 181.11 160.80 C 181.94 161.72 183.36 161.78 184.28 160.95 C 185.20 160.11 185.27 158.69 184.43 157.77 L 183.78 157.05 C 182.94 156.13 181.52 156.06 180.60 156.90 C 179.68 157.73 179.61 159.16 180.45 160.07 Z M 180.79 160.34 L 181.25 161.21 C 181.84 162.31 183.20 162.72 184.29 162.14 C 185.39 161.56 185.80 160.20 185.22 159.10 L 184.75 158.23 C 184.17 157.13 182.81 156.72 181.71 157.30 C 180.62 157.89 180.20 159.25 180.79 160.34 Z M 181.10 160.85 L 181.40 161.76 C 181.78 162.94 183.05 163.58 184.23 163.19 C 185.40 162.81 186.05 161.54 185.66 160.37 L 185.37 159.46 C 184.99 158.28 183.72 157.64 182.54 158.02 C 181.36 158.41 180.72 159.67 181.10 160.85 Z M 181.32 161.45 L 181.51 162.51 C 181.73 163.73 182.89 164.54 184.11 164.33 C 185.33 164.11 186.14 162.95 185.92 161.73 L 185.74 160.67 C 185.52 159.45 184.36 158.64 183.14 158.85 C 181.92 159.07 181.11 160.23 181.32 161.45 Z M 181.48 162.28 L 181.56 163.30 C 181.65 164.53 182.72 165.46 183.95 165.37 C 185.19 165.28 186.11 164.21 186.02 162.98 L 185.95 161.96 C 185.86 160.73 184.79 159.80 183.56 159.89 C 182.32 159.98 181.40 161.05 181.48 162.28 Z M 181.55 163.18 L 181.58 164.21 C 181.60 165.44 182.63 166.42 183.86 166.39 C 185.10 166.37 186.08 165.35 186.05 164.11 L 186.03 163.09 C 186.00 161.86 184.98 160.88 183.74 160.90 C 182.51 160.93 181.53 161.95 181.55 163.18 Z M 181.58 164.16 L 181.58 165.18 C 181.58 166.41 182.58 167.41 183.82 167.41 C 185.05 167.41 186.05 166.41 186.05 165.17 L 186.04 164.16 C 186.04 162.92 185.04 161.93 183.81 161.93 C 182.58 161.93 181.58 162.93 181.58 164.16 Z M 181.60 165.15 L 181.58 166.14 C 181.57 167.36 182.55 168.37 183.78 168.38 C 185.00 168.40 186.00 167.42 186.02 166.19 L 186.03 165.20 C 186.05 163.98 185.07 162.97 183.84 162.96 C 182.62 162.94 181.61 163.93 181.60 165.15 Z M 181.61 166.04 L 181.55 166.98 C 181.49 168.19 182.41 169.23 183.63 169.30 C 184.84 169.36 185.88 168.44 185.94 167.22 L 186.00 166.29 C 186.06 165.08 185.14 164.04 183.92 163.97 C 182.71 163.90 181.67 164.83 181.61 166.04 Z M 181.59 166.83 L 181.46 167.82 C 181.31 169.01 182.15 170.11 183.35 170.26 C 184.54 170.41 185.63 169.56 185.79 168.37 L 185.91 167.37 C 186.06 166.18 185.22 165.09 184.02 164.94 C 182.83 164.79 181.74 165.63 181.59 166.83 Z M 181.51 167.63 L 181.30 168.61 C 181.04 169.77 181.78 170.92 182.94 171.18 C 184.11 171.44 185.26 170.70 185.52 169.54 L 185.73 168.56 C 185.99 167.40 185.25 166.24 184.09 165.99 C 182.92 165.73 181.77 166.46 181.51 167.63 Z M 181.36 168.45 L 181.07 169.41 C 180.72 170.54 181.36 171.74 182.50 172.08 C 183.63 172.43 184.82 171.79 185.17 170.65 L 185.46 169.69 C 185.80 168.56 185.16 167.37 184.03 167.02 C 182.90 166.68 181.70 167.32 181.36 168.45 Z M 181.11 169.33 L 180.78 170.27 C 180.39 171.38 180.97 172.59 182.08 172.98 C 183.19 173.37 184.40 172.79 184.79 171.68 L 185.12 170.74 C 185.51 169.63 184.93 168.42 183.82 168.03 C 182.71 167.64 181.50 168.22 181.11 169.33 Z M 180.79 170.24 L 180.45 171.17 C 180.04 172.27 180.60 173.50 181.70 173.90 C 182.79 174.31 184.02 173.75 184.43 172.65 L 184.78 171.72 C 185.18 170.62 184.62 169.39 183.52 168.99 C 182.43 168.58 181.20 169.14 180.79 170.24 Z M 180.44 171.18 L 180.10 172.11 C 179.70 173.21 180.26 174.43 181.36 174.84 C 182.46 175.24 183.68 174.68 184.08 173.58 L 184.43 172.65 C 184.83 171.55 184.27 170.33 183.17 169.92 C 182.07 169.52 180.85 170.08 180.44 171.18 Z M 180.10 172.12 L 179.76 173.06 C 179.36 174.16 179.92 175.38 181.03 175.78 C 182.13 176.18 183.35 175.61 183.75 174.51 L 184.09 173.57 C 184.49 172.47 183.92 171.25 182.82 170.85 C 181.72 170.45 180.50 171.02 180.10 172.12 Z M 179.77 173.04 L 179.41 174.00 C 179.00 175.10 179.55 176.32 180.65 176.73 C 181.75 177.14 182.97 176.58 183.38 175.48 L 183.74 174.53 C 184.15 173.43 183.59 172.21 182.49 171.80 C 181.40 171.39 180.18 171.95 179.77 173.04 Z M 179.43 173.98 L 179.06 174.93 C 178.64 176.01 179.18 177.23 180.26 177.66 C 181.35 178.08 182.57 177.54 182.99 176.45 L 183.36 175.50 C 183.78 174.42 183.24 173.20 182.16 172.78 C 181.07 172.35 179.85 172.89 179.43 173.98 Z M 179.07 174.93 L 178.71 175.85 C 178.29 176.93 178.83 178.15 179.90 178.57 C 180.98 178.99 182.20 178.45 182.62 177.38 L 182.98 176.45 C 183.40 175.37 182.87 174.16 181.79 173.74 C 180.71 173.32 179.50 173.85 179.07 174.93 Z M 178.72 175.87 L 178.36 176.83 C 177.94 177.90 178.48 179.10 179.55 179.51 C 180.62 179.92 181.83 179.39 182.24 178.32 L 182.61 177.36 C 183.02 176.29 182.48 175.09 181.41 174.67 C 180.34 174.26 179.14 174.80 178.72 175.87 Z M 178.37 176.83 L 178.03 177.71 C 177.62 178.78 178.15 179.97 179.22 180.38 C 180.28 180.79 181.48 180.26 181.89 179.20 L 182.23 178.31 C 182.64 177.25 182.11 176.05 181.04 175.64 C 179.97 175.23 178.78 175.76 178.37 176.83 Z M 178.04 177.69 L 177.68 178.60 C 177.26 179.66 177.78 180.85 178.84 181.27 C 179.90 181.69 181.09 181.18 181.51 180.12 L 181.87 179.22 C 182.29 178.16 181.78 176.96 180.72 176.54 C 179.66 176.12 178.46 176.64 178.04 177.69 Z M 177.70 178.56 L 177.31 179.49 C 176.87 180.54 177.36 181.75 178.41 182.19 C 179.45 182.63 180.66 182.14 181.10 181.09 L 181.49 180.16 C 181.94 179.11 181.45 177.91 180.40 177.46 C 179.35 177.02 178.14 177.51 177.70 178.56 Z M 177.35 179.42 L 176.91 180.34 C 176.43 181.36 176.87 182.59 177.90 183.07 C 178.93 183.55 180.15 183.11 180.64 182.08 L 181.07 181.17 C 181.55 180.14 181.11 178.91 180.08 178.43 C 179.05 177.95 177.83 178.39 177.35 179.42 Z M 177.00 180.18 L 176.47 181.11 C 175.90 182.09 176.23 183.34 177.21 183.91 C 178.19 184.48 179.45 184.14 180.01 183.16 L 180.55 182.24 C 181.12 181.26 180.78 180.00 179.80 179.43 C 178.82 178.87 177.57 179.20 177.00 180.18 Z M 176.71 180.79 L 176.02 181.58 C 175.28 182.43 175.36 183.71 176.20 184.45 C 177.05 185.19 178.33 185.11 179.07 184.27 L 179.77 183.48 C 180.51 182.63 180.42 181.35 179.58 180.61 C 178.74 179.87 177.45 179.95 176.71 180.79 Z M 177.22 180.97 L 176.45 181.10 C 175.37 181.28 174.64 182.30 174.82 183.38 C 175.00 184.46 176.03 185.19 177.11 185.01 L 177.88 184.88 C 178.96 184.70 179.68 183.68 179.50 182.60 C 179.32 181.52 178.30 180.79 177.22 180.97 Z M 177.96 181.58 L 177.20 180.97 C 176.39 180.32 175.20 180.45 174.55 181.26 C 173.89 182.07 174.02 183.26 174.84 183.91 L 175.60 184.53 C 176.41 185.18 177.60 185.05 178.25 184.24 C 178.90 183.43 178.77 182.24 177.96 181.58 Z"
      fill="black"
      fill-rule="nonzero" /><path d="M 172.91 155.50 L 172.23 156.21 C 171.36 157.13 171.40 158.57 172.31 159.44 C 173.22 160.30 174.67 160.26 175.53 159.35 L 176.21 158.64 C 177.08 157.72 177.04 156.28 176.13 155.42 C 175.22 154.55 173.77 154.59 172.91 155.50 Z M 172.10 156.27 L 171.45 157.03 C 170.61 158.01 170.73 159.49 171.71 160.33 C 172.70 161.16 174.17 161.05 175.01 160.06 L 175.66 159.30 C 176.50 158.32 176.38 156.84 175.40 156.00 C 174.41 155.17 172.94 155.28 172.10 156.27 Z M 171.27 157.17 L 170.69 158.00 C 169.93 159.08 170.20 160.57 171.28 161.33 C 172.36 162.09 173.85 161.83 174.61 160.74 L 175.19 159.92 C 175.95 158.84 175.69 157.35 174.60 156.59 C 173.52 155.83 172.03 156.09 171.27 157.17 Z M 170.55 158.13 L 170.04 159.00 C 169.35 160.16 169.74 161.65 170.90 162.34 C 172.06 163.03 173.56 162.64 174.24 161.48 L 174.75 160.61 C 175.44 159.45 175.06 157.95 173.89 157.27 C 172.73 156.58 171.24 156.97 170.55 158.13 Z M 169.95 159.06 L 169.48 159.94 C 168.83 161.15 169.28 162.66 170.49 163.31 C 171.70 163.95 173.21 163.50 173.86 162.29 L 174.33 161.41 C 174.98 160.20 174.52 158.70 173.31 158.05 C 172.10 157.40 170.60 157.85 169.95 159.06 Z M 169.43 159.97 L 168.98 160.85 C 168.35 162.09 168.84 163.60 170.07 164.23 C 171.31 164.86 172.82 164.38 173.46 163.14 L 173.91 162.26 C 174.54 161.02 174.05 159.51 172.81 158.88 C 171.58 158.25 170.06 158.74 169.43 159.97 Z M 168.94 160.88 L 168.50 161.79 C 167.89 163.05 168.41 164.56 169.67 165.17 C 170.92 165.79 172.44 165.27 173.05 164.01 L 173.49 163.10 C 174.11 161.85 173.59 160.33 172.33 159.72 C 171.07 159.11 169.56 159.63 168.94 160.88 Z M 168.48 161.82 L 168.04 162.75 C 167.44 164.02 167.99 165.54 169.26 166.13 C 170.53 166.73 172.05 166.18 172.64 164.91 L 173.08 163.98 C 173.68 162.71 173.13 161.19 171.86 160.60 C 170.59 160.00 169.07 160.55 168.48 161.82 Z M 168.03 162.76 L 167.60 163.69 C 167.01 164.96 167.57 166.48 168.85 167.07 C 170.12 167.66 171.64 167.10 172.23 165.82 L 172.65 164.90 C 173.24 163.62 172.69 162.11 171.41 161.52 C 170.13 160.93 168.62 161.49 168.03 162.76 Z M 167.61 163.67 L 167.18 164.59 C 166.58 165.86 167.13 167.38 168.40 167.98 C 169.68 168.57 171.19 168.03 171.79 166.75 L 172.22 165.83 C 172.82 164.56 172.27 163.04 171.00 162.45 C 169.72 161.85 168.20 162.40 167.61 163.67 Z M 167.19 164.57 L 166.77 165.45 C 166.16 166.72 166.69 168.24 167.95 168.85 C 169.22 169.46 170.74 168.93 171.35 167.66 L 171.78 166.77 C 172.39 165.51 171.85 163.99 170.59 163.38 C 169.32 162.77 167.80 163.30 167.19 164.57 Z M 166.77 165.47 L 166.36 166.32 C 165.76 167.59 166.30 169.10 167.57 169.70 C 168.83 170.30 170.34 169.76 170.94 168.50 L 171.35 167.64 C 171.95 166.38 171.41 164.87 170.14 164.27 C 168.88 163.67 167.37 164.20 166.77 165.47 Z M 166.37 166.32 L 165.94 167.24 C 165.34 168.50 165.88 170.00 167.14 170.60 C 168.39 171.20 169.90 170.66 170.50 169.40 L 170.93 168.49 C 171.53 167.23 171.00 165.73 169.74 165.13 C 168.48 164.53 166.97 165.07 166.37 166.32 Z M 165.98 167.19 L 165.53 168.09 C 164.90 169.33 165.40 170.84 166.64 171.46 C 167.88 172.08 169.39 171.58 170.01 170.35 L 170.46 169.45 C 171.08 168.21 170.58 166.70 169.35 166.08 C 168.11 165.46 166.60 165.96 165.98 167.19 Z M 165.56 168.06 L 165.10 168.95 C 164.46 170.17 164.93 171.67 166.15 172.31 C 167.36 172.95 168.87 172.48 169.50 171.26 L 169.97 170.37 C 170.61 169.16 170.14 167.65 168.92 167.01 C 167.71 166.38 166.20 166.85 165.56 168.06 Z M 165.12 168.95 L 164.65 169.84 C 164.01 171.04 164.47 172.54 165.67 173.18 C 166.87 173.82 168.37 173.36 169.00 172.16 L 169.48 171.27 C 170.12 170.06 169.66 168.57 168.46 167.93 C 167.26 167.29 165.76 167.75 165.12 168.95 Z M 164.68 169.84 L 164.21 170.71 C 163.57 171.90 164.01 173.38 165.19 174.02 C 166.38 174.66 167.86 174.22 168.51 173.03 L 168.98 172.16 C 169.62 170.97 169.18 169.49 167.99 168.85 C 166.80 168.21 165.32 168.65 164.68 169.84 Z M 164.25 170.69 L 163.76 171.56 C 163.11 172.73 163.53 174.20 164.69 174.85 C 165.86 175.50 167.33 175.08 167.98 173.92 L 168.47 173.05 C 169.12 171.88 168.70 170.41 167.54 169.76 C 166.37 169.11 164.90 169.53 164.25 170.69 Z M 163.82 171.52 L 163.30 172.38 C 162.63 173.51 163.00 174.98 164.13 175.65 C 165.27 176.33 166.73 175.96 167.41 174.83 L 167.92 173.96 C 168.60 172.83 168.23 171.36 167.09 170.69 C 165.96 170.01 164.50 170.38 163.82 171.52 Z M 163.39 172.33 L 162.85 173.17 C 162.14 174.26 162.45 175.71 163.54 176.41 C 164.62 177.11 166.07 176.80 166.77 175.72 L 167.32 174.88 C 168.02 173.79 167.71 172.34 166.63 171.64 C 165.54 170.94 164.09 171.25 163.39 172.33 Z M 162.94 173.16 L 162.37 173.98 C 161.66 175.01 161.92 176.43 162.95 177.14 C 163.98 177.85 165.40 177.59 166.11 176.56 L 166.68 175.74 C 167.39 174.71 167.13 173.29 166.10 172.58 C 165.07 171.87 163.65 172.12 162.94 173.16 Z M 162.48 173.99 L 161.89 174.80 C 161.18 175.78 161.39 177.14 162.37 177.85 C 163.34 178.56 164.71 178.34 165.41 177.37 L 166.00 176.55 C 166.71 175.58 166.50 174.21 165.52 173.51 C 164.55 172.80 163.18 173.02 162.48 173.99 Z M 162.00 174.82 L 161.40 175.61 C 160.70 176.52 160.88 177.83 161.79 178.53 C 162.70 179.22 164.01 179.05 164.70 178.13 L 165.30 177.34 C 166.00 176.43 165.82 175.13 164.91 174.43 C 164.00 173.73 162.69 173.91 162.00 174.82 Z M 161.52 175.61 L 160.88 176.38 C 160.19 177.23 160.31 178.48 161.15 179.17 C 162.00 179.87 163.25 179.75 163.95 178.90 L 164.58 178.13 C 165.28 177.29 165.16 176.04 164.31 175.34 C 163.46 174.64 162.21 174.76 161.52 175.61 Z M 161.02 176.34 L 160.36 177.05 C 159.64 177.82 159.68 179.03 160.46 179.75 C 161.23 180.46 162.44 180.42 163.15 179.65 L 163.81 178.94 C 164.53 178.17 164.49 176.96 163.72 176.24 C 162.94 175.53 161.74 175.57 161.02 176.34 Z M 160.49 177.00 L 159.74 177.70 C 159.00 178.40 158.96 179.57 159.66 180.31 C 160.35 181.06 161.52 181.10 162.27 180.40 L 163.02 179.70 C 163.76 179.00 163.80 177.83 163.11 177.09 C 162.41 176.34 161.24 176.30 160.49 177.00 Z M 159.84 177.66 L 159.10 178.28 C 158.33 178.93 158.22 180.07 158.87 180.84 C 159.51 181.61 160.65 181.71 161.42 181.07 L 162.17 180.44 C 162.94 179.80 163.04 178.66 162.40 177.89 C 161.76 177.12 160.61 177.02 159.84 177.66 Z M 159.14 178.26 L 158.34 178.89 C 157.55 179.51 157.42 180.64 158.04 181.43 C 158.66 182.21 159.79 182.34 160.57 181.73 L 161.38 181.09 C 162.16 180.47 162.29 179.34 161.68 178.56 C 161.06 177.77 159.92 177.64 159.14 178.26 Z M 158.35 178.89 L 158.15 179.04 C 157.36 179.66 157.22 180.79 157.83 181.57 C 158.45 182.36 159.58 182.50 160.36 181.89 L 160.56 181.73 C 161.35 181.12 161.49 179.99 160.88 179.20 C 160.27 178.42 159.13 178.28 158.35 178.89 Z"
      fill="black"
      fill-rule="nonzero" /></svg>