<svg xmlns="http://www.w3.org/2000/svg" width="300" height="300" viewBox="0 0 300 300">
<path d="M 119.81948416672742 137.1236703923115 L 119.38073216618757 139.90605448147326 L 119.29477559113153 141.831881804795 L 119.23948375891993 144.0546504938529 L 119.09497291680675 146.8085175519259 L 118.96832162180571 150.0514670887174 L 118.84267882938661 153.47829120235357 L 118.70615145974021 157.02621343421683 L 118.52011872931143 160.67345390633236 L 118.48479178188553 163.59487839974477 L 118.43964877641257 166.0335977253344 L 118.4941450057376 170.05192813418077 L 120.63765663798804 171.9591725195149 L 122.75345664326196 168.9144847070476 L 122.2321733536374 168.96992245175673 L 122.43071255171243 166.1315634074781 L 122.52961251498947 163.69052199088023 L 122.60231779412607 160.83130683585514 L 122.81240322775979 157.22146722984567 L 122.96396179561339 153.63743145389643 L 123.09039419850679 150.2075661144076 L 123.21581809881825 146.9942168230741 L 123.35939319420507 144.2176883733346 L 123.41213358855597 141.961086945205 L 123.47021998224993 140.33344747165174 L 123.82370430983508 137.7105581233135 Z" fill="black" />
<path d="M 129.31981034952463 118.68487255535403 L 130.85933661976668 118.03886327616402 L 131.97974304586523 117.97547319661776 L 132.70239719673668 117.93934533728361 L 133.62836824252668 119.36189413268822 L 134.42638625022093 121.15938265401358 L 135.00998896528 123.73744267710715 L 135.29326671132492 125.2394419561466 L 135.4666530484922 127.12567070237407 L 135.6631961424697 129.24419492076706 L 135.83378356631354 131.806524440636 L 135.77609848098857 134.2412018773243 L 135.7469615423197 137.04426105831723 L 135.7126255477021 140.27006067309316 L 135.7265401719643 143.759675746585 L 135.67564845085144 147.501953125 L 135.65991497039795 151.9813232421875 L 135.64929056167603 155.99774169921875 L 135.6578562259674 160.2894287109375 L 135.6755816936493 164.63116455078125 L 135.71343541145325 168.98541259765625 L 135.75177907943726 173.13946533203125 L 135.80119261467857 177.65997620161343 L 135.78126845301733 180.88825925790024 L 135.65073914722038 183.95416656811256 L 135.59015407847113 186.78509306257902 L 135.39499435990533 189.23625121089273 L 135.1956922257459 191.4287119969352 L 135.05895609792222 193.68032978926192 L 134.88676302018214 196.04436372447867 L 135.33264305108125 196.8067814994041 L 137.3852165675908 196.53865683227923 L 136.56043620347648 194.14061641195335 L 136.1156289673024 192.40228704237123 L 135.57481834733312 190.2862184578805 L 132.08753516829188 191.177038378057 L 132.6270468139476 193.29009577012877 L 133.08250813246102 195.10523319742165 L 133.8422004245967 198.11246621459577 L 137.76733253485625 200.2216608834084 L 139.11348112044286 196.62983061145883 L 139.33740620676528 193.98898173417558 L 139.4887560164416 191.7612294093148 L 139.68557204634467 189.59944214848227 L 139.88653049184137 187.04571748429598 L 140.07802061840462 184.19610198657494 L 140.34360947667017 181.08097902334976 L 140.46772828375893 177.70281676713657 L 140.51714181900024 173.13946533203125 L 140.55548548698425 168.98541259765625 L 140.5933392047882 164.63116455078125 L 140.6110646724701 160.2894287109375 L 140.61963033676147 155.99774169921875 L 140.60900592803955 151.9813232421875 L 140.59327244758606 147.501953125 L 140.5423807264732 143.7118818706025 L 140.4122523819854 140.21968542065684 L 140.3779163873678 136.98918620730777 L 140.20473647994893 134.1367278101757 L 140.03901916806146 131.5414980203015 L 139.6694454590928 128.84870058704544 L 139.4698703890078 126.73809882887593 L 139.24713856211258 124.6704701532284 L 138.8822229487825 122.86924677601785 L 138.13342820290407 119.91691129129892 L 136.95085539028582 117.36015176574928 L 134.85192409232582 114.82884313927889 L 132.11754699319727 114.26720258463224 L 129.96097588023332 114.47908105977348 L 127.93543867391288 115.28448779620847 Z" fill="black" />
<path d="M 125.45589547260411 147.51068304236463 L 126.86739570065913 146.49614066574458 L 128.62559575007413 146.08155240835734 L 131.10250882059012 145.57384553144198 L 133.51730717825424 145.29277239309405 L 135.28961181640625 145.27378618717194 L 135.28961181640625 141.67225873470306 L 133.35281000924576 141.65327252878095 L 130.61807223409738 141.77259001543302 L 127.83741694523839 142.19078645883016 L 125.09427422121587 142.82722359206792 L 123.08475394145839 144.59039117638537 Z" fill="black" />
<path d="M 124.13785843785685 155.0517783629863 L 122.6739888475519 159.0299726079873 L 127.07239736124649 159.8118956995675 L 130.7799063582303 158.50707460751008 L 132.2821905907801 157.7295105363648 L 133.8051967491873 156.9830602080353 L 135.52344954895844 156.1380813938125 L 137.17050195318285 155.3660475934523 L 138.74675730657304 154.4757568753254 L 136.98200245905196 151.3386962496746 L 135.53335546869215 152.1500656877977 L 134.01146256041656 152.8294479030625 L 132.2726841101877 153.5610071747772 L 130.7707879248449 154.1408507917602 L 129.3562020402072 154.53943418155242 L 126.07762705281601 155.6119324254325 L 126.2627787305731 156.6691240717002 L 127.28365035120565 157.7444862854512 Z" fill="black" />
<path d="M 161.40746284388132 106.81960909696578 L 160.42135113306188 109.55195571639999 L 160.40628290176392 111.57940673828125 L 160.43103852863157 113.74309875737973 L 160.58735021726218 116.20045024683483 L 160.82269647825126 118.76166634536997 L 161.00583920259703 121.42796300899421 L 161.19003707834685 124.26599255925235 L 161.36238291300646 126.55897785573389 L 161.47900648575063 128.59494183520277 L 161.59687039467357 130.3844775648905 L 161.83874913497888 132.15154897153963 L 165.52941492752112 131.72198618471037 L 165.37517550376393 130.0857372788595 L 165.34899644393687 128.44692828198473 L 165.32157704793104 126.37888835520361 L 165.24184768727815 124.06738146418515 L 165.17397036771547 121.22486902225579 L 165.06902715456124 118.48589224838003 L 164.90825525148782 115.91710346410267 L 164.81249174480593 113.61981628168277 L 164.83724737167358 111.57940673828125 L 164.82217914037562 110.30363510391251 L 165.27649711705618 107.90597684053422 Z" fill="black" />
<path d="M 165.87543351068877 108.64874106681715 L 167.11180567910773 108.56383186545173 L 168.43614070097706 109.25562614527728 L 170.72184200882225 110.79029717780207 L 171.80155749620513 111.68133690985394 L 172.95716257400912 112.80289835362429 L 173.96024093196948 113.96093735460902 L 174.929563047523 115.34865403685818 L 175.71441337734302 116.78178580293424 L 176.38534453342552 118.41047061962077 L 176.68708129088563 119.92800806133968 L 176.84274223273516 121.5366212808073 L 176.8572599887848 123.3033447265625 L 176.87227637460094 124.831898131062 L 176.58345134608714 126.1427910768921 L 176.08423339860676 127.7156476827566 L 179.51635253889324 128.80070973911842 L 180.06144611485036 127.0703436887329 L 180.45682518789906 125.2031360486255 L 180.4718415737152 123.3033447265625 L 180.48635932976484 121.3914793051302 L 180.35393433411437 119.44662572772282 L 180.00747773219948 117.38567195850423 L 179.23797920078198 115.21064583769076 L 178.294313905602 113.34055494751682 L 177.13900223209302 111.57519545789098 L 175.90941457442838 110.08064656825071 L 174.54426769910737 108.69976660577106 L 173.13924197555275 107.48875555657293 L 170.52748234589794 105.72020393284772 L 168.03467869589227 104.56019157204827 L 165.70598738774873 104.62542885505785 Z" fill="black" />
<path d="M 165.75342799037963 124.8413743026127 L 168.2221613575819 124.28360853231591 L 172.06275404993835 123.2738162348003 L 174.64446580650937 122.5553376617422 L 173.82599317786563 119.0464689788828 L 171.25816880162415 119.5291622808247 L 167.3204411814806 120.09590806924659 L 164.78368138462037 120.7142897598873 Z" fill="black" />
<path d="M 162.5221869180188 135.12639348338362 L 164.56421640773812 135.49448301171688 L 167.24054560912123 135.00107684558748 L 168.93208509294382 134.48140602429348 L 170.5283905684125 133.97261723082985 L 172.15061721353496 133.48085680557284 L 173.85103120691932 132.9931998307847 L 175.4659922925352 132.51353758745432 L 178.28127352180104 131.85187555511484 L 177.46335538444896 128.34307073394766 L 174.5889393480898 129.00770264692068 L 172.89091215245568 129.4539437239028 L 171.17030563802754 129.86716565536466 L 169.4795440019 130.30130855042015 L 167.90690416486868 130.71842307726902 L 166.42949833619127 130.99953350597502 L 164.49645253757438 131.28188417578312 L 163.3695367147937 130.99933893849138 Z" fill="black" />
<path d="M 150.2013304086783 149.74771516863933 L 152.7187624380593 149.44819030764765 L 154.38365399698165 149.03610014742375 L 156.52479878440144 148.51288593476917 L 159.0136290976885 147.8506901694666 L 162.02235363687993 147.12897689881657 L 164.85390974151446 146.4711450409149 L 167.8480459587864 145.7314137904692 L 170.6856821723239 144.969294771007 L 173.3972603195979 144.25887669925675 L 175.77633419065288 143.54182887445407 L 178.24302094965168 142.8263063374622 L 179.9821119397943 142.29581500981223 L 182.83841159209473 141.53930438570396 L 186.18384725108208 141.2165535409712 L 185.90965860829292 137.5715323965288 L 182.26901028290527 137.77429424710854 L 179.0394945055182 138.46919963862527 L 177.21352201909832 138.8646116312878 L 174.67471561403462 139.45035862554593 L 172.3003715163396 140.05960474605575 L 169.6103383354886 140.675480619618 L 166.7582772834011 141.3647776157808 L 163.81064103973554 142.0764623809601 L 160.98851062093257 142.71990005430843 L 157.9114197304365 143.4496027992834 L 155.39475687966106 144.11370097929333 L 153.28663408895585 144.64151215726375 L 151.7825803353782 145.03020324703985 L 149.4385621694467 145.63155729229817 Z" fill="black" />
<path d="M 165.50244730163502 144.39311955473875 L 163.79234759083724 145.9476306429082 L 162.5838842373201 148.91449188204194 L 161.324301248985 151.8530639246231 L 160.60070474488418 153.5609858786598 L 159.8182461523192 155.35899950321897 L 158.88456791092236 157.35446423056476 L 158.0080816986632 159.4835787064587 L 157.03972155810746 161.6603483036503 L 156.16655187328777 163.44888454450788 L 155.4175279000159 165.22917025937195 L 154.31809366284313 167.90978384327164 L 154.87250903369764 172.185295104714 L 158.9801774305847 171.42794245735698 L 161.37859631884712 169.7162744290204 L 162.71102497624867 168.62427580202433 L 164.12344136237402 167.40237512418307 L 165.56155592046542 166.15468806551166 L 167.04632424797862 164.91075484417954 L 168.78521935528724 163.481575926363 L 170.29990189616868 162.35135140245558 L 171.8950832488538 161.25303641045417 L 173.40856761196721 160.24777140141742 L 174.83710322576366 159.44310706674844 L 176.2009870120317 158.7564953236653 L 177.43649201513387 158.16575693137545 L 179.17753700682005 157.9875424016027 L 180.06604733822147 157.97186620544838 L 181.09706663264592 158.94359514194744 L 182.13931478943107 160.6134983322925 L 183.2605322567422 162.89483576389406 L 184.31240023485518 165.5962448143762 L 185.01149724799623 168.35679124140262 L 185.22054158758442 169.79162305115975 L 185.4671854988701 171.4692026116522 L 185.57207459247527 173.26192722834875 L 185.76133357735964 175.29466244256588 L 185.75762701034546 176.9556884765625 L 185.75827527046204 178.8074951171875 L 185.7591769695282 180.584228515625 L 185.77053904533386 182.29840087890625 L 185.78766894340515 183.87493896484375 L 185.81275844573975 185.589111328125 L 185.8351936340332 187.84130859375 L 186.0290832196845 188.64605520889307 L 186.1189058746739 188.78120434582013 L 186.01698966269072 188.77794789263714 L 185.09574785075247 188.0792693005157 L 183.43653428285495 186.42746510147217 L 180.87865126402005 188.97988353134033 L 182.64045820393503 190.7564240588593 L 184.49204354043428 192.30994273236286 L 187.7031156097011 192.68205249011737 L 190.0256042803155 190.18963815048193 L 190.2194938659668 187.84130859375 L 190.24192905426025 185.589111328125 L 190.26701855659485 183.87493896484375 L 190.28414845466614 182.29840087890625 L 190.2955105304718 180.584228515625 L 190.29641222953796 178.8074951171875 L 190.29706048965454 176.9556884765625 L 190.29335392264036 175.06324771368412 L 190.08649474346223 172.89188136540125 L 189.9393086417549 170.9809927008478 L 189.64579142022808 169.10510546446525 L 189.35068536919127 167.36183668828488 L 188.46530972608232 164.1915969824988 L 187.1404687198203 161.11236638454344 L 185.74093423400643 158.5139430739575 L 184.15439821110408 156.22998884242756 L 181.72838625552853 154.29888574767662 L 179.05183311036745 154.0079409968348 L 176.43557829736613 154.35523916237455 L 174.5021379879683 155.2159167857097 L 172.98516239923634 155.98072105825156 L 171.35278492709529 156.90274129389508 L 169.6973239777087 157.99952706610833 L 168.01552779133132 159.15340933973192 L 166.36126501971276 160.3754797376995 L 164.53509665045888 161.84913285113296 L 162.99496263422208 163.10764103605084 L 161.51620707512598 164.36239538362943 L 160.15579631281383 165.51781404172567 L 158.96747301709038 166.4027441256671 L 157.0085921006653 167.71903019889302 L 157.04704663036486 168.413093567161 L 158.50173055590687 169.41040658641586 L 159.5269301077966 166.93599087344055 L 160.21833582202473 165.28793186174212 L 161.07368176220504 163.5230013057247 L 162.0859124419618 161.2204007857288 L 162.93794185470264 159.12038928506024 L 163.8408114648683 157.16199659053103 L 164.64282552855332 155.2814213479027 L 165.3596587119525 153.5609985753769 L 166.6208276767424 150.56878448514556 L 167.53699811228776 148.1303722867793 L 168.31163961242748 147.18244196869875 Z" fill="black" />
<path d="M 170.86822509765625 160.76278138160706 L 167.4125269924437 160.83715458400235 L 165.7361974823562 163.81922438693815 L 165.28288031530136 165.9553660405533 L 164.84422428177928 170.04192440995578 L 164.70964772235322 171.7422739332955 L 164.61680178461336 173.40817816790297 L 164.48023254778658 175.30473253252774 L 164.40904103742716 178.3338581061152 L 164.4523200720588 180.8990513444011 L 164.86342440112543 182.83391715915567 L 168.41050138012457 182.16327522365683 L 168.1734123498162 180.6697963118489 L 168.36073435319784 178.4803508782598 L 168.54161803815092 175.57869031903476 L 168.80116696538664 173.79665581647203 L 168.96039622295928 172.1593373948295 L 169.22193782759572 170.55646426191922 L 169.71956109094864 166.6101857172592 L 170.0584802520188 165.06773850368685 L 169.5705052341188 164.87170772068515 L 170.86822509765625 164.94608092308044 Z" fill="black" />
<path d="M 176.2044723033905 162.52911376953125 L 176.04566645622253 164.968994140625 L 176.00750494003296 167.53399658203125 L 176.00446030623425 170.1991860436054 L 175.94195931034662 171.7603366620577 L 175.82951253500914 173.54090316083298 L 175.65782823643374 175.54145425809736 L 175.4323537477877 177.81182943411613 L 175.21050489497037 179.81780569148543 L 174.93819529298472 181.90792267343687 L 174.6730666697809 183.85587586732206 L 174.40070039771453 185.56215757538595 L 174.06718915511846 187.1300271166882 L 173.8283343360042 188.59339800013657 L 173.37802437640204 190.01279075195046 L 176.82095023297296 191.20022194336204 L 177.4149517968083 189.59166059361343 L 177.82429033706904 188.0020529614368 L 178.28301542259797 186.41684633086405 L 178.6948532520941 184.56966124205294 L 179.07791798826528 182.56375701406313 L 179.45380174565463 180.42474801945207 L 179.7721140256498 178.35174478463387 L 180.08680066981626 176.01762777315264 L 180.31123453530336 173.91417496416702 L 180.45086295527838 172.0161525957548 L 180.53240492814075 170.2740805579571 L 180.52936029434204 167.53399658203125 L 180.49119877815247 164.968994140625 L 180.3323929309845 162.52911376953125 Z" fill="black" />
</svg>