<svg xmlns="http://www.w3.org/2000/svg" width="300" height="300" viewBox="0 0 300 300">
<path d="M 123.41 124.34 L 124.16 125.01 C 125.06 125.80 126.42 125.72 127.22 124.83 C 128.01 123.93 127.93 122.57 127.04 121.77 L 126.29 121.10 C 125.40 120.31 124.03 120.39 123.23 121.28 C 122.44 122.18 122.52 123.54 123.41 124.34 Z M 124.29 125.18 L 125.09 125.77 C 126.08 126.49 127.47 126.28 128.20 125.29 C 128.92 124.29 128.71 122.90 127.71 122.18 L 126.91 121.59 C 125.92 120.87 124.53 121.09 123.81 122.08 C 123.08 123.07 123.30 124.46 124.29 125.18 Z M 125.39 125.94 L 126.27 126.40 C 127.36 126.95 128.70 126.53 129.25 125.44 C 129.81 124.35 129.38 123.02 128.30 122.46 L 127.41 122.01 C 126.33 121.45 124.99 121.88 124.44 122.96 C 123.88 124.05 124.31 125.38 125.39 125.94 Z M 126.46 126.40 L 127.39 126.79 C 128.48 127.24 129.73 126.73 130.19 125.64 C 130.64 124.55 130.13 123.30 129.04 122.84 L 128.11 122.46 C 127.02 122.00 125.77 122.52 125.31 123.60 C 124.86 124.69 125.37 125.94 126.46 126.40 Z M 127.41 126.72 L 128.33 127.11 C 129.38 127.56 130.60 127.06 131.04 126.01 C 131.49 124.96 131.00 123.74 129.94 123.30 L 129.02 122.91 C 127.97 122.46 126.75 122.96 126.31 124.01 C 125.86 125.06 126.35 126.28 127.41 126.72 Z M 128.30 127.04 L 129.21 127.46 C 130.23 127.92 131.42 127.47 131.88 126.45 C 132.35 125.44 131.90 124.24 130.88 123.78 L 129.97 123.37 C 128.95 122.91 127.76 123.36 127.30 124.37 C 126.84 125.38 127.29 126.58 128.30 127.04 Z M 129.17 127.38 L 130.07 127.83 C 131.04 128.31 132.22 127.92 132.71 126.95 C 133.19 125.98 132.80 124.79 131.83 124.31 L 130.93 123.86 C 129.95 123.37 128.77 123.77 128.29 124.74 C 127.80 125.71 128.20 126.89 129.17 127.38 Z M 130.01 127.74 L 130.88 128.23 C 131.81 128.75 132.97 128.42 133.49 127.49 C 134.01 126.57 133.68 125.40 132.75 124.88 L 131.88 124.39 C 130.96 123.88 129.79 124.21 129.27 125.13 C 128.76 126.06 129.09 127.23 130.01 127.74 Z M 130.79 128.12 L 131.65 128.69 C 132.52 129.25 133.68 129.01 134.25 128.14 C 134.81 127.27 134.57 126.11 133.70 125.55 L 132.84 124.99 C 131.97 124.42 130.81 124.67 130.25 125.53 C 129.68 126.40 129.93 127.56 130.79 128.12 Z M 131.49 128.51 L 132.23 129.15 C 133.00 129.81 134.16 129.71 134.82 128.94 C 135.48 128.17 135.38 127.01 134.61 126.36 L 133.87 125.72 C 133.10 125.06 131.94 125.15 131.28 125.93 C 130.62 126.70 130.72 127.85 131.49 128.51 Z M 132.03 128.91 L 132.67 129.68 C 133.31 130.45 134.45 130.55 135.22 129.91 C 135.99 129.27 136.09 128.13 135.45 127.36 L 134.81 126.59 C 134.17 125.82 133.03 125.72 132.26 126.36 C 131.49 127.00 131.39 128.14 132.03 128.91 Z M 132.60 129.58 L 132.82 129.87 C 133.40 130.68 134.53 130.85 135.34 130.26 C 136.14 129.68 136.32 128.55 135.73 127.74 L 135.52 127.45 C 134.93 126.65 133.80 126.47 133.00 127.06 C 132.19 127.65 132.02 128.78 132.60 129.58 Z"
      fill="black"
      fill-rule="nonzero" /><path d="M 114.65 139.69 L 115.41 140.23 C 116.35 140.92 117.68 140.70 118.36 139.76 C 119.05 138.81 118.83 137.49 117.89 136.80 L 117.13 136.26 C 116.18 135.57 114.86 135.79 114.18 136.73 C 113.49 137.68 113.71 139.00 114.65 139.69 Z M 115.86 140.59 L 116.83 140.95 C 117.97 141.39 119.25 140.81 119.68 139.67 C 120.11 138.53 119.54 137.25 118.40 136.82 L 117.43 136.45 C 116.29 136.02 115.01 136.59 114.58 137.73 C 114.14 138.88 114.72 140.15 115.86 140.59 Z M 117.35 141.13 L 118.26 141.24 C 119.50 141.38 120.62 140.49 120.76 139.25 C 120.91 138.01 120.02 136.89 118.78 136.74 L 117.87 136.64 C 116.63 136.49 115.51 137.38 115.36 138.62 C 115.22 139.87 116.11 140.99 117.35 141.13 Z M 118.56 141.26 L 119.60 141.24 C 120.85 141.22 121.85 140.18 121.83 138.93 C 121.81 137.68 120.77 136.68 119.52 136.70 L 118.48 136.72 C 117.23 136.74 116.23 137.78 116.25 139.03 C 116.27 140.28 117.30 141.28 118.56 141.26 Z M 119.82 141.23 L 120.90 141.11 C 122.14 140.96 123.04 139.84 122.90 138.59 C 122.75 137.34 121.63 136.45 120.38 136.59 L 119.30 136.71 C 118.06 136.86 117.16 137.98 117.30 139.23 C 117.45 140.48 118.57 141.37 119.82 141.23 Z M 121.06 141.08 L 122.08 140.89 C 123.32 140.66 124.13 139.47 123.90 138.23 C 123.66 137.00 122.47 136.19 121.24 136.42 L 120.22 136.61 C 118.98 136.85 118.17 138.03 118.40 139.27 C 118.64 140.50 119.83 141.32 121.06 141.08 Z M 122.19 140.87 L 123.16 140.64 C 124.38 140.35 125.13 139.12 124.84 137.90 C 124.55 136.67 123.32 135.92 122.10 136.21 L 121.13 136.44 C 119.91 136.73 119.16 137.96 119.45 139.18 C 119.74 140.40 120.97 141.16 122.19 140.87 Z M 123.22 140.62 L 124.19 140.35 C 125.40 140.03 126.12 138.78 125.79 137.57 C 125.46 136.36 124.22 135.64 123.00 135.97 L 122.04 136.23 C 120.83 136.56 120.11 137.81 120.44 139.02 C 120.76 140.23 122.01 140.94 123.22 140.62 Z M 124.23 140.33 L 125.21 140.05 C 126.40 139.70 127.09 138.44 126.74 137.25 C 126.39 136.05 125.14 135.36 123.94 135.71 L 122.97 135.99 C 121.77 136.34 121.08 137.60 121.43 138.79 C 121.78 139.99 123.03 140.68 124.23 140.33 Z M 125.22 140.02 L 126.11 139.76 C 127.29 139.40 127.97 138.16 127.61 136.97 C 127.26 135.78 126.01 135.11 124.82 135.46 L 123.93 135.73 C 122.75 136.08 122.07 137.33 122.43 138.52 C 122.78 139.71 124.03 140.38 125.22 140.02 Z M 126.09 139.75 L 127.05 139.47 C 128.23 139.12 128.91 137.89 128.57 136.71 C 128.22 135.53 126.99 134.85 125.81 135.19 L 124.84 135.47 C 123.66 135.82 122.99 137.05 123.33 138.23 C 123.67 139.41 124.91 140.09 126.09 139.75 Z M 127.05 139.45 L 128.00 139.17 C 129.17 138.83 129.85 137.61 129.51 136.43 C 129.16 135.26 127.94 134.59 126.77 134.93 L 125.81 135.21 C 124.64 135.55 123.97 136.78 124.31 137.95 C 124.65 139.12 125.88 139.79 127.05 139.45 Z M 128.02 139.15 L 128.97 138.86 C 130.14 138.52 130.79 137.29 130.44 136.13 C 130.09 134.97 128.87 134.31 127.71 134.66 L 126.75 134.95 C 125.59 135.30 124.93 136.52 125.28 137.69 C 125.63 138.85 126.86 139.50 128.02 139.15 Z M 129.00 138.84 L 129.95 138.54 C 131.10 138.18 131.73 136.95 131.37 135.81 C 131.01 134.66 129.79 134.02 128.64 134.39 L 127.69 134.69 C 126.54 135.05 125.90 136.27 126.27 137.42 C 126.63 138.57 127.85 139.20 129.00 138.84 Z M 129.96 138.52 L 130.91 138.21 C 132.04 137.85 132.67 136.63 132.30 135.50 C 131.94 134.36 130.73 133.74 129.59 134.10 L 128.64 134.41 C 127.50 134.77 126.88 135.99 127.24 137.12 C 127.61 138.26 128.82 138.88 129.96 138.52 Z M 130.86 138.20 L 131.82 137.91 C 132.95 137.58 133.60 136.39 133.26 135.26 C 132.92 134.13 131.73 133.49 130.61 133.82 L 129.64 134.11 C 128.51 134.45 127.87 135.64 128.21 136.77 C 128.54 137.89 129.73 138.54 130.86 138.20 Z M 131.78 137.90 L 132.74 137.63 C 133.86 137.32 134.51 136.16 134.21 135.04 C 133.90 133.92 132.74 133.26 131.61 133.57 L 130.65 133.84 C 129.53 134.15 128.87 135.31 129.18 136.43 C 129.49 137.55 130.65 138.21 131.78 137.90 Z M 132.74 137.60 L 133.70 137.33 C 134.80 137.02 135.44 135.87 135.13 134.77 C 134.82 133.67 133.67 133.02 132.57 133.33 L 131.61 133.60 C 130.51 133.92 129.86 135.06 130.18 136.17 C 130.49 137.27 131.63 137.91 132.74 137.60 Z M 133.67 137.31 L 134.63 137.04 C 135.72 136.74 136.36 135.62 136.06 134.53 C 135.76 133.44 134.64 132.80 133.55 133.10 L 132.59 133.36 C 131.50 133.66 130.86 134.79 131.16 135.88 C 131.46 136.97 132.58 137.61 133.67 137.31 Z M 134.57 137.02 L 135.51 136.79 C 136.59 136.53 137.25 135.44 136.98 134.36 C 136.72 133.28 135.63 132.62 134.55 132.89 L 133.61 133.12 C 132.53 133.38 131.87 134.47 132.14 135.55 C 132.40 136.63 133.49 137.29 134.57 137.02 Z M 135.46 136.77 L 136.47 136.54 C 137.54 136.30 138.20 135.24 137.96 134.18 C 137.72 133.12 136.67 132.45 135.60 132.69 L 134.60 132.91 C 133.53 133.15 132.86 134.21 133.10 135.27 C 133.34 136.34 134.40 137.01 135.46 136.77 Z M 136.43 136.52 L 137.42 136.31 C 138.47 136.10 139.15 135.07 138.94 134.02 C 138.72 132.97 137.70 132.29 136.64 132.50 L 135.65 132.71 C 134.60 132.92 133.92 133.95 134.13 135.00 C 134.35 136.05 135.38 136.73 136.43 136.52 Z M 137.31 136.31 L 138.31 136.16 C 139.35 136.01 140.08 135.03 139.92 133.99 C 139.77 132.94 138.80 132.21 137.75 132.37 L 136.75 132.51 C 135.71 132.67 134.98 133.64 135.14 134.69 C 135.29 135.73 136.26 136.46 137.31 136.31 Z M 138.12 136.14 L 139.13 136.09 C 140.17 136.03 140.96 135.15 140.91 134.11 C 140.86 133.08 139.97 132.28 138.94 132.33 L 137.93 132.39 C 136.89 132.44 136.10 133.32 136.15 134.36 C 136.20 135.40 137.09 136.19 138.12 136.14 Z M 139.04 136.06 L 139.56 136.05 C 140.58 136.05 141.40 135.22 141.40 134.20 C 141.39 133.18 140.56 132.36 139.54 132.37 L 139.03 132.37 C 138.01 132.37 137.18 133.20 137.19 134.22 C 137.19 135.24 138.02 136.06 139.04 136.06 Z"
      fill="black"
      fill-rule="nonzero" /><path d="M 120.09 148.40 L 121.03 148.71 C 122.12 149.08 123.31 148.49 123.68 147.40 C 124.05 146.31 123.46 145.12 122.36 144.75 L 121.43 144.44 C 120.33 144.07 119.15 144.65 118.78 145.75 C 118.41 146.84 119.00 148.03 120.09 148.40 Z M 121.24 148.90 L 122.23 149.10 C 123.42 149.35 124.59 148.59 124.85 147.39 C 125.10 146.20 124.33 145.03 123.14 144.78 L 122.15 144.57 C 120.96 144.32 119.78 145.08 119.53 146.28 C 119.28 147.47 120.05 148.64 121.24 148.90 Z M 122.63 149.21 L 123.57 149.23 C 124.82 149.26 125.86 148.27 125.89 147.02 C 125.92 145.77 124.93 144.73 123.68 144.70 L 122.74 144.67 C 121.49 144.64 120.45 145.63 120.42 146.88 C 120.38 148.13 121.37 149.17 122.63 149.21 Z M 123.87 149.21 L 124.89 149.10 C 126.13 148.97 127.03 147.85 126.90 146.61 C 126.77 145.37 125.65 144.47 124.41 144.60 L 123.38 144.71 C 122.14 144.85 121.24 145.96 121.38 147.21 C 121.51 148.45 122.63 149.35 123.87 149.21 Z M 125.06 149.06 L 126.03 148.88 C 127.26 148.66 128.06 147.48 127.83 146.26 C 127.61 145.04 126.43 144.23 125.21 144.46 L 124.24 144.64 C 123.02 144.87 122.21 146.04 122.44 147.26 C 122.67 148.49 123.84 149.29 125.06 149.06 Z M 126.13 148.84 L 127.10 148.62 C 128.30 148.34 129.05 147.14 128.77 145.94 C 128.49 144.74 127.29 143.99 126.09 144.27 L 125.12 144.50 C 123.92 144.78 123.17 145.98 123.45 147.18 C 123.73 148.38 124.93 149.12 126.13 148.84 Z M 127.16 148.58 L 128.17 148.31 C 129.34 148.00 130.05 146.79 129.73 145.61 C 129.42 144.43 128.21 143.73 127.03 144.04 L 126.03 144.31 C 124.85 144.62 124.15 145.83 124.46 147.01 C 124.77 148.19 125.98 148.89 127.16 148.58 Z M 128.20 148.27 L 129.22 147.98 C 130.38 147.65 131.05 146.44 130.72 145.29 C 130.39 144.13 129.18 143.46 128.03 143.79 L 127.00 144.09 C 125.85 144.42 125.18 145.62 125.51 146.78 C 125.84 147.93 127.04 148.60 128.20 148.27 Z M 129.23 147.93 L 130.19 147.64 C 131.32 147.31 131.96 146.12 131.63 144.99 C 131.29 143.86 130.11 143.22 128.98 143.56 L 128.02 143.84 C 126.89 144.18 126.25 145.36 126.58 146.49 C 126.92 147.62 128.10 148.26 129.23 147.93 Z M 130.17 147.60 L 131.05 147.34 C 132.16 147.02 132.79 145.86 132.47 144.75 C 132.14 143.65 130.98 143.01 129.87 143.34 L 128.99 143.60 C 127.89 143.92 127.26 145.09 127.58 146.19 C 127.91 147.30 129.07 147.93 130.17 147.60 Z M 131.02 147.30 L 131.91 147.05 C 132.99 146.74 133.61 145.61 133.31 144.53 C 133.00 143.45 131.87 142.82 130.79 143.13 L 129.91 143.38 C 128.83 143.69 128.20 144.82 128.51 145.90 C 128.81 146.98 129.94 147.61 131.02 147.30 Z M 131.89 147.00 L 132.91 146.71 C 133.97 146.41 134.58 145.32 134.28 144.26 C 133.98 143.21 132.89 142.60 131.84 142.89 L 130.81 143.18 C 129.76 143.48 129.15 144.57 129.44 145.63 C 129.74 146.68 130.83 147.29 131.89 147.00 Z M 132.90 146.68 L 133.84 146.41 C 134.88 146.12 135.48 145.04 135.19 144.01 C 134.90 142.97 133.82 142.37 132.79 142.66 L 131.84 142.92 C 130.81 143.22 130.20 144.29 130.50 145.33 C 130.79 146.37 131.87 146.97 132.90 146.68 Z M 133.82 146.40 L 134.84 146.12 C 135.87 145.84 136.48 144.78 136.20 143.75 C 135.92 142.72 134.86 142.11 133.83 142.39 L 132.81 142.67 C 131.78 142.95 131.17 144.01 131.45 145.04 C 131.73 146.07 132.79 146.68 133.82 146.40 Z M 134.79 146.12 L 135.77 145.88 C 136.79 145.62 137.42 144.58 137.16 143.56 C 136.91 142.53 135.87 141.90 134.85 142.16 L 133.87 142.40 C 132.85 142.65 132.22 143.69 132.47 144.72 C 132.73 145.75 133.77 146.37 134.79 146.12 Z M 135.67 145.87 L 136.77 145.65 C 137.80 145.45 138.46 144.46 138.26 143.44 C 138.06 142.42 137.07 141.75 136.05 141.95 L 134.94 142.17 C 133.92 142.37 133.26 143.36 133.46 144.38 C 133.66 145.40 134.65 146.07 135.67 145.87 Z M 136.65 145.63 L 137.57 145.51 C 138.58 145.38 139.29 144.45 139.16 143.44 C 139.03 142.43 138.10 141.72 137.09 141.85 L 136.17 141.97 C 135.16 142.10 134.45 143.03 134.58 144.04 C 134.71 145.05 135.64 145.76 136.65 145.63 Z M 137.52 145.49 L 137.89 145.45 C 138.88 145.35 139.61 144.46 139.50 143.46 C 139.40 142.46 138.51 141.74 137.52 141.84 L 137.15 141.88 C 136.15 141.98 135.43 142.87 135.53 143.87 C 135.63 144.86 136.52 145.59 137.52 145.49 Z"
      fill="black"
      fill-rule="nonzero" /><path d="M 119.84 159.96 L 120.76 160.08 C 121.90 160.23 122.94 159.44 123.09 158.30 C 123.25 157.16 122.45 156.12 121.31 155.97 L 120.38 155.85 C 119.25 155.70 118.20 156.50 118.05 157.63 C 117.90 158.77 118.70 159.81 119.84 159.96 Z M 121.14 160.24 L 122.18 160.19 C 123.40 160.14 124.35 159.10 124.29 157.88 C 124.24 156.65 123.20 155.71 121.98 155.76 L 120.94 155.81 C 119.71 155.87 118.77 156.91 118.82 158.13 C 118.88 159.35 119.92 160.30 121.14 160.24 Z M 122.54 160.21 L 123.53 160.01 C 124.76 159.75 125.55 158.55 125.30 157.32 C 125.04 156.08 123.84 155.29 122.61 155.54 L 121.62 155.75 C 120.39 156.00 119.59 157.21 119.85 158.44 C 120.10 159.67 121.31 160.46 122.54 160.21 Z M 123.66 159.97 L 124.64 159.71 C 125.85 159.38 126.57 158.13 126.24 156.92 C 125.91 155.70 124.66 154.99 123.45 155.31 L 122.47 155.58 C 121.26 155.91 120.54 157.16 120.87 158.37 C 121.20 159.58 122.45 160.30 123.66 159.97 Z M 124.67 159.68 L 125.70 159.39 C 126.90 159.04 127.59 157.78 127.24 156.58 C 126.89 155.38 125.63 154.69 124.44 155.04 L 123.41 155.34 C 122.21 155.69 121.52 156.94 121.87 158.14 C 122.22 159.34 123.47 160.03 124.67 159.68 Z M 125.72 159.35 L 126.61 159.08 C 127.79 158.72 128.45 157.47 128.10 156.29 C 127.74 155.11 126.49 154.44 125.31 154.80 L 124.42 155.07 C 123.23 155.43 122.57 156.68 122.93 157.86 C 123.29 159.05 124.54 159.71 125.72 159.35 Z M 126.62 159.05 L 127.57 158.75 C 128.73 158.39 129.38 157.15 129.02 155.98 C 128.65 154.82 127.41 154.17 126.25 154.54 L 125.30 154.84 C 124.13 155.20 123.48 156.44 123.85 157.60 C 124.21 158.77 125.45 159.41 126.62 159.05 Z M 127.54 158.73 L 128.49 158.44 C 129.64 158.10 130.29 156.88 129.94 155.73 C 129.60 154.57 128.38 153.92 127.23 154.27 L 126.28 154.56 C 125.12 154.91 124.47 156.12 124.82 157.28 C 125.17 158.43 126.39 159.08 127.54 158.73 Z M 128.48 158.42 L 129.44 158.13 C 130.58 157.79 131.23 156.58 130.88 155.45 C 130.54 154.31 129.34 153.66 128.20 154.01 L 127.24 154.30 C 126.10 154.64 125.45 155.84 125.80 156.98 C 126.14 158.12 127.34 158.76 128.48 158.42 Z M 129.48 158.09 L 130.43 157.78 C 131.55 157.41 132.16 156.22 131.80 155.10 C 131.44 153.98 130.24 153.37 129.12 153.74 L 128.17 154.05 C 127.05 154.41 126.44 155.61 126.80 156.72 C 127.17 157.84 128.36 158.45 129.48 158.09 Z M 130.45 157.74 L 131.34 157.44 C 132.44 157.07 133.03 155.87 132.65 154.78 C 132.28 153.68 131.09 153.09 129.99 153.47 L 129.10 153.77 C 128.00 154.14 127.42 155.34 127.79 156.43 C 128.17 157.53 129.36 158.12 130.45 157.74 Z M 131.33 157.42 L 132.19 157.13 C 133.27 156.76 133.85 155.58 133.48 154.50 C 133.12 153.41 131.94 152.83 130.85 153.20 L 130.00 153.49 C 128.92 153.86 128.34 155.03 128.70 156.12 C 129.07 157.20 130.25 157.78 131.33 157.42 Z M 132.16 157.11 L 133.23 156.76 C 134.31 156.41 134.90 155.25 134.54 154.17 C 134.19 153.09 133.03 152.51 131.95 152.86 L 130.88 153.22 C 129.80 153.57 129.22 154.73 129.57 155.81 C 129.93 156.88 131.09 157.47 132.16 157.11 Z M 133.21 156.75 L 134.16 156.44 C 135.23 156.10 135.82 154.96 135.48 153.89 C 135.14 152.82 133.99 152.23 132.92 152.57 L 131.97 152.88 C 130.90 153.22 130.31 154.36 130.66 155.43 C 131.00 156.50 132.14 157.09 133.21 156.75 Z M 134.14 156.44 L 135.15 156.12 C 136.21 155.79 136.81 154.66 136.48 153.60 C 136.15 152.53 135.02 151.94 133.95 152.27 L 132.94 152.58 C 131.88 152.91 131.28 154.04 131.61 155.11 C 131.94 156.17 133.08 156.77 134.14 156.44 Z M 135.12 156.12 L 136.06 155.84 C 137.12 155.53 137.73 154.41 137.42 153.35 C 137.10 152.29 135.99 151.68 134.93 151.99 L 133.98 152.27 C 132.92 152.58 132.31 153.70 132.63 154.76 C 132.94 155.82 134.05 156.43 135.12 156.12 Z M 135.92 155.84 L 137.17 155.56 C 138.23 155.33 138.90 154.28 138.66 153.22 C 138.43 152.16 137.38 151.49 136.32 151.72 L 135.07 152.00 C 134.01 152.23 133.34 153.28 133.57 154.34 C 133.81 155.40 134.86 156.07 135.92 155.84 Z M 135.70 155.23 L 136.09 155.49 C 136.97 156.06 138.15 155.82 138.72 154.94 C 139.30 154.07 139.06 152.89 138.18 152.31 L 137.79 152.05 C 136.91 151.48 135.73 151.72 135.16 152.60 C 134.58 153.47 134.82 154.65 135.70 155.23 Z M 135.53 152.99 L 135.07 153.80 C 134.57 154.69 134.88 155.81 135.77 156.31 C 136.65 156.82 137.78 156.50 138.28 155.62 L 138.74 154.81 C 139.24 153.92 138.93 152.79 138.04 152.29 C 137.16 151.79 136.03 152.10 135.53 152.99 Z M 135.33 153.50 L 134.57 154.35 C 133.90 155.10 133.96 156.24 134.71 156.91 C 135.45 157.58 136.60 157.51 137.27 156.77 L 138.03 155.92 C 138.70 155.17 138.63 154.02 137.89 153.36 C 137.14 152.69 135.99 152.75 135.33 153.50 Z M 134.69 154.24 L 133.97 154.91 C 133.24 155.58 133.19 156.72 133.87 157.45 C 134.55 158.18 135.69 158.23 136.42 157.55 L 137.14 156.88 C 137.87 156.20 137.91 155.06 137.24 154.33 C 136.56 153.60 135.42 153.56 134.69 154.24 Z M 134.04 154.85 L 133.25 155.51 C 132.49 156.14 132.38 157.28 133.02 158.04 C 133.66 158.80 134.79 158.91 135.56 158.27 L 136.35 157.61 C 137.11 156.97 137.21 155.84 136.57 155.08 C 135.94 154.31 134.80 154.21 134.04 154.85 Z M 133.29 155.47 L 132.51 156.09 C 131.73 156.71 131.59 157.84 132.21 158.62 C 132.83 159.40 133.96 159.53 134.74 158.92 L 135.52 158.30 C 136.30 157.68 136.43 156.55 135.81 155.77 C 135.20 154.99 134.07 154.86 133.29 155.47 Z M 132.54 156.07 L 131.73 156.67 C 130.94 157.27 130.78 158.40 131.38 159.20 C 131.98 159.99 133.11 160.15 133.91 159.55 L 134.71 158.94 C 135.50 158.34 135.66 157.21 135.06 156.42 C 134.46 155.63 133.33 155.47 132.54 156.07 Z M 131.77 156.65 L 130.95 157.24 C 130.14 157.82 129.96 158.95 130.54 159.76 C 131.13 160.56 132.25 160.74 133.06 160.16 L 133.87 159.57 C 134.68 158.99 134.86 157.86 134.28 157.06 C 133.70 156.25 132.57 156.07 131.77 156.65 Z M 130.98 157.22 L 130.15 157.80 C 129.33 158.36 129.12 159.48 129.69 160.30 C 130.25 161.12 131.38 161.32 132.19 160.76 L 133.03 160.18 C 133.84 159.62 134.05 158.49 133.48 157.68 C 132.92 156.86 131.80 156.66 130.98 157.22 Z M 130.17 157.78 L 129.35 158.33 C 128.52 158.88 128.30 160.00 128.85 160.83 C 129.40 161.65 130.52 161.88 131.35 161.32 L 132.17 160.77 C 133.00 160.22 133.22 159.10 132.67 158.28 C 132.11 157.45 130.99 157.23 130.17 157.78 Z M 129.36 158.32 L 128.52 158.87 C 127.69 159.42 127.45 160.53 128.00 161.37 C 128.54 162.20 129.66 162.43 130.49 161.89 L 131.34 161.34 C 132.17 160.79 132.40 159.67 131.85 158.84 C 131.31 158.01 130.19 157.77 129.36 158.32 Z M 128.53 158.85 L 127.69 159.39 C 126.85 159.93 126.60 161.05 127.14 161.89 C 127.68 162.74 128.80 162.98 129.64 162.44 L 130.48 161.90 C 131.33 161.36 131.57 160.24 131.03 159.40 C 130.49 158.56 129.37 158.31 128.53 158.85 Z M 127.71 159.37 L 126.86 159.90 C 126.00 160.43 125.74 161.55 126.27 162.40 C 126.80 163.26 127.92 163.52 128.77 162.99 L 129.62 162.46 C 130.48 161.93 130.74 160.81 130.21 159.96 C 129.68 159.11 128.56 158.84 127.71 159.37 Z M 126.88 159.87 L 126.00 160.40 C 125.13 160.92 124.84 162.04 125.36 162.90 C 125.87 163.77 126.99 164.06 127.86 163.54 L 128.75 163.01 C 129.61 162.50 129.90 161.38 129.39 160.51 C 128.87 159.65 127.75 159.36 126.88 159.87 Z M 126.03 160.37 L 125.20 160.84 C 124.32 161.33 124.00 162.45 124.49 163.33 C 124.99 164.21 126.10 164.53 126.98 164.04 L 127.82 163.57 C 128.70 163.08 129.02 161.96 128.52 161.08 C 128.03 160.20 126.92 159.88 126.03 160.37 Z M 125.26 160.79 L 124.33 161.26 C 123.42 161.72 123.06 162.83 123.52 163.74 C 123.98 164.65 125.09 165.01 126.00 164.55 L 126.92 164.09 C 127.83 163.62 128.20 162.51 127.74 161.60 C 127.28 160.69 126.17 160.33 125.26 160.79 Z M 124.40 161.18 L 123.49 161.58 C 122.53 162.01 122.10 163.12 122.52 164.08 C 122.94 165.03 124.06 165.46 125.01 165.04 L 125.93 164.63 C 126.88 164.21 127.32 163.10 126.89 162.14 C 126.47 161.19 125.36 160.76 124.40 161.18 Z M 123.20 161.59 L 122.36 162.11 C 121.41 162.69 121.11 163.93 121.69 164.88 C 122.28 165.83 123.52 166.13 124.47 165.55 L 125.31 165.03 C 126.26 164.45 126.55 163.21 125.97 162.26 C 125.39 161.31 124.14 161.01 123.20 161.59 Z M 121.46 164.72 L 121.78 165.41 C 122.27 166.49 123.54 166.96 124.62 166.47 C 125.70 165.97 126.17 164.70 125.68 163.62 L 125.36 162.93 C 124.87 161.85 123.60 161.38 122.52 161.87 C 121.44 162.37 120.97 163.64 121.46 164.72 Z M 122.11 165.99 L 122.86 166.80 C 123.67 167.70 125.05 167.76 125.94 166.95 C 126.84 166.14 126.90 164.75 126.09 163.86 L 125.34 163.04 C 124.53 162.15 123.15 162.08 122.25 162.90 C 121.36 163.71 121.30 165.09 122.11 165.99 Z M 122.61 166.50 L 123.14 167.34 C 123.79 168.37 125.15 168.68 126.17 168.03 C 127.20 167.38 127.51 166.03 126.86 165.00 L 126.33 164.16 C 125.68 163.13 124.33 162.82 123.30 163.47 C 122.27 164.12 121.97 165.48 122.61 166.50 Z M 123.02 167.13 L 123.45 168.01 C 123.98 169.10 125.29 169.56 126.38 169.03 C 127.48 168.51 127.94 167.19 127.41 166.10 L 126.98 165.22 C 126.45 164.12 125.14 163.66 124.05 164.19 C 122.95 164.72 122.49 166.04 123.02 167.13 Z M 123.38 167.85 L 123.75 168.80 C 124.19 169.93 125.46 170.49 126.60 170.05 C 127.73 169.61 128.29 168.33 127.85 167.20 L 127.48 166.25 C 127.04 165.12 125.76 164.56 124.63 165.00 C 123.50 165.45 122.94 166.72 123.38 167.85 Z M 123.70 168.64 L 123.97 169.52 C 124.32 170.68 125.55 171.33 126.71 170.98 C 127.87 170.62 128.52 169.40 128.16 168.24 L 127.89 167.36 C 127.54 166.20 126.31 165.55 125.16 165.90 C 124.00 166.25 123.34 167.48 123.70 168.64 Z M 123.93 169.36 L 124.15 170.34 C 124.42 171.51 125.59 172.25 126.76 171.99 C 127.94 171.72 128.68 170.55 128.42 169.38 L 128.20 168.40 C 127.93 167.22 126.76 166.48 125.59 166.75 C 124.41 167.01 123.67 168.18 123.93 169.36 Z M 124.14 170.19 L 124.31 171.25 C 124.49 172.44 125.61 173.24 126.79 173.06 C 127.98 172.87 128.79 171.76 128.60 170.57 L 128.43 169.52 C 128.24 168.33 127.13 167.52 125.95 167.71 C 124.76 167.90 123.95 169.01 124.14 170.19 Z M 124.31 171.16 L 124.43 172.16 C 124.56 173.35 125.63 174.20 126.82 174.06 C 128.00 173.92 128.85 172.85 128.71 171.67 L 128.60 170.66 C 128.46 169.48 127.39 168.63 126.20 168.77 C 125.02 168.90 124.17 169.98 124.31 171.16 Z M 124.44 172.11 L 124.53 173.13 C 124.63 174.31 125.67 175.18 126.85 175.07 C 128.03 174.97 128.90 173.93 128.79 172.75 L 128.70 171.73 C 128.60 170.55 127.56 169.68 126.38 169.78 C 125.20 169.89 124.33 170.93 124.44 172.11 Z M 124.54 173.08 L 124.60 174.10 C 124.68 175.27 125.69 176.16 126.86 176.09 C 128.03 176.01 128.92 175.01 128.84 173.84 L 128.78 172.81 C 128.71 171.64 127.70 170.75 126.53 170.82 C 125.36 170.90 124.47 171.90 124.54 173.08 Z M 124.61 174.02 L 124.64 175.08 C 124.67 176.25 125.64 177.17 126.81 177.14 C 127.97 177.11 128.89 176.14 128.86 174.97 L 128.84 173.91 C 128.81 172.75 127.84 171.83 126.67 171.86 C 125.50 171.89 124.58 172.86 124.61 174.02 Z M 124.65 174.97 L 124.63 175.89 C 124.60 177.05 125.51 178.01 126.67 178.04 C 127.84 178.07 128.80 177.16 128.83 175.99 L 128.85 175.08 C 128.88 173.92 127.97 172.95 126.81 172.92 C 125.65 172.89 124.68 173.81 124.65 174.97 Z M 124.65 175.74 L 124.55 176.72 C 124.44 177.87 125.29 178.89 126.44 179.00 C 127.59 179.11 128.61 178.27 128.72 177.12 L 128.81 176.14 C 128.92 174.99 128.08 173.97 126.93 173.86 C 125.78 173.75 124.75 174.59 124.65 175.74 Z M 124.61 176.46 L 124.39 177.43 C 124.13 178.55 124.84 179.66 125.96 179.92 C 127.08 180.17 128.19 179.47 128.45 178.35 L 128.67 177.38 C 128.92 176.26 128.22 175.14 127.10 174.89 C 125.97 174.63 124.86 175.34 124.61 176.46 Z M 124.52 177.04 L 124.04 178.14 C 123.57 179.18 124.04 180.41 125.09 180.87 C 126.13 181.34 127.36 180.87 127.82 179.82 L 128.31 178.73 C 128.77 177.68 128.30 176.46 127.26 175.99 C 126.21 175.53 124.99 176.00 124.52 177.04 Z M 124.73 177.31 L 124.27 177.64 C 123.35 178.30 123.14 179.59 123.81 180.51 C 124.47 181.43 125.75 181.64 126.67 180.98 L 127.13 180.65 C 128.05 179.99 128.26 178.70 127.60 177.78 C 126.93 176.86 125.65 176.65 124.73 177.31 Z M 127.49 179.21 L 127.44 178.23 C 127.38 177.12 126.44 176.26 125.32 176.32 C 124.21 176.37 123.36 177.32 123.41 178.43 L 123.46 179.41 C 123.52 180.52 124.46 181.38 125.58 181.32 C 126.69 181.27 127.54 180.32 127.49 179.21 Z M 127.33 178.83 L 127.61 177.81 C 127.88 176.75 127.25 175.67 126.20 175.39 C 125.14 175.11 124.06 175.74 123.79 176.80 L 123.51 177.82 C 123.24 178.88 123.87 179.96 124.92 180.24 C 125.98 180.52 127.06 179.89 127.33 178.83 Z M 127.47 178.13 L 127.89 177.21 C 128.35 176.24 127.92 175.07 126.94 174.62 C 125.96 174.16 124.80 174.59 124.35 175.57 L 123.92 176.48 C 123.47 177.46 123.89 178.62 124.87 179.07 C 125.85 179.53 127.01 179.11 127.47 178.13 Z M 127.79 177.38 L 128.30 176.51 C 128.85 175.59 128.55 174.40 127.63 173.85 C 126.71 173.31 125.52 173.61 124.97 174.53 L 124.45 175.40 C 123.90 176.32 124.21 177.51 125.13 178.06 C 126.05 178.60 127.24 178.30 127.79 177.38 Z M 128.22 176.62 L 128.79 175.80 C 129.39 174.92 129.17 173.72 128.30 173.12 C 127.43 172.51 126.23 172.73 125.62 173.61 L 125.05 174.42 C 124.45 175.30 124.67 176.50 125.54 177.10 C 126.42 177.71 127.62 177.49 128.22 176.62 Z M 128.71 175.88 L 129.34 175.08 C 129.99 174.25 129.84 173.05 129.01 172.40 C 128.18 171.74 126.98 171.89 126.33 172.72 L 125.70 173.52 C 125.05 174.35 125.19 175.56 126.02 176.21 C 126.85 176.86 128.06 176.71 128.71 175.88 Z M 129.26 175.16 L 129.92 174.40 C 130.62 173.62 130.54 172.41 129.75 171.72 C 128.97 171.02 127.76 171.10 127.07 171.89 L 126.41 172.64 C 125.71 173.43 125.79 174.63 126.58 175.33 C 127.36 176.02 128.57 175.95 129.26 175.16 Z M 129.85 174.48 L 130.55 173.77 C 131.29 173.02 131.28 171.82 130.53 171.08 C 129.79 170.35 128.59 170.36 127.85 171.10 L 127.15 171.81 C 126.41 172.56 126.42 173.76 127.16 174.50 C 127.91 175.23 129.11 175.23 129.85 174.48 Z M 130.47 173.84 L 131.21 173.17 C 131.99 172.47 132.05 171.27 131.35 170.50 C 130.65 169.72 129.45 169.66 128.68 170.36 L 127.93 171.03 C 127.16 171.73 127.10 172.93 127.80 173.70 C 128.50 174.48 129.69 174.54 130.47 173.84 Z M 131.12 173.24 L 131.91 172.61 C 132.72 171.96 132.86 170.77 132.21 169.96 C 131.55 169.14 130.37 169.01 129.55 169.66 L 128.76 170.29 C 127.95 170.94 127.82 172.13 128.47 172.94 C 129.12 173.76 130.31 173.89 131.12 173.24 Z M 131.82 172.68 L 132.63 172.10 C 133.48 171.50 133.68 170.33 133.08 169.47 C 132.48 168.62 131.30 168.42 130.45 169.02 L 129.64 169.59 C 128.79 170.19 128.59 171.37 129.19 172.22 C 129.79 173.08 130.97 173.28 131.82 172.68 Z M 132.53 172.17 L 133.42 171.62 C 134.30 171.07 134.57 169.91 134.02 169.02 C 133.48 168.14 132.31 167.86 131.43 168.41 L 130.55 168.96 C 129.66 169.51 129.39 170.67 129.94 171.56 C 130.49 172.44 131.65 172.71 132.53 172.17 Z M 133.30 171.68 L 134.19 171.21 C 135.11 170.73 135.46 169.59 134.97 168.66 C 134.49 167.74 133.35 167.39 132.43 167.88 L 131.54 168.35 C 130.62 168.84 130.27 169.98 130.75 170.90 C 131.24 171.82 132.38 172.17 133.30 171.68 Z M 134.03 171.29 L 134.94 170.92 C 135.90 170.52 136.36 169.42 135.97 168.45 C 135.57 167.49 134.47 167.03 133.50 167.42 L 132.59 167.80 C 131.63 168.20 131.16 169.30 131.56 170.26 C 131.96 171.23 133.06 171.69 134.03 171.29 Z M 134.64 171.02 L 135.60 170.80 C 136.62 170.57 137.26 169.56 137.03 168.54 C 136.80 167.52 135.79 166.88 134.77 167.11 L 133.80 167.32 C 132.78 167.55 132.14 168.57 132.37 169.59 C 132.61 170.61 133.62 171.25 134.64 171.02 Z M 135.15 170.87 L 136.16 170.88 C 137.22 170.90 138.09 170.06 138.10 169.00 C 138.12 167.95 137.28 167.08 136.22 167.06 L 135.21 167.04 C 134.16 167.03 133.29 167.87 133.27 168.92 C 133.25 169.98 134.10 170.85 135.15 170.87 Z M 135.51 170.79 L 136.42 171.14 C 137.43 171.51 138.55 171.00 138.93 169.99 C 139.31 168.98 138.79 167.86 137.79 167.49 L 136.87 167.15 C 135.87 166.77 134.74 167.28 134.37 168.29 C 133.99 169.30 134.50 170.42 135.51 170.79 Z M 135.43 170.38 L 135.90 171.12 C 136.49 172.05 137.72 172.32 138.65 171.73 C 139.57 171.14 139.84 169.91 139.25 168.99 L 138.78 168.24 C 138.19 167.32 136.96 167.05 136.04 167.64 C 135.11 168.23 134.84 169.45 135.43 170.38 Z M 135.58 170.31 L 135.71 171.36 C 135.85 172.47 136.86 173.25 137.97 173.11 C 139.07 172.97 139.85 171.96 139.71 170.86 L 139.58 169.80 C 139.44 168.70 138.43 167.91 137.32 168.05 C 136.22 168.19 135.44 169.20 135.58 170.31 Z M 135.67 171.10 L 135.67 172.04 C 135.67 173.16 136.58 174.08 137.70 174.08 C 138.83 174.08 139.74 173.18 139.75 172.05 L 139.75 171.12 C 139.75 169.99 138.84 169.08 137.72 169.07 C 136.59 169.07 135.68 169.98 135.67 171.10 Z M 135.67 171.80 L 135.55 172.83 C 135.42 173.96 136.22 174.98 137.34 175.11 C 138.47 175.25 139.49 174.44 139.62 173.32 L 139.74 172.29 C 139.88 171.16 139.07 170.14 137.95 170.01 C 136.83 169.87 135.81 170.68 135.67 171.80 Z M 135.59 172.56 L 135.33 173.58 C 135.04 174.68 135.70 175.81 136.81 176.09 C 137.91 176.38 139.04 175.71 139.32 174.61 L 139.58 173.59 C 139.87 172.49 139.20 171.36 138.10 171.08 C 137.00 170.79 135.87 171.46 135.59 172.56 Z M 135.37 173.38 L 135.02 174.35 C 134.62 175.43 135.18 176.62 136.25 177.02 C 137.33 177.41 138.52 176.86 138.92 175.78 L 139.27 174.81 C 139.67 173.73 139.11 172.54 138.04 172.15 C 136.96 171.75 135.77 172.30 135.37 173.38 Z M 135.05 174.23 L 134.67 175.10 C 134.21 176.16 134.69 177.39 135.75 177.85 C 136.81 178.31 138.04 177.83 138.50 176.77 L 138.88 175.90 C 139.34 174.85 138.86 173.62 137.80 173.15 C 136.75 172.69 135.52 173.17 135.05 174.23 Z M 134.71 174.99 L 134.22 175.97 C 133.70 177.00 134.12 178.26 135.15 178.78 C 136.19 179.31 137.45 178.89 137.97 177.85 L 138.46 176.88 C 138.98 175.85 138.57 174.58 137.53 174.06 C 136.50 173.54 135.23 173.96 134.71 174.99 Z M 134.28 175.85 L 133.82 176.63 C 133.23 177.63 133.57 178.93 134.58 179.51 C 135.58 180.10 136.87 179.76 137.46 178.76 L 137.92 177.97 C 138.51 176.97 138.17 175.68 137.16 175.09 C 136.16 174.50 134.86 174.84 134.28 175.85 Z M 133.86 176.54 L 133.32 177.37 C 132.68 178.36 132.96 179.67 133.94 180.31 C 134.92 180.94 136.24 180.67 136.87 179.68 L 137.42 178.85 C 138.06 177.87 137.78 176.55 136.79 175.92 C 135.81 175.28 134.50 175.56 133.86 176.54 Z M 133.39 177.25 L 132.79 178.05 C 132.09 178.99 132.28 180.33 133.22 181.03 C 134.16 181.74 135.50 181.55 136.20 180.60 L 136.80 179.81 C 137.51 178.86 137.32 177.53 136.37 176.82 C 135.43 176.12 134.09 176.31 133.39 177.25 Z M 132.85 177.97 L 132.21 178.74 C 131.46 179.65 131.59 181.00 132.50 181.75 C 133.41 182.50 134.76 182.38 135.51 181.46 L 136.15 180.69 C 136.90 179.78 136.77 178.43 135.86 177.68 C 134.95 176.93 133.60 177.05 132.85 177.97 Z M 132.22 178.71 L 131.63 179.41 C 130.87 180.31 130.98 181.66 131.88 182.43 C 132.78 183.20 134.13 183.09 134.90 182.19 L 135.49 181.49 C 136.26 180.59 136.15 179.24 135.25 178.47 C 134.35 177.70 132.99 177.81 132.22 178.71 Z M 131.69 179.34 L 130.96 180.13 C 130.15 181.00 130.20 182.36 131.07 183.16 C 131.94 183.97 133.30 183.92 134.10 183.05 L 134.84 182.26 C 135.65 181.39 135.60 180.03 134.73 179.22 C 133.86 178.42 132.50 178.47 131.69 179.34 Z M 131.03 180.05 L 130.34 180.73 C 129.49 181.56 129.48 182.92 130.31 183.77 C 131.14 184.61 132.50 184.63 133.35 183.80 L 134.04 183.13 C 134.88 182.29 134.90 180.93 134.07 180.08 C 133.23 179.24 131.87 179.22 131.03 180.05 Z M 130.40 180.67 L 129.63 181.37 C 128.75 182.16 128.69 183.53 129.49 184.40 C 130.29 185.28 131.65 185.35 132.53 184.55 L 133.29 183.85 C 134.17 183.05 134.24 181.69 133.44 180.81 C 132.64 179.93 131.28 179.87 130.40 180.67 Z M 129.71 181.29 L 128.90 181.96 C 127.98 182.72 127.85 184.08 128.60 184.99 C 129.36 185.91 130.71 186.04 131.63 185.29 L 132.45 184.62 C 133.37 183.87 133.50 182.51 132.74 181.59 C 131.99 180.67 130.63 180.54 129.71 181.29 Z M 129.03 181.87 L 128.18 182.47 C 127.21 183.15 126.98 184.49 127.66 185.46 C 128.35 186.43 129.69 186.67 130.66 185.98 L 131.51 185.38 C 132.48 184.70 132.71 183.36 132.02 182.39 C 131.34 181.42 130.00 181.18 129.03 181.87 Z M 128.35 182.36 L 127.55 182.82 C 126.52 183.41 126.16 184.73 126.76 185.76 C 127.35 186.78 128.66 187.14 129.69 186.55 L 130.49 186.09 C 131.52 185.49 131.88 184.18 131.28 183.15 C 130.69 182.12 129.38 181.77 128.35 182.36 Z M 127.79 182.71 L 126.84 183.11 C 125.76 183.57 125.25 184.83 125.71 185.91 C 126.16 187.00 127.42 187.51 128.51 187.05 L 129.45 186.65 C 130.54 186.19 131.05 184.94 130.59 183.85 C 130.13 182.76 128.88 182.25 127.79 182.71 Z M 127.18 183.03 L 126.22 183.26 C 125.08 183.54 124.39 184.68 124.66 185.82 C 124.94 186.95 126.08 187.65 127.22 187.37 L 128.17 187.14 C 129.31 186.86 130.01 185.72 129.73 184.58 C 129.45 183.45 128.31 182.75 127.18 183.03 Z M 126.76 183.24 L 125.74 183.22 C 124.59 183.20 123.65 184.12 123.63 185.26 C 123.61 186.41 124.52 187.35 125.67 187.37 L 126.68 187.39 C 127.83 187.41 128.77 186.50 128.79 185.35 C 128.81 184.21 127.90 183.26 126.76 183.24 Z M 126.99 183.75 L 126.34 183.21 C 125.49 182.50 124.22 182.62 123.51 183.47 C 122.80 184.33 122.91 185.60 123.77 186.31 L 124.42 186.85 C 125.27 187.56 126.54 187.44 127.25 186.58 C 127.96 185.73 127.84 184.46 126.99 183.75 Z M 126.93 184.24 L 126.66 183.28 C 126.37 182.25 125.30 181.64 124.27 181.93 C 123.24 182.21 122.63 183.28 122.92 184.32 L 123.19 185.28 C 123.47 186.31 124.54 186.91 125.57 186.63 C 126.61 186.34 127.21 185.27 126.93 184.24 Z M 126.66 183.68 L 126.60 182.63 C 126.53 181.59 125.64 180.81 124.61 180.87 C 123.57 180.94 122.79 181.83 122.85 182.86 L 122.92 183.92 C 122.98 184.95 123.87 185.73 124.91 185.67 C 125.94 185.60 126.73 184.71 126.66 183.68 Z M 126.56 182.78 L 126.58 181.78 C 126.59 180.76 125.79 179.93 124.77 179.91 C 123.75 179.89 122.92 180.70 122.90 181.72 L 122.88 182.72 C 122.87 183.73 123.68 184.57 124.69 184.58 C 125.71 184.60 126.55 183.79 126.56 182.78 Z M 126.55 181.84 L 126.60 180.84 C 126.65 179.84 125.88 178.99 124.88 178.94 C 123.87 178.89 123.02 179.66 122.97 180.67 L 122.93 181.66 C 122.88 182.66 123.65 183.51 124.65 183.56 C 125.65 183.61 126.50 182.84 126.55 181.84 Z"
      fill="black"
      fill-rule="nonzero" /><path d="M 143.67 137.54 L 144.58 137.76 C 145.66 138.03 146.74 137.38 147.01 136.31 C 147.28 135.23 146.62 134.15 145.55 133.88 L 144.64 133.65 C 143.57 133.39 142.48 134.04 142.22 135.11 C 141.95 136.18 142.60 137.27 143.67 137.54 Z M 144.70 137.95 L 145.70 138.13 C 146.88 138.33 148.00 137.55 148.20 136.37 C 148.41 135.20 147.62 134.08 146.45 133.87 L 145.44 133.69 C 144.26 133.49 143.14 134.27 142.94 135.45 C 142.73 136.63 143.52 137.75 144.70 137.95 Z M 145.91 138.26 L 146.92 138.34 C 148.18 138.43 149.26 137.49 149.36 136.24 C 149.45 134.99 148.51 133.90 147.26 133.81 L 146.24 133.73 C 144.99 133.64 143.90 134.58 143.81 135.83 C 143.72 137.08 144.66 138.17 145.91 138.26 Z M 147.08 138.38 L 148.11 138.39 C 149.38 138.39 150.42 137.36 150.43 136.09 C 150.44 134.81 149.41 133.77 148.13 133.77 L 147.10 133.76 C 145.83 133.76 144.79 134.79 144.78 136.06 C 144.78 137.34 145.81 138.38 147.08 138.38 Z M 148.21 138.40 L 149.21 138.36 C 150.49 138.31 151.49 137.23 151.44 135.94 C 151.39 134.66 150.31 133.66 149.02 133.71 L 148.02 133.75 C 146.74 133.80 145.74 134.89 145.79 136.17 C 145.85 137.46 146.93 138.46 148.21 138.40 Z M 149.31 138.37 L 150.36 138.29 C 151.65 138.18 152.61 137.05 152.50 135.76 C 152.40 134.47 151.26 133.51 149.97 133.62 L 148.92 133.70 C 147.63 133.81 146.68 134.94 146.78 136.23 C 146.89 137.52 148.02 138.48 149.31 138.37 Z M 150.46 138.29 L 151.42 138.16 C 152.71 138.00 153.62 136.82 153.45 135.54 C 153.29 134.25 152.11 133.33 150.83 133.50 L 149.87 133.62 C 148.58 133.78 147.67 134.96 147.83 136.25 C 148.00 137.54 149.17 138.45 150.46 138.29 Z M 151.49 138.16 L 152.43 138.01 C 153.71 137.81 154.59 136.60 154.39 135.32 C 154.19 134.03 152.98 133.15 151.70 133.35 L 150.76 133.50 C 149.47 133.70 148.59 134.91 148.79 136.20 C 148.99 137.48 150.20 138.36 151.49 138.16 Z M 152.47 138.01 L 153.45 137.84 C 154.74 137.61 155.59 136.39 155.37 135.10 C 155.14 133.82 153.92 132.96 152.64 133.19 L 151.65 133.36 C 150.37 133.58 149.51 134.81 149.74 136.09 C 149.96 137.38 151.18 138.23 152.47 138.01 Z M 153.49 137.83 L 154.48 137.64 C 155.76 137.40 156.60 136.16 156.36 134.88 C 156.12 133.60 154.88 132.76 153.60 133.00 L 152.60 133.19 C 151.32 133.44 150.48 134.67 150.72 135.95 C 150.97 137.24 152.20 138.08 153.49 137.83 Z M 154.51 137.64 L 155.47 137.44 C 156.75 137.18 157.58 135.94 157.32 134.66 C 157.06 133.38 155.81 132.55 154.53 132.81 L 153.57 133.01 C 152.29 133.26 151.46 134.51 151.72 135.79 C 151.98 137.07 153.23 137.90 154.51 137.64 Z M 155.49 137.44 L 156.49 137.23 C 157.76 136.96 158.58 135.71 158.31 134.43 C 158.04 133.15 156.79 132.34 155.51 132.61 L 154.52 132.82 C 153.24 133.08 152.42 134.34 152.69 135.61 C 152.96 136.89 154.21 137.71 155.49 137.44 Z M 156.50 137.22 L 157.46 137.02 C 158.74 136.74 159.55 135.49 159.27 134.21 C 159.00 132.94 157.74 132.13 156.47 132.40 L 155.50 132.61 C 154.23 132.88 153.42 134.14 153.69 135.41 C 153.97 136.69 155.22 137.50 156.50 137.22 Z M 157.47 137.01 L 158.45 136.79 C 159.71 136.51 160.52 135.26 160.24 133.99 C 159.96 132.72 158.71 131.92 157.44 132.20 L 156.46 132.41 C 155.19 132.69 154.39 133.94 154.67 135.21 C 154.95 136.48 156.20 137.29 157.47 137.01 Z M 158.45 136.78 L 159.45 136.56 C 160.72 136.28 161.51 135.03 161.23 133.76 C 160.95 132.50 159.69 131.70 158.43 131.98 L 157.43 132.21 C 156.17 132.49 155.37 133.74 155.65 135.01 C 155.93 136.27 157.19 137.07 158.45 136.78 Z M 159.46 136.55 L 160.42 136.33 C 161.68 136.05 162.47 134.80 162.19 133.54 C 161.90 132.28 160.65 131.49 159.39 131.77 L 158.42 131.99 C 157.17 132.28 156.38 133.53 156.66 134.79 C 156.95 136.05 158.20 136.84 159.46 136.55 Z M 160.42 136.32 L 161.40 136.10 C 162.66 135.81 163.44 134.57 163.16 133.31 C 162.87 132.06 161.62 131.27 160.37 131.56 L 159.39 131.78 C 158.13 132.07 157.35 133.32 157.64 134.57 C 157.92 135.83 159.17 136.61 160.42 136.32 Z M 161.40 136.09 L 162.38 135.87 C 163.63 135.58 164.41 134.34 164.13 133.09 C 163.84 131.84 162.60 131.06 161.35 131.34 L 160.37 131.57 C 159.12 131.85 158.34 133.10 158.62 134.35 C 158.91 135.60 160.15 136.38 161.40 136.09 Z M 162.38 135.85 L 163.34 135.63 C 164.58 135.35 165.36 134.11 165.08 132.87 C 164.79 131.63 163.56 130.85 162.31 131.14 L 161.35 131.36 C 160.11 131.64 159.33 132.88 159.62 134.12 C 159.90 135.36 161.14 136.14 162.38 135.85 Z M 163.34 135.62 L 164.31 135.40 C 165.54 135.11 166.31 133.88 166.03 132.65 C 165.75 131.42 164.52 130.65 163.29 130.93 L 162.32 131.15 C 161.08 131.44 160.31 132.66 160.60 133.90 C 160.88 135.13 162.11 135.90 163.34 135.62 Z M 164.31 135.38 L 165.30 135.15 C 166.52 134.87 167.29 133.65 167.01 132.42 C 166.72 131.20 165.50 130.44 164.28 130.72 L 163.29 130.95 C 162.07 131.23 161.30 132.45 161.58 133.67 C 161.87 134.90 163.09 135.66 164.31 135.38 Z M 165.30 135.13 L 166.29 134.90 C 167.50 134.62 168.25 133.41 167.97 132.20 C 167.69 130.98 166.48 130.23 165.27 130.51 L 164.28 130.74 C 163.07 131.02 162.31 132.23 162.60 133.44 C 162.88 134.66 164.09 135.41 165.30 135.13 Z M 166.29 134.87 L 167.27 134.64 C 168.47 134.36 169.21 133.16 168.93 131.96 C 168.65 130.77 167.45 130.02 166.25 130.31 L 165.27 130.54 C 164.07 130.82 163.33 132.02 163.61 133.22 C 163.89 134.41 165.09 135.16 166.29 134.87 Z M 167.28 134.62 L 168.23 134.39 C 169.41 134.10 170.14 132.91 169.85 131.73 C 169.57 130.55 168.38 129.82 167.19 130.10 L 166.25 130.33 C 165.06 130.62 164.33 131.81 164.62 132.99 C 164.90 134.17 166.09 134.90 167.28 134.62 Z M 168.24 134.36 L 169.25 134.11 C 170.42 133.82 171.14 132.64 170.85 131.47 C 170.56 130.30 169.37 129.59 168.20 129.88 L 167.19 130.13 C 166.02 130.42 165.30 131.60 165.59 132.77 C 165.88 133.94 167.07 134.65 168.24 134.36 Z M 169.25 134.08 L 170.21 133.85 C 171.37 133.55 172.07 132.38 171.78 131.23 C 171.49 130.07 170.31 129.37 169.16 129.66 L 168.20 129.90 C 167.05 130.19 166.35 131.36 166.64 132.52 C 166.93 133.67 168.10 134.37 169.25 134.08 Z M 170.19 133.83 L 171.14 133.59 C 172.28 133.31 172.98 132.16 172.70 131.01 C 172.42 129.87 171.27 129.17 170.12 129.45 L 169.18 129.68 C 168.03 129.96 167.33 131.12 167.61 132.26 C 167.89 133.41 169.05 134.11 170.19 133.83 Z M 171.11 133.57 L 172.10 133.34 C 173.23 133.08 173.94 131.94 173.67 130.81 C 173.41 129.67 172.27 128.97 171.14 129.24 L 170.15 129.47 C 169.02 129.73 168.31 130.87 168.58 132.00 C 168.84 133.14 169.98 133.84 171.11 133.57 Z M 172.07 133.32 L 173.03 133.11 C 174.15 132.86 174.86 131.74 174.61 130.62 C 174.36 129.50 173.24 128.79 172.12 129.04 L 171.16 129.25 C 170.04 129.51 169.33 130.62 169.58 131.74 C 169.83 132.87 170.95 133.57 172.07 133.32 Z M 173.01 133.09 L 174.00 132.87 C 175.12 132.63 175.82 131.54 175.58 130.43 C 175.35 129.32 174.25 128.61 173.14 128.85 L 172.14 129.06 C 171.03 129.30 170.32 130.40 170.56 131.51 C 170.80 132.62 171.90 133.33 173.01 133.09 Z M 174.00 132.85 L 174.96 132.64 C 176.06 132.41 176.76 131.32 176.53 130.23 C 176.29 129.13 175.21 128.43 174.11 128.67 L 173.15 128.87 C 172.05 129.11 171.35 130.19 171.58 131.29 C 171.82 132.38 172.90 133.08 174.00 132.85 Z M 174.97 132.61 L 175.97 132.39 C 177.05 132.15 177.73 131.08 177.49 130.00 C 177.25 128.91 176.18 128.23 175.10 128.47 L 174.10 128.70 C 173.02 128.94 172.34 130.01 172.58 131.09 C 172.82 132.17 173.89 132.85 174.97 132.61 Z M 175.96 132.36 L 176.93 132.15 C 177.99 131.91 178.67 130.85 178.43 129.79 C 178.19 128.72 177.14 128.05 176.07 128.29 L 175.10 128.50 C 174.04 128.74 173.36 129.79 173.60 130.86 C 173.84 131.93 174.89 132.60 175.96 132.36 Z M 176.87 132.13 L 177.85 131.94 C 178.91 131.73 179.60 130.71 179.39 129.65 C 179.19 128.59 178.16 127.90 177.10 128.11 L 176.12 128.30 C 175.07 128.51 174.38 129.54 174.58 130.59 C 174.79 131.65 175.82 132.34 176.87 132.13 Z M 177.79 131.92 L 178.76 131.76 C 179.81 131.59 180.52 130.60 180.34 129.55 C 180.17 128.50 179.18 127.79 178.13 127.97 L 177.17 128.13 C 176.12 128.30 175.41 129.29 175.58 130.34 C 175.75 131.39 176.74 132.09 177.79 131.92 Z M 178.72 131.74 L 179.68 131.60 C 180.72 131.45 181.43 130.49 181.28 129.45 C 181.13 128.42 180.17 127.70 179.14 127.85 L 178.17 127.99 C 177.14 128.14 176.42 129.10 176.57 130.14 C 176.72 131.17 177.69 131.89 178.72 131.74 Z M 179.60 131.58 L 180.62 131.47 C 181.64 131.37 182.39 130.45 182.28 129.42 C 182.17 128.40 181.25 127.65 180.23 127.76 L 179.21 127.87 C 178.19 127.98 177.45 128.89 177.55 129.92 C 177.66 130.94 178.58 131.69 179.60 131.58 Z M 180.53 131.46 L 181.51 131.40 C 182.53 131.35 183.31 130.47 183.25 129.46 C 183.19 128.44 182.32 127.66 181.30 127.72 L 180.32 127.78 C 179.30 127.83 178.52 128.71 178.58 129.72 C 178.64 130.74 179.51 131.52 180.53 131.46 Z M 181.47 131.39 L 182.39 131.36 C 183.40 131.32 184.19 130.47 184.15 129.46 C 184.11 128.45 183.26 127.66 182.25 127.70 L 181.34 127.73 C 180.33 127.77 179.54 128.62 179.58 129.63 C 179.61 130.64 180.46 131.43 181.47 131.39 Z"
      fill="black"
      fill-rule="nonzero" /><path d="M 150.33 139.59 L 150.00 140.47 C 149.62 141.51 150.15 142.65 151.19 143.03 C 152.23 143.41 153.37 142.88 153.75 141.85 L 154.08 140.97 C 154.46 139.93 153.93 138.78 152.89 138.40 C 151.86 138.02 150.71 138.55 150.33 139.59 Z M 149.88 140.67 L 149.63 141.68 C 149.36 142.78 150.04 143.90 151.15 144.17 C 152.25 144.44 153.37 143.76 153.64 142.65 L 153.88 141.65 C 154.15 140.54 153.47 139.43 152.37 139.16 C 151.26 138.89 150.15 139.57 149.88 140.67 Z M 149.54 141.97 L 149.45 142.99 C 149.34 144.14 150.19 145.16 151.34 145.27 C 152.50 145.38 153.52 144.53 153.63 143.38 L 153.72 142.36 C 153.83 141.21 152.98 140.18 151.83 140.07 C 150.67 139.97 149.65 140.82 149.54 141.97 Z M 149.43 143.17 L 149.42 144.20 C 149.41 145.37 150.35 146.32 151.52 146.33 C 152.68 146.34 153.64 145.40 153.64 144.23 L 153.65 143.19 C 153.66 142.03 152.72 141.08 151.55 141.07 C 150.39 141.06 149.43 142.00 149.43 143.17 Z M 149.41 144.31 L 149.46 145.32 C 149.51 146.49 150.50 147.39 151.67 147.34 C 152.84 147.29 153.75 146.29 153.70 145.12 L 153.65 144.12 C 153.60 142.95 152.61 142.04 151.44 142.10 C 150.27 142.15 149.36 143.14 149.41 144.31 Z M 149.46 145.40 L 149.54 146.41 C 149.64 147.58 150.67 148.45 151.84 148.35 C 153.01 148.25 153.88 147.23 153.78 146.06 L 153.69 145.04 C 153.60 143.87 152.57 143.00 151.40 143.10 C 150.23 143.20 149.36 144.23 149.46 145.40 Z M 149.54 146.41 L 149.62 147.33 C 149.72 148.50 150.75 149.37 151.92 149.27 C 153.09 149.18 153.96 148.15 153.86 146.98 L 153.78 146.06 C 153.68 144.89 152.65 144.02 151.48 144.12 C 150.31 144.21 149.45 145.24 149.54 146.41 Z M 149.62 147.27 L 149.67 148.26 C 149.73 149.43 150.73 150.33 151.90 150.27 C 153.07 150.21 153.97 149.21 153.91 148.04 L 153.86 147.05 C 153.80 145.88 152.80 144.97 151.63 145.03 C 150.46 145.09 149.56 146.09 149.62 147.27 Z M 149.66 148.23 L 149.70 149.23 C 149.74 150.40 150.73 151.32 151.90 151.28 C 153.08 151.24 153.99 150.25 153.95 149.08 L 153.91 148.07 C 153.87 146.90 152.89 145.98 151.71 146.02 C 150.54 146.07 149.62 147.05 149.66 148.23 Z M 149.70 149.22 L 149.73 150.21 C 149.76 151.38 150.74 152.30 151.91 152.27 C 153.09 152.24 154.01 151.26 153.98 150.09 L 153.95 149.10 C 153.92 147.92 152.94 147.00 151.77 147.03 C 150.59 147.06 149.67 148.04 149.70 149.22 Z M 149.73 150.18 L 149.74 151.19 C 149.76 152.36 150.73 153.30 151.91 153.28 C 153.08 153.26 154.02 152.29 154.00 151.12 L 153.98 150.11 C 153.96 148.94 152.99 148.00 151.82 148.02 C 150.64 148.04 149.71 149.01 149.73 150.18 Z M 149.74 151.17 L 149.75 152.15 C 149.76 153.33 150.71 154.27 151.89 154.27 C 153.06 154.26 154.01 153.30 154.00 152.13 L 154.00 151.14 C 153.99 149.97 153.03 149.02 151.86 149.03 C 150.68 149.03 149.74 149.99 149.74 151.17 Z M 149.75 152.14 L 149.75 153.17 C 149.75 154.35 150.70 155.30 151.88 155.30 C 153.05 155.30 154.00 154.34 154.00 153.17 L 154.00 152.14 C 154.00 150.97 153.05 150.01 151.87 150.01 C 150.70 150.02 149.75 150.97 149.75 152.14 Z M 149.75 153.17 L 149.75 154.15 C 149.75 155.32 150.70 156.28 151.87 156.28 C 153.05 156.28 154.00 155.33 154.00 154.15 L 154.00 153.17 C 154.01 152.00 153.05 151.05 151.88 151.04 C 150.71 151.04 149.75 151.99 149.75 153.17 Z M 149.75 154.13 L 149.74 155.14 C 149.73 156.31 150.67 157.27 151.84 157.28 C 153.02 157.30 153.98 156.35 153.99 155.18 L 154.00 154.17 C 154.01 153.00 153.07 152.04 151.90 152.02 C 150.72 152.01 149.76 152.96 149.75 154.13 Z M 149.74 155.10 L 149.71 156.10 C 149.68 157.28 150.61 158.25 151.78 158.28 C 152.96 158.31 153.94 157.39 153.97 156.21 L 153.99 155.21 C 154.02 154.04 153.10 153.06 151.92 153.03 C 150.75 153.00 149.77 153.93 149.74 155.10 Z M 149.71 156.05 L 149.67 157.04 C 149.61 158.22 150.51 159.21 151.69 159.27 C 152.86 159.33 153.86 158.43 153.92 157.25 L 153.96 156.26 C 154.02 155.09 153.12 154.09 151.94 154.03 C 150.77 153.97 149.77 154.88 149.71 156.05 Z M 149.67 156.98 L 149.59 157.99 C 149.49 159.16 150.37 160.19 151.54 160.28 C 152.71 160.37 153.74 159.50 153.83 158.33 L 153.91 157.32 C 154.01 156.15 153.13 155.12 151.96 155.03 C 150.79 154.93 149.76 155.80 149.67 156.98 Z M 149.60 157.91 L 149.48 158.89 C 149.34 160.06 150.18 161.11 151.35 161.25 C 152.51 161.39 153.57 160.55 153.71 159.39 L 153.82 158.41 C 153.96 157.24 153.13 156.18 151.96 156.05 C 150.79 155.91 149.73 156.74 149.60 157.91 Z M 149.49 158.82 L 149.34 159.81 C 149.17 160.97 149.97 162.05 151.14 162.23 C 152.30 162.40 153.38 161.60 153.55 160.43 L 153.70 159.45 C 153.87 158.29 153.07 157.20 151.91 157.03 C 150.74 156.86 149.66 157.66 149.49 158.82 Z M 149.35 159.77 L 149.18 160.77 C 148.98 161.93 149.77 163.03 150.92 163.23 C 152.08 163.42 153.18 162.64 153.38 161.48 L 153.55 160.47 C 153.74 159.32 152.96 158.22 151.80 158.02 C 150.64 157.83 149.55 158.61 149.35 159.77 Z M 149.18 160.75 L 149.01 161.74 C 148.80 162.90 149.56 164.01 150.72 164.21 C 151.88 164.42 152.98 163.66 153.19 162.50 L 153.37 161.51 C 153.58 160.35 152.81 159.24 151.66 159.03 C 150.50 158.83 149.39 159.59 149.18 160.75 Z M 149.01 161.72 L 148.82 162.71 C 148.60 163.87 149.35 164.98 150.51 165.20 C 151.66 165.42 152.78 164.67 153.00 163.51 L 153.19 162.52 C 153.41 161.37 152.65 160.25 151.50 160.03 C 150.35 159.81 149.23 160.57 149.01 161.72 Z M 148.83 162.68 L 148.63 163.65 C 148.39 164.81 149.13 165.93 150.28 166.17 C 151.43 166.41 152.56 165.66 152.79 164.51 L 152.99 163.54 C 153.23 162.39 152.49 161.27 151.34 161.03 C 150.19 160.79 149.06 161.53 148.83 162.68 Z M 148.63 163.62 L 148.41 164.61 C 148.15 165.76 148.87 166.90 150.02 167.16 C 151.16 167.41 152.30 166.69 152.56 165.55 L 152.79 164.55 C 153.04 163.40 152.32 162.27 151.18 162.01 C 150.03 161.75 148.89 162.47 148.63 163.62 Z M 148.42 164.58 L 148.18 165.54 C 147.90 166.69 148.60 167.84 149.75 168.11 C 150.89 168.39 152.04 167.69 152.32 166.55 L 152.55 165.58 C 152.83 164.44 152.13 163.29 150.99 163.01 C 149.85 162.73 148.70 163.43 148.42 164.58 Z M 148.19 165.52 L 147.94 166.46 C 147.65 167.60 148.34 168.76 149.47 169.06 C 150.61 169.35 151.77 168.66 152.06 167.53 L 152.31 166.58 C 152.60 165.44 151.92 164.28 150.78 163.99 C 149.64 163.69 148.48 164.38 148.19 165.52 Z M 147.95 166.44 L 147.69 167.42 C 147.38 168.56 148.06 169.72 149.19 170.03 C 150.33 170.33 151.49 169.66 151.80 168.52 L 152.06 167.55 C 152.36 166.41 151.69 165.25 150.56 164.94 C 149.42 164.64 148.26 165.31 147.95 166.44 Z M 147.70 167.40 L 147.43 168.37 C 147.11 169.50 147.77 170.67 148.91 170.98 C 150.04 171.30 151.21 170.64 151.52 169.51 L 151.79 168.54 C 152.10 167.41 151.44 166.24 150.31 165.93 C 149.18 165.61 148.01 166.27 147.70 167.40 Z M 147.44 168.35 L 147.16 169.31 C 146.83 170.43 147.48 171.61 148.61 171.94 C 149.74 172.26 150.91 171.61 151.24 170.48 L 151.51 169.53 C 151.84 168.40 151.19 167.22 150.06 166.90 C 148.94 166.57 147.76 167.22 147.44 168.35 Z M 147.17 169.29 L 146.88 170.26 C 146.54 171.38 147.18 172.56 148.30 172.89 C 149.42 173.23 150.60 172.59 150.94 171.47 L 151.23 170.50 C 151.56 169.38 150.93 168.20 149.80 167.87 C 148.68 167.53 147.50 168.17 147.17 169.29 Z M 146.89 170.24 L 146.60 171.18 C 146.25 172.30 146.88 173.48 147.99 173.82 C 149.11 174.17 150.29 173.54 150.64 172.43 L 150.93 171.49 C 151.27 170.37 150.65 169.19 149.53 168.84 C 148.42 168.50 147.23 169.12 146.89 170.24 Z M 146.61 171.17 L 146.30 172.14 C 145.95 173.25 146.56 174.44 147.67 174.79 C 148.78 175.14 149.97 174.52 150.32 173.41 L 150.63 172.44 C 150.98 171.33 150.37 170.14 149.26 169.79 C 148.14 169.44 146.96 170.05 146.61 171.17 Z M 146.31 172.12 L 146.00 173.06 C 145.64 174.17 146.24 175.36 147.34 175.72 C 148.44 176.08 149.63 175.48 150.00 174.38 L 150.31 173.43 C 150.67 172.33 150.07 171.14 148.97 170.78 C 147.86 170.41 146.67 171.01 146.31 172.12 Z M 146.02 173.03 L 145.70 173.93 C 145.32 175.03 145.90 176.22 146.99 176.61 C 148.08 176.99 149.28 176.41 149.66 175.32 L 149.98 174.41 C 150.36 173.32 149.79 172.12 148.69 171.74 C 147.60 171.36 146.40 171.93 146.02 173.03 Z M 145.72 173.89 L 145.38 174.80 C 144.98 175.88 145.53 177.09 146.61 177.49 C 147.69 177.90 148.90 177.35 149.30 176.27 L 149.64 175.36 C 150.05 174.27 149.50 173.07 148.41 172.66 C 147.33 172.26 146.13 172.81 145.72 173.89 Z M 145.40 174.78 L 145.02 175.75 C 144.60 176.82 145.13 178.03 146.21 178.45 C 147.28 178.86 148.49 178.33 148.91 177.26 L 149.28 176.29 C 149.70 175.22 149.17 174.01 148.10 173.59 C 147.03 173.17 145.82 173.70 145.40 174.78 Z M 145.04 175.72 L 144.66 176.66 C 144.23 177.72 144.74 178.93 145.80 179.36 C 146.86 179.79 148.07 179.28 148.51 178.22 L 148.89 177.28 C 149.32 176.22 148.81 175.01 147.74 174.58 C 146.68 174.15 145.47 174.66 145.04 175.72 Z M 144.69 176.61 L 144.28 177.55 C 143.83 178.59 144.30 179.81 145.34 180.27 C 146.39 180.72 147.61 180.25 148.06 179.20 L 148.47 178.27 C 148.93 177.23 148.46 176.01 147.41 175.55 C 146.37 175.09 145.15 175.57 144.69 176.61 Z M 144.36 177.43 L 143.81 178.48 C 143.29 179.48 143.67 180.72 144.68 181.24 C 145.68 181.77 146.92 181.38 147.44 180.38 L 147.99 179.32 C 148.51 178.32 148.12 177.08 147.12 176.56 C 146.12 176.04 144.88 176.43 144.36 177.43 Z M 144.21 177.99 L 143.65 178.54 C 142.85 179.32 142.84 180.60 143.62 181.39 C 144.41 182.19 145.68 182.20 146.48 181.42 L 147.04 180.87 C 147.83 180.09 147.85 178.81 147.06 178.01 C 146.28 177.22 145.00 177.21 144.21 177.99 Z M 146.91 179.33 L 146.71 178.75 C 146.35 177.72 145.23 177.19 144.21 177.54 C 143.19 177.90 142.65 179.02 143.01 180.04 L 143.21 180.63 C 143.57 181.65 144.69 182.19 145.71 181.83 C 146.73 181.47 147.27 180.35 146.91 179.33 Z M 146.73 179.33 L 146.69 178.15 C 146.66 177.12 145.79 176.30 144.76 176.34 C 143.73 176.37 142.91 177.24 142.95 178.27 L 142.99 179.45 C 143.02 180.49 143.89 181.30 144.92 181.27 C 145.95 181.23 146.76 180.37 146.73 179.33 Z M 146.64 178.21 L 146.64 177.91 C 146.64 176.90 145.82 176.09 144.82 176.09 C 143.81 176.09 143.00 176.91 143.00 177.91 L 143.00 178.21 C 143.00 179.22 143.82 180.03 144.82 180.03 C 145.83 180.03 146.64 179.21 146.64 178.21 Z"
      fill="black"
      fill-rule="nonzero" /><path d="M 152.40 159.42 L 153.23 158.85 C 154.13 158.23 154.37 157.00 153.75 156.09 C 153.13 155.18 151.89 154.95 150.99 155.57 L 150.16 156.14 C 149.25 156.75 149.02 157.99 149.63 158.90 C 150.25 159.81 151.49 160.04 152.40 159.42 Z M 153.15 158.94 L 153.99 158.43 C 154.95 157.85 155.26 156.61 154.68 155.66 C 154.10 154.70 152.86 154.40 151.90 154.97 L 151.06 155.48 C 150.11 156.06 149.80 157.30 150.38 158.26 C 150.95 159.21 152.20 159.52 153.15 158.94 Z M 153.82 158.54 L 154.69 158.13 C 155.71 157.65 156.14 156.43 155.66 155.41 C 155.18 154.40 153.96 153.97 152.94 154.45 L 152.08 154.86 C 151.06 155.34 150.63 156.56 151.11 157.58 C 151.59 158.59 152.81 159.03 153.82 158.54 Z M 154.51 158.21 L 155.49 157.86 C 156.55 157.47 157.10 156.30 156.71 155.24 C 156.33 154.18 155.16 153.63 154.10 154.02 L 153.12 154.37 C 152.06 154.75 151.52 155.92 151.90 156.98 C 152.28 158.04 153.45 158.59 154.51 158.21 Z M 155.36 157.90 L 156.33 157.62 C 157.41 157.30 158.03 156.17 157.72 155.09 C 157.41 154.01 156.28 153.38 155.19 153.70 L 154.23 153.98 C 153.14 154.29 152.52 155.42 152.83 156.50 C 153.15 157.59 154.28 158.21 155.36 157.90 Z M 156.23 157.64 L 157.21 157.41 C 158.30 157.15 158.98 156.06 158.72 154.96 C 158.47 153.87 157.37 153.19 156.28 153.44 L 155.30 153.67 C 154.20 153.93 153.52 155.03 153.78 156.12 C 154.04 157.22 155.13 157.90 156.23 157.64 Z M 157.07 157.43 L 158.11 157.26 C 159.21 157.07 159.96 156.03 159.77 154.92 C 159.59 153.81 158.54 153.07 157.44 153.25 L 156.41 153.42 C 155.30 153.61 154.55 154.65 154.74 155.76 C 154.92 156.87 155.97 157.61 157.07 157.43 Z M 157.96 157.27 L 158.91 157.18 C 160.02 157.08 160.84 156.10 160.74 154.98 C 160.63 153.87 159.65 153.05 158.54 153.15 L 157.59 153.24 C 156.48 153.34 155.66 154.33 155.76 155.44 C 155.86 156.55 156.84 157.37 157.96 157.27 Z M 158.79 157.18 L 159.80 157.15 C 160.91 157.11 161.78 156.18 161.74 155.07 C 161.71 153.96 160.78 153.09 159.66 153.12 L 158.66 153.16 C 157.55 153.19 156.67 154.12 156.71 155.23 C 156.75 156.34 157.68 157.22 158.79 157.18 Z M 159.74 157.14 L 160.73 157.14 C 161.84 157.13 162.73 156.23 162.73 155.12 C 162.73 154.02 161.83 153.12 160.72 153.13 L 159.72 153.13 C 158.62 153.13 157.72 154.03 157.72 155.14 C 157.73 156.25 158.63 157.14 159.74 157.14 Z M 160.63 157.13 L 161.64 157.18 C 162.74 157.23 163.68 156.38 163.73 155.28 C 163.79 154.17 162.93 153.23 161.83 153.18 L 160.82 153.13 C 159.72 153.08 158.78 153.93 158.73 155.04 C 158.67 156.14 159.53 157.08 160.63 157.13 Z M 161.16 157.10 L 162.09 157.38 C 163.15 157.69 164.26 157.08 164.58 156.02 C 164.89 154.96 164.29 153.84 163.23 153.53 L 162.30 153.26 C 161.24 152.94 160.13 153.55 159.81 154.61 C 159.50 155.67 160.10 156.79 161.16 157.10 Z M 161.22 156.87 L 161.91 157.58 C 162.70 158.38 163.98 158.39 164.77 157.60 C 165.57 156.82 165.58 155.54 164.79 154.74 L 164.10 154.03 C 163.31 153.24 162.03 153.23 161.24 154.01 C 160.44 154.80 160.43 156.08 161.22 156.87 Z M 161.39 156.72 L 161.65 157.64 C 161.96 158.73 163.10 159.36 164.18 159.04 C 165.27 158.73 165.89 157.60 165.58 156.52 L 165.32 155.60 C 165.01 154.51 163.88 153.89 162.79 154.20 C 161.71 154.51 161.08 155.64 161.39 156.72 Z M 161.55 157.02 L 161.52 158.05 C 161.49 159.19 162.39 160.15 163.53 160.18 C 164.67 160.21 165.62 159.31 165.65 158.17 L 165.68 157.14 C 165.71 156.00 164.82 155.05 163.68 155.02 C 162.54 154.98 161.59 155.88 161.55 157.02 Z M 161.62 157.43 L 161.30 158.35 C 160.93 159.44 161.50 160.62 162.59 161.00 C 163.67 161.38 164.86 160.80 165.23 159.72 L 165.55 158.80 C 165.93 157.71 165.35 156.53 164.27 156.15 C 163.18 155.77 162.00 156.35 161.62 157.43 Z M 161.49 157.94 L 160.96 158.80 C 160.35 159.79 160.66 161.07 161.64 161.68 C 162.63 162.28 163.91 161.98 164.52 160.99 L 165.05 160.13 C 165.65 159.15 165.35 157.86 164.36 157.25 C 163.38 156.65 162.09 156.96 161.49 157.94 Z M 161.05 158.65 L 160.51 159.38 C 159.83 160.32 160.02 161.63 160.96 162.31 C 161.89 163.00 163.20 162.80 163.89 161.87 L 164.42 161.14 C 165.11 160.21 164.91 158.90 163.98 158.21 C 163.05 157.52 161.74 157.72 161.05 158.65 Z M 160.57 159.30 L 159.94 160.07 C 159.21 160.97 159.34 162.29 160.24 163.03 C 161.14 163.76 162.46 163.63 163.19 162.73 L 163.83 161.96 C 164.56 161.06 164.43 159.74 163.53 159.00 C 162.63 158.27 161.31 158.40 160.57 159.30 Z M 160.00 160.00 L 159.29 160.79 C 158.51 161.66 158.58 162.99 159.45 163.77 C 160.32 164.54 161.65 164.47 162.42 163.60 L 163.14 162.80 C 163.91 161.94 163.84 160.61 162.97 159.83 C 162.11 159.06 160.77 159.13 160.00 160.00 Z M 159.33 160.74 L 158.68 161.43 C 157.87 162.27 157.90 163.61 158.75 164.41 C 159.59 165.21 160.93 165.18 161.73 164.34 L 162.38 163.65 C 163.18 162.81 163.15 161.47 162.31 160.67 C 161.46 159.87 160.13 159.90 159.33 160.74 Z M 158.70 161.40 L 157.99 162.12 C 157.17 162.94 157.17 164.28 158.00 165.10 C 158.83 165.92 160.16 165.92 160.98 165.09 L 161.70 164.37 C 162.52 163.54 162.52 162.21 161.69 161.39 C 160.86 160.56 159.53 160.57 158.70 161.40 Z M 158.01 162.09 L 157.26 162.82 C 156.42 163.63 156.41 164.97 157.22 165.81 C 158.03 166.64 159.37 166.66 160.20 165.85 L 160.96 165.12 C 161.79 164.30 161.81 162.97 161.00 162.13 C 160.19 161.29 158.85 161.28 158.01 162.09 Z M 157.29 162.80 L 156.51 163.53 C 155.66 164.33 155.62 165.66 156.42 166.51 C 157.21 167.36 158.55 167.40 159.40 166.61 L 160.18 165.87 C 161.03 165.08 161.07 163.74 160.27 162.89 C 159.47 162.04 158.14 162.00 157.29 162.80 Z M 156.54 163.50 L 155.76 164.21 C 154.90 164.99 154.83 166.32 155.61 167.19 C 156.40 168.05 157.73 168.12 158.59 167.33 L 159.37 166.63 C 160.23 165.85 160.30 164.51 159.52 163.65 C 158.74 162.79 157.40 162.72 156.54 163.50 Z M 155.80 164.18 L 155.05 164.83 C 154.17 165.59 154.08 166.92 154.84 167.80 C 155.60 168.68 156.93 168.77 157.81 168.01 L 158.56 167.36 C 159.44 166.60 159.53 165.27 158.77 164.39 C 158.01 163.51 156.68 163.42 155.80 164.18 Z M 155.10 164.79 L 154.37 165.38 C 153.48 166.12 153.34 167.45 154.08 168.34 C 154.82 169.24 156.14 169.37 157.04 168.64 L 157.76 168.05 C 158.66 167.31 158.79 165.98 158.06 165.09 C 157.32 164.19 156.00 164.06 155.10 164.79 Z M 154.49 165.32 L 153.55 166.00 C 152.62 166.67 152.41 167.98 153.08 168.91 C 153.76 169.84 155.06 170.05 155.99 169.38 L 156.93 168.70 C 157.86 168.03 158.07 166.72 157.40 165.79 C 156.72 164.86 155.42 164.65 154.49 165.32 Z M 153.87 165.85 L 153.07 166.24 C 152.05 166.74 151.63 167.97 152.13 168.98 C 152.63 170.00 153.85 170.42 154.87 169.92 L 155.67 169.53 C 156.69 169.03 157.11 167.80 156.61 166.79 C 156.11 165.77 154.89 165.35 153.87 165.85 Z M 153.94 166.08 L 153.02 166.10 C 151.92 166.11 151.04 167.02 151.05 168.12 C 151.07 169.23 151.98 170.11 153.08 170.09 L 154.00 170.08 C 155.10 170.06 155.98 169.16 155.97 168.05 C 155.95 166.95 155.04 166.07 153.94 166.08 Z M 153.82 166.33 L 153.03 165.98 C 152.06 165.56 150.92 166.01 150.50 166.98 C 150.07 167.96 150.52 169.10 151.50 169.52 L 152.28 169.86 C 153.26 170.29 154.39 169.84 154.82 168.86 C 155.24 167.89 154.80 166.75 153.82 166.33 Z"
      fill="black"
      fill-rule="nonzero" /><path d="M 162.40 132.21 L 163.24 131.59 C 164.10 130.94 164.28 129.72 163.63 128.86 C 162.99 127.99 161.77 127.81 160.91 128.46 L 160.07 129.08 C 159.21 129.72 159.03 130.95 159.67 131.81 C 160.32 132.67 161.54 132.85 162.40 132.21 Z M 161.41 131.98 L 162.08 132.21 C 163.16 132.57 164.33 131.99 164.70 130.91 C 165.07 129.83 164.49 128.66 163.40 128.29 L 162.73 128.06 C 161.65 127.70 160.48 128.28 160.11 129.36 C 159.75 130.44 160.33 131.61 161.41 131.98 Z M 160.99 131.45 L 161.64 132.41 C 162.31 133.38 163.63 133.63 164.60 132.97 C 165.56 132.31 165.81 130.98 165.15 130.01 L 164.50 129.05 C 163.83 128.08 162.51 127.83 161.54 128.49 C 160.58 129.16 160.33 130.48 160.99 131.45 Z M 161.52 132.27 L 161.99 133.11 C 162.58 134.15 163.89 134.52 164.93 133.93 C 165.97 133.35 166.34 132.03 165.75 130.99 L 165.28 130.15 C 164.69 129.12 163.38 128.75 162.34 129.33 C 161.30 129.92 160.93 131.23 161.52 132.27 Z M 161.94 133.08 L 162.43 134.00 C 163.00 135.06 164.33 135.46 165.39 134.90 C 166.46 134.33 166.86 133.00 166.29 131.94 L 165.80 131.02 C 165.23 129.96 163.90 129.55 162.84 130.12 C 161.78 130.69 161.37 132.02 161.94 133.08 Z M 162.40 133.98 L 162.87 134.90 C 163.43 135.98 164.76 136.41 165.85 135.85 C 166.94 135.29 167.36 133.95 166.80 132.87 L 166.33 131.95 C 165.77 130.87 164.43 130.44 163.35 131.00 C 162.26 131.56 161.84 132.90 162.40 133.98 Z M 162.84 134.87 L 163.29 135.78 C 163.84 136.88 165.17 137.33 166.27 136.78 C 167.38 136.24 167.83 134.90 167.28 133.80 L 166.83 132.89 C 166.28 131.79 164.95 131.34 163.84 131.89 C 162.74 132.44 162.29 133.77 162.84 134.87 Z M 163.26 135.74 L 163.67 136.62 C 164.20 137.73 165.54 138.21 166.65 137.68 C 167.77 137.15 168.25 135.82 167.72 134.70 L 167.31 133.83 C 166.78 132.71 165.44 132.24 164.33 132.77 C 163.21 133.29 162.73 134.63 163.26 135.74 Z M 163.65 136.59 L 164.05 137.45 C 164.56 138.58 165.89 139.08 167.02 138.57 C 168.15 138.05 168.65 136.72 168.13 135.59 L 167.74 134.73 C 167.23 133.60 165.89 133.10 164.77 133.62 C 163.64 134.13 163.14 135.46 163.65 136.59 Z M 164.03 137.44 L 164.44 138.36 C 164.94 139.49 166.27 140.01 167.41 139.50 C 168.55 139.00 169.06 137.67 168.56 136.53 L 168.15 135.61 C 167.64 134.47 166.31 133.96 165.18 134.46 C 164.04 134.97 163.53 136.30 164.03 137.44 Z M 164.43 138.35 L 164.83 139.28 C 165.33 140.43 166.67 140.95 167.81 140.45 C 168.95 139.95 169.48 138.62 168.98 137.47 L 168.57 136.54 C 168.07 135.40 166.74 134.87 165.59 135.37 C 164.45 135.87 163.93 137.20 164.43 138.35 Z M 164.83 139.27 L 165.20 140.15 C 165.70 141.30 167.03 141.83 168.18 141.34 C 169.33 140.84 169.86 139.51 169.36 138.36 L 168.99 137.48 C 168.49 136.33 167.16 135.80 166.01 136.30 C 164.86 136.79 164.33 138.13 164.83 139.27 Z M 165.19 140.15 L 165.59 141.08 C 166.08 142.23 167.41 142.77 168.57 142.28 C 169.72 141.79 170.26 140.46 169.77 139.30 L 169.37 138.37 C 168.88 137.22 167.55 136.68 166.40 137.17 C 165.24 137.66 164.70 138.99 165.19 140.15 Z M 165.58 141.07 L 165.98 142.02 C 166.46 143.18 167.80 143.73 168.96 143.24 C 170.12 142.76 170.67 141.43 170.18 140.27 L 169.78 139.31 C 169.30 138.15 167.96 137.61 166.80 138.09 C 165.64 138.58 165.10 139.91 165.58 141.07 Z M 165.96 142.01 L 166.33 142.90 C 166.81 144.07 168.15 144.62 169.31 144.14 C 170.48 143.66 171.04 142.32 170.56 141.16 L 170.19 140.27 C 169.71 139.11 168.38 138.55 167.21 139.03 C 166.04 139.51 165.48 140.85 165.96 142.01 Z M 166.31 142.89 L 166.69 143.82 C 167.17 145.00 168.51 145.56 169.69 145.08 C 170.86 144.60 171.43 143.26 170.95 142.09 L 170.57 141.16 C 170.09 139.98 168.75 139.42 167.58 139.90 C 166.40 140.38 165.83 141.72 166.31 142.89 Z M 166.68 143.82 L 167.06 144.78 C 167.54 145.97 168.89 146.54 170.07 146.06 C 171.26 145.58 171.83 144.24 171.35 143.05 L 170.96 142.09 C 170.49 140.90 169.14 140.33 167.96 140.81 C 166.77 141.29 166.20 142.63 166.68 143.82 Z M 167.05 144.78 L 167.42 145.70 C 167.89 146.89 169.25 147.47 170.44 147.00 C 171.63 146.52 172.21 145.17 171.73 143.97 L 171.37 143.05 C 170.89 141.86 169.54 141.28 168.35 141.76 C 167.15 142.24 166.57 143.59 167.05 144.78 Z M 167.40 145.70 L 167.76 146.60 C 168.24 147.80 169.59 148.38 170.79 147.91 C 171.99 147.43 172.58 146.08 172.11 144.88 L 171.75 143.98 C 171.27 142.78 169.92 142.19 168.72 142.67 C 167.52 143.14 166.93 144.50 167.40 145.70 Z M 167.74 146.59 L 168.11 147.52 C 168.58 148.73 169.94 149.33 171.15 148.85 C 172.36 148.38 172.96 147.02 172.48 145.81 L 172.12 144.88 C 171.65 143.67 170.29 143.08 169.08 143.55 C 167.87 144.02 167.27 145.38 167.74 146.59 Z M 168.09 147.51 L 168.46 148.48 C 168.93 149.70 170.30 150.30 171.52 149.83 C 172.73 149.37 173.34 148.00 172.87 146.78 L 172.50 145.82 C 172.03 144.60 170.66 143.99 169.45 144.46 C 168.23 144.93 167.62 146.30 168.09 147.51 Z M 168.45 148.47 L 168.81 149.43 C 169.27 150.65 170.64 151.27 171.87 150.81 C 173.09 150.34 173.71 148.97 173.25 147.75 L 172.89 146.79 C 172.42 145.56 171.05 144.95 169.83 145.41 C 168.60 145.87 167.98 147.24 168.45 148.47 Z M 168.80 149.42 L 169.14 150.35 C 169.60 151.58 170.97 152.21 172.21 151.75 C 173.44 151.29 174.07 149.92 173.61 148.69 L 173.26 147.76 C 172.80 146.52 171.43 145.90 170.20 146.35 C 168.97 146.81 168.34 148.18 168.80 149.42 Z M 169.13 150.34 L 169.48 151.29 C 169.93 152.53 171.31 153.16 172.55 152.71 C 173.79 152.25 174.42 150.88 173.97 149.64 L 173.62 148.69 C 173.16 147.45 171.79 146.82 170.55 147.27 C 169.31 147.73 168.67 149.10 169.13 150.34 Z M 169.47 151.29 L 169.82 152.24 C 170.27 153.48 171.65 154.12 172.89 153.67 C 174.14 153.21 174.78 151.83 174.32 150.59 L 173.98 149.64 C 173.52 148.39 172.14 147.75 170.90 148.21 C 169.65 148.66 169.01 150.04 169.47 151.29 Z M 169.81 152.24 L 170.15 153.18 C 170.61 154.43 171.99 155.07 173.24 154.62 C 174.49 154.16 175.13 152.78 174.68 151.53 L 174.33 150.58 C 173.88 149.34 172.49 148.69 171.24 149.15 C 169.99 149.61 169.35 150.99 169.81 152.24 Z M 170.15 153.19 L 170.50 154.14 C 170.96 155.39 172.34 156.04 173.60 155.58 C 174.85 155.12 175.49 153.73 175.03 152.48 L 174.68 151.52 C 174.22 150.27 172.84 149.63 171.58 150.09 C 170.33 150.55 169.69 151.93 170.15 153.19 Z M 170.49 154.14 L 170.84 155.09 C 171.30 156.34 172.69 156.98 173.95 156.52 C 175.20 156.06 175.84 154.67 175.38 153.42 L 175.04 152.48 C 174.58 151.22 173.19 150.58 171.93 151.04 C 170.68 151.50 170.03 152.89 170.49 154.14 Z M 170.84 155.09 L 171.18 156.02 C 171.64 157.28 173.03 157.92 174.28 157.46 C 175.54 157.00 176.19 155.61 175.73 154.36 L 175.39 153.42 C 174.93 152.17 173.54 151.52 172.28 151.98 C 171.02 152.44 170.38 153.83 170.84 155.09 Z M 171.17 156.01 L 171.51 156.94 C 171.97 158.20 173.36 158.85 174.62 158.40 C 175.88 157.94 176.53 156.55 176.07 155.29 L 175.73 154.36 C 175.28 153.10 173.89 152.45 172.63 152.91 C 171.37 153.36 170.72 154.75 171.17 156.01 Z M 171.50 156.93 L 171.84 157.87 C 172.29 159.13 173.68 159.79 174.94 159.34 C 176.20 158.89 176.86 157.50 176.41 156.23 L 176.08 155.30 C 175.63 154.04 174.24 153.38 172.97 153.83 C 171.71 154.28 171.05 155.67 171.50 156.93 Z M 171.83 157.86 L 172.16 158.80 C 172.61 160.07 174.00 160.73 175.26 160.29 C 176.53 159.84 177.19 158.45 176.75 157.19 L 176.42 156.24 C 175.97 154.98 174.58 154.31 173.32 154.76 C 172.05 155.20 171.39 156.59 171.83 157.86 Z M 172.16 158.79 L 172.49 159.74 C 172.93 161.01 174.31 161.68 175.58 161.24 C 176.85 160.80 177.52 159.41 177.08 158.15 L 176.75 157.20 C 176.31 155.93 174.93 155.26 173.66 155.70 C 172.39 156.14 171.72 157.52 172.16 158.79 Z M 172.49 159.73 L 172.81 160.68 C 173.25 161.95 174.63 162.62 175.90 162.19 C 177.17 161.75 177.84 160.37 177.41 159.10 L 177.08 158.15 C 176.65 156.89 175.26 156.21 174.00 156.65 C 172.73 157.08 172.05 158.46 172.49 159.73 Z M 172.81 160.67 L 173.13 161.62 C 173.57 162.88 174.95 163.56 176.21 163.13 C 177.48 162.70 178.16 161.32 177.73 160.05 L 177.41 159.11 C 176.97 157.84 175.60 157.16 174.33 157.59 C 173.06 158.02 172.38 159.40 172.81 160.67 Z M 173.14 161.61 L 173.46 162.57 C 173.89 163.84 175.27 164.52 176.54 164.09 C 177.80 163.66 178.48 162.28 178.05 161.01 L 177.73 160.05 C 177.30 158.79 175.92 158.11 174.65 158.54 C 173.38 158.97 172.71 160.34 173.14 161.61 Z M 173.46 162.57 L 173.79 163.52 C 174.21 164.78 175.59 165.46 176.85 165.04 C 178.12 164.61 178.80 163.23 178.37 161.97 L 178.05 161.02 C 177.62 159.75 176.25 159.07 174.98 159.50 C 173.72 159.93 173.04 161.30 173.46 162.57 Z M 173.79 163.51 L 174.11 164.46 C 174.54 165.72 175.91 166.40 177.17 165.98 C 178.43 165.55 179.11 164.18 178.69 162.92 L 178.37 161.97 C 177.94 160.71 176.57 160.03 175.31 160.46 C 174.04 160.88 173.37 162.25 173.79 163.51 Z M 174.11 164.46 L 174.43 165.40 C 174.85 166.66 176.22 167.34 177.48 166.91 C 178.74 166.49 179.42 165.12 179.00 163.86 L 178.68 162.92 C 178.26 161.66 176.89 160.98 175.63 161.41 C 174.37 161.83 173.69 163.20 174.11 164.46 Z M 174.44 165.39 L 174.76 166.34 C 175.18 167.60 176.54 168.28 177.80 167.86 C 179.05 167.43 179.73 166.07 179.31 164.82 L 178.99 163.86 C 178.57 162.61 177.21 161.93 175.95 162.35 C 174.69 162.77 174.01 164.13 174.44 165.39 Z M 174.77 166.34 L 175.09 167.30 C 175.51 168.55 176.86 169.22 178.11 168.81 C 179.36 168.39 180.04 167.03 179.62 165.78 L 179.30 164.82 C 178.88 163.57 177.53 162.90 176.28 163.32 C 175.02 163.73 174.35 165.09 174.77 166.34 Z M 175.10 167.29 L 175.42 168.24 C 175.83 169.48 177.18 170.16 178.42 169.74 C 179.66 169.33 180.34 167.98 179.92 166.74 L 179.61 165.79 C 179.19 164.55 177.85 163.88 176.61 164.29 C 175.36 164.70 174.69 166.05 175.10 167.29 Z M 175.43 168.23 L 175.74 169.17 C 176.15 170.40 177.48 171.08 178.72 170.67 C 179.96 170.26 180.63 168.93 180.22 167.69 L 179.91 166.75 C 179.50 165.52 178.17 164.84 176.93 165.25 C 175.70 165.66 175.02 166.99 175.43 168.23 Z M 175.76 169.15 L 176.07 170.10 C 176.47 171.33 177.79 172.00 179.01 171.60 C 180.24 171.20 180.91 169.87 180.51 168.65 L 180.20 167.70 C 179.80 166.47 178.48 165.80 177.25 166.21 C 176.03 166.61 175.36 167.93 175.76 169.15 Z M 176.09 170.08 L 176.40 171.04 C 176.79 172.26 178.09 172.92 179.31 172.53 C 180.53 172.14 181.19 170.83 180.80 169.62 L 180.49 168.66 C 180.10 167.45 178.79 166.78 177.58 167.17 C 176.36 167.56 175.69 168.87 176.09 170.08 Z M 176.42 171.03 L 176.73 171.98 C 177.11 173.18 178.40 173.84 179.60 173.45 C 180.80 173.07 181.46 171.78 181.08 170.58 L 180.77 169.63 C 180.39 168.43 179.10 167.77 177.90 168.15 C 176.70 168.54 176.04 169.83 176.42 171.03 Z M 176.75 171.97 L 177.06 172.91 C 177.44 174.10 178.71 174.75 179.90 174.37 C 181.08 173.99 181.74 172.72 181.35 171.53 L 181.05 170.59 C 180.67 169.40 179.40 168.75 178.21 169.13 C 177.03 169.51 176.37 170.78 176.75 171.97 Z M 177.08 172.91 L 177.40 173.88 C 177.78 175.05 179.04 175.69 180.21 175.31 C 181.38 174.93 182.02 173.68 181.64 172.50 L 181.33 171.54 C 180.95 170.36 179.69 169.72 178.52 170.10 C 177.35 170.48 176.70 171.74 177.08 172.91 Z M 177.41 173.88 L 177.74 174.86 C 178.12 176.03 179.37 176.66 180.53 176.28 C 181.69 175.90 182.33 174.65 181.95 173.48 L 181.63 172.50 C 181.25 171.34 179.99 170.70 178.83 171.08 C 177.67 171.47 177.03 172.72 177.41 173.88 Z M 177.75 174.86 L 178.06 175.82 C 178.44 176.98 179.69 177.61 180.85 177.23 C 182.00 176.85 182.63 175.60 182.25 174.44 L 181.94 173.48 C 181.56 172.33 180.31 171.70 179.15 172.08 C 178.00 172.46 177.37 173.71 177.75 174.86 Z M 178.08 175.82 L 178.38 176.74 C 178.76 177.89 180.00 178.51 181.15 178.13 C 182.30 177.75 182.92 176.51 182.54 175.36 L 182.24 174.45 C 181.86 173.30 180.62 172.67 179.47 173.05 C 178.32 173.43 177.70 174.67 178.08 175.82 Z M 178.39 176.73 L 178.71 177.72 C 179.09 178.87 180.33 179.49 181.47 179.11 C 182.62 178.73 183.24 177.50 182.86 176.35 L 182.53 175.36 C 182.15 174.22 180.92 173.60 179.78 173.98 C 178.63 174.35 178.01 175.59 178.39 176.73 Z M 178.72 177.72 L 179.04 178.69 C 179.42 179.83 180.65 180.45 181.79 180.07 C 182.93 179.69 183.55 178.46 183.17 177.32 L 182.85 176.35 C 182.47 175.21 181.24 174.59 180.10 174.97 C 178.96 175.35 178.34 176.58 178.72 177.72 Z M 179.05 178.69 L 179.35 179.59 C 179.73 180.73 180.96 181.34 182.10 180.96 C 183.23 180.58 183.84 179.35 183.46 178.21 L 183.16 177.32 C 182.78 176.18 181.55 175.57 180.42 175.95 C 179.28 176.33 178.67 177.56 179.05 178.69 Z M 179.36 179.60 L 179.68 180.54 C 180.07 181.67 181.30 182.27 182.43 181.88 C 183.56 181.50 184.16 180.27 183.77 179.14 L 183.45 178.20 C 183.07 177.08 181.84 176.47 180.71 176.86 C 179.58 177.24 178.98 178.47 179.36 179.60 Z M 179.70 180.55 L 180.03 181.50 C 180.42 182.62 181.65 183.21 182.77 182.82 C 183.89 182.43 184.49 181.20 184.09 180.08 L 183.76 179.13 C 183.37 178.01 182.14 177.42 181.02 177.81 C 179.89 178.20 179.30 179.43 179.70 180.55 Z M 180.04 181.51 L 180.37 182.43 C 180.77 183.54 182.00 184.12 183.12 183.72 C 184.23 183.32 184.81 182.09 184.41 180.98 L 184.08 180.06 C 183.68 178.95 182.45 178.37 181.33 178.77 C 180.22 179.17 179.64 180.40 180.04 181.51 Z M 180.39 182.44 L 180.74 183.41 C 181.15 184.52 182.38 185.08 183.49 184.68 C 184.59 184.27 185.16 183.04 184.75 181.93 L 184.39 180.96 C 183.98 179.86 182.76 179.29 181.65 179.70 C 180.54 180.11 179.98 181.33 180.39 182.44 Z M 180.75 183.41 L 181.10 184.34 C 181.50 185.44 182.73 186.00 183.83 185.59 C 184.93 185.18 185.49 183.96 185.08 182.86 L 184.74 181.93 C 184.33 180.83 183.11 180.27 182.01 180.68 C 180.91 181.09 180.35 182.31 180.75 183.41 Z M 181.10 184.32 L 181.45 185.27 C 181.85 186.37 183.06 186.94 184.16 186.54 C 185.25 186.14 185.82 184.93 185.42 183.83 L 185.08 182.88 C 184.68 181.78 183.47 181.21 182.37 181.61 C 181.27 182.01 180.70 183.22 181.10 184.32 Z M 181.45 185.26 L 181.78 186.19 C 182.17 187.29 183.38 187.86 184.47 187.47 C 185.57 187.08 186.14 185.88 185.75 184.78 L 185.42 183.85 C 185.03 182.76 183.83 182.18 182.73 182.57 C 181.64 182.96 181.06 184.16 181.45 185.26 Z M 181.80 186.19 L 182.13 187.13 C 182.52 188.22 183.72 188.78 184.81 188.39 C 185.90 188.00 186.46 186.80 186.07 185.71 L 185.74 184.78 C 185.35 183.69 184.15 183.13 183.06 183.52 C 181.97 183.91 181.41 185.11 181.80 186.19 Z M 182.15 187.13 L 182.48 188.05 C 182.87 189.13 184.06 189.69 185.14 189.30 C 186.22 188.91 186.78 187.72 186.39 186.64 L 186.06 185.72 C 185.67 184.64 184.48 184.08 183.40 184.47 C 182.32 184.85 181.76 186.05 182.15 187.13 Z M 182.48 188.01 L 182.78 188.91 C 183.15 189.99 184.32 190.57 185.40 190.21 C 186.49 189.84 187.07 188.67 186.70 187.58 L 186.40 186.68 C 186.03 185.60 184.86 185.02 183.77 185.39 C 182.69 185.75 182.11 186.93 182.48 188.01 Z M 182.76 188.80 L 183.05 189.83 C 183.36 190.92 184.49 191.56 185.58 191.25 C 186.67 190.94 187.31 189.81 187.01 188.72 L 186.72 187.69 C 186.41 186.60 185.28 185.96 184.19 186.27 C 183.09 186.58 182.46 187.71 182.76 188.80 Z M 183.03 189.69 L 183.27 190.83 C 183.50 191.94 184.58 192.64 185.69 192.41 C 186.79 192.18 187.50 191.10 187.27 189.99 L 187.03 188.85 C 186.80 187.75 185.71 187.04 184.61 187.27 C 183.50 187.50 182.80 188.59 183.03 189.69 Z M 187.07 189.50 L 186.97 189.32 C 186.47 188.32 185.26 187.92 184.27 188.42 C 183.27 188.92 182.87 190.13 183.37 191.13 L 183.47 191.32 C 183.97 192.31 185.18 192.71 186.17 192.21 C 187.17 191.71 187.57 190.50 187.07 189.50 Z M 187.06 189.70 L 186.79 188.73 C 186.50 187.69 185.43 187.08 184.39 187.37 C 183.35 187.65 182.74 188.73 183.02 189.77 L 183.29 190.74 C 183.57 191.78 184.65 192.39 185.69 192.11 C 186.73 191.82 187.34 190.74 187.06 189.70 Z M 186.73 188.78 L 186.40 187.53 C 186.14 186.53 185.11 185.92 184.11 186.18 C 183.10 186.44 182.50 187.47 182.76 188.48 L 183.09 189.73 C 183.35 190.73 184.37 191.33 185.38 191.07 C 186.38 190.81 186.99 189.79 186.73 188.78 Z M 186.36 187.55 L 186.11 186.56 C 185.86 185.57 184.87 184.98 183.88 185.23 C 182.90 185.47 182.30 186.47 182.55 187.46 L 182.80 188.45 C 183.05 189.44 184.05 190.03 185.03 189.79 C 186.02 189.54 186.61 188.54 186.36 187.55 Z M 186.10 186.57 L 185.86 185.61 C 185.62 184.63 184.63 184.03 183.65 184.27 C 182.68 184.52 182.08 185.50 182.32 186.48 L 182.56 187.45 C 182.80 188.42 183.79 189.02 184.77 188.78 C 185.75 188.54 186.34 187.55 186.10 186.57 Z M 185.85 185.61 L 185.62 184.67 C 185.38 183.70 184.40 183.10 183.43 183.34 C 182.46 183.58 181.87 184.55 182.10 185.52 L 182.34 186.47 C 182.57 187.44 183.55 188.04 184.52 187.80 C 185.49 187.56 186.09 186.58 185.85 185.61 Z M 185.61 184.67 L 185.59 184.61 C 185.36 183.65 184.38 183.05 183.42 183.29 C 182.45 183.53 181.86 184.50 182.10 185.47 L 182.11 185.52 C 182.35 186.49 183.32 187.08 184.29 186.84 C 185.25 186.61 185.84 185.63 185.61 184.67 Z"
      fill="black"
      fill-rule="nonzero" /><path d="M 171.25 113.90 L 170.78 112.77 C 170.35 111.75 169.17 111.27 168.15 111.70 C 167.14 112.13 166.66 113.30 167.09 114.32 L 167.56 115.45 C 167.99 116.47 169.16 116.95 170.18 116.52 C 171.20 116.09 171.68 114.91 171.25 113.90 Z M 170.96 112.97 L 170.72 112.15 C 170.41 111.03 169.24 110.38 168.12 110.70 C 167.00 111.01 166.35 112.18 166.67 113.30 L 166.90 114.12 C 167.22 115.24 168.39 115.89 169.51 115.57 C 170.63 115.25 171.28 114.09 170.96 112.97 Z M 169.36 114.82 L 169.88 114.65 C 171.04 114.29 171.68 113.05 171.32 111.89 C 170.95 110.73 169.71 110.09 168.55 110.46 L 168.03 110.62 C 166.87 110.99 166.23 112.23 166.60 113.39 C 166.97 114.55 168.20 115.19 169.36 114.82 Z M 167.92 114.41 L 168.80 115.02 C 169.82 115.74 171.23 115.49 171.95 114.47 C 172.66 113.45 172.42 112.04 171.40 111.32 L 170.52 110.71 C 169.49 109.99 168.09 110.24 167.37 111.26 C 166.65 112.28 166.90 113.69 167.92 114.41 Z M 168.53 114.83 L 169.26 115.52 C 170.17 116.38 171.62 116.34 172.48 115.42 C 173.34 114.51 173.30 113.06 172.39 112.20 L 171.66 111.52 C 170.75 110.65 169.30 110.69 168.44 111.61 C 167.57 112.52 167.62 113.97 168.53 114.83 Z M 169.17 115.44 L 169.92 116.22 C 170.79 117.13 172.23 117.16 173.14 116.29 C 174.06 115.42 174.09 113.97 173.22 113.06 L 172.47 112.28 C 171.60 111.37 170.16 111.34 169.25 112.21 C 168.33 113.08 168.30 114.52 169.17 115.44 Z M 169.89 116.18 L 170.59 116.95 C 171.45 117.87 172.89 117.93 173.81 117.08 C 174.74 116.23 174.80 114.79 173.95 113.86 L 173.24 113.10 C 172.39 112.17 170.95 112.11 170.03 112.96 C 169.10 113.81 169.04 115.25 169.89 116.18 Z M 170.58 116.92 L 171.23 117.64 C 172.07 118.58 173.51 118.65 174.44 117.81 C 175.37 116.97 175.45 115.54 174.61 114.60 L 173.96 113.88 C 173.12 112.95 171.68 112.88 170.75 113.72 C 169.82 114.56 169.75 115.99 170.58 116.92 Z M 171.24 117.62 L 171.94 118.41 C 172.77 119.33 174.19 119.42 175.12 118.59 C 176.04 117.77 176.13 116.35 175.30 115.42 L 174.60 114.63 C 173.78 113.70 172.36 113.62 171.43 114.44 C 170.50 115.27 170.42 116.69 171.24 117.62 Z M 171.98 118.39 L 172.60 119.07 C 173.41 119.98 174.80 120.05 175.71 119.24 C 176.62 118.43 176.69 117.03 175.88 116.13 L 175.26 115.44 C 174.45 114.54 173.06 114.46 172.15 115.27 C 171.25 116.09 171.17 117.48 171.98 118.39 Z M 172.65 119.07 L 173.32 119.79 C 174.13 120.67 175.50 120.73 176.38 119.92 C 177.25 119.11 177.31 117.74 176.50 116.86 L 175.83 116.13 C 175.02 115.26 173.65 115.20 172.77 116.01 C 171.90 116.82 171.84 118.19 172.65 119.07 Z M 173.33 119.74 L 174.00 120.49 C 174.78 121.36 176.12 121.44 176.99 120.65 C 177.87 119.87 177.94 118.53 177.16 117.66 L 176.49 116.91 C 175.71 116.04 174.37 115.97 173.50 116.75 C 172.62 117.53 172.55 118.87 173.33 119.74 Z M 174.00 120.43 L 174.66 121.19 C 175.40 122.06 176.72 122.16 177.59 121.41 C 178.46 120.66 178.56 119.35 177.81 118.48 L 177.16 117.72 C 176.41 116.85 175.10 116.75 174.23 117.50 C 173.36 118.25 173.26 119.56 174.00 120.43 Z M 174.69 121.16 L 175.33 121.90 C 176.06 122.76 177.34 122.86 178.19 122.13 C 179.05 121.40 179.15 120.12 178.42 119.26 L 177.78 118.52 C 177.05 117.66 175.77 117.56 174.91 118.29 C 174.06 119.02 173.96 120.30 174.69 121.16 Z M 175.37 121.88 L 176.03 122.65 C 176.75 123.48 178.00 123.58 178.83 122.86 C 179.67 122.14 179.76 120.89 179.04 120.06 L 178.38 119.29 C 177.66 118.45 176.41 118.36 175.57 119.08 C 174.74 119.79 174.65 121.05 175.37 121.88 Z M 176.07 122.63 L 176.72 123.38 C 177.43 124.19 178.66 124.28 179.47 123.57 C 180.28 122.87 180.36 121.64 179.66 120.83 L 179.00 120.08 C 178.30 119.27 177.07 119.18 176.26 119.89 C 175.45 120.59 175.36 121.82 176.07 122.63 Z M 176.76 123.36 L 177.42 124.12 C 178.11 124.91 179.31 124.99 180.10 124.30 C 180.89 123.61 180.97 122.41 180.29 121.62 L 179.62 120.86 C 178.93 120.07 177.73 119.99 176.94 120.67 C 176.15 121.36 176.07 122.56 176.76 123.36 Z M 177.45 124.09 L 178.11 124.85 C 178.78 125.63 179.96 125.71 180.73 125.04 C 181.51 124.36 181.59 123.18 180.92 122.41 L 180.26 121.65 C 179.59 120.87 178.41 120.79 177.63 121.46 C 176.85 122.13 176.77 123.31 177.45 124.09 Z M 178.14 124.84 L 178.80 125.59 C 179.47 126.35 180.63 126.42 181.39 125.75 C 182.15 125.07 182.22 123.91 181.55 123.15 L 180.89 122.41 C 180.22 121.65 179.05 121.58 178.30 122.25 C 177.54 122.93 177.47 124.09 178.14 124.84 Z M 178.84 125.61 L 179.51 126.33 C 180.19 127.07 181.34 127.11 182.08 126.43 C 182.81 125.75 182.86 124.60 182.18 123.86 L 181.51 123.14 C 180.82 122.40 179.67 122.35 178.94 123.04 C 178.20 123.72 178.15 124.87 178.84 125.61 Z M 179.52 126.33 L 180.21 127.07 C 180.89 127.80 182.03 127.84 182.76 127.16 C 183.50 126.48 183.54 125.33 182.85 124.60 L 182.17 123.86 C 181.48 123.13 180.34 123.09 179.61 123.77 C 178.88 124.45 178.84 125.60 179.52 126.33 Z M 180.19 127.04 L 180.85 127.78 C 181.52 128.52 182.66 128.58 183.40 127.92 C 184.14 127.25 184.20 126.11 183.54 125.37 L 182.87 124.63 C 182.21 123.89 181.07 123.83 180.32 124.49 C 179.58 125.16 179.52 126.30 180.19 127.04 Z M 180.84 127.76 L 181.50 128.52 C 182.16 129.27 183.29 129.34 184.04 128.69 C 184.79 128.03 184.87 126.89 184.21 126.15 L 183.55 125.39 C 182.90 124.64 181.76 124.56 181.01 125.22 C 180.26 125.87 180.18 127.01 180.84 127.76 Z M 181.50 128.51 L 181.62 128.66 C 182.28 129.41 183.41 129.49 184.16 128.83 C 184.91 128.18 184.99 127.04 184.34 126.29 L 184.22 126.15 C 183.56 125.40 182.43 125.32 181.68 125.97 C 180.93 126.62 180.85 127.76 181.50 128.51 Z"
      fill="black"
      fill-rule="nonzero" /><path d="M 189.55 156.13 L 189.31 157.04 C 189.02 158.11 189.65 159.21 190.72 159.51 C 191.79 159.80 192.89 159.17 193.18 158.10 L 193.43 157.19 C 193.72 156.12 193.09 155.02 192.02 154.72 C 190.95 154.43 189.84 155.06 189.55 156.13 Z M 189.20 156.81 L 188.84 157.79 C 188.42 158.92 189.00 160.17 190.13 160.59 C 191.26 161.01 192.52 160.43 192.93 159.30 L 193.29 158.32 C 193.71 157.19 193.13 155.94 192.00 155.52 C 190.87 155.10 189.61 155.68 189.20 156.81 Z M 188.81 157.57 L 188.40 158.45 C 187.86 159.60 188.35 160.96 189.50 161.50 C 190.64 162.04 192.01 161.54 192.55 160.40 L 192.96 159.51 C 193.50 158.37 193.00 157.00 191.86 156.47 C 190.71 155.93 189.35 156.42 188.81 157.57 Z M 188.39 158.34 L 187.91 159.26 C 187.31 160.41 187.75 161.83 188.90 162.43 C 190.05 163.03 191.47 162.58 192.07 161.43 L 192.55 160.51 C 193.15 159.36 192.71 157.94 191.56 157.34 C 190.41 156.74 188.99 157.19 188.39 158.34 Z M 187.90 159.19 L 187.39 160.12 C 186.75 161.27 187.17 162.72 188.32 163.36 C 189.47 164.00 190.93 163.58 191.57 162.43 L 192.08 161.50 C 192.72 160.35 192.30 158.90 191.15 158.26 C 189.99 157.62 188.54 158.04 187.90 159.19 Z M 187.40 160.07 L 186.90 160.93 C 186.24 162.08 186.63 163.55 187.78 164.21 C 188.93 164.87 190.40 164.48 191.06 163.33 L 191.56 162.47 C 192.22 161.32 191.82 159.85 190.68 159.19 C 189.53 158.53 188.06 158.93 187.40 160.07 Z M 186.91 160.90 L 186.41 161.75 C 185.73 162.89 186.11 164.37 187.25 165.05 C 188.39 165.73 189.87 165.35 190.55 164.21 L 191.05 163.36 C 191.73 162.22 191.36 160.74 190.21 160.06 C 189.07 159.38 187.59 159.76 186.91 160.90 Z M 186.41 161.74 L 185.91 162.58 C 185.23 163.72 185.60 165.20 186.74 165.89 C 187.89 166.57 189.37 166.20 190.05 165.05 L 190.55 164.21 C 191.23 163.07 190.86 161.59 189.72 160.90 C 188.57 160.22 187.09 160.60 186.41 161.74 Z M 185.89 162.61 L 185.42 163.43 C 184.75 164.58 185.15 166.06 186.30 166.73 C 187.46 167.39 188.93 167.00 189.60 165.84 L 190.07 165.02 C 190.74 163.87 190.34 162.39 189.19 161.72 C 188.03 161.06 186.55 161.45 185.89 162.61 Z M 185.41 163.44 L 184.90 164.32 C 184.24 165.48 184.65 166.96 185.81 167.62 C 186.97 168.28 188.44 167.88 189.10 166.72 L 189.61 165.83 C 190.27 164.67 189.86 163.19 188.70 162.53 C 187.54 161.87 186.07 162.28 185.41 163.44 Z M 184.91 164.30 L 184.41 165.16 C 183.74 166.31 184.13 167.79 185.28 168.47 C 186.44 169.14 187.92 168.75 188.59 167.60 L 189.09 166.74 C 189.77 165.59 189.38 164.10 188.22 163.43 C 187.07 162.76 185.59 163.15 184.91 164.30 Z M 184.43 165.14 L 183.91 165.99 C 183.23 167.14 183.60 168.63 184.75 169.31 C 185.89 170.00 187.38 169.62 188.07 168.48 L 188.58 167.62 C 189.26 166.47 188.89 164.99 187.74 164.30 C 186.60 163.62 185.11 163.99 184.43 165.14 Z M 183.92 165.98 L 183.39 166.87 C 182.69 168.01 183.06 169.50 184.20 170.19 C 185.34 170.88 186.83 170.51 187.52 169.37 L 188.06 168.49 C 188.75 167.35 188.39 165.86 187.24 165.17 C 186.10 164.47 184.61 164.84 183.92 165.98 Z M 183.39 166.86 L 182.88 167.69 C 182.19 168.83 182.55 170.32 183.69 171.02 C 184.83 171.71 186.32 171.35 187.01 170.21 L 187.52 169.38 C 188.22 168.24 187.85 166.75 186.71 166.05 C 185.57 165.36 184.08 165.72 183.39 166.86 Z M 182.89 167.69 L 182.36 168.55 C 181.66 169.68 182.02 171.17 183.16 171.87 C 184.29 172.57 185.78 172.21 186.48 171.07 L 187.01 170.21 C 187.71 169.08 187.35 167.59 186.21 166.89 C 185.07 166.19 183.59 166.55 182.89 167.69 Z M 182.37 168.54 L 181.84 169.40 C 181.14 170.53 181.49 172.02 182.62 172.72 C 183.75 173.42 185.24 173.07 185.94 171.94 L 186.47 171.08 C 187.18 169.95 186.83 168.46 185.69 167.76 C 184.56 167.06 183.07 167.41 182.37 168.54 Z M 181.85 169.39 L 181.33 170.22 C 180.63 171.35 180.97 172.83 182.10 173.54 C 183.23 174.24 184.71 173.90 185.42 172.77 L 185.93 171.94 C 186.64 170.81 186.29 169.33 185.17 168.62 C 184.04 167.92 182.55 168.26 181.85 169.39 Z M 181.34 170.22 L 180.80 171.07 C 180.10 172.20 180.44 173.68 181.56 174.39 C 182.68 175.09 184.17 174.75 184.87 173.63 L 185.41 172.77 C 186.11 171.65 185.77 170.17 184.65 169.46 C 183.53 168.75 182.04 169.09 181.34 170.22 Z M 180.81 171.08 L 180.27 171.94 C 179.56 173.06 179.90 174.54 181.02 175.24 C 182.14 175.95 183.62 175.61 184.32 174.49 L 184.86 173.63 C 185.57 172.51 185.23 171.03 184.11 170.32 C 182.99 169.62 181.51 169.96 180.81 171.08 Z M 180.27 171.94 L 179.75 172.77 C 179.05 173.88 179.38 175.36 180.50 176.06 C 181.61 176.77 183.09 176.43 183.79 175.32 L 184.31 174.49 C 185.02 173.37 184.68 171.90 183.57 171.19 C 182.45 170.49 180.98 170.82 180.27 171.94 Z M 179.76 172.76 L 179.22 173.61 C 178.52 174.72 178.84 176.19 179.95 176.89 C 181.06 177.60 182.53 177.28 183.24 176.17 L 183.78 175.32 C 184.49 174.21 184.16 172.74 183.05 172.03 C 181.94 171.33 180.47 171.65 179.76 172.76 Z M 179.24 173.60 L 178.68 174.46 C 177.97 175.56 178.29 177.03 179.39 177.74 C 180.49 178.45 181.96 178.14 182.67 177.04 L 183.23 176.18 C 183.94 175.07 183.62 173.61 182.52 172.89 C 181.42 172.18 179.95 172.50 179.24 173.60 Z M 178.70 174.45 L 178.15 175.28 C 177.44 176.37 177.74 177.83 178.83 178.55 C 179.92 179.27 181.38 178.97 182.10 177.88 L 182.65 177.05 C 183.37 175.96 183.07 174.49 181.98 173.77 C 180.89 173.05 179.42 173.36 178.70 174.45 Z M 178.18 175.27 L 177.62 176.10 C 176.90 177.18 177.18 178.64 178.26 179.36 C 179.34 180.08 180.80 179.80 181.53 178.72 L 182.08 177.89 C 182.81 176.81 182.52 175.35 181.44 174.63 C 180.36 173.90 178.90 174.19 178.18 175.27 Z M 177.64 176.09 L 177.07 176.92 C 176.35 177.99 176.62 179.44 177.69 180.17 C 178.76 180.90 180.21 180.62 180.94 179.56 L 181.51 178.72 C 182.23 177.66 181.96 176.20 180.89 175.47 C 179.82 174.75 178.37 175.02 177.64 176.09 Z M 177.09 176.92 L 176.52 177.74 C 175.79 178.80 176.06 180.25 177.11 180.98 C 178.17 181.71 179.62 181.44 180.35 180.39 L 180.92 179.56 C 181.65 178.50 181.39 177.05 180.33 176.32 C 179.27 175.59 177.82 175.86 177.09 176.92 Z M 176.54 177.74 L 175.98 178.55 C 175.24 179.59 175.50 181.04 176.55 181.77 C 177.59 182.50 179.03 182.24 179.77 181.20 L 180.33 180.39 C 181.06 179.34 180.81 177.90 179.76 177.17 C 178.71 176.44 177.27 176.69 176.54 177.74 Z M 176.00 178.54 L 175.42 179.35 C 174.69 180.39 174.93 181.82 175.96 182.56 C 177.00 183.29 178.43 183.05 179.17 182.01 L 179.74 181.20 C 180.48 180.17 180.24 178.73 179.20 178.00 C 178.17 177.26 176.73 177.51 176.00 178.54 Z M 175.45 179.34 L 174.85 180.16 C 174.11 181.18 174.34 182.61 175.36 183.35 C 176.38 184.09 177.81 183.86 178.55 182.84 L 179.14 182.02 C 179.88 181.00 179.66 179.57 178.63 178.83 C 177.61 178.09 176.19 178.32 175.45 179.34 Z M 174.88 180.15 L 174.28 180.97 C 173.53 181.98 173.74 183.40 174.75 184.14 C 175.75 184.88 177.17 184.67 177.91 183.67 L 178.52 182.85 C 179.27 181.84 179.05 180.42 178.05 179.68 C 177.04 178.94 175.63 179.15 174.88 180.15 Z M 174.31 180.97 L 173.70 181.79 C 172.95 182.77 173.15 184.17 174.13 184.92 C 175.12 185.66 176.52 185.47 177.26 184.48 L 177.88 183.67 C 178.62 182.68 178.43 181.28 177.44 180.54 C 176.46 179.80 175.06 179.99 174.31 180.97 Z M 173.74 181.79 L 173.12 182.59 C 172.38 183.55 172.56 184.93 173.52 185.68 C 174.48 186.42 175.86 186.24 176.60 185.28 L 177.22 184.48 C 177.96 183.52 177.78 182.14 176.82 181.40 C 175.86 180.65 174.48 180.83 173.74 181.79 Z M 173.16 182.60 L 172.56 183.36 C 171.82 184.30 171.98 185.66 172.92 186.40 C 173.85 187.14 175.22 186.98 175.96 186.04 L 176.56 185.28 C 177.30 184.34 177.14 182.98 176.20 182.24 C 175.26 181.50 173.90 181.66 173.16 182.60 Z M 172.60 183.36 L 171.94 184.17 C 171.20 185.08 171.34 186.43 172.25 187.17 C 173.17 187.92 174.52 187.77 175.26 186.86 L 175.92 186.05 C 176.66 185.13 176.52 183.78 175.60 183.04 C 174.69 182.30 173.34 182.44 172.60 183.36 Z M 171.97 184.15 L 171.32 184.93 C 170.57 185.83 170.69 187.16 171.59 187.92 C 172.49 188.67 173.82 188.55 174.58 187.65 L 175.23 186.87 C 175.98 185.98 175.86 184.64 174.96 183.89 C 174.06 183.13 172.73 183.25 171.97 184.15 Z M 171.36 184.91 L 170.73 185.63 C 169.97 186.51 170.06 187.84 170.94 188.61 C 171.82 189.37 173.15 189.27 173.92 188.39 L 174.54 187.67 C 175.30 186.79 175.21 185.46 174.33 184.70 C 173.45 183.94 172.12 184.03 171.36 184.91 Z M 170.77 185.62 L 170.10 186.36 C 169.33 187.22 169.41 188.54 170.27 189.31 C 171.13 190.08 172.45 190.01 173.22 189.15 L 173.88 188.41 C 174.65 187.55 174.58 186.23 173.72 185.46 C 172.86 184.69 171.54 184.76 170.77 185.62 Z M 170.15 186.34 L 169.46 187.08 C 168.68 187.92 168.72 189.23 169.56 190.01 C 170.39 190.79 171.70 190.74 172.48 189.90 L 173.18 189.16 C 173.96 188.33 173.91 187.02 173.07 186.24 C 172.24 185.46 170.93 185.50 170.15 186.34 Z M 169.51 187.06 L 168.82 187.75 C 168.03 188.56 168.04 189.86 168.85 190.65 C 169.66 191.45 170.96 191.43 171.75 190.62 L 172.43 189.93 C 173.23 189.12 173.21 187.82 172.40 187.03 C 171.60 186.24 170.30 186.25 169.51 187.06 Z M 168.88 187.72 L 168.14 188.43 C 167.33 189.21 167.30 190.50 168.08 191.31 C 168.86 192.12 170.15 192.15 170.96 191.37 L 171.70 190.66 C 172.51 189.88 172.53 188.59 171.75 187.78 C 170.98 186.97 169.69 186.94 168.88 187.72 Z M 168.19 188.40 L 167.45 189.06 C 166.62 189.81 166.55 191.09 167.30 191.92 C 168.05 192.76 169.33 192.82 170.16 192.07 L 170.90 191.41 C 171.73 190.66 171.80 189.38 171.05 188.55 C 170.30 187.72 169.02 187.65 168.19 188.40 Z M 167.50 189.03 L 166.74 189.66 C 165.89 190.38 165.78 191.66 166.50 192.51 C 167.22 193.36 168.50 193.47 169.35 192.75 L 170.11 192.11 C 170.96 191.39 171.07 190.12 170.35 189.27 C 169.63 188.41 168.35 188.31 167.50 189.03 Z M 166.80 189.62 L 166.00 190.25 C 165.12 190.94 164.96 192.21 165.65 193.08 C 166.34 193.96 167.61 194.12 168.49 193.43 L 169.29 192.80 C 170.17 192.11 170.32 190.84 169.64 189.96 C 168.95 189.08 167.68 188.93 166.80 189.62 Z M 166.05 190.16 L 165.26 190.72 C 164.33 191.38 164.12 192.67 164.78 193.59 C 165.44 194.52 166.72 194.74 167.65 194.08 L 168.44 193.52 C 169.36 192.86 169.58 191.57 168.92 190.64 C 168.26 189.72 166.97 189.50 166.05 190.16 Z M 165.25 190.51 L 164.41 191.05 C 163.36 191.72 163.06 193.10 163.73 194.15 C 164.39 195.19 165.78 195.49 166.82 194.82 L 167.66 194.29 C 168.70 193.62 169.01 192.23 168.34 191.19 C 167.67 190.15 166.29 189.85 165.25 190.51 Z M 164.34 190.86 L 163.98 191.08 C 162.83 191.78 162.47 193.28 163.17 194.43 C 163.87 195.58 165.38 195.95 166.53 195.24 L 166.89 195.02 C 168.04 194.32 168.40 192.82 167.70 191.66 C 166.99 190.51 165.49 190.15 164.34 190.86 Z"
      fill="black"
      fill-rule="nonzero" /></svg>