<svg xmlns="http://www.w3.org/2000/svg" width="300" height="300" viewBox="0 0 300 300">
<path d="M 115.31840779262401 122.39143472361945 L 115.82474854450214 124.8916139697419 L 118.12662078737084 126.33123082903198 L 120.17341429709093 127.35692644916375 L 123.3641989950871 129.1937289871505 L 124.93413374815924 130.38192661395985 L 127.17157914246576 127.56082240947767 L 125.4285256142879 126.1214565597245 L 122.13737671853407 124.00440167583625 L 120.11495636106666 122.80292444440552 L 119.24788329143536 122.3907346630706 L 119.35810587925099 121.86295980763055 Z" fill="black" />
<path d="M 109.95447566739384 134.59734192318115 L 106.05547799818797 137.51756865141252 L 110.81381754974781 139.60989828619557 L 113.62151629651878 139.4114634442622 L 115.25279259441187 139.11950784921117 L 117.01584607870979 138.81906843245682 L 118.81217466451098 138.3815445581409 L 120.65040828129007 138.01545282637179 L 122.54699220320822 137.5538476519316 L 124.56280721322679 137.006242660548 L 126.40152309669031 136.54202868784066 L 128.05769073757085 136.1067944571823 L 129.59333221923467 135.80853532217205 L 132.07865943344166 135.33093614994897 L 133.506093334428 135.2623415852065 L 133.364023853072 131.6641720866685 L 131.62251244155834 131.72069959223853 L 128.95830352295283 132.16900374032795 L 127.32499969211665 132.3962573006302 L 125.56014682518469 132.73677990590934 L 123.68975626333571 133.073347183202 L 121.63635740616678 133.4516455121309 L 119.82383488277243 133.79082158769071 L 117.95296205423902 134.0753646215466 L 116.18422716347771 134.43862199723068 L 114.52626013996313 134.66369527578883 L 113.13263409410622 134.8972523760503 L 110.64675373931469 135.07418374505443 L 110.50763235337453 137.16651337983748 L 111.36205265291866 138.25995788150635 Z" fill="black" />
<path d="M 112.53920384308799 147.15246061810097 L 114.57591489204154 146.70271188684865 L 115.9874798002328 146.23415161147472 L 117.59481087866061 145.66856122709822 L 119.27634725310374 145.03413334463656 L 121.08960601098269 144.40151194439065 L 122.915975204406 143.74143846438318 L 124.75464722890081 143.10412231312247 L 126.88077042339329 142.4470021868709 L 128.48548650961277 141.9540489920168 L 131.1471029083834 141.4165775097103 L 133.2430317065241 141.319393787594 L 133.1229350903509 137.718936290531 L 130.7175211150541 137.7718990527897 L 127.68944024819972 138.2854529611082 L 125.87313582660671 138.7184030865666 L 123.64195921641169 139.23743042125253 L 121.6634925690315 139.77626173092932 L 119.78075531714231 140.31736012592185 L 117.88490762970876 140.86088618661344 L 116.14542349633939 141.42763017915178 L 114.5838092622672 141.91306518540028 L 113.07850405327096 142.37040823033885 L 111.15403346159951 143.37207551471153 Z" fill="black" />
<path d="M 112.5677299991058 152.47414899129788 L 111.38988322154846 157.00677348006212 L 115.77832900117339 156.67203209280854 L 118.50081003196829 155.4995337025897 L 119.93796173800968 154.80966587854385 L 121.48480754405581 154.1138111693453 L 122.96347832454029 153.42837835868428 L 124.5712644667307 152.72337191214632 L 127.1253707255844 151.64571071154515 L 128.8672412680095 150.97497017231197 L 130.4812495664951 151.04319382160622 L 130.7351810975674 147.38905715495628 L 128.388007755428 147.18201224956303 L 125.7725784931656 147.83756565564235 L 123.0331056504568 148.86195523629118 L 121.32790351139721 149.48324273506572 L 119.78167194813169 150.0990794556547 L 118.15957244167782 150.72951869176865 L 116.67985403053171 151.3659448130353 L 114.25279892851411 152.42061927437896 L 113.88782673938904 153.41217183243788 L 115.3747748837067 155.16708636026462 Z" fill="black" />
<path d="M 115.58508927891033 161.0415589739281 L 116.20639426721799 162.57852878490402 L 116.45055271750098 164.0755467342631 L 116.6700829301128 166.8967954957589 L 116.69249272346497 168.72265625 L 116.69803619384766 170.56195068359375 L 116.7027092757221 172.3078135162107 L 116.64059441459789 173.91735249937167 L 116.42083753370072 175.21292416908213 L 115.88975650514962 177.5898153276874 L 119.2867121788447 179.92645385071856 L 119.76791600148603 178.73481861828907 L 121.3254525199358 176.67825005093383 L 122.4022007169679 175.48578297971875 L 123.58860582950946 174.29138045846145 L 124.83750610404579 173.10482900480216 L 125.97088559689819 172.19514336943124 L 128.31606061820165 170.6978461734604 L 129.83614690723394 170.09641351005524 L 129.9295425665831 170.00470011639595 L 129.77303325409076 170.72774181477442 L 129.7482841635438 172.7476636152995 L 129.0055359118949 175.19290158011214 L 128.4872107726389 176.40307859664256 L 127.89143831663459 177.62498205873254 L 126.33735658688389 179.776629787675 L 124.62165691790251 181.6590352127382 L 123.00111547149645 183.28166061701913 L 121.28983396037455 184.3370279711711 L 121.98035861410455 185.5327606879732 L 121.99245415301638 183.68449681120754 L 122.2170443515882 181.96336780367824 L 118.6533169765368 181.45728649319676 L 118.33774604229612 183.53986842316746 L 118.49388454995795 187.8976592339018 L 122.89351564900045 188.5678792553914 L 125.79160913787855 186.99568313298087 L 127.98820636334749 184.9146952560118 L 129.98161313967861 182.7181211888875 L 131.84855191774042 180.11513024595496 L 132.7292198914236 178.30907960648244 L 133.3992492443551 176.61642459176286 L 134.2409736489562 173.4061449784505 L 134.21622455840924 170.27103748210058 L 133.1234359490419 167.04022175860405 L 129.50772516307856 165.89748297431976 L 126.41843645211085 166.9977104671646 L 123.61407534060181 168.80363592744376 L 122.11867065376671 169.99600107332284 L 120.70277600642804 171.33691543997605 L 119.4044399080321 172.64495432496875 L 118.1044791206892 174.08005073031617 L 116.20498438913897 176.62797435046093 L 114.9936833289678 179.54034302428144 L 119.97511165891288 178.9741495160626 L 120.63238512254928 176.07088930748037 L 120.91677863227711 174.33850687562833 L 120.9987067399029 172.3945790619143 L 121.00337982177734 170.56195068359375 L 121.00892329216003 168.72265625 L 121.0313330855122 166.7197816526786 L 120.85474513406152 163.6102442813619 L 120.45071022496951 161.15340480884598 L 119.19945661952717 159.1369078229469 Z" fill="black" />
<path d="M 143.2571761701423 109.31790789384264 L 145.50641693840413 110.71246338442039 L 146.95146998806123 111.32166273319521 L 148.5413576087794 112.12076492224924 L 150.3368572599962 112.86773124056555 L 152.29219839639543 113.55996177201048 L 154.49933021883564 114.18525700815982 L 156.89411783998113 114.60368161249046 L 157.51017903501887 111.05757327032204 L 155.29559165616436 110.67521662465268 L 153.39749886922957 110.12436439986452 L 151.6797443025038 109.49030098599695 L 150.1622556724706 108.78585128868826 L 148.83527317600127 108.00841539180479 L 147.65154204597087 107.04107665464211 L 145.2914078142327 105.78304425459486 Z" fill="black" />
<path d="M 171.79064421276797 107.25720100660956 L 171.87520946104172 106.27451649248734 L 170.01023354146687 103.79094922234152 L 167.9903175960961 105.54093729520925 L 166.76986336293137 106.69602595203648 L 165.55087023173243 107.78916335387902 L 164.24255900677434 108.91204402919253 L 162.75907234241905 110.11315608651499 L 161.14619980681027 111.38168893844374 L 159.43802333671272 112.70831782344236 L 157.4200651216854 114.24029893660405 L 155.57813289514056 115.61029524299471 L 153.66439026567232 116.99210995389856 L 151.76814780206365 118.3826727376355 L 150.12671426206344 119.67031889447493 L 148.47146397347424 120.75754468752991 L 145.67103672397934 122.77287997928296 L 143.5203032042322 126.13913822033355 L 147.44220640908168 127.87267346817103 L 151.39515457977916 127.54001031285992 L 153.07300169400705 127.25167992352858 L 154.78525764821975 126.9136439365223 L 156.61562669222772 126.49438315483681 L 158.5299982127711 126.0160847092071 L 160.52704307650237 125.52588124127853 L 162.78270606827422 124.89110112218341 L 164.6604668246801 124.38742822411383 L 166.42152215059804 123.83488601565168 L 168.08079783247496 123.40395543614042 L 170.9560808885162 122.63202145682644 L 172.2168254528489 122.2161295936682 L 173.78204079626164 122.11833915399467 L 173.64410666467586 118.30732002569283 L 171.7522907580886 118.3346516563318 L 169.9881329786713 118.56939455879856 L 167.06568654252504 119.24887659510958 L 165.30394171658946 119.61872726559832 L 163.4999335659449 120.11721044776117 L 161.66858787703828 120.53944087000409 L 159.42290809537263 121.08080821184647 L 157.4587713184789 121.5165080642304 L 155.55600416714728 121.96411293891319 L 153.82130973459275 122.3456334072277 L 152.22057740755545 122.65823218584642 L 150.87352217803334 122.89541449182758 L 147.15618226279332 123.23841051620397 L 147.8011079285803 124.97194576404145 L 148.27915858852066 125.96088466915454 L 150.77231044058826 123.87221605465759 L 152.39403769106156 122.73226899615007 L 154.06559243231135 121.3673272623645 L 155.87845641401518 120.00520449922644 L 157.78185245642194 118.60930924919279 L 159.6490266751896 117.22662000870845 L 161.70028232734978 115.70562260624514 L 163.44913710725223 114.40468801468126 L 165.11324211070595 113.17077946036001 L 166.69066853228816 111.99457218174497 L 168.11917371358007 110.89028000549598 L 169.42093253550613 109.85634221202602 L 170.7212302554664 108.90938008760325 L 172.66249595072063 107.50629198859598 L 174.75870167177078 102.52028331220016 L 170.19788117785703 103.51452750901544 Z" fill="black" />
<path d="M 148.21285295594478 140.7201539521286 L 150.59112356898936 140.56542966635394 L 153.5848459476851 139.75166964522558 L 155.270352395576 139.34771961138782 L 157.3090589846793 138.92890555626443 L 159.43754702767805 138.45876835875333 L 161.49370383562 138.13498553701348 L 163.54141829605695 137.93569524962294 L 165.54868993326897 137.73907777873146 L 168.4618272364847 137.73553753191604 L 170.33283454669183 137.7483940727884 L 171.42137612631944 138.28054570225353 L 172.11712180682 138.8781747293719 L 172.33048461147303 139.6675371482627 L 172.4231656720747 141.1089966862035 L 172.41923379009538 143.17525836249084 L 172.37269854929315 145.03009145988383 L 171.93398241543377 146.81478491007795 L 171.45066831317502 148.71233353052895 L 171.03810840661268 150.23649493986989 L 170.02703453807007 151.02281156503093 L 172.24957679005493 153.86573823965657 L 174.11936229651232 152.39985759919261 L 175.18324281963748 149.97016158665855 L 175.88828320956623 147.91385278523455 L 176.49387859914435 145.61956674324117 L 176.59138632709212 143.24527386407166 L 176.5874544451128 140.957287493484 L 176.39204956821447 138.8452802345498 L 175.56110084943 136.6066885518781 L 173.73609457680556 134.82699824305897 L 171.25957267987067 133.6574897162741 L 168.5212049900778 133.52019977277146 L 165.38453760579353 133.51665952595604 L 163.14254166488055 133.72043268006456 L 160.97699928938 133.92153301767402 L 158.67585629263445 134.24838496155917 L 156.4470445309457 134.70415108436057 L 154.380526510674 135.08611827923718 L 152.5009694820024 135.48294949539942 L 149.69696236851064 136.24572756020856 L 147.71793317686772 136.6165159697464 Z" fill="black" />
<path d="M 143.72676246122487 149.4575918407535 L 143.08384827509957 153.85521931094422 L 145.24903035202306 153.42975317865503 L 146.89343843268293 152.95863533814932 L 148.8466022856373 152.37845937339253 L 150.80319131993656 151.8476278443114 L 152.9347397650172 151.22849481301787 L 155.19530732964034 150.66978412420184 L 157.60998959315498 150.0252387970693 L 160.09160941068438 149.44174547560377 L 162.8531214655718 148.93060227888927 L 165.03999105067993 148.54679368450175 L 166.96134339226901 148.30814859534033 L 168.7236332701877 148.20884346827506 L 170.2020263671875 148.1819508075714 L 172.45269775390625 148.17553520202637 L 172.45269775390625 144.57617378234863 L 170.2020263671875 144.5697581768036 L 168.6555171204373 144.54286551609994 L 166.70870055304349 144.56868245934717 L 164.56083902744507 144.73042799518575 L 162.2463658391157 145.02227858048573 L 159.35419137056562 145.41201429002123 L 156.68627505528252 145.9045707732432 L 154.20349638129716 146.43617290704816 L 151.8546889459203 146.92848760885713 L 149.62893758631344 147.5105264525636 L 147.6243449799877 148.03072031410747 L 145.61632719231707 148.62669181028818 L 144.09178996047694 149.08147729009497 L 140.96339293583793 149.98230510311828 L 144.42570335908763 153.7042733936215 Z" fill="black" />
<path d="M 147.71605585149328 165.8636277048238 L 151.8463397878492 164.2293541637852 L 153.8668560221967 163.3519393386959 L 156.26483479076282 162.27265494368982 L 158.98219158718712 160.9806129496743 L 161.86981964941344 159.5416450956939 L 164.89910745324858 158.00232927934428 L 167.32538789167052 156.69237302674495 L 169.53029972585594 155.53515226006627 L 171.42571228750958 154.56776358218815 L 173.06553213097402 153.66649039805498 L 175.6174161653734 152.41423321723747 L 174.0413973111891 149.17109393120003 L 171.44374521277598 150.42127815663252 L 169.77057677499042 151.24668954281185 L 167.84885066476906 152.10608309149623 L 165.55241972551698 153.20105959044255 L 163.11724996862642 154.39354474409322 L 160.06072234277406 155.7570609589936 L 157.15062091281288 157.0958030659507 L 154.46636638111218 158.30620247818518 L 152.1109271809283 159.3289688644291 L 150.1702617746508 160.1532141955898 L 146.09009649225672 161.8221633108012 Z" fill="black" />
<path d="M 160.2410091361799 126.27741038009162 L 157.07868178552866 124.28502604188948 L 155.1056183337154 128.23376382411385 L 155.69612993313052 130.95596593238716 L 155.99954687979115 132.62588953898296 L 156.37160293534907 134.65923180521318 L 156.63162311639388 136.77025121628182 L 156.9512082920004 139.2959656573764 L 157.22316013001196 142.18647186375043 L 157.42797478518776 145.51328260799318 L 157.6424493440538 149.1282359659235 L 157.86091416084454 153.2611662906148 L 158.00053540974488 156.86770793958397 L 158.1586496194698 160.39604691717753 L 158.17847633361816 163.8428955078125 L 158.19938039779663 167.00848388671875 L 158.2259488105774 169.83624267578125 L 158.25968170166016 172.81414794921875 L 158.28763508796692 174.79107666015625 L 158.31489491462708 177.81903076171875 L 158.36882341813364 181.15364544181693 L 162.17341880385092 178.94112269015253 L 162.5029547556385 175.89477615683876 L 162.70202082754614 173.90694738268093 L 159.12048893807886 173.54813074231907 L 158.923436845924 175.51415939003624 L 158.56876869614908 178.67386754422247 L 162.26533185530386 180.94071490974557 L 162.31926035881042 177.81903076171875 L 162.34652018547058 174.79107666015625 L 162.37447357177734 172.81414794921875 L 162.4082064628601 169.83624267578125 L 162.43477487564087 167.00848388671875 L 162.45567893981934 163.8428955078125 L 162.4755056539677 160.30793257500997 L 162.34553392619262 156.70431354479103 L 162.23307997978046 153.0787995296977 L 162.0554266325087 148.903624385639 L 161.87378302731224 145.26149766544432 L 161.68247951842554 141.85674102687457 L 161.4142702236246 138.8164611004361 L 161.08566203985612 136.21217065871818 L 160.80552108808843 133.96894202291182 L 160.38534081552135 131.79818272664204 L 160.04056440280698 130.03976160667534 L 159.4427215100346 127.48181234776114 L 157.21758286290884 128.402596028423 L 158.0164371528826 129.31304372147088 Z" fill="black" />
<path d="M 169.8609459759806 132.124638100821 L 169.39741806369213 130.9375321802823 L 166.2099952534422 132.6827948153658 L 166.5065478915519 133.87794780623787 L 166.93758792092106 135.6177154119785 L 167.30479386191703 137.89120439538695 L 167.68037885705624 140.38387328360753 L 167.8361854657138 143.25642340665323 L 167.96935235086747 146.5447415494232 L 168.01643836320025 150.38914836152225 L 168.0087819837683 154.64147279294235 L 167.9650206565857 159.42608642578125 L 167.94033789634705 163.78033447265625 L 167.9338141766097 168.03757464458744 L 167.86220326645056 172.2454798659056 L 167.6329341870245 176.380695120257 L 167.55568010200474 180.44633365404562 L 167.50071672544965 184.875538917753 L 167.53067467841203 188.17681868290944 L 167.54458784069266 191.3679374924337 L 167.63095355033875 194.297607421875 L 167.6868344588402 196.83915294941394 L 167.63381632753055 199.1082391135349 L 167.49852809250194 202.72660777255805 L 167.10877542026702 204.76717403765852 L 166.87073527628365 205.61342296541065 L 167.62011935124565 205.80927179808597 L 168.29403590813698 205.88253287636698 L 167.80033373972617 203.71463124599217 L 167.51017530540716 202.30557680774342 L 167.3881449760443 200.7618895332957 L 167.28775411227366 198.91578349753738 L 163.64547342678884 199.16368427590012 L 163.7971577583307 201.0211915213918 L 163.92720262428034 202.75570248913158 L 164.17720532277383 204.37460215244533 L 164.58377170905052 207.08646126425802 L 166.84216092219185 209.93743230347653 L 170.25633991902885 208.15635242521435 L 171.20665426723298 205.84952518109148 L 171.71717014968556 203.13545277431695 L 171.86996785215695 199.2464972145901 L 171.9249819474098 196.88606677714856 L 171.98086285591125 194.297607421875 L 172.06722856555734 191.4216132888163 L 172.22518469658797 188.28155534052806 L 172.39918561830035 185.001414207247 L 172.59629743705776 180.59700130689188 L 172.7711185473505 176.629802926618 L 173.08201060073694 172.4569127122194 L 173.1544426593278 168.08144391010006 L 173.14791893959045 163.78033447265625 L 173.1232361793518 159.42608642578125 L 173.0794748521692 154.60132505862015 L 172.92777550398725 150.27027546660275 L 172.72278632100753 146.3320895052643 L 172.4598350420987 142.91386467928427 L 172.07548051794376 139.85562866951747 L 171.65882918495797 137.19326826086305 L 171.23379879782894 134.737142986459 L 170.7285595303231 132.77329731094963 L 170.2328758403078 131.0656182705717 L 165.35294814724537 129.5326826634677 L 166.0777747271444 133.0751910007415 Z" fill="black" />
<path d="M 160.98261750808157 168.00217983349523 L 158.26226722101208 167.78425039586276 L 155.42997118282088 169.866985587115 L 151.6318074708795 173.09118228904492 L 149.90896032844563 174.5319302702696 L 148.22446673634775 175.95974402379127 L 146.3540975974102 177.45181090974577 L 144.4494795618608 178.9587924361717 L 142.4946480584056 180.4756028776356 L 140.64620230163976 181.90713270013768 L 138.63446865873667 183.32356604282438 L 137.14683820520094 184.2815691797175 L 134.8217950031975 185.7180454499978 L 135.67231195300286 187.54737639653524 L 136.60993440988653 186.69260568746896 L 133.32109586355097 185.03615407815604 L 131.73796636730964 189.18626618158976 L 136.69370792649 189.8144252531272 L 139.51820085729906 188.222947421845 L 141.19951571626333 187.20402184780062 L 143.40103890929774 185.71762315923732 L 145.3697318244069 184.2463209504894 L 147.3760819615767 182.7351772903908 L 149.3246133400898 181.21420471525423 L 151.27138287302725 179.67831749964623 L 153.00790978874187 178.2032992219179 L 154.742093896308 176.74121517189258 L 158.47017530155412 173.5091130456975 L 160.10321129461292 172.03838144007474 L 160.83989225754343 171.94557407275477 Z" fill="black" />
<path d="M 178.4171409649675 170.11137911723952 L 179.7733475740032 171.3629825192749 L 182.503327483822 173.44400139276988 L 184.3820256666795 174.65004577941212 L 187.38340349074613 176.66795050892026 L 189.370736110163 177.95766065171688 L 190.92159954693042 178.9924358281942 L 192.09096457988022 179.73291382322836 L 193.11567777313056 180.65630146432298 L 195.75883394561944 178.13483623098952 L 194.65891334980728 176.83105102052164 L 193.34353717181958 175.7197223749308 L 191.8334875226495 174.50230028578312 L 189.85963850144137 173.03932488170474 L 186.811211638008 170.97825011902538 L 184.980803375553 169.80697516973012 L 182.3091719572468 168.0592586916626 L 181.1446266131575 167.05866482807298 Z" fill="black" />
</svg>