<svg xmlns="http://www.w3.org/2000/svg" width="300" height="300" viewBox="0 0 300 300">
<path d="M 171.23930871537365 106.05115720593457 L 169.97516508964074 107.98023555489512 L 169.10497211128336 109.36171878414746 L 167.93594375285568 111.01188643441017 L 166.68439149345207 112.80160547596785 L 165.25323098380008 114.83648808002654 L 163.86551285428294 116.67721384889708 L 162.2579453756195 118.59427491966095 L 160.6003923771268 120.44379478206261 L 158.93779220275894 122.0949542851051 L 157.5858749918475 123.36833684162445 L 154.80600056983855 125.518956782782 L 159.08967291138654 127.31974278707393 L 161.58132770008945 125.83575836215209 L 163.0161611860169 125.05942666101453 L 164.57572023591663 124.25810019530722 L 166.41933993166646 123.33496896147906 L 167.96539205730514 122.55404523931438 L 169.59237261274967 121.82693304372683 L 171.21166716210413 121.03760039146393 L 172.83337200017635 120.39881567382298 L 174.34073708707336 119.7359751489156 L 175.91446398422903 119.12222115838776 L 177.80899548602414 118.602578798212 L 177.91979914990242 118.15514468661472 L 177.52396427003893 118.05544533108312 L 176.64510174225143 119.43200060835072 L 175.23100488230872 121.6926688712179 L 174.30778880647048 122.90508843219675 L 173.37748250082853 124.34838695613364 L 172.2992889858028 125.78428097649532 L 171.02609979902496 127.4292952171375 L 169.75657172631853 129.1328801922329 L 168.26179164609908 131.07809288121612 L 166.95142520834932 132.72103440091553 L 165.61998565529044 134.43369521831258 L 164.28025766556007 136.1122843535223 L 162.84214588830378 137.80219287613716 L 161.37863082015906 139.5223592555107 L 159.68644064468936 141.5583939162277 L 158.34034077098818 143.10574178029268 L 156.91301849511444 144.69598263464152 L 155.5405420622788 146.2315519758678 L 154.25405309240344 147.69691525715723 L 151.193561444785 151.05716826490095 L 149.80492379071606 152.15666625959534 L 151.92359183428394 155.10920288102966 L 153.847942461465 153.83138153978655 L 157.12534143884656 150.33494509440527 L 158.4676366486587 148.8974763444447 L 159.86798736426056 147.40509158410848 L 161.35753520557432 145.81723185251982 L 162.78426248031064 144.2115035447098 L 164.51309281265344 142.1685587132393 L 165.96644786169622 140.46038036605034 L 167.44520620162743 138.7219441621027 L 168.84229461814706 136.97218857074992 L 170.17564998696318 135.25650466158447 L 171.49406772890092 133.59622352503388 L 173.02418999243147 131.5875787921421 L 174.27541387285004 129.862819040675 L 175.5229766391972 128.20461062506718 L 176.67744913979647 126.61255054386636 L 177.58369068571702 125.15301703655325 L 178.53303320362878 123.8629951912821 L 179.99979571868607 121.39404919633678 L 181.24556697996107 118.94186912204188 L 180.45361393603508 115.41382503994778 L 177.25142931866336 114.9663909283505 L 174.78866101577097 115.62289602911224 L 172.94136740511414 116.3354359838969 L 171.42383014826115 116.99888940430202 L 169.73254670508337 117.66137421791107 L 168.03885297318783 118.47360406564817 L 166.38885598956986 119.19790788568562 L 164.76596280270854 119.99352224945844 L 162.90047605314587 120.89717324219278 L 161.2910897905456 121.69740927648547 L 159.70102093272305 122.49761566128541 L 157.04313958861346 124.04158533792607 L 157.61770548484895 128.344812748468 L 160.1314101644025 126.41645319743805 L 161.69636307067856 124.9121257930199 L 163.4547834041232 123.13494056949989 L 165.218250913443 121.15572508033905 L 166.92367171602956 119.11892872922792 L 168.41681296151242 117.15594356059846 L 169.90252256904793 115.08682225840715 L 171.17172226276932 113.32307450308983 L 172.37940288871664 111.67001949710254 L 173.48980073067176 110.17369510916738 L 174.60236608931385 107.99876955187793 Z" fill="black" />
<path d="M 153.7726380453161 134.21938774316342 L 155.23292010460358 133.9556775796465 L 158.37085348032943 133.32641817941396 L 162.51749784871163 132.8244922174625 L 162.18587129191337 129.222260712225 L 157.90600198842057 129.49609158621104 L 154.41795880164642 129.9178575766035 L 152.7092955484339 130.58005073339908 Z" fill="black" />
<path d="M 153.40590415880604 142.73763650719638 L 154.4343256400264 141.9718313598313 L 158.0853483598795 140.83764157085855 L 160.973481777634 140.25612343881065 L 162.38874851993853 140.1228141700539 L 162.06254542537397 136.5381965721336 L 160.4529098239285 136.68015585806435 L 157.2552278119955 137.14966311664145 L 152.9838872505986 138.1175241089187 L 151.09543861463146 139.32864767249112 Z" fill="black" />
<path d="M 166.23578111689793 141.48650619042505 L 164.95383014519126 142.72268258906874 L 163.02863573732273 144.70082900816047 L 161.65207354272283 146.07971969835492 L 160.23201882891487 147.510941087617 L 158.60646667337377 149.05783628562662 L 156.81953059030184 150.71359381117995 L 155.0208885483259 152.4419656542834 L 153.32216787551354 154.07149937095386 L 151.50325165801712 155.73350875199677 L 149.14796399542604 158.1437990097072 L 147.47856419926268 162.54349552802097 L 152.17906488923938 162.82650009159315 L 154.52501220455989 161.9285888606194 L 155.9758061017985 161.39119903729153 L 157.62677086602508 160.7228269398724 L 159.37922225870773 160.0771682311348 L 161.38691486407149 159.33852637512237 L 163.57370045952516 158.4623103754611 L 165.45059515051864 157.732730814236 L 167.3910294626479 156.99910724741736 L 169.26386931721763 156.32783465180762 L 171.01654299576413 155.70323558689773 L 172.59493041211053 155.1681137535852 L 174.14798344998403 154.71262242994197 L 175.71835533656323 154.48981910443263 L 177.18676998605514 155.15427155176206 L 178.66589114675736 151.83632903417544 L 176.31716712437427 150.79912132525487 L 173.53023920626597 150.95168421068303 L 171.51822876757697 151.4220962073523 L 169.78362790267337 151.93799976466477 L 167.97123810465737 152.51457257475488 L 166.0269392873521 153.14456951039514 L 164.00619195885636 153.8623619592015 L 162.06594797797484 154.5841984136014 L 159.89543376874101 155.43466698425263 L 157.94194473347977 156.1474411438652 L 156.12933264959992 156.8030519663776 L 154.4673091325765 157.46097381427097 L 153.03724365481511 157.9746093815681 L 150.88184819669812 158.80338272090685 L 151.08100611323732 160.26253474541653 L 152.32847643426146 160.9836423965428 L 154.47453154510788 158.76441605269073 L 156.22067880417396 157.14822719154614 L 157.9429786391741 155.4745382519666 L 159.70940007376066 153.77456536850755 L 161.48752746725123 152.12710023781088 L 163.17496359296013 150.5209192639455 L 164.63576825415217 149.04930862195758 L 166.03203320798977 147.65048935121453 L 168.06802044074624 145.54965627811876 L 169.16277845341457 143.88300064551245 Z" fill="black" />
<path d="M 153.32734705237348 171.7350650583774 L 155.42856672778277 171.98922299335305 L 158.80086047697347 171.14742634286523 L 160.75063915728984 170.57987064797004 L 162.73301453626001 169.95627242516937 L 164.97323287544054 169.25192835673082 L 167.14703214574203 168.5540168848565 L 169.32622673920588 167.8426915163927 L 171.58668913440926 167.07734824402885 L 174.64409802882332 166.20496773070028 L 177.08261096492933 165.5183354145133 L 176.14126598819567 162.0423335307992 L 173.68231798680168 162.68199515992472 L 170.54587922496574 163.51127480284615 L 168.19696662016912 164.1973475461073 L 166.01886140894547 164.812316122956 L 163.83536087455946 165.41567418233168 L 161.57423644030249 166.03762405920563 L 159.59543017864766 166.59017329734246 L 157.72807018708903 167.09866740713477 L 154.90651628002973 167.83340884258445 L 153.83879064293902 167.6871761525601 Z" fill="black" />
<path d="M 165.91201318016155 158.67606168702557 L 165.47902138801385 160.5745901638131 L 165.32625357623365 163.01015183832695 L 165.29896477416398 164.5840630085806 L 165.18104383356683 166.33296414483416 L 165.09593973329655 168.2326483068507 L 164.9413612991263 170.25748964927192 L 164.8024895118595 172.534101121381 L 164.57675327761322 174.5812221997886 L 164.42153113803852 176.6953905360144 L 164.19486851367688 178.72838717816686 L 163.99983141914532 180.65479296737092 L 163.80787035475717 182.3934529906449 L 163.54183680474497 184.21581007266477 L 167.10330479681753 184.73523973202273 L 167.37743237961783 182.8539835327926 L 167.58158947929218 181.03917675919158 L 167.78267054882312 179.13684719683314 L 168.06015831508648 177.0908643467981 L 168.30105433957428 175.0009311205239 L 168.6154792381405 172.9440482926815 L 168.8727256149362 170.61616757729058 L 169.11426534482845 168.5620294275243 L 169.28123643987067 166.63297823797834 L 169.45140143677352 164.8284125773569 L 169.53214486126635 163.22422316167305 L 169.66746298698615 161.0552926486869 L 169.88266455421345 159.40035432859943 Z" fill="black" />
<path d="M 151.75722970769775 179.82458471941078 L 148.11587568004916 181.75779620820887 L 151.0317819270026 185.16016772839066 L 153.72083111359635 186.0033523090165 L 156.94674526140074 186.5008550104629 L 158.87628065344694 186.638745298769 L 160.80602956390217 186.70301659347854 L 162.94586181640625 186.70016717910767 L 165.0237111286416 186.69067661371722 L 167.3663978874416 186.45669624098375 L 169.7317233252193 185.77218669884735 L 171.99422643079862 184.90132608389095 L 174.14497073579562 183.83662709791807 L 176.45136941980013 182.58950642391832 L 178.19896304484982 181.26579329574307 L 179.71389848533013 179.9996730517659 L 181.10870323959583 178.71943544708043 L 182.25671679988199 177.4978929330596 L 184.4027358959161 175.2456553744945 L 180.4744130567435 174.4402221958641 L 180.16930003164853 177.01513086907204 L 184.14588551522647 177.57190526374046 L 184.4889658495065 175.5172973353859 L 181.8930404712714 171.9591786098805 L 179.42968456730551 174.9620680044404 L 178.45306433852917 175.99272275604457 L 177.21908491310737 177.0898044872966 L 175.81715023640018 178.20100357925693 L 174.39579854894987 179.22958537295668 L 172.34489742826688 180.23466196458193 L 170.39041712388888 181.14689168954655 L 168.4396633935307 181.85256916052765 L 166.5917319953709 182.36923149339125 L 164.8291941447959 182.51061733159528 L 162.94586181640625 182.50112676620483 L 160.87243723297283 182.49827735183396 L 159.09307969811556 182.437426576231 L 157.45755161359926 182.3250727239121 L 154.63366107390365 181.896672105046 L 152.6773245183099 181.28844067004684 L 152.17221025745084 182.71388347929113 L 152.63608083917725 183.72119164777672 Z" fill="black" />
<path d="M 123.95352720030667 142.79277289715955 L 125.90974640076567 143.4805520716439 L 129.27581787109375 143.33274567127228 L 131.25874370546174 143.23858226311955 L 132.67775210019713 143.36378018599544 L 133.00401059511537 139.77855379837956 L 131.39811664610076 139.62848316656795 L 129.27581787109375 139.53431975841522 L 126.30399871642183 139.3865133580436 L 124.98324037781833 139.14838921221545 Z" fill="black" />
<path d="M 122.41951644970419 148.95096952793716 L 119.21833645408967 151.65319294000764 L 123.3866082996034 154.04729191617628 L 125.16898837073919 153.7827811524124 L 127.00409807021177 153.70547101820452 L 128.87969970703125 153.6792585849762 L 130.7918101268253 153.62999568545183 L 131.65455086683156 153.71647619225567 L 131.39331098584162 153.1051084591317 L 130.75196179014057 153.53516577272825 L 128.79865051301692 154.8032578906574 L 126.34484160498509 156.17502757302 L 124.13586860006288 157.2780055181784 L 121.31767353019919 158.4415997526091 L 118.66036459682608 162.53199523805367 L 122.85534583641542 163.47495902638195 L 124.88401020699303 163.98068127176492 L 127.03261138188104 164.539273221269 L 128.76926129421517 165.17699897388545 L 130.0616536835727 165.91904161308042 L 130.6643702125804 166.4450471482778 L 131.1415982660552 167.57175691227428 L 131.16848456167068 168.398172994781 L 130.3401697942499 169.79563358409635 L 129.5167532166013 170.5934086938184 L 128.32674772303767 171.42400091934027 L 125.80005488654302 172.6317769810957 L 124.24803177142589 173.05203823415448 L 122.44645001881679 173.29349630068282 L 120.53820584548298 173.47672065211154 L 118.25653076171875 173.45332884788513 L 117.56646792291974 173.74524141253082 L 117.96274510858194 177.69980421147218 L 119.20223255929005 177.93387129941195 L 121.22152438429399 178.89308896628094 L 123.94692284145434 180.37882262117026 L 125.5339545269424 181.38698288553636 L 127.13358370231025 182.4689127440176 L 128.85902338802524 183.6833972052469 L 130.75962018422845 185.12974744369896 L 132.89811383816104 186.66729070306224 L 135.1836408878424 188.28067912218637 L 137.7712391963017 189.99919036714923 L 139.91643869685487 191.46828724722275 L 142.01418072473777 192.73470786539582 L 143.879401639888 193.8985197800729 L 145.53921474658432 194.87563661868305 L 146.87909577220765 195.67683409218694 L 148.20715116312914 196.55902847863112 L 149.48066687209445 197.357161550244 L 153.60343067598268 197.94400611209235 L 153.04421402971457 194.37977777347834 L 149.62058089216043 195.51670660152166 L 150.24971873807982 195.53096947384515 L 152.13981652634305 193.990738840381 L 150.64050508687086 192.96208968543138 L 149.30376555591735 191.99247743125056 L 147.87081943310318 191.06699033444195 L 146.253655000737 190.0671784621146 L 144.40976947057473 188.87869545491668 L 142.40228688908263 187.64267466683975 L 140.3342295536983 186.20893951566327 L 137.7722917293451 184.49910603406363 L 135.55647600558896 182.93439386725026 L 133.48171282358405 181.44398302505104 L 131.56517094791226 179.9875012322531 L 129.72554715706474 178.6995442872324 L 128.0121880511826 177.55430129415114 L 126.17819922885816 176.43538636320474 L 123.21390042039351 174.89316591653156 L 120.62381724539745 173.75033280215055 L 118.29824121954306 173.30874071040282 L 115.38153012395526 177.41344999371918 L 118.25653076171875 177.70536255836487 L 120.72827364670452 177.68197075413846 L 122.92525408274571 177.46480448056718 L 125.08485397076161 177.18074985178302 L 127.34996952751948 176.5499857142168 L 130.36893098789983 175.10517388534723 L 132.2038278380862 173.8337153296191 L 133.7571202448126 172.25417110340365 L 135.19748223520432 169.5726522005315 L 135.2243685308198 166.69545500178822 L 134.1171239280446 164.1435758985972 L 132.4511636992398 162.56753065254458 L 130.46657854953483 161.45776665111455 L 128.24204682124397 160.644076388106 L 125.88930522269447 160.02652087667258 L 123.56066978858458 159.45619331736805 L 121.56180337192392 159.62340026975883 L 122.86567607917581 162.2623797395784 L 125.84521050149962 160.9235325677591 L 128.2456124965774 159.64919117698 L 130.83330749479558 158.1181288280926 L 133.09325305360943 156.60851098508425 L 134.97265581103338 154.6862733768058 L 134.56737296129344 151.04695154211933 L 131.4689320606747 149.68201603329817 L 128.87969970703125 149.6327531337738 L 126.93816267197573 149.60654070054548 L 124.81209073082331 149.6543526366501 L 123.0294073253966 149.91535456819872 L 123.23649753028533 152.43457561467986 L 124.53666030810831 152.23396699550034 Z" fill="black" />
</svg>