<svg xmlns="http://www.w3.org/2000/svg" width="300" height="300" viewBox="0 0 300 300">
<path d="M 161.17 118.73 L 160.22 118.49 C 159.11 118.20 157.98 118.86 157.68 119.97 C 157.39 121.08 158.06 122.22 159.17 122.51 L 160.12 122.76 C 161.23 123.05 162.36 122.38 162.65 121.27 C 162.94 120.16 162.28 119.03 161.17 118.73 Z M 160.08 118.44 L 159.07 118.25 C 157.94 118.04 156.85 118.79 156.64 119.93 C 156.43 121.07 157.18 122.16 158.31 122.37 L 159.31 122.56 C 160.45 122.77 161.54 122.01 161.75 120.88 C 161.96 119.74 161.21 118.65 160.08 118.44 Z M 158.85 118.22 L 157.85 118.14 C 156.69 118.06 155.69 118.92 155.60 120.08 C 155.51 121.23 156.38 122.24 157.53 122.33 L 158.53 122.40 C 159.69 122.49 160.70 121.63 160.79 120.47 C 160.87 119.31 160.01 118.31 158.85 118.22 Z M 157.71 118.14 L 156.71 118.13 C 155.55 118.12 154.60 119.05 154.59 120.21 C 154.58 121.37 155.51 122.31 156.67 122.32 L 157.67 122.33 C 158.83 122.34 159.78 121.41 159.79 120.26 C 159.80 119.10 158.87 118.15 157.71 118.14 Z M 156.63 118.15 L 155.72 118.17 C 154.57 118.20 153.66 119.15 153.69 120.30 C 153.72 121.45 154.67 122.36 155.82 122.33 L 156.74 122.31 C 157.89 122.28 158.80 121.32 158.77 120.17 C 158.74 119.03 157.78 118.12 156.63 118.15 Z M 155.55 118.21 L 154.59 118.32 C 153.46 118.44 152.65 119.44 152.77 120.57 C 152.89 121.69 153.90 122.51 155.02 122.39 L 155.99 122.29 C 157.11 122.17 157.93 121.16 157.81 120.03 C 157.69 118.91 156.68 118.09 155.55 118.21 Z M 154.38 118.38 L 153.33 118.60 C 152.24 118.84 151.55 119.91 151.78 120.99 C 152.01 122.08 153.08 122.78 154.17 122.55 L 155.22 122.32 C 156.31 122.09 157.01 121.02 156.77 119.93 C 156.54 118.84 155.47 118.15 154.38 118.38 Z M 153.22 118.65 L 152.23 118.92 C 151.17 119.21 150.54 120.31 150.83 121.38 C 151.13 122.44 152.22 123.07 153.29 122.77 L 154.28 122.50 C 155.34 122.21 155.97 121.11 155.68 120.05 C 155.39 118.98 154.29 118.36 153.22 118.65 Z M 152.19 118.95 L 151.18 119.25 C 150.13 119.57 149.54 120.67 149.86 121.72 C 150.17 122.77 151.28 123.37 152.33 123.05 L 153.33 122.75 C 154.38 122.43 154.98 121.32 154.66 120.27 C 154.34 119.23 153.24 118.63 152.19 118.95 Z M 151.16 119.27 L 150.22 119.57 C 149.18 119.89 148.60 121.00 148.92 122.04 C 149.25 123.08 150.36 123.66 151.40 123.33 L 152.35 123.03 C 153.39 122.71 153.97 121.60 153.64 120.56 C 153.31 119.52 152.20 118.94 151.16 119.27 Z M 150.21 119.58 L 149.15 119.91 C 148.12 120.24 147.55 121.35 147.88 122.38 C 148.21 123.42 149.31 123.99 150.35 123.66 L 151.40 123.32 C 152.44 122.99 153.01 121.89 152.68 120.85 C 152.35 119.82 151.24 119.25 150.21 119.58 Z M 149.13 119.93 L 148.33 120.20 C 147.30 120.54 146.75 121.65 147.09 122.67 C 147.43 123.70 148.54 124.25 149.57 123.91 L 150.37 123.64 C 151.40 123.30 151.95 122.19 151.61 121.17 C 151.27 120.14 150.16 119.59 149.13 119.93 Z M 148.29 120.21 L 147.35 120.55 C 146.33 120.91 145.80 122.03 146.17 123.04 C 146.53 124.06 147.65 124.59 148.66 124.23 L 149.61 123.90 C 150.62 123.53 151.15 122.41 150.79 121.40 C 150.43 120.38 149.31 119.85 148.29 120.21 Z M 147.34 120.55 L 146.39 120.89 C 145.38 121.26 144.85 122.39 145.23 123.40 C 145.60 124.42 146.72 124.94 147.74 124.57 L 148.68 124.23 C 149.70 123.86 150.22 122.73 149.85 121.72 C 149.48 120.70 148.35 120.18 147.34 120.55 Z M 146.43 120.87 L 145.49 121.20 C 144.46 121.54 143.91 122.66 144.26 123.69 C 144.61 124.71 145.73 125.26 146.75 124.91 L 147.70 124.59 C 148.73 124.24 149.27 123.13 148.93 122.10 C 148.58 121.07 147.46 120.52 146.43 120.87 Z M 145.57 121.16 L 144.61 121.45 C 143.56 121.75 142.96 122.85 143.27 123.89 C 143.58 124.93 144.67 125.53 145.71 125.23 L 146.67 124.94 C 147.72 124.64 148.32 123.54 148.01 122.50 C 147.70 121.46 146.61 120.86 145.57 121.16 Z M 144.60 121.44 L 143.67 121.71 C 142.62 122.02 142.02 123.12 142.33 124.17 C 142.64 125.22 143.74 125.81 144.79 125.51 L 145.72 125.23 C 146.77 124.92 147.36 123.82 147.06 122.78 C 146.75 121.73 145.65 121.13 144.60 121.44 Z M 143.64 121.71 L 142.66 122.02 C 141.62 122.34 141.03 123.45 141.36 124.50 C 141.68 125.55 142.79 126.13 143.84 125.81 L 144.82 125.51 C 145.86 125.18 146.45 124.07 146.12 123.02 C 145.80 121.97 144.69 121.39 143.64 121.71 Z M 142.68 122.01 L 141.73 122.29 C 140.68 122.61 140.09 123.72 140.41 124.78 C 140.72 125.83 141.84 126.42 142.89 126.10 L 143.83 125.82 C 144.88 125.50 145.48 124.39 145.16 123.34 C 144.84 122.28 143.73 121.69 142.68 122.01 Z M 141.74 122.29 L 140.76 122.58 C 139.70 122.89 139.10 124.01 139.42 125.06 C 139.73 126.12 140.85 126.72 141.90 126.41 L 142.88 126.11 C 143.94 125.80 144.54 124.68 144.23 123.63 C 143.91 122.57 142.80 121.97 141.74 122.29 Z M 140.67 122.60 L 139.57 122.98 C 138.53 123.35 137.98 124.49 138.34 125.53 C 138.70 126.57 139.84 127.13 140.89 126.76 L 141.99 126.38 C 143.03 126.02 143.58 124.88 143.22 123.84 C 142.86 122.79 141.72 122.24 140.67 122.60 Z M 139.03 126.49 L 139.35 126.72 C 140.24 127.39 141.50 127.20 142.16 126.31 C 142.82 125.42 142.64 124.16 141.75 123.50 L 141.43 123.26 C 140.54 122.60 139.28 122.78 138.62 123.67 C 137.95 124.56 138.14 125.82 139.03 126.49 Z M 139.90 127.04 L 141.03 127.42 C 142.10 127.77 143.25 127.20 143.61 126.13 C 143.96 125.07 143.39 123.92 142.32 123.56 L 141.19 123.18 C 140.13 122.83 138.98 123.40 138.62 124.46 C 138.26 125.53 138.84 126.68 139.90 127.04 Z M 140.50 127.17 L 141.31 127.73 C 142.24 128.38 143.52 128.16 144.17 127.23 C 144.82 126.30 144.59 125.02 143.66 124.37 L 142.85 123.81 C 141.93 123.16 140.65 123.38 140.00 124.31 C 139.35 125.24 139.58 126.52 140.50 127.17 Z M 140.98 127.46 L 141.67 128.20 C 142.45 129.04 143.75 129.09 144.59 128.31 C 145.42 127.53 145.47 126.22 144.69 125.39 L 144.00 124.65 C 143.22 123.81 141.91 123.76 141.08 124.54 C 140.25 125.32 140.20 126.63 140.98 127.46 Z M 141.44 127.94 L 141.98 128.75 C 142.61 129.71 143.90 129.97 144.86 129.34 C 145.82 128.71 146.08 127.42 145.45 126.46 L 144.92 125.65 C 144.28 124.69 142.99 124.43 142.04 125.06 C 141.08 125.69 140.81 126.98 141.44 127.94 Z M 141.83 128.53 L 142.28 129.45 C 142.79 130.49 144.05 130.92 145.09 130.41 C 146.13 129.90 146.56 128.64 146.05 127.60 L 145.59 126.68 C 145.09 125.64 143.83 125.21 142.79 125.72 C 141.75 126.23 141.32 127.49 141.83 128.53 Z M 142.20 129.29 L 142.57 130.25 C 143.00 131.34 144.22 131.87 145.30 131.45 C 146.39 131.03 146.93 129.81 146.50 128.72 L 146.13 127.76 C 145.71 126.67 144.48 126.14 143.40 126.56 C 142.31 126.98 141.78 128.20 142.20 129.29 Z M 142.53 130.15 L 142.85 131.12 C 143.21 132.23 144.41 132.83 145.52 132.46 C 146.63 132.10 147.23 130.90 146.87 129.79 L 146.55 128.82 C 146.18 127.71 144.99 127.11 143.88 127.48 C 142.77 127.84 142.16 129.04 142.53 130.15 Z M 142.82 131.03 L 143.09 132.00 C 143.41 133.13 144.58 133.78 145.71 133.46 C 146.84 133.14 147.49 131.97 147.17 130.84 L 146.90 129.88 C 146.58 128.75 145.41 128.09 144.28 128.41 C 143.15 128.73 142.50 129.90 142.82 131.03 Z M 143.06 131.89 L 143.28 132.87 C 143.54 134.01 144.68 134.73 145.83 134.47 C 146.97 134.21 147.69 133.07 147.43 131.92 L 147.20 130.95 C 146.94 129.80 145.80 129.09 144.66 129.35 C 143.51 129.61 142.80 130.75 143.06 131.89 Z M 143.26 132.76 L 143.42 133.70 C 143.63 134.85 144.73 135.63 145.89 135.42 C 147.04 135.22 147.82 134.11 147.61 132.96 L 147.45 132.02 C 147.25 130.87 146.14 130.09 144.98 130.30 C 143.83 130.50 143.05 131.61 143.26 132.76 Z M 143.41 133.63 L 143.55 134.62 C 143.72 135.78 144.80 136.59 145.96 136.42 C 147.13 136.26 147.93 135.18 147.77 134.02 L 147.63 133.02 C 147.46 131.86 146.38 131.05 145.22 131.22 C 144.05 131.39 143.24 132.46 143.41 133.63 Z M 143.55 134.57 L 143.66 135.55 C 143.80 136.72 144.86 137.55 146.03 137.41 C 147.20 137.27 148.03 136.21 147.89 135.04 L 147.77 134.06 C 147.63 132.90 146.57 132.06 145.41 132.20 C 144.24 132.34 143.41 133.40 143.55 134.57 Z M 143.66 135.52 L 143.76 136.52 C 143.88 137.69 144.93 138.54 146.10 138.42 C 147.27 138.30 148.12 137.25 148.00 136.08 L 147.90 135.08 C 147.77 133.91 146.73 133.06 145.56 133.18 C 144.39 133.30 143.54 134.35 143.66 135.52 Z M 143.76 136.50 L 143.86 137.51 C 143.97 138.68 145.00 139.54 146.18 139.43 C 147.35 139.32 148.21 138.28 148.10 137.11 L 148.00 136.10 C 147.89 134.93 146.85 134.07 145.68 134.18 C 144.51 134.29 143.65 135.33 143.76 136.50 Z M 143.85 137.49 L 143.94 138.50 C 144.05 139.67 145.08 140.54 146.25 140.43 C 147.42 140.33 148.29 139.30 148.19 138.13 L 148.10 137.12 C 147.99 135.95 146.96 135.08 145.79 135.19 C 144.62 135.29 143.75 136.32 143.85 137.49 Z M 143.94 138.49 L 144.03 139.49 C 144.12 140.67 145.15 141.54 146.32 141.44 C 147.49 141.35 148.37 140.32 148.27 139.15 L 148.19 138.14 C 148.09 136.97 147.06 136.09 145.89 136.19 C 144.72 136.29 143.85 137.31 143.94 138.49 Z M 144.02 139.47 L 144.09 140.46 C 144.18 141.63 145.19 142.51 146.37 142.43 C 147.54 142.35 148.42 141.33 148.34 140.16 L 148.27 139.17 C 148.19 138.00 147.17 137.11 146.00 137.20 C 144.83 137.28 143.94 138.30 144.02 139.47 Z M 144.09 140.41 L 144.14 141.41 C 144.20 142.58 145.20 143.49 146.37 143.43 C 147.54 143.37 148.45 142.37 148.39 141.20 L 148.34 140.20 C 148.28 139.03 147.29 138.13 146.11 138.18 C 144.94 138.24 144.03 139.24 144.09 140.41 Z M 144.14 141.36 L 144.17 142.37 C 144.20 143.54 145.18 144.47 146.35 144.43 C 147.53 144.40 148.45 143.42 148.42 142.25 L 148.39 141.24 C 148.36 140.07 147.38 139.14 146.21 139.18 C 145.03 139.21 144.10 140.19 144.14 141.36 Z M 144.17 142.33 L 144.18 143.35 C 144.20 144.52 145.16 145.46 146.33 145.44 C 147.51 145.43 148.45 144.46 148.43 143.29 L 148.42 142.28 C 148.40 141.10 147.44 140.16 146.27 140.18 C 145.09 140.20 144.15 141.16 144.17 142.33 Z M 144.19 143.34 L 144.20 144.33 C 144.21 145.50 145.17 146.44 146.34 146.42 C 147.51 146.41 148.45 145.45 148.44 144.28 L 148.43 143.29 C 148.41 142.12 147.45 141.19 146.28 141.20 C 145.11 141.21 144.17 142.17 144.19 143.34 Z M 144.21 144.36 L 144.23 145.29 C 144.26 146.46 145.23 147.38 146.40 147.35 C 147.56 147.32 148.48 146.35 148.45 145.18 L 148.43 144.25 C 148.40 143.08 147.43 142.16 146.26 142.20 C 145.10 142.23 144.18 143.19 144.21 144.36 Z M 144.24 145.29 L 144.27 146.35 C 144.30 147.51 145.26 148.42 146.42 148.39 C 147.58 148.37 148.50 147.40 148.47 146.24 L 148.44 145.18 C 148.41 144.02 147.45 143.11 146.29 143.13 C 145.13 143.16 144.21 144.13 144.24 145.29 Z M 144.28 146.31 L 144.29 147.32 C 144.30 148.47 145.24 149.40 146.40 149.39 C 147.55 149.38 148.48 148.43 148.47 147.28 L 148.46 146.27 C 148.45 145.12 147.50 144.19 146.35 144.20 C 145.19 144.21 144.27 145.16 144.28 146.31 Z M 144.30 147.30 L 144.30 148.33 C 144.30 149.48 145.24 150.41 146.39 150.40 C 147.54 150.40 148.46 149.47 148.46 148.32 L 148.46 147.29 C 148.46 146.14 147.52 145.21 146.37 145.21 C 145.22 145.22 144.29 146.15 144.30 147.30 Z M 144.33 148.33 L 144.33 149.56 C 144.33 150.70 145.25 151.62 146.39 151.62 C 147.52 151.61 148.44 150.69 148.44 149.56 L 148.44 148.32 C 148.43 147.18 147.51 146.27 146.38 146.27 C 145.24 146.27 144.32 147.19 144.33 148.33 Z M 144.42 149.88 L 144.46 150.13 C 144.64 151.22 145.66 151.95 146.75 151.77 C 147.83 151.60 148.56 150.57 148.39 149.49 L 148.34 149.24 C 148.17 148.16 147.14 147.42 146.06 147.60 C 144.98 147.78 144.24 148.80 144.42 149.88 Z M 148.29 149.97 L 148.39 148.79 C 148.48 147.76 147.71 146.85 146.68 146.77 C 145.65 146.68 144.74 147.45 144.66 148.48 L 144.56 149.66 C 144.47 150.69 145.24 151.59 146.27 151.68 C 147.30 151.77 148.20 151.00 148.29 149.97 Z M 148.32 148.78 L 148.40 147.78 C 148.48 146.79 147.74 145.92 146.75 145.84 C 145.75 145.76 144.88 146.50 144.80 147.50 L 144.72 148.49 C 144.64 149.48 145.39 150.35 146.38 150.43 C 147.37 150.51 148.24 149.77 148.32 148.78 Z M 148.40 147.79 L 148.45 147.19 C 148.53 146.20 147.79 145.33 146.80 145.25 C 145.80 145.17 144.94 145.91 144.86 146.90 L 144.81 147.49 C 144.73 148.49 145.47 149.35 146.46 149.44 C 147.45 149.52 148.32 148.78 148.40 147.79 Z"
      fill="black"
      fill-rule="nonzero" /><path d="M 148.29 132.52 L 148.17 131.46 C 148.04 130.40 147.08 129.65 146.03 129.77 C 144.97 129.90 144.22 130.86 144.34 131.91 L 144.47 132.97 C 144.59 134.03 145.55 134.78 146.61 134.66 C 147.66 134.53 148.42 133.57 148.29 132.52 Z M 148.24 131.81 L 148.30 130.87 C 148.36 129.78 147.53 128.84 146.44 128.77 C 145.34 128.70 144.40 129.53 144.33 130.63 L 144.27 131.56 C 144.20 132.66 145.04 133.60 146.13 133.67 C 147.23 133.74 148.17 132.90 148.24 131.81 Z M 148.07 131.79 L 148.52 131.02 C 149.09 130.05 148.77 128.80 147.80 128.23 C 146.83 127.66 145.58 127.98 145.01 128.95 L 144.56 129.72 C 143.99 130.68 144.31 131.93 145.28 132.51 C 146.25 133.08 147.50 132.76 148.07 131.79 Z M 147.90 131.73 L 148.81 131.14 C 149.77 130.51 150.04 129.22 149.41 128.26 C 148.79 127.30 147.50 127.03 146.54 127.65 L 145.63 128.25 C 144.67 128.87 144.40 130.16 145.02 131.12 C 145.65 132.08 146.94 132.35 147.90 131.73 Z M 148.48 131.33 L 149.34 130.98 C 150.41 130.53 150.91 129.30 150.47 128.23 C 150.02 127.16 148.79 126.65 147.72 127.10 L 146.86 127.46 C 145.79 127.90 145.29 129.13 145.73 130.20 C 146.18 131.27 147.41 131.78 148.48 131.33 Z M 149.17 131.04 L 150.16 130.73 C 151.26 130.37 151.87 129.19 151.52 128.08 C 151.16 126.97 149.98 126.36 148.87 126.72 L 147.89 127.03 C 146.78 127.39 146.17 128.57 146.53 129.68 C 146.88 130.79 148.07 131.40 149.17 131.04 Z M 150.01 130.77 L 151.03 130.52 C 152.16 130.25 152.85 129.11 152.58 127.98 C 152.30 126.84 151.16 126.15 150.03 126.43 L 149.01 126.67 C 147.88 126.95 147.19 128.09 147.46 129.22 C 147.74 130.35 148.88 131.05 150.01 130.77 Z M 150.87 130.56 L 151.86 130.39 C 153.01 130.20 153.79 129.11 153.60 127.96 C 153.41 126.81 152.32 126.03 151.17 126.23 L 150.18 126.39 C 149.03 126.58 148.25 127.67 148.44 128.82 C 148.64 129.97 149.72 130.75 150.87 130.56 Z M 151.73 130.41 L 152.71 130.31 C 153.87 130.20 154.72 129.16 154.60 128.00 C 154.49 126.84 153.45 125.99 152.29 126.11 L 151.30 126.21 C 150.14 126.32 149.29 127.36 149.41 128.52 C 149.53 129.68 150.57 130.53 151.73 130.41 Z M 152.61 130.32 L 153.63 130.27 C 154.80 130.21 155.69 129.21 155.63 128.05 C 155.57 126.88 154.58 125.98 153.41 126.05 L 152.39 126.10 C 151.22 126.16 150.33 127.15 150.39 128.32 C 150.45 129.49 151.44 130.38 152.61 130.32 Z M 153.55 130.27 L 154.61 130.25 C 155.77 130.23 156.70 129.27 156.68 128.11 C 156.67 126.95 155.71 126.02 154.54 126.03 L 153.49 126.05 C 152.32 126.07 151.39 127.02 151.41 128.19 C 151.43 129.35 152.39 130.28 153.55 130.27 Z M 154.51 130.24 L 155.49 130.27 C 156.65 130.31 157.62 129.40 157.65 128.24 C 157.69 127.08 156.78 126.11 155.62 126.08 L 154.64 126.04 C 153.48 126.01 152.52 126.92 152.48 128.07 C 152.44 129.23 153.35 130.20 154.51 130.24 Z M 155.30 130.25 L 156.32 130.37 C 157.47 130.51 158.51 129.70 158.65 128.55 C 158.79 127.41 157.98 126.36 156.83 126.22 L 155.81 126.10 C 154.67 125.96 153.62 126.77 153.48 127.92 C 153.34 129.06 154.16 130.11 155.30 130.25 Z M 155.99 130.30 L 156.89 130.57 C 157.99 130.89 159.15 130.26 159.48 129.16 C 159.81 128.05 159.18 126.89 158.07 126.57 L 157.17 126.30 C 156.07 125.97 154.91 126.60 154.58 127.71 C 154.25 128.81 154.88 129.97 155.99 130.30 Z M 156.60 130.45 L 157.47 130.86 C 158.52 131.35 159.76 130.89 160.24 129.85 C 160.73 128.81 160.28 127.57 159.23 127.08 L 158.36 126.68 C 157.32 126.19 156.08 126.64 155.59 127.69 C 155.11 128.73 155.56 129.97 156.60 130.45 Z M 157.29 130.76 L 158.16 131.27 C 159.15 131.86 160.42 131.53 161.01 130.55 C 161.59 129.56 161.27 128.29 160.28 127.70 L 159.41 127.19 C 158.43 126.60 157.15 126.93 156.57 127.91 C 155.98 128.90 156.31 130.17 157.29 130.76 Z M 158.01 131.17 L 158.82 131.75 C 159.75 132.42 161.04 132.21 161.71 131.28 C 162.38 130.36 162.17 129.06 161.24 128.39 L 160.43 127.81 C 159.50 127.14 158.21 127.35 157.54 128.27 C 156.87 129.20 157.08 130.50 158.01 131.17 Z M 158.70 131.65 L 159.41 132.26 C 160.29 132.99 161.59 132.88 162.33 132.01 C 163.06 131.13 162.95 129.83 162.08 129.09 L 161.36 128.49 C 160.49 127.75 159.18 127.86 158.45 128.74 C 157.71 129.61 157.82 130.92 158.70 131.65 Z M 159.28 132.13 L 159.97 132.83 C 160.77 133.64 162.08 133.64 162.89 132.84 C 163.70 132.03 163.71 130.72 162.90 129.91 L 162.21 129.22 C 161.41 128.41 160.10 128.40 159.29 129.20 C 158.48 130.01 158.47 131.32 159.28 132.13 Z M 159.86 132.70 L 160.51 133.48 C 161.25 134.35 162.55 134.47 163.43 133.73 C 164.30 133.00 164.41 131.69 163.67 130.82 L 163.02 130.04 C 162.28 129.16 160.98 129.05 160.10 129.79 C 159.23 130.52 159.12 131.83 159.86 132.70 Z M 160.44 133.39 L 161.04 134.19 C 161.73 135.10 163.02 135.28 163.93 134.60 C 164.85 133.91 165.03 132.62 164.34 131.70 L 163.75 130.91 C 163.06 130.00 161.76 129.81 160.85 130.50 C 159.94 131.18 159.76 132.48 160.44 133.39 Z M 160.97 134.09 L 161.56 134.96 C 162.19 135.91 163.47 136.17 164.42 135.54 C 165.37 134.91 165.62 133.63 164.99 132.68 L 164.41 131.80 C 163.78 130.85 162.50 130.60 161.55 131.23 C 160.60 131.86 160.34 133.14 160.97 134.09 Z M 161.48 134.83 L 161.96 135.70 C 162.52 136.69 163.78 137.04 164.77 136.49 C 165.76 135.93 166.12 134.67 165.56 133.68 L 165.07 132.81 C 164.52 131.82 163.26 131.47 162.27 132.02 C 161.27 132.58 160.92 133.84 161.48 134.83 Z M 161.88 135.52 L 162.27 136.41 C 162.74 137.44 163.95 137.91 164.99 137.45 C 166.02 136.99 166.49 135.77 166.03 134.74 L 165.64 133.85 C 165.18 132.82 163.96 132.35 162.93 132.81 C 161.89 133.27 161.42 134.49 161.88 135.52 Z M 162.21 136.23 L 162.54 137.19 C 162.90 138.26 164.06 138.84 165.13 138.47 C 166.20 138.11 166.78 136.95 166.42 135.88 L 166.09 134.92 C 165.73 133.84 164.57 133.27 163.50 133.63 C 162.43 133.99 161.85 135.15 162.21 136.23 Z M 162.50 137.04 L 162.75 138.04 C 163.03 139.14 164.14 139.80 165.24 139.52 C 166.33 139.24 166.99 138.13 166.71 137.04 L 166.46 136.03 C 166.18 134.94 165.07 134.28 163.97 134.55 C 162.88 134.83 162.22 135.94 162.50 137.04 Z M 162.74 137.94 L 162.94 138.96 C 163.16 140.06 164.23 140.77 165.33 140.56 C 166.44 140.34 167.15 139.26 166.93 138.16 L 166.73 137.14 C 166.51 136.04 165.44 135.32 164.34 135.54 C 163.23 135.76 162.52 136.83 162.74 137.94 Z M 162.93 138.88 L 163.09 139.89 C 163.27 141.00 164.31 141.75 165.42 141.58 C 166.53 141.40 167.28 140.36 167.10 139.25 L 166.94 138.24 C 166.76 137.13 165.72 136.38 164.61 136.55 C 163.51 136.73 162.75 137.77 162.93 138.88 Z M 163.09 139.82 L 163.21 140.75 C 163.34 141.86 164.36 142.65 165.46 142.51 C 166.57 142.37 167.36 141.36 167.22 140.25 L 167.11 139.32 C 166.97 138.21 165.96 137.42 164.85 137.56 C 163.74 137.70 162.95 138.71 163.09 139.82 Z M 163.21 140.64 L 163.29 141.77 C 163.37 142.87 164.33 143.71 165.43 143.63 C 166.54 143.55 167.38 142.59 167.30 141.48 L 167.22 140.36 C 167.14 139.25 166.18 138.42 165.07 138.50 C 163.96 138.58 163.13 139.54 163.21 140.64 Z M 163.31 141.55 L 163.28 142.48 C 163.24 143.57 164.09 144.49 165.19 144.53 C 166.29 144.57 167.21 143.71 167.25 142.62 L 167.28 141.69 C 167.32 140.60 166.46 139.68 165.36 139.64 C 164.27 139.60 163.35 140.46 163.31 141.55 Z M 163.33 142.21 L 163.16 143.16 C 162.97 144.23 163.68 145.25 164.75 145.43 C 165.82 145.62 166.84 144.91 167.02 143.84 L 167.19 142.89 C 167.38 141.82 166.67 140.80 165.60 140.62 C 164.53 140.43 163.52 141.14 163.33 142.21 Z M 163.29 142.80 L 162.93 143.74 C 162.54 144.73 163.03 145.86 164.03 146.24 C 165.03 146.63 166.15 146.13 166.54 145.13 L 166.90 144.20 C 167.28 143.20 166.79 142.08 165.79 141.70 C 164.79 141.31 163.67 141.81 163.29 142.80 Z M 163.29 143.19 L 162.66 143.91 C 161.97 144.71 162.06 145.91 162.85 146.60 C 163.65 147.29 164.85 147.20 165.54 146.41 L 166.17 145.68 C 166.86 144.89 166.77 143.68 165.98 143.00 C 165.18 142.31 163.98 142.39 163.29 143.19 Z M 163.17 143.55 L 162.31 144.04 C 161.42 144.56 161.11 145.70 161.63 146.59 C 162.14 147.48 163.28 147.79 164.17 147.27 L 165.04 146.77 C 165.93 146.26 166.23 145.12 165.72 144.23 C 165.20 143.34 164.06 143.03 163.17 143.55 Z M 162.47 143.99 L 162.18 144.13 C 161.26 144.55 160.86 145.64 161.28 146.56 C 161.70 147.48 162.79 147.88 163.71 147.46 L 164.01 147.32 C 164.93 146.90 165.33 145.81 164.91 144.89 C 164.48 143.97 163.39 143.57 162.47 143.99 Z"
      fill="black"
      fill-rule="nonzero" /><path d="M 146.93 139.91 L 147.89 140.16 C 149.01 140.44 150.15 139.76 150.43 138.64 C 150.72 137.53 150.04 136.39 148.92 136.10 L 147.96 135.86 C 146.84 135.58 145.70 136.25 145.42 137.37 C 145.13 138.49 145.81 139.63 146.93 139.91 Z M 148.01 140.24 L 149.00 140.42 C 150.16 140.64 151.28 139.87 151.50 138.71 C 151.72 137.54 150.95 136.42 149.79 136.21 L 148.80 136.02 C 147.63 135.81 146.51 136.57 146.30 137.74 C 146.08 138.90 146.85 140.02 148.01 140.24 Z M 149.22 140.46 L 150.18 140.54 C 151.37 140.64 152.41 139.76 152.51 138.57 C 152.60 137.38 151.72 136.34 150.53 136.25 L 149.57 136.17 C 148.38 136.07 147.34 136.95 147.25 138.14 C 147.15 139.32 148.03 140.37 149.22 140.46 Z M 150.32 140.51 L 151.34 140.53 C 152.51 140.55 153.47 139.62 153.49 138.45 C 153.51 137.28 152.58 136.31 151.41 136.29 L 150.39 136.27 C 149.22 136.25 148.26 137.19 148.24 138.36 C 148.22 139.53 149.15 140.49 150.32 140.51 Z M 151.37 140.49 L 152.36 140.49 C 153.51 140.49 154.45 139.56 154.45 138.41 C 154.45 137.26 153.52 136.33 152.37 136.33 L 151.37 136.33 C 150.22 136.33 149.29 137.26 149.29 138.41 C 149.29 139.56 150.22 140.49 151.37 140.49 Z M 152.37 140.45 L 153.36 140.45 C 154.49 140.45 155.41 139.54 155.41 138.41 C 155.41 137.28 154.49 136.37 153.36 136.37 L 152.37 136.37 C 151.24 136.37 150.32 137.28 150.32 138.41 C 150.32 139.54 151.24 140.45 152.37 140.45 Z M 153.36 140.41 L 154.39 140.41 C 155.49 140.41 156.39 139.52 156.39 138.41 C 156.39 137.31 155.49 136.41 154.39 136.41 L 153.36 136.41 C 152.26 136.41 151.36 137.31 151.36 138.41 C 151.36 139.52 152.26 140.41 153.36 140.41 Z M 154.39 140.37 L 155.39 140.37 C 156.48 140.37 157.35 139.49 157.35 138.41 C 157.35 137.33 156.48 136.45 155.39 136.45 L 154.39 136.45 C 153.31 136.45 152.43 137.33 152.43 138.41 C 152.43 139.49 153.31 140.37 154.39 140.37 Z M 155.39 140.33 L 156.40 140.33 C 157.46 140.33 158.31 139.47 158.31 138.41 C 158.31 137.35 157.46 136.50 156.40 136.50 L 155.39 136.50 C 154.34 136.50 153.48 137.35 153.48 138.41 C 153.48 139.47 154.34 140.33 155.39 140.33 Z M 156.40 140.29 L 157.43 140.29 C 158.47 140.29 159.31 139.45 159.31 138.41 C 159.31 137.37 158.47 136.53 157.43 136.53 L 156.40 136.53 C 155.36 136.53 154.52 137.37 154.52 138.41 C 154.52 139.45 155.36 140.29 156.40 140.29 Z M 157.43 140.26 L 158.46 140.26 C 159.48 140.26 160.30 139.43 160.30 138.41 C 160.30 137.39 159.48 136.56 158.46 136.56 L 157.43 136.56 C 156.41 136.56 155.58 137.39 155.58 138.41 C 155.58 139.43 156.41 140.26 157.43 140.26 Z M 158.46 140.23 L 159.40 140.23 C 160.41 140.23 161.22 139.42 161.22 138.41 C 161.22 137.41 160.41 136.59 159.40 136.59 L 158.46 136.59 C 157.45 136.59 156.63 137.41 156.63 138.41 C 156.63 139.42 157.45 140.23 158.46 140.23 Z M 159.40 140.22 L 160.44 140.22 C 161.44 140.22 162.24 139.41 162.24 138.41 C 162.24 137.41 161.44 136.61 160.44 136.61 L 159.40 136.61 C 158.40 136.61 157.60 137.41 157.60 138.41 C 157.60 139.41 158.40 140.22 159.40 140.22 Z M 160.44 140.21 L 161.11 140.21 C 162.10 140.21 162.91 139.41 162.91 138.41 C 162.91 137.42 162.10 136.61 161.11 136.61 L 160.44 136.61 C 159.44 136.61 158.64 137.42 158.64 138.41 C 158.64 139.41 159.44 140.21 160.44 140.21 Z"
      fill="black"
      fill-rule="nonzero" /><path d="M 144.43 151.42 L 145.40 151.56 C 146.51 151.72 147.53 150.96 147.69 149.86 C 147.86 148.76 147.09 147.73 145.99 147.57 L 145.02 147.43 C 143.92 147.26 142.89 148.03 142.73 149.13 C 142.57 150.23 143.33 151.26 144.43 151.42 Z M 145.46 151.67 L 146.47 151.78 C 147.63 151.91 148.67 151.07 148.80 149.91 C 148.93 148.75 148.10 147.71 146.94 147.58 L 145.93 147.47 C 144.77 147.34 143.73 148.17 143.60 149.33 C 143.47 150.49 144.30 151.54 145.46 151.67 Z M 146.59 151.83 L 147.62 151.89 C 148.81 151.95 149.82 151.04 149.89 149.85 C 149.95 148.66 149.04 147.64 147.85 147.58 L 146.82 147.52 C 145.63 147.46 144.61 148.37 144.55 149.56 C 144.48 150.75 145.40 151.77 146.59 151.83 Z M 147.72 151.87 L 148.72 151.88 C 149.90 151.89 150.86 150.94 150.87 149.76 C 150.88 148.58 149.94 147.62 148.76 147.61 L 147.75 147.60 C 146.57 147.59 145.61 148.54 145.60 149.72 C 145.59 150.89 146.54 151.86 147.72 151.87 Z M 148.78 151.84 L 149.80 151.83 C 150.96 151.80 151.88 150.85 151.86 149.68 C 151.84 148.52 150.88 147.60 149.72 147.62 L 148.70 147.64 C 147.54 147.66 146.61 148.62 146.64 149.78 C 146.66 150.94 147.62 151.87 148.78 151.84 Z M 149.85 151.79 L 150.81 151.74 C 151.95 151.69 152.83 150.73 152.78 149.59 C 152.73 148.45 151.76 147.56 150.62 147.61 L 149.66 147.66 C 148.52 147.71 147.64 148.68 147.69 149.82 C 147.75 150.96 148.71 151.84 149.85 151.79 Z M 150.87 151.71 L 151.84 151.64 C 152.96 151.55 153.80 150.58 153.72 149.45 C 153.64 148.33 152.66 147.49 151.54 147.58 L 150.56 147.65 C 149.44 147.73 148.60 148.71 148.68 149.83 C 148.77 150.95 149.74 151.79 150.87 151.71 Z M 151.89 151.61 L 152.89 151.51 C 153.99 151.40 154.80 150.42 154.69 149.31 C 154.59 148.21 153.60 147.40 152.50 147.51 L 151.49 147.61 C 150.39 147.71 149.58 148.70 149.69 149.80 C 149.80 150.91 150.78 151.72 151.89 151.61 Z M 152.91 151.48 L 153.90 151.38 C 154.99 151.26 155.78 150.28 155.66 149.19 C 155.55 148.10 154.57 147.31 153.48 147.43 L 152.48 147.53 C 151.39 147.65 150.60 148.63 150.72 149.72 C 150.84 150.81 151.82 151.60 152.91 151.48 Z M 153.87 151.35 L 154.87 151.26 C 155.94 151.15 156.74 150.20 156.63 149.12 C 156.53 148.05 155.58 147.26 154.50 147.36 L 153.50 147.45 C 152.43 147.55 151.64 148.51 151.74 149.59 C 151.84 150.66 152.80 151.45 153.87 151.35 Z M 154.84 151.23 L 155.83 151.15 C 156.90 151.07 157.69 150.14 157.61 149.08 C 157.52 148.01 156.59 147.22 155.53 147.30 L 154.53 147.38 C 153.47 147.47 152.67 148.40 152.76 149.46 C 152.84 150.52 153.77 151.32 154.84 151.23 Z M 155.83 151.12 L 156.77 151.05 C 157.82 150.97 158.60 150.05 158.52 149.01 C 158.44 147.96 157.52 147.18 156.48 147.26 L 155.53 147.33 C 154.49 147.42 153.71 148.33 153.79 149.38 C 153.87 150.42 154.78 151.20 155.83 151.12 Z M 156.78 151.01 L 157.84 150.92 C 158.86 150.83 159.62 149.93 159.53 148.90 C 159.45 147.88 158.54 147.12 157.52 147.21 L 156.46 147.30 C 155.44 147.39 154.68 148.29 154.77 149.32 C 154.85 150.34 155.76 151.10 156.78 151.01 Z M 157.85 150.90 L 158.84 150.80 C 159.86 150.71 160.60 149.81 160.51 148.80 C 160.41 147.79 159.51 147.04 158.50 147.14 L 157.51 147.23 C 156.49 147.33 155.75 148.22 155.84 149.24 C 155.94 150.25 156.84 150.99 157.85 150.90 Z M 158.83 150.79 L 159.84 150.71 C 160.84 150.62 161.59 149.74 161.50 148.73 C 161.42 147.73 160.53 146.98 159.53 147.07 L 158.52 147.15 C 157.51 147.24 156.77 148.12 156.85 149.12 C 156.94 150.13 157.82 150.88 158.83 150.79 Z M 159.77 150.70 L 160.81 150.65 C 161.82 150.60 162.59 149.74 162.54 148.74 C 162.48 147.74 161.63 146.97 160.63 147.02 L 159.59 147.07 C 158.59 147.12 157.82 147.98 157.87 148.98 C 157.92 149.98 158.77 150.75 159.77 150.70 Z M 160.74 150.64 L 161.70 150.63 C 162.70 150.62 163.50 149.80 163.49 148.80 C 163.47 147.80 162.66 147.01 161.66 147.02 L 160.70 147.03 C 159.71 147.04 158.91 147.86 158.92 148.85 C 158.93 149.85 159.75 150.65 160.74 150.64 Z M 161.68 150.62 L 161.83 150.62 C 162.82 150.62 163.63 149.82 163.63 148.82 C 163.63 147.83 162.82 147.02 161.83 147.02 L 161.68 147.02 C 160.68 147.02 159.88 147.83 159.88 148.82 C 159.88 149.82 160.69 150.62 161.68 150.62 Z"
      fill="black"
      fill-rule="nonzero" /><path d="M 153.02 148.50 L 153.02 149.56 C 153.03 150.66 153.93 151.56 155.04 151.55 C 156.14 151.55 157.04 150.65 157.03 149.54 L 157.03 148.49 C 157.02 147.38 156.12 146.49 155.02 146.49 C 153.91 146.50 153.02 147.40 153.02 148.50 Z M 153.00 149.61 L 153.03 150.59 C 153.06 151.71 154.00 152.59 155.11 152.56 C 156.23 152.53 157.11 151.60 157.08 150.48 L 157.05 149.49 C 157.02 148.37 156.09 147.49 154.97 147.52 C 153.85 147.56 152.97 148.49 153.00 149.61 Z M 153.03 150.72 L 153.13 151.74 C 153.23 152.86 154.22 153.68 155.34 153.57 C 156.46 153.47 157.28 152.48 157.17 151.36 L 157.08 150.35 C 156.97 149.23 155.98 148.41 154.87 148.51 C 153.75 148.62 152.93 149.61 153.03 150.72 Z M 153.17 151.86 L 153.32 152.81 C 153.49 153.90 154.52 154.65 155.61 154.48 C 156.70 154.31 157.45 153.28 157.28 152.19 L 157.13 151.24 C 156.96 150.15 155.93 149.40 154.84 149.57 C 153.75 149.75 153.00 150.77 153.17 151.86 Z M 153.38 152.75 L 153.51 153.73 C 153.64 154.79 154.61 155.53 155.67 155.40 C 156.73 155.26 157.48 154.30 157.34 153.24 L 157.22 152.26 C 157.08 151.20 156.11 150.45 155.06 150.58 C 154.00 150.72 153.25 151.69 153.38 152.75 Z M 153.59 153.64 L 153.65 154.39 C 153.74 155.41 154.64 156.16 155.65 156.07 C 156.67 155.98 157.42 155.08 157.33 154.06 L 157.26 153.32 C 157.17 152.30 156.28 151.55 155.26 151.64 C 154.25 151.73 153.50 152.63 153.59 153.64 Z"
      fill="black"
      fill-rule="nonzero" /><path d="M 139.83 160.17 L 140.77 160.09 C 141.94 159.99 142.80 158.96 142.70 157.79 C 142.60 156.63 141.58 155.76 140.41 155.86 L 139.47 155.94 C 138.30 156.04 137.43 157.07 137.53 158.24 C 137.63 159.40 138.66 160.27 139.83 160.17 Z M 140.84 160.18 L 141.88 160.07 C 143.10 159.93 143.97 158.83 143.84 157.61 C 143.70 156.39 142.60 155.51 141.38 155.65 L 140.34 155.77 C 139.12 155.90 138.25 157.00 138.38 158.22 C 138.52 159.44 139.62 160.32 140.84 160.18 Z M 141.94 160.11 L 142.94 159.97 C 144.18 159.80 145.05 158.65 144.88 157.41 C 144.71 156.17 143.56 155.30 142.32 155.48 L 141.32 155.61 C 140.08 155.78 139.21 156.93 139.38 158.17 C 139.56 159.41 140.70 160.28 141.94 160.11 Z M 142.96 159.96 L 143.95 159.82 C 145.19 159.64 146.05 158.49 145.87 157.25 C 145.69 156.01 144.54 155.16 143.30 155.34 L 142.31 155.48 C 141.07 155.66 140.21 156.81 140.39 158.05 C 140.57 159.28 141.72 160.14 142.96 159.96 Z M 143.92 159.82 L 144.96 159.68 C 146.19 159.51 147.06 158.38 146.90 157.14 C 146.73 155.90 145.59 155.03 144.36 155.20 L 143.32 155.34 C 142.09 155.50 141.22 156.64 141.38 157.88 C 141.55 159.11 142.69 159.98 143.92 159.82 Z M 144.90 159.68 L 145.85 159.57 C 147.08 159.44 147.97 158.33 147.84 157.09 C 147.70 155.85 146.59 154.96 145.35 155.10 L 144.41 155.20 C 143.17 155.34 142.28 156.45 142.42 157.69 C 142.55 158.92 143.67 159.81 144.90 159.68 Z M 145.79 159.57 L 146.77 159.49 C 148.01 159.38 148.92 158.29 148.81 157.06 C 148.71 155.82 147.62 154.91 146.38 155.01 L 145.41 155.10 C 144.17 155.21 143.26 156.29 143.36 157.53 C 143.47 158.76 144.56 159.68 145.79 159.57 Z M 146.74 159.48 L 147.75 159.41 C 148.98 159.32 149.91 158.25 149.82 157.02 C 149.73 155.78 148.66 154.86 147.42 154.95 L 146.42 155.02 C 145.18 155.11 144.26 156.18 144.35 157.41 C 144.44 158.64 145.51 159.57 146.74 159.48 Z M 147.73 159.40 L 148.72 159.34 C 149.95 159.25 150.88 158.19 150.80 156.97 C 150.72 155.74 149.66 154.81 148.43 154.89 L 147.44 154.95 C 146.21 155.04 145.28 156.10 145.36 157.32 C 145.44 158.55 146.50 159.48 147.73 159.40 Z M 148.72 159.32 L 149.73 159.26 C 150.95 159.18 151.88 158.13 151.80 156.91 C 151.72 155.68 150.67 154.76 149.45 154.84 L 148.43 154.90 C 147.21 154.98 146.28 156.03 146.36 157.25 C 146.44 158.48 147.49 159.40 148.72 159.32 Z M 149.72 159.24 L 150.72 159.18 C 151.93 159.10 152.85 158.06 152.77 156.85 C 152.70 155.64 151.66 154.72 150.45 154.80 L 149.45 154.86 C 148.24 154.93 147.32 155.97 147.40 157.18 C 147.47 158.39 148.51 159.31 149.72 159.24 Z M 150.69 159.14 L 151.70 159.09 C 152.89 159.03 153.81 158.01 153.75 156.82 C 153.69 155.63 152.67 154.71 151.48 154.78 L 150.47 154.83 C 149.28 154.89 148.36 155.91 148.43 157.10 C 148.49 158.29 149.50 159.21 150.69 159.14 Z M 151.67 159.06 L 152.67 159.02 C 153.85 158.98 154.76 157.99 154.72 156.81 C 154.67 155.64 153.69 154.72 152.51 154.77 L 151.51 154.81 C 150.33 154.85 149.42 155.84 149.46 157.02 C 149.51 158.19 150.50 159.11 151.67 159.06 Z M 152.66 158.99 L 153.65 158.96 C 154.81 158.92 155.72 157.96 155.68 156.80 C 155.64 155.64 154.68 154.74 153.52 154.77 L 152.53 154.80 C 151.37 154.84 150.46 155.80 150.50 156.96 C 150.53 158.12 151.50 159.02 152.66 158.99 Z M 153.65 158.93 L 154.64 158.90 C 155.78 158.86 156.68 157.91 156.64 156.77 C 156.61 155.63 155.66 154.74 154.52 154.77 L 153.52 154.80 C 152.38 154.84 151.49 155.79 151.52 156.93 C 151.56 158.07 152.51 158.96 153.65 158.93 Z M 154.64 158.87 L 155.65 158.84 C 156.78 158.81 157.66 157.87 157.62 156.74 C 157.59 155.61 156.65 154.73 155.52 154.76 L 154.51 154.80 C 153.39 154.83 152.50 155.77 152.54 156.90 C 152.57 158.03 153.52 158.91 154.64 158.87 Z M 155.65 158.81 L 156.67 158.78 C 157.78 158.75 158.66 157.82 158.62 156.71 C 158.59 155.60 157.66 154.72 156.55 154.76 L 155.52 154.79 C 154.41 154.83 153.54 155.76 153.57 156.87 C 153.61 157.98 154.54 158.85 155.65 158.81 Z M 156.66 158.75 L 157.65 158.73 C 158.74 158.70 159.60 157.79 159.57 156.69 C 159.55 155.60 158.64 154.73 157.54 154.76 L 156.56 154.79 C 155.46 154.82 154.60 155.73 154.63 156.82 C 154.66 157.92 155.57 158.78 156.66 158.75 Z M 157.62 158.70 L 158.57 158.69 C 159.65 158.67 160.52 157.79 160.50 156.71 C 160.49 155.63 159.60 154.76 158.52 154.78 L 157.57 154.79 C 156.49 154.81 155.63 155.69 155.64 156.77 C 155.65 157.85 156.54 158.71 157.62 158.70 Z M 158.55 158.66 L 159.58 158.66 C 160.64 158.66 161.50 157.79 161.50 156.73 C 161.50 155.66 160.63 154.80 159.57 154.80 L 158.54 154.80 C 157.48 154.81 156.62 155.67 156.62 156.74 C 156.62 157.80 157.49 158.66 158.55 158.66 Z M 159.57 158.64 L 160.56 158.64 C 161.61 158.64 162.46 157.78 162.46 156.73 C 162.46 155.68 161.61 154.82 160.56 154.82 L 159.57 154.82 C 158.52 154.82 157.67 155.68 157.67 156.73 C 157.67 157.78 158.52 158.64 159.57 158.64 Z M 160.56 158.62 L 161.59 158.62 C 162.63 158.62 163.48 157.77 163.48 156.73 C 163.48 155.69 162.63 154.84 161.59 154.84 L 160.56 154.84 C 159.51 154.84 158.66 155.69 158.66 156.73 C 158.66 157.77 159.51 158.62 160.56 158.62 Z M 161.59 158.60 L 162.64 158.60 C 163.67 158.60 164.51 157.77 164.51 156.73 C 164.51 155.70 163.68 154.86 162.64 154.86 L 161.59 154.86 C 160.55 154.86 159.71 155.69 159.71 156.73 C 159.71 157.76 160.55 158.60 161.59 158.60 Z M 162.60 158.58 L 163.62 158.60 C 164.64 158.62 165.49 157.81 165.51 156.79 C 165.53 155.76 164.72 154.92 163.69 154.90 L 162.68 154.88 C 161.65 154.86 160.81 155.67 160.79 156.69 C 160.77 157.72 161.58 158.56 162.60 158.58 Z M 163.47 158.57 L 164.42 158.67 C 165.42 158.77 166.32 158.03 166.42 157.02 C 166.52 156.02 165.79 155.12 164.78 155.02 L 163.84 154.93 C 162.83 154.83 161.93 155.56 161.83 156.57 C 161.73 157.58 162.47 158.47 163.47 158.57 Z M 164.21 158.62 L 165.18 158.83 C 166.16 159.04 167.13 158.42 167.34 157.44 C 167.55 156.46 166.93 155.49 165.95 155.28 L 164.98 155.07 C 164.00 154.86 163.04 155.48 162.82 156.46 C 162.61 157.44 163.23 158.41 164.21 158.62 Z M 165.11 158.80 L 165.41 158.88 C 166.37 159.13 167.36 158.55 167.61 157.58 C 167.86 156.62 167.28 155.64 166.32 155.39 L 166.02 155.31 C 165.06 155.06 164.07 155.64 163.82 156.60 C 163.57 157.56 164.15 158.55 165.11 158.80 Z"
      fill="black"
      fill-rule="nonzero" /><path d="M 149.85 168.04 L 150.77 167.74 C 151.85 167.39 152.44 166.24 152.09 165.17 C 151.75 164.09 150.59 163.50 149.52 163.84 L 148.60 164.14 C 147.52 164.49 146.93 165.64 147.28 166.72 C 147.62 167.79 148.78 168.38 149.85 168.04 Z M 150.81 167.81 L 151.77 167.49 C 152.89 167.13 153.49 165.93 153.13 164.81 C 152.76 163.70 151.56 163.09 150.44 163.46 L 149.48 163.77 C 148.37 164.14 147.76 165.34 148.13 166.46 C 148.49 167.57 149.70 168.18 150.81 167.81 Z M 151.78 167.51 L 152.69 167.21 C 153.82 166.83 154.42 165.62 154.05 164.50 C 153.68 163.37 152.46 162.77 151.34 163.14 L 150.43 163.44 C 149.31 163.82 148.70 165.03 149.08 166.15 C 149.45 167.27 150.66 167.88 151.78 167.51 Z M 152.66 167.19 L 153.67 166.87 C 154.78 166.51 155.39 165.32 155.04 164.21 C 154.68 163.10 153.49 162.49 152.38 162.84 L 151.38 163.16 C 150.26 163.52 149.65 164.70 150.00 165.81 C 150.36 166.93 151.55 167.54 152.66 167.19 Z M 153.61 166.85 L 154.54 166.58 C 155.65 166.26 156.28 165.10 155.96 163.99 C 155.63 162.89 154.47 162.25 153.37 162.58 L 152.44 162.85 C 151.33 163.18 150.70 164.33 151.02 165.44 C 151.35 166.55 152.51 167.18 153.61 166.85 Z M 154.48 166.58 L 155.46 166.32 C 156.56 166.03 157.22 164.90 156.93 163.80 C 156.64 162.69 155.51 162.04 154.41 162.33 L 153.43 162.58 C 152.33 162.87 151.67 164.00 151.96 165.10 C 152.25 166.21 153.38 166.87 154.48 166.58 Z M 155.38 166.32 L 156.39 166.09 C 157.49 165.84 158.18 164.75 157.93 163.65 C 157.68 162.54 156.58 161.85 155.48 162.10 L 154.48 162.33 C 153.38 162.58 152.69 163.67 152.94 164.77 C 153.19 165.87 154.28 166.57 155.38 166.32 Z M 156.30 166.09 L 157.29 165.91 C 158.40 165.71 159.13 164.65 158.92 163.55 C 158.72 162.45 157.66 161.72 156.56 161.92 L 155.57 162.10 C 154.47 162.30 153.74 163.36 153.94 164.46 C 154.14 165.56 155.20 166.29 156.30 166.09 Z M 157.20 165.91 L 158.19 165.78 C 159.29 165.63 160.06 164.61 159.91 163.51 C 159.76 162.40 158.75 161.63 157.64 161.78 L 156.66 161.92 C 155.55 162.07 154.78 163.08 154.93 164.19 C 155.08 165.29 156.10 166.06 157.20 165.91 Z M 158.08 165.78 L 159.11 165.70 C 160.22 165.61 161.04 164.64 160.95 163.54 C 160.86 162.43 159.89 161.61 158.79 161.70 L 157.76 161.78 C 156.65 161.87 155.83 162.84 155.92 163.94 C 156.00 165.04 156.97 165.87 158.08 165.78 Z M 159.00 165.69 L 160.02 165.67 C 161.13 165.64 162.00 164.72 161.97 163.62 C 161.94 162.52 161.03 161.65 159.92 161.67 L 158.90 161.70 C 157.80 161.73 156.93 162.64 156.95 163.75 C 156.98 164.85 157.90 165.72 159.00 165.69 Z M 159.94 165.66 L 160.89 165.68 C 161.99 165.70 162.90 164.82 162.92 163.73 C 162.94 162.63 162.07 161.72 160.97 161.70 L 160.01 161.68 C 158.91 161.66 158.01 162.53 157.99 163.63 C 157.96 164.73 158.84 165.64 159.94 165.66 Z M 160.71 165.66 L 161.73 165.78 C 162.82 165.90 163.81 165.12 163.93 164.03 C 164.05 162.94 163.27 161.96 162.18 161.83 L 161.16 161.72 C 160.07 161.59 159.08 162.38 158.96 163.46 C 158.84 164.55 159.62 165.54 160.71 165.66 Z M 161.03 165.56 L 161.83 165.98 C 162.79 166.50 164.00 166.13 164.51 165.16 C 165.03 164.20 164.66 163.00 163.69 162.48 L 162.89 162.05 C 161.92 161.54 160.72 161.91 160.21 162.87 C 159.69 163.84 160.06 165.04 161.03 165.56 Z M 161.13 165.37 L 161.70 166.20 C 162.33 167.10 163.57 167.32 164.47 166.69 C 165.37 166.06 165.60 164.82 164.97 163.92 L 164.39 163.09 C 163.76 162.19 162.52 161.97 161.62 162.60 C 160.72 163.23 160.50 164.47 161.13 165.37 Z M 161.43 165.68 L 161.72 166.57 C 162.07 167.62 163.20 168.19 164.25 167.84 C 165.30 167.50 165.87 166.37 165.53 165.32 L 165.24 164.43 C 164.89 163.38 163.76 162.81 162.71 163.15 C 161.66 163.50 161.09 164.63 161.43 165.68 Z M 161.62 166.18 L 161.74 167.21 C 161.87 168.31 162.88 169.10 163.99 168.97 C 165.10 168.84 165.89 167.83 165.75 166.73 L 165.63 165.70 C 165.50 164.59 164.49 163.80 163.39 163.93 C 162.28 164.07 161.49 165.07 161.62 166.18 Z M 161.72 166.93 L 161.70 167.89 C 161.68 169.01 162.57 169.93 163.69 169.95 C 164.81 169.97 165.74 169.08 165.76 167.96 L 165.77 167.01 C 165.80 165.89 164.91 164.96 163.79 164.94 C 162.67 164.92 161.74 165.81 161.72 166.93 Z M 161.73 167.58 L 161.55 168.62 C 161.36 169.72 162.09 170.77 163.20 170.96 C 164.30 171.16 165.35 170.42 165.55 169.32 L 165.73 168.27 C 165.92 167.17 165.18 166.12 164.08 165.93 C 162.97 165.73 161.92 166.47 161.73 167.58 Z M 161.65 168.27 L 161.29 169.25 C 160.91 170.30 161.45 171.46 162.50 171.84 C 163.55 172.22 164.71 171.68 165.09 170.63 L 165.45 169.66 C 165.83 168.61 165.29 167.45 164.24 167.07 C 163.19 166.68 162.03 167.22 161.65 168.27 Z M 161.41 169.01 L 160.94 169.92 C 160.43 170.90 160.81 172.12 161.79 172.63 C 162.77 173.14 163.99 172.76 164.50 171.78 L 164.97 170.87 C 165.48 169.88 165.10 168.67 164.12 168.16 C 163.14 167.65 161.92 168.03 161.41 169.01 Z M 161.05 169.77 L 160.52 170.59 C 159.92 171.51 160.19 172.74 161.12 173.34 C 162.04 173.93 163.27 173.67 163.87 172.74 L 164.39 171.92 C 164.99 171.00 164.72 169.77 163.80 169.17 C 162.87 168.58 161.64 168.85 161.05 169.77 Z M 160.65 170.45 L 160.02 171.25 C 159.34 172.10 159.49 173.33 160.34 174.01 C 161.19 174.68 162.42 174.54 163.10 173.69 L 163.73 172.89 C 164.41 172.04 164.26 170.80 163.41 170.13 C 162.56 169.45 161.33 169.60 160.65 170.45 Z M 160.22 171.08 L 159.53 171.74 C 158.76 172.48 158.74 173.70 159.48 174.47 C 160.22 175.24 161.44 175.26 162.21 174.52 L 162.90 173.86 C 163.67 173.12 163.69 171.90 162.95 171.13 C 162.21 170.36 160.98 170.33 160.22 171.08 Z M 159.72 171.61 L 158.93 172.21 C 158.10 172.84 157.93 174.04 158.57 174.88 C 159.21 175.72 160.40 175.88 161.24 175.24 L 162.03 174.65 C 162.86 174.01 163.03 172.81 162.39 171.97 C 161.75 171.14 160.56 170.97 159.72 171.61 Z M 159.16 172.09 L 158.27 172.59 C 157.37 173.10 157.05 174.25 157.57 175.16 C 158.08 176.06 159.23 176.38 160.13 175.86 L 161.02 175.36 C 161.92 174.85 162.24 173.70 161.72 172.80 C 161.21 171.89 160.06 171.58 159.16 172.09 Z M 158.56 172.47 L 157.62 172.82 C 156.65 173.17 156.16 174.25 156.51 175.21 C 156.87 176.18 157.94 176.68 158.91 176.32 L 159.85 175.98 C 160.82 175.62 161.31 174.55 160.96 173.58 C 160.60 172.61 159.53 172.12 158.56 172.47 Z M 157.82 172.76 L 156.85 173.00 C 155.85 173.25 155.24 174.26 155.48 175.26 C 155.73 176.26 156.74 176.87 157.74 176.62 L 158.71 176.38 C 159.71 176.13 160.32 175.12 160.08 174.12 C 159.83 173.12 158.82 172.51 157.82 172.76 Z M 156.89 172.99 L 156.67 173.04 C 155.67 173.26 155.03 174.26 155.26 175.26 C 155.48 176.27 156.47 176.90 157.48 176.68 L 157.70 176.63 C 158.70 176.41 159.34 175.42 159.12 174.41 C 158.89 173.40 157.90 172.77 156.89 172.99 Z"
      fill="black"
      fill-rule="nonzero" /><path d="M 152.22 155.95 L 151.67 156.73 C 150.98 157.70 151.21 159.05 152.18 159.73 C 153.15 160.42 154.50 160.19 155.18 159.22 L 155.74 158.44 C 156.43 157.47 156.20 156.12 155.22 155.43 C 154.25 154.75 152.91 154.98 152.22 155.95 Z M 151.52 156.85 L 150.99 157.74 C 150.37 158.79 150.72 160.15 151.78 160.77 C 152.83 161.39 154.19 161.04 154.81 159.99 L 155.33 159.10 C 155.95 158.05 155.60 156.69 154.55 156.07 C 153.50 155.45 152.14 155.80 151.52 156.85 Z M 150.87 157.91 L 150.46 158.78 C 149.94 159.90 150.43 161.24 151.55 161.76 C 152.67 162.29 154.01 161.80 154.53 160.68 L 154.93 159.81 C 155.46 158.69 154.97 157.36 153.85 156.83 C 152.73 156.31 151.39 156.79 150.87 157.91 Z M 150.43 158.86 L 150.03 159.81 C 149.55 160.95 150.08 162.27 151.22 162.75 C 152.36 163.23 153.68 162.70 154.16 161.56 L 154.56 160.60 C 155.05 159.46 154.51 158.15 153.37 157.66 C 152.23 157.18 150.91 157.72 150.43 158.86 Z M 150.04 159.80 L 149.62 160.78 C 149.13 161.91 149.66 163.23 150.80 163.72 C 151.93 164.20 153.25 163.67 153.73 162.54 L 154.15 161.56 C 154.64 160.43 154.11 159.11 152.97 158.63 C 151.84 158.14 150.52 158.67 150.04 159.80 Z M 149.65 160.74 L 149.23 161.67 C 148.73 162.79 149.23 164.11 150.35 164.62 C 151.47 165.12 152.79 164.62 153.29 163.50 L 153.71 162.57 C 154.21 161.45 153.71 160.13 152.59 159.63 C 151.47 159.12 150.15 159.62 149.65 160.74 Z M 149.27 161.63 L 148.84 162.52 C 148.31 163.62 148.78 164.94 149.88 165.47 C 150.98 166.00 152.30 165.53 152.83 164.43 L 153.25 163.54 C 153.78 162.44 153.32 161.12 152.21 160.59 C 151.11 160.06 149.79 160.53 149.27 161.63 Z M 148.90 162.47 L 148.44 163.35 C 147.88 164.42 148.30 165.73 149.37 166.29 C 150.44 166.85 151.76 166.43 152.32 165.36 L 152.77 164.48 C 153.33 163.41 152.91 162.10 151.84 161.54 C 150.77 160.98 149.45 161.40 148.90 162.47 Z M 148.48 163.33 L 148.03 164.17 C 147.46 165.22 147.86 166.53 148.90 167.09 C 149.95 167.65 151.26 167.26 151.82 166.21 L 152.28 165.38 C 152.84 164.33 152.45 163.02 151.40 162.45 C 150.35 161.89 149.04 162.28 148.48 163.33 Z M 148.04 164.19 L 147.57 165.08 C 147.01 166.12 147.41 167.41 148.45 167.97 C 149.49 168.52 150.78 168.13 151.33 167.09 L 151.81 166.20 C 152.36 165.16 151.97 163.86 150.93 163.31 C 149.89 162.75 148.60 163.15 148.04 164.19 Z M 147.58 165.10 L 147.11 165.98 C 146.57 167.01 146.97 168.29 148.00 168.84 C 149.04 169.38 150.32 168.98 150.86 167.95 L 151.33 167.07 C 151.87 166.03 151.47 164.75 150.44 164.21 C 149.40 163.66 148.12 164.06 147.58 165.10 Z M 147.12 165.99 L 146.68 166.85 C 146.14 167.88 146.54 169.15 147.57 169.69 C 148.60 170.22 149.87 169.82 150.41 168.79 L 150.85 167.94 C 151.39 166.90 150.99 165.63 149.96 165.10 C 148.93 164.56 147.66 164.96 147.12 165.99 Z M 146.69 166.85 L 146.24 167.70 C 145.71 168.73 146.10 169.99 147.13 170.52 C 148.15 171.06 149.41 170.66 149.95 169.64 L 150.39 168.79 C 150.93 167.77 150.53 166.50 149.51 165.97 C 148.49 165.43 147.22 165.83 146.69 166.85 Z M 146.26 167.70 L 145.77 168.63 C 145.23 169.65 145.62 170.90 146.63 171.44 C 147.65 171.98 148.91 171.59 149.44 170.57 L 149.93 169.64 C 150.47 168.63 150.08 167.37 149.07 166.83 C 148.05 166.30 146.79 166.68 146.26 167.70 Z M 145.78 168.62 L 145.30 169.51 C 144.76 170.52 145.14 171.78 146.15 172.32 C 147.15 172.86 148.41 172.48 148.95 171.47 L 149.43 170.58 C 149.97 169.57 149.59 168.32 148.58 167.78 C 147.58 167.24 146.32 167.61 145.78 168.62 Z M 145.32 169.50 L 144.82 170.39 C 144.27 171.39 144.64 172.65 145.64 173.20 C 146.63 173.75 147.89 173.38 148.44 172.39 L 148.93 171.49 C 149.48 170.49 149.12 169.24 148.12 168.69 C 147.12 168.14 145.87 168.50 145.32 169.50 Z M 144.86 170.37 L 144.33 171.28 C 143.77 172.26 144.10 173.51 145.08 174.08 C 146.06 174.64 147.31 174.31 147.87 173.33 L 148.40 172.41 C 148.97 171.43 148.63 170.18 147.65 169.62 C 146.68 169.05 145.43 169.39 144.86 170.37 Z M 144.38 171.26 L 143.88 172.09 C 143.30 173.04 143.61 174.27 144.56 174.85 C 145.51 175.43 146.74 175.13 147.32 174.18 L 147.82 173.35 C 148.40 172.40 148.10 171.16 147.15 170.59 C 146.20 170.01 144.96 170.31 144.38 171.26 Z M 143.91 172.09 L 143.70 172.43 C 143.13 173.36 143.41 174.58 144.35 175.16 C 145.28 175.74 146.50 175.45 147.08 174.52 L 147.29 174.18 C 147.86 173.24 147.58 172.02 146.64 171.44 C 145.71 170.87 144.49 171.16 143.91 172.09 Z"
      fill="black"
      fill-rule="nonzero" /><path d="M 179.30 134.20 L 178.89 135.12 C 178.42 136.14 178.87 137.36 179.90 137.83 C 180.93 138.29 182.15 137.84 182.61 136.81 L 183.03 135.89 C 183.50 134.86 183.04 133.65 182.01 133.18 C 180.99 132.72 179.77 133.17 179.30 134.20 Z M 178.97 134.95 L 178.48 135.81 C 177.92 136.79 178.26 138.04 179.24 138.60 C 180.22 139.16 181.47 138.82 182.03 137.84 L 182.53 136.98 C 183.09 136.00 182.75 134.75 181.77 134.19 C 180.78 133.63 179.53 133.97 178.97 134.95 Z M 178.63 135.59 L 178.03 136.38 C 177.34 137.28 177.52 138.56 178.42 139.25 C 179.31 139.93 180.60 139.75 181.28 138.86 L 181.88 138.06 C 182.57 137.16 182.39 135.88 181.49 135.20 C 180.60 134.52 179.31 134.69 178.63 135.59 Z M 178.13 136.27 L 177.49 136.99 C 176.75 137.83 176.83 139.12 177.67 139.86 C 178.51 140.61 179.80 140.53 180.54 139.69 L 181.18 138.97 C 181.93 138.13 181.85 136.84 181.00 136.09 C 180.16 135.35 178.87 135.43 178.13 136.27 Z M 177.52 136.97 L 176.82 137.73 C 176.06 138.56 176.12 139.84 176.94 140.60 C 177.77 141.36 179.05 141.30 179.81 140.47 L 180.51 139.71 C 181.27 138.88 181.22 137.60 180.39 136.84 C 179.56 136.09 178.28 136.14 177.52 136.97 Z M 176.82 137.75 L 176.18 138.46 C 175.44 139.28 175.51 140.56 176.33 141.31 C 177.16 142.05 178.44 141.98 179.18 141.16 L 179.82 140.45 C 180.56 139.62 180.49 138.35 179.67 137.60 C 178.84 136.86 177.56 136.92 176.82 137.75 Z M 176.19 138.46 L 175.50 139.24 C 174.75 140.06 174.82 141.33 175.65 142.07 C 176.47 142.81 177.74 142.75 178.48 141.92 L 179.18 141.15 C 179.92 140.32 179.85 139.05 179.03 138.31 C 178.20 137.57 176.93 137.64 176.19 138.46 Z M 175.51 139.23 L 174.86 139.94 C 174.12 140.76 174.18 142.02 174.99 142.77 C 175.81 143.51 177.07 143.45 177.82 142.64 L 178.47 141.93 C 179.21 141.11 179.15 139.85 178.34 139.10 C 177.52 138.36 176.26 138.42 175.51 139.23 Z M 174.87 139.94 L 174.20 140.67 C 173.45 141.48 173.51 142.75 174.32 143.49 C 175.13 144.24 176.40 144.18 177.14 143.37 L 177.81 142.64 C 178.56 141.83 178.50 140.56 177.69 139.82 C 176.88 139.07 175.61 139.13 174.87 139.94 Z M 174.19 140.68 L 173.48 141.47 C 172.73 142.29 172.80 143.55 173.62 144.29 C 174.44 145.03 175.70 144.97 176.44 144.15 L 177.15 143.36 C 177.89 142.54 177.83 141.28 177.01 140.54 C 176.19 139.80 174.93 139.86 174.19 140.68 Z M 173.46 141.49 L 172.78 142.26 C 172.05 143.09 172.12 144.35 172.95 145.08 C 173.78 145.81 175.05 145.73 175.78 144.90 L 176.46 144.13 C 177.19 143.30 177.11 142.04 176.28 141.31 C 175.45 140.58 174.19 140.66 173.46 141.49 Z M 172.75 142.28 L 172.09 143.05 C 171.37 143.90 171.47 145.16 172.31 145.88 C 173.15 146.60 174.42 146.51 175.14 145.66 L 175.81 144.88 C 176.53 144.04 176.43 142.77 175.58 142.05 C 174.74 141.33 173.47 141.43 172.75 142.28 Z M 172.05 143.09 L 171.40 143.89 C 170.70 144.76 170.83 146.03 171.70 146.73 C 172.56 147.43 173.83 147.29 174.53 146.43 L 175.18 145.63 C 175.88 144.76 175.75 143.49 174.88 142.79 C 174.02 142.09 172.75 142.22 172.05 143.09 Z M 171.23 144.08 L 170.64 145.03 C 170.04 145.99 170.34 147.25 171.30 147.84 C 172.25 148.44 173.52 148.15 174.11 147.19 L 174.70 146.24 C 175.30 145.28 175.00 144.02 174.05 143.42 C 173.09 142.83 171.83 143.12 171.23 144.08 Z M 170.56 147.12 L 170.80 147.55 C 171.36 148.56 172.63 148.92 173.63 148.36 C 174.64 147.80 175.00 146.53 174.44 145.52 L 174.20 145.09 C 173.63 144.09 172.37 143.73 171.36 144.29 C 170.36 144.85 170.00 146.12 170.56 147.12 Z M 172.69 148.65 L 173.70 148.61 C 174.86 148.57 175.77 147.59 175.73 146.43 C 175.69 145.26 174.71 144.35 173.54 144.39 L 172.54 144.43 C 171.37 144.47 170.46 145.45 170.51 146.62 C 170.55 147.78 171.53 148.69 172.69 148.65 Z M 174.07 148.58 L 175.18 148.34 C 176.33 148.09 177.06 146.96 176.81 145.81 C 176.56 144.66 175.43 143.93 174.28 144.18 L 173.17 144.42 C 172.02 144.67 171.29 145.80 171.54 146.95 C 171.79 148.10 172.92 148.83 174.07 148.58 Z M 175.29 148.32 L 176.26 148.05 C 177.40 147.74 178.07 146.57 177.76 145.43 C 177.44 144.29 176.27 143.63 175.13 143.94 L 174.16 144.20 C 173.03 144.52 172.36 145.69 172.67 146.83 C 172.98 147.96 174.16 148.63 175.29 148.32 Z M 176.30 148.04 L 177.28 147.76 C 178.41 147.42 179.06 146.24 178.73 145.11 C 178.40 143.97 177.21 143.33 176.08 143.66 L 175.10 143.95 C 173.96 144.28 173.32 145.47 173.65 146.60 C 173.98 147.73 175.17 148.38 176.30 148.04 Z M 177.27 147.76 L 178.27 147.47 C 179.40 147.14 180.05 145.96 179.72 144.83 C 179.39 143.70 178.21 143.04 177.08 143.37 L 176.09 143.66 C 174.96 143.99 174.30 145.17 174.63 146.30 C 174.96 147.43 176.14 148.08 177.27 147.76 Z M 178.24 147.48 L 179.20 147.21 C 180.34 146.90 181.01 145.73 180.70 144.59 C 180.38 143.46 179.21 142.79 178.07 143.10 L 177.11 143.36 C 175.97 143.68 175.30 144.85 175.61 145.98 C 175.93 147.12 177.10 147.79 178.24 147.48 Z M 179.18 147.22 L 180.12 146.97 C 181.26 146.67 181.94 145.51 181.64 144.37 C 181.34 143.23 180.18 142.55 179.04 142.85 L 178.10 143.09 C 176.96 143.39 176.28 144.56 176.58 145.69 C 176.87 146.83 178.04 147.52 179.18 147.22 Z M 180.10 146.98 L 181.11 146.72 C 182.25 146.43 182.94 145.27 182.66 144.13 C 182.37 142.99 181.21 142.30 180.07 142.59 L 179.06 142.84 C 177.91 143.13 177.22 144.29 177.51 145.43 C 177.80 146.57 178.96 147.26 180.10 146.98 Z M 181.11 146.72 L 182.09 146.48 C 183.23 146.19 183.92 145.03 183.64 143.89 C 183.35 142.75 182.20 142.06 181.05 142.34 L 180.07 142.59 C 178.93 142.87 178.24 144.03 178.52 145.17 C 178.81 146.31 179.96 147.01 181.11 146.72 Z M 182.09 146.47 L 183.03 146.24 C 184.17 145.95 184.86 144.79 184.57 143.65 C 184.28 142.51 183.13 141.82 181.99 142.11 L 181.05 142.35 C 179.91 142.63 179.22 143.79 179.51 144.93 C 179.80 146.07 180.95 146.76 182.09 146.47 Z M 183.05 146.22 L 183.99 145.97 C 185.12 145.68 185.80 144.52 185.50 143.39 C 185.20 142.25 184.04 141.58 182.91 141.88 L 181.97 142.12 C 180.84 142.42 180.16 143.58 180.46 144.71 C 180.76 145.84 181.92 146.52 183.05 146.22 Z M 184.01 145.95 L 184.94 145.70 C 186.06 145.39 186.72 144.23 186.41 143.11 C 186.10 141.99 184.94 141.33 183.82 141.64 L 182.89 141.89 C 181.77 142.20 181.11 143.36 181.42 144.48 C 181.73 145.61 182.89 146.26 184.01 145.95 Z M 184.94 145.69 L 185.91 145.42 C 187.03 145.11 187.68 143.96 187.37 142.84 C 187.06 141.72 185.91 141.07 184.79 141.38 L 183.82 141.64 C 182.71 141.95 182.05 143.11 182.36 144.23 C 182.67 145.35 183.83 146.00 184.94 145.69 Z M 185.88 145.42 L 186.89 145.16 C 188.00 144.87 188.67 143.73 188.38 142.61 C 188.09 141.49 186.95 140.82 185.83 141.11 L 184.82 141.38 C 183.70 141.67 183.03 142.81 183.33 143.93 C 183.62 145.05 184.76 145.72 185.88 145.42 Z M 186.83 145.14 L 187.83 144.90 C 188.94 144.64 189.62 143.54 189.36 142.43 C 189.10 141.32 187.99 140.64 186.89 140.90 L 185.89 141.13 C 184.78 141.39 184.10 142.50 184.36 143.61 C 184.62 144.71 185.72 145.40 186.83 145.14 Z M 187.78 144.86 L 188.74 144.66 C 189.82 144.43 190.51 143.36 190.28 142.28 C 190.05 141.19 188.99 140.50 187.90 140.73 L 186.94 140.94 C 185.86 141.17 185.17 142.24 185.40 143.32 C 185.63 144.40 186.69 145.09 187.78 144.86 Z M 188.56 144.69 L 189.65 144.56 C 190.75 144.42 191.53 143.42 191.40 142.32 C 191.27 141.22 190.27 140.44 189.17 140.57 L 188.08 140.70 C 186.98 140.84 186.20 141.84 186.33 142.94 C 186.46 144.04 187.46 144.82 188.56 144.69 Z M 187.34 142.82 L 187.40 143.37 C 187.54 144.52 188.59 145.33 189.73 145.19 C 190.88 145.05 191.69 144.00 191.55 142.86 L 191.49 142.31 C 191.34 141.16 190.30 140.35 189.16 140.49 C 188.01 140.63 187.19 141.67 187.34 142.82 Z M 187.91 141.57 L 187.12 142.37 C 186.27 143.24 186.29 144.64 187.15 145.49 C 188.02 146.34 189.42 146.32 190.27 145.45 L 191.05 144.65 C 191.90 143.79 191.89 142.39 191.02 141.54 C 190.15 140.69 188.76 140.71 187.91 141.57 Z M 187.24 142.17 L 186.47 142.81 C 185.51 143.61 185.37 145.05 186.18 146.01 C 186.98 146.98 188.42 147.11 189.38 146.30 L 190.15 145.66 C 191.12 144.86 191.25 143.42 190.44 142.46 C 189.64 141.49 188.20 141.36 187.24 142.17 Z M 186.05 143.22 L 185.53 143.95 C 184.79 144.99 185.03 146.43 186.07 147.16 C 187.11 147.90 188.55 147.66 189.29 146.62 L 189.81 145.89 C 190.54 144.85 190.30 143.41 189.26 142.68 C 188.23 141.94 186.79 142.18 186.05 143.22 Z M 185.29 144.34 L 184.84 145.35 C 184.32 146.52 184.85 147.89 186.02 148.41 C 187.19 148.93 188.56 148.40 189.08 147.23 L 189.53 146.23 C 190.05 145.05 189.52 143.68 188.35 143.16 C 187.18 142.64 185.81 143.17 185.29 144.34 Z M 184.80 145.43 L 184.45 146.30 C 183.97 147.50 184.56 148.86 185.75 149.33 C 186.95 149.81 188.30 149.22 188.78 148.03 L 189.13 147.15 C 189.60 145.95 189.02 144.60 187.82 144.12 C 186.63 143.65 185.27 144.23 184.80 145.43 Z M 184.44 146.30 L 184.06 147.27 C 183.59 148.46 184.17 149.82 185.37 150.30 C 186.57 150.77 187.93 150.19 188.40 148.99 L 188.78 148.03 C 189.26 146.83 188.67 145.47 187.47 145.00 C 186.28 144.52 184.92 145.11 184.44 146.30 Z M 184.07 147.24 L 183.67 148.22 C 183.18 149.41 183.75 150.78 184.94 151.27 C 186.14 151.76 187.50 151.18 187.99 149.99 L 188.39 149.01 C 188.88 147.82 188.31 146.45 187.12 145.96 C 185.92 145.47 184.56 146.05 184.07 147.24 Z M 183.69 148.17 L 183.27 149.14 C 182.75 150.32 183.29 151.70 184.48 152.22 C 185.66 152.73 187.04 152.19 187.55 151.00 L 187.97 150.03 C 188.49 148.85 187.95 147.48 186.76 146.96 C 185.58 146.45 184.20 146.99 183.69 148.17 Z M 183.29 149.10 L 182.91 149.94 C 182.37 151.11 182.88 152.50 184.05 153.03 C 185.22 153.57 186.60 153.06 187.14 151.89 L 187.53 151.04 C 188.06 149.88 187.55 148.49 186.38 147.96 C 185.21 147.42 183.83 147.93 183.29 149.10 Z M 182.93 149.91 L 182.49 150.83 C 181.93 151.99 182.42 153.38 183.58 153.93 C 184.73 154.48 186.12 154.00 186.67 152.84 L 187.11 151.92 C 187.67 150.76 187.18 149.38 186.03 148.82 C 184.87 148.27 183.49 148.76 182.93 149.91 Z M 182.52 150.80 L 182.09 151.65 C 181.51 152.79 181.97 154.18 183.11 154.75 C 184.25 155.33 185.64 154.87 186.22 153.73 L 186.64 152.88 C 187.22 151.74 186.76 150.35 185.62 149.77 C 184.48 149.20 183.09 149.66 182.52 150.80 Z M 182.11 151.63 L 181.65 152.51 C 181.07 153.64 181.51 155.03 182.64 155.61 C 183.77 156.20 185.16 155.76 185.74 154.63 L 186.20 153.75 C 186.78 152.62 186.34 151.23 185.21 150.65 C 184.08 150.06 182.69 150.50 182.11 151.63 Z M 181.66 152.50 L 181.20 153.38 C 180.61 154.51 181.04 155.89 182.17 156.48 C 183.29 157.07 184.68 156.64 185.27 155.52 L 185.73 154.64 C 186.32 153.51 185.89 152.13 184.76 151.54 C 183.64 150.95 182.25 151.38 181.66 152.50 Z M 181.21 153.38 L 180.75 154.25 C 180.15 155.37 180.58 156.76 181.69 157.35 C 182.81 157.94 184.20 157.52 184.79 156.40 L 185.26 155.52 C 185.85 154.41 185.42 153.02 184.31 152.43 C 183.19 151.83 181.80 152.26 181.21 153.38 Z M 180.76 154.24 L 180.28 155.12 C 179.68 156.23 180.09 157.62 181.20 158.22 C 182.31 158.82 183.70 158.41 184.30 157.30 L 184.78 156.42 C 185.38 155.31 184.97 153.92 183.86 153.32 C 182.75 152.72 181.36 153.13 180.76 154.24 Z M 180.30 155.10 L 179.81 155.97 C 179.20 157.07 179.60 158.46 180.70 159.07 C 181.79 159.69 183.18 159.29 183.79 158.19 L 184.28 157.32 C 184.89 156.22 184.50 154.83 183.40 154.22 C 182.30 153.61 180.91 154.00 180.30 155.10 Z M 179.83 155.95 L 179.33 156.83 C 178.70 157.92 179.08 159.31 180.16 159.93 C 181.25 160.56 182.64 160.19 183.27 159.10 L 183.77 158.22 C 184.40 157.13 184.03 155.74 182.94 155.11 C 181.85 154.49 180.46 154.86 179.83 155.95 Z M 179.35 156.81 L 178.84 157.66 C 178.20 158.74 178.56 160.13 179.64 160.77 C 180.71 161.41 182.10 161.05 182.74 159.97 L 183.25 159.12 C 183.89 158.04 183.53 156.65 182.45 156.01 C 181.38 155.37 179.98 155.73 179.35 156.81 Z M 178.85 157.65 L 178.33 158.52 C 177.68 159.59 178.03 160.98 179.10 161.63 C 180.17 162.27 181.57 161.92 182.21 160.85 L 182.73 159.99 C 183.38 158.91 183.03 157.52 181.96 156.88 C 180.89 156.23 179.50 156.58 178.85 157.65 Z M 178.34 158.52 L 177.83 159.36 C 177.18 160.43 177.52 161.82 178.59 162.46 C 179.66 163.11 181.05 162.77 181.69 161.70 L 182.20 160.86 C 182.85 159.79 182.51 158.40 181.44 157.75 C 180.37 157.11 178.98 157.45 178.34 158.52 Z M 177.84 159.35 L 177.31 160.21 C 176.66 161.27 176.99 162.66 178.05 163.31 C 179.12 163.96 180.51 163.63 181.16 162.57 L 181.68 161.71 C 182.33 160.65 182.00 159.26 180.94 158.60 C 179.88 157.95 178.49 158.29 177.84 159.35 Z M 177.32 160.19 L 176.78 161.06 C 176.12 162.11 176.44 163.50 177.50 164.16 C 178.55 164.82 179.94 164.50 180.60 163.45 L 181.14 162.58 C 181.80 161.53 181.48 160.14 180.43 159.48 C 179.37 158.82 177.98 159.14 177.32 160.19 Z M 176.79 161.04 L 176.25 161.89 C 175.58 162.94 175.89 164.34 176.94 165.01 C 177.99 165.67 179.38 165.37 180.05 164.32 L 180.59 163.46 C 181.26 162.41 180.95 161.02 179.90 160.35 C 178.85 159.68 177.46 159.99 176.79 161.04 Z M 176.26 161.88 L 175.72 162.72 C 175.04 163.76 175.34 165.15 176.39 165.83 C 177.43 166.51 178.82 166.21 179.50 165.16 L 180.04 164.33 C 180.72 163.28 180.42 161.89 179.37 161.21 C 178.33 160.54 176.93 160.84 176.26 161.88 Z M 175.73 162.71 L 175.16 163.57 C 174.48 164.61 174.77 166.00 175.81 166.68 C 176.85 167.36 178.25 167.07 178.93 166.03 L 179.49 165.17 C 180.17 164.13 179.88 162.74 178.84 162.06 C 177.80 161.38 176.41 161.67 175.73 162.71 Z M 175.17 163.57 L 174.65 164.36 C 173.96 165.40 174.25 166.79 175.29 167.47 C 176.32 168.15 177.71 167.87 178.40 166.83 L 178.92 166.04 C 179.60 165.00 179.32 163.61 178.28 162.93 C 177.24 162.24 175.85 162.53 175.17 163.57 Z M 174.66 164.36 L 174.13 165.16 C 173.44 166.19 173.72 167.58 174.75 168.26 C 175.78 168.94 177.17 168.66 177.85 167.63 L 178.38 166.83 C 179.07 165.80 178.79 164.42 177.76 163.73 C 176.73 163.05 175.34 163.33 174.66 164.36 Z M 174.17 165.12 L 173.57 165.97 C 172.87 166.97 173.11 168.36 174.12 169.06 C 175.12 169.77 176.51 169.53 177.21 168.52 L 177.81 167.67 C 178.51 166.67 178.27 165.28 177.27 164.58 C 176.26 163.87 174.88 164.11 174.17 165.12 Z M 173.63 165.92 L 173.02 166.72 C 172.29 167.70 172.49 169.08 173.46 169.82 C 174.44 170.55 175.82 170.35 176.56 169.38 L 177.16 168.57 C 177.89 167.60 177.70 166.21 176.72 165.48 C 175.74 164.74 174.36 164.94 173.63 165.92 Z M 173.07 166.68 L 172.44 167.47 C 171.68 168.42 171.84 169.80 172.79 170.56 C 173.74 171.32 175.12 171.16 175.88 170.21 L 176.51 169.42 C 177.26 168.47 177.11 167.08 176.16 166.33 C 175.21 165.57 173.83 165.73 173.07 166.68 Z M 172.55 167.38 L 171.75 168.27 C 170.94 169.16 171.01 170.53 171.90 171.34 C 172.79 172.14 174.17 172.07 174.97 171.18 L 175.77 170.30 C 176.58 169.41 176.51 168.03 175.62 167.23 C 174.73 166.42 173.35 166.49 172.55 167.38 Z M 173.15 167.62 L 172.62 167.67 C 171.46 167.79 170.61 168.83 170.73 169.99 C 170.85 171.15 171.88 172.00 173.05 171.88 L 173.57 171.83 C 174.73 171.71 175.58 170.67 175.46 169.51 C 175.35 168.35 174.31 167.50 173.15 167.62 Z M 174.80 169.62 L 174.72 168.59 C 174.63 167.50 173.67 166.69 172.59 166.78 C 171.50 166.87 170.69 167.82 170.78 168.91 L 170.87 169.94 C 170.96 171.02 171.91 171.83 172.99 171.74 C 174.08 171.66 174.89 170.70 174.80 169.62 Z M 174.59 168.91 L 174.68 167.83 C 174.77 166.82 174.02 165.92 173.00 165.83 C 171.99 165.74 171.09 166.50 171.00 167.51 L 170.91 168.59 C 170.82 169.60 171.57 170.50 172.59 170.59 C 173.60 170.67 174.50 169.92 174.59 168.91 Z M 174.63 167.93 L 174.77 167.01 C 174.91 166.02 174.22 165.10 173.23 164.96 C 172.24 164.82 171.33 165.51 171.18 166.50 L 171.05 167.42 C 170.91 168.40 171.60 169.32 172.59 169.46 C 173.58 169.60 174.49 168.92 174.63 167.93 Z"
      fill="black"
      fill-rule="nonzero" /><path d="M 174.41 157.60 L 175.39 157.84 C 176.52 158.11 177.66 157.41 177.93 156.28 C 178.20 155.15 177.50 154.01 176.37 153.74 L 175.39 153.51 C 174.26 153.23 173.12 153.93 172.85 155.06 C 172.58 156.19 173.28 157.33 174.41 157.60 Z M 175.10 157.98 L 176.03 158.31 C 177.24 158.74 178.57 158.11 179.00 156.90 C 179.44 155.70 178.81 154.36 177.60 153.93 L 176.66 153.60 C 175.45 153.17 174.12 153.80 173.69 155.01 C 173.26 156.22 173.89 157.55 175.10 157.98 Z M 175.58 158.23 L 176.39 158.70 C 177.55 159.38 179.05 158.99 179.73 157.82 C 180.41 156.66 180.02 155.16 178.85 154.48 L 178.05 154.01 C 176.88 153.33 175.39 153.73 174.71 154.89 C 174.02 156.05 174.42 157.55 175.58 158.23 Z M 176.12 158.53 L 176.93 159.16 C 178.00 159.99 179.54 159.79 180.37 158.72 C 181.19 157.65 181.00 156.11 179.93 155.28 L 179.12 154.66 C 178.05 153.83 176.51 154.02 175.68 155.09 C 174.85 156.16 175.05 157.70 176.12 158.53 Z M 176.84 159.08 L 177.62 159.75 C 178.65 160.63 180.20 160.51 181.08 159.48 C 181.96 158.45 181.83 156.91 180.80 156.03 L 180.02 155.36 C 178.99 154.48 177.44 154.60 176.57 155.63 C 175.69 156.66 175.81 158.21 176.84 159.08 Z M 177.60 159.73 L 178.37 160.41 C 179.39 161.30 180.93 161.20 181.83 160.19 C 182.72 159.17 182.62 157.62 181.60 156.73 L 180.83 156.05 C 179.81 155.16 178.27 155.26 177.38 156.28 C 176.48 157.29 176.58 158.84 177.60 159.73 Z M 178.35 160.39 L 179.08 161.04 C 180.09 161.95 181.63 161.87 182.54 160.86 C 183.44 159.86 183.36 158.31 182.35 157.41 L 181.62 156.75 C 180.62 155.85 179.07 155.93 178.17 156.93 C 177.27 157.94 177.35 159.49 178.35 160.39 Z M 179.06 161.01 L 179.84 161.73 C 180.82 162.65 182.36 162.59 183.28 161.60 C 184.19 160.62 184.14 159.08 183.15 158.16 L 182.37 157.44 C 181.39 156.53 179.85 156.58 178.93 157.57 C 178.02 158.56 178.08 160.10 179.06 161.01 Z M 179.81 161.68 L 180.49 162.34 C 181.45 163.27 182.98 163.25 183.91 162.29 C 184.84 161.33 184.81 159.80 183.86 158.87 L 183.18 158.21 C 182.22 157.28 180.69 157.31 179.76 158.27 C 178.83 159.22 178.85 160.75 179.81 161.68 Z M 180.48 162.29 L 181.17 162.99 C 182.10 163.93 183.61 163.94 184.55 163.01 C 185.49 162.07 185.50 160.56 184.57 159.62 L 183.87 158.92 C 182.94 157.99 181.43 157.98 180.49 158.91 C 179.55 159.84 179.55 161.35 180.48 162.29 Z M 181.18 162.96 L 181.88 163.68 C 182.79 164.61 184.29 164.63 185.22 163.71 C 186.16 162.80 186.17 161.31 185.26 160.37 L 184.56 159.66 C 183.65 158.72 182.15 158.71 181.22 159.62 C 180.28 160.53 180.27 162.03 181.18 162.96 Z M 181.91 163.66 L 182.62 164.38 C 183.52 165.30 185.00 165.31 185.92 164.40 C 186.84 163.50 186.85 162.02 185.94 161.11 L 185.23 160.39 C 184.33 159.47 182.85 159.46 181.93 160.36 C 181.02 161.27 181.01 162.75 181.91 163.66 Z M 182.63 164.35 L 183.32 165.06 C 184.21 165.97 185.67 165.99 186.58 165.11 C 187.49 164.22 187.51 162.76 186.62 161.85 L 185.93 161.14 C 185.05 160.23 183.59 160.21 182.67 161.09 C 181.76 161.98 181.74 163.44 182.63 164.35 Z M 183.30 164.99 L 183.97 165.73 C 184.82 166.66 186.26 166.72 187.19 165.87 C 188.11 165.03 188.18 163.59 187.33 162.66 L 186.65 161.92 C 185.80 160.99 184.36 160.93 183.44 161.78 C 182.51 162.63 182.45 164.07 183.30 164.99 Z M 183.95 165.66 L 184.60 166.41 C 185.41 167.35 186.82 167.46 187.76 166.65 C 188.70 165.84 188.81 164.42 188.00 163.49 L 187.35 162.73 C 186.54 161.80 185.13 161.69 184.19 162.50 C 183.25 163.31 183.15 164.72 183.95 165.66 Z M 184.59 166.36 L 185.24 167.14 C 186.02 168.08 187.41 168.22 188.35 167.44 C 189.29 166.66 189.43 165.27 188.65 164.33 L 188.00 163.54 C 187.23 162.60 185.84 162.47 184.89 163.24 C 183.95 164.02 183.82 165.41 184.59 166.36 Z M 185.25 167.10 L 185.85 167.86 C 186.61 168.79 187.98 168.94 188.92 168.19 C 189.86 167.44 190.01 166.07 189.25 165.13 L 188.65 164.37 C 187.89 163.43 186.52 163.28 185.58 164.04 C 184.64 164.79 184.49 166.16 185.25 167.10 Z M 185.86 167.82 L 186.45 168.56 C 187.18 169.49 188.53 169.65 189.46 168.92 C 190.40 168.19 190.56 166.84 189.82 165.90 L 189.24 165.16 C 188.51 164.23 187.16 164.07 186.23 164.80 C 185.29 165.54 185.13 166.89 185.86 167.82 Z M 186.44 168.51 L 187.07 169.34 C 187.77 170.27 189.10 170.46 190.04 169.76 C 190.97 169.05 191.16 167.72 190.46 166.79 L 189.83 165.96 C 189.12 165.02 187.79 164.83 186.86 165.54 C 185.92 166.24 185.74 167.57 186.44 168.51 Z M 187.05 169.28 L 187.63 170.08 C 188.30 171.03 189.61 171.25 190.55 170.58 C 191.49 169.90 191.71 168.60 191.04 167.65 L 190.47 166.85 C 189.80 165.90 188.49 165.68 187.55 166.36 C 186.60 167.03 186.38 168.34 187.05 169.28 Z M 187.59 169.99 L 188.15 170.86 C 188.77 171.82 190.05 172.10 191.02 171.48 C 191.98 170.86 192.26 169.58 191.64 168.62 L 191.08 167.75 C 190.46 166.78 189.18 166.50 188.21 167.12 C 187.25 167.74 186.97 169.03 187.59 169.99 Z M 188.10 170.70 L 188.58 171.61 C 189.11 172.61 190.35 172.98 191.34 172.45 C 192.34 171.92 192.71 170.68 192.18 169.69 L 191.69 168.78 C 191.16 167.78 189.93 167.41 188.93 167.94 C 187.94 168.47 187.56 169.71 188.10 170.70 Z M 188.56 171.45 L 188.96 172.36 C 189.40 173.36 190.58 173.82 191.58 173.38 C 192.59 172.94 193.05 171.76 192.60 170.75 L 192.20 169.85 C 191.76 168.84 190.59 168.39 189.58 168.83 C 188.57 169.27 188.12 170.45 188.56 171.45 Z M 188.97 172.29 L 189.19 172.82 C 189.59 173.82 190.73 174.30 191.73 173.90 C 192.73 173.50 193.21 172.36 192.81 171.37 L 192.59 170.83 C 192.18 169.83 191.05 169.35 190.05 169.75 C 189.05 170.15 188.57 171.29 188.97 172.29 Z"
      fill="black"
      fill-rule="nonzero" /><path d="M 117.74 138.60 L 118.35 139.33 C 119.11 140.23 120.46 140.34 121.36 139.58 C 122.26 138.82 122.38 137.47 121.62 136.57 L 121.01 135.85 C 120.25 134.94 118.90 134.83 118.00 135.59 C 117.09 136.35 116.98 137.70 117.74 138.60 Z M 119.08 139.93 L 119.98 140.33 C 121.07 140.83 122.36 140.34 122.86 139.25 C 123.35 138.16 122.87 136.87 121.77 136.37 L 120.88 135.97 C 119.79 135.47 118.50 135.96 118.00 137.05 C 117.51 138.14 117.99 139.43 119.08 139.93 Z M 120.64 140.53 L 121.62 140.63 C 122.82 140.77 123.90 139.90 124.04 138.70 C 124.17 137.50 123.30 136.42 122.10 136.28 L 121.11 136.18 C 119.91 136.05 118.83 136.91 118.70 138.11 C 118.57 139.32 119.44 140.40 120.64 140.53 Z M 121.83 140.64 L 122.89 140.66 C 124.09 140.67 125.08 139.71 125.10 138.51 C 125.12 137.30 124.15 136.31 122.95 136.29 L 121.89 136.28 C 120.69 136.26 119.69 137.22 119.68 138.43 C 119.66 139.63 120.62 140.63 121.83 140.64 Z M 122.93 140.62 L 123.87 140.62 C 125.06 140.61 126.01 139.64 126.01 138.46 C 126.00 137.27 125.03 136.31 123.84 136.32 L 122.90 136.32 C 121.72 136.33 120.76 137.30 120.77 138.49 C 120.77 139.68 121.74 140.63 122.93 140.62 Z M 123.94 140.56 L 124.93 140.52 C 126.09 140.47 126.98 139.50 126.94 138.35 C 126.89 137.19 125.92 136.30 124.77 136.34 L 123.78 136.38 C 122.62 136.43 121.72 137.40 121.77 138.55 C 121.82 139.70 122.79 140.60 123.94 140.56 Z M 125.02 140.46 L 126.06 140.37 C 127.18 140.27 128.01 139.29 127.91 138.17 C 127.82 137.05 126.84 136.22 125.72 136.32 L 124.68 136.40 C 123.56 136.50 122.73 137.48 122.82 138.60 C 122.92 139.72 123.90 140.55 125.02 140.46 Z M 126.11 140.32 L 127.13 140.20 C 128.22 140.08 129.00 139.10 128.88 138.01 C 128.76 136.92 127.78 136.13 126.69 136.25 L 125.67 136.37 C 124.58 136.49 123.79 137.47 123.91 138.56 C 124.03 139.65 125.02 140.44 126.11 140.32 Z M 127.14 140.16 L 128.17 140.04 C 129.23 139.91 130.00 138.94 129.87 137.87 C 129.74 136.80 128.77 136.04 127.70 136.17 L 126.67 136.29 C 125.61 136.42 124.84 137.39 124.97 138.46 C 125.10 139.53 126.07 140.29 127.14 140.16 Z M 128.15 140.00 L 129.16 139.89 C 130.20 139.77 130.95 138.82 130.84 137.77 C 130.72 136.73 129.77 135.98 128.72 136.09 L 127.72 136.21 C 126.67 136.33 125.92 137.27 126.04 138.32 C 126.16 139.37 127.10 140.12 128.15 140.00 Z M 129.11 139.85 L 130.18 139.75 C 131.21 139.66 131.96 138.75 131.87 137.72 C 131.77 136.69 130.86 135.94 129.84 136.03 L 128.77 136.13 C 127.74 136.23 126.99 137.13 127.08 138.16 C 127.17 139.19 128.08 139.94 129.11 139.85 Z M 130.13 139.71 L 131.03 139.65 C 132.03 139.58 132.79 138.71 132.72 137.70 C 132.65 136.70 131.78 135.94 130.78 136.01 L 129.88 136.07 C 128.88 136.14 128.12 137.01 128.19 138.02 C 128.26 139.02 129.13 139.78 130.13 139.71 Z M 131.02 139.63 L 131.12 139.62 C 132.11 139.56 132.87 138.70 132.80 137.71 C 132.74 136.72 131.88 135.96 130.89 136.03 L 130.79 136.03 C 129.80 136.09 129.04 136.95 129.10 137.94 C 129.17 138.94 130.02 139.69 131.02 139.63 Z"
      fill="black"
      fill-rule="nonzero" /><path d="M 120.81 149.13 L 121.72 149.59 C 122.76 150.11 124.03 149.69 124.55 148.65 C 125.07 147.61 124.65 146.34 123.61 145.82 L 122.69 145.36 C 121.65 144.84 120.39 145.26 119.87 146.30 C 119.34 147.34 119.77 148.61 120.81 149.13 Z M 121.90 149.68 L 122.81 150.03 C 123.90 150.45 125.13 149.91 125.55 148.82 C 125.97 147.73 125.43 146.51 124.34 146.08 L 123.43 145.73 C 122.34 145.31 121.12 145.85 120.69 146.94 C 120.27 148.03 120.81 149.26 121.90 149.68 Z M 123.18 150.14 L 124.17 150.33 C 125.33 150.55 126.44 149.80 126.66 148.64 C 126.88 147.49 126.12 146.38 124.97 146.16 L 123.97 145.97 C 122.82 145.75 121.71 146.51 121.49 147.66 C 121.27 148.81 122.03 149.92 123.18 150.14 Z M 124.35 150.36 L 125.31 150.46 C 126.47 150.58 127.52 149.73 127.64 148.57 C 127.76 147.40 126.92 146.36 125.75 146.24 L 124.79 146.14 C 123.63 146.02 122.58 146.86 122.46 148.03 C 122.34 149.19 123.19 150.23 124.35 150.36 Z M 125.22 150.43 L 126.20 150.58 C 127.36 150.75 128.43 149.95 128.60 148.80 C 128.77 147.65 127.97 146.57 126.82 146.40 L 125.84 146.26 C 124.69 146.09 123.61 146.89 123.44 148.04 C 123.27 149.19 124.07 150.26 125.22 150.43 Z M 126.05 150.54 L 127.02 150.76 C 128.15 151.01 129.27 150.30 129.52 149.17 C 129.78 148.04 129.07 146.92 127.94 146.67 L 126.97 146.45 C 125.84 146.19 124.72 146.90 124.47 148.03 C 124.21 149.16 124.92 150.28 126.05 150.54 Z M 126.83 150.69 L 127.79 151.01 C 128.88 151.37 130.06 150.77 130.42 149.68 C 130.78 148.59 130.19 147.41 129.10 147.05 L 128.13 146.73 C 127.04 146.37 125.86 146.97 125.50 148.06 C 125.14 149.15 125.73 150.33 126.83 150.69 Z M 127.52 150.88 L 128.45 151.35 C 129.48 151.86 130.72 151.44 131.23 150.42 C 131.74 149.40 131.33 148.15 130.30 147.64 L 129.37 147.18 C 128.34 146.66 127.10 147.08 126.59 148.11 C 126.08 149.13 126.50 150.37 127.52 150.88 Z M 128.06 151.09 L 128.83 151.72 C 129.71 152.45 131.02 152.32 131.74 151.44 C 132.47 150.56 132.34 149.25 131.46 148.53 L 130.69 147.90 C 129.81 147.17 128.51 147.30 127.78 148.18 C 127.05 149.06 127.18 150.37 128.06 151.09 Z M 128.33 151.11 L 128.79 151.96 C 129.33 152.96 130.59 153.34 131.59 152.79 C 132.59 152.25 132.97 150.99 132.42 149.99 L 131.96 149.14 C 131.42 148.14 130.16 147.76 129.16 148.31 C 128.16 148.85 127.78 150.11 128.33 151.11 Z M 128.54 150.97 L 128.54 151.95 C 128.54 153.09 129.46 154.02 130.60 154.02 C 131.74 154.02 132.67 153.10 132.67 151.96 L 132.67 150.98 C 132.67 149.84 131.75 148.91 130.61 148.91 C 129.47 148.91 128.54 149.83 128.54 150.97 Z M 128.79 150.99 L 128.33 151.86 C 127.80 152.86 128.18 154.11 129.18 154.64 C 130.19 155.17 131.43 154.79 131.96 153.78 L 132.42 152.92 C 132.95 151.91 132.57 150.67 131.57 150.14 C 130.56 149.61 129.32 149.99 128.79 150.99 Z M 128.72 151.36 L 128.00 152.07 C 127.19 152.86 127.17 154.15 127.96 154.95 C 128.74 155.76 130.03 155.77 130.84 154.99 L 131.57 154.28 C 132.37 153.50 132.39 152.21 131.60 151.40 C 130.82 150.60 129.53 150.58 128.72 151.36 Z M 128.27 151.87 L 127.42 152.45 C 126.50 153.08 126.27 154.34 126.90 155.26 C 127.53 156.18 128.79 156.41 129.71 155.78 L 130.56 155.19 C 131.48 154.56 131.71 153.31 131.08 152.39 C 130.45 151.47 129.19 151.24 128.27 151.87 Z M 127.67 152.32 L 126.81 152.75 C 125.81 153.24 125.41 154.45 125.90 155.44 C 126.40 156.43 127.60 156.84 128.59 156.34 L 129.46 155.91 C 130.45 155.42 130.85 154.22 130.36 153.22 C 129.87 152.23 128.66 151.83 127.67 152.32 Z M 127.03 152.66 L 126.11 152.99 C 125.07 153.36 124.52 154.51 124.90 155.55 C 125.27 156.59 126.41 157.13 127.45 156.76 L 128.37 156.43 C 129.41 156.06 129.96 154.92 129.59 153.87 C 129.21 152.83 128.07 152.29 127.03 152.66 Z M 126.30 152.93 L 125.31 153.17 C 124.24 153.44 123.59 154.53 123.85 155.60 C 124.12 156.68 125.21 157.33 126.28 157.06 L 127.26 156.82 C 128.34 156.55 128.99 155.47 128.73 154.39 C 128.46 153.32 127.37 152.66 126.30 152.93 Z M 125.44 153.14 L 124.44 153.32 C 123.35 153.52 122.63 154.57 122.83 155.66 C 123.03 156.75 124.07 157.48 125.17 157.28 L 126.16 157.10 C 127.25 156.90 127.97 155.85 127.77 154.76 C 127.57 153.66 126.53 152.94 125.44 153.14 Z M 124.50 153.31 L 123.35 153.48 C 122.25 153.65 121.49 154.68 121.65 155.78 C 121.82 156.88 122.85 157.64 123.95 157.47 L 125.11 157.30 C 126.21 157.13 126.97 156.10 126.80 155.00 C 126.63 153.90 125.60 153.14 124.50 153.31 Z M 122.86 153.62 L 122.45 153.79 C 121.43 154.23 120.95 155.41 121.39 156.44 C 121.82 157.47 123.01 157.94 124.04 157.51 L 124.44 157.33 C 125.47 156.90 125.94 155.71 125.51 154.68 C 125.07 153.66 123.88 153.18 122.86 153.62 Z M 122.90 157.63 L 123.94 157.82 C 125.03 158.01 126.08 157.28 126.27 156.18 C 126.46 155.08 125.73 154.04 124.63 153.85 L 123.59 153.66 C 122.50 153.47 121.45 154.20 121.26 155.30 C 121.07 156.40 121.80 157.44 122.90 157.63 Z M 123.76 157.77 L 124.81 158.06 C 125.89 158.35 126.99 157.71 127.28 156.64 C 127.57 155.57 126.93 154.46 125.86 154.18 L 124.81 153.89 C 123.74 153.60 122.64 154.23 122.35 155.31 C 122.06 156.38 122.69 157.48 123.76 157.77 Z M 124.55 157.97 L 125.46 158.35 C 126.48 158.78 127.66 158.30 128.09 157.28 C 128.52 156.26 128.05 155.08 127.02 154.65 L 126.12 154.27 C 125.10 153.83 123.92 154.31 123.49 155.33 C 123.06 156.35 123.53 157.53 124.55 157.97 Z M 125.31 158.28 L 126.14 158.71 C 127.13 159.23 128.34 158.84 128.85 157.86 C 129.37 156.88 128.98 155.66 128.00 155.15 L 127.17 154.72 C 126.19 154.20 124.97 154.59 124.46 155.57 C 123.95 156.55 124.33 157.77 125.31 158.28 Z M 125.99 158.62 L 126.88 159.19 C 127.82 159.79 129.06 159.52 129.66 158.58 C 130.25 157.65 129.98 156.41 129.05 155.81 L 128.15 155.24 C 127.22 154.64 125.98 154.92 125.38 155.85 C 124.78 156.78 125.06 158.03 125.99 158.62 Z M 126.75 159.11 L 127.56 159.72 C 128.45 160.39 129.71 160.21 130.38 159.33 C 131.05 158.44 130.87 157.18 129.99 156.51 L 129.18 155.90 C 128.29 155.23 127.03 155.41 126.36 156.29 C 125.69 157.18 125.87 158.44 126.75 159.11 Z M 127.46 159.64 L 128.23 160.30 C 129.07 161.02 130.34 160.93 131.06 160.08 C 131.79 159.24 131.69 157.97 130.85 157.25 L 130.09 156.59 C 129.24 155.87 127.97 155.96 127.25 156.80 C 126.53 157.64 126.62 158.91 127.46 159.64 Z M 128.08 160.16 L 128.81 160.92 C 129.58 161.73 130.85 161.76 131.65 160.99 C 132.46 160.22 132.49 158.95 131.72 158.15 L 131.00 157.38 C 130.23 156.58 128.96 156.55 128.15 157.32 C 127.35 158.08 127.32 159.36 128.08 160.16 Z M 128.60 160.66 L 129.11 161.43 C 129.73 162.35 130.99 162.59 131.91 161.97 C 132.83 161.35 133.07 160.10 132.45 159.18 L 131.93 158.41 C 131.31 157.49 130.06 157.24 129.14 157.86 C 128.22 158.49 127.98 159.74 128.60 160.66 Z M 128.94 161.10 L 129.33 162.01 C 129.77 163.03 130.96 163.50 131.98 163.06 C 133.00 162.61 133.46 161.43 133.02 160.41 L 132.63 159.50 C 132.19 158.48 131.00 158.02 129.98 158.46 C 128.96 158.90 128.50 160.09 128.94 161.10 Z M 129.22 161.67 L 129.45 162.64 C 129.70 163.72 130.78 164.40 131.86 164.14 C 132.94 163.89 133.61 162.81 133.36 161.73 L 133.13 160.75 C 132.88 159.67 131.80 159.00 130.72 159.25 C 129.64 159.51 128.97 160.59 129.22 161.67 Z M 129.40 162.36 L 129.49 163.36 C 129.58 164.46 130.55 165.28 131.66 165.19 C 132.76 165.10 133.58 164.12 133.49 163.02 L 133.41 162.02 C 133.31 160.91 132.34 160.09 131.24 160.19 C 130.13 160.28 129.31 161.25 129.40 162.36 Z M 129.48 163.14 L 129.46 164.14 C 129.43 165.25 130.30 166.17 131.41 166.20 C 132.52 166.23 133.44 165.35 133.47 164.24 L 133.50 163.24 C 133.52 162.13 132.65 161.21 131.54 161.18 C 130.43 161.15 129.51 162.03 129.48 163.14 Z M 129.52 163.69 L 129.28 164.61 C 129.01 165.68 129.65 166.78 130.72 167.06 C 131.79 167.33 132.89 166.69 133.17 165.62 L 133.41 164.69 C 133.68 163.62 133.04 162.53 131.97 162.25 C 130.89 161.97 129.80 162.62 129.52 163.69 Z M 129.54 164.04 L 129.02 164.85 C 128.43 165.78 128.70 167.02 129.63 167.61 C 130.56 168.21 131.80 167.93 132.40 167.00 L 132.91 166.19 C 133.51 165.26 133.23 164.02 132.30 163.43 C 131.37 162.83 130.13 163.11 129.54 164.04 Z M 129.30 164.51 L 128.56 165.25 C 127.78 166.03 127.77 167.30 128.55 168.08 C 129.33 168.86 130.60 168.86 131.38 168.08 L 132.12 167.34 C 132.90 166.56 132.90 165.29 132.12 164.51 C 131.34 163.73 130.08 163.73 129.30 164.51 Z M 128.74 165.10 L 127.93 165.73 C 127.06 166.41 126.91 167.66 127.59 168.52 C 128.26 169.39 129.52 169.55 130.38 168.87 L 131.19 168.24 C 132.06 167.56 132.21 166.31 131.54 165.44 C 130.86 164.57 129.61 164.42 128.74 165.10 Z M 128.10 165.61 L 127.25 166.14 C 126.32 166.72 126.04 167.95 126.62 168.88 C 127.20 169.82 128.43 170.10 129.36 169.52 L 130.21 168.98 C 131.14 168.40 131.43 167.18 130.84 166.24 C 130.26 165.31 129.03 165.03 128.10 165.61 Z M 127.52 166.02 L 126.62 166.41 C 125.62 166.85 125.16 168.01 125.59 169.01 C 126.03 170.01 127.19 170.47 128.19 170.03 L 129.09 169.64 C 130.09 169.21 130.55 168.04 130.12 167.04 C 129.68 166.04 128.52 165.58 127.52 166.02 Z M 126.87 166.35 L 125.92 166.62 C 124.88 166.91 124.28 167.98 124.57 169.02 C 124.86 170.06 125.94 170.66 126.97 170.37 L 127.93 170.10 C 128.97 169.81 129.57 168.73 129.28 167.69 C 128.99 166.66 127.91 166.05 126.87 166.35 Z M 126.02 166.60 L 125.05 166.82 C 124.00 167.05 123.34 168.08 123.58 169.13 C 123.81 170.17 124.84 170.83 125.88 170.60 L 126.86 170.38 C 127.91 170.15 128.56 169.12 128.33 168.07 C 128.10 167.03 127.07 166.37 126.02 166.60 Z M 125.13 166.81 L 124.13 166.99 C 123.08 167.17 122.38 168.17 122.57 169.22 C 122.75 170.27 123.76 170.97 124.81 170.79 L 125.80 170.61 C 126.85 170.42 127.55 169.42 127.37 168.37 C 127.18 167.32 126.18 166.62 125.13 166.81 Z M 124.25 166.97 L 123.25 167.09 C 122.19 167.21 121.43 168.17 121.55 169.22 C 121.68 170.28 122.63 171.04 123.69 170.92 L 124.69 170.80 C 125.75 170.68 126.51 169.72 126.38 168.66 C 126.26 167.61 125.30 166.85 124.25 166.97 Z M 123.38 167.08 L 122.40 167.12 C 121.34 167.17 120.52 168.08 120.57 169.14 C 120.62 170.20 121.52 171.03 122.59 170.98 L 123.56 170.93 C 124.63 170.88 125.45 169.97 125.40 168.91 C 125.35 167.85 124.44 167.03 123.38 167.08 Z M 122.47 167.12 L 121.45 167.13 C 120.39 167.15 119.53 168.02 119.55 169.09 C 119.56 170.16 120.44 171.01 121.51 171.00 L 122.52 170.98 C 123.59 170.97 124.44 170.09 124.43 169.02 C 124.41 167.95 123.53 167.10 122.47 167.12 Z M 121.47 167.12 L 120.45 167.12 C 119.38 167.13 118.51 168.00 118.51 169.07 C 118.52 170.15 119.39 171.02 120.47 171.01 L 121.49 171.01 C 122.56 171.01 123.43 170.13 123.43 169.06 C 123.42 167.98 122.55 167.11 121.47 167.12 Z M 120.46 167.11 L 119.45 167.11 C 118.37 167.11 117.49 167.99 117.49 169.07 C 117.49 170.15 118.37 171.03 119.45 171.03 L 120.46 171.03 C 121.54 171.03 122.42 170.15 122.42 169.07 C 122.42 167.98 121.54 167.11 120.46 167.11 Z M 119.45 167.09 L 118.48 167.09 C 117.39 167.09 116.51 167.98 116.51 169.07 C 116.51 170.16 117.39 171.04 118.48 171.04 L 119.45 171.04 C 120.54 171.04 121.42 170.16 121.42 169.07 C 121.42 167.98 120.54 167.09 119.45 167.09 Z M 118.44 167.05 L 117.25 167.07 C 116.14 167.10 115.25 168.01 115.27 169.13 C 115.30 170.24 116.22 171.13 117.33 171.11 L 118.52 171.08 C 119.63 171.06 120.52 170.14 120.50 169.03 C 120.47 167.92 119.56 167.03 118.44 167.05 Z M 115.47 168.07 L 115.36 168.27 C 114.80 169.27 115.16 170.54 116.16 171.10 C 117.17 171.67 118.44 171.31 119.00 170.30 L 119.11 170.11 C 119.67 169.10 119.31 167.83 118.31 167.27 C 117.30 166.71 116.03 167.07 115.47 168.07 Z M 116.39 171.27 L 117.40 171.68 C 118.50 172.12 119.75 171.58 120.18 170.48 C 120.62 169.38 120.09 168.14 118.99 167.70 L 117.97 167.30 C 116.88 166.86 115.63 167.40 115.19 168.49 C 114.76 169.59 115.29 170.84 116.39 171.27 Z M 117.36 171.70 L 118.43 172.15 C 119.54 172.61 120.81 172.09 121.28 170.98 C 121.74 169.87 121.22 168.60 120.11 168.14 L 119.03 167.69 C 117.93 167.22 116.65 167.74 116.19 168.85 C 115.73 169.96 116.25 171.23 117.36 171.70 Z M 118.36 172.14 L 119.30 172.57 C 120.41 173.08 121.71 172.59 122.21 171.49 C 122.72 170.39 122.24 169.09 121.14 168.58 L 120.19 168.15 C 119.09 167.64 117.78 168.12 117.28 169.22 C 116.77 170.33 117.25 171.63 118.36 172.14 Z M 119.26 172.57 L 120.16 173.00 C 121.27 173.53 122.59 173.07 123.12 171.97 C 123.65 170.87 123.18 169.54 122.08 169.02 L 121.18 168.58 C 120.08 168.05 118.75 168.52 118.22 169.62 C 117.70 170.72 118.16 172.04 119.26 172.57 Z M 120.14 173.01 L 121.10 173.48 C 122.21 174.03 123.54 173.58 124.09 172.48 C 124.63 171.37 124.18 170.04 123.08 169.49 L 122.11 169.01 C 121.01 168.47 119.67 168.92 119.13 170.02 C 118.58 171.13 119.03 172.46 120.14 173.01 Z M 121.09 173.48 L 121.94 173.91 C 123.04 174.47 124.38 174.02 124.94 172.92 C 125.49 171.82 125.05 170.47 123.95 169.92 L 123.09 169.49 C 121.99 168.94 120.65 169.38 120.09 170.48 C 119.54 171.59 119.98 172.93 121.09 173.48 Z M 121.95 173.92 L 122.77 174.33 C 123.88 174.88 125.23 174.43 125.78 173.32 C 126.33 172.21 125.87 170.87 124.76 170.32 L 123.94 169.91 C 122.83 169.36 121.48 169.81 120.94 170.92 C 120.39 172.03 120.84 173.37 121.95 173.92 Z M 122.78 174.34 L 123.68 174.78 C 124.79 175.33 126.14 174.87 126.68 173.76 C 127.23 172.64 126.77 171.30 125.66 170.75 L 124.76 170.31 C 123.64 169.77 122.30 170.23 121.76 171.34 C 121.21 172.45 121.67 173.80 122.78 174.34 Z M 123.66 174.77 L 124.54 175.22 C 125.65 175.77 127.00 175.32 127.55 174.21 C 128.11 173.11 127.66 171.76 126.55 171.20 L 125.67 170.76 C 124.57 170.21 123.22 170.65 122.66 171.76 C 122.11 172.87 122.56 174.22 123.66 174.77 Z M 124.54 175.22 L 125.46 175.67 C 126.57 176.23 127.92 175.78 128.47 174.67 C 129.02 173.56 128.57 172.21 127.46 171.66 L 126.55 171.20 C 125.44 170.64 124.09 171.10 123.54 172.21 C 122.98 173.32 123.43 174.66 124.54 175.22 Z M 125.48 175.69 L 126.37 176.11 C 127.48 176.65 128.83 176.19 129.37 175.07 C 129.91 173.95 129.44 172.61 128.32 172.07 L 127.44 171.64 C 126.32 171.10 124.98 171.57 124.44 172.69 C 123.90 173.80 124.37 175.15 125.48 175.69 Z M 126.37 176.11 L 127.28 176.56 C 128.40 177.10 129.74 176.63 130.28 175.51 C 130.82 174.40 130.35 173.06 129.24 172.52 L 128.32 172.07 C 127.21 171.53 125.87 172.00 125.32 173.11 C 124.78 174.23 125.25 175.57 126.37 176.11 Z M 127.26 176.54 L 128.14 176.98 C 129.25 177.54 130.60 177.09 131.15 175.98 C 131.71 174.87 131.26 173.53 130.15 172.97 L 129.26 172.53 C 128.15 171.98 126.81 172.43 126.25 173.53 C 125.70 174.64 126.15 175.99 127.26 176.54 Z M 128.13 176.98 L 129.03 177.43 C 130.14 177.99 131.48 177.55 132.04 176.45 C 132.60 175.34 132.16 174.00 131.06 173.44 L 130.16 172.98 C 129.06 172.42 127.71 172.86 127.15 173.97 C 126.59 175.07 127.03 176.42 128.13 176.98 Z M 129.04 177.43 L 129.92 177.88 C 131.02 178.43 132.37 177.99 132.92 176.89 C 133.48 175.78 133.04 174.44 131.93 173.88 L 131.05 173.44 C 129.95 172.88 128.61 173.32 128.05 174.43 C 127.49 175.53 127.93 176.87 129.04 177.43 Z M 129.91 177.87 L 130.80 178.33 C 131.90 178.89 133.25 178.45 133.81 177.35 C 134.37 176.25 133.94 174.90 132.83 174.34 L 131.94 173.89 C 130.84 173.32 129.49 173.76 128.93 174.86 C 128.37 175.96 128.81 177.31 129.91 177.87 Z M 130.78 178.32 L 131.68 178.79 C 132.77 179.36 134.13 178.94 134.70 177.84 C 135.27 176.75 134.85 175.40 133.76 174.82 L 132.86 174.35 C 131.76 173.78 130.41 174.20 129.84 175.30 C 129.26 176.39 129.69 177.74 130.78 178.32 Z M 131.66 178.77 L 132.55 179.25 C 133.64 179.84 134.99 179.44 135.58 178.35 C 136.16 177.26 135.76 175.90 134.67 175.32 L 133.78 174.84 C 132.69 174.25 131.34 174.66 130.75 175.74 C 130.16 176.83 130.57 178.19 131.66 178.77 Z M 132.54 179.25 L 133.41 179.73 C 134.49 180.32 135.85 179.92 136.45 178.84 C 137.04 177.76 136.64 176.40 135.56 175.81 L 134.68 175.33 C 133.60 174.73 132.24 175.13 131.65 176.21 C 131.06 177.29 131.45 178.65 132.54 179.25 Z M 133.41 179.72 L 134.30 180.21 C 135.38 180.81 136.74 180.41 137.33 179.33 C 137.93 178.26 137.53 176.90 136.46 176.30 L 135.56 175.81 C 134.48 175.22 133.13 175.61 132.53 176.69 C 131.94 177.77 132.33 179.13 133.41 179.72 Z M 134.31 180.21 L 135.16 180.67 C 136.24 181.26 137.59 180.87 138.18 179.79 C 138.77 178.71 138.37 177.36 137.30 176.77 L 136.45 176.31 C 135.37 175.72 134.02 176.11 133.43 177.19 C 132.84 178.27 133.23 179.62 134.31 180.21 Z M 135.18 180.67 L 136.06 181.15 C 137.14 181.73 138.48 181.33 139.06 180.26 C 139.64 179.18 139.24 177.84 138.17 177.25 L 137.28 176.78 C 136.21 176.19 134.86 176.59 134.28 177.67 C 133.70 178.75 134.10 180.09 135.18 180.67 Z M 136.06 181.14 L 136.94 181.62 C 138.01 182.20 139.35 181.80 139.93 180.73 C 140.51 179.66 140.11 178.32 139.04 177.74 L 138.17 177.26 C 137.10 176.68 135.76 177.08 135.18 178.15 C 134.60 179.22 134.99 180.56 136.06 181.14 Z M 136.92 181.60 L 137.81 182.09 C 138.87 182.69 140.21 182.30 140.80 181.24 C 141.39 180.18 141.01 178.84 139.95 178.25 L 139.06 177.76 C 138.00 177.16 136.66 177.54 136.07 178.61 C 135.48 179.67 135.86 181.01 136.92 181.60 Z M 137.77 182.07 L 138.60 182.56 C 139.65 183.17 141.00 182.81 141.61 181.76 C 142.22 180.71 141.86 179.36 140.81 178.75 L 139.98 178.27 C 138.93 177.66 137.58 178.01 136.97 179.07 C 136.36 180.12 136.72 181.46 137.77 182.07 Z M 138.56 182.53 L 139.38 183.03 C 140.41 183.67 141.77 183.34 142.40 182.31 C 143.04 181.27 142.71 179.92 141.68 179.28 L 140.86 178.78 C 139.82 178.14 138.47 178.47 137.83 179.51 C 137.20 180.54 137.52 181.90 138.56 182.53 Z M 139.35 183.02 L 140.23 183.57 C 141.26 184.22 142.62 183.91 143.26 182.88 C 143.91 181.86 143.61 180.50 142.58 179.85 L 141.70 179.30 C 140.67 178.65 139.31 178.96 138.67 179.98 C 138.02 181.01 138.33 182.37 139.35 183.02 Z M 140.20 183.55 L 141.06 184.11 C 142.08 184.77 143.44 184.49 144.10 183.47 C 144.76 182.45 144.48 181.09 143.46 180.43 L 142.60 179.87 C 141.59 179.21 140.23 179.49 139.56 180.51 C 138.90 181.53 139.19 182.89 140.20 183.55 Z M 140.99 184.06 L 141.81 184.64 C 142.79 185.34 144.17 185.11 144.87 184.12 C 145.57 183.13 145.34 181.76 144.35 181.06 L 143.53 180.48 C 142.54 179.78 141.17 180.01 140.47 181.00 C 139.77 181.99 140.00 183.36 140.99 184.06 Z M 141.68 184.52 L 142.63 185.31 C 143.55 186.08 144.93 185.96 145.70 185.04 C 146.47 184.11 146.34 182.74 145.42 181.97 L 144.47 181.17 C 143.55 180.40 142.17 180.53 141.40 181.45 C 140.63 182.38 140.76 183.75 141.68 184.52 Z M 145.97 182.86 L 145.88 182.63 C 145.45 181.56 144.23 181.04 143.15 181.47 C 142.08 181.90 141.56 183.11 141.99 184.19 L 142.08 184.42 C 142.51 185.49 143.73 186.01 144.80 185.58 C 145.88 185.15 146.40 183.93 145.97 182.86 Z M 145.48 182.20 L 145.03 181.62 C 144.36 180.77 143.13 180.61 142.27 181.28 C 141.42 181.95 141.26 183.18 141.93 184.04 L 142.38 184.62 C 143.05 185.47 144.29 185.63 145.14 184.96 C 146.00 184.29 146.15 183.06 145.48 182.20 Z"
      fill="black"
      fill-rule="nonzero" /></svg>