<svg xmlns="http://www.w3.org/2000/svg" width="300" height="300" viewBox="0 0 300 300">
<path d="M 122.04 129.21 L 123.00 129.38 C 124.17 129.58 125.30 128.80 125.50 127.62 C 125.71 126.44 124.92 125.32 123.75 125.11 L 122.79 124.95 C 121.61 124.74 120.49 125.52 120.28 126.70 C 120.08 127.88 120.86 129.00 122.04 129.21 Z M 123.02 129.52 L 124.01 129.67 C 125.27 129.87 126.44 129.00 126.64 127.74 C 126.83 126.49 125.97 125.31 124.71 125.12 L 123.72 124.97 C 122.46 124.77 121.29 125.64 121.10 126.90 C 120.90 128.15 121.77 129.33 123.02 129.52 Z M 124.09 129.80 L 125.12 129.92 C 126.45 130.07 127.64 129.11 127.79 127.78 C 127.94 126.45 126.99 125.25 125.66 125.11 L 124.63 124.99 C 123.30 124.84 122.10 125.80 121.95 127.12 C 121.80 128.45 122.76 129.65 124.09 129.80 Z M 125.21 129.97 L 126.24 130.04 C 127.60 130.14 128.78 129.12 128.88 127.76 C 128.98 126.40 127.95 125.23 126.60 125.13 L 125.56 125.05 C 124.21 124.96 123.03 125.98 122.93 127.33 C 122.83 128.69 123.85 129.87 125.21 129.97 Z M 126.30 130.04 L 127.30 130.09 C 128.66 130.15 129.81 129.11 129.87 127.75 C 129.94 126.40 128.90 125.25 127.54 125.18 L 126.54 125.13 C 125.18 125.07 124.03 126.11 123.97 127.47 C 123.90 128.82 124.94 129.97 126.30 130.04 Z M 127.32 130.07 L 128.33 130.11 C 129.68 130.16 130.81 129.12 130.86 127.77 C 130.92 126.43 129.87 125.29 128.53 125.24 L 127.52 125.20 C 126.17 125.15 125.04 126.19 124.99 127.54 C 124.93 128.88 125.98 130.02 127.32 130.07 Z M 128.34 130.07 L 129.33 130.10 C 130.65 130.16 131.77 129.13 131.82 127.80 C 131.87 126.48 130.84 125.37 129.52 125.32 L 128.52 125.28 C 127.20 125.23 126.09 126.26 126.04 127.58 C 125.99 128.90 127.02 130.02 128.34 130.07 Z M 129.34 130.05 L 130.29 130.08 C 131.58 130.13 132.66 129.12 132.71 127.83 C 132.75 126.54 131.74 125.45 130.45 125.41 L 129.50 125.38 C 128.21 125.33 127.13 126.34 127.09 127.63 C 127.04 128.92 128.05 130.00 129.34 130.05 Z M 130.30 130.02 L 131.30 130.05 C 132.55 130.09 133.60 129.10 133.64 127.85 C 133.68 126.59 132.69 125.54 131.44 125.50 L 130.44 125.47 C 129.18 125.43 128.14 126.42 128.10 127.68 C 128.06 128.93 129.04 129.98 130.30 130.02 Z M 131.30 129.98 L 132.31 130.01 C 133.53 130.05 134.55 129.09 134.59 127.87 C 134.62 126.65 133.66 125.63 132.44 125.60 L 131.43 125.57 C 130.21 125.53 129.20 126.49 129.16 127.71 C 129.12 128.93 130.08 129.95 131.30 129.98 Z M 132.32 129.96 L 133.31 129.98 C 134.50 130.02 135.49 129.08 135.52 127.89 C 135.56 126.71 134.62 125.72 133.44 125.69 L 132.44 125.66 C 131.25 125.62 130.26 126.56 130.23 127.75 C 130.19 128.93 131.13 129.92 132.32 129.96 Z M 133.33 129.93 L 134.33 129.95 C 135.49 129.97 136.45 129.05 136.47 127.90 C 136.49 126.74 135.57 125.78 134.42 125.76 L 133.42 125.74 C 132.26 125.72 131.30 126.63 131.28 127.79 C 131.26 128.95 132.17 129.91 133.33 129.93 Z M 134.35 129.90 L 135.35 129.91 C 136.48 129.92 137.40 129.01 137.41 127.88 C 137.42 126.75 136.52 125.83 135.39 125.82 L 134.39 125.81 C 133.26 125.80 132.34 126.71 132.33 127.84 C 132.32 128.96 133.23 129.89 134.35 129.90 Z M 135.35 129.86 L 136.36 129.87 C 137.46 129.88 138.36 128.99 138.37 127.89 C 138.38 126.79 137.50 125.89 136.39 125.88 L 135.39 125.87 C 134.28 125.86 133.38 126.74 133.37 127.85 C 133.36 128.95 134.25 129.85 135.35 129.86 Z M 136.34 129.83 L 137.34 129.85 C 138.42 129.86 139.31 129.01 139.33 127.93 C 139.35 126.85 138.49 125.96 137.41 125.94 L 136.41 125.92 C 135.33 125.90 134.44 126.76 134.42 127.84 C 134.40 128.92 135.26 129.81 136.34 129.83 Z M 137.34 129.81 L 138.34 129.83 C 139.40 129.85 140.27 129.01 140.29 127.95 C 140.32 126.89 139.47 126.02 138.42 126.00 L 137.42 125.98 C 136.36 125.95 135.48 126.79 135.46 127.85 C 135.44 128.91 136.28 129.79 137.34 129.81 Z M 138.35 129.80 L 139.36 129.81 C 140.40 129.82 141.26 128.99 141.27 127.95 C 141.28 126.91 140.45 126.05 139.41 126.04 L 138.40 126.03 C 137.36 126.02 136.51 126.85 136.49 127.89 C 136.48 128.93 137.31 129.78 138.35 129.80 Z M 139.38 129.78 L 140.38 129.78 C 141.40 129.78 142.23 128.96 142.24 127.93 C 142.24 126.91 141.41 126.07 140.39 126.07 L 139.39 126.07 C 138.37 126.07 137.53 126.89 137.53 127.92 C 137.53 128.94 138.36 129.78 139.38 129.78 Z M 140.38 129.76 L 141.32 129.76 C 142.33 129.76 143.15 128.94 143.15 127.93 C 143.15 126.92 142.33 126.09 141.32 126.09 L 140.38 126.09 C 139.37 126.09 138.55 126.91 138.55 127.93 C 138.55 128.94 139.37 129.76 140.38 129.76 Z M 141.31 129.75 L 142.29 129.75 C 143.29 129.76 144.11 128.95 144.12 127.94 C 144.12 126.94 143.31 126.12 142.30 126.11 L 141.33 126.11 C 140.32 126.10 139.50 126.91 139.50 127.92 C 139.49 128.92 140.31 129.74 141.31 129.75 Z M 142.27 129.74 L 143.30 129.76 C 144.30 129.77 145.12 128.97 145.14 127.97 C 145.15 126.97 144.35 126.15 143.35 126.13 L 142.32 126.12 C 141.32 126.11 140.50 126.91 140.49 127.91 C 140.47 128.91 141.27 129.73 142.27 129.74 Z M 143.29 129.75 L 144.25 129.77 C 145.25 129.79 146.07 128.99 146.09 127.99 C 146.10 127.00 145.31 126.17 144.31 126.16 L 143.36 126.14 C 142.36 126.12 141.54 126.91 141.52 127.91 C 141.50 128.91 142.30 129.73 143.29 129.75 Z M 144.24 129.76 L 145.28 129.79 C 146.27 129.81 147.10 129.02 147.12 128.02 C 147.14 127.02 146.35 126.20 145.35 126.18 L 144.32 126.16 C 143.32 126.14 142.50 126.93 142.48 127.92 C 142.46 128.92 143.25 129.74 144.24 129.76 Z M 145.28 129.78 L 146.14 129.80 C 147.14 129.82 147.96 129.04 147.98 128.04 C 148.00 127.05 147.22 126.22 146.22 126.20 L 145.36 126.18 C 144.36 126.16 143.54 126.95 143.52 127.94 C 143.49 128.94 144.28 129.76 145.28 129.78 Z"
      fill="black"
      fill-rule="nonzero" /><path d="M 119.37 137.43 L 119.09 138.37 C 118.77 139.46 119.39 140.62 120.49 140.94 C 121.58 141.26 122.73 140.64 123.06 139.54 L 123.34 138.60 C 123.66 137.50 123.04 136.35 121.94 136.03 C 120.84 135.70 119.69 136.33 119.37 137.43 Z M 118.91 138.50 L 118.70 139.49 C 118.45 140.68 119.21 141.86 120.41 142.11 C 121.60 142.36 122.77 141.60 123.03 140.40 L 123.24 139.41 C 123.49 138.22 122.73 137.05 121.53 136.79 C 120.34 136.54 119.17 137.30 118.91 138.50 Z M 118.58 139.75 L 118.50 140.76 C 118.39 142.02 119.32 143.12 120.58 143.23 C 121.84 143.34 122.95 142.41 123.06 141.15 L 123.15 140.14 C 123.25 138.88 122.32 137.77 121.06 137.67 C 119.80 137.56 118.69 138.49 118.58 139.75 Z M 118.47 140.95 L 118.47 141.95 C 118.47 143.22 119.50 144.26 120.77 144.26 C 122.05 144.26 123.08 143.23 123.08 141.96 L 123.08 140.96 C 123.09 139.68 122.06 138.65 120.78 138.65 C 119.51 138.64 118.47 139.68 118.47 140.95 Z M 118.46 142.06 L 118.51 143.07 C 118.57 144.35 119.65 145.34 120.93 145.28 C 122.21 145.22 123.20 144.14 123.14 142.86 L 123.09 141.85 C 123.03 140.57 121.95 139.58 120.67 139.64 C 119.39 139.70 118.41 140.78 118.46 142.06 Z M 118.51 143.13 L 118.58 144.10 C 118.67 145.38 119.78 146.34 121.05 146.26 C 122.33 146.17 123.30 145.06 123.21 143.78 L 123.14 142.80 C 123.05 141.52 121.94 140.56 120.66 140.65 C 119.38 140.74 118.42 141.85 118.51 143.13 Z M 118.58 144.10 L 118.64 145.07 C 118.73 146.35 119.84 147.31 121.12 147.22 C 122.40 147.13 123.36 146.02 123.28 144.74 L 123.21 143.78 C 123.12 142.50 122.01 141.54 120.73 141.63 C 119.45 141.72 118.49 142.82 118.58 144.10 Z M 118.64 145.07 L 118.72 146.09 C 118.81 147.37 119.92 148.33 121.20 148.24 C 122.48 148.15 123.44 147.04 123.35 145.76 L 123.28 144.74 C 123.18 143.46 122.07 142.50 120.80 142.59 C 119.52 142.68 118.55 143.79 118.64 145.07 Z M 118.72 146.11 L 118.79 147.08 C 118.89 148.35 120.01 149.31 121.29 149.21 C 122.56 149.11 123.52 148.00 123.42 146.72 L 123.35 145.75 C 123.25 144.47 122.13 143.52 120.85 143.61 C 119.58 143.71 118.62 144.83 118.72 146.11 Z M 118.80 147.06 L 118.87 148.07 C 118.96 149.35 120.07 150.31 121.35 150.22 C 122.62 150.13 123.58 149.02 123.49 147.74 L 123.42 146.73 C 123.33 145.45 122.22 144.49 120.94 144.59 C 119.66 144.68 118.70 145.79 118.80 147.06 Z M 118.87 148.03 L 118.92 149.03 C 118.99 150.31 120.08 151.29 121.36 151.22 C 122.64 151.15 123.61 150.06 123.54 148.78 L 123.49 147.78 C 123.42 146.51 122.33 145.53 121.06 145.60 C 119.78 145.67 118.80 146.76 118.87 148.03 Z M 118.93 149.00 L 118.97 149.99 C 119.02 151.26 120.09 152.26 121.36 152.21 C 122.64 152.16 123.63 151.08 123.58 149.81 L 123.54 148.82 C 123.49 147.54 122.42 146.55 121.14 146.60 C 119.87 146.65 118.88 147.72 118.93 149.00 Z M 118.97 149.98 L 119.01 151.01 C 119.05 152.28 120.12 153.27 121.39 153.23 C 122.66 153.18 123.66 152.12 123.61 150.84 L 123.58 149.82 C 123.53 148.55 122.46 147.55 121.19 147.60 C 119.92 147.64 118.93 148.71 118.97 149.98 Z M 119.01 151.02 L 119.05 152.00 C 119.10 153.27 120.17 154.26 121.44 154.21 C 122.70 154.16 123.69 153.09 123.64 151.82 L 123.61 150.84 C 123.56 149.57 122.49 148.58 121.22 148.63 C 119.95 148.68 118.96 149.75 119.01 151.02 Z M 119.06 151.99 L 119.09 153.00 C 119.14 154.26 120.20 155.25 121.47 155.20 C 122.73 155.16 123.72 154.10 123.67 152.83 L 123.64 151.83 C 123.59 150.56 122.53 149.58 121.26 149.62 C 120.00 149.67 119.01 150.73 119.06 151.99 Z M 119.10 152.97 L 119.13 153.98 C 119.16 155.24 120.21 156.23 121.47 156.20 C 122.73 156.17 123.73 155.12 123.69 153.86 L 123.67 152.85 C 123.63 151.59 122.59 150.60 121.32 150.63 C 120.06 150.66 119.07 151.71 119.10 152.97 Z M 119.13 153.95 L 119.15 154.93 C 119.16 156.19 120.20 157.20 121.45 157.18 C 122.71 157.16 123.72 156.13 123.70 154.87 L 123.69 153.89 C 123.67 152.63 122.64 151.63 121.38 151.64 C 120.12 151.66 119.12 152.69 119.13 153.95 Z M 119.16 154.92 L 119.16 155.93 C 119.17 157.18 120.20 158.19 121.45 158.18 C 122.70 158.17 123.71 157.14 123.70 155.89 L 123.69 154.89 C 123.68 153.63 122.66 152.63 121.40 152.64 C 120.15 152.65 119.15 153.67 119.16 154.92 Z M 119.17 155.94 L 119.19 156.95 C 119.20 158.20 120.22 159.20 121.47 159.18 C 122.72 159.17 123.71 158.15 123.70 156.90 L 123.69 155.88 C 123.67 154.64 122.65 153.64 121.41 153.65 C 120.16 153.67 119.16 154.69 119.17 155.94 Z M 119.20 156.96 L 119.21 157.97 C 119.24 159.21 120.26 160.20 121.50 160.18 C 122.74 160.16 123.73 159.14 123.71 157.90 L 123.69 156.89 C 123.67 155.65 122.65 154.66 121.41 154.68 C 120.17 154.70 119.18 155.72 119.20 156.96 Z M 119.23 157.97 L 119.25 158.98 C 119.27 160.21 120.28 161.19 121.52 161.17 C 122.75 161.15 123.73 160.13 123.71 158.90 L 123.69 157.90 C 123.67 156.66 122.65 155.68 121.42 155.70 C 120.19 155.72 119.21 156.74 119.23 157.97 Z M 119.26 158.97 L 119.27 159.98 C 119.29 161.20 120.29 162.18 121.52 162.17 C 122.74 162.15 123.72 161.15 123.71 159.92 L 123.70 158.91 C 123.68 157.68 122.67 156.70 121.45 156.72 C 120.22 156.73 119.24 157.74 119.26 158.97 Z M 119.29 159.96 L 119.29 160.98 C 119.30 162.20 120.29 163.18 121.51 163.17 C 122.73 163.16 123.71 162.17 123.70 160.95 L 123.70 159.94 C 123.69 158.72 122.70 157.74 121.48 157.74 C 120.26 157.75 119.28 158.74 119.29 159.96 Z M 119.30 160.97 L 119.31 161.94 C 119.31 163.15 120.29 164.13 121.50 164.13 C 122.71 164.13 123.69 163.14 123.69 161.93 L 123.69 160.96 C 123.69 159.75 122.70 158.77 121.49 158.77 C 120.28 158.78 119.30 159.76 119.30 160.97 Z M 119.32 161.94 L 119.32 162.95 C 119.32 164.15 120.30 165.12 121.50 165.12 C 122.70 165.12 123.67 164.15 123.67 162.95 L 123.67 161.94 C 123.67 160.74 122.70 159.76 121.50 159.76 C 120.30 159.76 119.32 160.74 119.32 161.94 Z M 119.34 162.95 L 119.34 163.95 C 119.34 165.14 120.31 166.11 121.50 166.11 C 122.69 166.11 123.65 165.14 123.65 163.95 L 123.65 162.95 C 123.65 161.76 122.69 160.79 121.50 160.79 C 120.31 160.79 119.34 161.76 119.34 162.95 Z M 119.36 163.95 L 119.36 164.94 C 119.36 166.12 120.32 167.08 121.50 167.08 C 122.68 167.08 123.63 166.12 123.63 164.94 L 123.63 163.95 C 123.63 162.77 122.68 161.81 121.50 161.81 C 120.32 161.81 119.36 162.77 119.36 163.95 Z M 119.38 164.94 L 119.38 165.96 C 119.38 167.12 120.33 168.07 121.50 168.07 C 122.66 168.07 123.61 167.12 123.61 165.96 L 123.61 164.94 C 123.61 163.77 122.66 162.83 121.50 162.83 C 120.33 162.83 119.38 163.77 119.38 164.94 Z M 119.41 165.96 L 119.41 166.92 C 119.41 168.07 120.34 169.01 121.50 169.01 C 122.65 169.01 123.59 168.07 123.59 166.92 L 123.59 165.96 C 123.59 164.80 122.65 163.87 121.50 163.87 C 120.34 163.87 119.41 164.80 119.41 165.96 Z M 119.43 166.93 L 119.44 167.88 C 119.45 169.02 120.37 169.94 121.51 169.94 C 122.65 169.93 123.57 169.00 123.57 167.86 L 123.56 166.91 C 123.56 165.77 122.63 164.85 121.49 164.85 C 120.35 164.86 119.43 165.79 119.43 166.93 Z M 119.47 167.93 L 119.49 168.98 C 119.52 170.10 120.46 170.99 121.59 170.96 C 122.71 170.93 123.60 169.99 123.57 168.87 L 123.54 167.82 C 123.51 166.69 122.57 165.80 121.45 165.84 C 120.32 165.87 119.44 166.80 119.47 167.93 Z M 119.52 169.02 L 119.57 169.96 C 119.62 171.07 120.57 171.92 121.68 171.87 C 122.79 171.81 123.65 170.87 123.59 169.75 L 123.54 168.82 C 123.49 167.71 122.54 166.85 121.43 166.91 C 120.32 166.97 119.46 167.91 119.52 169.02 Z M 119.59 169.98 L 119.65 171.00 C 119.72 172.10 120.66 172.93 121.76 172.87 C 122.86 172.80 123.70 171.85 123.63 170.75 L 123.57 169.73 C 123.50 168.63 122.55 167.80 121.46 167.86 C 120.36 167.93 119.52 168.88 119.59 169.98 Z M 119.67 171.01 L 119.72 171.83 C 119.80 172.91 120.74 173.74 121.83 173.67 C 122.92 173.59 123.74 172.65 123.67 171.56 L 123.61 170.74 C 123.54 169.66 122.60 168.83 121.51 168.90 C 120.42 168.97 119.60 169.92 119.67 171.01 Z"
      fill="black"
      fill-rule="nonzero" /><path d="M 127.08 143.98 L 127.74 143.26 C 128.52 142.39 128.45 141.06 127.59 140.27 C 126.72 139.49 125.39 139.56 124.60 140.42 L 123.95 141.15 C 123.16 142.01 123.23 143.35 124.09 144.13 C 124.96 144.92 126.30 144.85 127.08 143.98 Z M 127.54 143.45 L 128.30 142.80 C 129.19 142.04 129.30 140.71 128.54 139.82 C 127.78 138.93 126.44 138.82 125.56 139.58 L 124.79 140.23 C 123.91 140.99 123.80 142.33 124.56 143.22 C 125.32 144.11 126.65 144.21 127.54 143.45 Z M 128.03 143.03 L 128.86 142.53 C 129.87 141.92 130.20 140.61 129.59 139.59 C 128.98 138.58 127.67 138.25 126.65 138.86 L 125.83 139.36 C 124.81 139.97 124.49 141.28 125.10 142.29 C 125.70 143.31 127.02 143.63 128.03 143.03 Z M 128.66 142.68 L 129.61 142.24 C 130.71 141.74 131.19 140.45 130.69 139.36 C 130.19 138.26 128.90 137.78 127.81 138.28 L 126.85 138.72 C 125.76 139.21 125.28 140.50 125.78 141.60 C 126.27 142.69 127.57 143.17 128.66 142.68 Z M 129.47 142.32 L 130.36 141.99 C 131.50 141.58 132.09 140.31 131.67 139.17 C 131.25 138.03 129.99 137.45 128.85 137.87 L 127.95 138.20 C 126.81 138.62 126.23 139.88 126.65 141.02 C 127.07 142.16 128.33 142.74 129.47 142.32 Z M 130.24 142.05 L 131.22 141.75 C 132.38 141.40 133.05 140.17 132.69 139.00 C 132.34 137.83 131.11 137.17 129.94 137.52 L 128.97 137.82 C 127.80 138.17 127.14 139.40 127.49 140.57 C 127.84 141.74 129.07 142.40 130.24 142.05 Z M 131.10 141.79 L 132.12 141.54 C 133.31 141.25 134.04 140.06 133.75 138.87 C 133.46 137.68 132.27 136.95 131.08 137.24 L 130.06 137.49 C 128.87 137.77 128.14 138.97 128.43 140.16 C 128.72 141.35 129.91 142.08 131.10 141.79 Z M 132.02 141.57 L 133.04 141.37 C 134.24 141.13 135.03 139.97 134.79 138.77 C 134.56 137.57 133.40 136.78 132.19 137.02 L 131.18 137.21 C 129.98 137.45 129.19 138.61 129.42 139.81 C 129.66 141.02 130.82 141.80 132.02 141.57 Z M 132.94 141.38 L 133.91 141.24 C 135.12 141.06 135.95 139.93 135.77 138.72 C 135.59 137.51 134.46 136.68 133.25 136.86 L 132.29 137.00 C 131.08 137.18 130.25 138.31 130.43 139.52 C 130.61 140.73 131.73 141.56 132.94 141.38 Z M 133.77 141.24 L 134.81 141.15 C 136.02 141.05 136.92 139.98 136.81 138.77 C 136.71 137.55 135.64 136.66 134.43 136.76 L 133.39 136.85 C 132.17 136.96 131.28 138.03 131.38 139.24 C 131.49 140.45 132.56 141.35 133.77 141.24 Z M 134.67 141.13 L 135.61 141.11 C 136.82 141.09 137.77 140.09 137.74 138.89 C 137.72 137.69 136.72 136.74 135.52 136.76 L 134.57 136.78 C 133.37 136.81 132.42 137.80 132.45 139.00 C 132.47 140.21 133.46 141.16 134.67 141.13 Z M 135.57 141.09 L 136.54 141.09 C 137.73 141.09 138.69 140.13 138.69 138.94 C 138.69 137.75 137.73 136.78 136.54 136.78 L 135.57 136.78 C 134.38 136.79 133.42 137.75 133.42 138.94 C 133.42 140.13 134.38 141.09 135.57 141.09 Z M 136.54 141.08 L 137.55 141.08 C 138.73 141.08 139.69 140.12 139.69 138.94 C 139.69 137.76 138.73 136.80 137.55 136.80 L 136.54 136.80 C 135.36 136.80 134.40 137.76 134.40 138.94 C 134.40 140.12 135.36 141.08 136.54 141.08 Z M 137.53 141.07 L 138.52 141.07 C 139.70 141.08 140.66 140.14 140.66 138.96 C 140.67 137.78 139.73 136.82 138.55 136.82 L 137.56 136.81 C 136.39 136.80 135.43 137.75 135.42 138.92 C 135.41 140.10 136.36 141.06 137.53 141.07 Z M 138.40 141.06 L 139.41 141.12 C 140.58 141.19 141.59 140.31 141.66 139.14 C 141.73 137.97 140.84 136.96 139.68 136.89 L 138.67 136.83 C 137.50 136.76 136.49 137.65 136.42 138.81 C 136.35 139.98 137.24 140.99 138.40 141.06 Z M 139.21 141.09 L 140.21 141.25 C 141.36 141.43 142.44 140.65 142.63 139.49 C 142.81 138.34 142.02 137.26 140.87 137.08 L 139.87 136.92 C 138.72 136.74 137.64 137.53 137.46 138.68 C 137.28 139.83 138.06 140.91 139.21 141.09 Z M 140.02 141.21 L 140.99 141.45 C 142.12 141.74 143.27 141.06 143.55 139.93 C 143.84 138.80 143.15 137.65 142.03 137.37 L 141.06 137.12 C 139.93 136.83 138.78 137.52 138.50 138.65 C 138.21 139.78 138.89 140.92 140.02 141.21 Z M 140.79 141.39 L 141.75 141.73 C 142.84 142.13 144.04 141.56 144.44 140.47 C 144.83 139.38 144.27 138.17 143.18 137.78 L 142.22 137.43 C 141.13 137.04 139.92 137.60 139.53 138.69 C 139.13 139.79 139.70 140.99 140.79 141.39 Z M 141.55 141.65 L 142.44 142.07 C 143.48 142.57 144.74 142.13 145.24 141.09 C 145.74 140.04 145.30 138.79 144.25 138.29 L 143.37 137.86 C 142.32 137.36 141.07 137.80 140.57 138.85 C 140.07 139.89 140.51 141.14 141.55 141.65 Z M 142.30 141.97 L 143.16 142.48 C 144.15 143.06 145.42 142.72 146.00 141.73 C 146.58 140.74 146.25 139.47 145.26 138.89 L 144.39 138.38 C 143.40 137.80 142.13 138.14 141.55 139.13 C 140.97 140.12 141.30 141.40 142.30 141.97 Z M 143.04 142.37 L 143.86 142.94 C 144.79 143.58 146.07 143.35 146.72 142.42 C 147.36 141.49 147.13 140.21 146.20 139.57 L 145.38 139.00 C 144.45 138.35 143.17 138.58 142.52 139.51 C 141.88 140.44 142.11 141.72 143.04 142.37 Z M 143.75 142.82 L 144.52 143.45 C 145.39 144.16 146.66 144.03 147.37 143.17 C 148.08 142.30 147.95 141.03 147.09 140.32 L 146.31 139.69 C 145.45 138.98 144.17 139.11 143.46 139.97 C 142.76 140.84 142.88 142.11 143.75 142.82 Z M 144.43 143.34 L 145.15 144.03 C 145.95 144.79 147.22 144.75 147.98 143.95 C 148.74 143.15 148.71 141.88 147.90 141.12 L 147.18 140.43 C 146.38 139.67 145.11 139.71 144.35 140.51 C 143.59 141.31 143.62 142.58 144.43 143.34 Z M 145.06 143.92 L 145.73 144.66 C 146.48 145.47 147.74 145.52 148.55 144.78 C 149.36 144.03 149.42 142.77 148.67 141.96 L 148.00 141.22 C 147.25 140.41 145.99 140.36 145.18 141.10 C 144.37 141.85 144.31 143.11 145.06 143.92 Z M 145.64 144.54 L 146.25 145.32 C 146.93 146.18 148.18 146.33 149.05 145.65 C 149.91 144.97 150.06 143.72 149.38 142.85 L 148.77 142.07 C 148.09 141.21 146.83 141.06 145.97 141.74 C 145.10 142.42 144.96 143.68 145.64 144.54 Z M 146.18 145.22 L 146.75 146.04 C 147.37 146.94 148.62 147.17 149.52 146.54 C 150.42 145.91 150.65 144.67 150.02 143.77 L 149.45 142.95 C 148.83 142.04 147.58 141.82 146.68 142.45 C 145.77 143.07 145.55 144.32 146.18 145.22 Z M 146.71 146.00 L 147.27 146.85 C 147.88 147.77 149.11 148.03 150.04 147.42 C 150.96 146.82 151.22 145.58 150.61 144.66 L 150.05 143.81 C 149.45 142.89 148.21 142.63 147.29 143.23 C 146.37 143.84 146.11 145.08 146.71 146.00 Z M 147.24 146.80 L 147.76 147.66 C 148.34 148.61 149.58 148.90 150.52 148.32 C 151.46 147.74 151.76 146.51 151.18 145.57 L 150.65 144.71 C 150.07 143.76 148.83 143.47 147.89 144.05 C 146.95 144.63 146.66 145.86 147.24 146.80 Z M 147.69 147.54 L 148.15 148.43 C 148.66 149.42 149.88 149.80 150.86 149.29 C 151.85 148.78 152.23 147.57 151.72 146.58 L 151.26 145.69 C 150.74 144.70 149.53 144.32 148.54 144.83 C 147.56 145.34 147.17 146.56 147.69 147.54 Z M 148.06 148.27 L 148.44 149.19 C 148.86 150.22 150.03 150.72 151.07 150.30 C 152.10 149.88 152.60 148.70 152.18 147.67 L 151.80 146.75 C 151.39 145.72 150.21 145.22 149.18 145.64 C 148.14 146.06 147.64 147.23 148.06 148.27 Z M 148.39 149.07 L 148.70 150.01 C 149.06 151.07 150.21 151.64 151.27 151.28 C 152.33 150.92 152.90 149.77 152.54 148.71 L 152.23 147.78 C 151.87 146.72 150.72 146.15 149.66 146.51 C 148.60 146.87 148.03 148.02 148.39 149.07 Z M 148.68 149.93 L 148.96 150.89 C 149.27 151.96 150.40 152.58 151.47 152.27 C 152.55 151.95 153.16 150.83 152.85 149.75 L 152.57 148.79 C 152.25 147.72 151.13 147.10 150.05 147.41 C 148.98 147.73 148.36 148.86 148.68 149.93 Z M 148.93 150.80 L 149.17 151.77 C 149.44 152.86 150.53 153.53 151.62 153.26 C 152.71 152.99 153.38 151.90 153.11 150.81 L 152.87 149.84 C 152.61 148.75 151.51 148.08 150.42 148.35 C 149.33 148.62 148.67 149.71 148.93 150.80 Z M 149.15 151.68 L 149.34 152.66 C 149.55 153.76 150.62 154.48 151.72 154.27 C 152.82 154.05 153.54 152.99 153.32 151.89 L 153.13 150.90 C 152.92 149.80 151.86 149.08 150.75 149.30 C 149.65 149.51 148.93 150.58 149.15 151.68 Z M 149.32 152.56 L 149.46 153.55 C 149.62 154.66 150.64 155.43 151.75 155.28 C 152.86 155.12 153.64 154.09 153.48 152.98 L 153.34 151.99 C 153.19 150.88 152.16 150.11 151.05 150.27 C 149.94 150.42 149.17 151.45 149.32 152.56 Z M 149.45 153.45 L 149.54 154.45 C 149.65 155.57 150.64 156.39 151.75 156.28 C 152.87 156.18 153.69 155.19 153.58 154.08 L 153.49 153.08 C 153.39 151.96 152.40 151.14 151.28 151.25 C 150.17 151.35 149.35 152.34 149.45 153.45 Z M 149.54 154.37 L 149.59 155.36 C 149.66 156.47 150.61 157.33 151.73 157.27 C 152.84 157.21 153.70 156.25 153.64 155.13 L 153.59 154.15 C 153.52 153.04 152.57 152.18 151.45 152.24 C 150.34 152.30 149.48 153.26 149.54 154.37 Z M 149.59 155.30 L 149.62 156.30 C 149.65 157.42 150.58 158.30 151.70 158.27 C 152.81 158.24 153.70 157.31 153.67 156.20 L 153.64 155.19 C 153.61 154.07 152.68 153.19 151.56 153.22 C 150.45 153.25 149.57 154.18 149.59 155.30 Z M 149.63 156.27 L 149.64 157.28 C 149.65 158.39 150.56 159.28 151.67 159.27 C 152.79 159.26 153.68 158.35 153.67 157.24 L 153.65 156.23 C 153.64 155.12 152.73 154.23 151.62 154.24 C 150.51 154.25 149.62 155.16 149.63 156.27 Z M 149.67 157.26 L 149.67 158.27 C 149.67 159.37 150.56 160.26 151.66 160.26 C 152.76 160.25 153.65 159.36 153.64 158.26 L 153.64 157.25 C 153.64 156.15 152.75 155.27 151.65 155.27 C 150.55 155.27 149.66 156.16 149.67 157.26 Z M 149.69 158.27 L 149.69 159.28 C 149.69 160.36 150.57 161.24 151.66 161.24 C 152.74 161.24 153.62 160.36 153.62 159.28 L 153.62 158.27 C 153.62 157.18 152.74 156.30 151.66 156.30 C 150.57 156.30 149.69 157.18 149.69 158.27 Z M 149.71 159.26 L 149.70 160.25 C 149.69 161.33 150.56 162.21 151.63 162.22 C 152.71 162.22 153.59 161.36 153.59 160.28 L 153.60 159.29 C 153.61 158.22 152.75 157.34 151.67 157.33 C 150.60 157.32 149.72 158.18 149.71 159.26 Z M 149.71 160.21 L 149.68 161.19 C 149.65 162.26 150.49 163.16 151.56 163.19 C 152.63 163.22 153.52 162.38 153.55 161.31 L 153.58 160.33 C 153.62 159.26 152.78 158.37 151.71 158.33 C 150.64 158.30 149.75 159.14 149.71 160.21 Z M 149.69 161.11 L 149.61 162.11 C 149.53 163.17 150.33 164.10 151.40 164.18 C 152.47 164.26 153.39 163.46 153.47 162.39 L 153.55 161.40 C 153.63 160.33 152.83 159.40 151.76 159.32 C 150.69 159.24 149.77 160.04 149.69 161.11 Z M 149.62 161.97 L 149.48 162.97 C 149.33 164.03 150.06 165.01 151.12 165.16 C 152.18 165.32 153.17 164.58 153.32 163.52 L 153.46 162.53 C 153.61 161.47 152.88 160.48 151.82 160.33 C 150.76 160.18 149.78 160.91 149.62 161.97 Z M 149.50 162.83 L 149.29 163.81 C 149.07 164.86 149.73 165.89 150.78 166.12 C 151.83 166.34 152.86 165.68 153.08 164.63 L 153.30 163.65 C 153.52 162.61 152.86 161.57 151.81 161.35 C 150.76 161.12 149.73 161.79 149.50 162.83 Z M 149.31 163.74 L 149.06 164.71 C 148.79 165.75 149.42 166.80 150.45 167.07 C 151.49 167.34 152.55 166.71 152.81 165.68 L 153.06 164.70 C 153.33 163.67 152.71 162.61 151.67 162.34 C 150.64 162.08 149.58 162.70 149.31 163.74 Z M 149.08 164.68 L 148.81 165.65 C 148.53 166.67 149.13 167.73 150.15 168.02 C 151.18 168.30 152.24 167.70 152.52 166.68 L 152.79 165.71 C 153.08 164.68 152.48 163.62 151.45 163.34 C 150.43 163.05 149.37 163.65 149.08 164.68 Z M 148.84 165.62 L 148.56 166.57 C 148.25 167.58 148.83 168.64 149.84 168.94 C 150.85 169.25 151.91 168.67 152.21 167.66 L 152.50 166.71 C 152.80 165.70 152.22 164.63 151.21 164.33 C 150.20 164.03 149.14 164.61 148.84 165.62 Z M 148.58 166.54 L 148.28 167.49 C 147.96 168.48 148.51 169.55 149.50 169.87 C 150.50 170.19 151.56 169.64 151.88 168.64 L 152.19 167.69 C 152.51 166.70 151.96 165.63 150.96 165.31 C 149.97 164.99 148.90 165.54 148.58 166.54 Z M 148.30 167.47 L 147.98 168.42 C 147.65 169.40 148.18 170.47 149.17 170.80 C 150.15 171.12 151.21 170.59 151.54 169.61 L 151.86 168.66 C 152.19 167.68 151.66 166.61 150.68 166.28 C 149.69 165.96 148.63 166.49 148.30 167.47 Z M 148.00 168.41 L 147.66 169.39 C 147.33 170.36 147.85 171.42 148.83 171.76 C 149.80 172.09 150.86 171.57 151.20 170.59 L 151.53 169.62 C 151.86 168.64 151.34 167.58 150.37 167.25 C 149.39 166.92 148.33 167.44 148.00 168.41 Z M 147.68 169.37 L 147.35 170.30 C 147.01 171.27 147.52 172.33 148.49 172.67 C 149.46 173.01 150.52 172.50 150.86 171.53 L 151.19 170.60 C 151.53 169.64 151.02 168.57 150.05 168.23 C 149.08 167.89 148.02 168.40 147.68 169.37 Z M 147.37 170.26 L 147.03 171.17 C 146.67 172.13 147.15 173.20 148.11 173.56 C 149.07 173.92 150.14 173.43 150.50 172.48 L 150.84 171.57 C 151.20 170.61 150.71 169.54 149.76 169.18 C 148.80 168.82 147.73 169.31 147.37 170.26 Z M 147.08 171.08 L 146.67 172.01 C 146.26 172.94 146.68 174.03 147.61 174.44 C 148.54 174.85 149.63 174.42 150.04 173.49 L 150.45 172.57 C 150.86 171.63 150.44 170.55 149.51 170.13 C 148.57 169.72 147.49 170.15 147.08 171.08 Z M 146.72 171.92 L 146.27 172.81 C 145.81 173.71 146.17 174.81 147.07 175.27 C 147.97 175.73 149.08 175.37 149.54 174.47 L 149.99 173.58 C 150.45 172.68 150.09 171.57 149.19 171.11 C 148.28 170.65 147.18 171.01 146.72 171.92 Z M 146.31 172.74 L 145.81 173.64 C 145.32 174.51 145.63 175.63 146.51 176.12 C 147.38 176.61 148.50 176.30 148.99 175.43 L 149.49 174.53 C 149.99 173.66 149.67 172.54 148.80 172.05 C 147.92 171.56 146.81 171.87 146.31 172.74 Z M 145.88 173.54 L 145.30 174.43 C 144.76 175.27 145.00 176.40 145.84 176.94 C 146.68 177.49 147.81 177.25 148.35 176.40 L 148.92 175.52 C 149.47 174.68 149.23 173.55 148.39 173.01 C 147.54 172.46 146.42 172.70 145.88 173.54 Z M 145.50 174.18 L 144.86 174.87 C 144.18 175.60 144.22 176.75 144.95 177.43 C 145.68 178.11 146.82 178.07 147.51 177.34 L 148.15 176.65 C 148.83 175.92 148.79 174.78 148.06 174.09 C 147.33 173.41 146.19 173.45 145.50 174.18 Z M 145.31 174.53 L 144.46 174.99 C 143.59 175.48 143.27 176.58 143.76 177.45 C 144.24 178.32 145.34 178.64 146.21 178.15 L 147.06 177.68 C 147.93 177.20 148.25 176.10 147.76 175.23 C 147.28 174.36 146.18 174.04 145.31 174.53 Z M 144.73 174.88 L 143.99 175.14 C 143.06 175.47 142.57 176.50 142.90 177.44 C 143.23 178.38 144.26 178.87 145.20 178.54 L 145.94 178.27 C 146.88 177.94 147.37 176.91 147.04 175.97 C 146.70 175.03 145.67 174.54 144.73 174.88 Z"
      fill="black"
      fill-rule="nonzero" /><path d="M 130.27 130.87 L 129.99 131.77 C 129.65 132.86 130.26 134.02 131.35 134.36 C 132.44 134.70 133.60 134.10 133.94 133.01 L 134.22 132.11 C 134.56 131.02 133.96 129.86 132.87 129.52 C 131.78 129.18 130.61 129.78 130.27 130.87 Z M 129.79 131.98 L 129.60 133.00 C 129.37 134.20 130.17 135.36 131.37 135.58 C 132.58 135.81 133.74 135.01 133.96 133.81 L 134.15 132.79 C 134.37 131.59 133.57 130.43 132.37 130.21 C 131.17 129.99 130.01 130.78 129.79 131.98 Z M 129.47 133.34 L 129.44 134.34 C 129.41 135.61 130.41 136.67 131.69 136.71 C 132.96 136.74 134.02 135.74 134.06 134.47 L 134.08 133.47 C 134.12 132.19 133.12 131.13 131.84 131.10 C 130.57 131.06 129.51 132.07 129.47 133.34 Z M 129.43 134.53 L 129.49 135.56 C 129.56 136.84 130.66 137.82 131.94 137.75 C 133.22 137.68 134.20 136.58 134.13 135.30 L 134.07 134.27 C 134.00 132.99 132.90 132.01 131.62 132.08 C 130.34 132.16 129.36 133.25 129.43 134.53 Z M 129.49 135.63 L 129.58 136.63 C 129.69 137.91 130.81 138.86 132.09 138.75 C 133.37 138.64 134.32 137.51 134.21 136.23 L 134.13 135.23 C 134.02 133.95 132.89 133.00 131.61 133.11 C 130.33 133.22 129.38 134.35 129.49 135.63 Z M 129.57 136.61 L 129.65 137.67 C 129.76 138.95 130.88 139.91 132.16 139.81 C 133.44 139.71 134.40 138.59 134.30 137.31 L 134.21 136.25 C 134.11 134.96 132.99 134.01 131.71 134.11 C 130.43 134.21 129.47 135.33 129.57 136.61 Z M 129.65 137.64 L 129.72 138.59 C 129.80 139.87 130.91 140.84 132.19 140.76 C 133.48 140.67 134.45 139.56 134.36 138.28 L 134.30 137.33 C 134.21 136.05 133.10 135.08 131.82 135.16 C 130.54 135.25 129.57 136.36 129.65 137.64 Z M 129.72 138.58 L 129.78 139.55 C 129.87 140.83 130.97 141.80 132.25 141.71 C 133.54 141.63 134.51 140.52 134.42 139.24 L 134.36 138.28 C 134.28 137.00 133.17 136.03 131.89 136.11 C 130.61 136.20 129.63 137.30 129.72 138.58 Z M 129.79 139.54 L 129.85 140.55 C 129.94 141.82 131.04 142.79 132.32 142.71 C 133.59 142.63 134.56 141.53 134.48 140.25 L 134.42 139.24 C 134.33 137.97 133.23 137.00 131.95 137.08 C 130.68 137.16 129.71 138.26 129.79 139.54 Z M 129.86 140.53 L 129.92 141.52 C 129.99 142.79 131.09 143.76 132.36 143.69 C 133.63 143.61 134.61 142.52 134.53 141.25 L 134.47 140.26 C 134.40 138.99 133.31 138.02 132.03 138.09 C 130.76 138.16 129.79 139.26 129.86 140.53 Z M 129.93 141.50 L 129.98 142.49 C 130.04 143.76 131.12 144.74 132.39 144.68 C 133.66 144.61 134.64 143.53 134.57 142.26 L 134.52 141.27 C 134.46 140.00 133.38 139.02 132.11 139.08 C 130.84 139.15 129.86 140.23 129.93 141.50 Z M 129.98 142.47 L 130.02 143.50 C 130.08 144.76 131.15 145.74 132.41 145.69 C 133.68 145.64 134.66 144.57 134.61 143.31 L 134.57 142.28 C 134.51 141.02 133.45 140.03 132.18 140.08 C 130.91 140.14 129.93 141.21 129.98 142.47 Z M 130.03 143.47 L 130.06 144.45 C 130.10 145.71 131.16 146.71 132.42 146.66 C 133.68 146.62 134.67 145.57 134.63 144.31 L 134.60 143.33 C 134.56 142.07 133.51 141.07 132.24 141.11 C 130.98 141.15 129.99 142.21 130.03 143.47 Z M 130.07 144.43 L 130.09 145.44 C 130.12 146.70 131.16 147.70 132.42 147.67 C 133.68 147.64 134.68 146.60 134.65 145.34 L 134.63 144.33 C 134.60 143.07 133.56 142.07 132.30 142.10 C 131.04 142.13 130.04 143.17 130.07 144.43 Z M 130.10 145.42 L 130.11 146.43 C 130.13 147.68 131.16 148.69 132.41 148.67 C 133.67 148.65 134.67 147.62 134.65 146.37 L 134.64 145.36 C 134.63 144.11 133.60 143.10 132.34 143.12 C 131.09 143.14 130.08 144.17 130.10 145.42 Z M 130.12 146.41 L 130.13 147.41 C 130.13 148.66 131.15 149.67 132.40 149.66 C 133.65 149.65 134.66 148.63 134.65 147.38 L 134.65 146.39 C 134.64 145.14 133.62 144.13 132.37 144.14 C 131.12 144.14 130.11 145.16 130.12 146.41 Z M 130.13 147.40 L 130.14 148.41 C 130.14 149.65 131.15 150.66 132.39 150.66 C 133.64 150.66 134.65 149.65 134.65 148.40 L 134.64 147.39 C 134.64 146.15 133.63 145.14 132.39 145.14 C 131.14 145.14 130.13 146.15 130.13 147.40 Z M 130.15 148.40 L 130.15 149.40 C 130.15 150.64 131.15 151.64 132.39 151.64 C 133.63 151.64 134.63 150.64 134.63 149.40 L 134.63 148.40 C 134.63 147.17 133.63 146.16 132.39 146.16 C 131.15 146.16 130.15 147.17 130.15 148.40 Z M 130.17 149.40 L 130.17 150.39 C 130.17 151.62 131.16 152.61 132.39 152.61 C 133.62 152.61 134.61 151.62 134.61 150.39 L 134.61 149.40 C 134.61 148.17 133.62 147.18 132.39 147.18 C 131.16 147.18 130.17 148.17 130.17 149.40 Z M 130.19 150.39 L 130.19 151.40 C 130.19 152.62 131.18 153.60 132.39 153.60 C 133.61 153.60 134.59 152.62 134.59 151.40 L 134.59 150.39 C 134.59 149.18 133.61 148.19 132.39 148.19 C 131.18 148.19 130.19 149.18 130.19 150.39 Z M 130.22 151.40 L 130.22 152.42 C 130.22 153.62 131.19 154.59 132.39 154.59 C 133.59 154.59 134.57 153.62 134.57 152.42 L 134.57 151.40 C 134.57 150.20 133.59 149.23 132.39 149.23 C 131.19 149.23 130.22 150.20 130.22 151.40 Z M 130.25 152.42 L 130.25 153.43 C 130.25 154.62 131.21 155.58 132.39 155.58 C 133.58 155.58 134.54 154.62 134.54 153.43 L 134.54 152.42 C 134.54 151.23 133.58 150.27 132.39 150.27 C 131.21 150.27 130.25 151.23 130.25 152.42 Z M 130.28 153.43 L 130.28 154.42 C 130.28 155.59 131.22 156.54 132.39 156.54 C 133.56 156.54 134.51 155.59 134.51 154.42 L 134.51 153.43 C 134.51 152.27 133.56 151.32 132.39 151.32 C 131.22 151.32 130.28 152.27 130.28 153.43 Z M 130.30 154.42 L 130.30 155.46 C 130.30 156.61 131.24 157.54 132.39 157.54 C 133.54 157.54 134.48 156.61 134.48 155.46 L 134.48 154.42 C 134.48 153.27 133.54 152.34 132.39 152.34 C 131.24 152.34 130.30 153.27 130.30 154.42 Z M 130.33 155.46 L 130.33 156.46 C 130.33 157.60 131.25 158.52 132.39 158.52 C 133.53 158.52 134.45 157.60 134.45 156.46 L 134.45 155.46 C 134.45 154.32 133.53 153.39 132.39 153.39 C 131.25 153.39 130.33 154.32 130.33 155.46 Z M 130.35 156.46 L 130.35 157.40 C 130.35 158.53 131.26 159.44 132.39 159.44 C 133.52 159.44 134.43 158.53 134.43 157.40 L 134.43 156.46 C 134.43 155.33 133.52 154.42 132.39 154.42 C 131.26 154.42 130.35 155.33 130.35 156.46 Z M 130.38 157.40 L 130.38 158.36 C 130.38 159.47 131.28 160.37 132.39 160.37 C 133.50 160.37 134.41 159.47 134.41 158.36 L 134.41 157.40 C 134.41 156.29 133.50 155.39 132.39 155.39 C 131.28 155.39 130.38 156.29 130.38 157.40 Z M 130.40 158.36 L 130.40 159.37 C 130.40 160.47 131.29 161.36 132.39 161.36 C 133.49 161.36 134.38 160.47 134.38 159.37 L 134.38 158.36 C 134.38 157.26 133.49 156.37 132.39 156.37 C 131.29 156.37 130.40 157.26 130.40 158.36 Z M 130.42 159.37 L 130.42 160.40 C 130.42 161.49 131.30 162.37 132.39 162.37 C 133.48 162.37 134.36 161.49 134.36 160.40 L 134.36 159.37 C 134.36 158.28 133.48 157.40 132.39 157.40 C 131.30 157.40 130.42 158.28 130.42 159.37 Z M 130.45 160.40 L 130.45 161.44 C 130.45 162.51 131.32 163.38 132.39 163.38 C 133.46 163.38 134.33 162.51 134.33 161.44 L 134.33 160.40 C 134.33 159.33 133.46 158.46 132.39 158.46 C 131.32 158.46 130.45 159.33 130.45 160.40 Z M 130.47 161.44 L 130.47 162.43 C 130.47 163.49 131.33 164.35 132.39 164.35 C 133.45 164.35 134.31 163.49 134.31 162.43 L 134.31 161.44 C 134.31 160.38 133.45 159.52 132.39 159.52 C 131.33 159.52 130.47 160.38 130.47 161.44 Z M 130.50 162.43 L 130.50 163.50 C 130.50 164.55 131.35 165.39 132.39 165.39 C 133.43 165.39 134.28 164.55 134.28 163.50 L 134.28 162.43 C 134.28 161.39 133.43 160.54 132.39 160.54 C 131.35 160.54 130.50 161.39 130.50 162.43 Z M 130.54 163.50 L 130.54 164.45 C 130.54 165.47 131.37 166.30 132.39 166.30 C 133.41 166.30 134.24 165.47 134.24 164.45 L 134.24 163.50 C 134.24 162.48 133.41 161.66 132.39 161.66 C 131.37 161.66 130.54 162.48 130.54 163.50 Z M 130.57 164.45 L 130.57 164.78 C 130.57 165.78 131.39 166.60 132.39 166.60 C 133.40 166.60 134.21 165.78 134.21 164.78 L 134.21 164.45 C 134.21 163.45 133.40 162.63 132.39 162.63 C 131.39 162.63 130.57 163.45 130.57 164.45 Z"
      fill="black"
      fill-rule="nonzero" /><path d="M 140.97 135.63 L 141.34 136.49 C 141.81 137.58 143.07 138.08 144.15 137.62 C 145.24 137.15 145.75 135.89 145.28 134.80 L 144.91 133.94 C 144.45 132.85 143.19 132.35 142.10 132.81 C 141.01 133.28 140.51 134.54 140.97 135.63 Z M 141.17 136.19 L 141.43 137.21 C 141.73 138.39 142.93 139.11 144.12 138.80 C 145.30 138.50 146.01 137.30 145.71 136.12 L 145.45 135.10 C 145.15 133.92 143.95 133.21 142.77 133.51 C 141.58 133.81 140.87 135.01 141.17 136.19 Z M 141.37 136.86 L 141.46 137.85 C 141.57 139.07 142.64 139.96 143.86 139.86 C 145.07 139.75 145.97 138.67 145.86 137.46 L 145.77 136.47 C 145.66 135.25 144.59 134.36 143.37 134.47 C 142.16 134.58 141.26 135.65 141.37 136.86 Z M 141.52 137.70 L 141.54 138.72 C 141.56 139.91 142.54 140.85 143.72 140.82 C 144.91 140.80 145.85 139.82 145.82 138.64 L 145.80 137.61 C 145.78 136.43 144.80 135.49 143.62 135.51 C 142.43 135.54 141.49 136.52 141.52 137.70 Z M 141.60 138.68 L 141.60 139.73 C 141.60 140.88 142.53 141.81 143.68 141.81 C 144.83 141.81 145.76 140.88 145.76 139.73 L 145.76 138.68 C 145.76 137.53 144.83 136.60 143.68 136.60 C 142.53 136.60 141.60 137.53 141.60 138.68 Z M 141.66 139.73 L 141.66 140.69 C 141.66 141.80 142.56 142.71 143.68 142.71 C 144.80 142.71 145.70 141.80 145.70 140.69 L 145.70 139.73 C 145.70 138.61 144.80 137.71 143.68 137.71 C 142.56 137.71 141.66 138.61 141.66 139.73 Z M 141.70 140.69 L 141.70 141.65 C 141.70 142.74 142.59 143.62 143.68 143.62 C 144.77 143.62 145.66 142.74 145.66 141.65 L 145.66 140.69 C 145.66 139.60 144.77 138.71 143.68 138.71 C 142.59 138.71 141.70 139.59 141.70 140.69 Z M 141.72 141.63 L 141.72 142.64 C 141.71 143.72 142.57 144.61 143.65 144.62 C 144.73 144.62 145.62 143.76 145.63 142.68 L 145.63 141.66 C 145.64 140.58 144.78 139.70 143.70 139.69 C 142.62 139.68 141.73 140.55 141.72 141.63 Z M 141.73 142.61 L 141.70 143.59 C 141.67 144.67 142.52 145.56 143.59 145.59 C 144.67 145.62 145.56 144.77 145.59 143.70 L 145.62 142.71 C 145.64 141.64 144.80 140.74 143.72 140.72 C 142.65 140.69 141.75 141.53 141.73 142.61 Z M 141.70 143.53 L 141.64 144.54 C 141.57 145.61 142.39 146.53 143.46 146.60 C 144.53 146.66 145.46 145.85 145.52 144.78 L 145.58 143.76 C 145.65 142.69 144.84 141.77 143.76 141.70 C 142.69 141.64 141.77 142.45 141.70 143.53 Z M 141.65 144.45 L 141.54 145.43 C 141.42 146.49 142.19 147.46 143.26 147.57 C 144.33 147.69 145.29 146.92 145.41 145.85 L 145.51 144.87 C 145.63 143.80 144.86 142.84 143.79 142.72 C 142.73 142.61 141.77 143.38 141.65 144.45 Z M 141.55 145.35 L 141.40 146.35 C 141.24 147.41 141.97 148.40 143.03 148.56 C 144.10 148.72 145.09 147.99 145.25 146.93 L 145.40 145.93 C 145.56 144.87 144.83 143.88 143.76 143.72 C 142.70 143.56 141.71 144.29 141.55 145.35 Z M 141.41 146.29 L 141.23 147.27 C 141.04 148.33 141.75 149.34 142.80 149.53 C 143.86 149.72 144.87 149.01 145.06 147.96 L 145.24 146.98 C 145.43 145.92 144.72 144.91 143.67 144.72 C 142.61 144.53 141.60 145.23 141.41 146.29 Z M 141.24 147.24 L 141.04 148.22 C 140.84 149.27 141.52 150.30 142.58 150.50 C 143.63 150.71 144.66 150.02 144.87 148.97 L 145.06 147.99 C 145.27 146.93 144.58 145.91 143.52 145.70 C 142.47 145.50 141.45 146.18 141.24 147.24 Z M 141.05 148.20 L 140.84 149.20 C 140.63 150.25 141.30 151.28 142.36 151.50 C 143.41 151.72 144.44 151.04 144.66 149.98 L 144.86 148.98 C 145.08 147.93 144.40 146.90 143.35 146.68 C 142.29 146.47 141.26 147.15 141.05 148.20 Z M 140.84 149.19 L 140.63 150.18 C 140.41 151.23 141.09 152.27 142.14 152.49 C 143.20 152.71 144.23 152.04 144.45 150.98 L 144.66 149.99 C 144.88 148.94 144.21 147.90 143.15 147.68 C 142.10 147.46 141.06 148.14 140.84 149.19 Z M 140.63 150.16 L 140.42 151.13 C 140.19 152.19 140.86 153.23 141.91 153.46 C 142.96 153.69 144.01 153.03 144.24 151.97 L 144.45 151.00 C 144.68 149.95 144.02 148.90 142.96 148.67 C 141.91 148.44 140.87 149.11 140.63 150.16 Z M 140.42 151.10 L 140.19 152.10 C 139.94 153.15 140.59 154.21 141.64 154.45 C 142.69 154.70 143.75 154.05 144.00 153.00 L 144.24 152.00 C 144.48 150.95 143.83 149.90 142.78 149.65 C 141.73 149.40 140.67 150.05 140.42 151.10 Z M 140.19 152.06 L 139.95 153.01 C 139.68 154.06 140.31 155.13 141.36 155.40 C 142.41 155.68 143.48 155.04 143.75 153.99 L 143.99 153.04 C 144.27 151.99 143.63 150.92 142.58 150.65 C 141.53 150.38 140.46 151.01 140.19 152.06 Z M 139.95 152.97 L 139.68 153.94 C 139.39 154.99 140.00 156.08 141.05 156.37 C 142.10 156.66 143.18 156.05 143.47 155.00 L 143.74 154.03 C 144.04 152.99 143.42 151.90 142.38 151.61 C 141.33 151.31 140.24 151.93 139.95 152.97 Z M 139.68 153.92 L 139.40 154.88 C 139.10 155.93 139.70 157.03 140.75 157.33 C 141.80 157.63 142.89 157.03 143.20 155.98 L 143.48 155.02 C 143.78 153.97 143.18 152.88 142.13 152.57 C 141.08 152.27 139.98 152.87 139.68 153.92 Z M 139.39 154.89 L 139.13 155.80 C 138.83 156.86 139.45 157.96 140.50 158.26 C 141.56 158.55 142.66 157.94 142.95 156.88 L 143.21 155.97 C 143.51 154.91 142.89 153.82 141.84 153.52 C 140.78 153.22 139.69 153.83 139.39 154.89 Z M 139.12 155.81 L 138.85 156.76 C 138.56 157.82 139.18 158.92 140.24 159.22 C 141.31 159.51 142.41 158.89 142.70 157.83 L 142.97 156.88 C 143.26 155.82 142.64 154.72 141.58 154.42 C 140.51 154.12 139.41 154.75 139.12 155.81 Z M 138.85 156.73 L 138.57 157.69 C 138.26 158.76 138.87 159.87 139.93 160.18 C 141.00 160.49 142.11 159.88 142.42 158.82 L 142.70 157.86 C 143.02 156.79 142.41 155.68 141.34 155.37 C 140.28 155.05 139.16 155.66 138.85 156.73 Z M 138.57 157.68 L 138.28 158.65 C 137.97 159.71 138.57 160.83 139.64 161.15 C 140.71 161.46 141.83 160.85 142.14 159.79 L 142.43 158.83 C 142.74 157.76 142.13 156.64 141.07 156.32 C 140.00 156.01 138.88 156.62 138.57 157.68 Z M 138.27 158.68 L 137.99 159.68 C 137.69 160.76 138.33 161.87 139.40 162.16 C 140.47 162.46 141.59 161.83 141.88 160.75 L 142.16 159.75 C 142.45 158.68 141.82 157.57 140.75 157.27 C 139.67 156.98 138.56 157.61 138.27 158.68 Z M 137.96 159.79 L 137.71 160.94 C 137.48 162.03 138.17 163.10 139.26 163.34 C 140.36 163.57 141.43 162.88 141.67 161.79 L 141.91 160.64 C 142.15 159.55 141.45 158.48 140.36 158.24 C 139.27 158.01 138.20 158.70 137.96 159.79 Z M 137.67 161.34 L 137.66 162.25 C 137.65 163.36 138.55 164.28 139.66 164.29 C 140.78 164.30 141.69 163.40 141.70 162.28 L 141.71 161.38 C 141.72 160.26 140.82 159.35 139.71 159.34 C 138.59 159.33 137.68 160.23 137.67 161.34 Z M 138.39 163.80 L 138.98 164.29 C 139.83 165.01 141.09 164.90 141.80 164.05 C 142.52 163.20 142.41 161.94 141.56 161.23 L 140.97 160.73 C 140.13 160.02 138.86 160.13 138.15 160.97 C 137.44 161.82 137.54 163.09 138.39 163.80 Z M 140.50 164.70 L 141.55 164.58 C 142.62 164.45 143.39 163.47 143.26 162.40 C 143.13 161.33 142.15 160.56 141.08 160.69 L 140.04 160.82 C 138.96 160.95 138.20 161.92 138.33 162.99 C 138.45 164.07 139.43 164.83 140.50 164.70 Z M 141.96 164.43 L 142.88 164.10 C 143.88 163.74 144.39 162.65 144.03 161.66 C 143.68 160.66 142.58 160.15 141.59 160.51 L 140.67 160.84 C 139.68 161.19 139.16 162.29 139.52 163.28 C 139.87 164.27 140.97 164.79 141.96 164.43 Z M 143.04 163.99 L 143.95 163.56 C 144.88 163.11 145.28 162.00 144.84 161.06 C 144.39 160.13 143.28 159.74 142.35 160.18 L 141.43 160.62 C 140.50 161.06 140.11 162.17 140.55 163.11 C 140.99 164.04 142.11 164.43 143.04 163.99 Z M 144.02 163.49 L 144.89 163.02 C 145.79 162.54 146.12 161.42 145.64 160.53 C 145.16 159.63 144.04 159.30 143.15 159.78 L 142.28 160.25 C 141.38 160.73 141.04 161.84 141.53 162.74 C 142.01 163.64 143.13 163.97 144.02 163.49 Z M 144.94 162.98 L 145.83 162.46 C 146.70 161.95 146.99 160.83 146.48 159.96 C 145.97 159.09 144.85 158.80 143.98 159.31 L 143.09 159.83 C 142.22 160.33 141.93 161.45 142.44 162.32 C 142.95 163.19 144.07 163.49 144.94 162.98 Z M 145.86 162.42 L 146.70 161.90 C 147.55 161.37 147.81 160.25 147.28 159.40 C 146.76 158.55 145.64 158.29 144.79 158.82 L 143.95 159.34 C 143.10 159.87 142.83 160.99 143.36 161.84 C 143.89 162.69 145.01 162.95 145.86 162.42 Z M 146.72 161.88 L 147.57 161.33 C 148.41 160.79 148.66 159.68 148.12 158.84 C 147.58 158.00 146.46 157.75 145.62 158.29 L 144.77 158.84 C 143.93 159.38 143.69 160.49 144.22 161.33 C 144.76 162.17 145.88 162.42 146.72 161.88 Z M 147.57 161.32 L 147.75 161.21 C 148.59 160.67 148.83 159.55 148.29 158.72 C 147.75 157.88 146.64 157.64 145.80 158.18 L 145.62 158.30 C 144.78 158.84 144.54 159.95 145.08 160.79 C 145.62 161.62 146.74 161.86 147.57 161.32 Z"
      fill="black"
      fill-rule="nonzero" /><path d="M 132.93 171.02 L 133.94 170.92 C 135.10 170.80 135.94 169.77 135.82 168.61 C 135.70 167.46 134.67 166.61 133.51 166.73 L 132.50 166.84 C 131.34 166.95 130.50 167.99 130.62 169.14 C 130.74 170.30 131.77 171.14 132.93 171.02 Z M 133.91 171.05 L 134.90 170.96 C 136.12 170.86 137.03 169.78 136.93 168.56 C 136.82 167.33 135.75 166.42 134.52 166.52 L 133.54 166.61 C 132.31 166.71 131.40 167.79 131.51 169.01 C 131.61 170.24 132.69 171.15 133.91 171.05 Z M 134.83 170.97 L 135.82 170.91 C 137.05 170.85 137.99 169.80 137.92 168.57 C 137.86 167.34 136.81 166.40 135.58 166.47 L 134.59 166.52 C 133.36 166.58 132.42 167.63 132.48 168.86 C 132.55 170.09 133.60 171.03 134.83 170.97 Z M 135.77 170.81 L 136.76 170.78 C 137.93 170.73 138.85 169.75 138.81 168.58 C 138.77 167.41 137.78 166.49 136.61 166.53 L 135.62 166.57 C 134.45 166.61 133.53 167.59 133.58 168.77 C 133.62 169.94 134.60 170.85 135.77 170.81 Z M 136.76 170.69 L 137.76 170.65 C 138.88 170.61 139.75 169.67 139.71 168.54 C 139.67 167.42 138.73 166.55 137.61 166.59 L 136.61 166.62 C 135.49 166.66 134.61 167.61 134.65 168.73 C 134.69 169.85 135.64 170.73 136.76 170.69 Z M 137.77 170.57 L 138.79 170.53 C 139.87 170.47 140.70 169.56 140.65 168.48 C 140.60 167.40 139.68 166.56 138.60 166.61 L 137.59 166.66 C 136.51 166.71 135.67 167.63 135.73 168.71 C 135.78 169.79 136.69 170.63 137.77 170.57 Z M 138.80 170.46 L 139.80 170.41 C 140.84 170.35 141.65 169.46 141.59 168.42 C 141.54 167.37 140.64 166.57 139.60 166.62 L 138.60 166.68 C 137.55 166.73 136.75 167.63 136.80 168.67 C 136.86 169.72 137.75 170.52 138.80 170.46 Z M 139.77 170.36 L 140.77 170.33 C 141.79 170.29 142.59 169.43 142.55 168.41 C 142.51 167.39 141.65 166.60 140.63 166.63 L 139.63 166.67 C 138.61 166.71 137.81 167.57 137.85 168.59 C 137.89 169.61 138.75 170.40 139.77 170.36 Z M 140.72 170.30 L 141.73 170.29 C 142.73 170.27 143.53 169.45 143.52 168.44 C 143.51 167.44 142.68 166.64 141.68 166.65 L 140.68 166.66 C 139.68 166.67 138.87 167.50 138.88 168.50 C 138.90 169.51 139.72 170.31 140.72 170.30 Z M 141.71 170.27 L 142.42 170.27 C 143.42 170.27 144.23 169.46 144.23 168.46 C 144.22 167.47 143.41 166.66 142.42 166.66 L 141.70 166.66 C 140.70 166.66 139.90 167.47 139.90 168.47 C 139.90 169.47 140.71 170.27 141.71 170.27 Z"
      fill="black"
      fill-rule="nonzero" /><path d="M 126.50 178.69 L 127.27 179.32 C 128.18 180.06 129.52 179.92 130.26 179.01 C 131.00 178.09 130.86 176.76 129.95 176.02 L 129.17 175.39 C 128.26 174.65 126.93 174.79 126.19 175.70 C 125.45 176.61 125.59 177.95 126.50 178.69 Z M 127.57 179.68 L 128.44 180.13 C 129.55 180.71 130.92 180.28 131.50 179.16 C 132.07 178.05 131.64 176.68 130.53 176.11 L 129.66 175.65 C 128.55 175.08 127.18 175.51 126.60 176.62 C 126.02 177.73 126.45 179.10 127.57 179.68 Z M 129.05 180.40 L 129.96 180.57 C 131.22 180.81 132.44 179.99 132.68 178.73 C 132.92 177.47 132.09 176.26 130.83 176.02 L 129.92 175.84 C 128.66 175.60 127.44 176.43 127.20 177.68 C 126.96 178.94 127.79 180.16 129.05 180.40 Z M 130.30 180.58 L 131.36 180.62 C 132.62 180.68 133.69 179.70 133.74 178.44 C 133.80 177.18 132.82 176.11 131.56 176.06 L 130.50 176.01 C 129.23 175.96 128.17 176.94 128.11 178.20 C 128.06 179.46 129.04 180.52 130.30 180.58 Z M 131.44 180.59 L 132.47 180.60 C 133.71 180.61 134.73 179.61 134.74 178.37 C 134.75 177.13 133.75 176.11 132.51 176.10 L 131.48 176.09 C 130.24 176.08 129.22 177.08 129.21 178.32 C 129.20 179.56 130.20 180.58 131.44 180.59 Z M 132.49 180.56 L 133.51 180.56 C 134.73 180.56 135.72 179.58 135.72 178.36 C 135.72 177.14 134.74 176.15 133.52 176.14 L 132.50 176.14 C 131.28 176.14 130.29 177.12 130.29 178.34 C 130.28 179.56 131.27 180.55 132.49 180.56 Z M 133.51 180.51 L 134.53 180.51 C 135.72 180.51 136.69 179.55 136.69 178.35 C 136.69 177.16 135.72 176.19 134.53 176.19 L 133.51 176.19 C 132.32 176.19 131.35 177.16 131.35 178.35 C 131.35 179.55 132.32 180.51 133.51 180.51 Z M 134.53 180.46 L 135.52 180.46 C 136.68 180.46 137.63 179.52 137.63 178.35 C 137.63 177.19 136.68 176.24 135.52 176.24 L 134.53 176.24 C 133.36 176.24 132.42 177.19 132.42 178.35 C 132.42 179.52 133.36 180.46 134.53 180.46 Z M 135.52 180.40 L 136.46 180.40 C 137.59 180.40 138.51 179.49 138.51 178.35 C 138.51 177.22 137.59 176.30 136.46 176.30 L 135.52 176.30 C 134.38 176.30 133.46 177.22 133.46 178.35 C 133.46 179.49 134.38 180.40 135.52 180.40 Z M 136.46 180.35 L 137.46 180.35 C 138.57 180.35 139.47 179.46 139.47 178.35 C 139.47 177.24 138.57 176.35 137.46 176.35 L 136.46 176.35 C 135.35 176.35 134.46 177.24 134.46 178.35 C 134.46 179.46 135.35 180.35 136.46 180.35 Z M 137.46 180.30 L 138.48 180.30 C 139.56 180.30 140.43 179.43 140.43 178.35 C 140.43 177.27 139.56 176.40 138.48 176.40 L 137.46 176.40 C 136.39 176.40 135.51 177.27 135.51 178.35 C 135.51 179.43 136.39 180.30 137.46 180.30 Z M 138.48 180.24 L 139.48 180.24 C 140.52 180.24 141.36 179.39 141.36 178.35 C 141.36 177.31 140.52 176.46 139.48 176.46 L 138.48 176.46 C 137.44 176.46 136.59 177.31 136.59 178.35 C 136.59 179.39 137.44 180.24 138.48 180.24 Z M 139.48 180.19 L 140.50 180.19 C 141.51 180.18 142.34 179.36 142.33 178.34 C 142.33 177.32 141.50 176.50 140.48 176.50 L 139.47 176.51 C 138.45 176.51 137.63 177.34 137.63 178.36 C 137.64 179.38 138.47 180.20 139.48 180.19 Z M 140.56 180.17 L 141.55 180.12 C 142.55 180.08 143.33 179.24 143.29 178.23 C 143.25 177.23 142.40 176.45 141.40 176.49 L 140.41 176.53 C 139.41 176.57 138.63 177.42 138.67 178.42 C 138.71 179.43 139.56 180.21 140.56 180.17 Z M 141.66 180.10 L 142.66 180.00 C 143.65 179.89 144.37 179.00 144.27 178.01 C 144.16 177.02 143.27 176.30 142.28 176.40 L 141.28 176.51 C 140.29 176.61 139.57 177.51 139.67 178.50 C 139.78 179.49 140.67 180.21 141.66 180.10 Z M 142.76 179.98 L 143.75 179.82 C 144.73 179.66 145.39 178.73 145.23 177.75 C 145.07 176.77 144.15 176.10 143.16 176.26 L 142.18 176.42 C 141.19 176.58 140.53 177.51 140.69 178.49 C 140.85 179.47 141.78 180.14 142.76 179.98 Z M 143.80 179.80 L 144.78 179.61 C 145.76 179.42 146.39 178.47 146.20 177.49 C 146.01 176.52 145.06 175.89 144.08 176.08 L 143.10 176.27 C 142.13 176.47 141.50 177.41 141.69 178.39 C 141.88 179.36 142.83 180.00 143.80 179.80 Z M 144.80 179.61 L 144.89 179.59 C 145.86 179.39 146.49 178.44 146.29 177.46 C 146.09 176.49 145.14 175.86 144.16 176.06 L 144.07 176.08 C 143.10 176.28 142.47 177.23 142.67 178.21 C 142.87 179.18 143.82 179.81 144.80 179.61 Z"
      fill="black"
      fill-rule="nonzero" /><path d="M 158.94 116.92 L 159.76 117.28 C 160.81 117.74 162.04 117.26 162.50 116.20 C 162.96 115.15 162.48 113.93 161.43 113.47 L 160.61 113.11 C 159.56 112.65 158.33 113.13 157.87 114.18 C 157.41 115.23 157.89 116.46 158.94 116.92 Z M 159.86 117.44 L 160.86 117.80 C 162.01 118.20 163.26 117.60 163.67 116.45 C 164.07 115.31 163.47 114.05 162.32 113.65 L 161.32 113.30 C 160.18 112.90 158.92 113.50 158.52 114.64 C 158.12 115.79 158.72 117.04 159.86 117.44 Z M 161.01 117.90 L 161.90 118.14 C 163.10 118.46 164.34 117.74 164.66 116.54 C 164.98 115.33 164.26 114.10 163.06 113.78 L 162.17 113.54 C 160.97 113.22 159.73 113.94 159.41 115.14 C 159.10 116.35 159.81 117.58 161.01 117.90 Z M 162.00 118.14 L 162.93 118.34 C 164.13 118.61 165.32 117.85 165.59 116.64 C 165.85 115.44 165.09 114.25 163.89 113.98 L 162.96 113.78 C 161.76 113.51 160.56 114.27 160.30 115.48 C 160.03 116.68 160.79 117.87 162.00 118.14 Z M 162.99 118.32 L 164.03 118.52 C 165.22 118.75 166.38 117.97 166.61 116.78 C 166.84 115.59 166.06 114.44 164.87 114.21 L 163.83 114.01 C 162.64 113.78 161.48 114.55 161.25 115.74 C 161.02 116.94 161.80 118.09 162.99 118.32 Z M 164.07 118.49 L 165.17 118.69 C 166.35 118.89 167.47 118.11 167.68 116.94 C 167.88 115.76 167.10 114.64 165.93 114.44 L 164.83 114.24 C 163.65 114.03 162.53 114.82 162.33 115.99 C 162.12 117.16 162.90 118.28 164.07 118.49 Z M 165.20 118.65 L 166.21 118.81 C 167.36 119.01 168.45 118.23 168.65 117.08 C 168.84 115.93 168.06 114.84 166.91 114.65 L 165.90 114.48 C 164.75 114.28 163.66 115.06 163.47 116.21 C 163.27 117.36 164.05 118.45 165.20 118.65 Z M 166.23 118.77 L 167.25 118.93 C 168.38 119.11 169.44 118.35 169.62 117.22 C 169.80 116.10 169.03 115.04 167.91 114.86 L 166.89 114.69 C 165.76 114.51 164.70 115.28 164.52 116.40 C 164.34 117.53 165.11 118.59 166.23 118.77 Z M 167.27 118.88 L 168.27 119.04 C 169.37 119.21 170.40 118.46 170.57 117.36 C 170.74 116.26 169.98 115.23 168.89 115.06 L 167.89 114.90 C 166.79 114.73 165.76 115.49 165.59 116.58 C 165.42 117.68 166.17 118.71 167.27 118.88 Z M 168.28 118.99 L 169.21 119.13 C 170.29 119.30 171.29 118.56 171.45 117.48 C 171.61 116.41 170.88 115.41 169.80 115.25 L 168.87 115.11 C 167.80 114.94 166.80 115.68 166.63 116.75 C 166.47 117.83 167.21 118.83 168.28 118.99 Z M 169.23 119.09 L 170.32 119.25 C 171.37 119.40 172.34 118.68 172.50 117.63 C 172.65 116.58 171.93 115.61 170.88 115.45 L 169.79 115.29 C 168.74 115.14 167.77 115.86 167.61 116.91 C 167.46 117.96 168.18 118.93 169.23 119.09 Z M 170.33 119.21 L 171.32 119.35 C 172.34 119.50 173.29 118.79 173.44 117.76 C 173.59 116.74 172.88 115.78 171.85 115.64 L 170.87 115.50 C 169.84 115.35 168.89 116.06 168.74 117.08 C 168.59 118.11 169.31 119.06 170.33 119.21 Z M 171.33 119.31 L 172.24 119.44 C 173.24 119.58 174.17 118.88 174.31 117.88 C 174.45 116.88 173.75 115.95 172.75 115.81 L 171.84 115.68 C 170.84 115.54 169.91 116.23 169.77 117.24 C 169.63 118.24 170.32 119.17 171.33 119.31 Z M 172.24 119.41 L 172.47 119.44 C 173.46 119.58 174.37 118.89 174.51 117.91 C 174.65 116.92 173.96 116.00 172.97 115.87 L 172.75 115.83 C 171.76 115.69 170.84 116.38 170.71 117.37 C 170.57 118.36 171.26 119.27 172.24 119.41 Z"
      fill="black"
      fill-rule="nonzero" /><path d="M 157.29 128.90 L 158.28 129.04 C 159.46 129.20 160.56 128.38 160.72 127.19 C 160.89 126.01 160.07 124.91 158.88 124.74 L 157.90 124.60 C 156.72 124.44 155.62 125.26 155.45 126.45 C 155.28 127.63 156.11 128.73 157.29 128.90 Z M 158.30 129.19 L 159.29 129.31 C 160.56 129.47 161.72 128.56 161.88 127.29 C 162.03 126.02 161.13 124.87 159.86 124.71 L 158.86 124.59 C 157.59 124.43 156.43 125.34 156.28 126.61 C 156.12 127.88 157.03 129.03 158.30 129.19 Z M 159.36 129.42 L 160.40 129.51 C 161.73 129.63 162.90 128.65 163.02 127.32 C 163.14 125.99 162.15 124.81 160.82 124.69 L 159.79 124.60 C 158.46 124.48 157.28 125.47 157.17 126.80 C 157.05 128.13 158.03 129.30 159.36 129.42 Z M 160.46 129.55 L 161.47 129.61 C 162.82 129.69 163.98 128.67 164.06 127.32 C 164.15 125.97 163.12 124.81 161.77 124.72 L 160.76 124.66 C 159.41 124.58 158.25 125.60 158.17 126.95 C 158.08 128.30 159.11 129.46 160.46 129.55 Z M 161.49 129.62 L 162.49 129.67 C 163.84 129.74 165.00 128.70 165.07 127.34 C 165.14 125.99 164.09 124.83 162.74 124.76 L 161.74 124.71 C 160.39 124.64 159.24 125.69 159.17 127.04 C 159.10 128.40 160.14 129.55 161.49 129.62 Z M 162.50 129.68 L 163.47 129.73 C 164.83 129.79 165.99 128.74 166.05 127.38 C 166.11 126.02 165.06 124.86 163.70 124.80 L 162.73 124.75 C 161.37 124.69 160.22 125.74 160.15 127.10 C 160.09 128.46 161.14 129.62 162.50 129.68 Z M 163.48 129.73 L 164.45 129.77 C 165.81 129.83 166.96 128.77 167.02 127.40 C 167.07 126.04 166.01 124.89 164.65 124.83 L 163.69 124.79 C 162.32 124.74 161.17 125.80 161.12 127.16 C 161.06 128.52 162.12 129.68 163.48 129.73 Z M 164.43 129.77 L 165.46 129.81 C 166.82 129.88 167.97 128.82 168.03 127.46 C 168.10 126.10 167.04 124.95 165.68 124.88 L 164.66 124.84 C 163.30 124.77 162.14 125.83 162.08 127.19 C 162.02 128.55 163.07 129.71 164.43 129.77 Z M 165.42 129.80 L 166.40 129.86 C 167.75 129.95 168.92 128.91 169.00 127.56 C 169.09 126.20 168.05 125.04 166.70 124.95 L 165.72 124.89 C 164.36 124.81 163.20 125.84 163.11 127.20 C 163.03 128.55 164.06 129.72 165.42 129.80 Z M 166.39 129.85 L 167.40 129.92 C 168.75 130.01 169.92 128.99 170.01 127.64 C 170.10 126.29 169.08 125.12 167.73 125.03 L 166.71 124.97 C 165.36 124.88 164.20 125.90 164.11 127.25 C 164.02 128.59 165.04 129.76 166.39 129.85 Z M 167.41 129.90 L 168.39 129.96 C 169.73 130.04 170.88 129.03 170.96 127.69 C 171.05 126.35 170.03 125.20 168.70 125.12 L 167.72 125.06 C 166.38 124.97 165.23 125.99 165.15 127.32 C 165.06 128.66 166.08 129.81 167.41 129.90 Z M 168.40 129.92 L 169.42 129.99 C 170.73 130.07 171.87 129.06 171.95 127.74 C 172.03 126.43 171.02 125.29 169.70 125.21 L 168.69 125.15 C 167.37 125.07 166.24 126.08 166.16 127.39 C 166.08 128.71 167.08 129.84 168.40 129.92 Z M 169.42 129.94 L 170.43 130.00 C 171.72 130.08 172.83 129.09 172.91 127.80 C 172.99 126.51 172.00 125.40 170.71 125.32 L 169.70 125.26 C 168.41 125.18 167.30 126.17 167.22 127.46 C 167.14 128.75 168.13 129.86 169.42 129.94 Z M 170.44 129.94 L 171.44 130.00 C 172.70 130.07 173.78 129.10 173.85 127.84 C 173.92 126.58 172.95 125.50 171.69 125.43 L 170.69 125.38 C 169.43 125.31 168.35 126.27 168.29 127.53 C 168.22 128.79 169.18 129.87 170.44 129.94 Z M 171.47 129.94 L 172.49 129.99 C 173.72 130.04 174.76 129.09 174.82 127.86 C 174.87 126.63 173.92 125.59 172.69 125.53 L 171.66 125.48 C 170.43 125.43 169.39 126.38 169.34 127.62 C 169.28 128.85 170.23 129.89 171.47 129.94 Z M 172.50 129.95 L 173.48 129.99 C 174.69 130.04 175.70 129.10 175.75 127.89 C 175.80 126.68 174.87 125.67 173.66 125.62 L 172.68 125.57 C 171.47 125.52 170.45 126.46 170.40 127.67 C 170.35 128.88 171.29 129.90 172.50 129.95 Z M 173.45 129.94 L 174.46 130.00 C 175.64 130.06 176.65 129.15 176.72 127.97 C 176.78 126.79 175.87 125.78 174.69 125.72 L 173.69 125.66 C 172.50 125.60 171.49 126.50 171.43 127.68 C 171.37 128.87 172.27 129.88 173.45 129.94 Z M 174.45 129.95 L 175.43 130.01 C 176.58 130.08 177.58 129.20 177.65 128.05 C 177.72 126.89 176.84 125.89 175.69 125.82 L 174.70 125.76 C 173.55 125.69 172.55 126.57 172.48 127.73 C 172.41 128.88 173.29 129.88 174.45 129.95 Z M 175.45 129.97 L 176.39 130.02 C 177.53 130.08 178.49 129.21 178.55 128.07 C 178.61 126.94 177.74 125.97 176.61 125.91 L 175.67 125.86 C 174.53 125.80 173.56 126.67 173.50 127.81 C 173.44 128.94 174.31 129.91 175.45 129.97 Z M 176.40 129.99 L 177.45 130.04 C 178.56 130.09 179.51 129.23 179.56 128.11 C 179.62 126.99 178.75 126.05 177.64 126.00 L 176.59 125.95 C 175.48 125.89 174.53 126.76 174.48 127.87 C 174.43 128.99 175.29 129.93 176.40 129.99 Z M 177.45 130.00 L 178.44 130.05 C 179.54 130.11 180.47 129.26 180.53 128.16 C 180.58 127.06 179.73 126.13 178.63 126.07 L 177.64 126.03 C 176.54 125.97 175.61 126.82 175.55 127.92 C 175.50 129.02 176.35 129.95 177.45 130.00 Z M 178.43 130.03 L 179.45 130.08 C 180.54 130.14 181.46 129.30 181.52 128.22 C 181.58 127.13 180.74 126.21 179.66 126.15 L 178.64 126.10 C 177.55 126.04 176.63 126.87 176.57 127.96 C 176.51 129.04 177.35 129.97 178.43 130.03 Z M 179.44 130.04 L 180.48 130.10 C 181.54 130.17 182.45 129.36 182.52 128.30 C 182.58 127.24 181.78 126.32 180.72 126.26 L 179.67 126.19 C 178.61 126.13 177.70 126.94 177.63 128.00 C 177.57 129.06 178.37 129.97 179.44 130.04 Z M 180.46 130.04 L 181.43 130.11 C 182.45 130.18 183.35 129.41 183.42 128.38 C 183.49 127.36 182.72 126.46 181.69 126.39 L 180.73 126.32 C 179.70 126.25 178.81 127.02 178.74 128.05 C 178.66 129.08 179.44 129.97 180.46 130.04 Z M 181.42 130.07 L 181.63 130.08 C 182.63 130.16 183.51 129.40 183.58 128.40 C 183.66 127.39 182.90 126.52 181.90 126.44 L 181.69 126.43 C 180.69 126.36 179.81 127.11 179.74 128.11 C 179.66 129.12 180.42 130.00 181.42 130.07 Z"
      fill="black"
      fill-rule="nonzero" /><path d="M 160.54 127.40 L 160.51 128.39 C 160.47 129.61 161.43 130.63 162.64 130.67 C 163.86 130.71 164.88 129.75 164.92 128.54 L 164.95 127.55 C 164.99 126.33 164.04 125.31 162.82 125.27 C 161.60 125.23 160.58 126.19 160.54 127.40 Z M 160.43 128.42 L 160.41 129.33 C 160.39 130.59 161.40 131.63 162.66 131.65 C 163.92 131.67 164.96 130.67 164.99 129.41 L 165.00 128.50 C 165.02 127.24 164.02 126.20 162.75 126.18 C 161.49 126.16 160.45 127.16 160.43 128.42 Z M 160.36 129.51 L 160.42 130.42 C 160.49 131.71 161.61 132.70 162.90 132.62 C 164.19 132.54 165.17 131.43 165.10 130.14 L 165.04 129.22 C 164.96 127.93 163.85 126.95 162.56 127.03 C 161.27 127.11 160.28 128.22 160.36 129.51 Z M 160.40 130.67 L 160.60 131.81 C 160.81 133.11 162.04 133.98 163.34 133.76 C 164.64 133.54 165.52 132.31 165.30 131.02 L 165.11 129.88 C 164.89 128.58 163.66 127.71 162.36 127.93 C 161.06 128.15 160.18 129.38 160.40 130.67 Z M 160.60 131.94 L 160.81 132.86 C 161.11 134.15 162.39 134.96 163.69 134.67 C 164.98 134.38 165.79 133.09 165.50 131.79 L 165.29 130.88 C 165.00 129.59 163.71 128.78 162.41 129.07 C 161.12 129.36 160.31 130.65 160.60 131.94 Z M 160.82 132.91 L 161.07 133.91 C 161.39 135.20 162.70 135.98 163.98 135.66 C 165.27 135.34 166.06 134.04 165.74 132.75 L 165.49 131.75 C 165.17 130.46 163.86 129.68 162.58 130.00 C 161.29 130.31 160.50 131.62 160.82 132.91 Z M 161.08 133.93 L 161.34 134.95 C 161.67 136.24 162.98 137.02 164.26 136.69 C 165.55 136.36 166.32 135.05 166.00 133.76 L 165.73 132.74 C 165.40 131.45 164.09 130.68 162.81 131.00 C 161.52 131.33 160.75 132.64 161.08 133.93 Z M 161.34 134.95 L 161.61 136.00 C 161.93 137.28 163.24 138.06 164.52 137.73 C 165.81 137.41 166.58 136.10 166.26 134.82 L 165.99 133.77 C 165.67 132.48 164.36 131.71 163.08 132.03 C 161.79 132.36 161.02 133.66 161.34 134.95 Z M 161.62 135.97 L 161.88 137.05 C 162.19 138.33 163.48 139.11 164.75 138.81 C 166.03 138.50 166.82 137.21 166.51 135.94 L 166.25 134.85 C 165.94 133.57 164.65 132.79 163.38 133.10 C 162.10 133.40 161.31 134.69 161.62 135.97 Z M 161.91 137.02 L 162.12 137.95 C 162.41 139.21 163.67 140.00 164.93 139.71 C 166.19 139.42 166.99 138.17 166.70 136.90 L 166.48 135.97 C 166.20 134.71 164.94 133.92 163.67 134.21 C 162.41 134.49 161.62 135.75 161.91 137.02 Z M 162.15 137.91 L 162.34 138.79 C 162.61 140.04 163.84 140.83 165.09 140.56 C 166.33 140.29 167.13 139.06 166.86 137.82 L 166.66 136.93 C 166.39 135.69 165.16 134.90 163.92 135.17 C 162.67 135.44 161.88 136.67 162.15 137.91 Z M 162.41 138.76 L 162.62 139.77 C 162.87 140.98 164.05 141.76 165.26 141.51 C 166.47 141.26 167.25 140.07 167.00 138.86 L 166.79 137.85 C 166.54 136.64 165.35 135.86 164.14 136.11 C 162.93 136.36 162.16 137.55 162.41 138.76 Z M 162.71 139.76 L 162.90 140.66 C 163.14 141.82 164.28 142.57 165.44 142.32 C 166.59 142.08 167.34 140.95 167.10 139.79 L 166.91 138.88 C 166.66 137.72 165.53 136.98 164.37 137.22 C 163.21 137.46 162.47 138.60 162.71 139.76 Z M 162.98 140.65 L 163.19 141.63 C 163.43 142.74 164.52 143.45 165.63 143.22 C 166.75 142.98 167.46 141.89 167.22 140.77 L 167.01 139.80 C 166.78 138.68 165.68 137.97 164.57 138.21 C 163.46 138.45 162.75 139.54 162.98 140.65 Z M 163.25 141.57 L 163.43 142.55 C 163.64 143.63 164.67 144.34 165.75 144.14 C 166.83 143.93 167.54 142.89 167.34 141.82 L 167.16 140.84 C 166.96 139.76 165.92 139.05 164.84 139.25 C 163.76 139.45 163.05 140.49 163.25 141.57 Z M 163.49 142.48 L 163.64 143.44 C 163.80 144.49 164.79 145.21 165.84 145.05 C 166.88 144.88 167.60 143.90 167.44 142.85 L 167.29 141.88 C 167.12 140.84 166.14 140.12 165.09 140.28 C 164.04 140.45 163.33 141.43 163.49 142.48 Z M 163.69 143.41 L 163.82 144.36 C 163.97 145.38 164.91 146.09 165.93 145.95 C 166.95 145.80 167.67 144.86 167.52 143.84 L 167.39 142.89 C 167.25 141.87 166.30 141.15 165.28 141.30 C 164.26 141.44 163.55 142.38 163.69 143.41 Z M 163.86 144.36 L 164.00 145.36 C 164.15 146.36 165.08 147.06 166.08 146.91 C 167.08 146.77 167.78 145.84 167.63 144.83 L 167.49 143.83 C 167.34 142.83 166.41 142.14 165.41 142.28 C 164.41 142.43 163.71 143.36 163.86 144.36 Z M 164.02 145.37 L 164.17 146.35 C 164.32 147.34 165.25 148.02 166.24 147.87 C 167.23 147.72 167.91 146.80 167.76 145.81 L 167.61 144.83 C 167.46 143.83 166.54 143.15 165.55 143.30 C 164.55 143.45 163.87 144.38 164.02 145.37 Z M 164.18 146.36 L 164.33 147.32 C 164.48 148.31 165.40 148.98 166.39 148.83 C 167.37 148.68 168.05 147.76 167.90 146.77 L 167.75 145.81 C 167.60 144.82 166.68 144.15 165.69 144.30 C 164.71 144.45 164.03 145.37 164.18 146.36 Z"
      fill="black"
      fill-rule="nonzero" /><path d="M 175.35 130.74 L 175.55 131.75 C 175.79 132.95 176.96 133.73 178.17 133.49 C 179.37 133.25 180.15 132.08 179.91 130.88 L 179.71 129.87 C 179.47 128.66 178.30 127.88 177.09 128.12 C 175.89 128.36 175.11 129.53 175.35 130.74 Z M 175.38 131.57 L 175.48 132.51 C 175.62 133.81 176.79 134.75 178.09 134.61 C 179.39 134.47 180.33 133.30 180.19 132.00 L 180.09 131.06 C 179.94 129.76 178.78 128.82 177.48 128.96 C 176.18 129.10 175.24 130.27 175.38 131.57 Z M 175.44 132.03 L 175.35 132.94 C 175.22 134.26 176.19 135.44 177.52 135.56 C 178.84 135.69 180.01 134.72 180.14 133.40 L 180.23 132.49 C 180.36 131.16 179.39 129.99 178.06 129.86 C 176.74 129.74 175.57 130.70 175.44 132.03 Z M 175.50 132.48 L 175.19 133.49 C 174.80 134.73 175.50 136.05 176.75 136.43 C 177.99 136.81 179.31 136.11 179.69 134.87 L 180.00 133.86 C 180.38 132.61 179.68 131.30 178.44 130.92 C 177.19 130.53 175.88 131.23 175.50 132.48 Z M 175.32 133.30 L 174.95 134.18 C 174.47 135.35 175.03 136.69 176.20 137.18 C 177.38 137.66 178.72 137.10 179.20 135.93 L 179.56 135.05 C 180.04 133.88 179.48 132.54 178.31 132.06 C 177.14 131.57 175.80 132.13 175.32 133.30 Z M 175.06 134.10 L 174.61 135.05 C 174.09 136.16 174.57 137.49 175.68 138.02 C 176.79 138.54 178.12 138.07 178.65 136.95 L 179.09 136.00 C 179.62 134.89 179.14 133.56 178.03 133.04 C 176.91 132.51 175.59 132.99 175.06 134.10 Z M 174.72 134.99 L 174.22 135.94 C 173.66 137.00 174.06 138.30 175.11 138.86 C 176.17 139.42 177.47 139.02 178.03 137.97 L 178.54 137.01 C 179.10 135.96 178.69 134.65 177.64 134.09 C 176.59 133.54 175.28 133.94 174.72 134.99 Z M 174.34 135.90 L 173.79 136.82 C 173.21 137.80 173.53 139.07 174.52 139.66 C 175.50 140.24 176.78 139.92 177.36 138.93 L 177.91 138.01 C 178.49 137.03 178.17 135.76 177.18 135.17 C 176.20 134.59 174.93 134.91 174.34 135.90 Z M 173.92 136.80 L 173.39 137.62 C 172.80 138.54 173.06 139.76 173.97 140.36 C 174.89 140.95 176.11 140.69 176.70 139.77 L 177.24 138.95 C 177.83 138.03 177.57 136.81 176.65 136.22 C 175.73 135.63 174.51 135.89 173.92 136.80 Z M 173.49 137.63 L 172.93 138.44 C 172.34 139.30 172.56 140.48 173.42 141.06 C 174.28 141.65 175.46 141.43 176.05 140.57 L 176.60 139.76 C 177.19 138.90 176.97 137.73 176.11 137.14 C 175.25 136.55 174.08 136.77 173.49 137.63 Z M 173.00 138.43 L 172.41 139.25 C 171.82 140.07 172.01 141.22 172.83 141.81 C 173.65 142.40 174.80 142.22 175.39 141.40 L 175.98 140.58 C 176.57 139.76 176.39 138.61 175.57 138.02 C 174.74 137.43 173.60 137.61 173.00 138.43 Z M 172.47 139.22 L 171.89 139.96 C 171.28 140.75 171.43 141.89 172.22 142.50 C 173.01 143.11 174.14 142.97 174.76 142.18 L 175.33 141.43 C 175.94 140.64 175.80 139.51 175.01 138.89 C 174.22 138.28 173.08 138.43 172.47 139.22 Z M 171.93 139.93 L 171.30 140.70 C 170.67 141.47 170.78 142.60 171.55 143.23 C 172.32 143.86 173.45 143.75 174.08 142.98 L 174.72 142.21 C 175.35 141.44 175.23 140.31 174.47 139.68 C 173.70 139.05 172.56 139.16 171.93 139.93 Z M 171.31 140.69 L 171.14 140.89 C 170.51 141.65 170.61 142.79 171.37 143.42 C 172.14 144.06 173.27 143.96 173.91 143.19 L 174.08 142.99 C 174.71 142.23 174.61 141.09 173.85 140.46 C 173.08 139.82 171.95 139.92 171.31 140.69 Z"
      fill="black"
      fill-rule="nonzero" /><path d="M 157.06 149.85 L 157.99 150.09 C 159.14 150.39 160.31 149.70 160.61 148.55 C 160.91 147.40 160.22 146.23 159.07 145.93 L 158.14 145.69 C 156.99 145.39 155.81 146.08 155.52 147.23 C 155.22 148.38 155.91 149.55 157.06 149.85 Z M 158.14 150.47 L 159.16 150.63 C 160.51 150.84 161.79 149.92 162.00 148.57 C 162.22 147.21 161.29 145.94 159.94 145.72 L 158.92 145.56 C 157.56 145.34 156.29 146.27 156.07 147.62 C 155.86 148.98 156.78 150.25 158.14 150.47 Z M 159.41 150.82 L 160.42 150.87 C 161.88 150.95 163.13 149.82 163.20 148.36 C 163.28 146.90 162.16 145.66 160.70 145.58 L 159.68 145.53 C 158.22 145.46 156.98 146.58 156.90 148.04 C 156.83 149.50 157.95 150.74 159.41 150.82 Z M 160.54 150.89 L 161.54 150.90 C 163.01 150.91 164.21 149.72 164.22 148.25 C 164.23 146.78 163.05 145.58 161.58 145.57 L 160.58 145.56 C 159.11 145.55 157.90 146.74 157.89 148.21 C 157.88 149.68 159.07 150.88 160.54 150.89 Z M 161.56 150.91 L 162.58 150.91 C 164.06 150.91 165.26 149.71 165.26 148.23 C 165.26 146.76 164.06 145.56 162.58 145.56 L 161.56 145.56 C 160.08 145.56 158.88 146.76 158.88 148.23 C 158.88 149.71 160.08 150.91 161.56 150.91 Z M 162.58 150.91 L 163.54 150.91 C 165.01 150.91 166.21 149.71 166.21 148.23 C 166.21 146.76 165.01 145.56 163.54 145.56 L 162.58 145.56 C 161.11 145.56 159.91 146.76 159.91 148.23 C 159.91 149.71 161.11 150.91 162.58 150.91 Z M 163.54 150.90 L 164.53 150.90 C 166.01 150.90 167.20 149.71 167.20 148.23 C 167.20 146.76 166.01 145.57 164.53 145.57 L 163.54 145.57 C 162.06 145.57 160.87 146.76 160.87 148.23 C 160.87 149.71 162.06 150.90 163.54 150.90 Z M 164.53 150.89 L 165.53 150.89 C 167.00 150.89 168.19 149.70 168.19 148.23 C 168.19 146.76 167.00 145.57 165.53 145.57 L 164.53 145.57 C 163.06 145.58 161.87 146.77 161.87 148.24 C 161.87 149.70 163.06 150.89 164.53 150.89 Z M 165.57 150.88 L 166.57 150.87 C 168.04 150.85 169.20 149.64 169.18 148.18 C 169.16 146.72 167.96 145.55 166.49 145.57 L 165.49 145.58 C 164.03 145.60 162.86 146.81 162.88 148.27 C 162.90 149.74 164.11 150.90 165.57 150.88 Z M 166.66 150.85 L 167.66 150.80 C 169.12 150.73 170.24 149.50 170.17 148.04 C 170.10 146.59 168.86 145.47 167.41 145.54 L 166.40 145.58 C 164.95 145.66 163.83 146.89 163.90 148.35 C 163.97 149.80 165.21 150.92 166.66 150.85 Z M 167.74 150.78 L 168.74 150.70 C 170.18 150.59 171.25 149.33 171.14 147.89 C 171.03 146.44 169.76 145.37 168.32 145.48 L 167.33 145.56 C 165.89 145.68 164.81 146.94 164.92 148.38 C 165.04 149.82 166.30 150.89 167.74 150.78 Z M 168.76 150.67 L 169.76 150.59 C 171.19 150.46 172.24 149.20 172.12 147.77 C 171.99 146.35 170.73 145.29 169.30 145.42 L 168.30 145.51 C 166.87 145.64 165.82 146.89 165.95 148.32 C 166.07 149.75 167.33 150.80 168.76 150.67 Z M 169.76 150.56 L 170.74 150.47 C 172.15 150.35 173.20 149.11 173.08 147.69 C 172.95 146.28 171.71 145.24 170.30 145.36 L 169.31 145.45 C 167.90 145.57 166.85 146.81 166.98 148.23 C 167.10 149.64 168.34 150.68 169.76 150.56 Z M 170.73 150.45 L 171.75 150.36 C 173.15 150.24 174.18 149.01 174.06 147.62 C 173.95 146.22 172.72 145.18 171.32 145.30 L 170.31 145.39 C 168.91 145.51 167.87 146.73 167.99 148.13 C 168.11 149.53 169.34 150.56 170.73 150.45 Z M 171.74 150.32 L 172.74 150.24 C 174.12 150.13 175.15 148.92 175.03 147.55 C 174.92 146.17 173.72 145.14 172.34 145.26 L 171.33 145.34 C 169.96 145.45 168.93 146.66 169.04 148.03 C 169.16 149.41 170.36 150.43 171.74 150.32 Z M 172.73 150.20 L 173.73 150.12 C 175.08 150.02 176.09 148.84 175.99 147.48 C 175.88 146.13 174.70 145.12 173.35 145.23 L 172.35 145.30 C 171.00 145.40 169.99 146.58 170.09 147.94 C 170.20 149.29 171.38 150.30 172.73 150.20 Z M 173.70 150.07 L 174.71 150.01 C 176.04 149.91 177.04 148.77 176.95 147.44 C 176.86 146.11 175.71 145.11 174.39 145.20 L 173.37 145.27 C 172.05 145.36 171.05 146.51 171.14 147.84 C 171.23 149.16 172.38 150.17 173.70 150.07 Z M 174.68 149.96 L 175.67 149.91 C 176.97 149.84 177.97 148.73 177.90 147.42 C 177.83 146.12 176.72 145.12 175.41 145.19 L 174.42 145.24 C 173.12 145.31 172.12 146.43 172.19 147.73 C 172.26 149.03 173.37 150.03 174.68 149.96 Z M 175.61 149.86 L 176.60 149.83 C 177.88 149.79 178.89 148.72 178.85 147.45 C 178.81 146.17 177.74 145.17 176.46 145.21 L 175.47 145.24 C 174.19 145.28 173.19 146.34 173.23 147.62 C 173.27 148.90 174.34 149.90 175.61 149.86 Z M 176.55 149.78 L 177.56 149.77 C 178.81 149.76 179.81 148.73 179.80 147.49 C 179.78 146.24 178.76 145.24 177.52 145.25 L 176.51 145.26 C 175.26 145.27 174.26 146.29 174.27 147.54 C 174.29 148.79 175.31 149.79 176.55 149.78 Z M 177.54 149.71 L 178.54 149.71 C 179.75 149.70 180.74 148.72 180.74 147.51 C 180.74 146.29 179.75 145.31 178.54 145.31 L 177.54 145.31 C 176.32 145.31 175.34 146.30 175.34 147.51 C 175.34 148.72 176.33 149.71 177.54 149.71 Z M 178.54 149.64 L 179.54 149.64 C 180.72 149.64 181.68 148.69 181.68 147.51 C 181.68 146.33 180.72 145.37 179.54 145.37 L 178.54 145.37 C 177.36 145.37 176.41 146.33 176.41 147.51 C 176.41 148.69 177.36 149.64 178.54 149.64 Z M 179.54 149.58 L 180.54 149.58 C 181.68 149.58 182.61 148.65 182.61 147.51 C 182.61 146.36 181.68 145.44 180.54 145.44 L 179.54 145.44 C 178.40 145.44 177.47 146.36 177.47 147.51 C 177.47 148.65 178.40 149.58 179.54 149.58 Z M 180.54 149.52 L 181.54 149.52 C 182.65 149.52 183.55 148.62 183.55 147.51 C 183.55 146.40 182.65 145.50 181.54 145.50 L 180.54 145.50 C 179.43 145.50 178.53 146.40 178.53 147.51 C 178.53 148.62 179.43 149.52 180.54 149.52 Z M 181.54 149.47 L 182.48 149.47 C 183.56 149.47 184.43 148.59 184.43 147.51 C 184.43 146.43 183.56 145.55 182.48 145.55 L 181.54 145.55 C 180.45 145.55 179.58 146.43 179.58 147.51 C 179.58 148.59 180.45 149.47 181.54 149.47 Z M 182.48 149.42 L 183.51 149.42 C 184.57 149.42 185.42 148.56 185.42 147.51 C 185.42 146.45 184.57 145.60 183.51 145.60 L 182.48 145.60 C 181.42 145.60 180.57 146.45 180.57 147.51 C 180.57 148.56 181.42 149.42 182.48 149.42 Z M 183.50 149.38 L 184.50 149.39 C 185.54 149.39 186.38 148.56 186.39 147.52 C 186.39 146.49 185.56 145.64 184.52 145.64 L 183.52 145.63 C 182.49 145.63 181.64 146.46 181.64 147.50 C 181.63 148.53 182.47 149.38 183.50 149.38 Z M 184.44 149.36 L 185.46 149.40 C 186.48 149.45 187.34 148.65 187.39 147.63 C 187.43 146.61 186.63 145.75 185.61 145.70 L 184.59 145.66 C 183.56 145.62 182.70 146.42 182.66 147.44 C 182.62 148.46 183.42 149.32 184.44 149.36 Z M 185.30 149.37 L 186.33 149.50 C 187.33 149.63 188.25 148.93 188.38 147.93 C 188.51 146.92 187.81 146.00 186.80 145.87 L 185.77 145.74 C 184.77 145.61 183.85 146.32 183.72 147.32 C 183.59 148.32 184.30 149.24 185.30 149.37 Z M 186.14 149.45 L 187.08 149.68 C 188.05 149.91 189.03 149.32 189.27 148.34 C 189.50 147.37 188.90 146.39 187.93 146.15 L 186.99 145.93 C 186.02 145.69 185.04 146.29 184.81 147.26 C 184.57 148.23 185.17 149.22 186.14 149.45 Z M 187.02 149.65 L 187.22 149.71 C 188.18 149.98 189.17 149.41 189.44 148.46 C 189.71 147.50 189.15 146.50 188.19 146.23 L 187.99 146.18 C 187.03 145.91 186.03 146.47 185.77 147.43 C 185.50 148.39 186.06 149.39 187.02 149.65 Z"
      fill="black"
      fill-rule="nonzero" /><path d="M 167.05 156.15 L 166.92 157.05 C 166.74 158.21 167.54 159.30 168.71 159.47 C 169.87 159.64 170.96 158.84 171.13 157.68 L 171.26 156.78 C 171.44 155.62 170.64 154.53 169.47 154.36 C 168.31 154.19 167.23 154.99 167.05 156.15 Z M 166.83 157.17 L 166.73 158.25 C 166.63 159.46 167.52 160.53 168.74 160.64 C 169.95 160.74 171.02 159.85 171.12 158.64 L 171.22 157.56 C 171.32 156.34 170.43 155.28 169.22 155.17 C 168.00 155.06 166.94 155.96 166.83 157.17 Z M 166.67 158.37 L 166.64 159.33 C 166.60 160.58 167.58 161.62 168.83 161.66 C 170.07 161.71 171.12 160.73 171.16 159.48 L 171.19 158.52 C 171.23 157.27 170.25 156.22 169.00 156.18 C 167.75 156.14 166.71 157.12 166.67 158.37 Z M 166.60 159.39 L 166.59 160.42 C 166.58 161.69 167.60 162.73 168.87 162.74 C 170.14 162.76 171.18 161.74 171.19 160.46 L 171.20 159.43 C 171.21 158.16 170.19 157.12 168.92 157.11 C 167.65 157.09 166.61 158.12 166.60 159.39 Z M 166.55 160.44 L 166.55 161.47 C 166.55 162.76 167.59 163.81 168.89 163.81 C 170.18 163.81 171.22 162.76 171.23 161.47 L 171.23 160.45 C 171.23 159.15 170.18 158.11 168.89 158.11 C 167.60 158.10 166.55 159.15 166.55 160.44 Z M 166.53 161.47 L 166.53 162.47 C 166.53 163.77 167.58 164.83 168.89 164.83 C 170.19 164.83 171.25 163.77 171.25 162.47 L 171.25 161.47 C 171.25 160.17 170.19 159.11 168.89 159.11 C 167.58 159.11 166.53 160.17 166.53 161.47 Z M 166.51 162.47 L 166.51 163.45 C 166.51 164.76 167.58 165.83 168.89 165.83 C 170.20 165.83 171.26 164.76 171.26 163.45 L 171.26 162.47 C 171.26 161.16 170.20 160.09 168.89 160.09 C 167.58 160.09 166.51 161.16 166.51 162.47 Z M 166.50 163.45 L 166.50 164.47 C 166.50 165.79 167.57 166.86 168.89 166.86 C 170.21 166.86 171.27 165.79 171.27 164.47 L 171.27 163.45 C 171.27 162.13 170.21 161.06 168.89 161.06 C 167.57 161.06 166.50 162.13 166.50 163.45 Z M 166.50 164.47 L 166.50 165.50 C 166.50 166.81 167.57 167.88 168.89 167.88 C 170.21 167.88 171.28 166.81 171.28 165.50 L 171.28 164.47 C 171.28 163.15 170.21 162.08 168.89 162.08 C 167.57 162.08 166.50 163.15 166.50 164.47 Z M 166.50 165.50 L 166.50 166.50 C 166.50 167.82 167.57 168.88 168.89 168.88 C 170.21 168.88 171.28 167.82 171.28 166.50 L 171.28 165.50 C 171.28 164.18 170.21 163.11 168.89 163.11 C 167.57 163.11 166.50 164.18 166.50 165.50 Z M 166.51 166.50 L 166.51 167.50 C 166.51 168.81 167.58 169.87 168.89 169.87 C 170.20 169.87 171.26 168.81 171.26 167.50 L 171.26 166.50 C 171.26 165.18 170.20 164.12 168.89 164.12 C 167.58 164.12 166.51 165.18 166.51 166.50 Z M 166.54 167.50 L 166.54 168.45 C 166.54 169.75 167.59 170.80 168.89 170.80 C 170.18 170.80 171.24 169.75 171.24 168.45 L 171.24 167.50 C 171.24 166.20 170.18 165.15 168.89 165.15 C 167.59 165.15 166.54 166.20 166.54 167.50 Z M 166.58 168.45 L 166.58 169.45 C 166.58 170.73 167.61 171.76 168.89 171.76 C 170.16 171.76 171.20 170.73 171.20 169.45 L 171.20 168.45 C 171.20 167.17 170.16 166.14 168.89 166.14 C 167.61 166.14 166.58 167.17 166.58 168.45 Z M 166.62 169.45 L 166.62 170.46 C 166.62 171.71 167.63 172.72 168.88 172.72 C 170.13 172.72 171.15 171.71 171.15 170.46 L 171.15 169.46 C 171.15 168.21 170.14 167.19 168.89 167.19 C 167.64 167.19 166.63 168.20 166.62 169.45 Z M 166.67 170.43 L 166.65 171.43 C 166.64 172.65 167.62 173.66 168.85 173.67 C 170.08 173.69 171.08 172.70 171.10 171.48 L 171.11 170.49 C 171.12 169.26 170.14 168.25 168.91 168.24 C 167.69 168.22 166.68 169.21 166.67 170.43 Z M 166.70 171.37 L 166.66 172.37 C 166.61 173.58 167.55 174.59 168.75 174.63 C 169.96 174.68 170.97 173.74 171.02 172.54 L 171.05 171.53 C 171.10 170.33 170.16 169.32 168.96 169.27 C 167.75 169.23 166.74 170.17 166.70 171.37 Z M 166.70 172.29 L 166.63 173.29 C 166.54 174.47 167.42 175.49 168.59 175.59 C 169.77 175.68 170.80 174.80 170.89 173.62 L 170.97 172.62 C 171.06 171.44 170.18 170.41 169.00 170.32 C 167.83 170.23 166.80 171.11 166.70 172.29 Z M 166.68 173.23 L 166.57 174.22 C 166.45 175.37 167.28 176.40 168.43 176.53 C 169.57 176.65 170.61 175.82 170.73 174.67 L 170.84 173.68 C 170.96 172.53 170.13 171.50 168.99 171.37 C 167.84 171.25 166.80 172.08 166.68 173.23 Z M 166.62 174.24 L 166.53 175.16 C 166.42 176.28 167.23 177.28 168.35 177.39 C 169.47 177.50 170.47 176.69 170.59 175.57 L 170.68 174.65 C 170.79 173.53 169.98 172.53 168.86 172.42 C 167.74 172.30 166.74 173.12 166.62 174.24 Z M 166.59 175.15 L 166.47 176.21 C 166.35 177.30 167.14 178.28 168.23 178.40 C 169.32 178.52 170.30 177.73 170.42 176.64 L 170.53 175.58 C 170.65 174.49 169.86 173.51 168.77 173.39 C 167.68 173.27 166.70 174.06 166.59 175.15 Z M 166.52 176.17 L 166.39 177.13 C 166.25 178.19 167.00 179.17 168.07 179.31 C 169.13 179.45 170.11 178.70 170.24 177.63 L 170.37 176.68 C 170.51 175.61 169.76 174.64 168.69 174.50 C 167.63 174.36 166.65 175.11 166.52 176.17 Z M 166.43 177.10 L 166.27 178.12 C 166.11 179.17 166.83 180.14 167.88 180.30 C 168.92 180.46 169.90 179.74 170.06 178.69 L 170.21 177.67 C 170.37 176.62 169.65 175.65 168.60 175.49 C 167.56 175.33 166.58 176.05 166.43 177.10 Z M 166.31 178.07 L 166.13 179.10 C 165.94 180.13 166.62 181.11 167.65 181.29 C 168.67 181.47 169.65 180.79 169.83 179.77 L 170.02 178.74 C 170.20 177.71 169.52 176.73 168.50 176.55 C 167.47 176.37 166.49 177.05 166.31 178.07 Z M 166.17 179.05 L 165.96 180.03 C 165.75 181.03 166.39 182.01 167.39 182.22 C 168.39 182.43 169.37 181.79 169.59 180.79 L 169.79 179.82 C 170.00 178.82 169.36 177.84 168.36 177.62 C 167.36 177.41 166.38 178.05 166.17 179.05 Z M 166.00 180.00 L 165.85 180.65 C 165.63 181.63 166.24 182.61 167.22 182.83 C 168.20 183.06 169.18 182.44 169.41 181.46 L 169.55 180.81 C 169.78 179.83 169.16 178.85 168.18 178.63 C 167.20 178.41 166.22 179.02 166.00 180.00 Z"
      fill="black"
      fill-rule="nonzero" /><path d="M 172.72 160.12 L 173.58 160.47 C 174.72 160.95 176.02 160.41 176.49 159.27 C 176.97 158.13 176.42 156.83 175.29 156.35 L 174.42 156.00 C 173.28 155.52 171.98 156.06 171.51 157.20 C 171.04 158.34 171.58 159.65 172.72 160.12 Z M 173.62 160.53 L 174.60 160.91 C 175.77 161.36 177.08 160.78 177.53 159.61 C 177.98 158.44 177.40 157.13 176.23 156.68 L 175.25 156.30 C 174.08 155.85 172.77 156.43 172.32 157.60 C 171.87 158.77 172.45 160.08 173.62 160.53 Z M 174.66 160.95 L 175.59 161.28 C 176.78 161.70 178.09 161.08 178.51 159.89 C 178.93 158.70 178.31 157.39 177.12 156.97 L 176.18 156.64 C 174.99 156.22 173.69 156.84 173.27 158.03 C 172.84 159.22 173.47 160.53 174.66 160.95 Z M 175.59 161.28 L 176.56 161.62 C 177.75 162.05 179.06 161.42 179.48 160.23 C 179.90 159.04 179.28 157.73 178.09 157.31 L 177.12 156.97 C 175.93 156.55 174.62 157.17 174.20 158.36 C 173.78 159.55 174.40 160.86 175.59 161.28 Z M 176.50 161.60 L 177.45 161.97 C 178.63 162.42 179.95 161.83 180.40 160.66 C 180.86 159.48 180.27 158.16 179.10 157.71 L 178.14 157.34 C 176.97 156.88 175.65 157.47 175.19 158.65 C 174.74 159.82 175.32 161.14 176.50 161.60 Z M 177.34 161.89 L 178.25 162.31 C 179.39 162.82 180.73 162.32 181.24 161.19 C 181.76 160.05 181.26 158.71 180.12 158.19 L 179.21 157.78 C 178.07 157.26 176.73 157.76 176.22 158.90 C 175.70 160.04 176.20 161.38 177.34 161.89 Z M 178.14 162.22 L 178.98 162.67 C 180.07 163.25 181.42 162.84 182.00 161.75 C 182.58 160.66 182.17 159.31 181.08 158.73 L 180.23 158.28 C 179.15 157.70 177.80 158.11 177.22 159.20 C 176.64 160.29 177.05 161.64 178.14 162.22 Z M 178.88 162.59 L 179.72 163.10 C 180.77 163.74 182.13 163.41 182.76 162.36 C 183.40 161.32 183.07 159.96 182.02 159.32 L 181.18 158.81 C 180.14 158.18 178.78 158.51 178.14 159.55 C 177.51 160.60 177.84 161.96 178.88 162.59 Z M 179.59 163.01 L 180.43 163.60 C 181.42 164.31 182.80 164.08 183.51 163.08 C 184.21 162.09 183.98 160.71 182.99 160.00 L 182.15 159.41 C 181.16 158.71 179.78 158.94 179.07 159.93 C 178.37 160.93 178.60 162.31 179.59 163.01 Z M 180.28 163.47 L 181.03 164.11 C 181.95 164.90 183.34 164.79 184.12 163.87 C 184.91 162.95 184.80 161.56 183.88 160.77 L 183.13 160.14 C 182.21 159.35 180.82 159.46 180.04 160.38 C 179.25 161.30 179.36 162.69 180.28 163.47 Z M 180.89 163.95 L 181.59 164.67 C 182.42 165.53 183.79 165.56 184.66 164.73 C 185.52 163.90 185.54 162.53 184.71 161.66 L 184.01 160.94 C 183.18 160.08 181.81 160.05 180.95 160.88 C 180.09 161.71 180.06 163.09 180.89 163.95 Z M 181.46 164.49 L 182.08 165.28 C 182.81 166.22 184.15 166.38 185.09 165.66 C 186.03 164.93 186.19 163.58 185.46 162.64 L 184.85 161.85 C 184.12 160.91 182.77 160.74 181.83 161.47 C 180.90 162.20 180.73 163.55 181.46 164.49 Z M 181.94 165.08 L 182.47 165.93 C 183.08 166.94 184.40 167.26 185.41 166.64 C 186.42 166.03 186.74 164.71 186.12 163.70 L 185.60 162.85 C 184.98 161.84 183.67 161.52 182.66 162.13 C 181.65 162.75 181.33 164.07 181.94 165.08 Z M 182.33 165.68 L 182.74 166.59 C 183.21 167.67 184.47 168.16 185.55 167.69 C 186.63 167.22 187.13 165.95 186.65 164.87 L 186.25 163.96 C 185.78 162.88 184.52 162.39 183.43 162.86 C 182.35 163.33 181.86 164.59 182.33 165.68 Z M 182.63 166.29 L 182.89 167.25 C 183.20 168.39 184.38 169.06 185.52 168.75 C 186.66 168.44 187.33 167.26 187.02 166.12 L 186.76 165.17 C 186.45 164.03 185.27 163.36 184.13 163.67 C 182.99 163.98 182.32 165.15 182.63 166.29 Z M 182.83 167.00 L 182.98 168.00 C 183.16 169.17 184.25 169.98 185.42 169.80 C 186.59 169.63 187.40 168.53 187.22 167.36 L 187.08 166.37 C 186.90 165.20 185.81 164.39 184.64 164.56 C 183.46 164.74 182.66 165.83 182.83 167.00 Z M 182.95 167.83 L 183.02 168.87 C 183.10 170.05 184.13 170.95 185.32 170.87 C 186.51 170.79 187.41 169.76 187.32 168.57 L 187.25 167.53 C 187.17 166.34 186.14 165.45 184.95 165.53 C 183.77 165.61 182.87 166.64 182.95 167.83 Z M 183.00 168.73 L 183.00 169.75 C 183.01 170.95 183.99 171.92 185.19 171.91 C 186.39 171.91 187.36 170.93 187.35 169.73 L 187.35 168.71 C 187.34 167.51 186.36 166.54 185.16 166.55 C 183.96 166.55 183.00 167.53 183.00 168.73 Z M 182.99 169.58 L 182.92 170.53 C 182.83 171.74 183.74 172.79 184.95 172.88 C 186.16 172.96 187.21 172.06 187.29 170.85 L 187.36 169.90 C 187.45 168.69 186.54 167.64 185.34 167.55 C 184.13 167.47 183.08 168.37 182.99 169.58 Z M 182.95 170.20 L 182.74 171.13 C 182.46 172.33 183.21 173.51 184.40 173.78 C 185.59 174.06 186.78 173.31 187.05 172.12 L 187.26 171.18 C 187.54 169.99 186.79 168.81 185.60 168.53 C 184.41 168.26 183.23 169.00 182.95 170.20 Z M 182.88 170.68 L 182.45 171.59 C 181.92 172.70 182.40 174.03 183.51 174.55 C 184.63 175.08 185.95 174.60 186.48 173.49 L 186.91 172.58 C 187.44 171.47 186.96 170.14 185.85 169.61 C 184.73 169.09 183.40 169.56 182.88 170.68 Z M 182.58 171.34 L 182.03 172.21 C 181.37 173.25 181.68 174.62 182.72 175.28 C 183.76 175.94 185.14 175.63 185.80 174.59 L 186.35 173.73 C 187.01 172.69 186.70 171.31 185.66 170.65 C 184.62 169.99 183.24 170.30 182.58 171.34 Z M 182.13 172.08 L 181.53 172.89 C 180.80 173.88 181.01 175.27 182.00 176.00 C 182.99 176.73 184.38 176.52 185.11 175.53 L 185.71 174.72 C 186.43 173.73 186.22 172.34 185.24 171.61 C 184.25 170.88 182.86 171.09 182.13 172.08 Z M 181.66 172.76 L 180.95 173.56 C 180.15 174.48 180.24 175.87 181.16 176.68 C 182.07 177.48 183.47 177.39 184.27 176.47 L 184.98 175.67 C 185.78 174.75 185.69 173.36 184.78 172.55 C 183.86 171.75 182.46 171.84 181.66 172.76 Z M 181.12 173.42 L 180.45 174.04 C 179.56 174.87 179.52 176.25 180.34 177.14 C 181.17 178.02 182.55 178.07 183.44 177.24 L 184.11 176.62 C 184.99 175.79 185.04 174.41 184.21 173.52 C 183.39 172.64 182.00 172.59 181.12 173.42 Z M 180.55 173.97 L 179.78 174.60 C 178.86 175.38 178.73 176.75 179.51 177.68 C 180.28 178.60 181.66 178.73 182.58 177.95 L 183.34 177.32 C 184.27 176.54 184.39 175.17 183.62 174.24 C 182.85 173.32 181.47 173.19 180.55 173.97 Z M 179.89 174.54 L 179.09 175.13 C 178.13 175.84 177.93 177.20 178.65 178.16 C 179.36 179.12 180.71 179.32 181.67 178.61 L 182.47 178.02 C 183.43 177.31 183.63 175.95 182.92 174.99 C 182.21 174.03 180.85 173.83 179.89 174.54 Z M 179.20 175.11 L 178.36 175.68 C 177.39 176.33 177.14 177.65 177.79 178.62 C 178.45 179.59 179.76 179.85 180.73 179.19 L 181.57 178.63 C 182.54 177.97 182.80 176.65 182.14 175.68 C 181.49 174.71 180.17 174.46 179.20 175.11 Z M 178.43 175.71 L 177.58 176.27 C 176.63 176.88 176.36 178.15 176.98 179.10 C 177.59 180.05 178.86 180.32 179.81 179.71 L 180.66 179.16 C 181.61 178.54 181.88 177.27 181.27 176.32 C 180.65 175.37 179.39 175.10 178.43 175.71 Z M 177.69 176.29 L 176.85 176.79 C 175.91 177.35 175.60 178.56 176.16 179.49 C 176.72 180.43 177.92 180.74 178.86 180.18 L 179.70 179.68 C 180.64 179.12 180.95 177.92 180.39 176.98 C 179.83 176.04 178.63 175.74 177.69 176.29 Z M 176.99 176.76 L 176.16 177.18 C 175.21 177.66 174.82 178.81 175.30 179.77 C 175.78 180.72 176.93 181.10 177.89 180.63 L 178.72 180.21 C 179.67 179.73 180.05 178.57 179.58 177.62 C 179.10 176.67 177.94 176.29 176.99 176.76 Z M 176.26 177.14 L 175.31 177.56 C 174.33 177.98 173.89 179.11 174.31 180.08 C 174.73 181.05 175.86 181.50 176.83 181.08 L 177.78 180.66 C 178.76 180.24 179.20 179.11 178.78 178.14 C 178.36 177.17 177.23 176.72 176.26 177.14 Z M 175.36 177.54 L 174.47 177.90 C 173.49 178.29 173.01 179.40 173.40 180.38 C 173.79 181.36 174.90 181.83 175.88 181.44 L 176.77 181.09 C 177.75 180.70 178.23 179.59 177.84 178.61 C 177.45 177.63 176.34 177.15 175.36 177.54 Z M 174.54 177.88 L 173.55 178.23 C 172.56 178.58 172.04 179.67 172.39 180.66 C 172.74 181.65 173.83 182.17 174.82 181.81 L 175.81 181.46 C 176.80 181.11 177.32 180.03 176.97 179.04 C 176.62 178.04 175.53 177.53 174.54 177.88 Z M 173.66 178.21 L 172.66 178.50 C 171.66 178.79 171.08 179.84 171.38 180.84 C 171.67 181.84 172.72 182.42 173.72 182.13 L 174.72 181.83 C 175.72 181.54 176.29 180.49 176.00 179.49 C 175.71 178.49 174.66 177.92 173.66 178.21 Z M 172.77 178.50 L 171.79 178.73 C 170.79 178.96 170.17 179.96 170.40 180.96 C 170.63 181.96 171.63 182.59 172.64 182.35 L 173.61 182.13 C 174.61 181.89 175.23 180.89 175.00 179.89 C 174.77 178.89 173.77 178.27 172.77 178.50 Z M 171.86 178.75 L 170.88 178.94 C 169.89 179.14 169.25 180.10 169.45 181.09 C 169.64 182.08 170.61 182.72 171.60 182.53 L 172.57 182.33 C 173.56 182.14 174.20 181.17 174.00 180.18 C 173.81 179.19 172.85 178.55 171.86 178.75 Z M 170.90 178.96 L 170.60 179.02 C 169.62 179.20 168.98 180.15 169.17 181.13 C 169.35 182.11 170.30 182.75 171.28 182.56 L 171.58 182.51 C 172.56 182.32 173.20 181.38 173.01 180.40 C 172.83 179.42 171.88 178.77 170.90 178.96 Z"
      fill="black"
      fill-rule="nonzero" /></svg>