<svg xmlns="http://www.w3.org/2000/svg" width="300" height="300" viewBox="0 0 300 300">
<path d="M 122.4329313153443 114.86385348980046 L 120.37305375359577 115.9645380687487 L 118.86153720113079 118.17906964091942 L 117.70718151225923 120.98943930965429 L 116.9458030919828 123.12734717324447 L 116.12375187845659 125.82756386061651 L 115.24438895116053 128.94644275522876 L 114.17571517062856 132.78106564252874 L 113.17651113239933 136.64413653299712 L 112.18154211096308 140.7421524345124 L 111.18708885178091 144.9138222820282 L 110.2629787286337 149.01637626010722 L 109.39907938998559 152.81678672430553 L 108.48696577692785 156.64002989561791 L 107.88591589926585 159.2602969893703 L 107.49833918037673 161.4815512816636 L 107.16690869449761 163.33099965148935 L 109.48480083980303 168.20759619549014 L 112.69584425542008 164.19065287535977 L 109.70100633051742 162.16884419495273 L 108.80682513675947 164.23283349200986 L 111.26876025081489 163.70415659851065 L 111.58552312431077 162.2503823120864 L 111.99018273354665 160.1173885575047 L 112.57748734807215 157.60765076844459 L 113.50192158657691 153.77342323663197 L 114.3665378729288 149.94138741176778 L 115.27897560134409 145.8609579914093 L 116.26511316247442 141.7245223701751 L 117.25073496135067 137.66457928731538 L 118.23212174343394 133.87017947465876 L 119.28808175196447 130.07235607289624 L 120.13723444966841 126.98518028000849 L 120.8996558923922 124.40524560019303 L 121.57870715961577 122.46417397159571 L 122.54898525980671 119.99439227314308 L 123.12609175421673 118.9307256031263 L 124.2351595049682 118.42984768207454 Z" fill="black" />
<path d="M 123.028994714716 127.44463956067227 L 124.77568956420518 127.59531618977216 L 127.99827660156859 128.57283525076508 L 131.07065440174097 129.16364846632283 L 132.67689283548273 129.48352257886688 L 133.40098802389227 125.9567850383206 L 131.83828114513403 125.62602438523966 L 128.9688864843689 124.89054365548492 L 125.60150770141982 123.89113400554034 L 123.387020910284 123.66644442370273 Z" fill="black" />
<path d="M 120.57599026410557 139.9841569961929 L 117.02145648002625 142.296875 L 121.07715334161946 144.4387426666729 L 123.66601471770748 143.89442526537664 L 126.6808526359286 143.08258579767335 L 128.12487201492618 142.58985737801427 L 129.71677433102886 142.13665433868888 L 132.18962114960607 141.3765596756844 L 134.17393766754284 140.89049707381355 L 133.38038362151966 137.37207616837395 L 131.25947553008143 137.8119168868156 L 128.72682918459614 138.50323823943612 L 127.14978618819883 138.82579203604823 L 125.6769354500089 139.13384486638915 L 122.75000090729252 139.77342141431086 L 120.58544431463054 140.1550073333271 L 121.32815289497375 142.296875 L 121.08660739214443 144.2092023788071 Z" fill="black" />
<path d="M 118.18545775179318 150.32367107841242 L 117.33544179584686 155.06132863889843 L 121.27852471174471 154.3606414128741 L 123.93129250591328 153.08591463556306 L 125.54498305920012 152.2161148573944 L 127.1371743161614 151.32601646449987 L 128.70378736086633 150.43708616740952 L 130.55572667969372 149.37433961861782 L 132.13673160734112 148.4048388080987 L 133.61969929358926 147.51062600873408 L 136.145189048798 146.0588853589843 L 138.07394576212943 145.0834864572065 L 136.46645951130807 141.8625584646685 L 134.4340345840145 142.8640882738282 L 131.80998820641074 144.31517965532842 L 130.26805354890888 145.1476514262763 L 128.68011316405628 146.00493284231968 L 126.82294603757116 146.94413941852798 L 125.2206137697761 147.75686927768763 L 123.64385971423738 148.5684310410431 L 122.08860495502422 149.30019376287444 L 119.73587958513029 150.4027863215009 L 118.92554453227814 151.12849069703907 L 120.84835572476932 153.63897540596258 Z" fill="black" />
<path d="M 127.31126582622528 141.1707763671875 L 127.13097929954529 144.59912109375 L 127.12826871871948 146.3758544921875 L 127.12826871871948 148.61553955078125 L 127.13143229484558 151.3807373046875 L 127.13969659805298 154.358642578125 L 127.15091679525447 157.49394093328496 L 127.11349111463585 160.77464278563482 L 127.05927444090624 164.0579957939882 L 127.00666176971397 167.09145946434876 L 126.98090410276794 170.25156039676324 L 126.9362173307215 172.4700281372219 L 126.89336256174745 174.4852371151018 L 126.92819690704346 177.21844482421875 L 130.6473286979224 178.07873709301361 L 130.47352234835037 176.51997983288388 L 126.88975890164961 176.86588442492862 L 127.1120707161401 179.41113107104889 L 130.83120250701904 177.21844482421875 L 130.86603685231503 174.5463790958357 L 130.967225052091 172.6077306518406 L 131.06658124879456 170.34682827511176 L 131.148855808411 167.17575244971374 L 131.24028610596878 164.1533079169493 L 131.33011240098915 160.85524002686518 L 131.400718946933 157.52949656671504 L 131.41193914413452 154.358642578125 L 131.42020344734192 151.3807373046875 L 131.42336702346802 148.61553955078125 L 131.42336702346802 146.3758544921875 L 131.4206564426422 144.59912109375 L 131.24036991596222 141.1707763671875 Z" fill="black" />
<path d="M 118.64901334564586 160.4600017097789 L 114.11580534147124 161.90964676125762 L 117.717740843295 165.65008335197246 L 121.58330876269096 166.55488727924026 L 124.62350720183919 167.25417371113264 L 127.74888932855836 167.9724114317937 L 128.57008039800414 164.4680182557063 L 125.50161486847331 163.73483996074236 L 122.60004084668404 162.85758830669724 L 118.9393636488925 161.63531703865254 L 117.89591340852876 163.79921554342988 L 119.19644563872914 164.4480793449086 Z" fill="black" />
<path d="M 136.81006239672473 160.24399260465958 L 134.79673139349035 161.21743614029856 L 133.0198829014132 163.52203574305938 L 131.39801324823 165.93210203254486 L 130.29829607156685 167.50111048609807 L 129.06200044984382 169.1610708412582 L 127.7130010402009 170.92044970293688 L 126.23843539678982 172.6670998048591 L 124.68224387776345 174.46026453002204 L 123.15227213453879 176.03607650349252 L 121.42661827941717 177.63404826497037 L 120.21015233270748 178.75077619426602 L 116.32929341587743 183.0327767329841 L 121.94772260316476 184.95423388477656 L 124.80993180465896 184.4320483677682 L 127.9512097144721 183.42401744706888 L 129.65245709352382 182.63981738148948 L 131.4880011066614 181.74536558535047 L 133.0438740955528 180.8771265271885 L 134.6648638357888 179.9355050752296 L 136.2673952022002 178.8753044204692 L 137.76471080705176 177.91200771177122 L 139.21299825848038 176.96982440534265 L 140.71273139353215 176.05093020771673 L 138.83316704396785 172.98068600322077 L 137.30799783526962 173.91359844621985 L 135.83941516951074 174.82322178041628 L 134.3118284306123 175.7117317123433 L 132.7454144845237 176.6284597685204 L 131.1974589122597 177.3884984728115 L 129.7284295574011 178.09679750058703 L 127.99891009397618 178.80390820444802 L 126.5312121605279 179.32097767011862 L 123.73071760940354 180.1647533900443 L 121.55142290464774 180.56847119334844 L 120.57988627162257 182.6150504154534 L 122.78484278448002 181.64192400104648 L 124.05311804870783 180.38133259440463 L 125.78449544358621 178.67608169963248 L 127.42346901286155 176.94867101685296 L 129.0362228063352 175.0632468748284 L 130.5865595066741 173.25643017987562 L 132.01038724546868 171.4373178306168 L 133.29484357687065 169.81907994358943 L 134.5718353845825 168.33510988151764 L 136.3709862392118 166.14068398350312 L 137.76308305963465 164.61654823470144 L 138.77465440015027 164.01345368440292 Z" fill="black" />
<path d="M 139.6076837171563 115.05851352549236 L 141.27942850357547 115.31379764919275 L 143.60861357901797 115.31405739798274 L 146.76415676400367 114.61122828413345 L 148.41095997345414 114.1739414170006 L 150.20316128568157 113.74964966089192 L 152.0104247868098 113.23239008488518 L 157.04797080701925 111.88022026972517 L 159.2212923826312 111.36552503343016 L 158.4959927736188 107.83943102125734 L 156.16797157579325 108.25063910527483 L 151.0504882991277 109.52603276667732 L 149.29268832369343 109.93467651098308 L 147.51982615935836 110.2861415908119 L 145.85364108755883 110.64963597367905 L 143.06741181160703 111.27310080514226 L 141.43541524642453 111.27336055393225 L 139.9382147203437 111.25337612294514 Z" fill="black" />
<path d="M 146.93665112474278 115.98872848829218 L 144.73761138281844 118.09612479084007 L 145.57179012291815 120.78252445124691 L 145.9119795786642 122.81283504069128 L 146.09534123581875 124.32393635692044 L 146.16307789875333 126.02148379550978 L 146.23390881105365 127.89424758716744 L 146.23349356651306 129.89727783203125 L 146.23237371444702 131.936767578125 L 146.2311053276062 133.98876953125 L 146.22584456082177 136.13948217968647 L 146.35086666887753 139.4228191109741 L 146.93410418586492 142.0479733915672 L 148.6878917305799 144.49064410810334 L 151.68928786891323 145.1823947855898 L 154.3878167688655 145.06024289803486 L 157.3352628292284 143.81376659312673 L 158.81293782186276 142.8468627652707 L 160.26892176665118 141.8350433034863 L 161.80844710419115 140.59211272544098 L 163.21517904345774 139.29377564742916 L 164.6438274080627 137.79731546793784 L 162.0401325528748 135.31022847737466 L 160.69595376904226 136.71660032913334 L 159.47390152862135 137.79558258705902 L 158.09655674897382 138.8048492746387 L 156.77971354532474 139.6198120394168 L 155.6286043582716 140.22944629749827 L 153.426514285822 141.11004518790264 L 152.01981857639927 141.1130153706602 L 150.8079578787951 141.00398479814666 L 150.72519757194758 140.5688478974953 L 150.37215579205997 138.9648762015259 L 150.24510270480323 136.04215844531353 L 150.2398419380188 133.98876953125 L 150.23857355117798 131.936767578125 L 150.23745369911194 129.89727783203125 L 150.23703845457135 127.82132858470756 L 150.16382639812167 125.86535702480272 L 150.08752009230625 124.00943766651706 L 149.8747635853983 122.21731632649622 L 149.42271671301935 119.64313472844059 L 148.67242279686906 118.90118966228493 L 149.13817797681972 119.15677932420782 Z" fill="black" />
<path d="M 154.10746669769287 111.70452880859375 L 154.10578870773315 113.55633544921875 L 154.10682673438592 115.17537820680634 L 154.18150996773636 116.9495224799637 L 154.18630635738373 118.6988525390625 L 154.2043162892082 120.05372179284151 L 153.8397788114801 121.79207329517008 L 157.6836586885199 122.58744330639242 L 158.1113575389168 120.49705945715849 L 158.12936747074127 118.6988525390625 L 158.13416386038864 116.8696913872238 L 158.06480412498908 115.09036886350616 L 158.06584215164185 113.55633544921875 L 158.06416416168213 111.70452880859375 Z" fill="black" />
<path d="M 150.40178000845984 124.55914136704041 L 147.64691591686935 127.61583018137172 L 151.7419950413938 128.93702020711257 L 153.59259725812947 128.5132456623746 L 155.68207512933617 127.94729070527698 L 157.99083653961935 127.39103315941392 L 160.9668684248196 126.77456147570096 L 162.35568409297994 126.58218689976175 L 161.90718698256674 125.33417623090641 L 161.2656829016481 124.60005898722926 L 159.6853436306511 125.97040196275483 L 156.69741277374234 128.52362128229814 L 155.00222882982627 129.91460148591142 L 153.51445326328425 131.13265406171166 L 151.58514856380162 132.90911045089607 L 153.99651647526088 135.59394130691643 L 155.88435044765325 133.94205296953834 L 157.31344499829873 132.90790827971358 L 159.18332453094516 131.54620293645186 L 162.2451983615364 128.94439295912017 L 164.1218903405394 127.28678183308324 L 165.46097707993326 123.79997904253109 L 161.95156688358256 122.80221251430075 L 160.3154802079929 123.01022856336154 L 157.20569666350565 123.56990434058608 L 154.76104010503883 124.06467218534802 L 152.63726114030803 124.57476703293791 L 151.0668428492312 124.92674932413743 L 151.59685849719315 126.64832997487828 L 152.11897194466516 128.1284807032721 Z" fill="black" />
<path d="M 154.93044813011647 133.32054838755326 L 155.1184560829464 135.44298726057875 L 155.72630262058658 137.33817306691196 L 156.16006677471316 139.51317769662373 L 156.56569633668263 141.69315923823547 L 160.10727729612987 141.04878412113953 L 159.72067052997434 138.87451761587627 L 159.36219835597592 136.57015212840054 L 159.0337655967411 134.76172465348375 L 158.82565538550853 132.93030610463424 Z" fill="black" />
<path d="M 171.3748740620475 109.05975650273811 L 171.44371970862727 111.05076737858963 L 171.39826679279085 112.28433847253422 L 171.16959842334157 113.72201827006697 L 170.74641602837403 115.42946220305738 L 170.29648755570125 117.33880850736462 L 169.84686182118415 119.07359386874836 L 169.3425002945769 120.80519343465905 L 168.8345697833949 122.34136063154482 L 167.99125898000617 124.8881762534419 L 168.18021826226195 129.1766258657769 L 172.21300872330144 128.12609377565002 L 175.1599221778725 126.5495981615942 L 178.3851996300494 124.89283019467165 L 180.65522241863593 123.76004405398692 L 182.78471755104383 122.6545159818178 L 184.31109144153197 121.99868348736642 L 182.92096422253053 118.67721983294608 L 181.27839280051867 119.3476812838072 L 179.05058812823907 120.34420399288808 L 176.6752251746381 121.33849304751585 L 173.3105368065025 122.9599233227808 L 170.31567780013606 124.56152829466248 L 170.13521142523805 125.73816905609809 L 171.76460039499383 126.2229077309331 L 172.6498052166051 123.61469405595518 L 173.1861862288606 121.99778508096595 L 173.72613622569085 120.15089343593914 L 174.21278978804875 118.33221200044788 L 174.69914061225097 116.41282295319262 L 175.17622677197093 114.56680008930803 L 175.48771953533415 112.72628164465328 L 175.58630958824773 110.90687422297287 L 175.259037070765 108.69378353632439 Z" fill="black" />
<path d="M 171.46357988115685 138.98346008753435 L 172.53486034703673 138.26004464486127 L 174.3974215975889 137.38544313525847 L 176.77639718467302 136.43595660430492 L 179.34626483378344 135.5488475381577 L 181.3575547876326 135.06473537091026 L 183.58166666105495 134.9621113344728 L 183.25427083894505 131.1636210874022 L 180.8329969701799 131.46138767596474 L 178.37895489277906 131.9031788290298 L 175.51120047157698 132.71772991913258 L 172.8846828945986 133.62005002880403 L 170.53398730921327 134.59725515982623 L 169.08451582196815 135.70062194371565 Z" fill="black" />
<path d="M 156.25455658778947 149.85196828510348 L 152.29526188679952 148.8656738140145 L 152.59680773973074 153.02866824599212 L 153.69489307753736 155.10710939400727 L 154.9380079470364 157.75902182005728 L 155.6589313975891 159.25468595157477 L 156.33268163331715 160.9028507744802 L 157.09072050625687 162.750766077195 L 157.99844599496691 164.8870333626651 L 158.7460554046958 166.77703159503977 L 159.51714129776283 168.69251877300107 L 160.27977077248934 170.55485737940498 L 161.78374943453935 173.90888881469522 L 164.13354688611852 175.6645298416271 L 166.25951952013148 172.7164516036854 L 164.79217829983565 171.71940708374228 L 163.77540500876066 169.11762797215752 L 163.09760479598717 167.30137771137393 L 162.3922502593667 165.38812953777273 L 161.69942998159559 163.4493924185849 L 160.87863984530563 161.2564360712425 L 160.19624903074535 159.4007380927073 L 159.5376018055359 157.62055818905023 L 158.8180955685886 155.96314614869272 L 157.54045848496264 153.20978513724273 L 156.40587780714426 151.05910030869538 L 155.12295100382548 152.069018568798 L 154.08052642002303 153.05965280864652 Z" fill="black" />
<path d="M 159.70036406061857 161.34889169802506 L 157.73276697226908 160.56428500751804 L 155.99463669209956 160.524818872936 L 157.01356516341434 163.71795204936154 L 159.32540059974843 162.85190760663968 L 160.8981307489914 162.2664557662547 L 162.50462923508732 161.68294557364507 L 164.3481593528677 161.09802208025363 L 166.26969157646164 160.4229420028918 L 168.19477409052192 159.7689861337683 L 170.22572101450737 159.16789715359133 L 172.35846968938066 158.436084732486 L 174.2048450885666 157.96774469405108 L 175.96966138568578 157.48100382143227 L 177.63227099929372 157.08181427956922 L 179.0854383616289 156.74643502403143 L 181.69268638556935 156.42270625459986 L 182.18125228664272 155.75762857259926 L 181.24292336615332 155.4951755586695 L 180.33483738491626 156.8640345260551 L 177.92160426421356 161.18604960712835 L 176.72928099118906 163.54643372534525 L 175.4880761209169 166.0377142295568 L 174.47990762115452 168.35278146439322 L 173.55684031095396 170.5405654322992 L 172.79105582325263 172.2846295185957 L 171.69595443382224 173.74113585398348 L 174.54183853492776 175.96613953664152 L 175.93147835643487 174.2445452860918 L 177.03825246248354 172.1848984348883 L 178.09577597259548 170.01843435591928 L 179.1762305197081 167.8541314735682 L 180.45577760256094 165.46565123559225 L 181.64016331391144 163.19651875224665 L 183.98034816195874 158.9601842239449 L 185.05285300103418 157.1759670194555 L 185.15883560398228 153.20990072427574 L 181.43414466911815 152.54482304227514 L 178.4957383961836 152.87172903846857 L 176.77996044601878 153.21200896261828 L 175.02154955181422 153.58857625669273 L 173.2213023723709 154.02773870438642 L 171.21452835749434 154.485301986264 L 168.98997722768013 155.20490558078367 L 166.95171028447808 155.7799640615442 L 164.91561115791336 156.4523021377332 L 163.0200047096323 157.10351600568387 L 161.15442838210018 157.69473997322993 L 159.4479385869461 158.3124016556203 L 157.85172342368907 158.90309727617282 L 155.55418386002316 159.76373740376346 L 153.65624221415044 164.007895970814 L 156.95961584023092 164.34379604716946 L 158.26899629094393 164.88548330197494 Z" fill="black" />
<path d="M 166.80949792138844 158.0893802375204 L 165.06700410027102 160.0194932972902 L 164.91348922252655 162.52911376953125 L 164.95436203479767 165.03155517578125 L 165.03192687034607 167.7967529296875 L 165.10114876857145 170.67184518295525 L 165.6597618382595 173.59871248324202 L 169.1986365992405 172.93046232144548 L 168.71293814549105 170.32693411391975 L 168.78216004371643 167.7967529296875 L 168.85972487926483 165.03155517578125 L 168.90059769153595 162.52911376953125 L 168.74708281379148 161.6103895152098 L 169.63337317236156 160.8879146843546 Z" fill="black" />
<path d="M 172.0354105521576 158.48116945229572 L 171.73841990089923 160.6543984524163 L 170.98857319741919 162.98593854014473 L 170.51747801407492 164.4890297077219 L 169.9640925013223 166.13560592379432 L 169.35619455361964 167.8514623753287 L 168.73598131926903 169.60138573115552 L 167.99248326844142 171.40882947786835 L 167.1785439526159 173.27437615942625 L 166.45273511218235 174.6889673457774 L 165.76305673242223 175.83978801008863 L 164.0970810806449 177.70388314752856 L 162.33716965087754 178.8557430842385 L 160.5641403944383 179.1214080052542 L 158.17524624401503 179.25345585972102 L 155.89580192638937 179.63040552027064 L 154.0253462585499 180.08794116425247 L 150.2376432295872 182.1860081507538 L 154.71761298614805 184.97268644403366 L 157.9329373501631 184.30399003934698 L 162.19023115112353 183.5582849010145 L 163.9487747868753 183.22138848914142 L 165.55617081129458 182.89596959851457 L 167.06876801434527 182.56728861649435 L 168.68619594568864 182.23033972336026 L 170.28145367398272 181.90613268265957 L 172.00718452244166 181.6296474428636 L 173.95256220117892 181.20170295457004 L 175.41061930562964 180.92784084506928 L 176.99206539605314 180.64724849857018 L 178.42581218925486 180.377721801921 L 181.19829571295625 180.01055321642187 L 182.63589676428455 179.85321618197648 L 184.53710039339137 179.80950025058004 L 188.4925095721432 179.05700261968207 L 187.51544992374204 175.0831929739827 L 184.07390554500796 177.0014017525798 L 185.0774367169193 176.58105890375543 L 184.67554609098363 175.55329271816996 L 182.47152511071545 175.50957678677352 L 180.74018084954375 175.62750830701563 L 177.82296710762014 175.9109744871415 L 176.23181155707186 176.16696048580482 L 174.64431233499536 176.41188083461822 L 173.07746709569608 176.66353142042996 L 171.16969536037084 177.0363681821364 L 169.47440570101728 177.28539563765293 L 167.75667514806136 177.61182336257724 L 166.09712554034223 177.95053364913065 L 164.58482039964292 178.27248743273543 L 163.0232711115622 178.59770330773358 L 161.32478349731397 178.936466075548 L 157.0115206576494 179.76729902315302 L 153.88895439666445 180.55001863409134 L 154.1556673172878 183.8622096226837 L 155.3734574523876 183.58295727324753 L 156.67194709704813 183.26473608129186 L 158.60575961535997 182.84090449184148 L 160.9702834336867 182.6976837916208 L 163.69859695068496 182.187591876699 L 166.4400282943551 180.43661978215894 L 168.59119131445277 178.07158894303637 L 169.59401781750515 176.4697240604726 L 170.4526816333216 174.85636114526125 L 171.36725794249608 172.89317247525665 L 172.20823254791847 170.99700294071948 L 172.92041677450536 169.1934594996713 L 173.6089055455527 167.48097122464318 L 174.24387452498758 165.8243247844656 L 174.85310160726831 164.29946185048027 L 175.79575978660077 161.5009970553962 L 175.8948872994049 158.79446531332928 Z" fill="black" />
</svg>