<svg xmlns="http://www.w3.org/2000/svg" width="300" height="300" viewBox="0 0 300 300">
<path d="M 132.83 125.04 L 132.88 124.33 C 132.95 123.28 132.17 122.37 131.12 122.29 C 130.08 122.22 129.17 123.00 129.09 124.05 L 129.04 124.76 C 128.96 125.81 129.75 126.72 130.79 126.79 C 131.84 126.87 132.75 126.08 132.83 125.04 Z M 129.04 124.42 L 129.13 125.12 C 129.26 126.19 130.24 126.95 131.31 126.82 C 132.38 126.69 133.14 125.71 133.01 124.64 L 132.92 123.95 C 132.79 122.88 131.82 122.12 130.75 122.25 C 129.68 122.38 128.91 123.35 129.04 124.42 Z M 129.11 125.06 L 129.21 126.20 C 129.31 127.28 130.27 128.08 131.35 127.98 C 132.43 127.88 133.23 126.92 133.13 125.84 L 133.03 124.70 C 132.93 123.62 131.97 122.82 130.89 122.92 C 129.81 123.02 129.01 123.98 129.11 125.06 Z M 129.20 126.16 L 129.29 127.35 C 129.37 128.44 130.32 129.26 131.40 129.18 C 132.49 129.10 133.31 128.15 133.23 127.06 L 133.14 125.88 C 133.06 124.79 132.12 123.97 131.03 124.05 C 129.94 124.13 129.12 125.08 129.20 126.16 Z M 129.28 127.32 L 129.34 128.37 C 129.41 129.46 130.35 130.29 131.44 130.23 C 132.53 130.16 133.37 129.22 133.30 128.13 L 133.24 127.09 C 133.17 126.00 132.24 125.16 131.14 125.23 C 130.05 125.29 129.22 126.23 129.28 127.32 Z M 129.34 128.35 L 129.39 129.33 C 129.44 130.42 130.38 131.26 131.47 131.21 C 132.57 131.15 133.41 130.22 133.36 129.12 L 133.31 128.15 C 133.25 127.05 132.31 126.21 131.22 126.26 C 130.12 126.32 129.28 127.26 129.34 128.35 Z M 129.38 129.33 L 129.43 130.31 C 129.49 131.41 130.43 132.26 131.52 132.20 C 132.62 132.14 133.47 131.21 133.41 130.11 L 133.36 129.12 C 133.30 128.02 132.37 127.18 131.27 127.23 C 130.17 127.29 129.33 128.23 129.38 129.33 Z M 129.43 130.32 L 129.48 131.32 C 129.54 132.42 130.48 133.27 131.58 133.21 C 132.68 133.15 133.53 132.21 133.47 131.11 L 133.41 130.11 C 133.36 129.01 132.42 128.16 131.32 128.22 C 130.22 128.28 129.37 129.22 129.43 130.32 Z M 129.48 131.31 L 129.53 132.26 C 129.58 133.36 130.52 134.21 131.62 134.16 C 132.72 134.10 133.57 133.17 133.52 132.06 L 133.47 131.12 C 133.42 130.01 132.48 129.16 131.38 129.22 C 130.28 129.27 129.43 130.21 129.48 131.31 Z M 129.52 132.24 L 129.56 133.22 C 129.60 134.33 130.53 135.19 131.64 135.14 C 132.74 135.10 133.60 134.17 133.56 133.07 L 133.52 132.08 C 133.48 130.98 132.55 130.12 131.45 130.16 C 130.34 130.20 129.48 131.13 129.52 132.24 Z M 129.56 133.21 L 129.59 134.22 C 129.62 135.33 130.55 136.20 131.65 136.16 C 132.76 136.13 133.63 135.21 133.60 134.10 L 133.57 133.08 C 133.53 131.98 132.61 131.11 131.50 131.14 C 130.39 131.17 129.52 132.10 129.56 133.21 Z M 129.58 134.21 L 129.61 135.18 C 129.64 136.29 130.56 137.17 131.67 137.14 C 132.78 137.11 133.65 136.19 133.62 135.08 L 133.60 134.11 C 133.57 133.00 132.65 132.12 131.54 132.15 C 130.43 132.18 129.56 133.10 129.58 134.21 Z M 129.61 135.18 L 129.63 136.18 C 129.66 137.29 130.58 138.17 131.69 138.14 C 132.80 138.12 133.68 137.20 133.65 136.09 L 133.63 135.08 C 133.60 133.97 132.68 133.10 131.57 133.12 C 130.46 133.15 129.58 134.07 129.61 135.18 Z M 129.63 136.18 L 129.65 137.19 C 129.68 138.30 130.60 139.18 131.71 139.15 C 132.82 139.12 133.70 138.20 133.67 137.09 L 133.65 136.09 C 133.62 134.98 132.70 134.10 131.59 134.12 C 130.48 134.15 129.60 135.07 129.63 136.18 Z M 129.65 137.19 L 129.68 138.16 C 129.70 139.28 130.62 140.15 131.73 140.13 C 132.84 140.10 133.72 139.18 133.70 138.07 L 133.67 137.09 C 133.65 135.98 132.73 135.10 131.62 135.13 C 130.51 135.16 129.63 136.08 129.65 137.19 Z M 129.68 138.16 L 129.70 139.18 C 129.72 140.29 130.63 141.17 131.74 141.15 C 132.85 141.13 133.74 140.21 133.72 139.10 L 133.70 138.08 C 133.68 136.97 132.76 136.09 131.65 136.11 C 130.54 136.13 129.66 137.05 129.68 138.16 Z M 129.70 139.16 L 129.71 140.16 C 129.72 141.27 130.63 142.16 131.74 142.15 C 132.85 142.14 133.74 141.23 133.73 140.11 L 133.72 139.12 C 133.70 138.01 132.79 137.12 131.68 137.13 C 130.57 137.14 129.68 138.05 129.70 139.16 Z M 129.71 140.15 L 129.71 141.13 C 129.72 142.24 130.63 143.14 131.74 143.13 C 132.85 143.12 133.74 142.22 133.74 141.11 L 133.73 140.13 C 133.72 139.01 132.82 138.12 131.70 138.13 C 130.59 138.14 129.70 139.04 129.71 140.15 Z M 129.71 141.13 L 129.72 142.15 C 129.73 143.26 130.63 144.15 131.74 144.15 C 132.85 144.14 133.75 143.23 133.74 142.12 L 133.73 141.11 C 133.73 140.00 132.82 139.10 131.71 139.11 C 130.60 139.12 129.71 140.02 129.71 141.13 Z M 129.72 142.16 L 129.73 143.16 C 129.74 144.27 130.65 145.17 131.76 145.15 C 132.87 145.14 133.76 144.23 133.75 143.12 L 133.74 142.12 C 133.73 141.01 132.82 140.12 131.71 140.13 C 130.60 140.14 129.71 141.05 129.72 142.16 Z M 129.73 143.17 L 129.75 144.15 C 129.76 145.26 130.67 146.14 131.78 146.13 C 132.89 146.11 133.78 145.20 133.77 144.09 L 133.75 143.11 C 133.73 142.00 132.82 141.12 131.71 141.13 C 130.60 141.15 129.72 142.06 129.73 143.17 Z M 129.75 144.15 L 129.76 145.15 C 129.78 146.26 130.69 147.15 131.80 147.13 C 132.91 147.12 133.80 146.20 133.78 145.09 L 133.76 144.09 C 133.75 142.98 132.83 142.09 131.72 142.11 C 130.62 142.13 129.73 143.04 129.75 144.15 Z M 129.76 145.15 L 129.77 146.18 C 129.79 147.29 130.70 148.18 131.81 148.17 C 132.92 148.15 133.81 147.24 133.79 146.13 L 133.78 145.10 C 133.77 143.99 132.85 143.10 131.75 143.11 C 130.64 143.13 129.75 144.04 129.76 145.15 Z M 129.78 146.17 L 129.78 147.17 C 129.79 148.28 130.70 149.17 131.81 149.16 C 132.92 149.16 133.81 148.25 133.80 147.14 L 133.79 146.14 C 133.78 145.03 132.88 144.14 131.77 144.15 C 130.66 144.16 129.77 145.06 129.78 146.17 Z M 129.78 147.16 L 129.79 148.17 C 129.79 149.28 130.69 150.17 131.80 150.17 C 132.91 150.17 133.81 149.26 133.80 148.15 L 133.80 147.15 C 133.79 146.04 132.89 145.14 131.78 145.15 C 130.67 145.15 129.78 146.06 129.78 147.16 Z M 129.79 148.17 L 129.79 149.17 C 129.79 150.28 130.69 151.18 131.80 151.17 C 132.91 151.17 133.80 150.27 133.80 149.17 L 133.80 148.16 C 133.80 147.05 132.90 146.15 131.79 146.16 C 130.68 146.16 129.79 147.06 129.79 148.17 Z M 129.79 149.17 L 129.79 150.17 C 129.79 151.27 130.69 152.17 131.80 152.17 C 132.90 152.17 133.80 151.27 133.80 150.17 L 133.80 149.17 C 133.80 148.06 132.90 147.16 131.80 147.16 C 130.69 147.16 129.79 148.06 129.79 149.17 Z M 129.79 150.17 L 129.79 151.18 C 129.79 152.29 130.69 153.19 131.80 153.19 C 132.90 153.19 133.80 152.29 133.80 151.18 L 133.80 150.17 C 133.80 149.06 132.90 148.16 131.80 148.16 C 130.69 148.16 129.79 149.06 129.79 150.17 Z M 129.79 151.18 L 129.79 152.18 C 129.79 153.29 130.69 154.18 131.80 154.18 C 132.90 154.18 133.80 153.29 133.80 152.18 L 133.80 151.18 C 133.80 150.08 132.90 149.18 131.80 149.18 C 130.69 149.18 129.79 150.08 129.79 151.18 Z M 129.79 152.18 L 129.79 153.17 C 129.79 154.27 130.69 155.17 131.80 155.17 C 132.90 155.17 133.80 154.27 133.80 153.17 L 133.80 152.18 C 133.80 151.07 132.90 150.18 131.80 150.18 C 130.69 150.18 129.79 151.07 129.79 152.18 Z M 129.80 153.17 L 129.80 154.16 C 129.80 155.27 130.69 156.16 131.80 156.16 C 132.90 156.16 133.80 155.27 133.80 154.16 L 133.80 153.17 C 133.80 152.06 132.90 151.17 131.80 151.17 C 130.69 151.17 129.80 152.06 129.80 153.17 Z M 129.80 154.16 L 129.80 155.16 C 129.80 156.27 130.69 157.16 131.80 157.16 C 132.90 157.16 133.80 156.27 133.80 155.16 L 133.80 154.16 C 133.80 153.06 132.90 152.16 131.80 152.16 C 130.69 152.16 129.80 153.06 129.80 154.16 Z M 129.80 155.16 L 129.80 156.16 C 129.80 157.27 130.69 158.16 131.80 158.16 C 132.90 158.16 133.80 157.27 133.80 156.16 L 133.80 155.16 C 133.80 154.06 132.90 153.16 131.80 153.16 C 130.69 153.16 129.80 154.06 129.80 155.16 Z M 129.80 156.16 L 129.80 157.16 C 129.80 158.27 130.69 159.16 131.80 159.16 C 132.90 159.16 133.80 158.27 133.80 157.16 L 133.80 156.16 C 133.80 155.06 132.90 154.16 131.80 154.16 C 130.69 154.16 129.80 155.06 129.80 156.16 Z M 129.80 157.16 L 129.80 158.17 C 129.80 159.27 130.69 160.16 131.80 160.16 C 132.90 160.16 133.80 159.27 133.80 158.17 L 133.80 157.16 C 133.80 156.06 132.90 155.16 131.80 155.16 C 130.69 155.16 129.80 156.06 129.80 157.16 Z M 129.80 158.17 L 129.80 159.17 C 129.80 160.27 130.69 161.16 131.80 161.16 C 132.90 161.16 133.80 160.27 133.80 159.17 L 133.80 158.17 C 133.80 157.06 132.90 156.17 131.80 156.17 C 130.69 156.17 129.80 157.06 129.80 158.17 Z M 129.80 159.17 L 129.80 160.16 C 129.80 161.27 130.69 162.16 131.80 162.16 C 132.90 162.16 133.80 161.27 133.80 160.16 L 133.80 159.17 C 133.80 158.06 132.90 157.17 131.80 157.17 C 130.69 157.17 129.80 158.06 129.80 159.17 Z M 129.80 160.16 L 129.80 161.17 C 129.80 162.27 130.69 163.17 131.80 163.17 C 132.90 163.17 133.80 162.27 133.80 161.17 L 133.80 160.16 C 133.80 159.06 132.90 158.16 131.80 158.16 C 130.69 158.16 129.80 159.06 129.80 160.16 Z M 129.80 161.17 L 129.80 162.18 C 129.80 163.29 130.69 164.18 131.80 164.18 C 132.90 164.18 133.80 163.29 133.80 162.18 L 133.80 161.17 C 133.80 160.07 132.90 159.17 131.80 159.17 C 130.69 159.17 129.80 160.07 129.80 161.17 Z M 129.80 162.18 L 129.80 163.18 C 129.80 164.28 130.69 165.18 131.80 165.18 C 132.90 165.18 133.80 164.28 133.80 163.18 L 133.80 162.18 C 133.80 161.08 132.90 160.18 131.80 160.18 C 130.69 160.18 129.80 161.08 129.80 162.18 Z M 129.80 163.18 L 129.80 164.16 C 129.80 165.27 130.69 166.16 131.80 166.16 C 132.90 166.16 133.80 165.27 133.80 164.16 L 133.80 163.18 C 133.80 162.08 132.90 161.18 131.80 161.18 C 130.69 161.18 129.80 162.08 129.80 163.18 Z M 129.80 164.16 L 129.80 165.17 C 129.80 166.28 130.69 167.17 131.80 167.17 C 132.90 167.17 133.79 166.28 133.79 165.17 L 133.80 164.17 C 133.80 163.06 132.90 162.17 131.80 162.17 C 130.69 162.17 129.80 163.06 129.80 164.16 Z M 129.80 165.17 L 129.79 166.16 C 129.79 167.26 130.68 168.16 131.79 168.17 C 132.89 168.17 133.79 167.28 133.79 166.17 L 133.79 165.18 C 133.80 164.07 132.91 163.18 131.80 163.17 C 130.70 163.17 129.80 164.06 129.80 165.17 Z M 129.79 166.15 L 129.79 167.15 C 129.78 168.25 130.67 169.15 131.77 169.16 C 132.88 169.17 133.78 168.28 133.78 167.18 L 133.79 166.18 C 133.80 165.08 132.91 164.18 131.81 164.17 C 130.70 164.16 129.80 165.05 129.79 166.15 Z M 129.79 167.14 L 129.77 168.17 C 129.76 169.27 130.64 170.18 131.75 170.19 C 132.85 170.21 133.76 169.32 133.77 168.22 L 133.78 167.19 C 133.80 166.08 132.92 165.18 131.81 165.16 C 130.71 165.15 129.80 166.03 129.79 167.14 Z M 129.77 168.15 L 129.75 169.18 C 129.73 170.28 130.61 171.19 131.72 171.21 C 132.82 171.23 133.73 170.35 133.75 169.25 L 133.77 168.23 C 133.79 167.12 132.91 166.21 131.81 166.19 C 130.71 166.17 129.79 167.05 129.77 168.15 Z M 129.75 169.17 L 129.73 170.14 C 129.71 171.25 130.58 172.16 131.69 172.19 C 132.79 172.21 133.71 171.34 133.73 170.23 L 133.75 169.26 C 133.78 168.15 132.90 167.24 131.80 167.22 C 130.69 167.19 129.78 168.06 129.75 169.17 Z M 129.73 170.14 L 129.71 171.18 C 129.68 172.29 130.55 173.21 131.65 173.23 C 132.76 173.26 133.67 172.39 133.70 171.29 L 133.73 170.24 C 133.76 169.13 132.89 168.22 131.78 168.19 C 130.68 168.16 129.76 169.03 129.73 170.14 Z M 129.71 171.18 L 129.68 172.18 C 129.65 173.28 130.52 174.20 131.62 174.23 C 132.72 174.26 133.64 173.39 133.68 172.29 L 133.70 171.29 C 133.73 170.19 132.87 169.27 131.76 169.24 C 130.66 169.21 129.74 170.07 129.71 171.18 Z M 129.68 172.17 L 129.65 173.12 C 129.62 174.22 130.49 175.14 131.59 175.18 C 132.69 175.21 133.62 174.34 133.65 173.24 L 133.68 172.29 C 133.71 171.19 132.84 170.27 131.73 170.23 C 130.63 170.20 129.71 171.07 129.68 172.17 Z M 129.65 173.13 L 129.62 174.15 C 129.59 175.26 130.46 176.17 131.57 176.20 C 132.67 176.23 133.59 175.36 133.62 174.26 L 133.65 173.23 C 133.68 172.13 132.81 171.21 131.70 171.18 C 130.60 171.15 129.68 172.02 129.65 173.13 Z M 129.62 174.17 L 129.61 175.12 C 129.58 176.22 130.46 177.13 131.57 177.15 C 132.67 177.18 133.58 176.30 133.60 175.19 L 133.62 174.24 C 133.64 173.14 132.76 172.22 131.66 172.20 C 130.55 172.18 129.64 173.06 129.62 174.17 Z M 129.60 175.14 L 129.60 176.11 C 129.58 177.21 130.47 178.12 131.58 178.13 C 132.68 178.14 133.58 177.25 133.60 176.15 L 133.60 175.17 C 133.62 174.07 132.73 173.17 131.62 173.16 C 130.52 173.14 129.62 174.03 129.60 175.14 Z M 129.60 176.10 L 129.58 177.11 C 129.56 178.21 130.44 179.12 131.55 179.14 C 132.65 179.15 133.56 178.27 133.58 177.17 L 133.59 176.16 C 133.61 175.05 132.73 174.15 131.63 174.13 C 130.52 174.11 129.61 174.99 129.60 176.10 Z M 129.58 177.09 L 129.56 178.10 C 129.53 179.20 130.41 180.12 131.51 180.14 C 132.61 180.17 133.53 179.30 133.55 178.19 L 133.58 177.18 C 133.60 176.08 132.73 175.16 131.63 175.14 C 130.52 175.11 129.61 175.99 129.58 177.09 Z M 129.56 178.11 L 129.54 179.21 C 129.52 180.31 130.39 181.22 131.50 181.25 C 132.60 181.27 133.51 180.39 133.53 179.29 L 133.55 178.18 C 133.57 177.08 132.70 176.17 131.59 176.15 C 130.49 176.13 129.58 177.00 129.56 178.11 Z M 129.54 179.19 L 129.51 180.18 C 129.48 181.28 130.35 182.20 131.45 182.23 C 132.55 182.26 133.47 181.39 133.50 180.29 L 133.53 179.30 C 133.56 178.20 132.69 177.28 131.59 177.25 C 130.49 177.22 129.57 178.09 129.54 179.19 Z M 133.46 180.00 L 133.40 179.52 C 133.27 178.45 132.29 177.68 131.21 177.81 C 130.13 177.94 129.37 178.92 129.50 180.00 L 129.56 180.47 C 129.69 181.55 130.67 182.32 131.75 182.19 C 132.82 182.05 133.59 181.07 133.46 180.00 Z M 133.35 179.63 L 133.27 178.49 C 133.20 177.44 132.29 176.65 131.24 176.72 C 130.19 176.80 129.40 177.71 129.47 178.76 L 129.55 179.89 C 129.62 180.95 130.53 181.74 131.58 181.66 C 132.63 181.59 133.42 180.68 133.35 179.63 Z M 133.22 178.51 L 133.18 177.84 C 133.12 176.82 132.23 176.04 131.21 176.11 C 130.19 176.18 129.41 177.06 129.47 178.08 L 129.52 178.75 C 129.58 179.77 130.47 180.55 131.49 180.48 C 132.51 180.41 133.29 179.53 133.22 178.51 Z"
      fill="black"
      fill-rule="nonzero" /><path d="M 135.15 125.36 L 135.29 124.35 C 135.44 123.33 134.73 122.39 133.71 122.25 C 132.69 122.10 131.75 122.81 131.61 123.83 L 131.47 124.84 C 131.32 125.86 132.03 126.80 133.05 126.94 C 134.07 127.08 135.01 126.37 135.15 125.36 Z M 135.05 125.07 L 135.52 124.31 C 136.06 123.43 135.79 122.27 134.90 121.73 C 134.02 121.18 132.86 121.46 132.32 122.34 L 131.85 123.10 C 131.30 123.99 131.58 125.15 132.46 125.69 C 133.35 126.23 134.51 125.96 135.05 125.07 Z M 134.77 125.02 L 135.65 124.57 C 136.58 124.10 136.95 122.97 136.48 122.04 C 136.01 121.10 134.88 120.73 133.94 121.20 L 133.07 121.64 C 132.14 122.11 131.76 123.25 132.23 124.18 C 132.70 125.11 133.84 125.49 134.77 125.02 Z M 135.14 124.75 L 136.17 124.56 C 137.20 124.37 137.88 123.38 137.69 122.35 C 137.50 121.33 136.51 120.65 135.48 120.84 L 134.45 121.03 C 133.42 121.22 132.74 122.20 132.93 123.23 C 133.12 124.26 134.11 124.94 135.14 124.75 Z M 135.94 124.59 L 136.97 124.52 C 138.01 124.46 138.81 123.56 138.74 122.52 C 138.68 121.47 137.78 120.68 136.74 120.74 L 135.71 120.81 C 134.67 120.87 133.87 121.77 133.94 122.81 C 134.00 123.86 134.90 124.65 135.94 124.59 Z M 136.86 124.53 L 137.87 124.52 C 138.92 124.52 139.76 123.67 139.76 122.62 C 139.76 121.58 138.91 120.73 137.86 120.74 L 136.85 120.74 C 135.80 120.74 134.96 121.59 134.96 122.64 C 134.96 123.68 135.81 124.53 136.86 124.53 Z M 137.77 124.52 L 138.83 124.58 C 139.87 124.63 140.76 123.83 140.82 122.78 C 140.87 121.73 140.07 120.84 139.02 120.79 L 137.96 120.74 C 136.92 120.68 136.03 121.49 135.97 122.53 C 135.92 123.58 136.73 124.47 137.77 124.52 Z M 138.61 124.56 L 139.52 124.71 C 140.56 124.88 141.54 124.19 141.71 123.15 C 141.88 122.12 141.19 121.14 140.15 120.96 L 139.24 120.81 C 138.21 120.64 137.23 121.33 137.05 122.37 C 136.88 123.40 137.57 124.38 138.61 124.56 Z M 139.20 124.63 L 140.15 124.97 C 141.15 125.32 142.23 124.80 142.58 123.81 C 142.93 122.81 142.41 121.73 141.42 121.38 L 140.47 121.04 C 139.48 120.69 138.39 121.21 138.04 122.20 C 137.69 123.20 138.21 124.28 139.20 124.63 Z M 139.85 124.84 L 140.71 125.32 C 141.63 125.84 142.80 125.51 143.31 124.59 C 143.83 123.67 143.50 122.50 142.58 121.99 L 141.72 121.51 C 140.80 120.99 139.64 121.32 139.12 122.24 C 138.60 123.16 138.93 124.32 139.85 124.84 Z M 140.45 125.15 L 141.23 125.78 C 142.05 126.44 143.26 126.30 143.92 125.48 C 144.59 124.65 144.45 123.44 143.62 122.78 L 142.85 122.16 C 142.02 121.49 140.81 121.63 140.15 122.46 C 139.49 123.28 139.62 124.49 140.45 125.15 Z M 141.01 125.59 L 141.69 126.32 C 142.41 127.10 143.63 127.14 144.41 126.42 C 145.19 125.69 145.24 124.47 144.51 123.69 L 143.84 122.96 C 143.11 122.18 141.89 122.14 141.11 122.86 C 140.33 123.59 140.29 124.81 141.01 125.59 Z M 141.49 126.08 L 142.05 126.92 C 142.65 127.81 143.85 128.05 144.74 127.45 C 145.63 126.86 145.87 125.65 145.27 124.76 L 144.71 123.93 C 144.12 123.04 142.91 122.80 142.02 123.39 C 141.13 123.99 140.89 125.19 141.49 126.08 Z M 141.88 126.62 L 142.27 127.52 C 142.70 128.50 143.85 128.95 144.84 128.52 C 145.82 128.09 146.27 126.94 145.84 125.96 L 145.44 125.06 C 145.01 124.08 143.86 123.63 142.88 124.06 C 141.89 124.49 141.45 125.64 141.88 126.62 Z M 142.18 127.29 L 142.47 128.26 C 142.77 129.29 143.86 129.88 144.89 129.58 C 145.93 129.27 146.52 128.19 146.21 127.15 L 145.93 126.18 C 145.62 125.15 144.53 124.56 143.50 124.87 C 142.47 125.17 141.88 126.26 142.18 127.29 Z M 142.43 128.12 L 142.63 129.07 C 142.86 130.13 143.90 130.80 144.95 130.57 C 146.01 130.35 146.68 129.31 146.46 128.25 L 146.25 127.30 C 146.02 126.24 144.99 125.57 143.93 125.80 C 142.88 126.02 142.20 127.06 142.43 128.12 Z M 142.61 128.95 L 142.76 129.97 C 142.92 131.04 143.91 131.77 144.98 131.62 C 146.05 131.46 146.79 130.46 146.63 129.40 L 146.48 128.38 C 146.32 127.31 145.33 126.57 144.26 126.73 C 143.19 126.89 142.45 127.88 142.61 128.95 Z M 142.75 129.86 L 142.84 130.85 C 142.94 131.92 143.89 132.72 144.96 132.62 C 146.04 132.52 146.83 131.57 146.73 130.49 L 146.64 129.50 C 146.55 128.43 145.59 127.64 144.52 127.73 C 143.44 127.83 142.65 128.78 142.75 129.86 Z M 142.83 130.77 L 142.88 131.78 C 142.94 132.86 143.86 133.69 144.94 133.63 C 146.02 133.58 146.85 132.66 146.79 131.58 L 146.74 130.57 C 146.68 129.49 145.76 128.66 144.68 128.72 C 143.61 128.77 142.78 129.69 142.83 130.77 Z M 142.88 131.72 L 142.91 132.74 C 142.93 133.82 143.83 134.67 144.91 134.65 C 145.99 134.62 146.84 133.72 146.82 132.64 L 146.79 131.63 C 146.77 130.55 145.87 129.70 144.79 129.72 C 143.71 129.75 142.86 130.64 142.88 131.72 Z M 142.91 132.70 L 142.91 133.70 C 142.92 134.78 143.80 135.65 144.88 135.64 C 145.96 135.63 146.83 134.75 146.82 133.67 L 146.82 132.68 C 146.81 131.60 145.93 130.73 144.85 130.74 C 143.77 130.74 142.90 131.62 142.91 132.70 Z M 142.92 133.69 L 142.92 134.69 C 142.92 135.77 143.79 136.64 144.87 136.64 C 145.95 136.64 146.82 135.77 146.82 134.69 L 146.82 133.69 C 146.82 132.61 145.95 131.74 144.87 131.74 C 143.79 131.74 142.92 132.61 142.92 133.69 Z M 142.92 134.69 L 142.92 135.70 C 142.92 136.77 143.79 137.64 144.87 137.64 C 145.94 137.64 146.81 136.77 146.81 135.70 L 146.81 134.69 C 146.81 133.62 145.94 132.75 144.87 132.75 C 143.79 132.75 142.92 133.62 142.92 134.69 Z M 142.93 135.70 L 142.93 136.71 C 142.93 137.78 143.80 138.65 144.87 138.65 C 145.93 138.65 146.80 137.78 146.80 136.71 L 146.80 135.70 C 146.80 134.63 145.94 133.76 144.87 133.76 C 143.80 133.76 142.93 134.63 142.93 135.70 Z M 142.95 136.66 L 142.92 137.66 C 142.89 138.72 143.72 139.61 144.78 139.64 C 145.84 139.67 146.73 138.83 146.76 137.77 L 146.79 136.77 C 146.82 135.71 145.98 134.82 144.92 134.79 C 143.86 134.76 142.98 135.60 142.95 136.66 Z M 142.96 137.45 L 142.82 138.43 C 142.67 139.47 143.40 140.43 144.44 140.58 C 145.48 140.73 146.44 140.00 146.58 138.96 L 146.72 137.98 C 146.87 136.94 146.14 135.98 145.10 135.83 C 144.06 135.69 143.10 136.41 142.96 137.45 Z M 142.89 138.21 L 142.66 139.05 C 142.39 140.05 142.98 141.08 143.98 141.35 C 144.98 141.62 146.01 141.03 146.28 140.03 L 146.51 139.19 C 146.78 138.19 146.19 137.16 145.19 136.89 C 144.19 136.61 143.16 137.21 142.89 138.21 Z"
      fill="black"
      fill-rule="nonzero" /><path d="M 135.32 136.73 L 136.35 136.76 C 137.43 136.78 138.32 135.93 138.34 134.85 C 138.37 133.77 137.51 132.88 136.44 132.86 L 135.41 132.83 C 134.33 132.81 133.43 133.66 133.41 134.74 C 133.39 135.82 134.24 136.71 135.32 136.73 Z M 136.51 136.79 L 137.48 136.74 C 138.58 136.67 139.41 135.73 139.35 134.63 C 139.28 133.53 138.34 132.70 137.24 132.76 L 136.27 132.82 C 135.18 132.89 134.34 133.83 134.41 134.93 C 134.47 136.02 135.41 136.86 136.51 136.79 Z M 137.82 136.68 L 138.80 136.45 C 139.87 136.19 140.53 135.12 140.27 134.05 C 140.01 132.98 138.94 132.33 137.87 132.58 L 136.90 132.82 C 135.83 133.07 135.17 134.15 135.43 135.21 C 135.68 136.28 136.76 136.94 137.82 136.68 Z M 139.03 136.33 L 139.93 135.99 C 140.93 135.61 141.43 134.48 141.05 133.48 C 140.67 132.48 139.55 131.97 138.54 132.36 L 137.64 132.70 C 136.64 133.08 136.14 134.20 136.52 135.21 C 136.90 136.21 138.03 136.71 139.03 136.33 Z M 139.96 135.94 L 140.81 135.59 C 141.79 135.19 142.25 134.08 141.85 133.10 C 141.46 132.13 140.34 131.66 139.37 132.06 L 138.51 132.41 C 137.54 132.81 137.07 133.92 137.47 134.89 C 137.87 135.87 138.98 136.34 139.96 135.94 Z M 140.79 135.57 L 141.80 135.16 C 142.76 134.78 143.23 133.68 142.84 132.72 C 142.46 131.76 141.37 131.29 140.40 131.67 L 139.39 132.08 C 138.43 132.46 137.96 133.56 138.35 134.52 C 138.73 135.48 139.82 135.95 140.79 135.57 Z M 141.77 135.15 L 142.63 134.82 C 143.58 134.45 144.06 133.38 143.69 132.42 C 143.32 131.46 142.25 130.99 141.29 131.36 L 140.43 131.69 C 139.48 132.06 139.00 133.13 139.37 134.09 C 139.74 135.04 140.81 135.52 141.77 135.15 Z M 142.61 134.80 L 143.57 134.44 C 144.52 134.08 144.99 133.02 144.63 132.07 C 144.28 131.13 143.22 130.65 142.27 131.01 L 141.31 131.37 C 140.36 131.73 139.88 132.79 140.24 133.74 C 140.60 134.69 141.66 135.16 142.61 134.80 Z M 143.56 134.43 L 144.56 134.05 C 145.50 133.70 145.98 132.65 145.62 131.71 C 145.27 130.77 144.22 130.29 143.28 130.64 L 142.28 131.02 C 141.34 131.38 140.86 132.42 141.21 133.36 C 141.57 134.30 142.62 134.78 143.56 134.43 Z"
      fill="black"
      fill-rule="nonzero" /><path d="M 136.62 145.46 L 137.62 145.63 C 138.67 145.82 139.67 145.11 139.85 144.06 C 140.03 143.00 139.33 142.00 138.28 141.82 L 137.28 141.65 C 136.22 141.47 135.22 142.17 135.04 143.22 C 134.86 144.28 135.56 145.28 136.62 145.46 Z M 138.07 145.71 L 139.03 145.65 C 140.13 145.58 140.96 144.64 140.89 143.54 C 140.82 142.45 139.88 141.62 138.78 141.68 L 137.82 141.74 C 136.73 141.81 135.89 142.76 135.96 143.85 C 136.03 144.95 136.97 145.78 138.07 145.71 Z M 139.70 145.50 L 140.59 145.11 C 141.60 144.67 142.06 143.49 141.62 142.48 C 141.18 141.47 140.00 141.01 138.99 141.45 L 138.11 141.84 C 137.10 142.28 136.64 143.46 137.08 144.47 C 137.52 145.47 138.70 145.94 139.70 145.50 Z M 140.86 144.93 L 141.73 144.37 C 142.64 143.78 142.90 142.57 142.31 141.66 C 141.72 140.74 140.51 140.48 139.60 141.07 L 138.73 141.63 C 137.82 142.22 137.55 143.44 138.14 144.35 C 138.73 145.26 139.94 145.52 140.86 144.93 Z M 141.76 144.31 L 142.58 143.74 C 143.45 143.13 143.67 141.93 143.07 141.06 C 142.46 140.18 141.26 139.96 140.38 140.57 L 139.56 141.13 C 138.69 141.74 138.47 142.94 139.07 143.82 C 139.68 144.69 140.88 144.91 141.76 144.31 Z M 142.57 143.70 L 143.40 143.12 C 144.25 142.52 144.46 141.33 143.86 140.48 C 143.25 139.62 142.07 139.42 141.22 140.02 L 140.39 140.60 C 139.53 141.21 139.33 142.39 139.93 143.24 C 140.53 144.10 141.71 144.31 142.57 143.70 Z M 143.38 143.10 L 144.20 142.52 C 145.05 141.93 145.25 140.76 144.66 139.92 C 144.07 139.08 142.91 138.87 142.06 139.46 L 141.24 140.04 C 140.39 140.63 140.19 141.80 140.78 142.64 C 141.37 143.48 142.53 143.69 143.38 143.10 Z M 144.17 142.50 L 144.99 141.94 C 145.83 141.37 146.04 140.23 145.47 139.39 C 144.89 138.56 143.75 138.34 142.92 138.92 L 142.10 139.48 C 141.26 140.05 141.05 141.19 141.62 142.03 C 142.19 142.86 143.33 143.08 144.17 142.50 Z M 144.95 141.95 L 145.79 141.40 C 146.62 140.85 146.86 139.72 146.31 138.88 C 145.76 138.05 144.63 137.81 143.79 138.36 L 142.96 138.91 C 142.12 139.46 141.88 140.59 142.44 141.43 C 142.99 142.26 144.11 142.50 144.95 141.95 Z M 145.76 141.40 L 146.60 140.87 C 147.44 140.33 147.69 139.22 147.15 138.37 C 146.62 137.53 145.50 137.29 144.66 137.82 L 143.82 138.36 C 142.98 138.89 142.73 140.01 143.27 140.85 C 143.80 141.69 144.92 141.94 145.76 141.40 Z M 146.59 140.87 L 146.82 140.72 C 147.66 140.19 147.91 139.08 147.38 138.24 C 146.85 137.40 145.74 137.15 144.90 137.68 L 144.67 137.82 C 143.83 138.35 143.58 139.47 144.11 140.31 C 144.64 141.15 145.75 141.40 146.59 140.87 Z"
      fill="black"
      fill-rule="nonzero" /><path d="M 161.55 122.72 L 161.62 121.71 C 161.68 120.70 160.92 119.83 159.91 119.76 C 158.91 119.69 158.03 120.45 157.97 121.46 L 157.90 122.47 C 157.83 123.48 158.59 124.35 159.60 124.42 C 160.61 124.49 161.48 123.73 161.55 122.72 Z M 161.38 122.55 L 161.91 121.69 C 162.44 120.81 162.16 119.66 161.28 119.13 C 160.41 118.59 159.26 118.87 158.73 119.75 L 158.20 120.62 C 157.66 121.49 157.94 122.64 158.82 123.17 C 159.70 123.71 160.85 123.43 161.38 122.55 Z M 160.03 122.64 L 160.75 122.75 C 161.81 122.90 162.80 122.17 162.95 121.11 C 163.11 120.05 162.38 119.06 161.32 118.91 L 160.60 118.80 C 159.54 118.64 158.55 119.38 158.40 120.44 C 158.24 121.50 158.97 122.48 160.03 122.64 Z M 159.17 121.54 L 159.54 122.49 C 159.94 123.52 161.09 124.03 162.12 123.64 C 163.14 123.24 163.66 122.09 163.26 121.07 L 162.89 120.11 C 162.50 119.08 161.35 118.57 160.32 118.97 C 159.29 119.36 158.78 120.51 159.17 121.54 Z M 159.42 122.13 L 159.61 123.17 C 159.80 124.26 160.84 124.99 161.93 124.80 C 163.02 124.61 163.75 123.57 163.56 122.48 L 163.38 121.43 C 163.19 120.34 162.15 119.61 161.05 119.80 C 159.96 119.99 159.23 121.03 159.42 122.13 Z M 159.57 122.99 L 159.65 123.98 C 159.75 125.09 160.72 125.92 161.83 125.83 C 162.94 125.73 163.77 124.76 163.68 123.65 L 163.59 122.66 C 163.50 121.55 162.53 120.72 161.42 120.81 C 160.31 120.90 159.48 121.88 159.57 122.99 Z M 159.64 123.88 L 159.67 124.86 C 159.71 125.98 160.64 126.85 161.76 126.82 C 162.87 126.79 163.75 125.85 163.72 124.74 L 163.69 123.75 C 163.65 122.64 162.72 121.76 161.60 121.79 C 160.49 121.83 159.61 122.76 159.64 123.88 Z M 159.67 124.81 L 159.68 125.82 C 159.69 126.94 160.60 127.84 161.72 127.83 C 162.84 127.82 163.74 126.91 163.73 125.79 L 163.72 124.78 C 163.71 123.66 162.80 122.77 161.68 122.77 C 160.56 122.78 159.66 123.70 159.67 124.81 Z M 159.68 125.80 L 159.68 126.79 C 159.68 127.91 160.59 128.82 161.70 128.81 C 162.82 128.81 163.73 127.91 163.73 126.79 L 163.73 125.80 C 163.72 124.69 162.82 123.78 161.70 123.78 C 160.59 123.78 159.68 124.69 159.68 125.80 Z M 159.69 126.79 L 159.69 127.76 C 159.69 128.87 160.59 129.78 161.70 129.78 C 162.82 129.78 163.72 128.87 163.72 127.76 L 163.72 126.79 C 163.72 125.68 162.82 124.78 161.70 124.78 C 160.59 124.78 159.69 125.68 159.69 126.79 Z M 159.70 127.76 L 159.70 128.82 C 159.70 129.93 160.59 130.83 161.70 130.83 C 162.81 130.83 163.71 129.93 163.71 128.82 L 163.71 127.76 C 163.71 126.65 162.81 125.75 161.70 125.75 C 160.59 125.75 159.70 126.65 159.70 127.76 Z M 159.71 128.82 L 159.71 129.85 C 159.71 130.95 160.60 131.84 161.70 131.84 C 162.80 131.84 163.69 130.95 163.69 129.85 L 163.69 128.82 C 163.69 127.72 162.80 126.83 161.70 126.83 C 160.60 126.83 159.71 127.72 159.71 128.82 Z M 159.74 129.85 L 159.74 130.88 C 159.74 131.97 160.62 132.85 161.70 132.85 C 162.79 132.85 163.67 131.97 163.67 130.88 L 163.67 129.85 C 163.67 128.76 162.79 127.88 161.70 127.88 C 160.62 127.88 159.74 128.76 159.74 129.85 Z M 159.76 130.88 L 159.76 131.86 C 159.76 132.93 160.63 133.80 161.70 133.80 C 162.77 133.80 163.64 132.93 163.64 131.86 L 163.64 130.88 C 163.64 129.81 162.77 128.94 161.70 128.94 C 160.63 128.94 159.76 129.81 159.76 130.88 Z M 159.80 131.86 L 159.80 132.92 C 159.80 133.97 160.65 134.82 161.70 134.82 C 162.75 134.82 163.61 133.97 163.61 132.92 L 163.61 131.86 C 163.61 130.81 162.75 129.96 161.70 129.96 C 160.65 129.96 159.80 130.81 159.80 131.86 Z M 159.85 132.92 L 159.85 133.83 C 159.85 134.85 160.68 135.68 161.70 135.68 C 162.73 135.68 163.56 134.85 163.56 133.83 L 163.56 132.92 C 163.56 131.89 162.73 131.06 161.70 131.06 C 160.68 131.06 159.85 131.89 159.85 132.92 Z M 159.88 133.83 L 159.88 134.83 C 159.88 135.83 160.70 136.65 161.70 136.65 C 162.71 136.65 163.53 135.83 163.53 134.83 L 163.53 133.83 C 163.53 132.82 162.71 132.00 161.70 132.00 C 160.70 132.00 159.88 132.82 159.88 133.83 Z M 159.89 134.83 L 159.89 135.18 C 159.89 136.18 160.70 136.99 161.70 136.99 C 162.70 136.99 163.51 136.18 163.51 135.18 L 163.51 134.83 C 163.51 133.83 162.70 133.02 161.70 133.02 C 160.70 133.02 159.89 133.83 159.89 134.83 Z"
      fill="black"
      fill-rule="nonzero" /><path d="M 165.90 117.19 L 166.59 116.44 C 167.32 115.65 167.28 114.42 166.49 113.70 C 165.71 112.97 164.48 113.01 163.75 113.79 L 163.06 114.54 C 162.33 115.33 162.37 116.56 163.16 117.28 C 163.94 118.01 165.17 117.97 165.90 117.19 Z M 166.24 116.75 L 167.03 116.23 C 167.94 115.64 168.19 114.44 167.61 113.53 C 167.02 112.63 165.81 112.38 164.91 112.96 L 164.11 113.48 C 163.21 114.07 162.96 115.27 163.54 116.18 C 164.13 117.08 165.33 117.33 166.24 116.75 Z M 166.36 116.49 L 167.32 116.30 C 168.37 116.09 169.04 115.07 168.83 114.02 C 168.62 112.97 167.60 112.29 166.55 112.50 L 165.59 112.70 C 164.54 112.91 163.86 113.93 164.07 114.98 C 164.29 116.03 165.31 116.71 166.36 116.49 Z M 167.01 116.32 L 168.04 116.28 C 169.09 116.24 169.92 115.35 169.88 114.29 C 169.84 113.23 168.95 112.41 167.89 112.45 L 166.86 112.49 C 165.80 112.53 164.98 113.42 165.02 114.47 C 165.06 115.53 165.95 116.36 167.01 116.32 Z M 167.86 116.26 L 168.87 116.31 C 169.92 116.37 170.81 115.56 170.87 114.52 C 170.92 113.47 170.12 112.58 169.07 112.52 L 168.06 112.47 C 167.02 112.41 166.12 113.22 166.07 114.26 C 166.01 115.31 166.82 116.20 167.86 116.26 Z M 168.51 116.24 L 169.47 116.49 C 170.48 116.74 171.50 116.13 171.76 115.12 C 172.01 114.11 171.40 113.08 170.39 112.83 L 169.43 112.59 C 168.42 112.33 167.40 112.94 167.14 113.95 C 166.89 114.96 167.50 115.99 168.51 116.24 Z M 169.01 116.30 L 169.87 116.79 C 170.78 117.29 171.93 116.97 172.44 116.06 C 172.95 115.15 172.62 114.01 171.71 113.50 L 170.85 113.01 C 169.94 112.50 168.79 112.83 168.28 113.74 C 167.78 114.64 168.10 115.79 169.01 116.30 Z M 169.57 116.58 L 170.29 117.20 C 171.08 117.87 172.28 117.78 172.95 116.99 C 173.63 116.19 173.54 115.00 172.74 114.32 L 172.02 113.70 C 171.23 113.02 170.03 113.12 169.36 113.91 C 168.68 114.71 168.77 115.90 169.57 116.58 Z M 170.08 117.01 L 170.77 117.80 C 171.46 118.59 172.67 118.67 173.46 117.98 C 174.25 117.29 174.33 116.08 173.64 115.29 L 172.95 114.51 C 172.26 113.71 171.05 113.63 170.26 114.32 C 169.47 115.02 169.39 116.22 170.08 117.01 Z M 170.63 117.63 L 171.16 118.41 C 171.76 119.28 172.96 119.50 173.83 118.90 C 174.70 118.30 174.92 117.11 174.32 116.24 L 173.78 115.46 C 173.18 114.59 171.99 114.37 171.12 114.97 C 170.25 115.57 170.03 116.76 170.63 117.63 Z M 171.06 118.26 L 171.55 119.15 C 172.07 120.08 173.24 120.42 174.17 119.90 C 175.10 119.38 175.44 118.21 174.92 117.28 L 174.42 116.39 C 173.91 115.46 172.73 115.12 171.80 115.64 C 170.87 116.16 170.54 117.33 171.06 118.26 Z M 171.46 119.00 L 171.89 119.96 C 172.32 120.94 173.46 121.38 174.44 120.95 C 175.42 120.51 175.87 119.37 175.43 118.39 L 175.01 117.43 C 174.58 116.45 173.43 116.01 172.45 116.44 C 171.47 116.87 171.03 118.02 171.46 119.00 Z M 171.82 119.84 L 172.17 120.81 C 172.54 121.82 173.66 122.35 174.68 121.98 C 175.69 121.61 176.22 120.49 175.85 119.48 L 175.50 118.51 C 175.13 117.49 174.01 116.97 172.99 117.34 C 171.98 117.71 171.45 118.83 171.82 119.84 Z M 172.13 120.73 L 172.42 121.66 C 172.75 122.70 173.85 123.28 174.89 122.96 C 175.93 122.63 176.51 121.53 176.18 120.49 L 175.89 119.56 C 175.57 118.52 174.46 117.94 173.43 118.26 C 172.39 118.59 171.81 119.69 172.13 120.73 Z M 172.39 121.59 L 172.66 122.60 C 172.94 123.65 174.03 124.28 175.08 124.00 C 176.14 123.71 176.77 122.63 176.49 121.57 L 176.22 120.56 C 175.93 119.51 174.85 118.88 173.79 119.16 C 172.73 119.44 172.10 120.53 172.39 121.59 Z M 172.63 122.50 L 172.82 123.43 C 173.05 124.50 174.11 125.19 175.18 124.96 C 176.26 124.73 176.94 123.68 176.72 122.60 L 176.52 121.67 C 176.29 120.60 175.23 119.91 174.16 120.14 C 173.08 120.37 172.40 121.42 172.63 122.50 Z M 172.80 123.34 L 172.95 124.27 C 173.13 125.36 174.16 126.10 175.25 125.92 C 176.34 125.74 177.07 124.71 176.89 123.62 L 176.74 122.69 C 176.56 121.60 175.53 120.87 174.45 121.05 C 173.36 121.22 172.62 122.25 172.80 123.34 Z M 172.94 124.22 L 173.08 125.23 C 173.23 126.32 174.24 127.09 175.34 126.94 C 176.43 126.79 177.20 125.78 177.05 124.68 L 176.91 123.67 C 176.76 122.58 175.75 121.81 174.65 121.96 C 173.55 122.11 172.79 123.13 172.94 124.22 Z M 173.07 125.21 L 173.20 126.21 C 173.34 127.31 174.35 128.09 175.45 127.94 C 176.55 127.80 177.33 126.79 177.19 125.69 L 177.06 124.70 C 176.91 123.59 175.91 122.82 174.80 122.96 C 173.70 123.10 172.92 124.11 173.07 125.21 Z M 173.19 126.19 L 173.31 127.19 C 173.44 128.29 174.44 129.09 175.55 128.95 C 176.66 128.82 177.45 127.81 177.32 126.71 L 177.20 125.71 C 177.06 124.60 176.06 123.81 174.95 123.94 C 173.84 124.08 173.05 125.08 173.19 126.19 Z M 173.29 127.15 L 173.39 128.15 C 173.50 129.27 174.50 130.08 175.61 129.97 C 176.72 129.86 177.54 128.87 177.43 127.76 L 177.33 126.75 C 177.22 125.63 176.23 124.82 175.11 124.93 C 174.00 125.04 173.18 126.03 173.29 127.15 Z M 173.38 128.10 L 173.46 129.09 C 173.54 130.21 174.51 131.05 175.63 130.97 C 176.75 130.89 177.59 129.91 177.51 128.79 L 177.44 127.81 C 177.36 126.69 176.38 125.85 175.26 125.93 C 174.14 126.01 173.30 126.99 173.38 128.10 Z M 173.45 129.07 L 173.51 130.07 C 173.58 131.19 174.55 132.04 175.67 131.98 C 176.79 131.91 177.64 130.94 177.57 129.82 L 177.51 128.82 C 177.44 127.70 176.48 126.84 175.36 126.91 C 174.24 126.98 173.38 127.94 173.45 129.07 Z M 173.51 130.07 L 173.57 131.05 C 173.64 132.18 174.61 133.03 175.74 132.96 C 176.86 132.89 177.71 131.92 177.64 130.79 L 177.58 129.82 C 177.51 128.69 176.54 127.84 175.41 127.91 C 174.29 127.98 173.44 128.95 173.51 130.07 Z M 173.56 131.06 L 173.63 132.05 C 173.70 133.18 174.68 134.03 175.81 133.96 C 176.93 133.88 177.79 132.91 177.71 131.78 L 177.65 130.79 C 177.57 129.66 176.60 128.81 175.47 128.88 C 174.34 128.96 173.49 129.93 173.56 131.06 Z M 173.62 132.04 L 173.69 133.08 C 173.76 134.21 174.73 135.07 175.86 135.00 C 177.00 134.93 177.86 133.95 177.79 132.82 L 177.72 131.79 C 177.65 130.65 176.68 129.79 175.54 129.87 C 174.41 129.94 173.55 130.91 173.62 132.04 Z M 173.67 133.06 L 173.73 134.04 C 173.79 135.18 174.77 136.05 175.91 135.99 C 177.05 135.92 177.92 134.95 177.86 133.81 L 177.80 132.83 C 177.74 131.69 176.76 130.82 175.62 130.88 C 174.48 130.95 173.61 131.92 173.67 133.06 Z M 173.71 134.03 L 173.76 135.03 C 173.82 136.18 174.80 137.06 175.95 137.00 C 177.10 136.94 177.99 135.96 177.92 134.81 L 177.87 133.81 C 177.81 132.67 176.83 131.78 175.68 131.84 C 174.53 131.90 173.65 132.88 173.71 134.03 Z M 173.75 135.04 L 173.80 136.05 C 173.86 137.21 174.85 138.10 176.01 138.04 C 177.17 137.98 178.06 136.99 178.00 135.83 L 177.94 134.81 C 177.88 133.65 176.89 132.76 175.73 132.83 C 174.57 132.89 173.68 133.88 173.75 135.04 Z M 173.79 136.06 L 173.84 137.04 C 173.91 138.21 174.91 139.10 176.07 139.03 C 177.24 138.97 178.13 137.97 178.07 136.80 L 178.01 135.82 C 177.94 134.66 176.94 133.76 175.78 133.83 C 174.61 133.90 173.72 134.90 173.79 136.06 Z M 173.83 137.05 L 173.89 138.04 C 173.96 139.22 174.97 140.11 176.14 140.04 C 177.31 139.97 178.21 138.96 178.14 137.79 L 178.08 136.80 C 178.01 135.62 177.00 134.73 175.83 134.80 C 174.65 134.87 173.76 135.88 173.83 137.05 Z M 173.88 138.05 L 173.94 139.06 C 174.01 140.24 175.02 141.14 176.20 141.07 C 177.38 141.00 178.28 139.98 178.21 138.80 L 178.15 137.79 C 178.08 136.61 177.06 135.71 175.88 135.78 C 174.70 135.85 173.80 136.87 173.88 138.05 Z M 173.93 139.06 L 173.99 140.04 C 174.06 141.22 175.08 142.13 176.26 142.06 C 177.45 141.99 178.35 140.97 178.28 139.78 L 178.22 138.80 C 178.15 137.62 177.13 136.71 175.95 136.78 C 174.76 136.85 173.86 137.87 173.93 139.06 Z M 173.98 140.04 L 174.04 141.02 C 174.11 142.21 175.13 143.12 176.32 143.05 C 177.51 142.98 178.42 141.96 178.35 140.77 L 178.29 139.78 C 178.22 138.59 177.20 137.68 176.01 137.75 C 174.81 137.82 173.91 138.85 173.98 140.04 Z M 174.03 141.02 L 174.09 142.04 C 174.16 143.23 175.19 144.14 176.38 144.07 C 177.58 144.00 178.49 142.97 178.41 141.78 L 178.35 140.76 C 178.28 139.57 177.26 138.66 176.06 138.73 C 174.87 138.80 173.96 139.83 174.03 141.02 Z M 174.08 142.04 L 174.15 143.06 C 174.22 144.26 175.25 145.17 176.45 145.10 C 177.65 145.02 178.56 143.99 178.48 142.79 L 178.42 141.77 C 178.35 140.57 177.32 139.66 176.12 139.74 C 174.92 139.81 174.01 140.84 174.08 142.04 Z M 174.14 143.07 L 174.20 144.07 C 174.28 145.27 175.32 146.18 176.52 146.11 C 177.72 146.03 178.63 144.99 178.56 143.79 L 178.49 142.79 C 178.42 141.59 177.38 140.67 176.18 140.75 C 174.97 140.83 174.06 141.86 174.14 143.07 Z M 174.19 144.07 L 174.26 145.08 C 174.34 146.29 175.38 147.20 176.59 147.12 C 177.80 147.04 178.71 146.00 178.63 144.79 L 178.57 143.78 C 178.49 142.57 177.44 141.66 176.23 141.74 C 175.03 141.82 174.11 142.87 174.19 144.07 Z M 174.25 145.09 L 174.32 146.08 C 174.41 147.30 175.46 148.21 176.67 148.13 C 177.88 148.04 178.80 146.99 178.71 145.78 L 178.64 144.78 C 178.56 143.57 177.51 142.66 176.29 142.74 C 175.08 142.82 174.17 143.88 174.25 145.09 Z M 174.31 146.09 L 174.39 147.10 C 174.48 148.32 175.53 149.23 176.75 149.14 C 177.97 149.05 178.88 147.99 178.79 146.78 L 178.72 145.77 C 178.63 144.55 177.57 143.64 176.35 143.73 C 175.14 143.82 174.23 144.88 174.31 146.09 Z M 174.38 147.11 L 174.46 148.11 C 174.55 149.33 175.62 150.24 176.84 150.15 C 178.05 150.06 178.96 148.99 178.87 147.78 L 178.79 146.77 C 178.70 145.55 177.64 144.64 176.42 144.73 C 175.20 144.83 174.29 145.89 174.38 147.11 Z M 174.46 148.12 L 174.54 149.10 C 174.63 150.32 175.70 151.23 176.92 151.14 C 178.14 151.04 179.05 149.98 178.95 148.76 L 178.87 147.77 C 178.78 146.55 177.71 145.64 176.49 145.74 C 175.27 145.83 174.36 146.90 174.46 148.12 Z M 174.53 149.11 L 174.61 150.09 C 174.71 151.31 175.78 152.22 177.00 152.12 C 178.22 152.03 179.13 150.96 179.03 149.74 L 178.95 148.75 C 178.86 147.53 177.79 146.62 176.57 146.72 C 175.35 146.82 174.44 147.88 174.53 149.11 Z M 174.61 150.09 L 174.69 151.08 C 174.79 152.30 175.85 153.21 177.08 153.12 C 178.30 153.02 179.21 151.95 179.11 150.73 L 179.03 149.74 C 178.94 148.52 177.87 147.60 176.65 147.70 C 175.43 147.80 174.51 148.87 174.61 150.09 Z M 174.69 151.08 L 174.77 152.08 C 174.86 153.30 175.93 154.21 177.15 154.11 C 178.37 154.02 179.29 152.95 179.19 151.73 L 179.11 150.73 C 179.02 149.51 177.95 148.60 176.73 148.70 C 175.51 148.79 174.59 149.86 174.69 151.08 Z M 174.77 152.07 L 174.85 153.07 C 174.94 154.29 176.01 155.21 177.23 155.11 C 178.45 155.02 179.36 153.95 179.27 152.73 L 179.19 151.73 C 179.10 150.51 178.03 149.60 176.81 149.69 C 175.59 149.79 174.67 150.85 174.77 152.07 Z M 174.85 153.07 L 174.92 154.07 C 175.01 155.29 176.08 156.20 177.30 156.11 C 178.52 156.02 179.44 154.95 179.34 153.73 L 179.27 152.74 C 179.17 151.51 178.11 150.60 176.89 150.69 C 175.67 150.78 174.75 151.85 174.85 153.07 Z M 174.92 154.06 L 174.99 155.06 C 175.08 156.28 176.15 157.20 177.37 157.11 C 178.59 157.02 179.51 155.96 179.42 154.74 L 179.34 153.74 C 179.25 152.52 178.19 151.60 176.97 151.69 C 175.75 151.78 174.83 152.84 174.92 154.06 Z M 174.99 155.05 L 175.06 156.05 C 175.15 157.28 176.21 158.20 177.43 158.11 C 178.65 158.02 179.58 156.96 179.49 155.74 L 179.42 154.74 C 179.33 153.52 178.27 152.60 177.05 152.68 C 175.83 152.77 174.90 153.83 174.99 155.05 Z M 175.06 156.04 L 175.13 157.04 C 175.21 158.26 176.27 159.19 177.49 159.11 C 178.71 159.03 179.64 157.97 179.56 156.75 L 179.49 155.75 C 179.41 154.52 178.35 153.60 177.13 153.68 C 175.90 153.76 174.98 154.82 175.06 156.04 Z M 175.13 157.03 L 175.19 158.03 C 175.26 159.25 176.32 160.18 177.54 160.11 C 178.77 160.03 179.70 158.98 179.62 157.75 L 179.56 156.76 C 179.48 155.53 178.43 154.60 177.20 154.68 C 175.98 154.75 175.05 155.81 175.13 157.03 Z M 175.19 158.02 L 175.24 159.01 C 175.31 160.24 176.36 161.17 177.59 161.10 C 178.81 161.03 179.75 159.98 179.68 158.76 L 179.62 157.76 C 179.55 156.54 178.50 155.60 177.28 155.67 C 176.05 155.74 175.12 156.79 175.19 158.02 Z M 175.24 159.00 L 175.30 160.00 C 175.36 161.23 176.41 162.17 177.63 162.10 C 178.85 162.04 179.79 161.00 179.73 159.77 L 179.68 158.77 C 179.61 157.55 178.57 156.61 177.34 156.67 C 176.12 156.73 175.18 157.78 175.24 159.00 Z M 175.30 159.99 L 175.35 160.98 C 175.40 162.20 176.44 163.14 177.67 163.08 C 178.89 163.03 179.83 161.99 179.78 160.76 L 179.73 159.78 C 179.67 158.56 178.63 157.61 177.41 157.67 C 176.18 157.73 175.24 158.77 175.30 159.99 Z M 175.35 160.96 L 175.39 161.95 C 175.44 163.17 176.47 164.12 177.70 164.07 C 178.92 164.02 179.87 162.99 179.81 161.76 L 179.77 160.78 C 179.72 159.55 178.69 158.61 177.47 158.66 C 176.25 158.71 175.30 159.74 175.35 160.96 Z M 175.39 161.94 L 175.43 162.94 C 175.47 164.16 176.50 165.12 177.72 165.07 C 178.94 165.03 179.89 164.01 179.85 162.79 L 179.81 161.78 C 179.77 160.56 178.74 159.61 177.52 159.65 C 176.30 159.69 175.35 160.72 175.39 161.94 Z M 175.43 162.93 L 175.46 163.95 C 175.50 165.17 176.51 166.13 177.73 166.09 C 178.95 166.06 179.91 165.04 179.87 163.82 L 179.84 162.80 C 179.81 161.58 178.79 160.63 177.58 160.66 C 176.36 160.69 175.40 161.71 175.43 162.93 Z M 175.47 163.93 L 175.49 164.95 C 175.52 166.16 176.52 167.13 177.74 167.10 C 178.95 167.07 179.91 166.07 179.89 164.85 L 179.86 163.84 C 179.84 162.63 178.83 161.66 177.62 161.69 C 176.41 161.72 175.44 162.72 175.47 163.93 Z M 175.50 164.94 L 175.52 165.95 C 175.54 167.16 176.53 168.12 177.74 168.10 C 178.95 168.08 179.91 167.09 179.89 165.88 L 179.88 164.87 C 179.86 163.66 178.86 162.69 177.65 162.71 C 176.45 162.73 175.48 163.73 175.50 164.94 Z M 175.53 165.94 L 175.54 166.93 C 175.55 168.13 176.54 169.09 177.74 169.08 C 178.94 169.07 179.91 168.08 179.89 166.88 L 179.88 165.89 C 179.87 164.69 178.88 163.72 177.68 163.74 C 176.48 163.75 175.51 164.74 175.53 165.94 Z M 175.55 166.92 L 175.56 167.94 C 175.57 169.14 176.54 170.10 177.74 170.09 C 178.94 170.08 179.90 169.11 179.89 167.91 L 179.88 166.89 C 179.87 165.69 178.90 164.73 177.70 164.74 C 176.50 164.74 175.54 165.72 175.55 166.92 Z M 175.57 167.93 L 175.57 168.95 C 175.58 170.14 176.54 171.10 177.73 171.10 C 178.93 171.09 179.89 170.13 179.88 168.94 L 179.88 167.92 C 179.87 166.73 178.91 165.77 177.72 165.77 C 176.53 165.77 175.56 166.74 175.57 167.93 Z M 175.58 168.95 L 175.58 169.92 C 175.59 171.10 176.55 172.06 177.73 172.06 C 178.91 172.06 179.87 171.10 179.87 169.91 L 179.87 168.94 C 179.87 167.76 178.91 166.80 177.72 166.80 C 176.54 166.80 175.58 167.76 175.58 168.95 Z M 175.60 169.92 L 175.60 170.89 C 175.60 172.07 176.55 173.02 177.73 173.02 C 178.91 173.02 179.86 172.07 179.86 170.89 L 179.86 169.91 C 179.86 168.74 178.91 167.78 177.73 167.78 C 176.55 167.78 175.60 168.74 175.60 169.92 Z M 175.61 170.89 L 175.61 171.89 C 175.61 173.06 176.56 174.01 177.73 174.01 C 178.90 174.01 179.85 173.06 179.85 171.89 L 179.85 170.89 C 179.85 169.72 178.90 168.77 177.73 168.77 C 176.56 168.77 175.61 169.72 175.61 170.89 Z M 175.62 171.89 L 175.62 172.89 C 175.62 174.05 176.57 174.99 177.73 174.99 C 178.89 174.99 179.83 174.05 179.83 172.89 L 179.83 171.89 C 179.83 170.73 178.89 169.79 177.73 169.79 C 176.57 169.79 175.62 170.73 175.62 171.89 Z M 175.64 172.89 L 175.64 173.89 C 175.64 175.04 176.57 175.98 177.73 175.98 C 178.88 175.98 179.82 175.04 179.82 173.89 L 179.82 172.89 C 179.82 171.74 178.88 170.80 177.73 170.80 C 176.58 170.80 175.64 171.74 175.64 172.89 Z M 175.66 173.88 L 175.65 174.89 C 175.65 176.03 176.57 176.96 177.72 176.97 C 178.86 176.97 179.79 176.05 179.80 174.90 L 179.80 173.90 C 179.80 172.75 178.88 171.82 177.74 171.82 C 176.59 171.81 175.66 172.74 175.66 173.88 Z M 175.67 174.87 L 175.66 175.86 C 175.64 177.00 176.55 177.93 177.68 177.95 C 178.81 177.96 179.75 177.06 179.76 175.92 L 179.78 174.93 C 179.79 173.79 178.89 172.86 177.75 172.84 C 176.62 172.83 175.69 173.73 175.67 174.87 Z M 175.67 175.82 L 175.64 176.83 C 175.60 177.95 176.48 178.89 177.61 178.93 C 178.73 178.97 179.67 178.09 179.71 176.97 L 179.75 175.96 C 179.78 174.84 178.90 173.90 177.78 173.86 C 176.66 173.82 175.71 174.70 175.67 175.82 Z M 175.65 176.78 L 175.60 177.79 C 175.53 178.90 176.38 179.86 177.50 179.93 C 178.61 179.99 179.57 179.14 179.64 178.02 L 179.70 177.02 C 179.76 175.90 178.91 174.94 177.79 174.88 C 176.68 174.81 175.72 175.66 175.65 176.78 Z M 175.61 177.74 L 175.53 178.73 C 175.44 179.83 176.26 180.81 177.37 180.90 C 178.48 180.99 179.46 180.16 179.54 179.05 L 179.62 178.07 C 179.71 176.96 178.89 175.99 177.78 175.90 C 176.67 175.81 175.70 176.63 175.61 177.74 Z M 175.54 178.69 L 175.44 179.67 C 175.32 180.78 176.13 181.76 177.23 181.88 C 178.34 181.99 179.32 181.18 179.44 180.08 L 179.54 179.09 C 179.65 177.99 178.84 177.00 177.74 176.89 C 176.64 176.78 175.65 177.58 175.54 178.69 Z M 175.44 179.64 L 175.32 180.63 C 175.19 181.73 175.98 182.73 177.08 182.86 C 178.18 182.99 179.18 182.21 179.32 181.10 L 179.43 180.11 C 179.56 179.01 178.78 178.01 177.67 177.88 C 176.57 177.75 175.57 178.54 175.44 179.64 Z M 175.32 180.60 L 175.19 181.60 C 175.05 182.70 175.82 183.71 176.93 183.86 C 178.03 184.00 179.04 183.23 179.19 182.12 L 179.32 181.13 C 179.46 180.02 178.68 179.01 177.58 178.87 C 176.48 178.72 175.47 179.50 175.32 180.60 Z M 175.19 181.58 L 175.05 182.60 C 174.90 183.71 175.67 184.73 176.77 184.88 C 177.88 185.03 178.89 184.26 179.05 183.16 L 179.19 182.14 C 179.34 181.03 178.57 180.01 177.46 179.86 C 176.36 179.71 175.34 180.48 175.19 181.58 Z M 175.05 182.60 L 174.91 183.59 C 174.75 184.70 175.52 185.72 176.63 185.87 C 177.73 186.03 178.75 185.26 178.91 184.15 L 179.05 183.16 C 179.20 182.06 178.43 181.03 177.33 180.88 C 176.22 180.72 175.20 181.49 175.05 182.60 Z M 174.90 183.59 L 174.76 184.59 C 174.61 185.69 175.38 186.72 176.49 186.87 C 177.59 187.03 178.62 186.26 178.77 185.15 L 178.91 184.15 C 179.07 183.05 178.30 182.02 177.19 181.87 C 176.08 181.71 175.06 182.48 174.90 183.59 Z M 174.77 184.59 L 174.62 185.58 C 174.47 186.69 175.24 187.71 176.34 187.86 C 177.45 188.02 178.47 187.25 178.63 186.14 L 178.77 185.15 C 178.93 184.05 178.16 183.02 177.05 182.87 C 175.94 182.71 174.92 183.48 174.77 184.59 Z M 174.63 185.56 L 174.49 186.51 C 174.32 187.62 175.08 188.64 176.18 188.81 C 177.29 188.98 178.31 188.22 178.48 187.11 L 178.62 186.16 C 178.79 185.06 178.03 184.03 176.93 183.87 C 175.82 183.70 174.80 184.46 174.63 185.56 Z M 174.50 186.48 L 174.33 187.47 C 174.14 188.57 174.89 189.61 175.98 189.79 C 177.08 189.98 178.12 189.24 178.31 188.14 L 178.47 187.15 C 178.66 186.05 177.92 185.01 176.82 184.83 C 175.72 184.64 174.68 185.38 174.50 186.48 Z M 174.34 187.43 L 174.15 188.41 C 173.94 189.50 174.66 190.56 175.75 190.77 C 176.84 190.98 177.90 190.26 178.11 189.17 L 178.29 188.18 C 178.50 187.09 177.79 186.04 176.70 185.83 C 175.60 185.62 174.55 186.33 174.34 187.43 Z M 174.16 188.38 L 173.95 189.36 C 173.73 190.45 174.43 191.52 175.51 191.74 C 176.60 191.97 177.67 191.27 177.89 190.18 L 178.10 189.20 C 178.33 188.11 177.63 187.05 176.54 186.82 C 175.45 186.59 174.38 187.29 174.16 188.38 Z M 173.95 189.38 L 173.77 190.30 C 173.55 191.39 174.26 192.45 175.35 192.67 C 176.44 192.88 177.50 192.17 177.72 191.08 L 177.90 190.16 C 178.11 189.07 177.40 188.01 176.31 187.80 C 175.22 187.58 174.16 188.29 173.95 189.38 Z M 173.77 190.30 L 173.57 191.28 C 173.36 192.37 174.06 193.43 175.15 193.65 C 176.24 193.86 177.30 193.16 177.52 192.07 L 177.71 191.09 C 177.93 190.00 177.23 188.94 176.14 188.72 C 175.05 188.50 173.99 189.21 173.77 190.30 Z M 173.59 191.21 L 173.36 192.19 C 173.11 193.27 173.78 194.35 174.86 194.61 C 175.94 194.86 177.02 194.19 177.27 193.11 L 177.50 192.13 C 177.75 191.05 177.08 189.97 176.01 189.72 C 174.93 189.47 173.84 190.14 173.59 191.21 Z M 173.39 192.10 L 173.11 193.08 C 172.81 194.15 173.42 195.25 174.48 195.56 C 175.55 195.86 176.65 195.25 176.96 194.19 L 177.24 193.20 C 177.55 192.14 176.93 191.03 175.87 190.73 C 174.81 190.42 173.70 191.04 173.39 192.10 Z M 173.17 192.93 L 172.79 193.93 C 172.40 194.96 172.92 196.11 173.95 196.50 C 174.98 196.89 176.13 196.37 176.52 195.34 L 176.90 194.34 C 177.29 193.31 176.77 192.16 175.74 191.77 C 174.71 191.38 173.56 191.90 173.17 192.93 Z M 172.96 193.63 L 172.40 194.58 C 171.84 195.52 172.15 196.73 173.09 197.28 C 174.02 197.84 175.23 197.53 175.79 196.59 L 176.35 195.64 C 176.91 194.70 176.60 193.49 175.66 192.94 C 174.72 192.39 173.52 192.70 172.96 193.63 Z M 173.19 193.88 L 172.52 194.23 C 171.58 194.74 171.22 195.90 171.72 196.85 C 172.22 197.79 173.39 198.15 174.34 197.65 L 175.00 197.29 C 175.94 196.79 176.30 195.62 175.80 194.68 C 175.30 193.74 174.13 193.38 173.19 193.88 Z M 174.48 194.40 L 173.67 193.84 C 172.82 193.26 171.66 193.48 171.07 194.32 C 170.49 195.17 170.71 196.33 171.56 196.92 L 172.37 197.48 C 173.22 198.06 174.38 197.84 174.97 196.99 C 175.55 196.15 175.33 194.98 174.48 194.40 Z M 173.90 194.10 L 173.81 194.01 C 173.11 193.30 171.96 193.30 171.24 194.00 C 170.53 194.71 170.53 195.86 171.24 196.57 L 171.32 196.66 C 172.03 197.37 173.18 197.37 173.89 196.67 C 174.60 195.96 174.61 194.81 173.90 194.10 Z"
      fill="black"
      fill-rule="nonzero" /><path d="M 165.74 126.93 L 164.84 126.36 C 163.93 125.77 162.71 126.04 162.12 126.95 C 161.53 127.86 161.80 129.08 162.71 129.67 L 163.61 130.25 C 164.52 130.83 165.74 130.57 166.33 129.65 C 166.92 128.74 166.65 127.52 165.74 126.93 Z M 165.37 129.28 L 165.75 128.80 C 166.45 127.93 166.30 126.65 165.42 125.95 C 164.54 125.25 163.27 125.39 162.57 126.27 L 162.19 126.75 C 161.49 127.63 161.63 128.90 162.51 129.60 C 163.39 130.30 164.67 130.16 165.37 129.28 Z M 164.77 129.50 L 165.89 129.15 C 166.98 128.81 167.58 127.66 167.24 126.58 C 166.91 125.49 165.75 124.89 164.67 125.22 L 163.55 125.57 C 162.46 125.91 161.86 127.06 162.19 128.15 C 162.53 129.23 163.68 129.84 164.77 129.50 Z M 165.68 129.20 L 166.67 129.01 C 167.78 128.78 168.51 127.70 168.28 126.59 C 168.06 125.48 166.98 124.75 165.87 124.97 L 164.88 125.17 C 163.76 125.39 163.04 126.48 163.26 127.59 C 163.49 128.70 164.57 129.43 165.68 129.20 Z M 166.58 129.01 L 167.57 128.86 C 168.69 128.69 169.45 127.64 169.28 126.53 C 169.11 125.41 168.07 124.65 166.95 124.82 L 165.96 124.97 C 164.85 125.14 164.08 126.19 164.25 127.30 C 164.42 128.41 165.46 129.18 166.58 129.01 Z M 167.51 128.83 L 168.54 128.70 C 169.64 128.56 170.41 127.56 170.28 126.46 C 170.14 125.36 169.13 124.58 168.04 124.72 L 167.01 124.85 C 165.91 124.99 165.13 125.99 165.27 127.09 C 165.41 128.19 166.41 128.97 167.51 128.83 Z M 168.50 128.64 L 169.46 128.54 C 170.53 128.42 171.30 127.45 171.18 126.39 C 171.06 125.32 170.10 124.55 169.03 124.67 L 168.07 124.77 C 167.00 124.89 166.23 125.86 166.35 126.93 C 166.47 127.99 167.43 128.76 168.50 128.64 Z M 169.45 128.48 L 170.46 128.38 C 171.50 128.27 172.25 127.33 172.14 126.29 C 172.03 125.25 171.09 124.50 170.05 124.61 L 169.05 124.72 C 168.01 124.83 167.25 125.76 167.36 126.80 C 167.47 127.84 168.41 128.60 169.45 128.48 Z M 170.41 128.34 L 171.40 128.25 C 172.42 128.17 173.17 127.28 173.09 126.26 C 173.00 125.24 172.11 124.48 171.09 124.57 L 170.10 124.65 C 169.08 124.74 168.33 125.63 168.41 126.65 C 168.50 127.67 169.39 128.42 170.41 128.34 Z M 171.34 128.23 L 172.33 128.18 C 173.33 128.13 174.10 127.27 174.05 126.27 C 174.00 125.27 173.15 124.50 172.15 124.55 L 171.15 124.60 C 170.15 124.65 169.38 125.50 169.43 126.50 C 169.48 127.51 170.33 128.28 171.34 128.23 Z M 172.31 128.16 L 172.60 128.15 C 173.59 128.11 174.37 127.27 174.33 126.28 C 174.29 125.28 173.45 124.51 172.45 124.55 L 172.17 124.56 C 171.17 124.60 170.40 125.44 170.44 126.43 C 170.48 127.43 171.32 128.20 172.31 128.16 Z"
      fill="black"
      fill-rule="nonzero" /><path d="M 164.02 138.87 L 165.00 139.00 C 166.05 139.14 167.02 138.40 167.16 137.35 C 167.30 136.30 166.57 135.33 165.51 135.19 L 164.54 135.06 C 163.49 134.91 162.52 135.65 162.37 136.70 C 162.23 137.75 162.97 138.72 164.02 138.87 Z M 165.26 139.05 L 166.27 139.05 C 167.35 139.05 168.22 138.17 168.22 137.09 C 168.22 136.01 167.34 135.13 166.26 135.13 L 165.25 135.13 C 164.17 135.14 163.29 136.02 163.30 137.10 C 163.30 138.18 164.18 139.06 165.26 139.05 Z M 166.68 139.02 L 167.63 138.82 C 168.69 138.59 169.37 137.54 169.14 136.47 C 168.91 135.40 167.86 134.73 166.79 134.96 L 165.84 135.16 C 164.78 135.39 164.10 136.44 164.33 137.51 C 164.56 138.57 165.61 139.25 166.68 139.02 Z M 167.86 138.74 L 168.82 138.40 C 169.84 138.04 170.38 136.92 170.02 135.90 C 169.66 134.87 168.54 134.34 167.52 134.70 L 166.56 135.03 C 165.54 135.39 165.00 136.52 165.36 137.54 C 165.72 138.56 166.84 139.10 167.86 138.74 Z M 168.88 138.36 L 169.84 137.98 C 170.84 137.58 171.33 136.46 170.93 135.46 C 170.54 134.46 169.41 133.97 168.41 134.36 L 167.46 134.74 C 166.46 135.14 165.97 136.26 166.36 137.26 C 166.76 138.26 167.89 138.75 168.88 138.36 Z M 169.83 137.94 L 170.77 137.57 C 171.74 137.18 172.22 136.07 171.83 135.09 C 171.44 134.11 170.33 133.64 169.35 134.03 L 168.42 134.40 C 167.44 134.79 166.96 135.90 167.35 136.88 C 167.74 137.86 168.85 138.34 169.83 137.94 Z M 170.77 137.53 L 171.68 137.16 C 172.64 136.77 173.09 135.67 172.70 134.72 C 172.31 133.76 171.22 133.30 170.26 133.69 L 169.35 134.07 C 168.39 134.46 167.93 135.55 168.33 136.51 C 168.72 137.46 169.81 137.92 170.77 137.53 Z M 171.69 137.12 L 172.61 136.73 C 173.55 136.34 173.99 135.26 173.59 134.32 C 173.20 133.38 172.12 132.94 171.18 133.34 L 170.26 133.73 C 169.32 134.12 168.88 135.20 169.28 136.14 C 169.67 137.08 170.75 137.52 171.69 137.12 Z M 172.61 136.70 L 173.49 136.33 C 174.41 135.93 174.84 134.87 174.45 133.94 C 174.05 133.02 172.98 132.60 172.06 132.99 L 171.18 133.37 C 170.26 133.76 169.83 134.83 170.23 135.75 C 170.62 136.67 171.69 137.10 172.61 136.70 Z"
      fill="black"
      fill-rule="nonzero" /><path d="M 143.84 143.39 L 142.83 143.54 C 141.76 143.71 141.02 144.71 141.18 145.78 C 141.34 146.85 142.35 147.59 143.42 147.43 L 144.43 147.27 C 145.50 147.11 146.23 146.11 146.07 145.04 C 145.91 143.96 144.91 143.23 143.84 143.39 Z M 142.02 143.86 L 141.26 144.38 C 140.36 144.98 140.12 146.20 140.73 147.10 C 141.34 148.00 142.56 148.24 143.46 147.63 L 144.22 147.11 C 145.12 146.50 145.36 145.28 144.75 144.39 C 144.14 143.49 142.92 143.25 142.02 143.86 Z M 140.64 145.05 L 140.15 145.94 C 139.62 146.88 139.96 148.08 140.91 148.60 C 141.86 149.13 143.05 148.79 143.58 147.84 L 144.07 146.96 C 144.60 146.01 144.26 144.81 143.31 144.29 C 142.36 143.76 141.17 144.10 140.64 145.05 Z M 140.05 146.14 L 139.67 147.07 C 139.25 148.07 139.73 149.22 140.73 149.63 C 141.74 150.05 142.88 149.57 143.30 148.57 L 143.68 147.64 C 144.09 146.63 143.61 145.49 142.61 145.07 C 141.61 144.66 140.46 145.14 140.05 146.14 Z M 139.65 147.11 L 139.29 148.04 C 138.90 149.06 139.41 150.19 140.42 150.58 C 141.43 150.97 142.57 150.46 142.96 149.45 L 143.31 148.52 C 143.70 147.51 143.20 146.37 142.18 145.99 C 141.17 145.60 140.04 146.10 139.65 147.11 Z M 139.28 148.06 L 138.96 148.94 C 138.58 149.96 139.09 151.09 140.11 151.47 C 141.13 151.85 142.26 151.33 142.64 150.31 L 142.96 149.43 C 143.34 148.42 142.82 147.29 141.81 146.91 C 140.79 146.53 139.66 147.05 139.28 148.06 Z M 138.95 148.94 L 138.58 149.94 C 138.20 150.96 138.72 152.09 139.73 152.47 C 140.75 152.85 141.88 152.33 142.26 151.32 L 142.64 150.32 C 143.02 149.30 142.50 148.17 141.48 147.79 C 140.47 147.41 139.34 147.92 138.95 148.94 Z M 138.58 149.93 L 138.22 150.88 C 137.83 151.90 138.34 153.04 139.36 153.42 C 140.38 153.81 141.51 153.30 141.90 152.28 L 142.26 151.33 C 142.65 150.31 142.14 149.17 141.12 148.79 C 140.10 148.40 138.97 148.91 138.58 149.93 Z M 138.21 150.89 L 137.86 151.83 C 137.48 152.85 137.99 153.99 139.01 154.37 C 140.03 154.75 141.17 154.24 141.55 153.22 L 141.91 152.28 C 142.29 151.26 141.77 150.12 140.75 149.74 C 139.73 149.35 138.60 149.87 138.21 150.89 Z M 137.84 151.87 L 137.50 152.83 C 137.14 153.85 137.68 154.98 138.71 155.34 C 139.74 155.71 140.87 155.17 141.23 154.14 L 141.57 153.18 C 141.93 152.15 141.39 151.03 140.36 150.66 C 139.34 150.30 138.21 150.84 137.84 151.87 Z M 137.47 152.93 L 137.20 153.85 C 136.90 154.90 137.50 156.00 138.55 156.30 C 139.60 156.60 140.69 156.00 141.00 154.95 L 141.26 154.03 C 141.57 152.98 140.96 151.89 139.92 151.59 C 138.87 151.28 137.77 151.89 137.47 152.93 Z M 137.16 154.05 L 136.96 155.15 C 136.77 156.22 137.48 157.25 138.55 157.44 C 139.63 157.64 140.65 156.92 140.84 155.85 L 141.04 154.75 C 141.24 153.68 140.52 152.65 139.45 152.46 C 138.38 152.27 137.35 152.98 137.16 154.05 Z M 137.05 156.16 L 137.30 156.87 C 137.67 157.89 138.80 158.42 139.82 158.06 C 140.84 157.69 141.37 156.57 141.01 155.54 L 140.75 154.84 C 140.39 153.81 139.26 153.28 138.24 153.65 C 137.22 154.01 136.68 155.14 137.05 156.16 Z M 139.47 158.12 L 140.40 157.97 C 141.46 157.79 142.17 156.80 142.00 155.74 C 141.83 154.68 140.83 153.97 139.77 154.14 L 138.84 154.29 C 137.78 154.46 137.07 155.46 137.24 156.52 C 137.41 157.58 138.41 158.29 139.47 158.12 Z M 141.02 157.71 L 141.96 157.17 C 142.88 156.66 143.20 155.50 142.68 154.58 C 142.16 153.67 141.00 153.35 140.09 153.87 L 139.15 154.40 C 138.24 154.92 137.91 156.08 138.43 156.99 C 138.95 157.90 140.11 158.22 141.02 157.71 Z M 142.18 156.99 L 142.96 156.38 C 143.77 155.74 143.92 154.57 143.28 153.76 C 142.65 152.94 141.47 152.80 140.66 153.44 L 139.88 154.05 C 139.06 154.69 138.92 155.86 139.56 156.67 C 140.19 157.48 141.36 157.63 142.18 156.99 Z M 143.04 156.28 L 143.79 155.60 C 144.55 154.93 144.61 153.76 143.94 153.01 C 143.26 152.25 142.10 152.18 141.34 152.86 L 140.59 153.54 C 139.83 154.21 139.76 155.37 140.44 156.13 C 141.12 156.89 142.28 156.96 143.04 156.28 Z M 143.81 155.56 L 144.53 154.88 C 145.27 154.19 145.31 153.04 144.62 152.31 C 143.93 151.57 142.78 151.54 142.04 152.23 L 141.32 152.90 C 140.59 153.59 140.55 154.74 141.24 155.48 C 141.93 156.21 143.08 156.25 143.81 155.56 Z M 144.52 154.89 L 145.20 154.26 C 145.94 153.58 145.99 152.43 145.31 151.70 C 144.63 150.96 143.49 150.91 142.75 151.59 L 142.06 152.22 C 141.33 152.90 141.28 154.04 141.96 154.78 C 142.63 155.52 143.78 155.56 144.52 154.89 Z M 145.06 154.37 L 145.90 153.74 C 146.70 153.14 146.87 152.01 146.27 151.21 C 145.67 150.41 144.54 150.24 143.74 150.84 L 142.89 151.47 C 142.09 152.07 141.93 153.21 142.53 154.01 C 143.12 154.81 144.26 154.97 145.06 154.37 Z M 145.71 153.87 L 146.70 153.31 C 147.57 152.82 147.88 151.72 147.39 150.84 C 146.90 149.97 145.79 149.66 144.92 150.15 L 143.93 150.71 C 143.06 151.20 142.75 152.31 143.24 153.18 C 143.73 154.05 144.84 154.36 145.71 153.87 Z M 146.37 153.47 L 147.25 153.18 C 148.21 152.87 148.74 151.84 148.43 150.89 C 148.12 149.93 147.09 149.40 146.13 149.71 L 145.25 150.00 C 144.29 150.31 143.76 151.34 144.07 152.30 C 144.39 153.26 145.41 153.78 146.37 153.47 Z M 145.28 152.62 L 145.68 153.11 C 146.32 153.89 147.48 154.00 148.26 153.35 C 149.04 152.71 149.15 151.55 148.51 150.77 L 148.11 150.28 C 147.46 149.50 146.30 149.39 145.52 150.03 C 144.74 150.68 144.63 151.84 145.28 152.62 Z M 145.31 151.47 L 145.03 152.55 C 144.77 153.54 145.37 154.54 146.35 154.80 C 147.34 155.05 148.34 154.46 148.60 153.48 L 148.88 152.40 C 149.13 151.41 148.54 150.41 147.56 150.15 C 146.57 149.90 145.56 150.49 145.31 151.47 Z M 145.10 152.31 L 144.73 153.21 C 144.34 154.15 144.79 155.23 145.74 155.62 C 146.68 156.02 147.76 155.57 148.15 154.62 L 148.52 153.72 C 148.92 152.78 148.47 151.69 147.52 151.30 C 146.58 150.91 145.50 151.36 145.10 152.31 Z M 144.75 153.15 L 144.32 154.11 C 143.89 155.04 144.31 156.14 145.24 156.57 C 146.17 156.99 147.27 156.58 147.70 155.64 L 148.13 154.68 C 148.56 153.75 148.14 152.65 147.21 152.22 C 146.28 151.80 145.17 152.21 144.75 153.15 Z M 144.30 154.11 L 143.88 155.07 C 143.46 156.01 143.88 157.11 144.82 157.53 C 145.76 157.95 146.86 157.53 147.28 156.59 L 147.71 155.64 C 148.13 154.69 147.71 153.59 146.77 153.17 C 145.83 152.75 144.72 153.17 144.30 154.11 Z M 143.86 155.10 L 143.46 156.02 C 143.06 156.97 143.50 158.07 144.45 158.48 C 145.41 158.88 146.51 158.44 146.91 157.49 L 147.30 156.57 C 147.71 155.61 147.27 154.51 146.31 154.11 C 145.36 153.70 144.26 154.14 143.86 155.10 Z M 143.43 156.06 L 143.07 157.00 C 142.69 157.97 143.17 159.06 144.13 159.44 C 145.10 159.82 146.20 159.34 146.58 158.37 L 146.94 157.44 C 147.32 156.47 146.84 155.38 145.88 155.00 C 144.91 154.62 143.81 155.10 143.43 156.06 Z M 143.03 157.09 L 142.72 158.02 C 142.39 159.01 142.93 160.08 143.92 160.41 C 144.91 160.74 145.98 160.20 146.31 159.21 L 146.62 158.28 C 146.95 157.29 146.41 156.22 145.42 155.89 C 144.43 155.56 143.35 156.10 143.03 157.09 Z M 142.68 158.13 L 142.43 159.08 C 142.16 160.09 142.77 161.13 143.78 161.40 C 144.80 161.67 145.83 161.06 146.10 160.05 L 146.35 159.10 C 146.62 158.08 146.01 157.04 145.00 156.78 C 143.98 156.51 142.95 157.11 142.68 158.13 Z M 142.39 159.20 L 142.20 160.18 C 142.00 161.21 142.68 162.21 143.71 162.41 C 144.74 162.61 145.74 161.94 145.95 160.91 L 146.14 159.93 C 146.34 158.89 145.66 157.89 144.63 157.69 C 143.60 157.49 142.59 158.17 142.39 159.20 Z M 142.16 160.52 L 142.15 161.58 C 142.13 162.64 142.98 163.50 144.03 163.52 C 145.09 163.53 145.96 162.69 145.97 161.63 L 145.98 160.57 C 146.00 159.51 145.16 158.65 144.10 158.63 C 143.05 158.62 142.18 159.46 142.16 160.52 Z M 143.29 163.35 L 143.95 163.64 C 144.91 164.06 146.04 163.62 146.46 162.66 C 146.88 161.70 146.44 160.57 145.48 160.15 L 144.82 159.86 C 143.86 159.44 142.74 159.88 142.32 160.84 C 141.89 161.80 142.33 162.93 143.29 163.35 Z M 145.42 163.64 L 146.44 163.23 C 147.40 162.84 147.87 161.75 147.48 160.78 C 147.09 159.82 145.99 159.35 145.03 159.74 L 144.01 160.15 C 143.05 160.54 142.58 161.63 142.97 162.60 C 143.36 163.56 144.45 164.03 145.42 163.64 Z M 146.93 162.90 L 147.69 162.25 C 148.47 161.59 148.57 160.42 147.91 159.64 C 147.25 158.86 146.08 158.77 145.30 159.43 L 144.54 160.07 C 143.76 160.73 143.66 161.90 144.32 162.68 C 144.98 163.46 146.15 163.56 146.93 162.90 Z M 147.86 162.04 L 148.34 161.50 C 149.00 160.74 148.93 159.60 148.18 158.93 C 147.42 158.27 146.28 158.34 145.61 159.10 L 145.14 159.64 C 144.47 160.39 144.55 161.54 145.30 162.20 C 146.05 162.86 147.20 162.79 147.86 162.04 Z"
      fill="black"
      fill-rule="nonzero" /><path d="M 158.50 142.09 L 158.38 142.97 C 158.23 144.05 158.98 145.04 160.05 145.19 C 161.12 145.34 162.11 144.59 162.26 143.52 L 162.39 142.64 C 162.54 141.56 161.79 140.57 160.71 140.42 C 159.64 140.27 158.65 141.02 158.50 142.09 Z M 158.38 142.95 L 158.22 143.98 C 158.05 145.05 158.79 146.05 159.86 146.22 C 160.93 146.39 161.94 145.65 162.10 144.58 L 162.26 143.55 C 162.43 142.47 161.69 141.47 160.62 141.30 C 159.55 141.14 158.54 141.87 158.38 142.95 Z M 158.22 143.94 L 158.04 144.96 C 157.86 146.04 158.58 147.06 159.65 147.24 C 160.72 147.42 161.74 146.70 161.93 145.63 L 162.10 144.61 C 162.29 143.54 161.57 142.52 160.49 142.33 C 159.42 142.15 158.40 142.87 158.22 143.94 Z M 158.04 144.95 L 157.86 145.97 C 157.67 147.04 158.39 148.06 159.46 148.25 C 160.53 148.45 161.55 147.73 161.75 146.66 L 161.93 145.64 C 162.12 144.57 161.40 143.55 160.33 143.36 C 159.26 143.17 158.24 143.88 158.04 144.95 Z M 157.86 145.98 L 157.69 146.99 C 157.50 148.06 158.22 149.08 159.29 149.27 C 160.36 149.46 161.39 148.74 161.57 147.66 L 161.75 146.65 C 161.93 145.58 161.22 144.56 160.14 144.37 C 159.07 144.18 158.05 144.90 157.86 145.98 Z M 157.68 147.02 L 157.52 148.08 C 157.35 149.15 158.08 150.16 159.16 150.33 C 160.24 150.50 161.25 149.76 161.41 148.68 L 161.58 147.63 C 161.75 146.55 161.01 145.55 159.93 145.38 C 158.86 145.21 157.85 145.95 157.68 147.02 Z M 157.51 148.16 L 157.39 149.18 C 157.27 150.26 158.04 151.23 159.12 151.36 C 160.21 151.48 161.18 150.71 161.30 149.62 L 161.42 148.60 C 161.54 147.52 160.77 146.55 159.69 146.42 C 158.61 146.30 157.63 147.08 157.51 148.16 Z M 157.39 149.31 L 157.35 150.23 C 157.30 151.31 158.14 152.23 159.22 152.28 C 160.30 152.32 161.22 151.49 161.27 150.40 L 161.31 149.49 C 161.36 148.41 160.52 147.49 159.44 147.44 C 158.35 147.39 157.44 148.23 157.39 149.31 Z M 157.38 150.61 L 157.53 151.64 C 157.70 152.70 158.69 153.44 159.76 153.27 C 160.82 153.11 161.56 152.11 161.39 151.05 L 161.24 150.02 C 161.08 148.95 160.08 148.22 159.01 148.38 C 157.95 148.55 157.21 149.54 157.38 150.61 Z M 159.22 153.25 L 159.91 153.34 C 160.97 153.48 161.93 152.74 162.07 151.68 C 162.21 150.63 161.46 149.66 160.41 149.52 L 159.71 149.43 C 158.66 149.30 157.69 150.04 157.55 151.09 C 157.42 152.15 158.16 153.11 159.22 153.25 Z M 161.28 152.94 L 162.17 152.29 C 163.00 151.67 163.17 150.49 162.55 149.66 C 161.94 148.82 160.76 148.65 159.92 149.27 L 159.04 149.92 C 158.21 150.54 158.03 151.72 158.65 152.55 C 159.27 153.39 160.45 153.56 161.28 152.94 Z M 162.46 151.95 L 163.10 151.18 C 163.75 150.40 163.63 149.24 162.85 148.59 C 162.07 147.94 160.91 148.05 160.26 148.84 L 159.62 149.60 C 158.98 150.39 159.09 151.55 159.87 152.20 C 160.66 152.84 161.82 152.73 162.46 151.95 Z M 163.16 151.06 L 163.73 150.25 C 164.31 149.43 164.12 148.29 163.30 147.72 C 162.48 147.14 161.34 147.33 160.76 148.15 L 160.19 148.96 C 159.61 149.78 159.81 150.92 160.63 151.49 C 161.45 152.07 162.58 151.88 163.16 151.06 Z M 163.75 150.23 L 164.34 149.36 C 164.91 148.53 164.70 147.40 163.87 146.83 C 163.04 146.27 161.91 146.48 161.35 147.30 L 160.75 148.17 C 160.18 149.00 160.39 150.13 161.22 150.70 C 162.05 151.27 163.18 151.06 163.75 150.23 Z M 164.11 149.69 L 164.79 149.05 C 165.54 148.35 165.58 147.17 164.88 146.43 C 164.18 145.68 163.01 145.64 162.26 146.34 L 161.58 146.98 C 160.83 147.68 160.79 148.85 161.49 149.60 C 162.19 150.35 163.36 150.39 164.11 149.69 Z M 162.07 148.91 L 162.59 149.53 C 163.26 150.33 164.46 150.44 165.26 149.77 C 166.06 149.10 166.17 147.90 165.50 147.10 L 164.98 146.48 C 164.31 145.67 163.11 145.57 162.31 146.24 C 161.51 146.91 161.40 148.11 162.07 148.91 Z M 162.18 148.74 L 162.43 149.81 C 162.66 150.84 163.69 151.48 164.71 151.25 C 165.74 151.02 166.38 149.99 166.15 148.97 L 165.90 147.89 C 165.67 146.86 164.65 146.22 163.62 146.45 C 162.59 146.69 161.95 147.71 162.18 148.74 Z M 162.37 149.47 L 162.42 150.47 C 162.46 151.53 163.36 152.35 164.42 152.30 C 165.47 152.25 166.29 151.36 166.25 150.30 L 166.20 149.31 C 166.16 148.25 165.26 147.43 164.21 147.48 C 163.15 147.52 162.33 148.42 162.37 149.47 Z M 162.41 150.39 L 162.41 151.39 C 162.41 152.46 163.27 153.32 164.33 153.32 C 165.40 153.32 166.26 152.46 166.26 151.39 L 166.26 150.38 C 166.26 149.32 165.39 148.46 164.33 148.46 C 163.27 148.46 162.41 149.32 162.41 150.39 Z M 162.40 151.39 L 162.40 152.39 C 162.40 153.45 163.26 154.32 164.33 154.32 C 165.40 154.32 166.27 153.45 166.27 152.39 L 166.27 151.39 C 166.27 150.33 165.40 149.46 164.33 149.46 C 163.26 149.46 162.40 150.33 162.40 151.39 Z M 162.39 152.40 L 162.40 153.38 C 162.41 154.45 163.28 155.31 164.35 155.31 C 165.42 155.30 166.28 154.43 166.28 153.36 L 166.27 152.38 C 166.26 151.30 165.39 150.44 164.32 150.45 C 163.25 150.45 162.39 151.33 162.39 152.40 Z M 162.40 153.44 L 162.43 154.47 C 162.47 155.54 163.37 156.38 164.44 156.34 C 165.52 156.31 166.35 155.41 166.31 154.33 L 166.28 153.30 C 166.24 152.23 165.34 151.39 164.27 151.43 C 163.20 151.47 162.36 152.37 162.40 153.44 Z M 162.46 154.73 L 162.63 155.74 C 162.81 156.79 163.82 157.50 164.87 157.32 C 165.93 157.14 166.64 156.14 166.46 155.08 L 166.29 154.08 C 166.11 153.02 165.11 152.31 164.05 152.49 C 162.99 152.67 162.28 153.67 162.46 154.73 Z M 163.10 156.70 L 163.72 157.40 C 164.43 158.20 165.66 158.27 166.46 157.56 C 167.26 156.84 167.33 155.62 166.62 154.82 L 166.00 154.12 C 165.28 153.32 164.06 153.25 163.26 153.96 C 162.46 154.67 162.38 155.90 163.10 156.70 Z M 165.29 158.03 L 166.21 157.97 C 167.27 157.91 168.08 156.99 168.02 155.93 C 167.95 154.87 167.04 154.06 165.98 154.13 L 165.05 154.18 C 163.99 154.25 163.18 155.16 163.24 156.22 C 163.31 157.29 164.22 158.10 165.29 158.03 Z M 167.40 157.41 L 168.11 156.73 C 168.86 156.01 168.88 154.82 168.16 154.07 C 167.44 153.31 166.25 153.29 165.50 154.01 L 164.79 154.69 C 164.04 155.41 164.01 156.60 164.73 157.36 C 165.45 158.11 166.65 158.13 167.40 157.41 Z M 168.36 156.35 L 168.90 155.49 C 169.44 154.62 169.18 153.49 168.32 152.95 C 167.45 152.41 166.32 152.67 165.78 153.53 L 165.24 154.40 C 164.70 155.26 164.96 156.39 165.83 156.93 C 166.69 157.47 167.82 157.21 168.36 156.35 Z M 168.95 155.35 L 169.42 154.45 C 169.88 153.57 169.54 152.47 168.65 152.00 C 167.76 151.54 166.67 151.88 166.20 152.77 L 165.73 153.67 C 165.27 154.56 165.61 155.65 166.50 156.12 C 167.39 156.58 168.48 156.24 168.95 155.35 Z M 169.42 154.42 L 169.51 154.25 C 169.96 153.36 169.60 152.28 168.71 151.83 C 167.82 151.38 166.74 151.74 166.29 152.63 L 166.20 152.80 C 165.75 153.69 166.11 154.77 167.00 155.22 C 167.89 155.67 168.97 155.31 169.42 154.42 Z"
      fill="black"
      fill-rule="nonzero" /><path d="M 144.11 166.76 L 143.08 166.70 C 142.02 166.64 141.12 167.44 141.06 168.50 C 141.00 169.55 141.80 170.46 142.86 170.52 L 143.90 170.58 C 144.95 170.64 145.86 169.83 145.92 168.78 C 145.98 167.72 145.17 166.82 144.11 166.76 Z M 141.71 167.12 L 141.08 167.65 C 140.26 168.35 140.16 169.58 140.85 170.40 C 141.55 171.23 142.78 171.33 143.60 170.63 L 144.23 170.09 C 145.05 169.40 145.15 168.17 144.46 167.34 C 143.76 166.52 142.53 166.42 141.71 167.12 Z M 140.42 168.71 L 140.19 169.73 C 139.96 170.79 140.62 171.84 141.68 172.08 C 142.75 172.31 143.80 171.65 144.03 170.59 L 144.26 169.57 C 144.50 168.51 143.83 167.46 142.77 167.22 C 141.71 166.98 140.66 167.65 140.42 168.71 Z M 140.14 170.08 L 140.10 171.11 C 140.05 172.20 140.90 173.11 141.99 173.16 C 143.08 173.20 144.00 172.36 144.04 171.27 L 144.09 170.24 C 144.13 169.15 143.28 168.23 142.19 168.18 C 141.10 168.14 140.18 168.99 140.14 170.08 Z M 140.10 171.33 L 140.17 172.32 C 140.25 173.42 141.20 174.23 142.29 174.15 C 143.38 174.07 144.20 173.12 144.12 172.03 L 144.05 171.04 C 143.96 169.95 143.01 169.13 141.92 169.21 C 140.83 169.29 140.01 170.24 140.10 171.33 Z M 140.19 172.51 L 140.34 173.41 C 140.52 174.49 141.55 175.22 142.63 175.04 C 143.71 174.86 144.44 173.83 144.25 172.75 L 144.10 171.84 C 143.92 170.76 142.89 170.04 141.81 170.22 C 140.73 170.40 140.01 171.43 140.19 172.51 Z M 140.37 173.54 L 140.61 174.55 C 140.86 175.62 141.93 176.28 142.99 176.02 C 144.06 175.77 144.72 174.70 144.47 173.64 L 144.23 172.63 C 143.98 171.56 142.91 170.90 141.84 171.15 C 140.78 171.40 140.12 172.47 140.37 173.54 Z M 140.63 174.63 L 140.90 175.61 C 141.20 176.67 142.30 177.28 143.35 176.98 C 144.41 176.69 145.02 175.59 144.72 174.54 L 144.45 173.55 C 144.15 172.50 143.05 171.89 142.00 172.18 C 140.94 172.48 140.33 173.58 140.63 174.63 Z M 140.92 175.67 L 141.23 176.64 C 141.56 177.69 142.68 178.27 143.72 177.94 C 144.77 177.60 145.34 176.49 145.01 175.45 L 144.70 174.48 C 144.37 173.43 143.26 172.85 142.21 173.18 C 141.17 173.51 140.59 174.63 140.92 175.67 Z M 141.26 176.71 L 141.60 177.66 C 141.96 178.69 143.10 179.23 144.13 178.86 C 145.16 178.49 145.70 177.36 145.33 176.33 L 144.99 175.38 C 144.62 174.35 143.48 173.81 142.45 174.18 C 141.42 174.55 140.89 175.68 141.26 176.71 Z M 141.65 177.78 L 142.08 178.78 C 142.51 179.78 143.67 180.24 144.67 179.81 C 145.68 179.38 146.14 178.22 145.71 177.22 L 145.27 176.21 C 144.84 175.21 143.68 174.75 142.68 175.18 C 141.68 175.61 141.22 176.78 141.65 177.78 Z M 142.22 179.01 L 142.72 179.84 C 143.28 180.76 144.49 181.05 145.41 180.49 C 146.33 179.93 146.63 178.72 146.06 177.80 L 145.56 176.98 C 145.00 176.06 143.80 175.76 142.88 176.33 C 141.95 176.89 141.66 178.09 142.22 179.01 Z M 143.11 180.27 L 143.87 180.93 C 144.67 181.64 145.89 181.57 146.60 180.77 C 147.30 179.97 147.23 178.74 146.43 178.04 L 145.67 177.37 C 144.87 176.66 143.65 176.74 142.94 177.54 C 142.24 178.34 142.31 179.56 143.11 180.27 Z M 144.81 181.36 L 145.71 181.52 C 146.74 181.71 147.73 181.02 147.92 179.99 C 148.11 178.95 147.42 177.96 146.39 177.77 L 145.49 177.61 C 144.45 177.43 143.46 178.11 143.28 179.15 C 143.09 180.18 143.78 181.17 144.81 181.36 Z M 147.28 181.06 L 147.95 180.47 C 148.73 179.79 148.81 178.61 148.13 177.83 C 147.45 177.05 146.27 176.97 145.49 177.65 L 144.82 178.24 C 144.04 178.92 143.96 180.10 144.64 180.88 C 145.32 181.66 146.50 181.74 147.28 181.06 Z M 148.39 179.83 L 148.84 178.87 C 149.26 177.95 148.86 176.85 147.94 176.43 C 147.01 176.00 145.92 176.40 145.49 177.33 L 145.05 178.29 C 144.62 179.21 145.02 180.31 145.95 180.73 C 146.87 181.16 147.97 180.76 148.39 179.83 Z M 148.90 178.68 L 149.21 177.74 C 149.53 176.78 149.02 175.74 148.06 175.42 C 147.11 175.10 146.07 175.62 145.75 176.57 L 145.43 177.52 C 145.11 178.48 145.63 179.51 146.58 179.83 C 147.54 180.15 148.58 179.64 148.90 178.68 Z M 149.23 177.67 L 149.50 176.75 C 149.78 175.79 149.23 174.78 148.27 174.49 C 147.31 174.21 146.29 174.76 146.01 175.72 L 145.74 176.64 C 145.45 177.60 146.00 178.61 146.96 178.90 C 147.93 179.19 148.94 178.64 149.23 177.67 Z M 149.49 176.78 L 149.78 175.87 C 150.08 174.91 149.55 173.89 148.59 173.59 C 147.63 173.28 146.61 173.82 146.31 174.77 L 146.02 175.69 C 145.72 176.65 146.25 177.67 147.21 177.97 C 148.16 178.27 149.18 177.74 149.49 176.78 Z M 149.74 175.96 L 150.15 174.90 C 150.50 173.96 150.03 172.91 149.09 172.55 C 148.15 172.20 147.10 172.67 146.74 173.61 L 146.34 174.68 C 145.99 175.62 146.46 176.67 147.40 177.02 C 148.34 177.38 149.39 176.90 149.74 175.96 Z M 150.11 175.01 L 150.59 173.95 C 151.00 173.03 150.60 171.95 149.68 171.53 C 148.76 171.12 147.67 171.53 147.26 172.44 L 146.78 173.50 C 146.36 174.42 146.77 175.50 147.69 175.92 C 148.61 176.33 149.69 175.93 150.11 175.01 Z M 150.49 174.17 L 150.90 173.50 C 151.44 172.64 151.17 171.50 150.31 170.97 C 149.45 170.43 148.31 170.70 147.78 171.56 L 147.36 172.23 C 146.82 173.09 147.09 174.22 147.95 174.76 C 148.81 175.30 149.95 175.03 150.49 174.17 Z M 147.75 173.50 L 148.04 173.97 C 148.57 174.84 149.71 175.12 150.59 174.59 C 151.47 174.06 151.75 172.91 151.21 172.03 L 150.93 171.56 C 150.39 170.69 149.25 170.41 148.37 170.94 C 147.50 171.48 147.22 172.62 147.75 173.50 Z M 147.75 173.04 L 147.77 174.22 C 147.79 175.25 148.65 176.08 149.69 176.05 C 150.73 176.03 151.55 175.17 151.53 174.13 L 151.50 172.96 C 151.48 171.92 150.62 171.10 149.58 171.12 C 148.55 171.14 147.72 172.00 147.75 173.04 Z M 147.76 174.13 L 147.74 175.17 C 147.71 176.21 148.54 177.07 149.59 177.10 C 150.63 177.12 151.49 176.29 151.52 175.25 L 151.54 174.22 C 151.56 173.17 150.73 172.31 149.69 172.29 C 148.65 172.26 147.78 173.09 147.76 174.13 Z M 147.73 175.08 L 147.67 176.08 C 147.60 177.13 148.39 178.03 149.43 178.10 C 150.48 178.17 151.38 177.38 151.45 176.33 L 151.52 175.34 C 151.59 174.29 150.80 173.39 149.75 173.31 C 148.71 173.24 147.80 174.03 147.73 175.08 Z M 147.68 175.91 L 147.51 176.99 C 147.35 178.02 148.06 179.00 149.09 179.16 C 150.13 179.33 151.10 178.62 151.27 177.58 L 151.44 176.50 C 151.60 175.47 150.89 174.49 149.86 174.33 C 148.82 174.16 147.84 174.87 147.68 175.91 Z M 147.55 176.79 L 147.32 177.67 C 147.05 178.68 147.65 179.73 148.66 180.00 C 149.68 180.27 150.72 179.67 150.99 178.65 L 151.23 177.78 C 151.50 176.76 150.90 175.72 149.88 175.45 C 148.87 175.18 147.82 175.78 147.55 176.79 Z M 147.36 177.55 L 147.04 178.51 C 146.70 179.50 147.23 180.58 148.22 180.91 C 149.21 181.25 150.29 180.72 150.63 179.72 L 150.95 178.77 C 151.28 177.78 150.75 176.70 149.76 176.37 C 148.77 176.03 147.70 176.56 147.36 177.55 Z M 147.13 178.33 L 146.71 179.22 C 146.28 180.16 146.68 181.28 147.63 181.71 C 148.57 182.15 149.68 181.74 150.12 180.80 L 150.53 179.91 C 150.97 178.97 150.56 177.85 149.62 177.41 C 148.68 176.98 147.56 177.39 147.13 178.33 Z M 146.84 179.04 L 146.31 179.89 C 145.78 180.77 146.05 181.91 146.92 182.44 C 147.80 182.98 148.94 182.70 149.47 181.83 L 149.99 180.98 C 150.53 180.11 150.26 178.97 149.38 178.43 C 148.51 177.90 147.37 178.17 146.84 179.04 Z M 146.36 179.86 L 146.23 180.05 C 145.68 180.89 145.91 182.03 146.76 182.59 C 147.61 183.14 148.74 182.91 149.30 182.06 L 149.43 181.87 C 149.98 181.02 149.75 179.89 148.90 179.33 C 148.05 178.77 146.92 179.01 146.36 179.86 Z"
      fill="black"
      fill-rule="nonzero" /><path d="M 167.20 164.83 L 166.35 165.36 C 165.43 165.92 165.15 167.12 165.72 168.04 C 166.28 168.96 167.48 169.24 168.40 168.67 L 169.25 168.15 C 170.16 167.58 170.45 166.38 169.88 165.46 C 169.31 164.55 168.11 164.27 167.20 164.83 Z M 166.00 165.58 L 165.30 166.26 C 164.51 167.02 164.48 168.27 165.24 169.06 C 165.99 169.85 167.25 169.88 168.04 169.12 L 168.74 168.45 C 169.53 167.69 169.56 166.43 168.80 165.64 C 168.05 164.85 166.79 164.83 166.00 165.58 Z M 164.95 166.66 L 164.45 167.50 C 163.88 168.45 164.19 169.68 165.14 170.25 C 166.08 170.81 167.31 170.51 167.88 169.56 L 168.38 168.72 C 168.95 167.77 168.64 166.54 167.69 165.98 C 166.75 165.41 165.52 165.72 164.95 166.66 Z M 164.33 167.72 L 163.92 168.65 C 163.47 169.66 163.92 170.85 164.93 171.30 C 165.94 171.75 167.13 171.29 167.58 170.28 L 167.99 169.35 C 168.44 168.34 167.99 167.15 166.98 166.70 C 165.97 166.25 164.78 166.71 164.33 167.72 Z M 163.91 168.68 L 163.52 169.58 C 163.09 170.60 163.55 171.77 164.57 172.21 C 165.58 172.65 166.76 172.18 167.19 171.16 L 167.58 170.25 C 168.02 169.24 167.55 168.06 166.54 167.63 C 165.52 167.19 164.35 167.66 163.91 168.68 Z M 163.58 169.48 L 163.12 170.40 C 162.63 171.38 163.03 172.58 164.01 173.07 C 164.99 173.56 166.18 173.16 166.67 172.18 L 167.13 171.26 C 167.63 170.28 167.23 169.09 166.25 168.60 C 165.27 168.11 164.07 168.50 163.58 169.48 Z M 163.24 170.24 L 162.69 171.11 C 162.10 172.02 162.37 173.23 163.28 173.82 C 164.20 174.40 165.41 174.13 165.99 173.22 L 166.55 172.35 C 167.13 171.44 166.87 170.22 165.95 169.64 C 165.04 169.06 163.83 169.32 163.24 170.24 Z M 162.86 170.92 L 162.24 171.66 C 161.55 172.48 161.66 173.69 162.47 174.38 C 163.29 175.07 164.51 174.96 165.19 174.15 L 165.82 173.41 C 166.50 172.59 166.40 171.37 165.58 170.69 C 164.77 170.00 163.55 170.11 162.86 170.92 Z M 162.57 171.41 L 161.76 172.03 C 160.93 172.66 160.77 173.85 161.41 174.68 C 162.04 175.50 163.23 175.66 164.05 175.02 L 164.87 174.40 C 165.69 173.77 165.85 172.58 165.21 171.75 C 164.58 170.93 163.39 170.77 162.57 171.41 Z M 162.22 171.82 L 161.33 172.17 C 160.39 172.55 159.93 173.62 160.31 174.56 C 160.68 175.51 161.75 175.97 162.70 175.59 L 163.59 175.24 C 164.53 174.86 164.99 173.79 164.61 172.85 C 164.24 171.90 163.17 171.44 162.22 171.82 Z M 161.68 172.10 L 160.71 172.28 C 159.72 172.47 159.07 173.41 159.26 174.40 C 159.44 175.38 160.39 176.03 161.37 175.84 L 162.35 175.66 C 163.33 175.48 163.98 174.53 163.80 173.55 C 163.61 172.56 162.67 171.92 161.68 172.10 Z M 160.83 172.27 L 160.23 172.34 C 159.24 172.46 158.53 173.36 158.65 174.35 C 158.77 175.34 159.67 176.04 160.66 175.93 L 161.25 175.85 C 162.24 175.74 162.95 174.84 162.83 173.85 C 162.71 172.86 161.81 172.16 160.83 172.27 Z"
      fill="black"
      fill-rule="nonzero" /><path d="M 157.62 166.02 L 158.29 166.76 C 159.01 167.55 160.23 167.61 161.03 166.90 C 161.83 166.18 161.89 164.95 161.17 164.15 L 160.50 163.41 C 159.78 162.61 158.55 162.55 157.75 163.27 C 156.96 163.99 156.90 165.22 157.62 166.02 Z M 158.05 166.58 L 158.59 167.39 C 159.21 168.32 160.47 168.57 161.40 167.94 C 162.33 167.32 162.58 166.06 161.95 165.13 L 161.41 164.32 C 160.78 163.40 159.53 163.15 158.60 163.77 C 157.67 164.40 157.42 165.66 158.05 166.58 Z M 158.37 167.06 L 158.74 167.95 C 159.18 169.00 160.40 169.50 161.45 169.05 C 162.50 168.61 162.99 167.40 162.55 166.35 L 162.17 165.46 C 161.73 164.41 160.52 163.91 159.47 164.36 C 158.42 164.80 157.92 166.01 158.37 167.06 Z M 158.67 167.78 L 158.98 168.75 C 159.33 169.84 160.50 170.44 161.59 170.09 C 162.68 169.74 163.28 168.58 162.93 167.49 L 162.62 166.52 C 162.27 165.43 161.10 164.83 160.01 165.18 C 158.92 165.53 158.32 166.69 158.67 167.78 Z M 158.96 168.70 L 159.23 169.63 C 159.55 170.73 160.71 171.36 161.81 171.04 C 162.91 170.72 163.54 169.56 163.22 168.46 L 162.95 167.54 C 162.63 166.44 161.47 165.80 160.37 166.13 C 159.27 166.45 158.64 167.60 158.96 168.70 Z M 159.22 169.59 L 159.49 170.61 C 159.79 171.72 160.93 172.38 162.04 172.08 C 163.15 171.78 163.81 170.63 163.51 169.53 L 163.24 168.50 C 162.94 167.39 161.79 166.74 160.68 167.04 C 159.57 167.34 158.92 168.48 159.22 169.59 Z M 159.48 170.57 L 159.73 171.59 C 160.01 172.70 161.14 173.39 162.25 173.11 C 163.37 172.83 164.05 171.71 163.78 170.59 L 163.52 169.57 C 163.25 168.45 162.12 167.77 161.00 168.04 C 159.89 168.32 159.20 169.45 159.48 170.57 Z M 159.72 171.55 L 159.95 172.55 C 160.21 173.67 161.32 174.37 162.44 174.12 C 163.57 173.86 164.27 172.75 164.01 171.63 L 163.78 170.63 C 163.53 169.50 162.41 168.80 161.29 169.06 C 160.17 169.31 159.47 170.43 159.72 171.55 Z M 159.94 172.51 L 160.14 173.45 C 160.37 174.58 161.48 175.30 162.60 175.06 C 163.73 174.83 164.45 173.72 164.22 172.60 L 164.02 171.66 C 163.79 170.54 162.68 169.81 161.56 170.05 C 160.43 170.28 159.71 171.39 159.94 172.51 Z M 160.13 173.40 L 160.32 174.45 C 160.52 175.58 161.61 176.33 162.74 176.12 C 163.87 175.92 164.62 174.83 164.42 173.70 L 164.23 172.65 C 164.02 171.52 162.94 170.77 161.81 170.97 C 160.67 171.18 159.92 172.26 160.13 173.40 Z M 160.31 174.38 L 160.44 175.29 C 160.61 176.43 161.67 177.21 162.81 177.04 C 163.95 176.87 164.73 175.81 164.56 174.68 L 164.43 173.77 C 164.26 172.63 163.20 171.84 162.06 172.01 C 160.92 172.18 160.14 173.24 160.31 174.38 Z M 160.44 175.25 L 160.56 176.24 C 160.71 177.38 161.75 178.18 162.89 178.04 C 164.03 177.89 164.84 176.85 164.69 175.71 L 164.57 174.72 C 164.42 173.58 163.38 172.77 162.24 172.92 C 161.10 173.06 160.29 174.11 160.44 175.25 Z M 160.56 176.22 L 160.68 177.20 C 160.82 178.34 161.85 179.16 162.99 179.02 C 164.13 178.89 164.94 177.86 164.81 176.72 L 164.69 175.73 C 164.56 174.59 163.52 173.78 162.39 173.91 C 161.25 174.04 160.43 175.08 160.56 176.22 Z M 160.68 177.18 L 160.79 178.18 C 160.91 179.32 161.94 180.14 163.08 180.02 C 164.22 179.90 165.04 178.87 164.91 177.73 L 164.81 176.74 C 164.68 175.60 163.66 174.78 162.52 174.90 C 161.38 175.02 160.56 176.05 160.68 177.18 Z M 160.79 178.14 L 160.87 179.08 C 160.97 180.22 161.98 181.06 163.12 180.96 C 164.26 180.86 165.10 179.86 165.00 178.72 L 164.91 177.78 C 164.81 176.64 163.81 175.79 162.67 175.90 C 161.53 176.00 160.69 177.00 160.79 178.14 Z M 160.88 179.04 L 160.94 180.06 C 161.02 181.20 162.00 182.06 163.14 181.98 C 164.28 181.91 165.14 180.92 165.06 179.79 L 165.00 178.76 C 164.92 177.63 163.94 176.77 162.80 176.84 C 161.66 176.92 160.80 177.90 160.88 179.04 Z M 160.95 180.03 L 161.00 181.02 C 161.06 182.16 162.03 183.03 163.17 182.97 C 164.30 182.90 165.18 181.93 165.11 180.80 L 165.06 179.81 C 165.00 178.68 164.03 177.80 162.89 177.87 C 161.76 177.93 160.89 178.90 160.95 180.03 Z M 161.00 181.02 L 161.06 182.04 C 161.13 183.17 162.10 184.04 163.23 183.98 C 164.36 183.91 165.23 182.94 165.17 181.81 L 165.11 180.79 C 165.05 179.66 164.08 178.79 162.94 178.86 C 161.81 178.92 160.94 179.89 161.00 181.02 Z M 161.07 182.07 L 161.14 183.10 C 161.22 184.23 162.20 185.08 163.33 185.00 C 164.46 184.92 165.31 183.94 165.23 182.81 L 165.16 181.78 C 165.08 180.65 164.10 179.80 162.97 179.88 C 161.84 179.96 160.99 180.94 161.07 182.07 Z M 161.15 183.15 L 161.25 184.15 C 161.35 185.28 162.34 186.10 163.47 186.00 C 164.59 185.89 165.42 184.90 165.31 183.78 L 165.22 182.77 C 165.12 181.65 164.12 180.82 163.00 180.92 C 161.88 181.03 161.05 182.02 161.15 183.15 Z M 161.26 184.18 L 161.37 185.16 C 161.48 186.28 162.49 187.08 163.60 186.96 C 164.72 186.84 165.52 185.84 165.40 184.73 L 165.30 183.75 C 165.18 182.63 164.18 181.83 163.06 181.94 C 161.95 182.06 161.14 183.06 161.26 184.18 Z M 161.37 185.17 L 161.40 185.43 C 161.53 186.54 162.53 187.34 163.64 187.22 C 164.75 187.10 165.55 186.10 165.42 184.99 L 165.40 184.72 C 165.27 183.61 164.27 182.81 163.16 182.93 C 162.05 183.06 161.25 184.06 161.37 185.17 Z"
      fill="black"
      fill-rule="nonzero" /></svg>