<svg xmlns="http://www.w3.org/2000/svg" width="300" height="300" viewBox="0 0 300 300">
<path d="M 116.94 132.58 L 117.94 132.68 C 119.04 132.79 120.02 131.99 120.13 130.89 C 120.24 129.79 119.44 128.81 118.34 128.70 L 117.34 128.60 C 116.24 128.49 115.26 129.29 115.15 130.39 C 115.04 131.49 115.84 132.47 116.94 132.58 Z M 118.00 132.74 L 118.99 132.81 C 120.12 132.90 121.11 132.04 121.19 130.91 C 121.27 129.77 120.42 128.79 119.28 128.70 L 118.29 128.63 C 117.15 128.55 116.17 129.41 116.09 130.54 C 116.01 131.68 116.86 132.66 118.00 132.74 Z M 119.07 132.85 L 120.06 132.88 C 121.21 132.91 122.18 132.01 122.21 130.85 C 122.25 129.70 121.34 128.74 120.18 128.70 L 119.20 128.67 C 118.04 128.64 117.08 129.54 117.04 130.70 C 117.01 131.85 117.92 132.81 119.07 132.85 Z M 120.07 132.88 L 121.06 132.91 C 122.21 132.94 123.17 132.02 123.20 130.87 C 123.23 129.71 122.32 128.75 121.16 128.72 L 120.18 128.70 C 119.02 128.67 118.06 129.58 118.03 130.74 C 118.00 131.89 118.91 132.85 120.07 132.88 Z M 121.00 132.91 L 121.92 132.96 C 123.08 133.02 124.07 132.13 124.13 130.97 C 124.19 129.81 123.30 128.83 122.14 128.77 L 121.22 128.72 C 120.06 128.66 119.08 129.55 119.02 130.71 C 118.96 131.86 119.84 132.85 121.00 132.91 Z M 121.87 132.95 L 122.94 133.04 C 124.10 133.13 125.11 132.27 125.20 131.12 C 125.30 129.96 124.43 128.95 123.28 128.86 L 122.20 128.77 C 121.04 128.68 120.03 129.54 119.94 130.70 C 119.85 131.85 120.71 132.86 121.87 132.95 Z M 122.90 133.04 L 123.89 133.14 C 125.05 133.25 126.08 132.41 126.19 131.26 C 126.31 130.11 125.47 129.08 124.32 128.96 L 123.32 128.86 C 122.17 128.74 121.14 129.58 121.02 130.74 C 120.91 131.89 121.75 132.92 122.90 133.04 Z M 123.86 133.13 L 124.88 133.25 C 126.03 133.39 127.08 132.57 127.21 131.42 C 127.35 130.27 126.53 129.23 125.38 129.09 L 124.35 128.97 C 123.20 128.83 122.16 129.65 122.02 130.80 C 121.89 131.95 122.71 133.00 123.86 133.13 Z M 124.84 133.25 L 125.82 133.38 C 126.97 133.54 128.03 132.75 128.19 131.60 C 128.35 130.45 127.55 129.40 126.40 129.23 L 125.42 129.10 C 124.28 128.94 123.22 129.73 123.06 130.88 C 122.90 132.03 123.70 133.09 124.84 133.25 Z M 125.75 133.36 L 126.82 133.55 C 127.96 133.75 129.04 133.00 129.24 131.86 C 129.44 130.73 128.69 129.65 127.55 129.44 L 126.48 129.25 C 125.34 129.05 124.26 129.81 124.06 130.94 C 123.86 132.08 124.61 133.16 125.75 133.36 Z M 126.72 133.52 L 127.65 133.73 C 128.76 133.99 129.87 133.29 130.13 132.17 C 130.39 131.06 129.69 129.95 128.57 129.69 L 127.65 129.48 C 126.53 129.22 125.42 129.92 125.17 131.04 C 124.91 132.15 125.61 133.26 126.72 133.52 Z M 127.55 133.69 L 128.48 133.95 C 129.57 134.27 130.71 133.63 131.02 132.54 C 131.33 131.45 130.70 130.31 129.61 130.00 L 128.67 129.74 C 127.58 129.42 126.45 130.06 126.13 131.15 C 125.82 132.24 126.46 133.38 127.55 133.69 Z M 128.23 133.85 L 129.14 134.24 C 130.17 134.69 131.37 134.22 131.82 133.18 C 132.27 132.15 131.80 130.95 130.76 130.50 L 129.86 130.11 C 128.83 129.66 127.62 130.13 127.18 131.17 C 126.73 132.20 127.20 133.40 128.23 133.85 Z M 128.69 133.93 L 129.46 134.56 C 130.33 135.26 131.59 135.13 132.29 134.27 C 132.99 133.40 132.85 132.14 131.99 131.44 L 131.22 130.81 C 130.35 130.11 129.09 130.25 128.39 131.11 C 127.69 131.97 127.82 133.23 128.69 133.93 Z M 129.11 134.11 L 129.67 134.93 C 130.28 135.83 131.50 136.06 132.40 135.45 C 133.29 134.83 133.52 133.61 132.91 132.72 L 132.35 131.89 C 131.74 131.00 130.52 130.77 129.62 131.38 C 128.73 131.99 128.49 133.21 129.11 134.11 Z M 129.44 134.37 L 129.71 135.30 C 130.01 136.32 131.08 136.91 132.11 136.61 C 133.13 136.31 133.71 135.24 133.41 134.22 L 133.14 133.28 C 132.84 132.26 131.77 131.67 130.75 131.97 C 129.72 132.27 129.14 133.34 129.44 134.37 Z M 129.65 134.76 L 129.65 135.76 C 129.65 136.82 130.51 137.68 131.56 137.68 C 132.62 137.68 133.48 136.82 133.48 135.77 L 133.48 134.76 C 133.48 133.70 132.62 132.85 131.56 132.85 C 130.51 132.84 129.65 133.70 129.65 134.76 Z M 129.68 135.46 L 129.52 136.42 C 129.36 137.46 130.06 138.44 131.10 138.60 C 132.15 138.77 133.12 138.06 133.29 137.02 L 133.45 136.07 C 133.61 135.03 132.91 134.05 131.87 133.88 C 130.83 133.71 129.85 134.42 129.68 135.46 Z M 129.60 136.10 L 129.27 137.08 C 128.92 138.07 129.46 139.16 130.45 139.50 C 131.45 139.84 132.54 139.31 132.88 138.31 L 133.22 137.34 C 133.56 136.34 133.03 135.25 132.03 134.91 C 131.03 134.57 129.94 135.10 129.60 136.10 Z M 129.42 136.73 L 128.96 137.53 C 128.43 138.44 128.73 139.61 129.65 140.14 C 130.56 140.68 131.73 140.37 132.26 139.45 L 132.73 138.66 C 133.26 137.74 132.95 136.57 132.04 136.04 C 131.12 135.51 129.95 135.82 129.42 136.73 Z M 129.13 137.27 L 128.48 138.06 C 127.81 138.88 127.92 140.08 128.73 140.76 C 129.55 141.43 130.76 141.32 131.43 140.50 L 132.09 139.71 C 132.76 138.90 132.65 137.69 131.83 137.02 C 131.02 136.34 129.81 136.45 129.13 137.27 Z M 128.63 137.89 L 127.88 138.61 C 127.11 139.34 127.09 140.56 127.82 141.33 C 128.56 142.09 129.77 142.12 130.54 141.39 L 131.29 140.67 C 132.05 139.94 132.08 138.72 131.34 137.95 C 130.61 137.19 129.39 137.16 128.63 137.89 Z M 127.99 138.50 L 127.20 139.14 C 126.37 139.82 126.25 141.04 126.92 141.86 C 127.60 142.69 128.81 142.82 129.64 142.14 L 130.43 141.50 C 131.26 140.82 131.38 139.60 130.71 138.78 C 130.03 137.95 128.81 137.82 127.99 138.50 Z M 127.30 139.05 L 126.48 139.63 C 125.59 140.24 125.38 141.46 126.00 142.34 C 126.61 143.22 127.83 143.43 128.71 142.82 L 129.53 142.24 C 130.42 141.62 130.63 140.41 130.01 139.53 C 129.40 138.65 128.18 138.43 127.30 139.05 Z M 126.63 139.51 L 125.70 140.04 C 124.75 140.57 124.42 141.76 124.95 142.71 C 125.48 143.65 126.67 143.99 127.62 143.46 L 128.55 142.93 C 129.50 142.40 129.83 141.20 129.30 140.26 C 128.77 139.32 127.58 138.98 126.63 139.51 Z M 125.91 139.92 L 124.98 140.30 C 123.97 140.71 123.49 141.87 123.91 142.88 C 124.32 143.89 125.48 144.37 126.49 143.95 L 127.41 143.57 C 128.42 143.16 128.90 142.00 128.49 140.99 C 128.07 139.98 126.92 139.50 125.91 139.92 Z M 125.21 140.20 L 124.18 140.49 C 123.11 140.78 122.49 141.87 122.78 142.93 C 123.07 143.99 124.16 144.62 125.22 144.33 L 126.26 144.05 C 127.32 143.76 127.94 142.66 127.66 141.60 C 127.37 140.54 126.27 139.92 125.21 140.20 Z M 124.72 140.40 L 124.26 140.40 C 123.15 140.39 122.24 141.28 122.23 142.39 C 122.22 143.49 123.11 144.40 124.22 144.41 L 124.68 144.41 C 125.79 144.42 126.69 143.53 126.70 142.43 C 126.71 141.32 125.82 140.41 124.72 140.40 Z M 124.89 144.30 L 125.62 144.05 C 126.67 143.69 127.23 142.55 126.87 141.50 C 126.51 140.45 125.37 139.89 124.32 140.25 L 123.59 140.51 C 122.54 140.87 121.98 142.01 122.34 143.06 C 122.70 144.10 123.84 144.66 124.89 144.30 Z M 125.52 144.08 L 126.72 143.74 C 127.78 143.44 128.40 142.33 128.10 141.27 C 127.80 140.20 126.69 139.58 125.63 139.88 L 124.43 140.22 C 123.36 140.52 122.74 141.63 123.04 142.70 C 123.34 143.76 124.45 144.38 125.52 144.08 Z M 126.65 143.75 L 127.69 143.49 C 128.76 143.22 129.41 142.14 129.15 141.07 C 128.88 140.01 127.80 139.35 126.73 139.62 L 125.69 139.88 C 124.62 140.14 123.97 141.22 124.24 142.29 C 124.50 143.36 125.59 144.01 126.65 143.75 Z M 127.65 143.48 L 128.64 143.26 C 129.70 143.02 130.37 141.96 130.13 140.90 C 129.89 139.83 128.84 139.16 127.77 139.40 L 126.78 139.63 C 125.72 139.87 125.05 140.92 125.29 141.99 C 125.52 143.05 126.58 143.72 127.65 143.48 Z M 128.60 143.25 L 129.55 143.05 C 130.61 142.83 131.29 141.80 131.07 140.74 C 130.85 139.68 129.82 139.00 128.76 139.22 L 127.81 139.42 C 126.75 139.63 126.07 140.67 126.29 141.73 C 126.51 142.79 127.54 143.47 128.60 143.25 Z M 129.51 143.04 L 130.55 142.85 C 131.61 142.65 132.30 141.63 132.10 140.58 C 131.90 139.52 130.89 138.83 129.83 139.03 L 128.79 139.23 C 127.74 139.43 127.04 140.44 127.24 141.50 C 127.44 142.55 128.46 143.24 129.51 143.04 Z M 130.51 142.85 L 131.47 142.69 C 132.53 142.51 133.24 141.52 133.07 140.46 C 132.89 139.41 131.89 138.70 130.84 138.87 L 129.88 139.03 C 128.82 139.21 128.11 140.20 128.28 141.26 C 128.46 142.31 129.46 143.02 130.51 142.85 Z M 131.42 142.69 L 132.39 142.56 C 133.45 142.41 134.18 141.44 134.04 140.38 C 133.90 139.33 132.92 138.59 131.87 138.74 L 130.90 138.87 C 129.84 139.01 129.10 139.99 129.25 141.04 C 129.39 142.10 130.36 142.83 131.42 142.69 Z M 132.33 142.56 L 133.33 142.45 C 134.39 142.35 135.15 141.40 135.04 140.34 C 134.93 139.29 133.99 138.52 132.93 138.63 L 131.93 138.73 C 130.88 138.84 130.11 139.79 130.22 140.84 C 130.33 141.90 131.27 142.67 132.33 142.56 Z M 133.26 142.46 L 134.25 142.39 C 135.30 142.31 136.10 141.40 136.03 140.34 C 135.95 139.28 135.04 138.49 133.98 138.56 L 133.00 138.63 C 131.94 138.70 131.14 139.62 131.22 140.68 C 131.29 141.73 132.21 142.53 133.26 142.46 Z M 134.18 142.39 L 135.17 142.36 C 136.23 142.32 137.05 141.44 137.02 140.38 C 136.98 139.32 136.10 138.49 135.04 138.53 L 134.05 138.56 C 132.99 138.59 132.16 139.48 132.20 140.54 C 132.23 141.59 133.12 142.42 134.18 142.39 Z M 135.05 142.35 L 136.06 142.38 C 137.12 142.42 138.00 141.59 138.03 140.53 C 138.07 139.47 137.24 138.59 136.18 138.56 L 135.16 138.53 C 134.11 138.50 133.22 139.33 133.19 140.38 C 133.16 141.44 133.99 142.32 135.05 142.35 Z M 135.21 142.16 L 136.02 142.60 C 136.95 143.10 138.12 142.75 138.62 141.82 C 139.12 140.89 138.78 139.73 137.84 139.22 L 137.03 138.78 C 136.10 138.28 134.94 138.63 134.43 139.56 C 133.93 140.49 134.28 141.66 135.21 142.16 Z M 135.10 141.51 L 135.38 142.36 C 135.71 143.37 136.80 143.92 137.81 143.59 C 138.82 143.26 139.38 142.17 139.04 141.16 L 138.77 140.31 C 138.44 139.30 137.35 138.75 136.33 139.08 C 135.32 139.41 134.77 140.50 135.10 141.51 Z M 135.26 141.70 L 135.23 142.78 C 135.20 143.86 136.04 144.76 137.12 144.79 C 138.20 144.82 139.09 143.98 139.13 142.90 L 139.16 141.81 C 139.19 140.74 138.34 139.84 137.27 139.81 C 136.19 139.78 135.30 140.62 135.26 141.70 Z M 135.29 142.30 L 135.00 143.32 C 134.70 144.36 135.30 145.44 136.35 145.74 C 137.39 146.04 138.47 145.44 138.77 144.40 L 139.06 143.38 C 139.36 142.34 138.76 141.26 137.72 140.96 C 136.68 140.66 135.59 141.26 135.29 142.30 Z M 135.12 143.00 L 134.69 143.89 C 134.21 144.87 134.62 146.04 135.60 146.51 C 136.58 146.99 137.75 146.58 138.22 145.60 L 138.65 144.71 C 139.13 143.74 138.72 142.56 137.74 142.09 C 136.77 141.62 135.59 142.03 135.12 143.00 Z M 134.77 143.73 L 134.25 144.60 C 133.69 145.53 133.99 146.74 134.92 147.30 C 135.85 147.86 137.06 147.56 137.62 146.63 L 138.14 145.76 C 138.70 144.83 138.40 143.62 137.47 143.06 C 136.54 142.50 135.33 142.80 134.77 143.73 Z M 134.30 144.52 L 133.77 145.31 C 133.16 146.21 133.40 147.44 134.31 148.04 C 135.21 148.65 136.43 148.41 137.04 147.50 L 137.57 146.71 C 138.17 145.81 137.93 144.59 137.03 143.98 C 136.13 143.38 134.90 143.62 134.30 144.52 Z M 133.79 145.28 L 133.22 146.09 C 132.60 146.98 132.82 148.21 133.71 148.83 C 134.60 149.45 135.83 149.24 136.45 148.34 L 137.02 147.53 C 137.64 146.64 137.42 145.41 136.53 144.79 C 135.64 144.17 134.41 144.39 133.79 145.28 Z M 133.25 146.04 L 132.65 146.85 C 132.01 147.73 132.19 148.96 133.07 149.61 C 133.95 150.26 135.18 150.07 135.83 149.20 L 136.43 148.39 C 137.07 147.51 136.89 146.28 136.01 145.63 C 135.13 144.98 133.90 145.17 133.25 146.04 Z M 132.69 146.80 L 132.07 147.59 C 131.39 148.44 131.54 149.69 132.40 150.36 C 133.26 151.04 134.50 150.89 135.18 150.03 L 135.79 149.25 C 136.47 148.39 136.32 147.15 135.46 146.47 C 134.61 145.80 133.36 145.94 132.69 146.80 Z M 132.08 147.56 L 131.45 148.35 C 130.76 149.20 130.89 150.45 131.74 151.14 C 132.59 151.82 133.84 151.69 134.52 150.84 L 135.16 150.05 C 135.85 149.20 135.72 147.96 134.87 147.27 C 134.02 146.58 132.77 146.71 132.08 147.56 Z M 131.47 148.33 L 130.83 149.09 C 130.13 149.93 130.24 151.18 131.07 151.88 C 131.91 152.58 133.16 152.47 133.86 151.63 L 134.50 150.87 C 135.21 150.03 135.10 148.78 134.26 148.08 C 133.42 147.38 132.17 147.49 131.47 148.33 Z M 130.88 149.03 L 130.25 149.72 C 129.52 150.53 129.58 151.78 130.39 152.52 C 131.20 153.25 132.45 153.19 133.19 152.38 L 133.81 151.69 C 134.55 150.88 134.49 149.63 133.68 148.89 C 132.87 148.16 131.61 148.22 130.88 149.03 Z M 130.31 149.66 L 129.58 150.40 C 128.81 151.18 128.81 152.43 129.59 153.20 C 130.37 153.97 131.62 153.97 132.39 153.19 L 133.13 152.45 C 133.90 151.67 133.89 150.41 133.11 149.64 C 132.34 148.87 131.08 148.88 130.31 149.66 Z M 129.61 150.37 L 128.91 151.04 C 128.12 151.79 128.10 153.05 128.85 153.83 C 129.61 154.62 130.86 154.65 131.65 153.90 L 132.35 153.23 C 133.14 152.47 133.17 151.22 132.41 150.43 C 131.66 149.64 130.40 149.61 129.61 150.37 Z M 128.95 151.01 L 128.18 151.71 C 127.38 152.44 127.32 153.69 128.06 154.50 C 128.79 155.31 130.04 155.36 130.85 154.63 L 131.62 153.93 C 132.42 153.19 132.48 151.94 131.74 151.13 C 131.01 150.33 129.76 150.27 128.95 151.01 Z M 128.24 151.67 L 127.43 152.35 C 126.60 153.06 126.51 154.30 127.21 155.13 C 127.92 155.96 129.16 156.06 129.99 155.35 L 130.79 154.67 C 131.62 153.96 131.72 152.72 131.02 151.89 C 130.31 151.06 129.06 150.96 128.24 151.67 Z M 127.51 152.29 L 126.72 152.90 C 125.86 153.56 125.70 154.80 126.37 155.66 C 127.03 156.52 128.26 156.68 129.12 156.02 L 129.91 155.41 C 130.77 154.75 130.93 153.51 130.27 152.65 C 129.61 151.79 128.37 151.63 127.51 152.29 Z M 126.84 152.83 L 126.03 153.37 C 125.13 153.97 124.89 155.19 125.49 156.09 C 126.09 156.98 127.31 157.22 128.21 156.62 L 129.01 156.08 C 129.91 155.48 130.15 154.27 129.55 153.37 C 128.95 152.47 127.73 152.23 126.84 152.83 Z M 126.22 153.27 L 125.34 153.73 C 124.39 154.23 124.02 155.40 124.51 156.35 C 125.01 157.30 126.18 157.67 127.13 157.18 L 128.01 156.72 C 128.96 156.23 129.34 155.05 128.84 154.10 C 128.35 153.15 127.18 152.78 126.22 153.27 Z M 125.68 153.62 L 124.72 153.91 C 123.70 154.21 123.13 155.28 123.43 156.30 C 123.74 157.31 124.81 157.89 125.82 157.59 L 126.79 157.30 C 127.80 156.99 128.38 155.92 128.08 154.90 C 127.77 153.89 126.70 153.31 125.68 153.62 Z M 125.22 153.85 L 124.21 153.88 C 123.17 153.90 122.34 154.77 122.36 155.82 C 122.39 156.86 123.26 157.69 124.31 157.67 L 125.32 157.64 C 126.37 157.61 127.19 156.74 127.17 155.70 C 127.14 154.65 126.27 153.82 125.22 153.85 Z M 125.08 154.09 L 124.25 153.69 C 123.33 153.24 122.21 153.62 121.76 154.55 C 121.31 155.48 121.69 156.59 122.62 157.05 L 123.44 157.45 C 124.37 157.90 125.49 157.51 125.94 156.59 C 126.39 155.66 126.00 154.55 125.08 154.09 Z M 124.93 154.30 L 124.35 153.50 C 123.76 152.67 122.61 152.49 121.79 153.08 C 120.97 153.67 120.78 154.81 121.37 155.64 L 121.95 156.44 C 122.54 157.26 123.68 157.45 124.51 156.86 C 125.33 156.27 125.52 155.12 124.93 154.30 Z M 124.47 153.73 L 124.22 153.25 C 123.76 152.37 122.67 152.02 121.78 152.48 C 120.89 152.94 120.54 154.03 121.00 154.92 L 121.25 155.40 C 121.71 156.29 122.80 156.63 123.69 156.17 C 124.58 155.71 124.93 154.62 124.47 153.73 Z"
      fill="black"
      fill-rule="nonzero" /><path d="M 120.09 134.53 L 120.67 135.31 C 121.28 136.16 122.46 136.34 123.30 135.73 C 124.15 135.12 124.33 133.94 123.72 133.09 L 123.15 132.31 C 122.54 131.46 121.36 131.28 120.51 131.89 C 119.67 132.50 119.48 133.68 120.09 134.53 Z M 120.47 135.06 L 120.90 135.93 C 121.38 136.88 122.53 137.26 123.48 136.79 C 124.44 136.32 124.82 135.16 124.35 134.21 L 123.92 133.34 C 123.44 132.39 122.29 132.01 121.33 132.48 C 120.38 132.96 120.00 134.11 120.47 135.06 Z M 120.77 135.66 L 121.06 136.59 C 121.39 137.61 122.49 138.18 123.51 137.85 C 124.54 137.52 125.11 136.43 124.78 135.40 L 124.48 134.47 C 124.15 133.45 123.06 132.88 122.03 133.21 C 121.00 133.54 120.44 134.63 120.77 135.66 Z M 121.02 136.49 L 121.29 137.53 C 121.57 138.58 122.65 139.20 123.69 138.93 C 124.74 138.65 125.37 137.58 125.09 136.53 L 124.82 135.49 C 124.54 134.44 123.47 133.82 122.42 134.09 C 121.37 134.37 120.74 135.45 121.02 136.49 Z M 121.28 137.51 L 121.52 138.49 C 121.79 139.55 122.86 140.19 123.92 139.93 C 124.98 139.66 125.62 138.59 125.35 137.53 L 125.11 136.55 C 124.84 135.49 123.77 134.85 122.71 135.11 C 121.66 135.38 121.01 136.45 121.28 137.51 Z M 121.51 138.46 L 121.74 139.45 C 121.99 140.52 123.06 141.18 124.12 140.93 C 125.19 140.68 125.85 139.61 125.60 138.55 L 125.37 137.56 C 125.12 136.49 124.05 135.83 122.99 136.08 C 121.92 136.33 121.26 137.40 121.51 138.46 Z M 121.72 139.40 L 121.93 140.41 C 122.15 141.48 123.20 142.18 124.28 141.96 C 125.35 141.73 126.05 140.68 125.83 139.61 L 125.62 138.60 C 125.40 137.52 124.35 136.83 123.27 137.05 C 122.19 137.27 121.50 138.32 121.72 139.40 Z M 121.92 140.35 L 122.08 141.32 C 122.28 142.40 123.31 143.12 124.39 142.93 C 125.48 142.74 126.20 141.71 126.01 140.63 L 125.84 139.66 C 125.65 138.58 124.62 137.85 123.53 138.05 C 122.45 138.24 121.72 139.27 121.92 140.35 Z M 122.08 141.30 L 122.24 142.24 C 122.42 143.33 123.45 144.06 124.53 143.88 C 125.62 143.70 126.35 142.67 126.17 141.59 L 126.02 140.64 C 125.83 139.56 124.81 138.82 123.72 139.00 C 122.63 139.18 121.90 140.21 122.08 141.30 Z M 122.23 142.24 L 122.39 143.21 C 122.57 144.30 123.60 145.04 124.69 144.86 C 125.78 144.68 126.52 143.65 126.34 142.56 L 126.18 141.59 C 126.00 140.50 124.97 139.76 123.88 139.94 C 122.79 140.12 122.05 141.15 122.23 142.24 Z M 122.39 143.19 L 122.54 144.21 C 122.71 145.30 123.73 146.05 124.82 145.89 C 125.91 145.72 126.66 144.70 126.50 143.61 L 126.34 142.58 C 126.17 141.49 125.15 140.74 124.06 140.91 C 122.97 141.08 122.22 142.10 122.39 143.19 Z M 122.54 144.18 L 122.67 145.13 C 122.81 146.22 123.82 146.99 124.92 146.84 C 126.01 146.70 126.78 145.69 126.63 144.59 L 126.50 143.64 C 126.36 142.55 125.35 141.78 124.25 141.93 C 123.16 142.07 122.39 143.08 122.54 144.18 Z M 122.66 145.10 L 122.78 146.10 C 122.92 147.20 123.92 147.98 125.01 147.85 C 126.11 147.72 126.89 146.72 126.76 145.62 L 126.64 144.62 C 126.50 143.52 125.50 142.74 124.41 142.87 C 123.31 143.01 122.53 144.00 122.66 145.10 Z M 122.78 146.09 L 122.90 147.11 C 123.02 148.21 124.01 149.00 125.11 148.87 C 126.21 148.75 127.00 147.76 126.88 146.66 L 126.76 145.64 C 126.64 144.54 125.64 143.75 124.55 143.87 C 123.45 144.00 122.66 144.99 122.78 146.09 Z M 122.90 147.10 L 123.00 148.09 C 123.12 149.19 124.11 149.99 125.21 149.87 C 126.31 149.75 127.10 148.76 126.99 147.66 L 126.88 146.67 C 126.76 145.57 125.77 144.77 124.67 144.89 C 123.57 145.01 122.78 146.00 122.90 147.10 Z M 123.00 148.07 L 123.10 149.08 C 123.21 150.18 124.19 150.98 125.29 150.87 C 126.39 150.76 127.20 149.78 127.09 148.68 L 126.99 147.68 C 126.88 146.58 125.90 145.77 124.79 145.88 C 123.69 145.99 122.89 146.97 123.00 148.07 Z M 123.10 149.06 L 123.19 150.06 C 123.29 151.16 124.26 151.98 125.36 151.88 C 126.47 151.78 127.28 150.80 127.18 149.70 L 127.09 148.70 C 126.99 147.60 126.02 146.78 124.91 146.88 C 123.81 146.98 123.00 147.96 123.10 149.06 Z M 123.19 150.04 L 123.26 151.03 C 123.35 152.14 124.31 152.96 125.42 152.88 C 126.52 152.79 127.35 151.83 127.26 150.72 L 127.18 149.73 C 127.10 148.62 126.13 147.80 125.03 147.88 C 123.93 147.97 123.10 148.93 123.19 150.04 Z M 123.26 151.00 L 123.32 152.00 C 123.39 153.10 124.34 153.94 125.45 153.87 C 126.55 153.80 127.39 152.85 127.32 151.74 L 127.26 150.75 C 127.19 149.65 126.24 148.81 125.14 148.88 C 124.03 148.95 123.19 149.90 123.26 151.00 Z M 123.32 151.96 L 123.37 152.96 C 123.42 154.06 124.36 154.92 125.46 154.87 C 126.57 154.82 127.42 153.88 127.37 152.77 L 127.33 151.78 C 127.28 150.67 126.34 149.82 125.23 149.87 C 124.12 149.92 123.27 150.86 123.32 151.96 Z M 123.36 152.93 L 123.40 153.93 C 123.43 155.03 124.36 155.90 125.47 155.87 C 126.58 155.83 127.44 154.90 127.41 153.80 L 127.38 152.80 C 127.34 151.69 126.41 150.82 125.30 150.86 C 124.20 150.89 123.33 151.82 123.36 152.93 Z M 123.39 153.91 L 123.42 154.92 C 123.45 156.03 124.37 156.90 125.48 156.87 C 126.59 156.85 127.46 155.93 127.44 154.82 L 127.41 153.81 C 127.38 152.70 126.46 151.83 125.35 151.85 C 124.24 151.88 123.37 152.80 123.39 153.91 Z M 123.42 154.91 L 123.44 155.92 C 123.47 157.03 124.39 157.91 125.50 157.88 C 126.61 157.86 127.49 156.94 127.46 155.83 L 127.44 154.82 C 127.41 153.71 126.49 152.83 125.38 152.86 C 124.27 152.88 123.39 153.80 123.42 154.91 Z M 123.44 155.92 L 123.46 156.92 C 123.49 158.03 124.41 158.91 125.52 158.89 C 126.63 158.86 127.51 157.94 127.49 156.83 L 127.46 155.83 C 127.44 154.71 126.52 153.83 125.40 153.86 C 124.29 153.88 123.41 154.81 123.44 155.92 Z M 123.46 156.91 L 123.48 157.91 C 123.50 159.02 124.42 159.91 125.53 159.88 C 126.64 159.86 127.53 158.94 127.51 157.83 L 127.49 156.83 C 127.47 155.72 126.55 154.84 125.43 154.86 C 124.32 154.88 123.44 155.80 123.46 156.91 Z M 123.48 157.90 L 123.49 158.90 C 123.50 160.01 124.42 160.90 125.53 160.89 C 126.65 160.87 127.54 159.96 127.52 158.85 L 127.51 157.84 C 127.49 156.73 126.58 155.84 125.47 155.85 C 124.35 155.87 123.46 156.78 123.48 157.90 Z M 123.49 158.89 L 123.49 159.89 C 123.50 161.01 124.41 161.90 125.52 161.90 C 126.64 161.89 127.54 160.98 127.53 159.87 L 127.52 158.86 C 127.52 157.75 126.61 156.85 125.49 156.86 C 124.38 156.86 123.48 157.77 123.49 158.89 Z M 123.49 159.88 L 123.49 160.88 C 123.50 162.00 124.40 162.90 125.52 162.90 C 126.63 162.89 127.53 161.99 127.53 160.87 L 127.53 159.88 C 127.53 158.76 126.62 157.86 125.51 157.86 C 124.39 157.86 123.49 158.77 123.49 159.88 Z M 123.49 160.88 L 123.49 161.87 C 123.49 162.98 124.40 163.89 125.51 163.89 C 126.63 163.89 127.53 162.98 127.53 161.87 L 127.53 160.88 C 127.53 159.76 126.63 158.86 125.51 158.86 C 124.40 158.86 123.49 159.76 123.49 160.88 Z M 123.49 161.86 L 123.49 162.85 C 123.48 163.97 124.38 164.88 125.50 164.88 C 126.62 164.89 127.53 163.99 127.53 162.87 L 127.54 161.88 C 127.54 160.76 126.64 159.85 125.52 159.85 C 124.41 159.84 123.50 160.74 123.49 161.86 Z M 123.49 162.82 L 123.47 163.83 C 123.45 164.94 124.34 165.87 125.46 165.88 C 126.57 165.90 127.50 165.01 127.52 163.90 L 127.53 162.89 C 127.55 161.78 126.66 160.86 125.54 160.84 C 124.43 160.82 123.50 161.71 123.49 162.82 Z M 123.47 163.79 L 123.43 164.80 C 123.39 165.92 124.26 166.86 125.38 166.90 C 126.50 166.94 127.44 166.07 127.48 164.95 L 127.52 163.94 C 127.56 162.82 126.68 161.88 125.57 161.84 C 124.45 161.79 123.51 162.67 123.47 163.79 Z M 123.43 164.76 L 123.37 165.78 C 123.31 166.90 124.16 167.86 125.28 167.92 C 126.40 167.98 127.36 167.13 127.42 166.01 L 127.48 164.99 C 127.54 163.88 126.69 162.92 125.57 162.85 C 124.45 162.79 123.49 163.64 123.43 164.76 Z M 123.37 165.74 L 123.29 166.72 C 123.21 167.84 124.04 168.82 125.16 168.90 C 126.28 168.99 127.25 168.16 127.34 167.04 L 127.42 166.05 C 127.51 164.94 126.67 163.96 125.55 163.87 C 124.44 163.78 123.46 164.62 123.37 165.74 Z M 123.30 166.67 L 123.19 167.69 C 123.07 168.81 123.88 169.81 125.00 169.93 C 126.12 170.04 127.12 169.23 127.23 168.11 L 127.34 167.09 C 127.46 165.97 126.65 164.97 125.53 164.86 C 124.41 164.74 123.41 165.55 123.30 166.67 Z M 123.19 167.64 L 123.06 168.62 C 122.92 169.73 123.70 170.76 124.81 170.90 C 125.93 171.05 126.95 170.27 127.10 169.15 L 127.23 168.17 C 127.38 167.06 126.59 166.03 125.48 165.89 C 124.36 165.74 123.34 166.52 123.19 167.64 Z M 123.07 168.57 L 122.92 169.53 C 122.75 170.64 123.51 171.68 124.62 171.85 C 125.73 172.03 126.77 171.26 126.95 170.15 L 127.09 169.20 C 127.27 168.09 126.50 167.05 125.39 166.87 C 124.28 166.70 123.24 167.46 123.07 168.57 Z M 122.92 169.50 L 122.76 170.50 C 122.57 171.60 123.31 172.66 124.42 172.85 C 125.53 173.03 126.58 172.29 126.77 171.18 L 126.94 170.18 C 127.13 169.07 126.38 168.02 125.28 167.83 C 124.17 167.64 123.11 168.39 122.92 169.50 Z M 122.76 170.47 L 122.58 171.44 C 122.38 172.55 123.12 173.61 124.22 173.81 C 125.33 174.01 126.39 173.28 126.59 172.17 L 126.77 171.20 C 126.97 170.09 126.24 169.03 125.13 168.83 C 124.02 168.63 122.96 169.37 122.76 170.47 Z M 122.58 171.42 L 122.39 172.43 C 122.18 173.54 122.90 174.61 124.01 174.82 C 125.12 175.03 126.19 174.31 126.40 173.20 L 126.59 172.19 C 126.80 171.08 126.08 170.02 124.97 169.80 C 123.87 169.59 122.80 170.32 122.58 171.42 Z M 122.40 172.40 L 122.20 173.35 C 121.97 174.46 122.67 175.54 123.78 175.77 C 124.88 176.00 125.96 175.29 126.19 174.19 L 126.39 173.23 C 126.62 172.13 125.92 171.05 124.81 170.82 C 123.71 170.59 122.63 171.29 122.40 172.40 Z M 122.21 173.30 L 121.97 174.30 C 121.71 175.39 122.39 176.49 123.49 176.76 C 124.58 177.02 125.68 176.34 125.94 175.24 L 126.18 174.24 C 126.44 173.15 125.76 172.05 124.66 171.79 C 123.57 171.52 122.47 172.20 122.21 173.30 Z M 121.98 174.27 L 121.74 175.21 C 121.46 176.31 122.13 177.42 123.22 177.69 C 124.31 177.97 125.42 177.31 125.70 176.21 L 125.94 175.27 C 126.21 174.17 125.55 173.06 124.46 172.79 C 123.36 172.51 122.25 173.17 121.98 174.27 Z M 121.74 175.22 L 121.49 176.20 C 121.22 177.29 121.89 178.40 122.98 178.67 C 124.08 178.94 125.19 178.28 125.46 177.18 L 125.70 176.21 C 125.97 175.11 125.31 174.00 124.21 173.73 C 123.12 173.46 122.01 174.12 121.74 175.22 Z M 121.49 176.20 L 121.26 177.16 C 120.99 178.25 121.66 179.36 122.76 179.63 C 123.85 179.90 124.96 179.23 125.23 178.13 L 125.46 177.17 C 125.73 176.08 125.06 174.97 123.96 174.70 C 122.87 174.43 121.76 175.11 121.49 176.20 Z M 121.27 177.12 L 121.01 178.09 C 120.72 179.18 121.37 180.30 122.46 180.58 C 123.55 180.87 124.67 180.23 124.96 179.13 L 125.22 178.17 C 125.51 177.08 124.86 175.96 123.77 175.67 C 122.68 175.38 121.56 176.03 121.27 177.12 Z M 121.04 177.97 L 120.73 178.92 C 120.38 179.99 120.96 181.15 122.04 181.50 C 123.11 181.85 124.26 181.27 124.62 180.20 L 124.93 179.25 C 125.28 178.18 124.70 177.02 123.62 176.67 C 122.55 176.32 121.40 176.90 121.04 177.97 Z M 120.81 178.73 L 120.40 179.65 C 119.94 180.68 120.41 181.89 121.44 182.35 C 122.47 182.80 123.68 182.34 124.13 181.31 L 124.54 180.39 C 125.00 179.35 124.53 178.15 123.50 177.69 C 122.47 177.23 121.26 177.70 120.81 178.73 Z M 120.59 179.33 L 119.93 180.28 C 119.30 181.20 119.53 182.47 120.46 183.11 C 121.39 183.75 122.66 183.51 123.29 182.58 L 123.95 181.63 C 124.58 180.70 124.35 179.44 123.42 178.80 C 122.49 178.16 121.22 178.40 120.59 179.33 Z M 122.05 179.46 L 121.58 179.36 C 120.50 179.12 119.42 179.80 119.18 180.89 C 118.94 181.98 119.62 183.05 120.71 183.29 L 121.18 183.40 C 122.26 183.64 123.34 182.95 123.58 181.87 C 123.82 180.78 123.14 179.70 122.05 179.46 Z M 123.08 181.07 L 122.93 179.93 C 122.79 178.86 121.81 178.11 120.74 178.25 C 119.67 178.40 118.92 179.38 119.06 180.45 L 119.21 181.58 C 119.35 182.65 120.34 183.40 121.40 183.26 C 122.47 183.12 123.22 182.14 123.08 181.07 Z M 122.88 180.13 L 122.85 179.12 C 122.82 178.08 121.95 177.27 120.91 177.30 C 119.87 177.33 119.05 178.20 119.08 179.24 L 119.11 180.24 C 119.14 181.28 120.01 182.10 121.05 182.07 C 122.09 182.04 122.91 181.17 122.88 180.13 Z M 122.79 179.17 L 122.79 178.17 C 122.78 177.16 121.96 176.34 120.95 176.35 C 119.94 176.35 119.12 177.18 119.13 178.19 L 119.13 179.19 C 119.14 180.20 119.96 181.02 120.97 181.01 C 121.98 181.01 122.80 180.18 122.79 179.17 Z M 122.76 178.18 L 122.76 178.11 C 122.76 177.11 121.95 176.30 120.96 176.30 C 119.96 176.30 119.16 177.11 119.16 178.11 L 119.16 178.18 C 119.16 179.17 119.96 179.98 120.96 179.98 C 121.95 179.98 122.76 179.17 122.76 178.18 Z"
      fill="black"
      fill-rule="nonzero" /><path d="M 147.06 128.84 L 147.98 128.84 C 149.07 128.84 149.94 127.96 149.94 126.88 C 149.94 125.80 149.07 124.92 147.98 124.92 L 147.06 124.92 C 145.98 124.92 145.10 125.80 145.10 126.88 C 145.10 127.96 145.98 128.84 147.06 128.84 Z M 147.98 128.92 L 149.04 128.92 C 150.16 128.92 151.08 128.01 151.08 126.88 C 151.08 125.76 150.16 124.84 149.04 124.84 L 147.98 124.84 C 146.86 124.84 145.95 125.76 145.95 126.88 C 145.95 128.01 146.86 128.92 147.98 128.92 Z M 149.04 128.96 L 149.99 128.96 C 151.14 128.96 152.07 128.03 152.07 126.88 C 152.07 125.73 151.13 124.80 149.99 124.80 L 149.04 124.80 C 147.89 124.80 146.96 125.73 146.96 126.88 C 146.96 128.03 147.89 128.96 149.04 128.96 Z M 150.00 128.97 L 151.04 128.96 C 152.19 128.96 153.12 128.02 153.12 126.87 C 153.11 125.71 152.17 124.78 151.02 124.79 L 149.98 124.79 C 148.83 124.80 147.89 125.73 147.90 126.89 C 147.90 128.04 148.84 128.97 150.00 128.97 Z M 151.05 128.97 L 152.12 128.96 C 153.28 128.95 154.21 128.00 154.20 126.84 C 154.19 125.69 153.24 124.76 152.08 124.77 L 151.01 124.78 C 149.85 124.79 148.92 125.74 148.93 126.90 C 148.94 128.05 149.89 128.98 151.05 128.97 Z M 152.14 128.96 L 153.18 128.94 C 154.34 128.92 155.26 127.96 155.24 126.80 C 155.22 125.65 154.26 124.72 153.10 124.75 L 152.06 124.77 C 150.90 124.79 149.98 125.75 150.00 126.91 C 150.03 128.06 150.98 128.99 152.14 128.96 Z M 153.21 128.94 L 154.14 128.91 C 155.30 128.87 156.20 127.90 156.16 126.74 C 156.13 125.58 155.15 124.68 154.00 124.72 L 153.07 124.75 C 151.91 124.79 151.01 125.76 151.04 126.92 C 151.08 128.07 152.06 128.98 153.21 128.94 Z M 154.20 128.91 L 155.26 128.84 C 156.41 128.77 157.29 127.77 157.22 126.62 C 157.15 125.46 156.15 124.58 155.00 124.65 L 153.94 124.72 C 152.78 124.79 151.90 125.79 151.97 126.94 C 152.05 128.10 153.04 128.98 154.20 128.91 Z M 155.31 128.83 L 156.22 128.75 C 157.37 128.65 158.23 127.64 158.13 126.49 C 158.03 125.34 157.02 124.49 155.87 124.59 L 154.95 124.67 C 153.80 124.76 152.95 125.78 153.05 126.93 C 153.15 128.08 154.16 128.93 155.31 128.83 Z M 156.21 128.74 L 157.20 128.66 C 158.34 128.57 159.20 127.56 159.10 126.42 C 159.01 125.28 158.01 124.42 156.87 124.52 L 155.88 124.60 C 154.73 124.69 153.88 125.69 153.97 126.84 C 154.07 127.98 155.07 128.83 156.21 128.74 Z M 157.18 128.65 L 158.13 128.58 C 159.27 128.49 160.12 127.50 160.04 126.37 C 159.96 125.23 158.97 124.38 157.83 124.46 L 156.88 124.53 C 155.74 124.61 154.89 125.60 154.97 126.74 C 155.06 127.88 156.05 128.73 157.18 128.65 Z M 158.13 128.56 L 159.13 128.48 C 160.26 128.40 161.11 127.42 161.02 126.29 C 160.94 125.16 159.96 124.32 158.83 124.40 L 157.83 124.48 C 156.70 124.56 155.86 125.54 155.94 126.67 C 156.02 127.80 157.01 128.64 158.13 128.56 Z M 159.15 128.47 L 160.16 128.38 C 161.28 128.29 162.11 127.31 162.02 126.19 C 161.93 125.08 160.95 124.25 159.83 124.34 L 158.82 124.42 C 157.70 124.51 156.87 125.49 156.96 126.61 C 157.05 127.73 158.03 128.56 159.15 128.47 Z M 160.17 128.37 L 161.17 128.28 C 162.28 128.18 163.10 127.21 163.00 126.10 C 162.90 124.99 161.93 124.17 160.82 124.27 L 159.82 124.35 C 158.71 124.45 157.89 125.43 157.99 126.53 C 158.09 127.64 159.06 128.46 160.17 128.37 Z M 161.17 128.26 L 162.20 128.18 C 163.30 128.08 164.11 127.11 164.02 126.01 C 163.93 124.91 162.96 124.10 161.86 124.19 L 160.82 124.28 C 159.72 124.38 158.91 125.35 159.00 126.44 C 159.10 127.54 160.07 128.36 161.17 128.26 Z M 162.18 128.16 L 163.18 128.08 C 164.27 127.99 165.08 127.04 165.00 125.95 C 164.91 124.86 163.96 124.05 162.87 124.14 L 161.88 124.21 C 160.79 124.30 159.97 125.25 160.06 126.34 C 160.14 127.43 161.09 128.24 162.18 128.16 Z M 163.11 128.05 L 164.09 128.01 C 165.17 127.97 166.00 127.06 165.96 125.98 C 165.91 124.90 165.00 124.07 163.93 124.12 L 162.94 124.16 C 161.86 124.21 161.03 125.11 161.08 126.19 C 161.12 127.27 162.03 128.10 163.11 128.05 Z M 163.97 127.99 L 164.98 128.01 C 166.04 128.03 166.92 127.19 166.95 126.13 C 166.97 125.07 166.13 124.19 165.07 124.17 L 164.05 124.14 C 162.99 124.12 162.11 124.96 162.09 126.02 C 162.07 127.08 162.91 127.96 163.97 127.99 Z M 164.85 127.98 L 165.81 128.06 C 166.85 128.16 167.78 127.39 167.87 126.35 C 167.97 125.30 167.20 124.38 166.16 124.28 L 165.20 124.20 C 164.15 124.10 163.23 124.87 163.14 125.91 C 163.04 126.96 163.81 127.88 164.85 127.98 Z M 165.73 128.03 L 166.73 128.17 C 167.76 128.31 168.70 127.59 168.84 126.56 C 168.98 125.53 168.26 124.59 167.23 124.45 L 166.24 124.31 C 165.21 124.18 164.26 124.89 164.12 125.92 C 163.98 126.95 164.70 127.89 165.73 128.03 Z M 166.69 128.14 L 167.71 128.30 C 168.72 128.46 169.67 127.77 169.83 126.76 C 169.99 125.75 169.30 124.80 168.29 124.64 L 167.27 124.48 C 166.26 124.32 165.31 125.01 165.15 126.02 C 164.99 127.03 165.68 127.98 166.69 128.14 Z M 167.70 128.29 L 167.80 128.30 C 168.80 128.47 169.75 127.78 169.91 126.78 C 170.08 125.77 169.39 124.83 168.39 124.66 L 168.29 124.65 C 167.29 124.49 166.34 125.17 166.18 126.18 C 166.02 127.18 166.70 128.13 167.70 128.29 Z"
      fill="black"
      fill-rule="nonzero" /><path d="M 142.41 140.72 L 142.63 141.68 C 142.88 142.75 143.94 143.42 145.02 143.18 C 146.09 142.94 146.76 141.87 146.52 140.80 L 146.30 139.84 C 146.06 138.76 144.99 138.09 143.92 138.33 C 142.84 138.58 142.17 139.64 142.41 140.72 Z M 142.61 141.83 L 142.90 142.79 C 143.23 143.88 144.37 144.50 145.46 144.17 C 146.55 143.84 147.16 142.69 146.83 141.60 L 146.54 140.64 C 146.21 139.55 145.07 138.94 143.98 139.27 C 142.89 139.60 142.28 140.75 142.61 141.83 Z M 142.92 142.93 L 143.27 143.87 C 143.68 144.95 144.88 145.49 145.95 145.09 C 147.03 144.68 147.57 143.48 147.17 142.41 L 146.81 141.47 C 146.41 140.39 145.21 139.85 144.13 140.25 C 143.06 140.66 142.51 141.86 142.92 142.93 Z M 143.26 143.84 L 143.60 144.78 C 143.99 145.86 145.18 146.42 146.26 146.03 C 147.34 145.64 147.90 144.45 147.51 143.37 L 147.18 142.43 C 146.79 141.35 145.59 140.79 144.51 141.18 C 143.43 141.57 142.87 142.76 143.26 143.84 Z M 143.56 144.65 L 143.84 145.61 C 144.16 146.71 145.31 147.35 146.41 147.03 C 147.51 146.71 148.15 145.56 147.83 144.46 L 147.55 143.50 C 147.23 142.40 146.08 141.76 144.98 142.08 C 143.88 142.40 143.24 143.55 143.56 144.65 Z M 143.81 145.46 L 144.01 146.42 C 144.25 147.54 145.35 148.26 146.47 148.02 C 147.59 147.78 148.30 146.68 148.06 145.56 L 147.86 144.60 C 147.62 143.48 146.52 142.77 145.40 143.01 C 144.28 143.24 143.57 144.34 143.81 145.46 Z M 143.99 146.30 L 144.14 147.30 C 144.31 148.42 145.37 149.20 146.49 149.03 C 147.62 148.86 148.40 147.81 148.23 146.68 L 148.08 145.68 C 147.91 144.56 146.86 143.78 145.73 143.95 C 144.60 144.12 143.82 145.17 143.99 146.30 Z M 144.14 147.20 L 144.24 148.21 C 144.36 149.34 145.37 150.17 146.50 150.05 C 147.63 149.94 148.46 148.93 148.34 147.79 L 148.24 146.78 C 148.12 145.65 147.11 144.82 145.98 144.94 C 144.85 145.05 144.02 146.07 144.14 147.20 Z M 144.24 148.14 L 144.31 149.14 C 144.38 150.27 145.36 151.13 146.49 151.06 C 147.62 150.98 148.48 150.01 148.41 148.87 L 148.34 147.87 C 148.27 146.74 147.29 145.88 146.16 145.95 C 145.03 146.03 144.17 147.01 144.24 148.14 Z M 144.31 149.08 L 144.35 150.10 C 144.39 151.23 145.34 152.11 146.47 152.07 C 147.60 152.03 148.48 151.08 148.44 149.95 L 148.40 148.93 C 148.36 147.80 147.41 146.92 146.28 146.96 C 145.15 147.00 144.27 147.95 144.31 149.08 Z M 144.35 150.05 L 144.37 151.07 C 144.38 152.20 145.31 153.10 146.44 153.09 C 147.56 153.07 148.46 152.14 148.45 151.02 L 148.43 149.99 C 148.42 148.87 147.49 147.97 146.37 147.98 C 145.24 148.00 144.34 148.92 144.35 150.05 Z M 144.37 151.05 L 144.37 152.01 C 144.38 153.14 145.29 154.05 146.41 154.04 C 147.54 154.04 148.44 153.13 148.44 152.01 L 148.44 151.04 C 148.44 149.92 147.53 149.01 146.40 149.01 C 145.28 149.01 144.37 149.92 144.37 151.05 Z M 144.38 151.93 L 144.35 152.93 C 144.31 154.05 145.18 154.99 146.30 155.03 C 147.42 155.07 148.36 154.20 148.40 153.08 L 148.43 152.08 C 148.48 150.97 147.60 150.03 146.48 149.98 C 145.37 149.94 144.42 150.82 144.38 151.93 Z M 144.40 152.59 L 144.17 153.68 C 143.94 154.77 144.64 155.84 145.73 156.07 C 146.82 156.30 147.89 155.60 148.12 154.51 L 148.35 153.41 C 148.58 152.32 147.88 151.25 146.78 151.03 C 145.69 150.80 144.62 151.50 144.40 152.59 Z M 144.32 153.24 L 143.94 154.06 C 143.47 155.07 143.90 156.27 144.90 156.74 C 145.91 157.21 147.11 156.78 147.58 155.77 L 147.97 154.95 C 148.44 153.94 148.00 152.75 147.00 152.27 C 145.99 151.80 144.80 152.23 144.32 153.24 Z M 147.75 155.02 L 147.79 154.34 C 147.85 153.24 147.00 152.30 145.91 152.24 C 144.81 152.18 143.87 153.02 143.81 154.12 L 143.77 154.81 C 143.71 155.91 144.55 156.85 145.65 156.91 C 146.75 156.97 147.69 156.12 147.75 155.02 Z M 147.66 154.85 L 148.03 153.73 C 148.38 152.70 147.82 151.59 146.80 151.25 C 145.77 150.90 144.66 151.46 144.31 152.48 L 143.94 153.60 C 143.59 154.63 144.15 155.74 145.17 156.09 C 146.20 156.43 147.31 155.88 147.66 154.85 Z M 147.88 154.03 L 148.35 153.16 C 148.86 152.22 148.51 151.04 147.57 150.53 C 146.63 150.02 145.45 150.37 144.94 151.31 L 144.47 152.18 C 143.96 153.12 144.31 154.30 145.25 154.81 C 146.19 155.32 147.37 154.97 147.88 154.03 Z M 148.24 153.31 L 148.81 152.48 C 149.40 151.60 149.17 150.40 148.29 149.80 C 147.41 149.21 146.21 149.44 145.61 150.32 L 145.05 151.16 C 144.45 152.04 144.69 153.24 145.57 153.83 C 146.45 154.43 147.65 154.20 148.24 153.31 Z M 148.74 152.56 L 149.34 151.77 C 149.99 150.92 149.82 149.72 148.98 149.08 C 148.14 148.43 146.93 148.60 146.29 149.44 L 145.68 150.24 C 145.04 151.08 145.20 152.28 146.05 152.93 C 146.89 153.57 148.10 153.41 148.74 152.56 Z M 149.28 151.84 L 149.93 151.07 C 150.62 150.26 150.52 149.05 149.71 148.36 C 148.90 147.68 147.69 147.78 147.00 148.59 L 146.35 149.37 C 145.67 150.18 145.77 151.39 146.58 152.07 C 147.39 152.75 148.60 152.65 149.28 151.84 Z M 149.87 151.14 L 150.56 150.40 C 151.29 149.63 151.25 148.42 150.48 147.69 C 149.71 146.97 148.50 147.00 147.77 147.78 L 147.07 148.52 C 146.35 149.29 146.38 150.50 147.15 151.23 C 147.93 151.95 149.14 151.92 149.87 151.14 Z M 150.48 150.49 L 151.20 149.81 C 151.97 149.09 152.01 147.88 151.28 147.10 C 150.56 146.33 149.34 146.29 148.57 147.02 L 147.85 147.69 C 147.08 148.42 147.04 149.63 147.77 150.40 C 148.49 151.17 149.71 151.21 150.48 150.49 Z M 151.08 149.91 L 151.85 149.30 C 152.67 148.63 152.81 147.43 152.14 146.60 C 151.48 145.78 150.27 145.64 149.45 146.31 L 148.68 146.92 C 147.86 147.59 147.73 148.79 148.39 149.62 C 149.05 150.44 150.26 150.57 151.08 149.91 Z M 151.69 149.41 L 152.53 148.87 C 153.42 148.30 153.68 147.11 153.10 146.22 C 152.53 145.33 151.34 145.07 150.45 145.65 L 149.61 146.19 C 148.72 146.76 148.46 147.95 149.04 148.84 C 149.61 149.73 150.80 149.99 151.69 149.41 Z M 152.34 148.98 L 153.26 148.53 C 154.21 148.06 154.60 146.91 154.14 145.95 C 153.67 145.00 152.51 144.61 151.56 145.08 L 150.64 145.54 C 149.69 146.01 149.30 147.16 149.77 148.11 C 150.24 149.06 151.39 149.45 152.34 148.98 Z M 153.08 148.61 L 154.03 148.26 C 155.03 147.90 155.54 146.79 155.18 145.79 C 154.81 144.79 153.70 144.28 152.70 144.64 L 151.75 144.99 C 150.75 145.36 150.24 146.47 150.60 147.47 C 150.97 148.47 152.08 148.98 153.08 148.61 Z M 153.75 148.36 L 154.77 148.15 C 155.82 147.94 156.49 146.91 156.28 145.86 C 156.07 144.81 155.04 144.13 153.99 144.35 L 152.98 144.55 C 151.93 144.77 151.25 145.79 151.46 146.84 C 151.68 147.89 152.70 148.57 153.75 148.36 Z M 153.91 148.15 L 154.81 148.37 C 155.86 148.63 156.92 147.99 157.18 146.93 C 157.44 145.88 156.79 144.82 155.74 144.56 L 154.85 144.34 C 153.79 144.08 152.73 144.73 152.47 145.78 C 152.22 146.83 152.86 147.89 153.91 148.15 Z M 153.60 147.54 L 154.08 148.28 C 154.67 149.20 155.90 149.47 156.82 148.88 C 157.74 148.28 158.01 147.06 157.42 146.13 L 156.94 145.39 C 156.35 144.47 155.12 144.21 154.20 144.80 C 153.28 145.39 153.01 146.62 153.60 147.54 Z M 153.80 147.65 L 154.03 148.70 C 154.28 149.77 155.35 150.45 156.43 150.20 C 157.51 149.96 158.19 148.89 157.94 147.81 L 157.70 146.76 C 157.46 145.68 156.38 145.01 155.30 145.25 C 154.23 145.50 153.55 146.57 153.80 147.65 Z M 153.98 148.41 L 154.05 149.40 C 154.14 150.51 155.11 151.34 156.22 151.25 C 157.33 151.17 158.16 150.20 158.08 149.09 L 158.00 148.09 C 157.91 146.98 156.94 146.15 155.83 146.24 C 154.72 146.33 153.89 147.30 153.98 148.41 Z M 154.04 149.12 L 153.98 150.12 C 153.91 151.24 154.77 152.20 155.88 152.27 C 157.00 152.33 157.96 151.48 158.03 150.36 L 158.09 149.37 C 158.15 148.25 157.30 147.29 156.19 147.22 C 155.07 147.15 154.11 148.00 154.04 149.12 Z M 154.01 149.83 L 153.81 150.79 C 153.58 151.89 154.29 152.97 155.39 153.20 C 156.49 153.43 157.56 152.72 157.79 151.62 L 158.00 150.66 C 158.23 149.56 157.52 148.48 156.42 148.25 C 155.32 148.02 154.24 148.73 154.01 149.83 Z M 153.86 150.56 L 153.55 151.51 C 153.19 152.58 153.78 153.74 154.85 154.09 C 155.92 154.45 157.08 153.87 157.43 152.79 L 157.75 151.85 C 158.10 150.77 157.52 149.62 156.44 149.26 C 155.37 148.91 154.21 149.49 153.86 150.56 Z M 153.59 151.36 L 153.19 152.31 C 152.76 153.36 153.25 154.57 154.30 155.00 C 155.35 155.44 156.55 154.95 156.99 153.90 L 157.39 152.94 C 157.83 151.90 157.33 150.69 156.28 150.26 C 155.23 149.82 154.03 150.31 153.59 151.36 Z M 153.24 152.20 L 152.83 153.05 C 152.33 154.07 152.76 155.31 153.78 155.80 C 154.81 156.30 156.04 155.87 156.54 154.85 L 156.95 154.01 C 157.44 152.98 157.02 151.75 155.99 151.25 C 154.97 150.75 153.73 151.18 153.24 152.20 Z M 152.88 152.94 L 152.40 153.81 C 151.84 154.81 152.20 156.06 153.20 156.62 C 154.19 157.17 155.45 156.81 156.01 155.82 L 156.49 154.95 C 157.04 153.96 156.68 152.70 155.69 152.14 C 154.69 151.59 153.43 151.95 152.88 152.94 Z M 152.45 153.71 L 151.88 154.62 C 151.27 155.59 151.56 156.86 152.53 157.47 C 153.49 158.08 154.77 157.79 155.38 156.82 L 155.95 155.91 C 156.56 154.95 156.27 153.67 155.30 153.06 C 154.34 152.46 153.06 152.75 152.45 153.71 Z M 151.93 154.55 L 151.36 155.37 C 150.71 156.31 150.94 157.60 151.88 158.25 C 152.82 158.90 154.11 158.66 154.76 157.72 L 155.33 156.90 C 155.98 155.96 155.74 154.67 154.81 154.02 C 153.87 153.37 152.58 153.61 151.93 154.55 Z M 151.39 155.32 L 150.78 156.15 C 150.10 157.07 150.30 158.36 151.22 159.04 C 152.13 159.72 153.43 159.53 154.11 158.61 L 154.72 157.78 C 155.40 156.86 155.21 155.56 154.29 154.89 C 153.37 154.21 152.07 154.40 151.39 155.32 Z M 150.82 156.10 L 150.20 156.88 C 149.50 157.78 149.66 159.08 150.55 159.79 C 151.45 160.49 152.75 160.34 153.46 159.44 L 154.07 158.66 C 154.78 157.76 154.62 156.46 153.72 155.75 C 152.82 155.05 151.52 155.20 150.82 156.10 Z M 150.26 156.82 L 149.56 157.65 C 148.82 158.52 148.92 159.82 149.79 160.56 C 150.66 161.30 151.97 161.19 152.71 160.32 L 153.41 159.50 C 154.14 158.63 154.04 157.32 153.17 156.59 C 152.30 155.85 150.99 155.95 150.26 156.82 Z M 149.64 157.57 L 148.94 158.30 C 148.15 159.13 148.19 160.43 149.01 161.21 C 149.84 162.00 151.14 161.96 151.93 161.14 L 152.62 160.40 C 153.41 159.58 153.37 158.28 152.55 157.49 C 151.72 156.71 150.42 156.74 149.64 157.57 Z M 149.04 158.21 L 148.39 158.81 C 147.56 159.58 147.50 160.87 148.27 161.71 C 149.04 162.54 150.34 162.60 151.17 161.83 L 151.82 161.23 C 152.66 160.46 152.71 159.16 151.94 158.33 C 151.18 157.50 149.88 157.44 149.04 158.21 Z M 148.55 158.69 L 147.74 159.31 C 146.84 159.99 146.67 161.27 147.35 162.17 C 148.03 163.06 149.31 163.24 150.21 162.56 L 151.02 161.94 C 151.91 161.26 152.09 159.98 151.41 159.08 C 150.72 158.19 149.44 158.01 148.55 158.69 Z M 148.03 159.15 L 147.13 159.63 C 146.14 160.15 145.77 161.37 146.29 162.36 C 146.81 163.34 148.04 163.72 149.02 163.20 L 149.92 162.72 C 150.91 162.19 151.28 160.97 150.76 159.98 C 150.24 159.00 149.01 158.62 148.03 159.15 Z M 147.74 159.44 L 146.77 159.61 C 145.69 159.79 144.95 160.82 145.14 161.91 C 145.32 162.99 146.35 163.72 147.43 163.54 L 148.41 163.38 C 149.49 163.19 150.22 162.17 150.04 161.08 C 149.86 159.99 148.83 159.26 147.74 159.44 Z M 148.72 160.50 L 148.31 159.89 C 147.72 158.99 146.52 158.75 145.62 159.34 C 144.73 159.93 144.49 161.14 145.08 162.03 L 145.49 162.65 C 146.08 163.54 147.28 163.78 148.18 163.19 C 149.07 162.60 149.31 161.39 148.72 160.50 Z M 148.55 160.92 L 148.52 159.80 C 148.50 158.77 147.65 157.96 146.63 157.99 C 145.60 158.01 144.79 158.86 144.81 159.88 L 144.84 161.00 C 144.86 162.03 145.71 162.84 146.74 162.81 C 147.76 162.79 148.57 161.94 148.55 160.92 Z M 148.47 159.90 L 148.48 159.82 C 148.51 158.82 147.73 157.99 146.73 157.95 C 145.74 157.92 144.90 158.70 144.87 159.70 L 144.86 159.78 C 144.83 160.78 145.61 161.61 146.61 161.65 C 147.60 161.68 148.44 160.90 148.47 159.90 Z"
      fill="black"
      fill-rule="nonzero" /><path d="M 164.21 135.54 L 164.28 136.44 C 164.36 137.49 165.27 138.28 166.32 138.20 C 167.37 138.12 168.16 137.21 168.08 136.16 L 168.02 135.26 C 167.94 134.21 167.03 133.42 165.98 133.50 C 164.93 133.57 164.14 134.49 164.21 135.54 Z M 164.22 136.44 L 164.31 137.54 C 164.39 138.62 165.33 139.43 166.41 139.35 C 167.49 139.27 168.30 138.32 168.22 137.24 L 168.14 136.15 C 168.06 135.07 167.11 134.26 166.03 134.34 C 164.95 134.42 164.14 135.36 164.22 136.44 Z M 164.27 137.55 L 164.34 138.53 C 164.43 139.63 165.39 140.46 166.50 140.37 C 167.60 140.28 168.43 139.32 168.34 138.22 L 168.26 137.23 C 168.18 136.13 167.21 135.31 166.11 135.39 C 165.00 135.48 164.18 136.44 164.27 137.55 Z M 164.32 138.54 L 164.40 139.58 C 164.49 140.70 165.48 141.53 166.59 141.44 C 167.71 141.34 168.55 140.36 168.45 139.24 L 168.37 138.21 C 168.28 137.09 167.29 136.25 166.17 136.35 C 165.05 136.44 164.22 137.42 164.32 138.54 Z M 164.38 139.59 L 164.47 140.61 C 164.57 141.74 165.57 142.58 166.70 142.48 C 167.84 142.37 168.67 141.37 168.57 140.24 L 168.48 139.22 C 168.38 138.09 167.37 137.26 166.24 137.36 C 165.11 137.46 164.27 138.46 164.38 139.59 Z M 164.46 140.63 L 164.56 141.66 C 164.67 142.79 165.69 143.62 166.83 143.51 C 167.97 143.39 168.80 142.38 168.68 141.24 L 168.58 140.22 C 168.47 139.08 167.45 138.25 166.31 138.36 C 165.17 138.48 164.34 139.49 164.46 140.63 Z M 164.56 141.65 L 164.64 142.56 C 164.75 143.70 165.77 144.53 166.91 144.42 C 168.05 144.31 168.89 143.30 168.78 142.16 L 168.69 141.25 C 168.58 140.11 167.56 139.27 166.42 139.38 C 165.28 139.49 164.45 140.51 164.56 141.65 Z M 164.64 142.52 L 164.71 143.49 C 164.80 144.64 165.80 145.49 166.95 145.40 C 168.09 145.32 168.95 144.32 168.86 143.17 L 168.78 142.20 C 168.69 141.05 167.69 140.20 166.55 140.29 C 165.40 140.38 164.55 141.38 164.64 142.52 Z M 164.71 143.47 L 164.77 144.48 C 164.85 145.63 165.84 146.50 166.98 146.43 C 168.13 146.35 169.00 145.36 168.93 144.22 L 168.86 143.20 C 168.79 142.05 167.80 141.18 166.65 141.26 C 165.51 141.33 164.64 142.32 164.71 143.47 Z M 164.77 144.47 L 164.83 145.43 C 164.89 146.58 165.88 147.46 167.02 147.39 C 168.17 147.32 169.05 146.34 168.98 145.19 L 168.93 144.23 C 168.86 143.08 167.88 142.21 166.73 142.27 C 165.58 142.34 164.71 143.32 164.77 144.47 Z M 164.83 145.42 L 164.88 146.46 C 164.94 147.61 165.92 148.49 167.07 148.43 C 168.22 148.37 169.10 147.39 169.04 146.24 L 168.99 145.20 C 168.92 144.05 167.94 143.17 166.80 143.23 C 165.65 143.29 164.76 144.27 164.83 145.42 Z M 164.88 146.45 L 164.93 147.44 C 164.99 148.59 165.96 149.48 167.11 149.42 C 168.26 149.36 169.15 148.38 169.09 147.23 L 169.04 146.25 C 168.98 145.10 168.01 144.21 166.86 144.27 C 165.71 144.33 164.82 145.30 164.88 146.45 Z M 164.93 147.43 L 164.97 148.44 C 165.03 149.59 166.00 150.48 167.15 150.43 C 168.30 150.37 169.19 149.40 169.14 148.25 L 169.09 147.24 C 169.04 146.09 168.06 145.20 166.91 145.25 C 165.76 145.31 164.87 146.28 164.93 147.43 Z M 164.97 148.43 L 165.01 149.44 C 165.06 150.59 166.03 151.49 167.18 151.44 C 168.33 151.40 169.23 150.43 169.18 149.28 L 169.14 148.26 C 169.10 147.11 168.13 146.21 166.97 146.26 C 165.82 146.30 164.93 147.27 164.97 148.43 Z M 165.01 149.42 L 165.04 150.42 C 165.08 151.57 166.04 152.47 167.19 152.44 C 168.34 152.40 169.25 151.44 169.21 150.29 L 169.18 149.30 C 169.15 148.15 168.18 147.24 167.03 147.27 C 165.88 147.31 164.98 148.27 165.01 149.42 Z M 165.04 150.40 L 165.06 151.39 C 165.09 152.55 166.04 153.46 167.19 153.44 C 168.34 153.41 169.26 152.46 169.23 151.31 L 169.21 150.31 C 169.19 149.16 168.23 148.24 167.08 148.27 C 165.93 148.29 165.02 149.25 165.04 150.40 Z M 165.06 151.38 L 165.07 152.38 C 165.09 153.53 166.03 154.45 167.19 154.44 C 168.34 154.42 169.26 153.48 169.25 152.32 L 169.23 151.33 C 169.22 150.17 168.27 149.25 167.12 149.26 C 165.97 149.28 165.05 150.22 165.06 151.38 Z M 165.07 152.36 L 165.08 153.35 C 165.08 154.50 166.02 155.43 167.18 155.42 C 168.33 155.42 169.26 154.48 169.25 153.33 L 169.25 152.34 C 169.24 151.19 168.30 150.26 167.15 150.26 C 166.00 150.27 165.07 151.21 165.07 152.36 Z M 165.08 153.34 L 165.08 154.35 C 165.08 155.50 166.02 156.44 167.17 156.43 C 168.32 156.43 169.26 155.50 169.25 154.34 L 169.25 153.33 C 169.25 152.18 168.31 151.25 167.16 151.25 C 166.01 151.25 165.08 152.19 165.08 153.34 Z M 165.08 154.35 L 165.08 155.36 C 165.08 156.51 166.01 157.44 167.17 157.44 C 168.32 157.44 169.25 156.51 169.25 155.36 L 169.25 154.35 C 169.25 153.19 168.32 152.26 167.17 152.26 C 166.01 152.26 165.08 153.20 165.08 154.35 Z M 165.08 155.36 L 165.08 156.35 C 165.08 157.50 166.01 158.44 167.17 158.44 C 168.32 158.44 169.25 157.50 169.25 156.35 L 169.25 155.36 C 169.25 154.20 168.32 153.27 167.17 153.27 C 166.01 153.27 165.08 154.20 165.08 155.36 Z M 165.08 156.35 L 165.08 157.35 C 165.08 158.51 166.01 159.44 167.17 159.44 C 168.32 159.44 169.25 158.51 169.25 157.35 L 169.25 156.35 C 169.25 155.20 168.32 154.26 167.17 154.26 C 166.01 154.26 165.08 155.20 165.08 156.35 Z M 165.08 157.35 L 165.08 158.36 C 165.08 159.51 166.01 160.45 167.17 160.45 C 168.32 160.45 169.25 159.51 169.25 158.36 L 169.25 157.35 C 169.25 156.20 168.32 155.27 167.17 155.27 C 166.01 155.27 165.08 156.20 165.08 157.35 Z M 165.08 158.36 L 165.08 159.36 C 165.08 160.51 166.01 161.45 167.16 161.45 C 168.32 161.45 169.25 160.52 169.25 159.37 L 169.25 158.36 C 169.25 157.21 168.32 156.27 167.17 156.27 C 166.02 156.27 165.08 157.21 165.08 158.36 Z M 165.08 159.36 L 165.07 160.36 C 165.07 161.51 166.00 162.45 167.15 162.45 C 168.31 162.46 169.24 161.53 169.25 160.37 L 169.25 159.37 C 169.26 158.22 168.33 157.28 167.17 157.28 C 166.02 157.27 165.08 158.20 165.08 159.36 Z M 165.08 160.35 L 165.07 161.34 C 165.06 162.49 165.98 163.43 167.13 163.44 C 168.29 163.45 169.23 162.53 169.24 161.38 L 169.25 160.38 C 169.26 159.23 168.33 158.29 167.18 158.28 C 166.03 158.27 165.09 159.19 165.08 160.35 Z M 165.07 161.32 L 165.05 162.31 C 165.03 163.46 165.95 164.41 167.10 164.43 C 168.25 164.45 169.20 163.54 169.22 162.38 L 169.24 161.39 C 169.26 160.24 168.34 159.29 167.19 159.27 C 166.04 159.25 165.09 160.17 165.07 161.32 Z M 165.05 162.28 L 165.02 163.28 C 164.99 164.43 165.89 165.39 167.04 165.43 C 168.19 165.46 169.15 164.56 169.19 163.41 L 169.22 162.41 C 169.25 161.26 168.35 160.30 167.20 160.26 C 166.05 160.23 165.09 161.13 165.05 162.28 Z M 165.02 163.25 L 164.98 164.26 C 164.92 165.41 165.81 166.39 166.96 166.44 C 168.11 166.49 169.08 165.61 169.14 164.46 L 169.18 163.44 C 169.24 162.29 168.35 161.32 167.20 161.26 C 166.05 161.21 165.08 162.10 165.02 163.25 Z M 164.98 164.23 L 164.91 165.24 C 164.84 166.39 165.71 167.38 166.86 167.45 C 168.00 167.53 168.99 166.66 169.07 165.51 L 169.13 164.49 C 169.21 163.35 168.34 162.36 167.19 162.28 C 166.05 162.21 165.06 163.08 164.98 164.23 Z M 164.92 165.21 L 164.84 166.22 C 164.75 167.36 165.60 168.36 166.74 168.45 C 167.89 168.55 168.89 167.69 168.98 166.55 L 169.06 165.55 C 169.15 164.40 168.30 163.40 167.16 163.31 C 166.01 163.21 165.01 164.07 164.92 165.21 Z M 164.84 166.18 L 164.75 167.16 C 164.64 168.30 165.47 169.32 166.61 169.43 C 167.75 169.54 168.77 168.70 168.88 167.56 L 168.97 166.58 C 169.09 165.44 168.25 164.43 167.11 164.32 C 165.97 164.21 164.95 165.04 164.84 166.18 Z M 164.76 167.12 L 164.64 168.16 C 164.50 169.30 165.32 170.33 166.46 170.46 C 167.59 170.59 168.62 169.77 168.75 168.64 L 168.87 167.60 C 169.00 166.46 168.19 165.43 167.05 165.30 C 165.92 165.17 164.89 165.99 164.76 167.12 Z M 164.64 168.12 L 164.51 169.09 C 164.36 170.22 165.16 171.26 166.29 171.41 C 167.42 171.56 168.46 170.77 168.61 169.64 L 168.74 168.67 C 168.90 167.54 168.10 166.50 166.97 166.35 C 165.84 166.20 164.80 166.99 164.64 168.12 Z M 164.52 169.06 L 164.38 170.03 C 164.21 171.16 164.99 172.21 166.12 172.38 C 167.24 172.54 168.29 171.77 168.46 170.64 L 168.61 169.67 C 168.77 168.54 168.00 167.49 166.87 167.32 C 165.74 167.15 164.69 167.93 164.52 169.06 Z M 164.38 170.01 L 164.23 171.01 C 164.05 172.13 164.82 173.19 165.94 173.36 C 167.07 173.54 168.12 172.77 168.30 171.65 L 168.46 170.65 C 168.63 169.53 167.86 168.47 166.74 168.30 C 165.62 168.12 164.56 168.89 164.38 170.01 Z M 164.23 171.00 L 164.08 171.98 C 163.90 173.10 164.66 174.15 165.78 174.33 C 166.91 174.51 167.96 173.75 168.14 172.62 L 168.29 171.65 C 168.47 170.53 167.71 169.48 166.59 169.30 C 165.47 169.12 164.41 169.88 164.23 171.00 Z M 164.08 171.98 L 163.92 172.98 C 163.74 174.10 164.51 175.15 165.63 175.33 C 166.75 175.51 167.80 174.75 167.98 173.63 L 168.14 172.62 C 168.31 171.50 167.55 170.45 166.43 170.27 C 165.31 170.10 164.26 170.86 164.08 171.98 Z M 163.93 172.97 L 163.77 173.94 C 163.59 175.06 164.34 176.11 165.46 176.30 C 166.57 176.48 167.63 175.72 167.81 174.61 L 167.97 173.64 C 168.15 172.52 167.40 171.47 166.28 171.28 C 165.16 171.10 164.11 171.86 163.93 172.97 Z M 163.78 173.92 L 163.60 174.92 C 163.40 176.03 164.14 177.09 165.25 177.29 C 166.37 177.49 167.43 176.75 167.62 175.64 L 167.80 174.63 C 168.00 173.52 167.26 172.46 166.15 172.26 C 165.04 172.07 163.98 172.81 163.78 173.92 Z M 163.61 174.89 L 163.42 175.86 C 163.21 176.96 163.93 178.03 165.04 178.25 C 166.14 178.46 167.21 177.74 167.42 176.63 L 167.61 175.67 C 167.83 174.56 167.10 173.49 166.00 173.28 C 164.89 173.06 163.83 173.79 163.61 174.89 Z M 163.43 175.82 L 163.24 176.74 C 163.01 177.84 163.71 178.92 164.81 179.15 C 165.91 179.38 166.99 178.68 167.22 177.58 L 167.41 176.67 C 167.65 175.57 166.94 174.49 165.85 174.26 C 164.75 174.02 163.67 174.73 163.43 175.82 Z M 163.25 176.69 L 163.02 177.68 C 162.76 178.77 163.43 179.86 164.52 180.12 C 165.61 180.38 166.71 179.71 166.97 178.62 L 167.21 177.63 C 167.47 176.54 166.79 175.45 165.70 175.19 C 164.61 174.93 163.51 175.60 163.25 176.69 Z M 163.03 177.63 L 162.77 178.61 C 162.49 179.70 163.13 180.81 164.22 181.09 C 165.30 181.38 166.41 180.73 166.70 179.65 L 166.96 178.67 C 167.24 177.58 166.60 176.47 165.51 176.19 C 164.43 175.90 163.32 176.55 163.03 177.63 Z M 162.79 178.57 L 162.50 179.56 C 162.19 180.64 162.81 181.76 163.89 182.07 C 164.96 182.38 166.09 181.76 166.40 180.69 L 166.68 179.69 C 166.99 178.62 166.37 177.49 165.29 177.18 C 164.22 176.87 163.09 177.50 162.79 178.57 Z M 162.52 179.50 L 162.21 180.45 C 161.87 181.51 162.46 182.65 163.52 183.00 C 164.59 183.34 165.73 182.76 166.07 181.69 L 166.38 180.75 C 166.72 179.68 166.14 178.54 165.07 178.20 C 164.00 177.85 162.86 178.44 162.52 179.50 Z M 162.26 180.32 L 161.86 181.32 C 161.45 182.36 161.95 183.54 162.99 183.96 C 164.03 184.37 165.21 183.86 165.63 182.83 L 166.03 181.82 C 166.44 180.78 165.93 179.60 164.89 179.19 C 163.85 178.77 162.68 179.28 162.26 180.32 Z M 161.97 181.08 L 161.52 181.88 C 160.97 182.86 161.32 184.10 162.30 184.65 C 163.27 185.20 164.51 184.85 165.06 183.87 L 165.51 183.07 C 166.06 182.09 165.71 180.85 164.74 180.30 C 163.76 179.76 162.52 180.10 161.97 181.08 Z M 161.74 181.56 L 161.08 182.34 C 160.35 183.20 160.45 184.48 161.31 185.21 C 162.17 185.94 163.46 185.83 164.19 184.97 L 164.85 184.20 C 165.57 183.34 165.47 182.05 164.61 181.32 C 163.75 180.60 162.46 180.70 161.74 181.56 Z M 161.53 181.92 L 160.71 182.44 C 159.75 183.05 159.47 184.32 160.08 185.28 C 160.68 186.23 161.95 186.52 162.91 185.91 L 163.73 185.39 C 164.69 184.78 164.97 183.51 164.37 182.56 C 163.76 181.60 162.49 181.31 161.53 181.92 Z M 161.59 182.13 L 160.60 182.23 C 159.47 182.35 158.65 183.37 158.77 184.50 C 158.89 185.63 159.91 186.45 161.04 186.33 L 162.03 186.23 C 163.16 186.11 163.98 185.09 163.86 183.96 C 163.74 182.83 162.72 182.01 161.59 182.13 Z M 161.69 182.42 L 160.85 182.03 C 159.83 181.55 158.60 181.99 158.12 183.01 C 157.64 184.04 158.08 185.26 159.10 185.75 L 159.94 186.14 C 160.97 186.63 162.20 186.18 162.68 185.16 C 163.16 184.13 162.72 182.91 161.69 182.42 Z M 161.56 182.61 L 160.91 181.80 C 160.20 180.93 158.92 180.80 158.05 181.50 C 157.18 182.21 157.04 183.49 157.75 184.36 L 158.40 185.17 C 159.11 186.04 160.39 186.17 161.26 185.47 C 162.13 184.76 162.27 183.48 161.56 182.61 Z M 161.09 182.16 L 160.63 181.28 C 160.12 180.31 158.92 179.94 157.95 180.44 C 156.98 180.95 156.60 182.15 157.11 183.12 L 157.57 184.00 C 158.08 184.98 159.28 185.35 160.25 184.84 C 161.22 184.33 161.60 183.13 161.09 182.16 Z M 160.64 181.48 L 160.26 180.54 C 159.86 179.55 158.74 179.08 157.76 179.48 C 156.78 179.88 156.31 181.00 156.71 181.98 L 157.09 182.93 C 157.49 183.91 158.61 184.38 159.59 183.98 C 160.57 183.58 161.04 182.46 160.64 181.48 Z M 160.25 180.68 L 159.93 179.72 C 159.61 178.74 158.56 178.21 157.58 178.53 C 156.61 178.86 156.08 179.91 156.40 180.88 L 156.72 181.84 C 157.04 182.82 158.09 183.35 159.07 183.03 C 160.04 182.70 160.57 181.65 160.25 180.68 Z M 159.91 179.79 L 159.75 179.25 C 159.46 178.29 158.45 177.74 157.49 178.02 C 156.53 178.31 155.98 179.32 156.27 180.28 L 156.43 180.82 C 156.71 181.78 157.72 182.33 158.68 182.04 C 159.64 181.76 160.19 180.75 159.91 179.79 Z"
      fill="black"
      fill-rule="nonzero" /></svg>