<svg xmlns="http://www.w3.org/2000/svg" width="300" height="300" viewBox="0 0 300 300">
<path d="M 135.26 120.71 L 136.13 120.30 C 137.13 119.84 137.56 118.66 137.10 117.67 C 136.64 116.67 135.46 116.24 134.46 116.70 L 133.59 117.10 C 132.60 117.56 132.16 118.74 132.62 119.74 C 133.08 120.74 134.26 121.17 135.26 120.71 Z M 135.89 120.52 L 136.88 120.23 C 137.99 119.90 138.63 118.74 138.31 117.62 C 137.98 116.51 136.81 115.87 135.69 116.19 L 134.70 116.48 C 133.59 116.81 132.95 117.98 133.28 119.09 C 133.60 120.21 134.77 120.85 135.89 120.52 Z M 136.54 120.36 L 137.55 120.24 C 138.74 120.10 139.58 119.02 139.44 117.83 C 139.30 116.65 138.22 115.80 137.04 115.95 L 136.03 116.07 C 134.84 116.21 134.00 117.28 134.14 118.47 C 134.28 119.65 135.36 120.50 136.54 120.36 Z M 137.41 120.26 L 138.41 120.20 C 139.60 120.14 140.52 119.11 140.45 117.92 C 140.39 116.72 139.36 115.81 138.17 115.87 L 137.17 115.93 C 135.98 115.99 135.06 117.01 135.13 118.21 C 135.19 119.40 136.22 120.32 137.41 120.26 Z M 138.42 120.20 L 139.46 120.14 C 140.65 120.06 141.56 119.03 141.49 117.84 C 141.41 116.64 140.38 115.73 139.19 115.81 L 138.15 115.87 C 136.96 115.95 136.05 116.98 136.12 118.17 C 136.20 119.37 137.23 120.28 138.42 120.20 Z M 139.52 120.13 L 140.46 120.05 C 141.65 119.94 142.53 118.88 142.42 117.69 C 142.31 116.50 141.26 115.62 140.06 115.73 L 139.13 115.81 C 137.93 115.92 137.05 116.98 137.16 118.17 C 137.27 119.36 138.33 120.24 139.52 120.13 Z M 140.49 120.04 L 141.46 119.94 C 142.65 119.81 143.51 118.74 143.39 117.55 C 143.26 116.36 142.19 115.50 141.00 115.63 L 140.03 115.73 C 138.84 115.86 137.98 116.93 138.10 118.12 C 138.23 119.31 139.30 120.17 140.49 120.04 Z M 141.48 119.93 L 142.49 119.81 C 143.68 119.68 144.53 118.60 144.39 117.42 C 144.25 116.23 143.18 115.38 141.99 115.52 L 140.98 115.63 C 139.79 115.77 138.94 116.85 139.08 118.03 C 139.22 119.22 140.29 120.07 141.48 119.93 Z M 142.50 119.80 L 143.49 119.68 C 144.67 119.54 145.51 118.47 145.36 117.29 C 145.22 116.11 144.15 115.26 142.97 115.41 L 141.98 115.53 C 140.80 115.67 139.96 116.74 140.10 117.92 C 140.25 119.11 141.32 119.95 142.50 119.80 Z M 143.50 119.67 L 144.51 119.54 C 145.69 119.39 146.52 118.31 146.36 117.14 C 146.21 115.97 145.14 115.14 143.97 115.29 L 142.95 115.42 C 141.78 115.57 140.95 116.65 141.10 117.82 C 141.25 118.99 142.33 119.82 143.50 119.67 Z M 144.53 119.52 L 145.51 119.39 C 146.67 119.23 147.49 118.16 147.33 116.99 C 147.17 115.83 146.10 115.02 144.93 115.17 L 143.95 115.31 C 142.79 115.47 141.97 116.54 142.13 117.70 C 142.29 118.87 143.36 119.68 144.53 119.52 Z M 145.51 119.38 L 146.52 119.24 C 147.67 119.08 148.48 118.01 148.32 116.85 C 148.16 115.69 147.09 114.89 145.93 115.05 L 144.93 115.19 C 143.77 115.35 142.96 116.42 143.13 117.57 C 143.29 118.73 144.36 119.54 145.51 119.38 Z M 146.52 119.22 L 147.49 119.09 C 148.64 118.93 149.44 117.87 149.28 116.72 C 149.12 115.57 148.06 114.76 146.91 114.92 L 145.94 115.06 C 144.79 115.22 143.98 116.28 144.14 117.43 C 144.30 118.58 145.37 119.38 146.52 119.22 Z M 147.49 119.07 L 148.48 118.93 C 149.62 118.77 150.42 117.72 150.26 116.58 C 150.10 115.44 149.05 114.64 147.90 114.80 L 146.91 114.94 C 145.77 115.10 144.97 116.15 145.13 117.30 C 145.29 118.44 146.35 119.23 147.49 119.07 Z M 148.48 118.92 L 149.48 118.78 C 150.62 118.62 151.40 117.57 151.24 116.43 C 151.08 115.30 150.03 114.51 148.90 114.67 L 147.90 114.82 C 146.77 114.98 145.98 116.03 146.14 117.16 C 146.30 118.29 147.35 119.08 148.48 118.92 Z M 149.48 118.76 L 150.47 118.62 C 151.59 118.46 152.37 117.42 152.21 116.30 C 152.06 115.17 151.01 114.39 149.89 114.55 L 148.90 114.69 C 147.78 114.85 147.00 115.89 147.16 117.01 C 147.32 118.14 148.36 118.92 149.48 118.76 Z M 150.45 118.61 L 151.45 118.47 C 152.57 118.32 153.35 117.29 153.20 116.18 C 153.05 115.06 152.02 114.28 150.91 114.43 L 149.91 114.56 C 148.79 114.72 148.01 115.74 148.16 116.86 C 148.31 117.97 149.34 118.76 150.45 118.61 Z M 151.42 118.46 L 152.42 118.33 C 153.53 118.20 154.32 117.19 154.18 116.08 C 154.05 114.98 153.04 114.19 151.93 114.32 L 150.93 114.44 C 149.83 114.58 149.04 115.59 149.17 116.69 C 149.31 117.80 150.31 118.59 151.42 118.46 Z M 152.40 118.32 L 153.39 118.21 C 154.49 118.09 155.28 117.10 155.16 116.00 C 155.04 114.90 154.05 114.11 152.95 114.23 L 151.96 114.34 C 150.86 114.46 150.07 115.45 150.19 116.55 C 150.31 117.65 151.30 118.44 152.40 118.32 Z M 153.38 118.19 L 154.37 118.08 C 155.45 117.97 156.24 117.00 156.13 115.91 C 156.02 114.82 155.04 114.03 153.96 114.15 L 152.97 114.25 C 151.88 114.36 151.09 115.34 151.20 116.42 C 151.32 117.51 152.29 118.30 153.38 118.19 Z M 154.36 118.06 L 155.36 117.96 C 156.43 117.85 157.22 116.89 157.10 115.81 C 156.99 114.74 156.03 113.95 154.96 114.06 L 153.96 114.17 C 152.89 114.28 152.10 115.24 152.21 116.32 C 152.32 117.39 153.29 118.18 154.36 118.06 Z M 155.35 117.94 L 156.35 117.84 C 157.41 117.73 158.19 116.78 158.08 115.72 C 157.97 114.65 157.02 113.87 155.95 113.98 L 154.96 114.08 C 153.89 114.19 153.12 115.14 153.23 116.21 C 153.33 117.28 154.29 118.05 155.35 117.94 Z M 156.34 117.82 L 157.36 117.72 C 158.41 117.61 159.18 116.67 159.08 115.62 C 158.97 114.56 158.03 113.79 156.97 113.90 L 155.96 114.00 C 154.90 114.11 154.13 115.05 154.24 116.10 C 154.35 117.16 155.29 117.93 156.34 117.82 Z M 157.35 117.70 L 158.36 117.60 C 159.40 117.50 160.17 116.58 160.07 115.53 C 159.97 114.49 159.05 113.72 158.00 113.82 L 156.99 113.92 C 155.94 114.02 155.18 114.95 155.28 115.99 C 155.37 117.03 156.30 117.80 157.35 117.70 Z M 158.33 117.59 L 159.29 117.51 C 160.32 117.42 161.09 116.52 161.01 115.48 C 160.93 114.45 160.02 113.68 158.99 113.76 L 158.03 113.84 C 157.00 113.93 156.23 114.83 156.31 115.87 C 156.39 116.90 157.30 117.67 158.33 117.59 Z M 159.24 117.49 L 160.30 117.43 C 161.33 117.38 162.11 116.50 162.06 115.48 C 162.00 114.45 161.12 113.66 160.10 113.72 L 159.04 113.78 C 158.01 113.84 157.22 114.71 157.28 115.74 C 157.34 116.76 158.22 117.55 159.24 117.49 Z M 160.25 117.42 L 161.19 117.40 C 162.21 117.37 163.02 116.52 162.99 115.50 C 162.96 114.48 162.11 113.68 161.09 113.70 L 160.15 113.73 C 159.13 113.76 158.32 114.61 158.35 115.63 C 158.38 116.65 159.23 117.45 160.25 117.42 Z M 161.16 117.39 L 162.13 117.38 C 163.14 117.37 163.96 116.54 163.95 115.52 C 163.94 114.51 163.11 113.70 162.09 113.71 L 161.12 113.72 C 160.11 113.73 159.30 114.56 159.31 115.57 C 159.32 116.58 160.15 117.40 161.16 117.39 Z M 162.11 117.37 L 163.14 117.37 C 164.14 117.37 164.96 116.55 164.96 115.54 C 164.96 114.53 164.14 113.71 163.13 113.71 L 162.11 113.71 C 161.10 113.72 160.28 114.53 160.28 115.54 C 160.29 116.55 161.10 117.37 162.11 117.37 Z M 163.10 117.36 L 164.12 117.38 C 165.13 117.40 165.96 116.60 165.97 115.59 C 165.99 114.59 165.19 113.76 164.19 113.74 L 163.17 113.72 C 162.16 113.70 161.33 114.50 161.31 115.51 C 161.30 116.51 162.10 117.34 163.10 117.36 Z M 163.95 117.36 L 164.94 117.47 C 165.93 117.59 166.83 116.87 166.94 115.88 C 167.06 114.88 166.34 113.98 165.35 113.87 L 164.36 113.76 C 163.37 113.64 162.47 114.36 162.35 115.35 C 162.24 116.35 162.96 117.25 163.95 117.36 Z M 164.34 117.29 L 165.28 117.75 C 166.18 118.19 167.26 117.83 167.70 116.93 C 168.14 116.04 167.77 114.95 166.88 114.51 L 165.94 114.05 C 165.04 113.61 163.96 113.98 163.52 114.87 C 163.08 115.77 163.45 116.85 164.34 117.29 Z M 164.35 115.64 L 164.15 116.33 C 163.88 117.29 164.43 118.28 165.38 118.56 C 166.34 118.83 167.34 118.28 167.61 117.32 L 167.81 116.63 C 168.09 115.67 167.53 114.68 166.58 114.40 C 165.62 114.13 164.62 114.68 164.35 115.64 Z M 164.66 115.50 L 164.05 116.07 C 163.32 116.74 163.27 117.88 163.95 118.61 C 164.62 119.34 165.76 119.39 166.49 118.71 L 167.10 118.15 C 167.83 117.47 167.88 116.33 167.20 115.60 C 166.53 114.87 165.39 114.83 164.66 115.50 Z"
      fill="black"
      fill-rule="nonzero" /><path d="M 115.21 129.20 L 114.48 129.95 C 113.76 130.69 113.78 131.87 114.52 132.59 C 115.26 133.31 116.44 133.29 117.16 132.55 L 117.89 131.81 C 118.61 131.07 118.59 129.88 117.85 129.16 C 117.11 128.44 115.92 128.46 115.21 129.20 Z M 114.01 130.41 L 113.62 131.26 C 113.15 132.26 113.59 133.45 114.59 133.91 C 115.59 134.38 116.78 133.94 117.24 132.94 L 117.64 132.09 C 118.10 131.09 117.66 129.90 116.66 129.44 C 115.66 128.97 114.47 129.41 114.01 130.41 Z M 113.35 132.44 L 113.51 133.42 C 113.70 134.57 114.78 135.35 115.94 135.15 C 117.09 134.96 117.86 133.88 117.67 132.73 L 117.51 131.75 C 117.32 130.60 116.23 129.83 115.08 130.02 C 113.93 130.21 113.15 131.29 113.35 132.44 Z M 113.81 134.32 L 114.35 135.10 C 115.05 136.09 116.41 136.33 117.39 135.64 C 118.38 134.94 118.61 133.58 117.92 132.60 L 117.37 131.82 C 116.68 130.83 115.32 130.60 114.34 131.29 C 113.35 131.98 113.11 133.34 113.81 134.32 Z M 114.70 135.52 L 115.49 136.20 C 116.41 136.99 117.80 136.89 118.60 135.97 C 119.39 135.05 119.28 133.66 118.36 132.86 L 117.57 132.18 C 116.65 131.39 115.26 131.50 114.47 132.42 C 113.68 133.34 113.78 134.73 114.70 135.52 Z M 115.61 136.30 L 116.30 136.81 C 117.28 137.54 118.66 137.34 119.38 136.36 C 120.11 135.39 119.91 134.01 118.94 133.28 L 118.24 132.77 C 117.27 132.04 115.89 132.24 115.16 133.21 C 114.44 134.19 114.64 135.57 115.61 136.30 Z M 116.36 136.84 L 117.19 137.43 C 118.19 138.13 119.56 137.89 120.25 136.90 C 120.95 135.90 120.71 134.54 119.72 133.84 L 118.88 133.25 C 117.89 132.55 116.52 132.79 115.82 133.79 C 115.12 134.78 115.36 136.15 116.36 136.84 Z M 117.24 137.45 L 118.16 138.07 C 119.16 138.74 120.52 138.48 121.19 137.47 C 121.87 136.47 121.60 135.11 120.60 134.44 L 119.68 133.82 C 118.67 133.14 117.31 133.41 116.64 134.41 C 115.97 135.42 116.23 136.78 117.24 137.45 Z M 118.18 138.07 L 119.06 138.65 C 120.06 139.30 121.41 139.02 122.07 138.02 C 122.73 137.01 122.45 135.66 121.44 135.01 L 120.57 134.43 C 119.56 133.77 118.21 134.06 117.56 135.06 C 116.90 136.07 117.18 137.41 118.18 138.07 Z M 119.08 138.64 L 119.96 139.21 C 120.96 139.85 122.30 139.56 122.94 138.56 C 123.59 137.55 123.30 136.22 122.29 135.57 L 121.42 135.01 C 120.41 134.36 119.08 134.65 118.43 135.66 C 117.79 136.66 118.08 138.00 119.08 138.64 Z M 119.98 139.20 L 120.77 139.70 C 121.77 140.33 123.09 140.03 123.72 139.03 C 124.36 138.02 124.06 136.70 123.05 136.07 L 122.27 135.57 C 121.27 134.94 119.94 135.24 119.31 136.25 C 118.68 137.25 118.98 138.57 119.98 139.20 Z M 120.82 139.69 L 121.82 140.29 C 122.82 140.89 124.11 140.57 124.71 139.57 C 125.31 138.58 124.99 137.28 124.00 136.68 L 123.00 136.08 C 122.00 135.48 120.71 135.80 120.11 136.80 C 119.51 137.79 119.83 139.09 120.82 139.69 Z M 121.89 140.25 L 122.61 140.67 C 123.59 141.23 124.83 140.89 125.39 139.91 C 125.95 138.94 125.62 137.70 124.64 137.13 L 123.92 136.72 C 122.95 136.16 121.70 136.50 121.14 137.47 C 120.58 138.45 120.92 139.69 121.89 140.25 Z M 122.63 140.61 L 123.49 141.11 C 124.43 141.66 125.64 141.34 126.20 140.40 C 126.75 139.45 126.43 138.24 125.48 137.69 L 124.63 137.19 C 123.68 136.64 122.47 136.96 121.92 137.90 C 121.37 138.85 121.69 140.06 122.63 140.61 Z M 123.53 141.09 L 124.39 141.58 C 125.32 142.11 126.50 141.78 127.04 140.85 C 127.57 139.92 127.24 138.73 126.31 138.20 L 125.44 137.71 C 124.51 137.18 123.33 137.51 122.80 138.44 C 122.27 139.37 122.59 140.56 123.53 141.09 Z M 124.46 141.57 L 125.35 142.04 C 126.27 142.54 127.43 142.18 127.92 141.25 C 128.41 140.32 128.06 139.17 127.13 138.68 L 126.24 138.21 C 125.31 137.71 124.16 138.07 123.66 139.00 C 123.17 139.93 123.53 141.08 124.46 141.57 Z M 125.41 142.04 L 126.33 142.49 C 127.25 142.94 128.37 142.56 128.83 141.63 C 129.28 140.70 128.90 139.58 127.97 139.13 L 127.06 138.68 C 126.13 138.23 125.01 138.61 124.56 139.54 C 124.10 140.47 124.49 141.59 125.41 142.04 Z M 126.39 142.48 L 127.29 142.89 C 128.22 143.31 129.31 142.90 129.73 141.98 C 130.15 141.06 129.74 139.97 128.82 139.55 L 127.91 139.14 C 126.99 138.72 125.90 139.13 125.48 140.05 C 125.06 140.97 125.46 142.06 126.39 142.48 Z M 127.35 142.89 L 128.29 143.29 C 129.21 143.68 130.27 143.25 130.66 142.32 C 131.06 141.40 130.62 140.34 129.70 139.95 L 128.76 139.55 C 127.84 139.16 126.77 139.59 126.38 140.51 C 125.99 141.44 126.43 142.50 127.35 142.89 Z M 128.30 143.29 L 129.21 143.66 C 130.13 144.04 131.19 143.60 131.57 142.68 C 131.95 141.76 131.51 140.71 130.59 140.33 L 129.68 139.95 C 128.76 139.57 127.71 140.01 127.33 140.93 C 126.95 141.85 127.38 142.91 128.30 143.29 Z M 129.20 143.65 L 130.12 144.04 C 131.04 144.43 132.09 144.00 132.48 143.08 C 132.87 142.17 132.44 141.11 131.52 140.72 L 130.60 140.33 C 129.69 139.95 128.63 140.38 128.24 141.29 C 127.86 142.21 128.29 143.27 129.20 143.65 Z M 130.12 144.04 L 130.23 144.09 C 131.14 144.47 132.20 144.05 132.59 143.13 C 132.98 142.22 132.55 141.16 131.64 140.77 L 131.52 140.72 C 130.61 140.34 129.55 140.76 129.16 141.68 C 128.78 142.59 129.20 143.65 130.12 144.04 Z"
      fill="black"
      fill-rule="nonzero" /><path d="M 125.99 137.13 L 126.97 136.74 C 127.94 136.37 128.41 135.29 128.04 134.32 C 127.66 133.36 126.58 132.89 125.62 133.26 L 124.64 133.64 C 123.68 134.02 123.20 135.10 123.57 136.06 C 123.95 137.02 125.03 137.50 125.99 137.13 Z M 127.00 136.88 L 127.94 136.53 C 128.98 136.14 129.51 134.98 129.12 133.94 C 128.73 132.91 127.57 132.38 126.53 132.77 L 125.59 133.12 C 124.56 133.51 124.03 134.67 124.42 135.71 C 124.81 136.74 125.96 137.27 127.00 136.88 Z M 127.93 136.66 L 128.84 136.35 C 129.95 135.97 130.55 134.76 130.17 133.65 C 129.79 132.54 128.58 131.94 127.47 132.32 L 126.55 132.64 C 125.44 133.02 124.85 134.23 125.23 135.34 C 125.61 136.45 126.81 137.04 127.93 136.66 Z M 128.76 136.43 L 129.73 136.16 C 130.88 135.82 131.55 134.61 131.22 133.46 C 130.89 132.30 129.68 131.63 128.52 131.96 L 127.55 132.24 C 126.39 132.57 125.72 133.78 126.05 134.94 C 126.39 136.10 127.60 136.77 128.76 136.43 Z M 129.66 136.18 L 130.58 135.95 C 131.76 135.66 132.47 134.47 132.18 133.29 C 131.88 132.12 130.69 131.40 129.52 131.70 L 128.59 131.93 C 127.41 132.23 126.70 133.42 127.00 134.59 C 127.29 135.77 128.48 136.48 129.66 136.18 Z M 130.58 135.96 L 131.52 135.73 C 132.70 135.44 133.42 134.25 133.13 133.07 C 132.84 131.89 131.65 131.17 130.47 131.46 L 129.52 131.69 C 128.34 131.98 127.62 133.17 127.91 134.35 C 128.20 135.53 129.40 136.25 130.58 135.96 Z M 131.52 135.74 L 132.52 135.49 C 133.70 135.20 134.43 134.01 134.14 132.82 C 133.85 131.64 132.65 130.92 131.47 131.21 L 130.47 131.45 C 129.28 131.74 128.56 132.93 128.85 134.12 C 129.14 135.30 130.33 136.03 131.52 135.74 Z M 132.51 135.50 L 133.45 135.27 C 134.63 134.98 135.36 133.79 135.07 132.60 C 134.79 131.42 133.59 130.69 132.41 130.97 L 131.47 131.20 C 130.29 131.49 129.56 132.68 129.85 133.87 C 130.13 135.05 131.33 135.78 132.51 135.50 Z M 133.44 135.28 L 134.41 135.05 C 135.60 134.76 136.34 133.57 136.06 132.38 C 135.78 131.19 134.58 130.46 133.39 130.74 L 132.42 130.97 C 131.23 131.25 130.49 132.44 130.77 133.63 C 131.05 134.82 132.25 135.56 133.44 135.28 Z M 134.40 135.05 L 135.40 134.82 C 136.60 134.55 137.34 133.36 137.07 132.17 C 136.79 130.97 135.60 130.23 134.41 130.50 L 133.41 130.73 C 132.21 131.00 131.47 132.19 131.74 133.39 C 132.01 134.58 133.20 135.33 134.40 135.05 Z M 135.39 134.83 L 136.35 134.62 C 137.55 134.35 138.30 133.16 138.04 131.97 C 137.77 130.77 136.58 130.01 135.39 130.28 L 134.42 130.49 C 133.23 130.76 132.47 131.95 132.74 133.14 C 133.00 134.34 134.19 135.10 135.39 134.83 Z M 136.34 134.62 L 137.33 134.41 C 138.53 134.15 139.30 132.96 139.04 131.76 C 138.78 130.56 137.59 129.80 136.39 130.06 L 135.40 130.27 C 134.20 130.53 133.43 131.72 133.69 132.92 C 133.95 134.12 135.14 134.88 136.34 134.62 Z M 137.32 134.41 L 138.32 134.20 C 139.52 133.95 140.29 132.76 140.04 131.56 C 139.78 130.36 138.60 129.59 137.40 129.84 L 136.40 130.05 C 135.20 130.31 134.43 131.49 134.68 132.69 C 134.94 133.90 136.12 134.67 137.32 134.41 Z M 138.31 134.20 L 139.29 134.00 C 140.50 133.75 141.27 132.57 141.02 131.37 C 140.77 130.16 139.59 129.39 138.39 129.64 L 137.41 129.84 C 136.20 130.09 135.43 131.27 135.68 132.47 C 135.93 133.68 137.11 134.45 138.31 134.20 Z M 139.29 134.00 L 140.26 133.80 C 141.46 133.55 142.24 132.37 141.99 131.17 C 141.75 129.97 140.57 129.19 139.37 129.44 L 138.40 129.64 C 137.19 129.89 136.42 131.06 136.66 132.26 C 136.91 133.47 138.09 134.24 139.29 134.00 Z M 140.26 133.79 L 141.24 133.59 C 142.44 133.35 143.21 132.17 142.96 130.97 C 142.72 129.77 141.55 129.00 140.35 129.24 L 139.37 129.44 C 138.17 129.69 137.40 130.86 137.64 132.06 C 137.89 133.26 139.06 134.04 140.26 133.79 Z M 141.23 133.59 L 142.21 133.39 C 143.41 133.15 144.19 131.98 143.94 130.78 C 143.70 129.58 142.53 128.80 141.33 129.05 L 140.35 129.25 C 139.15 129.49 138.38 130.66 138.62 131.86 C 138.86 133.06 140.03 133.83 141.23 133.59 Z M 142.20 133.39 L 143.18 133.20 C 144.38 132.96 145.16 131.80 144.92 130.60 C 144.69 129.40 143.53 128.62 142.33 128.86 L 141.35 129.05 C 140.15 129.28 139.37 130.45 139.60 131.64 C 139.84 132.84 141.00 133.62 142.20 133.39 Z M 143.15 133.20 L 144.14 133.02 C 145.33 132.80 146.13 131.65 145.91 130.45 C 145.69 129.25 144.54 128.46 143.34 128.68 L 142.36 128.86 C 141.16 129.07 140.36 130.22 140.58 131.42 C 140.80 132.62 141.95 133.42 143.15 133.20 Z M 144.10 133.02 L 145.09 132.85 C 146.29 132.65 147.10 131.52 146.90 130.32 C 146.70 129.12 145.57 128.31 144.37 128.51 L 143.38 128.68 C 142.18 128.88 141.37 130.01 141.57 131.21 C 141.77 132.41 142.90 133.22 144.10 133.02 Z M 145.07 132.85 L 146.06 132.70 C 147.25 132.51 148.07 131.39 147.88 130.19 C 147.70 128.99 146.58 128.17 145.38 128.36 L 144.39 128.51 C 143.20 128.70 142.38 129.82 142.56 131.02 C 142.75 132.22 143.87 133.04 145.07 132.85 Z M 146.04 132.69 L 147.03 132.54 C 148.22 132.36 149.05 131.25 148.87 130.06 C 148.69 128.86 147.58 128.04 146.38 128.22 L 145.39 128.36 C 144.20 128.54 143.38 129.66 143.55 130.85 C 143.73 132.05 144.85 132.87 146.04 132.69 Z M 147.02 132.54 L 148.01 132.39 C 149.20 132.22 150.03 131.12 149.86 129.93 C 149.69 128.74 148.58 127.91 147.39 128.08 L 146.40 128.22 C 145.20 128.39 144.38 129.50 144.55 130.69 C 144.72 131.88 145.82 132.71 147.02 132.54 Z M 147.98 132.39 L 148.97 132.26 C 150.16 132.10 150.99 131.01 150.84 129.82 C 150.68 128.63 149.59 127.80 148.40 127.95 L 147.41 128.08 C 146.22 128.24 145.39 129.33 145.55 130.52 C 145.70 131.71 146.80 132.55 147.98 132.39 Z M 148.94 132.25 L 149.92 132.14 C 151.10 132.00 151.95 130.93 151.81 129.74 C 151.67 128.55 150.60 127.70 149.41 127.84 L 148.43 127.96 C 147.25 128.10 146.40 129.17 146.54 130.36 C 146.68 131.54 147.75 132.39 148.94 132.25 Z M 149.89 132.13 L 150.87 132.03 C 152.06 131.91 152.91 130.85 152.79 129.67 C 152.67 128.49 151.61 127.63 150.43 127.75 L 149.45 127.85 C 148.26 127.97 147.40 129.03 147.53 130.21 C 147.65 131.39 148.70 132.25 149.89 132.13 Z M 150.85 132.02 L 151.86 131.92 C 153.04 131.81 153.90 130.77 153.79 129.60 C 153.68 128.42 152.64 127.56 151.46 127.67 L 150.45 127.76 C 149.28 127.87 148.41 128.91 148.52 130.09 C 148.63 131.27 149.68 132.13 150.85 132.02 Z M 151.85 131.91 L 152.87 131.82 C 154.03 131.71 154.90 130.68 154.79 129.52 C 154.69 128.35 153.66 127.49 152.49 127.59 L 151.47 127.68 C 150.30 127.78 149.44 128.82 149.54 129.98 C 149.65 131.15 150.68 132.01 151.85 131.91 Z M 152.85 131.80 L 153.86 131.72 C 155.02 131.62 155.88 130.61 155.79 129.45 C 155.69 128.29 154.67 127.43 153.51 127.52 L 152.50 127.61 C 151.34 127.70 150.48 128.72 150.58 129.88 C 150.67 131.04 151.69 131.90 152.85 131.80 Z M 153.84 131.70 L 154.80 131.63 C 155.95 131.55 156.82 130.56 156.74 129.41 C 156.66 128.26 155.66 127.39 154.51 127.47 L 153.54 127.54 C 152.39 127.62 151.53 128.62 151.61 129.77 C 151.69 130.92 152.69 131.78 153.84 131.70 Z M 154.76 131.63 L 155.81 131.57 C 156.96 131.52 157.84 130.54 157.78 129.40 C 157.72 128.25 156.75 127.37 155.60 127.43 L 154.55 127.48 C 153.41 127.54 152.53 128.51 152.58 129.66 C 152.64 130.80 153.62 131.68 154.76 131.63 Z M 155.77 131.57 L 156.74 131.55 C 157.89 131.51 158.79 130.56 158.76 129.41 C 158.72 128.27 157.77 127.36 156.62 127.40 L 155.65 127.43 C 154.50 127.46 153.60 128.41 153.63 129.56 C 153.67 130.71 154.62 131.61 155.77 131.57 Z M 156.71 131.55 L 157.69 131.53 C 158.83 131.52 159.75 130.58 159.73 129.43 C 159.72 128.28 158.78 127.37 157.63 127.38 L 156.65 127.40 C 155.51 127.41 154.59 128.35 154.61 129.50 C 154.62 130.64 155.56 131.56 156.71 131.55 Z M 157.67 131.53 L 158.67 131.53 C 159.81 131.52 160.74 130.59 160.73 129.44 C 160.73 128.30 159.80 127.38 158.65 127.38 L 157.65 127.38 C 156.51 127.39 155.58 128.32 155.59 129.47 C 155.59 130.61 156.52 131.54 157.67 131.53 Z M 158.66 131.52 L 159.66 131.52 C 160.80 131.52 161.73 130.60 161.73 129.45 C 161.73 128.31 160.80 127.38 159.66 127.38 L 158.66 127.38 C 157.51 127.38 156.59 128.31 156.59 129.45 C 156.59 130.60 157.52 131.52 158.66 131.52 Z M 159.66 131.52 L 160.66 131.52 C 161.80 131.52 162.73 130.59 162.73 129.45 C 162.73 128.31 161.80 127.39 160.66 127.39 L 159.66 127.39 C 158.52 127.39 157.59 128.31 157.59 129.45 C 157.59 130.59 158.52 131.52 159.66 131.52 Z M 160.66 131.50 L 161.66 131.50 C 162.79 131.50 163.71 130.59 163.71 129.45 C 163.71 128.32 162.79 127.40 161.66 127.40 L 160.66 127.40 C 159.53 127.40 158.61 128.32 158.61 129.45 C 158.61 130.59 159.53 131.50 160.66 131.50 Z M 161.66 131.49 L 162.67 131.49 C 163.80 131.50 164.71 130.59 164.71 129.46 C 164.72 128.33 163.81 127.42 162.68 127.42 L 161.66 127.42 C 160.54 127.41 159.63 128.32 159.62 129.45 C 159.62 130.57 160.53 131.49 161.66 131.49 Z M 162.65 131.48 L 163.63 131.49 C 164.75 131.50 165.66 130.61 165.68 129.49 C 165.69 128.37 164.80 127.46 163.68 127.44 L 162.70 127.43 C 161.58 127.42 160.67 128.31 160.65 129.43 C 160.64 130.55 161.53 131.47 162.65 131.48 Z M 163.58 131.48 L 164.58 131.51 C 165.69 131.55 166.62 130.69 166.66 129.58 C 166.70 128.47 165.83 127.53 164.72 127.49 L 163.73 127.46 C 162.62 127.42 161.69 128.29 161.65 129.39 C 161.61 130.50 162.47 131.44 163.58 131.48 Z M 164.49 131.49 L 165.47 131.57 C 166.57 131.66 167.53 130.84 167.62 129.74 C 167.70 128.64 166.88 127.68 165.78 127.59 L 164.81 127.51 C 163.71 127.43 162.75 128.25 162.66 129.35 C 162.57 130.45 163.39 131.41 164.49 131.49 Z M 165.37 131.55 L 166.34 131.68 C 167.43 131.82 168.43 131.05 168.57 129.97 C 168.71 128.88 167.95 127.88 166.86 127.74 L 165.89 127.61 C 164.80 127.47 163.80 128.24 163.66 129.32 C 163.52 130.41 164.28 131.41 165.37 131.55 Z M 166.24 131.65 L 167.26 131.83 C 168.33 132.03 169.35 131.33 169.55 130.26 C 169.75 129.19 169.05 128.16 167.98 127.96 L 166.96 127.77 C 165.89 127.57 164.86 128.28 164.66 129.35 C 164.46 130.42 165.17 131.45 166.24 131.65 Z M 167.17 131.80 L 168.16 132.03 C 169.21 132.28 170.26 131.62 170.50 130.57 C 170.75 129.52 170.10 128.47 169.04 128.22 L 168.06 127.99 C 167.01 127.75 165.96 128.40 165.71 129.45 C 165.47 130.51 166.12 131.56 167.17 131.80 Z M 168.08 132.00 L 169.05 132.26 C 170.08 132.55 171.15 131.94 171.43 130.91 C 171.72 129.87 171.11 128.81 170.08 128.52 L 169.11 128.26 C 168.08 127.97 167.01 128.58 166.73 129.61 C 166.45 130.64 167.05 131.71 168.08 132.00 Z M 168.97 132.22 L 169.95 132.54 C 170.96 132.87 172.05 132.32 172.38 131.31 C 172.71 130.30 172.16 129.21 171.14 128.88 L 170.16 128.56 C 169.15 128.23 168.06 128.78 167.73 129.80 C 167.40 130.81 167.95 131.90 168.97 132.22 Z M 169.86 132.50 L 170.76 132.85 C 171.75 133.23 172.86 132.73 173.24 131.75 C 173.62 130.76 173.12 129.65 172.13 129.27 L 171.24 128.92 C 170.25 128.54 169.14 129.03 168.76 130.02 C 168.38 131.01 168.87 132.12 169.86 132.50 Z M 170.65 132.79 L 171.58 133.22 C 172.54 133.66 173.67 133.24 174.11 132.28 C 174.55 131.33 174.13 130.19 173.18 129.75 L 172.24 129.32 C 171.29 128.88 170.15 129.30 169.71 130.26 C 169.27 131.22 169.69 132.35 170.65 132.79 Z M 171.37 133.10 L 172.20 133.62 C 173.09 134.18 174.27 133.90 174.82 133.01 C 175.38 132.12 175.11 130.95 174.22 130.39 L 173.39 129.87 C 172.49 129.32 171.32 129.59 170.77 130.48 C 170.21 131.37 170.48 132.54 171.37 133.10 Z M 171.82 133.32 L 172.51 134.04 C 173.23 134.80 174.44 134.84 175.20 134.11 C 175.97 133.39 176.00 132.18 175.28 131.42 L 174.60 130.69 C 173.87 129.93 172.66 129.90 171.90 130.62 C 171.13 131.35 171.10 132.55 171.82 133.32 Z M 172.05 133.36 L 172.37 134.27 C 172.72 135.29 173.83 135.83 174.84 135.48 C 175.86 135.13 176.40 134.02 176.05 133.00 L 175.73 132.09 C 175.38 131.07 174.27 130.54 173.26 130.89 C 172.24 131.24 171.70 132.35 172.05 133.36 Z M 172.21 133.39 L 172.08 134.39 C 171.94 135.50 172.73 136.50 173.84 136.64 C 174.94 136.78 175.95 135.99 176.09 134.89 L 176.21 133.89 C 176.35 132.78 175.56 131.77 174.46 131.64 C 173.35 131.50 172.34 132.28 172.21 133.39 Z M 172.31 133.57 L 171.83 134.38 C 171.24 135.36 171.56 136.63 172.54 137.22 C 173.52 137.80 174.79 137.49 175.38 136.50 L 175.86 135.70 C 176.45 134.72 176.13 133.45 175.15 132.86 C 174.17 132.27 172.90 132.59 172.31 133.57 Z M 172.09 134.00 L 171.36 134.77 C 170.56 135.61 170.60 136.93 171.44 137.73 C 172.28 138.52 173.60 138.48 174.39 137.65 L 175.12 136.88 C 175.91 136.04 175.88 134.72 175.04 133.92 C 174.20 133.13 172.88 133.16 172.09 134.00 Z M 171.46 134.66 L 170.74 135.31 C 169.89 136.09 169.82 137.42 170.60 138.27 C 171.39 139.13 172.71 139.19 173.57 138.41 L 174.29 137.76 C 175.15 136.98 175.21 135.65 174.43 134.79 C 173.65 133.94 172.32 133.87 171.46 134.66 Z M 170.81 135.25 L 170.03 135.91 C 169.14 136.66 169.03 137.98 169.77 138.87 C 170.52 139.75 171.84 139.87 172.73 139.12 L 173.51 138.47 C 174.40 137.72 174.51 136.40 173.76 135.51 C 173.02 134.62 171.69 134.51 170.81 135.25 Z M 170.08 135.87 L 169.32 136.47 C 168.42 137.19 168.26 138.50 168.97 139.41 C 169.69 140.32 171.00 140.47 171.91 139.76 L 172.67 139.16 C 173.58 138.45 173.73 137.13 173.02 136.22 C 172.31 135.32 170.99 135.16 170.08 135.87 Z M 169.37 136.46 L 168.59 137.05 C 167.67 137.74 167.49 139.04 168.18 139.95 C 168.87 140.87 170.17 141.05 171.09 140.36 L 171.87 139.77 C 172.78 139.08 172.96 137.78 172.27 136.87 C 171.58 135.95 170.28 135.77 169.37 136.46 Z M 168.61 137.06 L 167.75 137.70 C 166.85 138.37 166.66 139.66 167.34 140.57 C 168.02 141.48 169.31 141.67 170.22 140.99 L 171.07 140.35 C 171.98 139.67 172.16 138.38 171.48 137.47 C 170.80 136.56 169.52 136.38 168.61 137.06 Z M 167.76 137.72 L 166.97 138.31 C 166.08 138.99 165.90 140.26 166.57 141.16 C 167.25 142.06 168.52 142.24 169.42 141.56 L 170.21 140.97 C 171.11 140.29 171.28 139.01 170.61 138.12 C 169.93 137.22 168.66 137.04 167.76 137.72 Z M 166.99 138.33 L 166.17 138.95 C 165.28 139.62 165.11 140.88 165.78 141.76 C 166.44 142.65 167.70 142.82 168.59 142.16 L 169.41 141.54 C 170.29 140.87 170.47 139.61 169.80 138.73 C 169.13 137.84 167.87 137.66 166.99 138.33 Z M 166.19 138.96 L 165.39 139.56 C 164.52 140.21 164.34 141.46 164.99 142.33 C 165.65 143.21 166.89 143.39 167.77 142.74 L 168.57 142.14 C 169.44 141.49 169.62 140.24 168.97 139.37 C 168.31 138.49 167.07 138.31 166.19 138.96 Z M 165.43 139.57 L 164.56 140.21 C 163.69 140.85 163.50 142.07 164.13 142.94 C 164.77 143.81 165.99 144.00 166.86 143.36 L 167.73 142.72 C 168.60 142.09 168.79 140.87 168.16 140.00 C 167.52 139.13 166.30 138.94 165.43 139.57 Z M 164.61 140.23 L 163.81 140.79 C 162.94 141.40 162.74 142.59 163.34 143.45 C 163.95 144.31 165.14 144.52 166.00 143.91 L 166.80 143.35 C 167.67 142.74 167.87 141.55 167.27 140.69 C 166.66 139.83 165.47 139.62 164.61 140.23 Z M 163.86 140.80 L 163.07 141.33 C 162.22 141.90 161.99 143.06 162.56 143.92 C 163.14 144.78 164.30 145.01 165.15 144.43 L 165.94 143.90 C 166.80 143.33 167.03 142.17 166.45 141.31 C 165.88 140.45 164.72 140.23 163.86 140.80 Z M 163.13 141.33 L 162.28 141.87 C 161.42 142.42 161.17 143.55 161.72 144.41 C 162.26 145.26 163.39 145.51 164.25 144.97 L 165.10 144.43 C 165.95 143.89 166.21 142.75 165.66 141.90 C 165.12 141.04 163.99 140.79 163.13 141.33 Z M 162.31 141.88 L 161.67 142.28 C 160.82 142.80 160.55 143.92 161.08 144.77 C 161.61 145.62 162.72 145.88 163.57 145.36 L 164.22 144.96 C 165.07 144.44 165.33 143.32 164.81 142.47 C 164.28 141.62 163.16 141.35 162.31 141.88 Z"
      fill="black"
      fill-rule="nonzero" /><path d="M 148.25 116.55 L 147.94 117.47 C 147.62 118.45 148.16 119.50 149.13 119.82 C 150.11 120.14 151.17 119.61 151.49 118.63 L 151.79 117.71 C 152.11 116.73 151.58 115.68 150.60 115.36 C 149.62 115.04 148.57 115.57 148.25 116.55 Z M 147.78 117.55 L 147.53 118.53 C 147.26 119.59 147.90 120.68 148.97 120.96 C 150.03 121.23 151.12 120.59 151.40 119.52 L 151.65 118.55 C 151.92 117.48 151.28 116.39 150.21 116.12 C 149.15 115.84 148.06 116.49 147.78 117.55 Z M 147.40 118.73 L 147.25 119.75 C 147.08 120.89 147.88 121.95 149.02 122.12 C 150.16 122.28 151.22 121.49 151.38 120.35 L 151.53 119.32 C 151.70 118.18 150.90 117.12 149.76 116.96 C 148.62 116.79 147.56 117.58 147.40 118.73 Z M 147.20 119.91 L 147.13 120.95 C 147.06 122.11 147.95 123.12 149.12 123.20 C 150.29 123.27 151.29 122.38 151.37 121.21 L 151.43 120.18 C 151.51 119.01 150.62 118.01 149.45 117.93 C 148.28 117.86 147.27 118.75 147.20 119.91 Z M 147.12 121.01 L 147.09 121.98 C 147.05 123.16 147.98 124.14 149.16 124.18 C 150.33 124.21 151.32 123.29 151.35 122.11 L 151.38 121.15 C 151.42 119.97 150.49 118.98 149.32 118.95 C 148.14 118.91 147.15 119.84 147.12 121.01 Z M 147.08 121.97 L 147.05 123.03 C 147.01 124.21 147.93 125.20 149.12 125.24 C 150.30 125.28 151.29 124.35 151.33 123.17 L 151.36 122.12 C 151.40 120.93 150.47 119.94 149.29 119.90 C 148.11 119.87 147.12 120.79 147.08 121.97 Z M 147.04 123.04 L 147.01 123.97 C 146.98 125.15 147.92 126.14 149.10 126.17 C 150.29 126.20 151.28 125.27 151.31 124.08 L 151.33 123.16 C 151.36 121.97 150.43 120.99 149.24 120.95 C 148.06 120.92 147.07 121.86 147.04 123.04 Z M 147.01 124.01 L 147.00 125.00 C 146.99 126.19 147.95 127.16 149.14 127.17 C 150.33 127.18 151.30 126.22 151.30 125.04 L 151.31 124.04 C 151.32 122.85 150.37 121.88 149.18 121.87 C 147.99 121.87 147.02 122.82 147.01 124.01 Z M 147.00 125.02 L 147.00 126.02 C 147.00 127.20 147.96 128.17 149.15 128.17 C 150.34 128.17 151.31 127.21 151.31 126.02 L 151.31 125.02 C 151.31 123.83 150.34 122.87 149.15 122.87 C 147.97 122.87 147.00 123.83 147.00 125.02 Z M 147.00 126.02 L 147.00 127.02 C 147.00 128.21 147.97 129.17 149.15 129.17 C 150.34 129.17 151.31 128.21 151.31 127.02 L 151.31 126.02 C 151.31 124.83 150.34 123.86 149.15 123.86 C 147.97 123.86 147.00 124.83 147.00 126.02 Z M 147.00 127.02 L 147.00 128.02 C 147.00 129.21 147.97 130.17 149.15 130.17 C 150.34 130.17 151.30 129.21 151.30 128.02 L 151.30 127.02 C 151.30 125.83 150.34 124.87 149.15 124.87 C 147.97 124.87 147.00 125.83 147.00 127.02 Z M 147.01 128.02 L 147.01 129.03 C 147.01 130.21 147.97 131.17 149.15 131.17 C 150.34 131.17 151.30 130.21 151.30 129.03 L 151.30 128.02 C 151.30 126.84 150.34 125.88 149.15 125.88 C 147.97 125.88 147.01 126.84 147.01 128.02 Z M 147.02 129.03 L 147.02 130.02 C 147.02 131.20 147.97 132.15 149.15 132.15 C 150.33 132.15 151.29 131.20 151.29 130.02 L 151.29 129.03 C 151.29 127.85 150.33 126.89 149.15 126.89 C 147.97 126.89 147.02 127.85 147.02 129.03 Z M 147.03 130.02 L 147.03 131.02 C 147.03 132.19 147.98 133.14 149.15 133.14 C 150.33 133.14 151.28 132.19 151.28 131.02 L 151.28 130.02 C 151.28 128.85 150.33 127.90 149.15 127.90 C 147.98 127.90 147.03 128.85 147.03 130.02 Z M 147.04 131.02 L 147.04 132.03 C 147.04 133.20 147.99 134.14 149.15 134.14 C 150.32 134.14 151.26 133.20 151.26 132.03 L 151.26 131.02 C 151.26 129.85 150.32 128.91 149.15 128.91 C 147.99 128.91 147.04 129.85 147.04 131.02 Z M 147.07 132.03 L 147.07 133.04 C 147.07 134.19 148.00 135.13 149.15 135.13 C 150.31 135.13 151.24 134.19 151.24 133.04 L 151.24 132.03 C 151.24 130.88 150.31 129.94 149.15 129.94 C 148.00 129.94 147.07 130.88 147.07 132.03 Z M 147.09 133.04 L 147.09 134.05 C 147.09 135.19 148.01 136.11 149.15 136.11 C 150.29 136.11 151.22 135.19 151.22 134.05 L 151.22 133.04 C 151.22 131.90 150.29 130.98 149.15 130.98 C 148.01 130.98 147.09 131.90 147.09 133.04 Z M 147.12 134.05 L 147.12 135.05 C 147.12 136.18 148.03 137.09 149.15 137.09 C 150.28 137.09 151.19 136.18 151.19 135.05 L 151.19 134.05 C 151.19 132.92 150.28 132.01 149.15 132.01 C 148.03 132.01 147.12 132.92 147.12 134.05 Z M 147.14 135.05 L 147.14 136.04 C 147.14 137.15 148.04 138.05 149.15 138.05 C 150.26 138.05 151.16 137.15 151.16 136.04 L 151.16 135.05 C 151.16 133.94 150.26 133.04 149.15 133.04 C 148.04 133.04 147.14 133.94 147.14 135.05 Z M 147.17 136.04 L 147.17 137.04 C 147.17 138.14 148.06 139.03 149.15 139.03 C 150.25 139.03 151.14 138.14 151.14 137.04 L 151.14 136.04 C 151.14 134.94 150.25 134.05 149.15 134.05 C 148.06 134.05 147.17 134.94 147.17 136.04 Z M 147.19 137.04 L 147.19 137.95 C 147.19 139.04 148.07 139.91 149.15 139.91 C 150.24 139.91 151.12 139.04 151.12 137.95 L 151.12 137.04 C 151.12 135.96 150.24 135.08 149.15 135.08 C 148.07 135.08 147.19 135.96 147.19 137.04 Z M 147.21 137.97 L 147.22 138.88 C 147.23 139.95 148.11 140.81 149.18 140.80 C 150.25 140.79 151.11 139.92 151.11 138.84 L 151.10 137.93 C 151.09 136.86 150.21 136.00 149.14 136.01 C 148.06 136.02 147.20 136.90 147.21 137.97 Z M 147.24 138.91 L 147.27 140.06 C 147.29 141.12 148.18 141.96 149.24 141.94 C 150.30 141.91 151.14 141.03 151.12 139.96 L 151.09 138.81 C 151.06 137.75 150.18 136.91 149.11 136.93 C 148.05 136.96 147.21 137.84 147.24 138.91 Z M 147.28 140.08 L 147.31 141.04 C 147.35 142.10 148.24 142.93 149.29 142.89 C 150.35 142.85 151.17 141.97 151.14 140.91 L 151.10 139.94 C 151.07 138.89 150.18 138.06 149.12 138.10 C 148.07 138.14 147.24 139.02 147.28 140.08 Z M 147.32 141.05 L 147.36 142.10 C 147.40 143.15 148.29 143.97 149.34 143.93 C 150.39 143.89 151.20 143.01 151.16 141.96 L 151.13 140.91 C 151.09 139.86 150.20 139.04 149.15 139.08 C 148.10 139.12 147.29 140.00 147.32 141.05 Z M 147.37 142.10 L 147.41 143.13 C 147.45 144.17 148.33 144.99 149.37 144.95 C 150.41 144.91 151.23 144.03 151.19 142.99 L 151.15 141.96 C 151.12 140.92 150.24 140.10 149.20 140.14 C 148.15 140.18 147.34 141.05 147.37 142.10 Z M 147.43 143.11 L 147.46 144.19 C 147.49 145.23 148.35 146.04 149.39 146.01 C 150.42 145.98 151.24 145.12 151.21 144.08 L 151.18 143.00 C 151.15 141.97 150.28 141.15 149.25 141.18 C 148.21 141.21 147.40 142.08 147.43 143.11 Z M 147.48 144.17 L 147.50 145.21 C 147.52 146.23 148.36 147.04 149.38 147.03 C 150.40 147.01 151.21 146.17 151.20 145.15 L 151.18 144.11 C 151.17 143.09 150.33 142.27 149.30 142.29 C 148.28 142.30 147.47 143.14 147.48 144.17 Z M 147.53 145.18 L 147.53 146.05 C 147.54 147.05 148.35 147.87 149.36 147.86 C 150.36 147.86 151.17 147.04 151.17 146.04 L 151.17 145.17 C 151.16 144.17 150.35 143.35 149.34 143.36 C 148.34 143.36 147.53 144.18 147.53 145.18 Z M 147.55 146.04 L 147.55 146.12 C 147.55 147.11 148.36 147.92 149.35 147.92 C 150.35 147.92 151.15 147.11 151.15 146.12 L 151.15 146.04 C 151.15 145.05 150.35 144.24 149.35 144.24 C 148.36 144.24 147.55 145.05 147.55 146.04 Z"
      fill="black"
      fill-rule="nonzero" /><path d="M 138.72 140.23 L 139.65 140.68 C 140.62 141.15 141.79 140.74 142.26 139.78 C 142.73 138.81 142.32 137.64 141.35 137.17 L 140.43 136.72 C 139.46 136.25 138.29 136.66 137.82 137.62 C 137.35 138.59 137.76 139.76 138.72 140.23 Z M 139.48 140.55 L 140.30 141.07 C 141.20 141.63 142.38 141.36 142.95 140.46 C 143.51 139.57 143.24 138.38 142.34 137.82 L 141.53 137.30 C 140.63 136.74 139.44 137.01 138.88 137.90 C 138.31 138.80 138.58 139.99 139.48 140.55 Z M 139.90 140.74 L 140.57 141.46 C 141.28 142.25 142.50 142.30 143.28 141.58 C 144.07 140.87 144.12 139.65 143.40 138.87 L 142.74 138.14 C 142.02 137.36 140.81 137.31 140.02 138.02 C 139.24 138.74 139.19 139.95 139.90 140.74 Z M 140.17 140.89 L 140.53 141.81 C 140.93 142.82 142.07 143.31 143.07 142.91 C 144.08 142.51 144.57 141.37 144.17 140.37 L 143.80 139.44 C 143.40 138.44 142.27 137.95 141.26 138.35 C 140.26 138.75 139.77 139.88 140.17 140.89 Z M 140.37 141.26 L 140.46 142.27 C 140.55 143.36 141.51 144.17 142.61 144.08 C 143.70 143.98 144.51 143.02 144.42 141.93 L 144.33 140.92 C 144.24 139.83 143.27 139.02 142.18 139.11 C 141.09 139.21 140.28 140.17 140.37 141.26 Z M 140.47 141.68 L 140.26 142.67 C 140.03 143.75 140.73 144.82 141.81 145.05 C 142.90 145.28 143.97 144.58 144.20 143.50 L 144.41 142.51 C 144.64 141.43 143.94 140.36 142.85 140.13 C 141.77 139.90 140.70 140.59 140.47 141.68 Z M 140.50 142.02 L 139.98 142.87 C 139.40 143.83 139.70 145.08 140.65 145.66 C 141.61 146.24 142.86 145.94 143.44 144.99 L 143.96 144.14 C 144.54 143.18 144.24 141.94 143.29 141.35 C 142.33 140.77 141.08 141.07 140.50 142.02 Z M 140.24 142.53 L 139.57 143.24 C 138.80 144.05 138.83 145.33 139.64 146.11 C 140.45 146.88 141.74 146.85 142.51 146.03 L 143.18 145.33 C 143.95 144.52 143.92 143.23 143.11 142.46 C 142.30 141.69 141.01 141.72 140.24 142.53 Z M 139.77 143.05 L 138.99 143.67 C 138.12 144.37 137.98 145.65 138.68 146.53 C 139.38 147.40 140.66 147.54 141.53 146.84 L 142.31 146.22 C 143.19 145.52 143.33 144.24 142.63 143.37 C 141.93 142.49 140.65 142.35 139.77 143.05 Z M 139.17 143.55 L 138.32 144.09 C 137.38 144.70 137.10 145.95 137.71 146.89 C 138.31 147.84 139.57 148.11 140.51 147.51 L 141.36 146.97 C 142.30 146.36 142.57 145.11 141.97 144.16 C 141.37 143.22 140.11 142.95 139.17 143.55 Z M 138.41 144.04 L 137.53 144.55 C 136.56 145.10 136.22 146.34 136.78 147.31 C 137.34 148.28 138.57 148.62 139.55 148.06 L 140.43 147.56 C 141.40 147.00 141.73 145.76 141.18 144.79 C 140.62 143.82 139.38 143.48 138.41 144.04 Z M 137.55 144.54 L 136.66 145.05 C 135.68 145.59 135.34 146.82 135.88 147.79 C 136.43 148.76 137.66 149.11 138.63 148.57 L 139.52 148.06 C 140.50 147.52 140.84 146.29 140.30 145.32 C 139.75 144.35 138.52 144.00 137.55 144.54 Z M 136.66 145.07 L 135.82 145.54 C 134.85 146.08 134.51 147.30 135.05 148.26 C 135.59 149.22 136.81 149.56 137.77 149.02 L 138.62 148.55 C 139.58 148.01 139.92 146.79 139.38 145.83 C 138.84 144.87 137.63 144.52 136.66 145.07 Z M 135.82 145.55 L 135.78 145.58 C 134.82 146.12 134.48 147.33 135.02 148.28 C 135.56 149.24 136.77 149.57 137.72 149.04 L 137.77 149.01 C 138.72 148.47 139.06 147.26 138.52 146.31 C 137.99 145.36 136.78 145.02 135.82 145.55 Z"
      fill="black"
      fill-rule="nonzero" /><path d="M 156.97 137.76 L 156.70 138.69 C 156.38 139.80 157.02 140.96 158.13 141.28 C 159.24 141.61 160.40 140.97 160.73 139.86 L 161.00 138.94 C 161.32 137.82 160.68 136.66 159.57 136.34 C 158.46 136.01 157.30 136.65 156.97 137.76 Z M 156.81 138.42 L 156.40 139.35 C 155.93 140.40 156.40 141.63 157.45 142.10 C 158.51 142.57 159.74 142.10 160.21 141.05 L 160.62 140.12 C 161.09 139.07 160.62 137.84 159.57 137.37 C 158.51 136.90 157.28 137.37 156.81 138.42 Z M 156.52 139.16 L 156.02 140.02 C 155.45 141.01 155.78 142.27 156.77 142.84 C 157.76 143.41 159.02 143.08 159.59 142.09 L 160.09 141.23 C 160.66 140.24 160.32 138.98 159.34 138.41 C 158.35 137.84 157.09 138.17 156.52 139.16 Z M 156.01 140.08 L 155.52 140.99 C 154.98 141.98 155.35 143.22 156.34 143.75 C 157.33 144.29 158.56 143.92 159.10 142.94 L 159.59 142.03 C 160.13 141.04 159.76 139.81 158.78 139.27 C 157.79 138.73 156.55 139.10 156.01 140.08 Z M 155.44 141.20 L 155.06 142.13 C 154.64 143.16 155.14 144.34 156.17 144.76 C 157.20 145.18 158.38 144.69 158.80 143.65 L 159.18 142.73 C 159.60 141.70 159.11 140.52 158.07 140.10 C 157.04 139.67 155.87 140.17 155.44 141.20 Z M 154.99 142.38 L 154.74 143.36 C 154.46 144.43 155.10 145.52 156.17 145.80 C 157.24 146.08 158.34 145.44 158.62 144.37 L 158.87 143.40 C 159.15 142.33 158.51 141.23 157.44 140.95 C 156.37 140.67 155.27 141.31 154.99 142.38 Z M 154.69 143.72 L 154.62 144.76 C 154.54 145.86 155.37 146.81 156.46 146.89 C 157.56 146.97 158.52 146.14 158.59 145.04 L 158.67 144.00 C 158.74 142.91 157.92 141.95 156.82 141.88 C 155.72 141.80 154.77 142.63 154.69 143.72 Z M 154.73 145.55 L 155.03 146.42 C 155.39 147.45 156.52 148.00 157.56 147.64 C 158.59 147.28 159.14 146.15 158.78 145.11 L 158.48 144.25 C 158.12 143.22 156.99 142.67 155.95 143.03 C 154.92 143.39 154.37 144.52 154.73 145.55 Z M 155.75 147.36 L 156.53 147.93 C 157.41 148.57 158.64 148.37 159.28 147.49 C 159.92 146.61 159.73 145.38 158.85 144.74 L 158.06 144.17 C 157.18 143.53 155.95 143.73 155.31 144.61 C 154.67 145.49 154.87 146.72 155.75 147.36 Z M 157.17 148.21 L 158.15 148.48 C 159.19 148.77 160.27 148.16 160.55 147.12 C 160.84 146.08 160.23 145.01 159.19 144.72 L 158.20 144.45 C 157.17 144.17 156.09 144.78 155.81 145.82 C 155.52 146.86 156.13 147.93 157.17 148.21 Z M 158.50 148.51 L 159.49 148.60 C 160.55 148.70 161.48 147.92 161.58 146.87 C 161.67 145.81 160.90 144.88 159.84 144.78 L 158.84 144.69 C 157.79 144.60 156.86 145.38 156.76 146.43 C 156.66 147.49 157.44 148.42 158.50 148.51 Z M 159.63 148.57 L 160.63 148.60 C 161.67 148.62 162.53 147.79 162.55 146.75 C 162.58 145.72 161.75 144.86 160.71 144.83 L 159.71 144.81 C 158.67 144.79 157.81 145.62 157.79 146.65 C 157.76 147.69 158.59 148.55 159.63 148.57 Z M 160.66 148.56 L 161.66 148.56 C 162.68 148.57 163.51 147.75 163.52 146.73 C 163.52 145.71 162.70 144.88 161.68 144.88 L 160.68 144.87 C 159.67 144.87 158.84 145.69 158.83 146.71 C 158.83 147.72 159.65 148.55 160.66 148.56 Z M 161.67 148.53 L 162.15 148.53 C 163.15 148.53 163.97 147.72 163.97 146.72 C 163.97 145.72 163.16 144.91 162.15 144.91 L 161.67 144.91 C 160.67 144.91 159.86 145.72 159.86 146.72 C 159.86 147.72 160.67 148.53 161.67 148.53 Z"
      fill="black"
      fill-rule="nonzero" /><path d="M 132.19 156.88 L 133.21 156.88 C 134.24 156.88 135.08 156.05 135.08 155.02 C 135.08 153.98 134.24 153.15 133.21 153.15 L 132.19 153.15 C 131.16 153.15 130.33 153.98 130.33 155.02 C 130.33 156.05 131.16 156.88 132.19 156.88 Z M 133.21 157.01 L 134.20 157.01 C 135.30 157.01 136.19 156.12 136.19 155.02 C 136.19 153.92 135.30 153.02 134.20 153.02 L 133.21 153.02 C 132.11 153.02 131.22 153.92 131.22 155.02 C 131.22 156.12 132.11 157.01 133.21 157.01 Z M 134.20 157.08 L 135.19 157.08 C 136.33 157.08 137.25 156.16 137.25 155.02 C 137.25 153.88 136.33 152.95 135.19 152.95 L 134.20 152.95 C 133.06 152.95 132.13 153.88 132.13 155.02 C 132.13 156.16 133.06 157.08 134.20 157.08 Z M 135.19 157.10 L 136.15 157.10 C 137.30 157.10 138.24 156.17 138.24 155.02 C 138.24 153.86 137.30 152.93 136.15 152.93 L 135.19 152.93 C 134.04 152.93 133.10 153.86 133.10 155.02 C 133.10 156.17 134.04 157.10 135.19 157.10 Z M 136.15 157.12 L 137.15 157.12 C 138.31 157.12 139.25 156.18 139.25 155.02 C 139.25 153.86 138.31 152.91 137.15 152.91 L 136.15 152.91 C 134.99 152.91 134.05 153.86 134.05 155.02 C 134.05 156.18 134.99 157.12 136.15 157.12 Z M 137.15 157.12 L 138.14 157.12 C 139.30 157.12 140.25 156.18 140.25 155.01 C 140.25 153.85 139.30 152.91 138.14 152.91 L 137.15 152.91 C 135.99 152.91 135.04 153.85 135.04 155.02 C 135.04 156.18 135.99 157.13 137.15 157.12 Z M 138.15 157.13 L 139.14 157.12 C 140.30 157.12 141.25 156.17 141.24 155.00 C 141.23 153.83 140.28 152.89 139.11 152.90 L 138.12 152.90 C 136.96 152.91 136.02 153.86 136.02 155.03 C 136.03 156.19 136.98 157.14 138.15 157.13 Z M 139.16 157.13 L 140.23 157.11 C 141.40 157.09 142.33 156.12 142.31 154.96 C 142.29 153.79 141.33 152.86 140.16 152.88 L 139.09 152.89 C 137.92 152.91 136.99 153.88 137.01 155.05 C 137.03 156.22 137.99 157.15 139.16 157.13 Z M 140.26 157.11 L 141.30 157.08 C 142.47 157.04 143.39 156.07 143.36 154.90 C 143.32 153.73 142.35 152.81 141.18 152.84 L 140.13 152.88 C 138.96 152.91 138.04 153.89 138.08 155.06 C 138.12 156.22 139.09 157.14 140.26 157.11 Z M 141.32 157.07 L 142.33 157.04 C 143.49 156.99 144.40 156.01 144.36 154.84 C 144.32 153.68 143.33 152.76 142.17 152.81 L 141.16 152.85 C 139.99 152.89 139.08 153.87 139.13 155.04 C 139.17 156.21 140.15 157.12 141.32 157.07 Z M 142.33 157.03 L 143.35 156.99 C 144.51 156.94 145.42 155.96 145.37 154.80 C 145.32 153.63 144.34 152.72 143.18 152.77 L 142.16 152.81 C 141.00 152.86 140.09 153.84 140.14 155.01 C 140.18 156.17 141.17 157.08 142.33 157.03 Z M 143.36 156.98 L 144.33 156.94 C 145.49 156.89 146.39 155.90 146.34 154.74 C 146.29 153.58 145.30 152.68 144.14 152.74 L 143.17 152.78 C 142.01 152.83 141.11 153.82 141.16 154.98 C 141.21 156.14 142.20 157.03 143.36 156.98 Z M 144.37 156.93 L 145.29 156.87 C 146.45 156.80 147.32 155.80 147.25 154.65 C 147.18 153.49 146.19 152.62 145.03 152.69 L 144.11 152.75 C 142.95 152.82 142.07 153.81 142.15 154.97 C 142.22 156.12 143.21 157.00 144.37 156.93 Z M 145.33 156.86 L 146.34 156.78 C 147.49 156.68 148.34 155.68 148.25 154.53 C 148.16 153.38 147.15 152.52 146.00 152.62 L 144.99 152.70 C 143.85 152.79 142.99 153.80 143.08 154.95 C 143.18 156.10 144.18 156.95 145.33 156.86 Z M 146.36 156.76 L 147.37 156.67 C 148.51 156.57 149.35 155.56 149.24 154.42 C 149.14 153.28 148.13 152.44 146.99 152.54 L 145.98 152.63 C 144.84 152.74 144.00 153.75 144.11 154.89 C 144.21 156.03 145.22 156.87 146.36 156.76 Z M 147.36 156.65 L 148.37 156.56 C 149.49 156.45 150.32 155.45 150.22 154.33 C 150.12 153.20 149.12 152.37 147.99 152.47 L 146.99 152.56 C 145.86 152.67 145.03 153.66 145.14 154.79 C 145.24 155.92 146.24 156.75 147.36 156.65 Z M 148.34 156.53 L 149.36 156.45 C 150.47 156.36 151.30 155.38 151.21 154.26 C 151.12 153.15 150.14 152.32 149.03 152.41 L 148.01 152.50 C 146.90 152.59 146.07 153.57 146.16 154.68 C 146.25 155.79 147.23 156.62 148.34 156.53 Z M 149.34 156.42 L 150.32 156.34 C 151.42 156.26 152.24 155.30 152.16 154.20 C 152.07 153.11 151.12 152.28 150.02 152.37 L 149.04 152.44 C 147.94 152.53 147.12 153.48 147.21 154.58 C 147.29 155.68 148.25 156.50 149.34 156.42 Z M 150.32 156.32 L 151.32 156.25 C 152.41 156.17 153.23 155.22 153.14 154.13 C 153.06 153.04 152.11 152.23 151.03 152.31 L 150.02 152.39 C 148.93 152.47 148.12 153.42 148.20 154.50 C 148.28 155.59 149.23 156.41 150.32 156.32 Z M 151.30 156.24 L 152.22 156.19 C 153.30 156.12 154.13 155.18 154.06 154.10 C 153.99 153.01 153.06 152.19 151.97 152.26 L 151.05 152.32 C 149.97 152.38 149.14 153.32 149.21 154.40 C 149.28 155.49 150.21 156.31 151.30 156.24 Z M 152.17 156.19 L 153.10 156.15 C 154.18 156.11 155.03 155.19 154.98 154.11 C 154.94 153.02 154.03 152.18 152.94 152.22 L 152.02 152.26 C 150.93 152.30 150.09 153.22 150.13 154.30 C 150.17 155.39 151.09 156.23 152.17 156.19 Z M 153.07 156.15 L 154.18 156.12 C 155.27 156.10 156.13 155.20 156.10 154.11 C 156.07 153.02 155.17 152.17 154.09 152.19 L 152.97 152.22 C 151.89 152.24 151.03 153.15 151.05 154.23 C 151.08 155.32 151.98 156.18 153.07 156.15 Z M 154.17 156.13 L 155.19 156.11 C 156.27 156.09 157.14 155.19 157.12 154.10 C 157.10 153.02 156.20 152.15 155.12 152.17 L 154.10 152.19 C 153.01 152.21 152.15 153.11 152.17 154.19 C 152.19 155.28 153.08 156.14 154.17 156.13 Z M 155.18 156.11 L 156.24 156.09 C 157.32 156.07 158.19 155.18 158.17 154.09 C 158.16 153.01 157.26 152.14 156.18 152.16 L 155.12 152.17 C 154.04 152.19 153.17 153.08 153.18 154.17 C 153.20 155.26 154.10 156.12 155.18 156.11 Z M 156.23 156.09 L 157.29 156.08 C 158.37 156.07 159.25 155.17 159.23 154.09 C 159.22 153.00 158.33 152.13 157.24 152.14 L 156.18 152.15 C 155.09 152.17 154.22 153.06 154.24 154.15 C 154.25 155.24 155.14 156.11 156.23 156.09 Z M 157.17 156.11 L 158.28 156.16 C 159.38 156.21 160.32 155.35 160.37 154.25 C 160.41 153.14 159.56 152.21 158.46 152.16 L 157.35 152.11 C 156.25 152.06 155.31 152.92 155.26 154.02 C 155.22 155.13 156.07 156.06 157.17 156.11 Z M 156.86 152.77 L 156.57 153.08 C 155.81 153.91 155.86 155.21 156.69 155.98 C 157.52 156.74 158.81 156.69 159.58 155.86 L 159.87 155.55 C 160.64 154.72 160.59 153.42 159.76 152.66 C 158.93 151.89 157.63 151.94 156.86 152.77 Z M 157.24 152.56 L 156.14 153.04 C 155.09 153.51 154.61 154.74 155.07 155.79 C 155.53 156.85 156.76 157.33 157.82 156.86 L 158.92 156.38 C 159.97 155.92 160.45 154.69 159.99 153.63 C 159.53 152.58 158.29 152.10 157.24 152.56 Z M 156.18 153.00 L 155.27 153.37 C 154.19 153.81 153.67 155.05 154.11 156.12 C 154.55 157.20 155.78 157.72 156.86 157.28 L 157.78 156.91 C 158.86 156.47 159.37 155.24 158.93 154.16 C 158.49 153.08 157.26 152.56 156.18 153.00 Z M 155.30 153.35 L 154.38 153.70 C 153.29 154.13 152.75 155.35 153.17 156.45 C 153.59 157.54 154.82 158.08 155.91 157.66 L 156.83 157.31 C 157.92 156.88 158.46 155.66 158.04 154.56 C 157.62 153.47 156.39 152.93 155.30 153.35 Z M 154.41 153.69 L 153.54 154.01 C 152.44 154.41 151.88 155.63 152.28 156.73 C 152.68 157.83 153.90 158.40 155.00 158.00 L 155.87 157.68 C 156.98 157.27 157.54 156.05 157.14 154.95 C 156.74 153.85 155.52 153.28 154.41 153.69 Z M 153.56 154.00 L 152.55 154.36 C 151.44 154.76 150.87 155.97 151.26 157.08 C 151.66 158.18 152.88 158.76 153.98 158.36 L 154.99 158.00 C 156.10 157.61 156.67 156.39 156.27 155.28 C 155.88 154.18 154.66 153.60 153.56 154.00 Z M 152.55 154.37 L 151.61 154.70 C 150.51 155.10 149.94 156.31 150.33 157.41 C 150.73 158.52 151.94 159.09 153.04 158.70 L 153.98 158.36 C 155.08 157.96 155.66 156.75 155.26 155.65 C 154.87 154.54 153.65 153.97 152.55 154.37 Z M 151.61 154.71 L 150.65 155.06 C 149.55 155.45 148.98 156.66 149.38 157.76 C 149.77 158.86 150.98 159.43 152.08 159.04 L 153.05 158.69 C 154.14 158.29 154.71 157.08 154.32 155.98 C 153.92 154.88 152.71 154.31 151.61 154.71 Z M 150.65 155.06 L 149.69 155.41 C 148.60 155.81 148.03 157.01 148.43 158.11 C 148.82 159.20 150.03 159.77 151.13 159.37 L 152.08 159.03 C 153.18 158.63 153.74 157.42 153.35 156.33 C 152.95 155.23 151.74 154.67 150.65 155.06 Z M 149.70 155.42 L 148.74 155.77 C 147.66 156.17 147.10 157.37 147.49 158.45 C 147.89 159.54 149.09 160.10 150.17 159.70 L 151.13 159.36 C 152.21 158.96 152.77 157.76 152.38 156.68 C 151.98 155.59 150.78 155.03 149.70 155.42 Z M 148.75 155.80 L 147.83 156.13 C 146.76 156.52 146.21 157.71 146.60 158.78 C 146.99 159.85 148.17 160.40 149.24 160.01 L 150.16 159.68 C 151.24 159.29 151.79 158.10 151.40 157.03 C 151.01 155.96 149.82 155.41 148.75 155.80 Z M 147.85 156.16 L 146.91 156.50 C 145.85 156.88 145.30 158.05 145.68 159.10 C 146.07 160.16 147.23 160.71 148.29 160.33 L 149.23 159.99 C 150.29 159.60 150.84 158.44 150.45 157.38 C 150.07 156.32 148.90 155.77 147.85 156.16 Z M 146.92 156.51 L 145.99 156.85 C 144.94 157.23 144.39 158.38 144.77 159.43 C 145.15 160.47 146.30 161.02 147.35 160.64 L 148.28 160.31 C 149.33 159.93 149.87 158.78 149.50 157.73 C 149.12 156.68 147.97 156.14 146.92 156.51 Z M 145.99 156.86 L 145.03 157.21 C 143.99 157.58 143.45 158.72 143.82 159.76 C 144.19 160.80 145.34 161.34 146.38 160.97 L 147.34 160.63 C 148.38 160.26 148.92 159.11 148.55 158.07 C 148.18 157.03 147.03 156.49 145.99 156.86 Z M 145.03 157.22 L 144.10 157.56 C 143.07 157.93 142.53 159.07 142.90 160.10 C 143.27 161.13 144.41 161.66 145.44 161.29 L 146.37 160.96 C 147.40 160.59 147.94 159.45 147.57 158.42 C 147.20 157.39 146.06 156.85 145.03 157.22 Z M 144.10 157.59 L 143.11 157.95 C 142.09 158.32 141.57 159.44 141.94 160.45 C 142.30 161.47 143.43 161.99 144.44 161.63 L 145.43 161.27 C 146.45 160.90 146.98 159.78 146.61 158.76 C 146.24 157.74 145.12 157.22 144.10 157.59 Z M 143.12 157.98 L 142.20 158.31 C 141.20 158.67 140.69 159.77 141.05 160.77 C 141.41 161.77 142.51 162.28 143.50 161.92 L 144.43 161.59 C 145.42 161.23 145.94 160.13 145.58 159.14 C 145.22 158.14 144.12 157.62 143.12 157.98 Z M 142.23 158.34 L 141.33 158.66 C 140.34 159.00 139.83 160.07 140.17 161.06 C 140.51 162.04 141.59 162.56 142.57 162.21 L 143.47 161.90 C 144.45 161.56 144.97 160.48 144.63 159.50 C 144.29 158.52 143.21 158.00 142.23 158.34 Z M 141.36 158.67 L 140.41 158.98 C 139.44 159.31 138.91 160.36 139.23 161.34 C 139.56 162.32 140.62 162.85 141.59 162.52 L 142.54 162.20 C 143.52 161.88 144.04 160.82 143.72 159.84 C 143.39 158.87 142.33 158.34 141.36 158.67 Z M 140.43 158.99 L 139.47 159.30 C 138.50 159.62 137.97 160.66 138.29 161.64 C 138.60 162.61 139.65 163.15 140.63 162.83 L 141.58 162.51 C 142.55 162.20 143.09 161.15 142.77 160.17 C 142.45 159.20 141.40 158.67 140.43 158.99 Z M 139.47 159.30 L 138.54 159.61 C 137.57 159.93 137.04 160.97 137.36 161.94 C 137.68 162.91 138.72 163.44 139.69 163.13 L 140.63 162.82 C 141.60 162.50 142.13 161.46 141.81 160.49 C 141.49 159.52 140.45 158.99 139.47 159.30 Z M 138.55 159.61 L 137.60 159.92 C 136.63 160.23 136.09 161.27 136.41 162.24 C 136.72 163.21 137.76 163.74 138.73 163.43 L 139.68 163.12 C 140.65 162.81 141.18 161.77 140.87 160.80 C 140.56 159.83 139.52 159.30 138.55 159.61 Z M 137.62 159.92 L 136.64 160.22 C 135.67 160.52 135.13 161.55 135.42 162.52 C 135.72 163.49 136.75 164.03 137.72 163.73 L 138.70 163.43 C 139.67 163.13 140.22 162.11 139.92 161.13 C 139.62 160.16 138.59 159.62 137.62 159.92 Z M 136.67 160.21 L 135.69 160.49 C 134.71 160.78 134.15 161.80 134.44 162.77 C 134.72 163.75 135.74 164.31 136.71 164.03 L 137.69 163.74 C 138.67 163.46 139.23 162.44 138.95 161.47 C 138.67 160.49 137.65 159.93 136.67 160.21 Z M 135.72 160.49 L 134.77 160.74 C 133.79 161.01 133.21 162.02 133.48 163.00 C 133.75 163.98 134.76 164.56 135.74 164.29 L 136.68 164.04 C 137.67 163.77 138.24 162.76 137.98 161.78 C 137.71 160.80 136.70 160.22 135.72 160.49 Z M 134.80 160.73 L 133.81 160.99 C 132.83 161.24 132.23 162.24 132.49 163.23 C 132.74 164.21 133.74 164.81 134.73 164.55 L 135.71 164.30 C 136.70 164.05 137.29 163.05 137.04 162.06 C 136.79 161.08 135.79 160.48 134.80 160.73 Z M 133.82 160.98 L 132.87 161.22 C 131.88 161.47 131.28 162.48 131.53 163.46 C 131.78 164.45 132.79 165.05 133.78 164.80 L 134.72 164.56 C 135.71 164.31 136.31 163.30 136.06 162.32 C 135.81 161.33 134.80 160.73 133.82 160.98 Z M 132.83 161.23 L 131.85 161.50 C 130.86 161.78 130.29 162.80 130.56 163.78 C 130.83 164.76 131.85 165.34 132.84 165.07 L 133.82 164.79 C 134.80 164.52 135.38 163.50 135.10 162.51 C 134.83 161.53 133.81 160.95 132.83 161.23 Z M 131.75 161.53 L 130.80 161.85 C 129.83 162.17 129.30 163.22 129.63 164.19 C 129.95 165.16 131.01 165.69 131.98 165.36 L 132.93 165.04 C 133.90 164.72 134.42 163.66 134.10 162.69 C 133.77 161.72 132.72 161.20 131.75 161.53 Z M 130.57 161.93 L 129.61 162.40 C 128.68 162.85 128.30 163.97 128.75 164.89 C 129.20 165.82 130.31 166.20 131.24 165.75 L 132.20 165.28 C 133.13 164.83 133.51 163.71 133.06 162.79 C 132.61 161.86 131.50 161.48 130.57 161.93 Z M 128.87 163.01 L 128.40 163.69 C 127.82 164.55 128.04 165.72 128.89 166.31 C 129.75 166.89 130.92 166.67 131.51 165.82 L 131.97 165.14 C 132.56 164.28 132.34 163.11 131.48 162.52 C 130.63 161.94 129.46 162.15 128.87 163.01 Z M 128.23 165.54 L 128.63 166.43 C 129.07 167.38 130.19 167.80 131.15 167.37 C 132.10 166.93 132.52 165.80 132.09 164.85 L 131.68 163.96 C 131.25 163.01 130.12 162.59 129.17 163.03 C 128.21 163.46 127.79 164.59 128.23 165.54 Z M 128.84 166.82 L 129.42 167.56 C 130.07 168.40 131.28 168.55 132.12 167.90 C 132.96 167.25 133.11 166.04 132.46 165.20 L 131.88 164.46 C 131.23 163.62 130.02 163.47 129.18 164.12 C 128.34 164.77 128.19 165.98 128.84 166.82 Z M 129.41 167.60 L 130.08 168.44 C 130.75 169.29 131.98 169.43 132.82 168.76 C 133.67 168.09 133.81 166.86 133.14 166.01 L 132.47 165.17 C 131.80 164.32 130.57 164.18 129.72 164.85 C 128.88 165.52 128.74 166.75 129.41 167.60 Z M 130.02 168.43 L 130.62 169.21 C 131.28 170.09 132.53 170.26 133.40 169.60 C 134.28 168.94 134.45 167.69 133.79 166.81 L 133.19 166.03 C 132.53 165.15 131.29 164.98 130.41 165.64 C 129.53 166.30 129.36 167.55 130.02 168.43 Z M 130.57 169.21 L 131.19 170.04 C 131.85 170.95 133.11 171.14 134.01 170.48 C 134.91 169.82 135.11 168.55 134.45 167.65 L 133.83 166.82 C 133.17 165.92 131.91 165.72 131.01 166.38 C 130.11 167.04 129.91 168.31 130.57 169.21 Z M 131.15 170.05 L 131.73 170.85 C 132.39 171.77 133.67 171.98 134.59 171.32 C 135.51 170.66 135.72 169.37 135.06 168.45 L 134.48 167.65 C 133.82 166.73 132.54 166.52 131.62 167.18 C 130.70 167.84 130.49 169.13 131.15 170.05 Z M 131.70 170.86 L 132.25 171.63 C 132.92 172.56 134.21 172.78 135.15 172.11 C 136.08 171.44 136.30 170.15 135.63 169.21 L 135.08 168.45 C 134.42 167.51 133.12 167.30 132.19 167.96 C 131.25 168.63 131.04 169.92 131.70 170.86 Z M 132.25 171.65 L 132.87 172.50 C 133.55 173.44 134.86 173.64 135.79 172.96 C 136.73 172.28 136.93 170.97 136.25 170.04 L 135.63 169.19 C 134.95 168.26 133.65 168.05 132.71 168.73 C 131.78 169.41 131.57 170.72 132.25 171.65 Z M 132.88 172.53 L 133.43 173.27 C 134.13 174.20 135.44 174.39 136.37 173.69 C 137.30 173.00 137.49 171.68 136.80 170.75 L 136.24 170.01 C 135.55 169.08 134.23 168.89 133.30 169.59 C 132.37 170.28 132.18 171.60 132.88 172.53 Z M 133.45 173.29 L 134.07 174.09 C 134.77 175.02 136.09 175.19 137.01 174.48 C 137.93 173.78 138.10 172.46 137.40 171.54 L 136.78 170.73 C 136.07 169.81 134.76 169.64 133.84 170.34 C 132.92 171.05 132.74 172.37 133.45 173.29 Z M 134.08 174.12 L 134.74 174.94 C 135.45 175.85 136.77 176.01 137.69 175.29 C 138.60 174.57 138.75 173.25 138.03 172.34 L 137.38 171.52 C 136.66 170.61 135.34 170.45 134.43 171.17 C 133.52 171.89 133.37 173.21 134.08 174.12 Z M 134.76 174.98 L 135.46 175.82 C 136.19 176.71 137.52 176.84 138.41 176.11 C 139.31 175.37 139.43 174.05 138.70 173.15 L 138.00 172.31 C 137.27 171.41 135.95 171.29 135.05 172.02 C 134.16 172.76 134.03 174.08 134.76 174.98 Z M 135.49 175.85 L 136.18 176.65 C 136.93 177.52 138.25 177.62 139.13 176.87 C 140.00 176.11 140.10 174.79 139.35 173.91 L 138.66 173.12 C 137.91 172.24 136.59 172.15 135.71 172.90 C 134.84 173.65 134.74 174.98 135.49 175.85 Z M 136.21 176.67 L 136.83 177.37 C 137.60 178.22 138.92 178.30 139.78 177.53 C 140.64 176.75 140.71 175.44 139.94 174.58 L 139.32 173.88 C 138.54 173.03 137.23 172.96 136.37 173.73 C 135.51 174.50 135.44 175.82 136.21 176.67 Z M 136.87 177.39 L 137.57 178.13 C 138.35 178.97 139.66 179.01 140.50 178.23 C 141.33 177.45 141.38 176.14 140.60 175.31 L 139.90 174.56 C 139.12 173.72 137.81 173.68 136.97 174.46 C 136.13 175.24 136.09 176.55 136.87 177.39 Z M 137.62 178.14 L 138.28 178.83 C 139.07 179.64 140.36 179.66 141.17 178.87 C 141.98 178.09 142.00 176.80 141.21 175.99 L 140.55 175.30 C 139.77 174.49 138.47 174.47 137.66 175.25 C 136.86 176.04 136.83 177.33 137.62 178.14 Z M 138.31 178.80 L 138.98 179.49 C 139.75 180.28 141.01 180.30 141.81 179.53 C 142.60 178.76 142.62 177.49 141.85 176.70 L 141.19 176.01 C 140.42 175.22 139.15 175.20 138.35 175.97 C 137.56 176.74 137.54 178.01 138.31 178.80 Z M 139.03 179.48 L 139.74 180.19 C 140.51 180.96 141.75 180.95 142.51 180.19 C 143.28 179.42 143.28 178.18 142.51 177.41 L 141.80 176.70 C 141.03 175.94 139.79 175.94 139.02 176.70 C 138.26 177.47 138.26 178.71 139.03 179.48 Z M 139.83 180.22 L 140.56 180.89 C 141.34 181.60 142.56 181.55 143.28 180.77 C 143.99 179.98 143.94 178.76 143.15 178.05 L 142.42 177.38 C 141.64 176.66 140.42 176.72 139.70 177.50 C 138.99 178.29 139.04 179.50 139.83 180.22 Z M 140.62 180.89 L 141.38 181.55 C 142.17 182.23 143.36 182.15 144.04 181.36 C 144.72 180.57 144.64 179.38 143.85 178.70 L 143.09 178.04 C 142.30 177.36 141.11 177.45 140.43 178.24 C 139.75 179.02 139.84 180.21 140.62 180.89 Z"
      fill="black"
      fill-rule="nonzero" /><path d="M 134.97 171.96 L 135.84 171.69 C 136.83 171.39 137.38 170.35 137.07 169.36 C 136.77 168.38 135.73 167.83 134.75 168.13 L 133.88 168.40 C 132.89 168.70 132.34 169.75 132.65 170.73 C 132.95 171.71 133.99 172.26 134.97 171.96 Z M 135.82 171.82 L 136.82 171.55 C 137.88 171.26 138.50 170.17 138.21 169.12 C 137.93 168.06 136.84 167.44 135.78 167.73 L 134.78 168.00 C 133.72 168.29 133.10 169.38 133.39 170.43 C 133.67 171.49 134.76 172.11 135.82 171.82 Z M 136.79 171.65 L 137.68 171.44 C 138.79 171.16 139.47 170.04 139.20 168.93 C 138.93 167.82 137.80 167.14 136.69 167.41 L 135.81 167.62 C 134.70 167.90 134.02 169.02 134.29 170.13 C 134.56 171.24 135.68 171.92 136.79 171.65 Z M 137.68 171.51 L 138.71 171.27 C 139.86 170.99 140.57 169.83 140.30 168.68 C 140.02 167.53 138.86 166.81 137.71 167.09 L 136.69 167.33 C 135.53 167.61 134.82 168.77 135.10 169.92 C 135.37 171.08 136.53 171.79 137.68 171.51 Z M 138.73 171.33 L 139.80 171.07 C 140.99 170.78 141.72 169.58 141.43 168.40 C 141.14 167.21 139.94 166.48 138.75 166.77 L 137.68 167.03 C 136.50 167.32 135.77 168.51 136.06 169.70 C 136.35 170.89 137.54 171.62 138.73 171.33 Z M 139.82 171.10 L 140.84 170.85 C 142.05 170.55 142.78 169.33 142.48 168.12 C 142.18 166.91 140.96 166.18 139.75 166.48 L 138.73 166.73 C 137.52 167.03 136.79 168.26 137.09 169.46 C 137.39 170.67 138.61 171.41 139.82 171.10 Z M 140.86 170.87 L 141.84 170.62 C 143.06 170.32 143.80 169.08 143.49 167.86 C 143.18 166.64 141.94 165.90 140.72 166.21 L 139.74 166.45 C 138.52 166.76 137.78 168.00 138.09 169.22 C 138.40 170.44 139.64 171.18 140.86 170.87 Z M 141.84 170.65 L 142.78 170.41 C 144.01 170.10 144.76 168.85 144.44 167.62 C 144.13 166.38 142.88 165.64 141.65 165.95 L 140.72 166.18 C 139.48 166.49 138.74 167.75 139.05 168.98 C 139.36 170.21 140.61 170.96 141.84 170.65 Z M 142.77 170.43 L 143.80 170.17 C 145.04 169.86 145.80 168.60 145.49 167.36 C 145.18 166.12 143.92 165.37 142.68 165.68 L 141.65 165.93 C 140.41 166.24 139.66 167.50 139.97 168.74 C 140.28 169.98 141.53 170.74 142.77 170.43 Z M 143.81 170.17 L 144.68 169.95 C 145.92 169.63 146.67 168.37 146.35 167.13 C 146.04 165.89 144.78 165.14 143.54 165.46 L 142.67 165.68 C 141.43 165.99 140.68 167.25 141.00 168.49 C 141.31 169.74 142.57 170.49 143.81 170.17 Z M 144.70 169.95 L 145.65 169.70 C 146.89 169.37 147.63 168.10 147.30 166.86 C 146.97 165.62 145.70 164.88 144.46 165.21 L 143.51 165.46 C 142.27 165.79 141.54 167.06 141.86 168.30 C 142.19 169.54 143.46 170.28 144.70 169.95 Z M 145.64 169.70 L 146.63 169.44 C 147.87 169.12 148.61 167.85 148.29 166.61 C 147.97 165.37 146.70 164.62 145.46 164.95 L 144.47 165.20 C 143.23 165.53 142.49 166.79 142.81 168.04 C 143.13 169.28 144.40 170.02 145.64 169.70 Z M 146.59 169.44 L 147.55 169.21 C 148.79 168.91 149.55 167.66 149.25 166.42 C 148.95 165.18 147.70 164.41 146.46 164.72 L 145.50 164.95 C 144.26 165.25 143.50 166.50 143.80 167.74 C 144.10 168.98 145.35 169.74 146.59 169.44 Z M 147.52 169.19 L 148.50 168.97 C 149.74 168.68 150.51 167.46 150.22 166.22 C 149.94 164.99 148.71 164.22 147.48 164.50 L 146.49 164.73 C 145.26 165.01 144.49 166.24 144.77 167.47 C 145.06 168.71 146.29 169.48 147.52 169.19 Z M 148.48 168.95 L 149.45 168.73 C 150.67 168.46 151.44 167.25 151.17 166.03 C 150.90 164.81 149.69 164.04 148.47 164.31 L 147.50 164.52 C 146.28 164.80 145.51 166.01 145.78 167.23 C 146.05 168.45 147.26 169.22 148.48 168.95 Z M 149.43 168.71 L 150.42 168.49 C 151.63 168.23 152.39 167.04 152.13 165.83 C 151.87 164.62 150.68 163.86 149.47 164.12 L 148.48 164.33 C 147.27 164.60 146.51 165.79 146.77 167.00 C 147.03 168.20 148.22 168.97 149.43 168.71 Z M 150.41 168.48 L 151.38 168.27 C 152.58 168.02 153.34 166.84 153.09 165.63 C 152.83 164.43 151.65 163.67 150.45 163.93 L 149.48 164.13 C 148.28 164.39 147.51 165.57 147.77 166.77 C 148.03 167.97 149.21 168.74 150.41 168.48 Z M 151.37 168.27 L 152.35 168.07 C 153.55 167.82 154.32 166.64 154.07 165.44 C 153.82 164.24 152.64 163.47 151.44 163.72 L 150.46 163.93 C 149.26 164.18 148.49 165.35 148.74 166.55 C 148.99 167.75 150.17 168.52 151.37 168.27 Z M 152.34 168.07 L 153.32 167.87 C 154.52 167.63 155.30 166.46 155.06 165.26 C 154.81 164.05 153.64 163.28 152.44 163.52 L 151.46 163.72 C 150.26 163.96 149.48 165.13 149.72 166.33 C 149.96 167.54 151.14 168.31 152.34 168.07 Z M 153.30 167.87 L 154.29 167.68 C 155.49 167.45 156.28 166.29 156.05 165.09 C 155.82 163.88 154.65 163.10 153.45 163.33 L 152.46 163.52 C 151.26 163.75 150.47 164.91 150.70 166.11 C 150.93 167.32 152.10 168.10 153.30 167.87 Z M 154.26 167.69 L 155.23 167.51 C 156.44 167.30 157.24 166.15 157.03 164.94 C 156.81 163.74 155.66 162.94 154.46 163.15 L 153.48 163.32 C 152.28 163.54 151.47 164.69 151.69 165.89 C 151.90 167.10 153.05 167.90 154.26 167.69 Z M 155.20 167.51 L 156.17 167.35 C 157.38 167.16 158.19 166.02 158.00 164.82 C 157.81 163.62 156.68 162.81 155.47 163.00 L 154.50 163.16 C 153.30 163.35 152.48 164.48 152.67 165.68 C 152.87 166.88 154.00 167.70 155.20 167.51 Z M 156.14 167.33 L 157.14 167.19 C 158.34 167.01 159.16 165.90 158.99 164.71 C 158.81 163.52 157.70 162.69 156.51 162.87 L 155.51 163.01 C 154.31 163.19 153.49 164.30 153.66 165.49 C 153.84 166.68 154.95 167.51 156.14 167.33 Z M 157.11 167.17 L 158.12 167.03 C 159.30 166.88 160.13 165.79 159.97 164.61 C 159.82 163.42 158.73 162.59 157.55 162.75 L 156.54 162.89 C 155.36 163.04 154.53 164.13 154.68 165.31 C 154.84 166.50 155.93 167.33 157.11 167.17 Z M 158.07 167.01 L 159.06 166.90 C 160.23 166.77 161.08 165.71 160.94 164.54 C 160.81 163.37 159.76 162.53 158.59 162.66 L 157.59 162.77 C 156.42 162.91 155.58 163.96 155.71 165.13 C 155.85 166.30 156.90 167.14 158.07 167.01 Z M 158.99 166.88 L 160.02 166.80 C 161.18 166.72 162.05 165.70 161.96 164.54 C 161.87 163.38 160.86 162.51 159.70 162.60 L 158.66 162.68 C 157.50 162.77 156.63 163.78 156.72 164.94 C 156.81 166.10 157.82 166.97 158.99 166.88 Z M 159.93 166.79 L 160.91 166.75 C 162.06 166.71 162.96 165.74 162.92 164.59 C 162.87 163.43 161.90 162.54 160.75 162.58 L 159.78 162.61 C 158.63 162.66 157.73 163.63 157.77 164.78 C 157.81 165.93 158.78 166.83 159.93 166.79 Z M 160.86 166.74 L 161.79 166.72 C 162.93 166.71 163.85 165.77 163.83 164.62 C 163.82 163.48 162.88 162.57 161.73 162.58 L 160.80 162.60 C 159.66 162.61 158.74 163.55 158.76 164.69 C 158.77 165.84 159.71 166.75 160.86 166.74 Z M 161.77 166.70 L 162.79 166.70 C 163.92 166.70 164.83 165.78 164.83 164.65 C 164.83 163.51 163.91 162.60 162.78 162.60 L 161.76 162.60 C 160.63 162.60 159.71 163.52 159.71 164.66 C 159.71 165.79 160.64 166.71 161.77 166.70 Z M 162.77 166.69 L 163.76 166.69 C 164.89 166.70 165.81 165.79 165.81 164.66 C 165.82 163.54 164.91 162.62 163.78 162.61 L 162.79 162.61 C 161.66 162.61 160.74 163.51 160.74 164.64 C 160.74 165.77 161.65 166.69 162.77 166.69 Z M 163.69 166.69 L 164.71 166.73 C 165.84 166.78 166.79 165.91 166.83 164.78 C 166.88 163.66 166.01 162.71 164.88 162.66 L 163.86 162.62 C 162.73 162.57 161.78 163.44 161.73 164.57 C 161.69 165.70 162.56 166.65 163.69 166.69 Z M 164.53 166.72 L 165.57 166.85 C 166.68 167.00 167.71 166.21 167.85 165.10 C 168.00 163.98 167.21 162.96 166.10 162.81 L 165.06 162.67 C 163.94 162.53 162.92 163.32 162.77 164.43 C 162.63 165.55 163.41 166.57 164.53 166.72 Z M 165.26 166.79 L 166.25 167.08 C 167.33 167.39 168.46 166.77 168.78 165.69 C 169.09 164.61 168.47 163.48 167.39 163.17 L 166.40 162.88 C 165.32 162.56 164.19 163.18 163.88 164.26 C 163.56 165.34 164.18 166.47 165.26 166.79 Z M 165.85 166.91 L 166.68 167.35 C 167.66 167.89 168.90 167.53 169.43 166.54 C 169.97 165.55 169.60 164.32 168.62 163.78 L 167.79 163.33 C 166.81 162.80 165.57 163.16 165.03 164.15 C 164.50 165.14 164.86 166.37 165.85 166.91 Z M 166.16 166.97 L 166.84 167.70 C 167.62 168.52 168.91 168.55 169.73 167.78 C 170.55 167.00 170.59 165.71 169.81 164.89 L 169.13 164.17 C 168.36 163.35 167.06 163.31 166.24 164.08 C 165.42 164.86 165.39 166.15 166.16 166.97 Z M 166.40 167.05 L 166.76 167.95 C 167.18 169.02 168.38 169.54 169.44 169.12 C 170.51 168.70 171.03 167.50 170.61 166.44 L 170.26 165.53 C 169.84 164.47 168.64 163.95 167.57 164.36 C 166.51 164.78 165.98 165.99 166.40 167.05 Z M 166.57 167.37 L 166.65 168.37 C 166.75 169.54 167.78 170.41 168.95 170.31 C 170.12 170.21 170.98 169.19 170.89 168.02 L 170.80 167.02 C 170.71 165.85 169.68 164.98 168.51 165.08 C 167.34 165.17 166.47 166.20 166.57 167.37 Z M 166.59 167.99 L 166.50 169.02 C 166.39 170.22 167.28 171.28 168.48 171.39 C 169.68 171.50 170.74 170.61 170.85 169.41 L 170.94 168.39 C 171.05 167.19 170.17 166.13 168.97 166.02 C 167.77 165.91 166.70 166.79 166.59 167.99 Z M 166.51 168.70 L 166.28 169.67 C 166.00 170.86 166.74 172.06 167.93 172.34 C 169.13 172.63 170.32 171.89 170.61 170.69 L 170.84 169.73 C 171.12 168.53 170.38 167.34 169.19 167.05 C 167.99 166.77 166.80 167.51 166.51 168.70 Z M 166.37 169.34 L 166.00 170.26 C 165.53 171.41 166.08 172.71 167.23 173.18 C 168.37 173.65 169.68 173.09 170.15 171.95 L 170.52 171.02 C 170.99 169.88 170.44 168.57 169.29 168.11 C 168.14 167.64 166.84 168.19 166.37 169.34 Z M 166.12 169.98 L 165.63 170.84 C 165.01 171.92 165.38 173.29 166.46 173.91 C 167.54 174.53 168.91 174.16 169.53 173.08 L 170.02 172.22 C 170.64 171.15 170.27 169.77 169.19 169.15 C 168.11 168.54 166.74 168.91 166.12 169.98 Z M 165.75 170.66 L 165.24 171.38 C 164.52 172.39 164.76 173.79 165.77 174.51 C 166.78 175.23 168.18 174.99 168.90 173.98 L 169.41 173.26 C 170.13 172.25 169.89 170.84 168.88 170.13 C 167.87 169.41 166.46 169.65 165.75 170.66 Z M 165.36 171.23 L 164.64 172.08 C 163.84 173.03 163.96 174.44 164.90 175.24 C 165.85 176.04 167.26 175.92 168.06 174.98 L 168.78 174.13 C 169.58 173.18 169.46 171.77 168.52 170.97 C 167.57 170.17 166.16 170.29 165.36 171.23 Z M 164.72 172.01 L 164.04 172.73 C 163.20 173.64 163.25 175.05 164.15 175.89 C 165.06 176.73 166.47 176.68 167.31 175.77 L 167.98 175.05 C 168.82 174.15 168.77 172.74 167.87 171.90 C 166.97 171.06 165.56 171.11 164.72 172.01 Z M 164.09 172.70 L 163.35 173.45 C 162.50 174.33 162.51 175.73 163.39 176.59 C 164.26 177.45 165.67 177.43 166.53 176.56 L 167.26 175.81 C 168.12 174.93 168.10 173.53 167.23 172.67 C 166.35 171.81 164.95 171.83 164.09 172.70 Z M 163.41 173.42 L 162.70 174.11 C 161.82 174.96 161.80 176.35 162.65 177.23 C 163.50 178.10 164.89 178.12 165.77 177.27 L 166.48 176.59 C 167.35 175.74 167.37 174.34 166.52 173.47 C 165.68 172.59 164.28 172.57 163.41 173.42 Z M 162.80 174.08 L 162.05 174.74 C 161.16 175.53 161.08 176.90 161.87 177.79 C 162.66 178.68 164.03 178.76 164.92 177.97 L 165.66 177.30 C 166.55 176.51 166.63 175.15 165.84 174.26 C 165.05 173.37 163.69 173.29 162.80 174.08 Z M 162.17 174.74 L 161.42 175.36 C 160.53 176.09 160.39 177.40 161.12 178.29 C 161.84 179.17 163.15 179.31 164.04 178.58 L 164.80 177.96 C 165.69 177.24 165.82 175.93 165.10 175.04 C 164.37 174.15 163.06 174.02 162.17 174.74 Z M 161.46 175.39 L 160.70 176.00 C 159.83 176.70 159.69 177.98 160.40 178.85 C 161.10 179.72 162.37 179.86 163.24 179.16 L 164.00 178.55 C 164.87 177.85 165.01 176.57 164.31 175.70 C 163.61 174.83 162.33 174.69 161.46 175.39 Z M 160.73 176.02 L 159.92 176.66 C 159.05 177.35 158.91 178.61 159.59 179.47 C 160.28 180.33 161.54 180.48 162.40 179.79 L 163.21 179.14 C 164.08 178.46 164.22 177.20 163.54 176.34 C 162.85 175.47 161.59 175.33 160.73 176.02 Z M 159.96 176.67 L 159.14 177.29 C 158.28 177.95 158.12 179.19 158.78 180.05 C 159.44 180.91 160.67 181.08 161.54 180.42 L 162.36 179.79 C 163.22 179.13 163.38 177.89 162.72 177.03 C 162.06 176.17 160.82 176.00 159.96 176.67 Z M 159.23 177.29 L 158.38 177.89 C 157.51 178.50 157.31 179.70 157.92 180.57 C 158.53 181.43 159.73 181.64 160.60 181.03 L 161.45 180.42 C 162.31 179.81 162.52 178.61 161.91 177.75 C 161.29 176.88 160.10 176.67 159.23 177.29 Z M 158.50 177.88 L 157.72 178.37 C 156.85 178.91 156.58 180.06 157.13 180.93 C 157.68 181.81 158.82 182.07 159.70 181.52 L 160.47 181.04 C 161.35 180.49 161.61 179.34 161.06 178.47 C 160.52 177.60 159.37 177.33 158.50 177.88 Z M 157.82 178.35 L 156.95 178.84 C 156.06 179.33 155.75 180.44 156.24 181.32 C 156.73 182.20 157.84 182.52 158.72 182.03 L 159.59 181.54 C 160.48 181.05 160.79 179.94 160.30 179.06 C 159.81 178.18 158.70 177.86 157.82 178.35 Z M 156.99 178.83 L 156.31 179.19 C 155.43 179.65 155.08 180.74 155.55 181.63 C 156.01 182.51 157.10 182.86 157.99 182.39 L 158.67 182.03 C 159.55 181.57 159.90 180.48 159.43 179.59 C 158.97 178.71 157.88 178.37 156.99 178.83 Z"
      fill="black"
      fill-rule="nonzero" /><path d="M 149.23 168.79 L 148.29 168.16 C 147.41 167.58 146.23 167.81 145.64 168.69 C 145.05 169.57 145.28 170.76 146.16 171.34 L 147.10 171.97 C 147.98 172.56 149.17 172.32 149.75 171.45 C 150.34 170.57 150.11 169.38 149.23 168.79 Z M 145.99 168.12 L 145.54 168.45 C 144.64 169.14 144.46 170.43 145.15 171.33 C 145.83 172.23 147.12 172.41 148.03 171.73 L 148.47 171.39 C 149.37 170.71 149.55 169.42 148.86 168.51 C 148.18 167.61 146.89 167.43 145.99 168.12 Z M 144.69 170.21 L 144.75 171.34 C 144.82 172.50 145.82 173.38 146.98 173.32 C 148.14 173.25 149.02 172.25 148.95 171.09 L 148.89 169.96 C 148.82 168.80 147.82 167.92 146.66 167.99 C 145.50 168.06 144.62 169.05 144.69 170.21 Z M 144.77 171.56 L 144.93 172.54 C 145.12 173.69 146.20 174.47 147.35 174.28 C 148.50 174.09 149.28 173.01 149.09 171.86 L 148.93 170.87 C 148.75 169.73 147.66 168.95 146.51 169.13 C 145.36 169.32 144.58 170.41 144.77 171.56 Z M 144.93 172.55 L 145.10 173.53 C 145.29 174.67 146.38 175.45 147.53 175.26 C 148.68 175.06 149.45 173.97 149.26 172.83 L 149.09 171.85 C 148.90 170.70 147.81 169.92 146.66 170.12 C 145.51 170.31 144.74 171.40 144.93 172.55 Z M 145.09 173.47 L 145.23 174.47 C 145.40 175.62 146.46 176.43 147.62 176.26 C 148.77 176.10 149.57 175.03 149.41 173.87 L 149.27 172.88 C 149.10 171.72 148.03 170.92 146.88 171.09 C 145.73 171.25 144.92 172.32 145.09 173.47 Z M 145.23 174.42 L 145.35 175.41 C 145.49 176.56 146.53 177.39 147.68 177.25 C 148.84 177.11 149.66 176.07 149.53 174.92 L 149.41 173.92 C 149.27 172.77 148.23 171.95 147.07 172.08 C 145.92 172.22 145.10 173.27 145.23 174.42 Z M 145.36 175.36 L 145.46 176.36 C 145.57 177.51 146.59 178.35 147.73 178.24 C 148.88 178.13 149.72 177.11 149.61 175.96 L 149.51 174.96 C 149.40 173.82 148.38 172.98 147.24 173.09 C 146.09 173.20 145.25 174.22 145.36 175.36 Z M 145.48 176.32 L 145.55 177.21 C 145.64 178.34 146.63 179.19 147.76 179.10 C 148.89 179.01 149.74 178.02 149.65 176.89 L 149.59 176.01 C 149.50 174.87 148.51 174.02 147.37 174.11 C 146.24 174.20 145.39 175.19 145.48 176.32 Z M 145.59 177.17 L 145.64 178.13 C 145.71 179.24 146.67 180.09 147.78 180.02 C 148.90 179.95 149.74 179.00 149.68 177.88 L 149.62 176.92 C 149.55 175.81 148.59 174.96 147.48 175.03 C 146.37 175.10 145.52 176.06 145.59 177.17 Z M 145.68 178.10 L 145.74 179.22 C 145.79 180.31 146.72 181.16 147.82 181.10 C 148.91 181.04 149.75 180.11 149.70 179.02 L 149.64 177.90 C 149.59 176.81 148.65 175.97 147.56 176.02 C 146.47 176.08 145.62 177.01 145.68 178.10 Z M 145.75 179.21 L 145.80 180.10 C 145.85 181.18 146.76 182.02 147.85 181.97 C 148.93 181.92 149.77 181.00 149.72 179.92 L 149.68 179.03 C 149.63 177.95 148.71 177.11 147.63 177.16 C 146.54 177.21 145.70 178.13 145.75 179.21 Z M 145.80 180.09 L 145.84 181.09 C 145.89 182.17 146.81 183.01 147.89 182.96 C 148.97 182.91 149.80 182.00 149.76 180.92 L 149.71 179.92 C 149.67 178.84 148.75 178.01 147.67 178.05 C 146.59 178.10 145.75 179.01 145.80 180.09 Z M 145.85 181.09 L 145.90 182.15 C 145.94 183.22 146.85 184.06 147.93 184.01 C 149.01 183.97 149.84 183.06 149.80 181.98 L 149.75 180.92 C 149.71 179.84 148.79 179.01 147.72 179.05 C 146.64 179.10 145.80 180.01 145.85 181.09 Z M 145.90 182.15 L 145.95 183.24 C 145.99 184.32 146.90 185.15 147.98 185.10 C 149.05 185.06 149.88 184.15 149.84 183.08 L 149.79 181.98 C 149.75 180.91 148.84 180.07 147.76 180.12 C 146.69 180.16 145.86 181.07 145.90 182.15 Z"
      fill="black"
      fill-rule="nonzero" /><path d="M 151.94 169.21 L 152.70 169.85 C 153.51 170.53 154.72 170.43 155.41 169.62 C 156.09 168.81 155.99 167.60 155.18 166.91 L 154.43 166.27 C 153.62 165.59 152.41 165.69 151.72 166.50 C 151.03 167.31 151.13 168.52 151.94 169.21 Z M 152.12 169.49 L 152.63 170.32 C 153.24 171.33 154.55 171.64 155.56 171.03 C 156.56 170.42 156.88 169.10 156.27 168.10 L 155.76 167.27 C 155.15 166.26 153.83 165.94 152.83 166.56 C 151.82 167.17 151.50 168.48 152.12 169.49 Z M 152.28 169.71 L 152.50 170.68 C 152.77 171.88 153.97 172.63 155.17 172.35 C 156.37 172.08 157.11 170.89 156.84 169.69 L 156.62 168.71 C 156.34 167.51 155.15 166.76 153.95 167.04 C 152.75 167.31 152.00 168.51 152.28 169.71 Z M 152.44 170.43 L 152.55 171.44 C 152.69 172.67 153.79 173.56 155.02 173.42 C 156.25 173.29 157.14 172.19 157.01 170.96 L 156.90 169.94 C 156.76 168.71 155.66 167.82 154.43 167.96 C 153.20 168.09 152.31 169.20 152.44 170.43 Z M 152.54 171.37 L 152.62 172.35 C 152.71 173.58 153.79 174.51 155.03 174.41 C 156.26 174.32 157.19 173.24 157.09 172.00 L 157.02 171.03 C 156.92 169.79 155.84 168.87 154.61 168.96 C 153.37 169.06 152.45 170.13 152.54 171.37 Z M 152.62 172.31 L 152.68 173.30 C 152.75 174.53 153.81 175.47 155.05 175.40 C 156.28 175.32 157.22 174.26 157.15 173.03 L 157.09 172.04 C 157.02 170.81 155.96 169.86 154.72 169.94 C 153.49 170.01 152.54 171.07 152.62 172.31 Z M 152.68 173.27 L 152.73 174.23 C 152.79 175.47 153.84 176.42 155.07 176.36 C 156.31 176.30 157.26 175.25 157.20 174.01 L 157.15 173.05 C 157.09 171.82 156.04 170.87 154.80 170.93 C 153.57 170.99 152.62 172.04 152.68 173.27 Z M 152.73 174.20 L 152.76 175.26 C 152.81 176.49 153.84 177.46 155.08 177.41 C 156.31 177.37 157.28 176.34 157.23 175.10 L 157.20 174.05 C 157.15 172.81 156.12 171.85 154.88 171.89 C 153.65 171.93 152.68 172.97 152.73 174.20 Z M 152.77 175.22 L 152.79 176.26 C 152.81 177.49 153.82 178.48 155.06 178.45 C 156.29 178.43 157.27 177.42 157.25 176.19 L 157.23 175.14 C 157.21 173.91 156.19 172.93 154.96 172.95 C 153.73 172.97 152.75 173.99 152.77 175.22 Z M 152.80 176.24 L 152.80 177.26 C 152.81 178.49 153.81 179.48 155.04 179.47 C 156.26 179.46 157.25 178.46 157.24 177.24 L 157.24 176.21 C 157.23 174.99 156.23 174.00 155.00 174.01 C 153.78 174.01 152.79 175.01 152.80 176.24 Z M 152.82 177.25 L 152.82 178.22 C 152.82 179.44 153.81 180.43 155.03 180.43 C 156.24 180.43 157.23 179.44 157.23 178.22 L 157.23 177.25 C 157.23 176.03 156.24 175.04 155.02 175.04 C 153.80 175.04 152.82 176.03 152.82 177.25 Z M 152.83 178.22 L 152.83 179.27 C 152.83 180.48 153.81 181.46 155.02 181.46 C 156.24 181.46 157.22 180.48 157.22 179.27 L 157.22 178.22 C 157.22 177.01 156.24 176.03 155.02 176.03 C 153.81 176.03 152.83 177.01 152.83 178.22 Z M 152.84 179.27 L 152.84 180.19 C 152.84 181.39 153.82 182.37 155.02 182.37 C 156.23 182.37 157.21 181.39 157.21 180.19 L 157.21 179.27 C 157.21 178.06 156.23 177.08 155.02 177.08 C 153.82 177.08 152.84 178.06 152.84 179.27 Z M 152.85 180.19 L 152.85 181.17 C 152.85 182.37 153.82 183.34 155.02 183.34 C 156.22 183.34 157.20 182.37 157.20 181.17 L 157.20 180.19 C 157.20 178.99 156.22 178.01 155.02 178.01 C 153.82 178.01 152.85 178.99 152.85 180.19 Z M 152.86 181.17 L 152.86 182.19 C 152.86 183.38 153.83 184.35 155.02 184.35 C 156.22 184.35 157.19 183.38 157.19 182.19 L 157.19 181.17 C 157.19 179.98 156.22 179.01 155.02 179.01 C 153.83 179.01 152.86 179.97 152.86 181.17 Z M 152.88 182.17 L 152.87 183.18 C 152.86 184.37 153.82 185.33 155.00 185.34 C 156.19 185.35 157.16 184.39 157.16 183.21 L 157.17 182.20 C 157.18 181.02 156.22 180.05 155.04 180.04 C 153.85 180.03 152.88 180.99 152.88 182.17 Z M 152.89 183.14 L 152.87 184.14 C 152.83 185.32 153.76 186.29 154.93 186.32 C 156.10 186.36 157.08 185.43 157.11 184.26 L 157.14 183.25 C 157.17 182.08 156.25 181.10 155.08 181.07 C 153.90 181.04 152.93 181.96 152.89 183.14 Z M 152.89 184.07 L 152.83 185.06 C 152.76 186.22 153.63 187.22 154.79 187.29 C 155.95 187.37 156.95 186.49 157.02 185.33 L 157.09 184.34 C 157.16 183.18 156.28 182.18 155.12 182.11 C 153.96 182.03 152.97 182.91 152.89 184.07 Z M 152.86 184.99 L 152.76 185.98 C 152.64 187.12 153.48 188.14 154.62 188.25 C 155.76 188.37 156.78 187.53 156.89 186.39 L 156.99 185.40 C 157.11 184.26 156.28 183.24 155.13 183.13 C 153.99 183.01 152.97 183.85 152.86 184.99 Z M 152.79 185.93 L 152.67 186.93 C 152.53 188.05 153.33 189.08 154.45 189.22 C 155.58 189.36 156.60 188.56 156.74 187.43 L 156.86 186.44 C 157.00 185.31 156.20 184.29 155.08 184.15 C 153.95 184.01 152.93 184.81 152.79 185.93 Z M 152.69 186.94 L 152.57 187.94 C 152.43 189.05 153.22 190.06 154.33 190.20 C 155.45 190.33 156.46 189.54 156.59 188.43 L 156.71 187.43 C 156.85 186.32 156.06 185.30 154.95 185.17 C 153.84 185.03 152.83 185.82 152.69 186.94 Z M 152.59 187.95 L 152.48 188.94 C 152.35 190.04 153.14 191.04 154.23 191.16 C 155.33 191.29 156.32 190.51 156.45 189.41 L 156.57 188.42 C 156.70 187.32 155.91 186.33 154.81 186.20 C 153.71 186.07 152.72 186.86 152.59 187.95 Z M 152.50 188.92 L 152.37 189.92 C 152.23 191.00 153.00 192.00 154.08 192.14 C 155.16 192.28 156.16 191.51 156.30 190.43 L 156.43 189.43 C 156.57 188.35 155.80 187.36 154.72 187.22 C 153.64 187.07 152.64 187.84 152.50 188.92 Z M 152.40 189.88 L 152.26 190.86 C 152.09 191.93 152.83 192.92 153.90 193.08 C 154.97 193.24 155.96 192.51 156.12 191.44 L 156.27 190.47 C 156.43 189.40 155.69 188.40 154.63 188.24 C 153.56 188.08 152.56 188.82 152.40 189.88 Z M 152.28 190.83 L 152.12 191.82 C 151.94 192.88 152.65 193.87 153.70 194.05 C 154.75 194.23 155.75 193.52 155.93 192.46 L 156.10 191.47 C 156.27 190.42 155.56 189.42 154.51 189.24 C 153.46 189.07 152.46 189.78 152.28 190.83 Z M 152.14 191.81 L 151.97 192.77 C 151.78 193.81 152.48 194.80 153.51 194.99 C 154.55 195.17 155.54 194.48 155.73 193.44 L 155.90 192.48 C 156.09 191.44 155.40 190.45 154.36 190.26 C 153.32 190.08 152.33 190.77 152.14 191.81 Z M 152.02 192.68 L 151.79 193.65 C 151.56 194.66 152.19 195.67 153.20 195.91 C 154.21 196.14 155.22 195.51 155.46 194.50 L 155.68 193.53 C 155.92 192.52 155.29 191.51 154.27 191.27 C 153.26 191.04 152.25 191.67 152.02 192.68 Z M 151.89 193.42 L 151.54 194.34 C 151.18 195.30 151.66 196.37 152.62 196.73 C 153.58 197.10 154.65 196.61 155.01 195.65 L 155.36 194.73 C 155.72 193.77 155.24 192.70 154.28 192.34 C 153.32 191.98 152.25 192.46 151.89 193.42 Z M 151.62 194.21 L 151.18 195.13 C 150.74 196.05 151.13 197.15 152.05 197.58 C 152.97 198.02 154.06 197.63 154.50 196.71 L 154.93 195.79 C 155.37 194.87 154.98 193.78 154.06 193.34 C 153.15 192.91 152.05 193.30 151.62 194.21 Z M 151.20 195.11 L 151.15 195.21 C 150.71 196.11 151.08 197.21 151.98 197.66 C 152.89 198.10 153.98 197.73 154.43 196.83 L 154.48 196.73 C 154.92 195.83 154.55 194.73 153.65 194.29 C 152.74 193.84 151.65 194.21 151.20 195.11 Z"
      fill="black"
      fill-rule="nonzero" /></svg>