<svg xmlns="http://www.w3.org/2000/svg" width="300" height="300" viewBox="0 0 300 300">
<path d="M 149.5 122.5 L 149.5 122.5 L 149.5 123.5 L 149.5 124.5 L 150.5 127.0 L 151.5 133.5 L 152.0 142.0 L 152.0 145.5 L 152.0 155.5 L 151.5 158.5 L 151.0 165.5 L 150.5 167.5 L 150.0 170.0 L 150.0 170.5 L 150.0 170.5 L 150.0 170.0 L 150.0 167.0 " stroke="black" fill="none" stroke-width="3.0" stroke-linecap="round" stroke-linejoin="round" />
<path d="M 151.0 149.5 L 151.0 150.0 L 151.0 150.0 L 153.5 150.0 L 158.0 149.5 L 163.0 148.5 L 167.0 147.5 L 167.5 147.0 L 167.5 147.0 " stroke="black" fill="none" stroke-width="3.0" stroke-linecap="round" stroke-linejoin="round" />
<path d="M 128.5 175.5 L 128.5 175.5 L 129.0 175.5 L 131.5 175.5 L 139.0 174.5 L 149.0 174.0 L 158.0 174.0 L 165.5 173.5 L 169.0 173.5 L 169.5 173.5 L 171.5 173.0 L 171.5 173.0 L 172.0 173.0 L 172.0 173.0 L 172.0 173.0 L 171.5 173.0 L 171.0 173.0 " stroke="black" fill="none" stroke-width="3.0" stroke-linecap="round" stroke-linejoin="round" />
</svg>