<svg xmlns="http://www.w3.org/2000/svg" width="300" height="300" viewBox="0 0 300 300">
<path d="M 130.0 113.5 L 130.0 113.5 L 129.5 113.5 L 129.5 113.5 L 129.5 113.5 L 134.0 113.5 L 142.5 113.5 L 153.5 113.5 L 162.0 113.5 L 165.5 114.0 L 165.5 115.0 L 164.0 116.0 L 162.5 117.5 L 162.0 118.0 L 160.0 120.0 L 159.5 120.0 L 158.0 122.0 L 157.5 122.5 L 155.0 125.0 L 152.5 128.0 L 151.0 129.5 " stroke="black" fill="none" stroke-width="3.0" stroke-linecap="round" stroke-linejoin="round" />
<path d="M 142.0 128.0 L 142.0 128.0 L 142.0 128.0 L 142.5 128.5 L 145.5 130.0 L 148.5 132.0 L 149.5 132.5 L 153.0 134.0 L 153.5 134.5 L 155.0 135.5 " stroke="black" fill="none" stroke-width="3.0" stroke-linecap="round" stroke-linejoin="round" />
<path d="M 129.0 140.0 L 128.5 140.0 L 129.5 140.0 L 135.0 140.0 L 144.5 140.0 L 155.5 139.5 L 163.0 139.5 L 165.0 139.5 L 169.0 140.0 L 170.0 140.0 L 171.5 141.5 L 171.5 142.5 L 171.5 143.5 L 170.0 145.0 L 168.5 146.5 L 166.5 148.5 L 164.0 150.5 L 163.0 151.5 " stroke="black" fill="none" stroke-width="3.0" stroke-linecap="round" stroke-linejoin="round" />
<path d="M 150.0 141.0 L 150.0 140.5 L 149.5 140.5 L 149.5 140.5 L 149.5 140.5 L 149.5 141.0 L 150.5 145.0 L 152.0 153.0 L 153.0 163.0 L 153.0 171.5 L 152.0 177.0 L 151.0 179.0 L 150.0 179.0 L 149.0 179.0 L 148.5 178.5 L 146.5 177.0 L 145.0 175.0 L 144.5 174.5 L 143.5 173.0 " stroke="black" fill="none" stroke-width="3.0" stroke-linecap="round" stroke-linejoin="round" />
</svg>