<svg xmlns="http://www.w3.org/2000/svg" width="300" height="300" viewBox="0 0 300 300">
<path d="M 129.0 120.0 L 129.0 119.5 L 129.0 119.0 L 129.0 119.0 L 129.0 118.5 L 129.0 118.5 L 129.0 118.5 L 129.0 118.5 L 128.0 119.5 L 125.0 125.5 L 120.0 136.5 L 114.5 149.5 L 112.0 155.5 L 111.5 156.5 L 111.5 156.5 L 111.5 156.5 " stroke="black" fill="none" stroke-width="3.0" stroke-linecap="round" stroke-linejoin="round" />
<path d="M 116.5 146.0 L 118.5 143.5 L 120.0 142.0 L 121.5 141.5 L 122.0 142.5 L 123.0 145.5 L 123.5 149.5 L 123.5 151.5 L 124.0 157.0 L 124.5 159.5 L 125.0 166.5 L 125.5 168.5 L 126.5 175.5 L 127.0 178.0 L 127.0 178.0 L 127.0 176.5 " stroke="black" fill="none" stroke-width="3.0" stroke-linecap="round" stroke-linejoin="round" />
<path d="M 142.5 123.0 L 142.5 123.0 L 142.0 123.5 L 142.0 123.5 L 142.0 123.5 L 143.5 123.5 L 144.5 123.5 L 149.0 122.5 L 151.0 122.0 L 157.5 120.0 L 159.5 119.5 L 163.5 118.0 " stroke="black" fill="none" stroke-width="3.0" stroke-linecap="round" stroke-linejoin="round" />
<path d="M 151.5 116.5 L 151.5 116.5 L 151.5 116.5 L 151.0 116.5 L 151.0 116.5 L 151.0 117.0 L 151.0 122.0 L 151.0 131.5 L 150.5 139.0 L 149.5 141.0 L 149.5 141.0 L 149.5 141.0 L 150.5 140.0 L 151.5 140.0 L 154.0 138.5 L 155.5 138.5 L 161.0 136.0 L 166.0 133.5 L 168.0 133.0 " stroke="black" fill="none" stroke-width="3.0" stroke-linecap="round" stroke-linejoin="round" />
<path d="M 147.5 155.5 L 147.5 155.5 L 147.5 155.5 L 149.0 155.5 L 154.0 154.0 L 161.0 151.5 L 165.5 150.0 L 167.0 149.5 " stroke="black" fill="none" stroke-width="3.0" stroke-linecap="round" stroke-linejoin="round" />
<path d="M 157.0 145.5 L 157.0 145.5 L 157.0 145.5 L 157.0 145.5 L 157.0 146.5 L 157.5 150.0 L 158.0 152.0 L 158.0 163.0 L 158.0 170.5 L 157.5 172.5 L 157.0 175.5 L 157.0 176.0 L 157.0 175.5 L 157.0 174.5 L 160.0 173.5 L 164.5 171.0 L 170.0 168.0 L 175.0 166.0 L 177.5 165.0 L 178.5 164.5 L 179.5 164.5 " stroke="black" fill="none" stroke-width="3.0" stroke-linecap="round" stroke-linejoin="round" />
</svg>