<svg xmlns="http://www.w3.org/2000/svg" width="300" height="300" viewBox="0 0 300 300">
<path d="M 152.5 125.0 L 152.5 122.5 L 152.5 122.5 L 152.5 122.5 L 152.5 122.5 L 152.5 122.5 L 151.5 124.0 L 151.0 124.5 L 148.5 129.5 L 144.5 137.0 L 139.5 146.0 L 136.0 152.0 L 136.0 152.5 L 139.0 151.0 L 142.5 149.0 L 143.5 148.0 L 147.5 145.5 L 148.5 144.5 L 153.5 142.0 L 158.0 142.0 L 161.5 145.5 L 164.0 149.5 L 165.5 152.0 L 166.5 153.0 L 166.5 153.0 L 166.5 153.0 " stroke="black" fill="none" stroke-width="3.0" stroke-linecap="round" stroke-linejoin="round" />
<path d="M 148.0 157.5 L 148.0 157.5 L 148.0 157.5 L 148.0 157.5 L 148.5 157.5 L 149.5 157.5 L 149.5 159.5 L 148.0 164.5 L 144.5 171.5 L 138.0 179.0 L 132.5 183.5 L 130.0 184.5 L 129.5 184.5 L 129.0 184.0 L 129.0 183.0 " stroke="black" fill="none" stroke-width="3.0" stroke-linecap="round" stroke-linejoin="round" />
<path d="M 157.5 167.5 L 158.5 167.5 L 159.5 168.5 L 159.5 168.5 L 160.0 171.0 L 160.0 174.0 L 159.5 175.0 L 159.0 179.0 L 158.5 183.0 L 161.0 185.0 L 165.0 186.0 L 170.0 185.5 L 175.0 182.5 L 178.5 180.5 L 179.0 179.5 L 181.0 176.5 L 181.0 174.0 L 178.5 171.5 " stroke="black" fill="none" stroke-width="3.0" stroke-linecap="round" stroke-linejoin="round" />
</svg>