<svg xmlns="http://www.w3.org/2000/svg" width="300" height="300" viewBox="0 0 300 300">
<path d="M 116.0 127.5 L 116.0 129.0 L 117.0 131.0 L 118.5 134.5 L 121.0 137.5 L 123.0 139.0 L 123.5 139.5 " stroke="black" fill="none" stroke-width="3.0" stroke-linecap="round" stroke-linejoin="round" />
<path d="M 120.5 130.5 L 120.0 130.5 L 120.0 130.5 L 121.0 130.5 L 125.0 130.5 L 131.5 130.0 L 134.0 129.5 L 147.0 128.5 L 159.5 127.5 L 169.0 127.5 L 175.0 128.0 L 178.0 128.5 L 179.0 128.5 L 179.0 129.5 L 179.0 130.5 L 179.0 131.0 L 178.0 132.5 L 177.5 133.5 L 177.5 134.0 L 177.5 134.5 L 177.0 135.0 L 177.0 136.5 L 176.5 138.0 L 176.0 140.0 L 175.0 142.5 " stroke="black" fill="none" stroke-width="3.0" stroke-linecap="round" stroke-linejoin="round" />
<path d="M 125.0 152.0 L 125.0 152.0 L 125.0 152.0 L 125.0 152.0 L 125.0 152.0 L 127.5 151.0 L 133.5 150.0 L 140.0 149.5 L 144.0 149.5 " stroke="black" fill="none" stroke-width="3.0" stroke-linecap="round" stroke-linejoin="round" />
<path d="M 123.5 163.5 L 123.0 163.5 L 125.0 162.5 L 131.0 160.0 L 139.0 158.0 L 143.5 158.0 L 144.0 158.5 L 143.5 160.0 L 143.0 160.5 L 141.5 161.5 L 141.0 162.0 L 139.0 164.0 L 137.0 167.0 L 134.0 171.5 L 130.0 177.0 L 125.5 183.0 L 122.5 187.0 L 121.5 188.0 L 121.5 187.5 L 122.0 187.0 L 124.0 184.5 L 125.0 183.5 " stroke="black" fill="none" stroke-width="3.0" stroke-linecap="round" stroke-linejoin="round" />
<path d="M 136.0 171.0 L 138.0 169.5 L 140.0 169.0 L 140.5 169.0 L 141.0 172.5 L 141.0 178.0 L 141.0 183.0 L 142.5 187.0 L 146.5 189.0 L 153.0 189.0 L 161.5 186.0 L 169.0 183.5 L 174.5 180.5 L 176.5 179.0 " stroke="black" fill="none" stroke-width="3.0" stroke-linecap="round" stroke-linejoin="round" />
<path d="M 155.0 157.5 L 155.0 157.5 L 155.0 157.5 L 155.0 157.5 L 156.5 157.5 L 161.0 155.5 L 168.0 154.0 L 172.5 152.5 L 174.0 152.0 " stroke="black" fill="none" stroke-width="3.0" stroke-linecap="round" stroke-linejoin="round" />
<path d="M 166.5 146.0 L 165.0 144.5 L 164.5 143.5 L 164.5 144.0 L 165.0 148.5 L 165.5 156.5 L 165.5 169.0 L 166.0 180.5 L 166.0 185.5 L 166.0 186.0 L 166.0 186.0 L 165.5 185.5 L 165.5 185.0 L 165.0 184.5 " stroke="black" fill="none" stroke-width="3.0" stroke-linecap="round" stroke-linejoin="round" />
<path d="M 149.0 173.5 L 149.0 173.5 L 148.5 173.5 L 148.5 173.5 L 149.0 173.0 L 150.0 173.0 L 156.0 172.0 L 160.5 171.5 " stroke="black" fill="none" stroke-width="3.0" stroke-linecap="round" stroke-linejoin="round" />
</svg>