<svg xmlns="http://www.w3.org/2000/svg" width="300" height="300" viewBox="0 0 300 300">
<path d="M 122.0 121.5 L 121.5 122.0 L 120.5 122.5 L 120.5 123.0 L 122.5 123.0 L 128.5 123.5 L 136.0 123.5 L 138.5 123.5 L 148.0 121.5 L 151.0 120.5 L 158.5 117.5 L 160.0 116.5 L 164.5 114.0 L 164.5 113.5 " stroke="black" fill="none" stroke-width="3.0" stroke-linecap="round" stroke-linejoin="round" />
<path d="M 146.5 109.5 L 146.5 109.0 L 146.0 109.0 L 146.0 109.0 L 147.0 110.5 L 147.5 116.0 L 147.5 124.0 L 147.5 127.0 L 145.0 138.5 L 143.0 144.0 L 142.5 145.0 L 141.0 146.0 L 141.0 145.5 L 143.5 144.5 L 148.0 142.0 L 152.5 138.5 L 156.0 136.5 L 156.5 136.0 L 157.5 135.0 L 157.5 135.0 L 157.0 135.5 " stroke="black" fill="none" stroke-width="3.0" stroke-linecap="round" stroke-linejoin="round" />
<path d="M 141.5 157.0 L 141.5 157.0 L 141.5 157.0 L 141.5 157.0 L 141.5 157.0 L 141.5 157.5 L 142.0 158.0 L 143.0 162.5 L 144.5 170.0 L 145.5 178.5 L 146.0 184.0 L 146.0 185.0 " stroke="black" fill="none" stroke-width="3.0" stroke-linecap="round" stroke-linejoin="round" />
<path d="M 144.0 172.5 L 145.5 169.0 L 147.5 166.5 L 149.0 166.0 L 154.0 164.5 L 160.0 164.0 L 164.5 164.5 L 165.5 167.0 L 164.5 170.5 L 161.0 175.0 L 157.5 179.0 L 156.0 180.0 L 151.5 184.5 L 148.5 186.5 L 147.5 187.0 L 146.0 187.5 " stroke="black" fill="none" stroke-width="3.0" stroke-linecap="round" stroke-linejoin="round" />
</svg>