<svg xmlns="http://www.w3.org/2000/svg" width="300" height="300" viewBox="0 0 300 300">
<path d="M 113.0 143.5 L 113.5 144.0 L 114.5 145.5 L 117.0 149.0 L 119.0 153.0 L 120.0 154.0 L 121.5 157.0 L 122.0 158.0 L 123.0 159.0 " stroke="black" fill="none" stroke-width="3.0" stroke-linecap="round" stroke-linejoin="round" />
<path d="M 119.5 151.0 L 118.5 147.5 L 119.5 145.5 L 122.0 144.0 L 124.5 144.0 L 125.0 144.0 L 127.5 144.5 L 128.0 145.0 L 129.0 148.0 L 129.0 148.5 L 128.5 153.0 L 127.0 157.5 L 125.0 160.5 L 124.0 161.0 L 124.0 161.0 " stroke="black" fill="none" stroke-width="3.0" stroke-linecap="round" stroke-linejoin="round" />
<path d="M 141.5 112.5 L 141.5 112.5 L 141.5 112.5 L 141.5 113.0 L 143.0 114.0 L 146.0 115.5 L 148.5 116.5 " stroke="black" fill="none" stroke-width="3.0" stroke-linecap="round" stroke-linejoin="round" />
<path d="M 159.5 113.0 L 160.0 112.5 L 159.0 112.5 L 156.0 114.5 L 150.5 119.0 L 145.5 124.0 L 142.0 127.5 L 141.5 128.5 L 141.5 128.5 L 142.0 128.5 L 142.5 128.5 L 145.5 127.5 L 149.5 126.0 L 154.5 124.0 L 158.5 122.5 L 159.5 122.5 " stroke="black" fill="none" stroke-width="3.0" stroke-linecap="round" stroke-linejoin="round" />
<path d="M 142.5 138.5 L 142.5 139.0 L 143.5 139.0 L 146.5 137.5 L 152.0 135.0 L 155.5 133.0 " stroke="black" fill="none" stroke-width="3.0" stroke-linecap="round" stroke-linejoin="round" />
<path d="M 151.0 130.0 L 150.5 130.0 L 150.0 130.0 L 150.0 130.5 L 150.0 132.5 L 151.0 136.0 L 151.0 139.5 " stroke="black" fill="none" stroke-width="3.0" stroke-linecap="round" stroke-linejoin="round" />
<path d="M 137.0 148.5 L 136.5 148.5 L 136.0 148.5 L 138.0 148.5 L 143.5 147.0 L 150.5 144.5 L 157.5 142.0 L 160.0 141.5 L 160.5 141.5 L 160.5 141.5 L 160.0 141.5 L 157.0 142.5 L 154.0 143.5 L 151.5 144.5 L 149.5 146.0 L 148.0 148.5 L 146.0 153.5 L 143.5 159.0 L 143.0 161.0 L 139.5 167.0 L 138.0 169.0 L 134.5 174.5 L 134.0 176.0 L 132.0 179.0 L 131.5 179.0 " stroke="black" fill="none" stroke-width="3.0" stroke-linecap="round" stroke-linejoin="round" />
<path d="M 144.5 163.5 L 144.5 163.5 L 146.0 162.5 L 149.0 160.5 L 154.5 158.0 L 159.5 156.0 L 161.5 155.5 " stroke="black" fill="none" stroke-width="3.0" stroke-linecap="round" stroke-linejoin="round" />
<path d="M 157.0 158.5 L 156.0 159.0 L 155.5 159.5 L 155.5 160.0 L 155.5 160.0 L 155.5 160.0 L 156.0 161.0 L 156.5 163.5 L 156.5 167.0 L 156.0 171.5 L 154.0 174.5 L 151.0 176.5 L 149.0 177.5 L 148.5 177.5 L 148.0 178.0 L 148.0 178.0 L 148.0 178.5 L 148.5 178.5 L 151.0 178.5 L 152.0 178.5 L 158.0 178.5 L 165.5 177.5 L 173.0 176.0 L 175.5 175.5 " stroke="black" fill="none" stroke-width="3.0" stroke-linecap="round" stroke-linejoin="round" />
</svg>