<svg xmlns="http://www.w3.org/2000/svg" width="300" height="300" viewBox="0 0 300 300">
<path d="M 126.5 129.0 L 126.0 131.5 L 126.0 134.5 L 126.0 135.5 L 126.5 142.0 L 126.5 144.5 L 126.5 153.0 L 126.5 155.5 L 126.5 166.0 L 126.0 173.0 L 126.0 174.5 L 126.0 173.0 L 126.5 172.0 " stroke="black" fill="none" stroke-width="3.0" stroke-linecap="round" stroke-linejoin="round" />
<path d="M 135.0 115.0 L 135.0 115.5 L 135.0 115.5 L 136.5 115.5 L 140.5 115.5 L 142.5 115.5 L 151.5 115.0 L 162.0 115.0 L 169.0 116.5 L 172.0 118.0 L 172.5 119.5 L 173.0 121.5 L 173.5 123.5 L 173.5 124.5 L 174.5 128.5 L 175.5 134.0 L 175.5 141.5 L 175.5 151.0 L 175.5 161.0 L 174.5 170.5 L 174.0 178.5 L 173.5 182.5 L 173.0 183.5 L 172.5 185.5 L 172.5 185.5 L 172.0 186.5 L 171.5 186.5 L 171.5 185.5 L 171.5 182.0 L 171.5 181.0 " stroke="black" fill="none" stroke-width="3.0" stroke-linecap="round" stroke-linejoin="round" />
<path d="M 141.5 119.0 L 141.5 121.5 L 141.5 125.0 L 141.5 130.0 L 142.5 134.0 L 143.0 136.0 L 143.0 136.0 " stroke="black" fill="none" stroke-width="3.0" stroke-linecap="round" stroke-linejoin="round" />
<path d="M 143.0 121.5 L 143.0 121.0 L 145.0 120.5 L 150.0 120.5 L 157.5 121.0 L 163.5 123.5 L 166.0 126.5 L 166.0 129.5 L 166.0 130.0 L 164.0 133.0 L 161.5 134.5 " stroke="black" fill="none" stroke-width="3.0" stroke-linecap="round" stroke-linejoin="round" />
<path d="M 148.0 122.0 L 147.5 123.0 L 147.5 124.0 L 147.5 127.0 L 148.5 131.5 L 149.5 134.5 " stroke="black" fill="none" stroke-width="3.0" stroke-linecap="round" stroke-linejoin="round" />
<path d="M 157.5 124.5 L 157.5 124.5 L 157.5 124.0 L 157.5 125.0 L 157.0 128.0 L 155.0 132.0 L 154.0 133.0 " stroke="black" fill="none" stroke-width="3.0" stroke-linecap="round" stroke-linejoin="round" />
<path d="M 142.5 137.5 L 142.0 137.5 L 142.0 137.5 L 143.5 137.5 L 148.0 137.5 L 154.5 137.5 L 160.0 137.5 L 162.5 138.0 " stroke="black" fill="none" stroke-width="3.0" stroke-linecap="round" stroke-linejoin="round" />
<path d="M 152.0 138.0 L 152.0 138.0 L 152.0 138.0 L 152.0 138.0 L 152.0 138.0 L 152.0 139.0 L 152.5 141.0 L 153.0 143.5 L 153.0 144.0 " stroke="black" fill="none" stroke-width="3.0" stroke-linecap="round" stroke-linejoin="round" />
<path d="M 139.0 149.0 L 139.0 149.0 L 139.0 149.0 L 139.5 149.0 L 143.0 148.5 L 150.0 148.5 L 158.0 148.0 L 164.0 148.5 L 165.5 149.5 " stroke="black" fill="none" stroke-width="3.0" stroke-linecap="round" stroke-linejoin="round" />
<path d="M 148.0 157.5 L 148.0 157.5 L 148.5 157.5 L 151.0 158.0 L 155.5 158.5 L 158.5 160.0 L 159.5 160.5 L 161.0 163.0 L 161.5 164.0 L 161.5 168.0 L 160.0 170.5 L 159.5 171.5 L 157.5 173.0 L 156.0 173.0 L 156.0 173.0 " stroke="black" fill="none" stroke-width="3.0" stroke-linecap="round" stroke-linejoin="round" />
<path d="M 151.5 152.0 L 151.0 151.5 L 150.5 151.5 L 150.0 151.5 L 149.5 153.5 L 148.5 158.5 L 147.5 165.0 L 146.5 171.0 L 146.5 173.0 " stroke="black" fill="none" stroke-width="3.0" stroke-linecap="round" stroke-linejoin="round" />
<path d="M 133.0 180.5 L 133.0 181.0 L 132.5 181.5 L 132.5 181.5 L 133.5 181.5 L 138.0 181.5 L 145.5 181.0 L 155.0 180.0 L 163.0 179.5 L 167.0 179.5 L 167.5 179.5 L 167.5 179.5 L 167.0 179.5 L 166.5 179.5 L 166.5 179.5 " stroke="black" fill="none" stroke-width="3.0" stroke-linecap="round" stroke-linejoin="round" />
</svg>