<svg xmlns="http://www.w3.org/2000/svg" width="300" height="300" viewBox="0 0 300 300">
<path d="M 109.0 150.5 L 109.0 150.5 L 108.0 151.0 L 107.5 151.0 L 107.5 151.0 L 108.5 151.0 L 109.5 151.0 L 113.0 150.5 L 114.5 150.0 L 120.5 147.5 L 126.0 144.5 L 128.5 143.0 L 128.5 143.0 " stroke="black" fill="none" stroke-width="3.0" stroke-linecap="round" stroke-linejoin="round" />
<path d="M 119.0 142.0 L 119.0 142.0 L 118.5 142.0 L 118.5 142.0 L 118.5 142.0 L 118.5 142.0 L 119.5 145.0 L 121.0 152.0 L 121.5 161.5 L 121.0 169.5 L 119.5 172.5 L 119.0 173.0 L 118.5 173.5 L 118.5 173.5 L 118.0 173.5 L 120.0 172.5 L 124.0 170.0 L 128.5 166.0 L 132.5 163.5 L 133.0 162.5 " stroke="black" fill="none" stroke-width="3.0" stroke-linecap="round" stroke-linejoin="round" />
<path d="M 141.0 104.0 L 140.5 104.0 L 140.5 104.0 L 141.0 105.0 L 143.5 107.5 L 145.5 109.0 " stroke="black" fill="none" stroke-width="3.0" stroke-linecap="round" stroke-linejoin="round" />
<path d="M 162.0 101.0 L 162.0 101.0 L 162.0 101.0 L 161.5 101.0 L 160.0 102.5 L 157.5 106.5 L 153.0 113.0 L 149.5 118.0 " stroke="black" fill="none" stroke-width="3.0" stroke-linecap="round" stroke-linejoin="round" />
<path d="M 127.5 122.5 L 127.0 122.5 L 126.5 122.5 L 126.5 122.5 L 126.5 122.5 L 127.5 122.5 L 128.0 123.0 L 130.5 126.0 L 134.5 129.5 L 139.0 133.0 L 142.0 134.5 L 142.5 134.5 " stroke="black" fill="none" stroke-width="3.0" stroke-linecap="round" stroke-linejoin="round" />
<path d="M 134.5 124.5 L 134.5 124.5 L 134.5 124.5 L 138.0 124.5 L 145.5 122.5 L 155.5 119.5 L 165.5 116.5 L 172.0 116.0 L 173.5 116.0 L 174.0 116.0 L 174.0 117.5 L 173.0 119.0 L 172.5 119.5 L 171.0 121.5 L 170.5 122.5 L 168.0 126.0 L 165.5 129.5 L 163.5 132.5 L 161.5 134.5 " stroke="black" fill="none" stroke-width="3.0" stroke-linecap="round" stroke-linejoin="round" />
<path d="M 143.0 124.0 L 142.0 124.0 L 142.0 125.0 L 142.0 126.5 L 142.0 127.0 L 143.5 130.5 L 145.5 135.0 L 146.5 137.0 " stroke="black" fill="none" stroke-width="3.0" stroke-linecap="round" stroke-linejoin="round" />
<path d="M 155.5 124.0 L 155.5 123.5 L 155.5 123.5 L 155.5 123.5 L 156.0 124.0 L 156.0 124.5 L 156.5 126.5 L 156.5 127.5 L 157.0 131.5 L 157.0 134.5 " stroke="black" fill="none" stroke-width="3.0" stroke-linecap="round" stroke-linejoin="round" />
<path d="M 152.5 121.5 L 152.0 121.5 L 151.5 121.5 L 151.5 122.0 L 151.5 124.0 L 151.5 128.5 L 151.5 134.5 L 151.5 136.0 " stroke="black" fill="none" stroke-width="3.0" stroke-linecap="round" stroke-linejoin="round" />
<path d="M 144.5 145.0 L 144.5 145.0 L 145.0 145.0 L 148.0 143.0 L 154.0 139.5 L 160.5 136.5 L 163.5 136.0 " stroke="black" fill="none" stroke-width="3.0" stroke-linecap="round" stroke-linejoin="round" />
<path d="M 149.5 157.5 L 149.5 157.0 L 149.5 157.0 L 150.0 157.0 L 150.5 157.0 L 150.5 157.5 L 151.0 160.0 L 151.0 161.5 L 151.0 168.0 L 151.0 174.5 L 151.0 177.5 L 150.5 177.0 L 150.5 172.5 L 150.5 171.0 " stroke="black" fill="none" stroke-width="3.0" stroke-linecap="round" stroke-linejoin="round" />
<path d="M 150.5 159.0 L 151.0 157.5 L 151.5 156.5 L 152.0 156.0 L 153.0 155.0 L 154.0 154.5 L 157.5 153.5 L 161.5 153.0 L 164.5 155.5 L 165.5 160.5 L 165.5 166.5 L 165.0 172.0 L 164.5 175.5 L 164.5 176.5 L 164.5 176.5 L 164.5 176.5 " stroke="black" fill="none" stroke-width="3.0" stroke-linecap="round" stroke-linejoin="round" />
<path d="M 152.5 170.0 L 152.5 170.0 L 152.0 170.5 L 152.0 170.5 L 152.5 170.5 L 155.5 169.0 L 160.0 167.0 L 163.5 166.0 L 164.5 166.0 " stroke="black" fill="none" stroke-width="3.0" stroke-linecap="round" stroke-linejoin="round" />
<path d="M 153.0 182.5 L 152.5 184.0 L 152.0 184.5 L 152.0 184.5 L 153.0 184.5 L 157.0 182.0 L 162.0 178.5 L 166.0 176.5 L 167.5 176.5 " stroke="black" fill="none" stroke-width="3.0" stroke-linecap="round" stroke-linejoin="round" />
</svg>