<svg xmlns="http://www.w3.org/2000/svg" width="300" height="300" viewBox="0 0 300 300">
<path d="M 113.5 136.5 L 112.5 137.0 L 112.5 137.5 L 113.5 137.5 L 118.0 137.0 L 122.0 136.0 L 124.0 135.5 L 129.0 133.5 L 131.0 133.0 L 136.0 131.5 L 137.0 131.0 " stroke="black" fill="none" stroke-width="3.0" stroke-linecap="round" stroke-linejoin="round" />
<path d="M 128.0 125.5 L 128.0 125.5 L 128.0 125.5 L 128.0 125.5 L 128.0 125.5 L 128.0 127.5 L 128.0 132.5 L 127.0 142.0 L 124.5 153.5 L 121.0 162.0 L 117.5 167.5 L 115.5 168.5 L 115.0 169.0 L 114.5 168.5 L 114.5 168.0 L 115.0 167.0 " stroke="black" fill="none" stroke-width="3.0" stroke-linecap="round" stroke-linejoin="round" />
<path d="M 132.5 154.0 L 135.0 154.5 L 137.0 156.0 L 138.0 158.0 L 138.5 159.5 L 139.5 165.0 L 140.0 169.0 L 140.0 170.0 L 141.5 173.5 L 144.5 175.0 L 148.0 175.0 L 154.5 174.5 L 161.5 173.0 L 169.0 171.0 L 173.0 170.0 L 174.5 169.5 L 178.0 168.5 L 179.0 168.5 L 181.0 167.0 L 181.0 167.0 L 181.0 165.5 L 178.5 163.0 " stroke="black" fill="none" stroke-width="3.0" stroke-linecap="round" stroke-linejoin="round" />
<path d="M 134.5 121.0 L 133.0 120.0 L 133.0 120.0 L 134.0 122.0 L 137.0 125.5 L 140.0 128.0 " stroke="black" fill="none" stroke-width="3.0" stroke-linecap="round" stroke-linejoin="round" />
<path d="M 162.0 121.0 L 162.0 120.5 L 162.5 120.0 L 162.5 120.0 L 162.0 122.0 L 160.5 125.5 L 160.0 127.0 L 158.0 131.5 L 157.0 133.5 L 154.0 139.5 L 153.0 141.5 " stroke="black" fill="none" stroke-width="3.0" stroke-linecap="round" stroke-linejoin="round" />
<path d="M 169.5 132.0 L 169.5 132.0 L 169.5 132.0 L 169.5 132.5 L 169.5 132.5 L 169.0 134.0 L 168.5 135.0 L 166.5 139.5 L 162.5 146.5 L 157.5 153.0 L 155.0 155.5 " stroke="black" fill="none" stroke-width="3.0" stroke-linecap="round" stroke-linejoin="round" />
<path d="M 172.0 147.5 L 173.0 149.0 L 173.0 151.5 L 171.0 155.0 L 168.0 159.0 L 163.0 163.5 L 158.0 166.5 " stroke="black" fill="none" stroke-width="3.0" stroke-linecap="round" stroke-linejoin="round" />
</svg>