<svg xmlns="http://www.w3.org/2000/svg" width="300" height="300" viewBox="0 0 300 300">
<path d="M 123.0 128.0 L 122.5 128.0 L 121.5 128.5 L 121.5 128.5 L 123.5 128.5 L 128.0 127.5 L 130.0 126.5 L 137.5 124.5 L 140.5 124.0 L 150.0 120.5 L 152.5 120.0 L 160.0 117.0 L 162.0 115.5 " stroke="black" fill="none" stroke-width="3.0" stroke-linecap="round" stroke-linejoin="round" />
<path d="M 147.0 108.5 L 147.0 108.5 L 147.0 108.0 L 147.0 107.5 L 147.0 108.5 L 147.0 114.0 L 143.5 124.0 L 137.5 138.0 L 132.0 146.5 L 130.5 148.5 L 126.5 154.0 L 125.0 155.0 L 121.5 158.5 L 120.5 159.5 " stroke="black" fill="none" stroke-width="3.0" stroke-linecap="round" stroke-linejoin="round" />
<path d="M 135.5 146.5 L 137.0 146.5 L 138.5 147.0 L 139.0 147.5 L 140.5 150.0 L 141.0 151.0 L 142.5 156.5 L 143.5 161.5 L 143.5 162.5 L 143.5 166.5 L 143.5 167.0 L 143.5 166.0 L 144.0 163.0 L 144.5 160.5 L 145.0 159.5 L 146.5 157.5 L 147.5 156.5 L 151.5 154.0 L 153.5 153.5 L 163.5 149.5 L 173.0 146.5 L 178.0 146.0 L 178.5 147.5 L 177.0 151.0 L 174.5 155.0 L 173.5 156.0 L 169.0 161.0 L 164.0 165.0 L 162.5 166.0 " stroke="black" fill="none" stroke-width="3.0" stroke-linecap="round" stroke-linejoin="round" />
<path d="M 158.0 139.0 L 158.0 139.0 L 158.0 139.0 L 158.0 139.0 L 158.0 139.5 L 158.5 143.0 L 160.5 153.5 L 162.5 169.5 L 162.5 184.5 L 162.5 195.0 L 162.5 201.5 L 162.5 205.0 L 162.0 205.5 L 162.0 205.5 L 161.5 205.0 L 161.5 203.5 " stroke="black" fill="none" stroke-width="3.0" stroke-linecap="round" stroke-linejoin="round" />
</svg>