<svg xmlns="http://www.w3.org/2000/svg" width="300" height="300" viewBox="0 0 300 300">
<path d="M 144.5 109.0 L 144.0 109.0 L 143.5 108.5 L 143.0 108.5 L 143.0 108.5 L 143.5 108.5 L 145.0 109.5 L 148.0 111.0 L 150.5 112.0 L 152.0 112.5 " stroke="black" fill="none" stroke-width="3.0" stroke-linecap="round" stroke-linejoin="round" />
<path d="M 131.0 123.0 L 130.5 123.5 L 130.5 123.5 L 131.5 123.5 L 132.0 123.5 L 135.5 123.5 L 136.5 123.5 L 144.0 122.0 L 152.5 119.5 L 158.5 117.5 L 160.5 116.5 " stroke="black" fill="none" stroke-width="3.0" stroke-linecap="round" stroke-linejoin="round" />
<path d="M 143.0 120.5 L 142.5 121.0 L 142.5 121.5 L 142.5 122.5 L 143.5 124.5 L 144.5 128.0 L 145.0 132.0 L 145.5 134.0 L 145.5 134.5 " stroke="black" fill="none" stroke-width="3.0" stroke-linecap="round" stroke-linejoin="round" />
<path d="M 154.5 121.0 L 155.0 122.5 L 155.5 124.0 L 155.0 126.0 L 153.5 129.0 L 152.0 132.0 L 151.5 133.0 L 150.0 135.5 L 149.5 136.5 L 149.0 137.0 " stroke="black" fill="none" stroke-width="3.0" stroke-linecap="round" stroke-linejoin="round" />
<path d="M 124.0 140.0 L 122.5 140.0 L 121.5 140.0 L 121.0 140.0 L 121.0 140.0 L 122.0 140.5 L 124.5 142.0 L 127.5 144.5 L 130.5 147.0 L 131.0 147.5 L 135.0 149.5 L 136.5 150.0 " stroke="black" fill="none" stroke-width="3.0" stroke-linecap="round" stroke-linejoin="round" />
<path d="M 129.5 143.5 L 129.5 143.5 L 128.5 143.5 L 128.5 143.5 L 130.5 143.0 L 131.0 143.0 L 136.0 142.0 L 138.0 141.5 L 148.5 139.0 L 159.5 136.5 L 167.5 136.0 L 171.5 136.5 L 172.0 137.5 L 172.0 138.0 L 171.5 138.0 L 171.0 138.5 L 169.5 139.0 L 169.5 139.5 L 168.0 140.5 L 167.5 140.5 L 165.0 142.5 " stroke="black" fill="none" stroke-width="3.0" stroke-linecap="round" stroke-linejoin="round" />
<path d="M 139.0 155.5 L 139.0 155.5 L 138.0 155.5 L 138.0 155.5 L 138.0 155.5 L 138.0 157.0 L 138.5 157.5 L 139.0 160.0 L 139.5 160.5 L 140.0 163.0 L 140.5 163.5 L 141.0 165.0 L 141.5 165.0 L 142.5 162.5 L 145.5 158.5 L 150.5 155.0 L 157.0 153.0 L 162.5 152.0 L 164.5 152.0 L 165.0 152.0 L 165.0 153.5 L 163.0 155.5 L 160.0 157.5 L 157.0 160.0 L 154.0 161.5 L 151.5 162.5 " stroke="black" fill="none" stroke-width="3.0" stroke-linecap="round" stroke-linejoin="round" />
<path d="M 148.5 141.0 L 148.0 140.5 L 147.5 140.0 L 147.5 140.0 L 147.5 142.0 L 148.0 143.0 L 149.0 148.0 L 149.5 150.0 L 150.5 157.5 L 151.0 160.5 L 151.5 172.5 L 151.5 181.5 L 151.0 185.5 L 150.5 186.0 L 150.5 186.0 L 150.5 185.5 L 150.0 185.0 L 150.0 183.5 " stroke="black" fill="none" stroke-width="3.0" stroke-linecap="round" stroke-linejoin="round" />
</svg>