<svg xmlns="http://www.w3.org/2000/svg" width="300" height="300" viewBox="0 0 300 300">
<path d="M 151.5 106.0 L 151.5 106.0 L 151.5 106.0 L 151.5 106.5 L 151.5 107.0 L 151.5 109.0 L 151.5 110.0 L 151.5 116.5 L 152.0 122.5 L 152.0 125.0 " stroke="black" fill="none" stroke-width="3.0" stroke-linecap="round" stroke-linejoin="round" />
<path d="M 129.0 116.5 L 129.0 116.5 L 128.5 116.5 L 128.5 116.5 L 128.5 116.5 L 131.5 118.0 L 137.0 120.5 " stroke="black" fill="none" stroke-width="3.0" stroke-linecap="round" stroke-linejoin="round" />
<path d="M 170.0 113.5 L 170.0 113.5 L 170.0 113.5 L 169.5 113.5 L 168.0 115.0 L 167.5 115.5 L 164.5 118.5 L 163.5 119.5 L 160.5 122.0 " stroke="black" fill="none" stroke-width="3.0" stroke-linecap="round" stroke-linejoin="round" />
<path d="M 118.5 129.5 L 118.5 129.5 L 118.5 129.5 L 118.5 129.5 L 120.0 130.5 L 124.0 132.5 L 131.0 134.5 L 138.0 136.5 L 142.5 137.5 " stroke="black" fill="none" stroke-width="3.0" stroke-linecap="round" stroke-linejoin="round" />
<path d="M 131.5 133.5 L 128.5 133.5 L 128.0 133.0 L 131.5 132.5 L 139.5 131.5 L 150.0 130.5 L 162.0 129.0 L 170.0 128.5 L 171.5 128.5 L 176.0 129.0 L 176.5 129.5 L 176.5 129.5 L 174.5 131.0 L 170.5 133.0 L 166.0 135.0 L 161.0 137.5 L 160.0 138.0 " stroke="black" fill="none" stroke-width="3.0" stroke-linecap="round" stroke-linejoin="round" />
<path d="M 146.0 140.5 L 146.0 140.5 L 146.0 140.0 L 146.0 140.0 L 145.5 140.0 L 145.5 142.0 L 145.5 143.0 L 146.0 146.5 L 146.0 147.5 L 146.0 150.5 L 146.0 151.0 L 146.0 152.0 L 147.5 150.5 L 150.5 146.0 L 154.5 142.0 L 158.0 140.5 L 159.5 141.5 L 159.0 144.0 L 158.5 144.5 L 156.5 147.5 L 156.0 148.5 L 153.5 151.0 L 152.5 152.0 L 149.0 154.5 " stroke="black" fill="none" stroke-width="3.0" stroke-linecap="round" stroke-linejoin="round" />
<path d="M 130.5 158.0 L 130.5 158.0 L 130.0 158.0 L 129.5 158.0 L 129.5 158.5 L 130.0 160.5 L 130.0 161.0 L 131.5 164.5 L 132.0 165.5 L 134.0 169.5 L 136.0 171.5 L 136.5 172.0 L 138.5 171.0 L 140.0 168.0 L 142.5 165.0 L 146.0 163.0 L 152.0 161.0 L 160.5 159.5 L 167.0 159.5 L 170.0 160.5 L 170.5 160.5 L 171.0 163.0 L 169.5 164.0 L 169.0 164.5 L 166.0 166.0 L 161.5 167.5 L 157.0 168.5 " stroke="black" fill="none" stroke-width="3.0" stroke-linecap="round" stroke-linejoin="round" />
<path d="M 151.5 153.5 L 151.5 153.5 L 151.5 153.5 L 152.0 155.0 L 153.0 161.0 L 154.0 172.5 L 154.5 185.0 L 154.0 193.5 L 153.5 195.5 L 153.0 201.5 L 152.5 202.5 L 152.0 202.5 L 152.0 200.5 L 152.0 199.0 " stroke="black" fill="none" stroke-width="3.0" stroke-linecap="round" stroke-linejoin="round" />
</svg>