<svg xmlns="http://www.w3.org/2000/svg" width="300" height="300" viewBox="0 0 300 300">
<path d="M 134.5 104.0 L 134.5 104.0 L 134.5 104.0 L 134.5 104.0 L 134.5 104.0 L 134.5 104.0 L 134.5 104.0 L 135.5 104.0 L 139.5 105.5 L 145.0 106.5 L 149.5 107.5 " stroke="black" fill="none" stroke-width="3.0" stroke-linecap="round" stroke-linejoin="round" />
<path d="M 116.0 124.0 L 116.0 124.0 L 118.5 124.0 L 123.5 123.0 L 126.0 122.0 L 135.0 119.5 L 137.5 118.5 L 149.0 114.5 L 158.0 110.5 L 162.5 108.5 L 162.5 108.5 " stroke="black" fill="none" stroke-width="3.0" stroke-linecap="round" stroke-linejoin="round" />
<path d="M 125.0 125.5 L 124.5 125.5 L 124.0 125.0 L 124.0 124.5 L 123.5 124.5 L 124.0 125.5 L 124.5 126.0 L 125.0 130.0 L 125.0 132.0 L 124.0 144.5 L 119.5 160.5 L 113.5 173.5 L 108.0 180.0 L 104.0 182.5 L 100.5 182.5 " stroke="black" fill="none" stroke-width="3.0" stroke-linecap="round" stroke-linejoin="round" />
<path d="M 132.0 131.5 L 132.0 132.0 L 132.0 132.0 L 133.0 132.5 L 136.0 132.5 L 137.0 132.5 L 140.0 132.5 L 141.0 132.5 L 143.0 132.0 " stroke="black" fill="none" stroke-width="3.0" stroke-linecap="round" stroke-linejoin="round" />
<path d="M 129.0 145.0 L 129.0 145.5 L 129.0 145.5 L 129.0 145.5 L 131.0 144.5 L 132.0 144.0 L 138.0 141.5 L 143.5 139.5 L 146.0 139.5 L 146.0 142.5 L 145.0 147.0 L 144.0 151.5 L 143.0 153.5 L 142.5 154.0 L 142.0 155.5 " stroke="black" fill="none" stroke-width="3.0" stroke-linecap="round" stroke-linejoin="round" />
<path d="M 132.0 152.5 L 131.5 153.0 L 131.0 153.0 L 131.0 153.0 L 133.5 152.5 L 135.0 152.0 L 140.5 150.0 L 144.0 148.0 L 145.5 148.0 L 147.0 147.0 " stroke="black" fill="none" stroke-width="3.0" stroke-linecap="round" stroke-linejoin="round" />
<path d="M 132.5 163.5 L 132.0 165.5 L 133.0 165.5 L 136.0 164.0 L 137.5 163.5 L 141.5 160.0 L 143.0 159.0 L 147.5 154.5 L 149.0 153.0 L 149.0 153.0 " stroke="black" fill="none" stroke-width="3.0" stroke-linecap="round" stroke-linejoin="round" />
<path d="M 134.5 146.0 L 134.5 145.0 L 134.5 145.0 L 134.5 145.0 L 134.0 146.5 L 134.0 153.0 L 134.0 163.0 L 133.5 173.0 L 133.5 177.5 L 134.5 178.0 L 136.5 177.5 L 137.0 177.0 L 140.0 174.5 L 141.0 173.5 L 144.0 170.0 L 145.0 169.0 L 148.0 165.5 L 150.5 163.5 L 151.0 163.0 " stroke="black" fill="none" stroke-width="3.0" stroke-linecap="round" stroke-linejoin="round" />
<path d="M 153.5 139.0 L 153.0 139.0 L 153.0 139.0 L 153.5 138.5 L 154.5 138.5 L 158.0 137.0 L 159.5 136.5 L 163.5 135.0 L 165.0 134.5 L 169.0 133.0 L 169.5 133.0 L 167.0 137.0 L 163.0 142.5 L 160.0 146.5 L 159.5 148.0 L 161.5 148.0 L 162.5 148.0 L 166.0 146.5 L 167.5 146.0 L 171.0 144.5 L 173.0 144.0 L 173.0 144.5 L 171.5 147.5 L 169.0 152.0 L 165.5 156.5 L 162.5 159.0 L 161.5 160.0 L 160.5 160.5 " stroke="black" fill="none" stroke-width="3.0" stroke-linecap="round" stroke-linejoin="round" />
<path d="M 153.5 142.0 L 153.5 142.0 L 153.5 142.0 L 153.5 142.5 L 155.0 146.5 L 155.5 148.5 L 157.0 158.0 L 157.5 162.5 L 159.0 179.5 L 159.0 193.0 L 159.0 200.0 L 158.0 201.0 L 158.0 200.5 L 157.5 199.5 " stroke="black" fill="none" stroke-width="3.0" stroke-linecap="round" stroke-linejoin="round" />
</svg>