<svg xmlns="http://www.w3.org/2000/svg" width="300" height="300" viewBox="0 0 300 300">
<path d="M 140.0 111.5 L 139.5 111.5 L 139.5 111.5 L 141.0 112.5 L 145.0 113.5 L 150.0 114.5 L 154.0 114.5 " stroke="black" fill="none" stroke-width="3.0" stroke-linecap="round" stroke-linejoin="round" />
<path d="M 128.0 128.0 L 128.0 128.5 L 128.5 129.0 L 131.5 129.0 L 133.5 129.0 L 140.5 129.0 L 143.0 128.5 L 151.0 127.0 L 153.5 126.5 L 159.5 125.5 L 160.5 125.5 " stroke="black" fill="none" stroke-width="3.0" stroke-linecap="round" stroke-linejoin="round" />
<path d="M 141.5 130.5 L 141.5 130.5 L 141.0 130.5 L 141.0 130.5 L 141.0 131.0 L 141.0 134.5 L 141.0 141.5 L 141.5 148.0 L 143.5 151.5 L 147.5 152.0 L 153.5 149.5 L 159.5 145.5 L 161.5 144.0 " stroke="black" fill="none" stroke-width="3.0" stroke-linecap="round" stroke-linejoin="round" />
<path d="M 125.5 162.5 L 125.5 160.0 L 125.5 159.0 L 125.5 159.0 L 125.5 160.5 L 126.0 165.0 L 126.5 169.5 L 126.5 171.0 L 126.5 175.5 L 126.5 177.0 L 127.5 180.5 L 127.5 181.0 L 128.5 181.5 " stroke="black" fill="none" stroke-width="3.0" stroke-linecap="round" stroke-linejoin="round" />
<path d="M 137.5 162.0 L 138.0 161.5 L 138.5 161.5 L 139.0 163.5 L 139.0 165.0 L 139.5 169.5 L 139.5 171.5 L 139.5 177.5 L 140.0 179.5 L 141.5 184.0 L 143.5 185.0 L 147.5 182.5 L 152.0 178.5 L 156.5 174.5 L 158.5 172.0 L 159.0 171.0 L 159.5 170.5 " stroke="black" fill="none" stroke-width="3.0" stroke-linecap="round" stroke-linejoin="round" />
<path d="M 150.5 160.5 L 150.5 160.5 L 150.5 160.5 L 150.5 161.0 L 152.0 164.0 L 152.5 165.0 L 155.5 170.5 L 158.0 175.5 L 159.5 177.0 " stroke="black" fill="none" stroke-width="3.0" stroke-linecap="round" stroke-linejoin="round" />
<path d="M 166.0 160.0 L 166.5 160.5 L 167.0 161.5 L 168.0 163.0 L 168.5 164.0 L 170.0 168.5 L 172.5 174.0 L 174.0 178.5 L 174.5 179.5 " stroke="black" fill="none" stroke-width="3.0" stroke-linecap="round" stroke-linejoin="round" />
</svg>