<svg xmlns="http://www.w3.org/2000/svg" width="300" height="300" viewBox="0 0 300 300">
<path d="M 124.0 139.5 L 123.5 138.5 L 123.5 138.5 L 123.5 138.0 L 123.5 138.0 L 123.0 137.5 L 123.0 138.0 L 123.5 142.5 L 123.5 149.5 L 124.0 157.5 L 124.5 163.5 L 125.0 164.5 " stroke="black" fill="none" stroke-width="3.0" stroke-linecap="round" stroke-linejoin="round" />
<path d="M 133.5 128.5 L 133.5 128.0 L 133.5 129.0 L 133.5 132.0 L 133.5 133.5 L 133.5 143.5 L 133.5 152.5 L 133.5 155.5 L 133.5 166.0 L 134.0 173.0 L 134.0 174.5 L 134.5 173.5 " stroke="black" fill="none" stroke-width="3.0" stroke-linecap="round" stroke-linejoin="round" />
<path d="M 132.0 151.5 L 132.0 151.5 L 132.5 151.5 L 134.5 151.0 L 138.5 151.0 L 144.0 151.0 " stroke="black" fill="none" stroke-width="3.0" stroke-linecap="round" stroke-linejoin="round" />
<path d="M 146.5 135.5 L 146.0 135.5 L 146.0 135.5 L 146.5 135.5 L 147.0 135.5 L 152.0 135.5 L 160.5 134.5 L 168.5 134.0 L 172.5 133.5 L 173.5 133.5 " stroke="black" fill="none" stroke-width="3.0" stroke-linecap="round" stroke-linejoin="round" />
<path d="M 165.5 125.0 L 165.5 125.0 L 165.5 125.0 L 165.5 126.5 L 165.5 132.5 L 166.0 140.5 L 166.0 148.5 L 166.0 150.5 " stroke="black" fill="none" stroke-width="3.0" stroke-linecap="round" stroke-linejoin="round" />
<path d="M 157.5 157.0 L 157.5 157.5 L 157.5 158.5 L 158.0 159.5 L 159.0 163.5 L 159.5 167.5 L 160.0 169.0 L 160.0 174.5 L 160.5 176.5 L 160.5 177.0 L 160.5 177.0 L 160.5 173.5 L 160.5 169.0 L 162.5 163.5 L 165.0 159.5 L 169.5 158.0 L 172.5 158.5 L 173.5 159.0 L 176.0 162.0 L 176.5 163.0 L 176.5 168.0 L 175.0 172.5 L 171.5 176.0 L 168.0 178.5 L 165.0 179.5 L 163.0 179.5 " stroke="black" fill="none" stroke-width="3.0" stroke-linecap="round" stroke-linejoin="round" />
</svg>