<svg xmlns="http://www.w3.org/2000/svg" width="300" height="300" viewBox="0 0 300 300">
<path d="M 117.0 144.0 L 117.0 144.0 L 116.5 144.0 L 116.5 144.0 L 116.5 147.5 L 116.5 152.5 L 116.5 154.5 L 117.0 160.5 L 117.0 162.5 L 118.0 166.0 L 118.0 166.5 " stroke="black" fill="none" stroke-width="3.0" stroke-linecap="round" stroke-linejoin="round" />
<path d="M 128.0 135.5 L 128.0 137.0 L 128.0 140.0 L 128.0 147.0 L 128.0 159.0 L 128.5 170.5 L 129.0 176.5 L 130.0 177.5 L 130.5 177.0 " stroke="black" fill="none" stroke-width="3.0" stroke-linecap="round" stroke-linejoin="round" />
<path d="M 131.5 155.0 L 131.5 154.5 L 132.5 154.0 L 134.5 153.5 L 139.0 153.0 L 142.0 153.0 " stroke="black" fill="none" stroke-width="3.0" stroke-linecap="round" stroke-linejoin="round" />
<path d="M 150.0 126.0 L 150.5 124.5 L 150.5 124.0 L 150.5 124.0 L 150.5 125.5 L 150.5 126.5 L 149.0 130.5 L 149.0 132.0 L 147.0 138.0 L 145.5 142.5 L 146.0 144.0 L 148.5 144.5 L 153.5 144.0 L 160.0 142.5 L 165.0 141.5 L 166.5 141.0 L 169.5 140.5 " stroke="black" fill="none" stroke-width="3.0" stroke-linecap="round" stroke-linejoin="round" />
<path d="M 148.0 159.5 L 148.0 159.5 L 149.5 159.5 L 152.0 159.5 L 153.0 159.5 L 159.0 158.0 L 165.0 156.5 L 168.5 155.0 " stroke="black" fill="none" stroke-width="3.0" stroke-linecap="round" stroke-linejoin="round" />
<path d="M 158.0 134.0 L 157.5 136.5 L 157.5 141.5 L 158.5 151.0 L 159.0 163.5 L 159.5 173.5 L 158.5 177.5 L 158.0 178.0 L 156.0 179.5 L 155.0 179.5 " stroke="black" fill="none" stroke-width="3.0" stroke-linecap="round" stroke-linejoin="round" />
<path d="M 150.5 179.5 L 150.5 179.5 L 150.5 179.5 L 152.5 179.0 L 158.5 178.5 L 164.5 177.5 L 166.0 177.5 L 172.0 177.0 L 174.0 176.5 L 178.0 176.0 " stroke="black" fill="none" stroke-width="3.0" stroke-linecap="round" stroke-linejoin="round" />
</svg>