<svg xmlns="http://www.w3.org/2000/svg" width="300" height="300" viewBox="0 0 300 300">
<path d="M 132.0 87.0 L 132.0 87.0 L 132.0 86.5 L 132.0 86.5 L 132.0 86.5 L 132.5 87.0 L 134.0 91.0 L 136.0 99.0 L 137.5 107.5 L 137.5 111.5 L 137.5 111.5 L 137.5 111.0 " stroke="black" fill="none" stroke-width="3.0" stroke-linecap="round" stroke-linejoin="round" />
<path d="M 135.5 90.0 L 136.0 89.5 L 140.0 87.5 L 149.0 84.5 L 157.5 83.5 L 163.5 85.0 L 165.5 89.0 L 165.0 94.0 L 163.5 98.5 L 163.0 99.5 L 161.0 102.0 L 160.5 102.5 L 158.0 103.5 " stroke="black" fill="none" stroke-width="3.0" stroke-linecap="round" stroke-linejoin="round" />
<path d="M 140.0 100.5 L 140.0 100.5 L 141.0 100.5 L 145.0 99.5 L 152.0 98.0 L 156.0 97.0 " stroke="black" fill="none" stroke-width="3.0" stroke-linecap="round" stroke-linejoin="round" />
<path d="M 135.0 114.0 L 136.0 114.0 L 140.0 113.0 L 149.0 109.5 L 156.5 106.0 L 158.0 105.5 " stroke="black" fill="none" stroke-width="3.0" stroke-linecap="round" stroke-linejoin="round" />
<path d="M 124.5 119.5 L 124.5 119.5 L 124.5 119.5 L 124.0 119.5 L 124.0 119.5 L 125.5 121.0 L 129.0 125.0 L 133.0 131.0 L 135.0 135.5 " stroke="black" fill="none" stroke-width="3.0" stroke-linecap="round" stroke-linejoin="round" />
<path d="M 129.5 128.5 L 129.5 128.0 L 129.5 126.5 L 129.5 125.0 L 133.5 123.0 L 143.5 119.5 L 156.5 115.0 L 167.0 113.0 L 173.0 113.0 L 174.5 114.0 L 175.0 114.0 L 175.0 115.5 L 175.0 116.0 L 173.5 117.5 L 172.5 118.5 L 169.5 120.5 L 165.5 122.5 L 163.0 123.5 " stroke="black" fill="none" stroke-width="3.0" stroke-linecap="round" stroke-linejoin="round" />
<path d="M 149.0 93.5 L 149.0 93.5 L 149.0 93.0 L 149.0 93.0 L 149.0 94.5 L 149.5 100.0 L 149.5 102.5 L 149.5 116.5 L 148.5 127.5 L 148.0 130.0 L 146.5 136.0 L 146.0 137.0 L 146.0 138.5 L 146.5 138.5 L 150.0 136.5 L 154.0 133.5 L 158.0 129.5 L 160.0 128.0 L 160.0 128.0 L 160.0 128.0 L 159.5 128.5 " stroke="black" fill="none" stroke-width="3.0" stroke-linecap="round" stroke-linejoin="round" />
<path d="M 137.5 148.5 L 139.0 146.0 L 139.5 145.5 L 139.5 145.5 L 139.0 146.0 L 138.0 148.5 L 137.5 149.5 L 136.0 153.5 L 135.0 154.5 L 133.5 159.0 L 132.5 160.5 L 129.5 167.0 L 128.0 170.5 L 128.0 170.5 " stroke="black" fill="none" stroke-width="3.0" stroke-linecap="round" stroke-linejoin="round" />
<path d="M 141.0 155.0 L 143.5 153.0 L 143.5 152.5 L 144.5 152.0 L 144.5 152.0 L 145.0 153.0 L 145.0 157.0 L 144.0 162.5 L 143.5 166.5 L 143.0 168.5 L 144.5 169.0 L 147.5 167.5 L 148.5 167.0 L 152.5 164.0 L 153.5 163.0 L 157.5 159.5 L 160.0 157.5 L 160.0 157.0 " stroke="black" fill="none" stroke-width="3.0" stroke-linecap="round" stroke-linejoin="round" />
<path d="M 151.0 149.5 L 151.0 148.5 L 151.0 148.5 L 151.0 148.0 L 151.0 148.0 L 151.5 147.5 L 151.5 147.5 L 153.5 148.5 L 157.0 152.5 L 160.0 158.5 L 163.0 164.5 L 164.5 168.0 " stroke="black" fill="none" stroke-width="3.0" stroke-linecap="round" stroke-linejoin="round" />
<path d="M 169.5 142.5 L 170.0 142.5 L 171.5 143.0 L 173.5 145.0 L 176.5 149.0 L 177.5 150.5 L 181.0 159.0 L 183.0 165.0 L 183.0 167.0 L 183.5 173.0 L 183.5 173.5 " stroke="black" fill="none" stroke-width="3.0" stroke-linecap="round" stroke-linejoin="round" />
</svg>