<svg xmlns="http://www.w3.org/2000/svg" width="300" height="300" viewBox="0 0 300 300">
<path d="M 113.0 139.5 L 113.0 139.5 L 113.0 139.5 L 113.0 139.5 L 113.0 139.5 L 113.0 139.5 L 113.0 139.5 L 113.0 139.5 L 113.0 141.0 L 113.0 148.0 L 113.5 156.0 L 114.0 161.0 L 114.5 161.0 " stroke="black" fill="none" stroke-width="3.0" stroke-linecap="round" stroke-linejoin="round" />
<path d="M 121.0 123.0 L 121.0 123.0 L 121.0 123.0 L 121.0 123.0 L 121.5 128.0 L 124.0 143.5 L 126.0 163.5 L 126.5 173.5 L 126.5 175.5 L 127.0 181.0 L 127.0 181.5 L 127.0 181.5 L 127.0 179.5 " stroke="black" fill="none" stroke-width="3.0" stroke-linecap="round" stroke-linejoin="round" />
<path d="M 125.5 151.0 L 125.5 151.0 L 125.0 151.0 L 125.0 151.0 L 125.0 150.5 L 125.5 150.5 L 127.0 150.0 L 128.0 149.5 L 132.0 148.5 L 133.5 148.0 " stroke="black" fill="none" stroke-width="3.0" stroke-linecap="round" stroke-linejoin="round" />
<path d="M 143.5 111.5 L 143.5 111.5 L 143.5 111.5 L 143.5 111.5 L 143.5 111.5 L 143.5 111.5 L 143.5 113.0 L 143.5 119.0 L 143.5 127.5 L 143.5 134.0 L 143.5 135.5 L 143.5 136.0 L 143.5 135.0 " stroke="black" fill="none" stroke-width="3.0" stroke-linecap="round" stroke-linejoin="round" />
<path d="M 144.5 114.0 L 144.5 114.0 L 144.5 114.0 L 145.0 113.5 L 147.5 113.0 L 150.5 113.0 L 151.5 113.5 L 155.0 116.5 L 156.0 118.0 L 157.5 123.5 L 158.0 126.0 L 158.5 134.0 L 158.0 139.0 L 157.0 140.5 L 156.0 140.0 " stroke="black" fill="none" stroke-width="3.0" stroke-linecap="round" stroke-linejoin="round" />
<path d="M 145.5 126.5 L 145.0 126.5 L 144.5 126.5 L 144.5 126.0 L 146.5 125.0 L 150.5 123.5 L 154.0 122.5 " stroke="black" fill="none" stroke-width="3.0" stroke-linecap="round" stroke-linejoin="round" />
<path d="M 146.5 133.0 L 145.5 134.0 L 145.0 134.5 L 145.0 135.0 L 146.5 134.0 L 147.5 133.5 L 150.0 132.0 L 151.0 131.5 L 153.5 130.0 L 154.5 129.5 L 155.0 129.5 " stroke="black" fill="none" stroke-width="3.0" stroke-linecap="round" stroke-linejoin="round" />
<path d="M 147.0 145.5 L 145.5 146.0 L 145.5 146.0 L 147.0 145.5 L 148.0 144.5 L 152.0 142.0 L 156.0 139.5 L 157.5 138.5 " stroke="black" fill="none" stroke-width="3.0" stroke-linecap="round" stroke-linejoin="round" />
<path d="M 168.5 112.5 L 168.0 112.5 L 168.0 112.0 L 168.0 113.0 L 168.0 117.5 L 168.5 126.0 L 168.5 134.5 L 169.0 138.0 L 169.0 138.5 " stroke="black" fill="none" stroke-width="3.0" stroke-linecap="round" stroke-linejoin="round" />
<path d="M 171.0 111.0 L 171.5 110.0 L 172.5 108.5 L 174.5 107.5 L 175.0 107.5 L 177.5 107.5 L 178.5 108.5 L 180.5 111.5 L 181.0 113.0 L 182.5 120.0 L 183.0 127.5 L 183.0 134.0 L 183.0 136.0 " stroke="black" fill="none" stroke-width="3.0" stroke-linecap="round" stroke-linejoin="round" />
<path d="M 170.5 125.0 L 170.5 125.0 L 170.5 125.0 L 174.0 123.0 L 176.0 122.5 " stroke="black" fill="none" stroke-width="3.0" stroke-linecap="round" stroke-linejoin="round" />
<path d="M 170.0 133.5 L 169.0 134.5 L 169.5 134.5 L 172.5 132.5 L 177.5 129.5 L 180.5 128.5 " stroke="black" fill="none" stroke-width="3.0" stroke-linecap="round" stroke-linejoin="round" />
<path d="M 169.0 143.0 L 169.0 143.0 L 168.5 143.5 L 170.0 143.0 L 173.0 141.0 L 174.0 140.5 L 177.5 138.5 L 178.5 137.5 " stroke="black" fill="none" stroke-width="3.0" stroke-linecap="round" stroke-linejoin="round" />
<path d="M 158.5 149.5 L 158.0 149.5 L 157.0 150.5 L 155.0 152.5 L 152.0 156.0 L 148.0 160.5 L 144.5 163.5 L 143.5 164.5 L 144.5 164.0 L 146.0 163.5 L 147.0 163.0 L 148.5 163.0 L 149.0 163.0 L 151.0 165.0 L 152.5 169.5 L 153.5 175.5 L 153.5 181.0 L 153.5 184.0 L 153.5 184.0 L 153.5 183.0 " stroke="black" fill="none" stroke-width="3.0" stroke-linecap="round" stroke-linejoin="round" />
<path d="M 161.0 151.0 L 161.0 151.0 L 161.5 151.0 L 164.0 151.0 L 168.0 150.5 " stroke="black" fill="none" stroke-width="3.0" stroke-linecap="round" stroke-linejoin="round" />
<path d="M 159.0 161.0 L 157.5 162.0 L 157.0 162.5 L 157.5 162.5 L 158.5 162.5 L 162.0 161.0 L 163.5 160.5 L 169.5 158.5 L 173.5 157.0 L 174.5 157.0 L 176.0 156.5 " stroke="black" fill="none" stroke-width="3.0" stroke-linecap="round" stroke-linejoin="round" />
<path d="M 161.5 169.0 L 160.5 169.5 L 160.0 170.0 L 159.5 170.0 L 160.0 170.0 L 162.0 169.0 L 163.0 168.5 L 167.5 166.5 L 172.0 165.0 L 174.5 164.0 L 175.5 164.0 " stroke="black" fill="none" stroke-width="3.0" stroke-linecap="round" stroke-linejoin="round" />
<path d="M 169.0 161.5 L 169.0 161.5 L 169.0 161.0 L 169.0 161.0 L 169.0 161.0 L 169.5 161.0 L 169.5 162.5 L 169.5 166.0 L 169.5 170.0 L 169.5 171.5 L 169.5 177.5 L 169.5 180.0 L 169.5 187.0 L 169.5 191.0 L 169.0 191.5 L 169.0 190.5 " stroke="black" fill="none" stroke-width="3.0" stroke-linecap="round" stroke-linejoin="round" />
<path d="M 160.5 178.0 L 160.0 178.0 L 160.0 178.0 L 160.0 178.5 L 161.0 178.0 L 164.5 176.0 L 169.5 173.5 L 173.0 172.0 " stroke="black" fill="none" stroke-width="3.0" stroke-linecap="round" stroke-linejoin="round" />
<path d="M 159.5 188.5 L 159.0 189.0 L 159.5 189.0 L 163.0 187.0 L 167.0 185.5 L 169.0 184.5 L 173.5 182.5 L 175.5 182.0 L 179.0 181.0 " stroke="black" fill="none" stroke-width="3.0" stroke-linecap="round" stroke-linejoin="round" />
</svg>