<svg xmlns="http://www.w3.org/2000/svg" width="300" height="300" viewBox="0 0 300 300">
<path d="M 123.0 116.0 L 123.0 116.0 L 122.0 116.5 L 122.0 116.5 L 123.0 117.5 L 127.0 119.0 L 131.0 120.0 L 132.0 120.0 L 134.5 120.5 " stroke="black" fill="none" stroke-width="3.0" stroke-linecap="round" stroke-linejoin="round" />
<path d="M 113.5 136.0 L 112.5 136.5 L 112.5 136.5 L 112.5 136.5 L 115.0 136.5 L 116.0 136.5 L 121.0 135.5 L 123.0 135.0 L 131.5 132.5 L 138.0 130.5 L 141.0 129.5 L 140.5 129.5 L 138.5 131.0 L 135.5 134.5 L 132.5 137.5 L 131.5 138.5 L 128.5 142.5 L 127.5 144.0 L 124.0 148.0 L 123.0 150.0 L 120.0 153.5 L 119.5 154.5 L 118.0 156.5 L 118.0 156.0 L 120.0 154.5 L 122.5 153.0 L 125.5 151.0 L 128.5 149.5 L 131.5 149.0 L 132.5 148.5 L 136.0 148.0 L 137.0 148.0 L 140.5 147.5 L 141.5 147.5 L 144.0 147.5 L 144.5 147.5 L 144.0 147.5 L 142.0 148.5 L 140.5 150.5 L 139.5 153.0 L 138.0 155.5 L 137.0 158.5 L 136.5 160.0 L 133.5 166.0 L 129.5 172.5 L 126.0 176.0 L 124.5 176.5 L 124.0 174.0 L 124.0 173.0 " stroke="black" fill="none" stroke-width="3.0" stroke-linecap="round" stroke-linejoin="round" />
<path d="M 125.0 161.5 L 125.0 161.5 L 125.0 161.5 L 125.5 161.5 L 126.0 161.5 L 126.0 161.5 L 128.5 163.0 L 133.0 166.0 L 138.5 169.5 L 143.5 172.5 L 145.0 174.0 L 145.5 174.5 " stroke="black" fill="none" stroke-width="3.0" stroke-linecap="round" stroke-linejoin="round" />
<path d="M 160.0 126.5 L 161.0 125.0 L 161.5 124.5 L 161.5 124.5 L 161.5 124.5 L 161.0 126.5 L 160.5 127.5 L 158.5 131.5 L 158.0 133.0 L 156.0 138.0 L 154.5 141.5 L 155.0 142.5 L 158.5 141.0 L 163.0 138.0 L 167.5 135.5 L 170.5 134.0 L 171.5 133.5 L 173.0 133.0 L 173.5 133.0 L 173.5 134.5 L 172.0 139.0 L 169.5 146.0 L 166.5 154.0 L 163.0 162.0 L 158.5 169.0 L 156.0 172.0 L 154.5 172.5 L 154.5 171.0 L 154.5 170.0 L 154.5 169.0 " stroke="black" fill="none" stroke-width="3.0" stroke-linecap="round" stroke-linejoin="round" />
<path d="M 155.0 149.5 L 155.0 150.5 L 156.0 151.5 L 156.5 152.0 L 159.0 154.5 L 160.5 155.5 L 166.5 161.5 L 173.0 168.5 L 178.0 174.5 L 181.0 177.5 L 182.0 178.5 L 182.0 178.5 L 181.5 178.5 L 181.0 178.0 " stroke="black" fill="none" stroke-width="3.0" stroke-linecap="round" stroke-linejoin="round" />
</svg>