<svg xmlns="http://www.w3.org/2000/svg" width="300" height="300" viewBox="0 0 300 300">
<path d="M 128.5 121.0 L 128.5 121.0 L 128.0 121.0 L 128.0 120.5 L 128.0 120.5 L 128.0 120.5 L 128.0 120.5 L 129.0 121.5 L 130.0 127.0 L 131.0 137.0 L 131.0 147.5 L 130.5 152.5 L 130.5 152.5 " stroke="black" fill="none" stroke-width="3.0" stroke-linecap="round" stroke-linejoin="round" />
<path d="M 131.0 123.0 L 131.5 122.0 L 133.0 121.0 L 139.0 119.5 L 145.5 118.0 L 147.5 117.5 L 155.0 116.5 L 158.5 117.0 L 159.5 120.5 L 160.0 125.0 L 160.0 130.5 L 160.0 136.0 L 160.0 141.5 L 159.5 144.5 L 159.5 145.5 L 158.5 146.5 L 158.5 146.5 " stroke="black" fill="none" stroke-width="3.0" stroke-linecap="round" stroke-linejoin="round" />
<path d="M 137.0 139.5 L 137.0 139.5 L 137.0 139.5 L 137.0 139.5 L 140.0 139.0 L 146.5 137.0 L 154.0 134.0 L 158.5 133.0 " stroke="black" fill="none" stroke-width="3.0" stroke-linecap="round" stroke-linejoin="round" />
<path d="M 133.0 153.0 L 133.0 153.0 L 133.5 153.0 L 136.5 152.5 L 137.5 152.0 L 142.5 150.5 L 144.5 150.0 L 150.0 148.5 L 152.0 148.0 L 157.0 147.0 L 157.5 147.0 " stroke="black" fill="none" stroke-width="3.0" stroke-linecap="round" stroke-linejoin="round" />
<path d="M 122.5 167.0 L 122.0 166.5 L 121.5 166.5 L 121.5 166.0 L 122.0 166.0 L 125.5 165.5 L 131.5 165.0 L 139.5 163.5 L 142.5 163.0 L 151.5 161.0 L 154.0 161.0 L 160.5 160.0 L 162.0 160.0 L 165.5 159.5 L 165.5 160.0 L 165.0 160.0 L 164.5 160.0 L 164.5 160.0 L 164.5 160.0 L 164.5 160.0 L 164.5 160.0 L 164.5 160.0 " stroke="black" fill="none" stroke-width="3.0" stroke-linecap="round" stroke-linejoin="round" />
</svg>