<svg xmlns="http://www.w3.org/2000/svg" width="300" height="300" viewBox="0 0 300 300">
<path d="M 126.5 110.5 L 125.5 110.5 L 125.0 110.0 L 125.0 110.0 L 124.5 110.0 L 124.5 110.0 L 126.0 111.0 L 129.5 116.5 L 133.5 126.5 L 136.5 135.5 L 137.5 139.5 " stroke="black" fill="none" stroke-width="3.0" stroke-linecap="round" stroke-linejoin="round" />
<path d="M 131.0 116.5 L 131.0 116.5 L 131.5 116.5 L 137.5 114.5 L 145.5 112.5 L 148.5 111.5 L 155.5 110.5 L 157.5 110.5 L 161.5 111.0 L 162.5 111.5 L 163.5 115.0 L 161.5 120.5 L 158.5 125.5 L 155.0 131.0 L 152.0 134.0 L 150.0 135.5 " stroke="black" fill="none" stroke-width="3.0" stroke-linecap="round" stroke-linejoin="round" />
<path d="M 135.0 129.0 L 134.5 129.0 L 134.5 129.0 L 137.0 129.0 L 141.5 128.5 L 143.0 128.0 L 151.0 125.5 L 152.5 125.0 " stroke="black" fill="none" stroke-width="3.0" stroke-linecap="round" stroke-linejoin="round" />
<path d="M 133.0 142.0 L 133.5 142.0 L 136.5 142.0 L 138.0 141.5 L 144.5 139.0 L 147.0 138.0 L 153.0 135.0 L 154.0 134.5 L 154.5 134.5 " stroke="black" fill="none" stroke-width="3.0" stroke-linecap="round" stroke-linejoin="round" />
<path d="M 121.0 161.0 L 121.0 161.0 L 121.5 161.0 L 126.5 159.5 L 137.5 154.5 L 150.5 149.0 L 160.0 144.5 L 167.5 142.5 L 169.5 142.0 " stroke="black" fill="none" stroke-width="3.0" stroke-linecap="round" stroke-linejoin="round" />
<path d="M 148.0 139.5 L 148.0 139.0 L 147.5 139.0 L 147.5 139.0 L 147.5 139.0 L 147.0 139.0 L 147.0 139.0 L 147.5 140.0 L 148.5 146.5 L 149.0 160.0 L 149.0 176.5 L 148.5 185.0 L 148.5 186.5 L 148.0 190.5 L 148.0 191.0 L 148.0 191.5 L 148.0 191.5 L 148.0 191.5 L 148.0 191.5 L 147.0 190.5 " stroke="black" fill="none" stroke-width="3.0" stroke-linecap="round" stroke-linejoin="round" />
</svg>