<svg xmlns="http://www.w3.org/2000/svg" width="300" height="300" viewBox="0 0 300 300">
<path d="M 104.5 138.5 L 104.5 139.0 L 105.5 139.0 L 106.0 139.0 L 110.5 137.5 L 118.5 134.5 L 123.0 132.0 " stroke="black" fill="none" stroke-width="3.0" stroke-linecap="round" stroke-linejoin="round" />
<path d="M 116.0 124.5 L 116.0 124.5 L 116.0 124.5 L 116.0 125.0 L 117.0 130.5 L 118.5 144.0 L 119.5 160.0 L 119.5 170.5 L 119.5 174.0 L 119.5 174.5 L 119.5 175.0 L 119.5 174.5 " stroke="black" fill="none" stroke-width="3.0" stroke-linecap="round" stroke-linejoin="round" />
<path d="M 119.0 147.0 L 118.0 147.0 L 118.0 146.5 L 117.0 146.5 L 117.0 146.5 L 115.5 146.5 L 113.5 148.0 L 110.0 152.0 L 106.0 157.0 L 103.0 160.0 L 102.5 160.5 " stroke="black" fill="none" stroke-width="3.0" stroke-linecap="round" stroke-linejoin="round" />
<path d="M 119.0 146.0 L 120.0 146.0 L 123.5 147.0 L 128.5 147.5 L 133.0 148.0 L 134.0 148.0 " stroke="black" fill="none" stroke-width="3.0" stroke-linecap="round" stroke-linejoin="round" />
<path d="M 142.0 104.5 L 141.5 104.5 L 141.0 104.5 L 141.0 105.5 L 140.5 106.0 L 139.0 110.0 L 136.5 116.5 L 135.0 121.5 L 134.5 122.5 L 136.0 122.0 L 139.0 119.5 L 142.0 117.5 L 142.5 117.0 L 145.5 115.5 L 146.0 115.5 L 146.0 116.0 L 145.5 119.5 L 143.0 125.0 L 141.5 128.5 L 141.0 130.0 L 143.0 129.0 L 146.5 126.0 L 149.0 123.5 " stroke="black" fill="none" stroke-width="3.0" stroke-linecap="round" stroke-linejoin="round" />
<path d="M 165.5 106.0 L 165.0 105.5 L 165.0 105.5 L 164.5 105.5 L 164.5 106.5 L 163.0 111.0 L 161.5 115.5 L 161.0 117.0 L 159.5 120.5 L 159.5 121.0 L 159.5 121.5 L 159.5 121.5 L 162.0 120.0 L 165.5 116.5 L 168.0 114.5 L 170.0 113.5 L 170.5 113.5 L 170.0 116.5 L 169.5 119.5 L 169.0 121.5 L 169.0 121.5 L 169.5 122.0 L 169.5 122.0 L 171.0 121.5 L 172.0 121.0 L 174.0 119.0 " stroke="black" fill="none" stroke-width="3.0" stroke-linecap="round" stroke-linejoin="round" />
<path d="M 137.0 141.5 L 137.0 141.5 L 138.5 141.0 L 142.0 140.5 L 143.5 140.0 L 150.5 139.0 L 153.0 138.5 L 160.5 137.0 L 163.5 136.0 L 169.0 134.0 L 170.5 133.0 " stroke="black" fill="none" stroke-width="3.0" stroke-linecap="round" stroke-linejoin="round" />
<path d="M 173.0 127.5 L 173.0 127.5 L 173.0 127.5 L 172.5 127.5 L 172.5 127.5 L 172.5 128.0 L 172.5 128.5 L 173.0 132.0 L 174.5 137.5 L 176.0 142.0 L 176.5 143.0 " stroke="black" fill="none" stroke-width="3.0" stroke-linecap="round" stroke-linejoin="round" />
<path d="M 153.5 113.5 L 153.0 113.5 L 152.5 114.0 L 152.5 116.5 L 153.5 121.5 L 154.0 124.0 L 158.0 138.5 L 161.0 151.0 L 162.0 155.5 L 165.5 167.0 L 168.0 173.0 L 170.0 175.0 L 170.5 174.5 " stroke="black" fill="none" stroke-width="3.0" stroke-linecap="round" stroke-linejoin="round" />
<path d="M 169.5 149.0 L 169.5 148.0 L 169.0 147.5 L 168.5 147.5 L 168.0 148.0 L 166.5 152.0 L 164.5 158.0 L 162.0 162.5 L 161.5 164.0 L 159.5 168.0 " stroke="black" fill="none" stroke-width="3.0" stroke-linecap="round" stroke-linejoin="round" />
<path d="M 144.5 148.0 L 143.5 148.0 L 143.0 148.0 L 142.5 148.0 L 142.5 149.5 L 142.0 154.0 L 141.5 161.0 L 141.0 165.5 " stroke="black" fill="none" stroke-width="3.0" stroke-linecap="round" stroke-linejoin="round" />
<path d="M 143.0 156.5 L 143.0 156.5 L 144.0 156.5 L 146.5 158.0 L 152.0 161.0 L 157.5 164.0 " stroke="black" fill="none" stroke-width="3.0" stroke-linecap="round" stroke-linejoin="round" />
</svg>