<svg xmlns="http://www.w3.org/2000/svg" width="300" height="300" viewBox="0 0 300 300">
<path d="M 130.5 116.0 L 130.5 116.0 L 130.5 115.5 L 130.5 115.5 L 130.0 115.5 L 129.0 116.5 L 127.0 120.0 L 124.5 123.5 L 123.0 126.0 L 123.0 126.5 L 125.0 126.5 L 125.5 126.0 L 128.5 124.0 L 129.5 123.5 L 133.0 122.0 L 135.0 121.5 L 135.0 123.0 L 132.0 127.0 L 128.0 132.5 L 125.5 136.5 L 124.5 138.5 L 124.5 139.0 L 125.0 139.0 L 126.5 138.0 L 127.0 137.5 L 129.5 135.5 L 130.0 135.0 L 133.0 133.0 L 134.0 132.5 " stroke="black" fill="none" stroke-width="3.0" stroke-linecap="round" stroke-linejoin="round" />
<path d="M 109.5 143.5 L 109.5 143.5 L 109.5 143.5 L 110.5 143.5 L 114.0 146.0 L 118.0 148.5 L 120.0 149.5 L 123.5 152.0 L 124.5 153.0 L 126.0 153.5 " stroke="black" fill="none" stroke-width="3.0" stroke-linecap="round" stroke-linejoin="round" />
<path d="M 125.0 143.0 L 125.0 143.0 L 125.0 143.0 L 125.0 143.0 L 125.0 143.0 L 125.5 143.0 L 126.0 143.5 L 128.0 145.5 L 130.0 147.5 " stroke="black" fill="none" stroke-width="3.0" stroke-linecap="round" stroke-linejoin="round" />
<path d="M 137.5 139.0 L 139.0 138.5 L 140.5 138.5 L 142.0 140.0 L 142.5 143.0 L 142.5 146.0 L 143.0 147.5 " stroke="black" fill="none" stroke-width="3.0" stroke-linecap="round" stroke-linejoin="round" />
<path d="M 151.0 104.0 L 151.0 104.0 L 150.5 104.0 L 151.0 104.5 L 153.0 105.5 L 156.0 107.5 " stroke="black" fill="none" stroke-width="3.0" stroke-linecap="round" stroke-linejoin="round" />
<path d="M 147.5 115.0 L 147.5 115.0 L 147.5 115.0 L 149.0 115.0 L 153.0 114.0 L 157.0 113.5 L 158.0 113.5 L 159.0 113.0 " stroke="black" fill="none" stroke-width="3.0" stroke-linecap="round" stroke-linejoin="round" />
<path d="M 148.0 125.0 L 148.0 125.0 L 148.0 125.0 L 148.5 125.0 L 149.0 125.0 L 152.5 123.5 L 155.5 122.5 L 157.0 122.5 L 159.0 122.0 " stroke="black" fill="none" stroke-width="3.0" stroke-linecap="round" stroke-linejoin="round" />
<path d="M 149.5 131.0 L 149.5 131.0 L 149.5 131.0 L 149.5 131.0 L 151.0 131.0 L 154.0 129.5 L 157.5 128.0 L 158.5 128.0 " stroke="black" fill="none" stroke-width="3.0" stroke-linecap="round" stroke-linejoin="round" />
<path d="M 152.5 135.5 L 152.5 136.0 L 152.5 136.5 L 152.5 136.5 L 153.0 137.5 L 153.0 138.5 L 153.5 141.5 L 153.5 146.0 L 153.0 150.0 L 152.5 151.5 L 152.0 151.0 L 153.5 148.0 L 155.5 145.0 L 156.0 144.0 L 158.5 142.0 L 159.5 141.5 L 162.0 141.0 L 164.0 142.5 L 164.0 146.0 L 162.5 150.5 L 159.5 153.5 L 156.0 155.5 L 153.5 155.5 L 153.0 154.0 L 153.0 153.0 " stroke="black" fill="none" stroke-width="3.0" stroke-linecap="round" stroke-linejoin="round" />
<path d="M 183.0 108.5 L 183.0 108.0 L 182.5 107.5 L 182.5 107.5 L 182.0 107.5 L 180.0 110.0 L 177.0 115.0 L 173.5 120.5 L 172.5 123.0 L 173.0 123.0 L 175.0 122.0 L 176.0 121.5 L 180.0 120.0 L 183.0 118.5 L 183.5 118.0 L 186.0 117.0 L 186.5 117.0 L 185.5 118.0 L 183.0 120.5 L 180.0 123.5 L 178.0 126.0 L 177.0 127.5 L 177.0 127.5 L 177.5 127.5 L 178.5 127.5 L 179.5 127.0 L 182.0 125.5 L 185.0 123.5 L 187.5 121.5 L 188.0 121.0 " stroke="black" fill="none" stroke-width="3.0" stroke-linecap="round" stroke-linejoin="round" />
<path d="M 172.5 133.5 L 172.5 133.5 L 172.5 133.5 L 172.5 134.0 L 173.5 136.5 L 176.0 141.0 L 178.0 147.0 L 179.5 151.0 " stroke="black" fill="none" stroke-width="3.0" stroke-linecap="round" stroke-linejoin="round" />
<path d="M 182.0 134.5 L 182.5 134.5 L 183.0 134.5 L 183.5 135.0 L 183.5 135.5 L 184.0 137.5 L 184.5 140.0 L 184.5 141.0 L 185.5 144.5 L 185.5 145.0 " stroke="black" fill="none" stroke-width="3.0" stroke-linecap="round" stroke-linejoin="round" />
<path d="M 191.0 132.5 L 191.0 133.0 L 191.0 133.5 L 191.5 134.5 L 192.0 137.0 L 192.5 141.5 L 192.5 146.0 " stroke="black" fill="none" stroke-width="3.0" stroke-linecap="round" stroke-linejoin="round" />
<path d="M 142.5 172.0 L 142.5 172.5 L 143.0 172.5 L 146.5 172.5 L 152.0 171.5 L 154.0 171.0 L 163.0 168.5 L 168.5 166.0 L 169.5 165.0 " stroke="black" fill="none" stroke-width="3.0" stroke-linecap="round" stroke-linejoin="round" />
<path d="M 158.0 162.0 L 157.5 162.0 L 157.5 162.0 L 157.5 161.5 L 157.5 161.5 L 157.5 161.5 L 157.5 162.0 L 158.5 166.0 L 159.5 173.0 L 159.5 181.0 L 158.5 188.5 L 158.0 191.5 L 158.0 192.0 " stroke="black" fill="none" stroke-width="3.0" stroke-linecap="round" stroke-linejoin="round" />
<path d="M 157.5 175.0 L 157.5 174.5 L 157.0 174.0 L 156.0 174.0 L 155.0 174.5 L 152.0 177.0 L 149.0 180.0 L 148.0 181.5 L 144.5 185.0 L 143.0 186.5 L 138.5 190.0 L 137.0 190.5 L 132.0 192.5 L 130.5 192.0 L 130.5 191.5 " stroke="black" fill="none" stroke-width="3.0" stroke-linecap="round" stroke-linejoin="round" />
<path d="M 160.0 178.5 L 164.0 179.5 L 167.5 181.0 L 170.5 183.0 L 174.0 186.0 L 177.0 188.5 L 179.0 190.5 L 179.5 191.0 " stroke="black" fill="none" stroke-width="3.0" stroke-linecap="round" stroke-linejoin="round" />
</svg>