<svg xmlns="http://www.w3.org/2000/svg" width="300" height="300" viewBox="0 0 300 300">
<path d="M 127.5 114.5 L 127.5 114.5 L 127.5 114.5 L 127.0 114.5 L 127.0 116.0 L 127.5 121.0 L 128.0 123.0 L 128.0 130.5 L 128.5 132.5 L 128.5 137.0 L 129.0 138.0 L 129.0 138.5 L 129.0 137.5 " stroke="black" fill="none" stroke-width="3.0" stroke-linecap="round" stroke-linejoin="round" />
<path d="M 129.5 114.5 L 129.5 114.5 L 129.5 114.5 L 130.0 114.5 L 131.5 114.0 L 132.5 113.5 L 138.5 113.0 L 144.0 115.5 L 146.5 122.0 L 146.0 128.5 L 144.0 134.0 L 142.5 135.5 " stroke="black" fill="none" stroke-width="3.0" stroke-linecap="round" stroke-linejoin="round" />
<path d="M 129.0 126.5 L 128.0 126.5 L 127.5 126.5 L 129.5 126.5 L 134.0 125.5 L 138.0 125.0 L 139.0 125.0 L 140.0 125.0 " stroke="black" fill="none" stroke-width="3.0" stroke-linecap="round" stroke-linejoin="round" />
<path d="M 129.5 139.5 L 129.0 140.5 L 129.0 140.5 L 131.0 140.5 L 132.0 140.0 L 138.0 137.0 L 143.5 134.0 L 145.5 133.0 L 147.0 131.5 " stroke="black" fill="none" stroke-width="3.0" stroke-linecap="round" stroke-linejoin="round" />
<path d="M 152.5 111.0 L 152.5 111.0 L 152.0 111.0 L 152.0 112.0 L 152.5 117.0 L 153.5 126.0 L 153.5 134.0 L 153.5 137.5 L 153.5 138.0 L 153.5 138.0 " stroke="black" fill="none" stroke-width="3.0" stroke-linecap="round" stroke-linejoin="round" />
<path d="M 154.0 104.0 L 154.5 102.5 L 155.5 101.5 L 156.0 101.5 L 159.5 101.0 L 162.5 102.5 L 163.5 103.0 L 168.0 107.5 L 170.0 114.5 L 170.5 125.0 L 169.5 137.0 L 168.5 147.0 L 167.5 152.5 L 166.5 153.0 L 166.0 152.5 " stroke="black" fill="none" stroke-width="3.0" stroke-linecap="round" stroke-linejoin="round" />
<path d="M 153.0 120.5 L 153.0 120.5 L 153.5 120.5 L 153.5 120.5 L 156.0 119.5 L 160.0 118.0 L 161.5 117.5 L 166.0 115.5 L 167.5 115.0 " stroke="black" fill="none" stroke-width="3.0" stroke-linecap="round" stroke-linejoin="round" />
<path d="M 154.0 130.0 L 154.0 130.0 L 154.0 130.0 L 154.0 130.0 L 156.5 129.5 L 161.0 127.0 L 163.0 126.5 L 166.5 124.5 " stroke="black" fill="none" stroke-width="3.0" stroke-linecap="round" stroke-linejoin="round" />
<path d="M 133.0 152.0 L 133.0 152.0 L 133.0 152.0 L 133.0 152.0 L 133.0 152.0 L 134.0 152.5 L 136.0 155.5 L 140.5 160.5 L 144.0 165.5 L 146.0 168.0 " stroke="black" fill="none" stroke-width="3.0" stroke-linecap="round" stroke-linejoin="round" />
<path d="M 139.5 156.5 L 139.5 156.5 L 139.5 156.0 L 143.0 154.5 L 151.0 152.0 L 160.5 150.0 L 166.5 150.0 L 168.0 152.0 L 168.0 152.5 L 167.0 155.5 L 166.5 156.5 L 163.5 160.5 L 159.5 164.0 L 156.0 166.5 " stroke="black" fill="none" stroke-width="3.0" stroke-linecap="round" stroke-linejoin="round" />
<path d="M 149.5 152.5 L 149.5 153.0 L 149.5 154.5 L 150.0 157.5 L 151.0 163.0 L 151.5 168.0 L 152.0 169.0 " stroke="black" fill="none" stroke-width="3.0" stroke-linecap="round" stroke-linejoin="round" />
<path d="M 156.5 153.5 L 156.5 153.5 L 156.0 154.0 L 154.5 156.0 L 152.5 161.0 L 149.0 166.5 L 147.0 170.0 " stroke="black" fill="none" stroke-width="3.0" stroke-linecap="round" stroke-linejoin="round" />
<path d="M 125.0 177.5 L 125.0 177.5 L 125.0 177.5 L 126.5 177.0 L 128.0 177.0 L 133.5 176.0 L 135.5 175.5 L 144.0 174.0 L 147.0 173.5 L 158.5 171.0 L 167.5 169.5 L 172.5 169.0 L 173.5 169.5 L 172.0 170.5 L 171.0 170.5 " stroke="black" fill="none" stroke-width="3.0" stroke-linecap="round" stroke-linejoin="round" />
</svg>