<svg xmlns="http://www.w3.org/2000/svg" width="300" height="300" viewBox="0 0 300 300">
<path d="M 110.0 142.5 L 110.0 142.5 L 110.5 142.5 L 112.0 142.5 L 118.5 140.5 L 127.5 136.0 L 134.0 132.5 L 136.0 131.5 L 136.0 131.5 L 135.0 132.5 L 134.0 133.0 L 131.5 135.0 L 129.0 137.0 L 128.0 137.5 L 127.5 137.5 L 127.5 138.0 L 127.5 139.5 L 127.5 143.5 L 126.5 148.0 L 126.0 149.5 L 124.0 155.0 L 123.0 156.5 L 119.0 164.0 L 114.5 170.0 L 111.5 172.5 L 111.0 173.0 L 111.0 172.5 " stroke="black" fill="none" stroke-width="3.0" stroke-linecap="round" stroke-linejoin="round" />
<path d="M 124.5 159.5 L 124.5 159.5 L 125.0 159.5 L 126.0 160.5 L 127.0 163.0 L 128.5 167.5 L 129.0 172.5 L 129.0 176.0 L 129.0 176.0 L 129.0 176.0 L 129.0 175.0 " stroke="black" fill="none" stroke-width="3.0" stroke-linecap="round" stroke-linejoin="round" />
<path d="M 129.5 161.5 L 130.5 158.5 L 132.0 157.5 L 135.0 157.5 L 137.5 158.5 L 139.0 161.5 L 139.0 164.0 L 139.0 165.0 L 136.5 169.5 L 133.5 172.5 L 132.5 173.5 L 129.0 175.0 L 128.0 174.5 " stroke="black" fill="none" stroke-width="3.0" stroke-linecap="round" stroke-linejoin="round" />
<path d="M 149.5 115.5 L 149.5 115.5 L 149.5 115.5 L 150.5 117.0 L 152.0 121.5 L 153.5 129.0 L 154.0 133.0 L 154.0 134.0 L 154.0 135.0 L 154.0 135.5 L 154.0 135.0 " stroke="black" fill="none" stroke-width="3.0" stroke-linecap="round" stroke-linejoin="round" />
<path d="M 154.0 120.0 L 155.0 118.5 L 157.0 117.5 L 161.0 116.0 L 164.0 115.5 L 165.0 115.5 L 167.5 115.5 L 168.0 115.5 L 170.0 119.0 L 170.0 124.0 L 169.5 129.0 L 168.5 133.5 L 168.0 135.0 L 168.0 134.0 " stroke="black" fill="none" stroke-width="3.0" stroke-linecap="round" stroke-linejoin="round" />
<path d="M 156.5 128.5 L 155.5 129.5 L 155.0 130.0 L 156.0 130.0 L 159.5 129.0 L 164.0 127.0 L 166.5 126.0 L 167.5 125.5 L 168.5 125.5 " stroke="black" fill="none" stroke-width="3.0" stroke-linecap="round" stroke-linejoin="round" />
<path d="M 154.5 139.0 L 154.0 140.0 L 155.5 140.0 L 158.5 139.0 L 160.0 138.5 L 164.0 136.0 L 165.5 135.0 L 169.0 134.0 L 169.5 133.5 L 170.0 133.5 " stroke="black" fill="none" stroke-width="3.0" stroke-linecap="round" stroke-linejoin="round" />
<path d="M 157.5 142.0 L 157.5 142.0 L 157.5 142.0 L 157.5 142.0 L 157.5 142.0 L 157.5 142.0 L 157.5 143.0 L 157.0 143.5 L 154.0 149.0 L 150.0 157.0 L 146.0 163.0 L 144.5 164.5 " stroke="black" fill="none" stroke-width="3.0" stroke-linecap="round" stroke-linejoin="round" />
<path d="M 152.5 154.0 L 152.5 154.0 L 153.0 154.5 L 154.0 154.5 L 157.5 153.0 L 164.0 150.5 L 171.0 148.0 L 175.0 147.0 L 176.5 147.0 L 176.5 147.0 L 176.5 147.0 L 176.5 147.0 L 176.5 147.5 L 177.0 149.5 L 177.5 152.0 L 178.0 155.5 L 178.5 160.5 L 178.5 167.0 L 177.5 174.5 L 176.5 178.5 L 176.0 180.0 L 175.5 182.0 L 175.5 182.0 L 175.0 182.0 " stroke="black" fill="none" stroke-width="3.0" stroke-linecap="round" stroke-linejoin="round" />
<path d="M 167.5 156.5 L 167.5 156.0 L 167.5 155.5 L 167.5 155.0 L 167.5 155.0 L 167.5 155.0 L 167.0 157.0 L 166.5 157.5 L 164.5 161.0 L 164.0 162.5 L 160.0 168.0 L 157.0 172.0 L 156.0 172.0 " stroke="black" fill="none" stroke-width="3.0" stroke-linecap="round" stroke-linejoin="round" />
<path d="M 160.0 164.5 L 160.5 164.5 L 160.5 164.5 L 161.5 164.5 L 162.0 164.5 L 163.5 164.5 L 164.5 164.5 L 168.0 164.5 L 168.5 164.5 " stroke="black" fill="none" stroke-width="3.0" stroke-linecap="round" stroke-linejoin="round" />
<path d="M 151.0 167.0 L 151.0 167.0 L 151.0 167.0 L 151.0 167.0 L 151.0 167.5 L 151.5 171.0 L 151.5 177.0 L 151.5 181.0 L 151.0 182.5 L 151.0 185.0 L 151.0 185.5 L 152.5 186.0 L 156.5 183.5 L 162.0 179.5 L 166.0 176.5 L 167.0 175.5 " stroke="black" fill="none" stroke-width="3.0" stroke-linecap="round" stroke-linejoin="round" />
</svg>