<svg xmlns="http://www.w3.org/2000/svg" width="300" height="300" viewBox="0 0 300 300">
<path d="M 127.5 133.0 L 126.0 133.5 L 125.5 133.5 L 125.5 133.5 L 126.0 133.5 L 128.0 133.5 L 129.0 133.5 L 134.0 133.5 L 139.0 133.5 L 141.5 133.5 " stroke="black" fill="none" stroke-width="3.0" stroke-linecap="round" stroke-linejoin="round" />
<path d="M 126.5 144.0 L 124.5 144.5 L 124.0 144.5 L 123.5 144.5 L 125.0 144.5 L 129.0 144.5 L 134.5 144.5 L 140.5 144.5 L 144.5 144.5 L 145.5 144.5 L 145.5 145.0 L 144.0 145.5 L 142.0 146.5 L 141.0 146.5 L 138.0 148.5 L 134.5 151.0 L 131.0 154.0 L 126.5 159.0 L 123.0 164.0 L 121.0 166.5 L 121.0 167.0 " stroke="black" fill="none" stroke-width="3.0" stroke-linecap="round" stroke-linejoin="round" />
<path d="M 134.5 154.0 L 136.0 154.5 L 136.0 155.5 L 136.0 158.0 L 136.0 159.0 L 136.0 163.5 L 135.5 167.5 L 135.5 169.0 L 135.5 172.0 L 135.5 172.5 L 135.5 174.0 L 135.5 174.0 " stroke="black" fill="none" stroke-width="3.0" stroke-linecap="round" stroke-linejoin="round" />
<path d="M 135.5 158.0 L 136.0 158.0 L 137.0 158.5 L 137.5 158.5 L 138.0 158.5 L 140.5 158.5 L 143.0 158.5 " stroke="black" fill="none" stroke-width="3.0" stroke-linecap="round" stroke-linejoin="round" />
<path d="M 157.5 149.5 L 158.0 149.5 L 159.0 149.5 L 161.0 149.5 L 162.5 149.5 L 167.0 149.0 L 168.5 149.0 L 174.0 148.5 L 175.5 148.5 L 179.0 148.0 " stroke="black" fill="none" stroke-width="3.0" stroke-linecap="round" stroke-linejoin="round" />
<path d="M 171.0 142.0 L 169.0 140.5 L 168.5 140.0 L 168.0 140.0 L 168.0 140.0 L 168.0 140.0 L 168.0 141.5 L 168.0 142.5 L 169.0 149.0 L 170.0 157.0 L 170.5 165.0 L 170.5 171.0 L 170.5 172.0 " stroke="black" fill="none" stroke-width="3.0" stroke-linecap="round" stroke-linejoin="round" />
<path d="M 159.0 172.5 L 157.5 172.5 L 157.5 173.0 L 158.0 173.0 L 162.0 173.0 L 168.0 172.5 L 173.5 172.0 L 175.5 172.0 L 181.0 171.5 L 182.5 171.5 L 185.5 171.5 L 186.0 171.5 L 186.0 171.5 " stroke="black" fill="none" stroke-width="3.0" stroke-linecap="round" stroke-linejoin="round" />
</svg>