<svg xmlns="http://www.w3.org/2000/svg" width="300" height="300" viewBox="0 0 300 300">
<path d="M 132.5 119.5 L 132.5 119.5 L 132.5 120.0 L 133.0 120.0 L 136.0 119.5 L 143.5 116.5 L 152.5 112.5 L 157.5 110.5 L 158.5 110.0 L 159.0 109.5 " stroke="black" fill="none" stroke-width="3.0" stroke-linecap="round" stroke-linejoin="round" />
<path d="M 131.5 128.5 L 131.5 128.5 L 131.5 128.5 L 131.5 128.5 L 131.5 128.5 L 131.5 128.5 L 133.0 129.0 L 136.5 132.0 L 141.0 136.0 L 145.0 139.5 L 146.0 140.0 " stroke="black" fill="none" stroke-width="3.0" stroke-linecap="round" stroke-linejoin="round" />
<path d="M 141.5 131.5 L 141.0 130.5 L 142.0 129.0 L 147.5 127.0 L 155.5 125.0 L 161.5 124.5 L 163.5 124.5 L 162.5 126.5 L 158.5 129.5 L 155.0 132.5 L 154.0 133.5 L 150.5 136.0 L 149.5 137.0 L 147.0 139.0 " stroke="black" fill="none" stroke-width="3.0" stroke-linecap="round" stroke-linejoin="round" />
<path d="M 125.5 152.5 L 124.5 152.0 L 124.5 152.0 L 124.5 152.0 L 125.0 152.0 L 127.5 156.0 L 130.0 162.0 L 132.5 170.0 L 134.0 174.5 L 134.0 175.0 L 135.0 176.5 " stroke="black" fill="none" stroke-width="3.0" stroke-linecap="round" stroke-linejoin="round" />
<path d="M 129.0 159.5 L 128.0 159.0 L 128.0 158.5 L 128.0 158.5 L 130.5 157.0 L 132.0 156.0 L 138.0 154.0 L 140.5 153.0 L 151.5 150.0 L 161.5 148.0 L 168.5 147.0 L 171.0 147.5 L 171.0 150.0 L 171.0 153.5 L 170.5 156.5 L 170.0 157.5 L 169.5 160.5 L 169.5 161.5 L 168.5 167.0 L 167.0 172.5 L 165.5 176.5 L 164.5 177.5 " stroke="black" fill="none" stroke-width="3.0" stroke-linecap="round" stroke-linejoin="round" />
<path d="M 148.0 124.0 L 148.0 124.5 L 148.0 124.5 L 148.0 125.5 L 148.0 126.5 L 148.0 131.0 L 148.0 133.0 L 148.5 144.5 L 148.0 157.0 L 147.0 166.0 L 146.5 170.0 L 147.0 171.5 L 148.5 172.0 L 150.5 172.0 L 151.0 171.5 L 153.0 169.5 L 154.0 169.0 L 156.0 166.0 L 157.5 164.0 L 158.0 163.5 " stroke="black" fill="none" stroke-width="3.0" stroke-linecap="round" stroke-linejoin="round" />
<path d="M 158.0 157.0 L 158.0 157.0 L 158.0 157.0 L 158.5 157.0 L 158.5 157.0 L 159.0 157.5 L 159.5 161.0 L 160.0 167.0 L 160.5 172.0 L 160.5 173.5 " stroke="black" fill="none" stroke-width="3.0" stroke-linecap="round" stroke-linejoin="round" />
</svg>