<svg xmlns="http://www.w3.org/2000/svg" width="300" height="300" viewBox="0 0 300 300">
<path d="M 141.5 122.0 L 141.5 120.5 L 141.5 120.0 L 141.5 120.0 L 141.0 120.0 L 140.5 120.0 L 139.0 120.0 L 138.0 120.5 L 135.0 122.5 L 133.5 123.5 L 127.0 128.0 L 121.5 133.0 L 118.0 135.5 " stroke="black" fill="none" stroke-width="3.0" stroke-linecap="round" stroke-linejoin="round" />
<path d="M 116.0 144.0 L 116.0 144.0 L 115.5 144.5 L 116.5 144.5 L 121.0 144.5 L 127.0 143.0 L 133.5 141.0 L 135.5 140.5 L 141.0 138.5 L 142.0 138.0 L 143.0 137.5 " stroke="black" fill="none" stroke-width="3.0" stroke-linecap="round" stroke-linejoin="round" />
<path d="M 132.5 131.0 L 132.5 130.0 L 132.5 130.0 L 132.5 129.5 L 132.5 129.5 L 132.5 129.5 L 132.5 131.0 L 132.5 132.5 L 133.0 139.0 L 133.5 150.0 L 133.0 163.0 L 132.0 174.0 L 131.5 179.0 L 131.5 180.0 L 131.5 179.5 L 131.5 179.0 L 131.0 176.5 L 131.0 175.5 L 131.0 171.0 L 131.0 169.0 L 131.0 161.5 L 131.0 155.5 L 131.0 153.0 L 130.5 152.5 L 129.5 153.5 L 128.0 155.5 L 126.0 157.0 L 125.5 158.0 L 123.0 160.5 L 122.0 161.5 L 118.0 165.0 L 113.5 167.5 L 111.5 168.5 L 111.5 167.5 " stroke="black" fill="none" stroke-width="3.0" stroke-linecap="round" stroke-linejoin="round" />
<path d="M 132.0 151.0 L 135.0 151.0 L 139.0 151.5 L 140.0 152.0 L 144.0 154.5 L 146.0 157.0 L 147.0 159.0 L 147.5 159.5 " stroke="black" fill="none" stroke-width="3.0" stroke-linecap="round" stroke-linejoin="round" />
<path d="M 158.0 109.5 L 158.0 108.5 L 158.0 107.5 L 158.0 107.5 L 158.0 107.5 L 159.0 109.5 L 159.5 115.0 L 160.0 121.5 L 160.0 127.0 L 160.0 128.5 L 160.0 128.5 " stroke="black" fill="none" stroke-width="3.0" stroke-linecap="round" stroke-linejoin="round" />
<path d="M 164.0 109.0 L 166.0 107.5 L 166.5 107.5 L 169.0 107.5 L 172.5 109.5 L 175.5 113.0 L 177.5 117.5 L 177.0 122.5 L 177.0 123.0 " stroke="black" fill="none" stroke-width="3.0" stroke-linecap="round" stroke-linejoin="round" />
<path d="M 163.5 117.0 L 163.5 117.5 L 164.5 117.5 L 166.5 117.5 L 167.5 117.5 L 171.5 117.5 L 172.0 117.5 " stroke="black" fill="none" stroke-width="3.0" stroke-linecap="round" stroke-linejoin="round" />
<path d="M 163.0 124.0 L 162.5 125.0 L 163.0 125.0 L 166.0 125.0 L 169.5 124.5 L 172.0 123.5 " stroke="black" fill="none" stroke-width="3.0" stroke-linecap="round" stroke-linejoin="round" />
<path d="M 146.5 139.5 L 146.5 140.0 L 148.0 140.0 L 149.0 139.5 L 158.0 137.5 L 168.5 134.5 L 175.0 133.0 L 176.0 133.0 L 175.5 134.0 " stroke="black" fill="none" stroke-width="3.0" stroke-linecap="round" stroke-linejoin="round" />
<path d="M 161.0 137.0 L 160.5 137.0 L 160.0 137.5 L 159.5 140.0 L 159.0 145.0 L 158.5 151.5 L 158.0 157.5 L 157.5 160.0 L 157.5 160.0 " stroke="black" fill="none" stroke-width="3.0" stroke-linecap="round" stroke-linejoin="round" />
<path d="M 165.5 139.5 L 165.5 140.0 L 165.5 141.5 L 165.5 146.0 L 165.5 153.5 L 165.0 164.5 L 164.5 174.0 L 164.5 177.5 L 164.0 185.5 L 163.5 188.0 L 163.0 193.0 L 162.0 193.5 L 160.5 191.0 L 160.5 190.0 " stroke="black" fill="none" stroke-width="3.0" stroke-linecap="round" stroke-linejoin="round" />
<path d="M 155.0 153.0 L 154.5 153.0 L 154.5 153.0 L 157.0 152.0 L 161.0 151.0 L 163.5 151.0 " stroke="black" fill="none" stroke-width="3.0" stroke-linecap="round" stroke-linejoin="round" />
<path d="M 152.5 162.5 L 151.5 163.5 L 151.5 164.0 L 152.5 164.0 L 156.5 162.5 L 161.5 160.0 L 165.0 158.5 L 165.5 158.5 L 166.5 158.5 " stroke="black" fill="none" stroke-width="3.0" stroke-linecap="round" stroke-linejoin="round" />
<path d="M 159.0 147.0 L 159.5 146.5 L 161.0 146.0 L 163.0 145.0 L 165.0 144.5 " stroke="black" fill="none" stroke-width="3.0" stroke-linecap="round" stroke-linejoin="round" />
<path d="M 170.5 150.5 L 169.5 151.5 L 169.5 151.5 L 169.5 151.5 L 173.0 149.5 L 178.0 147.0 L 183.0 145.0 L 186.0 144.5 L 186.0 147.5 L 183.0 153.5 L 180.0 158.5 L 179.0 160.5 L 175.5 165.5 L 175.0 166.5 L 172.0 168.5 L 171.0 168.5 " stroke="black" fill="none" stroke-width="3.0" stroke-linecap="round" stroke-linejoin="round" />
<path d="M 173.0 154.0 L 173.5 154.0 L 175.5 154.5 L 179.5 156.5 L 181.0 157.5 L 185.5 161.5 L 187.0 163.0 L 191.0 167.0 L 192.5 168.5 L 194.0 171.0 " stroke="black" fill="none" stroke-width="3.0" stroke-linecap="round" stroke-linejoin="round" />
</svg>