<svg xmlns="http://www.w3.org/2000/svg" width="300" height="300" viewBox="0 0 300 300">
<path d="M 134.0 115.5 L 134.5 114.5 L 135.0 114.0 L 135.5 113.5 L 136.0 113.0 L 136.0 113.0 L 136.5 112.5 L 136.5 113.0 L 133.5 118.0 L 129.5 125.0 L 124.5 132.0 L 122.5 136.0 L 122.5 136.5 L 123.0 136.5 L 127.0 136.0 L 132.0 134.0 L 138.0 131.0 L 142.5 128.5 " stroke="black" fill="none" stroke-width="3.0" stroke-linecap="round" stroke-linejoin="round" />
<path d="M 141.5 125.0 L 141.5 125.0 L 141.5 125.5 L 141.5 125.5 L 141.5 125.5 L 142.0 127.0 L 143.0 131.5 L 144.0 138.5 L 144.5 142.5 " stroke="black" fill="none" stroke-width="3.0" stroke-linecap="round" stroke-linejoin="round" />
<path d="M 127.0 151.5 L 127.0 151.5 L 127.0 151.5 L 127.0 151.5 L 127.0 152.0 L 127.0 155.0 L 127.0 156.5 L 127.0 162.0 L 127.0 164.0 L 127.0 170.5 L 127.0 172.5 L 126.5 177.0 L 126.0 177.5 L 126.0 175.5 L 126.0 170.0 L 126.5 163.0 L 128.5 155.5 L 131.0 152.0 L 132.0 151.0 L 135.5 150.5 L 136.5 150.5 L 139.0 153.5 L 139.5 155.0 L 141.5 161.5 L 142.5 170.0 L 142.5 179.5 L 142.0 186.5 L 141.0 189.0 L 139.5 189.0 L 137.5 186.5 L 137.0 185.5 " stroke="black" fill="none" stroke-width="3.0" stroke-linecap="round" stroke-linejoin="round" />
<path d="M 128.5 163.0 L 128.5 163.0 L 129.0 163.0 L 132.0 162.0 L 133.0 161.5 L 137.5 160.0 L 138.5 160.0 L 139.5 160.0 " stroke="black" fill="none" stroke-width="3.0" stroke-linecap="round" stroke-linejoin="round" />
<path d="M 131.0 169.5 L 130.5 170.5 L 130.5 170.5 L 131.5 170.5 L 135.5 168.5 L 142.0 164.5 " stroke="black" fill="none" stroke-width="3.0" stroke-linecap="round" stroke-linejoin="round" />
<path d="M 159.0 129.5 L 159.0 129.5 L 158.5 129.5 L 159.5 129.5 L 163.5 128.5 L 169.0 126.5 L 171.5 125.0 " stroke="black" fill="none" stroke-width="3.0" stroke-linecap="round" stroke-linejoin="round" />
<path d="M 158.5 119.5 L 158.5 119.5 L 158.0 120.0 L 157.5 120.5 L 157.5 121.5 L 157.5 126.0 L 158.0 131.0 L 158.0 133.0 L 158.5 138.0 L 159.0 139.5 L 160.5 143.0 L 163.5 143.5 L 167.0 142.5 L 168.0 142.0 " stroke="black" fill="none" stroke-width="3.0" stroke-linecap="round" stroke-linejoin="round" />
<path d="M 159.5 159.0 L 159.5 159.5 L 159.5 160.0 L 161.5 159.5 L 166.0 158.0 L 170.0 155.5 L 172.0 154.5 " stroke="black" fill="none" stroke-width="3.0" stroke-linecap="round" stroke-linejoin="round" />
<path d="M 158.0 151.0 L 156.5 152.0 L 156.0 153.5 L 156.0 158.0 L 157.0 164.5 L 158.0 169.0 L 158.5 170.0 L 160.5 173.5 L 162.5 174.5 L 163.5 174.5 L 166.5 174.0 L 171.0 171.0 L 173.5 169.0 " stroke="black" fill="none" stroke-width="3.0" stroke-linecap="round" stroke-linejoin="round" />
</svg>