<svg xmlns="http://www.w3.org/2000/svg" width="300" height="300" viewBox="0 0 300 300">
<path d="M 124.0 112.5 L 124.0 112.5 L 124.0 112.5 L 127.0 112.5 L 136.0 111.5 L 150.0 108.5 L 159.5 106.0 L 163.0 105.0 L 168.0 103.5 L 169.0 103.5 " stroke="black" fill="none" stroke-width="3.0" stroke-linecap="round" stroke-linejoin="round" />
<path d="M 147.5 101.5 L 147.5 100.5 L 147.5 100.0 L 147.5 100.0 L 147.5 101.0 L 148.0 105.5 L 148.0 112.0 L 147.5 116.5 L 147.5 117.5 " stroke="black" fill="none" stroke-width="3.0" stroke-linecap="round" stroke-linejoin="round" />
<path d="M 155.5 99.5 L 156.5 98.5 L 157.0 98.5 L 157.0 102.0 L 156.5 109.0 L 154.5 118.0 L 154.0 120.0 " stroke="black" fill="none" stroke-width="3.0" stroke-linecap="round" stroke-linejoin="round" />
<path d="M 124.5 134.5 L 123.5 135.0 L 123.0 135.0 L 125.5 135.0 L 132.5 133.0 L 145.5 129.0 L 158.5 124.5 L 166.0 123.5 L 167.0 123.5 " stroke="black" fill="none" stroke-width="3.0" stroke-linecap="round" stroke-linejoin="round" />
<path d="M 146.5 122.5 L 146.0 122.0 L 146.0 121.5 L 146.0 121.5 L 146.0 122.0 L 147.0 123.5 L 147.0 124.5 L 148.0 130.0 L 148.5 135.5 L 148.5 138.0 " stroke="black" fill="none" stroke-width="3.0" stroke-linecap="round" stroke-linejoin="round" />
<path d="M 157.0 123.5 L 157.5 122.5 L 157.5 122.5 L 157.5 122.5 L 157.5 122.5 L 157.5 124.0 L 157.0 125.0 L 155.5 129.0 L 155.0 130.5 L 152.0 137.0 L 149.0 142.5 L 148.5 143.5 " stroke="black" fill="none" stroke-width="3.0" stroke-linecap="round" stroke-linejoin="round" />
<path d="M 134.0 128.5 L 134.0 128.5 L 134.0 128.5 L 134.0 128.5 L 134.0 128.5 L 134.5 130.5 L 135.0 132.0 L 135.5 137.0 L 135.5 139.0 L 136.0 147.5 L 136.0 151.5 L 137.0 152.5 L 142.0 152.0 L 149.0 148.5 L 157.0 144.5 L 163.5 142.5 L 165.5 142.0 L 165.5 142.0 L 165.0 144.0 " stroke="black" fill="none" stroke-width="3.0" stroke-linecap="round" stroke-linejoin="round" />
<path d="M 130.5 164.0 L 129.0 165.0 L 129.0 165.0 L 129.0 165.0 L 131.0 165.0 L 137.0 163.5 L 146.0 160.5 L 155.5 157.5 L 162.5 155.0 L 163.0 155.0 " stroke="black" fill="none" stroke-width="3.0" stroke-linecap="round" stroke-linejoin="round" />
<path d="M 151.0 146.0 L 150.0 145.5 L 150.0 145.5 L 150.5 150.0 L 151.5 156.5 L 152.0 159.5 L 152.5 169.0 L 152.5 172.5 L 152.5 181.0 L 152.5 183.5 L 152.5 189.0 L 152.5 190.0 L 152.0 188.5 L 151.5 184.5 " stroke="black" fill="none" stroke-width="3.0" stroke-linecap="round" stroke-linejoin="round" />
<path d="M 150.0 169.5 L 149.0 167.5 L 148.5 166.5 L 148.5 166.0 L 148.0 165.5 L 147.5 165.5 L 147.0 165.5 L 145.0 167.0 L 140.5 171.5 L 135.0 177.0 L 129.0 181.5 L 125.0 183.0 L 125.0 182.5 L 125.0 182.0 L 125.5 181.0 " stroke="black" fill="none" stroke-width="3.0" stroke-linecap="round" stroke-linejoin="round" />
<path d="M 151.0 169.0 L 156.5 171.5 L 162.5 175.0 L 169.0 178.5 L 173.5 181.5 L 175.5 182.5 L 175.5 183.0 L 175.5 183.0 L 175.5 183.0 L 175.5 182.5 " stroke="black" fill="none" stroke-width="3.0" stroke-linecap="round" stroke-linejoin="round" />
</svg>