<svg xmlns="http://www.w3.org/2000/svg" width="300" height="300" viewBox="0 0 300 300">
<path d="M 127.5 109.5 L 127.0 109.5 L 126.5 109.5 L 127.5 109.5 L 133.0 109.0 L 140.0 108.5 L 143.0 108.5 L 151.0 108.0 L 154.0 108.0 L 163.0 108.0 L 168.0 108.0 " stroke="black" fill="none" stroke-width="3.0" stroke-linecap="round" stroke-linejoin="round" />
<path d="M 144.5 101.0 L 144.5 101.5 L 144.0 103.0 L 144.5 106.0 L 145.0 111.5 L 146.0 117.5 L 146.5 119.0 " stroke="black" fill="none" stroke-width="3.0" stroke-linecap="round" stroke-linejoin="round" />
<path d="M 155.0 103.5 L 155.0 104.0 L 155.0 105.0 L 154.5 109.0 L 154.5 116.0 L 154.5 120.0 " stroke="black" fill="none" stroke-width="3.0" stroke-linecap="round" stroke-linejoin="round" />
<path d="M 121.0 147.5 L 121.0 147.5 L 121.0 147.5 L 121.0 147.5 L 121.5 147.5 L 121.5 147.5 L 124.0 148.0 L 129.0 148.5 L 131.0 149.0 " stroke="black" fill="none" stroke-width="3.0" stroke-linecap="round" stroke-linejoin="round" />
<path d="M 122.0 158.5 L 121.5 159.0 L 122.0 159.5 L 125.0 160.0 L 130.5 160.5 L 134.0 161.5 " stroke="black" fill="none" stroke-width="3.0" stroke-linecap="round" stroke-linejoin="round" />
<path d="M 119.5 175.5 L 119.5 176.0 L 119.0 176.5 L 121.0 177.0 L 125.0 177.0 L 129.5 177.0 " stroke="black" fill="none" stroke-width="3.0" stroke-linecap="round" stroke-linejoin="round" />
<path d="M 145.5 129.5 L 145.5 129.0 L 146.5 128.5 L 146.5 128.5 L 149.5 128.0 L 150.5 128.0 L 156.0 128.5 L 157.5 129.0 L 163.5 132.5 L 165.5 137.5 L 165.5 143.0 L 164.0 146.5 " stroke="black" fill="none" stroke-width="3.0" stroke-linecap="round" stroke-linejoin="round" />
<path d="M 142.5 136.0 L 142.5 136.0 L 144.0 136.5 L 148.0 137.0 L 149.5 137.0 L 156.5 137.5 L 159.0 138.0 L 164.5 138.5 L 166.0 138.5 L 169.0 139.5 " stroke="black" fill="none" stroke-width="3.0" stroke-linecap="round" stroke-linejoin="round" />
<path d="M 144.0 146.5 L 144.0 146.5 L 144.0 146.5 L 143.5 146.5 L 144.0 146.5 L 147.5 146.5 L 155.0 146.5 L 162.5 146.5 L 166.5 146.5 " stroke="black" fill="none" stroke-width="3.0" stroke-linecap="round" stroke-linejoin="round" />
<path d="M 144.0 148.5 L 143.5 148.5 L 143.5 148.5 L 143.0 148.5 L 143.0 149.0 L 144.0 151.5 L 145.5 155.0 L 147.5 157.5 " stroke="black" fill="none" stroke-width="3.0" stroke-linecap="round" stroke-linejoin="round" />
<path d="M 145.5 152.0 L 145.5 152.0 L 145.0 151.5 L 146.0 151.5 L 151.0 151.5 L 159.0 151.5 L 164.0 151.5 L 165.5 151.5 L 168.5 151.5 L 168.5 151.5 L 169.0 153.0 L 168.0 155.0 L 166.0 157.5 L 163.0 159.5 " stroke="black" fill="none" stroke-width="3.0" stroke-linecap="round" stroke-linejoin="round" />
<path d="M 146.5 158.0 L 146.0 158.0 L 146.0 157.5 " stroke="black" fill="none" stroke-width="3.0" stroke-linecap="round" stroke-linejoin="round" />
<path d="M 149.5 158.0 L 149.0 157.5 L 149.0 157.5 L 149.0 157.5 L 149.0 157.5 L 149.0 157.5 L 149.0 158.0 L 149.0 159.5 L 149.0 160.0 L 150.0 163.5 L 150.0 164.0 " stroke="black" fill="none" stroke-width="3.0" stroke-linecap="round" stroke-linejoin="round" />
<path d="M 152.0 159.0 L 153.0 159.0 L 153.0 159.0 L 154.5 158.5 L 155.0 158.5 L 157.5 158.5 L 160.5 158.5 L 162.0 159.5 L 162.5 161.5 L 161.5 164.5 L 159.0 167.5 L 157.5 168.5 " stroke="black" fill="none" stroke-width="3.0" stroke-linecap="round" stroke-linejoin="round" />
<path d="M 154.0 148.5 L 154.0 148.5 L 154.0 148.5 L 154.5 149.0 L 154.5 152.5 L 155.0 159.0 L 155.0 167.0 L 155.0 172.0 L 155.0 173.5 " stroke="black" fill="none" stroke-width="3.0" stroke-linecap="round" stroke-linejoin="round" />
<path d="M 147.5 176.0 L 147.5 176.0 L 147.0 176.0 L 147.0 175.5 L 149.5 174.5 L 155.0 174.0 L 160.5 173.5 L 163.0 174.5 L 163.0 177.0 L 160.0 181.0 L 156.5 184.5 L 152.5 187.0 L 149.0 188.0 L 147.0 188.0 " stroke="black" fill="none" stroke-width="3.0" stroke-linecap="round" stroke-linejoin="round" />
<path d="M 147.0 177.0 L 147.0 177.0 L 148.0 176.5 L 150.0 176.5 L 154.5 178.0 L 160.0 182.0 L 164.0 186.0 L 166.0 189.0 L 166.5 190.0 L 167.0 191.0 " stroke="black" fill="none" stroke-width="3.0" stroke-linecap="round" stroke-linejoin="round" />
</svg>