<svg xmlns="http://www.w3.org/2000/svg" width="300" height="300" viewBox="0 0 300 300">
<path d="M 119.0 134.5 L 118.0 134.5 L 119.0 134.5 L 119.5 134.5 L 123.0 134.5 L 124.5 134.5 L 130.0 133.5 L 131.5 133.0 L 137.0 132.5 L 139.0 132.0 L 140.5 132.0 " stroke="black" fill="none" stroke-width="3.0" stroke-linecap="round" stroke-linejoin="round" />
<path d="M 116.5 153.0 L 117.5 153.0 L 117.5 153.0 L 121.0 152.5 L 128.0 151.0 L 137.5 147.5 L 145.5 143.5 L 149.0 141.0 " stroke="black" fill="none" stroke-width="3.0" stroke-linecap="round" stroke-linejoin="round" />
<path d="M 135.5 120.5 L 135.5 121.0 L 135.5 121.0 L 135.5 121.5 L 135.5 126.5 L 134.0 137.5 L 131.5 151.0 L 129.0 163.0 L 128.0 169.0 L 128.0 171.0 L 128.0 171.0 L 128.5 170.5 " stroke="black" fill="none" stroke-width="3.0" stroke-linecap="round" stroke-linejoin="round" />
<path d="M 132.0 150.0 L 132.0 150.0 L 132.5 150.0 L 134.5 151.5 L 138.0 155.5 L 141.5 159.0 L 143.0 160.0 L 145.5 163.0 L 146.5 163.5 L 148.5 165.0 L 149.0 165.0 " stroke="black" fill="none" stroke-width="3.0" stroke-linecap="round" stroke-linejoin="round" />
<path d="M 156.0 120.5 L 156.0 121.0 L 156.5 122.5 L 156.5 127.5 L 156.0 135.5 L 155.5 143.0 L 155.0 147.5 L 155.0 148.0 L 155.0 147.5 " stroke="black" fill="none" stroke-width="3.0" stroke-linecap="round" stroke-linejoin="round" />
<path d="M 161.0 117.0 L 162.5 116.5 L 165.0 116.0 L 167.5 116.5 L 168.5 117.0 L 172.0 121.0 L 174.0 127.0 L 174.5 129.0 L 175.0 137.5 L 175.0 144.5 L 174.5 147.0 L 173.5 147.5 " stroke="black" fill="none" stroke-width="3.0" stroke-linecap="round" stroke-linejoin="round" />
<path d="M 160.5 132.5 L 160.5 132.5 L 160.5 132.0 L 161.5 132.0 L 165.0 132.0 L 169.5 132.0 L 171.5 132.5 " stroke="black" fill="none" stroke-width="3.0" stroke-linecap="round" stroke-linejoin="round" />
<path d="M 159.5 142.5 L 158.5 143.5 L 158.5 144.0 L 158.5 144.0 L 161.5 144.0 L 165.0 143.0 L 166.0 143.0 L 171.0 141.5 L 173.5 141.5 " stroke="black" fill="none" stroke-width="3.0" stroke-linecap="round" stroke-linejoin="round" />
<path d="M 157.5 156.5 L 157.0 156.5 L 156.5 156.5 L 156.5 156.5 L 158.5 156.5 L 162.0 155.5 L 165.5 154.5 L 167.5 154.5 L 168.0 155.0 L 167.5 158.0 L 164.5 163.5 L 161.5 168.5 L 160.5 170.0 L 157.0 175.0 L 156.0 176.0 L 152.0 179.5 L 151.0 180.0 L 151.5 178.5 " stroke="black" fill="none" stroke-width="3.0" stroke-linecap="round" stroke-linejoin="round" />
<path d="M 169.0 163.0 L 169.0 163.5 L 169.0 164.5 L 169.0 164.5 L 169.5 166.0 L 169.5 167.0 L 169.5 171.5 L 170.5 176.5 L 172.5 180.0 L 176.0 180.5 L 181.0 179.0 L 187.5 176.5 L 188.5 176.0 " stroke="black" fill="none" stroke-width="3.0" stroke-linecap="round" stroke-linejoin="round" />
</svg>