<svg xmlns="http://www.w3.org/2000/svg" width="300" height="300" viewBox="0 0 300 300">
<path d="M 113.0 118.0 L 112.5 118.0 L 111.0 118.5 L 110.0 119.0 L 110.0 119.0 L 111.5 119.0 L 115.5 119.0 L 121.0 119.0 L 122.5 119.0 " stroke="black" fill="none" stroke-width="3.0" stroke-linecap="round" stroke-linejoin="round" />
<path d="M 124.5 111.5 L 124.5 111.5 L 124.0 112.0 L 124.0 113.0 L 124.0 116.5 L 124.0 120.0 L 124.0 121.5 L 124.5 126.0 " stroke="black" fill="none" stroke-width="3.0" stroke-linecap="round" stroke-linejoin="round" />
<path d="M 132.5 116.0 L 132.5 116.5 L 133.5 116.5 L 135.5 116.5 L 136.5 116.5 L 140.5 116.5 L 142.0 116.5 L 145.5 117.0 L 146.5 117.5 " stroke="black" fill="none" stroke-width="3.0" stroke-linecap="round" stroke-linejoin="round" />
<path d="M 133.5 112.0 L 133.0 114.5 L 133.0 118.5 L 133.0 124.0 L 132.5 128.0 " stroke="black" fill="none" stroke-width="3.0" stroke-linecap="round" stroke-linejoin="round" />
<path d="M 112.0 131.5 L 112.0 131.5 L 112.5 132.5 L 113.5 136.5 L 114.5 142.5 L 115.0 147.5 L 115.0 150.0 L 115.0 150.5 L 115.0 150.5 " stroke="black" fill="none" stroke-width="3.0" stroke-linecap="round" stroke-linejoin="round" />
<path d="M 116.5 134.5 L 117.0 134.0 L 118.0 132.5 L 120.0 132.0 L 122.5 132.5 L 124.5 135.0 L 125.0 135.5 L 126.0 140.0 L 125.5 144.5 L 123.0 149.0 L 120.5 152.0 L 118.5 153.0 L 118.5 153.0 " stroke="black" fill="none" stroke-width="3.0" stroke-linecap="round" stroke-linejoin="round" />
<path d="M 132.5 134.0 L 132.5 134.0 L 133.0 134.5 L 133.5 138.0 L 134.0 142.5 L 134.0 146.5 L 134.0 148.5 L 134.0 148.5 " stroke="black" fill="none" stroke-width="3.0" stroke-linecap="round" stroke-linejoin="round" />
<path d="M 136.0 133.0 L 136.5 132.5 L 138.5 132.5 L 140.5 133.5 L 142.0 135.0 L 142.5 136.0 L 143.5 139.0 L 143.5 140.0 L 143.5 143.0 L 143.0 144.0 L 140.5 148.0 L 140.0 148.5 " stroke="black" fill="none" stroke-width="3.0" stroke-linecap="round" stroke-linejoin="round" />
<path d="M 130.5 155.0 L 129.5 155.0 L 127.5 155.0 L 125.0 155.0 L 121.5 157.0 L 116.5 158.5 L 113.0 160.0 L 112.0 160.0 L 111.0 160.5 L 111.0 161.0 L 112.0 161.0 L 114.5 161.5 L 117.5 163.5 L 120.0 166.5 L 121.0 172.0 L 121.5 176.5 L 121.5 178.0 L 121.5 183.0 L 121.5 184.5 L 121.5 187.5 L 121.5 188.5 L 121.5 189.5 L 121.5 188.0 " stroke="black" fill="none" stroke-width="3.0" stroke-linecap="round" stroke-linejoin="round" />
<path d="M 130.0 154.0 L 130.5 154.5 L 132.0 155.5 L 134.5 157.0 L 138.5 158.5 " stroke="black" fill="none" stroke-width="3.0" stroke-linecap="round" stroke-linejoin="round" />
<path d="M 124.0 162.5 L 124.0 163.0 L 126.0 163.5 L 131.0 164.0 L 137.5 164.0 L 140.0 164.0 " stroke="black" fill="none" stroke-width="3.0" stroke-linecap="round" stroke-linejoin="round" />
<path d="M 124.5 168.5 L 124.0 169.0 L 124.5 169.0 L 127.0 169.0 L 128.0 169.0 L 134.0 169.0 L 136.5 169.0 " stroke="black" fill="none" stroke-width="3.0" stroke-linecap="round" stroke-linejoin="round" />
<path d="M 123.0 177.5 L 123.0 178.0 L 124.5 178.5 L 125.0 178.5 L 128.5 178.5 L 130.0 178.5 L 136.5 178.0 L 141.0 177.5 " stroke="black" fill="none" stroke-width="3.0" stroke-linecap="round" stroke-linejoin="round" />
<path d="M 133.0 163.5 L 132.5 164.0 L 132.5 165.0 L 132.5 165.5 L 133.0 169.5 L 134.5 175.5 L 136.0 181.5 " stroke="black" fill="none" stroke-width="3.0" stroke-linecap="round" stroke-linejoin="round" />
<path d="M 123.5 184.5 L 123.5 185.0 L 124.5 185.0 L 129.0 185.5 L 136.0 186.0 L 141.0 186.5 " stroke="black" fill="none" stroke-width="3.0" stroke-linecap="round" stroke-linejoin="round" />
<path d="M 157.0 121.0 L 157.0 122.5 L 157.0 125.5 L 157.0 130.0 L 157.0 132.0 L 157.0 137.0 L 157.0 139.0 L 157.0 144.0 L 156.5 145.5 L 156.5 149.5 L 156.5 150.0 " stroke="black" fill="none" stroke-width="3.0" stroke-linecap="round" stroke-linejoin="round" />
<path d="M 162.5 118.5 L 163.0 118.0 L 165.0 117.5 L 167.0 118.5 L 169.5 124.0 L 171.0 130.5 L 171.5 136.0 L 172.0 138.0 L 172.0 144.0 L 171.5 146.0 L 171.0 146.5 " stroke="black" fill="none" stroke-width="3.0" stroke-linecap="round" stroke-linejoin="round" />
<path d="M 160.0 131.5 L 160.0 131.5 L 160.0 131.5 L 162.0 131.5 L 163.0 131.5 L 167.5 132.5 L 169.5 133.0 " stroke="black" fill="none" stroke-width="3.0" stroke-linecap="round" stroke-linejoin="round" />
<path d="M 160.5 139.5 L 160.5 140.0 L 161.5 140.0 L 165.0 140.0 L 169.0 140.5 L 171.0 141.0 " stroke="black" fill="none" stroke-width="3.0" stroke-linecap="round" stroke-linejoin="round" />
<path d="M 156.5 151.5 L 156.5 152.0 L 158.0 152.5 L 162.5 152.0 L 167.5 151.5 L 170.5 151.5 L 171.0 152.0 L 171.5 152.5 " stroke="black" fill="none" stroke-width="3.0" stroke-linecap="round" stroke-linejoin="round" />
<path d="M 164.0 154.5 L 163.0 154.5 L 162.5 154.5 L 162.0 155.5 L 161.0 159.0 L 160.5 163.5 L 160.0 165.5 L 158.5 171.5 L 157.5 173.5 L 155.0 182.0 L 154.0 187.0 L 154.0 187.0 " stroke="black" fill="none" stroke-width="3.0" stroke-linecap="round" stroke-linejoin="round" />
<path d="M 167.0 159.0 L 167.0 158.5 L 167.0 158.5 L 167.0 158.5 L 167.5 161.5 L 167.0 168.0 L 166.5 177.0 L 166.5 182.5 L 167.5 185.0 L 168.5 185.5 L 171.0 185.5 L 172.0 185.5 L 176.5 185.5 L 178.0 185.5 L 182.5 185.5 L 184.0 185.5 L 187.5 186.0 L 187.5 186.0 L 186.5 185.5 L 184.0 182.5 " stroke="black" fill="none" stroke-width="3.0" stroke-linecap="round" stroke-linejoin="round" />
</svg>