<svg xmlns="http://www.w3.org/2000/svg" width="300" height="300" viewBox="0 0 300 300">
<path d="M 125.0 119.5 L 124.0 120.5 L 124.5 122.0 L 126.5 124.0 L 128.0 125.5 L 129.0 126.0 L 131.0 128.5 " stroke="black" fill="none" stroke-width="3.0" stroke-linecap="round" stroke-linejoin="round" />
<path d="M 118.0 136.0 L 117.5 136.0 L 117.5 136.0 L 117.5 136.0 L 118.0 136.0 L 118.5 136.0 L 121.0 135.5 L 122.5 135.0 L 128.5 133.0 L 134.5 131.5 L 139.0 131.0 L 140.0 131.0 " stroke="black" fill="none" stroke-width="3.0" stroke-linecap="round" stroke-linejoin="round" />
<path d="M 124.5 143.0 L 123.0 144.0 L 123.0 144.0 L 124.5 143.5 L 127.0 142.5 L 130.0 141.5 L 132.5 141.0 L 133.5 140.5 " stroke="black" fill="none" stroke-width="3.0" stroke-linecap="round" stroke-linejoin="round" />
<path d="M 124.5 152.0 L 122.0 153.0 L 122.0 153.5 L 124.0 152.5 L 127.0 151.0 L 130.0 150.0 L 131.0 149.5 L 133.5 148.0 L 134.5 148.0 L 137.0 147.5 L 137.5 147.5 " stroke="black" fill="none" stroke-width="3.0" stroke-linecap="round" stroke-linejoin="round" />
<path d="M 127.0 158.5 L 127.0 158.5 L 127.0 158.5 L 127.0 158.5 L 127.0 159.0 L 127.0 159.5 L 127.5 163.5 L 128.0 168.5 L 128.0 173.5 L 127.5 175.5 L 127.0 175.5 L 128.0 172.5 L 129.5 169.0 L 130.5 167.5 L 133.0 164.5 L 133.5 164.0 L 136.0 162.5 L 136.5 162.5 L 137.5 163.0 L 137.0 166.5 L 134.0 170.5 L 131.5 173.5 L 129.0 175.5 L 127.5 175.5 L 127.5 174.0 L 127.5 173.0 L 128.5 170.5 " stroke="black" fill="none" stroke-width="3.0" stroke-linecap="round" stroke-linejoin="round" />
<path d="M 150.5 124.0 L 150.0 124.0 L 150.0 124.0 L 152.5 124.0 L 156.0 123.5 L 159.5 123.5 L 160.0 123.5 " stroke="black" fill="none" stroke-width="3.0" stroke-linecap="round" stroke-linejoin="round" />
<path d="M 147.0 139.5 L 146.5 140.5 L 146.5 140.5 L 149.5 139.0 L 153.5 137.5 L 156.5 137.0 L 157.5 137.0 L 160.0 136.5 L 160.5 136.5 L 161.5 137.0 L 161.5 139.5 L 161.5 144.0 L 161.5 150.0 L 162.5 157.0 L 162.5 165.0 L 162.5 173.5 L 162.0 178.0 L 161.5 179.0 L 161.0 181.0 L 161.0 181.0 L 160.0 180.5 L 159.0 178.0 L 158.5 177.5 " stroke="black" fill="none" stroke-width="3.0" stroke-linecap="round" stroke-linejoin="round" />
<path d="M 148.5 156.5 L 147.5 155.5 L 148.0 155.0 L 150.0 154.0 L 152.0 154.0 L 153.5 154.0 L 154.0 155.0 L 154.0 156.0 L 152.5 159.5 L 150.0 163.5 L 147.5 167.0 L 146.5 168.0 L 147.5 167.0 " stroke="black" fill="none" stroke-width="3.0" stroke-linecap="round" stroke-linejoin="round" />
<path d="M 176.0 142.5 L 178.5 141.5 L 179.5 141.0 L 179.5 142.0 L 177.5 145.0 L 174.0 149.5 L 171.0 153.0 L 169.5 155.0 L 169.0 155.5 L 169.0 155.5 L 170.0 155.5 L 170.5 155.5 L 173.5 156.0 L 176.5 158.0 L 179.5 161.5 L 181.5 166.0 L 182.5 169.0 L 182.5 170.5 L 182.5 170.5 L 182.5 170.5 " stroke="black" fill="none" stroke-width="3.0" stroke-linecap="round" stroke-linejoin="round" />
</svg>