<svg xmlns="http://www.w3.org/2000/svg" width="300" height="300" viewBox="0 0 300 300">
<path d="M 124.0 125.5 L 124.0 126.5 L 125.0 127.5 L 128.5 129.0 L 133.5 130.5 " stroke="black" fill="none" stroke-width="3.0" stroke-linecap="round" stroke-linejoin="round" />
<path d="M 118.0 137.5 L 118.5 137.5 L 120.5 137.5 L 126.0 138.0 L 134.0 138.0 L 139.0 138.5 " stroke="black" fill="none" stroke-width="3.0" stroke-linecap="round" stroke-linejoin="round" />
<path d="M 121.5 147.5 L 121.5 148.5 L 123.0 148.5 L 126.0 148.5 L 127.5 148.5 L 131.5 148.0 L 133.0 148.0 L 136.5 148.0 " stroke="black" fill="none" stroke-width="3.0" stroke-linecap="round" stroke-linejoin="round" />
<path d="M 122.0 155.0 L 122.0 155.0 L 122.0 155.0 L 122.5 155.0 L 123.0 155.0 L 125.0 155.0 L 126.0 155.0 L 130.5 155.0 L 132.0 155.0 " stroke="black" fill="none" stroke-width="3.0" stroke-linecap="round" stroke-linejoin="round" />
<path d="M 123.5 162.5 L 123.5 164.0 L 123.5 164.5 L 123.5 167.5 L 123.5 172.5 L 123.5 177.5 L 123.5 180.5 L 123.0 181.0 L 123.0 179.5 L 123.0 176.0 L 123.5 175.0 L 125.5 170.5 L 126.0 169.5 L 128.5 166.0 L 129.5 165.5 L 133.0 165.0 L 135.5 168.0 L 135.5 173.5 L 134.0 178.0 L 131.0 181.0 L 128.0 182.0 L 125.5 182.0 L 125.0 179.5 L 125.0 178.5 " stroke="black" fill="none" stroke-width="3.0" stroke-linecap="round" stroke-linejoin="round" />
<path d="M 149.0 120.0 L 148.5 120.0 L 148.0 120.5 L 148.5 122.5 L 151.0 127.0 L 154.0 132.5 L 157.5 137.0 " stroke="black" fill="none" stroke-width="3.0" stroke-linecap="round" stroke-linejoin="round" />
<path d="M 170.0 121.0 L 171.0 121.0 L 171.0 121.0 L 171.5 122.0 L 171.0 124.5 L 170.5 125.5 L 169.5 129.0 L 169.0 130.0 L 167.5 133.0 " stroke="black" fill="none" stroke-width="3.0" stroke-linecap="round" stroke-linejoin="round" />
<path d="M 165.0 115.5 L 163.5 117.0 L 163.0 119.0 L 163.0 120.0 L 162.0 124.0 L 161.5 125.5 L 159.5 131.5 L 159.0 134.0 L 156.0 143.5 L 153.0 152.0 L 152.5 154.5 " stroke="black" fill="none" stroke-width="3.0" stroke-linecap="round" stroke-linejoin="round" />
<path d="M 159.5 144.5 L 161.0 147.0 L 163.5 149.5 L 166.0 152.0 L 168.0 154.0 " stroke="black" fill="none" stroke-width="3.0" stroke-linecap="round" stroke-linejoin="round" />
<path d="M 141.0 156.0 L 141.0 156.5 L 141.0 157.0 L 143.0 158.0 L 148.0 160.0 L 151.5 161.0 " stroke="black" fill="none" stroke-width="3.0" stroke-linecap="round" stroke-linejoin="round" />
<path d="M 173.0 157.5 L 173.0 157.5 L 173.0 158.0 L 172.0 159.0 L 170.5 161.0 L 168.5 164.0 L 166.0 166.5 " stroke="black" fill="none" stroke-width="3.0" stroke-linecap="round" stroke-linejoin="round" />
<path d="M 157.0 155.5 L 156.5 155.5 L 156.0 157.0 L 155.0 161.0 L 154.5 167.0 L 154.0 169.0 L 152.5 176.0 L 152.0 178.5 L 151.0 186.0 L 151.0 188.0 " stroke="black" fill="none" stroke-width="3.0" stroke-linecap="round" stroke-linejoin="round" />
<path d="M 157.0 175.0 L 159.0 177.5 L 159.5 178.0 L 161.5 180.0 L 162.5 181.0 L 166.0 184.0 L 169.0 186.5 L 170.5 187.0 " stroke="black" fill="none" stroke-width="3.0" stroke-linecap="round" stroke-linejoin="round" />
</svg>