<svg xmlns="http://www.w3.org/2000/svg" width="300" height="300" viewBox="0 0 300 300">
<path d="M 139.5 122.0 L 140.0 121.5 L 140.5 120.5 L 141.5 119.0 L 141.5 118.5 L 143.0 117.5 L 143.0 117.0 L 143.5 117.0 L 143.5 117.5 L 143.5 117.5 L 143.0 118.0 L 143.0 118.0 L 142.5 119.0 L 142.0 120.5 L 141.5 121.5 L 139.5 125.5 L 138.5 127.0 L 133.5 135.0 L 127.0 143.0 L 122.0 147.5 L 120.5 147.5 L 120.5 147.0 " stroke="black" fill="none" stroke-width="3.0" stroke-linecap="round" stroke-linejoin="round" />
<path d="M 160.0 123.0 L 160.0 124.0 L 161.0 125.0 L 165.0 127.0 L 169.0 128.5 L 170.5 128.5 L 174.5 130.0 L 175.5 130.0 " stroke="black" fill="none" stroke-width="3.0" stroke-linecap="round" stroke-linejoin="round" />
<path d="M 153.0 139.5 L 153.0 140.0 L 153.0 140.0 L 153.0 141.0 L 151.0 143.0 L 146.5 148.5 L 140.0 155.5 L 132.0 162.5 L 127.0 166.5 L 125.5 167.5 L 122.0 168.5 L 121.0 168.0 " stroke="black" fill="none" stroke-width="3.0" stroke-linecap="round" stroke-linejoin="round" />
<path d="M 145.0 142.5 L 147.5 142.5 L 149.5 142.5 L 150.5 142.5 L 154.0 144.0 L 158.5 145.5 L 163.5 146.5 L 168.0 146.5 L 169.5 146.5 " stroke="black" fill="none" stroke-width="3.0" stroke-linecap="round" stroke-linejoin="round" />
<path d="M 148.0 163.0 L 148.0 163.5 L 148.5 164.0 L 149.0 164.5 L 150.0 166.0 L 150.0 167.0 L 151.0 172.5 L 151.0 178.5 L 150.5 182.5 L 149.5 183.5 L 149.5 182.5 L 150.5 179.0 L 154.5 174.5 L 158.5 172.5 L 160.0 171.5 L 164.0 171.0 L 164.5 171.0 L 166.0 172.5 L 166.0 173.5 L 165.0 177.0 L 164.5 178.0 L 160.5 183.0 L 155.0 187.5 L 150.5 189.5 L 148.0 189.0 " stroke="black" fill="none" stroke-width="3.0" stroke-linecap="round" stroke-linejoin="round" />
</svg>