<svg xmlns="http://www.w3.org/2000/svg" width="300" height="300" viewBox="0 0 300 300">
<path d="M 161.5 102.5 L 161.0 103.0 L 161.0 103.0 L 163.0 103.0 L 169.0 101.5 L 175.5 99.5 L 177.5 99.0 L 183.5 97.0 L 185.5 96.0 L 188.0 95.0 L 188.0 94.5 L 188.5 94.5 " stroke="black" fill="none" stroke-width="3.0" stroke-linecap="round" stroke-linejoin="round" />
<path d="M 175.5 94.0 L 175.5 94.0 L 175.5 94.0 L 175.5 94.0 L 175.5 94.0 L 175.5 94.5 L 175.5 96.5 L 175.5 98.0 L 175.5 104.5 L 175.5 111.5 L 175.0 113.0 " stroke="black" fill="none" stroke-width="3.0" stroke-linecap="round" stroke-linejoin="round" />
<path d="M 156.0 120.5 L 154.0 121.5 L 153.5 122.0 L 153.0 122.0 L 154.0 122.0 L 158.5 121.5 L 166.0 119.5 L 175.5 117.0 L 185.0 113.5 L 190.5 112.0 L 191.0 112.0 L 192.0 112.0 " stroke="black" fill="none" stroke-width="3.0" stroke-linecap="round" stroke-linejoin="round" />
<path d="M 169.5 125.5 L 169.0 125.0 L 169.0 125.0 L 169.0 125.0 L 169.0 125.0 L 170.0 127.0 L 170.5 130.5 L 171.0 134.0 L 171.0 136.0 L 171.5 136.0 L 172.5 134.0 L 173.0 133.0 L 175.5 130.0 L 177.0 129.0 L 180.0 127.0 L 181.0 126.5 L 184.0 126.0 L 185.0 126.0 L 186.0 126.5 L 185.5 129.0 L 182.5 132.5 L 179.0 136.0 L 176.0 138.5 " stroke="black" fill="none" stroke-width="3.0" stroke-linecap="round" stroke-linejoin="round" />
<path d="M 172.5 140.0 L 173.0 140.0 L 173.5 139.5 L 173.5 139.5 L 172.5 140.0 L 172.0 140.5 L 169.0 143.0 L 168.0 144.0 L 163.5 147.0 L 162.0 148.0 L 156.5 151.0 L 153.5 152.0 L 154.0 152.0 L 156.5 151.0 L 159.5 150.5 L 163.0 151.5 L 165.0 153.5 L 165.5 154.5 L 167.0 158.5 L 167.0 160.0 L 167.5 165.5 L 168.0 167.5 L 168.0 168.0 " stroke="black" fill="none" stroke-width="3.0" stroke-linecap="round" stroke-linejoin="round" />
<path d="M 188.5 140.5 L 189.0 139.5 L 189.5 139.0 L 190.0 138.5 L 189.5 139.0 L 186.5 141.5 L 182.0 144.5 L 178.5 146.5 L 178.0 147.0 L 175.5 148.0 L 175.0 148.5 L 175.5 148.5 L 178.0 149.5 L 181.5 152.0 L 184.5 155.0 L 186.0 158.5 L 186.5 161.0 L 186.5 162.5 L 186.0 162.5 " stroke="black" fill="none" stroke-width="3.0" stroke-linecap="round" stroke-linejoin="round" />
<path d="M 129.0 126.5 L 129.0 126.5 L 128.5 126.5 L 128.5 126.5 L 128.5 126.5 L 128.5 126.5 L 129.0 126.5 L 130.0 126.5 L 134.0 125.5 L 139.0 125.5 L 140.0 125.5 " stroke="black" fill="none" stroke-width="3.0" stroke-linecap="round" stroke-linejoin="round" />
<path d="M 129.0 137.0 L 128.5 137.0 L 128.5 137.0 L 129.0 137.0 L 131.5 136.5 L 135.5 136.0 L 139.0 135.5 L 140.5 135.5 L 140.5 136.0 L 140.5 137.0 L 138.0 139.0 L 137.5 140.0 L 134.5 142.0 L 133.5 143.0 L 130.5 145.0 L 129.5 145.5 L 130.0 145.5 L 133.0 145.5 L 136.5 145.5 L 139.5 145.5 L 141.5 147.0 L 141.5 147.5 L 142.0 150.0 L 140.5 152.5 L 139.5 153.5 L 137.0 155.5 L 136.0 156.0 L 132.5 157.5 L 129.0 158.5 L 126.5 158.5 L 125.5 158.0 L 125.0 158.0 L 125.5 158.0 L 127.0 158.0 L 128.0 158.0 L 130.5 159.0 L 132.0 159.5 L 139.5 163.5 L 150.5 169.5 L 161.5 176.0 L 170.5 180.0 L 175.5 182.0 L 177.5 183.0 L 177.5 183.0 L 177.5 183.0 L 177.5 183.0 L 177.5 183.0 L 177.5 183.0 L 177.5 183.0 L 177.0 182.5 " stroke="black" fill="none" stroke-width="3.0" stroke-linecap="round" stroke-linejoin="round" />
</svg>