<svg xmlns="http://www.w3.org/2000/svg" width="300" height="300" viewBox="0 0 300 300">
<path d="M 119.0 121.5 L 119.0 121.5 L 118.5 121.5 L 118.5 121.5 L 121.0 121.5 L 124.5 122.0 L 126.0 122.0 L 129.5 122.0 L 130.5 122.0 L 133.0 123.0 L 133.0 124.5 L 132.5 125.0 L 127.5 128.5 L 122.5 130.5 L 119.5 131.0 L 119.0 131.5 L 121.5 131.5 L 124.5 131.5 L 125.5 131.5 L 128.5 132.0 L 129.5 132.0 L 132.0 133.5 L 132.5 135.5 L 132.5 136.5 L 131.0 140.5 L 128.0 144.0 L 125.5 146.0 L 124.0 146.0 L 122.5 145.5 " stroke="black" fill="none" stroke-width="3.0" stroke-linecap="round" stroke-linejoin="round" />
<path d="M 121.0 127.0 L 120.5 126.0 L 120.5 125.5 L 120.5 125.5 L 120.5 127.0 L 121.5 134.0 L 122.5 145.5 L 122.5 157.5 L 122.5 161.0 L 122.5 172.0 L 122.0 177.5 L 121.5 179.0 L 121.5 178.5 L 121.5 177.0 " stroke="black" fill="none" stroke-width="3.0" stroke-linecap="round" stroke-linejoin="round" />
<path d="M 149.0 115.5 L 149.0 115.5 L 149.0 115.5 L 148.5 116.0 L 148.5 116.5 L 148.5 119.5 L 148.5 123.5 L 148.5 125.5 L 148.0 132.5 L 147.5 136.0 L 147.0 136.5 L 147.0 135.5 " stroke="black" fill="none" stroke-width="3.0" stroke-linecap="round" stroke-linejoin="round" />
<path d="M 148.5 117.5 L 148.5 115.5 L 148.5 114.5 L 150.0 113.0 L 152.5 113.0 L 156.5 113.5 L 160.0 116.5 L 162.5 121.0 L 163.5 126.0 L 163.0 131.5 L 162.5 134.5 L 162.0 135.0 L 161.5 135.5 L 161.5 135.5 L 160.0 135.0 " stroke="black" fill="none" stroke-width="3.0" stroke-linecap="round" stroke-linejoin="round" />
<path d="M 150.5 125.5 L 150.5 126.0 L 150.5 126.0 L 150.5 126.5 L 150.5 126.5 L 151.5 127.0 L 152.0 127.0 L 155.0 127.0 L 156.0 127.0 L 160.5 127.0 L 162.0 127.0 " stroke="black" fill="none" stroke-width="3.0" stroke-linecap="round" stroke-linejoin="round" />
<path d="M 148.0 137.0 L 148.0 137.0 L 148.0 137.0 L 148.0 137.0 L 149.5 137.0 L 153.5 137.0 L 159.0 137.0 L 162.5 137.0 " stroke="black" fill="none" stroke-width="3.0" stroke-linecap="round" stroke-linejoin="round" />
<path d="M 141.0 146.5 L 141.0 146.0 L 141.5 146.0 L 143.5 146.0 L 145.0 146.0 L 150.5 146.0 L 152.5 146.0 L 162.0 146.5 L 167.5 146.5 L 169.0 146.5 L 173.0 146.5 " stroke="black" fill="none" stroke-width="3.0" stroke-linecap="round" stroke-linejoin="round" />
<path d="M 151.0 150.0 L 151.0 150.0 L 150.5 149.5 L 150.0 149.5 L 150.0 149.5 L 149.5 149.5 L 149.0 152.5 L 148.0 157.5 L 146.0 163.0 L 144.0 166.0 L 144.0 166.5 L 146.0 166.0 L 149.5 165.0 L 151.0 164.5 L 156.0 164.0 L 158.0 163.5 L 164.0 163.5 L 165.5 163.5 L 171.5 165.0 L 173.5 169.0 L 173.5 175.0 L 172.5 181.0 L 171.5 185.0 L 170.5 186.5 L 169.5 187.0 L 169.5 187.0 L 168.5 186.0 L 168.0 184.5 " stroke="black" fill="none" stroke-width="3.0" stroke-linecap="round" stroke-linejoin="round" />
<path d="M 157.0 164.0 L 157.0 164.5 L 156.5 165.0 L 156.5 165.0 L 155.5 166.5 L 154.0 170.5 L 152.5 175.5 L 151.5 179.0 L 151.5 179.5 " stroke="black" fill="none" stroke-width="3.0" stroke-linecap="round" stroke-linejoin="round" />
<path d="M 164.5 166.0 L 164.5 166.0 L 164.5 168.0 L 164.0 170.5 L 162.5 175.0 L 160.5 179.5 L 159.5 182.5 L 159.0 182.5 " stroke="black" fill="none" stroke-width="3.0" stroke-linecap="round" stroke-linejoin="round" />
</svg>