<svg xmlns="http://www.w3.org/2000/svg" width="300" height="300" viewBox="0 0 300 300">
<path d="M 110.5 115.0 L 110.5 115.0 L 110.5 115.0 L 111.0 115.0 L 114.5 112.5 L 122.0 108.5 L 129.0 106.0 L 132.5 105.0 L 133.0 106.0 L 132.0 108.0 L 131.5 109.0 L 129.5 113.0 L 128.5 114.5 L 125.5 119.0 L 124.5 120.5 L 121.0 125.5 L 117.5 129.5 L 115.0 132.0 L 113.0 132.5 " stroke="black" fill="none" stroke-width="3.0" stroke-linecap="round" stroke-linejoin="round" />
<path d="M 114.5 116.5 L 114.5 116.5 L 114.5 116.5 L 114.5 116.5 L 116.0 117.0 L 117.0 117.5 L 122.5 120.5 L 128.5 123.5 L 130.0 124.5 L 134.0 126.5 L 135.5 127.5 L 137.0 128.5 L 137.0 129.0 " stroke="black" fill="none" stroke-width="3.0" stroke-linecap="round" stroke-linejoin="round" />
<path d="M 108.5 144.5 L 108.5 144.5 L 108.0 144.5 L 108.5 144.5 L 111.5 143.0 L 116.0 140.0 L 119.5 138.5 L 120.5 138.0 L 122.5 138.0 L 122.5 140.0 L 122.0 141.0 L 119.5 147.0 L 116.5 152.0 L 113.5 156.0 L 111.5 157.5 L 111.0 158.0 " stroke="black" fill="none" stroke-width="3.0" stroke-linecap="round" stroke-linejoin="round" />
<path d="M 109.5 147.5 L 109.5 147.5 L 109.5 147.5 L 109.5 147.5 L 110.5 147.5 L 113.5 149.5 L 118.0 153.5 L 122.5 157.5 L 124.5 158.5 " stroke="black" fill="none" stroke-width="3.0" stroke-linecap="round" stroke-linejoin="round" />
<path d="M 129.0 139.5 L 129.0 139.5 L 129.0 139.5 L 131.0 139.5 L 136.0 138.0 L 142.5 136.0 L 146.0 135.5 L 146.5 135.5 L 147.0 135.5 L 146.0 137.5 L 144.0 141.5 L 141.0 147.0 L 138.5 152.0 L 135.5 156.5 L 133.0 158.5 " stroke="black" fill="none" stroke-width="3.0" stroke-linecap="round" stroke-linejoin="round" />
<path d="M 133.0 145.5 L 133.0 145.5 L 133.0 145.5 L 134.5 146.0 L 137.5 147.5 L 141.5 150.5 L 144.5 152.5 L 145.0 153.5 L 146.5 155.0 " stroke="black" fill="none" stroke-width="3.0" stroke-linecap="round" stroke-linejoin="round" />
<path d="M 113.0 172.0 L 112.0 173.5 L 111.5 173.5 L 111.5 174.0 L 113.5 174.0 L 118.5 173.5 L 125.0 171.0 L 133.0 167.0 L 140.0 163.5 L 141.5 162.0 " stroke="black" fill="none" stroke-width="3.0" stroke-linecap="round" stroke-linejoin="round" />
<path d="M 130.5 160.0 L 129.0 159.0 L 129.0 159.0 L 128.5 158.5 L 129.0 159.5 L 130.0 162.0 L 130.5 163.5 L 132.0 168.5 L 132.0 171.0 L 133.5 179.0 L 133.5 182.0 L 134.0 190.5 L 134.0 193.0 L 134.0 198.5 L 133.5 199.0 L 132.0 195.0 " stroke="black" fill="none" stroke-width="3.0" stroke-linecap="round" stroke-linejoin="round" />
<path d="M 130.5 176.5 L 130.5 176.5 L 130.5 176.5 L 130.5 176.5 L 130.0 176.5 L 129.5 176.5 L 128.5 178.5 L 125.5 183.0 L 121.0 189.5 L 118.5 193.5 L 117.5 194.0 " stroke="black" fill="none" stroke-width="3.0" stroke-linecap="round" stroke-linejoin="round" />
<path d="M 127.5 183.0 L 128.5 182.5 L 130.5 181.5 L 135.0 181.5 L 140.5 183.0 L 144.0 185.5 L 147.0 188.0 L 148.5 189.0 " stroke="black" fill="none" stroke-width="3.0" stroke-linecap="round" stroke-linejoin="round" />
<path d="M 145.0 112.5 L 145.0 112.5 L 145.0 112.5 L 146.5 112.5 L 152.5 112.5 L 161.0 112.0 L 167.0 111.0 L 168.5 111.0 L 168.0 111.0 L 168.0 111.0 L 166.0 112.5 L 165.0 113.5 L 163.0 116.5 L 162.5 117.5 L 160.5 124.5 L 160.0 135.5 L 160.0 149.5 L 160.5 161.5 L 161.0 166.5 L 161.0 167.0 L 161.0 166.0 L 161.0 165.5 L 161.0 164.5 " stroke="black" fill="none" stroke-width="3.0" stroke-linecap="round" stroke-linejoin="round" />
<path d="M 162.0 138.0 L 162.0 138.0 L 162.5 137.5 L 164.5 136.5 L 168.0 136.0 L 169.5 136.0 L 174.5 137.5 L 177.5 141.0 L 178.0 143.0 L 179.0 149.0 L 179.0 151.0 L 178.5 158.5 L 177.5 161.5 L 177.0 162.0 L 177.0 161.5 " stroke="black" fill="none" stroke-width="3.0" stroke-linecap="round" stroke-linejoin="round" />
<path d="M 164.0 152.5 L 162.5 153.0 L 162.0 153.0 L 163.5 152.5 L 168.5 150.0 L 173.5 147.5 L 177.5 146.5 " stroke="black" fill="none" stroke-width="3.0" stroke-linecap="round" stroke-linejoin="round" />
<path d="M 164.0 163.0 L 162.5 164.5 L 162.0 165.0 L 164.5 164.0 L 169.0 161.5 L 173.0 158.5 L 176.0 158.0 L 176.5 158.0 " stroke="black" fill="none" stroke-width="3.0" stroke-linecap="round" stroke-linejoin="round" />
<path d="M 165.5 174.0 L 165.0 174.0 L 163.5 175.0 L 163.0 175.0 L 164.0 174.5 L 167.0 173.0 L 168.0 172.0 L 171.5 170.0 L 172.5 169.0 L 175.0 168.0 L 176.0 167.5 L 177.5 167.5 L 177.5 171.5 L 175.5 176.5 L 172.5 182.0 L 170.0 187.0 L 168.5 189.5 L 167.5 190.0 L 167.5 190.0 L 167.5 190.0 " stroke="black" fill="none" stroke-width="3.0" stroke-linecap="round" stroke-linejoin="round" />
<path d="M 175.0 178.5 L 176.0 178.0 L 178.0 177.5 L 179.5 178.0 L 182.0 181.0 L 185.5 184.5 L 189.0 187.5 L 192.0 189.5 L 192.5 190.0 L 194.0 190.5 L 194.0 191.0 L 194.0 191.0 L 194.0 191.0 " stroke="black" fill="none" stroke-width="3.0" stroke-linecap="round" stroke-linejoin="round" />
</svg>