<svg xmlns="http://www.w3.org/2000/svg" width="300" height="300" viewBox="0 0 300 300">
<path d="M 117.0 128.5 L 117.0 128.5 L 116.5 128.5 L 116.5 128.5 L 120.0 128.0 L 125.5 126.5 L 128.0 125.5 L 138.0 121.5 L 145.0 119.5 " stroke="black" fill="none" stroke-width="3.0" stroke-linecap="round" stroke-linejoin="round" />
<path d="M 126.0 129.0 L 126.0 129.0 L 126.0 129.0 L 126.0 129.5 L 126.5 131.5 L 128.0 137.5 L 128.5 147.0 L 128.5 155.0 L 128.0 158.0 L 128.0 158.0 " stroke="black" fill="none" stroke-width="3.0" stroke-linecap="round" stroke-linejoin="round" />
<path d="M 128.0 140.5 L 128.0 141.0 L 128.0 141.0 L 129.0 141.0 L 132.5 139.5 L 133.5 138.5 L 140.0 136.0 L 141.5 135.5 " stroke="black" fill="none" stroke-width="3.0" stroke-linecap="round" stroke-linejoin="round" />
<path d="M 128.5 153.0 L 128.5 153.0 L 128.5 153.0 L 129.5 152.0 L 130.5 151.5 L 136.0 148.0 L 141.0 145.0 " stroke="black" fill="none" stroke-width="3.0" stroke-linecap="round" stroke-linejoin="round" />
<path d="M 140.0 126.5 L 140.0 126.5 L 139.5 126.5 L 139.5 127.0 L 139.5 127.5 L 139.5 132.0 L 140.0 141.0 L 138.5 152.0 L 136.0 159.5 L 135.0 162.0 L 135.0 162.0 L 135.0 162.0 L 135.5 161.0 L 136.0 160.5 L 140.0 157.5 L 145.0 155.0 L 149.0 154.0 L 152.5 155.0 L 152.5 160.5 L 150.5 167.5 L 148.0 175.0 L 145.0 180.5 L 142.5 183.0 L 141.5 183.5 L 138.5 185.5 L 137.5 185.5 L 135.5 186.0 " stroke="black" fill="none" stroke-width="3.0" stroke-linecap="round" stroke-linejoin="round" />
<path d="M 102.0 163.0 L 102.0 163.0 L 102.0 163.5 L 102.5 164.5 L 105.5 168.5 L 110.5 173.5 L 114.5 177.0 L 117.0 178.5 " stroke="black" fill="none" stroke-width="3.0" stroke-linecap="round" stroke-linejoin="round" />
<path d="M 114.5 164.5 L 115.0 164.5 L 116.0 165.5 L 118.0 168.0 L 121.0 172.0 L 123.5 175.5 L 125.0 177.5 " stroke="black" fill="none" stroke-width="3.0" stroke-linecap="round" stroke-linejoin="round" />
<path d="M 127.5 166.0 L 128.0 167.0 L 129.0 168.0 L 129.0 168.0 L 130.0 169.5 L 130.5 170.0 L 132.0 172.0 L 132.0 173.0 L 133.5 175.5 " stroke="black" fill="none" stroke-width="3.0" stroke-linecap="round" stroke-linejoin="round" />
<path d="M 137.5 166.5 L 138.0 167.5 L 138.5 168.0 L 139.0 169.0 L 140.5 170.5 L 142.0 172.5 " stroke="black" fill="none" stroke-width="3.0" stroke-linecap="round" stroke-linejoin="round" />
<path d="M 172.0 118.0 L 171.5 118.0 L 170.5 118.5 L 167.0 122.5 L 162.0 129.0 L 157.0 134.5 L 154.5 136.5 L 155.0 136.5 L 155.5 136.0 L 159.5 134.5 L 163.5 133.5 L 165.0 133.5 L 169.0 133.0 L 170.5 132.5 L 176.5 132.5 L 181.0 132.5 L 183.5 132.5 L 185.0 134.5 L 185.0 138.0 L 185.0 144.0 L 185.0 151.0 L 185.0 159.0 L 185.0 167.0 L 185.0 173.0 L 185.0 174.5 L 185.0 180.0 L 184.0 182.5 L 182.5 184.0 L 181.5 184.0 L 181.0 184.0 L 179.0 183.5 " stroke="black" fill="none" stroke-width="3.0" stroke-linecap="round" stroke-linejoin="round" />
<path d="M 165.5 165.5 L 164.5 165.5 L 164.0 165.5 L 163.5 165.5 L 162.5 163.5 L 162.5 159.5 L 163.5 154.0 L 167.5 150.0 L 171.5 149.0 L 174.0 152.0 L 174.5 157.5 L 173.5 161.0 L 173.0 162.0 L 171.0 164.5 L 170.0 165.0 L 168.0 165.5 L 167.5 165.5 L 167.0 165.0 " stroke="black" fill="none" stroke-width="3.0" stroke-linecap="round" stroke-linejoin="round" />
</svg>