<svg xmlns="http://www.w3.org/2000/svg" width="300" height="300" viewBox="0 0 300 300">
<path d="M 126.5 119.5 L 126.0 120.0 L 125.5 120.5 L 125.5 120.5 L 126.0 120.5 L 129.0 120.0 L 133.5 118.5 L 138.5 116.0 L 142.0 114.5 " stroke="black" fill="none" stroke-width="3.0" stroke-linecap="round" stroke-linejoin="round" />
<path d="M 126.5 128.0 L 126.5 128.0 L 127.0 128.0 L 128.0 127.5 L 133.0 126.5 L 137.0 125.0 L 138.5 124.5 L 141.5 123.5 " stroke="black" fill="none" stroke-width="3.0" stroke-linecap="round" stroke-linejoin="round" />
<path d="M 136.0 117.5 L 136.0 118.0 L 136.0 118.5 L 136.5 121.0 L 137.0 126.0 L 137.5 132.5 L 137.5 139.5 L 137.5 144.0 L 137.0 145.0 L 137.0 145.0 L 136.5 144.0 L 136.5 143.5 " stroke="black" fill="none" stroke-width="3.0" stroke-linecap="round" stroke-linejoin="round" />
<path d="M 136.5 131.5 L 136.5 131.5 L 136.5 131.5 L 136.0 131.5 L 135.0 131.5 L 135.0 132.0 L 133.0 134.5 L 130.5 137.5 L 128.0 140.5 L 126.5 142.5 " stroke="black" fill="none" stroke-width="3.0" stroke-linecap="round" stroke-linejoin="round" />
<path d="M 140.5 131.0 L 141.0 131.5 L 142.5 132.5 L 144.5 133.5 L 146.5 134.5 L 148.5 135.0 " stroke="black" fill="none" stroke-width="3.0" stroke-linecap="round" stroke-linejoin="round" />
<path d="M 155.0 114.0 L 155.5 113.5 L 155.5 113.5 L 155.5 114.0 L 154.0 117.0 L 152.0 121.0 L 149.5 126.0 L 148.5 128.5 L 148.5 129.0 " stroke="black" fill="none" stroke-width="3.0" stroke-linecap="round" stroke-linejoin="round" />
<path d="M 151.5 121.0 L 151.5 121.5 L 152.0 121.5 L 153.5 121.5 L 157.5 121.0 L 162.0 120.0 L 163.0 120.0 L 166.0 119.5 L 166.5 119.5 L 168.0 119.5 L 168.0 121.0 L 168.0 124.0 L 168.0 128.0 L 168.0 133.0 L 168.0 138.0 L 168.0 141.5 L 168.0 143.5 L 168.0 144.0 L 167.5 144.0 L 166.5 143.0 L 166.5 142.0 " stroke="black" fill="none" stroke-width="3.0" stroke-linecap="round" stroke-linejoin="round" />
<path d="M 161.5 124.0 L 161.0 122.5 L 160.5 121.5 L 160.5 121.5 L 160.5 123.0 L 160.0 126.5 L 158.5 130.5 L 157.5 134.5 L 156.0 136.5 " stroke="black" fill="none" stroke-width="3.0" stroke-linecap="round" stroke-linejoin="round" />
<path d="M 150.5 142.5 L 150.5 142.0 L 150.5 141.5 L 150.5 141.5 L 150.5 141.5 L 150.5 141.5 L 150.0 142.5 L 148.0 146.0 L 144.5 151.0 L 139.0 157.0 L 133.5 162.0 L 131.0 163.5 L 131.0 163.0 L 132.5 160.5 " stroke="black" fill="none" stroke-width="3.0" stroke-linecap="round" stroke-linejoin="round" />
<path d="M 147.5 144.0 L 147.5 144.0 L 147.5 144.0 L 149.0 144.0 L 152.5 145.0 L 158.0 146.5 L 163.0 147.5 L 165.5 148.0 L 166.0 148.0 L 166.0 148.0 " stroke="black" fill="none" stroke-width="3.0" stroke-linecap="round" stroke-linejoin="round" />
<path d="M 151.5 153.5 L 151.5 154.0 L 151.5 154.0 L 151.0 154.5 L 151.0 158.5 L 151.0 166.0 L 150.0 175.5 L 149.0 182.0 L 149.0 183.5 L 148.5 187.0 L 148.0 187.5 L 148.0 186.5 L 148.0 185.5 L 148.0 182.5 " stroke="black" fill="none" stroke-width="3.0" stroke-linecap="round" stroke-linejoin="round" />
<path d="M 137.5 166.0 L 136.5 166.0 L 136.0 166.0 L 136.5 166.0 L 138.5 166.5 L 140.0 167.5 L 141.5 168.0 L 141.5 169.0 L 141.5 169.5 L 140.5 171.5 L 138.0 174.0 L 135.0 176.5 L 134.0 178.0 L 134.0 177.5 " stroke="black" fill="none" stroke-width="3.0" stroke-linecap="round" stroke-linejoin="round" />
<path d="M 163.5 163.0 L 163.5 163.5 L 163.5 164.0 L 163.0 165.0 L 162.0 166.5 L 160.5 169.0 L 159.0 171.5 L 158.5 173.0 L 158.5 173.5 L 158.5 174.5 L 159.0 174.5 L 161.5 176.0 L 164.5 178.0 L 167.0 180.5 L 168.0 181.5 " stroke="black" fill="none" stroke-width="3.0" stroke-linecap="round" stroke-linejoin="round" />
</svg>