<svg xmlns="http://www.w3.org/2000/svg" width="300" height="300" viewBox="0 0 300 300">
<path d="M 94.5 109.5 L 94.0 109.5 L 94.0 110.0 L 94.5 110.0 L 96.5 111.0 L 97.5 112.0 L 103.0 116.0 L 109.5 120.5 L 114.0 123.0 L 115.0 123.5 " stroke="black" fill="none" stroke-width="3.0" stroke-linecap="round" stroke-linejoin="round" />
<path d="M 105.5 115.5 L 104.5 114.5 L 104.5 114.0 L 104.5 113.5 L 107.5 111.5 L 115.5 108.0 L 126.5 104.5 L 134.5 103.0 L 138.0 103.0 L 137.5 106.0 L 135.5 109.0 L 135.0 110.5 L 132.0 114.0 L 131.5 115.0 L 129.0 117.5 L 128.0 118.5 L 125.5 120.5 L 125.0 121.0 " stroke="black" fill="none" stroke-width="3.0" stroke-linecap="round" stroke-linejoin="round" />
<path d="M 112.0 111.5 L 112.0 111.5 L 112.0 112.0 L 112.0 112.0 L 112.0 113.0 L 112.5 116.0 L 114.0 120.5 " stroke="black" fill="none" stroke-width="3.0" stroke-linecap="round" stroke-linejoin="round" />
<path d="M 122.5 109.5 L 122.5 109.0 L 123.0 109.0 L 123.0 109.0 L 123.5 110.0 L 123.5 113.5 L 123.5 119.5 L 123.5 124.0 " stroke="black" fill="none" stroke-width="3.0" stroke-linecap="round" stroke-linejoin="round" />
<path d="M 114.5 125.5 L 114.0 125.5 L 114.0 126.0 L 114.0 126.0 L 114.0 126.0 L 114.0 126.0 L 116.0 126.0 L 116.5 125.5 L 120.5 124.0 L 121.5 123.5 " stroke="black" fill="none" stroke-width="3.0" stroke-linecap="round" stroke-linejoin="round" />
<path d="M 110.5 138.5 L 110.5 138.5 L 111.5 138.5 L 116.0 136.5 L 123.5 132.0 L 129.5 127.5 L 131.0 126.5 " stroke="black" fill="none" stroke-width="3.0" stroke-linecap="round" stroke-linejoin="round" />
<path d="M 121.0 115.0 L 120.0 114.5 L 119.0 114.0 L 118.5 113.5 L 118.5 113.5 L 118.5 114.0 L 119.0 117.0 L 119.0 118.5 L 120.0 125.0 L 120.0 127.5 L 120.0 136.5 L 120.0 139.5 L 119.0 147.5 L 118.0 151.0 L 117.5 151.0 L 117.5 150.0 L 120.5 148.0 L 125.0 144.0 L 128.5 141.0 L 129.5 140.0 L 131.5 138.0 L 132.0 138.0 L 132.0 138.0 " stroke="black" fill="none" stroke-width="3.0" stroke-linecap="round" stroke-linejoin="round" />
<path d="M 102.0 155.5 L 102.0 155.5 L 101.5 155.5 L 101.5 155.5 L 101.0 155.5 L 101.0 155.0 L 102.0 156.5 L 105.5 160.5 L 109.5 165.5 L 112.5 169.0 " stroke="black" fill="none" stroke-width="3.0" stroke-linecap="round" stroke-linejoin="round" />
<path d="M 115.0 154.0 L 115.0 154.0 L 115.0 154.0 L 116.5 155.0 L 119.0 158.0 L 120.0 159.0 L 123.0 162.5 L 124.0 164.0 L 126.5 166.5 " stroke="black" fill="none" stroke-width="3.0" stroke-linecap="round" stroke-linejoin="round" />
<path d="M 128.0 151.0 L 128.5 151.0 L 129.0 151.0 L 129.0 151.0 L 130.5 153.0 L 131.0 153.5 L 132.5 157.0 L 133.0 158.0 L 134.0 161.5 L 134.5 162.5 L 135.0 164.5 " stroke="black" fill="none" stroke-width="3.0" stroke-linecap="round" stroke-linejoin="round" />
<path d="M 136.5 155.5 L 136.5 155.5 L 136.5 155.5 L 136.5 155.5 L 137.0 155.5 L 138.0 156.5 L 138.5 156.5 L 141.0 159.0 L 141.5 159.5 " stroke="black" fill="none" stroke-width="3.0" stroke-linecap="round" stroke-linejoin="round" />
<path d="M 150.5 137.5 L 150.5 137.5 L 150.0 138.0 L 150.5 138.5 L 154.5 137.5 L 161.5 134.0 L 168.5 130.0 L 171.0 128.0 " stroke="black" fill="none" stroke-width="3.0" stroke-linecap="round" stroke-linejoin="round" />
<path d="M 159.0 126.0 L 159.0 126.0 L 159.0 126.0 L 159.0 127.0 L 159.0 133.0 L 158.5 141.5 L 158.0 144.5 L 156.5 153.0 L 156.5 155.0 L 156.0 158.5 L 156.0 159.0 L 156.0 159.0 " stroke="black" fill="none" stroke-width="3.0" stroke-linecap="round" stroke-linejoin="round" />
<path d="M 161.5 143.0 L 161.5 143.0 L 162.5 143.0 L 165.0 145.0 L 169.0 148.5 L 170.5 149.5 L 176.0 154.5 L 178.5 157.0 L 179.0 157.0 L 179.5 157.0 " stroke="black" fill="none" stroke-width="3.0" stroke-linecap="round" stroke-linejoin="round" />
<path d="M 169.0 108.0 L 169.0 108.0 L 169.0 108.0 L 169.0 108.0 L 170.5 108.0 L 176.0 112.0 L 181.5 117.0 " stroke="black" fill="none" stroke-width="3.0" stroke-linecap="round" stroke-linejoin="round" />
</svg>